<svg xmlns="http://www.w3.org/2000/svg" width="386.504" height="84.123" viewBox="0 0 289.878 63.092" version="1.2"><defs><clipPath id="a"><path d="M114 48h17v14.637h-17Zm0 0"/></clipPath><clipPath id="b"><path d="M129 51h17v11.637h-17Zm0 0"/></clipPath><clipPath id="c"><path d="M144 47h16v15.637h-16Zm0 0"/></clipPath><clipPath id="d"><path d="M278 38h11.816v17H278Zm0 0"/></clipPath></defs><path style="fill:none;stroke-width:.3985;stroke-linecap:butt;stroke-linejoin:miter;stroke:#000;stroke-opacity:1;stroke-miterlimit:10" d="M0-.002h14.918m0 14.243H29.84m0 10.386h14.918m0 3.72h14.918m0-3.954h14.922m0-10.555h14.918m0-14.3h14.918m0-14.176h14.922m0-10.215h14.918m0-3.484h14.918m0 4.183h14.922m0 10.719h14.918m0 14.36h14.922m0 14.105h14.918m0 10.039h14.917m0 3.254h14.922m0-4.414h14.918m0-10.883h14.918m0-14.41h14.922" transform="matrix(1 0 0 -1 3.148 31.1)"/><path style="fill-rule:nonzero;fill:#000;fill-opacity:1;stroke-width:.3985;stroke-linecap:butt;stroke-linejoin:miter;stroke:#000;stroke-opacity:1;stroke-miterlimit:10" d="M1.993-.002A1.99 1.99 0 0 1 0 1.991 1.993 1.993 0 1 1 1.992-.001ZM16.91 14.24a1.993 1.993 0 1 1-3.983-.002 1.993 1.993 0 0 1 3.984.003ZM31.832 24.627a1.996 1.996 0 0 1-1.992 1.993 1.996 1.996 0 0 1-1.996-1.993c0-1.101.895-1.996 1.996-1.996 1.098 0 1.992.895 1.992 1.996ZM46.75 28.346a1.99 1.99 0 0 1-1.992 1.992 1.99 1.99 0 0 1-1.992-1.992 1.99 1.99 0 0 1 1.992-1.992 1.99 1.99 0 0 1 1.992 1.992ZM61.668 24.393a1.993 1.993 0 1 1-3.983-.002 1.993 1.993 0 0 1 3.983.002ZM76.59 13.838a1.993 1.993 0 1 1-3.986-.001 1.993 1.993 0 0 1 3.986.001ZM91.508-.463a1.99 1.99 0 0 1-1.992 1.993 1.99 1.99 0 0 1-1.992-1.992 1.99 1.99 0 0 1 1.992-1.993 1.99 1.99 0 0 1 1.992 1.993ZM106.426-14.638a1.993 1.993 0 1 1-3.983-.002 1.993 1.993 0 0 1 3.983.002Zm0 0" transform="matrix(1 0 0 -1 3.148 31.1)"/><path style="stroke:none;fill-rule:nonzero;fill:#000;fill-opacity:1" d="M124.496 55.953a1.996 1.996 0 0 0-1.992-1.996 1.994 1.994 0 0 0 0 3.988 1.996 1.996 0 0 0 1.992-1.992Zm0 0"/><g clip-path="url(#a)"><path style="fill:none;stroke-width:.3985;stroke-linecap:butt;stroke-linejoin:miter;stroke:#000;stroke-opacity:1;stroke-miterlimit:10" d="M121.348-24.853a1.996 1.996 0 0 1-1.992 1.996 1.994 1.994 0 0 1 0-3.988c1.098 0 1.992.894 1.992 1.992Zm0 0" transform="matrix(1 0 0 -1 3.148 31.1)"/></g><path style="stroke:none;fill-rule:nonzero;fill:#000;fill-opacity:1" d="M139.414 59.438a1.99 1.99 0 0 0-1.992-1.993 1.99 1.99 0 0 0-1.992 1.992 1.99 1.99 0 0 0 1.992 1.993 1.99 1.99 0 0 0 1.992-1.992Zm0 0"/><g clip-path="url(#b)"><path style="fill:none;stroke-width:.3985;stroke-linecap:butt;stroke-linejoin:miter;stroke:#000;stroke-opacity:1;stroke-miterlimit:10" d="M136.266-28.337a1.99 1.99 0 0 1-1.992 1.992 1.99 1.99 0 0 1-1.992-1.992 1.99 1.99 0 0 1 1.992-1.993 1.99 1.99 0 0 1 1.992 1.992Zm0 0" transform="matrix(1 0 0 -1 3.148 31.1)"/></g><path style="stroke:none;fill-rule:nonzero;fill:#000;fill-opacity:1" d="M154.336 55.254a1.996 1.996 0 0 0-1.996-1.992 1.993 1.993 0 0 0 0 3.984c1.101 0 1.996-.89 1.996-1.992Zm0 0"/><g clip-path="url(#c)"><path style="fill:none;stroke-width:.3985;stroke-linecap:butt;stroke-linejoin:miter;stroke:#000;stroke-opacity:1;stroke-miterlimit:10" d="M151.188-24.154a1.996 1.996 0 0 1-1.996 1.992 1.993 1.993 0 0 1 0-3.984c1.101 0 1.996.89 1.996 1.992Zm0 0" transform="matrix(1 0 0 -1 3.148 31.1)"/></g><path style="fill-rule:nonzero;fill:#000;fill-opacity:1;stroke-width:.3985;stroke-linecap:butt;stroke-linejoin:miter;stroke:#000;stroke-opacity:1;stroke-miterlimit:10" d="M166.106-13.435a1.99 1.99 0 0 1-1.992 1.992 1.993 1.993 0 1 1 1.992-1.992ZM181.024.924a1.993 1.993 0 1 1-3.983-.002 1.993 1.993 0 0 1 3.983.002ZM195.946 15.03a1.996 1.996 0 0 1-1.992 1.996 1.994 1.994 0 0 1 0-3.989c1.097 0 1.992.895 1.992 1.993ZM210.864 25.069a1.99 1.99 0 0 1-1.992 1.992 1.993 1.993 0 1 1 1.992-1.992ZM225.782 28.323a1.993 1.993 0 1 1-3.983-.002 1.993 1.993 0 0 1 3.983.002ZM240.704 23.909a1.993 1.993 0 1 1-3.986-.002 1.993 1.993 0 0 1 3.986.002ZM255.622 13.026a1.993 1.993 0 1 1-3.986-.002 1.993 1.993 0 0 1 3.986.002ZM270.54-1.384a1.993 1.993 0 1 1-3.987-.002 1.993 1.993 0 0 1 3.986.002Zm0 0" transform="matrix(1 0 0 -1 3.148 31.1)"/><path style="stroke:none;fill-rule:nonzero;fill:#000;fill-opacity:1" d="M288.61 46.52a1.993 1.993 0 0 0-3.984 0c-.001 1.101.89 1.996 1.991 1.996a1.996 1.996 0 0 0 1.992-1.996Zm0 0"/><g clip-path="url(#d)"><path style="fill:none;stroke-width:.3985;stroke-linecap:butt;stroke-linejoin:miter;stroke:#000;stroke-opacity:1;stroke-miterlimit:10" d="M285.461-15.42a1.993 1.993 0 0 1-3.984 0c0-1.101.89-1.996 1.992-1.996 1.098 0 1.992.895 1.992 1.996Zm0 0" transform="matrix(1 0 0 -1 3.148 31.1)"/></g></svg>