<svg xmlns="http://www.w3.org/2000/svg" xmlns:xlink="http://www.w3.org/1999/xlink" width="143.883" height="134.427" viewBox="0 0 107.912 100.82" version="1.2"><defs><symbol overflow="visible" id="a"><path style="stroke:none" d="M5.25-1.797c0-.547-.297-1.406-1.734-1.719.687-.203 1.406-.765 1.406-1.625 0-.765-.75-1.39-2.156-1.39-1.188 0-1.97.64-1.97 1.437 0 .422.313.703.688.703a.668.668 0 0 0 .704-.687c0-.578-.547-.688-.579-.703.344-.282.782-.36 1.094-.36.828 0 .86.641.86.97 0 .124-.016 1.437-1.047 1.5-.407.015-.438.015-.485.03-.094.016-.125.11-.125.172 0 .172.11.172.282.172h.437c1.094 0 1.094.985 1.094 1.5 0 .469 0 1.484-1.031 1.484-.266 0-.782-.046-1.266-.343C1.75-.75 2-1 2-1.406c0-.453-.313-.75-.75-.75-.422 0-.766.265-.766.765 0 .907.97 1.5 2.25 1.5 1.782 0 2.516-1 2.516-1.906Zm0 0"/></symbol><symbol overflow="visible" id="b"><path style="stroke:none" d="M4.922 0v-.469h-1.39v-5.734c0-.234 0-.328-.266-.328-.11 0-.125 0-.22.078-.765.562-1.796.562-2 .562H.845v.47h.203c.156 0 .703-.016 1.297-.204v5.156H.954V0c.437-.031 1.5-.031 1.984-.031s1.546 0 1.984.031Zm0 0"/></symbol><symbol overflow="visible" id="c"><path style="stroke:none" d="M5.281-3.188c0-.953-.015-3.343-2.422-3.343C.453-6.531.453-4.156.453-3.188c0 1 0 3.297 2.406 3.297 2.391 0 2.422-2.296 2.422-3.296ZM4-3.296c0 .563 0 1.469-.078 1.985-.14.921-.766 1.062-1.063 1.062-.359 0-.921-.219-1.046-.953-.094-.516-.094-1.547-.094-2.094 0-.719 0-1.375.078-1.89.125-.891.828-.985 1.062-.985.375 0 .782.188.97.625C4-5.172 4-4.109 4-3.297Zm0 0"/></symbol><symbol overflow="visible" id="d"><path style="stroke:none" d="M5.156-2.219h-.468c-.032.203-.125.844-.266.906-.11.063-.86.063-1.016.063H1.937c.47-.39 1-.813 1.438-1.14 1.14-.844 1.781-1.313 1.781-2.25 0-1.157-1.047-1.891-2.437-1.891-1.219 0-2.156.625-2.156 1.515 0 .594.484.735.718.735C1.61-4.281 2-4.5 2-5c0-.516-.422-.672-.563-.719.282-.234.672-.343 1.032-.343.844 0 1.312.671 1.312 1.421 0 .688-.375 1.375-1.078 2.079l-2 2.046c-.14.11-.14.141-.14.344V0h4.28Zm0 0"/></symbol><symbol overflow="visible" id="e"><path style="stroke:none" d="M5.156-2c0-1.156-.797-2.078-2.265-2.078-.282 0-.813.031-1.282.344v-1.313c.282.047.391.078.72.078 1.452 0 2.374-1.125 2.374-1.375 0-.078-.016-.187-.14-.187-.032 0-.032 0-.141.047a4.32 4.32 0 0 1-1.531.28c-.75 0-1.282-.202-1.547-.28-.094-.032-.094-.047-.125-.047-.14 0-.14.11-.14.265v2.922c0 .172 0 .297.218.297.125 0 .156-.031.219-.11.39-.468.921-.562 1.328-.562.89 0 .89.875.89 1.672 0 .735 0 1.735-1.187 1.735-.25 0-.875-.063-1.297-.625.36-.016.656-.266.656-.672 0-.532-.437-.672-.672-.672-.14 0-.671.094-.671.703 0 .844.78 1.687 2.015 1.687C4.172.11 5.156-.78 5.156-2Zm0 0"/></symbol><symbol overflow="visible" id="f"><path style="stroke:none" d="M5.406 0v-.469h-.968v-1.094h.968v-.468h-.968V-6.22c0-.265-.016-.328-.297-.328-.22 0-.22.016-.344.172L.312-2.031v.469h2.876V-.47h-1.11V0c.375-.031 1.281-.031 1.703-.031.406 0 1.266 0 1.625.031Zm-2.11-2.031H.845L3.297-5.11Zm0 0"/></symbol><symbol overflow="visible" id="g"><path style="stroke:none" d="M5.25-3.281c0-.672 0-3.25-2.375-3.25-1.406 0-2.39.812-2.39 2.14 0 1.375.984 2.125 2.203 2.125.359 0 .828-.062 1.203-.765v.219c0 .734-.094 1.312-.235 1.656-.172.39-.61.843-1.297.843-.171 0-.53-.03-.828-.218.11-.031.485-.172.485-.625 0-.344-.235-.625-.625-.625-.391 0-.625.265-.625.64 0 .688.515 1.25 1.609 1.25C3.672.11 5.25-.734 5.25-3.28Zm-1.375-.985c0 .625-.25 1.641-1.094 1.641-.953 0-.953-.75-.953-1.734 0-.985 0-1.782 1.078-1.782.578 0 .813.532.86.625.109.329.109.907.109 1.25Zm0 0"/></symbol><symbol overflow="visible" id="h"><path style="stroke:none" d="M5.25-1.86c0-1.077-.844-1.546-1.328-1.827.687-.36 1-.797 1-1.376 0-1.015-.906-1.468-2.047-1.468-1.375 0-2.078.797-2.078 1.75 0 .437.187 1.062.953 1.5C.922-2.906.484-2.344.484-1.61.484-.406 1.563.109 2.844.109 4.438.11 5.25-.766 5.25-1.859ZM4.172-5.046c0 .484-.25.813-.688 1.11l-1.5-.844c-.156-.078-.437-.25-.437-.594 0-.703.89-.766 1.297-.766.828 0 1.328.407 1.328 1.094Zm.219 3.734c0 .829-.938 1-1.516 1-.969 0-1.547-.515-1.547-1.296 0-.766.531-1.204.89-1.407l1.36.766c.438.25.813.453.813.938Zm0 0"/></symbol></defs><path style="stroke:none;fill-rule:nonzero;fill:#f66;fill-opacity:1" d="M64.332 8.898A7.967 7.967 0 0 0 56.363.93a7.97 7.97 0 0 0-7.972 7.968 7.97 7.97 0 0 0 7.972 7.97 7.967 7.967 0 0 0 7.969-7.97Zm0 0"/><g style="fill:#000;fill-opacity:1"><use xlink:href="#a" x="50.633" y="12.106"/><use xlink:href="#b" x="56.362" y="12.106"/></g><path style="stroke:none;fill-rule:nonzero;fill:#ff8c8c;fill-opacity:1" d="M35.984 37.246a7.97 7.97 0 0 0-7.968-7.973 7.97 7.97 0 0 0-7.97 7.973 7.967 7.967 0 0 0 7.97 7.969 7.967 7.967 0 0 0 7.968-7.969Zm0 0"/><g style="fill:#000;fill-opacity:1"><use xlink:href="#a" x="22.287" y="40.453"/><use xlink:href="#c" x="28.016" y="40.453"/></g><path style="fill:none;stroke-width:.3985;stroke-linecap:butt;stroke-linejoin:miter;stroke:#000;stroke-opacity:1;stroke-miterlimit:10" d="M-5.776-5.778-22.57-22.57" transform="matrix(1 0 0 -1 56.362 8.898)"/><path style="stroke:none;fill-rule:nonzero;fill:#ffb2b2;fill-opacity:1" d="M21.813 65.59a7.972 7.972 0 0 0-7.97-7.969c-4.402 0-7.972 3.57-7.972 7.969a7.974 7.974 0 0 0 7.973 7.972c4.398 0 7.969-3.57 7.969-7.972Zm0 0"/><g style="fill:#000;fill-opacity:1"><use xlink:href="#d" x="8.114" y="68.799"/><use xlink:href="#c" x="13.843" y="68.799"/></g><path style="fill:none;stroke-width:.3985;stroke-linecap:butt;stroke-linejoin:miter;stroke:#000;stroke-opacity:1;stroke-miterlimit:10" d="m-31.999-35.653-6.867-13.734" transform="matrix(1 0 0 -1 56.362 8.898)"/><path style="stroke:none;fill-rule:nonzero;fill:#ffbfbf;fill-opacity:1" d="M12.535 93.938a5.78 5.78 0 1 0-11.562 0 5.78 5.78 0 0 0 5.78 5.78 5.778 5.778 0 0 0 5.782-5.78Zm0 0"/><use xlink:href="#e" x="3.892" y="97.145" style="fill:#000;fill-opacity:1"/><path style="fill:none;stroke-width:.3985;stroke-linecap:butt;stroke-linejoin:miter;stroke:#000;stroke-opacity:1;stroke-miterlimit:10" d="m-44.503-64.618-3.652-14.62" transform="matrix(1 0 0 -1 56.362 8.898)"/><path style="stroke:none;fill-rule:nonzero;fill:#ffbfbf;fill-opacity:1" d="M26.672 93.938a5.745 5.745 0 1 0-11.488 0 5.743 5.743 0 0 0 5.746 5.746 5.742 5.742 0 0 0 5.742-5.746Zm0 0"/><use xlink:href="#f" x="18.065" y="97.205" style="fill:#000;fill-opacity:1"/><path style="fill:none;stroke-width:.3985;stroke-linecap:butt;stroke-linejoin:miter;stroke:#000;stroke-opacity:1;stroke-miterlimit:10" d="m-40.538-64.618 3.664-14.656" transform="matrix(1 0 0 -1 56.362 8.898)"/><path style="stroke:none;fill-rule:nonzero;fill:#ffb2b2;fill-opacity:1" d="M50.16 65.59c0-4.399-3.57-7.969-7.972-7.969a7.97 7.97 0 0 0-7.97 7.969 7.97 7.97 0 1 0 15.942 0Zm0 0"/><g style="fill:#000;fill-opacity:1"><use xlink:href="#b" x="36.46" y="68.799"/><use xlink:href="#c" x="42.189" y="68.799"/></g><path style="fill:none;stroke-width:.3985;stroke-linecap:butt;stroke-linejoin:miter;stroke:#000;stroke-opacity:1;stroke-miterlimit:10" d="m-24.694-35.653 6.867-13.734" transform="matrix(1 0 0 -1 56.362 8.898)"/><path style="stroke:none;fill-rule:nonzero;fill:#ffbfbf;fill-opacity:1" d="M40.883 93.938a5.78 5.78 0 1 0-11.563 0 5.78 5.78 0 0 0 5.782 5.78 5.778 5.778 0 0 0 5.78-5.78Zm0 0"/><use xlink:href="#g" x="32.238" y="97.145" style="fill:#000;fill-opacity:1"/><path style="fill:none;stroke-width:.3985;stroke-linecap:butt;stroke-linejoin:miter;stroke:#000;stroke-opacity:1;stroke-miterlimit:10" d="m-16.155-64.618-3.656-14.62" transform="matrix(1 0 0 -1 56.362 8.898)"/><path style="stroke:none;fill-rule:nonzero;fill:#ffbfbf;fill-opacity:1" d="M55.016 93.938a5.74 5.74 0 0 0-11.48 0 5.737 5.737 0 0 0 5.737 5.738 5.738 5.738 0 0 0 5.743-5.739Zm0 0"/><use xlink:href="#b" x="46.411" y="97.2" style="fill:#000;fill-opacity:1"/><path style="fill:none;stroke-width:.3985;stroke-linecap:butt;stroke-linejoin:miter;stroke:#000;stroke-opacity:1;stroke-miterlimit:10" d="m-12.194-64.618 3.668-14.664" transform="matrix(1 0 0 -1 56.362 8.898)"/><path style="stroke:none;fill-rule:nonzero;fill:#ff8c8c;fill-opacity:1" d="M92.68 37.246a7.974 7.974 0 0 0-7.973-7.973c-4.398 0-7.969 3.57-7.969 7.973a7.97 7.97 0 0 0 7.969 7.969 7.97 7.97 0 0 0 7.973-7.969Zm0 0"/><g style="fill:#000;fill-opacity:1"><use xlink:href="#d" x="78.98" y="40.453"/><use xlink:href="#c" x="84.709" y="40.453"/></g><path style="fill:none;stroke-width:.3985;stroke-linecap:butt;stroke-linejoin:miter;stroke:#000;stroke-opacity:1;stroke-miterlimit:10" d="M5.775-5.778 22.572-22.57" transform="matrix(1 0 0 -1 56.362 8.898)"/><path style="stroke:none;fill-rule:nonzero;fill:#ffb2b2;fill-opacity:1" d="M78.504 65.59a7.97 7.97 0 0 0-15.938 0 7.97 7.97 0 0 0 7.97 7.972 7.97 7.97 0 0 0 7.968-7.972Zm0 0"/><g style="fill:#000;fill-opacity:1"><use xlink:href="#b" x="64.807" y="68.799"/><use xlink:href="#g" x="70.536" y="68.799"/></g><path style="fill:none;stroke-width:.3985;stroke-linecap:butt;stroke-linejoin:miter;stroke:#000;stroke-opacity:1;stroke-miterlimit:10" d="m24.693-35.653-6.867-13.734" transform="matrix(1 0 0 -1 56.362 8.898)"/><path style="stroke:none;fill-rule:nonzero;fill:#ffbfbf;fill-opacity:1" d="M69.188 93.938a5.74 5.74 0 0 0-5.739-5.739 5.74 5.74 0 0 0-5.738 5.739 5.737 5.737 0 0 0 5.738 5.738 5.737 5.737 0 0 0 5.739-5.739Zm0 0"/><use xlink:href="#b" x="60.584" y="97.2" style="fill:#000;fill-opacity:1"/><path style="fill:none;stroke-width:.3985;stroke-linecap:butt;stroke-linejoin:miter;stroke:#000;stroke-opacity:1;stroke-miterlimit:10" d="M12.193-64.618 8.525-79.282" transform="matrix(1 0 0 -1 56.362 8.898)"/><path style="stroke:none;fill-rule:nonzero;fill:#ffb2b2;fill-opacity:1" d="M106.852 65.59a7.97 7.97 0 0 0-7.97-7.969c-4.402 0-7.972 3.57-7.972 7.969a7.97 7.97 0 1 0 15.941 0Zm0 0"/><g style="fill:#000;fill-opacity:1"><use xlink:href="#b" x="93.153" y="68.799"/><use xlink:href="#h" x="98.882" y="68.799"/></g><path style="fill:none;stroke-width:.3985;stroke-linecap:butt;stroke-linejoin:miter;stroke:#000;stroke-opacity:1;stroke-miterlimit:10" d="m32.001-35.653 6.867-13.734" transform="matrix(1 0 0 -1 56.362 8.898)"/></svg>