<svg xmlns="http://www.w3.org/2000/svg" width="154.324" height="78.819" viewBox="0 0 115.743 59.114" version="1.2"><defs><clipPath id="a"><path d="M0 0h115.613v58.672H0Zm0 0"/></clipPath></defs><path style="stroke:none;fill-rule:nonzero;fill:#d2c92a;fill-opacity:1" d="M1.05 29.121C10.294 14.61 19.138.773 29.399.773c10.262 0 19.106 13.836 28.348 28.348C66.988 43.633 75.832 57.47 86.094 57.47c10.261 0 19.105-13.836 28.347-28.348"/><g clip-path="url(#a)"><path style="fill:none;stroke-width:.3985;stroke-linecap:butt;stroke-linejoin:miter;stroke:#000;stroke-opacity:1;stroke-miterlimit:10" d="M-.002 0C9.24 14.512 18.084 28.348 28.346 28.348S47.45 14.512 56.694 0C65.936-14.512 74.78-28.348 85.04-28.348c10.262 0 19.106 13.836 28.348 28.348" transform="matrix(1 0 0 -1 1.052 29.121)"/></g></svg>