<svg xmlns="http://www.w3.org/2000/svg" width="373.623" height="33.483" viewBox="0 0 280.217 25.112" version="1.2"><defs><clipPath id="a"><path d="M0 0h30v24.668H0Zm0 0"/></clipPath><clipPath id="b"><path d="M23 0h35v24.668H23Zm0 0"/></clipPath><clipPath id="c"><path d="M51 0h35v24.668H51Zm0 0"/></clipPath><clipPath id="d"><path d="M80 0h35v24.668H80Zm0 0"/></clipPath><clipPath id="e"><path d="M108 0h35v24.668h-35Zm0 0"/></clipPath><clipPath id="f"><path d="M136 0h35v24.668h-35Zm0 0"/></clipPath><clipPath id="g"><path d="M165 0h35v24.668h-35Zm0 0"/></clipPath><clipPath id="h"><path d="M193 0h35v24.668h-35Zm0 0"/></clipPath><clipPath id="i"><path d="M221 0h35v24.668h-35Zm0 0"/></clipPath><clipPath id="j"><path d="M250 0h29.824v24.668H250Zm0 0"/></clipPath></defs><g clip-path="url(#a)"><path style="fill:none;stroke-width:.3985;stroke-linecap:butt;stroke-linejoin:miter;stroke:#000;stroke-opacity:1;stroke-miterlimit:10" d="M39.684-.001c0 6.261-5.075 11.34-11.336 11.34-6.262 0-11.34-5.079-11.34-11.34 0-6.262 5.078-11.336 11.34-11.336 6.261 0 11.336 5.074 11.336 11.336Zm0 0" transform="matrix(1 0 0 -1 -16.192 12.112)"/></g><g clip-path="url(#b)"><path style="fill:none;stroke-width:.3985;stroke-linecap:butt;stroke-linejoin:miter;stroke:#000;stroke-opacity:1;stroke-miterlimit:10" d="M68.031-.001c0 6.261-5.074 11.34-11.336 11.34-6.265 0-11.34-5.079-11.34-11.34 0-6.262 5.075-11.336 11.34-11.336 6.262 0 11.336 5.074 11.336 11.336Zm0 0" transform="matrix(1 0 0 -1 -16.192 12.112)"/></g><g clip-path="url(#c)"><path style="fill:none;stroke-width:.3985;stroke-linecap:butt;stroke-linejoin:miter;stroke:#000;stroke-opacity:1;stroke-miterlimit:10" d="M96.379-.001c0 6.261-5.078 11.34-11.34 11.34S73.703 6.26 73.703-.001c0-6.262 5.074-11.336 11.336-11.336 6.262 0 11.34 5.074 11.34 11.336Zm0 0" transform="matrix(1 0 0 -1 -16.192 12.112)"/></g><g clip-path="url(#d)"><path style="fill:none;stroke-width:.3985;stroke-linecap:butt;stroke-linejoin:miter;stroke:#000;stroke-opacity:1;stroke-miterlimit:10" d="M124.727-.001c0 6.261-5.078 11.34-11.34 11.34s-11.34-5.079-11.34-11.34c0-6.262 5.078-11.336 11.34-11.336s11.34 5.074 11.34 11.336Zm0 0" transform="matrix(1 0 0 -1 -16.192 12.112)"/></g><g clip-path="url(#e)"><path style="fill:none;stroke-width:.3985;stroke-linecap:butt;stroke-linejoin:miter;stroke:#000;stroke-opacity:1;stroke-miterlimit:10" d="M153.074-.001c0 6.261-5.078 11.34-11.34 11.34-6.261 0-11.34-5.079-11.34-11.34 0-6.262 5.079-11.336 11.34-11.336 6.262 0 11.34 5.074 11.34 11.336Zm0 0" transform="matrix(1 0 0 -1 -16.192 12.112)"/></g><g clip-path="url(#f)"><path style="fill:none;stroke-width:.3985;stroke-linecap:butt;stroke-linejoin:miter;stroke:#000;stroke-opacity:1;stroke-miterlimit:10" d="M181.418-.001c0 6.261-5.074 11.34-11.336 11.34-6.262 0-11.34-5.079-11.34-11.34 0-6.262 5.078-11.336 11.34-11.336s11.336 5.074 11.336 11.336Zm0 0" transform="matrix(1 0 0 -1 -16.192 12.112)"/></g><g clip-path="url(#g)"><path style="fill:none;stroke-width:.3985;stroke-linecap:butt;stroke-linejoin:miter;stroke:#000;stroke-opacity:1;stroke-miterlimit:10" d="M209.766-.001c0 6.261-5.075 11.34-11.34 11.34-6.262 0-11.336-5.079-11.336-11.34 0-6.262 5.074-11.336 11.336-11.336 6.266 0 11.34 5.074 11.34 11.336Zm0 0" transform="matrix(1 0 0 -1 -16.192 12.112)"/></g><g clip-path="url(#h)"><path style="fill:none;stroke-width:.3985;stroke-linecap:butt;stroke-linejoin:miter;stroke:#000;stroke-opacity:1;stroke-miterlimit:10" d="M238.113-.001c0 6.261-5.078 11.34-11.34 11.34-6.261 0-11.335-5.079-11.335-11.34 0-6.262 5.074-11.336 11.336-11.336 6.261 0 11.34 5.074 11.34 11.336Zm0 0" transform="matrix(1 0 0 -1 -16.192 12.112)"/></g><g clip-path="url(#i)"><path style="fill:none;stroke-width:.3985;stroke-linecap:butt;stroke-linejoin:miter;stroke:#000;stroke-opacity:1;stroke-miterlimit:10" d="M266.461-.001c0 6.261-5.078 11.34-11.34 11.34s-11.34-5.079-11.34-11.34c0-6.262 5.078-11.336 11.34-11.336s11.34 5.074 11.34 11.336Zm0 0" transform="matrix(1 0 0 -1 -16.192 12.112)"/></g><g clip-path="url(#j)"><path style="fill:none;stroke-width:.3985;stroke-linecap:butt;stroke-linejoin:miter;stroke:#000;stroke-opacity:1;stroke-miterlimit:10" d="M294.805-.001c0 6.261-5.074 11.34-11.336 11.34-6.262 0-11.34-5.079-11.34-11.34 0-6.262 5.078-11.336 11.34-11.336s11.336 5.074 11.336 11.336Zm0 0" transform="matrix(1 0 0 -1 -16.192 12.112)"/></g></svg>