<svg xmlns="http://www.w3.org/2000/svg" width="89.39pt" height="81.411" viewBox="0 0 89.39 61.058" version="1.2"><defs><clipPath id="a"><path d="M0 0h89.086v60.586H0Zm0 0"/></clipPath></defs><g clip-path="url(#a)"><path style="fill:none;stroke-width:.3985;stroke-linecap:butt;stroke-linejoin:miter;stroke:#000;stroke-opacity:1;stroke-miterlimit:10" d="m0-.002 28.348 28.348m1.992 0a1.99 1.99 0 0 1-1.992 1.992 1.99 1.99 0 0 1-1.993-1.992 1.99 1.99 0 0 1 1.992-1.992 1.99 1.99 0 0 1 1.993 1.992Zm-1.992 0 56.69 28.348m1.993 0a1.993 1.993 0 1 1-3.983-.002 1.993 1.993 0 0 1 3.983.002Zm0 0" transform="matrix(1 0 0 -1 .84 59.432)"/></g></svg>