<svg xmlns="http://www.w3.org/2000/svg" xmlns:xlink="http://www.w3.org/1999/xlink" width="175.155" height="135.243" viewBox="0 0 131.366 101.432" version="1.2"><defs><symbol overflow="visible" id="b"><path style="stroke:none" d="M1.11-4.484c.109.03.421.125.765.125 1 0 1.594-.704 1.594-.829 0-.093-.047-.109-.094-.109-.016 0-.031 0-.094.031a2.982 2.982 0 0 1-1.11.22c-.468 0-.858-.11-1.108-.22-.079-.03-.094-.03-.11-.03-.094 0-.094.077-.094.234v2.328c0 .14 0 .234.125.234.063 0 .079-.031.125-.094.094-.11.391-.515 1.079-.515.437 0 .656.359.734.515.125.281.14.656.14.953 0 .297 0 .735-.218 1.079-.156.25-.485.484-.906.484A1.271 1.271 0 0 1 .734-.922c.016.016.079.016.079.016.218 0 .406-.14.406-.39a.388.388 0 0 0-.39-.407c-.157 0-.407.078-.407.422 0 .718.625 1.453 1.531 1.453 1 0 1.844-.781 1.844-1.766 0-.922-.672-1.75-1.61-1.75-.39 0-.765.125-1.078.406Zm0 0"/></symbol><symbol overflow="visible" id="d"><path style="stroke:none" d="M1.094-2.64c0-.657.062-1.235.343-1.72.25-.406.657-.734 1.157-.734.156 0 .515.032.703.297-.36.031-.39.297-.39.375 0 .25.187.375.374.375.14 0 .375-.078.375-.39 0-.47-.36-.86-1.078-.86C1.468-5.297.344-4.25.344-2.53.344-.36 1.359.172 2.125.172c.39 0 .797-.11 1.156-.453.328-.313.594-.64.594-1.344 0-1.031-.797-1.766-1.672-1.766-.578 0-.922.36-1.11.75ZM2.125-.079a.88.88 0 0 1-.797-.516c-.187-.36-.203-.89-.203-1.203 0-.781.422-1.375 1.047-1.375.39 0 .64.203.781.485.172.296.172.656.172 1.062s0 .75-.156 1.047c-.219.36-.485.5-.844.5Zm0 0"/></symbol><symbol overflow="visible" id="e"><path style="stroke:none" d="M4.031-4.86c.078-.077.078-.093.078-.265H2.08a8.79 8.79 0 0 1-.642-.031c-.421-.032-.421-.11-.453-.235h-.25L.47-3.703h.25c.015-.125.11-.672.219-.735.078-.046.687-.046.796-.046h1.688l-.813 1.109C1.703-2.172 1.5-.906 1.5-.281c0 .078 0 .453.375.453s.375-.36.375-.453v-.39c0-1.141.203-2.079.594-2.61Zm0 0"/></symbol><symbol overflow="visible" id="f"><path style="stroke:none" d="M2.64-2.875c.454-.219 1-.61 1-1.234 0-.766-.78-1.188-1.515-1.188-.844 0-1.531.578-1.531 1.328 0 .297.094.563.297.797.14.172.171.188.656.5C.563-2.234.344-1.656.344-1.219c0 .89.89 1.39 1.765 1.39.97 0 1.766-.671 1.766-1.515 0-.5-.266-.828-.406-.968-.125-.126-.14-.141-.828-.563Zm-1.234-.75c-.234-.14-.422-.375-.422-.64 0-.5.547-.829 1.125-.829.61 0 1.125.422 1.125.985 0 .453-.359.843-.828 1.078Zm.39 1.094c.032.015.938.578 1.079.656.125.078.547.328.547.813 0 .609-.656.984-1.297.984-.719 0-1.313-.484-1.313-1.14 0-.595.438-1.063.985-1.313Zm0 0"/></symbol><symbol overflow="visible" id="g"><path style="stroke:none" d="M3.125-2.344c0 1.938-.922 2.266-1.39 2.266-.173 0-.579-.016-.798-.266.36-.031.375-.297.375-.375a.37.37 0 0 0-.375-.375.37.37 0 0 0-.375.39c0 .548.454.876 1.188.876 1.094 0 2.125-1.094 2.125-2.797 0-2.063-.922-2.672-1.734-2.672-.954 0-1.797.734-1.797 1.781 0 1.016.781 1.766 1.687 1.766.563 0 .906-.36 1.094-.766Zm-1.063.375c-.374 0-.609-.172-.78-.468-.188-.282-.188-.672-.188-1.079 0-.468 0-.796.218-1.125.204-.296.454-.453.829-.453.53 0 .765.532.796.563.157.39.172 1.015.172 1.172 0 .64-.343 1.39-1.046 1.39Zm0 0"/></symbol><symbol overflow="visible" id="h"><path style="stroke:none" d="M2.5-5.078c0-.219-.016-.219-.234-.219-.329.313-.75.5-1.5.5v.266c.218 0 .64 0 1.109-.203v4.078c0 .297-.031.39-.781.39H.812V0c.329-.031 1.016-.031 1.375-.031.36 0 1.047 0 1.376.031v-.266H3.28c-.75 0-.781-.093-.781-.39Zm0 0"/></symbol><symbol overflow="visible" id="i"><path style="stroke:none" d="M3.89-2.547c0-.844-.078-1.36-.343-1.875-.344-.703-1-.875-1.438-.875-1 0-1.375.75-1.484.969C.344-3.75.328-2.953.328-2.547c0 .531.016 1.328.406 1.969.36.594.954.75 1.375.75.391 0 1.063-.125 1.47-.906.296-.579.312-1.297.312-1.813ZM2.11-.062c-.266 0-.813-.126-.985-.954-.094-.453-.094-1.203-.094-1.625 0-.546 0-1.109.094-1.546.172-.813.781-.891.984-.891.266 0 .829.14.985.86.094.437.094 1.046.094 1.577 0 .47 0 1.188-.094 1.641-.172.828-.719.938-.985.938Zm0 0"/></symbol><symbol overflow="visible" id="j"><path style="stroke:none" d="M2.016-2.656c.625 0 1.03.453 1.03 1.297 0 1-.562 1.28-.983 1.28-.438 0-1.047-.155-1.329-.577.297 0 .5-.188.5-.438 0-.265-.187-.437-.453-.437-.203 0-.437.125-.437.453 0 .75.812 1.25 1.734 1.25 1.047 0 1.797-.734 1.797-1.531 0-.672-.531-1.266-1.344-1.454.625-.218 1.11-.75 1.11-1.39 0-.64-.72-1.094-1.547-1.094-.86 0-1.5.453-1.5 1.063 0 .296.187.421.406.421.25 0 .406-.171.406-.406 0-.297-.265-.406-.437-.406.344-.438.953-.469 1.094-.469.203 0 .812.063.812.89 0 .548-.234.891-.344 1.016-.234.25-.422.266-.906.297-.156 0-.219.016-.219.125 0 .11.078.11.219.11Zm0 0"/></symbol><symbol overflow="visible" id="n"><path style="stroke:none" d="M3.14-5.156c0-.157 0-.219-.171-.219-.094 0-.11 0-.188.11L.234-1.564v.25h2.25v.672c0 .297-.015.375-.64.375h-.172V0c.672-.031.687-.031 1.14-.031.454 0 .47 0 1.141.031v-.266h-.172c-.625 0-.64-.078-.64-.375v-.671h.843v-.25h-.843Zm-.593.64v2.954H.516Zm0 0"/></symbol><symbol overflow="visible" id="c"><path style="stroke:none" d="M3.219-3c-.188.031-.36.172-.36.375 0 .14.094.25.266.25.125 0 .375-.094.375-.453 0-.485-.516-.688-1.016-.688-1.062 0-1.406.766-1.406 1.172 0 .078 0 .36.297.578.188.141.328.172.734.25.282.063.735.141.735.547 0 .219-.156.469-.375.625-.297.188-.688.203-.813.203C1.47-.14.922-.17.72-.5a.449.449 0 0 0 .469-.438c0-.234-.22-.296-.313-.296-.125 0-.453.109-.453.546 0 .47.5.766 1.234.766 1.39 0 1.688-.984 1.688-1.312 0-.72-.781-.875-1.078-.922-.391-.078-.704-.125-.704-.469 0-.14.141-.672.922-.672.297 0 .61.094.735.297Zm0 0"/></symbol><symbol overflow="visible" id="k"><path style="stroke:none" d="M1.594-1.313c.031-.109.11-.421.125-.53.031-.079.078-.282.093-.36.016-.031.282-.547.625-.813.266-.218.532-.28.766-.28.281 0 .453.187.453.546 0 .188-.047.375-.14.734a16.99 16.99 0 0 0-.235.954l-.125.484a2.282 2.282 0 0 0-.094.406c0 .188.157.25.25.25.141 0 .266-.094.329-.187.015-.047.078-.329.125-.485l.171-.719c.032-.109.11-.421.141-.53.11-.438.11-.438.281-.704.266-.39.641-.75 1.172-.75.297 0 .469.172.469.547 0 .438-.344 1.36-.5 1.734-.078.204-.094.266-.094.422 0 .453.375.672.719.672.781 0 1.11-1.11 1.11-1.219 0-.078-.079-.109-.126-.109-.093 0-.109.063-.14.14-.188.657-.516.97-.828.97-.125 0-.188-.079-.188-.266 0-.188.063-.36.14-.563.126-.297.47-1.219.47-1.656 0-.61-.407-.89-.985-.89-.547 0-1 .28-1.36.78-.062-.64-.577-.78-.984-.78-.375 0-.859.124-1.296.703-.063-.485-.438-.704-.813-.704-.281 0-.484.172-.61.438a2.882 2.882 0 0 0-.28.781c0 .078.062.11.124.11.11 0 .11-.032.172-.25.094-.391.235-.86.563-.86.218 0 .265.203.265.375 0 .156-.046.297-.109.563-.016.062-.14.53-.172.64L.781-.516C.75-.39.703-.203.703-.172c0 .188.156.25.266.25.14 0 .265-.094.312-.187.032-.047.094-.329.125-.485Zm0 0"/></symbol><symbol overflow="visible" id="l"><path style="stroke:none" d="M3.703-5.64c.047-.11.047-.126.047-.157 0-.094-.078-.172-.188-.172-.124 0-.156.094-.187.172L.515 1.656c-.046.11-.046.125-.046.157 0 .093.078.171.187.171.125 0 .156-.093.188-.171Zm0 0"/></symbol><symbol overflow="visible" id="m"><path style="stroke:none" d="M3.219-1.125H3c-.016.094-.078.484-.156.547-.047.047-.531.047-.625.047h-1.11l.766-.625c.203-.172.734-.547.922-.735.172-.171.422-.484.422-.906 0-.75-.672-1.187-1.485-1.187-.765 0-1.296.515-1.296 1.078 0 .297.25.344.312.344a.32.32 0 0 0 .328-.329c0-.125-.078-.328-.344-.328.141-.297.5-.531.922-.531.625 0 .953.469.953.953 0 .422-.28.86-.687 1.25L.5-.25C.437-.187.437-.187.437 0h2.594Zm0 0"/></symbol><clipPath id="a"><path d="M30 0h101.05v99H30Zm0 0"/></clipPath></defs><path style="fill:none;stroke-width:.3985;stroke-linecap:round;stroke-linejoin:miter;stroke:gray;stroke-opacity:1;stroke-miterlimit:10" d="M-.002-1.994V.002M17.01-1.994V.002M34.018-1.994V.002M51.025-1.994V.002M68.033-1.994V.002M85.041-1.994V.002M-.002 85.04v1.993M17.01 85.04v1.993M34.018 85.04v1.993M51.025 85.04v1.993M68.033 85.04v1.993M85.041 85.04v1.993M-1.994 5.67h1.992M-1.994 17.01h1.992M-1.994 28.35h1.992M-1.994 39.685h1.992M-1.994 51.025h1.992M-1.994 62.365h1.992M-1.994 73.705h1.992M-1.994 85.045h1.992M85.041 5.67h1.992M85.041 17.01h1.992M85.041 28.35h1.992M85.041 39.685h1.992M85.041 51.025h1.992M85.041 62.365h1.992M85.041 73.705h1.992M85.041 85.045h1.992" transform="matrix(1 0 0 -1 38.541 90.201)"/><path style="fill:none;stroke-width:.3985;stroke-linecap:butt;stroke-linejoin:miter;stroke:gray;stroke-opacity:1;stroke-miterlimit:10" d="M-.002.002h85.043M-.002 85.04h85.043M-.002.002V85.04M85.041.002V85.04" transform="matrix(1 0 0 -1 38.541 90.201)"/><g clip-path="url(#a)"><path style="fill:none;stroke-width:.59776;stroke-linecap:butt;stroke-linejoin:miter;stroke:#000;stroke-opacity:1;stroke-miterlimit:10" d="m-.002.002 3.547 2.41L7.088 4.92l3.543 2.61 3.543 2.706 3.543 2.805 3.543 2.906 3.543 3 3.543 3.102 3.543 3.199 3.543 3.297 3.547 3.394 3.543 3.496 3.542 3.59 3.543 3.692 3.543 3.789 3.543 3.89 3.543 3.985 3.543 4.086 3.543 4.183 3.543 4.281 3.547 4.38 3.543 4.476 3.543 4.578 3.543 4.676" transform="matrix(1 0 0 -1 38.541 90.201)"/></g><use xlink:href="#b" x="33.761" y="99.986" style="fill:#000;fill-opacity:1"/><use xlink:href="#c" x="39.406" y="99.986" style="fill:#000;fill-opacity:1"/><use xlink:href="#d" x="50.769" y="99.986" style="fill:#000;fill-opacity:1"/><use xlink:href="#c" x="56.414" y="99.986" style="fill:#000;fill-opacity:1"/><use xlink:href="#e" x="67.777" y="99.986" style="fill:#000;fill-opacity:1"/><use xlink:href="#c" x="73.423" y="99.986" style="fill:#000;fill-opacity:1"/><use xlink:href="#f" x="84.785" y="99.986" style="fill:#000;fill-opacity:1"/><use xlink:href="#c" x="90.431" y="99.986" style="fill:#000;fill-opacity:1"/><use xlink:href="#g" x="101.794" y="99.986" style="fill:#000;fill-opacity:1"/><use xlink:href="#c" x="107.439" y="99.986" style="fill:#000;fill-opacity:1"/><g style="fill:#000;fill-opacity:1"><use xlink:href="#h" x="116.685" y="99.986"/><use xlink:href="#i" x="120.92" y="99.986"/></g><use xlink:href="#c" x="126.564" y="99.986" style="fill:#000;fill-opacity:1"/><g style="fill:#000;fill-opacity:1"><use xlink:href="#j" x="4.221" y="86.868"/><use xlink:href="#i" x="8.456" y="86.868"/></g><g style="fill:#000;fill-opacity:1"><use xlink:href="#k" x="14.101" y="86.868"/><use xlink:href="#l" x="21.591" y="86.868"/><use xlink:href="#c" x="25.826" y="86.868"/></g><use xlink:href="#m" x="29.742" y="84.055" style="fill:#000;fill-opacity:1"/><g style="fill:#000;fill-opacity:1"><use xlink:href="#n" x="4.221" y="75.529"/><use xlink:href="#i" x="8.456" y="75.529"/></g><g style="fill:#000;fill-opacity:1"><use xlink:href="#k" x="14.101" y="75.529"/><use xlink:href="#l" x="21.591" y="75.529"/><use xlink:href="#c" x="25.826" y="75.529"/></g><use xlink:href="#m" x="29.742" y="72.716" style="fill:#000;fill-opacity:1"/><g style="fill:#000;fill-opacity:1"><use xlink:href="#b" x="4.221" y="64.19"/><use xlink:href="#i" x="8.456" y="64.19"/></g><g style="fill:#000;fill-opacity:1"><use xlink:href="#k" x="14.101" y="64.19"/><use xlink:href="#l" x="21.591" y="64.19"/><use xlink:href="#c" x="25.826" y="64.19"/></g><use xlink:href="#m" x="29.742" y="61.377" style="fill:#000;fill-opacity:1"/><g style="fill:#000;fill-opacity:1"><use xlink:href="#d" x="4.221" y="52.851"/><use xlink:href="#i" x="8.456" y="52.851"/></g><g style="fill:#000;fill-opacity:1"><use xlink:href="#k" x="14.101" y="52.851"/><use xlink:href="#l" x="21.591" y="52.851"/><use xlink:href="#c" x="25.826" y="52.851"/></g><use xlink:href="#m" x="29.742" y="50.038" style="fill:#000;fill-opacity:1"/><g style="fill:#000;fill-opacity:1"><use xlink:href="#e" x="4.221" y="41.512"/><use xlink:href="#i" x="8.456" y="41.512"/></g><g style="fill:#000;fill-opacity:1"><use xlink:href="#k" x="14.101" y="41.512"/><use xlink:href="#l" x="21.591" y="41.512"/><use xlink:href="#c" x="25.826" y="41.512"/></g><use xlink:href="#m" x="29.742" y="38.699" style="fill:#000;fill-opacity:1"/><g style="fill:#000;fill-opacity:1"><use xlink:href="#f" x="4.221" y="30.173"/><use xlink:href="#i" x="8.456" y="30.173"/></g><g style="fill:#000;fill-opacity:1"><use xlink:href="#k" x="14.101" y="30.173"/><use xlink:href="#l" x="21.591" y="30.173"/><use xlink:href="#c" x="25.826" y="30.173"/></g><use xlink:href="#m" x="29.742" y="27.36" style="fill:#000;fill-opacity:1"/><g style="fill:#000;fill-opacity:1"><use xlink:href="#g" x="4.221" y="18.834"/><use xlink:href="#i" x="8.456" y="18.834"/></g><g style="fill:#000;fill-opacity:1"><use xlink:href="#k" x="14.101" y="18.834"/><use xlink:href="#l" x="21.591" y="18.834"/><use xlink:href="#c" x="25.826" y="18.834"/></g><use xlink:href="#m" x="29.742" y="16.021" style="fill:#000;fill-opacity:1"/><g style="fill:#000;fill-opacity:1"><use xlink:href="#h" x="-.013" y="7.495"/><use xlink:href="#i" x="4.222" y="7.495"/><use xlink:href="#i" x="8.456" y="7.495"/></g><g style="fill:#000;fill-opacity:1"><use xlink:href="#k" x="14.101" y="7.495"/><use xlink:href="#l" x="21.591" y="7.495"/><use xlink:href="#c" x="25.826" y="7.495"/></g><use xlink:href="#m" x="29.742" y="4.682" style="fill:#000;fill-opacity:1"/></svg>