<svg xmlns="http://www.w3.org/2000/svg" width="78.277" height="12.699" viewBox="0 0 58.708 9.524" version="1.2"><defs><clipPath id="a"><path d="M31 0h15v9.285H31Zm0 0"/></clipPath><clipPath id="b"><path d="M36 0h16v9.285H36Zm0 0"/></clipPath><clipPath id="c"><path d="M42 0h16.563v9.285H42Zm0 0"/></clipPath></defs><path style="fill:none;stroke-width:.3985;stroke-linecap:butt;stroke-linejoin:miter;stroke:#000;stroke-opacity:1;stroke-miterlimit:10" d="M0 0h41.153" transform="matrix(1 0 0 -1 .863 4.52)"/><path style="stroke:none;fill-rule:nonzero;fill:red;fill-opacity:1" d="m40.25 4.52-3.57-1.344 1.175 1.344-1.175 1.347Zm0 0"/><g clip-path="url(#a)"><path style="fill:none;stroke-width:.3985;stroke-linecap:butt;stroke-linejoin:miter;stroke:red;stroke-opacity:1;stroke-miterlimit:10" d="M4.213 0 .643 1.344 1.818 0 .643-1.347Zm0 0" transform="matrix(1 0 0 -1 36.037 4.52)"/></g><path style="stroke:none;fill-rule:nonzero;fill:red;fill-opacity:1" d="M45.777 4.52c-.465-.114-2.492-.75-3.761-1.446v2.89c1.27-.694 3.297-1.331 3.761-1.444Zm0 0"/><g clip-path="url(#b)"><path style="fill:none;stroke-width:.3985;stroke-linecap:butt;stroke-linejoin:miter;stroke:red;stroke-opacity:1;stroke-miterlimit:10" d="M3.763 0C3.298.114 1.27.75 0 1.446v-2.89C1.27-.75 3.298-.114 3.763 0Zm0 0" transform="matrix(1 0 0 -1 42.015 4.52)"/></g><g clip-path="url(#c)"><path style="fill:none;stroke-width:.3985;stroke-linecap:butt;stroke-linejoin:miter;stroke:#000;stroke-opacity:1;stroke-miterlimit:10" d="M9.394 0 .644 3.29 3.5 0 .644-3.289Zm0 0" transform="matrix(1 0 0 -1 47.594 4.52)"/></g></svg>