<svg xmlns="http://www.w3.org/2000/svg" width="180.151" height="100.851" viewBox="0 0 135.113 75.638" version="1.2"><defs><clipPath id="a"><path d="M0 20h51v55.457H0Zm0 0"/></clipPath><clipPath id="b"><path d="M0 27h52v48.457H0Zm0 0"/></clipPath><clipPath id="c"><path d="M0 30h42v45.457H0Zm0 0"/></clipPath><clipPath id="d"><path d="M0 40h42v35.457H0Zm0 0"/></clipPath><clipPath id="e"><path d="M0 34h46v41.457H0Zm0 0"/></clipPath><clipPath id="f"><path d="M0 32h54v43.457H0Zm0 0"/></clipPath><clipPath id="g"><path d="M0 39h53v36.457H0Zm0 0"/></clipPath><clipPath id="h"><path d="M0 37h52v38.457H0Zm0 0"/></clipPath><clipPath id="i"><path d="M0 29h45v46.457H0Zm0 0"/></clipPath><clipPath id="j"><path d="M0 29h43v46.457H0Zm0 0"/></clipPath><clipPath id="k"><path d="M0 24h40v51.457H0Zm0 0"/></clipPath><clipPath id="l"><path d="M0 28h41v47.457H0Zm0 0"/></clipPath><clipPath id="m"><path d="M0 32h34v43.457H0Zm0 0"/></clipPath><clipPath id="n"><path d="M0 37h38v38.457H0Zm0 0"/></clipPath><clipPath id="o"><path d="M0 34h37v41.457H0Zm0 0"/></clipPath><clipPath id="p"><path d="M0 34h34v41.457H0Zm0 0"/></clipPath><clipPath id="q"><path d="M0 26h35v49.457H0Zm0 0"/></clipPath><clipPath id="r"><path d="M0 35h39v40.457H0Zm0 0"/></clipPath><clipPath id="s"><path d="M0 39h41v36.457H0Zm0 0"/></clipPath><clipPath id="t"><path d="M0 38h41v37.457H0Zm0 0"/></clipPath><clipPath id="u"><path d="M0 36h42v39.457H0Zm0 0"/></clipPath><clipPath id="v"><path d="M0 36h44v39.457H0Zm0 0"/></clipPath><clipPath id="w"><path d="M0 40h42v35.457H0Zm0 0"/></clipPath><clipPath id="x"><path d="M0 37h43v38.457H0Zm0 0"/></clipPath><clipPath id="y"><path d="M0 42h45v33.457H0Zm0 0"/></clipPath><clipPath id="z"><path d="M0 36h44v39.457H0Zm0 0"/></clipPath><clipPath id="A"><path d="M0 40h44v35.457H0Zm0 0"/></clipPath><clipPath id="B"><path d="M0 40h45v35.457H0Zm0 0"/></clipPath><clipPath id="C"><path d="M0 35h37v40.457H0Zm0 0"/></clipPath><clipPath id="D"><path d="M0 42h38v33.457H0Zm0 0"/></clipPath><clipPath id="E"><path d="M0 35h47v40.457H0Zm0 0"/></clipPath><clipPath id="F"><path d="M0 32h44v43.457H0Zm0 0"/></clipPath><clipPath id="G"><path d="M0 34h44v41.457H0Zm0 0"/></clipPath><clipPath id="H"><path d="M0 27h38v48.457H0Zm0 0"/></clipPath><clipPath id="I"><path d="M0 26h48v49.457H0Zm0 0"/></clipPath><clipPath id="J"><path d="M0 20h55v55.457H0Zm0 0"/></clipPath><clipPath id="K"><path d="M80 0h54.668v34H80Zm0 0"/></clipPath><clipPath id="L"><path d="M87 0h47.668v29H87Zm0 0"/></clipPath><clipPath id="M"><path d="M86 0h48.668v29H86Zm0 0"/></clipPath><clipPath id="N"><path d="M87 0h47.668v37H87Zm0 0"/></clipPath><clipPath id="O"><path d="M94 0h40.668v36H94Zm0 0"/></clipPath><clipPath id="P"><path d="M99 0h35.668v34H99Zm0 0"/></clipPath><clipPath id="Q"><path d="M103 0h31.668v37H103Zm0 0"/></clipPath><clipPath id="R"><path d="M96 0h38.668v34H96Zm0 0"/></clipPath><clipPath id="S"><path d="M92 0h42.668v42H92Zm0 0"/></clipPath><clipPath id="T"><path d="M86 0h48.668v44H86Zm0 0"/></clipPath><clipPath id="U"><path d="M86 0h48.668v41H86Zm0 0"/></clipPath><clipPath id="V"><path d="M79 0h55.668v41H79Zm0 0"/></clipPath><clipPath id="W"><path d="M83 0h51.668v51H83Zm0 0"/></clipPath><clipPath id="X"><path d="M84 2h50.668v51H84Zm0 0"/></clipPath><clipPath id="Y"><path d="M82 5h52.668v51H82Zm0 0"/></clipPath><clipPath id="Z"><path d="M86 5h48.668v49H86Zm0 0"/></clipPath><clipPath id="aa"><path d="M93 5h41.668v49H93Zm0 0"/></clipPath><clipPath id="ab"><path d="M90 0h44.668v51H90Zm0 0"/></clipPath><clipPath id="ac"><path d="M80 0h54.668v46H80Zm0 0"/></clipPath><clipPath id="ad"><path d="M84 0h50.668v41H84Zm0 0"/></clipPath><clipPath id="ae"><path d="M85 0h49.668v41H85Zm0 0"/></clipPath><clipPath id="af"><path d="M91 0h43.668v46H91Zm0 0"/></clipPath><clipPath id="ag"><path d="M93 0h41.668v51H93Zm0 0"/></clipPath><clipPath id="ah"><path d="M93 5h41.668v57H93Zm0 0"/></clipPath><clipPath id="ai"><path d="M93 0h41.668v59H93Zm0 0"/></clipPath><clipPath id="aj"><path d="M99 3h35.668v54H99Zm0 0"/></clipPath><clipPath id="ak"><path d="M98 11h36.668v53H98Zm0 0"/></clipPath></defs><path style="fill:none;stroke-width:1.59404;stroke-linecap:round;stroke-linejoin:miter;stroke:#fff;stroke-opacity:1;stroke-miterlimit:10" d="M0 .002s.739 4.828-5.812-1.7" transform="matrix(1 0 0 -1 35.656 22.072)"/><path style="fill:none;stroke-width:1.59404;stroke-linecap:round;stroke-linejoin:miter;stroke:#fcfffc;stroke-opacity:1;stroke-miterlimit:10" d="M-5.812-1.698c-6.554-6.53 12.18.75 6.106.891" transform="matrix(1 0 0 -1 35.656 22.072)"/><path style="fill:none;stroke-width:1.59404;stroke-linecap:round;stroke-linejoin:miter;stroke:#fafffa;stroke-opacity:1;stroke-miterlimit:10" d="M.294-.807c-6.07.14-10.032-14.476-6.989-9.566" transform="matrix(1 0 0 -1 35.656 22.072)"/><path style="fill:none;stroke-width:1.59404;stroke-linecap:round;stroke-linejoin:miter;stroke:#f7fff7;stroke-opacity:1;stroke-miterlimit:10" d="M-6.695-10.373c3.04 4.91-9.015-6.27-2.035-5.746" transform="matrix(1 0 0 -1 35.656 22.072)"/><path style="fill:none;stroke-width:1.59404;stroke-linecap:round;stroke-linejoin:miter;stroke:#f5fff5;stroke-opacity:1;stroke-miterlimit:10" d="M-8.73-16.12c6.98.524 3.914 2.212-4.125-5.23" transform="matrix(1 0 0 -1 35.656 22.072)"/><g clip-path="url(#a)"><path style="fill:none;stroke-width:1.59404;stroke-linecap:round;stroke-linejoin:miter;stroke:#f2fff2;stroke-opacity:1;stroke-miterlimit:10" d="M-12.855-21.35c-8.043-7.441.48-2.703 4.782-9.215" transform="matrix(1 0 0 -1 35.656 22.072)"/></g><g clip-path="url(#b)"><path style="fill:none;stroke-width:1.59404;stroke-linecap:round;stroke-linejoin:miter;stroke:#f0fff0;stroke-opacity:1;stroke-miterlimit:10" d="M-8.073-30.565c4.3-6.511-7.657 8.418-8.692-.476" transform="matrix(1 0 0 -1 35.656 22.072)"/></g><g clip-path="url(#c)"><path style="fill:none;stroke-width:1.59404;stroke-linecap:round;stroke-linejoin:miter;stroke:#edffed;stroke-opacity:1;stroke-miterlimit:10" d="M-16.765-31.041c-1.031-8.895-7.55-5.867-1.441-9.703" transform="matrix(1 0 0 -1 35.656 22.072)"/></g><g clip-path="url(#d)"><path style="fill:none;stroke-width:1.59404;stroke-linecap:round;stroke-linejoin:miter;stroke:#ebffeb;stroke-opacity:1;stroke-miterlimit:10" d="M-18.206-40.744c6.11-3.832-7.492-8.125-5.2-3.192" transform="matrix(1 0 0 -1 35.656 22.072)"/></g><g clip-path="url(#e)"><path style="fill:none;stroke-width:1.59404;stroke-linecap:round;stroke-linejoin:miter;stroke:#e8ffe8;stroke-opacity:1;stroke-miterlimit:10" d="M-23.405-43.936c2.292 4.938 13.117 4.496 9.761 9.324" transform="matrix(1 0 0 -1 35.656 22.072)"/></g><g clip-path="url(#f)"><path style="fill:none;stroke-width:1.59404;stroke-linecap:round;stroke-linejoin:miter;stroke:#e5ffe5;stroke-opacity:1;stroke-miterlimit:10" d="M-13.644-34.612c-3.355 4.829 10.016-.902 8.434-4.878" transform="matrix(1 0 0 -1 35.656 22.072)"/></g><g clip-path="url(#g)"><path style="fill:none;stroke-width:1.59404;stroke-linecap:round;stroke-linejoin:miter;stroke:#e3ffe3;stroke-opacity:1;stroke-miterlimit:10" d="M-5.21-39.49c-1.582-3.973-11.832-13.461-4.168-5.75" transform="matrix(1 0 0 -1 35.656 22.072)"/></g><g clip-path="url(#h)"><path style="fill:none;stroke-width:1.59404;stroke-linecap:round;stroke-linejoin:miter;stroke:#e0ffe0;stroke-opacity:1;stroke-miterlimit:10" d="M-9.378-45.24c7.664 7.714-5.965 4.62-4.516 6.96" transform="matrix(1 0 0 -1 35.656 22.072)"/></g><g clip-path="url(#i)"><path style="fill:none;stroke-width:1.59404;stroke-linecap:round;stroke-linejoin:miter;stroke:#deffde;stroke-opacity:1;stroke-miterlimit:10" d="M-13.894-38.28c1.446 2.336-12.082 8.145-6.27 8.645" transform="matrix(1 0 0 -1 35.656 22.072)"/></g><g clip-path="url(#j)"><path style="fill:none;stroke-width:1.59404;stroke-linecap:round;stroke-linejoin:miter;stroke:#dbffdb;stroke-opacity:1;stroke-miterlimit:10" d="M-20.163-29.635c5.816.5 6.508-9.441 1.793-2.305" transform="matrix(1 0 0 -1 35.656 22.072)"/></g><g clip-path="url(#k)"><path style="fill:none;stroke-width:1.59404;stroke-linecap:round;stroke-linejoin:miter;stroke:#d9ffd9;stroke-opacity:1;stroke-miterlimit:10" d="M-18.37-31.94c-4.715 7.14-14.75 9.485-5.29 3.121" transform="matrix(1 0 0 -1 35.656 22.072)"/></g><g clip-path="url(#l)"><path style="fill:none;stroke-width:1.59404;stroke-linecap:round;stroke-linejoin:miter;stroke:#d6ffd6;stroke-opacity:1;stroke-miterlimit:10" d="M-23.66-28.819c9.465-6.363 6.731-14.52-1.8-6.824" transform="matrix(1 0 0 -1 35.656 22.072)"/></g><g clip-path="url(#m)"><path style="fill:none;stroke-width:1.59404;stroke-linecap:round;stroke-linejoin:miter;stroke:#d4ffd4;stroke-opacity:1;stroke-miterlimit:10" d="M-25.46-35.643c-8.531 7.692-1.496-6.058 1.254-7.105" transform="matrix(1 0 0 -1 35.656 22.072)"/></g><g clip-path="url(#n)"><path style="fill:none;stroke-width:1.59404;stroke-linecap:round;stroke-linejoin:miter;stroke:#d1ffd1;stroke-opacity:1;stroke-miterlimit:10" d="M-24.206-42.748c2.75-1.043 5.207-2.5.07 4.644" transform="matrix(1 0 0 -1 35.656 22.072)"/></g><g clip-path="url(#o)"><path style="fill:none;stroke-width:1.59404;stroke-linecap:round;stroke-linejoin:miter;stroke:#cfffcf;stroke-opacity:1;stroke-miterlimit:10" d="M-24.136-38.104c-5.137 7.145 7.988 1.207-.836-6.66" transform="matrix(1 0 0 -1 35.656 22.072)"/></g><g clip-path="url(#p)"><path style="fill:none;stroke-width:1.59404;stroke-linecap:round;stroke-linejoin:miter;stroke:#cfc;stroke-opacity:1;stroke-miterlimit:10" d="M-24.972-44.764c-8.828-7.863 2.192 13.04-6.781 9.77" transform="matrix(1 0 0 -1 35.656 22.072)"/></g><g clip-path="url(#q)"><path style="fill:none;stroke-width:1.59404;stroke-linecap:round;stroke-linejoin:miter;stroke:#c9ffc9;stroke-opacity:1;stroke-miterlimit:10" d="M-31.753-34.994c-8.973-3.266 8.762 7 7.797 8.347" transform="matrix(1 0 0 -1 35.656 22.072)"/><path style="fill:none;stroke-width:1.59404;stroke-linecap:round;stroke-linejoin:miter;stroke:#c7ffc7;stroke-opacity:1;stroke-miterlimit:10" d="M-23.956-26.647c-.969 1.352-10.766-9.082-4.16-9.11" transform="matrix(1 0 0 -1 35.656 22.072)"/></g><g clip-path="url(#r)"><path style="fill:none;stroke-width:1.59404;stroke-linecap:round;stroke-linejoin:miter;stroke:#c4ffc4;stroke-opacity:1;stroke-miterlimit:10" d="M-28.116-35.756c6.605-.027 10.78-10.777 7.054-8.504" transform="matrix(1 0 0 -1 35.656 22.072)"/></g><g clip-path="url(#s)"><path style="fill:none;stroke-width:1.59404;stroke-linecap:round;stroke-linejoin:miter;stroke:#c2ffc2;stroke-opacity:1;stroke-miterlimit:10" d="M-21.062-44.26c-3.722 2.277 4.668 7.777 3 2.352" transform="matrix(1 0 0 -1 35.656 22.072)"/></g><g clip-path="url(#t)"><path style="fill:none;stroke-width:1.59404;stroke-linecap:round;stroke-linejoin:miter;stroke:#bfffbf;stroke-opacity:1;stroke-miterlimit:10" d="M-18.062-41.908c-1.664-5.426-5.453-4.383.035 2.472" transform="matrix(1 0 0 -1 35.656 22.072)"/></g><g clip-path="url(#u)"><path style="fill:none;stroke-width:1.59404;stroke-linecap:round;stroke-linejoin:miter;stroke:#bdffbd;stroke-opacity:1;stroke-miterlimit:10" d="M-18.027-39.436c5.493 6.852-10.78-1.332-1.023.684" transform="matrix(1 0 0 -1 35.656 22.072)"/></g><g clip-path="url(#v)"><path style="fill:none;stroke-width:1.59404;stroke-linecap:round;stroke-linejoin:miter;stroke:#baffba;stroke-opacity:1;stroke-miterlimit:10" d="M-19.05-38.752c9.758 2.012 1.453 2.722 1.918-1.77" transform="matrix(1 0 0 -1 35.656 22.072)"/></g><g clip-path="url(#w)"><path style="fill:none;stroke-width:1.59404;stroke-linecap:round;stroke-linejoin:miter;stroke:#b8ffb8;stroke-opacity:1;stroke-miterlimit:10" d="M-17.132-40.522c.465-4.492-3.367-5.953-2.293-1.418" transform="matrix(1 0 0 -1 35.656 22.072)"/></g><g clip-path="url(#x)"><path style="fill:none;stroke-width:1.59404;stroke-linecap:round;stroke-linejoin:miter;stroke:#b5ffb5;stroke-opacity:1;stroke-miterlimit:10" d="M-19.425-41.94c1.074 4.54-2.227 6.61 4.21-.691" transform="matrix(1 0 0 -1 35.656 22.072)"/></g><g clip-path="url(#y)"><path style="fill:none;stroke-width:1.59404;stroke-linecap:round;stroke-linejoin:miter;stroke:#b2ffb2;stroke-opacity:1;stroke-miterlimit:10" d="M-15.214-42.631c6.437-7.297-7.98-.563-5.106.133" transform="matrix(1 0 0 -1 35.656 22.072)"/></g><g clip-path="url(#z)"><path style="fill:none;stroke-width:1.59404;stroke-linecap:round;stroke-linejoin:miter;stroke:#b0ffb0;stroke-opacity:1;stroke-miterlimit:10" d="M-20.32-42.498c2.875.699 9.915 11.11.934 1.851" transform="matrix(1 0 0 -1 35.656 22.072)"/></g><g clip-path="url(#A)"><path style="fill:none;stroke-width:1.59404;stroke-linecap:round;stroke-linejoin:miter;stroke:#adffad;stroke-opacity:1;stroke-miterlimit:10" d="M-19.386-40.647c-8.98-9.258 1.305-2.789 5.004-8.351" transform="matrix(1 0 0 -1 35.656 22.072)"/></g><g clip-path="url(#B)"><path style="fill:none;stroke-width:1.59404;stroke-linecap:round;stroke-linejoin:miter;stroke:#abffab;stroke-opacity:1;stroke-miterlimit:10" d="M-14.382-48.998c3.695-5.559-11.316-1.735-7.895 7.84" transform="matrix(1 0 0 -1 35.656 22.072)"/></g><g clip-path="url(#C)"><path style="fill:none;stroke-width:1.59404;stroke-linecap:round;stroke-linejoin:miter;stroke:#a8ffa8;stroke-opacity:1;stroke-miterlimit:10" d="M-22.277-41.158c3.418 9.578-12.785 3.023-7.714-1.926" transform="matrix(1 0 0 -1 35.656 22.072)"/></g><g clip-path="url(#D)"><path style="fill:none;stroke-width:1.59404;stroke-linecap:round;stroke-linejoin:miter;stroke:#a6ffa6;stroke-opacity:1;stroke-miterlimit:10" d="M-29.991-43.084c5.074-4.953 7.285-2.035 9.37-3.203" transform="matrix(1 0 0 -1 35.656 22.072)"/></g><g clip-path="url(#E)"><path style="fill:none;stroke-width:1.59404;stroke-linecap:round;stroke-linejoin:miter;stroke:#a3ffa3;stroke-opacity:1;stroke-miterlimit:10" d="M-20.62-46.287c2.086-1.168 13.996 2.55 6.183 9.851" transform="matrix(1 0 0 -1 35.656 22.072)"/></g><g clip-path="url(#F)"><path style="fill:none;stroke-width:1.59404;stroke-linecap:round;stroke-linejoin:miter;stroke:#a1ffa1;stroke-opacity:1;stroke-miterlimit:10" d="M-14.437-36.436c-7.812 7.297-3.855 2.66-1.133-5.613" transform="matrix(1 0 0 -1 35.656 22.072)"/></g><g clip-path="url(#G)"><path style="fill:none;stroke-width:1.59404;stroke-linecap:round;stroke-linejoin:miter;stroke:#9eff9e;stroke-opacity:1;stroke-miterlimit:10" d="M-15.57-42.05c2.723-8.273-8.597 5.208-7.27 6.915" transform="matrix(1 0 0 -1 35.656 22.072)"/></g><g clip-path="url(#H)"><path style="fill:none;stroke-width:1.59404;stroke-linecap:round;stroke-linejoin:miter;stroke:#9cff9c;stroke-opacity:1;stroke-miterlimit:10" d="M-22.84-35.135c1.329 1.707 2.493 1.387 1.169 6.746" transform="matrix(1 0 0 -1 35.656 22.072)"/></g><g clip-path="url(#I)"><path style="fill:none;stroke-width:1.59404;stroke-linecap:round;stroke-linejoin:miter;stroke:#9f9;stroke-opacity:1;stroke-miterlimit:10" d="M-21.671-28.389c-1.32 5.363 14.617-4.086 9.586-3.703" transform="matrix(1 0 0 -1 35.656 22.072)"/></g><g clip-path="url(#J)"><path style="fill:none;stroke-width:1.59404;stroke-linecap:round;stroke-linejoin:miter;stroke:#96ff96;stroke-opacity:1;stroke-miterlimit:10" d="M-12.085-32.092c-5.028.383 4.66 16.371 8.867 8.879" transform="matrix(1 0 0 -1 35.656 22.072)"/></g><path style="fill:none;stroke-width:1.59404;stroke-linecap:round;stroke-linejoin:miter;stroke:#94ff94;stroke-opacity:1;stroke-miterlimit:10" d="M-3.218-23.213c4.207-7.488 9.652 5.183.016-1.649" transform="matrix(1 0 0 -1 35.656 22.072)"/><path style="fill:none;stroke-width:1.59404;stroke-linecap:round;stroke-linejoin:miter;stroke:#91ff91;stroke-opacity:1;stroke-miterlimit:10" d="M-3.202-24.862c-9.641-6.828-3.723 5.305-1.899-.164" transform="matrix(1 0 0 -1 35.656 22.072)"/><path style="fill:none;stroke-width:1.59404;stroke-linecap:round;stroke-linejoin:miter;stroke:#8fff8f;stroke-opacity:1;stroke-miterlimit:10" d="M-5.1-25.026c1.823-5.472-4.458 3.996 3.831 9.004" transform="matrix(1 0 0 -1 35.656 22.072)"/><path style="fill:none;stroke-width:1.59404;stroke-linecap:round;stroke-linejoin:miter;stroke:#8cff8c;stroke-opacity:1;stroke-miterlimit:10" d="M-1.269-16.022c8.285 5.008-5.879-14.332.172-6.574" transform="matrix(1 0 0 -1 35.656 22.072)"/><path style="fill:none;stroke-width:1.59404;stroke-linecap:round;stroke-linejoin:miter;stroke:#8aff8a;stroke-opacity:1;stroke-miterlimit:10" d="M-1.097-22.596C4.95-14.838-2.847-34.854 1.61-26.1" transform="matrix(1 0 0 -1 35.656 22.072)"/><path style="fill:none;stroke-width:1.59404;stroke-linecap:round;stroke-linejoin:miter;stroke:#87ff87;stroke-opacity:1;stroke-miterlimit:10" d="M1.61-26.1c4.457 8.754-5.953 4.836-9.297-1.555" transform="matrix(1 0 0 -1 35.656 22.072)"/><path style="fill:none;stroke-width:1.59404;stroke-linecap:round;stroke-linejoin:miter;stroke:#85ff85;stroke-opacity:1;stroke-miterlimit:10" d="M-7.687-27.655c-3.34-6.39 4.203 16.836 9.043 6.918" transform="matrix(1 0 0 -1 35.656 22.072)"/><path style="fill:none;stroke-width:1.59404;stroke-linecap:round;stroke-linejoin:miter;stroke:#82ff82;stroke-opacity:1;stroke-miterlimit:10" d="M1.356-20.737C6.2-30.658-2.51-19.408 4.52-22.424" transform="matrix(1 0 0 -1 35.656 22.072)"/><path style="fill:none;stroke-width:1.59404;stroke-linecap:round;stroke-linejoin:miter;stroke:#80ff80;stroke-opacity:1;stroke-miterlimit:10" d="M4.52-22.424c7.032-3.016 16.41 4.691 9.094 8.59" transform="matrix(1 0 0 -1 35.656 22.072)"/><path style="fill:none;stroke-width:1.59404;stroke-linecap:round;stroke-linejoin:miter;stroke:#7dff7d;stroke-opacity:1;stroke-miterlimit:10" d="M13.614-13.834c-7.316 3.898 14.105-5.512 8.277 3.07" transform="matrix(1 0 0 -1 35.656 22.072)"/><path style="fill:none;stroke-width:1.59404;stroke-linecap:round;stroke-linejoin:miter;stroke:#7aff7a;stroke-opacity:1;stroke-miterlimit:10" d="M21.891-10.764c-5.832 8.578-3.68-6.848-4.793 1.305" transform="matrix(1 0 0 -1 35.656 22.072)"/><path style="fill:none;stroke-width:1.59404;stroke-linecap:round;stroke-linejoin:miter;stroke:#78ff78;stroke-opacity:1;stroke-miterlimit:10" d="M17.098-9.46c-1.113 8.153 8.563-4.085 2.454-1.53" transform="matrix(1 0 0 -1 35.656 22.072)"/><path style="fill:none;stroke-width:1.59404;stroke-linecap:round;stroke-linejoin:miter;stroke:#75ff75;stroke-opacity:1;stroke-miterlimit:10" d="M19.552-10.99c-6.114 2.554-4.657-5.977 3.023-9.137" transform="matrix(1 0 0 -1 35.656 22.072)"/><path style="fill:none;stroke-width:1.59404;stroke-linecap:round;stroke-linejoin:miter;stroke:#73ff73;stroke-opacity:1;stroke-miterlimit:10" d="M22.575-20.127c7.68-3.156 18.27-5.352 8.379-1.38" transform="matrix(1 0 0 -1 35.656 22.072)"/><path style="fill:none;stroke-width:1.59404;stroke-linecap:round;stroke-linejoin:miter;stroke:#70ff70;stroke-opacity:1;stroke-miterlimit:10" d="M30.954-21.506c-9.895 3.976-3.008 5.812 5.094 4.258" transform="matrix(1 0 0 -1 35.656 22.072)"/><path style="fill:none;stroke-width:1.59404;stroke-linecap:round;stroke-linejoin:miter;stroke:#6eff6e;stroke-opacity:1;stroke-miterlimit:10" d="M36.048-17.248c8.101-1.555 15.144 11 9.953 7.28" transform="matrix(1 0 0 -1 35.656 22.072)"/><path style="fill:none;stroke-width:1.59404;stroke-linecap:round;stroke-linejoin:miter;stroke:#6bff6b;stroke-opacity:1;stroke-miterlimit:10" d="M46-9.967c-5.187-3.723-10.034-6.024-7.628-1.715" transform="matrix(1 0 0 -1 35.656 22.072)"/><path style="fill:none;stroke-width:1.59404;stroke-linecap:round;stroke-linejoin:miter;stroke:#69ff69;stroke-opacity:1;stroke-miterlimit:10" d="M38.372-11.682c2.406 4.305 17.058-15.941 8.543-7.203" transform="matrix(1 0 0 -1 35.656 22.072)"/><path style="fill:none;stroke-width:1.59404;stroke-linecap:round;stroke-linejoin:miter;stroke:#6f6;stroke-opacity:1;stroke-miterlimit:10" d="M46.915-18.885c-8.516 8.738-3.453-3.125 4.617.055" transform="matrix(1 0 0 -1 35.656 22.072)"/><path style="fill:none;stroke-width:1.59404;stroke-linecap:round;stroke-linejoin:miter;stroke:#63ff63;stroke-opacity:1;stroke-miterlimit:10" d="M51.532-18.83c8.066 3.183 1.215 14.007 2.281 9.226" transform="matrix(1 0 0 -1 35.656 22.072)"/><path style="fill:none;stroke-width:1.59404;stroke-linecap:round;stroke-linejoin:miter;stroke:#61ff61;stroke-opacity:1;stroke-miterlimit:10" d="M53.813-9.604c1.067-4.777-.39 7.574 3.574 9.735" transform="matrix(1 0 0 -1 35.656 22.072)"/><path style="fill:none;stroke-width:1.59404;stroke-linecap:round;stroke-linejoin:miter;stroke:#5eff5e;stroke-opacity:1;stroke-miterlimit:10" d="M57.387.13c3.961 2.16-4.757-5.699-9.125-5.69" transform="matrix(1 0 0 -1 35.656 22.072)"/><path style="fill:none;stroke-width:1.59404;stroke-linecap:round;stroke-linejoin:miter;stroke:#5cff5c;stroke-opacity:1;stroke-miterlimit:10" d="M48.262-5.56c-4.363.003-16.964.202-8.578 3.03" transform="matrix(1 0 0 -1 35.656 22.072)"/><path style="fill:none;stroke-width:1.59404;stroke-linecap:round;stroke-linejoin:miter;stroke:#59ff59;stroke-opacity:1;stroke-miterlimit:10" d="M39.684-2.53C48.067.3 32.786-8.198 42.391-9.354" transform="matrix(1 0 0 -1 35.656 22.072)"/><path style="fill:none;stroke-width:1.59404;stroke-linecap:round;stroke-linejoin:miter;stroke:#57ff57;stroke-opacity:1;stroke-miterlimit:10" d="M42.391-9.354c9.606-1.16 10.051 1.453 8.34 1.672" transform="matrix(1 0 0 -1 35.656 22.072)"/><path style="fill:none;stroke-width:1.59404;stroke-linecap:round;stroke-linejoin:miter;stroke:#54ff54;stroke-opacity:1;stroke-miterlimit:10" d="M50.731-7.682c-1.71.219 11.602 8.98 8.637 1.457" transform="matrix(1 0 0 -1 35.656 22.072)"/><path style="fill:none;stroke-width:1.59404;stroke-linecap:round;stroke-linejoin:miter;stroke:#52ff52;stroke-opacity:1;stroke-miterlimit:10" d="M59.368-6.225c-2.969-7.523 7.351.89 5.394 9.32" transform="matrix(1 0 0 -1 35.656 22.072)"/><path style="fill:none;stroke-width:1.59404;stroke-linecap:round;stroke-linejoin:miter;stroke:#4fff4f;stroke-opacity:1;stroke-miterlimit:10" d="M64.762 3.095c-1.957 8.434 6.055 11.747-3.078 9.516" transform="matrix(1 0 0 -1 35.656 22.072)"/><path style="fill:none;stroke-width:1.59404;stroke-linecap:round;stroke-linejoin:miter;stroke:#4cff4c;stroke-opacity:1;stroke-miterlimit:10" d="M61.684 12.611c-9.132-2.23 11.11-7.062 6.2-1.535" transform="matrix(1 0 0 -1 35.656 22.072)"/><g clip-path="url(#K)"><path style="fill:none;stroke-width:1.59404;stroke-linecap:round;stroke-linejoin:miter;stroke:#4aff4a;stroke-opacity:1;stroke-miterlimit:10" d="M67.884 11.076c-4.907 5.523 13.414 10.144 9.937 9.148" transform="matrix(1 0 0 -1 35.656 22.072)"/></g><g clip-path="url(#L)"><path style="fill:none;stroke-width:1.59404;stroke-linecap:round;stroke-linejoin:miter;stroke:#47ff47;stroke-opacity:1;stroke-miterlimit:10" d="M77.821 20.224c-3.473-.996-6.945-6.816 2.875-2.023" transform="matrix(1 0 0 -1 35.656 22.072)"/></g><g clip-path="url(#M)"><path style="fill:none;stroke-width:1.59404;stroke-linecap:round;stroke-linejoin:miter;stroke:#45ff45;stroke-opacity:1;stroke-miterlimit:10" d="M80.696 18.2c9.816 4.794-12.508.868-5.93-2.23" transform="matrix(1 0 0 -1 35.656 22.072)"/></g><g clip-path="url(#N)"><path style="fill:none;stroke-width:1.59404;stroke-linecap:round;stroke-linejoin:miter;stroke:#42ff42;stroke-opacity:1;stroke-miterlimit:10" d="M74.766 15.97c6.582-3.093 1.188-9.785 6.16-6.863" transform="matrix(1 0 0 -1 35.656 22.072)"/></g><g clip-path="url(#O)"><path style="fill:none;stroke-width:1.59404;stroke-linecap:round;stroke-linejoin:miter;stroke:#40ff40;stroke-opacity:1;stroke-miterlimit:10" d="M80.927 9.107c4.968 2.922 4.82 3.586 5.914 8.836" transform="matrix(1 0 0 -1 35.656 22.072)"/></g><g clip-path="url(#P)"><path style="fill:none;stroke-width:1.59404;stroke-linecap:round;stroke-linejoin:miter;stroke:#3dff3d;stroke-opacity:1;stroke-miterlimit:10" d="M86.84 17.943c1.094 5.25 1.68-.426 8.606-6.883" transform="matrix(1 0 0 -1 35.656 22.072)"/></g><g clip-path="url(#Q)"><path style="fill:none;stroke-width:1.59404;stroke-linecap:round;stroke-linejoin:miter;stroke:#3bff3b;stroke-opacity:1;stroke-miterlimit:10" d="M95.446 11.06c6.926-6.457-9.129 1.785-3.664.278" transform="matrix(1 0 0 -1 35.656 22.072)"/></g><g clip-path="url(#R)"><path style="fill:none;stroke-width:1.59404;stroke-linecap:round;stroke-linejoin:miter;stroke:#38ff38;stroke-opacity:1;stroke-miterlimit:10" d="M91.782 11.338c5.469-1.508-.102 5.07-8.746 3.093" transform="matrix(1 0 0 -1 35.656 22.072)"/></g><g clip-path="url(#S)"><path style="fill:none;stroke-width:1.59404;stroke-linecap:round;stroke-linejoin:miter;stroke:#36ff36;stroke-opacity:1;stroke-miterlimit:10" d="M83.036 14.431c-8.645-1.98-.059-18.359-1.297-8.87" transform="matrix(1 0 0 -1 35.656 22.072)"/></g><g clip-path="url(#T)"><path style="fill:none;stroke-width:1.59404;stroke-linecap:round;stroke-linejoin:miter;stroke:#3f3;stroke-opacity:1;stroke-miterlimit:10" d="M81.739 5.56c-1.238 9.489-8.684-10.847-8.07-1.472" transform="matrix(1 0 0 -1 35.656 22.072)"/></g><g clip-path="url(#U)"><path style="fill:none;stroke-width:1.59404;stroke-linecap:round;stroke-linejoin:miter;stroke:#30ff30;stroke-opacity:1;stroke-miterlimit:10" d="M73.669 4.088c.613 9.37 12.41-.754 4.765 4.16" transform="matrix(1 0 0 -1 35.656 22.072)"/></g><g clip-path="url(#V)"><path style="fill:none;stroke-width:1.59404;stroke-linecap:round;stroke-linejoin:miter;stroke:#2eff2e;stroke-opacity:1;stroke-miterlimit:10" d="M78.434 8.248c-7.644 4.914-17.636-5.117-7.851-4.133" transform="matrix(1 0 0 -1 35.656 22.072)"/></g><path style="fill:none;stroke-width:1.59404;stroke-linecap:round;stroke-linejoin:miter;stroke:#2bff2b;stroke-opacity:1;stroke-miterlimit:10" d="M70.583 4.115c9.785.984-1.754-1.996-6.328-8.652" transform="matrix(1 0 0 -1 35.656 22.072)"/><path style="fill:none;stroke-width:1.59404;stroke-linecap:round;stroke-linejoin:miter;stroke:#29ff29;stroke-opacity:1;stroke-miterlimit:10" d="M64.255-4.537c-4.575-6.657 6.41 3.242-3.54-.547" transform="matrix(1 0 0 -1 35.656 22.072)"/><path style="fill:none;stroke-width:1.59404;stroke-linecap:round;stroke-linejoin:miter;stroke:#26ff26;stroke-opacity:1;stroke-miterlimit:10" d="M60.716-5.084C50.766-8.87 63.294 1.27 70.493-.6" transform="matrix(1 0 0 -1 35.656 22.072)"/><g clip-path="url(#W)"><path style="fill:none;stroke-width:1.59404;stroke-linecap:round;stroke-linejoin:miter;stroke:#24ff24;stroke-opacity:1;stroke-miterlimit:10" d="M70.493-.6c7.2-1.871 10.113-6.848 2.3-3.871" transform="matrix(1 0 0 -1 35.656 22.072)"/></g><g clip-path="url(#X)"><path style="fill:none;stroke-width:1.59404;stroke-linecap:round;stroke-linejoin:miter;stroke:#21ff21;stroke-opacity:1;stroke-miterlimit:10" d="M72.794-4.471c-7.813 2.977 12.11 2.715 6.578-3.68" transform="matrix(1 0 0 -1 35.656 22.072)"/></g><g clip-path="url(#Y)"><path style="fill:none;stroke-width:1.59404;stroke-linecap:round;stroke-linejoin:miter;stroke:#1fff1f;stroke-opacity:1;stroke-miterlimit:10" d="M79.372-8.15c-5.531-6.4-15.738.882-6.23 1.745" transform="matrix(1 0 0 -1 35.656 22.072)"/></g><g clip-path="url(#Z)"><path style="fill:none;stroke-width:1.59404;stroke-linecap:round;stroke-linejoin:miter;stroke:#1cff1c;stroke-opacity:1;stroke-miterlimit:10" d="M73.141-6.405c9.504.86 3.418-3.964 7.504-2.246" transform="matrix(1 0 0 -1 35.656 22.072)"/></g><g clip-path="url(#aa)"><path style="fill:none;stroke-width:1.59404;stroke-linecap:round;stroke-linejoin:miter;stroke:#19ff19;stroke-opacity:1;stroke-miterlimit:10" d="M80.645-8.65c4.086 1.714 9.875 3.265 6.719 3.019" transform="matrix(1 0 0 -1 35.656 22.072)"/></g><g clip-path="url(#ab)"><path style="fill:none;stroke-width:1.59404;stroke-linecap:round;stroke-linejoin:miter;stroke:#17ff17;stroke-opacity:1;stroke-miterlimit:10" d="M87.364-5.631c-3.152-.25-2.16 13.086-9.738 5.984" transform="matrix(1 0 0 -1 35.656 22.072)"/></g><g clip-path="url(#ac)"><path style="fill:none;stroke-width:1.59404;stroke-linecap:round;stroke-linejoin:miter;stroke:#14ff14;stroke-opacity:1;stroke-miterlimit:10" d="M77.626.353c-7.578-7.105-14.867 19.102-5.848 9.89" transform="matrix(1 0 0 -1 35.656 22.072)"/></g><g clip-path="url(#ad)"><path style="fill:none;stroke-width:1.59404;stroke-linecap:round;stroke-linejoin:miter;stroke:#12ff12;stroke-opacity:1;stroke-miterlimit:10" d="M71.778 10.244c9.02-9.207 8.899-2.39 2.938-5.938" transform="matrix(1 0 0 -1 35.656 22.072)"/></g><g clip-path="url(#ae)"><path style="fill:none;stroke-width:1.59404;stroke-linecap:round;stroke-linejoin:miter;stroke:#0fff0f;stroke-opacity:1;stroke-miterlimit:10" d="M74.716 4.306c-5.961-3.543 3.812 13.848 4.87 4.2" transform="matrix(1 0 0 -1 35.656 22.072)"/></g><g clip-path="url(#af)"><path style="fill:none;stroke-width:1.59404;stroke-linecap:round;stroke-linejoin:miter;stroke:#0dff0d;stroke-opacity:1;stroke-miterlimit:10" d="M79.587 8.506c1.062-9.649-3.102-12.496.804-5.16" transform="matrix(1 0 0 -1 35.656 22.072)"/></g><g clip-path="url(#ag)"><path style="fill:none;stroke-width:1.59404;stroke-linecap:round;stroke-linejoin:miter;stroke:#0aff0a;stroke-opacity:1;stroke-miterlimit:10" d="M80.391 3.345c3.907 7.332 8.274-6.746 9.504-9.257" transform="matrix(1 0 0 -1 35.656 22.072)"/></g><g clip-path="url(#ah)"><path style="fill:none;stroke-width:1.59404;stroke-linecap:round;stroke-linejoin:miter;stroke:#08ff08;stroke-opacity:1;stroke-miterlimit:10" d="M89.895-5.912c1.23-2.516-11.633-17.004-9.578-7.602" transform="matrix(1 0 0 -1 35.656 22.072)"/></g><g clip-path="url(#ai)"><path style="fill:none;stroke-width:1.59404;stroke-linecap:round;stroke-linejoin:miter;stroke:#05ff05;stroke-opacity:1;stroke-miterlimit:10" d="M80.317-13.514c2.055 9.406 5.988 16.133 5.645 9.219" transform="matrix(1 0 0 -1 35.656 22.072)"/></g><g clip-path="url(#aj)"><path style="fill:none;stroke-width:1.59404;stroke-linecap:round;stroke-linejoin:miter;stroke:#03ff03;stroke-opacity:1;stroke-miterlimit:10" d="M85.962-4.295c-.348-6.91 11.156-3.758 2.87-7.531" transform="matrix(1 0 0 -1 35.656 22.072)"/></g><g clip-path="url(#ak)"><path style="fill:none;stroke-width:1.59404;stroke-linecap:round;stroke-linejoin:miter;stroke:#0f0;stroke-opacity:1;stroke-miterlimit:10" d="M88.833-11.826c-8.281-3.774 1.57-1.028 5.988-6.641" transform="matrix(1 0 0 -1 35.656 22.072)"/></g></svg>