<svg xmlns="http://www.w3.org/2000/svg" xmlns:xlink="http://www.w3.org/1999/xlink" width="250.563" height="41.331" viewBox="0 0 187.922 30.998" version="1.2"><defs><symbol overflow="visible" id="b"><path style="stroke:none" d="M4.563 0v-.438H3.266v-5.156c0-.187 0-.297-.266-.297-.11 0-.125 0-.203.063-.688.516-1.656.516-1.828.516H.797v.437h.172a4.16 4.16 0 0 0 1.203-.172v4.61H.89V0c.343-.031 1.421-.031 1.828-.031.422 0 1.484 0 1.844.031Zm0 0"/></symbol><symbol overflow="visible" id="c"><path style="stroke:none" d="M4.86-1.61c0-.718-.532-1.327-1.548-1.546.907-.313 1.25-.938 1.25-1.485 0-.671-.671-1.25-2-1.25-1.109 0-1.828.594-1.828 1.329 0 .406.282.656.641.656.39 0 .656-.281.656-.656 0-.297-.172-.547-.531-.625.063-.063.438-.344 1.016-.344.78 0 .78.593.78.875 0 .5-.187 1.281-.968 1.328l-.422.031c-.14.016-.14.11-.14.172 0 .188.093.188.265.188h.422c1 0 1 .874 1 1.328 0 .406 0 1.312-.953 1.312-.11 0-.734-.016-1.14-.312.406-.11.5-.47.5-.672 0-.422-.298-.703-.72-.703-.374 0-.702.25-.702.703 0 .843.906 1.39 2.093 1.39 1.64 0 2.328-.906 2.328-1.718Zm0 0"/></symbol><symbol overflow="visible" id="d"><path style="stroke:none" d="M4.766-1.797c0-1.031-.72-1.875-2.079-1.875-.421 0-.796.063-1.187.297v-1.14c.313.062.453.062.64.062.25 0 .829 0 1.5-.453.204-.125.72-.563.72-.797 0-.031 0-.188-.141-.188 0 0-.047 0-.14.047a4.072 4.072 0 0 1-2.813 0c-.125-.047-.157-.047-.157-.047-.125 0-.125.125-.125.266v2.64c0 .157 0 .282.204.282.125 0 .14 0 .234-.125.375-.422.86-.485 1.219-.485.828 0 .828.782.828 1.485 0 .64 0 1.531-1.125 1.531-.485 0-.922-.234-1.14-.516.374-.046.577-.296.577-.625 0-.437-.343-.625-.625-.625-.281 0-.625.172-.625.641C.531-.64 1.25.11 2.391.11c1.53 0 2.375-.859 2.375-1.906Zm0 0"/></symbol><symbol overflow="visible" id="e"><path style="stroke:none" d="M5.156-5.516v-.265H3.11c-.187 0-1.437-.047-1.546-.078-.172-.047-.188-.11-.204-.204H.906L.594-3.765h.453c.094-.75.25-.812.25-.812.125-.047.812-.047.984-.047h1.5c-.922 1.047-.922 1.063-1.11 1.344-.733 1.11-.89 2.14-.89 2.75 0 .625.485.64.578.64.235 0 .407-.14.454-.187.124-.188.124-.234.124-.75 0-1.156.11-2.235.688-2.89l1.438-1.626c.078-.093.093-.14.093-.172Zm0 0"/></symbol><symbol overflow="visible" id="f"><path style="stroke:none" d="M4.766-2.016h-.454c-.015.125-.093.766-.234.829-.11.046-.781.046-.937.046H1.859c.485-.39 1.016-.812 1.47-1.125.75-.53 1.437-1.015 1.437-1.89 0-1.047-.954-1.735-2.25-1.735-1.11 0-1.985.532-1.985 1.36 0 .468.36.687.672.687a.65.65 0 0 0 .656-.672c0-.203-.078-.53-.468-.64.312-.25.718-.282.89-.282.735 0 1.203.547 1.203 1.282 0 .656-.375 1.234-.859 1.718l-2 1.985c-.094.094-.094.11-.094.281V0H4.5Zm0 0"/></symbol><symbol overflow="visible" id="h"><path style="stroke:none" d="M5 0v-.438h-.89v-.953H5v-.437h-.89v-3.766c0-.265-.032-.312-.298-.312-.218 0-.234.015-.328.14L.297-1.828v.437h2.656v.954H1.922V0C2.25-.031 3.14-.031 3.5-.031c.375 0 1.172 0 1.5.031ZM3.062-1.828H.813l2.25-2.797Zm0 0"/></symbol><symbol overflow="visible" id="j"><path style="stroke:none" d="M4.86-1.844c0-.484-.094-.968-.61-1.437-.469-.39-.938-.485-1.484-.485-.579 0-.922.407-1.063.688v-.156c0-1.125.219-1.485.313-1.641a1.47 1.47 0 0 1 1.218-.656c.172 0 .454.031.672.234-.36.078-.484.344-.484.563 0 .39.297.593.594.593a.571.571 0 0 0 .578-.609c0-.547-.375-1.14-1.375-1.14-1.297 0-2.781.827-2.781 3.046 0 .438.03 1.313.421 1.953.391.688 1.016 1 1.829 1 1.28 0 2.171-.734 2.171-1.953Zm-1.266-.015c0 .906 0 1.562-.922 1.562-.531 0-.766-.406-.828-.562-.125-.282-.125-1-.125-1.032 0-.921.39-1.515 1.015-1.515.86 0 .86.656.86 1.547Zm0 0"/></symbol><symbol overflow="visible" id="l"><path style="stroke:none" d="M4.86-1.672c0-.953-.735-1.375-1.204-1.64.64-.313.906-.75.906-1.25 0-.86-.75-1.329-1.89-1.329-1.297 0-1.938.72-1.938 1.594 0 .484.266 1 .86 1.344-.485.25-1.157.61-1.157 1.515 0 1.11 1 1.547 2.204 1.547 1.453 0 2.218-.765 2.218-1.78Zm-1-2.89c0 .468-.282.796-.657 1l-1.375-.75c-.047-.016-.39-.204-.39-.516 0-.594.703-.703 1.187-.703.797 0 1.234.39 1.234.968Zm.187 3.375c0 .843-1.047.89-1.39.89-.798 0-1.407-.36-1.407-1.156 0-.406.172-.875.797-1.25l1.203.656c.484.266.797.438.797.86Zm0 0"/></symbol><clipPath id="a"><path d="M0 0h39v30.996H0Zm0 0"/></clipPath><clipPath id="g"><path d="M32 11h38v19.996H32Zm0 0"/></clipPath><clipPath id="i"><path d="M71 11h38v19.996H71Zm0 0"/></clipPath><clipPath id="k"><path d="M109 11h38v19.996h-38Zm0 0"/></clipPath><clipPath id="m"><path d="M148 11h38v19.996h-38Zm0 0"/></clipPath></defs><path style="fill:none;stroke-width:.3985;stroke-linecap:butt;stroke-linejoin:miter;stroke:gray;stroke-opacity:1;stroke-miterlimit:10" d="M.002-.001h28.343M.002 28.346h28.343M.002-.001v28.347M28.345-.001v28.347" transform="matrix(1 0 0 -1 1.26 29.651)"/><g clip-path="url(#a)"><path style="fill:none;stroke-width:.59776;stroke-linecap:butt;stroke-linejoin:miter;stroke:#cc8714;stroke-opacity:1;stroke-miterlimit:10" d="M.002 14.151s.851 3.11 1.18 3.988c.328.88.851 2.055 1.18 2.344.327.285.855.148 1.183-.277.328-.422.851-1.82 1.18-2.778.328-.96.85-3.035 1.18-4.132.327-1.098.855-2.997 1.183-3.782.328-.781.851-1.718 1.18-1.863.327-.145.855.27 1.183.824.324.551.851 2.145 1.18 3.168.328 1.02.851 3.133 1.18 4.203.327 1.07.855 2.828 1.183 3.504.328.676.851 1.356 1.18 1.356.328 0 .851-.68 1.18-1.356.327-.676.855-2.433 1.183-3.504.328-1.07.851-3.18 1.18-4.203.328-1.023.855-2.617 1.18-3.168.327-.554.855-.969 1.183-.824.328.145.851 1.082 1.18 1.863.328.785.855 2.684 1.183 3.782.324 1.097.852 3.171 1.18 4.132.328.957.851 2.356 1.18 2.778.328.425.855.562 1.183.277.328-.289.852-1.465 1.18-2.344.328-.879 1.18-3.988 1.18-3.988" transform="matrix(1 0 0 -1 1.26 29.651)"/><path style="fill:none;stroke-width:.59776;stroke-linecap:butt;stroke-linejoin:miter;stroke:#cc148c;stroke-opacity:1;stroke-miterlimit:10" d="M.002 14.151s.851 3.184 1.18 4.113c.328.93.851 2.219 1.18 2.594.327.375.855.43 1.183.11.328-.32.851-1.516 1.18-2.415.328-.894.85-2.902 1.18-4.043.327-1.14.855-3.214 1.183-4.175.328-.965.851-2.336 1.18-2.766.327-.43.855-.594 1.183-.328.324.262.851 1.367 1.18 2.226.328.86.851 2.825 1.18 3.961.327 1.137.855 3.235 1.183 4.227.328.992.851 2.45 1.18 2.93.328.484.851.757 1.18.55.327-.207.855-1.218 1.183-2.039.328-.816.851-2.738 1.18-3.867.328-1.129.855-3.246 1.18-4.265.327-1.02.855-2.555 1.183-3.09.328-.535.851-.914 1.18-.766.328.148.855 1.063 1.183 1.84.324.777.852 2.648 1.18 3.765.328 1.118.851 3.25 1.18 4.297.328 1.043.855 2.653 1.183 3.239.328.586.852 1.07 1.18.98.328-.094 1.18-1.64 1.18-1.64" transform="matrix(1 0 0 -1 1.26 29.651)"/><path style="fill:none;stroke-width:.59776;stroke-linecap:butt;stroke-linejoin:miter;stroke:#2114cc;stroke-opacity:1;stroke-miterlimit:10" d="M.002 14.151s.851 3.27 1.18 4.254c.328.988.851 2.39 1.18 2.86.327.468.855.718 1.183.515.328-.207.851-1.184 1.18-1.996.328-.809.85-2.7 1.18-3.848.327-1.152.855-3.324 1.183-4.433.328-1.114.851-2.86 1.18-3.567.327-.707.855-1.453 1.183-1.52.324-.07.851.434 1.18 1.024.328.59.851 2.176 1.18 3.234.327 1.055.855 3.2 1.183 4.375.328 1.172.851 3.176 1.18 4.082.328.903.851 2.102 1.18 2.442a.821.821 0 0 0 1.183 0c.328-.34.851-1.54 1.18-2.442.328-.906.855-2.91 1.18-4.082.327-1.175.855-3.32 1.183-4.375.328-1.058.851-2.644 1.18-3.234.328-.59.855-1.094 1.183-1.023.324.066.852.812 1.18 1.52.328.706.851 2.452 1.18 3.566.328 1.109.855 3.28 1.183 4.433.328 1.149.852 3.04 1.18 3.848.328.812 1.18 1.996 1.18 1.996" transform="matrix(1 0 0 -1 1.26 29.651)"/><path style="fill:none;stroke-width:.59776;stroke-linecap:butt;stroke-linejoin:miter;stroke:#14cca5;stroke-opacity:1;stroke-miterlimit:10" d="M.002 14.151s.851 3.371 1.18 4.418c.328 1.05.851 2.57 1.18 3.14.327.567.855 1.024 1.183.946.328-.082.851-.82 1.18-1.524.328-.703.85-2.425 1.18-3.55.327-1.121.855-3.328 1.183-4.543.328-1.215.851-3.266 1.18-4.223.327-.957.855-2.254 1.183-2.672.324-.422.851-.59 1.18-.351.328.238.851 1.246 1.18 2.074.327.828.855 2.723 1.183 3.898.328 1.18.851 3.407 1.18 4.59.328 1.188.851 3.102 1.18 3.95.327.85.855 1.898 1.183 2.163.328.266.851.145 1.18-.25.328-.394.855-1.652 1.18-2.59.327-.94.855-2.968 1.183-4.18.328-1.214.851-3.425 1.18-4.558.328-1.133.855-2.886 1.183-3.613.324-.723.852-1.508 1.18-1.617.328-.106.851.304 1.18.847.328.543.855 2.028 1.183 3.063.328 1.035.852 3.168 1.18 4.394.328 1.227 1.18 4.446 1.18 4.446" transform="matrix(1 0 0 -1 1.26 29.651)"/><path style="fill:none;stroke-width:.59776;stroke-linecap:butt;stroke-linejoin:miter;stroke:#6ecc14;stroke-opacity:1;stroke-miterlimit:10" d="M.002 14.151s.851 3.496 1.18 4.613c.328 1.117.851 2.774 1.18 3.446.327.671.855 1.343 1.183 1.402.328.055.851-.426 1.18-1 .328-.574.85-2.086 1.18-3.145.327-1.058.855-3.218 1.183-4.492.328-1.277.851-3.531 1.18-4.699.327-1.168.855-2.957 1.183-3.723.324-.761.851-1.625 1.18-1.793.328-.164.851.118 1.18.59.327.473.855 1.828 1.183 2.82.328.993.851 3.075 1.18 4.336.328 1.262.851 3.543 1.18 4.75.327 1.211.855 3.118 1.183 3.97.328.85.851 1.89 1.18 2.167.328.278.855.195 1.18-.172.327-.367.855-1.554 1.183-2.472.328-.922.851-2.91 1.18-4.149.328-1.238.855-3.527 1.183-4.765.324-1.243.852-3.25 1.18-4.184.328-.93.851-2.148 1.18-2.531.328-.387.855-.504 1.183-.242.328.257.852 1.27 1.18 2.109.328.836 1.18 3.926 1.18 3.926" transform="matrix(1 0 0 -1 1.26 29.651)"/><path style="fill:none;stroke-width:.59776;stroke-linecap:butt;stroke-linejoin:miter;stroke:#cc3f14;stroke-opacity:1;stroke-miterlimit:10" d="M.002 14.151s.851 3.648 1.18 4.848c.328 1.199.851 3 1.18 3.789.327.785.855 1.687 1.183 1.89.328.207.851.008 1.18-.418.328-.422.85-1.675 1.18-2.632.327-.957.855-2.993 1.183-4.274.328-1.285.851-3.648 1.18-4.976.327-1.329.855-3.508 1.183-4.59.324-1.078.851-2.598 1.18-3.192.328-.593.851-1.117 1.18-1.097.327.02.855.609 1.183 1.238.328.629.851 2.2 1.18 3.3.328 1.106.851 3.313 1.18 4.645.327 1.332.855 3.692 1.183 4.965.328 1.27.851 3.266 1.18 4.2.328.929.855 2.12 1.18 2.507.327.387.855.516 1.183.274.328-.247.851-1.207 1.18-2.028.328-.816.855-2.664 1.183-3.879.324-1.215.852-3.535 1.18-4.879.328-1.347.851-3.636 1.18-4.816.328-1.18.855-2.934 1.183-3.691.328-.754.852-1.59 1.18-1.758.328-.164 1.18.562 1.18.562" transform="matrix(1 0 0 -1 1.26 29.651)"/><path style="fill:none;stroke-width:.59776;stroke-linecap:butt;stroke-linejoin:miter;stroke:#c414cc;stroke-opacity:1;stroke-miterlimit:10" d="M.002 14.151s.851 3.848 1.18 5.145c.328 1.293.851 3.261 1.18 4.18.327.917.855 2.066 1.183 2.433.328.37.851.48 1.18.23.328-.246.85-1.195 1.18-2.015.327-.82.855-2.649 1.183-3.887.328-1.234.851-3.606 1.18-5.027.327-1.422.855-3.883 1.183-5.223.324-1.344.851-3.438 1.18-4.445.328-1.012.851-2.344 1.18-2.832.327-.489.855-.813 1.183-.688.328.125.851.871 1.18 1.586.328.711.851 2.387 1.18 3.559.327 1.168.855 3.464 1.183 4.87.328 1.403.851 3.884 1.18 5.262.328 1.38.855 3.582 1.18 4.676.327 1.094.855 2.606 1.183 3.207.328.606.851 1.14 1.18 1.14.328 0 .855-.534 1.183-1.14.324-.601.852-2.113 1.18-3.207.328-1.094.851-3.297 1.18-4.676.328-1.378.855-3.859 1.183-5.261.328-1.407.852-3.7 1.18-4.871.328-1.168 1.18-3.559 1.18-3.559" transform="matrix(1 0 0 -1 1.26 29.651)"/><path style="fill:none;stroke-width:.59776;stroke-linecap:butt;stroke-linejoin:miter;stroke:#1450cc;stroke-opacity:1;stroke-miterlimit:10" d="M.002 14.151s.851 4.117 1.18 5.531c.328 1.414.851 3.586 1.18 4.657.327 1.07.855 2.492 1.183 3.046.328.559.851 1.008 1.18.961.328-.043.85-.64 1.18-1.28.327-.638.855-2.188 1.183-3.321.328-1.13.851-3.387 1.18-4.836.327-1.445.855-4.051 1.183-5.582.324-1.535.851-4.082 1.18-5.457.328-1.38.851-3.465 1.18-4.469.327-1.004.855-2.293 1.183-2.766.328-.472.851-.77 1.18-.636.328.136.851.882 1.18 1.601.327.719.855 2.387 1.183 3.578.328 1.192.851 3.524 1.18 4.996.328 1.473.855 4.098 1.18 5.622.327 1.527.855 4.03 1.183 5.363.328 1.336.851 3.324 1.18 4.258.328.937.855 2.093 1.183 2.48.324.387.852.527 1.18.305.328-.223.851-1.114 1.18-1.91.328-.797.855-2.582 1.183-3.829.328-1.242.852-3.644 1.18-5.14.328-1.496 1.18-5.64 1.18-5.64" transform="matrix(1 0 0 -1 1.26 29.651)"/></g><use xlink:href="#b" x="66.298" y="12.267" style="fill:#000;fill-opacity:1"/><path style="fill:none;stroke-width:.59776;stroke-linecap:butt;stroke-linejoin:miter;stroke:#1450cc;stroke-opacity:1;stroke-miterlimit:10" d="M-19.926.001s2.91 1.512 4.98 1.325c2.074-.184 7.89-2.47 9.965-2.653C-2.907-1.51-.001.001-.001.001" transform="matrix(1 0 0 -1 61.321 10.056)"/><use xlink:href="#c" x="104.777" y="12.267" style="fill:#000;fill-opacity:1"/><path style="fill:none;stroke-width:.59776;stroke-linecap:butt;stroke-linejoin:miter;stroke:#cc3f14;stroke-opacity:1;stroke-miterlimit:10" d="M-19.925.001s2.906 1.512 4.98 1.325c2.075-.184 7.891-2.47 9.965-2.653C-2.91-1.51 0 .001 0 .001" transform="matrix(1 0 0 -1 99.8 10.056)"/><use xlink:href="#d" x="143.257" y="12.267" style="fill:#000;fill-opacity:1"/><path style="fill:none;stroke-width:.59776;stroke-linecap:butt;stroke-linejoin:miter;stroke:#14cca5;stroke-opacity:1;stroke-miterlimit:10" d="M-19.925.001s2.907 1.512 4.98 1.325c2.075-.184 7.892-2.47 9.962-2.653C-2.91-1.51 0 .001 0 .001" transform="matrix(1 0 0 -1 138.28 10.056)"/><use xlink:href="#e" x="181.737" y="12.267" style="fill:#000;fill-opacity:1"/><path style="fill:none;stroke-width:.59776;stroke-linecap:butt;stroke-linejoin:miter;stroke:#cc148c;stroke-opacity:1;stroke-miterlimit:10" d="M-19.927.001s2.91 1.512 4.984 1.325c2.07-.184 7.887-2.47 9.961-2.653C-2.907-1.51-.002.001-.002.001" transform="matrix(1 0 0 -1 176.759 10.056)"/><use xlink:href="#f" x="66.298" y="23.226" style="fill:#000;fill-opacity:1"/><g clip-path="url(#g)"><path style="fill:none;stroke-width:.59776;stroke-linecap:butt;stroke-linejoin:miter;stroke:#c414cc;stroke-opacity:1;stroke-miterlimit:10" d="M-19.926 0s2.91 1.511 4.98 1.327c2.074-.183 7.89-2.468 9.965-2.656C-2.907-1.512-.001 0-.001 0" transform="matrix(1 0 0 -1 61.321 21.015)"/></g><use xlink:href="#h" x="104.777" y="23.226" style="fill:#000;fill-opacity:1"/><g clip-path="url(#i)"><path style="fill:none;stroke-width:.59776;stroke-linecap:butt;stroke-linejoin:miter;stroke:#6ecc14;stroke-opacity:1;stroke-miterlimit:10" d="M-19.925 0s2.906 1.511 4.98 1.327c2.075-.183 7.891-2.468 9.965-2.656C-2.91-1.512 0 0 0 0" transform="matrix(1 0 0 -1 99.8 21.015)"/></g><use xlink:href="#j" x="143.257" y="23.226" style="fill:#000;fill-opacity:1"/><g clip-path="url(#k)"><path style="fill:none;stroke-width:.59776;stroke-linecap:butt;stroke-linejoin:miter;stroke:#2114cc;stroke-opacity:1;stroke-miterlimit:10" d="M-19.925 0s2.907 1.511 4.98 1.327c2.075-.183 7.892-2.468 9.962-2.656C-2.91-1.512 0 0 0 0" transform="matrix(1 0 0 -1 138.28 21.015)"/></g><use xlink:href="#l" x="181.737" y="23.226" style="fill:#000;fill-opacity:1"/><g clip-path="url(#m)"><path style="fill:none;stroke-width:.59776;stroke-linecap:butt;stroke-linejoin:miter;stroke:#cc8714;stroke-opacity:1;stroke-miterlimit:10" d="M-19.927 0s2.91 1.511 4.984 1.327c2.07-.183 7.887-2.468 9.961-2.656C-2.907-1.512-.002 0-.002 0" transform="matrix(1 0 0 -1 176.759 21.015)"/></g></svg>