<svg xmlns="http://www.w3.org/2000/svg" width="100.668" height="18.243" viewBox="0 0 75.501 13.682" version="1.2"><defs><clipPath id="a"><path d="M0 0h28v13.523H0Zm0 0"/></clipPath><clipPath id="b"><path d="M26 0h49.25v13.523H26Zm0 0"/></clipPath></defs><g clip-path="url(#a)"><path style="fill:none;stroke-width:.3985;stroke-linecap:butt;stroke-linejoin:miter;stroke:#000;stroke-opacity:1;stroke-miterlimit:10" d="M.008.402a9.96 9.96 0 0 0 9.953 9.559 9.965 9.965 0 0 0 8.422-4.637" transform="matrix(1 0 0 -1 3.348 11.668)"/></g><path style="fill:none;stroke-width:.3985;stroke-linecap:round;stroke-linejoin:round;stroke:#000;stroke-opacity:1;stroke-miterlimit:10" d="M-2.07 2.39C-1.695.958-.852.278 0 0c-.852-.277-1.695-.957-2.07-2.39" transform="matrix(0 1 1 0 3.348 11.469)"/><path style="fill:none;stroke-width:.3985;stroke-linecap:round;stroke-linejoin:round;stroke:#000;stroke-opacity:1;stroke-miterlimit:10" d="M-2.072 2.393C-1.692.956-.85.28.002 0-.85-.28-1.692-.957-2.074-2.392" transform="matrix(.5 .86601 .86601 -.5 21.839 6.514)"/><g clip-path="url(#b)"><path style="fill:none;stroke-width:.3985;stroke-linecap:butt;stroke-linejoin:miter;stroke:#000;stroke-opacity:1;stroke-miterlimit:10" d="M28.672.23 42.52 9.961 56.695 0 70.54 9.734" transform="matrix(1 0 0 -1 3.348 11.668)"/></g><path style="fill:none;stroke-width:.3985;stroke-linecap:round;stroke-linejoin:round;stroke:#000;stroke-opacity:1;stroke-miterlimit:10" d="M-2.072 2.389C-1.693.958-.852.28.002 0-.849-.28-1.693-.957-2.07-2.392" transform="matrix(-.81807 .57504 .57504 .81807 31.857 11.553)"/><path style="fill:none;stroke-width:.3985;stroke-linecap:round;stroke-linejoin:round;stroke:#000;stroke-opacity:1;stroke-miterlimit:10" d="M-2.073 2.392C-1.693.955-.85.278 0 0-.85-.277-1.693-.954-2.074-2.392" transform="matrix(.81807 -.57504 -.57504 -.81807 74.052 1.82)"/></svg>