<svg xmlns="http://www.w3.org/2000/svg" width="119.385" height="88.083" viewBox="0 0 89.539 66.062" version="1.2"><defs><clipPath id="a"><path d="M0 0h89.309v65.594H0Zm0 0"/></clipPath></defs><path style="fill:none;stroke-width:.19925;stroke-linecap:butt;stroke-linejoin:miter;stroke:gray;stroke-opacity:1;stroke-miterlimit:10" d="M0 0h85.042M0 28.348h85.043M0 56.683h85.043M0 0v56.695M28.347 0v56.695M56.695 0v56.695M85.03 0v56.695" transform="matrix(1 0 0 -1 1.173 60.91)"/><g clip-path="url(#a)"><path style="fill:none;stroke-width:.79701;stroke-linecap:butt;stroke-linejoin:miter;stroke:#00f;stroke-opacity:1;stroke-miterlimit:10" d="M0 28.348s.437 4.05.605 5.57c.172 1.523.441 3.949.61 5.394.167 1.446.437 3.711.605 5.035a325.7 325.7 0 0 0 .605 4.52c.168 1.164.438 2.902.606 3.867.171.969.441 2.36.609 3.106.168.742.437 1.757.605 2.261.168.504.438 1.118.606 1.375.168.262.437.473.61.485.167.015.437-.16.605-.38.168-.214.437-.753.605-1.179.168-.426.438-1.285.606-1.89.168-.606.441-1.73.61-2.48.167-.75.437-2.079.605-2.93.168-.856.437-2.313.605-3.227.168-.914.438-2.434.606-3.367.171-.93.44-2.442.609-3.348.168-.902.437-2.336.605-3.176.168-.84.438-2.133.606-2.87.168-.74.437-1.845.605-2.454.172-.61.442-1.484.61-1.945.168-.465.437-1.082.605-1.383.168-.3.438-.649.606-.785.168-.133.437-.215.609-.192.168.024.437.196.605.364.168.171.438.566.606.863.168.297.437.879.605 1.277.168.399.442 1.117.61 1.586.168.465.437 1.274.605 1.777.168.5.438 1.34.606 1.844.168.504.437 1.32.605 1.793.172.473.442 1.211.61 1.621.168.41.437 1.024.605 1.348.168.324.438.773.605.988.168.219.438.477.606.574.172.094.441.149.61.114.167-.032.437-.188.605-.344.168-.156.437-.516.605-.79.168-.269.438-.804.61-1.175.168-.37.437-1.05.605-1.496.168-.45.438-1.227.606-1.723.168-.492.437-1.324.605-1.832.168-.507.441-1.34.61-1.828.167-.488.437-1.258.605-1.695a24.62 24.62 0 0 1 .605-1.445c.168-.352.438-.844.606-1.082.172-.235.441-.524.61-.622.167-.101.437-.148.605-.093.168.054.437.27.605.484.168.219.438.703.61 1.086.167.383.437 1.129.605 1.668.168.54.437 1.531.605 2.211.168.676.438 1.883.606 2.676.168.793.437 2.164.61 3.039.167.875.437 2.355.605 3.277.168.926.437 2.45.605 3.38.168.925.438 2.425.606 3.312.168.89.441 2.293.61 3.101.167.809.437 2.04.605 2.723.168.683.437 1.68.605 2.203.168.52.438 1.223.605 1.547.172.324.442.687.61.793a.57.57 0 0 0 .605-.047c.168-.137.438-.547.606-.93.168-.383.437-1.195.61-1.824.167-.625.437-1.832.605-2.688.168-.859.437-2.43.605-3.5.168-1.066.438-2.957.606-4.207.168-1.25.437-3.406.609-4.796.168-1.391.437-3.747.605-5.235.168-1.492.438-3.965.606-5.508.168-1.539.437-4.054.605-5.593.168-1.54.442-4.016.61-5.508.168-1.488.437-3.84.605-5.235.168-1.39.438-3.546.606-4.793.168-1.25.437-3.14.605-4.21.172-1.07.442-2.641.61-3.5a50.84 50.84 0 0 1 .605-2.692c.168-.625.437-1.437.605-1.82.168-.383.438-.793.61-.93a.554.554 0 0 1 .605-.047c.168.102.438.465.606.79.168.324.437 1.03.605 1.55.168.52.438 1.52.61 2.203.168.68.437 1.914.605 2.719.168.809.438 2.21.606 3.102.168.89.437 2.386.605 3.316.168.926.441 2.45.61 3.375.167.922.437 2.402.605 3.277.168.88.437 2.246.605 3.04.168.792.438 2 .606 2.675.172.68.441 1.672.61 2.211.167.54.437 1.29.605 1.668.168.383.437.867.605 1.086.168.219.438.434.61.488.167.055.437.008.605-.093.168-.098.437-.387.605-.625.168-.235.438-.731.606-1.079.168-.351.441-1.011.61-1.445.167-.437.437-1.207.605-1.695.168-.489.437-1.32.605-1.828.168-.508.438-1.34.606-1.832.168-.497.441-1.274.609-1.723.168-.445.438-1.125.605-1.496.168-.371.438-.906.606-1.18.168-.27.437-.629.605-.785.172-.156.442-.313.61-.348.168-.03.437.024.605.118.168.093.438.355.606.57.168.215.437.664.61.988.167.324.437.938.605 1.348.168.414.437 1.148.605 1.62.168.477.438 1.29.606 1.794.168.504.44 1.344.609 1.848.168.5.437 1.308.605 1.777.168.465.438 1.187.606 1.582.168.398.437.98.605 1.277.168.297.442.692.61.863.168.172.437.344.605.368.168.023.438-.059.606-.196.168-.132.437-.48.605-.78.172-.302.442-.923.61-1.384.167-.46.437-1.336.605-1.945.168-.61.437-1.715.605-2.453.168-.738.438-2.035.61-2.871.168-.84.437-2.274.605-3.176.168-.906.438-2.418.606-3.348.168-.93.437-2.449.605-3.367.168-.914.442-2.37.61-3.226.168-.852.437-2.18.605-2.93.168-.75.438-1.871.606-2.48.167-.606.437-1.465.605-1.891.168-.426.441-.965.61-1.184.167-.215.437-.394.605-.379.168.016.437.227.605.485.168.258.438.87.606 1.375.172.507.441 1.52.61 2.261.167.746.437 2.137.605 3.106.168.965.437 2.703.605 3.867.168 1.164.438 3.191.61 4.52.167 1.324.437 3.586.605 5.035.168 1.445.437 3.87.605 5.39.168 1.524.606 5.575.606 5.575" transform="matrix(1 0 0 -1 1.173 60.91)"/></g></svg>