<svg xmlns="http://www.w3.org/2000/svg" width="116.62" height="116.619" viewBox="0 0 87.465 87.464" version="1.2"><defs><clipPath id="a"><path d="M0 0h87.2v87.195H0Zm0 0"/></clipPath></defs><g clip-path="url(#a)"><path style="fill:none;stroke-width:.3985;stroke-linecap:butt;stroke-linejoin:miter;stroke:#000;stroke-opacity:1;stroke-miterlimit:10" d="M70.866 0c0 23.485-19.035 42.52-42.52 42.52-23.484 0-42.52-19.035-42.52-42.52 0-23.484 19.036-42.52 42.52-42.52 23.485 0 42.52 19.036 42.52 42.52Zm0 0" transform="matrix(1 0 0 -1 15.123 43.469)"/></g><path style="stroke:none;fill-rule:nonzero;fill:#000;fill-opacity:1" d="M68.02 29.297c-3.915-6.781-18.079-5.93-31.637 1.898-13.559 7.828-21.375 19.668-17.461 26.446 3.914 6.78 18.074 5.93 31.633-1.899 13.558-7.828 21.379-19.668 17.465-26.445Zm0 0"/></svg>