<svg xmlns="http://www.w3.org/2000/svg" width="116.077" height="21.819" viewBox="0 0 87.058 16.364" version="1.2"><defs><clipPath id="a"><path d="M30 0h26v16.047H30Zm0 0"/></clipPath></defs><g clip-path="url(#a)"><path style="fill:none;stroke-width:.3985;stroke-linecap:butt;stroke-linejoin:miter;stroke:#000;stroke-opacity:1;stroke-miterlimit:10" d="M49.493 0a6.972 6.972 0 0 1-6.972 6.973A6.972 6.972 0 0 1 35.548.001a6.972 6.972 0 0 1 6.973-6.973A6.972 6.972 0 0 1 49.493.001Zm0 0" transform="matrix(1 0 0 -1 .538 7.86)"/></g><path style="fill:none;stroke-width:.3985;stroke-linecap:butt;stroke-linejoin:miter;stroke:#000;stroke-opacity:1;stroke-miterlimit:10" d="M47.403 1.395h-9.765M47.403-1.394h-9.765M.001 0H35.35m14.343 0H85.04" transform="matrix(1 0 0 -1 .538 7.86)"/></svg>