<svg xmlns="http://www.w3.org/2000/svg" width="154.299" height="81.363" viewBox="0 0 115.724 61.022" version="1.2"><defs><clipPath id="a"><path d="M0 0h115.586v60.531H0Zm0 0"/></clipPath><clipPath id="b"><path d="M0 37h27v23.531H0Zm0 0"/></clipPath></defs><path style="fill:none;stroke-width:.19925;stroke-linecap:butt;stroke-linejoin:miter;stroke:gray;stroke-opacity:1;stroke-miterlimit:10" d="M0 0h85.039M-.001 28.346h85.04M-.001 56.683h85.04M-.001-.001v56.696M28.348-.001v56.696M56.695-.001v56.696M85.03-.001v56.696" transform="matrix(1 0 0 -1 29.438 57.304)"/><g clip-path="url(#a)"><path style="fill:none;stroke-width:.99628;stroke-linecap:butt;stroke-linejoin:miter;stroke:#000;stroke-opacity:1;stroke-miterlimit:10" d="m0 0 11.338 5.67" transform="matrix(5 0 0 -5 29.438 57.304)"/></g><g clip-path="url(#b)"><path style="fill:none;stroke-width:.99628;stroke-linecap:butt;stroke-linejoin:miter;stroke:#000;stroke-opacity:1;stroke-miterlimit:10" d="m-.001 0 11.34 5.671" transform="matrix(1 0 0 -1 1.091 57.304)"/></g></svg>