<svg xmlns="http://www.w3.org/2000/svg" width="65.24" height="16.107" viewBox="0 0 48.93 12.08" version="1.2"><defs><clipPath id="a"><path d="M0 0h48.895v11.621H0Zm0 0"/></clipPath><clipPath id="b"><path d="M0 0h11v11.621H0Zm0 0"/></clipPath><clipPath id="c"><path d="M23 0h17v11.621H23Zm0 0"/></clipPath><clipPath id="d"><path d="M38 0h10.895v11H38Zm0 0"/></clipPath></defs><g clip-path="url(#a)"><path style="fill:none;stroke-width:.3985;stroke-linecap:butt;stroke-linejoin:miter;stroke:#bfbfbf;stroke-opacity:1;stroke-miterlimit:10" d="M.002 0 14.174 5.67 28.346 0 42.52 5.669" transform="matrix(1 0 0 -1 3.174 8.411)"/></g><path style="stroke:none;fill-rule:nonzero;fill:#d2c92a;fill-opacity:1" d="M5.168 8.41a1.994 1.994 0 0 0-3.988 0 1.994 1.994 0 0 0 3.988 0ZM1.766 9.82l2.816-2.816m-2.816 0L4.582 9.82"/><g clip-path="url(#b)"><path style="fill:none;stroke-width:.3985;stroke-linecap:butt;stroke-linejoin:miter;stroke:#000;stroke-opacity:1;stroke-miterlimit:10" d="M1.994 0a1.994 1.994 0 0 1-3.988 0 1.994 1.994 0 0 1 3.988 0Zm-3.402-1.41 2.816 2.817m-2.816 0 2.816-2.816" transform="matrix(1 0 0 -1 3.174 8.411)"/></g><path style="fill-rule:nonzero;fill:#d2c92a;fill-opacity:1;stroke-width:.3985;stroke-linecap:butt;stroke-linejoin:miter;stroke:#000;stroke-opacity:1;stroke-miterlimit:10" d="M16.166 5.669a1.99 1.99 0 0 1-1.992 1.992 1.99 1.99 0 0 1-1.993-1.992 1.99 1.99 0 0 1 1.993-1.992 1.99 1.99 0 0 1 1.992 1.992Zm-3.402-1.41 2.82 2.82m-2.82 0 2.82-2.82" transform="matrix(1 0 0 -1 3.174 8.411)"/><path style="stroke:none;fill-rule:nonzero;fill:#d2c92a;fill-opacity:1" d="M33.512 8.41a1.993 1.993 0 1 0-3.983.002 1.993 1.993 0 0 0 3.983-.002Zm-3.399 1.41 2.817-2.816m-2.817 0L32.93 9.82"/><g clip-path="url(#c)"><path style="fill:none;stroke-width:.3985;stroke-linecap:butt;stroke-linejoin:miter;stroke:#000;stroke-opacity:1;stroke-miterlimit:10" d="M30.338 0a1.993 1.993 0 1 1-3.983-.002 1.993 1.993 0 0 1 3.983.003Zm-3.399-1.41 2.817 2.817m-2.817 0 2.817-2.816" transform="matrix(1 0 0 -1 3.174 8.411)"/></g><path style="stroke:none;fill-rule:nonzero;fill:#d2c92a;fill-opacity:1" d="M47.688 2.742a1.993 1.993 0 1 0-3.987.002 1.993 1.993 0 0 0 3.986-.002Zm-3.403 1.41 2.817-2.82m-2.817 0 2.817 2.82"/><g clip-path="url(#d)"><path style="fill:none;stroke-width:.3985;stroke-linecap:butt;stroke-linejoin:miter;stroke:#000;stroke-opacity:1;stroke-miterlimit:10" d="M44.514 5.669a1.993 1.993 0 1 1-3.987-.002 1.993 1.993 0 0 1 3.986.002Zm-3.403-1.41 2.817 2.82m-2.817 0 2.817-2.82" transform="matrix(1 0 0 -1 3.174 8.411)"/></g></svg>