<svg xmlns="http://www.w3.org/2000/svg" xmlns:xlink="http://www.w3.org/1999/xlink" width="116.499" height="78.771" viewBox="0 0 87.374 59.078" version="1.2"><defs><clipPath id="a"><path d="M0 0h87.063v58.617H0Zm0 0"/></clipPath><clipPath id="c"><path d="M0 0h87.063v58.617H0Zm0 0"/></clipPath><symbol overflow="visible" id="b"><path style="stroke:none" d="m4.844-3.234-.266-.391-.578.39-2.484-.734.234-1.719c.047-.187.063-.28.75-.734l-.266-.375-.75.516-.875.562.266.375c.125-.078.234-.125.344-.125.031.063.047.094.015.14l-.171 1.235L-.375-4.5l.328-.234-.266-.375-1 .703-.921.593.265.376.594-.407 2.313.672-.282 1.953c-.031.235-.344.438-.734.703l.266.391.75-.531.859-.547-.266-.39c-.14.109-.312.171-.36.109v-.11l.204-1.437L3-2.562l-.328.218.265.39.985-.702Zm0 0"/></symbol><symbol overflow="visible" id="d"><path style="stroke:none" d="m5.078-2.86-.234-.406-.61.344-2.437-.922.375-1.687c.062-.188.078-.266.797-.672l-.235-.406-.78.468-.907.485.234.406a.912.912 0 0 1 .344-.125c.016.063.031.094 0 .156L1.375-4l-1.422-.5.36-.203-.235-.406-1.047.609-.969.531.235.406.625-.359 2.234.828-.422 1.922c-.046.25-.359.422-.78.656l.233.407.797-.485.891-.469-.234-.406c-.141.094-.329.125-.36.078 0 0-.015-.015.016-.093l.297-1.438 1.593.594-.343.187.234.407L4.11-2.36Zm0 0"/></symbol></defs><g clip-path="url(#a)"><path style="fill:none;stroke-width:.3985;stroke-linecap:butt;stroke-linejoin:miter;stroke:#000;stroke-opacity:1;stroke-miterlimit:10" d="m-.002 0 85.043 56.695" transform="matrix(1 0 0 -1 .904 57.449)"/></g><use xlink:href="#b" x="38.956" y="27.851" style="fill:#000;fill-opacity:1"/><g clip-path="url(#c)"><path style="fill:none;stroke-width:.3985;stroke-linecap:butt;stroke-linejoin:miter;stroke:#000;stroke-opacity:1;stroke-miterlimit:10" d="M-.002 0c0 40.015 45.028 56.695 85.043 56.695" transform="matrix(1 0 0 -1 .904 57.449)"/></g><use xlink:href="#d" x="24.056" y="12.518" style="fill:#000;fill-opacity:1"/></svg>