<svg xmlns="http://www.w3.org/2000/svg" xmlns:xlink="http://www.w3.org/1999/xlink" width="54.723" height="11.955" viewBox="0 0 41.042 8.966" version="1.2"><defs><symbol overflow="visible" id="a"><path style="stroke:none" d="M9.563-1.89c0-.829-.876-1.516-2.376-1.688 1.204-.219 1.97-.781 1.97-1.516 0-.984-1.188-1.75-3.063-1.75H1v.672h1.047v5.5H1V0h5.469c1.968 0 3.093-.86 3.093-1.89ZM7.609-5.079c0 .687-.765 1.234-1.953 1.234H3.438v-2.328h2.53c1.188 0 1.641.578 1.641 1.094Zm.313 3.172c0 .765-.797 1.234-1.922 1.234H3.437v-2.61h2.657c1.484 0 1.828.845 1.828 1.376Zm0 0"/></symbol><symbol overflow="visible" id="b"><path style="stroke:none" d="M6.328-1.094c0-.25-.234-.25-.375-.25h-.078c-.188 0-.266 0-.36.14-.093.188-.374.673-1.421.673-1.266 0-1.938-.5-2.016-1.438h3.875c.203 0 .375 0 .375-.312 0-.578-.219-1.25-.64-1.64-.454-.392-1.047-.626-2.032-.626C1.422-4.547.562-3.313.562-2.25c0 1.047.86 2.328 3.297 2.328.25 0 .938 0 1.532-.234.687-.266.937-.797.937-.938Zm-1-1.375h-3.25c0-.36.031-1.515 1.578-1.515 1.36 0 1.625.843 1.672 1.515Zm0 0"/></symbol><symbol overflow="visible" id="c"><path style="stroke:none" d="M5.625-3.563c0-.578-.578-.937-1.25-.937-.875 0-1.469.61-1.734 1.203h-.016V-4.5l-1.781.078v.656c.625 0 .719 0 .719.391v2.703h-.72V0c.454-.031.907-.047 1.376-.047.547 0 1.125.031 1.484.047v-.672h-.906v-1.297c0-1.078.625-1.906 1.484-1.984-.062.11-.11.172-.11.39 0 .438.329.735.735.735.407 0 .719-.297.719-.735Zm0 0"/></symbol><symbol overflow="visible" id="d"><path style="stroke:none" d="M3.688 0v-.672h-.72v-6.25L1-6.844v.672c.64 0 .719 0 .719.39v5.11H1V0a19.301 19.301 0 0 1 2.688 0Zm0 0"/></symbol><symbol overflow="visible" id="e"><path style="stroke:none" d="M3.625 0v-.672h-.656V-4.5l-1.938.078v.656c.625 0 .688 0 .688.391v2.703H1V0a17.981 17.981 0 0 1 2.625 0Zm-.594-6.016c0-.468-.406-.828-.86-.828a.84.84 0 0 0-.858.828c0 .47.406.829.859.829a.84.84 0 0 0 .86-.829Zm0 0"/></symbol><symbol overflow="visible" id="f"><path style="stroke:none" d="M7.734 0v-.672h-.718v-2.265c0-1.485-1.188-1.563-1.938-1.563-1.344 0-1.984.672-2.234 1.063V-4.5l-1.875.078v.656c.64 0 .719 0 .719.391v2.703h-.72V0L2.36-.047c.36 0 .938.016 1.375.047v-.672h-.718v-1.734c0-1.219 1.218-1.547 1.843-1.547.641 0 .829.265.829.984v2.297h-.72V0L6.36-.047c.375 0 .938.016 1.375.047Zm0 0"/></symbol></defs><g style="fill:#000;fill-opacity:1"><use xlink:href="#a" x="-.451" y="7.87"/><use xlink:href="#b" x="10.08" y="7.87"/><use xlink:href="#c" x="16.974" y="7.87"/><use xlink:href="#d" x="23.17" y="7.87"/><use xlink:href="#e" x="27.514" y="7.87"/><use xlink:href="#f" x="31.858" y="7.87"/></g></svg>