<svg xmlns="http://www.w3.org/2000/svg" xmlns:xlink="http://www.w3.org/1999/xlink" width="486.507" height="209.283" viewBox="0 0 364.88 156.962" version="1.2"><defs><symbol overflow="visible" id="b"><path style="stroke:none" d="M7.203-2.734h-.469C6.516-1.36 6.234-.47 4.391-.47H2.875V-3.28h.547c.969 0 1.062.437 1.062 1.172h.47v-2.813h-.47c0 .75-.093 1.172-1.062 1.172h-.547v-2.563h1.516c1.609 0 1.875.735 2.03 1.938h.47l-.313-2.406H.391v.468h1.078v5.844H.39V0H6.75Zm0 0"/></symbol><symbol overflow="visible" id="c"><path style="stroke:none" d="M2.922 0v-.469h-.688v-6.453L.47-6.844v.469c.625 0 .687 0 .687.39v5.516H.47V0l1.219-.031Zm0 0"/></symbol><symbol overflow="visible" id="d"><path style="stroke:none" d="M2.844 0v-.469h-.61v-4.015L.5-4.406v.468c.594 0 .656 0 .656.391v3.078H.47V0l1.219-.031Zm-.469-6.047a.774.774 0 0 0-.781-.781.784.784 0 0 0-.782.781c0 .422.36.766.782.766a.77.77 0 0 0 .781-.766Zm0 0"/></symbol><symbol overflow="visible" id="e"><path style="stroke:none" d="M5.984-2.219c0-1.328-.906-2.265-2.343-2.265-.75 0-1.282.312-1.5.484v-.484l-1.766.078v.468c.61 0 .688 0 .688.376v5.03H.375v.47l1.25-.032 1.25.032v-.47h-.688V-.39A2.01 2.01 0 0 0 3.47.063c1.5 0 2.515-.907 2.515-2.282Zm-1.28 0C4.703-.813 4-.297 3.358-.297c-.14 0-.609 0-1.062-.547-.11-.125-.11-.14-.11-.328v-2.11c0-.187.016-.202.157-.343.39-.406.922-.469 1.14-.469.657 0 1.22.61 1.22 1.875Zm0 0"/></symbol><symbol overflow="visible" id="f"><path style="stroke:none" d="M4.14-1.39c0-.438-.202-.782-.546-1.063-.39-.281-.719-.344-1.485-.485-.375-.062-1.015-.171-1.015-.64 0-.625.922-.625 1.11-.625.75 0 1.124.297 1.171.844.016.156.031.203.234.203.235 0 .235-.047.235-.281v-.797c0-.188 0-.282-.172-.282-.047 0-.063 0-.453.188-.266-.125-.61-.188-1-.188-.313 0-1.844 0-1.844 1.313 0 .39.203.656.406.828.39.344.781.406 1.547.547.36.062 1.094.187 1.094.781 0 .75-.906.75-1.125.75C1.234-.297.984-1.03.859-1.453c-.046-.14-.109-.14-.234-.14-.25 0-.25.062-.25.28v1.094c0 .188 0 .281.188.281.062 0 .078 0 .296-.156l.25-.172c.47.329.985.329 1.188.329.312 0 1.844 0 1.844-1.454Zm0 0"/></symbol><symbol overflow="visible" id="g"><path style="stroke:none" d="M4.922-1.172c0-.172-.188-.172-.234-.172-.172 0-.188.047-.25.203-.204.485-.782.797-1.422.797-1.407 0-1.422-1.328-1.422-1.828h3.015c.22 0 .313 0 .313-.265 0-.313-.063-1.047-.563-1.547-.359-.36-.89-.532-1.578-.532C1.187-4.516.312-3.484.312-2.25c0 1.344 1 2.313 2.61 2.313 1.578 0 2-1.063 2-1.235ZM3.984-2.5h-2.39c.015-.39.031-.813.234-1.14.266-.391.672-.516.953-.516 1.172 0 1.188 1.312 1.203 1.656Zm0 0"/></symbol><symbol overflow="visible" id="h"><path style="stroke:none" d="M3.078.313c0-.126-.047-.157-.187-.25C2.062-.5 1.75-1.391 1.75-2.126c0-.672.25-1.594 1.156-2.203.125-.094.172-.125.172-.25a.254.254 0 0 0-.265-.25c-.204 0-1.641.906-1.641 2.703 0 .813.312 1.438.562 1.781.375.516.907.906 1.079.906.218 0 .265-.171.265-.25Zm0 0"/></symbol><symbol overflow="visible" id="i"><path style="stroke:none" d="M3.219-.906c0-.735-.906-.906-1.14-.938l-.704-.125C1.187-2 1-2.079 1-2.25c0-.156.219-.328.813-.328.515 0 .609.172.625.328.015.14.03.281.28.281.298 0 .298-.156.298-.328v-.469c0-.14-.016-.328-.25-.328-.157 0-.22.063-.25.125-.282-.125-.563-.125-.688-.125-1.187 0-1.344.594-1.344.844 0 .656.735.797 1.391.89.297.063.828.141.828.454 0 .234-.25.422-.828.422-.297 0-.656-.063-.813-.563-.03-.156-.078-.234-.28-.234-.298 0-.298.172-.298.328v.656c0 .14 0 .344.25.344.079 0 .188 0 .282-.234.328.218.671.234.859.234 1.125 0 1.344-.61 1.344-.953Zm0 0"/></symbol><symbol overflow="visible" id="j"><path style="stroke:none" d="M2.313-.469a.477.477 0 0 0-.485-.484.47.47 0 0 0-.469.469c0 .28.22.484.47.484a.473.473 0 0 0 .484-.469Zm0 0"/></symbol><symbol overflow="visible" id="k"><path style="stroke:none" d="M3.578-.266c0-.25-.203-.25-.328-.25H3v-1.53c0-.72-.36-1.032-.938-1.032-.39 0-.671.172-.843.297 0-.172-.047-.25-.313-.25h-.5c-.14 0-.328 0-.328.25 0 .265.203.265.313.265h.25v2H.406c-.14 0-.328 0-.328.25C.078 0 .281 0 .391 0h1.093c.11 0 .329 0 .329-.266 0-.25-.204-.25-.344-.25h-.25v-1.156c0-.64.484-.875.797-.875.328 0 .406.172.406.547v1.484h-.203c-.14 0-.344 0-.344.25 0 .266.219.266.344.266H3.25c.11 0 .328 0 .328-.266Zm0 0"/></symbol><symbol overflow="visible" id="l"><path style="stroke:none" d="M3.281-1.516c0-.89-.672-1.578-1.453-1.578-.797 0-1.453.688-1.453 1.578 0 .891.672 1.563 1.453 1.563.766 0 1.453-.688 1.453-1.563Zm-.578-.046c0 .593-.406 1.078-.875 1.078S.953-.97.953-1.563c0-.593.422-1.015.875-1.015s.875.422.875 1.015Zm0 0"/></symbol><symbol overflow="visible" id="m"><path style="stroke:none" d="M3.406-2.594c0-.156-.078-.484-.703-.484-.328 0-.734.11-1.094.469v-.094c0-.25-.046-.328-.328-.328h-.75c-.125 0-.328 0-.328.25 0 .265.203.265.328.265h.5v2h-.5c-.125 0-.328 0-.328.25C.203 0 .406 0 .531 0h1.781c.126 0 .329 0 .329-.266 0-.25-.204-.25-.329-.25H1.61v-.796c0-.61.36-1.22 1.11-1.235 0 .156.172.281.344.281.187 0 .343-.125.343-.328Zm0 0"/></symbol><symbol overflow="visible" id="n"><path style="stroke:none" d="M3.14-.906c0-.156 0-.313-.296-.313-.266 0-.266.157-.266.297-.015.375-.36.438-.515.438-.454 0-.454-.313-.454-.47v-1.562h1.047c.125 0 .328 0 .328-.265 0-.25-.187-.25-.328-.25H1.61v-.516c0-.14-.015-.328-.296-.328-.282 0-.282.172-.282.328v.516H.484c-.125 0-.328 0-.328.25 0 .265.203.265.328.265h.547v1.61c0 .687.485.953 1.016.953S3.14-.266 3.14-.906Zm0 0"/></symbol><symbol overflow="visible" id="o"><path style="stroke:none" d="M3.578-.266c0-.25-.203-.25-.328-.25H3v-1.53c0-.72-.36-1.032-.938-1.032-.39 0-.671.172-.843.297v-1.14c0-.25-.047-.345-.313-.345h-.5c-.14 0-.328.016-.328.266s.203.266.313.266h.25v3.218H.406c-.14 0-.328 0-.328.25C.078 0 .281 0 .391 0h1.093c.11 0 .329 0 .329-.266 0-.25-.204-.25-.344-.25h-.25v-1.156c0-.64.484-.875.797-.875.328 0 .406.172.406.547v1.484h-.203c-.14 0-.344 0-.344.25 0 .266.219.266.344.266H3.25c.11 0 .328 0 .328-.266Zm0 0"/></symbol><symbol overflow="visible" id="p"><path style="stroke:none" d="M3.547-2.781c0-.25-.188-.25-.328-.25h-.781c-.157 0-.344 0-.344.25 0 .265.172.265.344.265h.265l-.297 1.72-.14-.532c-.125-.469-.172-.547-.422-.547-.094 0-.235 0-.328.188l-.266.906-.297-1.735h.266c.156 0 .343 0 .343-.265 0-.25-.187-.25-.343-.25H.437c-.14 0-.343 0-.343.25 0 .234.14.265.36.265L.858-.28c.032.187.047.312.36.312.312 0 .343-.062.453-.515l.172-.641.265 1c.094.14.235.156.344.156.281 0 .313-.125.344-.312l.406-2.235c.219 0 .344-.03.344-.265Zm0 0"/></symbol><symbol overflow="visible" id="q"><path style="stroke:none" d="M3.25-.797c0-.234-.234-.234-.281-.234-.156 0-.219.015-.281.172-.141.328-.485.375-.657.375-.469 0-.937-.297-1.062-.813h1.953c.172 0 .328 0 .328-.312 0-.797-.453-1.485-1.375-1.485-.828 0-1.516.703-1.516 1.563S1.08.047 1.984.047c.938 0 1.266-.656 1.266-.844Zm-.594-1.015H.97c.125-.438.484-.766.906-.766.328 0 .703.156.781.765Zm0 0"/></symbol><symbol overflow="visible" id="r"><path style="stroke:none" d="M2.484-2.125c0-.828-.312-1.453-.562-1.797-.375-.515-.906-.906-1.078-.906-.203 0-.266.187-.266.25 0 .125.094.187.14.219 1.095.718 1.188 1.796 1.188 2.234 0 .656-.25 1.578-1.14 2.188C.64.14.578.186.578.313c0 .078.063.25.266.25s1.64-.907 1.64-2.688Zm0 0"/></symbol><symbol overflow="visible" id="s"><path style="stroke:none" d="M3.625-.266c0-.25-.203-.25-.328-.25-.203 0-.297-.03-.344-.046V-2c0-.5-.375-1.094-1.406-1.094-.313 0-1.031.016-1.031.547 0 .235.171.36.359.36.11 0 .344-.063.344-.36 0 0 .234-.031.343-.031.454 0 .782.187.813.594-1.219.03-2.047.39-2.047 1.062 0 .485.453.969 1.188.969.234 0 .656-.047.968-.25.172.187.485.203.75.203.235 0 .391-.016.391-.266ZM2.359-.969c0 .14 0 .266-.234.375-.234.11-.516.11-.578.11-.39 0-.64-.204-.64-.438 0-.312.546-.515 1.452-.562Zm0 0"/></symbol><symbol overflow="visible" id="t"><path style="stroke:none" d="M3.266-.797c0-.234-.235-.234-.297-.234-.125 0-.203 0-.266.172-.047.078-.187.375-.625.375a1.027 1.027 0 0 1-1.015-1.032c0-.312.187-1.062 1.062-1.062l.344.015c.015.282.172.376.36.376.187 0 .358-.126.358-.36 0-.531-.734-.547-1.062-.547-1.219 0-1.64.953-1.64 1.578 0 .844.671 1.563 1.546 1.563 1 0 1.235-.719 1.235-.844Zm0 0"/></symbol><symbol overflow="visible" id="u"><path style="stroke:none" d="M3.64-.266c0-.218-.14-.25-.39-.25v-1.593c0-.157-.016-.97-.656-.97a.842.842 0 0 0-.656.313.61.61 0 0 0-.532-.312.875.875 0 0 0-.547.203c-.046-.156-.187-.156-.312-.156H.328c-.125 0-.328 0-.328.25 0 .234.125.265.39.265v2c-.265 0-.39.032-.39.25C0 0 .219 0 .328 0h.594c.125 0 .312 0 .312-.266 0-.218-.109-.25-.359-.25v-1.171c0-.563.234-.86.5-.86.14 0 .203.11.203.5v1.531c-.156 0-.281.032-.281.25 0 .266.187.266.312.266h.516c.125 0 .313 0 .313-.266 0-.218-.126-.25-.376-.25v-1.171c0-.563.25-.86.5-.86.141 0 .204.11.204.5v1.531c-.141 0-.282.032-.282.25 0 .266.204.266.313.266h.5c.125 0 .344 0 .344-.266Zm0 0"/></symbol><symbol overflow="visible" id="v"><path style="stroke:none" d="M3.188-.266c0-.25-.204-.25-.329-.25h-.656v-2.187c0-.25-.047-.328-.328-.328H.906c-.125 0-.328 0-.328.25 0 .265.203.265.328.265h.719v2H.859c-.14 0-.343 0-.343.25C.516 0 .734 0 .859 0h2c.125 0 .329 0 .329-.266Zm-.954-3.562a.39.39 0 0 0-.406-.39.387.387 0 0 0-.39.39c0 .219.171.39.39.39a.39.39 0 0 0 .406-.39Zm0 0"/></symbol><symbol overflow="visible" id="w"><path style="stroke:none" d="M3.578-.266c0-.25-.203-.25-.328-.25H3v-3.406c0-.25-.047-.344-.328-.344h-.485c-.14 0-.343.016-.343.266s.218.266.328.266h.25v.906a1.261 1.261 0 0 0-.735-.25c-.765 0-1.453.672-1.453 1.562C.234-.64.875.047 1.625.047c.344 0 .61-.14.797-.313.015.188.062.266.328.266h.5c.125 0 .328 0 .328-.266ZM2.422-1.375c0 .36-.297.89-.781.89-.454 0-.829-.453-.829-1.03 0-.61.438-1.032.891-1.032.406 0 .719.344.719.688Zm0 0"/></symbol><symbol overflow="visible" id="x"><path style="stroke:none" d="M3.422-1.516c0-.875-.64-1.562-1.39-1.562-.298 0-.579.11-.813.265v-1.109c0-.25-.047-.344-.313-.344h-.5c-.14 0-.344.016-.344.266s.22.266.329.266h.25v3.406C.64-.172.656 0 .937 0c.22 0 .282-.094.282-.234.265.218.531.28.734.28.766 0 1.469-.671 1.469-1.562Zm-.578 0c0 .61-.453 1.032-.906 1.032-.485 0-.704-.563-.704-.875v-.485c0-.375.375-.703.766-.703.469 0 .844.469.844 1.031Zm0 0"/></symbol><symbol overflow="visible" id="y"><path style="stroke:none" d="M3.578-.266c0-.25-.219-.25-.328-.25H3v-2.187c0-.25-.047-.328-.328-.328h-.485c-.14 0-.343 0-.343.25 0 .265.218.265.328.265h.25v1.391c0 .563-.516.64-.719.64-.469 0-.484-.187-.484-.39v-1.828c0-.25-.047-.328-.313-.328h-.5c-.14 0-.328 0-.328.25 0 .265.203.265.313.265h.25v1.688c0 .687.5.875 1.03.875.266 0 .516-.063.766-.219C2.485 0 2.626 0 2.75 0h.5c.125 0 .328 0 .328-.266Zm0 0"/></symbol><symbol overflow="visible" id="z"><path style="stroke:none" d="M3.469-.266c0-.25-.203-.25-.328-.25h-.25l-.829-1.046.735-.954h.234c.125 0 .344 0 .344-.265 0-.25-.219-.25-.344-.25H2.25c-.125 0-.328 0-.328.25 0 .203.11.265.281.265l-.39.547-.422-.547c.156 0 .28-.062.28-.265 0-.25-.202-.25-.327-.25H.547c-.125 0-.328 0-.328.25 0 .265.218.265.328.265h.25l.75.954L.75-.516H.516c-.125 0-.344 0-.344.25C.172 0 .39 0 .516 0h.78c.126 0 .329 0 .329-.266 0-.203-.11-.25-.297-.25l.484-.703.5.703c-.187 0-.296.047-.296.25 0 .266.203.266.328.266h.797c.109 0 .328 0 .328-.266Zm0 0"/></symbol><symbol overflow="visible" id="A"><path style="stroke:none" d="M3.094-.266c0-.25-.188-.25-.313-.25H2.22V-4c0-.125-.016-.328-.266-.328-.156 0-.219.094-.25.187-.234.547-.578.625-.687.641-.141 0-.313.031-.313.266 0 .203.156.25.281.25.125 0 .375-.032.657-.235v2.703h-.563c-.14 0-.328 0-.328.25C.75 0 .953 0 1.078 0h1.703c.125 0 .313 0 .313-.266Zm0 0"/></symbol><symbol overflow="visible" id="B"><path style="stroke:none" d="M3.313-2.125c0-1.297-.72-2.203-1.485-2.203-.781 0-1.5.922-1.5 2.203 0 1.297.734 2.203 1.5 2.203.781 0 1.484-.922 1.484-2.203Zm-.563-.078c0 .969-.422 1.75-.922 1.75-.516 0-.922-.781-.922-1.75 0-.953.438-1.61.922-1.61.469 0 .922.657.922 1.61Zm0 0"/></symbol><symbol overflow="visible" id="C"><path style="stroke:none" d="M3.36-1.234c0-.47-.297-.875-.72-1.094.344-.25.516-.64.516-1 0-.516-.515-1-1.328-1-.86 0-1.344.36-1.344.844 0 .265.204.375.36.375.172 0 .36-.141.36-.36 0-.078-.032-.14-.048-.172.203-.171.625-.171.688-.171.422 0 .734.218.734.5a.718.718 0 0 1-.25.546c-.219.172-.375.188-.61.188-.437 0-.546.062-.546.281 0 .266.203.266.328.266h.313c.64 0 .968.422.968.797 0 .39-.36.78-.937.78-.25 0-.719-.062-.907-.327A.364.364 0 0 0 1-1a.363.363 0 0 0-.36-.36c-.171 0-.343.126-.343.391C.297-.344.969.078 1.844.078c.922 0 1.515-.656 1.515-1.312Zm0 0"/></symbol><clipPath id="a"><path d="M0 0h364.82v156.941H0Zm0 0"/></clipPath></defs><path style="stroke:none;fill-rule:nonzero;fill:#fffbb3;fill-opacity:1" d="M306.793 78.46c0-33.964-55.7-61.5-124.406-61.5-68.711 0-124.407 27.536-124.407 61.5 0 33.966 55.696 61.5 124.407 61.5 68.707 0 124.406-27.534 124.406-61.5Zm0 0"/><g clip-path="url(#a)"><path style="fill:none;stroke-width:14.17339;stroke-linecap:butt;stroke-linejoin:miter;stroke:#b2b2b2;stroke-opacity:1;stroke-miterlimit:10" d="M124.407 0c0 33.964-55.7 61.5-124.406 61.5-68.711 0-124.407-27.536-124.407-61.5 0-33.966 55.696-61.5 124.407-61.5 68.707 0 124.406 27.534 124.406 61.5Zm0 0" transform="matrix(1 0 0 -1 182.386 78.46)"/></g><g style="fill:#b2b2b2;fill-opacity:1"><use xlink:href="#b" x="165.285" y="105.84"/><use xlink:href="#c" x="172.817" y="105.84"/><use xlink:href="#c" x="175.995" y="105.84"/><use xlink:href="#d" x="179.173" y="105.84"/><use xlink:href="#e" x="182.351" y="105.84"/><use xlink:href="#f" x="188.717" y="105.84"/><use xlink:href="#g" x="193.24" y="105.84"/></g><path style="fill:none;stroke-width:.996;stroke-linecap:butt;stroke-linejoin:miter;stroke:#b2b2b2;stroke-opacity:1;stroke-miterlimit:10" d="M0 0v58.625" transform="matrix(1 0 0 -1 198.988 107.773)"/><path style="fill:none;stroke-width:.3985;stroke-linecap:butt;stroke-linejoin:miter;stroke:#000;stroke-opacity:1;stroke-miterlimit:10" d="m-94.39 47.089 2.82 2.816m-2.82 0 2.82-2.816" transform="matrix(1 0 0 -1 182.386 78.46)"/><g style="fill:#000;fill-opacity:1"><use xlink:href="#h" x="34.63" y="25.886"/><use xlink:href="#i" x="38.291" y="25.886"/><use xlink:href="#j" x="41.953" y="25.886"/><use xlink:href="#k" x="45.614" y="25.886"/><use xlink:href="#l" x="49.275" y="25.886"/><use xlink:href="#m" x="52.936" y="25.886"/><use xlink:href="#n" x="56.598" y="25.886"/><use xlink:href="#o" x="60.259" y="25.886"/></g><g style="fill:#000;fill-opacity:1"><use xlink:href="#p" x="67.581" y="25.886"/><use xlink:href="#q" x="71.243" y="25.886"/><use xlink:href="#i" x="74.904" y="25.886"/><use xlink:href="#n" x="78.565" y="25.886"/><use xlink:href="#r" x="82.227" y="25.886"/></g><path style="fill:none;stroke-width:.3985;stroke-linecap:butt;stroke-linejoin:miter;stroke:#000;stroke-opacity:1;stroke-miterlimit:10" d="m-1.41 67.179 2.82 2.816m-2.82 0 2.82-2.816" transform="matrix(1 0 0 -1 182.386 78.46)"/><g style="fill:#000;fill-opacity:1"><use xlink:href="#h" x="165.91" y="5.797"/><use xlink:href="#i" x="169.571" y="5.797"/><use xlink:href="#j" x="173.233" y="5.797"/><use xlink:href="#k" x="176.894" y="5.797"/><use xlink:href="#l" x="180.555" y="5.797"/><use xlink:href="#m" x="184.216" y="5.797"/><use xlink:href="#n" x="187.878" y="5.797"/><use xlink:href="#o" x="191.539" y="5.797"/><use xlink:href="#r" x="195.2" y="5.797"/></g><path style="fill:none;stroke-width:.3985;stroke-linecap:butt;stroke-linejoin:miter;stroke:#000;stroke-opacity:1;stroke-miterlimit:10" d="m91.571 47.089 2.816 2.816m-2.816 0 2.816-2.816" transform="matrix(1 0 0 -1 182.386 78.46)"/><g style="fill:#000;fill-opacity:1"><use xlink:href="#h" x="278.884" y="25.886"/><use xlink:href="#i" x="282.545" y="25.886"/><use xlink:href="#j" x="286.207" y="25.886"/><use xlink:href="#k" x="289.868" y="25.886"/><use xlink:href="#l" x="293.529" y="25.886"/><use xlink:href="#m" x="297.19" y="25.886"/><use xlink:href="#n" x="300.852" y="25.886"/><use xlink:href="#o" x="304.513" y="25.886"/></g><g style="fill:#000;fill-opacity:1"><use xlink:href="#q" x="311.828" y="25.886"/><use xlink:href="#s" x="315.49" y="25.886"/><use xlink:href="#i" x="319.151" y="25.886"/><use xlink:href="#n" x="322.812" y="25.886"/><use xlink:href="#r" x="326.474" y="25.886"/></g><path style="fill:none;stroke-width:.3985;stroke-linecap:butt;stroke-linejoin:miter;stroke:#000;stroke-opacity:1;stroke-miterlimit:10" d="m-132.902-1.407 2.817 2.816m-2.817 0 2.817-2.816" transform="matrix(1 0 0 -1 182.386 78.46)"/><g style="fill:#000;fill-opacity:1"><use xlink:href="#h" x="18.085" y="80.594"/><use xlink:href="#i" x="21.746" y="80.594"/><use xlink:href="#j" x="25.408" y="80.594"/><use xlink:href="#p" x="29.069" y="80.594"/><use xlink:href="#q" x="32.73" y="80.594"/><use xlink:href="#i" x="36.391" y="80.594"/><use xlink:href="#n" x="40.053" y="80.594"/><use xlink:href="#r" x="43.714" y="80.594"/></g><path style="fill:none;stroke-width:.3985;stroke-linecap:butt;stroke-linejoin:miter;stroke:#000;stroke-opacity:1;stroke-miterlimit:10" d="m-1.41-1.407 2.82 2.816m-2.82 0 2.82-2.816" transform="matrix(1 0 0 -1 182.386 78.46)"/><g style="fill:#000;fill-opacity:1"><use xlink:href="#h" x="164.079" y="74.383"/><use xlink:href="#i" x="167.74" y="74.383"/><use xlink:href="#j" x="171.402" y="74.383"/><use xlink:href="#t" x="175.063" y="74.383"/><use xlink:href="#q" x="178.724" y="74.383"/><use xlink:href="#k" x="182.385" y="74.383"/><use xlink:href="#n" x="186.047" y="74.383"/><use xlink:href="#q" x="189.708" y="74.383"/><use xlink:href="#m" x="193.369" y="74.383"/><use xlink:href="#r" x="197.03" y="74.383"/></g><path style="fill:none;stroke-width:.3985;stroke-linecap:butt;stroke-linejoin:miter;stroke:#000;stroke-opacity:1;stroke-miterlimit:10" d="m130.083-1.407 2.82 2.816m-2.82 0 2.82-2.816" transform="matrix(1 0 0 -1 182.386 78.46)"/><g style="fill:#000;fill-opacity:1"><use xlink:href="#h" x="317.396" y="80.594"/><use xlink:href="#i" x="321.057" y="80.594"/><use xlink:href="#j" x="324.719" y="80.594"/><use xlink:href="#q" x="328.38" y="80.594"/><use xlink:href="#s" x="332.041" y="80.594"/><use xlink:href="#i" x="335.702" y="80.594"/><use xlink:href="#n" x="339.364" y="80.594"/><use xlink:href="#r" x="343.025" y="80.594"/></g><path style="fill:none;stroke-width:.3985;stroke-linecap:butt;stroke-linejoin:miter;stroke:#000;stroke-opacity:1;stroke-miterlimit:10" d="m-132.902-26.58 2.817 2.821m-2.817 0 2.817-2.82" transform="matrix(1 0 0 -1 182.386 78.46)"/><g style="fill:#000;fill-opacity:1"><use xlink:href="#h" x="54.415" y="105.763"/><use xlink:href="#i" x="58.076" y="105.763"/><use xlink:href="#j" x="61.738" y="105.763"/><use xlink:href="#u" x="65.399" y="105.763"/><use xlink:href="#v" x="69.06" y="105.763"/><use xlink:href="#w" x="72.721" y="105.763"/></g><g style="fill:#000;fill-opacity:1"><use xlink:href="#p" x="80.037" y="105.763"/><use xlink:href="#q" x="83.698" y="105.763"/><use xlink:href="#i" x="87.359" y="105.763"/><use xlink:href="#n" x="91.021" y="105.763"/><use xlink:href="#r" x="94.682" y="105.763"/></g><path style="fill:none;stroke-width:.3985;stroke-linecap:butt;stroke-linejoin:miter;stroke:#000;stroke-opacity:1;stroke-miterlimit:10" d="m-1.41-26.58 2.82 2.821m-2.82 0 2.82-2.82" transform="matrix(1 0 0 -1 182.386 78.46)"/><g style="fill:#000;fill-opacity:1"><use xlink:href="#h" x="169.571" y="99.551"/><use xlink:href="#i" x="173.232" y="99.551"/><use xlink:href="#j" x="176.894" y="99.551"/><use xlink:href="#u" x="180.555" y="99.551"/><use xlink:href="#v" x="184.216" y="99.551"/><use xlink:href="#w" x="187.877" y="99.551"/><use xlink:href="#r" x="191.539" y="99.551"/></g><path style="fill:none;stroke-width:.3985;stroke-linecap:butt;stroke-linejoin:miter;stroke:#000;stroke-opacity:1;stroke-miterlimit:10" d="m130.083-26.58 2.82 2.821m-2.82 0 2.82-2.82" transform="matrix(1 0 0 -1 182.386 78.46)"/><g style="fill:#000;fill-opacity:1"><use xlink:href="#h" x="266.421" y="105.763"/><use xlink:href="#i" x="270.082" y="105.763"/><use xlink:href="#j" x="273.744" y="105.763"/><use xlink:href="#u" x="277.405" y="105.763"/><use xlink:href="#v" x="281.066" y="105.763"/><use xlink:href="#w" x="284.727" y="105.763"/></g><g style="fill:#000;fill-opacity:1"><use xlink:href="#q" x="292.05" y="105.763"/><use xlink:href="#s" x="295.711" y="105.763"/><use xlink:href="#i" x="299.372" y="105.763"/><use xlink:href="#n" x="303.034" y="105.763"/><use xlink:href="#r" x="306.695" y="105.763"/></g><path style="fill:none;stroke-width:.3985;stroke-linecap:butt;stroke-linejoin:miter;stroke:#000;stroke-opacity:1;stroke-miterlimit:10" d="m-132.902-28.79 2.817 2.82m-2.817 0 2.817-2.82" transform="matrix(1 0 0 -1 182.386 78.46)"/><g style="fill:#000;fill-opacity:1"><use xlink:href="#h" x="-.221" y="107.974"/><use xlink:href="#i" x="3.44" y="107.974"/><use xlink:href="#j" x="7.102" y="107.974"/><use xlink:href="#x" x="10.763" y="107.974"/><use xlink:href="#s" x="14.424" y="107.974"/><use xlink:href="#i" x="18.085" y="107.974"/><use xlink:href="#q" x="21.747" y="107.974"/></g><g style="fill:#000;fill-opacity:1"><use xlink:href="#p" x="29.062" y="107.974"/><use xlink:href="#q" x="32.723" y="107.974"/><use xlink:href="#i" x="36.385" y="107.974"/><use xlink:href="#n" x="40.046" y="107.974"/><use xlink:href="#r" x="43.707" y="107.974"/></g><path style="fill:none;stroke-width:.3985;stroke-linecap:butt;stroke-linejoin:miter;stroke:#000;stroke-opacity:1;stroke-miterlimit:10" d="m-1.41-28.79 2.82 2.82m-2.82 0 2.82-2.82" transform="matrix(1 0 0 -1 182.386 78.46)"/><g style="fill:#000;fill-opacity:1"><use xlink:href="#h" x="167.741" y="114.186"/><use xlink:href="#i" x="171.402" y="114.186"/><use xlink:href="#j" x="175.064" y="114.186"/><use xlink:href="#x" x="178.725" y="114.186"/><use xlink:href="#s" x="182.386" y="114.186"/><use xlink:href="#i" x="186.047" y="114.186"/><use xlink:href="#q" x="189.709" y="114.186"/><use xlink:href="#r" x="193.37" y="114.186"/></g><path style="fill:none;stroke-width:.3985;stroke-linecap:butt;stroke-linejoin:miter;stroke:#000;stroke-opacity:1;stroke-miterlimit:10" d="m130.083-28.79 2.82 2.82m-2.82 0 2.82-2.82" transform="matrix(1 0 0 -1 182.386 78.46)"/><g style="fill:#000;fill-opacity:1"><use xlink:href="#h" x="317.396" y="107.974"/><use xlink:href="#i" x="321.057" y="107.974"/><use xlink:href="#j" x="324.719" y="107.974"/><use xlink:href="#x" x="328.38" y="107.974"/><use xlink:href="#s" x="332.041" y="107.974"/><use xlink:href="#i" x="335.702" y="107.974"/><use xlink:href="#q" x="339.364" y="107.974"/></g><g style="fill:#000;fill-opacity:1"><use xlink:href="#q" x="346.686" y="107.974"/><use xlink:href="#s" x="350.347" y="107.974"/><use xlink:href="#i" x="354.009" y="107.974"/><use xlink:href="#n" x="357.67" y="107.974"/><use xlink:href="#r" x="361.331" y="107.974"/></g><path style="fill:none;stroke-width:.3985;stroke-linecap:butt;stroke-linejoin:miter;stroke:#000;stroke-opacity:1;stroke-miterlimit:10" d="m-94.39-49.907 2.82 2.82m-2.82 0 2.82-2.82" transform="matrix(1 0 0 -1 182.386 78.46)"/><g style="fill:#000;fill-opacity:1"><use xlink:href="#h" x="34.63" y="135.303"/><use xlink:href="#i" x="38.291" y="135.303"/><use xlink:href="#j" x="41.953" y="135.303"/><use xlink:href="#i" x="45.614" y="135.303"/><use xlink:href="#l" x="49.275" y="135.303"/><use xlink:href="#y" x="52.936" y="135.303"/><use xlink:href="#n" x="56.598" y="135.303"/><use xlink:href="#o" x="60.259" y="135.303"/></g><g style="fill:#000;fill-opacity:1"><use xlink:href="#p" x="67.581" y="135.303"/><use xlink:href="#q" x="71.243" y="135.303"/><use xlink:href="#i" x="74.904" y="135.303"/><use xlink:href="#n" x="78.565" y="135.303"/><use xlink:href="#r" x="82.227" y="135.303"/></g><path style="fill:none;stroke-width:.3985;stroke-linecap:butt;stroke-linejoin:miter;stroke:#000;stroke-opacity:1;stroke-miterlimit:10" d="m-1.41-69.993 2.82 2.816m-2.82 0 2.82-2.816" transform="matrix(1 0 0 -1 182.386 78.46)"/><g style="fill:#000;fill-opacity:1"><use xlink:href="#h" x="165.91" y="155.391"/><use xlink:href="#i" x="169.571" y="155.391"/><use xlink:href="#j" x="173.233" y="155.391"/><use xlink:href="#i" x="176.894" y="155.391"/><use xlink:href="#l" x="180.555" y="155.391"/><use xlink:href="#y" x="184.216" y="155.391"/><use xlink:href="#n" x="187.878" y="155.391"/><use xlink:href="#o" x="191.539" y="155.391"/><use xlink:href="#r" x="195.2" y="155.391"/></g><path style="fill:none;stroke-width:.3985;stroke-linecap:butt;stroke-linejoin:miter;stroke:#000;stroke-opacity:1;stroke-miterlimit:10" d="m91.571-49.907 2.816 2.82m-2.816 0 2.816-2.82" transform="matrix(1 0 0 -1 182.386 78.46)"/><g style="fill:#000;fill-opacity:1"><use xlink:href="#h" x="278.884" y="135.303"/><use xlink:href="#i" x="282.545" y="135.303"/><use xlink:href="#j" x="286.207" y="135.303"/><use xlink:href="#i" x="289.868" y="135.303"/><use xlink:href="#l" x="293.529" y="135.303"/><use xlink:href="#y" x="297.19" y="135.303"/><use xlink:href="#n" x="300.852" y="135.303"/><use xlink:href="#o" x="304.513" y="135.303"/></g><g style="fill:#000;fill-opacity:1"><use xlink:href="#q" x="311.828" y="135.303"/><use xlink:href="#s" x="315.49" y="135.303"/><use xlink:href="#i" x="319.151" y="135.303"/><use xlink:href="#n" x="322.812" y="135.303"/><use xlink:href="#r" x="326.474" y="135.303"/></g><path style="fill:none;stroke-width:.3985;stroke-linecap:butt;stroke-linejoin:miter;stroke:#000;stroke-opacity:1;stroke-miterlimit:10" d="m-18.511-28.79 2.82 2.82m-2.82 0 2.82-2.82" transform="matrix(1 0 0 -1 182.386 78.46)"/><g style="fill:#000;fill-opacity:1"><use xlink:href="#h" x="132.475" y="107.974"/><use xlink:href="#i" x="136.136" y="107.974"/><use xlink:href="#j" x="139.798" y="107.974"/><use xlink:href="#n" x="143.459" y="107.974"/><use xlink:href="#q" x="147.12" y="107.974"/><use xlink:href="#z" x="150.781" y="107.974"/><use xlink:href="#n" x="154.443" y="107.974"/><use xlink:href="#r" x="158.104" y="107.974"/></g><path style="fill:none;stroke-width:.3985;stroke-linecap:butt;stroke-linejoin:miter;stroke:#000;stroke-opacity:1;stroke-miterlimit:10" d="m123.157 20.554 2.816 2.816m-2.816 0 2.816-2.816" transform="matrix(1 0 0 -1 182.386 78.46)"/><g style="fill:#000;fill-opacity:1"><use xlink:href="#h" x="310.468" y="58.632"/><use xlink:href="#i" x="314.129" y="58.632"/><use xlink:href="#j" x="317.791" y="58.632"/><use xlink:href="#A" x="321.452" y="58.632"/><use xlink:href="#B" x="325.113" y="58.632"/><use xlink:href="#r" x="328.774" y="58.632"/></g><path style="fill:none;stroke-width:.3985;stroke-linecap:butt;stroke-linejoin:miter;stroke:#000;stroke-opacity:1;stroke-miterlimit:10" d="m-54.128 61.42 2.82 2.817m-2.82 0 2.82-2.816" transform="matrix(1 0 0 -1 182.386 78.46)"/><g style="fill:#000;fill-opacity:1"><use xlink:href="#h" x="116.853" y="11.554"/><use xlink:href="#i" x="120.514" y="11.554"/><use xlink:href="#j" x="124.176" y="11.554"/><use xlink:href="#A" x="127.837" y="11.554"/><use xlink:href="#C" x="131.498" y="11.554"/><use xlink:href="#B" x="135.159" y="11.554"/><use xlink:href="#r" x="138.821" y="11.554"/></g></svg>