<svg xmlns="http://www.w3.org/2000/svg" width="127.695" height="80.523" viewBox="0 0 95.771 60.392" version="1.2"><defs><clipPath id="a"><path d="M15 51h29v9.09H15Zm0 0"/></clipPath><clipPath id="b"><path d="M71 0h24.656v8H71Zm0 0"/></clipPath></defs><path style="fill:none;stroke-width:.19925;stroke-linecap:butt;stroke-linejoin:miter;stroke:gray;stroke-opacity:1;stroke-miterlimit:10" d="M.002-.002H85.04M0 28.346h85.04M0 56.682h85.04M0-.002v56.696M28.346-.002v56.696M56.693-.002v56.696M85.029-.002v56.696" transform="matrix(1 0 0 -1 .995 58.85)"/><g clip-path="url(#a)"><path style="fill:none;stroke-width:.3985;stroke-linecap:butt;stroke-linejoin:miter;stroke:#000;stroke-opacity:1;stroke-miterlimit:10" d="M19.841-.002c2.875 1.66 5.633 1.66 8.504 0 2.875 1.66 5.633 1.66 8.504 0" transform="matrix(1 0 0 -1 .995 58.85)"/></g><path style="fill:none;stroke-width:.3985;stroke-linecap:butt;stroke-linejoin:miter;stroke:#000;stroke-opacity:1;stroke-miterlimit:10" d="M48.19 28.346c2.87 1.66 5.632 1.66 8.503 0 2.871 1.66 5.633 1.66 8.504 0" transform="matrix(1 0 0 -1 .995 58.85)"/><g clip-path="url(#b)"><path style="fill:none;stroke-width:.3985;stroke-linecap:butt;stroke-linejoin:miter;stroke:#000;stroke-opacity:1;stroke-miterlimit:10" d="M76.537 56.694c2.87 1.656 5.633 1.656 8.504 0 2.87 1.656 5.632 1.656 8.504 0" transform="matrix(1 0 0 -1 .995 58.85)"/></g></svg>