<svg xmlns="http://www.w3.org/2000/svg" xmlns:xlink="http://www.w3.org/1999/xlink" width="32.401" height="32.403" viewBox="0 0 24.301 24.302" version="1.2"><defs><clipPath id="a"><path d="M0 0h23.953v23.953H0Zm0 0"/></clipPath><clipPath id="c"><path d="M7 0h16.953v16H7Zm0 0"/></clipPath><symbol overflow="visible" id="b"><path style="stroke:none" d="M5.516-.234c0-.235-.125-.235-.266-.235-.61-.015-.61-.14-.61-.375v-2.14c0-.891-.702-1.532-2.187-1.532-.562 0-1.781.047-1.781.922 0 .438.344.625.61.625.312 0 .624-.219.624-.625 0-.297-.187-.469-.218-.5a5.28 5.28 0 0 1 .718-.062c.75 0 1.11.422 1.11 1.172v.343c-.72.032-3.25.125-3.25 1.563C.266-.125 1.5.062 2.187.062c.797 0 1.266-.406 1.485-.828 0 .313 0 .766 1.047.766h.468c.204 0 .329 0 .329-.234Zm-2-1.157c0 .97-.922 1.094-1.172 1.094-.516 0-.906-.344-.906-.797 0-1.062 1.578-1.203 2.078-1.234Zm0 0"/></symbol></defs><g clip-path="url(#a)"><path style="fill:none;stroke-width:.3985;stroke-linecap:butt;stroke-linejoin:miter;stroke:#000;stroke-opacity:1;stroke-miterlimit:10" d="M8.27-.001c0 4.57-3.703 8.27-8.27 8.27a8.27 8.27 0 1 1 8.27-8.27Zm0 0" transform="matrix(1 0 0 -1 9.129 14.483)"/></g><use xlink:href="#b" x="6.343" y="16.709" style="fill:#000;fill-opacity:1"/><g clip-path="url(#c)"><path style="fill:none;stroke-width:.3985;stroke-linecap:butt;stroke-linejoin:miter;stroke:#000;stroke-opacity:1;stroke-miterlimit:10" d="M4.235 7.335c6.844 11.851 14.804 4.53 4.293-2.368" transform="matrix(1 0 0 -1 9.129 14.483)"/></g><path style="fill:none;stroke-width:.3985;stroke-linecap:round;stroke-linejoin:round;stroke:#000;stroke-opacity:1;stroke-miterlimit:10" d="M-2.073 2.39C-1.695.955-.851.28-.001.001c-.848-.282-1.692-.96-2.07-2.393" transform="matrix(-.84555 .53381 .53381 .84555 17.483 9.629)"/></svg>