<svg xmlns="http://www.w3.org/2000/svg" xmlns:xlink="http://www.w3.org/1999/xlink" width="129.471" height="85.659" viewBox="0 0 97.103 64.244" version="1.2"><defs><symbol overflow="visible" id="a"><path style="stroke:none" d="m-5.75-6.516-2.313.672L-6.718.734-4.312.47-4.407 0c-1.14.125-1.953.188-2.235-1.219l-.156-.75 5.688-1.156.312 1.5.453-.094a44.903 44.903 0 0 1-.484-2.187 48.365 48.365 0 0 1-.422-2.188L-1.703-6l.312 1.5-5.687 1.156-.156-.75c-.282-1.39.468-1.656 1.578-1.968Zm0 0"/></symbol><symbol overflow="visible" id="b"><path style="stroke:none" d="m-3.094-5.281-.406.234.344.594-2.219 1.312c-.906.516-.984 1.172-.469 2.032.469.828 1.235.968 1.672.968l-2.922 1.72.953 1.484.407-.235c-.297-.531-.344-.594 0-.781L-.984-.75l.343.594.407-.235-.657-1.062-.609-1.094-.406.235.36.593-1.798 1.047c-.937.563-1.797.047-2.125-.5-.156-.281-.11-.562.563-.953l2.312-1.36.36.594.406-.234-.672-1.063Zm0 0"/></symbol><symbol overflow="visible" id="c"><path style="stroke:none" d="m-1.844-2.156-.36.297.392.453-3.047 2.61 1.187 1.28.344-.296c-.375-.454-.422-.5-.125-.766l2.344-2 .453.515.36-.296-.829-.907ZM-6.14 2.109a.79.79 0 0 0-.078 1.11.756.756 0 0 0 1.094.078c.313-.266.344-.75.078-1.078-.281-.328-.781-.375-1.094-.11Zm0 0"/></symbol><symbol overflow="visible" id="d"><path style="stroke:none" d="M-3.984-1.766c-.297.313-.391.688-.313 1.141.094.469.297.734.766 1.36.219.296.61.812.297 1.171-.422.453-1.094-.172-1.235-.297-.547-.515-.625-.984-.297-1.421.094-.126.125-.172-.03-.297-.173-.157-.204-.125-.36.046l-.532.579c-.14.14-.203.218-.078.328.032.031.047.047.47.172.109.265.312.546.593.812.234.203 1.36 1.25 2.25.281.265-.28.312-.625.265-.89-.046-.516-.296-.828-.765-1.453-.219-.282-.672-.875-.266-1.313.5-.547 1.156.063 1.328.219.782.719.47 1.422.282 1.812-.063.141-.016.188.078.266.172.172.218.125.36-.031l.75-.813c.124-.14.187-.203.046-.328-.031-.047-.047-.062-.313-.094L-1-.546c-.11-.563-.5-.923-.64-1.048-.235-.218-1.36-1.25-2.344-.172Zm0 0"/></symbol><symbol overflow="visible" id="e"><path style="stroke:none" d="m-2.422-1.484-.25.406.516.312-2.094 3.422 1.531.828.235-.39c-.516-.313-.563-.344-.36-.688l1.61-2.61.578.36.25-.406-1.047-.594Zm-2.765 5.406a.752.752 0 0 0 .25 1.062c.359.22.859.125 1.093-.25.219-.359.078-.843-.281-1.062a.762.762 0 0 0-1.063.25Zm0 0"/></symbol><symbol overflow="visible" id="f"><path style="stroke:none" d="M-4.313-.64c-.203.39-.187.796 0 1.203.22.421.485.64 1.11 1.109.297.219.828.594.61 1.016-.282.562-1.11.156-1.282.062-.672-.344-.86-.766-.656-1.281.062-.14.078-.203-.11-.297-.203-.094-.234-.047-.343.156l-.36.719c-.078.156-.125.25.016.328.047.016.062.016.5.031.172.219.453.438.797.625.281.14 1.656.828 2.25-.344a1.05 1.05 0 0 0 0-.921c-.188-.485-.5-.72-1.125-1.188-.281-.219-.89-.656-.61-1.187.329-.672 1.125-.266 1.329-.172.953.484.843 1.25.765 1.687-.016.14.031.172.14.235.235.109.266.046.36-.141l.5-.984c.078-.157.125-.25-.047-.329-.062-.03-.078-.046-.344 0l-.296.047c-.266-.515-.72-.75-.907-.843-.28-.141-1.64-.829-2.296.468Zm0 0"/></symbol><symbol overflow="visible" id="g"><path style="stroke:none" d="M-6.5 2.063a.578.578 0 0 0 .406.75c.157.046.61.156 1.14-.047.11.187.454.5 1.157.718 1.36.438 2.14-.125 2.344-.78.125-.392.062-.86-.172-1.157.375-.266.531-.547.594-.734.047-.157.14-.625-.11-1.047.11.015.875.015 1.079-.579C.078-1.28-.22-2.171-2.11-2.78c-1.688-.531-2.594-.235-2.813.437-.094.281-.219.906.313 1.438.468.437 1.03.625 1.937.906.25.078.688.219.719.25a.64.64 0 0 1 .344.781.859.859 0 0 1-.204.282C-2.188.938-2.655.75-2.89.671c-1.375-.438-2.125.14-2.343.812-.141.438 0 .829.093 1.032-.328.062-.546 0-.64-.016a.448.448 0 0 0 .093-.172c.079-.234-.03-.453-.28-.531-.25-.078-.47.047-.532.266Zm2.313-.235c.14-.437.343-1.078 1.187-.812.828.265.625.906.484 1.343-.125.407-.343 1.047-1.171.782-.844-.266-.626-.907-.5-1.313Zm.093-3.937c.11-.344.64-.72 1.875-.329 1.125.36 1.469.954 1.328 1.376-.187.578-.796.39-.921.343l-1.11-.36c-.312-.093-1.375-.437-1.172-1.03Zm0 0"/></symbol><symbol overflow="visible" id="h"><path style="stroke:none" d="M-5.063.047c-.03.172.157.219.204.219.156.046.187 0 .28-.141.313-.422.938-.61 1.563-.469 1.375.313 1.094 1.61.985 2.11l-2.953-.672c-.204-.047-.297-.063-.36.187-.062.313-.172 1.032.203 1.64.266.423.766.72 1.422.86 1.563.36 2.64-.453 2.922-1.656C-.5.828-1.266-.359-2.828-.719c-1.547-.344-2.188.594-2.235.766Zm.61 1.5 2.344.531c-.094.375-.204.797-.485 1.063a1.14 1.14 0 0 1-1.047.28c-1.14-.25-.875-1.546-.812-1.874Zm0 0"/></symbol><symbol overflow="visible" id="i"><path style="stroke:none" d="m-3.953.64-.078.532.468.062.079-.515c.093-.656.453-.844.734-.797.578.094.469.719.438.937l-.422 2.72-1.454-.235-.062.469 1.453.234-.297 1.875.453.062c.157-.984.782-1.875 1.782-1.75l.046-.359-.812-.125.422-2.703C-1.047 0-1.86-.36-2.563-.47c-.734-.11-1.28.406-1.39 1.11Zm0 0"/></symbol><symbol overflow="visible" id="j"><path style="stroke:none" d="m-3.906.89-.047.532.469.031.046-.516c.063-.671.407-.875.688-.843.578.047.516.687.5.906l-.25 2.734-1.469-.125-.047.47 1.47.124-.173 1.89.453.048c.094-.985.672-1.922 1.672-1.86l.031-.36-.828-.077.25-2.719c.094-1.063-.734-1.36-1.453-1.422-.75-.078-1.25.469-1.312 1.188Zm0 0"/></symbol><symbol overflow="visible" id="k"><path style="stroke:none" d="m-2.844-.11-.015.47.609.015-.172 4.016h1.75l.016-.47c-.594-.03-.656-.03-.64-.421l.124-3.078.688.031.015-.469-1.219-.015Zm.219 6.063a.774.774 0 0 0 .75.813.784.784 0 0 0 .813-.75c.03-.422-.329-.782-.75-.797a.782.782 0 0 0-.813.734Zm0 0"/></symbol><symbol overflow="visible" id="l"><path style="stroke:none" d="m-6.125.14.016.47.687-.016.047 2.578c.031 1.047.578 1.422 1.578 1.406.953-.031 1.469-.594 1.719-1.125l.031 1.078 1.688-.11v-.468c-.61.016-.688.016-.704-.375L-1.125.5l.688-.016-.016-.468-1.25.046h-1.25l.015.47.688-.016.047 2.078c.015 1.094-.828 1.61-1.469 1.61-.328.015-.547-.188-.562-.954L-4.297.562l.688-.015-.016-.469-1.25.063Zm0 0"/></symbol><symbol overflow="visible" id="m"><path style="stroke:none" d="M-5.125 4.516c.031.234.234.546.688.5a1.81 1.81 0 0 0 1.015-.47c.188.11.625.25 1.36.173C-.641 4.562-.173 3.75-.25 3.062c-.047-.406-.266-.812-.625-1 .25-.39.281-.703.25-.906C-.641 1-.735.516-1.156.25c.125-.047.828-.344.765-.969-.046-.5-.687-1.172-2.656-.969-1.75.188-2.469.829-2.406 1.532.031.297.172.906.89 1.187.579.219 1.172.157 2.125.063.266-.032.72-.078.766-.063a.62.62 0 0 1 .61.547c0 .094-.032.25-.079.344-.468-.188-.984-.172-1.234-.14-1.438.155-1.89.984-1.813 1.687.047.469.313.781.485.906-.266.188-.469.234-.578.266a.52.52 0 0 0 .015-.22c-.015-.25-.203-.405-.468-.374a.434.434 0 0 0-.391.469Zm2.031-1.157c-.047-.453-.11-1.125.766-1.218.875-.094.937.578.984 1.03.047.438.11 1.11-.765 1.204-.875.094-.938-.578-.985-1.016Zm-1.5-3.64c-.031-.36.282-.906 1.578-1.047 1.188-.125 1.72.266 1.766.719.063.609-.547.671-.688.687l-1.171.125c-.313.031-1.422.14-1.485-.484Zm0 0"/></symbol><symbol overflow="visible" id="n"><path style="stroke:none" d="M-3.703 2.313c.094.421.375.703.765.906.454.172.782.156 1.563.125.375-.016 1.031-.063 1.14.39.141.61-.765.829-.937.875-.734.172-1.156-.046-1.328-.562-.063-.156-.078-.188-.281-.14C-3 3.968-3 4-2.937 4.233l.187.782c.031.171.063.265.219.218.047 0 .062-.015.406-.265.281.047.64.031 1.016-.063.296-.078 1.796-.422 1.484-1.703-.078-.375-.344-.578-.594-.703-.453-.266-.844-.219-1.625-.188-.36.032-1.11.079-1.25-.5-.172-.734.703-.953.922-1 1.031-.25 1.453.422 1.656.797.094.125.157.11.282.079.25-.047.234-.11.172-.313L-.313.312C-.36.126-.376.032-.563.063c-.063.016-.079.016-.266.235l-.188.219c-.53-.22-1.03-.094-1.234-.047-.297.078-1.797.422-1.453 1.844Zm0 0"/></symbol><symbol overflow="visible" id="o"><path style="stroke:none" d="m-2.719.828.14.453.579-.187 1.156 3.843L.781 4.36l-.125-.453c-.562.172-.625.188-.75-.187L-.969.78l.656-.187-.14-.453-1.14.375ZM-.53 6.484a.76.76 0 0 0 .969.5.766.766 0 0 0 .53-.953C.845 5.625.407 5.406 0 5.516c-.406.14-.656.562-.531.968Zm0 0"/></symbol><symbol overflow="visible" id="p"><path style="stroke:none" d="m-2.75.984.156.438.64-.234L.235 7.266l1.641-.672-.156-.438c-.594.219-.657.235-.782-.14L-.938.828-.28.594-.437.156-1.579.61Zm0 0"/></symbol><symbol overflow="visible" id="q"><path style="stroke:none" d="m-2.688 1.14.188.438.625-.266L.641 7.25l1.593-.766-.187-.421c-.563.234-.625.265-.781-.094L-.875.89-.25.625-.438.187l-1.093.5Zm0 0"/></symbol><symbol overflow="visible" id="r"><path style="stroke:none" d="m-3.25 6.203.219.422c.203-.125.453-.281.672-.406l.828-.39-.219-.423s-.422.219-.469.125v-.14l-.156-2.688L.015 4.47l-.468.25.219.422 1.062-.61 1.016-.5-.219-.422-.547.297-3.516-2.61-.03-.53C-2.5.25-2.532-.516-1.892-.844c.125-.078.125-.062.22-.078a.546.546 0 0 0-.032.625c.156.297.469.39.781.219a.555.555 0 0 0 .235-.766c-.235-.437-.86-.594-1.375-.312-.688.36-.891 1.172-.876 1.797l.25 5.046c0 .157.016.22-.562.516Zm0 0"/></symbol><symbol overflow="visible" id="s"><path style="stroke:none" d="M7.203-2.734h-.469C6.516-1.36 6.234-.47 4.391-.47H2.875V-3.28h.547c.969 0 1.062.437 1.062 1.172h.47v-2.813h-.47c0 .75-.093 1.172-1.062 1.172h-.547v-2.563h1.516c1.609 0 1.875.735 2.03 1.938h.47l-.313-2.406H.391v.468h1.078v5.844H.39V0H6.75Zm0 0"/></symbol><symbol overflow="visible" id="t"><path style="stroke:none" d="M2.922 0v-.469h-.688v-6.453L.47-6.844v.469c.625 0 .687 0 .687.39v5.516H.47V0l1.219-.031Zm0 0"/></symbol><symbol overflow="visible" id="u"><path style="stroke:none" d="M2.844 0v-.469h-.61v-4.015L.5-4.406v.468c.594 0 .656 0 .656.391v3.078H.47V0l1.219-.031Zm-.469-6.047a.774.774 0 0 0-.781-.781.784.784 0 0 0-.782.781c0 .422.36.766.782.766a.77.77 0 0 0 .781-.766Zm0 0"/></symbol><symbol overflow="visible" id="v"><path style="stroke:none" d="M5.984-2.219c0-1.328-.906-2.265-2.343-2.265-.75 0-1.282.312-1.5.484v-.484l-1.766.078v.468c.61 0 .688 0 .688.376v5.03H.375v.47l1.25-.032 1.25.032v-.47h-.688V-.39A2.01 2.01 0 0 0 3.47.063c1.5 0 2.515-.907 2.515-2.282Zm-1.28 0C4.703-.813 4-.297 3.358-.297c-.14 0-.609 0-1.062-.547-.11-.125-.11-.14-.11-.328v-2.11c0-.187.016-.202.157-.343.39-.406.922-.469 1.14-.469.657 0 1.22.61 1.22 1.875Zm0 0"/></symbol><symbol overflow="visible" id="w"><path style="stroke:none" d="M4.14-1.39c0-.438-.202-.782-.546-1.063-.39-.281-.719-.344-1.485-.485-.375-.062-1.015-.171-1.015-.64 0-.625.922-.625 1.11-.625.75 0 1.124.297 1.171.844.016.156.031.203.234.203.235 0 .235-.047.235-.281v-.797c0-.188 0-.282-.172-.282-.047 0-.063 0-.453.188-.266-.125-.61-.188-1-.188-.313 0-1.844 0-1.844 1.313 0 .39.203.656.406.828.39.344.781.406 1.547.547.36.062 1.094.187 1.094.781 0 .75-.906.75-1.125.75C1.234-.297.984-1.03.859-1.453c-.046-.14-.109-.14-.234-.14-.25 0-.25.062-.25.28v1.094c0 .188 0 .281.188.281.062 0 .078 0 .296-.156l.25-.172c.47.329.985.329 1.188.329.312 0 1.844 0 1.844-1.454Zm0 0"/></symbol><symbol overflow="visible" id="x"><path style="stroke:none" d="M4.922-1.172c0-.172-.188-.172-.234-.172-.172 0-.188.047-.25.203-.204.485-.782.797-1.422.797-1.407 0-1.422-1.328-1.422-1.828h3.015c.22 0 .313 0 .313-.265 0-.313-.063-1.047-.563-1.547-.359-.36-.89-.532-1.578-.532C1.187-4.516.312-3.484.312-2.25c0 1.344 1 2.313 2.61 2.313 1.578 0 2-1.063 2-1.235ZM3.984-2.5h-2.39c.015-.39.031-.813.234-1.14.266-.391.672-.516.953-.516 1.172 0 1.188 1.312 1.203 1.656Zm0 0"/></symbol></defs><path style="stroke:none;fill-rule:nonzero;fill:#fcc;fill-opacity:1" d="M95.625 32.55c0-16.737-21.277-30.308-47.531-30.308C21.84 2.242.559 15.812.559 32.551c0 16.738 21.28 30.308 47.535 30.308 26.254 0 47.531-13.57 47.531-30.308Zm0 0"/><use xlink:href="#a" x="96.022" y="32.496" style="fill:#000;fill-opacity:1"/><use xlink:href="#b" x="94.242" y="24.687" style="fill:#000;fill-opacity:1"/><use xlink:href="#c" x="90.889" y="19.274" style="fill:#000;fill-opacity:1"/><use xlink:href="#d" x="88.844" y="16.83" style="fill:#000;fill-opacity:1"/><use xlink:href="#e" x="82.403" y="11.541" style="fill:#000;fill-opacity:1"/><use xlink:href="#f" x="79.704" y="9.856" style="fill:#000;fill-opacity:1"/><use xlink:href="#g" x="72.142" y="6.33" style="fill:#000;fill-opacity:1"/><use xlink:href="#h" x="66.68" y="4.592" style="fill:#000;fill-opacity:1"/><use xlink:href="#i" x="61.554" y="3.439" style="fill:#000;fill-opacity:1"/><use xlink:href="#j" x="57.151" y="2.757" style="fill:#000;fill-opacity:1"/><use xlink:href="#k" x="52.714" y="2.366" style="fill:#000;fill-opacity:1"/><use xlink:href="#l" x="49.553" y="2.189" style="fill:#000;fill-opacity:1"/><use xlink:href="#m" x="43.184" y="2.346" style="fill:#000;fill-opacity:1"/><use xlink:href="#n" x="33.724" y="3.612" style="fill:#000;fill-opacity:1"/><use xlink:href="#o" x="29.326" y="4.675" style="fill:#000;fill-opacity:1"/><use xlink:href="#p" x="26.282" y="5.592" style="fill:#000;fill-opacity:1"/><use xlink:href="#q" x="23.288" y="6.667" style="fill:#000;fill-opacity:1"/><use xlink:href="#r" x="20.328" y="7.848" style="fill:#000;fill-opacity:1"/><g style="fill:#000;fill-opacity:1"><use xlink:href="#s" x="31.491" y="35.041"/><use xlink:href="#t" x="39.022" y="35.041"/><use xlink:href="#t" x="42.2" y="35.041"/><use xlink:href="#u" x="45.378" y="35.041"/><use xlink:href="#v" x="48.557" y="35.041"/><use xlink:href="#w" x="54.923" y="35.041"/><use xlink:href="#x" x="59.446" y="35.041"/></g></svg>