<svg xmlns="http://www.w3.org/2000/svg" xmlns:xlink="http://www.w3.org/1999/xlink" width="128.331" height="99.579" viewBox="0 0 96.248 74.684" version="1.2"><defs><symbol overflow="visible" id="a"><path style="stroke:none" d="M1.781-1.14C1.391-.485 1-.345.563-.314c-.125.016-.22.016-.22.204 0 .062.063.109.141.109.266 0 .579-.031.844-.031.344 0 .688.031 1 .031.063 0 .188 0 .188-.188 0-.109-.079-.124-.157-.124-.218-.016-.468-.094-.468-.344 0-.125.062-.235.14-.375l.766-1.266h2.5c.016.203.156 1.563.156 1.656 0 .297-.516.329-.719.329-.14 0-.234 0-.234.203C4.5 0 4.61 0 4.64 0c.407 0 .829-.031 1.235-.031.25 0 .89.031 1.14.031.048 0 .173 0 .173-.203 0-.11-.094-.11-.235-.11-.61 0-.61-.062-.64-.359l-.61-6.219c-.016-.203-.016-.25-.187-.25-.157 0-.204.079-.266.172Zm1.203-1.47 1.954-3.296.328 3.297Zm0 0"/></symbol><symbol overflow="visible" id="b"><path style="stroke:none" d="M1.594-.781c-.094.39-.125.469-.907.469-.171 0-.265 0-.265.203C.422 0 .516 0 .688 0H4.25C5.828 0 7-1.172 7-2.156c0-.719-.578-1.297-1.547-1.406 1.031-.188 2.078-.922 2.078-1.876 0-.734-.656-1.375-1.843-1.375h-3.36c-.187 0-.281 0-.281.204 0 .109.094.109.281.109.016 0 .203 0 .375.016.172.03.266.03.266.171 0 .032-.016.063-.031.188Zm1.5-2.875.625-2.469c.094-.344.11-.375.531-.375h1.297c.875 0 1.078.594 1.078 1.031 0 .875-.86 1.813-2.063 1.813ZM2.656-.312h-.219c-.109-.016-.14-.032-.14-.11 0-.031 0-.047.062-.219l.688-2.78h1.875c.953 0 1.156.733 1.156 1.155 0 .985-.89 1.954-2.078 1.954Zm0 0"/></symbol><symbol overflow="visible" id="d"><path style="stroke:none" d="M1.578-.781c-.094.39-.11.469-.906.469-.156 0-.266 0-.266.187C.406 0 .484 0 .672 0h3.312c2.063 0 4.032-2.11 4.032-4.281 0-1.407-.844-2.532-2.344-2.532H2.328c-.187 0-.297 0-.297.188 0 .125.078.125.281.125.126 0 .313.016.422.016.172.03.22.046.22.171 0 .032 0 .063-.032.188Zm2.156-5.344c.094-.344.11-.375.547-.375h1.063c.968 0 1.797.531 1.797 1.844 0 .484-.188 2.125-1.047 3.218A2.919 2.919 0 0 1 3.797-.313H2.453c-.094-.015-.125-.03-.125-.109 0-.031 0-.047.047-.219Zm0 0"/></symbol><clipPath id="c"><path d="M6 0h85v74.527H6Zm0 0"/></clipPath></defs><use xlink:href="#a" x="37.423" y="40.596" style="fill:#000;fill-opacity:1"/><use xlink:href="#b" x="87.367" y="33.51" style="fill:#000;fill-opacity:1"/><path style="fill:none;stroke-width:.3985;stroke-linecap:butt;stroke-linejoin:miter;stroke:#000;stroke-opacity:1;stroke-miterlimit:10" d="m0 0 35.434 7.087" transform="matrix(1 0 0 -1 48.414 37.192)"/><g clip-path="url(#c)"><path style="fill:none;stroke-width:.3985;stroke-linecap:butt;stroke-linejoin:miter;stroke:#000;stroke-opacity:1;stroke-miterlimit:10" d="M36.133 0c0 19.958-16.176 36.133-36.133 36.133-19.957 0-36.133-16.175-36.133-36.132 0-19.957 16.176-36.133 36.133-36.133 19.957 0 36.133 16.176 36.133 36.133Zm0 0" transform="matrix(1 0 0 -1 48.414 37.192)"/></g><use xlink:href="#d" x=".237" y="40.596" style="fill:#000;fill-opacity:1"/></svg>