<svg xmlns="http://www.w3.org/2000/svg" width="116.077" height="9.603" viewBox="0 0 87.058 7.202" version="1.2"><defs><clipPath id="a"><path d="M0 0h86.586v6.805H0Zm0 0"/></clipPath></defs><g clip-path="url(#a)"><path style="fill:none;stroke-width:.3985;stroke-linecap:butt;stroke-linejoin:miter;stroke:#000;stroke-opacity:1;stroke-miterlimit:10" d="M.001 0c.707 0 1.063 1.133 1.77 1.133.515 0 .957-.551 1.418-1.133.46-.582.906-1.133 1.418-1.133.511 0 .953.55 1.417 1.133.461.582.903 1.133 1.418 1.133.512 0 .954-.551 1.415-1.133.464-.582.906-1.133 1.418-1.133.515 0 .957.55 1.417 1.133.461.582.907 1.133 1.418 1.133.512 0 .957-.551 1.418-1.133.461-.582.903-1.133 1.418-1.133.512 0 .954.55 1.414 1.133.465.582.907 1.133 1.418 1.133.516 0 .957-.551 1.418-1.133.461-.582.907-1.133 1.418-1.133.512 0 .957.55 1.418 1.133.461.582.903 1.133 1.418 1.133.512 0 .953-.551 1.414-1.133.465-.582.907-1.133 1.418-1.133.516 0 .957.55 1.418 1.133.461.582.907 1.133 1.418 1.133.512 0 .957-.551 1.418-1.133.461-.582.903-1.133 1.418-1.133.512 0 .953.55 1.414 1.133.465.582.907 1.133 1.418 1.133.516 0 .957-.551 1.418-1.133.461-.582.906-1.133 1.418-1.133.512 0 .957.55 1.418 1.133.461.582.902 1.133 1.418 1.133.512 0 .953-.551 1.418-1.133.461-.582.902-1.133 1.414-1.133.516 0 .957.55 1.418 1.133.461.582.906 1.133 1.418 1.133.512 0 .957-.551 1.418-1.133.461-.582.902-1.133 1.418-1.133.512 0 .953.55 1.418 1.133.46.582.902 1.133 1.414 1.133.516 0 .957-.551 1.418-1.133.46-.582.906-1.133 1.418-1.133.512 0 .957.55 1.418 1.133.46.582.902 1.133 1.418 1.133.512 0 .953-.551 1.418-1.133.46-.582.902-1.133 1.414-1.133.516 0 .957.55 1.418 1.133.46.582.906 1.133 1.418 1.133.512 0 .957-.551 1.418-1.133.46-.582.902-1.133 1.418-1.133.512 0 .953.55 1.418 1.133.46.582.902 1.133 1.414 1.133.515 0 .957-.551 1.418-1.133.46-.582.906-1.133 1.418-1.133.511 0 .957.55 1.418 1.133.46.582.902 1.133 1.418 1.133.511 0 .953-.551 1.418-1.133.46-.582.902-1.133 1.414-1.133.71 0 1.066 1.133 1.773 1.133h4.563" transform="matrix(1 0 0 -1 .538 3.207)"/></g><path style="fill:none;stroke-width:.3985;stroke-linecap:round;stroke-linejoin:round;stroke:#000;stroke-opacity:1;stroke-miterlimit:10" d="M-2.07 2.39C-1.697.958-.853.278 0 0c-.852-.277-1.696-.957-2.07-2.39" transform="matrix(1 0 0 -1 85.38 3.207)"/></svg>