<svg xmlns="http://www.w3.org/2000/svg" xmlns:xlink="http://www.w3.org/1999/xlink" width="310.371" height="162.699" viewBox="0 0 232.778 122.024" version="1.2"><defs><symbol overflow="visible" id="a"><path style="stroke:none" d="M4.14-1.39c0-.438-.202-.782-.546-1.063-.39-.281-.719-.344-1.485-.485-.375-.062-1.015-.171-1.015-.64 0-.625.922-.625 1.11-.625.75 0 1.124.297 1.171.844.016.156.031.203.234.203.235 0 .235-.047.235-.281v-.797c0-.188 0-.282-.172-.282-.047 0-.063 0-.453.188-.266-.125-.61-.188-1-.188-.313 0-1.844 0-1.844 1.313 0 .39.203.656.406.828.39.344.781.406 1.547.547.36.062 1.094.187 1.094.781 0 .75-.906.75-1.125.75C1.234-.297.984-1.03.859-1.453c-.046-.14-.109-.14-.234-.14-.25 0-.25.062-.25.28v1.094c0 .188 0 .281.188.281.062 0 .078 0 .296-.156l.25-.172c.47.329.985.329 1.188.329.312 0 1.844 0 1.844-1.454Zm0 0"/></symbol><symbol overflow="visible" id="b"><path style="stroke:none" d="M3.813-1.234v-.532h-.47v.516c0 .672-.327.906-.609.906-.578 0-.578-.64-.578-.86v-2.75h1.469v-.468H2.156v-1.906h-.469c0 1-.484 1.984-1.484 2.016v.359h.828v2.734c0 1.063.86 1.282 1.578 1.282.75 0 1.204-.579 1.204-1.297Zm0 0"/></symbol><symbol overflow="visible" id="c"><path style="stroke:none" d="M5.516-.234c0-.235-.125-.235-.266-.235-.61-.015-.61-.14-.61-.375v-2.14c0-.891-.702-1.532-2.187-1.532-.562 0-1.781.047-1.781.922 0 .438.344.625.61.625.312 0 .624-.219.624-.625 0-.297-.187-.469-.218-.5a5.28 5.28 0 0 1 .718-.062c.75 0 1.11.422 1.11 1.172v.343c-.72.032-3.25.125-3.25 1.563C.266-.125 1.5.062 2.187.062c.797 0 1.266-.406 1.485-.828 0 .313 0 .766 1.047.766h.468c.204 0 .329 0 .329-.234Zm-2-1.157c0 .97-.922 1.094-1.172 1.094-.516 0-.906-.344-.906-.797 0-1.062 1.578-1.203 2.078-1.234Zm0 0"/></symbol><symbol overflow="visible" id="d"><path style="stroke:none" d="M4.406-3.672c0-.531-.531-.812-1.062-.812-.688 0-1.094.5-1.313 1.125v-1.125l-1.656.078v.468c.61 0 .688 0 .688.391v3.078H.375V0l1.25-.031C2-.031 2.641-.031 3 0v-.469h-.86v-1.75c0-.687.235-1.906 1.235-1.906 0 0-.188.172-.188.453 0 .406.329.61.61.61.297 0 .61-.204.61-.61Zm0 0"/></symbol><symbol overflow="visible" id="e"><path style="stroke:none" d="M6.125 0v-.469h-.688v-2.578c0-1.047-.53-1.437-1.53-1.437-.954 0-1.485.562-1.75 1.078v-1.078l-1.704.078v.468c.61 0 .688 0 .688.391v3.078H.453V0l1.25-.031L2.953 0v-.469h-.687v-2.078c0-1.094.859-1.578 1.5-1.578.328 0 .546.203.546.969V-.47h-.687V0l1.25-.031Zm0 0"/></symbol><symbol overflow="visible" id="f"><path style="stroke:none" d="M4.922-1.172c0-.172-.188-.172-.234-.172-.172 0-.188.047-.25.203-.204.485-.782.797-1.422.797-1.407 0-1.422-1.328-1.422-1.828h3.015c.22 0 .313 0 .313-.265 0-.313-.063-1.047-.563-1.547-.359-.36-.89-.532-1.578-.532C1.187-4.516.312-3.484.312-2.25c0 1.344 1 2.313 2.61 2.313 1.578 0 2-1.063 2-1.235ZM3.984-2.5h-2.39c.015-.39.031-.813.234-1.14.266-.391.672-.516.953-.516 1.172 0 1.188 1.312 1.203 1.656Zm0 0"/></symbol><symbol overflow="visible" id="g"><path style="stroke:none" d="M5.781-3.953v-.469c-.25.016-.531.031-.781.031l-.906-.03v.468c.187 0 .468.031.468.11 0 0 0 .015-.046.109l-1.157 2.5-1.265-2.72h.531v-.468l-1.234.031-1.125-.03v.468H.89l1.75 3.75c.125.25.25.25.375.25.171 0 .28-.031.375-.25L5.047-3.75c.062-.14.094-.203.734-.203Zm0 0"/></symbol><symbol overflow="visible" id="h"><path style="stroke:none" d="M2.922 0v-.469h-.688v-6.453L.47-6.844v.469c.625 0 .687 0 .687.39v5.516H.47V0l1.219-.031Zm0 0"/></symbol><symbol overflow="visible" id="i"><path style="stroke:none" d="M5.406-2.172c0-1.344-.922-2.344-2.547-2.344C1.22-4.516.313-3.5.313-2.172c0 1.235.89 2.235 2.546 2.235 1.672 0 2.547-1.016 2.547-2.235Zm-1.281-.11c0 .86 0 1.938-1.266 1.938-1.265 0-1.265-1.078-1.265-1.937 0-.453 0-.953.172-1.297.187-.375.609-.578 1.093-.578.422 0 .844.156 1.063.5.203.344.203.89.203 1.375Zm0 0"/></symbol><symbol overflow="visible" id="j"><path style="stroke:none" d="M5.563-3.953c0-.235-.172-.578-.625-.578-.157 0-.625.031-1.063.375-.172-.125-.594-.328-1.328-.328-1.438 0-1.985.78-1.985 1.468 0 .407.188.829.516 1.047-.281.36-.344.688-.344.89 0 .157.047.641.438.954-.125.031-.86.25-.86.875C.313 1.25.875 2 2.86 2 4.625 2 5.406 1.422 5.406.719c0-.297-.078-.922-.75-1.266-.562-.281-1.156-.281-2.11-.281-.265 0-.718 0-.765-.016a.625.625 0 0 1-.562-.625c0-.093.047-.25.11-.328.452.234.968.266 1.218.266 1.437 0 1.984-.782 1.984-1.485 0-.468-.25-.796-.406-.953.297-.156.516-.172.625-.187a.433.433 0 0 0-.047.203c0 .25.172.422.438.422a.41.41 0 0 0 .421-.422Zm-2.141.937c0 .454 0 1.125-.875 1.125s-.875-.671-.875-1.125c0-.437 0-1.109.875-1.109s.875.672.875 1.11ZM4.547.75c0 .36-.39.89-1.688.89-1.187 0-1.687-.452-1.687-.906 0-.609.625-.609.766-.609h1.171c.313 0 1.438 0 1.438.625Zm0 0"/></symbol><symbol overflow="visible" id="k"><path style="stroke:none" d="M5.828 0v-.469h-.703L3.453-2.453 4.61-3.75c.141-.14.204-.203 1.016-.203v-.469l-.906.031-1.032-.03v.468c.141 0 .266.015.376.078-.032.063-.032.094-.079.125l-.828.938-.984-1.141h.406v-.469L1.36-4.39.266-4.42v.468h.718l1.547 1.828L1.22-.656c-.157.187-.516.187-1 .187V0l.922-.031L2.156 0v-.469c-.172 0-.36-.047-.36-.11 0 0 0-.015.063-.093l.97-1.094L3.921-.469h-.39V0l1.202-.031Zm0 0"/></symbol><symbol overflow="visible" id="l"><path style="stroke:none" d="M6.125 0v-.469h-.688v-2.578c0-1.047-.53-1.437-1.53-1.437a1.9 1.9 0 0 0-1.688.953v-3.39l-1.766.077v.469c.61 0 .688 0 .688.39v5.516H.453V0l1.25-.031L2.953 0v-.469h-.687v-2.078c0-1.094.859-1.578 1.5-1.578.328 0 .546.203.546.969V-.47h-.687V0l1.25-.031Zm0 0"/></symbol><symbol overflow="visible" id="m"><path style="stroke:none" d="M5.781-3.953v-.469A12.55 12.55 0 0 1 5-4.39l-.906-.03v.468s.468 0 .468.11L4.5-3.72 3.36-1.266 2.093-3.953h.531v-.469l-1.234.031-1.125-.03v.468H.89L2.766 0 2.53.484C2.312.954 2 1.641 1.281 1.641c-.14 0-.156-.016-.234-.047.094-.032.312-.172.312-.532C1.36.734 1.125.5.781.5a.553.553 0 0 0-.562.578c0 .5.469.922 1.062.922.766 0 1.344-.625 1.625-1.188l2.14-4.562c.063-.14.095-.203.735-.203Zm0 0"/></symbol><symbol overflow="visible" id="n"><path style="stroke:none" d="M9.328 0v-.469h-.687v-2.578c0-1.031-.516-1.437-1.547-1.437-.907 0-1.422.5-1.688.953-.187-.922-1.11-.953-1.484-.953-.875 0-1.438.453-1.766 1.078v-1.078l-1.703.078v.468c.61 0 .688 0 .688.391v3.078H.453V0l1.25-.031L2.953 0v-.469h-.687v-2.078c0-1.094.875-1.578 1.5-1.578.328 0 .546.203.546.969V-.47h-.687V0l1.266-.031L6.14 0v-.469h-.688v-2.078c0-1.094.86-1.578 1.484-1.578.344 0 .563.203.563.969V-.47h-.688V0l1.25-.031Zm0 0"/></symbol><symbol overflow="visible" id="o"><path style="stroke:none" d="M5.984-2.219c0-1.328-.937-2.265-2.39-2.265-.719 0-1.219.28-1.453.484v-2.922l-1.766.078v.469c.61 0 .688 0 .688.39V0h.468c.157-.188.328-.375.485-.563.078.079.562.625 1.453.625 1.484 0 2.515-.906 2.515-2.28Zm-1.28 0c0 .469 0 1.016-.25 1.406-.298.407-.75.516-1.079.516-.688 0-1.078-.547-1.188-.687v-2.5c.282-.36.75-.641 1.297-.641 1.22 0 1.22 1.203 1.22 1.906Zm0 0"/></symbol><symbol overflow="visible" id="p"><path style="stroke:none" d="M5.984 0v-.469c-.609 0-.687 0-.687-.39v-6.063l-1.766.078v.469c.625 0 .703 0 .703.39v1.954a2.178 2.178 0 0 0-1.359-.453c-1.453 0-2.5.875-2.5 2.28 0 1.313.922 2.267 2.39 2.267.61 0 1.094-.235 1.407-.485v.484ZM4.172-1.031c-.14.187-.547.734-1.297.734-1.219 0-1.219-1.203-1.219-1.906 0-.485 0-1.016.25-1.406.297-.422.766-.516 1.078-.516.563 0 .97.313 1.188.61Zm0 0"/></symbol></defs><g style="fill:#000;fill-opacity:1"><use xlink:href="#a" x=".646" y="6.811"/><use xlink:href="#b" x="5.169" y="6.811"/><use xlink:href="#c" x="9.622" y="6.811"/><use xlink:href="#d" x="15.191" y="6.811"/><use xlink:href="#b" x="19.914" y="6.811"/></g><g style="fill:#000;fill-opacity:1"><use xlink:href="#c" x=".646" y="34.48"/><use xlink:href="#e" x="6.215" y="34.48"/></g><g style="fill:#000;fill-opacity:1"><use xlink:href="#f" x="16.397" y="34.48"/><use xlink:href="#g" x="21.647" y="34.48"/></g><g style="fill:#000;fill-opacity:1"><use xlink:href="#f" x="27.376" y="34.48"/><use xlink:href="#e" x="32.626" y="34.48"/></g><g style="fill:#000;fill-opacity:1"><use xlink:href="#h" x="42.808" y="34.48"/><use xlink:href="#i" x="45.986" y="34.48"/><use xlink:href="#e" x="51.714" y="34.48"/><use xlink:href="#j" x="58.081" y="34.48"/><use xlink:href="#f" x="63.809" y="34.48"/><use xlink:href="#d" x="69.059" y="34.48"/></g><g style="fill:#000;fill-opacity:1"><use xlink:href="#b" x="77.597" y="34.48"/><use xlink:href="#f" x="82.051" y="34.48"/><use xlink:href="#k" x="87.301" y="34.48"/><use xlink:href="#b" x="93.348" y="34.48"/></g><g style="fill:#000;fill-opacity:1"><use xlink:href="#a" x=".646" y="63.798"/><use xlink:href="#l" x="5.169" y="63.798"/><use xlink:href="#i" x="11.535" y="63.798"/><use xlink:href="#d" x="17.264" y="63.798"/><use xlink:href="#b" x="21.986" y="63.798"/></g><use xlink:href="#g" x="43.441" y="62.826" style="fill:#000;fill-opacity:1"/><g style="fill:#000;fill-opacity:1"><use xlink:href="#f" x="49.17" y="62.826"/><use xlink:href="#d" x="54.42" y="62.826"/><use xlink:href="#m" x="59.142" y="62.826"/></g><g style="fill:#000;fill-opacity:1"><use xlink:href="#h" x="69.005" y="62.826"/><use xlink:href="#i" x="72.183" y="62.826"/><use xlink:href="#e" x="77.912" y="62.826"/><use xlink:href="#j" x="84.278" y="62.826"/></g><g style="fill:#000;fill-opacity:1"><use xlink:href="#b" x="93.822" y="62.826"/><use xlink:href="#f" x="98.275" y="62.826"/><use xlink:href="#k" x="103.526" y="62.826"/><use xlink:href="#b" x="109.573" y="62.826"/></g><path style="fill:none;stroke-width:.3985;stroke-linecap:butt;stroke-linejoin:miter;stroke:#000;stroke-opacity:1;stroke-miterlimit:10" d="m42.058-36.326-16.825-13.36M60.401-36.326l12.903-12.39" transform="matrix(1 0 0 -1 -2.874 3.678)"/><g style="fill:#000;fill-opacity:1"><use xlink:href="#n" x=".646" y="91.85"/><use xlink:href="#i" x="10.19" y="91.85"/><use xlink:href="#d" x="15.919" y="91.85"/><use xlink:href="#f" x="20.641" y="91.85"/></g><g style="fill:#000;fill-opacity:1"><use xlink:href="#b" x="29.707" y="91.85"/><use xlink:href="#f" x="34.16" y="91.85"/><use xlink:href="#k" x="39.411" y="91.85"/><use xlink:href="#b" x="45.458" y="91.85"/></g><path style="fill:none;stroke-width:.3985;stroke-linecap:butt;stroke-linejoin:miter;stroke:#000;stroke-opacity:1;stroke-miterlimit:10" d="m19.32-63.7 6.054-14.626M66.561-64.674l-25.75-13.652" transform="matrix(1 0 0 -1 -2.874 3.678)"/><g style="fill:#000;fill-opacity:1"><use xlink:href="#h" x="131.029" y="34.48"/><use xlink:href="#i" x="134.207" y="34.48"/><use xlink:href="#e" x="139.936" y="34.48"/><use xlink:href="#j" x="146.302" y="34.48"/></g><g style="fill:#000;fill-opacity:1"><use xlink:href="#h" x="131.029" y="62.826"/><use xlink:href="#i" x="134.207" y="62.826"/><use xlink:href="#e" x="139.936" y="62.826"/><use xlink:href="#j" x="146.302" y="62.826"/><use xlink:href="#f" x="152.03" y="62.826"/><use xlink:href="#d" x="157.281" y="62.826"/></g><path style="fill:none;stroke-width:.3985;stroke-linecap:butt;stroke-linejoin:miter;stroke:#000;stroke-opacity:1;stroke-miterlimit:10" d="m145.808-36.326 2.18-12.39" transform="matrix(1 0 0 -1 -2.874 3.678)"/><g style="fill:#000;fill-opacity:1"><use xlink:href="#h" x="131.029" y="91.173"/><use xlink:href="#i" x="134.207" y="91.173"/><use xlink:href="#e" x="139.936" y="91.173"/><use xlink:href="#j" x="146.302" y="91.173"/><use xlink:href="#f" x="152.03" y="91.173"/><use xlink:href="#a" x="157.281" y="91.173"/><use xlink:href="#b" x="161.804" y="91.173"/></g><path style="fill:none;stroke-width:.3985;stroke-linecap:butt;stroke-linejoin:miter;stroke:#000;stroke-opacity:1;stroke-miterlimit:10" d="m149.991-64.674.93-12.39" transform="matrix(1 0 0 -1 -2.874 3.678)"/><g style="fill:#000;fill-opacity:1"><use xlink:href="#a" x="183.259" y="35.157"/><use xlink:href="#i" x="187.782" y="35.157"/><use xlink:href="#n" x="193.511" y="35.157"/><use xlink:href="#f" x="203.055" y="35.157"/></g><g style="fill:#000;fill-opacity:1"><use xlink:href="#b" x="212.121" y="35.157"/><use xlink:href="#f" x="216.574" y="35.157"/><use xlink:href="#k" x="221.824" y="35.157"/><use xlink:href="#b" x="227.872" y="35.157"/></g><use xlink:href="#c" x="183.259" y="62.597" style="fill:#000;fill-opacity:1"/><path style="fill:none;stroke-width:.3985;stroke-linecap:butt;stroke-linejoin:miter;stroke:#000;stroke-opacity:1;stroke-miterlimit:10" d="m205.519-35.06-12.145-15.828" transform="matrix(1 0 0 -1 -2.874 3.678)"/><use xlink:href="#o" x="183.259" y="92.144" style="fill:#000;fill-opacity:1"/><path style="fill:none;stroke-width:.3985;stroke-linecap:butt;stroke-linejoin:miter;stroke:#000;stroke-opacity:1;stroke-miterlimit:10" d="m189.003-62.502.219-15.53M24.073-6.713l17.692-13.656M30.76-3.373l99.626-21.894M30.76-2.232 182.617-24.28" transform="matrix(1 0 0 -1 -2.874 3.678)"/><g style="fill:#000;fill-opacity:1"><use xlink:href="#f" x=".646" y="120.49"/><use xlink:href="#e" x="5.896" y="120.49"/><use xlink:href="#p" x="12.262" y="120.49"/></g><path style="fill:none;stroke-width:.3985;stroke-linecap:butt;stroke-linejoin:miter;stroke:#000;stroke-opacity:1;stroke-miterlimit:10" d="m24.448-91.752-8.07-14.629M130.386-89.35 25.022-110.841M182.616-86.115l-157.594-25.27" transform="matrix(1 0 0 -1 -2.874 3.678)"/></svg>