<svg xmlns="http://www.w3.org/2000/svg" width="154.179" height="120.771" viewBox="0 0 115.634 90.578" version="1.2"><defs><clipPath id="a"><path d="M3 0h98v90.367H3Zm0 0"/></clipPath><clipPath id="b"><path d="M0 0h115.45v79H0Zm0 0"/></clipPath><clipPath id="c"><path d="M0 43h101v47.367H0Zm0 0"/></clipPath></defs><path style="fill:none;stroke-width:.3985;stroke-linecap:butt;stroke-linejoin:miter;stroke:#000;stroke-opacity:1;stroke-miterlimit:10" d="M.002 21.898h113.386M.002 43.797h113.386" transform="matrix(1 0 0 -1 .936 89.074)"/><path style="fill:none;stroke-width:.59776;stroke-linecap:butt;stroke-linejoin:miter;stroke:#000;stroke-opacity:1;stroke-miterlimit:10" d="M56.693 42.672h11.34l11.336 22.46 22.68-11.23" transform="matrix(1 0 0 -1 .936 89.074)"/><g clip-path="url(#a)"><path style="fill:none;stroke-width:.59776;stroke-linecap:butt;stroke-linejoin:miter;stroke:#000;stroke-opacity:1;stroke-miterlimit:10" d="m11.337 0 11.34 20.215 11.34 67.375L90.71 20.215" transform="matrix(1 0 0 -1 .936 89.074)"/></g><g clip-path="url(#b)"><path style="fill:none;stroke-width:.59776;stroke-linecap:butt;stroke-linejoin:miter;stroke:#000;stroke-opacity:1;stroke-miterlimit:10" d="m.002 18.637 22.675 9.316L45.353 55.91l68.031 31.68" transform="matrix(1 0 0 -1 .936 89.074)"/></g><g clip-path="url(#c)"><path style="fill:none;stroke-width:.59776;stroke-linecap:butt;stroke-linejoin:miter;stroke:#000;stroke-opacity:1;stroke-miterlimit:10" d="m.002 0 22.675 9.32 11.34 9.317L90.71 37.273" transform="matrix(1 0 0 -1 .936 89.074)"/></g></svg>