<svg xmlns="http://www.w3.org/2000/svg" width="87.32pt" height="97.563" viewBox="0 0 87.32 73.172" version="1.2"><defs><clipPath id="a"><path d="M0 51h70v21.758H0Zm0 0"/></clipPath></defs><path style="fill:none;stroke-width:.19925;stroke-linecap:butt;stroke-linejoin:miter;stroke:gray;stroke-opacity:1;stroke-miterlimit:10" d="M-.001 0h85.043M-.001 28.348h85.043M-.001 56.684h85.043M-.001 0v56.695M28.347 0v56.695M56.694 0v56.695M85.03 0v56.695" transform="matrix(1 0 0 -1 .841 57.379)"/><path style="fill:none;stroke-width:.3985;stroke-linecap:butt;stroke-linejoin:miter;stroke:#000;stroke-opacity:1;stroke-miterlimit:10" d="m-.001 0 34.926 52.895L24.55 14.172" transform="matrix(1 0 0 -1 .841 57.379)"/><g clip-path="url(#a)"><path style="fill:none;stroke-width:.3985;stroke-linecap:butt;stroke-linejoin:miter;stroke:red;stroke-opacity:1;stroke-miterlimit:10" d="m-.001 0 63.273-3.797L24.55-14.172" transform="matrix(1 0 0 -1 .841 57.379)"/></g></svg>