<svg xmlns="http://www.w3.org/2000/svg" xmlns:xlink="http://www.w3.org/1999/xlink" width="227.307" height="142.971" viewBox="0 0 170.48 107.228" version="1.2"><defs><symbol overflow="visible" id="b"><path style="stroke:none" d="M3.89-2.547c0-.844-.078-1.36-.343-1.875-.344-.703-1-.875-1.438-.875-1 0-1.375.75-1.484.969C.344-3.75.328-2.953.328-2.547c0 .531.016 1.328.406 1.969.36.594.954.75 1.375.75.391 0 1.063-.125 1.47-.906.296-.579.312-1.297.312-1.813ZM2.11-.062c-.266 0-.813-.126-.985-.954-.094-.453-.094-1.203-.094-1.625 0-.546 0-1.109.094-1.546.172-.813.781-.891.984-.891.266 0 .829.14.985.86.094.437.094 1.046.094 1.577 0 .47 0 1.188-.094 1.641-.172.828-.719.938-.985.938Zm0 0"/></symbol><symbol overflow="visible" id="c"><path style="stroke:none" d="M2.25-1.625c.125-.125.453-.39.594-.5.484-.453.953-.89.953-1.61 0-.953-.797-1.562-1.781-1.562-.97 0-1.594.719-1.594 1.438 0 .39.312.437.422.437.172 0 .422-.11.422-.422 0-.406-.407-.406-.5-.406.234-.594.765-.781 1.156-.781.734 0 1.125.625 1.125 1.297 0 .828-.578 1.437-1.531 2.39l-1 1.047C.422-.219.422-.203.422 0h3.14l.235-1.422h-.25c-.016.156-.078.547-.172.703-.047.063-.656.063-.781.063H1.172Zm0 0"/></symbol><symbol overflow="visible" id="d"><path style="stroke:none" d="M3.14-5.156c0-.157 0-.219-.171-.219-.094 0-.11 0-.188.11L.234-1.564v.25h2.25v.672c0 .297-.015.375-.64.375h-.172V0c.672-.031.687-.031 1.14-.031.454 0 .47 0 1.141.031v-.266h-.172c-.625 0-.64-.078-.64-.375v-.671h.843v-.25h-.843Zm-.593.64v2.954H.516Zm0 0"/></symbol><symbol overflow="visible" id="e"><path style="stroke:none" d="M1.094-2.64c0-.657.062-1.235.343-1.72.25-.406.657-.734 1.157-.734.156 0 .515.032.703.297-.36.031-.39.297-.39.375 0 .25.187.375.374.375.14 0 .375-.078.375-.39 0-.47-.36-.86-1.078-.86C1.468-5.297.344-4.25.344-2.53.344-.36 1.359.172 2.125.172c.39 0 .797-.11 1.156-.453.328-.313.594-.64.594-1.344 0-1.031-.797-1.766-1.672-1.766-.578 0-.922.36-1.11.75ZM2.125-.079a.88.88 0 0 1-.797-.516c-.187-.36-.203-.89-.203-1.203 0-.781.422-1.375 1.047-1.375.39 0 .64.203.781.485.172.296.172.656.172 1.062s0 .75-.156 1.047c-.219.36-.485.5-.844.5Zm0 0"/></symbol><symbol overflow="visible" id="f"><path style="stroke:none" d="M2.64-2.875c.454-.219 1-.61 1-1.234 0-.766-.78-1.188-1.515-1.188-.844 0-1.531.578-1.531 1.328 0 .297.094.563.297.797.14.172.171.188.656.5C.563-2.234.344-1.656.344-1.219c0 .89.89 1.39 1.765 1.39.97 0 1.766-.671 1.766-1.515 0-.5-.266-.828-.406-.968-.125-.126-.14-.141-.828-.563Zm-1.234-.75c-.234-.14-.422-.375-.422-.64 0-.5.547-.829 1.125-.829.61 0 1.125.422 1.125.985 0 .453-.359.843-.828 1.078Zm.39 1.094c.032.015.938.578 1.079.656.125.078.547.328.547.813 0 .609-.656.984-1.297.984-.719 0-1.313-.484-1.313-1.14 0-.595.438-1.063.985-1.313Zm0 0"/></symbol><symbol overflow="visible" id="h"><path style="stroke:none" d="M2.5-5.078c0-.219-.016-.219-.234-.219-.329.313-.75.5-1.5.5v.266c.218 0 .64 0 1.109-.203v4.078c0 .297-.031.39-.781.39H.812V0c.329-.031 1.016-.031 1.375-.031.36 0 1.047 0 1.376.031v-.266H3.28c-.75 0-.781-.093-.781-.39Zm0 0"/></symbol><symbol overflow="visible" id="j"><path style="stroke:none" d="M1.11-4.484c.109.03.421.125.765.125 1 0 1.594-.704 1.594-.829 0-.093-.047-.109-.094-.109-.016 0-.031 0-.094.031a2.982 2.982 0 0 1-1.11.22c-.468 0-.858-.11-1.108-.22-.079-.03-.094-.03-.11-.03-.094 0-.094.077-.094.234v2.328c0 .14 0 .234.125.234.063 0 .079-.031.125-.094.094-.11.391-.515 1.079-.515.437 0 .656.359.734.515.125.281.14.656.14.953 0 .297 0 .735-.218 1.079-.156.25-.485.484-.906.484A1.271 1.271 0 0 1 .734-.922c.016.016.079.016.079.016.218 0 .406-.14.406-.39a.388.388 0 0 0-.39-.407c-.157 0-.407.078-.407.422 0 .718.625 1.453 1.531 1.453 1 0 1.844-.781 1.844-1.766 0-.922-.672-1.75-1.61-1.75-.39 0-.765.125-1.078.406Zm0 0"/></symbol><symbol overflow="visible" id="g"><path style="stroke:none" d="M5.563-1.813c.14 0 .312 0 .312-.171 0-.188-.172-.188-.313-.188H1c-.125 0-.297 0-.297.188 0 .171.172.171.297.171Zm0 0"/></symbol><symbol overflow="visible" id="i"><path style="stroke:none" d="M1.625-.438a.463.463 0 0 0-.453-.453.447.447 0 0 0-.438.438.44.44 0 0 0 .438.453.45.45 0 0 0 .453-.438Zm0 0"/></symbol><clipPath id="a"><path d="M18 0h152.219v100H18Zm0 0"/></clipPath></defs><path style="fill:none;stroke-width:.3985;stroke-linecap:round;stroke-linejoin:miter;stroke:gray;stroke-opacity:1;stroke-miterlimit:10" d="M-.002-6.973v1.993M30.08-6.973v1.993M60.159-6.973v1.993M90.237-6.973v1.993M120.319-6.973v1.993M-6.974 0h1.992M-6.974 21.899h1.992M-6.974 43.797h1.992M-6.974 65.692h1.992M-6.974 87.59h1.992" transform="matrix(1 0 0 -1 27.189 90.922)"/><path style="fill:none;stroke-width:.3985;stroke-linecap:butt;stroke-linejoin:miter;stroke:gray;stroke-opacity:1;stroke-miterlimit:10" d="M-.002-4.98h141.735" transform="matrix(1 0 0 -1 27.189 90.922)"/><path style="fill:none;stroke-width:.3985;stroke-linecap:square;stroke-linejoin:miter;stroke:#bfbfbf;stroke-opacity:1;stroke-miterlimit:10" d="M-.002 0h141.735M-.002 87.59h141.735" transform="matrix(1 0 0 -1 27.189 90.922)"/><path style="fill:none;stroke-width:.3985;stroke-linecap:butt;stroke-linejoin:miter;stroke:gray;stroke-opacity:1;stroke-miterlimit:10" d="M-4.982 0v87.59" transform="matrix(1 0 0 -1 27.189 90.922)"/><path style="fill:none;stroke-width:.3985;stroke-linecap:square;stroke-linejoin:miter;stroke:#bfbfbf;stroke-opacity:1;stroke-miterlimit:10" d="M-.002 0v87.59M141.733 0v87.59" transform="matrix(1 0 0 -1 27.189 90.922)"/><g clip-path="url(#a)"><path style="fill:none;stroke-width:.59776;stroke-linecap:butt;stroke-linejoin:miter;stroke:#00f;stroke-opacity:1;stroke-miterlimit:10" d="M-.002 87.59s4.27-1.555 5.907-3.336c1.64-1.777 4.27-6.203 5.906-9.492 1.64-3.285 4.27-9.91 5.906-14.207 1.64-4.297 4.266-12.106 5.907-16.758 1.64-4.648 4.265-12.46 5.906-16.758 1.636-4.297 4.265-10.922 5.906-14.21 1.637-3.286 4.266-7.712 5.906-9.493C42.98 1.555 45.608 0 47.25 0c1.636 0 4.265 1.555 5.906 3.332 1.636 1.781 4.265 6.203 5.902 9.492 1.64 3.29 4.27 9.91 5.906 14.207 1.641 4.293 4.27 12.106 5.907 16.758 1.64 4.649 4.27 12.461 5.906 16.758 1.64 4.297 4.27 10.922 5.906 14.21 1.64 3.29 4.266 7.716 5.906 9.493 1.641 1.781 4.266 3.34 5.907 3.34 1.636 0 4.265-1.55 5.906-3.332 1.637-1.777 4.265-6.2 5.906-9.488 1.637-3.285 4.266-9.91 5.906-14.203 1.637-4.297 4.266-12.11 5.907-16.758 1.636-4.653 4.265-12.461 5.902-16.762 1.64-4.297 4.27-10.922 5.906-14.21 1.64-3.29 4.27-7.716 5.906-9.497 1.641-1.781 5.907-3.34 5.907-3.34" transform="matrix(1 0 0 -1 27.189 90.922)"/><path style="fill:none;stroke-width:.59776;stroke-linecap:butt;stroke-linejoin:miter;stroke:red;stroke-opacity:1;stroke-miterlimit:10" d="M-.002 43.797s4.27 12.46 5.907 16.758c1.64 4.297 4.27 10.918 5.906 14.207 1.64 3.289 4.27 7.71 5.906 9.492 1.64 1.781 4.266 3.336 5.907 3.336 1.64 0 4.265-1.555 5.906-3.332 1.636-1.781 4.265-6.203 5.906-9.492 1.637-3.29 4.266-9.91 5.906-14.207 1.637-4.297 4.266-12.11 5.907-16.758 1.636-4.652 4.265-12.461 5.906-16.758 1.636-4.297 4.265-10.922 5.902-14.21 1.64-3.29 4.27-7.716 5.906-9.497C66.604 1.56 69.233 0 70.87 0c1.64 0 4.27 1.555 5.906 3.332 1.64 1.777 4.27 6.203 5.906 9.488 1.64 3.29 4.266 9.91 5.906 14.207 1.641 4.297 4.266 12.11 5.907 16.758 1.636 4.653 4.265 12.461 5.906 16.758 1.637 4.297 4.265 10.922 5.906 14.211 1.637 3.29 4.266 7.715 5.906 9.496 1.637 1.781 4.266 3.34 5.907 3.34 1.636 0 4.265-1.55 5.902-3.332 1.64-1.777 4.27-6.2 5.906-9.484 1.64-3.29 4.27-9.91 5.906-14.207 1.641-4.297 5.907-16.758 5.907-16.758" transform="matrix(1 0 0 -1 27.189 90.922)"/></g><use xlink:href="#b" x="25.072" y="105.689" style="fill:#000;fill-opacity:1"/><use xlink:href="#c" x="55.151" y="105.689" style="fill:#000;fill-opacity:1"/><use xlink:href="#d" x="85.231" y="105.689" style="fill:#000;fill-opacity:1"/><use xlink:href="#e" x="115.31" y="105.689" style="fill:#000;fill-opacity:1"/><use xlink:href="#f" x="145.389" y="105.689" style="fill:#000;fill-opacity:1"/><use xlink:href="#g" x="6.739" y="93.075" style="fill:#000;fill-opacity:1"/><use xlink:href="#h" x="13.325" y="93.075" style="fill:#000;fill-opacity:1"/><use xlink:href="#g" x=".152" y="71.179" style="fill:#000;fill-opacity:1"/><use xlink:href="#b" x="6.739" y="71.179" style="fill:#000;fill-opacity:1"/><use xlink:href="#i" x="10.973" y="71.179" style="fill:#000;fill-opacity:1"/><use xlink:href="#j" x="13.325" y="71.179" style="fill:#000;fill-opacity:1"/><use xlink:href="#b" x="13.325" y="49.696" style="fill:#000;fill-opacity:1"/><use xlink:href="#b" x="6.739" y="27.798" style="fill:#000;fill-opacity:1"/><use xlink:href="#i" x="10.973" y="27.798" style="fill:#000;fill-opacity:1"/><use xlink:href="#j" x="13.325" y="27.798" style="fill:#000;fill-opacity:1"/><use xlink:href="#h" x="13.325" y="5.901" style="fill:#000;fill-opacity:1"/></svg>