<svg xmlns="http://www.w3.org/2000/svg" width="55.835" height="99.003" viewBox="0 0 41.876 74.252" version="1.2"><defs><clipPath id="a"><path d="M0 61h16v12.879H0Zm0 0"/></clipPath><clipPath id="b"><path d="M2 61h14v12.879H2Zm0 0"/></clipPath><clipPath id="c"><path d="M3 61h14v12.879H3Zm0 0"/></clipPath><clipPath id="d"><path d="M12 60h15v13.879H12Zm0 0"/></clipPath><clipPath id="e"><path d="M12 60h17v13.879H12Zm0 0"/></clipPath><clipPath id="f"><path d="M26 39h15.813v16H26Zm0 0"/></clipPath><clipPath id="g"><path d="M26 39h15.813v13H26Zm0 0"/></clipPath><clipPath id="h"><path d="M29 31h12.813v15H29Zm0 0"/></clipPath><clipPath id="i"><path d="M34 36h7.813v1H34Zm0 0"/></clipPath><clipPath id="j"><path d="M29 28h12.813v15H29Zm0 0"/></clipPath><clipPath id="k"><path d="M26 21h15.813v14H26Zm0 0"/></clipPath><clipPath id="l"><path d="M26 19h15.813v16H26Zm0 0"/></clipPath></defs><path style="fill:none;stroke-width:.3985;stroke-linecap:butt;stroke-linejoin:miter;stroke:#000;stroke-opacity:1;stroke-miterlimit:10" d="m-.002.002 11.34-19.64M11.338-19.639 8.404-30.592" transform="matrix(1 0 0 -1 1.119 36.748)"/><g clip-path="url(#a)"><path style="fill:none;stroke-width:.3985;stroke-linecap:butt;stroke-linejoin:miter;stroke:#000;stroke-opacity:1;stroke-miterlimit:10" d="M8.404-30.592 4.397-34.6" transform="matrix(1 0 0 -1 1.119 36.748)"/></g><g clip-path="url(#b)"><path style="fill:none;stroke-width:.3985;stroke-linecap:butt;stroke-linejoin:miter;stroke:#000;stroke-opacity:1;stroke-miterlimit:10" d="m8.404-30.592-1.468-5.476" transform="matrix(1 0 0 -1 1.119 36.748)"/></g><g clip-path="url(#c)"><path style="fill:none;stroke-width:.3985;stroke-linecap:butt;stroke-linejoin:miter;stroke:#000;stroke-opacity:1;stroke-miterlimit:10" d="m8.404-30.592 1.47-5.476" transform="matrix(1 0 0 -1 1.119 36.748)"/></g><path style="fill:none;stroke-width:.3985;stroke-linecap:butt;stroke-linejoin:miter;stroke:#000;stroke-opacity:1;stroke-miterlimit:10" d="m11.338-19.639 5.672-9.82M17.01-29.459v-5.668" transform="matrix(1 0 0 -1 1.119 36.748)"/><g clip-path="url(#d)"><path style="fill:none;stroke-width:.3985;stroke-linecap:butt;stroke-linejoin:miter;stroke:#000;stroke-opacity:1;stroke-miterlimit:10" d="m17.01-29.459 2.832-4.91" transform="matrix(1 0 0 -1 1.119 36.748)"/></g><g clip-path="url(#e)"><path style="fill:none;stroke-width:.3985;stroke-linecap:butt;stroke-linejoin:miter;stroke:#000;stroke-opacity:1;stroke-miterlimit:10" d="m17.01-29.459 4.906-2.836" transform="matrix(1 0 0 -1 1.119 36.748)"/></g><path style="fill:none;stroke-width:.3985;stroke-linecap:butt;stroke-linejoin:miter;stroke:#000;stroke-opacity:1;stroke-miterlimit:10" d="m11.338-19.639 10.953-2.933M22.291-22.572l4.008-4.012M22.291-22.572l5.477-1.47M22.291-22.572l5.477 1.465M-.002.002h22.68M22.678.002l8.015-8.02M30.694-8.018l1.468-5.476" transform="matrix(1 0 0 -1 1.119 36.748)"/><g clip-path="url(#f)"><path style="fill:none;stroke-width:.3985;stroke-linecap:butt;stroke-linejoin:miter;stroke:#000;stroke-opacity:1;stroke-miterlimit:10" d="m30.694-8.018 4.011-4.007" transform="matrix(1 0 0 -1 1.119 36.748)"/></g><g clip-path="url(#g)"><path style="fill:none;stroke-width:.3985;stroke-linecap:butt;stroke-linejoin:miter;stroke:#000;stroke-opacity:1;stroke-miterlimit:10" d="m30.694-8.018 5.476-1.468" transform="matrix(1 0 0 -1 1.119 36.748)"/></g><path style="fill:none;stroke-width:.3985;stroke-linecap:butt;stroke-linejoin:miter;stroke:#000;stroke-opacity:1;stroke-miterlimit:10" d="M22.678.002h11.34" transform="matrix(1 0 0 -1 1.119 36.748)"/><g clip-path="url(#h)"><path style="fill:none;stroke-width:.3985;stroke-linecap:butt;stroke-linejoin:miter;stroke:#000;stroke-opacity:1;stroke-miterlimit:10" d="m34.018.002 4.91-2.836" transform="matrix(1 0 0 -1 1.119 36.748)"/></g><g clip-path="url(#i)"><path style="fill:none;stroke-width:.3985;stroke-linecap:butt;stroke-linejoin:miter;stroke:#000;stroke-opacity:1;stroke-miterlimit:10" d="M34.018.002h5.668" transform="matrix(1 0 0 -1 1.119 36.748)"/></g><g clip-path="url(#j)"><path style="fill:none;stroke-width:.3985;stroke-linecap:butt;stroke-linejoin:miter;stroke:#000;stroke-opacity:1;stroke-miterlimit:10" d="m34.018.002 4.91 2.832" transform="matrix(1 0 0 -1 1.119 36.748)"/></g><path style="fill:none;stroke-width:.3985;stroke-linecap:butt;stroke-linejoin:miter;stroke:#000;stroke-opacity:1;stroke-miterlimit:10" d="m22.678.002 8.015 8.016" transform="matrix(1 0 0 -1 1.119 36.748)"/><g clip-path="url(#k)"><path style="fill:none;stroke-width:.3985;stroke-linecap:butt;stroke-linejoin:miter;stroke:#000;stroke-opacity:1;stroke-miterlimit:10" d="m30.694 8.018 5.476 1.468" transform="matrix(1 0 0 -1 1.119 36.748)"/></g><g clip-path="url(#l)"><path style="fill:none;stroke-width:.3985;stroke-linecap:butt;stroke-linejoin:miter;stroke:#000;stroke-opacity:1;stroke-miterlimit:10" d="m30.694 8.018 4.011 4.007" transform="matrix(1 0 0 -1 1.119 36.748)"/></g><path style="fill:none;stroke-width:.3985;stroke-linecap:butt;stroke-linejoin:miter;stroke:#000;stroke-opacity:1;stroke-miterlimit:10" d="m30.694 8.018 1.468 5.476M-.002.002l11.34 19.637M11.338 19.639l10.953 2.933M22.291 22.572l5.477-1.465M22.291 22.572l5.477 1.469M22.291 22.572l4.008 4.012M11.338 19.639l5.672 9.82M17.01 29.459l4.906 2.836M17.01 29.459l2.832 4.91M17.01 29.459v5.668M11.338 19.639 8.404 30.592M8.404 30.592l1.47 5.476M8.404 30.592l-1.468 5.476M8.404 30.592 4.397 34.6" transform="matrix(1 0 0 -1 1.119 36.748)"/></svg>