<svg xmlns="http://www.w3.org/2000/svg" width="120.201" height="119.091" viewBox="0 0 90.151 89.318" version="1.2"><defs><clipPath id="a"><path d="M0 79h10v9.977H0Zm0 0"/></clipPath><clipPath id="b"><path d="M37 78h15v10.977H37Zm0 0"/></clipPath><clipPath id="c"><path d="M49 78h15v10.977H49Zm0 0"/></clipPath><clipPath id="d"><path d="M56 78h15v10.977H56Zm0 0"/></clipPath><clipPath id="e"><path d="M61 78h15v10.977H61Zm0 0"/></clipPath><clipPath id="f"><path d="M65 78h15v10.977H65Zm0 0"/></clipPath><clipPath id="g"><path d="M69 78h15v10.977H69Zm0 0"/></clipPath><clipPath id="h"><path d="M71 78h15v10.977H71Zm0 0"/></clipPath><clipPath id="i"><path d="M74 77h15v11.977H74Zm0 0"/></clipPath><clipPath id="j"><path d="M76 77h13.727v11.977H76Zm0 0"/></clipPath><clipPath id="k"><path d="M78 77h11.727v11.977H78Zm0 0"/></clipPath><clipPath id="l"><path d="M80 77h9.727v11.977H80Zm0 0"/></clipPath><clipPath id="m"><path d="M0 79h10v9.977H0Zm0 0"/></clipPath><clipPath id="n"><path d="M75 65h14.727v15H75Zm0 0"/></clipPath><clipPath id="o"><path d="M77 64h12.727v16H77Zm0 0"/></clipPath><clipPath id="p"><path d="M78 64h11.727v15H78Zm0 0"/></clipPath><clipPath id="q"><path d="M0 79h10v9.977H0Zm0 0"/></clipPath><clipPath id="r"><path d="M75 51h14.727v15H75Zm0 0"/></clipPath><clipPath id="s"><path d="M0 79h10v9.977H0Zm0 0"/></clipPath><clipPath id="t"><path d="M0 79h10v9.977H0Zm0 0"/></clipPath><clipPath id="u"><path d="M0 79h10v9.977H0Zm0 0"/></clipPath><clipPath id="v"><path d="M0 79h10v9.977H0Zm0 0"/></clipPath><clipPath id="w"><path d="M0 79h10v9.977H0Zm0 0"/></clipPath><clipPath id="x"><path d="M0 79h10v9.977H0Zm0 0"/></clipPath><clipPath id="y"><path d="M0 79h10v9.977H0Zm0 0"/></clipPath></defs><g clip-path="url(#a)"><path style="fill:none;stroke-width:.3985;stroke-linecap:butt;stroke-linejoin:miter;stroke:#000;stroke-opacity:1;stroke-miterlimit:10" d="m-1.41-1.409 2.82 2.816m-2.82 0 2.82-2.816" transform="matrix(1 0 0 -1 2.134 86.423)"/></g><g clip-path="url(#b)"><path style="fill:none;stroke-width:.3985;stroke-linecap:butt;stroke-linejoin:miter;stroke:#000;stroke-opacity:1;stroke-miterlimit:10" d="M41.105-.667 43.92 2.15m-2.816 0L43.92-.667" transform="matrix(1 0 0 -1 2.134 86.423)"/></g><g clip-path="url(#c)"><path style="fill:none;stroke-width:.3985;stroke-linecap:butt;stroke-linejoin:miter;stroke:#000;stroke-opacity:1;stroke-miterlimit:10" d="m52.952-.46 2.82 2.817m-2.82 0 2.82-2.817" transform="matrix(1 0 0 -1 2.134 86.423)"/></g><g clip-path="url(#d)"><path style="fill:none;stroke-width:.3985;stroke-linecap:butt;stroke-linejoin:miter;stroke:#000;stroke-opacity:1;stroke-miterlimit:10" d="m60.113-.335 2.82 2.817m-2.82 0 2.82-2.817" transform="matrix(1 0 0 -1 2.134 86.423)"/></g><g clip-path="url(#e)"><path style="fill:none;stroke-width:.3985;stroke-linecap:butt;stroke-linejoin:miter;stroke:#000;stroke-opacity:1;stroke-miterlimit:10" d="m65.261-.245 2.816 2.816m-2.816 0 2.816-2.816" transform="matrix(1 0 0 -1 2.134 86.423)"/></g><g clip-path="url(#f)"><path style="fill:none;stroke-width:.3985;stroke-linecap:butt;stroke-linejoin:miter;stroke:#000;stroke-opacity:1;stroke-miterlimit:10" d="m69.28-.175 2.817 2.817m-2.816 0 2.816-2.817" transform="matrix(1 0 0 -1 2.134 86.423)"/></g><g clip-path="url(#g)"><path style="fill:none;stroke-width:.3985;stroke-linecap:butt;stroke-linejoin:miter;stroke:#000;stroke-opacity:1;stroke-miterlimit:10" d="M72.581-.116 75.398 2.7m-2.817 0 2.817-2.816" transform="matrix(1 0 0 -1 2.134 86.423)"/></g><g clip-path="url(#h)"><path style="fill:none;stroke-width:.3985;stroke-linecap:butt;stroke-linejoin:miter;stroke:#000;stroke-opacity:1;stroke-miterlimit:10" d="m75.378-.07 2.817 2.821m-2.817 0 2.817-2.82" transform="matrix(1 0 0 -1 2.134 86.423)"/></g><g clip-path="url(#i)"><path style="fill:none;stroke-width:.3985;stroke-linecap:butt;stroke-linejoin:miter;stroke:#000;stroke-opacity:1;stroke-miterlimit:10" d="m77.804-.026 2.82 2.816m-2.82 0 2.82-2.816" transform="matrix(1 0 0 -1 2.134 86.423)"/></g><g clip-path="url(#j)"><path style="fill:none;stroke-width:.3985;stroke-linecap:butt;stroke-linejoin:miter;stroke:#000;stroke-opacity:1;stroke-miterlimit:10" d="m79.952.013 2.82 2.816m-2.82 0 2.82-2.816" transform="matrix(1 0 0 -1 2.134 86.423)"/></g><g clip-path="url(#k)"><path style="fill:none;stroke-width:.3985;stroke-linecap:butt;stroke-linejoin:miter;stroke:#000;stroke-opacity:1;stroke-miterlimit:10" d="m81.878.044 2.817 2.82m-2.817 0 2.817-2.82" transform="matrix(1 0 0 -1 2.134 86.423)"/></g><g clip-path="url(#l)"><path style="fill:none;stroke-width:.3985;stroke-linecap:butt;stroke-linejoin:miter;stroke:#000;stroke-opacity:1;stroke-miterlimit:10" d="m83.617.075 2.82 2.817m-2.82 0 2.82-2.817" transform="matrix(1 0 0 -1 2.134 86.423)"/></g><g clip-path="url(#m)"><path style="fill:none;stroke-width:.3985;stroke-linecap:butt;stroke-linejoin:miter;stroke:#000;stroke-opacity:1;stroke-miterlimit:10" d="m-1.41-1.409 2.82 2.816m-2.82 0 2.82-2.816" transform="matrix(1 0 0 -1 2.134 86.423)"/></g><path style="fill:none;stroke-width:.3985;stroke-linecap:butt;stroke-linejoin:miter;stroke:#000;stroke-opacity:1;stroke-miterlimit:10" d="m40.464 5.974 2.82 2.82m-2.82 0 2.82-2.82M52.136 8.032l2.82 2.817m-2.82 0 2.82-2.817M59.19 9.275l2.817 2.82m-2.816 0 2.816-2.82M64.257 10.17l2.82 2.816m-2.82 0 2.82-2.817M68.218 10.868l2.816 2.817m-2.816 0 2.816-2.817M71.468 11.443l2.816 2.816m-2.816 0 2.816-2.816M74.222 11.927l2.82 2.816m-2.82 0 2.82-2.816M76.613 12.349l2.82 2.816m-2.82 0 2.82-2.816" transform="matrix(1 0 0 -1 2.134 86.423)"/><g clip-path="url(#n)"><path style="fill:none;stroke-width:.3985;stroke-linecap:butt;stroke-linejoin:miter;stroke:#000;stroke-opacity:1;stroke-miterlimit:10" d="m78.73 12.72 2.82 2.82m-2.82 0 2.82-2.82" transform="matrix(1 0 0 -1 2.134 86.423)"/></g><g clip-path="url(#o)"><path style="fill:none;stroke-width:.3985;stroke-linecap:butt;stroke-linejoin:miter;stroke:#000;stroke-opacity:1;stroke-miterlimit:10" d="m80.624 13.056 2.817 2.816m-2.817 0 2.817-2.816" transform="matrix(1 0 0 -1 2.134 86.423)"/></g><g clip-path="url(#p)"><path style="fill:none;stroke-width:.3985;stroke-linecap:butt;stroke-linejoin:miter;stroke:#000;stroke-opacity:1;stroke-miterlimit:10" d="m82.34 13.357 2.82 2.82m-2.82 0 2.82-2.82" transform="matrix(1 0 0 -1 2.134 86.423)"/></g><g clip-path="url(#q)"><path style="fill:none;stroke-width:.3985;stroke-linecap:butt;stroke-linejoin:miter;stroke:#000;stroke-opacity:1;stroke-miterlimit:10" d="m-1.41-1.409 2.82 2.816m-2.82 0 2.82-2.816" transform="matrix(1 0 0 -1 2.134 86.423)"/></g><path style="fill:none;stroke-width:.3985;stroke-linecap:butt;stroke-linejoin:miter;stroke:#000;stroke-opacity:1;stroke-miterlimit:10" d="m38.796 12.435 2.817 2.816m-2.817 0 2.817-2.816M50 16.294l2.82 2.816m-2.82 0 2.82-2.816M56.773 18.626l2.816 2.817m-2.816 0 2.816-2.817M61.636 20.302l2.82 2.816m-2.82 0 2.82-2.816M65.44 21.61l2.817 2.817m-2.816 0 2.816-2.817M68.562 22.685l2.816 2.816m-2.816 0 2.816-2.816M71.206 23.595l2.817 2.816m-2.817 0 2.817-2.816M73.5 24.384l2.82 2.82m-2.82 0 2.82-2.82M75.534 25.083l2.817 2.82m-2.817 0 2.817-2.82M77.35 25.712l2.821 2.816m-2.82 0 2.82-2.816" transform="matrix(1 0 0 -1 2.134 86.423)"/><g clip-path="url(#r)"><path style="fill:none;stroke-width:.3985;stroke-linecap:butt;stroke-linejoin:miter;stroke:#000;stroke-opacity:1;stroke-miterlimit:10" d="m79 26.278 2.816 2.817m-2.817 0 2.817-2.817" transform="matrix(1 0 0 -1 2.134 86.423)"/></g><g clip-path="url(#s)"><path style="fill:none;stroke-width:.3985;stroke-linecap:butt;stroke-linejoin:miter;stroke:#000;stroke-opacity:1;stroke-miterlimit:10" d="m-1.41-1.409 2.82 2.816m-2.82 0 2.82-2.816" transform="matrix(1 0 0 -1 2.134 86.423)"/></g><path style="fill:none;stroke-width:.3985;stroke-linecap:butt;stroke-linejoin:miter;stroke:#000;stroke-opacity:1;stroke-miterlimit:10" d="m36.136 18.552 2.816 2.82m-2.816 0 2.816-2.82M46.597 24.118l2.82 2.817m-2.82 0 2.82-2.817M52.921 27.478l2.817 2.82m-2.817 0 2.817-2.82M57.464 29.896l2.82 2.816m-2.82 0 2.82-2.816M61.015 31.782l2.82 2.817m-2.82 0 2.82-2.817M63.929 33.333l2.816 2.817m-2.816 0 2.816-2.817M66.398 34.646l2.82 2.816m-2.82 0 2.82-2.816M68.542 35.786l2.82 2.817m-2.82 0 2.82-2.817M70.44 36.794l2.821 2.817m-2.82 0 2.82-2.817M72.14 37.696l2.816 2.817m-2.816 0 2.816-2.817M73.679 38.513l2.816 2.82m-2.816 0 2.816-2.82" transform="matrix(1 0 0 -1 2.134 86.423)"/><g clip-path="url(#t)"><path style="fill:none;stroke-width:.3985;stroke-linecap:butt;stroke-linejoin:miter;stroke:#000;stroke-opacity:1;stroke-miterlimit:10" d="m-1.41-1.409 2.82 2.816m-2.82 0 2.82-2.816" transform="matrix(1 0 0 -1 2.134 86.423)"/></g><path style="fill:none;stroke-width:.3985;stroke-linecap:butt;stroke-linejoin:miter;stroke:#000;stroke-opacity:1;stroke-miterlimit:10" d="m32.55 24.18 2.817 2.817m-2.817 0 2.817-2.816M42.015 31.314l2.816 2.816m-2.816 0 2.816-2.816M47.734 35.622l2.816 2.82m-2.816 0 2.816-2.82M51.843 38.72l2.82 2.816m-2.82 0 2.82-2.816M55.054 41.142l2.82 2.816m-2.82 0 2.82-2.816M57.69 43.126l2.817 2.817m-2.816 0 2.816-2.817M59.925 44.81l2.817 2.816m-2.817 0 2.817-2.816M61.863 46.27l2.82 2.817m-2.82 0 2.82-2.816M63.581 47.564l2.817 2.82m-2.817 0 2.817-2.82M65.117 48.72l2.816 2.82m-2.817 0 2.817-2.82M66.507 49.77l2.82 2.817m-2.82 0 2.82-2.816" transform="matrix(1 0 0 -1 2.134 86.423)"/><g clip-path="url(#u)"><path style="fill:none;stroke-width:.3985;stroke-linecap:butt;stroke-linejoin:miter;stroke:#000;stroke-opacity:1;stroke-miterlimit:10" d="m-1.41-1.409 2.82 2.816m-2.82 0 2.82-2.816" transform="matrix(1 0 0 -1 2.134 86.423)"/></g><path style="fill:none;stroke-width:.3985;stroke-linecap:butt;stroke-linejoin:miter;stroke:#000;stroke-opacity:1;stroke-miterlimit:10" d="m28.128 29.177 2.817 2.82m-2.817 0 2.817-2.82M36.359 37.704l2.82 2.817m-2.82 0 2.82-2.817M41.335 42.853l2.817 2.82m-2.817 0 2.817-2.82M44.91 46.556l2.82 2.82m-2.82 0 2.82-2.82M47.702 49.45l2.82 2.817m-2.82 0 2.82-2.817M49.995 51.821l2.817 2.82m-2.817 0 2.817-2.82M51.94 53.833l2.817 2.82m-2.816 0 2.816-2.82M53.624 55.583l2.82 2.817m-2.82 0 2.82-2.817M55.12 57.126l2.817 2.82m-2.817 0 2.817-2.82M56.456 58.513l2.817 2.816m-2.817 0 2.817-2.816M57.663 59.763l2.82 2.82m-2.82 0 2.82-2.82" transform="matrix(1 0 0 -1 2.134 86.423)"/><g clip-path="url(#v)"><path style="fill:none;stroke-width:.3985;stroke-linecap:butt;stroke-linejoin:miter;stroke:#000;stroke-opacity:1;stroke-miterlimit:10" d="m-1.41-1.409 2.82 2.816m-2.82 0 2.82-2.816" transform="matrix(1 0 0 -1 2.134 86.423)"/></g><path style="fill:none;stroke-width:.3985;stroke-linecap:butt;stroke-linejoin:miter;stroke:#000;stroke-opacity:1;stroke-miterlimit:10" d="m22.98 33.423 2.816 2.816m-2.816 0 2.816-2.816M29.777 43.13l2.82 2.816m-2.82 0 2.82-2.816M33.886 48.997l2.816 2.817m-2.816 0 2.816-2.817M36.835 53.212l2.82 2.816m-2.82 0 2.82-2.816M39.144 56.505l2.816 2.816m-2.816 0 2.816-2.816M41.034 59.208l2.82 2.817m-2.82 0 2.82-2.817M42.64 61.501l2.82 2.817m-2.82 0 2.82-2.817M44.034 63.49l2.817 2.816m-2.817 0 2.817-2.817M45.265 65.251l2.82 2.817m-2.82 0 2.82-2.817M46.37 66.825l2.817 2.817m-2.817 0 2.817-2.817M47.367 68.251l2.82 2.82m-2.82 0 2.82-2.82" transform="matrix(1 0 0 -1 2.134 86.423)"/><g clip-path="url(#w)"><path style="fill:none;stroke-width:.3985;stroke-linecap:butt;stroke-linejoin:miter;stroke:#000;stroke-opacity:1;stroke-miterlimit:10" d="m-1.41-1.409 2.82 2.816m-2.82 0 2.82-2.816" transform="matrix(1 0 0 -1 2.134 86.423)"/></g><path style="fill:none;stroke-width:.3985;stroke-linecap:butt;stroke-linejoin:miter;stroke:#000;stroke-opacity:1;stroke-miterlimit:10" d="m17.23 36.806 2.82 2.82m-2.82 0 2.82-2.82M22.425 47.458l2.82 2.82m-2.82 0 2.82-2.82M25.566 53.896l2.816 2.816m-2.816 0 2.816-2.816M27.82 58.52l2.82 2.821m-2.82 0 2.82-2.82M29.585 62.134l2.817 2.82m-2.817 0 2.817-2.82M31.03 65.103l2.817 2.816m-2.816 0 2.816-2.816M32.257 67.614l2.817 2.82m-2.817 0 2.817-2.82M33.32 69.798l2.82 2.816m-2.82 0 2.82-2.816M34.265 71.732l2.816 2.816m-2.816 0 2.816-2.816M35.105 73.458l2.82 2.817m-2.82 0 2.82-2.817M35.87 75.025l2.817 2.816m-2.817 0 2.817-2.816" transform="matrix(1 0 0 -1 2.134 86.423)"/><g clip-path="url(#x)"><path style="fill:none;stroke-width:.3985;stroke-linecap:butt;stroke-linejoin:miter;stroke:#000;stroke-opacity:1;stroke-miterlimit:10" d="m-1.41-1.409 2.82 2.816m-2.82 0 2.82-2.816" transform="matrix(1 0 0 -1 2.134 86.423)"/></g><path style="fill:none;stroke-width:.3985;stroke-linecap:butt;stroke-linejoin:miter;stroke:#000;stroke-opacity:1;stroke-miterlimit:10" d="m11.023 39.251 2.816 2.82m-2.816 0 2.816-2.82M14.488 50.587l2.816 2.816m-2.816 0 2.816-2.816M16.581 57.435l2.817 2.816m-2.817 0 2.817-2.816M18.085 62.357l2.82 2.816m-2.82 0 2.82-2.816M19.261 66.2l2.82 2.82m-2.82 0 2.82-2.82M20.226 69.357l2.82 2.82m-2.82 0 2.82-2.82M21.046 72.032l2.817 2.817m-2.817 0 2.817-2.817M21.753 74.357l2.82 2.816m-2.82 0 2.82-2.816M22.382 76.411l2.82 2.817m-2.82 0 2.82-2.817M22.945 78.247l2.82 2.82m-2.82 0 2.82-2.82M23.456 79.915l2.817 2.817m-2.817 0 2.817-2.817" transform="matrix(1 0 0 -1 2.134 86.423)"/><g clip-path="url(#y)"><path style="fill:none;stroke-width:.3985;stroke-linecap:butt;stroke-linejoin:miter;stroke:#000;stroke-opacity:1;stroke-miterlimit:10" d="m-1.41-1.409 2.82 2.816m-2.82 0 2.82-2.816" transform="matrix(1 0 0 -1 2.134 86.423)"/></g><path style="fill:none;stroke-width:.3985;stroke-linecap:butt;stroke-linejoin:miter;stroke:#000;stroke-opacity:1;stroke-miterlimit:10" d="m4.507 40.696 2.82 2.82m-2.82 0 2.82-2.82M6.16 52.435l2.816 2.816m-2.817 0 2.817-2.816M7.156 59.525l2.816 2.816m-2.816 0 2.816-2.816M7.87 64.622l2.82 2.817m-2.82 0 2.82-2.817M8.429 68.603l2.82 2.816m-2.82 0 2.82-2.816M8.89 71.872l2.816 2.817m-2.816 0 2.816-2.817M9.28 74.642l2.817 2.816m-2.816 0 2.816-2.816M9.617 77.044l2.82 2.82m-2.82 0 2.82-2.82M9.917 79.173l2.817 2.82m-2.817 0 2.817-2.82M10.183 81.08l2.82 2.816m-2.82 0 2.82-2.817M10.425 82.802l2.82 2.82m-2.82 0 2.82-2.82" transform="matrix(1 0 0 -1 2.134 86.423)"/></svg>