<svg xmlns="http://www.w3.org/2000/svg" width="23.151" height="12.531" viewBox="0 0 17.363 9.398" version="1.2"><defs><clipPath id="a"><path d="M0 0h17.043v9.098H0Zm0 0"/></clipPath></defs><g clip-path="url(#a)"><path style="fill:none;stroke-width:.3985;stroke-linecap:butt;stroke-linejoin:miter;stroke:#000;stroke-opacity:1;stroke-miterlimit:10" d="M.997-.001A.995.995 0 1 1-.995 0 .995.995 0 0 1 .996 0Zm2.988 2.988c0 .55-.446 1-.996 1a.999.999 0 0 1 0-1.996c.55 0 .996.45.996.996Zm2.988 0c0 .55-.445 1-.996 1a.999.999 0 0 1 0-1.996c.55 0 .996.45.996.996ZM9.961-.001A.995.995 0 1 1 7.971 0 .995.995 0 0 1 9.96 0Zm0 0" transform="matrix(1 0 0 -1 3.878 4.901)"/><path style="fill:none;stroke-width:.3985;stroke-linecap:butt;stroke-linejoin:miter;stroke:#000;stroke-opacity:1;stroke-miterlimit:10" d="M2.989-.001a2.988 2.988 0 1 1-5.977 0 2.988 2.988 0 0 1 5.977 0Zm8.965 0a2.988 2.988 0 1 1-5.977 0 2.988 2.988 0 0 1 5.977 0Zm0 0" transform="matrix(1 0 0 -1 3.878 4.901)"/></g></svg>