<svg xmlns="http://www.w3.org/2000/svg" width="116.475" height="78.819" viewBox="0 0 87.356 59.114" version="1.2"><defs><clipPath id="a"><path d="M0 0h64v58.672H0Zm0 0"/></clipPath></defs><path style="fill:none;stroke-width:.19925;stroke-linecap:butt;stroke-linejoin:miter;stroke:gray;stroke-opacity:1;stroke-miterlimit:10" d="M0-.002h85.039M-.001 28.346h85.04M-.001 56.682h85.04M-.001-.002v56.696M28.348-.002v56.696M56.695-.002v56.696M85.03-.002v56.696" transform="matrix(1 0 0 -1 .895 57.467)"/><g clip-path="url(#a)"><path style="fill:none;stroke-width:.3985;stroke-linecap:butt;stroke-linejoin:miter;stroke:#000;stroke-opacity:1;stroke-miterlimit:10" d="M14.175-.002a21.81 21.81 0 0 1-.273 2.766c-.211.902-.48 1.793-.809 2.66a21.33 21.33 0 0 1-1.308 2.45 21.11 21.11 0 0 1-1.762 2.148 21.545 21.545 0 0 1-2.148 1.761 21.05 21.05 0 0 1-2.45 1.309c-.87.328-1.757.598-2.66.809-.914.152-1.84.242-2.765.273M28.347-.002A42.986 42.986 0 0 1 27.8 5.53a41.274 41.274 0 0 1-1.613 5.317 42.112 42.112 0 0 1-2.617 4.902 42.688 42.688 0 0 1-3.527 4.297 43.141 43.141 0 0 1-4.293 3.524 42.753 42.753 0 0 1-4.903 2.617 41.462 41.462 0 0 1-5.316 1.613A42.368 42.368 0 0 1 0 28.346M42.52-.002a63.547 63.547 0 0 1-.817 8.297 63.827 63.827 0 0 1-2.422 7.977 62.823 62.823 0 0 1-3.93 7.347 63.327 63.327 0 0 1-5.285 6.446 63.795 63.795 0 0 1-6.445 5.289 63.439 63.439 0 0 1-7.352 3.925 62.984 62.984 0 0 1-7.976 2.422 64.107 64.107 0 0 1-8.293.82M56.695-.001A85.418 85.418 0 0 1 55.6 11.061a84.188 84.188 0 0 1-3.226 10.633 84.516 84.516 0 0 1-5.239 9.8 85.835 85.835 0 0 1-7.047 8.594 85.873 85.873 0 0 1-8.593 7.05 85.088 85.088 0 0 1-9.801 5.235 84.91 84.91 0 0 1-10.637 3.23c-3.66.602-7.351.966-11.058 1.09M0-.001H56.695M0-.002 13.957 2.46c4.656.824 9.308 1.645 13.96 2.465l13.958 2.461 13.957 2.46M0-.001c4.44 1.617 8.878 3.235 13.32 4.848 4.437 1.617 8.879 3.234 13.316 4.848 4.442 1.617 8.88 3.234 13.32 4.847 4.438 1.617 8.88 3.235 13.317 4.848M0-.001c4.093 2.363 8.183 4.726 12.273 7.09 4.094 2.358 8.184 4.722 12.277 7.085 4.09 2.363 8.184 4.723 12.274 7.086 4.09 2.363 8.183 4.727 12.273 7.086M0-.002c3.62 3.04 7.238 6.074 10.859 9.114l10.855 9.109c3.621 3.035 7.239 6.074 10.86 9.11 3.617 3.038 7.238 6.073 10.855 9.113M0-.002c3.04 3.621 6.075 7.239 9.11 10.86 3.039 3.617 6.074 7.238 9.113 10.855 3.035 3.621 6.074 7.238 9.11 10.86l9.109 10.855M0-.002c2.363 4.094 4.726 8.184 7.085 12.278 2.364 4.09 4.727 8.183 7.09 12.273 2.36 4.09 4.723 8.184 7.086 12.273 2.36 4.094 4.723 8.184 7.086 12.278M0-.002c1.617 4.442 3.23 8.88 4.847 13.32 1.617 4.442 3.23 8.88 4.848 13.32 1.617 4.438 3.23 8.88 4.848 13.317 1.617 4.442 3.23 8.88 4.847 13.32M0-.001 2.46 13.96l2.461 13.957 2.461 13.957 2.461 13.961M0-.002c0 4.727.003 9.45.003 14.176v14.172c.004 4.726.004 9.45.004 14.172 0 4.726 0 9.449.004 14.176" transform="matrix(1 0 0 -1 .895 57.467)"/></g></svg>