<svg xmlns="http://www.w3.org/2000/svg" xmlns:xlink="http://www.w3.org/1999/xlink" width="55.419" height="66.627" viewBox="0 0 41.564 49.97" version="1.2"><defs><symbol overflow="visible" id="a"><path style="stroke:none" d="M4.5-4.297c0-.047-.031-.094-.094-.094-.11 0-.515.391-.672.688-.218-.547-.609-.703-.937-.703-1.172 0-2.39 1.468-2.39 2.922C.406-.516.983.109 1.718.109c.422 0 .812-.234 1.172-.593-.094.343-.422 1.687-.454 1.78-.078.282-.156.313-.718.329-.125 0-.219 0-.219.203 0 0 0 .11.125.11.313 0 .672-.032 1-.032.328 0 .688.032 1.031.032.047 0 .172 0 .172-.204 0-.109-.094-.109-.265-.109-.47 0-.47-.063-.47-.156 0-.078.016-.14.032-.219ZM1.75-.109c-.61 0-.64-.766-.64-.938 0-.484.28-1.562.452-1.984.313-.735.829-1.156 1.235-1.156.656 0 .797.812.797.875 0 .062-.547 2.25-.578 2.28-.157.282-.72.923-1.266.923Zm0 0"/></symbol><symbol overflow="visible" id="b"><path style="stroke:none" d="M3.594-2.219c0-.765-.094-1.328-.406-1.812-.22-.313-.657-.594-1.204-.594C.36-4.625.36-2.719.36-2.219c0 .5 0 2.36 1.625 2.36 1.61 0 1.61-1.86 1.61-2.36ZM1.984-.063c-.328 0-.75-.187-.89-.75C1-1.219 1-1.796 1-2.313c0-.515 0-1.046.094-1.421.156-.547.593-.704.89-.704.375 0 .735.235.86.641.11.375.125.875.125 1.485 0 .515 0 1.03-.094 1.468-.14.64-.61.781-.89.781Zm0 0"/></symbol></defs><path style="stroke:none;fill-rule:nonzero;fill:#8080ff;fill-opacity:1" d="M29.145 34.77c0-7.829-6.344-14.176-14.172-14.176S.8 26.94.8 34.77c0 7.828 6.344 14.171 14.172 14.171s14.172-6.343 14.172-14.171Zm0 0"/><use xlink:href="#a" x="32.313" y="5.373" style="fill:#000;fill-opacity:1"/><use xlink:href="#b" x="36.761" y="6.867" style="fill:#000;fill-opacity:1"/><path style="fill:none;stroke-width:.19925;stroke-linecap:butt;stroke-linejoin:miter;stroke:gray;stroke-opacity:1;stroke-miterlimit:10" d="M8.343 11.703 17.07 23.94" transform="matrix(1 0 0 -1 14.973 34.769)"/></svg>