<svg xmlns="http://www.w3.org/2000/svg" xmlns:xlink="http://www.w3.org/1999/xlink" width="37.6pt" height="21.387" viewBox="0 0 37.6 16.04" version="1.2"><defs><symbol overflow="visible" id="b"><path style="stroke:none" d="M8.578 0v-.469H7.5v-5.906h1.078v-.469c-.39.032-1.36.032-1.797.032-.422 0-1.39 0-1.781-.032v.469h1.078v2.594H2.875v-2.594h1.078v-.469c-.375.032-1.344.032-1.781.032-.422 0-1.406 0-1.781-.032v.469h1.078v5.906H.39V0C.766-.031 1.75-.031 2.17-.031c.438 0 1.407 0 1.782.031v-.469H2.875v-2.844h3.203v2.844H5V0c.39-.031 1.36-.031 1.781-.031.438 0 1.407 0 1.797.031Zm0 0"/></symbol><symbol overflow="visible" id="c"><path style="stroke:none" d="M5.516-.234c0-.235-.125-.235-.266-.235-.61-.015-.61-.14-.61-.375v-2.14c0-.891-.702-1.532-2.187-1.532-.562 0-1.781.047-1.781.922 0 .438.344.625.61.625.312 0 .624-.219.624-.625 0-.297-.187-.469-.218-.5a5.28 5.28 0 0 1 .718-.062c.75 0 1.11.422 1.11 1.172v.343c-.72.032-3.25.125-3.25 1.563C.266-.125 1.5.062 2.187.062c.797 0 1.266-.406 1.485-.828 0 .313 0 .766 1.047.766h.468c.204 0 .329 0 .329-.234Zm-2-1.157c0 .97-.922 1.094-1.172 1.094-.516 0-.906-.344-.906-.797 0-1.062 1.578-1.203 2.078-1.234Zm0 0"/></symbol><symbol overflow="visible" id="d"><path style="stroke:none" d="M2.922 0v-.469h-.688v-6.453L.47-6.844v.469c.625 0 .687 0 .687.39v5.516H.47V0l1.219-.031Zm0 0"/></symbol><symbol overflow="visible" id="e"><path style="stroke:none" d="M5.406-2.172c0-1.344-.922-2.344-2.547-2.344C1.22-4.516.313-3.5.313-2.172c0 1.235.89 2.235 2.546 2.235 1.672 0 2.547-1.016 2.547-2.235Zm-1.281-.11c0 .86 0 1.938-1.266 1.938-1.265 0-1.265-1.078-1.265-1.937 0-.453 0-.953.172-1.297.187-.375.609-.578 1.093-.578.422 0 .844.156 1.063.5.203.344.203.89.203 1.375Zm0 0"/></symbol><clipPath id="a"><path d="M0 0h37.398v15.559H0Zm0 0"/></clipPath></defs><path style="stroke:none;fill-rule:nonzero;fill:#fcc;fill-opacity:1" d="M18.602.727h10.78a6.81 6.81 0 0 1 0 13.617H7.817a6.81 6.81 0 0 1 0-13.617Zm0 0"/><g clip-path="url(#a)"><path style="fill:none;stroke-width:.3985;stroke-linecap:butt;stroke-linejoin:miter;stroke:#000;stroke-opacity:1;stroke-miterlimit:10" d="M.002 6.81h10.78a6.81 6.81 0 0 0 0-13.618h-21.566a6.81 6.81 0 0 0 0 13.617Zm0 0" transform="matrix(1 0 0 -1 18.6 7.536)"/></g><g style="fill:#000;fill-opacity:1"><use xlink:href="#b" x="5.29" y="10.963"/><use xlink:href="#c" x="14.256" y="10.963"/><use xlink:href="#d" x="19.825" y="10.963"/><use xlink:href="#d" x="23.004" y="10.963"/><use xlink:href="#e" x="26.182" y="10.963"/></g></svg>