<svg xmlns="http://www.w3.org/2000/svg" width="29.244" height="9.387" viewBox="0 0 21.933 7.04" version="1.2"><defs><clipPath id="a"><path d="M0 0h21.898v6.559H0Zm0 0"/></clipPath><clipPath id="b"><path d="M4 0h17.898v6.559H4Zm0 0"/></clipPath></defs><path style="fill:none;stroke-width:.79701;stroke-linecap:butt;stroke-linejoin:miter;stroke:#000;stroke-opacity:1;stroke-miterlimit:10" d="M.001 2.213h8.121" transform="matrix(1 0 0 -1 .976 5.248)"/><path style="stroke:none;fill-rule:nonzero;fill:#000;fill-opacity:1" d="m12.074 3.035-4.152-1.57 1.375 1.57-1.375 1.57Zm0 0"/><g clip-path="url(#a)"><path style="fill:none;stroke-width:.79701;stroke-linecap:butt;stroke-linejoin:miter;stroke:#000;stroke-opacity:1;stroke-miterlimit:10" d="m5.44.001-4.152 1.57L2.663.001l-1.375-1.57Zm0 0" transform="matrix(1 0 0 -1 6.634 3.036)"/></g><path style="stroke:none;fill-rule:nonzero;fill:#000;fill-opacity:1" d="m19.766 3.035-4.153-1.57 1.375 1.57-1.375 1.57Zm0 0"/><g clip-path="url(#b)"><path style="fill:none;stroke-width:.79701;stroke-linecap:butt;stroke-linejoin:miter;stroke:#000;stroke-opacity:1;stroke-miterlimit:10" d="m5.44.001-4.152 1.57L2.663.001l-1.375-1.57Zm0 0" transform="matrix(1 0 0 -1 14.326 3.036)"/></g></svg>