<svg xmlns="http://www.w3.org/2000/svg" width="154.875" height="78.531" viewBox="0 0 116.156 58.898" version="1.2"><defs><clipPath id="a"><path d="M0 9h50v49.848H0Zm0 0"/></clipPath><clipPath id="b"><path d="M59 9h55v49.848H59Zm0 0"/></clipPath><clipPath id="c"><path d="M0 23h50v35.848H0Zm0 0"/></clipPath><clipPath id="d"><path d="M66 9h41v49.848H66Zm0 0"/></clipPath><clipPath id="e"><path d="M0 37h50v21.848H0Zm0 0"/></clipPath><clipPath id="f"><path d="M73 9h27v49.848H73Zm0 0"/></clipPath></defs><path style="fill:none;stroke-width:.19925;stroke-linecap:butt;stroke-linejoin:miter;stroke:gray;stroke-opacity:1;stroke-miterlimit:10" d="M.001 0h113.387M0 28.347h113.387M0 56.683h113.387M0 0v56.695M28.35 0v56.695M56.693 0v56.695M85.04 0v56.695M113.376 0v56.695" transform="matrix(1 0 0 -1 1.245 57.742)"/><path style="stroke:none;fill-rule:nonzero;fill:#ccf;fill-opacity:1" d="M22.504 15.02 1.246 57.54h42.52Zm0 0"/><g clip-path="url(#a)"><path style="fill:none;stroke-width:.3985;stroke-linecap:butt;stroke-linejoin:miter;stroke:#4040ff;stroke-opacity:1;stroke-miterlimit:10" d="M21.259 42.722 0 .202h42.52Zm0 0" transform="matrix(1 0 0 -1 1.245 57.742)"/></g><path style="stroke:none;fill-rule:nonzero;fill:#ccf;fill-opacity:1" d="M86.285 15.02 65.023 57.54h42.524Zm0 0"/><g clip-path="url(#b)"><path style="fill:none;stroke-width:.3985;stroke-linecap:butt;stroke-linejoin:miter;stroke:#4040ff;stroke-opacity:1;stroke-miterlimit:10" d="M85.04 42.722 63.778.202h42.524Zm0 0" transform="matrix(1 0 0 -1 1.245 57.742)"/></g><path style="stroke:none;fill-rule:nonzero;fill:#cfc;fill-opacity:1" d="M22.504 29.195 1.246 57.543h42.52Zm0 0"/><g clip-path="url(#c)"><path style="fill:none;stroke-width:.3985;stroke-linecap:butt;stroke-linejoin:miter;stroke:#40ff40;stroke-opacity:1;stroke-miterlimit:10" d="M21.259 28.547 0 .199h42.52Zm0 0" transform="matrix(1 0 0 -1 1.245 57.742)"/></g><path style="stroke:none;fill-rule:nonzero;fill:#cfc;fill-opacity:1" d="M86.285 15.02 72.113 57.54h28.344Zm0 0"/><g clip-path="url(#d)"><path style="fill:none;stroke-width:.3985;stroke-linecap:butt;stroke-linejoin:miter;stroke:#40ff40;stroke-opacity:1;stroke-miterlimit:10" d="M85.04 42.722 70.868.202h28.344Zm0 0" transform="matrix(1 0 0 -1 1.245 57.742)"/></g><path style="stroke:none;fill-rule:nonzero;fill:#fcc;fill-opacity:1" d="M22.504 43.371 1.246 57.543h42.52Zm0 0"/><g clip-path="url(#e)"><path style="fill:none;stroke-width:.3985;stroke-linecap:butt;stroke-linejoin:miter;stroke:#ff4040;stroke-opacity:1;stroke-miterlimit:10" d="M21.259 14.37 0 .2h42.52Zm0 0" transform="matrix(1 0 0 -1 1.245 57.742)"/></g><path style="stroke:none;fill-rule:nonzero;fill:#fcc;fill-opacity:1" d="M86.285 15.023 79.2 57.543h14.172Zm0 0"/><g clip-path="url(#f)"><path style="fill:none;stroke-width:.3985;stroke-linecap:butt;stroke-linejoin:miter;stroke:#ff4040;stroke-opacity:1;stroke-miterlimit:10" d="M85.04 42.719 77.954.199h14.172Zm0 0" transform="matrix(1 0 0 -1 1.245 57.742)"/></g></svg>