<svg xmlns="http://www.w3.org/2000/svg" width="78.507" height="17.931" viewBox="0 0 58.88 13.448" version="1.2"><defs><clipPath id="a"><path d="M0 0h58.82v13.172H0Zm0 0"/></clipPath></defs><g clip-path="url(#a)"><path style="fill:none;stroke-width:1.19553;stroke-linecap:butt;stroke-linejoin:miter;stroke:#000;stroke-opacity:1;stroke-miterlimit:10" d="M8.583 4.234c13.258 5.406 26.262 5.41 39.52.004" transform="matrix(1 0 0 -1 1.034 10.066)"/></g><path style="fill:none;stroke-width:1.19553;stroke-linecap:round;stroke-linejoin:round;stroke:#000;stroke-opacity:1;stroke-miterlimit:10" d="M-3.027 3.831C-2.474 1.532-1.244.447 0-.002c-1.24-.445-2.476-1.53-3.03-3.83" transform="matrix(-.91888 .39438 .39438 .91888 9.106 6.04)"/><path style="fill:none;stroke-width:1.19553;stroke-linecap:round;stroke-linejoin:round;stroke:#000;stroke-opacity:1;stroke-miterlimit:10" d="M-3.028 3.831c.55-2.3 1.785-3.382 3.029-3.83-1.242-.45-2.476-1.534-3.029-3.832" transform="matrix(-.89267 .45062 .45062 .89267 5.286 7.784)"/><path style="fill:none;stroke-width:1.19553;stroke-linecap:round;stroke-linejoin:round;stroke:#000;stroke-opacity:1;stroke-miterlimit:10" d="M-3.029 3.83C-2.475 1.532-1.244.447 0-.001c-1.241-.447-2.475-1.53-3.028-3.831" transform="matrix(-.86601 .49998 .49998 .86601 1.552 9.767)"/><path style="fill:none;stroke-width:1.19553;stroke-linecap:round;stroke-linejoin:round;stroke:#000;stroke-opacity:1;stroke-miterlimit:10" d="M-3.029 3.83C-2.477 1.533-1.242.448.001-.001c-1.242-.444-2.476-1.53-3.029-3.83" transform="matrix(.91891 .3943 .3943 -.91891 49.648 6.038)"/><path style="fill:none;stroke-width:1.19553;stroke-linecap:round;stroke-linejoin:round;stroke:#000;stroke-opacity:1;stroke-miterlimit:10" d="M-3.03 3.831C-2.476 1.534-1.244.446 0 .001c-1.244-.448-2.476-1.534-3.028-3.83" transform="matrix(.89264 .45067 .45067 -.89264 53.479 7.786)"/><path style="fill:none;stroke-width:1.19553;stroke-linecap:round;stroke-linejoin:round;stroke:#000;stroke-opacity:1;stroke-miterlimit:10" d="M-3.028 3.833C-2.475 1.532-1.241.45 0 .002c-1.244-.448-2.475-1.533-3.029-3.833" transform="matrix(.86601 .49998 .49998 -.86601 57.21 9.767)"/></svg>