<svg xmlns="http://www.w3.org/2000/svg" width="126.219" height="96.23pt" viewBox="0 0 94.664 96.23" version="1.2"><defs><clipPath id="a"><path d="M0 0h85v95.844H0Zm0 0"/></clipPath><clipPath id="b"><path d="M0 11h82v84.844H0Zm0 0"/></clipPath></defs><path style="fill:none;stroke-width:.19925;stroke-linecap:butt;stroke-linejoin:miter;stroke:gray;stroke-opacity:1;stroke-miterlimit:10" d="M-.002-.001h85.043M-.002 28.347h85.043M-.002 56.682h85.043M-.002 0v56.695M28.346 0v56.695M56.694 0v56.695M85.03 0v56.695" transform="matrix(1 0 0 -1 8.357 85.327)"/><g clip-path="url(#a)"><path style="fill:none;stroke-width:.3985;stroke-linecap:butt;stroke-linejoin:miter;stroke:#000;stroke-opacity:1;stroke-miterlimit:10" d="M-7.345 28.874c3.05-.8 6.004-1.59 8.86-2.395 2.75-.843 5.394-1.742 7.929-2.718a76.197 76.197 0 0 0 6.972-3.461c2.114-1.356 4.11-2.754 6.004-4.36 1.778-1.601 3.446-3.379 4.985-5.175a59.79 59.79 0 0 0 3.886-6.07 53.253 53.253 0 0 0 2.676-6.712 56.677 56.677 0 0 0 1.309-7.363m-38.64 46.883c3.152-.551 6.206-1.114 9.152-1.723a91.92 91.92 0 0 0 8.234-2.387 70.495 70.495 0 0 0 7.36-3.457c2.265-1.418 4.413-2.921 6.476-4.593a65.096 65.096 0 0 0 5.496-5.59 66.44 66.44 0 0 0 4.426-6.54 65.357 65.357 0 0 0 3.199-7.288 66.63 66.63 0 0 0 1.844-7.965M-.865 46.823c3.238-.289 6.375-.637 9.414-1.098a79.296 79.296 0 0 0 8.633-2.289 74.276 74.276 0 0 0 7.895-3.656 74.677 74.677 0 0 0 7.082-4.933 75.671 75.671 0 0 0 6.113-6.047 75.942 75.942 0 0 0 5.023-7.043 75.443 75.443 0 0 0 3.774-7.868c.953-2.789 1.75-5.64 2.379-8.566M-.002 56.694a84.248 84.248 0 0 0 9.868-.867 83.286 83.286 0 0 0 9.324-2.496c2.96-1.172 5.84-2.5 8.629-3.98a85.445 85.445 0 0 0 7.785-5.313 86.082 86.082 0 0 0 6.793-6.5 85.767 85.767 0 0 0 5.644-7.531 85.19 85.19 0 0 0 4.356-8.414 84.272 84.272 0 0 0 2.91-9.153M.866 66.561c3.332-.316 6.71-.742 10.105-1.316a97.213 97.213 0 0 0 9.942-2.762 96.253 96.253 0 0 0 9.296-4.273 96.138 96.138 0 0 0 8.446-5.66 95.677 95.677 0 0 0 7.402-6.887 94.41 94.41 0 0 0 6.227-7.977 94.446 94.446 0 0 0 4.886-8.906 93.778 93.778 0 0 0 3.403-9.703M3.362 75.886a220.254 220.254 0 0 0 9.894-2.012c3.364-.902 6.719-1.95 10.043-3.156a111.133 111.133 0 0 0 9.625-4.579 107.647 107.647 0 0 0 8.871-5.968c2.723-2.27 5.36-4.692 7.836-7.223a103.139 103.139 0 0 0 6.68-8.371 102.843 102.843 0 0 0 5.305-9.344 99.965 99.965 0 0 0 3.804-10.218M7.338 84.507c3.13-.844 6.325-1.75 9.57-2.743a150.402 150.402 0 0 0 9.84-3.699 128.89 128.89 0 0 0 9.625-4.96c3.11-1.954 6.063-4.051 9.024-6.305 2.758-2.371 5.488-4.907 8.023-7.543 2.477-2.801 4.79-5.711 6.95-8.735a110.587 110.587 0 0 0 5.562-9.73 106.67 106.67 0 0 0 4.086-10.688m-77.363-1.23a84.17 84.17 0 0 1 3.12 6.398c.86 2.23 1.63 4.5 2.305 6.813a83.275 83.275 0 0 1 1.43 7.164c.27 2.465.434 4.953.488 7.445.055 2.492.22 4.98.493 7.445a83.485 83.485 0 0 0 1.43 7.16 84.076 84.076 0 0 0 2.304 6.813 85.713 85.713 0 0 0 3.117 6.403M1.514 26.478a97.736 97.736 0 0 1 3.344 6.907 97.66 97.66 0 0 1 2.508 7.308c.64 2.508 1.183 5.031 1.632 7.57.356 2.547.641 5.075.872 7.563.214 2.441.449 4.82.742 7.145.355 2.27.793 4.492 1.324 6.675a75.701 75.701 0 0 0 2.11 6.27 72.515 72.515 0 0 0 2.87 5.855M9.444 23.761a119.033 119.033 0 0 1 3.566 7.18 117.45 117.45 0 0 1 2.762 7.452 132.39 132.39 0 0 1 1.992 7.559 265.24 265.24 0 0 1 1.43 7.379c.41 2.371.824 4.691 1.254 6.95.465 2.202.976 4.347 1.539 6.433a73.99 73.99 0 0 0 2.066 5.922 61.397 61.397 0 0 0 2.715 5.441M16.416 20.296a126.165 126.165 0 0 1 3.852 7.187 136.193 136.193 0 0 1 3.11 7.371 171.052 171.052 0 0 1 2.456 7.36c.704 2.418 1.36 4.797 1.985 7.136a870.258 870.258 0 0 0 1.789 6.727 170.104 170.104 0 0 0 1.89 6.215 98.125 98.125 0 0 0 2.22 5.68 74.135 74.135 0 0 0 2.679 5.14M22.42 15.94a141.069 141.069 0 0 1 4.196 7.024 165.366 165.366 0 0 1 3.52 7.144 207.075 207.075 0 0 1 2.945 7.082 391.632 391.632 0 0 1 2.523 6.848c.777 2.203 1.543 4.355 2.297 6.46.754 2.052 1.512 4.044 2.285 5.981a113.34 113.34 0 0 0 2.46 5.442 83.236 83.236 0 0 0 2.755 4.886M27.409 10.698a158.93 158.93 0 0 1 4.57 6.75 180.68 180.68 0 0 1 3.957 6.828c1.2 2.266 2.34 4.516 3.43 6.746a504.883 504.883 0 0 1 3.03 6.516c.942 2.102 1.864 4.156 2.77 6.164.899 1.957 1.79 3.86 2.68 5.707a145.257 145.257 0 0 0 2.738 5.191 89.353 89.353 0 0 0 2.899 4.633M31.29 4.647a175.127 175.127 0 0 1 4.965 6.395c1.528 2.148 2.989 4.3 4.395 6.45a277.144 277.144 0 0 1 3.894 6.366 526.1 526.1 0 0 1 3.496 6.149c1.094 1.984 2.165 3.925 3.215 5.824a366.28 366.28 0 0 0 3.063 5.398 171.165 171.165 0 0 0 3.015 4.91 111.838 111.838 0 0 0 3.075 4.36M33.959-2.087a197.4 197.4 0 0 1 5.36 5.969 222.442 222.442 0 0 1 4.816 6.02c1.492 2 2.934 3.98 4.332 5.948a531.454 531.454 0 0 1 3.93 5.743l3.621 5.445a485.78 485.78 0 0 0 3.414 5.055 218.005 218.005 0 0 0 3.293 4.59 111.084 111.084 0 0 0 3.262 4.058M35.276-9.369a193.3 193.3 0 0 1 5.746 5.493 226.647 226.647 0 0 1 5.215 5.543c1.629 1.84 3.21 3.668 4.738 5.48a540.125 540.125 0 0 1 4.332 5.305c1.36 1.715 2.691 3.395 3.988 5.035 1.274 1.598 2.516 3.156 3.739 4.668a232.25 232.25 0 0 0 3.55 4.235c1.153 1.304 2.301 2.546 3.434 3.734" transform="matrix(1 0 0 -1 8.357 85.327)"/></g><path style="fill:none;stroke-width:1.19553;stroke-linecap:butt;stroke-linejoin:miter;stroke:#00f;stroke-opacity:1;stroke-miterlimit:10" d="M20.913 62.483a83.7 83.7 0 0 1-10.594-1.836 84.815 84.815 0 0 1-10.32-3.953 84.815 84.815 0 0 0 9.355-5.883 83.828 83.828 0 0 0 7.824-7.375" transform="matrix(1 0 0 -1 8.357 85.327)"/><g clip-path="url(#b)"><path style="fill:none;stroke-width:1.19553;stroke-linecap:butt;stroke-linejoin:miter;stroke:red;stroke-opacity:1;stroke-miterlimit:10" d="M-.002 56.694c31.184 0 56.696-25.512 56.696-56.695" transform="matrix(1 0 0 -1 8.357 85.327)"/></g></svg>