<svg xmlns="http://www.w3.org/2000/svg" xmlns:xlink="http://www.w3.org/1999/xlink" width="592.648" height="402.531" viewBox="0 0 444.486 301.898" version="1.2"><defs><symbol overflow="visible" id="a"><path style="stroke:none" d="M4.39-1.61c0-.89-.64-1.671-1.921-1.671-.375 0-.75.062-1.063.265V-4c.25.047.516.047.563.047.218 0 .75 0 1.36-.375.202-.14.687-.547.687-.75 0-.125-.079-.172-.157-.172 0 0-.03 0-.109.047a3.963 3.963 0 0 1-2.64-.016c-.063-.031-.079-.031-.094-.031-.141 0-.141.14-.141.25v2.344c0 .156 0 .281.219.281.125 0 .14-.031.218-.125.329-.375.813-.453 1.125-.453.766 0 .766.734.766 1.328 0 .563 0 1.36-1.031 1.36-.422 0-.813-.172-1.031-.438a.57.57 0 0 0 .5-.578c0-.36-.297-.563-.579-.563-.25 0-.578.157-.578.578 0 .72.672 1.375 1.72 1.375C3.624.11 4.39-.656 4.39-1.609Zm0 0"/></symbol><symbol overflow="visible" id="b"><path style="stroke:none" d="M3.25-.984v-.407h-.453V-1c0 .547-.297.688-.485.688-.468 0-.468-.422-.468-.641v-2.172h1.234v-.406H1.844v-1.531H1.39c0 .796-.407 1.593-1.204 1.609v.328h.688v2.14c0 .829.64 1.047 1.313 1.047.609 0 1.062-.406 1.062-1.046Zm0 0"/></symbol><symbol overflow="visible" id="c"><path style="stroke:none" d="M5.172 0v-.422h-.516v-2c0-.969-.61-1.172-1.312-1.172-.844 0-1.281.485-1.453.735v-2.672L.453-5.47v.422c.469 0 .516 0 .516.313v4.312H.453V0c.422-.031.703-.031 1-.031.313 0 .594 0 1.016.031v-.422h-.531v-1.594c0-.89.765-1.25 1.28-1.25.282 0 .47.141.47.766v2.078h-.532V0c.422-.031.703-.031 1.016-.031.312 0 .578 0 1 .031Zm0 0"/></symbol><symbol overflow="visible" id="d"><path style="stroke:none" d="M6.125-2.188h-.453C5.484-1.046 5.203-.421 3.75-.421H2.422v-2.187h.484c.75 0 .875.28.875.921h.453v-2.25h-.453c0 .641-.125.922-.875.922h-.484V-5h1.297c1.156 0 1.547.39 1.687 1.516h.438l-.25-1.938H.375V-5h.86v4.578h-.86V0h5.36Zm0 0"/></symbol><symbol overflow="visible" id="e"><path style="stroke:none" d="M5.047 0v-.422c-.469 0-.516 0-.516-.297V-5.53l-1.453.062v.422c.469 0 .531 0 .531.313v1.484a1.981 1.981 0 0 0-1.14-.344c-1.36 0-2.14.797-2.14 1.828 0 1.047.765 1.829 2.03 1.829.594 0 .985-.235 1.188-.391v.39Zm-1.5-.89c-.375.53-.844.609-1.11.609-1.03 0-1.03-.985-1.03-1.469 0-.5 0-1.516 1.14-1.516.36 0 .734.157 1 .5Zm0 0"/></symbol><symbol overflow="visible" id="f"><path style="stroke:none" d="M2.39 0v-.422h-.468v-3.172L.5-3.53v.422c.438 0 .5 0 .5.296v2.391H.469V0c.469-.031.547-.031.969-.031.328 0 .562 0 .953.031ZM2-4.828a.64.64 0 0 0-.64-.625.63.63 0 0 0-.641.625c0 .36.297.64.64.64.36 0 .641-.28.641-.64Zm0 0"/></symbol><symbol overflow="visible" id="g"><path style="stroke:none" d="M4.61-1.734c0-1-.72-1.891-2.173-1.891-1.468 0-2.171.89-2.171 1.89C.266-.78.969.064 2.437.064c1.485 0 2.172-.86 2.172-1.797ZM3.53-1.828c0 .687 0 1.516-1.094 1.516-1.093 0-1.093-.829-1.093-1.516 0-.656 0-1.469 1.093-1.469 1.094 0 1.094.813 1.094 1.469Zm0 0"/></symbol><symbol overflow="visible" id="h"><path style="stroke:none" d="M5.172 0v-.422h-.516v-2c0-.969-.61-1.172-1.312-1.172-.969 0-1.406.64-1.5.813v-.813l-1.39.063v.422c.468 0 .515 0 .515.296v2.391H.453V0c.422-.031.703-.031 1-.031.313 0 .594 0 1.016.031v-.422h-.531v-1.594c0-.89.765-1.25 1.28-1.25.282 0 .47.141.47.766v2.078h-.532V0c.422-.031.703-.031 1.016-.031.312 0 .578 0 1 .031Zm0 0"/></symbol><symbol overflow="visible" id="i"><path style="stroke:none" d="M4.469-1.64c0-.454-.094-.86-.563-1.266-.437-.375-.875-.453-1.375-.453-.484 0-.812.312-.984.593 0-.453.016-1.046.25-1.453a1.345 1.345 0 0 1 1.172-.687c.234 0 .422.047.578.187a.534.534 0 0 0-.406.532.53.53 0 0 0 .546.53c.313 0 .532-.218.532-.546 0-.484-.328-1.047-1.25-1.047-1.25 0-2.563.766-2.563 2.719C.406-1.5.656.109 2.47.109c1.187 0 2-.671 2-1.75Zm-1.14 0c0 .75 0 1.374-.86 1.374-.39 0-.656-.218-.766-.468-.14-.282-.14-.922-.14-.954 0-.718.312-1.328.953-1.328.812 0 .812.61.812 1.375Zm0 0"/></symbol><symbol overflow="visible" id="j"><path style="stroke:none" d="M6.11-3.89c0-.86-.813-1.579-2.25-1.579H.374v.422h.86v4.625h-.86V0c.297-.031 1.11-.031 1.453-.031.344 0 1.156 0 1.453.031v-.422h-.86v-1.937H3.86c1.438 0 2.25-.688 2.25-1.532Zm-1.282 0c0 .546 0 1.156-1.266 1.156H2.375v-2.313h1.188c1.265 0 1.265.594 1.265 1.156Zm0 0"/></symbol><symbol overflow="visible" id="k"><path style="stroke:none" d="M9.844-5.047v-.422c-.281.032-.703.032-.922.032L7.844-5.47v.422c.187 0 .562 0 .797.063-.016.03-.032.093-.047.109l-1.39 3.438-1.485-3.61h.75v-.422c-.297.032-1.047.032-1.39.032L3.812-5.47v.422H4.5l.297.719-1.188 2.89-1.468-3.609h.734v-.422c-.297.032-1.047.032-1.39.032L.218-5.47v.422h.687l2 4.89c.047.141.094.235.328.235.11 0 .235 0 .329-.203L5.03-3.75 6.5-.14c.078.203.172.218.328.218.234 0 .266-.094.328-.234l1.922-4.719c.063-.125.078-.172.61-.172Zm0 0"/></symbol><symbol overflow="visible" id="l"><path style="stroke:none" d="M6.375-1.484c0-.672-.578-1.25-1.688-1.375C5.532-3 6.11-3.47 6.11-4.094c0-.75-.765-1.375-2.109-1.375H.375v.422h.86v4.625h-.86V0h3.89c1.36 0 2.11-.672 2.11-1.484Zm-1.453-2.61c0 .64-.453 1.078-1.234 1.078H2.312v-2.03h1.579c.828 0 1.03.546 1.03.952ZM5.14-1.5c0 .64-.438 1.078-1.22 1.078H2.314v-2.25H4c.953 0 1.14.703 1.14 1.172Zm0 0"/></symbol><symbol overflow="visible" id="m"><path style="stroke:none" d="M4.203 0v-.422H3.016v-4.547c0-.281-.047-.281-.36-.281-.484.39-1.125.516-1.75.516H.734v.421h.172c.203 0 .64-.03 1.11-.171v4.062H.812V0c.282-.031 1.344-.031 1.704-.031.359 0 1.39 0 1.687.031Zm0 0"/></symbol><symbol overflow="visible" id="n"><path style="stroke:none" d="M1.984-.64a.64.64 0 0 0-.625-.641c-.359 0-.64.297-.64.64a.634.634 0 1 0 1.265 0Zm0 0"/></symbol><symbol overflow="visible" id="o"><path style="stroke:none" d="M4.5-2.547c0-.922-.078-2.703-2.063-2.703C.454-5.25.376-3.453.376-2.547.375-1.657.438.11 2.438.11 4.453.11 4.5-1.656 4.5-2.547ZM3.422-2.64c0 1.829-.11 1.938-.36 2.172-.062.078-.296.25-.624.25a.97.97 0 0 1-.61-.218c-.25-.22-.375-.329-.375-2.204 0-.578 0-1.156.078-1.546.11-.563.61-.72.907-.72.187 0 .796.048.921.798.063.39.063 1.015.063 1.468Zm0 0"/></symbol><symbol overflow="visible" id="p"><path style="stroke:none" d="M5.438-2.188H5c-.063.547-.219 1.766-1.703 1.766h-.875v-4.625H3.5v-.422c-.297.032-1.266.032-1.61.032-.359 0-1.218 0-1.515-.032v.422h.86v4.625h-.86V0h4.797Zm0 0"/></symbol><symbol overflow="visible" id="q"><path style="stroke:none" d="M4.875-1.61c0-.874-.672-1.53-1.469-1.702l-1.219-.235c-.562-.125-.843-.484-.843-.828s.25-.828 1.11-.828c.171 0 .702.016 1.124.328.453.344.547.844.578 1.031.016.156.032.188.219.188.219 0 .234-.047.234-.235v-1.437c0-.156 0-.25-.171-.25-.11 0-.11.016-.297.187l-.25.25c-.36-.265-.813-.437-1.438-.437-1.36 0-1.906.844-1.906 1.61 0 .343.11.671.375.984.422.468.922.562 1.265.64l.985.203c.687.141.906.579.906.922 0 .25-.125.922-1.14.922-.376 0-.97-.062-1.407-.344-.5-.312-.531-.796-.547-1.046 0-.125-.125-.125-.218-.125-.22 0-.22.062-.22.25v1.421c0 .157 0 .25.173.25.094 0 .11 0 .281-.187l.25-.234c.547.374 1.281.421 1.703.421 1.422 0 1.922-.937 1.922-1.718Zm0 0"/></symbol><symbol overflow="visible" id="r"><path style="stroke:none" d="M7.031 0v-.422h-.797L4.125-3.125l1.422-1.781C5.64-5 5.64-5 5.907-5.031c.202-.016.218-.016.452-.016h.25v-.422l-1.125.032c-.187 0-.734 0-1.234-.032v.422c.031 0 .297 0 .547.031a.46.46 0 0 1 .14.047L3.782-3.547l-1.172-1.5h.625v-.422c-.296.032-1.093.032-1.437.032-.313 0-.844 0-1.344-.032v.422h.781l1.844 2.36L1.375-.563c-.078.094-.078.094-.344.125-.203.016-.218.016-.453.016H.313V0l1.14-.031L2.672 0v-.422c-.063 0-.39 0-.672-.062V-.5l1.422-1.75L4.859-.422h-.625V0c.297-.031 1.11-.031 1.454-.031.296 0 .843 0 1.343.031Zm0 0"/></symbol><symbol overflow="visible" id="s"><path style="stroke:none" d="M6.922-2.688c0-1.734-1.25-2.78-2.938-2.78H.375v.421h.86v4.625h-.86V0H4c1.688 0 2.922-1.016 2.922-2.688Zm-1.219-.015c0 .781 0 2.281-2.047 2.281H2.375v-4.625h1.281c2.047 0 2.047 1.578 2.047 2.344Zm0 0"/></symbol><symbol overflow="visible" id="t"><path style="stroke:none" d="M8.828 0v-.422h-.86v-4.625h.86v-.422H7.016c-.188 0-.282.016-.391.235L4.609-1.031l-2-4.203c-.109-.235-.218-.235-.39-.235H.39v.422h.875v4.422c0 .156-.016.172-.235.188-.11.015-.343.015-.406.015H.391V0L1.5-.031 2.61 0v-.422h-.22c-.203 0-.234 0-.421-.016-.203-.03-.219-.03-.219-.187v-4.313h.016L4-.234c.078.14.156.234.313.234.203 0 .265-.14.312-.234l2.297-4.797h.016v4.61h-.86V0c.328-.031 1.016-.031 1.375-.031.36 0 1.047 0 1.375.031Zm0 0"/></symbol><symbol overflow="visible" id="u"><path style="stroke:none" d="M7.094-5.047v-.422l-1.125.032-1.11-.032v.422h.22c.202 0 .234 0 .421.016.203.031.219.031.219.187v3c0 1.11-.828 1.547-1.813 1.547-1.469 0-1.484-1.062-1.484-1.5v-3.25h.86v-.422c-.298.032-1.11.032-1.454.032-.344 0-1.156 0-1.453-.032v.422h.86v3.203c0 1.063.89 1.953 2.64 1.953 1.672 0 2.36-.968 2.36-1.937v-3.016c0-.156.015-.172.234-.187.11-.016.343-.016.406-.016Zm0 0"/></symbol><symbol overflow="visible" id="v"><path style="stroke:none" d="M4.938 0v-.422h-.563L2.969-1.938l1-1.046c.14-.141.375-.141.781-.141v-.406c-.234.015-.594.015-.75.015-.078 0-.531 0-.813-.015v.406c.079 0 .22.031.22.078 0 .016-.063.078-.063.078l-.672.703-.797-.859h.25v-.406c-.469.015-.578.015-.969.015-.14 0-.61 0-.89-.015v.406h.562l1.297 1.406-1.11 1.157C.939-.47.86-.422.36-.422H.22V0c.25-.031.625-.031.765-.031.047 0 .532 0 .813.031v-.422c-.14 0-.188-.031-.234-.062l.875-.907.89.97h-.25V0c.469-.031.578-.031.969-.031.11 0 .61 0 .89.031Zm0 0"/></symbol><symbol overflow="visible" id="w"><path style="stroke:none" d="M2.453 0v-.422h-.531v-5.11l-1.453.063v.422c.469 0 .531 0 .531.313v4.312H.469V0c.469-.031.547-.031.984-.031.453 0 .531 0 1 .031Zm0 0"/></symbol><symbol overflow="visible" id="x"><path style="stroke:none" d="M4.734-3.125a.52.52 0 0 0-.546-.531c-.313 0-.672.14-.907.312-.281-.156-.61-.25-1.11-.25-1.296 0-1.687.703-1.687 1.188 0 .469.266.703.422.828a1.064 1.064 0 0 0-.265.703c0 .297.109.578.328.766C.625-.016.266.203.266.594c0 .422.468 1.015 2.171 1.015 1.5 0 2.172-.484 2.172-1.046 0-.766-.593-1.016-.765-1.079-.438-.171-.922-.171-1.64-.171H1.78c-.234 0-.39 0-.5-.11a.495.495 0 0 1-.187-.39c0-.079.015-.172.062-.22.328.157.719.188 1.016.188 1.281 0 1.672-.687 1.672-1.187 0-.422-.266-.703-.313-.735.219-.125.375-.14.485-.156a.665.665 0 0 0-.032.172c0 .219.157.375.375.375a.361.361 0 0 0 .375-.375Zm-1.812.719c0 .328 0 .86-.75.86-.766 0-.766-.532-.766-.86 0-.328 0-.844.766-.844.75 0 .75.531.75.844Zm.937 3c0 .265-.328.672-1.421.672-1.047 0-1.422-.375-1.422-.688 0-.437.515-.437.64-.437h1c.25 0 1.203 0 1.203.453Zm0 0"/></symbol><symbol overflow="visible" id="y"><path style="stroke:none" d="M3.328 0v-.422h-.906v-4.625h.906v-.422c-.297.032-1.156.032-1.5.032-.344 0-1.203 0-1.5-.032v.422h.906v4.625H.328V0c.297-.031 1.156-.031 1.5-.031.344 0 1.203 0 1.5.031Zm0 0"/></symbol><symbol overflow="visible" id="z"><path style="stroke:none" d="M4.188-.922c0-.156-.157-.156-.22-.156-.14 0-.171.016-.234.14-.25.563-.921.625-1.156.625-1.172 0-1.219-.937-1.234-1.375h2.578c.172 0 .265 0 .265-.234 0-.344-.078-.86-.468-1.25-.453-.453-1.172-.453-1.36-.453-1.406 0-2.093.89-2.093 1.828 0 1.031.796 1.86 2.218 1.86 1.407 0 1.704-.875 1.704-.985ZM3.405-2H1.344c.015-.313.047-1.297 1.031-1.297.984 0 1.031.985 1.031 1.297Zm0 0"/></symbol><symbol overflow="visible" id="A"><path style="stroke:none" d="M3.75-2.906c0-.438-.438-.688-.906-.688-.672 0-1 .563-1.125.86v-.86l-1.36.063v.422c.485 0 .532 0 .532.296v2.391H.359V0c.47-.031.547-.031 1.032-.031L2.469 0v-.422h-.656v-1.281c0-.625.25-1.531 1.015-1.563 0 0-.125.141-.125.36 0 .328.235.531.531.531a.514.514 0 0 0 .516-.531Zm0 0"/></symbol><symbol overflow="visible" id="B"><path style="stroke:none" d="M4.688-.203c0-.219-.125-.219-.235-.219-.5 0-.5-.078-.5-.25v-1.687c0-.72-.562-1.266-1.86-1.266-.39 0-1.53 0-1.53.781 0 .36.265.547.53.547a.53.53 0 0 0 .548-.531c0-.25-.172-.406-.172-.406.062-.016.297-.063.61-.063.624 0 .905.36.905.938v.218c-1.187.016-2.75.282-2.75 1.25 0 .672.766.954 1.641.954.813 0 1.156-.438 1.266-.61 0 .25.093.547.859.547h.422c.156 0 .266 0 .266-.203Zm-1.704-.89c0 .812-.953.812-.984.812-.422 0-.781-.25-.781-.625 0-.563.734-.906 1.765-.922Zm0 0"/></symbol><symbol overflow="visible" id="C"><path style="stroke:none" d="M4.328-5.703a.254.254 0 0 0-.266-.266c-.14 0-.218.094-.28.219L.593 1.547a.356.356 0 0 0-.047.172c0 .156.11.265.265.265.157 0 .235-.109.282-.218L4.28-5.531a.356.356 0 0 0 .047-.172Zm0 0"/></symbol><symbol overflow="visible" id="D"><path style="stroke:none" d="M6.438-3.422 6.25-5.359H.531L.344-3.422h.453C.875-4.359 1-4.953 2.14-4.953h.656v4.531H1.578V0c.313-.031 1.438-.031 1.813-.031s1.5 0 1.812.031v-.422H3.984v-4.531h.657c1.14 0 1.265.594 1.343 1.531Zm0 0"/></symbol><symbol overflow="visible" id="E"><path style="stroke:none" d="M4.469-1.422c0-.656-.5-1.203-1.36-1.39.22-.094 1.094-.438 1.094-1.297 0-.641-.656-1.141-1.844-1.141-1.03 0-1.687.563-1.687 1.203 0 .453.36.61.594.61.312 0 .593-.22.593-.594 0-.172-.062-.469-.453-.563.36-.312.828-.312.907-.312.734 0 .734.531.734.765 0 .579-.266.875-.297.907-.219.25-.375.25-.797.28-.25.017-.328.017-.328.188 0 .157.11.157.25.157h.39c.922 0 .938.78.938 1.171 0 .36 0 1.172-.906 1.172-.172 0-.625-.015-1.016-.28a.646.646 0 0 0 .422-.61c0-.375-.281-.64-.656-.64-.344 0-.64.234-.64.655 0 .766.827 1.25 1.921 1.25 1.563 0 2.14-.843 2.14-1.53Zm0 0"/></symbol><symbol overflow="visible" id="G"><path style="stroke:none" d="M4.39-1.813h-.452c-.063.516-.157.688-.204.704-.093.046-.703.046-.843.046H1.797c1.062-.828 1.5-1.078 1.844-1.343.546-.438.75-.828.75-1.281 0-.938-.875-1.563-2.079-1.563-1.015 0-1.828.453-1.828 1.203 0 .484.391.625.61.625.281 0 .61-.203.61-.61a.566.566 0 0 0-.376-.562c.219-.172.547-.234.797-.234.719 0 1.11.531 1.11 1.14 0 .657-.422 1.188-.891 1.626L.578-.423C.5-.328.484-.328.484-.172V0h3.641Zm0 0"/></symbol><symbol overflow="visible" id="H"><path style="stroke:none" d="M4.734-4.984v-.141H2.891c-.25 0-.72-.031-.985-.047h-.265c-.329-.031-.344-.11-.344-.219H.844L.547-3.312h.437c.079-.547.188-.704.235-.72.093-.046.75-.046.89-.046h1.297c-.875 1-.875 1.016-1.125 1.406-.562.938-.64 1.797-.64 2.188 0 .593.484.593.53.593.25 0 .376-.14.407-.187.125-.125.125-.25.125-.61 0-.203 0-.562.047-1.015.11-1.047.516-1.5.531-1.516l1.36-1.5c.093-.093.093-.11.093-.265Zm0 0"/></symbol><symbol overflow="visible" id="I"><path style="stroke:none" d="M4.469-1.484c0-.891-.766-1.297-1.078-1.47.328-.171.812-.468.812-1.093 0-1.11-1.266-1.203-1.75-1.203-1.187 0-1.781.64-1.781 1.422 0 .531.344.953.765 1.203-.828.36-1.03.86-1.03 1.344 0 1 .905 1.39 2.015 1.39 1.375 0 2.047-.703 2.047-1.593ZM3.53-4.047c0 .297-.125.61-.562.875l-1.25-.656c-.157-.078-.375-.219-.375-.469 0-.5.593-.61 1.078-.61.719 0 1.11.329 1.11.86Zm.188 3c0 .672-.781.781-1.266.781-.765 0-1.297-.343-1.297-1.015 0-.797.735-1.094.735-1.094l.421.203.907.485c.125.062.5.265.5.64Zm0 0"/></symbol><symbol overflow="visible" id="J"><path style="stroke:none" d="M7.11-5.047v-.422c-.313.032-.75.032-.97.032L5.064-5.47v.422c.203 0 .468 0 .687.063l-.047.109-1.687 3.61-1.782-3.782h.72v-.422c-.298.032-1.079.032-1.407.032L.234-5.47v.422H.97L3.28-.14c.094.22.219.22.39.22.173 0 .282 0 .392-.204L6.28-4.891c.047-.109.078-.156.657-.156Zm0 0"/></symbol><symbol overflow="visible" id="K"><path style="stroke:none" d="M2.703-1.36v-.827H.11v.828Zm0 0"/></symbol><symbol overflow="visible" id="L"><path style="stroke:none" d="M5.172 0v-.422c-.469 0-.516 0-.516-.297v-2.875l-1.5.063v.422c.469 0 .531 0 .531.296v1.516c0 .61-.421 1.016-1.078 1.016-.64 0-.671-.188-.671-.594v-2.719L.452-3.53v.422c.469 0 .516 0 .516.296v1.829c0 .89.75 1.046 1.531 1.046.266 0 .797 0 1.234-.562v.563Zm0 0"/></symbol><symbol overflow="visible" id="M"><path style="stroke:none" d="M3.516-1.125a.954.954 0 0 0-.344-.75c-.344-.328-.766-.39-1.063-.438-.734-.124-1.171-.203-1.171-.546 0-.47.78-.47.937-.47.89 0 .938.423.953.657.016.125.125.125.219.125.219 0 .234-.062.234-.25v-.578c0-.156 0-.25-.187-.25-.063 0-.078 0-.36.14-.328-.14-.703-.14-.843-.14-.266 0-1.563 0-1.563 1.063 0 .359.203.593.406.75.313.218.657.28 1.172.359.407.062 1 .156 1 .594 0 .562-.703.578-.953.578-.812 0-1.047-.453-1.172-.828C.734-1.25.72-1.266.547-1.266c-.219 0-.219.079-.219.25v.829c0 .14 0 .25.172.25.078 0 .094 0 .25-.11l.219-.14c.39.25.812.25.984.25.25 0 1.563 0 1.563-1.188Zm0 0"/></symbol><symbol overflow="visible" id="N"><path style="stroke:none" d="M7.047-1.984c0-.282-.281-.282-.375-.282h-2.61v-2.609c0-.11 0-.375-.265-.375-.281 0-.281.281-.281.375v2.61H.906c-.094 0-.36 0-.36.28 0 .266.266.266.36.266h2.61v2.61c0 .109 0 .375.28.375.267 0 .267-.282.267-.375v-2.61h2.609c.11 0 .375 0 .375-.265Zm0 0"/></symbol><symbol overflow="visible" id="O"><path style="stroke:none" d="M4.469-2.61c0-.562-.047-1.265-.407-1.828-.343-.53-.89-.812-1.609-.812C1.25-5.25.406-4.594.406-3.5c0 .328.047.828.547 1.266.344.28.688.453 1.39.453.548 0 .86-.39.985-.594 0 .594-.031 1.078-.203 1.438a1.205 1.205 0 0 1-1.11.671c-.078 0-.406 0-.656-.156.094-.031.375-.172.375-.516 0-.312-.234-.53-.546-.53-.297 0-.532.202-.532.546C.656-.359 1.078.11 2.031.11 3.25.11 4.47-.67 4.47-2.609Zm-1.157-.874c0 .812-.359 1.359-.953 1.359-.812 0-.812-.625-.812-1.375 0-.719 0-1.406.922-1.406.844 0 .844.968.844 1.422Zm0 0"/></symbol><symbol overflow="visible" id="P"><path style="stroke:none" d="M4.61 0v-.422H3.78v-.812h.828v-.407h-.828v-3.343c0-.25-.047-.266-.281-.266-.172 0-.219 0-.328.125L.266-1.641v.407h2.453v.812h-.953V0c.296-.031 1.109-.031 1.453-.031.375 0 1.031 0 1.39.031ZM2.827-1.64H.766l2.062-2.47Zm0 0"/></symbol><symbol overflow="visible" id="Q"><path style="stroke:none" d="M7.188-1.781v-.422l-1.422.031c-.36 0-1.36 0-1.672-.031v.422h1.218V-1c0 .156 0 .39-.375.547-.296.14-.625.156-.765.156-.875 0-1.469-.312-1.766-.61-.344-.343-.594-.812-.594-1.827 0-.375.032-1.235.5-1.766.579-.61 1.407-.656 1.782-.656.812 0 1.687.5 1.875 1.625.031.156.093.156.265.156.235 0 .266 0 .266-.25v-1.703c0-.156 0-.25-.172-.25-.078 0-.094 0-.187.078l-.516.469a2.805 2.805 0 0 0-1.703-.547C1.75-5.578.547-4.312.547-2.734.547-1.25 1.64.109 3.953.109c.844 0 1.406-.171 1.672-.468.219.171.672.359.734.359C6.5 0 6.5-.14 6.5-.25v-1.531Zm0 0"/></symbol><symbol overflow="visible" id="R"><path style="stroke:none" d="M6.5-1.813C6.5-2 6.422-2 6.281-2c-.203 0-.218.031-.218.234C6-.937 5.155-.296 4.109-.296c-.875 0-1.468-.329-1.78-.673-.36-.39-.517-.937-.517-1.765 0-.344.016-1.22.5-1.766.579-.61 1.407-.656 1.782-.656.812 0 1.687.5 1.875 1.625.031.156.093.156.265.156.235 0 .266 0 .266-.25v-1.703c0-.156 0-.25-.172-.25-.078 0-.094 0-.187.078l-.516.469a2.805 2.805 0 0 0-1.703-.547C1.75-5.578.547-4.312.547-2.734c0 1.562 1.187 2.843 3.39 2.843C5.5.11 6.5-.844 6.5-1.812Zm0 0"/></symbol><symbol overflow="visible" id="S"><path style="stroke:none" d="M4.906-3.125v-.406c-.297.015-.312.015-.656.015-.063 0-.484 0-.719-.015v.406s.328 0 .328.078c0 .031-.03.078-.046.11l-.97 1.921-1.062-2.109h.375v-.406c-.469.015-.64.015-.984.015-.188 0-.61 0-.938-.015v.406h.5L2.313 0c-.329.672-.391.75-.438.844-.313.39-.64.422-.781.422-.063 0-.094 0-.14-.016a.522.522 0 0 0 .234-.438c0-.312-.235-.5-.5-.5-.25 0-.5.188-.5.516 0 .422.39.781.906.781.765 0 1.25-.671 1.36-.89l1.874-3.672c.078-.14.094-.172.578-.172Zm0 0"/></symbol><symbol overflow="visible" id="T"><path style="stroke:none" d="M7.89 0v-.422h-.53v-2c0-.953-.579-1.172-1.313-1.172-.828 0-1.281.485-1.438.735-.187-.625-.734-.735-1.265-.735-.969 0-1.406.64-1.5.813v-.813l-1.39.063v.422c.468 0 .515 0 .515.296v2.391H.453V0c.422-.031.703-.031 1-.031.313 0 .594 0 1.016.031v-.422h-.531v-1.594c0-.89.765-1.25 1.28-1.25.282 0 .47.141.47.766v2.078h-.532V0c.422-.031.703-.031 1.016-.031.312 0 .578 0 1 .031v-.422h-.516v-1.594c0-.89.766-1.25 1.266-1.25.281 0 .469.141.469.766v2.078h-.532V0c.438-.031.72-.031 1.016-.031.313 0 .578 0 1.016.031Zm0 0"/></symbol><clipPath id="F"><path d="M385 75h59.23v39H385Zm0 0"/></clipPath><clipPath id="U"><path d="M322 273h80v28.848h-80Zm0 0"/></clipPath></defs><path style="fill:none;stroke-width:.59776;stroke-linecap:butt;stroke-linejoin:miter;stroke:#000;stroke-opacity:1;stroke-miterlimit:10" d="m-21.441-8.202-27.395-10.48" transform="matrix(1 0 0 -1 255.625 9.169)"/><path style="fill-rule:nonzero;fill:#000;fill-opacity:1;stroke-width:.59776;stroke-linecap:butt;stroke-linejoin:round;stroke:#000;stroke-opacity:1;stroke-miterlimit:10" d="M4.826 0 .964 1.46 2.242 0 .964-1.46Zm0 0" transform="matrix(-.93396 .35728 .35728 .93396 208.742 27.105)"/><path style="fill:none;stroke-width:.59776;stroke-linecap:butt;stroke-linejoin:miter;stroke:#000;stroke-opacity:1;stroke-miterlimit:10" d="M13.148-8.202 28.82-17.98" transform="matrix(1 0 0 -1 255.625 9.169)"/><path style="fill-rule:nonzero;fill:#000;fill-opacity:1;stroke-width:.59776;stroke-linecap:butt;stroke-linejoin:round;stroke:#000;stroke-opacity:1;stroke-miterlimit:10" d="M4.827-.002.966 1.457 2.242 0 .965-1.458Zm0 0" transform="matrix(.84842 .52927 .52927 -.84842 282.671 26.041)"/><path style="fill:none;stroke-width:.59776;stroke-linecap:butt;stroke-linejoin:miter;stroke:#000;stroke-opacity:1;stroke-miterlimit:10" d="m-102.11-32.91-91.656-14.925" transform="matrix(1 0 0 -1 255.625 9.169)"/><path style="fill-rule:nonzero;fill:#000;fill-opacity:1;stroke-width:.59776;stroke-linecap:butt;stroke-linejoin:round;stroke:#000;stroke-opacity:1;stroke-miterlimit:10" d="M4.826 0 .967 1.458 2.242 0 .967-1.458Zm0 0" transform="matrix(-.98695 .16069 .16069 .98695 63.923 56.667)"/><path style="fill:none;stroke-width:.59776;stroke-linecap:butt;stroke-linejoin:miter;stroke:#000;stroke-opacity:1;stroke-miterlimit:10" d="m-52.402-36.55 32.578-12.316" transform="matrix(1 0 0 -1 255.625 9.169)"/><path style="fill-rule:nonzero;fill:#000;fill-opacity:1;stroke-width:.59776;stroke-linecap:butt;stroke-linejoin:round;stroke:#000;stroke-opacity:1;stroke-miterlimit:10" d="M4.83 0 .965 1.458l1.275-1.46L.966-1.457Zm0 0" transform="matrix(.93535 .35362 .35362 -.93535 233.846 57.296)"/><path style="fill:none;stroke-width:.59776;stroke-linecap:butt;stroke-linejoin:miter;stroke:#000;stroke-opacity:1;stroke-miterlimit:10" d="m-99.035-36.37-35.668-11.473" transform="matrix(1 0 0 -1 255.625 9.169)"/><path style="fill-rule:nonzero;fill:#000;fill-opacity:1;stroke-width:.59776;stroke-linecap:butt;stroke-linejoin:round;stroke:#000;stroke-opacity:1;stroke-miterlimit:10" d="M4.827.002.966 1.457 2.24 0 .964-1.456Zm0 0" transform="matrix(-.95192 .30623 .30623 .95192 122.915 56.372)"/><path style="fill:none;stroke-width:.59776;stroke-linecap:butt;stroke-linejoin:miter;stroke:#000;stroke-opacity:1;stroke-miterlimit:10" d="m-82.39-36.55-9.165-9.066" transform="matrix(1 0 0 -1 255.625 9.169)"/><path style="fill-rule:nonzero;fill:#000;fill-opacity:1;stroke-width:.59776;stroke-linecap:butt;stroke-linejoin:round;stroke:#000;stroke-opacity:1;stroke-miterlimit:10" d="M4.827 0 .966 1.457 2.24.002.965-1.46Zm0 0" transform="matrix(-.71092 .7032 .7032 .71092 165.557 53.313)"/><path style="fill:none;stroke-width:.59776;stroke-linecap:butt;stroke-linejoin:miter;stroke:#000;stroke-opacity:1;stroke-miterlimit:10" d="m-65.805-36.55 9.164-9.066" transform="matrix(1 0 0 -1 255.625 9.169)"/><path style="fill-rule:nonzero;fill:#000;fill-opacity:1;stroke-width:.59776;stroke-linecap:butt;stroke-linejoin:round;stroke:#000;stroke-opacity:1;stroke-miterlimit:10" d="M4.828 0 .963 1.459l1.279-1.46L.963-1.459Zm0 0" transform="matrix(.71092 .7032 .7032 -.71092 197.497 53.313)"/><path style="fill:none;stroke-width:.59776;stroke-linecap:butt;stroke-linejoin:miter;stroke:#000;stroke-opacity:1;stroke-miterlimit:10" d="m-21.805-60.39 153.707-24.035c2.176-.34 3.938-2.398 3.938-4.601v-40.414" transform="matrix(1 0 0 -1 255.625 9.169)"/><path style="fill-rule:nonzero;fill:#000;fill-opacity:1;stroke-width:.59776;stroke-linecap:butt;stroke-linejoin:round;stroke:#000;stroke-opacity:1;stroke-miterlimit:10" d="M4.83-.001.965 1.459 2.24 0 .966-1.458Zm0 0" transform="matrix(0 1 1 0 391.466 136.518)"/><path style="fill:none;stroke-width:.59776;stroke-linecap:butt;stroke-linejoin:miter;stroke:#000;stroke-opacity:1;stroke-miterlimit:10" d="m-21.805-59.89 158.532-21.437" transform="matrix(1 0 0 -1 255.625 9.169)"/><path style="fill-rule:nonzero;fill:#000;fill-opacity:1;stroke-width:.59776;stroke-linecap:butt;stroke-linejoin:round;stroke:#000;stroke-opacity:1;stroke-miterlimit:10" d="M4.83 0 .965 1.46 2.239 0 .966-1.457Zm0 0" transform="matrix(.99094 .13399 .13399 -.99094 390.277 90.216)"/><path style="fill:none;stroke-width:.59776;stroke-linecap:butt;stroke-linejoin:miter;stroke:#000;stroke-opacity:1;stroke-miterlimit:10" d="m-68.79-62.073-68.355-15.754" transform="matrix(1 0 0 -1 255.625 9.169)"/><path style="fill-rule:nonzero;fill:#000;fill-opacity:1;stroke-width:.59776;stroke-linecap:butt;stroke-linejoin:round;stroke:#000;stroke-opacity:1;stroke-miterlimit:10" d="m4.827-.002-3.86 1.46L2.241 0 .964-1.456Zm0 0" transform="matrix(-.97443 .22456 .22456 .97443 120.52 86.527)"/><path style="fill:none;stroke-width:.59776;stroke-linecap:butt;stroke-linejoin:miter;stroke:#000;stroke-opacity:1;stroke-miterlimit:10" d="m-140.918-90.999 99.531-21.547c2.149-.465 3.895-2.625 3.895-4.828v-77.071c0-2.198-1.547-4.87-3.457-5.968l-28.09-16.121" transform="matrix(1 0 0 -1 255.625 9.169)"/><path style="fill-rule:nonzero;fill:#000;fill-opacity:1;stroke-width:.59776;stroke-linecap:butt;stroke-linejoin:round;stroke:#000;stroke-opacity:1;stroke-miterlimit:10" d="M4.826 0 .966 1.46 2.24-.001.966-1.46Zm0 0" transform="matrix(-.86725 .4978 .4978 .86725 188.4 224.663)"/><path style="fill:none;stroke-width:.59776;stroke-linecap:butt;stroke-linejoin:miter;stroke:#000;stroke-opacity:1;stroke-miterlimit:10" d="m-186.586-93.241-28.86-13.047" transform="matrix(1 0 0 -1 255.625 9.169)"/><path style="fill-rule:nonzero;fill:#000;fill-opacity:1;stroke-width:.59776;stroke-linecap:butt;stroke-linejoin:round;stroke:#000;stroke-opacity:1;stroke-miterlimit:10" d="M4.829-.002.965 1.457 2.241 0 .964-1.458Zm0 0" transform="matrix(-.91118 .41185 .41185 .91118 42.084 114.595)"/><path style="fill:none;stroke-width:.59776;stroke-linecap:butt;stroke-linejoin:miter;stroke:#000;stroke-opacity:1;stroke-miterlimit:10" d="m-160.238-93.241 17.328-17.328c1.555-1.555 2.816-4.602 2.816-6.805v-68.761" transform="matrix(1 0 0 -1 255.625 9.169)"/><path style="fill-rule:nonzero;fill:#000;fill-opacity:1;stroke-width:.59776;stroke-linecap:butt;stroke-linejoin:round;stroke:#000;stroke-opacity:1;stroke-miterlimit:10" d="M4.827 0 .964 1.46 2.241 0 .964-1.459Zm0 0" transform="matrix(0 1 1 0 115.532 193.212)"/><path style="fill:none;stroke-width:.59776;stroke-linecap:butt;stroke-linejoin:miter;stroke:#000;stroke-opacity:1;stroke-miterlimit:10" d="M-168.441-93.241v-149.586" transform="matrix(1 0 0 -1 255.625 9.169)"/><path style="fill-rule:nonzero;fill:#000;fill-opacity:1;stroke-width:.59776;stroke-linecap:butt;stroke-linejoin:round;stroke:#000;stroke-opacity:1;stroke-miterlimit:10" d="M4.829-.002.966 1.46 2.243 0 .966-1.46Zm0 0" transform="matrix(0 1 1 0 87.185 249.905)"/><path style="fill:none;stroke-width:.59776;stroke-linecap:butt;stroke-linejoin:miter;stroke:#000;stroke-opacity:1;stroke-miterlimit:10" d="m-152.035-93.241 22.055-11.031" transform="matrix(1 0 0 -1 255.625 9.169)"/><path style="fill-rule:nonzero;fill:#000;fill-opacity:1;stroke-width:.59776;stroke-linecap:butt;stroke-linejoin:round;stroke:#000;stroke-opacity:1;stroke-miterlimit:10" d="M4.828 0 .964 1.457 2.243 0 .967-1.46Zm0 0" transform="matrix(.89436 .44717 .44717 -.89436 123.776 112.505)"/><path style="fill:none;stroke-width:.59776;stroke-linecap:butt;stroke-linejoin:miter;stroke:#000;stroke-opacity:1;stroke-miterlimit:10" d="m-142.066-92.327 48.586-13.422" transform="matrix(1 0 0 -1 255.625 9.169)"/><path style="fill-rule:nonzero;fill:#000;fill-opacity:1;stroke-width:.59776;stroke-linecap:butt;stroke-linejoin:round;stroke:#000;stroke-opacity:1;stroke-miterlimit:10" d="M4.826 0 .966 1.458l1.275-1.46L.965-1.455Zm0 0" transform="matrix(.96384 .2663 .2663 -.96384 160.13 114.363)"/><path style="fill:none;stroke-width:.59776;stroke-linecap:butt;stroke-linejoin:miter;stroke:#000;stroke-opacity:1;stroke-miterlimit:10" d="M-140.094-206.632v-16.156c0-2.203-1.261-5.246-2.816-6.805l-14.434-14.433" transform="matrix(1 0 0 -1 255.625 9.169)"/><path style="fill-rule:nonzero;fill:#000;fill-opacity:1;stroke-width:.59776;stroke-linecap:butt;stroke-linejoin:round;stroke:#000;stroke-opacity:1;stroke-miterlimit:10" d="M4.826 0 .964 1.46 2.24 0 .964-1.457Zm0 0" transform="scale(-1 1) rotate(45 -353.731 5.438)"/><path style="fill:none;stroke-width:.59776;stroke-linecap:butt;stroke-linejoin:miter;stroke:#000;stroke-opacity:1;stroke-miterlimit:10" d="m-94.207-234.976-7.945-8.894" transform="matrix(1 0 0 -1 255.625 9.169)"/><path style="fill-rule:nonzero;fill:#000;fill-opacity:1;stroke-width:.59776;stroke-linecap:butt;stroke-linejoin:round;stroke:#000;stroke-opacity:1;stroke-miterlimit:10" d="M4.829 0 .963 1.457 2.239.001.965-1.458Zm0 0" transform="matrix(-.66632 .7456 .7456 .66632 154.867 251.478)"/><path style="fill:none;stroke-width:.59776;stroke-linecap:butt;stroke-linejoin:miter;stroke:#000;stroke-opacity:1;stroke-miterlimit:10" d="m-16.82-60.311-117.149-23.93c-2.156-.442-5.511-1.574-7.496-2.528l-51.73-24.89c-1.985-.953-3.59-3.512-3.59-5.715v-12.066" transform="matrix(1 0 0 -1 255.625 9.169)"/><path style="fill-rule:nonzero;fill:#000;fill-opacity:1;stroke-width:.59776;stroke-linecap:butt;stroke-linejoin:round;stroke:#000;stroke-opacity:1;stroke-miterlimit:10" d="M4.83.001.965 1.458 2.24.001.966-1.459Zm0 0" transform="matrix(0 1 1 0 58.839 136.518)"/><path style="fill:none;stroke-width:.59776;stroke-linecap:butt;stroke-linejoin:miter;stroke:#000;stroke-opacity:1;stroke-miterlimit:10" d="M-196.785-149.936V-214.48" transform="matrix(1 0 0 -1 255.625 9.169)"/><path style="fill-rule:nonzero;fill:#000;fill-opacity:1;stroke-width:.59776;stroke-linecap:butt;stroke-linejoin:round;stroke:#000;stroke-opacity:1;stroke-miterlimit:10" d="M4.828.001.965 1.458 2.242.001.965-1.459Zm0 0" transform="matrix(0 1 1 0 58.839 221.559)"/><path style="fill:none;stroke-width:.59776;stroke-linecap:butt;stroke-linejoin:miter;stroke:#000;stroke-opacity:1;stroke-miterlimit:10" d="m-188.586-234.976 9.05-9.05" transform="matrix(1 0 0 -1 255.625 9.169)"/><path style="fill-rule:nonzero;fill:#000;fill-opacity:1;stroke-width:.59776;stroke-linecap:butt;stroke-linejoin:round;stroke:#000;stroke-opacity:1;stroke-miterlimit:10" d="M4.826 0 .964 1.458 2.24 0 .964-1.46Zm0 0" transform="matrix(.7071 .70709 .70709 -.7071 74.611 251.716)"/><path style="fill:none;stroke-width:.59776;stroke-linecap:butt;stroke-linejoin:miter;stroke:#000;stroke-opacity:1;stroke-miterlimit:10" d="m-175.32-231.147 92.195-18.786" transform="matrix(1 0 0 -1 255.625 9.169)"/><path style="fill-rule:nonzero;fill:#000;fill-opacity:1;stroke-width:.59776;stroke-linecap:butt;stroke-linejoin:round;stroke:#000;stroke-opacity:1;stroke-miterlimit:10" d="M4.83-.002.964 1.46 2.242.001.964-1.459Zm0 0" transform="matrix(.97983 .19962 .19962 -.97983 170.452 258.683)"/><path style="fill:none;stroke-width:.59776;stroke-linecap:butt;stroke-linejoin:miter;stroke:#000;stroke-opacity:1;stroke-miterlimit:10" d="m-232.895-121.589-1.687-7.941" transform="matrix(1 0 0 -1 255.625 9.169)"/><path style="fill-rule:nonzero;fill:#000;fill-opacity:1;stroke-width:.59776;stroke-linecap:butt;stroke-linejoin:round;stroke:#000;stroke-opacity:1;stroke-miterlimit:10" d="M4.827.002.964 1.457 2.24 0 .964-1.458Zm0 0" transform="scale(-1 1) rotate(78.011 -95.1 55.068)"/><path style="fill:none;stroke-width:.59776;stroke-linecap:butt;stroke-linejoin:miter;stroke:#000;stroke-opacity:1;stroke-miterlimit:10" d="m-235.43-149.936 1.684-7.942" transform="matrix(1 0 0 -1 255.625 9.169)"/><path style="fill-rule:nonzero;fill:#000;fill-opacity:1;stroke-width:.59776;stroke-linecap:butt;stroke-linejoin:round;stroke:#000;stroke-opacity:1;stroke-miterlimit:10" d="M4.828 0 .965 1.46 2.24 0 .964-1.46Zm0 0" transform="scale(1 -1) rotate(-78.011 -91.137 -95.74)"/><path style="fill:none;stroke-width:.59776;stroke-linecap:butt;stroke-linejoin:miter;stroke:#000;stroke-opacity:1;stroke-miterlimit:10" d="m-229.41-178.284 1.683-7.942" transform="matrix(1 0 0 -1 255.625 9.169)"/><path style="fill-rule:nonzero;fill:#000;fill-opacity:1;stroke-width:.59776;stroke-linecap:butt;stroke-linejoin:round;stroke:#000;stroke-opacity:1;stroke-miterlimit:10" d="M4.829 0 .966 1.46 2.24-.002.965-1.46Zm0 0" transform="scale(1 -1) rotate(-78.011 -105.626 -113.63)"/><path style="fill:none;stroke-width:.59776;stroke-linecap:butt;stroke-linejoin:miter;stroke:#000;stroke-opacity:1;stroke-miterlimit:10" d="m-203.633-201.257 168.41-22.156" transform="matrix(1 0 0 -1 255.625 9.169)"/><path style="fill-rule:nonzero;fill:#000;fill-opacity:1;stroke-width:.59776;stroke-linecap:butt;stroke-linejoin:round;stroke:#000;stroke-opacity:1;stroke-miterlimit:10" d="M4.827 0 .967 1.46l1.275-1.46L.964-1.457Zm0 0" transform="matrix(.99141 .13042 .13042 -.99141 218.328 232.309)"/><path style="fill:none;stroke-width:.59776;stroke-linecap:butt;stroke-linejoin:miter;stroke:#000;stroke-opacity:1;stroke-miterlimit:10" d="m-216.93-206.632 9.047-9.047" transform="matrix(1 0 0 -1 255.625 9.169)"/><path style="fill-rule:nonzero;fill:#000;fill-opacity:1;stroke-width:.59776;stroke-linecap:butt;stroke-linejoin:round;stroke:#000;stroke-opacity:1;stroke-miterlimit:10" d="M4.827.002.963 1.458 2.24 0 .963-1.46Zm0 0" transform="scale(1 -1) rotate(-45 -246.5 -167.533)"/><path style="fill:none;stroke-width:.59776;stroke-linecap:butt;stroke-linejoin:miter;stroke:#000;stroke-opacity:1;stroke-miterlimit:10" d="m-203.672-202.827 85.121-17.453" transform="matrix(1 0 0 -1 255.625 9.169)"/><path style="fill-rule:nonzero;fill:#000;fill-opacity:1;stroke-width:.59776;stroke-linecap:butt;stroke-linejoin:round;stroke:#000;stroke-opacity:1;stroke-miterlimit:10" d="M4.83 0 .964 1.46 2.24 0 .965-1.46Zm0 0" transform="matrix(.97957 .20084 .20084 -.97957 135.027 229.03)"/><path style="fill:none;stroke-width:.59776;stroke-linecap:butt;stroke-linejoin:miter;stroke:#000;stroke-opacity:1;stroke-miterlimit:10" d="M-9.668-234.976v-7.851" transform="matrix(1 0 0 -1 255.625 9.169)"/><path style="fill-rule:nonzero;fill:#000;fill-opacity:1;stroke-width:.59776;stroke-linecap:butt;stroke-linejoin:round;stroke:#000;stroke-opacity:1;stroke-miterlimit:10" d="M4.829 0 .966 1.46 2.243 0 .966-1.459Zm0 0" transform="matrix(0 1 1 0 245.958 249.905)"/><path style="fill:none;stroke-width:.59776;stroke-linecap:butt;stroke-linejoin:miter;stroke:#000;stroke-opacity:1;stroke-miterlimit:10" d="m4.703-234.976 17.363-9.914" transform="matrix(1 0 0 -1 255.625 9.169)"/><path style="fill-rule:nonzero;fill:#000;fill-opacity:1;stroke-width:.59776;stroke-linecap:butt;stroke-linejoin:round;stroke:#000;stroke-opacity:1;stroke-miterlimit:10" d="M4.83-.001.963 1.459 2.241.002.966-1.46Zm0 0" transform="matrix(.86842 .49574 .49574 -.86842 275.877 253.023)"/><path style="fill:none;stroke-width:.59776;stroke-linecap:butt;stroke-linejoin:miter;stroke:#000;stroke-opacity:1;stroke-miterlimit:10" d="m139.855-64.897 11.274-9.332" transform="matrix(1 0 0 -1 255.625 9.169)"/><path style="fill-rule:nonzero;fill:#000;fill-opacity:1;stroke-width:.59776;stroke-linecap:butt;stroke-linejoin:round;stroke:#000;stroke-opacity:1;stroke-miterlimit:10" d="M4.83 0 .966 1.457 2.241.002.966-1.459Zm0 0" transform="matrix(.77023 .63766 .63766 -.77023 405.143 82.065)"/><path style="fill:none;stroke-width:.59776;stroke-linecap:butt;stroke-linejoin:miter;stroke:#000;stroke-opacity:1;stroke-miterlimit:10" d="M29.918-64.897 10.93-74.93" transform="matrix(1 0 0 -1 255.625 9.169)"/><path style="fill-rule:nonzero;fill:#000;fill-opacity:1;stroke-width:.59776;stroke-linecap:butt;stroke-linejoin:round;stroke:#000;stroke-opacity:1;stroke-miterlimit:10" d="M4.829 0 .964 1.46 2.24-.001.965-1.458Zm0 0" transform="matrix(-.88412 .46713 .46713 .88412 268.406 83.12)"/><path style="fill:none;stroke-width:.59776;stroke-linecap:butt;stroke-linejoin:miter;stroke:#000;stroke-opacity:1;stroke-miterlimit:10" d="M45.441-64.897v-7.852" transform="matrix(1 0 0 -1 255.625 9.169)"/><path style="fill-rule:nonzero;fill:#000;fill-opacity:1;stroke-width:.59776;stroke-linecap:butt;stroke-linejoin:round;stroke:#000;stroke-opacity:1;stroke-miterlimit:10" d="M4.828.001.964 1.458 2.242.001.964-1.459Zm0 0" transform="matrix(0 1 1 0 301.065 79.825)"/><path style="fill:none;stroke-width:.59776;stroke-linecap:butt;stroke-linejoin:miter;stroke:#000;stroke-opacity:1;stroke-miterlimit:10" d="m67.152-35.632 37.203-12.476" transform="matrix(1 0 0 -1 255.625 9.169)"/><path style="fill-rule:nonzero;fill:#000;fill-opacity:1;stroke-width:.59776;stroke-linecap:butt;stroke-linejoin:round;stroke:#000;stroke-opacity:1;stroke-miterlimit:10" d="M4.826 0 .966 1.458l1.277-1.46L.965-1.46Zm0 0" transform="matrix(.94804 .318 .318 -.94804 357.999 56.614)"/><path style="fill:none;stroke-width:.59776;stroke-linecap:butt;stroke-linejoin:miter;stroke:#000;stroke-opacity:1;stroke-miterlimit:10" d="M45.441-36.55V-44.4" transform="matrix(1 0 0 -1 255.625 9.169)"/><path style="fill-rule:nonzero;fill:#000;fill-opacity:1;stroke-width:.59776;stroke-linecap:butt;stroke-linejoin:round;stroke:#000;stroke-opacity:1;stroke-miterlimit:10" d="M4.827.001.964 1.458 2.24.001.964-1.459Zm0 0" transform="matrix(0 1 1 0 301.065 51.478)"/><path style="fill:none;stroke-width:.59776;stroke-linecap:butt;stroke-linejoin:miter;stroke:#000;stroke-opacity:1;stroke-miterlimit:10" d="M-8.21-93.241v-7.852" transform="matrix(1 0 0 -1 255.625 9.169)"/><path style="fill-rule:nonzero;fill:#000;fill-opacity:1;stroke-width:.59776;stroke-linecap:butt;stroke-linejoin:round;stroke:#000;stroke-opacity:1;stroke-miterlimit:10" d="M4.829-.002.965 1.46 2.243 0 .965-1.46Zm0 0" transform="matrix(0 1 1 0 247.416 108.171)"/><path style="fill:none;stroke-width:.59776;stroke-linecap:butt;stroke-linejoin:miter;stroke:#000;stroke-opacity:1;stroke-miterlimit:10" d="m15.148-121.487 31.168-10.809" transform="matrix(1 0 0 -1 255.625 9.169)"/><path style="fill-rule:nonzero;fill:#000;fill-opacity:1;stroke-width:.59776;stroke-linecap:butt;stroke-linejoin:round;stroke:#000;stroke-opacity:1;stroke-miterlimit:10" d="M4.827 0 .965 1.456 2.24 0 .967-1.458Zm0 0" transform="scale(1 -1) rotate(-19.123 -267.884 -960.774)"/><path style="fill:none;stroke-width:.59776;stroke-linecap:butt;stroke-linejoin:miter;stroke:#000;stroke-opacity:1;stroke-miterlimit:10" d="M73.54-149.936v-7.852" transform="matrix(1 0 0 -1 255.625 9.169)"/><path style="fill-rule:nonzero;fill:#000;fill-opacity:1;stroke-width:.59776;stroke-linecap:butt;stroke-linejoin:round;stroke:#000;stroke-opacity:1;stroke-miterlimit:10" d="M4.826-.001.967 1.459 2.24 0 .967-1.458Zm0 0" transform="matrix(0 1 1 0 329.165 164.865)"/><path style="fill:none;stroke-width:.59776;stroke-linecap:butt;stroke-linejoin:miter;stroke:#000;stroke-opacity:1;stroke-miterlimit:10" d="m53.285-149.936-25.703-10.407" transform="matrix(1 0 0 -1 255.625 9.169)"/><path style="fill-rule:nonzero;fill:#000;fill-opacity:1;stroke-width:.59776;stroke-linecap:butt;stroke-linejoin:round;stroke:#000;stroke-opacity:1;stroke-miterlimit:10" d="M4.828 0 .965 1.459 2.24-.001.964-1.458Zm0 0" transform="matrix(-.92686 .3753 .3753 .92686 285.147 168.727)"/><path style="fill:none;stroke-width:.59776;stroke-linecap:butt;stroke-linejoin:miter;stroke:#000;stroke-opacity:1;stroke-miterlimit:10" d="M45.441-93.241v-7.852" transform="matrix(1 0 0 -1 255.625 9.169)"/><path style="fill-rule:nonzero;fill:#000;fill-opacity:1;stroke-width:.59776;stroke-linecap:butt;stroke-linejoin:round;stroke:#000;stroke-opacity:1;stroke-miterlimit:10" d="M4.829.001.965 1.458 2.243.001.965-1.459Zm0 0" transform="matrix(0 1 1 0 301.065 108.171)"/><path style="fill:none;stroke-width:.59776;stroke-linecap:butt;stroke-linejoin:miter;stroke:#000;stroke-opacity:1;stroke-miterlimit:10" d="m66.355-119.944 39.426-12.364" transform="matrix(1 0 0 -1 255.625 9.169)"/><path style="fill-rule:nonzero;fill:#000;fill-opacity:1;stroke-width:.59776;stroke-linecap:butt;stroke-linejoin:round;stroke:#000;stroke-opacity:1;stroke-miterlimit:10" d="M4.828-.001.965 1.457 2.24-.002.966-1.458Zm0 0" transform="matrix(.95413 .29918 .29918 -.95413 359.41 140.851)"/><path style="fill:none;stroke-width:.59776;stroke-linecap:butt;stroke-linejoin:miter;stroke:#000;stroke-opacity:1;stroke-miterlimit:10" d="M164.188-93.241v-16.16c0-2.203-1.262-5.246-2.817-6.805l-14.434-14.434" transform="matrix(1 0 0 -1 255.625 9.169)"/><path style="fill-rule:nonzero;fill:#000;fill-opacity:1;stroke-width:.59776;stroke-linecap:butt;stroke-linejoin:round;stroke:#000;stroke-opacity:1;stroke-miterlimit:10" d="M4.828-.001.964 1.459 2.24.002.964-1.457Zm0 0" transform="scale(-1 1) rotate(45 -369.002 -418.56)"/><path style="fill:none;stroke-width:.59776;stroke-linecap:butt;stroke-linejoin:miter;stroke:#000;stroke-opacity:1;stroke-miterlimit:10" d="m112.379-121.589 10.805-9.277" transform="matrix(1 0 0 -1 255.625 9.169)"/><path style="fill-rule:nonzero;fill:#000;fill-opacity:1;stroke-width:.59776;stroke-linecap:butt;stroke-linejoin:round;stroke:#000;stroke-opacity:1;stroke-miterlimit:10" d="M4.825 0 .964 1.458 2.24 0 .966-1.46Zm0 0" transform="scale(.99995 -.99995) rotate(-40.647 1.406 -578.6)"/><path style="fill:none;stroke-width:.59776;stroke-linecap:butt;stroke-linejoin:miter;stroke:#000;stroke-opacity:1;stroke-miterlimit:10" d="m83.016-178.284 10.703-9.266" transform="matrix(1 0 0 -1 255.625 9.169)"/><path style="fill-rule:nonzero;fill:#000;fill-opacity:1;stroke-width:.59776;stroke-linecap:butt;stroke-linejoin:round;stroke:#000;stroke-opacity:1;stroke-miterlimit:10" d="M4.826-.001.966 1.456 2.243 0 .966-1.457Zm0 0" transform="matrix(.75604 .65448 .65448 -.75604 347.762 195.348)"/><path style="fill:none;stroke-width:.59776;stroke-linecap:butt;stroke-linejoin:miter;stroke:#000;stroke-opacity:1;stroke-miterlimit:10" d="m83.016-149.936 20.257-17.536c1.665-1.441 3.012-4.394 3.012-6.593v-12.07" transform="matrix(1 0 0 -1 255.625 9.169)"/><path style="fill-rule:nonzero;fill:#000;fill-opacity:1;stroke-width:.59776;stroke-linecap:butt;stroke-linejoin:round;stroke:#000;stroke-opacity:1;stroke-miterlimit:10" d="M4.827-.002.964 1.46 2.241 0 .964-1.46Zm0 0" transform="matrix(0 1 1 0 361.912 193.212)"/><path style="fill:none;stroke-width:.59776;stroke-linecap:butt;stroke-linejoin:miter;stroke:#000;stroke-opacity:1;stroke-miterlimit:10" d="m135.668-149.936-.348-16.16c-.047-2.2-1.36-5.231-2.93-6.774l-14.804-14.492" transform="matrix(1 0 0 -1 255.625 9.169)"/><path style="fill-rule:nonzero;fill:#000;fill-opacity:1;stroke-width:.59776;stroke-linecap:butt;stroke-linejoin:round;stroke:#000;stroke-opacity:1;stroke-miterlimit:10" d="M4.826 0 .966 1.456 2.24 0 .966-1.458Zm0 0" transform="matrix(-.7145 .69957 .69957 .7145 374.706 195.07)"/><path style="fill:none;stroke-width:.59776;stroke-linecap:butt;stroke-linejoin:miter;stroke:#000;stroke-opacity:1;stroke-miterlimit:10" d="M106.285-206.632v-7.847" transform="matrix(1 0 0 -1 255.625 9.169)"/><path style="fill-rule:nonzero;fill:#000;fill-opacity:1;stroke-width:.59776;stroke-linecap:butt;stroke-linejoin:round;stroke:#000;stroke-opacity:1;stroke-miterlimit:10" d="M4.828-.002.965 1.46 2.242 0 .965-1.46Zm0 0" transform="matrix(0 1 1 0 361.912 221.559)"/><path style="fill:none;stroke-width:.59776;stroke-linecap:butt;stroke-linejoin:miter;stroke:#000;stroke-opacity:1;stroke-miterlimit:10" d="M106.285-234.976v-7.851" transform="matrix(1 0 0 -1 255.625 9.169)"/><path style="fill-rule:nonzero;fill:#000;fill-opacity:1;stroke-width:.59776;stroke-linecap:butt;stroke-linejoin:round;stroke:#000;stroke-opacity:1;stroke-miterlimit:10" d="M4.829-.002.966 1.46 2.243 0 .966-1.46Zm0 0" transform="matrix(0 1 1 0 361.912 249.905)"/><path style="fill:none;stroke-width:.59776;stroke-linecap:butt;stroke-linejoin:miter;stroke:#000;stroke-opacity:1;stroke-miterlimit:10" d="M106.285-263.323v-7.852" transform="matrix(1 0 0 -1 255.625 9.169)"/><path style="fill-rule:nonzero;fill:#000;fill-opacity:1;stroke-width:.59776;stroke-linecap:butt;stroke-linejoin:round;stroke:#000;stroke-opacity:1;stroke-miterlimit:10" d="M4.826-.002.966 1.46 2.24 0 .967-1.46Zm0 0" transform="matrix(0 1 1 0 361.912 278.252)"/><path style="fill-rule:nonzero;fill:#fff;fill-opacity:1;stroke-width:.79701;stroke-linecap:butt;stroke-linejoin:miter;stroke:#ccc;stroke-opacity:1;stroke-miterlimit:10" d="M23.691 7.806H-23.69a3.984 3.984 0 0 1-3.985-3.989v-7.636c0-2.2 1.781-3.985 3.985-3.985H23.69a3.984 3.984 0 0 1 3.985 3.985v7.636a3.984 3.984 0 0 1-3.985 3.989Zm0 0" transform="matrix(1 0 0 -1 255.625 9.169)"/><g style="fill:#000;fill-opacity:1"><use xlink:href="#a" x="231.268" y="11.66"/><use xlink:href="#b" x="236.154" y="11.66"/><use xlink:href="#c" x="239.947" y="11.66"/></g><g style="fill:#000;fill-opacity:1"><use xlink:href="#d" x="248.627" y="11.66"/><use xlink:href="#e" x="255.027" y="11.66"/><use xlink:href="#f" x="260.455" y="11.66"/><use xlink:href="#b" x="263.164" y="11.66"/><use xlink:href="#f" x="266.958" y="11.66"/><use xlink:href="#g" x="269.668" y="11.66"/><use xlink:href="#h" x="274.554" y="11.66"/></g><path style="fill-rule:nonzero;fill:#fff;fill-opacity:1;stroke-width:.79701;stroke-linecap:butt;stroke-linejoin:miter;stroke:#ccc;stroke-opacity:1;stroke-miterlimit:10" d="M23.69 7.805h-47.382a3.984 3.984 0 0 1-3.984-3.988V-3.82c0-2.2 1.78-3.984 3.984-3.984H23.69a3.987 3.987 0 0 1 3.988 3.984v7.637a3.988 3.988 0 0 1-3.988 3.988Zm0 0" transform="matrix(1 0 0 -1 181.528 37.516)"/><g style="fill:#000;fill-opacity:1"><use xlink:href="#i" x="157.171" y="40.006"/><use xlink:href="#b" x="162.057" y="40.006"/><use xlink:href="#c" x="165.85" y="40.006"/></g><g style="fill:#000;fill-opacity:1"><use xlink:href="#d" x="174.53" y="40.006"/><use xlink:href="#e" x="180.93" y="40.006"/><use xlink:href="#f" x="186.358" y="40.006"/><use xlink:href="#b" x="189.067" y="40.006"/><use xlink:href="#f" x="192.861" y="40.006"/><use xlink:href="#g" x="195.571" y="40.006"/><use xlink:href="#h" x="200.457" y="40.006"/></g><path style="fill-rule:nonzero;fill:#fff;fill-opacity:1;stroke-width:.79701;stroke-linecap:butt;stroke-linejoin:miter;stroke:#ccc;stroke-opacity:1;stroke-miterlimit:10" d="M19.025 7.805h-38.05a3.987 3.987 0 0 1-3.985-3.988V-3.82c0-2.2 1.785-3.984 3.984-3.984h38.05A3.984 3.984 0 0 1 23.01-3.82v7.637a3.984 3.984 0 0 1-3.984 3.988Zm0 0" transform="matrix(1 0 0 -1 301.065 37.516)"/><g style="fill:#000;fill-opacity:1"><use xlink:href="#j" x="281.374" y="40.006"/><use xlink:href="#k" x="288.029" y="40.006"/><use xlink:href="#l" x="298.095" y="40.006"/></g><g style="fill:#000;fill-opacity:1"><use xlink:href="#m" x="308.273" y="40.006"/><use xlink:href="#n" x="313.159" y="40.006"/><use xlink:href="#o" x="315.869" y="40.006"/></g><path style="fill-rule:nonzero;fill:#fff;fill-opacity:1;stroke-width:.79701;stroke-linecap:butt;stroke-linejoin:miter;stroke:#ccc;stroke-opacity:1;stroke-miterlimit:10" d="M8.651 7.803H-8.653a3.986 3.986 0 0 1-3.985-3.984v-7.637a3.984 3.984 0 0 1 3.985-3.984H8.65a3.981 3.981 0 0 1 3.985 3.984V3.82c0 2.2-1.781 3.984-3.985 3.984Zm0 0" transform="matrix(1 0 0 -1 49.622 65.862)"/><g style="fill:#000;fill-opacity:1"><use xlink:href="#p" x="40.305" y="68.353"/><use xlink:href="#q" x="46.163" y="68.353"/><use xlink:href="#r" x="51.591" y="68.353"/></g><path style="fill-rule:nonzero;fill:#fff;fill-opacity:1;stroke-width:.79701;stroke-linecap:butt;stroke-linejoin:miter;stroke:#ccc;stroke-opacity:1;stroke-miterlimit:10" d="M13.318 7.803h-26.636a3.984 3.984 0 0 1-3.985-3.984v-7.637a3.981 3.981 0 0 1 3.985-3.984h26.636a3.981 3.981 0 0 1 3.985 3.984V3.82c0 2.2-1.782 3.984-3.985 3.984Zm0 0" transform="matrix(1 0 0 -1 256.506 65.862)"/><use xlink:href="#m" x="242.522" y="68.353" style="fill:#000;fill-opacity:1"/><g style="fill:#000;fill-opacity:1"><use xlink:href="#l" x="250.659" y="68.353"/><use xlink:href="#q" x="257.586" y="68.353"/><use xlink:href="#s" x="263.013" y="68.353"/></g><path style="fill-rule:nonzero;fill:#fff;fill-opacity:1;stroke-width:.79701;stroke-linecap:butt;stroke-linejoin:miter;stroke:#ccc;stroke-opacity:1;stroke-miterlimit:10" d="M21.394 7.803h-42.786A3.987 3.987 0 0 1-25.38 3.82v-7.637a3.984 3.984 0 0 1 3.988-3.984h42.786c2.199 0 3.984 1.781 3.984 3.984V3.82c0 2.2-1.785 3.984-3.984 3.984Zm0 0" transform="matrix(1 0 0 -1 93.415 65.862)"/><g style="fill:#000;fill-opacity:1"><use xlink:href="#t" x="71.358" y="68.353"/><use xlink:href="#f" x="80.595" y="68.353"/><use xlink:href="#h" x="83.305" y="68.353"/><use xlink:href="#f" x="88.733" y="68.353"/></g><g style="fill:#000;fill-opacity:1"><use xlink:href="#u" x="94.694" y="68.353"/><use xlink:href="#h" x="102.178" y="68.353"/><use xlink:href="#f" x="107.606" y="68.353"/><use xlink:href="#v" x="110.316" y="68.353"/></g><path style="fill-rule:nonzero;fill:#fff;fill-opacity:1;stroke-width:.79701;stroke-linecap:butt;stroke-linejoin:miter;stroke:#ccc;stroke-opacity:1;stroke-miterlimit:10" d="M24.314 7.803h-48.63A3.986 3.986 0 0 1-28.3 3.82v-7.637a3.984 3.984 0 0 1 3.985-3.984h48.629a3.981 3.981 0 0 1 3.984 3.984V3.82c0 2.2-1.781 3.984-3.984 3.984Zm0 0" transform="matrix(1 0 0 -1 152.87 65.862)"/><use xlink:href="#k" x="127.892" y="68.353" style="fill:#000;fill-opacity:1"/><g style="fill:#000;fill-opacity:1"><use xlink:href="#g" x="137.145" y="68.353"/><use xlink:href="#w" x="142.031" y="68.353"/><use xlink:href="#w" x="144.741" y="68.353"/><use xlink:href="#g" x="147.451" y="68.353"/><use xlink:href="#h" x="152.336" y="68.353"/><use xlink:href="#x" x="157.764" y="68.353"/><use xlink:href="#g" x="162.65" y="68.353"/><use xlink:href="#h" x="167.535" y="68.353"/><use xlink:href="#x" x="172.963" y="68.353"/></g><path style="fill-rule:nonzero;fill:#fff;fill-opacity:1;stroke-width:.79701;stroke-linecap:butt;stroke-linejoin:miter;stroke:#ccc;stroke-opacity:1;stroke-miterlimit:10" d="M19.253 7.803h-38.504A3.987 3.987 0 0 1-23.24 3.82v-7.637a3.984 3.984 0 0 1 3.989-3.984h38.504a3.981 3.981 0 0 1 3.984 3.984V3.82c0 2.2-1.781 3.984-3.984 3.984Zm0 0" transform="matrix(1 0 0 -1 210.185 65.862)"/><g style="fill:#000;fill-opacity:1"><use xlink:href="#y" x="190.268" y="68.353"/><use xlink:href="#h" x="193.926" y="68.353"/></g><g style="fill:#000;fill-opacity:1"><use xlink:href="#b" x="199.083" y="68.353"/><use xlink:href="#z" x="202.877" y="68.353"/><use xlink:href="#A" x="207.348" y="68.353"/><use xlink:href="#e" x="211.381" y="68.353"/><use xlink:href="#B" x="216.808" y="68.353"/><use xlink:href="#b" x="221.559" y="68.353"/><use xlink:href="#B" x="225.352" y="68.353"/></g><path style="fill-rule:nonzero;fill:#fff;fill-opacity:1;stroke-width:.79701;stroke-linecap:butt;stroke-linejoin:miter;stroke:#ccc;stroke-opacity:1;stroke-miterlimit:10" d="M26.144 7.803h-52.289a3.986 3.986 0 0 1-3.984-3.984v-7.637a3.984 3.984 0 0 1 3.984-3.984h52.29c2.199 0 3.984 1.781 3.984 3.984V3.82c0 2.2-1.785 3.984-3.985 3.984Zm0 0" transform="matrix(1 0 0 -1 391.465 150.901)"/><g style="fill:#000;fill-opacity:1"><use xlink:href="#u" x="364.657" y="153.392"/><use xlink:href="#h" x="372.141" y="153.392"/><use xlink:href="#f" x="377.569" y="153.392"/><use xlink:href="#v" x="380.278" y="153.392"/><use xlink:href="#C" x="385.435" y="153.392"/><use xlink:href="#D" x="390.321" y="153.392"/><use xlink:href="#q" x="397.111" y="153.392"/></g><g style="fill:#000;fill-opacity:1"><use xlink:href="#E" x="405.791" y="153.392"/><use xlink:href="#n" x="410.676" y="153.392"/><use xlink:href="#o" x="413.386" y="153.392"/></g><path style="stroke:none;fill-rule:nonzero;fill:#fff;fill-opacity:1" d="M438.836 86.406h-38.05a3.984 3.984 0 0 0-3.985 3.985v7.636a3.984 3.984 0 0 0 3.984 3.985h38.05a3.981 3.981 0 0 0 3.985-3.985v-7.636a3.981 3.981 0 0 0-3.984-3.985Zm0 0"/><g clip-path="url(#F)"><path style="fill:none;stroke-width:.79701;stroke-linecap:butt;stroke-linejoin:miter;stroke:#ccc;stroke-opacity:1;stroke-miterlimit:10" d="M19.025 7.803h-38.05a3.984 3.984 0 0 1-3.985-3.985v-7.636a3.984 3.984 0 0 1 3.984-3.985h38.05a3.981 3.981 0 0 1 3.985 3.985v7.636a3.981 3.981 0 0 1-3.984 3.985Zm0 0" transform="matrix(1 0 0 -1 419.811 94.209)"/></g><g style="fill:#000;fill-opacity:1"><use xlink:href="#j" x="400.121" y="96.699"/><use xlink:href="#k" x="406.776" y="96.699"/><use xlink:href="#l" x="416.842" y="96.699"/></g><g style="fill:#000;fill-opacity:1"><use xlink:href="#G" x="427.02" y="96.699"/><use xlink:href="#n" x="431.906" y="96.699"/><use xlink:href="#o" x="434.616" y="96.699"/></g><path style="fill-rule:nonzero;fill:#fff;fill-opacity:1;stroke-width:.79701;stroke-linecap:butt;stroke-linejoin:miter;stroke:#ccc;stroke-opacity:1;stroke-miterlimit:10" d="M23.69 7.803h-47.382a3.981 3.981 0 0 1-3.984-3.985v-7.636a3.981 3.981 0 0 1 3.984-3.985h47.383a3.984 3.984 0 0 1 3.988 3.985v7.636a3.984 3.984 0 0 1-3.988 3.985Zm0 0" transform="matrix(1 0 0 -1 87.188 94.209)"/><g style="fill:#000;fill-opacity:1"><use xlink:href="#H" x="62.831" y="96.699"/><use xlink:href="#b" x="67.717" y="96.699"/><use xlink:href="#c" x="71.51" y="96.699"/></g><g style="fill:#000;fill-opacity:1"><use xlink:href="#d" x="80.19" y="96.699"/><use xlink:href="#e" x="86.59" y="96.699"/><use xlink:href="#f" x="92.018" y="96.699"/><use xlink:href="#b" x="94.727" y="96.699"/><use xlink:href="#f" x="98.521" y="96.699"/><use xlink:href="#g" x="101.231" y="96.699"/><use xlink:href="#h" x="106.117" y="96.699"/></g><path style="fill-rule:nonzero;fill:#fff;fill-opacity:1;stroke-width:.79701;stroke-linecap:butt;stroke-linejoin:miter;stroke:#ccc;stroke-opacity:1;stroke-miterlimit:10" d="M23.691 7.804H-23.69a3.984 3.984 0 0 1-3.985-3.984v-7.637a3.984 3.984 0 0 1 3.985-3.988H23.69a3.984 3.984 0 0 1 3.985 3.988V3.82c0 2.2-1.781 3.984-3.985 3.984Zm0 0" transform="matrix(1 0 0 -1 168.75 235.941)"/><g style="fill:#000;fill-opacity:1"><use xlink:href="#I" x="144.394" y="238.431"/><use xlink:href="#b" x="149.28" y="238.431"/><use xlink:href="#c" x="153.073" y="238.431"/></g><g style="fill:#000;fill-opacity:1"><use xlink:href="#d" x="161.753" y="238.431"/><use xlink:href="#e" x="168.153" y="238.431"/><use xlink:href="#f" x="173.581" y="238.431"/><use xlink:href="#b" x="176.29" y="238.431"/><use xlink:href="#f" x="180.084" y="238.431"/><use xlink:href="#g" x="182.794" y="238.431"/><use xlink:href="#h" x="187.68" y="238.431"/></g><path style="fill-rule:nonzero;fill:#fff;fill-opacity:1;stroke-width:.79701;stroke-linecap:butt;stroke-linejoin:miter;stroke:#ccc;stroke-opacity:1;stroke-miterlimit:10" d="M7.896 7.805H-7.897a3.987 3.987 0 0 1-3.984-3.988V-3.82c0-2.2 1.785-3.984 3.984-3.984H7.896c2.2 0 3.984 1.785 3.984 3.984v7.637a3.987 3.987 0 0 1-3.984 3.988Zm0 0" transform="matrix(1 0 0 -1 24.475 122.555)"/><g style="fill:#000;fill-opacity:1"><use xlink:href="#E" x="15.915" y="125.046"/><use xlink:href="#G" x="20.801" y="125.046"/><use xlink:href="#J" x="25.686" y="125.046"/></g><path style="fill-rule:nonzero;fill:#fff;fill-opacity:1;stroke-width:.79701;stroke-linecap:butt;stroke-linejoin:miter;stroke:#ccc;stroke-opacity:1;stroke-miterlimit:10" d="M10.071 7.805h-20.144a3.986 3.986 0 0 1-3.984-3.984V-3.82c0-2.2 1.785-3.984 3.984-3.984H10.07c2.2 0 3.985 1.785 3.985 3.984v7.64c0 2.2-1.785 3.985-3.985 3.985Zm0 0" transform="matrix(1 0 0 -1 115.534 207.594)"/><g style="fill:#000;fill-opacity:1"><use xlink:href="#J" x="104.798" y="210.085"/><use xlink:href="#H" x="112.146" y="210.085"/><use xlink:href="#t" x="117.032" y="210.085"/></g><path style="fill-rule:nonzero;fill:#fff;fill-opacity:1;stroke-width:.79701;stroke-linecap:butt;stroke-linejoin:miter;stroke:#ccc;stroke-opacity:1;stroke-miterlimit:10" d="M18.792 7.803H-18.79a3.981 3.981 0 0 1-3.984-3.985v-7.636c0-2.2 1.781-3.985 3.984-3.985h37.582c2.2 0 3.985 1.785 3.985 3.985v7.636a3.984 3.984 0 0 1-3.985 3.985Zm0 0" transform="matrix(1 0 0 -1 87.188 264.287)"/><g style="fill:#000;fill-opacity:1"><use xlink:href="#u" x="67.732" y="266.778"/><use xlink:href="#w" x="75.216" y="266.778"/><use xlink:href="#b" x="77.926" y="266.778"/><use xlink:href="#A" x="81.72" y="266.778"/><use xlink:href="#f" x="85.752" y="266.778"/><use xlink:href="#v" x="88.462" y="266.778"/><use xlink:href="#K" x="93.619" y="266.778"/><use xlink:href="#m" x="96.871" y="266.778"/><use xlink:href="#m" x="101.756" y="266.778"/></g><path style="fill-rule:nonzero;fill:#fff;fill-opacity:1;stroke-width:.79701;stroke-linecap:butt;stroke-linejoin:miter;stroke:#ccc;stroke-opacity:1;stroke-miterlimit:10" d="M11.893 7.805h-23.785a3.984 3.984 0 0 1-3.984-3.988V-3.82c0-2.2 1.781-3.984 3.984-3.984h23.785c2.2 0 3.985 1.785 3.985 3.984v7.637a3.987 3.987 0 0 1-3.985 3.988Zm0 0" transform="matrix(1 0 0 -1 143.88 122.555)"/><g style="fill:#000;fill-opacity:1"><use xlink:href="#r" x="131.323" y="125.046"/><use xlink:href="#z" x="138.671" y="125.046"/><use xlink:href="#h" x="143.143" y="125.046"/><use xlink:href="#f" x="148.57" y="125.046"/><use xlink:href="#v" x="151.28" y="125.046"/></g><path style="fill-rule:nonzero;fill:#fff;fill-opacity:1;stroke-width:.79701;stroke-linecap:butt;stroke-linejoin:miter;stroke:#ccc;stroke-opacity:1;stroke-miterlimit:10" d="M20.265 7.805h-40.531a3.987 3.987 0 0 1-3.985-3.988V-3.82c0-2.2 1.785-3.984 3.985-3.984h40.53A3.984 3.984 0 0 1 24.25-3.82v7.637a3.984 3.984 0 0 1-3.984 3.988Zm0 0" transform="matrix(1 0 0 -1 189.786 122.555)"/><g style="fill:#000;fill-opacity:1"><use xlink:href="#u" x="168.857" y="125.046"/><use xlink:href="#h" x="176.341" y="125.046"/><use xlink:href="#f" x="181.769" y="125.046"/><use xlink:href="#j" x="184.478" y="125.046"/><use xlink:href="#w" x="191.133" y="125.046"/><use xlink:href="#L" x="193.843" y="125.046"/><use xlink:href="#M" x="199.271" y="125.046"/><use xlink:href="#N" x="203.121" y="125.046"/></g><path style="fill-rule:nonzero;fill:#fff;fill-opacity:1;stroke-width:.79701;stroke-linecap:butt;stroke-linejoin:miter;stroke:#ccc;stroke-opacity:1;stroke-miterlimit:10" d="M23.694 7.803h-47.386a3.984 3.984 0 0 1-3.985-3.985v-7.636c0-2.2 1.785-3.985 3.985-3.985h47.386c2.2 0 3.985 1.785 3.985 3.985v7.636a3.984 3.984 0 0 1-3.985 3.985Zm0 0" transform="matrix(1 0 0 -1 143.419 264.287)"/><g style="fill:#000;fill-opacity:1"><use xlink:href="#O" x="119.062" y="266.778"/><use xlink:href="#b" x="123.948" y="266.778"/><use xlink:href="#c" x="127.741" y="266.778"/></g><g style="fill:#000;fill-opacity:1"><use xlink:href="#d" x="136.421" y="266.778"/><use xlink:href="#e" x="142.821" y="266.778"/><use xlink:href="#f" x="148.249" y="266.778"/><use xlink:href="#b" x="150.958" y="266.778"/><use xlink:href="#f" x="154.752" y="266.778"/><use xlink:href="#g" x="157.462" y="266.778"/><use xlink:href="#h" x="162.348" y="266.778"/></g><path style="fill-rule:nonzero;fill:#fff;fill-opacity:1;stroke-width:.79701;stroke-linecap:butt;stroke-linejoin:miter;stroke:#ccc;stroke-opacity:1;stroke-miterlimit:10" d="M13.32 7.803h-26.638a3.987 3.987 0 0 1-3.988-3.984v-7.637a3.984 3.984 0 0 1 3.988-3.984H13.32c2.2 0 3.985 1.781 3.985 3.984V3.82c0 2.2-1.786 3.984-3.985 3.984Zm0 0" transform="matrix(1 0 0 -1 58.841 150.901)"/><use xlink:href="#G" x="44.858" y="153.392" style="fill:#000;fill-opacity:1"/><g style="fill:#000;fill-opacity:1"><use xlink:href="#l" x="52.988" y="153.392"/><use xlink:href="#q" x="59.914" y="153.392"/><use xlink:href="#s" x="65.341" y="153.392"/></g><path style="fill-rule:nonzero;fill:#fff;fill-opacity:1;stroke-width:.79701;stroke-linecap:butt;stroke-linejoin:miter;stroke:#ccc;stroke-opacity:1;stroke-miterlimit:10" d="M17.116 7.804h-34.234a3.986 3.986 0 0 1-3.985-3.984v-7.637a3.987 3.987 0 0 1 3.985-3.988h34.234A3.984 3.984 0 0 1 21.1-3.817V3.82c0 2.2-1.78 3.984-3.984 3.984Zm0 0" transform="matrix(1 0 0 -1 58.841 235.941)"/><g style="fill:#000;fill-opacity:1"><use xlink:href="#G" x="41.06" y="238.431"/><use xlink:href="#n" x="45.946" y="238.431"/><use xlink:href="#I" x="48.656" y="238.431"/></g><g style="fill:#000;fill-opacity:1"><use xlink:href="#l" x="56.793" y="238.431"/><use xlink:href="#q" x="63.719" y="238.431"/><use xlink:href="#s" x="69.147" y="238.431"/></g><path style="fill-rule:nonzero;fill:#fff;fill-opacity:1;stroke-width:.79701;stroke-linecap:butt;stroke-linejoin:miter;stroke:#ccc;stroke-opacity:1;stroke-miterlimit:10" d="M17.118 7.803h-34.235A3.981 3.981 0 0 1-21.1 3.818v-7.636c0-2.2 1.781-3.985 3.984-3.985h34.235c2.199 0 3.984 1.785 3.984 3.985v7.636a3.984 3.984 0 0 1-3.984 3.985Zm0 0" transform="matrix(1 0 0 -1 197.976 264.287)"/><g style="fill:#000;fill-opacity:1"><use xlink:href="#G" x="180.195" y="266.778"/><use xlink:href="#n" x="185.081" y="266.778"/><use xlink:href="#O" x="187.791" y="266.778"/></g><g style="fill:#000;fill-opacity:1"><use xlink:href="#l" x="195.928" y="266.778"/><use xlink:href="#q" x="202.854" y="266.778"/><use xlink:href="#s" x="208.282" y="266.778"/></g><path style="fill-rule:nonzero;fill:#fff;fill-opacity:1;stroke-width:.79701;stroke-linecap:butt;stroke-linejoin:miter;stroke:#ccc;stroke-opacity:1;stroke-miterlimit:10" d="M13.318 7.803h-26.636a3.984 3.984 0 0 1-3.985-3.984v-7.637a3.981 3.981 0 0 1 3.985-3.984h26.636a3.981 3.981 0 0 1 3.985 3.984V3.82c0 2.2-1.781 3.984-3.985 3.984Zm0 0" transform="matrix(1 0 0 -1 18.455 150.901)"/><use xlink:href="#E" x="4.471" y="153.392" style="fill:#000;fill-opacity:1"/><g style="fill:#000;fill-opacity:1"><use xlink:href="#l" x="12.608" y="153.392"/><use xlink:href="#q" x="19.535" y="153.392"/><use xlink:href="#s" x="24.962" y="153.392"/></g><path style="fill-rule:nonzero;fill:#fff;fill-opacity:1;stroke-width:.79701;stroke-linecap:butt;stroke-linejoin:miter;stroke:#ccc;stroke-opacity:1;stroke-miterlimit:10" d="M13.318 7.803h-26.637a3.981 3.981 0 0 1-3.984-3.985v-7.636a3.981 3.981 0 0 1 3.984-3.985h26.637a3.981 3.981 0 0 1 3.984 3.985v7.636a3.981 3.981 0 0 1-3.984 3.985Zm0 0" transform="matrix(1 0 0 -1 24.475 179.248)"/><use xlink:href="#P" x="10.491" y="181.738" style="fill:#000;fill-opacity:1"/><g style="fill:#000;fill-opacity:1"><use xlink:href="#l" x="18.628" y="181.738"/><use xlink:href="#q" x="25.555" y="181.738"/><use xlink:href="#s" x="30.982" y="181.738"/></g><path style="fill-rule:nonzero;fill:#fff;fill-opacity:1;stroke-width:.79701;stroke-linecap:butt;stroke-linejoin:miter;stroke:#ccc;stroke-opacity:1;stroke-miterlimit:10" d="M17.118 7.805h-34.234A3.984 3.984 0 0 1-21.1 3.82V-3.82c0-2.2 1.78-3.984 3.984-3.984h34.234c2.2 0 3.985 1.785 3.985 3.984v7.64c0 2.2-1.786 3.985-3.985 3.985Zm0 0" transform="matrix(1 0 0 -1 30.495 207.594)"/><g style="fill:#000;fill-opacity:1"><use xlink:href="#P" x="12.713" y="210.085"/><use xlink:href="#n" x="17.599" y="210.085"/><use xlink:href="#m" x="20.309" y="210.085"/></g><g style="fill:#000;fill-opacity:1"><use xlink:href="#l" x="28.446" y="210.085"/><use xlink:href="#q" x="35.372" y="210.085"/><use xlink:href="#s" x="40.8" y="210.085"/></g><path style="fill-rule:nonzero;fill:#fff;fill-opacity:1;stroke-width:.79701;stroke-linecap:butt;stroke-linejoin:miter;stroke:#ccc;stroke-opacity:1;stroke-miterlimit:10" d="M17.116 7.804h-34.234a3.986 3.986 0 0 1-3.985-3.984v-7.637a3.987 3.987 0 0 1 3.985-3.988h34.234a3.984 3.984 0 0 1 3.985 3.988V3.82c0 2.2-1.782 3.984-3.985 3.984Zm0 0" transform="matrix(1 0 0 -1 245.958 235.941)"/><g style="fill:#000;fill-opacity:1"><use xlink:href="#P" x="228.177" y="238.431"/><use xlink:href="#n" x="233.063" y="238.431"/><use xlink:href="#G" x="235.773" y="238.431"/></g><g style="fill:#000;fill-opacity:1"><use xlink:href="#l" x="243.91" y="238.431"/><use xlink:href="#q" x="250.836" y="238.431"/><use xlink:href="#s" x="256.264" y="238.431"/></g><path style="fill-rule:nonzero;fill:#fff;fill-opacity:1;stroke-width:.79701;stroke-linecap:butt;stroke-linejoin:miter;stroke:#ccc;stroke-opacity:1;stroke-miterlimit:10" d="M17.116 7.803h-34.234a3.984 3.984 0 0 1-3.985-3.985v-7.636c0-2.2 1.786-3.985 3.985-3.985h34.234a3.984 3.984 0 0 1 3.985 3.985v7.636a3.981 3.981 0 0 1-3.985 3.985Zm0 0" transform="matrix(1 0 0 -1 245.958 264.287)"/><g style="fill:#000;fill-opacity:1"><use xlink:href="#P" x="228.177" y="266.778"/><use xlink:href="#n" x="233.063" y="266.778"/><use xlink:href="#E" x="235.773" y="266.778"/></g><g style="fill:#000;fill-opacity:1"><use xlink:href="#l" x="243.91" y="266.778"/><use xlink:href="#q" x="250.836" y="266.778"/><use xlink:href="#s" x="256.264" y="266.778"/></g><path style="fill-rule:nonzero;fill:#fff;fill-opacity:1;stroke-width:.79701;stroke-linecap:butt;stroke-linejoin:miter;stroke:#ccc;stroke-opacity:1;stroke-miterlimit:10" d="M18.792 7.803H-18.79a3.981 3.981 0 0 1-3.984-3.985v-7.636c0-2.2 1.781-3.985 3.984-3.985h37.582c2.2 0 3.985 1.785 3.985 3.985v7.636a3.984 3.984 0 0 1-3.985 3.985Zm0 0" transform="matrix(1 0 0 -1 295.614 264.287)"/><g style="fill:#000;fill-opacity:1"><use xlink:href="#u" x="276.159" y="266.778"/><use xlink:href="#w" x="283.643" y="266.778"/><use xlink:href="#b" x="286.353" y="266.778"/><use xlink:href="#A" x="290.147" y="266.778"/><use xlink:href="#f" x="294.179" y="266.778"/><use xlink:href="#v" x="296.889" y="266.778"/><use xlink:href="#K" x="302.046" y="266.778"/><use xlink:href="#E" x="305.298" y="266.778"/><use xlink:href="#G" x="310.183" y="266.778"/></g><path style="fill-rule:nonzero;fill:#fff;fill-opacity:1;stroke-width:.79701;stroke-linecap:butt;stroke-linejoin:miter;stroke:#ccc;stroke-opacity:1;stroke-miterlimit:10" d="M19.028 7.803h-38.055a3.986 3.986 0 0 1-3.984-3.984v-7.637a3.984 3.984 0 0 1 3.984-3.984h38.055c2.199 0 3.984 1.781 3.984 3.984V3.82c0 2.2-1.785 3.984-3.984 3.984Zm0 0" transform="matrix(1 0 0 -1 385.57 65.862)"/><g style="fill:#000;fill-opacity:1"><use xlink:href="#j" x="365.88" y="68.353"/><use xlink:href="#k" x="372.535" y="68.353"/><use xlink:href="#l" x="382.601" y="68.353"/></g><g style="fill:#000;fill-opacity:1"><use xlink:href="#m" x="392.779" y="68.353"/><use xlink:href="#n" x="397.665" y="68.353"/><use xlink:href="#G" x="400.375" y="68.353"/></g><path style="fill-rule:nonzero;fill:#fff;fill-opacity:1;stroke-width:.79701;stroke-linecap:butt;stroke-linejoin:miter;stroke:#ccc;stroke-opacity:1;stroke-miterlimit:10" d="M17.49 7.803h-34.98a3.984 3.984 0 0 1-3.985-3.984v-7.637a3.981 3.981 0 0 1 3.984-3.984h34.98a3.984 3.984 0 0 1 3.989 3.984V3.82c0 2.2-1.785 3.984-3.988 3.984Zm0 0" transform="matrix(1 0 0 -1 301.065 65.862)"/><g style="fill:#000;fill-opacity:1"><use xlink:href="#u" x="282.909" y="68.353"/><use xlink:href="#q" x="290.393" y="68.353"/><use xlink:href="#Q" x="295.821" y="68.353"/></g><g style="fill:#000;fill-opacity:1"><use xlink:href="#m" x="306.74" y="68.353"/><use xlink:href="#n" x="311.625" y="68.353"/><use xlink:href="#o" x="314.335" y="68.353"/></g><path style="fill-rule:nonzero;fill:#fff;fill-opacity:1;stroke-width:.79701;stroke-linecap:butt;stroke-linejoin:miter;stroke:#ccc;stroke-opacity:1;stroke-miterlimit:10" d="M22.408 7.803h-44.816a3.981 3.981 0 0 1-3.985-3.985v-7.636a3.981 3.981 0 0 1 3.985-3.985h44.816a3.981 3.981 0 0 1 3.985 3.985v7.636a3.981 3.981 0 0 1-3.985 3.985Zm0 0" transform="matrix(1 0 0 -1 247.416 94.209)"/><g style="fill:#000;fill-opacity:1"><use xlink:href="#R" x="224.342" y="96.699"/><use xlink:href="#l" x="231.396" y="96.699"/></g><g style="fill:#000;fill-opacity:1"><use xlink:href="#u" x="241.573" y="96.699"/><use xlink:href="#h" x="249.057" y="96.699"/><use xlink:href="#f" x="254.485" y="96.699"/><use xlink:href="#v" x="257.195" y="96.699"/></g><use xlink:href="#m" x="265.603" y="96.699" style="fill:#000;fill-opacity:1"/><path style="fill-rule:nonzero;fill:#fff;fill-opacity:1;stroke-width:.79701;stroke-linecap:butt;stroke-linejoin:miter;stroke:#ccc;stroke-opacity:1;stroke-miterlimit:10" d="M17.49 7.803h-34.98a3.981 3.981 0 0 1-3.985-3.985v-7.636a3.981 3.981 0 0 1 3.984-3.985h34.98a3.984 3.984 0 0 1 3.989 3.985v7.636a3.984 3.984 0 0 1-3.988 3.985Zm0 0" transform="matrix(1 0 0 -1 301.065 94.209)"/><g style="fill:#000;fill-opacity:1"><use xlink:href="#u" x="282.909" y="96.699"/><use xlink:href="#q" x="290.393" y="96.699"/><use xlink:href="#Q" x="295.821" y="96.699"/></g><g style="fill:#000;fill-opacity:1"><use xlink:href="#G" x="306.74" y="96.699"/><use xlink:href="#n" x="311.625" y="96.699"/><use xlink:href="#o" x="314.335" y="96.699"/></g><path style="fill-rule:nonzero;fill:#fff;fill-opacity:1;stroke-width:.79701;stroke-linecap:butt;stroke-linejoin:miter;stroke:#ccc;stroke-opacity:1;stroke-miterlimit:10" d="M22.408 7.805h-44.816a3.984 3.984 0 0 1-3.985-3.988V-3.82c0-2.2 1.782-3.984 3.985-3.984h44.816a3.984 3.984 0 0 1 3.985 3.984v7.637a3.984 3.984 0 0 1-3.985 3.988Zm0 0" transform="matrix(1 0 0 -1 247.416 122.555)"/><g style="fill:#000;fill-opacity:1"><use xlink:href="#R" x="224.342" y="125.046"/><use xlink:href="#l" x="231.396" y="125.046"/></g><g style="fill:#000;fill-opacity:1"><use xlink:href="#u" x="241.573" y="125.046"/><use xlink:href="#h" x="249.057" y="125.046"/><use xlink:href="#f" x="254.485" y="125.046"/><use xlink:href="#v" x="257.195" y="125.046"/></g><use xlink:href="#G" x="265.603" y="125.046" style="fill:#000;fill-opacity:1"/><path style="fill-rule:nonzero;fill:#fff;fill-opacity:1;stroke-width:.79701;stroke-linecap:butt;stroke-linejoin:miter;stroke:#ccc;stroke-opacity:1;stroke-miterlimit:10" d="M22.41 7.803h-44.82a3.986 3.986 0 0 1-3.984-3.984v-7.637a3.984 3.984 0 0 1 3.984-3.984h44.82c2.2 0 3.985 1.781 3.985 3.984V3.82c0 2.2-1.786 3.984-3.985 3.984Zm0 0" transform="matrix(1 0 0 -1 329.164 150.901)"/><g style="fill:#000;fill-opacity:1"><use xlink:href="#R" x="306.091" y="153.392"/><use xlink:href="#l" x="313.145" y="153.392"/></g><g style="fill:#000;fill-opacity:1"><use xlink:href="#u" x="323.322" y="153.392"/><use xlink:href="#h" x="330.806" y="153.392"/><use xlink:href="#f" x="336.234" y="153.392"/><use xlink:href="#v" x="338.944" y="153.392"/></g><use xlink:href="#E" x="347.352" y="153.392" style="fill:#000;fill-opacity:1"/><path style="fill-rule:nonzero;fill:#fff;fill-opacity:1;stroke-width:.79701;stroke-linecap:butt;stroke-linejoin:miter;stroke:#ccc;stroke-opacity:1;stroke-miterlimit:10" d="M25.871 7.803H-25.87a3.984 3.984 0 0 1-3.988-3.985v-7.636a3.984 3.984 0 0 1 3.988-3.985h51.742a3.981 3.981 0 0 1 3.985 3.985v7.636a3.981 3.981 0 0 1-3.985 3.985Zm0 0" transform="matrix(1 0 0 -1 329.164 179.248)"/><g style="fill:#000;fill-opacity:1"><use xlink:href="#u" x="302.628" y="181.738"/><use xlink:href="#h" x="310.112" y="181.738"/><use xlink:href="#f" x="315.54" y="181.738"/><use xlink:href="#v" x="318.249" y="181.738"/><use xlink:href="#C" x="323.406" y="181.738"/><use xlink:href="#D" x="328.292" y="181.738"/><use xlink:href="#q" x="335.082" y="181.738"/><use xlink:href="#N" x="340.51" y="181.738"/><use xlink:href="#N" x="348.105" y="181.738"/></g><path style="fill-rule:nonzero;fill:#fff;fill-opacity:1;stroke-width:.79701;stroke-linecap:butt;stroke-linejoin:miter;stroke:#ccc;stroke-opacity:1;stroke-miterlimit:10" d="M30.382 7.803h-60.766a3.984 3.984 0 0 1-3.984-3.985v-7.636a3.984 3.984 0 0 1 3.984-3.985h60.766a3.984 3.984 0 0 1 3.988 3.985v7.636a3.984 3.984 0 0 1-3.988 3.985Zm0 0" transform="matrix(1 0 0 -1 259.161 179.248)"/><g style="fill:#000;fill-opacity:1"><use xlink:href="#j" x="228.113" y="181.738"/><use xlink:href="#s" x="234.768" y="181.738"/><use xlink:href="#j" x="242.244" y="181.738"/><use xlink:href="#K" x="248.899" y="181.738"/><use xlink:href="#m" x="252.151" y="181.738"/><use xlink:href="#m" x="257.037" y="181.738"/></g><g style="fill:#000;fill-opacity:1"><use xlink:href="#q" x="265.174" y="181.738"/><use xlink:href="#S" x="270.602" y="181.738"/><use xlink:href="#M" x="275.758" y="181.738"/></g><use xlink:href="#J" x="282.86" y="181.738" style="fill:#000;fill-opacity:1"/><path style="fill-rule:nonzero;fill:#fff;fill-opacity:1;stroke-width:.79701;stroke-linecap:butt;stroke-linejoin:miter;stroke:#ccc;stroke-opacity:1;stroke-miterlimit:10" d="M17.49 7.805h-34.98a3.984 3.984 0 0 1-3.985-3.988V-3.82c0-2.2 1.781-3.984 3.984-3.984h34.98a3.987 3.987 0 0 1 3.989 3.984v7.637a3.988 3.988 0 0 1-3.988 3.988Zm0 0" transform="matrix(1 0 0 -1 301.065 122.555)"/><g style="fill:#000;fill-opacity:1"><use xlink:href="#u" x="282.909" y="125.046"/><use xlink:href="#q" x="290.393" y="125.046"/><use xlink:href="#Q" x="295.821" y="125.046"/></g><g style="fill:#000;fill-opacity:1"><use xlink:href="#E" x="306.74" y="125.046"/><use xlink:href="#n" x="311.625" y="125.046"/><use xlink:href="#o" x="314.335" y="125.046"/></g><path style="fill-rule:nonzero;fill:#fff;fill-opacity:1;stroke-width:.79701;stroke-linecap:butt;stroke-linejoin:miter;stroke:#ccc;stroke-opacity:1;stroke-miterlimit:10" d="M26.143 7.805h-52.285a3.984 3.984 0 0 1-3.985-3.988V-3.82c0-2.2 1.782-3.984 3.985-3.984h52.285a3.984 3.984 0 0 1 3.984 3.984v7.637a3.984 3.984 0 0 1-3.984 3.988Zm0 0" transform="matrix(1 0 0 -1 358.447 122.555)"/><g style="fill:#000;fill-opacity:1"><use xlink:href="#u" x="331.64" y="125.046"/><use xlink:href="#h" x="339.124" y="125.046"/><use xlink:href="#f" x="344.552" y="125.046"/><use xlink:href="#v" x="347.261" y="125.046"/><use xlink:href="#C" x="352.418" y="125.046"/><use xlink:href="#D" x="357.304" y="125.046"/><use xlink:href="#q" x="364.094" y="125.046"/></g><g style="fill:#000;fill-opacity:1"><use xlink:href="#m" x="372.774" y="125.046"/><use xlink:href="#n" x="377.659" y="125.046"/><use xlink:href="#o" x="380.369" y="125.046"/></g><path style="fill-rule:nonzero;fill:#fff;fill-opacity:1;stroke-width:.79701;stroke-linecap:butt;stroke-linejoin:miter;stroke:#ccc;stroke-opacity:1;stroke-miterlimit:10" d="M13.313 7.805h-26.625a3.986 3.986 0 0 1-3.985-3.984V-3.82c0-2.2 1.785-3.984 3.985-3.984h26.625c2.199 0 3.984 1.785 3.984 3.984v7.64c0 2.2-1.785 3.985-3.984 3.985Zm0 0" transform="matrix(1 0 0 -1 361.91 207.594)"/><g style="fill:#000;fill-opacity:1"><use xlink:href="#D" x="347.935" y="210.085"/><use xlink:href="#q" x="354.726" y="210.085"/></g><g style="fill:#000;fill-opacity:1"><use xlink:href="#P" x="363.405" y="210.085"/><use xlink:href="#n" x="368.291" y="210.085"/><use xlink:href="#o" x="371" y="210.085"/></g><path style="fill-rule:nonzero;fill:#fff;fill-opacity:1;stroke-width:.79701;stroke-linecap:butt;stroke-linejoin:miter;stroke:#ccc;stroke-opacity:1;stroke-miterlimit:10" d="M23.852 7.804h-47.703a3.984 3.984 0 0 1-3.985-3.984v-7.637a3.984 3.984 0 0 1 3.985-3.988h47.703c2.199 0 3.984 1.785 3.984 3.988V3.82c0 2.2-1.785 3.984-3.984 3.984Zm0 0" transform="matrix(1 0 0 -1 361.91 235.941)"/><g style="fill:#000;fill-opacity:1"><use xlink:href="#q" x="337.394" y="238.431"/><use xlink:href="#S" x="342.822" y="238.431"/><use xlink:href="#M" x="347.978" y="238.431"/><use xlink:href="#b" x="351.828" y="238.431"/><use xlink:href="#z" x="355.622" y="238.431"/><use xlink:href="#T" x="360.093" y="238.431"/></g><g style="fill:#000;fill-opacity:1"><use xlink:href="#J" x="371.482" y="238.431"/><use xlink:href="#n" x="378.831" y="238.431"/><use xlink:href="#o" x="381.54" y="238.431"/></g><path style="fill-rule:nonzero;fill:#fff;fill-opacity:1;stroke-width:.79701;stroke-linecap:butt;stroke-linejoin:miter;stroke:#ccc;stroke-opacity:1;stroke-miterlimit:10" d="M23.852 7.803h-47.703a3.981 3.981 0 0 1-3.985-3.985v-7.636c0-2.2 1.781-3.985 3.985-3.985h47.703c2.199 0 3.984 1.785 3.984 3.985v7.636a3.984 3.984 0 0 1-3.984 3.985Zm0 0" transform="matrix(1 0 0 -1 361.91 264.287)"/><g style="fill:#000;fill-opacity:1"><use xlink:href="#q" x="337.394" y="266.778"/><use xlink:href="#S" x="342.822" y="266.778"/><use xlink:href="#M" x="347.978" y="266.778"/><use xlink:href="#b" x="351.828" y="266.778"/><use xlink:href="#z" x="355.622" y="266.778"/><use xlink:href="#T" x="360.093" y="266.778"/></g><g style="fill:#000;fill-opacity:1"><use xlink:href="#J" x="371.482" y="266.778"/><use xlink:href="#n" x="378.831" y="266.778"/><use xlink:href="#G" x="381.54" y="266.778"/></g><path style="stroke:none;fill-rule:nonzero;fill:#fff;fill-opacity:1" d="M385.762 284.832h-47.703a3.981 3.981 0 0 0-3.985 3.984v7.637c0 2.2 1.781 3.985 3.985 3.985h47.703c2.199 0 3.984-1.786 3.984-3.985v-7.637a3.984 3.984 0 0 0-3.984-3.984Zm0 0"/><g clip-path="url(#U)"><path style="fill:none;stroke-width:.79701;stroke-linecap:butt;stroke-linejoin:miter;stroke:#ccc;stroke-opacity:1;stroke-miterlimit:10" d="M23.852 7.802h-47.703a3.981 3.981 0 0 1-3.985-3.984V-3.82c0-2.2 1.781-3.984 3.985-3.984h47.703c2.199 0 3.984 1.785 3.984 3.984v7.637a3.984 3.984 0 0 1-3.984 3.984Zm0 0" transform="matrix(1 0 0 -1 361.91 292.634)"/></g><g style="fill:#000;fill-opacity:1"><use xlink:href="#q" x="337.394" y="295.124"/><use xlink:href="#S" x="342.822" y="295.124"/><use xlink:href="#M" x="347.978" y="295.124"/><use xlink:href="#b" x="351.828" y="295.124"/><use xlink:href="#z" x="355.622" y="295.124"/><use xlink:href="#T" x="360.093" y="295.124"/></g><g style="fill:#000;fill-opacity:1"><use xlink:href="#J" x="371.482" y="295.124"/><use xlink:href="#n" x="378.831" y="295.124"/><use xlink:href="#E" x="381.54" y="295.124"/></g></svg>