<svg xmlns="http://www.w3.org/2000/svg" xmlns:xlink="http://www.w3.org/1999/xlink" width="78.532" height="20.163" viewBox="0 0 58.899 15.122" version="1.2"><defs><symbol overflow="visible" id="a"><path style="stroke:none" d="M2.922 0v-.469h-.688v-6.453L.47-6.844v.469c.625 0 .687 0 .687.39v5.516H.47V0l1.219-.031Zm0 0"/></symbol><symbol overflow="visible" id="b"><path style="stroke:none" d="M4.922-1.172c0-.172-.188-.172-.234-.172-.172 0-.188.047-.25.203-.204.485-.782.797-1.422.797-1.407 0-1.422-1.328-1.422-1.828h3.015c.22 0 .313 0 .313-.265 0-.313-.063-1.047-.563-1.547-.359-.36-.89-.532-1.578-.532C1.187-4.516.312-3.484.312-2.25c0 1.344 1 2.313 2.61 2.313 1.578 0 2-1.063 2-1.235ZM3.984-2.5h-2.39c.015-.39.031-.813.234-1.14.266-.391.672-.516.953-.516 1.172 0 1.188 1.312 1.203 1.656Zm0 0"/></symbol><symbol overflow="visible" id="c"><path style="stroke:none" d="M4.36-6.11c0-.421-.36-.874-1.141-.874-.969 0-2.047.421-2.047 1.546v1.016h-.75v.469h.75V-.47H.484V0l1.25-.031c.375 0 1.016 0 1.375.031v-.469H2.25v-3.484h1.14v-.469H2.188v-1.016c0-1.093.75-1.187 1-1.187.047 0 .11 0 .172.031a.585.585 0 0 0-.234.485c0 .421.36.609.61.609.296 0 .624-.203.624-.61Zm0 0"/></symbol><symbol overflow="visible" id="d"><path style="stroke:none" d="M3.813-1.234v-.532h-.47v.516c0 .672-.327.906-.609.906-.578 0-.578-.64-.578-.86v-2.75h1.469v-.468H2.156v-1.906h-.469c0 1-.484 1.984-1.484 2.016v.359h.828v2.734c0 1.063.86 1.282 1.578 1.282.75 0 1.204-.579 1.204-1.297Zm0 0"/></symbol></defs><path style="fill:none;stroke-width:.3985;stroke-linecap:butt;stroke-linejoin:miter;stroke:#000;stroke-opacity:1;stroke-miterlimit:10" d="M0 .001h56.297" transform="matrix(1 0 0 -1 1.149 11.087)"/><path style="fill:none;stroke-width:.3985;stroke-linecap:round;stroke-linejoin:round;stroke:#000;stroke-opacity:1;stroke-miterlimit:10" d="M-2.073 2.392C-1.693.958-.85.278.002.002-.85-.28-1.694-.957-2.073-2.39" transform="matrix(1 0 0 -1 57.643 11.087)"/><g style="fill:#000;fill-opacity:1"><use xlink:href="#a" x="21.305" y="7.507"/><use xlink:href="#b" x="24.484" y="7.507"/><use xlink:href="#c" x="29.734" y="7.507"/><use xlink:href="#d" x="33.231" y="7.507"/></g></svg>