<svg xmlns="http://www.w3.org/2000/svg" width="116.585" height="125.3" viewBox="0 0 87.439 93.975" version="1.2"><defs><clipPath id="a"><path d="M0 0h78v93.96H0Zm0 0"/></clipPath><clipPath id="b"><path d="M0 0h87.16v81H0Zm0 0"/></clipPath><clipPath id="c"><path d="M0 45h78v48.96H0Zm0 0"/></clipPath></defs><path style="fill:none;stroke-width:.3985;stroke-linecap:round;stroke-linejoin:miter;stroke:#000;stroke-opacity:1;stroke-miterlimit:10" d="M0-1.991v3.984M8.503-1.991v3.984M17.007-1.991v3.984M25.511-1.991v3.984M34.015-1.991v3.984M42.519-1.991v3.984M51.023-1.991v3.984M59.527-1.991v3.984M68.03-1.991v3.984M76.535-1.991v3.984M85.039-1.991v3.984M0 85.599v3.984M8.503 85.599v3.984M17.007 85.599v3.984M25.511 85.599v3.984M34.015 85.599v3.984M42.519 85.599v3.984M51.023 85.599v3.984M59.527 85.599v3.984M68.03 85.599v3.984M76.535 85.599v3.984M85.039 85.599v3.984" transform="matrix(1 0 0 -1 .918 90.77)"/><path style="fill:none;stroke-width:.59776;stroke-linecap:butt;stroke-linejoin:miter;stroke:#000;stroke-opacity:1;stroke-miterlimit:10" d="M42.519 42.673h8.504l8.504 22.46 17.008-11.23" transform="matrix(1 0 0 -1 .918 90.77)"/><g clip-path="url(#a)"><path style="fill:none;stroke-width:.59776;stroke-linecap:butt;stroke-linejoin:miter;stroke:#000;stroke-opacity:1;stroke-miterlimit:10" d="m8.503.001 8.504 20.21 8.504 67.38 42.52-67.38" transform="matrix(1 0 0 -1 .918 90.77)"/></g><g clip-path="url(#b)"><path style="fill:none;stroke-width:.59776;stroke-linecap:butt;stroke-linejoin:miter;stroke:#000;stroke-opacity:1;stroke-miterlimit:10" d="m0 18.638 17.007 9.316 17.008 27.953L85.04 87.591" transform="matrix(1 0 0 -1 .918 90.77)"/></g><g clip-path="url(#c)"><path style="fill:none;stroke-width:.59776;stroke-linecap:butt;stroke-linejoin:miter;stroke:#000;stroke-opacity:1;stroke-miterlimit:10" d="m0 .001 17.007 9.316 8.504 9.32 42.52 18.637" transform="matrix(1 0 0 -1 .918 90.77)"/></g></svg>