<svg xmlns="http://www.w3.org/2000/svg" width="382.899" height="82.395" viewBox="0 0 287.174 61.796" version="1.2"><defs><clipPath id="a"><path d="M0 0h286.762v61.695H0Zm0 0"/></clipPath><clipPath id="b"><path d="M129 52h15v9.695h-15Zm0 0"/></clipPath></defs><g clip-path="url(#a)"><path style="fill:none;stroke-width:.3985;stroke-linecap:butt;stroke-linejoin:miter;stroke:#000;stroke-opacity:1;stroke-miterlimit:10" d="M0 0S10.779 10.824 14.92 14.238c4.14 3.418 10.78 8.43 14.921 10.387 4.137 1.957 10.778 3.754 14.918 3.723 4.141-.035 10.778-1.942 14.918-3.953 4.141-2.016 10.782-7.106 14.922-10.555 4.137-3.45 10.778-10.352 14.918-14.3 4.14-3.954 10.778-10.794 14.918-14.177 4.14-3.386 10.781-8.312 14.922-10.214 4.14-1.903 10.777-3.582 14.918-3.489 4.14.098 10.781 2.117 14.918 4.184 4.14 2.07 10.781 7.242 14.922 10.723 4.14 3.48 10.777 10.406 14.918 14.355 4.14 3.953 10.781 10.758 14.922 14.11 4.136 3.35 10.777 8.195 14.918 10.038 4.14 1.844 10.777 3.415 14.918 3.254 4.14-.16 10.78-2.293 14.922-4.414 4.136-2.125 10.777-7.375 14.918-10.886 4.14-3.508 10.777-10.461 14.918-14.41 4.14-3.946 14.921-14.036 14.921-14.036" transform="matrix(1 0 0 -1 2.14 30.797)"/></g><path style="fill:none;stroke-width:.3985;stroke-linecap:butt;stroke-linejoin:miter;stroke:#000;stroke-opacity:1;stroke-miterlimit:10" d="m-1.41-1.41 2.82 2.82m-2.82 0 2.82-2.82M43.348 26.938l2.82 2.816m-2.82 0 2.82-2.816M88.106-1.871l2.82 2.816m-2.82 0 2.82-2.816" transform="matrix(1 0 0 -1 2.14 30.797)"/><g clip-path="url(#b)"><path style="fill:none;stroke-width:.3985;stroke-linecap:butt;stroke-linejoin:miter;stroke:#000;stroke-opacity:1;stroke-miterlimit:10" d="m132.864-29.746 2.82 2.816m-2.82 0 2.82-2.816" transform="matrix(1 0 0 -1 2.14 30.797)"/></g><path style="fill:none;stroke-width:.3985;stroke-linecap:butt;stroke-linejoin:miter;stroke:#000;stroke-opacity:1;stroke-miterlimit:10" d="m177.626-.484 2.816 2.816m-2.816 0 2.816-2.816M222.383 26.914l2.817 2.817m-2.817 0 2.817-2.817M267.141-2.793l2.817 2.817m-2.817 0 2.817-2.817" transform="matrix(1 0 0 -1 2.14 30.797)"/></svg>