<svg xmlns="http://www.w3.org/2000/svg" xmlns:xlink="http://www.w3.org/1999/xlink" width="46.279" height="46.275" viewBox="0 0 34.709 34.706" version="1.2"><defs><symbol overflow="visible" id="b"><path style="stroke:none" d="M4.5-4.297c0-.047-.031-.094-.094-.094-.11 0-.515.391-.672.688-.218-.547-.609-.703-.937-.703-1.172 0-2.39 1.468-2.39 2.922C.406-.516.983.109 1.718.109c.422 0 .812-.234 1.172-.593-.094.343-.422 1.687-.454 1.78-.078.282-.156.313-.718.329-.125 0-.219 0-.219.203 0 0 0 .11.125.11.313 0 .672-.032 1-.032.328 0 .688.032 1.031.032.047 0 .172 0 .172-.204 0-.109-.094-.109-.265-.109-.47 0-.47-.063-.47-.156 0-.078.016-.14.032-.219ZM1.75-.109c-.61 0-.64-.766-.64-.938 0-.484.28-1.562.452-1.984.313-.735.829-1.156 1.235-1.156.656 0 .797.812.797.875 0 .062-.547 2.25-.578 2.28-.157.282-.72.923-1.266.923Zm0 0"/></symbol><symbol overflow="visible" id="c"><path style="stroke:none" d="M2.328-4.438c0-.187 0-.187-.203-.187-.453.438-1.078.438-1.36.438v.25c.157 0 .626 0 1-.188v3.547c0 .234 0 .328-.687.328H.812V0c.125 0 .985-.031 1.235-.031.219 0 1.094.031 1.25.031v-.25H3.03c-.703 0-.703-.094-.703-.328Zm0 0"/></symbol><symbol overflow="visible" id="d"><path style="stroke:none" d="M4.578-3.188c0-.796-.047-1.593-.39-2.328C3.733-6.484 2.905-6.64 2.5-6.64c-.61 0-1.328.266-1.75 1.188-.313.687-.36 1.469-.36 2.266 0 .75.032 1.64.454 2.406a1.83 1.83 0 0 0 1.64 1c.532 0 1.297-.203 1.735-1.157.312-.687.36-1.468.36-2.25ZM2.484 0c-.39 0-.984-.25-1.156-1.203-.11-.594-.11-1.516-.11-2.11 0-.64 0-1.296.079-1.828.187-1.187.937-1.28 1.187-1.28.329 0 .985.187 1.172 1.171.11.563.11 1.313.11 1.938 0 .75 0 1.421-.11 2.062C3.5-.297 2.937 0 2.484 0Zm0 0"/></symbol><clipPath id="a"><path d="M0 0h34.563v34.559H0Zm0 0"/></clipPath></defs><path style="stroke:none;fill-rule:nonzero;fill:#fcc;fill-opacity:1" d="M32.855 17.21c0-8.64-7.003-15.644-15.64-15.644-8.64 0-15.645 7.004-15.645 15.645 0 8.64 7.004 15.644 15.645 15.644 8.637 0 15.64-7.003 15.64-15.644Zm0 0"/><g clip-path="url(#a)"><path style="fill:none;stroke-width:1.39478;stroke-linecap:butt;stroke-linejoin:miter;stroke:#000;stroke-opacity:1;stroke-miterlimit:10" d="M15.642.001c0 8.64-7.004 15.645-15.64 15.645-8.641 0-15.645-7.004-15.645-15.645 0-8.64 7.004-15.644 15.644-15.644C8.638-15.643 15.642-8.64 15.642 0Zm0 0" transform="matrix(1 0 0 -1 17.213 17.212)"/><path style="fill:none;stroke-width:.59776;stroke-linecap:butt;stroke-linejoin:miter;stroke:#fff;stroke-opacity:1;stroke-miterlimit:10" d="M15.642.001c0 8.64-7.004 15.645-15.64 15.645-8.641 0-15.645-7.004-15.645-15.645 0-8.64 7.004-15.644 15.644-15.644C8.638-15.643 15.642-8.64 15.642 0Zm0 0" transform="matrix(1 0 0 -1 17.213 17.212)"/></g><path style="fill:none;stroke-width:.3985;stroke-linecap:butt;stroke-linejoin:miter;stroke:#000;stroke-opacity:1;stroke-miterlimit:10" d="M-15.444.001h30.887" transform="matrix(1 0 0 -1 17.213 17.212)"/><use xlink:href="#b" x="12.755" y="11.755" style="fill:#000;fill-opacity:1"/><use xlink:href="#c" x="17.203" y="13.25" style="fill:#000;fill-opacity:1"/><g style="fill:#000;fill-opacity:1"><use xlink:href="#d" x="12.232" y="27.152"/><use xlink:href="#d" x="17.214" y="27.152"/></g></svg>