<svg xmlns="http://www.w3.org/2000/svg" xmlns:xlink="http://www.w3.org/1999/xlink" width="154.393" height="78.819" viewBox="0 0 115.795 59.114" version="1.2"><defs><clipPath id="e"><path d="M1 0h57v58H1Zm0 0"/></clipPath><clipPath id="f"><path d="M57.8 29.121C57.8 13.465 45.11.773 29.454.773 13.797.773 1.105 13.465 1.105 29.121c0 15.656 12.692 28.348 28.348 28.348 15.656 0 28.348-12.692 28.348-28.348Zm0 0"/></clipPath><clipPath id="a"><path d="M0 0h9v9H0z"/></clipPath><clipPath id="h"><path d="M0 0h64v58.672H0Zm0 0"/></clipPath><clipPath id="i"><path d="M29.453.773h85.04v28.348h-85.04Zm0 0"/></clipPath><clipPath id="c"><path d="M0 0h9v9H0z"/></clipPath><pattern id="g" patternUnits="userSpaceOnUse" width="9" height="9" patternTransform="matrix(.9449 0 0 -.9449 -143.094 13608.575)"><use xlink:href="#b"/></pattern><pattern id="j" patternUnits="userSpaceOnUse" width="9" height="9" patternTransform="matrix(.9449 0 0 -.9449 -143.094 13608.575)"><use xlink:href="#d"/></pattern><g id="b" clip-path="url(#a)"><path style="stroke:none;fill-rule:nonzero;fill:red;fill-opacity:1" d="M5.852 3.926H.148L4.762.574 3 6 1.238.574Zm0 0"/></g><g id="d" clip-path="url(#c)"><path style="stroke:none;fill-rule:nonzero;fill:#00f;fill-opacity:1" d="M5.852 3.926H.148L4.762.574 3 6 1.238.574Zm0 0"/></g></defs><g clip-path="url(#e)"><g clip-path="url(#f)"><path style="stroke:none;fill-rule:nonzero;fill:url(#g)" d="M1.105 57.469h56.696V.773H1.105Zm0 0"/></g></g><g clip-path="url(#h)"><path style="fill:none;stroke-width:.3985;stroke-linecap:butt;stroke-linejoin:miter;stroke:#000;stroke-opacity:1;stroke-miterlimit:10" d="M28.348 0c0 15.656-12.691 28.348-28.347 28.348-15.657 0-28.348-12.692-28.348-28.348 0-15.656 12.691-28.348 28.348-28.348 15.656 0 28.347 12.692 28.347 28.348Zm0 0" transform="matrix(1 0 0 -1 29.453 29.121)"/></g><g clip-path="url(#i)"><path style="stroke:none;fill-rule:nonzero;fill:url(#j)" d="M29.453 29.121h85.04V.773h-85.04Zm0 0"/></g><path style="fill:none;stroke-width:.3985;stroke-linecap:butt;stroke-linejoin:miter;stroke:#000;stroke-opacity:1;stroke-miterlimit:10" d="M0 0v28.348h85.04V0Zm0 0" transform="matrix(1 0 0 -1 29.453 29.121)"/></svg>