<svg xmlns="http://www.w3.org/2000/svg" xmlns:xlink="http://www.w3.org/1999/xlink" width="185.787" height="96.795" viewBox="0 0 139.34 72.596" version="1.2"><defs><symbol overflow="visible" id="a"><path style="stroke:none" d="M4.688-.375c0-.36-.282-.375-.47-.375H3.032v-4.86c0-.359-.078-.484-.469-.484h-1.53c-.188 0-.485.016-.485.375 0 .36.297.375.469.375h1.187V-.75H1.031c-.187 0-.484.016-.484.375 0 .36.297.375.469.375h3.203c.172 0 .468-.016.468-.375Zm0 0"/></symbol><symbol overflow="visible" id="b"><path style="stroke:none" d="M4.656-1.14c0-.329-.343-.344-.422-.344-.218 0-.312.03-.39.265-.203.453-.688.532-.938.532-.672 0-1.344-.422-1.515-1.172h2.796c.25 0 .47 0 .47-.438 0-1.14-.657-2.125-1.97-2.125-1.187 0-2.171 1-2.171 2.234C.516-.952 1.53.063 2.828.063c1.36 0 1.828-.937 1.828-1.203Zm-.86-1.454H1.392c.171-.625.687-1.078 1.296-1.078.47 0 1 .219 1.11 1.078Zm0 0"/></symbol><symbol overflow="visible" id="c"><path style="stroke:none" d="M5.11-.375c0-.36-.282-.375-.47-.375h-.343v-2.172c0-1.031-.531-1.469-1.344-1.469-.562 0-.953.22-1.203.407 0-.25-.078-.36-.469-.36H.578c-.187 0-.469.016-.469.375 0 .36.297.375.454.375h.359V-.75H.578C.391-.75.11-.734.11-.375c0 .36.297.375.454.375h1.546c.172 0 .47-.016.47-.375 0-.36-.282-.375-.47-.375H1.75v-1.64c0-.907.688-1.266 1.14-1.266.47 0 .579.25.579.781V-.75h-.297c-.188 0-.485.016-.485.375 0 .36.313.375.485.375h1.484c.157 0 .453-.016.453-.375Zm0 0"/></symbol><symbol overflow="visible" id="d"><path style="stroke:none" d="M5.094-3.844c0-.25-.203-.61-.782-.61-.109 0-.578.016-1.046.329-.172-.11-.5-.266-.938-.266-.953 0-1.687.75-1.687 1.625 0 .407.156.72.312.922-.11.157-.187.375-.187.657 0 .312.109.546.187.671C.266-.046.266.61.266.72c0 .86 1.046 1.5 2.343 1.5s2.344-.64 2.344-1.5c0-.375-.187-.89-.703-1.172-.14-.078-.547-.297-1.453-.297h-.688c-.171 0-.39.047-.53-.125-.095-.11-.11-.297-.11-.297 0-.031.015-.094.031-.156.14.078.469.203.828.203.938 0 1.688-.734 1.688-1.64 0-.282-.079-.547-.235-.813.156-.078.297-.094.406-.125a.476.476 0 0 0 .438.328c.203 0 .469-.14.469-.469ZM3.187-2.766c0 .5-.39.907-.859.907-.484 0-.86-.422-.86-.907 0-.5.391-.89.86-.89s.86.422.86.89ZM4.234.72c0 .406-.703.765-1.625.765-.921 0-1.625-.359-1.625-.765 0-.156.079-.438.375-.625.22-.14.313-.14 1-.14.813 0 1.875 0 1.875.765Zm0 0"/></symbol><symbol overflow="visible" id="e"><path style="stroke:none" d="M4.5-1.313c0-.203 0-.437-.422-.437-.39 0-.406.234-.406.438 0 .53-.5.625-.719.625-.656 0-.656-.454-.656-.672v-2.235h1.515c.172 0 .47-.015.47-.375 0-.375-.282-.375-.47-.375H2.298v-.718c0-.22-.016-.47-.406-.47-.422 0-.422.235-.422.47v.718H.703c-.187 0-.469.016-.469.375 0 .36.282.375.454.375h.78v2.281c0 1 .688 1.375 1.454 1.375.75 0 1.578-.453 1.578-1.375Zm0 0"/></symbol><symbol overflow="visible" id="f"><path style="stroke:none" d="M5.11-.375c0-.36-.282-.375-.47-.375h-.343v-2.172c0-1.031-.531-1.469-1.344-1.469a1.99 1.99 0 0 0-1.203.407V-5.61c0-.36-.063-.485-.469-.485H.578c-.187 0-.469.016-.469.375 0 .36.297.375.454.375h.359V-.75H.578C.391-.75.11-.734.11-.375c0 .36.297.375.454.375h1.546c.172 0 .47-.016.47-.375 0-.36-.282-.375-.47-.375H1.75v-1.64c0-.907.688-1.266 1.14-1.266.47 0 .579.25.579.781V-.75h-.297c-.188 0-.485.016-.485.375 0 .36.313.375.485.375h1.484c.157 0 .453-.016.453-.375Zm0 0"/></symbol><symbol overflow="visible" id="g"><path style="stroke:none" d="M-3.984-5.078c-.344 0-.36.266-.36.484v1.11c0 .218.016.5.36.5.375 0 .39-.266.39-.5v-.375l2.453.421-.75.188c-.687.188-.78.25-.78.625 0 .11 0 .328.265.453l1.281.375-2.469.438v-.391c0-.219-.015-.484-.375-.484s-.375.265-.375.484v1.125c0 .203.016.484.36.484.343 0 .39-.203.39-.5l3.188-.578c.281-.047.453-.093.453-.531 0-.438-.094-.484-.75-.64l-.906-.25 1.437-.376c.203-.14.219-.343.219-.484 0-.422-.188-.453-.453-.5l-3.188-.578c0-.313-.047-.5-.39-.5Zm0 0"/></symbol><symbol overflow="visible" id="h"><path style="stroke:none" d="M-.375-4.563c-.36 0-.375.297-.375.47v.937h-3.125c-.36 0-.469.078-.469.469v1.374c0 .188.016.485.36.485.375 0 .39-.297.39-.485v-1.015H-.75v1.11c0 .187.016.468.375.468.36 0 .375-.297.375-.469v-2.875c0-.172-.016-.468-.375-.468Zm-5.11 1.375a.56.56 0 0 0-.562.563c0 .328.25.578.563.578.328 0 .562-.25.562-.578a.55.55 0 0 0-.562-.563Zm0 0"/></symbol><symbol overflow="visible" id="i"><path style="stroke:none" d="M-.375-5.125c-.36 0-.375.297-.375.469v.36h-4.86c-.359 0-.484.062-.484.468v.703c0 .188.016.484.375.484.36 0 .375-.296.375-.468v-.36h1.297a1.729 1.729 0 0 0-.344 1.063c0 1.094.938 2.062 2.235 2.062C-.922-.344.063-1.25.063-2.328c0-.485-.204-.86-.454-1.14.282-.016.391-.079.391-.47v-.703c0-.187-.016-.484-.375-.484Zm-1.594 1.672c.516 0 1.282.406 1.282 1.094 0 .671-.657 1.203-1.47 1.203-.89 0-1.5-.64-1.5-1.282 0-.578.5-1.015 1-1.015Zm0 0"/></symbol><symbol overflow="visible" id="j"><path style="stroke:none" d="M-1.313-4.5c-.203 0-.437 0-.437.422 0 .39.234.406.438.406.53 0 .625.5.625.719 0 .656-.454.656-.672.656h-2.235v-1.515c0-.172-.015-.47-.375-.47-.375 0-.375.282-.375.47v1.515h-.718c-.22 0-.47.016-.47.406 0 .422.235.422.47.422h.718v.766c0 .187.016.469.375.469.36 0 .375-.282.375-.454v-.78h2.281c1 0 1.375-.688 1.375-1.454 0-.75-.453-1.578-1.375-1.578Zm0 0"/></symbol><symbol overflow="visible" id="k"><path style="stroke:none" d="M-.375-5.11c-.36 0-.375.282-.375.47v.343h-2.172c-1.031 0-1.469.531-1.469 1.344 0 .547.22.953.407 1.203H-5.61c-.36 0-.485.063-.485.469v.703c0 .187.016.469.375.469.36 0 .375-.297.375-.454v-.359H-.75v.344c0 .187.016.469.375.469.36 0 .375-.297.375-.454v-1.546c0-.172-.016-.47-.375-.47-.36 0-.375.282-.375.47v.359h-1.64c-.907 0-1.266-.688-1.266-1.14 0-.47.25-.579.781-.579H-.75v.297c0 .188.016.485.375.485.36 0 .375-.313.375-.485v-1.484c0-.157-.016-.453-.375-.453Zm0 0"/></symbol></defs><path style="fill:none;stroke-width:14.17339;stroke-linecap:butt;stroke-linejoin:miter;stroke:gray;stroke-opacity:1;stroke-miterlimit:10" d="M-113.388-.001h99.215" transform="matrix(1 0 0 -1 114.068 43.038)"/><path style="fill:none;stroke-width:14.17339;stroke-linecap:round;stroke-linejoin:round;stroke:#000;stroke-opacity:1;stroke-miterlimit:10" d="M-14.173 21.26C-11.583 8.504-5.813 2.48 0 0c-5.812-2.48-11.582-8.504-14.172-21.258" transform="matrix(1 0 0 -1 106.981 43.038)"/><path style="fill:none;stroke-width:.59776;stroke-linecap:butt;stroke-linejoin:miter;stroke:red;stroke-opacity:1;stroke-miterlimit:10" d="M-27.15 32.331h25.953" transform="matrix(1 0 0 -1 114.068 43.038)"/><path style="fill:none;stroke-width:.59776;stroke-linecap:round;stroke-linejoin:round;stroke:red;stroke-opacity:1;stroke-miterlimit:10" d="M-2.312 2.75C-1.89 1.1-.949.322.001 0-.95-.32-1.89-1.1-2.312-2.75" transform="matrix(-1 0 0 1 86.618 10.706)"/><path style="fill:none;stroke-width:.59776;stroke-linecap:butt;stroke-linejoin:miter;stroke:red;stroke-opacity:1;stroke-miterlimit:10" d="M0 2.688V-2.69" transform="matrix(-1 0 0 1 86.02 10.706)"/><path style="fill:none;stroke-width:.59776;stroke-linecap:round;stroke-linejoin:round;stroke:red;stroke-opacity:1;stroke-miterlimit:10" d="M-2.312 2.75C-1.89 1.1-.949.32.001 0-.95-.322-1.89-1.1-2.312-2.75" transform="matrix(1 0 0 -1 113.171 10.706)"/><path style="fill:none;stroke-width:.59776;stroke-linecap:butt;stroke-linejoin:miter;stroke:red;stroke-opacity:1;stroke-miterlimit:10" d="M0 2.69v-5.378" transform="matrix(1 0 0 -1 113.77 10.706)"/><g style="fill:red;fill-opacity:1"><use xlink:href="#a" x="84.204" y="6.858"/><use xlink:href="#b" x="89.434" y="6.858"/><use xlink:href="#c" x="94.665" y="6.858"/><use xlink:href="#d" x="99.895" y="6.858"/><use xlink:href="#e" x="105.126" y="6.858"/><use xlink:href="#f" x="110.356" y="6.858"/></g><path style="fill:none;stroke-width:.59776;stroke-linecap:butt;stroke-linejoin:miter;stroke:red;stroke-opacity:1;stroke-miterlimit:10" d="M14.174-27.15v54.301" transform="matrix(1 0 0 -1 114.068 43.038)"/><path style="fill:none;stroke-width:.59776;stroke-linecap:round;stroke-linejoin:round;stroke:red;stroke-opacity:1;stroke-miterlimit:10" d="M-2.312 2.75C-1.89 1.099-.95.322 0 0c-.95-.32-1.89-1.1-2.312-2.75" transform="matrix(0 1 1 0 128.241 70.488)"/><path style="fill:none;stroke-width:.59776;stroke-linecap:butt;stroke-linejoin:miter;stroke:red;stroke-opacity:1;stroke-miterlimit:10" d="M0 2.688V-2.69" transform="matrix(0 1 1 0 128.241 71.086)"/><path style="fill:none;stroke-width:.59776;stroke-linecap:round;stroke-linejoin:round;stroke:red;stroke-opacity:1;stroke-miterlimit:10" d="M-2.31 2.75C-1.89 1.1-.948.32.001 0c-.95-.321-1.89-1.098-2.313-2.75" transform="matrix(0 -1 -1 0 128.241 15.588)"/><path style="fill:none;stroke-width:.59776;stroke-linecap:butt;stroke-linejoin:miter;stroke:red;stroke-opacity:1;stroke-miterlimit:10" d="M.002 2.69v-5.378" transform="matrix(0 -1 -1 0 128.241 14.99)"/><g style="fill:red;fill-opacity:1"><use xlink:href="#g" x="137.948" y="56.114"/><use xlink:href="#h" x="137.948" y="50.884"/><use xlink:href="#i" x="137.948" y="45.653"/><use xlink:href="#j" x="137.948" y="40.423"/><use xlink:href="#k" x="137.948" y="35.192"/></g></svg>