<svg xmlns="http://www.w3.org/2000/svg" xmlns:xlink="http://www.w3.org/1999/xlink" width="157.037" height="155.979" viewBox="0 0 117.778 116.984" version="1.2"><defs><symbol overflow="visible" id="b"><path style="stroke:none" d="M17.125 0v-.938h-2.14v-11.796h2.14v-.938c-.75.063-2.703.063-3.563.063-.859 0-2.812 0-3.562-.063v.938h2.156v5.171H5.75v-5.171h2.156v-.938c-.75.063-2.703.063-3.562.063-.86 0-2.813 0-3.563-.063v.938h2.14V-.938H.782V0c.75-.063 2.703-.063 3.563-.063.86 0 2.812 0 3.562.063v-.938H5.75V-6.64h6.406v5.704H10V0c.75-.063 2.703-.063 3.563-.063.859 0 2.812 0 3.562.063Zm0 0"/></symbol><symbol overflow="visible" id="c"><path style="stroke:none" d="M5.703 0v-.938H4.47v-8.03L1-8.814v.938c1.172 0 1.313 0 1.313.781v6.157H.937V0L3.36-.063Zm-.969-12.094a1.54 1.54 0 0 0-1.546-1.547 1.54 1.54 0 0 0-1.547 1.547c0 .86.687 1.563 1.546 1.563.86 0 1.547-.703 1.547-1.563Zm0 0"/></symbol><clipPath id="a"><path d="M0 0h82v116.977H0Zm0 0"/></clipPath></defs><path style="fill:none;stroke-width:1.19553;stroke-linecap:butt;stroke-linejoin:miter;stroke:red;stroke-opacity:1;stroke-miterlimit:10" d="M-.001-.001v56.695h56.695V0Zm0 0" transform="matrix(1 0 0 -1 30.431 86.831)"/><path style="fill:none;stroke-width:1.19553;stroke-linecap:butt;stroke-linejoin:miter;stroke:#00f;stroke-opacity:1;stroke-miterlimit:10" d="M14.174 14.173V42.52h56.694V14.173Zm0 0" transform="matrix(2 0 0 -2 -26.263 115.178)"/><g clip-path="url(#a)"><path style="fill:none;stroke-width:.79701;stroke-linecap:butt;stroke-linejoin:miter;stroke:#000;stroke-opacity:1;stroke-miterlimit:10" d="M42.52 28.347c0 15.656-6.346 28.347-14.174 28.347-7.828 0-14.172-12.691-14.172-28.347 0-15.657 6.344-28.348 14.172-28.348S42.52 12.69 42.52 28.347Zm0 0" transform="matrix(2 0 0 -2 -26.263 115.178)"/></g><g style="fill:#000;fill-opacity:1"><use xlink:href="#b" x="18.285" y="65.318"/><use xlink:href="#c" x="36.218" y="65.318"/></g></svg>