<svg xmlns="http://www.w3.org/2000/svg" xmlns:xlink="http://www.w3.org/1999/xlink" width="258.435" height="138.027" viewBox="0 0 193.826 103.52" version="1.2"><defs><symbol overflow="visible" id="a"><path style="stroke:none" d="M5.563-1.813c.14 0 .312 0 .312-.171 0-.188-.172-.188-.313-.188H1c-.125 0-.297 0-.297.188 0 .171.172.171.297.171Zm0 0"/></symbol><symbol overflow="visible" id="b"><path style="stroke:none" d="M2.5-5.078c0-.219-.016-.219-.234-.219-.329.313-.75.5-1.5.5v.266c.218 0 .64 0 1.109-.203v4.078c0 .297-.031.39-.781.39H.812V0c.329-.031 1.016-.031 1.375-.031.36 0 1.047 0 1.376.031v-.266H3.28c-.75 0-.781-.093-.781-.39Zm0 0"/></symbol><symbol overflow="visible" id="c"><path style="stroke:none" d="M3.89-2.547c0-.844-.078-1.36-.343-1.875-.344-.703-1-.875-1.438-.875-1 0-1.375.75-1.484.969C.344-3.75.328-2.953.328-2.547c0 .531.016 1.328.406 1.969.36.594.954.75 1.375.75.391 0 1.063-.125 1.47-.906.296-.579.312-1.297.312-1.813ZM2.11-.062c-.266 0-.813-.126-.985-.954-.094-.453-.094-1.203-.094-1.625 0-.546 0-1.109.094-1.546.172-.813.781-.891.984-.891.266 0 .829.14.985.86.094.437.094 1.046.094 1.577 0 .47 0 1.188-.094 1.641-.172.828-.719.938-.985.938Zm0 0"/></symbol><symbol overflow="visible" id="e"><path style="stroke:none" d="M1.11-4.484c.109.03.421.125.765.125 1 0 1.594-.704 1.594-.829 0-.093-.047-.109-.094-.109-.016 0-.031 0-.094.031a2.982 2.982 0 0 1-1.11.22c-.468 0-.858-.11-1.108-.22-.079-.03-.094-.03-.11-.03-.094 0-.094.077-.094.234v2.328c0 .14 0 .234.125.234.063 0 .079-.031.125-.094.094-.11.391-.515 1.079-.515.437 0 .656.359.734.515.125.281.14.656.14.953 0 .297 0 .735-.218 1.079-.156.25-.485.484-.906.484A1.271 1.271 0 0 1 .734-.922c.016.016.079.016.079.016.218 0 .406-.14.406-.39a.388.388 0 0 0-.39-.407c-.157 0-.407.078-.407.422 0 .718.625 1.453 1.531 1.453 1 0 1.844-.781 1.844-1.766 0-.922-.672-1.75-1.61-1.75-.39 0-.765.125-1.078.406Zm0 0"/></symbol><symbol overflow="visible" id="f"><path style="stroke:none" d="M4.031-4.86c.078-.077.078-.093.078-.265H2.08a8.79 8.79 0 0 1-.642-.031c-.421-.032-.421-.11-.453-.235h-.25L.47-3.703h.25c.015-.125.11-.672.219-.735.078-.046.687-.046.796-.046h1.688l-.813 1.109C1.703-2.172 1.5-.906 1.5-.281c0 .078 0 .453.375.453s.375-.36.375-.453v-.39c0-1.141.203-2.079.594-2.61Zm0 0"/></symbol><symbol overflow="visible" id="g"><path style="stroke:none" d="M2.25-1.625c.125-.125.453-.39.594-.5.484-.453.953-.89.953-1.61 0-.953-.797-1.562-1.781-1.562-.97 0-1.594.719-1.594 1.438 0 .39.312.437.422.437.172 0 .422-.11.422-.422 0-.406-.407-.406-.5-.406.234-.594.765-.781 1.156-.781.734 0 1.125.625 1.125 1.297 0 .828-.578 1.437-1.531 2.39l-1 1.047C.422-.219.422-.203.422 0h3.14l.235-1.422h-.25c-.016.156-.078.547-.172.703-.047.063-.656.063-.781.063H1.172Zm0 0"/></symbol><symbol overflow="visible" id="d"><path style="stroke:none" d="M1.625-.438a.463.463 0 0 0-.453-.453.447.447 0 0 0-.438.438.44.44 0 0 0 .438.453.45.45 0 0 0 .453-.438Zm0 0"/></symbol><symbol overflow="visible" id="h"><path style="stroke:none" d="M5.531-1.984c0-1.188-.812-2.047-2.172-2.047-.718 0-1.218.297-1.39.422v-.422L.375-3.97v.438c.172 0 .313 0 .438.031.171.031.171.125.171.313v4.484H.375v.437L1.5 1.72l1.14.015v-.437h-.609v-1.64c.531.39 1.016.39 1.188.39 1.406 0 2.312-.844 2.312-2.031ZM4.344-2c0 1.25-.64 1.688-1.235 1.688-.453 0-.843-.25-1.078-.625v-2.157a1.548 1.548 0 0 1 1.188-.562c.625 0 1.125.562 1.125 1.656Zm0 0"/></symbol><symbol overflow="visible" id="i"><path style="stroke:none" d="M5-1.953c0-1.172-.828-2.11-2.344-2.11-1.578 0-2.36.985-2.36 2.11 0 1.11.813 2 2.345 2C4.25.047 5-.891 5-1.953Zm-1.188-.094c0 .766 0 1.719-1.156 1.719-1.172 0-1.172-.953-1.172-1.719 0-.765 0-1.656 1.157-1.656 1.171 0 1.171.89 1.171 1.656Zm0 0"/></symbol><symbol overflow="visible" id="j"><path style="stroke:none" d="M2.688 0v-.438h-.61v-5.78l-1.61.062v.437c.532 0 .61 0 .61.36v4.921h-.61V0l1.095-.031Zm0 0"/></symbol><symbol overflow="visible" id="k"><path style="stroke:none" d="M5.344-3.547v-.437c-.25.03-.469.03-.719.03-.281 0-.547-.015-.813-.03v.437s.391 0 .391.11c0 0 0 .015-.047.109L3.094-1.141 1.922-3.547h.469v-.437l-1.11.03c-.328 0-.5 0-1.031-.03v.437h.563L2.53 0c-.312.734-.64 1.438-1.344 1.438-.046 0-.109 0-.171-.032.156-.078.265-.234.265-.468 0-.344-.25-.532-.531-.532-.297 0-.547.188-.547.531 0 .485.453.86.984.86.704 0 1.25-.516 1.532-1.11l1.969-4.03c.062-.141.093-.204.656-.204Zm0 0"/></symbol><symbol overflow="visible" id="l"><path style="stroke:none" d="M5.156-3.547c0-.234-.172-.547-.593-.547-.438 0-.813.219-.985.344-.375-.219-.781-.281-1.219-.281-1.375 0-1.843.734-1.843 1.328 0 .484.312.812.468.937a1.249 1.249 0 0 0-.296.782c0 .39.187.703.375.875C.39.078.296.453.296.656c0 .531.625 1.14 2.344 1.14C4.219 1.797 5 1.313 5 .626c0-.313-.11-.86-.734-1.156C3.75-.766 3.28-.766 2.39-.766h-.454c-.28 0-.406 0-.562-.109a.563.563 0 0 1-.203-.453c0-.172.062-.281.062-.281.329.171.735.234 1.125.234 1.375 0 1.844-.734 1.844-1.328 0-.36-.172-.656-.36-.844.235-.125.423-.14.532-.172 0 .047-.031.094-.031.188a.407.407 0 1 0 .813-.016Zm-1.984.844c0 .39 0 .969-.813.969-.812 0-.812-.579-.812-.97 0-.405 0-.968.812-.968.813 0 .813.563.813.969ZM4.203.657c0 .296-.328.78-1.547.78C1.47 1.438 1.094 1 1.094.641c0-.516.578-.516.703-.516H2.89c.28 0 1.312 0 1.312.531Zm0 0"/></symbol><symbol overflow="visible" id="m"><path style="stroke:none" d="M5.656 0v-.438h-.61v-2.296c0-1.063-.655-1.297-1.437-1.297-1.093 0-1.53.797-1.593.937H2v-.937L.453-3.97v.438c.531 0 .61 0 .61.36v2.733h-.61V0l1.125-.031L2.718 0v-.438H2.11V-2.28c0-1 .829-1.39 1.36-1.39.344 0 .515.187.515.858v2.376h-.609V0l1.14-.031Zm0 0"/></symbol><symbol overflow="visible" id="n"><path style="stroke:none" d="M4.406-1.047c0-.14-.125-.14-.234-.14-.172 0-.172.015-.25.171-.172.438-.578.688-1.11.688-1.265 0-1.265-1.297-1.265-1.703 0-.531 0-1.64 1.172-1.64.078 0 .562 0 .562.046l-.031.047a.602.602 0 0 0-.125.375c0 .36.281.578.594.578a.569.569 0 0 0 .578-.594c0-.844-1.25-.844-1.61-.844C.97-4.063.345-2.968.345-1.983c0 1.125.812 2.03 2.297 2.03.343 0 .78-.046 1.156-.28.515-.313.61-.782.61-.813Zm0 0"/></symbol><symbol overflow="visible" id="o"><path style="stroke:none" d="M2.625 0v-.438h-.547V-4.03L.5-3.97v.438c.516 0 .578 0 .578.36v2.733h-.61V0c.595-.016.72-.031 1.095-.031.437 0 .546.015 1.062.031Zm-.453-5.422a.713.713 0 0 0-.703-.719.71.71 0 0 0-.703.704.7.7 0 0 0 .703.703.697.697 0 0 0 .703-.688Zm0 0"/></symbol><symbol overflow="visible" id="p"><path style="stroke:none" d="M4.078-3.281c0-.453-.469-.75-1-.75-.625 0-1 .453-1.203.968h-.016v-.968L.375-3.97v.438c.531 0 .61 0 .61.36v2.733h-.61V0l1.14-.031c.22 0 .75 0 1.22.031v-.438h-.766v-1.515c0-.656.25-1.703 1.11-1.719a.571.571 0 0 0-.142.39c0 .391.313.579.563.579.297 0 .578-.203.578-.578Zm0 0"/></symbol><symbol overflow="visible" id="q"><path style="stroke:none" d="M4.563-1.047c0-.172-.172-.172-.235-.172-.156 0-.172.047-.234.172-.203.469-.75.719-1.313.719-1.281 0-1.297-1.156-1.297-1.594h2.782c.187 0 .296 0 .296-.25 0-.203-.015-1-.593-1.484-.406-.328-.953-.406-1.39-.406-1.532 0-2.282.968-2.282 2.046 0 1.172.89 2.063 2.406 2.063 1.485 0 1.86-.938 1.86-1.094ZM3.688-2.25H1.483c.016-.406.063-1.453 1.094-1.453 1.047 0 1.094 1.094 1.11 1.453Zm0 0"/></symbol></defs><path style="fill:none;stroke-width:.3985;stroke-linecap:round;stroke-linejoin:miter;stroke:gray;stroke-opacity:1;stroke-miterlimit:10" d="M.002-6.972v1.992M21.26-6.972v1.992M42.521-6.972v1.992M63.779-6.972v1.992M85.04-6.972v1.992M-6.975 8.989h1.992M-6.975 20.165h1.992M-6.975 31.344h1.992M-6.975 42.52h1.992M-6.975 53.696h1.992M-6.975 64.875h1.992M-6.975 76.051h1.992" transform="matrix(1 0 0 -1 31.596 87.352)"/><path style="fill:none;stroke-width:.3985;stroke-linecap:butt;stroke-linejoin:miter;stroke:gray;stroke-opacity:1;stroke-miterlimit:10" d="M.002-4.98H85.04" transform="matrix(1 0 0 -1 31.596 87.352)"/><path style="fill:none;stroke-width:.3985;stroke-linecap:square;stroke-linejoin:miter;stroke:#bfbfbf;stroke-opacity:1;stroke-miterlimit:10" d="M.002 0H85.04M.002 85.04H85.04" transform="matrix(1 0 0 -1 31.596 87.352)"/><path style="fill:none;stroke-width:.3985;stroke-linecap:butt;stroke-linejoin:miter;stroke:gray;stroke-opacity:1;stroke-miterlimit:10" d="M-4.983 0v85.04" transform="matrix(1 0 0 -1 31.596 87.352)"/><path style="fill:none;stroke-width:.3985;stroke-linecap:square;stroke-linejoin:miter;stroke:#bfbfbf;stroke-opacity:1;stroke-miterlimit:10" d="M.002 0v85.04M85.04 0v85.04" transform="matrix(1 0 0 -1 31.596 87.352)"/><path style="fill:none;stroke-width:.59776;stroke-linecap:butt;stroke-linejoin:miter;stroke:#000;stroke-opacity:1;stroke-miterlimit:10" d="m.002 64.875 85.039-11.18" transform="matrix(1 0 0 -1 31.596 87.352)"/><path style="fill:none;stroke-width:.3985;stroke-linecap:butt;stroke-linejoin:miter;stroke:#000;stroke-opacity:1;stroke-miterlimit:10" d="M.002 66.868v-1.993m1.722-.996-1.722.996m-1.727-.996 1.727.996M85.04 55.688v-1.992m1.727-.996-1.726.996m-1.727-.996 1.727.996" transform="matrix(1 0 0 -1 31.596 87.352)"/><path style="fill:none;stroke-width:.59776;stroke-linecap:butt;stroke-linejoin:miter;stroke:#000;stroke-opacity:1;stroke-miterlimit:10" d="M75.377 51.778c-.633 2.48-2.176 6.398-3.399 8.625-1.222 2.222-3.68 5.59-5.406 7.406-1.727 1.816-4.93 4.398-7.043 5.684-2.117 1.285-5.844 2.906-8.207 3.574-2.36.664-6.36 1.219-8.8 1.219-2.446 0-6.446-.555-8.805-1.22-2.36-.663-6.086-2.288-8.204-3.573-2.117-1.282-5.316-3.868-7.043-5.684-1.73-1.816-4.187-5.18-5.406-7.406-1.223-2.223-2.765-6.145-3.398-8.625-.633-2.48-1.16-6.688-1.16-9.258 0-2.566.523-6.773 1.156-9.254.633-2.48 2.176-6.402 3.398-8.625 1.223-2.226 3.68-5.594 5.406-7.41 1.727-1.817 4.93-4.399 7.043-5.684 2.118-1.285 5.844-2.906 8.208-3.574 2.359-.664 6.359-1.219 8.8-1.219 2.442 0 6.446.555 8.805 1.22 2.36.663 6.086 2.288 8.203 3.57 2.117 1.285 5.316 3.867 7.043 5.683 1.73 1.816 4.188 5.184 5.41 7.41 1.219 2.223 2.766 6.145 3.399 8.625.632 2.48.996 7.969 1.16 9.254.16 1.285.16-1.281 0 .004s-.528 6.773-1.16 9.258Zm0 0" transform="matrix(1 0 0 -1 31.596 87.352)"/><path style="fill:none;stroke-width:.3985;stroke-linecap:butt;stroke-linejoin:miter;stroke:#000;stroke-opacity:1;stroke-miterlimit:10" d="M74.545 42.52h3.984m-1.992 1.992v-3.984M73.384 51.778h3.985m-1.992 1.992v-3.988M69.986 60.403h3.984m-1.992 1.992v-3.984M64.58 67.809h3.984m-1.992 1.992v-3.984M57.537 73.493h3.984m-1.992 1.992V71.5M49.33 77.067h3.988m-1.996 1.992v-3.984M40.529 78.286h3.984m-1.992 1.992v-3.985M31.724 77.067h3.985m-1.992 1.992v-3.984M23.521 73.493h3.985m-1.993 1.992V71.5M16.478 67.809h3.985m-1.993 1.996v-3.988M11.072 60.403h3.984m-1.992 1.992v-3.984M7.674 51.778h3.984M9.666 53.77v-3.984M6.513 42.52h3.985m-1.992 1.992v-3.984M7.67 33.266h3.984m-1.992 1.992v-3.984M11.068 24.641h3.984m-1.992 1.992v-3.988M16.474 17.23h3.985m-1.992 1.993V15.24M23.517 11.547h3.989m-1.997 1.992V9.556M31.72 7.973h3.989m-1.992 1.992V5.981M40.525 6.754h3.984m-1.992 1.993V4.762M49.33 7.973h3.984m-1.992 1.992V5.981M57.533 11.543h3.984m-1.992 1.997V9.55M64.576 17.227h3.988m-1.996 1.992v-3.984M69.982 24.637h3.988m-1.992 1.992v-3.988M73.384 33.262h3.985m-1.992 1.992V31.27M74.545 42.516h3.984m-1.992 1.992v-3.984" transform="matrix(1 0 0 -1 31.596 87.352)"/><path style="fill:none;stroke-width:.59776;stroke-linecap:butt;stroke-linejoin:miter;stroke:#000;stroke-opacity:1;stroke-miterlimit:10" d="M85.04 42.52 55.659 85.04 8.118 68.797V16.243L55.659 0Zm0 0" transform="matrix(1 0 0 -1 31.596 87.352)"/><path style="fill:none;stroke-width:.3985;stroke-linecap:butt;stroke-linejoin:miter;stroke:#000;stroke-opacity:1;stroke-miterlimit:10" d="m83.63 41.11 2.82 2.82m-2.82 0 2.82-2.82M54.252 83.63l2.816 2.82m-2.816 0 2.816-2.82M6.713 67.391l2.816 2.816m-2.816 0 2.816-2.816M6.713 14.832l2.816 2.817m-2.816 0 2.816-2.817M54.252-1.41l2.816 2.82m-2.816 0 2.816-2.82" transform="matrix(1 0 0 -1 31.596 87.352)"/><use xlink:href="#a" x="26.186" y="102.118" style="fill:#000;fill-opacity:1"/><use xlink:href="#b" x="32.773" y="102.118" style="fill:#000;fill-opacity:1"/><use xlink:href="#a" x="44.153" y="102.118" style="fill:#000;fill-opacity:1"/><use xlink:href="#c" x="50.739" y="102.118" style="fill:#000;fill-opacity:1"/><use xlink:href="#d" x="54.973" y="102.118" style="fill:#000;fill-opacity:1"/><use xlink:href="#e" x="57.326" y="102.118" style="fill:#000;fill-opacity:1"/><use xlink:href="#c" x="71.999" y="102.118" style="fill:#000;fill-opacity:1"/><use xlink:href="#c" x="89.965" y="102.118" style="fill:#000;fill-opacity:1"/><use xlink:href="#d" x="94.2" y="102.118" style="fill:#000;fill-opacity:1"/><use xlink:href="#e" x="96.552" y="102.118" style="fill:#000;fill-opacity:1"/><use xlink:href="#b" x="114.518" y="102.118" style="fill:#000;fill-opacity:1"/><use xlink:href="#a" x=".325" y="80.516" style="fill:#000;fill-opacity:1"/><use xlink:href="#c" x="6.912" y="80.516" style="fill:#000;fill-opacity:1"/><use xlink:href="#d" x="11.146" y="80.516" style="fill:#000;fill-opacity:1"/><g style="fill:#000;fill-opacity:1"><use xlink:href="#f" x="13.498" y="80.516"/><use xlink:href="#e" x="17.733" y="80.516"/></g><use xlink:href="#a" x="4.559" y="69.339" style="fill:#000;fill-opacity:1"/><use xlink:href="#c" x="11.146" y="69.339" style="fill:#000;fill-opacity:1"/><use xlink:href="#d" x="15.38" y="69.339" style="fill:#000;fill-opacity:1"/><use xlink:href="#e" x="17.732" y="69.339" style="fill:#000;fill-opacity:1"/><use xlink:href="#a" x=".325" y="58.162" style="fill:#000;fill-opacity:1"/><use xlink:href="#c" x="6.912" y="58.162" style="fill:#000;fill-opacity:1"/><use xlink:href="#d" x="11.146" y="58.162" style="fill:#000;fill-opacity:1"/><g style="fill:#000;fill-opacity:1"><use xlink:href="#g" x="13.498" y="58.162"/><use xlink:href="#e" x="17.733" y="58.162"/></g><use xlink:href="#c" x="17.732" y="47.401" style="fill:#000;fill-opacity:1"/><use xlink:href="#c" x="6.912" y="36.224" style="fill:#000;fill-opacity:1"/><use xlink:href="#d" x="11.146" y="36.224" style="fill:#000;fill-opacity:1"/><g style="fill:#000;fill-opacity:1"><use xlink:href="#g" x="13.498" y="36.224"/><use xlink:href="#e" x="17.733" y="36.224"/></g><use xlink:href="#c" x="11.146" y="25.047" style="fill:#000;fill-opacity:1"/><use xlink:href="#d" x="15.38" y="25.047" style="fill:#000;fill-opacity:1"/><use xlink:href="#e" x="17.732" y="25.047" style="fill:#000;fill-opacity:1"/><use xlink:href="#c" x="6.912" y="13.87" style="fill:#000;fill-opacity:1"/><use xlink:href="#d" x="11.146" y="13.87" style="fill:#000;fill-opacity:1"/><g style="fill:#000;fill-opacity:1"><use xlink:href="#f" x="13.498" y="13.87"/><use xlink:href="#e" x="17.733" y="13.87"/></g><use xlink:href="#h" x="156.44" y="43.707" style="fill:#000;fill-opacity:1"/><g style="fill:#000;fill-opacity:1"><use xlink:href="#i" x="162.627" y="43.707"/><use xlink:href="#j" x="167.935" y="43.707"/><use xlink:href="#k" x="170.885" y="43.707"/><use xlink:href="#l" x="176.489" y="43.707"/><use xlink:href="#i" x="181.797" y="43.707"/><use xlink:href="#m" x="187.105" y="43.707"/></g><path style="fill:none;stroke-width:.59776;stroke-linecap:butt;stroke-linejoin:miter;stroke:#000;stroke-opacity:1;stroke-miterlimit:10" d="m-.998-.001-2.625 1.098-6.34.453-6.34-.453-2.625-1.098 2.625-1.094 6.34-.453 6.34.453Zm0 0" transform="matrix(1 0 0 -1 151.463 41.495)"/><path style="fill:none;stroke-width:.3985;stroke-linecap:butt;stroke-linejoin:miter;stroke:#000;stroke-opacity:1;stroke-miterlimit:10" d="m-15.854-.068 2.817 2.817m-2.817 0 2.817-2.817M-6.889-2.751l2.817 2.82m-2.817 0 2.817-2.82" transform="matrix(1 0 0 -1 151.463 41.495)"/><g style="fill:#000;fill-opacity:1"><use xlink:href="#n" x="156.44" y="54.666"/><use xlink:href="#o" x="161.156" y="54.666"/><use xlink:href="#p" x="164.106" y="54.666"/><use xlink:href="#n" x="168.482" y="54.666"/><use xlink:href="#j" x="173.198" y="54.666"/><use xlink:href="#q" x="176.148" y="54.666"/></g><path style="fill:none;stroke-width:.59776;stroke-linecap:butt;stroke-linejoin:miter;stroke:#000;stroke-opacity:1;stroke-miterlimit:10" d="M-3.623 1.095c-1.242.214-4.582.453-6.34.453s-5.098-.239-6.34-.453C-17.549.88-18.928.305-18.928 0c0-.305 1.38-.879 2.625-1.094 1.242-.215 4.582-.457 6.34-.457s5.098.242 6.34.457c1.246.215 2.625.79 2.625 1.094 0 .305-1.38.879-2.625 1.094Zm0 0" transform="matrix(1 0 0 -1 151.463 52.454)"/><path style="fill:none;stroke-width:.3985;stroke-linecap:butt;stroke-linejoin:miter;stroke:#000;stroke-opacity:1;stroke-miterlimit:10" d="M-16.44 1.34h3.985m-1.992 1.993V-.651M-7.47-1.339h3.984M-5.48.653v-3.988" transform="matrix(1 0 0 -1 151.463 52.454)"/><g style="fill:#000;fill-opacity:1"><use xlink:href="#j" x="156.44" y="65.625"/><use xlink:href="#o" x="159.39" y="65.625"/><use xlink:href="#m" x="162.34" y="65.625"/><use xlink:href="#q" x="168.231" y="65.625"/></g><path style="fill:none;stroke-width:.59776;stroke-linecap:butt;stroke-linejoin:miter;stroke:#000;stroke-opacity:1;stroke-miterlimit:10" d="m-19.924-.001 4.98 1.328 9.961-2.652L.002-.001" transform="matrix(1 0 0 -1 151.463 63.413)"/><path style="fill:none;stroke-width:.3985;stroke-linecap:butt;stroke-linejoin:miter;stroke:#000;stroke-opacity:1;stroke-miterlimit:10" d="M-14.943 3.32V1.326m1.726-.996-1.726.996M-16.67.331l1.727.996M-4.983.667v-1.992m1.727-.996-1.727.996m-1.722-.996 1.722.996" transform="matrix(1 0 0 -1 151.463 63.413)"/></svg>