<svg xmlns="http://www.w3.org/2000/svg" xmlns:xlink="http://www.w3.org/1999/xlink" width="602.939" height="413.093" viewBox="0 0 452.204 309.82" version="1.2"><defs><symbol overflow="visible" id="a"><path style="stroke:none" d="m7.547-4.328-.203-2.406H.625L.422-4.328H.89c.093-1.125.187-1.938 1.625-1.938h.765v5.797H1.75V0c.547-.031 1.656-.031 2.234-.031.594 0 1.704 0 2.235.031v-.469H4.687v-5.797h.766c1.422 0 1.531.797 1.625 1.938Zm0 0"/></symbol><symbol overflow="visible" id="b"><path style="stroke:none" d="M2.844 0v-.469h-.61v-4.015L.5-4.406v.468c.594 0 .656 0 .656.391v3.078H.47V0l1.219-.031Zm-.469-6.047a.774.774 0 0 0-.781-.781.784.784 0 0 0-.782.781c0 .422.36.766.782.766a.77.77 0 0 0 .781-.766Zm0 0"/></symbol><symbol overflow="visible" id="c"><path style="stroke:none" d="M5.86 0v-.469h-.173c-.437 0-.468-.047-.593-.203L3.406-2.766 4.703-3.78c.14-.11.234-.172.906-.172v-.469c-.28.031-.53.031-.78.031l-1.157-.03v.468c.234 0 .265.031.344.11L2.14-2.36v-4.563l-1.766.078v.469c.61 0 .688 0 .688.39v5.516H.375V0l1.188-.031L2.766 0v-.469h-.688v-1.265c.297-.235.375-.297.578-.422l1 1.25c.094.125.25.312.25.344 0 .093-.172.093-.312.093V0a52.51 52.51 0 0 1 1.219-.031c.359 0 .703.015 1.046.031Zm0 0"/></symbol><symbol overflow="visible" id="d"><path style="stroke:none" d="M6.438-2.828h-.47c-.093 1.11-.234 2.312-2.265 2.312H2.297L6.28-6.344c.078-.125.078-.14.078-.25 0-.25-.109-.25-.312-.25H.922L.797-4.437h.469c.078-1.329.75-1.938 2.14-1.938h1.297L.72-.515C.64-.407.64-.376.64-.266.64 0 .734 0 .953 0H6.25Zm0 0"/></symbol><symbol overflow="visible" id="e"><path style="stroke:none" d="M2.922 0v-.469h-.688v-6.453L.47-6.844v.469c.625 0 .687 0 .687.39v5.516H.47V0l1.219-.031Zm0 0"/></symbol><symbol overflow="visible" id="f"><path style="stroke:none" d="M5.516-.234c0-.235-.125-.235-.266-.235-.61-.015-.61-.14-.61-.375v-2.14c0-.891-.702-1.532-2.187-1.532-.562 0-1.781.047-1.781.922 0 .438.344.625.61.625.312 0 .624-.219.624-.625 0-.297-.187-.469-.218-.5a5.28 5.28 0 0 1 .718-.062c.75 0 1.11.422 1.11 1.172v.343c-.72.032-3.25.125-3.25 1.563C.266-.125 1.5.062 2.187.062c.797 0 1.266-.406 1.485-.828 0 .313 0 .766 1.047.766h.468c.204 0 .329 0 .329-.234Zm-2-1.157c0 .97-.922 1.094-1.172 1.094-.516 0-.906-.344-.906-.797 0-1.062 1.578-1.203 2.078-1.234Zm0 0"/></symbol><symbol overflow="visible" id="g"><path style="stroke:none" d="M5.781-3.953v-.469A12.55 12.55 0 0 1 5-4.39l-.906-.03v.468s.468 0 .468.11L4.5-3.72 3.36-1.266 2.093-3.953h.531v-.469l-1.234.031-1.125-.03v.468H.89L2.766 0 2.53.484C2.312.954 2 1.641 1.281 1.641c-.14 0-.156-.016-.234-.047.094-.032.312-.172.312-.532C1.36.734 1.125.5.781.5a.553.553 0 0 0-.562.578c0 .5.469.922 1.062.922.766 0 1.344-.625 1.625-1.188l2.14-4.562c.063-.14.095-.203.735-.203Zm0 0"/></symbol><symbol overflow="visible" id="h"><path style="stroke:none" d="M4.922-1.172c0-.172-.188-.172-.234-.172-.172 0-.188.047-.25.203-.204.485-.782.797-1.422.797-1.407 0-1.422-1.328-1.422-1.828h3.015c.22 0 .313 0 .313-.265 0-.313-.063-1.047-.563-1.547-.359-.36-.89-.532-1.578-.532C1.187-4.516.312-3.484.312-2.25c0 1.344 1 2.313 2.61 2.313 1.578 0 2-1.063 2-1.235ZM3.984-2.5h-2.39c.015-.39.031-.813.234-1.14.266-.391.672-.516.953-.516 1.172 0 1.188 1.312 1.203 1.656Zm0 0"/></symbol><symbol overflow="visible" id="i"><path style="stroke:none" d="M4.406-3.672c0-.531-.531-.812-1.062-.812-.688 0-1.094.5-1.313 1.125v-1.125l-1.656.078v.468c.61 0 .688 0 .688.391v3.078H.375V0l1.25-.031C2-.031 2.641-.031 3 0v-.469h-.86v-1.75c0-.687.235-1.906 1.235-1.906 0 0-.188.172-.188.453 0 .406.329.61.61.61.297 0 .61-.204.61-.61Zm0 0"/></symbol><symbol overflow="visible" id="j"><path style="stroke:none" d="M3.813 2.344c0-.047-.032-.094-.032-.094-.297-.281-.937-.89-1.36-2.156-.265-.797-.374-1.703-.374-2.594 0-1.953.5-3.516 1.61-4.625.14-.156.155-.156.155-.219 0-.11-.109-.14-.187-.14-.172 0-.578.375-.766.546C1.313-5.39 1.08-3.563 1.08-2.5c0 1.25.327 2.344.796 3.172.656 1.14 1.563 1.812 1.75 1.812.078 0 .188-.03.188-.14Zm0 0"/></symbol><symbol overflow="visible" id="k"><path style="stroke:none" d="M7.203-2.734h-.469C6.516-1.36 6.234-.47 4.391-.47H2.875V-3.28h.547c.969 0 1.062.437 1.062 1.172h.47v-2.813h-.47c0 .75-.093 1.172-1.062 1.172h-.547v-2.563h1.516c1.609 0 1.875.735 2.03 1.938h.47l-.313-2.406H.391v.468h1.078v5.844H.39V0H6.75Zm0 0"/></symbol><symbol overflow="visible" id="l"><path style="stroke:none" d="M8.328 0v-.469h-.984L4.828-3.953 6.5-6.156c.11-.14.125-.157.469-.188.234-.031.297-.031.578-.031h.281v-.469c-.406.032-.906.032-1.328.032-.39 0-1.156 0-1.516-.032v.469c.172 0 .563 0 .922.11-.015.03-.062.077-.078.109L4.5-4.406 3.078-6.375h.828v-.469c-.406.032-1.36.032-1.797.032-.406 0-1.265 0-1.625-.032v.469h.985l2.203 3.063-2 2.64c-.094.125-.11.14-.438.172-.203.016-.406.031-.609.031H.344V0c.406-.031.906-.031 1.328-.031.39 0 1.156 0 1.516.031v-.469c-.172 0-.563 0-.922-.11.015-.015.062-.077.093-.109L4-2.874 5.734-.469h-.828V0c.407-.031 1.36-.031 1.797-.031.406 0 1.266 0 1.625.031Zm0 0"/></symbol><symbol overflow="visible" id="m"><path style="stroke:none" d="M3.375-2.5c0-1.234-.328-2.328-.797-3.156C1.906-6.813 1-7.484.813-7.484c-.079 0-.172.03-.172.14 0 .063 0 .078.171.235C2.063-5.83 2.407-4.063 2.407-2.5c0 1.969-.515 3.531-1.61 4.64-.155.141-.155.157-.155.204 0 .11.093.14.171.14.172 0 .594-.375.766-.546C3.141.405 3.375-1.438 3.375-2.5Zm0 0"/></symbol><symbol overflow="visible" id="n"><path style="stroke:none" d="M5.984-2.219c0-1.328-.906-2.265-2.343-2.265-.75 0-1.282.312-1.5.484v-.484l-1.766.078v.468c.61 0 .688 0 .688.376v5.03H.375v.47l1.25-.032 1.25.032v-.47h-.688V-.39A2.01 2.01 0 0 0 3.47.063c1.5 0 2.515-.907 2.515-2.282Zm-1.28 0C4.703-.813 4-.297 3.358-.297c-.14 0-.609 0-1.062-.547-.11-.125-.11-.14-.11-.328v-2.11c0-.187.016-.202.157-.343.39-.406.922-.469 1.14-.469.657 0 1.22.61 1.22 1.875Zm0 0"/></symbol><symbol overflow="visible" id="o"><path style="stroke:none" d="M5.563-3.953c0-.235-.172-.578-.625-.578-.157 0-.625.031-1.063.375-.172-.125-.594-.328-1.328-.328-1.438 0-1.985.78-1.985 1.468 0 .407.188.829.516 1.047-.281.36-.344.688-.344.89 0 .157.047.641.438.954-.125.031-.86.25-.86.875C.313 1.25.875 2 2.86 2 4.625 2 5.406 1.422 5.406.719c0-.297-.078-.922-.75-1.266-.562-.281-1.156-.281-2.11-.281-.265 0-.718 0-.765-.016a.625.625 0 0 1-.562-.625c0-.093.047-.25.11-.328.452.234.968.266 1.218.266 1.437 0 1.984-.782 1.984-1.485 0-.468-.25-.796-.406-.953.297-.156.516-.172.625-.187a.433.433 0 0 0-.047.203c0 .25.172.422.438.422a.41.41 0 0 0 .421-.422Zm-2.141.937c0 .454 0 1.125-.875 1.125s-.875-.671-.875-1.125c0-.437 0-1.109.875-1.109s.875.672.875 1.11ZM4.547.75c0 .36-.39.89-1.688.89-1.187 0-1.687-.452-1.687-.906 0-.609.625-.609.766-.609h1.171c.313 0 1.438 0 1.438.625Zm0 0"/></symbol><symbol overflow="visible" id="p"><path style="stroke:none" d="M4.36-6.11c0-.421-.36-.874-1.141-.874-.969 0-2.047.421-2.047 1.546v1.016h-.75v.469h.75V-.47H.484V0l1.25-.031c.375 0 1.016 0 1.375.031v-.469H2.25v-3.484h1.14v-.469H2.188v-1.016c0-1.093.75-1.187 1-1.187.047 0 .11 0 .172.031a.585.585 0 0 0-.234.485c0 .421.36.609.61.609.296 0 .624-.203.624-.61Zm0 0"/></symbol><symbol overflow="visible" id="q"><path style="stroke:none" d="M8.14-3.36c0-2.187-1.484-3.484-3.468-3.484H.39v.469h1.078v5.906H.39V0h4.296c1.97 0 3.454-1.219 3.454-3.36Zm-1.468-.015c0 1.094-.11 1.625-.438 2.063-.468.687-1.343.843-1.953.843H2.828v-5.906h1.453c.657 0 1.485.188 1.969.89.344.516.422 1.188.422 2.11Zm0 0"/></symbol><symbol overflow="visible" id="r"><path style="stroke:none" d="M4.14-1.39c0-.438-.202-.782-.546-1.063-.39-.281-.719-.344-1.485-.485-.375-.062-1.015-.171-1.015-.64 0-.625.922-.625 1.11-.625.75 0 1.124.297 1.171.844.016.156.031.203.234.203.235 0 .235-.047.235-.281v-.797c0-.188 0-.282-.172-.282-.047 0-.063 0-.453.188-.266-.125-.61-.188-1-.188-.313 0-1.844 0-1.844 1.313 0 .39.203.656.406.828.39.344.781.406 1.547.547.36.062 1.094.187 1.094.781 0 .75-.906.75-1.125.75C1.234-.297.984-1.03.859-1.453c-.046-.14-.109-.14-.234-.14-.25 0-.25.062-.25.28v1.094c0 .188 0 .281.188.281.062 0 .078 0 .296-.156l.25-.172c.47.329.985.329 1.188.329.312 0 1.844 0 1.844-1.454Zm0 0"/></symbol><symbol overflow="visible" id="s"><path style="stroke:none" d="M6.406-2.734h-.468c-.079.687-.25 2.265-2.032 2.265H2.875v-5.906h1.36v-.469c-.454.032-1.532.032-2.016.032-.438 0-1.453 0-1.828-.032v.469h1.078v5.906H.39V0h5.703Zm0 0"/></symbol><symbol overflow="visible" id="t"><path style="stroke:none" d="M6.125 0v-.469c-.61 0-.688 0-.688-.39v-3.625l-1.812.078v.468c.61 0 .688 0 .688.391v1.906c0 .813-.516 1.344-1.235 1.344-.781 0-.812-.25-.812-.797v-3.39l-1.813.078v.468c.61 0 .688 0 .688.391v2.328c0 1.063.796 1.282 1.796 1.282.25 0 .97 0 1.422-.782v.781Zm0 0"/></symbol><symbol overflow="visible" id="aj"><path style="stroke:none" d="M6.125 0v-.469h-.688v-2.578c0-1.047-.53-1.437-1.53-1.437-.954 0-1.485.562-1.75 1.078v-1.078l-1.704.078v.468c.61 0 .688 0 .688.391v3.078H.453V0l1.25-.031L2.953 0v-.469h-.687v-2.078c0-1.094.859-1.578 1.5-1.578.328 0 .546.203.546.969V-.47h-.687V0l1.25-.031Zm0 0"/></symbol><symbol overflow="visible" id="ak"><path style="stroke:none" d="M5.781-3.953v-.469c-.25.016-.531.031-.781.031l-.906-.03v.468c.187 0 .468.031.468.11 0 0 0 .015-.046.109l-1.157 2.5-1.265-2.72h.531v-.468l-1.234.031-1.125-.03v.468H.89l1.75 3.75c.125.25.25.25.375.25.171 0 .28-.031.375-.25L5.047-3.75c.062-.14.094-.203.734-.203Zm0 0"/></symbol><symbol overflow="visible" id="al"><path style="stroke:none" d="M5.406-2.172c0-1.344-.922-2.344-2.547-2.344C1.22-4.516.313-3.5.313-2.172c0 1.235.89 2.235 2.546 2.235 1.672 0 2.547-1.016 2.547-2.235Zm-1.281-.11c0 .86 0 1.938-1.266 1.938-1.265 0-1.265-1.078-1.265-1.937 0-.453 0-.953.172-1.297.187-.375.609-.578 1.093-.578.422 0 .844.156 1.063.5.203.344.203.89.203 1.375Zm0 0"/></symbol><symbol overflow="visible" id="am"><path style="stroke:none" d="M3.813-1.234v-.532h-.47v.516c0 .672-.327.906-.609.906-.578 0-.578-.64-.578-.86v-2.75h1.469v-.468H2.156v-1.906h-.469c0 1-.484 1.984-1.484 2.016v.359h.828v2.734c0 1.063.86 1.282 1.578 1.282.75 0 1.204-.579 1.204-1.297Zm0 0"/></symbol><symbol overflow="visible" id="an"><path style="stroke:none" d="M6.125 0v-.469h-.688v-2.578c0-1.047-.53-1.437-1.53-1.437a1.9 1.9 0 0 0-1.688.953v-3.39l-1.766.077v.469c.61 0 .688 0 .688.39v5.516H.453V0l1.25-.031L2.953 0v-.469h-.687v-2.078c0-1.094.859-1.578 1.5-1.578.328 0 .546.203.546.969V-.47h-.687V0l1.25-.031Zm0 0"/></symbol><symbol overflow="visible" id="ao"><path style="stroke:none" d="M9.328 0v-.469h-.687v-2.578c0-1.031-.516-1.437-1.547-1.437-.907 0-1.422.5-1.688.953-.187-.922-1.11-.953-1.484-.953-.875 0-1.438.453-1.766 1.078v-1.078l-1.703.078v.468c.61 0 .688 0 .688.391v3.078H.453V0l1.25-.031L2.953 0v-.469h-.687v-2.078c0-1.094.875-1.578 1.5-1.578.328 0 .546.203.546.969V-.47h-.687V0l1.266-.031L6.14 0v-.469h-.688v-2.078c0-1.094.86-1.578 1.484-1.578.344 0 .563.203.563.969V-.47h-.688V0l1.25-.031Zm0 0"/></symbol><symbol overflow="visible" id="x"><path style="stroke:none" d="M4.672.39a.664.664 0 0 0-.078-.265L1.375-6.594c-.047-.11-.156-.297-.406-.297a.417.417 0 0 0-.422.407c0 .093.047.203.078.28L3.844.5c.047.125.156.313.406.313A.42.42 0 0 0 4.672.39Zm0 0"/></symbol><symbol overflow="visible" id="y"><path style="stroke:none" d="M5.094-3.844c0-.25-.203-.61-.782-.61-.109 0-.578.016-1.046.329-.172-.11-.5-.266-.938-.266-.953 0-1.687.75-1.687 1.625 0 .407.156.72.312.922-.11.157-.187.375-.187.657 0 .312.109.546.187.671C.266-.046.266.61.266.72c0 .86 1.046 1.5 2.343 1.5s2.344-.64 2.344-1.5c0-.375-.187-.89-.703-1.172-.14-.078-.547-.297-1.453-.297h-.688c-.171 0-.39.047-.53-.125-.095-.11-.11-.297-.11-.297 0-.031.015-.094.031-.156.14.078.469.203.828.203.938 0 1.688-.734 1.688-1.64 0-.282-.079-.547-.235-.813.156-.078.297-.094.406-.125a.476.476 0 0 0 .438.328c.203 0 .469-.14.469-.469ZM3.187-2.766c0 .5-.39.907-.859.907-.484 0-.86-.422-.86-.907 0-.5.391-.89.86-.89s.86.422.86.89ZM4.234.72c0 .406-.703.765-1.625.765-.921 0-1.625-.359-1.625-.765 0-.156.079-.438.375-.625.22-.14.313-.14 1-.14.813 0 1.875 0 1.875.765Zm0 0"/></symbol><symbol overflow="visible" id="z"><path style="stroke:none" d="M4.875-3.719c0-.219-.125-.672-1-.672-.469 0-1.047.141-1.578.657v-.141c0-.36-.063-.469-.469-.469H.766c-.172 0-.47.016-.47.36 0 .375.282.39.47.39h.703V-.75H.766c-.172 0-.47.016-.47.375 0 .36.282.375.47.375h2.53c.188 0 .485-.016.485-.375 0-.36-.297-.375-.484-.375h-1v-1.14c0-.844.531-1.735 1.594-1.766 0 .25.234.422.5.422.25 0 .484-.172.484-.485Zm0 0"/></symbol><symbol overflow="visible" id="A"><path style="stroke:none" d="M5.188-.375c0-.36-.282-.375-.47-.375-.28 0-.421-.031-.5-.063v-2.03c0-.72-.546-1.579-2-1.579-.437 0-1.484.031-1.484.781 0 .344.25.516.516.516.172 0 .5-.094.5-.531 0 0 .328-.016.484-.016.657 0 1.125.25 1.157.828-1.72.047-2.907.578-2.907 1.516 0 .703.625 1.39 1.672 1.39.36 0 .938-.078 1.406-.359.25.281.688.297 1.063.297.328 0 .563-.016.563-.375Zm-1.813-1c0 .188 0 .375-.328.531-.328.156-.75.156-.828.156-.547 0-.922-.296-.922-.64 0-.438.781-.734 2.078-.781Zm0 0"/></symbol><symbol overflow="visible" id="B"><path style="stroke:none" d="M4.89-2.172c0-1.25-.906-2.219-1.984-2.219-.422 0-.828.141-1.156.391-.016-.234-.11-.344-.469-.344H.578c-.187 0-.484.016-.484.375 0 .36.312.375.469.375h.359v5H.578c-.187 0-.484.016-.484.375 0 .36.312.375.469.375h1.546c.172 0 .47-.015.47-.375s-.282-.375-.47-.375H1.75v-1.75c.39.328.766.406 1.047.406C3.89.063 4.89-.89 4.89-2.171Zm-.827 0c0 .875-.641 1.485-1.282 1.485-.703 0-1.015-.813-1.015-1.25v-.704c0-.546.53-1.015 1.093-1.015.672 0 1.204.687 1.204 1.484Zm0 0"/></symbol><symbol overflow="visible" id="C"><path style="stroke:none" d="M5.11-.375c0-.36-.282-.375-.47-.375h-.343v-2.172c0-1.031-.531-1.469-1.344-1.469a1.99 1.99 0 0 0-1.203.407V-5.61c0-.36-.063-.485-.469-.485H.578c-.187 0-.469.016-.469.375 0 .36.297.375.454.375h.359V-.75H.578C.391-.75.11-.734.11-.375c0 .36.297.375.454.375h1.546c.172 0 .47-.016.47-.375 0-.36-.282-.375-.47-.375H1.75v-1.64c0-.907.688-1.266 1.14-1.266.47 0 .579.25.579.781V-.75h-.297c-.188 0-.485.016-.485.375 0 .36.313.375.485.375h1.484c.157 0 .453-.016.453-.375Zm0 0"/></symbol><symbol overflow="visible" id="D"><path style="stroke:none" d="M4.86.438c0-.376-.282-.376-.47-.376H2.985v-6.218h1.407c.187 0 .468 0 .468-.36 0-.375-.28-.375-.468-.375H2.625c-.375 0-.453.11-.453.47v6.75c0 .358.078.483.453.483h1.766c.187 0 .468-.015.468-.375Zm0 0"/></symbol><symbol overflow="visible" id="E"><path style="stroke:none" d="M3.297-.672a.67.67 0 0 0-.672-.687.67.67 0 0 0-.688.671c0 .391.329.688.672.688a.68.68 0 0 0 .688-.672Zm0 0"/></symbol><symbol overflow="visible" id="F"><path style="stroke:none" d="M4.688-.375c0-.36-.282-.375-.47-.375H3.032v-4.86c0-.359-.078-.484-.469-.484h-1.53c-.188 0-.485.016-.485.375 0 .36.297.375.469.375h1.187V-.75H1.031c-.187 0-.484.016-.484.375 0 .36.297.375.469.375h3.203c.172 0 .468-.016.468-.375Zm0 0"/></symbol><symbol overflow="visible" id="G"><path style="stroke:none" d="M5-3.969c0-.375-.281-.375-.469-.375H3.406c-.187 0-.469.016-.469.36 0 .375.266.39.47.39h.155L2.704-1 1.72-3.594h.125c.187 0 .468-.015.468-.375 0-.375-.28-.375-.468-.375H.704c-.188 0-.47 0-.47.375 0 .36.297.375.47.375h.25L2.358-.078C2.313.032 2.11.734 2 .953c-.203.375-.516.61-.703.61.016-.047.11-.079.11-.235 0-.281-.204-.484-.5-.484-.313 0-.5.203-.5.484 0 .453.359.89.874.89 1 0 1.485-1.327 1.532-1.437l1.484-4.375h.234c.188 0 .469-.015.469-.375Zm0 0"/></symbol><symbol overflow="visible" id="H"><path style="stroke:none" d="M4.688-2.172c0-1.265-.954-2.25-2.079-2.25-1.125 0-2.078.984-2.078 2.25C.531-.89 1.5.063 2.61.063c1.11 0 2.079-.97 2.079-2.235Zm-.829-.078c0 .86-.562 1.563-1.25 1.563-.671 0-1.25-.704-1.25-1.563 0-.828.61-1.422 1.25-1.422.657 0 1.25.594 1.25 1.422Zm0 0"/></symbol><symbol overflow="visible" id="I"><path style="stroke:none" d="M5.11-.375c0-.36-.298-.375-.454-.375h-.36v-3.125c0-.36-.077-.469-.468-.469h-.703c-.188 0-.484.016-.484.375 0 .36.296.375.468.375h.36v1.985c0 .812-.735.921-1.031.921-.672 0-.688-.28-.688-.562v-2.625c0-.36-.063-.469-.469-.469H.578c-.187 0-.469.016-.469.375 0 .36.297.375.454.375h.359v2.406c0 .985.719 1.25 1.469 1.25.375 0 .75-.093 1.093-.312.063.234.266.25.454.25h.703c.187 0 .468-.016.468-.375Zm0 0"/></symbol><symbol overflow="visible" id="J"><path style="stroke:none" d="M4.5-1.313c0-.203 0-.437-.422-.437-.39 0-.406.234-.406.438 0 .53-.5.625-.719.625-.656 0-.656-.454-.656-.672v-2.235h1.515c.172 0 .47-.015.47-.375 0-.375-.282-.375-.47-.375H2.298v-.718c0-.22-.016-.47-.406-.47-.422 0-.422.235-.422.47v.718H.703c-.187 0-.469.016-.469.375 0 .36.282.375.454.375h.78v2.281c0 1 .688 1.375 1.454 1.375.75 0 1.578-.453 1.578-1.375Zm0 0"/></symbol><symbol overflow="visible" id="K"><path style="stroke:none" d="M3.047.328v-6.75c0-.36-.063-.469-.453-.469H.828c-.187 0-.453 0-.453.36 0 .375.266.375.453.375h1.406V.062H.828c-.187 0-.453 0-.453.36 0 .375.266.39.453.39h1.766c.375 0 .453-.109.453-.484Zm0 0"/></symbol><symbol overflow="visible" id="L"><path style="stroke:none" d="M4.688.422c0-.344-.297-.36-.407-.36-1.234-.03-1.25-.328-1.25-.609v-1.562c0-.25-.031-.625-.5-.938.36-.25.5-.562.5-.797v-1.89c.016-.532 1-.422 1.313-.422.078 0 .343-.063.343-.36 0-.375-.28-.375-.484-.375-.719 0-1.984.157-1.984 1.032l-.016 1.718c0 .297 0 .438-.297.579-.343.14-.812.14-1.031.14a.368.368 0 0 0-.344.375c0 .36.297.375.422.375.235.016 1.235.047 1.25.485v1.624c0 .297.016.766.547 1.079.422.218.969.296 1.453.296.203 0 .484-.015.484-.39Zm0 0"/></symbol><symbol overflow="visible" id="M"><path style="stroke:none" d="M4.39-5.5c0-.625-.843-.656-1.015-.656-.828 0-1.594.484-1.594 1.375v.437H.875c-.188 0-.469.016-.469.375 0 .36.281.375.469.375h.906V-.75H.875c-.188 0-.484.016-.484.375 0 .36.296.375.484.375H3.5c.172 0 .484-.016.484-.375 0-.36-.312-.375-.484-.375h-.906v-2.844h1.11c.171 0 .468-.015.468-.375 0-.375-.281-.375-.469-.375h-1.11v-.375c0-.64.516-.687.813-.687.031.14.156.422.485.422.218 0 .5-.172.5-.516Zm0 0"/></symbol><symbol overflow="visible" id="N"><path style="stroke:none" d="M5.125-.375c0-.36-.297-.375-.469-.375h-.36v-4.86c0-.359-.062-.484-.468-.484h-.703c-.188 0-.484.016-.484.375 0 .36.296.375.468.375h.36v1.297a1.729 1.729 0 0 0-1.063-.344c-1.094 0-2.062.938-2.062 2.235C.344-.922 1.25.063 2.328.063c.485 0 .86-.204 1.14-.454.016.282.079.391.47.391h.703c.187 0 .484-.016.484-.375ZM3.453-1.969c0 .516-.406 1.282-1.094 1.282-.671 0-1.203-.657-1.203-1.47 0-.89.64-1.5 1.282-1.5.578 0 1.015.5 1.015 1Zm0 0"/></symbol><symbol overflow="visible" id="O"><path style="stroke:none" d="M4.89-2.172c0-1.25-.906-2.219-1.984-2.219-.422 0-.828.141-1.156.375v-1.593c0-.36-.063-.485-.469-.485H.578c-.187 0-.484.016-.484.375 0 .36.312.375.469.375h.359v4.86c0 .25.015.484.422.484.312 0 .39-.14.406-.344.375.328.766.406 1.047.406C3.89.063 4.89-.89 4.89-2.171Zm-.827 0c0 .875-.641 1.485-1.282 1.485-.703 0-1.015-.813-1.015-1.25v-.704c0-.546.53-1.015 1.093-1.015.672 0 1.204.687 1.204 1.484Zm0 0"/></symbol><symbol overflow="visible" id="P"><path style="stroke:none" d="M4.656-1.14c0-.329-.343-.344-.422-.344-.218 0-.312.03-.39.265-.203.453-.688.532-.938.532-.672 0-1.344-.422-1.515-1.172h2.796c.25 0 .47 0 .47-.438 0-1.14-.657-2.125-1.97-2.125-1.187 0-2.171 1-2.171 2.234C.516-.952 1.53.063 2.828.063c1.36 0 1.828-.937 1.828-1.203Zm-.86-1.454H1.392c.171-.625.687-1.078 1.296-1.078.47 0 1 .219 1.11 1.078Zm0 0"/></symbol><symbol overflow="visible" id="Q"><path style="stroke:none" d="M4.563-.375c0-.36-.297-.375-.47-.375h-.937v-3.125c0-.36-.078-.469-.469-.469H1.313c-.188 0-.485.016-.485.36 0 .375.297.39.485.39h1.015V-.75h-1.11c-.187 0-.468.016-.468.375 0 .36.297.375.469.375h2.875c.172 0 .468-.016.468-.375Zm-1.375-5.11a.56.56 0 0 0-.563-.562.564.564 0 0 0-.578.563c0 .328.25.562.578.562a.55.55 0 0 0 .563-.562Zm0 0"/></symbol><symbol overflow="visible" id="R"><path style="stroke:none" d="M5.11-.375c0-.36-.282-.375-.47-.375h-.343v-2.172c0-1.031-.531-1.469-1.344-1.469-.562 0-.953.22-1.203.407 0-.25-.078-.36-.469-.36H.578c-.187 0-.469.016-.469.375 0 .36.297.375.454.375h.359V-.75H.578C.391-.75.11-.734.11-.375c0 .36.297.375.454.375h1.546c.172 0 .47-.016.47-.375 0-.36-.282-.375-.47-.375H1.75v-1.64c0-.907.688-1.266 1.14-1.266.47 0 .579.25.579.781V-.75h-.297c-.188 0-.485.016-.485.375 0 .36.313.375.485.375h1.484c.157 0 .453-.016.453-.375Zm0 0"/></symbol><symbol overflow="visible" id="S"><path style="stroke:none" d="M4.61-1.297c0-1.062-1.313-1.281-1.641-1.328l-1-.188c-.266-.062-.532-.171-.532-.39 0-.235.313-.469 1.157-.469.719 0 .86.235.89.469.016.187.047.39.407.39.421 0 .421-.234.421-.468v-.672c0-.188-.015-.469-.359-.469-.219 0-.297.078-.344.172-.421-.172-.812-.172-1-.172-1.703 0-1.921.86-1.921 1.219 0 .937 1.046 1.125 1.984 1.265.437.079 1.187.188 1.187.641 0 .344-.343.61-1.171.61-.422 0-.938-.094-1.157-.813-.062-.219-.11-.328-.422-.328-.406 0-.421.234-.421.469v.937c0 .188.015.484.375.484.093 0 .265 0 .39-.328.469.313.953.329 1.234.329 1.594 0 1.922-.875 1.922-1.36Zm0 0"/></symbol><symbol overflow="visible" id="T"><path style="stroke:none" d="M4.672-1.14c0-.329-.344-.344-.422-.344-.188 0-.297.015-.39.265-.047.11-.25.532-.891.532-.781 0-1.438-.641-1.438-1.485 0-.453.25-1.5 1.5-1.5h.5c.016.406.235.547.5.547.282 0 .532-.188.532-.516 0-.75-1.063-.78-1.532-.78-1.719 0-2.328 1.359-2.328 2.25C.703-.97 1.641.061 2.906.061c1.438 0 1.766-1.03 1.766-1.203Zm0 0"/></symbol><symbol overflow="visible" id="U"><path style="stroke:none" d="M4.969-2.406c0-.36-.297-.375-.485-.375H3.328c-.172 0-.469.015-.469.375s.282.375.47.375h.327c-.125.969-.547 1.39-1.031 1.39-.75 0-1.438-1.03-1.438-2.406 0-1.422.72-2.406 1.454-2.406.312 0 .89.219 1.03 1.203.032.219.11.36.423.36.406 0 .406-.25.406-.485v-1.344c0-.187 0-.484-.36-.484-.218 0-.296.094-.437.39a1.708 1.708 0 0 0-1.094-.39C1.406-6.203.36-4.86.36-3.047.36-1.219 1.422.11 2.61.11c.47 0 .844-.203 1.079-.421.015.187.093.312.406.312C4.5 0 4.5-.25 4.5-.484v-1.547c.25 0 .469-.047.469-.375Zm0 0"/></symbol><symbol overflow="visible" id="V"><path style="stroke:none" d="M4.86-3c0-1.61-.876-3.094-2.204-3.094H.641c-.188 0-.47.016-.47.375 0 .36.298.375.47.375h.14V-.75h-.14c-.188 0-.47.016-.47.375 0 .36.298.375.47.375h2.015C3.953 0 4.86-1.39 4.86-3ZM4.03-3c0 1.094-.515 2.25-1.562 2.25h-.86v-4.594h.86C3.53-5.344 4.03-4.094 4.03-3Zm0 0"/></symbol><symbol overflow="visible" id="W"><path style="stroke:none" d="M5.078-3.984c0-.344-.266-.36-.484-.36h-1.11c-.218 0-.5.016-.5.36 0 .375.266.39.5.39h.375L3.438-1.14l-.188-.75c-.188-.687-.25-.78-.625-.78-.11 0-.328 0-.453.265l-.375 1.281-.438-2.469h.391c.219 0 .484-.015.484-.375s-.265-.375-.484-.375H.625c-.203 0-.484.016-.484.36 0 .343.203.39.5.39l.578 3.188c.047.281.093.453.531.453.438 0 .484-.094.64-.75l.25-.906.376 1.437c.14.203.343.219.484.219.422 0 .453-.188.5-.453l.578-3.188c.313 0 .5-.047.5-.39Zm0 0"/></symbol><symbol overflow="visible" id="X"><path style="stroke:none" d="M4.719-1.688a1.82 1.82 0 0 0-.485-1.218c-.406-.39-.671-.469-1.453-.64L2-3.735c-.375-.11-.719-.407-.719-.829 0-.468.438-.89 1.094-.89 1.047 0 1.219.875 1.266 1.156.03.266.171.328.406.328.406 0 .422-.234.422-.469v-1.28c0-.188-.016-.485-.375-.485-.235 0-.313.14-.39.406-.407-.297-.907-.406-1.329-.406C1.25-6.203.5-5.391.5-4.531c0 .687.453 1.36 1.297 1.593l1.125.282c.265.047 1.031.219 1.031 1.015 0 .47-.406 1-1.125 1-.25 0-.672-.03-1.031-.25-.438-.28-.469-.671-.484-.828 0-.187-.016-.406-.407-.406-.406 0-.406.234-.406.469v1.281c0 .203.016.484.375.484.219 0 .297-.125.39-.406.407.266.97.406 1.563.406 1.172 0 1.89-.89 1.89-1.796Zm0 0"/></symbol><symbol overflow="visible" id="Y"><path style="stroke:none" d="M4.39.453c0-.187-.062-.234-.265-.375C2.937-.719 2.5-1.984 2.5-3.047c0-.953.375-2.281 1.64-3.14.188-.125.25-.188.25-.36 0-.11-.046-.344-.374-.344-.282 0-2.329 1.282-2.329 3.844 0 1.172.454 2.063.797 2.563C3.016.25 3.781.796 4.016.796c.328 0 .375-.25.375-.343Zm0 0"/></symbol><symbol overflow="visible" id="Z"><path style="stroke:none" d="M3.547-3.047a4.505 4.505 0 0 0-.797-2.562c-.531-.735-1.297-1.282-1.531-1.282-.313 0-.375.235-.375.344 0 .172.125.266.187.313 1.547 1.03 1.703 2.562 1.703 3.187 0 .938-.359 2.266-1.64 3.14-.172.11-.25.173-.25.36 0 .094.062.344.375.344C1.5.797 3.547-.5 3.547-3.047Zm0 0"/></symbol><symbol overflow="visible" id="aa"><path style="stroke:none" d="M4.688-3.047c0-.406-.391-.422-.532-.422H1.063c-.141 0-.532.016-.532.422 0 .406.39.422.531.422h3.094c.14 0 .532-.016.532-.422Zm0 0"/></symbol><symbol overflow="visible" id="ab"><path style="stroke:none" d="M4.688-3.047c0-.156-.094-.281-.22-.375L1.25-5.437c-.156-.11-.188-.11-.297-.11-.203 0-.422.14-.422.406 0 .22.14.313.266.391l2.687 1.703L.797-1.359c-.125.078-.266.187-.266.406 0 .265.219.406.422.406.11 0 .14 0 .297-.11l3.188-2c.109-.077.25-.171.25-.39Zm0 0"/></symbol><symbol overflow="visible" id="ac"><path style="stroke:none" d="M3.297-3.656a.68.68 0 0 0-.672-.688.683.683 0 0 0-.688.688c0 .39.329.687.672.687a.683.683 0 0 0 .688-.687Zm.047 3.312c0-.687-.328-1.015-.735-1.015a.657.657 0 0 0-.671.671c0 .282.156.641.609.688-.14.406-.438.563-.578.64-.078.032-.235.126-.235.313 0 .188.172.39.391.39.234 0 1.219-.53 1.219-1.687Zm0 0"/></symbol><symbol overflow="visible" id="ad"><path style="stroke:none" d="M5.063-5.719c0-.36-.297-.375-.485-.375h-.984c-.172 0-.469.016-.469.375 0 .313.172.36.516.375L2.609-1.109 1.58-5.344c.343-.015.53-.062.53-.375 0-.36-.312-.375-.468-.375h-1c-.188 0-.485.016-.485.375 0 .328.219.375.578.375L2-.344c.11.406.297.422.61.422.296 0 .515-.015.609-.422l1.265-5c.375 0 .579-.047.579-.375Zm0 0"/></symbol><symbol overflow="visible" id="ae"><path style="stroke:none" d="M4.969-.375c0-.36-.297-.375-.485-.375h-.343L2.953-2.234 4-3.594h.344c.172 0 .484-.015.484-.375s-.297-.375-.484-.375h-1.14c-.157 0-.454.016-.454.36 0 .312.156.375.406.39l-.578.766L2-3.594c.219-.015.39-.078.39-.39 0-.344-.28-.36-.468-.36H.782c-.173 0-.47.016-.47.375 0 .36.313.375.47.375h.359l1.078 1.36L1.079-.75H.733C.547-.75.25-.734.25-.375c0 .36.313.375.484.375H1.86c.188 0 .47-.016.47-.375 0-.297-.173-.36-.438-.375l.687-.984.719.984c-.25.016-.422.078-.422.375 0 .36.297.375.469.375h1.14c.172 0 .485-.016.485-.375Zm0 0"/></symbol><symbol overflow="visible" id="af"><path style="stroke:none" d="M5.031-.484v-.844c0-.234-.015-.484-.422-.484-.406 0-.406.234-.406.484v.578H1.75v-2.031h1.125c0 .406.047.562.422.562.39 0 .406-.25.406-.484v-.906c0-.22-.015-.47-.406-.47-.375 0-.422.157-.422.548H1.75v-1.813h2.234v.438c0 .218 0 .484.407.484.421 0 .421-.25.421-.484v-.703c0-.36-.078-.485-.468-.485H.719c-.188 0-.485.016-.485.375 0 .36.297.375.485.375h.203V-.75H.719c-.188 0-.485.016-.485.375 0 .36.297.375.485.375h3.844c.375 0 .468-.094.468-.484Zm0 0"/></symbol><symbol overflow="visible" id="ag"><path style="stroke:none" d="M4.688-3.047c0-.36-.297-.375-.407-.375-.218 0-1.234-.047-1.25-.5v-1.61c0-.296-.015-.765-.547-1.062C2-6.859 1.375-6.89 1.031-6.89c-.203 0-.5 0-.5.375 0 .313.235.36.406.36 1.25.031 1.266.328 1.266.625v1.547c0 .39.125.703.485.937-.47.328-.485.766-.485.797v1.734c0 .266-.015.563-1.328.579-.078 0-.344.062-.344.359 0 .375.297.39.5.39.875 0 1.985-.39 1.985-1.046l.015-1.704c0-.312 0-.437.297-.578.344-.14.797-.156 1.016-.156a.356.356 0 0 0 .343-.375Zm0 0"/></symbol><symbol overflow="visible" id="ah"><path style="stroke:none" d="M4.969-.375c0-.156-.063-.266-.203-.328-.063-.031-.235-.047-.391-.047L3.203-5.766c-.094-.421-.25-.437-.594-.437-.328 0-.5 0-.593.422L.844-.75c-.14 0-.328.016-.39.031C.327-.64.25-.53.25-.375c0 .36.297.375.5.375h.984c.22 0 .485-.016.485-.375 0-.328-.172-.36-.531-.375l.203-.86h1.453l.187.86C3.187-.734 3-.703 3-.375c0 .36.266.375.484.375h.985c.203 0 .5-.016.5-.375ZM3.156-2.359H2.062l.547-2.579Zm0 0"/></symbol><symbol overflow="visible" id="ai"><path style="stroke:none" d="M5.203-.375c0-.328-.187-.375-.547-.375v-2.266c0-.218-.015-1.375-.953-1.375-.281 0-.656.11-.937.438a.829.829 0 0 0-.75-.438c-.297 0-.563.094-.797.282-.063-.235-.25-.235-.438-.235H.484c-.187 0-.484.016-.484.36 0 .328.188.39.547.39V-.75C.187-.75 0-.703 0-.375 0-.015.313 0 .484 0h.844c.172 0 .453-.016.453-.375 0-.328-.172-.375-.531-.375v-1.656c0-.797.344-1.25.719-1.25.187 0 .281.172.281.719V-.75c-.203.016-.39.063-.39.375 0 .36.28.375.437.375h.734c.172 0 .453-.016.453-.375 0-.328-.171-.375-.53-.375v-1.656c0-.797.343-1.25.718-1.25.203 0 .281.172.281.719V-.75c-.203.016-.39.063-.39.375 0 .36.28.375.437.375h.719c.187 0 .484-.016.484-.375Zm0 0"/></symbol><symbol overflow="visible" id="ap"><path style="stroke:none" d="M5.078-.375c0-.36-.297-.375-.469-.375h-.265l-1.39-1.797 1.124-1.047h.313c.171 0 .468-.015.468-.375s-.296-.375-.468-.375h-1.5c-.188 0-.454 0-.454.375 0 .36.282.375.454.375h.171L1.75-2.375v-3.234c0-.36-.063-.485-.453-.485h-.64c-.173 0-.47.016-.47.375 0 .36.282.375.47.375h.405V-.75H.656c-.172 0-.469.016-.469.375 0 .36.282.375.47.375h1.5c.171 0 .468-.016.468-.375 0-.36-.281-.375-.469-.375H1.75v-.672l.688-.64L3.452-.75c-.297.016-.469.078-.469.375 0 .36.297.375.47.375h1.155c.172 0 .47-.016.47-.375Zm0 0"/></symbol><clipPath id="u"><path d="M53 20h2v289.73h-2Zm0 0"/></clipPath><clipPath id="v"><path d="M172 4h35v305.73h-35Zm0 0"/></clipPath><clipPath id="w"><path d="M331 4h35v305.73h-35Zm0 0"/></clipPath></defs><path style="fill-rule:nonzero;fill:#ccf;fill-opacity:1;stroke-width:.3985;stroke-linecap:butt;stroke-linejoin:miter;stroke:#000;stroke-opacity:1;stroke-miterlimit:10" d="M-46.381 103.425H46.38v19.926H-46.38Zm0 0" transform="matrix(1 0 0 -1 53.811 124.46)"/><g style="fill:#000;fill-opacity:1"><use xlink:href="#a" x="10.751" y="13.57"/><use xlink:href="#b" x="18.721" y="13.57"/><use xlink:href="#c" x="21.899" y="13.57"/><use xlink:href="#d" x="27.947" y="13.57"/></g><g style="fill:#000;fill-opacity:1"><use xlink:href="#e" x="38.766" y="13.57"/><use xlink:href="#f" x="41.944" y="13.57"/></g><use xlink:href="#g" x="47.194" y="13.57" style="fill:#000;fill-opacity:1"/><g style="fill:#000;fill-opacity:1"><use xlink:href="#h" x="52.923" y="13.57"/><use xlink:href="#i" x="58.173" y="13.57"/></g><g style="fill:#000;fill-opacity:1"><use xlink:href="#j" x="66.711" y="13.57"/><use xlink:href="#a" x="71.164" y="13.57"/></g><use xlink:href="#k" x="77.474" y="15.781" style="fill:#000;fill-opacity:1"/><g style="fill:#000;fill-opacity:1"><use xlink:href="#l" x="83.761" y="13.57"/><use xlink:href="#m" x="92.419" y="13.57"/></g><path style="fill-rule:nonzero;fill:#ccf;fill-opacity:1;stroke-width:.3985;stroke-linecap:butt;stroke-linejoin:miter;stroke:#000;stroke-opacity:1;stroke-miterlimit:10" d="M93.99 103.425h84.152v19.926H93.99Zm0 0" transform="matrix(1 0 0 -1 53.811 124.46)"/><g style="fill:#000;fill-opacity:1"><use xlink:href="#n" x="151.119" y="13.57"/><use xlink:href="#o" x="157.485" y="13.57"/><use xlink:href="#p" x="163.214" y="13.57"/></g><g style="fill:#000;fill-opacity:1"><use xlink:href="#e" x="170.526" y="13.57"/><use xlink:href="#f" x="173.704" y="13.57"/></g><use xlink:href="#g" x="178.955" y="13.57" style="fill:#000;fill-opacity:1"/><g style="fill:#000;fill-opacity:1"><use xlink:href="#h" x="184.683" y="13.57"/><use xlink:href="#i" x="189.933" y="13.57"/></g><g style="fill:#000;fill-opacity:1"><use xlink:href="#j" x="198.471" y="13.57"/><use xlink:href="#a" x="202.925" y="13.57"/></g><use xlink:href="#k" x="209.234" y="15.781" style="fill:#000;fill-opacity:1"/><g style="fill:#000;fill-opacity:1"><use xlink:href="#l" x="215.52" y="13.57"/><use xlink:href="#m" x="224.178" y="13.57"/></g><path style="fill-rule:nonzero;fill:#ccf;fill-opacity:1;stroke-width:.3985;stroke-linecap:butt;stroke-linejoin:miter;stroke:#000;stroke-opacity:1;stroke-miterlimit:10" d="M243.072 103.425h103.472v19.926H243.072Zm0 0" transform="matrix(1 0 0 -1 53.811 124.46)"/><g style="fill:#000;fill-opacity:1"><use xlink:href="#q" x="300.202" y="13.57"/><use xlink:href="#b" x="308.989" y="13.57"/><use xlink:href="#r" x="312.167" y="13.57"/><use xlink:href="#n" x="316.69" y="13.57"/><use xlink:href="#e" x="323.056" y="13.57"/><use xlink:href="#f" x="326.234" y="13.57"/></g><use xlink:href="#g" x="331.485" y="13.57" style="fill:#000;fill-opacity:1"/><g style="fill:#000;fill-opacity:1"><use xlink:href="#e" x="341.348" y="13.57"/><use xlink:href="#f" x="344.526" y="13.57"/></g><use xlink:href="#g" x="349.776" y="13.57" style="fill:#000;fill-opacity:1"/><g style="fill:#000;fill-opacity:1"><use xlink:href="#h" x="355.505" y="13.57"/><use xlink:href="#i" x="360.755" y="13.57"/></g><g style="fill:#000;fill-opacity:1"><use xlink:href="#j" x="369.293" y="13.57"/><use xlink:href="#s" x="373.746" y="13.57"/><use xlink:href="#t" x="380.64" y="13.57"/><use xlink:href="#f" x="387.006" y="13.57"/><use xlink:href="#m" x="392.576" y="13.57"/></g><g clip-path="url(#u)"><path style="fill:none;stroke-width:1.19553;stroke-linecap:butt;stroke-linejoin:miter;stroke:#000;stroke-opacity:1;stroke-miterlimit:10" d="M.002 103.226v-287.48" transform="matrix(1 0 0 -1 53.811 124.46)"/></g><g clip-path="url(#v)"><path style="fill:none;stroke-width:1.19553;stroke-linecap:butt;stroke-linejoin:miter;stroke:#000;stroke-opacity:1;stroke-miterlimit:10" d="m136.072 103.226-.008-287.48" transform="matrix(1 0 0 -1 53.811 124.46)"/></g><g clip-path="url(#w)"><path style="fill:none;stroke-width:1.19553;stroke-linecap:butt;stroke-linejoin:miter;stroke:#000;stroke-opacity:1;stroke-miterlimit:10" d="m294.822 103.226-.016-287.48" transform="matrix(1 0 0 -1 53.811 124.46)"/></g><path style="fill-rule:nonzero;fill:#fffccc;fill-opacity:1;stroke-width:.3985;stroke-linecap:butt;stroke-linejoin:miter;stroke:#000;stroke-opacity:1;stroke-miterlimit:10" d="M-53.01 77.163H53.01v15.754H-53.01Zm0 0" transform="matrix(1 0 0 -1 53.811 124.46)"/><g style="fill:#000;fill-opacity:1"><use xlink:href="#x" x="4.123" y="41.757"/><use xlink:href="#y" x="9.353" y="41.757"/><use xlink:href="#z" x="14.584" y="41.757"/><use xlink:href="#A" x="19.814" y="41.757"/><use xlink:href="#B" x="25.045" y="41.757"/><use xlink:href="#C" x="30.275" y="41.757"/><use xlink:href="#D" x="35.505" y="41.757"/><use xlink:href="#E" x="40.736" y="41.757"/><use xlink:href="#E" x="45.966" y="41.757"/><use xlink:href="#E" x="51.196" y="41.757"/></g><g style="fill:#000;fill-opacity:1"><use xlink:href="#F" x="61.657" y="41.757"/><use xlink:href="#A" x="66.888" y="41.757"/><use xlink:href="#G" x="72.118" y="41.757"/><use xlink:href="#H" x="77.348" y="41.757"/><use xlink:href="#I" x="82.579" y="41.757"/><use xlink:href="#J" x="87.809" y="41.757"/><use xlink:href="#K" x="93.04" y="41.757"/><use xlink:href="#L" x="98.27" y="41.757"/></g><path style="fill-rule:nonzero;fill:#fffccc;fill-opacity:1;stroke-width:.3985;stroke-linecap:butt;stroke-linejoin:miter;stroke:#000;stroke-opacity:1;stroke-miterlimit:10" d="M90.9 77.163h90.328v15.754H90.9Zm0 0" transform="matrix(1 0 0 -1 53.811 124.46)"/><g style="fill:#000;fill-opacity:1"><use xlink:href="#x" x="148.032" y="41.757"/><use xlink:href="#B" x="153.262" y="41.757"/><use xlink:href="#y" x="158.493" y="41.757"/><use xlink:href="#M" x="163.723" y="41.757"/><use xlink:href="#y" x="168.954" y="41.757"/><use xlink:href="#N" x="174.184" y="41.757"/><use xlink:href="#O" x="179.414" y="41.757"/><use xlink:href="#P" x="184.645" y="41.757"/><use xlink:href="#y" x="189.875" y="41.757"/><use xlink:href="#Q" x="195.105" y="41.757"/><use xlink:href="#R" x="200.336" y="41.757"/><use xlink:href="#S" x="205.566" y="41.757"/><use xlink:href="#T" x="210.797" y="41.757"/><use xlink:href="#H" x="216.027" y="41.757"/><use xlink:href="#B" x="221.257" y="41.757"/><use xlink:href="#P" x="226.488" y="41.757"/></g><path style="fill-rule:nonzero;fill:#fffccc;fill-opacity:1;stroke-width:.3985;stroke-linecap:butt;stroke-linejoin:miter;stroke:#000;stroke-opacity:1;stroke-miterlimit:10" d="M220.876 77.163H368.74v15.754H220.876Zm0 0" transform="matrix(1 0 0 -1 53.811 124.46)"/><g style="fill:#000;fill-opacity:1"><use xlink:href="#O" x="278.005" y="41.757"/><use xlink:href="#P" x="283.235" y="41.757"/><use xlink:href="#y" x="288.466" y="41.757"/><use xlink:href="#Q" x="293.696" y="41.757"/><use xlink:href="#R" x="298.927" y="41.757"/><use xlink:href="#U" x="304.157" y="41.757"/><use xlink:href="#z" x="309.387" y="41.757"/><use xlink:href="#A" x="314.618" y="41.757"/><use xlink:href="#B" x="319.848" y="41.757"/><use xlink:href="#C" x="325.078" y="41.757"/><use xlink:href="#V" x="330.309" y="41.757"/><use xlink:href="#z" x="335.539" y="41.757"/><use xlink:href="#A" x="340.77" y="41.757"/><use xlink:href="#W" x="346" y="41.757"/><use xlink:href="#Q" x="351.23" y="41.757"/><use xlink:href="#R" x="356.461" y="41.757"/><use xlink:href="#y" x="361.691" y="41.757"/><use xlink:href="#X" x="366.922" y="41.757"/><use xlink:href="#T" x="372.152" y="41.757"/><use xlink:href="#H" x="377.382" y="41.757"/><use xlink:href="#B" x="382.613" y="41.757"/><use xlink:href="#P" x="387.843" y="41.757"/><use xlink:href="#Y" x="393.073" y="41.757"/><use xlink:href="#E" x="398.304" y="41.757"/><use xlink:href="#E" x="403.534" y="41.757"/><use xlink:href="#E" x="408.765" y="41.757"/><use xlink:href="#Z" x="413.995" y="41.757"/></g><path style="fill:none;stroke-width:.3985;stroke-linecap:butt;stroke-linejoin:miter;stroke:#000;stroke-opacity:1;stroke-miterlimit:10" d="M53.212 85.042h33.801" transform="matrix(1 0 0 -1 53.811 124.46)"/><path style="fill-rule:nonzero;fill:#000;fill-opacity:1;stroke-width:.3985;stroke-linecap:butt;stroke-linejoin:round;stroke:#000;stroke-opacity:1;stroke-miterlimit:10" d="M4.213.002.643 1.345 1.818.002.643-1.346Zm0 0" transform="matrix(1 0 0 -1 139.107 39.42)"/><path style="fill:none;stroke-width:.3985;stroke-linecap:butt;stroke-linejoin:miter;stroke:#000;stroke-opacity:1;stroke-miterlimit:10" d="M181.439 85.042h35.559" transform="matrix(1 0 0 -1 53.811 124.46)"/><path style="fill-rule:nonzero;fill:#000;fill-opacity:1;stroke-width:.3985;stroke-linecap:butt;stroke-linejoin:round;stroke:#000;stroke-opacity:1;stroke-miterlimit:10" d="M4.215.002.645 1.345 1.817.002.645-1.346Zm0 0" transform="matrix(1 0 0 -1 269.09 39.42)"/><path style="fill-rule:nonzero;fill:#fffccc;fill-opacity:1;stroke-width:.3985;stroke-linecap:butt;stroke-linejoin:miter;stroke:#000;stroke-opacity:1;stroke-miterlimit:10" d="M-21.627 49.222h43.254v14.945h-43.254Zm0 0" transform="matrix(1 0 0 -1 53.811 124.46)"/><use xlink:href="#A" x="35.505" y="70.138" style="fill:#000;fill-opacity:1"/><g style="fill:#000;fill-opacity:1"><use xlink:href="#aa" x="45.966" y="70.138"/><use xlink:href="#ab" x="51.196" y="70.138"/></g><g style="fill:#000;fill-opacity:1"><use xlink:href="#O" x="61.657" y="70.138"/><use xlink:href="#ac" x="66.887" y="70.138"/></g><path style="fill-rule:nonzero;fill:#fffccc;fill-opacity:1;stroke-width:.3985;stroke-linecap:butt;stroke-linejoin:miter;stroke:#000;stroke-opacity:1;stroke-miterlimit:10" d="M111.824 48.814h48.485v15.758h-48.485Zm0 0" transform="matrix(1 0 0 -1 58.234 120.037)"/><path style="fill-rule:nonzero;fill:#fffccc;fill-opacity:1;stroke-width:.3985;stroke-linecap:butt;stroke-linejoin:miter;stroke:#000;stroke-opacity:1;stroke-miterlimit:10" d="M111.821 48.815h48.488v15.757h-48.488Zm0 0" transform="matrix(1 0 0 -1 56.023 122.248)"/><path style="fill-rule:nonzero;fill:#fffccc;fill-opacity:1;stroke-width:.3985;stroke-linecap:butt;stroke-linejoin:miter;stroke:#000;stroke-opacity:1;stroke-miterlimit:10" d="M111.822 48.815h48.484v15.758h-48.484Zm0 0" transform="matrix(1 0 0 -1 53.811 124.46)"/><g style="fill:#000;fill-opacity:1"><use xlink:href="#x" x="168.953" y="70.103"/><use xlink:href="#B" x="174.183" y="70.103"/><use xlink:href="#y" x="179.414" y="70.103"/><use xlink:href="#M" x="184.644" y="70.103"/><use xlink:href="#R" x="189.875" y="70.103"/><use xlink:href="#H" x="195.105" y="70.103"/><use xlink:href="#N" x="200.335" y="70.103"/><use xlink:href="#P" x="205.566" y="70.103"/></g><path style="fill:none;stroke-width:.3985;stroke-linecap:butt;stroke-linejoin:miter;stroke:#000;stroke-opacity:1;stroke-miterlimit:10" d="M21.826 56.694h86.113" transform="matrix(1 0 0 -1 53.811 124.46)"/><path style="fill-rule:nonzero;fill:#000;fill-opacity:1;stroke-width:.3985;stroke-linecap:butt;stroke-linejoin:round;stroke:#000;stroke-opacity:1;stroke-miterlimit:10" d="M4.216 0 .642 1.346 1.817 0 .642-1.347Zm0 0" transform="matrix(1 0 0 -1 160.03 67.766)"/><path style="fill-rule:nonzero;fill:#fffccc;fill-opacity:1;stroke-width:.3985;stroke-linecap:butt;stroke-linejoin:miter;stroke:#000;stroke-opacity:1;stroke-miterlimit:10" d="M247.027 49.22h95.559v14.945h-95.559Zm0 0" transform="matrix(1 0 0 -1 58.234 120.037)"/><path style="fill-rule:nonzero;fill:#fffccc;fill-opacity:1;stroke-width:.3985;stroke-linecap:butt;stroke-linejoin:miter;stroke:#000;stroke-opacity:1;stroke-miterlimit:10" d="M247.028 49.22h95.559v14.946h-95.559Zm0 0" transform="matrix(1 0 0 -1 56.023 122.248)"/><path style="fill-rule:nonzero;fill:#fffccc;fill-opacity:1;stroke-width:.3985;stroke-linecap:butt;stroke-linejoin:miter;stroke:#000;stroke-opacity:1;stroke-miterlimit:10" d="M247.029 49.222h95.558v14.945H247.03Zm0 0" transform="matrix(1 0 0 -1 53.811 124.46)"/><g style="fill:#000;fill-opacity:1"><use xlink:href="#T" x="304.157" y="70.815"/><use xlink:href="#z" x="309.387" y="70.815"/><use xlink:href="#P" x="314.618" y="70.815"/><use xlink:href="#A" x="319.848" y="70.815"/><use xlink:href="#J" x="325.079" y="70.815"/><use xlink:href="#P" x="330.309" y="70.815"/><use xlink:href="#ad" x="335.539" y="70.815"/><use xlink:href="#P" x="340.77" y="70.815"/><use xlink:href="#z" x="346" y="70.815"/><use xlink:href="#J" x="351.23" y="70.815"/><use xlink:href="#P" x="356.461" y="70.815"/><use xlink:href="#ae" x="361.691" y="70.815"/><use xlink:href="#Y" x="366.922" y="70.815"/><use xlink:href="#E" x="372.152" y="70.815"/><use xlink:href="#E" x="377.382" y="70.815"/><use xlink:href="#E" x="382.613" y="70.815"/><use xlink:href="#Z" x="387.843" y="70.815"/></g><path style="fill:none;stroke-width:.3985;stroke-linecap:butt;stroke-linejoin:miter;stroke:#000;stroke-opacity:1;stroke-miterlimit:10" d="M160.517 56.694h82.633" transform="matrix(1 0 0 -1 53.811 124.46)"/><path style="fill-rule:nonzero;fill:#000;fill-opacity:1;stroke-width:.3985;stroke-linecap:butt;stroke-linejoin:round;stroke:#000;stroke-opacity:1;stroke-miterlimit:10" d="M4.214 0 .644 1.346 1.819 0 .644-1.347Zm0 0" transform="matrix(1 0 0 -1 295.243 67.766)"/><path style="fill-rule:nonzero;fill:#fffccc;fill-opacity:1;stroke-width:.3985;stroke-linecap:butt;stroke-linejoin:miter;stroke:#000;stroke-opacity:1;stroke-miterlimit:10" d="M106.594 20.47h58.945v15.754h-58.945Zm0 0" transform="matrix(1 0 0 -1 58.234 120.037)"/><path style="fill-rule:nonzero;fill:#fffccc;fill-opacity:1;stroke-width:.3985;stroke-linecap:butt;stroke-linejoin:miter;stroke:#000;stroke-opacity:1;stroke-miterlimit:10" d="M106.59 20.467h58.95v15.758h-58.95Zm0 0" transform="matrix(1 0 0 -1 56.023 122.248)"/><path style="fill-rule:nonzero;fill:#fffccc;fill-opacity:1;stroke-width:.3985;stroke-linecap:butt;stroke-linejoin:miter;stroke:#000;stroke-opacity:1;stroke-miterlimit:10" d="M106.591 20.468h58.946v15.758H106.59Zm0 0" transform="matrix(1 0 0 -1 53.811 124.46)"/><g style="fill:#000;fill-opacity:1"><use xlink:href="#x" x="163.723" y="98.449"/><use xlink:href="#B" x="168.953" y="98.449"/><use xlink:href="#y" x="174.184" y="98.449"/><use xlink:href="#M" x="179.414" y="98.449"/><use xlink:href="#y" x="184.645" y="98.449"/><use xlink:href="#N" x="189.875" y="98.449"/><use xlink:href="#P" x="195.105" y="98.449"/><use xlink:href="#N" x="200.336" y="98.449"/><use xlink:href="#y" x="205.566" y="98.449"/><use xlink:href="#P" x="210.796" y="98.449"/></g><path style="fill-rule:nonzero;fill:#fffccc;fill-opacity:1;stroke-width:.3985;stroke-linecap:butt;stroke-linejoin:miter;stroke:#000;stroke-opacity:1;stroke-miterlimit:10" d="M252.258 20.47h85.097v15.754h-85.097Zm0 0" transform="matrix(1 0 0 -1 58.234 120.037)"/><path style="fill-rule:nonzero;fill:#fffccc;fill-opacity:1;stroke-width:.3985;stroke-linecap:butt;stroke-linejoin:miter;stroke:#000;stroke-opacity:1;stroke-miterlimit:10" d="M252.259 20.467h85.097v15.758H252.26Zm0 0" transform="matrix(1 0 0 -1 56.023 122.248)"/><path style="fill-rule:nonzero;fill:#fffccc;fill-opacity:1;stroke-width:.3985;stroke-linecap:butt;stroke-linejoin:miter;stroke:#000;stroke-opacity:1;stroke-miterlimit:10" d="M252.26 20.468h85.097v15.758h-85.098Zm0 0" transform="matrix(1 0 0 -1 53.811 124.46)"/><g style="fill:#000;fill-opacity:1"><use xlink:href="#T" x="309.388" y="98.449"/><use xlink:href="#z" x="314.618" y="98.449"/><use xlink:href="#P" x="319.849" y="98.449"/><use xlink:href="#A" x="325.079" y="98.449"/><use xlink:href="#J" x="330.31" y="98.449"/><use xlink:href="#P" x="335.54" y="98.449"/><use xlink:href="#af" x="340.77" y="98.449"/><use xlink:href="#N" x="346.001" y="98.449"/><use xlink:href="#y" x="351.231" y="98.449"/><use xlink:href="#P" x="356.461" y="98.449"/><use xlink:href="#Y" x="361.692" y="98.449"/><use xlink:href="#E" x="366.922" y="98.449"/><use xlink:href="#E" x="372.153" y="98.449"/><use xlink:href="#E" x="377.383" y="98.449"/><use xlink:href="#Z" x="382.613" y="98.449"/></g><path style="fill:none;stroke-width:.3985;stroke-linecap:butt;stroke-linejoin:miter;stroke:#000;stroke-opacity:1;stroke-miterlimit:10" d="M21.826 56.694h12.191V28.347h68.692" transform="matrix(1 0 0 -1 53.811 124.46)"/><path style="fill-rule:nonzero;fill:#000;fill-opacity:1;stroke-width:.3985;stroke-linecap:butt;stroke-linejoin:round;stroke:#000;stroke-opacity:1;stroke-miterlimit:10" d="M4.216 0 .642 1.348 1.818 0 .642-1.344Zm0 0" transform="matrix(1 0 0 -1 154.8 96.113)"/><path style="fill:none;stroke-width:.3985;stroke-linecap:butt;stroke-linejoin:miter;stroke:#000;stroke-opacity:1;stroke-miterlimit:10" d="M165.748 28.347h82.632" transform="matrix(1 0 0 -1 53.811 124.46)"/><path style="fill-rule:nonzero;fill:#000;fill-opacity:1;stroke-width:.3985;stroke-linecap:butt;stroke-linejoin:round;stroke:#000;stroke-opacity:1;stroke-miterlimit:10" d="M4.214 0 .644 1.348 1.818 0 .643-1.344Zm0 0" transform="matrix(1 0 0 -1 300.474 96.113)"/><path style="fill-rule:nonzero;fill:#fffccc;fill-opacity:1;stroke-width:.3985;stroke-linecap:butt;stroke-linejoin:miter;stroke:#000;stroke-opacity:1;stroke-miterlimit:10" d="M-8.55-7.474H8.553V7.472H-8.549Zm0 0" transform="matrix(1 0 0 -1 53.811 124.46)"/><g style="fill:#000;fill-opacity:1"><use xlink:href="#ag" x="48.581" y="127.234"/><use xlink:href="#ac" x="53.811" y="127.234"/></g><path style="fill-rule:nonzero;fill:#fffccc;fill-opacity:1;stroke-width:.3985;stroke-linecap:butt;stroke-linejoin:miter;stroke:#000;stroke-opacity:1;stroke-miterlimit:10" d="M96.13-7.88h79.868V7.878H96.13Zm0 0" transform="matrix(1 0 0 -1 53.811 124.46)"/><g style="fill:#000;fill-opacity:1"><use xlink:href="#x" x="153.262" y="126.796"/><use xlink:href="#B" x="158.492" y="126.796"/><use xlink:href="#y" x="163.723" y="126.796"/><use xlink:href="#M" x="168.953" y="126.796"/><use xlink:href="#y" x="174.184" y="126.796"/><use xlink:href="#N" x="179.414" y="126.796"/><use xlink:href="#P" x="184.644" y="126.796"/><use xlink:href="#R" x="189.875" y="126.796"/><use xlink:href="#N" x="195.105" y="126.796"/><use xlink:href="#S" x="200.335" y="126.796"/><use xlink:href="#T" x="205.566" y="126.796"/><use xlink:href="#H" x="210.796" y="126.796"/><use xlink:href="#B" x="216.027" y="126.796"/><use xlink:href="#P" x="221.257" y="126.796"/></g><path style="fill-rule:nonzero;fill:#fffccc;fill-opacity:1;stroke-width:.3985;stroke-linecap:butt;stroke-linejoin:miter;stroke:#000;stroke-opacity:1;stroke-miterlimit:10" d="M223.49-7.88h142.633V7.878H223.49Zm0 0" transform="matrix(1 0 0 -1 53.811 124.46)"/><g style="fill:#000;fill-opacity:1"><use xlink:href="#z" x="280.621" y="126.796"/><use xlink:href="#I" x="285.851" y="126.796"/><use xlink:href="#R" x="291.082" y="126.796"/><use xlink:href="#U" x="296.312" y="126.796"/><use xlink:href="#z" x="301.543" y="126.796"/><use xlink:href="#A" x="306.773" y="126.796"/><use xlink:href="#B" x="312.003" y="126.796"/><use xlink:href="#C" x="317.234" y="126.796"/><use xlink:href="#V" x="322.464" y="126.796"/><use xlink:href="#z" x="327.694" y="126.796"/><use xlink:href="#A" x="332.925" y="126.796"/><use xlink:href="#W" x="338.155" y="126.796"/><use xlink:href="#Q" x="343.386" y="126.796"/><use xlink:href="#R" x="348.616" y="126.796"/><use xlink:href="#y" x="353.846" y="126.796"/><use xlink:href="#ah" x="359.077" y="126.796"/><use xlink:href="#F" x="364.307" y="126.796"/><use xlink:href="#y" x="369.538" y="126.796"/><use xlink:href="#H" x="374.768" y="126.796"/><use xlink:href="#z" x="379.998" y="126.796"/><use xlink:href="#Q" x="385.229" y="126.796"/><use xlink:href="#J" x="390.459" y="126.796"/><use xlink:href="#C" x="395.689" y="126.796"/><use xlink:href="#ai" x="400.92" y="126.796"/><use xlink:href="#Y" x="406.15" y="126.796"/><use xlink:href="#Z" x="411.381" y="126.796"/></g><path style="fill-rule:nonzero;fill:#fffccc;fill-opacity:1;stroke-width:.3985;stroke-linecap:butt;stroke-linejoin:miter;stroke:#000;stroke-opacity:1;stroke-miterlimit:10" d="M233.95-64.571h121.712v15.758H233.95Zm0 0" transform="matrix(1 0 0 -1 53.811 124.46)"/><g style="fill:#000;fill-opacity:1"><use xlink:href="#P" x="291.081" y="183.489"/><use xlink:href="#R" x="296.311" y="183.489"/><use xlink:href="#N" x="301.542" y="183.489"/><use xlink:href="#U" x="306.772" y="183.489"/><use xlink:href="#z" x="312.003" y="183.489"/><use xlink:href="#A" x="317.233" y="183.489"/><use xlink:href="#B" x="322.463" y="183.489"/><use xlink:href="#C" x="327.694" y="183.489"/><use xlink:href="#V" x="332.924" y="183.489"/><use xlink:href="#z" x="338.154" y="183.489"/><use xlink:href="#A" x="343.385" y="183.489"/><use xlink:href="#W" x="348.615" y="183.489"/><use xlink:href="#Q" x="353.846" y="183.489"/><use xlink:href="#R" x="359.076" y="183.489"/><use xlink:href="#y" x="364.306" y="183.489"/><use xlink:href="#X" x="369.537" y="183.489"/><use xlink:href="#T" x="374.767" y="183.489"/><use xlink:href="#H" x="379.998" y="183.489"/><use xlink:href="#B" x="385.228" y="183.489"/><use xlink:href="#P" x="390.458" y="183.489"/><use xlink:href="#Y" x="395.689" y="183.489"/><use xlink:href="#Z" x="400.919" y="183.489"/></g><path style="fill-rule:nonzero;fill:#fffccc;fill-opacity:1;stroke-width:.3985;stroke-linecap:butt;stroke-linejoin:miter;stroke:#000;stroke-opacity:1;stroke-miterlimit:10" d="M306.209-36.126h90.585v15.559H306.21Zm0 0" transform="matrix(1 0 0 -1 53.811 124.46)"/><g style="fill:#000;fill-opacity:1"><use xlink:href="#b" x="363.336" y="155.262"/><use xlink:href="#aj" x="366.514" y="155.262"/></g><use xlink:href="#ak" x="372.561" y="155.262" style="fill:#000;fill-opacity:1"/><g style="fill:#000;fill-opacity:1"><use xlink:href="#al" x="378.29" y="155.262"/><use xlink:href="#c" x="384.018" y="155.262"/></g><use xlink:href="#h" x="389.747" y="155.262" style="fill:#000;fill-opacity:1"/><g style="fill:#000;fill-opacity:1"><use xlink:href="#f" x="398.813" y="155.262"/><use xlink:href="#e" x="404.382" y="155.262"/><use xlink:href="#o" x="407.56" y="155.262"/><use xlink:href="#al" x="413.289" y="155.262"/><use xlink:href="#i" x="419.017" y="155.262"/><use xlink:href="#b" x="423.739" y="155.262"/><use xlink:href="#am" x="426.918" y="155.262"/><use xlink:href="#an" x="431.371" y="155.262"/><use xlink:href="#ao" x="437.737" y="155.262"/></g><path style="fill:none;stroke-width:.3985;stroke-linecap:butt;stroke-linejoin:miter;stroke:#000;stroke-opacity:1;stroke-miterlimit:10" d="M8.752 0h83.492" transform="matrix(1 0 0 -1 53.811 124.46)"/><path style="fill-rule:nonzero;fill:#000;fill-opacity:1;stroke-width:.3985;stroke-linecap:butt;stroke-linejoin:round;stroke:#000;stroke-opacity:1;stroke-miterlimit:10" d="M4.213 0 .643 1.346 1.817-.001.642-1.345Zm0 0" transform="matrix(1 0 0 -1 144.338 124.46)"/><path style="fill:none;stroke-width:.3985;stroke-linecap:butt;stroke-linejoin:miter;stroke:#000;stroke-opacity:1;stroke-miterlimit:10" d="M176.209 0h43.402" transform="matrix(1 0 0 -1 53.811 124.46)"/><path style="fill-rule:nonzero;fill:#000;fill-opacity:1;stroke-width:.3985;stroke-linecap:butt;stroke-linejoin:round;stroke:#000;stroke-opacity:1;stroke-miterlimit:10" d="M4.213 0 .643 1.346 1.819-.001.643-1.345Zm0 0" transform="matrix(1 0 0 -1 271.705 124.46)"/><path style="fill:none;stroke-width:.3985;stroke-linecap:butt;stroke-linejoin:miter;stroke:#000;stroke-opacity:1;stroke-miterlimit:10" d="M366.341 0h7.106v-16.677" transform="matrix(1 0 0 -1 53.811 124.46)"/><path style="fill-rule:nonzero;fill:#000;fill-opacity:1;stroke-width:.3985;stroke-linecap:butt;stroke-linejoin:round;stroke:#000;stroke-opacity:1;stroke-miterlimit:10" d="M4.214 0 .644 1.346 1.816-.001.644-1.345Zm0 0" transform="matrix(0 1 1 0 427.259 139.418)"/><path style="fill:none;stroke-width:.3985;stroke-linecap:butt;stroke-linejoin:miter;stroke:#000;stroke-opacity:1;stroke-miterlimit:10" d="M176.209 0h39.226v-56.692h14.637" transform="matrix(1 0 0 -1 53.811 124.46)"/><path style="fill-rule:nonzero;fill:#000;fill-opacity:1;stroke-width:.3985;stroke-linecap:butt;stroke-linejoin:round;stroke:#000;stroke-opacity:1;stroke-miterlimit:10" d="M4.217.001.642 1.345 1.818.001.642-1.346Zm0 0" transform="matrix(1 0 0 -1 282.166 181.154)"/><path style="fill-rule:nonzero;fill:#fffccc;fill-opacity:1;stroke-width:.3985;stroke-linecap:butt;stroke-linejoin:miter;stroke:#000;stroke-opacity:1;stroke-miterlimit:10" d="M64.748-92.919H207.38v15.758H64.748Zm0 0" transform="matrix(1 0 0 -1 53.811 124.46)"/><g style="fill:#000;fill-opacity:1"><use xlink:href="#x" x="121.88" y="211.835"/><use xlink:href="#B" x="127.11" y="211.835"/><use xlink:href="#y" x="132.341" y="211.835"/><use xlink:href="#M" x="137.571" y="211.835"/><use xlink:href="#y" x="142.802" y="211.835"/><use xlink:href="#N" x="148.032" y="211.835"/><use xlink:href="#T" x="153.262" y="211.835"/><use xlink:href="#A" x="158.493" y="211.835"/><use xlink:href="#F" x="163.723" y="211.835"/><use xlink:href="#F" x="168.953" y="211.835"/><use xlink:href="#O" x="174.184" y="211.835"/><use xlink:href="#A" x="179.414" y="211.835"/><use xlink:href="#T" x="184.645" y="211.835"/><use xlink:href="#ap" x="189.875" y="211.835"/><use xlink:href="#O" x="195.105" y="211.835"/><use xlink:href="#P" x="200.336" y="211.835"/><use xlink:href="#y" x="205.566" y="211.835"/><use xlink:href="#Q" x="210.797" y="211.835"/><use xlink:href="#R" x="216.027" y="211.835"/><use xlink:href="#S" x="221.257" y="211.835"/><use xlink:href="#C" x="226.488" y="211.835"/><use xlink:href="#Q" x="231.718" y="211.835"/><use xlink:href="#B" x="236.948" y="211.835"/><use xlink:href="#H" x="242.179" y="211.835"/><use xlink:href="#I" x="247.409" y="211.835"/><use xlink:href="#J" x="252.64" y="211.835"/></g><path style="fill-rule:nonzero;fill:#fffccc;fill-opacity:1;stroke-width:.3985;stroke-linecap:butt;stroke-linejoin:miter;stroke:#000;stroke-opacity:1;stroke-miterlimit:10" d="M69.98-121.264h132.172v15.754H69.98Zm0 0" transform="matrix(1 0 0 -1 58.234 120.037)"/><path style="fill-rule:nonzero;fill:#fffccc;fill-opacity:1;stroke-width:.3985;stroke-linecap:butt;stroke-linejoin:miter;stroke:#000;stroke-opacity:1;stroke-miterlimit:10" d="M69.977-121.267h132.176v15.757H69.977Zm0 0" transform="matrix(1 0 0 -1 56.023 122.248)"/><path style="fill-rule:nonzero;fill:#fffccc;fill-opacity:1;stroke-width:.3985;stroke-linecap:butt;stroke-linejoin:miter;stroke:#000;stroke-opacity:1;stroke-miterlimit:10" d="M69.978-121.267H202.15v15.758H69.978Zm0 0" transform="matrix(1 0 0 -1 53.811 124.46)"/><g style="fill:#000;fill-opacity:1"><use xlink:href="#x" x="127.11" y="240.182"/><use xlink:href="#B" x="132.34" y="240.182"/><use xlink:href="#y" x="137.571" y="240.182"/><use xlink:href="#M" x="142.801" y="240.182"/><use xlink:href="#y" x="148.032" y="240.182"/><use xlink:href="#N" x="153.262" y="240.182"/><use xlink:href="#T" x="158.492" y="240.182"/><use xlink:href="#A" x="163.723" y="240.182"/><use xlink:href="#F" x="168.953" y="240.182"/><use xlink:href="#F" x="174.183" y="240.182"/><use xlink:href="#O" x="179.414" y="240.182"/><use xlink:href="#A" x="184.644" y="240.182"/><use xlink:href="#T" x="189.875" y="240.182"/><use xlink:href="#ap" x="195.105" y="240.182"/><use xlink:href="#z" x="200.335" y="240.182"/><use xlink:href="#P" x="205.566" y="240.182"/><use xlink:href="#R" x="210.796" y="240.182"/><use xlink:href="#N" x="216.027" y="240.182"/><use xlink:href="#P" x="221.257" y="240.182"/><use xlink:href="#z" x="226.487" y="240.182"/><use xlink:href="#R" x="231.718" y="240.182"/><use xlink:href="#H" x="236.948" y="240.182"/><use xlink:href="#N" x="242.178" y="240.182"/><use xlink:href="#P" x="247.409" y="240.182"/></g><path style="fill-rule:nonzero;fill:#fffccc;fill-opacity:1;stroke-width:.3985;stroke-linecap:butt;stroke-linejoin:miter;stroke:#000;stroke-opacity:1;stroke-miterlimit:10" d="M67.363-149.612h137.403v15.758H67.363Zm0 0" transform="matrix(1 0 0 -1 58.234 120.037)"/><path style="fill-rule:nonzero;fill:#fffccc;fill-opacity:1;stroke-width:.3985;stroke-linecap:butt;stroke-linejoin:miter;stroke:#000;stroke-opacity:1;stroke-miterlimit:10" d="M67.364-149.611h137.402v15.754H67.364Zm0 0" transform="matrix(1 0 0 -1 56.023 122.248)"/><path style="fill-rule:nonzero;fill:#fffccc;fill-opacity:1;stroke-width:.3985;stroke-linecap:butt;stroke-linejoin:miter;stroke:#000;stroke-opacity:1;stroke-miterlimit:10" d="M67.365-149.614h137.402v15.758H67.365Zm0 0" transform="matrix(1 0 0 -1 53.811 124.46)"/><g style="fill:#000;fill-opacity:1"><use xlink:href="#x" x="124.495" y="268.528"/><use xlink:href="#B" x="129.725" y="268.528"/><use xlink:href="#y" x="134.956" y="268.528"/><use xlink:href="#M" x="140.186" y="268.528"/><use xlink:href="#y" x="145.417" y="268.528"/><use xlink:href="#N" x="150.647" y="268.528"/><use xlink:href="#N" x="155.877" y="268.528"/><use xlink:href="#P" x="161.108" y="268.528"/><use xlink:href="#M" x="166.338" y="268.528"/><use xlink:href="#A" x="171.568" y="268.528"/><use xlink:href="#I" x="176.799" y="268.528"/><use xlink:href="#F" x="182.029" y="268.528"/><use xlink:href="#J" x="187.26" y="268.528"/><use xlink:href="#P" x="192.49" y="268.528"/><use xlink:href="#N" x="197.72" y="268.528"/><use xlink:href="#y" x="202.951" y="268.528"/><use xlink:href="#P" x="208.181" y="268.528"/><use xlink:href="#T" x="213.412" y="268.528"/><use xlink:href="#A" x="218.642" y="268.528"/><use xlink:href="#F" x="223.872" y="268.528"/><use xlink:href="#F" x="229.103" y="268.528"/><use xlink:href="#O" x="234.333" y="268.528"/><use xlink:href="#A" x="239.563" y="268.528"/><use xlink:href="#T" x="244.794" y="268.528"/><use xlink:href="#ap" x="250.024" y="268.528"/></g><path style="fill-rule:nonzero;fill:#fffccc;fill-opacity:1;stroke-width:.3985;stroke-linecap:butt;stroke-linejoin:miter;stroke:#000;stroke-opacity:1;stroke-miterlimit:10" d="M69.978-177.958H202.15v15.754H69.978Zm0 0" transform="matrix(1 0 0 -1 53.811 124.46)"/><g style="fill:#000;fill-opacity:1"><use xlink:href="#x" x="127.11" y="296.875"/><use xlink:href="#B" x="132.34" y="296.875"/><use xlink:href="#y" x="137.571" y="296.875"/><use xlink:href="#M" x="142.801" y="296.875"/><use xlink:href="#y" x="148.032" y="296.875"/><use xlink:href="#N" x="153.262" y="296.875"/><use xlink:href="#T" x="158.492" y="296.875"/><use xlink:href="#A" x="163.723" y="296.875"/><use xlink:href="#F" x="168.953" y="296.875"/><use xlink:href="#F" x="174.183" y="296.875"/><use xlink:href="#O" x="179.414" y="296.875"/><use xlink:href="#A" x="184.644" y="296.875"/><use xlink:href="#T" x="189.875" y="296.875"/><use xlink:href="#ap" x="195.105" y="296.875"/><use xlink:href="#P" x="200.335" y="296.875"/><use xlink:href="#R" x="205.566" y="296.875"/><use xlink:href="#N" x="210.796" y="296.875"/><use xlink:href="#S" x="216.027" y="296.875"/><use xlink:href="#C" x="221.257" y="296.875"/><use xlink:href="#Q" x="226.487" y="296.875"/><use xlink:href="#B" x="231.718" y="296.875"/><use xlink:href="#H" x="236.948" y="296.875"/><use xlink:href="#I" x="242.178" y="296.875"/><use xlink:href="#J" x="247.409" y="296.875"/></g><path style="fill:none;stroke-width:.3985;stroke-linecap:butt;stroke-linejoin:miter;stroke:#000;stroke-opacity:1;stroke-miterlimit:10" d="M248.994-64.77v-20.27h-37.711" transform="matrix(1 0 0 -1 53.811 124.46)"/><path style="fill-rule:nonzero;fill:#000;fill-opacity:1;stroke-width:.3985;stroke-linecap:butt;stroke-linejoin:round;stroke:#000;stroke-opacity:1;stroke-miterlimit:10" d="M4.215 0 .645 1.347 1.817 0 .645-1.344Zm0 0" transform="matrix(-1 0 0 1 266.813 209.5)"/><path style="fill:none;stroke-width:.3985;stroke-linecap:butt;stroke-linejoin:miter;stroke:#000;stroke-opacity:1;stroke-miterlimit:10" d="M248.994-64.77v-48.618h-42.942" transform="matrix(1 0 0 -1 53.811 124.46)"/><path style="fill-rule:nonzero;fill:#000;fill-opacity:1;stroke-width:.3985;stroke-linecap:butt;stroke-linejoin:round;stroke:#000;stroke-opacity:1;stroke-miterlimit:10" d="M4.215 0 .645 1.344 1.817 0 .645-1.347Zm0 0" transform="matrix(-1 0 0 1 261.582 237.847)"/><path style="fill:none;stroke-width:.3985;stroke-linecap:butt;stroke-linejoin:miter;stroke:#000;stroke-opacity:1;stroke-miterlimit:10" d="M248.994-64.77v-76.965h-40.325" transform="matrix(1 0 0 -1 53.811 124.46)"/><path style="fill-rule:nonzero;fill:#000;fill-opacity:1;stroke-width:.3985;stroke-linecap:butt;stroke-linejoin:round;stroke:#000;stroke-opacity:1;stroke-miterlimit:10" d="M4.213.001.643 1.345 1.819.001.643-1.346Zm0 0" transform="matrix(-1 0 0 1 264.198 266.194)"/><path style="fill:none;stroke-width:.3985;stroke-linecap:butt;stroke-linejoin:miter;stroke:#000;stroke-opacity:1;stroke-miterlimit:10" d="M248.994-64.77v-105.31h-42.942" transform="matrix(1 0 0 -1 53.811 124.46)"/><path style="fill-rule:nonzero;fill:#000;fill-opacity:1;stroke-width:.3985;stroke-linecap:butt;stroke-linejoin:round;stroke:#000;stroke-opacity:1;stroke-miterlimit:10" d="M4.215-.002.645 1.346 1.817-.002.645-1.346Zm0 0" transform="matrix(-1 0 0 1 261.582 294.54)"/></svg>