<svg xmlns="http://www.w3.org/2000/svg" xmlns:xlink="http://www.w3.org/1999/xlink" width="592.213" height="99.507" viewBox="0 0 444.16 74.63" version="1.2"><defs><symbol overflow="visible" id="a"><path style="stroke:none" d="M3.89-3.734c-.265.015-.468.234-.468.453 0 .14.094.297.312.297.22 0 .454-.172.454-.563 0-.453-.422-.86-1.188-.86-1.313 0-1.688 1.016-1.688 1.454 0 .781.735.922 1.032.984.515.11 1.031.219 1.031.766 0 .25-.219 1.094-1.422 1.094-.14 0-.906 0-1.14-.532.39.047.64-.25.64-.53 0-.22-.172-.345-.375-.345-.266 0-.562.204-.562.657 0 .562.578.968 1.421.968 1.625 0 2.016-1.203 2.016-1.656a.97.97 0 0 0-.312-.719c-.266-.28-.563-.343-1-.421-.36-.079-.75-.157-.75-.61 0-.281.234-.89 1.109-.89.25 0 .75.078.89.453Zm0 0"/></symbol><symbol overflow="visible" id="k"><path style="stroke:none" d="M2.047-3.984h.937c.204 0 .313 0 .313-.204 0-.109-.11-.109-.281-.109H2.14c.359-1.422.406-1.61.406-1.672 0-.172-.125-.265-.297-.265-.031 0-.313 0-.39.359l-.391 1.578H.53c-.203 0-.297 0-.297.188 0 .125.078.125.282.125h.875C.67-1.156.625-.984.625-.813c0 .547.375.922.922.922 1.016 0 1.578-1.453 1.578-1.53 0-.11-.078-.11-.11-.11-.093 0-.109.031-.156.14C2.438-.344 1.906-.109 1.563-.109c-.204 0-.313-.125-.313-.454 0-.25.031-.312.063-.484Zm0 0"/></symbol><symbol overflow="visible" id="b"><path style="stroke:none" d="m1.266-.766 1.062-1.03c1.547-1.376 2.14-1.907 2.14-2.907 0-1.14-.89-1.938-2.109-1.938C1.234-6.64.5-5.719.5-4.828c0 .547.5.547.531.547.172 0 .516-.11.516-.532a.513.513 0 0 0-.531-.515c-.079 0-.094 0-.125.016.218-.657.765-1.016 1.343-1.016.907 0 1.329.812 1.329 1.625 0 .797-.485 1.578-1.047 2.203L.609-.375C.5-.265.5-.235.5 0h3.703l.266-1.734h-.235C4.172-1.438 4.11-1 4-.844c-.063.078-.719.078-.938.078Zm0 0"/></symbol><symbol overflow="visible" id="c"><path style="stroke:none" d="M2.89-3.516c.813-.265 1.391-.953 1.391-1.75 0-.812-.875-1.375-1.828-1.375-1 0-1.765.594-1.765 1.36 0 .328.218.515.515.515.297 0 .5-.218.5-.515 0-.485-.469-.485-.61-.485.298-.5.954-.625 1.313-.625.422 0 .969.22.969 1.11 0 .125-.031.703-.281 1.14-.297.485-.64.516-.89.516a3.29 3.29 0 0 1-.392.031c-.078.016-.14.031-.14.125 0 .11.062.11.234.11h.438c.812 0 1.187.671 1.187 1.656 0 1.36-.687 1.64-1.125 1.64-.437 0-1.187-.171-1.531-.75.344.047.656-.171.656-.546a.537.537 0 0 0-.547-.563c-.25 0-.562.14-.562.578C.422-.437 1.344.22 2.437.22c1.22 0 2.126-.906 2.126-1.922 0-.813-.641-1.594-1.672-1.813Zm0 0"/></symbol><symbol overflow="visible" id="d"><path style="stroke:none" d="M2.938-1.64v.859c0 .36-.032.469-.766.469h-.203V0c.406-.031.922-.031 1.343-.031.422 0 .938 0 1.36.031v-.313h-.219c-.734 0-.75-.109-.75-.468v-.86h.985v-.312h-.985v-4.531c0-.204 0-.266-.172-.266-.078 0-.11 0-.187.125L.28-1.953v.312Zm.046-.313H.563l2.421-3.719Zm0 0"/></symbol><symbol overflow="visible" id="e"><path style="stroke:none" d="M2.938-6.375c0-.25 0-.266-.235-.266C2.078-6 1.203-6 .891-6v.313c.203 0 .78 0 1.296-.266v5.172c0 .36-.03.469-.921.469H.953V0c.344-.031 1.203-.031 1.61-.031.39 0 1.265 0 1.609.031v-.313h-.313c-.906 0-.921-.109-.921-.468Zm0 0"/></symbol><symbol overflow="visible" id="f"><path style="stroke:none" d="M4.469-2c0-1.188-.813-2.188-1.89-2.188-.47 0-.907.157-1.267.516v-1.953c.204.063.532.125.844.125 1.235 0 1.938-.906 1.938-1.031 0-.063-.032-.11-.11-.11 0 0-.03 0-.078.032a3.22 3.22 0 0 1-1.36.296c-.39 0-.858-.078-1.327-.28-.078-.032-.094-.032-.11-.032C1-6.625 1-6.547 1-6.391v2.954c0 .171 0 .25.14.25.079 0 .094-.016.141-.079.11-.156.469-.703 1.282-.703.515 0 .765.453.843.64.156.376.188.75.188 1.25 0 .36 0 .954-.25 1.376-.235.39-.61.64-1.063.64-.719 0-1.297-.53-1.469-1.109.032 0 .063.016.172.016.329 0 .5-.25.5-.485 0-.25-.171-.5-.5-.5-.14 0-.484.079-.484.532C.5-.75 1.188.219 2.297.219 3.453.219 4.469-.734 4.469-2Zm0 0"/></symbol><symbol overflow="visible" id="g"><path style="stroke:none" d="M1.313-3.266v-.25c0-2.515 1.234-2.875 1.75-2.875.234 0 .656.063.874.407-.156 0-.546 0-.546.437 0 .313.234.469.453.469.156 0 .469-.094.469-.484 0-.594-.438-1.079-1.266-1.079C1.766-6.64.422-5.359.422-3.156.422-.484 1.578.219 2.5.219c1.11 0 2.063-.938 2.063-2.25 0-1.266-.891-2.219-2-2.219-.672 0-1.047.5-1.25.984ZM2.5-.062c-.625 0-.922-.594-.984-.75-.188-.47-.188-1.266-.188-1.438 0-.781.328-1.781 1.219-1.781.172 0 .625 0 .937.625.172.36.172.875.172 1.36 0 .483 0 .983-.172 1.343-.296.594-.75.64-.984.64Zm0 0"/></symbol><symbol overflow="visible" id="h"><path style="stroke:none" d="M4.75-6.078c.078-.11.078-.125.078-.344H2.406c-1.203 0-1.234-.125-1.265-.312H.89L.562-4.688h.25c.032-.156.11-.78.25-.906.063-.062.844-.062.97-.062h2.062c-.11.156-.89 1.25-1.11 1.578C2.078-2.734 1.75-1.344 1.75-.328c0 .094 0 .547.469.547.453 0 .453-.453.453-.547v-.516c0-.547.031-1.094.11-1.625.046-.234.171-1.094.624-1.703Zm0 0"/></symbol><symbol overflow="visible" id="i"><path style="stroke:none" d="M1.625-4.563c-.453-.296-.5-.625-.5-.796 0-.61.656-1.032 1.36-1.032.718 0 1.359.516 1.359 1.235 0 .578-.39 1.047-.985 1.39Zm1.453.954c.719-.375 1.203-.891 1.203-1.547 0-.922-.875-1.485-1.781-1.485-1 0-1.813.735-1.813 1.672 0 .172.016.625.438 1.094.11.11.484.36.734.531C1.281-3.047.422-2.5.422-1.5.422-.453 1.438.219 2.484.219c1.125 0 2.079-.828 2.079-1.89 0-.36-.11-.813-.5-1.235-.188-.203-.344-.297-.985-.703Zm-1 .421 1.235.782c.28.187.75.484.75 1.094 0 .734-.75 1.25-1.563 1.25C1.64-.063.922-.672.922-1.5c0-.578.312-1.219 1.156-1.688Zm0 0"/></symbol><symbol overflow="visible" id="j"><path style="stroke:none" d="M3.656-3.172v.328c0 2.328-1.031 2.781-1.61 2.781-.171 0-.718-.015-.983-.359.437 0 .515-.281.515-.453 0-.313-.234-.453-.453-.453-.156 0-.453.078-.453.469 0 .671.531 1.078 1.375 1.078 1.297 0 2.515-1.36 2.515-3.5 0-2.688-1.156-3.36-2.046-3.36-.547 0-1.032.188-1.454.625-.421.454-.64.875-.64 1.625 0 1.235.875 2.22 1.984 2.22.61 0 1.016-.423 1.25-1Zm-1.234.766c-.156 0-.625 0-.922-.625-.188-.375-.188-.86-.188-1.36 0-.53 0-1 .22-1.375.265-.5.64-.625.984-.625.468 0 .796.344.968.782.11.328.157.953.157 1.406 0 .828-.344 1.797-1.22 1.797Zm0 0"/></symbol><symbol overflow="visible" id="l"><path style="stroke:none" d="M4.578-3.188c0-.796-.047-1.593-.39-2.328C3.733-6.484 2.905-6.64 2.5-6.64c-.61 0-1.328.266-1.75 1.188-.313.687-.36 1.469-.36 2.266 0 .75.032 1.64.454 2.406a1.83 1.83 0 0 0 1.64 1c.532 0 1.297-.203 1.735-1.157.312-.687.36-1.468.36-2.25ZM2.484 0c-.39 0-.984-.25-1.156-1.203-.11-.594-.11-1.516-.11-2.11 0-.64 0-1.296.079-1.828.187-1.187.937-1.28 1.187-1.28.329 0 .985.187 1.172 1.171.11.563.11 1.313.11 1.938 0 .75 0 1.421-.11 2.062C3.5-.297 2.937 0 2.484 0Zm0 0"/></symbol><clipPath id="m"><path d="M67 50h150v24.445H67Zm0 0"/></clipPath></defs><path style="stroke:none;fill-rule:nonzero;fill:#bfbfbf;fill-opacity:1" d="M17.523 51.805c0-4.68-3.789-8.47-8.464-8.47a8.466 8.466 0 0 0-8.47 8.47 8.465 8.465 0 0 0 8.47 8.465 8.464 8.464 0 0 0 8.464-8.465Zm0 0"/><use xlink:href="#a" x="6.721" y="53.948" style="fill:#000;fill-opacity:1"/><path style="stroke:none;fill-rule:nonzero;fill:#bfbfbf;fill-opacity:1" d="M45.871 51.805c0-4.68-3.789-8.47-8.469-8.47a8.468 8.468 0 1 0 0 16.935c4.68 0 8.47-3.79 8.47-8.465Zm0 0"/><use xlink:href="#b" x="34.912" y="55.013" style="fill:#000;fill-opacity:1"/><path style="stroke:none;fill-rule:nonzero;fill:#bfbfbf;fill-opacity:1" d="M74.219 51.805a8.468 8.468 0 0 0-8.469-8.47 8.468 8.468 0 1 0 0 16.935c4.676 0 8.469-3.79 8.469-8.465Zm0 0"/><use xlink:href="#c" x="63.258" y="55.013" style="fill:#000;fill-opacity:1"/><path style="stroke:none;fill-rule:nonzero;fill:#bfbfbf;fill-opacity:1" d="M102.566 51.805a8.468 8.468 0 0 0-8.468-8.47 8.468 8.468 0 1 0 0 16.935c4.675 0 8.468-3.79 8.468-8.465Zm0 0"/><use xlink:href="#d" x="91.605" y="55.013" style="fill:#000;fill-opacity:1"/><path style="stroke:none;fill-rule:nonzero;fill:#bfbfbf;fill-opacity:1" d="M300.992 51.805c0-4.68-3.789-8.47-8.469-8.47a8.468 8.468 0 1 0 0 16.935c4.68 0 8.47-3.79 8.47-8.465Zm0 0"/><g style="fill:#000;fill-opacity:1"><use xlink:href="#e" x="287.539" y="55.013"/><use xlink:href="#f" x="292.52" y="55.013"/></g><path style="stroke:none;fill-rule:nonzero;fill:#bfbfbf;fill-opacity:1" d="M329.34 51.805a8.468 8.468 0 0 0-8.469-8.47 8.468 8.468 0 1 0 0 16.935c4.676 0 8.469-3.79 8.469-8.465Zm0 0"/><g style="fill:#000;fill-opacity:1"><use xlink:href="#e" x="315.886" y="55.013"/><use xlink:href="#g" x="320.867" y="55.013"/></g><path style="stroke:none;fill-rule:nonzero;fill:#bfbfbf;fill-opacity:1" d="M357.688 51.805a8.468 8.468 0 0 0-8.47-8.47 8.468 8.468 0 1 0 0 16.935c4.677 0 8.47-3.79 8.47-8.465Zm0 0"/><g style="fill:#000;fill-opacity:1"><use xlink:href="#e" x="344.232" y="55.013"/><use xlink:href="#h" x="349.213" y="55.013"/></g><path style="stroke:none;fill-rule:nonzero;fill:#bfbfbf;fill-opacity:1" d="M386.035 51.805a8.468 8.468 0 0 0-8.469-8.47 8.466 8.466 0 0 0-8.468 8.47 8.465 8.465 0 0 0 8.468 8.465c4.676 0 8.47-3.79 8.47-8.465Zm0 0"/><g style="fill:#000;fill-opacity:1"><use xlink:href="#e" x="372.579" y="55.013"/><use xlink:href="#i" x="377.56" y="55.013"/></g><path style="stroke:none;fill-rule:nonzero;fill:#bfbfbf;fill-opacity:1" d="M414.379 51.805c0-4.68-3.79-8.47-8.465-8.47a8.466 8.466 0 0 0-8.469 8.47 8.465 8.465 0 0 0 8.47 8.465 8.464 8.464 0 0 0 8.464-8.465Zm0 0"/><g style="fill:#000;fill-opacity:1"><use xlink:href="#e" x="400.925" y="55.013"/><use xlink:href="#j" x="405.906" y="55.013"/></g><path style="stroke:none;fill-rule:nonzero;fill:#bfbfbf;fill-opacity:1" d="M442.727 51.805c0-4.68-3.79-8.47-8.47-8.47a8.468 8.468 0 1 0 0 16.935c4.68 0 8.47-3.79 8.47-8.465Zm0 0"/><use xlink:href="#k" x="432.454" y="54.867" style="fill:#000;fill-opacity:1"/><path style="stroke:none;fill-rule:nonzero;fill:#bfbfbf;fill-opacity:1" d="M142.598 60.563a8.47 8.47 0 0 0-8.47-8.47 8.47 8.47 0 0 0-8.468 8.47 8.47 8.47 0 0 0 8.469 8.468 8.47 8.47 0 0 0 8.469-8.469Zm0 0"/><use xlink:href="#f" x="131.636" y="63.773" style="fill:#000;fill-opacity:1"/><path style="stroke:none;fill-rule:nonzero;fill:#bfbfbf;fill-opacity:1" d="M132.3 28.871a8.468 8.468 0 0 0-8.468-8.469 8.466 8.466 0 0 0-8.469 8.47 8.468 8.468 0 0 0 8.469 8.468 8.47 8.47 0 0 0 8.469-8.469Zm0 0"/><use xlink:href="#g" x="121.339" y="32.08" style="fill:#000;fill-opacity:1"/><path style="stroke:none;fill-rule:nonzero;fill:#bfbfbf;fill-opacity:1" d="M159.258 9.281a8.468 8.468 0 1 0-16.934 0c0 4.68 3.79 8.469 8.465 8.469 4.68 0 8.469-3.79 8.469-8.469Zm0 0"/><use xlink:href="#h" x="148.298" y="12.493" style="fill:#000;fill-opacity:1"/><path style="stroke:none;fill-rule:nonzero;fill:#bfbfbf;fill-opacity:1" d="M186.219 28.871a8.468 8.468 0 0 0-8.469-8.469 8.468 8.468 0 0 0-8.469 8.47 8.47 8.47 0 0 0 8.469 8.468 8.47 8.47 0 0 0 8.469-8.469Zm0 0"/><use xlink:href="#i" x="175.257" y="32.08" style="fill:#000;fill-opacity:1"/><path style="stroke:none;fill-rule:nonzero;fill:#bfbfbf;fill-opacity:1" d="M175.922 60.563a8.47 8.47 0 0 0-8.469-8.47 8.47 8.47 0 0 0-8.469 8.47 8.47 8.47 0 0 0 8.47 8.468 8.47 8.47 0 0 0 8.468-8.469Zm0 0"/><use xlink:href="#j" x="164.959" y="63.773" style="fill:#000;fill-opacity:1"/><path style="stroke:none;fill-rule:nonzero;fill:#bfbfbf;fill-opacity:1" d="M227.637 60.563a8.468 8.468 0 1 0-16.934 0 8.468 8.468 0 1 0 16.934 0Zm0 0"/><g style="fill:#000;fill-opacity:1"><use xlink:href="#e" x="214.185" y="63.773"/><use xlink:href="#l" x="219.166" y="63.773"/></g><path style="stroke:none;fill-rule:nonzero;fill:#bfbfbf;fill-opacity:1" d="M217.34 28.871a8.468 8.468 0 0 0-8.469-8.469 8.468 8.468 0 0 0-8.469 8.47 8.47 8.47 0 0 0 8.47 8.468 8.47 8.47 0 0 0 8.468-8.469Zm0 0"/><g style="fill:#000;fill-opacity:1"><use xlink:href="#e" x="203.887" y="32.08"/><use xlink:href="#e" x="208.868" y="32.08"/></g><path style="stroke:none;fill-rule:nonzero;fill:#bfbfbf;fill-opacity:1" d="M244.3 9.281a8.47 8.47 0 0 0-8.468-8.469 8.47 8.47 0 0 0-8.469 8.47 8.468 8.468 0 0 0 8.469 8.468 8.468 8.468 0 0 0 8.469-8.469Zm0 0"/><g style="fill:#000;fill-opacity:1"><use xlink:href="#e" x="230.847" y="12.493"/><use xlink:href="#b" x="235.828" y="12.493"/></g><path style="stroke:none;fill-rule:nonzero;fill:#bfbfbf;fill-opacity:1" d="M271.258 28.871c0-4.68-3.79-8.469-8.465-8.469a8.466 8.466 0 0 0-8.469 8.47 8.468 8.468 0 1 0 16.934 0Zm0 0"/><g style="fill:#000;fill-opacity:1"><use xlink:href="#e" x="257.806" y="32.08"/><use xlink:href="#c" x="262.787" y="32.08"/></g><path style="stroke:none;fill-rule:nonzero;fill:#bfbfbf;fill-opacity:1" d="M260.96 60.563a8.468 8.468 0 0 0-8.468-8.47 8.47 8.47 0 0 0-8.469 8.47 8.47 8.47 0 0 0 8.47 8.468 8.468 8.468 0 0 0 8.468-8.469Zm0 0"/><g style="fill:#000;fill-opacity:1"><use xlink:href="#e" x="247.508" y="63.773"/><use xlink:href="#d" x="252.489" y="63.773"/></g><path style="fill:none;stroke-width:.3985;stroke-linecap:butt;stroke-linejoin:miter;stroke:#000;stroke-opacity:1;stroke-miterlimit:10" d="M37.013-.002h9.617" transform="matrix(1 0 0 -1 -19.29 51.803)"/><path style="fill:none;stroke-width:.3985;stroke-linecap:round;stroke-linejoin:round;stroke:#000;stroke-opacity:1;stroke-miterlimit:10" d="M-2.072 2.393C-1.692.955-.849.28-.002-.002c-.847-.277-1.69-.953-2.07-2.39" transform="matrix(1 0 0 -1 27.54 51.803)"/><path style="fill:none;stroke-width:.3985;stroke-linecap:butt;stroke-linejoin:miter;stroke:#000;stroke-opacity:1;stroke-miterlimit:10" d="M65.36-.002h9.618" transform="matrix(1 0 0 -1 -19.29 51.803)"/><path style="fill:none;stroke-width:.3985;stroke-linecap:round;stroke-linejoin:round;stroke:#000;stroke-opacity:1;stroke-miterlimit:10" d="M-2.07 2.393C-1.693.955-.849.28 0-.002c-.848-.277-1.692-.953-2.07-2.39" transform="matrix(1 0 0 -1 55.887 51.803)"/><path style="fill:none;stroke-width:.3985;stroke-linecap:butt;stroke-linejoin:miter;stroke:#000;stroke-opacity:1;stroke-miterlimit:10" d="M93.708-.002h9.617" transform="matrix(1 0 0 -1 -19.29 51.803)"/><path style="fill:none;stroke-width:.3985;stroke-linecap:round;stroke-linejoin:round;stroke:#000;stroke-opacity:1;stroke-miterlimit:10" d="M-2.074 2.393C-1.695.955-.85.28 0-.002c-.851-.277-1.695-.953-2.074-2.39" transform="matrix(1 0 0 -1 84.234 51.803)"/><path style="fill:none;stroke-width:.3985;stroke-linecap:butt;stroke-linejoin:miter;stroke:#000;stroke-opacity:1;stroke-miterlimit:10" d="M93.708-.002h9.617" transform="matrix(1 0 0 -1 -19.29 51.803)"/><path style="fill:none;stroke-width:.3985;stroke-linecap:round;stroke-linejoin:round;stroke:#000;stroke-opacity:1;stroke-miterlimit:10" d="M-2.074 2.393C-1.695.955-.85.28 0-.002c-.851-.277-1.695-.953-2.074-2.39" transform="matrix(1 0 0 -1 84.234 51.803)"/><path style="fill:none;stroke-width:.3985;stroke-linecap:butt;stroke-linejoin:miter;stroke:#000;stroke-opacity:1;stroke-miterlimit:10" d="M320.481-.002h9.618" transform="matrix(1 0 0 -1 -19.29 51.803)"/><path style="fill:none;stroke-width:.3985;stroke-linecap:round;stroke-linejoin:round;stroke:#000;stroke-opacity:1;stroke-miterlimit:10" d="M-2.071 2.393C-1.692.955-.848.28-.001-.002c-.847-.277-1.691-.953-2.07-2.39" transform="matrix(1 0 0 -1 311.009 51.803)"/><path style="fill:none;stroke-width:.3985;stroke-linecap:butt;stroke-linejoin:miter;stroke:#000;stroke-opacity:1;stroke-miterlimit:10" d="M348.83-.002h9.616" transform="matrix(1 0 0 -1 -19.29 51.803)"/><path style="fill:none;stroke-width:.3985;stroke-linecap:round;stroke-linejoin:round;stroke:#000;stroke-opacity:1;stroke-miterlimit:10" d="M-2.074 2.393C-1.695.955-.851.28 0-.002c-.851-.277-1.695-.953-2.074-2.39" transform="matrix(1 0 0 -1 339.355 51.803)"/><path style="fill:none;stroke-width:.3985;stroke-linecap:butt;stroke-linejoin:miter;stroke:#000;stroke-opacity:1;stroke-miterlimit:10" d="M377.177-.002h9.617" transform="matrix(1 0 0 -1 -19.29 51.803)"/><path style="fill:none;stroke-width:.3985;stroke-linecap:round;stroke-linejoin:round;stroke:#000;stroke-opacity:1;stroke-miterlimit:10" d="M-2.073 2.393C-1.694.955-.851.28 0-.002c-.852-.277-1.695-.953-2.074-2.39" transform="matrix(1 0 0 -1 367.702 51.803)"/><path style="fill:none;stroke-width:.3985;stroke-linecap:butt;stroke-linejoin:miter;stroke:#000;stroke-opacity:1;stroke-miterlimit:10" d="M405.524-.002h9.618" transform="matrix(1 0 0 -1 -19.29 51.803)"/><path style="fill:none;stroke-width:.3985;stroke-linecap:round;stroke-linejoin:round;stroke:#000;stroke-opacity:1;stroke-miterlimit:10" d="M-2.072 2.393C-1.694.955-.85.28.002-.002c-.852-.277-1.696-.953-2.074-2.39" transform="matrix(1 0 0 -1 396.049 51.803)"/><path style="fill:none;stroke-width:.3985;stroke-linecap:butt;stroke-linejoin:miter;stroke:#000;stroke-opacity:1;stroke-miterlimit:10" d="M433.868-.002h9.617" transform="matrix(1 0 0 -1 -19.29 51.803)"/><path style="fill:none;stroke-width:.3985;stroke-linecap:round;stroke-linejoin:round;stroke:#000;stroke-opacity:1;stroke-miterlimit:10" d="M-2.072 2.393C-1.692.955-.849.28-.002-.002c-.847-.277-1.69-.953-2.07-2.39" transform="matrix(1 0 0 -1 424.396 51.803)"/><path style="fill:none;stroke-width:.3985;stroke-linecap:butt;stroke-linejoin:miter;stroke:#000;stroke-opacity:1;stroke-miterlimit:10" d="m150.74-.517-4.509 13.879" transform="matrix(1 0 0 -1 -19.29 51.803)"/><path style="fill:none;stroke-width:.3985;stroke-linecap:round;stroke-linejoin:round;stroke:#000;stroke-opacity:1;stroke-miterlimit:10" d="M-2.073 2.39C-1.693.958-.85.28 0 0c-.85-.278-1.695-.957-2.07-2.391" transform="scale(-1 1) rotate(-72 -37.116 106.443)"/><path style="fill:none;stroke-width:.3985;stroke-linecap:butt;stroke-linejoin:miter;stroke:#000;stroke-opacity:1;stroke-miterlimit:10" d="m235.782-.517-4.512 13.879" transform="matrix(1 0 0 -1 -19.29 51.803)"/><path style="fill:none;stroke-width:.3985;stroke-linecap:round;stroke-linejoin:round;stroke:#000;stroke-opacity:1;stroke-miterlimit:10" d="M-2.073 2.392C-1.694.955-.85.278.001.002-.851-.282-1.694-.956-2.07-2.39" transform="scale(-1 1) rotate(-72 -79.637 164.968)"/><path style="fill:none;stroke-width:.3985;stroke-linecap:butt;stroke-linejoin:miter;stroke:#000;stroke-opacity:1;stroke-miterlimit:10" d="m150.134 28.03 11.804 8.578" transform="matrix(1 0 0 -1 -19.29 51.803)"/><path style="fill:none;stroke-width:.3985;stroke-linecap:round;stroke-linejoin:round;stroke:#000;stroke-opacity:1;stroke-miterlimit:10" d="M-2.071 2.39C-1.693.958-.85.278.002 0c-.85-.28-1.694-.955-2.074-2.389" transform="scale(.99998 -.99998) rotate(36 94.613 212.226)"/><path style="fill:none;stroke-width:.3985;stroke-linecap:butt;stroke-linejoin:miter;stroke:#000;stroke-opacity:1;stroke-miterlimit:10" d="m235.173 28.03 11.808 8.578" transform="matrix(1 0 0 -1 -19.29 51.803)"/><path style="fill:none;stroke-width:.3985;stroke-linecap:round;stroke-linejoin:round;stroke:#000;stroke-opacity:1;stroke-miterlimit:10" d="M-2.072 2.392C-1.694.958-.852.278 0 .002-.85-.278-1.693-.955-2.07-2.39" transform="scale(.99998 -.99998) rotate(36 137.134 343.09)"/><path style="fill:none;stroke-width:.3985;stroke-linecap:butt;stroke-linejoin:miter;stroke:#000;stroke-opacity:1;stroke-miterlimit:10" d="m177.095 37.424 11.804-8.578" transform="matrix(1 0 0 -1 -19.29 51.803)"/><path style="fill:none;stroke-width:.3985;stroke-linecap:round;stroke-linejoin:round;stroke:#000;stroke-opacity:1;stroke-miterlimit:10" d="M-2.071 2.39C-1.691.956-.851.278-.001-.002c-.851-.276-1.691-.954-2.073-2.39" transform="matrix(.809 .58778 .58778 -.809 169.771 23.073)"/><path style="fill:none;stroke-width:.3985;stroke-linecap:butt;stroke-linejoin:miter;stroke:#000;stroke-opacity:1;stroke-miterlimit:10" d="m262.134 37.424 11.808-8.578" transform="matrix(1 0 0 -1 -19.29 51.803)"/><path style="fill:none;stroke-width:.3985;stroke-linecap:round;stroke-linejoin:round;stroke:#000;stroke-opacity:1;stroke-miterlimit:10" d="M-2.072 2.389C-1.692.956-.85.279.002-.001-.85-.277-1.694-.957-2.072-2.39" transform="matrix(.809 .58778 .58778 -.809 254.812 23.073)"/><path style="fill:none;stroke-width:.3985;stroke-linecap:butt;stroke-linejoin:miter;stroke:#000;stroke-opacity:1;stroke-miterlimit:10" d="M194.36 14.69 189.852.81" transform="matrix(1 0 0 -1 -19.29 51.803)"/><path style="fill:none;stroke-width:.3985;stroke-linecap:round;stroke-linejoin:round;stroke:#000;stroke-opacity:1;stroke-miterlimit:10" d="M-2.073 2.39C-1.693.957-.85.278 0 0c-.85-.28-1.693-.957-2.073-2.39" transform="scale(-1 1) rotate(72 -120.474 -91.747)"/><path style="fill:none;stroke-width:.3985;stroke-linecap:butt;stroke-linejoin:miter;stroke:#000;stroke-opacity:1;stroke-miterlimit:10" d="M279.403 14.69 274.892.81" transform="matrix(1 0 0 -1 -19.29 51.803)"/><path style="fill:none;stroke-width:.3985;stroke-linecap:round;stroke-linejoin:round;stroke:#000;stroke-opacity:1;stroke-miterlimit:10" d="M-2.074 2.392C-1.694.955-.85.28.002 0-.85-.278-1.693-.955-2.072-2.392" transform="scale(-1 1) rotate(72 -162.995 -150.271)"/><path style="fill:none;stroke-width:.3985;stroke-linecap:butt;stroke-linejoin:miter;stroke:#000;stroke-opacity:1;stroke-miterlimit:10" d="M178.075-8.76h-14.594" transform="matrix(1 0 0 -1 -19.29 51.803)"/><path style="fill:none;stroke-width:.3985;stroke-linecap:round;stroke-linejoin:round;stroke:#000;stroke-opacity:1;stroke-miterlimit:10" d="M-2.074 2.39C-1.695.957-.851.277 0 0-.85-.278-1.695-.957-2.074-2.39" transform="matrix(-1 0 0 1 143.992 60.563)"/><path style="fill:none;stroke-width:.3985;stroke-linecap:butt;stroke-linejoin:miter;stroke:#000;stroke-opacity:1;stroke-miterlimit:10" d="M263.114-8.76H248.52" transform="matrix(1 0 0 -1 -19.29 51.803)"/><path style="fill:none;stroke-width:.3985;stroke-linecap:round;stroke-linejoin:round;stroke:#000;stroke-opacity:1;stroke-miterlimit:10" d="M-2.073 2.39C-1.693.957-.85.277.001 0-.85-.278-1.694-.957-2.073-2.39" transform="matrix(-1 0 0 1 229.033 60.563)"/><path style="fill:none;stroke-width:.3985;stroke-linecap:butt;stroke-linejoin:miter;stroke:#000;stroke-opacity:1;stroke-miterlimit:10" d="m156.099-.517 10.87 33.468" transform="matrix(1 0 0 -1 -19.29 51.803)"/><path style="fill:none;stroke-width:.3985;stroke-linecap:round;stroke-linejoin:round;stroke:#000;stroke-opacity:1;stroke-miterlimit:10" d="M-2.072 2.392C-1.692.959-.852.279-.002 0c-.849-.28-1.693-.957-2.07-2.39" transform="matrix(.309 -.95105 -.95105 -.309 147.743 18.663)"/><path style="fill:none;stroke-width:.3985;stroke-linecap:butt;stroke-linejoin:miter;stroke:#000;stroke-opacity:1;stroke-miterlimit:10" d="m241.138-.517 10.875 33.468" transform="matrix(1 0 0 -1 -19.29 51.803)"/><path style="fill:none;stroke-width:.3985;stroke-linecap:round;stroke-linejoin:round;stroke:#000;stroke-opacity:1;stroke-miterlimit:10" d="M-2.071 2.39C-1.691.956-.851.28-.001-.002c-.85-.276-1.694-.953-2.07-2.39" transform="matrix(.309 -.95105 -.95105 -.309 232.784 18.663)"/><path style="fill:none;stroke-width:.3985;stroke-linecap:butt;stroke-linejoin:miter;stroke:#000;stroke-opacity:1;stroke-miterlimit:10" d="M151.79 22.932h35.188" transform="matrix(1 0 0 -1 -19.29 51.803)"/><path style="fill:none;stroke-width:.3985;stroke-linecap:round;stroke-linejoin:round;stroke:#000;stroke-opacity:1;stroke-miterlimit:10" d="M-2.071 2.39C-1.692.955-.848.28-.001-.002c-.847-.278-1.691-.957-2.07-2.39" transform="matrix(1 0 0 -1 167.887 28.87)"/><path style="fill:none;stroke-width:.3985;stroke-linecap:butt;stroke-linejoin:miter;stroke:#000;stroke-opacity:1;stroke-miterlimit:10" d="M236.83 22.932h35.19" transform="matrix(1 0 0 -1 -19.29 51.803)"/><path style="fill:none;stroke-width:.3985;stroke-linecap:round;stroke-linejoin:round;stroke:#000;stroke-opacity:1;stroke-miterlimit:10" d="M-2.072 2.39C-1.694.955-.85.28.002-.002-.85-.28-1.694-.958-2.072-2.391" transform="matrix(1 0 0 -1 252.928 28.87)"/><path style="fill:none;stroke-width:.3985;stroke-linecap:butt;stroke-linejoin:miter;stroke:#000;stroke-opacity:1;stroke-miterlimit:10" d="M172.759 34.276 183.634.81" transform="matrix(1 0 0 -1 -19.29 51.803)"/><path style="fill:none;stroke-width:.3985;stroke-linecap:round;stroke-linejoin:round;stroke:#000;stroke-opacity:1;stroke-miterlimit:10" d="M-2.072 2.392C-1.692.958-.85.277.002 0c-.85-.278-1.695-.957-2.075-2.39" transform="matrix(.309 .95105 .95105 -.309 164.405 51.182)"/><path style="fill:none;stroke-width:.3985;stroke-linecap:butt;stroke-linejoin:miter;stroke:#000;stroke-opacity:1;stroke-miterlimit:10" d="M257.798 34.276 268.673.81" transform="matrix(1 0 0 -1 -19.29 51.803)"/><path style="fill:none;stroke-width:.3985;stroke-linecap:round;stroke-linejoin:round;stroke:#000;stroke-opacity:1;stroke-miterlimit:10" d="M-2.073 2.39C-1.693.956-.848.28.001 0c-.85-.279-1.695-.957-2.074-2.39" transform="matrix(.309 .95105 .95105 -.309 249.445 51.182)"/><path style="fill:none;stroke-width:.3985;stroke-linecap:butt;stroke-linejoin:miter;stroke:#000;stroke-opacity:1;stroke-miterlimit:10" d="M190.028 17.838 161.56-2.845" transform="matrix(1 0 0 -1 -19.29 51.803)"/><path style="fill:none;stroke-width:.3985;stroke-linecap:round;stroke-linejoin:round;stroke:#000;stroke-opacity:1;stroke-miterlimit:10" d="M-2.074 2.39C-1.693.956-.85.28 0 0-.85-.28-1.695-.955-2.07-2.39" transform="scale(-1 1) rotate(35.999 -155.333 -191.306)"/><path style="fill:none;stroke-width:.3985;stroke-linecap:butt;stroke-linejoin:miter;stroke:#000;stroke-opacity:1;stroke-miterlimit:10" d="M275.067 17.838 246.6-2.845" transform="matrix(1 0 0 -1 -19.29 51.803)"/><path style="fill:none;stroke-width:.3985;stroke-linecap:round;stroke-linejoin:round;stroke:#000;stroke-opacity:1;stroke-miterlimit:10" d="M-2.073 2.39C-1.695.956-.849.28.001 0-.85-.28-1.694-.956-2.074-2.39" transform="scale(-1 1) rotate(35.999 -197.853 -322.174)"/><path style="fill:none;stroke-width:.3985;stroke-linecap:butt;stroke-linejoin:miter;stroke:#000;stroke-opacity:1;stroke-miterlimit:10" d="m179.731-3.666-28.468 20.684" transform="matrix(1 0 0 -1 -19.29 51.803)"/><path style="fill:none;stroke-width:.3985;stroke-linecap:round;stroke-linejoin:round;stroke:#000;stroke-opacity:1;stroke-miterlimit:10" d="M-2.073 2.391C-1.693.958-.85.276-.002 0-.852-.28-1.694-.955-2.07-2.39" transform="scale(-1 1) rotate(-35.999 -12.557 220.176)"/><path style="fill:none;stroke-width:.3985;stroke-linecap:butt;stroke-linejoin:miter;stroke:#000;stroke-opacity:1;stroke-miterlimit:10" d="m264.77-3.666-28.468 20.684" transform="matrix(1 0 0 -1 -19.29 51.803)"/><path style="fill:none;stroke-width:.3985;stroke-linecap:round;stroke-linejoin:round;stroke:#000;stroke-opacity:1;stroke-miterlimit:10" d="M-2.072 2.392C-1.695.957-.849.277 0 0c-.85-.279-1.695-.956-2.07-2.393" transform="scale(-1 1) rotate(-35.999 -55.077 351.043)"/><g clip-path="url(#m)"><path style="fill:none;stroke-width:.3985;stroke-linecap:butt;stroke-linejoin:miter;stroke:#000;stroke-opacity:1;stroke-miterlimit:10" d="M92.548-4.334c40.668-23.48 117.84-18.824 137.18-9.406" transform="matrix(1 0 0 -1 -19.29 51.803)"/></g><path style="fill:none;stroke-width:.3985;stroke-linecap:round;stroke-linejoin:round;stroke:#000;stroke-opacity:1;stroke-miterlimit:10" d="M-2.072 2.389C-1.692.955-.85.277.001.002c-.85-.283-1.693-.958-2.074-2.395" transform="matrix(.89117 -.4536 -.4536 -.89117 210.613 65.459)"/><path style="fill:none;stroke-width:.3985;stroke-linecap:butt;stroke-linejoin:miter;stroke:#000;stroke-opacity:1;stroke-miterlimit:10" d="m280.25-6.908 21.735 4.758" transform="matrix(1 0 0 -1 -19.29 51.803)"/><path style="fill:none;stroke-width:.3985;stroke-linecap:round;stroke-linejoin:round;stroke:#000;stroke-opacity:1;stroke-miterlimit:10" d="M-2.072 2.39C-1.694.956-.85.28.001.001-.85-.28-1.692-.956-2.071-2.393" transform="matrix(.97684 -.21376 -.21376 -.97684 282.89 53.911)"/></svg>