<svg xmlns="http://www.w3.org/2000/svg" width="66.296" height="41.019" viewBox="0 0 49.722 30.764" version="1.2"><defs><clipPath id="a"><path d="M0 0h49.582v30.645H0Zm0 0"/></clipPath></defs><path style="stroke:none;fill-rule:evenodd;fill:red;fill-opacity:1" d="M29.219 15.273c0-7.828-6.348-14.175-14.176-14.175S.871 7.445.871 15.273c0 7.829 6.344 14.172 14.172 14.172s14.176-6.343 14.176-14.172Zm14.172 0c0-7.828-6.348-14.175-14.172-14.175-7.828 0-14.176 6.347-14.176 14.175 0 7.829 6.348 14.172 14.176 14.172 7.824 0 14.172-6.343 14.172-14.172Zm0 0"/><g clip-path="url(#a)"><path style="fill:none;stroke-width:.3985;stroke-linecap:butt;stroke-linejoin:miter;stroke:#000;stroke-opacity:1;stroke-miterlimit:10" d="M14.174-.001c0 7.828-6.347 14.175-14.176 14.175-7.828 0-14.171-6.347-14.171-14.175 0-7.829 6.343-14.172 14.171-14.172 7.829 0 14.176 6.343 14.176 14.172Zm14.172 0c0 7.828-6.344 14.175-14.172 14.175S-.002 7.827-.002 0c0-7.829 6.348-14.172 14.176-14.172S28.346-7.83 28.346-.001Zm0 0" transform="matrix(1 0 0 -1 20.025 15.272)"/></g></svg>