<svg xmlns="http://www.w3.org/2000/svg" xmlns:xlink="http://www.w3.org/1999/xlink" width="118.731" height="78.643" viewBox="0 0 89.048 58.982" version="1.2"><defs><symbol overflow="visible" id="a"><path style="stroke:none" d="M4.781-3.734A2.106 2.106 0 0 0 2.5-5.172l-1.469.156C.61-4.984 0-5.125-.203-5.703c-.14-.422-.063-1.078.875-1.39.75-.25 1.828-.266 2.469.952.109.235.125.25.312.188.235-.078.219-.125.14-.344L3.017-8.03c-.063-.172-.094-.266-.266-.219-.078.031-.063.047-.156.156l-.281.563C1.625-7.766.968-7.656.53-7.5-.906-7.031-1.28-5.875-.953-4.89c.203.609.656.937.922 1.077.64.313.953.282 2.078.141.89-.062 1.047-.11 1.344.031.156.079.484.266.625.688.156.453.14 1.187-.844 1.515-.719.235-2.219.532-2.766-.843C.328-2.453.312-2.5.11-2.437c-.218.078-.203.124-.125.359L.563-.36c.046.171.078.265.234.218.094-.03.11-.062.156-.156L1.25-.89c.781.266 1.672.032 2.063-.093 1.562-.516 1.78-1.797 1.468-2.75Zm0 0"/></symbol><symbol overflow="visible" id="b"><path style="stroke:none" d="M4.438-3.766c-.422-1.265-1.61-1.937-3.141-1.421-1.563.515-2.11 1.765-1.688 3.03C0-.983 1.156-.311 2.734-.843c1.579-.531 2.094-1.765 1.704-2.922Zm-1.25.297c.265.828.609 1.844-.579 2.235-1.203.406-1.546-.61-1.812-1.438-.14-.422-.297-.89-.25-1.281.062-.422.39-.735.86-.89.39-.126.843-.126 1.155.14.297.266.47.781.626 1.234Zm0 0"/></symbol><symbol overflow="visible" id="c"><path style="stroke:none" d="m8.844-2.953-.14-.438-.642.22-.828-2.454c-.328-.984-.953-1.188-1.921-.875-.86.297-1.204.922-1.297 1.453-.47-.828-1.36-.562-1.72-.437C1.47-5.22 1.079-4.61.97-3.922L.625-4.937l-1.578.609.14.453c.579-.203.641-.219.766.156L.938-.797l-.641.219.14.437 1.157-.421 1.203-.375-.14-.438-.641.219-.672-1.985a1.506 1.506 0 0 1 .937-1.953c.313-.11.578.016.813.735l.86 2.562-.657.219.14.437 1.188-.437 1.203-.36-.14-.437-.657.219-.672-1.985a1.5 1.5 0 0 1 .922-1.953c.328-.11.594 0 .828.719l.86 2.563-.64.218.14.438 1.172-.422Zm0 0"/></symbol><symbol overflow="visible" id="d"><path style="stroke:none" d="M4.297-2.672c-.047-.172-.234-.11-.266-.094-.172.063-.172.11-.187.282-.031.515-.485 1-1.094 1.203C1.422-.844.984-2.094.828-2.563l2.86-.953c.203-.078.296-.109.218-.359-.11-.297-.406-.969-1.031-1.281-.453-.235-1-.219-1.656 0-1.516.5-2.032 1.75-1.64 2.922C.015-.954 1.265-.36 2.78-.86c1.5-.5 1.578-1.657 1.516-1.813ZM2.984-3.64.72-2.875c-.11-.39-.219-.781-.14-1.156.124-.453.484-.703.75-.782 1.109-.375 1.53.86 1.655 1.172Zm0 0"/></symbol><symbol overflow="visible" id="e"><path style="stroke:none" d="m2.766-.922-.141-.437-.64.218-2.048-6.125-1.671.625.156.454c.594-.204.656-.22.781.156L.953-.797l-.656.219.14.437 1.141-.421Zm0 0"/></symbol><symbol overflow="visible" id="f"><path style="stroke:none" d="m5.813-1.938-.141-.437-.656.219-.829-2.453c-.328-1-.953-1.188-1.906-.875-.906.296-1.219 1-1.312 1.562L.625-4.937l-1.578.609.14.453c.579-.203.641-.219.766.156L.938-.797l-.641.219.14.437 1.157-.421 1.203-.375-.14-.438-.641.219-.672-1.985C1-4.17 1.672-4.89 2.28-5.094c.313-.11.578.016.813.735l.86 2.562-.657.219.14.437 1.172-.437Zm0 0"/></symbol><symbol overflow="visible" id="g"><path style="stroke:none" d="M4.031-5.516a.599.599 0 0 0-.781-.343 1.764 1.764 0 0 0-.89.703c-.204-.078-.672-.125-1.36.093-1.375.47-1.64 1.375-1.422 2.032.125.39.453.719.813.812a1.474 1.474 0 0 0-.032.969c.047.14.235.578.704.75C.969-.422.343.031.53.625c.156.469.922.984 2.813.36 1.672-.563 2.234-1.344 2.015-2-.093-.282-.375-.86-1.109-.97-.625-.093-1.188.094-2.094.391-.25.094-.687.235-.734.235-.438.078-.672-.25-.734-.422a.52.52 0 0 1 .015-.344c.485.078.985-.047 1.235-.14 1.359-.454 1.625-1.36 1.406-2.032a1.3 1.3 0 0 0-.688-.766c.235-.234.438-.328.531-.375-.015.047.016.141.032.204.078.234.297.343.547.265a.424.424 0 0 0 .265-.547ZM2.297-3.937c.14.421.36 1.062-.469 1.328C1-2.33.781-2.97.641-3.391.5-3.812.297-4.437 1.125-4.719c.828-.265 1.031.36 1.172.782ZM4.547-.72c.11.328-.094.969-1.313 1.375-1.125.375-1.75.094-1.89-.328-.188-.578.406-.766.547-.812L3-.86c.297-.094 1.36-.454 1.547.14Zm0 0"/></symbol><symbol overflow="visible" id="h"><path style="stroke:none" d="m3.219-2.375-.172-.5-.438.14.172.485c.203.64-.031.969-.297 1.063-.546.171-.75-.438-.812-.641l-.875-2.61 1.39-.453-.14-.437-1.39.453-.61-1.813-.453.157c.312.953.172 2.031-.766 2.375l.11.343.796-.265.86 2.594c.344 1.015 1.219.953 1.89.718.72-.234.97-.921.735-1.609Zm0 0"/></symbol><symbol overflow="visible" id="i"><path style="stroke:none" d="m5.531-1.844-.14-.437-.672.219L2.5-3.423l.688-1.594c.078-.171.124-.25.906-.515l-.14-.438-.876.313-.969.297.141.437c.125-.031.25-.062.39-.031-.015.062-.015.078-.046.125l-.485 1.156-1.296-.765.39-.125L1.063-5l-1.157.39-1.047.344.141.438.688-.235 2.046 1.25-.78 1.797C.874-.78.53-.656.062-.5l.14.438.86-.329.984-.296-.14-.438c-.173.063-.36.078-.391.016 0 0 0-.016.03-.125l.579-1.329 1.453.891-.375.125.14.438 1.126-.422Zm0 0"/></symbol><symbol overflow="visible" id="j"><path style="stroke:none" d="M5.156-1.969c-.062-.218-.187-.172-.312-.125-.594.172-.625.047-.703-.172l-.672-2.03c-.281-.845-1.156-1.235-2.563-.766-.531.187-1.672.609-1.406 1.437.14.406.531.484.781.406a.615.615 0 0 0 .39-.797.666.666 0 0 0-.374-.406c.266-.125.562-.234.672-.281.719-.234 1.172.047 1.422.766l.109.328c-.672.25-3.047 1.14-2.594 2.515.297.89 1.532.688 2.188.469.75-.25 1.078-.797 1.156-1.25.094.281.234.719 1.219.39l.453-.156c.187-.062.312-.109.234-.328Zm-2.265-.453c.296.906-.532 1.328-.766 1.406-.484.157-.969-.046-1.11-.468C.673-2.5 2.142-3.125 2.595-3.313Zm0 0"/></symbol><symbol overflow="visible" id="k"><path style="stroke:none" d="M-2.61-5.219c-1.328.11-2.25 1.11-2.124 2.735.14 1.625 1.218 2.453 2.53 2.343C-.968-.234-.03-1.203-.171-2.844-.297-4.516-1.39-5.313-2.609-5.219Zm0 1.297C-1.75-4-.671-4.078-.577-2.812c.11 1.25-.969 1.328-1.828 1.406-.438.031-.938.078-1.297-.078-.39-.157-.625-.563-.672-1.032-.031-.421.094-.859.422-1.093.328-.235.875-.282 1.344-.313Zm0 0"/></symbol><symbol overflow="visible" id="l"><path style="stroke:none" d="m-2.297-5.672-.437.172.265.625-2.39.969c-.97.39-1.141 1.047-.766 1.969.36.89 1.078 1.156 1.656 1.218l-1 .406.719 1.547.422-.187c-.219-.563-.25-.64.125-.781L-.86-.891l.25.641.437-.172-.5-1.14-.437-1.172-.438.171.266.641-1.922.781C-4.22-.734-5-1.344-5.234-1.937c-.125-.313-.016-.594.703-.875l2.484-1.016.25.64.438-.171-.5-1.141Zm0 0"/></symbol><symbol overflow="visible" id="m"><path style="stroke:none" d="M-6.5-2.078c-.188.14-.36.484-.078.844.094.125.39.484.922.609.015.219.093.688.531 1.266.86 1.156 1.813 1.125 2.36.718.328-.25.562-.64.546-1.046.453.015.75-.141.922-.266.125-.094.484-.406.5-.906.094.078.703.53 1.203.156C.812-1 1.062-1.906-.125-3.5c-1.047-1.406-1.969-1.688-2.531-1.266-.235.188-.688.625-.578 1.36.125.625.484 1.11 1.046 1.86.172.218.438.577.454.624.218.406-.032.719-.172.828a.633.633 0 0 1-.328.11c-.079-.5-.36-.938-.516-1.141-.86-1.14-1.813-1.11-2.39-.688-.376.282-.47.672-.5.891-.313-.156-.454-.312-.532-.39.047 0 .14-.047.188-.079A.415.415 0 0 0-5.906-2a.411.411 0 0 0-.594-.078Zm2.031 1.156c.375-.281.907-.687 1.422 0 .531.703 0 1.11-.375 1.39-.344.25-.875.657-1.406-.046-.516-.688.016-1.094.36-1.344Zm2.344-3.172c.297-.218.953-.218 1.719.813.719.953.656 1.625.297 1.906-.5.36-.875-.14-.954-.25l-.703-.938c-.187-.25-.859-1.156-.359-1.53Zm0 0"/></symbol><symbol overflow="visible" id="n"><path style="stroke:none" d="M-4.61-3.047c-.14.188-.03.266.079.344.484.375.406.484.265.672l-1.25 1.734c-.515.719-.328 1.64.875 2.516.454.328 1.47 1.015 1.985.297.265-.344.094-.704-.11-.86-.265-.187-.656-.203-.89.125a.68.68 0 0 0-.11.547c-.25-.125-.53-.312-.625-.375C-5 1.516-5.03.97-4.594.36l.203-.28c.594.39 2.704 1.796 3.547.64.547-.781-.344-1.64-.89-2.047-.657-.469-1.266-.422-1.688-.203.188-.266.453-.625-.406-1.235l-.375-.28c-.156-.11-.266-.188-.406 0Zm.954 2.11c.562-.782 1.39-.344 1.594-.204.406.297.515.813.25 1.188-.625.86-1.97.047-2.391-.219Zm0 0"/></symbol><symbol overflow="visible" id="o"><path style="stroke:none" d="M-5.516 1.578c-.218.484.157.938.641 1.156.64.282 1.203 0 1.656-.484l-.453 1.016 1.547.609.188-.438c-.563-.25-.625-.28-.47-.624l1.25-2.829.626.282.187-.422L-1.5-.625a30.667 30.667 0 0 1-1.25-.594l-.188.422.797.344-.718 1.61c-.266.624-.985 1.64-1.891 1.234 0 0 .234-.079.36-.329a.6.6 0 0 0-.313-.796c-.281-.125-.656-.063-.813.312Zm0 0"/></symbol><symbol overflow="visible" id="p"><path style="stroke:none" d="m-2.688-.953-.156.437.578.204-1.328 3.796 1.656.5.157-.437c-.563-.188-.625-.219-.485-.594L-1.25.047l.656.234.156-.437-1.171-.375Zm-1.562 5.86c-.14.405.063.859.484 1 .391.14.844-.063.985-.47a.785.785 0 0 0-.469-.984c-.422-.14-.86.063-1 .453Zm0 0"/></symbol><symbol overflow="visible" id="q"><path style="stroke:none" d="m-5.797-1.484-.11.453c.595.14.673.172.563.547l-1.5 5.875 1.719.359.125-.453c-.61-.156-.672-.172-.578-.547l.484-1.89c.39.5.875.687 1.203.765 1.407.36 2.641-.219 2.985-1.578C-.578.766-1.234-.391-2.656-.75a2.333 2.333 0 0 0-1.5.125l.125-.469Zm1.5 1.453c.188-.157.703-.594 1.438-.406 1.171.312.875 1.484.703 2.171-.125.47-.25.985-.578 1.297-.407.328-.891.297-1.188.219-.547-.125-.86-.547-1-.875Zm0 0"/></symbol><symbol overflow="visible" id="r"><path style="stroke:none" d="m-2.797-.484-.078.468.594.11-.672 3.953 1.703.219.078-.47c-.578-.108-.64-.108-.562-.483L-1.22.28l.672.11.078-.47-1.187-.171Zm-.562 6.03a.787.787 0 0 0 .625.923.817.817 0 0 0 .921-.657.783.783 0 0 0-.656-.875c-.422-.078-.828.204-.89.61Zm0 0"/></symbol><symbol overflow="visible" id="s"><path style="stroke:none" d="M-4.86.688c-.015.14.126.156.22.156.171.031.187 0 .25-.125.327-.594.827-.735 1.327-.688 1.391.14 1.235 1.578 1.188 2.047-.047.563-.188 1.844-1.469 1.719A6.75 6.75 0 0 1-4 3.687c.219-.156.25-.359.266-.453a.616.616 0 0 0-.547-.687c-.313-.031-.657.156-.688.562-.093.86 1.047 1.016 1.625 1.079 1.781.187 2.625-.86 2.75-2.016C-.469.859-1.313-.203-2.828-.36-4.453-.516-4.844.609-4.86.687Zm0 0"/></symbol><symbol overflow="visible" id="t"><path style="stroke:none" d="M-6.125-.078V.39c.61.015.688.015.672.406L-5.5 4.422l1.828-.063v-.468c-.61 0-.687 0-.687-.391l.03-1.906c0-.813.532-1.344 1.25-1.328.782 0 .813.25.798.796l-.047 3.391L-.5 4.406v-.468c-.61-.016-.688-.016-.688-.407l.032-2.328C-1.141.141-1.938-.094-2.938-.094c-.25 0-.968-.015-1.437.766l.016-.781Zm0 0"/></symbol><symbol overflow="visible" id="u"><path style="stroke:none" d="m-2.922.172.031.469.688-.032.39 6.438 1.766-.188-.031-.468c-.625.03-.688.046-.703-.344l-.344-5.5L-.437.5-.47.031l-1.219.11Zm0 0"/></symbol><symbol overflow="visible" id="v"><path style="stroke:none" d="M-5.078 2.875c.187 1.328 1.234 2.188 2.844 1.969C-.61 4.625.156 3.516-.031 2.204-.188.968-1.203.093-2.844.311c-1.656.22-2.39 1.344-2.234 2.563Zm1.281-.063C-3.907 1.954-4.047.891-2.78.72c1.25-.172 1.39.89 1.5 1.75.062.437.125.937 0 1.312-.14.406-.532.656-1 .719-.422.063-.86-.047-1.125-.36-.25-.312-.328-.859-.39-1.327Zm0 0"/></symbol><symbol overflow="visible" id="w"><path style="stroke:none" d="m-5.953 1.422.11.453c.593-.14.671-.156.765.219l.844 3.531 1.718-.5-.093-.453c-.594.14-.657.156-.75-.219l-.454-1.86C-4 1.814-3.624 1.157-2.937 1c.765-.188.859.063.984.594l.797 3.297 1.734-.5-.094-.454c-.593.141-.671.157-.765-.218l-.547-2.266C-1.078.422-1.906.391-2.875.625c-.234.047-.938.219-1.188 1.094L-4.25.953Zm0 0"/></symbol><symbol overflow="visible" id="x"><path style="stroke:none" d="M-3.453 2.672c.14.422.437.656.86.812.452.141.796.094 1.546-.015.39-.078 1.031-.172 1.188.265.203.594-.672.891-.844.954-.719.25-1.156.093-1.39-.407-.063-.14-.095-.187-.282-.11-.219.063-.203.11-.125.329l.266.75c.062.172.093.266.25.219.046-.016.062-.016.359-.328.281.03.64-.016 1.016-.157.296-.093 1.734-.593 1.296-1.828a1.062 1.062 0 0 0-.64-.656c-.484-.188-.875-.125-1.656 0-.36.047-1.094.172-1.282-.39-.25-.704.61-1 .813-1.079 1-.343 1.484.266 1.734.625.094.11.156.094.266.047.234-.078.219-.125.14-.344L-.28.33C-.344.155-.375.061-.547.124c-.062.016-.078.016-.234.25l-.172.234C-1.5.453-2 .625-2.188.688c-.296.109-1.734.609-1.265 1.984Zm0 0"/></symbol><symbol overflow="visible" id="y"><path style="stroke:none" d="m-2.688 1.156.188.438.64-.266L.704 7.234l1.578-.765-.187-.438c-.563.25-.625.266-.781-.093L-.876.89-.25.625-.438.187-1.53.704Zm0 0"/></symbol><symbol overflow="visible" id="z"><path style="stroke:none" d="m-3.125 6.266.234.406c.204-.125.454-.281.672-.406l.797-.407-.234-.406s-.407.219-.453.125v-.14l-.204-2.688L.095 4.469l-.469.265.234.407L.922 4.5l1-.516-.234-.406-.547.313-3.563-2.547-.015-.532c-.047-.515-.11-1.28.515-1.625.125-.062.14-.062.234-.062-.078.078-.187.297-.015.61.156.28.469.374.766.203.234-.126.421-.422.218-.766-.234-.438-.844-.594-1.375-.297C-2.75-.75-2.969.078-2.922.719l.344 5.031c.015.125.015.203-.547.516Zm0 0"/></symbol><symbol overflow="visible" id="A"><path style="stroke:none" d="m-2.172 1.953.313.344.515-.453L2.97 6.656l1.265-1.25-.312-.343c-.469.421-.516.453-.781.156l-3.688-4.11.516-.453-.313-.344-.89.829Zm0 0"/></symbol><symbol overflow="visible" id="B"><path style="stroke:none" d="M-1.781 5.563c1.031.843 2.406.765 3.437-.485 1.047-1.266.844-2.61-.187-3.453-.953-.797-2.282-.75-3.344.531-1.063 1.281-.844 2.625.094 3.406Zm.906-.938c-.656-.547-1.484-1.234-.688-2.203.813-.969 1.641-.281 2.297.265.36.297.735.61.891.954.172.375.063.843-.25 1.218-.266.329-.656.547-1.063.485-.39-.063-.812-.407-1.187-.719Zm0 0"/></symbol><symbol overflow="visible" id="C"><path style="stroke:none" d="m-2.64 5.531.421.203.297-.625L.406 6.22c.938.453 1.531.14 1.953-.75.422-.86.125-1.594-.203-2.047l.969.469.656-1.579-.422-.203c-.265.547-.296.625-.64.454L-.062 1.234.233.61-.187.406l-.516 1.14-.563 1.126.422.203.297-.625 1.875.89c.984.47 1.047 1.454.766 2.032-.14.297-.422.406-1.11.078l-2.421-1.156.296-.625-.421-.203-.5 1.156Zm0 0"/></symbol><symbol overflow="visible" id="D"><path style="stroke:none" d="M3.078 6.078a.574.574 0 0 0 .672-.516c.031-.156.063-.625-.219-1.125.156-.14.422-.515.531-1.25.204-1.421-.484-2.078-1.156-2.171-.406-.063-.86.046-1.11.343-.327-.343-.64-.453-.843-.484-.156-.016-.625-.047-1 .297C-.062 1.047-.172.297-.78.203c-.5-.078-1.328.36-1.625 2.328-.266 1.75.203 2.61.906 2.703.281.047.906.063 1.36-.546.343-.516.437-1.094.578-2.047.03-.266.109-.704.124-.75a.626.626 0 0 1 .704-.47c.093.016.25.079.312.157-.297.422-.406.922-.437 1.172-.22 1.422.468 2.078 1.171 2.188.47.062.813-.141 1-.266.11.312.094.531.094.64a.785.785 0 0 0-.203-.078c-.25-.03-.422.11-.469.36-.03.25.11.453.344.484Zm-.594-2.234c-.453-.078-1.109-.172-.984-1.047.125-.86.781-.766 1.234-.688.438.063 1.094.157.97 1.016-.126.875-.782.781-1.22.719Zm-3.89.547c-.36-.063-.828-.532-.64-1.813.171-1.172.702-1.594 1.155-1.531.594.094.5.719.485.86l-.172 1.155c-.047.313-.219 1.422-.828 1.329Zm0 0"/></symbol></defs><path style="fill:none;stroke-width:.19925;stroke-linecap:butt;stroke-linejoin:miter;stroke:gray;stroke-opacity:1;stroke-miterlimit:10" d="M0 0h85.04M0 28.349h85.04M0 56.684h85.04M0 .001v56.691M28.349.001v56.691M56.692.001v56.691M85.032.001v56.691" transform="matrix(1 0 0 -1 2.433 57.774)"/><use xlink:href="#a" x="2.433" y="57.774" style="fill:#000;fill-opacity:1"/><use xlink:href="#b" x="8.472" y="55.761" style="fill:#000;fill-opacity:1"/><use xlink:href="#c" x="13.907" y="53.95" style="fill:#000;fill-opacity:1"/><use xlink:href="#d" x="22.961" y="50.932" style="fill:#000;fill-opacity:1"/><use xlink:href="#e" x="31.561" y="48.065" style="fill:#000;fill-opacity:1"/><use xlink:href="#b" x="34.576" y="47.06" style="fill:#000;fill-opacity:1"/><use xlink:href="#f" x="40.01" y="45.249" style="fill:#000;fill-opacity:1"/><use xlink:href="#g" x="46.049" y="43.236" style="fill:#000;fill-opacity:1"/><use xlink:href="#h" x="55.103" y="40.218" style="fill:#000;fill-opacity:1"/><use xlink:href="#d" x="59.328" y="38.81" style="fill:#000;fill-opacity:1"/><use xlink:href="#i" x="64.309" y="37.149" style="fill:#000;fill-opacity:1"/><use xlink:href="#h" x="70.045" y="35.237" style="fill:#000;fill-opacity:1"/><use xlink:href="#j" x="77.89" y="32.622" style="fill:#000;fill-opacity:1"/><use xlink:href="#e" x="83.173" y="30.861" style="fill:#000;fill-opacity:1"/><use xlink:href="#k" x="87.64" y="30.747" style="fill:#000;fill-opacity:1"/><use xlink:href="#l" x="87.204" y="24.983" style="fill:#000;fill-opacity:1"/><use xlink:href="#m" x="84.74" y="19.084" style="fill:#000;fill-opacity:1"/><use xlink:href="#n" x="78.5" y="11.869" style="fill:#000;fill-opacity:1"/><use xlink:href="#o" x="70.63" y="6.765" style="fill:#000;fill-opacity:1"/><use xlink:href="#p" x="66.298" y="4.88" style="fill:#000;fill-opacity:1"/><use xlink:href="#q" x="63.316" y="3.758" style="fill:#000;fill-opacity:1"/><use xlink:href="#r" x="57.132" y="2.24" style="fill:#000;fill-opacity:1"/><use xlink:href="#s" x="54.001" y="1.672" style="fill:#000;fill-opacity:1"/><use xlink:href="#t" x="48.933" y="1.125" style="fill:#000;fill-opacity:1"/><use xlink:href="#u" x="42.575" y="1.105" style="fill:#000;fill-opacity:1"/><use xlink:href="#v" x="39.396" y="1.255" style="fill:#000;fill-opacity:1"/><use xlink:href="#w" x="33.708" y="1.995" style="fill:#000;fill-opacity:1"/><use xlink:href="#x" x="27.523" y="3.515" style="fill:#000;fill-opacity:1"/><use xlink:href="#y" x="23.254" y="5.018" style="fill:#000;fill-opacity:1"/><use xlink:href="#z" x="20.3" y="6.216" style="fill:#000;fill-opacity:1"/><use xlink:href="#A" x="11.973" y="11.486" style="fill:#000;fill-opacity:1"/><use xlink:href="#B" x="9.528" y="13.544" style="fill:#000;fill-opacity:1"/><use xlink:href="#C" x="5.801" y="17.947" style="fill:#000;fill-opacity:1"/><use xlink:href="#D" x="3.07" y="23.743" style="fill:#000;fill-opacity:1"/></svg>