<svg xmlns="http://www.w3.org/2000/svg" width="65.24" height="16.107" viewBox="0 0 48.93 12.08" version="1.2"><defs><clipPath id="a"><path d="M0 0h48.895v11.621H0Zm0 0"/></clipPath><clipPath id="b"><path d="M0 0h11v11.621H0Zm0 0"/></clipPath><clipPath id="c"><path d="M23 0h17v11.621H23Zm0 0"/></clipPath><clipPath id="d"><path d="M38 0h10.895v11H38Zm0 0"/></clipPath></defs><g clip-path="url(#a)"><path style="fill:none;stroke-width:.3985;stroke-linecap:butt;stroke-linejoin:miter;stroke:#bfbfbf;stroke-opacity:1;stroke-miterlimit:10" d="M.002 0 14.174 5.67 28.346 0 42.52 5.669" transform="matrix(1 0 0 -1 3.174 8.411)"/></g><path style="stroke:none;fill-rule:nonzero;fill:#fff;fill-opacity:1" d="M1.18 8.41a1.994 1.994 0 0 0 3.988 0"/><g clip-path="url(#b)"><path style="fill:none;stroke-width:.3985;stroke-linecap:butt;stroke-linejoin:miter;stroke:#000;stroke-opacity:1;stroke-miterlimit:10" d="M-1.994 0h3.988m0 0a1.994 1.994 0 0 1-3.988 0 1.994 1.994 0 0 1 3.988 0Zm0 0" transform="matrix(1 0 0 -1 3.174 8.411)"/></g><path style="stroke:none;fill-rule:nonzero;fill:#fff;fill-opacity:1" d="M15.355 2.742a1.99 1.99 0 0 0 1.993 1.992 1.99 1.99 0 0 0 1.992-1.992"/><path style="fill:none;stroke-width:.3985;stroke-linecap:butt;stroke-linejoin:miter;stroke:#000;stroke-opacity:1;stroke-miterlimit:10" d="M12.181 5.669h3.985m0 0a1.99 1.99 0 0 1-1.992 1.992 1.99 1.99 0 0 1-1.993-1.992 1.99 1.99 0 0 1 1.993-1.992 1.99 1.99 0 0 1 1.992 1.992Zm0 0" transform="matrix(1 0 0 -1 3.174 8.411)"/><path style="stroke:none;fill-rule:nonzero;fill:#fff;fill-opacity:1" d="M29.527 8.41a1.993 1.993 0 0 0 3.985 0"/><g clip-path="url(#c)"><path style="fill:none;stroke-width:.3985;stroke-linecap:butt;stroke-linejoin:miter;stroke:#000;stroke-opacity:1;stroke-miterlimit:10" d="M26.353 0h3.985m0 0a1.993 1.993 0 1 1-3.983-.002 1.993 1.993 0 0 1 3.983.003Zm0 0" transform="matrix(1 0 0 -1 3.174 8.411)"/></g><path style="stroke:none;fill-rule:nonzero;fill:#fff;fill-opacity:1" d="M43.703 2.742a1.993 1.993 0 0 0 3.984 0"/><g clip-path="url(#d)"><path style="fill:none;stroke-width:.3985;stroke-linecap:butt;stroke-linejoin:miter;stroke:#000;stroke-opacity:1;stroke-miterlimit:10" d="M40.53 5.669h3.983m0 0a1.993 1.993 0 1 1-3.986-.002 1.993 1.993 0 0 1 3.986.002Zm0 0" transform="matrix(1 0 0 -1 3.174 8.411)"/></g></svg>