<svg xmlns="http://www.w3.org/2000/svg" width="134.976" height="59.667" viewBox="0 0 101.232 44.75" version="1.2"><defs><clipPath id="a"><path d="M71 0h29v30H71Zm0 0"/></clipPath><clipPath id="b"><path d="M99.84 15.066C99.84 7.238 93.492.895 85.664.895S71.492 7.238 71.492 15.066c0 7.829 6.344 14.172 14.172 14.172S99.84 22.895 99.84 15.066Zm0 0"/></clipPath></defs><path style="fill:none;stroke-width:.3985;stroke-linecap:butt;stroke-linejoin:miter;stroke:#000;stroke-opacity:1;stroke-miterlimit:10" d="M0-.001h2.102V2.1h2.097V-.002h2.102V2.1H4.199v2.097h2.102V6.3h2.097v2.097H10.5V6.3h2.098V4.198h2.101V2.1h-2.101V0h2.101V2.1h2.098V-.002h2.101V2.1h-2.101v2.097h2.101V6.3h-2.101V4.198h-2.098V6.3h-2.101v2.097H10.5V10.5h2.098v2.098h2.101v2.101h2.098v-2.101h2.101v2.101h-2.101v2.098h2.101v2.101h2.098V21h2.102v-2.102h2.097V21h-2.097v2.098h2.097v2.101h2.102v2.098h2.098v-2.098h2.101v-2.101h2.098v-2.098h-2.098v-2.102h2.098V21h2.101v-2.102h2.102V16.8h2.098v-2.102h-2.098v-2.101h2.098v2.101h2.101v-2.101h2.098v-2.098h2.101V8.397h-2.101V6.3h-2.098V4.198h-2.101V6.3h-2.098V4.198h2.098V2.1h-2.098V0h2.098V2.1h2.101V-.002h2.098V2.1h-2.098v2.097h2.098V6.3h2.101v2.097h2.098V6.3h2.102V4.198h2.097V2.1h-2.097V0h2.097V2.1h2.102V-.002h2.101" transform="matrix(1 0 0 -1 .625 43.413)"/><path style="stroke:none;fill-rule:nonzero;fill:#0f0;fill-opacity:.2" d="M50.703 34.91a4.725 4.725 0 1 0-9.449-.004 4.725 4.725 0 0 0 9.45.004ZM99.84 15.066C99.84 7.238 93.492.895 85.664.895S71.492 7.238 71.492 15.066c0 7.829 6.344 14.172 14.172 14.172S99.84 22.895 99.84 15.066Zm0 0"/><g clip-path="url(#a)"><g clip-path="url(#b)"><path style="fill:none;stroke-width:.3985;stroke-linecap:butt;stroke-linejoin:miter;stroke:#000;stroke-opacity:1;stroke-miterlimit:10" d="M0 0h2.1V2.1h2.1V0h2.099V2.1h-2.1v2.1h2.1v2.1h2.1v2.1h2.099v-2.1h2.1V4.2h2.1V2.1h-2.1V0h2.1v2.1h2.1V0h2.1V2.1h-2.1v2.1h2.1v2.1h-2.1V4.2h-2.1v2.1h-2.1v2.1H10.5v2.1h2.1v2.099h2.1v2.1h2.098v-2.1h2.1v2.1h-2.1v2.1h2.1v2.1h2.1v2.1h2.1v-2.1h2.1v2.1h-2.1v2.098h2.1v2.1h2.1v2.101h2.1v-2.1h2.098v-2.1h2.1v-2.1h-2.1v-2.1h2.1v2.1h2.1v-2.1h2.1v-2.099h2.1v-2.1h-2.1v-2.099h2.1v2.099h2.1v-2.099h2.1v-2.1h2.098v-2.1h-2.099v-2.1h-2.1V4.2h-2.099v2.1h-2.1V4.2h2.1V2.1h-2.1V0h2.1v2.1h2.1V0h2.1v2.1h-2.1v2.1h2.1v2.1h2.1v2.099h2.099v-2.1h2.1V4.2h2.1V2.1h-2.1V0h2.1v2.1h2.099V0h2.1" transform="matrix(3 0 0 -3 -50.4 40.578)"/></g></g><path style="fill:none;stroke-width:.3985;stroke-linecap:butt;stroke-linejoin:miter;stroke:#0f0;stroke-opacity:1;stroke-miterlimit:10" d="m49.582 10.616 22.781 11.395" transform="matrix(1 0 0 -1 .625 43.413)"/></svg>