<svg xmlns="http://www.w3.org/2000/svg" width="29.22" height="10.395" viewBox="0 0 21.915 7.796" version="1.2"><defs><clipPath id="a"><path d="M0 0h21.871v7.695H0Zm0 0"/></clipPath><clipPath id="b"><path d="M5 0h16.871v7.695H5Zm0 0"/></clipPath></defs><path style="fill:none;stroke-width:.79701;stroke-linecap:butt;stroke-linejoin:miter;stroke:#000;stroke-opacity:1;stroke-miterlimit:10" d="M-.002 2.211h9.383" transform="matrix(1 0 0 -1 .967 6.004)"/><path style="stroke:none;fill-rule:nonzero;fill:#000;fill-opacity:1" d="m14.164 3.793-3.617-2.184v4.364Zm0 0"/><g clip-path="url(#a)"><path style="fill:none;stroke-width:.79701;stroke-linecap:butt;stroke-linejoin:miter;stroke:#000;stroke-opacity:1;stroke-miterlimit:10" d="M4.017 0 .4 2.182V-2.18Zm0 0" transform="matrix(1 0 0 -1 10.147 3.792)"/></g><path style="stroke:none;fill-rule:nonzero;fill:#000;fill-opacity:1" d="m20.094 3.793-3.617-2.184v4.364Zm0 0"/><g clip-path="url(#b)"><path style="fill:none;stroke-width:.79701;stroke-linecap:butt;stroke-linejoin:miter;stroke:#000;stroke-opacity:1;stroke-miterlimit:10" d="M4.016 0 .4 2.182V-2.18Zm0 0" transform="matrix(1 0 0 -1 16.078 3.792)"/></g></svg>