<svg xmlns="http://www.w3.org/2000/svg" width="53.552" height="53.523" viewBox="0 0 40.164 40.142" version="1.2"><defs><clipPath id="a"><path d="M23 0h16.746v16H23Zm0 0"/></clipPath><clipPath id="b"><path d="M23 23h16.746v16.715H23Zm0 0"/></clipPath></defs><path style="fill:none;stroke-width:.3985;stroke-linecap:butt;stroke-linejoin:miter;stroke:#000;stroke-opacity:1;stroke-miterlimit:10" d="M4.696-.002a4.698 4.698 0 1 1-9.395.003 4.698 4.698 0 0 1 9.395-.003Zm0 0" transform="matrix(1 0 0 -1 5.495 5.467)"/><g clip-path="url(#a)"><path style="fill:none;stroke-width:.3985;stroke-linecap:butt;stroke-linejoin:miter;stroke:#000;stroke-opacity:1;stroke-miterlimit:10" d="M33.044-.002a4.7 4.7 0 0 1-4.695 4.7 4.698 4.698 0 1 1 4.695-4.7Zm0 0" transform="matrix(1 0 0 -1 5.495 5.467)"/></g><g clip-path="url(#b)"><path style="fill:none;stroke-width:.3985;stroke-linecap:butt;stroke-linejoin:miter;stroke:#000;stroke-opacity:1;stroke-miterlimit:10" d="M33.044-28.346a4.697 4.697 0 1 1-9.394-.003 4.697 4.697 0 0 1 9.394.003Zm0 0" transform="matrix(1 0 0 -1 5.495 5.467)"/></g><path style="fill:none;stroke-width:.3985;stroke-linecap:butt;stroke-linejoin:miter;stroke:#000;stroke-opacity:1;stroke-miterlimit:10" d="M4.896-.002h18.156" transform="matrix(1 0 0 -1 5.495 5.467)"/><path style="fill:none;stroke-width:.3985;stroke-linecap:round;stroke-linejoin:round;stroke:#000;stroke-opacity:1;stroke-miterlimit:10" d="M-2.071 2.393C-1.692.955-.85.28-.001-.002c-.848-.277-1.691-.953-2.07-2.39" transform="matrix(1 0 0 -1 28.747 5.467)"/><path style="fill:none;stroke-width:.3985;stroke-linecap:butt;stroke-linejoin:miter;stroke:#000;stroke-opacity:1;stroke-miterlimit:10" d="m3.462-3.463 21.14-21.14" transform="matrix(1 0 0 -1 5.495 5.467)"/><path style="fill:none;stroke-width:.3985;stroke-linecap:round;stroke-linejoin:round;stroke:#000;stroke-opacity:1;stroke-miterlimit:10" d="M-2.072 2.392C-1.694.958-.85.279-.001 0c-.848-.28-1.69-.956-2.071-2.392" transform="scale(1 -1) rotate(-45 -21.349 -51.608)"/></svg>