<svg xmlns="http://www.w3.org/2000/svg" xmlns:xlink="http://www.w3.org/1999/xlink" width="32.091" height="32.091" viewBox="0 0 24.068 24.068" version="1.2"><defs><clipPath id="a"><path d="M0 0h23.602v23.602H0Zm0 0"/></clipPath><symbol overflow="visible" id="b"><path style="stroke:none" d="M8.25 0v-.469h-.969L4.72-6.703c-.11-.25-.219-.25-.39-.25-.282 0-.329.078-.391.25l-2.47 6c-.062.156-.093.234-.843.234H.406V0l1.172-.031c.39 0 .938 0 1.313.031v-.469S2-.469 2-.594l.047-.125.5-1.203h2.672l.593 1.453H4.86V0c.391-.031 1.329-.031 1.766-.031.39 0 1.266 0 1.625.031ZM5.016-2.39H2.734l1.141-2.766Zm0 0"/></symbol></defs><g clip-path="url(#a)"><path style="fill:none;stroke-width:.3985;stroke-linecap:butt;stroke-linejoin:miter;stroke:#000;stroke-opacity:1;stroke-miterlimit:10" d="M5.697-9.197A10.821 10.821 0 0 1 10.817 0c0 5.976-4.843 10.82-10.816 10.82-5.976 0-10.82-4.844-10.82-10.82 0-5.973 4.844-10.817 10.82-10.817h10.817v1.621Zm0 0" transform="matrix(1 0 0 -1 11.569 11.569)"/></g><use xlink:href="#b" x="7.24" y="15.046" style="fill:#000;fill-opacity:1"/></svg>