<svg xmlns="http://www.w3.org/2000/svg" xmlns:xlink="http://www.w3.org/1999/xlink" width="317.835" height="142.131" viewBox="0 0 238.376 106.598" version="1.2"><defs><symbol overflow="visible" id="a"><path style="stroke:none" d="M3.89-2.547c0-.844-.078-1.36-.343-1.875-.344-.703-1-.875-1.438-.875-1 0-1.375.75-1.484.969C.344-3.75.328-2.953.328-2.547c0 .531.016 1.328.406 1.969.36.594.954.75 1.375.75.391 0 1.063-.125 1.47-.906.296-.579.312-1.297.312-1.813ZM2.11-.062c-.266 0-.813-.126-.985-.954-.094-.453-.094-1.203-.094-1.625 0-.546 0-1.109.094-1.546.172-.813.781-.891.984-.891.266 0 .829.14.985.86.094.437.094 1.046.094 1.577 0 .47 0 1.188-.094 1.641-.172.828-.719.938-.985.938Zm0 0"/></symbol><symbol overflow="visible" id="c"><path style="stroke:none" d="M2.5-5.078c0-.219-.016-.219-.234-.219-.329.313-.75.5-1.5.5v.266c.218 0 .64 0 1.109-.203v4.078c0 .297-.031.39-.781.39H.812V0c.329-.031 1.016-.031 1.375-.031.36 0 1.047 0 1.376.031v-.266H3.28c-.75 0-.781-.093-.781-.39Zm0 0"/></symbol><symbol overflow="visible" id="d"><path style="stroke:none" d="M2.25-1.625c.125-.125.453-.39.594-.5.484-.453.953-.89.953-1.61 0-.953-.797-1.562-1.781-1.562-.97 0-1.594.719-1.594 1.438 0 .39.312.437.422.437.172 0 .422-.11.422-.422 0-.406-.407-.406-.5-.406.234-.594.765-.781 1.156-.781.734 0 1.125.625 1.125 1.297 0 .828-.578 1.437-1.531 2.39l-1 1.047C.422-.219.422-.203.422 0h3.14l.235-1.422h-.25c-.016.156-.078.547-.172.703-.047.063-.656.063-.781.063H1.172Zm0 0"/></symbol><symbol overflow="visible" id="e"><path style="stroke:none" d="M2.016-2.656c.625 0 1.03.453 1.03 1.297 0 1-.562 1.28-.983 1.28-.438 0-1.047-.155-1.329-.577.297 0 .5-.188.5-.438 0-.265-.187-.437-.453-.437-.203 0-.437.125-.437.453 0 .75.812 1.25 1.734 1.25 1.047 0 1.797-.734 1.797-1.531 0-.672-.531-1.266-1.344-1.454.625-.218 1.11-.75 1.11-1.39 0-.64-.72-1.094-1.547-1.094-.86 0-1.5.453-1.5 1.063 0 .296.187.421.406.421.25 0 .406-.171.406-.406 0-.297-.265-.406-.437-.406.344-.438.953-.469 1.094-.469.203 0 .812.063.812.89 0 .548-.234.891-.344 1.016-.234.25-.422.266-.906.297-.156 0-.219.016-.219.125 0 .11.078.11.219.11Zm0 0"/></symbol><symbol overflow="visible" id="f"><path style="stroke:none" d="M3.14-5.156c0-.157 0-.219-.171-.219-.094 0-.11 0-.188.11L.234-1.564v.25h2.25v.672c0 .297-.015.375-.64.375h-.172V0c.672-.031.687-.031 1.14-.031.454 0 .47 0 1.141.031v-.266h-.172c-.625 0-.64-.078-.64-.375v-.671h.843v-.25h-.843Zm-.593.64v2.954H.516Zm0 0"/></symbol><symbol overflow="visible" id="g"><path style="stroke:none" d="M1.11-4.484c.109.03.421.125.765.125 1 0 1.594-.704 1.594-.829 0-.093-.047-.109-.094-.109-.016 0-.031 0-.094.031a2.982 2.982 0 0 1-1.11.22c-.468 0-.858-.11-1.108-.22-.079-.03-.094-.03-.11-.03-.094 0-.094.077-.094.234v2.328c0 .14 0 .234.125.234.063 0 .079-.031.125-.094.094-.11.391-.515 1.079-.515.437 0 .656.359.734.515.125.281.14.656.14.953 0 .297 0 .735-.218 1.079-.156.25-.485.484-.906.484A1.271 1.271 0 0 1 .734-.922c.016.016.079.016.079.016.218 0 .406-.14.406-.39a.388.388 0 0 0-.39-.407c-.157 0-.407.078-.407.422 0 .718.625 1.453 1.531 1.453 1 0 1.844-.781 1.844-1.766 0-.922-.672-1.75-1.61-1.75-.39 0-.765.125-1.078.406Zm0 0"/></symbol><symbol overflow="visible" id="b"><path style="stroke:none" d="M3.266-1.5c0-.75-.61-1.36-1.36-1.36-.734 0-1.343.61-1.343 1.36 0 .766.609 1.36 1.343 1.36.75 0 1.36-.594 1.36-1.36ZM1.906-.453A1.024 1.024 0 0 1 .875-1.5c0-.578.453-1.047 1.031-1.047.578 0 1.047.469 1.047 1.047 0 .594-.469 1.047-1.047 1.047Zm0 0"/></symbol><symbol overflow="visible" id="h"><path style="stroke:none" d="M5.563-1.813c.14 0 .312 0 .312-.171 0-.188-.172-.188-.313-.188H1c-.125 0-.297 0-.297.188 0 .171.172.171.297.171Zm0 0"/></symbol><symbol overflow="visible" id="i"><path style="stroke:none" d="M1.625-.438a.463.463 0 0 0-.453-.453.447.447 0 0 0-.438.438.44.44 0 0 0 .438.453.45.45 0 0 0 .453-.438Zm0 0"/></symbol><symbol overflow="visible" id="j"><path style="stroke:none" d="M2.14-3.797c0-.187-.015-.187-.203-.187-.39.39-1 .39-1.218.39v.235c.156 0 .562 0 .922-.172v3.015c0 .204 0 .282-.625.282h-.25V0c.328-.031.796-.031 1.125-.031.328 0 .796 0 1.125.031v-.234h-.25c-.625 0-.625-.078-.625-.282Zm0 0"/></symbol><symbol overflow="visible" id="k"><path style="stroke:none" d="M.969-1.984c.015-.297.031-.797.234-1.157.266-.468.656-.64 1.016-.64.14 0 .422.015.562.187-.219.047-.265.188-.265.297 0 .156.109.281.296.281.172 0 .282-.109.282-.296 0-.376-.266-.672-.875-.672-.938 0-1.844.812-1.844 2.093 0 1.454.672 2.016 1.469 2.016.234 0 .64-.031 1-.39.203-.188.422-.422.422-.954 0-.203-.016-.593-.375-.922-.22-.203-.485-.406-.985-.406-.422 0-.734.219-.937.563Zm.875 1.89C1-.094 1-1.125 1-1.359c0-.5.328-1 .875-1 .313 0 .484.125.625.312.172.235.172.516.172.828 0 .407-.016.61-.219.86-.14.171-.328.265-.61.265Zm0 0"/></symbol><symbol overflow="visible" id="q"><path style="stroke:none" d="M3.422-3.61c.047-.062.047-.078.047-.25H1.922c-.234 0-.39 0-.625-.015-.281-.016-.36-.031-.39-.172h-.22L.47-2.734h.219c.03-.125.078-.485.171-.547.047-.031.563-.031.657-.031h1.343c-.062.078-.375.468-.53.64-.579.703-.985 1.547-.985 2.453 0 .063 0 .344.297.344.28 0 .28-.281.28-.36V-.39c0-1.156.25-1.734.548-2.093Zm0 0"/></symbol><symbol overflow="visible" id="s"><path style="stroke:none" d="M2.297-2.156c.453-.203.781-.5.781-.922 0-.594-.625-.906-1.25-.906-.672 0-1.266.406-1.266 1.015 0 .375.25.656.5.813.063.031.204.11.266.14-.39.157-.953.485-.953 1.094 0 .703.75 1.047 1.438 1.047.796 0 1.453-.484 1.453-1.14 0-.423-.25-.657-.329-.75-.124-.11-.421-.282-.64-.391ZM1.219-2.75c-.016-.016-.313-.172-.313-.453 0-.39.469-.578.906-.578.47 0 .938.25.938.703 0 .469-.5.703-.672.797Zm.343.86c.079.046.72.406.875.484.126.078.454.25.454.593 0 .485-.547.72-1.063.72-.547 0-1.062-.313-1.062-.829 0-.515.468-.844.796-.969Zm0 0"/></symbol><symbol overflow="visible" id="u"><path style="stroke:none" d="M2.672-1.89c0 .452-.031.906-.25 1.265-.156.234-.438.531-.906.531-.141 0-.47-.015-.625-.172.187-.046.234-.171.234-.28 0-.157-.11-.298-.281-.298-.172 0-.297.125-.297.313 0 .484.453.656.969.656.921 0 1.75-.844 1.75-2.094 0-1.453-.657-2.015-1.422-2.015-.766 0-1.469.562-1.469 1.343 0 .454.172.704.39.922.25.25.547.407.985.407.516 0 .797-.344.922-.579Zm-.89.39a.703.703 0 0 1-.626-.313C.984-2.046.97-2.296.97-2.64c0-.343 0-.578.203-.828a.796.796 0 0 1 .672-.312c.812 0 .812 1.015.812 1.265 0 .532-.36 1.016-.875 1.016Zm0 0"/></symbol><symbol overflow="visible" id="w"><path style="stroke:none" d="M3.297-1.906c0-.438 0-2.078-1.469-2.078S.36-2.344.36-1.906c0 .422 0 2.031 1.47 2.031 1.468 0 1.468-1.61 1.468-2.031ZM1.828-.063a.84.84 0 0 1-.812-.625C.922-1.03.922-1.609.922-1.984c0-.407 0-.86.094-1.188.14-.531.593-.61.812-.61.266 0 .672.126.797.579.094.312.094.75.094 1.219 0 .375 0 .984-.094 1.312a.825.825 0 0 1-.797.61Zm0 0"/></symbol><symbol overflow="visible" id="z"><path style="stroke:none" d="M3.219-1.125H3c-.016.094-.078.484-.156.547-.047.047-.531.047-.625.047h-1.11l.766-.625c.203-.172.734-.547.922-.735.172-.171.422-.484.422-.906 0-.75-.672-1.187-1.485-1.187-.765 0-1.296.515-1.296 1.078 0 .297.25.344.312.344a.32.32 0 0 0 .328-.329c0-.125-.078-.328-.344-.328.141-.297.5-.531.922-.531.625 0 .953.469.953.953 0 .422-.28.86-.687 1.25L.5-.25C.437-.187.437-.187.437 0h2.594Zm0 0"/></symbol><symbol overflow="visible" id="B"><path style="stroke:none" d="M1.766-1.984c.5 0 .843.343.843.953 0 .656-.39.937-.828.937C1.61-.094 1-.125.734-.469c.235-.031.329-.187.329-.344a.328.328 0 0 0-.344-.343.34.34 0 0 0-.344.36c0 .593.656.921 1.422.921.89 0 1.469-.563 1.469-1.156 0-.438-.329-.907-1.047-1.078.484-.157.86-.547.86-1.032 0-.484-.563-.843-1.282-.843-.703 0-1.234.328-1.234.812 0 .266.203.328.328.328.156 0 .312-.094.312-.312 0-.188-.125-.297-.297-.313.281-.312.828-.312.89-.312.298 0 .688.14.688.64 0 .329-.187.907-.796.938-.11 0-.266.015-.313.015-.063.016-.125.016-.125.11s.063.094.156.094Zm0 0"/></symbol><symbol overflow="visible" id="l"><path style="stroke:none" d="M3.078-3.781c0-.156 0-.235-.094-.235-.046 0-.062 0-.187.11-.016.015-.094.094-.156.14-.266-.203-.547-.25-.86-.25-1.187 0-1.468.657-1.468 1.11 0 .281.124.515.328.719.296.28.64.343 1.093.421.47.094.61.11.813.266.094.078.312.25.312.578 0 .797-.906.797-1.03.797-.907 0-1.141-.766-1.25-1.25-.032-.094-.048-.14-.141-.14-.126 0-.126.077-.126.234v1.14c0 .157 0 .235.094.235.063 0 .063 0 .235-.172a1.18 1.18 0 0 1 .171-.219c.375.375.797.39 1.016.39 1.11 0 1.484-.64 1.484-1.234 0-.406-.171-.656-.374-.859-.297-.297-.626-.36-1.282-.484-.234-.047-.89-.157-.89-.672 0-.281.203-.672 1.015-.672.969 0 1.032.75 1.047.969.016.109.016.171.125.171.125 0 .125-.062.125-.234Zm0 0"/></symbol><symbol overflow="visible" id="m"><path style="stroke:none" d="m1.656-3.969-1.297.11v.265c.579 0 .657.063.657.5v2.406c0 .407-.094.407-.688.407V0c.39-.016.594-.031.984-.031.141 0 .516 0 .954.031v-.281c-.579 0-.61-.047-.61-.39Zm.016-1.562a.477.477 0 0 0-.484-.485.497.497 0 0 0-.485.485c0 .265.219.484.485.484a.468.468 0 0 0 .484-.484Zm0 0"/></symbol><symbol overflow="visible" id="n"><path style="stroke:none" d="M1.672-2.328c0-.953.672-1.406 1.234-1.406.531 0 .64.437.64.968v2.079c0 .406-.093.406-.687.406V0c.422-.016.594-.031 1.032-.031.421 0 .546.015 1.015.031v-.281c-.453 0-.687 0-.687-.281v-1.72c0-.734 0-1-.25-1.312-.203-.25-.547-.375-1-.375-.828 0-1.219.625-1.344.875h-.016v-.875l-1.296.11v.265c.609 0 .687.063.687.516v2.39C1-.28.906-.28.312-.28V0c.422-.016.594-.031 1.032-.031.422 0 .547.015 1.015.031v-.281c-.593 0-.687 0-.687-.406Zm0 0"/></symbol><symbol overflow="visible" id="o"><path style="stroke:none" d="M2.719-5.734c0-.22 0-.235-.219-.235-.563.563-1.39.563-1.672.563v.281c.172 0 .719 0 1.203-.234v4.64c0 .328-.015.438-.86.438h-.28V0c.312-.031 1.125-.031 1.484-.031.375 0 1.172 0 1.5.031v-.281h-.281c-.844 0-.875-.11-.875-.438Zm0 0"/></symbol><symbol overflow="visible" id="r"><path style="stroke:none" d="M4.14-1.594h-.25c-.015.125-.093.657-.203.797-.062.078-.671.078-.859.078H1.234l.891-.844c1.469-1.265 2.016-1.75 2.016-2.656 0-1.031-.844-1.75-1.954-1.75-1.03 0-1.734.813-1.734 1.625 0 .453.39.5.469.5.203 0 .469-.14.469-.469a.451.451 0 0 0-.47-.468c-.046 0-.062 0-.109.015.22-.64.797-.921 1.282-.921.906 0 1.219.843 1.219 1.468 0 .907-.688 1.657-1.11 2.125L.563-.328c-.11.11-.11.125-.11.328h3.438Zm0 0"/></symbol><symbol overflow="visible" id="t"><path style="stroke:none" d="M2.734-3.156C3.563-3.47 3.97-4.125 3.97-4.75c0-.688-.766-1.219-1.703-1.219-.922 0-1.625.532-1.625 1.203 0 .297.187.47.453.47a.435.435 0 0 0 .453-.454c0-.313-.219-.438-.531-.438.234-.375.78-.562 1.234-.562.734 0 .875.594.875 1.016 0 .265-.047.703-.266 1.046-.28.391-.593.407-.859.438-.219.016-.234.016-.313.016-.078 0-.156.015-.156.109 0 .125.078.125.235.125h.406c.781 0 1.125.625 1.125 1.469 0 1.156-.61 1.484-1.063 1.484-.171 0-1.046-.047-1.437-.719a.475.475 0 0 0 .562-.484.468.468 0 0 0-.484-.484c-.219 0-.484.14-.484.515 0 .797.828 1.422 1.875 1.422 1.109 0 1.953-.812 1.953-1.734 0-.782-.625-1.438-1.485-1.625Zm0 0"/></symbol><symbol overflow="visible" id="v"><path style="stroke:none" d="M.266-1.766v.282h2.437v.78c0 .329-.015.423-.687.423h-.204V0C2.375-.031 3-.031 3.063-.031c.047 0 .704 0 1.266.031v-.281h-.203c-.672 0-.703-.094-.703-.422v-.781h.922v-.282h-.922v-4.062c0-.188 0-.25-.172-.25-.11 0-.11.016-.188.14Zm.28 0 2.22-3.312v3.312Zm0 0"/></symbol><symbol overflow="visible" id="x"><path style="stroke:none" d="M.938-3.094c0 .156 0 .266.125.266.062 0 .093-.047.14-.125a1.45 1.45 0 0 1 1.172-.594c.969 0 .969 1.39.969 1.703 0 .282 0 .844-.266 1.25-.234.375-.61.547-.969.547a1.456 1.456 0 0 1-1.343-1c.015 0 .062.016.125.016.187 0 .453-.11.453-.438 0-.281-.203-.437-.453-.437-.188 0-.438.11-.438.468 0 .813.688 1.641 1.688 1.641 1.078 0 2-.89 2-2 0-1.078-.766-1.969-1.75-1.969-.422 0-.86.141-1.188.47v-1.767c.281.079.563.125.828.125 1.11 0 1.75-.796 1.75-.921 0-.079-.047-.11-.094-.11-.015 0-.03 0-.124.047a3.488 3.488 0 0 1-1.204.234c-.39 0-.796-.078-1.203-.234-.093-.047-.11-.047-.11-.047-.109 0-.109.078-.109.235Zm0 0"/></symbol><symbol overflow="visible" id="y"><path style="stroke:none" d="M1.203-2.969c0-.922.094-1.422.344-1.89.172-.375.61-.891 1.281-.891.172 0 .594.031.797.36-.328 0-.484.171-.484.406a.41.41 0 0 0 .421.421c.25 0 .422-.171.422-.437 0-.5-.359-.969-1.171-.969-1.157 0-2.422 1.14-2.422 3.14C.39-.405 1.484.204 2.328.204c.985 0 1.89-.844 1.89-2.031 0-1.125-.827-2-1.843-2-.531 0-.922.328-1.172.86Zm1.11 2.922c-.516 0-.813-.422-.907-.687-.172-.407-.187-1.157-.187-1.297 0-.594.281-1.563 1.14-1.563.141 0 .579 0 .875.547.172.344.172.781.172 1.219 0 .422 0 .875-.172 1.203-.28.516-.671.578-.921.578Zm0 0"/></symbol><symbol overflow="visible" id="A"><path style="stroke:none" d="M4.39-5.469c.079-.093.079-.125.079-.312H2.25c-1.14 0-1.172-.11-1.188-.282h-.25L.516-4.188h.25C.796-4.39.875-4.89.984-5c.063-.063.782-.063.907-.063h1.875l-.86 1.172C1.734-2.28 1.625-.812 1.625-.312c0 .109 0 .515.422.515s.422-.406.422-.516V-.75c0-1.328.187-2.36.672-3.016Zm0 0"/></symbol><symbol overflow="visible" id="C"><path style="stroke:none" d="M1.547-4.078c-.266-.172-.484-.406-.484-.734 0-.594.625-.938 1.218-.938.703 0 1.25.484 1.25 1.11 0 .624-.531 1.046-.89 1.25Zm1.312.828c.454-.219 1.11-.656 1.11-1.39 0-.844-.844-1.329-1.656-1.329-.938 0-1.672.672-1.672 1.5 0 .328.125.657.343.922.141.172.204.203.72.531C.921-2.64.39-2.094.39-1.359c0 .953.937 1.562 1.906 1.562C3.344.203 4.219-.53 4.219-1.5c0-.875-.672-1.313-.89-1.453-.095-.063-.36-.235-.47-.297Zm-.906.39 1.125.704c.203.125.656.422.656.969 0 .703-.718 1.14-1.421 1.14C1.53-.047.875-.609.875-1.359c0-.641.438-1.172 1.078-1.5Zm0 0"/></symbol><symbol overflow="visible" id="p"><path style="stroke:none" d="M4.406-3.625a.504.504 0 0 0-.422.484c0 .172.125.329.344.329.25 0 .5-.22.5-.532 0-.422-.453-.625-.875-.625-.531 0-.844.485-.953.672a1.042 1.042 0 0 0-1-.672c-.953 0-1.484 1.156-1.484 1.39 0 .079.062.11.125.11.078 0 .109-.047.125-.11.28-.89.875-1.155 1.218-1.155.266 0 .485.171.485.593 0 .313-.375 1.75-.5 2.188-.063.265-.344.828-.828.828-.188 0-.375-.063-.454-.11.235-.046.422-.265.422-.484 0-.234-.171-.328-.343-.328-.266 0-.5.219-.5.531 0 .438.484.61.859.61.531 0 .828-.422.969-.672.219.594.75.672.984.672.969 0 1.485-1.157 1.485-1.375 0-.047-.032-.11-.11-.11-.11 0-.11.032-.156.172-.203.64-.719 1.094-1.188 1.094-.25 0-.5-.156-.5-.594 0-.203.125-.687.204-1.031.046-.156.28-1.125.296-1.188.11-.328.375-.796.844-.796.156 0 .328.015.453.109Zm0 0"/></symbol></defs><path style="fill:none;stroke-width:.3985;stroke-linecap:round;stroke-linejoin:miter;stroke:gray;stroke-opacity:1;stroke-miterlimit:10" d="M0-6.974v1.992M28.348-6.974v1.992M56.695-6.974v1.992M85.043-6.974v1.992M113.387-6.974v1.992M141.734-6.974v1.992M-6.973 4.217h1.993M-6.973 17.385h1.993M-6.973 30.553h1.993M-6.973 43.721h1.993M-6.973 56.89h1.993M-6.973 70.057h1.993M-6.973 83.225h1.993" transform="matrix(1 0 0 -1 31.371 89.944)"/><path style="fill:none;stroke-width:.3985;stroke-linecap:butt;stroke-linejoin:miter;stroke:gray;stroke-opacity:1;stroke-miterlimit:10" d="M0-4.982h141.734" transform="matrix(1 0 0 -1 31.371 89.944)"/><path style="fill:none;stroke-width:.3985;stroke-linecap:square;stroke-linejoin:miter;stroke:#bfbfbf;stroke-opacity:1;stroke-miterlimit:10" d="M0-.001h141.734M0 87.592h141.734" transform="matrix(1 0 0 -1 31.371 89.944)"/><path style="fill:none;stroke-width:.3985;stroke-linecap:butt;stroke-linejoin:miter;stroke:gray;stroke-opacity:1;stroke-miterlimit:10" d="M-4.98-.001v87.593" transform="matrix(1 0 0 -1 31.371 89.944)"/><path style="fill:none;stroke-width:.3985;stroke-linecap:square;stroke-linejoin:miter;stroke:#bfbfbf;stroke-opacity:1;stroke-miterlimit:10" d="M0-.001v87.593M141.734-.001v87.593" transform="matrix(1 0 0 -1 31.371 89.944)"/><path style="fill:none;stroke-width:.3985;stroke-linecap:butt;stroke-linejoin:miter;stroke:#000;stroke-opacity:1;stroke-miterlimit:10" d="m-1.41 42.311 2.82 2.82m-2.82 0 2.82-2.82M4.496 54.64l2.82 2.82m-2.82 0 2.82-2.82M10.402 61.882l2.817 2.816m-2.817 0 2.817-2.816M16.309 61.026l2.816 2.82m-2.816 0 2.816-2.82M22.215 52.44l2.816 2.817m-2.816 0 2.816-2.817M28.117 39.67l2.82 2.82m-2.82 0 2.82-2.82M34.024 27.99l2.82 2.821m-2.82 0 2.82-2.82M39.93 22.233l2.82 2.816m-2.82 0 2.82-2.816M45.836 24.772l2.816 2.82m-2.816 0 2.816-2.82M51.742 34.561l2.817 2.82m-2.817 0 2.817-2.82M57.649 47.553l2.816 2.817m-2.816 0 2.816-2.817M63.555 58.382l2.816 2.82m-2.816 0 2.816-2.82M69.457 62.569l2.82 2.82m-2.82 0 2.82-2.82M75.363 58.382l2.82 2.82m-2.82 0 2.82-2.82M81.27 47.553l2.816 2.817m-2.816 0 2.816-2.817M87.176 34.565l2.816 2.817m-2.816 0 2.816-2.817M93.082 24.772l2.817 2.82m-2.817 0 2.817-2.82M98.988 22.233l2.817 2.816m-2.817 0 2.817-2.816M104.89 27.99l2.821 2.821m-2.82 0 2.82-2.82M110.797 39.67l2.82 2.817m-2.82 0 2.82-2.816M116.703 52.44l2.817 2.817m-2.817 0 2.817-2.817M122.61 61.026l2.816 2.82m-2.817 0 2.817-2.82M128.516 61.882l2.816 2.816m-2.816 0 2.816-2.816M134.422 54.64l2.816 2.82m-2.816 0 2.816-2.82M140.324 42.311l2.82 2.82m-2.82 0 2.82-2.82M-1.41 42.311l2.82 2.82m-2.82 0 2.82-2.82M4.496 55.026l2.82 2.82m-2.82 0 2.82-2.82M10.402 63.038l2.817 2.82m-2.817 0 2.817-2.82M16.309 63.378l2.816 2.82m-2.816 0 2.816-2.82M22.215 55.924l2.816 2.817m-2.816 0 2.816-2.817M28.117 43.428l2.82 2.817m-2.82 0 2.82-2.817M34.024 30.522l2.82 2.817m-2.82 0 2.82-2.817M39.93 21.98l2.82 2.816m-2.82 0 2.82-2.817M45.836 20.964l2.816 2.816m-2.816 0 2.816-2.816M51.742 27.846l2.817 2.82m-2.817 0 2.817-2.82M57.649 40.08l2.816 2.821m-2.816 0 2.816-2.82M63.555 53.143l2.816 2.817m-2.816 0 2.816-2.817M69.457 62.202l2.82 2.816m-2.82 0 2.82-2.816M75.363 63.893l2.82 2.82m-2.82 0 2.82-2.82M81.27 57.604l2.816 2.817m-2.816 0 2.816-2.817M87.176 45.647l2.816 2.817m-2.816 0 2.816-2.817M93.082 32.467l2.817 2.82m-2.817 0 2.817-2.82M98.988 22.924l2.817 2.817m-2.817 0 2.817-2.817M104.89 20.557l2.821 2.817m-2.82 0 2.82-2.817M110.797 26.245l2.82 2.816m-2.82 0 2.82-2.816M116.703 37.874l2.817 2.82m-2.817 0 2.817-2.82M122.61 51.147l2.816 2.82m-2.817 0 2.817-2.82M128.516 61.155l2.816 2.82m-2.816 0 2.816-2.82M134.422 64.186l2.816 2.817m-2.816 0 2.816-2.817M140.324 59.124l2.82 2.816m-2.82 0 2.82-2.816" transform="matrix(1 0 0 -1 31.371 89.944)"/><path style="fill:none;stroke-width:.29887;stroke-linecap:butt;stroke-linejoin:miter;stroke:#000;stroke-opacity:1;stroke-miterlimit:10" d="M0 41.928v3.586m-1.707-2.347 3.414 1.109m-2.762.898 2.11-2.902m0 2.902-2.11-2.902m2.762.895-3.414 1.109M5.906 55.08v3.587M4.2 56.319l3.41 1.11m-2.757.894 2.109-2.899m0 2.899-2.11-2.899m2.758.895-3.41 1.11M11.813 63.909v3.59m-1.707-2.348 3.41 1.106m-2.758.898 2.105-2.902m0 2.902-2.105-2.902m2.758.898-3.41 1.106M17.715 65.503v3.586m-1.703-2.344 3.41 1.105m-2.758.899 2.106-2.903m0 2.903-2.106-2.903m2.758.899-3.41 1.105M23.621 59.342v3.586m-1.703-2.347 3.41 1.11m-2.761.894 2.109-2.903m0 2.903-2.11-2.903m2.762.899-3.41 1.11M29.527 47.444v3.59m-1.703-2.348 3.41 1.106m-2.761.898 2.11-2.902m0 2.902-2.11-2.902m2.761.898-3.41 1.106M35.434 33.745v3.586m-1.707-2.348 3.414 1.11m-2.762.894 2.11-2.902m0 2.902-2.11-2.902m2.762.898-3.414 1.11M41.34 22.73v3.585m-1.707-2.348 3.41 1.11m-2.758.898 2.11-2.902m0 2.902-2.11-2.902m2.758.894-3.41 1.11M47.246 18.03v3.59m-1.707-2.348 3.41 1.106m-2.758.898 2.11-2.902m0 2.902-2.11-2.902m2.758.898-3.41 1.106M53.152 21.198v3.586m-1.707-2.348 3.41 1.11m-2.757.894 2.105-2.898m0 2.898-2.105-2.898m2.758.894-3.41 1.11M59.055 31.186v3.586m-1.703-2.348 3.41 1.11m-2.758.898 2.105-2.902m0 2.902-2.105-2.902m2.758.894-3.41 1.11M64.961 44.706v3.586m-1.703-2.348 3.41 1.11m-2.762.894 2.11-2.902m0 2.902-2.11-2.902m2.762.898-3.41 1.11M70.867 57.315v3.586m-1.707-2.344 3.414 1.106m-2.761.898 2.109-2.902m0 2.902-2.11-2.902m2.762.898-3.414 1.106M76.774 64.862v3.586M75.067 66.1l3.414 1.11m-2.762.894 2.11-2.898m0 2.898-2.11-2.898m2.762.894-3.414 1.11M82.68 64.862v3.586M80.973 66.1l3.41 1.11m-2.758.894 2.11-2.898m0 2.898-2.11-2.898m2.758.894-3.41 1.11M88.586 57.315v3.586m-1.707-2.344 3.41 1.106m-2.758.898 2.106-2.902m0 2.902L87.53 57.66m2.758.898-3.41 1.106M94.488 44.706v3.586m-1.703-2.348 3.41 1.11m-2.757.894 2.105-2.902m0 2.902-2.105-2.902m2.757.898-3.41 1.11M100.395 31.186v3.586m-1.703-2.348 3.41 1.11m-2.762.898 2.11-2.902m0 2.902-2.11-2.902m2.762.894-3.41 1.11M106.3 21.198v3.586m-1.706-2.348 3.414 1.11m-2.762.894 2.11-2.898m0 2.898-2.11-2.898m2.762.894-3.414 1.11M112.207 18.03v3.59m-1.707-2.348 3.414 1.106m-2.762.898 2.11-2.902m0 2.902-2.11-2.902m2.762.898-3.414 1.106M118.113 22.73v3.585m-1.707-2.348 3.41 1.11m-2.757.898 2.11-2.902m0 2.902-2.11-2.902m2.758.894-3.41 1.11M124.02 33.745v3.586m-1.707-2.348 3.41 1.11m-2.758.894 2.105-2.902m0 2.902-2.105-2.902m2.758.898-3.41 1.11M129.922 47.444v3.59m-1.703-2.348 3.41 1.106m-2.758.898 2.106-2.902m0 2.902-2.106-2.902m2.758.898-3.41 1.106M135.828 59.342v3.586m-1.703-2.347 3.41 1.11m-2.761.894 2.109-2.903m0 2.903-2.11-2.903m2.762.899-3.41 1.11M141.734 65.503v3.586m-1.703-2.344 3.41 1.105m-2.761.899 2.11-2.903m0 2.903-2.11-2.903m2.761.899-3.41 1.105" transform="matrix(1 0 0 -1 31.371 89.944)"/><path style="fill:none;stroke-width:.3985;stroke-linecap:butt;stroke-linejoin:miter;stroke:#000;stroke-opacity:1;stroke-miterlimit:10" d="M0 43.721v1.993m0-1.993 1.895.618M0 43.72l1.172-1.613M0 43.721l-1.172-1.613M0 43.721l-1.894.618M5.906 57.378v1.996m0-1.996 1.895.617m-1.895-.617 1.172-1.61m-1.172 1.61-1.172-1.61m1.172 1.61-1.894.617M11.813 67.077v1.992m0-1.992 1.894.613m-1.894-.613 1.168-1.613m-1.168 1.613-1.172-1.613m1.172 1.613-1.895.613M17.715 69.999v1.992m0-1.992 1.898.617m-1.898-.617 1.172-1.614M17.715 70l-1.168-1.614M17.715 70l-1.895.617M23.621 65.292v1.992m0-1.992 1.895.617m-1.895-.617 1.172-1.61m-1.172 1.61-1.168-1.61m1.168 1.61-1.894.617M29.527 54.327v1.992m0-1.992 1.895.617m-1.895-.617 1.172-1.613m-1.172 1.613-1.171-1.613m1.171 1.613-1.894.617M35.434 40.284v1.992m0-1.992 1.894.617m-1.894-.617 1.172-1.61m-1.172 1.61-1.172-1.61m1.172 1.61-1.895.617M41.34 27.24v1.993m0-1.992 1.894.617m-1.894-.617 1.172-1.613M41.34 27.24l-1.172-1.613m1.172 1.613-1.895.617M47.246 18.975v1.996m0-1.996 1.895.617m-1.895-.617 1.172-1.61m-1.172 1.61-1.172-1.61m1.172 1.61-1.894.617M53.152 17.893v1.996m0-1.996 1.895.617m-1.895-.617 1.168-1.61m-1.168 1.61-1.171-1.61m1.171 1.61-1.898.617M59.055 24.307V26.3m0-1.992 1.898.617m-1.898-.617 1.172-1.613m-1.172 1.613-1.168-1.613m1.168 1.613-1.895.617M64.961 36.354v1.996m0-1.996 1.895.617m-1.895-.617 1.172-1.61m-1.172 1.61-1.172-1.61m1.172 1.61-1.895.617M70.867 50.538v1.992m0-1.992 1.895.617m-1.895-.617 1.172-1.614m-1.172 1.614-1.172-1.614m1.172 1.614-1.894.617M76.774 62.74v1.993m0-1.992 1.894.617m-1.894-.617 1.171-1.613m-1.171 1.613-1.172-1.613m1.172 1.613-1.895.617M82.68 69.428v1.993m0-1.993 1.894.614m-1.894-.614 1.172-1.613m-1.172 1.613-1.172-1.613m1.172 1.613-1.895.614M88.586 68.655v1.992m0-1.992 1.895.617m-1.895-.617 1.168-1.61m-1.168 1.61-1.172-1.61m1.172 1.61-1.898.617M94.488 60.647v1.992m0-1.992 1.899.617m-1.899-.617 1.172-1.613m-1.172 1.613-1.168-1.613m1.168 1.613-1.894.617M100.395 47.73v1.991m0-1.992 1.894.613m-1.894-.613 1.172-1.613m-1.172 1.613-1.172-1.613m1.172 1.613-1.895.613M106.3 33.647v1.992m0-1.992 1.895.617m-1.894-.617 1.172-1.61m-1.172 1.61-1.172-1.61m1.172 1.61-1.895.617M112.207 22.487v1.992m0-1.992 1.895.617m-1.895-.617 1.172-1.61m-1.172 1.61-1.172-1.61m1.172 1.61-1.894.617M118.113 17.49v1.993m0-1.992 1.895.613m-1.895-.613 1.172-1.613m-1.172 1.613-1.171-1.613m1.171 1.613-1.894.613M124.02 20.104v1.992m0-1.992 1.894.617m-1.894-.617 1.168-1.613m-1.168 1.613-1.172-1.613m1.172 1.613-1.899.617M129.922 29.573v1.992m0-1.992 1.898.613m-1.898-.613 1.172-1.613m-1.172 1.613-1.168-1.613m1.168 1.613-1.895.613M135.828 43.147v1.992m0-1.992 1.895.617m-1.895-.617L137 41.534m-1.172 1.613-1.172-1.613m1.172 1.613-1.894.617M141.734 56.885v1.993m0-1.993 1.895.618m-1.895-.618 1.172-1.609m-1.172 1.61-1.171-1.61m1.171 1.61-1.894.617M0 41.73v1.991m1.727.996L0 43.721m-1.726.996L0 43.721M5.906 55.987v1.992m1.727.996-1.727-.996m-1.726.996 1.726-.996M11.813 66.632v1.992m1.722.996-1.722-.996m-1.727.996 1.727-.996M17.715 70.96v1.996m1.727.996-1.727-.996m-1.723.996 1.723-.996M23.621 67.878v1.992m1.727.996-1.727-.996m-1.722.996 1.722-.996M29.527 58.163v1.992m1.727.996-1.727-.996m-1.726.996 1.726-.996M35.434 44.276v1.992m1.726.996-1.726-.996m-1.727.996 1.727-.996M41.34 29.756v1.993m1.726.996-1.726-.996m-1.727.996 1.727-.996M47.246 18.26v1.993m1.723 1-1.723-1m-1.726 1 1.726-1M53.152 12.721v1.993m1.723.996-1.723-.996m-1.726.996 1.726-.996M59.055 14.534v1.996m1.726.996-1.726-.996m-1.723.996 1.723-.996M64.961 23.253v1.992m1.727.996-1.727-.996m-1.727.996 1.727-.996M70.867 36.651v1.992m1.727.996-1.727-.996m-1.726.996 1.726-.996M76.774 51.335v1.992m1.726.996-1.726-.996m-1.727.996 1.727-.996M82.68 63.589v1.992m1.722.996-1.722-.996m-1.727.996 1.727-.996M88.586 70.292v1.992m1.723.996-1.723-.996m-1.727.996 1.727-.996M94.488 69.757v1.992m1.727.996-1.727-.996m-1.722.996 1.722-.996M100.395 62.116v1.992m1.726.996-1.726-.996m-1.727.996 1.727-.996M106.3 49.3v1.992m1.727.996-1.726-.996m-1.727.996 1.727-.996M112.207 34.573v1.992m1.727.996-1.727-.996m-1.726.996 1.726-.996M118.113 21.655v1.992m1.727.996-1.727-.996m-1.726.996 1.726-.996M124.02 13.823v1.992m1.722 1-1.722-1m-1.727 1 1.727-1M129.922 13.073v1.992m1.727.996-1.727-.996m-1.723.996 1.723-.996M135.828 19.592v1.993m1.727.996-1.727-.996m-1.722.996 1.722-.996M141.734 31.721v1.993m1.727.996-1.727-.996m-1.726.996 1.726-.996M0 45.714V43.72m1.727-.996L0 43.721m-1.726-.996L0 43.721M5.906 60.698v-1.992m1.727-.996-1.727.996M4.18 57.71l1.726.996M11.813 72.401v-1.992m1.722-.996-1.722.996m-1.727-.996 1.727.996M17.715 78.249v-1.992m1.727-.997-1.727.996m-1.723-.996 1.723.996M23.621 76.96v-1.993m1.727-.996-1.727.996m-1.722-.996 1.722.996M29.527 68.823v-1.996m1.727-.996-1.727.996m-1.726-.996 1.726.996M35.434 55.612V53.62m1.726-.996-1.726.996m-1.727-.996 1.727.996M41.34 40.237v-1.992m1.726-.996-1.726.996m-1.727-.996 1.727.996M47.246 26.061V24.07m1.723-.996-1.723.996m-1.726-.996 1.726.996M53.152 16.194v-1.992m1.723-.996-1.723.996m-1.726-.996 1.726.996M59.055 12.803v-1.992m1.726-.996-1.726.996m-1.723-.996 1.723.996M64.961 16.631v-1.996m1.727-.996-1.727.996m-1.727-.996 1.727.996M70.867 26.835v-1.993m1.727-.996-1.727.996m-1.726-.996 1.726.996M76.774 41.182V39.19m1.726-.996-1.726.996m-1.727-.996 1.727.996M82.68 56.518v-1.992m1.722-.996-1.722.996m-1.727-.996 1.727.996M88.586 69.49V67.5m1.723-.996-1.723.996m-1.727-.996 1.727.996M94.488 77.249v-1.992m1.727-.997-1.727.996m-1.722-.996 1.722.996M100.395 78.085v-1.993m1.726-.996-1.726.996m-1.727-.996 1.727.996M106.3 71.83V69.84m1.727-.997-1.726.997m-1.727-.997 1.727.997M112.207 59.839v-1.993m1.727-.996-1.727.996m-1.726-.996 1.726.996M118.113 44.76v-1.992m1.727-.996-1.727.996m-1.726-.996 1.726.996M124.02 29.885v-1.992m1.722-.996-1.722.996m-1.727-.996 1.727.996M129.922 18.48v-1.993m1.727-.996-1.727.996m-1.723-.996 1.723.996M135.828 13.05v-1.993m1.727-.996-1.727.996m-1.722-.996 1.722.996M141.734 14.78v-1.992m1.727-.996-1.727.996m-1.726-.996 1.726.996M-1.992 43.721h3.984M0 45.714v-3.985M3.914 59.616H7.9m-1.993 1.996v-3.988M9.82 72.538h3.985m-1.992 1.992v-3.984M15.723 80.061h3.988m-1.996 1.992V78.07M21.629 80.772h3.984m-1.992 1.992V78.78M27.535 74.538h3.985m-1.993 1.996v-3.988M33.441 62.534h3.985m-1.992 1.992v-3.984M39.348 46.999h3.984M41.34 48.99v-3.984M45.254 30.854h3.984m-1.992 1.992v-3.984M51.156 17.12h3.989m-1.993 1.992v-3.984M57.063 8.374h3.984m-1.992 1.992V6.378M62.969 6.245h3.984M64.961 8.24V4.253M68.875 11.143h3.984m-1.992 1.996V9.151M74.781 22.143h3.985m-1.992 1.992v-3.984M80.688 37.19h3.984m-1.992 1.992v-3.984M86.59 53.456h3.988m-1.992 1.992v-3.984M92.496 67.901h3.988m-1.996 1.992V65.91M98.402 77.819h3.985m-1.992 1.992v-3.984M104.309 81.342h3.984m-1.992 1.993V79.35M110.215 77.819h3.984m-1.992 1.992v-3.984M116.121 67.905h3.985m-1.993 1.992v-3.984M122.027 53.46h3.985m-1.992 1.992v-3.988M127.93 37.19h3.988m-1.996 1.992v-3.984M133.836 22.147h3.984m-1.992 1.992v-3.984M139.742 11.143h3.985m-1.993 1.996V9.151M-1.41 42.311l2.82 2.82m-2.82 0 2.82-2.82M4.496 59.405l2.82 2.816m-2.82 0 2.82-2.816M10.402 73.796l2.817 2.816m-2.817 0 2.817-2.816M16.309 83.217l2.816 2.817m-2.816 0 2.816-2.817M22.215 86.182 25.03 89m-2.816 0 2.816-2.817M28.117 82.225l2.82 2.817m-2.82 0 2.82-2.817M34.024 71.967l2.82 2.817m-2.82 0 2.82-2.817M39.93 57.022l2.82 2.82m-2.82 0 2.82-2.82M45.836 39.764l2.816 2.82m-2.816 0 2.816-2.82M51.742 22.905l2.817 2.816m-2.817 0 2.817-2.816M57.649 9.104l2.816 2.817m-2.816 0 2.816-2.817M63.555.553 66.37 3.37m-2.816 0L66.37.553M69.457-1.408l2.82 2.817m-2.82 0 2.82-2.817M75.363 3.53l2.82 2.82m-2.82 0 2.82-2.82M81.27 14.592l2.816 2.817m-2.816 0 2.816-2.817M87.176 30.034l2.816 2.816m-2.816 0 2.816-2.816M93.082 47.405 95.9 50.22m-2.817 0 2.817-2.816M98.988 63.975l2.817 2.82m-2.817 0 2.817-2.82M104.89 77.132l2.821 2.82m-2.82 0 2.82-2.82M110.797 84.788l2.82 2.82m-2.82 0 2.82-2.82M116.703 85.737l2.817 2.816m-2.817 0 2.817-2.816M122.61 79.835l2.816 2.816m-2.817 0 2.817-2.816M128.516 68.007l2.816 2.816m-2.816 0 2.816-2.816M134.422 52.124l2.816 2.816m-2.816 0 2.816-2.816M140.324 34.694l2.82 2.816m-2.82 0 2.82-2.816" transform="matrix(1 0 0 -1 31.371 89.944)"/><use xlink:href="#a" x="27.096" y="105.237" style="fill:#000;fill-opacity:1"/><use xlink:href="#b" x="31.33" y="102.424" style="fill:#000;fill-opacity:1"/><g style="fill:#000;fill-opacity:1"><use xlink:href="#c" x="53.325" y="105.237"/><use xlink:href="#a" x="57.56" y="105.237"/></g><use xlink:href="#b" x="61.794" y="102.424" style="fill:#000;fill-opacity:1"/><g style="fill:#000;fill-opacity:1"><use xlink:href="#d" x="81.672" y="105.237"/><use xlink:href="#a" x="85.907" y="105.237"/></g><use xlink:href="#b" x="90.141" y="102.424" style="fill:#000;fill-opacity:1"/><g style="fill:#000;fill-opacity:1"><use xlink:href="#e" x="110.019" y="105.237"/><use xlink:href="#a" x="114.254" y="105.237"/></g><use xlink:href="#b" x="118.487" y="102.424" style="fill:#000;fill-opacity:1"/><g style="fill:#000;fill-opacity:1"><use xlink:href="#f" x="138.366" y="105.237"/><use xlink:href="#a" x="142.601" y="105.237"/></g><use xlink:href="#b" x="146.834" y="102.424" style="fill:#000;fill-opacity:1"/><g style="fill:#000;fill-opacity:1"><use xlink:href="#g" x="166.712" y="105.237"/><use xlink:href="#a" x="170.947" y="105.237"/></g><use xlink:href="#b" x="175.181" y="102.424" style="fill:#000;fill-opacity:1"/><use xlink:href="#h" x=".1" y="87.878" style="fill:#000;fill-opacity:1"/><use xlink:href="#a" x="6.687" y="87.878" style="fill:#000;fill-opacity:1"/><use xlink:href="#i" x="10.921" y="87.878" style="fill:#000;fill-opacity:1"/><g style="fill:#000;fill-opacity:1"><use xlink:href="#c" x="13.273" y="87.878"/><use xlink:href="#g" x="17.508" y="87.878"/></g><use xlink:href="#h" x=".1" y="74.711" style="fill:#000;fill-opacity:1"/><use xlink:href="#a" x="6.687" y="74.711" style="fill:#000;fill-opacity:1"/><use xlink:href="#i" x="10.921" y="74.711" style="fill:#000;fill-opacity:1"/><g style="fill:#000;fill-opacity:1"><use xlink:href="#c" x="13.273" y="74.711"/><use xlink:href="#a" x="17.508" y="74.711"/></g><use xlink:href="#h" x=".1" y="61.543" style="fill:#000;fill-opacity:1"/><use xlink:href="#a" x="6.687" y="61.543" style="fill:#000;fill-opacity:1"/><use xlink:href="#i" x="10.921" y="61.543" style="fill:#000;fill-opacity:1"/><g style="fill:#000;fill-opacity:1"><use xlink:href="#a" x="13.273" y="61.543"/><use xlink:href="#g" x="17.508" y="61.543"/></g><use xlink:href="#a" x="6.687" y="48.791" style="fill:#000;fill-opacity:1"/><use xlink:href="#i" x="10.921" y="48.791" style="fill:#000;fill-opacity:1"/><g style="fill:#000;fill-opacity:1"><use xlink:href="#a" x="13.273" y="48.791"/><use xlink:href="#a" x="17.508" y="48.791"/></g><use xlink:href="#a" x="6.687" y="35.623" style="fill:#000;fill-opacity:1"/><use xlink:href="#i" x="10.921" y="35.623" style="fill:#000;fill-opacity:1"/><g style="fill:#000;fill-opacity:1"><use xlink:href="#a" x="13.273" y="35.623"/><use xlink:href="#g" x="17.508" y="35.623"/></g><use xlink:href="#a" x="6.687" y="22.456" style="fill:#000;fill-opacity:1"/><use xlink:href="#i" x="10.921" y="22.456" style="fill:#000;fill-opacity:1"/><g style="fill:#000;fill-opacity:1"><use xlink:href="#c" x="13.273" y="22.456"/><use xlink:href="#a" x="17.508" y="22.456"/></g><use xlink:href="#a" x="6.687" y="9.288" style="fill:#000;fill-opacity:1"/><use xlink:href="#i" x="10.921" y="9.288" style="fill:#000;fill-opacity:1"/><g style="fill:#000;fill-opacity:1"><use xlink:href="#c" x="13.273" y="9.288"/><use xlink:href="#g" x="17.508" y="9.288"/></g><use xlink:href="#j" x="200.149" y="8.194" style="fill:#000;fill-opacity:1"/><path style="fill:none;stroke-width:.379;stroke-linecap:butt;stroke-linejoin:miter;stroke:#000;stroke-opacity:1;stroke-miterlimit:10" d="M0 .001h3.652" transform="matrix(1 0 0 -1 200.149 9.626)"/><use xlink:href="#k" x="200.149" y="14.91" style="fill:#000;fill-opacity:1"/><g style="fill:#000;fill-opacity:1"><use xlink:href="#l" x="206.533" y="11.868"/><use xlink:href="#m" x="210.168" y="11.868"/><use xlink:href="#n" x="212.728" y="11.868"/></g><g style="fill:#000;fill-opacity:1"><use xlink:href="#o" x="219.381" y="11.868"/><use xlink:href="#o" x="223.989" y="11.868"/></g><use xlink:href="#p" x="228.599" y="11.868" style="fill:#000;fill-opacity:1"/><path style="fill:none;stroke-width:.3985;stroke-linecap:butt;stroke-linejoin:miter;stroke:#000;stroke-opacity:1;stroke-miterlimit:10" d="m-1.41-1.41 2.82 2.82m-2.82 0 2.82-2.82" transform="matrix(1 0 0 -1 193.976 9.656)"/><use xlink:href="#j" x="200.149" y="20.755" style="fill:#000;fill-opacity:1"/><path style="fill:none;stroke-width:.379;stroke-linecap:butt;stroke-linejoin:miter;stroke:#000;stroke-opacity:1;stroke-miterlimit:10" d="M0 0h3.652" transform="matrix(1 0 0 -1 200.149 22.187)"/><use xlink:href="#q" x="200.149" y="27.471" style="fill:#000;fill-opacity:1"/><g style="fill:#000;fill-opacity:1"><use xlink:href="#l" x="206.533" y="24.428"/><use xlink:href="#m" x="210.168" y="24.428"/><use xlink:href="#n" x="212.728" y="24.428"/></g><g style="fill:#000;fill-opacity:1"><use xlink:href="#o" x="219.381" y="24.428"/><use xlink:href="#r" x="223.989" y="24.428"/></g><use xlink:href="#p" x="228.599" y="24.428" style="fill:#000;fill-opacity:1"/><path style="fill:none;stroke-width:.3985;stroke-linecap:butt;stroke-linejoin:miter;stroke:#000;stroke-opacity:1;stroke-miterlimit:10" d="M-1.992-.002h3.985M0 1.994v-3.988" transform="matrix(1 0 0 -1 193.976 22.217)"/><use xlink:href="#j" x="200.149" y="33.316" style="fill:#000;fill-opacity:1"/><path style="fill:none;stroke-width:.379;stroke-linecap:butt;stroke-linejoin:miter;stroke:#000;stroke-opacity:1;stroke-miterlimit:10" d="M0 .002h3.652" transform="matrix(1 0 0 -1 200.149 34.748)"/><use xlink:href="#s" x="200.149" y="40.032" style="fill:#000;fill-opacity:1"/><g style="fill:#000;fill-opacity:1"><use xlink:href="#l" x="206.533" y="36.989"/><use xlink:href="#m" x="210.168" y="36.989"/><use xlink:href="#n" x="212.728" y="36.989"/></g><g style="fill:#000;fill-opacity:1"><use xlink:href="#o" x="219.381" y="36.989"/><use xlink:href="#t" x="223.989" y="36.989"/></g><use xlink:href="#p" x="228.599" y="36.989" style="fill:#000;fill-opacity:1"/><path style="fill:none;stroke-width:.3985;stroke-linecap:butt;stroke-linejoin:miter;stroke:#000;stroke-opacity:1;stroke-miterlimit:10" d="M0 1.993V0m1.727-.996L.001 0m-1.727-.996L.001 0" transform="matrix(1 0 0 -1 193.976 34.778)"/><use xlink:href="#j" x="200.149" y="45.877" style="fill:#000;fill-opacity:1"/><path style="fill:none;stroke-width:.379;stroke-linecap:butt;stroke-linejoin:miter;stroke:#000;stroke-opacity:1;stroke-miterlimit:10" d="M0 0h3.652" transform="matrix(1 0 0 -1 200.149 47.309)"/><use xlink:href="#u" x="200.149" y="52.593" style="fill:#000;fill-opacity:1"/><g style="fill:#000;fill-opacity:1"><use xlink:href="#l" x="206.533" y="49.55"/><use xlink:href="#m" x="210.168" y="49.55"/><use xlink:href="#n" x="212.728" y="49.55"/></g><g style="fill:#000;fill-opacity:1"><use xlink:href="#o" x="219.381" y="49.55"/><use xlink:href="#v" x="223.989" y="49.55"/></g><use xlink:href="#p" x="228.599" y="49.55" style="fill:#000;fill-opacity:1"/><path style="fill:none;stroke-width:.3985;stroke-linecap:butt;stroke-linejoin:miter;stroke:#000;stroke-opacity:1;stroke-miterlimit:10" d="M0-1.994v1.992m1.727 1-1.726-1m-1.727 1 1.727-1" transform="matrix(1 0 0 -1 193.976 47.338)"/><use xlink:href="#j" x="201.976" y="58.437" style="fill:#000;fill-opacity:1"/><path style="fill:none;stroke-width:.379;stroke-linecap:butt;stroke-linejoin:miter;stroke:#000;stroke-opacity:1;stroke-miterlimit:10" d="M0 .002h7.304" transform="matrix(1 0 0 -1 200.149 59.869)"/><g style="fill:#000;fill-opacity:1"><use xlink:href="#j" x="200.149" y="65.154"/><use xlink:href="#w" x="203.802" y="65.154"/></g><g style="fill:#000;fill-opacity:1"><use xlink:href="#l" x="210.186" y="62.111"/><use xlink:href="#m" x="213.821" y="62.111"/><use xlink:href="#n" x="216.381" y="62.111"/></g><g style="fill:#000;fill-opacity:1"><use xlink:href="#o" x="223.034" y="62.111"/><use xlink:href="#x" x="227.642" y="62.111"/></g><use xlink:href="#p" x="232.252" y="62.111" style="fill:#000;fill-opacity:1"/><path style="fill:none;stroke-width:.3985;stroke-linecap:butt;stroke-linejoin:miter;stroke:#000;stroke-opacity:1;stroke-miterlimit:10" d="M0 0v1.993M0 0l1.895.613M.001 0l1.171-1.614M.001.001l-1.172-1.614M0 .001l-1.895.613" transform="matrix(1 0 0 -1 193.976 59.899)"/><use xlink:href="#j" x="201.976" y="70.998" style="fill:#000;fill-opacity:1"/><path style="fill:none;stroke-width:.379;stroke-linecap:butt;stroke-linejoin:miter;stroke:#000;stroke-opacity:1;stroke-miterlimit:10" d="M0 0h7.304" transform="matrix(1 0 0 -1 200.149 72.43)"/><g style="fill:#000;fill-opacity:1"><use xlink:href="#j" x="200.149" y="77.714"/><use xlink:href="#j" x="203.802" y="77.714"/></g><g style="fill:#000;fill-opacity:1"><use xlink:href="#l" x="210.186" y="74.672"/><use xlink:href="#m" x="213.821" y="74.672"/><use xlink:href="#n" x="216.381" y="74.672"/></g><g style="fill:#000;fill-opacity:1"><use xlink:href="#o" x="223.034" y="74.672"/><use xlink:href="#y" x="227.642" y="74.672"/></g><use xlink:href="#p" x="232.252" y="74.672" style="fill:#000;fill-opacity:1"/><path style="fill:none;stroke-width:.29887;stroke-linecap:butt;stroke-linejoin:miter;stroke:#000;stroke-opacity:1;stroke-miterlimit:10" d="M0-1.794v3.586M-1.705-.556l3.41 1.11m-2.758.898 2.11-2.902m0 2.902-2.11-2.902m2.758.894-3.41 1.11" transform="matrix(1 0 0 -1 193.976 72.46)"/><use xlink:href="#j" x="201.976" y="83.559" style="fill:#000;fill-opacity:1"/><path style="fill:none;stroke-width:.379;stroke-linecap:butt;stroke-linejoin:miter;stroke:#000;stroke-opacity:1;stroke-miterlimit:10" d="M0-.001h7.304" transform="matrix(1 0 0 -1 200.149 84.991)"/><g style="fill:#000;fill-opacity:1"><use xlink:href="#j" x="200.149" y="90.275"/><use xlink:href="#z" x="203.802" y="90.275"/></g><g style="fill:#000;fill-opacity:1"><use xlink:href="#l" x="210.186" y="87.233"/><use xlink:href="#m" x="213.821" y="87.233"/><use xlink:href="#n" x="216.381" y="87.233"/></g><g style="fill:#000;fill-opacity:1"><use xlink:href="#o" x="223.034" y="87.233"/><use xlink:href="#A" x="227.642" y="87.233"/></g><use xlink:href="#p" x="232.252" y="87.233" style="fill:#000;fill-opacity:1"/><path style="fill:none;stroke-width:.3985;stroke-linecap:butt;stroke-linejoin:miter;stroke:#000;stroke-opacity:1;stroke-miterlimit:10" d="m-1.41-1.409 2.82 2.817m-2.82 0L1.41-1.41" transform="matrix(1 0 0 -1 193.976 85.021)"/><use xlink:href="#j" x="201.976" y="96.12" style="fill:#000;fill-opacity:1"/><path style="fill:none;stroke-width:.379;stroke-linecap:butt;stroke-linejoin:miter;stroke:#000;stroke-opacity:1;stroke-miterlimit:10" d="M0 .001h7.304" transform="matrix(1 0 0 -1 200.149 97.552)"/><g style="fill:#000;fill-opacity:1"><use xlink:href="#j" x="200.149" y="102.836"/><use xlink:href="#B" x="203.802" y="102.836"/></g><g style="fill:#000;fill-opacity:1"><use xlink:href="#l" x="210.186" y="99.794"/><use xlink:href="#m" x="213.821" y="99.794"/><use xlink:href="#n" x="216.381" y="99.794"/></g><g style="fill:#000;fill-opacity:1"><use xlink:href="#o" x="223.034" y="99.794"/><use xlink:href="#C" x="227.642" y="99.794"/></g><use xlink:href="#p" x="232.252" y="99.794" style="fill:#000;fill-opacity:1"/><path style="fill:none;stroke-width:.3985;stroke-linecap:butt;stroke-linejoin:miter;stroke:#000;stroke-opacity:1;stroke-miterlimit:10" d="m-1.41-1.41 2.82 2.82m-2.82 0 2.82-2.82" transform="matrix(1 0 0 -1 193.976 97.582)"/></svg>