<svg xmlns="http://www.w3.org/2000/svg" width="129.131" height="128.595" viewBox="0 0 96.848 96.446" version="1.2"><defs><clipPath id="a"><path d="M80 9h16.773v21H80Zm0 0"/></clipPath><clipPath id="b"><path d="M80 37h16.773v22H80Zm0 0"/></clipPath></defs><path style="fill:none;stroke-width:.3985;stroke-linecap:butt;stroke-linejoin:miter;stroke:#000;stroke-opacity:1;stroke-miterlimit:10" d="M4.695 0A4.695 4.695 0 0 1 0 4.696 4.695 4.695 0 0 1-4.695 0 4.695 4.695 0 0 1 0-4.695 4.695 4.695 0 0 1 4.695 0Zm0 0" transform="matrix(1 0 0 -1 5.828 19.594)"/><path style="fill:none;stroke-width:.3985;stroke-linecap:butt;stroke-linejoin:miter;stroke:#000;stroke-opacity:1;stroke-miterlimit:10" d="M4.697 0a4.698 4.698 0 0 1-9.395 0 4.698 4.698 0 0 1 9.395 0Zm0 0" transform="matrix(1 0 0 -1 34.174 19.594)"/><path style="fill:none;stroke-width:.3985;stroke-linecap:butt;stroke-linejoin:miter;stroke:#000;stroke-opacity:1;stroke-miterlimit:10" d="M4.698 0a4.698 4.698 0 0 1-9.395 0 4.698 4.698 0 0 1 9.395 0Zm0 0" transform="matrix(1 0 0 -1 62.521 19.594)"/><g clip-path="url(#a)"><path style="fill:none;stroke-width:.3985;stroke-linecap:butt;stroke-linejoin:miter;stroke:#000;stroke-opacity:1;stroke-miterlimit:10" d="M4.696 0A4.695 4.695 0 0 1 0 4.696 4.695 4.695 0 0 1-4.695 0 4.695 4.695 0 0 1 0-4.695 4.695 4.695 0 0 1 4.696 0Zm0 0" transform="matrix(1 0 0 -1 90.867 19.594)"/></g><path style="fill:none;stroke-width:.3985;stroke-linecap:butt;stroke-linejoin:miter;stroke:#000;stroke-opacity:1;stroke-miterlimit:10" d="M4.695-.001c0 2.593-2.101 4.699-4.695 4.699a4.698 4.698 0 0 1 0-9.395A4.695 4.695 0 0 1 4.695 0Zm0 0" transform="matrix(1 0 0 -1 5.828 47.94)"/><path style="fill:none;stroke-width:.3985;stroke-linecap:butt;stroke-linejoin:miter;stroke:#000;stroke-opacity:1;stroke-miterlimit:10" d="M4.697-.001A4.698 4.698 0 1 1-4.699 0 4.698 4.698 0 0 1 4.697 0Zm0 0" transform="matrix(1 0 0 -1 34.174 47.94)"/><path style="fill:none;stroke-width:.3985;stroke-linecap:butt;stroke-linejoin:miter;stroke:#000;stroke-opacity:1;stroke-miterlimit:10" d="M4.698-.001a4.698 4.698 0 1 1-9.393.003 4.698 4.698 0 0 1 9.393-.003Zm0 0" transform="matrix(1 0 0 -1 62.521 47.94)"/><g clip-path="url(#b)"><path style="fill:none;stroke-width:.3985;stroke-linecap:butt;stroke-linejoin:miter;stroke:#000;stroke-opacity:1;stroke-miterlimit:10" d="M4.696-.001c0 2.593-2.102 4.699-4.696 4.699a4.698 4.698 0 0 1 0-9.395A4.695 4.695 0 0 1 4.696 0Zm0 0" transform="matrix(1 0 0 -1 90.867 47.94)"/></g><path style="fill:none;stroke-width:.3985;stroke-linecap:butt;stroke-linejoin:miter;stroke:#000;stroke-opacity:1;stroke-miterlimit:10" d="M7.53.002a4.695 4.695 0 0 1-4.696 4.695 4.698 4.698 0 0 1 0-9.395 4.698 4.698 0 0 1 4.695 4.7Zm0 0" transform="matrix(1 0 0 -1 34.174 76.287)"/><path style="fill:none;stroke-width:.3985;stroke-linecap:butt;stroke-linejoin:miter;stroke:#000;stroke-opacity:1;stroke-miterlimit:10" d="M1.862.002a4.698 4.698 0 1 1-9.393-.005 4.698 4.698 0 0 1 9.393.005Zm0 0" transform="matrix(1 0 0 -1 62.521 76.287)"/><path style="fill:none;stroke-width:.3985;stroke-linecap:butt;stroke-linejoin:miter;stroke:#000;stroke-opacity:1;stroke-miterlimit:10" d="M-14.813-25.189-39.047-3.158M7.183-26.158l-45.547 23.97M-42.52 47.217V35.034" transform="matrix(1 0 0 -1 48.348 47.94)"/><path style="stroke:none;fill-rule:nonzero;fill:#000;fill-opacity:1" d="m5.828 14.898 1.594-3.191-1.594 1.2-1.594-1.2"/><path style="fill:none;stroke-width:.3985;stroke-linecap:butt;stroke-linejoin:miter;stroke:#000;stroke-opacity:1;stroke-miterlimit:10" d="M-42.52 23.65V4.699M-39.2 25.026l21.707-21.707M-38.32 26.249 9.971 2.1M-38.067 26.862 38.066 1.487M-11.805-23.673l-1.902 19M8.199-24.857-11.031-3.49M-14.172 47.217V35.034" transform="matrix(1 0 0 -1 48.348 47.94)"/><path style="stroke:none;fill-rule:nonzero;fill:#000;fill-opacity:1" d="m34.176 14.898 1.594-3.191-1.594 1.2-1.594-1.2"/><path style="fill:none;stroke-width:.3985;stroke-linecap:butt;stroke-linejoin:miter;stroke:#000;stroke-opacity:1;stroke-miterlimit:10" d="M-17.493 25.026-39.2 3.319M-14.172 23.65V4.699M-10.852 25.026 10.851 3.319M-9.973 26.249 38.32 2.1M-8.196-24.857 11.031-3.49M11.804-23.673l1.903 19M14.172 47.217V35.034" transform="matrix(1 0 0 -1 48.348 47.94)"/><path style="stroke:none;fill-rule:nonzero;fill:#000;fill-opacity:1" d="m62.52 14.898 1.597-3.191-1.597 1.2-1.594-1.2"/><path style="fill:none;stroke-width:.3985;stroke-linecap:butt;stroke-linejoin:miter;stroke:#000;stroke-opacity:1;stroke-miterlimit:10" d="M9.972 26.249-38.32 2.1M10.851 25.026-10.852 3.319M14.172 23.65V4.699M17.496 25.026 39.199 3.319M-7.184-26.158l45.547 23.97M14.812-25.189 39.047-3.158M42.52 47.217V35.034" transform="matrix(1 0 0 -1 48.348 47.94)"/><path style="stroke:none;fill-rule:nonzero;fill:#000;fill-opacity:1" d="m90.867 14.898 1.594-3.191-1.594 1.2-1.594-1.2"/><path style="fill:none;stroke-width:.3985;stroke-linecap:butt;stroke-linejoin:miter;stroke:#000;stroke-opacity:1;stroke-miterlimit:10" d="M38.066 26.862-38.067 1.487M38.32 26.249-9.973 2.1M39.199 25.026 17.496 3.319M42.52 23.65V4.699M-11.34-45.224v12.18" transform="matrix(1 0 0 -1 48.348 47.94)"/><path style="stroke:none;fill-rule:nonzero;fill:#000;fill-opacity:1" d="m37.008 95.156 1.594-3.187-1.594 1.195-1.594-1.195"/><path style="fill:none;stroke-width:.3985;stroke-linecap:butt;stroke-linejoin:miter;stroke:#000;stroke-opacity:1;stroke-miterlimit:10" d="M11.34-45.224v12.18" transform="matrix(1 0 0 -1 48.348 47.94)"/><path style="stroke:none;fill-rule:nonzero;fill:#000;fill-opacity:1" d="m59.688 95.156 1.593-3.187-1.593 1.195-1.594-1.195"/></svg>