<svg xmlns="http://www.w3.org/2000/svg" xmlns:xlink="http://www.w3.org/1999/xlink" width="48.555" height="47.019" viewBox="0 0 36.416 35.264" version="1.2"><defs><clipPath id="c"><path d="M23 1h13.125v21H23Zm0 0"/></clipPath><clipPath id="d"><path d="M20 0h16.125v25H20Zm0 0"/></clipPath><clipPath id="f"><path d="M6 16h15v18.895H6Zm0 0"/></clipPath><clipPath id="g"><path d="M3 13h21v21.895H3Zm0 0"/></clipPath><clipPath id="h"><path d="M12 13h21v21.895H12Zm0 0"/></clipPath><symbol overflow="visible" id="a"><path style="stroke:none" d="M4.922 0v-.469h-1.39v-5.734c0-.234 0-.328-.266-.328-.11 0-.125 0-.22.078-.765.562-1.796.562-2 .562H.845v.47h.203c.156 0 .703-.016 1.297-.204v5.156H.954V0c.437-.031 1.5-.031 1.984-.031s1.546 0 1.984.031Zm0 0"/></symbol><symbol overflow="visible" id="b"><path style="stroke:none" d="m4.5 3.36-.234-.407c-.188.078-.797.313-.922.219-.11-.063-.485-.719-.563-.844l-.734-1.281c.578.219 1.203.469 1.703.687 1.297.563 2.031.891 2.844.422 1-.578 1.11-1.86.422-3.062-.61-1.063-1.625-1.563-2.391-1.11-.516.297-.406.782-.281.985.156.281.547.515.984.265.453-.25.36-.703.344-.843.344.125.625.406.812.718.422.735.079 1.485-.578 1.86-.593.344-1.375.36-2.343.094L.796.359C.64.281.609.297.437.406L.281.484l2.14 3.704Zm0 0"/></symbol><symbol overflow="visible" id="e"><path style="stroke:none" d="M-5.25 1.797c0 .547.297 1.406 1.734 1.719-.687.203-1.406.765-1.406 1.625 0 .765.75 1.39 2.156 1.39 1.188 0 1.97-.64 1.97-1.437a.678.678 0 0 0-.688-.703.668.668 0 0 0-.704.687c0 .578.547.688.579.703-.344.282-.782.36-1.094.36-.828 0-.86-.641-.86-.97 0-.124.016-1.437 1.047-1.5.407-.015.438-.015.485-.03.094-.016.125-.11.125-.172 0-.172-.11-.172-.282-.172h-.437c-1.094 0-1.094-.985-1.094-1.5 0-.469 0-1.484 1.031-1.484.266 0 .782.046 1.266.343C-1.75.75-2 1-2 1.406c0 .453.313.75.75.75.422 0 .766-.265.766-.765 0-.907-.97-1.5-2.25-1.5-1.782 0-2.516 1-2.516 1.906Zm0 0"/></symbol><symbol overflow="visible" id="i"><path style="stroke:none" d="m2.703-4.688-.406-.234-.485.844-.953-.547.485-.844-.407-.234-.484.844-3.625-2.094c-.219-.125-.297-.14-.437.11-.11.187-.094.187-.016.374l2.016 5.188.406.234 1.437-2.5.954.547-.563.969.406.234c.157-.344.61-1.125.828-1.5.204-.344.625-1.094.844-1.39Zm-2.828.813L-1.344-1.75-2.78-5.406Zm0 0"/></symbol></defs><use xlink:href="#a" x="15.038" y="17.347" style="fill:red;fill-opacity:1"/><use xlink:href="#b" x="22.148" y="8.325" style="fill:#000;fill-opacity:1"/><g clip-path="url(#c)"><path style="fill:none;stroke-width:.19925;stroke-linecap:butt;stroke-linejoin:miter;stroke:gray;stroke-opacity:1;stroke-miterlimit:10" d="M25.512 14.728 17.008.002" transform="matrix(1 0 0 -1 9.398 18.994)"/></g><g clip-path="url(#d)"><path style="fill:none;stroke-width:.3985;stroke-linecap:butt;stroke-linejoin:miter;stroke:#000;stroke-opacity:1;stroke-miterlimit:10" d="m25.512 14.728-1.305-9.062L17.008.002" transform="matrix(1 0 0 -1 9.398 18.994)"/></g><path style="fill:none;stroke-width:.19925;stroke-linecap:butt;stroke-linejoin:miter;stroke:gray;stroke-opacity:1;stroke-miterlimit:10" d="M17.008.002 8.504 14.728" transform="matrix(1 0 0 -1 9.398 18.994)"/><path style="fill:none;stroke-width:.3985;stroke-linecap:butt;stroke-linejoin:miter;stroke:#000;stroke-opacity:1;stroke-miterlimit:10" d="M8.504 14.728h17.008" transform="matrix(1 0 0 -1 9.398 18.994)"/><use xlink:href="#e" x="20.766" y="20.696" style="fill:#000;fill-opacity:1"/><g clip-path="url(#f)"><path style="fill:none;stroke-width:.19925;stroke-linecap:butt;stroke-linejoin:miter;stroke:gray;stroke-opacity:1;stroke-miterlimit:10" d="M8.504-14.729 0 .001" transform="matrix(1 0 0 -1 9.398 18.994)"/></g><g clip-path="url(#g)"><path style="fill:none;stroke-width:.3985;stroke-linecap:butt;stroke-linejoin:miter;stroke:#000;stroke-opacity:1;stroke-miterlimit:10" d="M8.504-14.729 1.305-9.065 0 .002" transform="matrix(1 0 0 -1 9.398 18.994)"/></g><path style="fill:none;stroke-width:.19925;stroke-linecap:butt;stroke-linejoin:miter;stroke:gray;stroke-opacity:1;stroke-miterlimit:10" d="M0 .002h17.008" transform="matrix(1 0 0 -1 9.398 18.994)"/><g clip-path="url(#h)"><path style="fill:none;stroke-width:.3985;stroke-linecap:butt;stroke-linejoin:miter;stroke:#000;stroke-opacity:1;stroke-miterlimit:10" d="m17.008.002-8.504-14.73" transform="matrix(1 0 0 -1 9.398 18.994)"/></g><use xlink:href="#i" x="10.796" y="13.289" style="fill:#000;fill-opacity:1"/><path style="fill:none;stroke-width:.19925;stroke-linecap:butt;stroke-linejoin:miter;stroke:gray;stroke-opacity:1;stroke-miterlimit:10" d="M-8.503 14.728H8.504" transform="matrix(1 0 0 -1 9.398 18.994)"/><path style="fill:none;stroke-width:.3985;stroke-linecap:butt;stroke-linejoin:miter;stroke:#000;stroke-opacity:1;stroke-miterlimit:10" d="M-8.503 14.728 0 18.131l8.504-3.403" transform="matrix(1 0 0 -1 9.398 18.994)"/><path style="fill:none;stroke-width:.19925;stroke-linecap:butt;stroke-linejoin:miter;stroke:gray;stroke-opacity:1;stroke-miterlimit:10" d="M8.504 14.728 0 .002" transform="matrix(1 0 0 -1 9.398 18.994)"/><path style="fill:none;stroke-width:.3985;stroke-linecap:butt;stroke-linejoin:miter;stroke:#000;stroke-opacity:1;stroke-miterlimit:10" d="m0 .002-8.503 14.726" transform="matrix(1 0 0 -1 9.398 18.994)"/></svg>