<svg xmlns="http://www.w3.org/2000/svg" xmlns:xlink="http://www.w3.org/1999/xlink" width="142.463" height="150.353" viewBox="0 0 106.847 112.765" version="1.2"><defs><symbol overflow="visible" id="a"><path style="stroke:none" d="M5.516-.234c0-.235-.125-.235-.266-.235-.61-.015-.61-.14-.61-.375v-2.14c0-.891-.702-1.532-2.187-1.532-.562 0-1.781.047-1.781.922 0 .438.344.625.61.625.312 0 .624-.219.624-.625 0-.297-.187-.469-.218-.5a5.28 5.28 0 0 1 .718-.062c.75 0 1.11.422 1.11 1.172v.343c-.72.032-3.25.125-3.25 1.563C.266-.125 1.5.062 2.187.062c.797 0 1.266-.406 1.485-.828 0 .313 0 .766 1.047.766h.468c.204 0 .329 0 .329-.234Zm-2-1.157c0 .97-.922 1.094-1.172 1.094-.516 0-.906-.344-.906-.797 0-1.062 1.578-1.203 2.078-1.234Zm0 0"/></symbol><symbol overflow="visible" id="b"><path style="stroke:none" d="M5.984-2.219c0-1.328-.937-2.265-2.39-2.265-.719 0-1.219.28-1.453.484v-2.922l-1.766.078v.469c.61 0 .688 0 .688.39V0h.468c.157-.188.328-.375.485-.563.078.079.562.625 1.453.625 1.484 0 2.515-.906 2.515-2.28Zm-1.28 0c0 .469 0 1.016-.25 1.406-.298.407-.75.516-1.079.516-.688 0-1.078-.547-1.188-.687v-2.5c.282-.36.75-.641 1.297-.641 1.22 0 1.22 1.203 1.22 1.906Zm0 0"/></symbol><symbol overflow="visible" id="c"><path style="stroke:none" d="M4.766-1.172c0-.14-.141-.14-.235-.14-.187 0-.187.03-.25.156-.25.625-.734.812-1.234.812-1.39 0-1.39-1.453-1.39-1.922 0-.562 0-1.843 1.28-1.843.36 0 .516.015.657.046a.618.618 0 0 0-.203.47c0 .437.343.624.609.624.313 0 .64-.219.64-.625 0-.86-1.156-.922-1.734-.922C1.11-4.516.375-3.375.375-2.219.375-.89 1.313.062 2.844.062c1.625 0 1.922-1.156 1.922-1.234Zm0 0"/></symbol><symbol overflow="visible" id="d"><path style="stroke:none" d="M5.984 0v-.469c-.609 0-.687 0-.687-.39v-6.063l-1.766.078v.469c.625 0 .703 0 .703.39v1.954a2.178 2.178 0 0 0-1.359-.453c-1.453 0-2.5.875-2.5 2.28 0 1.313.922 2.267 2.39 2.267.61 0 1.094-.235 1.407-.485v.484ZM4.172-1.031c-.14.187-.547.734-1.297.734-1.219 0-1.219-1.203-1.219-1.906 0-.485 0-1.016.25-1.406.297-.422.766-.516 1.078-.516.563 0 .97.313 1.188.61Zm0 0"/></symbol><symbol overflow="visible" id="e"><path style="stroke:none" d="M4.922-1.172c0-.172-.188-.172-.234-.172-.172 0-.188.047-.25.203-.204.485-.782.797-1.422.797-1.407 0-1.422-1.328-1.422-1.828h3.015c.22 0 .313 0 .313-.265 0-.313-.063-1.047-.563-1.547-.359-.36-.89-.532-1.578-.532C1.187-4.516.312-3.484.312-2.25c0 1.344 1 2.313 2.61 2.313 1.578 0 2-1.063 2-1.235ZM3.984-2.5h-2.39c.015-.39.031-.813.234-1.14.266-.391.672-.516.953-.516 1.172 0 1.188 1.312 1.203 1.656Zm0 0"/></symbol><symbol overflow="visible" id="f"><path style="stroke:none" d="M4.36-6.11c0-.421-.36-.874-1.141-.874-.969 0-2.047.421-2.047 1.546v1.016h-.75v.469h.75V-.47H.484V0l1.25-.031c.375 0 1.016 0 1.375.031v-.469H2.25v-3.484h1.14v-.469H2.188v-1.016c0-1.093.75-1.187 1-1.187.047 0 .11 0 .172.031a.585.585 0 0 0-.234.485c0 .421.36.609.61.609.296 0 .624-.203.624-.61Zm0 0"/></symbol><symbol overflow="visible" id="g"><path style="stroke:none" d="M5.563-3.953c0-.235-.172-.578-.625-.578-.157 0-.625.031-1.063.375-.172-.125-.594-.328-1.328-.328-1.438 0-1.985.78-1.985 1.468 0 .407.188.829.516 1.047-.281.36-.344.688-.344.89 0 .157.047.641.438.954-.125.031-.86.25-.86.875C.313 1.25.875 2 2.86 2 4.625 2 5.406 1.422 5.406.719c0-.297-.078-.922-.75-1.266-.562-.281-1.156-.281-2.11-.281-.265 0-.718 0-.765-.016a.625.625 0 0 1-.562-.625c0-.093.047-.25.11-.328.452.234.968.266 1.218.266 1.437 0 1.984-.782 1.984-1.485 0-.468-.25-.796-.406-.953.297-.156.516-.172.625-.187a.433.433 0 0 0-.047.203c0 .25.172.422.438.422a.41.41 0 0 0 .421-.422Zm-2.141.937c0 .454 0 1.125-.875 1.125s-.875-.671-.875-1.125c0-.437 0-1.109.875-1.109s.875.672.875 1.11ZM4.547.75c0 .36-.39.89-1.688.89-1.187 0-1.687-.452-1.687-.906 0-.609.625-.609.766-.609h1.171c.313 0 1.438 0 1.438.625Zm0 0"/></symbol><symbol overflow="visible" id="h"><path style="stroke:none" d="M6.125 0v-.469h-.688v-2.578c0-1.047-.53-1.437-1.53-1.437a1.9 1.9 0 0 0-1.688.953v-3.39l-1.766.077v.469c.61 0 .688 0 .688.39v5.516H.453V0l1.25-.031L2.953 0v-.469h-.687v-2.078c0-1.094.859-1.578 1.5-1.578.328 0 .546.203.546.969V-.47h-.687V0l1.25-.031Zm0 0"/></symbol><symbol overflow="visible" id="i"><path style="stroke:none" d="M3.297-1.469c0-.14-.125-.14-.281-.14-.235 0-.25 0-.313.25-.078.328-.265 1.078-.594 1.078-.125 0-.203-.078-.203-.313 0-.187.032-.265.063-.422l1.406-5.562c0-.047.031-.11.031-.156 0-.188-.187-.188-.328-.172l-1.219.062c-.109 0-.312 0-.312.297 0 .172.172.172.266.172.125 0 .296.016.421.031L.954-1.172c-.048.156-.048.219-.048.281 0 .641.594.97 1.156.97.47 0 .72-.345.844-.532.266-.422.39-.984.39-1.016Zm0 0"/></symbol><symbol overflow="visible" id="j"><path style="stroke:none" d="M5.344-.86c0-.078-.203-.312-.297-.312-.031 0-.078 0-.14.063-.735.828-1.75.828-1.891.828-.547 0-.844-.328-.844-.922 0-.25.078-.625.156-.969h.406c.594 0 2.563 0 2.563-1.375C5.297-4.14 4.75-4.5 4-4.5c-1.719 0-2.906 1.297-2.906 2.828 0 1.078.672 1.75 1.922 1.75.296 0 .89-.031 1.406-.219.531-.203.922-.593.922-.718Zm-.688-2.703c0 1.032-1.625 1.032-2.234 1.032.14-.5.234-.797.531-1.125A1.452 1.452 0 0 1 4-4.141c.422 0 .656.266.656.579Zm0 0"/></symbol><symbol overflow="visible" id="k"><path style="stroke:none" d="M5.36-6.203C5.36-6.672 4.89-7 4.233-7 3-7 2.72-5.906 2.625-5.406l-.188.984h-.906c-.172 0-.36 0-.36.281 0 .188.173.188.329.188h.86L1.655-.156c-.093.531-.125.64-.25 1.14-.031.141-.172.672-.5.672 0 0-.156 0-.297-.078a.743.743 0 0 0 .407-.64c0-.266-.204-.454-.5-.454a.717.717 0 0 0-.704.735c0 .5.5.797 1.079.797.375 0 1.203-.22 1.671-1.688.126-.422.172-.625.266-1.062l.594-3.22h1.094c.171 0 .343 0 .343-.296 0-.172-.171-.172-.312-.172H3.516c.078-.469.312-1.828.375-1.969.062-.125.203-.25.343-.25.047 0 .188.016.329.079-.22.125-.407.359-.407.64 0 .266.203.453.5.453a.727.727 0 0 0 .703-.734Zm0 0"/></symbol><symbol overflow="visible" id="l"><path style="stroke:none" d="M4.172-1.469c0-.14-.125-.14-.281-.14-.22 0-.22 0-.297.156-.422 1-.906 1.172-1.172 1.172-.094 0-.203-.016-.203-.313 0-.187.015-.265.047-.422l.75-2.937h.796c.172 0 .329 0 .329-.297 0-.172-.157-.172-.297-.172h-.719l.188-.797c.078-.25.187-.687.187-.765 0-.235-.172-.422-.453-.422-.125 0-.5.062-.625.531l-.36 1.453H1.25c-.172 0-.344 0-.344.281 0 .188.172.188.313.188h.718L1.25-1.172c-.047.156-.047.219-.047.281 0 .625.578.97 1.172.97 1.14 0 1.797-1.391 1.797-1.548Zm0 0"/></symbol><symbol overflow="visible" id="m"><path style="stroke:none" d="M5.61-3.625c0-.516-.548-.875-1.266-.875-.39 0-.86.11-1.282.531C2.892-4.28 2.5-4.5 2-4.5c-.469 0-.719.328-.844.531-.265.422-.39.985-.39 1.016 0 .14.125.14.28.14.235 0 .25-.015.313-.265.094-.328.266-1.063.61-1.063.11 0 .187.079.187.297 0 .188-.015.281-.062.438L1.39-.562c-.047.14-.047.156-.047.218 0 .297.234.422.453.422.062 0 .5-.015.625-.531l.672-2.719c.062-.234.515-.969 1.219-.969.109 0 .343 0 .546.157-.468.218-.468.64-.468.671 0 .25.187.47.5.47.375 0 .718-.329.718-.782Zm0 0"/></symbol><symbol overflow="visible" id="n"><path style="stroke:none" d="M3.89-1.469c0-.14-.124-.14-.28-.14-.188 0-.235 0-.282.125-.078.265-.344 1.203-.922 1.203-.047 0-.14 0-.14-.172 0-.14.078-.39.093-.406l.891-2.375c.063-.157.094-.235.094-.391 0-.547-.516-.875-1.047-.875C1.25-4.5.766-3.156.766-2.953c0 .14.125.14.28.14.188 0 .235 0 .282-.124.078-.266.344-1.204.922-1.204.047 0 .125 0 .125.172 0 .125-.063.375-.078.406l-.89 2.36c-.063.172-.095.25-.095.39 0 .563.516.891 1.047.891 1.047 0 1.532-1.344 1.532-1.547Zm.141-4.656a.6.6 0 0 0-.625-.594c-.453 0-.89.422-.89.86 0 .328.25.609.625.609.468 0 .89-.438.89-.875Zm0 0"/></symbol><symbol overflow="visible" id="o"><path style="stroke:none" d="m4.5.64 1.078-4.312c.031-.172.031-.25.031-.25 0-.219-.171-.422-.453-.422-.265 0-.375.11-.468.203-.282-.265-.594-.359-.954-.359-1.703 0-2.671 1.64-2.671 2.922C1.063-.516 1.78 0 2.688 0c.312 0 .624-.078.968-.266l-.172.704c-.25.921-.812 1.218-1.343 1.218-.282 0-.5-.031-.625-.062a.803.803 0 0 0 .28-.563c0-.25-.187-.453-.5-.453a.727.727 0 0 0-.702.735c0 .625.781.703 1.515.703C3.313 2.016 4.281 1.5 4.5.64Zm-.625-1.812c-.094.36-.672.813-1.156.813-.531 0-.578-.485-.578-.704 0-.546.359-1.765.484-2.109.328-.828.844-.969 1.11-.969.296 0 .609.157.734.594Zm0 0"/></symbol><symbol overflow="visible" id="p"><path style="stroke:none" d="M6.234-1.469c0-.14-.14-.14-.28-.14-.188 0-.235 0-.282.125-.078.265-.344 1.203-.922 1.203-.047 0-.14 0-.14-.172 0-.219.109-.469.234-.813.14-.375.593-1.546.593-2.109 0-.828-.593-1.125-1.375-1.125-.515 0-.906.156-1.343.5l.656-2.578c0-.047.031-.11.031-.156 0-.188-.187-.188-.328-.172l-1.219.062c-.109 0-.312 0-.312.297 0 .172.172.172.266.172.125 0 .296.016.421.031L.797-.562C.75-.422.75-.406.75-.345c0 .25.203.422.469.422.11 0 .5-.047.61-.531l.624-2.485c.063-.265.625-1.203 1.531-1.203.438 0 .438.375.438.563 0 .594-.469 1.828-.64 2.265-.095.25-.126.36-.126.5 0 .563.516.891 1.047.891 1.031 0 1.531-1.344 1.531-1.547Zm0 0"/></symbol></defs><path style="fill:none;stroke-width:.3985;stroke-linecap:butt;stroke-linejoin:miter;stroke:#000;stroke-opacity:1;stroke-miterlimit:10" d="M-5.806-5.806-21.36-21.361" transform="matrix(1 0 0 -1 53.029 3.159)"/><path style="fill:none;stroke-width:.3985;stroke-linecap:round;stroke-linejoin:round;stroke:#000;stroke-opacity:1;stroke-miterlimit:10" d="M-2.071 2.39C-1.693.956-.851.28-.002 0c-.848-.279-1.69-.955-2.072-2.392" transform="scale(-1 1) rotate(45 -45.532 -25.724)"/><path style="fill:none;stroke-width:.3985;stroke-linecap:butt;stroke-linejoin:miter;stroke:#000;stroke-opacity:1;stroke-miterlimit:10" d="M5.807-5.806 22.261-22.26" transform="matrix(1 0 0 -1 53.029 3.159)"/><path style="fill:none;stroke-width:.3985;stroke-linecap:round;stroke-linejoin:round;stroke:#000;stroke-opacity:1;stroke-miterlimit:10" d="M-2.073 2.39C-1.695.956-.849.277.001 0-.849-.28-1.695-.954-2.07-2.39" transform="scale(1 -1) rotate(-45 6.863 -103.83)"/><path style="fill:none;stroke-width:.3985;stroke-linecap:butt;stroke-linejoin:miter;stroke:#000;stroke-opacity:1;stroke-miterlimit:10" d="m-31.849-35.353-7.59-15.176" transform="matrix(1 0 0 -1 53.029 3.159)"/><path style="fill:none;stroke-width:.3985;stroke-linecap:round;stroke-linejoin:round;stroke:#000;stroke-opacity:1;stroke-miterlimit:10" d="M-2.074 2.391C-1.693.957-.85.277 0 0c-.85-.276-1.693-.955-2.072-2.39" transform="matrix(-.44717 .89436 .89436 .44717 13.5 53.868)"/><path style="fill:none;stroke-width:.3985;stroke-linecap:butt;stroke-linejoin:miter;stroke:#000;stroke-opacity:1;stroke-miterlimit:10" d="m-24.845-35.353 6.988-13.977" transform="matrix(1 0 0 -1 53.029 3.159)"/><path style="fill:none;stroke-width:.3985;stroke-linecap:round;stroke-linejoin:round;stroke:#000;stroke-opacity:1;stroke-miterlimit:10" d="M-2.072 2.389C-1.692.954-.85.28 0-.001-.85-.28-1.696-.957-2.072-2.39" transform="matrix(.44717 .89436 .89436 -.44717 35.263 52.667)"/><path style="fill:none;stroke-width:.3985;stroke-linecap:butt;stroke-linejoin:miter;stroke:#000;stroke-opacity:1;stroke-miterlimit:10" d="m25.444-34.154-7.59-15.176" transform="matrix(1 0 0 -1 53.029 3.159)"/><path style="fill:none;stroke-width:.3985;stroke-linecap:round;stroke-linejoin:round;stroke:#000;stroke-opacity:1;stroke-miterlimit:10" d="M-2.072 2.39C-1.695.956-.852.28 0 0-.85-.28-1.692-.958-2.07-2.39" transform="matrix(-.44717 .89436 .89436 .44717 70.794 52.667)"/><path style="fill:none;stroke-width:.3985;stroke-linecap:butt;stroke-linejoin:miter;stroke:#000;stroke-opacity:1;stroke-miterlimit:10" d="m31.249-34.154 7.7-15.395" transform="matrix(1 0 0 -1 53.029 3.159)"/><path style="fill:none;stroke-width:.3985;stroke-linecap:round;stroke-linejoin:round;stroke:#000;stroke-opacity:1;stroke-miterlimit:10" d="M-2.071 2.39C-1.692.956-.851.278 0 0-.85-.277-1.692-.957-2.073-2.39" transform="matrix(.44717 .89436 .89436 -.44717 92.066 52.886)"/><path style="fill:none;stroke-width:.3985;stroke-linecap:butt;stroke-linejoin:miter;stroke:#000;stroke-opacity:1;stroke-miterlimit:10" d="M42.518-63.482v-14.184" transform="matrix(1 0 0 -1 53.029 3.159)"/><path style="fill:none;stroke-width:.3985;stroke-linecap:round;stroke-linejoin:round;stroke:#000;stroke-opacity:1;stroke-miterlimit:10" d="M-2.074 2.393C-1.694.955-.85.279.001-.002c-.852-.277-1.696-.953-2.075-2.39" transform="matrix(0 1 1 0 95.549 81.023)"/><path style="fill:none;stroke-width:.3985;stroke-linecap:butt;stroke-linejoin:miter;stroke:#000;stroke-opacity:1;stroke-miterlimit:10" d="M-3.564-55.318 5-57.533" transform="matrix(1 0 0 -1 53.029 3.159)"/><path style="fill:none;stroke-width:.3985;stroke-linecap:round;stroke-linejoin:round;stroke:#000;stroke-opacity:1;stroke-miterlimit:10" d="M-2.073 2.39C-1.694.956-.85.279 0 .002c-.852-.28-1.693-.958-2.073-2.391" transform="matrix(-.96812 -.25024 -.25024 .96812 49.27 58.429)"/><path style="fill:none;stroke-width:.3985;stroke-linecap:round;stroke-linejoin:round;stroke:#000;stroke-opacity:1;stroke-miterlimit:10" d="M-2.072 2.39C-1.694.958-.85.28.002 0-.85-.28-1.691-.957-2.071-2.39" transform="matrix(.96812 .25024 .25024 -.96812 58.22 60.742)"/><use xlink:href="#a" x="50.243" y="5.386" style="fill:#000;fill-opacity:1"/><use xlink:href="#b" x="21.498" y="34.932" style="fill:#000;fill-opacity:1"/><use xlink:href="#c" x="7.963" y="62.078" style="fill:#000;fill-opacity:1"/><use xlink:href="#d" x="35.672" y="63.279" style="fill:#000;fill-opacity:1"/><use xlink:href="#e" x="78.749" y="33.731" style="fill:#000;fill-opacity:1"/><use xlink:href="#f" x="65.453" y="63.339" style="fill:#000;fill-opacity:1"/><use xlink:href="#g" x="92.683" y="61.117" style="fill:#000;fill-opacity:1"/><use xlink:href="#h" x="92.365" y="91.654" style="fill:#000;fill-opacity:1"/><path style="fill:none;stroke-width:.3985;stroke-linecap:butt;stroke-linejoin:miter;stroke:#000;stroke-opacity:1;stroke-miterlimit:10" d="M-23.88-37.454h47.758v61.953h-47.757Zm0 0" transform="matrix(1 0 0 -1 25 45.678)"/><g style="fill:#000;fill-opacity:1"><use xlink:href="#i" x="16.96" y="79.809"/><use xlink:href="#j" x="19.919" y="79.809"/><use xlink:href="#k" x="25.22" y="79.809"/><use xlink:href="#l" x="29.205" y="79.809"/></g><path style="fill:none;stroke-width:.3985;stroke-linecap:butt;stroke-linejoin:miter;stroke:#000;stroke-opacity:1;stroke-miterlimit:10" d="M-23.478-51.009h46.957v89.067h-46.957Zm0 0" transform="matrix(1 0 0 -1 82.091 60.437)"/><g style="fill:#000;fill-opacity:1"><use xlink:href="#m" x="70.306" y="108.126"/><use xlink:href="#n" x="75.308" y="108.126"/><use xlink:href="#o" x="78.854" y="108.126"/><use xlink:href="#p" x="84.155" y="108.126"/><use xlink:href="#l" x="90.042" y="108.126"/></g></svg>