<svg xmlns="http://www.w3.org/2000/svg" xmlns:xlink="http://www.w3.org/1999/xlink" width="129.075" height="166.347" viewBox="0 0 96.806 124.76" version="1.2"><defs><symbol overflow="visible" id="a"><path style="stroke:none" d="M8.25 0v-.469h-.969L4.72-6.703c-.11-.25-.219-.25-.39-.25-.282 0-.329.078-.391.25l-2.47 6c-.062.156-.093.234-.843.234H.406V0l1.172-.031c.39 0 .938 0 1.313.031v-.469S2-.469 2-.594l.047-.125.5-1.203h2.672l.593 1.453H4.86V0c.391-.031 1.329-.031 1.766-.031.39 0 1.266 0 1.625.031ZM5.016-2.39H2.734l1.141-2.766Zm0 0"/></symbol><symbol overflow="visible" id="b"><path style="stroke:none" d="M7.5-1.86c0-.952-.844-1.624-2.031-1.702 1.078-.204 1.718-.797 1.718-1.563 0-.922-.875-1.719-2.468-1.719H.39v.469h1.078v5.906H.39V0h4.625C6.672 0 7.5-.875 7.5-1.86ZM5.766-5.124c0 .766-.47 1.39-1.438 1.39H2.766v-2.64h1.812c1.016 0 1.188.797 1.188 1.25Zm.28 3.266c0 .109 0 1.39-1.437 1.39H2.766v-2.906h1.937c.203 0 .672 0 1.016.422.328.422.328.984.328 1.094Zm0 0"/></symbol><symbol overflow="visible" id="c"><path style="stroke:none" d="M4.922 0v-.469h-1.39v-5.734c0-.234 0-.328-.266-.328-.11 0-.125 0-.22.078-.765.562-1.796.562-2 .562H.845v.47h.203c.156 0 .703-.016 1.297-.204v5.156H.954V0c.437-.031 1.5-.031 1.984-.031s1.546 0 1.984.031Zm0 0"/></symbol><symbol overflow="visible" id="d"><path style="stroke:none" d="M5.156-2.219h-.468c-.032.203-.125.844-.266.906-.11.063-.86.063-1.016.063H1.937c.47-.39 1-.813 1.438-1.14 1.14-.844 1.781-1.313 1.781-2.25 0-1.157-1.047-1.891-2.437-1.891-1.219 0-2.156.625-2.156 1.515 0 .594.484.735.718.735C1.61-4.281 2-4.5 2-5c0-.516-.422-.672-.563-.719.282-.234.672-.343 1.032-.343.844 0 1.312.671 1.312 1.421 0 .688-.375 1.375-1.078 2.079l-2 2.046c-.14.11-.14.141-.14.344V0h4.28Zm0 0"/></symbol><symbol overflow="visible" id="e"><path style="stroke:none" d="M5.25-1.797c0-.547-.297-1.406-1.734-1.719.687-.203 1.406-.765 1.406-1.625 0-.765-.75-1.39-2.156-1.39-1.188 0-1.97.64-1.97 1.437 0 .422.313.703.688.703a.668.668 0 0 0 .704-.687c0-.578-.547-.688-.579-.703.344-.282.782-.36 1.094-.36.828 0 .86.641.86.97 0 .124-.016 1.437-1.047 1.5-.407.015-.438.015-.485.03-.094.016-.125.11-.125.172 0 .172.11.172.282.172h.437c1.094 0 1.094.985 1.094 1.5 0 .469 0 1.484-1.031 1.484-.266 0-.782-.046-1.266-.343C1.75-.75 2-1 2-1.406c0-.453-.313-.75-.75-.75-.422 0-.766.265-.766.765 0 .907.97 1.5 2.25 1.5 1.782 0 2.516-1 2.516-1.906Zm0 0"/></symbol><symbol overflow="visible" id="i"><path style="stroke:none" d="M7.64-2.266c0-.203-.077-.203-.25-.203-.124 0-.218 0-.218.172C7.094-.969 5.89-.359 4.89-.359c-.782 0-1.625-.235-2.141-.844-.469-.578-.594-1.313-.594-2.219 0-.562.031-1.625.672-2.297.64-.656 1.516-.765 2.031-.765 1.079 0 2.016.765 2.235 2.03.031.188.047.204.265.204.266 0 .282-.016.282-.281v-2.14c0-.188 0-.282-.188-.282-.094 0-.11.031-.187.094l-.657.593a3.03 3.03 0 0 0-1.968-.687c-2.485 0-4 1.484-4 3.531S2.156.11 4.64.11c1.875 0 3-1.218 3-2.375Zm0 0"/></symbol><symbol overflow="visible" id="f"><path style="stroke:none" d="M4.75-2.36c0-1.562-.922-2.046-1.656-2.046-1.375 0-2.688 1.422-2.688 2.828C.406-.641 1 .109 2.031.109c.625 0 1.344-.234 2.094-.843.125.53.453.843.906.843.532 0 .844-.546.844-.703 0-.078-.063-.11-.125-.11-.063 0-.094.032-.125.11-.188.485-.547.485-.563.485-.312 0-.312-.782-.312-1.016 0-.203 0-.234.11-.344C5.796-2.656 6-3.812 6-3.812c0-.032-.016-.11-.125-.11-.094 0-.094.031-.14.219-.188.625-.516 1.375-.985 1.969ZM4.094-.983c-.89.765-1.657.875-2.047.875-.594 0-.906-.454-.906-1.094 0-.484.265-1.563.578-2.063.468-.734 1.015-.921 1.36-.921.983 0 .983 1.312.983 2.078 0 .375 0 .953.032 1.125Zm0 0"/></symbol><symbol overflow="visible" id="g"><path style="stroke:none" d="M5.734-5.672c0-.75-.546-1.36-1.359-1.36-.578 0-.86.157-1.203.407C2.625-6.219 2.078-5.25 1.89-4.5L.297 1.828c0 .047.047.11.125.11s.11-.032.11-.047l.702-2.766c.188.61.625.969 1.36.969.719 0 1.469-.344 1.922-.781a2.486 2.486 0 0 0 .796-1.829c0-.718-.375-1.25-.734-1.484.578-.344 1.156-.953 1.156-1.672ZM3.938-4.016c-.126.047-.235.063-.485.063-.14 0-.328.015-.437-.031.03-.11.39-.079.5-.079.203 0 .296 0 .421.047Zm1.234-1.89c0 .703-.375 1.422-.89 1.734-.282-.11-.47-.125-.766-.125-.22 0-.782-.016-.782.313 0 .28.516.25.688.25.375 0 .531 0 .828-.125.375.359.422.671.438 1.125.015.578-.22 1.328-.5 1.718-.391.532-1.063.891-1.625.891-.766 0-1.141-.578-1.141-1.281 0-.094 0-.25.047-.438l.64-2.515c.22-.86.938-2.454 2.141-2.454.578 0 .922.313.922.907Zm0 0"/></symbol><symbol overflow="visible" id="h"><path style="stroke:none" d="M.406-2.531C.796-3.671 1.891-3.687 2-3.687c1.5 0 1.61 1.75 1.61 2.53 0 .61-.047.782-.126.985-.218.719-.515 1.875-.515 2.14 0 .11.047.173.125.173.14 0 .219-.22.328-.594.234-.844.328-1.406.36-1.719.03-.125.046-.25.093-.39.313-.985.953-2.47 1.344-3.25.078-.126.187-.344.187-.391 0-.094-.093-.094-.11-.094-.03 0-.093 0-.124.063-.516.953-.922 1.953-1.313 2.953-.015-.297-.015-1.063-.406-2.032-.25-.609-.64-1.093-1.328-1.093-1.25 0-1.953 1.515-1.953 1.828 0 .094.094.094.203.094Zm0 0"/></symbol><symbol overflow="visible" id="j"><path style="stroke:none" d="M2.375-1.563c.016-.015.094-.093.125-.093s.406.437.484.515c.282.313.579.625.875.938.032.047.063.047.079.047.078 0 .109-.078.109-.11 0-.046-.313-.593-.594-1.093l-.39-.72 1.734-.796c.14-.078.14-.11.14-.156 0-.047-.03-.094-.109-.094 0 0-.484.078-1.984.39l-.235-1.874c-.015-.188-.03-.22-.109-.22-.094 0-.125.048-.14.22l-.22 1.875L.298-3.11c-.047-.016-.125-.016-.14-.016-.079 0-.11.047-.11.094 0 .078.047.094.156.156l1.734.797L1-.422c-.047.11-.063.125-.063.156 0 .032.032.11.11.11.016 0 .047 0 .156-.11Zm0 0"/></symbol><symbol overflow="visible" id="k"><path style="stroke:none" d="M4.422-2.5c0-1.063-.89-1.922-1.922-1.922-1.078 0-1.953.89-1.953 1.922A1.95 1.95 0 0 0 2.5-.562c1.031 0 1.922-.86 1.922-1.938ZM2.5-.953A1.54 1.54 0 0 1 .953-2.5c0-.828.688-1.531 1.547-1.531.813 0 1.531.687 1.531 1.531 0 .86-.718 1.547-1.531 1.547Zm0 0"/></symbol><symbol overflow="visible" id="l"><path style="stroke:none" d="M2.719 8.766c-.14 1.64-.5 2.093-1.063 2.093-.125 0-.437-.03-.64-.218a.397.397 0 0 0 .375-.407.406.406 0 0 0-.407-.421.414.414 0 0 0-.421.437c0 .469.5.828 1.093.828.953 0 1.422-.875 1.64-1.765.126-.516.485-3.422.579-4.532l.188-2.484C4.202.469 4.53.219 4.984.219c.094 0 .407.015.625.203a.418.418 0 0 0-.359.422c0 .281.219.406.406.406.203 0 .422-.125.422-.422 0-.484-.5-.828-1.11-.828-.937 0-1.327.969-1.5 1.719-.124.547-.484 3.36-.562 4.578Zm0 0"/></symbol></defs><use xlink:href="#a" x=".516" y="65.371" style="fill:#000;fill-opacity:1"/><use xlink:href="#b" x="44.559" y="65.311" style="fill:#000;fill-opacity:1"/><path style="fill:none;stroke-width:.3985;stroke-linecap:butt;stroke-linejoin:miter;stroke:#000;stroke-opacity:1;stroke-miterlimit:10" d="M7.847 0h27.95" transform="matrix(1 0 0 -1 4.844 61.894)"/><path style="fill:none;stroke-width:.3985;stroke-linecap:round;stroke-linejoin:round;stroke:#000;stroke-opacity:1;stroke-miterlimit:10" d="M-2.07 2.39C-1.693.957-.853.28 0 0c-.852-.278-1.692-.958-2.07-2.391" transform="matrix(1 0 0 -1 40.84 61.894)"/><use xlink:href="#c" x="45.77" y="84.545" style="fill:#000;fill-opacity:1"/><path style="fill:none;stroke-width:.3985;stroke-linecap:butt;stroke-linejoin:miter;stroke:#000;stroke-opacity:1;stroke-miterlimit:10" d="M43.789-6.938v-5.27" transform="matrix(1 0 0 -1 4.844 61.894)"/><path style="fill:none;stroke-width:.3985;stroke-linecap:round;stroke-linejoin:round;stroke:#000;stroke-opacity:1;stroke-miterlimit:10" d="M-2.07 2.39C-1.693.955-.853.28 0-.002c-.852-.278-1.692-.957-2.07-2.39" transform="matrix(0 1 1 0 48.634 74.301)"/><use xlink:href="#d" x="45.77" y="103.78" style="fill:#000;fill-opacity:1"/><path style="fill:none;stroke-width:.3985;stroke-linecap:butt;stroke-linejoin:miter;stroke:#000;stroke-opacity:1;stroke-miterlimit:10" d="M43.789-26.172v-5.27" transform="matrix(1 0 0 -1 4.844 61.894)"/><path style="fill:none;stroke-width:.3985;stroke-linecap:round;stroke-linejoin:round;stroke:#000;stroke-opacity:1;stroke-miterlimit:10" d="M-2.07 2.39C-1.693.955-.849.28 0-.002c-.848-.278-1.692-.957-2.07-2.39" transform="matrix(0 1 1 0 48.634 93.536)"/><use xlink:href="#e" x="45.77" y="123.014" style="fill:#000;fill-opacity:1"/><path style="fill:none;stroke-width:.3985;stroke-linecap:butt;stroke-linejoin:miter;stroke:#000;stroke-opacity:1;stroke-miterlimit:10" d="M43.789-45.407v-5.27" transform="matrix(1 0 0 -1 4.844 61.894)"/><path style="fill:none;stroke-width:.3985;stroke-linecap:round;stroke-linejoin:round;stroke:#000;stroke-opacity:1;stroke-miterlimit:10" d="M-2.071 2.39C-1.692.955-.848.28-.001-.002c-.847-.278-1.691-.957-2.07-2.39" transform="matrix(0 1 1 0 48.634 112.77)"/><use xlink:href="#f" x="45.429" y="45.768" style="fill:#000;fill-opacity:1"/><path style="fill:none;stroke-width:.3985;stroke-linecap:butt;stroke-linejoin:miter;stroke:#000;stroke-opacity:1;stroke-miterlimit:10" d="M43.789 6.937v5.27" transform="matrix(1 0 0 -1 4.844 61.894)"/><path style="fill:none;stroke-width:.3985;stroke-linecap:round;stroke-linejoin:round;stroke:#000;stroke-opacity:1;stroke-miterlimit:10" d="M-2.072 2.392C-1.692.958-.849.279-.002.002c-.847-.282-1.69-.958-2.07-2.391" transform="matrix(0 -1 -1 0 48.634 49.487)"/><use xlink:href="#g" x="45.553" y="26.832" style="fill:#000;fill-opacity:1"/><path style="fill:none;stroke-width:.3985;stroke-linecap:butt;stroke-linejoin:miter;stroke:#000;stroke-opacity:1;stroke-miterlimit:10" d="M43.789 23.937v5.27" transform="matrix(1 0 0 -1 4.844 61.894)"/><path style="fill:none;stroke-width:.3985;stroke-linecap:round;stroke-linejoin:round;stroke:#000;stroke-opacity:1;stroke-miterlimit:10" d="M-2.074 2.392C-1.695.958-.851.279 0 .002-.85-.28-1.695-.957-2.074-2.39" transform="matrix(0 -1 -1 0 48.634 32.488)"/><use xlink:href="#h" x="45.778" y="5.268" style="fill:#000;fill-opacity:1"/><path style="fill:none;stroke-width:.3985;stroke-linecap:butt;stroke-linejoin:miter;stroke:#000;stroke-opacity:1;stroke-miterlimit:10" d="M43.789 45.5v5.273" transform="matrix(1 0 0 -1 4.844 61.894)"/><path style="fill:none;stroke-width:.3985;stroke-linecap:round;stroke-linejoin:round;stroke:#000;stroke-opacity:1;stroke-miterlimit:10" d="M-2.073 2.392C-1.693.958-.85.279.002.002-.85-.28-1.694-.957-2.073-2.39" transform="matrix(0 -1 -1 0 48.634 10.924)"/><use xlink:href="#i" x="88.094" y="65.311" style="fill:#000;fill-opacity:1"/><path style="fill:none;stroke-width:.3985;stroke-linecap:butt;stroke-linejoin:miter;stroke:#000;stroke-opacity:1;stroke-miterlimit:10" d="m48.937-51.075 32.91 43.711" transform="matrix(1 0 0 -1 4.844 61.894)"/><path style="fill:none;stroke-width:.3985;stroke-linecap:round;stroke-linejoin:round;stroke:#000;stroke-opacity:1;stroke-miterlimit:10" d="M-2.071 2.39C-1.696.958-.848.28-.001-.001c-.848-.276-1.691-.955-2.072-2.391" transform="scale(1 -1) rotate(53.021 112.67 52.468)"/><path style="fill:none;stroke-width:.3985;stroke-linecap:butt;stroke-linejoin:miter;stroke:#000;stroke-opacity:1;stroke-miterlimit:10" d="M48.793 51.171 81.84 7.367" transform="matrix(1 0 0 -1 4.844 61.894)"/><path style="fill:none;stroke-width:.3985;stroke-linecap:round;stroke-linejoin:round;stroke:#000;stroke-opacity:1;stroke-miterlimit:10" d="M-2.071 2.393C-1.691.956-.852.279-.001-.001c-.848-.28-1.69-.956-2.073-2.39" transform="matrix(.60223 .7983 .7983 -.60223 86.802 54.688)"/><path style="fill:none;stroke-width:.3985;stroke-linecap:butt;stroke-linejoin:miter;stroke:#000;stroke-opacity:1;stroke-miterlimit:10" d="M51.386 0h27.946" transform="matrix(1 0 0 -1 4.844 61.894)"/><path style="fill:none;stroke-width:.3985;stroke-linecap:round;stroke-linejoin:round;stroke:#000;stroke-opacity:1;stroke-miterlimit:10" d="M-2.071 2.39C-1.693.957-.85.28-.001 0c-.848-.278-1.692-.958-2.07-2.391" transform="matrix(1 0 0 -1 84.376 61.894)"/><use xlink:href="#j" x="89.743" y="82.765" style="fill:#000;fill-opacity:1"/><path style="fill:none;stroke-width:.3985;stroke-linecap:butt;stroke-linejoin:miter;stroke:#000;stroke-opacity:1;stroke-miterlimit:10" d="M87.39-7.047v-5.27" transform="matrix(1 0 0 -1 4.844 61.894)"/><path style="fill:none;stroke-width:.3985;stroke-linecap:round;stroke-linejoin:round;stroke:#000;stroke-opacity:1;stroke-miterlimit:10" d="M-2.07 2.39C-1.693.957-.849.28 0 0c-.848-.278-1.692-.957-2.07-2.391" transform="matrix(0 1 1 0 92.235 74.41)"/><use xlink:href="#k" x="89.743" y="99.902" style="fill:#000;fill-opacity:1"/><path style="fill:none;stroke-width:.3985;stroke-linecap:butt;stroke-linejoin:miter;stroke:#000;stroke-opacity:1;stroke-miterlimit:10" d="M87.39-24.391v-5.27" transform="matrix(1 0 0 -1 4.844 61.894)"/><path style="fill:none;stroke-width:.3985;stroke-linecap:round;stroke-linejoin:round;stroke:#000;stroke-opacity:1;stroke-miterlimit:10" d="M-2.072 2.39C-1.692.957-.849.28-.002 0c-.847-.278-1.69-.957-2.07-2.391" transform="matrix(0 1 1 0 92.235 91.755)"/><use xlink:href="#l" x="88.913" y="112.61" style="fill:#000;fill-opacity:1"/><path style="fill:none;stroke-width:.3985;stroke-linecap:butt;stroke-linejoin:miter;stroke:#000;stroke-opacity:1;stroke-miterlimit:10" d="M87.39-41.528v-5.27" transform="matrix(1 0 0 -1 4.844 61.894)"/><path style="fill:none;stroke-width:.3985;stroke-linecap:round;stroke-linejoin:round;stroke:#000;stroke-opacity:1;stroke-miterlimit:10" d="M-2.072 2.39C-1.692.957-.849.28-.002 0c-.847-.278-1.69-.957-2.07-2.391" transform="matrix(0 1 1 0 92.235 108.892)"/></svg>