<svg xmlns="http://www.w3.org/2000/svg" xmlns:xlink="http://www.w3.org/1999/xlink" width="118.383" height="78.531" viewBox="0 0 88.787 58.898" version="1.2"><defs><symbol overflow="visible" id="b"><path style="stroke:none" d="M7.5-1.86c0-.952-.844-1.624-2.031-1.702 1.078-.204 1.718-.797 1.718-1.563 0-.922-.875-1.719-2.468-1.719H.39v.469h1.078v5.906H.39V0h4.625C6.672 0 7.5-.875 7.5-1.86ZM5.766-5.124c0 .766-.47 1.39-1.438 1.39H2.766v-2.64h1.812c1.016 0 1.188.797 1.188 1.25Zm.28 3.266c0 .109 0 1.39-1.437 1.39H2.766v-2.906h1.937c.203 0 .672 0 1.016.422.328.422.328.984.328 1.094Zm0 0"/></symbol><symbol overflow="visible" id="c"><path style="stroke:none" d="M7.969-3.375c0-2.156-1.453-3.578-3.657-3.578-2.28 0-3.671 1.484-3.671 3.578C.64-1.312 2.03.109 4.297.109c2.297 0 3.672-1.437 3.672-3.484Zm-1.532-.156c0 .703-.03 1.594-.453 2.281a1.97 1.97 0 0 1-1.687.938 1.938 1.938 0 0 1-1.719-1.032c-.328-.625-.422-1.328-.422-2.187 0-.64.031-1.485.469-2.156a2.01 2.01 0 0 1 1.672-.86c.64 0 1.328.281 1.719.938.39.64.421 1.406.421 2.078Zm0 0"/></symbol><symbol overflow="visible" id="d"><path style="stroke:none" d="M10.484 0v-.469H9.406v-5.906h1.078v-.469H8.281c-.219 0-.344 0-.453.25l-2.39 5.282-2.391-5.282c-.11-.25-.219-.25-.438-.25H.406v.469H1.47V-.75c0 .219 0 .219-.282.25-.234.031-.265.031-.546.031H.406V0c.375-.031.938-.031 1.328-.031.422 0 .938 0 1.344.031v-.469h-.25c-.172 0-.344-.015-.531-.031C2.016-.531 2-.531 2-.75v-5.484h.016L4.719-.25c.093.203.218.25.328.25.203 0 .281-.156.312-.234l2.782-6.141h.015v5.906H7.078V0c.36-.031 1.281-.031 1.688-.031.421 0 1.359 0 1.718.031Zm0 0"/></symbol><symbol overflow="visible" id="e"><path style="stroke:none" d="M2.531-6.313c0-.39-.36-.718-.781-.718-.438 0-.797.328-.797.718 0 .047 0 .079.031.172L1.5-2.516c.031.25.031.266.25.266.188 0 .219-.016.25-.219l.516-3.719ZM2.516-.78a.78.78 0 0 0-.766-.781.784.784 0 0 0-.781.78.774.774 0 1 0 1.547 0Zm0 0"/></symbol><clipPath id="a"><path d="M0 0h88.68v58.848H0Zm0 0"/></clipPath></defs><path style="fill:none;stroke-width:.19925;stroke-linecap:butt;stroke-linejoin:miter;stroke:gray;stroke-opacity:1;stroke-miterlimit:10" d="M.001 0h85.04M0 28.347h85.04M0 56.683h85.04M0 0v56.695M28.345 0v56.695M56.693 0v56.695M85.029 0v56.695" transform="matrix(1 0 0 -1 1.002 57.742)"/><g clip-path="url(#a)"><path style="fill:none;stroke-width:.3985;stroke-linecap:butt;stroke-linejoin:miter;stroke:#000;stroke-opacity:1;stroke-miterlimit:10" d="m42.52 52.656-6.023-10.379-8.187 5.39-3.05-7.269-13.833 8.297 4.926-11.808-10.43 1.386 5.059-6.047-9.719-1.773 8.61-3.414-5.989-4.59 9.285-.418-6.695-9.687 13.957 5.53 2.211-5.804 8.035 3.063 3.63-12.438 8.214 11.477 7.426-7.262 4.418 8.223 8.074-3.125 2.172 5.867 11.054-3.34-3.793 7.496 13.926-.902-10.629 5.91 5.246 3.101-6.359 2.086 7.297 7.157-12.664-2.496 1.762 8.34-10.668-4.829-1.215 12.008-10.024-10.129Zm0 0" transform="matrix(1 0 0 -1 1.002 57.742)"/></g><g style="fill:#000;fill-opacity:1"><use xlink:href="#b" x="23.657" y="32.852"/><use xlink:href="#c" x="31.806" y="32.852"/><use xlink:href="#c" x="40.414" y="32.852"/><use xlink:href="#d" x="49.021" y="32.852"/><use xlink:href="#e" x="59.901" y="32.852"/></g></svg>