<svg xmlns="http://www.w3.org/2000/svg" xmlns:xlink="http://www.w3.org/1999/xlink" width="130.923" height="142.227" viewBox="0 0 98.192 106.67" version="1.2"><defs><symbol overflow="visible" id="a"><path style="stroke:none" d="M5.281-3.188c0-.953-.015-3.343-2.422-3.343C.453-6.531.453-4.156.453-3.188c0 1 0 3.297 2.406 3.297 2.391 0 2.422-2.296 2.422-3.296ZM4-3.296c0 .563 0 1.469-.078 1.985-.14.921-.766 1.062-1.063 1.062-.359 0-.921-.219-1.046-.953-.094-.516-.094-1.547-.094-2.094 0-.719 0-1.375.078-1.89.125-.891.828-.985 1.062-.985.375 0 .782.188.97.625C4-5.172 4-4.109 4-3.297Zm0 0"/></symbol><symbol overflow="visible" id="e"><path style="stroke:none" d="M4.922 0v-.469h-1.39v-5.734c0-.234 0-.328-.266-.328-.11 0-.125 0-.22.078-.765.562-1.796.562-2 .562H.845v.47h.203c.156 0 .703-.016 1.297-.204v5.156H.954V0c.437-.031 1.5-.031 1.984-.031s1.546 0 1.984.031Zm0 0"/></symbol><symbol overflow="visible" id="b"><path style="stroke:none" d="M5.375-.844c-.016.516-.484.735-.828.735-.438 0-.828-.36-1.031-.563.437-.437.859-1.062 1.171-1.531.172-.25.36-.547.985-.547V-3A9.664 9.664 0 0 1 5-2.969c-.313 0-.86-.031-.875-.031v.25c.25 0 .422.11.422.266 0 .062-.031.125-.031.125-.016.03-.344.515-.579.828-.296.422-.5.593-.578.687-.062-.062-.921-1-1.25-1.797.563-.578.97-.984.97-1.421 0-.36-.188-.907-.704-.907-.5 0-1.078.39-1.078 1.14 0 .61.203 1.157.297 1.392l-.75.703c-.25.234-.469.437-.469.828 0 .625.64 1.047 1.406 1.047.703 0 1.203-.375 1.375-.516.406.313.86.516 1.375.516.563 0 1.078-.391 1.078-.985Zm-3.344-2A3.46 3.46 0 0 1 1.812-4c0-.5.282-.781.563-.781.375 0 .469.515.469.718 0 .344-.328.735-.813 1.22Zm-.344.594c.422.906 1.157 1.61 1.297 1.734-.343.235-.734.407-1.156.407-.562 0-.812-.563-.812-1 0-.516.187-.704.671-1.141Zm0 0"/></symbol><symbol overflow="visible" id="d"><path style="stroke:none" d="M2.328-4.438c0-.187 0-.187-.203-.187-.453.438-1.078.438-1.36.438v.25c.157 0 .626 0 1-.188v3.547c0 .234 0 .328-.687.328H.812V0c.125 0 .985-.031 1.235-.031.219 0 1.094.031 1.25.031v-.25H3.03c-.703 0-.703-.094-.703-.328Zm0 0"/></symbol><symbol overflow="visible" id="c"><path style="stroke:none" d="M5.297-2.313c.125-.062.172-.109.172-.187s-.047-.14-.172-.188l-4.234-2.03c-.094-.063-.125-.063-.141-.063-.094 0-.172.078-.172.187 0 .094.094.14.156.172l4 1.922L.938-.594C.813-.53.75-.516.75-.39a.17.17 0 0 0 .172.157c.015 0 .047 0 .125-.032Zm-.11 3.61c.11 0 .282 0 .282-.156 0-.172-.172-.172-.282-.172H1.032c-.125 0-.281 0-.281.172 0 .156.172.156.281.156Zm0 0"/></symbol></defs><use xlink:href="#a" x=".181" y="7.342" style="fill:#000;fill-opacity:1"/><path style="fill:none;stroke-width:.3985;stroke-linecap:butt;stroke-linejoin:miter;stroke:#000;stroke-opacity:1;stroke-miterlimit:10" d="M-8.716-13.948H8.718v27.894H-8.716Zm0 0" transform="matrix(1 0 0 -1 37.989 24.919)"/><use xlink:href="#b" x="34.931" y="18.026" style="fill:#000;fill-opacity:1"/><use xlink:href="#a" x=".181" y="56.421" style="fill:#000;fill-opacity:1"/><path style="fill:none;stroke-width:.3985;stroke-linecap:butt;stroke-linejoin:miter;stroke:#000;stroke-opacity:1;stroke-miterlimit:10" d="M-8.718-13.947H8.719v27.894H-8.718Zm0 0" transform="matrix(1 0 0 -1 79.351 53.213)"/><use xlink:href="#c" x="74.252" y="46.257" style="fill:#000;fill-opacity:1"/><use xlink:href="#d" x="80.479" y="46.257" style="fill:#000;fill-opacity:1"/><path style="fill:none;stroke-width:.3985;stroke-linecap:butt;stroke-linejoin:miter;stroke:#000;stroke-opacity:1;stroke-miterlimit:10" d="M-8.716-13.947H8.718v27.894H-8.716ZM12.406-.002a1.745 1.745 0 1 1-3.487.003 1.745 1.745 0 0 1 3.487-.003Zm0 0" transform="matrix(1 0 0 -1 37.989 81.506)"/><use xlink:href="#b" x="34.931" y="74.613" style="fill:#000;fill-opacity:1"/><use xlink:href="#e" x=".181" y="105.499" style="fill:#000;fill-opacity:1"/><path style="fill:none;stroke-width:.3985;stroke-linecap:butt;stroke-linejoin:miter;stroke:#000;stroke-opacity:1;stroke-miterlimit:10" d="M-33.134 49.025h8.504v-16.07h11.14M-33.134-.053h8.504v23.578h11.14M-33.134-.053h8.504v-23.582h11.14M-33.134-49.08h8.504v16.015h11.14M4.342 28.24h8.504V4.662H27.87M8.03-28.35h8.504v23.578H27.87M45.706-.053h8.503" transform="matrix(1 0 0 -1 42.564 53.158)"/></svg>