<svg xmlns="http://www.w3.org/2000/svg" width="54.159" height="54.147" viewBox="0 0 40.619 40.61" version="1.2"><defs><clipPath id="a"><path d="M0 13h27v27.414H0Zm0 0"/></clipPath></defs><path style="fill:none;stroke-width:.19925;stroke-linecap:butt;stroke-linejoin:miter;stroke:gray;stroke-opacity:1;stroke-miterlimit:10" d="M0 .001h28.348M0 28.337h28.348M0 0v28.348M28.336 0v28.348" transform="matrix(1 0 0 -1 10.98 29.251)"/><path style="stroke:none;fill-rule:nonzero;fill:#d2c92a;fill-opacity:1" d="M20.941 29.25c0-5.5-4.457-9.96-9.96-9.96-5.504 0-9.961 4.46-9.961 9.96 0 5.504 4.457 9.965 9.96 9.965 5.504 0 9.961-4.461 9.961-9.965Zm0 0"/><g clip-path="url(#a)"><path style="fill:none;stroke-width:.3985;stroke-linecap:butt;stroke-linejoin:miter;stroke:#000;stroke-opacity:1;stroke-miterlimit:10" d="M9.96.001c0 5.5-4.456 9.96-9.96 9.96-5.504 0-9.961-4.46-9.961-9.96 0-5.504 4.457-9.965 9.961-9.965 5.504 0 9.96 4.461 9.96 9.965Zm0 0" transform="matrix(1 0 0 -1 10.98 29.251)"/></g></svg>