<svg xmlns="http://www.w3.org/2000/svg" xmlns:xlink="http://www.w3.org/1999/xlink" width="139.587" height="83.007" viewBox="0 0 104.69 62.255" version="1.2"><defs><symbol overflow="visible" id="b"><path style="stroke:none" d="M5.563-1.813c.14 0 .312 0 .312-.171 0-.188-.172-.188-.313-.188H1c-.125 0-.297 0-.297.188 0 .171.172.171.297.171Zm0 0"/></symbol><symbol overflow="visible" id="c"><path style="stroke:none" d="M3.89-2.547c0-.844-.078-1.36-.343-1.875-.344-.703-1-.875-1.438-.875-1 0-1.375.75-1.484.969C.344-3.75.328-2.953.328-2.547c0 .531.016 1.328.406 1.969.36.594.954.75 1.375.75.391 0 1.063-.125 1.47-.906.296-.579.312-1.297.312-1.813ZM2.11-.062c-.266 0-.813-.126-.985-.954-.094-.453-.094-1.203-.094-1.625 0-.546 0-1.109.094-1.546.172-.813.781-.891.984-.891.266 0 .829.14.985.86.094.437.094 1.046.094 1.577 0 .47 0 1.188-.094 1.641-.172.828-.719.938-.985.938Zm0 0"/></symbol><symbol overflow="visible" id="e"><path style="stroke:none" d="M1.11-4.484c.109.03.421.125.765.125 1 0 1.594-.704 1.594-.829 0-.093-.047-.109-.094-.109-.016 0-.031 0-.094.031a2.982 2.982 0 0 1-1.11.22c-.468 0-.858-.11-1.108-.22-.079-.03-.094-.03-.11-.03-.094 0-.094.077-.094.234v2.328c0 .14 0 .234.125.234.063 0 .079-.031.125-.094.094-.11.391-.515 1.079-.515.437 0 .656.359.734.515.125.281.14.656.14.953 0 .297 0 .735-.218 1.079-.156.25-.485.484-.906.484A1.271 1.271 0 0 1 .734-.922c.016.016.079.016.079.016.218 0 .406-.14.406-.39a.388.388 0 0 0-.39-.407c-.157 0-.407.078-.407.422 0 .718.625 1.453 1.531 1.453 1 0 1.844-.781 1.844-1.766 0-.922-.672-1.75-1.61-1.75-.39 0-.765.125-1.078.406Zm0 0"/></symbol><symbol overflow="visible" id="f"><path style="stroke:none" d="M2.5-5.078c0-.219-.016-.219-.234-.219-.329.313-.75.5-1.5.5v.266c.218 0 .64 0 1.109-.203v4.078c0 .297-.031.39-.781.39H.812V0c.329-.031 1.016-.031 1.375-.031.36 0 1.047 0 1.376.031v-.266H3.28c-.75 0-.781-.093-.781-.39Zm0 0"/></symbol><symbol overflow="visible" id="d"><path style="stroke:none" d="M1.625-.438a.463.463 0 0 0-.453-.453.447.447 0 0 0-.438.438.44.44 0 0 0 .438.453.45.45 0 0 0 .453-.438Zm0 0"/></symbol><clipPath id="a"><path d="M16 0h88.535v57H16Zm0 0"/></clipPath></defs><path style="fill:none;stroke-width:.3985;stroke-linecap:round;stroke-linejoin:miter;stroke:gray;stroke-opacity:1;stroke-miterlimit:10" d="M19.192-3.836v1.097M38.782-3.836v1.097M58.367-3.836v1.097M77.953-3.836v1.097M-3.836 7.425h1.098M-3.836 21.882h1.098M-3.836 36.343h1.098" transform="matrix(1 0 0 -1 24.156 49.086)"/><path style="fill:none;stroke-width:.3985;stroke-linecap:butt;stroke-linejoin:miter;stroke:gray;stroke-opacity:1;stroke-miterlimit:10" d="M0-2.739h77.953" transform="matrix(1 0 0 -1 24.156 49.086)"/><path style="fill:none;stroke-width:.3985;stroke-linecap:square;stroke-linejoin:miter;stroke:#bfbfbf;stroke-opacity:1;stroke-miterlimit:10" d="M0 0h77.953M0 48.175h77.953" transform="matrix(1 0 0 -1 24.156 49.086)"/><path style="fill:none;stroke-width:.3985;stroke-linecap:butt;stroke-linejoin:miter;stroke:gray;stroke-opacity:1;stroke-miterlimit:10" d="M-2.738 0v48.175" transform="matrix(1 0 0 -1 24.156 49.086)"/><path style="fill:none;stroke-width:.3985;stroke-linecap:square;stroke-linejoin:miter;stroke:#bfbfbf;stroke-opacity:1;stroke-miterlimit:10" d="M0 0v48.175M77.953 0v48.175" transform="matrix(1 0 0 -1 24.156 49.086)"/><g clip-path="url(#a)"><path style="fill:none;stroke-width:.59776;stroke-linecap:butt;stroke-linejoin:miter;stroke:#000;stroke-opacity:1;stroke-miterlimit:10" d="M77.465 22.543 60.434 45.554m-1.309.703-35.824 1.875m-1.406-.535L.586 26.543M.371 25.23 12.805.734" transform="matrix(1 0 0 -1 24.156 49.086)"/></g><use xlink:href="#b" x="34.646" y="60.714" style="fill:#000;fill-opacity:1"/><use xlink:href="#c" x="41.232" y="60.714" style="fill:#000;fill-opacity:1"/><use xlink:href="#d" x="45.466" y="60.714" style="fill:#000;fill-opacity:1"/><use xlink:href="#e" x="47.819" y="60.714" style="fill:#000;fill-opacity:1"/><use xlink:href="#c" x="60.819" y="60.714" style="fill:#000;fill-opacity:1"/><use xlink:href="#c" x="77.112" y="60.714" style="fill:#000;fill-opacity:1"/><use xlink:href="#d" x="81.346" y="60.714" style="fill:#000;fill-opacity:1"/><use xlink:href="#e" x="83.698" y="60.714" style="fill:#000;fill-opacity:1"/><use xlink:href="#f" x="99.991" y="60.714" style="fill:#000;fill-opacity:1"/><use xlink:href="#b" x=".257" y="43.813" style="fill:#000;fill-opacity:1"/><use xlink:href="#c" x="6.844" y="43.813" style="fill:#000;fill-opacity:1"/><use xlink:href="#d" x="11.078" y="43.813" style="fill:#000;fill-opacity:1"/><use xlink:href="#e" x="13.43" y="43.813" style="fill:#000;fill-opacity:1"/><use xlink:href="#c" x="13.43" y="29.77" style="fill:#000;fill-opacity:1"/><use xlink:href="#c" x="6.844" y="15.313" style="fill:#000;fill-opacity:1"/><use xlink:href="#d" x="11.078" y="15.313" style="fill:#000;fill-opacity:1"/><use xlink:href="#e" x="13.43" y="15.313" style="fill:#000;fill-opacity:1"/></svg>