<svg xmlns="http://www.w3.org/2000/svg" xmlns:xlink="http://www.w3.org/1999/xlink" width="429.963" height="353.379" viewBox="0 0 322.472 265.034" version="1.2"><defs><symbol overflow="visible" id="a"><path style="stroke:none" d="M4.922 0v-.469h-1.39v-5.734c0-.234 0-.328-.266-.328-.11 0-.125 0-.22.078-.765.562-1.796.562-2 .562H.845v.47h.203c.156 0 .703-.016 1.297-.204v5.156H.954V0c.437-.031 1.5-.031 1.984-.031s1.546 0 1.984.031Zm0 0"/></symbol><symbol overflow="visible" id="b"><path style="stroke:none" d="M5.25-3.281c0-.672 0-3.25-2.375-3.25-1.406 0-2.39.812-2.39 2.14 0 1.375.984 2.125 2.203 2.125.359 0 .828-.062 1.203-.765v.219c0 .734-.094 1.312-.235 1.656-.172.39-.61.843-1.297.843-.171 0-.53-.03-.828-.218.11-.031.485-.172.485-.625 0-.344-.235-.625-.625-.625-.391 0-.625.265-.625.64 0 .688.515 1.25 1.609 1.25C3.672.11 5.25-.734 5.25-3.28Zm-1.375-.985c0 .625-.25 1.641-1.094 1.641-.953 0-.953-.75-.953-1.734 0-.985 0-1.782 1.078-1.782.578 0 .813.532.86.625.109.329.109.907.109 1.25Zm0 0"/></symbol><symbol overflow="visible" id="c"><path style="stroke:none" d="M5.563-6.422H3.53c-.234 0-1.703-.047-1.844-.094-.203-.03-.218-.125-.234-.218H.984l-.343 2.53h.468c.094-.765.22-.89.266-.905.11-.063.922-.063 1.094-.063H4.14c-.172.219-.36.422-.547.64-.953 1.126-1.672 2.47-1.672 3.938 0 .703.562.703.625.703.156 0 .625-.046.625-.703v-.469c0-.468.031-.953.094-1.421.093-.672.296-1.25.656-1.657l1.547-1.796c.093-.11.093-.141.093-.485Zm0 0"/></symbol><symbol overflow="visible" id="d"><path style="stroke:none" d="M5.156-2.219h-.468c-.032.203-.125.844-.266.906-.11.063-.86.063-1.016.063H1.937c.47-.39 1-.813 1.438-1.14 1.14-.844 1.781-1.313 1.781-2.25 0-1.157-1.047-1.891-2.437-1.891-1.219 0-2.156.625-2.156 1.515 0 .594.484.735.718.735C1.61-4.281 2-4.5 2-5c0-.516-.422-.672-.563-.719.282-.234.672-.343 1.032-.343.844 0 1.312.671 1.312 1.421 0 .688-.375 1.375-1.078 2.079l-2 2.046c-.14.11-.14.141-.14.344V0h4.28Zm0 0"/></symbol><symbol overflow="visible" id="e"><path style="stroke:none" d="M5.25-2.047c0-1.39-1.016-2.125-2.219-2.125-.219 0-.781 0-1.203.766v-.188c0-1.14.219-1.562.281-1.719.25-.468.782-.828 1.391-.828.172 0 .516.032.75.266a.595.595 0 0 0-.547.61c0 .343.235.624.625.624s.625-.265.625-.64c0-.625-.422-1.25-1.469-1.25-1.359 0-3 .86-3 3.375 0 .781.079 1.578.5 2.265.47.766 1.22 1 1.922 1C4.281.11 5.25-.703 5.25-2.047Zm-1.36-.015c0 1 0 1.75-1.015 1.75-.516 0-.781-.391-.86-.563-.156-.313-.156-1.031-.156-1.219 0-1.25.532-1.719 1.079-1.719.953 0 .953.75.953 1.75Zm0 0"/></symbol><symbol overflow="visible" id="f"><path style="stroke:none" d="M5.25-1.86c0-1.077-.844-1.546-1.328-1.827.687-.36 1-.797 1-1.376 0-1.015-.906-1.468-2.047-1.468-1.375 0-2.078.797-2.078 1.75 0 .437.187 1.062.953 1.5C.922-2.906.484-2.344.484-1.61.484-.406 1.563.109 2.844.109 4.438.11 5.25-.766 5.25-1.859ZM4.172-5.046c0 .484-.25.813-.688 1.11l-1.5-.844c-.156-.078-.437-.25-.437-.594 0-.703.89-.766 1.297-.766.828 0 1.328.407 1.328 1.094Zm.219 3.734c0 .829-.938 1-1.516 1-.969 0-1.547-.515-1.547-1.296 0-.766.531-1.204.89-1.407l1.36.766c.438.25.813.453.813.938Zm0 0"/></symbol><symbol overflow="visible" id="g"><path style="stroke:none" d="M5.281-3.188c0-.953-.015-3.343-2.422-3.343C.453-6.531.453-4.156.453-3.188c0 1 0 3.297 2.406 3.297 2.391 0 2.422-2.296 2.422-3.296ZM4-3.296c0 .563 0 1.469-.078 1.985-.14.921-.766 1.062-1.063 1.062-.359 0-.921-.219-1.046-.953-.094-.516-.094-1.547-.094-2.094 0-.719 0-1.375.078-1.89.125-.891.828-.985 1.062-.985.375 0 .782.188.97.625C4-5.172 4-4.109 4-3.297Zm0 0"/></symbol><symbol overflow="visible" id="h"><path style="stroke:none" d="M5.406 0v-.469h-.968v-1.094h.968v-.468h-.968V-6.22c0-.265-.016-.328-.297-.328-.22 0-.22.016-.344.172L.312-2.031v.469h2.876V-.47h-1.11V0c.375-.031 1.281-.031 1.703-.031.406 0 1.266 0 1.625.031Zm-2.11-2.031H.845L3.297-5.11Zm0 0"/></symbol><symbol overflow="visible" id="i"><path style="stroke:none" d="M4.36-6.11c0-.421-.36-.874-1.141-.874-.969 0-2.047.421-2.047 1.546v1.016h-.75v.469h.75V-.47H.484V0l1.25-.031c.375 0 1.016 0 1.375.031v-.469H2.25v-3.484h1.14v-.469H2.188v-1.016c0-1.093.75-1.187 1-1.187.047 0 .11 0 .172.031a.585.585 0 0 0-.234.485c0 .421.36.609.61.609.296 0 .624-.203.624-.61Zm0 0"/></symbol><symbol overflow="visible" id="j"><path style="stroke:none" d="M6.125 0v-.469c-.61 0-.688 0-.688-.39v-3.625l-1.812.078v.468c.61 0 .688 0 .688.391v1.906c0 .813-.516 1.344-1.235 1.344-.781 0-.812-.25-.812-.797v-3.39l-1.813.078v.468c.61 0 .688 0 .688.391v2.328c0 1.063.796 1.282 1.796 1.282.25 0 .97 0 1.422-.782v.781Zm0 0"/></symbol><symbol overflow="visible" id="k"><path style="stroke:none" d="M3.813-1.234v-.532h-.47v.516c0 .672-.327.906-.609.906-.578 0-.578-.64-.578-.86v-2.75h1.469v-.468H2.156v-1.906h-.469c0 1-.484 1.984-1.484 2.016v.359h.828v2.734c0 1.063.86 1.282 1.578 1.282.75 0 1.204-.579 1.204-1.297Zm0 0"/></symbol><symbol overflow="visible" id="l"><path style="stroke:none" d="M4.406-3.672c0-.531-.531-.812-1.062-.812-.688 0-1.094.5-1.313 1.125v-1.125l-1.656.078v.468c.61 0 .688 0 .688.391v3.078H.375V0l1.25-.031C2-.031 2.641-.031 3 0v-.469h-.86v-1.75c0-.687.235-1.906 1.235-1.906 0 0-.188.172-.188.453 0 .406.329.61.61.61.297 0 .61-.204.61-.61Zm0 0"/></symbol><symbol overflow="visible" id="m"><path style="stroke:none" d="M4.922-1.172c0-.172-.188-.172-.234-.172-.172 0-.188.047-.25.203-.204.485-.782.797-1.422.797-1.407 0-1.422-1.328-1.422-1.828h3.015c.22 0 .313 0 .313-.265 0-.313-.063-1.047-.563-1.547-.359-.36-.89-.532-1.578-.532C1.187-4.516.312-3.484.312-2.25c0 1.344 1 2.313 2.61 2.313 1.578 0 2-1.063 2-1.235ZM3.984-2.5h-2.39c.015-.39.031-.813.234-1.14.266-.391.672-.516.953-.516 1.172 0 1.188 1.312 1.203 1.656Zm0 0"/></symbol><symbol overflow="visible" id="n"><path style="stroke:none" d="m7.547-4.328-.203-2.406H.625L.422-4.328H.89c.093-1.125.187-1.938 1.625-1.938h.765v5.797H1.75V0c.547-.031 1.656-.031 2.234-.031.594 0 1.704 0 2.235.031v-.469H4.687v-5.797h.766c1.422 0 1.531.797 1.625 1.938Zm0 0"/></symbol><symbol overflow="visible" id="o"><path style="stroke:none" d="M6.125 0v-.469h-.688v-2.578c0-1.047-.53-1.437-1.53-1.437a1.9 1.9 0 0 0-1.688.953v-3.39l-1.766.077v.469c.61 0 .688 0 .688.39v5.516H.453V0l1.25-.031L2.953 0v-.469h-.687v-2.078c0-1.094.859-1.578 1.5-1.578.328 0 .546.203.546.969V-.47h-.687V0l1.25-.031Zm0 0"/></symbol><symbol overflow="visible" id="p"><path style="stroke:none" d="M5.406-2.172c0-1.344-.922-2.344-2.547-2.344C1.22-4.516.313-3.5.313-2.172c0 1.235.89 2.235 2.546 2.235 1.672 0 2.547-1.016 2.547-2.235Zm-1.281-.11c0 .86 0 1.938-1.266 1.938-1.265 0-1.265-1.078-1.265-1.937 0-.453 0-.953.172-1.297.187-.375.609-.578 1.093-.578.422 0 .844.156 1.063.5.203.344.203.89.203 1.375Zm0 0"/></symbol><symbol overflow="visible" id="q"><path style="stroke:none" d="M9.328 0v-.469h-.687v-2.578c0-1.031-.516-1.437-1.547-1.437-.907 0-1.422.5-1.688.953-.187-.922-1.11-.953-1.484-.953-.875 0-1.438.453-1.766 1.078v-1.078l-1.703.078v.468c.61 0 .688 0 .688.391v3.078H.453V0l1.25-.031L2.953 0v-.469h-.687v-2.078c0-1.094.875-1.578 1.5-1.578.328 0 .546.203.546.969V-.47h-.687V0l1.266-.031L6.14 0v-.469h-.688v-2.078c0-1.094.86-1.578 1.484-1.578.344 0 .563.203.563.969V-.47h-.688V0l1.25-.031Zm0 0"/></symbol><symbol overflow="visible" id="r"><path style="stroke:none" d="M5.984-2.219c0-1.328-.906-2.265-2.343-2.265-.75 0-1.282.312-1.5.484v-.484l-1.766.078v.468c.61 0 .688 0 .688.376v5.03H.375v.47l1.25-.032 1.25.032v-.47h-.688V-.39A2.01 2.01 0 0 0 3.47.063c1.5 0 2.515-.907 2.515-2.282Zm-1.28 0C4.703-.813 4-.297 3.358-.297c-.14 0-.609 0-1.062-.547-.11-.125-.11-.14-.11-.328v-2.11c0-.187.016-.202.157-.343.39-.406.922-.469 1.14-.469.657 0 1.22.61 1.22 1.875Zm0 0"/></symbol><symbol overflow="visible" id="s"><path style="stroke:none" d="M4.14-1.39c0-.438-.202-.782-.546-1.063-.39-.281-.719-.344-1.485-.485-.375-.062-1.015-.171-1.015-.64 0-.625.922-.625 1.11-.625.75 0 1.124.297 1.171.844.016.156.031.203.234.203.235 0 .235-.047.235-.281v-.797c0-.188 0-.282-.172-.282-.047 0-.063 0-.453.188-.266-.125-.61-.188-1-.188-.313 0-1.844 0-1.844 1.313 0 .39.203.656.406.828.39.344.781.406 1.547.547.36.062 1.094.187 1.094.781 0 .75-.906.75-1.125.75C1.234-.297.984-1.03.859-1.453c-.046-.14-.109-.14-.234-.14-.25 0-.25.062-.25.28v1.094c0 .188 0 .281.188.281.062 0 .078 0 .296-.156l.25-.172c.47.329.985.329 1.188.329.312 0 1.844 0 1.844-1.454Zm0 0"/></symbol><symbol overflow="visible" id="t"><path style="stroke:none" d="M6.125 0v-.469h-.688v-2.578c0-1.047-.53-1.437-1.53-1.437-.954 0-1.485.562-1.75 1.078v-1.078l-1.704.078v.468c.61 0 .688 0 .688.391v3.078H.453V0l1.25-.031L2.953 0v-.469h-.687v-2.078c0-1.094.859-1.578 1.5-1.578.328 0 .546.203.546.969V-.47h-.687V0l1.25-.031Zm0 0"/></symbol><symbol overflow="visible" id="u"><path style="stroke:none" d="M10.484 0v-.469H9.406v-5.906h1.078v-.469H8.281c-.219 0-.344 0-.453.25l-2.39 5.282-2.391-5.282c-.11-.25-.219-.25-.438-.25H.406v.469H1.47V-.75c0 .219 0 .219-.282.25-.234.031-.265.031-.546.031H.406V0c.375-.031.938-.031 1.328-.031.422 0 .938 0 1.344.031v-.469h-.25c-.172 0-.344-.015-.531-.031C2.016-.531 2-.531 2-.75v-5.484h.016L4.719-.25c.093.203.218.25.328.25.203 0 .281-.156.312-.234l2.782-6.141h.015v5.906H7.078V0c.36-.031 1.281-.031 1.688-.031.421 0 1.359 0 1.718.031Zm0 0"/></symbol><symbol overflow="visible" id="v"><path style="stroke:none" d="M5.516-.234c0-.235-.125-.235-.266-.235-.61-.015-.61-.14-.61-.375v-2.14c0-.891-.702-1.532-2.187-1.532-.562 0-1.781.047-1.781.922 0 .438.344.625.61.625.312 0 .624-.219.624-.625 0-.297-.187-.469-.218-.5a5.28 5.28 0 0 1 .718-.062c.75 0 1.11.422 1.11 1.172v.343c-.72.032-3.25.125-3.25 1.563C.266-.125 1.5.062 2.187.062c.797 0 1.266-.406 1.485-.828 0 .313 0 .766 1.047.766h.468c.204 0 .329 0 .329-.234Zm-2-1.157c0 .97-.922 1.094-1.172 1.094-.516 0-.906-.344-.906-.797 0-1.062 1.578-1.203 2.078-1.234Zm0 0"/></symbol><symbol overflow="visible" id="w"><path style="stroke:none" d="M5.781-3.953v-.469A12.55 12.55 0 0 1 5-4.39l-.906-.03v.468s.468 0 .468.11L4.5-3.72 3.36-1.266 2.093-3.953h.531v-.469l-1.234.031-1.125-.03v.468H.89L2.766 0 2.53.484C2.312.954 2 1.641 1.281 1.641c-.14 0-.156-.016-.234-.047.094-.032.312-.172.312-.532C1.36.734 1.125.5.781.5a.553.553 0 0 0-.562.578c0 .5.469.922 1.062.922.766 0 1.344-.625 1.625-1.188l2.14-4.562c.063-.14.095-.203.735-.203Zm0 0"/></symbol><symbol overflow="visible" id="x"><path style="stroke:none" d="M7.5-1.86c0-.952-.844-1.624-2.031-1.702 1.078-.204 1.718-.797 1.718-1.563 0-.922-.875-1.719-2.468-1.719H.39v.469h1.078v5.906H.39V0h4.625C6.672 0 7.5-.875 7.5-1.86ZM5.766-5.124c0 .766-.47 1.39-1.438 1.39H2.766v-2.64h1.812c1.016 0 1.188.797 1.188 1.25Zm.28 3.266c0 .109 0 1.39-1.437 1.39H2.766v-2.906h1.937c.203 0 .672 0 1.016.422.328.422.328.984.328 1.094Zm0 0"/></symbol><symbol overflow="visible" id="y"><path style="stroke:none" d="m6.734-4.375-.312-2.406H.39v.468h1.078v5.844H.39V0c.375-.031 1.39-.031 1.828-.031.484 0 1.562 0 2.015.031v-.469H2.875v-2.687h.5c.969 0 1.047.422 1.047 1.156h.469v-2.797h-.47c0 .734-.077 1.172-1.046 1.172h-.5v-2.688h1.406c1.594 0 1.828.766 1.985 1.938Zm0 0"/></symbol><symbol overflow="visible" id="z"><path style="stroke:none" d="M2.922 0v-.469h-.688v-6.453L.47-6.844v.469c.625 0 .687 0 .687.39v5.516H.47V0l1.219-.031Zm0 0"/></symbol><symbol overflow="visible" id="A"><path style="stroke:none" d="M4.766-1.172c0-.14-.141-.14-.235-.14-.187 0-.187.03-.25.156-.25.625-.734.812-1.234.812-1.39 0-1.39-1.453-1.39-1.922 0-.562 0-1.843 1.28-1.843.36 0 .516.015.657.046a.618.618 0 0 0-.203.47c0 .437.343.624.609.624.313 0 .64-.219.64-.625 0-.86-1.156-.922-1.734-.922C1.11-4.516.375-3.375.375-2.219.375-.89 1.313.062 2.844.062c1.625 0 1.922-1.156 1.922-1.234Zm0 0"/></symbol><symbol overflow="visible" id="B"><path style="stroke:none" d="M5.781-3.953v-.469c-.25.016-.531.031-.781.031l-.906-.03v.468c.187 0 .468.031.468.11 0 0 0 .015-.046.109l-1.157 2.5-1.265-2.72h.531v-.468l-1.234.031-1.125-.03v.468H.89l1.75 3.75c.125.25.25.25.375.25.171 0 .28-.031.375-.25L5.047-3.75c.062-.14.094-.203.734-.203Zm0 0"/></symbol><symbol overflow="visible" id="C"><path style="stroke:none" d="M5.86 0v-.469h-.173c-.437 0-.468-.047-.593-.203L3.406-2.766 4.703-3.78c.14-.11.234-.172.906-.172v-.469c-.28.031-.53.031-.78.031l-1.157-.03v.468c.234 0 .265.031.344.11L2.14-2.36v-4.563l-1.766.078v.469c.61 0 .688 0 .688.39v5.516H.375V0l1.188-.031L2.766 0v-.469h-.688v-1.265c.297-.235.375-.297.578-.422l1 1.25c.094.125.25.312.25.344 0 .093-.172.093-.312.093V0a52.51 52.51 0 0 1 1.219-.031c.359 0 .703.015 1.046.031Zm0 0"/></symbol><symbol overflow="visible" id="D"><path style="stroke:none" d="M5.719-2.031c0-1.094-.797-1.906-1.719-2.094l-1.438-.313c-.406-.093-.953-.421-.953-1.03 0-.438.282-1.048 1.266-1.048.797 0 1.813.329 2.047 1.688.031.25.031.266.234.266.25 0 .25-.047.25-.282v-1.828c0-.187 0-.281-.187-.281-.078 0-.078.016-.188.11l-.453.437C4-6.86 3.344-6.953 2.875-6.953c-1.516 0-2.234.969-2.234 2.016 0 .64.328 1.093.53 1.312.5.5.829.563 1.923.797.875.203 1.047.219 1.265.437.141.141.391.407.391.86 0 .484-.25 1.172-1.297 1.172-.75 0-2.265-.204-2.344-1.688-.015-.172-.015-.219-.234-.219-.234 0-.234.047-.234.282v1.812C.64.016.64.11.812.11.906.11.922.094 1 .016l.469-.454C2.125.047 3.047.11 3.453.11 5.11.11 5.72-1.016 5.72-2.03Zm0 0"/></symbol><symbol overflow="visible" id="E"><path style="stroke:none" d="M3.172-1.734v-.97H.125v.97Zm0 0"/></symbol><symbol overflow="visible" id="F"><path style="stroke:none" d="M8.39-6.375v-.469l-1.124.032c-.391 0-.922 0-1.297-.032v.469c.078 0 .875 0 .875.125 0 .047-.032.094-.047.125L4.78-1.594 2.656-6.375h.938v-.469c-.375.032-1.328.032-1.766.032-.375 0-1.219 0-1.562-.032v.469h.906l2.75 6.203c.078.172.125.25.406.25.156 0 .281 0 .39-.234l2.657-6c.063-.125.11-.219.828-.219Zm0 0"/></symbol><symbol overflow="visible" id="G"><path style="stroke:none" d="M2.844 0v-.469h-.61v-4.015L.5-4.406v.468c.594 0 .656 0 .656.391v3.078H.47V0l1.219-.031Zm-.469-6.047a.774.774 0 0 0-.781-.781.784.784 0 0 0-.782.781c0 .422.36.766.782.766a.77.77 0 0 0 .781-.766Zm0 0"/></symbol><symbol overflow="visible" id="H"><path style="stroke:none" d="M8.5 0v-.469h-.297c-.531 0-.562-.047-.672-.203L4.828-4.203l2.406-1.984c.22-.188.625-.188.938-.188h.156v-.469c-.39.032-.969.032-1.015.032-.375 0-1.094 0-1.454-.032v.469c.125 0 .329 0 .579.063.156.03.046.015.125.046L2.874-3.187v-3.188h1.078v-.469c-.375.032-1.344.032-1.781.032-.422 0-1.406 0-1.781-.032v.469h1.078v5.906H.39V0C.766-.031 1.75-.031 2.17-.031c.438 0 1.407 0 1.782.031v-.469H2.875v-2.094l1-.828L5.938-.687c.046.062.046.078.078.14-.188.078-.391.078-.735.078V0c.407-.031 1.313-.031 1.75-.031.407 0 1.094 0 1.469.031Zm0 0"/></symbol><symbol overflow="visible" id="I"><path style="stroke:none" d="M7.188-4.89c0-1.094-.985-1.954-2.641-1.954H.39v.469h1.078v5.906H.39V0C.766-.031 1.75-.031 2.17-.031c.438 0 1.407 0 1.782.031v-.469H2.875v-2.547h1.766c1.39 0 2.546-.718 2.546-1.875Zm-1.532 0c0 .702 0 1.468-1.5 1.468H2.828v-2.953h1.344c1.484 0 1.484.766 1.484 1.484Zm0 0"/></symbol><symbol overflow="visible" id="J"><path style="stroke:none" d="M7.969-3.375c0-2.156-1.453-3.578-3.657-3.578-2.28 0-3.671 1.484-3.671 3.578C.64-1.312 2.03.109 4.297.109c2.297 0 3.672-1.437 3.672-3.484Zm-1.532-.156c0 .703-.03 1.594-.453 2.281a1.97 1.97 0 0 1-1.687.938 1.938 1.938 0 0 1-1.719-1.032c-.328-.625-.422-1.328-.422-2.187 0-.64.031-1.485.469-2.156a2.01 2.01 0 0 1 1.672-.86c.64 0 1.328.281 1.719.938.39.64.421 1.406.421 2.078Zm0 0"/></symbol><symbol overflow="visible" id="K"><path style="stroke:none" d="M4.016 0v-.469H2.875v-5.906h1.14v-.469c-.406.032-1.39.032-1.843.032-.453 0-1.438 0-1.844-.032v.469h1.14v5.906H.329V0c.406-.031 1.39-.031 1.844-.031.453 0 1.437 0 1.844.031Zm0 0"/></symbol><symbol overflow="visible" id="L"><path style="stroke:none" d="M8.328 0v-.469h-.984L4.828-3.953 6.5-6.156c.11-.14.125-.157.469-.188.234-.031.297-.031.578-.031h.281v-.469c-.406.032-.906.032-1.328.032-.39 0-1.156 0-1.516-.032v.469c.172 0 .563 0 .922.11-.015.03-.062.077-.078.109L4.5-4.406 3.078-6.375h.828v-.469c-.406.032-1.36.032-1.797.032-.406 0-1.265 0-1.625-.032v.469h.985l2.203 3.063-2 2.64c-.094.125-.11.14-.438.172-.203.016-.406.031-.609.031H.344V0c.406-.031.906-.031 1.328-.031.39 0 1.156 0 1.516.031v-.469c-.172 0-.563 0-.922-.11.015-.015.062-.077.093-.109L4-2.874 5.734-.469h-.828V0c.407-.031 1.36-.031 1.797-.031.406 0 1.266 0 1.625.031Zm0 0"/></symbol></defs><path style="fill:none;stroke-width:.3985;stroke-linecap:butt;stroke-linejoin:miter;stroke:#000;stroke-opacity:1;stroke-miterlimit:10" d="M-.002-6.942v-14.063" transform="matrix(1 0 0 -1 15.658 4.913)"/><path style="fill:none;stroke-width:.3985;stroke-linecap:round;stroke-linejoin:round;stroke:#000;stroke-opacity:1;stroke-miterlimit:10" d="M-2.072 2.393C-1.692.955-.849.28-.002-.002c-.847-.277-1.69-.953-2.07-2.39" transform="matrix(0 1 1 0 15.658 26.119)"/><path style="fill:none;stroke-width:.3985;stroke-linecap:butt;stroke-linejoin:miter;stroke:#000;stroke-opacity:1;stroke-miterlimit:10" d="M-.002-35.29v-14.063" transform="matrix(1 0 0 -1 15.658 4.913)"/><path style="fill:none;stroke-width:.3985;stroke-linecap:round;stroke-linejoin:round;stroke:#000;stroke-opacity:1;stroke-miterlimit:10" d="M-2.07 2.393C-1.693.955-.849.28 0-.002c-.848-.277-1.692-.953-2.07-2.39" transform="matrix(0 1 1 0 15.658 54.465)"/><path style="fill:none;stroke-width:.3985;stroke-linecap:butt;stroke-linejoin:miter;stroke:#000;stroke-opacity:1;stroke-miterlimit:10" d="M-.002-63.634v-14.172" transform="matrix(1 0 0 -1 15.658 4.913)"/><path style="fill:none;stroke-width:.3985;stroke-linecap:round;stroke-linejoin:round;stroke:#000;stroke-opacity:1;stroke-miterlimit:10" d="M-2.073 2.393C-1.694.955-.85.28.001-.002c-.851-.277-1.695-.953-2.074-2.39" transform="matrix(0 1 1 0 15.658 82.917)"/><path style="fill:none;stroke-width:.3985;stroke-linecap:butt;stroke-linejoin:miter;stroke:#000;stroke-opacity:1;stroke-miterlimit:10" d="M-.002-91.876v-14.273" transform="matrix(1 0 0 -1 15.658 4.913)"/><path style="fill:none;stroke-width:.3985;stroke-linecap:round;stroke-linejoin:round;stroke:#000;stroke-opacity:1;stroke-miterlimit:10" d="M-2.072 2.393C-1.693.955-.85.28-.002-.002c-.847-.277-1.691-.953-2.07-2.39" transform="matrix(0 1 1 0 15.658 111.264)"/><path style="fill:none;stroke-width:.3985;stroke-linecap:butt;stroke-linejoin:miter;stroke:#000;stroke-opacity:1;stroke-miterlimit:10" d="M-.002-120.224v-14.27" transform="matrix(1 0 0 -1 15.658 4.913)"/><path style="fill:none;stroke-width:.3985;stroke-linecap:round;stroke-linejoin:round;stroke:#000;stroke-opacity:1;stroke-miterlimit:10" d="M-2.074 2.393C-1.695.955-.851.28 0-.002c-.851-.277-1.695-.953-2.074-2.39" transform="matrix(0 1 1 0 15.658 139.605)"/><path style="fill:none;stroke-width:.3985;stroke-linecap:butt;stroke-linejoin:miter;stroke:#000;stroke-opacity:1;stroke-miterlimit:10" d="M-.002-148.575v-14.27" transform="matrix(1 0 0 -1 15.658 4.913)"/><path style="fill:none;stroke-width:.3985;stroke-linecap:round;stroke-linejoin:round;stroke:#000;stroke-opacity:1;stroke-miterlimit:10" d="M-2.07 2.393C-1.695.955-.852.28 0-.002c-.852-.277-1.695-.953-2.07-2.39" transform="matrix(0 1 1 0 15.658 167.957)"/><path style="fill:none;stroke-width:.3985;stroke-linecap:butt;stroke-linejoin:miter;stroke:#000;stroke-opacity:1;stroke-miterlimit:10" d="M-.002-176.919v-14.273" transform="matrix(1 0 0 -1 15.658 4.913)"/><path style="fill:none;stroke-width:.3985;stroke-linecap:round;stroke-linejoin:round;stroke:#000;stroke-opacity:1;stroke-miterlimit:10" d="M-2.073 2.393C-1.695.955-.851.28 0-.002c-.852-.277-1.696-.953-2.074-2.39" transform="matrix(0 1 1 0 15.658 196.304)"/><path style="fill:none;stroke-width:.3985;stroke-linecap:butt;stroke-linejoin:miter;stroke:#000;stroke-opacity:1;stroke-miterlimit:10" d="M-.002-205.267v-14.273" transform="matrix(1 0 0 -1 15.658 4.913)"/><path style="fill:none;stroke-width:.3985;stroke-linecap:round;stroke-linejoin:round;stroke:#000;stroke-opacity:1;stroke-miterlimit:10" d="M-2.073 2.393C-1.693.955-.85.28.002-.002c-.852-.277-1.696-.953-2.075-2.39" transform="matrix(0 1 1 0 15.658 224.65)"/><path style="fill:none;stroke-width:.3985;stroke-linecap:butt;stroke-linejoin:miter;stroke:#000;stroke-opacity:1;stroke-miterlimit:10" d="M-.002-233.61v-14.075" transform="matrix(1 0 0 -1 15.658 4.913)"/><path style="fill:none;stroke-width:.3985;stroke-linecap:round;stroke-linejoin:round;stroke:#000;stroke-opacity:1;stroke-miterlimit:10" d="M-2.072 2.393C-1.692.955-.849.28-.002-.002c-.847-.277-1.69-.953-2.07-2.39" transform="matrix(0 1 1 0 15.658 252.798)"/><path style="fill:none;stroke-width:.3985;stroke-linecap:butt;stroke-linejoin:miter;stroke:#000;stroke-opacity:1;stroke-miterlimit:10" d="m172.112-59.993 83.32-23.946c2.113-.609 3.828-2.886 3.828-5.086v-45.304" transform="matrix(1 0 0 -1 15.658 4.913)"/><path style="fill:none;stroke-width:.3985;stroke-linecap:round;stroke-linejoin:round;stroke:#000;stroke-opacity:1;stroke-miterlimit:10" d="M-2.074 2.393C-1.694.955-.85.279 0-.002c-.851-.277-1.695-.953-2.074-2.39" transform="matrix(0 1 1 0 274.92 139.441)"/><path style="fill:none;stroke-width:.3985;stroke-linecap:butt;stroke-linejoin:miter;stroke:#000;stroke-opacity:1;stroke-miterlimit:10" d="m128.112-7.942-28.34-12.274" transform="matrix(1 0 0 -1 15.658 4.913)"/><path style="fill:none;stroke-width:.3985;stroke-linecap:round;stroke-linejoin:round;stroke:#000;stroke-opacity:1;stroke-miterlimit:10" d="M-2.074 2.392C-1.695.955-.852.279-.002 0c-.849-.28-1.691-.957-2.07-2.39" transform="matrix(-.91759 .39737 .39737 .91759 115.248 25.207)"/><path style="fill:none;stroke-width:.3985;stroke-linecap:butt;stroke-linejoin:miter;stroke:#000;stroke-opacity:1;stroke-miterlimit:10" d="m142.483-7.942-6.54-13.082" transform="matrix(1 0 0 -1 15.658 4.913)"/><path style="fill:none;stroke-width:.3985;stroke-linecap:round;stroke-linejoin:round;stroke:#000;stroke-opacity:1;stroke-miterlimit:10" d="M-2.07 2.39C-1.694.958-.85.28-.002 0c-.847-.28-1.693-.955-2.072-2.39" transform="matrix(-.44717 .89436 .89436 .44717 151.51 26.115)"/><path style="fill:none;stroke-width:.3985;stroke-linecap:butt;stroke-linejoin:miter;stroke:#000;stroke-opacity:1;stroke-miterlimit:10" d="m150.424-7.942 8.422-16.84c.984-1.97 1.781-5.348 1.781-7.551V-49.29" transform="matrix(1 0 0 -1 15.658 4.913)"/><path style="fill:none;stroke-width:.3985;stroke-linecap:round;stroke-linejoin:round;stroke:#000;stroke-opacity:1;stroke-miterlimit:10" d="M-2.072 2.39C-1.694.958-.85.278.002 0-.85-.277-1.694-.957-2.072-2.39" transform="matrix(0 1 1 0 176.285 54.4)"/><path style="fill:none;stroke-width:.3985;stroke-linecap:butt;stroke-linejoin:miter;stroke:#000;stroke-opacity:1;stroke-miterlimit:10" d="M294.487-148.767v-43.457" transform="matrix(1 0 0 -1 15.658 4.913)"/><path style="fill:none;stroke-width:.3985;stroke-linecap:round;stroke-linejoin:round;stroke:#000;stroke-opacity:1;stroke-miterlimit:10" d="M-2.073 2.391C-1.694.958-.851.278 0 .001-.851-.282-1.694-.958-2.073-2.39" transform="matrix(0 1 1 0 310.144 197.335)"/><path style="fill:none;stroke-width:.3985;stroke-linecap:butt;stroke-linejoin:miter;stroke:#000;stroke-opacity:1;stroke-miterlimit:10" d="M132.28-35.314v-70.668" transform="matrix(1 0 0 -1 15.658 4.913)"/><path style="fill:none;stroke-width:.3985;stroke-linecap:round;stroke-linejoin:round;stroke:#000;stroke-opacity:1;stroke-miterlimit:10" d="M-2.07 2.39C-1.693.956-.849.28 0 0c-.848-.278-1.692-.958-2.07-2.391" transform="matrix(0 1 1 0 147.938 111.094)"/><path style="fill:none;stroke-width:.3985;stroke-linecap:butt;stroke-linejoin:miter;stroke:#000;stroke-opacity:1;stroke-miterlimit:10" d="m112.295-34.587-66.98-20.918c-2.102-.656-3.805-2.973-3.805-5.172v-16.957" transform="matrix(1 0 0 -1 15.658 4.913)"/><path style="fill:none;stroke-width:.3985;stroke-linecap:round;stroke-linejoin:round;stroke:#000;stroke-opacity:1;stroke-miterlimit:10" d="M-2.072 2.39C-1.692.956-.849.28-.002 0c-.847-.278-1.69-.958-2.07-2.391" transform="matrix(0 1 1 0 57.169 82.747)"/><path style="fill:none;stroke-width:.3985;stroke-linecap:butt;stroke-linejoin:miter;stroke:#000;stroke-opacity:1;stroke-miterlimit:10" d="m116.94-35.314-43.453-19.73c-2.004-.91-3.512-3.43-3.368-5.625l1.118-16.969" transform="matrix(1 0 0 -1 15.658 4.913)"/><path style="fill:none;stroke-width:.3985;stroke-linecap:round;stroke-linejoin:round;stroke:#000;stroke-opacity:1;stroke-miterlimit:10" d="M-2.072 2.39C-1.692.956-.849.278-.002 0-.85-.278-1.693-.955-2.073-2.39" transform="matrix(.06569 .9978 .9978 -.06569 86.907 82.748)"/><path style="fill:none;stroke-width:.3985;stroke-linecap:butt;stroke-linejoin:miter;stroke:#000;stroke-opacity:1;stroke-miterlimit:10" d="m152.576-34.353 71.7-21.21c2.109-.626 3.82-2.915 3.82-5.114V-105" transform="matrix(1 0 0 -1 15.658 4.913)"/><path style="fill:none;stroke-width:.3985;stroke-linecap:round;stroke-linejoin:round;stroke:#000;stroke-opacity:1;stroke-miterlimit:10" d="M-2.074 2.391C-1.694.958-.85.278 0 .001-.85-.281-1.695-.956-2.074-2.39" transform="matrix(0 1 1 0 243.753 110.113)"/><path style="fill:none;stroke-width:.3985;stroke-linecap:butt;stroke-linejoin:miter;stroke:#000;stroke-opacity:1;stroke-miterlimit:10" d="m153.947-32.216 133.176-23.777c2.168-.387 3.926-2.485 3.926-4.684v-48.726c0-2.2.215-5.754.477-7.942l2.058-16.96" transform="matrix(1 0 0 -1 15.658 4.913)"/><path style="fill:none;stroke-width:.3985;stroke-linecap:round;stroke-linejoin:round;stroke:#000;stroke-opacity:1;stroke-miterlimit:10" d="M-2.07 2.39C-1.695.956-.852.28 0 0c-.852-.279-1.694-.956-2.072-2.39" transform="matrix(.1204 .99269 .99269 -.1204 309.267 139.418)"/><path style="fill:none;stroke-width:.3985;stroke-linecap:butt;stroke-linejoin:miter;stroke:#000;stroke-opacity:1;stroke-miterlimit:10" d="m146.213-35.314 39.195-19.597c1.97-.985 3.567-3.567 3.567-5.766v-20.379c0-2.199-.215-5.758-.477-7.941l-2.449-20.434a121.488 121.488 0 0 0-1.258-7.863l-4.11-20.531c-.433-2.16-.96-5.684-1.179-7.875l-2.047-20.414c-.218-2.192-.574-5.743-.793-7.93l-2.043-20.418c-.218-2.191-.398-5.75-.398-7.95v-16.956" transform="matrix(1 0 0 -1 15.658 4.913)"/><path style="fill:none;stroke-width:.3985;stroke-linecap:round;stroke-linejoin:round;stroke:#000;stroke-opacity:1;stroke-miterlimit:10" d="M-2.071 2.39C-1.692.957-.85.28-.001 0c-.848-.278-1.691-.957-2.07-2.391" transform="matrix(0 1 1 0 189.88 224.481)"/><path style="fill:none;stroke-width:.3985;stroke-linecap:butt;stroke-linejoin:miter;stroke:#000;stroke-opacity:1;stroke-miterlimit:10" d="m155.99-176.454 42.973-20.274c1.992-.937 2.344-2.96.79-4.52l-18.243-18.237" transform="matrix(1 0 0 -1 15.658 4.913)"/><path style="fill:none;stroke-width:.3985;stroke-linecap:round;stroke-linejoin:round;stroke:#000;stroke-opacity:1;stroke-miterlimit:10" d="M-2.072 2.392C-1.694.958-.85.279-.001 0-.849-.28-1.694-.96-2.072-2.392" transform="scale(-1 1) rotate(45 -369.56 -125.564)"/><path style="fill:none;stroke-width:.3985;stroke-linecap:butt;stroke-linejoin:miter;stroke:#000;stroke-opacity:1;stroke-miterlimit:10" d="m150.37-205.474 15.706-14.027" transform="matrix(1 0 0 -1 15.658 4.913)"/><path style="fill:none;stroke-width:.3985;stroke-linecap:round;stroke-linejoin:round;stroke:#000;stroke-opacity:1;stroke-miterlimit:10" d="M-2.074 2.391C-1.694.956-.85.281-.002 0-.85-.281-1.694-.956-2.073-2.39" transform="matrix(.74585 .66602 .66602 -.74585 181.884 224.548)"/><path style="fill:none;stroke-width:.3985;stroke-linecap:butt;stroke-linejoin:miter;stroke:#000;stroke-opacity:1;stroke-miterlimit:10" d="m53.03-88.638 66.976-20.918" transform="matrix(1 0 0 -1 15.658 4.913)"/><path style="fill:none;stroke-width:.3985;stroke-linecap:round;stroke-linejoin:round;stroke:#000;stroke-opacity:1;stroke-miterlimit:10" d="M-2.073 2.393C-1.693.956-.848.279 0-.001c-.85-.277-1.694-.954-2.073-2.39" transform="matrix(.9545 .29808 .29808 -.9545 135.855 114.527)"/><path style="fill:none;stroke-width:.3985;stroke-linecap:butt;stroke-linejoin:miter;stroke:#000;stroke-opacity:1;stroke-miterlimit:10" d="m82.936-90.29 37.77-17.68" transform="matrix(1 0 0 -1 15.658 4.913)"/><path style="fill:none;stroke-width:.3985;stroke-linecap:round;stroke-linejoin:round;stroke:#000;stroke-opacity:1;stroke-miterlimit:10" d="M-2.074 2.391C-1.692.957-.848.278-.002.001c-.848-.28-1.692-.956-2.072-2.393" transform="matrix(.90565 .42393 .42393 -.90565 136.545 112.967)"/><path style="fill:none;stroke-width:.3985;stroke-linecap:butt;stroke-linejoin:miter;stroke:#000;stroke-opacity:1;stroke-miterlimit:10" d="m101.424-63.7.875-17.36c.113-2.199 1.496-5.21 3.09-6.726l19.242-18.32" transform="matrix(1 0 0 -1 15.658 4.913)"/><path style="fill:none;stroke-width:.3985;stroke-linecap:round;stroke-linejoin:round;stroke:#000;stroke-opacity:1;stroke-miterlimit:10" d="M-2.071 2.392C-1.691.956-.849.28 0 0-.85-.28-1.695-.956-2.07-2.39" transform="matrix(.72427 .68944 .68944 -.72427 140.433 111.156)"/><path style="fill:none;stroke-width:.3985;stroke-linecap:butt;stroke-linejoin:miter;stroke:#000;stroke-opacity:1;stroke-miterlimit:10" d="M160.627-63.7v-17.356c0-2.199-1.262-5.246-2.816-6.8L139.569-106.1" transform="matrix(1 0 0 -1 15.658 4.913)"/><path style="fill:none;stroke-width:.3985;stroke-linecap:round;stroke-linejoin:round;stroke:#000;stroke-opacity:1;stroke-miterlimit:10" d="M-2.072 2.392C-1.693.958-.848.279 0 0-.848-.28-1.693-.96-2.072-2.392" transform="scale(-1 1) rotate(45 -211.718 -131.63)"/><path style="fill:none;stroke-width:.3985;stroke-linecap:butt;stroke-linejoin:miter;stroke:#000;stroke-opacity:1;stroke-miterlimit:10" d="m157.416-205.474 41.547-19.601c1.992-.938 3.606-3.485 3.606-5.684v-16.918" transform="matrix(1 0 0 -1 15.658 4.913)"/><path style="fill:none;stroke-width:.3985;stroke-linecap:round;stroke-linejoin:round;stroke:#000;stroke-opacity:1;stroke-miterlimit:10" d="M-2.074 2.391C-1.694.957-.85.278.001.001-.851-.282-1.695-.958-2.074-2.39" transform="matrix(0 1 1 0 218.226 252.788)"/><path style="fill:none;stroke-width:.3985;stroke-linecap:butt;stroke-linejoin:miter;stroke:#000;stroke-opacity:1;stroke-miterlimit:10" d="m228.889-121.376 1.633-16.395c.215-2.187.394-5.746.394-7.949v-77.07c0-2.2-1.261-5.246-2.82-6.8l-18.2-18.204" transform="matrix(1 0 0 -1 15.658 4.913)"/><path style="fill:none;stroke-width:.3985;stroke-linecap:round;stroke-linejoin:round;stroke:#000;stroke-opacity:1;stroke-miterlimit:10" d="M-2.074 2.39C-1.696.957-.85.277 0 0-.85-.28-1.693-.957-2.07-2.39" transform="scale(-1 1) rotate(45 -417.924 -145.676)"/><path style="fill:none;stroke-width:.3985;stroke-linecap:butt;stroke-linejoin:miter;stroke:#000;stroke-opacity:1;stroke-miterlimit:10" d="m133.12-120.396 2.085-17.382c.262-2.184.89-5.692 1.403-7.832l4.097-17.075" transform="matrix(1 0 0 -1 15.658 4.913)"/><path style="fill:none;stroke-width:.3985;stroke-linecap:round;stroke-linejoin:round;stroke:#000;stroke-opacity:1;stroke-miterlimit:10" d="M-2.07 2.39C-1.696.956-.85.279 0 .003-.85-.28-1.692-.958-2.072-2.39" transform="matrix(.23315 .97238 .97238 -.23315 156.408 167.793)"/><path style="fill:none;stroke-width:.3985;stroke-linecap:butt;stroke-linejoin:miter;stroke:#000;stroke-opacity:1;stroke-miterlimit:10" d="M142.479-177.087v-13.895" transform="matrix(1 0 0 -1 15.658 4.913)"/><path style="fill:none;stroke-width:.3985;stroke-linecap:round;stroke-linejoin:round;stroke:#000;stroke-opacity:1;stroke-miterlimit:10" d="M-2.071 2.392C-1.692.955-.85.28-.001.002c-.848-.281-1.691-.957-2.07-2.395" transform="matrix(0 1 1 0 158.135 196.095)"/><path style="fill:none;stroke-width:.3985;stroke-linecap:butt;stroke-linejoin:miter;stroke:#000;stroke-opacity:1;stroke-miterlimit:10" d="m169.022-204.786 87.945-21.059c2.14-.515 3.977-2.71 4.098-4.91l.945-16.922" transform="matrix(1 0 0 -1 15.658 4.913)"/><path style="fill:none;stroke-width:.3985;stroke-linecap:round;stroke-linejoin:round;stroke:#000;stroke-opacity:1;stroke-miterlimit:10" d="M-2.073 2.39C-1.695.955-.849.278 0 0c-.849-.28-1.692-.957-2.074-2.392" transform="scale(1 -1) rotate(-86.807 5.197 -273.208)"/><path style="fill:none;stroke-width:.3985;stroke-linecap:butt;stroke-linejoin:miter;stroke:#000;stroke-opacity:1;stroke-miterlimit:10" d="M124.608-35.314 109.08-49.419" transform="matrix(1 0 0 -1 15.658 4.913)"/><path style="fill:none;stroke-width:.3985;stroke-linecap:round;stroke-linejoin:round;stroke:#000;stroke-opacity:1;stroke-miterlimit:10" d="M-2.071 2.392C-1.693.955-.85.28-.001 0c-.85-.279-1.69-.956-2.07-2.39" transform="matrix(-.7402 .67229 .67229 .7402 124.59 54.466)"/><g style="fill:#000;fill-opacity:1"><use xlink:href="#a" x="4.201" y="8.226"/><use xlink:href="#b" x="9.93" y="8.226"/><use xlink:href="#c" x="15.658" y="8.226"/><use xlink:href="#d" x="21.387" y="8.226"/></g><g style="fill:#000;fill-opacity:1"><use xlink:href="#a" x="4.201" y="36.572"/><use xlink:href="#b" x="9.93" y="36.572"/><use xlink:href="#c" x="15.658" y="36.572"/><use xlink:href="#e" x="21.387" y="36.572"/></g><g style="fill:#000;fill-opacity:1"><use xlink:href="#a" x="4.201" y="64.918"/><use xlink:href="#b" x="9.93" y="64.918"/><use xlink:href="#c" x="15.658" y="64.918"/><use xlink:href="#f" x="21.387" y="64.918"/></g><g style="fill:#000;fill-opacity:1"><use xlink:href="#a" x="4.201" y="93.16"/><use xlink:href="#b" x="9.93" y="93.16"/><use xlink:href="#f" x="15.658" y="93.16"/><use xlink:href="#g" x="21.387" y="93.16"/></g><g style="fill:#000;fill-opacity:1"><use xlink:href="#a" x="4.201" y="121.507"/><use xlink:href="#b" x="9.93" y="121.507"/><use xlink:href="#f" x="15.658" y="121.507"/><use xlink:href="#d" x="21.387" y="121.507"/></g><g style="fill:#000;fill-opacity:1"><use xlink:href="#a" x="4.201" y="149.858"/><use xlink:href="#b" x="9.93" y="149.858"/><use xlink:href="#f" x="15.658" y="149.858"/><use xlink:href="#h" x="21.387" y="149.858"/></g><g style="fill:#000;fill-opacity:1"><use xlink:href="#a" x="4.201" y="178.2"/><use xlink:href="#b" x="9.93" y="178.2"/><use xlink:href="#f" x="15.658" y="178.2"/><use xlink:href="#e" x="21.387" y="178.2"/></g><g style="fill:#000;fill-opacity:1"><use xlink:href="#a" x="4.201" y="206.546"/><use xlink:href="#b" x="9.93" y="206.546"/><use xlink:href="#f" x="15.658" y="206.546"/><use xlink:href="#f" x="21.387" y="206.546"/></g><g style="fill:#000;fill-opacity:1"><use xlink:href="#a" x="4.201" y="234.892"/><use xlink:href="#b" x="9.93" y="234.892"/><use xlink:href="#b" x="15.658" y="234.892"/><use xlink:href="#g" x="21.387" y="234.892"/></g><g style="fill:#000;fill-opacity:1"><use xlink:href="#i" x=".331" y="263.488"/><use xlink:href="#j" x="3.828" y="263.488"/><use xlink:href="#k" x="10.194" y="263.488"/><use xlink:href="#j" x="14.647" y="263.488"/><use xlink:href="#l" x="21.013" y="263.488"/><use xlink:href="#m" x="25.736" y="263.488"/></g><g style="fill:#000;fill-opacity:1"><use xlink:href="#n" x="135.813" y="7.404"/><use xlink:href="#o" x="143.783" y="7.404"/><use xlink:href="#p" x="150.149" y="7.404"/><use xlink:href="#q" x="155.878" y="7.404"/><use xlink:href="#r" x="165.422" y="7.404"/><use xlink:href="#s" x="171.788" y="7.404"/><use xlink:href="#p" x="176.311" y="7.404"/><use xlink:href="#t" x="182.04" y="7.404"/></g><g style="fill:#000;fill-opacity:1"><use xlink:href="#u" x="77.335" y="35.72"/><use xlink:href="#v" x="88.214" y="35.72"/><use xlink:href="#s" x="93.783" y="35.72"/><use xlink:href="#o" x="98.306" y="35.72"/><use xlink:href="#m" x="104.672" y="35.72"/><use xlink:href="#w" x="109.923" y="35.72"/></g><g style="fill:#000;fill-opacity:1"><use xlink:href="#x" x="129.645" y="36.647"/><use xlink:href="#p" x="137.794" y="36.647"/><use xlink:href="#j" x="143.523" y="36.647"/><use xlink:href="#l" x="149.889" y="36.647"/><use xlink:href="#t" x="154.611" y="36.647"/><use xlink:href="#m" x="160.978" y="36.647"/></g><use xlink:href="#y" x="92.352" y="65.033" style="fill:#000;fill-opacity:1"/><g style="fill:#000;fill-opacity:1"><use xlink:href="#p" x="98.609" y="65.033"/><use xlink:href="#l" x="104.337" y="65.033"/><use xlink:href="#q" x="109.059" y="65.033"/><use xlink:href="#s" x="118.604" y="65.033"/><use xlink:href="#o" x="123.127" y="65.033"/><use xlink:href="#m" x="129.493" y="65.033"/><use xlink:href="#z" x="134.743" y="65.033"/><use xlink:href="#z" x="137.921" y="65.033"/></g><g style="fill:#000;fill-opacity:1"><use xlink:href="#A" x="168.293" y="65.033"/><use xlink:href="#s" x="173.384" y="65.033"/><use xlink:href="#o" x="177.907" y="65.033"/></g><g style="fill:#000;fill-opacity:1"><use xlink:href="#m" x="49.099" y="93.379"/><use xlink:href="#s" x="54.349" y="93.379"/><use xlink:href="#o" x="58.872" y="93.379"/></g><g style="fill:#000;fill-opacity:1"><use xlink:href="#B" x="78.913" y="93.379"/><use xlink:href="#s" x="84.96" y="93.379"/><use xlink:href="#o" x="89.483" y="93.379"/></g><g style="fill:#000;fill-opacity:1"><use xlink:href="#C" x="139.468" y="121.726"/><use xlink:href="#s" x="145.515" y="121.726"/><use xlink:href="#o" x="150.038" y="121.726"/></g><g style="fill:#000;fill-opacity:1"><use xlink:href="#D" x="219.422" y="120.774"/><use xlink:href="#w" x="225.788" y="120.774"/><use xlink:href="#s" x="231.835" y="120.774"/><use xlink:href="#k" x="236.358" y="120.774"/><use xlink:href="#m" x="240.812" y="120.774"/><use xlink:href="#q" x="246.062" y="120.774"/><use xlink:href="#E" x="255.606" y="120.774"/><use xlink:href="#F" x="259.422" y="120.774"/></g><g style="fill:#000;fill-opacity:1"><use xlink:href="#B" x="298.808" y="150.047"/><use xlink:href="#b" x="304.855" y="150.047"/><use xlink:href="#s" x="310.584" y="150.047"/><use xlink:href="#o" x="315.107" y="150.047"/></g><g style="fill:#000;fill-opacity:1"><use xlink:href="#k" x="264.7" y="150.072"/><use xlink:href="#A" x="269.153" y="150.072"/><use xlink:href="#s" x="274.244" y="150.072"/><use xlink:href="#o" x="278.767" y="150.072"/></g><g style="fill:#000;fill-opacity:1"><use xlink:href="#C" x="146.168" y="178.419"/><use xlink:href="#s" x="152.215" y="178.419"/><use xlink:href="#o" x="156.738" y="178.419"/><use xlink:href="#E" x="163.104" y="178.419"/><use xlink:href="#G" x="166.92" y="178.419"/></g><use xlink:href="#H" x="133.227" y="206.755" style="fill:#000;fill-opacity:1"/><g style="fill:#000;fill-opacity:1"><use xlink:href="#p" x="141.885" y="206.755"/><use xlink:href="#l" x="147.613" y="206.755"/><use xlink:href="#t" x="152.335" y="206.755"/><use xlink:href="#D" x="158.701" y="206.755"/><use xlink:href="#o" x="165.068" y="206.755"/><use xlink:href="#m" x="171.434" y="206.755"/><use xlink:href="#z" x="176.684" y="206.755"/><use xlink:href="#z" x="179.862" y="206.755"/></g><use xlink:href="#I" x="264.585" y="206.765" style="fill:#000;fill-opacity:1"/><g style="fill:#000;fill-opacity:1"><use xlink:href="#m" x="272.097" y="206.765"/><use xlink:href="#l" x="277.347" y="206.765"/><use xlink:href="#z" x="282.069" y="206.765"/></g><g style="fill:#000;fill-opacity:1"><use xlink:href="#l" x="305.234" y="205.565"/><use xlink:href="#A" x="309.956" y="205.565"/></g><g style="fill:#000;fill-opacity:1"><use xlink:href="#k" x="151.176" y="235.112"/><use xlink:href="#A" x="155.629" y="235.112"/><use xlink:href="#z" x="160.72" y="235.112"/></g><g style="fill:#000;fill-opacity:1"><use xlink:href="#x" x="177.573" y="235.112"/><use xlink:href="#v" x="185.722" y="235.112"/><use xlink:href="#s" x="191.292" y="235.112"/><use xlink:href="#o" x="195.815" y="235.112"/></g><g style="fill:#000;fill-opacity:1"><use xlink:href="#I" x="200.321" y="263.448"/><use xlink:href="#J" x="208.152" y="263.448"/><use xlink:href="#D" x="216.759" y="263.448"/><use xlink:href="#K" x="223.125" y="263.448"/><use xlink:href="#L" x="227.469" y="263.448"/></g><g style="fill:#000;fill-opacity:1"><use xlink:href="#C" x="249.801" y="263.448"/><use xlink:href="#s" x="255.848" y="263.448"/><use xlink:href="#o" x="260.371" y="263.448"/><use xlink:href="#E" x="266.737" y="263.448"/><use xlink:href="#I" x="270.553" y="263.448"/><use xlink:href="#J" x="278.384" y="263.448"/><use xlink:href="#D" x="286.992" y="263.448"/><use xlink:href="#K" x="293.358" y="263.448"/><use xlink:href="#L" x="297.701" y="263.448"/></g></svg>