<svg xmlns="http://www.w3.org/2000/svg" width="116.62" height="78.531" viewBox="0 0 87.465 58.898" version="1.2"><defs><clipPath id="a"><path d="M0 7h87.2v51.848H0Zm0 0"/></clipPath></defs><path style="fill:none;stroke-width:.19925;stroke-linecap:butt;stroke-linejoin:miter;stroke:gray;stroke-opacity:1;stroke-miterlimit:10" d="M0-.001h85.039M-.001 28.346h85.04M-.001 56.682h85.04M-.001 0v56.695M28.348-.001v56.695M56.695-.001v56.695M85.031-.001v56.695" transform="matrix(1 0 0 -1 .95 57.733)"/><g clip-path="url(#a)"><path style="fill:none;stroke-width:.3985;stroke-linecap:butt;stroke-linejoin:miter;stroke:#000;stroke-opacity:1;stroke-miterlimit:10" d="M0-.001.015 1.35l.051 1.348.082 1.347.121 1.34.153 1.344.191 1.332.23 1.332.27 1.32.309 1.313.347 1.305.387 1.293.43 1.277.472 1.266.512 1.246.559 1.23.593 1.207.641 1.192.68 1.164.718 1.14.762 1.114.8 1.085.837 1.06.875 1.026.914.993.945.964.977.926 1.012.895 1.043.86 1.07.82 1.097.785 1.122.746 1.148.707 1.566.89L20.847 40l4.489-3.403.351 5.492 4.063-3.894.968 5.422 3.614-4.317 1.543 5.286 3.133-4.676 2.093 5.097 2.625-4.976 2.614 4.851 2.093-5.222 3.106 4.55 1.531-5.414 3.574 4.188.938-5.547 4.008 3.77.304-5.625 2.145 1.672.105-.055 1.176-.66 1.156-.7 1.13-.734 1.105-.77 1.082-.812 1.047-.848 1.023-.882.988-.914.957-.954.922-.984.883-1.02.852-1.046.812-1.078.77-1.106.734-1.133.691-1.156.653-1.184.61-1.203.57-1.222.527-1.243.48-1.261.446-1.274.402-1.289.36-1.297.32-1.312.28-1.32.24-1.329.202-1.332.168-1.34.13-1.343.093-1.344.058-1.348L85.04 0" transform="matrix(1 0 0 -1 .95 57.733)"/></g></svg>