<svg xmlns="http://www.w3.org/2000/svg" width="388.093" height="85.707" viewBox="0 0 291.07 64.28" version="1.2"><defs><clipPath id="a"><path d="M83 21h50v42.922H83Zm0 0"/></clipPath><clipPath id="b"><path d="M98 32h50v31.922H98Zm0 0"/></clipPath><clipPath id="c"><path d="M113 35h50v28.922h-50Zm0 0"/></clipPath><clipPath id="d"><path d="M127 31h51v32.922h-51Zm0 0"/></clipPath><clipPath id="e"><path d="M142 20h50v43.922h-50Zm0 0"/></clipPath><clipPath id="f"><path d="M247 8h43.605v50H247Zm0 0"/></clipPath><clipPath id="g"><path d="M262 22h28.605v41.922H262Zm0 0"/></clipPath></defs><path style="fill:none;stroke-width:1.59404;stroke-linecap:butt;stroke-linejoin:miter;stroke:#000;stroke-opacity:1;stroke-miterlimit:10" d="M14.92-.001V14.24M29.838 0v24.625M44.76-.001v28.348M59.678-.001v24.394M74.596 0v13.84M89.517-.001v-.461m14.918.46v-14.636M119.353 0v-24.852M134.275 0v-28.336M149.193-.001v-24.152M164.111-.001v-13.434M179.033 0v.926m14.918-.926V15.03M208.873 0v25.07M223.79 0v28.324M238.709 0v23.91M253.63 0v13.027M268.549 0v-1.387M283.467 0v-15.422" transform="matrix(1 0 0 -1 3.338 31.788)"/><path style="fill-rule:nonzero;fill:#000;fill-opacity:1;stroke-width:1.59404;stroke-linecap:butt;stroke-linejoin:miter;stroke:#000;stroke-opacity:1;stroke-miterlimit:10" d="M1.994-.001a1.994 1.994 0 0 1-3.988 0c0-1.098.894-1.992 1.996-1.992 1.097 0 1.992.894 1.992 1.992ZM16.912 14.241a1.993 1.993 0 1 1-3.986-.002 1.993 1.993 0 0 1 3.986.002ZM31.83 24.624c0 1.102-.89 1.996-1.992 1.996a1.994 1.994 0 0 1 0-3.988c1.101 0 1.992.894 1.992 1.992ZM46.752 28.347a1.993 1.993 0 1 1-3.986-.002 1.993 1.993 0 0 1 3.986.002ZM61.67 24.393a1.99 1.99 0 0 1-1.992 1.993 1.99 1.99 0 0 1-1.993-1.993 1.99 1.99 0 0 1 1.993-1.992 1.99 1.99 0 0 1 1.992 1.992ZM76.588 13.839a1.993 1.993 0 1 1-3.983-.002 1.993 1.993 0 0 1 3.983.002ZM91.51-.462a1.993 1.993 0 1 1-3.986-.002 1.993 1.993 0 0 1 3.986.002Zm0 0" transform="matrix(1 0 0 -1 3.338 31.788)"/><path style="stroke:none;fill-rule:nonzero;fill:#000;fill-opacity:1" d="M109.766 46.426a1.99 1.99 0 0 0-1.993-1.992 1.99 1.99 0 0 0-1.992 1.992 1.99 1.99 0 0 0 1.992 1.992 1.99 1.99 0 0 0 1.993-1.992Zm0 0"/><g clip-path="url(#a)"><path style="fill:none;stroke-width:1.59404;stroke-linecap:butt;stroke-linejoin:miter;stroke:#000;stroke-opacity:1;stroke-miterlimit:10" d="M106.428-14.638a1.99 1.99 0 0 1-1.993 1.992 1.99 1.99 0 0 1-1.992-1.992 1.99 1.99 0 0 1 1.992-1.992 1.99 1.99 0 0 1 1.993 1.992Zm0 0" transform="matrix(1 0 0 -1 3.338 31.788)"/></g><path style="stroke:none;fill-rule:nonzero;fill:#000;fill-opacity:1" d="M124.684 56.64a1.993 1.993 0 1 0-3.983.002 1.993 1.993 0 0 0 3.983-.001Zm0 0"/><g clip-path="url(#b)"><path style="fill:none;stroke-width:1.59404;stroke-linecap:butt;stroke-linejoin:miter;stroke:#000;stroke-opacity:1;stroke-miterlimit:10" d="M121.346-24.853a1.993 1.993 0 1 1-3.983-.002 1.993 1.993 0 0 1 3.983.002Zm0 0" transform="matrix(1 0 0 -1 3.338 31.788)"/></g><path style="stroke:none;fill-rule:nonzero;fill:#000;fill-opacity:1" d="M139.605 60.125a1.993 1.993 0 1 0-3.986.002 1.993 1.993 0 0 0 3.986-.002Zm0 0"/><g clip-path="url(#c)"><path style="fill:none;stroke-width:1.59404;stroke-linecap:butt;stroke-linejoin:miter;stroke:#000;stroke-opacity:1;stroke-miterlimit:10" d="M136.267-28.337a1.993 1.993 0 1 1-3.986-.002 1.993 1.993 0 0 1 3.986.002Zm0 0" transform="matrix(1 0 0 -1 3.338 31.788)"/></g><path style="stroke:none;fill-rule:nonzero;fill:#000;fill-opacity:1" d="M154.523 55.941a1.993 1.993 0 1 0-1.992 1.996 1.994 1.994 0 0 0 1.992-1.996Zm0 0"/><g clip-path="url(#d)"><path style="fill:none;stroke-width:1.59404;stroke-linecap:butt;stroke-linejoin:miter;stroke:#000;stroke-opacity:1;stroke-miterlimit:10" d="M151.185-24.153a1.993 1.993 0 1 1-1.992-1.997c1.102 0 1.992.895 1.992 1.997Zm0 0" transform="matrix(1 0 0 -1 3.338 31.788)"/></g><path style="stroke:none;fill-rule:nonzero;fill:#000;fill-opacity:1" d="M169.445 45.223a1.994 1.994 0 0 0-3.988 0c0 1.097.895 1.992 1.992 1.992a1.996 1.996 0 0 0 1.996-1.992Zm0 0"/><g clip-path="url(#e)"><path style="fill:none;stroke-width:1.59404;stroke-linecap:butt;stroke-linejoin:miter;stroke:#000;stroke-opacity:1;stroke-miterlimit:10" d="M166.107-13.435a1.994 1.994 0 0 1-3.988 0c0-1.097.895-1.992 1.992-1.992 1.102 0 1.996.895 1.996 1.992Zm0 0" transform="matrix(1 0 0 -1 3.338 31.788)"/></g><path style="fill-rule:nonzero;fill:#000;fill-opacity:1;stroke-width:1.59404;stroke-linecap:butt;stroke-linejoin:miter;stroke:#000;stroke-opacity:1;stroke-miterlimit:10" d="M181.025.925a1.99 1.99 0 0 1-1.992 1.992 1.99 1.99 0 0 1-1.992-1.992 1.99 1.99 0 0 1 1.992-1.992 1.99 1.99 0 0 1 1.992 1.992ZM195.943 15.03a1.993 1.993 0 1 1-3.983-.002 1.993 1.993 0 0 1 3.983.002ZM210.865 25.07a1.994 1.994 0 0 1-3.988 0c0-1.098.894-1.993 1.996-1.993 1.098 0 1.992.895 1.992 1.992ZM225.783 28.323a1.99 1.99 0 0 1-1.992 1.992 1.99 1.99 0 0 1-1.992-1.992 1.99 1.99 0 0 1 1.992-1.992 1.99 1.99 0 0 1 1.992 1.992ZM240.701 23.91a1.993 1.993 0 1 1-3.983-.002 1.993 1.993 0 0 1 3.983.001ZM255.623 13.026a1.993 1.993 0 0 1-3.984 0c0-1.101.89-1.996 1.992-1.996 1.097 0 1.992.895 1.992 1.996Zm0 0" transform="matrix(1 0 0 -1 3.338 31.788)"/><path style="stroke:none;fill-rule:nonzero;fill:#000;fill-opacity:1" d="M273.879 33.176c0-1.102-.89-1.996-1.992-1.996a1.994 1.994 0 0 0 0 3.988 1.993 1.993 0 0 0 1.992-1.992Zm0 0"/><g clip-path="url(#f)"><path style="fill:none;stroke-width:1.59404;stroke-linecap:butt;stroke-linejoin:miter;stroke:#000;stroke-opacity:1;stroke-miterlimit:10" d="M270.54-1.388c0 1.102-.89 1.996-1.991 1.996a1.994 1.994 0 0 1 0-3.988c1.101 0 1.992.895 1.992 1.992Zm0 0" transform="matrix(1 0 0 -1 3.338 31.788)"/></g><path style="stroke:none;fill-rule:nonzero;fill:#000;fill-opacity:1" d="M288.797 47.21c0-1.1-.89-1.995-1.992-1.995a1.996 1.996 0 0 0-1.993 1.996 1.993 1.993 0 0 0 3.984 0Zm0 0"/><g clip-path="url(#g)"><path style="fill:none;stroke-width:1.59404;stroke-linecap:butt;stroke-linejoin:miter;stroke:#000;stroke-opacity:1;stroke-miterlimit:10" d="M285.459-15.423c0 1.102-.89 1.996-1.992 1.996a1.996 1.996 0 0 1-1.993-1.996 1.993 1.993 0 0 1 3.984 0Zm0 0" transform="matrix(1 0 0 -1 3.338 31.788)"/></g></svg>