<svg xmlns="http://www.w3.org/2000/svg" xmlns:xlink="http://www.w3.org/1999/xlink" width="78.627" height="157.899" viewBox="0 0 58.97 118.424" version="1.2"><defs><symbol overflow="visible" id="a"><path style="stroke:none" d="M5.516-.234c0-.235-.125-.235-.266-.235-.61-.015-.61-.14-.61-.375v-2.14c0-.891-.702-1.532-2.187-1.532-.562 0-1.781.047-1.781.922 0 .438.344.625.61.625.312 0 .624-.219.624-.625 0-.297-.187-.469-.218-.5a5.28 5.28 0 0 1 .718-.062c.75 0 1.11.422 1.11 1.172v.343c-.72.032-3.25.125-3.25 1.563C.266-.125 1.5.062 2.187.062c.797 0 1.266-.406 1.485-.828 0 .313 0 .766 1.047.766h.468c.204 0 .329 0 .329-.234Zm-2-1.157c0 .97-.922 1.094-1.172 1.094-.516 0-.906-.344-.906-.797 0-1.062 1.578-1.203 2.078-1.234Zm0 0"/></symbol><symbol overflow="visible" id="b"><path style="stroke:none" d="M5.984-2.219c0-1.328-.937-2.265-2.39-2.265-.719 0-1.219.28-1.453.484v-2.922l-1.766.078v.469c.61 0 .688 0 .688.39V0h.468c.157-.188.328-.375.485-.563.078.079.562.625 1.453.625 1.484 0 2.515-.906 2.515-2.28Zm-1.28 0c0 .469 0 1.016-.25 1.406-.298.407-.75.516-1.079.516-.688 0-1.078-.547-1.188-.687v-2.5c.282-.36.75-.641 1.297-.641 1.22 0 1.22 1.203 1.22 1.906Zm0 0"/></symbol><symbol overflow="visible" id="c"><path style="stroke:none" d="M4.766-1.172c0-.14-.141-.14-.235-.14-.187 0-.187.03-.25.156-.25.625-.734.812-1.234.812-1.39 0-1.39-1.453-1.39-1.922 0-.562 0-1.843 1.28-1.843.36 0 .516.015.657.046a.618.618 0 0 0-.203.47c0 .437.343.624.609.624.313 0 .64-.219.64-.625 0-.86-1.156-.922-1.734-.922C1.11-4.516.375-3.375.375-2.219.375-.89 1.313.062 2.844.062c1.625 0 1.922-1.156 1.922-1.234Zm0 0"/></symbol><symbol overflow="visible" id="d"><path style="stroke:none" d="M5.984 0v-.469c-.609 0-.687 0-.687-.39v-6.063l-1.766.078v.469c.625 0 .703 0 .703.39v1.954a2.178 2.178 0 0 0-1.359-.453c-1.453 0-2.5.875-2.5 2.28 0 1.313.922 2.267 2.39 2.267.61 0 1.094-.235 1.407-.485v.484ZM4.172-1.031c-.14.187-.547.734-1.297.734-1.219 0-1.219-1.203-1.219-1.906 0-.485 0-1.016.25-1.406.297-.422.766-.516 1.078-.516.563 0 .97.313 1.188.61Zm0 0"/></symbol><symbol overflow="visible" id="e"><path style="stroke:none" d="M4.922-1.172c0-.172-.188-.172-.234-.172-.172 0-.188.047-.25.203-.204.485-.782.797-1.422.797-1.407 0-1.422-1.328-1.422-1.828h3.015c.22 0 .313 0 .313-.265 0-.313-.063-1.047-.563-1.547-.359-.36-.89-.532-1.578-.532C1.187-4.516.312-3.484.312-2.25c0 1.344 1 2.313 2.61 2.313 1.578 0 2-1.063 2-1.235ZM3.984-2.5h-2.39c.015-.39.031-.813.234-1.14.266-.391.672-.516.953-.516 1.172 0 1.188 1.312 1.203 1.656Zm0 0"/></symbol><symbol overflow="visible" id="f"><path style="stroke:none" d="M4.36-6.11c0-.421-.36-.874-1.141-.874-.969 0-2.047.421-2.047 1.546v1.016h-.75v.469h.75V-.47H.484V0l1.25-.031c.375 0 1.016 0 1.375.031v-.469H2.25v-3.484h1.14v-.469H2.188v-1.016c0-1.093.75-1.187 1-1.187.047 0 .11 0 .172.031a.585.585 0 0 0-.234.485c0 .421.36.609.61.609.296 0 .624-.203.624-.61Zm0 0"/></symbol><symbol overflow="visible" id="g"><path style="stroke:none" d="M4.922 0v-.469h-1.39v-5.734c0-.234 0-.328-.266-.328-.11 0-.125 0-.22.078-.765.562-1.796.562-2 .562H.845v.47h.203c.156 0 .703-.016 1.297-.204v5.156H.954V0c.437-.031 1.5-.031 1.984-.031s1.546 0 1.984.031Zm0 0"/></symbol><symbol overflow="visible" id="h"><path style="stroke:none" d="M5.156-2.219h-.468c-.032.203-.125.844-.266.906-.11.063-.86.063-1.016.063H1.937c.47-.39 1-.813 1.438-1.14 1.14-.844 1.781-1.313 1.781-2.25 0-1.157-1.047-1.891-2.437-1.891-1.219 0-2.156.625-2.156 1.515 0 .594.484.735.718.735C1.61-4.281 2-4.5 2-5c0-.516-.422-.672-.563-.719.282-.234.672-.343 1.032-.343.844 0 1.312.671 1.312 1.421 0 .688-.375 1.375-1.078 2.079l-2 2.046c-.14.11-.14.141-.14.344V0h4.28Zm0 0"/></symbol><symbol overflow="visible" id="i"><path style="stroke:none" d="M5.25-1.797c0-.547-.297-1.406-1.734-1.719.687-.203 1.406-.765 1.406-1.625 0-.765-.75-1.39-2.156-1.39-1.188 0-1.97.64-1.97 1.437 0 .422.313.703.688.703a.668.668 0 0 0 .704-.687c0-.578-.547-.688-.579-.703.344-.282.782-.36 1.094-.36.828 0 .86.641.86.97 0 .124-.016 1.437-1.047 1.5-.407.015-.438.015-.485.03-.094.016-.125.11-.125.172 0 .172.11.172.282.172h.437c1.094 0 1.094.985 1.094 1.5 0 .469 0 1.484-1.031 1.484-.266 0-.782-.046-1.266-.343C1.75-.75 2-1 2-1.406c0-.453-.313-.75-.75-.75-.422 0-.766.265-.766.765 0 .907.97 1.5 2.25 1.5 1.782 0 2.516-1 2.516-1.906Zm0 0"/></symbol><symbol overflow="visible" id="j"><path style="stroke:none" d="M5.406 0v-.469h-.968v-1.094h.968v-.468h-.968V-6.22c0-.265-.016-.328-.297-.328-.22 0-.22.016-.344.172L.312-2.031v.469h2.876V-.47h-1.11V0c.375-.031 1.281-.031 1.703-.031.406 0 1.266 0 1.625.031Zm-2.11-2.031H.845L3.297-5.11Zm0 0"/></symbol><symbol overflow="visible" id="k"><path style="stroke:none" d="M5.156-2c0-1.156-.797-2.078-2.265-2.078-.282 0-.813.031-1.282.344v-1.313c.282.047.391.078.72.078 1.452 0 2.374-1.125 2.374-1.375 0-.078-.016-.187-.14-.187-.032 0-.032 0-.141.047a4.32 4.32 0 0 1-1.531.28c-.75 0-1.282-.202-1.547-.28-.094-.032-.094-.047-.125-.047-.14 0-.14.11-.14.265v2.922c0 .172 0 .297.218.297.125 0 .156-.031.219-.11.39-.468.921-.562 1.328-.562.89 0 .89.875.89 1.672 0 .735 0 1.735-1.187 1.735-.25 0-.875-.063-1.297-.625.36-.016.656-.266.656-.672 0-.532-.437-.672-.672-.672-.14 0-.671.094-.671.703 0 .844.78 1.687 2.015 1.687C4.172.11 5.156-.78 5.156-2Zm0 0"/></symbol><symbol overflow="visible" id="l"><path style="stroke:none" d="M5.25-2.047c0-1.39-1.016-2.125-2.219-2.125-.219 0-.781 0-1.203.766v-.188c0-1.14.219-1.562.281-1.719.25-.468.782-.828 1.391-.828.172 0 .516.032.75.266a.595.595 0 0 0-.547.61c0 .343.235.624.625.624s.625-.265.625-.64c0-.625-.422-1.25-1.469-1.25-1.359 0-3 .86-3 3.375 0 .781.079 1.578.5 2.265.47.766 1.22 1 1.922 1C4.281.11 5.25-.703 5.25-2.047Zm-1.36-.015c0 1 0 1.75-1.015 1.75-.516 0-.781-.391-.86-.563-.156-.313-.156-1.031-.156-1.219 0-1.25.532-1.719 1.079-1.719.953 0 .953.75.953 1.75Zm0 0"/></symbol></defs><path style="fill:none;stroke-width:.3985;stroke-linecap:butt;stroke-linejoin:miter;stroke:#000;stroke-opacity:1;stroke-miterlimit:10" d="M18.175-10.491 6.65-3.84" transform="matrix(1 0 0 -1 27.259 2.989)"/><path style="fill:none;stroke-width:.3985;stroke-linecap:round;stroke-linejoin:round;stroke:#000;stroke-opacity:1;stroke-miterlimit:10" d="M-2.073 2.391C-1.691.956-.85.28.002 0-.85-.28-1.692-.957-2.073-2.39" transform="scale(-.99998 .99998) rotate(-29.999 -4.312 66.32)"/><path style="fill:none;stroke-width:.3985;stroke-linecap:butt;stroke-linejoin:miter;stroke:#000;stroke-opacity:1;stroke-miterlimit:10" d="m-6.306-3.64-10.09-5.824" transform="matrix(1 0 0 -1 27.259 2.989)"/><path style="fill:none;stroke-width:.3985;stroke-linecap:round;stroke-linejoin:round;stroke:#000;stroke-opacity:1;stroke-miterlimit:10" d="M-2.073 2.393C-1.693.956-.85.279 0 0c-.852-.28-1.694-.957-2.07-2.39" transform="matrix(-.86601 .49998 .49998 .86601 10.692 12.554)"/><path style="fill:none;stroke-width:.3985;stroke-linecap:butt;stroke-linejoin:miter;stroke:#000;stroke-opacity:1;stroke-miterlimit:10" d="M-23.443-20.542v-13.856" transform="matrix(1 0 0 -1 27.259 2.989)"/><path style="fill:none;stroke-width:.3985;stroke-linecap:round;stroke-linejoin:round;stroke:#000;stroke-opacity:1;stroke-miterlimit:10" d="M-2.072 2.39C-1.692.958-.849.278-.002 0c-.847-.277-1.69-.957-2.07-2.39" transform="matrix(0 1 1 0 3.816 37.587)"/><path style="fill:none;stroke-width:.3985;stroke-linecap:butt;stroke-linejoin:miter;stroke:#000;stroke-opacity:1;stroke-miterlimit:10" d="m-17.376-44.105 10.328-5.965" transform="matrix(1 0 0 -1 27.259 2.989)"/><path style="fill:none;stroke-width:.3985;stroke-linecap:round;stroke-linejoin:round;stroke:#000;stroke-opacity:1;stroke-miterlimit:10" d="M-2.072 2.392C-1.693.955-.852.277-.002 0c-.849-.278-1.692-.96-2.07-2.39" transform="matrix(.86601 .49998 .49998 -.86601 20.384 53.158)"/><path style="fill:none;stroke-width:.3985;stroke-linecap:butt;stroke-linejoin:miter;stroke:#000;stroke-opacity:1;stroke-miterlimit:10" d="m6.702-50.269 10.25 5.918" transform="matrix(1 0 0 -1 27.259 2.989)"/><path style="fill:none;stroke-width:.3985;stroke-linecap:round;stroke-linejoin:round;stroke:#000;stroke-opacity:1;stroke-miterlimit:10" d="M-2.072 2.39C-1.695.958-.85.28-.002-.001c-.846-.278-1.692-.954-2.07-2.39" transform="scale(.99998 -.99998) rotate(29.999 110.348 59.205)"/><path style="fill:none;stroke-width:.3985;stroke-linecap:butt;stroke-linejoin:miter;stroke:#000;stroke-opacity:1;stroke-miterlimit:10" d="M23.444-34.796v13.855" transform="matrix(1 0 0 -1 27.259 2.989)"/><path style="fill:none;stroke-width:.3985;stroke-linecap:round;stroke-linejoin:round;stroke:#000;stroke-opacity:1;stroke-miterlimit:10" d="M-2.071 2.39C-1.692.955-.848.28-.001-.003c-.847-.277-1.691-.953-2.07-2.39" transform="matrix(0 -1 -1 0 50.702 23.73)"/><path style="fill:none;stroke-width:.3985;stroke-linecap:butt;stroke-linejoin:miter;stroke:#000;stroke-opacity:1;stroke-miterlimit:10" d="m-2.904-5.808-7.699-15.398" transform="matrix(1 0 0 -1 27.259 2.989)"/><path style="fill:none;stroke-width:.3985;stroke-linecap:round;stroke-linejoin:round;stroke:#000;stroke-opacity:1;stroke-miterlimit:10" d="M-2.074 2.392C-1.694.958-.85.278 0 0c-.851-.28-1.693-.955-2.072-2.39" transform="matrix(-.44717 .89436 .89436 .44717 16.566 24.375)"/><path style="fill:none;stroke-width:.3985;stroke-linecap:butt;stroke-linejoin:miter;stroke:#000;stroke-opacity:1;stroke-miterlimit:10" d="m2.905-5.808 7.7-15.398" transform="matrix(1 0 0 -1 27.259 2.989)"/><path style="fill:none;stroke-width:.3985;stroke-linecap:round;stroke-linejoin:round;stroke:#000;stroke-opacity:1;stroke-miterlimit:10" d="M-2.072 2.391C-1.692.957-.852.279.001.001-.85-.277-1.692-.956-2.073-2.391" transform="matrix(.44717 .89436 .89436 -.44717 37.952 24.375)"/><path style="fill:none;stroke-width:.3985;stroke-linecap:butt;stroke-linejoin:miter;stroke:#000;stroke-opacity:1;stroke-miterlimit:10" d="m-3.505-61.144-7.07-14.148" transform="matrix(1 0 0 -1 27.259 2.989)"/><path style="fill:none;stroke-width:.3985;stroke-linecap:round;stroke-linejoin:round;stroke:#000;stroke-opacity:1;stroke-miterlimit:10" d="M-2.072 2.393C-1.694.957-.849.28-.002 0c-.847-.28-1.692-.956-2.072-2.39" transform="matrix(-.44717 .89436 .89436 .44717 16.593 78.459)"/><path style="fill:none;stroke-width:.3985;stroke-linecap:butt;stroke-linejoin:miter;stroke:#000;stroke-opacity:1;stroke-miterlimit:10" d="M3.503-61.144 10.6-75.343" transform="matrix(1 0 0 -1 27.259 2.989)"/><path style="fill:none;stroke-width:.3985;stroke-linecap:round;stroke-linejoin:round;stroke:#000;stroke-opacity:1;stroke-miterlimit:10" d="M-2.073 2.39C-1.693.956-.848.28 0 0c-.85-.278-1.693-.957-2.073-2.392" transform="matrix(.44717 .89436 .89436 -.44717 37.95 78.508)"/><path style="fill:none;stroke-width:.3985;stroke-linecap:butt;stroke-linejoin:miter;stroke:#000;stroke-opacity:1;stroke-miterlimit:10" d="M10.78-89.273 3.596-103.64" transform="matrix(1 0 0 -1 27.259 2.989)"/><path style="fill:none;stroke-width:.3985;stroke-linecap:round;stroke-linejoin:round;stroke:#000;stroke-opacity:1;stroke-miterlimit:10" d="M-2.074 2.39C-1.693.956-.85.276 0 0c-.85-.276-1.693-.956-2.072-2.39" transform="matrix(-.44717 .89436 .89436 .44717 30.767 106.805)"/><path style="fill:none;stroke-width:.3985;stroke-linecap:butt;stroke-linejoin:miter;stroke:#000;stroke-opacity:1;stroke-miterlimit:10" d="m17.57-89.273 7.179-14.367" transform="matrix(1 0 0 -1 27.259 2.989)"/><path style="fill:none;stroke-width:.3985;stroke-linecap:round;stroke-linejoin:round;stroke:#000;stroke-opacity:1;stroke-miterlimit:10" d="M-2.073 2.39C-1.693.956-.848.28 0 0c-.85-.278-1.693-.957-2.074-2.392" transform="matrix(.44717 .89436 .89436 -.44717 52.098 106.805)"/><use xlink:href="#a" x="24.474" y="5.216" style="fill:#000;fill-opacity:1"/><use xlink:href="#b" x=".634" y="19.951" style="fill:#000;fill-opacity:1"/><use xlink:href="#c" x="1.271" y="45.819" style="fill:#000;fill-opacity:1"/><use xlink:href="#d" x="24.076" y="60.554" style="fill:#000;fill-opacity:1"/><use xlink:href="#e" x="48.076" y="45.819" style="fill:#000;fill-opacity:1"/><use xlink:href="#f" x="48.953" y="20.01" style="fill:#000;fill-opacity:1"/><use xlink:href="#g" x="10.221" y="34.598" style="fill:#000;fill-opacity:1"/><use xlink:href="#h" x="38.568" y="34.598" style="fill:#000;fill-opacity:1"/><use xlink:href="#i" x="10.221" y="88.681" style="fill:#000;fill-opacity:1"/><use xlink:href="#j" x="38.568" y="88.741" style="fill:#000;fill-opacity:1"/><use xlink:href="#k" x="24.395" y="117.028" style="fill:#000;fill-opacity:1"/><use xlink:href="#l" x="52.741" y="117.028" style="fill:#000;fill-opacity:1"/></svg>