<svg xmlns="http://www.w3.org/2000/svg" width="42.44" height="14.547" viewBox="0 0 31.83 10.91" version="1.2"><defs><clipPath id="a"><path d="M0 0h31.746v10.863H0Zm0 0"/></clipPath><clipPath id="b"><path d="M1 0h30.746v10.863H1Zm0 0"/></clipPath></defs><path style="fill:none;stroke-width:1.59404;stroke-linecap:butt;stroke-linejoin:miter;stroke:#000;stroke-opacity:1;stroke-miterlimit:10" d="M.002 2.213h14.332" transform="matrix(1 0 0 -1 .924 7.627)"/><path style="stroke:none;fill-rule:nonzero;fill:#000;fill-opacity:1" d="m20.563 5.414-4.907-3.016v6.036Zm0 0"/><g clip-path="url(#a)"><path style="fill:none;stroke-width:1.59404;stroke-linecap:butt;stroke-linejoin:miter;stroke:#000;stroke-opacity:1;stroke-miterlimit:10" d="M5.704.001.798 3.017v-6.035Zm0 0" transform="matrix(1 0 0 -1 14.859 5.415)"/></g><path style="stroke:none;fill-rule:nonzero;fill:#000;fill-opacity:1" d="m29.219 5.414-4.91-3.016v6.036Zm0 0"/><g clip-path="url(#b)"><path style="fill:none;stroke-width:1.59404;stroke-linecap:butt;stroke-linejoin:miter;stroke:#000;stroke-opacity:1;stroke-miterlimit:10" d="M5.706.001.796 3.017v-6.035Zm0 0" transform="matrix(1 0 0 -1 23.513 5.415)"/></g></svg>