<svg xmlns="http://www.w3.org/2000/svg" width="116.463" height="118.515" viewBox="0 0 87.347 88.886" version="1.2"><defs><clipPath id="a"><path d="M0 0h87.02v88H0Zm0 0"/></clipPath><clipPath id="b"><path d="M0 14h75v74.828H0Zm0 0"/></clipPath></defs><path style="fill:none;stroke-width:.19925;stroke-linecap:butt;stroke-linejoin:miter;stroke:gray;stroke-opacity:1;stroke-miterlimit:10" d="M.001 0h85.04M0 28.348h85.04M0 56.684h85.04M0 0v56.692M28.345 0v56.692M56.693 0v56.692M85.029 0v56.692" transform="matrix(1 0 0 -1 .881 87.723)"/><g clip-path="url(#a)"><path style="fill:none;stroke-width:.3985;stroke-linecap:butt;stroke-linejoin:miter;stroke:#000;stroke-opacity:1;stroke-miterlimit:10" d="M.001 26.805a38.709 38.709 0 0 0 4.649-.406A37.957 37.957 0 0 0 9 25.23a39.042 39.042 0 0 0 4.067-1.875 40.396 40.396 0 0 0 3.71-2.535 40.852 40.852 0 0 0 3.258-3.114 40.993 40.993 0 0 0 2.7-3.601 39.484 39.484 0 0 0 2.058-3.977c.535-1.394.989-2.82 1.364-4.281M0 36.77a53.81 53.81 0 0 0 6.387-.563c2.047-.422 4.05-.96 6.012-1.609a54.356 54.356 0 0 0 5.586-2.574 56.64 56.64 0 0 0 5.07-3.465 56.108 56.108 0 0 0 4.434-4.242 55.669 55.669 0 0 0 3.683-4.91 55.845 55.845 0 0 0 2.824-5.457 55.176 55.176 0 0 0 1.88-5.903M0 46.731a69.91 69.91 0 0 0 8.125-.711 69.614 69.614 0 0 0 7.668-2.055 71.028 71.028 0 0 0 7.11-3.277 71.432 71.432 0 0 0 6.425-4.39 70.694 70.694 0 0 0 5.614-5.368 71.727 71.727 0 0 0 4.664-6.223 70.126 70.126 0 0 0 3.59-6.937 69.086 69.086 0 0 0 2.394-7.524M.001 56.692a84.394 84.394 0 0 0 9.867-.864 83.46 83.46 0 0 0 9.32-2.5 84.263 84.263 0 0 0 8.63-3.976 85.737 85.737 0 0 0 7.785-5.316 85.33 85.33 0 0 0 6.793-6.497 85.767 85.767 0 0 0 5.644-7.53 83.963 83.963 0 0 0 4.356-8.415 83.44 83.44 0 0 0 2.914-9.152M0 66.657a99.59 99.59 0 0 0 11.606-1.02 99.132 99.132 0 0 0 10.98-2.941 99.165 99.165 0 0 0 10.149-4.68c3.168-1.918 6.218-4 9.144-6.242a100.585 100.585 0 0 0 7.969-7.625 100.635 100.635 0 0 0 6.629-8.84 99.451 99.451 0 0 0 5.117-9.895 98.76 98.76 0 0 0 3.43-10.773M0 76.618c4.48-.13 8.953-.524 13.344-1.172 4.309-.891 8.524-2.024 12.637-3.383a115.434 115.434 0 0 0 11.672-5.383 115.39 115.39 0 0 0 10.5-7.168 116.556 116.556 0 0 0 9.148-8.75 116.497 116.497 0 0 0 7.61-10.152 114.606 114.606 0 0 0 5.886-11.375c1.54-4.028 2.86-8.164 3.945-12.399M.001 86.571a130.053 130.053 0 0 0 15.082-1.325 129.28 129.28 0 0 0 14.293-3.828c4.532-1.789 8.93-3.82 13.192-6.086a129.898 129.898 0 0 0 11.855-8.09 131.135 131.135 0 0 0 10.324-9.878 130.777 130.777 0 0 0 8.594-11.461A130.477 130.477 0 0 0 79.99 33.05a128.388 128.388 0 0 0 4.46-14.02M.002 26.806v59.777M4.65 26.4c.433 2.453.867 4.906 1.304 7.36.434 2.448.872 4.901 1.305 7.355.434 2.453.871 4.906 1.305 7.355.433 2.453.87 4.906 1.304 7.36.434 2.453.872 4.902 1.305 7.355.434 2.453.871 4.906 1.305 7.36.437 2.452.871 4.902 1.305 7.355.437 2.453.87 4.906 1.304 7.36M9.001 25.23l2.551 7.027c.848 2.34 1.695 4.68 2.547 7.024.848 2.34 1.695 4.683 2.547 7.023.848 2.344 1.695 4.684 2.547 7.023.847 2.344 1.699 4.684 2.547 7.028.847 2.34 1.699 4.68 2.546 7.023.848 2.34 1.7 4.684 2.547 7.024.848 2.34 1.7 4.683 2.547 7.023M13.068 23.36c1.23 2.164 2.46 4.332 3.687 6.496 1.23 2.164 2.461 4.332 3.688 6.496l3.691 6.5c1.227 2.164 2.457 4.332 3.688 6.496 1.226 2.168 2.457 4.332 3.687 6.5 1.23 2.164 2.457 4.332 3.688 6.496l3.687 6.5c1.23 2.164 2.461 4.332 3.688 6.496M16.779 20.82c1.57 1.938 3.136 3.872 4.707 5.805 1.57 1.934 3.136 3.871 4.707 5.805 1.566 1.934 3.136 3.867 4.707 5.805 1.566 1.933 3.136 3.867 4.703 5.8 1.57 1.934 3.14 3.872 4.707 5.805 1.57 1.934 3.137 3.867 4.707 5.805l4.707 5.8c1.57 1.938 3.137 3.872 4.707 5.805M20.036 17.707l5.59 4.957 5.59 4.957c1.863 1.657 3.727 3.309 5.59 4.961l5.59 4.957 5.59 4.957a6371.88 6371.88 0 0 1 5.59 4.961l5.59 4.957 5.59 4.957m-42.02-43.265c2.11 1.328 4.218 2.652 6.328 3.976 2.11 1.325 4.215 2.653 6.324 3.977l6.328 3.973c2.11 1.328 4.219 2.652 6.324 3.976 2.11 1.324 4.22 2.649 6.328 3.977l6.329 3.972a5624.48 5624.48 0 0 0 6.324 3.977c2.11 1.324 4.219 2.648 6.328 3.977M24.794 10.129c2.301.957 4.602 1.91 6.903 2.867 2.3.954 4.597 1.91 6.898 2.864 2.3.957 4.602 1.91 6.902 2.867l6.899 2.867c2.3.953 4.601 1.91 6.902 2.863 2.297.957 4.598 1.91 6.899 2.868 2.3.953 4.601 1.91 6.902 2.867 2.297.953 4.598 1.91 6.898 2.863m-53.84-27.2c2.43.552 4.86 1.098 7.286 1.65 2.43.55 4.86 1.1 7.289 1.648l7.289 1.652c2.426.547 4.855 1.098 7.285 1.648 2.43.551 4.86 1.098 7.29 1.649 2.429.55 4.855 1.101 7.284 1.648l7.29 1.653c2.429.547 4.859 1.097 7.284 1.648" transform="matrix(1 0 0 -1 .881 87.723)"/></g><g clip-path="url(#b)"><path style="fill:none;stroke-width:1.19553;stroke-linecap:butt;stroke-linejoin:miter;stroke:red;stroke-opacity:1;stroke-miterlimit:10" d="M.001 56.692c31.18 0 56.692-25.512 56.692-56.692" transform="matrix(1 0 0 -1 .881 87.723)"/></g></svg>