<svg xmlns="http://www.w3.org/2000/svg" width="118.136" height="82.035" viewBox="0 0 88.602 61.526" version="1.2"><defs><clipPath id="a"><path d="M0 0h64v61.29H0Zm0 0"/></clipPath><clipPath id="b"><path d="M0 0h88.402v61.29H0Zm0 0"/></clipPath></defs><path style="fill:none;stroke-width:.19925;stroke-linecap:butt;stroke-linejoin:miter;stroke:gray;stroke-opacity:1;stroke-miterlimit:10" d="M0 0h85.042M0 28.35h85.043M0 56.684h85.043M0 .002v56.691M28.347.001v56.691M56.695.001v56.691M85.03.001v56.691" transform="matrix(1 0 0 -1 .946 58.872)"/><g clip-path="url(#a)"><path style="fill:none;stroke-width:.3985;stroke-linecap:butt;stroke-linejoin:miter;stroke:#000;stroke-opacity:1;stroke-miterlimit:10" d="m0 0 56.695 56.692" transform="matrix(1 0 0 -1 .946 58.872)"/></g><g clip-path="url(#b)"><path style="fill:none;stroke-width:3.9851;stroke-linecap:butt;stroke-linejoin:miter;stroke:red;stroke-opacity:1;stroke-miterlimit:10" d="m28.347 0 56.695 56.692" transform="matrix(1 0 0 -1 .946 58.872)"/></g></svg>