<svg xmlns="http://www.w3.org/2000/svg" width="50.215" height="42.363" viewBox="0 0 37.661 31.772" version="1.2"><defs><clipPath id="a"><path d="M0 0h37.492v31.656H0Zm0 0"/></clipPath></defs><g clip-path="url(#a)"><path style="fill:none;stroke-width:1.39478;stroke-linecap:butt;stroke-linejoin:miter;stroke:#000;stroke-opacity:1;stroke-miterlimit:10" d="M28.347 28.346c3.934 0 3.934-28.347 0-28.347C24.414-.001 3.933 28.346 0 28.346-3.934 28.346-3.934 0 0 0c3.933 0 24.414 28.347 28.347 28.347Zm0 0" transform="matrix(1 0 0 -1 4.489 29.948)"/><path style="fill:none;stroke-width:.59776;stroke-linecap:butt;stroke-linejoin:miter;stroke:#fff;stroke-opacity:1;stroke-miterlimit:10" d="M28.347 28.346c3.934 0 3.934-28.347 0-28.347C24.414-.001 3.933 28.346 0 28.346-3.934 28.346-3.934 0 0 0c3.933 0 24.414 28.347 28.347 28.347Zm0 0" transform="matrix(1 0 0 -1 4.489 29.948)"/></g></svg>