<svg xmlns="http://www.w3.org/2000/svg" width="153.877" height="42.579" viewBox="0 0 115.408 31.934" version="1.2"><defs><clipPath id="a"><path d="M75 19h17v12.902H75Zm0 0"/></clipPath><clipPath id="b"><path d="M72 17h17v14.902H72Zm0 0"/></clipPath></defs><path style="fill:none;stroke-width:.3985;stroke-linecap:butt;stroke-linejoin:miter;stroke:#000;stroke-opacity:1;stroke-miterlimit:10" d="M14.4-3.485h27.895v6.972H14.4ZM23.576 14.382l5.137-5.133" transform="matrix(1 0 0 -1 .713 15.495)"/><path style="fill-rule:nonzero;fill:#000;fill-opacity:1;stroke-width:.3985;stroke-linecap:butt;stroke-linejoin:round;stroke:#000;stroke-opacity:1;stroke-miterlimit:10" d="M-1.457 1.114 1.455-.002l-2.909-1.113Zm0 0" transform="scale(1 -1) rotate(-45 7.172 -38.644)"/><path style="fill:none;stroke-width:.3985;stroke-linecap:butt;stroke-linejoin:miter;stroke:#000;stroke-opacity:1;stroke-miterlimit:10" d="m20.787 11.593 5.137-5.133" transform="matrix(1 0 0 -1 .713 15.495)"/><path style="fill-rule:nonzero;fill:#000;fill-opacity:1;stroke-width:.3985;stroke-linecap:butt;stroke-linejoin:round;stroke:#000;stroke-opacity:1;stroke-miterlimit:10" d="M-1.454 1.112 1.455-.001l-2.909-1.114Zm0 0" transform="scale(1 -1) rotate(-45 2.41 -36.672)"/><path style="fill:none;stroke-width:.3985;stroke-linecap:butt;stroke-linejoin:miter;stroke:#000;stroke-opacity:1;stroke-miterlimit:10" d="M80.682-4.36v8.718l8.52-4.36ZM80.682-.001H89.4M89.4-4.36v8.718" transform="matrix(1 0 0 -1 .713 15.495)"/><g clip-path="url(#a)"><path style="fill:none;stroke-width:.3985;stroke-linecap:butt;stroke-linejoin:miter;stroke:#000;stroke-opacity:1;stroke-miterlimit:10" d="m80.271-15.255 5.137 5.137" transform="matrix(1 0 0 -1 .713 15.495)"/></g><path style="fill-rule:nonzero;fill:#000;fill-opacity:1;stroke-width:.3985;stroke-linecap:butt;stroke-linejoin:round;stroke:#000;stroke-opacity:1;stroke-miterlimit:10" d="M-1.454 1.113 1.455 0l-2.909-1.113Zm0 0" transform="scale(1 -1) rotate(45 73.98 91.15)"/><g clip-path="url(#b)"><path style="fill:none;stroke-width:.3985;stroke-linecap:butt;stroke-linejoin:miter;stroke:#000;stroke-opacity:1;stroke-miterlimit:10" d="m77.482-12.466 5.137 5.137" transform="matrix(1 0 0 -1 .713 15.495)"/></g><path style="fill-rule:nonzero;fill:#000;fill-opacity:1;stroke-width:.3985;stroke-linecap:butt;stroke-linejoin:round;stroke:#000;stroke-opacity:1;stroke-miterlimit:10" d="M-1.454 1.112 1.455 0l-2.909-1.113Zm0 0" transform="scale(1 -1) rotate(45 69.218 89.177)"/><path style="fill:none;stroke-width:.3985;stroke-linecap:butt;stroke-linejoin:miter;stroke:#000;stroke-opacity:1;stroke-miterlimit:10" d="M.002-.001h14.2m28.292 0h37.988m9.118 0h23.789" transform="matrix(1 0 0 -1 .713 15.495)"/></svg>