<svg xmlns="http://www.w3.org/2000/svg" width="116.331" height="125.931" viewBox="0 0 87.248 94.448" version="1.2"><defs><clipPath id="a"><path d="M0 58h64v36.172H0Zm0 0"/></clipPath></defs><path style="fill:none;stroke-width:.19925;stroke-linecap:butt;stroke-linejoin:miter;stroke:gray;stroke-opacity:1;stroke-miterlimit:10" d="M.001 0h85.04M0 28.348h85.04M0 56.684h85.04M0 0v56.692M28.345 0v56.692M56.693 0v56.692M85.029 0v56.692" transform="matrix(1 0 0 -1 .733 92.977)"/><g clip-path="url(#a)"><path style="fill:none;stroke-width:.3985;stroke-linecap:butt;stroke-linejoin:miter;stroke:#000;stroke-opacity:1;stroke-miterlimit:10" d="m.001 0 56.692 28.348L28.345 0" transform="matrix(1 0 0 -1 .733 92.977)"/></g><path style="fill:none;stroke-width:.3985;stroke-linecap:butt;stroke-linejoin:miter;stroke:red;stroke-opacity:1;stroke-miterlimit:10" d="m7.087 7.086 56.692 85.04-28.344-56.692" transform="matrix(1 0 0 -1 .733 92.977)"/></svg>