<svg xmlns="http://www.w3.org/2000/svg" xmlns:xlink="http://www.w3.org/1999/xlink" width="32.712" height="32.715" viewBox="0 0 24.534 24.536" version="1.2"><defs><symbol overflow="visible" id="b"><path style="stroke:none" d="M3.094-1.953c-.235.062-.235.281-.235.297 0 .078.063.203.235.203.14 0 .312-.125.312-.344 0-.297-.328-.406-.594-.406a.78.78 0 0 0-.64.344c-.156-.282-.485-.344-.656-.344-.625 0-.985.594-.985.765 0 .079.078.079.11.079.046 0 .078 0 .109-.063.14-.484.547-.61.734-.61.172 0 .36.063.36.329 0 .125-.094.469-.266 1.14-.062.282-.297.454-.516.454-.03 0-.171 0-.296-.079.218-.093.218-.28.218-.296 0-.141-.109-.204-.218-.204-.125 0-.297.094-.297.329 0 .312.328.421.594.421.265 0 .5-.171.609-.343a.806.806 0 0 0 .672.344c.625 0 .984-.594.984-.782 0-.062-.078-.062-.11-.062-.077 0-.093.031-.109.062-.14.453-.515.61-.734.61-.156 0-.36-.063-.36-.344 0-.063 0-.094.032-.266.094-.344.219-.89.265-.984.063-.125.235-.328.485-.328.015 0 .187 0 .297.078Zm0 0"/></symbol><symbol overflow="visible" id="c"><path style="stroke:none" d="M3.297-1.86c.015-.077.015-.109.015-.109 0-.11-.078-.172-.171-.172-.204 0-.25.172-.282.297l-.109.422-.14.625c-.032.063-.047.156-.063.188 0 .03-.266.5-.688.5-.234 0-.406-.11-.406-.438 0-.265.14-.64.281-1a.452.452 0 0 0 .063-.219c0-.25-.234-.437-.547-.437-.516 0-.797.64-.797.765 0 .079.078.079.11.079.078 0 .078-.032.109-.094.11-.344.344-.578.562-.578.094 0 .157.047.157.187 0 .094-.032.172-.063.266-.25.594-.297.766-.297.969 0 .546.469.671.797.671.281 0 .5-.14.625-.25-.078.282-.125.5-.36.735-.124.11-.359.312-.655.312-.094 0-.282-.015-.391-.125a.326.326 0 0 0 .25-.296c0-.141-.125-.204-.219-.204A.324.324 0 0 0 .75.578c0 .25.266.438.688.438C2 1.016 2.671.64 2.827 0Zm0 0"/></symbol><symbol overflow="visible" id="d"><path style="stroke:none" d="M1.14-.453c.204-.188.454-.375.735-.578a7.84 7.84 0 0 0 .766-.594c.25-.234.421-.453.421-.516 0-.062-.078-.062-.109-.062-.078 0-.078 0-.11.062-.202.266-.312.282-.39.282-.078 0-.156-.016-.312-.125-.172-.141-.282-.22-.47-.22-.452 0-.75.438-.75.595 0 .078.063.078.11.078s.078-.016.094-.063c.031-.062.078-.187.469-.187.14 0 .25.015.515.062.172.032.235.032.329.032-.157.125-.297.25-.672.53-.36.25-.579.407-.813.626C.75-.36.516-.078.516-.016c0 .079.078.079.109.079.063 0 .078-.016.11-.047.14-.204.328-.313.5-.313.14 0 .202.063.39.203.14.094.25.157.39.157.594 0 .97-.594.97-.797 0-.079-.079-.079-.11-.079-.078 0-.078.032-.11.079-.109.312-.5.359-.687.359-.11 0-.234-.016-.39-.031-.266-.047-.36-.047-.422-.047H1.14Zm0 0"/></symbol><clipPath id="a"><path d="M0 0h24.3v24.305H0Zm0 0"/></clipPath></defs><g clip-path="url(#a)"><path style="fill:none;stroke-width:.3985;stroke-linecap:butt;stroke-linejoin:miter;stroke:#000;stroke-opacity:1;stroke-miterlimit:10" d="M11.06.001C11.06 6.107 6.107 11.06 0 11.06c-6.11 0-11.058-4.954-11.058-11.059 0-6.11 4.949-11.059 11.058-11.059 6.106 0 11.059 4.95 11.059 11.059Zm0 0" transform="matrix(1 0 0 -1 12.034 12.044)"/></g><path style="stroke:none;fill-rule:nonzero;fill:#000;fill-opacity:1" d="M14.96 8.262a2.927 2.927 0 0 0-5.855 0 2.927 2.927 0 0 0 5.856 0Zm0 0"/><use xlink:href="#b" x="10.062" y="9.334" style="fill:#fff;fill-opacity:1"/><path style="stroke:none;fill-rule:nonzero;fill:#000;fill-opacity:1" d="M11.875 14.074a3.16 3.16 0 1 0-6.32 0 3.16 3.16 0 1 0 6.32 0Zm0 0"/><use xlink:href="#c" x="6.807" y="14.662" style="fill:#fff;fill-opacity:1"/><path style="stroke:none;fill-rule:nonzero;fill:#000;fill-opacity:1" d="M18.137 14.074a2.784 2.784 0 0 0-2.785-2.785 2.784 2.784 0 0 0-2.786 2.785 2.784 2.784 0 0 0 2.786 2.785 2.784 2.784 0 0 0 2.785-2.785Zm0 0"/><use xlink:href="#d" x="13.544" y="15.147" style="fill:#fff;fill-opacity:1"/></svg>