<svg xmlns="http://www.w3.org/2000/svg" width="88.94pt" height="81.099" viewBox="0 0 88.94 60.824" version="1.2"><defs><clipPath id="a"><path d="M0 0h88.91v60.734H0Zm0 0"/></clipPath></defs><g clip-path="url(#a)"><path style="fill:none;stroke-width:.3985;stroke-linecap:butt;stroke-linejoin:miter;stroke:#000;stroke-opacity:1;stroke-miterlimit:10" d="m.002 0 .687 3.453L7.6 2.071l1.38 6.91 6.91-1.383 1.379 6.906 6.91-1.379 1.379 6.907 6.91-1.383 1.379 6.91 6.91-1.383 1.383 6.906 6.906-1.379 1.383 6.907 6.906-1.383 1.383 6.91 6.906-1.383 1.383 6.906 6.906-1.378 1.383 6.906 6.906-1.383.692 3.457 2.148 1.43" transform="matrix(1 0 0 -1 2.752 59.387)"/><path style="fill:none;stroke-width:.3985;stroke-linecap:butt;stroke-linejoin:miter;stroke:red;stroke-opacity:1;stroke-miterlimit:10" d="m-.346 58.422.692-3.457m-2.075 1.383 3.457.691m6.215-4.144.692-3.453M6.56 50.82l3.457.691m6.214-4.145.692-3.453m-2.074 1.383 3.457.692m6.214-4.145.692-3.457m-2.07 1.383 3.453.691m6.214-4.144.692-3.453m-2.07 1.378 3.453.692m6.215-4.145.691-3.453m-2.07 1.383 3.453.691m6.215-4.144.691-3.457m-2.07 1.383 3.453.691m6.215-4.144.691-3.454m-2.07 1.38 3.453.69m6.215-4.144.691-3.453m-2.07 1.383 3.453.691m6.215-4.144.691-3.457m-2.07 1.383 3.453.691m6.215-4.145.691-3.453m-2.07 1.38 3.453.69" transform="matrix(1 0 0 -1 2.752 59.387)"/></g></svg>