<svg xmlns="http://www.w3.org/2000/svg" width="78.283" height="29.547" viewBox="0 0 58.712 22.16" version="1.2"><defs><clipPath id="a"><path d="M19 6h21v15.738H19Zm0 0"/></clipPath></defs><g clip-path="url(#a)"><path style="fill:none;stroke-width:.3985;stroke-linecap:butt;stroke-linejoin:miter;stroke:#000;stroke-opacity:1;stroke-miterlimit:10" d="M23.987-4.358V4.36L32.507 0Zm0 0" transform="matrix(1 0 0 -1 .865 16.052)"/></g><path style="fill:none;stroke-width:.3985;stroke-linecap:butt;stroke-linejoin:miter;stroke:#000;stroke-opacity:1;stroke-miterlimit:10" d="M23.987.001h8.718M32.705-4.358V4.36M26.951 9.091l5.137 5.137" transform="matrix(1 0 0 -1 .865 16.052)"/><path style="fill-rule:nonzero;fill:#000;fill-opacity:1;stroke-width:.3985;stroke-linecap:butt;stroke-linejoin:round;stroke:#000;stroke-opacity:1;stroke-miterlimit:10" d="M-1.455 1.114 1.454 0l-2.909-1.114Zm0 0" transform="scale(1 -1) rotate(45 18.68 38.865)"/><path style="fill:none;stroke-width:.3985;stroke-linecap:butt;stroke-linejoin:miter;stroke:#000;stroke-opacity:1;stroke-miterlimit:10" d="m29.74 6.302 5.137 5.137" transform="matrix(1 0 0 -1 .865 16.052)"/><path style="fill-rule:nonzero;fill:#000;fill-opacity:1;stroke-width:.3985;stroke-linecap:butt;stroke-linejoin:round;stroke:#000;stroke-opacity:1;stroke-miterlimit:10" d="M-1.455 1.114 1.454.001l-2.909-1.113Zm0 0" transform="scale(1 -1) rotate(45 23.442 40.838)"/><path style="fill:none;stroke-width:.3985;stroke-linecap:butt;stroke-linejoin:miter;stroke:#000;stroke-opacity:1;stroke-miterlimit:10" d="M-.002.001h23.79m9.117 0h23.789" transform="matrix(1 0 0 -1 .865 16.052)"/></svg>