<svg xmlns="http://www.w3.org/2000/svg" xmlns:xlink="http://www.w3.org/1999/xlink" width="88.059" height="49.635" viewBox="0 0 66.044 37.226" version="1.2"><defs><symbol overflow="visible" id="a"><path style="stroke:none" d="M8.25 0v-.469h-.969L4.72-6.703c-.11-.25-.219-.25-.39-.25-.282 0-.329.078-.391.25l-2.47 6c-.062.156-.093.234-.843.234H.406V0l1.172-.031c.39 0 .938 0 1.313.031v-.469S2-.469 2-.594l.047-.125.5-1.203h2.672l.593 1.453H4.86V0c.391-.031 1.329-.031 1.766-.031.39 0 1.266 0 1.625.031ZM5.016-2.39H2.734l1.141-2.766Zm0 0"/></symbol><symbol overflow="visible" id="b"><path style="stroke:none" d="M7.5-1.86c0-.952-.844-1.624-2.031-1.702 1.078-.204 1.718-.797 1.718-1.563 0-.922-.875-1.719-2.468-1.719H.39v.469h1.078v5.906H.39V0h4.625C6.672 0 7.5-.875 7.5-1.86ZM5.766-5.124c0 .766-.47 1.39-1.438 1.39H2.766v-2.64h1.812c1.016 0 1.188.797 1.188 1.25Zm.28 3.266c0 .109 0 1.39-1.437 1.39H2.766v-2.906h1.937c.203 0 .672 0 1.016.422.328.422.328.984.328 1.094Zm0 0"/></symbol><clipPath id="c"><path d="M8 6h54v30.84H8Zm0 0"/></clipPath></defs><use xlink:href="#a" x=".135" y="35.844" style="fill:#000;fill-opacity:1"/><use xlink:href="#b" x="57.081" y="7.438" style="fill:#000;fill-opacity:1"/><path style="fill:none;stroke-width:.3985;stroke-linecap:butt;stroke-linejoin:miter;stroke:#000;stroke-opacity:1;stroke-miterlimit:10" d="M7.85 3.922 49.1 24.55M7.85 3.922c0 .836.554 1.672 1.667 2.226l16.16 8.082c1.114.559 1.672 1.395 1.672 2.23.668-.503 1.672-.558 2.786 0L46.29 24.54c1.117.558 2.117.504 2.785 0" transform="matrix(1 0 0 -1 4.463 32.367)"/><path style="fill:none;stroke-width:.3985;stroke-linecap:butt;stroke-linejoin:miter;stroke:red;stroke-opacity:1;stroke-miterlimit:10" d="M7.85 3.922c.667-.5 1.667-.555 2.785 0l16.156 8.082c1.113.558 2.117.5 2.785 0 0 .836.559 1.672 1.672 2.226l16.16 8.082c1.113.559 1.668 1.395 1.668 2.227" transform="matrix(1 0 0 -1 4.463 32.367)"/><g clip-path="url(#c)"><path style="fill:none;stroke-width:.3985;stroke-linecap:butt;stroke-linejoin:miter;stroke:#00f;stroke-opacity:1;stroke-miterlimit:10" d="M10.076-.531c.668-.504 1.672-.559 2.785 0l16.16 8.078c1.114.558 2.114.504 2.786.004 0 .832.554 1.668 1.668 2.226l16.16 8.082c1.113.555 1.672 1.39 1.672 2.227" transform="matrix(1 0 0 -1 4.463 32.367)"/></g></svg>