<svg xmlns="http://www.w3.org/2000/svg" xmlns:xlink="http://www.w3.org/1999/xlink" width="116.077" height="21.819" viewBox="0 0 87.058 16.364" version="1.2"><defs><clipPath id="a"><path d="M30 0h26v16.047H30Zm0 0"/></clipPath><symbol overflow="visible" id="b"><path style="stroke:none" d="M8.39-6.375v-.469l-1.124.032c-.391 0-.922 0-1.297-.032v.469c.078 0 .875 0 .875.125 0 .047-.032.094-.047.125L4.78-1.594 2.656-6.375h.938v-.469c-.375.032-1.328.032-1.766.032-.375 0-1.219 0-1.562-.032v.469h.906l2.75 6.203c.078.172.125.25.406.25.156 0 .281 0 .39-.234l2.657-6c.063-.125.11-.219.828-.219Zm0 0"/></symbol></defs><g clip-path="url(#a)"><path style="fill:none;stroke-width:.3985;stroke-linecap:butt;stroke-linejoin:miter;stroke:#000;stroke-opacity:1;stroke-miterlimit:10" d="M49.493 0a6.972 6.972 0 0 1-6.972 6.973A6.972 6.972 0 0 1 35.548.001a6.972 6.972 0 0 1 6.973-6.973A6.972 6.972 0 0 1 49.493.001Zm0 0" transform="matrix(1 0 0 -1 .538 7.86)"/></g><use xlink:href="#b" x="38.729" y="11.237" style="fill:#000;fill-opacity:1"/><path style="fill:none;stroke-width:.3985;stroke-linecap:butt;stroke-linejoin:miter;stroke:#000;stroke-opacity:1;stroke-miterlimit:10" d="M.001 0H35.35m14.343 0H85.04" transform="matrix(1 0 0 -1 .538 7.86)"/></svg>