<svg xmlns="http://www.w3.org/2000/svg" xmlns:xlink="http://www.w3.org/1999/xlink" width="169.269" height="66.605" viewBox="0 0 126.952 49.954" version="1.2"><defs><symbol overflow="visible" id="a"><path style="stroke:none" d="M4.922 0v-.469h-1.39v-5.734c0-.234 0-.328-.266-.328-.11 0-.125 0-.22.078-.765.562-1.796.562-2 .562H.845v.47h.203c.156 0 .703-.016 1.297-.204v5.156H.954V0c.437-.031 1.5-.031 1.984-.031s1.546 0 1.984.031Zm0 0"/></symbol><symbol overflow="visible" id="b"><path style="stroke:none" d="M5.156-2.219h-.468c-.032.203-.125.844-.266.906-.11.063-.86.063-1.016.063H1.937c.47-.39 1-.813 1.438-1.14 1.14-.844 1.781-1.313 1.781-2.25 0-1.157-1.047-1.891-2.437-1.891-1.219 0-2.156.625-2.156 1.515 0 .594.484.735.718.735C1.61-4.281 2-4.5 2-5c0-.516-.422-.672-.563-.719.282-.234.672-.343 1.032-.343.844 0 1.312.671 1.312 1.421 0 .688-.375 1.375-1.078 2.079l-2 2.046c-.14.11-.14.141-.14.344V0h4.28Zm0 0"/></symbol><symbol overflow="visible" id="c"><path style="stroke:none" d="M5.25-1.797c0-.547-.297-1.406-1.734-1.719.687-.203 1.406-.765 1.406-1.625 0-.765-.75-1.39-2.156-1.39-1.188 0-1.97.64-1.97 1.437 0 .422.313.703.688.703a.668.668 0 0 0 .704-.687c0-.578-.547-.688-.579-.703.344-.282.782-.36 1.094-.36.828 0 .86.641.86.97 0 .124-.016 1.437-1.047 1.5-.407.015-.438.015-.485.03-.094.016-.125.11-.125.172 0 .172.11.172.282.172h.437c1.094 0 1.094.985 1.094 1.5 0 .469 0 1.484-1.031 1.484-.266 0-.782-.046-1.266-.343C1.75-.75 2-1 2-1.406c0-.453-.313-.75-.75-.75-.422 0-.766.265-.766.765 0 .907.97 1.5 2.25 1.5 1.782 0 2.516-1 2.516-1.906Zm0 0"/></symbol><symbol overflow="visible" id="d"><path style="stroke:none" d="M4.766-1.172c0-.14-.141-.14-.235-.14-.187 0-.187.03-.25.156-.25.625-.734.812-1.234.812-1.39 0-1.39-1.453-1.39-1.922 0-.562 0-1.843 1.28-1.843.36 0 .516.015.657.046a.618.618 0 0 0-.203.47c0 .437.343.624.609.624.313 0 .64-.219.64-.625 0-.86-1.156-.922-1.734-.922C1.11-4.516.375-3.375.375-2.219.375-.89 1.313.062 2.844.062c1.625 0 1.922-1.156 1.922-1.234Zm0 0"/></symbol><symbol overflow="visible" id="e"><path style="stroke:none" d="M9.328 0v-.469h-.687v-2.578c0-1.031-.516-1.437-1.547-1.437-.907 0-1.422.5-1.688.953-.187-.922-1.11-.953-1.484-.953-.875 0-1.438.453-1.766 1.078v-1.078l-1.703.078v.468c.61 0 .688 0 .688.391v3.078H.453V0l1.25-.031L2.953 0v-.469h-.687v-2.078c0-1.094.875-1.578 1.5-1.578.328 0 .546.203.546.969V-.47h-.687V0l1.266-.031L6.14 0v-.469h-.688v-2.078c0-1.094.86-1.578 1.484-1.578.344 0 .563.203.563.969V-.47h-.688V0l1.25-.031Zm0 0"/></symbol></defs><path style="fill:none;stroke-width:.3985;stroke-linecap:butt;stroke-linejoin:miter;stroke:#000;stroke-opacity:1;stroke-miterlimit:10" d="M-62.276-23.777H62.278v47.554H-62.276Zm0 0" transform="matrix(1 0 0 -1 63.452 24.953)"/><path style="fill:none;stroke-width:.3985;stroke-linecap:butt;stroke-linejoin:miter;stroke:#000;stroke-opacity:1;stroke-miterlimit:10" d="M-11.914-6.64h23.828V6.638h-23.828Zm0 0" transform="matrix(1 0 0 -1 16.609 11.333)"/><g style="fill:#000;fill-opacity:1"><use xlink:href="#a" x="8.017" y="14.541"/><use xlink:href="#b" x="13.746" y="14.541"/><use xlink:href="#c" x="19.474" y="14.541"/></g><path style="fill:none;stroke-width:.3985;stroke-linecap:butt;stroke-linejoin:miter;stroke:#000;stroke-opacity:1;stroke-miterlimit:10" d="M-6.185-6.585H6.186V6.583h-12.37Zm0 0" transform="matrix(1 0 0 -1 69.181 11.333)"/><use xlink:href="#a" x="66.317" y="14.596" style="fill:#000;fill-opacity:1"/><path style="fill:none;stroke-width:.3985;stroke-linecap:butt;stroke-linejoin:miter;stroke:#000;stroke-opacity:1;stroke-miterlimit:10" d="M-6.184-6.585H6.183V6.583H-6.184Zm0 0" transform="matrix(1 0 0 -1 116.024 11.333)"/><use xlink:href="#a" x="113.16" y="14.596" style="fill:#000;fill-opacity:1"/><path style="fill:none;stroke-width:.3985;stroke-linecap:butt;stroke-linejoin:miter;stroke:#000;stroke-opacity:1;stroke-miterlimit:10" d="M-9.05-6.582H9.047V6.582H-9.05Zm0 0" transform="matrix(1 0 0 -1 16.609 24.953)"/><g style="fill:#000;fill-opacity:1"><use xlink:href="#a" x="10.881" y="28.215"/><use xlink:href="#b" x="16.61" y="28.215"/></g><path style="fill:none;stroke-width:.3985;stroke-linecap:butt;stroke-linejoin:miter;stroke:#000;stroke-opacity:1;stroke-miterlimit:10" d="M-9.048-6.582H9.049V6.582H-9.048Zm0 0" transform="matrix(1 0 0 -1 69.181 24.953)"/><g style="fill:#000;fill-opacity:1"><use xlink:href="#a" x="63.452" y="28.215"/><use xlink:href="#b" x="69.181" y="28.215"/></g><path style="fill:none;stroke-width:.3985;stroke-linecap:butt;stroke-linejoin:miter;stroke:#000;stroke-opacity:1;stroke-miterlimit:10" d="M-6.184-6.582H6.183V6.582H-6.184Zm0 0" transform="matrix(1 0 0 -1 116.024 24.953)"/><use xlink:href="#a" x="113.16" y="28.215" style="fill:#000;fill-opacity:1"/><path style="fill:none;stroke-width:.3985;stroke-linecap:butt;stroke-linejoin:miter;stroke:#000;stroke-opacity:1;stroke-miterlimit:10" d="M-6.183-6.583H6.184V6.585H-6.183Zm0 0" transform="matrix(1 0 0 -1 16.609 38.573)"/><use xlink:href="#a" x="13.745" y="41.835" style="fill:#000;fill-opacity:1"/><path style="fill:none;stroke-width:.3985;stroke-linecap:butt;stroke-linejoin:miter;stroke:#000;stroke-opacity:1;stroke-miterlimit:10" d="M-11.915-6.638h23.828V6.64h-23.828Zm0 0" transform="matrix(1 0 0 -1 69.181 38.573)"/><g style="fill:#000;fill-opacity:1"><use xlink:href="#a" x="60.588" y="41.781"/><use xlink:href="#b" x="66.317" y="41.781"/><use xlink:href="#c" x="72.045" y="41.781"/></g><path style="fill:none;stroke-width:.3985;stroke-linecap:butt;stroke-linejoin:miter;stroke:#000;stroke-opacity:1;stroke-miterlimit:10" d="M-6.184-6.583H6.183V6.585H-6.184Zm0 0" transform="matrix(1 0 0 -1 116.024 38.573)"/><use xlink:href="#a" x="113.16" y="41.835" style="fill:#000;fill-opacity:1"/><path style="fill:none;stroke-width:.79701;stroke-linecap:butt;stroke-linejoin:miter;stroke:red;stroke-opacity:1;stroke-miterlimit:10" d="M-34.73 13.621v-27.242m28.344 0V13.62M-33.932 13.621h26.75" transform="matrix(1 0 0 -1 63.452 24.953)"/><path style="fill:none;stroke-width:.79701;stroke-linecap:round;stroke-linejoin:round;stroke:red;stroke-opacity:1;stroke-miterlimit:10" d="M-2.552 3.112C-2.084 1.245-1.044.362-.002 0c-1.042-.363-2.082-1.242-2.55-3.11" transform="matrix(-1 0 0 1 29.12 11.333)"/><path style="fill:none;stroke-width:.79701;stroke-linecap:round;stroke-linejoin:round;stroke:red;stroke-opacity:1;stroke-miterlimit:10" d="M-2.552 3.11C-2.083 1.243-1.044.364-.002 0c-1.042-.362-2.081-1.245-2.55-3.112" transform="matrix(1 0 0 -1 56.67 11.333)"/><g style="fill:red;fill-opacity:1"><use xlink:href="#a" x="32.713" y="7.554"/><use xlink:href="#d" x="38.442" y="7.554"/><use xlink:href="#e" x="43.532" y="7.554"/></g></svg>