<svg xmlns="http://www.w3.org/2000/svg" xmlns:xlink="http://www.w3.org/1999/xlink" width="148.287" height="169.971" viewBox="0 0 111.215 127.478" version="1.2"><defs><symbol overflow="visible" id="a"><path style="stroke:none" d="M4.922 0v-.469h-1.39v-5.734c0-.234 0-.328-.266-.328-.11 0-.125 0-.22.078-.765.562-1.796.562-2 .562H.845v.47h.203c.156 0 .703-.016 1.297-.204v5.156H.954V0c.437-.031 1.5-.031 1.984-.031s1.546 0 1.984.031Zm0 0"/></symbol><symbol overflow="visible" id="b"><path style="stroke:none" d="M5.156-2.219h-.468c-.032.203-.125.844-.266.906-.11.063-.86.063-1.016.063H1.937c.47-.39 1-.813 1.438-1.14 1.14-.844 1.781-1.313 1.781-2.25 0-1.157-1.047-1.891-2.437-1.891-1.219 0-2.156.625-2.156 1.515 0 .594.484.735.718.735C1.61-4.281 2-4.5 2-5c0-.516-.422-.672-.563-.719.282-.234.672-.343 1.032-.343.844 0 1.312.671 1.312 1.421 0 .688-.375 1.375-1.078 2.079l-2 2.046c-.14.11-.14.141-.14.344V0h4.28Zm0 0"/></symbol><symbol overflow="visible" id="c"><path style="stroke:none" d="M5.25-1.797c0-.547-.297-1.406-1.734-1.719.687-.203 1.406-.765 1.406-1.625 0-.765-.75-1.39-2.156-1.39-1.188 0-1.97.64-1.97 1.437 0 .422.313.703.688.703a.668.668 0 0 0 .704-.687c0-.578-.547-.688-.579-.703.344-.282.782-.36 1.094-.36.828 0 .86.641.86.97 0 .124-.016 1.437-1.047 1.5-.407.015-.438.015-.485.03-.094.016-.125.11-.125.172 0 .172.11.172.282.172h.437c1.094 0 1.094.985 1.094 1.5 0 .469 0 1.484-1.031 1.484-.266 0-.782-.046-1.266-.343C1.75-.75 2-1 2-1.406c0-.453-.313-.75-.75-.75-.422 0-.766.265-.766.765 0 .907.97 1.5 2.25 1.5 1.782 0 2.516-1 2.516-1.906Zm0 0"/></symbol><symbol overflow="visible" id="d"><path style="stroke:none" d="M5.406 0v-.469h-.968v-1.094h.968v-.468h-.968V-6.22c0-.265-.016-.328-.297-.328-.22 0-.22.016-.344.172L.312-2.031v.469h2.876V-.47h-1.11V0c.375-.031 1.281-.031 1.703-.031.406 0 1.266 0 1.625.031Zm-2.11-2.031H.845L3.297-5.11Zm0 0"/></symbol><symbol overflow="visible" id="f"><path style="stroke:none" d="M5.156-2c0-1.156-.797-2.078-2.265-2.078-.282 0-.813.031-1.282.344v-1.313c.282.047.391.078.72.078 1.452 0 2.374-1.125 2.374-1.375 0-.078-.016-.187-.14-.187-.032 0-.032 0-.141.047a4.32 4.32 0 0 1-1.531.28c-.75 0-1.282-.202-1.547-.28-.094-.032-.094-.047-.125-.047-.14 0-.14.11-.14.265v2.922c0 .172 0 .297.218.297.125 0 .156-.031.219-.11.39-.468.921-.562 1.328-.562.89 0 .89.875.89 1.672 0 .735 0 1.735-1.187 1.735-.25 0-.875-.063-1.297-.625.36-.016.656-.266.656-.672 0-.532-.437-.672-.672-.672-.14 0-.671.094-.671.703 0 .844.78 1.687 2.015 1.687C4.172.11 5.156-.78 5.156-2Zm0 0"/></symbol><symbol overflow="visible" id="g"><path style="stroke:none" d="M5.25-2.047c0-1.39-1.016-2.125-2.219-2.125-.219 0-.781 0-1.203.766v-.188c0-1.14.219-1.562.281-1.719.25-.468.782-.828 1.391-.828.172 0 .516.032.75.266a.595.595 0 0 0-.547.61c0 .343.235.624.625.624s.625-.265.625-.64c0-.625-.422-1.25-1.469-1.25-1.359 0-3 .86-3 3.375 0 .781.079 1.578.5 2.265.47.766 1.22 1 1.922 1C4.281.11 5.25-.703 5.25-2.047Zm-1.36-.015c0 1 0 1.75-1.015 1.75-.516 0-.781-.391-.86-.563-.156-.313-.156-1.031-.156-1.219 0-1.25.532-1.719 1.079-1.719.953 0 .953.75.953 1.75Zm0 0"/></symbol><symbol overflow="visible" id="h"><path style="stroke:none" d="M5.563-6.422H3.53c-.234 0-1.703-.047-1.844-.094-.203-.03-.218-.125-.234-.218H.984l-.343 2.53h.468c.094-.765.22-.89.266-.905.11-.063.922-.063 1.094-.063H4.14c-.172.219-.36.422-.547.64-.953 1.126-1.672 2.47-1.672 3.938 0 .703.562.703.625.703.156 0 .625-.046.625-.703v-.469c0-.468.031-.953.094-1.421.093-.672.296-1.25.656-1.657l1.547-1.796c.093-.11.093-.141.093-.485Zm0 0"/></symbol><symbol overflow="visible" id="i"><path style="stroke:none" d="M5.25-1.86c0-1.077-.844-1.546-1.328-1.827.687-.36 1-.797 1-1.376 0-1.015-.906-1.468-2.047-1.468-1.375 0-2.078.797-2.078 1.75 0 .437.187 1.062.953 1.5C.922-2.906.484-2.344.484-1.61.484-.406 1.563.109 2.844.109 4.438.11 5.25-.766 5.25-1.859ZM4.172-5.046c0 .484-.25.813-.688 1.11l-1.5-.844c-.156-.078-.437-.25-.437-.594 0-.703.89-.766 1.297-.766.828 0 1.328.407 1.328 1.094Zm.219 3.734c0 .829-.938 1-1.516 1-.969 0-1.547-.515-1.547-1.296 0-.766.531-1.204.89-1.407l1.36.766c.438.25.813.453.813.938Zm0 0"/></symbol><symbol overflow="visible" id="k"><path style="stroke:none" d="M5.25-3.281c0-.672 0-3.25-2.375-3.25-1.406 0-2.39.812-2.39 2.14 0 1.375.984 2.125 2.203 2.125.359 0 .828-.062 1.203-.765v.219c0 .734-.094 1.312-.235 1.656-.172.39-.61.843-1.297.843-.171 0-.53-.03-.828-.218.11-.031.485-.172.485-.625 0-.344-.235-.625-.625-.625-.391 0-.625.265-.625.64 0 .688.515 1.25 1.609 1.25C3.672.11 5.25-.734 5.25-3.28Zm-1.375-.985c0 .625-.25 1.641-1.094 1.641-.953 0-.953-.75-.953-1.734 0-.985 0-1.782 1.078-1.782.578 0 .813.532.86.625.109.329.109.907.109 1.25Zm0 0"/></symbol><symbol overflow="visible" id="l"><path style="stroke:none" d="M5.281-3.188c0-.953-.015-3.343-2.422-3.343C.453-6.531.453-4.156.453-3.188c0 1 0 3.297 2.406 3.297 2.391 0 2.422-2.296 2.422-3.296ZM4-3.296c0 .563 0 1.469-.078 1.985-.14.921-.766 1.062-1.063 1.062-.359 0-.921-.219-1.046-.953-.094-.516-.094-1.547-.094-2.094 0-.719 0-1.375.078-1.89.125-.891.828-.985 1.062-.985.375 0 .782.188.97.625C4-5.172 4-4.109 4-3.297Zm0 0"/></symbol><clipPath id="e"><path d="M58 107h25v20.219H58Zm0 0"/></clipPath><clipPath id="j"><path d="M91 50h19.824v25H91Zm0 0"/></clipPath><clipPath id="m"><path d="M82 10h28.824v30H82Zm0 0"/></clipPath></defs><path style="fill:none;stroke-width:.3985;stroke-linecap:butt;stroke-linejoin:miter;stroke:#000;stroke-opacity:1;stroke-miterlimit:10" d="m11.912-41.382 11.735-6.773M47.487-87.28l9.664-5.578M65.768-52.269l6.055-18.472M69.483-49.249l9.644-5.543M70.229-44.542l19.097 4.008M31.8-57.749l7.57-19.984M36.03-50.42l21.062 3.429M43.733 9.255l7.925-4.574M64.186-7.12l6.812-10.317M68.139-.272l12.305-.739M1.06-6.558 5.1-31.503M6.21 2.36l21.527 8.18M6.444.001A6.443 6.443 0 0 1-.002 6.442 6.44 6.44 0 0 1-6.443.001a6.443 6.443 0 1 1 12.887 0Zm0 0" transform="matrix(1 0 0 -1 7.26 23.333)"/><use xlink:href="#a" x="4.394" y="26.595" style="fill:#000;fill-opacity:1"/><path style="fill:none;stroke-width:.3985;stroke-linecap:butt;stroke-linejoin:miter;stroke:#000;stroke-opacity:1;stroke-miterlimit:10" d="M6.445-.002a6.443 6.443 0 1 1-12.887 0A6.44 6.44 0 0 1 0-6.442a6.443 6.443 0 0 1 6.446 6.44Zm0 0" transform="matrix(1 0 0 -1 13.418 61.393)"/><use xlink:href="#b" x="10.555" y="64.655" style="fill:#000;fill-opacity:1"/><path style="fill:none;stroke-width:.3985;stroke-linecap:butt;stroke-linejoin:miter;stroke:#000;stroke-opacity:1;stroke-miterlimit:10" d="M6.483 0A6.486 6.486 0 0 1 0 6.486a6.485 6.485 0 0 1 0-12.969A6.483 6.483 0 0 1 6.483.002Zm0 0" transform="matrix(1 0 0 -1 36.693 74.829)"/><use xlink:href="#c" x="33.828" y="78.037" style="fill:#000;fill-opacity:1"/><path style="fill:none;stroke-width:.3985;stroke-linecap:butt;stroke-linejoin:miter;stroke:#000;stroke-opacity:1;stroke-miterlimit:10" d="M6.45 0A6.448 6.448 0 0 1 0 6.45 6.448 6.448 0 0 1-6.45 0 6.448 6.448 0 0 1 0-6.447 6.448 6.448 0 0 1 6.45 0Zm0 0" transform="matrix(1 0 0 -1 48.984 107.286)"/><use xlink:href="#d" x="46.12" y="110.553" style="fill:#000;fill-opacity:1"/><g clip-path="url(#e)"><path style="fill:none;stroke-width:.3985;stroke-linecap:butt;stroke-linejoin:miter;stroke:#000;stroke-opacity:1;stroke-miterlimit:10" d="M6.484 0A6.486 6.486 0 0 1 0 6.486 6.486 6.486 0 0 1-6.485.001 6.483 6.483 0 0 1 0-6.484 6.483 6.483 0 0 1 6.484.001Zm0 0" transform="matrix(1 0 0 -1 70.195 119.532)"/></g><use xlink:href="#f" x="67.332" y="122.74" style="fill:#000;fill-opacity:1"/><path style="fill:none;stroke-width:.3985;stroke-linecap:butt;stroke-linejoin:miter;stroke:#000;stroke-opacity:1;stroke-miterlimit:10" d="M6.483 0A6.486 6.486 0 0 1 0 6.486a6.485 6.485 0 0 1 0-12.968A6.483 6.483 0 0 1 6.483 0Zm0 0" transform="matrix(1 0 0 -1 70.947 69.247)"/><use xlink:href="#g" x="68.082" y="72.455" style="fill:#000;fill-opacity:1"/><path style="fill:none;stroke-width:.3985;stroke-linecap:butt;stroke-linejoin:miter;stroke:#000;stroke-opacity:1;stroke-miterlimit:10" d="M6.556-.001A6.553 6.553 0 0 1 0 6.554 6.553 6.553 0 0 1-6.554-.001 6.553 6.553 0 0 1 .001-6.556 6.553 6.553 0 0 1 6.556 0Zm0 0" transform="matrix(1 0 0 -1 81.186 100.495)"/><use xlink:href="#h" x="78.323" y="103.807" style="fill:#000;fill-opacity:1"/><path style="fill:none;stroke-width:.3985;stroke-linecap:butt;stroke-linejoin:miter;stroke:#000;stroke-opacity:1;stroke-miterlimit:10" d="M6.483.001A6.483 6.483 0 1 1-6.482-.003 6.483 6.483 0 0 1 6.483 0Zm0 0" transform="matrix(1 0 0 -1 92.177 81.458)"/><use xlink:href="#i" x="89.314" y="84.666" style="fill:#000;fill-opacity:1"/><g clip-path="url(#j)"><path style="fill:none;stroke-width:.3985;stroke-linecap:butt;stroke-linejoin:miter;stroke:#000;stroke-opacity:1;stroke-miterlimit:10" d="M6.482 0A6.483 6.483 0 1 1-6.483 0 6.483 6.483 0 1 1 6.482 0Zm0 0" transform="matrix(1 0 0 -1 103.127 62.492)"/></g><use xlink:href="#k" x="100.263" y="65.7" style="fill:#000;fill-opacity:1"/><path style="fill:none;stroke-width:.3985;stroke-linecap:butt;stroke-linejoin:miter;stroke:#000;stroke-opacity:1;stroke-miterlimit:10" d="M8.681 0a8.68 8.68 0 0 1-8.68 8.68c-4.797 0-8.683-3.887-8.683-8.68 0-4.793 3.886-8.68 8.683-8.68A8.68 8.68 0 0 1 8.681 0Zm0 0" transform="matrix(1 0 0 -1 43.3 9.637)"/><g style="fill:#000;fill-opacity:1"><use xlink:href="#a" x="37.572" y="12.845"/><use xlink:href="#l" x="43.3" y="12.845"/></g><path style="fill:none;stroke-width:.3985;stroke-linecap:butt;stroke-linejoin:miter;stroke:#000;stroke-opacity:1;stroke-miterlimit:10" d="M8.641 0A8.641 8.641 0 1 1-8.64-.002 8.641 8.641 0 0 1 8.64 0Zm0 0" transform="matrix(1 0 0 -1 66.573 23.074)"/><g style="fill:#000;fill-opacity:1"><use xlink:href="#a" x="60.844" y="26.337"/><use xlink:href="#a" x="66.573" y="26.337"/></g><path style="fill:none;stroke-width:.3985;stroke-linecap:butt;stroke-linejoin:miter;stroke:#000;stroke-opacity:1;stroke-miterlimit:10" d="M8.642-.001A8.641 8.641 0 1 1-8.641-.003a8.641 8.641 0 0 1 17.283.002Zm0 0" transform="matrix(1 0 0 -1 83.127 48.147)"/><g style="fill:#000;fill-opacity:1"><use xlink:href="#a" x="77.4" y="51.41"/><use xlink:href="#b" x="83.128" y="51.41"/></g><g clip-path="url(#m)"><path style="fill:none;stroke-width:.3985;stroke-linecap:butt;stroke-linejoin:miter;stroke:#000;stroke-opacity:1;stroke-miterlimit:10" d="M8.682-.001A8.682 8.682 0 1 1-8.68.002 8.682 8.682 0 0 1 8.682-.001Zm0 0" transform="matrix(1 0 0 -1 96.564 24.874)"/></g><g style="fill:#000;fill-opacity:1"><use xlink:href="#a" x="90.837" y="28.082"/><use xlink:href="#c" x="96.565" y="28.082"/></g></svg>