<svg xmlns="http://www.w3.org/2000/svg" width="116.38" height="92.979" viewBox="0 0 87.285 69.734" version="1.2"><defs><clipPath id="a"><path d="M0 34h35v35.602H0Zm0 0"/></clipPath></defs><path style="fill:none;stroke-width:.19925;stroke-linecap:butt;stroke-linejoin:miter;stroke:gray;stroke-opacity:1;stroke-miterlimit:10" d="M0-.002h85.04M0 28.346h85.04M0 56.686h85.04M0-.002v56.695M28.349-.002v56.695M56.692-.002v56.695M85.032-.002v56.695" transform="matrix(1 0 0 -1 .788 68.459)"/><g clip-path="url(#a)"><path style="fill:none;stroke-width:.3985;stroke-linecap:butt;stroke-linejoin:miter;stroke:#000;stroke-opacity:1;stroke-miterlimit:10" d="m0-.002 28.348 28.348V-.002" transform="matrix(1 0 0 -1 .788 68.459)"/></g><path style="fill:none;stroke-width:.3985;stroke-linecap:butt;stroke-linejoin:miter;stroke:#00f;stroke-opacity:1;stroke-miterlimit:10" d="m49.098 28.346 10.375 38.722L73.65 42.522" transform="matrix(1 0 0 -1 .788 68.459)"/><path style="fill:none;stroke-width:.3985;stroke-linecap:butt;stroke-linejoin:miter;stroke:red;stroke-opacity:1;stroke-miterlimit:10" d="m49.098 28.346 28.348 28.347V28.346" transform="matrix(1 0 0 -1 .788 68.459)"/></svg>