<svg xmlns="http://www.w3.org/2000/svg" width="114.489" height="130.083" viewBox="0 0 85.867 97.562" version="1.2"><defs><clipPath id="a"><path d="M0 45h43v52.344H0Zm0 0"/></clipPath><clipPath id="b"><path d="M0 47h40v50.344H0Zm0 0"/></clipPath><clipPath id="c"><path d="M0 46h39v51.344H0Zm0 0"/></clipPath><clipPath id="d"><path d="M0 46h47v51.344H0Zm0 0"/></clipPath><clipPath id="e"><path d="M1 53h55v44.344H1Zm0 0"/></clipPath><clipPath id="f"><path d="M5 56h56v41.344H5Zm0 0"/></clipPath><clipPath id="g"><path d="M15 60h49v37.344H15Zm0 0"/></clipPath><clipPath id="h"><path d="M18 61h54v36.344H18Zm0 0"/></clipPath><clipPath id="i"><path d="M19 59h51v38.344H19Zm0 0"/></clipPath><clipPath id="j"><path d="M24 61h54v36.344H24Zm0 0"/></clipPath><clipPath id="k"><path d="M32 62h53.8v35.344H32Zm0 0"/></clipPath><clipPath id="l"><path d="M32 58h53.8v39.344H32Zm0 0"/></clipPath><clipPath id="m"><path d="M32 54h52v43.344H32Zm0 0"/></clipPath><clipPath id="n"><path d="M36 52h49.8v45.344H36Zm0 0"/></clipPath><clipPath id="o"><path d="M32 53h53.8v44.344H32Zm0 0"/></clipPath><clipPath id="p"><path d="M34 53h50v44.344H34Zm0 0"/></clipPath><clipPath id="q"><path d="M32 54h53v43.344H32Zm0 0"/></clipPath><clipPath id="r"><path d="M35 59h50.8v38.344H35Zm0 0"/></clipPath><clipPath id="s"><path d="M40 52h45.8v45.344H40Zm0 0"/></clipPath><clipPath id="t"><path d="M44 49h41.8v48.344H44Zm0 0"/></clipPath><clipPath id="u"><path d="M40 54h45.8v43.344H40Zm0 0"/></clipPath><clipPath id="v"><path d="M43 62h42.8v35.344H43Zm0 0"/></clipPath><clipPath id="w"><path d="M48 56h37.8v41.344H48Zm0 0"/></clipPath><clipPath id="x"><path d="M46 57h39.8v40.344H46Zm0 0"/></clipPath><clipPath id="y"><path d="M45 49h40.8v48.344H45Zm0 0"/></clipPath><clipPath id="z"><path d="M38 50h47.8v47.344H38Zm0 0"/></clipPath><clipPath id="A"><path d="M39 50h46.8v47.344H39Zm0 0"/></clipPath><clipPath id="B"><path d="M41 50h44.8v47.344H41Zm0 0"/></clipPath><clipPath id="C"><path d="M38 52h47.8v45.344H38Zm0 0"/></clipPath><clipPath id="D"><path d="M39 54h46.8v43.344H39Zm0 0"/></clipPath><clipPath id="E"><path d="M41 44h44.8v53.344H41Zm0 0"/></clipPath><clipPath id="F"><path d="M44 44h41.8v53.344H44Zm0 0"/></clipPath><clipPath id="G"><path d="M34 46h51.8v51.344H34Zm0 0"/></clipPath><clipPath id="H"><path d="M36 42h49.8v55.344H36Zm0 0"/></clipPath><clipPath id="I"><path d="M44 35h41.8v53H44Zm0 0"/></clipPath><clipPath id="J"><path d="M43 32h42.8v57H43Zm0 0"/></clipPath><clipPath id="K"><path d="M44 24h41.8v54H44Zm0 0"/></clipPath><clipPath id="L"><path d="M39 27h46.8v50H39Zm0 0"/></clipPath><clipPath id="M"><path d="M48 20h37.8v53H48Zm0 0"/></clipPath><clipPath id="N"><path d="M50 11h35.8v55H50Zm0 0"/></clipPath><clipPath id="O"><path d="M53 11h32.8v52H53Zm0 0"/></clipPath><clipPath id="P"><path d="M58 9h27.8v55H58Zm0 0"/></clipPath><clipPath id="Q"><path d="M51 18h34.8v55H51Zm0 0"/></clipPath><clipPath id="R"><path d="M42 23h43.8v48H42Zm0 0"/></clipPath><clipPath id="S"><path d="M43 23h42.8v51H43Zm0 0"/></clipPath><clipPath id="T"><path d="M43 26h42.8v51H43Zm0 0"/></clipPath><clipPath id="U"><path d="M42 23h43.8v50H42Zm0 0"/></clipPath><clipPath id="V"><path d="M41 27h44.8v50H41Zm0 0"/></clipPath></defs><path style="fill:none;stroke-width:1.59404;stroke-linecap:round;stroke-linejoin:miter;stroke:#fff;stroke-opacity:1;stroke-miterlimit:10" d="M0 0s1.902 1.25 1.312-8.598" transform="matrix(1 0 0 -1 28.79 7.339)"/><path style="fill:none;stroke-width:1.59404;stroke-linecap:round;stroke-linejoin:miter;stroke:#fffcfc;stroke-opacity:1;stroke-miterlimit:10" d="M1.312-8.598c-.59-9.848 2.379 2.367-2.5 9.156" transform="matrix(1 0 0 -1 28.79 7.339)"/><path style="fill:none;stroke-width:1.59404;stroke-linecap:round;stroke-linejoin:miter;stroke:snow;stroke-opacity:1;stroke-miterlimit:10" d="M-1.188.558c-4.879 6.789 2.32 3.844-1.96 2.89" transform="matrix(1 0 0 -1 28.79 7.339)"/><path style="fill:none;stroke-width:1.59404;stroke-linecap:round;stroke-linejoin:miter;stroke:#fff7f7;stroke-opacity:1;stroke-miterlimit:10" d="M-3.149 3.448c-4.285-.953 3.012 5.532-3.031-.93" transform="matrix(1 0 0 -1 28.79 7.339)"/><path style="fill:none;stroke-width:1.59404;stroke-linecap:round;stroke-linejoin:miter;stroke:#fff5f5;stroke-opacity:1;stroke-miterlimit:10" d="M-6.18 2.519c-6.043-6.461 14.73 9.777 8.773.027" transform="matrix(1 0 0 -1 28.79 7.339)"/><path style="fill:none;stroke-width:1.59404;stroke-linecap:round;stroke-linejoin:miter;stroke:#fff2f2;stroke-opacity:1;stroke-miterlimit:10" d="M2.593 2.546c-5.957-9.746 2.04-8.437.157-6.184" transform="matrix(1 0 0 -1 28.79 7.339)"/><path style="fill:none;stroke-width:1.59404;stroke-linecap:round;stroke-linejoin:miter;stroke:#fff0f0;stroke-opacity:1;stroke-miterlimit:10" d="M2.75-3.638C.87-1.384 8.894-7.75 5.765-6.184" transform="matrix(1 0 0 -1 28.79 7.339)"/><path style="fill:none;stroke-width:1.59404;stroke-linecap:round;stroke-linejoin:miter;stroke:#ffeded;stroke-opacity:1;stroke-miterlimit:10" d="M5.765-6.184c-3.133 1.57 15.68-12.875 6.219-4.817" transform="matrix(1 0 0 -1 28.79 7.339)"/><path style="fill:none;stroke-width:1.59404;stroke-linecap:round;stroke-linejoin:miter;stroke:#ffebeb;stroke-opacity:1;stroke-miterlimit:10" d="M11.984-11C2.523-2.947 8.332-8.818 7.968-1.279" transform="matrix(1 0 0 -1 28.79 7.339)"/><path style="fill:none;stroke-width:1.59404;stroke-linecap:round;stroke-linejoin:miter;stroke:#ffe8e8;stroke-opacity:1;stroke-miterlimit:10" d="M7.968-1.278c-.363 7.543 4.528-12.613-.047-9.266" transform="matrix(1 0 0 -1 28.79 7.339)"/><path style="fill:none;stroke-width:1.59404;stroke-linecap:round;stroke-linejoin:miter;stroke:#ffe5e5;stroke-opacity:1;stroke-miterlimit:10" d="M7.921-10.544c-4.578 3.352 3.266-14.742-2.253-8.933" transform="matrix(1 0 0 -1 28.79 7.339)"/><path style="fill:none;stroke-width:1.59404;stroke-linecap:round;stroke-linejoin:miter;stroke:#ffe3e3;stroke-opacity:1;stroke-miterlimit:10" d="M5.668-19.477c-5.52 5.804-18.27-2.532-9.754-2.508" transform="matrix(1 0 0 -1 28.79 7.339)"/><path style="fill:none;stroke-width:1.59404;stroke-linecap:round;stroke-linejoin:miter;stroke:#ffe0e0;stroke-opacity:1;stroke-miterlimit:10" d="M-4.086-21.985c8.515.023-11.493.71-9.086-5.852" transform="matrix(1 0 0 -1 28.79 7.339)"/><path style="fill:none;stroke-width:1.59404;stroke-linecap:round;stroke-linejoin:miter;stroke:#ffdede;stroke-opacity:1;stroke-miterlimit:10" d="M-13.172-27.837c2.406-6.566-2.653-.11-1.125-6.043" transform="matrix(1 0 0 -1 28.79 7.339)"/><path style="fill:none;stroke-width:1.59404;stroke-linecap:round;stroke-linejoin:miter;stroke:#ffdbdb;stroke-opacity:1;stroke-miterlimit:10" d="M-14.297-33.88c1.523-5.93 3.566-10.476 1.242-4.445" transform="matrix(1 0 0 -1 28.79 7.339)"/><path style="fill:none;stroke-width:1.59404;stroke-linecap:round;stroke-linejoin:miter;stroke:#ffd9d9;stroke-opacity:1;stroke-miterlimit:10" d="M-13.055-38.325c-2.324 6.035 2.336-7.004-7.309-3.258" transform="matrix(1 0 0 -1 28.79 7.339)"/><path style="fill:none;stroke-width:1.59404;stroke-linecap:round;stroke-linejoin:miter;stroke:#ffd6d6;stroke-opacity:1;stroke-miterlimit:10" d="M-20.364-41.583c-9.648 3.75-3.222-9.273 6.004-2.16" transform="matrix(1 0 0 -1 28.79 7.339)"/><path style="fill:none;stroke-width:1.59404;stroke-linecap:round;stroke-linejoin:miter;stroke:#ffd4d4;stroke-opacity:1;stroke-miterlimit:10" d="M-14.36-43.743c9.23 7.113 13.625 8.363 7.043 1.828" transform="matrix(1 0 0 -1 28.79 7.339)"/><path style="fill:none;stroke-width:1.59404;stroke-linecap:round;stroke-linejoin:miter;stroke:#ffd1d1;stroke-opacity:1;stroke-miterlimit:10" d="M-7.317-41.915c-6.582-6.535-17.965-10.492-8.238-5.918" transform="matrix(1 0 0 -1 28.79 7.339)"/><path style="fill:none;stroke-width:1.59404;stroke-linecap:round;stroke-linejoin:miter;stroke:#ffcfcf;stroke-opacity:1;stroke-miterlimit:10" d="M-15.555-47.833c9.73 4.574 2.34 2.137 4.324 9.453" transform="matrix(1 0 0 -1 28.79 7.339)"/><path style="fill:none;stroke-width:1.59404;stroke-linecap:round;stroke-linejoin:miter;stroke:#fcc;stroke-opacity:1;stroke-miterlimit:10" d="M-11.23-38.38c1.98 7.317-7.071 15.735-6.688 5.836" transform="matrix(1 0 0 -1 28.79 7.339)"/><path style="fill:none;stroke-width:1.59404;stroke-linecap:round;stroke-linejoin:miter;stroke:#ffc9c9;stroke-opacity:1;stroke-miterlimit:10" d="M-17.918-32.544c.382-9.898 7.187 13.106 8.187 3.836" transform="matrix(1 0 0 -1 28.79 7.339)"/><path style="fill:none;stroke-width:1.59404;stroke-linecap:round;stroke-linejoin:miter;stroke:#ffc7c7;stroke-opacity:1;stroke-miterlimit:10" d="M-9.73-28.708c1-9.27-2.528-13.082-2.446-6.226" transform="matrix(1 0 0 -1 28.79 7.339)"/><path style="fill:none;stroke-width:1.59404;stroke-linecap:round;stroke-linejoin:miter;stroke:#ffc4c4;stroke-opacity:1;stroke-miterlimit:10" d="M-12.176-34.934c.078 6.855-15.012 2.925-9.406 4.261" transform="matrix(1 0 0 -1 28.79 7.339)"/><path style="fill:none;stroke-width:1.59404;stroke-linecap:round;stroke-linejoin:miter;stroke:#ffc2c2;stroke-opacity:1;stroke-miterlimit:10" d="M-21.582-30.673c5.605 1.34-3.332-6.203-5.227-1.129" transform="matrix(1 0 0 -1 28.79 7.339)"/><path style="fill:none;stroke-width:1.59404;stroke-linecap:round;stroke-linejoin:miter;stroke:#ffbfbf;stroke-opacity:1;stroke-miterlimit:10" d="M-26.809-31.802c-1.89 5.075 8.21 3.856 8.242 8.602" transform="matrix(1 0 0 -1 28.79 7.339)"/><path style="fill:none;stroke-width:1.59404;stroke-linecap:round;stroke-linejoin:miter;stroke:#ffbdbd;stroke-opacity:1;stroke-miterlimit:10" d="M-18.567-23.2c.031 4.746 8.336 5.164 1.582.941" transform="matrix(1 0 0 -1 28.79 7.339)"/><path style="fill:none;stroke-width:1.59404;stroke-linecap:round;stroke-linejoin:miter;stroke:#ffbaba;stroke-opacity:1;stroke-miterlimit:10" d="M-16.985-22.259c-6.75-4.222 9.785-14.449.969-8.402" transform="matrix(1 0 0 -1 28.79 7.339)"/><path style="fill:none;stroke-width:1.59404;stroke-linecap:round;stroke-linejoin:miter;stroke:#ffb8b8;stroke-opacity:1;stroke-miterlimit:10" d="M-16.016-30.661c-8.82 6.05-1.559.3 5.46-4.633" transform="matrix(1 0 0 -1 28.79 7.339)"/><path style="fill:none;stroke-width:1.59404;stroke-linecap:round;stroke-linejoin:miter;stroke:#ffb5b5;stroke-opacity:1;stroke-miterlimit:10" d="M-10.555-35.294c7.023-4.937 10.777-3.535 2.742-2.785" transform="matrix(1 0 0 -1 28.79 7.339)"/><path style="fill:none;stroke-width:1.59404;stroke-linecap:round;stroke-linejoin:miter;stroke:#ffb2b2;stroke-opacity:1;stroke-miterlimit:10" d="M-7.813-38.079c-8.039.75.484-1.578 4.149-9.777" transform="matrix(1 0 0 -1 28.79 7.339)"/><path style="fill:none;stroke-width:1.59404;stroke-linecap:round;stroke-linejoin:miter;stroke:#ffb0b0;stroke-opacity:1;stroke-miterlimit:10" d="M-3.664-47.856c3.664-8.2-17.52 13.101-8.063 5.062" transform="matrix(1 0 0 -1 28.79 7.339)"/><path style="fill:none;stroke-width:1.59404;stroke-linecap:round;stroke-linejoin:miter;stroke:#ffadad;stroke-opacity:1;stroke-miterlimit:10" d="M-11.727-42.794c9.453-8.035-4.621 17.973 1.672 9.485" transform="matrix(1 0 0 -1 28.79 7.339)"/><path style="fill:none;stroke-width:1.59404;stroke-linecap:round;stroke-linejoin:miter;stroke:#ffabab;stroke-opacity:1;stroke-miterlimit:10" d="M-10.055-33.31c6.297-8.484-1.211 5.02-5.672-4.746" transform="matrix(1 0 0 -1 28.79 7.339)"/><path style="fill:none;stroke-width:1.59404;stroke-linecap:round;stroke-linejoin:miter;stroke:#ffa8a8;stroke-opacity:1;stroke-miterlimit:10" d="M-15.727-38.056c-4.46-9.765 5.715-2.757 1.176 1.418" transform="matrix(1 0 0 -1 28.79 7.339)"/><path style="fill:none;stroke-width:1.59404;stroke-linecap:round;stroke-linejoin:miter;stroke:#ffa6a6;stroke-opacity:1;stroke-miterlimit:10" d="M-14.551-36.638c-4.54 4.18 3.594-7.828 1.453 1.211" transform="matrix(1 0 0 -1 28.79 7.339)"/><path style="fill:none;stroke-width:1.59404;stroke-linecap:round;stroke-linejoin:miter;stroke:#ffa3a3;stroke-opacity:1;stroke-miterlimit:10" d="M-13.098-35.427c-2.145 9.036 4.086 4.391-3.531-1.972" transform="matrix(1 0 0 -1 28.79 7.339)"/><path style="fill:none;stroke-width:1.59404;stroke-linecap:round;stroke-linejoin:miter;stroke:#ffa1a1;stroke-opacity:1;stroke-miterlimit:10" d="M-16.63-37.4c-7.613-6.363-10.605-13.062-9.495-9.382" transform="matrix(1 0 0 -1 28.79 7.339)"/><path style="fill:none;stroke-width:1.59404;stroke-linecap:round;stroke-linejoin:miter;stroke:#ff9e9e;stroke-opacity:1;stroke-miterlimit:10" d="M-26.125-46.782c1.113 3.68 8.808-10.332 9.296-.926" transform="matrix(1 0 0 -1 28.79 7.339)"/><path style="fill:none;stroke-width:1.59404;stroke-linecap:round;stroke-linejoin:miter;stroke:#ff9c9c;stroke-opacity:1;stroke-miterlimit:10" d="M-16.829-47.708c.493 9.41 7.184 1.422-2.316-1.14" transform="matrix(1 0 0 -1 28.79 7.339)"/><path style="fill:none;stroke-width:1.59404;stroke-linecap:round;stroke-linejoin:miter;stroke:#f99;stroke-opacity:1;stroke-miterlimit:10" d="M-19.145-48.849c-9.5-2.562 6.527 3.211 3.027.29" transform="matrix(1 0 0 -1 28.79 7.339)"/><path style="fill:none;stroke-width:1.59404;stroke-linecap:round;stroke-linejoin:miter;stroke:#ff9696;stroke-opacity:1;stroke-miterlimit:10" d="M-16.118-48.56c-3.5-2.921-4.16 9.583 3.246 3.247" transform="matrix(1 0 0 -1 28.79 7.339)"/><path style="fill:none;stroke-width:1.59404;stroke-linecap:round;stroke-linejoin:miter;stroke:#ff9494;stroke-opacity:1;stroke-miterlimit:10" d="M-12.872-45.313c7.403-6.336 4.063-9.578 2.29-3.926" transform="matrix(1 0 0 -1 28.79 7.339)"/><path style="fill:none;stroke-width:1.59404;stroke-linecap:round;stroke-linejoin:miter;stroke:#ff9191;stroke-opacity:1;stroke-miterlimit:10" d="M-10.582-49.24c-1.774 5.657-6.047-2.163-.891-3.108" transform="matrix(1 0 0 -1 28.79 7.339)"/><path style="fill:none;stroke-width:1.59404;stroke-linecap:round;stroke-linejoin:miter;stroke:#ff8f8f;stroke-opacity:1;stroke-miterlimit:10" d="M-11.473-52.349c5.156-.945-.469-11.832 2.812-2.132" transform="matrix(1 0 0 -1 28.79 7.339)"/><path style="fill:none;stroke-width:1.59404;stroke-linecap:round;stroke-linejoin:miter;stroke:#ff8c8c;stroke-opacity:1;stroke-miterlimit:10" d="M-8.66-54.481c3.277 9.699-11.606-6.485-6.297-5.09" transform="matrix(1 0 0 -1 28.79 7.339)"/><path style="fill:none;stroke-width:1.59404;stroke-linecap:round;stroke-linejoin:miter;stroke:#ff8a8a;stroke-opacity:1;stroke-miterlimit:10" d="M-14.957-59.571c5.312 1.394 4.253-10.41 1.293-2.664" transform="matrix(1 0 0 -1 28.79 7.339)"/><path style="fill:none;stroke-width:1.59404;stroke-linecap:round;stroke-linejoin:miter;stroke:#ff8787;stroke-opacity:1;stroke-miterlimit:10" d="M-13.665-62.235c-2.96 7.746 4.739-2.758 3.868 6.367" transform="matrix(1 0 0 -1 28.79 7.339)"/><path style="fill:none;stroke-width:1.59404;stroke-linecap:round;stroke-linejoin:miter;stroke:#ff8585;stroke-opacity:1;stroke-miterlimit:10" d="M-9.797-55.868c-.875 9.125.968 6.426.992-.258" transform="matrix(1 0 0 -1 28.79 7.339)"/><path style="fill:none;stroke-width:1.59404;stroke-linecap:round;stroke-linejoin:miter;stroke:#ff8282;stroke-opacity:1;stroke-miterlimit:10" d="M-8.805-56.126c.027-6.687-1.059 6.399 7.91.82" transform="matrix(1 0 0 -1 28.79 7.339)"/><path style="fill:none;stroke-width:1.59404;stroke-linecap:round;stroke-linejoin:miter;stroke:#ff8080;stroke-opacity:1;stroke-miterlimit:10" d="M-.895-55.306c8.969-5.582-17.129-7.363-9.246-5.289" transform="matrix(1 0 0 -1 28.79 7.339)"/><g clip-path="url(#a)"><path style="fill:none;stroke-width:1.59404;stroke-linecap:round;stroke-linejoin:miter;stroke:#ff7d7d;stroke-opacity:1;stroke-miterlimit:10" d="M-10.141-60.595c7.883 2.075-13.36-14.132-3.484-4.968" transform="matrix(1 0 0 -1 28.79 7.339)"/></g><path style="fill:none;stroke-width:1.59404;stroke-linecap:round;stroke-linejoin:miter;stroke:#ff7a7a;stroke-opacity:1;stroke-miterlimit:10" d="M-13.625-65.563c9.87 9.164-6.082 8.086.457 3.144" transform="matrix(1 0 0 -1 28.79 7.339)"/><g clip-path="url(#b)"><path style="fill:none;stroke-width:1.59404;stroke-linecap:round;stroke-linejoin:miter;stroke:#ff7878;stroke-opacity:1;stroke-miterlimit:10" d="M-13.168-62.419c6.539-4.941-15.762-7.879-7.551-5.656" transform="matrix(1 0 0 -1 28.79 7.339)"/></g><g clip-path="url(#c)"><path style="fill:none;stroke-width:1.59404;stroke-linecap:round;stroke-linejoin:miter;stroke:#ff7575;stroke-opacity:1;stroke-miterlimit:10" d="M-20.72-68.075c8.212 2.223 3.872.23 7.755 6.094" transform="matrix(1 0 0 -1 28.79 7.339)"/></g><path style="fill:none;stroke-width:1.59404;stroke-linecap:round;stroke-linejoin:miter;stroke:#ff7373;stroke-opacity:1;stroke-miterlimit:10" d="M-12.965-61.981c3.879 5.863-4.473-3.555-.407-.871" transform="matrix(1 0 0 -1 28.79 7.339)"/><g clip-path="url(#d)"><path style="fill:none;stroke-width:1.59404;stroke-linecap:round;stroke-linejoin:miter;stroke:#ff7070;stroke-opacity:1;stroke-miterlimit:10" d="M-13.372-62.852c4.067 2.687 8.102 2.77 8.899-5.918" transform="matrix(1 0 0 -1 28.79 7.339)"/></g><g clip-path="url(#e)"><path style="fill:none;stroke-width:1.59404;stroke-linecap:round;stroke-linejoin:miter;stroke:#ff6e6e;stroke-opacity:1;stroke-miterlimit:10" d="M-4.473-68.77c.8-8.688 13.453-.625 6.695-3.305" transform="matrix(1 0 0 -1 28.79 7.339)"/></g><g clip-path="url(#f)"><path style="fill:none;stroke-width:1.59404;stroke-linecap:round;stroke-linejoin:miter;stroke:#ff6b6b;stroke-opacity:1;stroke-miterlimit:10" d="M2.222-72.075c-6.758-2.68-.281-4.559 6.68-3.633" transform="matrix(1 0 0 -1 28.79 7.339)"/></g><g clip-path="url(#g)"><path style="fill:none;stroke-width:1.59404;stroke-linecap:round;stroke-linejoin:miter;stroke:#ff6969;stroke-opacity:1;stroke-miterlimit:10" d="M8.902-75.708c6.96.93-5.496.02 3.348-1.379" transform="matrix(1 0 0 -1 28.79 7.339)"/></g><g clip-path="url(#h)"><path style="fill:none;stroke-width:1.59404;stroke-linecap:round;stroke-linejoin:miter;stroke:#f66;stroke-opacity:1;stroke-miterlimit:10" d="M12.25-77.087c8.84-1.394 11.488.668 4.03-9.078" transform="matrix(1 0 0 -1 28.79 7.339)"/></g><g clip-path="url(#i)"><path style="fill:none;stroke-width:1.59404;stroke-linecap:round;stroke-linejoin:miter;stroke:#ff6363;stroke-opacity:1;stroke-miterlimit:10" d="M16.28-86.165c-7.456-9.746 1.673 19.203 2.302 9.797" transform="matrix(1 0 0 -1 28.79 7.339)"/></g><g clip-path="url(#j)"><path style="fill:none;stroke-width:1.59404;stroke-linecap:round;stroke-linejoin:miter;stroke:#ff6161;stroke-opacity:1;stroke-miterlimit:10" d="M18.582-76.368c.628-9.41 2.714-6.332 7.586-7.414" transform="matrix(1 0 0 -1 28.79 7.339)"/></g><g clip-path="url(#k)"><path style="fill:none;stroke-width:1.59404;stroke-linecap:round;stroke-linejoin:miter;stroke:#ff5e5e;stroke-opacity:1;stroke-miterlimit:10" d="M26.168-83.782c4.87-1.082 3.507 7.273 9.414 5.887" transform="matrix(1 0 0 -1 28.79 7.339)"/></g><g clip-path="url(#l)"><path style="fill:none;stroke-width:1.59404;stroke-linecap:round;stroke-linejoin:miter;stroke:#ff5c5c;stroke-opacity:1;stroke-miterlimit:10" d="M35.582-77.895c5.906-1.391-11.48 4.902-8.836 4.156" transform="matrix(1 0 0 -1 28.79 7.339)"/></g><g clip-path="url(#m)"><path style="fill:none;stroke-width:1.59404;stroke-linecap:round;stroke-linejoin:miter;stroke:#ff5959;stroke-opacity:1;stroke-miterlimit:10" d="M26.746-73.74c2.644-.745 7.308-2.976 4.082 3.727" transform="matrix(1 0 0 -1 28.79 7.339)"/></g><g clip-path="url(#n)"><path style="fill:none;stroke-width:1.59404;stroke-linecap:round;stroke-linejoin:miter;stroke:#ff5757;stroke-opacity:1;stroke-miterlimit:10" d="M30.828-70.013c-3.227 6.707 3.097-6.746 3.789-7.117" transform="matrix(1 0 0 -1 28.79 7.339)"/></g><g clip-path="url(#o)"><path style="fill:none;stroke-width:1.59404;stroke-linecap:round;stroke-linejoin:miter;stroke:#ff5454;stroke-opacity:1;stroke-miterlimit:10" d="M34.617-77.13c.691-.37-12.461 3.156-6.203 8.008" transform="matrix(1 0 0 -1 28.79 7.339)"/></g><g clip-path="url(#p)"><path style="fill:none;stroke-width:1.59404;stroke-linecap:round;stroke-linejoin:miter;stroke:#ff5252;stroke-opacity:1;stroke-miterlimit:10" d="M28.414-69.122c6.261 4.856-3.024-11.805 3.566-3.516" transform="matrix(1 0 0 -1 28.79 7.339)"/></g><g clip-path="url(#q)"><path style="fill:none;stroke-width:1.59404;stroke-linecap:round;stroke-linejoin:miter;stroke:#ff4f4f;stroke-opacity:1;stroke-miterlimit:10" d="M31.98-72.638c6.594 8.29-12.684-3.445-3.05-2.613" transform="matrix(1 0 0 -1 28.79 7.339)"/></g><g clip-path="url(#r)"><path style="fill:none;stroke-width:1.59404;stroke-linecap:round;stroke-linejoin:miter;stroke:#ff4c4c;stroke-opacity:1;stroke-miterlimit:10" d="M28.93-75.25c9.636.827-4.134-8.911 5.214-.395" transform="matrix(1 0 0 -1 28.79 7.339)"/></g><g clip-path="url(#s)"><path style="fill:none;stroke-width:1.59404;stroke-linecap:round;stroke-linejoin:miter;stroke:#ff4a4a;stroke-opacity:1;stroke-miterlimit:10" d="M34.144-75.645c9.344 8.515 5.879 1.035 4.723 7.882" transform="matrix(1 0 0 -1 28.79 7.339)"/></g><g clip-path="url(#t)"><path style="fill:none;stroke-width:1.59404;stroke-linecap:round;stroke-linejoin:miter;stroke:#ff4747;stroke-opacity:1;stroke-miterlimit:10" d="M38.867-67.763c-1.16 6.852 5.976-.14-1.102-2.043" transform="matrix(1 0 0 -1 28.79 7.339)"/></g><g clip-path="url(#u)"><path style="fill:none;stroke-width:1.59404;stroke-linecap:round;stroke-linejoin:miter;stroke:#ff4545;stroke-opacity:1;stroke-miterlimit:10" d="M37.765-69.806c-7.074-1.898-.398-12.46-.933-9.484" transform="matrix(1 0 0 -1 28.79 7.339)"/></g><g clip-path="url(#v)"><path style="fill:none;stroke-width:1.59404;stroke-linecap:round;stroke-linejoin:miter;stroke:#ff4242;stroke-opacity:1;stroke-miterlimit:10" d="M36.832-79.29c-.532 2.98 8.855.52 6.742 1.918" transform="matrix(1 0 0 -1 28.79 7.339)"/></g><g clip-path="url(#w)"><path style="fill:none;stroke-width:1.59404;stroke-linecap:round;stroke-linejoin:miter;stroke:#ff4040;stroke-opacity:1;stroke-miterlimit:10" d="M43.574-77.372c-2.113 1.398-1.828 8.191 2.988 4.176" transform="matrix(1 0 0 -1 28.79 7.339)"/></g><g clip-path="url(#x)"><path style="fill:none;stroke-width:1.59404;stroke-linecap:round;stroke-linejoin:miter;stroke:#ff3d3d;stroke-opacity:1;stroke-miterlimit:10" d="M46.562-73.196c4.816-4.012-5.328 3.613-6.805-.137" transform="matrix(1 0 0 -1 28.79 7.339)"/></g><g clip-path="url(#y)"><path style="fill:none;stroke-width:1.59404;stroke-linecap:round;stroke-linejoin:miter;stroke:#ff3b3b;stroke-opacity:1;stroke-miterlimit:10" d="M39.757-73.333c-1.472-3.75-1.375 15.426 1.676 6.93" transform="matrix(1 0 0 -1 28.79 7.339)"/></g><g clip-path="url(#z)"><path style="fill:none;stroke-width:1.59404;stroke-linecap:round;stroke-linejoin:miter;stroke:#ff3838;stroke-opacity:1;stroke-miterlimit:10" d="M41.433-66.403c3.047-8.496-13.93.449-8.164.715" transform="matrix(1 0 0 -1 28.79 7.339)"/></g><g clip-path="url(#A)"><path style="fill:none;stroke-width:1.59404;stroke-linecap:round;stroke-linejoin:miter;stroke:#ff3636;stroke-opacity:1;stroke-miterlimit:10" d="M33.27-65.688c5.765.265 17.347-1.368 8.28-3.223" transform="matrix(1 0 0 -1 28.79 7.339)"/></g><g clip-path="url(#B)"><path style="fill:none;stroke-width:1.59404;stroke-linecap:round;stroke-linejoin:miter;stroke:#f33;stroke-opacity:1;stroke-miterlimit:10" d="M41.55-68.911c-9.066-1.855-7.062 7.457-3.03.992" transform="matrix(1 0 0 -1 28.79 7.339)"/></g><g clip-path="url(#C)"><path style="fill:none;stroke-width:1.59404;stroke-linecap:round;stroke-linejoin:miter;stroke:#ff3030;stroke-opacity:1;stroke-miterlimit:10" d="M38.52-67.919c4.03-6.46-10.126-10.64-4.852-9.562" transform="matrix(1 0 0 -1 28.79 7.339)"/></g><g clip-path="url(#D)"><path style="fill:none;stroke-width:1.59404;stroke-linecap:round;stroke-linejoin:miter;stroke:#ff2e2e;stroke-opacity:1;stroke-miterlimit:10" d="M33.668-77.481c5.273 1.082-2.047 9.406 1.894 8.097" transform="matrix(1 0 0 -1 28.79 7.339)"/></g><g clip-path="url(#E)"><path style="fill:none;stroke-width:1.59404;stroke-linecap:round;stroke-linejoin:miter;stroke:#ff2b2b;stroke-opacity:1;stroke-miterlimit:10" d="M35.562-69.384c3.938-1.312-3.223 12.344 2.996 9.516" transform="matrix(1 0 0 -1 28.79 7.339)"/></g><g clip-path="url(#F)"><path style="fill:none;stroke-width:1.59404;stroke-linecap:round;stroke-linejoin:miter;stroke:#ff2929;stroke-opacity:1;stroke-miterlimit:10" d="M38.558-59.868c6.219-2.828 5.836-10.098-.242-9.602" transform="matrix(1 0 0 -1 28.79 7.339)"/></g><g clip-path="url(#G)"><path style="fill:none;stroke-width:1.59404;stroke-linecap:round;stroke-linejoin:miter;stroke:#ff2626;stroke-opacity:1;stroke-miterlimit:10" d="M38.316-69.47c-6.078.5-13.117 14.508-8.094 4.653" transform="matrix(1 0 0 -1 28.79 7.339)"/></g><g clip-path="url(#H)"><path style="fill:none;stroke-width:1.59404;stroke-linecap:round;stroke-linejoin:miter;stroke:#ff2424;stroke-opacity:1;stroke-miterlimit:10" d="M30.222-64.817c5.028-9.852 9.895 3.558 8.528 7.199" transform="matrix(1 0 0 -1 28.79 7.339)"/></g><g clip-path="url(#I)"><path style="fill:none;stroke-width:1.59404;stroke-linecap:round;stroke-linejoin:miter;stroke:#ff2121;stroke-opacity:1;stroke-miterlimit:10" d="M38.75-57.618c-1.368 3.637 8.878 11.887 7.718 2.965" transform="matrix(1 0 0 -1 28.79 7.339)"/></g><g clip-path="url(#J)"><path style="fill:none;stroke-width:1.59404;stroke-linecap:round;stroke-linejoin:miter;stroke:#ff1f1f;stroke-opacity:1;stroke-miterlimit:10" d="M46.468-54.653c-1.156-8.918-13.953-1.957-6.574 7.308" transform="matrix(1 0 0 -1 28.79 7.339)"/></g><g clip-path="url(#K)"><path style="fill:none;stroke-width:1.59404;stroke-linecap:round;stroke-linejoin:miter;stroke:#ff1c1c;stroke-opacity:1;stroke-miterlimit:10" d="M39.894-47.345c7.375 9.262 8.23 9.133-1.351 2.672" transform="matrix(1 0 0 -1 28.79 7.339)"/></g><g clip-path="url(#L)"><path style="fill:none;stroke-width:1.59404;stroke-linecap:round;stroke-linejoin:miter;stroke:#ff1919;stroke-opacity:1;stroke-miterlimit:10" d="M38.543-44.673c-9.582-6.46-5.024 3.864 3.527 1.946" transform="matrix(1 0 0 -1 28.79 7.339)"/></g><g clip-path="url(#M)"><path style="fill:none;stroke-width:1.59404;stroke-linecap:round;stroke-linejoin:miter;stroke:#ff1717;stroke-opacity:1;stroke-miterlimit:10" d="M42.07-42.727c8.55-1.918 16.262 4.492 7.46 6.648" transform="matrix(1 0 0 -1 28.79 7.339)"/></g><g clip-path="url(#N)"><path style="fill:none;stroke-width:1.59404;stroke-linecap:round;stroke-linejoin:miter;stroke:#ff1414;stroke-opacity:1;stroke-miterlimit:10" d="M49.53-36.079c-8.796 2.16-4.484 8.523-2.64 9.54" transform="matrix(1 0 0 -1 28.79 7.339)"/></g><g clip-path="url(#O)"><path style="fill:none;stroke-width:1.59404;stroke-linecap:round;stroke-linejoin:miter;stroke:#ff1212;stroke-opacity:1;stroke-miterlimit:10" d="M46.89-26.54c1.844 1.012 9.324-11.851 8.203-2.809" transform="matrix(1 0 0 -1 28.79 7.339)"/></g><g clip-path="url(#P)"><path style="fill:none;stroke-width:1.59404;stroke-linecap:round;stroke-linejoin:miter;stroke:#ff0f0f;stroke-opacity:1;stroke-miterlimit:10" d="M55.093-29.349c-1.125 9.047-.765 1.504-3.199-4.101" transform="matrix(1 0 0 -1 28.79 7.339)"/></g><g clip-path="url(#Q)"><path style="fill:none;stroke-width:1.59404;stroke-linecap:round;stroke-linejoin:miter;stroke:#ff0d0d;stroke-opacity:1;stroke-miterlimit:10" d="M51.894-33.45c-2.433-5.602.504-12.012-6.183-7.504" transform="matrix(1 0 0 -1 28.79 7.339)"/></g><g clip-path="url(#R)"><path style="fill:none;stroke-width:1.59404;stroke-linecap:round;stroke-linejoin:miter;stroke:#ff0a0a;stroke-opacity:1;stroke-miterlimit:10" d="M45.71-40.954c-6.683 4.508-11.824-1.105-8.14.625" transform="matrix(1 0 0 -1 28.79 7.339)"/></g><g clip-path="url(#S)"><path style="fill:none;stroke-width:1.59404;stroke-linecap:round;stroke-linejoin:miter;stroke:#ff0808;stroke-opacity:1;stroke-miterlimit:10" d="M37.57-40.329c3.687 1.734 12.52 3.66 9.484-3.02" transform="matrix(1 0 0 -1 28.79 7.339)"/></g><g clip-path="url(#T)"><path style="fill:none;stroke-width:1.59404;stroke-linecap:round;stroke-linejoin:miter;stroke:#ff0505;stroke-opacity:1;stroke-miterlimit:10" d="M47.054-43.349c-3.031-6.675-12.988-2.476-8.824 1.645" transform="matrix(1 0 0 -1 28.79 7.339)"/></g><g clip-path="url(#U)"><path style="fill:none;stroke-width:1.59404;stroke-linecap:round;stroke-linejoin:miter;stroke:#ff0303;stroke-opacity:1;stroke-miterlimit:10" d="M38.23-41.704c4.168 4.125-4.844 5-1.285-1.266" transform="matrix(1 0 0 -1 28.79 7.339)"/></g><g clip-path="url(#V)"><path style="fill:none;stroke-width:1.59404;stroke-linecap:round;stroke-linejoin:miter;stroke:red;stroke-opacity:1;stroke-miterlimit:10" d="M36.945-42.97c3.558-6.27-6.633-2.086 1.656-.91" transform="matrix(1 0 0 -1 28.79 7.339)"/></g></svg>