<svg xmlns="http://www.w3.org/2000/svg" xmlns:xlink="http://www.w3.org/1999/xlink" width="382.155" height="56.019" viewBox="0 0 286.616 42.014" version="1.2"><defs><clipPath id="c"><path d="M72.25 10.55h141.73v19.927H72.25Zm0 0"/></clipPath><clipPath id="a"><path d="M0 0h12v12H0z"/></clipPath><clipPath id="e"><path d="M72.25 30.332h42.52v.145H72.25Zm0 0"/></clipPath><clipPath id="f"><path d="M72.25 27.344h42.52v.996H72.25Zm0 0"/></clipPath><clipPath id="g"><path d="M72.25 24.355h42.52v.997H72.25Zm0 0"/></clipPath><clipPath id="h"><path d="M72.25 21.367h42.52v.996H72.25Zm0 0"/></clipPath><clipPath id="i"><path d="M72.25 18.379h42.52v.996H72.25Zm0 0"/></clipPath><clipPath id="j"><path d="M72.25 15.39h42.52v.997H72.25Zm0 0"/></clipPath><clipPath id="k"><path d="M72.25 12.402h42.52v.996H72.25Zm0 0"/></clipPath><clipPath id="l"><path d="M121.855 30.332h5.649v.145h-5.649Zm0 0"/></clipPath><clipPath id="m"><path d="M127.504 30.332h36.875v.145h-36.875Zm0 0"/></clipPath><clipPath id="n"><path d="M121.855 27.344h5.649v.996h-5.649Zm0 0"/></clipPath><clipPath id="o"><path d="M127.504 27.344h36.875v.996h-36.875Zm0 0"/></clipPath><clipPath id="p"><path d="M121.855 24.355h5.649v.997h-5.649Zm0 0"/></clipPath><clipPath id="q"><path d="M127.504 24.355h36.875v.997h-36.875Zm0 0"/></clipPath><clipPath id="r"><path d="M121.855 21.367h5.649v.996h-5.649Zm0 0"/></clipPath><clipPath id="s"><path d="M127.504 21.367h36.875v.996h-36.875Zm0 0"/></clipPath><clipPath id="t"><path d="M121.855 18.379h5.649v.996h-5.649Zm0 0"/></clipPath><clipPath id="u"><path d="M127.504 18.379h36.875v.996h-36.875Zm0 0"/></clipPath><clipPath id="v"><path d="M121.855 15.39h5.649v.997h-5.649Zm0 0"/></clipPath><clipPath id="w"><path d="M127.504 15.39h36.875v.997h-36.875Zm0 0"/></clipPath><clipPath id="x"><path d="M121.855 12.402h5.649v.996h-5.649Zm0 0"/></clipPath><clipPath id="y"><path d="M127.504 12.402h36.875v.996h-36.875Zm0 0"/></clipPath><clipPath id="z"><path d="M171.465 30.332h42.52v.145h-42.52Zm0 0"/></clipPath><clipPath id="A"><path d="M171.465 27.344h42.52v.996h-42.52Zm0 0"/></clipPath><clipPath id="B"><path d="M171.465 24.355h42.52v.997h-42.52Zm0 0"/></clipPath><clipPath id="C"><path d="M171.465 21.367h42.52v.996h-42.52Zm0 0"/></clipPath><clipPath id="D"><path d="M171.465 18.379h42.52v.996h-42.52Zm0 0"/></clipPath><clipPath id="E"><path d="M171.465 15.39h42.52v.997h-42.52Zm0 0"/></clipPath><clipPath id="F"><path d="M171.465 12.402h42.52v.996h-42.52Zm0 0"/></clipPath><pattern id="d" patternUnits="userSpaceOnUse" width="12" height="12" patternTransform="matrix(.9449 0 0 -.9449 -71.75 13618.551)"><use xlink:href="#b"/></pattern><g id="b" clip-path="url(#a)"><path style="fill:#000;fill-opacity:1;stroke:none" d="M0 0h12v12H0z"/><path style="stroke:none;fill-rule:nonzero;fill:#ccc;fill-opacity:1" d="M0 0h6v6H0Zm6 6h6v6H6Zm0 0"/></g></defs><g clip-path="url(#c)"><path style="stroke:none;fill-rule:nonzero;fill:url(#d)" d="M72.25 30.477h141.73V10.55H72.25Zm0 0"/></g><g clip-path="url(#e)"><path style="fill:none;stroke-width:.3985;stroke-linecap:butt;stroke-linejoin:miter;stroke:#000;stroke-opacity:1;stroke-miterlimit:10" d="M.001.498h99.625" transform="matrix(1 0 0 -1 27.878 31.33)"/></g><g clip-path="url(#f)"><path style="fill:none;stroke-width:.3985;stroke-linecap:butt;stroke-linejoin:miter;stroke:#000;stroke-opacity:1;stroke-miterlimit:10" d="M.001.497h99.625" transform="matrix(1 0 0 -1 27.878 28.341)"/></g><g clip-path="url(#g)"><path style="fill:none;stroke-width:.3985;stroke-linecap:butt;stroke-linejoin:miter;stroke:#000;stroke-opacity:1;stroke-miterlimit:10" d="M.001.497h99.625" transform="matrix(1 0 0 -1 27.878 25.352)"/></g><g clip-path="url(#h)"><path style="fill:none;stroke-width:.3985;stroke-linecap:butt;stroke-linejoin:miter;stroke:#000;stroke-opacity:1;stroke-miterlimit:10" d="M.001.5h99.625" transform="matrix(1 0 0 -1 27.878 22.363)"/></g><g clip-path="url(#i)"><path style="fill:none;stroke-width:.3985;stroke-linecap:butt;stroke-linejoin:miter;stroke:#000;stroke-opacity:1;stroke-miterlimit:10" d="M.001.5h99.625" transform="matrix(1 0 0 -1 27.878 19.375)"/></g><g clip-path="url(#j)"><path style="fill:none;stroke-width:.3985;stroke-linecap:butt;stroke-linejoin:miter;stroke:#000;stroke-opacity:1;stroke-miterlimit:10" d="M.001.499h99.625" transform="matrix(1 0 0 -1 27.878 16.386)"/></g><g clip-path="url(#k)"><path style="fill:none;stroke-width:.3985;stroke-linecap:butt;stroke-linejoin:miter;stroke:#000;stroke-opacity:1;stroke-miterlimit:10" d="M.001.498h99.625" transform="matrix(1 0 0 -1 27.878 13.397)"/></g><g clip-path="url(#l)"><path style="fill:none;stroke-width:.3985;stroke-linecap:butt;stroke-linejoin:miter;stroke:#00f;stroke-opacity:1;stroke-miterlimit:10" d="M.001.498h99.625" transform="matrix(1 0 0 -1 27.878 31.33)"/></g><g clip-path="url(#m)"><path style="fill:none;stroke-width:.3985;stroke-linecap:butt;stroke-linejoin:miter;stroke:#00f;stroke-opacity:1;stroke-miterlimit:10" d="M-.001.498h99.628" transform="matrix(1 0 0 -1 127.505 31.33)"/></g><g clip-path="url(#n)"><path style="fill:none;stroke-width:.3985;stroke-linecap:butt;stroke-linejoin:miter;stroke:#00f;stroke-opacity:1;stroke-miterlimit:10" d="M.001.497h99.625" transform="matrix(1 0 0 -1 27.878 28.341)"/></g><g clip-path="url(#o)"><path style="fill:none;stroke-width:.3985;stroke-linecap:butt;stroke-linejoin:miter;stroke:#00f;stroke-opacity:1;stroke-miterlimit:10" d="M-.001.497h99.628" transform="matrix(1 0 0 -1 127.505 28.341)"/></g><g clip-path="url(#p)"><path style="fill:none;stroke-width:.3985;stroke-linecap:butt;stroke-linejoin:miter;stroke:#00f;stroke-opacity:1;stroke-miterlimit:10" d="M.001.497h99.625" transform="matrix(1 0 0 -1 27.878 25.352)"/></g><g clip-path="url(#q)"><path style="fill:none;stroke-width:.3985;stroke-linecap:butt;stroke-linejoin:miter;stroke:#00f;stroke-opacity:1;stroke-miterlimit:10" d="M-.001.497h99.628" transform="matrix(1 0 0 -1 127.505 25.352)"/></g><g clip-path="url(#r)"><path style="fill:none;stroke-width:.3985;stroke-linecap:butt;stroke-linejoin:miter;stroke:#00f;stroke-opacity:1;stroke-miterlimit:10" d="M.001.5h99.625" transform="matrix(1 0 0 -1 27.878 22.363)"/></g><g clip-path="url(#s)"><path style="fill:none;stroke-width:.3985;stroke-linecap:butt;stroke-linejoin:miter;stroke:#00f;stroke-opacity:1;stroke-miterlimit:10" d="M-.001.5h99.628" transform="matrix(1 0 0 -1 127.505 22.363)"/></g><g clip-path="url(#t)"><path style="fill:none;stroke-width:.3985;stroke-linecap:butt;stroke-linejoin:miter;stroke:#00f;stroke-opacity:1;stroke-miterlimit:10" d="M.001.5h99.625" transform="matrix(1 0 0 -1 27.878 19.375)"/></g><g clip-path="url(#u)"><path style="fill:none;stroke-width:.3985;stroke-linecap:butt;stroke-linejoin:miter;stroke:#00f;stroke-opacity:1;stroke-miterlimit:10" d="M-.001.5h99.628" transform="matrix(1 0 0 -1 127.505 19.375)"/></g><g clip-path="url(#v)"><path style="fill:none;stroke-width:.3985;stroke-linecap:butt;stroke-linejoin:miter;stroke:#00f;stroke-opacity:1;stroke-miterlimit:10" d="M.001.499h99.625" transform="matrix(1 0 0 -1 27.878 16.386)"/></g><g clip-path="url(#w)"><path style="fill:none;stroke-width:.3985;stroke-linecap:butt;stroke-linejoin:miter;stroke:#00f;stroke-opacity:1;stroke-miterlimit:10" d="M-.001.499h99.628" transform="matrix(1 0 0 -1 127.505 16.386)"/></g><g clip-path="url(#x)"><path style="fill:none;stroke-width:.3985;stroke-linecap:butt;stroke-linejoin:miter;stroke:#00f;stroke-opacity:1;stroke-miterlimit:10" d="M.001.498h99.625" transform="matrix(1 0 0 -1 27.878 13.397)"/></g><g clip-path="url(#y)"><path style="fill:none;stroke-width:.3985;stroke-linecap:butt;stroke-linejoin:miter;stroke:#00f;stroke-opacity:1;stroke-miterlimit:10" d="M-.001.498h99.628" transform="matrix(1 0 0 -1 127.505 13.397)"/></g><g clip-path="url(#z)"><path style="fill:none;stroke-width:.3985;stroke-linecap:butt;stroke-linejoin:miter;stroke:red;stroke-opacity:1;stroke-miterlimit:10" d="M-.001.498h99.628" transform="matrix(1 0 0 -1 127.505 31.33)"/></g><g clip-path="url(#A)"><path style="fill:none;stroke-width:.3985;stroke-linecap:butt;stroke-linejoin:miter;stroke:red;stroke-opacity:1;stroke-miterlimit:10" d="M-.001.497h99.628" transform="matrix(1 0 0 -1 127.505 28.341)"/></g><g clip-path="url(#B)"><path style="fill:none;stroke-width:.3985;stroke-linecap:butt;stroke-linejoin:miter;stroke:red;stroke-opacity:1;stroke-miterlimit:10" d="M-.001.497h99.628" transform="matrix(1 0 0 -1 127.505 25.352)"/></g><g clip-path="url(#C)"><path style="fill:none;stroke-width:.3985;stroke-linecap:butt;stroke-linejoin:miter;stroke:red;stroke-opacity:1;stroke-miterlimit:10" d="M-.001.5h99.628" transform="matrix(1 0 0 -1 127.505 22.363)"/></g><g clip-path="url(#D)"><path style="fill:none;stroke-width:.3985;stroke-linecap:butt;stroke-linejoin:miter;stroke:red;stroke-opacity:1;stroke-miterlimit:10" d="M-.001.5h99.628" transform="matrix(1 0 0 -1 127.505 19.375)"/></g><g clip-path="url(#E)"><path style="fill:none;stroke-width:.3985;stroke-linecap:butt;stroke-linejoin:miter;stroke:red;stroke-opacity:1;stroke-miterlimit:10" d="M-.001.499h99.628" transform="matrix(1 0 0 -1 127.505 16.386)"/></g><g clip-path="url(#F)"><path style="fill:none;stroke-width:.3985;stroke-linecap:butt;stroke-linejoin:miter;stroke:red;stroke-opacity:1;stroke-miterlimit:10" d="M-.001.498h99.628" transform="matrix(1 0 0 -1 127.505 13.397)"/></g></svg>