<svg xmlns="http://www.w3.org/2000/svg" width="79.356" height="121.731" viewBox="0 0 59.517 91.298" version="1.2"><defs><clipPath id="a"><path d="M0 0h59.277v90.945H0Zm0 0"/></clipPath></defs><g clip-path="url(#a)"><path style="fill:none;stroke-width:.79701;stroke-linecap:butt;stroke-linejoin:miter;stroke:#000;stroke-opacity:1;stroke-miterlimit:10" d="M.001.002v48.722c0 4.403 2.227 10.754 4.977 14.192l18.39 22.988c2.75 3.438 7.208 3.438 9.957 0l18.391-22.988c2.75-3.438 4.977-9.79 4.977-14.191V7.97c0-4.403-2.524-5.45-5.637-2.336L5.634 51.057c-3.11 3.113-2.066 5.636 2.336 5.636h40.754c4.402 0 5.445-2.523 2.332-5.636L5.634 5.635C2.524 2.52 3.568.002 7.97.002h48.723" transform="matrix(1 0 0 -1 1.175 89.537)"/></g></svg>