<svg xmlns="http://www.w3.org/2000/svg" width="116.077" height="47.667" viewBox="0 0 87.058 35.75" version="1.2"><defs><clipPath id="a"><path d="M0 0h86.586v12H0Zm0 0"/></clipPath><clipPath id="b"><path d="M0 9h86.586v17H0Zm0 0"/></clipPath><clipPath id="c"><path d="M0 23h86.586v12.625H0Zm0 0"/></clipPath></defs><g clip-path="url(#a)"><path style="fill:none;stroke-width:.3985;stroke-linecap:butt;stroke-linejoin:miter;stroke:#000;stroke-opacity:1;stroke-miterlimit:10" d="M.001.001c1.246 0 1.867 2.488 3.113 2.488.903 0 1.676-1.215 2.489-2.488.812-1.277 1.59-2.492 2.492-2.492.902 0 1.68 1.215 2.492 2.492.809 1.273 1.586 2.488 2.488 2.488.903 0 1.68-1.215 2.492-2.488.813-1.277 1.59-2.492 2.489-2.492.902 0 1.68 1.215 2.492 2.492.812 1.273 1.59 2.488 2.492 2.488.902 0 1.676-1.215 2.488-2.488.813-1.277 1.59-2.492 2.493-2.492.902 0 1.68 1.215 2.492 2.492.808 1.273 1.586 2.488 2.488 2.488.902 0 1.68-1.215 2.492-2.488.813-1.277 1.59-2.492 2.489-2.492.902 0 1.68 1.215 2.492 2.492.812 1.273 1.59 2.488 2.492 2.488.898 0 1.676-1.215 2.488-2.488.813-1.277 1.59-2.492 2.492-2.492.903 0 1.68 1.215 2.489 2.492.812 1.273 1.59 2.488 2.492 2.488.902 0 1.68-1.215 2.492-2.488.813-1.277 1.59-2.492 2.488-2.492.903 0 1.68 1.215 2.493 2.492.812 1.273 1.59 2.488 2.492 2.488.898 0 1.675-1.215 2.488-2.488.812-1.277 1.59-2.492 2.492-2.492.903 0 1.68 1.215 2.488 2.492.813 1.273 1.59 2.488 2.493 2.488.902 0 1.68-1.215 2.492-2.488.812-1.277 1.586-2.492 2.488-2.492C79.08-2.491 79.7 0 80.946 0h3.696" transform="matrix(1 0 0 -1 .538 3.583)"/></g><path style="fill:none;stroke-width:.3985;stroke-linecap:round;stroke-linejoin:round;stroke:#000;stroke-opacity:1;stroke-miterlimit:10" d="M-2.07 2.392C-1.697.958-.853.278 0 0c-.852-.281-1.696-.957-2.07-2.39" transform="matrix(1 0 0 -1 85.38 3.583)"/><g clip-path="url(#b)"><path style="fill:none;stroke-width:.3985;stroke-linecap:butt;stroke-linejoin:miter;stroke:#000;stroke-opacity:1;stroke-miterlimit:10" d="M.001-14.175h4.98c1.247 0 1.868 2.492 3.114 2.492.902 0 1.68-1.214 2.492-2.492.809-1.273 1.586-2.488 2.488-2.488.903 0 1.68 1.215 2.492 2.488.813 1.278 1.59 2.492 2.489 2.492.902 0 1.68-1.214 2.492-2.492.812-1.273 1.59-2.488 2.492-2.488.902 0 1.676 1.215 2.488 2.488.813 1.278 1.59 2.492 2.493 2.492.902 0 1.68-1.214 2.492-2.492.808-1.273 1.586-2.488 2.488-2.488.902 0 1.68 1.215 2.492 2.488.813 1.278 1.59 2.492 2.489 2.492.902 0 1.68-1.214 2.492-2.492.812-1.273 1.59-2.488 2.492-2.488.898 0 1.676 1.215 2.488 2.488.813 1.278 1.59 2.492 2.492 2.492.903 0 1.68-1.214 2.489-2.492.812-1.273 1.59-2.488 2.492-2.488.902 0 1.68 1.215 2.492 2.488.813 1.278 1.59 2.492 2.488 2.492.903 0 1.68-1.214 2.493-2.492.812-1.273 1.59-2.488 2.492-2.488.898 0 1.675 1.215 2.488 2.488.812 1.278 1.59 2.492 2.492 2.492.903 0 1.68-1.214 2.488-2.492.813-1.273 1.59-2.488 2.493-2.488 1.246 0 1.867 2.488 3.113 2.488h8.676" transform="matrix(1 0 0 -1 .538 3.583)"/></g><path style="fill:none;stroke-width:.3985;stroke-linecap:round;stroke-linejoin:round;stroke:#000;stroke-opacity:1;stroke-miterlimit:10" d="M-2.07 2.39C-1.697.955-.853.28 0-.002-.852-.28-1.696-.955-2.07-2.392" transform="matrix(1 0 0 -1 85.38 17.756)"/><g clip-path="url(#c)"><path style="fill:none;stroke-width:.3985;stroke-linecap:butt;stroke-linejoin:miter;stroke:#000;stroke-opacity:1;stroke-miterlimit:10" d="M.001-28.347H28.35c1.242 0 1.867 2.492 3.113 2.492.898 0 1.676-1.218 2.488-2.492.813-1.273 1.59-2.492 2.492-2.492.903 0 1.68 1.219 2.489 2.492.812 1.274 1.59 2.492 2.492 2.492.902 0 1.68-1.218 2.492-2.492.809-1.273 1.586-2.492 2.488-2.492.903 0 1.68 1.219 2.493 2.492.812 1.274 1.59 2.492 2.488 2.492 1.246 0 1.871-2.492 3.113-2.492h30.145" transform="matrix(1 0 0 -1 .538 3.583)"/></g><path style="fill:none;stroke-width:.3985;stroke-linecap:round;stroke-linejoin:round;stroke:#000;stroke-opacity:1;stroke-miterlimit:10" d="M-2.07 2.39C-1.697.958-.853.278 0 0c-.852-.277-1.696-.957-2.07-2.39" transform="matrix(1 0 0 -1 85.38 31.93)"/></svg>