<svg xmlns="http://www.w3.org/2000/svg" xmlns:xlink="http://www.w3.org/1999/xlink" width="127.371" height="77.235" viewBox="0 0 95.528 57.926" version="1.2"><defs><symbol overflow="visible" id="a"><path style="stroke:none" d="M4.688-.375c0-.36-.282-.375-.47-.375H3.032v-4.86c0-.359-.078-.484-.469-.484h-1.53c-.188 0-.485.016-.485.375 0 .36.297.375.469.375h1.187V-.75H1.031c-.187 0-.484.016-.484.375 0 .36.297.375.469.375h3.203c.172 0 .468-.016.468-.375Zm0 0"/></symbol><symbol overflow="visible" id="b"><path style="stroke:none" d="M4.656-1.14c0-.329-.343-.344-.422-.344-.218 0-.312.03-.39.265-.203.453-.688.532-.938.532-.672 0-1.344-.422-1.515-1.172h2.796c.25 0 .47 0 .47-.438 0-1.14-.657-2.125-1.97-2.125-1.187 0-2.171 1-2.171 2.234C.516-.952 1.53.063 2.828.063c1.36 0 1.828-.937 1.828-1.203Zm-.86-1.454H1.392c.171-.625.687-1.078 1.296-1.078.47 0 1 .219 1.11 1.078Zm0 0"/></symbol><symbol overflow="visible" id="c"><path style="stroke:none" d="M5.11-.375c0-.36-.282-.375-.47-.375h-.343v-2.172c0-1.031-.531-1.469-1.344-1.469-.562 0-.953.22-1.203.407 0-.25-.078-.36-.469-.36H.578c-.187 0-.469.016-.469.375 0 .36.297.375.454.375h.359V-.75H.578C.391-.75.11-.734.11-.375c0 .36.297.375.454.375h1.546c.172 0 .47-.016.47-.375 0-.36-.282-.375-.47-.375H1.75v-1.64c0-.907.688-1.266 1.14-1.266.47 0 .579.25.579.781V-.75h-.297c-.188 0-.485.016-.485.375 0 .36.313.375.485.375h1.484c.157 0 .453-.016.453-.375Zm0 0"/></symbol><symbol overflow="visible" id="d"><path style="stroke:none" d="M5.094-3.844c0-.25-.203-.61-.782-.61-.109 0-.578.016-1.046.329-.172-.11-.5-.266-.938-.266-.953 0-1.687.75-1.687 1.625 0 .407.156.72.312.922-.11.157-.187.375-.187.657 0 .312.109.546.187.671C.266-.046.266.61.266.72c0 .86 1.046 1.5 2.343 1.5s2.344-.64 2.344-1.5c0-.375-.187-.89-.703-1.172-.14-.078-.547-.297-1.453-.297h-.688c-.171 0-.39.047-.53-.125-.095-.11-.11-.297-.11-.297 0-.031.015-.094.031-.156.14.078.469.203.828.203.938 0 1.688-.734 1.688-1.64 0-.282-.079-.547-.235-.813.156-.078.297-.094.406-.125a.476.476 0 0 0 .438.328c.203 0 .469-.14.469-.469ZM3.187-2.766c0 .5-.39.907-.859.907-.484 0-.86-.422-.86-.907 0-.5.391-.89.86-.89s.86.422.86.89ZM4.234.72c0 .406-.703.765-1.625.765-.921 0-1.625-.359-1.625-.765 0-.156.079-.438.375-.625.22-.14.313-.14 1-.14.813 0 1.875 0 1.875.765Zm0 0"/></symbol><symbol overflow="visible" id="e"><path style="stroke:none" d="M4.5-1.313c0-.203 0-.437-.422-.437-.39 0-.406.234-.406.438 0 .53-.5.625-.719.625-.656 0-.656-.454-.656-.672v-2.235h1.515c.172 0 .47-.015.47-.375 0-.375-.282-.375-.47-.375H2.298v-.718c0-.22-.016-.47-.406-.47-.422 0-.422.235-.422.47v.718H.703c-.187 0-.469.016-.469.375 0 .36.282.375.454.375h.78v2.281c0 1 .688 1.375 1.454 1.375.75 0 1.578-.453 1.578-1.375Zm0 0"/></symbol><symbol overflow="visible" id="f"><path style="stroke:none" d="M5.11-.375c0-.36-.282-.375-.47-.375h-.343v-2.172c0-1.031-.531-1.469-1.344-1.469a1.99 1.99 0 0 0-1.203.407V-5.61c0-.36-.063-.485-.469-.485H.578c-.187 0-.469.016-.469.375 0 .36.297.375.454.375h.359V-.75H.578C.391-.75.11-.734.11-.375c0 .36.297.375.454.375h1.546c.172 0 .47-.016.47-.375 0-.36-.282-.375-.47-.375H1.75v-1.64c0-.907.688-1.266 1.14-1.266.47 0 .579.25.579.781V-.75h-.297c-.188 0-.485.016-.485.375 0 .36.313.375.485.375h1.484c.157 0 .453-.016.453-.375Zm0 0"/></symbol><symbol overflow="visible" id="g"><path style="stroke:none" d="M4.563-.375c0-.36-.297-.375-.47-.375h-.937v-3.125c0-.36-.078-.469-.469-.469H1.313c-.188 0-.485.016-.485.36 0 .375.297.39.485.39h1.015V-.75h-1.11c-.187 0-.468.016-.468.375 0 .36.297.375.469.375h2.875c.172 0 .468-.016.468-.375Zm-1.375-5.11a.56.56 0 0 0-.563-.562.564.564 0 0 0-.578.563c0 .328.25.562.578.562a.55.55 0 0 0 .563-.562Zm0 0"/></symbol><symbol overflow="visible" id="h"><path style="stroke:none" d="M4.61-1.297c0-1.062-1.313-1.281-1.641-1.328l-1-.188c-.266-.062-.532-.171-.532-.39 0-.235.313-.469 1.157-.469.719 0 .86.235.89.469.016.187.047.39.407.39.421 0 .421-.234.421-.468v-.672c0-.188-.015-.469-.359-.469-.219 0-.297.078-.344.172-.421-.172-.812-.172-1-.172-1.703 0-1.921.86-1.921 1.219 0 .937 1.046 1.125 1.984 1.265.437.079 1.187.188 1.187.641 0 .344-.343.61-1.171.61-.422 0-.938-.094-1.157-.813-.062-.219-.11-.328-.422-.328-.406 0-.421.234-.421.469v.937c0 .188.015.484.375.484.093 0 .265 0 .39-.328.469.313.953.329 1.234.329 1.594 0 1.922-.875 1.922-1.36Zm0 0"/></symbol></defs><path style="stroke:none;fill-rule:nonzero;fill:#000;fill-opacity:1" d="M43.297 14.855h28.348c7.828 0 14.171 6.348 14.171 14.176s-6.343 14.172-14.171 14.172H43.297c7.828 0 14.176-6.344 14.176-14.172s-6.348-14.176-14.176-14.176Zm0 0"/><path style="fill:none;stroke-width:28.3468;stroke-linecap:butt;stroke-linejoin:miter;stroke:gray;stroke-opacity:1;stroke-miterlimit:10" d="M-85.04-.001h42.519" transform="matrix(1 0 0 -1 85.818 29.03)"/><path style="fill:none;stroke-width:.59776;stroke-linecap:butt;stroke-linejoin:miter;stroke:red;stroke-opacity:1;stroke-miterlimit:10" d="M-12.978 18.159h11.781" transform="matrix(1 0 0 -1 85.818 29.03)"/><path style="fill:none;stroke-width:.59776;stroke-linecap:round;stroke-linejoin:round;stroke:red;stroke-opacity:1;stroke-miterlimit:10" d="M-2.31 2.75C-1.888 1.1-.947.32-.002 0-.947-.32-1.888-1.102-2.31-2.75" transform="matrix(-1 0 0 1 72.541 10.871)"/><path style="fill:none;stroke-width:.59776;stroke-linecap:butt;stroke-linejoin:miter;stroke:red;stroke-opacity:1;stroke-miterlimit:10" d="M-.002 2.691v-5.383" transform="matrix(-1 0 0 1 71.944 10.871)"/><path style="fill:none;stroke-width:.59776;stroke-linecap:round;stroke-linejoin:round;stroke:red;stroke-opacity:1;stroke-miterlimit:10" d="M-2.312 2.75C-1.89 1.102-.949.32.001 0-.95-.32-1.89-1.1-2.312-2.75" transform="matrix(1 0 0 -1 84.921 10.871)"/><path style="fill:none;stroke-width:.59776;stroke-linecap:butt;stroke-linejoin:miter;stroke:red;stroke-opacity:1;stroke-miterlimit:10" d="M0 2.692v-5.383" transform="matrix(1 0 0 -1 85.52 10.871)"/><g style="fill:red;fill-opacity:1"><use xlink:href="#a" x="63.04" y="7.023"/><use xlink:href="#b" x="68.27" y="7.023"/><use xlink:href="#c" x="73.501" y="7.023"/><use xlink:href="#d" x="78.731" y="7.023"/><use xlink:href="#e" x="83.962" y="7.023"/><use xlink:href="#f" x="89.192" y="7.023"/></g><path style="fill:none;stroke-width:.59776;stroke-linecap:butt;stroke-linejoin:miter;stroke:red;stroke-opacity:1;stroke-miterlimit:10" d="M-15.369-18.157h-25.957" transform="matrix(1 0 0 -1 85.818 29.03)"/><path style="fill:none;stroke-width:.59776;stroke-linecap:round;stroke-linejoin:round;stroke:red;stroke-opacity:1;stroke-miterlimit:10" d="M-2.31 2.751C-1.89 1.099-.947.321-.002.001c-.945-.32-1.887-1.102-2.308-2.754" transform="matrix(1 0 0 -1 70.748 47.188)"/><path style="fill:none;stroke-width:.59776;stroke-linecap:butt;stroke-linejoin:miter;stroke:red;stroke-opacity:1;stroke-miterlimit:10" d="M.002 2.688V-2.69" transform="matrix(1 0 0 -1 71.346 47.188)"/><path style="fill:none;stroke-width:.59776;stroke-linecap:round;stroke-linejoin:round;stroke:red;stroke-opacity:1;stroke-miterlimit:10" d="M-2.31 2.753C-1.887 1.1-.945.319 0-.001c-.946-.32-1.888-1.098-2.31-2.75" transform="matrix(-1 0 0 1 44.194 47.188)"/><path style="fill:none;stroke-width:.59776;stroke-linecap:butt;stroke-linejoin:miter;stroke:red;stroke-opacity:1;stroke-miterlimit:10" d="M-.001 2.69v-5.378" transform="matrix(-1 0 0 1 43.597 47.188)"/><g style="fill:red;fill-opacity:1"><use xlink:href="#g" x="44.395" y="56.845"/><use xlink:href="#c" x="49.625" y="56.845"/><use xlink:href="#h" x="54.856" y="56.845"/><use xlink:href="#b" x="60.086" y="56.845"/><use xlink:href="#e" x="65.317" y="56.845"/></g></svg>