<svg xmlns="http://www.w3.org/2000/svg" width="42.541" height="8.739" viewBox="0 0 31.906 6.554" version="1.2"><defs><clipPath id="a"><path d="M1 0h30.86v6.332H1Zm0 0"/></clipPath></defs><path style="fill:none;stroke-width:1.59404;stroke-linecap:butt;stroke-linejoin:miter;stroke:#000;stroke-opacity:1;stroke-miterlimit:10" d="M-.001 2.212h23.215" transform="matrix(1 0 0 -1 .962 6.735)"/><path style="stroke:none;fill-rule:nonzero;fill:#000;fill-opacity:1" d="M30.055 4.523a2.937 2.937 0 0 0-2.942-2.937 2.937 2.937 0 0 0-2.937 2.937Zm0 0"/><g clip-path="url(#a)"><path style="fill:none;stroke-width:1.59404;stroke-linecap:butt;stroke-linejoin:miter;stroke:#000;stroke-opacity:1;stroke-miterlimit:10" d="M6.677 0a2.937 2.937 0 0 1-2.942 2.937A2.937 2.937 0 0 1 .798 0Zm0 0" transform="matrix(1 0 0 -1 23.378 4.523)"/></g></svg>