<svg xmlns="http://www.w3.org/2000/svg" xmlns:xlink="http://www.w3.org/1999/xlink" width="149.091" height="865.635" viewBox="0 0 111.818 649.226" version="1.2"><defs><symbol overflow="visible" id="a"><path style="stroke:none" d="M4.531-3.078c0-1.235 0-3.344-2.062-3.344C.39-6.422.39-4.328.39-3.078.39-1.844.39.203 2.453.203c2.078 0 2.078-2.031 2.078-3.281Zm-1.218-.125c0 .515 0 1.219-.063 1.703-.016.234-.125 1.047-.797 1.047-.656 0-.765-.828-.781-1.063-.063-.468-.063-1.312-.063-1.687 0-.531 0-1.11.047-1.547.032-.234.125-1.031.797-1.031s.781.765.797.937c.063.453.063 1.172.063 1.64Zm0 0"/></symbol><symbol overflow="visible" id="b"><path style="stroke:none" d="M4.25-.328c0-.313-.344-.313-.438-.313h-.624v-5.343c0-.172 0-.438-.391-.438-.188 0-.219.016-.328.125-.156.14-.5.469-1.39.5-.157 0-.391.063-.391.313 0 .328.312.328.421.328.266 0 .579-.047.844-.125v4.64H1.25c-.11 0-.422 0-.422.313C.828 0 1.141 0 1.25 0h2.563c.093 0 .437 0 .437-.328Zm0 0"/></symbol><symbol overflow="visible" id="c"><path style="stroke:none" d="M4.438-.438V-.53c0-.156 0-.328-.188-.406-.078-.032-.36-.032-.531-.032l-.61.016H1.656l1.172-1.125c.14-.125.485-.39.61-.516.5-.484 1-.969 1-1.765 0-1.094-.797-2.063-2.11-2.063-.312 0-.828.047-1.265.39-.079.063-.485.391-.657.985l.453.578c.063.078.079.11.141.11.078 0 .11-.063.125-.172.188-.61.484-1 1.063-1 .703 0 .984.64.984 1.187 0 .578-.344 1.172-.875 1.75L.578-.766C.5-.672.5-.656.5-.5v.063C.5-.11.594 0 .922 0H4c.344 0 .438-.11.438-.438Zm0 0"/></symbol><symbol overflow="visible" id="d"><path style="stroke:none" d="M4.516-1.828c0-.797-.438-1.344-1.235-1.547.719-.406.969-.984.969-1.5 0-1.438-1.297-1.547-1.875-1.547-1.234 0-1.828.875-1.828.953 0 .047.062.125.062.125l.25.36c.079.109.141.109.141.109.063 0 .078-.031.125-.094.453-.656 1.094-.656 1.203-.656.578 0 .656.297.656.734 0 .125 0 .563-.28.907-.204.25-.438.265-.704.28-.094.017-.266.017-.297.032-.062.031-.062.078-.062.235v.156c0 .234.015.234.25.234h.39c.813 0 .906.516.906 1.203 0 .61-.062 1.203-.874 1.203-.282 0-.954-.062-1.547-.64C.687-1.36.672-1.36.64-1.36c-.094 0-.11.078-.125.093 0 0-.11.579-.11.625 0 .11.781.844 1.953.844 1.547 0 2.157-.828 2.157-2.031Zm0 0"/></symbol><symbol overflow="visible" id="e"><path style="stroke:none" d="M4.64-1.797c0-.328-.109-.422-.421-.422h-.375v-3.578c0-.312-.11-.422-.438-.422H2.75c-.172 0-.297 0-.406.203l-2 3.672C.28-2.219.28-2.188.28-2.03v.234c0 .281.063.422.422.422H2.72v.938c0 .296.078.437.437.437h.25c.344 0 .438-.11.438-.438v-.937h.375c.281 0 .422-.063.422-.422Zm-1.859-.422H1.203C2.641-4.859 2.72-5.125 2.766-5.28h.015Zm0 0"/></symbol><symbol overflow="visible" id="f"><path style="stroke:none" d="M4.438-1.984c0-1.188-.5-2.063-1.875-2.063-.22 0-.438.031-.657.125v-1.406h1.766c.422 0 .422-.203.422-.453 0-.235 0-.438-.422-.438h-2.5c-.281 0-.422.047-.422.407v2.75c0 .406.203.406.438.406.234 0 .312 0 .437-.219.219-.344.531-.531.906-.531.578 0 .578.687.578 1.39 0 .688 0 1.375-.937 1.375-.281 0-.89-.078-1.25-.796-.031-.047-.047-.11-.11-.11-.078 0-.093.047-.156.125-.125.203-.328.516-.328.578C.328-.766.922.203 2.203.203c1.438 0 2.235-.734 2.235-2.187Zm0 0"/></symbol><symbol overflow="visible" id="g"><path style="stroke:none" d="M4.516-2.11c0-.515 0-2.187-1.75-2.187-.5 0-.86.281-1.094.797.047-.813.047-1 .187-1.36.25-.687.844-.765 1.157-.765.171 0 .406.031.609.14.063.048.094.063.14.063.11 0 .11-.11.11-.234v-.328c0-.22 0-.235-.313-.344-.234-.094-.484-.094-.562-.094C.406-6.422.406-3.844.406-3.047c0 .922 0 3.25 2.094 3.25.688 0 1.125-.172 1.484-.594.47-.515.532-1.03.532-1.718ZM3.25-2.124c0 .875 0 1.484-.75 1.484-.719 0-.813-.812-.813-1.578 0-.75.22-1.437.844-1.437.719 0 .719.64.719 1.531Zm0 0"/></symbol><symbol overflow="visible" id="h"><path style="stroke:none" d="M4.516-5.781c0-.188 0-.438-.375-.438l-2.547-.015h-.578c-.422 0-.61 0-.61.437v.11c0 .14 0 .312.188.39.062.047.36.047.547.047l.64-.016h1.516C1.28-3.046 1.28-.796 1.28-.328c0 .281.063.422.438.422h.406c.14 0 .438 0 .438-.344.015-2.219.796-3.844 1.874-5.203.079-.094.079-.156.079-.328Zm0 0"/></symbol><symbol overflow="visible" id="i"><path style="stroke:none" d="M4.516-1.828c0-.813-.391-1.313-1.11-1.531.86-.282.969-.907.969-1.313 0-1.312-.844-1.75-1.906-1.75-.985 0-1.922.344-1.922 1.75 0 .469.156 1.047.969 1.313-.922.265-1.11.968-1.11 1.53 0 1.407.766 2.032 2.047 2.032 1.36 0 2.063-.672 2.063-2.031ZM3.234-4.656c0 .515-.015.968-.765.968s-.781-.437-.781-.968c0-.625.062-.969.765-.969.719 0 .781.328.781.969Zm.032 2.812c0 .672-.016 1.203-.797 1.203-.797 0-.813-.5-.813-1.203 0-.578 0-1.203.797-1.203.813 0 .813.61.813 1.203Zm0 0"/></symbol><symbol overflow="visible" id="j"><path style="stroke:none" d="M4.516-3.188c0-.968-.016-3.234-2.047-3.234-.563 0-1.156.094-1.61.672-.39.5-.453.938-.453 1.64 0 .563.031 1.063.406 1.579.36.469.782.61 1.344.61.672 0 .985-.532 1.094-.813 0 .078 0 .25-.016.64-.046.547-.218 1.453-1.203 1.453-.265 0-.531-.078-.781-.296-.047-.063-.063-.079-.11-.079-.077 0-.093.047-.14.125-.172.282-.297.485-.297.547 0 .063.469.547 1.344.547 2.469 0 2.469-2.594 2.469-3.39ZM3.25-3.984c0 .125 0 1.406-.86 1.406-.718 0-.718-.64-.718-1.531 0-.875 0-1.516.812-1.516.625 0 .766.688.766 1.64Zm0 0"/></symbol></defs><g style="fill:green;fill-opacity:1"><use xlink:href="#a" x=".549" y="7.015"/><use xlink:href="#b" x="5.481" y="7.015"/></g><use xlink:href="#b" x="91.719" y="7.015" style="fill:#000;fill-opacity:1"/><use xlink:href="#c" x="106.092" y="7.015" style="fill:gray;fill-opacity:1"/><use xlink:href="#d" x="19.854" y="19.335" style="fill:#000;fill-opacity:1"/><use xlink:href="#e" x="34.227" y="19.335" style="fill:#000;fill-opacity:1"/><use xlink:href="#f" x="48.6" y="19.335" style="fill:#000;fill-opacity:1"/><use xlink:href="#g" x="62.973" y="19.335" style="fill:#000;fill-opacity:1"/><use xlink:href="#h" x="77.346" y="19.335" style="fill:#000;fill-opacity:1"/><use xlink:href="#i" x="91.719" y="19.335" style="fill:#000;fill-opacity:1"/><use xlink:href="#j" x="106.092" y="19.335" style="fill:gray;fill-opacity:1"/><g style="fill:#000;fill-opacity:1"><use xlink:href="#b" x="14.923" y="31.655"/><use xlink:href="#a" x="19.855" y="31.655"/></g><g style="fill:#000;fill-opacity:1"><use xlink:href="#b" x="29.296" y="31.655"/><use xlink:href="#b" x="34.228" y="31.655"/></g><g style="fill:#000;fill-opacity:1"><use xlink:href="#b" x="43.669" y="31.655"/><use xlink:href="#c" x="48.601" y="31.655"/></g><g style="fill:#000;fill-opacity:1"><use xlink:href="#b" x="58.042" y="31.655"/><use xlink:href="#d" x="62.974" y="31.655"/></g><g style="fill:#000;fill-opacity:1"><use xlink:href="#b" x="72.415" y="31.655"/><use xlink:href="#e" x="77.347" y="31.655"/></g><g style="fill:#000;fill-opacity:1"><use xlink:href="#b" x="86.788" y="31.655"/><use xlink:href="#f" x="91.72" y="31.655"/></g><g style="fill:gray;fill-opacity:1"><use xlink:href="#b" x="101.161" y="31.655"/><use xlink:href="#g" x="106.093" y="31.655"/></g><g style="fill:#000;fill-opacity:1"><use xlink:href="#b" x="14.923" y="43.975"/><use xlink:href="#h" x="19.855" y="43.975"/></g><g style="fill:#000;fill-opacity:1"><use xlink:href="#b" x="29.296" y="43.975"/><use xlink:href="#i" x="34.228" y="43.975"/></g><g style="fill:#000;fill-opacity:1"><use xlink:href="#b" x="43.669" y="43.975"/><use xlink:href="#j" x="48.601" y="43.975"/></g><g style="fill:#000;fill-opacity:1"><use xlink:href="#c" x="58.042" y="43.975"/><use xlink:href="#a" x="62.974" y="43.975"/></g><g style="fill:#000;fill-opacity:1"><use xlink:href="#c" x="72.415" y="43.975"/><use xlink:href="#b" x="77.347" y="43.975"/></g><g style="fill:#000;fill-opacity:1"><use xlink:href="#c" x="86.788" y="43.975"/><use xlink:href="#c" x="91.72" y="43.975"/></g><g style="fill:gray;fill-opacity:1"><use xlink:href="#c" x="101.161" y="43.975"/><use xlink:href="#d" x="106.093" y="43.975"/></g><g style="fill:#000;fill-opacity:1"><use xlink:href="#c" x="14.923" y="56.295"/><use xlink:href="#e" x="19.855" y="56.295"/></g><g style="fill:#000;fill-opacity:1"><use xlink:href="#c" x="29.296" y="56.295"/><use xlink:href="#f" x="34.228" y="56.295"/></g><g style="fill:#000;fill-opacity:1"><use xlink:href="#c" x="43.669" y="56.295"/><use xlink:href="#g" x="48.601" y="56.295"/></g><g style="fill:#000;fill-opacity:1"><use xlink:href="#c" x="58.042" y="56.295"/><use xlink:href="#h" x="62.974" y="56.295"/></g><g style="fill:#000;fill-opacity:1"><use xlink:href="#c" x="72.415" y="56.295"/><use xlink:href="#i" x="77.347" y="56.295"/></g><g style="fill:#000;fill-opacity:1"><use xlink:href="#c" x="86.788" y="56.295"/><use xlink:href="#j" x="91.72" y="56.295"/></g><g style="fill:gray;fill-opacity:1"><use xlink:href="#d" x="101.161" y="56.295"/><use xlink:href="#a" x="106.093" y="56.295"/></g><g style="fill:#000;fill-opacity:1"><use xlink:href="#d" x="14.923" y="68.614"/><use xlink:href="#b" x="19.855" y="68.614"/></g><g style="fill:green;fill-opacity:1"><use xlink:href="#a" x=".549" y="68.614"/><use xlink:href="#c" x="5.481" y="68.614"/></g><use xlink:href="#b" x="34.227" y="68.614" style="fill:#000;fill-opacity:1"/><use xlink:href="#c" x="48.6" y="68.614" style="fill:#000;fill-opacity:1"/><use xlink:href="#d" x="62.973" y="68.614" style="fill:#000;fill-opacity:1"/><use xlink:href="#e" x="77.346" y="68.614" style="fill:#000;fill-opacity:1"/><use xlink:href="#f" x="91.719" y="68.614" style="fill:#000;fill-opacity:1"/><use xlink:href="#g" x="106.092" y="68.614" style="fill:gray;fill-opacity:1"/><use xlink:href="#h" x="19.854" y="80.934" style="fill:#000;fill-opacity:1"/><use xlink:href="#i" x="34.227" y="80.934" style="fill:#000;fill-opacity:1"/><use xlink:href="#j" x="48.6" y="80.934" style="fill:#000;fill-opacity:1"/><g style="fill:#000;fill-opacity:1"><use xlink:href="#b" x="58.042" y="80.934"/><use xlink:href="#a" x="62.974" y="80.934"/></g><g style="fill:#000;fill-opacity:1"><use xlink:href="#b" x="72.415" y="80.934"/><use xlink:href="#b" x="77.347" y="80.934"/></g><g style="fill:#000;fill-opacity:1"><use xlink:href="#b" x="86.788" y="80.934"/><use xlink:href="#c" x="91.72" y="80.934"/></g><g style="fill:gray;fill-opacity:1"><use xlink:href="#b" x="101.161" y="80.934"/><use xlink:href="#d" x="106.093" y="80.934"/></g><g style="fill:#000;fill-opacity:1"><use xlink:href="#b" x="14.923" y="93.254"/><use xlink:href="#e" x="19.855" y="93.254"/></g><g style="fill:#000;fill-opacity:1"><use xlink:href="#b" x="29.296" y="93.254"/><use xlink:href="#f" x="34.228" y="93.254"/></g><g style="fill:#000;fill-opacity:1"><use xlink:href="#b" x="43.669" y="93.254"/><use xlink:href="#g" x="48.601" y="93.254"/></g><g style="fill:#000;fill-opacity:1"><use xlink:href="#b" x="58.042" y="93.254"/><use xlink:href="#h" x="62.974" y="93.254"/></g><g style="fill:#000;fill-opacity:1"><use xlink:href="#b" x="72.415" y="93.254"/><use xlink:href="#i" x="77.347" y="93.254"/></g><g style="fill:#000;fill-opacity:1"><use xlink:href="#b" x="86.788" y="93.254"/><use xlink:href="#j" x="91.72" y="93.254"/></g><g style="fill:gray;fill-opacity:1"><use xlink:href="#c" x="101.161" y="93.254"/><use xlink:href="#a" x="106.093" y="93.254"/></g><g style="fill:#000;fill-opacity:1"><use xlink:href="#c" x="14.923" y="105.574"/><use xlink:href="#b" x="19.855" y="105.574"/></g><g style="fill:#000;fill-opacity:1"><use xlink:href="#c" x="29.296" y="105.574"/><use xlink:href="#c" x="34.228" y="105.574"/></g><g style="fill:#000;fill-opacity:1"><use xlink:href="#c" x="43.669" y="105.574"/><use xlink:href="#d" x="48.601" y="105.574"/></g><g style="fill:#000;fill-opacity:1"><use xlink:href="#c" x="58.042" y="105.574"/><use xlink:href="#e" x="62.974" y="105.574"/></g><g style="fill:#000;fill-opacity:1"><use xlink:href="#c" x="72.415" y="105.574"/><use xlink:href="#f" x="77.347" y="105.574"/></g><g style="fill:#000;fill-opacity:1"><use xlink:href="#c" x="86.788" y="105.574"/><use xlink:href="#g" x="91.72" y="105.574"/></g><g style="fill:gray;fill-opacity:1"><use xlink:href="#c" x="101.161" y="105.574"/><use xlink:href="#h" x="106.093" y="105.574"/></g><g style="fill:#000;fill-opacity:1"><use xlink:href="#c" x="14.923" y="117.893"/><use xlink:href="#i" x="19.855" y="117.893"/></g><g style="fill:green;fill-opacity:1"><use xlink:href="#a" x=".549" y="117.893"/><use xlink:href="#d" x="5.481" y="117.893"/></g><use xlink:href="#b" x="34.227" y="117.893" style="fill:#000;fill-opacity:1"/><use xlink:href="#c" x="48.6" y="117.893" style="fill:#000;fill-opacity:1"/><use xlink:href="#d" x="62.973" y="117.893" style="fill:#000;fill-opacity:1"/><use xlink:href="#e" x="77.346" y="117.893" style="fill:#000;fill-opacity:1"/><use xlink:href="#f" x="91.719" y="117.893" style="fill:#000;fill-opacity:1"/><use xlink:href="#g" x="106.092" y="117.893" style="fill:gray;fill-opacity:1"/><use xlink:href="#h" x="19.854" y="130.213" style="fill:#000;fill-opacity:1"/><use xlink:href="#i" x="34.227" y="130.213" style="fill:#000;fill-opacity:1"/><use xlink:href="#j" x="48.6" y="130.213" style="fill:#000;fill-opacity:1"/><g style="fill:#000;fill-opacity:1"><use xlink:href="#b" x="58.042" y="130.213"/><use xlink:href="#a" x="62.974" y="130.213"/></g><g style="fill:#000;fill-opacity:1"><use xlink:href="#b" x="72.415" y="130.213"/><use xlink:href="#b" x="77.347" y="130.213"/></g><g style="fill:#000;fill-opacity:1"><use xlink:href="#b" x="86.788" y="130.213"/><use xlink:href="#c" x="91.72" y="130.213"/></g><g style="fill:gray;fill-opacity:1"><use xlink:href="#b" x="101.161" y="130.213"/><use xlink:href="#d" x="106.093" y="130.213"/></g><g style="fill:#000;fill-opacity:1"><use xlink:href="#b" x="14.923" y="142.533"/><use xlink:href="#e" x="19.855" y="142.533"/></g><g style="fill:#000;fill-opacity:1"><use xlink:href="#b" x="29.296" y="142.533"/><use xlink:href="#f" x="34.228" y="142.533"/></g><g style="fill:#000;fill-opacity:1"><use xlink:href="#b" x="43.669" y="142.533"/><use xlink:href="#g" x="48.601" y="142.533"/></g><g style="fill:#000;fill-opacity:1"><use xlink:href="#b" x="58.042" y="142.533"/><use xlink:href="#h" x="62.974" y="142.533"/></g><g style="fill:#000;fill-opacity:1"><use xlink:href="#b" x="72.415" y="142.533"/><use xlink:href="#i" x="77.347" y="142.533"/></g><g style="fill:#000;fill-opacity:1"><use xlink:href="#b" x="86.788" y="142.533"/><use xlink:href="#j" x="91.72" y="142.533"/></g><g style="fill:gray;fill-opacity:1"><use xlink:href="#c" x="101.161" y="142.533"/><use xlink:href="#a" x="106.093" y="142.533"/></g><g style="fill:#000;fill-opacity:1"><use xlink:href="#c" x="14.923" y="154.853"/><use xlink:href="#b" x="19.855" y="154.853"/></g><g style="fill:#000;fill-opacity:1"><use xlink:href="#c" x="29.296" y="154.853"/><use xlink:href="#c" x="34.228" y="154.853"/></g><g style="fill:#000;fill-opacity:1"><use xlink:href="#c" x="43.669" y="154.853"/><use xlink:href="#d" x="48.601" y="154.853"/></g><g style="fill:#000;fill-opacity:1"><use xlink:href="#c" x="58.042" y="154.853"/><use xlink:href="#e" x="62.974" y="154.853"/></g><g style="fill:#000;fill-opacity:1"><use xlink:href="#c" x="72.415" y="154.853"/><use xlink:href="#f" x="77.347" y="154.853"/></g><g style="fill:#000;fill-opacity:1"><use xlink:href="#c" x="86.788" y="154.853"/><use xlink:href="#g" x="91.72" y="154.853"/></g><g style="fill:gray;fill-opacity:1"><use xlink:href="#c" x="101.161" y="154.853"/><use xlink:href="#h" x="106.093" y="154.853"/></g><g style="fill:#000;fill-opacity:1"><use xlink:href="#c" x="14.923" y="167.173"/><use xlink:href="#i" x="19.855" y="167.173"/></g><g style="fill:#000;fill-opacity:1"><use xlink:href="#c" x="29.296" y="167.173"/><use xlink:href="#j" x="34.228" y="167.173"/></g><g style="fill:#000;fill-opacity:1"><use xlink:href="#d" x="43.669" y="167.173"/><use xlink:href="#a" x="48.601" y="167.173"/></g><g style="fill:#000;fill-opacity:1"><use xlink:href="#d" x="58.042" y="167.173"/><use xlink:href="#b" x="62.974" y="167.173"/></g><g style="fill:green;fill-opacity:1"><use xlink:href="#a" x=".549" y="167.173"/><use xlink:href="#e" x="5.481" y="167.173"/></g><use xlink:href="#b" x="77.346" y="167.173" style="fill:#000;fill-opacity:1"/><use xlink:href="#c" x="91.719" y="167.173" style="fill:#000;fill-opacity:1"/><use xlink:href="#d" x="106.092" y="167.173" style="fill:gray;fill-opacity:1"/><use xlink:href="#e" x="19.854" y="179.492" style="fill:#000;fill-opacity:1"/><use xlink:href="#f" x="34.227" y="179.492" style="fill:#000;fill-opacity:1"/><use xlink:href="#g" x="48.6" y="179.492" style="fill:#000;fill-opacity:1"/><use xlink:href="#h" x="62.973" y="179.492" style="fill:#000;fill-opacity:1"/><use xlink:href="#i" x="77.346" y="179.492" style="fill:#000;fill-opacity:1"/><use xlink:href="#j" x="91.719" y="179.492" style="fill:#000;fill-opacity:1"/><g style="fill:gray;fill-opacity:1"><use xlink:href="#b" x="101.161" y="179.492"/><use xlink:href="#a" x="106.093" y="179.492"/></g><g style="fill:#000;fill-opacity:1"><use xlink:href="#b" x="14.923" y="191.812"/><use xlink:href="#b" x="19.855" y="191.812"/></g><g style="fill:#000;fill-opacity:1"><use xlink:href="#b" x="29.296" y="191.812"/><use xlink:href="#c" x="34.228" y="191.812"/></g><g style="fill:#000;fill-opacity:1"><use xlink:href="#b" x="43.669" y="191.812"/><use xlink:href="#d" x="48.601" y="191.812"/></g><g style="fill:#000;fill-opacity:1"><use xlink:href="#b" x="58.042" y="191.812"/><use xlink:href="#e" x="62.974" y="191.812"/></g><g style="fill:#000;fill-opacity:1"><use xlink:href="#b" x="72.415" y="191.812"/><use xlink:href="#f" x="77.347" y="191.812"/></g><g style="fill:#000;fill-opacity:1"><use xlink:href="#b" x="86.788" y="191.812"/><use xlink:href="#g" x="91.72" y="191.812"/></g><g style="fill:gray;fill-opacity:1"><use xlink:href="#b" x="101.161" y="191.812"/><use xlink:href="#h" x="106.093" y="191.812"/></g><g style="fill:#000;fill-opacity:1"><use xlink:href="#b" x="14.923" y="204.132"/><use xlink:href="#i" x="19.855" y="204.132"/></g><g style="fill:#000;fill-opacity:1"><use xlink:href="#b" x="29.296" y="204.132"/><use xlink:href="#j" x="34.228" y="204.132"/></g><g style="fill:#000;fill-opacity:1"><use xlink:href="#c" x="43.669" y="204.132"/><use xlink:href="#a" x="48.601" y="204.132"/></g><g style="fill:#000;fill-opacity:1"><use xlink:href="#c" x="58.042" y="204.132"/><use xlink:href="#b" x="62.974" y="204.132"/></g><g style="fill:#000;fill-opacity:1"><use xlink:href="#c" x="72.415" y="204.132"/><use xlink:href="#c" x="77.347" y="204.132"/></g><g style="fill:#000;fill-opacity:1"><use xlink:href="#c" x="86.788" y="204.132"/><use xlink:href="#d" x="91.72" y="204.132"/></g><g style="fill:gray;fill-opacity:1"><use xlink:href="#c" x="101.161" y="204.132"/><use xlink:href="#e" x="106.093" y="204.132"/></g><g style="fill:#000;fill-opacity:1"><use xlink:href="#c" x="14.923" y="216.452"/><use xlink:href="#f" x="19.855" y="216.452"/></g><g style="fill:#000;fill-opacity:1"><use xlink:href="#c" x="29.296" y="216.452"/><use xlink:href="#g" x="34.228" y="216.452"/></g><g style="fill:#000;fill-opacity:1"><use xlink:href="#c" x="43.669" y="216.452"/><use xlink:href="#h" x="48.601" y="216.452"/></g><g style="fill:#000;fill-opacity:1"><use xlink:href="#c" x="58.042" y="216.452"/><use xlink:href="#i" x="62.974" y="216.452"/></g><g style="fill:#000;fill-opacity:1"><use xlink:href="#c" x="72.415" y="216.452"/><use xlink:href="#j" x="77.347" y="216.452"/></g><g style="fill:#000;fill-opacity:1"><use xlink:href="#d" x="86.788" y="216.452"/><use xlink:href="#a" x="91.72" y="216.452"/></g><g style="fill:green;fill-opacity:1"><use xlink:href="#a" x=".549" y="216.452"/><use xlink:href="#f" x="5.481" y="216.452"/></g><use xlink:href="#b" x="106.092" y="216.452" style="fill:gray;fill-opacity:1"/><use xlink:href="#c" x="19.854" y="228.771" style="fill:#000;fill-opacity:1"/><use xlink:href="#d" x="34.227" y="228.771" style="fill:#000;fill-opacity:1"/><use xlink:href="#e" x="48.6" y="228.771" style="fill:#000;fill-opacity:1"/><use xlink:href="#f" x="62.973" y="228.771" style="fill:#000;fill-opacity:1"/><use xlink:href="#g" x="77.346" y="228.771" style="fill:#000;fill-opacity:1"/><use xlink:href="#h" x="91.719" y="228.771" style="fill:#000;fill-opacity:1"/><use xlink:href="#i" x="106.092" y="228.771" style="fill:gray;fill-opacity:1"/><use xlink:href="#j" x="19.854" y="241.091" style="fill:#000;fill-opacity:1"/><g style="fill:#000;fill-opacity:1"><use xlink:href="#b" x="29.296" y="241.091"/><use xlink:href="#a" x="34.228" y="241.091"/></g><g style="fill:#000;fill-opacity:1"><use xlink:href="#b" x="43.669" y="241.091"/><use xlink:href="#b" x="48.601" y="241.091"/></g><g style="fill:#000;fill-opacity:1"><use xlink:href="#b" x="58.042" y="241.091"/><use xlink:href="#c" x="62.974" y="241.091"/></g><g style="fill:#000;fill-opacity:1"><use xlink:href="#b" x="72.415" y="241.091"/><use xlink:href="#d" x="77.347" y="241.091"/></g><g style="fill:#000;fill-opacity:1"><use xlink:href="#b" x="86.788" y="241.091"/><use xlink:href="#e" x="91.72" y="241.091"/></g><g style="fill:gray;fill-opacity:1"><use xlink:href="#b" x="101.161" y="241.091"/><use xlink:href="#f" x="106.093" y="241.091"/></g><g style="fill:#000;fill-opacity:1"><use xlink:href="#b" x="14.923" y="253.411"/><use xlink:href="#g" x="19.855" y="253.411"/></g><g style="fill:#000;fill-opacity:1"><use xlink:href="#b" x="29.296" y="253.411"/><use xlink:href="#h" x="34.228" y="253.411"/></g><g style="fill:#000;fill-opacity:1"><use xlink:href="#b" x="43.669" y="253.411"/><use xlink:href="#i" x="48.601" y="253.411"/></g><g style="fill:#000;fill-opacity:1"><use xlink:href="#b" x="58.042" y="253.411"/><use xlink:href="#j" x="62.974" y="253.411"/></g><g style="fill:#000;fill-opacity:1"><use xlink:href="#c" x="72.415" y="253.411"/><use xlink:href="#a" x="77.347" y="253.411"/></g><g style="fill:#000;fill-opacity:1"><use xlink:href="#c" x="86.788" y="253.411"/><use xlink:href="#b" x="91.72" y="253.411"/></g><g style="fill:gray;fill-opacity:1"><use xlink:href="#c" x="101.161" y="253.411"/><use xlink:href="#c" x="106.093" y="253.411"/></g><g style="fill:#000;fill-opacity:1"><use xlink:href="#c" x="14.923" y="265.731"/><use xlink:href="#d" x="19.855" y="265.731"/></g><g style="fill:#000;fill-opacity:1"><use xlink:href="#c" x="29.296" y="265.731"/><use xlink:href="#e" x="34.228" y="265.731"/></g><g style="fill:#000;fill-opacity:1"><use xlink:href="#c" x="43.669" y="265.731"/><use xlink:href="#f" x="48.601" y="265.731"/></g><g style="fill:#000;fill-opacity:1"><use xlink:href="#c" x="58.042" y="265.731"/><use xlink:href="#g" x="62.974" y="265.731"/></g><g style="fill:#000;fill-opacity:1"><use xlink:href="#c" x="72.415" y="265.731"/><use xlink:href="#h" x="77.347" y="265.731"/></g><g style="fill:#000;fill-opacity:1"><use xlink:href="#c" x="86.788" y="265.731"/><use xlink:href="#i" x="91.72" y="265.731"/></g><g style="fill:gray;fill-opacity:1"><use xlink:href="#c" x="101.161" y="265.731"/><use xlink:href="#j" x="106.093" y="265.731"/></g><g style="fill:#000;fill-opacity:1"><use xlink:href="#d" x="14.923" y="278.051"/><use xlink:href="#a" x="19.855" y="278.051"/></g><g style="fill:#000;fill-opacity:1"><use xlink:href="#d" x="29.296" y="278.051"/><use xlink:href="#b" x="34.228" y="278.051"/></g><g style="fill:green;fill-opacity:1"><use xlink:href="#a" x=".549" y="278.051"/><use xlink:href="#g" x="5.481" y="278.051"/></g><use xlink:href="#b" x="48.6" y="278.051" style="fill:#000;fill-opacity:1"/><use xlink:href="#c" x="62.973" y="278.051" style="fill:#000;fill-opacity:1"/><use xlink:href="#d" x="77.346" y="278.051" style="fill:#000;fill-opacity:1"/><use xlink:href="#e" x="91.719" y="278.051" style="fill:#000;fill-opacity:1"/><use xlink:href="#f" x="106.092" y="278.051" style="fill:gray;fill-opacity:1"/><use xlink:href="#g" x="19.854" y="290.37" style="fill:#000;fill-opacity:1"/><use xlink:href="#h" x="34.227" y="290.37" style="fill:#000;fill-opacity:1"/><use xlink:href="#i" x="48.6" y="290.37" style="fill:#000;fill-opacity:1"/><use xlink:href="#j" x="62.973" y="290.37" style="fill:#000;fill-opacity:1"/><g style="fill:#000;fill-opacity:1"><use xlink:href="#b" x="72.415" y="290.37"/><use xlink:href="#a" x="77.347" y="290.37"/></g><g style="fill:#000;fill-opacity:1"><use xlink:href="#b" x="86.788" y="290.37"/><use xlink:href="#b" x="91.72" y="290.37"/></g><g style="fill:gray;fill-opacity:1"><use xlink:href="#b" x="101.161" y="290.37"/><use xlink:href="#c" x="106.093" y="290.37"/></g><g style="fill:#000;fill-opacity:1"><use xlink:href="#b" x="14.923" y="302.69"/><use xlink:href="#d" x="19.855" y="302.69"/></g><g style="fill:#000;fill-opacity:1"><use xlink:href="#b" x="29.296" y="302.69"/><use xlink:href="#e" x="34.228" y="302.69"/></g><g style="fill:#000;fill-opacity:1"><use xlink:href="#b" x="43.669" y="302.69"/><use xlink:href="#f" x="48.601" y="302.69"/></g><g style="fill:#000;fill-opacity:1"><use xlink:href="#b" x="58.042" y="302.69"/><use xlink:href="#g" x="62.974" y="302.69"/></g><g style="fill:#000;fill-opacity:1"><use xlink:href="#b" x="72.415" y="302.69"/><use xlink:href="#h" x="77.347" y="302.69"/></g><g style="fill:#000;fill-opacity:1"><use xlink:href="#b" x="86.788" y="302.69"/><use xlink:href="#i" x="91.72" y="302.69"/></g><g style="fill:gray;fill-opacity:1"><use xlink:href="#b" x="101.161" y="302.69"/><use xlink:href="#j" x="106.093" y="302.69"/></g><g style="fill:#000;fill-opacity:1"><use xlink:href="#c" x="14.923" y="315.01"/><use xlink:href="#a" x="19.855" y="315.01"/></g><g style="fill:#000;fill-opacity:1"><use xlink:href="#c" x="29.296" y="315.01"/><use xlink:href="#b" x="34.228" y="315.01"/></g><g style="fill:#000;fill-opacity:1"><use xlink:href="#c" x="43.669" y="315.01"/><use xlink:href="#c" x="48.601" y="315.01"/></g><g style="fill:#000;fill-opacity:1"><use xlink:href="#c" x="58.042" y="315.01"/><use xlink:href="#d" x="62.974" y="315.01"/></g><g style="fill:#000;fill-opacity:1"><use xlink:href="#c" x="72.415" y="315.01"/><use xlink:href="#e" x="77.347" y="315.01"/></g><g style="fill:#000;fill-opacity:1"><use xlink:href="#c" x="86.788" y="315.01"/><use xlink:href="#f" x="91.72" y="315.01"/></g><g style="fill:gray;fill-opacity:1"><use xlink:href="#c" x="101.161" y="315.01"/><use xlink:href="#g" x="106.093" y="315.01"/></g><g style="fill:#000;fill-opacity:1"><use xlink:href="#c" x="14.923" y="327.33"/><use xlink:href="#h" x="19.855" y="327.33"/></g><g style="fill:#000;fill-opacity:1"><use xlink:href="#c" x="29.296" y="327.33"/><use xlink:href="#i" x="34.228" y="327.33"/></g><g style="fill:#000;fill-opacity:1"><use xlink:href="#c" x="43.669" y="327.33"/><use xlink:href="#j" x="48.601" y="327.33"/></g><g style="fill:#000;fill-opacity:1"><use xlink:href="#d" x="58.042" y="327.33"/><use xlink:href="#a" x="62.974" y="327.33"/></g><g style="fill:green;fill-opacity:1"><use xlink:href="#a" x=".549" y="327.33"/><use xlink:href="#h" x="5.481" y="327.33"/></g><use xlink:href="#b" x="77.346" y="327.33" style="fill:#000;fill-opacity:1"/><use xlink:href="#c" x="91.719" y="327.33" style="fill:#000;fill-opacity:1"/><use xlink:href="#d" x="106.092" y="327.33" style="fill:gray;fill-opacity:1"/><use xlink:href="#e" x="19.854" y="339.65" style="fill:#000;fill-opacity:1"/><use xlink:href="#f" x="34.227" y="339.65" style="fill:#000;fill-opacity:1"/><use xlink:href="#g" x="48.6" y="339.65" style="fill:#000;fill-opacity:1"/><use xlink:href="#h" x="62.973" y="339.65" style="fill:#000;fill-opacity:1"/><use xlink:href="#i" x="77.346" y="339.65" style="fill:#000;fill-opacity:1"/><use xlink:href="#j" x="91.719" y="339.65" style="fill:#000;fill-opacity:1"/><g style="fill:gray;fill-opacity:1"><use xlink:href="#b" x="101.161" y="339.65"/><use xlink:href="#a" x="106.093" y="339.65"/></g><g style="fill:#000;fill-opacity:1"><use xlink:href="#b" x="14.923" y="351.969"/><use xlink:href="#b" x="19.855" y="351.969"/></g><g style="fill:#000;fill-opacity:1"><use xlink:href="#b" x="29.296" y="351.969"/><use xlink:href="#c" x="34.228" y="351.969"/></g><g style="fill:#000;fill-opacity:1"><use xlink:href="#b" x="43.669" y="351.969"/><use xlink:href="#d" x="48.601" y="351.969"/></g><g style="fill:#000;fill-opacity:1"><use xlink:href="#b" x="58.042" y="351.969"/><use xlink:href="#e" x="62.974" y="351.969"/></g><g style="fill:#000;fill-opacity:1"><use xlink:href="#b" x="72.415" y="351.969"/><use xlink:href="#f" x="77.347" y="351.969"/></g><g style="fill:#000;fill-opacity:1"><use xlink:href="#b" x="86.788" y="351.969"/><use xlink:href="#g" x="91.72" y="351.969"/></g><g style="fill:gray;fill-opacity:1"><use xlink:href="#b" x="101.161" y="351.969"/><use xlink:href="#h" x="106.093" y="351.969"/></g><g style="fill:#000;fill-opacity:1"><use xlink:href="#b" x="14.923" y="364.289"/><use xlink:href="#i" x="19.855" y="364.289"/></g><g style="fill:#000;fill-opacity:1"><use xlink:href="#b" x="29.296" y="364.289"/><use xlink:href="#j" x="34.228" y="364.289"/></g><g style="fill:#000;fill-opacity:1"><use xlink:href="#c" x="43.669" y="364.289"/><use xlink:href="#a" x="48.601" y="364.289"/></g><g style="fill:#000;fill-opacity:1"><use xlink:href="#c" x="58.042" y="364.289"/><use xlink:href="#b" x="62.974" y="364.289"/></g><g style="fill:#000;fill-opacity:1"><use xlink:href="#c" x="72.415" y="364.289"/><use xlink:href="#c" x="77.347" y="364.289"/></g><g style="fill:#000;fill-opacity:1"><use xlink:href="#c" x="86.788" y="364.289"/><use xlink:href="#d" x="91.72" y="364.289"/></g><g style="fill:gray;fill-opacity:1"><use xlink:href="#c" x="101.161" y="364.289"/><use xlink:href="#e" x="106.093" y="364.289"/></g><g style="fill:#000;fill-opacity:1"><use xlink:href="#c" x="14.923" y="376.609"/><use xlink:href="#f" x="19.855" y="376.609"/></g><g style="fill:#000;fill-opacity:1"><use xlink:href="#c" x="29.296" y="376.609"/><use xlink:href="#g" x="34.228" y="376.609"/></g><g style="fill:#000;fill-opacity:1"><use xlink:href="#c" x="43.669" y="376.609"/><use xlink:href="#h" x="48.601" y="376.609"/></g><g style="fill:#000;fill-opacity:1"><use xlink:href="#c" x="58.042" y="376.609"/><use xlink:href="#i" x="62.974" y="376.609"/></g><g style="fill:#000;fill-opacity:1"><use xlink:href="#c" x="72.415" y="376.609"/><use xlink:href="#j" x="77.347" y="376.609"/></g><g style="fill:#000;fill-opacity:1"><use xlink:href="#d" x="86.788" y="376.609"/><use xlink:href="#a" x="91.72" y="376.609"/></g><g style="fill:gray;fill-opacity:1"><use xlink:href="#d" x="101.161" y="376.609"/><use xlink:href="#b" x="106.093" y="376.609"/></g><g style="fill:green;fill-opacity:1"><use xlink:href="#a" x=".549" y="388.929"/><use xlink:href="#i" x="5.481" y="388.929"/></g><use xlink:href="#b" x="19.854" y="388.929" style="fill:#000;fill-opacity:1"/><use xlink:href="#c" x="34.227" y="388.929" style="fill:#000;fill-opacity:1"/><use xlink:href="#d" x="48.6" y="388.929" style="fill:#000;fill-opacity:1"/><use xlink:href="#e" x="62.973" y="388.929" style="fill:#000;fill-opacity:1"/><use xlink:href="#f" x="77.346" y="388.929" style="fill:#000;fill-opacity:1"/><use xlink:href="#g" x="91.719" y="388.929" style="fill:#000;fill-opacity:1"/><use xlink:href="#h" x="106.092" y="388.929" style="fill:gray;fill-opacity:1"/><use xlink:href="#i" x="19.854" y="401.248" style="fill:#000;fill-opacity:1"/><use xlink:href="#j" x="34.227" y="401.248" style="fill:#000;fill-opacity:1"/><g style="fill:#000;fill-opacity:1"><use xlink:href="#b" x="43.669" y="401.248"/><use xlink:href="#a" x="48.601" y="401.248"/></g><g style="fill:#000;fill-opacity:1"><use xlink:href="#b" x="58.042" y="401.248"/><use xlink:href="#b" x="62.974" y="401.248"/></g><g style="fill:#000;fill-opacity:1"><use xlink:href="#b" x="72.415" y="401.248"/><use xlink:href="#c" x="77.347" y="401.248"/></g><g style="fill:#000;fill-opacity:1"><use xlink:href="#b" x="86.788" y="401.248"/><use xlink:href="#d" x="91.72" y="401.248"/></g><g style="fill:gray;fill-opacity:1"><use xlink:href="#b" x="101.161" y="401.248"/><use xlink:href="#e" x="106.093" y="401.248"/></g><g style="fill:#000;fill-opacity:1"><use xlink:href="#b" x="14.923" y="413.568"/><use xlink:href="#f" x="19.855" y="413.568"/></g><g style="fill:#000;fill-opacity:1"><use xlink:href="#b" x="29.296" y="413.568"/><use xlink:href="#g" x="34.228" y="413.568"/></g><g style="fill:#000;fill-opacity:1"><use xlink:href="#b" x="43.669" y="413.568"/><use xlink:href="#h" x="48.601" y="413.568"/></g><g style="fill:#000;fill-opacity:1"><use xlink:href="#b" x="58.042" y="413.568"/><use xlink:href="#i" x="62.974" y="413.568"/></g><g style="fill:#000;fill-opacity:1"><use xlink:href="#b" x="72.415" y="413.568"/><use xlink:href="#j" x="77.347" y="413.568"/></g><g style="fill:#000;fill-opacity:1"><use xlink:href="#c" x="86.788" y="413.568"/><use xlink:href="#a" x="91.72" y="413.568"/></g><g style="fill:gray;fill-opacity:1"><use xlink:href="#c" x="101.161" y="413.568"/><use xlink:href="#b" x="106.093" y="413.568"/></g><g style="fill:#000;fill-opacity:1"><use xlink:href="#c" x="14.923" y="425.888"/><use xlink:href="#c" x="19.855" y="425.888"/></g><g style="fill:#000;fill-opacity:1"><use xlink:href="#c" x="29.296" y="425.888"/><use xlink:href="#d" x="34.228" y="425.888"/></g><g style="fill:#000;fill-opacity:1"><use xlink:href="#c" x="43.669" y="425.888"/><use xlink:href="#e" x="48.601" y="425.888"/></g><g style="fill:#000;fill-opacity:1"><use xlink:href="#c" x="58.042" y="425.888"/><use xlink:href="#f" x="62.974" y="425.888"/></g><g style="fill:#000;fill-opacity:1"><use xlink:href="#c" x="72.415" y="425.888"/><use xlink:href="#g" x="77.347" y="425.888"/></g><g style="fill:#000;fill-opacity:1"><use xlink:href="#c" x="86.788" y="425.888"/><use xlink:href="#h" x="91.72" y="425.888"/></g><g style="fill:gray;fill-opacity:1"><use xlink:href="#c" x="101.161" y="425.888"/><use xlink:href="#i" x="106.093" y="425.888"/></g><g style="fill:#000;fill-opacity:1"><use xlink:href="#c" x="14.923" y="438.208"/><use xlink:href="#j" x="19.855" y="438.208"/></g><g style="fill:#000;fill-opacity:1"><use xlink:href="#d" x="29.296" y="438.208"/><use xlink:href="#a" x="34.228" y="438.208"/></g><g style="fill:#000;fill-opacity:1"><use xlink:href="#d" x="43.669" y="438.208"/><use xlink:href="#b" x="48.601" y="438.208"/></g><g style="fill:green;fill-opacity:1"><use xlink:href="#a" x=".549" y="438.208"/><use xlink:href="#j" x="5.481" y="438.208"/></g><use xlink:href="#b" x="62.973" y="438.208" style="fill:#000;fill-opacity:1"/><use xlink:href="#c" x="77.346" y="438.208" style="fill:#000;fill-opacity:1"/><use xlink:href="#d" x="91.719" y="438.208" style="fill:#000;fill-opacity:1"/><use xlink:href="#e" x="106.092" y="438.208" style="fill:gray;fill-opacity:1"/><use xlink:href="#f" x="19.854" y="450.528" style="fill:#000;fill-opacity:1"/><use xlink:href="#g" x="34.227" y="450.528" style="fill:#000;fill-opacity:1"/><use xlink:href="#h" x="48.6" y="450.528" style="fill:#000;fill-opacity:1"/><use xlink:href="#i" x="62.973" y="450.528" style="fill:#000;fill-opacity:1"/><use xlink:href="#j" x="77.346" y="450.528" style="fill:#000;fill-opacity:1"/><g style="fill:#000;fill-opacity:1"><use xlink:href="#b" x="86.788" y="450.528"/><use xlink:href="#a" x="91.72" y="450.528"/></g><g style="fill:gray;fill-opacity:1"><use xlink:href="#b" x="101.161" y="450.528"/><use xlink:href="#b" x="106.093" y="450.528"/></g><g style="fill:#000;fill-opacity:1"><use xlink:href="#b" x="14.923" y="462.847"/><use xlink:href="#c" x="19.855" y="462.847"/></g><g style="fill:#000;fill-opacity:1"><use xlink:href="#b" x="29.296" y="462.847"/><use xlink:href="#d" x="34.228" y="462.847"/></g><g style="fill:#000;fill-opacity:1"><use xlink:href="#b" x="43.669" y="462.847"/><use xlink:href="#e" x="48.601" y="462.847"/></g><g style="fill:#000;fill-opacity:1"><use xlink:href="#b" x="58.042" y="462.847"/><use xlink:href="#f" x="62.974" y="462.847"/></g><g style="fill:#000;fill-opacity:1"><use xlink:href="#b" x="72.415" y="462.847"/><use xlink:href="#g" x="77.347" y="462.847"/></g><g style="fill:#000;fill-opacity:1"><use xlink:href="#b" x="86.788" y="462.847"/><use xlink:href="#h" x="91.72" y="462.847"/></g><g style="fill:gray;fill-opacity:1"><use xlink:href="#b" x="101.161" y="462.847"/><use xlink:href="#i" x="106.093" y="462.847"/></g><g style="fill:#000;fill-opacity:1"><use xlink:href="#b" x="14.923" y="475.167"/><use xlink:href="#j" x="19.855" y="475.167"/></g><g style="fill:#000;fill-opacity:1"><use xlink:href="#c" x="29.296" y="475.167"/><use xlink:href="#a" x="34.228" y="475.167"/></g><g style="fill:#000;fill-opacity:1"><use xlink:href="#c" x="43.669" y="475.167"/><use xlink:href="#b" x="48.601" y="475.167"/></g><g style="fill:#000;fill-opacity:1"><use xlink:href="#c" x="58.042" y="475.167"/><use xlink:href="#c" x="62.974" y="475.167"/></g><g style="fill:#000;fill-opacity:1"><use xlink:href="#c" x="72.415" y="475.167"/><use xlink:href="#d" x="77.347" y="475.167"/></g><g style="fill:#000;fill-opacity:1"><use xlink:href="#c" x="86.788" y="475.167"/><use xlink:href="#e" x="91.72" y="475.167"/></g><g style="fill:gray;fill-opacity:1"><use xlink:href="#c" x="101.161" y="475.167"/><use xlink:href="#f" x="106.093" y="475.167"/></g><g style="fill:#000;fill-opacity:1"><use xlink:href="#c" x="14.923" y="487.487"/><use xlink:href="#g" x="19.855" y="487.487"/></g><g style="fill:#000;fill-opacity:1"><use xlink:href="#c" x="29.296" y="487.487"/><use xlink:href="#h" x="34.228" y="487.487"/></g><g style="fill:#000;fill-opacity:1"><use xlink:href="#c" x="43.669" y="487.487"/><use xlink:href="#i" x="48.601" y="487.487"/></g><g style="fill:#000;fill-opacity:1"><use xlink:href="#c" x="58.042" y="487.487"/><use xlink:href="#j" x="62.974" y="487.487"/></g><g style="fill:#000;fill-opacity:1"><use xlink:href="#d" x="72.415" y="487.487"/><use xlink:href="#a" x="77.347" y="487.487"/></g><g style="fill:green;fill-opacity:1"><use xlink:href="#b" x=".549" y="487.487"/><use xlink:href="#a" x="5.481" y="487.487"/></g><use xlink:href="#b" x="91.719" y="487.487" style="fill:#000;fill-opacity:1"/><use xlink:href="#c" x="106.092" y="487.487" style="fill:gray;fill-opacity:1"/><use xlink:href="#d" x="19.854" y="499.807" style="fill:#000;fill-opacity:1"/><use xlink:href="#e" x="34.227" y="499.807" style="fill:#000;fill-opacity:1"/><use xlink:href="#f" x="48.6" y="499.807" style="fill:#000;fill-opacity:1"/><use xlink:href="#g" x="62.973" y="499.807" style="fill:#000;fill-opacity:1"/><use xlink:href="#h" x="77.346" y="499.807" style="fill:#000;fill-opacity:1"/><use xlink:href="#i" x="91.719" y="499.807" style="fill:#000;fill-opacity:1"/><use xlink:href="#j" x="106.092" y="499.807" style="fill:gray;fill-opacity:1"/><g style="fill:#000;fill-opacity:1"><use xlink:href="#b" x="14.923" y="512.126"/><use xlink:href="#a" x="19.855" y="512.126"/></g><g style="fill:#000;fill-opacity:1"><use xlink:href="#b" x="29.296" y="512.126"/><use xlink:href="#b" x="34.228" y="512.126"/></g><g style="fill:#000;fill-opacity:1"><use xlink:href="#b" x="43.669" y="512.126"/><use xlink:href="#c" x="48.601" y="512.126"/></g><g style="fill:#000;fill-opacity:1"><use xlink:href="#b" x="58.042" y="512.126"/><use xlink:href="#d" x="62.974" y="512.126"/></g><g style="fill:#000;fill-opacity:1"><use xlink:href="#b" x="72.415" y="512.126"/><use xlink:href="#e" x="77.347" y="512.126"/></g><g style="fill:#000;fill-opacity:1"><use xlink:href="#b" x="86.788" y="512.126"/><use xlink:href="#f" x="91.72" y="512.126"/></g><g style="fill:gray;fill-opacity:1"><use xlink:href="#b" x="101.161" y="512.126"/><use xlink:href="#g" x="106.093" y="512.126"/></g><g style="fill:#000;fill-opacity:1"><use xlink:href="#b" x="14.923" y="524.446"/><use xlink:href="#h" x="19.855" y="524.446"/></g><g style="fill:#000;fill-opacity:1"><use xlink:href="#b" x="29.296" y="524.446"/><use xlink:href="#i" x="34.228" y="524.446"/></g><g style="fill:#000;fill-opacity:1"><use xlink:href="#b" x="43.669" y="524.446"/><use xlink:href="#j" x="48.601" y="524.446"/></g><g style="fill:#000;fill-opacity:1"><use xlink:href="#c" x="58.042" y="524.446"/><use xlink:href="#a" x="62.974" y="524.446"/></g><g style="fill:#000;fill-opacity:1"><use xlink:href="#c" x="72.415" y="524.446"/><use xlink:href="#b" x="77.347" y="524.446"/></g><g style="fill:#000;fill-opacity:1"><use xlink:href="#c" x="86.788" y="524.446"/><use xlink:href="#c" x="91.72" y="524.446"/></g><g style="fill:gray;fill-opacity:1"><use xlink:href="#c" x="101.161" y="524.446"/><use xlink:href="#d" x="106.093" y="524.446"/></g><g style="fill:#000;fill-opacity:1"><use xlink:href="#c" x="14.923" y="536.766"/><use xlink:href="#e" x="19.855" y="536.766"/></g><g style="fill:#000;fill-opacity:1"><use xlink:href="#c" x="29.296" y="536.766"/><use xlink:href="#f" x="34.228" y="536.766"/></g><g style="fill:#000;fill-opacity:1"><use xlink:href="#c" x="43.669" y="536.766"/><use xlink:href="#g" x="48.601" y="536.766"/></g><g style="fill:#000;fill-opacity:1"><use xlink:href="#c" x="58.042" y="536.766"/><use xlink:href="#h" x="62.974" y="536.766"/></g><g style="fill:#000;fill-opacity:1"><use xlink:href="#c" x="72.415" y="536.766"/><use xlink:href="#i" x="77.347" y="536.766"/></g><g style="fill:#000;fill-opacity:1"><use xlink:href="#c" x="86.788" y="536.766"/><use xlink:href="#j" x="91.72" y="536.766"/></g><g style="fill:gray;fill-opacity:1"><use xlink:href="#d" x="101.161" y="536.766"/><use xlink:href="#a" x="106.093" y="536.766"/></g><g style="fill:#000;fill-opacity:1"><use xlink:href="#d" x="14.923" y="549.086"/><use xlink:href="#b" x="19.855" y="549.086"/></g><g style="fill:green;fill-opacity:1"><use xlink:href="#b" x=".549" y="549.086"/><use xlink:href="#b" x="5.481" y="549.086"/></g><use xlink:href="#b" x="34.227" y="549.086" style="fill:#000;fill-opacity:1"/><use xlink:href="#c" x="48.6" y="549.086" style="fill:#000;fill-opacity:1"/><use xlink:href="#d" x="62.973" y="549.086" style="fill:#000;fill-opacity:1"/><use xlink:href="#e" x="77.346" y="549.086" style="fill:#000;fill-opacity:1"/><use xlink:href="#f" x="91.719" y="549.086" style="fill:#000;fill-opacity:1"/><use xlink:href="#g" x="106.092" y="549.086" style="fill:gray;fill-opacity:1"/><use xlink:href="#h" x="19.854" y="561.406" style="fill:#000;fill-opacity:1"/><use xlink:href="#i" x="34.227" y="561.406" style="fill:#000;fill-opacity:1"/><use xlink:href="#j" x="48.6" y="561.406" style="fill:#000;fill-opacity:1"/><g style="fill:#000;fill-opacity:1"><use xlink:href="#b" x="58.042" y="561.406"/><use xlink:href="#a" x="62.974" y="561.406"/></g><g style="fill:#000;fill-opacity:1"><use xlink:href="#b" x="72.415" y="561.406"/><use xlink:href="#b" x="77.347" y="561.406"/></g><g style="fill:#000;fill-opacity:1"><use xlink:href="#b" x="86.788" y="561.406"/><use xlink:href="#c" x="91.72" y="561.406"/></g><g style="fill:gray;fill-opacity:1"><use xlink:href="#b" x="101.161" y="561.406"/><use xlink:href="#d" x="106.093" y="561.406"/></g><g style="fill:#000;fill-opacity:1"><use xlink:href="#b" x="14.923" y="573.725"/><use xlink:href="#e" x="19.855" y="573.725"/></g><g style="fill:#000;fill-opacity:1"><use xlink:href="#b" x="29.296" y="573.725"/><use xlink:href="#f" x="34.228" y="573.725"/></g><g style="fill:#000;fill-opacity:1"><use xlink:href="#b" x="43.669" y="573.725"/><use xlink:href="#g" x="48.601" y="573.725"/></g><g style="fill:#000;fill-opacity:1"><use xlink:href="#b" x="58.042" y="573.725"/><use xlink:href="#h" x="62.974" y="573.725"/></g><g style="fill:#000;fill-opacity:1"><use xlink:href="#b" x="72.415" y="573.725"/><use xlink:href="#i" x="77.347" y="573.725"/></g><g style="fill:#000;fill-opacity:1"><use xlink:href="#b" x="86.788" y="573.725"/><use xlink:href="#j" x="91.72" y="573.725"/></g><g style="fill:gray;fill-opacity:1"><use xlink:href="#c" x="101.161" y="573.725"/><use xlink:href="#a" x="106.093" y="573.725"/></g><g style="fill:#000;fill-opacity:1"><use xlink:href="#c" x="14.923" y="586.045"/><use xlink:href="#b" x="19.855" y="586.045"/></g><g style="fill:#000;fill-opacity:1"><use xlink:href="#c" x="29.296" y="586.045"/><use xlink:href="#c" x="34.228" y="586.045"/></g><g style="fill:#000;fill-opacity:1"><use xlink:href="#c" x="43.669" y="586.045"/><use xlink:href="#d" x="48.601" y="586.045"/></g><g style="fill:#000;fill-opacity:1"><use xlink:href="#c" x="58.042" y="586.045"/><use xlink:href="#e" x="62.974" y="586.045"/></g><g style="fill:#000;fill-opacity:1"><use xlink:href="#c" x="72.415" y="586.045"/><use xlink:href="#f" x="77.347" y="586.045"/></g><g style="fill:#000;fill-opacity:1"><use xlink:href="#c" x="86.788" y="586.045"/><use xlink:href="#g" x="91.72" y="586.045"/></g><g style="fill:gray;fill-opacity:1"><use xlink:href="#c" x="101.161" y="586.045"/><use xlink:href="#h" x="106.093" y="586.045"/></g><g style="fill:#000;fill-opacity:1"><use xlink:href="#c" x="14.923" y="598.365"/><use xlink:href="#i" x="19.855" y="598.365"/></g><g style="fill:#000;fill-opacity:1"><use xlink:href="#c" x="29.296" y="598.365"/><use xlink:href="#j" x="34.228" y="598.365"/></g><g style="fill:#000;fill-opacity:1"><use xlink:href="#d" x="43.669" y="598.365"/><use xlink:href="#a" x="48.601" y="598.365"/></g><g style="fill:green;fill-opacity:1"><use xlink:href="#b" x=".549" y="598.365"/><use xlink:href="#c" x="5.481" y="598.365"/></g><use xlink:href="#b" x="62.973" y="598.365" style="fill:#000;fill-opacity:1"/><use xlink:href="#c" x="77.346" y="598.365" style="fill:#000;fill-opacity:1"/><use xlink:href="#d" x="91.719" y="598.365" style="fill:#000;fill-opacity:1"/><use xlink:href="#e" x="106.092" y="598.365" style="fill:gray;fill-opacity:1"/><use xlink:href="#f" x="19.854" y="610.685" style="fill:#000;fill-opacity:1"/><use xlink:href="#g" x="34.227" y="610.685" style="fill:#000;fill-opacity:1"/><use xlink:href="#h" x="48.6" y="610.685" style="fill:#000;fill-opacity:1"/><use xlink:href="#i" x="62.973" y="610.685" style="fill:#000;fill-opacity:1"/><use xlink:href="#j" x="77.346" y="610.685" style="fill:#000;fill-opacity:1"/><g style="fill:#000;fill-opacity:1"><use xlink:href="#b" x="86.788" y="610.685"/><use xlink:href="#a" x="91.72" y="610.685"/></g><g style="fill:gray;fill-opacity:1"><use xlink:href="#b" x="101.161" y="610.685"/><use xlink:href="#b" x="106.093" y="610.685"/></g><g style="fill:#000;fill-opacity:1"><use xlink:href="#b" x="14.923" y="623.005"/><use xlink:href="#c" x="19.855" y="623.005"/></g><g style="fill:#000;fill-opacity:1"><use xlink:href="#b" x="29.296" y="623.005"/><use xlink:href="#d" x="34.228" y="623.005"/></g><g style="fill:#000;fill-opacity:1"><use xlink:href="#b" x="43.669" y="623.005"/><use xlink:href="#e" x="48.601" y="623.005"/></g><g style="fill:#000;fill-opacity:1"><use xlink:href="#b" x="58.042" y="623.005"/><use xlink:href="#f" x="62.974" y="623.005"/></g><g style="fill:#000;fill-opacity:1"><use xlink:href="#b" x="72.415" y="623.005"/><use xlink:href="#g" x="77.347" y="623.005"/></g><g style="fill:#000;fill-opacity:1"><use xlink:href="#b" x="86.788" y="623.005"/><use xlink:href="#h" x="91.72" y="623.005"/></g><g style="fill:gray;fill-opacity:1"><use xlink:href="#b" x="101.161" y="623.005"/><use xlink:href="#i" x="106.093" y="623.005"/></g><g style="fill:#000;fill-opacity:1"><use xlink:href="#b" x="14.923" y="635.324"/><use xlink:href="#j" x="19.855" y="635.324"/></g><g style="fill:#000;fill-opacity:1"><use xlink:href="#c" x="29.296" y="635.324"/><use xlink:href="#a" x="34.228" y="635.324"/></g><g style="fill:#000;fill-opacity:1"><use xlink:href="#c" x="43.669" y="635.324"/><use xlink:href="#b" x="48.601" y="635.324"/></g><g style="fill:#000;fill-opacity:1"><use xlink:href="#c" x="58.042" y="635.324"/><use xlink:href="#c" x="62.974" y="635.324"/></g><g style="fill:#000;fill-opacity:1"><use xlink:href="#c" x="72.415" y="635.324"/><use xlink:href="#d" x="77.347" y="635.324"/></g><g style="fill:#000;fill-opacity:1"><use xlink:href="#c" x="86.788" y="635.324"/><use xlink:href="#e" x="91.72" y="635.324"/></g><g style="fill:gray;fill-opacity:1"><use xlink:href="#c" x="101.161" y="635.324"/><use xlink:href="#f" x="106.093" y="635.324"/></g><g style="fill:#000;fill-opacity:1"><use xlink:href="#c" x="14.923" y="647.644"/><use xlink:href="#g" x="19.855" y="647.644"/></g><g style="fill:#000;fill-opacity:1"><use xlink:href="#c" x="29.296" y="647.644"/><use xlink:href="#h" x="34.228" y="647.644"/></g><g style="fill:#000;fill-opacity:1"><use xlink:href="#c" x="43.669" y="647.644"/><use xlink:href="#i" x="48.601" y="647.644"/></g><g style="fill:#000;fill-opacity:1"><use xlink:href="#c" x="58.042" y="647.644"/><use xlink:href="#j" x="62.974" y="647.644"/></g><g style="fill:#000;fill-opacity:1"><use xlink:href="#d" x="72.415" y="647.644"/><use xlink:href="#a" x="77.347" y="647.644"/></g><g style="fill:#000;fill-opacity:1"><use xlink:href="#d" x="86.788" y="647.644"/><use xlink:href="#b" x="91.72" y="647.644"/></g></svg>