<svg xmlns="http://www.w3.org/2000/svg" width="116.077" height="219.963" viewBox="0 0 87.058 164.972" version="1.2"><path style="fill:none;stroke-width:.3985;stroke-linecap:butt;stroke-linejoin:miter;stroke:#000;stroke-opacity:1;stroke-miterlimit:10" d="M.001-.002H21.26V21.26H42.52v-42.52h21.257V-.002H85.04M.001-56.693h5.313v5.316h5.316V-62.01h5.316v5.317h5.313v5.316h-5.313v5.313h10.63v5.316h-5.317v5.313h5.316v5.316h5.317v-10.629h5.312v5.313h5.317v-5.313h5.316v-5.316H37.204v-5.313h5.317V-62.01h5.316v-5.312H37.204v-5.317h5.317v-5.316h5.316v5.316h5.313v-10.628h5.316v5.312h5.312v5.316h-5.312v5.317h10.629v5.312h-5.317v5.317h5.317v5.316h5.316V-62.01h5.313v5.317h5.316M.001-113.389H1.33v1.329h1.328v-2.657h1.328v1.328h1.329v1.329H3.985v1.332h2.66v1.328H5.315v1.328h1.332v1.328h1.328v-2.656h1.328v1.328h1.328v-1.328h1.328v-1.328H9.302v-1.329h1.328v-2.66h1.328v-1.328H9.302v-1.328h1.328v-1.328h1.328v1.328h1.328v-2.656h1.332v1.328h1.328v1.328h-1.328v1.328h2.656v1.328h-1.328v1.328h1.329v1.332h1.328v-2.66h1.328v1.328h1.328v1.329H19.93v1.332h2.656v1.328h-1.328v1.328H19.93v-1.328h-1.328v2.656h-1.329v-1.328h-1.328v1.328h-1.328v1.328h2.656v1.328h-1.328v1.332h1.329v1.328h1.328v-2.66h1.328v1.332h2.656v1.328h1.332v-2.66h1.328v1.332h1.328v1.328h-1.328v1.328h2.656v1.329h-1.328v1.328h-1.328v-1.328H23.92v2.656h-1.332v-1.328h-1.328v1.328H19.93v1.332h2.656v1.328h-1.328v1.328h1.328v1.328h1.332v-2.656h1.328v1.328h1.328v1.328h-1.328v1.328h2.656v1.329h-1.328v1.332h1.328v1.328h1.329v-2.66h1.328v1.332h1.332v-1.332h1.328v-1.329h-2.66v-1.328h1.332v-2.656h1.328v-1.328h-2.66v-1.332h1.332v-1.328h1.328v1.328h1.328v-2.656h1.328v1.328h1.328v1.328h-1.328v1.332h2.656v1.328h-1.328v1.328h1.328v1.328h1.332v-2.656h1.328v1.328h1.329v-1.328h1.328v-1.328h-2.657v-1.332h1.329v-1.328h1.328v1.328h1.328v-2.656h1.328v1.328h1.332v-1.328h1.328v-1.329h-2.66v-1.328h1.332v-1.328h-1.332v-1.332h-1.328v2.66h-1.328v-1.328h-2.657v-1.332h-1.328v2.66h-1.332v-1.328h-1.328v-1.332h1.328v-1.328h-2.656v-1.328h1.328v-1.328h1.328v1.328h1.332v-2.656h1.328v1.328h1.329v-1.328h1.328v-1.328h-2.657v-1.329h1.329v-2.66h1.328v-1.328h-2.657v-1.328h1.329v-1.328h1.328v1.328h1.328v-2.656h1.328v1.328h1.332v-1.328h1.328v-1.332h-2.66v-1.328h1.332v-1.328h-1.332v-1.329h-1.328v2.657h-1.328v-1.328h-2.657v-1.329h-1.328v2.657h-1.332v-1.328h-1.328v-1.329h1.328v-1.328h-2.656v-1.328h1.328v-1.332h1.328v1.332h1.332v-2.66h1.328v1.328h1.329v-1.328h1.328v-1.328h-2.657v-1.328h1.329v-1.328h1.328v1.328h1.328v-2.656h1.328v1.328h1.332v1.328h-1.332v1.328h2.66v1.328h-1.328v1.328h1.328v1.332h1.328v-2.66h1.328v1.328h1.329v-1.328h1.328v-1.328H51.82v-1.328h1.329v-2.656h1.328v-1.333H51.82v-1.328h1.329v-1.328h1.328v1.328h1.332v-2.656h1.328v1.328h1.328v1.328h-1.328v1.328h2.656v1.332h-1.328v1.329h1.328v1.328h1.328v-2.656h1.328v1.328h1.328v1.328H62.45v1.328h2.66v1.328h-1.332v1.328H62.45v-1.328h-1.328v2.66h-1.328v-1.332h-1.328v1.332h-1.328v1.328h2.656v1.328h-1.328v1.329h1.328v1.328h1.328v-2.657h1.328v1.329h2.66v1.328h1.329v-2.657h1.328v1.329h1.328v1.328h-1.328v1.328h2.656v1.332h-1.328v1.328h-1.328v-1.328h-1.328v2.656H65.11v-1.328h-1.332v1.328H62.45v1.328h2.66v1.328h-1.332v1.328h1.332v1.329h1.329v-2.657h1.328v1.328h1.328v1.329h-1.328v1.332h2.656v1.328h-1.328v1.328h1.328v1.328h1.328v-2.656h1.332v1.328h1.328v-1.328h1.328v-1.328h-2.656v-1.329h1.328v-2.66h1.328v-1.328h-2.656v-1.328h1.328v-1.328h1.328v1.328h1.328v-2.656h1.329v1.328h1.328v1.328h-1.328v1.328h2.66v1.328h-1.332v1.328h1.332v1.332h1.328v-2.66h1.328v1.328h1.328" transform="matrix(1 0 0 -1 .538 22.463)"/></svg>