<svg xmlns="http://www.w3.org/2000/svg" xmlns:xlink="http://www.w3.org/1999/xlink" width="382.155" height="56.019" viewBox="0 0 286.616 42.014" version="1.2"><defs><clipPath id="c"><path d="M72.25 10.55h141.73v19.927H72.25Zm0 0"/></clipPath><clipPath id="a"><path d="M0 0h12v12H0z"/></clipPath><clipPath id="e"><path d="M72.25 23H77v7.477h-4.75Zm0 0"/></clipPath><clipPath id="f"><path d="M75 23h13v7.477H75Zm0 0"/></clipPath><clipPath id="g"><path d="M86 23h13v7.477H86Zm0 0"/></clipPath><clipPath id="h"><path d="M97.336 23H111v7.477H97.336Zm0 0"/></clipPath><clipPath id="i"><path d="M109 23h5.77v7.477H109Zm0 0"/></clipPath><clipPath id="j"><path d="M72.25 11H77v13h-4.75Zm0 0"/></clipPath><clipPath id="k"><path d="M97.336 11H111v13H97.336Zm0 0"/></clipPath><clipPath id="l"><path d="M109 11h5.77v13H109Zm0 0"/></clipPath><clipPath id="m"><path d="M72.25 10.55H77V13h-4.75Zm0 0"/></clipPath><clipPath id="n"><path d="M75 10.55h13V13H75Zm0 0"/></clipPath><clipPath id="o"><path d="M86 10.55h13V13H86Zm0 0"/></clipPath><clipPath id="p"><path d="M97.336 10.55H111V13H97.336Zm0 0"/></clipPath><clipPath id="q"><path d="M109 10.55h5.77V13H109Zm0 0"/></clipPath><clipPath id="r"><path d="M121.855 23H122v7.477h-.145Zm0 0"/></clipPath><clipPath id="s"><path d="M121.855 23H133v7.477h-11.145Zm0 0"/></clipPath><clipPath id="t"><path d="M131.352 23H145v7.477h-13.648Zm0 0"/></clipPath><clipPath id="u"><path d="M143 23h13v7.477h-13Zm0 0"/></clipPath><clipPath id="v"><path d="M154.027 23h10.352v7.477h-10.352Zm0 0"/></clipPath><clipPath id="w"><path d="M121.855 11H122v13h-.145Zm0 0"/></clipPath><clipPath id="x"><path d="M121.855 11H133v13h-11.145Zm0 0"/></clipPath><clipPath id="y"><path d="M131.352 11H145v13h-13.648Zm0 0"/></clipPath><clipPath id="z"><path d="M154.027 11h10.352v13h-10.352Zm0 0"/></clipPath><clipPath id="A"><path d="M121.855 10.55H122V13h-.145Zm0 0"/></clipPath><clipPath id="B"><path d="M121.855 10.55H133V13h-11.145Zm0 0"/></clipPath><clipPath id="C"><path d="M131.352 10.55H145V13h-13.648Zm0 0"/></clipPath><clipPath id="D"><path d="M143 10.55h13V13h-13Zm0 0"/></clipPath><clipPath id="E"><path d="M154.027 10.55h10.352V13h-10.352Zm0 0"/></clipPath><clipPath id="F"><path d="M171.465 23H179v7.477h-7.535Zm0 0"/></clipPath><clipPath id="G"><path d="M177 23h13v7.477h-13Zm0 0"/></clipPath><clipPath id="H"><path d="M188.043 23H201v7.477h-12.957Zm0 0"/></clipPath><clipPath id="I"><path d="M199.383 23H213v7.477h-13.617Zm0 0"/></clipPath><clipPath id="J"><path d="M211 23h2.984v7.477H211Zm0 0"/></clipPath><clipPath id="K"><path d="M171.465 11H179v13h-7.535Zm0 0"/></clipPath><clipPath id="L"><path d="M188.043 11H201v13h-12.957Zm0 0"/></clipPath><clipPath id="M"><path d="M199.383 11H213v13h-13.617Zm0 0"/></clipPath><clipPath id="N"><path d="M211 11h2.984v13H211Zm0 0"/></clipPath><clipPath id="O"><path d="M171.465 10.55H179V13h-7.535Zm0 0"/></clipPath><clipPath id="P"><path d="M177 10.55h13V13h-13Zm0 0"/></clipPath><clipPath id="Q"><path d="M188.043 10.55H201V13h-12.957Zm0 0"/></clipPath><clipPath id="R"><path d="M199.383 10.55H213V13h-13.617Zm0 0"/></clipPath><clipPath id="S"><path d="M211 10.55h2.984V13H211Zm0 0"/></clipPath><pattern id="d" patternUnits="userSpaceOnUse" width="12" height="12" patternTransform="matrix(.9449 0 0 -.9449 -71.75 13618.551)"><use xlink:href="#b"/></pattern><g id="b" clip-path="url(#a)"><path style="fill:#000;fill-opacity:1;stroke:none" d="M0 0h12v12H0z"/><path style="stroke:none;fill-rule:nonzero;fill:#ccc;fill-opacity:1" d="M0 0h6v6H0Zm6 6h6v6H6Zm0 0"/></g></defs><g clip-path="url(#c)"><path style="stroke:none;fill-rule:nonzero;fill:url(#d)" d="M72.25 30.477h141.73V10.55H72.25Zm0 0"/></g><g clip-path="url(#e)"><path style="fill:none;stroke-width:.79701;stroke-linecap:butt;stroke-linejoin:miter;stroke:#000;stroke-opacity:1;stroke-miterlimit:10" d="M.002 2.835h11.336M.002 8.503h11.336M2.834-.001v2.836m5.672 0v5.668m-5.672 0v2.836" transform="matrix(1 0 0 -1 64.315 34.776)"/></g><g clip-path="url(#f)"><path style="fill:none;stroke-width:.79701;stroke-linecap:butt;stroke-linejoin:miter;stroke:#000;stroke-opacity:1;stroke-miterlimit:10" d="M0 2.835h11.339M-.001 8.503h11.34M2.835-.001v2.836m5.668 0v5.668m-5.668 0v2.836" transform="matrix(1 0 0 -1 75.653 34.776)"/></g><g clip-path="url(#g)"><path style="fill:none;stroke-width:.79701;stroke-linecap:butt;stroke-linejoin:miter;stroke:#000;stroke-opacity:1;stroke-miterlimit:10" d="M0 2.835h11.34M0 8.503h11.34M2.836-.001v2.836m5.668 0v5.668m-5.668 0v2.836" transform="matrix(1 0 0 -1 86.992 34.776)"/></g><g clip-path="url(#h)"><path style="fill:none;stroke-width:.79701;stroke-linecap:butt;stroke-linejoin:miter;stroke:#000;stroke-opacity:1;stroke-miterlimit:10" d="M.001 2.835h11.336M.001 8.503h11.336M2.833-.001v2.836m5.672 0v5.668m-5.672 0v2.836" transform="matrix(1 0 0 -1 98.33 34.776)"/></g><g clip-path="url(#i)"><path style="fill:none;stroke-width:.79701;stroke-linecap:butt;stroke-linejoin:miter;stroke:#000;stroke-opacity:1;stroke-miterlimit:10" d="M-.001 2.835h11.34M-.002 8.503h11.34M2.834-.001v2.836m5.668 0v5.668m-5.668 0v2.836" transform="matrix(1 0 0 -1 109.67 34.776)"/></g><g clip-path="url(#j)"><path style="fill:none;stroke-width:.79701;stroke-linecap:butt;stroke-linejoin:miter;stroke:#000;stroke-opacity:1;stroke-miterlimit:10" d="M.002 2.836h11.336M.002 8.504h11.336M2.834 0v2.836m5.672 0v5.668m-5.672 0v2.836" transform="matrix(1 0 0 -1 64.315 23.438)"/></g><path style="fill:none;stroke-width:.79701;stroke-linecap:butt;stroke-linejoin:miter;stroke:#000;stroke-opacity:1;stroke-miterlimit:10" d="M0 2.836h11.339M-.001 8.504h11.34M2.835 0v2.836m5.668 0v5.668m-5.668 0v2.836" transform="matrix(1 0 0 -1 75.653 23.438)"/><path style="fill:none;stroke-width:.79701;stroke-linecap:butt;stroke-linejoin:miter;stroke:#000;stroke-opacity:1;stroke-miterlimit:10" d="M0 2.836h11.34M0 8.504h11.34M2.836 0v2.836m5.668 0v5.668m-5.668 0v2.836" transform="matrix(1 0 0 -1 86.992 23.438)"/><g clip-path="url(#k)"><path style="fill:none;stroke-width:.79701;stroke-linecap:butt;stroke-linejoin:miter;stroke:#000;stroke-opacity:1;stroke-miterlimit:10" d="M.001 2.836h11.336M.001 8.504h11.336M2.833 0v2.836m5.672 0v5.668m-5.672 0v2.836" transform="matrix(1 0 0 -1 98.33 23.438)"/></g><g clip-path="url(#l)"><path style="fill:none;stroke-width:.79701;stroke-linecap:butt;stroke-linejoin:miter;stroke:#000;stroke-opacity:1;stroke-miterlimit:10" d="M-.001 2.836h11.34M-.002 8.504h11.34M2.834 0v2.836m5.668 0v5.668m-5.668 0v2.836" transform="matrix(1 0 0 -1 109.67 23.438)"/></g><g clip-path="url(#m)"><path style="fill:none;stroke-width:.79701;stroke-linecap:butt;stroke-linejoin:miter;stroke:#000;stroke-opacity:1;stroke-miterlimit:10" d="M.002 2.833h11.336M.002 8.505h11.336M2.834.001v2.832m5.672 0v5.672m-5.672 0v2.832" transform="matrix(1 0 0 -1 64.315 12.099)"/></g><g clip-path="url(#n)"><path style="fill:none;stroke-width:.79701;stroke-linecap:butt;stroke-linejoin:miter;stroke:#000;stroke-opacity:1;stroke-miterlimit:10" d="M0 2.833h11.339M-.001 8.505h11.34M2.835.001v2.832m5.668 0v5.672m-5.668 0v2.832" transform="matrix(1 0 0 -1 75.653 12.099)"/></g><g clip-path="url(#o)"><path style="fill:none;stroke-width:.79701;stroke-linecap:butt;stroke-linejoin:miter;stroke:#000;stroke-opacity:1;stroke-miterlimit:10" d="M0 2.833h11.34M0 8.505h11.34M2.836.001v2.832m5.668 0v5.672m-5.668 0v2.832" transform="matrix(1 0 0 -1 86.992 12.099)"/></g><g clip-path="url(#p)"><path style="fill:none;stroke-width:.79701;stroke-linecap:butt;stroke-linejoin:miter;stroke:#000;stroke-opacity:1;stroke-miterlimit:10" d="M.001 2.833h11.336M.001 8.505h11.336M2.833.001v2.832m5.672 0v5.672m-5.672 0v2.832" transform="matrix(1 0 0 -1 98.33 12.099)"/></g><g clip-path="url(#q)"><path style="fill:none;stroke-width:.79701;stroke-linecap:butt;stroke-linejoin:miter;stroke:#000;stroke-opacity:1;stroke-miterlimit:10" d="M-.001 2.833h11.34M-.002 8.505h11.34M2.834.001v2.832m5.668 0v5.672m-5.668 0v2.832" transform="matrix(1 0 0 -1 109.67 12.099)"/></g><g clip-path="url(#r)"><path style="fill:none;stroke-width:.79701;stroke-linecap:butt;stroke-linejoin:miter;stroke:#00f;stroke-opacity:1;stroke-miterlimit:10" d="M-.001 2.835h11.34M-.002 8.503h11.34M2.834-.001v2.836m5.668 0v5.668m-5.668 0v2.836" transform="matrix(1 0 0 -1 109.67 34.776)"/></g><g clip-path="url(#s)"><path style="fill:none;stroke-width:.79701;stroke-linecap:butt;stroke-linejoin:miter;stroke:#00f;stroke-opacity:1;stroke-miterlimit:10" d="M0 2.835h11.34M0 8.503h11.34M2.836-.001v2.836m5.668 0v5.668m-5.668 0v2.836" transform="matrix(1 0 0 -1 121.008 34.776)"/></g><g clip-path="url(#t)"><path style="fill:none;stroke-width:.79701;stroke-linecap:butt;stroke-linejoin:miter;stroke:#00f;stroke-opacity:1;stroke-miterlimit:10" d="M0 2.835h11.337M0 8.503h11.336M2.833-.001v2.836m5.672 0v5.668m-5.672 0v2.836" transform="matrix(1 0 0 -1 132.347 34.776)"/></g><g clip-path="url(#u)"><path style="fill:none;stroke-width:.79701;stroke-linecap:butt;stroke-linejoin:miter;stroke:#00f;stroke-opacity:1;stroke-miterlimit:10" d="M-.002 2.835h11.34M-.002 8.503h11.34M2.834-.001v2.836m5.672 0v5.668m-5.672 0v2.836" transform="matrix(1 0 0 -1 143.685 34.776)"/></g><g clip-path="url(#v)"><path style="fill:none;stroke-width:.79701;stroke-linecap:butt;stroke-linejoin:miter;stroke:#00f;stroke-opacity:1;stroke-miterlimit:10" d="M0 2.835h11.34M0 8.503h11.34M2.834-.001v2.836m5.668 0v5.668m-5.668 0v2.836" transform="matrix(1 0 0 -1 155.024 34.776)"/></g><g clip-path="url(#w)"><path style="fill:none;stroke-width:.79701;stroke-linecap:butt;stroke-linejoin:miter;stroke:#00f;stroke-opacity:1;stroke-miterlimit:10" d="M-.001 2.836h11.34M-.002 8.504h11.34M2.834 0v2.836m5.668 0v5.668m-5.668 0v2.836" transform="matrix(1 0 0 -1 109.67 23.438)"/></g><g clip-path="url(#x)"><path style="fill:none;stroke-width:.79701;stroke-linecap:butt;stroke-linejoin:miter;stroke:#00f;stroke-opacity:1;stroke-miterlimit:10" d="M0 2.836h11.34M0 8.504h11.34M2.836 0v2.836m5.668 0v5.668m-5.668 0v2.836" transform="matrix(1 0 0 -1 121.008 23.438)"/></g><g clip-path="url(#y)"><path style="fill:none;stroke-width:.79701;stroke-linecap:butt;stroke-linejoin:miter;stroke:#00f;stroke-opacity:1;stroke-miterlimit:10" d="M0 2.836h11.337M0 8.504h11.336M2.833 0v2.836m5.672 0v5.668m-5.672 0v2.836" transform="matrix(1 0 0 -1 132.347 23.438)"/></g><path style="fill:none;stroke-width:.79701;stroke-linecap:butt;stroke-linejoin:miter;stroke:#00f;stroke-opacity:1;stroke-miterlimit:10" d="M-.002 2.836h11.34M-.002 8.504h11.34M2.834 0v2.836m5.672 0v5.668m-5.672 0v2.836" transform="matrix(1 0 0 -1 143.685 23.438)"/><g clip-path="url(#z)"><path style="fill:none;stroke-width:.79701;stroke-linecap:butt;stroke-linejoin:miter;stroke:#00f;stroke-opacity:1;stroke-miterlimit:10" d="M0 2.836h11.34M0 8.504h11.34M2.834 0v2.836m5.668 0v5.668m-5.668 0v2.836" transform="matrix(1 0 0 -1 155.024 23.438)"/></g><g clip-path="url(#A)"><path style="fill:none;stroke-width:.79701;stroke-linecap:butt;stroke-linejoin:miter;stroke:#00f;stroke-opacity:1;stroke-miterlimit:10" d="M-.001 2.833h11.34M-.002 8.505h11.34M2.834.001v2.832m5.668 0v5.672m-5.668 0v2.832" transform="matrix(1 0 0 -1 109.67 12.099)"/></g><g clip-path="url(#B)"><path style="fill:none;stroke-width:.79701;stroke-linecap:butt;stroke-linejoin:miter;stroke:#00f;stroke-opacity:1;stroke-miterlimit:10" d="M0 2.833h11.34M0 8.505h11.34M2.836.001v2.832m5.668 0v5.672m-5.668 0v2.832" transform="matrix(1 0 0 -1 121.008 12.099)"/></g><g clip-path="url(#C)"><path style="fill:none;stroke-width:.79701;stroke-linecap:butt;stroke-linejoin:miter;stroke:#00f;stroke-opacity:1;stroke-miterlimit:10" d="M0 2.833h11.337M0 8.505h11.336M2.833.001v2.832m5.672 0v5.672m-5.672 0v2.832" transform="matrix(1 0 0 -1 132.347 12.099)"/></g><g clip-path="url(#D)"><path style="fill:none;stroke-width:.79701;stroke-linecap:butt;stroke-linejoin:miter;stroke:#00f;stroke-opacity:1;stroke-miterlimit:10" d="M-.002 2.833h11.34M-.002 8.505h11.34M2.834.001v2.832m5.672 0v5.672m-5.672 0v2.832" transform="matrix(1 0 0 -1 143.685 12.099)"/></g><g clip-path="url(#E)"><path style="fill:none;stroke-width:.79701;stroke-linecap:butt;stroke-linejoin:miter;stroke:#00f;stroke-opacity:1;stroke-miterlimit:10" d="M0 2.833h11.34M0 8.505h11.34M2.834.001v2.832m5.668 0v5.672m-5.668 0v2.832" transform="matrix(1 0 0 -1 155.024 12.099)"/></g><g clip-path="url(#F)"><path style="fill:none;stroke-width:.79701;stroke-linecap:butt;stroke-linejoin:miter;stroke:red;stroke-opacity:1;stroke-miterlimit:10" d="M0 2.835h11.34M0 8.503h11.34M2.836-.001v2.836m5.668 0v5.668m-5.668 0v2.836" transform="matrix(1 0 0 -1 166.363 34.776)"/></g><g clip-path="url(#G)"><path style="fill:none;stroke-width:.79701;stroke-linecap:butt;stroke-linejoin:miter;stroke:red;stroke-opacity:1;stroke-miterlimit:10" d="M.002 2.835h11.335M.002 8.503h11.335M2.834-.001v2.836m5.671 0v5.668m-5.671 0v2.836" transform="matrix(1 0 0 -1 177.702 34.776)"/></g><g clip-path="url(#H)"><path style="fill:none;stroke-width:.79701;stroke-linecap:butt;stroke-linejoin:miter;stroke:red;stroke-opacity:1;stroke-miterlimit:10" d="M-.001 2.835h11.34M-.001 8.503h11.34M2.835-.001v2.836m5.668 0v5.668m-5.668 0v2.836" transform="matrix(1 0 0 -1 189.04 34.776)"/></g><g clip-path="url(#I)"><path style="fill:none;stroke-width:.79701;stroke-linecap:butt;stroke-linejoin:miter;stroke:red;stroke-opacity:1;stroke-miterlimit:10" d="M0 2.835h11.34M0 8.503h11.34M2.836-.001v2.836m5.668 0v5.668m-5.668 0v2.836" transform="matrix(1 0 0 -1 200.379 34.776)"/></g><g clip-path="url(#J)"><path style="fill:none;stroke-width:.79701;stroke-linecap:butt;stroke-linejoin:miter;stroke:red;stroke-opacity:1;stroke-miterlimit:10" d="M.001 2.835h11.336M0 8.503h11.336M2.833-.001v2.836m5.672 0v5.668m-5.672 0v2.836" transform="matrix(1 0 0 -1 211.718 34.776)"/></g><g clip-path="url(#K)"><path style="fill:none;stroke-width:.79701;stroke-linecap:butt;stroke-linejoin:miter;stroke:red;stroke-opacity:1;stroke-miterlimit:10" d="M0 2.836h11.34M0 8.504h11.34M2.836 0v2.836m5.668 0v5.668m-5.668 0v2.836" transform="matrix(1 0 0 -1 166.363 23.438)"/></g><path style="fill:none;stroke-width:.79701;stroke-linecap:butt;stroke-linejoin:miter;stroke:red;stroke-opacity:1;stroke-miterlimit:10" d="M.002 2.836h11.335M.002 8.504h11.335M2.834 0v2.836m5.671 0v5.668m-5.671 0v2.836" transform="matrix(1 0 0 -1 177.702 23.438)"/><g clip-path="url(#L)"><path style="fill:none;stroke-width:.79701;stroke-linecap:butt;stroke-linejoin:miter;stroke:red;stroke-opacity:1;stroke-miterlimit:10" d="M-.001 2.836h11.34M-.001 8.504h11.34M2.835 0v2.836m5.668 0v5.668m-5.668 0v2.836" transform="matrix(1 0 0 -1 189.04 23.438)"/></g><g clip-path="url(#M)"><path style="fill:none;stroke-width:.79701;stroke-linecap:butt;stroke-linejoin:miter;stroke:red;stroke-opacity:1;stroke-miterlimit:10" d="M0 2.836h11.34M0 8.504h11.34M2.836 0v2.836m5.668 0v5.668m-5.668 0v2.836" transform="matrix(1 0 0 -1 200.379 23.438)"/></g><g clip-path="url(#N)"><path style="fill:none;stroke-width:.79701;stroke-linecap:butt;stroke-linejoin:miter;stroke:red;stroke-opacity:1;stroke-miterlimit:10" d="M.001 2.836h11.336M0 8.504h11.336M2.833 0v2.836m5.672 0v5.668m-5.672 0v2.836" transform="matrix(1 0 0 -1 211.718 23.438)"/></g><g clip-path="url(#O)"><path style="fill:none;stroke-width:.79701;stroke-linecap:butt;stroke-linejoin:miter;stroke:red;stroke-opacity:1;stroke-miterlimit:10" d="M0 2.833h11.34M0 8.505h11.34M2.836.001v2.832m5.668 0v5.672m-5.668 0v2.832" transform="matrix(1 0 0 -1 166.363 12.099)"/></g><g clip-path="url(#P)"><path style="fill:none;stroke-width:.79701;stroke-linecap:butt;stroke-linejoin:miter;stroke:red;stroke-opacity:1;stroke-miterlimit:10" d="M.002 2.833h11.335M.002 8.505h11.335M2.834.001v2.832m5.671 0v5.672m-5.671 0v2.832" transform="matrix(1 0 0 -1 177.702 12.099)"/></g><g clip-path="url(#Q)"><path style="fill:none;stroke-width:.79701;stroke-linecap:butt;stroke-linejoin:miter;stroke:red;stroke-opacity:1;stroke-miterlimit:10" d="M-.001 2.833h11.34M-.001 8.505h11.34M2.835.001v2.832m5.668 0v5.672m-5.668 0v2.832" transform="matrix(1 0 0 -1 189.04 12.099)"/></g><g clip-path="url(#R)"><path style="fill:none;stroke-width:.79701;stroke-linecap:butt;stroke-linejoin:miter;stroke:red;stroke-opacity:1;stroke-miterlimit:10" d="M0 2.833h11.34M0 8.505h11.34M2.836.001v2.832m5.668 0v5.672m-5.668 0v2.832" transform="matrix(1 0 0 -1 200.379 12.099)"/></g><g clip-path="url(#S)"><path style="fill:none;stroke-width:.79701;stroke-linecap:butt;stroke-linejoin:miter;stroke:red;stroke-opacity:1;stroke-miterlimit:10" d="M.001 2.833h11.336M0 8.505h11.336M2.833.001v2.832m5.672 0v5.672m-5.672 0v2.832" transform="matrix(1 0 0 -1 211.718 12.099)"/></g></svg>