<svg xmlns="http://www.w3.org/2000/svg" xmlns:xlink="http://www.w3.org/1999/xlink" width="117.075" height="59.883" viewBox="0 0 87.806 44.912" version="1.2"><defs><clipPath id="a"><path d="M0 0h87.71v44.867H0Zm0 0"/></clipPath><clipPath id="b"><path d="M18 25h15v19.867H18Zm0 0"/></clipPath><symbol overflow="visible" id="c"><path style="stroke:none" d="M4.75-2.36c0-1.562-.922-2.046-1.656-2.046-1.375 0-2.688 1.422-2.688 2.828C.406-.641 1 .109 2.031.109c.625 0 1.344-.234 2.094-.843.125.53.453.843.906.843.532 0 .844-.546.844-.703 0-.078-.063-.11-.125-.11-.063 0-.094.032-.125.11-.188.485-.547.485-.563.485-.312 0-.312-.782-.312-1.016 0-.203 0-.234.11-.344C5.796-2.656 6-3.812 6-3.812c0-.032-.016-.11-.125-.11-.094 0-.094.031-.14.219-.188.625-.516 1.375-.985 1.969ZM4.094-.983c-.89.765-1.657.875-2.047.875-.594 0-.906-.454-.906-1.094 0-.484.265-1.563.578-2.063.468-.734 1.015-.921 1.36-.921.983 0 .983 1.312.983 2.078 0 .375 0 .953.032 1.125Zm0 0"/></symbol></defs><path style="stroke:none;fill-rule:nonzero;fill:#cfc;fill-opacity:1" d="M1.66 43.656h25.512c0-4.476-1.18-8.879-3.418-12.758Zm0 0"/><g clip-path="url(#a)"><path style="fill:none;stroke-width:.3985;stroke-linecap:butt;stroke-linejoin:miter;stroke:#000;stroke-opacity:1;stroke-miterlimit:10" d="M85.04 0H0l73.645 42.52" transform="matrix(1 0 0 -1 1.66 43.656)"/></g><g clip-path="url(#b)"><path style="fill:none;stroke-width:.3985;stroke-linecap:butt;stroke-linejoin:miter;stroke:green;stroke-opacity:1;stroke-miterlimit:10" d="M25.512 0c0 4.476-1.18 8.879-3.418 12.758" transform="matrix(1 0 0 -1 1.66 43.656)"/></g><use xlink:href="#c" x="13.241" y="41.839" style="fill:#000;fill-opacity:1"/></svg>