<svg xmlns="http://www.w3.org/2000/svg" width="78.249" height="11.235" viewBox="0 0 58.687 8.426" version="1.2"><defs><clipPath id="a"><path d="M17 0h40v8.14H17Zm0 0"/></clipPath><clipPath id="b"><path d="M25 0h33.531v8.14H25Zm0 0"/></clipPath><clipPath id="c"><path d="M34 0h24.531v8.14H34Zm0 0"/></clipPath></defs><path style="fill:none;stroke-width:1.19553;stroke-linecap:butt;stroke-linejoin:miter;stroke:#000;stroke-opacity:1;stroke-miterlimit:10" d="M0 .001h34.8" transform="matrix(1 0 0 -1 .853 3.931)"/><path style="stroke:none;fill-rule:nonzero;fill:#000;fill-opacity:1" d="m39.105 3.93-4.734-1.793L35.95 3.93l-1.578 1.797Zm0 0"/><g clip-path="url(#a)"><path style="fill:none;stroke-width:1.19553;stroke-linecap:butt;stroke-linejoin:miter;stroke:#000;stroke-opacity:1;stroke-miterlimit:10" d="M6.665.001 1.931 1.794 3.51.001 1.931-1.796Zm0 0" transform="matrix(1 0 0 -1 32.44 3.931)"/></g><path style="stroke:none;fill-rule:nonzero;fill:#000;fill-opacity:1" d="m47.477 3.93-4.739-1.793L44.32 3.93l-1.582 1.797Zm0 0"/><g clip-path="url(#b)"><path style="fill:none;stroke-width:1.19553;stroke-linecap:butt;stroke-linejoin:miter;stroke:#000;stroke-opacity:1;stroke-miterlimit:10" d="M6.668.001 1.93 1.794 3.512.001 1.93-1.796Zm0 0" transform="matrix(1 0 0 -1 40.809 3.931)"/></g><path style="stroke:none;fill-rule:nonzero;fill:#000;fill-opacity:1" d="m55.844 3.93-4.735-1.793 1.578 1.793-1.578 1.797Zm0 0"/><g clip-path="url(#c)"><path style="fill:none;stroke-width:1.19553;stroke-linecap:butt;stroke-linejoin:miter;stroke:#000;stroke-opacity:1;stroke-miterlimit:10" d="M6.666.001 1.932 1.794 3.51.001 1.932-1.796Zm0 0" transform="matrix(1 0 0 -1 49.177 3.931)"/></g></svg>