<svg xmlns="http://www.w3.org/2000/svg" width="134.36" height="149.523" viewBox="0 0 100.77 112.142" version="1.2"><defs><clipPath id="a"><path d="M30 82h41v29.715H30Zm0 0"/></clipPath></defs><path style="fill-rule:nonzero;fill:#ccf;fill-opacity:1;stroke-width:.79701;stroke-linecap:butt;stroke-linejoin:miter;stroke:#8080ff;stroke-opacity:1;stroke-miterlimit:10" d="M8.503-.001c0 4.699-3.808 8.504-8.503 8.504A8.503 8.503 0 0 1-8.504-.001 8.506 8.506 0 0 1 0-8.505 8.506 8.506 0 0 1 8.503-.001ZM8.503-46.154c0 4.7-3.808 8.504-8.503 8.504a8.503 8.503 0 0 1-8.504-8.504A8.506 8.506 0 0 1 0-54.657a8.506 8.506 0 0 1 8.503 8.503Zm0 0" transform="matrix(1 0 0 -1 50.27 9.491)"/><path style="stroke:none;fill-rule:nonzero;fill:#ccf;fill-opacity:1" d="M58.773 101.793a8.506 8.506 0 0 0-8.503-8.504 8.506 8.506 0 0 0-8.504 8.504c0 4.7 3.808 8.504 8.504 8.504a8.503 8.503 0 0 0 8.503-8.504Zm0 0"/><g clip-path="url(#a)"><path style="fill:none;stroke-width:.79701;stroke-linecap:butt;stroke-linejoin:miter;stroke:#8080ff;stroke-opacity:1;stroke-miterlimit:10" d="M8.503-92.302A8.506 8.506 0 0 1 0-83.798a8.506 8.506 0 0 1-8.504-8.504c0-4.7 3.808-8.504 8.504-8.504a8.503 8.503 0 0 1 8.503 8.504Zm0 0" transform="matrix(1 0 0 -1 50.27 9.491)"/></g><path style="fill-rule:nonzero;fill:#ccc;fill-opacity:1;stroke-width:.79701;stroke-linecap:butt;stroke-linejoin:miter;stroke:gray;stroke-opacity:1;stroke-miterlimit:10" d="M37.648-51.822h11.34v11.34h-11.34ZM-48.985-51.822h11.336v11.34h-11.336Zm0 0" transform="matrix(1 0 0 -1 50.27 9.491)"/><path style="fill:none;stroke-width:.3985;stroke-linecap:butt;stroke-linejoin:miter;stroke:#000;stroke-opacity:1;stroke-miterlimit:10" d="M-37.25-46.154h27.949" transform="matrix(1 0 0 -1 50.27 9.491)"/><path style="fill:none;stroke-width:.3985;stroke-linecap:round;stroke-linejoin:round;stroke:#000;stroke-opacity:1;stroke-miterlimit:10" d="M-2.07 2.393C-1.697.955-.853.28 0-.002c-.852-.277-1.696-.953-2.07-2.39" transform="matrix(1 0 0 -1 41.168 55.643)"/><path style="fill:none;stroke-width:.3985;stroke-linecap:butt;stroke-linejoin:miter;stroke:#000;stroke-opacity:1;stroke-miterlimit:10" d="M-8.899-.282C-29.383-1.712-44.75-19.24-43.536-39.685" transform="matrix(1 0 0 -1 50.27 9.491)"/><path style="fill:none;stroke-width:.3985;stroke-linecap:round;stroke-linejoin:round;stroke:#000;stroke-opacity:1;stroke-miterlimit:10" d="M-2.07 2.391C-1.693.955-.851.278-.001 0c-.85-.277-1.692-.955-2.07-2.389" transform="matrix(.06958 .99756 .99756 -.06958 6.747 49.376)"/><path style="fill:none;stroke-width:.3985;stroke-linecap:butt;stroke-linejoin:miter;stroke:#000;stroke-opacity:1;stroke-miterlimit:10" d="M-43.508-52.22c-1.43-20.484 13.793-38.137 34.215-39.773" transform="matrix(1 0 0 -1 50.27 9.491)"/><path style="fill:none;stroke-width:.3985;stroke-linecap:round;stroke-linejoin:round;stroke:#000;stroke-opacity:1;stroke-miterlimit:10" d="M-2.072 2.392C-1.693.958-.852.28-.002 0c-.85-.278-1.691-.956-2.069-2.388" transform="matrix(.99756 .06958 .06958 -.99756 41.173 101.5)"/></svg>