<svg xmlns="http://www.w3.org/2000/svg" xmlns:xlink="http://www.w3.org/1999/xlink" width="46.347" height="47.619" viewBox="0 0 34.76 35.714" version="1.2"><defs><symbol overflow="visible" id="a"><path style="stroke:none" d="M4.406-3.672c0-.531-.531-.812-1.062-.812-.688 0-1.094.5-1.313 1.125v-1.125l-1.656.078v.468c.61 0 .688 0 .688.391v3.078H.375V0l1.25-.031C2-.031 2.641-.031 3 0v-.469h-.86v-1.75c0-.687.235-1.906 1.235-1.906 0 0-.188.172-.188.453 0 .406.329.61.61.61.297 0 .61-.204.61-.61Zm0 0"/></symbol><symbol overflow="visible" id="b"><path style="stroke:none" d="M5.406-2.172c0-1.344-.922-2.344-2.547-2.344C1.22-4.516.313-3.5.313-2.172c0 1.235.89 2.235 2.546 2.235 1.672 0 2.547-1.016 2.547-2.235Zm-1.281-.11c0 .86 0 1.938-1.266 1.938-1.265 0-1.265-1.078-1.265-1.937 0-.453 0-.953.172-1.297.187-.375.609-.578 1.093-.578.422 0 .844.156 1.063.5.203.344.203.89.203 1.375Zm0 0"/></symbol><symbol overflow="visible" id="c"><path style="stroke:none" d="M3.813-1.234v-.532h-.47v.516c0 .672-.327.906-.609.906-.578 0-.578-.64-.578-.86v-2.75h1.469v-.468H2.156v-1.906h-.469c0 1-.484 1.984-1.484 2.016v.359h.828v2.734c0 1.063.86 1.282 1.578 1.282.75 0 1.204-.579 1.204-1.297Zm0 0"/></symbol><clipPath id="d"><path d="M0 5h20v30.57H0Zm0 0"/></clipPath><clipPath id="e"><path d="M14 5h20.64v30.57H14Zm0 0"/></clipPath></defs><g style="fill:#000;fill-opacity:1"><use xlink:href="#a" x="6.787" y="7.156"/><use xlink:href="#b" x="11.509" y="7.156"/></g><g style="fill:#000;fill-opacity:1"><use xlink:href="#b" x="17.557" y="7.156"/><use xlink:href="#c" x="23.285" y="7.156"/></g><path style="stroke:none;fill-rule:nonzero;fill:#000;fill-opacity:1" d="M5.082 32.371A1.99 1.99 0 0 0 3.09 30.38a1.993 1.993 0 1 0 1.992 1.992Zm8.824-21.637L3.09 32.371"/><g clip-path="url(#d)"><path style="fill:none;stroke-width:.3985;stroke-linecap:butt;stroke-linejoin:miter;stroke:#000;stroke-opacity:1;stroke-miterlimit:10" d="M-12.181-28.348a1.99 1.99 0 0 1-1.992 1.992 1.993 1.993 0 1 1 1.992-1.992Zm8.824 21.637-10.816-21.637" transform="matrix(1 0 0 -1 17.263 4.023)"/></g><path style="stroke:none;fill-rule:nonzero;fill:#000;fill-opacity:1" d="M33.43 32.371a1.993 1.993 0 1 0-3.986.002 1.993 1.993 0 0 0 3.986-.002ZM20.617 10.734l10.82 21.637"/><g clip-path="url(#e)"><path style="fill:none;stroke-width:.3985;stroke-linecap:butt;stroke-linejoin:miter;stroke:#000;stroke-opacity:1;stroke-miterlimit:10" d="M16.167-28.348a1.993 1.993 0 1 1-3.986-.002 1.993 1.993 0 0 1 3.986.002ZM3.354-6.711l10.82-21.637" transform="matrix(1 0 0 -1 17.263 4.023)"/></g></svg>