<svg xmlns="http://www.w3.org/2000/svg" xmlns:xlink="http://www.w3.org/1999/xlink" width="119.643" height="78.531" viewBox="0 0 89.732 58.898" version="1.2"><defs><symbol overflow="visible" id="b"><path style="stroke:none" d="M8.578 0v-.469H7.5v-5.906h1.078v-.469c-.39.032-1.36.032-1.797.032-.422 0-1.39 0-1.781-.032v.469h1.078v2.594H2.875v-2.594h1.078v-.469c-.375.032-1.344.032-1.781.032-.422 0-1.406 0-1.781-.032v.469h1.078v5.906H.39V0C.766-.031 1.75-.031 2.17-.031c.438 0 1.407 0 1.782.031v-.469H2.875v-2.844h3.203v2.844H5V0c.39-.031 1.36-.031 1.781-.031.438 0 1.407 0 1.797.031Zm0 0"/></symbol><symbol overflow="visible" id="c"><path style="stroke:none" d="M2.844 0v-.469h-.61v-4.015L.5-4.406v.468c.594 0 .656 0 .656.391v3.078H.47V0l1.219-.031Zm-.469-6.047a.774.774 0 0 0-.781-.781.784.784 0 0 0-.782.781c0 .422.36.766.782.766a.77.77 0 0 0 .781-.766Zm0 0"/></symbol><symbol overflow="visible" id="d"><path style="stroke:none" d="M2.531-6.313c0-.39-.36-.718-.781-.718-.438 0-.797.328-.797.718 0 .047 0 .079.031.172L1.5-2.516c.031.25.031.266.25.266.188 0 .219-.016.25-.219l.516-3.719ZM2.516-.78a.78.78 0 0 0-.766-.781.784.784 0 0 0-.781.78.774.774 0 1 0 1.547 0Zm0 0"/></symbol><clipPath id="a"><path d="M0 5h66v53.848H0Zm0 0"/></clipPath></defs><path style="fill:none;stroke-width:.19925;stroke-linecap:butt;stroke-linejoin:miter;stroke:gray;stroke-opacity:1;stroke-miterlimit:10" d="M0-.001h85.042M0 28.346h85.043M0 56.682h85.043M0 0v56.695M28.347-.001v56.695M56.695-.001v56.695M85.03-.001v56.695" transform="matrix(1 0 0 -1 3.45 57.733)"/><g clip-path="url(#a)"><path style="fill:none;stroke-width:.3985;stroke-linecap:butt;stroke-linejoin:miter;stroke:#000;stroke-opacity:1;stroke-miterlimit:10" d="M0-.001c0 56.695 28.347 56.695 56.695 28.347" transform="matrix(1 0 0 -1 3.45 57.733)"/></g><g style="fill:#000;fill-opacity:1"><use xlink:href="#b" x=".506" y="28.912"/><use xlink:href="#c" x="9.472" y="28.912"/><use xlink:href="#d" x="12.65" y="28.912"/></g></svg>