<svg xmlns="http://www.w3.org/2000/svg" xmlns:xlink="http://www.w3.org/1999/xlink" width="356.776" height="118.971" viewBox="0 0 267.582 89.228" version="1.2"><defs><symbol overflow="visible" id="a"><path style="stroke:none" d="M8.5 0v-.469h-.297c-.531 0-.562-.047-.672-.203L4.828-4.203l2.406-1.984c.22-.188.625-.188.938-.188h.156v-.469c-.39.032-.969.032-1.015.032-.375 0-1.094 0-1.454-.032v.469c.125 0 .329 0 .579.063.156.03.046.015.125.046L2.874-3.187v-3.188h1.078v-.469c-.375.032-1.344.032-1.781.032-.422 0-1.406 0-1.781-.032v.469h1.078v5.906H.39V0C.766-.031 1.75-.031 2.17-.031c.438 0 1.407 0 1.782.031v-.469H2.875v-2.094l1-.828L5.938-.687c.046.062.046.078.078.14-.188.078-.391.078-.735.078V0c.407-.031 1.313-.031 1.75-.031.407 0 1.094 0 1.469.031Zm0 0"/></symbol><symbol overflow="visible" id="b"><path style="stroke:none" d="M6.125 0v-.469h-.688v-2.578c0-1.047-.53-1.437-1.53-1.437-.954 0-1.485.562-1.75 1.078v-1.078l-1.704.078v.468c.61 0 .688 0 .688.391v3.078H.453V0l1.25-.031L2.953 0v-.469h-.687v-2.078c0-1.094.859-1.578 1.5-1.578.328 0 .546.203.546.969V-.47h-.687V0l1.25-.031Zm0 0"/></symbol><symbol overflow="visible" id="c"><path style="stroke:none" d="M6.125 0v-.469c-.61 0-.688 0-.688-.39v-3.625l-1.812.078v.468c.61 0 .688 0 .688.391v1.906c0 .813-.516 1.344-1.235 1.344-.781 0-.812-.25-.812-.797v-3.39l-1.813.078v.468c.61 0 .688 0 .688.391v2.328c0 1.063.796 1.282 1.796 1.282.25 0 .97 0 1.422-.782v.781Zm0 0"/></symbol><symbol overflow="visible" id="d"><path style="stroke:none" d="M3.813-1.234v-.532h-.47v.516c0 .672-.327.906-.609.906-.578 0-.578-.64-.578-.86v-2.75h1.469v-.468H2.156v-1.906h-.469c0 1-.484 1.984-1.484 2.016v.359h.828v2.734c0 1.063.86 1.282 1.578 1.282.75 0 1.204-.579 1.204-1.297Zm0 0"/></symbol><symbol overflow="visible" id="e"><path style="stroke:none" d="M6.125 0v-.469h-.688v-2.578c0-1.047-.53-1.437-1.53-1.437a1.9 1.9 0 0 0-1.688.953v-3.39l-1.766.077v.469c.61 0 .688 0 .688.39v5.516H.453V0l1.25-.031L2.953 0v-.469h-.687v-2.078c0-1.094.859-1.578 1.5-1.578.328 0 .546.203.546.969V-.47h-.687V0l1.25-.031Zm0 0"/></symbol><symbol overflow="visible" id="f"><path style="stroke:none" d="M7.5-1.86c0-.952-.844-1.624-2.031-1.702 1.078-.204 1.718-.797 1.718-1.563 0-.922-.875-1.719-2.468-1.719H.39v.469h1.078v5.906H.39V0h4.625C6.672 0 7.5-.875 7.5-1.86ZM5.766-5.124c0 .766-.47 1.39-1.438 1.39H2.766v-2.64h1.812c1.016 0 1.188.797 1.188 1.25Zm.28 3.266c0 .109 0 1.39-1.437 1.39H2.766v-2.906h1.937c.203 0 .672 0 1.016.422.328.422.328.984.328 1.094Zm0 0"/></symbol><symbol overflow="visible" id="g"><path style="stroke:none" d="M4.922-1.172c0-.172-.188-.172-.234-.172-.172 0-.188.047-.25.203-.204.485-.782.797-1.422.797-1.407 0-1.422-1.328-1.422-1.828h3.015c.22 0 .313 0 .313-.265 0-.313-.063-1.047-.563-1.547-.359-.36-.89-.532-1.578-.532C1.187-4.516.312-3.484.312-2.25c0 1.344 1 2.313 2.61 2.313 1.578 0 2-1.063 2-1.235ZM3.984-2.5h-2.39c.015-.39.031-.813.234-1.14.266-.391.672-.516.953-.516 1.172 0 1.188 1.312 1.203 1.656Zm0 0"/></symbol><symbol overflow="visible" id="h"><path style="stroke:none" d="M5.406-2.172c0-1.344-.922-2.344-2.547-2.344C1.22-4.516.313-3.5.313-2.172c0 1.235.89 2.235 2.546 2.235 1.672 0 2.547-1.016 2.547-2.235Zm-1.281-.11c0 .86 0 1.938-1.266 1.938-1.265 0-1.265-1.078-1.265-1.937 0-.453 0-.953.172-1.297.187-.375.609-.578 1.093-.578.422 0 .844.156 1.063.5.203.344.203.89.203 1.375Zm0 0"/></symbol><symbol overflow="visible" id="i"><path style="stroke:none" d="M2.922 0v-.469h-.688v-6.453L.47-6.844v.469c.625 0 .687 0 .687.39v5.516H.47V0l1.219-.031Zm0 0"/></symbol><symbol overflow="visible" id="j"><path style="stroke:none" d="M4.406-3.672c0-.531-.531-.812-1.062-.812-.688 0-1.094.5-1.313 1.125v-1.125l-1.656.078v.468c.61 0 .688 0 .688.391v3.078H.375V0l1.25-.031C2-.031 2.641-.031 3 0v-.469h-.86v-1.75c0-.687.235-1.906 1.235-1.906 0 0-.188.172-.188.453 0 .406.329.61.61.61.297 0 .61-.204.61-.61Zm0 0"/></symbol><symbol overflow="visible" id="k"><path style="stroke:none" d="M9.328 0v-.469h-.687v-2.578c0-1.031-.516-1.437-1.547-1.437-.907 0-1.422.5-1.688.953-.187-.922-1.11-.953-1.484-.953-.875 0-1.438.453-1.766 1.078v-1.078l-1.703.078v.468c.61 0 .688 0 .688.391v3.078H.453V0l1.25-.031L2.953 0v-.469h-.687v-2.078c0-1.094.875-1.578 1.5-1.578.328 0 .546.203.546.969V-.47h-.687V0l1.266-.031L6.14 0v-.469h-.688v-2.078c0-1.094.86-1.578 1.484-1.578.344 0 .563.203.563.969V-.47h-.688V0l1.25-.031Zm0 0"/></symbol><symbol overflow="visible" id="l"><path style="stroke:none" d="M5.516-.234c0-.235-.125-.235-.266-.235-.61-.015-.61-.14-.61-.375v-2.14c0-.891-.702-1.532-2.187-1.532-.562 0-1.781.047-1.781.922 0 .438.344.625.61.625.312 0 .624-.219.624-.625 0-.297-.187-.469-.218-.5a5.28 5.28 0 0 1 .718-.062c.75 0 1.11.422 1.11 1.172v.343c-.72.032-3.25.125-3.25 1.563C.266-.125 1.5.062 2.187.062c.797 0 1.266-.406 1.485-.828 0 .313 0 .766 1.047.766h.468c.204 0 .329 0 .329-.234Zm-2-1.157c0 .97-.922 1.094-1.172 1.094-.516 0-.906-.344-.906-.797 0-1.062 1.578-1.203 2.078-1.234Zm0 0"/></symbol><symbol overflow="visible" id="m"><path style="stroke:none" d="M7.64-2.266c0-.203-.077-.203-.25-.203-.124 0-.218 0-.218.172C7.094-.969 5.89-.359 4.89-.359c-.782 0-1.625-.235-2.141-.844-.469-.578-.594-1.313-.594-2.219 0-.562.031-1.625.672-2.297.64-.656 1.516-.765 2.031-.765 1.079 0 2.016.765 2.235 2.03.031.188.047.204.265.204.266 0 .282-.016.282-.281v-2.14c0-.188 0-.282-.188-.282-.094 0-.11.031-.187.094l-.657.593a3.03 3.03 0 0 0-1.968-.687c-2.485 0-4 1.484-4 3.531S2.156.11 4.64.11c1.875 0 3-1.218 3-2.375Zm0 0"/></symbol><symbol overflow="visible" id="n"><path style="stroke:none" d="M4.14-1.39c0-.438-.202-.782-.546-1.063-.39-.281-.719-.344-1.485-.485-.375-.062-1.015-.171-1.015-.64 0-.625.922-.625 1.11-.625.75 0 1.124.297 1.171.844.016.156.031.203.234.203.235 0 .235-.047.235-.281v-.797c0-.188 0-.282-.172-.282-.047 0-.063 0-.453.188-.266-.125-.61-.188-1-.188-.313 0-1.844 0-1.844 1.313 0 .39.203.656.406.828.39.344.781.406 1.547.547.36.062 1.094.187 1.094.781 0 .75-.906.75-1.125.75C1.234-.297.984-1.03.859-1.453c-.046-.14-.109-.14-.234-.14-.25 0-.25.062-.25.28v1.094c0 .188 0 .281.188.281.062 0 .078 0 .296-.156l.25-.172c.47.329.985.329 1.188.329.312 0 1.844 0 1.844-1.454Zm0 0"/></symbol><symbol overflow="visible" id="o"><path style="stroke:none" d="m7.547-4.328-.203-2.406H.625L.422-4.328H.89c.093-1.125.187-1.938 1.625-1.938h.765v5.797H1.75V0c.547-.031 1.656-.031 2.234-.031.594 0 1.704 0 2.235.031v-.469H4.687v-5.797h.766c1.422 0 1.531.797 1.625 1.938Zm0 0"/></symbol><symbol overflow="visible" id="p"><path style="stroke:none" d="M5.984-2.219c0-1.328-.937-2.265-2.39-2.265-.719 0-1.219.28-1.453.484v-2.922l-1.766.078v.469c.61 0 .688 0 .688.39V0h.468c.157-.188.328-.375.485-.563.078.079.562.625 1.453.625 1.484 0 2.515-.906 2.515-2.28Zm-1.28 0c0 .469 0 1.016-.25 1.406-.298.407-.75.516-1.079.516-.688 0-1.078-.547-1.188-.687v-2.5c.282-.36.75-.641 1.297-.641 1.22 0 1.22 1.203 1.22 1.906Zm0 0"/></symbol><symbol overflow="visible" id="q"><path style="stroke:none" d="M2.844 0v-.469h-.61v-4.015L.5-4.406v.468c.594 0 .656 0 .656.391v3.078H.47V0l1.219-.031Zm-.469-6.047a.774.774 0 0 0-.781-.781.784.784 0 0 0-.782.781c0 .422.36.766.782.766a.77.77 0 0 0 .781-.766Zm0 0"/></symbol><symbol overflow="visible" id="r"><path style="stroke:none" d="M7.188-4.89c0-1.094-.985-1.954-2.641-1.954H.39v.469h1.078v5.906H.39V0C.766-.031 1.75-.031 2.17-.031c.438 0 1.407 0 1.782.031v-.469H2.875v-2.547h1.766c1.39 0 2.546-.718 2.546-1.875Zm-1.532 0c0 .702 0 1.468-1.5 1.468H2.828v-2.953h1.344c1.484 0 1.484.766 1.484 1.484Zm0 0"/></symbol><symbol overflow="visible" id="s"><path style="stroke:none" d="M6.406-2.734h-.468c-.079.687-.25 2.265-2.032 2.265H2.875v-5.906h1.36v-.469c-.454.032-1.532.032-2.016.032-.438 0-1.453 0-1.828-.032v.469h1.078v5.906H.39V0h5.703Zm0 0"/></symbol><symbol overflow="visible" id="t"><path style="stroke:none" d="M5.984-2.219c0-1.328-.906-2.265-2.343-2.265-.75 0-1.282.312-1.5.484v-.484l-1.766.078v.468c.61 0 .688 0 .688.376v5.03H.375v.47l1.25-.032 1.25.032v-.47h-.688V-.39A2.01 2.01 0 0 0 3.47.063c1.5 0 2.515-.907 2.515-2.282Zm-1.28 0C4.703-.813 4-.297 3.358-.297c-.14 0-.609 0-1.062-.547-.11-.125-.11-.14-.11-.328v-2.11c0-.187.016-.202.157-.343.39-.406.922-.469 1.14-.469.657 0 1.22.61 1.22 1.875Zm0 0"/></symbol><symbol overflow="visible" id="u"><path style="stroke:none" d="M5.719-2.031c0-1.094-.797-1.906-1.719-2.094l-1.438-.313c-.406-.093-.953-.421-.953-1.03 0-.438.282-1.048 1.266-1.048.797 0 1.813.329 2.047 1.688.031.25.031.266.234.266.25 0 .25-.047.25-.282v-1.828c0-.187 0-.281-.187-.281-.078 0-.078.016-.188.11l-.453.437C4-6.86 3.344-6.953 2.875-6.953c-1.516 0-2.234.969-2.234 2.016 0 .64.328 1.093.53 1.312.5.5.829.563 1.923.797.875.203 1.047.219 1.265.437.141.141.391.407.391.86 0 .484-.25 1.172-1.297 1.172-.75 0-2.265-.204-2.344-1.688-.015-.172-.015-.219-.234-.219-.234 0-.234.047-.234.282v1.812C.64.016.64.11.812.11.906.11.922.094 1 .016l.469-.454C2.125.047 3.047.11 3.453.11 5.11.11 5.72-1.016 5.72-2.03Zm0 0"/></symbol><symbol overflow="visible" id="v"><path style="stroke:none" d="M5.781-3.953v-.469c-.25.016-.531.031-.781.031l-.906-.03v.468c.187 0 .468.031.468.11 0 0 0 .015-.046.109l-1.157 2.5-1.265-2.72h.531v-.468l-1.234.031-1.125-.03v.468H.89l1.75 3.75c.125.25.25.25.375.25.171 0 .28-.031.375-.25L5.047-3.75c.062-.14.094-.203.734-.203Zm0 0"/></symbol><symbol overflow="visible" id="w"><path style="stroke:none" d="M5.86 0v-.469h-.173c-.437 0-.468-.047-.593-.203L3.406-2.766 4.703-3.78c.14-.11.234-.172.906-.172v-.469c-.28.031-.53.031-.78.031l-1.157-.03v.468c.234 0 .265.031.344.11L2.14-2.36v-4.563l-1.766.078v.469c.61 0 .688 0 .688.39v5.516H.375V0l1.188-.031L2.766 0v-.469h-.688v-1.265c.297-.235.375-.297.578-.422l1 1.25c.094.125.25.312.25.344 0 .093-.172.093-.312.093V0a52.51 52.51 0 0 1 1.219-.031c.359 0 .703.015 1.046.031Zm0 0"/></symbol></defs><path style="fill:none;stroke-width:.3985;stroke-linecap:butt;stroke-linejoin:miter;stroke:#000;stroke-opacity:1;stroke-miterlimit:10" d="M107.657 28.877c1.226-.234 2.3 2.098 3.523 1.867.887-.168 1.422-1.507 1.985-2.914.558-1.402 1.093-2.742 1.98-2.91 1.223-.23 2.3 2.098 3.524 1.867l3.238-.613" transform="matrix(1 0 0 -1 .601 43.764)"/><path style="fill-rule:nonzero;fill:#000;fill-opacity:1;stroke-width:.3985;stroke-linecap:butt;stroke-linejoin:round;stroke:#000;stroke-opacity:1;stroke-miterlimit:10" d="M4.215-.002.643 1.344 1.817 0 .645-1.347Zm0 0" transform="matrix(.9824 .18648 .18648 -.9824 120.82 17.271)"/><path style="fill:none;stroke-width:.3985;stroke-linecap:butt;stroke-linejoin:miter;stroke:#000;stroke-opacity:1;stroke-miterlimit:10" d="M192.102 25.502c1.223.23 1.367 2.797 2.59 3.028.887.168 1.879-.88 2.914-1.98 1.035-1.102 2.027-2.15 2.914-1.981 1.223.234 1.367 2.797 2.59 3.027l3.164.605" transform="matrix(1 0 0 -1 .601 43.764)"/><path style="fill-rule:nonzero;fill:#000;fill-opacity:1;stroke-width:.3985;stroke-linecap:butt;stroke-linejoin:round;stroke:#000;stroke-opacity:1;stroke-miterlimit:10" d="M4.215-.001.642 1.347 1.817-.002.642-1.345Zm0 0" transform="scale(.99997 -.99997) rotate(10.782 186.766 1079.284)"/><path style="fill:none;stroke-width:.3985;stroke-linecap:butt;stroke-linejoin:miter;stroke:#000;stroke-opacity:1;stroke-miterlimit:10" d="M100.985-28.709c1.215.278 1.262 2.844 2.477 3.125.874.203 1.906-.808 2.984-1.867 1.078-1.062 2.105-2.07 2.984-1.87.88.202 1.364 1.562 1.871 2.987.504 1.422.989 2.782 1.868 2.985 1.214.281 2.378-2.008 3.593-1.727l3.203.735" transform="matrix(1 0 0 -1 .601 43.764)"/><path style="fill-rule:nonzero;fill:#000;fill-opacity:1;stroke-width:.3985;stroke-linecap:butt;stroke-linejoin:round;stroke:#000;stroke-opacity:1;stroke-miterlimit:10" d="M4.213 0 .643 1.345 1.815 0 .644-1.346Zm0 0" transform="scale(.99997 -.99997) rotate(12.969 360.753 488.79)"/><path style="fill:none;stroke-width:.3985;stroke-linecap:butt;stroke-linejoin:miter;stroke:#000;stroke-opacity:1;stroke-miterlimit:10" d="M161.715-16.295c1.23.184 1.48 2.743 2.711 2.922.895.137 1.84-.953 2.832-2.093.993-1.141 1.938-2.23 2.832-2.098.891.133 1.48 1.45 2.094 2.832.617 1.379 1.207 2.695 2.098 2.828.89.133 1.84-.953 2.828-2.094.992-1.144 1.941-2.23 2.832-2.097.89.132 1.48 1.449 2.098 2.832.613 1.379 1.203 2.695 2.093 2.828.895.133 1.84-.953 2.832-2.098.993-1.14 1.938-2.226 2.829-2.094.894.133 1.484 1.45 2.097 2.829.617 1.382 1.203 2.699 2.098 2.832.89.132 1.84-.954 2.828-2.098.992-1.14 1.941-2.227 2.832-2.094 1.23.184 1.48 2.738 2.71 2.922l3.427.508" transform="matrix(1 0 0 -1 .601 43.764)"/><path style="fill-rule:nonzero;fill:#000;fill-opacity:1;stroke-width:.3985;stroke-linecap:butt;stroke-linejoin:round;stroke:#000;stroke-opacity:1;stroke-miterlimit:10" d="M4.215.001.643 1.347 1.817 0 .645-1.347Zm0 0" transform="scale(.99993 -.99993) rotate(8.475 465.044 1354.478)"/><path style="fill:none;stroke-width:.3985;stroke-linecap:butt;stroke-linejoin:miter;stroke:#000;stroke-opacity:1;stroke-miterlimit:10" d="M161.715-22.209c1.23-.195 2.235 2.168 3.465 1.977.89-.14 1.469-1.465 2.07-2.848.606-1.386 1.184-2.71 2.075-2.851.89-.14 1.847.941 2.847 2.074s1.957 2.21 2.848 2.07c.89-.14 1.469-1.46 2.07-2.847.606-1.387 1.184-2.707 2.075-2.848.89-.14 1.847.937 2.847 2.07 1 1.133 1.957 2.215 2.848 2.074.89-.14 1.469-1.464 2.074-2.851.602-1.383 1.18-2.707 2.07-2.848.891-.14 1.848.942 2.848 2.074 1 1.133 1.957 2.211 2.848 2.07.89-.14 1.469-1.46 2.074-2.847.602-1.387 1.18-2.707 2.07-2.848 1.23-.195 2.235 2.168 3.465 1.973l3.48-.55" transform="matrix(1 0 0 -1 .601 43.764)"/><path style="fill-rule:nonzero;fill:#000;fill-opacity:1;stroke-width:.3985;stroke-linecap:butt;stroke-linejoin:round;stroke:#000;stroke-opacity:1;stroke-miterlimit:10" d="M4.213 0 .643 1.348 1.815-.002.645-1.346Zm0 0" transform="matrix(.98775 .15596 .15596 -.98775 204.694 72.66)"/><path style="fill:none;stroke-width:.3985;stroke-linecap:butt;stroke-linejoin:miter;stroke:#000;stroke-opacity:1;stroke-miterlimit:10" d="M39.774 9.315c1.094.59.457 3.078 1.55 3.672.794.43 2.055-.27 3.376-1.008 1.32-.735 2.582-1.434 3.375-1.004.793.43.898 1.871 1.004 3.379.11 1.508.215 2.945 1.008 3.375.792.43 2.054-.27 3.374-1.004 1.32-.734 2.583-1.434 3.376-1.004 1.093.59.457 3.078 1.55 3.672l4.371 2.363" transform="matrix(1 0 0 -1 .601 43.764)"/><path style="fill-rule:nonzero;fill:#000;fill-opacity:1;stroke-width:.3985;stroke-linecap:butt;stroke-linejoin:round;stroke:#000;stroke-opacity:1;stroke-miterlimit:10" d="M4.215.002.643 1.345 1.815-.001.642-1.347Zm0 0" transform="scale(.99993 -.99993) rotate(28.429 75.983 110.679)"/><path style="fill:none;stroke-width:.3985;stroke-linecap:butt;stroke-linejoin:miter;stroke:#000;stroke-opacity:1;stroke-miterlimit:10" d="M39.438-9.646c1.082-.617 2.86 1.234 3.941.617.782-.445.852-1.887.926-3.398.07-1.508.14-2.95.926-3.399.781-.445 2.059.223 3.398.926 1.336.703 2.614 1.375 3.399.926.781-.446.851-1.887.926-3.399.07-1.508.14-2.949.925-3.398 1.083-.617 2.856 1.234 3.938.617l4.117-2.355" transform="matrix(1 0 0 -1 .601 43.764)"/><path style="fill-rule:nonzero;fill:#000;fill-opacity:1;stroke-width:.3985;stroke-linecap:butt;stroke-linejoin:round;stroke:#000;stroke-opacity:1;stroke-miterlimit:10" d="M4.215 0 .642 1.344 1.816 0 .642-1.346Zm0 0" transform="matrix(.86809 .49632 .49632 -.86809 61.044 65.419)"/><path style="stroke:none;fill-rule:nonzero;fill:#8080ff;fill-opacity:1" d="m45.543 39.902-5.89-5.89H6.69l-5.89 5.89v7.723l5.89 5.89h32.961l5.891-5.89Zm0 0"/><g style="fill:#fff;fill-opacity:1"><use xlink:href="#a" x="7.067" y="47.191"/><use xlink:href="#b" x="16.043" y="47.191"/></g><g style="fill:#fff;fill-opacity:1"><use xlink:href="#c" x="22.091" y="47.191"/><use xlink:href="#d" x="28.457" y="47.191"/><use xlink:href="#e" x="32.91" y="47.191"/></g><path style="stroke:none;fill-rule:nonzero;fill:#8080ff;fill-opacity:1" d="m108.617 6.602-2.949-2.946-2.945-2.945H66.777l-2.945 2.945-2.95 2.946v7.644l2.95 2.945 2.945 2.95h35.946l2.945-2.95 2.95-2.945Zm0 0"/><g style="fill:#fff;fill-opacity:1"><use xlink:href="#f" x="67.151" y="13.813"/><use xlink:href="#g" x="75.3" y="13.813"/><use xlink:href="#g" x="80.551" y="13.813"/><use xlink:href="#d" x="85.801" y="13.813"/><use xlink:href="#h" x="90.254" y="13.813"/><use xlink:href="#b" x="95.983" y="13.813"/></g><path style="stroke:none;fill-rule:nonzero;fill:#8080ff;fill-opacity:1" d="M194.895 20.738 189 14.844h-59.148l-2.95 2.945-2.945 2.95v7.722l2.945 2.945 2.95 2.946H189l2.945-2.946 2.95-2.945Zm0 0"/><g style="fill:#fff;fill-opacity:1"><use xlink:href="#a" x="130.225" y="28.026"/><use xlink:href="#g" x="139.201" y="28.026"/><use xlink:href="#i" x="144.452" y="28.026"/><use xlink:href="#i" x="147.63" y="28.026"/><use xlink:href="#g" x="150.808" y="28.026"/><use xlink:href="#j" x="156.058" y="28.026"/><use xlink:href="#k" x="160.78" y="28.026"/><use xlink:href="#l" x="170.325" y="28.026"/><use xlink:href="#b" x="175.894" y="28.026"/><use xlink:href="#b" x="182.26" y="28.026"/></g><path style="stroke:none;fill-rule:nonzero;fill:#8080ff;fill-opacity:1" d="m257.477 6.523-5.891-5.89h-35.461l-5.89 5.89v7.805l5.89 5.89h35.46l5.892-5.89Zm0 0"/><g style="fill:#fff;fill-opacity:1"><use xlink:href="#m" x="216.501" y="13.842"/><use xlink:href="#l" x="224.78" y="13.842"/><use xlink:href="#j" x="230.349" y="13.842"/><use xlink:href="#b" x="235.071" y="13.842"/><use xlink:href="#g" x="241.437" y="13.842"/><use xlink:href="#n" x="246.688" y="13.842"/></g><path style="stroke:none;fill-rule:nonzero;fill:#8080ff;fill-opacity:1" d="m102.07 73.242-2.945-2.949-2.945-2.945H66.777l-5.894 5.894v7.723l2.949 2.945 2.945 2.945H96.18l5.89-5.89Zm0 0"/><use xlink:href="#o" x="67.151" y="80.529" style="fill:#fff;fill-opacity:1"/><g style="fill:#fff;fill-opacity:1"><use xlink:href="#h" x="74.165" y="80.529"/><use xlink:href="#p" x="79.893" y="80.529"/><use xlink:href="#q" x="86.259" y="80.529"/><use xlink:href="#b" x="89.437" y="80.529"/></g><path style="stroke:none;fill-rule:nonzero;fill:#8080ff;fill-opacity:1" d="m162.117 59.066-2.949-2.945-2.945-2.945h-26.371l-2.95 2.945-2.945 2.945v7.723l2.945 2.95 2.95 2.945h26.37l5.895-5.895Zm0 0"/><g style="fill:#fff;fill-opacity:1"><use xlink:href="#r" x="130.225" y="66.356"/><use xlink:href="#i" x="138.056" y="66.356"/><use xlink:href="#l" x="141.234" y="66.356"/><use xlink:href="#n" x="146.803" y="66.356"/><use xlink:href="#n" x="151.326" y="66.356"/></g><path style="stroke:none;fill-rule:nonzero;fill:#8080ff;fill-opacity:1" d="m266.363 43.977-2.945-2.946-2.945-2.949h-44.348l-2.945 2.95-2.946 2.945v9.515l5.891 5.89h44.348l5.89-5.89Zm0 0"/><g style="fill:#fff;fill-opacity:1"><use xlink:href="#s" x="216.501" y="51.185"/><use xlink:href="#l" x="223.395" y="51.185"/><use xlink:href="#k" x="228.964" y="51.185"/><use xlink:href="#t" x="238.508" y="51.185"/></g><g style="fill:#fff;fill-opacity:1"><use xlink:href="#h" x="245.193" y="51.185"/><use xlink:href="#j" x="250.922" y="51.185"/><use xlink:href="#d" x="255.644" y="51.185"/></g><path style="stroke:none;fill-rule:nonzero;fill:#8080ff;fill-opacity:1" d="m255.703 72.309-5.89-5.891h-33.688l-5.89 5.89v9.63l5.89 5.89h33.688l5.89-5.89Zm0 0"/><g style="fill:#fff;fill-opacity:1"><use xlink:href="#u" x="216.501" y="79.629"/><use xlink:href="#t" x="222.867" y="79.629"/><use xlink:href="#q" x="229.233" y="79.629"/><use xlink:href="#v" x="232.411" y="79.629"/></g><g style="fill:#fff;fill-opacity:1"><use xlink:href="#l" x="237.821" y="79.629"/><use xlink:href="#w" x="243.39" y="79.629"/></g></svg>