<svg xmlns="http://www.w3.org/2000/svg" xmlns:xlink="http://www.w3.org/1999/xlink" width="117.567" height="112.299" viewBox="0 0 88.175 84.224" version="1.2"><defs><clipPath id="b"><path d="M0 0h87.762v83.836H0Zm0 0"/></clipPath><clipPath id="a"><path d="M0 0h88v84H0z"/></clipPath><g id="c" clip-path="url(#a)"><path style="stroke:none;fill-rule:nonzero;comp-op:screen;fill:#e50000;fill-opacity:1" d="M72.02 28.977C72.02 13.32 59.328.629 43.672.629c-15.656 0-28.348 12.691-28.348 28.348 0 15.656 12.692 28.347 28.348 28.347 15.656 0 28.348-12.691 28.348-28.347Zm0 0"/><path style="stroke:none;fill-rule:nonzero;comp-op:screen;fill:#0c0;fill-opacity:1" d="M57.29 54.488c0-15.656-12.692-28.347-28.349-28.347C13.29 26.14.598 38.832.598 54.488c0 15.657 12.691 28.348 28.343 28.348 15.657 0 28.348-12.691 28.348-28.348Zm0 0"/><path style="stroke:none;fill-rule:nonzero;comp-op:screen;fill:#0000e5;fill-opacity:1" d="M86.75 54.488c0-15.656-12.691-28.347-28.348-28.347-15.656 0-28.347 12.691-28.347 28.347 0 15.657 12.691 28.348 28.347 28.348 15.657 0 28.348-12.691 28.348-28.348Zm0 0"/></g></defs><g clip-path="url(#b)"><use xlink:href="#c"/></g></svg>