<svg xmlns="http://www.w3.org/2000/svg" width="70.963" height="73.635" viewBox="0 0 53.222 55.226" version="1.2"><defs><clipPath id="a"><path d="M2 39h16v15.84H2Zm0 0"/></clipPath><clipPath id="b"><path d="M40 41h12.832v13.84H40Zm0 0"/></clipPath><clipPath id="c"><path d="M37 26h15.832v16H37Zm0 0"/></clipPath><clipPath id="d"><path d="M38 2h14.832v16H38Zm0 0"/></clipPath><clipPath id="e"><path d="M18 44h16v10.84H18Zm0 0"/></clipPath><clipPath id="f"><path d="M38 5h14.832v16H38Zm0 0"/></clipPath><clipPath id="g"><path d="M3 41h16v13.84H3Zm0 0"/></clipPath><clipPath id="h"><path d="M41 6h11.832v16H41Zm0 0"/></clipPath><clipPath id="i"><path d="M37 18h15.832v16H37Zm0 0"/></clipPath><clipPath id="j"><path d="M37 32h15.832v16H37Zm0 0"/></clipPath><clipPath id="k"><path d="M33 43h16v11.84H33Zm0 0"/></clipPath><clipPath id="l"><path d="M39 9h13.832v16H39Zm0 0"/></clipPath><clipPath id="m"><path d="M42 36h10.832v16H42Zm0 0"/></clipPath><clipPath id="n"><path d="M38 38h14.832v16H38Zm0 0"/></clipPath></defs><path style="fill-rule:nonzero;fill:#99f;fill-opacity:1;stroke-width:.3985;stroke-linecap:butt;stroke-linejoin:miter;stroke:#00c;stroke-opacity:1;stroke-miterlimit:10" d="M37.859 14.945a1.99 1.99 0 0 1-1.992 1.992 1.99 1.99 0 0 1-1.992-1.992 1.99 1.99 0 0 1 1.992-1.993 1.99 1.99 0 0 1 1.992 1.993ZM32.878 30.886a1.996 1.996 0 0 1-1.992 1.992 1.996 1.996 0 0 1-1.996-1.992 1.994 1.994 0 0 1 3.988 0ZM40.847 28.894a1.993 1.993 0 1 1-1.992-1.996c1.102 0 1.992.894 1.992 1.996ZM6.972 44.831a1.993 1.993 0 1 1-3.983-.002 1.993 1.993 0 0 1 3.983.002Zm0 0" transform="matrix(1 0 0 -1 1.813 52.636)"/><path style="fill-rule:nonzero;fill:#99f;fill-opacity:1;stroke-width:.3985;stroke-linecap:butt;stroke-linejoin:miter;stroke:#00c;stroke-opacity:1;stroke-miterlimit:10" d="M3.984 45.827a1.99 1.99 0 0 1-1.992 1.993 1.993 1.993 0 1 1 1.992-1.992ZM25.902 14.945a1.993 1.993 0 1 1-3.983-.002 1.993 1.993 0 0 1 3.983.002ZM6.972 8.968a1.993 1.993 0 1 1-3.986-.002 1.993 1.993 0 0 1 3.986.002ZM25.902 37.859a1.993 1.993 0 1 1-3.983-.002 1.993 1.993 0 0 1 3.983.002Zm0 0" transform="matrix(1 0 0 -1 1.813 52.636)"/><path style="stroke:none;fill-rule:nonzero;fill:#99f;fill-opacity:1" d="M11.777 46.66a1.996 1.996 0 0 0-1.992-1.996A1.997 1.997 0 0 0 7.79 46.66c0 1.098.895 1.992 1.996 1.992a1.996 1.996 0 0 0 1.992-1.992Zm0 0"/><g clip-path="url(#a)"><path style="fill:none;stroke-width:.3985;stroke-linecap:butt;stroke-linejoin:miter;stroke:#00c;stroke-opacity:1;stroke-miterlimit:10" d="M9.964 5.976a1.996 1.996 0 0 1-1.992 1.996 1.997 1.997 0 0 1-1.996-1.996c0-1.098.895-1.992 1.996-1.992 1.098 0 1.992.894 1.992 1.992Zm0 0" transform="matrix(1 0 0 -1 1.813 52.636)"/></g><path style="fill-rule:nonzero;fill:#99f;fill-opacity:1;stroke-width:.3985;stroke-linecap:butt;stroke-linejoin:miter;stroke:#00c;stroke-opacity:1;stroke-miterlimit:10" d="M33.874 49.816a1.993 1.993 0 0 1-3.984 0c0-1.102.89-1.996 1.992-1.996 1.098 0 1.992.894 1.992 1.996ZM15.94 6.976A1.993 1.993 0 1 1 13.95 4.98c1.101 0 1.992.894 1.992 1.996Zm0 0" transform="matrix(1 0 0 -1 1.813 52.636)"/><path style="stroke:none;fill-rule:nonzero;fill:#99f;fill-opacity:1" d="M49.633 48.652a1.993 1.993 0 1 0-3.983.002 1.993 1.993 0 0 0 3.983-.002Zm0 0"/><g clip-path="url(#b)"><path style="fill:none;stroke-width:.3985;stroke-linecap:butt;stroke-linejoin:miter;stroke:#00c;stroke-opacity:1;stroke-miterlimit:10" d="M47.82 3.984a1.993 1.993 0 1 1-3.983-.002 1.993 1.993 0 0 1 3.983.002Zm0 0" transform="matrix(1 0 0 -1 1.813 52.636)"/></g><path style="stroke:none;fill-rule:nonzero;fill:#99f;fill-opacity:1" d="M46.645 33.707a1.99 1.99 0 0 0-1.993-1.992 1.99 1.99 0 0 0-1.992 1.992 1.99 1.99 0 0 0 1.992 1.992 1.99 1.99 0 0 0 1.993-1.992Zm0 0"/><g clip-path="url(#c)"><path style="fill:none;stroke-width:.3985;stroke-linecap:butt;stroke-linejoin:miter;stroke:#00c;stroke-opacity:1;stroke-miterlimit:10" d="M44.832 18.929a1.99 1.99 0 0 1-1.993 1.992 1.99 1.99 0 0 1-1.992-1.992 1.99 1.99 0 0 1 1.992-1.992 1.99 1.99 0 0 1 1.993 1.992Zm0 0" transform="matrix(1 0 0 -1 1.813 52.636)"/></g><path style="fill-rule:nonzero;fill:#99f;fill-opacity:1;stroke-width:.3985;stroke-linecap:butt;stroke-linejoin:miter;stroke:#00c;stroke-opacity:1;stroke-miterlimit:10" d="M15.94 30.886a1.993 1.993 0 1 1-3.985-.002 1.993 1.993 0 0 1 3.986.002ZM40.847 39.85a1.99 1.99 0 0 1-1.992 1.993 1.99 1.99 0 0 1-1.992-1.992 1.99 1.99 0 0 1 1.992-1.992 1.99 1.99 0 0 1 1.992 1.992ZM2.988 45.827A1.99 1.99 0 0 1 .996 47.82a1.993 1.993 0 1 1 1.992-1.992ZM30.886 35.866a1.994 1.994 0 0 1-3.988 0 1.994 1.994 0 0 1 3.988 0ZM34.87 9.964a1.993 1.993 0 1 1-3.983-.002 1.993 1.993 0 0 1 3.984.002ZM18.93 16.937a1.99 1.99 0 0 1-1.993 1.992 1.99 1.99 0 0 1-1.992-1.992 1.99 1.99 0 0 1 1.992-1.992 1.99 1.99 0 0 1 1.992 1.992ZM36.863 22.913a1.993 1.993 0 1 1-3.986-.001 1.993 1.993 0 0 1 3.986.001Zm0 0" transform="matrix(1 0 0 -1 1.813 52.636)"/><path style="stroke:none;fill-rule:nonzero;fill:#99f;fill-opacity:1" d="M47.64 9.797a1.99 1.99 0 0 0-1.992-1.992 1.99 1.99 0 0 0-1.992 1.992 1.99 1.99 0 0 0 1.992 1.992 1.99 1.99 0 0 0 1.993-1.992Zm0 0"/><g clip-path="url(#d)"><path style="fill:none;stroke-width:.3985;stroke-linecap:butt;stroke-linejoin:miter;stroke:#00c;stroke-opacity:1;stroke-miterlimit:10" d="M45.828 42.84a1.99 1.99 0 0 1-1.993 1.991 1.99 1.99 0 0 1-1.992-1.992 1.99 1.99 0 0 1 1.992-1.992 1.99 1.99 0 0 1 1.993 1.992Zm0 0" transform="matrix(1 0 0 -1 1.813 52.636)"/></g><path style="fill-rule:nonzero;fill:#99f;fill-opacity:1;stroke-width:.3985;stroke-linecap:butt;stroke-linejoin:miter;stroke:#00c;stroke-opacity:1;stroke-miterlimit:10" d="M40.847 15.94a1.99 1.99 0 0 1-1.992 1.993 1.99 1.99 0 0 1-1.992-1.992 1.99 1.99 0 0 1 1.992-1.993 1.99 1.99 0 0 1 1.992 1.993Zm0 0" transform="matrix(1 0 0 -1 1.813 52.636)"/><path style="stroke:none;fill-rule:nonzero;fill:#99f;fill-opacity:1" d="M27.715 51.64a1.993 1.993 0 1 0-3.983.002 1.993 1.993 0 0 0 3.983-.001Zm0 0"/><g clip-path="url(#e)"><path style="fill:none;stroke-width:.3985;stroke-linecap:butt;stroke-linejoin:miter;stroke:#00c;stroke-opacity:1;stroke-miterlimit:10" d="M25.902.995a1.993 1.993 0 1 1-3.983-.002 1.993 1.993 0 0 1 3.983.002Zm0 0" transform="matrix(1 0 0 -1 1.813 52.636)"/></g><path style="stroke:none;fill-rule:nonzero;fill:#99f;fill-opacity:1" d="M47.64 12.785a1.99 1.99 0 0 0-1.992-1.992 1.99 1.99 0 0 0-1.992 1.992 1.99 1.99 0 0 0 1.992 1.992 1.99 1.99 0 0 0 1.993-1.992Zm0 0"/><g clip-path="url(#f)"><path style="fill:none;stroke-width:.3985;stroke-linecap:butt;stroke-linejoin:miter;stroke:#00c;stroke-opacity:1;stroke-miterlimit:10" d="M45.828 39.85a1.99 1.99 0 0 1-1.993 1.993 1.99 1.99 0 0 1-1.992-1.992 1.99 1.99 0 0 1 1.992-1.992 1.99 1.99 0 0 1 1.993 1.992Zm0 0" transform="matrix(1 0 0 -1 1.813 52.636)"/></g><path style="stroke:none;fill-rule:nonzero;fill:#99f;fill-opacity:1" d="M12.773 48.652a1.994 1.994 0 0 0-3.988 0c0 1.098.895 1.993 1.996 1.993a1.996 1.996 0 0 0 1.992-1.993Zm0 0"/><g clip-path="url(#g)"><path style="fill:none;stroke-width:.3985;stroke-linecap:butt;stroke-linejoin:miter;stroke:#00c;stroke-opacity:1;stroke-miterlimit:10" d="M10.96 3.984a1.994 1.994 0 0 1-3.988 0c0-1.098.895-1.993 1.996-1.993 1.098 0 1.992.895 1.992 1.993Zm0 0" transform="matrix(1 0 0 -1 1.813 52.636)"/></g><path style="fill-rule:nonzero;fill:#99f;fill-opacity:1;stroke-width:.3985;stroke-linecap:butt;stroke-linejoin:miter;stroke:#00c;stroke-opacity:1;stroke-miterlimit:10" d="M35.867 27.894a1.996 1.996 0 0 1-1.992 1.996 1.994 1.994 0 0 1 0-3.988c1.097 0 1.992.894 1.992 1.992ZM30.886 43.835a1.994 1.994 0 0 1-3.988 0c0-1.097.894-1.992 1.992-1.992 1.102 0 1.996.895 1.996 1.992ZM31.882 34.87a1.994 1.994 0 0 1-3.988 0 1.994 1.994 0 0 1 3.988 0ZM32.878 9.964a1.996 1.996 0 0 1-1.992 1.992 1.996 1.996 0 0 1-1.996-1.992 1.994 1.994 0 0 1 3.988 0ZM34.87 22.913a1.993 1.993 0 1 1-3.985-.001 1.993 1.993 0 0 1 3.986.001ZM34.87 49.816a1.993 1.993 0 0 1-3.984 0c0-1.102.89-1.996 1.992-1.996 1.098 0 1.993.894 1.993 1.996Zm0 0" transform="matrix(1 0 0 -1 1.813 52.636)"/><path style="stroke:none;fill-rule:nonzero;fill:#99f;fill-opacity:1" d="M50.629 13.781a1.993 1.993 0 1 0-3.983.002 1.993 1.993 0 0 0 3.983-.002Zm0 0"/><g clip-path="url(#h)"><path style="fill:none;stroke-width:.3985;stroke-linecap:butt;stroke-linejoin:miter;stroke:#00c;stroke-opacity:1;stroke-miterlimit:10" d="M48.816 38.855a1.993 1.993 0 1 1-3.983-.002 1.993 1.993 0 0 1 3.983.002Zm0 0" transform="matrix(1 0 0 -1 1.813 52.636)"/></g><path style="fill-rule:nonzero;fill:#99f;fill-opacity:1;stroke-width:.3985;stroke-linecap:butt;stroke-linejoin:miter;stroke:#00c;stroke-opacity:1;stroke-miterlimit:10" d="M21.917 45.827a1.99 1.99 0 0 1-1.992 1.993 1.993 1.993 0 1 1 1.992-1.992ZM42.84 29.89a1.993 1.993 0 1 1-1.993-1.996c1.102 0 1.992.894 1.992 1.996ZM7.972 48.816a1.997 1.997 0 0 1-1.996 1.996 1.996 1.996 0 0 1-1.992-1.996c0-1.098.894-1.992 1.992-1.992 1.102 0 1.996.894 1.996 1.992ZM40.847 12.952a1.99 1.99 0 0 1-1.992 1.993 1.99 1.99 0 0 1-1.992-1.993 1.99 1.99 0 0 1 1.992-1.992 1.99 1.99 0 0 1 1.992 1.992Zm0 0" transform="matrix(1 0 0 -1 1.813 52.636)"/><path style="stroke:none;fill-rule:nonzero;fill:#99f;fill-opacity:1" d="M46.645 25.738c0-1.101-.891-1.996-1.993-1.996a1.994 1.994 0 0 0 0 3.988 1.993 1.993 0 0 0 1.993-1.992Zm0 0"/><g clip-path="url(#i)"><path style="fill:none;stroke-width:.3985;stroke-linecap:butt;stroke-linejoin:miter;stroke:#00c;stroke-opacity:1;stroke-miterlimit:10" d="M44.832 26.898c0 1.101-.891 1.996-1.993 1.996a1.994 1.994 0 0 1 0-3.988c1.102 0 1.993.894 1.993 1.992Zm0 0" transform="matrix(1 0 0 -1 1.813 52.636)"/></g><path style="fill-rule:nonzero;fill:#99f;fill-opacity:1;stroke-width:.3985;stroke-linecap:butt;stroke-linejoin:miter;stroke:#00c;stroke-opacity:1;stroke-miterlimit:10" d="M12.953 22.913a1.993 1.993 0 1 1-3.986-.001 1.993 1.993 0 0 1 3.986.001ZM11.957 39.85a1.993 1.993 0 1 1-3.986 0 1.993 1.993 0 0 1 3.986 0ZM18.93 9.964a1.993 1.993 0 1 1-3.987-.002 1.993 1.993 0 0 1 3.986.002Zm0 0" transform="matrix(1 0 0 -1 1.813 52.636)"/><path style="stroke:none;fill-rule:nonzero;fill:#99f;fill-opacity:1" d="M46.645 39.684a1.99 1.99 0 0 0-1.993-1.993 1.99 1.99 0 0 0-1.992 1.993 1.99 1.99 0 0 0 1.992 1.992 1.99 1.99 0 0 0 1.993-1.992Zm0 0"/><g clip-path="url(#j)"><path style="fill:none;stroke-width:.3985;stroke-linecap:butt;stroke-linejoin:miter;stroke:#00c;stroke-opacity:1;stroke-miterlimit:10" d="M44.832 12.952a1.99 1.99 0 0 1-1.993 1.993 1.99 1.99 0 0 1-1.992-1.993 1.99 1.99 0 0 1 1.992-1.992 1.99 1.99 0 0 1 1.993 1.992Zm0 0" transform="matrix(1 0 0 -1 1.813 52.636)"/></g><path style="stroke:none;fill-rule:nonzero;fill:#99f;fill-opacity:1" d="M42.66 50.645a1.99 1.99 0 0 0-1.992-1.993 1.993 1.993 0 1 0 1.992 1.992Zm0 0"/><g clip-path="url(#k)"><path style="fill:none;stroke-width:.3985;stroke-linecap:butt;stroke-linejoin:miter;stroke:#00c;stroke-opacity:1;stroke-miterlimit:10" d="M40.847 1.991a1.99 1.99 0 0 1-1.992 1.993 1.993 1.993 0 1 1 1.992-1.992Zm0 0" transform="matrix(1 0 0 -1 1.813 52.636)"/></g><path style="stroke:none;fill-rule:nonzero;fill:#99f;fill-opacity:1" d="M48.637 16.77a1.993 1.993 0 1 0-3.983.002 1.993 1.993 0 0 0 3.983-.002Zm0 0"/><g clip-path="url(#l)"><path style="fill:none;stroke-width:.3985;stroke-linecap:butt;stroke-linejoin:miter;stroke:#00c;stroke-opacity:1;stroke-miterlimit:10" d="M46.824 35.866a1.993 1.993 0 1 1-3.983-.002 1.993 1.993 0 0 1 3.983.002Zm0 0" transform="matrix(1 0 0 -1 1.813 52.636)"/></g><path style="stroke:none;fill-rule:nonzero;fill:#99f;fill-opacity:1" d="M51.625 43.668a1.993 1.993 0 1 0-3.986.002 1.993 1.993 0 0 0 3.986-.002Zm0 0"/><g clip-path="url(#m)"><path style="fill:none;stroke-width:.3985;stroke-linecap:butt;stroke-linejoin:miter;stroke:#00c;stroke-opacity:1;stroke-miterlimit:10" d="M49.812 8.968a1.993 1.993 0 1 1-3.986-.002 1.993 1.993 0 0 1 3.986.002Zm0 0" transform="matrix(1 0 0 -1 1.813 52.636)"/></g><path style="fill-rule:nonzero;fill:#99f;fill-opacity:1;stroke-width:.3985;stroke-linecap:butt;stroke-linejoin:miter;stroke:#00c;stroke-opacity:1;stroke-miterlimit:10" d="M35.867 39.85a1.993 1.993 0 1 1-3.986 0 1.993 1.993 0 0 1 3.986 0ZM42.84 42.84a1.99 1.99 0 0 1-1.993 1.991 1.99 1.99 0 0 1-1.992-1.992 1.99 1.99 0 0 1 1.992-1.992 1.99 1.99 0 0 1 1.992 1.992ZM15.94 38.855a1.99 1.99 0 0 1-1.991 1.992 1.99 1.99 0 0 1-1.992-1.992 1.99 1.99 0 0 1 1.992-1.992 1.99 1.99 0 0 1 1.992 1.992ZM40.847 47.82c0 1.101-.89 1.996-1.992 1.996a1.994 1.994 0 0 1 0-3.989c1.102 0 1.992.895 1.992 1.993Zm0 0" transform="matrix(1 0 0 -1 1.813 52.636)"/><path style="stroke:none;fill-rule:nonzero;fill:#99f;fill-opacity:1" d="M47.64 45.66a1.993 1.993 0 1 0-1.992 1.996 1.994 1.994 0 0 0 1.993-1.996Zm0 0"/><g clip-path="url(#n)"><path style="fill:none;stroke-width:.3985;stroke-linecap:butt;stroke-linejoin:miter;stroke:#00c;stroke-opacity:1;stroke-miterlimit:10" d="M45.828 6.976a1.993 1.993 0 1 1-1.993-1.996c1.102 0 1.993.894 1.993 1.996Zm0 0" transform="matrix(1 0 0 -1 1.813 52.636)"/></g><path style="fill-rule:nonzero;fill:#99f;fill-opacity:1;stroke-width:.3985;stroke-linecap:butt;stroke-linejoin:miter;stroke:#00c;stroke-opacity:1;stroke-miterlimit:10" d="M28.89 19.925a1.993 1.993 0 1 1-3.983-.002 1.993 1.993 0 0 1 3.983.002Zm0 0" transform="matrix(1 0 0 -1 1.813 52.636)"/></svg>