<svg xmlns="http://www.w3.org/2000/svg" width="121.659" height="82.395" viewBox="0 0 91.244 61.796" version="1.2"><defs><clipPath id="a"><path d="M0 0h90.867v61.695H0Zm0 0"/></clipPath></defs><path style="fill:none;stroke-width:.19925;stroke-linecap:butt;stroke-linejoin:miter;stroke:gray;stroke-opacity:1;stroke-miterlimit:10" d="M0 0h85.04M0 28.348h85.04M0 56.684h85.04M0 0v56.696M28.348 0v56.696M56.692 0v56.696M85.032 0v56.696" transform="matrix(1 0 0 -1 3.402 60.426)"/><path style="stroke:none;fill-rule:nonzero;fill:#d2c92a;fill-opacity:1" d="m3.402 60.426 1.575-3.149 6.3 3.149 3.153-6.301 6.3 3.152 3.149-6.3 6.3 3.148 3.153-6.3 6.3 3.152 3.15-6.301 6.3 3.148 3.152-6.3 6.301 3.152 3.149-6.301 6.3 3.148 3.149-6.3 6.3 3.152 3.153-6.3 6.3 3.148-.94-5.676 3.613-5.488-6.985-2.579.903-6.613-7.329.207-1.187-6.687-6.938 2.093-2.683-6.312-6.344 3.422L55.2 1.844l-5.656 4.433-4.684-5.074-4.886 5.254-5.414-4.281-3.989 5.976-6.047-3.297-2.851 6.622-6.55-2.02-1.313 7.133-6.782-.254.934 7.277-6.277 2.23 4.023 6.27-4.797 4.63 4.985 4.984-4.985 4.98 4.985 4.98L.91 56.669l2.492 2.492v1.266"/><g clip-path="url(#a)"><path style="fill:none;stroke-width:.3985;stroke-linecap:butt;stroke-linejoin:miter;stroke:#000;stroke-opacity:1;stroke-miterlimit:10" d="M0 0 1.575 3.15 7.875 0l3.153 6.301 6.3-3.152 3.149 6.3 6.3-3.148 3.153 6.3 6.3-3.152 3.15 6.301 6.3-3.148 3.152 6.3 6.301-3.152 3.149 6.301 6.3-3.148 3.149 6.3 6.3-3.152 3.153 6.3 6.3-3.148-.94 5.676 3.613 5.488-6.985 2.579.903 6.613-7.329-.207-1.187 6.687-6.938-2.093-2.683 6.312-6.344-3.422-3.797 5.746-5.656-4.433-4.684 5.074-4.886-5.254-5.414 4.281-3.989-5.976-6.047 3.297-2.851-6.622-6.55 2.02-1.313-7.133-6.782.254.934-7.277-6.277-2.23 4.023-6.27-4.797-4.63L2.493 18.7l-4.985-4.98 4.985-4.98-4.985-4.981L0 1.266V0" transform="matrix(1 0 0 -1 3.402 60.426)"/></g></svg>