<svg xmlns="http://www.w3.org/2000/svg" xmlns:xlink="http://www.w3.org/1999/xlink" width="228.837" height="139.851" viewBox="0 0 171.628 104.888" version="1.2"><defs><symbol overflow="visible" id="b"><path style="stroke:none" d="M3.89-2.547c0-.844-.078-1.36-.343-1.875-.344-.703-1-.875-1.438-.875-1 0-1.375.75-1.484.969C.344-3.75.328-2.953.328-2.547c0 .531.016 1.328.406 1.969.36.594.954.75 1.375.75.391 0 1.063-.125 1.47-.906.296-.579.312-1.297.312-1.813ZM2.11-.062c-.266 0-.813-.126-.985-.954-.094-.453-.094-1.203-.094-1.625 0-.546 0-1.109.094-1.546.172-.813.781-.891.984-.891.266 0 .829.14.985.86.094.437.094 1.046.094 1.577 0 .47 0 1.188-.094 1.641-.172.828-.719.938-.985.938Zm0 0"/></symbol><symbol overflow="visible" id="c"><path style="stroke:none" d="M2.5-5.078c0-.219-.016-.219-.234-.219-.329.313-.75.5-1.5.5v.266c.218 0 .64 0 1.109-.203v4.078c0 .297-.031.39-.781.39H.812V0c.329-.031 1.016-.031 1.375-.031.36 0 1.047 0 1.376.031v-.266H3.28c-.75 0-.781-.093-.781-.39Zm0 0"/></symbol><symbol overflow="visible" id="d"><path style="stroke:none" d="M2.25-1.625c.125-.125.453-.39.594-.5.484-.453.953-.89.953-1.61 0-.953-.797-1.562-1.781-1.562-.97 0-1.594.719-1.594 1.438 0 .39.312.437.422.437.172 0 .422-.11.422-.422 0-.406-.407-.406-.5-.406.234-.594.765-.781 1.156-.781.734 0 1.125.625 1.125 1.297 0 .828-.578 1.437-1.531 2.39l-1 1.047C.422-.219.422-.203.422 0h3.14l.235-1.422h-.25c-.016.156-.078.547-.172.703-.047.063-.656.063-.781.063H1.172Zm0 0"/></symbol><symbol overflow="visible" id="e"><path style="stroke:none" d="M3.14-5.156c0-.157 0-.219-.171-.219-.094 0-.11 0-.188.11L.234-1.564v.25h2.25v.672c0 .297-.015.375-.64.375h-.172V0c.672-.031.687-.031 1.14-.031.454 0 .47 0 1.141.031v-.266h-.172c-.625 0-.64-.078-.64-.375v-.671h.843v-.25h-.843Zm-.593.64v2.954H.516Zm0 0"/></symbol><symbol overflow="visible" id="f"><path style="stroke:none" d="M1.11-4.484c.109.03.421.125.765.125 1 0 1.594-.704 1.594-.829 0-.093-.047-.109-.094-.109-.016 0-.031 0-.094.031a2.982 2.982 0 0 1-1.11.22c-.468 0-.858-.11-1.108-.22-.079-.03-.094-.03-.11-.03-.094 0-.094.077-.094.234v2.328c0 .14 0 .234.125.234.063 0 .079-.031.125-.094.094-.11.391-.515 1.079-.515.437 0 .656.359.734.515.125.281.14.656.14.953 0 .297 0 .735-.218 1.079-.156.25-.485.484-.906.484A1.271 1.271 0 0 1 .734-.922c.016.016.079.016.079.016.218 0 .406-.14.406-.39a.388.388 0 0 0-.39-.407c-.157 0-.407.078-.407.422 0 .718.625 1.453 1.531 1.453 1 0 1.844-.781 1.844-1.766 0-.922-.672-1.75-1.61-1.75-.39 0-.765.125-1.078.406Zm0 0"/></symbol><symbol overflow="visible" id="g"><path style="stroke:none" d="M1.094-2.64c0-.657.062-1.235.343-1.72.25-.406.657-.734 1.157-.734.156 0 .515.032.703.297-.36.031-.39.297-.39.375 0 .25.187.375.374.375.14 0 .375-.078.375-.39 0-.47-.36-.86-1.078-.86C1.468-5.297.344-4.25.344-2.53.344-.36 1.359.172 2.125.172c.39 0 .797-.11 1.156-.453.328-.313.594-.64.594-1.344 0-1.031-.797-1.766-1.672-1.766-.578 0-.922.36-1.11.75ZM2.125-.079a.88.88 0 0 1-.797-.516c-.187-.36-.203-.89-.203-1.203 0-.781.422-1.375 1.047-1.375.39 0 .64.203.781.485.172.296.172.656.172 1.062s0 .75-.156 1.047c-.219.36-.485.5-.844.5Zm0 0"/></symbol><symbol overflow="visible" id="k"><path style="stroke:none" d="M4.031-4.86c.078-.077.078-.093.078-.265H2.08a8.79 8.79 0 0 1-.642-.031c-.421-.032-.421-.11-.453-.235h-.25L.47-3.703h.25c.015-.125.11-.672.219-.735.078-.046.687-.046.796-.046h1.688l-.813 1.109C1.703-2.172 1.5-.906 1.5-.281c0 .078 0 .453.375.453s.375-.36.375-.453v-.39c0-1.141.203-2.079.594-2.61Zm0 0"/></symbol><symbol overflow="visible" id="h"><path style="stroke:none" d="M2.266-2.906h.906c-.156.719-.297 1.312-.297 1.906 0 .047 0 .39.078.688.11.328.188.39.328.39.172 0 .36-.156.36-.344 0-.046 0-.062-.032-.14-.171-.36-.296-.75-.296-1.406 0-.172 0-.516.124-1.094h.97c.124 0 .202 0 .28-.063a.314.314 0 0 0 .125-.25c0-.219-.203-.219-.328-.219H1.61c-.171 0-.484 0-.875.391-.28.281-.5.64-.5.703 0 .078.047.094.11.094.094 0 .11-.016.156-.078.39-.578.86-.578 1.031-.578H2c-.234.844-.656 1.812-.953 2.39C1-.39.922-.234.922-.172c0 .172.125.25.25.25.312 0 .39-.297.562-.953Zm0 0"/></symbol><symbol overflow="visible" id="j"><path style="stroke:none" d="M1.625-.438a.463.463 0 0 0-.453-.453.447.447 0 0 0-.438.438.44.44 0 0 0 .438.453.45.45 0 0 0 .453-.438Zm0 0"/></symbol><symbol overflow="visible" id="i"><path style="stroke:none" d="M5.563-1.813c.14 0 .312 0 .312-.171 0-.188-.172-.188-.313-.188H1c-.125 0-.297 0-.297.188 0 .171.172.171.297.171Zm0 0"/></symbol><clipPath id="a"><path d="M18 0h153.441v100H18Zm0 0"/></clipPath></defs><path style="fill:none;stroke-width:.3985;stroke-linecap:round;stroke-linejoin:miter;stroke:gray;stroke-opacity:1;stroke-miterlimit:10" d="M0-1.993v1.992M22.558-1.993v1.992M45.117-1.993v1.992M67.675-1.993v1.992M90.234-1.993v1.992M112.793-1.993v1.992M135.351-1.993v1.992M70.87-6.415v6.414M0 87.593v1.992M22.558 87.593v1.992M45.117 87.593v1.992M67.675 87.593v1.992M90.234 87.593v1.992M112.793 87.593v1.992M135.351 87.593v1.992M70.87 87.593v1.992M-1.993 0H0M-1.993 10.948H0M-1.993 21.898H0M-1.993 32.847H0M-1.993 43.796H0M-1.993 54.745H0M-1.993 65.694H0M-1.993 76.644H0M-1.993 87.593H0M141.734 0h1.992M141.734 10.948h1.992M141.734 21.898h1.992M141.734 32.847h1.992M141.734 43.796h1.992M141.734 54.745h1.992M141.734 65.694h1.992M141.734 76.644h1.992M141.734 87.593h1.992" transform="matrix(1 0 0 -1 26.516 91.253)"/><path style="fill:none;stroke-width:.3985;stroke-linecap:butt;stroke-linejoin:miter;stroke:gray;stroke-opacity:1;stroke-miterlimit:10" d="M0 0h141.734M0 87.593h141.734M0 0v87.593M141.734 0v87.593" transform="matrix(1 0 0 -1 26.516 91.253)"/><g clip-path="url(#a)"><path style="fill:none;stroke-width:.59776;stroke-linecap:butt;stroke-linejoin:miter;stroke:#000;stroke-opacity:1;stroke-miterlimit:10" d="M0 43.796s4.265 8.297 5.906 11.336c1.64 3.035 4.266 7.836 5.906 10.559 1.637 2.726 4.266 6.847 5.906 9.074 1.637 2.222 4.266 5.386 5.907 6.957 1.636 1.574 4.265 3.562 5.902 4.375 1.64.816 4.27 1.496 5.906 1.496 1.64 0 4.27-.68 5.906-1.492 1.641-.817 4.27-2.805 5.907-4.375 1.64-1.575 4.265-4.739 5.906-6.961 1.64-2.223 4.266-6.344 5.906-9.07 1.637-2.723 4.266-7.524 5.906-10.563 1.637-3.04 4.266-8.188 5.907-11.336 1.636-3.145 4.265-8.293 5.902-11.332 1.64-3.04 4.27-7.84 5.906-10.563 1.64-2.726 4.27-6.847 5.907-9.07 1.64-2.226 4.27-5.39 5.906-6.96 1.64-1.575 4.265-3.563 5.906-4.38C102.038.68 104.664 0 106.304 0c1.637 0 4.266.68 5.907 1.492 1.636.813 4.265 2.801 5.906 4.375 1.637 1.575 4.265 4.735 5.902 6.957 1.64 2.227 4.27 6.348 5.906 9.07 1.641 2.727 4.27 7.524 5.907 10.563 1.64 3.04 5.906 11.336 5.906 11.336" transform="matrix(1 0 0 -1 26.516 91.253)"/></g><use xlink:href="#b" x="24.399" y="101.038" style="fill:#000;fill-opacity:1"/><use xlink:href="#c" x="46.957" y="101.038" style="fill:#000;fill-opacity:1"/><use xlink:href="#d" x="69.516" y="101.038" style="fill:#000;fill-opacity:1"/><use xlink:href="#e" x="114.633" y="101.038" style="fill:#000;fill-opacity:1"/><use xlink:href="#f" x="137.191" y="101.038" style="fill:#000;fill-opacity:1"/><use xlink:href="#g" x="159.75" y="101.038" style="fill:#000;fill-opacity:1"/><use xlink:href="#h" x="94.811" y="103.757" style="fill:#000;fill-opacity:1"/><use xlink:href="#i" x="11.047" y="93.406" style="fill:#000;fill-opacity:1"/><use xlink:href="#c" x="17.633" y="93.406" style="fill:#000;fill-opacity:1"/><use xlink:href="#i" x=".226" y="82.458" style="fill:#000;fill-opacity:1"/><use xlink:href="#b" x="6.813" y="82.458" style="fill:#000;fill-opacity:1"/><use xlink:href="#j" x="11.047" y="82.458" style="fill:#000;fill-opacity:1"/><g style="fill:#000;fill-opacity:1"><use xlink:href="#k" x="13.399" y="82.458"/><use xlink:href="#f" x="17.634" y="82.458"/></g><use xlink:href="#i" x="4.46" y="71.509" style="fill:#000;fill-opacity:1"/><use xlink:href="#b" x="11.047" y="71.509" style="fill:#000;fill-opacity:1"/><use xlink:href="#j" x="15.281" y="71.509" style="fill:#000;fill-opacity:1"/><use xlink:href="#f" x="17.633" y="71.509" style="fill:#000;fill-opacity:1"/><use xlink:href="#i" x=".226" y="60.56" style="fill:#000;fill-opacity:1"/><use xlink:href="#b" x="6.813" y="60.56" style="fill:#000;fill-opacity:1"/><use xlink:href="#j" x="11.047" y="60.56" style="fill:#000;fill-opacity:1"/><g style="fill:#000;fill-opacity:1"><use xlink:href="#d" x="13.399" y="60.56"/><use xlink:href="#f" x="17.634" y="60.56"/></g><use xlink:href="#b" x="17.633" y="50.026" style="fill:#000;fill-opacity:1"/><use xlink:href="#b" x="6.813" y="39.077" style="fill:#000;fill-opacity:1"/><use xlink:href="#j" x="11.047" y="39.077" style="fill:#000;fill-opacity:1"/><g style="fill:#000;fill-opacity:1"><use xlink:href="#d" x="13.399" y="39.077"/><use xlink:href="#f" x="17.634" y="39.077"/></g><use xlink:href="#b" x="11.047" y="28.128" style="fill:#000;fill-opacity:1"/><use xlink:href="#j" x="15.281" y="28.128" style="fill:#000;fill-opacity:1"/><use xlink:href="#f" x="17.633" y="28.128" style="fill:#000;fill-opacity:1"/><use xlink:href="#b" x="6.813" y="17.18" style="fill:#000;fill-opacity:1"/><use xlink:href="#j" x="11.047" y="17.18" style="fill:#000;fill-opacity:1"/><g style="fill:#000;fill-opacity:1"><use xlink:href="#k" x="13.399" y="17.18"/><use xlink:href="#f" x="17.634" y="17.18"/></g><use xlink:href="#c" x="17.633" y="6.231" style="fill:#000;fill-opacity:1"/></svg>