<svg xmlns="http://www.w3.org/2000/svg" xmlns:xlink="http://www.w3.org/1999/xlink" width="84.8pt" height="88.563" viewBox="0 0 84.8 66.422" version="1.2"><defs><symbol overflow="visible" id="a"><path style="stroke:none" d="M4.922 0v-.469h-1.39v-5.734c0-.234 0-.328-.266-.328-.11 0-.125 0-.22.078-.765.562-1.796.562-2 .562H.845v.47h.203c.156 0 .703-.016 1.297-.204v5.156H.954V0c.437-.031 1.5-.031 1.984-.031s1.546 0 1.984.031Zm0 0"/></symbol><symbol overflow="visible" id="b"><path style="stroke:none" d="M5.156-2.219h-.468c-.032.203-.125.844-.266.906-.11.063-.86.063-1.016.063H1.937c.47-.39 1-.813 1.438-1.14 1.14-.844 1.781-1.313 1.781-2.25 0-1.157-1.047-1.891-2.437-1.891-1.219 0-2.156.625-2.156 1.515 0 .594.484.735.718.735C1.61-4.281 2-4.5 2-5c0-.516-.422-.672-.563-.719.282-.234.672-.343 1.032-.343.844 0 1.312.671 1.312 1.421 0 .688-.375 1.375-1.078 2.079l-2 2.046c-.14.11-.14.141-.14.344V0h4.28Zm0 0"/></symbol><symbol overflow="visible" id="c"><path style="stroke:none" d="M5.25-1.797c0-.547-.297-1.406-1.734-1.719.687-.203 1.406-.765 1.406-1.625 0-.765-.75-1.39-2.156-1.39-1.188 0-1.97.64-1.97 1.437 0 .422.313.703.688.703a.668.668 0 0 0 .704-.687c0-.578-.547-.688-.579-.703.344-.282.782-.36 1.094-.36.828 0 .86.641.86.97 0 .124-.016 1.437-1.047 1.5-.407.015-.438.015-.485.03-.094.016-.125.11-.125.172 0 .172.11.172.282.172h.437c1.094 0 1.094.985 1.094 1.5 0 .469 0 1.484-1.031 1.484-.266 0-.782-.046-1.266-.343C1.75-.75 2-1 2-1.406c0-.453-.313-.75-.75-.75-.422 0-.766.265-.766.765 0 .907.97 1.5 2.25 1.5 1.782 0 2.516-1 2.516-1.906Zm0 0"/></symbol><symbol overflow="visible" id="d"><path style="stroke:none" d="M5.406 0v-.469h-.968v-1.094h.968v-.468h-.968V-6.22c0-.265-.016-.328-.297-.328-.22 0-.22.016-.344.172L.312-2.031v.469h2.876V-.47h-1.11V0c.375-.031 1.281-.031 1.703-.031.406 0 1.266 0 1.625.031Zm-2.11-2.031H.845L3.297-5.11Zm0 0"/></symbol><symbol overflow="visible" id="e"><path style="stroke:none" d="M5.156-2c0-1.156-.797-2.078-2.265-2.078-.282 0-.813.031-1.282.344v-1.313c.282.047.391.078.72.078 1.452 0 2.374-1.125 2.374-1.375 0-.078-.016-.187-.14-.187-.032 0-.032 0-.141.047a4.32 4.32 0 0 1-1.531.28c-.75 0-1.282-.202-1.547-.28-.094-.032-.094-.047-.125-.047-.14 0-.14.11-.14.265v2.922c0 .172 0 .297.218.297.125 0 .156-.031.219-.11.39-.468.921-.562 1.328-.562.89 0 .89.875.89 1.672 0 .735 0 1.735-1.187 1.735-.25 0-.875-.063-1.297-.625.36-.016.656-.266.656-.672 0-.532-.437-.672-.672-.672-.14 0-.671.094-.671.703 0 .844.78 1.687 2.015 1.687C4.172.11 5.156-.78 5.156-2Zm0 0"/></symbol><symbol overflow="visible" id="f"><path style="stroke:none" d="M5.406-2.172c0-1.344-.922-2.344-2.547-2.344C1.22-4.516.313-3.5.313-2.172c0 1.235.89 2.235 2.546 2.235 1.672 0 2.547-1.016 2.547-2.235Zm-1.281-.11c0 .86 0 1.938-1.266 1.938-1.265 0-1.265-1.078-1.265-1.937 0-.453 0-.953.172-1.297.187-.375.609-.578 1.093-.578.422 0 .844.156 1.063.5.203.344.203.89.203 1.375Zm0 0"/></symbol><symbol overflow="visible" id="g"><path style="stroke:none" d="M6.125 0v-.469c-.61 0-.688 0-.688-.39v-3.625l-1.812.078v.468c.61 0 .688 0 .688.391v1.906c0 .813-.516 1.344-1.235 1.344-.781 0-.812-.25-.812-.797v-3.39l-1.813.078v.468c.61 0 .688 0 .688.391v2.328c0 1.063.796 1.282 1.796 1.282.25 0 .97 0 1.422-.782v.781Zm0 0"/></symbol><symbol overflow="visible" id="h"><path style="stroke:none" d="M3.813-1.234v-.532h-.47v.516c0 .672-.327.906-.609.906-.578 0-.578-.64-.578-.86v-2.75h1.469v-.468H2.156v-1.906h-.469c0 1-.484 1.984-1.484 2.016v.359h.828v2.734c0 1.063.86 1.282 1.578 1.282.75 0 1.204-.579 1.204-1.297Zm0 0"/></symbol><symbol overflow="visible" id="i"><path style="stroke:none" d="M2.844 0v-.469h-.61v-4.015L.5-4.406v.468c.594 0 .656 0 .656.391v3.078H.47V0l1.219-.031Zm-.469-6.047a.774.774 0 0 0-.781-.781.784.784 0 0 0-.782.781c0 .422.36.766.782.766a.77.77 0 0 0 .781-.766Zm0 0"/></symbol><symbol overflow="visible" id="j"><path style="stroke:none" d="M6.125 0v-.469h-.688v-2.578c0-1.047-.53-1.437-1.53-1.437-.954 0-1.485.562-1.75 1.078v-1.078l-1.704.078v.468c.61 0 .688 0 .688.391v3.078H.453V0l1.25-.031L2.953 0v-.469h-.687v-2.078c0-1.094.859-1.578 1.5-1.578.328 0 .546.203.546.969V-.47h-.687V0l1.25-.031Zm0 0"/></symbol></defs><use xlink:href="#a" x="39.608" y="7.209" style="fill:#000;fill-opacity:1"/><use xlink:href="#b" x="66.567" y="26.796" style="fill:#000;fill-opacity:1"/><use xlink:href="#c" x="56.27" y="58.434" style="fill:#000;fill-opacity:1"/><use xlink:href="#d" x="22.947" y="58.493" style="fill:#000;fill-opacity:1"/><use xlink:href="#e" x="12.649" y="26.741" style="fill:#000;fill-opacity:1"/><path style="fill:none;stroke-width:.3985;stroke-linecap:butt;stroke-linejoin:miter;stroke:#000;stroke-opacity:1;stroke-miterlimit:10" d="m6.383 23.707 14.192-10.312" transform="matrix(1 0 0 -1 42.472 32.293)"/><g style="fill:#000;fill-opacity:1"><use xlink:href="#f" x="59.472" y="10.161"/><use xlink:href="#g" x="65.201" y="10.161"/><use xlink:href="#h" x="71.567" y="10.161"/></g><g style="fill:#000;fill-opacity:1"><use xlink:href="#i" x="42.888" y="24.085"/><use xlink:href="#j" x="46.066" y="24.085"/></g><path style="fill:none;stroke-width:.3985;stroke-linecap:butt;stroke-linejoin:miter;stroke:#000;stroke-opacity:1;stroke-miterlimit:10" d="m24.755 1.977-5.872-18.075" transform="matrix(1 0 0 -1 42.472 32.293)"/><g style="fill:#000;fill-opacity:1"><use xlink:href="#f" x="67.812" y="49.198"/><use xlink:href="#g" x="73.541" y="49.198"/><use xlink:href="#h" x="79.907" y="49.198"/></g><g style="fill:#000;fill-opacity:1"><use xlink:href="#i" x="51.228" y="35.832"/><use xlink:href="#j" x="54.406" y="35.832"/></g><path style="fill:none;stroke-width:.3985;stroke-linecap:butt;stroke-linejoin:miter;stroke:#000;stroke-opacity:1;stroke-miterlimit:10" d="M10.278-22.934h-20.555" transform="matrix(1 0 0 -1 42.472 32.293)"/><g style="fill:#000;fill-opacity:1"><use xlink:href="#f" x="34.198" y="65.072"/><use xlink:href="#g" x="39.927" y="65.072"/><use xlink:href="#h" x="46.293" y="65.072"/></g><g style="fill:#000;fill-opacity:1"><use xlink:href="#i" x="37.7" y="51.706"/><use xlink:href="#j" x="40.878" y="51.706"/></g><path style="fill:none;stroke-width:.3985;stroke-linecap:butt;stroke-linejoin:miter;stroke:#000;stroke-opacity:1;stroke-miterlimit:10" d="m-18.867-16.145-5.87 18.067" transform="matrix(1 0 0 -1 42.472 32.293)"/><g style="fill:#000;fill-opacity:1"><use xlink:href="#f" x=".603" y="49.25"/><use xlink:href="#g" x="6.332" y="49.25"/><use xlink:href="#h" x="12.698" y="49.25"/></g><g style="fill:#000;fill-opacity:1"><use xlink:href="#i" x="24.19" y="35.884"/><use xlink:href="#j" x="27.368" y="35.884"/></g><path style="fill:none;stroke-width:.3985;stroke-linecap:butt;stroke-linejoin:miter;stroke:#000;stroke-opacity:1;stroke-miterlimit:10" d="m-20.577 13.398 14.19 10.313" transform="matrix(1 0 0 -1 42.472 32.293)"/><g style="fill:#000;fill-opacity:1"><use xlink:href="#f" x="8.925" y="10.159"/><use xlink:href="#g" x="14.654" y="10.159"/><use xlink:href="#h" x="21.02" y="10.159"/></g><g style="fill:#000;fill-opacity:1"><use xlink:href="#i" x="32.512" y="24.083"/><use xlink:href="#j" x="35.69" y="24.083"/></g></svg>