<svg xmlns="http://www.w3.org/2000/svg" width="154.263" height="78.651" viewBox="0 0 115.697 58.988" version="1.2"><defs><clipPath id="a"><path d="M23 23h41v35.98H23Zm0 0"/></clipPath><clipPath id="b"><path d="M23 23h69v35.98H23Zm0 0"/></clipPath><clipPath id="c"><path d="M0 23h36v35.98H0Zm0 0"/></clipPath></defs><path style="fill:none;stroke-width:.19925;stroke-linecap:butt;stroke-linejoin:miter;stroke:gray;stroke-opacity:1;stroke-miterlimit:10" d="M-.001.002h85.043M-.001 28.346h85.043M-.001 56.686h85.043M-.001.001v56.691M28.347.002v56.691M56.694.002v56.691M85.03.002v56.691" transform="matrix(1 0 0 -1 29.404 57.787)"/><g clip-path="url(#a)"><path style="fill:none;stroke-width:.3985;stroke-linecap:butt;stroke-linejoin:miter;stroke:#000;stroke-opacity:1;stroke-miterlimit:10" d="m-.001.002 28.348 28.344V.002" transform="matrix(1 0 0 -1 29.404 57.787)"/></g><g clip-path="url(#b)"><path style="fill:none;stroke-width:.3985;stroke-linecap:butt;stroke-linejoin:miter;stroke:#00f;stroke-opacity:1;stroke-miterlimit:10" d="m-.001.002 56.695 28.344V.002" transform="matrix(1 0 0 -1 29.404 57.787)"/></g><g clip-path="url(#c)"><path style="fill:none;stroke-width:.3985;stroke-linecap:butt;stroke-linejoin:miter;stroke:red;stroke-opacity:1;stroke-miterlimit:10" d="m-.001.002-28.344 28.344V.002" transform="matrix(1 0 0 -1 29.404 57.787)"/></g></svg>