<svg xmlns="http://www.w3.org/2000/svg" xmlns:xlink="http://www.w3.org/1999/xlink" width="222.687" height="186.099" viewBox="0 0 167.015 139.574" version="1.2"><defs><symbol overflow="visible" id="a"><path style="stroke:none" d="M1.766-.484A.487.487 0 0 0 1.28-.97a.477.477 0 0 0-.484.485C.797-.22 1 0 1.28 0a.487.487 0 0 0 .485-.484Zm0 0"/></symbol><symbol overflow="visible" id="i"><path style="stroke:none" d="M4.406-3.625a.504.504 0 0 0-.422.484c0 .172.125.329.344.329.25 0 .5-.22.5-.532 0-.422-.453-.625-.875-.625-.531 0-.844.485-.953.672a1.042 1.042 0 0 0-1-.672c-.953 0-1.484 1.156-1.484 1.39 0 .079.062.11.125.11.078 0 .109-.047.125-.11.28-.89.875-1.155 1.218-1.155.266 0 .485.171.485.593 0 .313-.375 1.75-.5 2.188-.063.265-.344.828-.828.828-.188 0-.375-.063-.454-.11.235-.046.422-.265.422-.484 0-.234-.171-.328-.343-.328-.266 0-.5.219-.5.531 0 .438.484.61.859.61.531 0 .828-.422.969-.672.219.594.75.672.984.672.969 0 1.485-1.157 1.485-1.375 0-.047-.032-.11-.11-.11-.11 0-.11.032-.156.172-.203.64-.719 1.094-1.188 1.094-.25 0-.5-.156-.5-.594 0-.203.125-.687.204-1.031.046-.156.28-1.125.296-1.188.11-.328.375-.796.844-.796.156 0 .328.015.453.109Zm0 0"/></symbol><symbol overflow="visible" id="b"><path style="stroke:none" d="M4.14-1.594h-.25c-.015.125-.093.657-.203.797-.062.078-.671.078-.859.078H1.234l.891-.844c1.469-1.265 2.016-1.75 2.016-2.656 0-1.031-.844-1.75-1.954-1.75-1.03 0-1.734.813-1.734 1.625 0 .453.39.5.469.5.203 0 .469-.14.469-.469a.451.451 0 0 0-.47-.468c-.046 0-.062 0-.109.015.22-.64.797-.921 1.282-.921.906 0 1.219.843 1.219 1.468 0 .907-.688 1.657-1.11 2.125L.563-.328c-.11.11-.11.125-.11.328h3.438Zm0 0"/></symbol><symbol overflow="visible" id="c"><path style="stroke:none" d="M.938-3.094c0 .156 0 .266.125.266.062 0 .093-.047.14-.125a1.45 1.45 0 0 1 1.172-.594c.969 0 .969 1.39.969 1.703 0 .282 0 .844-.266 1.25-.234.375-.61.547-.969.547a1.456 1.456 0 0 1-1.343-1c.015 0 .062.016.125.016.187 0 .453-.11.453-.438 0-.281-.203-.437-.453-.437-.188 0-.438.11-.438.468 0 .813.688 1.641 1.688 1.641 1.078 0 2-.89 2-2 0-1.078-.766-1.969-1.75-1.969-.422 0-.86.141-1.188.47v-1.767c.281.079.563.125.828.125 1.11 0 1.75-.796 1.75-.921 0-.079-.047-.11-.094-.11-.015 0-.03 0-.124.047a3.488 3.488 0 0 1-1.204.234c-.39 0-.796-.078-1.203-.234-.093-.047-.11-.047-.11-.047-.109 0-.109.078-.109.235Zm0 0"/></symbol><symbol overflow="visible" id="d"><path style="stroke:none" d="M3.406-2.828v.203c0 2.188-1 2.578-1.515 2.578-.204 0-.657-.047-.891-.344h.031c.078.016.422-.046.422-.406 0-.234-.156-.406-.406-.406s-.422.156-.422.422c0 .594.469.984 1.281.984C3.063.203 4.22-.984 4.22-2.953c0-2.422-1.078-3.016-1.89-3.016-1.032 0-1.938.828-1.938 2 0 1.14.812 2 1.828 2 .656 0 1.015-.468 1.187-.86Zm-1.156.64c-.156 0-.594 0-.875-.562-.172-.328-.172-.781-.172-1.203 0-.438 0-.875.188-1.219.265-.453.625-.578.937-.578.61 0 .86.625.89.703.126.344.157.89.157 1.266 0 .656-.297 1.594-1.125 1.594Zm0 0"/></symbol><symbol overflow="visible" id="e"><path style="stroke:none" d="M5.563-1.813c.14 0 .312 0 .312-.171 0-.188-.172-.188-.313-.188H1c-.125 0-.297 0-.297.188 0 .171.172.171.297.171Zm0 0"/></symbol><symbol overflow="visible" id="f"><path style="stroke:none" d="M2.25-1.625c.125-.125.453-.39.594-.5.484-.453.953-.89.953-1.61 0-.953-.797-1.562-1.781-1.562-.97 0-1.594.719-1.594 1.438 0 .39.312.437.422.437.172 0 .422-.11.422-.422 0-.406-.407-.406-.5-.406.234-.594.765-.781 1.156-.781.734 0 1.125.625 1.125 1.297 0 .828-.578 1.437-1.531 2.39l-1 1.047C.422-.219.422-.203.422 0h3.14l.235-1.422h-.25c-.016.156-.078.547-.172.703-.047.063-.656.063-.781.063H1.172Zm0 0"/></symbol><symbol overflow="visible" id="g"><path style="stroke:none" d="M2.5-5.078c0-.219-.016-.219-.234-.219-.329.313-.75.5-1.5.5v.266c.218 0 .64 0 1.109-.203v4.078c0 .297-.031.39-.781.39H.812V0c.329-.031 1.016-.031 1.375-.031.36 0 1.047 0 1.376.031v-.266H3.28c-.75 0-.781-.093-.781-.39Zm0 0"/></symbol><symbol overflow="visible" id="h"><path style="stroke:none" d="M3.89-2.547c0-.844-.078-1.36-.343-1.875-.344-.703-1-.875-1.438-.875-1 0-1.375.75-1.484.969C.344-3.75.328-2.953.328-2.547c0 .531.016 1.328.406 1.969.36.594.954.75 1.375.75.391 0 1.063-.125 1.47-.906.296-.579.312-1.297.312-1.813ZM2.11-.062c-.266 0-.813-.126-.985-.954-.094-.453-.094-1.203-.094-1.625 0-.546 0-1.109.094-1.546.172-.813.781-.891.984-.891.266 0 .829.14.985.86.094.437.094 1.046.094 1.577 0 .47 0 1.188-.094 1.641-.172.828-.719.938-.985.938Zm0 0"/></symbol></defs><path style="fill:none;stroke-width:.3985;stroke-linecap:round;stroke-linejoin:miter;stroke:#000;stroke-opacity:1;stroke-miterlimit:10" d="M-56.691-1.993v3.984M-28.348-1.993v3.984M28.348-1.993v3.984M56.695-1.993v3.984M-1.992-28.348h3.984M-1.992 28.347h3.984M-1.992 56.695h3.984" transform="matrix(1 0 0 -1 78.856 85.3)"/><path style="fill:none;stroke-width:.3985;stroke-linecap:butt;stroke-linejoin:miter;stroke:#000;stroke-opacity:1;stroke-miterlimit:10" d="M-78.34 0H77.941" transform="matrix(1 0 0 -1 78.856 85.3)"/><path style="fill:none;stroke-width:.3985;stroke-linecap:round;stroke-linejoin:round;stroke:#000;stroke-opacity:1;stroke-miterlimit:10" d="M-2.073 2.39C-1.694.956-.85.28 0 0-.85-.279-1.694-.959-2.073-2.392" transform="matrix(1 0 0 -1 156.995 85.3)"/><path style="fill:none;stroke-width:.3985;stroke-linecap:butt;stroke-linejoin:miter;stroke:#000;stroke-opacity:1;stroke-miterlimit:10" d="M0-53.06V84.114" transform="matrix(1 0 0 -1 78.856 85.3)"/><path style="fill:none;stroke-width:.3985;stroke-linecap:round;stroke-linejoin:round;stroke:#000;stroke-opacity:1;stroke-miterlimit:10" d="M-2.072 2.39C-1.693.958-.849.278-.002 0c-.847-.277-1.691-.957-2.07-2.39" transform="matrix(0 -1 -1 0 78.856 .987)"/><path style="fill:none;stroke-width:.59776;stroke-linecap:butt;stroke-linejoin:miter;stroke:#1450cc;stroke-opacity:1;stroke-miterlimit:10" d="M-70.867 2.323s2.988.258 4.133.368c1.148.109 2.988.296 4.136.421a255.492 255.492 0 0 1 8.266 1.055c1.148.168 2.988.461 4.133.656 1.148.196 2.988.532 4.136.758 1.145.23 2.985.617 4.133.88 1.145.26 2.985.706 4.133 1.01 1.149.302 2.988.821 4.133 1.173 1.148.351 2.988.953 4.137 1.36 1.144.405 2.984 1.1 4.132 1.57 1.145.468 2.985 1.273 4.133 1.816a95.796 95.796 0 0 1 4.133 2.105 87.724 87.724 0 0 1 4.137 2.434A87.987 87.987 0 0 1-8.86 20.74 87.961 87.961 0 0 1-4.727 24a90.425 90.425 0 0 1 4.133 3.766 99.06 99.06 0 0 1 4.133 4.351 110.07 110.07 0 0 1 4.137 5.043 126.688 126.688 0 0 1 4.133 5.836 142.69 142.69 0 0 1 4.132 6.746 169.861 169.861 0 0 1 4.133 7.813 212.96 212.96 0 0 1 4.137 9.035c1.144 2.703 4.133 10.453 4.133 10.453M-72.277.917l2.82 2.817m-2.82 0 2.82-2.817M-68.14 1.28l2.816 2.82m-2.817 0 2.817-2.82M-64.008 1.702l2.817 2.82m-2.817 0 2.817-2.82M-59.875 2.195l2.82 2.816m-2.82 0 2.82-2.816M-55.742 2.757l2.82 2.82m-2.82 0 2.82-2.82M-51.605 3.413l2.816 2.82m-2.816 0 2.816-2.82M-47.473 4.175l2.817 2.816m-2.817 0 2.817-2.816M-43.34 5.05l2.82 2.816m-2.82 0 2.82-2.816M-39.207 6.062l2.82 2.816m-2.82 0 2.82-2.816M-35.07 7.237l2.816 2.817m-2.816 0 2.816-2.817M-30.938 8.593l2.817 2.82m-2.817 0 2.817-2.82M-26.805 10.163l2.817 2.82m-2.817 0 2.817-2.82M-22.672 11.984l2.82 2.816m-2.82 0 2.82-2.816M-18.535 14.085l2.816 2.82m-2.816 0 2.816-2.82M-14.402 16.519l2.816 2.816m-2.816 0 2.816-2.816M-10.27 19.331l2.817 2.817m-2.817 0 2.817-2.817M-6.137 22.59l2.82 2.815m-2.82 0 2.82-2.816M-2 26.359l2.816 2.816m-2.816 0 2.816-2.816M2.133 30.71l2.816 2.817m-2.816 0 2.816-2.817M6.266 35.75l2.816 2.82m-2.816 0 2.816-2.82M10.398 41.585l2.82 2.817m-2.82 0 2.82-2.817M14.535 48.335l2.817 2.817m-2.817 0 2.817-2.817M18.668 56.144l2.816 2.816m-2.816 0 2.816-2.816M22.8 65.179l2.817 2.816m-2.816 0 2.816-2.816M26.934 75.632l2.82 2.816m-2.82 0 2.82-2.816" transform="matrix(1 0 0 -1 78.856 85.3)"/><use xlink:href="#a" x="14.7" y="78.476" style="fill:#000;fill-opacity:1"/><use xlink:href="#b" x="17.261" y="78.476" style="fill:#000;fill-opacity:1"/><use xlink:href="#a" x="47.77" y="69.253" style="fill:#000;fill-opacity:1"/><use xlink:href="#c" x="50.331" y="69.253" style="fill:#000;fill-opacity:1"/><use xlink:href="#a" x="88.633" y="16.057" style="fill:#000;fill-opacity:1"/><g style="fill:#000;fill-opacity:1"><use xlink:href="#d" x="91.194" y="16.057"/><use xlink:href="#c" x="95.801" y="16.057"/></g><use xlink:href="#e" x="16.753" y="95.085" style="fill:#000;fill-opacity:1"/><use xlink:href="#f" x="23.34" y="95.085" style="fill:#000;fill-opacity:1"/><use xlink:href="#e" x="45.099" y="95.085" style="fill:#000;fill-opacity:1"/><use xlink:href="#g" x="51.685" y="95.085" style="fill:#000;fill-opacity:1"/><use xlink:href="#g" x="105.085" y="95.085" style="fill:#000;fill-opacity:1"/><use xlink:href="#f" x="133.431" y="95.085" style="fill:#000;fill-opacity:1"/><use xlink:href="#e" x="63.386" y="115.799" style="fill:#000;fill-opacity:1"/><use xlink:href="#g" x="69.972" y="115.799" style="fill:#000;fill-opacity:1"/><use xlink:href="#h" x="71.966" y="93.092" style="fill:#000;fill-opacity:1"/><use xlink:href="#g" x="69.972" y="59.522" style="fill:#000;fill-opacity:1"/><use xlink:href="#f" x="69.972" y="31.175" style="fill:#000;fill-opacity:1"/><use xlink:href="#i" x="160.714" y="87.23" style="fill:#000;fill-opacity:1"/></svg>