<svg xmlns="http://www.w3.org/2000/svg" width="116.355" height="78.651" viewBox="0 0 87.266 58.988" version="1.2"><defs><clipPath id="a"><path d="M0 23h64v35.98H0Zm0 0"/></clipPath><clipPath id="b"><path d="M0 23h49v35.98H0Zm0 0"/></clipPath></defs><path style="fill:none;stroke-width:.19925;stroke-linecap:butt;stroke-linejoin:miter;stroke:gray;stroke-opacity:1;stroke-miterlimit:10" d="M.002.002H85.04M0 28.346h85.04M0 56.686h85.04M0 .001v56.691M28.346.002v56.691M56.693.002v56.691M85.03.002v56.691" transform="matrix(1 0 0 -1 .76 57.787)"/><g clip-path="url(#a)"><path style="fill:none;stroke-width:.3985;stroke-linecap:butt;stroke-linejoin:miter;stroke:#000;stroke-opacity:1;stroke-miterlimit:10" d="m.002.002 56.691 28.344L28.345.002" transform="matrix(1 0 0 -1 .76 57.787)"/></g><g clip-path="url(#b)"><path style="fill:none;stroke-width:.3985;stroke-linecap:butt;stroke-linejoin:miter;stroke:red;stroke-opacity:1;stroke-miterlimit:10" d="m.002.002 42.52 28.344L21.26.002" transform="matrix(1 0 0 -1 .76 57.787)"/></g></svg>