<svg xmlns="http://www.w3.org/2000/svg" xmlns:xlink="http://www.w3.org/1999/xlink" width="110.076" height="72.051" viewBox="0 0 82.557 54.038" version="1.2"><defs><symbol overflow="visible" id="b"><path style="stroke:none" d="M2.5-5.078c0-.219-.016-.219-.234-.219-.329.313-.75.5-1.5.5v.266c.218 0 .64 0 1.109-.203v4.078c0 .297-.031.39-.781.39H.812V0c.329-.031 1.016-.031 1.375-.031.36 0 1.047 0 1.376.031v-.266H3.28c-.75 0-.781-.093-.781-.39Zm0 0"/></symbol><symbol overflow="visible" id="c"><path style="stroke:none" d="M2.25-1.625c.125-.125.453-.39.594-.5.484-.453.953-.89.953-1.61 0-.953-.797-1.562-1.781-1.562-.97 0-1.594.719-1.594 1.438 0 .39.312.437.422.437.172 0 .422-.11.422-.422 0-.406-.407-.406-.5-.406.234-.594.765-.781 1.156-.781.734 0 1.125.625 1.125 1.297 0 .828-.578 1.437-1.531 2.39l-1 1.047C.422-.219.422-.203.422 0h3.14l.235-1.422h-.25c-.016.156-.078.547-.172.703-.047.063-.656.063-.781.063H1.172Zm0 0"/></symbol><symbol overflow="visible" id="d"><path style="stroke:none" d="M3.89-2.547c0-.844-.078-1.36-.343-1.875-.344-.703-1-.875-1.438-.875-1 0-1.375.75-1.484.969C.344-3.75.328-2.953.328-2.547c0 .531.016 1.328.406 1.969.36.594.954.75 1.375.75.391 0 1.063-.125 1.47-.906.296-.579.312-1.297.312-1.813ZM2.11-.062c-.266 0-.813-.126-.985-.954-.094-.453-.094-1.203-.094-1.625 0-.546 0-1.109.094-1.546.172-.813.781-.891.984-.891.266 0 .829.14.985.86.094.437.094 1.046.094 1.577 0 .47 0 1.188-.094 1.641-.172.828-.719.938-.985.938Zm0 0"/></symbol><clipPath id="a"><path d="M0 0h82.336v53.559H0Zm0 0"/></clipPath></defs><path style="fill:none;stroke-width:.3985;stroke-linecap:round;stroke-linejoin:miter;stroke:#000;stroke-opacity:1;stroke-miterlimit:10" d="M28.347-1.99v3.984M56.695-1.99v3.984M-1.993 28.345h3.985" transform="matrix(1 0 0 -1 17.165 36.31)"/><path style="fill:none;stroke-width:.3985;stroke-linecap:butt;stroke-linejoin:miter;stroke:#000;stroke-opacity:1;stroke-miterlimit:10" d="M-16.38.001h80.145" transform="matrix(1 0 0 -1 17.165 36.31)"/><path style="fill:none;stroke-width:.3985;stroke-linecap:round;stroke-linejoin:round;stroke:#000;stroke-opacity:1;stroke-miterlimit:10" d="M-2.074 2.392C-1.694.955-.85.279 0 .002-.85-.28-1.695-.957-2.074-2.39" transform="matrix(1 0 0 -1 81.128 36.31)"/><path style="fill:none;stroke-width:.3985;stroke-linecap:butt;stroke-linejoin:miter;stroke:#000;stroke-opacity:1;stroke-miterlimit:10" d="M0-16.233v51.625" transform="matrix(1 0 0 -1 17.165 36.31)"/><path style="fill:none;stroke-width:.3985;stroke-linecap:round;stroke-linejoin:round;stroke:#000;stroke-opacity:1;stroke-miterlimit:10" d="M-2.074 2.391C-1.695.957-.851.278 0 .001-.85-.282-1.695-.958-2.074-2.39" transform="matrix(0 -1 -1 0 17.165 .719)"/><path style="stroke:none;fill-rule:nonzero;fill:red;fill-opacity:1" d="M67.36 7.965a5.668 5.668 0 1 0-11.337 0 5.667 5.667 0 0 0 5.668 5.668 5.667 5.667 0 0 0 5.668-5.668Zm0 0"/><g clip-path="url(#a)"><path style="fill:none;stroke-width:.59776;stroke-linecap:butt;stroke-linejoin:miter;stroke:#000;stroke-opacity:1;stroke-miterlimit:10" d="m-8.907-8.76 2.735 2.636 2.734 2.696 2.73 2.722 2.735 2.73L4.76 4.737l2.735 2.672 2.73 2.597 2.734 2.508 2.735 2.39 2.73 2.25 2.735 2.095 2.734 1.914 2.73 1.718 2.735 1.504 2.734 1.278 2.73 1.039 2.735.793 2.735.535 2.734.277 2.73.012 2.735-.25 2.734-.512 2.73-.766 2.735-1.015" transform="matrix(1 0 0 -1 17.165 36.31)"/></g><use xlink:href="#b" x="43.394" y="46.095" style="fill:#000;fill-opacity:1"/><use xlink:href="#c" x="71.74" y="46.095" style="fill:#000;fill-opacity:1"/><use xlink:href="#d" x="10.274" y="44.102" style="fill:#000;fill-opacity:1"/><use xlink:href="#b" x="8.281" y="10.532" style="fill:#000;fill-opacity:1"/></svg>