<svg xmlns="http://www.w3.org/2000/svg" xmlns:xlink="http://www.w3.org/1999/xlink" width="86.211" height="87.32pt" viewBox="0 0 64.658 87.32" version="1.2"><defs><symbol overflow="visible" id="k"><path style="stroke:none" d="m5.89-3.031-.156-1.656H.516L.344-3.032H.78C.86-3.781.97-4.297 1.97-4.297h.625V-.39H1.547V0c.172-.016.562-.016.75-.016l.828-.015.86.015c.203 0 .53 0 .718.016v-.39H3.656v-3.907h.61c1.015 0 1.109.5 1.187 1.266Zm0 0"/></symbol><symbol overflow="visible" id="l"><path style="stroke:none" d="M4.734 0v-.39h-.468v-1.704c0-.86-.547-1.047-1.188-1.047-.781 0-1.172.422-1.328.657v-2.36L.453-4.78v.39c.406 0 .453 0 .453.266v3.734H.453V0s.563-.031.906-.031c.329 0 .907.031.907.031v-.39h-.47v-1.344c0-.813.72-1.079 1.141-1.079.313 0 .438.157.438.657v1.765h-.469V0s.578-.031.906-.031c.344 0 .922.031.922.031Zm0 0"/></symbol><symbol overflow="visible" id="m"><path style="stroke:none" d="M3.844-.797c0-.156-.156-.156-.235-.156-.125 0-.156.015-.203.125-.25.515-.89.515-1.015.515-1.094 0-1.125-.812-1.141-1.14h2.344c.156 0 .25 0 .25-.203s-.047-.735-.39-1.063c-.376-.375-.892-.437-1.267-.437-1.296 0-1.906.765-1.906 1.594 0 .828.64 1.609 2.016 1.609.25 0 .656-.031 1-.219.422-.219.547-.547.547-.625Zm-.688-.937H1.25c0-.282.047-1.11.938-1.11.906 0 .953.797.968 1.11Zm0 0"/></symbol><symbol overflow="visible" id="n"><path style="stroke:none" d="M4.219-1.516c0-.828-.61-1.64-1.969-1.64-1.375 0-1.969.812-1.969 1.64C.281-.703.906.047 2.25.047c1.36 0 1.969-.75 1.969-1.563Zm-.969-.093c0 .609 0 1.296-1 1.296s-1-.687-1-1.296c0-.547 0-1.235 1-1.235s1 .688 1 1.235Zm0 0"/></symbol><symbol overflow="visible" id="o"><path style="stroke:none" d="M3.453-2.516c0-.39-.39-.625-.828-.625-.5 0-.828.344-1.016.766h-.015v-.766L.39-3.078v.39c.406 0 .453 0 .453.266V-.39H.39V0c.015 0 .562-.031.89-.031L2.266 0v-.39h-.579V-1.47c0-.625.282-1.312.907-1.343 0 0-.094.124-.094.296a.46.46 0 0 0 .469.47.464.464 0 0 0 .484-.47Zm0 0"/></symbol><symbol overflow="visible" id="p"><path style="stroke:none" d="M2.984-.844v-.36h-.437v.329c0 .484-.281.563-.422.563-.406 0-.422-.344-.422-.532v-1.86h1.14v-.39h-1.14v-1.328h-.437c0 .64-.329 1.375-1.079 1.39v.329h.641v1.86c0 .687.563.89 1.172.89.547 0 .984-.328.984-.89Zm0 0"/></symbol><symbol overflow="visible" id="q"><path style="stroke:none" d="M2.188 0v-.39h-.422v-2.75l-1.282.062v.39c.407 0 .454 0 .454.266V-.39h-.47V0s.563-.031.876-.031c.281 0 .562.015.843.031Zm-.344-4.188a.577.577 0 0 0-.578-.578.57.57 0 0 0-.563.563c0 .328.25.578.563.578a.574.574 0 0 0 .578-.563Zm0 0"/></symbol><symbol overflow="visible" id="r"><path style="stroke:none" d="M3.734-.797c0-.125-.125-.125-.234-.125-.156 0-.172.016-.219.11-.11.234-.328.5-.86.5-1.124 0-1.124-.985-1.124-1.266 0-.516.078-1.219 1.016-1.219.046 0 .437 0 .437.031l-.016.032a.49.49 0 0 0-.078.28c0 .282.219.47.485.47.28 0 .484-.188.484-.485 0-.672-.922-.687-1.328-.687-1.563 0-1.969.969-1.969 1.61C.328-.735.938.046 2.25.046c.344 0 .703-.063.969-.219.406-.234.515-.578.515-.625Zm0 0"/></symbol><symbol overflow="visible" id="s"><path style="stroke:none" d="M4.313-.188c0-.203-.11-.203-.25-.203-.422 0-.422-.062-.422-.218v-1.454c0-.562-.454-1.093-1.704-1.093-.406 0-1.39 0-1.39.687 0 .313.234.485.484.485.313 0 .485-.204.485-.47a.49.49 0 0 0-.079-.28c-.015-.032-.015-.047-.015-.047 0-.047.437-.063.484-.063.485 0 .86.203.86.797v.188C2.422-1.86.25-1.83.25-.797c0 .64.766.844 1.469.844.734 0 1.062-.344 1.187-.516 0 .297.188.469.75.469h.406c.141 0 .25 0 .25-.188ZM2.766-.953c0 .14 0 .344-.282.515-.265.157-.593.157-.625.157-.39 0-.734-.219-.734-.531 0-.563.938-.75 1.64-.782Zm0 0"/></symbol><symbol overflow="visible" id="t"><path style="stroke:none" d="M2.234 0v-.39h-.468v-4.454L.469-4.78v.39c.406 0 .469 0 .469.266v3.734h-.47V0c.016 0 .563-.031.891-.031.329 0 .86.031.875.031Zm0 0"/></symbol><symbol overflow="visible" id="u"><path style="stroke:none" d="M5.953-1.594c0-.172-.078-.172-.219-.172-.093 0-.203 0-.218.125C5.453-.578 4.39-.312 3.78-.312c-.562 0-1.203-.141-1.625-.547-.406-.391-.5-.985-.5-1.532 0-.656.14-1.265.61-1.64.484-.36 1.078-.438 1.5-.438.906 0 1.546.61 1.687 1.328.031.188.031.204.234.204h.047c.204 0 .22-.016.22-.22V-4.64c0-.14 0-.218-.157-.218-.078 0-.094 0-.172.062l-.469.406c-.687-.468-1.343-.468-1.547-.468C1.58-4.86.516-3.734.516-2.391c0 1.313 1.03 2.47 3.093 2.47 1.438 0 2.344-.798 2.344-1.673Zm0 0"/></symbol><symbol overflow="visible" id="v"><path style="stroke:none" d="M7.219 0v-.39H6.75v-1.704c0-.875-.578-1.047-1.203-1.047-.656 0-1.094.313-1.313.657-.171-.61-.78-.657-1.156-.657-.828 0-1.234.5-1.375.735v-.735l-1.25.063v.39c.406 0 .453 0 .453.266V-.39H.453V0s.563-.031.906-.031c.329 0 .907.031.907.031v-.39h-.47v-1.344c0-.829.75-1.079 1.141-1.079.313 0 .454.157.454.672v1.75h-.47V0s.563-.031.907-.031c.344 0 .906.031.906.031v-.39h-.468v-1.344c0-.829.75-1.079 1.156-1.079.312 0 .437.157.437.672v1.75h-.468V0s.578-.031.906-.031c.344 0 .922.031.922.031Zm0 0"/></symbol><symbol overflow="visible" id="w"><path style="stroke:none" d="M4.672-1.547c0-.844-.61-1.594-1.797-1.594-.36 0-.781.079-1.188.329v-.329l-1.296.063v.39c.109 0 .25 0 .343.016.11.016.11.094.11.219V.969H.39v.39s.562-.03.906-.03c.328 0 .906.03.906.03V.97h-.469V-.266c.172.125.516.313 1 .313 1.204 0 1.938-.688 1.938-1.594Zm-.969 0c0 .906-.531 1.266-1.062 1.266-.516 0-.829-.375-.907-.5v-1.453c0-.125 0-.141.11-.22.328-.296.734-.327.89-.327.594 0 .97.469.97 1.234Zm0 0"/></symbol><symbol overflow="visible" id="x"><path style="stroke:none" d="M4.734 0v-.39c-.406 0-.468 0-.468-.266v-2.485l-1.36.063v.39c.422 0 .469 0 .469.266v1.297c0 .578-.438.844-.969.844-.594 0-.61-.156-.61-.485V-3.14l-1.343.063v.39c.406 0 .453 0 .453.266v1.578c0 .813.781.89 1.375.89.235 0 .75 0 1.14-.5v.5Zm0 0"/></symbol><symbol overflow="visible" id="y"><path style="stroke:none" d="M4.469-1.422c0-.797-.657-1.328-1.328-1.469L2-3.109c-.516-.094-.766-.391-.766-.688 0-.297.204-.719 1.032-.719.593 0 1.343.22 1.5 1.125.046.172.046.204.234.204.203 0 .219-.032.219-.235V-4.64c0-.14 0-.218-.157-.218-.078 0-.093 0-.187.078l-.234.234c-.047.047-.063.047-.063.047s-.015 0-.062-.031c-.391-.266-.86-.328-1.25-.328C1-4.86.516-4.11.516-3.47c0 .375.171.672.375.89.375.376.718.454 1.578.61l.61.11c.343.093.687.359.687.765 0 .078 0 .782-1.063.782-.219 0-.75-.016-1.172-.22-.484-.25-.562-.64-.562-.874-.016-.14-.016-.188-.219-.188s-.234.032-.234.235v1.218c0 .141 0 .22.171.22.079 0 .094 0 .141-.048.078-.062.25-.25.328-.312.485.297 1.078.36 1.563.36 1.312 0 1.75-.829 1.75-1.5Zm0 0"/></symbol><symbol overflow="visible" id="z"><path style="stroke:none" d="M4.734 0v-.39h-.468v-1.704c0-.86-.547-1.047-1.188-1.047-.844 0-1.234.5-1.375.735v-.735l-1.25.063v.39c.406 0 .453 0 .453.266V-.39H.453V0s.563-.031.906-.031c.329 0 .907.031.907.031v-.39h-.47v-1.344c0-.813.72-1.079 1.141-1.079.313 0 .438.157.438.657v1.765h-.469V0s.578-.031.906-.031c.344 0 .922.031.922.031Zm0 0"/></symbol><clipPath id="a"><path d="M0 0h64.488v86.98H0Zm0 0"/></clipPath><clipPath id="b"><path d="M0 0h64.488v75H0Zm0 0"/></clipPath><clipPath id="c"><path d="M10 0h54.488v57H10Zm0 0"/></clipPath><clipPath id="d"><path d="M25 7h39.488v37H25Zm0 0"/></clipPath><clipPath id="e"><path d="M35 11h29.488v28H35Zm0 0"/></clipPath><clipPath id="f"><path d="M42 16h22.488v21H42Zm0 0"/></clipPath><clipPath id="g"><path d="M42 15h22.488v19H42Zm0 0"/></clipPath><clipPath id="h"><path d="M35 9h29.488v29H35Zm0 0"/></clipPath><clipPath id="i"><path d="M42 13h22.488v19H42Zm0 0"/></clipPath><clipPath id="j"><path d="M0 0h64.488v75H0Zm0 0"/></clipPath></defs><g clip-path="url(#a)"><path style="fill:none;stroke-width:3.09642;stroke-linecap:butt;stroke-linejoin:miter;stroke:gray;stroke-opacity:1;stroke-miterlimit:10" d="M29.763 8.504c0 32.316-6.36 41.101-29.762 41.101S-29.764 40.82-29.764 8.504c0-32.317 6.363-41.102 29.765-41.102s29.762 8.785 29.762 41.102Zm0 0" transform="matrix(1 0 0 -1 32.159 51.832)"/></g><path style="fill:none;stroke-width:3.09642;stroke-linecap:butt;stroke-linejoin:miter;stroke:#000;stroke-opacity:1;stroke-miterlimit:10" d="M.001.098v13.656" transform="matrix(1 0 0 -1 32.159 51.832)"/><path style="stroke:none;fill-rule:nonzero;fill:#000;fill-opacity:1" d="M33.398 50.695c0 .57.497.57 1.711.57v.567a59.493 59.493 0 0 0-5.902 0v-.566c1.219 0 1.715 0 1.715-.57Zm0 0"/><g clip-path="url(#b)"><path style="fill:none;stroke-width:2.47714;stroke-linecap:round;stroke-linejoin:miter;stroke:#191919;stroke-opacity:1;stroke-miterlimit:10" d="m.001 12.758 4.656 8.758" transform="matrix(1 0 0 -1 32.159 51.832)"/></g><g clip-path="url(#c)"><path style="fill:none;stroke-width:1.85785;stroke-linecap:round;stroke-linejoin:miter;stroke:#333;stroke-opacity:1;stroke-miterlimit:10" d="m4.657 21.516 6.309 4.582" transform="matrix(1 0 0 -1 32.159 51.832)"/></g><g clip-path="url(#d)"><path style="fill:none;stroke-width:1.23854;stroke-linecap:round;stroke-linejoin:miter;stroke:#4c4c4c;stroke-opacity:1;stroke-miterlimit:10" d="m10.966 26.098 5.543 1.18" transform="matrix(1 0 0 -1 32.159 51.832)"/></g><g clip-path="url(#e)"><path style="fill:none;stroke-width:.92892;stroke-linecap:round;stroke-linejoin:miter;stroke:#666;stroke-opacity:1;stroke-miterlimit:10" d="m16.509 27.277 2.793-.492" transform="matrix(1 0 0 -1 32.159 51.832)"/></g><g clip-path="url(#f)"><path style="fill:none;stroke-width:.61926;stroke-linecap:round;stroke-linejoin:miter;stroke:gray;stroke-opacity:1;stroke-miterlimit:10" d="m19.302 26.785 4.297-2.48" transform="matrix(1 0 0 -1 32.159 51.832)"/></g><g clip-path="url(#g)"><path style="fill:none;stroke-width:.61926;stroke-linecap:round;stroke-linejoin:miter;stroke:#bfbfbf;stroke-opacity:1;stroke-miterlimit:10" d="m19.302 26.785 4.883.86" transform="matrix(1 0 0 -1 32.159 51.832)"/></g><g clip-path="url(#h)"><path style="fill:none;stroke-width:.92892;stroke-linecap:round;stroke-linejoin:miter;stroke:#666;stroke-opacity:1;stroke-miterlimit:10" d="m16.509 27.277 2.352 1.586" transform="matrix(1 0 0 -1 32.159 51.832)"/></g><g clip-path="url(#i)"><path style="fill:none;stroke-width:.61926;stroke-linecap:round;stroke-linejoin:miter;stroke:gray;stroke-opacity:1;stroke-miterlimit:10" d="m18.86 28.863 4.813 1.2" transform="matrix(1 0 0 -1 32.159 51.832)"/></g><path style="fill:none;stroke-width:.61926;stroke-linecap:round;stroke-linejoin:miter;stroke:#bfbfbf;stroke-opacity:1;stroke-miterlimit:10" d="m18.86 28.863 2.915 4.012" transform="matrix(1 0 0 -1 32.159 51.832)"/><path style="fill:none;stroke-width:1.23854;stroke-linecap:round;stroke-linejoin:miter;stroke:#4c4c4c;stroke-opacity:1;stroke-miterlimit:10" d="m10.966 26.098 2.832 4.91" transform="matrix(1 0 0 -1 32.159 51.832)"/><path style="fill:none;stroke-width:.92892;stroke-linecap:round;stroke-linejoin:miter;stroke:#666;stroke-opacity:1;stroke-miterlimit:10" d="m13.798 31.008 2.234 1.746" transform="matrix(1 0 0 -1 32.159 51.832)"/><path style="fill:none;stroke-width:.61926;stroke-linecap:round;stroke-linejoin:miter;stroke:gray;stroke-opacity:1;stroke-miterlimit:10" d="m16.032 32.754 4.72 1.531" transform="matrix(1 0 0 -1 32.159 51.832)"/><path style="fill:none;stroke-width:.61926;stroke-linecap:round;stroke-linejoin:miter;stroke:#bfbfbf;stroke-opacity:1;stroke-miterlimit:10" d="m16.032 32.754 2.63 4.207" transform="matrix(1 0 0 -1 32.159 51.832)"/><path style="fill:none;stroke-width:.92892;stroke-linecap:round;stroke-linejoin:miter;stroke:#666;stroke-opacity:1;stroke-miterlimit:10" d="m13.798 31.008.395 2.808" transform="matrix(1 0 0 -1 32.159 51.832)"/><path style="fill:none;stroke-width:.61926;stroke-linecap:round;stroke-linejoin:miter;stroke:gray;stroke-opacity:1;stroke-miterlimit:10" d="m14.193 33.816 2.328 4.38" transform="matrix(1 0 0 -1 32.159 51.832)"/><path style="fill:none;stroke-width:.61926;stroke-linecap:round;stroke-linejoin:miter;stroke:#bfbfbf;stroke-opacity:1;stroke-miterlimit:10" d="m14.193 33.816-1.032 4.852" transform="matrix(1 0 0 -1 32.159 51.832)"/><path style="fill:none;stroke-width:1.85785;stroke-linecap:round;stroke-linejoin:miter;stroke:#333;stroke-opacity:1;stroke-miterlimit:10" d="m4.657 21.516.274 7.789" transform="matrix(1 0 0 -1 32.159 51.832)"/><path style="fill:none;stroke-width:1.23854;stroke-linecap:round;stroke-linejoin:miter;stroke:#4c4c4c;stroke-opacity:1;stroke-miterlimit:10" d="m4.93 29.305 2.485 5.097" transform="matrix(1 0 0 -1 32.159 51.832)"/><path style="fill:none;stroke-width:.92892;stroke-linecap:round;stroke-linejoin:miter;stroke:#666;stroke-opacity:1;stroke-miterlimit:10" d="m7.415 34.402 2.106 1.895" transform="matrix(1 0 0 -1 32.159 51.832)"/><path style="fill:none;stroke-width:.61926;stroke-linecap:round;stroke-linejoin:miter;stroke:gray;stroke-opacity:1;stroke-miterlimit:10" d="m9.52 36.297 4.602 1.86" transform="matrix(1 0 0 -1 32.159 51.832)"/><path style="fill:none;stroke-width:.61926;stroke-linecap:round;stroke-linejoin:miter;stroke:#bfbfbf;stroke-opacity:1;stroke-miterlimit:10" d="m9.52 36.297 2.329 4.383" transform="matrix(1 0 0 -1 32.159 51.832)"/><path style="fill:none;stroke-width:.92892;stroke-linecap:round;stroke-linejoin:miter;stroke:#666;stroke-opacity:1;stroke-miterlimit:10" d="m7.415 34.402.2 2.828" transform="matrix(1 0 0 -1 32.159 51.832)"/><path style="fill:none;stroke-width:.61926;stroke-linecap:round;stroke-linejoin:miter;stroke:gray;stroke-opacity:1;stroke-miterlimit:10" d="m7.614 37.23 2.016 4.532" transform="matrix(1 0 0 -1 32.159 51.832)"/><path style="fill:none;stroke-width:.61926;stroke-linecap:round;stroke-linejoin:miter;stroke:#bfbfbf;stroke-opacity:1;stroke-miterlimit:10" d="m7.614 37.23-1.367 4.766" transform="matrix(1 0 0 -1 32.159 51.832)"/><path style="fill:none;stroke-width:1.23854;stroke-linecap:round;stroke-linejoin:miter;stroke:#4c4c4c;stroke-opacity:1;stroke-miterlimit:10" d="m4.93 29.305-2.124 5.257" transform="matrix(1 0 0 -1 32.159 51.832)"/><path style="fill:none;stroke-width:.92892;stroke-linecap:round;stroke-linejoin:miter;stroke:#666;stroke-opacity:1;stroke-miterlimit:10" d="M2.806 34.562v2.836" transform="matrix(1 0 0 -1 32.159 51.832)"/><path style="fill:none;stroke-width:.61926;stroke-linecap:round;stroke-linejoin:miter;stroke:gray;stroke-opacity:1;stroke-miterlimit:10" d="m2.806 37.398 1.695 4.66" transform="matrix(1 0 0 -1 32.159 51.832)"/><path style="fill:none;stroke-width:.61926;stroke-linecap:round;stroke-linejoin:miter;stroke:#bfbfbf;stroke-opacity:1;stroke-miterlimit:10" d="m2.806 37.398-1.695 4.66" transform="matrix(1 0 0 -1 32.159 51.832)"/><path style="fill:none;stroke-width:.92892;stroke-linecap:round;stroke-linejoin:miter;stroke:#666;stroke-opacity:1;stroke-miterlimit:10" d="m2.806 34.562-1.969 2.04" transform="matrix(1 0 0 -1 32.159 51.832)"/><path style="fill:none;stroke-width:.61926;stroke-linecap:round;stroke-linejoin:miter;stroke:gray;stroke-opacity:1;stroke-miterlimit:10" d="m.837 36.602-2.02 4.53" transform="matrix(1 0 0 -1 32.159 51.832)"/><path style="fill:none;stroke-width:.61926;stroke-linecap:round;stroke-linejoin:miter;stroke:#bfbfbf;stroke-opacity:1;stroke-miterlimit:10" d="m.837 36.602-4.457 2.175" transform="matrix(1 0 0 -1 32.159 51.832)"/><g clip-path="url(#j)"><path style="fill:none;stroke-width:2.47714;stroke-linecap:round;stroke-linejoin:miter;stroke:#191919;stroke-opacity:1;stroke-miterlimit:10" d="m.001 12.758-4.66 8.758" transform="matrix(1 0 0 -1 32.159 51.832)"/></g><path style="fill:none;stroke-width:1.85785;stroke-linecap:round;stroke-linejoin:miter;stroke:#333;stroke-opacity:1;stroke-miterlimit:10" d="m-4.659 21.516-.27 7.789" transform="matrix(1 0 0 -1 32.159 51.832)"/><path style="fill:none;stroke-width:1.23854;stroke-linecap:round;stroke-linejoin:miter;stroke:#4c4c4c;stroke-opacity:1;stroke-miterlimit:10" d="m-4.929 29.305 2.122 5.257" transform="matrix(1 0 0 -1 32.159 51.832)"/><path style="fill:none;stroke-width:.92892;stroke-linecap:round;stroke-linejoin:miter;stroke:#666;stroke-opacity:1;stroke-miterlimit:10" d="m-2.807 34.562 1.968 2.04" transform="matrix(1 0 0 -1 32.159 51.832)"/><path style="fill:none;stroke-width:.61926;stroke-linecap:round;stroke-linejoin:miter;stroke:gray;stroke-opacity:1;stroke-miterlimit:10" d="m-.839 36.602 4.461 2.175" transform="matrix(1 0 0 -1 32.159 51.832)"/><path style="fill:none;stroke-width:.61926;stroke-linecap:round;stroke-linejoin:miter;stroke:#bfbfbf;stroke-opacity:1;stroke-miterlimit:10" d="m-.839 36.602 2.02 4.53" transform="matrix(1 0 0 -1 32.159 51.832)"/><path style="fill:none;stroke-width:.92892;stroke-linecap:round;stroke-linejoin:miter;stroke:#666;stroke-opacity:1;stroke-miterlimit:10" d="M-2.807 34.562v2.836" transform="matrix(1 0 0 -1 32.159 51.832)"/><path style="fill:none;stroke-width:.61926;stroke-linecap:round;stroke-linejoin:miter;stroke:gray;stroke-opacity:1;stroke-miterlimit:10" d="m-2.807 37.398 1.699 4.66" transform="matrix(1 0 0 -1 32.159 51.832)"/><path style="fill:none;stroke-width:.61926;stroke-linecap:round;stroke-linejoin:miter;stroke:#bfbfbf;stroke-opacity:1;stroke-miterlimit:10" d="m-2.807 37.398-1.696 4.66" transform="matrix(1 0 0 -1 32.159 51.832)"/><path style="fill:none;stroke-width:1.23854;stroke-linecap:round;stroke-linejoin:miter;stroke:#4c4c4c;stroke-opacity:1;stroke-miterlimit:10" d="m-4.929 29.305-2.488 5.097" transform="matrix(1 0 0 -1 32.159 51.832)"/><path style="fill:none;stroke-width:.92892;stroke-linecap:round;stroke-linejoin:miter;stroke:#666;stroke-opacity:1;stroke-miterlimit:10" d="m-7.417 34.402-.195 2.828" transform="matrix(1 0 0 -1 32.159 51.832)"/><path style="fill:none;stroke-width:.61926;stroke-linecap:round;stroke-linejoin:miter;stroke:gray;stroke-opacity:1;stroke-miterlimit:10" d="m-7.612 37.23 1.367 4.766" transform="matrix(1 0 0 -1 32.159 51.832)"/><path style="fill:none;stroke-width:.61926;stroke-linecap:round;stroke-linejoin:miter;stroke:#bfbfbf;stroke-opacity:1;stroke-miterlimit:10" d="m-7.612 37.23-2.02 4.532" transform="matrix(1 0 0 -1 32.159 51.832)"/><path style="fill:none;stroke-width:.92892;stroke-linecap:round;stroke-linejoin:miter;stroke:#666;stroke-opacity:1;stroke-miterlimit:10" d="m-7.417 34.402-2.105 1.895" transform="matrix(1 0 0 -1 32.159 51.832)"/><path style="fill:none;stroke-width:.61926;stroke-linecap:round;stroke-linejoin:miter;stroke:gray;stroke-opacity:1;stroke-miterlimit:10" d="m-9.522 36.297-2.328 4.383" transform="matrix(1 0 0 -1 32.159 51.832)"/><path style="fill:none;stroke-width:.61926;stroke-linecap:round;stroke-linejoin:miter;stroke:#bfbfbf;stroke-opacity:1;stroke-miterlimit:10" d="m-9.522 36.297-4.598 1.86" transform="matrix(1 0 0 -1 32.159 51.832)"/><path style="fill:none;stroke-width:1.85785;stroke-linecap:round;stroke-linejoin:miter;stroke:#333;stroke-opacity:1;stroke-miterlimit:10" d="m-4.659 21.516-6.305 4.582" transform="matrix(1 0 0 -1 32.159 51.832)"/><path style="fill:none;stroke-width:1.23854;stroke-linecap:round;stroke-linejoin:miter;stroke:#4c4c4c;stroke-opacity:1;stroke-miterlimit:10" d="m-10.964 26.098-2.836 4.91" transform="matrix(1 0 0 -1 32.159 51.832)"/><path style="fill:none;stroke-width:.92892;stroke-linecap:round;stroke-linejoin:miter;stroke:#666;stroke-opacity:1;stroke-miterlimit:10" d="m-13.8 31.008-.394 2.808" transform="matrix(1 0 0 -1 32.159 51.832)"/><path style="fill:none;stroke-width:.61926;stroke-linecap:round;stroke-linejoin:miter;stroke:gray;stroke-opacity:1;stroke-miterlimit:10" d="m-14.194 33.816 1.031 4.852" transform="matrix(1 0 0 -1 32.159 51.832)"/><path style="fill:none;stroke-width:.61926;stroke-linecap:round;stroke-linejoin:miter;stroke:#bfbfbf;stroke-opacity:1;stroke-miterlimit:10" d="m-14.194 33.816-2.328 4.38" transform="matrix(1 0 0 -1 32.159 51.832)"/><path style="fill:none;stroke-width:.92892;stroke-linecap:round;stroke-linejoin:miter;stroke:#666;stroke-opacity:1;stroke-miterlimit:10" d="m-13.8 31.008-2.234 1.746" transform="matrix(1 0 0 -1 32.159 51.832)"/><path style="fill:none;stroke-width:.61926;stroke-linecap:round;stroke-linejoin:miter;stroke:gray;stroke-opacity:1;stroke-miterlimit:10" d="m-16.034 32.754-2.629 4.207" transform="matrix(1 0 0 -1 32.159 51.832)"/><path style="fill:none;stroke-width:.61926;stroke-linecap:round;stroke-linejoin:miter;stroke:#bfbfbf;stroke-opacity:1;stroke-miterlimit:10" d="m-16.034 32.754-4.715 1.531" transform="matrix(1 0 0 -1 32.159 51.832)"/><path style="fill:none;stroke-width:1.23854;stroke-linecap:round;stroke-linejoin:miter;stroke:#4c4c4c;stroke-opacity:1;stroke-miterlimit:10" d="m-10.964 26.098-5.547 1.18" transform="matrix(1 0 0 -1 32.159 51.832)"/><path style="fill:none;stroke-width:.92892;stroke-linecap:round;stroke-linejoin:miter;stroke:#666;stroke-opacity:1;stroke-miterlimit:10" d="m-16.51 27.277-2.348 1.586" transform="matrix(1 0 0 -1 32.159 51.832)"/><path style="fill:none;stroke-width:.61926;stroke-linecap:round;stroke-linejoin:miter;stroke:gray;stroke-opacity:1;stroke-miterlimit:10" d="m-18.858 28.863-2.918 4.012" transform="matrix(1 0 0 -1 32.159 51.832)"/><path style="fill:none;stroke-width:.61926;stroke-linecap:round;stroke-linejoin:miter;stroke:#bfbfbf;stroke-opacity:1;stroke-miterlimit:10" d="m-18.858 28.863-4.813 1.2" transform="matrix(1 0 0 -1 32.159 51.832)"/><path style="fill:none;stroke-width:.92892;stroke-linecap:round;stroke-linejoin:miter;stroke:#666;stroke-opacity:1;stroke-miterlimit:10" d="m-16.51 27.277-2.79-.492" transform="matrix(1 0 0 -1 32.159 51.832)"/><path style="fill:none;stroke-width:.61926;stroke-linecap:round;stroke-linejoin:miter;stroke:gray;stroke-opacity:1;stroke-miterlimit:10" d="m-19.3 26.785-4.886.86" transform="matrix(1 0 0 -1 32.159 51.832)"/><path style="fill:none;stroke-width:.61926;stroke-linecap:round;stroke-linejoin:miter;stroke:#bfbfbf;stroke-opacity:1;stroke-miterlimit:10" d="m-19.3 26.785-4.296-2.48" transform="matrix(1 0 0 -1 32.159 51.832)"/><use xlink:href="#k" x="9.783" y="60.744" style="fill:gray;fill-opacity:1"/><g style="fill:#000;fill-opacity:1"><use xlink:href="#l" x="16.039" y="60.744"/><use xlink:href="#m" x="21.046" y="60.744"/><use xlink:href="#n" x="25.175" y="60.744"/><use xlink:href="#o" x="29.687" y="60.744"/><use xlink:href="#m" x="33.418" y="60.744"/><use xlink:href="#p" x="37.546" y="60.744"/><use xlink:href="#q" x="41.068" y="60.744"/><use xlink:href="#r" x="43.6" y="60.744"/><use xlink:href="#s" x="47.617" y="60.744"/><use xlink:href="#t" x="52.003" y="60.744"/></g><use xlink:href="#u" x="12.217" y="68.714" style="fill:gray;fill-opacity:1"/><g style="fill:#000;fill-opacity:1"><use xlink:href="#n" x="18.71" y="68.714"/><use xlink:href="#v" x="23.222" y="68.714"/><use xlink:href="#w" x="30.705" y="68.714"/><use xlink:href="#x" x="35.712" y="68.714"/><use xlink:href="#p" x="40.719" y="68.714"/><use xlink:href="#m" x="44.241" y="68.714"/><use xlink:href="#o" x="48.37" y="68.714"/></g><use xlink:href="#y" x="17.741" y="76.684" style="fill:gray;fill-opacity:1"/><g style="fill:#000;fill-opacity:1"><use xlink:href="#r" x="22.748" y="76.684"/><use xlink:href="#q" x="26.765" y="76.684"/><use xlink:href="#m" x="29.296" y="76.684"/><use xlink:href="#z" x="33.425" y="76.684"/><use xlink:href="#r" x="38.432" y="76.684"/><use xlink:href="#m" x="42.449" y="76.684"/></g></svg>