<svg xmlns="http://www.w3.org/2000/svg" xmlns:xlink="http://www.w3.org/1999/xlink" width="17.115" height="12.003" viewBox="0 0 12.836 9.002" version="1.2"><defs><symbol overflow="visible" id="a"><path style="stroke:none" d="M2.938-6.375c0-.25 0-.266-.235-.266C2.078-6 1.203-6 .891-6v.313c.203 0 .78 0 1.296-.266v5.172c0 .36-.03.469-.921.469H.953V0c.344-.031 1.203-.031 1.61-.031.39 0 1.265 0 1.609.031v-.313h-.313c-.906 0-.921-.109-.921-.468Zm0 0"/></symbol><symbol overflow="visible" id="b"><path style="stroke:none" d="M6.75-1.61H6.5a3.74 3.74 0 0 1-.188.72c-.046.156-.078.25-.656.25H4.86c.141-.563.438-1.047.891-1.704.469-.703.875-1.39.875-2.187 0-1.375-1.344-2.5-3.031-2.5-1.703 0-3.031 1.14-3.031 2.5 0 .797.406 1.484.875 2.187.437.656.75 1.14.89 1.703h-.797c-.578 0-.61-.093-.656-.234-.094-.234-.14-.484-.188-.734h-.25L.766 0h1.593c.22 0 .25 0 .25-.203 0-.703-.312-1.578-.53-2.219-.22-.578-.5-1.36-.5-2.11 0-1.593 1.109-2.28 2.015-2.28.953 0 2.015.718 2.015 2.28 0 .75-.28 1.5-.562 2.313-.156.422-.469 1.328-.469 2.016 0 .203.031.203.25.203h1.594Zm0 0"/></symbol></defs><g style="fill:#000;fill-opacity:1"><use xlink:href="#a" x=".054" y="7.506"/><use xlink:href="#b" x="5.035" y="7.506"/></g></svg>