<svg xmlns="http://www.w3.org/2000/svg" width="32.712" height="32.715" viewBox="0 0 24.534 24.536" version="1.2"><defs><clipPath id="a"><path d="M0 0h24.3v24.305H0Zm0 0"/></clipPath></defs><g clip-path="url(#a)"><path style="fill:none;stroke-width:.3985;stroke-linecap:butt;stroke-linejoin:miter;stroke:#000;stroke-opacity:1;stroke-miterlimit:10" d="M11.06.001C11.06 6.107 6.107 11.06 0 11.06c-6.11 0-11.058-4.954-11.058-11.059 0-6.11 4.949-11.059 11.058-11.059 6.106 0 11.059 4.95 11.059 11.059Zm0 0" transform="matrix(1 0 0 -1 12.034 12.044)"/></g><path style="stroke:none;fill-rule:nonzero;fill:#000;fill-opacity:1" d="M14.246 8.262a2.211 2.211 0 1 0-4.423 0 2.211 2.211 0 0 0 4.423 0ZM10.93 14.074a2.212 2.212 0 0 0-4.426 0 2.212 2.212 0 0 0 4.426 0ZM17.563 14.074c0-1.222-.989-2.21-2.211-2.21-1.223 0-2.211.988-2.211 2.21 0 1.223.988 2.211 2.21 2.211 1.223 0 2.211-.988 2.211-2.21Zm0 0"/></svg>