<svg xmlns="http://www.w3.org/2000/svg" xmlns:xlink="http://www.w3.org/1999/xlink" width="199.251" height="41.427" viewBox="0 0 149.438 31.07" version="1.2"><defs><symbol overflow="visible" id="b"><path style="stroke:none" d="M4.86-1.61c0-.718-.532-1.327-1.548-1.546.907-.313 1.25-.938 1.25-1.485 0-.671-.671-1.25-2-1.25-1.109 0-1.828.594-1.828 1.329 0 .406.282.656.641.656.39 0 .656-.281.656-.656 0-.297-.172-.547-.531-.625.063-.063.438-.344 1.016-.344.78 0 .78.593.78.875 0 .5-.187 1.281-.968 1.328l-.422.031c-.14.016-.14.11-.14.172 0 .188.093.188.265.188h.422c1 0 1 .874 1 1.328 0 .406 0 1.312-.953 1.312-.11 0-.734-.016-1.14-.312.406-.11.5-.47.5-.672 0-.422-.298-.703-.72-.703-.374 0-.702.25-.702.703 0 .843.906 1.39 2.093 1.39 1.64 0 2.328-.906 2.328-1.718Zm0 0"/></symbol><symbol overflow="visible" id="c"><path style="stroke:none" d="M4.86-1.844c0-.484-.094-.968-.61-1.437-.469-.39-.938-.485-1.484-.485-.579 0-.922.407-1.063.688v-.156c0-1.125.219-1.485.313-1.641a1.47 1.47 0 0 1 1.218-.656c.172 0 .454.031.672.234-.36.078-.484.344-.484.563 0 .39.297.593.594.593a.571.571 0 0 0 .578-.609c0-.547-.375-1.14-1.375-1.14-1.297 0-2.781.827-2.781 3.046 0 .438.03 1.313.421 1.953.391.688 1.016 1 1.829 1 1.28 0 2.171-.734 2.171-1.953Zm-1.266-.015c0 .906 0 1.562-.922 1.562-.531 0-.766-.406-.828-.562-.125-.282-.125-1-.125-1.032 0-.921.39-1.515 1.015-1.515.86 0 .86.656.86 1.547Zm0 0"/></symbol><symbol overflow="visible" id="d"><path style="stroke:none" d="M4.766-2.016h-.454c-.015.125-.093.766-.234.829-.11.046-.781.046-.937.046H1.859c.485-.39 1.016-.812 1.47-1.125.75-.53 1.437-1.015 1.437-1.89 0-1.047-.954-1.735-2.25-1.735-1.11 0-1.985.532-1.985 1.36 0 .468.36.687.672.687a.65.65 0 0 0 .656-.672c0-.203-.078-.53-.468-.64.312-.25.718-.282.89-.282.735 0 1.203.547 1.203 1.282 0 .656-.375 1.234-.859 1.718l-2 1.985c-.094.094-.094.11-.094.281V0H4.5Zm0 0"/></symbol><symbol overflow="visible" id="e"><path style="stroke:none" d="M4.766-1.797c0-1.031-.72-1.875-2.079-1.875-.421 0-.796.063-1.187.297v-1.14c.313.062.453.062.64.062.25 0 .829 0 1.5-.453.204-.125.72-.563.72-.797 0-.031 0-.188-.141-.188 0 0-.047 0-.14.047a4.072 4.072 0 0 1-2.813 0c-.125-.047-.157-.047-.157-.047-.125 0-.125.125-.125.266v2.64c0 .157 0 .282.204.282.125 0 .14 0 .234-.125.375-.422.86-.485 1.219-.485.828 0 .828.782.828 1.485 0 .64 0 1.531-1.125 1.531-.485 0-.922-.234-1.14-.516.374-.046.577-.296.577-.625 0-.437-.343-.625-.625-.625-.281 0-.625.172-.625.641C.531-.64 1.25.11 2.391.11c1.53 0 2.375-.859 2.375-1.906Zm0 0"/></symbol><symbol overflow="visible" id="f"><path style="stroke:none" d="M4.86-1.672c0-.953-.735-1.375-1.204-1.64.64-.313.906-.75.906-1.25 0-.86-.75-1.329-1.89-1.329-1.297 0-1.938.72-1.938 1.594 0 .484.266 1 .86 1.344-.485.25-1.157.61-1.157 1.515 0 1.11 1 1.547 2.204 1.547 1.453 0 2.218-.765 2.218-1.78Zm-1-2.89c0 .468-.282.796-.657 1l-1.375-.75c-.047-.016-.39-.204-.39-.516 0-.594.703-.703 1.187-.703.797 0 1.234.39 1.234.968Zm.187 3.375c0 .843-1.047.89-1.39.89-.798 0-1.407-.36-1.407-1.156 0-.406.172-.875.797-1.25l1.203.656c.484.266.797.438.797.86Zm0 0"/></symbol><symbol overflow="visible" id="g"><path style="stroke:none" d="M4.563 0v-.438H3.266v-5.156c0-.187 0-.297-.266-.297-.11 0-.125 0-.203.063-.688.516-1.656.516-1.828.516H.797v.437h.172a4.16 4.16 0 0 0 1.203-.172v4.61H.89V0c.343-.031 1.421-.031 1.828-.031.422 0 1.484 0 1.844.031Zm0 0"/></symbol><symbol overflow="visible" id="i"><path style="stroke:none" d="M5 0v-.438h-.89v-.953H5v-.437h-.89v-3.766c0-.265-.032-.312-.298-.312-.218 0-.234.015-.328.14L.297-1.828v.437h2.656v.954H1.922V0C2.25-.031 3.14-.031 3.5-.031c.375 0 1.172 0 1.5.031ZM3.062-1.828H.813l2.25-2.797Zm0 0"/></symbol><symbol overflow="visible" id="k"><path style="stroke:none" d="M5.156-5.516v-.265H3.11c-.187 0-1.437-.047-1.546-.078-.172-.047-.188-.11-.204-.204H.906L.594-3.765h.453c.094-.75.25-.812.25-.812.125-.047.812-.047.984-.047h1.5c-.922 1.047-.922 1.063-1.11 1.344-.733 1.11-.89 2.14-.89 2.75 0 .625.485.64.578.64.235 0 .407-.14.454-.187.124-.188.124-.234.124-.75 0-1.156.11-2.235.688-2.89l1.438-1.626c.078-.093.093-.14.093-.172Zm0 0"/></symbol><clipPath id="a"><path d="M0 0h38v30.605H0Zm0 0"/></clipPath><clipPath id="h"><path d="M32 16h38v14.605H32Zm0 0"/></clipPath><clipPath id="j"><path d="M71 16h38v14.605H71Zm0 0"/></clipPath><clipPath id="l"><path d="M109 16h38v14.605h-38Zm0 0"/></clipPath></defs><path style="fill:none;stroke-width:.3985;stroke-linecap:butt;stroke-linejoin:miter;stroke:gray;stroke-opacity:1;stroke-miterlimit:10" d="M.002 0h28.343M.002 28.348h28.343M.002 0v28.348M28.345 0v28.348" transform="matrix(1 0 0 -1 1.018 29.274)"/><g clip-path="url(#a)"><path style="fill:none;stroke-width:.59776;stroke-linecap:butt;stroke-linejoin:miter;stroke:#cc8714;stroke-opacity:1;stroke-miterlimit:10" d="M.002 14.149s.851 3.113 1.18 3.988c.327.88.85 2.059 1.179 2.344.328.29.855.148 1.183-.273.329-.426.852-1.82 1.18-2.782.328-.957.856-3.035 1.18-4.132.328-1.098.855-2.997 1.183-3.778.329-.785.852-1.722 1.18-1.863.328-.145.856.266 1.184.82.324.555.851 2.145 1.18 3.168.328 1.024.851 3.137 1.18 4.203.327 1.07.855 2.832 1.183 3.508.328.672.851 1.352 1.18 1.352.328 0 .851-.68 1.18-1.352.327-.676.855-2.437 1.183-3.508.328-1.066.851-3.18 1.18-4.203.328-1.023.855-2.613 1.18-3.168.327-.554.855-.965 1.183-.82.328.14.851 1.078 1.18 1.863.327.781.855 2.68 1.183 3.778.324 1.097.851 3.175 1.18 4.132.328.961.851 2.356 1.18 2.782.327.421.855.562 1.183.273.328-.285.851-1.465 1.18-2.344.328-.875 1.18-3.988 1.18-3.988" transform="matrix(1 0 0 -1 1.018 29.274)"/><path style="fill:none;stroke-width:.59776;stroke-linecap:butt;stroke-linejoin:miter;stroke:#cc148c;stroke-opacity:1;stroke-miterlimit:10" d="M.002 14.149s.851 3.184 1.18 4.117c.327.93.85 2.215 1.179 2.59.328.375.855.43 1.183.11.329-.317.852-1.516 1.18-2.41.328-.9.856-2.907 1.18-4.048.328-1.14.855-3.21 1.183-4.175.329-.961.852-2.336 1.18-2.762.328-.43.856-.594 1.184-.332.324.265.851 1.37 1.18 2.23.328.856.851 2.825 1.18 3.957.327 1.137.855 3.235 1.183 4.227.328.996.851 2.45 1.18 2.934.328.48.851.753 1.18.546.327-.207.855-1.214 1.183-2.035.328-.82.851-2.742 1.18-3.87.328-1.13.855-3.243 1.18-4.263.327-1.023.855-2.554 1.183-3.09.328-.535.851-.913 1.18-.765.327.148.855 1.062 1.183 1.84.324.777.851 2.644 1.18 3.765.328 1.118.851 3.25 1.18 4.293.327 1.047.855 2.653 1.183 3.239.328.586.851 1.074 1.18.98.328-.09 1.18-1.637 1.18-1.637" transform="matrix(1 0 0 -1 1.018 29.274)"/><path style="fill:none;stroke-width:.59776;stroke-linecap:butt;stroke-linejoin:miter;stroke:#2114cc;stroke-opacity:1;stroke-miterlimit:10" d="M.002 14.149s.851 3.27 1.18 4.258c.327.984.85 2.39 1.179 2.855.328.469.855.723 1.183.516.329-.203.852-1.184 1.18-1.992.328-.813.856-2.7 1.18-3.852.328-1.148.855-3.324 1.183-4.433.329-1.11.852-2.86 1.18-3.563.328-.707.856-1.453 1.184-1.523.324-.067.851.433 1.18 1.027.328.59.851 2.176 1.18 3.23.327 1.055.855 3.204 1.183 4.375.328 1.172.851 3.176 1.18 4.082.328.907.851 2.102 1.18 2.442.327.34.855.34 1.183 0 .328-.34.851-1.535 1.18-2.442.328-.906.855-2.91 1.18-4.082.327-1.171.855-3.32 1.183-4.375.328-1.054.851-2.64 1.18-3.23.327-.594.855-1.094 1.183-1.027.324.07.851.816 1.18 1.523.328.703.851 2.453 1.18 3.563.327 1.109.855 3.285 1.183 4.433.328 1.153.851 3.04 1.18 3.852.328.808 1.18 1.992 1.18 1.992" transform="matrix(1 0 0 -1 1.018 29.274)"/><path style="fill:none;stroke-width:.59776;stroke-linecap:butt;stroke-linejoin:miter;stroke:#14cca5;stroke-opacity:1;stroke-miterlimit:10" d="M.002 14.149s.851 3.371 1.18 4.422c.327 1.047.85 2.57 1.179 3.137.328.566.855 1.027 1.183.945.329-.078.852-.82 1.18-1.524.328-.703.856-2.425 1.18-3.546.328-1.125.855-3.329 1.183-4.547.329-1.215.852-3.262 1.18-4.219.328-.957.856-2.254 1.184-2.676.324-.418.851-.59 1.18-.351.328.242.851 1.246 1.18 2.078.327.828.855 2.718 1.183 3.898.328 1.176.851 3.406 1.18 4.59.328 1.184.851 3.102 1.18 3.95.327.847.855 1.898 1.183 2.163.328.266.851.145 1.18-.25.328-.394.855-1.652 1.18-2.593.327-.938.855-2.97 1.183-4.18.328-1.211.851-3.422 1.18-4.555.327-1.137.855-2.887 1.183-3.613.324-.727.851-1.512 1.18-1.617.328-.11.851.304 1.18.843.327.543.855 2.032 1.183 3.067.328 1.035.851 3.168 1.18 4.394.328 1.227 1.18 4.446 1.18 4.446" transform="matrix(1 0 0 -1 1.018 29.274)"/><path style="fill:none;stroke-width:.59776;stroke-linecap:butt;stroke-linejoin:miter;stroke:#6ecc14;stroke-opacity:1;stroke-miterlimit:10" d="M.002 14.149s.851 3.496 1.18 4.613c.327 1.121.85 2.774 1.179 3.446.328.671.855 1.347 1.183 1.402.329.055.852-.422 1.18-.996.328-.578.856-2.086 1.18-3.145.328-1.062.855-3.218 1.183-4.496.329-1.273.852-3.531 1.18-4.699.328-1.168.856-2.953 1.184-3.719.324-.765.851-1.625 1.18-1.793.328-.168.851.114 1.18.586.327.473.855 1.828 1.183 2.82.328.997.851 3.075 1.18 4.336.328 1.262.851 3.543 1.18 4.754.327 1.211.855 3.114 1.183 3.965.328.852.851 1.895 1.18 2.172.328.277.855.192 1.18-.176.327-.367.855-1.554 1.183-2.472.328-.918.851-2.91 1.18-4.149.327-1.234.855-3.523 1.183-4.765.324-1.243.851-3.25 1.18-4.18.328-.934.851-2.149 1.18-2.535.327-.383.855-.5 1.183-.242.328.257.851 1.273 1.18 2.109.328.836 1.18 3.926 1.18 3.926" transform="matrix(1 0 0 -1 1.018 29.274)"/><path style="fill:none;stroke-width:.59776;stroke-linecap:butt;stroke-linejoin:miter;stroke:#cc3f14;stroke-opacity:1;stroke-miterlimit:10" d="M.002 14.149s.851 3.652 1.18 4.852c.327 1.195.85 2.996 1.179 3.785.328.789.855 1.687 1.183 1.894.329.203.852.004 1.18-.418.328-.425.856-1.675 1.18-2.633.328-.96.855-2.992 1.183-4.277.329-1.281.852-3.648 1.18-4.976.328-1.325.856-3.508 1.184-4.586.324-1.082.851-2.598 1.18-3.192.328-.597.851-1.117 1.18-1.097.327.015.855.605 1.183 1.238.328.629.851 2.2 1.18 3.3.328 1.102.851 3.31 1.18 4.645.327 1.332.855 3.692 1.183 4.961.328 1.274.851 3.27 1.18 4.2.328.929.855 2.124 1.18 2.511.327.383.855.512 1.183.27.328-.243.851-1.204 1.18-2.024.327-.82.855-2.668 1.183-3.883.324-1.215.851-3.535 1.18-4.879.328-1.343.851-3.632 1.18-4.812.327-1.18.855-2.938 1.183-3.692.328-.757.851-1.593 1.18-1.757.328-.168 1.18.558 1.18.558" transform="matrix(1 0 0 -1 1.018 29.274)"/><path style="fill:none;stroke-width:.59776;stroke-linecap:butt;stroke-linejoin:miter;stroke:#c414cc;stroke-opacity:1;stroke-miterlimit:10" d="M.002 14.149s.851 3.852 1.18 5.145c.327 1.293.85 3.265 1.179 4.183.328.918.855 2.063 1.183 2.434.329.37.852.476 1.18.23.328-.25.856-1.199 1.18-2.02.328-.816.855-2.648 1.183-3.882.329-1.238.852-3.606 1.18-5.028.328-1.425.856-3.882 1.184-5.226.324-1.34.851-3.434 1.18-4.445.328-1.008.851-2.344 1.18-2.832.327-.489.855-.809 1.183-.688.328.125.851.871 1.18 1.586.328.715.851 2.39 1.18 3.559.327 1.171.855 3.464 1.183 4.87.328 1.407.851 3.887 1.18 5.266.328 1.38.855 3.578 1.18 4.672.327 1.094.855 2.606 1.183 3.211.328.606.851 1.14 1.18 1.14.327 0 .855-.538 1.183-1.14.324-.601.851-2.113 1.18-3.207.328-1.094.851-3.297 1.18-4.676.327-1.379.855-3.859 1.183-5.265.328-1.407.851-3.7 1.18-4.867.328-1.172 1.18-3.563 1.18-3.563" transform="matrix(1 0 0 -1 1.018 29.274)"/><path style="fill:none;stroke-width:.59776;stroke-linecap:butt;stroke-linejoin:miter;stroke:#1450cc;stroke-opacity:1;stroke-miterlimit:10" d="M.002 14.149s.851 4.117 1.18 5.531c.327 1.414.85 3.59 1.179 4.657.328 1.07.855 2.496 1.183 3.05.329.555.852 1.004 1.18.961.328-.047.856-.644 1.18-1.281.328-.64.855-2.188 1.183-3.32.329-1.133.852-3.391 1.18-4.836.328-1.446.856-4.055 1.184-5.586.324-1.531.851-4.078 1.18-5.457.328-1.375.851-3.461 1.18-4.465.327-1.004.855-2.297 1.183-2.77.328-.468.851-.765 1.18-.632.328.132.851.878 1.18 1.597.327.719.855 2.39 1.183 3.582.328 1.188.851 3.524 1.18 4.996.328 1.473.855 4.098 1.18 5.621.327 1.524.855 4.028 1.183 5.364.328 1.336.851 3.324 1.18 4.258.327.933.855 2.09 1.183 2.476.324.387.851.531 1.18.309.328-.223.851-1.117 1.18-1.91.327-.797.855-2.586 1.183-3.829.328-1.246.851-3.644 1.18-5.14.328-1.496 1.18-5.64 1.18-5.64" transform="matrix(1 0 0 -1 1.018 29.274)"/></g><use xlink:href="#b" x="66.056" y="6.411" style="fill:#000;fill-opacity:1"/><path style="fill:none;stroke-width:.59776;stroke-linecap:butt;stroke-linejoin:miter;stroke:#cc3f14;stroke-opacity:1;stroke-miterlimit:10" d="M-19.927 0s2.91 1.512 4.985 1.328c2.07-.184 7.886-2.473 9.96-2.656C-2.906-1.512 0 0 0 0" transform="matrix(1 0 0 -1 61.079 4.199)"/><use xlink:href="#c" x="104.535" y="6.411" style="fill:#000;fill-opacity:1"/><path style="fill:none;stroke-width:.59776;stroke-linecap:butt;stroke-linejoin:miter;stroke:#2114cc;stroke-opacity:1;stroke-miterlimit:10" d="M-19.925 0s2.906 1.512 4.98 1.328c2.075-.184 7.89-2.473 9.965-2.656C-2.91-1.512 0 0 0 0" transform="matrix(1 0 0 -1 99.558 4.199)"/><use xlink:href="#d" x="66.056" y="17.369" style="fill:#000;fill-opacity:1"/><path style="fill:none;stroke-width:.59776;stroke-linecap:butt;stroke-linejoin:miter;stroke:#c414cc;stroke-opacity:1;stroke-miterlimit:10" d="M-19.927.002s2.91 1.508 4.985 1.324c2.07-.184 7.886-2.469 9.96-2.652C-2.906-1.51 0 .002 0 .002" transform="matrix(1 0 0 -1 61.079 15.158)"/><use xlink:href="#e" x="104.535" y="17.369" style="fill:#000;fill-opacity:1"/><path style="fill:none;stroke-width:.59776;stroke-linecap:butt;stroke-linejoin:miter;stroke:#14cca5;stroke-opacity:1;stroke-miterlimit:10" d="M-19.925.002s2.906 1.508 4.98 1.324c2.075-.184 7.89-2.469 9.965-2.652C-2.91-1.51 0 .002 0 .002" transform="matrix(1 0 0 -1 99.558 15.158)"/><use xlink:href="#f" x="143.015" y="17.369" style="fill:#000;fill-opacity:1"/><path style="fill:none;stroke-width:.59776;stroke-linecap:butt;stroke-linejoin:miter;stroke:#cc8714;stroke-opacity:1;stroke-miterlimit:10" d="M-19.925.002s2.907 1.508 4.98 1.324c2.075-.184 7.891-2.469 9.962-2.652C-2.91-1.51 0 .002 0 .002" transform="matrix(1 0 0 -1 138.038 15.158)"/><use xlink:href="#g" x="66.056" y="28.328" style="fill:#000;fill-opacity:1"/><g clip-path="url(#h)"><path style="fill:none;stroke-width:.59776;stroke-linecap:butt;stroke-linejoin:miter;stroke:#1450cc;stroke-opacity:1;stroke-miterlimit:10" d="M-19.927 0s2.91 1.512 4.985 1.328c2.07-.184 7.886-2.473 9.96-2.656C-2.906-1.512 0 0 0 0" transform="matrix(1 0 0 -1 61.079 26.117)"/></g><use xlink:href="#i" x="104.535" y="28.328" style="fill:#000;fill-opacity:1"/><g clip-path="url(#j)"><path style="fill:none;stroke-width:.59776;stroke-linecap:butt;stroke-linejoin:miter;stroke:#6ecc14;stroke-opacity:1;stroke-miterlimit:10" d="M-19.925 0s2.906 1.512 4.98 1.328c2.075-.184 7.89-2.473 9.965-2.656C-2.91-1.512 0 0 0 0" transform="matrix(1 0 0 -1 99.558 26.117)"/></g><use xlink:href="#k" x="143.015" y="28.328" style="fill:#000;fill-opacity:1"/><g clip-path="url(#l)"><path style="fill:none;stroke-width:.59776;stroke-linecap:butt;stroke-linejoin:miter;stroke:#cc148c;stroke-opacity:1;stroke-miterlimit:10" d="M-19.925 0s2.907 1.512 4.98 1.328c2.075-.184 7.891-2.473 9.962-2.656C-2.91-1.512 0 0 0 0" transform="matrix(1 0 0 -1 138.038 26.117)"/></g></svg>