<svg xmlns="http://www.w3.org/2000/svg" xmlns:xlink="http://www.w3.org/1999/xlink" width="52.251" height="52.251" viewBox="0 0 39.188 39.188" version="1.2"><defs><symbol overflow="visible" id="b"><path style="stroke:none" d="m1.563-10.563-.344-.343c-.235.297-.64.703-.922.984-.297.297-.656.656-.969.906l.344.344.172-.172c.125-.125.234-.234.39-.36.22-.187.235-.171.391-.015l2.844 2.844-6.078-.484c-.172-.016-.204-.016-.344.125l-1.61 1.609.344.344.75-.75L.5-1.563c.156.157.156.157-.031.375-.14.204-.14.204-.344.407l-.172.172.328.328c.25-.281.64-.672.922-.953.297-.297.656-.657.969-.938L1.844-2.5l-.172.172c-.14.14-.266.234-.406.344-.22.187-.22.187-.375.03L-2.797-5.64l7.625.625c.156 0 .172.016.281-.093.188-.188.125-.25-.03-.407L1-9.594c-.156-.156-.172-.172.016-.39.156-.188.171-.204.375-.407Zm0 0"/></symbol><symbol overflow="visible" id="c"><path style="stroke:none" d="M2.297-5.36c-.953-.952-2.313-1-3.469.157-1.156 1.156-1.078 2.516-.14 3.453.875.875 2.203.953 3.375-.219 1.187-1.187 1.093-2.531.234-3.39Zm-.985.829c.61.61 1.36 1.36.454 2.265-.891.891-1.641.141-2.25-.468-.329-.329-.672-.672-.797-1.047-.14-.39.015-.828.36-1.172.296-.297.718-.5 1.109-.39.39.077.78.468 1.125.812Zm0 0"/></symbol><symbol overflow="visible" id="d"><path style="stroke:none" d="m4.234-4.234-.328-.329c-.437.438-.484.485-.765.204l-4.282-4.282-1.203 1.297L-2-7c.438-.438.5-.5.766-.234l1.39 1.39a2.191 2.191 0 0 0-1.297.64c-1.03 1.032-1.14 2.391-.156 3.376C-.359-.891.97-.875 2-1.906c.438-.438.61-.953.656-1.344L3-2.906Zm-2.015.546c.031.25.14.922-.39 1.454-.86.859-1.72 0-2.22-.5-.343-.344-.718-.72-.812-1.157-.078-.515.172-.921.39-1.14A1.448 1.448 0 0 1 .47-5.438Zm0 0"/></symbol><symbol overflow="visible" id="e"><path style="stroke:none" d="M2.656-4.313c-.125-.125-.265.016-.297.047-.125.125-.093.157-.03.313.202.484 0 1.125-.454 1.578-.984.984-1.938.063-2.281-.281l2.14-2.14c.141-.141.22-.22.032-.407-.22-.219-.797-.703-1.5-.688-.516-.015-1 .25-1.485.735-1.125 1.125-1.031 2.468-.156 3.343.953.954 2.344.938 3.484-.203 1.125-1.125.672-2.171.547-2.296Zm-1.61-.265L-.64-2.891c-.265-.296-.546-.609-.64-.984-.078-.453.11-.828.312-1.031.828-.828 1.766.078 2.016.328Zm0 0"/></symbol><clipPath id="a"><path d="M0 0h38.781v38.781H0Zm0 0"/></clipPath></defs><path style="stroke:none;fill-rule:nonzero;fill:#ccc;fill-opacity:1" d="M12.242 35.762 35.77 12.234l-9.63-9.629L2.618 26.133Zm0 0"/><g clip-path="url(#a)"><path style="fill:none;stroke-width:2.83466;stroke-linecap:butt;stroke-linejoin:miter;stroke:olive;stroke-opacity:1;stroke-miterlimit:10" d="M-16.637-6.807h33.273V6.81l-33.27-.003Zm0 0" transform="scale(1 -1) rotate(45 32.754 13.576)"/></g><g style="fill:#000;fill-opacity:1"><use xlink:href="#b" x="12.201" y="31.022"/><use xlink:href="#c" x="18.541" y="24.682"/></g><g style="fill:#000;fill-opacity:1"><use xlink:href="#d" x="22.817" y="20.406"/><use xlink:href="#e" x="27.319" y="15.905"/></g></svg>