<svg xmlns="http://www.w3.org/2000/svg" xmlns:xlink="http://www.w3.org/1999/xlink" width="145.44" height="101.499" viewBox="0 0 109.08 76.124" version="1.2"><defs><symbol overflow="visible" id="b"><path style="stroke:none" d="M5.563-1.813c.14 0 .312 0 .312-.171 0-.188-.172-.188-.313-.188H1c-.125 0-.297 0-.297.188 0 .171.172.171.297.171Zm0 0"/></symbol><symbol overflow="visible" id="c"><path style="stroke:none" d="M2.5-5.078c0-.219-.016-.219-.234-.219-.329.313-.75.5-1.5.5v.266c.218 0 .64 0 1.109-.203v4.078c0 .297-.031.39-.781.39H.812V0c.329-.031 1.016-.031 1.375-.031.36 0 1.047 0 1.376.031v-.266H3.28c-.75 0-.781-.093-.781-.39Zm0 0"/></symbol><symbol overflow="visible" id="d"><path style="stroke:none" d="M2.25-1.625c.125-.125.453-.39.594-.5.484-.453.953-.89.953-1.61 0-.953-.797-1.562-1.781-1.562-.97 0-1.594.719-1.594 1.438 0 .39.312.437.422.437.172 0 .422-.11.422-.422 0-.406-.407-.406-.5-.406.234-.594.765-.781 1.156-.781.734 0 1.125.625 1.125 1.297 0 .828-.578 1.437-1.531 2.39l-1 1.047C.422-.219.422-.203.422 0h3.14l.235-1.422h-.25c-.016.156-.078.547-.172.703-.047.063-.656.063-.781.063H1.172Zm0 0"/></symbol><symbol overflow="visible" id="e"><path style="stroke:none" d="M3.89-2.547c0-.844-.078-1.36-.343-1.875-.344-.703-1-.875-1.438-.875-1 0-1.375.75-1.484.969C.344-3.75.328-2.953.328-2.547c0 .531.016 1.328.406 1.969.36.594.954.75 1.375.75.391 0 1.063-.125 1.47-.906.296-.579.312-1.297.312-1.813ZM2.11-.062c-.266 0-.813-.126-.985-.954-.094-.453-.094-1.203-.094-1.625 0-.546 0-1.109.094-1.546.172-.813.781-.891.984-.891.266 0 .829.14.985.86.094.437.094 1.046.094 1.577 0 .47 0 1.188-.094 1.641-.172.828-.719.938-.985.938Zm0 0"/></symbol><symbol overflow="visible" id="g"><path style="stroke:none" d="M1.11-4.484c.109.03.421.125.765.125 1 0 1.594-.704 1.594-.829 0-.093-.047-.109-.094-.109-.016 0-.031 0-.094.031a2.982 2.982 0 0 1-1.11.22c-.468 0-.858-.11-1.108-.22-.079-.03-.094-.03-.11-.03-.094 0-.094.077-.094.234v2.328c0 .14 0 .234.125.234.063 0 .079-.031.125-.094.094-.11.391-.515 1.079-.515.437 0 .656.359.734.515.125.281.14.656.14.953 0 .297 0 .735-.218 1.079-.156.25-.485.484-.906.484A1.271 1.271 0 0 1 .734-.922c.016.016.079.016.079.016.218 0 .406-.14.406-.39a.388.388 0 0 0-.39-.407c-.157 0-.407.078-.407.422 0 .718.625 1.453 1.531 1.453 1 0 1.844-.781 1.844-1.766 0-.922-.672-1.75-1.61-1.75-.39 0-.765.125-1.078.406Zm0 0"/></symbol><symbol overflow="visible" id="f"><path style="stroke:none" d="M1.625-.438a.463.463 0 0 0-.453-.453.447.447 0 0 0-.438.438.44.44 0 0 0 .438.453.45.45 0 0 0 .453-.438Zm0 0"/></symbol><clipPath id="a"><path d="M0 0h108.621v74H0Zm0 0"/></clipPath></defs><path style="fill:none;stroke-width:.3985;stroke-linecap:butt;stroke-linejoin:miter;stroke:#bfbfbf;stroke-opacity:1;stroke-miterlimit:10" d="M-28.349-7.471V64.15M0-7.471V64.15M28.347-7.471V64.15M56.694-7.471V64.15M14.175-7.471V64.15" transform="matrix(1 0 0 -1 43.454 64.732)"/><path style="fill:none;stroke-width:.3985;stroke-linecap:round;stroke-linejoin:miter;stroke:#000;stroke-opacity:1;stroke-miterlimit:10" d="M-28.349-1.99v3.984M28.347-1.99v3.984M56.694-1.99v3.984M14.175-1.99v3.984M-1.993 28.345H1.99M-1.993 56.693H1.99" transform="matrix(1 0 0 -1 43.454 64.732)"/><path style="fill:none;stroke-width:.3985;stroke-linecap:butt;stroke-linejoin:miter;stroke:#000;stroke-opacity:1;stroke-miterlimit:10" d="M-42.907.002H63.76" transform="matrix(1 0 0 -1 43.454 64.732)"/><path style="fill:none;stroke-width:.3985;stroke-linecap:round;stroke-linejoin:round;stroke:#000;stroke-opacity:1;stroke-miterlimit:10" d="M-2.074 2.392C-1.694.955-.85.28.001.002-.851-.28-1.695-.956-2.074-2.39" transform="matrix(1 0 0 -1 107.413 64.732)"/><path style="fill:none;stroke-width:.3985;stroke-linecap:butt;stroke-linejoin:miter;stroke:#000;stroke-opacity:1;stroke-miterlimit:10" d="M0-7.471v71.223" transform="matrix(1 0 0 -1 43.454 64.732)"/><path style="fill:none;stroke-width:.3985;stroke-linecap:round;stroke-linejoin:round;stroke:#000;stroke-opacity:1;stroke-miterlimit:10" d="M-2.072 2.392C-1.692.958-.849.278-.002 0c-.847-.281-1.69-.957-2.07-2.39" transform="matrix(0 -1 -1 0 43.454 .78)"/><g clip-path="url(#a)"><path style="fill:none;stroke-width:.59776;stroke-linecap:butt;stroke-linejoin:miter;stroke:#000;stroke-opacity:1;stroke-miterlimit:10" d="M-35.434 22.146s2.773-3.352 3.84-4.539a106.128 106.128 0 0 1 3.835-4.02 84.114 84.114 0 0 1 3.84-3.496 68.99 68.99 0 0 1 3.84-2.98 56.849 56.849 0 0 1 3.836-2.457 47.863 47.863 0 0 1 3.84-1.942 41.215 41.215 0 0 1 3.84-1.418A36.584 36.584 0 0 1-4.727.392 35.487 35.487 0 0 1-.887.013a34.031 34.031 0 0 1 3.835.14c1.067.11 2.774.403 3.84.661a37.93 37.93 0 0 1 3.84 1.18 44.37 44.37 0 0 1 3.836 1.695 52.402 52.402 0 0 1 3.84 2.219 61.764 61.764 0 0 1 3.836 2.738 76.701 76.701 0 0 1 3.84 3.258 96.47 96.47 0 0 1 3.84 3.777 115.067 115.067 0 0 1 3.835 4.301 136.67 136.67 0 0 1 3.84 4.816 166.135 166.135 0 0 1 3.84 5.336 221.32 221.32 0 0 1 3.836 5.856c1.066 1.699 2.773 4.535 3.84 6.379 1.062 1.84 2.773 4.91 3.836 6.894 1.066 1.985 3.84 7.418 3.84 7.418" transform="matrix(1 0 0 -1 43.454 64.732)"/></g><use xlink:href="#b" x="9.697" y="74.517" style="fill:#000;fill-opacity:1"/><use xlink:href="#c" x="16.284" y="74.517" style="fill:#000;fill-opacity:1"/><use xlink:href="#c" x="69.683" y="74.517" style="fill:#000;fill-opacity:1"/><use xlink:href="#d" x="98.03" y="74.517" style="fill:#000;fill-opacity:1"/><use xlink:href="#e" x="52.217" y="74.517" style="fill:#000;fill-opacity:1"/><use xlink:href="#f" x="56.451" y="74.517" style="fill:#000;fill-opacity:1"/><use xlink:href="#g" x="58.803" y="74.517" style="fill:#000;fill-opacity:1"/><use xlink:href="#e" x="36.564" y="72.524" style="fill:#000;fill-opacity:1"/><use xlink:href="#c" x="34.571" y="38.954" style="fill:#000;fill-opacity:1"/><use xlink:href="#d" x="34.571" y="10.607" style="fill:#000;fill-opacity:1"/></svg>