<svg xmlns="http://www.w3.org/2000/svg" xmlns:xlink="http://www.w3.org/1999/xlink" width="116.341" height="78.531" viewBox="0 0 87.256 58.898" version="1.2"><defs><symbol overflow="visible" id="a"><path style="stroke:none" d="m4.047 7.563.406-.22-.5-.952 5.219-2.797.5.953.406-.219a46.666 46.666 0 0 1-.875-1.562C9 2.39 8.547 1.53 8.391 1.172l-.407.219.516.953-2.297 1.234L4.687.75 6.985-.484 7.5.469 7.906.25c-.218-.313-.672-1.172-.875-1.547-.203-.375-.672-1.25-.812-1.594l-.407.22.5.952-5.218 2.797-.5-.953-.406.219c.203.312.671 1.187.875 1.562.203.375.656 1.235.812 1.578l.406-.218-.515-.954L4.28.97l1.516 2.828L3.28 5.14l-.515-.954-.407.22c.22.327.672 1.187.875 1.562.204.375.672 1.234.813 1.593Zm0 0"/></symbol><symbol overflow="visible" id="b"><path style="stroke:none" d="m1.344 2.5.406-.219-.281-.531L5.016-.156l-.891-1.485-.422.22c.281.53.313.577-.031.765L.953.797.625.187l-.406.22.61 1.062Zm5.11-3.266c.39-.203.515-.656.312-1.046a.774.774 0 0 0-1.047-.329.773.773 0 0 0-.313 1.047.765.765 0 0 0 1.047.328Zm0 0"/></symbol><symbol overflow="visible" id="c"><path style="stroke:none" d="M6.766-.75c.343-.188.468-.656.265-1.031-.203-.39-.672-.547-1.015-.36-.047.032-.063.047-.141.11L2.922.14c-.203.14-.219.14-.11.343.094.157.126.188.297.11L6.641-.703ZM1.875 1.844A.756.756 0 0 0 2.203.812C2 .422 1.516.297 1.141.484a.777.777 0 0 0-.313 1.063.75.75 0 0 0 1.047.297Zm0 0"/></symbol></defs><path style="fill:none;stroke-width:.19925;stroke-linecap:butt;stroke-linejoin:miter;stroke:gray;stroke-opacity:1;stroke-miterlimit:10" d="M.001 0h85.04M0 28.347h85.04M0 56.683h85.04M0 0v56.695M28.345 0v56.695M56.693 0v56.695M85.029 0v56.695" transform="matrix(1 0 0 -1 .737 57.742)"/><path style="fill:none;stroke-width:.3985;stroke-linecap:butt;stroke-linejoin:miter;stroke:#000;stroke-opacity:1;stroke-miterlimit:10" d="M56.693 28.347c0 10.125-10.809 19.485-28.348 24.547" transform="matrix(1 0 0 -1 .737 57.742)"/><g style="fill:#000;fill-opacity:1"><use xlink:href="#a" x="48.711" y="16.829"/><use xlink:href="#b" x="52.946" y="24.732"/><use xlink:href="#c" x="54.447" y="27.533"/></g></svg>