<svg xmlns="http://www.w3.org/2000/svg" xmlns:xlink="http://www.w3.org/1999/xlink" width="122" height="133.131" viewBox="0 0 91.5 99.848" version="1.2"><defs><clipPath id="b"><path d="M27 0h64.25v64H27Zm0 0"/></clipPath><clipPath id="c"><path d="M42 80h25v19.773H42Zm0 0"/></clipPath><clipPath id="d"><path d="M14 80h25v19.773H14Zm0 0"/></clipPath><symbol overflow="visible" id="a"><path style="stroke:none" d="M2.36-.781a.784.784 0 0 0-.782-.781.78.78 0 0 0-.766.78.774.774 0 1 0 1.547 0Zm0 0"/></symbol></defs><path style="fill:none;stroke-width:.3985;stroke-linecap:butt;stroke-linejoin:miter;stroke:#000;stroke-opacity:1;stroke-miterlimit:10" d="m6.538-.748-.086.008M47.05-29.795l-.04.082M48.218-42.041v.004M41.866-52.979l-9.504-9.148M21.046-66.69H6.58M-4.653-62.037-14.88-51.811M-19.532-40.576v14.465M6.382.002A6.382 6.382 0 1 1-6.382-.004 6.382 6.382 0 0 1 6.382.002Zm0 0" transform="matrix(1 0 0 -1 26.88 25.494)"/><use xlink:href="#a" x="25.291" y="26.271" style="fill:#000;fill-opacity:1"/><g clip-path="url(#b)"><path style="fill:none;stroke-width:.3985;stroke-linecap:butt;stroke-linejoin:miter;stroke:#000;stroke-opacity:1;stroke-miterlimit:10" d="M28.348 0c0 15.656-12.691 28.347-28.348 28.347-15.656 0-28.347-12.691-28.347-28.347 0-15.657 12.691-28.348 28.347-28.348 15.657 0 28.348 12.691 28.348 28.348Zm0 0" transform="matrix(1 0 0 -1 61.695 29.488)"/></g><use xlink:href="#a" x="60.106" y="30.265" style="fill:#000;fill-opacity:1"/><path style="fill:none;stroke-width:.3985;stroke-linecap:butt;stroke-linejoin:miter;stroke:#000;stroke-opacity:1;stroke-miterlimit:10" d="M6.38 0A6.378 6.378 0 0 1 .003 6.38a6.38 6.38 0 1 1 0-12.758A6.378 6.378 0 0 1 6.38 0Zm0 0" transform="matrix(1 0 0 -1 76.709 61.153)"/><use xlink:href="#a" x="75.12" y="61.93" style="fill:#000;fill-opacity:1"/><path style="fill:none;stroke-width:.3985;stroke-linecap:butt;stroke-linejoin:miter;stroke:#000;stroke-opacity:1;stroke-miterlimit:10" d="M6.381-.001A6.382 6.382 0 1 1-6.379 0 6.382 6.382 0 0 1 6.381 0Zm0 0" transform="matrix(1 0 0 -1 73.486 73.909)"/><use xlink:href="#a" x="71.897" y="74.686" style="fill:#000;fill-opacity:1"/><g clip-path="url(#c)"><path style="fill:none;stroke-width:.3985;stroke-linecap:butt;stroke-linejoin:miter;stroke:#000;stroke-opacity:1;stroke-miterlimit:10" d="M6.38 0A6.382 6.382 0 0 1-6.382 0 6.382 6.382 0 0 1 6.38 0Zm0 0" transform="matrix(1 0 0 -1 54.503 92.183)"/></g><use xlink:href="#a" x="52.914" y="92.96" style="fill:#000;fill-opacity:1"/><g clip-path="url(#d)"><path style="fill:none;stroke-width:.3985;stroke-linecap:butt;stroke-linejoin:miter;stroke:#000;stroke-opacity:1;stroke-miterlimit:10" d="M6.382 0A6.382 6.382 0 0 1-6.38 0 6.382 6.382 0 0 1 6.382 0Zm0 0" transform="matrix(1 0 0 -1 26.88 92.183)"/></g><use xlink:href="#a" x="25.291" y="92.96" style="fill:#000;fill-opacity:1"/><path style="fill:none;stroke-width:.3985;stroke-linecap:butt;stroke-linejoin:miter;stroke:#000;stroke-opacity:1;stroke-miterlimit:10" d="M6.38.002A6.378 6.378 0 0 1 0 6.38 6.382 6.382 0 0 1 0-6.382 6.382 6.382 0 0 1 6.38.003Zm0 0" transform="matrix(1 0 0 -1 7.347 72.65)"/><use xlink:href="#a" x="5.758" y="73.427" style="fill:#000;fill-opacity:1"/><path style="fill:none;stroke-width:.3985;stroke-linecap:butt;stroke-linejoin:miter;stroke:#000;stroke-opacity:1;stroke-miterlimit:10" d="M6.38 0A6.378 6.378 0 0 1 0 6.379a6.378 6.378 0 0 1-6.378-6.38A6.378 6.378 0 0 1 0-6.378 6.378 6.378 0 0 1 6.38 0Zm0 0" transform="matrix(1 0 0 -1 7.347 45.027)"/><use xlink:href="#a" x="5.758" y="45.804" style="fill:#000;fill-opacity:1"/><path style="fill:none;stroke-width:.3985;stroke-linecap:butt;stroke-linejoin:miter;stroke:red;stroke-opacity:1;stroke-miterlimit:10" d="M.3.002h27.75" transform="matrix(1 0 0 -1 26.88 25.494)"/><path style="fill:none;stroke-width:.3985;stroke-linecap:butt;stroke-linejoin:miter;stroke:red;stroke-opacity:1;stroke-miterlimit:10" d="M.001 2.291V-2.29" transform="matrix(-1 0 0 1 27.08 25.494)"/><path style="fill:none;stroke-width:.3985;stroke-linecap:butt;stroke-linejoin:miter;stroke:red;stroke-opacity:1;stroke-miterlimit:10" d="M0 2.29V-2.29" transform="matrix(1 0 0 -1 55.028 25.494)"/><path style="fill:none;stroke-width:.3985;stroke-linecap:butt;stroke-linejoin:miter;stroke:red;stroke-opacity:1;stroke-miterlimit:10" d="M27.323-66.69H-.423" transform="matrix(1 0 0 -1 26.88 25.494)"/><path style="fill:none;stroke-width:.3985;stroke-linecap:butt;stroke-linejoin:miter;stroke:red;stroke-opacity:1;stroke-miterlimit:10" d="M0 2.293v-4.586" transform="matrix(1 0 0 -1 54.305 92.184)"/><path style="fill:none;stroke-width:.3985;stroke-linecap:butt;stroke-linejoin:miter;stroke:red;stroke-opacity:1;stroke-miterlimit:10" d="M0 2.293v-4.586" transform="matrix(-1 0 0 1 26.356 92.184)"/></svg>