<svg xmlns="http://www.w3.org/2000/svg" xmlns:xlink="http://www.w3.org/1999/xlink" width="96.86pt" height="94.035" viewBox="0 0 96.86 70.526" version="1.2"><defs><clipPath id="b"><path d="M0 54h17v16.29H0Zm0 0"/></clipPath><clipPath id="d"><path d="M80 54h16.79v16.29H80Zm0 0"/></clipPath><symbol overflow="visible" id="a"><path style="stroke:none" d="M5.516-.234c0-.235-.125-.235-.266-.235-.61-.015-.61-.14-.61-.375v-2.14c0-.891-.702-1.532-2.187-1.532-.562 0-1.781.047-1.781.922 0 .438.344.625.61.625.312 0 .624-.219.624-.625 0-.297-.187-.469-.218-.5a5.28 5.28 0 0 1 .718-.062c.75 0 1.11.422 1.11 1.172v.343c-.72.032-3.25.125-3.25 1.563C.266-.125 1.5.062 2.187.062c.797 0 1.266-.406 1.485-.828 0 .313 0 .766 1.047.766h.468c.204 0 .329 0 .329-.234Zm-2-1.157c0 .97-.922 1.094-1.172 1.094-.516 0-.906-.344-.906-.797 0-1.062 1.578-1.203 2.078-1.234Zm0 0"/></symbol><symbol overflow="visible" id="c"><path style="stroke:none" d="M5.984-2.219c0-1.328-.937-2.265-2.39-2.265-.719 0-1.219.28-1.453.484v-2.922l-1.766.078v.469c.61 0 .688 0 .688.39V0h.468c.157-.188.328-.375.485-.563.078.079.562.625 1.453.625 1.484 0 2.515-.906 2.515-2.28Zm-1.28 0c0 .469 0 1.016-.25 1.406-.298.407-.75.516-1.079.516-.688 0-1.078-.547-1.188-.687v-2.5c.282-.36.75-.641 1.297-.641 1.22 0 1.22 1.203 1.22 1.906Zm0 0"/></symbol></defs><path style="fill:none;stroke-width:.3985;stroke-linecap:butt;stroke-linejoin:miter;stroke:#000;stroke-opacity:1;stroke-miterlimit:10" d="m-18.886-28.185-6.512-9.719" transform="matrix(1 0 0 -1 48.363 5.659)"/><path style="fill:none;stroke-width:.3985;stroke-linecap:round;stroke-linejoin:round;stroke:#000;stroke-opacity:1;stroke-miterlimit:10" d="M-2.072 2.39C-1.694.957-.85.28 0 0c-.852-.28-1.693-.956-2.072-2.39" transform="scale(-.99996 .99996) rotate(56.173 -52.398 .452)"/><path style="fill:none;stroke-width:.3985;stroke-linecap:butt;stroke-linejoin:miter;stroke:#000;stroke-opacity:1;stroke-miterlimit:10" d="m-31.547-46.005-7.515-8.715" transform="matrix(1 0 0 -1 48.363 5.659)"/><path style="fill:none;stroke-width:.3985;stroke-linecap:round;stroke-linejoin:round;stroke:#000;stroke-opacity:1;stroke-miterlimit:10" d="M-2.074 2.39C-1.692.956-.85.28-.001 0c-.849-.278-1.693-.956-2.07-2.39" transform="matrix(-.65324 .7571 .7571 .65324 9.171 60.528)"/><path style="fill:none;stroke-width:.3985;stroke-linecap:butt;stroke-linejoin:miter;stroke:#000;stroke-opacity:1;stroke-miterlimit:10" d="m19.528-29.142 5.87-8.762" transform="matrix(1 0 0 -1 48.363 5.659)"/><path style="fill:none;stroke-width:.3985;stroke-linecap:round;stroke-linejoin:round;stroke:#000;stroke-opacity:1;stroke-miterlimit:10" d="M-2.07 2.391C-1.691.957-.851.281 0 .001-.85-.279-1.694-.956-2.072-2.39" transform="matrix(.55667 .83069 .83069 -.55667 73.873 43.727)"/><path style="fill:none;stroke-width:.3985;stroke-linecap:butt;stroke-linejoin:miter;stroke:#000;stroke-opacity:1;stroke-miterlimit:10" d="m31.543-46.005 7.52-8.715" transform="matrix(1 0 0 -1 48.363 5.659)"/><path style="fill:none;stroke-width:.3985;stroke-linecap:round;stroke-linejoin:round;stroke:#000;stroke-opacity:1;stroke-miterlimit:10" d="M-2.071 2.39C-1.694.957-.85.28-.001 0-.85-.278-1.694-.958-2.074-2.39" transform="matrix(.65324 .7571 .7571 -.65324 87.555 60.528)"/><path style="fill:none;stroke-width:.3985;stroke-linecap:butt;stroke-linejoin:miter;stroke:#000;stroke-opacity:1;stroke-miterlimit:10" d="m-2.726-4.068-6.512-9.714" transform="matrix(1 0 0 -1 48.363 5.659)"/><path style="fill:none;stroke-width:.3985;stroke-linecap:round;stroke-linejoin:round;stroke:#000;stroke-opacity:1;stroke-miterlimit:10" d="M-2.072 2.393C-1.693.958-.848.279.001 0c-.852-.28-1.695-.957-2.074-2.392" transform="matrix(-.55666 .83069 .83069 .55666 39.015 19.608)"/><path style="fill:none;stroke-width:.3985;stroke-linecap:butt;stroke-linejoin:miter;stroke:#000;stroke-opacity:1;stroke-miterlimit:10" d="m2.727-4.068 5.867-8.757" transform="matrix(1 0 0 -1 48.363 5.659)"/><path style="fill:none;stroke-width:.3985;stroke-linecap:round;stroke-linejoin:round;stroke:#000;stroke-opacity:1;stroke-miterlimit:10" d="M-2.074 2.392C-1.694.958-.85.279.001 0-.85-.28-1.694-.957-2.072-2.392" transform="scale(.99996 -.99996) rotate(-56.173 11.06 -62.8)"/><path style="fill:none;stroke-width:.3985;stroke-linecap:butt;stroke-linejoin:miter;stroke:#000;stroke-opacity:1;stroke-miterlimit:10" d="M4.696-.001c0 2.594-2.102 4.7-4.696 4.7a4.698 4.698 0 0 1 0-9.395A4.695 4.695 0 0 1 4.696-.001Zm0 0" transform="matrix(1 0 0 -1 48.363 5.659)"/><path style="fill:none;stroke-width:.3985;stroke-linecap:butt;stroke-linejoin:miter;stroke:#000;stroke-opacity:1;stroke-miterlimit:10" d="M8.27 0A8.27 8.27 0 1 1-8.27-.003a8.27 8.27 0 0 1 16.54.001Zm0 0" transform="matrix(1 0 0 -1 34.19 26.808)"/><use xlink:href="#a" x="31.405" y="29.035" style="fill:#000;fill-opacity:1"/><path style="fill:none;stroke-width:.3985;stroke-linecap:butt;stroke-linejoin:miter;stroke:#000;stroke-opacity:1;stroke-miterlimit:10" d="M4.698.001a4.698 4.698 0 1 1-9.396-.005A4.698 4.698 0 0 1 4.698 0Zm0 0" transform="matrix(1 0 0 -1 20.017 47.958)"/><g clip-path="url(#b)"><path style="fill:none;stroke-width:.3985;stroke-linecap:butt;stroke-linejoin:miter;stroke:#000;stroke-opacity:1;stroke-miterlimit:10" d="M4.696.001A4.695 4.695 0 0 1 .001 4.697a4.698 4.698 0 0 1 0-9.395 4.698 4.698 0 0 1 4.695 4.7Zm0 0" transform="matrix(1 0 0 -1 5.843 64.384)"/></g><path style="fill:none;stroke-width:.3985;stroke-linecap:butt;stroke-linejoin:miter;stroke:#000;stroke-opacity:1;stroke-miterlimit:10" d="M9.421 0A9.422 9.422 0 0 1-.001 9.42c-5.203 0-9.418-4.218-9.418-9.422A9.416 9.416 0 0 1 0-9.419c5.203 0 9.422 4.215 9.422 9.418Zm0 0" transform="matrix(1 0 0 -1 62.536 26.808)"/><use xlink:href="#c" x="59.353" y="30.236" style="fill:#000;fill-opacity:1"/><path style="fill:none;stroke-width:.3985;stroke-linecap:butt;stroke-linejoin:miter;stroke:#000;stroke-opacity:1;stroke-miterlimit:10" d="M4.696.001A4.695 4.695 0 0 1 .001 4.696a4.698 4.698 0 0 1 0-9.395 4.698 4.698 0 0 1 4.695 4.7Zm0 0" transform="matrix(1 0 0 -1 76.71 47.958)"/><g clip-path="url(#d)"><path style="fill:none;stroke-width:.3985;stroke-linecap:butt;stroke-linejoin:miter;stroke:#000;stroke-opacity:1;stroke-miterlimit:10" d="M4.695.001A4.695 4.695 0 0 1 0 4.697a4.698 4.698 0 0 1 0-9.395 4.698 4.698 0 0 1 4.695 4.7Zm0 0" transform="matrix(1 0 0 -1 90.883 64.384)"/></g></svg>