<svg xmlns="http://www.w3.org/2000/svg" xmlns:xlink="http://www.w3.org/1999/xlink" width="97.875" height="58.7pt" viewBox="0 0 73.406 58.7" version="1.2"><defs><symbol overflow="visible" id="a"><path style="stroke:none" d="M-2-4.469c-1.188 0-2.188.813-2.188 1.89 0 .47.157.907.516 1.267h-1.953c.063-.204.125-.532.125-.844 0-1.235-.906-1.938-1.031-1.938-.063 0-.11.032-.11.11 0 0 0 .03.032.078.093.203.296.687.296 1.36 0 .39-.078.858-.28 1.327-.032.078-.032.094-.032.11 0 .109.078.109.234.109h2.954c.171 0 .25 0 .25-.14 0-.079-.016-.094-.079-.141-.156-.11-.703-.469-.703-1.282 0-.515.453-.765.64-.843.376-.156.75-.188 1.25-.188.36 0 .954 0 1.376.25.39.235.64.61.64 1.063 0 .719-.53 1.297-1.109 1.469 0-.032.016-.063.016-.172a.48.48 0 0 0-.485-.5c-.25 0-.5.171-.5.5 0 .14.079.484.532.484C-.75-.5.219-1.188.219-2.297.219-3.453-.734-4.469-2-4.469Zm0 0"/></symbol><symbol overflow="visible" id="b"><path style="stroke:none" d="M-6.594-2.406c-.218.094-.218.125-.218.36v1.671h.312v-.234c0-.766.11-.782.469-.782h4.984c.266 0 .734 0 .734 1.016H0a29.345 29.345 0 0 1-.031-1.156c0-.328.015-.828.031-1.172h-.313c0 1.031-.468 1.031-.734 1.031h-5.375v-.016l6.203-2.406C-.094-4.14 0-4.187 0-4.28c0-.11-.078-.14-.188-.188L-6.5-6.922h5.719c.36 0 .469.016.469.781v.235H0c-.031-.36-.031-1.047-.031-1.438 0-.375 0-1.047.031-1.422h-.313v.25c0 .766-.109.782-.468.782h-5.25c-.36 0-.469-.016-.469-.782v-.25h-.313v1.688c0 .266.016.266.188.328L-1-4.562Zm0 0"/></symbol><symbol overflow="visible" id="c"><path style="stroke:none" d="M-1.61-6.75v.25c.25.047.485.094.72.188.156.046.25.078.25.656v.797C-1.204-5-1.688-5.297-2.345-5.75c-.703-.469-1.39-.875-2.187-.875-1.375 0-2.5 1.344-2.5 3.031 0 1.703 1.14 3.031 2.5 3.031.797 0 1.484-.406 2.187-.875.656-.437 1.14-.75 1.703-.89v.797c0 .578-.093.61-.234.656-.234.094-.484.14-.734.188v.25L0-.766v-1.593c0-.22 0-.25-.203-.25-.703 0-1.578.312-2.219.53-.578.22-1.36.5-2.11.5-1.593 0-2.28-1.109-2.28-2.015 0-.953.718-2.015 2.28-2.015.75 0 1.5.28 2.313.562.422.156 1.328.469 2.016.469C0-4.578 0-4.61 0-4.828v-1.594Zm0 0"/></symbol><symbol overflow="visible" id="d"><path style="stroke:none" d="M-3.266-1.313h-.25c-2.515 0-2.875-1.234-2.875-1.75 0-.234.063-.656.407-.874 0 .156 0 .546.437.546a.447.447 0 0 0 .469-.453c0-.156-.094-.469-.484-.469-.594 0-1.079.438-1.079 1.266 0 1.281 1.282 2.625 3.485 2.625C-.484-.422.219-1.578.219-2.5c0-1.11-.938-2.063-2.25-2.063-1.266 0-2.219.891-2.219 2 0 .672.5 1.047.984 1.25ZM-.062-2.5c0 .625-.594.922-.75.984-.47.188-1.266.188-1.438.188-.781 0-1.781-.328-1.781-1.219 0-.172 0-.625.625-.937.36-.172.875-.172 1.36-.172.483 0 .983 0 1.343.172.594.296.64.75.64.984Zm0 0"/></symbol><symbol overflow="visible" id="e"><path style="stroke:none" d="M-4.297-1.75h-1.156c-.875 0-1.36-.469-1.36-.906 0-.031 0-.188.079-.328.03.109.171.296.421.296a.414.414 0 0 0 .422-.437c0-.281-.203-.438-.437-.438-.375 0-.703.376-.703.907 0 .687.531 1.547 1.593 1.547h1.141v.78h.313v-.78H-.75c.438 0 .438.109.438.765H0c-.016-.39-.031-.86-.031-1.125 0-.406 0-.875.031-1.265h-.313v.203c0 .734-.109.75-.468.75h-3.203v-1.125h-.313Zm0 0"/></symbol></defs><path style="fill:none;stroke-width:.3985;stroke-linecap:butt;stroke-linejoin:miter;stroke:#000;stroke-opacity:1;stroke-miterlimit:10" d="M-3.488 42.294V14.399h6.973v27.895Zm0 0" transform="matrix(1 0 0 -1 8.054 57.544)"/><g style="fill:#000;fill-opacity:1"><use xlink:href="#a" x="7.771" y="54.026"/><use xlink:href="#b" x="7.771" y="49.045"/><use xlink:href="#c" x="7.771" y="39.912"/></g><path style="fill:none;stroke-width:.3985;stroke-linecap:butt;stroke-linejoin:miter;stroke:#000;stroke-opacity:1;stroke-miterlimit:10" d="M53.208 42.294V14.399h6.972v27.895Zm0 0" transform="matrix(1 0 0 -1 8.054 57.544)"/><g style="fill:#000;fill-opacity:1"><use xlink:href="#d" x="71.892" y="25.678"/><use xlink:href="#e" x="71.892" y="20.697"/><use xlink:href="#c" x="71.892" y="17.652"/></g><path style="fill:none;stroke-width:.3985;stroke-linecap:butt;stroke-linejoin:miter;stroke:#000;stroke-opacity:1;stroke-miterlimit:10" d="M0 .001v14.2m0 28.292v14.2M56.693 0v14.2m0 28.292v14.2" transform="matrix(1 0 0 -1 8.054 57.544)"/></svg>