<svg xmlns="http://www.w3.org/2000/svg" width="358.971" height="60.195" viewBox="0 0 269.228 45.146" version="1.2"><defs><clipPath id="a"><path d="M5 9h41v35.719H5Zm0 0"/></clipPath><clipPath id="b"><path d="M0 0h56v44.719H0Zm0 0"/></clipPath><clipPath id="c"><path d="M62 9h41v35.719H62Zm0 0"/></clipPath><clipPath id="d"><path d="M119 9h40v35.719h-40Zm0 0"/></clipPath><clipPath id="e"><path d="M116 6h46v38.719h-46Zm0 0"/></clipPath><clipPath id="f"><path d="M175 9h41v35.719h-41Zm0 0"/></clipPath><clipPath id="g"><path d="M173 9h45v35.719h-45Zm0 0"/></clipPath><clipPath id="h"><path d="M232 9h36.844v35.719H232Zm0 0"/></clipPath><clipPath id="i"><path d="M231 7h37.844v37.719H231Zm0 0"/></clipPath></defs><g clip-path="url(#a)"><path style="fill:none;stroke-width:.3985;stroke-linecap:butt;stroke-linejoin:miter;stroke:red;stroke-opacity:1;stroke-dasharray:2.98883,2.98883;stroke-miterlimit:10" d="M184.256.002c0 7.824-6.348 14.172-14.176 14.172S155.908 7.826 155.908.002c0-7.828 6.344-14.176 14.172-14.176S184.256-7.826 184.256.002Zm0 0" transform="matrix(1 0 0 -1 -144.576 29.33)"/></g><g clip-path="url(#b)"><path style="fill:none;stroke-width:.3985;stroke-linecap:butt;stroke-linejoin:miter;stroke:#000;stroke-opacity:1;stroke-miterlimit:10" d="M170.08 28.342 145.537-14.17h49.09Zm0 0" transform="matrix(1 0 0 -1 -144.576 29.33)"/></g><g clip-path="url(#c)"><path style="fill:none;stroke-width:.3985;stroke-linecap:butt;stroke-linejoin:miter;stroke:red;stroke-opacity:1;stroke-dasharray:2.98883,2.98883;stroke-miterlimit:10" d="M240.947.002c0 7.824-6.344 14.172-14.172 14.172S212.6 7.826 212.6.002c0-7.828 6.348-14.176 14.176-14.176S240.947-7.826 240.947.002Zm0 0" transform="matrix(1 0 0 -1 -144.576 29.33)"/></g><path style="fill:none;stroke-width:.3985;stroke-linecap:butt;stroke-linejoin:miter;stroke:#000;stroke-opacity:1;stroke-miterlimit:10" d="M240.947 14.174h-28.344v-28.348h28.344Zm0 0" transform="matrix(1 0 0 -1 -144.576 29.33)"/><g clip-path="url(#d)"><path style="fill:none;stroke-width:.3985;stroke-linecap:butt;stroke-linejoin:miter;stroke:red;stroke-opacity:1;stroke-dasharray:2.98883,2.98883;stroke-miterlimit:10" d="M297.642.002c0 7.824-6.347 14.172-14.175 14.172S269.295 7.826 269.295.002c0-7.828 6.344-14.176 14.172-14.176S297.642-7.826 297.642.002Zm0 0" transform="matrix(1 0 0 -1 -144.576 29.33)"/></g><g clip-path="url(#e)"><path style="fill:none;stroke-width:.3985;stroke-linecap:butt;stroke-linejoin:miter;stroke:#000;stroke-opacity:1;stroke-miterlimit:10" d="M283.467 17.517 266.81 5.412l6.364-19.582h20.59l6.363 19.582Zm0 0" transform="matrix(1 0 0 -1 -144.576 29.33)"/></g><g clip-path="url(#f)"><path style="fill:none;stroke-width:.3985;stroke-linecap:butt;stroke-linejoin:miter;stroke:red;stroke-opacity:1;stroke-dasharray:2.98883,2.98883;stroke-miterlimit:10" d="M354.334.002c0 7.824-6.344 14.172-14.172 14.172S325.99 7.826 325.99.002c0-7.828 6.344-14.176 14.172-14.176S354.334-7.826 354.334.002Zm0 0" transform="matrix(1 0 0 -1 -144.576 29.33)"/></g><g clip-path="url(#g)"><path style="fill:none;stroke-width:.3985;stroke-linecap:butt;stroke-linejoin:miter;stroke:#000;stroke-opacity:1;stroke-miterlimit:10" d="M348.342 14.17h-16.36L323.8.002l8.183-14.172h16.36L356.525.002Zm0 0" transform="matrix(1 0 0 -1 -144.576 29.33)"/></g><g clip-path="url(#h)"><path style="fill:none;stroke-width:.3985;stroke-linecap:butt;stroke-linejoin:miter;stroke:red;stroke-opacity:1;stroke-dasharray:2.98883,2.98883;stroke-miterlimit:10" d="M411.03.002c0 7.824-6.349 14.172-14.173 14.172-7.828 0-14.176-6.348-14.176-14.172 0-7.828 6.348-14.176 14.176-14.176 7.824 0 14.172 6.348 14.172 14.176Zm0 0" transform="matrix(1 0 0 -1 -144.576 29.33)"/></g><g clip-path="url(#i)"><path style="fill:none;stroke-width:.3985;stroke-linecap:butt;stroke-linejoin:miter;stroke:#000;stroke-opacity:1;stroke-miterlimit:10" d="m396.857 15.728-12.3-5.921-3.036-13.305 8.512-10.672h13.645l8.511 10.672-3.039 13.305Zm0 0" transform="matrix(1 0 0 -1 -144.576 29.33)"/></g></svg>