<svg xmlns="http://www.w3.org/2000/svg" width="40.495" height="8.595" viewBox="0 0 30.371 6.446" version="1.2"><path style="fill:none;stroke-width:4.42346;stroke-linecap:butt;stroke-linejoin:miter;stroke:#000;stroke-opacity:1;stroke-miterlimit:10" d="M.002.002h15.074" transform="matrix(1 0 0 -1 .702 2.951)"/><path style="stroke:none;fill-rule:nonzero;fill:#000;fill-opacity:1" d="M14.672.738h3.316c1.223 0 2.215.992 2.215 2.211a2.216 2.216 0 0 1-2.215 2.215h-3.316ZM20.203.738h2.211a2.214 2.214 0 0 1 0 4.426h-2.21a2.214 2.214 0 0 0 0-4.426Zm0 0"/><path style="stroke:none;fill-rule:nonzero;fill:#000;fill-opacity:1" d="M24.625.738h2.21a2.212 2.212 0 0 1 0 4.426h-2.21a2.212 2.212 0 0 0 0-4.426Zm0 0"/></svg>