<svg xmlns="http://www.w3.org/2000/svg" width="116.077" height="88.089" viewBox="0 0 87.058 66.067" version="1.2"><path style="fill:none;stroke-width:.3985;stroke-linecap:butt;stroke-linejoin:miter;stroke:#000;stroke-opacity:1;stroke-miterlimit:10" d="M28.571 53.206H56.47v6.973H28.57ZM.001 56.695h28.371m28.297 0H85.04" transform="matrix(1 0 0 -1 .538 60.913)"/><path style="fill:none;stroke-width:.3985;stroke-linecap:round;stroke-linejoin:miter;stroke:#000;stroke-opacity:1;stroke-miterlimit:10" d="m25.782 28.347 2.79 2.79 5.581-5.579 5.579 5.578 5.578-5.578 5.578 5.578 5.582-5.578 2.789 2.79" transform="matrix(1 0 0 -1 .538 60.913)"/><path style="fill:none;stroke-width:.3985;stroke-linecap:butt;stroke-linejoin:miter;stroke:#000;stroke-opacity:1;stroke-miterlimit:10" d="M.001 28.347h25.781m33.477 0H85.04M28.571-3.489H56.47v6.977H28.57ZM.001 0h28.371M56.67 0H85.04" transform="matrix(1 0 0 -1 .538 60.913)"/></svg>