<svg xmlns="http://www.w3.org/2000/svg" xmlns:xlink="http://www.w3.org/1999/xlink" width="116.331" height="78.651" viewBox="0 0 87.248 58.988" version="1.2"><defs><symbol overflow="visible" id="b"><path style="stroke:none" d="m7.672-3.844-.203-.422-.969.485-2.64-5.281.968-.485-.219-.422c-.328.219-1.203.64-1.593.844-.375.188-1.235.625-1.61.766l.219.421.969-.484L3.75-6.094.89-4.656-.265-6.984l.954-.485-.22-.422c-.312.204-1.187.625-1.577.829-.375.187-1.25.625-1.61.765l.219.422.969-.484 2.64 5.28-.968.485.203.422C.672-.375 1.547-.812 1.922-1c.39-.203 1.266-.625 1.61-.766l-.204-.421-.953.484L1.094-4.25l2.86-1.438 1.28 2.547-.968.485.203.422a37.34 37.34 0 0 1 1.578-.829 37.74 37.74 0 0 1 1.625-.78Zm0 0"/></symbol><symbol overflow="visible" id="c"><path style="stroke:none" d="m2.547-1.266-.203-.421-.547.265L0-5.016l-1.516.86.204.422c.53-.266.578-.297.75.046l1.39 2.75-.61.313.204.422L1.5-.781ZM-.578-6.469a.786.786 0 0 0-1.047-.36.793.793 0 0 0-.344 1.063.77.77 0 0 0 1.032.329.768.768 0 0 0 .359-1.032Zm0 0"/></symbol><symbol overflow="visible" id="d"><path style="stroke:none" d="M-.563-6.766c-.171-.359-.64-.484-1.015-.296-.39.187-.563.64-.39 1 .03.03.046.062.093.125L.219-2.922c.14.203.156.219.344.125.171-.078.187-.11.109-.297L-.516-6.656Zm2.47 4.938a.794.794 0 0 0-1.048-.344.762.762 0 0 0-.343 1.031.781.781 0 0 0 1.046.36.789.789 0 0 0 .344-1.047Zm0 0"/></symbol><clipPath id="a"><path d="M0 9h86.871v49.98H0Zm0 0"/></clipPath></defs><path style="fill:none;stroke-width:.19925;stroke-linecap:butt;stroke-linejoin:miter;stroke:gray;stroke-opacity:1;stroke-miterlimit:10" d="M.001.002h85.04M0 28.346h85.04M0 56.686h85.04M0 .001v56.691M28.345.002v56.691M56.693.002v56.691M85.029.002v56.691" transform="matrix(1 0 0 -1 .733 57.787)"/><g clip-path="url(#a)"><path style="fill:none;stroke-width:.3985;stroke-linecap:butt;stroke-linejoin:miter;stroke:#000;stroke-opacity:1;stroke-miterlimit:10" d="m.001.002 85.04 42.52" transform="matrix(1 0 0 -1 .733 57.787)"/></g><g style="fill:#000;fill-opacity:1"><use xlink:href="#b" x="16.573" y="53.792"/><use xlink:href="#c" x="24.592" y="49.783"/><use xlink:href="#d" x="27.435" y="48.361"/></g></svg>