<svg xmlns="http://www.w3.org/2000/svg" width="42.541" height="15.171" viewBox="0 0 31.906 11.378" version="1.2"><defs><clipPath id="a"><path d="M3 0h28.86v11.066H3Zm0 0"/></clipPath></defs><path style="fill:none;stroke-width:1.59404;stroke-linecap:butt;stroke-linejoin:miter;stroke:#000;stroke-opacity:1;stroke-miterlimit:10" d="M-.001 2.212h27.547" transform="matrix(1 0 0 -1 .962 7.595)"/><g clip-path="url(#a)"><path style="fill:none;stroke-width:1.59404;stroke-linecap:butt;stroke-linejoin:miter;stroke:#000;stroke-opacity:1;stroke-miterlimit:10" d="M-1.943 1.942c0 1.074.872 1.945 1.942 1.945a1.946 1.946 0 0 0 1.945-1.945C1.944.872 1.074 0 0 0a1.945 1.945 0 0 0 1.945-1.94A1.946 1.946 0 0 0 0-3.887c-1.07 0-1.942.87-1.942 1.945" transform="matrix(1 0 0 -1 28.11 5.383)"/></g></svg>