<svg xmlns="http://www.w3.org/2000/svg" xmlns:xlink="http://www.w3.org/1999/xlink" width="91.587" height="12.003" viewBox="0 0 68.69 9.002" version="1.2"><defs><symbol overflow="visible" id="a"><path style="stroke:none" d="M3.328-3.016c.063-.25.297-1.171.985-1.171.046 0 .296 0 .5.125a.578.578 0 0 0-.47.546c0 .157.11.344.376.344a.546.546 0 0 0 .531-.578c0-.516-.578-.656-.922-.656-.578 0-.922.531-1.047.75-.25-.656-.781-.75-1.078-.75-1.031 0-1.61 1.281-1.61 1.531 0 .11.11.11.126.11.078 0 .11-.032.125-.11.344-1.063 1-1.313 1.344-1.313.187 0 .53.094.53.672 0 .313-.171.97-.53 2.375-.157.61-.516 1.032-.954 1.032-.062 0-.28 0-.5-.125.25-.063.47-.266.47-.547 0-.266-.22-.344-.36-.344-.313 0-.547.25-.547.578 0 .453.484.656.922.656.672 0 1.031-.703 1.047-.75.125.36.484.75 1.078.75 1.031 0 1.594-1.28 1.594-1.53 0-.11-.079-.11-.11-.11-.094 0-.11.047-.14.11-.329 1.077-1 1.312-1.313 1.312-.39 0-.547-.313-.547-.657 0-.218.047-.437.156-.875Zm0 0"/></symbol><symbol overflow="visible" id="b"><path style="stroke:none" d="M4.844-3.797c.047-.14.047-.156.047-.234 0-.172-.141-.266-.297-.266a.455.455 0 0 0-.344.203c-.016.063-.11.36-.14.547-.079.25-.141.531-.204.797L3.453-.953c-.031.14-.469.844-1.125.844-.5 0-.61-.438-.61-.813 0-.453.173-1.078.5-1.953.157-.406.204-.516.204-.719 0-.437-.313-.812-.813-.812-.953 0-1.312 1.453-1.312 1.531 0 .11.094.11.11.11.109 0 .109-.032.156-.188.28-.938.671-1.235 1.015-1.235.078 0 .25 0 .25.313 0 .25-.11.516-.172.703-.406 1.063-.578 1.625-.578 2.094 0 .89.625 1.187 1.219 1.187.39 0 .719-.171 1-.453-.125.516-.25 1.016-.64 1.547-.266.328-.641.625-1.095.625-.14 0-.593-.031-.765-.422.156 0 .297 0 .422-.125a.493.493 0 0 0 .203-.406c0-.313-.266-.344-.36-.344C.829.531.5.687.5 1.171c0 .5.438.876 1.063.876 1.015 0 2.046-.906 2.328-2.031Zm0 0"/></symbol><symbol overflow="visible" id="c"><path style="stroke:none" d="M1.078-3.89c.36.093.563.093.672.093.922 0 1.469-.625 1.469-.734 0-.078-.047-.094-.078-.094-.016 0-.032 0-.063.016-.172.062-.531.203-1.047.203-.203 0-.562-.016-1.015-.188-.079-.031-.094-.031-.094-.031-.094 0-.094.078-.094.188v2.046c0 .125 0 .204.11.204.062 0 .078 0 .14-.094.297-.375.734-.438.969-.438.422 0 .61.328.64.39.126.235.172.5.172.907 0 .203 0 .61-.218.922a.984.984 0 0 1-.813.422c-.453 0-.922-.25-1.094-.719.266.016.407-.156.407-.344 0-.296-.266-.343-.36-.343 0 0-.344 0-.344.375 0 .625.579 1.25 1.407 1.25.89 0 1.672-.657 1.672-1.547 0-.782-.594-1.5-1.454-1.5-.312 0-.671.062-.984.328Zm0 0"/></symbol><symbol overflow="visible" id="d"><path style="stroke:none" d="M4.813-.89v-.563h-.25v.562c0 .579-.25.641-.36.641-.328 0-.36-.453-.36-.5v-1.984c0-.422 0-.813-.359-1.188-.39-.39-.89-.547-1.375-.547-.812 0-1.5.469-1.5 1.125 0 .297.204.469.454.469a.448.448 0 0 0 .468-.453c0-.125-.062-.453-.515-.453.265-.36.765-.469 1.078-.469.484 0 1.062.39 1.062 1.281v.36c-.515.03-1.219.062-1.844.359-.75.344-1 .86-1 1.297 0 .812.97 1.062 1.594 1.062.672 0 1.125-.406 1.313-.859.047.39.312.813.781.813.203 0 .813-.141.813-.954Zm-1.657-.5c0 .937-.719 1.28-1.172 1.28-.484 0-.89-.343-.89-.843 0-.547.406-1.375 2.062-1.438Zm0 0"/></symbol><symbol overflow="visible" id="e"><path style="stroke:none" d="M4.969-2.547v-.219H0v.22Zm0 0"/></symbol><symbol overflow="visible" id="f"><path style="stroke:none" d="M5.188-2.156c0-1.266-.97-2.25-2.11-2.25-.781 0-1.203.468-1.36.64v-3.156l-1.437.11v.312c.703 0 .781.063.781.563V0h.25l.36-.625c.14.234.562.734 1.297.734 1.187 0 2.219-.984 2.219-2.265Zm-.829 0c0 .36-.015.953-.296 1.406-.22.313-.594.64-1.125.64-.454 0-.813-.234-1.047-.609-.141-.203-.141-.234-.141-.422v-2.046c0-.188 0-.204.11-.36.39-.562.937-.64 1.171-.64.453 0 .813.265 1.047.64.266.406.281.969.281 1.39Zm0 0"/></symbol></defs><use xlink:href="#a" x=".602" y="6.134" style="fill:#000;fill-opacity:1"/><use xlink:href="#b" x="27.118" y="5.165" style="fill:#000;fill-opacity:1"/><use xlink:href="#c" x="32.002" y="6.66" style="fill:#000;fill-opacity:1"/><path style="fill:none;stroke-width:.3985;stroke-linecap:butt;stroke-linejoin:miter;stroke:#000;stroke-opacity:1;stroke-miterlimit:10" d="M6.368 0H20.15" transform="matrix(1 0 0 -1 3.448 3.989)"/><g style="fill:red;fill-opacity:1"><use xlink:href="#d" x="52.39" y="7.391"/><use xlink:href="#e" x="57.371" y="7.391"/><use xlink:href="#f" x="62.353" y="7.391"/></g><path style="fill:none;stroke-width:.3985;stroke-linecap:butt;stroke-linejoin:miter;stroke:#000;stroke-opacity:1;stroke-miterlimit:10" d="M36.544 0h8.48" transform="matrix(1 0 0 -1 3.448 3.989)"/><path style="fill:none;stroke-width:.3985;stroke-linecap:round;stroke-linejoin:round;stroke:#000;stroke-opacity:1;stroke-miterlimit:10" d="M-2.074 2.391C-1.694.958-.85.278 0 .001-.85-.281-1.695-.956-2.074-2.39" transform="matrix(1 0 0 -1 48.672 3.989)"/></svg>