<svg xmlns="http://www.w3.org/2000/svg" width="81.747" height="82.203" viewBox="0 0 61.31 61.652" version="1.2"><defs><clipPath id="a"><path d="M1 51h15v10.477H1Zm0 0"/></clipPath><clipPath id="b"><path d="M8 51h15v10.477H8Zm0 0"/></clipPath><clipPath id="c"><path d="M15 51h16v10.477H15Zm0 0"/></clipPath><clipPath id="d"><path d="M23 51h15v10.477H23Zm0 0"/></clipPath><clipPath id="e"><path d="M30 51h15v10.477H30Zm0 0"/></clipPath><clipPath id="f"><path d="M37 51h15v10.477H37Zm0 0"/></clipPath><clipPath id="g"><path d="M44 51h15v10.477H44Zm0 0"/></clipPath><clipPath id="h"><path d="M51 51h9.965v10.477H51Zm0 0"/></clipPath></defs><g clip-path="url(#a)"><path style="fill:none;stroke-width:.3985;stroke-linecap:butt;stroke-linejoin:miter;stroke:#000;stroke-opacity:1;stroke-miterlimit:10" d="m5.676-1.408 2.82 2.816m-2.82 0 2.82-2.816" transform="matrix(1 0 0 -1 1.707 58.928)"/></g><g clip-path="url(#b)"><path style="fill:none;stroke-width:.3985;stroke-linecap:butt;stroke-linejoin:miter;stroke:#000;stroke-opacity:1;stroke-miterlimit:10" d="m12.766-1.408 2.816 2.816m-2.816 0 2.816-2.816" transform="matrix(1 0 0 -1 1.707 58.928)"/></g><g clip-path="url(#c)"><path style="fill:none;stroke-width:.3985;stroke-linecap:butt;stroke-linejoin:miter;stroke:#000;stroke-opacity:1;stroke-miterlimit:10" d="m19.852-1.408 2.816 2.816m-2.816 0 2.816-2.816" transform="matrix(1 0 0 -1 1.707 58.928)"/></g><g clip-path="url(#d)"><path style="fill:none;stroke-width:.3985;stroke-linecap:butt;stroke-linejoin:miter;stroke:#000;stroke-opacity:1;stroke-miterlimit:10" d="m26.938-1.408 2.816 2.816m-2.816 0 2.816-2.816" transform="matrix(1 0 0 -1 1.707 58.928)"/></g><g clip-path="url(#e)"><path style="fill:none;stroke-width:.3985;stroke-linecap:butt;stroke-linejoin:miter;stroke:#000;stroke-opacity:1;stroke-miterlimit:10" d="m34.023-1.408 2.82 2.816m-2.82 0 2.82-2.816" transform="matrix(1 0 0 -1 1.707 58.928)"/></g><g clip-path="url(#f)"><path style="fill:none;stroke-width:.3985;stroke-linecap:butt;stroke-linejoin:miter;stroke:#000;stroke-opacity:1;stroke-miterlimit:10" d="m41.11-1.408 2.82 2.816m-2.82 0 2.82-2.816" transform="matrix(1 0 0 -1 1.707 58.928)"/></g><g clip-path="url(#g)"><path style="fill:none;stroke-width:.3985;stroke-linecap:butt;stroke-linejoin:miter;stroke:#000;stroke-opacity:1;stroke-miterlimit:10" d="m48.2-1.408 2.816 2.816m-2.817 0 2.817-2.816" transform="matrix(1 0 0 -1 1.707 58.928)"/></g><g clip-path="url(#h)"><path style="fill:none;stroke-width:.3985;stroke-linecap:butt;stroke-linejoin:miter;stroke:#000;stroke-opacity:1;stroke-miterlimit:10" d="m55.285-1.408 2.817 2.816m-2.817 0 2.817-2.816" transform="matrix(1 0 0 -1 1.707 58.928)"/></g><path style="fill:none;stroke-width:.3985;stroke-linecap:butt;stroke-linejoin:miter;stroke:#000;stroke-opacity:1;stroke-miterlimit:10" d="m-.906 5.658 2.816 2.82m-2.816 0 2.816-2.82M-.406 12.729l2.816 2.816m-2.816 0L2.41 12.73M.094 19.8l2.82 2.816m-2.82 0 2.82-2.817M.598 26.866l2.816 2.816m-2.816 0 2.816-2.816M1.098 33.936l2.816 2.816m-2.816 0 2.816-2.816M1.598 41.002l2.82 2.82m-2.82 0 2.82-2.82M2.102 48.073l2.816 2.816m-2.816 0 2.816-2.816M2.602 55.139l2.82 2.82m-2.82 0 2.82-2.82" transform="matrix(1 0 0 -1 1.707 58.928)"/></svg>