<svg xmlns="http://www.w3.org/2000/svg" width="125.884" height="89.417" viewBox="0 0 94.413 67.063" version="1.2"><defs><clipPath id="a"><path d="M78 51h16.121v15.594H78Zm0 0"/></clipPath></defs><path style="fill:none;stroke-width:.3985;stroke-linecap:butt;stroke-linejoin:miter;stroke:red;stroke-opacity:1;stroke-miterlimit:10" d="M1.992 0A1.99 1.99 0 0 1 0 1.993 1.99 1.99 0 0 1-1.993 0 1.99 1.99 0 0 1 0-1.992 1.99 1.99 0 0 1 1.992 0ZM59.683 28.348a2.988 2.988 0 1 1-5.977 0 2.988 2.988 0 0 1 5.977 0Zm0 0" transform="matrix(1 0 0 -1 3.497 32.664)"/><path style="fill:none;stroke-width:.3985;stroke-linecap:butt;stroke-linejoin:miter;stroke:#000;stroke-opacity:1;stroke-miterlimit:10" d="M-2.192-2.191v33.727h62.074V-2.191Zm0 0" transform="matrix(1 0 0 -1 3.497 32.664)"/><g clip-path="url(#a)"><path style="fill:none;stroke-width:.3985;stroke-linecap:butt;stroke-linejoin:miter;stroke:red;stroke-opacity:1;stroke-miterlimit:10" d="M89.027-28.347a3.984 3.984 0 0 1-3.988 3.984 3.984 3.984 0 1 1 0-7.969 3.987 3.987 0 0 1 3.988 3.985Zm0 0" transform="matrix(1 0 0 -1 3.497 32.664)"/></g><path style="fill:none;stroke-width:.79701;stroke-linecap:butt;stroke-linejoin:miter;stroke:#000;stroke-opacity:1;stroke-miterlimit:10" d="M-2.391-32.53v64.265h91.617v-64.266Zm0 0" transform="matrix(1 0 0 -1 3.497 32.664)"/></svg>