<svg xmlns="http://www.w3.org/2000/svg" width="29.412" height="9.267" viewBox="0 0 22.059 6.95" version="1.2"><defs><clipPath id="a"><path d="M4 0h17.59v6.926H4Zm0 0"/></clipPath></defs><path style="fill:none;stroke-width:.79701;stroke-linecap:butt;stroke-linejoin:miter;stroke:#000;stroke-opacity:1;stroke-miterlimit:10" d="M0 2.21h15.395" transform="matrix(1 0 0 -1 .538 5.667)"/><path style="stroke:none;fill-rule:nonzero;fill:#000;fill-opacity:1" d="M20.066 3.457c.34-1.144-.304-2.066-1.445-2.066-1.14 0-2.344.921-2.687 2.066-.34 1.14.304 2.063 1.445 2.063 1.14 0 2.344-.922 2.687-2.063Zm0 0"/><g clip-path="url(#a)"><path style="fill:none;stroke-width:.79701;stroke-linecap:butt;stroke-linejoin:miter;stroke:#000;stroke-opacity:1;stroke-miterlimit:10" d="M4.531-.002a2.066 2.066 0 1 1-4.132 0 2.067 2.067 0 0 1 4.133 0Zm0 0" transform="matrix(1 0 .3 -1 15.536 3.455)"/></g></svg>