<svg xmlns="http://www.w3.org/2000/svg" width="122.019" height="88.059" viewBox="0 0 91.514 66.044" version="1.2"><defs><clipPath id="a"><path d="M66 23h25.27v33H66Zm0 0"/></clipPath><clipPath id="b"><path d="M23 37h31v28.566H23Zm0 0"/></clipPath></defs><path style="fill:none;stroke-width:.19925;stroke-linecap:butt;stroke-linejoin:miter;stroke:gray;stroke-opacity:1;stroke-miterlimit:10" d="M0-.001h85.042M0 28.346h85.043M0 56.682h85.043M0 0v56.695M28.347-.001v56.695M56.694-.001v56.695M85.03-.001v56.695" transform="matrix(1 0 0 -1 1.118 58.987)"/><path style="fill:none;stroke-width:.3985;stroke-linecap:butt;stroke-linejoin:miter;stroke:#000;stroke-opacity:1;stroke-miterlimit:10" d="M0 28.346H1.99l.996-1.726.997 1.726h1.992l1-1.726-1-1.723h1.996l.996-1.726.996 1.726h1.992l-.996 1.723.996 1.726h1.992l.996-1.726.997 1.726h1.992l-.996 1.727.996 1.726H15.94l-.997 1.723.997 1.727h1.992l-.996 1.726.996 1.727H15.94l-.997 1.723-.996-1.723h-1.992l-.996 1.723.996 1.726H9.964l-.996 1.727-.996-1.727H5.976l1-1.727-1-1.722H3.984l-.997 1.723-.996-1.723H0l.996-1.727L0 35.25h1.992l.996-1.727-.996-1.723H0l.996-1.726L0 28.346M42.519 42.522h1.992l1-1.726.996 1.726h1.992l.996-1.726-.996-1.727h1.992l.996-1.727.997 1.727h1.992l-.996 1.727.996 1.726h1.992l.996-1.726.996 1.726h1.992l-.996 1.723.996 1.726H58.46l-.996 1.727.996 1.727h1.992l-.996 1.722.996 1.727H58.46l-.996 1.726-.996-1.726h-1.992L53.48 54.6l.996 1.727h-1.992l-.997 1.723-.996-1.723H48.5l.996-1.727-.996-1.726h-1.992l-.996 1.726-1-1.726h-1.992l.996-1.727-.996-1.722h1.992l1-1.727-1-1.727h-1.992l.996-1.726-.996-1.723" transform="matrix(1 0 0 -1 1.118 58.987)"/><g clip-path="url(#a)"><path style="fill:none;stroke-width:.3985;stroke-linecap:butt;stroke-linejoin:miter;stroke:#000;stroke-opacity:1;stroke-miterlimit:10" d="M70.866 14.175h1.993l.996-1.727.996 1.726h1.992l.996-1.726-.996-1.727h1.996l.996-1.726.996 1.726h1.992l-.996 1.727.996 1.726h1.993l.996-1.726.996 1.726H88.8l-.996 1.723.996 1.727h-1.992l-.996 1.726.996 1.727H88.8l-.996 1.722.996 1.727h-1.992l-.996 1.727-.996-1.727h-1.993l-.996 1.727.996 1.726h-1.992l-.996 1.727-.996-1.727h-1.996l.996-1.726-.996-1.727H74.85l-.996 1.727-.996-1.727h-1.993l.996-1.727-.996-1.722h1.993l.996-1.727-.996-1.726h-1.993l.996-1.727-.996-1.723" transform="matrix(1 0 0 -1 1.118 58.987)"/></g><g clip-path="url(#b)"><path style="fill:none;stroke-width:.3985;stroke-linecap:butt;stroke-linejoin:miter;stroke:#000;stroke-opacity:1;stroke-miterlimit:10" d="M28.347-.001h1.992l.996-1.723L32.331 0h1.992l.996-1.723-.996-1.726h1.993l.996-1.727.996 1.726h1.996l-.996 1.727L40.304 0h1.992l.996-1.723L44.288 0h1.992l-.996 1.726.996 1.727h-1.992l-.996 1.726.996 1.723h1.992l-.996 1.727.996 1.726h-1.992l-.996 1.727-.996-1.727h-1.992l-.996 1.727.996 1.722h-1.996l-.996 1.727-.996-1.727h-1.993l.996-1.722-.996-1.727h-1.992l-.996 1.727-.996-1.727h-1.992l.996-1.726-.996-1.727h1.992l.996-1.723-.996-1.726h-1.992l.996-1.727L28.347 0" transform="matrix(1 0 0 -1 1.118 58.987)"/></g></svg>