<svg xmlns="http://www.w3.org/2000/svg" xmlns:xlink="http://www.w3.org/1999/xlink" width="414.771" height="158.739" viewBox="0 0 311.078 119.054" version="1.2"><defs><symbol overflow="visible" id="a"><path style="stroke:none" d="M4.766-1.172c0-.14-.141-.14-.235-.14-.187 0-.187.03-.25.156-.25.625-.734.812-1.234.812-1.39 0-1.39-1.453-1.39-1.922 0-.562 0-1.843 1.28-1.843.36 0 .516.015.657.046a.618.618 0 0 0-.203.47c0 .437.343.624.609.624.313 0 .64-.219.64-.625 0-.86-1.156-.922-1.734-.922C1.11-4.516.375-3.375.375-2.219.375-.89 1.313.062 2.844.062c1.625 0 1.922-1.156 1.922-1.234Zm0 0"/></symbol><symbol overflow="visible" id="b"><path style="stroke:none" d="M4.406-3.672c0-.531-.531-.812-1.062-.812-.688 0-1.094.5-1.313 1.125v-1.125l-1.656.078v.468c.61 0 .688 0 .688.391v3.078H.375V0l1.25-.031C2-.031 2.641-.031 3 0v-.469h-.86v-1.75c0-.687.235-1.906 1.235-1.906 0 0-.188.172-.188.453 0 .406.329.61.61.61.297 0 .61-.204.61-.61Zm0 0"/></symbol><symbol overflow="visible" id="c"><path style="stroke:none" d="M5.406-2.172c0-1.344-.922-2.344-2.547-2.344C1.22-4.516.313-3.5.313-2.172c0 1.235.89 2.235 2.546 2.235 1.672 0 2.547-1.016 2.547-2.235Zm-1.281-.11c0 .86 0 1.938-1.266 1.938-1.265 0-1.265-1.078-1.265-1.937 0-.453 0-.953.172-1.297.187-.375.609-.578 1.093-.578.422 0 .844.156 1.063.5.203.344.203.89.203 1.375Zm0 0"/></symbol><symbol overflow="visible" id="d"><path style="stroke:none" d="M4.14-1.39c0-.438-.202-.782-.546-1.063-.39-.281-.719-.344-1.485-.485-.375-.062-1.015-.171-1.015-.64 0-.625.922-.625 1.11-.625.75 0 1.124.297 1.171.844.016.156.031.203.234.203.235 0 .235-.047.235-.281v-.797c0-.188 0-.282-.172-.282-.047 0-.063 0-.453.188-.266-.125-.61-.188-1-.188-.313 0-1.844 0-1.844 1.313 0 .39.203.656.406.828.39.344.781.406 1.547.547.36.062 1.094.187 1.094.781 0 .75-.906.75-1.125.75C1.234-.297.984-1.03.859-1.453c-.046-.14-.109-.14-.234-.14-.25 0-.25.062-.25.28v1.094c0 .188 0 .281.188.281.062 0 .078 0 .296-.156l.25-.172c.47.329.985.329 1.188.329.312 0 1.844 0 1.844-1.454Zm0 0"/></symbol><symbol overflow="visible" id="e"><path style="stroke:none" d="M6.125 0v-.469c-.61 0-.688 0-.688-.39v-3.625l-1.812.078v.468c.61 0 .688 0 .688.391v1.906c0 .813-.516 1.344-1.235 1.344-.781 0-.812-.25-.812-.797v-3.39l-1.813.078v.468c.61 0 .688 0 .688.391v2.328c0 1.063.796 1.282 1.796 1.282.25 0 .97 0 1.422-.782v.781Zm0 0"/></symbol><symbol overflow="visible" id="f"><path style="stroke:none" d="M3.813-1.234v-.532h-.47v.516c0 .672-.327.906-.609.906-.578 0-.578-.64-.578-.86v-2.75h1.469v-.468H2.156v-1.906h-.469c0 1-.484 1.984-1.484 2.016v.359h.828v2.734c0 1.063.86 1.282 1.578 1.282.75 0 1.204-.579 1.204-1.297Zm0 0"/></symbol><symbol overflow="visible" id="h"><path style="stroke:none" d="M3.078.313c0-.126-.047-.157-.187-.25C2.062-.5 1.75-1.391 1.75-2.126c0-.672.25-1.594 1.156-2.203.125-.094.172-.125.172-.25a.254.254 0 0 0-.265-.25c-.204 0-1.641.906-1.641 2.703 0 .813.312 1.438.562 1.781.375.516.907.906 1.079.906.218 0 .265-.171.265-.25Zm0 0"/></symbol><symbol overflow="visible" id="i"><path style="stroke:none" d="M3.219-.906c0-.735-.906-.906-1.14-.938l-.704-.125C1.187-2 1-2.079 1-2.25c0-.156.219-.328.813-.328.515 0 .609.172.625.328.015.14.03.281.28.281.298 0 .298-.156.298-.328v-.469c0-.14-.016-.328-.25-.328-.157 0-.22.063-.25.125-.282-.125-.563-.125-.688-.125-1.187 0-1.344.594-1.344.844 0 .656.735.797 1.391.89.297.063.828.141.828.454 0 .234-.25.422-.828.422-.297 0-.656-.063-.813-.563-.03-.156-.078-.234-.28-.234-.298 0-.298.172-.298.328v.656c0 .14 0 .344.25.344.079 0 .188 0 .282-.234.328.218.671.234.859.234 1.125 0 1.344-.61 1.344-.953Zm0 0"/></symbol><symbol overflow="visible" id="j"><path style="stroke:none" d="M2.313-.469a.477.477 0 0 0-.485-.484.47.47 0 0 0-.469.469c0 .28.22.484.47.484a.473.473 0 0 0 .484-.469Zm0 0"/></symbol><symbol overflow="visible" id="k"><path style="stroke:none" d="M3.578-.266c0-.25-.203-.25-.328-.25H3v-1.53c0-.72-.36-1.032-.938-1.032-.39 0-.671.172-.843.297 0-.172-.047-.25-.313-.25h-.5c-.14 0-.328 0-.328.25 0 .265.203.265.313.265h.25v2H.406c-.14 0-.328 0-.328.25C.078 0 .281 0 .391 0h1.093c.11 0 .329 0 .329-.266 0-.25-.204-.25-.344-.25h-.25v-1.156c0-.64.484-.875.797-.875.328 0 .406.172.406.547v1.484h-.203c-.14 0-.344 0-.344.25 0 .266.219.266.344.266H3.25c.11 0 .328 0 .328-.266Zm0 0"/></symbol><symbol overflow="visible" id="l"><path style="stroke:none" d="M3.281-1.516c0-.89-.672-1.578-1.453-1.578-.797 0-1.453.688-1.453 1.578 0 .891.672 1.563 1.453 1.563.766 0 1.453-.688 1.453-1.563Zm-.578-.046c0 .593-.406 1.078-.875 1.078S.953-.97.953-1.563c0-.593.422-1.015.875-1.015s.875.422.875 1.015Zm0 0"/></symbol><symbol overflow="visible" id="m"><path style="stroke:none" d="M3.406-2.594c0-.156-.078-.484-.703-.484-.328 0-.734.11-1.094.469v-.094c0-.25-.046-.328-.328-.328h-.75c-.125 0-.328 0-.328.25 0 .265.203.265.328.265h.5v2h-.5c-.125 0-.328 0-.328.25C.203 0 .406 0 .531 0h1.781c.126 0 .329 0 .329-.266 0-.25-.204-.25-.329-.25H1.61v-.796c0-.61.36-1.22 1.11-1.235 0 .156.172.281.344.281.187 0 .343-.125.343-.328Zm0 0"/></symbol><symbol overflow="visible" id="n"><path style="stroke:none" d="M3.14-.906c0-.156 0-.313-.296-.313-.266 0-.266.157-.266.297-.015.375-.36.438-.515.438-.454 0-.454-.313-.454-.47v-1.562h1.047c.125 0 .328 0 .328-.265 0-.25-.187-.25-.328-.25H1.61v-.516c0-.14-.015-.328-.296-.328-.282 0-.282.172-.282.328v.516H.484c-.125 0-.328 0-.328.25 0 .265.203.265.328.265h.547v1.61c0 .687.485.953 1.016.953S3.14-.266 3.14-.906Zm0 0"/></symbol><symbol overflow="visible" id="o"><path style="stroke:none" d="M3.578-.266c0-.25-.203-.25-.328-.25H3v-1.53c0-.72-.36-1.032-.938-1.032-.39 0-.671.172-.843.297v-1.14c0-.25-.047-.345-.313-.345h-.5c-.14 0-.328.016-.328.266s.203.266.313.266h.25v3.218H.406c-.14 0-.328 0-.328.25C.078 0 .281 0 .391 0h1.093c.11 0 .329 0 .329-.266 0-.25-.204-.25-.344-.25h-.25v-1.156c0-.64.484-.875.797-.875.328 0 .406.172.406.547v1.484h-.203c-.14 0-.344 0-.344.25 0 .266.219.266.344.266H3.25c.11 0 .328 0 .328-.266Zm0 0"/></symbol><symbol overflow="visible" id="p"><path style="stroke:none" d="M3.547-2.781c0-.25-.188-.25-.328-.25h-.781c-.157 0-.344 0-.344.25 0 .265.172.265.344.265h.265l-.297 1.72-.14-.532c-.125-.469-.172-.547-.422-.547-.094 0-.235 0-.328.188l-.266.906-.297-1.735h.266c.156 0 .343 0 .343-.265 0-.25-.187-.25-.343-.25H.437c-.14 0-.343 0-.343.25 0 .234.14.265.36.265L.858-.28c.032.187.047.312.36.312.312 0 .343-.062.453-.515l.172-.641.265 1c.094.14.235.156.344.156.281 0 .313-.125.344-.312l.406-2.235c.219 0 .344-.03.344-.265Zm0 0"/></symbol><symbol overflow="visible" id="q"><path style="stroke:none" d="M3.25-.797c0-.234-.234-.234-.281-.234-.156 0-.219.015-.281.172-.141.328-.485.375-.657.375-.469 0-.937-.297-1.062-.813h1.953c.172 0 .328 0 .328-.312 0-.797-.453-1.485-1.375-1.485-.828 0-1.516.703-1.516 1.563S1.08.047 1.984.047c.938 0 1.266-.656 1.266-.844Zm-.594-1.015H.97c.125-.438.484-.766.906-.766.328 0 .703.156.781.765Zm0 0"/></symbol><symbol overflow="visible" id="r"><path style="stroke:none" d="M2.484-2.125c0-.828-.312-1.453-.562-1.797-.375-.515-.906-.906-1.078-.906-.203 0-.266.187-.266.25 0 .125.094.187.14.219 1.095.718 1.188 1.796 1.188 2.234 0 .656-.25 1.578-1.14 2.188C.64.14.578.186.578.313c0 .078.063.25.266.25s1.64-.907 1.64-2.688Zm0 0"/></symbol><symbol overflow="visible" id="s"><path style="stroke:none" d="M3.625-.266c0-.25-.203-.25-.328-.25-.203 0-.297-.03-.344-.046V-2c0-.5-.375-1.094-1.406-1.094-.313 0-1.031.016-1.031.547 0 .235.171.36.359.36.11 0 .344-.063.344-.36 0 0 .234-.031.343-.031.454 0 .782.187.813.594-1.219.03-2.047.39-2.047 1.062 0 .485.453.969 1.188.969.234 0 .656-.047.968-.25.172.187.485.203.75.203.235 0 .391-.016.391-.266ZM2.359-.969c0 .14 0 .266-.234.375-.234.11-.516.11-.578.11-.39 0-.64-.204-.64-.438 0-.312.546-.515 1.452-.562Zm0 0"/></symbol><symbol overflow="visible" id="t"><path style="stroke:none" d="M3.266-.797c0-.234-.235-.234-.297-.234-.125 0-.203 0-.266.172-.047.078-.187.375-.625.375a1.027 1.027 0 0 1-1.015-1.032c0-.312.187-1.062 1.062-1.062l.344.015c.015.282.172.376.36.376.187 0 .358-.126.358-.36 0-.531-.734-.547-1.062-.547-1.219 0-1.64.953-1.64 1.578 0 .844.671 1.563 1.546 1.563 1 0 1.235-.719 1.235-.844Zm0 0"/></symbol><symbol overflow="visible" id="u"><path style="stroke:none" d="M3.64-.266c0-.218-.14-.25-.39-.25v-1.593c0-.157-.016-.97-.656-.97a.842.842 0 0 0-.656.313.61.61 0 0 0-.532-.312.875.875 0 0 0-.547.203c-.046-.156-.187-.156-.312-.156H.328c-.125 0-.328 0-.328.25 0 .234.125.265.39.265v2c-.265 0-.39.032-.39.25C0 0 .219 0 .328 0h.594c.125 0 .312 0 .312-.266 0-.218-.109-.25-.359-.25v-1.171c0-.563.234-.86.5-.86.14 0 .203.11.203.5v1.531c-.156 0-.281.032-.281.25 0 .266.187.266.312.266h.516c.125 0 .313 0 .313-.266 0-.218-.126-.25-.376-.25v-1.171c0-.563.25-.86.5-.86.141 0 .204.11.204.5v1.531c-.141 0-.282.032-.282.25 0 .266.204.266.313.266h.5c.125 0 .344 0 .344-.266Zm0 0"/></symbol><symbol overflow="visible" id="v"><path style="stroke:none" d="M3.188-.266c0-.25-.204-.25-.329-.25h-.656v-2.187c0-.25-.047-.328-.328-.328H.906c-.125 0-.328 0-.328.25 0 .265.203.265.328.265h.719v2H.859c-.14 0-.343 0-.343.25C.516 0 .734 0 .859 0h2c.125 0 .329 0 .329-.266Zm-.954-3.562a.39.39 0 0 0-.406-.39.387.387 0 0 0-.39.39c0 .219.171.39.39.39a.39.39 0 0 0 .406-.39Zm0 0"/></symbol><symbol overflow="visible" id="w"><path style="stroke:none" d="M3.578-.266c0-.25-.203-.25-.328-.25H3v-3.406c0-.25-.047-.344-.328-.344h-.485c-.14 0-.343.016-.343.266s.218.266.328.266h.25v.906a1.261 1.261 0 0 0-.735-.25c-.765 0-1.453.672-1.453 1.562C.234-.64.875.047 1.625.047c.344 0 .61-.14.797-.313.015.188.062.266.328.266h.5c.125 0 .328 0 .328-.266ZM2.422-1.375c0 .36-.297.89-.781.89-.454 0-.829-.453-.829-1.03 0-.61.438-1.032.891-1.032.406 0 .719.344.719.688Zm0 0"/></symbol><symbol overflow="visible" id="x"><path style="stroke:none" d="M3.422-1.516c0-.875-.64-1.562-1.39-1.562-.298 0-.579.11-.813.265v-1.109c0-.25-.047-.344-.313-.344h-.5c-.14 0-.344.016-.344.266s.22.266.329.266h.25v3.406C.64-.172.656 0 .937 0c.22 0 .282-.094.282-.234.265.218.531.28.734.28.766 0 1.469-.671 1.469-1.562Zm-.578 0c0 .61-.453 1.032-.906 1.032-.485 0-.704-.563-.704-.875v-.485c0-.375.375-.703.766-.703.469 0 .844.469.844 1.031Zm0 0"/></symbol><symbol overflow="visible" id="y"><path style="stroke:none" d="M3.578-.266c0-.25-.219-.25-.328-.25H3v-2.187c0-.25-.047-.328-.328-.328h-.485c-.14 0-.343 0-.343.25 0 .265.218.265.328.265h.25v1.391c0 .563-.516.64-.719.64-.469 0-.484-.187-.484-.39v-1.828c0-.25-.047-.328-.313-.328h-.5c-.14 0-.328 0-.328.25 0 .265.203.265.313.265h.25v1.688c0 .687.5.875 1.03.875.266 0 .516-.063.766-.219C2.485 0 2.626 0 2.75 0h.5c.125 0 .328 0 .328-.266Zm0 0"/></symbol><symbol overflow="visible" id="z"><path style="stroke:none" d="M3.469-.266c0-.25-.203-.25-.328-.25h-.25l-.829-1.046.735-.954h.234c.125 0 .344 0 .344-.265 0-.25-.219-.25-.344-.25H2.25c-.125 0-.328 0-.328.25 0 .203.11.265.281.265l-.39.547-.422-.547c.156 0 .28-.062.28-.265 0-.25-.202-.25-.327-.25H.547c-.125 0-.328 0-.328.25 0 .265.218.265.328.265h.25l.75.954L.75-.516H.516c-.125 0-.344 0-.344.25C.172 0 .39 0 .516 0h.78c.126 0 .329 0 .329-.266 0-.203-.11-.25-.297-.25l.484-.703.5.703c-.187 0-.296.047-.296.25 0 .266.203.266.328.266h.797c.109 0 .328 0 .328-.266Zm0 0"/></symbol><symbol overflow="visible" id="A"><path style="stroke:none" d="M3.094-.266c0-.25-.188-.25-.313-.25H2.22V-4c0-.125-.016-.328-.266-.328-.156 0-.219.094-.25.187-.234.547-.578.625-.687.641-.141 0-.313.031-.313.266 0 .203.156.25.281.25.125 0 .375-.032.657-.235v2.703h-.563c-.14 0-.328 0-.328.25C.75 0 .953 0 1.078 0h1.703c.125 0 .313 0 .313-.266Zm0 0"/></symbol><symbol overflow="visible" id="B"><path style="stroke:none" d="M3.313-2.125c0-1.297-.72-2.203-1.485-2.203-.781 0-1.5.922-1.5 2.203 0 1.297.734 2.203 1.5 2.203.781 0 1.484-.922 1.484-2.203Zm-.563-.078c0 .969-.422 1.75-.922 1.75-.516 0-.922-.781-.922-1.75 0-.953.438-1.61.922-1.61.469 0 .922.657.922 1.61Zm0 0"/></symbol><symbol overflow="visible" id="C"><path style="stroke:none" d="M3.36-1.234c0-.47-.297-.875-.72-1.094.344-.25.516-.64.516-1 0-.516-.515-1-1.328-1-.86 0-1.344.36-1.344.844 0 .265.204.375.36.375.172 0 .36-.141.36-.36 0-.078-.032-.14-.048-.172.203-.171.625-.171.688-.171.422 0 .734.218.734.5a.718.718 0 0 1-.25.546c-.219.172-.375.188-.61.188-.437 0-.546.062-.546.281 0 .266.203.266.328.266h.313c.64 0 .968.422.968.797 0 .39-.36.78-.937.78-.25 0-.719-.062-.907-.327A.364.364 0 0 0 1-1a.363.363 0 0 0-.36-.36c-.171 0-.343.126-.343.391C.297-.344.969.078 1.844.078c.922 0 1.515-.656 1.515-1.312Zm0 0"/></symbol><clipPath id="g"><path d="M0 0h310.617v118.582H0Zm0 0"/></clipPath></defs><g style="fill:#b2b2b2;fill-opacity:1"><use xlink:href="#a" x="132.108" y="87.356"/><use xlink:href="#b" x="137.199" y="87.356"/><use xlink:href="#c" x="141.921" y="87.356"/><use xlink:href="#d" x="147.65" y="87.356"/><use xlink:href="#d" x="152.173" y="87.356"/></g><g style="fill:#b2b2b2;fill-opacity:1"><use xlink:href="#c" x="160.511" y="87.356"/><use xlink:href="#e" x="166.24" y="87.356"/><use xlink:href="#f" x="172.606" y="87.356"/></g><path style="fill:none;stroke-width:.996;stroke-linecap:butt;stroke-linejoin:miter;stroke:#b2b2b2;stroke-opacity:1;stroke-miterlimit:10" d="M.002.002v56.75" transform="matrix(1 0 0 -1 177.557 87.416)"/><path style="stroke:none;fill-rule:nonzero;fill:#fffbb3;fill-opacity:1" d="m54.152 108.676 201.86-99.274m-201.86 0 201.86 99.274"/><g clip-path="url(#g)"><path style="fill:none;stroke-width:14.17339;stroke-linecap:butt;stroke-linejoin:miter;stroke:#b2b2b2;stroke-opacity:1;stroke-miterlimit:10" d="m-100.93-49.637 201.86 99.274m-201.86 0 201.86-99.274" transform="matrix(1 0 0 -1 155.082 59.039)"/></g><path style="fill:none;stroke-width:.3985;stroke-linecap:butt;stroke-linejoin:miter;stroke:#000;stroke-opacity:1;stroke-miterlimit:10" d="m-102.336 48.227 2.817 2.82m-2.817 0 2.817-2.82" transform="matrix(1 0 0 -1 155.082 59.039)"/><g style="fill:#000;fill-opacity:1"><use xlink:href="#h" x="-.622" y="5.325"/><use xlink:href="#i" x="3.039" y="5.325"/><use xlink:href="#j" x="6.701" y="5.325"/><use xlink:href="#k" x="10.362" y="5.325"/><use xlink:href="#l" x="14.023" y="5.325"/><use xlink:href="#m" x="17.684" y="5.325"/><use xlink:href="#n" x="21.346" y="5.325"/><use xlink:href="#o" x="25.007" y="5.325"/></g><g style="fill:#000;fill-opacity:1"><use xlink:href="#p" x="32.322" y="5.325"/><use xlink:href="#q" x="35.984" y="5.325"/><use xlink:href="#i" x="39.645" y="5.325"/><use xlink:href="#n" x="43.306" y="5.325"/><use xlink:href="#r" x="46.968" y="5.325"/></g><path style="fill:none;stroke-width:.3985;stroke-linecap:butt;stroke-linejoin:miter;stroke:#000;stroke-opacity:1;stroke-miterlimit:10" d="m-1.41 48.227 2.82 2.82m-2.82 0 2.82-2.82" transform="matrix(1 0 0 -1 155.082 59.039)"/><g style="fill:#000;fill-opacity:1"><use xlink:href="#h" x="138.606" y="5.325"/><use xlink:href="#i" x="142.267" y="5.325"/><use xlink:href="#j" x="145.929" y="5.325"/><use xlink:href="#k" x="149.59" y="5.325"/><use xlink:href="#l" x="153.251" y="5.325"/><use xlink:href="#m" x="156.912" y="5.325"/><use xlink:href="#n" x="160.574" y="5.325"/><use xlink:href="#o" x="164.235" y="5.325"/><use xlink:href="#r" x="167.896" y="5.325"/></g><path style="fill:none;stroke-width:.3985;stroke-linecap:butt;stroke-linejoin:miter;stroke:#000;stroke-opacity:1;stroke-miterlimit:10" d="m99.52 48.227 2.816 2.82m-2.816 0 2.816-2.82" transform="matrix(1 0 0 -1 155.082 59.039)"/><g style="fill:#000;fill-opacity:1"><use xlink:href="#h" x="259.528" y="5.325"/><use xlink:href="#i" x="263.189" y="5.325"/><use xlink:href="#j" x="266.851" y="5.325"/><use xlink:href="#k" x="270.512" y="5.325"/><use xlink:href="#l" x="274.173" y="5.325"/><use xlink:href="#m" x="277.834" y="5.325"/><use xlink:href="#n" x="281.496" y="5.325"/><use xlink:href="#o" x="285.157" y="5.325"/></g><g style="fill:#000;fill-opacity:1"><use xlink:href="#q" x="292.479" y="5.325"/><use xlink:href="#s" x="296.141" y="5.325"/><use xlink:href="#i" x="299.802" y="5.325"/><use xlink:href="#n" x="303.463" y="5.325"/><use xlink:href="#r" x="307.125" y="5.325"/></g><path style="fill:none;stroke-width:.3985;stroke-linecap:butt;stroke-linejoin:miter;stroke:#000;stroke-opacity:1;stroke-miterlimit:10" d="m-102.336-1.41 2.817 2.82m-2.817 0 2.817-2.82" transform="matrix(1 0 0 -1 155.082 59.039)"/><g style="fill:#000;fill-opacity:1"><use xlink:href="#h" x="21.345" y="61.173"/><use xlink:href="#i" x="25.006" y="61.173"/><use xlink:href="#j" x="28.668" y="61.173"/><use xlink:href="#p" x="32.329" y="61.173"/><use xlink:href="#q" x="35.99" y="61.173"/><use xlink:href="#i" x="39.651" y="61.173"/><use xlink:href="#n" x="43.313" y="61.173"/><use xlink:href="#r" x="46.974" y="61.173"/></g><path style="fill:none;stroke-width:.3985;stroke-linecap:butt;stroke-linejoin:miter;stroke:#000;stroke-opacity:1;stroke-miterlimit:10" d="m-1.41-1.41 2.82 2.82m-2.82 0 2.82-2.82" transform="matrix(1 0 0 -1 155.082 59.039)"/><g style="fill:#000;fill-opacity:1"><use xlink:href="#h" x="136.775" y="54.962"/><use xlink:href="#i" x="140.436" y="54.962"/><use xlink:href="#j" x="144.098" y="54.962"/><use xlink:href="#t" x="147.759" y="54.962"/><use xlink:href="#q" x="151.42" y="54.962"/><use xlink:href="#k" x="155.081" y="54.962"/><use xlink:href="#n" x="158.743" y="54.962"/><use xlink:href="#q" x="162.404" y="54.962"/><use xlink:href="#m" x="166.065" y="54.962"/><use xlink:href="#r" x="169.726" y="54.962"/></g><path style="fill:none;stroke-width:.3985;stroke-linecap:butt;stroke-linejoin:miter;stroke:#000;stroke-opacity:1;stroke-miterlimit:10" d="m99.52-1.41 2.816 2.82m-2.816 0 2.816-2.82" transform="matrix(1 0 0 -1 155.082 59.039)"/><g style="fill:#000;fill-opacity:1"><use xlink:href="#h" x="259.528" y="61.173"/><use xlink:href="#i" x="263.189" y="61.173"/><use xlink:href="#j" x="266.851" y="61.173"/><use xlink:href="#q" x="270.512" y="61.173"/><use xlink:href="#s" x="274.173" y="61.173"/><use xlink:href="#i" x="277.834" y="61.173"/><use xlink:href="#n" x="281.496" y="61.173"/><use xlink:href="#r" x="285.157" y="61.173"/></g><path style="fill:none;stroke-width:.3985;stroke-linecap:butt;stroke-linejoin:miter;stroke:#000;stroke-opacity:1;stroke-miterlimit:10" d="m-102.336-27.516 2.817 2.82m-2.817 0 2.817-2.82" transform="matrix(1 0 0 -1 155.082 59.039)"/><g style="fill:#000;fill-opacity:1"><use xlink:href="#h" x="57.675" y="87.278"/><use xlink:href="#i" x="61.336" y="87.278"/><use xlink:href="#j" x="64.998" y="87.278"/><use xlink:href="#u" x="68.659" y="87.278"/><use xlink:href="#v" x="72.32" y="87.278"/><use xlink:href="#w" x="75.981" y="87.278"/></g><g style="fill:#000;fill-opacity:1"><use xlink:href="#p" x="83.304" y="87.278"/><use xlink:href="#q" x="86.965" y="87.278"/><use xlink:href="#i" x="90.626" y="87.278"/><use xlink:href="#n" x="94.288" y="87.278"/><use xlink:href="#r" x="97.949" y="87.278"/></g><path style="fill:none;stroke-width:.3985;stroke-linecap:butt;stroke-linejoin:miter;stroke:#000;stroke-opacity:1;stroke-miterlimit:10" d="m-1.41-27.516 2.82 2.82m-2.82 0 2.82-2.82" transform="matrix(1 0 0 -1 155.082 59.039)"/><g style="fill:#000;fill-opacity:1"><use xlink:href="#h" x="142.267" y="81.066"/><use xlink:href="#i" x="145.928" y="81.066"/><use xlink:href="#j" x="149.59" y="81.066"/><use xlink:href="#u" x="153.251" y="81.066"/><use xlink:href="#v" x="156.912" y="81.066"/><use xlink:href="#w" x="160.573" y="81.066"/><use xlink:href="#r" x="164.235" y="81.066"/></g><path style="fill:none;stroke-width:.3985;stroke-linecap:butt;stroke-linejoin:miter;stroke:#000;stroke-opacity:1;stroke-miterlimit:10" d="m99.52-27.516 2.816 2.82m-2.816 0 2.816-2.82" transform="matrix(1 0 0 -1 155.082 59.039)"/><g style="fill:#000;fill-opacity:1"><use xlink:href="#h" x="208.553" y="87.278"/><use xlink:href="#i" x="212.214" y="87.278"/><use xlink:href="#j" x="215.876" y="87.278"/><use xlink:href="#u" x="219.537" y="87.278"/><use xlink:href="#v" x="223.198" y="87.278"/><use xlink:href="#w" x="226.859" y="87.278"/></g><g style="fill:#000;fill-opacity:1"><use xlink:href="#q" x="234.182" y="87.278"/><use xlink:href="#s" x="237.843" y="87.278"/><use xlink:href="#i" x="241.504" y="87.278"/><use xlink:href="#n" x="245.166" y="87.278"/><use xlink:href="#r" x="248.827" y="87.278"/></g><path style="fill:none;stroke-width:.3985;stroke-linecap:butt;stroke-linejoin:miter;stroke:#000;stroke-opacity:1;stroke-miterlimit:10" d="m-102.336-29.727 2.817 2.82m-2.817 0 2.817-2.82" transform="matrix(1 0 0 -1 155.082 59.039)"/><g style="fill:#000;fill-opacity:1"><use xlink:href="#h" x="3.039" y="89.49"/><use xlink:href="#i" x="6.7" y="89.49"/><use xlink:href="#j" x="10.362" y="89.49"/><use xlink:href="#x" x="14.023" y="89.49"/><use xlink:href="#s" x="17.684" y="89.49"/><use xlink:href="#i" x="21.345" y="89.49"/><use xlink:href="#q" x="25.007" y="89.49"/></g><g style="fill:#000;fill-opacity:1"><use xlink:href="#p" x="32.329" y="89.49"/><use xlink:href="#q" x="35.99" y="89.49"/><use xlink:href="#i" x="39.652" y="89.49"/><use xlink:href="#n" x="43.313" y="89.49"/><use xlink:href="#r" x="46.974" y="89.49"/></g><path style="fill:none;stroke-width:.3985;stroke-linecap:butt;stroke-linejoin:miter;stroke:#000;stroke-opacity:1;stroke-miterlimit:10" d="m-1.41-29.727 2.82 2.82m-2.82 0 2.82-2.82" transform="matrix(1 0 0 -1 155.082 59.039)"/><g style="fill:#000;fill-opacity:1"><use xlink:href="#h" x="140.437" y="95.701"/><use xlink:href="#i" x="144.098" y="95.701"/><use xlink:href="#j" x="147.76" y="95.701"/><use xlink:href="#x" x="151.421" y="95.701"/><use xlink:href="#s" x="155.082" y="95.701"/><use xlink:href="#i" x="158.743" y="95.701"/><use xlink:href="#q" x="162.405" y="95.701"/><use xlink:href="#r" x="166.066" y="95.701"/></g><path style="fill:none;stroke-width:.3985;stroke-linecap:butt;stroke-linejoin:miter;stroke:#000;stroke-opacity:1;stroke-miterlimit:10" d="m99.52-29.727 2.816 2.82m-2.816 0 2.816-2.82" transform="matrix(1 0 0 -1 155.082 59.039)"/><g style="fill:#000;fill-opacity:1"><use xlink:href="#h" x="259.528" y="89.49"/><use xlink:href="#i" x="263.189" y="89.49"/><use xlink:href="#j" x="266.851" y="89.49"/><use xlink:href="#x" x="270.512" y="89.49"/><use xlink:href="#s" x="274.173" y="89.49"/><use xlink:href="#i" x="277.834" y="89.49"/><use xlink:href="#q" x="281.496" y="89.49"/></g><g style="fill:#000;fill-opacity:1"><use xlink:href="#q" x="288.818" y="89.49"/><use xlink:href="#s" x="292.479" y="89.49"/><use xlink:href="#i" x="296.141" y="89.49"/><use xlink:href="#n" x="299.802" y="89.49"/><use xlink:href="#r" x="303.463" y="89.49"/></g><path style="fill:none;stroke-width:.3985;stroke-linecap:butt;stroke-linejoin:miter;stroke:#000;stroke-opacity:1;stroke-miterlimit:10" d="m-102.336-51.047 2.817 2.82m-2.817 0 2.817-2.82" transform="matrix(1 0 0 -1 155.082 59.039)"/><g style="fill:#000;fill-opacity:1"><use xlink:href="#h" x="-.622" y="117.021"/><use xlink:href="#i" x="3.039" y="117.021"/><use xlink:href="#j" x="6.701" y="117.021"/><use xlink:href="#i" x="10.362" y="117.021"/><use xlink:href="#l" x="14.023" y="117.021"/><use xlink:href="#y" x="17.684" y="117.021"/><use xlink:href="#n" x="21.346" y="117.021"/><use xlink:href="#o" x="25.007" y="117.021"/></g><g style="fill:#000;fill-opacity:1"><use xlink:href="#p" x="32.322" y="117.021"/><use xlink:href="#q" x="35.984" y="117.021"/><use xlink:href="#i" x="39.645" y="117.021"/><use xlink:href="#n" x="43.306" y="117.021"/><use xlink:href="#r" x="46.968" y="117.021"/></g><path style="fill:none;stroke-width:.3985;stroke-linecap:butt;stroke-linejoin:miter;stroke:#000;stroke-opacity:1;stroke-miterlimit:10" d="m-1.41-51.047 2.82 2.82m-2.82 0 2.82-2.82" transform="matrix(1 0 0 -1 155.082 59.039)"/><g style="fill:#000;fill-opacity:1"><use xlink:href="#h" x="138.606" y="117.021"/><use xlink:href="#i" x="142.267" y="117.021"/><use xlink:href="#j" x="145.929" y="117.021"/><use xlink:href="#i" x="149.59" y="117.021"/><use xlink:href="#l" x="153.251" y="117.021"/><use xlink:href="#y" x="156.912" y="117.021"/><use xlink:href="#n" x="160.574" y="117.021"/><use xlink:href="#o" x="164.235" y="117.021"/><use xlink:href="#r" x="167.896" y="117.021"/></g><path style="fill:none;stroke-width:.3985;stroke-linecap:butt;stroke-linejoin:miter;stroke:#000;stroke-opacity:1;stroke-miterlimit:10" d="m99.52-51.047 2.816 2.82m-2.816 0 2.816-2.82" transform="matrix(1 0 0 -1 155.082 59.039)"/><g style="fill:#000;fill-opacity:1"><use xlink:href="#h" x="259.528" y="117.021"/><use xlink:href="#i" x="263.189" y="117.021"/><use xlink:href="#j" x="266.851" y="117.021"/><use xlink:href="#i" x="270.512" y="117.021"/><use xlink:href="#l" x="274.173" y="117.021"/><use xlink:href="#y" x="277.834" y="117.021"/><use xlink:href="#n" x="281.496" y="117.021"/><use xlink:href="#o" x="285.157" y="117.021"/></g><g style="fill:#000;fill-opacity:1"><use xlink:href="#q" x="292.479" y="117.021"/><use xlink:href="#s" x="296.141" y="117.021"/><use xlink:href="#i" x="299.802" y="117.021"/><use xlink:href="#n" x="303.463" y="117.021"/><use xlink:href="#r" x="307.125" y="117.021"/></g><path style="fill:none;stroke-width:.3985;stroke-linecap:butt;stroke-linejoin:miter;stroke:#000;stroke-opacity:1;stroke-miterlimit:10" d="m-24.383-29.727 2.817 2.82m-2.817 0 2.817-2.82" transform="matrix(1 0 0 -1 155.082 59.039)"/><g style="fill:#000;fill-opacity:1"><use xlink:href="#h" x="99.298" y="89.49"/><use xlink:href="#i" x="102.959" y="89.49"/><use xlink:href="#j" x="106.621" y="89.49"/><use xlink:href="#n" x="110.282" y="89.49"/><use xlink:href="#q" x="113.943" y="89.49"/><use xlink:href="#z" x="117.604" y="89.49"/><use xlink:href="#n" x="121.266" y="89.49"/><use xlink:href="#r" x="124.927" y="89.49"/></g><path style="fill:none;stroke-width:.3985;stroke-linecap:butt;stroke-linejoin:miter;stroke:#000;stroke-opacity:1;stroke-miterlimit:10" d="m99.52 16.387 2.816 2.82m-2.816 0 2.816-2.82" transform="matrix(1 0 0 -1 155.082 59.039)"/><g style="fill:#000;fill-opacity:1"><use xlink:href="#h" x="259.528" y="43.377"/><use xlink:href="#i" x="263.189" y="43.377"/><use xlink:href="#j" x="266.851" y="43.377"/><use xlink:href="#A" x="270.512" y="43.377"/><use xlink:href="#B" x="274.173" y="43.377"/><use xlink:href="#r" x="277.834" y="43.377"/></g><path style="fill:none;stroke-width:.3985;stroke-linecap:butt;stroke-linejoin:miter;stroke:#000;stroke-opacity:1;stroke-miterlimit:10" d="m-43.062 48.227 2.82 2.82m-2.82 0 2.82-2.82" transform="matrix(1 0 0 -1 155.082 59.039)"/><g style="fill:#000;fill-opacity:1"><use xlink:href="#h" x="100.615" y="5.325"/><use xlink:href="#i" x="104.276" y="5.325"/><use xlink:href="#j" x="107.938" y="5.325"/><use xlink:href="#A" x="111.599" y="5.325"/><use xlink:href="#C" x="115.26" y="5.325"/><use xlink:href="#B" x="118.921" y="5.325"/><use xlink:href="#r" x="122.583" y="5.325"/></g></svg>