<svg xmlns="http://www.w3.org/2000/svg" xmlns:xlink="http://www.w3.org/1999/xlink" width="593.115" height="285.579" viewBox="0 0 444.836 214.184" version="1.2"><defs><symbol overflow="visible" id="a"><path style="stroke:none" d="M1.781-1.14C1.391-.485 1-.345.563-.314c-.125.016-.22.016-.22.204 0 .062.063.109.141.109.266 0 .579-.031.844-.031.344 0 .688.031 1 .031.063 0 .188 0 .188-.188 0-.109-.079-.124-.157-.124-.218-.016-.468-.094-.468-.344 0-.125.062-.235.14-.375l.766-1.266h2.5c.016.203.156 1.563.156 1.656 0 .297-.516.329-.719.329-.14 0-.234 0-.234.203C4.5 0 4.61 0 4.64 0c.407 0 .829-.031 1.235-.031.25 0 .89.031 1.14.031.048 0 .173 0 .173-.203 0-.11-.094-.11-.235-.11-.61 0-.61-.062-.64-.359l-.61-6.219c-.016-.203-.016-.25-.187-.25-.157 0-.204.079-.266.172Zm1.203-1.47 1.954-3.296.328 3.297Zm0 0"/></symbol><symbol overflow="visible" id="b"><path style="stroke:none" d="M1.594-.781c-.094.39-.125.469-.907.469-.171 0-.265 0-.265.203C.422 0 .516 0 .688 0H4.25C5.828 0 7-1.172 7-2.156c0-.719-.578-1.297-1.547-1.406 1.031-.188 2.078-.922 2.078-1.876 0-.734-.656-1.375-1.843-1.375h-3.36c-.187 0-.281 0-.281.204 0 .109.094.109.281.109.016 0 .203 0 .375.016.172.03.266.03.266.171 0 .032-.016.063-.031.188Zm1.5-2.875.625-2.469c.094-.344.11-.375.531-.375h1.297c.875 0 1.078.594 1.078 1.031 0 .875-.86 1.813-2.063 1.813ZM2.656-.312h-.219c-.109-.016-.14-.032-.14-.11 0-.031 0-.047.062-.219l.688-2.78h1.875c.953 0 1.156.733 1.156 1.155 0 .985-.89 1.954-2.078 1.954Zm0 0"/></symbol><symbol overflow="visible" id="c"><path style="stroke:none" d="M1.578-.781c-.094.39-.11.469-.906.469-.156 0-.266 0-.266.187C.406 0 .484 0 .672 0h3.312c2.063 0 4.032-2.11 4.032-4.281 0-1.407-.844-2.532-2.344-2.532H2.328c-.187 0-.297 0-.297.188 0 .125.078.125.281.125.126 0 .313.016.422.016.172.03.22.046.22.171 0 .032 0 .063-.032.188Zm2.156-5.344c.094-.344.11-.375.547-.375h1.063c.968 0 1.797.531 1.797 1.844 0 .484-.188 2.125-1.047 3.218A2.919 2.919 0 0 1 3.797-.313H2.453c-.094-.015-.125-.03-.125-.109 0-.031 0-.047.047-.219Zm0 0"/></symbol><symbol overflow="visible" id="d"><path style="stroke:none" d="M7.063-2.328c.015-.047.046-.11.046-.14 0 0 0-.11-.125-.11-.093 0-.109.062-.125.125-.656 1.469-1.015 2.14-2.718 2.14H2.469c-.11-.015-.14-.03-.14-.109 0-.031 0-.047.046-.219l.688-2.734h.984c.844 0 .844.219.844.469 0 .062 0 .187-.063.484-.016.047-.031.078-.031.11 0 .046.031.109.125.109.078 0 .11-.047.156-.203l.563-2.328c0-.063-.047-.11-.125-.11-.079 0-.11.063-.125.172-.22.766-.391 1-1.313 1h-.937l.593-2.406c.094-.36.11-.39.547-.39h1.407c1.203 0 1.515.28 1.515 1.109 0 .234 0 .25-.047.53 0 .048-.015.126-.015.173 0 .047.03.125.125.125.109 0 .125-.063.14-.25l.203-1.735c.032-.265-.015-.265-.265-.265H2.297c-.188 0-.297 0-.297.203 0 .11.094.11.281.11.375 0 .656 0 .656.171 0 .047 0 .063-.062.25L1.562-.78c-.093.39-.109.469-.906.469-.172 0-.281 0-.281.187C.375 0 .469 0 .656 0h5.172c.234 0 .25-.016.313-.172Zm0 0"/></symbol><symbol overflow="visible" id="e"><path style="stroke:none" d="M7.578-6.922c0-.031-.016-.11-.11-.11-.03 0-.046.016-.155.126l-.688.765c-.094-.14-.547-.89-1.656-.89C2.734-7.031.5-4.828.5-2.516.5-.875 1.672.22 3.203.22c.86 0 1.625-.39 2.156-.86.922-.812 1.094-1.718 1.094-1.75 0-.109-.11-.109-.125-.109-.062 0-.11.031-.125.11-.094.28-.328 1-1.016 1.578-.687.546-1.312.718-1.828.718-.89 0-1.953-.515-1.953-2.062 0-.578.203-2.188 1.203-3.36.61-.703 1.547-1.203 2.438-1.203 1.016 0 1.61.766 1.61 1.922 0 .406-.032.406-.032.516 0 .093.11.093.14.093.126 0 .126-.015.188-.203Zm0 0"/></symbol><symbol overflow="visible" id="f"><path style="stroke:none" d="M6.64-4.39c0-.985-.906-1.766-2.437-1.766H.375v.437h.969v5.282H.375V0c.313-.031 1.25-.031 1.61-.031.374 0 1.312 0 1.624.031v-.438h-.968v-2.25h1.656c1.281 0 2.344-.656 2.344-1.703Zm-1.406 0c0 .624 0 1.312-1.375 1.312H2.594v-2.64h1.265c1.375 0 1.375.687 1.375 1.327Zm0 0"/></symbol><symbol overflow="visible" id="g"><path style="stroke:none" d="M4.078-3.281c0-.453-.469-.75-1-.75-.625 0-1 .453-1.203.968h-.016v-.968L.375-3.97v.438c.531 0 .61 0 .61.36v2.733h-.61V0l1.14-.031c.22 0 .75 0 1.22.031v-.438h-.766v-1.515c0-.656.25-1.703 1.11-1.719a.571.571 0 0 0-.142.39c0 .391.313.579.563.579.297 0 .578-.203.578-.578Zm0 0"/></symbol><symbol overflow="visible" id="h"><path style="stroke:none" d="M5-1.953c0-1.172-.828-2.11-2.344-2.11-1.578 0-2.36.985-2.36 2.11 0 1.11.813 2 2.345 2C4.25.047 5-.891 5-1.953Zm-1.188-.094c0 .766 0 1.719-1.156 1.719-1.172 0-1.172-.953-1.172-1.719 0-.765 0-1.656 1.157-1.656 1.171 0 1.171.89 1.171 1.656Zm0 0"/></symbol><symbol overflow="visible" id="i"><path style="stroke:none" d="M5.531-1.984c0-1.188-.812-2.047-2.172-2.047-.718 0-1.218.297-1.39.422v-.422L.375-3.97v.438c.172 0 .313 0 .438.031.171.031.171.125.171.313v4.484H.375v.437L1.5 1.72l1.14.015v-.437h-.609v-1.64c.531.39 1.016.39 1.188.39 1.406 0 2.312-.844 2.312-2.031ZM4.344-2c0 1.25-.64 1.688-1.235 1.688-.453 0-.843-.25-1.078-.625v-2.157a1.548 1.548 0 0 1 1.188-.562c.625 0 1.125.562 1.125 1.656Zm0 0"/></symbol><symbol overflow="visible" id="j"><path style="stroke:none" d="M3.828-1.25c0-.469-.265-.75-.422-.89-.406-.329-.687-.376-1.39-.5-.438-.063-1-.157-1-.563 0-.531.828-.531 1.03-.531 1 0 1.032.53 1.063.765 0 .125.125.125.22.125.218 0 .233-.047.233-.265v-.688c0-.172 0-.265-.187-.265-.078 0-.234.078-.39.156-.282-.125-.641-.156-.938-.156-.266 0-1.703 0-1.703 1.187 0 .938 1.187 1.14 1.5 1.188.734.125 1.328.218 1.328.734 0 .64-.844.64-1.047.64-.453 0-1.047-.109-1.297-.937-.047-.156-.062-.172-.25-.172-.234 0-.234.047-.234.266v.953c0 .156 0 .25.187.25.063 0 .078 0 .281-.125l.235-.14c.422.265.906.265 1.078.265.266 0 1.703 0 1.703-1.297Zm0 0"/></symbol><symbol overflow="visible" id="k"><path style="stroke:none" d="M2.625 0v-.438h-.547V-4.03L.5-3.97v.438c.516 0 .578 0 .578.36v2.733h-.61V0c.595-.016.72-.031 1.095-.031.437 0 .546.015 1.062.031Zm-.453-5.422a.713.713 0 0 0-.703-.719.71.71 0 0 0-.703.704.7.7 0 0 0 .703.703.697.697 0 0 0 .703-.688Zm0 0"/></symbol><symbol overflow="visible" id="l"><path style="stroke:none" d="M3.531-1.11v-.468h-.469v.453c0 .625-.312.797-.546.797C2-.328 2-.875 2-1.078v-2.469h1.36v-.437H2v-1.704h-.453c-.016.829-.438 1.766-1.344 1.782v.36h.75v2.437c0 1.03.89 1.156 1.438 1.156.703 0 1.14-.5 1.14-1.156Zm0 0"/></symbol><symbol overflow="visible" id="m"><path style="stroke:none" d="M5.656 0v-.438h-.61v-2.296c0-1.063-.655-1.297-1.437-1.297-1.093 0-1.53.797-1.593.937H2v-.937L.453-3.97v.438c.531 0 .61 0 .61.36v2.733h-.61V0l1.125-.031L2.718 0v-.438H2.11V-2.28c0-1 .829-1.39 1.36-1.39.344 0 .515.187.515.858v2.376h-.609V0l1.14-.031Zm0 0"/></symbol><symbol overflow="visible" id="n"><path style="stroke:none" d="M3.656 0v-.438H2.641v-5.28h1.015v-.438c-.312.031-1.281.031-1.656.031s-1.36 0-1.672-.031v.437h1.016v5.282H.328V0C.641-.031 1.61-.031 1.984-.031c.391 0 1.36 0 1.672.031Zm0 0"/></symbol><symbol overflow="visible" id="G"><path style="stroke:none" d="M5.922-2.469h-.453c-.063.61-.219 2.031-1.86 2.031h-.968v-5.28h1.218v-.438c-.375.031-1.39.031-1.812.031-.375 0-1.36 0-1.672-.031v.437h.969v5.282H.375V0h5.281Zm0 0"/></symbol><symbol overflow="visible" id="H"><path style="stroke:none" d="M4.563-1.047c0-.172-.172-.172-.235-.172-.156 0-.172.047-.234.172-.203.469-.75.719-1.313.719-1.281 0-1.297-1.156-1.297-1.594h2.782c.187 0 .296 0 .296-.25 0-.203-.015-1-.593-1.484-.406-.328-.953-.406-1.39-.406-1.532 0-2.282.968-2.282 2.046 0 1.172.89 2.063 2.406 2.063 1.485 0 1.86-.938 1.86-1.094ZM3.688-2.25H1.483c.016-.406.063-1.453 1.094-1.453 1.047 0 1.094 1.094 1.11 1.453Zm0 0"/></symbol><symbol overflow="visible" id="K"><path style="stroke:none" d="M5.531-1.984c0-1.22-.875-2.047-2.187-2.047-.719 0-1.203.297-1.375.422v-2.61l-1.594.063v.437c.531 0 .61 0 .61.36V0h.453l.421-.516c.282.297.72.563 1.36.563 1.406 0 2.312-.844 2.312-2.031Zm-1.187-.032c0 .391 0 .844-.188 1.172-.297.5-.843.531-1.031.531-.547 0-.906-.328-1.094-.625v-2.171a1.553 1.553 0 0 1 1.203-.563c1.11 0 1.11 1.078 1.11 1.656Zm0 0"/></symbol><symbol overflow="visible" id="L"><path style="stroke:none" d="M5.656 0v-.438h-.61v-2.296c0-1.063-.655-1.297-1.437-1.297-.843 0-1.328.484-1.562.843v-3.03l-1.594.062v.437c.531 0 .61 0 .61.36v4.921h-.61V0l1.125-.031L2.718 0v-.438H2.11V-2.28c0-1 .829-1.39 1.36-1.39.344 0 .515.187.515.858v2.376h-.609V0l1.14-.031Zm0 0"/></symbol><symbol overflow="visible" id="M"><path style="stroke:none" d="M5.156-3.547c0-.234-.172-.547-.593-.547-.438 0-.813.219-.985.344-.375-.219-.781-.281-1.219-.281-1.375 0-1.843.734-1.843 1.328 0 .484.312.812.468.937a1.249 1.249 0 0 0-.296.782c0 .39.187.703.375.875C.39.078.296.453.296.656c0 .531.625 1.14 2.344 1.14C4.219 1.797 5 1.313 5 .626c0-.313-.11-.86-.734-1.156C3.75-.766 3.28-.766 2.39-.766h-.454c-.28 0-.406 0-.562-.109a.563.563 0 0 1-.203-.453c0-.172.062-.281.062-.281.329.171.735.234 1.125.234 1.375 0 1.844-.734 1.844-1.328 0-.36-.172-.656-.36-.844.235-.125.423-.14.532-.172 0 .047-.031.094-.031.188a.407.407 0 1 0 .813-.016Zm-1.984.844c0 .39 0 .969-.813.969-.812 0-.812-.579-.812-.97 0-.405 0-.968.812-.968.813 0 .813.563.813.969ZM4.203.657c0 .296-.328.78-1.547.78C1.47 1.438 1.094 1 1.094.641c0-.516.578-.516.703-.516H2.89c.28 0 1.312 0 1.312.531Zm0 0"/></symbol><symbol overflow="visible" id="N"><path style="stroke:none" d="M5.344-3.547v-.437c-.25.03-.469.03-.719.03-.266 0-.547 0-.813-.03v.437c.25 0 .329.047.407.078 0 .047 0 .063-.047.125L3.094-1.109 1.922-3.547h.469v-.437l-1.11.03c-.328 0-.5 0-1.031-.03v.437h.563L2.421-.203c.078.172.156.25.375.25s.297-.078.375-.25L4.687-3.36c.063-.125.094-.188.657-.188Zm0 0"/></symbol><symbol overflow="visible" id="O"><path style="stroke:none" d="M5.516 0v-.438h-.61v-3.64l-1.61.047v.047H1.923v-.86c0-.781.703-1.078 1.453-1.078.11 0 .39 0 .64.14a.623.623 0 0 0-.359.579c0 .344.25.594.61.594.328 0 .593-.235.593-.61 0-.468-.39-1.062-1.406-1.062-1.172 0-2.469.36-2.469 1.422v.875H.281v.437h.703v3.11H.375V0l1.094-.031L2.579 0v-.438h-.61v-3.109h1.687c.203 0 .25 0 .25.313v2.796h-.61V0l1.11-.031Zm0 0"/></symbol><symbol overflow="visible" id="P"><path style="stroke:none" d="M5.11-.219c0-.218-.157-.218-.235-.218-.578-.016-.578-.094-.578-.313v-1.922c0-.797-.64-1.39-2.031-1.39-.5 0-1.657.015-1.657.843 0 .406.313.594.579.594.312 0 .593-.219.593-.578 0-.266-.156-.422-.187-.453.093-.016.312-.047.64-.047.641 0 1.016.328 1.016 1.031v.281C1.766-2.39.25-2 .25-1 .25-.11 1.375.047 2.016.047c.687 0 1.156-.281 1.39-.703 0 .219 0 .656.969.656h.438c.171 0 .296 0 .296-.219ZM3.25-1.25c0 .938-1.047.938-1.078.938-.453 0-.828-.282-.828-.688 0-.297.156-1 1.906-1.078Zm0 0"/></symbol><symbol overflow="visible" id="Q"><path style="stroke:none" d="M2.688 0v-.438h-.61v-5.78l-1.61.062v.437c.532 0 .61 0 .61.36v4.921h-.61V0l1.095-.031Zm0 0"/></symbol><symbol overflow="visible" id="R"><path style="stroke:none" d="M2.172-.703a.704.704 0 0 0-1.406 0A.71.71 0 0 0 1.469 0a.69.69 0 0 0 .703-.703Zm0 0"/></symbol><symbol overflow="visible" id="S"><path style="stroke:none" d="M5.531 1.734v-.437h-.61v-5.328h-.405l-.47.687c-.359-.437-.796-.687-1.39-.687-1.406 0-2.312.843-2.312 2.047 0 1.187.86 2.03 2.219 2.03.484 0 .937-.155 1.296-.483v1.734H3.25v.437l1.14-.015Zm-1.61-3.062c0 .172 0 .187-.108.344-.329.5-.766.671-1.157.671-.594 0-1.11-.53-1.11-1.671 0-.282.016-.766.282-1.157a1.16 1.16 0 0 1 .938-.515c.718 0 1.156.719 1.156 1.156Zm0 0"/></symbol><symbol overflow="visible" id="T"><path style="stroke:none" d="M5.656 0v-.438c-.547 0-.61 0-.61-.359V-4.03l-1.671.062v.438c.547 0 .61 0 .61.36v1.702c0 .719-.454 1.157-1.157 1.157-.687 0-.719-.188-.719-.672v-3.047L.453-3.97v.438c.531 0 .61 0 .61.36v2.062c0 .984.765 1.156 1.64 1.156.281 0 .89 0 1.344-.672v.672Zm0 0"/></symbol><symbol overflow="visible" id="U"><path style="stroke:none" d="M5.516 0v-.438c-.532 0-.61 0-.61-.359v-5.422l-1.61.063v.437c.548 0 .61 0 .61.36v1.734a1.994 1.994 0 0 0-1.25-.406c-1.453 0-2.312.89-2.312 2.047 0 1.187.844 2.03 2.219 2.03.562 0 1-.202 1.296-.437v.438ZM3.859-.984a1.427 1.427 0 0 1-1.203.671c-1.11 0-1.11-1.062-1.11-1.656 0-.531 0-.906.235-1.234.235-.36.672-.469.985-.469.437 0 .812.188 1.093.547Zm0 0"/></symbol><symbol overflow="visible" id="V"><path style="stroke:none" d="M4.406-1.047c0-.14-.125-.14-.234-.14-.172 0-.172.015-.25.171-.172.438-.578.688-1.11.688-1.265 0-1.265-1.297-1.265-1.703 0-.531 0-1.64 1.172-1.64.078 0 .562 0 .562.046l-.031.047a.602.602 0 0 0-.125.375c0 .36.281.578.594.578a.569.569 0 0 0 .578-.594c0-.844-1.25-.844-1.61-.844C.97-4.063.345-2.968.345-1.983c0 1.125.812 2.03 2.297 2.03.343 0 .78-.046 1.156-.28.515-.313.61-.782.61-.813Zm0 0"/></symbol><symbol overflow="visible" id="W"><path style="stroke:none" d="M7.531-3.031c0-1.906-1.312-3.125-3.203-3.125H.375v.437h.969v5.282H.375V0h3.969C6.125 0 7.53-1.078 7.53-3.031Zm-1.36 0c0 .875 0 2.594-2.202 2.594H2.594V-5.72h1.36c.702 0 1.374.235 1.765.719.39.5.453 1.14.453 1.969Zm0 0"/></symbol><symbol overflow="visible" id="Z"><path style="stroke:none" d="M7.422-3.547v-.437c-.25.03-.469.03-.719.03-.281 0-.562-.015-.844-.03v.437c.11 0 .313 0 .5.078-.015.078-.015.094-.046.156l-.954 2.266-1.03-2.5h.484v-.437l-1.016.03c-.078 0-.516 0-.906-.03v.437h.515c.125.266.125.281.172.422L2.797-1.25l-.953-2.297h.484v-.437l-1.094.03c-.218 0-.546 0-1-.03v.437H.75l1.406 3.36c.094.234.235.234.344.234.25 0 .297-.094.36-.25l.968-2.328.985 2.344c.093.234.234.234.343.234.11 0 .25 0 .344-.234l1.328-3.157c.063-.14.078-.203.594-.203Zm0 0"/></symbol><symbol overflow="visible" id="aa"><path style="stroke:none" d="M7.61 0v-.438h-.86L4.39-6.03c-.093-.25-.234-.25-.39-.25s-.297 0-.39.25L1.343-.641C1.28-.5 1.28-.5 1.047-.469a5.055 5.055 0 0 1-.469.031H.391V0C.89-.016 1-.031 1.484-.031c.344 0 .625 0 1.188.031v-.438c-.235 0-.547 0-.797-.093l.5-1.188h2.484l.532 1.282h-.844V0c.312-.031 1.219-.031 1.594-.031s1.14 0 1.468.031ZM4.655-2.156H2.563l1.046-2.516Zm0 0"/></symbol><symbol overflow="visible" id="ac"><path style="stroke:none" d="M4.86-5.719v-.437c-.376.031-1.079.031-1.47.031-.406 0-1.421 0-1.765-.031v.437h1.25v4.375c0 .75-.36 1.094-.906 1.094-.188 0-.485-.031-.735-.14a.683.683 0 0 0 .391-.626c0-.453-.328-.718-.703-.718-.375 0-.719.25-.719.718C.203-.344.891.11 2 .11c1.281 0 2.125-.546 2.125-1.453v-4.375Zm0 0"/></symbol><symbol overflow="visible" id="ad"><path style="stroke:none" d="M4.047-5.484c0-.407-.36-.797-1.047-.797-.953 0-1.922.406-1.922 1.406v.89H.391v.438h.687v3.11h-.61V0l1.157-.031c.219 0 .75 0 1.219.031v-.438h-.766v-3.109h1.063v-.437H2.03v-.891c0-.969.688-1.047.922-1.047.031 0 .11.016.11.016s0 .015-.016.047a.56.56 0 0 0-.14.375c0 .375.296.578.562.578a.567.567 0 0 0 .578-.578Zm0 0"/></symbol><symbol overflow="visible" id="ae"><path style="stroke:none" d="M8.594 0v-.438h-.61v-2.296c0-1.063-.625-1.297-1.421-1.297-.938 0-1.391.562-1.563.843C4.812-4 4.016-4.03 3.625-4.03c-1.11 0-1.547.797-1.61.937H2v-.937L.453-3.97v.438c.531 0 .61 0 .61.36v2.733h-.61V0l1.125-.031L2.718 0v-.438H2.11V-2.28c0-1 .829-1.39 1.36-1.39.344 0 .531.171.531.858v2.376h-.61V0l1.126-.031L5.656 0v-.438h-.61V-2.28c0-1 .829-1.39 1.36-1.39.344 0 .532.171.532.858v2.376h-.61V0l1.14-.031Zm0 0"/></symbol><symbol overflow="visible" id="af"><path style="stroke:none" d="M7.906-5.719v-.437c-.593.031-.843.031-1.218.031-.407 0-.641 0-1.235-.031v.437h.234c.235 0 .266 0 .47.032.25.03.265.03.265.234v3.61L2.75-6.032c-.094-.125-.11-.125-.297-.125H.375v.437h.969v5.016c0 .203 0 .203-.266.234C.875-.438.86-.438.61-.438H.375V0c.578-.031.828-.031 1.219-.031.39 0 .64 0 1.234.031v-.438h-.234c-.25 0-.266 0-.485-.03C1.86-.5 1.86-.5 1.86-.704v-4.61L6.406-.109c.11.109.14.109.266.109.266 0 .266-.094.266-.297v-5.156c0-.203 0-.203.25-.234.218-.032.234-.032.484-.032Zm0 0"/></symbol><symbol overflow="visible" id="ag"><path style="stroke:none" d="M2.297-.281c0-.61-.313-1.125-.828-1.125-.453 0-.703.343-.703.703 0 .36.25.703.718.703a.698.698 0 0 0 .438-.156c-.031.719-.39 1.218-.813 1.562-.046.032-.093.063-.093.14 0 .079.109.188.187.188.14 0 1.094-.765 1.094-2.015Zm0 0"/></symbol><symbol overflow="visible" id="ah"><path style="stroke:none" d="M2.938-1.547v-.89H.108v.89Zm0 0"/></symbol><symbol overflow="visible" id="ai"><path style="stroke:none" d="M6.938-1.672c0-.781-.657-1.406-1.86-1.547 1-.172 1.563-.734 1.563-1.39 0-.829-.797-1.547-2.282-1.547H.375v.437h.969v5.282H.375V0h4.266c1.53 0 2.296-.797 2.296-1.672ZM5.343-4.609c0 .656-.438 1.234-1.328 1.234H2.53v-2.344H4.25c1.063 0 1.094.922 1.094 1.11Zm.25 2.921c0 .625-.36 1.25-1.328 1.25H2.53v-2.578h1.813c.156 0 .625 0 .937.36.25.312.313.687.313.969Zm0 0"/></symbol><symbol overflow="visible" id="aj"><path style="stroke:none" d="m6.984-3.86-.187-2.187H.578L.391-3.859h.453c.094-1 .172-1.75 1.484-1.75h.719v5.171H1.672V0c.39-.031 1.562-.031 2.016-.031.468 0 1.624 0 2.03.031v-.438H4.345v-5.171h.703c1.328 0 1.39.765 1.484 1.75Zm0 0"/></symbol><symbol overflow="visible" id="o"><path style="stroke:none" d="m7.547-4.125.25-1.625c.031-.094.031-.14.031-.14 0-.157-.156-.157-.297-.157H2.547c-.203 0-.235 0-.297.156l-.453 1.297c-.063.188-.172.485-.172.547 0 .156.172.156.266.156.171 0 .203-.015.265-.187.422-1.219.672-1.547 1.828-1.547h.375L3.08-.469c-.032.016-.298.047-.735.047h-.406c-.157 0-.313 0-.313.266 0 .156.172.156.219.156l1.718-.031L5.345 0c.125 0 .265 0 .265-.266 0-.156-.14-.156-.28-.156h-.391c-.188 0-.47-.016-.641-.031l1.25-5.031c.047-.141.047-.141.187-.141h.313c.875 0 1.078.156 1.078.719 0 .281-.063.625-.078.718-.016.094-.016.125-.016.125 0 .172.157.172.25.172.157 0 .235 0 .266-.234Zm0 0"/></symbol><symbol overflow="visible" id="p"><path style="stroke:none" d="M5.344-2.547c0-.922-.64-1.5-1.719-1.5-1.766 0-2.672 1.484-2.672 2.61 0 .921.64 1.515 1.703 1.515 1.781 0 2.688-1.5 2.688-2.625ZM3.906-1.109c-.265.562-.765.859-1.219.859-.312 0-.75-.156-.75-.797 0-.344.235-1.344.454-1.828.265-.563.765-.86 1.218-.86.313 0 .75.157.75.797 0 .344-.234 1.344-.453 1.829Zm0 0"/></symbol><symbol overflow="visible" id="q"><path style="stroke:none" d="M4.813-.766c0-.078-.188-.296-.282-.296-.015 0-.062 0-.125.062-.656.75-1.562.75-1.703.75-.484 0-.765-.281-.765-.797 0-.344.25-1.437.5-1.906.343-.64.906-.781 1.171-.781.094 0 .344.015.5.187a.686.686 0 0 0-.453.61c0 .124.078.406.453.406s.641-.313.641-.703c0-.438-.39-.813-1.14-.813-1.704 0-2.657 1.453-2.657 2.61 0 .734.422 1.515 1.75 1.515.235 0 .781-.031 1.266-.203.484-.188.844-.531.844-.64Zm0 0"/></symbol><symbol overflow="visible" id="r"><path style="stroke:none" d="M6.14-1.328c0-.125-.124-.125-.25-.125-.171 0-.218 0-.265.11-.063.234-.313 1.093-.813 1.093-.046 0-.125 0-.125-.156 0-.188.079-.422.204-.735.125-.328.53-1.39.53-1.906 0-.734-.53-1-1.25-1-.187 0-.765 0-1.359.61-.187-.516-.718-.61-1.015-.61-.422 0-.64.297-.75.484-.234.376-.36.876-.36.907 0 .125.125.125.25.125.22 0 .235 0 .297-.235.063-.296.235-.968.532-.968.109 0 .171.078.171.28 0 .173-.015.25-.046.392L1.25-.517c-.047.141-.047.157-.047.204 0 .28.219.39.406.39a.593.593 0 0 0 .563-.484l.562-2.235c.063-.25.563-1.093 1.375-1.093.391 0 .391.343.391.515 0 .531-.406 1.64-.578 2.047-.078.219-.094.313-.094.453 0 .5.453.797.938.797.921 0 1.375-1.219 1.375-1.406Zm0 0"/></symbol><symbol overflow="visible" id="s"><path style="stroke:none" d="M4.172-1.469c0-.203-.063-.5-.39-.765-.266-.204-.485-.25-.97-.344-.265-.047-.64-.125-.64-.453 0 0 0-.703.953-.703.094 0 .422 0 .625.218-.344.157-.344.47-.344.5 0 .22.172.375.39.375.235 0 .563-.187.563-.625 0-.5-.5-.78-1.218-.78-.688 0-1 .234-1.172.374-.297.25-.469.719-.469 1 0 .766.766.906 1.047.969.469.094.937.172.937.594 0 0 0 .859-1.234.859-.125 0-.547 0-.844-.25.063-.016.438-.188.438-.61 0-.327-.282-.406-.438-.406-.328 0-.64.266-.64.704 0 .562.578.89 1.453.89.25 0 .828-.015 1.312-.36.453-.327.64-.89.64-1.187Zm0 0"/></symbol><symbol overflow="visible" id="t"><path style="stroke:none" d="M3.766-1.328c0-.125-.125-.125-.266-.125-.188 0-.203.016-.266.156C2.86-.407 2.406-.25 2.172-.25c-.078 0-.188-.016-.188-.281 0-.172.032-.235.063-.39l.656-2.641h.719c.156 0 .312 0 .312-.266 0-.156-.156-.156-.28-.156h-.642l.172-.704c.063-.234.157-.625.157-.703 0-.203-.141-.375-.391-.375a.582.582 0 0 0-.578.47l-.313 1.312h-.734c-.156 0-.313 0-.313.265 0 .156.157.156.297.156h.641l-.625 2.5c-.047.141-.047.204-.047.266 0 .563.516.875 1.063.875 1.03 0 1.625-1.25 1.625-1.406Zm0 0"/></symbol><symbol overflow="visible" id="u"><path style="stroke:none" d="M5.047-3.25c0-.484-.484-.797-1.14-.797-.345 0-.766.094-1.157.484-.156-.28-.5-.484-.953-.484-.422 0-.64.297-.75.484-.234.376-.36.876-.36.907 0 .125.125.125.25.125.22 0 .235 0 .297-.235.063-.296.235-.968.532-.968.109 0 .171.078.171.28 0 .173-.015.25-.046.392L1.25-.517c-.047.141-.047.157-.047.204 0 .28.219.39.406.39a.593.593 0 0 0 .563-.484l.625-2.453c.047-.204.453-.875 1.078-.875.094 0 .313.015.5.156-.422.187-.422.562-.422.594 0 .234.156.421.438.421.343 0 .656-.296.656-.687Zm0 0"/></symbol><symbol overflow="visible" id="v"><path style="stroke:none" d="M5.875-1.328c0-.125-.11-.125-.25-.125-.219 0-.219.016-.281.234-.078.297-.235.969-.547.969-.11 0-.172-.078-.172-.281 0-.172.016-.235.063-.39l.609-2.485c.047-.125.047-.14.047-.188 0-.281-.219-.39-.407-.39-.125 0-.468.062-.578.5l-.625 2.53c-.03.157-.046.188-.296.438a.888.888 0 0 1-.61.266c-.453 0-.469-.422-.469-.625 0-.531.297-1.328.516-1.89C2.953-3 3-3.11 3-3.25c0-.516-.453-.797-.938-.797-.937 0-1.374 1.203-1.374 1.39 0 .126.125.126.25.126.171 0 .218 0 .25-.11.078-.234.312-1.093.828-1.093.046 0 .125 0 .125.171 0 .188-.11.454-.157.579-.296.78-.546 1.421-.546 1.921 0 .829.593 1.141 1.328 1.141.25 0 .64-.047 1.078-.469.172.313.562.47.922.47.421 0 .64-.313.765-.485.235-.39.344-.89.344-.922Zm0 0"/></symbol><symbol overflow="visible" id="w"><path style="stroke:none" d="M5.516-1.328c0-.125-.11-.125-.25-.125-.22 0-.22.016-.282.234-.078.297-.234.969-.546.969-.11 0-.172-.078-.172-.281 0-.172.015-.235.062-.39l.594-2.423c.031-.125.031-.14.031-.187 0-.203-.14-.375-.39-.375a.62.62 0 0 0-.422.187c-.297-.297-.641-.328-.875-.328-1.5 0-2.407 1.484-2.407 2.688C.86-.297 1.61.078 2.297.078c.547 0 .969-.297 1.187-.469.172.313.563.47.922.47.422 0 .64-.313.766-.485.234-.39.344-.89.344-.922Zm-2.141.437c-.39.5-.766.641-1.047.641-.203 0-.5-.125-.5-.64 0-.485.313-1.579.406-1.829.297-.875.797-1.015 1.032-1.015.312 0 .562.203.656.562l-.516 2.11c-.031.062-.031.093-.031.171Zm0 0"/></symbol><symbol overflow="visible" id="x"><path style="stroke:none" d="M4.813-.766c0-.078-.188-.296-.282-.296-.015 0-.062 0-.125.062-.656.75-1.562.75-1.687.75-.5 0-.766-.297-.766-.828 0-.219.063-.578.14-.875h.36c.547 0 2.313 0 2.313-1.234 0-.547-.5-.86-1.157-.86C2.047-4.047.984-2.875.984-1.5c0 .969.61 1.578 1.72 1.578.28 0 .812-.031 1.265-.203.484-.188.844-.531.844-.64Zm-.625-2.437c0 .922-1.47.922-2.016.922.14-.438.219-.719.484-1 .25-.313.64-.453.953-.453.375 0 .579.25.579.53Zm0 0"/></symbol><symbol overflow="visible" id="y"><path style="stroke:none" d="M4.484 1.484c0-.156-.156-.171-.234-.171h-.39l1.265-5.079c.016-.03.016-.093.016-.125 0-.03-.016-.156-.157-.156 0 0-.5.11-.765.328-.282-.297-.625-.328-.86-.328-1.515 0-2.406 1.484-2.406 2.688 0 1.062.75 1.437 1.438 1.437.406 0 .734-.172.875-.25l-.329 1.344c-.03.125-.046.125-.14.14h-.313c-.156 0-.328 0-.328.266 0 .047.031.156.188.156.297 0 .625-.015.937-.015.313 0 .64.015.969.015.063 0 .234 0 .234-.25ZM3.47-.984c-.078.312-.594.734-1.047.734-.203 0-.516-.125-.516-.64 0-.485.313-1.579.422-1.829.297-.875.797-1.015 1.031-1.015.313 0 .563.203.657.562Zm0 0"/></symbol><symbol overflow="visible" id="z"><path style="stroke:none" d="M3.5-1.328c0-.125-.125-.125-.25-.125-.172 0-.219 0-.25.11-.078.234-.313 1.093-.828 1.093-.047 0-.125 0-.125-.156 0-.125.062-.344.062-.36l.813-2.14A.729.729 0 0 0 3-3.25c0-.516-.453-.797-.938-.797-.937 0-1.374 1.203-1.374 1.39 0 .126.125.126.25.126.171 0 .218 0 .25-.11.078-.234.312-1.093.828-1.093.046 0 .125 0 .125.171 0 .11-.063.329-.063.36l-.812 2.125a.75.75 0 0 0-.079.36c0 .5.454.796.938.796C3.063.078 3.5-1.14 3.5-1.328ZM3.625-5.5a.537.537 0 0 0-.563-.547c-.406 0-.796.39-.796.781 0 .282.218.532.562.532.422 0 .797-.391.797-.766Zm0 0"/></symbol><symbol overflow="visible" id="A"><path style="stroke:none" d="M2.969-1.328c0-.125-.11-.125-.25-.125-.219 0-.219.016-.281.234-.079.297-.235.969-.547.969-.11 0-.172-.078-.172-.281 0-.172.015-.235.062-.39l1.25-5c.016-.048.031-.095.031-.141 0-.172-.171-.157-.296-.157l-1.094.063c-.11 0-.281 0-.281.265 0 .157.156.157.234.157.11 0 .281.015.39.015L.86-1.062c-.046.14-.046.203-.046.265 0 .578.546.875 1.046.875.422 0 .641-.312.766-.484.234-.39.344-.89.344-.922Zm0 0"/></symbol><symbol overflow="visible" id="B"><path style="stroke:none" d="m4.047.578.969-3.89c.03-.141.03-.22.03-.22 0-.202-.155-.374-.405-.374-.235 0-.329.11-.422.187-.25-.25-.547-.328-.86-.328-1.53 0-2.406 1.469-2.406 2.625C.953-.469 1.61 0 2.406 0c.297 0 .578-.078.875-.234L3.125.39c-.203.843-.719 1.093-1.203 1.093-.25 0-.453-.015-.563-.046a.719.719 0 0 0 .25-.5c0-.235-.171-.422-.437-.422a.66.66 0 0 0-.64.671c0 .547.702.625 1.374.625 1.078 0 1.938-.453 2.14-1.234Zm-.563-1.625c-.078.313-.609.719-1.03.719-.485 0-.532-.438-.532-.625 0-.5.328-1.578.453-1.906.281-.735.75-.875.984-.875.266 0 .547.14.657.546Zm0 0"/></symbol><symbol overflow="visible" id="C"><path style="stroke:none" d="M4.984-3.281c0-.656-.406-.781-.578-.781-.312 0-.64.328-.64.64 0 .219.125.313.203.375.187.125.36.328.36.594 0 .031-.376 2.203-1.391 2.203-.5 0-.563-.39-.563-.672 0-.5.281-1.265.5-1.86C2.969-3 3-3.108 3-3.25c0-.516-.453-.797-.938-.797-.937 0-1.374 1.203-1.374 1.39 0 .126.125.126.25.126.171 0 .218 0 .25-.11.078-.234.312-1.093.828-1.093.046 0 .125 0 .125.171 0 .188-.11.454-.157.579-.343.906-.53 1.437-.53 1.89 0 1.016.874 1.172 1.421 1.172 1.594 0 2.11-2.89 2.11-3.36Zm0 0"/></symbol><symbol overflow="visible" id="D"><path style="stroke:none" d="M6.344-1.328c0-.125-.11-.125-.25-.125-.203 0-.219.016-.282.234-.078.297-.234.969-.53.969-.11 0-.173-.078-.173-.281 0-.172.016-.266.047-.39l.703-2.813a.368.368 0 0 0 .032-.125c0-.125-.125-.125-.266-.125H3.047c.312-1.75.36-1.985 1.531-1.985.172 0 .656 0 .984.14a.672.672 0 0 0-.359.579c0 .234.172.406.453.406a.661.661 0 0 0 .625-.687c0-.75-1.14-.766-1.703-.766-.562 0-1.203.016-1.687.406-.547.438-.657 1.079-.797 1.907h-.828c-.157 0-.313 0-.313.265 0 .156.156.156.281.156h.782L1.39-.171C1.297.312 1.297.36 1.17.86c-.046.188-.14.625-.405.625 0 0-.125 0-.235-.062.266-.11.39-.36.39-.578C.922.594.735.438.47.438a.65.65 0 0 0-.64.671c0 .438.437.704.921.704.5 0 1.047-.438 1.328-1.172.172-.438.281-.907.375-1.36l.516-2.844h1.89l-.625 2.5c-.03.141-.03.204-.03.266 0 .578.53.875 1.03.875.422 0 .657-.312.766-.484.234-.39.344-.89.344-.922Zm0 0"/></symbol><symbol overflow="visible" id="E"><path style="stroke:none" d="M5.61-1.328c0-.125-.126-.125-.25-.125-.173 0-.22 0-.25.11C5.03-1.11 4.796-.25 4.28-.25c-.047 0-.125 0-.125-.156 0-.188.094-.422.203-.735.125-.328.532-1.39.532-1.906 0-.734-.532-1-1.235-1-.469 0-.828.14-1.203.453l.578-2.328c.016-.047.031-.094.031-.14 0-.172-.171-.157-.296-.157l-1.094.063c-.11 0-.281 0-.281.265 0 .157.156.157.234.157.11 0 .281.015.39.015L.72-.516c-.031.141-.031.157-.031.204 0 .218.171.39.406.39.11 0 .453-.047.562-.484l.547-2.235c.063-.25.563-1.093 1.39-1.093.376 0 .376.343.376.515 0 .531-.406 1.64-.563 2.047-.094.219-.11.313-.11.453 0 .5.454.797.938.797.938 0 1.375-1.219 1.375-1.406Zm0 0"/></symbol><symbol overflow="visible" id="F"><path style="stroke:none" d="M2.438-.797c0-.312-.22-.515-.547-.515-.36 0-.797.328-.797.78 0 .376.281.532.531.532.406 0 .813-.375.813-.797Zm0 0"/></symbol><symbol overflow="visible" id="I"><path style="stroke:none" d="M1.625-1.047C1.187-.328.797-.313.437-.28.376-.266.329-.203.329-.11c0 .046.047.109.125.109.172 0 .594-.031.766-.031.203 0 .687.031.875.031.062 0 .172 0 .172-.156 0-.11-.11-.125-.125-.125-.094 0-.422-.031-.422-.297 0-.125.093-.297.125-.344l.703-1.156H4.89c.03.219.046.515.078.734.031.36.093.75.093.782 0 .125-.125.28-.656.28-.078 0-.203 0-.203.173 0 .093.078.109.14.109.173 0 .391-.016.563-.016.172 0 .39-.015.532-.015.296 0 .328 0 .53.015.141 0 .36.016.5.016.048 0 .173 0 .173-.156 0-.125-.11-.125-.204-.125-.546 0-.546-.063-.578-.313l-.625-5.578c-.03-.203-.03-.25-.187-.25-.125 0-.172.063-.25.172Zm1.094-1.297L4.53-5.313l.328 2.97Zm0 0"/></symbol><symbol overflow="visible" id="J"><path style="stroke:none" d="M1.469-.688c-.094.329-.11.407-.782.407-.171 0-.265 0-.265.172C.422 0 .516 0 .672 0h3.265c1.454 0 2.516-1.063 2.516-1.922 0-.64-.531-1.187-1.406-1.281 1.016-.203 1.89-.875 1.89-1.672 0-.703-.656-1.25-1.718-1.25H2.156c-.172 0-.265 0-.265.156 0 .125.078.125.265.125.031 0 .188 0 .344.016.14.016.203.031.203.14 0 .032 0 .079-.031.172Zm1.39-2.609L3.406-5.5c.078-.328.094-.344.485-.344h1.203c.937 0 1.015.703 1.015.922 0 .813-.828 1.625-1.843 1.625ZM2.438-.28H2.25c-.094-.016-.11-.031-.11-.094 0-.016 0-.031.032-.203l.625-2.5h1.687c.563 0 1.125.25 1.125 1.062 0 .891-.812 1.735-1.89 1.735Zm0 0"/></symbol><symbol overflow="visible" id="X"><path style="stroke:none" d="M6.938-6.078c.03-.11.03-.125.03-.14 0-.016-.015-.11-.109-.11-.046 0-.078.031-.14.11l-.547.593c-.031.047-.078.078-.078.078-.016 0-.016 0-.078-.062-.125-.188-.532-.72-1.47-.72-2.046 0-4.093 2-4.093 4.048C.453-.828 1.531.203 2.97.203c.937 0 1.672-.484 2.015-.797.813-.734.97-1.515.97-1.562 0-.031-.016-.094-.126-.094-.094 0-.11.047-.125.094C5.266-.72 3.984-.078 3.078-.078c-.86 0-1.781-.531-1.781-1.89 0-.407.125-1.813 1.031-2.923.547-.64 1.422-1.156 2.281-1.156 1 0 1.532.766 1.532 1.75 0 .313-.032.375-.032.438 0 .093.11.093.141.093.11 0 .11-.015.156-.187Zm0 0"/></symbol><symbol overflow="visible" id="Y"><path style="stroke:none" d="M1.438-.688c-.079.329-.094.407-.766.407-.172 0-.266 0-.266.172C.406 0 .5 0 .656 0h3.016c1.922 0 3.703-1.906 3.703-3.844 0-1.219-.766-2.281-2.172-2.281H2.141c-.172 0-.282 0-.282.156 0 .125.094.125.282.125.03 0 .187 0 .328.016.156.016.219.031.219.14 0 .032 0 .079-.032.172ZM3.421-5.5c.078-.328.094-.344.469-.344h1.015c.938 0 1.672.516 1.672 1.672 0 .516-.219 1.953-.922 2.844C5.25-.812 4.5-.281 3.516-.281h-1.25c-.094-.016-.125-.031-.125-.094 0-.016 0-.031.046-.203Zm0 0"/></symbol><symbol overflow="visible" id="ab"><path style="stroke:none" d="M2.813-3.031h.921c.641 0 .766.11.766.406 0 .063-.031.25-.063.406-.015.047-.03.094-.03.125 0 0 0 .11.124.11.11 0 .11-.063.157-.188l.468-1.89c.032-.125.032-.141.032-.188 0-.063-.047-.11-.125-.11-.094 0-.11.048-.141.22-.188.718-.469.827-1.188.827h-.843c.125-.546.546-2.25.593-2.359.063-.125.125-.156.422-.156H5.22c1.125 0 1.375.281 1.375 1 0 .281-.047.547-.047.61 0 .077.047.14.125.14.11 0 .125-.063.14-.234L7-5.97c0-.125-.094-.125-.266-.125H2.11c-.156 0-.265 0-.265.157 0 .109.093.109.281.109.031 0 .203 0 .344.031.187.016.203.063.203.14 0 .032 0 .048-.047.204L1.437-.687c-.078.328-.093.406-.78.406-.157 0-.266 0-.266.172C.39 0 .484 0 .64 0h4.734c.172 0 .188 0 .219-.031.015-.016.031-.016.078-.14.11-.235.875-1.938.875-2.032 0-.063-.047-.11-.125-.11s-.078 0-.172.22C5.687-.844 5.312-.282 3.828-.282H2.281c-.094-.016-.125-.031-.125-.094 0-.016 0-.031.047-.203Zm0 0"/></symbol></defs><path style="stroke:none;fill-rule:nonzero;fill:#f93;fill-opacity:1" d="m45.195 81.477 12.168-30.043 19.938 25.539Zm0 0"/><use xlink:href="#a" x="34.004" y="84.881" style="fill:#00c;fill-opacity:1"/><use xlink:href="#b" x="81.02" y="80.376" style="fill:#00c;fill-opacity:1"/><path style="fill:none;stroke-width:.79701;stroke-linecap:butt;stroke-linejoin:miter;stroke:#00c;stroke-opacity:1;stroke-miterlimit:10" d="M2.592.625 34.698 5.13" transform="matrix(1 0 0 -1 42.603 82.102)"/><path style="fill:none;stroke-width:.3985;stroke-linecap:butt;stroke-linejoin:miter;stroke:gray;stroke-opacity:1;stroke-miterlimit:10" d="M35.014.625c0 17.907-14.515 32.418-32.422 32.418-17.906 0-32.422-14.511-32.422-32.418 0-17.906 14.516-32.421 32.422-32.421 17.907 0 32.422 14.515 32.422 32.421Zm0 0" transform="matrix(1 0 0 -1 42.603 82.102)"/><use xlink:href="#c" x=".531" y="84.881" style="fill:#000;fill-opacity:1"/><path style="fill:none;stroke-width:.3985;stroke-linecap:butt;stroke-linejoin:miter;stroke:gray;stroke-opacity:1;stroke-miterlimit:10" d="M67.12 5.13c0 17.906-14.516 32.421-32.422 32.421S2.276 23.036 2.276 5.13c0-17.906 14.516-32.422 32.422-32.422S67.12-12.777 67.12 5.13Zm0 0" transform="matrix(1 0 0 -1 42.603 82.102)"/><use xlink:href="#d" x="113.441" y="80.376" style="fill:#000;fill-opacity:1"/><use xlink:href="#e" x="53.447" y="47.717" style="fill:#b20000;fill-opacity:1"/><path style="fill:none;stroke-width:.79701;stroke-linecap:butt;stroke-linejoin:miter;stroke:#b20000;stroke-opacity:1;stroke-miterlimit:10" d="M2.592.625 14.76 30.668M34.698 5.13 14.76 30.667" transform="matrix(1 0 0 -1 42.603 82.102)"/><path style="stroke:none;fill-rule:nonzero;fill:#000;fill-opacity:.5" d="M47.188 81.477a1.993 1.993 0 1 0-3.987.001 1.993 1.993 0 0 0 3.986-.001ZM79.293 76.973a1.99 1.99 0 0 0-1.992-1.993 1.99 1.99 0 0 0-1.992 1.993 1.99 1.99 0 0 0 1.992 1.992 1.99 1.99 0 0 0 1.992-1.992ZM59.355 51.434a1.993 1.993 0 1 0-1.992 1.996 1.994 1.994 0 0 0 1.992-1.996Zm0 0"/><g style="fill:#000;fill-opacity:1"><use xlink:href="#f" x="159.509" y="6.733"/><use xlink:href="#g" x="166.754" y="6.733"/><use xlink:href="#h" x="171.129" y="6.733"/><use xlink:href="#i" x="176.438" y="6.733"/></g><g style="fill:#000;fill-opacity:1"><use xlink:href="#h" x="182.624" y="6.733"/><use xlink:href="#j" x="187.932" y="6.733"/><use xlink:href="#k" x="192.12" y="6.733"/><use xlink:href="#l" x="195.07" y="6.733"/><use xlink:href="#k" x="199.194" y="6.733"/><use xlink:href="#h" x="202.144" y="6.733"/><use xlink:href="#m" x="207.452" y="6.733"/></g><use xlink:href="#n" x="216.876" y="6.733" style="fill:#000;fill-opacity:1"/><use xlink:href="#o" x="159.509" y="17.692" style="fill:#000;fill-opacity:1"/><use xlink:href="#p" x="165.857" y="17.692" style="fill:#000;fill-opacity:1"/><use xlink:href="#q" x="175.819" y="17.692" style="fill:#000;fill-opacity:1"/><g style="fill:#000;fill-opacity:1"><use xlink:href="#p" x="180.069" y="17.692"/><use xlink:href="#r" x="185.368" y="17.692"/><use xlink:href="#s" x="191.196" y="17.692"/><use xlink:href="#t" x="195.563" y="17.692"/><use xlink:href="#u" x="199.015" y="17.692"/><use xlink:href="#v" x="203.516" y="17.692"/><use xlink:href="#q" x="209.084" y="17.692"/><use xlink:href="#t" x="213.854" y="17.692"/></g><g style="fill:#000;fill-opacity:1"><use xlink:href="#w" x="221.96" y="17.692"/><use xlink:href="#r" x="227.259" y="17.692"/></g><use xlink:href="#x" x="237.762" y="17.692" style="fill:#ff8000;fill-opacity:1"/><g style="fill:#ff8000;fill-opacity:1"><use xlink:href="#y" x="242.003" y="17.692"/><use xlink:href="#v" x="246.773" y="17.692"/><use xlink:href="#z" x="252.341" y="17.692"/><use xlink:href="#A" x="255.533" y="17.692"/><use xlink:href="#w" x="258.196" y="17.692"/><use xlink:href="#t" x="263.496" y="17.692"/><use xlink:href="#x" x="266.948" y="17.692"/><use xlink:href="#u" x="271.718" y="17.692"/></g><g style="fill:#ff8000;fill-opacity:1"><use xlink:href="#w" x="275.69" y="17.692"/><use xlink:href="#A" x="280.989" y="17.692"/></g><g style="fill:#ff8000;fill-opacity:1"><use xlink:href="#t" x="288.314" y="17.692"/><use xlink:href="#u" x="291.767" y="17.692"/><use xlink:href="#z" x="296.268" y="17.692"/><use xlink:href="#w" x="299.46" y="17.692"/><use xlink:href="#r" x="304.759" y="17.692"/><use xlink:href="#B" x="310.587" y="17.692"/><use xlink:href="#A" x="315.357" y="17.692"/><use xlink:href="#x" x="318.02" y="17.692"/></g><g style="fill:#000;fill-opacity:1"><use xlink:href="#p" x="327.461" y="17.692"/><use xlink:href="#r" x="332.76" y="17.692"/></g><use xlink:href="#w" x="343.251" y="17.692" style="fill:#000;fill-opacity:1"/><g style="fill:#000;fill-opacity:1"><use xlink:href="#B" x="353.212" y="17.692"/><use xlink:href="#z" x="357.983" y="17.692"/><use xlink:href="#C" x="361.175" y="17.692"/><use xlink:href="#x" x="365.945" y="17.692"/><use xlink:href="#r" x="370.715" y="17.692"/></g><g style="fill:#00c;fill-opacity:1"><use xlink:href="#D" x="381.218" y="17.692"/><use xlink:href="#r" x="387.261" y="17.692"/><use xlink:href="#z" x="393.089" y="17.692"/><use xlink:href="#t" x="396.282" y="17.692"/><use xlink:href="#x" x="399.734" y="17.692"/></g><g style="fill:#00c;fill-opacity:1"><use xlink:href="#s" x="409.166" y="17.692"/><use xlink:href="#t" x="413.533" y="17.692"/><use xlink:href="#u" x="416.985" y="17.692"/></g><g style="fill:#00c;fill-opacity:1"><use xlink:href="#w" x="420.966" y="17.692"/><use xlink:href="#z" x="426.265" y="17.692"/><use xlink:href="#B" x="429.457" y="17.692"/><use xlink:href="#E" x="434.227" y="17.692"/><use xlink:href="#t" x="439.526" y="17.692"/></g><g style="fill:#00c;fill-opacity:1"><use xlink:href="#A" x="159.509" y="28.651"/><use xlink:href="#z" x="162.172" y="28.651"/><use xlink:href="#r" x="165.364" y="28.651"/><use xlink:href="#x" x="171.192" y="28.651"/></g><use xlink:href="#F" x="175.962" y="28.651" style="fill:#000;fill-opacity:1"/><g style="fill:#000;fill-opacity:1"><use xlink:href="#G" x="159.509" y="48.577"/><use xlink:href="#H" x="165.884" y="48.577"/><use xlink:href="#l" x="170.753" y="48.577"/></g><use xlink:href="#I" x="180.009" y="48.577" style="fill:#00c;fill-opacity:1"/><use xlink:href="#J" x="186.919" y="48.577" style="fill:#00c;fill-opacity:1"/><use xlink:href="#K" x="199.471" y="48.577" style="fill:#000;fill-opacity:1"/><use xlink:href="#H" x="205.658" y="48.577" style="fill:#000;fill-opacity:1"/><g style="fill:#000;fill-opacity:1"><use xlink:href="#l" x="215.655" y="48.577"/><use xlink:href="#L" x="219.78" y="48.577"/><use xlink:href="#H" x="225.671" y="48.577"/></g><g style="fill:#000;fill-opacity:1"><use xlink:href="#M" x="235.668" y="48.577"/><use xlink:href="#k" x="240.976" y="48.577"/><use xlink:href="#N" x="243.926" y="48.577"/></g><g style="fill:#000;fill-opacity:1"><use xlink:href="#H" x="249.243" y="48.577"/><use xlink:href="#m" x="254.112" y="48.577"/></g><g style="fill:#00c;fill-opacity:1"><use xlink:href="#O" x="265.132" y="48.577"/><use xlink:href="#m" x="271.023" y="48.577"/><use xlink:href="#k" x="276.914" y="48.577"/><use xlink:href="#l" x="279.864" y="48.577"/><use xlink:href="#H" x="283.988" y="48.577"/></g><g style="fill:#00c;fill-opacity:1"><use xlink:href="#j" x="293.986" y="48.577"/><use xlink:href="#l" x="298.173" y="48.577"/><use xlink:href="#g" x="302.298" y="48.577"/><use xlink:href="#P" x="306.673" y="48.577"/><use xlink:href="#k" x="311.829" y="48.577"/><use xlink:href="#M" x="314.779" y="48.577"/><use xlink:href="#L" x="320.087" y="48.577"/></g><use xlink:href="#l" x="325.691" y="48.577" style="fill:#00c;fill-opacity:1"/><g style="fill:#00c;fill-opacity:1"><use xlink:href="#Q" x="334.935" y="48.577"/><use xlink:href="#k" x="337.885" y="48.577"/><use xlink:href="#m" x="340.835" y="48.577"/><use xlink:href="#H" x="346.726" y="48.577"/></g><use xlink:href="#R" x="351.602" y="48.577" style="fill:#000;fill-opacity:1"/><g style="fill:#000;fill-opacity:1"><use xlink:href="#n" x="364.056" y="48.577"/><use xlink:href="#l" x="368.055" y="48.577"/></g><g style="fill:#000;fill-opacity:1"><use xlink:href="#k" x="377.309" y="48.577"/><use xlink:href="#j" x="380.259" y="48.577"/></g><g style="fill:#000;fill-opacity:1"><use xlink:href="#g" x="389.584" y="48.577"/><use xlink:href="#H" x="393.959" y="48.577"/><use xlink:href="#S" x="398.828" y="48.577"/><use xlink:href="#T" x="404.432" y="48.577"/><use xlink:href="#k" x="410.323" y="48.577"/><use xlink:href="#g" x="413.273" y="48.577"/><use xlink:href="#H" x="417.648" y="48.577"/><use xlink:href="#U" x="422.517" y="48.577"/></g><g style="fill:#000;fill-opacity:1"><use xlink:href="#l" x="433.537" y="48.577"/><use xlink:href="#h" x="437.661" y="48.577"/></g><g style="fill:#000;fill-opacity:1"><use xlink:href="#V" x="159.509" y="59.535"/><use xlink:href="#h" x="164.225" y="59.535"/><use xlink:href="#m" x="169.533" y="59.535"/><use xlink:href="#j" x="175.424" y="59.535"/><use xlink:href="#l" x="179.612" y="59.535"/><use xlink:href="#g" x="183.736" y="59.535"/><use xlink:href="#T" x="188.112" y="59.535"/><use xlink:href="#V" x="194.003" y="59.535"/><use xlink:href="#l" x="198.719" y="59.535"/></g><g style="fill:#000;fill-opacity:1"><use xlink:href="#P" x="206.376" y="59.535"/><use xlink:href="#m" x="211.532" y="59.535"/></g><g style="fill:#ff8000;fill-opacity:1"><use xlink:href="#H" x="220.955" y="59.535"/><use xlink:href="#S" x="225.824" y="59.535"/><use xlink:href="#T" x="231.428" y="59.535"/><use xlink:href="#k" x="237.319" y="59.535"/><use xlink:href="#Q" x="240.269" y="59.535"/><use xlink:href="#P" x="243.219" y="59.535"/><use xlink:href="#l" x="248.374" y="59.535"/><use xlink:href="#H" x="252.499" y="59.535"/><use xlink:href="#g" x="257.367" y="59.535"/><use xlink:href="#P" x="261.743" y="59.535"/><use xlink:href="#Q" x="266.899" y="59.535"/></g><g style="fill:#ff8000;fill-opacity:1"><use xlink:href="#l" x="273.381" y="59.535"/><use xlink:href="#g" x="277.506" y="59.535"/><use xlink:href="#k" x="281.882" y="59.535"/><use xlink:href="#P" x="284.831" y="59.535"/><use xlink:href="#m" x="289.987" y="59.535"/><use xlink:href="#M" x="295.878" y="59.535"/><use xlink:href="#Q" x="301.186" y="59.535"/><use xlink:href="#H" x="304.136" y="59.535"/></g><g style="fill:#000;fill-opacity:1"><use xlink:href="#h" x="312.538" y="59.535"/><use xlink:href="#m" x="317.846" y="59.535"/></g><g style="fill:#000;fill-opacity:1"><use xlink:href="#l" x="327.27" y="59.535"/><use xlink:href="#L" x="331.394" y="59.535"/><use xlink:href="#H" x="337.285" y="59.535"/></g><g style="fill:#00c;fill-opacity:1"><use xlink:href="#j" x="345.687" y="59.535"/><use xlink:href="#l" x="349.874" y="59.535"/><use xlink:href="#g" x="353.999" y="59.535"/><use xlink:href="#P" x="358.374" y="59.535"/><use xlink:href="#k" x="363.53" y="59.535"/><use xlink:href="#M" x="366.48" y="59.535"/><use xlink:href="#L" x="371.788" y="59.535"/></g><use xlink:href="#l" x="377.383" y="59.535" style="fill:#00c;fill-opacity:1"/><g style="fill:#00c;fill-opacity:1"><use xlink:href="#Q" x="385.031" y="59.535"/><use xlink:href="#k" x="387.981" y="59.535"/><use xlink:href="#m" x="390.931" y="59.535"/><use xlink:href="#H" x="396.822" y="59.535"/></g><use xlink:href="#I" x="405.232" y="59.535" style="fill:#00c;fill-opacity:1"/><use xlink:href="#J" x="412.142" y="59.535" style="fill:#00c;fill-opacity:1"/><use xlink:href="#R" x="419.562" y="59.535" style="fill:#000;fill-opacity:1"/><g style="fill:#000;fill-opacity:1"><use xlink:href="#W" x="159.509" y="70.494"/><use xlink:href="#H" x="167.642" y="70.494"/><use xlink:href="#j" x="172.51" y="70.494"/><use xlink:href="#V" x="176.698" y="70.494"/><use xlink:href="#g" x="181.414" y="70.494"/><use xlink:href="#k" x="185.789" y="70.494"/><use xlink:href="#K" x="188.739" y="70.494"/></g><use xlink:href="#H" x="194.926" y="70.494" style="fill:#000;fill-opacity:1"/><g style="fill:#000;fill-opacity:1"><use xlink:href="#l" x="203.175" y="70.494"/><use xlink:href="#L" x="207.3" y="70.494"/><use xlink:href="#H" x="213.191" y="70.494"/></g><g style="fill:#000;fill-opacity:1"><use xlink:href="#V" x="221.449" y="70.494"/><use xlink:href="#k" x="226.165" y="70.494"/><use xlink:href="#g" x="229.115" y="70.494"/><use xlink:href="#V" x="233.491" y="70.494"/><use xlink:href="#Q" x="238.207" y="70.494"/><use xlink:href="#H" x="241.157" y="70.494"/></g><use xlink:href="#J" x="249.421" y="70.494" style="fill:#00c;fill-opacity:1"/><use xlink:href="#X" x="256.84" y="70.494" style="fill:#b20000;fill-opacity:1"/><use xlink:href="#Y" x="264.056" y="70.494" style="fill:#000;fill-opacity:1"/><g style="fill:#000;fill-opacity:1"><use xlink:href="#Z" x="275.3" y="70.494"/><use xlink:href="#k" x="282.966" y="70.494"/><use xlink:href="#l" x="285.916" y="70.494"/><use xlink:href="#L" x="290.041" y="70.494"/></g><g style="fill:#000;fill-opacity:1"><use xlink:href="#V" x="299.312" y="70.494"/><use xlink:href="#H" x="304.028" y="70.494"/><use xlink:href="#m" x="308.897" y="70.494"/></g><g style="fill:#000;fill-opacity:1"><use xlink:href="#l" x="314.501" y="70.494"/><use xlink:href="#H" x="318.626" y="70.494"/><use xlink:href="#g" x="323.494" y="70.494"/></g><use xlink:href="#I" x="331.257" y="70.494" style="fill:#00c;fill-opacity:1"/><g style="fill:#000;fill-opacity:1"><use xlink:href="#P" x="341.555" y="70.494"/><use xlink:href="#m" x="346.711" y="70.494"/><use xlink:href="#U" x="352.602" y="70.494"/></g><g style="fill:#000;fill-opacity:1"><use xlink:href="#g" x="361.873" y="70.494"/><use xlink:href="#P" x="366.248" y="70.494"/><use xlink:href="#U" x="371.404" y="70.494"/><use xlink:href="#k" x="377.295" y="70.494"/><use xlink:href="#T" x="380.245" y="70.494"/><use xlink:href="#j" x="386.136" y="70.494"/></g><use xlink:href="#I" x="393.72" y="70.494" style="fill:#00c;fill-opacity:1"/><use xlink:href="#J" x="400.63" y="70.494" style="fill:#00c;fill-opacity:1"/><use xlink:href="#R" x="408.05" y="70.494" style="fill:#000;fill-opacity:1"/><g style="fill:#000;fill-opacity:1"><use xlink:href="#aa" x="415.653" y="70.494"/><use xlink:href="#M" x="423.66" y="70.494"/><use xlink:href="#P" x="428.969" y="70.494"/><use xlink:href="#k" x="434.124" y="70.494"/><use xlink:href="#m" x="437.074" y="70.494"/></g><g style="fill:#000;fill-opacity:1"><use xlink:href="#U" x="159.509" y="81.453"/><use xlink:href="#H" x="165.4" y="81.453"/><use xlink:href="#j" x="170.269" y="81.453"/><use xlink:href="#V" x="174.456" y="81.453"/><use xlink:href="#g" x="179.172" y="81.453"/><use xlink:href="#k" x="183.548" y="81.453"/><use xlink:href="#K" x="186.498" y="81.453"/></g><use xlink:href="#H" x="192.685" y="81.453" style="fill:#000;fill-opacity:1"/><g style="fill:#000;fill-opacity:1"><use xlink:href="#l" x="201.839" y="81.453"/><use xlink:href="#L" x="205.964" y="81.453"/><use xlink:href="#H" x="211.855" y="81.453"/></g><g style="fill:#000;fill-opacity:1"><use xlink:href="#V" x="221.018" y="81.453"/><use xlink:href="#k" x="225.735" y="81.453"/><use xlink:href="#g" x="228.685" y="81.453"/><use xlink:href="#V" x="233.06" y="81.453"/><use xlink:href="#Q" x="237.777" y="81.453"/><use xlink:href="#H" x="240.726" y="81.453"/></g><use xlink:href="#I" x="249.898" y="81.453" style="fill:#00c;fill-opacity:1"/><use xlink:href="#X" x="256.808" y="81.453" style="fill:#b20000;fill-opacity:1"/><use xlink:href="#ab" x="264.023" y="81.453" style="fill:#000;fill-opacity:1"/><g style="fill:#000;fill-opacity:1"><use xlink:href="#Z" x="275.61" y="81.453"/><use xlink:href="#k" x="283.276" y="81.453"/><use xlink:href="#l" x="286.226" y="81.453"/><use xlink:href="#L" x="290.351" y="81.453"/></g><g style="fill:#000;fill-opacity:1"><use xlink:href="#V" x="300.537" y="81.453"/><use xlink:href="#H" x="305.253" y="81.453"/><use xlink:href="#m" x="310.122" y="81.453"/></g><g style="fill:#000;fill-opacity:1"><use xlink:href="#l" x="315.717" y="81.453"/><use xlink:href="#H" x="319.841" y="81.453"/><use xlink:href="#g" x="324.71" y="81.453"/></g><use xlink:href="#J" x="333.38" y="81.453" style="fill:#00c;fill-opacity:1"/><g style="fill:#000;fill-opacity:1"><use xlink:href="#P" x="345.094" y="81.453"/><use xlink:href="#m" x="350.25" y="81.453"/><use xlink:href="#U" x="356.141" y="81.453"/></g><g style="fill:#000;fill-opacity:1"><use xlink:href="#g" x="366.317" y="81.453"/><use xlink:href="#P" x="370.693" y="81.453"/><use xlink:href="#U" x="375.849" y="81.453"/><use xlink:href="#k" x="381.74" y="81.453"/><use xlink:href="#T" x="384.69" y="81.453"/><use xlink:href="#j" x="390.58" y="81.453"/></g><use xlink:href="#J" x="399.071" y="81.453" style="fill:#00c;fill-opacity:1"/><use xlink:href="#I" x="406.49" y="81.453" style="fill:#00c;fill-opacity:1"/><use xlink:href="#R" x="413.4" y="81.453" style="fill:#000;fill-opacity:1"/><g style="fill:#000;fill-opacity:1"><use xlink:href="#ac" x="423.344" y="81.453"/><use xlink:href="#h" x="428.822" y="81.453"/><use xlink:href="#k" x="434.13" y="81.453"/><use xlink:href="#m" x="437.08" y="81.453"/></g><g style="fill:#000;fill-opacity:1"><use xlink:href="#l" x="159.509" y="92.412"/><use xlink:href="#L" x="163.634" y="92.412"/><use xlink:href="#H" x="169.524" y="92.412"/></g><g style="fill:#b20000;fill-opacity:1"><use xlink:href="#j" x="178.326" y="92.412"/><use xlink:href="#l" x="182.513" y="92.412"/><use xlink:href="#g" x="186.638" y="92.412"/><use xlink:href="#P" x="191.013" y="92.412"/><use xlink:href="#k" x="196.169" y="92.412"/><use xlink:href="#M" x="199.119" y="92.412"/><use xlink:href="#L" x="204.427" y="92.412"/></g><use xlink:href="#l" x="210.022" y="92.412" style="fill:#b20000;fill-opacity:1"/><g style="fill:#b20000;fill-opacity:1"><use xlink:href="#Q" x="218.074" y="92.412"/><use xlink:href="#k" x="221.024" y="92.412"/><use xlink:href="#m" x="223.974" y="92.412"/><use xlink:href="#H" x="229.865" y="92.412"/><use xlink:href="#j" x="234.733" y="92.412"/></g><use xlink:href="#X" x="242.86" y="92.412" style="fill:#b20000;fill-opacity:1"/><use xlink:href="#I" x="250.075" y="92.412" style="fill:#00c;fill-opacity:1"/><g style="fill:#000;fill-opacity:1"><use xlink:href="#P" x="260.919" y="92.412"/><use xlink:href="#m" x="266.075" y="92.412"/><use xlink:href="#U" x="271.966" y="92.412"/></g><use xlink:href="#X" x="281.789" y="92.412" style="fill:#b20000;fill-opacity:1"/><use xlink:href="#J" x="289.005" y="92.412" style="fill:#00c;fill-opacity:1"/><g style="fill:#000;fill-opacity:1"><use xlink:href="#ad" x="300.358" y="92.412"/><use xlink:href="#g" x="303.604" y="92.412"/><use xlink:href="#h" x="307.979" y="92.412"/><use xlink:href="#ae" x="313.288" y="92.412"/></g><g style="fill:#000;fill-opacity:1"><use xlink:href="#l" x="326.056" y="92.412"/><use xlink:href="#L" x="330.18" y="92.412"/><use xlink:href="#H" x="336.071" y="92.412"/></g><use xlink:href="#i" x="344.876" y="92.412" style="fill:#000;fill-opacity:1"/><g style="fill:#000;fill-opacity:1"><use xlink:href="#h" x="351.063" y="92.412"/><use xlink:href="#k" x="356.371" y="92.412"/><use xlink:href="#m" x="359.321" y="92.412"/></g><use xlink:href="#l" x="364.925" y="92.412" style="fill:#000;fill-opacity:1"/><use xlink:href="#X" x="372.976" y="92.412" style="fill:#b20000;fill-opacity:1"/><g style="fill:#000;fill-opacity:1"><use xlink:href="#P" x="384.124" y="92.412"/><use xlink:href="#l" x="389.28" y="92.412"/></g><g style="fill:#000;fill-opacity:1"><use xlink:href="#Z" x="397.331" y="92.412"/><use xlink:href="#L" x="404.998" y="92.412"/><use xlink:href="#k" x="410.889" y="92.412"/><use xlink:href="#V" x="413.839" y="92.412"/></g><use xlink:href="#L" x="418.268" y="92.412" style="fill:#000;fill-opacity:1"/><g style="fill:#000;fill-opacity:1"><use xlink:href="#l" x="428.086" y="92.412"/><use xlink:href="#L" x="432.211" y="92.412"/><use xlink:href="#H" x="438.102" y="92.412"/></g><g style="fill:#000;fill-opacity:1"><use xlink:href="#V" x="159.509" y="103.371"/><use xlink:href="#k" x="164.225" y="103.371"/><use xlink:href="#g" x="167.175" y="103.371"/><use xlink:href="#V" x="171.551" y="103.371"/><use xlink:href="#Q" x="176.267" y="103.371"/><use xlink:href="#H" x="179.217" y="103.371"/><use xlink:href="#j" x="184.086" y="103.371"/></g><g style="fill:#000;fill-opacity:1"><use xlink:href="#V" x="191.806" y="103.371"/><use xlink:href="#T" x="196.522" y="103.371"/><use xlink:href="#l" x="202.413" y="103.371"/></g><g style="fill:#000;fill-opacity:1"><use xlink:href="#h" x="210.07" y="103.371"/><use xlink:href="#m" x="215.379" y="103.371"/><use xlink:href="#H" x="221.269" y="103.371"/></g><g style="fill:#000;fill-opacity:1"><use xlink:href="#P" x="229.671" y="103.371"/><use xlink:href="#m" x="234.827" y="103.371"/><use xlink:href="#h" x="240.718" y="103.371"/><use xlink:href="#l" x="246.026" y="103.371"/><use xlink:href="#L" x="250.15" y="103.371"/><use xlink:href="#H" x="256.041" y="103.371"/><use xlink:href="#g" x="260.91" y="103.371"/></g><g style="fill:#000;fill-opacity:1"><use xlink:href="#l" x="268.818" y="103.371"/><use xlink:href="#h" x="272.943" y="103.371"/></g><g style="fill:#000;fill-opacity:1"><use xlink:href="#l" x="281.784" y="103.371"/><use xlink:href="#L" x="285.908" y="103.371"/><use xlink:href="#H" x="291.799" y="103.371"/></g><use xlink:href="#i" x="300.2" y="103.371" style="fill:#000;fill-opacity:1"/><g style="fill:#000;fill-opacity:1"><use xlink:href="#h" x="306.387" y="103.371"/><use xlink:href="#k" x="311.695" y="103.371"/><use xlink:href="#m" x="314.645" y="103.371"/></g><g style="fill:#000;fill-opacity:1"><use xlink:href="#l" x="320.24" y="103.371"/><use xlink:href="#j" x="324.365" y="103.371"/></g><use xlink:href="#I" x="332.085" y="103.371" style="fill:#00c;fill-opacity:1"/><g style="fill:#000;fill-opacity:1"><use xlink:href="#P" x="342.527" y="103.371"/><use xlink:href="#m" x="347.683" y="103.371"/><use xlink:href="#U" x="353.574" y="103.371"/></g><use xlink:href="#J" x="362.998" y="103.371" style="fill:#00c;fill-opacity:1"/><use xlink:href="#R" x="370.417" y="103.371" style="fill:#000;fill-opacity:1"/><g style="fill:#000;fill-opacity:1"><use xlink:href="#af" x="159.509" y="115.326"/><use xlink:href="#h" x="167.794" y="115.326"/></g><g style="fill:#000;fill-opacity:1"><use xlink:href="#Z" x="172.806" y="115.326"/><use xlink:href="#ag" x="180.472" y="115.326"/></g><g style="fill:#000;fill-opacity:1"><use xlink:href="#j" x="186.74" y="115.326"/><use xlink:href="#k" x="190.927" y="115.326"/><use xlink:href="#m" x="193.877" y="115.326"/><use xlink:href="#V" x="199.768" y="115.326"/><use xlink:href="#H" x="204.484" y="115.326"/></g><g style="fill:#000;fill-opacity:1"><use xlink:href="#l" x="212.617" y="115.326"/><use xlink:href="#L" x="216.741" y="115.326"/><use xlink:href="#H" x="222.632" y="115.326"/></g><use xlink:href="#i" x="230.765" y="115.326" style="fill:#000;fill-opacity:1"/><g style="fill:#000;fill-opacity:1"><use xlink:href="#h" x="236.952" y="115.326"/><use xlink:href="#k" x="242.26" y="115.326"/><use xlink:href="#m" x="245.21" y="115.326"/></g><use xlink:href="#l" x="250.814" y="115.326" style="fill:#000;fill-opacity:1"/><use xlink:href="#I" x="258.199" y="115.326" style="fill:#00c;fill-opacity:1"/><g style="fill:#000;fill-opacity:1"><use xlink:href="#k" x="268.375" y="115.326"/><use xlink:href="#j" x="271.325" y="115.326"/></g><g style="fill:#000;fill-opacity:1"><use xlink:href="#l" x="278.776" y="115.326"/><use xlink:href="#L" x="282.901" y="115.326"/><use xlink:href="#H" x="288.791" y="115.326"/></g><g style="fill:#000;fill-opacity:1"><use xlink:href="#V" x="296.924" y="115.326"/><use xlink:href="#H" x="301.64" y="115.326"/><use xlink:href="#m" x="306.509" y="115.326"/></g><g style="fill:#000;fill-opacity:1"><use xlink:href="#l" x="312.113" y="115.326"/><use xlink:href="#H" x="316.238" y="115.326"/><use xlink:href="#g" x="321.106" y="115.326"/></g><g style="fill:#000;fill-opacity:1"><use xlink:href="#h" x="328.737" y="115.326"/><use xlink:href="#ad" x="334.045" y="115.326"/></g><g style="fill:#000;fill-opacity:1"><use xlink:href="#l" x="340.554" y="115.326"/><use xlink:href="#L" x="344.679" y="115.326"/><use xlink:href="#H" x="350.57" y="115.326"/></g><g style="fill:#000;fill-opacity:1"><use xlink:href="#V" x="358.702" y="115.326"/><use xlink:href="#k" x="363.419" y="115.326"/><use xlink:href="#g" x="366.369" y="115.326"/><use xlink:href="#V" x="370.744" y="115.326"/><use xlink:href="#Q" x="375.46" y="115.326"/><use xlink:href="#H" x="378.41" y="115.326"/></g><use xlink:href="#X" x="386.553" y="115.326" style="fill:#b20000;fill-opacity:1"/><use xlink:href="#Y" x="393.768" y="115.326" style="fill:#000;fill-opacity:1"/><use xlink:href="#J" x="401.624" y="115.326" style="fill:#00c;fill-opacity:1"/><use xlink:href="#ag" x="409.043" y="115.326" style="fill:#000;fill-opacity:1"/><g style="fill:#000;fill-opacity:1"><use xlink:href="#l" x="415.31" y="115.326"/><use xlink:href="#L" x="419.435" y="115.326"/><use xlink:href="#H" x="425.326" y="115.326"/><use xlink:href="#g" x="430.195" y="115.326"/><use xlink:href="#H" x="434.57" y="115.326"/><use xlink:href="#ah" x="439.439" y="115.326"/></g><g style="fill:#000;fill-opacity:1"><use xlink:href="#ad" x="159.509" y="127.281"/><use xlink:href="#h" x="162.755" y="127.281"/><use xlink:href="#g" x="168.063" y="127.281"/><use xlink:href="#H" x="172.439" y="127.281"/></g><use xlink:href="#I" x="181.09" y="127.281" style="fill:#00c;fill-opacity:1"/><use xlink:href="#X" x="188" y="127.281" style="fill:#b20000;fill-opacity:1"/><g style="fill:#000;fill-opacity:1"><use xlink:href="#H" x="198.999" y="127.281"/><use xlink:href="#S" x="203.868" y="127.281"/><use xlink:href="#T" x="209.472" y="127.281"/><use xlink:href="#P" x="215.363" y="127.281"/><use xlink:href="#Q" x="220.518" y="127.281"/><use xlink:href="#j" x="223.468" y="127.281"/></g><use xlink:href="#I" x="231.439" y="127.281" style="fill:#00c;fill-opacity:1"/><use xlink:href="#J" x="238.349" y="127.281" style="fill:#00c;fill-opacity:1"/><use xlink:href="#R" x="245.768" y="127.281" style="fill:#000;fill-opacity:1"/><g style="fill:#000;fill-opacity:1"><use xlink:href="#aa" x="254.178" y="127.281"/><use xlink:href="#M" x="262.185" y="127.281"/><use xlink:href="#P" x="267.494" y="127.281"/><use xlink:href="#k" x="272.649" y="127.281"/><use xlink:href="#m" x="275.599" y="127.281"/><use xlink:href="#ag" x="281.49" y="127.281"/></g><g style="fill:#000;fill-opacity:1"><use xlink:href="#j" x="288.287" y="127.281"/><use xlink:href="#k" x="292.474" y="127.281"/><use xlink:href="#m" x="295.424" y="127.281"/><use xlink:href="#V" x="301.315" y="127.281"/><use xlink:href="#H" x="306.031" y="127.281"/></g><g style="fill:#000;fill-opacity:1"><use xlink:href="#l" x="314.675" y="127.281"/><use xlink:href="#L" x="318.799" y="127.281"/><use xlink:href="#H" x="324.69" y="127.281"/></g><use xlink:href="#i" x="333.343" y="127.281" style="fill:#000;fill-opacity:1"/><g style="fill:#000;fill-opacity:1"><use xlink:href="#h" x="339.529" y="127.281"/><use xlink:href="#k" x="344.838" y="127.281"/><use xlink:href="#m" x="347.787" y="127.281"/></g><use xlink:href="#l" x="353.391" y="127.281" style="fill:#000;fill-opacity:1"/><use xlink:href="#J" x="361.297" y="127.281" style="fill:#00c;fill-opacity:1"/><g style="fill:#000;fill-opacity:1"><use xlink:href="#k" x="372.5" y="127.281"/><use xlink:href="#j" x="375.45" y="127.281"/></g><g style="fill:#000;fill-opacity:1"><use xlink:href="#l" x="383.412" y="127.281"/><use xlink:href="#L" x="387.537" y="127.281"/><use xlink:href="#H" x="393.428" y="127.281"/></g><g style="fill:#000;fill-opacity:1"><use xlink:href="#V" x="402.08" y="127.281"/><use xlink:href="#H" x="406.796" y="127.281"/><use xlink:href="#m" x="411.665" y="127.281"/></g><g style="fill:#000;fill-opacity:1"><use xlink:href="#l" x="417.269" y="127.281"/><use xlink:href="#H" x="421.394" y="127.281"/><use xlink:href="#g" x="426.262" y="127.281"/></g><g style="fill:#000;fill-opacity:1"><use xlink:href="#h" x="434.413" y="127.281"/><use xlink:href="#ad" x="439.721" y="127.281"/></g><g style="fill:#000;fill-opacity:1"><use xlink:href="#l" x="159.509" y="139.237"/><use xlink:href="#L" x="163.634" y="139.237"/><use xlink:href="#H" x="169.524" y="139.237"/></g><g style="fill:#000;fill-opacity:1"><use xlink:href="#V" x="177.998" y="139.237"/><use xlink:href="#k" x="182.714" y="139.237"/><use xlink:href="#g" x="185.664" y="139.237"/><use xlink:href="#V" x="190.04" y="139.237"/><use xlink:href="#Q" x="194.756" y="139.237"/><use xlink:href="#H" x="197.706" y="139.237"/></g><use xlink:href="#X" x="206.181" y="139.237" style="fill:#b20000;fill-opacity:1"/><use xlink:href="#I" x="213.396" y="139.237" style="fill:#00c;fill-opacity:1"/><use xlink:href="#ab" x="220.307" y="139.237" style="fill:#000;fill-opacity:1"/><use xlink:href="#ag" x="227.599" y="139.237" style="fill:#000;fill-opacity:1"/><g style="fill:#000;fill-opacity:1"><use xlink:href="#l" x="234.171" y="139.237"/><use xlink:href="#L" x="238.296" y="139.237"/><use xlink:href="#H" x="244.187" y="139.237"/><use xlink:href="#g" x="249.056" y="139.237"/><use xlink:href="#H" x="253.431" y="139.237"/><use xlink:href="#ad" x="258.3" y="139.237"/><use xlink:href="#h" x="261.546" y="139.237"/><use xlink:href="#g" x="266.854" y="139.237"/><use xlink:href="#H" x="271.229" y="139.237"/></g><use xlink:href="#J" x="279.704" y="139.237" style="fill:#00c;fill-opacity:1"/><use xlink:href="#X" x="287.124" y="139.237" style="fill:#b20000;fill-opacity:1"/><g style="fill:#000;fill-opacity:1"><use xlink:href="#H" x="297.945" y="139.237"/><use xlink:href="#S" x="302.814" y="139.237"/><use xlink:href="#T" x="308.418" y="139.237"/><use xlink:href="#P" x="314.309" y="139.237"/><use xlink:href="#Q" x="319.464" y="139.237"/><use xlink:href="#j" x="322.414" y="139.237"/></g><use xlink:href="#J" x="330.207" y="139.237" style="fill:#00c;fill-opacity:1"/><use xlink:href="#I" x="337.627" y="139.237" style="fill:#00c;fill-opacity:1"/><use xlink:href="#R" x="344.537" y="139.237" style="fill:#000;fill-opacity:1"/><g style="fill:#000;fill-opacity:1"><use xlink:href="#ai" x="352.409" y="139.237"/><use xlink:href="#T" x="359.95" y="139.237"/><use xlink:href="#l" x="365.841" y="139.237"/></g><use xlink:href="#I" x="373.577" y="139.237" style="fill:#00c;fill-opacity:1"/><use xlink:href="#X" x="380.487" y="139.237" style="fill:#b20000;fill-opacity:1"/><use xlink:href="#Z" x="391.308" y="139.237" style="fill:#000;fill-opacity:1"/><g style="fill:#000;fill-opacity:1"><use xlink:href="#P" x="398.678" y="139.237"/><use xlink:href="#j" x="403.834" y="139.237"/></g><g style="fill:#000;fill-opacity:1"><use xlink:href="#i" x="411.626" y="139.237"/><use xlink:href="#g" x="417.517" y="139.237"/><use xlink:href="#h" x="421.892" y="139.237"/></g><use xlink:href="#N" x="426.913" y="139.237" style="fill:#000;fill-opacity:1"/><g style="fill:#000;fill-opacity:1"><use xlink:href="#H" x="432.222" y="139.237"/><use xlink:href="#U" x="437.09" y="139.237"/></g><g style="fill:#000;fill-opacity:1"><use xlink:href="#H" x="159.509" y="151.192"/><use xlink:href="#S" x="164.378" y="151.192"/><use xlink:href="#T" x="169.982" y="151.192"/><use xlink:href="#P" x="175.873" y="151.192"/><use xlink:href="#Q" x="181.028" y="151.192"/></g><g style="fill:#000;fill-opacity:1"><use xlink:href="#l" x="187.986" y="151.192"/><use xlink:href="#h" x="192.111" y="151.192"/></g><use xlink:href="#I" x="201.428" y="151.192" style="fill:#00c;fill-opacity:1"/><use xlink:href="#J" x="208.338" y="151.192" style="fill:#00c;fill-opacity:1"/><use xlink:href="#ag" x="215.758" y="151.192" style="fill:#000;fill-opacity:1"/><g style="fill:#000;fill-opacity:1"><use xlink:href="#l" x="222.832" y="151.192"/><use xlink:href="#L" x="226.957" y="151.192"/><use xlink:href="#H" x="232.848" y="151.192"/><use xlink:href="#g" x="237.717" y="151.192"/><use xlink:href="#H" x="242.092" y="151.192"/><use xlink:href="#ad" x="246.961" y="151.192"/><use xlink:href="#h" x="250.207" y="151.192"/><use xlink:href="#g" x="255.515" y="151.192"/><use xlink:href="#H" x="259.891" y="151.192"/></g><g style="fill:#000;fill-opacity:1"><use xlink:href="#H" x="268.767" y="151.192"/><use xlink:href="#P" x="273.636" y="151.192"/><use xlink:href="#V" x="278.792" y="151.192"/></g><use xlink:href="#L" x="283.221" y="151.192" style="fill:#000;fill-opacity:1"/><g style="fill:#000;fill-opacity:1"><use xlink:href="#h" x="293.111" y="151.192"/><use xlink:href="#ad" x="298.419" y="151.192"/></g><g style="fill:#000;fill-opacity:1"><use xlink:href="#l" x="305.673" y="151.192"/><use xlink:href="#L" x="309.797" y="151.192"/><use xlink:href="#H" x="315.688" y="151.192"/></g><g style="fill:#000;fill-opacity:1"><use xlink:href="#j" x="324.565" y="151.192"/><use xlink:href="#l" x="328.752" y="151.192"/><use xlink:href="#g" x="332.877" y="151.192"/><use xlink:href="#P" x="337.252" y="151.192"/><use xlink:href="#k" x="342.408" y="151.192"/><use xlink:href="#M" x="345.358" y="151.192"/><use xlink:href="#L" x="350.666" y="151.192"/></g><use xlink:href="#l" x="356.27" y="151.192" style="fill:#000;fill-opacity:1"/><g style="fill:#000;fill-opacity:1"><use xlink:href="#Q" x="364.394" y="151.192"/><use xlink:href="#k" x="367.344" y="151.192"/><use xlink:href="#m" x="370.294" y="151.192"/><use xlink:href="#H" x="376.184" y="151.192"/><use xlink:href="#j" x="381.053" y="151.192"/></g><use xlink:href="#I" x="389.257" y="151.192" style="fill:#00c;fill-opacity:1"/><use xlink:href="#X" x="396.167" y="151.192" style="fill:#b20000;fill-opacity:1"/><g style="fill:#000;fill-opacity:1"><use xlink:href="#P" x="407.392" y="151.192"/><use xlink:href="#m" x="412.548" y="151.192"/><use xlink:href="#U" x="418.439" y="151.192"/></g><use xlink:href="#J" x="428.338" y="151.192" style="fill:#00c;fill-opacity:1"/><use xlink:href="#X" x="435.758" y="151.192" style="fill:#b20000;fill-opacity:1"/><g style="fill:#000;fill-opacity:1"><use xlink:href="#H" x="159.509" y="163.147"/><use xlink:href="#S" x="164.378" y="163.147"/><use xlink:href="#T" x="169.982" y="163.147"/><use xlink:href="#P" x="175.873" y="163.147"/><use xlink:href="#Q" x="181.028" y="163.147"/><use xlink:href="#j" x="183.978" y="163.147"/></g><use xlink:href="#I" x="191.422" y="163.147" style="fill:#00c;fill-opacity:1"/><use xlink:href="#J" x="198.332" y="163.147" style="fill:#00c;fill-opacity:1"/><use xlink:href="#R" x="205.752" y="163.147" style="fill:#000;fill-opacity:1"/><g style="fill:#000;fill-opacity:1"><use xlink:href="#aa" x="213.32" y="163.147"/><use xlink:href="#m" x="221.327" y="163.147"/><use xlink:href="#U" x="227.218" y="163.147"/></g><g style="fill:#000;fill-opacity:1"><use xlink:href="#l" x="236.363" y="163.147"/><use xlink:href="#L" x="240.488" y="163.147"/><use xlink:href="#k" x="246.379" y="163.147"/><use xlink:href="#m" x="249.329" y="163.147"/><use xlink:href="#M" x="255.22" y="163.147"/><use xlink:href="#j" x="260.528" y="163.147"/></g><g style="fill:#000;fill-opacity:1"><use xlink:href="#Z" x="267.97" y="163.147"/><use xlink:href="#L" x="275.636" y="163.147"/><use xlink:href="#k" x="281.527" y="163.147"/><use xlink:href="#V" x="284.477" y="163.147"/></g><use xlink:href="#L" x="288.906" y="163.147" style="fill:#000;fill-opacity:1"/><g style="fill:#000;fill-opacity:1"><use xlink:href="#H" x="298.043" y="163.147"/><use xlink:href="#S" x="302.912" y="163.147"/><use xlink:href="#T" x="308.516" y="163.147"/><use xlink:href="#P" x="314.407" y="163.147"/><use xlink:href="#Q" x="319.562" y="163.147"/></g><g style="fill:#000;fill-opacity:1"><use xlink:href="#l" x="325.767" y="163.147"/><use xlink:href="#L" x="329.892" y="163.147"/><use xlink:href="#H" x="335.782" y="163.147"/></g><g style="fill:#000;fill-opacity:1"><use xlink:href="#j" x="343.915" y="163.147"/><use xlink:href="#P" x="348.102" y="163.147"/><use xlink:href="#ae" x="353.258" y="163.147"/><use xlink:href="#H" x="362.099" y="163.147"/></g><g style="fill:#000;fill-opacity:1"><use xlink:href="#l" x="370.222" y="163.147"/><use xlink:href="#L" x="374.347" y="163.147"/><use xlink:href="#k" x="380.238" y="163.147"/><use xlink:href="#m" x="383.188" y="163.147"/><use xlink:href="#M" x="389.079" y="163.147"/></g><g style="fill:#000;fill-opacity:1"><use xlink:href="#P" x="397.641" y="163.147"/><use xlink:href="#Q" x="402.797" y="163.147"/><use xlink:href="#j" x="405.747" y="163.147"/><use xlink:href="#h" x="409.934" y="163.147"/></g><g style="fill:#000;fill-opacity:1"><use xlink:href="#H" x="418.497" y="163.147"/><use xlink:href="#S" x="423.366" y="163.147"/><use xlink:href="#T" x="428.97" y="163.147"/><use xlink:href="#P" x="434.861" y="163.147"/><use xlink:href="#Q" x="440.017" y="163.147"/></g><g style="fill:#000;fill-opacity:1"><use xlink:href="#h" x="159.509" y="175.102"/><use xlink:href="#m" x="164.817" y="175.102"/><use xlink:href="#H" x="170.708" y="175.102"/></g><g style="fill:#000;fill-opacity:1"><use xlink:href="#P" x="178.096" y="175.102"/><use xlink:href="#m" x="183.252" y="175.102"/><use xlink:href="#h" x="189.143" y="175.102"/><use xlink:href="#l" x="194.451" y="175.102"/><use xlink:href="#L" x="198.576" y="175.102"/><use xlink:href="#H" x="204.466" y="175.102"/><use xlink:href="#g" x="209.335" y="175.102"/><use xlink:href="#ag" x="213.711" y="175.102"/></g><g style="fill:#000;fill-opacity:1"><use xlink:href="#l" x="219.378" y="175.102"/><use xlink:href="#L" x="223.502" y="175.102"/><use xlink:href="#H" x="229.393" y="175.102"/><use xlink:href="#g" x="234.262" y="175.102"/><use xlink:href="#H" x="238.637" y="175.102"/><use xlink:href="#ad" x="243.506" y="175.102"/><use xlink:href="#h" x="246.752" y="175.102"/><use xlink:href="#g" x="252.06" y="175.102"/><use xlink:href="#H" x="256.436" y="175.102"/></g><use xlink:href="#I" x="263.833" y="175.102" style="fill:#00c;fill-opacity:1"/><use xlink:href="#X" x="270.743" y="175.102" style="fill:#b20000;fill-opacity:1"/><g style="fill:#000;fill-opacity:1"><use xlink:href="#P" x="280.48" y="175.102"/><use xlink:href="#Q" x="285.636" y="175.102"/><use xlink:href="#j" x="288.586" y="175.102"/><use xlink:href="#h" x="292.773" y="175.102"/></g><g style="fill:#000;fill-opacity:1"><use xlink:href="#H" x="300.601" y="175.102"/><use xlink:href="#S" x="305.469" y="175.102"/><use xlink:href="#T" x="311.073" y="175.102"/><use xlink:href="#P" x="316.964" y="175.102"/><use xlink:href="#Q" x="322.12" y="175.102"/><use xlink:href="#j" x="325.07" y="175.102"/></g><use xlink:href="#J" x="331.779" y="175.102" style="fill:#00c;fill-opacity:1"/><use xlink:href="#X" x="339.199" y="175.102" style="fill:#b20000;fill-opacity:1"/><use xlink:href="#R" x="346.414" y="175.102" style="fill:#000;fill-opacity:1"/><g style="fill:#000;fill-opacity:1"><use xlink:href="#aj" x="353.731" y="175.102"/><use xlink:href="#L" x="361.11" y="175.102"/><use xlink:href="#H" x="367.001" y="175.102"/><use xlink:href="#g" x="371.87" y="175.102"/><use xlink:href="#H" x="376.245" y="175.102"/><use xlink:href="#ad" x="381.114" y="175.102"/><use xlink:href="#h" x="384.36" y="175.102"/><use xlink:href="#g" x="389.668" y="175.102"/><use xlink:href="#H" x="394.043" y="175.102"/></g><g style="fill:#000;fill-opacity:1"><use xlink:href="#l" x="401.432" y="175.102"/><use xlink:href="#L" x="405.556" y="175.102"/><use xlink:href="#H" x="411.447" y="175.102"/></g><g style="fill:#000;fill-opacity:1"><use xlink:href="#l" x="418.844" y="175.102"/><use xlink:href="#L" x="422.969" y="175.102"/><use xlink:href="#g" x="428.86" y="175.102"/><use xlink:href="#H" x="433.235" y="175.102"/><use xlink:href="#H" x="438.104" y="175.102"/></g><g style="fill:#000;fill-opacity:1"><use xlink:href="#j" x="159.509" y="187.057"/><use xlink:href="#l" x="163.696" y="187.057"/><use xlink:href="#g" x="167.821" y="187.057"/><use xlink:href="#P" x="172.196" y="187.057"/><use xlink:href="#k" x="177.352" y="187.057"/><use xlink:href="#M" x="180.302" y="187.057"/><use xlink:href="#L" x="185.61" y="187.057"/></g><use xlink:href="#l" x="191.205" y="187.057" style="fill:#000;fill-opacity:1"/><g style="fill:#000;fill-opacity:1"><use xlink:href="#Q" x="199.176" y="187.057"/><use xlink:href="#k" x="202.126" y="187.057"/><use xlink:href="#m" x="205.076" y="187.057"/><use xlink:href="#H" x="210.967" y="187.057"/><use xlink:href="#j" x="215.836" y="187.057"/></g><use xlink:href="#I" x="223.87" y="187.057" style="fill:#00c;fill-opacity:1"/><use xlink:href="#X" x="230.78" y="187.057" style="fill:#b20000;fill-opacity:1"/><use xlink:href="#ag" x="237.996" y="187.057" style="fill:#000;fill-opacity:1"/><use xlink:href="#I" x="244.872" y="187.057" style="fill:#00c;fill-opacity:1"/><use xlink:href="#J" x="251.782" y="187.057" style="fill:#00c;fill-opacity:1"/><use xlink:href="#ag" x="259.201" y="187.057" style="fill:#000;fill-opacity:1"/><g style="fill:#000;fill-opacity:1"><use xlink:href="#P" x="266.069" y="187.057"/><use xlink:href="#m" x="271.225" y="187.057"/><use xlink:href="#U" x="277.116" y="187.057"/></g><use xlink:href="#J" x="286.861" y="187.057" style="fill:#00c;fill-opacity:1"/><use xlink:href="#X" x="294.281" y="187.057" style="fill:#b20000;fill-opacity:1"/><g style="fill:#000;fill-opacity:1"><use xlink:href="#H" x="305.344" y="187.057"/><use xlink:href="#S" x="310.213" y="187.057"/><use xlink:href="#T" x="315.817" y="187.057"/><use xlink:href="#P" x="321.708" y="187.057"/><use xlink:href="#Q" x="326.863" y="187.057"/></g><g style="fill:#000;fill-opacity:1"><use xlink:href="#h" x="333.66" y="187.057"/><use xlink:href="#m" x="338.968" y="187.057"/><use xlink:href="#H" x="344.859" y="187.057"/></g><g style="fill:#000;fill-opacity:1"><use xlink:href="#P" x="353.574" y="187.057"/><use xlink:href="#m" x="358.73" y="187.057"/><use xlink:href="#h" x="364.621" y="187.057"/><use xlink:href="#l" x="369.929" y="187.057"/><use xlink:href="#L" x="374.053" y="187.057"/><use xlink:href="#H" x="379.944" y="187.057"/><use xlink:href="#g" x="384.813" y="187.057"/><use xlink:href="#R" x="389.189" y="187.057"/></g><g style="fill:#000;fill-opacity:1"><use xlink:href="#aj" x="397.787" y="187.057"/><use xlink:href="#L" x="405.167" y="187.057"/><use xlink:href="#H" x="411.058" y="187.057"/><use xlink:href="#g" x="415.926" y="187.057"/><use xlink:href="#H" x="420.302" y="187.057"/><use xlink:href="#ad" x="425.171" y="187.057"/><use xlink:href="#h" x="428.417" y="187.057"/><use xlink:href="#g" x="433.725" y="187.057"/><use xlink:href="#H" x="438.1" y="187.057"/></g><g style="fill:#000;fill-opacity:1"><use xlink:href="#l" x="159.509" y="199.012"/><use xlink:href="#L" x="163.634" y="199.012"/><use xlink:href="#H" x="169.524" y="199.012"/></g><g style="fill:#ff8000;fill-opacity:1"><use xlink:href="#l" x="178.518" y="199.012"/><use xlink:href="#g" x="182.643" y="199.012"/><use xlink:href="#k" x="187.018" y="199.012"/><use xlink:href="#P" x="189.968" y="199.012"/><use xlink:href="#m" x="195.124" y="199.012"/><use xlink:href="#M" x="201.015" y="199.012"/><use xlink:href="#Q" x="206.323" y="199.012"/><use xlink:href="#H" x="209.273" y="199.012"/></g><use xlink:href="#I" x="218.267" y="199.012" style="fill:#00c;fill-opacity:1"/><use xlink:href="#J" x="225.177" y="199.012" style="fill:#00c;fill-opacity:1"/><use xlink:href="#X" x="232.597" y="199.012" style="fill:#b20000;fill-opacity:1"/><g style="fill:#000;fill-opacity:1"><use xlink:href="#k" x="243.938" y="199.012"/><use xlink:href="#j" x="246.888" y="199.012"/></g><g style="fill:#000;fill-opacity:1"><use xlink:href="#H" x="255.2" y="199.012"/><use xlink:href="#S" x="260.069" y="199.012"/><use xlink:href="#T" x="265.673" y="199.012"/><use xlink:href="#k" x="271.563" y="199.012"/><use xlink:href="#Q" x="274.513" y="199.012"/><use xlink:href="#P" x="277.463" y="199.012"/><use xlink:href="#l" x="282.619" y="199.012"/><use xlink:href="#H" x="286.743" y="199.012"/><use xlink:href="#g" x="291.612" y="199.012"/><use xlink:href="#P" x="295.988" y="199.012"/><use xlink:href="#Q" x="301.144" y="199.012"/><use xlink:href="#ag" x="304.093" y="199.012"/></g><g style="fill:#000;fill-opacity:1"><use xlink:href="#P" x="311.311" y="199.012"/><use xlink:href="#m" x="316.467" y="199.012"/><use xlink:href="#U" x="322.358" y="199.012"/></g><g style="fill:#000;fill-opacity:1"><use xlink:href="#k" x="332.373" y="199.012"/><use xlink:href="#l" x="335.323" y="199.012"/></g><g style="fill:#000;fill-opacity:1"><use xlink:href="#L" x="343.572" y="199.012"/><use xlink:href="#P" x="349.463" y="199.012"/><use xlink:href="#j" x="354.619" y="199.012"/></g><use xlink:href="#K" x="362.931" y="199.012" style="fill:#000;fill-opacity:1"/><g style="fill:#000;fill-opacity:1"><use xlink:href="#H" x="369.118" y="199.012"/><use xlink:href="#H" x="373.986" y="199.012"/><use xlink:href="#m" x="378.855" y="199.012"/></g><g style="fill:#000;fill-opacity:1"><use xlink:href="#V" x="388.88" y="199.012"/><use xlink:href="#h" x="393.596" y="199.012"/><use xlink:href="#m" x="398.904" y="199.012"/><use xlink:href="#j" x="404.795" y="199.012"/><use xlink:href="#l" x="408.982" y="199.012"/><use xlink:href="#g" x="413.107" y="199.012"/><use xlink:href="#T" x="417.482" y="199.012"/><use xlink:href="#V" x="423.373" y="199.012"/><use xlink:href="#l" x="428.09" y="199.012"/><use xlink:href="#H" x="432.214" y="199.012"/><use xlink:href="#U" x="437.083" y="199.012"/></g><g style="fill:#000;fill-opacity:1"><use xlink:href="#h" x="159.509" y="210.968"/><use xlink:href="#m" x="164.817" y="210.968"/></g><g style="fill:#000;fill-opacity:1"><use xlink:href="#l" x="174.241" y="210.968"/><use xlink:href="#L" x="178.365" y="210.968"/><use xlink:href="#H" x="184.256" y="210.968"/></g><g style="fill:#000;fill-opacity:1"><use xlink:href="#M" x="192.658" y="210.968"/><use xlink:href="#k" x="197.966" y="210.968"/><use xlink:href="#N" x="200.916" y="210.968"/></g><g style="fill:#000;fill-opacity:1"><use xlink:href="#H" x="206.224" y="210.968"/><use xlink:href="#m" x="211.093" y="210.968"/></g><g style="fill:#000;fill-opacity:1"><use xlink:href="#O" x="220.516" y="210.968"/><use xlink:href="#m" x="226.407" y="210.968"/><use xlink:href="#k" x="232.298" y="210.968"/><use xlink:href="#l" x="235.248" y="210.968"/><use xlink:href="#H" x="239.373" y="210.968"/></g><g style="fill:#00c;fill-opacity:1"><use xlink:href="#j" x="247.774" y="210.968"/><use xlink:href="#l" x="251.961" y="210.968"/><use xlink:href="#g" x="256.086" y="210.968"/><use xlink:href="#P" x="260.461" y="210.968"/><use xlink:href="#k" x="265.617" y="210.968"/><use xlink:href="#M" x="268.567" y="210.968"/><use xlink:href="#L" x="273.875" y="210.968"/></g><use xlink:href="#l" x="279.47" y="210.968" style="fill:#00c;fill-opacity:1"/><g style="fill:#00c;fill-opacity:1"><use xlink:href="#Q" x="287.127" y="210.968"/><use xlink:href="#k" x="290.077" y="210.968"/><use xlink:href="#m" x="293.027" y="210.968"/><use xlink:href="#H" x="298.918" y="210.968"/></g><use xlink:href="#I" x="307.319" y="210.968" style="fill:#00c;fill-opacity:1"/><use xlink:href="#J" x="314.23" y="210.968" style="fill:#00c;fill-opacity:1"/><use xlink:href="#R" x="321.649" y="210.968" style="fill:#000;fill-opacity:1"/></svg>