<svg xmlns="http://www.w3.org/2000/svg" xmlns:xlink="http://www.w3.org/1999/xlink" width="362.067" height="250.105" viewBox="0 0 271.55 187.579" version="1.2"><defs><symbol overflow="visible" id="a"><path style="stroke:none" d="M.453 1.219c-.078.343-.11.406-.547.406-.11 0-.218 0-.218.188 0 .078.046.125.124.125.266 0 .563-.032.829-.032.343 0 .671.032 1 .032.046 0 .171 0 .171-.204 0-.109-.093-.109-.234-.109-.5 0-.5-.063-.5-.156 0-.125.422-1.75.484-2 .125.297.407.64.922.64 1.157 0 2.407-1.453 2.407-2.921 0-.938-.579-1.594-1.329-1.594-.5 0-.984.36-1.312.75-.094-.547-.531-.75-.89-.75-.47 0-.657.39-.735.562-.188.344-.313.938-.313.969 0 .11.094.11.11.11.11 0 .11-.016.172-.235.172-.703.375-1.188.734-1.188.172 0 .313.079.313.454 0 .234-.032.343-.079.515Zm1.75-4.328c.063-.266.344-.547.516-.704.36-.296.64-.374.812-.374.39 0 .64.343.64.937 0 .594-.327 1.734-.515 2.11-.344.702-.812 1.03-1.187 1.03-.656 0-.781-.828-.781-.89 0-.016 0-.031.03-.156Zm0 0"/></symbol><symbol overflow="visible" id="c"><path style="stroke:none" d="M4.5-4.297c0-.047-.031-.094-.094-.094-.11 0-.515.391-.672.688-.218-.547-.609-.703-.937-.703-1.172 0-2.39 1.468-2.39 2.922C.406-.516.983.109 1.718.109c.422 0 .812-.234 1.172-.593-.094.343-.422 1.687-.454 1.78-.078.282-.156.313-.718.329-.125 0-.219 0-.219.203 0 0 0 .11.125.11.313 0 .672-.032 1-.032.328 0 .688.032 1.031.032.047 0 .172 0 .172-.204 0-.109-.094-.109-.265-.109-.47 0-.47-.063-.47-.156 0-.078.016-.14.032-.219ZM1.75-.109c-.61 0-.64-.766-.64-.938 0-.484.28-1.562.452-1.984.313-.735.829-1.156 1.235-1.156.656 0 .797.812.797.875 0 .062-.547 2.25-.578 2.28-.157.282-.72.923-1.266.923Zm0 0"/></symbol><symbol overflow="visible" id="i"><path style="stroke:none" d="M.875-.594c-.031.156-.094.39-.094.438 0 .172.14.265.297.265a.414.414 0 0 0 .375-.28c0-.016.125-.485.188-.735l.218-.89c.047-.235.11-.454.172-.673.031-.172.11-.469.125-.5.14-.312.672-1.219 1.625-1.219.453 0 .531.375.531.704 0 .25-.062.53-.14.828L3.89-1.5l-.204.75c-.03.203-.124.547-.124.594 0 .172.14.265.28.265.313 0 .376-.25.454-.562.14-.563.516-2.016.594-2.406.03-.125.562-1.329 1.656-1.329.422 0 .531.344.531.704 0 .562-.422 1.703-.625 2.234-.078.234-.125.344-.125.547 0 .469.344.812.813.812.937 0 1.312-1.453 1.312-1.53 0-.11-.094-.11-.125-.11-.094 0-.094.031-.14.187-.157.532-.47 1.235-1.016 1.235-.172 0-.25-.094-.25-.329 0-.25.094-.484.187-.703.188-.53.61-1.625.61-2.203 0-.64-.407-1.062-1.157-1.062-.734 0-1.25.437-1.625.968 0-.124-.03-.468-.312-.703-.25-.218-.563-.265-.813-.265-.906 0-1.39.64-1.562.875-.047-.578-.469-.875-.922-.875-.453 0-.64.39-.734.562-.172.36-.297.938-.297.969 0 .11.094.11.11.11.109 0 .109-.016.171-.235.172-.703.375-1.188.735-1.188.156 0 .296.079.296.454 0 .218-.03.328-.156.843Zm0 0"/></symbol><symbol overflow="visible" id="k"><path style="stroke:none" d="M3.656-3.984h.86c.203 0 .296 0 .296-.204 0-.109-.093-.109-.265-.109h-.828l.203-1.14c.047-.204.187-.907.25-1.032.078-.187.25-.343.469-.343.03 0 .296 0 .484.187a.557.557 0 0 0-.547.531c0 .235.188.36.375.36.266 0 .547-.235.547-.61 0-.453-.453-.687-.86-.687-.343 0-.968.187-1.265 1.172-.063.203-.094.312-.328 1.562h-.688c-.203 0-.312 0-.312.188 0 .125.094.125.281.125h.656L2.25-.047c-.188.969-.36 1.875-.875 1.875-.047 0-.281 0-.484-.187.468-.032.562-.391.562-.532 0-.234-.187-.359-.375-.359-.266 0-.547.234-.547.61 0 .437.438.687.844.687.547 0 .953-.594 1.125-.969.328-.625.547-1.828.563-1.906Zm0 0"/></symbol><symbol overflow="visible" id="l"><path style="stroke:none" d="M2.047-3.984h.937c.204 0 .313 0 .313-.204 0-.109-.11-.109-.281-.109H2.14c.359-1.422.406-1.61.406-1.672 0-.172-.125-.265-.297-.265-.031 0-.313 0-.39.359l-.391 1.578H.53c-.203 0-.297 0-.297.188 0 .125.078.125.282.125h.875C.67-1.156.625-.984.625-.813c0 .547.375.922.922.922 1.016 0 1.578-1.453 1.578-1.53 0-.11-.078-.11-.11-.11-.093 0-.109.031-.156.14C2.438-.344 1.906-.109 1.563-.109c-.204 0-.313-.125-.313-.454 0-.25.031-.312.063-.484Zm0 0"/></symbol><symbol overflow="visible" id="b"><path style="stroke:none" d="M2.328-4.438c0-.187 0-.187-.203-.187-.453.438-1.078.438-1.36.438v.25c.157 0 .626 0 1-.188v3.547c0 .234 0 .328-.687.328H.812V0c.125 0 .985-.031 1.235-.031.219 0 1.094.031 1.25.031v-.25H3.03c-.703 0-.703-.094-.703-.328Zm0 0"/></symbol><symbol overflow="visible" id="d"><path style="stroke:none" d="M3.516-1.266H3.28c-.015.157-.094.563-.187.625-.047.047-.578.047-.688.047H1.125c.734-.64.984-.844 1.39-1.172.516-.406 1-.843 1-1.5 0-.843-.734-1.359-1.624-1.359-.86 0-1.454.61-1.454 1.25 0 .344.297.39.376.39.156 0 .359-.124.359-.374 0-.125-.047-.375-.406-.375.218-.485.687-.641 1.015-.641.703 0 1.063.547 1.063 1.11 0 .609-.438 1.078-.656 1.328L.516-.266C.437-.203.437-.187.437 0h2.876Zm0 0"/></symbol><symbol overflow="visible" id="e"><path style="stroke:none" d="M1.906-2.328c.547 0 .938.375.938 1.125 0 .86-.516 1.125-.906 1.125-.282 0-.907-.078-1.188-.5.328 0 .406-.235.406-.39 0-.22-.172-.376-.39-.376a.38.38 0 0 0-.391.407C.375-.281 1.094.14 1.938.14c.968 0 1.64-.657 1.64-1.344 0-.547-.437-1.094-1.203-1.25.719-.266.984-.781.984-1.219 0-.547-.625-.953-1.406-.953-.766 0-1.36.375-1.36.938 0 .234.157.359.36.359.219 0 .36-.156.36-.344 0-.203-.141-.36-.36-.375.25-.297.719-.375.985-.375.312 0 .75.156.75.75 0 .297-.094.625-.282.828-.219.266-.422.281-.765.313-.172.015-.188.015-.22.015-.015 0-.077.016-.077.094 0 .094.062.094.187.094Zm0 0"/></symbol><symbol overflow="visible" id="f"><path style="stroke:none" d="M3.688-1.14v-.25h-.782V-4.5c0-.14 0-.203-.14-.203-.094 0-.125 0-.188.11L.266-1.392v.25h2.062v.563c0 .25 0 .328-.578.328h-.188V0c.36-.016.797-.031 1.047-.031.266 0 .704.015 1.063.031v-.25h-.188c-.578 0-.578-.078-.578-.328v-.563ZM2.375-3.939v2.547H.531Zm0 0"/></symbol><symbol overflow="visible" id="g"><path style="stroke:none" d="M1.078-3.89c.36.093.563.093.672.093.922 0 1.469-.625 1.469-.734 0-.078-.047-.094-.078-.094-.016 0-.032 0-.063.016-.172.062-.531.203-1.047.203-.203 0-.562-.016-1.015-.188-.079-.031-.094-.031-.094-.031-.094 0-.094.078-.094.188v2.046c0 .125 0 .204.11.204.062 0 .078 0 .14-.094.297-.375.734-.438.969-.438.422 0 .61.328.64.39.126.235.172.5.172.907 0 .203 0 .61-.218.922a.984.984 0 0 1-.813.422c-.453 0-.922-.25-1.094-.719.266.016.407-.156.407-.344 0-.296-.266-.343-.36-.343 0 0-.344 0-.344.375 0 .625.579 1.25 1.407 1.25.89 0 1.672-.657 1.672-1.547 0-.782-.594-1.5-1.454-1.5-.312 0-.671.062-.984.328Zm0 0"/></symbol><symbol overflow="visible" id="h"><path style="stroke:none" d="M1.047-2.281c0-.563.047-1.078.312-1.516.235-.375.61-.625 1.063-.625.203 0 .484.047.625.234-.172.016-.328.141-.328.344a.32.32 0 0 0 .328.328c.219 0 .344-.14.344-.343 0-.407-.297-.766-.985-.766-1 0-2.031.922-2.031 2.422C.375-.406 1.219.14 2 .14c.844 0 1.578-.657 1.578-1.563 0-.89-.703-1.547-1.515-1.547-.563 0-.86.375-1.016.688ZM2-.078c-.36 0-.625-.203-.781-.516-.094-.203-.157-.562-.157-.969 0-.687.407-1.203.97-1.203.312 0 .53.125.702.375.172.266.172.563.172.97 0 .39 0 .687-.187.968A.815.815 0 0 1 2-.078Zm0 0"/></symbol><symbol overflow="visible" id="j"><path style="stroke:none" d="M6.844-3.266c.156 0 .343 0 .343-.187 0-.203-.187-.203-.328-.203H.891c-.141 0-.329 0-.329.203 0 .187.188.187.329.187Zm.015 1.938c.141 0 .329 0 .329-.203 0-.188-.188-.188-.344-.188H.89c-.141 0-.329 0-.329.188 0 .203.188.203.329.203Zm0 0"/></symbol><symbol overflow="visible" id="q"><path style="stroke:none" d="M2.938-6.375c0-.25 0-.266-.235-.266C2.078-6 1.203-6 .891-6v.313c.203 0 .78 0 1.296-.266v5.172c0 .36-.03.469-.921.469H.953V0c.344-.031 1.203-.031 1.61-.031.39 0 1.265 0 1.609.031v-.313h-.313c-.906 0-.921-.109-.921-.468Zm0 0"/></symbol><symbol overflow="visible" id="r"><path style="stroke:none" d="m1.266-.766 1.062-1.03c1.547-1.376 2.14-1.907 2.14-2.907 0-1.14-.89-1.938-2.109-1.938C1.234-6.64.5-5.719.5-4.828c0 .547.5.547.531.547.172 0 .516-.11.516-.532a.513.513 0 0 0-.531-.515c-.079 0-.094 0-.125.016.218-.657.765-1.016 1.343-1.016.907 0 1.329.812 1.329 1.625 0 .797-.485 1.578-1.047 2.203L.609-.375C.5-.265.5-.235.5 0h3.703l.266-1.734h-.235C4.172-1.438 4.11-1 4-.844c-.063.078-.719.078-.938.078Zm0 0"/></symbol><symbol overflow="visible" id="m"><path style="stroke:none" d="M3.016-6.672a.483.483 0 0 0 .03-.125c0-.094-.062-.125-.14-.125a.555.555 0 0 0-.156.031l-.984.079c-.125 0-.235.015-.235.203 0 .109.11.109.25.109.469 0 .485.063.485.172 0 .031-.016.156-.016.172L.766-.281C.75-.266.75-.171.75-.156c0 .11.094.265.281.265.203 0 .328-.171.36-.28.046-.141.359-1.438.437-1.72.047-.218.11-.437.156-.656.094-.36.094-.375.282-.687.203-.329.625-.954 1.328-.954.437 0 .453.454.453.657 0 .625-.438 1.812-.578 2.203-.125.344-.156.437-.156.64 0 .438.28.797.75.797.937 0 1.265-1.484 1.265-1.53 0-.11-.078-.11-.14-.11-.141 0-.141.031-.172.172-.079.265-.344 1.25-.922 1.25-.219 0-.219-.157-.219-.297 0-.235.094-.5.172-.735.203-.53.61-1.656.61-2.234 0-.813-.548-1.031-1.032-1.031-.672 0-1.016.343-1.328.64Zm0 0"/></symbol><symbol overflow="visible" id="n"><path style="stroke:none" d="M5.078-2.766c0-.953-.594-1.64-1.453-1.64-1.25 0-2.531 1.422-2.531 2.875 0 1.015.625 1.64 1.453 1.64 1.234 0 2.531-1.421 2.531-2.875ZM2.547-.109c-.39 0-.75-.313-.75-1.032 0-.5.25-1.593.578-2.14.36-.61.844-.906 1.234-.906.485 0 .766.437.766 1.03 0 .423-.219 1.454-.531 2.048-.297.546-.797 1-1.297 1Zm0 0"/></symbol><symbol overflow="visible" id="o"><path style="stroke:none" d="M3.016-6.672a.483.483 0 0 0 .03-.125c0-.094-.062-.125-.14-.125a.555.555 0 0 0-.156.031l-.984.079c-.125 0-.235.015-.235.203 0 .109.11.109.25.109.469 0 .485.063.485.172 0 .031-.016.156-.016.172L1-1.172a1.412 1.412 0 0 0-.063.39c0 .516.36.891.844.891.375 0 .578-.265.703-.515.172-.344.313-.985.313-1.016 0-.11-.078-.11-.156-.11-.047 0-.11 0-.141.063l-.063.25c-.171.688-.359 1.11-.64 1.11-.266 0-.266-.266-.266-.407 0-.078 0-.218.063-.468Zm0 0"/></symbol><symbol overflow="visible" id="p"><path style="stroke:none" d="M5.547-6.672a.483.483 0 0 0 .031-.125c0-.094-.062-.125-.14-.125a.555.555 0 0 0-.157.031l-.984.079c-.125 0-.234.015-.234.203 0 .109.109.109.25.109.468 0 .5.063.5.172 0 .031-.032.156-.032.172l-.578 2.328c-.156-.313-.422-.578-.844-.578-1.109 0-2.28 1.515-2.28 2.968C1.078-.594 1.53.11 2.28.11c.36 0 .797-.203 1.203-.703.11.5.47.703.829.703s.578-.25.718-.562c.188-.375.297-.953.297-.969 0-.11-.078-.11-.14-.11-.125 0-.141.016-.188.235-.14.563-.328 1.188-.672 1.188-.266 0-.266-.266-.266-.407 0-.078 0-.218.063-.468ZM3.53-1.219c-.078.313-.687 1.11-1.234 1.11-.469 0-.547-.594-.547-.891 0-.5.313-1.656.5-2.078.25-.61.703-1.11 1.11-1.11.078 0 .312.016.484.297.11.157.203.438.203.625 0 .032-.016.079-.031.141Zm0 0"/></symbol></defs><path style="fill:none;stroke-width:.79701;stroke-linecap:butt;stroke-linejoin:miter;stroke:#000;stroke-opacity:1;stroke-miterlimit:10" d="M8.504-31.182c0 4.699-3.809 8.503-8.504 8.503a8.503 8.503 0 0 1-8.504-8.503A8.506 8.506 0 0 1 0-39.686a8.506 8.506 0 0 1 8.504 8.504Zm0 0" transform="matrix(1 0 0 -1 23.012 -21.471)"/><use xlink:href="#a" x="1.108" y="10.89" style="fill:#000;fill-opacity:1"/><use xlink:href="#b" x="6.12" y="12.384" style="fill:#000;fill-opacity:1"/><path style="fill:none;stroke-width:.79701;stroke-linecap:butt;stroke-linejoin:miter;stroke:#000;stroke-opacity:1;stroke-miterlimit:10" d="M235.277-31.182a8.5 8.5 0 0 1-8.504 8.503 8.503 8.503 0 0 1-8.504-8.503 8.506 8.506 0 0 1 8.504-8.504c4.7 0 8.504 3.808 8.504 8.504Zm0 0" transform="matrix(1 0 0 -1 23.012 -21.471)"/><use xlink:href="#c" x="262.205" y="10.89" style="fill:#000;fill-opacity:1"/><use xlink:href="#b" x="266.653" y="12.384" style="fill:#000;fill-opacity:1"/><path style="fill:none;stroke-width:.79701;stroke-linecap:butt;stroke-linejoin:miter;stroke:#000;stroke-opacity:1;stroke-miterlimit:10" d="M8.504-62.362A8.506 8.506 0 0 1 0-53.858a8.506 8.506 0 0 1-8.504-8.504c0-4.7 3.808-8.504 8.504-8.504a8.503 8.503 0 0 1 8.504 8.504Zm0 0" transform="matrix(1 0 0 -1 23.012 -21.471)"/><use xlink:href="#a" x="1.108" y="42.075" style="fill:#000;fill-opacity:1"/><use xlink:href="#d" x="6.12" y="43.571" style="fill:#000;fill-opacity:1"/><path style="fill:none;stroke-width:.79701;stroke-linecap:butt;stroke-linejoin:miter;stroke:#000;stroke-opacity:1;stroke-miterlimit:10" d="M235.277-62.362a8.503 8.503 0 0 1-8.504 8.504 8.506 8.506 0 0 1-8.504-8.504c0-4.7 3.809-8.504 8.504-8.504a8.5 8.5 0 0 1 8.504 8.504Zm0 0" transform="matrix(1 0 0 -1 23.012 -21.471)"/><use xlink:href="#c" x="262.205" y="42.075" style="fill:#000;fill-opacity:1"/><use xlink:href="#d" x="266.653" y="43.571" style="fill:#000;fill-opacity:1"/><path style="fill:none;stroke-width:.79701;stroke-linecap:butt;stroke-linejoin:miter;stroke:#000;stroke-opacity:1;stroke-miterlimit:10" d="M8.504-93.546c0 4.7-3.809 8.504-8.504 8.504a8.503 8.503 0 0 1-8.504-8.504A8.506 8.506 0 0 1 0-102.05a8.506 8.506 0 0 1 8.504 8.504Zm0 0" transform="matrix(1 0 0 -1 23.012 -21.471)"/><use xlink:href="#a" x="1.108" y="73.261" style="fill:#000;fill-opacity:1"/><use xlink:href="#e" x="6.12" y="74.755" style="fill:#000;fill-opacity:1"/><path style="fill:none;stroke-width:.79701;stroke-linecap:butt;stroke-linejoin:miter;stroke:#000;stroke-opacity:1;stroke-miterlimit:10" d="M235.277-93.546a8.5 8.5 0 0 1-8.504 8.504 8.503 8.503 0 0 1-8.504-8.504 8.506 8.506 0 0 1 8.504-8.504c4.7 0 8.504 3.809 8.504 8.504Zm0 0" transform="matrix(1 0 0 -1 23.012 -21.471)"/><use xlink:href="#c" x="262.205" y="73.261" style="fill:#000;fill-opacity:1"/><use xlink:href="#e" x="266.653" y="74.755" style="fill:#000;fill-opacity:1"/><path style="fill:none;stroke-width:.79701;stroke-linecap:butt;stroke-linejoin:miter;stroke:#000;stroke-opacity:1;stroke-miterlimit:10" d="M8.504-124.725A8.506 8.506 0 0 1 0-116.222a8.506 8.506 0 0 1-8.504-8.503c0-4.7 3.808-8.504 8.504-8.504a8.503 8.503 0 0 1 8.504 8.504Zm0 0" transform="matrix(1 0 0 -1 23.012 -21.471)"/><use xlink:href="#a" x="1.108" y="104.447" style="fill:#000;fill-opacity:1"/><use xlink:href="#f" x="6.12" y="105.942" style="fill:#000;fill-opacity:1"/><path style="fill:none;stroke-width:.79701;stroke-linecap:butt;stroke-linejoin:miter;stroke:#000;stroke-opacity:1;stroke-miterlimit:10" d="M235.277-124.725a8.503 8.503 0 0 1-8.504 8.503 8.506 8.506 0 0 1-8.504-8.503c0-4.7 3.809-8.504 8.504-8.504a8.5 8.5 0 0 1 8.504 8.504Zm0 0" transform="matrix(1 0 0 -1 23.012 -21.471)"/><use xlink:href="#c" x="262.205" y="104.447" style="fill:#000;fill-opacity:1"/><use xlink:href="#f" x="266.653" y="105.942" style="fill:#000;fill-opacity:1"/><path style="fill:none;stroke-width:.79701;stroke-linecap:butt;stroke-linejoin:miter;stroke:#000;stroke-opacity:1;stroke-miterlimit:10" d="M8.504-155.909c0 4.7-3.809 8.504-8.504 8.504a8.503 8.503 0 0 1-8.504-8.504A8.506 8.506 0 0 1 0-164.413a8.506 8.506 0 0 1 8.504 8.504Zm0 0" transform="matrix(1 0 0 -1 23.012 -21.471)"/><use xlink:href="#a" x="1.108" y="135.632" style="fill:#000;fill-opacity:1"/><use xlink:href="#g" x="6.12" y="137.126" style="fill:#000;fill-opacity:1"/><path style="fill:none;stroke-width:.79701;stroke-linecap:butt;stroke-linejoin:miter;stroke:#000;stroke-opacity:1;stroke-miterlimit:10" d="M235.277-155.909a8.5 8.5 0 0 1-8.504 8.504 8.503 8.503 0 0 1-8.504-8.504 8.506 8.506 0 0 1 8.504-8.504c4.7 0 8.504 3.809 8.504 8.504Zm0 0" transform="matrix(1 0 0 -1 23.012 -21.471)"/><use xlink:href="#c" x="262.205" y="135.632" style="fill:#000;fill-opacity:1"/><use xlink:href="#g" x="266.653" y="137.126" style="fill:#000;fill-opacity:1"/><path style="fill:none;stroke-width:.79701;stroke-linecap:butt;stroke-linejoin:miter;stroke:#000;stroke-opacity:1;stroke-miterlimit:10" d="M8.504-187.089A8.506 8.506 0 0 1 0-178.585a8.506 8.506 0 0 1-8.504-8.504c0-4.699 3.808-8.504 8.504-8.504a8.503 8.503 0 0 1 8.504 8.504Zm0 0" transform="matrix(1 0 0 -1 23.012 -21.471)"/><use xlink:href="#a" x="1.108" y="166.817" style="fill:#000;fill-opacity:1"/><use xlink:href="#h" x="6.12" y="168.313" style="fill:#000;fill-opacity:1"/><path style="fill:none;stroke-width:.79701;stroke-linecap:butt;stroke-linejoin:miter;stroke:#000;stroke-opacity:1;stroke-miterlimit:10" d="M235.277-187.089a8.503 8.503 0 0 1-8.504 8.504 8.506 8.506 0 0 1-8.504-8.504c0-4.699 3.809-8.504 8.504-8.504a8.5 8.5 0 0 1 8.504 8.504Zm0 0" transform="matrix(1 0 0 -1 23.012 -21.471)"/><use xlink:href="#c" x="262.205" y="166.817" style="fill:#000;fill-opacity:1"/><use xlink:href="#h" x="266.653" y="168.313" style="fill:#000;fill-opacity:1"/><path style="fill:none;stroke-width:.79701;stroke-linecap:butt;stroke-linejoin:miter;stroke:#000;stroke-opacity:1;stroke-miterlimit:10" d="M93.543-70.159a8.503 8.503 0 0 1-8.504 8.504 8.506 8.506 0 0 1-8.504-8.504 8.506 8.506 0 0 1 8.504-8.504c4.699 0 8.504 3.809 8.504 8.504Zm0 0" transform="matrix(1 0 0 -1 23.012 -21.471)"/><use xlink:href="#i" x="91.826" y="34.336" style="fill:#000;fill-opacity:1"/><use xlink:href="#b" x="100.573" y="35.83" style="fill:#000;fill-opacity:1"/><use xlink:href="#j" x="107.81" y="34.336" style="fill:#000;fill-opacity:1"/><use xlink:href="#k" x="118.326" y="34.336" style="fill:#000;fill-opacity:1"/><path style="fill:none;stroke-width:.79701;stroke-linecap:butt;stroke-linejoin:miter;stroke:#000;stroke-opacity:1;stroke-miterlimit:10" d="M93.543-92.835a8.503 8.503 0 0 1-8.504 8.504 8.506 8.506 0 0 1-8.504-8.504c0-4.699 3.808-8.504 8.504-8.504a8.5 8.5 0 0 1 8.504 8.504Zm0 0" transform="matrix(1 0 0 -1 23.012 -21.471)"/><use xlink:href="#i" x="93.002" y="89.927" style="fill:#000;fill-opacity:1"/><use xlink:href="#b" x="101.749" y="91.421" style="fill:#000;fill-opacity:1"/><use xlink:href="#j" x="108.986" y="89.927" style="fill:#000;fill-opacity:1"/><use xlink:href="#l" x="119.502" y="89.927" style="fill:#000;fill-opacity:1"/><path style="fill:none;stroke-width:.79701;stroke-linecap:butt;stroke-linejoin:miter;stroke:#000;stroke-opacity:1;stroke-miterlimit:10" d="M150.238-70.159a8.506 8.506 0 0 1-8.504 8.504 8.506 8.506 0 0 1-8.504-8.504 8.506 8.506 0 0 1 8.504-8.504 8.506 8.506 0 0 1 8.504 8.504Zm0 0" transform="matrix(1 0 0 -1 23.012 -21.471)"/><use xlink:href="#i" x="148.519" y="34.336" style="fill:#000;fill-opacity:1"/><use xlink:href="#d" x="157.266" y="35.83" style="fill:#000;fill-opacity:1"/><use xlink:href="#j" x="164.503" y="34.336" style="fill:#000;fill-opacity:1"/><use xlink:href="#k" x="175.019" y="34.336" style="fill:#000;fill-opacity:1"/><path style="fill:none;stroke-width:.79701;stroke-linecap:butt;stroke-linejoin:miter;stroke:#000;stroke-opacity:1;stroke-miterlimit:10" d="M150.238-92.835a8.506 8.506 0 0 1-8.504 8.504 8.506 8.506 0 0 1-8.504-8.504c0-4.699 3.809-8.504 8.504-8.504a8.503 8.503 0 0 1 8.504 8.504Zm0 0" transform="matrix(1 0 0 -1 23.012 -21.471)"/><use xlink:href="#i" x="149.695" y="89.927" style="fill:#000;fill-opacity:1"/><use xlink:href="#d" x="158.442" y="91.421" style="fill:#000;fill-opacity:1"/><use xlink:href="#j" x="165.679" y="89.927" style="fill:#000;fill-opacity:1"/><use xlink:href="#l" x="176.195" y="89.927" style="fill:#000;fill-opacity:1"/><path style="fill:none;stroke-width:.79701;stroke-linecap:butt;stroke-linejoin:miter;stroke:#000;stroke-opacity:1;stroke-miterlimit:10" d="M121.89-140.32a8.5 8.5 0 0 1-8.504 8.505 8.503 8.503 0 0 1-8.503-8.504 8.506 8.506 0 0 1 8.503-8.504c4.7 0 8.504 3.809 8.504 8.504Zm0 0" transform="matrix(1 0 0 -1 23.012 -21.471)"/><g style="fill:#000;fill-opacity:1"><use xlink:href="#m" x="117.839" y="106.441"/><use xlink:href="#n" x="122.931" y="106.441"/><use xlink:href="#o" x="128.023" y="106.441"/><use xlink:href="#p" x="130.569" y="106.441"/></g><use xlink:href="#j" x="139.458" y="106.441" style="fill:#000;fill-opacity:1"/><use xlink:href="#q" x="149.967" y="106.441" style="fill:#000;fill-opacity:1"/><path style="fill:none;stroke-width:.79701;stroke-linecap:butt;stroke-linejoin:miter;stroke:#000;stroke-opacity:1;stroke-miterlimit:10" d="M121.89-162.995a8.503 8.503 0 0 1-8.504 8.504 8.506 8.506 0 0 1-8.503-8.504 8.506 8.506 0 0 1 8.503-8.504c4.7 0 8.504 3.809 8.504 8.504Zm0 0" transform="matrix(1 0 0 -1 23.012 -21.471)"/><g style="fill:#000;fill-opacity:1"><use xlink:href="#m" x="117.839" y="160.886"/><use xlink:href="#n" x="122.931" y="160.886"/><use xlink:href="#o" x="128.023" y="160.886"/><use xlink:href="#p" x="130.569" y="160.886"/></g><use xlink:href="#j" x="139.458" y="160.886" style="fill:#000;fill-opacity:1"/><use xlink:href="#r" x="149.967" y="160.886" style="fill:#000;fill-opacity:1"/><path style="stroke:none;fill-rule:nonzero;fill:#000;fill-opacity:1" d="M25.223 9.715c0-1.223-.989-2.211-2.211-2.211-1.223 0-2.211.988-2.211 2.21 0 1.223.988 2.212 2.21 2.212 1.223 0 2.212-.989 2.212-2.211ZM252 9.715a2.212 2.212 0 0 0-4.426 0c0 1.223.992 2.21 2.211 2.21A2.212 2.212 0 0 0 252 9.716ZM110.266 48.695a2.214 2.214 0 1 0-2.215 2.215 2.216 2.216 0 0 0 2.215-2.215ZM166.957 48.695a2.211 2.211 0 0 0-4.422 0c0 1.223.988 2.215 2.211 2.215 1.223 0 2.211-.992 2.211-2.215ZM138.61 118.863a2.211 2.211 0 0 0-4.423 0c0 1.223.989 2.215 2.211 2.215 1.223 0 2.211-.992 2.211-2.215Zm0 0"/><path style="fill-rule:nonzero;fill:#000;fill-opacity:1;stroke-width:.3985;stroke-linecap:butt;stroke-linejoin:miter;stroke:#000;stroke-opacity:1;stroke-miterlimit:10" d="M41.101-51.733h2.836v9.922h-2.836Zm0 0" transform="matrix(1 0 0 -1 23.012 -21.471)"/><path style="fill:none;stroke-width:.3985;stroke-linecap:butt;stroke-linejoin:miter;stroke:#000;stroke-opacity:1;stroke-miterlimit:10" d="M38.097-45.159 8.36-34.253" transform="matrix(1 0 0 -1 23.012 -21.471)"/><path style="stroke:none;fill-rule:nonzero;fill:#000;fill-opacity:1" d="m62.98 24.371-2.445-2.594.574 1.91-1.672 1.083"/><path style="fill:none;stroke-width:.3985;stroke-linecap:butt;stroke-linejoin:miter;stroke:#000;stroke-opacity:1;stroke-miterlimit:10" d="M40.902-47.374 11.164-58.28" transform="matrix(1 0 0 -1 23.012 -21.471)"/><path style="stroke:none;fill-rule:nonzero;fill:#000;fill-opacity:1" d="m32.305 37.492 3.543.399-1.672-1.082.574-1.91"/><path style="fill-rule:nonzero;fill:#000;fill-opacity:1;stroke-width:.3985;stroke-linecap:butt;stroke-linejoin:miter;stroke:#000;stroke-opacity:1;stroke-miterlimit:10" d="M41.101-82.913h2.836v9.918h-2.836Zm0 0" transform="matrix(1 0 0 -1 23.012 -21.471)"/><path style="fill:none;stroke-width:.3985;stroke-linecap:butt;stroke-linejoin:miter;stroke:#000;stroke-opacity:1;stroke-miterlimit:10" d="M38.097-76.343 8.36-65.44" transform="matrix(1 0 0 -1 23.012 -21.471)"/><path style="stroke:none;fill-rule:nonzero;fill:#000;fill-opacity:1" d="m62.98 55.559-2.445-2.594.574 1.906-1.672 1.086"/><path style="fill:none;stroke-width:.3985;stroke-linecap:butt;stroke-linejoin:miter;stroke:#000;stroke-opacity:1;stroke-miterlimit:10" d="m47.078-77.132 29.207 5.356" transform="matrix(1 0 0 -1 23.012 -21.471)"/><path style="stroke:none;fill-rule:nonzero;fill:#000;fill-opacity:1" d="m68.129 56.02 3.422.992-1.461-1.352.887-1.785"/><path style="fill:none;stroke-width:.3985;stroke-linecap:butt;stroke-linejoin:miter;stroke:#000;stroke-opacity:1;stroke-miterlimit:10" d="M40.902-78.557 11.164-89.464" transform="matrix(1 0 0 -1 23.012 -21.471)"/><path style="stroke:none;fill-rule:nonzero;fill:#000;fill-opacity:1" d="m32.305 68.68 3.543.398-1.672-1.086.574-1.906"/><path style="fill:none;stroke-width:.3985;stroke-linecap:butt;stroke-linejoin:miter;stroke:#000;stroke-opacity:1;stroke-miterlimit:10" d="m44.136-78.53 29.68-10.39" transform="matrix(1 0 0 -1 23.012 -21.471)"/><path style="stroke:none;fill-rule:nonzero;fill:#000;fill-opacity:1" d="m98.71 68.11-2.483-2.56.601 1.9-1.656 1.109"/><path style="fill-rule:nonzero;fill:#000;fill-opacity:1;stroke-width:.3985;stroke-linecap:butt;stroke-linejoin:miter;stroke:#000;stroke-opacity:1;stroke-miterlimit:10" d="M41.101-107.862h2.836v9.922h-2.836Zm0 0" transform="matrix(1 0 0 -1 23.012 -21.471)"/><path style="fill:none;stroke-width:.3985;stroke-linecap:butt;stroke-linejoin:miter;stroke:#000;stroke-opacity:1;stroke-miterlimit:10" d="M37.984-101.917 8.695-95.472" transform="matrix(1 0 0 -1 23.012 -21.471)"/><path style="stroke:none;fill-rule:nonzero;fill:#000;fill-opacity:1" d="m62.941 80.875-2.77-2.242.825 1.812-1.508 1.301"/><path style="fill:none;stroke-width:.3985;stroke-linecap:butt;stroke-linejoin:miter;stroke:#000;stroke-opacity:1;stroke-miterlimit:10" d="m40.902-103.745-30.324-15.57" transform="matrix(1 0 0 -1 23.012 -21.471)"/><path style="stroke:none;fill-rule:nonzero;fill:#000;fill-opacity:1" d="m31.82 98.754 3.563-.04-1.793-.87.336-1.965"/><path style="fill:none;stroke-width:.3985;stroke-linecap:butt;stroke-linejoin:miter;stroke:#000;stroke-opacity:1;stroke-miterlimit:10" d="m46.781-105.163 56.09-29.621" transform="matrix(1 0 0 -1 23.012 -21.471)"/><path style="stroke:none;fill-rule:nonzero;fill:#000;fill-opacity:1" d="m68.031 82.762 2.074 2.898-.312-1.969 1.8-.851M127.645 114.242l-2.075-2.894.313 1.965-1.801.851"/><path style="fill-rule:nonzero;fill:#000;fill-opacity:1;stroke-width:.3985;stroke-linecap:butt;stroke-linejoin:miter;stroke:#000;stroke-opacity:1;stroke-miterlimit:10" d="M41.101-120.33h2.836v9.917h-2.836Zm0 0" transform="matrix(1 0 0 -1 23.012 -21.471)"/><path style="fill:none;stroke-width:.3985;stroke-linecap:butt;stroke-linejoin:miter;stroke:#000;stroke-opacity:1;stroke-miterlimit:10" d="M38.246-113.194 7.918-97.628" transform="matrix(1 0 0 -1 23.012 -21.471)"/><path style="stroke:none;fill-rule:nonzero;fill:#000;fill-opacity:1" d="m63.031 92.633-2.11-2.875.337 1.965-1.793.87"/><path style="fill:none;stroke-width:.3985;stroke-linecap:butt;stroke-linejoin:miter;stroke:#000;stroke-opacity:1;stroke-miterlimit:10" d="m46.617-118.14 59.379-39.914" transform="matrix(1 0 0 -1 23.012 -21.471)"/><path style="stroke:none;fill-rule:nonzero;fill:#000;fill-opacity:1" d="m67.977 95.559 1.753 3.101-.101-1.992 1.883-.652"/><path style="fill:none;stroke-width:.3985;stroke-linecap:butt;stroke-linejoin:miter;stroke:#000;stroke-opacity:1;stroke-miterlimit:10" d="m40.902-115.745-29.289-6.445" transform="matrix(1 0 0 -1 23.012 -21.471)"/><path style="stroke:none;fill-rule:nonzero;fill:#000;fill-opacity:1" d="m32.68 101.148 3.457.872-1.512-1.301.824-1.813"/><path style="fill:none;stroke-width:.3985;stroke-linecap:butt;stroke-linejoin:miter;stroke:#000;stroke-opacity:1;stroke-miterlimit:10" d="m44.136-116.038 57.575-23.183" transform="matrix(1 0 0 -1 23.012 -21.471)"/><path style="stroke:none;fill-rule:nonzero;fill:#000;fill-opacity:1" d="m126.574 118.492-2.363-2.668.512 1.926-1.703 1.031"/><path style="fill-rule:nonzero;fill:#000;fill-opacity:1;stroke-width:.3985;stroke-linecap:butt;stroke-linejoin:miter;stroke:#000;stroke-opacity:1;stroke-miterlimit:10" d="M41.101-139.042h2.836v9.922h-2.836Zm0 0" transform="matrix(1 0 0 -1 23.012 -21.471)"/><path style="fill:none;stroke-width:.3985;stroke-linecap:butt;stroke-linejoin:miter;stroke:#000;stroke-opacity:1;stroke-miterlimit:10" d="M37.984-133.104 8.695-126.66" transform="matrix(1 0 0 -1 23.012 -21.471)"/><path style="stroke:none;fill-rule:nonzero;fill:#000;fill-opacity:1" d="m62.941 112.059-2.77-2.243.825 1.817-1.508 1.297"/><path style="fill:none;stroke-width:.3985;stroke-linecap:butt;stroke-linejoin:miter;stroke:#000;stroke-opacity:1;stroke-miterlimit:10" d="m40.902-134.932-30.324-15.57" transform="matrix(1 0 0 -1 23.012 -21.471)"/><path style="stroke:none;fill-rule:nonzero;fill:#000;fill-opacity:1" d="m31.82 129.941 3.563-.039-1.793-.87.336-1.966"/><path style="fill:none;stroke-width:.3985;stroke-linecap:butt;stroke-linejoin:miter;stroke:#000;stroke-opacity:1;stroke-miterlimit:10" d="m46.648-131.44 85.09 54.828" transform="matrix(1 0 0 -1 23.012 -21.471)"/><path style="stroke:none;fill-rule:nonzero;fill:#000;fill-opacity:1" d="m67.984 111.047 3.547-.387-1.87-.691.14-1.989M156.426 54.059l-3.543.386 1.867.696-.14 1.984"/><path style="fill-rule:nonzero;fill:#000;fill-opacity:1;stroke-width:.3985;stroke-linecap:butt;stroke-linejoin:miter;stroke:#000;stroke-opacity:1;stroke-miterlimit:10" d="M41.101-151.514h2.836v9.921h-2.836Zm0 0" transform="matrix(1 0 0 -1 23.012 -21.471)"/><path style="fill:none;stroke-width:.3985;stroke-linecap:butt;stroke-linejoin:miter;stroke:#000;stroke-opacity:1;stroke-miterlimit:10" d="m38.246-144.382-30.328 15.57" transform="matrix(1 0 0 -1 23.012 -21.471)"/><path style="stroke:none;fill-rule:nonzero;fill:#000;fill-opacity:1" d="m63.031 123.82-2.11-2.875.337 1.965-1.793.871"/><path style="fill:none;stroke-width:.3985;stroke-linecap:butt;stroke-linejoin:miter;stroke:#000;stroke-opacity:1;stroke-miterlimit:10" d="m40.902-146.932-29.289-6.446" transform="matrix(1 0 0 -1 23.012 -21.471)"/><path style="stroke:none;fill-rule:nonzero;fill:#000;fill-opacity:1" d="m32.68 132.336 3.457.871-1.512-1.3.824-1.813"/><path style="fill:none;stroke-width:.3985;stroke-linecap:butt;stroke-linejoin:miter;stroke:#000;stroke-opacity:1;stroke-miterlimit:10" d="m47.047-147.624 54.757-12.707" transform="matrix(1 0 0 -1 23.012 -21.471)"/><path style="stroke:none;fill-rule:nonzero;fill:#000;fill-opacity:1" d="m68.121 125.703 2.742 2.274-.804-1.825 1.527-1.28M126.758 139.313l-2.746-2.274.804 1.82-1.527 1.286"/><path style="fill-rule:nonzero;fill:#000;fill-opacity:1;stroke-width:.3985;stroke-linecap:butt;stroke-linejoin:miter;stroke:#000;stroke-opacity:1;stroke-miterlimit:10" d="M41.101-176.46h2.836v9.922h-2.836Zm0 0" transform="matrix(1 0 0 -1 23.012 -21.471)"/><path style="fill:none;stroke-width:.3985;stroke-linecap:butt;stroke-linejoin:miter;stroke:#000;stroke-opacity:1;stroke-miterlimit:10" d="M38.097-169.901 8.355-159" transform="matrix(1 0 0 -1 23.012 -21.471)"/><path style="stroke:none;fill-rule:nonzero;fill:#000;fill-opacity:1" d="m62.98 149.117-2.445-2.594.574 1.907-1.672 1.086"/><path style="fill:none;stroke-width:.3985;stroke-linecap:butt;stroke-linejoin:miter;stroke:#000;stroke-opacity:1;stroke-miterlimit:10" d="m45.558-165.905 35.25 65.223" transform="matrix(1 0 0 -1 23.012 -21.471)"/><path style="stroke:none;fill-rule:nonzero;fill:#000;fill-opacity:1" d="m67.621 146.184 2.918-2.047-1.969.297-.836-1.813"/><path style="fill:none;stroke-width:.3985;stroke-linecap:butt;stroke-linejoin:miter;stroke:#000;stroke-opacity:1;stroke-miterlimit:10" d="m40.902-172.116-29.738-10.91" transform="matrix(1 0 0 -1 23.012 -21.471)"/><path style="stroke:none;fill-rule:nonzero;fill:#000;fill-opacity:1" d="m32.309 162.238 3.539.399-1.672-1.082.574-1.91"/><path style="fill:none;stroke-width:.3985;stroke-linecap:butt;stroke-linejoin:miter;stroke:#000;stroke-opacity:1;stroke-miterlimit:10" d="m44.136-167.67 36.305 86.534" transform="matrix(1 0 0 -1 23.012 -21.471)"/><path style="stroke:none;fill-rule:nonzero;fill:#000;fill-opacity:1" d="m104.223 57.824-2.703 2.324 1.933-.484 1.008 1.719"/><path style="fill-rule:nonzero;fill:#000;fill-opacity:1;stroke-width:.3985;stroke-linecap:butt;stroke-linejoin:miter;stroke:#000;stroke-opacity:1;stroke-miterlimit:10" d="M41.101-207.643h2.836v9.922h-2.836Zm0 0" transform="matrix(1 0 0 -1 23.012 -21.471)"/><path style="fill:none;stroke-width:.3985;stroke-linecap:butt;stroke-linejoin:miter;stroke:#000;stroke-opacity:1;stroke-miterlimit:10" d="M38.097-201.089 8.355-190.186" transform="matrix(1 0 0 -1 23.012 -21.471)"/><path style="stroke:none;fill-rule:nonzero;fill:#000;fill-opacity:1" d="m62.98 180.305-2.445-2.598.574 1.91-1.672 1.086"/><path style="fill:none;stroke-width:.3985;stroke-linecap:butt;stroke-linejoin:miter;stroke:#000;stroke-opacity:1;stroke-miterlimit:10" d="M41.39-197.55 6.933-40.4" transform="matrix(1 0 0 -1 23.012 -21.471)"/><path style="stroke:none;fill-rule:nonzero;fill:#000;fill-opacity:1" d="m29.52 16.984-.875 3.453 1.3-1.507 1.817.828"/><path style="fill-rule:nonzero;fill:#000;fill-opacity:1;stroke-width:.3985;stroke-linecap:butt;stroke-linejoin:miter;stroke:#000;stroke-opacity:1;stroke-miterlimit:10" d="M182.836-51.733h2.836v9.922h-2.836Zm0 0" transform="matrix(1 0 0 -1 23.012 -21.471)"/><path style="fill:none;stroke-width:.3985;stroke-linecap:butt;stroke-linejoin:miter;stroke:#000;stroke-opacity:1;stroke-miterlimit:10" d="m188.675-45.159 29.743 10.906" transform="matrix(1 0 0 -1 23.012 -21.471)"/><path style="stroke:none;fill-rule:nonzero;fill:#000;fill-opacity:1" d="m209.816 24.371 3.543.399-1.672-1.082.575-1.91"/><path style="fill:none;stroke-width:.3985;stroke-linecap:butt;stroke-linejoin:miter;stroke:#000;stroke-opacity:1;stroke-miterlimit:10" d="m185.87-47.374 29.74-10.906" transform="matrix(1 0 0 -1 23.012 -21.471)"/><path style="stroke:none;fill-rule:nonzero;fill:#000;fill-opacity:1" d="m240.492 37.492-2.445-2.594.574 1.91-1.672 1.083"/><path style="fill-rule:nonzero;fill:#000;fill-opacity:1;stroke-width:.3985;stroke-linecap:butt;stroke-linejoin:miter;stroke:#000;stroke-opacity:1;stroke-miterlimit:10" d="M182.836-82.913h2.836v9.918h-2.836Zm0 0" transform="matrix(1 0 0 -1 23.012 -21.471)"/><path style="fill:none;stroke-width:.3985;stroke-linecap:butt;stroke-linejoin:miter;stroke:#000;stroke-opacity:1;stroke-miterlimit:10" d="m188.675-76.343 29.743 10.903" transform="matrix(1 0 0 -1 23.012 -21.471)"/><path style="stroke:none;fill-rule:nonzero;fill:#000;fill-opacity:1" d="m209.816 55.559 3.543.398-1.672-1.086.575-1.906"/><path style="fill:none;stroke-width:.3985;stroke-linecap:butt;stroke-linejoin:miter;stroke:#000;stroke-opacity:1;stroke-miterlimit:10" d="m179.699-77.132-29.211 5.356" transform="matrix(1 0 0 -1 23.012 -21.471)"/><path style="stroke:none;fill-rule:nonzero;fill:#000;fill-opacity:1" d="m204.668 56.02-2.848-2.145.89 1.785-1.464 1.352"/><path style="fill:none;stroke-width:.3985;stroke-linecap:butt;stroke-linejoin:miter;stroke:#000;stroke-opacity:1;stroke-miterlimit:10" d="m185.87-78.557 29.74-10.907" transform="matrix(1 0 0 -1 23.012 -21.471)"/><path style="stroke:none;fill-rule:nonzero;fill:#000;fill-opacity:1" d="m240.492 68.68-2.445-2.594.574 1.906-1.672 1.086"/><path style="fill:none;stroke-width:.3985;stroke-linecap:butt;stroke-linejoin:miter;stroke:#000;stroke-opacity:1;stroke-miterlimit:10" d="m182.636-78.53-29.68-10.39" transform="matrix(1 0 0 -1 23.012 -21.471)"/><path style="stroke:none;fill-rule:nonzero;fill:#000;fill-opacity:1" d="m174.09 68.11 3.535.449-1.656-1.11.601-1.898"/><path style="fill-rule:nonzero;fill:#000;fill-opacity:1;stroke-width:.3985;stroke-linecap:butt;stroke-linejoin:miter;stroke:#000;stroke-opacity:1;stroke-miterlimit:10" d="M182.836-107.862h2.836v9.922h-2.836Zm0 0" transform="matrix(1 0 0 -1 23.012 -21.471)"/><path style="fill:none;stroke-width:.3985;stroke-linecap:butt;stroke-linejoin:miter;stroke:#000;stroke-opacity:1;stroke-miterlimit:10" d="m188.789-101.917 29.293 6.445" transform="matrix(1 0 0 -1 23.012 -21.471)"/><path style="stroke:none;fill-rule:nonzero;fill:#000;fill-opacity:1" d="m209.855 80.875 3.458.871-1.512-1.3.824-1.813"/><path style="fill:none;stroke-width:.3985;stroke-linecap:butt;stroke-linejoin:miter;stroke:#000;stroke-opacity:1;stroke-miterlimit:10" d="m185.87-103.745 30.325-15.57" transform="matrix(1 0 0 -1 23.012 -21.471)"/><path style="stroke:none;fill-rule:nonzero;fill:#000;fill-opacity:1" d="m240.98 98.754-2.109-2.875.336 1.965-1.793.87"/><path style="fill:none;stroke-width:.3985;stroke-linecap:butt;stroke-linejoin:miter;stroke:#000;stroke-opacity:1;stroke-miterlimit:10" d="m180.36-106.218-57.903-49.109" transform="matrix(1 0 0 -1 23.012 -21.471)"/><path style="stroke:none;fill-rule:nonzero;fill:#000;fill-opacity:1" d="m204.89 83.457-3.46.848 1.941.441.117 1.988M143.95 135.145l3.46-.848-1.941-.442-.121-1.988"/><path style="fill-rule:nonzero;fill:#000;fill-opacity:1;stroke-width:.3985;stroke-linecap:butt;stroke-linejoin:miter;stroke:#000;stroke-opacity:1;stroke-miterlimit:10" d="M182.836-120.33h2.836v9.917h-2.836Zm0 0" transform="matrix(1 0 0 -1 23.012 -21.471)"/><path style="fill:none;stroke-width:.3985;stroke-linecap:butt;stroke-linejoin:miter;stroke:#000;stroke-opacity:1;stroke-miterlimit:10" d="m188.531-113.194 30.324 15.566" transform="matrix(1 0 0 -1 23.012 -21.471)"/><path style="stroke:none;fill-rule:nonzero;fill:#000;fill-opacity:1" d="m209.77 92.633 3.562-.04-1.789-.87.336-1.965"/><path style="fill:none;stroke-width:.3985;stroke-linecap:butt;stroke-linejoin:miter;stroke:#000;stroke-opacity:1;stroke-miterlimit:10" d="m179.82-116.948-58.035-20.434" transform="matrix(1 0 0 -1 23.012 -21.471)"/><path style="stroke:none;fill-rule:nonzero;fill:#000;fill-opacity:1" d="m204.71 94.816-3.538-.445 1.66 1.106-.602 1.902"/><path style="fill:none;stroke-width:.3985;stroke-linecap:butt;stroke-linejoin:miter;stroke:#000;stroke-opacity:1;stroke-miterlimit:10" d="m185.87-115.745 29.29-6.445" transform="matrix(1 0 0 -1 23.012 -21.471)"/><path style="stroke:none;fill-rule:nonzero;fill:#000;fill-opacity:1" d="m240.117 101.148-2.77-2.242.825 1.813-1.508 1.3"/><path style="fill:none;stroke-width:.3985;stroke-linecap:butt;stroke-linejoin:miter;stroke:#000;stroke-opacity:1;stroke-miterlimit:10" d="m182.636-116.632-57.976-44.562" transform="matrix(1 0 0 -1 23.012 -21.471)"/><path style="stroke:none;fill-rule:nonzero;fill:#000;fill-opacity:1" d="m146.09 140.938 3.5-.68-1.918-.535-.024-1.993"/><path style="fill-rule:nonzero;fill:#000;fill-opacity:1;stroke-width:.3985;stroke-linecap:butt;stroke-linejoin:miter;stroke:#000;stroke-opacity:1;stroke-miterlimit:10" d="M182.836-139.042h2.836v9.922h-2.836Zm0 0" transform="matrix(1 0 0 -1 23.012 -21.471)"/><path style="fill:none;stroke-width:.3985;stroke-linecap:butt;stroke-linejoin:miter;stroke:#000;stroke-opacity:1;stroke-miterlimit:10" d="m188.789-133.104 29.293 6.445" transform="matrix(1 0 0 -1 23.012 -21.471)"/><path style="stroke:none;fill-rule:nonzero;fill:#000;fill-opacity:1" d="m209.855 112.059 3.458.87-1.512-1.296.824-1.817"/><path style="fill:none;stroke-width:.3985;stroke-linecap:butt;stroke-linejoin:miter;stroke:#000;stroke-opacity:1;stroke-miterlimit:10" d="m185.87-134.932 30.325-15.57" transform="matrix(1 0 0 -1 23.012 -21.471)"/><path style="stroke:none;fill-rule:nonzero;fill:#000;fill-opacity:1" d="m240.98 129.941-2.109-2.875.336 1.965-1.793.871"/><path style="fill:none;stroke-width:.3985;stroke-linecap:butt;stroke-linejoin:miter;stroke:#000;stroke-opacity:1;stroke-miterlimit:10" d="m180.125-131.44-85.09 54.828" transform="matrix(1 0 0 -1 23.012 -21.471)"/><path style="stroke:none;fill-rule:nonzero;fill:#000;fill-opacity:1" d="m204.813 111.047-1.817-3.067.14 1.989-1.866.691M116.371 54.059l1.817 3.066-.141-1.984 1.867-.696"/><path style="fill-rule:nonzero;fill:#000;fill-opacity:1;stroke-width:.3985;stroke-linecap:butt;stroke-linejoin:miter;stroke:#000;stroke-opacity:1;stroke-miterlimit:10" d="M182.836-151.514h2.836v9.921h-2.836Zm0 0" transform="matrix(1 0 0 -1 23.012 -21.471)"/><path style="fill:none;stroke-width:.3985;stroke-linecap:butt;stroke-linejoin:miter;stroke:#000;stroke-opacity:1;stroke-miterlimit:10" d="m188.531-144.382 30.324 15.57" transform="matrix(1 0 0 -1 23.012 -21.471)"/><path style="stroke:none;fill-rule:nonzero;fill:#000;fill-opacity:1" d="m209.77 123.82 3.562-.039-1.789-.87.336-1.966"/><path style="fill:none;stroke-width:.3985;stroke-linecap:butt;stroke-linejoin:miter;stroke:#000;stroke-opacity:1;stroke-miterlimit:10" d="m185.87-146.932 29.29-6.446" transform="matrix(1 0 0 -1 23.012 -21.471)"/><path style="stroke:none;fill-rule:nonzero;fill:#000;fill-opacity:1" d="m240.117 132.336-2.77-2.242.825 1.812-1.508 1.301"/><path style="fill:none;stroke-width:.3985;stroke-linecap:butt;stroke-linejoin:miter;stroke:#000;stroke-opacity:1;stroke-miterlimit:10" d="m179.66-146.17-54.426 4.788" transform="matrix(1 0 0 -1 23.012 -21.471)"/><path style="stroke:none;fill-rule:nonzero;fill:#000;fill-opacity:1" d="m204.656 124.875-3.035-1.867 1.05 1.691-1.327 1.485M146.258 119.734l3.039 1.868-1.05-1.692 1.327-1.484"/><path style="fill-rule:nonzero;fill:#000;fill-opacity:1;stroke-width:.3985;stroke-linecap:butt;stroke-linejoin:miter;stroke:#000;stroke-opacity:1;stroke-miterlimit:10" d="M182.836-176.46h2.836v9.922h-2.836Zm0 0" transform="matrix(1 0 0 -1 23.012 -21.471)"/><path style="fill:none;stroke-width:.3985;stroke-linecap:butt;stroke-linejoin:miter;stroke:#000;stroke-opacity:1;stroke-miterlimit:10" d="M188.675-169.901 218.418-159" transform="matrix(1 0 0 -1 23.012 -21.471)"/><path style="stroke:none;fill-rule:nonzero;fill:#000;fill-opacity:1" d="m209.816 149.117 3.543.399-1.672-1.086.575-1.907"/><path style="fill:none;stroke-width:.3985;stroke-linecap:butt;stroke-linejoin:miter;stroke:#000;stroke-opacity:1;stroke-miterlimit:10" d="m181.218-165.905-35.253 65.223" transform="matrix(1 0 0 -1 23.012 -21.471)"/><path style="stroke:none;fill-rule:nonzero;fill:#000;fill-opacity:1" d="m205.176 146.184-.113-3.563-.833 1.813-1.972-.297"/><path style="fill:none;stroke-width:.3985;stroke-linecap:butt;stroke-linejoin:miter;stroke:#000;stroke-opacity:1;stroke-miterlimit:10" d="m185.87-172.116 29.74-10.91" transform="matrix(1 0 0 -1 23.012 -21.471)"/><path style="stroke:none;fill-rule:nonzero;fill:#000;fill-opacity:1" d="m240.492 162.238-2.445-2.593.574 1.91-1.672 1.082"/><path style="fill:none;stroke-width:.3985;stroke-linecap:butt;stroke-linejoin:miter;stroke:#000;stroke-opacity:1;stroke-miterlimit:10" d="m182.636-167.67-36.304 86.534" transform="matrix(1 0 0 -1 23.012 -21.471)"/><path style="stroke:none;fill-rule:nonzero;fill:#000;fill-opacity:1" d="m168.574 57.824-.234 3.559 1.004-1.719 1.933.484"/><path style="fill-rule:nonzero;fill:#000;fill-opacity:1;stroke-width:.3985;stroke-linecap:butt;stroke-linejoin:miter;stroke:#000;stroke-opacity:1;stroke-miterlimit:10" d="M182.836-207.643h2.836v9.922h-2.836Zm0 0" transform="matrix(1 0 0 -1 23.012 -21.471)"/><path style="fill:none;stroke-width:.3985;stroke-linecap:butt;stroke-linejoin:miter;stroke:#000;stroke-opacity:1;stroke-miterlimit:10" d="m188.675-201.089 29.743 10.903" transform="matrix(1 0 0 -1 23.012 -21.471)"/><path style="stroke:none;fill-rule:nonzero;fill:#000;fill-opacity:1" d="m209.816 180.305 3.543.398-1.672-1.086.575-1.91"/><path style="fill:none;stroke-width:.3985;stroke-linecap:butt;stroke-linejoin:miter;stroke:#000;stroke-opacity:1;stroke-miterlimit:10" d="M185.386-197.55 219.84-40.4" transform="matrix(1 0 0 -1 23.012 -21.471)"/><path style="stroke:none;fill-rule:nonzero;fill:#000;fill-opacity:1" d="m243.277 16.984-2.238 2.774 1.813-.828 1.3 1.508"/></svg>