<svg xmlns="http://www.w3.org/2000/svg" width="55.203" height="55.179" viewBox="0 0 41.402 41.384" version="1.2"><defs><clipPath id="a"><path d="M0 23h18v18.074H0Zm0 0"/></clipPath></defs><g clip-path="url(#a)"><path style="fill:none;stroke-width:.3985;stroke-linecap:butt;stroke-linejoin:miter;stroke:#000;stroke-opacity:1;stroke-miterlimit:10" d="m.001 0-10.59-10.589" transform="matrix(1 0 0 -1 11.741 29.04)"/></g><path style="fill:none;stroke-width:.31879;stroke-linecap:round;stroke-linejoin:round;stroke:#000;stroke-opacity:1;stroke-miterlimit:10" d="M-1.197 1.594C-1.097.997 0 .1.298 0c-.299-.1-1.395-.997-1.495-1.594" transform="scale(-1 1) rotate(45 -48.413 18.425)"/><path style="fill:none;stroke-width:.3985;stroke-linecap:butt;stroke-linejoin:miter;stroke:#000;stroke-opacity:1;stroke-miterlimit:10" d="M.001 0v27.888" transform="matrix(1 0 0 -1 11.741 29.04)"/><path style="fill:none;stroke-width:.31879;stroke-linecap:round;stroke-linejoin:round;stroke:#000;stroke-opacity:1;stroke-miterlimit:10" d="M-1.196 1.593C-1.095.995-.001.1.3-.001 0-.1-1.095-.997-1.196-1.595" transform="matrix(0 -1 -1 0 11.741 1.151)"/><path style="fill:none;stroke-width:.3985;stroke-linecap:butt;stroke-linejoin:miter;stroke:#000;stroke-opacity:1;stroke-miterlimit:10" d="M.001 0h27.887" transform="matrix(1 0 0 -1 11.741 29.04)"/><path style="fill:none;stroke-width:.31879;stroke-linecap:round;stroke-linejoin:round;stroke:#000;stroke-opacity:1;stroke-miterlimit:10" d="M-1.196 1.595C-1.094.997 0 .099.3 0 0-.101-1.094-.995-1.196-1.593" transform="matrix(1 0 0 -1 39.63 29.04)"/></svg>