<svg xmlns="http://www.w3.org/2000/svg" xmlns:xlink="http://www.w3.org/1999/xlink" width="385.155" height="62.3pt" viewBox="0 0 288.866 62.3" version="1.2"><defs><symbol overflow="visible" id="b"><path style="stroke:none" d="M3.078.313c0-.126-.047-.157-.187-.25C2.062-.5 1.75-1.391 1.75-2.126c0-.672.25-1.594 1.156-2.203.125-.094.172-.125.172-.25a.254.254 0 0 0-.265-.25c-.204 0-1.641.906-1.641 2.703 0 .813.312 1.438.562 1.781.375.516.907.906 1.079.906.218 0 .265-.171.265-.25Zm0 0"/></symbol><symbol overflow="visible" id="c"><path style="stroke:none" d="M3.219-.906c0-.735-.906-.906-1.14-.938l-.704-.125C1.187-2 1-2.079 1-2.25c0-.156.219-.328.813-.328.515 0 .609.172.625.328.015.14.03.281.28.281.298 0 .298-.156.298-.328v-.469c0-.14-.016-.328-.25-.328-.157 0-.22.063-.25.125-.282-.125-.563-.125-.688-.125-1.187 0-1.344.594-1.344.844 0 .656.735.797 1.391.89.297.063.828.141.828.454 0 .234-.25.422-.828.422-.297 0-.656-.063-.813-.563-.03-.156-.078-.234-.28-.234-.298 0-.298.172-.298.328v.656c0 .14 0 .344.25.344.079 0 .188 0 .282-.234.328.218.671.234.859.234 1.125 0 1.344-.61 1.344-.953Zm0 0"/></symbol><symbol overflow="visible" id="d"><path style="stroke:none" d="M2.313-.469a.477.477 0 0 0-.485-.484.47.47 0 0 0-.469.469c0 .28.22.484.47.484a.473.473 0 0 0 .484-.469Zm0 0"/></symbol><symbol overflow="visible" id="e"><path style="stroke:none" d="M3.266-.797c0-.234-.235-.234-.297-.234-.125 0-.203 0-.266.172-.047.078-.187.375-.625.375a1.027 1.027 0 0 1-1.015-1.032c0-.312.187-1.062 1.062-1.062l.344.015c.015.282.172.376.36.376.187 0 .358-.126.358-.36 0-.531-.734-.547-1.062-.547-1.219 0-1.64.953-1.64 1.578 0 .844.671 1.563 1.546 1.563 1 0 1.235-.719 1.235-.844Zm0 0"/></symbol><symbol overflow="visible" id="f"><path style="stroke:none" d="M3.25-.797c0-.234-.234-.234-.281-.234-.156 0-.219.015-.281.172-.141.328-.485.375-.657.375-.469 0-.937-.297-1.062-.813h1.953c.172 0 .328 0 .328-.312 0-.797-.453-1.485-1.375-1.485-.828 0-1.516.703-1.516 1.563S1.08.047 1.984.047c.938 0 1.266-.656 1.266-.844Zm-.594-1.015H.97c.125-.438.484-.766.906-.766.328 0 .703.156.781.765Zm0 0"/></symbol><symbol overflow="visible" id="g"><path style="stroke:none" d="M3.578-.266c0-.25-.203-.25-.328-.25H3v-1.53c0-.72-.36-1.032-.938-1.032-.39 0-.671.172-.843.297 0-.172-.047-.25-.313-.25h-.5c-.14 0-.328 0-.328.25 0 .265.203.265.313.265h.25v2H.406c-.14 0-.328 0-.328.25C.078 0 .281 0 .391 0h1.093c.11 0 .329 0 .329-.266 0-.25-.204-.25-.344-.25h-.25v-1.156c0-.64.484-.875.797-.875.328 0 .406.172.406.547v1.484h-.203c-.14 0-.344 0-.344.25 0 .266.219.266.344.266H3.25c.11 0 .328 0 .328-.266Zm0 0"/></symbol><symbol overflow="visible" id="h"><path style="stroke:none" d="M3.14-.906c0-.156 0-.313-.296-.313-.266 0-.266.157-.266.297-.015.375-.36.438-.515.438-.454 0-.454-.313-.454-.47v-1.562h1.047c.125 0 .328 0 .328-.265 0-.25-.187-.25-.328-.25H1.61v-.516c0-.14-.015-.328-.296-.328-.282 0-.282.172-.282.328v.516H.484c-.125 0-.328 0-.328.25 0 .265.203.265.328.265h.547v1.61c0 .687.485.953 1.016.953S3.14-.266 3.14-.906Zm0 0"/></symbol><symbol overflow="visible" id="i"><path style="stroke:none" d="M3.406-2.594c0-.156-.078-.484-.703-.484-.328 0-.734.11-1.094.469v-.094c0-.25-.046-.328-.328-.328h-.75c-.125 0-.328 0-.328.25 0 .265.203.265.328.265h.5v2h-.5c-.125 0-.328 0-.328.25C.203 0 .406 0 .531 0h1.781c.126 0 .329 0 .329-.266 0-.25-.204-.25-.329-.25H1.61v-.796c0-.61.36-1.22 1.11-1.235 0 .156.172.281.344.281.187 0 .343-.125.343-.328Zm0 0"/></symbol><symbol overflow="visible" id="j"><path style="stroke:none" d="M2.484-2.125c0-.828-.312-1.453-.562-1.797-.375-.515-.906-.906-1.078-.906-.203 0-.266.187-.266.25 0 .125.094.187.14.219 1.095.718 1.188 1.796 1.188 2.234 0 .656-.25 1.578-1.14 2.188C.64.14.578.186.578.313c0 .078.063.25.266.25s1.64-.907 1.64-2.688Zm0 0"/></symbol><symbol overflow="visible" id="k"><path style="stroke:none" d="M3.36-1.234c0-.47-.297-.875-.72-1.094.344-.25.516-.64.516-1 0-.516-.515-1-1.328-1-.86 0-1.344.36-1.344.844 0 .265.204.375.36.375.172 0 .36-.141.36-.36 0-.078-.032-.14-.048-.172.203-.171.625-.171.688-.171.422 0 .734.218.734.5a.718.718 0 0 1-.25.546c-.219.172-.375.188-.61.188-.437 0-.546.062-.546.281 0 .266.203.266.328.266h.313c.64 0 .968.422.968.797 0 .39-.36.78-.937.78-.25 0-.719-.062-.907-.327A.364.364 0 0 0 1-1a.363.363 0 0 0-.36-.36c-.171 0-.343.126-.343.391C.297-.344.969.078 1.844.078c.922 0 1.515-.656 1.515-1.312Zm0 0"/></symbol><symbol overflow="visible" id="l"><path style="stroke:none" d="M3.313-2.125c0-1.297-.72-2.203-1.485-2.203-.781 0-1.5.922-1.5 2.203 0 1.297.734 2.203 1.5 2.203.781 0 1.484-.922 1.484-2.203Zm-.563-.078c0 .969-.422 1.75-.922 1.75-.516 0-.922-.781-.922-1.75 0-.953.438-1.61.922-1.61.469 0 .922.657.922 1.61Zm0 0"/></symbol><symbol overflow="visible" id="m"><path style="stroke:none" d="M3.281-1.516c0-.89-.672-1.578-1.453-1.578-.797 0-1.453.688-1.453 1.578 0 .891.672 1.563 1.453 1.563.766 0 1.453-.688 1.453-1.563Zm-.578-.046c0 .593-.406 1.078-.875 1.078S.953-.97.953-1.563c0-.593.422-1.015.875-1.015s.875.422.875 1.015Zm0 0"/></symbol><symbol overflow="visible" id="n"><path style="stroke:none" d="M3.578-.266c0-.25-.203-.25-.328-.25H3v-1.53c0-.72-.36-1.032-.938-1.032-.39 0-.671.172-.843.297v-1.14c0-.25-.047-.345-.313-.345h-.5c-.14 0-.328.016-.328.266s.203.266.313.266h.25v3.218H.406c-.14 0-.328 0-.328.25C.078 0 .281 0 .391 0h1.093c.11 0 .329 0 .329-.266 0-.25-.204-.25-.344-.25h-.25v-1.156c0-.64.484-.875.797-.875.328 0 .406.172.406.547v1.484h-.203c-.14 0-.344 0-.344.25 0 .266.219.266.344.266H3.25c.11 0 .328 0 .328-.266Zm0 0"/></symbol><symbol overflow="visible" id="o"><path style="stroke:none" d="M3.578-.266c0-.25-.219-.25-.328-.25H3v-2.187c0-.25-.047-.328-.328-.328h-.485c-.14 0-.343 0-.343.25 0 .265.218.265.328.265h.25v1.391c0 .563-.516.64-.719.64-.469 0-.484-.187-.484-.39v-1.828c0-.25-.047-.328-.313-.328h-.5c-.14 0-.328 0-.328.25 0 .265.203.265.313.265h.25v1.688c0 .687.5.875 1.03.875.266 0 .516-.063.766-.219C2.485 0 2.626 0 2.75 0h.5c.125 0 .328 0 .328-.266Zm0 0"/></symbol><symbol overflow="visible" id="p"><path style="stroke:none" d="M3.625-.266c0-.25-.203-.25-.328-.25-.203 0-.297-.03-.344-.046V-2c0-.5-.375-1.094-1.406-1.094-.313 0-1.031.016-1.031.547 0 .235.171.36.359.36.11 0 .344-.063.344-.36 0 0 .234-.031.343-.031.454 0 .782.187.813.594-1.219.03-2.047.39-2.047 1.062 0 .485.453.969 1.188.969.234 0 .656-.047.968-.25.172.187.485.203.75.203.235 0 .391-.016.391-.266ZM2.359-.969c0 .14 0 .266-.234.375-.234.11-.516.11-.578.11-.39 0-.64-.204-.64-.438 0-.312.546-.515 1.452-.562Zm0 0"/></symbol><symbol overflow="visible" id="q"><path style="stroke:none" d="M3.547-2.781c0-.25-.188-.25-.328-.25h-.781c-.157 0-.344 0-.344.25 0 .265.172.265.344.265h.265l-.297 1.72-.14-.532c-.125-.469-.172-.547-.422-.547-.094 0-.235 0-.328.188l-.266.906-.297-1.735h.266c.156 0 .343 0 .343-.265 0-.25-.187-.25-.343-.25H.437c-.14 0-.343 0-.343.25 0 .234.14.265.36.265L.858-.28c.032.187.047.312.36.312.312 0 .343-.062.453-.515l.172-.641.265 1c.094.14.235.156.344.156.281 0 .313-.125.344-.312l.406-2.235c.219 0 .344-.03.344-.265Zm0 0"/></symbol><symbol overflow="visible" id="r"><path style="stroke:none" d="M3.188-.266c0-.25-.204-.25-.329-.25h-.656v-2.187c0-.25-.047-.328-.328-.328H.906c-.125 0-.328 0-.328.25 0 .265.203.265.328.265h.719v2H.859c-.14 0-.343 0-.343.25C.516 0 .734 0 .859 0h2c.125 0 .329 0 .329-.266Zm-.954-3.562a.39.39 0 0 0-.406-.39.387.387 0 0 0-.39.39c0 .219.171.39.39.39a.39.39 0 0 0 .406-.39Zm0 0"/></symbol><symbol overflow="visible" id="s"><path style="stroke:none" d="M3.422-1.516c0-.875-.64-1.562-1.39-1.562-.298 0-.579.11-.813.281 0-.172-.063-.234-.313-.234h-.5c-.14 0-.344 0-.344.25 0 .265.22.265.329.265h.25v3.5H.406c-.14 0-.344 0-.344.266 0 .25.22.25.329.25h1.093c.11 0 .329 0 .329-.25 0-.266-.204-.266-.344-.266h-.25V-.234c.265.234.531.28.734.28.766 0 1.469-.671 1.469-1.562Zm-.578 0c0 .61-.453 1.032-.906 1.032-.485 0-.704-.563-.704-.875v-.485c0-.375.375-.703.766-.703.469 0 .844.469.844 1.031Zm0 0"/></symbol><clipPath id="a"><path d="M0 0h288.8v61.95H0Zm0 0"/></clipPath></defs><path style="stroke:none;fill-rule:nonzero;fill:#fffbb3;fill-opacity:1" d="M43.328 30.785 57.5 16.613l28.348 28.348 28.347-28.348 28.348 28.348 14.172-14.176 14.172-14.172 28.347 28.348 14.176-14.176h28.348"/><g clip-path="url(#a)"><path style="fill:none;stroke-width:14.17339;stroke-linecap:butt;stroke-linejoin:miter;stroke:#b2b2b2;stroke-opacity:1;stroke-miterlimit:10" d="m-99.214 0 14.172 14.173 28.348-28.348 28.347 28.348L.001-14.175 14.173.001l14.172 14.172 28.347-28.348L70.868.001h28.348" transform="matrix(1 0 0 -1 142.542 30.786)"/></g><path style="fill:none;stroke-width:.3985;stroke-linecap:butt;stroke-linejoin:miter;stroke:#000;stroke-opacity:1;stroke-miterlimit:10" d="m-1.41-1.41 2.817 2.817m-2.816 0 2.816-2.816" transform="matrix(1 0 0 -1 142.542 30.786)"/><g style="fill:#000;fill-opacity:1"><use xlink:href="#b" x="124.236" y="26.708"/><use xlink:href="#c" x="127.897" y="26.708"/><use xlink:href="#d" x="131.559" y="26.708"/><use xlink:href="#e" x="135.22" y="26.708"/><use xlink:href="#f" x="138.881" y="26.708"/><use xlink:href="#g" x="142.542" y="26.708"/><use xlink:href="#h" x="146.204" y="26.708"/><use xlink:href="#f" x="149.865" y="26.708"/><use xlink:href="#i" x="153.526" y="26.708"/><use xlink:href="#j" x="157.187" y="26.708"/></g><path style="fill:none;stroke-width:.3985;stroke-linecap:butt;stroke-linejoin:miter;stroke:#000;stroke-opacity:1;stroke-miterlimit:10" d="m35.415 19.852 2.816 2.817m-2.816 0 2.816-2.817" transform="matrix(1 0 0 -1 142.542 30.786)"/><g style="fill:#000;fill-opacity:1"><use xlink:href="#b" x="182.885" y="5.448"/><use xlink:href="#c" x="186.546" y="5.448"/><use xlink:href="#d" x="190.208" y="5.448"/><use xlink:href="#k" x="193.869" y="5.448"/><use xlink:href="#l" x="197.53" y="5.448"/><use xlink:href="#j" x="201.191" y="5.448"/></g><path style="fill:none;stroke-width:.3985;stroke-linecap:butt;stroke-linejoin:miter;stroke:#000;stroke-opacity:1;stroke-miterlimit:10" d="m-1.41 19.852 2.817 2.817m-2.816 0 2.816-2.817" transform="matrix(1 0 0 -1 142.542 30.786)"/><g style="fill:#000;fill-opacity:1"><use xlink:href="#b" x="126.066" y="5.448"/><use xlink:href="#c" x="129.727" y="5.448"/><use xlink:href="#d" x="133.389" y="5.448"/><use xlink:href="#g" x="137.05" y="5.448"/><use xlink:href="#m" x="140.711" y="5.448"/><use xlink:href="#i" x="144.372" y="5.448"/><use xlink:href="#h" x="148.034" y="5.448"/><use xlink:href="#n" x="151.695" y="5.448"/><use xlink:href="#j" x="155.356" y="5.448"/></g><path style="fill:none;stroke-width:.3985;stroke-linecap:butt;stroke-linejoin:miter;stroke:#000;stroke-opacity:1;stroke-miterlimit:10" d="m-1.41-22.667 2.817 2.816m-2.816 0 2.816-2.816" transform="matrix(1 0 0 -1 142.542 30.786)"/><g style="fill:#000;fill-opacity:1"><use xlink:href="#b" x="126.066" y="60.391"/><use xlink:href="#c" x="129.727" y="60.391"/><use xlink:href="#d" x="133.389" y="60.391"/><use xlink:href="#c" x="137.05" y="60.391"/><use xlink:href="#m" x="140.711" y="60.391"/><use xlink:href="#o" x="144.372" y="60.391"/><use xlink:href="#h" x="148.034" y="60.391"/><use xlink:href="#n" x="151.695" y="60.391"/><use xlink:href="#j" x="155.356" y="60.391"/></g><path style="fill:none;stroke-width:.3985;stroke-linecap:butt;stroke-linejoin:miter;stroke:#000;stroke-opacity:1;stroke-miterlimit:10" d="m104.892-1.41 2.816 2.817m-2.816 0 2.816-2.816" transform="matrix(1 0 0 -1 142.542 30.786)"/><g style="fill:#000;fill-opacity:1"><use xlink:href="#b" x="216.031" y="32.92"/><use xlink:href="#c" x="219.692" y="32.92"/><use xlink:href="#d" x="223.354" y="32.92"/><use xlink:href="#f" x="227.015" y="32.92"/><use xlink:href="#p" x="230.676" y="32.92"/><use xlink:href="#c" x="234.337" y="32.92"/><use xlink:href="#h" x="237.999" y="32.92"/><use xlink:href="#j" x="241.66" y="32.92"/></g><path style="fill:none;stroke-width:.3985;stroke-linecap:butt;stroke-linejoin:miter;stroke:#000;stroke-opacity:1;stroke-miterlimit:10" d="m-107.71-1.41 2.82 2.817m-2.82 0 2.82-2.816" transform="matrix(1 0 0 -1 142.542 30.786)"/><g style="fill:#000;fill-opacity:1"><use xlink:href="#b" x="39.763" y="32.92"/><use xlink:href="#c" x="43.424" y="32.92"/><use xlink:href="#d" x="47.086" y="32.92"/><use xlink:href="#q" x="50.747" y="32.92"/><use xlink:href="#f" x="54.408" y="32.92"/><use xlink:href="#c" x="58.069" y="32.92"/><use xlink:href="#h" x="61.731" y="32.92"/><use xlink:href="#j" x="65.392" y="32.92"/></g><path style="fill:none;stroke-width:.3985;stroke-linecap:butt;stroke-linejoin:miter;stroke:#000;stroke-opacity:1;stroke-miterlimit:10" d="m104.892 19.852 2.816 2.817m-2.816 0 2.816-2.817" transform="matrix(1 0 0 -1 142.542 30.786)"/><g style="fill:#000;fill-opacity:1"><use xlink:href="#b" x="223.212" y="5.448"/><use xlink:href="#c" x="226.873" y="5.448"/><use xlink:href="#d" x="230.535" y="5.448"/><use xlink:href="#g" x="234.196" y="5.448"/><use xlink:href="#m" x="237.857" y="5.448"/><use xlink:href="#i" x="241.518" y="5.448"/><use xlink:href="#h" x="245.18" y="5.448"/><use xlink:href="#n" x="248.841" y="5.448"/></g><g style="fill:#000;fill-opacity:1"><use xlink:href="#f" x="256.163" y="5.448"/><use xlink:href="#p" x="259.825" y="5.448"/><use xlink:href="#c" x="263.486" y="5.448"/><use xlink:href="#h" x="267.147" y="5.448"/><use xlink:href="#j" x="270.809" y="5.448"/></g><path style="fill:none;stroke-width:.3985;stroke-linecap:butt;stroke-linejoin:miter;stroke:#000;stroke-opacity:1;stroke-miterlimit:10" d="m104.892-22.667 2.816 2.816m-2.816 0 2.816-2.816" transform="matrix(1 0 0 -1 142.542 30.786)"/><g style="fill:#000;fill-opacity:1"><use xlink:href="#b" x="223.212" y="60.391"/><use xlink:href="#c" x="226.873" y="60.391"/><use xlink:href="#d" x="230.535" y="60.391"/><use xlink:href="#c" x="234.196" y="60.391"/><use xlink:href="#m" x="237.857" y="60.391"/><use xlink:href="#o" x="241.518" y="60.391"/><use xlink:href="#h" x="245.18" y="60.391"/><use xlink:href="#n" x="248.841" y="60.391"/></g><g style="fill:#000;fill-opacity:1"><use xlink:href="#f" x="256.163" y="60.391"/><use xlink:href="#p" x="259.825" y="60.391"/><use xlink:href="#c" x="263.486" y="60.391"/><use xlink:href="#h" x="267.147" y="60.391"/><use xlink:href="#j" x="270.809" y="60.391"/></g><path style="fill:none;stroke-width:.3985;stroke-linecap:butt;stroke-linejoin:miter;stroke:#000;stroke-opacity:1;stroke-miterlimit:10" d="m-107.71-22.667 2.82 2.816m-2.82 0 2.82-2.816" transform="matrix(1 0 0 -1 142.542 30.786)"/><g style="fill:#000;fill-opacity:1"><use xlink:href="#b" x="10.614" y="60.391"/><use xlink:href="#c" x="14.275" y="60.391"/><use xlink:href="#d" x="17.937" y="60.391"/><use xlink:href="#c" x="21.598" y="60.391"/><use xlink:href="#m" x="25.259" y="60.391"/><use xlink:href="#o" x="28.92" y="60.391"/><use xlink:href="#h" x="32.582" y="60.391"/><use xlink:href="#n" x="36.243" y="60.391"/></g><g style="fill:#000;fill-opacity:1"><use xlink:href="#q" x="43.565" y="60.391"/><use xlink:href="#f" x="47.227" y="60.391"/><use xlink:href="#c" x="50.888" y="60.391"/><use xlink:href="#h" x="54.549" y="60.391"/><use xlink:href="#j" x="58.211" y="60.391"/></g><path style="fill:none;stroke-width:.3985;stroke-linecap:butt;stroke-linejoin:miter;stroke:#000;stroke-opacity:1;stroke-miterlimit:10" d="m-107.71 19.852 2.82 2.817m-2.82 0 2.82-2.817" transform="matrix(1 0 0 -1 142.542 30.786)"/><g style="fill:#000;fill-opacity:1"><use xlink:href="#b" x="10.614" y="5.448"/><use xlink:href="#c" x="14.275" y="5.448"/><use xlink:href="#d" x="17.937" y="5.448"/><use xlink:href="#g" x="21.598" y="5.448"/><use xlink:href="#m" x="25.259" y="5.448"/><use xlink:href="#i" x="28.92" y="5.448"/><use xlink:href="#h" x="32.582" y="5.448"/><use xlink:href="#n" x="36.243" y="5.448"/></g><g style="fill:#000;fill-opacity:1"><use xlink:href="#q" x="43.565" y="5.448"/><use xlink:href="#f" x="47.227" y="5.448"/><use xlink:href="#c" x="50.888" y="5.448"/><use xlink:href="#h" x="54.549" y="5.448"/><use xlink:href="#j" x="58.211" y="5.448"/></g><path style="fill:none;stroke-width:.3985;stroke-linecap:butt;stroke-linejoin:miter;stroke:#000;stroke-opacity:1;stroke-miterlimit:10" d="m-107.71-1.41 2.82 2.817m-2.82 0 2.82-2.816" transform="matrix(1 0 0 -1 142.542 30.786)"/><g style="fill:#000;fill-opacity:1"><use xlink:href="#b" x="-.228" y="32.446"/><use xlink:href="#c" x="3.433" y="32.446"/><use xlink:href="#d" x="7.095" y="32.446"/><use xlink:href="#r" x="10.756" y="32.446"/><use xlink:href="#g" x="14.417" y="32.446"/><use xlink:href="#s" x="18.078" y="32.446"/><use xlink:href="#o" x="21.74" y="32.446"/><use xlink:href="#h" x="25.401" y="32.446"/><use xlink:href="#j" x="29.062" y="32.446"/></g><path style="fill:none;stroke-width:.3985;stroke-linecap:butt;stroke-linejoin:miter;stroke:#000;stroke-opacity:1;stroke-miterlimit:10" d="m104.892-1.41 2.816 2.817m-2.816 0 2.816-2.816" transform="matrix(1 0 0 -1 142.542 30.786)"/><g style="fill:#000;fill-opacity:1"><use xlink:href="#b" x="252.361" y="32.446"/><use xlink:href="#c" x="256.022" y="32.446"/><use xlink:href="#d" x="259.684" y="32.446"/><use xlink:href="#m" x="263.345" y="32.446"/><use xlink:href="#o" x="267.006" y="32.446"/><use xlink:href="#h" x="270.667" y="32.446"/><use xlink:href="#s" x="274.329" y="32.446"/><use xlink:href="#o" x="277.99" y="32.446"/><use xlink:href="#h" x="281.651" y="32.446"/><use xlink:href="#j" x="285.312" y="32.446"/></g></svg>