<svg xmlns="http://www.w3.org/2000/svg" xmlns:xlink="http://www.w3.org/1999/xlink" width="242.531" height="205.131" viewBox="0 0 181.898 153.848" version="1.2"><defs><clipPath id="a"><path d="M165 23h16.848v22H165Zm0 0"/></clipPath><clipPath id="b"><path d="M52 137h21v16.773H52Zm0 0"/></clipPath><clipPath id="c"><path d="M80 137h22v16.773H80Zm0 0"/></clipPath><clipPath id="d"><path d="M108 137h22v16.773h-22Zm0 0"/></clipPath><clipPath id="e"><path d="M137 137h21v16.773h-21Zm0 0"/></clipPath><symbol overflow="visible" id="f"><path style="stroke:none" d="M5.516-.234c0-.235-.125-.235-.266-.235-.61-.015-.61-.14-.61-.375v-2.14c0-.891-.702-1.532-2.187-1.532-.562 0-1.781.047-1.781.922 0 .438.344.625.61.625.312 0 .624-.219.624-.625 0-.297-.187-.469-.218-.5a5.28 5.28 0 0 1 .718-.062c.75 0 1.11.422 1.11 1.172v.343c-.72.032-3.25.125-3.25 1.563C.266-.125 1.5.062 2.187.062c.797 0 1.266-.406 1.485-.828 0 .313 0 .766 1.047.766h.468c.204 0 .329 0 .329-.234Zm-2-1.157c0 .97-.922 1.094-1.172 1.094-.516 0-.906-.344-.906-.797 0-1.062 1.578-1.203 2.078-1.234Zm0 0"/></symbol><symbol overflow="visible" id="g"><path style="stroke:none" d="M4.36-6.11c0-.421-.36-.874-1.141-.874-.969 0-2.047.421-2.047 1.546v1.016h-.75v.469h.75V-.47H.484V0l1.25-.031c.375 0 1.016 0 1.375.031v-.469H2.25v-3.484h1.14v-.469H2.188v-1.016c0-1.093.75-1.187 1-1.187.047 0 .11 0 .172.031a.585.585 0 0 0-.234.485c0 .421.36.609.61.609.296 0 .624-.203.624-.61Zm0 0"/></symbol><symbol overflow="visible" id="h"><path style="stroke:none" d="M5.563-3.953c0-.235-.172-.578-.625-.578-.157 0-.625.031-1.063.375-.172-.125-.594-.328-1.328-.328-1.438 0-1.985.78-1.985 1.468 0 .407.188.829.516 1.047-.281.36-.344.688-.344.89 0 .157.047.641.438.954-.125.031-.86.25-.86.875C.313 1.25.875 2 2.86 2 4.625 2 5.406 1.422 5.406.719c0-.297-.078-.922-.75-1.266-.562-.281-1.156-.281-2.11-.281-.265 0-.718 0-.765-.016a.625.625 0 0 1-.562-.625c0-.093.047-.25.11-.328.452.234.968.266 1.218.266 1.437 0 1.984-.782 1.984-1.485 0-.468-.25-.796-.406-.953.297-.156.516-.172.625-.187a.433.433 0 0 0-.047.203c0 .25.172.422.438.422a.41.41 0 0 0 .421-.422Zm-2.141.937c0 .454 0 1.125-.875 1.125s-.875-.671-.875-1.125c0-.437 0-1.109.875-1.109s.875.672.875 1.11ZM4.547.75c0 .36-.39.89-1.688.89-1.187 0-1.687-.452-1.687-.906 0-.609.625-.609.766-.609h1.171c.313 0 1.438 0 1.438.625Zm0 0"/></symbol><symbol overflow="visible" id="i"><path style="stroke:none" d="M6.125 0v-.469h-.688v-2.578c0-1.047-.53-1.437-1.53-1.437-.954 0-1.485.562-1.75 1.078v-1.078l-1.704.078v.468c.61 0 .688 0 .688.391v3.078H.453V0l1.25-.031L2.953 0v-.469h-.687v-2.078c0-1.094.859-1.578 1.5-1.578.328 0 .546.203.546.969V-.47h-.687V0l1.25-.031Zm0 0"/></symbol></defs><path style="fill-rule:nonzero;fill:gray;fill-opacity:1;stroke-width:.3985;stroke-linecap:butt;stroke-linejoin:miter;stroke:#000;stroke-opacity:1;stroke-miterlimit:10" d="M4.697 0a4.698 4.698 0 0 1-9.395 0 4.698 4.698 0 0 1 9.395 0Zm0 0" transform="matrix(1 0 0 -1 5.862 5.82)"/><path style="fill:none;stroke-width:.3985;stroke-linecap:butt;stroke-linejoin:miter;stroke:#000;stroke-opacity:1;stroke-miterlimit:10" d="M33.044 0a4.698 4.698 0 0 1-9.394 0 4.698 4.698 0 0 1 9.395 0ZM61.388 0a4.695 4.695 0 0 1-4.695 4.695A4.695 4.695 0 0 1 51.997 0a4.695 4.695 0 0 1 4.696-4.696A4.695 4.695 0 0 1 61.388 0Zm0 0" transform="matrix(1 0 0 -1 5.862 5.82)"/><path style="fill-rule:nonzero;fill:gray;fill-opacity:1;stroke-width:.3985;stroke-linecap:butt;stroke-linejoin:miter;stroke:#000;stroke-opacity:1;stroke-miterlimit:10" d="M89.736 0a4.695 4.695 0 0 1-4.696 4.695A4.695 4.695 0 0 1 80.345 0a4.695 4.695 0 0 1 4.695-4.696A4.695 4.695 0 0 1 89.736 0Zm0 0" transform="matrix(1 0 0 -1 5.862 5.82)"/><path style="fill:none;stroke-width:.3985;stroke-linecap:butt;stroke-linejoin:miter;stroke:#000;stroke-opacity:1;stroke-miterlimit:10" d="M89.736-28.348c0 2.594-2.102 4.7-4.696 4.7a4.698 4.698 0 0 1 0-9.395 4.695 4.695 0 0 1 4.696 4.695ZM118.083-28.348c0 2.594-2.101 4.7-4.695 4.7a4.698 4.698 0 0 1 0-9.395 4.695 4.695 0 0 1 4.695 4.695ZM146.431-28.348a4.698 4.698 0 1 1-9.396.003 4.698 4.698 0 0 1 9.396-.003Zm0 0" transform="matrix(1 0 0 -1 5.862 5.82)"/><path style="stroke:none;fill-rule:nonzero;fill:gray;fill-opacity:1" d="M180.64 34.168a4.698 4.698 0 1 0-9.393-.003 4.698 4.698 0 0 0 9.394.003Zm0 0"/><g clip-path="url(#a)"><path style="fill:none;stroke-width:.3985;stroke-linecap:butt;stroke-linejoin:miter;stroke:#000;stroke-opacity:1;stroke-miterlimit:10" d="M174.779-28.348a4.698 4.698 0 1 1-9.393.003 4.698 4.698 0 0 1 9.393-.003Zm0 0" transform="matrix(1 0 0 -1 5.862 5.82)"/></g><path style="fill:none;stroke-width:.3985;stroke-linecap:butt;stroke-linejoin:miter;stroke:#000;stroke-opacity:1;stroke-miterlimit:10" d="M33.044-56.692a4.698 4.698 0 1 1-9.396-.005 4.698 4.698 0 0 1 9.396.005ZM61.388-56.692a4.695 4.695 0 0 1-4.695 4.696 4.698 4.698 0 0 1 0-9.395 4.698 4.698 0 0 1 4.695 4.7ZM89.736-56.692a4.695 4.695 0 0 1-4.696 4.696 4.698 4.698 0 0 1 0-9.395 4.698 4.698 0 0 1 4.696 4.7Zm0 0" transform="matrix(1 0 0 -1 5.862 5.82)"/><path style="fill-rule:nonzero;fill:gray;fill-opacity:1;stroke-width:.3985;stroke-linecap:butt;stroke-linejoin:miter;stroke:#000;stroke-opacity:1;stroke-miterlimit:10" d="M118.083-56.692a4.695 4.695 0 0 1-4.695 4.696 4.698 4.698 0 0 1 0-9.395 4.698 4.698 0 0 1 4.695 4.7ZM33.044-85.04a4.698 4.698 0 1 1-9.396-.005 4.698 4.698 0 0 1 9.396.006Zm0 0" transform="matrix(1 0 0 -1 5.862 5.82)"/><path style="fill:none;stroke-width:.3985;stroke-linecap:butt;stroke-linejoin:miter;stroke:#000;stroke-opacity:1;stroke-miterlimit:10" d="M33.044-113.387a4.698 4.698 0 0 1-9.394 0 4.698 4.698 0 0 1 9.395 0Zm0 0" transform="matrix(1 0 0 -1 5.862 5.82)"/><path style="fill-rule:nonzero;fill:gray;fill-opacity:1;stroke-width:.3985;stroke-linecap:butt;stroke-linejoin:miter;stroke:#000;stroke-opacity:1;stroke-miterlimit:10" d="M61.388-113.387a4.695 4.695 0 0 1-4.695 4.695 4.695 4.695 0 0 1-4.696-4.695 4.695 4.695 0 0 1 4.696-4.695 4.695 4.695 0 0 1 4.695 4.695Zm0 0" transform="matrix(1 0 0 -1 5.862 5.82)"/><g clip-path="url(#b)"><path style="fill:none;stroke-width:.3985;stroke-linecap:butt;stroke-linejoin:miter;stroke:#000;stroke-opacity:1;stroke-miterlimit:10" d="M61.388-141.735a4.695 4.695 0 0 1-4.695 4.696 4.695 4.695 0 0 1-4.696-4.696 4.695 4.695 0 0 1 4.696-4.695 4.695 4.695 0 0 1 4.695 4.695Zm0 0" transform="matrix(1 0 0 -1 5.862 5.82)"/></g><g clip-path="url(#c)"><path style="fill:none;stroke-width:.3985;stroke-linecap:butt;stroke-linejoin:miter;stroke:#000;stroke-opacity:1;stroke-miterlimit:10" d="M89.736-141.735a4.695 4.695 0 0 1-4.696 4.696 4.695 4.695 0 0 1-4.695-4.696 4.695 4.695 0 0 1 4.695-4.695 4.695 4.695 0 0 1 4.696 4.695Zm0 0" transform="matrix(1 0 0 -1 5.862 5.82)"/></g><g clip-path="url(#d)"><path style="fill:none;stroke-width:.3985;stroke-linecap:butt;stroke-linejoin:miter;stroke:#000;stroke-opacity:1;stroke-miterlimit:10" d="M118.083-141.735a4.695 4.695 0 0 1-4.695 4.696 4.695 4.695 0 0 1-4.695-4.696 4.695 4.695 0 0 1 4.695-4.695 4.695 4.695 0 0 1 4.695 4.695Zm0 0" transform="matrix(1 0 0 -1 5.862 5.82)"/></g><path style="stroke:none;fill-rule:nonzero;fill:gray;fill-opacity:1" d="M152.293 147.555a4.698 4.698 0 0 0-9.395 0 4.698 4.698 0 0 0 9.395 0Zm0 0"/><g clip-path="url(#e)"><path style="fill:none;stroke-width:.3985;stroke-linecap:butt;stroke-linejoin:miter;stroke:#000;stroke-opacity:1;stroke-miterlimit:10" d="M146.431-141.735a4.698 4.698 0 0 1-9.395 0 4.698 4.698 0 0 1 9.395 0Zm0 0" transform="matrix(1 0 0 -1 5.862 5.82)"/></g><path style="fill:none;stroke-width:.3985;stroke-linecap:butt;stroke-linejoin:miter;stroke:#000;stroke-opacity:1;stroke-miterlimit:10" d="M4.896 0h17.16" transform="matrix(1 0 0 -1 5.862 5.82)"/><path style="fill:none;stroke-width:.3985;stroke-linecap:round;stroke-linejoin:round;stroke:#000;stroke-opacity:1;stroke-miterlimit:10" d="M-2.07 2.39C-1.693.957-.849.277 0 0c-.848-.278-1.692-.957-2.07-2.39" transform="matrix(1 0 0 -1 28.118 5.82)"/><path style="stroke:none;fill-rule:nonzero;fill:#f5f5cc;fill-opacity:1" d="M16.254 9.086h7.562V2.523h-7.562Zm0 0"/><use xlink:href="#f" x="17.251" y="8.031" style="fill:#000;fill-opacity:1"/><path style="fill:none;stroke-width:.3985;stroke-linecap:butt;stroke-linejoin:miter;stroke:red;stroke-opacity:1;stroke-miterlimit:10" d="m2.189-4.38 23.344-46.687" transform="matrix(1 0 0 -1 5.862 5.82)"/><path style="fill:none;stroke-width:.3985;stroke-linecap:round;stroke-linejoin:round;stroke:red;stroke-opacity:1;stroke-miterlimit:10" d="M-2.072 2.39C-1.692.954-.85.28 0 0-.85-.28-1.693-.959-2.072-2.39" transform="matrix(.44717 .89436 .89436 -.44717 31.485 57.066)"/><path style="stroke:none;fill-rule:nonzero;fill:#f5f5cc;fill-opacity:1" d="M17.29 37.375h5.491V28.41H17.29Zm0 0"/><use xlink:href="#g" x="18.287" y="36.378" style="fill:red;fill-opacity:1"/><path style="fill:none;stroke-width:.3985;stroke-linecap:butt;stroke-linejoin:miter;stroke:#000;stroke-opacity:1;stroke-miterlimit:10" d="m1.548-4.645 24.809-74.43" transform="matrix(1 0 0 -1 5.862 5.82)"/><path style="fill:none;stroke-width:.3985;stroke-linecap:round;stroke-linejoin:round;stroke:#000;stroke-opacity:1;stroke-miterlimit:10" d="M-2.073 2.39C-1.694.958-.851.278-.001 0c-.85-.277-1.693-.955-2.072-2.39" transform="matrix(.31621 .94864 .94864 -.31621 32.283 85.082)"/><path style="stroke:none;fill-rule:nonzero;fill:#f5f5cc;fill-opacity:1" d="M16.176 53.55h7.719v-8.527h-7.72Zm0 0"/><use xlink:href="#h" x="17.171" y="50.551" style="fill:#000;fill-opacity:1"/><path style="fill:none;stroke-width:.3985;stroke-linecap:butt;stroke-linejoin:miter;stroke:#000;stroke-opacity:1;stroke-miterlimit:10" d="m1.189-4.75 25.633-102.535" transform="matrix(1 0 0 -1 5.862 5.82)"/><path style="fill:none;stroke-width:.3985;stroke-linecap:round;stroke-linejoin:round;stroke:#000;stroke-opacity:1;stroke-miterlimit:10" d="M-2.073 2.39C-1.694.957-.85.28-.001 0c-.847-.28-1.692-.955-2.071-2.39" transform="scale(1 -1) rotate(-75.965 -56.188 -77.61)"/><path style="stroke:none;fill-rule:nonzero;fill:#f5f5cc;fill-opacity:1" d="M15.855 65.723h8.36v-6.477h-8.36Zm0 0"/><use xlink:href="#i" x="16.853" y="64.724" style="fill:#000;fill-opacity:1"/><path style="fill:none;stroke-width:.3985;stroke-linecap:butt;stroke-linejoin:miter;stroke:#000;stroke-opacity:1;stroke-miterlimit:10" d="M33.243 0h17.16" transform="matrix(1 0 0 -1 5.862 5.82)"/><path style="fill:none;stroke-width:.3985;stroke-linecap:round;stroke-linejoin:round;stroke:#000;stroke-opacity:1;stroke-miterlimit:10" d="M-2.074 2.39C-1.695.957-.85.277 0 0-.85-.278-1.695-.957-2.074-2.39" transform="matrix(1 0 0 -1 56.465 5.82)"/><path style="stroke:none;fill-rule:nonzero;fill:#f5f5cc;fill-opacity:1" d="M44.203 9.027h8.36V2.551h-8.36Zm0 0"/><use xlink:href="#i" x="45.199" y="8.031" style="fill:#000;fill-opacity:1"/><path style="fill:none;stroke-width:.3985;stroke-linecap:butt;stroke-linejoin:miter;stroke:#000;stroke-opacity:1;stroke-miterlimit:10" d="M61.591 0h17.16" transform="matrix(1 0 0 -1 5.862 5.82)"/><path style="fill:none;stroke-width:.3985;stroke-linecap:round;stroke-linejoin:round;stroke:#000;stroke-opacity:1;stroke-miterlimit:10" d="M-2.073 2.39C-1.694.957-.85.277.001 0-.85-.278-1.694-.957-2.073-2.39" transform="matrix(1 0 0 -1 84.811 5.82)"/><path style="stroke:none;fill-rule:nonzero;fill:#f5f5cc;fill-opacity:1" d="M72.867 11.031h7.723V2.504h-7.723Zm0 0"/><use xlink:href="#h" x="73.864" y="8.031" style="fill:#000;fill-opacity:1"/><path style="fill:none;stroke-width:.3985;stroke-linecap:butt;stroke-linejoin:miter;stroke:#000;stroke-opacity:1;stroke-miterlimit:10" d="M60.154-3.461 80.59-23.9" transform="matrix(1 0 0 -1 5.862 5.82)"/><path style="fill:none;stroke-width:.3985;stroke-linecap:round;stroke-linejoin:round;stroke:#000;stroke-opacity:1;stroke-miterlimit:10" d="M-2.073 2.391C-1.695.958-.849.278-.001 0-.85-.28-1.691-.957-2.073-2.393" transform="scale(1 -1) rotate(-45 7.254 -119.46)"/><path style="stroke:none;fill-rule:nonzero;fill:#f5f5cc;fill-opacity:1" d="M73.984 23.203h5.489v-8.969h-5.489Zm0 0"/><use xlink:href="#g" x="74.98" y="22.204" style="fill:#000;fill-opacity:1"/><path style="fill:none;stroke-width:.3985;stroke-linecap:butt;stroke-linejoin:miter;stroke:#000;stroke-opacity:1;stroke-miterlimit:10" d="M89.935-28.348h17.16" transform="matrix(1 0 0 -1 5.862 5.82)"/><path style="fill:none;stroke-width:.3985;stroke-linecap:round;stroke-linejoin:round;stroke:#000;stroke-opacity:1;stroke-miterlimit:10" d="M-2.072 2.39C-1.693.955-.85.28-.002-.002c-.848-.278-1.691-.957-2.07-2.39" transform="matrix(1 0 0 -1 113.158 34.167)"/><path style="stroke:none;fill-rule:nonzero;fill:#f5f5cc;fill-opacity:1" d="M101.297 37.434h7.558v-6.567h-7.558Zm0 0"/><use xlink:href="#f" x="102.29" y="36.378" style="fill:#000;fill-opacity:1"/><path style="fill:none;stroke-width:.3985;stroke-linecap:butt;stroke-linejoin:miter;stroke:#000;stroke-opacity:1;stroke-miterlimit:10" d="M118.283-28.348h17.16" transform="matrix(1 0 0 -1 5.862 5.82)"/><path style="fill:none;stroke-width:.3985;stroke-linecap:round;stroke-linejoin:round;stroke:#000;stroke-opacity:1;stroke-miterlimit:10" d="M-2.071 2.39C-1.692.955-.85.28-.001-.002c-.848-.278-1.691-.957-2.07-2.39" transform="matrix(1 0 0 -1 141.505 34.167)"/><path style="stroke:none;fill-rule:nonzero;fill:#f5f5cc;fill-opacity:1" d="M129.242 37.375h8.36v-6.477h-8.36Zm0 0"/><use xlink:href="#i" x="130.238" y="36.378" style="fill:#000;fill-opacity:1"/><path style="fill:none;stroke-width:.3985;stroke-linecap:butt;stroke-linejoin:miter;stroke:#000;stroke-opacity:1;stroke-miterlimit:10" d="M146.63-28.348h17.16" transform="matrix(1 0 0 -1 5.862 5.82)"/><path style="fill:none;stroke-width:.3985;stroke-linecap:round;stroke-linejoin:round;stroke:#000;stroke-opacity:1;stroke-miterlimit:10" d="M-2.07 2.39C-1.696.955-.853.28 0-.002c-.852-.278-1.696-.957-2.07-2.39" transform="matrix(1 0 0 -1 169.852 34.167)"/><path style="stroke:none;fill-rule:nonzero;fill:#f5f5cc;fill-opacity:1" d="M157.91 39.379h7.719v-8.531h-7.719Zm0 0"/><use xlink:href="#h" x="158.904" y="36.378" style="fill:#000;fill-opacity:1"/><path style="fill:none;stroke-width:.3985;stroke-linecap:butt;stroke-linejoin:miter;stroke:red;stroke-opacity:1;stroke-miterlimit:10" d="M33.243-56.692h17.16" transform="matrix(1 0 0 -1 5.862 5.82)"/><path style="fill:none;stroke-width:.3985;stroke-linecap:round;stroke-linejoin:round;stroke:red;stroke-opacity:1;stroke-miterlimit:10" d="M-2.074 2.393C-1.695.955-.85.279 0 .002-.85-.28-1.695-.955-2.074-2.393" transform="matrix(1 0 0 -1 56.465 62.514)"/><path style="stroke:none;fill-rule:nonzero;fill:#f5f5cc;fill-opacity:1" d="M44.602 65.781h7.562v-6.566h-7.562Zm0 0"/><use xlink:href="#f" x="45.598" y="64.724" style="fill:red;fill-opacity:1"/><path style="fill:none;stroke-width:.3985;stroke-linecap:butt;stroke-linejoin:miter;stroke:red;stroke-opacity:1;stroke-miterlimit:10" d="M61.591-56.692h17.16" transform="matrix(1 0 0 -1 5.862 5.82)"/><path style="fill:none;stroke-width:.3985;stroke-linecap:round;stroke-linejoin:round;stroke:red;stroke-opacity:1;stroke-miterlimit:10" d="M-2.073 2.393C-1.694.955-.85.279.001.002-.85-.28-1.694-.955-2.073-2.393" transform="matrix(1 0 0 -1 84.811 62.514)"/><path style="stroke:none;fill-rule:nonzero;fill:#f5f5cc;fill-opacity:1" d="M72.55 65.723h8.36v-6.477h-8.36Zm0 0"/><use xlink:href="#i" x="73.546" y="64.724" style="fill:red;fill-opacity:1"/><path style="fill:none;stroke-width:.3985;stroke-linecap:butt;stroke-linejoin:miter;stroke:#000;stroke-opacity:1;stroke-miterlimit:10" d="M89.935-56.692h17.16" transform="matrix(1 0 0 -1 5.862 5.82)"/><path style="fill:none;stroke-width:.3985;stroke-linecap:round;stroke-linejoin:round;stroke:#000;stroke-opacity:1;stroke-miterlimit:10" d="M-2.072 2.393C-1.693.955-.85.279-.002.002-.85-.28-1.693-.955-2.072-2.393" transform="matrix(1 0 0 -1 113.158 62.514)"/><path style="stroke:none;fill-rule:nonzero;fill:#f5f5cc;fill-opacity:1" d="M101.215 67.723h7.722v-8.528h-7.722Zm0 0"/><use xlink:href="#h" x="102.211" y="64.724" style="fill:#000;fill-opacity:1"/><path style="fill:none;stroke-width:.3985;stroke-linecap:butt;stroke-linejoin:miter;stroke:#000;stroke-opacity:1;stroke-miterlimit:10" d="M33.243-113.387h17.16" transform="matrix(1 0 0 -1 5.862 5.82)"/><path style="fill:none;stroke-width:.3985;stroke-linecap:round;stroke-linejoin:round;stroke:#000;stroke-opacity:1;stroke-miterlimit:10" d="M-2.074 2.39C-1.695.958-.85.279 0 0-.85-.277-1.695-.957-2.074-2.39" transform="matrix(1 0 0 -1 56.465 119.207)"/><path style="stroke:none;fill-rule:nonzero;fill:#f5f5cc;fill-opacity:1" d="M44.523 124.418h7.72v-8.527h-7.72Zm0 0"/><use xlink:href="#h" x="45.518" y="121.417" style="fill:#000;fill-opacity:1"/><path style="fill:none;stroke-width:.3985;stroke-linecap:butt;stroke-linejoin:miter;stroke:#000;stroke-opacity:1;stroke-miterlimit:10" d="m31.81-116.848 20.437-20.437" transform="matrix(1 0 0 -1 5.862 5.82)"/><path style="fill:none;stroke-width:.3985;stroke-linecap:round;stroke-linejoin:round;stroke:#000;stroke-opacity:1;stroke-miterlimit:10" d="M-2.074 2.39C-1.693.956-.85.279 0 .003-.85-.28-1.693-.957-2.07-2.39" transform="scale(1 -1) rotate(-45 -143.792 -141.937)"/><path style="stroke:none;fill-rule:nonzero;fill:#f5f5cc;fill-opacity:1" d="M45.637 136.59h5.488v-8.969h-5.488Zm0 0"/><use xlink:href="#g" x="46.634" y="135.59" style="fill:#000;fill-opacity:1"/><path style="fill:none;stroke-width:.3985;stroke-linecap:butt;stroke-linejoin:miter;stroke:#000;stroke-opacity:1;stroke-miterlimit:10" d="M61.591-141.735h17.16" transform="matrix(1 0 0 -1 5.862 5.82)"/><path style="fill:none;stroke-width:.3985;stroke-linecap:round;stroke-linejoin:round;stroke:#000;stroke-opacity:1;stroke-miterlimit:10" d="M-2.073 2.39C-1.694.956-.85.28.001 0-.85-.279-1.694-.959-2.073-2.392" transform="matrix(1 0 0 -1 84.811 147.554)"/><path style="stroke:none;fill-rule:nonzero;fill:#f5f5cc;fill-opacity:1" d="M72.95 150.82h7.562v-6.562h-7.563Zm0 0"/><use xlink:href="#f" x="73.944" y="149.763" style="fill:#000;fill-opacity:1"/><path style="fill:none;stroke-width:.3985;stroke-linecap:butt;stroke-linejoin:miter;stroke:#000;stroke-opacity:1;stroke-miterlimit:10" d="M89.935-141.735h17.16" transform="matrix(1 0 0 -1 5.862 5.82)"/><path style="fill:none;stroke-width:.3985;stroke-linecap:round;stroke-linejoin:round;stroke:#000;stroke-opacity:1;stroke-miterlimit:10" d="M-2.072 2.39C-1.693.956-.85.28-.002 0c-.848-.278-1.691-.958-2.07-2.391" transform="matrix(1 0 0 -1 113.158 147.554)"/><path style="stroke:none;fill-rule:nonzero;fill:#f5f5cc;fill-opacity:1" d="M100.895 150.762h8.359v-6.477h-8.36Zm0 0"/><use xlink:href="#i" x="101.892" y="149.763" style="fill:#000;fill-opacity:1"/><path style="fill:none;stroke-width:.3985;stroke-linecap:butt;stroke-linejoin:miter;stroke:#000;stroke-opacity:1;stroke-miterlimit:10" d="M118.283-141.735h17.16" transform="matrix(1 0 0 -1 5.862 5.82)"/><path style="fill:none;stroke-width:.3985;stroke-linecap:round;stroke-linejoin:round;stroke:#000;stroke-opacity:1;stroke-miterlimit:10" d="M-2.071 2.39C-1.692.956-.85.28-.001 0c-.848-.278-1.691-.958-2.07-2.391" transform="matrix(1 0 0 -1 141.505 147.554)"/><path style="stroke:none;fill-rule:nonzero;fill:#f5f5cc;fill-opacity:1" d="M129.563 152.766h7.722v-8.528h-7.722Zm0 0"/><use xlink:href="#h" x="130.557" y="149.763" style="fill:#000;fill-opacity:1"/></svg>