<svg xmlns="http://www.w3.org/2000/svg" width="154.419" height="119.835" viewBox="0 0 115.814 89.876" version="1.2"><defs><clipPath id="a"><path d="M0 0h115v89.813H0Zm0 0"/></clipPath></defs><g clip-path="url(#a)"><path style="fill:none;stroke-width:.3985;stroke-linecap:butt;stroke-linejoin:miter;stroke:gray;stroke-opacity:1;stroke-miterlimit:10" d="M.001 85.041V-2.832M28.349 85.04V-2.832M56.692 85.04V-2.832m56.696 87.874V-2.832" transform="matrix(1 0 0 -1 1.124 85.979)"/></g><path style="stroke:none;fill-rule:nonzero;fill:#00f;fill-opacity:1" d="M1.125 85.98h14.172V29.285H1.125Zm28.348 0h14.172V57.633H29.473Zm28.343 0h28.348V71.805H57.816Zm0 0"/><path style="stroke:none;fill-rule:nonzero;fill:red;fill-opacity:1" d="M15.297 85.98h14.176V.937H15.297Zm28.348 0h14.171V80.31H43.645Zm42.52 0h28.347V66.137H86.164Zm0 0"/></svg>