<svg xmlns="http://www.w3.org/2000/svg" xmlns:xlink="http://www.w3.org/1999/xlink" width="419.523" height="200.763" viewBox="0 0 314.642 150.572" version="1.2"><defs><symbol overflow="visible" id="a"><path style="stroke:none" d="M4.766-1.172c0-.14-.141-.14-.235-.14-.187 0-.187.03-.25.156-.25.625-.734.812-1.234.812-1.39 0-1.39-1.453-1.39-1.922 0-.562 0-1.843 1.28-1.843.36 0 .516.015.657.046a.618.618 0 0 0-.203.47c0 .437.343.624.609.624.313 0 .64-.219.64-.625 0-.86-1.156-.922-1.734-.922C1.11-4.516.375-3.375.375-2.219.375-.89 1.313.062 2.844.062c1.625 0 1.922-1.156 1.922-1.234Zm0 0"/></symbol><symbol overflow="visible" id="b"><path style="stroke:none" d="M5.406-2.172c0-1.344-.922-2.344-2.547-2.344C1.22-4.516.313-3.5.313-2.172c0 1.235.89 2.235 2.546 2.235 1.672 0 2.547-1.016 2.547-2.235Zm-1.281-.11c0 .86 0 1.938-1.266 1.938-1.265 0-1.265-1.078-1.265-1.937 0-.453 0-.953.172-1.297.187-.375.609-.578 1.093-.578.422 0 .844.156 1.063.5.203.344.203.89.203 1.375Zm0 0"/></symbol><symbol overflow="visible" id="c"><path style="stroke:none" d="M6.125 0v-.469h-.688v-2.578c0-1.047-.53-1.437-1.53-1.437-.954 0-1.485.562-1.75 1.078v-1.078l-1.704.078v.468c.61 0 .688 0 .688.391v3.078H.453V0l1.25-.031L2.953 0v-.469h-.687v-2.078c0-1.094.859-1.578 1.5-1.578.328 0 .546.203.546.969V-.47h-.687V0l1.25-.031Zm0 0"/></symbol><symbol overflow="visible" id="d"><path style="stroke:none" d="M3.813-1.234v-.532h-.47v.516c0 .672-.327.906-.609.906-.578 0-.578-.64-.578-.86v-2.75h1.469v-.468H2.156v-1.906h-.469c0 1-.484 1.984-1.484 2.016v.359h.828v2.734c0 1.063.86 1.282 1.578 1.282.75 0 1.204-.579 1.204-1.297Zm0 0"/></symbol><symbol overflow="visible" id="e"><path style="stroke:none" d="M4.922-1.172c0-.172-.188-.172-.234-.172-.172 0-.188.047-.25.203-.204.485-.782.797-1.422.797-1.407 0-1.422-1.328-1.422-1.828h3.015c.22 0 .313 0 .313-.265 0-.313-.063-1.047-.563-1.547-.359-.36-.89-.532-1.578-.532C1.187-4.516.312-3.484.312-2.25c0 1.344 1 2.313 2.61 2.313 1.578 0 2-1.063 2-1.235ZM3.984-2.5h-2.39c.015-.39.031-.813.234-1.14.266-.391.672-.516.953-.516 1.172 0 1.188 1.312 1.203 1.656Zm0 0"/></symbol><symbol overflow="visible" id="f"><path style="stroke:none" d="M4.406-3.672c0-.531-.531-.812-1.062-.812-.688 0-1.094.5-1.313 1.125v-1.125l-1.656.078v.468c.61 0 .688 0 .688.391v3.078H.375V0l1.25-.031C2-.031 2.641-.031 3 0v-.469h-.86v-1.75c0-.687.235-1.906 1.235-1.906 0 0-.188.172-.188.453 0 .406.329.61.61.61.297 0 .61-.204.61-.61Zm0 0"/></symbol><symbol overflow="visible" id="g"><path style="stroke:none" d="M2.844 0v-.469h-.61v-4.015L.5-4.406v.468c.594 0 .656 0 .656.391v3.078H.47V0l1.219-.031Zm-.469-6.047a.774.774 0 0 0-.781-.781.784.784 0 0 0-.782.781c0 .422.36.766.782.766a.77.77 0 0 0 .781-.766Zm0 0"/></symbol><symbol overflow="visible" id="h"><path style="stroke:none" d="M5.984 0v-.469c-.609 0-.687 0-.687-.39v-6.063l-1.766.078v.469c.625 0 .703 0 .703.39v1.954a2.178 2.178 0 0 0-1.359-.453c-1.453 0-2.5.875-2.5 2.28 0 1.313.922 2.267 2.39 2.267.61 0 1.094-.235 1.407-.485v.484ZM4.172-1.031c-.14.187-.547.734-1.297.734-1.219 0-1.219-1.203-1.219-1.906 0-.485 0-1.016.25-1.406.297-.422.766-.516 1.078-.516.563 0 .97.313 1.188.61Zm0 0"/></symbol><symbol overflow="visible" id="i"><path style="stroke:none" d="M4.14-1.39c0-.438-.202-.782-.546-1.063-.39-.281-.719-.344-1.485-.485-.375-.062-1.015-.171-1.015-.64 0-.625.922-.625 1.11-.625.75 0 1.124.297 1.171.844.016.156.031.203.234.203.235 0 .235-.047.235-.281v-.797c0-.188 0-.282-.172-.282-.047 0-.063 0-.453.188-.266-.125-.61-.188-1-.188-.313 0-1.844 0-1.844 1.313 0 .39.203.656.406.828.39.344.781.406 1.547.547.36.062 1.094.187 1.094.781 0 .75-.906.75-1.125.75C1.234-.297.984-1.03.859-1.453c-.046-.14-.109-.14-.234-.14-.25 0-.25.062-.25.28v1.094c0 .188 0 .281.188.281.062 0 .078 0 .296-.156l.25-.172c.47.329.985.329 1.188.329.312 0 1.844 0 1.844-1.454Zm0 0"/></symbol><symbol overflow="visible" id="j"><path style="stroke:none" d="M6.125 0v-.469c-.61 0-.688 0-.688-.39v-3.625l-1.812.078v.468c.61 0 .688 0 .688.391v1.906c0 .813-.516 1.344-1.235 1.344-.781 0-.812-.25-.812-.797v-3.39l-1.813.078v.468c.61 0 .688 0 .688.391v2.328c0 1.063.796 1.282 1.796 1.282.25 0 .97 0 1.422-.782v.781Zm0 0"/></symbol><symbol overflow="visible" id="k"><path style="stroke:none" d="M4.36-6.11c0-.421-.36-.874-1.141-.874-.969 0-2.047.421-2.047 1.546v1.016h-.75v.469h.75V-.47H.484V0l1.25-.031c.375 0 1.016 0 1.375.031v-.469H2.25v-3.484h1.14v-.469H2.188v-1.016c0-1.093.75-1.187 1-1.187.047 0 .11 0 .172.031a.585.585 0 0 0-.234.485c0 .421.36.609.61.609.296 0 .624-.203.624-.61Zm0 0"/></symbol><symbol overflow="visible" id="l"><path style="stroke:none" d="M9.328 0v-.469h-.687v-2.578c0-1.031-.516-1.437-1.547-1.437-.907 0-1.422.5-1.688.953-.187-.922-1.11-.953-1.484-.953-.875 0-1.438.453-1.766 1.078v-1.078l-1.703.078v.468c.61 0 .688 0 .688.391v3.078H.453V0l1.25-.031L2.953 0v-.469h-.687v-2.078c0-1.094.875-1.578 1.5-1.578.328 0 .546.203.546.969V-.47h-.687V0l1.266-.031L6.14 0v-.469h-.688v-2.078c0-1.094.86-1.578 1.484-1.578.344 0 .563.203.563.969V-.47h-.688V0l1.25-.031Zm0 0"/></symbol><symbol overflow="visible" id="n"><path style="stroke:none" d="M6.64-4.39c0-.985-.906-1.766-2.437-1.766H.375v.437h.969v5.282H.375V0c.313-.031 1.25-.031 1.61-.031.374 0 1.312 0 1.624.031v-.438h-.968v-2.25h1.656c1.281 0 2.344-.656 2.344-1.703Zm-1.406 0c0 .624 0 1.312-1.375 1.312H2.594v-2.64h1.265c1.375 0 1.375.687 1.375 1.327Zm0 0"/></symbol><symbol overflow="visible" id="o"><path style="stroke:none" d="M5-1.953c0-1.172-.828-2.11-2.344-2.11-1.578 0-2.36.985-2.36 2.11 0 1.11.813 2 2.345 2C4.25.047 5-.891 5-1.953Zm-1.188-.094c0 .766 0 1.719-1.156 1.719-1.172 0-1.172-.953-1.172-1.719 0-.765 0-1.656 1.157-1.656 1.171 0 1.171.89 1.171 1.656Zm0 0"/></symbol><symbol overflow="visible" id="p"><path style="stroke:none" d="M3.828-1.25c0-.469-.265-.75-.422-.89-.406-.329-.687-.376-1.39-.5-.438-.063-1-.157-1-.563 0-.531.828-.531 1.03-.531 1 0 1.032.53 1.063.765 0 .125.125.125.22.125.218 0 .233-.047.233-.265v-.688c0-.172 0-.265-.187-.265-.078 0-.234.078-.39.156-.282-.125-.641-.156-.938-.156-.266 0-1.703 0-1.703 1.187 0 .938 1.187 1.14 1.5 1.188.734.125 1.328.218 1.328.734 0 .64-.844.64-1.047.64-.453 0-1.047-.109-1.297-.937-.047-.156-.062-.172-.25-.172-.234 0-.234.047-.234.266v.953c0 .156 0 .25.187.25.063 0 .078 0 .281-.125l.235-.14c.422.265.906.265 1.078.265.266 0 1.703 0 1.703-1.297Zm0 0"/></symbol><symbol overflow="visible" id="q"><path style="stroke:none" d="M3.531-1.11v-.468h-.469v.453c0 .625-.312.797-.546.797C2-.328 2-.875 2-1.078v-2.469h1.36v-.437H2v-1.704h-.453c-.016.829-.438 1.766-1.344 1.782v.36h.75v2.437c0 1.03.89 1.156 1.438 1.156.703 0 1.14-.5 1.14-1.156Zm0 0"/></symbol><symbol overflow="visible" id="r"><path style="stroke:none" d="M5.297-1.828c0-.969-.734-1.703-1.578-1.89l-1.313-.266c-.906-.204-.922-.813-.922-.938 0-.422.282-.937 1.172-.937 1.422 0 1.781.968 1.875 1.562.032.14.032.188.235.188.218 0 .234-.047.234-.266V-6c0-.156 0-.266-.188-.266-.078 0-.078.016-.187.11l-.406.39c-.5-.39-1.078-.5-1.563-.5-1.437 0-2.062.907-2.062 1.813 0 .64.36 1.047.453 1.14.484.5.781.563 1.719.75l.421.094c.532.11.672.14.97.438.015.015.25.265.25.656 0 .188-.063 1.047-1.22 1.047-.53 0-2.062-.11-2.14-1.5 0-.156 0-.219-.219-.219-.234 0-.234.063-.234.266v1.625c0 .172 0 .265.172.265.078 0 .093 0 .171-.078.063-.047.25-.265.422-.406.547.39 1.344.484 1.844.484 1.516 0 2.094-1 2.094-1.937Zm0 0"/></symbol><symbol overflow="visible" id="s"><path style="stroke:none" d="M4.406-1.047c0-.14-.125-.14-.234-.14-.172 0-.172.015-.25.171-.172.438-.578.688-1.11.688-1.265 0-1.265-1.297-1.265-1.703 0-.531 0-1.64 1.172-1.64.078 0 .562 0 .562.046l-.031.047a.602.602 0 0 0-.125.375c0 .36.281.578.594.578a.569.569 0 0 0 .578-.594c0-.844-1.25-.844-1.61-.844C.97-4.063.345-2.968.345-1.983c0 1.125.812 2.03 2.297 2.03.343 0 .78-.046 1.156-.28.515-.313.61-.782.61-.813Zm0 0"/></symbol><symbol overflow="visible" id="t"><path style="stroke:none" d="M4.078-3.281c0-.453-.469-.75-1-.75-.625 0-1 .453-1.203.968h-.016v-.968L.375-3.97v.438c.531 0 .61 0 .61.36v2.733h-.61V0l1.14-.031c.22 0 .75 0 1.22.031v-.438h-.766v-1.515c0-.656.25-1.703 1.11-1.719a.571.571 0 0 0-.142.39c0 .391.313.579.563.579.297 0 .578-.203.578-.578Zm0 0"/></symbol><symbol overflow="visible" id="u"><path style="stroke:none" d="M2.625 0v-.438h-.547V-4.03L.5-3.97v.438c.516 0 .578 0 .578.36v2.733h-.61V0c.595-.016.72-.031 1.095-.031.437 0 .546.015 1.062.031Zm-.453-5.422a.713.713 0 0 0-.703-.719.71.71 0 0 0-.703.704.7.7 0 0 0 .703.703.697.697 0 0 0 .703-.688Zm0 0"/></symbol><symbol overflow="visible" id="v"><path style="stroke:none" d="M5.531-1.984c0-1.188-.812-2.047-2.172-2.047-.718 0-1.218.297-1.39.422v-.422L.375-3.97v.438c.172 0 .313 0 .438.031.171.031.171.125.171.313v4.484H.375v.437L1.5 1.72l1.14.015v-.437h-.609v-1.64c.531.39 1.016.39 1.188.39 1.406 0 2.312-.844 2.312-2.031ZM4.344-2c0 1.25-.64 1.688-1.235 1.688-.453 0-.843-.25-1.078-.625v-2.157a1.548 1.548 0 0 1 1.188-.562c.625 0 1.125.562 1.125 1.656Zm0 0"/></symbol><symbol overflow="visible" id="w"><path style="stroke:none" d="M7.531-3.031c0-1.906-1.312-3.125-3.203-3.125H.375v.437h.969v5.282H.375V0h3.969C6.125 0 7.53-1.078 7.53-3.031Zm-1.36 0c0 .875 0 2.594-2.202 2.594H2.594V-5.72h1.36c.702 0 1.374.235 1.765.719.39.5.453 1.14.453 1.969Zm0 0"/></symbol><symbol overflow="visible" id="x"><path style="stroke:none" d="M7.75-5.719v-.437c-.484.031-.688.031-1.047.031l-1.187-.031v.437c.234 0 .546 0 .78.11L4.392-1.422 2.453-5.719h.828v-.437c-.328.031-1.219.031-1.594.031s-1.093 0-1.437-.031v.437h.828L3.594-.156c.11.234.234.234.406.234.172 0 .297 0 .406-.234l2.422-5.36c.063-.109.094-.203.766-.203Zm0 0"/></symbol><symbol overflow="visible" id="y"><path style="stroke:none" d="M3.656 0v-.438H2.641v-5.28h1.015v-.438c-.312.031-1.281.031-1.656.031s-1.36 0-1.672-.031v.437h1.016v5.282H.328V0C.641-.031 1.61-.031 1.984-.031c.391 0 1.36 0 1.672.031Zm0 0"/></symbol><symbol overflow="visible" id="z"><path style="stroke:none" d="m6.219-3.922-.266-2.172H.375v.438h.969v5.218H.375V0c.313-.031 1.297-.031 1.672-.031.422 0 1.437 0 1.812.031v-.438H2.641v-2.39h.484c.875 0 .953.375.953 1.047h.453v-2.547h-.453c0 .672-.078 1.047-.953 1.047h-.484v-2.375h1.328c1.437 0 1.656.672 1.797 1.734Zm0 0"/></symbol><symbol overflow="visible" id="A"><path style="stroke:none" d="M7.063-2.047c0-.203-.079-.203-.235-.203-.094 0-.203 0-.219.156C6.531-.797 5.344-.328 4.5-.328c-.484 0-1.36-.11-1.969-.766C2.062-1.625 2-2.469 2-3.078c0-1.078.219-1.61.578-2.031.422-.47 1.156-.72 1.89-.72.798 0 1.845.485 2.063 1.907.032.125.125.125.266.125.25 0 .266-.031.266-.265V-6c0-.156 0-.266-.172-.266-.094 0-.11.016-.188.094l-.594.516a2.96 2.96 0 0 0-1.828-.61C1.97-6.266.594-4.89.594-3.078.594-1.297 1.922.109 4.297.109c1.687 0 2.766-1.078 2.766-2.156Zm0 0"/></symbol><symbol overflow="visible" id="B"><path style="stroke:none" d="M7.672 0v-.438h-.875L4.469-3.53l1.562-2c.078-.11.094-.125.422-.157.203-.03.266-.03.516-.03h.25v-.438l-1.235.031c-.359 0-1.03 0-1.359-.031v.437c.14 0 .5 0 .797.11-.016.015-.016.046-.078.093L4.14-3.969l-1.297-1.75h.719v-.437c-.313.031-1.235.031-1.61.031s-1.14 0-1.484-.031v.437h.89L3.375-3 1.531-.61c-.093.11-.172.11-.406.141-.031 0-.328.031-.531.031H.328V0l1.234-.031c.375 0 1.032 0 1.375.031v-.438c-.14 0-.5 0-.796-.093.015-.031.062-.078.078-.11l1.5-1.921L5.297-.438h-.719V0c.313-.031 1.234-.031 1.61-.031.375 0 1.156 0 1.484.031Zm0 0"/></symbol><symbol overflow="visible" id="C"><path style="stroke:none" d="M9.656 0v-.438h-.969v-5.28h.97v-.438h-2c-.188 0-.313 0-.423.234l-2.203 4.75-2.203-4.75c-.11-.234-.234-.234-.422-.234h-2v.437h.969v5.016c0 .203-.016.203-.266.234-.218.031-.234.031-.468.031H.406V0c.578-.031.828-.031 1.219-.031.39 0 .64 0 1.234.031v-.438h-.234c-.25 0-.266 0-.484-.03C1.89-.5 1.89-.5 1.89-.704v-4.89L4.375-.235c.031.078.11.234.313.234S4.952-.14 5-.234l2.531-5.47h.016v5.266h-.969V0C6.891-.031 7.75-.031 8.11-.031c.36 0 1.235 0 1.547.031Zm0 0"/></symbol><symbol overflow="visible" id="D"><path style="stroke:none" d="M5.922-2.469h-.453c-.063.61-.219 2.031-1.86 2.031h-.968v-5.28h1.218v-.438c-.375.031-1.39.031-1.812.031-.375 0-1.36 0-1.672-.031v.437h.969v5.282H.375V0h5.281Zm0 0"/></symbol><symbol overflow="visible" id="E"><path style="stroke:none" d="M7.906 0v-.438h-.968v-5.28h.968v-.438c-.312.031-1.25.031-1.625.031-.36 0-1.297 0-1.625-.031v.437h.969v2.297H2.641v-2.297h.968v-.437c-.312.031-1.234.031-1.609.031s-1.313 0-1.625-.031v.437h.969v5.282H.375V0c.313-.031 1.25-.031 1.61-.031.374 0 1.312 0 1.624.031v-.438h-.968v-2.546h2.984v2.546h-.969V0c.328-.031 1.25-.031 1.625-.031.36 0 1.313 0 1.625.031Zm0 0"/></symbol><symbol overflow="visible" id="F"><path style="stroke:none" d="m6.984-3.86-.187-2.187H.578L.391-3.859h.453c.094-1 .172-1.75 1.484-1.75h.719v5.171H1.672V0c.39-.031 1.562-.031 2.016-.031.468 0 1.624 0 2.03.031v-.438H4.345v-5.171h.703c1.328 0 1.39.765 1.484 1.75Zm0 0"/></symbol><symbol overflow="visible" id="G"><path style="stroke:none" d="M6.656-2.469h-.453c-.187 1.14-.39 2.031-2.125 2.031H2.641v-2.5h.53c.876 0 .97.391.97 1.047h.453v-2.546H4.14c0 .656-.094 1.062-.97 1.062h-.53v-2.281h1.421c1.422 0 1.704.61 1.844 1.734h.469l-.281-2.172H.375v.438h.969v5.218H.375V0H6.25Zm0 0"/></symbol><symbol overflow="visible" id="I"><path style="stroke:none" d="M10.719-5.719v-.437c-.438.031-.766.031-1 .031-.39 0-.813 0-1.203-.031v.437c.234 0 .64 0 .906.11l-1.578 4-1.625-4.11h.86v-.437c-.313.031-1.188.031-1.563.031-.422 0-1 0-1.407-.031v.437h.766l.36.89-1.282 3.22-1.61-4.11h.845v-.437c-.313.031-1.188.031-1.563.031-.422 0-.984 0-1.39-.031v.437H1L3.188-.172c.062.156.109.25.343.25.25 0 .297-.11.344-.25l1.594-4.047 1.61 4.047c.046.14.093.25.343.25.11 0 .234-.031.297-.125L9.875-5.5c.063-.156.078-.172.344-.188.172-.03.312-.03.5-.03Zm0 0"/></symbol><symbol overflow="visible" id="J"><path style="stroke:none" d="M5.516 0v-.438c-.532 0-.61 0-.61-.359v-5.422l-1.61.063v.437c.548 0 .61 0 .61.36v1.734a1.994 1.994 0 0 0-1.25-.406c-1.453 0-2.312.89-2.312 2.047 0 1.187.844 2.03 2.219 2.03.562 0 1-.202 1.296-.437v.438ZM3.859-.984a1.427 1.427 0 0 1-1.203.671c-1.11 0-1.11-1.062-1.11-1.656 0-.531 0-.906.235-1.234.235-.36.672-.469.985-.469.437 0 .812.188 1.093.547Zm0 0"/></symbol><symbol overflow="visible" id="K"><path style="stroke:none" d="M7.61 0v-.438h-.86L4.39-6.03c-.093-.25-.234-.25-.39-.25s-.297 0-.39.25L1.343-.641C1.28-.5 1.28-.5 1.047-.469a5.055 5.055 0 0 1-.469.031H.391V0C.89-.016 1-.031 1.484-.031c.344 0 .625 0 1.188.031v-.438c-.235 0-.547 0-.797-.093l.5-1.188h2.484l.532 1.282h-.844V0c.312-.031 1.219-.031 1.594-.031s1.14 0 1.468.031ZM4.655-2.156H2.563l1.046-2.516Zm0 0"/></symbol><symbol overflow="visible" id="H"><path style="stroke:none" d="M5.797 0v-.36h-.61L3.5-4.062c-.078-.171-.172-.171-.297-.171h-.25c-.11 0-.219 0-.297.171L1-.453C.969-.391.953-.375.844-.36H.359V0c.125 0 .516-.031.782-.031L2.016 0v-.36H1.89c-.032 0-.375 0-.375-.03l.03-.063.345-.75h1.953l.39.844h-.53V0c.343-.031.765-.031 1.093-.031Zm-2.11-1.563h-1.64l.812-1.78Zm0 0"/></symbol><clipPath id="m"><path d="M83 0h171v150.36H83Zm0 0"/></clipPath></defs><g style="fill:#000;fill-opacity:1"><use xlink:href="#a" x="127.436" y="7.673"/><use xlink:href="#b" x="132.527" y="7.673"/><use xlink:href="#c" x="138.255" y="7.673"/></g><g style="fill:#000;fill-opacity:1"><use xlink:href="#d" x="144.303" y="7.673"/><use xlink:href="#e" x="148.756" y="7.673"/><use xlink:href="#c" x="154.006" y="7.673"/></g><use xlink:href="#d" x="160.054" y="7.673" style="fill:#000;fill-opacity:1"/><g style="fill:#000;fill-opacity:1"><use xlink:href="#b" x="168.323" y="7.673"/><use xlink:href="#f" x="174.051" y="7.673"/><use xlink:href="#g" x="178.773" y="7.673"/><use xlink:href="#e" x="181.952" y="7.673"/><use xlink:href="#c" x="187.202" y="7.673"/></g><g style="fill:#000;fill-opacity:1"><use xlink:href="#d" x="193.249" y="7.673"/><use xlink:href="#e" x="197.702" y="7.673"/><use xlink:href="#h" x="202.953" y="7.673"/></g><g style="fill:#000;fill-opacity:1"><use xlink:href="#i" x=".452" y="149.245"/><use xlink:href="#d" x="4.975" y="149.245"/><use xlink:href="#f" x="9.428" y="149.245"/><use xlink:href="#j" x="14.151" y="149.245"/><use xlink:href="#a" x="20.517" y="149.245"/><use xlink:href="#d" x="25.608" y="149.245"/><use xlink:href="#j" x="30.061" y="149.245"/><use xlink:href="#f" x="36.427" y="149.245"/><use xlink:href="#e" x="41.149" y="149.245"/></g><g style="fill:#000;fill-opacity:1"><use xlink:href="#b" x="50.215" y="149.245"/><use xlink:href="#f" x="55.944" y="149.245"/><use xlink:href="#g" x="60.666" y="149.245"/><use xlink:href="#e" x="63.844" y="149.245"/><use xlink:href="#c" x="69.095" y="149.245"/></g><g style="fill:#000;fill-opacity:1"><use xlink:href="#d" x="75.142" y="149.245"/><use xlink:href="#e" x="79.595" y="149.245"/><use xlink:href="#h" x="84.846" y="149.245"/></g><g style="fill:#000;fill-opacity:1"><use xlink:href="#k" x="245.544" y="149.305"/><use xlink:href="#b" x="249.041" y="149.305"/><use xlink:href="#f" x="254.769" y="149.305"/><use xlink:href="#l" x="259.492" y="149.305"/></g><g style="fill:#000;fill-opacity:1"><use xlink:href="#b" x="272.852" y="149.305"/><use xlink:href="#f" x="278.58" y="149.305"/><use xlink:href="#g" x="283.302" y="149.305"/><use xlink:href="#e" x="286.48" y="149.305"/><use xlink:href="#c" x="291.731" y="149.305"/></g><g style="fill:#000;fill-opacity:1"><use xlink:href="#d" x="297.778" y="149.305"/><use xlink:href="#e" x="302.231" y="149.305"/><use xlink:href="#h" x="307.482" y="149.305"/></g><g clip-path="url(#m)"><path style="fill:none;stroke-width:.79701;stroke-linecap:butt;stroke-linejoin:miter;stroke:gray;stroke-opacity:1;stroke-miterlimit:10" d="M.002 85.042-73.647-42.521H73.646Zm0 0" transform="matrix(1 0 0 -1 168.377 96.292)"/></g><use xlink:href="#n" x="185.545" y="101.209" style="fill:#000;fill-opacity:1"/><g style="fill:#000;fill-opacity:1"><use xlink:href="#o" x="192.494" y="101.209"/><use xlink:href="#p" x="197.802" y="101.209"/><use xlink:href="#q" x="201.989" y="101.209"/><use xlink:href="#r" x="206.114" y="101.209"/><use xlink:href="#s" x="212.005" y="101.209"/><use xlink:href="#t" x="216.721" y="101.209"/><use xlink:href="#u" x="221.097" y="101.209"/><use xlink:href="#v" x="224.047" y="101.209"/><use xlink:href="#q" x="229.938" y="101.209"/></g><use xlink:href="#w" x="179.495" y="50.738" style="fill:#000;fill-opacity:1"/><g style="fill:#000;fill-opacity:1"><use xlink:href="#x" x="187.332" y="50.738"/><use xlink:href="#y" x="195.339" y="50.738"/></g><g style="fill:#000;fill-opacity:1"><use xlink:href="#n" x="175.765" y="109.997"/><use xlink:href="#w" x="183.01" y="109.997"/><use xlink:href="#z" x="191.142" y="109.997"/></g><g style="fill:#000;fill-opacity:1"><use xlink:href="#A" x="202.841" y="141.887"/><use xlink:href="#r" x="210.507" y="141.887"/><use xlink:href="#r" x="216.398" y="141.887"/></g><g style="fill:#000;fill-opacity:1"><use xlink:href="#B" x="107.056" y="99.367"/><use xlink:href="#C" x="115.063" y="99.367"/><use xlink:href="#D" x="125.123" y="99.367"/></g><g style="fill:#000;fill-opacity:1"><use xlink:href="#E" x="129.071" y="108.318"/><use xlink:href="#F" x="137.356" y="108.318"/><use xlink:href="#C" x="144.735" y="108.318"/><use xlink:href="#D" x="154.796" y="108.318"/></g><use xlink:href="#F" x="180.603" y="77.112" style="fill:#000;fill-opacity:1"/><use xlink:href="#G" x="186.487" y="79.102" style="fill:#000;fill-opacity:1"/><use xlink:href="#B" x="192.333" y="77.112" style="fill:#000;fill-opacity:1"/><use xlink:href="#D" x="160.669" y="87.743" style="fill:#000;fill-opacity:1"/><use xlink:href="#H" x="163.816" y="85.925" style="fill:#000;fill-opacity:1"/><use xlink:href="#F" x="168.622" y="87.743" style="fill:#000;fill-opacity:1"/><use xlink:href="#G" x="174.507" y="89.733" style="fill:#000;fill-opacity:1"/><use xlink:href="#B" x="180.353" y="87.743" style="fill:#000;fill-opacity:1"/><use xlink:href="#I" x="161.22" y="102.633" style="fill:#000;fill-opacity:1"/><g style="fill:#000;fill-opacity:1"><use xlink:href="#o" x="171.298" y="102.633"/><use xlink:href="#t" x="176.606" y="102.633"/><use xlink:href="#J" x="180.982" y="102.633"/></g><g style="fill:#000;fill-opacity:1"><use xlink:href="#K" x="153.448" y="25.932"/><use xlink:href="#r" x="161.455" y="25.932"/><use xlink:href="#A" x="167.346" y="25.932"/><use xlink:href="#y" x="175.012" y="25.932"/></g><use xlink:href="#y" x="179.307" y="25.932" style="fill:#000;fill-opacity:1"/></svg>