<svg xmlns="http://www.w3.org/2000/svg" xmlns:xlink="http://www.w3.org/1999/xlink" width="122.095" height="26.937" viewBox="0 0 91.571 20.203" version="1.2"><defs><symbol overflow="visible" id="c"><path style="stroke:none" d="M6.531-1.469c0-.14-.125-.14-.281-.14-.234 0-.25 0-.313.25-.078.328-.265 1.078-.609 1.078-.11 0-.187-.078-.187-.313 0-.187.015-.265.062-.422l.688-2.765c.046-.14.046-.172.046-.219 0-.313-.25-.422-.453-.422-.125 0-.515.063-.64.547l-.688 2.813c-.047.171-.047.218-.328.5-.14.125-.39.28-.687.28-.5 0-.516-.468-.516-.687 0-.594.328-1.484.578-2.11.094-.25.14-.374.14-.546 0-.547-.515-.875-1.046-.875C1.25-4.5.766-3.156.766-2.953c0 .14.125.14.28.14.188 0 .235 0 .282-.124.078-.266.344-1.204.922-1.204.047 0 .125 0 .125.172 0 .203-.11.516-.172.656-.312.86-.594 1.579-.594 2.141 0 .906.641 1.25 1.47 1.25.28 0 .702-.047 1.187-.5.187.344.64.5 1.03.5.47 0 .72-.344.845-.531.265-.422.39-.984.39-1.016Zm0 0"/></symbol><symbol overflow="visible" id="d"><path style="stroke:none" d="M6.813-1.469c0-.14-.125-.14-.266-.14-.203 0-.25 0-.281.125-.079.265-.36 1.203-.922 1.203-.047 0-.14 0-.14-.172 0-.219.093-.469.234-.813.14-.375.578-1.546.578-2.109 0-.828-.579-1.125-1.375-1.125-.204 0-.86 0-1.516.688C2.922-4.391 2.328-4.5 2-4.5c-.469 0-.719.328-.844.531-.265.422-.39.985-.39 1.016 0 .14.125.14.28.14.235 0 .25-.015.313-.265.094-.328.266-1.063.61-1.063.11 0 .187.079.187.297 0 .188-.015.281-.062.438L1.39-.562c-.047.14-.047.156-.047.218 0 .297.234.422.453.422.062 0 .5-.015.625-.531l.625-2.485c.062-.28.625-1.203 1.531-1.203.422 0 .422.375.422.563 0 .594-.453 1.828-.64 2.265-.079.25-.11.36-.11.5 0 .563.5.891 1.047.891 1.031 0 1.516-1.344 1.516-1.547Zm0 0"/></symbol><symbol overflow="visible" id="e"><path style="stroke:none" d="M4.64-1.64c0-.22-.077-.548-.437-.844-.297-.235-.547-.282-1.078-.375-.297-.063-.703-.141-.703-.516 0 0 0-.766 1.062-.766.094 0 .454 0 .688.235-.39.172-.39.531-.39.562 0 .25.202.406.452.406.235 0 .61-.203.61-.687 0-.547-.563-.875-1.344-.875-.781 0-1.125.266-1.313.406-.328.282-.515.813-.515 1.125 0 .844.844 1.016 1.156 1.078.516.094 1.047.204 1.047.657 0 0 0 .953-1.375.953-.14 0-.61 0-.938-.266.079-.031.485-.219.485-.672 0-.39-.313-.468-.485-.468-.359 0-.718.296-.718.78 0 .626.656.985 1.625.985.265 0 .906-.015 1.453-.39.515-.36.719-1 .719-1.329Zm0 0"/></symbol><symbol overflow="visible" id="f"><path style="stroke:none" d="M3.89-1.469c0-.14-.124-.14-.28-.14-.188 0-.235 0-.282.125-.078.265-.344 1.203-.922 1.203-.047 0-.14 0-.14-.172 0-.14.078-.39.093-.406l.891-2.375c.063-.157.094-.235.094-.391 0-.547-.516-.875-1.047-.875C1.25-4.5.766-3.156.766-2.953c0 .14.125.14.28.14.188 0 .235 0 .282-.124.078-.266.344-1.204.922-1.204.047 0 .125 0 .125.172 0 .125-.063.375-.078.406l-.89 2.36c-.063.172-.095.25-.095.39 0 .563.516.891 1.047.891 1.047 0 1.532-1.344 1.532-1.547Zm.141-4.656a.6.6 0 0 0-.625-.594c-.453 0-.89.422-.89.86 0 .328.25.609.625.609.468 0 .89-.438.89-.875Zm0 0"/></symbol><symbol overflow="visible" id="g"><path style="stroke:none" d="m4.5.64 1.078-4.312c.031-.172.031-.25.031-.25 0-.219-.171-.422-.453-.422-.265 0-.375.11-.468.203-.282-.265-.594-.359-.954-.359-1.703 0-2.671 1.64-2.671 2.922C1.063-.516 1.78 0 2.688 0c.312 0 .624-.078.968-.266l-.172.704c-.25.921-.812 1.218-1.343 1.218-.282 0-.5-.031-.625-.062a.803.803 0 0 0 .28-.563c0-.25-.187-.453-.5-.453a.727.727 0 0 0-.702.735c0 .625.781.703 1.515.703C3.313 2.016 4.281 1.5 4.5.64Zm-.625-1.812c-.094.36-.672.813-1.156.813-.531 0-.578-.485-.578-.704 0-.546.359-1.765.484-2.109.328-.828.844-.969 1.11-.969.296 0 .609.157.734.594Zm0 0"/></symbol><symbol overflow="visible" id="h"><path style="stroke:none" d="M5.344-.86c0-.078-.203-.312-.297-.312-.031 0-.078 0-.14.063-.735.828-1.75.828-1.891.828-.547 0-.844-.328-.844-.922 0-.25.078-.625.156-.969h.406c.594 0 2.563 0 2.563-1.375C5.297-4.14 4.75-4.5 4-4.5c-1.719 0-2.906 1.297-2.906 2.828 0 1.078.672 1.75 1.922 1.75.296 0 .89-.031 1.406-.219.531-.203.922-.593.922-.718Zm-.688-2.703c0 1.032-1.625 1.032-2.234 1.032.14-.5.234-.797.531-1.125A1.452 1.452 0 0 1 4-4.141c.422 0 .656.266.656.579Zm0 0"/></symbol><symbol overflow="visible" id="i"><path style="stroke:none" d="M6.234-1.469c0-.14-.14-.14-.28-.14-.235 0-.25 0-.329.25-.078.328-.25 1.078-.594 1.078-.11 0-.187-.078-.187-.313 0-.187.015-.265.062-.422l1.39-5.562a.555.555 0 0 0 .032-.156c0-.188-.172-.188-.312-.172l-1.235.062c-.11 0-.312 0-.312.297 0 .172.187.172.281.172.11 0 .297.016.406.031l-.515 2.157a1.345 1.345 0 0 0-.907-.313c-1.687 0-2.671 1.656-2.671 2.984 0 1.188.828 1.594 1.593 1.594.61 0 1.078-.312 1.313-.5.187.344.64.5 1.031.5.469 0 .719-.344.844-.531.25-.422.39-.984.39-1.016ZM3.844-1c-.422.578-.844.719-1.156.719-.22 0-.563-.14-.563-.703 0-.547.344-1.766.453-2.047.344-.969.89-1.11 1.156-1.11.344 0 .625.22.735.61l-.594 2.36c-.016.062-.016.093-.031.171Zm0 0"/></symbol><symbol overflow="visible" id="j"><path style="stroke:none" d="M4.172-1.469c0-.14-.125-.14-.281-.14-.22 0-.22 0-.297.156-.422 1-.906 1.172-1.172 1.172-.094 0-.203-.016-.203-.313 0-.187.015-.265.047-.422l.75-2.937h.796c.172 0 .329 0 .329-.297 0-.172-.157-.172-.297-.172h-.719l.188-.797c.078-.25.187-.687.187-.765 0-.235-.172-.422-.453-.422-.125 0-.5.062-.625.531l-.36 1.453H1.25c-.172 0-.344 0-.344.281 0 .188.172.188.313.188h.718L1.25-1.172c-.047.156-.047.219-.047.281 0 .625.578.97 1.172.97 1.14 0 1.797-1.391 1.797-1.548Zm0 0"/></symbol><symbol overflow="visible" id="k"><path style="stroke:none" d="M5.61-3.625c0-.516-.548-.875-1.266-.875-.39 0-.86.11-1.282.531C2.892-4.28 2.5-4.5 2-4.5c-.469 0-.719.328-.844.531-.265.422-.39.985-.39 1.016 0 .14.125.14.28.14.235 0 .25-.015.313-.265.094-.328.266-1.063.61-1.063.11 0 .187.079.187.297 0 .188-.015.281-.062.438L1.39-.562c-.047.14-.047.156-.047.218 0 .297.234.422.453.422.062 0 .5-.015.625-.531l.672-2.719c.062-.234.515-.969 1.219-.969.109 0 .343 0 .546.157-.468.218-.468.64-.468.671 0 .25.187.47.5.47.375 0 .718-.329.718-.782Zm0 0"/></symbol><linearGradient id="b" gradientUnits="userSpaceOnUse" x1="0" y1="25.003" x2="0" y2="74.997" gradientTransform="matrix(1.76773 0 0 -.3402 -42.815 26.713)"><stop offset="0" style="stop-color:#e5cccc;stop-opacity:1"/><stop offset=".016" style="stop-color:#e6cccc;stop-opacity:1"/><stop offset=".031" style="stop-color:#e6cdcd;stop-opacity:1"/><stop offset=".047" style="stop-color:#e6cece;stop-opacity:1"/><stop offset=".063" style="stop-color:#e7cfcf;stop-opacity:1"/><stop offset=".078" style="stop-color:#e7d0d0;stop-opacity:1"/><stop offset=".094" style="stop-color:#e8d0d0;stop-opacity:1"/><stop offset=".109" style="stop-color:#e8d1d1;stop-opacity:1"/><stop offset=".125" style="stop-color:#e8d2d2;stop-opacity:1"/><stop offset=".141" style="stop-color:#e9d3d3;stop-opacity:1"/><stop offset=".156" style="stop-color:#e9d4d4;stop-opacity:1"/><stop offset=".172" style="stop-color:#ead4d4;stop-opacity:1"/><stop offset=".188" style="stop-color:#ead5d5;stop-opacity:1"/><stop offset=".203" style="stop-color:#ead6d6;stop-opacity:1"/><stop offset=".219" style="stop-color:#ebd7d7;stop-opacity:1"/><stop offset=".234" style="stop-color:#ebd8d8;stop-opacity:1"/><stop offset=".25" style="stop-color:#ecd8d8;stop-opacity:1"/><stop offset=".266" style="stop-color:#ecd9d9;stop-opacity:1"/><stop offset=".281" style="stop-color:#ecdada;stop-opacity:1"/><stop offset=".297" style="stop-color:#eddbdb;stop-opacity:1"/><stop offset=".313" style="stop-color:#eddcdc;stop-opacity:1"/><stop offset=".328" style="stop-color:#eedcdc;stop-opacity:1"/><stop offset=".344" style="stop-color:#edd;stop-opacity:1"/><stop offset=".359" style="stop-color:#eedede;stop-opacity:1"/><stop offset=".375" style="stop-color:#efdfdf;stop-opacity:1"/><stop offset=".391" style="stop-color:#efe0e0;stop-opacity:1"/><stop offset=".406" style="stop-color:#f0e0e0;stop-opacity:1"/><stop offset=".422" style="stop-color:#f0e1e1;stop-opacity:1"/><stop offset=".438" style="stop-color:#f0e2e2;stop-opacity:1"/><stop offset=".453" style="stop-color:#f1e3e3;stop-opacity:1"/><stop offset=".469" style="stop-color:#f1e4e4;stop-opacity:1"/><stop offset=".484" style="stop-color:#f2e4e4;stop-opacity:1"/><stop offset=".5" style="stop-color:#f2e5e5;stop-opacity:1"/><stop offset=".516" style="stop-color:#f2e6e6;stop-opacity:1"/><stop offset=".531" style="stop-color:#f3e7e7;stop-opacity:1"/><stop offset=".547" style="stop-color:#f3e7e7;stop-opacity:1"/><stop offset=".563" style="stop-color:#f4e8e8;stop-opacity:1"/><stop offset=".578" style="stop-color:#f4e9e9;stop-opacity:1"/><stop offset=".594" style="stop-color:#f4eaea;stop-opacity:1"/><stop offset=".609" style="stop-color:#f5ebeb;stop-opacity:1"/><stop offset=".625" style="stop-color:#f5ebeb;stop-opacity:1"/><stop offset=".641" style="stop-color:#f6ecec;stop-opacity:1"/><stop offset=".656" style="stop-color:#f6eded;stop-opacity:1"/><stop offset=".672" style="stop-color:#f6eeee;stop-opacity:1"/><stop offset=".688" style="stop-color:#f7efef;stop-opacity:1"/><stop offset=".703" style="stop-color:#f7efef;stop-opacity:1"/><stop offset=".719" style="stop-color:#f8f0f0;stop-opacity:1"/><stop offset=".734" style="stop-color:#f8f1f1;stop-opacity:1"/><stop offset=".75" style="stop-color:#f8f2f2;stop-opacity:1"/><stop offset=".766" style="stop-color:#f9f3f3;stop-opacity:1"/><stop offset=".781" style="stop-color:#f9f3f3;stop-opacity:1"/><stop offset=".797" style="stop-color:#faf4f4;stop-opacity:1"/><stop offset=".813" style="stop-color:#faf5f5;stop-opacity:1"/><stop offset=".828" style="stop-color:#faf6f6;stop-opacity:1"/><stop offset=".844" style="stop-color:#fbf7f7;stop-opacity:1"/><stop offset=".859" style="stop-color:#fbf7f7;stop-opacity:1"/><stop offset=".875" style="stop-color:#fcf8f8;stop-opacity:1"/><stop offset=".891" style="stop-color:#fcf9f9;stop-opacity:1"/><stop offset=".906" style="stop-color:#fcfafa;stop-opacity:1"/><stop offset=".922" style="stop-color:#fdfbfb;stop-opacity:1"/><stop offset=".938" style="stop-color:#fdfbfb;stop-opacity:1"/><stop offset=".953" style="stop-color:#fefcfc;stop-opacity:1"/><stop offset=".969" style="stop-color:#fefdfd;stop-opacity:1"/><stop offset=".984" style="stop-color:#fefefe;stop-opacity:1"/><stop offset="1" style="stop-color:#fff;stop-opacity:1"/></linearGradient><clipPath id="a"><path d="M1.383 1.2h88.375V18H1.383Zm0 0"/></clipPath></defs><g clip-path="url(#a)"><path style="stroke:none;fill-rule:nonzero;fill:url(#b)" d="M1.383 18.207V1.199h88.375v17.008Zm0 0"/></g><path style="fill:none;stroke-width:1.19553;stroke-linecap:butt;stroke-linejoin:miter;stroke:#bf8080;stroke-opacity:1;stroke-miterlimit:10" d="M-44.189-8.504h88.375V8.504h-88.375Zm0 0" transform="matrix(1 0 0 -1 45.572 9.704)"/><g style="fill:#000;fill-opacity:1"><use xlink:href="#c" x="4.705" y="12.159"/><use xlink:href="#d" x="10.891" y="12.159"/><use xlink:href="#e" x="17.367" y="12.159"/><use xlink:href="#f" x="22.219" y="12.159"/><use xlink:href="#g" x="25.766" y="12.159"/><use xlink:href="#d" x="31.066" y="12.159"/><use xlink:href="#h" x="37.541" y="12.159"/></g><use xlink:href="#i" x="42.254" y="12.159" style="fill:#000;fill-opacity:1"/><g style="fill:#000;fill-opacity:1"><use xlink:href="#f" x="52.266" y="12.159"/><use xlink:href="#d" x="55.813" y="12.159"/><use xlink:href="#j" x="62.289" y="12.159"/><use xlink:href="#h" x="66.124" y="12.159"/></g><g style="fill:#000;fill-opacity:1"><use xlink:href="#g" x="70.837" y="12.159"/><use xlink:href="#h" x="76.137" y="12.159"/><use xlink:href="#k" x="81.437" y="12.159"/></g></svg>