<svg xmlns="http://www.w3.org/2000/svg" width="40.421" height="9.339" viewBox="0 0 30.316 7.004" version="1.2"><defs><clipPath id="a"><path d="M17 0h12.973v6.508H17Zm0 0"/></clipPath></defs><path style="fill:none;stroke-width:4.98138;stroke-linecap:butt;stroke-linejoin:miter;stroke:#000;stroke-opacity:1;stroke-miterlimit:10" d="M.001 0h25.656" transform="matrix(1 0 0 -1 .667 3)"/><path style="fill:none;stroke-width:2.98883;stroke-linecap:butt;stroke-linejoin:miter;stroke:#fff;stroke-opacity:1;stroke-miterlimit:10" d="M.001 0h25.656" transform="matrix(1 0 0 -1 .667 3)"/><path style="stroke:none;fill-rule:nonzero;fill:#000;fill-opacity:1" d="M27.781 3c-.18-.047-.965-.313-1.457-.602v1.204c.492-.29 1.278-.555 1.457-.602Zm0 0"/><g clip-path="url(#a)"><path style="fill:none;stroke-width:.59775;stroke-linecap:butt;stroke-linejoin:miter;stroke:#000;stroke-opacity:1;stroke-miterlimit:10" d="M1.457 0C1.277.047.493.313 0 .602V-.602c.493.29 1.278.555 1.457.602Zm0 0" transform="matrix(1 0 0 -1 26.324 3)"/></g></svg>