<svg xmlns="http://www.w3.org/2000/svg" xmlns:xlink="http://www.w3.org/1999/xlink" width="132.723" height="137.331" viewBox="0 0 99.542 102.998" version="1.2"><defs><symbol overflow="visible" id="b"><path style="stroke:none" d="M-2.547-3.89c-.844 0-1.36.078-1.875.343-.703.344-.875 1-.875 1.438 0 1 .75 1.375.969 1.484.578.281 1.375.297 1.781.297.531 0 1.328-.016 1.969-.406.594-.36.75-.954.75-1.375 0-.391-.125-1.063-.906-1.47-.579-.296-1.297-.312-1.813-.312Zm2.485 1.78c0 .266-.126.813-.954.985-.453.094-1.203.094-1.625.094-.546 0-1.109 0-1.546-.094-.813-.172-.891-.781-.891-.984 0-.266.14-.829.86-.985.437-.094 1.046-.094 1.577-.094.47 0 1.188 0 1.641.094.828.172.938.719.938.985Zm0 0"/></symbol><symbol overflow="visible" id="c"><path style="stroke:none" d="M-1.625-2.25a9.127 9.127 0 0 1-.5-.594c-.453-.484-.89-.953-1.61-.953-.953 0-1.562.797-1.562 1.781 0 .97.719 1.594 1.438 1.594.39 0 .437-.312.437-.422 0-.172-.11-.422-.422-.422-.406 0-.406.407-.406.5-.594-.234-.781-.765-.781-1.156 0-.734.625-1.125 1.297-1.125.828 0 1.437.578 2.39 1.531l1.047 1c.078.094.094.094.297.094v-3.14l-1.422-.235v.25c.156.016.547.078.703.172.063.047.063.656.063.781v1.422Zm0 0"/></symbol><symbol overflow="visible" id="e"><path style="stroke:none" d="M-5.156-3.14c-.157 0-.219 0-.219.171 0 .094 0 .11.11.188l3.702 2.547h.25v-2.25h.672c.297 0 .375.015.375.64v.172H0c-.031-.672-.031-.687-.031-1.14 0-.454 0-.47.031-1.141h-.266v.172c0 .625-.078.64-.375.64h-.671v-.843h-.25v.843Zm.64.593h2.954v2.031Zm0 0"/></symbol><symbol overflow="visible" id="f"><path style="stroke:none" d="M-2.64-1.094c-.657 0-1.235-.062-1.72-.343-.406-.25-.734-.657-.734-1.157 0-.156.032-.515.297-.703.031.36.297.39.375.39.25 0 .375-.187.375-.374 0-.14-.078-.375-.39-.375-.47 0-.86.36-.86 1.078 0 1.11 1.047 2.234 2.766 2.234C-.36-.344.172-1.359.172-2.125c0-.39-.11-.797-.453-1.156-.313-.328-.64-.594-1.344-.594-1.031 0-1.766.797-1.766 1.672 0 .578.36.922.75 1.11Zm2.562-1.031a.88.88 0 0 1-.516.797c-.36.187-.89.203-1.203.203-.781 0-1.375-.422-1.375-1.047 0-.39.203-.64.485-.781.296-.172.656-.172 1.062-.172s.75 0 1.047.156c.36.219.5.485.5.844Zm0 0"/></symbol><symbol overflow="visible" id="g"><path style="stroke:none" d="M-2.875-2.64c-.219-.454-.61-1-1.234-1-.766 0-1.188.78-1.188 1.515 0 .844.578 1.531 1.328 1.531.297 0 .563-.094.797-.297.172-.14.188-.171.5-.656.438.984 1.016 1.203 1.453 1.203.89 0 1.39-.89 1.39-1.765 0-.97-.671-1.766-1.515-1.766-.5 0-.828.266-.968.406-.126.125-.141.14-.563.828Zm-.75 1.234c-.14.234-.375.422-.64.422-.5 0-.829-.547-.829-1.125 0-.61.422-1.125.985-1.125.453 0 .843.359 1.078.828Zm1.094-.39c.015-.032.578-.938.656-1.079.078-.125.328-.547.813-.547.609 0 .984.656.984 1.297 0 .719-.484 1.313-1.14 1.313-.595 0-1.063-.438-1.313-.985Zm0 0"/></symbol><symbol overflow="visible" id="h"><path style="stroke:none" d="M-5.078-2.5c-.219 0-.219.016-.219.234.313.329.5.75.5 1.5h.266c0-.218 0-.64-.203-1.109h4.078c.297 0 .39.031.39.781v.282H0c-.031-.329-.031-1.016-.031-1.375 0-.36 0-1.047.031-1.376h-.266v.282c0 .75-.093.781-.39.781Zm0 0"/></symbol><symbol overflow="visible" id="d"><path style="stroke:none" d="M-.125-1.484c.516 0 .984.109 1.469.593.031.032.047.047.078.047.062 0 .11-.062.11-.11 0-.093-.626-.765-1.563-.765-.5 0-.86.203-.86.547 0 .281.235.438.438.438.234 0 .453-.157.453-.438 0-.203-.11-.312-.125-.312Zm0 0"/></symbol><symbol overflow="visible" id="i"><path style="stroke:none" d="M5.563-1.813c.14 0 .312 0 .312-.171 0-.188-.172-.188-.313-.188H1c-.125 0-.297 0-.297.188 0 .171.172.171.297.171Zm0 0"/></symbol><symbol overflow="visible" id="j"><path style="stroke:none" d="M2.5-5.078c0-.219-.016-.219-.234-.219-.329.313-.75.5-1.5.5v.266c.218 0 .64 0 1.109-.203v4.078c0 .297-.031.39-.781.39H.812V0c.329-.031 1.016-.031 1.375-.031.36 0 1.047 0 1.376.031v-.266H3.28c-.75 0-.781-.093-.781-.39Zm0 0"/></symbol><symbol overflow="visible" id="k"><path style="stroke:none" d="M3.89-2.547c0-.844-.078-1.36-.343-1.875-.344-.703-1-.875-1.438-.875-1 0-1.375.75-1.484.969C.344-3.75.328-2.953.328-2.547c0 .531.016 1.328.406 1.969.36.594.954.75 1.375.75.391 0 1.063-.125 1.47-.906.296-.579.312-1.297.312-1.813ZM2.11-.062c-.266 0-.813-.126-.985-.954-.094-.453-.094-1.203-.094-1.625 0-.546 0-1.109.094-1.546.172-.813.781-.891.984-.891.266 0 .829.14.985.86.094.437.094 1.046.094 1.577 0 .47 0 1.188-.094 1.641-.172.828-.719.938-.985.938Zm0 0"/></symbol><symbol overflow="visible" id="l"><path style="stroke:none" d="M1.11-4.484c.109.03.421.125.765.125 1 0 1.594-.704 1.594-.829 0-.093-.047-.109-.094-.109-.016 0-.031 0-.094.031a2.982 2.982 0 0 1-1.11.22c-.468 0-.858-.11-1.108-.22-.079-.03-.094-.03-.11-.03-.094 0-.094.077-.094.234v2.328c0 .14 0 .234.125.234.063 0 .079-.031.125-.094.094-.11.391-.515 1.079-.515.437 0 .656.359.734.515.125.281.14.656.14.953 0 .297 0 .735-.218 1.079-.156.25-.485.484-.906.484A1.271 1.271 0 0 1 .734-.922c.016.016.079.016.079.016.218 0 .406-.14.406-.39a.388.388 0 0 0-.39-.407c-.157 0-.407.078-.407.422 0 .718.625 1.453 1.531 1.453 1 0 1.844-.781 1.844-1.766 0-.922-.672-1.75-1.61-1.75-.39 0-.765.125-1.078.406Zm0 0"/></symbol><clipPath id="a"><path d="M15 0h84.313v84H15Zm0 0"/></clipPath></defs><path style="fill:none;stroke-width:.3985;stroke-linecap:round;stroke-linejoin:miter;stroke:gray;stroke-opacity:1;stroke-miterlimit:10" d="M0-1.994v1.992M14.172-1.994v1.992M28.348-1.994v1.992M42.52-1.994v1.992M56.695-1.994v1.992M70.867-1.994v1.992M0 70.865v1.996M14.172 70.865v1.996M28.348 70.865v1.996M42.52 70.865v1.996M56.695 70.865v1.996M70.867 70.865v1.996M-1.992-.002H0M-1.992 17.717H0M-1.992 35.432H0M-1.992 53.15H0M-1.992 70.865H0M70.867-.002h1.992M70.867 17.717h1.992M70.867 35.432h1.992M70.867 53.15h1.992M70.867 70.865h1.992" transform="matrix(1 0 0 -1 24.121 74.584)"/><path style="fill:none;stroke-width:.3985;stroke-linecap:butt;stroke-linejoin:miter;stroke:gray;stroke-opacity:1;stroke-miterlimit:10" d="M0-.002h70.867M0 70.865h70.867M0-.002v70.867M70.867-.002v70.867" transform="matrix(1 0 0 -1 24.121 74.584)"/><g clip-path="url(#a)"><path style="fill:none;stroke-width:.59776;stroke-linecap:butt;stroke-linejoin:miter;stroke:#000;stroke-opacity:1;stroke-miterlimit:10" d="M70.867-.002s-8.316 2.137-11.32 2.953c-3.004.82-7.602 2.137-10.332 2.953-2.734.82-6.895 2.133-9.352 2.953-2.457.82-6.183 2.133-8.367 2.954-2.183.82-5.469 2.132-7.383 2.953-1.91.82-4.757 2.133-6.398 2.953-1.637.82-4.047 2.133-5.41 2.953-1.367.82-3.34 2.133-4.43 2.953-1.094.82-2.625 2.133-3.445 2.953-.82.817-1.914 2.133-2.461 2.953-.547.817-1.203 2.133-1.477 2.953C.22 33.3 0 34.615 0 35.432c0 .82.219 2.136.492 2.953.274.82.93 2.137 1.477 2.953.547.82 1.64 2.133 2.46 2.953.821.82 2.352 2.133 3.446 2.953 1.09.82 3.063 2.133 4.43 2.953 1.363.82 3.773 2.133 5.41 2.953 1.64.82 4.488 2.133 6.398 2.954 1.914.82 5.2 2.132 7.383 2.953 2.184.82 5.906 2.132 8.367 2.953 2.457.816 6.618 2.133 9.348 2.953a547.81 547.81 0 0 0 10.336 2.953c3.004.816 11.32 2.95 11.32 2.95" transform="matrix(1 0 0 -1 24.121 74.584)"/></g><use xlink:href="#b" x="26.689" y="83.466" style="fill:#000;fill-opacity:1"/><use xlink:href="#c" x="40.087" y="98.521" style="fill:#000;fill-opacity:1"/><use xlink:href="#d" x="40.087" y="94.287" style="fill:#000;fill-opacity:1"/><g style="fill:#000;fill-opacity:1"><use xlink:href="#b" x="40.087" y="91.934"/><use xlink:href="#b" x="40.087" y="87.699"/><use xlink:href="#b" x="40.087" y="83.465"/></g><use xlink:href="#e" x="54.26" y="98.521" style="fill:#000;fill-opacity:1"/><use xlink:href="#d" x="54.26" y="94.286" style="fill:#000;fill-opacity:1"/><g style="fill:#000;fill-opacity:1"><use xlink:href="#b" x="54.26" y="91.934"/><use xlink:href="#b" x="54.26" y="87.699"/><use xlink:href="#b" x="54.26" y="83.465"/></g><use xlink:href="#f" x="68.434" y="98.521" style="fill:#000;fill-opacity:1"/><use xlink:href="#d" x="68.434" y="94.287" style="fill:#000;fill-opacity:1"/><g style="fill:#000;fill-opacity:1"><use xlink:href="#b" x="68.434" y="91.935"/><use xlink:href="#b" x="68.434" y="87.7"/><use xlink:href="#b" x="68.434" y="83.466"/></g><use xlink:href="#g" x="82.607" y="98.521" style="fill:#000;fill-opacity:1"/><use xlink:href="#d" x="82.607" y="94.287" style="fill:#000;fill-opacity:1"/><g style="fill:#000;fill-opacity:1"><use xlink:href="#b" x="82.607" y="91.935"/><use xlink:href="#b" x="82.607" y="87.7"/><use xlink:href="#b" x="82.607" y="83.466"/></g><g style="fill:#000;fill-opacity:1"><use xlink:href="#h" x="96.78" y="102.755"/><use xlink:href="#b" x="96.78" y="98.52"/></g><use xlink:href="#d" x="96.78" y="94.287" style="fill:#000;fill-opacity:1"/><g style="fill:#000;fill-opacity:1"><use xlink:href="#b" x="96.78" y="91.934"/><use xlink:href="#b" x="96.78" y="87.699"/><use xlink:href="#b" x="96.78" y="83.465"/></g><use xlink:href="#i" x=".183" y="76.737" style="fill:#000;fill-opacity:1"/><g style="fill:#000;fill-opacity:1"><use xlink:href="#j" x="6.77" y="76.737"/><use xlink:href="#k" x="11.005" y="76.737"/><use xlink:href="#k" x="15.239" y="76.737"/></g><use xlink:href="#i" x="4.417" y="59.02" style="fill:#000;fill-opacity:1"/><g style="fill:#000;fill-opacity:1"><use xlink:href="#l" x="11.004" y="59.02"/><use xlink:href="#k" x="15.239" y="59.02"/></g><use xlink:href="#k" x="15.238" y="41.719" style="fill:#000;fill-opacity:1"/><g style="fill:#000;fill-opacity:1"><use xlink:href="#l" x="11.004" y="24.002"/><use xlink:href="#k" x="15.239" y="24.002"/></g><g style="fill:#000;fill-opacity:1"><use xlink:href="#j" x="6.77" y="6.286"/><use xlink:href="#k" x="11.005" y="6.286"/><use xlink:href="#k" x="15.239" y="6.286"/></g></svg>