<svg xmlns="http://www.w3.org/2000/svg" xmlns:xlink="http://www.w3.org/1999/xlink" width="214.841" height="149.812" viewBox="0 0 161.131 112.359" version="1.2"><defs><symbol overflow="visible" id="b"><path style="stroke:none" d="M3.89-2.547c0-.844-.078-1.36-.343-1.875-.344-.703-1-.875-1.438-.875-1 0-1.375.75-1.484.969C.344-3.75.328-2.953.328-2.547c0 .531.016 1.328.406 1.969.36.594.954.75 1.375.75.391 0 1.063-.125 1.47-.906.296-.579.312-1.297.312-1.813ZM2.11-.062c-.266 0-.813-.126-.985-.954-.094-.453-.094-1.203-.094-1.625 0-.546 0-1.109.094-1.546.172-.813.781-.891.984-.891.266 0 .829.14.985.86.094.437.094 1.046.094 1.577 0 .47 0 1.188-.094 1.641-.172.828-.719.938-.985.938Zm0 0"/></symbol><symbol overflow="visible" id="c"><path style="stroke:none" d="M2.25-1.625c.125-.125.453-.39.594-.5.484-.453.953-.89.953-1.61 0-.953-.797-1.562-1.781-1.562-.97 0-1.594.719-1.594 1.438 0 .39.312.437.422.437.172 0 .422-.11.422-.422 0-.406-.407-.406-.5-.406.234-.594.765-.781 1.156-.781.734 0 1.125.625 1.125 1.297 0 .828-.578 1.437-1.531 2.39l-1 1.047C.422-.219.422-.203.422 0h3.14l.235-1.422h-.25c-.016.156-.078.547-.172.703-.047.063-.656.063-.781.063H1.172Zm0 0"/></symbol><symbol overflow="visible" id="d"><path style="stroke:none" d="M3.14-5.156c0-.157 0-.219-.171-.219-.094 0-.11 0-.188.11L.234-1.564v.25h2.25v.672c0 .297-.015.375-.64.375h-.172V0c.672-.031.687-.031 1.14-.031.454 0 .47 0 1.141.031v-.266h-.172c-.625 0-.64-.078-.64-.375v-.671h.843v-.25h-.843Zm-.593.64v2.954H.516Zm0 0"/></symbol><symbol overflow="visible" id="e"><path style="stroke:none" d="M2.64-2.875c.454-.219 1-.61 1-1.234 0-.766-.78-1.188-1.515-1.188-.844 0-1.531.578-1.531 1.328 0 .297.094.563.297.797.14.172.171.188.656.5C.563-2.234.344-1.656.344-1.219c0 .89.89 1.39 1.765 1.39.97 0 1.766-.671 1.766-1.515 0-.5-.266-.828-.406-.968-.125-.126-.14-.141-.828-.563Zm-1.234-.75c-.234-.14-.422-.375-.422-.64 0-.5.547-.829 1.125-.829.61 0 1.125.422 1.125.985 0 .453-.359.843-.828 1.078Zm.39 1.094c.032.015.938.578 1.079.656.125.078.547.328.547.813 0 .609-.656.984-1.297.984-.719 0-1.313-.484-1.313-1.14 0-.595.438-1.063.985-1.313Zm0 0"/></symbol><symbol overflow="visible" id="f"><path style="stroke:none" d="M4.031-4.86c.078-.077.078-.093.078-.265H2.08a8.79 8.79 0 0 1-.642-.031c-.421-.032-.421-.11-.453-.235h-.25L.47-3.703h.25c.015-.125.11-.672.219-.735.078-.046.687-.046.796-.046h1.688l-.813 1.109C1.703-2.172 1.5-.906 1.5-.281c0 .078 0 .453.375.453s.375-.36.375-.453v-.39c0-1.141.203-2.079.594-2.61Zm0 0"/></symbol><symbol overflow="visible" id="h"><path style="stroke:none" d="M1.094-2.64c0-.657.062-1.235.343-1.72.25-.406.657-.734 1.157-.734.156 0 .515.032.703.297-.36.031-.39.297-.39.375 0 .25.187.375.374.375.14 0 .375-.078.375-.39 0-.47-.36-.86-1.078-.86C1.468-5.297.344-4.25.344-2.53.344-.36 1.359.172 2.125.172c.39 0 .797-.11 1.156-.453.328-.313.594-.64.594-1.344 0-1.031-.797-1.766-1.672-1.766-.578 0-.922.36-1.11.75ZM2.125-.079a.88.88 0 0 1-.797-.516c-.187-.36-.203-.89-.203-1.203 0-.781.422-1.375 1.047-1.375.39 0 .64.203.781.485.172.296.172.656.172 1.062s0 .75-.156 1.047c-.219.36-.485.5-.844.5Zm0 0"/></symbol><symbol overflow="visible" id="g"><path style="stroke:none" d="M1.625-.438a.463.463 0 0 0-.453-.453.447.447 0 0 0-.438.438.44.44 0 0 0 .438.453.45.45 0 0 0 .453-.438Zm0 0"/></symbol><symbol overflow="visible" id="i"><path style="stroke:none" d="M5.656 0v-.438h-.61v-2.296c0-1.063-.655-1.297-1.437-1.297-.843 0-1.328.484-1.562.843v-3.03l-1.594.062v.437c.531 0 .61 0 .61.36v4.921h-.61V0l1.125-.031L2.718 0v-.438H2.11V-2.28c0-1 .829-1.39 1.36-1.39.344 0 .515.187.515.858v2.376h-.609V0l1.14-.031Zm0 0"/></symbol><symbol overflow="visible" id="j"><path style="stroke:none" d="M5-1.953c0-1.172-.828-2.11-2.344-2.11-1.578 0-2.36.985-2.36 2.11 0 1.11.813 2 2.345 2C4.25.047 5-.891 5-1.953Zm-1.188-.094c0 .766 0 1.719-1.156 1.719-1.172 0-1.172-.953-1.172-1.719 0-.765 0-1.656 1.157-1.656 1.171 0 1.171.89 1.171 1.656Zm0 0"/></symbol><symbol overflow="visible" id="k"><path style="stroke:none" d="M5.656 0v-.438c-.547 0-.61 0-.61-.359V-4.03l-1.671.062v.438c.547 0 .61 0 .61.36v1.702c0 .719-.454 1.157-1.157 1.157-.687 0-.719-.188-.719-.672v-3.047L.453-3.97v.438c.531 0 .61 0 .61.36v2.062c0 .984.765 1.156 1.64 1.156.281 0 .89 0 1.344-.672v.672Zm0 0"/></symbol><symbol overflow="visible" id="l"><path style="stroke:none" d="M4.078-3.281c0-.453-.469-.75-1-.75-.625 0-1 .453-1.203.968h-.016v-.968L.375-3.97v.438c.531 0 .61 0 .61.36v2.733h-.61V0l1.14-.031c.22 0 .75 0 1.22.031v-.438h-.766v-1.515c0-.656.25-1.703 1.11-1.719a.571.571 0 0 0-.142.39c0 .391.313.579.563.579.297 0 .578-.203.578-.578Zm0 0"/></symbol><symbol overflow="visible" id="m"><path style="stroke:none" d="M3.828-1.25c0-.469-.265-.75-.422-.89-.406-.329-.687-.376-1.39-.5-.438-.063-1-.157-1-.563 0-.531.828-.531 1.03-.531 1 0 1.032.53 1.063.765 0 .125.125.125.22.125.218 0 .233-.047.233-.265v-.688c0-.172 0-.265-.187-.265-.078 0-.234.078-.39.156-.282-.125-.641-.156-.938-.156-.266 0-1.703 0-1.703 1.187 0 .938 1.187 1.14 1.5 1.188.734.125 1.328.218 1.328.734 0 .64-.844.64-1.047.64-.453 0-1.047-.109-1.297-.937-.047-.156-.062-.172-.25-.172-.234 0-.234.047-.234.266v.953c0 .156 0 .25.187.25.063 0 .078 0 .281-.125l.235-.14c.422.265.906.265 1.078.265.266 0 1.703 0 1.703-1.297Zm0 0"/></symbol><clipPath id="a"><path d="M7 0h153.695v99H7Zm0 0"/></clipPath></defs><path style="fill:none;stroke-width:.3985;stroke-linecap:round;stroke-linejoin:miter;stroke:gray;stroke-opacity:1;stroke-miterlimit:10" d="M10.628-1.393V.002M21.26-1.393V.002M31.89-1.393V.002M53.151-1.393V.002M63.78-1.393V.002M74.41-1.393V.002M95.67-1.393V.002M106.3-1.393V.002M116.929-1.393V.002M138.19-1.393V.002M10.628 87.591v1.395M21.26 87.591v1.395M31.89 87.591v1.395M53.151 87.591v1.395M63.78 87.591v1.395M74.41 87.591v1.395M95.67 87.591v1.395M106.3 87.591v1.395M116.929 87.591v1.395M138.19 87.591v1.395M-.001-1.99V.001M42.519-1.99V.001M85.042-1.99V.001M127.562-1.99V.001M-.001 87.591v1.993M42.519 87.591v1.993M85.042 87.591v1.993M127.562 87.591v1.993M-1.993.002h1.992M-1.993 23.357h1.992M-1.993 46.716h1.992M-1.993 70.072h1.992M141.733.002h1.993M141.733 23.357h1.993M141.733 46.716h1.993M141.733 70.072h1.993" transform="matrix(1 0 0 -1 15.77 90.463)"/><path style="fill:none;stroke-width:.3985;stroke-linecap:butt;stroke-linejoin:miter;stroke:gray;stroke-opacity:1;stroke-miterlimit:10" d="M-.001.002h141.734M-.001 87.591h141.734M-.001.002v87.59M141.733.002v87.59" transform="matrix(1 0 0 -1 15.77 90.463)"/><g clip-path="url(#a)"><path style="fill:none;stroke-width:.59776;stroke-linecap:butt;stroke-linejoin:miter;stroke:#000;stroke-opacity:1;stroke-miterlimit:10" d="M-.001.002h17.719l17.715 58.39 17.718 29.2 17.715-5.84 17.719-11.68 17.715-11.68 17.719-5.836 17.714 2.332" transform="matrix(1 0 0 -1 15.77 90.463)"/></g><use xlink:href="#b" x="13.653" y="100.248" style="fill:#000;fill-opacity:1"/><g style="fill:#000;fill-opacity:1"><use xlink:href="#c" x="54.056" y="100.248"/><use xlink:href="#d" x="58.291" y="100.248"/></g><g style="fill:#000;fill-opacity:1"><use xlink:href="#d" x="96.576" y="100.248"/><use xlink:href="#e" x="100.811" y="100.248"/></g><g style="fill:#000;fill-opacity:1"><use xlink:href="#f" x="139.096" y="100.248"/><use xlink:href="#c" x="143.331" y="100.248"/></g><use xlink:href="#b" x="6.888" y="93.031" style="fill:#000;fill-opacity:1"/><use xlink:href="#b" x=".301" y="69.674" style="fill:#000;fill-opacity:1"/><use xlink:href="#g" x="4.535" y="69.674" style="fill:#000;fill-opacity:1"/><use xlink:href="#c" x="6.888" y="69.674" style="fill:#000;fill-opacity:1"/><use xlink:href="#b" x=".301" y="46.316" style="fill:#000;fill-opacity:1"/><use xlink:href="#g" x="4.535" y="46.316" style="fill:#000;fill-opacity:1"/><use xlink:href="#d" x="6.888" y="46.316" style="fill:#000;fill-opacity:1"/><use xlink:href="#b" x=".301" y="22.959" style="fill:#000;fill-opacity:1"/><use xlink:href="#g" x="4.535" y="22.959" style="fill:#000;fill-opacity:1"/><use xlink:href="#h" x="6.888" y="22.959" style="fill:#000;fill-opacity:1"/><g style="fill:#000;fill-opacity:1"><use xlink:href="#i" x="73.811" y="110.986"/><use xlink:href="#j" x="79.701" y="110.986"/><use xlink:href="#k" x="85.01" y="110.986"/><use xlink:href="#l" x="90.9" y="110.986"/><use xlink:href="#m" x="95.276" y="110.986"/></g></svg>