<svg xmlns="http://www.w3.org/2000/svg" width="65.451" height="16.323" viewBox="0 0 49.088 12.242" version="1.2"><defs><clipPath id="a"><path d="M0 0h48.633v11.863H0Zm0 0"/></clipPath><clipPath id="b"><path d="M0 0h11v11.863H0Zm0 0"/></clipPath><clipPath id="c"><path d="M23 0h16v11.863H23Zm0 0"/></clipPath><clipPath id="d"><path d="M37 0h11.633v11H37Zm0 0"/></clipPath></defs><g clip-path="url(#a)"><path style="fill:none;stroke-width:.3985;stroke-linecap:butt;stroke-linejoin:miter;stroke:#bfbfbf;stroke-opacity:1;stroke-miterlimit:10" d="m0 0 14.175 5.668L28.347 0l14.172 5.668" transform="matrix(1 0 0 -1 2.825 8.582)"/></g><path style="stroke:none;fill-rule:nonzero;fill:#d2c92a;fill-opacity:1" d="M2.824 10.574.832 8.582 2.824 6.59"/><path style="stroke:none;fill-rule:nonzero;fill:#fff;fill-opacity:1" d="m2.824 10.574 1.992-1.992L2.824 6.59"/><g clip-path="url(#b)"><path style="fill:none;stroke-width:.3985;stroke-linecap:butt;stroke-linejoin:miter;stroke:#000;stroke-opacity:1;stroke-miterlimit:10" d="M1.991 0 0 1.992-1.993 0l1.992-1.992Zm0 0" transform="matrix(1 0 0 -1 2.825 8.582)"/></g><path style="stroke:none;fill-rule:nonzero;fill:#d2c92a;fill-opacity:1" d="m17 4.906-1.996-1.992L17 .922"/><path style="stroke:none;fill-rule:nonzero;fill:#fff;fill-opacity:1" d="m17 4.906 1.992-1.992L17 .922"/><path style="fill:none;stroke-width:.3985;stroke-linecap:butt;stroke-linejoin:miter;stroke:#000;stroke-opacity:1;stroke-miterlimit:10" d="M16.167 5.668 14.175 7.66l-1.996-1.992 1.996-1.992Zm0 0" transform="matrix(1 0 0 -1 2.825 8.582)"/><path style="stroke:none;fill-rule:nonzero;fill:#d2c92a;fill-opacity:1" d="M31.172 10.574 29.18 8.582l1.992-1.992"/><path style="stroke:none;fill-rule:nonzero;fill:#fff;fill-opacity:1" d="m31.172 10.574 1.992-1.992-1.992-1.992"/><g clip-path="url(#c)"><path style="fill:none;stroke-width:.3985;stroke-linecap:butt;stroke-linejoin:miter;stroke:#000;stroke-opacity:1;stroke-miterlimit:10" d="m30.34 0-1.993 1.992L26.355 0l1.992-1.992Zm0 0" transform="matrix(1 0 0 -1 2.825 8.582)"/></g><path style="stroke:none;fill-rule:nonzero;fill:#d2c92a;fill-opacity:1" d="m45.344 4.906-1.992-1.992L45.344.922"/><path style="stroke:none;fill-rule:nonzero;fill:#fff;fill-opacity:1" d="m45.344 4.906 1.992-1.992L45.344.922"/><g clip-path="url(#d)"><path style="fill:none;stroke-width:.3985;stroke-linecap:butt;stroke-linejoin:miter;stroke:#000;stroke-opacity:1;stroke-miterlimit:10" d="M44.51 5.668 42.52 7.66l-1.992-1.992 1.992-1.992Zm0 0" transform="matrix(1 0 0 -1 2.825 8.582)"/></g></svg>