<svg xmlns="http://www.w3.org/2000/svg" xmlns:xlink="http://www.w3.org/1999/xlink" width="126.315" height="106.011" viewBox="0 0 94.736 79.508" version="1.2"><defs><symbol overflow="visible" id="a"><path style="stroke:none" d="M5.828 0v-.469h-.703L3.453-2.453 4.61-3.75c.141-.14.204-.203 1.016-.203v-.469l-.906.031-1.032-.03v.468c.141 0 .266.015.376.078-.032.063-.032.094-.079.125l-.828.938-.984-1.141h.406v-.469L1.36-4.39.266-4.42v.468h.718l1.547 1.828L1.22-.656c-.157.187-.516.187-1 .187V0l.922-.031L2.156 0v-.469c-.172 0-.36-.047-.36-.11 0 0 0-.015.063-.093l.97-1.094L3.921-.469h-.39V0l1.202-.031Zm0 0"/></symbol><symbol overflow="visible" id="b"><path style="stroke:none" d="M5.781-3.953v-.469A12.55 12.55 0 0 1 5-4.39l-.906-.03v.468s.468 0 .468.11L4.5-3.72 3.36-1.266 2.093-3.953h.531v-.469l-1.234.031-1.125-.03v.468H.89L2.766 0 2.53.484C2.312.954 2 1.641 1.281 1.641c-.14 0-.156-.016-.234-.047.094-.032.312-.172.312-.532C1.36.734 1.125.5.781.5a.553.553 0 0 0-.562.578c0 .5.469.922 1.062.922.766 0 1.344-.625 1.625-1.188l2.14-4.562c.063-.14.095-.203.735-.203Zm0 0"/></symbol><symbol overflow="visible" id="c"><path style="stroke:none" d="M4.61-2.016h-.47C4.048-1 3.89-.406 2.579-.406h-.86L4.469-4c.095-.11.11-.125.11-.219 0-.203-.14-.203-.328-.203H.594l-.11 1.734h.47c.046-1.015.359-1.374 1.39-1.374h.844L.405-.438C.312-.329.312-.314.312-.22.313 0 .454 0 .641 0h3.78Zm0 0"/></symbol></defs><path style="stroke:none;fill-rule:nonzero;fill:#999;fill-opacity:1" d="m35.574 25.45-20.246-9.075 35.067-5.242L70.64 20.21Zm0 0"/><path style="stroke:none;fill-rule:nonzero;fill:gray;fill-opacity:1" d="M35.574 64.563V25.449l-20.246-9.074-8.101 35.48Zm0 0"/><path style="stroke:none;fill-rule:nonzero;fill:#bfbfbf;fill-opacity:1" d="M35.574 64.563V25.449l35.067-5.238 14.03 37.016Zm0 0"/><path style="fill:none;stroke-width:.3985;stroke-linecap:butt;stroke-linejoin:miter;stroke:#000;stroke-opacity:1;stroke-miterlimit:10" d="m-12.273-1.835 60.976 9.113" transform="matrix(1 0 0 -1 35.574 64.563)"/><path style="fill:none;stroke-width:.3985;stroke-linecap:round;stroke-linejoin:round;stroke:#000;stroke-opacity:1;stroke-miterlimit:10" d="M-2.07 2.389C-1.693.958-.85.279.001.002c-.852-.28-1.696-.96-2.076-2.392" transform="scale(.99995 -.99995) rotate(8.498 427.578 539.9)"/><use xlink:href="#a" x="87.786" y="58.521" style="fill:#000;fill-opacity:1"/><path style="fill:none;stroke-width:.3985;stroke-linecap:butt;stroke-linejoin:miter;stroke:#000;stroke-opacity:1;stroke-miterlimit:10" d="m7.086-3.175-35.07 15.718" transform="matrix(1 0 0 -1 35.574 64.563)"/><path style="fill:none;stroke-width:.3985;stroke-linecap:round;stroke-linejoin:round;stroke:#000;stroke-opacity:1;stroke-miterlimit:10" d="M-2.072 2.393C-1.693.958-.85.28-.002 0c-.847-.278-1.69-.955-2.069-2.392" transform="scale(-.99997 .99997) rotate(-24.145 117.718 43.29)"/><use xlink:href="#b" x=".661" y="51.483" style="fill:#000;fill-opacity:1"/><path style="fill:none;stroke-width:.3985;stroke-linecap:butt;stroke-linejoin:miter;stroke:#000;stroke-opacity:1;stroke-miterlimit:10" d="M0-13.69v68.054" transform="matrix(1 0 0 -1 35.574 64.563)"/><path style="fill:none;stroke-width:.3985;stroke-linecap:round;stroke-linejoin:round;stroke:#000;stroke-opacity:1;stroke-miterlimit:10" d="M-2.074 2.39C-1.695.957-.85.277 0 0-.85-.278-1.695-.957-2.074-2.39" transform="matrix(0 -1 -1 0 35.574 10)"/><use xlink:href="#c" x="33.029" y="5.168" style="fill:#000;fill-opacity:1"/></svg>