<svg xmlns="http://www.w3.org/2000/svg" width="40.477" height="45.315" viewBox="0 0 30.358 33.986" version="1.2"><defs><clipPath id="a"><path d="M19 0h11.035v10H19Zm0 0"/></clipPath><clipPath id="b"><path d="M17 9h13.035v16H17Zm0 0"/></clipPath><clipPath id="c"><path d="M14 24h16.035v9.98H14Zm0 0"/></clipPath></defs><path style="fill:none;stroke-width:.3985;stroke-linecap:butt;stroke-linejoin:miter;stroke:#000;stroke-opacity:1;stroke-miterlimit:10" d="M0 28.349h25.285" transform="matrix(1 0 0 -1 .688 31.169)"/><path style="stroke:none;fill-rule:nonzero;fill:#000;fill-opacity:1" d="m28.469 2.82-3.574-1.343L26.07 2.82l-1.175 1.348Zm0 0"/><g clip-path="url(#a)"><path style="fill:none;stroke-width:.3985;stroke-linecap:butt;stroke-linejoin:miter;stroke:#000;stroke-opacity:1;stroke-miterlimit:10" d="M4.216.002.642 1.346 1.818.002.642-1.346Zm0 0" transform="matrix(1 0 0 -1 24.253 2.822)"/></g><path style="fill:none;stroke-width:.3985;stroke-linecap:butt;stroke-linejoin:miter;stroke:#000;stroke-opacity:1;stroke-miterlimit:10" d="M0 14.173h23.734" transform="matrix(1 0 0 -1 .688 31.169)"/><path style="stroke:none;fill-rule:nonzero;fill:#000;fill-opacity:1" d="m28.215 16.996-5.492-1.379 1.797 1.38-1.797 1.374Zm0 0"/><g clip-path="url(#b)"><path style="fill:none;stroke-width:.3985;stroke-linecap:butt;stroke-linejoin:miter;stroke:#000;stroke-opacity:1;stroke-miterlimit:10" d="M6.353 0 .861 1.378 2.658 0 .86-1.375Zm0 0" transform="matrix(1 0 0 -1 21.862 16.996)"/></g><path style="fill:none;stroke-width:.3985;stroke-linecap:butt;stroke-linejoin:miter;stroke:#000;stroke-opacity:1;stroke-miterlimit:10" d="M0 .001h22.19" transform="matrix(1 0 0 -1 .688 31.169)"/><path style="stroke:none;fill-rule:nonzero;fill:#000;fill-opacity:1" d="m27.953 31.168-7.387-1.387 2.41 1.387-2.41 1.39Zm0 0"/><g clip-path="url(#c)"><path style="fill:none;stroke-width:.3985;stroke-linecap:butt;stroke-linejoin:miter;stroke:#000;stroke-opacity:1;stroke-miterlimit:10" d="M8.483.001 1.096 1.388 3.506 0l-2.41-1.39Zm0 0" transform="matrix(1 0 0 -1 19.47 31.169)"/></g></svg>