<svg xmlns="http://www.w3.org/2000/svg" width="40.467" height="7.515" viewBox="0 0 30.35 5.636" version="1.2"><defs><clipPath id="a"><path d="M0 0h11v5.453H0Zm0 0"/></clipPath><clipPath id="b"><path d="M14 0h16v5.453H14Zm0 0"/></clipPath><clipPath id="c"><path d="M19 0h11.023v5.453H19Zm0 0"/></clipPath></defs><path style="fill:none;stroke-width:.3985;stroke-linecap:butt;stroke-linejoin:miter;stroke:#000;stroke-opacity:1;stroke-miterlimit:10" d="M3.062 0h22.219" transform="matrix(1 0 0 -1 .676 2.632)"/><path style="stroke:none;fill-rule:nonzero;fill:#000;fill-opacity:1" d="m1.242 2.633 3.574 1.344-1.175-1.344 1.175-1.348Zm0 0"/><g clip-path="url(#a)"><path style="fill:none;stroke-width:.3985;stroke-linecap:butt;stroke-linejoin:miter;stroke:#000;stroke-opacity:1;stroke-miterlimit:10" d="M4.216 0 .642 1.346 1.817 0 .642-1.347Zm0 0" transform="matrix(-1 0 0 1 5.458 2.632)"/></g><path style="stroke:none;fill-rule:nonzero;fill:#000;fill-opacity:1" d="m23.672 2.633-3.57-1.348 1.175 1.348-1.175 1.344Zm0 0"/><g clip-path="url(#b)"><path style="fill:none;stroke-width:.3985;stroke-linecap:butt;stroke-linejoin:miter;stroke:#000;stroke-opacity:1;stroke-miterlimit:10" d="M4.213 0 .643 1.346 1.819-.001.643-1.345Zm0 0" transform="matrix(1 0 0 -1 19.459 2.632)"/></g><path style="stroke:none;fill-rule:nonzero;fill:#000;fill-opacity:1" d="m28.457 2.633-3.574-1.348 1.176 1.348-1.176 1.344Zm0 0"/><g clip-path="url(#c)"><path style="fill:none;stroke-width:.3985;stroke-linecap:butt;stroke-linejoin:miter;stroke:#000;stroke-opacity:1;stroke-miterlimit:10" d="M4.216 0 .642 1.346 1.818-.001.642-1.345Zm0 0" transform="matrix(1 0 0 -1 24.24 2.632)"/></g></svg>