<svg xmlns="http://www.w3.org/2000/svg" xmlns:xlink="http://www.w3.org/1999/xlink" width="144.953" height="98.935" viewBox="0 0 108.715 74.201" version="1.2"><defs><symbol overflow="visible" id="a"><path style="stroke:none" d="M4.922 0v-.469h-1.39v-5.734c0-.234 0-.328-.266-.328-.11 0-.125 0-.22.078-.765.562-1.796.562-2 .562H.845v.47h.203c.156 0 .703-.016 1.297-.204v5.156H.954V0c.437-.031 1.5-.031 1.984-.031s1.546 0 1.984.031Zm0 0"/></symbol><symbol overflow="visible" id="b"><path style="stroke:none" d="M2.5-.313c0-.671-.344-1.25-.922-1.25-.469 0-.766.36-.766.782 0 .406.266.781.766.781a.842.842 0 0 0 .563-.203C2.047.89 1.406 1.422 1.203 1.594c-.062.047-.094.078-.094.14 0 .094.11.204.188.204.156 0 1.203-.86 1.203-2.25Zm0 0"/></symbol><symbol overflow="visible" id="c"><path style="stroke:none" d="M5.156-2.219h-.468c-.032.203-.125.844-.266.906-.11.063-.86.063-1.016.063H1.937c.47-.39 1-.813 1.438-1.14 1.14-.844 1.781-1.313 1.781-2.25 0-1.157-1.047-1.891-2.437-1.891-1.219 0-2.156.625-2.156 1.515 0 .594.484.735.718.735C1.61-4.281 2-4.5 2-5c0-.516-.422-.672-.563-.719.282-.234.672-.343 1.032-.343.844 0 1.312.671 1.312 1.421 0 .688-.375 1.375-1.078 2.079l-2 2.046c-.14.11-.14.141-.14.344V0h4.28Zm0 0"/></symbol><symbol overflow="visible" id="d"><path style="stroke:none" d="M5.25-1.797c0-.547-.297-1.406-1.734-1.719.687-.203 1.406-.765 1.406-1.625 0-.765-.75-1.39-2.156-1.39-1.188 0-1.97.64-1.97 1.437 0 .422.313.703.688.703a.668.668 0 0 0 .704-.687c0-.578-.547-.688-.579-.703.344-.282.782-.36 1.094-.36.828 0 .86.641.86.97 0 .124-.016 1.437-1.047 1.5-.407.015-.438.015-.485.03-.094.016-.125.11-.125.172 0 .172.11.172.282.172h.437c1.094 0 1.094.985 1.094 1.5 0 .469 0 1.484-1.031 1.484-.266 0-.782-.046-1.266-.343C1.75-.75 2-1 2-1.406c0-.453-.313-.75-.75-.75-.422 0-.766.265-.766.765 0 .907.97 1.5 2.25 1.5 1.782 0 2.516-1 2.516-1.906Zm0 0"/></symbol><symbol overflow="visible" id="e"><path style="stroke:none" d="M5.406 0v-.469h-.968v-1.094h.968v-.468h-.968V-6.22c0-.265-.016-.328-.297-.328-.22 0-.22.016-.344.172L.312-2.031v.469h2.876V-.47h-1.11V0c.375-.031 1.281-.031 1.703-.031.406 0 1.266 0 1.625.031Zm-2.11-2.031H.845L3.297-5.11Zm0 0"/></symbol></defs><path style="fill:none;stroke-width:.3985;stroke-linecap:butt;stroke-linejoin:miter;stroke:#000;stroke-opacity:1;stroke-miterlimit:10" d="M17.71 20.797h21.274v15.101H17.71Zm0 0" transform="matrix(1 0 0 -1 -16.651 93.394)"/><g style="fill:#000;fill-opacity:1"><use xlink:href="#a" x="4.378" y="67.344"/><use xlink:href="#b" x="10.106" y="67.344"/><use xlink:href="#a" x="13.284" y="67.344"/></g><path style="fill:none;stroke-width:.3985;stroke-linecap:butt;stroke-linejoin:miter;stroke:#000;stroke-opacity:1;stroke-miterlimit:10" d="M17.71 49.145h21.274v15.097H17.71Zm0 0" transform="matrix(1 0 0 -1 -16.651 93.394)"/><g style="fill:#000;fill-opacity:1"><use xlink:href="#a" x="4.378" y="38.998"/><use xlink:href="#b" x="10.106" y="38.998"/><use xlink:href="#c" x="13.284" y="38.998"/></g><path style="fill:none;stroke-width:.3985;stroke-linecap:butt;stroke-linejoin:miter;stroke:#000;stroke-opacity:1;stroke-miterlimit:10" d="M17.71 77.492h21.274V92.59H17.71Zm0 0" transform="matrix(1 0 0 -1 -16.651 93.394)"/><g style="fill:#000;fill-opacity:1"><use xlink:href="#a" x="4.378" y="10.652"/><use xlink:href="#b" x="10.106" y="10.652"/><use xlink:href="#d" x="13.284" y="10.652"/></g><path style="fill:none;stroke-width:.3985;stroke-linecap:butt;stroke-linejoin:miter;stroke:#000;stroke-opacity:1;stroke-miterlimit:10" d="M46.054 20.797H67.33v15.101H46.054Zm0 0" transform="matrix(1 0 0 -1 -16.651 93.394)"/><g style="fill:#000;fill-opacity:1"><use xlink:href="#c" x="32.724" y="67.344"/><use xlink:href="#b" x="38.452" y="67.344"/><use xlink:href="#a" x="41.63" y="67.344"/></g><path style="fill:none;stroke-width:.3985;stroke-linecap:butt;stroke-linejoin:miter;stroke:#000;stroke-opacity:1;stroke-miterlimit:10" d="M46.054 49.145H67.33v15.097H46.054Zm0 0" transform="matrix(1 0 0 -1 -16.651 93.394)"/><g style="fill:#000;fill-opacity:1"><use xlink:href="#c" x="32.724" y="38.998"/><use xlink:href="#b" x="38.452" y="38.998"/><use xlink:href="#c" x="41.63" y="38.998"/></g><path style="fill:none;stroke-width:.3985;stroke-linecap:butt;stroke-linejoin:miter;stroke:#000;stroke-opacity:1;stroke-miterlimit:10" d="M46.054 77.492H67.33V92.59H46.054Zm0 0" transform="matrix(1 0 0 -1 -16.651 93.394)"/><g style="fill:#000;fill-opacity:1"><use xlink:href="#c" x="32.724" y="10.652"/><use xlink:href="#b" x="38.452" y="10.652"/><use xlink:href="#d" x="41.63" y="10.652"/></g><path style="fill:none;stroke-width:.3985;stroke-linecap:butt;stroke-linejoin:miter;stroke:#000;stroke-opacity:1;stroke-miterlimit:10" d="M74.401 20.797H95.68v15.101H74.4Zm0 0" transform="matrix(1 0 0 -1 -16.651 93.394)"/><g style="fill:#000;fill-opacity:1"><use xlink:href="#d" x="61.071" y="67.344"/><use xlink:href="#b" x="66.799" y="67.344"/><use xlink:href="#a" x="69.977" y="67.344"/></g><path style="fill:none;stroke-width:.3985;stroke-linecap:butt;stroke-linejoin:miter;stroke:#000;stroke-opacity:1;stroke-miterlimit:10" d="M74.401 49.145H95.68v15.097H74.4Zm0 0" transform="matrix(1 0 0 -1 -16.651 93.394)"/><g style="fill:#000;fill-opacity:1"><use xlink:href="#d" x="61.071" y="38.998"/><use xlink:href="#b" x="66.799" y="38.998"/><use xlink:href="#c" x="69.977" y="38.998"/></g><path style="fill:none;stroke-width:.3985;stroke-linecap:butt;stroke-linejoin:miter;stroke:#000;stroke-opacity:1;stroke-miterlimit:10" d="M74.401 77.492H95.68V92.59H74.4Zm0 0" transform="matrix(1 0 0 -1 -16.651 93.394)"/><g style="fill:#000;fill-opacity:1"><use xlink:href="#d" x="61.071" y="10.652"/><use xlink:href="#b" x="66.799" y="10.652"/><use xlink:href="#d" x="69.977" y="10.652"/></g><path style="fill:none;stroke-width:.3985;stroke-linecap:butt;stroke-linejoin:miter;stroke:#000;stroke-opacity:1;stroke-miterlimit:10" d="M102.75 20.793h21.276v15.11H102.75Zm0 0" transform="matrix(1 0 0 -1 -16.651 93.394)"/><g style="fill:#000;fill-opacity:1"><use xlink:href="#e" x="89.416" y="67.35"/><use xlink:href="#b" x="95.145" y="67.35"/><use xlink:href="#a" x="98.323" y="67.35"/></g><path style="fill:none;stroke-width:.3985;stroke-linecap:butt;stroke-linejoin:miter;stroke:#000;stroke-opacity:1;stroke-miterlimit:10" d="M102.75 49.14h21.276v15.11H102.75Zm0 0" transform="matrix(1 0 0 -1 -16.651 93.394)"/><g style="fill:#000;fill-opacity:1"><use xlink:href="#e" x="89.416" y="39.004"/><use xlink:href="#b" x="95.145" y="39.004"/><use xlink:href="#c" x="98.323" y="39.004"/></g><path style="fill:none;stroke-width:.3985;stroke-linecap:butt;stroke-linejoin:miter;stroke:#000;stroke-opacity:1;stroke-miterlimit:10" d="M102.75 77.484h21.276v15.11H102.75Zm0 0" transform="matrix(1 0 0 -1 -16.651 93.394)"/><g style="fill:#000;fill-opacity:1"><use xlink:href="#e" x="89.416" y="10.656"/><use xlink:href="#b" x="95.145" y="10.656"/><use xlink:href="#d" x="98.323" y="10.656"/></g></svg>