<svg xmlns="http://www.w3.org/2000/svg" width="84.229" height="84.219" viewBox="0 0 63.172 63.164" version="1.2"><defs><clipPath id="a"><path d="M14 0h34v62.746H14Zm0 0"/></clipPath><clipPath id="b"><path d="M0 14h62.758v34H0Zm0 0"/></clipPath><clipPath id="c"><path d="M0 0h62.758v62.746H0Zm0 0"/></clipPath></defs><g clip-path="url(#a)"><path style="fill:none;stroke-width:.3985;stroke-linecap:butt;stroke-linejoin:miter;stroke:#000;stroke-opacity:1;stroke-miterlimit:10" d="M-10.91-10.91c0 15.652 4.882 33.227 10.91 39.254 6.027 6.023 10.91-1.777 10.91-17.434C10.91-4.742 6.027-22.316 0-28.344c-6.028-6.023-10.91 1.778-10.91 17.434ZM10.91 10.91l-21.82-21.82M0-28.344v56.688" transform="matrix(1 0 0 -1 31.176 31.172)"/></g><g clip-path="url(#b)"><path style="fill:none;stroke-width:.3985;stroke-linecap:butt;stroke-linejoin:miter;stroke:#000;stroke-opacity:1;stroke-miterlimit:10" d="M-10.91-10.91C4.742-10.91 22.316-6.027 28.344 0c6.023 6.027-1.778 10.91-17.434 10.91-15.652 0-33.227-4.883-39.254-10.91-6.023-6.027 1.777-10.91 17.434-10.91ZM10.91 10.91l-21.82-21.82M-28.344 0h56.688" transform="matrix(1 0 0 -1 31.176 31.172)"/></g><g clip-path="url(#c)"><path style="fill:none;stroke-width:.3985;stroke-linecap:butt;stroke-linejoin:miter;stroke:#000;stroke-opacity:1;stroke-miterlimit:10" d="M28.344 0c0 15.652-12.692 28.344-28.344 28.344-15.653 0-28.344-12.692-28.344-28.344 0-15.652 12.691-28.344 28.344-28.344 15.652 0 28.344 12.692 28.344 28.344Zm0 0" transform="matrix(1 0 0 -1 31.176 31.172)"/></g><path style="fill:none;stroke-width:.3985;stroke-linecap:butt;stroke-linejoin:miter;stroke:#000;stroke-opacity:1;stroke-miterlimit:10" d="M-28.344 0h56.688M0-28.344v56.688" transform="matrix(1 0 0 -1 31.176 31.172)"/></svg>