<svg xmlns="http://www.w3.org/2000/svg" xmlns:xlink="http://www.w3.org/1999/xlink" width="117.116" height="222.987" viewBox="0 0 87.837 167.24" version="1.2"><defs><symbol overflow="visible" id="a"><path style="stroke:none" d="M3.89-3.734c-.265.015-.468.234-.468.453 0 .14.094.297.312.297.22 0 .454-.172.454-.563 0-.453-.422-.86-1.188-.86-1.313 0-1.688 1.016-1.688 1.454 0 .781.735.922 1.032.984.515.11 1.031.219 1.031.766 0 .25-.219 1.094-1.422 1.094-.14 0-.906 0-1.14-.532.39.047.64-.25.64-.53 0-.22-.172-.345-.375-.345-.266 0-.562.204-.562.657 0 .562.578.968 1.421.968 1.625 0 2.016-1.203 2.016-1.656a.97.97 0 0 0-.312-.719c-.266-.28-.563-.343-1-.421-.36-.079-.75-.157-.75-.61 0-.281.234-.89 1.109-.89.25 0 .75.078.89.453Zm0 0"/></symbol><symbol overflow="visible" id="b"><path style="stroke:none" d="M4.281-5.578v-.297H.688v.297Zm0 0"/></symbol><symbol overflow="visible" id="d"><path style="stroke:none" d="M5.156-2.219h-.468c-.032.203-.125.844-.266.906-.11.063-.86.063-1.016.063H1.937c.47-.39 1-.813 1.438-1.14 1.14-.844 1.781-1.313 1.781-2.25 0-1.157-1.047-1.891-2.437-1.891-1.219 0-2.156.625-2.156 1.515 0 .594.484.735.718.735C1.61-4.281 2-4.5 2-5c0-.516-.422-.672-.563-.719.282-.234.672-.343 1.032-.343.844 0 1.312.671 1.312 1.421 0 .688-.375 1.375-1.078 2.079l-2 2.046c-.14.11-.14.141-.14.344V0h4.28Zm0 0"/></symbol><clipPath id="c"><path d="M24 137h40v29.86H24Zm0 0"/></clipPath></defs><path style="fill-rule:nonzero;fill:#ccf;fill-opacity:1;stroke-width:.79701;stroke-linecap:butt;stroke-linejoin:miter;stroke:#8080ff;stroke-opacity:1;stroke-miterlimit:10" d="M178.583 0a8.503 8.503 0 0 1-8.504 8.505A8.506 8.506 0 0 1 161.576 0c0-4.7 3.808-8.504 8.503-8.504a8.5 8.5 0 0 1 8.504 8.504Zm0 0" transform="matrix(1 0 0 -1 -126.243 9.54)"/><path style="stroke:none;fill-rule:nonzero;fill:#000;fill-opacity:1" d="M46.05 9.54c0-1.22-.991-2.212-2.214-2.212a2.211 2.211 0 0 0 0 4.422 2.212 2.212 0 0 0 2.215-2.21Zm0 0"/><path style="fill-rule:nonzero;fill:#ccf;fill-opacity:1;stroke-width:.79701;stroke-linecap:butt;stroke-linejoin:miter;stroke:#8080ff;stroke-opacity:1;stroke-miterlimit:10" d="M178.583-36.85a8.503 8.503 0 0 1-8.504 8.503 8.506 8.506 0 0 1-8.503-8.504 8.506 8.506 0 0 1 8.503-8.504c4.7 0 8.504 3.81 8.504 8.504Zm0 0" transform="matrix(1 0 0 -1 -126.243 9.54)"/><path style="fill-rule:nonzero;fill:#fcc;fill-opacity:1;stroke-width:.79701;stroke-linecap:butt;stroke-linejoin:miter;stroke:#ff4040;stroke-opacity:1;stroke-miterlimit:10" d="M164.411-73.702a8.506 8.506 0 0 1-8.503 8.504 8.506 8.506 0 0 1-8.504-8.504 8.506 8.506 0 0 1 8.504-8.504 8.506 8.506 0 0 1 8.503 8.504Zm0 0" transform="matrix(1 0 0 -1 -126.243 9.54)"/><use xlink:href="#a" x="12.569" y="85.386" style="fill:red;fill-opacity:1"/><path style="fill-rule:nonzero;fill:#fcc;fill-opacity:1;stroke-width:.79701;stroke-linecap:butt;stroke-linejoin:miter;stroke:#ff4040;stroke-opacity:1;stroke-miterlimit:10" d="M192.76-73.702a8.506 8.506 0 0 1-8.505 8.504 8.503 8.503 0 0 1-8.504-8.504 8.503 8.503 0 0 1 8.504-8.504 8.506 8.506 0 0 1 8.504 8.504Zm0 0" transform="matrix(1 0 0 -1 -126.243 9.54)"/><path style="stroke:none;fill-rule:nonzero;fill:#000;fill-opacity:1" d="M60.223 79.46a2.215 2.215 0 0 0-2.211-2.214 2.212 2.212 0 0 0 0 4.426c1.218 0 2.21-.992 2.21-2.211ZM56.906 85.273a2.212 2.212 0 0 0-4.426 0 2.214 2.214 0 0 0 4.426 0ZM63.54 85.273c0-1.222-.99-2.21-2.212-2.21a2.211 2.211 0 1 0 2.21 2.21Zm0 0"/><use xlink:href="#b" x="70.828" y="86.07" style="fill:red;fill-opacity:1"/><use xlink:href="#a" x="70.43" y="86.07" style="fill:red;fill-opacity:1"/><path style="fill-rule:nonzero;fill:#ccf;fill-opacity:1;stroke-width:.79701;stroke-linecap:butt;stroke-linejoin:miter;stroke:#8080ff;stroke-opacity:1;stroke-miterlimit:10" d="M178.583-110.554a8.5 8.5 0 0 1-8.504 8.504 8.503 8.503 0 0 1-8.503-8.504 8.506 8.506 0 0 1 8.503-8.504c4.7 0 8.504 3.809 8.504 8.504Zm0 0" transform="matrix(1 0 0 -1 -126.243 9.54)"/><path style="stroke:none;fill-rule:nonzero;fill:#ccf;fill-opacity:1" d="M52.34 156.945a8.5 8.5 0 0 0-8.504-8.504 8.503 8.503 0 0 0-8.504 8.504 8.506 8.506 0 0 0 8.504 8.504c4.7 0 8.504-3.808 8.504-8.504Zm0 0"/><g clip-path="url(#c)"><path style="fill:none;stroke-width:.79701;stroke-linecap:butt;stroke-linejoin:miter;stroke:#8080ff;stroke-opacity:1;stroke-miterlimit:10" d="M178.583-147.405a8.5 8.5 0 0 1-8.504 8.504 8.503 8.503 0 0 1-8.503-8.504 8.506 8.506 0 0 1 8.503-8.504c4.7 0 8.504 3.808 8.504 8.504Zm0 0" transform="matrix(1 0 0 -1 -126.243 9.54)"/></g><path style="stroke:none;fill-rule:nonzero;fill:#000;fill-opacity:1" d="M46.05 156.945a2.216 2.216 0 0 0-2.214-2.215 2.214 2.214 0 1 0 2.215 2.215Zm0 0"/><path style="fill-rule:nonzero;fill:#ccc;fill-opacity:1;stroke-width:.79701;stroke-linecap:butt;stroke-linejoin:miter;stroke:gray;stroke-opacity:1;stroke-miterlimit:10" d="M127.56-42.519h11.34v11.336h-11.34Zm0 0" transform="matrix(1 0 0 -1 -126.243 9.54)"/><path style="fill:none;stroke-width:.3985;stroke-linecap:butt;stroke-linejoin:miter;stroke:#000;stroke-opacity:1;stroke-miterlimit:10" d="M133.279-27.093C134.392-12.526 146.204-.722 161.177.001" transform="matrix(1 0 0 -1 -126.243 9.54)"/><path style="fill-rule:nonzero;fill:#000;fill-opacity:1;stroke-width:.3985;stroke-linecap:butt;stroke-linejoin:round;stroke:#000;stroke-opacity:1;stroke-miterlimit:10" d="M4.216 0 .642 1.345 1.816.002.646-1.347Zm0 0" transform="scale(-.99997 .99997) rotate(88.095 -21.6 13.787)"/><path style="fill:none;stroke-width:.3985;stroke-linecap:butt;stroke-linejoin:miter;stroke:#000;stroke-opacity:1;stroke-miterlimit:10" d="m136.962-42.917 12.344-20.059" transform="matrix(1 0 0 -1 -126.243 9.54)"/><path style="fill-rule:nonzero;fill:#000;fill-opacity:1;stroke-width:.3985;stroke-linecap:butt;stroke-linejoin:round;stroke:#000;stroke-opacity:1;stroke-miterlimit:10" d="M4.213 0 .64 1.345 1.82 0 .643-1.344Zm0 0" transform="matrix(.52411 .8516 .8516 -.52411 22.163 71.053)"/><path style="fill:none;stroke-width:.3985;stroke-linecap:butt;stroke-linejoin:miter;stroke:#000;stroke-opacity:1;stroke-miterlimit:10" d="m142.29-43.394 34.746-25.097" transform="matrix(1 0 0 -1 -126.243 9.54)"/><path style="fill-rule:nonzero;fill:#000;fill-opacity:1;stroke-width:.3985;stroke-linecap:butt;stroke-linejoin:round;stroke:#000;stroke-opacity:1;stroke-miterlimit:10" d="M4.214 0 .646 1.347 1.819 0 .642-1.346Zm0 0" transform="matrix(-.81064 -.58548 -.58548 .81064 17.44 53.94)"/><path style="fill:none;stroke-width:.3985;stroke-linecap:butt;stroke-linejoin:miter;stroke:#000;stroke-opacity:1;stroke-miterlimit:10" d="M139.298-36.85h18.188" transform="matrix(1 0 0 -1 -126.243 9.54)"/><path style="fill-rule:nonzero;fill:#000;fill-opacity:1;stroke-width:.3985;stroke-linecap:butt;stroke-linejoin:round;stroke:#000;stroke-opacity:1;stroke-miterlimit:10" d="M4.214 0 .644 1.344 1.818 0 .643-1.347Zm0 0" transform="matrix(1 0 0 -1 29.525 46.39)"/><path style="fill-rule:nonzero;fill:#ccc;fill-opacity:1;stroke-width:.79701;stroke-linecap:butt;stroke-linejoin:miter;stroke:gray;stroke-opacity:1;stroke-miterlimit:10" d="M127.56-116.222h11.34v11.34h-11.34Zm0 0" transform="matrix(1 0 0 -1 -126.243 9.54)"/><path style="fill:none;stroke-width:.3985;stroke-linecap:butt;stroke-linejoin:miter;stroke:#000;stroke-opacity:1;stroke-miterlimit:10" d="M133.279-120.308c1.113-14.57 12.925-26.375 27.898-27.097" transform="matrix(1 0 0 -1 -126.243 9.54)"/><path style="fill-rule:nonzero;fill:#000;fill-opacity:1;stroke-width:.3985;stroke-linecap:butt;stroke-linejoin:round;stroke:#000;stroke-opacity:1;stroke-miterlimit:10" d="M4.215 0 .645 1.348 1.818-.002.645-1.346Zm0 0" transform="scale(-.99997 .99997) rotate(-88.095 64.46 69.457)"/><path style="fill:none;stroke-width:.3985;stroke-linecap:butt;stroke-linejoin:miter;stroke:#000;stroke-opacity:1;stroke-miterlimit:10" d="m136.962-104.483 12.344 20.054" transform="matrix(1 0 0 -1 -126.243 9.54)"/><path style="fill-rule:nonzero;fill:#000;fill-opacity:1;stroke-width:.3985;stroke-linecap:butt;stroke-linejoin:round;stroke:#000;stroke-opacity:1;stroke-miterlimit:10" d="M4.216.002.646 1.345 1.817 0 .641-1.345Zm0 0" transform="scale(.99996 -.99996) rotate(58.39 96.48 -27.884)"/><path style="fill:none;stroke-width:.3985;stroke-linecap:butt;stroke-linejoin:miter;stroke:#000;stroke-opacity:1;stroke-miterlimit:10" d="m142.29-104.01 34.746 25.097" transform="matrix(1 0 0 -1 -126.243 9.54)"/><path style="fill-rule:nonzero;fill:#000;fill-opacity:1;stroke-width:.3985;stroke-linecap:butt;stroke-linejoin:round;stroke:#000;stroke-opacity:1;stroke-miterlimit:10" d="M4.215 0 .643 1.346 1.82 0 .644-1.348Zm0 0" transform="matrix(-.81064 .58548 .58548 .81064 17.44 112.544)"/><path style="fill:none;stroke-width:.3985;stroke-linecap:butt;stroke-linejoin:miter;stroke:#000;stroke-opacity:1;stroke-miterlimit:10" d="M139.298-110.554h18.188" transform="matrix(1 0 0 -1 -126.243 9.54)"/><path style="fill-rule:nonzero;fill:#000;fill-opacity:1;stroke-width:.3985;stroke-linecap:butt;stroke-linejoin:round;stroke:#000;stroke-opacity:1;stroke-miterlimit:10" d="M4.214 0 .644 1.346 1.818-.001.643-1.345Zm0 0" transform="matrix(1 0 0 -1 29.525 120.093)"/><path style="fill-rule:nonzero;fill:#ccc;fill-opacity:1;stroke-width:.79701;stroke-linecap:butt;stroke-linejoin:miter;stroke:gray;stroke-opacity:1;stroke-miterlimit:10" d="M201.263-42.519h11.34v11.336h-11.34Zm0 0" transform="matrix(1 0 0 -1 -126.243 9.54)"/><path style="fill:none;stroke-width:.3985;stroke-linecap:butt;stroke-linejoin:miter;stroke:#000;stroke-opacity:1;stroke-miterlimit:10" d="M197.173-36.85h-18.191" transform="matrix(1 0 0 -1 -126.243 9.54)"/><path style="fill-rule:nonzero;fill:#000;fill-opacity:1;stroke-width:.3985;stroke-linecap:butt;stroke-linejoin:round;stroke:#000;stroke-opacity:1;stroke-miterlimit:10" d="M4.215 0 .645 1.344 1.817 0 .645-1.347Zm0 0" transform="matrix(1 0 0 -1 69.21 46.39)"/><path style="fill:none;stroke-width:.3985;stroke-linecap:butt;stroke-linejoin:miter;stroke:#000;stroke-opacity:1;stroke-miterlimit:10" d="M197.872-43.394 163.126-68.49" transform="matrix(1 0 0 -1 -126.243 9.54)"/><path style="fill-rule:nonzero;fill:#000;fill-opacity:1;stroke-width:.3985;stroke-linecap:butt;stroke-linejoin:round;stroke:#000;stroke-opacity:1;stroke-miterlimit:10" d="M4.215-.001.643 1.345 1.817.001.643-1.344Zm0 0" transform="scale(.99996 -.99996) rotate(35.838 118.526 81.634)"/><path style="fill:none;stroke-width:.3985;stroke-linecap:butt;stroke-linejoin:miter;stroke:#000;stroke-opacity:1;stroke-miterlimit:10" d="m203.2-42.917-12.347-20.059" transform="matrix(1 0 0 -1 -126.243 9.54)"/><path style="fill-rule:nonzero;fill:#000;fill-opacity:1;stroke-width:.3985;stroke-linecap:butt;stroke-linejoin:round;stroke:#000;stroke-opacity:1;stroke-miterlimit:10" d="M4.212 0 .642 1.346 1.818 0 .643-1.347Zm0 0" transform="matrix(-.52411 .8516 .8516 .52411 65.512 71.053)"/><path style="fill:none;stroke-width:.3985;stroke-linecap:butt;stroke-linejoin:miter;stroke:#000;stroke-opacity:1;stroke-miterlimit:10" d="M206.931-30.784c.723 14.972-9.887 27.87-24.281 30.379" transform="matrix(1 0 0 -1 -126.243 9.54)"/><path style="fill-rule:nonzero;fill:#000;fill-opacity:1;stroke-width:.3985;stroke-linecap:butt;stroke-linejoin:round;stroke:#000;stroke-opacity:1;stroke-miterlimit:10" d="M4.213-.002.642 1.345 1.818 0 .642-1.346Zm0 0" transform="scale(-.99995 .99995) rotate(-7.431 49.29 452.524)"/><use xlink:href="#d" x="76.606" y="15.624" style="fill:#000;fill-opacity:1"/><path style="fill-rule:nonzero;fill:#ccc;fill-opacity:1;stroke-width:.79701;stroke-linecap:butt;stroke-linejoin:miter;stroke:gray;stroke-opacity:1;stroke-miterlimit:10" d="M201.263-116.222h11.34v11.34h-11.34Zm0 0" transform="matrix(1 0 0 -1 -126.243 9.54)"/><path style="fill:none;stroke-width:.3985;stroke-linecap:butt;stroke-linejoin:miter;stroke:#000;stroke-opacity:1;stroke-miterlimit:10" d="M197.173-110.554h-18.191" transform="matrix(1 0 0 -1 -126.243 9.54)"/><path style="fill-rule:nonzero;fill:#000;fill-opacity:1;stroke-width:.3985;stroke-linecap:butt;stroke-linejoin:round;stroke:#000;stroke-opacity:1;stroke-miterlimit:10" d="M4.215 0 .645 1.346 1.817-.001.645-1.345Zm0 0" transform="matrix(1 0 0 -1 69.21 120.093)"/><path style="fill:none;stroke-width:.3985;stroke-linecap:butt;stroke-linejoin:miter;stroke:#000;stroke-opacity:1;stroke-miterlimit:10" d="m197.872-104.01-34.746 25.097" transform="matrix(1 0 0 -1 -126.243 9.54)"/><path style="fill-rule:nonzero;fill:#000;fill-opacity:1;stroke-width:.3985;stroke-linecap:butt;stroke-linejoin:round;stroke:#000;stroke-opacity:1;stroke-miterlimit:10" d="M4.215 0 .641 1.348 1.817-.001.644-1.345Zm0 0" transform="matrix(.81064 .58548 .58548 -.81064 70.235 112.544)"/><path style="fill:none;stroke-width:.3985;stroke-linecap:butt;stroke-linejoin:miter;stroke:#000;stroke-opacity:1;stroke-miterlimit:10" d="M203.2-104.483 190.854-84.43" transform="matrix(1 0 0 -1 -126.243 9.54)"/><path style="fill-rule:nonzero;fill:#000;fill-opacity:1;stroke-width:.3985;stroke-linecap:butt;stroke-linejoin:round;stroke:#000;stroke-opacity:1;stroke-miterlimit:10" d="M4.215-.002.642 1.348 1.818 0 .645-1.346Zm0 0" transform="matrix(-.52411 -.8516 -.8516 .52411 65.512 95.43)"/><path style="fill:none;stroke-width:.3985;stroke-linecap:butt;stroke-linejoin:miter;stroke:#000;stroke-opacity:1;stroke-miterlimit:10" d="M206.931-116.62c.723-14.973-9.887-27.871-24.281-30.38" transform="matrix(1 0 0 -1 -126.243 9.54)"/><path style="fill-rule:nonzero;fill:#000;fill-opacity:1;stroke-width:.3985;stroke-linecap:butt;stroke-linejoin:round;stroke:#000;stroke-opacity:1;stroke-miterlimit:10" d="M4.213-.002.643 1.347 1.817 0 .642-1.344Zm0 0" transform="matrix(-.99155 .12933 .12933 .99155 58.111 156.308)"/><use xlink:href="#d" x="76.606" y="157.384" style="fill:#000;fill-opacity:1"/></svg>