<svg xmlns="http://www.w3.org/2000/svg" xmlns:xlink="http://www.w3.org/1999/xlink" width="139.683" height="141.123" viewBox="0 0 104.762 105.842" version="1.2"><defs><symbol overflow="visible" id="a"><path style="stroke:none" d="M5.516-.234c0-.235-.125-.235-.266-.235-.61-.015-.61-.14-.61-.375v-2.14c0-.891-.702-1.532-2.187-1.532-.562 0-1.781.047-1.781.922 0 .438.344.625.61.625.312 0 .624-.219.624-.625 0-.297-.187-.469-.218-.5a5.28 5.28 0 0 1 .718-.062c.75 0 1.11.422 1.11 1.172v.343c-.72.032-3.25.125-3.25 1.563C.266-.125 1.5.062 2.187.062c.797 0 1.266-.406 1.485-.828 0 .313 0 .766 1.047.766h.468c.204 0 .329 0 .329-.234Zm-2-1.157c0 .97-.922 1.094-1.172 1.094-.516 0-.906-.344-.906-.797 0-1.062 1.578-1.203 2.078-1.234Zm0 0"/></symbol><symbol overflow="visible" id="b"><path style="stroke:none" d="M5.984-2.219c0-1.328-.937-2.265-2.39-2.265-.719 0-1.219.28-1.453.484v-2.922l-1.766.078v.469c.61 0 .688 0 .688.39V0h.468c.157-.188.328-.375.485-.563.078.079.562.625 1.453.625 1.484 0 2.515-.906 2.515-2.28Zm-1.28 0c0 .469 0 1.016-.25 1.406-.298.407-.75.516-1.079.516-.688 0-1.078-.547-1.188-.687v-2.5c.282-.36.75-.641 1.297-.641 1.22 0 1.22 1.203 1.22 1.906Zm0 0"/></symbol><symbol overflow="visible" id="c"><path style="stroke:none" d="M4.766-1.172c0-.14-.141-.14-.235-.14-.187 0-.187.03-.25.156-.25.625-.734.812-1.234.812-1.39 0-1.39-1.453-1.39-1.922 0-.562 0-1.843 1.28-1.843.36 0 .516.015.657.046a.618.618 0 0 0-.203.47c0 .437.343.624.609.624.313 0 .64-.219.64-.625 0-.86-1.156-.922-1.734-.922C1.11-4.516.375-3.375.375-2.219.375-.89 1.313.062 2.844.062c1.625 0 1.922-1.156 1.922-1.234Zm0 0"/></symbol><symbol overflow="visible" id="d"><path style="stroke:none" d="M5.984 0v-.469c-.609 0-.687 0-.687-.39v-6.063l-1.766.078v.469c.625 0 .703 0 .703.39v1.954a2.178 2.178 0 0 0-1.359-.453c-1.453 0-2.5.875-2.5 2.28 0 1.313.922 2.267 2.39 2.267.61 0 1.094-.235 1.407-.485v.484ZM4.172-1.031c-.14.187-.547.734-1.297.734-1.219 0-1.219-1.203-1.219-1.906 0-.485 0-1.016.25-1.406.297-.422.766-.516 1.078-.516.563 0 .97.313 1.188.61Zm0 0"/></symbol><symbol overflow="visible" id="e"><path style="stroke:none" d="M4.922-1.172c0-.172-.188-.172-.234-.172-.172 0-.188.047-.25.203-.204.485-.782.797-1.422.797-1.407 0-1.422-1.328-1.422-1.828h3.015c.22 0 .313 0 .313-.265 0-.313-.063-1.047-.563-1.547-.359-.36-.89-.532-1.578-.532C1.187-4.516.312-3.484.312-2.25c0 1.344 1 2.313 2.61 2.313 1.578 0 2-1.063 2-1.235ZM3.984-2.5h-2.39c.015-.39.031-.813.234-1.14.266-.391.672-.516.953-.516 1.172 0 1.188 1.312 1.203 1.656Zm0 0"/></symbol><symbol overflow="visible" id="f"><path style="stroke:none" d="M4.36-6.11c0-.421-.36-.874-1.141-.874-.969 0-2.047.421-2.047 1.546v1.016h-.75v.469h.75V-.47H.484V0l1.25-.031c.375 0 1.016 0 1.375.031v-.469H2.25v-3.484h1.14v-.469H2.188v-1.016c0-1.093.75-1.187 1-1.187.047 0 .11 0 .172.031a.585.585 0 0 0-.234.485c0 .421.36.609.61.609.296 0 .624-.203.624-.61Zm0 0"/></symbol><symbol overflow="visible" id="g"><path style="stroke:none" d="M5.563-3.953c0-.235-.172-.578-.625-.578-.157 0-.625.031-1.063.375-.172-.125-.594-.328-1.328-.328-1.438 0-1.985.78-1.985 1.468 0 .407.188.829.516 1.047-.281.36-.344.688-.344.89 0 .157.047.641.438.954-.125.031-.86.25-.86.875C.313 1.25.875 2 2.86 2 4.625 2 5.406 1.422 5.406.719c0-.297-.078-.922-.75-1.266-.562-.281-1.156-.281-2.11-.281-.265 0-.718 0-.765-.016a.625.625 0 0 1-.562-.625c0-.093.047-.25.11-.328.452.234.968.266 1.218.266 1.437 0 1.984-.782 1.984-1.485 0-.468-.25-.796-.406-.953.297-.156.516-.172.625-.187a.433.433 0 0 0-.047.203c0 .25.172.422.438.422a.41.41 0 0 0 .421-.422Zm-2.141.937c0 .454 0 1.125-.875 1.125s-.875-.671-.875-1.125c0-.437 0-1.109.875-1.109s.875.672.875 1.11ZM4.547.75c0 .36-.39.89-1.688.89-1.187 0-1.687-.452-1.687-.906 0-.609.625-.609.766-.609h1.171c.313 0 1.438 0 1.438.625Zm0 0"/></symbol><symbol overflow="visible" id="h"><path style="stroke:none" d="M6.125 0v-.469h-.688v-2.578c0-1.047-.53-1.437-1.53-1.437a1.9 1.9 0 0 0-1.688.953v-3.39l-1.766.077v.469c.61 0 .688 0 .688.39v5.516H.453V0l1.25-.031L2.953 0v-.469h-.687v-2.078c0-1.094.859-1.578 1.5-1.578.328 0 .546.203.546.969V-.47h-.687V0l1.25-.031Zm0 0"/></symbol></defs><path style="stroke:none;fill-rule:nonzero;fill:red;fill-opacity:1" d="M17.438 10.34a8.27 8.27 0 0 0-16.54 0 8.27 8.27 0 0 0 16.54 0Zm0 0"/><use xlink:href="#a" x="6.384" y="12.568" style="fill:#fff;fill-opacity:1"/><path style="stroke:none;fill-rule:nonzero;fill:#f33;fill-opacity:1" d="M46.934 10.34A9.416 9.416 0 0 0 37.516.922c-5.203 0-9.422 4.215-9.422 9.418a9.422 9.422 0 0 0 9.422 9.422c5.203 0 9.418-4.219 9.418-9.422Zm0 0"/><use xlink:href="#b" x="34.332" y="13.768" style="fill:#fff;fill-opacity:1"/><path style="stroke:none;fill-rule:nonzero;fill:#f66;fill-opacity:1" d="M73.98 10.34a8.118 8.118 0 1 0-16.233.001 8.118 8.118 0 0 0 16.233-.001Zm0 0"/><use xlink:href="#c" x="63.316" y="12.568" style="fill:#fff;fill-opacity:1"/><path style="fill:none;stroke-width:.3985;stroke-linecap:butt;stroke-linejoin:miter;stroke:#000;stroke-opacity:1;stroke-miterlimit:10" d="M37.965.001H47.98" transform="matrix(1 0 0 -1 9.168 10.341)"/><path style="fill:none;stroke-width:.3985;stroke-linecap:round;stroke-linejoin:round;stroke:#000;stroke-opacity:1;stroke-miterlimit:10" d="M-2.073 2.392C-1.693.958-.85.279.002.002-.85-.28-1.694-.957-2.073-2.39" transform="matrix(1 0 0 -1 57.346 10.341)"/><path style="stroke:none;fill-rule:nonzero;fill:#f99;fill-opacity:1" d="M103.629 10.34c0-5.203-4.219-9.418-9.422-9.418a9.416 9.416 0 0 0-9.418 9.418c0 5.203 4.215 9.422 9.418 9.422a9.422 9.422 0 0 0 9.422-9.422Zm0 0"/><use xlink:href="#d" x="91.025" y="13.768" style="fill:#fff;fill-opacity:1"/><path style="fill:none;stroke-width:.3985;stroke-linecap:butt;stroke-linejoin:miter;stroke:#000;stroke-opacity:1;stroke-miterlimit:10" d="M65.012.001h10.011" transform="matrix(1 0 0 -1 9.168 10.341)"/><path style="fill:none;stroke-width:.3985;stroke-linecap:round;stroke-linejoin:round;stroke:#000;stroke-opacity:1;stroke-miterlimit:10" d="M-2.073 2.392C-1.694.958-.851.279 0 .002-.851-.28-1.694-.957-2.073-2.39" transform="matrix(1 0 0 -1 84.39 10.341)"/><path style="stroke:none;fill-rule:nonzero;fill:#f33;fill-opacity:1" d="M45.7 38.688a8.184 8.184 0 1 0-16.368 0 8.184 8.184 0 0 0 16.367 0Zm0 0"/><use xlink:href="#e" x="34.89" y="40.914" style="fill:#fff;fill-opacity:1"/><path style="stroke:none;fill-rule:nonzero;fill:#f66;fill-opacity:1" d="M74.32 38.688a8.46 8.46 0 1 0-16.918 0 8.46 8.46 0 1 0 16.918 0Zm0 0"/><use xlink:href="#f" x="64.113" y="42.174" style="fill:#fff;fill-opacity:1"/><path style="stroke:none;fill-rule:nonzero;fill:#f66;fill-opacity:1" d="M74.883 67.035a9.02 9.02 0 1 0-18.042.002 9.02 9.02 0 0 0 18.042-.002Zm0 0"/><use xlink:href="#g" x="62.997" y="68.299" style="fill:#fff;fill-opacity:1"/><path style="fill:none;stroke-width:.3985;stroke-linecap:butt;stroke-linejoin:miter;stroke:#000;stroke-opacity:1;stroke-miterlimit:10" d="M36.73-28.346h10.907" transform="matrix(1 0 0 -1 9.168 10.341)"/><path style="fill:none;stroke-width:.3985;stroke-linecap:round;stroke-linejoin:round;stroke:#000;stroke-opacity:1;stroke-miterlimit:10" d="M-2.074 2.39C-1.694.958-.85.279.001 0c-.852-.277-1.696-.957-2.075-2.39" transform="matrix(1 0 0 -1 57.003 38.688)"/><path style="fill:none;stroke-width:.3985;stroke-linecap:butt;stroke-linejoin:miter;stroke:#000;stroke-opacity:1;stroke-miterlimit:10" d="m34.273-34.272 15.621-15.621" transform="matrix(1 0 0 -1 9.168 10.341)"/><path style="fill:none;stroke-width:.3985;stroke-linecap:round;stroke-linejoin:round;stroke:#000;stroke-opacity:1;stroke-miterlimit:10" d="M-2.074 2.39C-1.696.957-.85.277 0 0-.85-.28-1.693-.957-2.07-2.39" transform="scale(1 -1) rotate(-45 -43.279 -101.652)"/><path style="stroke:none;fill-rule:nonzero;fill:#f33;fill-opacity:1" d="M46.895 95.383a9.38 9.38 0 1 0-18.759 0 9.38 9.38 0 0 0 18.759 0Zm0 0"/><use xlink:href="#h" x="34.332" y="98.837" style="fill:#fff;fill-opacity:1"/><path style="fill:none;stroke-width:.3985;stroke-linecap:butt;stroke-linejoin:miter;stroke:#000;stroke-opacity:1;stroke-miterlimit:10" d="M8.469.001h9.86" transform="matrix(1 0 0 -1 9.168 10.341)"/><path style="fill:none;stroke-width:.3985;stroke-linecap:round;stroke-linejoin:round;stroke:#000;stroke-opacity:1;stroke-miterlimit:10" d="M-2.071 2.392C-1.692.958-.85.279-.001.002-.849-.28-1.692-.957-2.07-2.39" transform="matrix(1 0 0 -1 27.696 10.341)"/><path style="fill:none;stroke-width:.3985;stroke-linecap:butt;stroke-linejoin:miter;stroke:#000;stroke-opacity:1;stroke-miterlimit:10" d="M5.988-5.987 22.137-22.14" transform="matrix(1 0 0 -1 9.168 10.341)"/><path style="fill:none;stroke-width:.3985;stroke-linecap:round;stroke-linejoin:round;stroke:#000;stroke-opacity:1;stroke-miterlimit:10" d="M-2.071 2.39C-1.693.957-.851.28 0-.002c-.85-.276-1.693-.953-2.074-2.39" transform="scale(1 -1) rotate(-45 -23.652 -54.27)"/><path style="fill:none;stroke-width:.3985;stroke-linecap:butt;stroke-linejoin:miter;stroke:#000;stroke-opacity:1;stroke-miterlimit:10" d="M2.68-8.034 25.19-75.577" transform="matrix(1 0 0 -1 9.168 10.341)"/><path style="fill:none;stroke-width:.3985;stroke-linecap:round;stroke-linejoin:round;stroke:#000;stroke-opacity:1;stroke-miterlimit:10" d="M-2.074 2.39C-1.696.956-.851.279-.001 0c-.85-.278-1.694-.956-2.07-2.391" transform="matrix(.31621 .94864 .94864 -.31621 34.423 86.106)"/></svg>