<svg xmlns="http://www.w3.org/2000/svg" width="29.269" height="8.811" viewBox="0 0 21.952 6.608" version="1.2"><defs><clipPath id="a"><path d="M9 0h12.93v6.41H9Zm0 0"/></clipPath><clipPath id="b"><path d="M12 0h9.93v6.41H12Zm0 0"/></clipPath></defs><path style="fill:none;stroke-width:.3985;stroke-linecap:butt;stroke-linejoin:miter;stroke:#000;stroke-opacity:1;stroke-miterlimit:10" d="M0 2.21h19.726" transform="matrix(1 0 0 -1 .985 5.316)"/><g clip-path="url(#a)"><path style="fill:none;stroke-width:.3985;stroke-linecap:butt;stroke-linejoin:miter;stroke:#000;stroke-opacity:1;stroke-miterlimit:10" d="M0 2.093A2.09 2.09 0 0 0 2.09-.001 2.09 2.09 0 0 0 0-2.091" transform="matrix(1 0 0 -1 15.331 3.104)"/></g><g clip-path="url(#b)"><path style="fill:none;stroke-width:.3985;stroke-linecap:butt;stroke-linejoin:miter;stroke:#000;stroke-opacity:1;stroke-miterlimit:10" d="M-.002 2.093a2.093 2.093 0 1 0 0-4.184" transform="matrix(1 0 0 -1 18.62 3.104)"/></g></svg>