<svg xmlns="http://www.w3.org/2000/svg" xmlns:xlink="http://www.w3.org/1999/xlink" width="116.341" height="87.315" viewBox="0 0 87.256 65.486" version="1.2"><defs><symbol overflow="visible" id="a"><path style="stroke:none" d="M5.984-2.219c0-1.328-.937-2.265-2.39-2.265-.719 0-1.219.28-1.453.484v-2.922l-1.766.078v.469c.61 0 .688 0 .688.39V0h.468c.157-.188.328-.375.485-.563.078.079.562.625 1.453.625 1.484 0 2.515-.906 2.515-2.28Zm-1.28 0c0 .469 0 1.016-.25 1.406-.298.407-.75.516-1.079.516-.688 0-1.078-.547-1.188-.687v-2.5c.282-.36.75-.641 1.297-.641 1.22 0 1.22 1.203 1.22 1.906Zm0 0"/></symbol><symbol overflow="visible" id="b"><path style="stroke:none" d="M5.406-2.172c0-1.344-.922-2.344-2.547-2.344C1.22-4.516.313-3.5.313-2.172c0 1.235.89 2.235 2.546 2.235 1.672 0 2.547-1.016 2.547-2.235Zm-1.281-.11c0 .86 0 1.938-1.266 1.938-1.265 0-1.265-1.078-1.265-1.937 0-.453 0-.953.172-1.297.187-.375.609-.578 1.093-.578.422 0 .844.156 1.063.5.203.344.203.89.203 1.375Zm0 0"/></symbol><symbol overflow="visible" id="c"><path style="stroke:none" d="M5.828 0v-.469h-.703L3.453-2.453 4.61-3.75c.141-.14.204-.203 1.016-.203v-.469l-.906.031-1.032-.03v.468c.141 0 .266.015.376.078-.032.063-.032.094-.079.125l-.828.938-.984-1.141h.406v-.469L1.36-4.39.266-4.42v.468h.718l1.547 1.828L1.22-.656c-.157.187-.516.187-1 .187V0l.922-.031L2.156 0v-.469c-.172 0-.36-.047-.36-.11 0 0 0-.015.063-.093l.97-1.094L3.921-.469h-.39V0l1.202-.031Zm0 0"/></symbol><clipPath id="d"><path d="M0 0h86v65.23H0Zm0 0"/></clipPath></defs><path style="fill:none;stroke-width:.19925;stroke-linecap:butt;stroke-linejoin:miter;stroke:gray;stroke-opacity:1;stroke-miterlimit:10" d="M.001 0h85.04M0 28.349h85.04M0 56.684h85.04M0 .001v56.691M28.345.001v56.691M56.693.001v56.691M85.029.001v56.691" transform="matrix(1 0 0 -1 .737 64.114)"/><path style="stroke:none;fill-rule:nonzero;fill:#00f;fill-opacity:1" d="M30.578 35.766c0-.825-.668-1.493-1.496-1.493-.824 0-1.492.668-1.492 1.493a1.494 1.494 0 1 0 2.988 0ZM58.926 7.422a1.494 1.494 0 1 0-2.988-.005 1.494 1.494 0 0 0 2.988.005ZM30.578 7.422a1.494 1.494 0 1 0-2.987-.005 1.494 1.494 0 0 0 2.987.005ZM37.664 57.027a1.495 1.495 0 1 0-2.99-.001 1.495 1.495 0 0 0 2.99.001ZM51.84 21.594c0-.824-.672-1.496-1.496-1.496s-1.496.672-1.496 1.496.672 1.496 1.496 1.496 1.496-.672 1.496-1.496Zm0 0"/><path style="fill:none;stroke-width:.79701;stroke-linecap:butt;stroke-linejoin:miter;stroke:red;stroke-opacity:1;stroke-miterlimit:10" d="M26.454 5.192h32.133v53.395H26.454Zm0 0" transform="matrix(1 0 0 -1 .737 64.114)"/><use xlink:href="#a" x="34.185" y="32.194" style="fill:#000;fill-opacity:1"/><use xlink:href="#b" x="40.87" y="32.194" style="fill:#000;fill-opacity:1"/><use xlink:href="#c" x="46.28" y="32.194" style="fill:#000;fill-opacity:1"/><g clip-path="url(#d)"><path style="fill:none;stroke-width:.79701;stroke-linecap:butt;stroke-linejoin:miter;stroke:#000;stroke-opacity:1;stroke-miterlimit:10" d="M73.583 31.891c0 17.157-13.906 31.063-31.062 31.063S11.454 49.048 11.454 31.89c0-17.156 13.91-31.066 31.067-31.066 17.156 0 31.062 13.91 31.062 31.066Zm0 0" transform="matrix(1 0 0 -1 .737 64.114)"/></g></svg>