<svg xmlns="http://www.w3.org/2000/svg" width="29.269" height="8.811" viewBox="0 0 21.952 6.608" version="1.2"><defs><clipPath id="a"><path d="M5 0h16v6.41H5Zm0 0"/></clipPath><clipPath id="b"><path d="M10 0h11.93v6.41H10Zm0 0"/></clipPath></defs><path style="fill:none;stroke-width:.3985;stroke-linecap:butt;stroke-linejoin:miter;stroke:#000;stroke-opacity:1;stroke-miterlimit:10" d="M0 2.21h10.046" transform="matrix(1 0 0 -1 .985 5.316)"/><path style="stroke:none;fill-rule:nonzero;fill:#000;fill-opacity:1" d="m15.05 3.105-2.01-2.011-2.009 2.011 2.008 2.008Zm0 0"/><g clip-path="url(#a)"><path style="fill:none;stroke-width:.3985;stroke-linecap:butt;stroke-linejoin:miter;stroke:#000;stroke-opacity:1;stroke-miterlimit:10" d="M4.302-.001 2.291 2.01.283-.001 2.29-2.01Zm0 0" transform="matrix(1 0 0 -1 10.749 3.104)"/></g><path style="stroke:none;fill-rule:nonzero;fill:#000;fill-opacity:1" d="m20.629 3.105-2.012-2.011-2.008 2.011 2.008 2.008Zm0 0"/><g clip-path="url(#b)"><path style="fill:none;stroke-width:.3985;stroke-linecap:butt;stroke-linejoin:miter;stroke:#000;stroke-opacity:1;stroke-miterlimit:10" d="M4.301-.001 2.29 2.01.282-.001 2.29-2.01Zm0 0" transform="matrix(1 0 0 -1 16.328 3.104)"/></g></svg>