<svg xmlns="http://www.w3.org/2000/svg" xmlns:xlink="http://www.w3.org/1999/xlink" width="222.687" height="186.099" viewBox="0 0 167.015 139.574" version="1.2"><defs><symbol overflow="visible" id="b"><path style="stroke:none" d="m1.656-6.219-1.328.094v.281c.61 0 .688.063.688.5v4.657c0 .406-.094.406-.688.406V0c.422-.016.594-.031 1-.031.422 0 .578.015 1.016.031v-.281c-.594 0-.688 0-.688-.406Zm0 0"/></symbol><symbol overflow="visible" id="c"><path style="stroke:none" d="M4.344-1.906c0-1.172-.938-2.11-2.032-2.11-1.14 0-2.046.954-2.046 2.11 0 1.11.921 2 2.03 2 1.142 0 2.048-.906 2.048-2ZM2.312-.156c-.453 0-.828-.219-1.03-.563-.235-.39-.25-.86-.25-1.265 0-.344 0-.844.218-1.22a1.222 1.222 0 0 1 1.047-.593c.515 0 .875.297 1.062.594.204.375.204.828.204 1.219 0 .328 0 .843-.22 1.234a1.18 1.18 0 0 1-1.03.594Zm0 0"/></symbol><symbol overflow="visible" id="d"><path style="stroke:none" d="M1.125-1.61c.219.141.5.282.906.282.86 0 1.5-.61 1.5-1.313 0-.437-.25-.75-.36-.875.36-.328.782-.328.876-.328-.031.031-.11.078-.11.235 0 .109.063.265.266.265.125 0 .266-.078.266-.265a.457.457 0 0 0-.485-.454c-.25 0-.656.094-.968.422a1.541 1.541 0 0 0-.97-.328c-.858 0-1.5.61-1.5 1.328 0 .454.266.782.407.907a1.262 1.262 0 0 0-.265.75c0 .296.14.625.39.78C.625-.046.266.282.266.704c0 .64.875 1.14 2.03 1.14 1.11 0 2.048-.468 2.048-1.155 0-.375-.172-.766-.5-.985-.5-.312-1.031-.312-1.875-.312-.188 0-.469 0-.547-.016C1.172-.688 1-.922 1-1.203c0-.156.047-.281.125-.406Zm.906.048c-.797 0-.797-.891-.797-1.079 0-.25.016-.546.172-.765a.792.792 0 0 1 .625-.313c.813 0 .813.86.813 1.078 0 .204 0 1.079-.813 1.079Zm.422 1.515c.281 0 1.39.016 1.39.735 0 .515-.702.921-1.53.921-.891 0-1.547-.421-1.547-.921 0-.141.093-.735.859-.735Zm0 0"/></symbol><symbol overflow="visible" id="e"><path style="stroke:none" d="M4.406-3.625a.504.504 0 0 0-.422.484c0 .172.125.329.344.329.25 0 .5-.22.5-.532 0-.422-.453-.625-.875-.625-.531 0-.844.485-.953.672a1.042 1.042 0 0 0-1-.672c-.953 0-1.484 1.156-1.484 1.39 0 .079.062.11.125.11.078 0 .109-.047.125-.11.28-.89.875-1.155 1.218-1.155.266 0 .485.171.485.593 0 .313-.375 1.75-.5 2.188-.063.265-.344.828-.828.828-.188 0-.375-.063-.454-.11.235-.046.422-.265.422-.484 0-.234-.171-.328-.343-.328-.266 0-.5.219-.5.531 0 .438.484.61.859.61.531 0 .828-.422.969-.672.219.594.75.672.984.672.969 0 1.485-1.157 1.485-1.375 0-.047-.032-.11-.11-.11-.11 0-.11.032-.156.172-.203.64-.719 1.094-1.188 1.094-.25 0-.5-.156-.5-.594 0-.203.125-.687.204-1.031.046-.156.28-1.125.296-1.188.11-.328.375-.796.844-.796.156 0 .328.015.453.109Zm0 0"/></symbol><symbol overflow="visible" id="f"><path style="stroke:none" d="M2.313-5.219a.506.506 0 0 0-.157.625c.078.157.266.235.469.14.219-.109.328-.421.188-.687-.188-.39-.688-.359-1.063-.171-.469.234-.531.812-.531 1.015C.859-4.609.406-4.64 0-4.437c-.844.421-.781 1.687-.688 1.89.032.078.094.078.157.063.062-.047.078-.094.062-.172-.14-.922.266-1.422.578-1.578.235-.11.5-.063.688.312.14.281.453 1.735.547 2.188.047.265.047.89-.39 1.109a.909.909 0 0 1-.454.11c.203-.141.281-.438.172-.626-.094-.218-.297-.218-.453-.14A.509.509 0 0 0 0-.594c.203.406.719.344 1.047.172.484-.234.562-.75.562-1.031.454.437.985.266 1.188.156.875-.437.812-1.703.703-1.89-.016-.047-.078-.094-.14-.047-.094.046-.079.078-.063.218.094.672-.156 1.313-.578 1.516-.219.11-.516.078-.719-.313-.078-.187-.172-.656-.266-1a43.033 43.033 0 0 0-.265-1.203c-.047-.343-.032-.89.39-1.093.141-.079.313-.141.454-.11Zm0 0"/></symbol><symbol overflow="visible" id="g"><path style="stroke:none" d="M.766-7.5C.75-7.64.75-7.656.734-7.672c-.046-.094-.171-.125-.25-.094-.125.063-.125.141-.109.157l.969 9.046c.031.125.031.141.047.157.046.093.14.156.234.11.094-.048.125-.126.11-.298Zm0 0"/></symbol><symbol overflow="visible" id="h"><path style="stroke:none" d="m2.984-3.281-.218.125c.046.11.203.61.171.781-.015.11-.562.39-.734.469l-1.422.718.422-1.156c.75-1.797 1.016-2.484.61-3.281C1.359-6.563.28-6.813-.72-6.328c-.922.469-1.187 1.516-.812 2.234.203.407.562.282.64.25.172-.094.36-.344.22-.64a.467.467 0 0 0-.641-.204c-.047.016-.063.016-.079.063a1.324 1.324 0 0 1 .72-1.406c.812-.407 1.468.218 1.75.781.405.797.124 1.781-.048 2.39L.36-.546c-.046.14-.046.156.047.344l3.078-1.531Zm0 0"/></symbol><symbol overflow="visible" id="i"><path style="stroke:none" d="M3.219-1.125H3c-.016.094-.078.484-.156.547-.047.047-.531.047-.625.047h-1.11l.766-.625c.203-.172.734-.547.922-.735.172-.171.422-.484.422-.906 0-.75-.672-1.187-1.485-1.187-.765 0-1.296.515-1.296 1.078 0 .297.25.344.312.344a.32.32 0 0 0 .328-.329c0-.125-.078-.328-.344-.328.141-.297.5-.531.922-.531.625 0 .953.469.953.953 0 .422-.28.86-.687 1.25L.5-.25C.437-.187.437-.187.437 0h2.594Zm0 0"/></symbol><symbol overflow="visible" id="j"><path style="stroke:none" d="M.938-2.203c.546-.063 1.125-.14 1.562-.328.813-.328.906-.828.86-1.14-.063-.5-.563-.72-1.094-.642C1.234-4.171 0-3.109.219-1.592.329-.75.922-.032 1.89-.157 3.219-.344 3.844-1.36 3.828-1.47c-.015-.047-.078-.125-.14-.11-.032 0-.047.016-.11.126-.469.703-1.234 1-1.703 1.062C1.25-.297 1-.875.937-1.312c0-.016-.046-.329 0-.891Zm.03-.235c.204-1.453 1.188-1.624 1.329-1.64.297-.047.687.047.734.453.125.89-1.219 1.063-2.062 1.188Zm0 0"/></symbol><symbol overflow="visible" id="k"><path style="stroke:none" d="M3.031-2.797a.357.357 0 0 0-.234.36.227.227 0 0 0 .265.203.365.365 0 0 0 .313-.422c-.047-.328-.422-.406-.719-.36-.406.047-.578.375-.625.5-.11-.156-.375-.375-.828-.312-.687.094-.984.86-.953 1.062 0 .032.047.079.125.063.094-.016.11-.047.11-.094.078-.516.453-.797.734-.844.297-.03.422.141.437.344.016.063.016.125 0 .313a38.462 38.462 0 0 1-.14 1.203c-.063.234-.25.469-.5.5-.032 0-.188.031-.344-.047.203-.11.219-.297.203-.344C.859-.828.735-.89.609-.875c-.156.016-.328.172-.296.422.046.344.453.422.718.375a.83.83 0 0 0 .64-.516c.157.235.47.36.813.313.688-.094.97-.875.954-1.047-.016-.016-.016-.094-.126-.078-.078.015-.093.062-.093.11-.11.53-.5.78-.75.812-.219.03-.39-.063-.422-.313a.907.907 0 0 1 .015-.453l.079-.813c.03-.234.046-.359.14-.515.063-.094.203-.235.39-.25a.614.614 0 0 1 .36.031Zm0 0"/></symbol><symbol overflow="visible" id="l"><path style="stroke:none" d="M5.563-1.813c.14 0 .312 0 .312-.171 0-.188-.172-.188-.313-.188H1c-.125 0-.297 0-.297.188 0 .171.172.171.297.171Zm0 0"/></symbol><symbol overflow="visible" id="m"><path style="stroke:none" d="M2.25-1.625c.125-.125.453-.39.594-.5.484-.453.953-.89.953-1.61 0-.953-.797-1.562-1.781-1.562-.97 0-1.594.719-1.594 1.438 0 .39.312.437.422.437.172 0 .422-.11.422-.422 0-.406-.407-.406-.5-.406.234-.594.765-.781 1.156-.781.734 0 1.125.625 1.125 1.297 0 .828-.578 1.437-1.531 2.39l-1 1.047C.422-.219.422-.203.422 0h3.14l.235-1.422h-.25c-.016.156-.078.547-.172.703-.047.063-.656.063-.781.063H1.172Zm0 0"/></symbol><symbol overflow="visible" id="n"><path style="stroke:none" d="M2.5-5.078c0-.219-.016-.219-.234-.219-.329.313-.75.5-1.5.5v.266c.218 0 .64 0 1.109-.203v4.078c0 .297-.031.39-.781.39H.812V0c.329-.031 1.016-.031 1.375-.031.36 0 1.047 0 1.376.031v-.266H3.28c-.75 0-.781-.093-.781-.39Zm0 0"/></symbol><symbol overflow="visible" id="o"><path style="stroke:none" d="M3.89-2.547c0-.844-.078-1.36-.343-1.875-.344-.703-1-.875-1.438-.875-1 0-1.375.75-1.484.969C.344-3.75.328-2.953.328-2.547c0 .531.016 1.328.406 1.969.36.594.954.75 1.375.75.391 0 1.063-.125 1.47-.906.296-.579.312-1.297.312-1.813ZM2.11-.062c-.266 0-.813-.126-.985-.954-.094-.453-.094-1.203-.094-1.625 0-.546 0-1.109.094-1.546.172-.813.781-.891.984-.891.266 0 .829.14.985.86.094.437.094 1.046.094 1.577 0 .47 0 1.188-.094 1.641-.172.828-.719.938-.985.938Zm0 0"/></symbol><clipPath id="a"><path d="M76 50h83v89.36H76Zm0 0"/></clipPath></defs><path style="fill:none;stroke-width:.3985;stroke-linecap:round;stroke-linejoin:miter;stroke:#000;stroke-opacity:1;stroke-miterlimit:10" d="M-56.691-1.993v3.984M-28.348-1.993v3.984M28.348-1.993v3.984M56.695-1.993v3.984M-1.992-28.348h3.984M-1.992 28.347h3.984M-1.992 56.695h3.984" transform="matrix(1 0 0 -1 78.856 85.3)"/><path style="fill:none;stroke-width:.3985;stroke-linecap:butt;stroke-linejoin:miter;stroke:#000;stroke-opacity:1;stroke-miterlimit:10" d="M-78.34 0H77.941" transform="matrix(1 0 0 -1 78.856 85.3)"/><path style="fill:none;stroke-width:.3985;stroke-linecap:round;stroke-linejoin:round;stroke:#000;stroke-opacity:1;stroke-miterlimit:10" d="M-2.073 2.39C-1.694.956-.85.28 0 0-.85-.279-1.694-.959-2.073-2.392" transform="matrix(1 0 0 -1 156.995 85.3)"/><path style="fill:none;stroke-width:.3985;stroke-linecap:butt;stroke-linejoin:miter;stroke:#000;stroke-opacity:1;stroke-miterlimit:10" d="M0-53.06V84.114" transform="matrix(1 0 0 -1 78.856 85.3)"/><path style="fill:none;stroke-width:.3985;stroke-linecap:round;stroke-linejoin:round;stroke:#000;stroke-opacity:1;stroke-miterlimit:10" d="M-2.072 2.39C-1.693.958-.849.278-.002 0c-.847-.277-1.691-.957-2.07-2.39" transform="matrix(0 -1 -1 0 78.856 .987)"/><path style="fill:none;stroke-width:.59776;stroke-linecap:butt;stroke-linejoin:miter;stroke:#6ecc14;stroke-opacity:1;stroke-miterlimit:10" d="M-70.867 2.323s2.988.258 4.133.368c1.148.109 2.988.296 4.136.421a255.492 255.492 0 0 1 8.266 1.055c1.148.168 2.988.461 4.133.656 1.148.196 2.988.532 4.136.758 1.145.23 2.985.617 4.133.88 1.145.26 2.985.706 4.133 1.01 1.149.302 2.988.821 4.133 1.173 1.148.351 2.988.953 4.137 1.36 1.144.405 2.984 1.1 4.132 1.57 1.145.468 2.985 1.273 4.133 1.816a95.796 95.796 0 0 1 4.133 2.105 87.724 87.724 0 0 1 4.137 2.434A87.987 87.987 0 0 1-8.86 20.74 87.961 87.961 0 0 1-4.727 24a90.425 90.425 0 0 1 4.133 3.766 99.06 99.06 0 0 1 4.133 4.351 110.07 110.07 0 0 1 4.137 5.043 126.688 126.688 0 0 1 4.133 5.836 142.69 142.69 0 0 1 4.132 6.746 169.861 169.861 0 0 1 4.133 7.813 212.96 212.96 0 0 1 4.137 9.035c1.144 2.703 4.133 10.453 4.133 10.453" transform="matrix(1 0 0 -1 78.856 85.3)"/><path style="fill:none;stroke-width:.59776;stroke-linecap:butt;stroke-linejoin:miter;stroke:#cc3f14;stroke-opacity:1;stroke-miterlimit:10" d="M-42.52 63.78s2.559-7.484 3.543-10.187a376.815 376.815 0 0 1 3.543-9.3 290.829 290.829 0 0 1 3.543-8.415 224.356 224.356 0 0 1 3.543-7.531 170.983 170.983 0 0 1 3.543-6.645 123.223 123.223 0 0 1 3.543-5.757c.985-1.473 2.563-3.641 3.547-4.872.98-1.23 2.559-3.003 3.543-3.988.98-.98 2.559-2.36 3.543-3.098.98-.738 2.559-1.722 3.543-2.214C-6.102 1.28-4.527.69-3.543.445-2.559.198-.984-.001 0-.001s2.559.2 3.543.446 2.559.835 3.543 1.328c.984.492 2.562 1.476 3.543 2.215.984.738 2.562 2.117 3.543 3.097.984.985 2.562 2.758 3.543 3.988.984 1.23 2.562 3.399 3.547 4.872.98 1.476 2.558 4.039 3.543 5.757.98 1.723 2.558 4.68 3.543 6.645.98 1.965 2.558 5.316 3.543 7.531.984 2.211 2.558 5.957 3.543 8.414a376.815 376.815 0 0 1 3.543 9.301c.984 2.703 3.543 10.187 3.543 10.187" transform="matrix(1 0 0 -1 78.856 85.3)"/><path style="fill:none;stroke-width:.59776;stroke-linecap:butt;stroke-linejoin:miter;stroke:#c414cc;stroke-opacity:1;stroke-miterlimit:10" d="M-56.691-28.348s3.84 1.921 5.312 2.66l5.316 2.656c1.473.738 3.84 1.922 5.313 2.656 1.477.739 3.844 1.922 5.316 2.66l5.317 2.657c1.472.738 3.84 1.921 5.312 2.656l5.317 2.66c1.476.734 3.84 1.918 5.316 2.656 1.473.739 3.84 1.922 5.313 2.657l5.316 2.66C-2.07-1.036.297.148 1.773.886c1.473.738 3.84 1.922 5.313 2.656l5.316 2.66c1.473.735 3.84 1.918 5.313 2.657 1.476.738 3.844 1.918 5.316 2.656l5.317 2.66c1.472.734 3.84 1.918 5.312 2.656l5.317 2.657 5.316 2.66c1.473.734 3.84 1.918 5.312 2.656l5.317 2.656c1.476.738 3.84 1.922 5.316 2.656 1.473.739 3.84 1.922 5.313 2.66 1.476.739 5.316 2.657 5.316 2.657" transform="matrix(1 0 0 -1 78.856 85.3)"/><g clip-path="url(#a)"><path style="fill:none;stroke-width:.59776;stroke-linecap:butt;stroke-linejoin:miter;stroke:#1450cc;stroke-opacity:1;stroke-miterlimit:10" d="M5.668-45.587s1.965 8.422 2.719 11.063c.754 2.637 1.96 5.988 2.715 7.949.753 1.965 1.96 4.637 2.714 6.203.754 1.567 1.965 3.785 2.72 5.09a86.626 86.626 0 0 0 2.714 4.312 88.735 88.735 0 0 0 2.719 3.743c.754.976 1.96 2.433 2.715 3.304.753.868 1.96 2.172 2.714 2.957a97 97 0 0 0 2.72 2.68c.753.715 1.96 1.797 2.714 2.45.754.652 1.965 1.652 2.715 2.253a114.82 114.82 0 0 0 2.719 2.086c.754.563 1.96 1.422 2.714 1.945a121.914 121.914 0 0 0 5.434 3.528c.754.46 1.961 1.176 2.715 1.613.754.434 1.965 1.113 2.719 1.524.754.414 1.96 1.054 2.714 1.445.754.394 1.965 1.008 2.72 1.383.753.37 1.96.957 2.714 1.312.754.356 1.961.914 2.715 1.254a201.59 201.59 0 0 0 5.434 2.355c.753.317 2.714 1.11 2.714 1.11" transform="matrix(1 0 0 -1 78.856 85.3)"/></g><g style="fill:#1450cc;fill-opacity:1"><use xlink:href="#b" x="92.614" y="120.755"/><use xlink:href="#c" x="95.173" y="120.755"/><use xlink:href="#d" x="99.781" y="120.755"/></g><use xlink:href="#e" x="106.052" y="120.755" style="fill:#1450cc;fill-opacity:1"/><g style="fill:#c414cc;fill-opacity:1"><use xlink:href="#f" x="130.445" y="54.03"/><use xlink:href="#g" x="135.117" y="51.694"/></g><use xlink:href="#h" x="139.237" y="49.634" style="fill:#c414cc;fill-opacity:1"/><use xlink:href="#e" x="98.715" y="46.768" style="fill:#cc3f14;fill-opacity:1"/><use xlink:href="#i" x="103.939" y="42.959" style="fill:#cc3f14;fill-opacity:1"/><use xlink:href="#j" x="19.73" y="79.106" style="fill:#6ecc14;fill-opacity:1"/><use xlink:href="#k" x="23.459" y="74.753" style="fill:#6ecc14;fill-opacity:1"/><use xlink:href="#l" x="16.753" y="95.085" style="fill:#000;fill-opacity:1"/><use xlink:href="#m" x="23.34" y="95.085" style="fill:#000;fill-opacity:1"/><use xlink:href="#l" x="45.099" y="95.085" style="fill:#000;fill-opacity:1"/><use xlink:href="#n" x="51.685" y="95.085" style="fill:#000;fill-opacity:1"/><use xlink:href="#n" x="105.085" y="95.085" style="fill:#000;fill-opacity:1"/><use xlink:href="#m" x="133.431" y="95.085" style="fill:#000;fill-opacity:1"/><use xlink:href="#l" x="63.386" y="115.799" style="fill:#000;fill-opacity:1"/><use xlink:href="#n" x="69.972" y="115.799" style="fill:#000;fill-opacity:1"/><use xlink:href="#o" x="71.966" y="93.092" style="fill:#000;fill-opacity:1"/><use xlink:href="#n" x="69.972" y="59.522" style="fill:#000;fill-opacity:1"/><use xlink:href="#m" x="69.972" y="31.175" style="fill:#000;fill-opacity:1"/><use xlink:href="#e" x="160.714" y="87.23" style="fill:#000;fill-opacity:1"/></svg>