<svg xmlns="http://www.w3.org/2000/svg" xmlns:xlink="http://www.w3.org/1999/xlink" width="31.7pt" height="94.995" viewBox="0 0 31.7 71.246" version="1.2"><defs><symbol overflow="visible" id="c"><path style="stroke:none" d="M4.922 0v-.469h-1.39v-5.734c0-.234 0-.328-.266-.328-.11 0-.125 0-.22.078-.765.562-1.796.562-2 .562H.845v.47h.203c.156 0 .703-.016 1.297-.204v5.156H.954V0c.437-.031 1.5-.031 1.984-.031s1.546 0 1.984.031Zm0 0"/></symbol><symbol overflow="visible" id="d"><path style="stroke:none" d="M4.766-1.172c0-.14-.141-.14-.235-.14-.187 0-.187.03-.25.156-.25.625-.734.812-1.234.812-1.39 0-1.39-1.453-1.39-1.922 0-.562 0-1.843 1.28-1.843.36 0 .516.015.657.046a.618.618 0 0 0-.203.47c0 .437.343.624.609.624.313 0 .64-.219.64-.625 0-.86-1.156-.922-1.734-.922C1.11-4.516.375-3.375.375-2.219.375-.89 1.313.062 2.844.062c1.625 0 1.922-1.156 1.922-1.234Zm0 0"/></symbol><symbol overflow="visible" id="e"><path style="stroke:none" d="M9.328 0v-.469h-.687v-2.578c0-1.031-.516-1.437-1.547-1.437-.907 0-1.422.5-1.688.953-.187-.922-1.11-.953-1.484-.953-.875 0-1.438.453-1.766 1.078v-1.078l-1.703.078v.468c.61 0 .688 0 .688.391v3.078H.453V0l1.25-.031L2.953 0v-.469h-.687v-2.078c0-1.094.875-1.578 1.5-1.578.328 0 .546.203.546.969V-.47h-.687V0l1.266-.031L6.14 0v-.469h-.688v-2.078c0-1.094.86-1.578 1.484-1.578.344 0 .563.203.563.969V-.47h-.688V0l1.25-.031Zm0 0"/></symbol><clipPath id="a"><path d="M0 52h19v18.867H0Zm0 0"/></clipPath><clipPath id="b"><path d="M7 52h23v18.867H7Zm0 0"/></clipPath></defs><path style="fill:none;stroke-width:.3985;stroke-linecap:butt;stroke-linejoin:miter;stroke:#000;stroke-opacity:1;stroke-miterlimit:10" d="M5.668 0A5.665 5.665 0 0 1 0 5.668 5.667 5.667 0 0 1-5.668 0 5.667 5.667 0 0 1 0-5.668 5.665 5.665 0 0 1 5.668 0Zm0 0" transform="matrix(1 0 0 -1 6.727 6.5)"/><path style="fill:none;stroke-width:.3985;stroke-linecap:butt;stroke-linejoin:miter;stroke:#000;stroke-opacity:1;stroke-miterlimit:10" d="M5.669 0A5.667 5.667 0 0 1 0 5.668 5.668 5.668 0 1 1 0-5.668 5.667 5.667 0 0 1 5.669 0Zm0 0" transform="matrix(1 0 0 -1 18.464 6.5)"/><path style="fill:none;stroke-width:.3985;stroke-linecap:butt;stroke-linejoin:miter;stroke:#000;stroke-opacity:1;stroke-miterlimit:10" d="M5.668.002a5.667 5.667 0 1 1-11.336 0 5.668 5.668 0 1 1 11.336 0Zm0 0" transform="matrix(1 0 0 -1 6.727 21.072)"/><path style="fill:none;stroke-width:.3985;stroke-linecap:butt;stroke-linejoin:miter;stroke:#000;stroke-opacity:1;stroke-miterlimit:10" d="M5.669.002a5.67 5.67 0 1 1-11.34-.004A5.67 5.67 0 0 1 5.67.002Zm0 0" transform="matrix(1 0 0 -1 18.464 21.072)"/><path style="fill:none;stroke-width:.3985;stroke-linecap:butt;stroke-linejoin:miter;stroke:#000;stroke-opacity:1;stroke-miterlimit:10" d="M5.668 0A5.667 5.667 0 1 1-5.668 0 5.667 5.667 0 0 1 0-5.668 5.665 5.665 0 0 1 5.668 0Zm0 0" transform="matrix(1 0 0 -1 6.727 32.809)"/><path style="fill:none;stroke-width:.3985;stroke-linecap:butt;stroke-linejoin:miter;stroke:#000;stroke-opacity:1;stroke-miterlimit:10" d="M5.669 0a5.67 5.67 0 0 1-11.34 0A5.668 5.668 0 0 1 .001-5.668 5.667 5.667 0 0 1 5.669 0Zm0 0" transform="matrix(1 0 0 -1 18.464 32.809)"/><g clip-path="url(#a)"><path style="fill:none;stroke-width:.3985;stroke-linecap:butt;stroke-linejoin:miter;stroke:#000;stroke-opacity:1;stroke-miterlimit:10" d="M5.668.002a5.667 5.667 0 1 1-11.336 0 5.668 5.668 0 1 1 11.336 0Zm0 0" transform="matrix(1 0 0 -1 6.727 63.99)"/></g><g clip-path="url(#b)"><path style="fill:none;stroke-width:.3985;stroke-linecap:butt;stroke-linejoin:miter;stroke:#000;stroke-opacity:1;stroke-miterlimit:10" d="M5.669.002a5.67 5.67 0 1 1-11.34-.004A5.67 5.67 0 0 1 5.67.002Zm0 0" transform="matrix(1 0 0 -1 18.464 63.99)"/></g><path style="fill:none;stroke-width:.79701;stroke-linecap:butt;stroke-linejoin:miter;stroke:red;stroke-opacity:1;stroke-miterlimit:10" d="M-5.87 1.64v-29.586" transform="matrix(1 0 0 -1 12.596 35.245)"/><path style="fill:none;stroke-width:.79701;stroke-linecap:round;stroke-linejoin:round;stroke:red;stroke-opacity:1;stroke-miterlimit:10" d="M-2.55 3.11C-2.087 1.243-1.048.364 0 0c-1.047-.362-2.086-1.245-2.55-3.112" transform="matrix(0 -1 -1 0 6.727 33.207)"/><path style="fill:none;stroke-width:.79701;stroke-linecap:round;stroke-linejoin:round;stroke:red;stroke-opacity:1;stroke-miterlimit:10" d="M-2.549 3.112C-2.084 1.245-1.045.362-.002 0c-1.043-.363-2.082-1.242-2.547-3.11" transform="matrix(0 1 1 0 6.727 63.592)"/><g style="fill:red;fill-opacity:1"><use xlink:href="#c" x="10.446" y="51.632"/><use xlink:href="#d" x="16.175" y="51.632"/><use xlink:href="#e" x="21.265" y="51.632"/></g></svg>