<svg xmlns="http://www.w3.org/2000/svg" xmlns:xlink="http://www.w3.org/1999/xlink" width="222.823" height="143.619" viewBox="0 0 167.117 107.714" version="1.2"><defs><symbol overflow="visible" id="b"><path style="stroke:none" d="M3.89-2.547c0-.844-.078-1.36-.343-1.875-.344-.703-1-.875-1.438-.875-1 0-1.375.75-1.484.969C.344-3.75.328-2.953.328-2.547c0 .531.016 1.328.406 1.969.36.594.954.75 1.375.75.391 0 1.063-.125 1.47-.906.296-.579.312-1.297.312-1.813ZM2.11-.062c-.266 0-.813-.126-.985-.954-.094-.453-.094-1.203-.094-1.625 0-.546 0-1.109.094-1.546.172-.813.781-.891.984-.891.266 0 .829.14.985.86.094.437.094 1.046.094 1.577 0 .47 0 1.188-.094 1.641-.172.828-.719.938-.985.938Zm0 0"/></symbol><symbol overflow="visible" id="d"><path style="stroke:none" d="M1.11-4.484c.109.03.421.125.765.125 1 0 1.594-.704 1.594-.829 0-.093-.047-.109-.094-.109-.016 0-.031 0-.094.031a2.982 2.982 0 0 1-1.11.22c-.468 0-.858-.11-1.108-.22-.079-.03-.094-.03-.11-.03-.094 0-.094.077-.094.234v2.328c0 .14 0 .234.125.234.063 0 .079-.031.125-.094.094-.11.391-.515 1.079-.515.437 0 .656.359.734.515.125.281.14.656.14.953 0 .297 0 .735-.218 1.079-.156.25-.485.484-.906.484A1.271 1.271 0 0 1 .734-.922c.016.016.079.016.079.016.218 0 .406-.14.406-.39a.388.388 0 0 0-.39-.407c-.157 0-.407.078-.407.422 0 .718.625 1.453 1.531 1.453 1 0 1.844-.781 1.844-1.766 0-.922-.672-1.75-1.61-1.75-.39 0-.765.125-1.078.406Zm0 0"/></symbol><symbol overflow="visible" id="e"><path style="stroke:none" d="M2.5-5.078c0-.219-.016-.219-.234-.219-.329.313-.75.5-1.5.5v.266c.218 0 .64 0 1.109-.203v4.078c0 .297-.031.39-.781.39H.812V0c.329-.031 1.016-.031 1.375-.031.36 0 1.047 0 1.376.031v-.266H3.28c-.75 0-.781-.093-.781-.39Zm0 0"/></symbol><symbol overflow="visible" id="f"><path style="stroke:none" d="M2.25-1.625c.125-.125.453-.39.594-.5.484-.453.953-.89.953-1.61 0-.953-.797-1.562-1.781-1.562-.97 0-1.594.719-1.594 1.438 0 .39.312.437.422.437.172 0 .422-.11.422-.422 0-.406-.407-.406-.5-.406.234-.594.765-.781 1.156-.781.734 0 1.125.625 1.125 1.297 0 .828-.578 1.437-1.531 2.39l-1 1.047C.422-.219.422-.203.422 0h3.14l.235-1.422h-.25c-.016.156-.078.547-.172.703-.047.063-.656.063-.781.063H1.172Zm0 0"/></symbol><symbol overflow="visible" id="g"><path style="stroke:none" d="M2.016-2.656c.625 0 1.03.453 1.03 1.297 0 1-.562 1.28-.983 1.28-.438 0-1.047-.155-1.329-.577.297 0 .5-.188.5-.438 0-.265-.187-.437-.453-.437-.203 0-.437.125-.437.453 0 .75.812 1.25 1.734 1.25 1.047 0 1.797-.734 1.797-1.531 0-.672-.531-1.266-1.344-1.454.625-.218 1.11-.75 1.11-1.39 0-.64-.72-1.094-1.547-1.094-.86 0-1.5.453-1.5 1.063 0 .296.187.421.406.421.25 0 .406-.171.406-.406 0-.297-.265-.406-.437-.406.344-.438.953-.469 1.094-.469.203 0 .812.063.812.89 0 .548-.234.891-.344 1.016-.234.25-.422.266-.906.297-.156 0-.219.016-.219.125 0 .11.078.11.219.11Zm0 0"/></symbol><symbol overflow="visible" id="c"><path style="stroke:none" d="M1.625-.438a.463.463 0 0 0-.453-.453.447.447 0 0 0-.438.438.44.44 0 0 0 .438.453.45.45 0 0 0 .453-.438Zm0 0"/></symbol><clipPath id="a"><path d="M153 12h13.676v19H153Zm0 0"/></clipPath></defs><path style="fill:none;stroke-width:.3985;stroke-linecap:round;stroke-linejoin:miter;stroke:gray;stroke-opacity:1;stroke-miterlimit:10" d="M0-6.974v1.992M23.622-6.974v1.992M47.243-6.974v1.992M70.868-6.974v1.992M94.489-6.974v1.992M118.11-6.974v1.992M141.735-6.974v1.992M-6.972-.001h1.992M-6.972 17.518h1.992M-6.972 35.038h1.992M-6.972 52.553h1.992M-6.972 70.073h1.992M-6.972 87.592h1.992" transform="matrix(1 0 0 -1 20.745 91.651)"/><path style="fill:none;stroke-width:.3985;stroke-linecap:butt;stroke-linejoin:miter;stroke:gray;stroke-opacity:1;stroke-miterlimit:10" d="M0-4.982h141.735" transform="matrix(1 0 0 -1 20.745 91.651)"/><path style="fill:none;stroke-width:.3985;stroke-linecap:square;stroke-linejoin:miter;stroke:#bfbfbf;stroke-opacity:1;stroke-miterlimit:10" d="M0-.001h141.735M0 87.592h141.735" transform="matrix(1 0 0 -1 20.745 91.651)"/><path style="fill:none;stroke-width:.3985;stroke-linecap:butt;stroke-linejoin:miter;stroke:gray;stroke-opacity:1;stroke-miterlimit:10" d="M-4.98-.001v87.593" transform="matrix(1 0 0 -1 20.745 91.651)"/><path style="fill:none;stroke-width:.3985;stroke-linecap:square;stroke-linejoin:miter;stroke:#bfbfbf;stroke-opacity:1;stroke-miterlimit:10" d="M0-.001v87.593M141.735-.001v87.593" transform="matrix(1 0 0 -1 20.745 91.651)"/><path style="fill-rule:nonzero;fill:#000;fill-opacity:1;stroke-width:.3985;stroke-linecap:butt;stroke-linejoin:miter;stroke:#000;stroke-opacity:1;stroke-miterlimit:10" d="M1.993-.001A1.99 1.99 0 0 1 0 1.99 1.993 1.993 0 1 1 1.993-.001ZM50.235 35.038a2.99 2.99 0 0 1-5.98 0 2.988 2.988 0 0 1 2.988-2.989 2.99 2.99 0 0 1 2.992 2.989ZM50.235 70.073a2.99 2.99 0 0 1-2.992 2.988 2.988 2.988 0 1 1 0-5.976 2.99 2.99 0 0 1 2.992 2.988ZM95.485-.001a.995.995 0 1 1-1.99.001.995.995 0 0 1 1.99-.001Zm0 0" transform="matrix(1 0 0 -1 20.745 91.651)"/><path style="fill-rule:nonzero;fill:#c00;fill-opacity:1;stroke-width:.3985;stroke-linecap:butt;stroke-linejoin:miter;stroke:#c00;stroke-opacity:1;stroke-miterlimit:10" d="M28.602 17.518a4.981 4.981 0 1 1-9.962-.001 4.981 4.981 0 0 1 9.962.001ZM49.239 52.553a1.994 1.994 0 0 1-3.988 0c0-1.097.894-1.992 1.992-1.992 1.101 0 1.996.895 1.996 1.992ZM50.235 87.592a2.99 2.99 0 0 1-5.98 0 2.988 2.988 0 0 1 2.988-2.988 2.99 2.99 0 0 1 2.992 2.988ZM3.985 70.073a3.984 3.984 0 1 1-7.969 0 3.984 3.984 0 1 1 7.969 0Zm0 0" transform="matrix(1 0 0 -1 20.745 91.651)"/><path style="stroke:none;fill-rule:nonzero;fill:#00c;fill-opacity:1" d="M165.469 21.578a2.988 2.988 0 0 0-2.989-2.988 2.99 2.99 0 1 0 0 5.976 2.988 2.988 0 0 0 2.989-2.988Zm0 0"/><g clip-path="url(#a)"><path style="fill:none;stroke-width:.3985;stroke-linecap:butt;stroke-linejoin:miter;stroke:#00c;stroke-opacity:1;stroke-miterlimit:10" d="M144.723 70.073a2.988 2.988 0 0 1-2.988 2.988 2.99 2.99 0 1 1 0-5.976 2.988 2.988 0 0 1 2.988 2.988Zm0 0" transform="matrix(1 0 0 -1 20.745 91.651)"/></g><path style="fill-rule:nonzero;fill:#00c;fill-opacity:1;stroke-width:.3985;stroke-linecap:butt;stroke-linejoin:miter;stroke:#00c;stroke-opacity:1;stroke-miterlimit:10" d="M122.094 17.518a3.984 3.984 0 1 1-7.968 0 3.984 3.984 0 1 1 7.969 0Zm0 0" transform="matrix(1 0 0 -1 20.745 91.651)"/><use xlink:href="#b" x="18.628" y="106.418" style="fill:#000;fill-opacity:1"/><use xlink:href="#b" x="38.956" y="106.418" style="fill:#000;fill-opacity:1"/><use xlink:href="#c" x="43.191" y="106.418" style="fill:#000;fill-opacity:1"/><use xlink:href="#d" x="45.544" y="106.418" style="fill:#000;fill-opacity:1"/><use xlink:href="#e" x="65.873" y="106.418" style="fill:#000;fill-opacity:1"/><use xlink:href="#e" x="86.201" y="106.418" style="fill:#000;fill-opacity:1"/><use xlink:href="#c" x="90.434" y="106.418" style="fill:#000;fill-opacity:1"/><use xlink:href="#d" x="92.787" y="106.418" style="fill:#000;fill-opacity:1"/><use xlink:href="#f" x="113.115" y="106.418" style="fill:#000;fill-opacity:1"/><use xlink:href="#f" x="133.445" y="106.418" style="fill:#000;fill-opacity:1"/><use xlink:href="#c" x="137.679" y="106.418" style="fill:#000;fill-opacity:1"/><use xlink:href="#d" x="140.031" y="106.418" style="fill:#000;fill-opacity:1"/><use xlink:href="#g" x="160.359" y="106.418" style="fill:#000;fill-opacity:1"/><use xlink:href="#b" x="6.881" y="94.22" style="fill:#000;fill-opacity:1"/><use xlink:href="#b" x=".294" y="76.702" style="fill:#000;fill-opacity:1"/><use xlink:href="#c" x="4.529" y="76.702" style="fill:#000;fill-opacity:1"/><use xlink:href="#d" x="6.881" y="76.702" style="fill:#000;fill-opacity:1"/><use xlink:href="#e" x="6.881" y="59.184" style="fill:#000;fill-opacity:1"/><use xlink:href="#e" x=".294" y="41.666" style="fill:#000;fill-opacity:1"/><use xlink:href="#c" x="4.529" y="41.666" style="fill:#000;fill-opacity:1"/><use xlink:href="#d" x="6.881" y="41.666" style="fill:#000;fill-opacity:1"/><use xlink:href="#f" x="6.881" y="24.148" style="fill:#000;fill-opacity:1"/><use xlink:href="#f" x=".294" y="6.63" style="fill:#000;fill-opacity:1"/><use xlink:href="#c" x="4.529" y="6.63" style="fill:#000;fill-opacity:1"/><use xlink:href="#d" x="6.881" y="6.63" style="fill:#000;fill-opacity:1"/></svg>