<svg xmlns="http://www.w3.org/2000/svg" xmlns:xlink="http://www.w3.org/1999/xlink" width="87.777" height="190.419" viewBox="0 0 65.833 142.814" version="1.2"><defs><clipPath id="a"><path d="M30 0h35.75v36H30Zm0 0"/></clipPath><clipPath id="d"><path d="M10 104h41v38.723H10Zm0 0"/></clipPath><symbol overflow="visible" id="b"><path style="stroke:none" d="M6.563-2.297c.171 0 .359 0 .359-.203 0-.188-.188-.188-.36-.188h-5.39c-.172 0-.344 0-.344.188 0 .203.172.203.344.203Zm0 0"/></symbol><symbol overflow="visible" id="c"><path style="stroke:none" d="M2.938-6.375c0-.25 0-.266-.235-.266C2.078-6 1.203-6 .891-6v.313c.203 0 .78 0 1.296-.266v5.172c0 .36-.03.469-.921.469H.953V0c.344-.031 1.203-.031 1.61-.031.39 0 1.265 0 1.609.031v-.313h-.313c-.906 0-.921-.109-.921-.468Zm0 0"/></symbol></defs><g clip-path="url(#a)"><path style="fill:none;stroke-width:.3985;stroke-linecap:butt;stroke-linejoin:miter;stroke:#000;stroke-opacity:1;stroke-miterlimit:10" d="M.002 28.346V-.002l28.343 28.348Zm0 0" transform="matrix(1 0 0 -1 35.913 29.471)"/></g><path style="stroke:none;fill-rule:nonzero;fill:#000;fill-opacity:1" d="M37.906 29.473a1.996 1.996 0 0 0-1.992-1.996 1.994 1.994 0 0 0 0 3.988 1.996 1.996 0 0 0 1.992-1.992Zm0 0"/><use xlink:href="#b" x="19.663" y="32.266" style="fill:#000;fill-opacity:1"/><use xlink:href="#c" x="27.412" y="32.266" style="fill:#000;fill-opacity:1"/><path style="fill:none;stroke-width:.3985;stroke-linecap:butt;stroke-linejoin:miter;stroke:#000;stroke-opacity:1;stroke-miterlimit:10" d="M0 28.349V0l28.347 28.348Zm0 0" transform="matrix(1 0 0 -1 28.165 65.958)"/><path style="stroke:none;fill-rule:nonzero;fill:#000;fill-opacity:1" d="M30.156 65.957a1.993 1.993 0 1 0-3.986.002 1.993 1.993 0 0 0 3.986-.002Zm0 0"/><use xlink:href="#c" x="19.663" y="69.169" style="fill:#000;fill-opacity:1"/><path style="fill:none;stroke-width:.3985;stroke-linecap:butt;stroke-linejoin:miter;stroke:#000;stroke-opacity:1;stroke-miterlimit:10" d="M.001 28.347V0l28.344 28.347Zm0 0" transform="matrix(1 0 0 -1 16.343 102.031)"/><path style="stroke:none;fill-rule:nonzero;fill:#000;fill-opacity:1" d="M18.336 102.031a1.993 1.993 0 1 0-3.986.002 1.993 1.993 0 0 0 3.986-.002Zm0 0"/><use xlink:href="#b" x=".092" y="104.826" style="fill:#000;fill-opacity:1"/><use xlink:href="#c" x="7.841" y="104.826" style="fill:#000;fill-opacity:1"/><g clip-path="url(#d)"><path style="fill:none;stroke-width:.3985;stroke-linecap:butt;stroke-linejoin:miter;stroke:#000;stroke-opacity:1;stroke-miterlimit:10" d="M.001 28.347V0l28.344 28.348Zm0 0" transform="matrix(1 0 0 -1 16.343 138.519)"/></g><path style="stroke:none;fill-rule:nonzero;fill:#000;fill-opacity:1" d="M18.336 138.52a1.993 1.993 0 1 0-3.986.001 1.993 1.993 0 0 0 3.986-.001Zm0 0"/><use xlink:href="#c" x="7.841" y="141.729" style="fill:#000;fill-opacity:1"/></svg>