<svg xmlns="http://www.w3.org/2000/svg" width="105.579" height="105.363" viewBox="0 0 79.184 79.022" version="1.2"><defs><clipPath id="a"><path d="M0 51h27v27.531H0Zm0 0"/></clipPath><clipPath id="b"><path d="M0 51h33v27.531H0Zm0 0"/></clipPath><clipPath id="c"><path d="M6 51h32v27.531H6Zm0 0"/></clipPath><clipPath id="d"><path d="M12 51h32v27.531H12Zm0 0"/></clipPath><clipPath id="e"><path d="M17 51h33v27.531H17Zm0 0"/></clipPath><clipPath id="f"><path d="M23 51h32v27.531H23Zm0 0"/></clipPath><clipPath id="g"><path d="M29 51h32v27.531H29Zm0 0"/></clipPath><clipPath id="h"><path d="M34 51h33v27.531H34Zm0 0"/></clipPath><clipPath id="i"><path d="M40 51h32v27.531H40Zm0 0"/></clipPath><clipPath id="j"><path d="M46 51h32v27.531H46Zm0 0"/></clipPath><clipPath id="k"><path d="M51 51h27.777v27.531H51Zm0 0"/></clipPath><clipPath id="l"><path d="M0 51h27v27.531H0Zm0 0"/></clipPath></defs><g clip-path="url(#a)"><path style="fill:none;stroke-width:.3985;stroke-linecap:butt;stroke-linejoin:miter;stroke:#bfbfbf;stroke-opacity:1;stroke-miterlimit:10" d="m0 .002-20.043-20.047" transform="matrix(1 0 0 -1 20.93 57.205)"/></g><g clip-path="url(#b)"><path style="fill:none;stroke-width:.3985;stroke-linecap:butt;stroke-linejoin:miter;stroke:#bfbfbf;stroke-opacity:1;stroke-miterlimit:10" d="m5.668.002-20.043-20.047" transform="matrix(1 0 0 -1 20.93 57.205)"/></g><g clip-path="url(#c)"><path style="fill:none;stroke-width:.3985;stroke-linecap:butt;stroke-linejoin:miter;stroke:#bfbfbf;stroke-opacity:1;stroke-miterlimit:10" d="M11.34.002-8.703-20.045" transform="matrix(1 0 0 -1 20.93 57.205)"/></g><g clip-path="url(#d)"><path style="fill:none;stroke-width:.3985;stroke-linecap:butt;stroke-linejoin:miter;stroke:#bfbfbf;stroke-opacity:1;stroke-miterlimit:10" d="M17.008.002-3.035-20.045" transform="matrix(1 0 0 -1 20.93 57.205)"/></g><g clip-path="url(#e)"><path style="fill:none;stroke-width:.3985;stroke-linecap:butt;stroke-linejoin:miter;stroke:#bfbfbf;stroke-opacity:1;stroke-miterlimit:10" d="M22.675.002 2.632-20.045" transform="matrix(1 0 0 -1 20.93 57.205)"/></g><g clip-path="url(#f)"><path style="fill:none;stroke-width:.3985;stroke-linecap:butt;stroke-linejoin:miter;stroke:#bfbfbf;stroke-opacity:1;stroke-miterlimit:10" d="M28.347.002 8.304-20.045" transform="matrix(1 0 0 -1 20.93 57.205)"/></g><g clip-path="url(#g)"><path style="fill:none;stroke-width:.3985;stroke-linecap:butt;stroke-linejoin:miter;stroke:#bfbfbf;stroke-opacity:1;stroke-miterlimit:10" d="M34.015.002 13.972-20.045" transform="matrix(1 0 0 -1 20.93 57.205)"/></g><g clip-path="url(#h)"><path style="fill:none;stroke-width:.3985;stroke-linecap:butt;stroke-linejoin:miter;stroke:#bfbfbf;stroke-opacity:1;stroke-miterlimit:10" d="M39.687.002 19.64-20.045" transform="matrix(1 0 0 -1 20.93 57.205)"/></g><g clip-path="url(#i)"><path style="fill:none;stroke-width:.3985;stroke-linecap:butt;stroke-linejoin:miter;stroke:#bfbfbf;stroke-opacity:1;stroke-miterlimit:10" d="M45.355.002 25.312-20.045" transform="matrix(1 0 0 -1 20.93 57.205)"/></g><g clip-path="url(#j)"><path style="fill:none;stroke-width:.3985;stroke-linecap:butt;stroke-linejoin:miter;stroke:#bfbfbf;stroke-opacity:1;stroke-miterlimit:10" d="M51.023.002 30.98-20.045" transform="matrix(1 0 0 -1 20.93 57.205)"/></g><g clip-path="url(#k)"><path style="fill:none;stroke-width:.3985;stroke-linecap:butt;stroke-linejoin:miter;stroke:#bfbfbf;stroke-opacity:1;stroke-miterlimit:10" d="M56.695.002 36.648-20.045" transform="matrix(1 0 0 -1 20.93 57.205)"/></g><path style="fill:none;stroke-width:.3985;stroke-linecap:butt;stroke-linejoin:miter;stroke:#bfbfbf;stroke-opacity:1;stroke-miterlimit:10" d="M0 .002h56.695M-2.004-2.006h56.691M-4.008-4.01h56.691M-6.012-6.014h56.691M-8.016-8.018h56.691M-10.024-10.022h56.696M-12.028-12.025h56.696M-14.032-14.03h56.696M-16.035-16.033H40.66M-18.04-18.041h56.696M-20.043-20.045h56.691M0 .002v56.691M-2.004-2.006V54.69M-4.008-4.01v56.695M-6.012-6.014v56.696M-8.016-8.018v56.696M-10.024-10.022V46.67M-12.028-12.025v56.69M-14.032-14.03v56.692M-16.035-16.033v56.691M-18.04-18.041v56.695M-20.043-20.045V36.65" transform="matrix(1 0 0 -1 20.93 57.205)"/><path style="fill:none;stroke-width:.3985;stroke-linecap:butt;stroke-linejoin:miter;stroke:#000;stroke-opacity:1;stroke-miterlimit:10" d="M0 .002h56.297" transform="matrix(1 0 0 -1 20.93 57.205)"/><path style="fill:none;stroke-width:.3985;stroke-linecap:round;stroke-linejoin:round;stroke:#000;stroke-opacity:1;stroke-miterlimit:10" d="M-2.073 2.393C-1.693.955-.85.279.002.002-.85-.28-1.694-.955-2.073-2.393" transform="matrix(1 0 0 -1 77.424 57.205)"/><path style="fill:none;stroke-width:.3985;stroke-linecap:butt;stroke-linejoin:miter;stroke:#000;stroke-opacity:1;stroke-miterlimit:10" d="M0 .002v56.293" transform="matrix(1 0 0 -1 20.93 57.205)"/><path style="fill:none;stroke-width:.3985;stroke-linecap:round;stroke-linejoin:round;stroke:#000;stroke-opacity:1;stroke-miterlimit:10" d="M-2.07 2.39C-1.695.958-.852.279 0 0c-.852-.277-1.695-.957-2.07-2.39" transform="matrix(0 -1 -1 0 20.93 .71)"/><g clip-path="url(#l)"><path style="fill:none;stroke-width:.3985;stroke-linecap:butt;stroke-linejoin:miter;stroke:#000;stroke-opacity:1;stroke-miterlimit:10" d="m0 .002-19.762-19.766" transform="matrix(1 0 0 -1 20.93 57.205)"/></g><path style="fill:none;stroke-width:.3985;stroke-linecap:round;stroke-linejoin:round;stroke:#000;stroke-opacity:1;stroke-miterlimit:10" d="M-2.073 2.39C-1.695.957-.85.277 0 .001-.849-.28-1.692-.957-2.071-2.39" transform="scale(-1 1) rotate(45 -93.592 37.314)"/><path style="fill:none;stroke-width:.3985;stroke-linecap:butt;stroke-linejoin:miter;stroke:#000;stroke-opacity:1;stroke-miterlimit:10" d="m-11.43-11.432 2.816 2.82m-2.816 0 2.816-2.82M-1.41 26.94l2.82 2.816m-2.82 0 2.82-2.817M35.242 35.24l2.816 2.82m-2.816 0 2.816-2.82" transform="matrix(1 0 0 -1 20.93 57.205)"/></svg>