<svg xmlns="http://www.w3.org/2000/svg" xmlns:xlink="http://www.w3.org/1999/xlink" width="83.739" height="87.579" viewBox="0 0 62.804 65.684" version="1.2"><defs><symbol overflow="visible" id="a"><path style="stroke:none" d="M4.813-.89v-.563h-.25v.562c0 .579-.25.641-.36.641-.328 0-.36-.453-.36-.5v-1.984c0-.422 0-.813-.359-1.188-.39-.39-.89-.547-1.375-.547-.812 0-1.5.469-1.5 1.125 0 .297.204.469.454.469a.448.448 0 0 0 .468-.453c0-.125-.062-.453-.515-.453.265-.36.765-.469 1.078-.469.484 0 1.062.39 1.062 1.281v.36c-.515.03-1.219.062-1.844.359-.75.344-1 .86-1 1.297 0 .812.97 1.062 1.594 1.062.672 0 1.125-.406 1.313-.859.047.39.312.813.781.813.203 0 .813-.141.813-.954Zm-1.657-.5c0 .937-.719 1.28-1.172 1.28-.484 0-.89-.343-.89-.843 0-.547.406-1.375 2.062-1.438Zm0 0"/></symbol><symbol overflow="visible" id="b"><path style="stroke:none" d="M5.188-2.156c0-1.266-.97-2.25-2.11-2.25-.781 0-1.203.468-1.36.64v-3.156l-1.437.11v.312c.703 0 .781.063.781.563V0h.25l.36-.625c.14.234.562.734 1.297.734 1.187 0 2.219-.984 2.219-2.265Zm-.829 0c0 .36-.015.953-.296 1.406-.22.313-.594.64-1.125.64-.454 0-.813-.234-1.047-.609-.141-.203-.141-.234-.141-.422v-2.046c0-.188 0-.204.11-.36.39-.562.937-.64 1.171-.64.453 0 .813.265 1.047.64.266.406.281.969.281 1.39Zm0 0"/></symbol><symbol overflow="visible" id="c"><path style="stroke:none" d="M4.14-1.188c0-.093-.109-.093-.14-.093-.078 0-.11.031-.125.093C3.594-.265 2.937-.14 2.578-.14c-.531 0-1.406-.421-1.406-2.03 0-1.626.812-2.048 1.344-2.048.093 0 .718.016 1.062.375-.406.031-.469.328-.469.453 0 .266.188.454.454.454.265 0 .468-.157.468-.47 0-.671-.765-1.062-1.531-1.062C1.25-4.469.344-3.39.344-2.156c0 1.281.984 2.265 2.14 2.265 1.329 0 1.657-1.203 1.657-1.296Zm0 0"/></symbol><symbol overflow="visible" id="d"><path style="stroke:none" d="M5.25 0v-.313c-.688 0-.781-.062-.781-.562v-6.047l-1.422.11v.312c.687 0 .765.063.765.563v2.156a1.582 1.582 0 0 0-1.25-.625c-1.171 0-2.218.984-2.218 2.265 0 1.266.969 2.25 2.11 2.25.64 0 1.077-.343 1.327-.656V.11ZM3.781-1.172c0 .172 0 .188-.11.36-.296.484-.733.703-1.171.703-.453 0-.813-.266-1.047-.641-.25-.406-.281-.969-.281-1.39 0-.36.016-.954.297-1.407.218-.312.593-.64 1.14-.64.344 0 .766.156 1.063.593.11.172.11.188.11.375Zm0 0"/></symbol><symbol overflow="visible" id="e"><path style="stroke:none" d="M4.14-1.188c0-.093-.077-.125-.14-.125-.078 0-.11.063-.125.141C3.531-.14 2.625-.14 2.531-.14c-.5 0-.89-.296-1.125-.671-.297-.47-.297-1.125-.297-1.485h2.782c.218 0 .25 0 .25-.219 0-.984-.547-1.953-1.782-1.953-1.156 0-2.078 1.032-2.078 2.282C.281-.86 1.328.108 2.47.108 3.688.11 4.14-1 4.14-1.187Zm-.656-1.328H1.11C1.172-4 2.016-4.25 2.36-4.25c1.016 0 1.125 1.344 1.125 1.734Zm0 0"/></symbol></defs><use xlink:href="#a" x=".605" y="6.503" style="fill:#000;fill-opacity:1"/><use xlink:href="#b" x="28.672" y="7.729" style="fill:#000;fill-opacity:1"/><use xlink:href="#c" x="29.23" y="34.85" style="fill:#000;fill-opacity:1"/><use xlink:href="#d" x="28.672" y="64.421" style="fill:#000;fill-opacity:1"/><path style="fill:none;stroke-width:.3985;stroke-linecap:butt;stroke-linejoin:miter;stroke:#000;stroke-opacity:1;stroke-miterlimit:10" d="m5.803-5.807 16.532-16.527" transform="matrix(1 0 0 -1 3.095 4.326)"/><path style="fill:none;stroke-width:.3985;stroke-linecap:round;stroke-linejoin:round;stroke:#000;stroke-opacity:1;stroke-miterlimit:10" d="M-2.074 2.39C-1.696.957-.85.277 0 .001-.85-.281-1.693-.957-2.07-2.391" transform="matrix(.70714 .70706 .70706 -.70714 25.57 26.801)"/><path style="fill:none;stroke-width:.3985;stroke-linecap:butt;stroke-linejoin:miter;stroke:#000;stroke-opacity:1;stroke-miterlimit:10" d="m2.901-5.807 21.754-43.5" transform="matrix(1 0 0 -1 3.095 4.326)"/><path style="fill:none;stroke-width:.3985;stroke-linecap:round;stroke-linejoin:round;stroke:#000;stroke-opacity:1;stroke-miterlimit:10" d="M-2.072 2.391C-1.693.957-.85.277-.001.001c-.847-.28-1.693-.957-2.07-2.393" transform="matrix(.44724 .89435 .89435 -.44724 27.839 53.81)"/><use xlink:href="#e" x="57.576" y="6.503" style="fill:#000;fill-opacity:1"/><path style="fill:none;stroke-width:.3985;stroke-linecap:butt;stroke-linejoin:miter;stroke:#000;stroke-opacity:1;stroke-miterlimit:10" d="M34.635.002h15.93" transform="matrix(1 0 0 -1 3.095 4.326)"/><path style="fill:none;stroke-width:.3985;stroke-linecap:round;stroke-linejoin:round;stroke:#000;stroke-opacity:1;stroke-miterlimit:10" d="M-2.073 2.392C-1.693.955-.85.28.002.002-.85-.28-1.694-.955-2.073-2.393" transform="matrix(1 0 0 -1 53.858 4.326)"/><path style="fill:none;stroke-width:.3985;stroke-linecap:butt;stroke-linejoin:miter;stroke:#000;stroke-opacity:1;stroke-miterlimit:10" d="M34.077-22.615 50.678-6.014" transform="matrix(1 0 0 -1 3.095 4.326)"/><path style="fill:none;stroke-width:.3985;stroke-linecap:round;stroke-linejoin:round;stroke:#000;stroke-opacity:1;stroke-miterlimit:10" d="M-2.071 2.39C-1.693.956-.851.28 0-.002c-.85-.277-1.693-.953-2.074-2.39" transform="scale(.99999 -.99999) rotate(45.002 39.268 59.982)"/></svg>