<svg xmlns="http://www.w3.org/2000/svg" xmlns:xlink="http://www.w3.org/1999/xlink" width="78.804" height="79.155" viewBox="0 0 59.103 59.366" version="1.2"><defs><clipPath id="a"><path d="M0 0h58.656v59.05H0Zm0 0"/></clipPath><clipPath id="b"><path d="M0 0h58.656v59H0Zm0 0"/></clipPath><symbol overflow="visible" id="c"><path style="stroke:none" d="M5.719-2.031c0-1.094-.797-1.906-1.719-2.094l-1.438-.313c-.406-.093-.953-.421-.953-1.03 0-.438.282-1.048 1.266-1.048.797 0 1.813.329 2.047 1.688.031.25.031.266.234.266.25 0 .25-.047.25-.282v-1.828c0-.187 0-.281-.187-.281-.078 0-.078.016-.188.11l-.453.437C4-6.86 3.344-6.953 2.875-6.953c-1.516 0-2.234.969-2.234 2.016 0 .64.328 1.093.53 1.312.5.5.829.563 1.923.797.875.203 1.047.219 1.265.437.141.141.391.407.391.86 0 .484-.25 1.172-1.297 1.172-.75 0-2.265-.204-2.344-1.688-.015-.172-.015-.219-.234-.219-.234 0-.234.047-.234.282v1.812C.64.016.64.11.812.11.906.11.922.094 1 .016l.469-.454C2.125.047 3.047.11 3.453.11 5.11.11 5.72-1.016 5.72-2.03Zm0 0"/></symbol></defs><path style="fill:none;stroke-width:.19925;stroke-linecap:butt;stroke-linejoin:miter;stroke:gray;stroke-opacity:1;stroke-miterlimit:10" d="M.001.001h56.692M0 28.345h56.692M0 56.685h56.692M0 0v56.692M28.345 0v56.692M56.685 0v56.692" transform="matrix(1 0 0 -1 .752 57.845)"/><g clip-path="url(#a)"><path style="fill:none;stroke-width:.3985;stroke-linecap:butt;stroke-linejoin:miter;stroke:#00f;stroke-opacity:1;stroke-dasharray:2.98883,2.98883;stroke-miterlimit:10" d="M56.693 28.345c0 15.656-12.692 28.348-28.348 28.348C12.693 56.693.001 44 .001 28.345.001 12.693 12.693.001 28.345.001c15.656 0 28.348 12.692 28.348 28.344Zm0 0" transform="matrix(1 0 0 -1 .752 57.845)"/></g><path style="fill:none;stroke-width:.3985;stroke-linecap:butt;stroke-linejoin:miter;stroke:red;stroke-opacity:1;stroke-dasharray:2.98883,2.98883;stroke-miterlimit:10" d="M42.52 28.345c0 7.828-6.347 14.176-14.175 14.176s-14.172-6.348-14.172-14.176c0-7.824 6.344-14.172 14.172-14.172s14.176 6.348 14.176 14.172Zm0 0" transform="matrix(1 0 0 -1 .752 57.845)"/><g clip-path="url(#b)"><path style="fill:none;stroke-width:.3985;stroke-linecap:butt;stroke-linejoin:miter;stroke:#000;stroke-opacity:1;stroke-miterlimit:10" d="m28.345 56.693-8.328-16.88-18.629-2.706 13.48-13.14-3.183-18.552 16.66 8.758L45.01 5.415l-3.183 18.551 13.48 13.14-18.629 2.708Zm0 0" transform="matrix(1 0 0 -1 .752 57.845)"/></g><use xlink:href="#c" x="25.916" y="32.916" style="fill:#000;fill-opacity:1"/></svg>