<svg xmlns="http://www.w3.org/2000/svg" width="101.309" height="47.739" viewBox="0 0 75.982 35.804" version="1.2"><defs><clipPath id="a"><path d="M0 0h75.973v35.707H0Zm0 0"/></clipPath></defs><path style="stroke:none;fill-rule:nonzero;fill:#ccf;fill-opacity:1" d="m1.371 31.64 1.117-3.34 6.68 2.227 2.23-6.683 6.68 2.23 2.23-6.683 6.68 2.226 2.23-6.683 6.684 2.23 2.227-6.684 6.684 2.227 2.226-6.684 6.684 2.23 2.226-6.683 5.77 4.52 5.867-2.524.617 7.582 6.117 1.864-4.437 6.187 3.465 5.375-7.383 1.856-.832 6.336L58.3 29.41l-4.453 4.723-4.98-4.98-4.981 4.98-4.985-4.98-4.98 4.98-4.98-4.98-4.981 4.98-4.984-4.98-4.98 4.98-4.981-4.98-4.98 4.98-2.493-2.492h-.172"/><g clip-path="url(#a)"><path style="fill:none;stroke-width:.79701;stroke-linecap:butt;stroke-linejoin:miter;stroke:#00f;stroke-opacity:1;stroke-miterlimit:10" d="m-.002.001 1.117 3.34 6.68-2.226 2.23 6.683 6.68-2.23 2.23 6.683 6.68-2.226 2.23 6.683 6.684-2.23 2.227 6.684 6.684-2.227 2.226 6.684 6.684-2.23 2.226 6.683 5.77-4.52 5.867 2.524.617-7.582 6.117-1.864-4.437-6.187 3.465-5.375-7.383-1.856-.832-6.336-6.832 3.356-4.453-4.723-4.98 4.98-4.981-4.98-4.985 4.98-4.98-4.98-4.98 4.98-4.981-4.98-4.984 4.98-4.98-4.98-4.981 4.98-4.98-4.98L.17.001h-.172" transform="matrix(1 0 0 -1 1.373 31.642)"/></g></svg>