<svg xmlns="http://www.w3.org/2000/svg" xmlns:xlink="http://www.w3.org/1999/xlink" width="410.931" height="303.483" viewBox="0 0 308.198 227.612" version="1.2"><defs><symbol overflow="visible" id="b"><path style="stroke:none" d="M7.64-2.266c0-.203-.077-.203-.25-.203-.124 0-.218 0-.218.172C7.094-.969 5.89-.359 4.89-.359c-.782 0-1.625-.235-2.141-.844-.469-.578-.594-1.313-.594-2.219 0-.562.031-1.625.672-2.297.64-.656 1.516-.765 2.031-.765 1.079 0 2.016.765 2.235 2.03.031.188.047.204.265.204.266 0 .282-.016.282-.281v-2.14c0-.188 0-.282-.188-.282-.094 0-.11.031-.187.094l-.657.593a3.03 3.03 0 0 0-1.968-.687c-2.485 0-4 1.484-4 3.531S2.156.11 4.64.11c1.875 0 3-1.218 3-2.375Zm0 0"/></symbol><symbol overflow="visible" id="c"><path style="stroke:none" d="M2.922 0v-.469h-.688v-6.453L.47-6.844v.469c.625 0 .687 0 .687.39v5.516H.47V0l1.219-.031Zm0 0"/></symbol><symbol overflow="visible" id="d"><path style="stroke:none" d="M5.406-2.172c0-1.344-.922-2.344-2.547-2.344C1.22-4.516.313-3.5.313-2.172c0 1.235.89 2.235 2.546 2.235 1.672 0 2.547-1.016 2.547-2.235Zm-1.281-.11c0 .86 0 1.938-1.266 1.938-1.265 0-1.265-1.078-1.265-1.937 0-.453 0-.953.172-1.297.187-.375.609-.578 1.093-.578.422 0 .844.156 1.063.5.203.344.203.89.203 1.375Zm0 0"/></symbol><symbol overflow="visible" id="e"><path style="stroke:none" d="M6.125 0v-.469c-.61 0-.688 0-.688-.39v-3.625l-1.812.078v.468c.61 0 .688 0 .688.391v1.906c0 .813-.516 1.344-1.235 1.344-.781 0-.812-.25-.812-.797v-3.39l-1.813.078v.468c.61 0 .688 0 .688.391v2.328c0 1.063.796 1.282 1.796 1.282.25 0 .97 0 1.422-.782v.781Zm0 0"/></symbol><symbol overflow="visible" id="f"><path style="stroke:none" d="M5.984 0v-.469c-.609 0-.687 0-.687-.39v-6.063l-1.766.078v.469c.625 0 .703 0 .703.39v1.954a2.178 2.178 0 0 0-1.359-.453c-1.453 0-2.5.875-2.5 2.28 0 1.313.922 2.267 2.39 2.267.61 0 1.094-.235 1.407-.485v.484ZM4.172-1.031c-.14.187-.547.734-1.297.734-1.219 0-1.219-1.203-1.219-1.906 0-.485 0-1.016.25-1.406.297-.422.766-.516 1.078-.516.563 0 .97.313 1.188.61Zm0 0"/></symbol><symbol overflow="visible" id="g"><path style="stroke:none" d="M3.078.313c0-.126-.047-.157-.187-.25C2.062-.5 1.75-1.391 1.75-2.126c0-.672.25-1.594 1.156-2.203.125-.094.172-.125.172-.25a.254.254 0 0 0-.265-.25c-.204 0-1.641.906-1.641 2.703 0 .813.312 1.438.562 1.781.375.516.907.906 1.079.906.218 0 .265-.171.265-.25Zm0 0"/></symbol><symbol overflow="visible" id="h"><path style="stroke:none" d="M3.219-.906c0-.735-.906-.906-1.14-.938l-.704-.125C1.187-2 1-2.079 1-2.25c0-.156.219-.328.813-.328.515 0 .609.172.625.328.015.14.03.281.28.281.298 0 .298-.156.298-.328v-.469c0-.14-.016-.328-.25-.328-.157 0-.22.063-.25.125-.282-.125-.563-.125-.688-.125-1.187 0-1.344.594-1.344.844 0 .656.735.797 1.391.89.297.063.828.141.828.454 0 .234-.25.422-.828.422-.297 0-.656-.063-.813-.563-.03-.156-.078-.234-.28-.234-.298 0-.298.172-.298.328v.656c0 .14 0 .344.25.344.079 0 .188 0 .282-.234.328.218.671.234.859.234 1.125 0 1.344-.61 1.344-.953Zm0 0"/></symbol><symbol overflow="visible" id="i"><path style="stroke:none" d="M2.313-.469a.477.477 0 0 0-.485-.484.47.47 0 0 0-.469.469c0 .28.22.484.47.484a.473.473 0 0 0 .484-.469Zm0 0"/></symbol><symbol overflow="visible" id="j"><path style="stroke:none" d="M3.422-1.516c0-.875-.64-1.562-1.39-1.562-.298 0-.579.11-.813.281 0-.172-.063-.234-.313-.234h-.5c-.14 0-.344 0-.344.25 0 .265.22.265.329.265h.25v3.5H.406c-.14 0-.344 0-.344.266 0 .25.22.25.329.25h1.093c.11 0 .329 0 .329-.25 0-.266-.204-.266-.344-.266h-.25V-.234c.265.234.531.28.734.28.766 0 1.469-.671 1.469-1.562Zm-.578 0c0 .61-.453 1.032-.906 1.032-.485 0-.704-.563-.704-.875v-.485c0-.375.375-.703.766-.703.469 0 .844.469.844 1.031Zm0 0"/></symbol><symbol overflow="visible" id="k"><path style="stroke:none" d="M3.578-.266c0-.25-.219-.25-.328-.25H3v-2.187c0-.25-.047-.328-.328-.328h-.485c-.14 0-.343 0-.343.25 0 .265.218.265.328.265h.25v1.391c0 .563-.516.64-.719.64-.469 0-.484-.187-.484-.39v-1.828c0-.25-.047-.328-.313-.328h-.5c-.14 0-.328 0-.328.25 0 .265.203.265.313.265h.25v1.688c0 .687.5.875 1.03.875.266 0 .516-.063.766-.219C2.485 0 2.626 0 2.75 0h.5c.125 0 .328 0 .328-.266Zm0 0"/></symbol><symbol overflow="visible" id="l"><path style="stroke:none" d="M3.063-3.844c0-.437-.579-.453-.704-.453-.578 0-1.125.328-1.125.953v.313H.61c-.125 0-.328 0-.328.25 0 .265.203.265.328.265h.625v2H.61c-.125 0-.343 0-.343.25C.266 0 .484 0 .609 0h1.844c.125 0 .328 0 .328-.266 0-.25-.203-.25-.328-.25h-.64v-2h.78c.11 0 .313 0 .313-.265 0-.25-.187-.25-.312-.25h-.781v-.266c0-.453.359-.484.562-.484.031.11.125.297.344.297a.35.35 0 0 0 .344-.36Zm0 0"/></symbol><symbol overflow="visible" id="m"><path style="stroke:none" d="M3.094-.266c0-.25-.188-.25-.313-.25H2.22V-4c0-.125-.016-.328-.266-.328-.156 0-.219.094-.25.187-.234.547-.578.625-.687.641-.141 0-.313.031-.313.266 0 .203.156.25.281.25.125 0 .375-.032.657-.235v2.703h-.563c-.14 0-.328 0-.328.25C.75 0 .953 0 1.078 0h1.703c.125 0 .313 0 .313-.266Zm0 0"/></symbol><symbol overflow="visible" id="n"><path style="stroke:none" d="M2.484-2.125c0-.828-.312-1.453-.562-1.797-.375-.515-.906-.906-1.078-.906-.203 0-.266.187-.266.25 0 .125.094.187.14.219 1.095.718 1.188 1.796 1.188 2.234 0 .656-.25 1.578-1.14 2.188C.64.14.578.186.578.313c0 .078.063.25.266.25s1.64-.907 1.64-2.688Zm0 0"/></symbol><symbol overflow="visible" id="o"><path style="stroke:none" d="M3.297-.328v-.188c0-.156 0-.328-.266-.328-.265 0-.297.125-.297.328H1.313c.406-.343.968-.796 1.234-1.03.437-.391.75-.845.75-1.407 0-.844-.703-1.375-1.563-1.375-.828 0-1.39.578-1.39 1.187 0 .297.234.375.36.375.171 0 .359-.14.359-.359a.345.345 0 0 0-.094-.234c.11-.266.39-.454.734-.454.531 0 1.031.297 1.031.86 0 .453-.328.844-.765 1.203L.469-.484C.39-.422.344-.391.344-.266.344 0 .547 0 .672 0h2.312c.266 0 .313-.063.313-.328Zm0 0"/></symbol><symbol overflow="visible" id="p"><path style="stroke:none" d="M3.36-1.234c0-.47-.297-.875-.72-1.094.344-.25.516-.64.516-1 0-.516-.515-1-1.328-1-.86 0-1.344.36-1.344.844 0 .265.204.375.36.375.172 0 .36-.141.36-.36 0-.078-.032-.14-.048-.172.203-.171.625-.171.688-.171.422 0 .734.218.734.5a.718.718 0 0 1-.25.546c-.219.172-.375.188-.61.188-.437 0-.546.062-.546.281 0 .266.203.266.328.266h.313c.64 0 .968.422.968.797 0 .39-.36.78-.937.78-.25 0-.719-.062-.907-.327A.364.364 0 0 0 1-1a.363.363 0 0 0-.36-.36c-.171 0-.343.126-.343.391C.297-.344.969.078 1.844.078c.922 0 1.515-.656 1.515-1.312Zm0 0"/></symbol><symbol overflow="visible" id="q"><path style="stroke:none" d="M3.469-1.406c0-.266-.203-.266-.328-.266h-.485V-4c0-.266-.047-.344-.328-.344h-.187c-.188 0-.235.016-.329.172L.266-1.734c-.079.093-.079.109-.079.265 0 .266.079.313.329.313h1.656v.64h-.36c-.14 0-.328 0-.328.25 0 .266.188.266.329.266H3.03c.125 0 .328 0 .328-.266 0-.25-.203-.25-.328-.25h-.375v-.64h.485c.125 0 .328 0 .328-.25Zm-1.313-.266H.812l1.344-2.125Zm0 0"/></symbol><symbol overflow="visible" id="r"><path style="stroke:none" d="M3.297-1.344c0-.718-.531-1.406-1.36-1.406-.234 0-.515.047-.78.172v-1.156H2.75c.11 0 .313-.016.313-.266s-.188-.266-.313-.266H.906c-.265 0-.312.079-.312.344v1.797c0 .156 0 .344.265.344.157 0 .188-.047.25-.125.172-.203.438-.328.813-.328.531 0 .812.484.812.89 0 .516-.468.89-1 .89-.171 0-.562-.046-.75-.358.032-.047.079-.11.079-.22a.367.367 0 0 0-.36-.374c-.125 0-.36.078-.36.39C.344-.437.939.078 1.735.078c.875 0 1.563-.64 1.563-1.422Zm0 0"/></symbol><symbol overflow="visible" id="s"><path style="stroke:none" d="M3.297-1.36c0-.812-.625-1.437-1.39-1.437-.329 0-.657.094-.938.313.125-.829.703-1.329 1.25-1.329.156 0 .25.032.297.063-.032.047-.047.094-.047.188 0 .203.14.359.36.359.202 0 .358-.14.358-.375 0-.36-.265-.75-.968-.75-.922 0-1.86.844-1.86 2.25C.36-.422 1.156.078 1.844.078c.765 0 1.453-.594 1.453-1.437Zm-.578 0a.88.88 0 0 1-.875.907c-.422 0-.672-.313-.797-.703C1-1.313 1-1.484 1-1.563c0-.39.39-.703.875-.703.516 0 .844.422.844.907Zm0 0"/></symbol><symbol overflow="visible" id="t"><path style="stroke:none" d="M3.36-4c0-.25-.188-.266-.329-.266H.828c-.062-.093-.187-.109-.25-.109-.281 0-.281.188-.281.344v.281c0 .156 0 .328.281.328.266 0 .281-.125.297-.312h1.61C1.358-2.5 1.155-1.031 1.155-.297c0 .11 0 .375.282.375.14 0 .28-.094.28-.328a4.937 4.937 0 0 1 1.47-3.469c.171-.14.171-.156.171-.281Zm0 0"/></symbol><symbol overflow="visible" id="u"><path style="stroke:none" d="M3.36-1.234c0-.485-.376-.875-.844-1.063.484-.203.75-.531.75-.89 0-.579-.594-1.141-1.438-1.141-.86 0-1.437.562-1.437 1.14 0 .36.265.704.734.891-.469.188-.828.578-.828 1.063 0 .687.64 1.312 1.531 1.312.89 0 1.531-.625 1.531-1.312Zm-.672-1.954c0 .36-.407.641-.86.641-.469 0-.86-.281-.86-.64 0-.329.36-.626.86-.626s.86.297.86.626Zm.093 1.954c0 .437-.422.78-.953.78-.531 0-.953-.343-.953-.78 0-.391.36-.797.953-.797.578 0 .953.406.953.797Zm0 0"/></symbol><symbol overflow="visible" id="v"><path style="stroke:none" d="M3.297-2.172c0-1.687-.781-2.156-1.453-2.156-.782 0-1.485.578-1.485 1.437 0 .797.61 1.422 1.391 1.422.328 0 .656-.078.953-.312-.125.75-.594 1.328-1.187 1.328-.047 0-.235 0-.375-.063.015-.046.03-.093.03-.187a.337.337 0 0 0-.343-.344c-.203 0-.36.125-.36.375 0 .219.126.75 1.048.75.921 0 1.78-.875 1.78-2.25Zm-.64-.531c0 .36-.345.703-.876.703-.515 0-.86-.422-.86-.89 0-.563.47-.922.923-.922.578 0 .812.64.812 1.109Zm0 0"/></symbol><symbol overflow="visible" id="w"><path style="stroke:none" d="M3.313-2.125c0-1.297-.72-2.203-1.485-2.203-.781 0-1.5.922-1.5 2.203 0 1.297.734 2.203 1.5 2.203.781 0 1.484-.922 1.484-2.203Zm-.563-.078c0 .969-.422 1.75-.922 1.75-.516 0-.922-.781-.922-1.75 0-.953.438-1.61.922-1.61.469 0 .922.657.922 1.61Zm0 0"/></symbol><symbol overflow="visible" id="x"><path style="stroke:none" d="M3.266-.797c0-.234-.235-.234-.297-.234-.125 0-.203 0-.266.172-.047.078-.187.375-.625.375a1.027 1.027 0 0 1-1.015-1.032c0-.312.187-1.062 1.062-1.062l.344.015c.015.282.172.376.36.376.187 0 .358-.126.358-.36 0-.531-.734-.547-1.062-.547-1.219 0-1.64.953-1.64 1.578 0 .844.671 1.563 1.546 1.563 1 0 1.235-.719 1.235-.844Zm0 0"/></symbol><symbol overflow="visible" id="y"><path style="stroke:none" d="M3.25-.797c0-.234-.234-.234-.281-.234-.156 0-.219.015-.281.172-.141.328-.485.375-.657.375-.469 0-.937-.297-1.062-.813h1.953c.172 0 .328 0 .328-.312 0-.797-.453-1.485-1.375-1.485-.828 0-1.516.703-1.516 1.563S1.08.047 1.984.047c.938 0 1.266-.656 1.266-.844Zm-.594-1.015H.97c.125-.438.484-.766.906-.766.328 0 .703.156.781.765Zm0 0"/></symbol><symbol overflow="visible" id="z"><path style="stroke:none" d="M3.578-.266c0-.25-.203-.25-.328-.25H3v-1.53c0-.72-.36-1.032-.938-1.032-.39 0-.671.172-.843.297 0-.172-.047-.25-.313-.25h-.5c-.14 0-.328 0-.328.25 0 .265.203.265.313.265h.25v2H.406c-.14 0-.328 0-.328.25C.078 0 .281 0 .391 0h1.093c.11 0 .329 0 .329-.266 0-.25-.204-.25-.344-.25h-.25v-1.156c0-.64.484-.875.797-.875.328 0 .406.172.406.547v1.484h-.203c-.14 0-.344 0-.344.25 0 .266.219.266.344.266H3.25c.11 0 .328 0 .328-.266Zm0 0"/></symbol><symbol overflow="visible" id="A"><path style="stroke:none" d="M3.14-.906c0-.156 0-.313-.296-.313-.266 0-.266.157-.266.297-.015.375-.36.438-.515.438-.454 0-.454-.313-.454-.47v-1.562h1.047c.125 0 .328 0 .328-.265 0-.25-.187-.25-.328-.25H1.61v-.516c0-.14-.015-.328-.296-.328-.282 0-.282.172-.282.328v.516H.484c-.125 0-.328 0-.328.25 0 .265.203.265.328.265h.547v1.61c0 .687.485.953 1.016.953S3.14-.266 3.14-.906Zm0 0"/></symbol><symbol overflow="visible" id="B"><path style="stroke:none" d="M3.406-2.594c0-.156-.078-.484-.703-.484-.328 0-.734.11-1.094.469v-.094c0-.25-.046-.328-.328-.328h-.75c-.125 0-.328 0-.328.25 0 .265.203.265.328.265h.5v2h-.5c-.125 0-.328 0-.328.25C.203 0 .406 0 .531 0h1.781c.126 0 .329 0 .329-.266 0-.25-.204-.25-.329-.25H1.61v-.796c0-.61.36-1.22 1.11-1.235 0 .156.172.281.344.281.187 0 .343-.125.343-.328Zm0 0"/></symbol><symbol overflow="visible" id="C"><path style="stroke:none" d="M3.422-1.516c0-.875-.64-1.562-1.39-1.562-.298 0-.579.11-.813.265v-1.109c0-.25-.047-.344-.313-.344h-.5c-.14 0-.344.016-.344.266s.22.266.329.266h.25v3.406C.64-.172.656 0 .937 0c.22 0 .282-.094.282-.234.265.218.531.28.734.28.766 0 1.469-.671 1.469-1.562Zm-.578 0c0 .61-.453 1.032-.906 1.032-.485 0-.704-.563-.704-.875v-.485c0-.375.375-.703.766-.703.469 0 .844.469.844 1.031Zm0 0"/></symbol><symbol overflow="visible" id="D"><path style="stroke:none" d="M3.625-.266c0-.25-.203-.25-.328-.25-.203 0-.297-.03-.344-.046V-2c0-.5-.375-1.094-1.406-1.094-.313 0-1.031.016-1.031.547 0 .235.171.36.359.36.11 0 .344-.063.344-.36 0 0 .234-.031.343-.031.454 0 .782.187.813.594-1.219.03-2.047.39-2.047 1.062 0 .485.453.969 1.188.969.234 0 .656-.047.968-.25.172.187.485.203.75.203.235 0 .391-.016.391-.266ZM2.359-.969c0 .14 0 .266-.234.375-.234.11-.516.11-.578.11-.39 0-.64-.204-.64-.438 0-.312.546-.515 1.452-.562Zm0 0"/></symbol><symbol overflow="visible" id="E"><path style="stroke:none" d="M3.64-.266c0-.218-.14-.25-.39-.25v-1.593c0-.157-.016-.97-.656-.97a.842.842 0 0 0-.656.313.61.61 0 0 0-.532-.312.875.875 0 0 0-.547.203c-.046-.156-.187-.156-.312-.156H.328c-.125 0-.328 0-.328.25 0 .234.125.265.39.265v2c-.265 0-.39.032-.39.25C0 0 .219 0 .328 0h.594c.125 0 .312 0 .312-.266 0-.218-.109-.25-.359-.25v-1.171c0-.563.234-.86.5-.86.14 0 .203.11.203.5v1.531c-.156 0-.281.032-.281.25 0 .266.187.266.312.266h.516c.125 0 .313 0 .313-.266 0-.218-.126-.25-.376-.25v-1.171c0-.563.25-.86.5-.86.141 0 .204.11.204.5v1.531c-.141 0-.282.032-.282.25 0 .266.204.266.313.266h.5c.125 0 .344 0 .344-.266Zm0 0"/></symbol><symbol overflow="visible" id="F"><path style="stroke:none" d="M3.188-.266c0-.25-.204-.25-.329-.25h-.656v-2.187c0-.25-.047-.328-.328-.328H.906c-.125 0-.328 0-.328.25 0 .265.203.265.328.265h.719v2H.859c-.14 0-.343 0-.343.25C.516 0 .734 0 .859 0h2c.125 0 .329 0 .329-.266Zm-.954-3.562a.39.39 0 0 0-.406-.39.387.387 0 0 0-.39.39c0 .219.171.39.39.39a.39.39 0 0 0 .406-.39Zm0 0"/></symbol><symbol overflow="visible" id="G"><path style="stroke:none" d="M3.578-.266c0-.25-.203-.25-.328-.25H3v-3.406c0-.25-.047-.344-.328-.344h-.485c-.14 0-.343.016-.343.266s.218.266.328.266h.25v.906a1.261 1.261 0 0 0-.735-.25c-.765 0-1.453.672-1.453 1.562C.234-.64.875.047 1.625.047c.344 0 .61-.14.797-.313.015.188.062.266.328.266h.5c.125 0 .328 0 .328-.266ZM2.422-1.375c0 .36-.297.89-.781.89-.454 0-.829-.453-.829-1.03 0-.61.438-1.032.891-1.032.406 0 .719.344.719.688Zm0 0"/></symbol><symbol overflow="visible" id="H"><path style="stroke:none" d="M3.469-.266c0-.25-.203-.25-.328-.25h-.25l-.829-1.046.735-.954h.234c.125 0 .344 0 .344-.265 0-.25-.219-.25-.344-.25H2.25c-.125 0-.328 0-.328.25 0 .203.11.265.281.265l-.39.547-.422-.547c.156 0 .28-.062.28-.265 0-.25-.202-.25-.327-.25H.547c-.125 0-.328 0-.328.25 0 .265.218.265.328.265h.25l.75.954L.75-.516H.516c-.125 0-.344 0-.344.25C.172 0 .39 0 .516 0h.78c.126 0 .329 0 .329-.266 0-.203-.11-.25-.297-.25l.484-.703.5.703c-.187 0-.296.047-.296.25 0 .266.203.266.328.266h.797c.109 0 .328 0 .328-.266Zm0 0"/></symbol><symbol overflow="visible" id="I"><path style="stroke:none" d="M3.281-1.516c0-.89-.672-1.578-1.453-1.578-.797 0-1.453.688-1.453 1.578 0 .891.672 1.563 1.453 1.563.766 0 1.453-.688 1.453-1.563Zm-.578-.046c0 .593-.406 1.078-.875 1.078S.953-.97.953-1.563c0-.593.422-1.015.875-1.015s.875.422.875 1.015Zm0 0"/></symbol><symbol overflow="visible" id="J"><path style="stroke:none" d="M3.578-.266c0-.25-.203-.25-.328-.25H3v-1.53c0-.72-.36-1.032-.938-1.032-.39 0-.671.172-.843.297v-1.14c0-.25-.047-.345-.313-.345h-.5c-.14 0-.328.016-.328.266s.203.266.313.266h.25v3.218H.406c-.14 0-.328 0-.328.25C.078 0 .281 0 .391 0h1.093c.11 0 .329 0 .329-.266 0-.25-.204-.25-.344-.25h-.25v-1.156c0-.64.484-.875.797-.875.328 0 .406.172.406.547v1.484h-.203c-.14 0-.344 0-.344.25 0 .266.219.266.344.266H3.25c.11 0 .328 0 .328-.266Zm0 0"/></symbol><symbol overflow="visible" id="K"><path style="stroke:none" d="M3.547-2.781c0-.25-.188-.25-.328-.25h-.781c-.157 0-.344 0-.344.25 0 .265.172.265.344.265h.265l-.297 1.72-.14-.532c-.125-.469-.172-.547-.422-.547-.094 0-.235 0-.328.188l-.266.906-.297-1.735h.266c.156 0 .343 0 .343-.265 0-.25-.187-.25-.343-.25H.437c-.14 0-.343 0-.343.25 0 .234.14.265.36.265L.858-.28c.032.187.047.312.36.312.312 0 .343-.062.453-.515l.172-.641.265 1c.094.14.235.156.344.156.281 0 .313-.125.344-.312l.406-2.235c.219 0 .344-.03.344-.265Zm0 0"/></symbol><clipPath id="a"><path d="M0 0h307.797v227.418H0Zm0 0"/></clipPath></defs><path style="stroke:none;fill-rule:nonzero;fill:#fffbb3;fill-opacity:1" d="M188.094 37.57c-6.332-10.965-21.73-19.855-34.39-19.855-12.661 0-28.06 8.89-34.392 19.855-9.273-6.941-25.43-8.87-36.078-4.308-10.648 4.562-20.414 17.593-21.789 29.097-9.265-.714-21.043 4.926-26.297 12.594-5.253 7.668-6.289 20.734-2.273 29.117-6.336 5.739-10.008 17.164-8.207 25.516 1.805 8.351 9.863 17.254 17.996 19.871-1.379 10.367 4.227 23.941 12.512 30.316 8.289 6.375 22.867 8.329 32.531 4.34 4.012 11.707 17.117 23.125 29.262 25.504 12.144 2.375 28.605-3.254 36.734-12.582 8.133 9.328 24.574 14.961 36.719 12.586 12.144-2.379 25.266-13.8 29.277-25.508 9.668 3.989 24.223 2.051 32.512-4.324 8.285-6.375 13.91-19.969 12.531-30.332 8.133-2.617 16.192-11.512 17.992-19.863 1.801-8.352-1.87-19.785-8.203-25.524 4.016-8.382 3.012-21.398-2.242-29.07-5.254-7.668-17.062-13.355-26.328-12.64-1.375-11.505-11.125-24.528-21.774-29.09-10.648-4.563-26.82-2.641-36.093 4.3Zm0 0"/><g clip-path="url(#a)"><path style="fill:none;stroke-width:14.17339;stroke-linecap:butt;stroke-linejoin:miter;stroke:#b2b2b2;stroke-opacity:1;stroke-miterlimit:10" d="M34.39 78.082C28.058 89.047 12.66 97.937 0 97.937c-12.661 0-28.06-8.89-34.392-19.855-9.273 6.941-25.43 8.87-36.078 4.308-10.648-4.562-20.414-17.593-21.789-29.097-9.265.714-21.043-4.926-26.297-12.594-5.253-7.668-6.289-20.734-2.273-29.117-6.336-5.739-10.008-17.164-8.207-25.516 1.805-8.351 9.863-17.254 17.996-19.871-1.379-10.367 4.227-23.941 12.512-30.316 8.289-6.375 22.867-8.329 32.531-4.34 4.012-11.707 17.117-23.125 29.262-25.504C-24.591-96.34-8.13-90.711-.001-81.383c8.133-9.328 24.574-14.961 36.719-12.586 12.144 2.379 25.265 13.8 29.277 25.508 9.668-3.989 24.223-2.051 32.512 4.324 8.285 6.375 13.91 19.969 12.531 30.332 8.133 2.617 16.192 11.512 17.992 19.863 1.801 8.352-1.87 19.785-8.203 25.524 4.016 8.383 3.012 21.398-2.242 29.07-5.254 7.668-17.062 13.355-26.328 12.64-1.375 11.505-11.125 24.528-21.773 29.09-10.649 4.563-26.82 2.641-36.094-4.3Zm0 0" transform="matrix(1 0 0 -1 153.704 115.652)"/></g><g style="fill:#b2b2b2;fill-opacity:1"><use xlink:href="#b" x="138.247" y="143.944"/><use xlink:href="#c" x="146.526" y="143.944"/><use xlink:href="#d" x="149.704" y="143.944"/><use xlink:href="#e" x="155.433" y="143.944"/><use xlink:href="#f" x="161.799" y="143.944"/></g><path style="fill:none;stroke-width:.996;stroke-linecap:butt;stroke-linejoin:miter;stroke:#b2b2b2;stroke-opacity:1;stroke-miterlimit:10" d="M.001-.002v56.805" transform="matrix(1 0 0 -1 168.663 144.053)"/><path style="fill:none;stroke-width:.3985;stroke-linecap:butt;stroke-linejoin:miter;stroke:#000;stroke-opacity:1;stroke-miterlimit:10" d="m-1.407 103.613 2.816 2.82m-2.816 0 2.816-2.82" transform="matrix(1 0 0 -1 153.704 115.652)"/><g style="fill:#000;fill-opacity:1"><use xlink:href="#g" x="135.398" y="5.604"/><use xlink:href="#h" x="139.059" y="5.604"/><use xlink:href="#i" x="142.721" y="5.604"/><use xlink:href="#j" x="146.382" y="5.604"/><use xlink:href="#k" x="150.043" y="5.604"/><use xlink:href="#l" x="153.704" y="5.604"/><use xlink:href="#l" x="157.366" y="5.604"/></g><g style="fill:#000;fill-opacity:1"><use xlink:href="#m" x="164.688" y="5.604"/><use xlink:href="#n" x="168.349" y="5.604"/></g><path style="fill:none;stroke-width:.3985;stroke-linecap:butt;stroke-linejoin:miter;stroke:#000;stroke-opacity:1;stroke-miterlimit:10" d="m-74.669 87.496 2.817 2.816m-2.817 0 2.817-2.816" transform="matrix(1 0 0 -1 153.704 115.652)"/><g style="fill:#000;fill-opacity:1"><use xlink:href="#g" x="62.138" y="21.722"/><use xlink:href="#h" x="65.799" y="21.722"/><use xlink:href="#i" x="69.461" y="21.722"/><use xlink:href="#j" x="73.122" y="21.722"/><use xlink:href="#k" x="76.783" y="21.722"/><use xlink:href="#l" x="80.444" y="21.722"/><use xlink:href="#l" x="84.106" y="21.722"/></g><g style="fill:#000;fill-opacity:1"><use xlink:href="#o" x="91.428" y="21.722"/><use xlink:href="#n" x="95.089" y="21.722"/></g><path style="fill:none;stroke-width:.3985;stroke-linecap:butt;stroke-linejoin:miter;stroke:#000;stroke-opacity:1;stroke-miterlimit:10" d="m-125.81 43.297 2.817 2.816m-2.816 0 2.816-2.816" transform="matrix(1 0 0 -1 153.704 115.652)"/><g style="fill:#000;fill-opacity:1"><use xlink:href="#g" x="10.999" y="65.922"/><use xlink:href="#h" x="14.66" y="65.922"/><use xlink:href="#i" x="18.322" y="65.922"/><use xlink:href="#j" x="21.983" y="65.922"/><use xlink:href="#k" x="25.644" y="65.922"/><use xlink:href="#l" x="29.305" y="65.922"/><use xlink:href="#l" x="32.967" y="65.922"/></g><g style="fill:#000;fill-opacity:1"><use xlink:href="#p" x="40.289" y="65.922"/><use xlink:href="#n" x="43.95" y="65.922"/></g><path style="fill:none;stroke-width:.3985;stroke-linecap:butt;stroke-linejoin:miter;stroke:#000;stroke-opacity:1;stroke-miterlimit:10" d="m-137.372-16.836 2.82 2.816m-2.82 0 2.82-2.816" transform="matrix(1 0 0 -1 153.704 115.652)"/><g style="fill:#000;fill-opacity:1"><use xlink:href="#g" x="-.562" y="139.426"/><use xlink:href="#h" x="3.099" y="139.426"/><use xlink:href="#i" x="6.761" y="139.426"/><use xlink:href="#j" x="10.422" y="139.426"/><use xlink:href="#k" x="14.083" y="139.426"/><use xlink:href="#l" x="17.744" y="139.426"/><use xlink:href="#l" x="21.406" y="139.426"/></g><g style="fill:#000;fill-opacity:1"><use xlink:href="#q" x="28.721" y="139.426"/><use xlink:href="#n" x="32.382" y="139.426"/></g><path style="fill:none;stroke-width:.3985;stroke-linecap:butt;stroke-linejoin:miter;stroke:#000;stroke-opacity:1;stroke-miterlimit:10" d="m-104.259-71.145 2.82 2.817m-2.82 0 2.82-2.817" transform="matrix(1 0 0 -1 153.704 115.652)"/><g style="fill:#000;fill-opacity:1"><use xlink:href="#g" x="10.724" y="187.048"/><use xlink:href="#h" x="14.385" y="187.048"/><use xlink:href="#i" x="18.047" y="187.048"/><use xlink:href="#j" x="21.708" y="187.048"/><use xlink:href="#k" x="25.369" y="187.048"/><use xlink:href="#l" x="29.03" y="187.048"/><use xlink:href="#l" x="32.692" y="187.048"/></g><g style="fill:#000;fill-opacity:1"><use xlink:href="#r" x="40.014" y="187.048"/><use xlink:href="#n" x="43.675" y="187.048"/></g><path style="fill:none;stroke-width:.3985;stroke-linecap:butt;stroke-linejoin:miter;stroke:#000;stroke-opacity:1;stroke-miterlimit:10" d="m-39.509-102.328 2.82 2.82m-2.82 0 2.82-2.82" transform="matrix(1 0 0 -1 153.704 115.652)"/><g style="fill:#000;fill-opacity:1"><use xlink:href="#g" x="97.3" y="224.915"/><use xlink:href="#h" x="100.961" y="224.915"/><use xlink:href="#i" x="104.623" y="224.915"/><use xlink:href="#j" x="108.284" y="224.915"/><use xlink:href="#k" x="111.945" y="224.915"/><use xlink:href="#l" x="115.606" y="224.915"/><use xlink:href="#l" x="119.268" y="224.915"/></g><g style="fill:#000;fill-opacity:1"><use xlink:href="#s" x="126.59" y="224.915"/><use xlink:href="#n" x="130.251" y="224.915"/></g><path style="fill:none;stroke-width:.3985;stroke-linecap:butt;stroke-linejoin:miter;stroke:#000;stroke-opacity:1;stroke-miterlimit:10" d="m36.671-102.332 2.816 2.82m-2.816 0 2.816-2.82" transform="matrix(1 0 0 -1 153.704 115.652)"/><g style="fill:#000;fill-opacity:1"><use xlink:href="#g" x="173.476" y="224.919"/><use xlink:href="#h" x="177.137" y="224.919"/><use xlink:href="#i" x="180.799" y="224.919"/><use xlink:href="#j" x="184.46" y="224.919"/><use xlink:href="#k" x="188.121" y="224.919"/><use xlink:href="#l" x="191.782" y="224.919"/><use xlink:href="#l" x="195.444" y="224.919"/></g><g style="fill:#000;fill-opacity:1"><use xlink:href="#t" x="202.766" y="224.919"/><use xlink:href="#n" x="206.427" y="224.919"/></g><path style="fill:none;stroke-width:.3985;stroke-linecap:butt;stroke-linejoin:miter;stroke:#000;stroke-opacity:1;stroke-miterlimit:10" d="m101.417-71.16 2.82 2.816m-2.82 0 2.82-2.817" transform="matrix(1 0 0 -1 153.704 115.652)"/><g style="fill:#000;fill-opacity:1"><use xlink:href="#g" x="260.049" y="187.064"/><use xlink:href="#h" x="263.71" y="187.064"/><use xlink:href="#i" x="267.372" y="187.064"/><use xlink:href="#j" x="271.033" y="187.064"/><use xlink:href="#k" x="274.694" y="187.064"/><use xlink:href="#l" x="278.355" y="187.064"/><use xlink:href="#l" x="282.017" y="187.064"/></g><g style="fill:#000;fill-opacity:1"><use xlink:href="#u" x="289.339" y="187.064"/><use xlink:href="#n" x="293" y="187.064"/></g><path style="fill:none;stroke-width:.3985;stroke-linecap:butt;stroke-linejoin:miter;stroke:#000;stroke-opacity:1;stroke-miterlimit:10" d="m134.55-16.844 2.816 2.816m-2.816 0 2.816-2.816" transform="matrix(1 0 0 -1 153.704 115.652)"/><g style="fill:#000;fill-opacity:1"><use xlink:href="#g" x="271.354" y="139.433"/><use xlink:href="#h" x="275.015" y="139.433"/><use xlink:href="#i" x="278.677" y="139.433"/><use xlink:href="#j" x="282.338" y="139.433"/><use xlink:href="#k" x="285.999" y="139.433"/><use xlink:href="#l" x="289.66" y="139.433"/><use xlink:href="#l" x="293.322" y="139.433"/></g><g style="fill:#000;fill-opacity:1"><use xlink:href="#v" x="300.644" y="139.433"/><use xlink:href="#n" x="304.305" y="139.433"/></g><path style="fill:none;stroke-width:.3985;stroke-linecap:butt;stroke-linejoin:miter;stroke:#000;stroke-opacity:1;stroke-miterlimit:10" d="m123.023 43.246 2.816 2.816m-2.816 0 2.816-2.816" transform="matrix(1 0 0 -1 153.704 115.652)"/><g style="fill:#000;fill-opacity:1"><use xlink:href="#g" x="257.997" y="65.971"/><use xlink:href="#h" x="261.658" y="65.971"/><use xlink:href="#i" x="265.32" y="65.971"/><use xlink:href="#j" x="268.981" y="65.971"/><use xlink:href="#k" x="272.642" y="65.971"/><use xlink:href="#l" x="276.303" y="65.971"/><use xlink:href="#l" x="279.965" y="65.971"/></g><g style="fill:#000;fill-opacity:1"><use xlink:href="#m" x="287.287" y="65.971"/><use xlink:href="#w" x="290.948" y="65.971"/><use xlink:href="#n" x="294.61" y="65.971"/></g><path style="fill:none;stroke-width:.3985;stroke-linecap:butt;stroke-linejoin:miter;stroke:#000;stroke-opacity:1;stroke-miterlimit:10" d="m71.866 87.488 2.817 2.816m-2.817 0 2.817-2.816" transform="matrix(1 0 0 -1 153.704 115.652)"/><g style="fill:#000;fill-opacity:1"><use xlink:href="#g" x="206.841" y="21.73"/><use xlink:href="#h" x="210.502" y="21.73"/><use xlink:href="#i" x="214.164" y="21.73"/><use xlink:href="#j" x="217.825" y="21.73"/><use xlink:href="#k" x="221.486" y="21.73"/><use xlink:href="#l" x="225.147" y="21.73"/><use xlink:href="#l" x="228.809" y="21.73"/></g><g style="fill:#000;fill-opacity:1"><use xlink:href="#m" x="236.131" y="21.73"/><use xlink:href="#m" x="239.792" y="21.73"/><use xlink:href="#n" x="243.454" y="21.73"/></g><path style="fill:none;stroke-width:.3985;stroke-linecap:butt;stroke-linejoin:miter;stroke:#000;stroke-opacity:1;stroke-miterlimit:10" d="m31.784 89.8 2.817 2.817m-2.817 0 2.817-2.817" transform="matrix(1 0 0 -1 153.704 115.652)"/><g style="fill:#000;fill-opacity:1"><use xlink:href="#g" x="190.417" y="26.579"/><use xlink:href="#h" x="194.078" y="26.579"/><use xlink:href="#i" x="197.74" y="26.579"/><use xlink:href="#t" x="201.401" y="26.579"/><use xlink:href="#w" x="205.062" y="26.579"/><use xlink:href="#n" x="208.723" y="26.579"/></g><path style="fill:none;stroke-width:.3985;stroke-linecap:butt;stroke-linejoin:miter;stroke:#000;stroke-opacity:1;stroke-miterlimit:10" d="m-1.407-1.41 2.816 2.82m-2.816 0 2.816-2.82" transform="matrix(1 0 0 -1 153.704 115.652)"/><g style="fill:#000;fill-opacity:1"><use xlink:href="#g" x="135.398" y="111.574"/><use xlink:href="#h" x="139.059" y="111.574"/><use xlink:href="#i" x="142.721" y="111.574"/><use xlink:href="#x" x="146.382" y="111.574"/><use xlink:href="#y" x="150.043" y="111.574"/><use xlink:href="#z" x="153.704" y="111.574"/><use xlink:href="#A" x="157.366" y="111.574"/><use xlink:href="#y" x="161.027" y="111.574"/><use xlink:href="#B" x="164.688" y="111.574"/><use xlink:href="#n" x="168.349" y="111.574"/></g><path style="fill:none;stroke-width:.3985;stroke-linecap:butt;stroke-linejoin:miter;stroke:#000;stroke-opacity:1;stroke-miterlimit:10" d="m-1.407-29.7 2.816 2.817m-2.816 0L1.409-29.7" transform="matrix(1 0 0 -1 153.704 115.652)"/><g style="fill:#000;fill-opacity:1"><use xlink:href="#g" x="139.059" y="152.289"/><use xlink:href="#h" x="142.72" y="152.289"/><use xlink:href="#i" x="146.382" y="152.289"/><use xlink:href="#C" x="150.043" y="152.289"/><use xlink:href="#D" x="153.704" y="152.289"/><use xlink:href="#h" x="157.365" y="152.289"/><use xlink:href="#y" x="161.027" y="152.289"/><use xlink:href="#n" x="164.688" y="152.289"/></g><path style="fill:none;stroke-width:.3985;stroke-linecap:butt;stroke-linejoin:miter;stroke:#000;stroke-opacity:1;stroke-miterlimit:10" d="m-1.407-27.489 2.816 2.817m-2.816 0 2.816-2.817" transform="matrix(1 0 0 -1 153.704 115.652)"/><g style="fill:#000;fill-opacity:1"><use xlink:href="#g" x="157.224" y="143.866"/><use xlink:href="#h" x="160.885" y="143.866"/><use xlink:href="#i" x="164.547" y="143.866"/><use xlink:href="#E" x="168.208" y="143.866"/><use xlink:href="#F" x="171.869" y="143.866"/><use xlink:href="#G" x="175.53" y="143.866"/><use xlink:href="#n" x="179.192" y="143.866"/></g><path style="fill:none;stroke-width:.3985;stroke-linecap:butt;stroke-linejoin:miter;stroke:#000;stroke-opacity:1;stroke-miterlimit:10" d="m-16.868-29.7 2.82 2.817m-2.82 0 2.82-2.817" transform="matrix(1 0 0 -1 153.704 115.652)"/><g style="fill:#000;fill-opacity:1"><use xlink:href="#g" x="105.437" y="146.078"/><use xlink:href="#h" x="109.098" y="146.078"/><use xlink:href="#i" x="112.76" y="146.078"/><use xlink:href="#A" x="116.421" y="146.078"/><use xlink:href="#y" x="120.082" y="146.078"/><use xlink:href="#H" x="123.743" y="146.078"/><use xlink:href="#A" x="127.405" y="146.078"/><use xlink:href="#n" x="131.066" y="146.078"/></g><path style="fill:none;stroke-width:.3985;stroke-linecap:butt;stroke-linejoin:miter;stroke:#000;stroke-opacity:1;stroke-miterlimit:10" d="m-1.407 103.613 2.816 2.82m-2.816 0 2.816-2.82" transform="matrix(1 0 0 -1 153.704 115.652)"/><g style="fill:#000;fill-opacity:1"><use xlink:href="#g" x="137.229" y="18.976"/><use xlink:href="#h" x="140.89" y="18.976"/><use xlink:href="#i" x="144.552" y="18.976"/><use xlink:href="#z" x="148.213" y="18.976"/><use xlink:href="#I" x="151.874" y="18.976"/><use xlink:href="#B" x="155.535" y="18.976"/><use xlink:href="#A" x="159.197" y="18.976"/><use xlink:href="#J" x="162.858" y="18.976"/><use xlink:href="#n" x="166.519" y="18.976"/></g><path style="fill:none;stroke-width:.3985;stroke-linecap:butt;stroke-linejoin:miter;stroke:#000;stroke-opacity:1;stroke-miterlimit:10" d="m-1.407-92.63 2.816 2.817m-2.816 0 2.816-2.816" transform="matrix(1 0 0 -1 153.704 115.652)"/><g style="fill:#000;fill-opacity:1"><use xlink:href="#g" x="137.228" y="215.217"/><use xlink:href="#h" x="140.889" y="215.217"/><use xlink:href="#i" x="144.551" y="215.217"/><use xlink:href="#h" x="148.212" y="215.217"/><use xlink:href="#I" x="151.873" y="215.217"/><use xlink:href="#k" x="155.534" y="215.217"/><use xlink:href="#A" x="159.196" y="215.217"/><use xlink:href="#J" x="162.857" y="215.217"/><use xlink:href="#n" x="166.518" y="215.217"/></g><path style="fill:none;stroke-width:.3985;stroke-linecap:butt;stroke-linejoin:miter;stroke:#000;stroke-opacity:1;stroke-miterlimit:10" d="m134.284-1.41 2.817 2.82m-2.817 0 2.817-2.82" transform="matrix(1 0 0 -1 153.704 115.652)"/><g style="fill:#000;fill-opacity:1"><use xlink:href="#g" x="274.75" y="111.575"/><use xlink:href="#h" x="278.411" y="111.575"/><use xlink:href="#i" x="282.073" y="111.575"/><use xlink:href="#y" x="285.734" y="111.575"/><use xlink:href="#D" x="289.395" y="111.575"/><use xlink:href="#h" x="293.056" y="111.575"/><use xlink:href="#A" x="296.718" y="111.575"/><use xlink:href="#n" x="300.379" y="111.575"/></g><path style="fill:none;stroke-width:.3985;stroke-linecap:butt;stroke-linejoin:miter;stroke:#000;stroke-opacity:1;stroke-miterlimit:10" d="m-137.106-1.407 2.82 2.817m-2.82 0 2.82-2.817" transform="matrix(1 0 0 -1 153.704 115.652)"/><g style="fill:#000;fill-opacity:1"><use xlink:href="#g" x="3.365" y="111.573"/><use xlink:href="#h" x="7.026" y="111.573"/><use xlink:href="#i" x="10.688" y="111.573"/><use xlink:href="#K" x="14.349" y="111.573"/><use xlink:href="#y" x="18.01" y="111.573"/><use xlink:href="#h" x="21.671" y="111.573"/><use xlink:href="#A" x="25.333" y="111.573"/><use xlink:href="#n" x="28.994" y="111.573"/></g><path style="fill:none;stroke-width:.3985;stroke-linecap:butt;stroke-linejoin:miter;stroke:#000;stroke-opacity:1;stroke-miterlimit:10" d="m-95.278 69.113 2.816 2.816m-2.816 0 2.816-2.816" transform="matrix(1 0 0 -1 153.704 115.652)"/><g style="fill:#000;fill-opacity:1"><use xlink:href="#g" x="5.057" y="47.265"/><use xlink:href="#h" x="8.718" y="47.265"/><use xlink:href="#i" x="12.38" y="47.265"/><use xlink:href="#z" x="16.041" y="47.265"/><use xlink:href="#I" x="19.702" y="47.265"/><use xlink:href="#B" x="23.363" y="47.265"/><use xlink:href="#A" x="27.025" y="47.265"/><use xlink:href="#J" x="30.686" y="47.265"/></g><g style="fill:#000;fill-opacity:1"><use xlink:href="#K" x="38.008" y="47.265"/><use xlink:href="#y" x="41.67" y="47.265"/><use xlink:href="#h" x="45.331" y="47.265"/><use xlink:href="#A" x="48.992" y="47.265"/><use xlink:href="#n" x="52.654" y="47.265"/></g><path style="fill:none;stroke-width:.3985;stroke-linecap:butt;stroke-linejoin:miter;stroke:#000;stroke-opacity:1;stroke-miterlimit:10" d="m92.468 69.117 2.82 2.82m-2.82 0 2.82-2.82" transform="matrix(1 0 0 -1 153.704 115.652)"/><g style="fill:#000;fill-opacity:1"><use xlink:href="#g" x="251.101" y="47.26"/><use xlink:href="#h" x="254.762" y="47.26"/><use xlink:href="#i" x="258.424" y="47.26"/><use xlink:href="#z" x="262.085" y="47.26"/><use xlink:href="#I" x="265.746" y="47.26"/><use xlink:href="#B" x="269.407" y="47.26"/><use xlink:href="#A" x="273.069" y="47.26"/><use xlink:href="#J" x="276.73" y="47.26"/></g><g style="fill:#000;fill-opacity:1"><use xlink:href="#y" x="284.052" y="47.26"/><use xlink:href="#D" x="287.714" y="47.26"/><use xlink:href="#h" x="291.375" y="47.26"/><use xlink:href="#A" x="295.036" y="47.26"/><use xlink:href="#n" x="298.698" y="47.26"/></g><path style="fill:none;stroke-width:.3985;stroke-linecap:butt;stroke-linejoin:miter;stroke:#000;stroke-opacity:1;stroke-miterlimit:10" d="m-98.88-74.633 2.817 2.816m-2.817 0 2.817-2.816" transform="matrix(1 0 0 -1 153.704 115.652)"/><g style="fill:#000;fill-opacity:1"><use xlink:href="#g" x="30.606" y="197.223"/><use xlink:href="#h" x="34.267" y="197.223"/><use xlink:href="#i" x="37.929" y="197.223"/><use xlink:href="#h" x="41.59" y="197.223"/><use xlink:href="#I" x="45.251" y="197.223"/><use xlink:href="#k" x="48.912" y="197.223"/><use xlink:href="#A" x="52.574" y="197.223"/><use xlink:href="#J" x="56.235" y="197.223"/></g><g style="fill:#000;fill-opacity:1"><use xlink:href="#K" x="63.557" y="197.223"/><use xlink:href="#y" x="67.219" y="197.223"/><use xlink:href="#h" x="70.88" y="197.223"/><use xlink:href="#A" x="74.541" y="197.223"/><use xlink:href="#n" x="78.203" y="197.223"/></g><path style="fill:none;stroke-width:.3985;stroke-linecap:butt;stroke-linejoin:miter;stroke:#000;stroke-opacity:1;stroke-miterlimit:10" d="m96.062-74.637 2.82 2.816m-2.82 0 2.82-2.816" transform="matrix(1 0 0 -1 153.704 115.652)"/><g style="fill:#000;fill-opacity:1"><use xlink:href="#g" x="225.546" y="197.225"/><use xlink:href="#h" x="229.207" y="197.225"/><use xlink:href="#i" x="232.869" y="197.225"/><use xlink:href="#h" x="236.53" y="197.225"/><use xlink:href="#I" x="240.191" y="197.225"/><use xlink:href="#k" x="243.852" y="197.225"/><use xlink:href="#A" x="247.514" y="197.225"/><use xlink:href="#J" x="251.175" y="197.225"/></g><g style="fill:#000;fill-opacity:1"><use xlink:href="#y" x="258.497" y="197.225"/><use xlink:href="#D" x="262.159" y="197.225"/><use xlink:href="#h" x="265.82" y="197.225"/><use xlink:href="#A" x="269.481" y="197.225"/><use xlink:href="#n" x="273.143" y="197.225"/></g></svg>