<svg xmlns="http://www.w3.org/2000/svg" width="75.363" height="86.595" viewBox="0 0 56.522 64.946" version="1.2"><defs><clipPath id="a"><path d="M1 1h54v63H1Zm0 0"/></clipPath><clipPath id="b"><path d="M1.121 47.98h1.992l.996 1.723.996-1.723h1.997l.996 1.723-.996 1.727h1.992l.996 1.726.996-1.726h1.992l-.996-1.727.996-1.723h1.992l.996 1.723.997-1.723h1.992l.996 1.723-.996 1.727h1.992l.996 1.726-.996 1.727h-1.992l.996 1.722-.996 1.727h1.992l.996 1.727.996-1.727h1.992l.996 1.727-.996 1.726h1.992l.997 1.723 1-1.723h1.992l-.996-1.726.996-1.727h1.992L34 60.059l.996-1.727h1.992l-.996-1.727.996-1.722h-1.992L34 53.156l.996-1.726h1.992l-.996-1.727.996-1.723h1.992l.997 1.723.996-1.723h1.992l.996 1.723-.996 1.727h1.992l.996 1.726.996-1.726h1.992l-.996-1.727.996-1.723h1.996l.997 1.723.996-1.723h1.992l-.996-1.726.996-1.727H52.93l-.996-1.726.996-1.723h1.992l-.996-1.726.996-1.727H52.93l-.996-1.727-.996 1.727H48.94l-.996-1.727.996-1.722H46.95l-.996-1.727.996-1.726h1.992l-.996-1.727.996-1.723h1.996l.997 1.723.996-1.723h1.992l-.996-1.726.996-1.727H52.93l-.996-1.726.996-1.723h1.992l-.996-1.726.996-1.727H52.93l-.996-1.727-.996 1.727H48.94l-.996-1.727.996-1.722H46.95l-.996-1.727-.996 1.727h-1.992l.996 1.722-.996 1.727h-1.992l-.996-1.727-.997 1.727h-1.992l-.996-1.727.996-1.722h-1.992L34 11.742l.996-1.726h1.992l-.996-1.727.996-1.726h-1.992L34 4.84l-.996 1.723h-1.992l-.996-1.723.996-1.727H29.02l-1-1.726-.997 1.726h-1.992l.996 1.727-.996 1.723H23.04l-.996-1.723-.996 1.723h-1.992l.996 1.726-.996 1.727h1.992l.996 1.726-.996 1.727h-1.992l.996 1.722-.996 1.727h-1.992l-.997-1.727-.996 1.727h-1.992l-.996-1.727.996-1.722h-1.992l-.996-1.727-.996 1.727H7.102l.996 1.722-.996 1.727H5.105l-.996-1.727-.996 1.727H1.121l.996 1.727-.996 1.726h1.992l.996 1.723-.996 1.726H1.121l.996 1.727-.996 1.726h1.992l.996 1.723.996-1.723h1.997l.996 1.723-.996 1.727h1.992l.996 1.726-.996 1.727H7.102l.996 1.722-.996 1.727H5.105l-.996-1.727-.996 1.727H1.121l.996 1.727-.996 1.726h1.992l.996 1.723-.996 1.726H1.121l.996 1.727Zm0 0"/></clipPath><clipPath id="d"><path d="M0 0h56.281v64.918H0Zm0 0"/></clipPath><linearGradient id="c" gradientUnits="userSpaceOnUse" x1="0" y1="25.003" x2="0" y2="74.997" gradientTransform="matrix(1.07611 0 0 -1.24258 -25.784 94.578)"><stop offset="0" style="stop-color:#8080ff;stop-opacity:1"/><stop offset=".008" style="stop-color:#8080ff;stop-opacity:1"/><stop offset=".016" style="stop-color:#8181ff;stop-opacity:1"/><stop offset=".023" style="stop-color:#8282ff;stop-opacity:1"/><stop offset=".031" style="stop-color:#8383ff;stop-opacity:1"/><stop offset=".039" style="stop-color:#8484ff;stop-opacity:1"/><stop offset=".047" style="stop-color:#8585ff;stop-opacity:1"/><stop offset=".055" style="stop-color:#8686ff;stop-opacity:1"/><stop offset=".063" style="stop-color:#8787ff;stop-opacity:1"/><stop offset=".07" style="stop-color:#88f;stop-opacity:1"/><stop offset=".078" style="stop-color:#8989ff;stop-opacity:1"/><stop offset=".086" style="stop-color:#8a8aff;stop-opacity:1"/><stop offset=".094" style="stop-color:#8b8bff;stop-opacity:1"/><stop offset=".102" style="stop-color:#8c8cff;stop-opacity:1"/><stop offset=".109" style="stop-color:#8d8dff;stop-opacity:1"/><stop offset=".117" style="stop-color:#8e8eff;stop-opacity:1"/><stop offset=".125" style="stop-color:#8f8fff;stop-opacity:1"/><stop offset=".133" style="stop-color:#9090ff;stop-opacity:1"/><stop offset=".141" style="stop-color:#9191ff;stop-opacity:1"/><stop offset=".148" style="stop-color:#9292ff;stop-opacity:1"/><stop offset=".156" style="stop-color:#9393ff;stop-opacity:1"/><stop offset=".164" style="stop-color:#9494ff;stop-opacity:1"/><stop offset=".172" style="stop-color:#9595ff;stop-opacity:1"/><stop offset=".18" style="stop-color:#9696ff;stop-opacity:1"/><stop offset=".188" style="stop-color:#9797ff;stop-opacity:1"/><stop offset=".195" style="stop-color:#9898ff;stop-opacity:1"/><stop offset=".203" style="stop-color:#99f;stop-opacity:1"/><stop offset=".211" style="stop-color:#9a9aff;stop-opacity:1"/><stop offset=".219" style="stop-color:#9b9bff;stop-opacity:1"/><stop offset=".227" style="stop-color:#9c9cff;stop-opacity:1"/><stop offset=".234" style="stop-color:#9d9dff;stop-opacity:1"/><stop offset=".242" style="stop-color:#9e9eff;stop-opacity:1"/><stop offset=".25" style="stop-color:#9f9fff;stop-opacity:1"/><stop offset=".258" style="stop-color:#a0a0ff;stop-opacity:1"/><stop offset=".266" style="stop-color:#a1a1ff;stop-opacity:1"/><stop offset=".273" style="stop-color:#a2a2ff;stop-opacity:1"/><stop offset=".281" style="stop-color:#a3a3ff;stop-opacity:1"/><stop offset=".289" style="stop-color:#a4a4ff;stop-opacity:1"/><stop offset=".297" style="stop-color:#a5a5ff;stop-opacity:1"/><stop offset=".305" style="stop-color:#a6a6ff;stop-opacity:1"/><stop offset=".313" style="stop-color:#a7a7ff;stop-opacity:1"/><stop offset=".32" style="stop-color:#a8a8ff;stop-opacity:1"/><stop offset=".328" style="stop-color:#a9a9ff;stop-opacity:1"/><stop offset=".336" style="stop-color:#aaf;stop-opacity:1"/><stop offset=".344" style="stop-color:#ababff;stop-opacity:1"/><stop offset=".352" style="stop-color:#acacff;stop-opacity:1"/><stop offset=".359" style="stop-color:#adadff;stop-opacity:1"/><stop offset=".367" style="stop-color:#aeaeff;stop-opacity:1"/><stop offset=".375" style="stop-color:#afafff;stop-opacity:1"/><stop offset=".383" style="stop-color:#b0b0ff;stop-opacity:1"/><stop offset=".391" style="stop-color:#b1b1ff;stop-opacity:1"/><stop offset=".398" style="stop-color:#b2b2ff;stop-opacity:1"/><stop offset=".406" style="stop-color:#b3b3ff;stop-opacity:1"/><stop offset=".414" style="stop-color:#b4b4ff;stop-opacity:1"/><stop offset=".422" style="stop-color:#b5b5ff;stop-opacity:1"/><stop offset=".43" style="stop-color:#b6b6ff;stop-opacity:1"/><stop offset=".438" style="stop-color:#b7b7ff;stop-opacity:1"/><stop offset=".445" style="stop-color:#b8b8ff;stop-opacity:1"/><stop offset=".453" style="stop-color:#b9b9ff;stop-opacity:1"/><stop offset=".461" style="stop-color:#babaff;stop-opacity:1"/><stop offset=".469" style="stop-color:#bbf;stop-opacity:1"/><stop offset=".477" style="stop-color:#bcbcff;stop-opacity:1"/><stop offset=".484" style="stop-color:#bdbdff;stop-opacity:1"/><stop offset=".492" style="stop-color:#bebeff;stop-opacity:1"/><stop offset=".5" style="stop-color:#bfbfff;stop-opacity:1"/><stop offset=".508" style="stop-color:#c0c0ff;stop-opacity:1"/><stop offset=".516" style="stop-color:#c1c1ff;stop-opacity:1"/><stop offset=".523" style="stop-color:#c2c2ff;stop-opacity:1"/><stop offset=".531" style="stop-color:#c3c3ff;stop-opacity:1"/><stop offset=".539" style="stop-color:#c4c4ff;stop-opacity:1"/><stop offset=".547" style="stop-color:#c5c5ff;stop-opacity:1"/><stop offset=".555" style="stop-color:#c6c6ff;stop-opacity:1"/><stop offset=".563" style="stop-color:#c7c7ff;stop-opacity:1"/><stop offset=".57" style="stop-color:#c8c8ff;stop-opacity:1"/><stop offset=".578" style="stop-color:#c9c9ff;stop-opacity:1"/><stop offset=".586" style="stop-color:#cacaff;stop-opacity:1"/><stop offset=".594" style="stop-color:#cbcbff;stop-opacity:1"/><stop offset=".602" style="stop-color:#ccf;stop-opacity:1"/><stop offset=".609" style="stop-color:#cdcdff;stop-opacity:1"/><stop offset=".617" style="stop-color:#ceceff;stop-opacity:1"/><stop offset=".625" style="stop-color:#cfcfff;stop-opacity:1"/><stop offset=".633" style="stop-color:#d0d0ff;stop-opacity:1"/><stop offset=".641" style="stop-color:#d1d1ff;stop-opacity:1"/><stop offset=".648" style="stop-color:#d2d2ff;stop-opacity:1"/><stop offset=".656" style="stop-color:#d3d3ff;stop-opacity:1"/><stop offset=".664" style="stop-color:#d4d4ff;stop-opacity:1"/><stop offset=".672" style="stop-color:#d5d5ff;stop-opacity:1"/><stop offset=".68" style="stop-color:#d6d6ff;stop-opacity:1"/><stop offset=".688" style="stop-color:#d7d7ff;stop-opacity:1"/><stop offset=".695" style="stop-color:#d8d8ff;stop-opacity:1"/><stop offset=".703" style="stop-color:#d9d9ff;stop-opacity:1"/><stop offset=".711" style="stop-color:#dadaff;stop-opacity:1"/><stop offset=".719" style="stop-color:#dbdbff;stop-opacity:1"/><stop offset=".727" style="stop-color:#dcdcff;stop-opacity:1"/><stop offset=".734" style="stop-color:#ddf;stop-opacity:1"/><stop offset=".742" style="stop-color:#dedeff;stop-opacity:1"/><stop offset=".75" style="stop-color:#dfdfff;stop-opacity:1"/><stop offset=".758" style="stop-color:#e0e0ff;stop-opacity:1"/><stop offset=".766" style="stop-color:#e1e1ff;stop-opacity:1"/><stop offset=".773" style="stop-color:#e2e2ff;stop-opacity:1"/><stop offset=".781" style="stop-color:#e3e3ff;stop-opacity:1"/><stop offset=".789" style="stop-color:#e4e4ff;stop-opacity:1"/><stop offset=".797" style="stop-color:#e5e5ff;stop-opacity:1"/><stop offset=".805" style="stop-color:#e6e6ff;stop-opacity:1"/><stop offset=".813" style="stop-color:#e7e7ff;stop-opacity:1"/><stop offset=".82" style="stop-color:#e8e8ff;stop-opacity:1"/><stop offset=".828" style="stop-color:#e9e9ff;stop-opacity:1"/><stop offset=".836" style="stop-color:#eaeaff;stop-opacity:1"/><stop offset=".844" style="stop-color:#ebebff;stop-opacity:1"/><stop offset=".852" style="stop-color:#ececff;stop-opacity:1"/><stop offset=".859" style="stop-color:#ededff;stop-opacity:1"/><stop offset=".867" style="stop-color:#eef;stop-opacity:1"/><stop offset=".875" style="stop-color:#efefff;stop-opacity:1"/><stop offset=".883" style="stop-color:#f0f0ff;stop-opacity:1"/><stop offset=".891" style="stop-color:#f1f1ff;stop-opacity:1"/><stop offset=".898" style="stop-color:#f2f2ff;stop-opacity:1"/><stop offset=".906" style="stop-color:#f3f3ff;stop-opacity:1"/><stop offset=".914" style="stop-color:#f4f4ff;stop-opacity:1"/><stop offset=".922" style="stop-color:#f5f5ff;stop-opacity:1"/><stop offset=".93" style="stop-color:#f6f6ff;stop-opacity:1"/><stop offset=".938" style="stop-color:#f7f7ff;stop-opacity:1"/><stop offset=".945" style="stop-color:#f8f8ff;stop-opacity:1"/><stop offset=".953" style="stop-color:#f9f9ff;stop-opacity:1"/><stop offset=".961" style="stop-color:#fafaff;stop-opacity:1"/><stop offset=".969" style="stop-color:#fbfbff;stop-opacity:1"/><stop offset=".977" style="stop-color:#fcfcff;stop-opacity:1"/><stop offset=".984" style="stop-color:#fcfcff;stop-opacity:1"/><stop offset=".992" style="stop-color:#fdfdff;stop-opacity:1"/><stop offset="1" style="stop-color:#fefeff;stop-opacity:1"/></linearGradient></defs><g clip-path="url(#a)"><g clip-path="url(#b)"><path style="stroke:none;fill-rule:nonzero;fill:url(#c)" d="M1.121 63.508V1.387h53.8v62.12Zm0 0"/></g></g><g clip-path="url(#d)"><path style="fill:none;stroke-width:.3985;stroke-linecap:butt;stroke-linejoin:miter;stroke:navy;stroke-opacity:1;stroke-miterlimit:10" d="M0-.001H1.99l.996-1.723.996 1.723H5.98l.996-1.723-.996-1.727h1.992l.996-1.726.996 1.726h1.992l-.996 1.727.996 1.723h1.992l.996-1.723.996 1.723h1.993l.996-1.723-.996-1.727h1.992l.996-1.726-.996-1.727h-1.992l.996-1.722-.996-1.727h1.992l.996-1.727.996 1.727h1.992l.996-1.727-.996-1.726h1.992l.997-1.723 1 1.723h1.992l-.996 1.726.996 1.727h1.992l.996-1.727.996 1.727h1.992l-.996 1.727.996 1.722h-1.992l-.996 1.727.996 1.726h1.992l-.996 1.727.996 1.723h1.992l.997-1.723.996 1.723h1.992l.996-1.723-.996-1.727h1.992l.996-1.726.996 1.726h1.992l-.996 1.727.996 1.723h1.996l.997-1.723.996 1.723H53.8l-.996 1.726.996 1.727h-1.992l-.996 1.726.996 1.723H53.8l-.996 1.726.996 1.727h-1.992l-.996 1.727-.996-1.727h-1.997l-.996 1.727.996 1.722h-1.992l-.996 1.727.996 1.726h1.992l-.996 1.727.996 1.723h1.996l.997-1.723.996 1.723H53.8l-.996 1.726.996 1.727h-1.992l-.996 1.726.996 1.723H53.8l-.996 1.726.996 1.727h-1.992l-.996 1.727-.996-1.727h-1.997l-.996 1.727.996 1.722h-1.992l-.996 1.727-.996-1.727h-1.992l.996-1.722-.996-1.727H39.85l-.996 1.727-.997-1.727h-1.992l-.996 1.727.996 1.722h-1.992l-.996 1.727.996 1.726h1.992l-.996 1.727.996 1.727h-1.992l-.996 1.722-.996-1.723H29.89l-.996 1.723.996 1.727h-1.992l-1 1.726-.997-1.726H23.91l.996-1.727-.996-1.723h-1.992l-.996 1.723-.996-1.723h-1.992l.996-1.726-.996-1.727h1.992l.996-1.726-.996-1.727h-1.992l.996-1.722-.996-1.727H15.94l-.997 1.727-.996-1.727h-1.992l-.996 1.727.996 1.722H9.964l-.996 1.727-.996-1.727H5.98l.996-1.722-.996-1.727H3.983l-.996 1.727-.996-1.727H0l.996-1.727L0 27.608h1.992l.996-1.723-.996-1.726H0l.996-1.727L0 20.706h1.992l.996-1.723.996 1.723H5.98l.996-1.723-.996-1.727h1.992l.996-1.726-.996-1.727H5.98l.996-1.722-.996-1.727H3.983l-.996 1.727-.996-1.727H0l.996-1.727L0 6.901h1.992l.996-1.723-.996-1.726H0l.996-1.727Zm0 0" transform="matrix(1 0 0 -1 1.122 47.979)"/></g></svg>