<svg xmlns="http://www.w3.org/2000/svg" xmlns:xlink="http://www.w3.org/1999/xlink" width="193.827" height="608.259" viewBox="0 0 145.37 456.194" version="1.2"><defs><symbol overflow="visible" id="a"><path style="stroke:none" d="M7.61 0v-.438h-.86L4.39-6.03c-.093-.25-.234-.25-.39-.25s-.297 0-.39.25L1.343-.641C1.28-.5 1.28-.5 1.047-.469a5.055 5.055 0 0 1-.469.031H.391V0C.89-.016 1-.031 1.484-.031c.344 0 .625 0 1.188.031v-.438c-.235 0-.547 0-.797-.093l.5-1.188h2.484l.532 1.282h-.844V0c.312-.031 1.219-.031 1.594-.031s1.14 0 1.468.031ZM4.655-2.156H2.563l1.046-2.516Zm0 0"/></symbol><symbol overflow="visible" id="b"><path style="stroke:none" d="M5.531-1.984c0-1.188-.812-2.047-2.172-2.047-.718 0-1.218.297-1.39.422v-.422L.375-3.97v.438c.172 0 .313 0 .438.031.171.031.171.125.171.313v4.484H.375v.437L1.5 1.72l1.14.015v-.437h-.609v-1.64c.531.39 1.016.39 1.188.39 1.406 0 2.312-.844 2.312-2.031ZM4.344-2c0 1.25-.64 1.688-1.235 1.688-.453 0-.843-.25-1.078-.625v-2.157a1.548 1.548 0 0 1 1.188-.562c.625 0 1.125.562 1.125 1.656Zm0 0"/></symbol><symbol overflow="visible" id="c"><path style="stroke:none" d="M4.078-3.281c0-.453-.469-.75-1-.75-.625 0-1 .453-1.203.968h-.016v-.968L.375-3.97v.438c.531 0 .61 0 .61.36v2.733h-.61V0l1.14-.031c.22 0 .75 0 1.22.031v-.438h-.766v-1.515c0-.656.25-1.703 1.11-1.719a.571.571 0 0 0-.142.39c0 .391.313.579.563.579.297 0 .578-.203.578-.578Zm0 0"/></symbol><symbol overflow="visible" id="d"><path style="stroke:none" d="M2.625 0v-.438h-.547V-4.03L.5-3.97v.438c.516 0 .578 0 .578.36v2.733h-.61V0c.595-.016.72-.031 1.095-.031.437 0 .546.015 1.062.031Zm-.453-5.422a.713.713 0 0 0-.703-.719.71.71 0 0 0-.703.704.7.7 0 0 0 .703.703.697.697 0 0 0 .703-.688Zm0 0"/></symbol><symbol overflow="visible" id="e"><path style="stroke:none" d="M2.688 0v-.438h-.61v-5.78l-1.61.062v.437c.532 0 .61 0 .61.36v4.921h-.61V0l1.095-.031Zm0 0"/></symbol><symbol overflow="visible" id="f"><path style="stroke:none" d="M4.766-2.016h-.454c-.015.125-.093.766-.234.829-.11.046-.781.046-.937.046H1.859c.485-.39 1.016-.812 1.47-1.125.75-.53 1.437-1.015 1.437-1.89 0-1.047-.954-1.735-2.25-1.735-1.11 0-1.985.532-1.985 1.36 0 .468.36.687.672.687a.65.65 0 0 0 .656-.672c0-.203-.078-.53-.468-.64.312-.25.718-.282.89-.282.735 0 1.203.547 1.203 1.282 0 .656-.375 1.234-.859 1.718l-2 1.985c-.094.094-.094.11-.094.281V0H4.5Zm0 0"/></symbol><symbol overflow="visible" id="g"><path style="stroke:none" d="M4.89-2.86c0-.921-.03-3.03-2.234-3.03C.47-5.89.406-3.845.406-2.86c0 .938.031 2.97 2.235 2.97 2.187 0 2.25-1.97 2.25-2.97Zm-1.202-.109c0 .703 0 1.766-.141 2.11a.963.963 0 0 1-.89.609c-.25 0-.86-.11-.985-.938-.063-.468-.063-1.28-.063-1.78 0-.563 0-1.313.063-1.735.14-.719.734-.828.969-.828.296 0 .859.156.984.843.063.438.063 1.204.063 1.72Zm0 0"/></symbol><symbol overflow="visible" id="h"><path style="stroke:none" d="M4.86-2.953c0-.469-.032-1.39-.485-2.094-.297-.437-.828-.844-1.719-.844-1.281 0-2.219.72-2.219 1.938 0 1.125.766 1.937 2.094 1.937.406 0 .781-.203 1.063-.687v.172c0 .578-.063 1.156-.235 1.531-.109.234-.468.703-1.171.703-.079 0-.454 0-.735-.187a.553.553 0 0 0 .422-.563c0-.375-.281-.578-.578-.578-.25 0-.594.14-.594.594 0 .61.469 1.14 1.5 1.14 1.25 0 2.656-.796 2.656-3.062Zm-1.266-.89c0 .405-.172 1.452-1.031 1.452-.86 0-.86-.656-.86-1.53 0-.876 0-1.61.984-1.61.563 0 .766.515.797.593.11.297.11.782.11 1.094Zm0 0"/></symbol><symbol overflow="visible" id="s"><path style="stroke:none" d="M9.656 0v-.438h-.969v-5.28h.97v-.438h-2c-.188 0-.313 0-.423.234l-2.203 4.75-2.203-4.75c-.11-.234-.234-.234-.422-.234h-2v.437h.969v5.016c0 .203-.016.203-.266.234-.218.031-.234.031-.468.031H.406V0c.578-.031.828-.031 1.219-.031.39 0 .64 0 1.234.031v-.438h-.234c-.25 0-.266 0-.484-.03C1.89-.5 1.89-.5 1.89-.704v-4.89L4.375-.235c.031.078.11.234.313.234S4.952-.14 5-.234l2.531-5.47h.016v5.266h-.969V0C6.891-.031 7.75-.031 8.11-.031c.36 0 1.235 0 1.547.031Zm0 0"/></symbol><symbol overflow="visible" id="t"><path style="stroke:none" d="M5.11-.219c0-.218-.157-.218-.235-.218-.578-.016-.578-.094-.578-.313v-1.922c0-.797-.64-1.39-2.031-1.39-.5 0-1.657.015-1.657.843 0 .406.313.594.579.594.312 0 .593-.219.593-.578 0-.266-.156-.422-.187-.453.093-.016.312-.047.64-.047.641 0 1.016.328 1.016 1.031v.281C1.766-2.39.25-2 .25-1 .25-.11 1.375.047 2.016.047c.687 0 1.156-.281 1.39-.703 0 .219 0 .656.969.656h.438c.171 0 .296 0 .296-.219ZM3.25-1.25c0 .938-1.047.938-1.078.938-.453 0-.828-.282-.828-.688 0-.297.156-1 1.906-1.078Zm0 0"/></symbol><symbol overflow="visible" id="u"><path style="stroke:none" d="M5.344-3.547v-.437c-.25.03-.469.03-.719.03-.281 0-.547-.015-.813-.03v.437s.391 0 .391.11c0 0 0 .015-.047.109L3.094-1.141 1.922-3.547h.469v-.437l-1.11.03c-.328 0-.5 0-1.031-.03v.437h.563L2.53 0c-.312.734-.64 1.438-1.344 1.438-.046 0-.109 0-.171-.032.156-.078.265-.234.265-.468 0-.344-.25-.532-.531-.532-.297 0-.547.188-.547.531 0 .485.453.86.984.86.704 0 1.25-.516 1.532-1.11l1.969-4.03c.062-.141.093-.204.656-.204Zm0 0"/></symbol><symbol overflow="visible" id="i"><path style="stroke:none" d="M4.922 0v-.469h-1.39v-5.734c0-.234 0-.328-.266-.328-.11 0-.125 0-.22.078-.765.562-1.796.562-2 .562H.845v.47h.203c.156 0 .703-.016 1.297-.204v5.156H.954V0c.437-.031 1.5-.031 1.984-.031s1.546 0 1.984.031Zm0 0"/></symbol><symbol overflow="visible" id="j"><path style="stroke:none" d="M5.156-2.219h-.468c-.032.203-.125.844-.266.906-.11.063-.86.063-1.016.063H1.937c.47-.39 1-.813 1.438-1.14 1.14-.844 1.781-1.313 1.781-2.25 0-1.157-1.047-1.891-2.437-1.891-1.219 0-2.156.625-2.156 1.515 0 .594.484.735.718.735C1.61-4.281 2-4.5 2-5c0-.516-.422-.672-.563-.719.282-.234.672-.343 1.032-.343.844 0 1.312.671 1.312 1.421 0 .688-.375 1.375-1.078 2.079l-2 2.046c-.14.11-.14.141-.14.344V0h4.28Zm0 0"/></symbol><symbol overflow="visible" id="k"><path style="stroke:none" d="M5.25-1.797c0-.547-.297-1.406-1.734-1.719.687-.203 1.406-.765 1.406-1.625 0-.765-.75-1.39-2.156-1.39-1.188 0-1.97.64-1.97 1.437 0 .422.313.703.688.703a.668.668 0 0 0 .704-.687c0-.578-.547-.688-.579-.703.344-.282.782-.36 1.094-.36.828 0 .86.641.86.97 0 .124-.016 1.437-1.047 1.5-.407.015-.438.015-.485.03-.094.016-.125.11-.125.172 0 .172.11.172.282.172h.437c1.094 0 1.094.985 1.094 1.5 0 .469 0 1.484-1.031 1.484-.266 0-.782-.046-1.266-.343C1.75-.75 2-1 2-1.406c0-.453-.313-.75-.75-.75-.422 0-.766.265-.766.765 0 .907.97 1.5 2.25 1.5 1.782 0 2.516-1 2.516-1.906Zm0 0"/></symbol><symbol overflow="visible" id="l"><path style="stroke:none" d="M5.406 0v-.469h-.968v-1.094h.968v-.468h-.968V-6.22c0-.265-.016-.328-.297-.328-.22 0-.22.016-.344.172L.312-2.031v.469h2.876V-.47h-1.11V0c.375-.031 1.281-.031 1.703-.031.406 0 1.266 0 1.625.031Zm-2.11-2.031H.845L3.297-5.11Zm0 0"/></symbol><symbol overflow="visible" id="m"><path style="stroke:none" d="M5.156-2c0-1.156-.797-2.078-2.265-2.078-.282 0-.813.031-1.282.344v-1.313c.282.047.391.078.72.078 1.452 0 2.374-1.125 2.374-1.375 0-.078-.016-.187-.14-.187-.032 0-.032 0-.141.047a4.32 4.32 0 0 1-1.531.28c-.75 0-1.282-.202-1.547-.28-.094-.032-.094-.047-.125-.047-.14 0-.14.11-.14.265v2.922c0 .172 0 .297.218.297.125 0 .156-.031.219-.11.39-.468.921-.562 1.328-.562.89 0 .89.875.89 1.672 0 .735 0 1.735-1.187 1.735-.25 0-.875-.063-1.297-.625.36-.016.656-.266.656-.672 0-.532-.437-.672-.672-.672-.14 0-.671.094-.671.703 0 .844.78 1.687 2.015 1.687C4.172.11 5.156-.78 5.156-2Zm0 0"/></symbol><symbol overflow="visible" id="n"><path style="stroke:none" d="M5.25-2.047c0-1.39-1.016-2.125-2.219-2.125-.219 0-.781 0-1.203.766v-.188c0-1.14.219-1.562.281-1.719.25-.468.782-.828 1.391-.828.172 0 .516.032.75.266a.595.595 0 0 0-.547.61c0 .343.235.624.625.624s.625-.265.625-.64c0-.625-.422-1.25-1.469-1.25-1.359 0-3 .86-3 3.375 0 .781.079 1.578.5 2.265.47.766 1.22 1 1.922 1C4.281.11 5.25-.703 5.25-2.047Zm-1.36-.015c0 1 0 1.75-1.015 1.75-.516 0-.781-.391-.86-.563-.156-.313-.156-1.031-.156-1.219 0-1.25.532-1.719 1.079-1.719.953 0 .953.75.953 1.75Zm0 0"/></symbol><symbol overflow="visible" id="o"><path style="stroke:none" d="M5.563-6.422H3.53c-.234 0-1.703-.047-1.844-.094-.203-.03-.218-.125-.234-.218H.984l-.343 2.53h.468c.094-.765.22-.89.266-.905.11-.063.922-.063 1.094-.063H4.14c-.172.219-.36.422-.547.64-.953 1.126-1.672 2.47-1.672 3.938 0 .703.562.703.625.703.156 0 .625-.046.625-.703v-.469c0-.468.031-.953.094-1.421.093-.672.296-1.25.656-1.657l1.547-1.796c.093-.11.093-.141.093-.485Zm0 0"/></symbol><symbol overflow="visible" id="p"><path style="stroke:none" d="M5.25-1.86c0-1.077-.844-1.546-1.328-1.827.687-.36 1-.797 1-1.376 0-1.015-.906-1.468-2.047-1.468-1.375 0-2.078.797-2.078 1.75 0 .437.187 1.062.953 1.5C.922-2.906.484-2.344.484-1.61.484-.406 1.563.109 2.844.109 4.438.11 5.25-.766 5.25-1.859ZM4.172-5.046c0 .484-.25.813-.688 1.11l-1.5-.844c-.156-.078-.437-.25-.437-.594 0-.703.89-.766 1.297-.766.828 0 1.328.407 1.328 1.094Zm.219 3.734c0 .829-.938 1-1.516 1-.969 0-1.547-.515-1.547-1.296 0-.766.531-1.204.89-1.407l1.36.766c.438.25.813.453.813.938Zm0 0"/></symbol><symbol overflow="visible" id="q"><path style="stroke:none" d="M5.25-3.281c0-.672 0-3.25-2.375-3.25-1.406 0-2.39.812-2.39 2.14 0 1.375.984 2.125 2.203 2.125.359 0 .828-.062 1.203-.765v.219c0 .734-.094 1.312-.235 1.656-.172.39-.61.843-1.297.843-.171 0-.53-.03-.828-.218.11-.031.485-.172.485-.625 0-.344-.235-.625-.625-.625-.391 0-.625.265-.625.64 0 .688.515 1.25 1.609 1.25C3.672.11 5.25-.734 5.25-3.28Zm-1.375-.985c0 .625-.25 1.641-1.094 1.641-.953 0-.953-.75-.953-1.734 0-.985 0-1.782 1.078-1.782.578 0 .813.532.86.625.109.329.109.907.109 1.25Zm0 0"/></symbol><symbol overflow="visible" id="r"><path style="stroke:none" d="M5.281-3.188c0-.953-.015-3.343-2.422-3.343C.453-6.531.453-4.156.453-3.188c0 1 0 3.297 2.406 3.297 2.391 0 2.422-2.296 2.422-3.296ZM4-3.296c0 .563 0 1.469-.078 1.985-.14.921-.766 1.062-1.063 1.062-.359 0-.921-.219-1.046-.953-.094-.516-.094-1.547-.094-2.094 0-.719 0-1.375.078-1.89.125-.891.828-.985 1.062-.985.375 0 .782.188.97.625C4-5.172 4-4.109 4-3.297Zm0 0"/></symbol><symbol overflow="visible" id="v"><path style="stroke:none" d="M7.64-2.266c0-.203-.077-.203-.25-.203-.124 0-.218 0-.218.172C7.094-.969 5.89-.359 4.89-.359c-.782 0-1.625-.235-2.141-.844-.469-.578-.594-1.313-.594-2.219 0-.562.031-1.625.672-2.297.64-.656 1.516-.765 2.031-.765 1.079 0 2.016.765 2.235 2.03.031.188.047.204.265.204.266 0 .282-.016.282-.281v-2.14c0-.188 0-.282-.188-.282-.094 0-.11.031-.187.094l-.657.593a3.03 3.03 0 0 0-1.968-.687c-2.485 0-4 1.484-4 3.531S2.156.11 4.64.11c1.875 0 3-1.218 3-2.375Zm0 0"/></symbol><symbol overflow="visible" id="w"><path style="stroke:none" d="M5.406-2.172c0-1.344-.922-2.344-2.547-2.344C1.22-4.516.313-3.5.313-2.172c0 1.235.89 2.235 2.546 2.235 1.672 0 2.547-1.016 2.547-2.235Zm-1.281-.11c0 .86 0 1.938-1.266 1.938-1.265 0-1.265-1.078-1.265-1.937 0-.453 0-.953.172-1.297.187-.375.609-.578 1.093-.578.422 0 .844.156 1.063.5.203.344.203.89.203 1.375Zm0 0"/></symbol><symbol overflow="visible" id="x"><path style="stroke:none" d="M9.328 0v-.469h-.687v-2.578c0-1.031-.516-1.437-1.547-1.437-.907 0-1.422.5-1.688.953-.187-.922-1.11-.953-1.484-.953-.875 0-1.438.453-1.766 1.078v-1.078l-1.703.078v.468c.61 0 .688 0 .688.391v3.078H.453V0l1.25-.031L2.953 0v-.469h-.687v-2.078c0-1.094.875-1.578 1.5-1.578.328 0 .546.203.546.969V-.47h-.687V0l1.266-.031L6.14 0v-.469h-.688v-2.078c0-1.094.86-1.578 1.484-1.578.344 0 .563.203.563.969V-.47h-.688V0l1.25-.031Zm0 0"/></symbol><symbol overflow="visible" id="y"><path style="stroke:none" d="M5.984-2.219c0-1.328-.906-2.265-2.343-2.265-.75 0-1.282.312-1.5.484v-.484l-1.766.078v.468c.61 0 .688 0 .688.376v5.03H.375v.47l1.25-.032 1.25.032v-.47h-.688V-.39A2.01 2.01 0 0 0 3.47.063c1.5 0 2.515-.907 2.515-2.282Zm-1.28 0C4.703-.813 4-.297 3.358-.297c-.14 0-.609 0-1.062-.547-.11-.125-.11-.14-.11-.328v-2.11c0-.187.016-.202.157-.343.39-.406.922-.469 1.14-.469.657 0 1.22.61 1.22 1.875Zm0 0"/></symbol><symbol overflow="visible" id="z"><path style="stroke:none" d="M6.125 0v-.469c-.61 0-.688 0-.688-.39v-3.625l-1.812.078v.468c.61 0 .688 0 .688.391v1.906c0 .813-.516 1.344-1.235 1.344-.781 0-.812-.25-.812-.797v-3.39l-1.813.078v.468c.61 0 .688 0 .688.391v2.328c0 1.063.796 1.282 1.796 1.282.25 0 .97 0 1.422-.782v.781Zm0 0"/></symbol><symbol overflow="visible" id="A"><path style="stroke:none" d="M3.813-1.234v-.532h-.47v.516c0 .672-.327.906-.609.906-.578 0-.578-.64-.578-.86v-2.75h1.469v-.468H2.156v-1.906h-.469c0 1-.484 1.984-1.484 2.016v.359h.828v2.734c0 1.063.86 1.282 1.578 1.282.75 0 1.204-.579 1.204-1.297Zm0 0"/></symbol><symbol overflow="visible" id="B"><path style="stroke:none" d="M5.516-.234c0-.235-.125-.235-.266-.235-.61-.015-.61-.14-.61-.375v-2.14c0-.891-.702-1.532-2.187-1.532-.562 0-1.781.047-1.781.922 0 .438.344.625.61.625.312 0 .624-.219.624-.625 0-.297-.187-.469-.218-.5a5.28 5.28 0 0 1 .718-.062c.75 0 1.11.422 1.11 1.172v.343c-.72.032-3.25.125-3.25 1.563C.266-.125 1.5.062 2.187.062c.797 0 1.266-.406 1.485-.828 0 .313 0 .766 1.047.766h.468c.204 0 .329 0 .329-.234Zm-2-1.157c0 .97-.922 1.094-1.172 1.094-.516 0-.906-.344-.906-.797 0-1.062 1.578-1.203 2.078-1.234Zm0 0"/></symbol><symbol overflow="visible" id="C"><path style="stroke:none" d="M2.844 0v-.469h-.61v-4.015L.5-4.406v.468c.594 0 .656 0 .656.391v3.078H.47V0l1.219-.031Zm-.469-6.047a.774.774 0 0 0-.781-.781.784.784 0 0 0-.782.781c0 .422.36.766.782.766a.77.77 0 0 0 .781-.766Zm0 0"/></symbol><symbol overflow="visible" id="D"><path style="stroke:none" d="M6.125 0v-.469h-.688v-2.578c0-1.047-.53-1.437-1.53-1.437-.954 0-1.485.562-1.75 1.078v-1.078l-1.704.078v.468c.61 0 .688 0 .688.391v3.078H.453V0l1.25-.031L2.953 0v-.469h-.687v-2.078c0-1.094.859-1.578 1.5-1.578.328 0 .546.203.546.969V-.47h-.687V0l1.25-.031Zm0 0"/></symbol><symbol overflow="visible" id="E"><path style="stroke:none" d="M2.922 0v-.469h-.688v-6.453L.47-6.844v.469c.625 0 .687 0 .687.39v5.516H.47V0l1.219-.031Zm0 0"/></symbol><symbol overflow="visible" id="F"><path style="stroke:none" d="M7.188-4.89c0-1.094-.985-1.954-2.641-1.954H.39v.469h1.078v5.906H.39V0C.766-.031 1.75-.031 2.17-.031c.438 0 1.407 0 1.782.031v-.469H2.875v-2.547h1.766c1.39 0 2.546-.718 2.546-1.875Zm-1.532 0c0 .702 0 1.468-1.5 1.468H2.828v-2.953h1.344c1.484 0 1.484.766 1.484 1.484Zm0 0"/></symbol><symbol overflow="visible" id="G"><path style="stroke:none" d="M4.406-3.672c0-.531-.531-.812-1.062-.812-.688 0-1.094.5-1.313 1.125v-1.125l-1.656.078v.468c.61 0 .688 0 .688.391v3.078H.375V0l1.25-.031C2-.031 2.641-.031 3 0v-.469h-.86v-1.75c0-.687.235-1.906 1.235-1.906 0 0-.188.172-.188.453 0 .406.329.61.61.61.297 0 .61-.204.61-.61Zm0 0"/></symbol><symbol overflow="visible" id="H"><path style="stroke:none" d="M5.984-2.219c0-1.328-.937-2.265-2.39-2.265-.719 0-1.219.28-1.453.484v-2.922l-1.766.078v.469c.61 0 .688 0 .688.39V0h.468c.157-.188.328-.375.485-.563.078.079.562.625 1.453.625 1.484 0 2.515-.906 2.515-2.28Zm-1.28 0c0 .469 0 1.016-.25 1.406-.298.407-.75.516-1.079.516-.688 0-1.078-.547-1.188-.687v-2.5c.282-.36.75-.641 1.297-.641 1.22 0 1.22 1.203 1.22 1.906Zm0 0"/></symbol><symbol overflow="visible" id="I"><path style="stroke:none" d="M4.922-1.172c0-.172-.188-.172-.234-.172-.172 0-.188.047-.25.203-.204.485-.782.797-1.422.797-1.407 0-1.422-1.328-1.422-1.828h3.015c.22 0 .313 0 .313-.265 0-.313-.063-1.047-.563-1.547-.359-.36-.89-.532-1.578-.532C1.187-4.516.312-3.484.312-2.25c0 1.344 1 2.313 2.61 2.313 1.578 0 2-1.063 2-1.235ZM3.984-2.5h-2.39c.015-.39.031-.813.234-1.14.266-.391.672-.516.953-.516 1.172 0 1.188 1.312 1.203 1.656Zm0 0"/></symbol><symbol overflow="visible" id="J"><path style="stroke:none" d="M4.14-1.39c0-.438-.202-.782-.546-1.063-.39-.281-.719-.344-1.485-.485-.375-.062-1.015-.171-1.015-.64 0-.625.922-.625 1.11-.625.75 0 1.124.297 1.171.844.016.156.031.203.234.203.235 0 .235-.047.235-.281v-.797c0-.188 0-.282-.172-.282-.047 0-.063 0-.453.188-.266-.125-.61-.188-1-.188-.313 0-1.844 0-1.844 1.313 0 .39.203.656.406.828.39.344.781.406 1.547.547.36.062 1.094.187 1.094.781 0 .75-.906.75-1.125.75C1.234-.297.984-1.03.859-1.453c-.046-.14-.109-.14-.234-.14-.25 0-.25.062-.25.28v1.094c0 .188 0 .281.188.281.062 0 .078 0 .296-.156l.25-.172c.47.329.985.329 1.188.329.312 0 1.844 0 1.844-1.454Zm0 0"/></symbol><symbol overflow="visible" id="K"><path style="stroke:none" d="M10.484 0v-.469H9.406v-5.906h1.078v-.469H8.281c-.219 0-.344 0-.453.25l-2.39 5.282-2.391-5.282c-.11-.25-.219-.25-.438-.25H.406v.469H1.47V-.75c0 .219 0 .219-.282.25-.234.031-.265.031-.546.031H.406V0c.375-.031.938-.031 1.328-.031.422 0 .938 0 1.344.031v-.469h-.25c-.172 0-.344-.015-.531-.031C2.016-.531 2-.531 2-.75v-5.484h.016L4.719-.25c.093.203.218.25.328.25.203 0 .281-.156.312-.234l2.782-6.141h.015v5.906H7.078V0c.36-.031 1.281-.031 1.688-.031.421 0 1.359 0 1.718.031Zm0 0"/></symbol><symbol overflow="visible" id="L"><path style="stroke:none" d="M5.984 0v-.469c-.609 0-.687 0-.687-.39v-6.063l-1.766.078v.469c.625 0 .703 0 .703.39v1.954a2.178 2.178 0 0 0-1.359-.453c-1.453 0-2.5.875-2.5 2.28 0 1.313.922 2.267 2.39 2.267.61 0 1.094-.235 1.407-.485v.484ZM4.172-1.031c-.14.187-.547.734-1.297.734-1.219 0-1.219-1.203-1.219-1.906 0-.485 0-1.016.25-1.406.297-.422.766-.516 1.078-.516.563 0 .97.313 1.188.61Zm0 0"/></symbol></defs><g style="fill:#000;fill-opacity:1"><use xlink:href="#a" x="18.722" y="6.864"/><use xlink:href="#b" x="26.729" y="6.864"/><use xlink:href="#c" x="32.62" y="6.864"/><use xlink:href="#d" x="36.995" y="6.864"/><use xlink:href="#e" x="39.945" y="6.864"/></g><g style="fill:#000;fill-opacity:1"><use xlink:href="#f" x="46.428" y="6.864"/><use xlink:href="#g" x="51.736" y="6.864"/><use xlink:href="#g" x="57.044" y="6.864"/><use xlink:href="#h" x="62.352" y="6.864"/></g><use xlink:href="#i" x="5.954" y="21.808" style="fill:#000;fill-opacity:1"/><use xlink:href="#j" x="5.954" y="35.078" style="fill:#000;fill-opacity:1"/><use xlink:href="#k" x="5.954" y="48.348" style="fill:#000;fill-opacity:1"/><use xlink:href="#l" x="5.954" y="61.619" style="fill:#bfbfbf;fill-opacity:1"/><use xlink:href="#m" x="5.954" y="74.889" style="fill:#bfbfbf;fill-opacity:1"/><use xlink:href="#n" x="5.954" y="88.159" style="fill:#000;fill-opacity:1"/><use xlink:href="#o" x="5.954" y="101.429" style="fill:#000;fill-opacity:1"/><use xlink:href="#p" x="5.954" y="114.7" style="fill:#000;fill-opacity:1"/><use xlink:href="#q" x="5.954" y="127.97" style="fill:#000;fill-opacity:1"/><g style="fill:#000;fill-opacity:1"><use xlink:href="#i" x=".226" y="141.24"/><use xlink:href="#r" x="5.955" y="141.24"/></g><g style="fill:#bfbfbf;fill-opacity:1"><use xlink:href="#i" x=".226" y="154.51"/><use xlink:href="#i" x="5.955" y="154.51"/></g><g style="fill:#bfbfbf;fill-opacity:1"><use xlink:href="#i" x=".226" y="167.781"/><use xlink:href="#j" x="5.955" y="167.781"/></g><g style="fill:#000;fill-opacity:1"><use xlink:href="#i" x=".226" y="181.051"/><use xlink:href="#k" x="5.955" y="181.051"/></g><g style="fill:#000;fill-opacity:1"><use xlink:href="#i" x=".226" y="194.321"/><use xlink:href="#l" x="5.955" y="194.321"/></g><g style="fill:#000;fill-opacity:1"><use xlink:href="#i" x=".226" y="207.591"/><use xlink:href="#m" x="5.955" y="207.591"/></g><g style="fill:#000;fill-opacity:1"><use xlink:href="#i" x=".226" y="220.862"/><use xlink:href="#n" x="5.955" y="220.862"/></g><g style="fill:#000;fill-opacity:1"><use xlink:href="#i" x=".226" y="234.132"/><use xlink:href="#o" x="5.955" y="234.132"/></g><g style="fill:#bfbfbf;fill-opacity:1"><use xlink:href="#i" x=".226" y="247.402"/><use xlink:href="#p" x="5.955" y="247.402"/></g><g style="fill:#bfbfbf;fill-opacity:1"><use xlink:href="#i" x=".226" y="260.672"/><use xlink:href="#q" x="5.955" y="260.672"/></g><g style="fill:#000;fill-opacity:1"><use xlink:href="#j" x=".226" y="273.943"/><use xlink:href="#r" x="5.955" y="273.943"/></g><g style="fill:#000;fill-opacity:1"><use xlink:href="#j" x=".226" y="287.213"/><use xlink:href="#i" x="5.955" y="287.213"/></g><g style="fill:#000;fill-opacity:1"><use xlink:href="#j" x=".226" y="300.483"/><use xlink:href="#j" x="5.955" y="300.483"/></g><g style="fill:#000;fill-opacity:1"><use xlink:href="#j" x=".226" y="313.753"/><use xlink:href="#k" x="5.955" y="313.753"/></g><g style="fill:#000;fill-opacity:1"><use xlink:href="#j" x=".226" y="327.024"/><use xlink:href="#l" x="5.955" y="327.024"/></g><g style="fill:#bfbfbf;fill-opacity:1"><use xlink:href="#j" x=".226" y="340.294"/><use xlink:href="#m" x="5.955" y="340.294"/></g><g style="fill:#bfbfbf;fill-opacity:1"><use xlink:href="#j" x=".226" y="353.564"/><use xlink:href="#n" x="5.955" y="353.564"/></g><g style="fill:#000;fill-opacity:1"><use xlink:href="#j" x=".226" y="366.834"/><use xlink:href="#o" x="5.955" y="366.834"/></g><g style="fill:#000;fill-opacity:1"><use xlink:href="#j" x=".226" y="380.105"/><use xlink:href="#p" x="5.955" y="380.105"/></g><g style="fill:#000;fill-opacity:1"><use xlink:href="#j" x=".226" y="393.375"/><use xlink:href="#q" x="5.955" y="393.375"/></g><g style="fill:#000;fill-opacity:1"><use xlink:href="#k" x=".226" y="406.645"/><use xlink:href="#r" x="5.955" y="406.645"/></g><g style="fill:#000;fill-opacity:1"><use xlink:href="#s" x="18.722" y="439.841"/><use xlink:href="#t" x="28.782" y="439.841"/></g><use xlink:href="#u" x="33.642" y="439.841" style="fill:#000;fill-opacity:1"/><g style="fill:#000;fill-opacity:1"><use xlink:href="#f" x="42.779" y="439.841"/><use xlink:href="#g" x="48.087" y="439.841"/><use xlink:href="#g" x="53.395" y="439.841"/><use xlink:href="#h" x="58.703" y="439.841"/></g><use xlink:href="#i" x="5.954" y="454.784" style="fill:#000;fill-opacity:1"/><g style="fill:#ff8000;fill-opacity:1"><use xlink:href="#v" x="18.722" y="114.7"/><use xlink:href="#w" x="27.001" y="114.7"/><use xlink:href="#x" x="32.729" y="114.7"/><use xlink:href="#y" x="42.274" y="114.7"/><use xlink:href="#z" x="48.64" y="114.7"/><use xlink:href="#A" x="55.006" y="114.7"/><use xlink:href="#B" x="59.459" y="114.7"/><use xlink:href="#A" x="65.028" y="114.7"/><use xlink:href="#C" x="69.482" y="114.7"/><use xlink:href="#w" x="72.66" y="114.7"/><use xlink:href="#D" x="78.388" y="114.7"/><use xlink:href="#B" x="84.754" y="114.7"/><use xlink:href="#E" x="90.323" y="114.7"/></g><g style="fill:#ff8000;fill-opacity:1"><use xlink:href="#F" x="97.317" y="114.7"/><use xlink:href="#G" x="105.148" y="114.7"/><use xlink:href="#w" x="109.87" y="114.7"/><use xlink:href="#H" x="115.599" y="114.7"/><use xlink:href="#E" x="121.965" y="114.7"/><use xlink:href="#I" x="125.143" y="114.7"/><use xlink:href="#x" x="130.393" y="114.7"/><use xlink:href="#J" x="139.937" y="114.7"/></g><g style="fill:#ff8000;fill-opacity:1"><use xlink:href="#v" x="18.722" y="207.591"/><use xlink:href="#w" x="27.001" y="207.591"/><use xlink:href="#x" x="32.729" y="207.591"/><use xlink:href="#y" x="42.274" y="207.591"/><use xlink:href="#z" x="48.64" y="207.591"/><use xlink:href="#A" x="55.006" y="207.591"/><use xlink:href="#B" x="59.459" y="207.591"/><use xlink:href="#A" x="65.028" y="207.591"/><use xlink:href="#C" x="69.482" y="207.591"/><use xlink:href="#w" x="72.66" y="207.591"/><use xlink:href="#D" x="78.388" y="207.591"/><use xlink:href="#B" x="84.754" y="207.591"/><use xlink:href="#E" x="90.323" y="207.591"/></g><g style="fill:#ff8000;fill-opacity:1"><use xlink:href="#K" x="97.317" y="207.591"/><use xlink:href="#w" x="108.196" y="207.591"/></g><g style="fill:#ff8000;fill-opacity:1"><use xlink:href="#L" x="114.244" y="207.591"/><use xlink:href="#I" x="120.61" y="207.591"/><use xlink:href="#E" x="125.86" y="207.591"/><use xlink:href="#J" x="129.038" y="207.591"/></g></svg>