<svg xmlns="http://www.w3.org/2000/svg" width="119.931" height="82.323" viewBox="0 0 89.948 61.742" version="1.2"><defs><clipPath id="a"><path d="M0 0h89.922v61.613H0Zm0 0"/></clipPath></defs><path style="fill:none;stroke-width:.19925;stroke-linecap:butt;stroke-linejoin:miter;stroke:gray;stroke-opacity:1;stroke-miterlimit:10" d="M0 0h85.039M-.001 28.346h85.04M-.001 56.683h85.04M-.001-.001v56.696M28.348-.001v56.696M56.695-.001v56.696M85.03-.001v56.696" transform="matrix(1 0 0 -1 2.309 59.05)"/><path style="stroke:none;fill-rule:nonzero;fill:#d2c92a;fill-opacity:1" d="m1.914 57.867 2.758.395-1.969 1.968Zm9.453-3.148 2.754.394-1.969 1.969Zm9.45-3.153 2.757.395-1.969 1.969Zm9.453-3.148 2.753.395-1.968 1.968Zm9.449-3.152 2.758.394-1.97 1.969Zm9.453-3.149 2.754.395-1.969 1.968Zm9.45-3.148 2.757.39-1.969 1.97Zm9.452-3.153 2.754.395-1.969 1.969Zm9.45-3.148 2.757.39-1.969 1.97Zm8.581-2.008 1.239-2.496 1.25 2.488Zm-2.347-8.957-.086-2.781 2.277 1.601Zm-6.004-7.312-1.063-2.57 2.696.69Zm-8.04-5.29L68.044 6.88l2.785-.004Zm-9.077-3.43-2.075-1.859 2.735-.542Zm-9.582-1.76-2.356-1.49 2.602-.991Zm-9.758-.212-2.555-1.105 2.418-1.38Zm-9.66 1.324-2.7-.675 2.16-1.758Zm-9.258 2.954-2.777-.165 1.796-2.125ZM13.98 12.73l-2.742.48 1.262-2.483Zm-6.707 6.75-2.449 1.332.403-2.757Zm-3.527 8.61L2.152 30.37l-.87-2.644Zm0 0"/><g clip-path="url(#a)"><path style="fill:none;stroke-width:.3985;stroke-linecap:butt;stroke-linejoin:miter;stroke:#000;stroke-opacity:1;stroke-miterlimit:10" d="M-.395 1.183 2.363.788.394-1.18ZM9.058 4.33l2.754-.394-1.969-1.969Zm9.45 3.153 2.757-.395-1.969-1.969Zm9.453 3.148 2.753-.394-1.968-1.97Zm9.449 3.152 2.758-.394-1.97-1.969Zm9.453 3.149 2.754-.395-1.969-1.968Zm9.45 3.148 2.757-.39-1.969-1.97Zm9.452 3.153 2.754-.395-1.969-1.969Zm9.45 3.148 2.757-.39-1.968-1.97Zm8.581 2.008 1.239 2.496 1.25-2.488Zm-2.347 8.957-.086 2.781 2.277-1.601Zm-6.004 7.312-1.063 2.57 2.696-.69Zm-8.04 5.29-1.671 2.222 2.785.004Zm-9.077 3.43-2.075 1.858 2.735.543Zm-9.582 1.76-2.356 1.49 2.602.991Zm-9.758.212-2.555 1.105 2.418 1.38Zm-9.66-1.324-2.7.675 2.16 1.758Zm-9.258-2.954-2.777.164 1.796 2.125ZM11.67 46.32l-2.742-.48 1.262 2.483Zm-6.707-6.75-2.449-1.333.403 2.758Zm-3.527-8.61L-.157 28.68l-.87 2.644Zm0 0" transform="matrix(1 0 0 -1 2.309 59.05)"/></g></svg>