<svg xmlns="http://www.w3.org/2000/svg" width="136.059" height="163.971" viewBox="0 0 102.044 122.978" version="1.2"><defs><clipPath id="a"><path d="M43 64h58v58H43Zm0 0"/></clipPath><clipPath id="b"><path d="M100.152 93.215c0-15.656-12.691-28.348-28.347-28.348-15.657 0-28.348 12.692-28.348 28.348 0 15.656 12.691 28.347 28.348 28.347 15.656 0 28.347-12.69 28.347-28.347Zm0 0"/></clipPath><clipPath id="c"><path d="M32 53h69.566v69.969H32Zm0 0"/></clipPath><clipPath id="d"><path d="M0 79h30v29H0Zm0 0"/></clipPath><clipPath id="e"><path d="M29.285 93.215c0-7.828-6.348-14.172-14.172-14.172-7.828 0-14.175 6.344-14.175 14.172s6.347 14.176 14.175 14.176c7.825 0 14.172-6.348 14.172-14.176Zm0 0"/></clipPath><clipPath id="f"><path d="M0 93h30v15H0Zm0 0"/></clipPath><clipPath id="g"><path d="M29.285 93.215c0-7.828-6.348-14.172-14.172-14.172-7.828 0-14.175 6.344-14.175 14.172s6.347 14.176 14.175 14.176c7.825 0 14.172-6.348 14.172-14.176Zm0 0"/></clipPath></defs><path style="fill:none;stroke-width:.19925;stroke-linecap:butt;stroke-linejoin:miter;stroke:gray;stroke-opacity:1;stroke-miterlimit:10" d="M0 0h85.039M-.001 28.349h85.04M-.001 56.684h85.04M-.001.001v56.691M28.348.001v56.691M56.695.001v56.691M85.03.001v56.691" transform="matrix(1 0 0 -1 .938 57.782)"/><path style="fill:none;stroke-width:.3985;stroke-linecap:butt;stroke-linejoin:miter;stroke:#000;stroke-opacity:1;stroke-miterlimit:10" d="M0 0h.699v.7h.699V0H2.1v.7h-.703v.7H2.1v.698h.7v.7h.698v-.7h.7V1.4h.699V.7h-.7V0h.7v.7H5.6V0h.7v.7h-.7v.7h.7v.698h-.7V1.4h-.703v.7h-.7v.699H3.5V3.5h.7V4.2h.699v.7H5.6v-.7h.7v.7h-.7v.698h.7v.7H7V7h.699v-.703h.699V7h-.7V7.7h.7v.7h.7v.698H9.8V8.4h.7V7.7h.699V7h-.7v-.702h.7V7h.699v-.703h.7v-.7h.698V4.9h-.699V4.2h.7v.7h.702v-.7h.7v-.7h.699v-.698h-.7v-.704H14V1.4h-.703v.7h-.699v-.7h.7V.7h-.7V0h.7v.7h.702V0h.7v.7h-.7v.7h.7v.698h.699v.704h.7v-.704h.698V1.4h.704V.7h-.704V0h.704v.7h.699V0h.699v.7h-.7v.7h.7v.698h-.7V1.4H17.5v.7h-.704v.699h-.699V3.5h.7V4.2h.703v.7h.699v-.7h.699v.7h-.7v.698h.7v.7h-.7v-.7H17.5v.7h-.704v-.7h.704V4.9h-.704V4.2h-.699v-.7h-.7v.7H14.7v.7h-.7v.698h.7v.7h-.7v-.7H13.3v.7h-.703V7h-.7V7.7h.7v.7h-.7v-.7H11.2v.7h-.7v.698H9.8v.7h.7v.699h.699v.703h.699v-.703h.7v.703h-.7v.7h.7v.698h.702v.7h.7v-.7h.699v.7h-.7v.699h.7v.7h.699v.702h.7v-.703h.698v-.7h.704v-.698h-.704v-.7h.704v.7h.699v-.7h.699v.7h-.7v.699h.7v.7h-.7v-.7H17.5v.7h-.704v.702h-.699v.7h.7v.699h.703v.699h.699v-.7h.699v.7h-.7v.7h.7v.702h.7v.7h.698v-.7h.7v.7h-.7v.699h.7v.699h.703v.7h.699v-.7h.7v-.7h.698v-.699h-.699V18.9h.7v.7h.699v-.7h.699v.7h-.7v.699h.7v.699h-.7v-.7h-.699v.7h-.699v.7h-.7v.698h.7v.703h.7v.7h.699v-.7h.699v.7h-.7v.699h.7v.7h.703v.698h.7v-.699h.698v.7h-.699v.698h.7v.704h.699v.699h.699v-.7h.699v-.703h.703v-.699h-.703v-.699h.703v.7h.7v-.7h.699v-.7h.699v-.698h-.7v-.7h.7v.7h.699v-.7h.703v-.703h.7v-.699h-.7v-.7h-.703v-.698h-.7v.699h-.698v-.7h.699v-.699h-.7V18.9h.7v.7h.699v-.7h.703v.7h-.703v.699h.703v.699h.7v.7h.699v-.7h.699v-.7h.699v-.699h-.7V18.9h.7v.7h.7v-.7h.702v-.703h.7v-.7h-.7v-.698h.7v.699h.699v-.7h.699v-.699h.7V15.4h-.7V14.7h-.7v-.703h-.698v.703h-.7v-.703h.7v-.7h-.7v-.699h.7v.7h.699v-.7h.699v.7h-.7v.699h.7v.703h.7v.7h.702v-.7h.7v-.703h.699v-.7h-.7v-.699h.7v.7h.699v-.7h.7V11.9h.698V11.2h-.699v-.7h.7v.7h.703v-.7h.699v-.702h.699v-.7h-.7V8.4h-.698V7.7h-.704v.7h-.699v-.7h.7V7h-.7v-.702h-.699v-.7h-.7v.7h-.698v-.7h.699V4.9h-.7V4.2h-.699v-.7h-.703v.7h-.699v.7h-.7v.698h.7v.7h-.7v-.7h-.698v.7h-.7v-.7h.7V4.9h-.7V4.2h.7v.7h.699v-.7h.699v-.7h.7v-.698h-.7v-.704h-.7V1.4h-.698v.7h-.7v-.7h.7V.7h-.7V0h.7v.7h.699V0h.699v.7h-.7v.7h.7v.698h.7v.704h.702v-.704h.7V1.4h.699V.7h-.7V0h.7v.7h.699V0h.7v.7h-.7v.7h.7v.698h-.7V1.4h-.7v.7h-.698v.703h-.7V3.5h.7V4.2h.699v.7h.699v-.7h.7v.7h-.7v.698h.7v.7h.702V7h.7v-.703h.699V7h-.7V7.7h.7v.7h.699v.698h.7V8.4h.698V7.7h.704V7h-.704v-.702h.704V7h.699v-.703h.699v-.7h.7V4.9h-.7V4.2h.7v.7h.698v-.7h.704v-.7h.699v-.698h-.7v-.704h-.703V1.4h-.699v.7h-.699v-.7h.7V.7h-.7V0h.7v.7h.698V0h.704v.7h-.704v.7h.704v.698h.699v.704h.699v-.704h.7V1.4h.698V.7h-.699V0h.7v.7h.699V0h.703" transform="matrix(1 0 0 -1 .938 57.782)"/><path style="fill:none;stroke-width:.19925;stroke-linecap:butt;stroke-linejoin:miter;stroke:red;stroke-opacity:1;stroke-miterlimit:10" d="M52.44 8.505a7.085 7.085 0 0 1-7.085 7.086 7.085 7.085 0 0 1-7.086-7.086 7.085 7.085 0 0 1 7.086-7.086 7.085 7.085 0 0 1 7.086 7.086Zm0 0" transform="matrix(1 0 0 -1 .938 57.782)"/><g clip-path="url(#a)"><g clip-path="url(#b)"><path style="fill:none;stroke-width:.19925;stroke-linecap:butt;stroke-linejoin:miter;stroke:gray;stroke-opacity:1;stroke-miterlimit:10" d="M0 0h85.04M0 28.347h85.04M0 56.684h85.04M0 0v56.694M28.347 0v56.694M56.694 0v56.694M85.03 0v56.694" transform="matrix(4 0 0 -4 -109.615 127.231)"/><path style="fill:none;stroke-width:.3985;stroke-linecap:butt;stroke-linejoin:miter;stroke:#000;stroke-opacity:1;stroke-miterlimit:10" d="M0 0h.7v.7h.7V0h.7v.7h-.7v.7h.7v.7h.7v.7h.7v-.7h.7v-.7h.699V.7h-.7V0h.7v.7h.7V0h.7v.7h-.7v.7h.7v.7h-.7v-.7h-.7v.7h-.7v.7h-.7v.7h.7v.7h.7v.7h.7v-.7h.7v.7h-.7v.699h.7v.7H7V7h.7v-.7h.7V7h-.7v.7h.7v.7h.7v.7h.7v-.7h.7v-.7h.7v-.7h-.7v-.7h.7V7h.699v-.7h.7v-.7h.7v-.7h-.7v-.7h.7v.7h.7v-.7h.7v-.7h.7V2.8h-.7v-.7h-.7v-.7h-.7v.7h-.7v-.7h.7V.7h-.7V0h.7v.7h.7V0h.7v.7h-.7v.7h.7v.7h.7v.7h.7v-.7h.7v-.7h.7V.7h-.7V0h.7v.7h.7V0h.7v.7h-.7v.7h.7v.7h-.7v-.7h-.7v.7h-.7v.7h-.7v.7h.7v.7h.7v.7h.7v-.7h.7v.7h-.7v.699h.7v.7h-.7v-.7h-.7v.7h-.7v-.7h.7v-.7h-.7v-.7h-.7v-.7h-.7v.7h-.7v.7h-.7v.7h.7v.7h-.7v-.7h-.7v.7h-.7V7h-.7v.7h.7v.7h-.7v-.7h-.7v.7h-.7v.7H9.8v.7h.7v.7h.7v.7h.7v-.7h.7v.7h-.7v.7h.7v.699h.7v.7h.7v-.7h.699v.7h-.7v.7h.7v.7h.7v.7h.7v-.7h.7v-.7h.7v-.7h-.7v-.7h.7v.7h.7v-.7h.7v.7h-.7v.7h.7v.7h-.7v-.7h-.7v.7h-.7v.7h-.7v.7h.7v.7h.7v.7h.7v-.7h.7v.7h-.7v.7h.7v.7h.7v.7h.7v-.7h.7v.7h-.7v.7h.7v.7h.699v.7h.7v-.7h.7v-.7h.7v-.7h-.7v-.7h.7v.7h.7v-.7h.7v.7h-.7v.7h.7v.7h-.7v-.7h-.7v.7h-.7v.7h-.7v.699h.7v.7h.7v.7h.7v-.7h.7v.7h-.7v.7h.7v.7h.7v.7h.7v-.7h.7v.7h-.7v.699h.7v.7h.7v.7h.699v-.7h.7v-.7h.7v-.7h-.7v-.7h.7v.7h.7v-.7h.7v-.7h.7v-.699h-.7v-.7h.7v.7h.699v-.7h.7v-.7h.7v-.7h-.7v-.7h-.699v-.7h-.7v.7h-.7v-.7h.7v-.7h-.7v-.7h.7v.7h.7v-.7h.7v.7h-.7v.7h.7v.7h.7v.7h.7v-.7h.699v-.7h.7v-.7h-.7v-.7h.7v.7h.7v-.7h.7v-.7h.7v-.699h-.7v-.7h.7v.7h.7v-.7h.7v-.7h.7v-.7h-.7v-.7h-.7v-.7h-.7v.7h-.7v-.7h.7v-.7h-.7v-.7h.7v.7h.7v-.7h.7v.7h-.7v.7h.7v.7h.7v.7h.7v-.7h.7v-.7h.7v-.7h-.7v-.7h.7v.7h.699v-.7h.7v-.7h.7v-.7h-.7V10.5h.7v.7h.7v-.7h.7v-.7h.7v-.7h-.7v-.7h-.7v-.7h-.7v.7h-.7v-.7h.7V7h-.7v-.7h-.7v-.7h-.7v.7h-.7v-.7h.7v-.7h-.7v-.7h-.7V3.5h-.699v.7h-.7v.7h-.7v.7h.7v.7h-.7v-.7h-.7v.7h-.7v-.7h.7v-.7h-.7v-.7h.7v.7h.7v-.7h.7v-.7h.7v-.7h-.7v-.7h-.7v-.7h-.7v.7h-.7v-.7h.7V.7h-.7V0h.7v.7h.7V0h.7v.7h-.7v.7h.7v.7h.7v.7h.7v-.7h.7v-.7h.7V.7h-.7V0h.7v.7h.7V0h.7v.7h-.7v.7h.7v.7h-.7v-.7h-.7v.7h-.7v.7h-.7v.7h.7v.7h.7v.7h.7v-.7h.7v.7h-.7v.7h.7v.7h.7V7h.7v-.7h.699V7h-.7v.7h.7v.699h.7v.7h.7v-.7h.7v-.7h.7V7h-.7v-.7h.7V7h.7v-.7h.7v-.7h.7v-.7h-.7v-.7h.7v.7h.7v-.7h.7v-.7h.7V2.8h-.7v-.7h-.7v-.7h-.7v.7h-.7v-.7h.7V.7h-.7V0h.7v.7h.7V0h.7v.7h-.7v.7h.7v.7h.7v.7h.7v-.7h.7v-.7h.7V.7h-.7V0h.7v.7h.7V0h.7" transform="matrix(4 0 0 -4 -109.615 127.231)"/></g></g><g clip-path="url(#c)"><path style="fill:none;stroke-width:.79701;stroke-linecap:butt;stroke-linejoin:miter;stroke:red;stroke-opacity:1;stroke-miterlimit:10" d="M99.214-35.433c0 15.656-12.691 28.348-28.347 28.348-15.657 0-28.348-12.692-28.348-28.348 0-15.656 12.691-28.348 28.348-28.348 15.656 0 28.347 12.692 28.347 28.348Zm0 0" transform="matrix(1 0 0 -1 .938 57.782)"/></g><path style="fill:none;stroke-width:.3985;stroke-linecap:butt;stroke-linejoin:miter;stroke:red;stroke-opacity:1;stroke-miterlimit:10" d="m48.914 2.376 7.718-13.297" transform="matrix(1 0 0 -1 .938 57.782)"/><path style="fill:none;stroke-width:.19925;stroke-linecap:butt;stroke-linejoin:miter;stroke:#00f;stroke-opacity:1;stroke-miterlimit:10" d="M31.89 28.348a3.543 3.543 0 1 1-7.086 0 3.546 3.546 0 0 1 3.543-3.546 3.546 3.546 0 0 1 3.543 3.546Zm0 0" transform="matrix(1 0 0 -1 .938 57.782)"/><g clip-path="url(#d)"><g clip-path="url(#e)"><path style="fill:none;stroke-width:.19925;stroke-linecap:butt;stroke-linejoin:miter;stroke:gray;stroke-opacity:1;stroke-miterlimit:10" d="M0 0h85.04M0 28.347h85.04M0 56.684h85.04M0 0v56.694M28.347 0v56.694M56.694 0v56.694M85.03 0v56.694" transform="matrix(4 0 0 -4 -98.275 206.602)"/></g></g><g clip-path="url(#f)"><g clip-path="url(#g)"><path style="fill:none;stroke-width:.3985;stroke-linecap:butt;stroke-linejoin:miter;stroke:#000;stroke-opacity:1;stroke-miterlimit:10" d="M0 0h.7v.7h.7V0h.7v.7h-.7v.7h.7v.7h.7v.7h.7v-.7h.7v-.7h.699V.7h-.7V0h.7v.7h.7V0h.7v.7h-.7v.7h.7v.7h-.7v-.7h-.7v.7h-.7v.7h-.7v.7h.7v.7h.7v.7h.7v-.7h.7v.7h-.7v.699h.7v.7H7v.7h.7v-.7h.7v.7h-.7v.7h.7v.7h.7v.7h.7v-.7h.7v-.7h.7v-.7h-.7v-.7h.7v.7h.699v-.7h.7v-.7h.7v-.7h-.7v-.7h.7v.7h.7v-.7h.7v-.7h.7V2.8h-.7v-.7h-.7v-.7h-.7v.7h-.7v-.7h.7V.7h-.7V0h.7v.7h.7V0h.7v.7h-.7v.7h.7v.7h.7v.7h.7v-.7h.7v-.7h.7V.7h-.7V0h.7v.7h.7V0h.7v.7h-.7v.7h.7v.7h-.7v-.7h-.7v.7h-.7v.7h-.7v.7h.7v.7h.7v.7h.7v-.7h.7v.7h-.7v.699h.7v.7h-.7v-.7h-.7v.7h-.7v-.7h.7v-.7h-.7v-.7h-.7v-.7h-.7v.7h-.7v.7h-.7v.7h.7v.7h-.7v-.7h-.7v.7h-.7v.7h-.7v.7h.7v.7h-.7v-.7h-.7v.7h-.7v.7H9.8v.7h.7v.7h.7v.7h.7v-.7h.7v.7h-.7v.7h.7v.699h.7v.7h.7v-.7h.699v.7h-.7v.7h.7v.7h.7v.7h.7v-.7h.7v-.7h.7v-.7h-.7v-.7h.7v.7h.7v-.7h.7v.7h-.7v.7h.7v.7h-.7v-.7h-.7v.7h-.7v.7h-.7v.7h.7v.7h.7v.7h.7v-.7h.7v.7h-.7v.7h.7v.7h.7v.7h.7v-.7h.7v.7h-.7v.699h.7v.7h.699v.7h.7v-.7h.7v-.7h.7v-.7h-.7v-.7h.7v.7h.7v-.7h.7v.7h-.7v.7h.7v.7h-.7v-.7h-.7v.7h-.7v.7h-.7v.7h.7v.7h.7v.7h.7v-.7h.7v.7h-.7v.7h.7v.7h.7v.7h.7v-.7h.7v.7h-.7v.7h.7v.7h.7v.7h.699v-.7h.7v-.7h.7v-.7h-.7v-.7h.7v.7h.7v-.7h.7v-.7h.7v-.7h-.7v-.7h.7v.7h.7v-.7h.7v-.7h.7v-.7h-.7v-.7h-.7v-.7h-.7v.7h-.7v-.7h.7v-.7h-.7v-.7h.7v.7h.7v-.7h.7v.7h-.7v.7h.7v.7h.7v.7h.7v-.7h.7v-.7h.699v-.7h-.7v-.7h.7v.7h.7v-.7h.7v-.7h.7v-.699h-.7v-.7h.7v.7h.7v-.7h.7v-.7h.7v-.7h-.7v-.7h-.7v-.7h-.7v.7h-.7v-.7h.7v-.7h-.7v-.7h.7v.7h.7v-.7h.7v.7h-.7v.7h.7v.7h.7v.7h.7v-.7h.7v-.7h.7v-.7h-.7v-.7h.7v.7h.699v-.7h.7v-.7h.7v-.7h-.7V10.5h.7v.7h.7v-.7h.7v-.7h.7v-.7h-.7v-.7h-.7v-.7h-.7v.7h-.7v-.7h.7V7h-.7v-.7h-.7v-.7h-.7v.7h-.7v-.7h.7v-.7h-.7v-.7h-.7V3.5h-.699v.7h-.7v.7h-.7v.7h.7v.699h-.7v-.7h-.7v.7h-.7v-.7h.7v-.7h-.7v-.7h.7v.7h.7v-.7h.7V3.5h.7v-.7h-.7v-.7h-.7v-.7h-.7v.7h-.7v-.7h.7V.7h-.7V0h.7v.7h.7V0h.7v.7h-.7v.7h.7v.7h.7v.7h.7v-.7h.7v-.7h.7V.7h-.7V0h.7v.7h.7V0h.7v.7h-.7v.7h.7v.7h-.7v-.7h-.7v.7h-.7v.7h-.7v.7h.7v.7h.7v.7h.7v-.7h.7v.7h-.7v.7h.7v.699h.7v.7h.7v-.7h.7v.7h-.7v.7h.7v.7h.699v.7h.7v-.7h.7v-.7h.7V7h-.7v-.7h.7v.7h.7v-.7h.7v-.7h.7v-.7h-.7v-.7h.7v.7h.7v-.7h.7V3.5h.7v-.7h-.7v-.7h-.7v-.7h-.7v.7h-.7v-.7h.7V.7h-.7V0h.7v.7h.7V0h.7v.7h-.7v.7h.7v.7h.7v.7h.7v-.7h.7v-.7h.7V.7h-.7V0h.7v.7h.7V0h.7" transform="matrix(4 0 0 -4 -98.275 206.602)"/></g></g><path style="fill:none;stroke-width:.79701;stroke-linecap:butt;stroke-linejoin:miter;stroke:#00f;stroke-opacity:1;stroke-miterlimit:10" d="M28.347-35.433c0 7.828-6.348 14.172-14.172 14.172C6.347-21.261 0-27.605 0-35.433s6.348-14.176 14.176-14.176c7.825 0 14.172 6.348 14.172 14.176Zm0 0" transform="matrix(1 0 0 -1 .938 57.782)"/><path style="fill:none;stroke-width:.3985;stroke-linecap:butt;stroke-linejoin:miter;stroke:#00f;stroke-opacity:1;stroke-miterlimit:10" d="M27.578 24.887 17.25-21.597" transform="matrix(1 0 0 -1 .938 57.782)"/></svg>