<svg xmlns="http://www.w3.org/2000/svg" xmlns:xlink="http://www.w3.org/1999/xlink" width="147.963" height="69.099" viewBox="0 0 110.972 51.824" version="1.2"><defs><symbol overflow="visible" id="a"><path style="stroke:none" d="M4.563 0v-.438H3.266v-5.156c0-.187 0-.297-.266-.297-.11 0-.125 0-.203.063-.688.516-1.656.516-1.828.516H.797v.437h.172a4.16 4.16 0 0 0 1.203-.172v4.61H.89V0c.343-.031 1.421-.031 1.828-.031.422 0 1.484 0 1.844.031Zm0 0"/></symbol><symbol overflow="visible" id="b"><path style="stroke:none" d="M4.86-1.844c0-.484-.094-.968-.61-1.437-.469-.39-.938-.485-1.484-.485-.579 0-.922.407-1.063.688v-.156c0-1.125.219-1.485.313-1.641a1.47 1.47 0 0 1 1.218-.656c.172 0 .454.031.672.234-.36.078-.484.344-.484.563 0 .39.297.593.594.593a.571.571 0 0 0 .578-.609c0-.547-.375-1.14-1.375-1.14-1.297 0-2.781.827-2.781 3.046 0 .438.03 1.313.421 1.953.391.688 1.016 1 1.829 1 1.28 0 2.171-.734 2.171-1.953Zm-1.266-.015c0 .906 0 1.562-.922 1.562-.531 0-.766-.406-.828-.562-.125-.282-.125-1-.125-1.032 0-.921.39-1.515 1.015-1.515.86 0 .86.656.86 1.547Zm0 0"/></symbol><symbol overflow="visible" id="c"><path style="stroke:none" d="M4.766-2.016h-.454c-.015.125-.093.766-.234.829-.11.046-.781.046-.937.046H1.859c.485-.39 1.016-.812 1.47-1.125.75-.53 1.437-1.015 1.437-1.89 0-1.047-.954-1.735-2.25-1.735-1.11 0-1.985.532-1.985 1.36 0 .468.36.687.672.687a.65.65 0 0 0 .656-.672c0-.203-.078-.53-.468-.64.312-.25.718-.282.89-.282.735 0 1.203.547 1.203 1.282 0 .656-.375 1.234-.859 1.718l-2 1.985c-.094.094-.094.11-.094.281V0H4.5Zm0 0"/></symbol><symbol overflow="visible" id="d"><path style="stroke:none" d="M5.156-5.516v-.265H3.11c-.187 0-1.437-.047-1.546-.078-.172-.047-.188-.11-.204-.204H.906L.594-3.765h.453c.094-.75.25-.812.25-.812.125-.047.812-.047.984-.047h1.5c-.922 1.047-.922 1.063-1.11 1.344-.733 1.11-.89 2.14-.89 2.75 0 .625.485.64.578.64.235 0 .407-.14.454-.187.124-.188.124-.234.124-.75 0-1.156.11-2.235.688-2.89l1.438-1.626c.078-.093.093-.14.093-.172Zm0 0"/></symbol><symbol overflow="visible" id="e"><path style="stroke:none" d="M4.86-1.61c0-.718-.532-1.327-1.548-1.546.907-.313 1.25-.938 1.25-1.485 0-.671-.671-1.25-2-1.25-1.109 0-1.828.594-1.828 1.329 0 .406.282.656.641.656.39 0 .656-.281.656-.656 0-.297-.172-.547-.531-.625.063-.063.438-.344 1.016-.344.78 0 .78.593.78.875 0 .5-.187 1.281-.968 1.328l-.422.031c-.14.016-.14.11-.14.172 0 .188.093.188.265.188h.422c1 0 1 .874 1 1.328 0 .406 0 1.312-.953 1.312-.11 0-.734-.016-1.14-.312.406-.11.5-.47.5-.672 0-.422-.298-.703-.72-.703-.374 0-.702.25-.702.703 0 .843.906 1.39 2.093 1.39 1.64 0 2.328-.906 2.328-1.718Zm0 0"/></symbol><symbol overflow="visible" id="f"><path style="stroke:none" d="M4.86-1.672c0-.953-.735-1.375-1.204-1.64.64-.313.906-.75.906-1.25 0-.86-.75-1.329-1.89-1.329-1.297 0-1.938.72-1.938 1.594 0 .484.266 1 .86 1.344-.485.25-1.157.61-1.157 1.515 0 1.11 1 1.547 2.204 1.547 1.453 0 2.218-.765 2.218-1.78Zm-1-2.89c0 .468-.282.796-.657 1l-1.375-.75c-.047-.016-.39-.204-.39-.516 0-.594.703-.703 1.187-.703.797 0 1.234.39 1.234.968Zm.187 3.375c0 .843-1.047.89-1.39.89-.798 0-1.407-.36-1.407-1.156 0-.406.172-.875.797-1.25l1.203.656c.484.266.797.438.797.86Zm0 0"/></symbol><symbol overflow="visible" id="g"><path style="stroke:none" d="M5 0v-.438h-.89v-.953H5v-.437h-.89v-3.766c0-.265-.032-.312-.298-.312-.218 0-.234.015-.328.14L.297-1.828v.437h2.656v.954H1.922V0C2.25-.031 3.14-.031 3.5-.031c.375 0 1.172 0 1.5.031ZM3.062-1.828H.813l2.25-2.797Zm0 0"/></symbol><symbol overflow="visible" id="h"><path style="stroke:none" d="M4.766-1.797c0-1.031-.72-1.875-2.079-1.875-.421 0-.796.063-1.187.297v-1.14c.313.062.453.062.64.062.25 0 .829 0 1.5-.453.204-.125.72-.563.72-.797 0-.031 0-.188-.141-.188 0 0-.047 0-.14.047a4.072 4.072 0 0 1-2.813 0c-.125-.047-.157-.047-.157-.047-.125 0-.125.125-.125.266v2.64c0 .157 0 .282.204.282.125 0 .14 0 .234-.125.375-.422.86-.485 1.219-.485.828 0 .828.782.828 1.485 0 .64 0 1.531-1.125 1.531-.485 0-.922-.234-1.14-.516.374-.046.577-.296.577-.625 0-.437-.343-.625-.625-.625-.281 0-.625.172-.625.641C.531-.64 1.25.11 2.391.11c1.53 0 2.375-.859 2.375-1.906Zm0 0"/></symbol><clipPath id="i"><path d="M32 38h38v13.734H32Zm0 0"/></clipPath></defs><path style="fill:none;stroke-width:.3985;stroke-linecap:butt;stroke-linejoin:miter;stroke:gray;stroke-opacity:1;stroke-miterlimit:10" d="M0 0h28.348M0 28.347h28.348M0 0v28.347M28.348 0v28.347" transform="matrix(1 0 0 -1 1.285 40.609)"/><path style="fill:none;stroke-width:.59776;stroke-linecap:butt;stroke-linejoin:miter;stroke:#cc8714;stroke-opacity:1;stroke-miterlimit:10" d="M0 14.148s.852 3.113 1.18 3.992c.328.88.855 2.055 1.183 2.344.329.285.852.145 1.18-.277.328-.426.856-1.82 1.18-2.782.328-.957.855-3.03 1.183-4.129.329-1.097.852-3 1.18-3.78.328-.786.856-1.72 1.184-1.864.324-.145.851.27 1.18.82.328.555.85 2.145 1.18 3.168.327 1.024.855 3.137 1.183 4.207.328 1.067.851 2.828 1.18 3.504.327.672.85 1.356 1.179 1.356.328 0 .855-.684 1.184-1.356.328-.676.851-2.437 1.18-3.504.327-1.07.855-3.183 1.179-4.207.328-1.02.855-2.613 1.184-3.168.328-.55.851-.965 1.18-.82.327.144.855 1.078 1.183 1.863.324.781.851 2.68 1.18 3.778.328 1.097.851 3.175 1.18 4.132.327.961.855 2.356 1.183 2.782.328.422.851.562 1.18.277.328-.29.855-1.465 1.18-2.344.327-.879 1.183-3.992 1.183-3.992" transform="matrix(1 0 0 -1 1.285 40.609)"/><path style="fill:none;stroke-width:.59776;stroke-linecap:butt;stroke-linejoin:miter;stroke:#cc148c;stroke-opacity:1;stroke-miterlimit:10" d="M0 14.148s.852 3.188 1.18 4.117c.328.93.855 2.219 1.183 2.594.329.375.852.426 1.18.11.328-.32.856-1.52 1.18-2.415.328-.894.855-2.902 1.183-4.043.329-1.14.852-3.214 1.18-4.175C7.414 9.37 7.942 8 8.27 7.57c.324-.43.851-.594 1.18-.328.328.262.85 1.367 1.18 2.226.327.86.855 2.825 1.183 3.961.328 1.133.851 3.23 1.18 4.227.327.992.85 2.45 1.179 2.93.328.484.855.753 1.184.546.328-.203.851-1.214 1.18-2.035.327-.82.855-2.738 1.179-3.867.328-1.129.855-3.246 1.184-4.266.328-1.02.851-2.554 1.18-3.09.327-.535.855-.913 1.183-.765.324.148.851 1.063 1.18 1.84.328.777.851 2.644 1.18 3.765.327 1.118.855 3.25 1.183 4.293.328 1.047.851 2.657 1.18 3.243.328.582.855 1.07 1.18.976.327-.09 1.183-1.637 1.183-1.637" transform="matrix(1 0 0 -1 1.285 40.609)"/><path style="fill:none;stroke-width:.59776;stroke-linecap:butt;stroke-linejoin:miter;stroke:#2114cc;stroke-opacity:1;stroke-miterlimit:10" d="M0 14.148s.852 3.27 1.18 4.258c.328.988.855 2.39 1.183 2.86.329.464.852.718 1.18.515.328-.207.856-1.184 1.18-1.996.328-.813.855-2.7 1.183-3.852.329-1.148.852-3.324 1.18-4.433.328-1.11.856-2.86 1.184-3.563.324-.707.851-1.453 1.18-1.52.328-.07.85.434 1.18 1.024.327.59.855 2.176 1.183 3.23.328 1.06.851 3.204 1.18 4.376.327 1.175.85 3.18 1.179 4.082.328.906.855 2.105 1.184 2.44a.81.81 0 0 0 1.18 0c.327-.335.855-1.534 1.179-2.44.328-.903.855-2.907 1.184-4.083.328-1.171.851-3.316 1.18-4.374.327-1.055.855-2.641 1.183-3.231.324-.59.851-1.094 1.18-1.023.328.066.851.812 1.18 1.52.327.702.855 2.452 1.183 3.562.328 1.109.851 3.285 1.18 4.433.328 1.153.855 3.04 1.18 3.852.327.812 1.183 1.996 1.183 1.996" transform="matrix(1 0 0 -1 1.285 40.609)"/><path style="fill:none;stroke-width:.59776;stroke-linecap:butt;stroke-linejoin:miter;stroke:#14cca5;stroke-opacity:1;stroke-miterlimit:10" d="M0 14.148s.852 3.371 1.18 4.422c.328 1.047.855 2.57 1.183 3.137.329.566.852 1.027 1.18.945.328-.078.856-.816 1.18-1.52.328-.707.855-2.43 1.183-3.55.329-1.121.852-3.328 1.18-4.543.328-1.22.856-3.266 1.184-4.223.324-.957.851-2.254 1.18-2.676.328-.418.85-.59 1.18-.347.327.238.855 1.246 1.183 2.074.328.828.851 2.722 1.18 3.898.327 1.18.85 3.406 1.179 4.59.328 1.184.855 3.102 1.184 3.95.328.847.851 1.898 1.18 2.163.327.266.855.145 1.179-.25.328-.394.855-1.652 1.184-2.59.328-.94.851-2.968 1.18-4.183.327-1.211.855-3.422 1.183-4.555.324-1.133.851-2.886 1.18-3.613.328-.727.851-1.512 1.18-1.617.327-.106.855.304 1.183.847.328.543.851 2.028 1.18 3.063.328 1.035.855 3.168 1.18 4.394l1.183 4.446" transform="matrix(1 0 0 -1 1.285 40.609)"/><path style="fill:none;stroke-width:.59776;stroke-linecap:butt;stroke-linejoin:miter;stroke:#6ecc14;stroke-opacity:1;stroke-miterlimit:10" d="M0 14.148s.852 3.496 1.18 4.617c.328 1.117.855 2.77 1.183 3.446.329.671.852 1.343 1.18 1.398.328.059.856-.422 1.18-.996.328-.574.855-2.086 1.183-3.145.329-1.058.852-3.218 1.18-4.496.328-1.273.856-3.531 1.184-4.699.324-1.168.851-2.953 1.18-3.719.328-.765.85-1.625 1.18-1.793.327-.168.855.114 1.183.586.328.473.851 1.828 1.18 2.824.327.993.85 3.075 1.179 4.336.328 1.258.855 3.54 1.184 4.75.328 1.211.851 3.114 1.18 3.965.327.852.855 1.895 1.179 2.172.328.278.855.195 1.184-.172.328-.367.851-1.554 1.18-2.476.327-.918.855-2.91 1.183-4.145.324-1.238.851-3.527 1.18-4.77.328-1.238.851-3.245 1.18-4.179.327-.93.855-2.148 1.183-2.531.328-.387.851-.504 1.18-.246.328.261.855 1.273 1.18 2.109.327.84 1.183 3.926 1.183 3.926" transform="matrix(1 0 0 -1 1.285 40.609)"/><path style="fill:none;stroke-width:.59776;stroke-linecap:butt;stroke-linejoin:miter;stroke:#cc3f14;stroke-opacity:1;stroke-miterlimit:10" d="M0 14.148S.852 17.8 1.18 19c.328 1.199.855 3 1.183 3.785.329.789.852 1.687 1.18 1.894.328.203.856.004 1.18-.418.328-.422.855-1.675 1.183-2.632.329-.961.852-2.993 1.18-4.278.328-1.281.856-3.648 1.184-4.972.324-1.329.851-3.512 1.18-4.59.328-1.078.85-2.598 1.18-3.192.327-.597.855-1.117 1.183-1.097.328.02.851.605 1.18 1.238.327.629.85 2.2 1.179 3.3.328 1.102.855 3.313 1.184 4.645.328 1.332.851 3.692 1.18 4.965.327 1.27.855 3.266 1.179 4.195.328.934.855 2.125 1.184 2.512.328.387.851.516 1.18.27.327-.243.855-1.203 1.183-2.024.324-.82.851-2.664 1.18-3.879.328-1.218.851-3.535 1.18-4.883.327-1.343.855-3.632 1.183-4.812.328-1.18.851-2.934 1.18-3.691.328-.754.855-1.59 1.18-1.758.327-.164 1.183.562 1.183.562" transform="matrix(1 0 0 -1 1.285 40.609)"/><path style="fill:none;stroke-width:.59776;stroke-linecap:butt;stroke-linejoin:miter;stroke:#c414cc;stroke-opacity:1;stroke-miterlimit:10" d="M0 14.148S.852 18 1.18 19.293c.328 1.296.855 3.265 1.183 4.183.329.918.852 2.063 1.18 2.434.328.37.856.48 1.18.23.328-.246.855-1.199 1.183-2.015.329-.82.852-2.653 1.18-3.887.328-1.238.856-3.606 1.184-5.027.324-1.422.851-3.883 1.18-5.227.328-1.34.85-3.434 1.18-4.441.327-1.012.855-2.344 1.183-2.832.328-.489.851-.813 1.18-.688.327.125.85.871 1.179 1.582.328.715.855 2.39 1.184 3.563.328 1.168.851 3.46 1.18 4.867.327 1.406.855 3.886 1.179 5.265.328 1.38.855 3.582 1.184 4.676.328 1.094.851 2.606 1.18 3.207.327.606.855 1.14 1.183 1.14.324 0 .851-.534 1.18-1.14.328-.601.851-2.113 1.18-3.207.327-1.094.855-3.297 1.183-4.676.328-1.379.851-3.859 1.18-5.265.328-1.406.855-3.7 1.18-4.867.327-1.168 1.183-3.563 1.183-3.563" transform="matrix(1 0 0 -1 1.285 40.609)"/><path style="fill:none;stroke-width:.59776;stroke-linecap:butt;stroke-linejoin:miter;stroke:#1450cc;stroke-opacity:1;stroke-miterlimit:10" d="M0 14.148s.852 4.121 1.18 5.531c.328 1.414.855 3.59 1.183 4.66.329 1.067.852 2.493 1.18 3.047.328.559.856 1.004 1.18.961.328-.043.855-.644 1.183-1.281.329-.637.852-2.187 1.18-3.32.328-1.133.856-3.39 1.184-4.836.324-1.446.851-4.051 1.18-5.586.328-1.531.85-4.078 1.18-5.457.327-1.375.855-3.461 1.183-4.465.328-1.004.851-2.297 1.18-2.766.327-.472.85-.77 1.179-.636.328.132.855.879 1.184 1.597.328.719.851 2.39 1.18 3.582.327 1.188.855 3.524 1.179 4.996.328 1.473.855 4.098 1.184 5.621.328 1.524.851 4.028 1.18 5.364.327 1.336.855 3.324 1.183 4.258.324.933.851 2.093 1.18 2.48.328.383.851.527 1.18.305.327-.223.855-1.114 1.183-1.91.328-.797.851-2.582 1.18-3.829.328-1.246.855-3.644 1.18-5.14.327-1.496 1.183-5.64 1.183-5.64" transform="matrix(1 0 0 -1 1.285 40.609)"/><use xlink:href="#a" x="66.323" y="6.788" style="fill:#000;fill-opacity:1"/><path style="fill:none;stroke-width:.59776;stroke-linecap:butt;stroke-linejoin:miter;stroke:#1450cc;stroke-opacity:1;stroke-miterlimit:10" d="M-19.924.002s2.906 1.508 4.98 1.324c2.075-.184 7.891-2.469 9.961-2.652C-2.909-1.51.002.002.002.002" transform="matrix(1 0 0 -1 61.346 4.576)"/><use xlink:href="#b" x="104.802" y="6.788" style="fill:#000;fill-opacity:1"/><path style="fill:none;stroke-width:.59776;stroke-linecap:butt;stroke-linejoin:miter;stroke:#2114cc;stroke-opacity:1;stroke-miterlimit:10" d="M-19.927.002s2.91 1.508 4.98 1.324c2.075-.184 7.892-2.469 9.966-2.652C-2.907-1.51-.001.002-.001.002" transform="matrix(1 0 0 -1 99.825 4.576)"/><use xlink:href="#c" x="66.323" y="17.746" style="fill:#000;fill-opacity:1"/><path style="fill:none;stroke-width:.59776;stroke-linecap:butt;stroke-linejoin:miter;stroke:#c414cc;stroke-opacity:1;stroke-miterlimit:10" d="M-19.924 0s2.906 1.512 4.98 1.328c2.075-.184 7.891-2.473 9.961-2.656C-2.909-1.512.002 0 .002 0" transform="matrix(1 0 0 -1 61.346 15.535)"/><use xlink:href="#d" x="104.802" y="17.746" style="fill:#000;fill-opacity:1"/><path style="fill:none;stroke-width:.59776;stroke-linecap:butt;stroke-linejoin:miter;stroke:#cc148c;stroke-opacity:1;stroke-miterlimit:10" d="M-19.927 0s2.91 1.512 4.98 1.328c2.075-.184 7.892-2.473 9.966-2.656C-2.907-1.512-.001 0-.001 0" transform="matrix(1 0 0 -1 99.825 15.535)"/><use xlink:href="#e" x="66.323" y="28.705" style="fill:#000;fill-opacity:1"/><path style="fill:none;stroke-width:.59776;stroke-linecap:butt;stroke-linejoin:miter;stroke:#cc3f14;stroke-opacity:1;stroke-miterlimit:10" d="M-19.924.002s2.906 1.508 4.98 1.324c2.075-.184 7.891-2.469 9.961-2.652C-2.909-1.51.002.002.002.002" transform="matrix(1 0 0 -1 61.346 26.494)"/><use xlink:href="#f" x="104.802" y="28.705" style="fill:#000;fill-opacity:1"/><path style="fill:none;stroke-width:.59776;stroke-linecap:butt;stroke-linejoin:miter;stroke:#cc8714;stroke-opacity:1;stroke-miterlimit:10" d="M-19.927.002s2.91 1.508 4.98 1.324c2.075-.184 7.892-2.469 9.966-2.652C-2.907-1.51-.001.002-.001.002" transform="matrix(1 0 0 -1 99.825 26.494)"/><use xlink:href="#g" x="66.323" y="39.664" style="fill:#000;fill-opacity:1"/><path style="fill:none;stroke-width:.59776;stroke-linecap:butt;stroke-linejoin:miter;stroke:#6ecc14;stroke-opacity:1;stroke-miterlimit:10" d="M-19.924 0s2.906 1.512 4.98 1.328c2.075-.184 7.891-2.473 9.961-2.656C-2.909-1.512.002 0 .002 0" transform="matrix(1 0 0 -1 61.346 37.453)"/><use xlink:href="#h" x="66.323" y="50.623" style="fill:#000;fill-opacity:1"/><g clip-path="url(#i)"><path style="fill:none;stroke-width:.59776;stroke-linecap:butt;stroke-linejoin:miter;stroke:#14cca5;stroke-opacity:1;stroke-miterlimit:10" d="M-19.924 0s2.906 1.513 4.98 1.329c2.075-.188 7.891-2.473 9.961-2.656C-2.909-1.511.002 0 .002 0" transform="matrix(1 0 0 -1 61.346 48.411)"/></g></svg>