<svg xmlns="http://www.w3.org/2000/svg" xmlns:xlink="http://www.w3.org/1999/xlink" width="17.777" height="22.415" viewBox="0 0 13.333 16.811" version="1.2"><defs><symbol overflow="visible" id="a"><path style="stroke:none" d="M-4.36 6.11c0 .421.36.874 1.141.874.969 0 2.047-.421 2.047-1.546V4.421h.75v-.469h-.75V.47h.688V0l-1.25.031C-2.11.031-2.75.031-3.11 0v.469h.859v3.484h-1.14v.469h1.203v1.016c0 1.093-.75 1.187-1 1.187-.047 0-.11 0-.172-.031a.585.585 0 0 0 .234-.485c0-.421-.36-.609-.61-.609-.296 0-.624.203-.624.61Zm0 0"/></symbol></defs><path style="fill:none;stroke-width:1.19553;stroke-linecap:butt;stroke-linejoin:miter;stroke:#00f;stroke-opacity:1;stroke-miterlimit:10" d="M-5.069-6.808H5.068V6.806H-5.07Zm0 0" transform="matrix(-1 0 0 1 6.333 8.312)"/><use xlink:href="#a" x="8.082" y="4.824" style="fill:#000;fill-opacity:1"/></svg>