<svg xmlns="http://www.w3.org/2000/svg" width="29.268" height="9.219" viewBox="0 0 21.951 6.914" version="1.2"><defs><clipPath id="a"><path d="M0 0h21.926v6.871H0Zm0 0"/></clipPath><clipPath id="b"><path d="M3 0h18.926v6.871H3Zm0 0"/></clipPath></defs><path style="fill:none;stroke-width:.79701;stroke-linecap:butt;stroke-linejoin:miter;stroke:#000;stroke-opacity:1;stroke-miterlimit:10" d="M0 2.213h6.058" transform="matrix(1 0 0 -1 .985 5.631)"/><path style="stroke:none;fill-rule:nonzero;fill:#000;fill-opacity:1" d="M11.574 3.418c-.554-.137-3.004-.918-4.531-1.77v3.543C8.57 4.34 11.02 3.56 11.574 3.418Zm0 0"/><g clip-path="url(#a)"><path style="fill:none;stroke-width:.79701;stroke-linecap:butt;stroke-linejoin:miter;stroke:#000;stroke-opacity:1;stroke-miterlimit:10" d="M4.532.001C3.978.138 1.528.92.002 1.771v-3.543C1.527-.921 3.977-.14 4.531 0Zm0 0" transform="matrix(1 0 0 -1 7.042 3.42)"/></g><path style="stroke:none;fill-rule:nonzero;fill:#000;fill-opacity:1" d="M19.266 3.418c-.555-.137-3.004-.918-4.532-1.77v3.543c1.528-.851 3.977-1.632 4.532-1.773Zm0 0"/><g clip-path="url(#b)"><path style="fill:none;stroke-width:.79701;stroke-linecap:butt;stroke-linejoin:miter;stroke:#000;stroke-opacity:1;stroke-miterlimit:10" d="M4.533.001C3.978.138 1.529.92 0 1.771v-3.543C1.53-.921 3.978-.14 4.533 0Zm0 0" transform="matrix(1 0 0 -1 14.733 3.42)"/></g></svg>