<svg xmlns="http://www.w3.org/2000/svg" width="42.541" height="10.155" viewBox="0 0 31.906 7.616" version="1.2"><defs><clipPath id="a"><path d="M0 0h31.86v7.426H0Zm0 0"/></clipPath><clipPath id="b"><path d="M0 0h31.86v7.426H0Zm0 0"/></clipPath></defs><path style="fill:none;stroke-width:1.59404;stroke-linecap:butt;stroke-linejoin:miter;stroke:#000;stroke-opacity:1;stroke-miterlimit:10" d="M-.001 2.21h19.508" transform="matrix(1 0 0 -1 .962 5.824)"/><path style="stroke:none;fill-rule:nonzero;fill:#000;fill-opacity:1" d="M17.52 3.613c0-1.105-2.145-2-4.793-2-2.645 0-4.79.895-4.79 2 0 1.102 2.145 1.996 4.79 1.996 2.648 0 4.793-.894 4.793-1.996Zm0 0"/><g clip-path="url(#a)"><path style="fill:none;stroke-width:1.59404;stroke-linecap:butt;stroke-linejoin:miter;stroke:#000;stroke-opacity:1;stroke-miterlimit:10" d="M10.38-.001c0 1.105-2.144 2-4.792 2-2.645 0-4.79-.895-4.79-2 0-1.102 2.145-1.996 4.79-1.996 2.648 0 4.793.894 4.793 1.996Zm0 0" transform="matrix(1 0 0 -1 7.139 3.612)"/></g><path style="stroke:none;fill-rule:nonzero;fill:#000;fill-opacity:1" d="M30.055 3.613c0-1.105-2.149-2-4.793-2-2.649 0-4.793.895-4.793 2 0 1.102 2.144 1.996 4.793 1.996 2.644 0 4.793-.894 4.793-1.996Zm0 0"/><g clip-path="url(#b)"><path style="fill:none;stroke-width:1.59404;stroke-linecap:butt;stroke-linejoin:miter;stroke:#000;stroke-opacity:1;stroke-miterlimit:10" d="M10.383-.001c0 1.105-2.149 2-4.793 2-2.649 0-4.793-.895-4.793-2 0-1.102 2.144-1.996 4.793-1.996 2.644 0 4.793.894 4.793 1.996Zm0 0" transform="matrix(1 0 0 -1 19.672 3.612)"/></g></svg>