<svg xmlns="http://www.w3.org/2000/svg" width="116.341" height="97.299" viewBox="0 0 87.256 72.974" version="1.2"><path style="fill:none;stroke-width:.19925;stroke-linecap:butt;stroke-linejoin:miter;stroke:gray;stroke-opacity:1;stroke-miterlimit:10" d="M.001-.001h85.04M0 28.346h85.04M0 56.682h85.04M0 0v56.695M28.345 0v56.695M56.693 0v56.695M85.029 0v56.695" transform="matrix(1 0 0 -1 .737 57.78)"/><path style="stroke:none;fill-rule:nonzero;fill:#000;fill-opacity:1" d="M31.078 15.262a1.997 1.997 0 0 0-1.996-1.996 1.996 1.996 0 0 0-1.992 1.996c0 1.097.894 1.992 1.992 1.992a1.996 1.996 0 0 0 1.996-1.992ZM59.422 69.96a1.993 1.993 0 1 0-3.983.002 1.993 1.993 0 0 0 3.983-.001Zm0 0"/></svg>