<svg xmlns="http://www.w3.org/2000/svg" width="116.484" height="78.531" viewBox="0 0 87.363 58.898" version="1.2"><defs><clipPath id="a"><path d="M0 23h87.043v35.848H0Zm0 0"/></clipPath></defs><path style="fill:none;stroke-width:.19925;stroke-linecap:butt;stroke-linejoin:miter;stroke:gray;stroke-opacity:1;stroke-miterlimit:10" d="M-.002 0h85.043M-.002 28.347h85.043M-.002 56.683h85.043M-.002 0v56.695M28.346 0v56.695M56.694 0v56.695M85.03 0v56.695" transform="matrix(1 0 0 -1 .88 57.742)"/><g clip-path="url(#a)"><path style="fill:none;stroke-width:.3985;stroke-linecap:butt;stroke-linejoin:miter;stroke:#000;stroke-opacity:1;stroke-miterlimit:10" d="M-.002 0c.121.828.79 1.574 1.97 1.969l37.784 12.593c1.18.395 1.848 1.14 1.97 1.97.589-.59 1.573-.786 2.753-.395L82.256 28.73c1.184.395 2.168.2 2.758-.394" transform="matrix(1 0 0 -1 .88 57.742)"/></g></svg>