<svg xmlns="http://www.w3.org/2000/svg" xmlns:xlink="http://www.w3.org/1999/xlink" width="116.603" height="210.243" viewBox="0 0 87.452 157.682" version="1.2"><defs><symbol overflow="visible" id="a"><path style="stroke:none" d="M4.922 0v-.469h-1.39v-5.734c0-.234 0-.328-.266-.328-.11 0-.125 0-.22.078-.765.562-1.796.562-2 .562H.845v.47h.203c.156 0 .703-.016 1.297-.204v5.156H.954V0c.437-.031 1.5-.031 1.984-.031s1.546 0 1.984.031Zm0 0"/></symbol><symbol overflow="visible" id="b"><path style="stroke:none" d="M5.156-2.219h-.468c-.032.203-.125.844-.266.906-.11.063-.86.063-1.016.063H1.937c.47-.39 1-.813 1.438-1.14 1.14-.844 1.781-1.313 1.781-2.25 0-1.157-1.047-1.891-2.437-1.891-1.219 0-2.156.625-2.156 1.515 0 .594.484.735.718.735C1.61-4.281 2-4.5 2-5c0-.516-.422-.672-.563-.719.282-.234.672-.343 1.032-.343.844 0 1.312.671 1.312 1.421 0 .688-.375 1.375-1.078 2.079l-2 2.046c-.14.11-.14.141-.14.344V0h4.28Zm0 0"/></symbol><symbol overflow="visible" id="c"><path style="stroke:none" d="M5.25-1.797c0-.547-.297-1.406-1.734-1.719.687-.203 1.406-.765 1.406-1.625 0-.765-.75-1.39-2.156-1.39-1.188 0-1.97.64-1.97 1.437 0 .422.313.703.688.703a.668.668 0 0 0 .704-.687c0-.578-.547-.688-.579-.703.344-.282.782-.36 1.094-.36.828 0 .86.641.86.97 0 .124-.016 1.437-1.047 1.5-.407.015-.438.015-.485.03-.094.016-.125.11-.125.172 0 .172.11.172.282.172h.437c1.094 0 1.094.985 1.094 1.5 0 .469 0 1.484-1.031 1.484-.266 0-.782-.046-1.266-.343C1.75-.75 2-1 2-1.406c0-.453-.313-.75-.75-.75-.422 0-.766.265-.766.765 0 .907.97 1.5 2.25 1.5 1.782 0 2.516-1 2.516-1.906Zm0 0"/></symbol><symbol overflow="visible" id="d"><path style="stroke:none" d="m2.703 4.688.406-.235-.484-.844.953-.546.485.843.406-.234-.485-.844L7.61.734c.22-.125.266-.171.125-.421-.109-.188-.125-.188-.328-.22L1.922-.75l-.406.234 1.437 2.5L2 2.531l-.563-.969-.406.235c.219.312.672 1.094.89 1.469.204.343.626 1.093.782 1.421Zm.703-2.844L2.187-.281l3.876.594Zm0 0"/></symbol><symbol overflow="visible" id="u"><path style="stroke:none" d="m2.453 4.266.406-.235-.687-1.203L7.14-.032c.203-.124.28-.171.14-.405-.047-.094-.062-.11-.172-.141-.875-.39-1.39-1.281-1.5-1.453l-.093-.172-.391.234.094.172c.078.14.36.594.828 1.016L1.578 1.797.875.594.469.828c.25.36.781 1.281 1.031 1.703.234.422.766 1.344.953 1.735Zm0 0"/></symbol><symbol overflow="visible" id="v"><path style="stroke:none" d="M4.188 3.656c.468-.281 1.062-.953.609-2.36.516.485 1.36.829 2.11.407.655-.39.827-1.36.124-2.578-.593-1.031-1.547-1.375-2.234-.984-.36.218-.453.625-.266.953.235.39.657.437.953.265.5-.296.329-.812.313-.859.422.156.703.5.86.781C7.077 0 6.546.328 6.265.5 6.156.563 5 1.219 4.437.344 4.22 0 4.204-.031 4.173-.046c-.063-.095-.156-.063-.219-.032-.14.094-.094.187 0 .328l.219.375c.547.953-.313 1.438-.75 1.703-.406.235-1.297.735-1.813-.156A2.512 2.512 0 0 1 1.266.906c.265.235.593.328.953.125.39-.218.5-.64.281-1.031-.219-.36-.625-.516-1.063-.266-.78.454-.812 1.579-.171 2.688.89 1.531 2.125 1.687 2.921 1.234Zm0 0"/></symbol><symbol overflow="visible" id="i"><path style="stroke:none" d="M-.844 5.469c1 .578 2.203.343 2.938-.938.14-.234.375-.718.344-1.281l1.14.656c-.187.235-.281.313-.437.594-.735 1.266-.204 2.625.015 2.75.063.031.156.078.219-.031.016-.032.016-.032.031-.157a4.13 4.13 0 0 1 .531-1.468c.376-.64.813-1 1-1.203.079-.063.094-.047.11-.063.078-.125-.016-.187-.156-.266L2.359 2.61c-.14-.093-.25-.156-.359.032-.063.109-.047.156-.016.25.204.578.016 1.078-.187 1.437-.438.766-1.188.328-1.89-.078-.626-.36-1.5-.86-.907-1.89.125-.22.5-.72 1.188-.813-.157.312-.094.703.25.906.468.266.796-.047.921-.25.063-.11.25-.625-.28-.937-.72-.422-1.845-.157-2.454.921-.797 1.376-.531 2.672.531 3.282Zm0 0"/></symbol><symbol overflow="visible" id="y"><path style="stroke:none" d="m-2.453 4.266.406.234.688-1.203 4.968 2.86c.204.124.282.171.422-.063.047-.094.063-.11.047-.235-.125-.953.39-1.843.5-2.015l.094-.172-.39-.235-.095.172c-.078.141-.359.625-.484 1.235L-.766 2.266l.704-1.204L-.47.829c-.187.39-.719 1.313-.969 1.735-.234.421-.765 1.343-1.015 1.703Zm0 0"/></symbol><symbol overflow="visible" id="z"><path style="stroke:none" d="m-2.703 4.688.406.234.485-.844.953.547-.485.844.407.234.484-.844 3.625 2.094c.219.125.297.14.437-.11.11-.187.094-.187.016-.374L1.609 1.28l-.406-.234-1.437 2.5L-1.188 3l.563-.969-.406-.234c-.157.344-.61 1.125-.828 1.5-.204.344-.625 1.094-.844 1.39Zm2.828-.813L1.344 1.75 2.78 5.406Zm0 0"/></symbol><symbol overflow="visible" id="j"><path style="stroke:none" d="M-4.39-3.531c-1.22.703-1.329 1.937-.735 2.984.11.188.39.672 1.266.672l-.157.094C-5 .78-5.484.813-5.64.829A1.624 1.624 0 0 1-7.062.03c-.079-.156-.235-.469-.157-.781.235.281.563.328.813.172a.612.612 0 0 0 .234-.86c-.203-.343-.547-.406-.875-.218-.531.312-.875 1-.344 1.906.672 1.172 2.25 2.156 4.422.906.672-.39 1.328-.86 1.719-1.578.422-.781.25-1.531-.11-2.14-.687-1.188-1.874-1.641-3.03-.97Zm.671 1.187c.86-.5 1.516-.875 2.016.016.266.437.047.86-.047 1.015-.203.297-.828.657-.984.75-1.079.625-1.75.407-2.032-.078-.468-.828.172-1.203 1.047-1.703Zm0 0"/></symbol><symbol overflow="visible" id="r"><path style="stroke:none" d="m-2.453-4.266-.406.235.687 1.203L-7.14.032c-.203.124-.28.171-.14.405.047.094.062.11.172.141.875.39 1.39 1.281 1.5 1.453l.093.172.391-.234-.094-.172A4.282 4.282 0 0 0-6.047.78l4.469-2.578.703 1.203.406-.234c-.25-.36-.781-1.281-1.031-1.703-.234-.422-.766-1.344-.953-1.735Zm0 0"/></symbol><symbol overflow="visible" id="k"><path style="stroke:none" d="m-2.781-8.016-1.016 1.75c-.125.204-.906 1.454-1 1.547-.14.172-.219.14-.312.094l-.235.406 2.016 1.563.234-.39c-.61-.485-.656-.657-.64-.688-.016-.125.39-.829.484-.985l.828-1.437c.11.25.203.5.297.781.484 1.39 1.297 2.672 2.563 3.406.609.344.89-.14.921-.187.079-.14.266-.563-.296-.89l-.407-.235c-.406-.235-.812-.5-1.187-.781-.531-.422-.922-.875-1.094-1.391l-.781-2.25c-.047-.125-.078-.14-.375-.313Zm0 0"/></symbol><symbol overflow="visible" id="s"><path style="stroke:none" d="M2.453-4.266 2.047-4.5l-.688 1.203-4.968-2.86c-.204-.124-.282-.171-.422.063-.047.094-.063.11-.047.235.125.953-.39 1.843-.5 2.015l-.094.172.39.235.095-.172c.078-.141.359-.625.484-1.235L.766-2.266.062-1.062l.407.234c.187-.39.719-1.313.969-1.735.234-.421.765-1.343 1.015-1.703Zm0 0"/></symbol><symbol overflow="visible" id="t"><path style="stroke:none" d="m.656-5.578-.234.406c.156.14.672.531.64.688.016.125-.359.78-.437.906l-.734 1.281a29.958 29.958 0 0 1-.266-1.812c-.172-1.407-.25-2.204-1.063-2.672-1-.578-2.171-.047-2.859 1.156-.61 1.063-.531 2.188.234 2.64.516.297.875-.062 1-.265.157-.281.172-.734-.265-.984-.453-.25-.797.046-.906.125-.063-.344.03-.75.218-1.063.422-.734 1.235-.797 1.891-.422.594.344 1 1.016 1.25 1.969l.766 2.766c.03.171.062.187.234.296l.156.079 2.14-3.704Zm0 0"/></symbol><symbol overflow="visible" id="l"><path style="stroke:none" d="M-5.25 1.86c0 1.077.844 1.546 1.328 1.827-.687.36-1 .797-1 1.376 0 1.015.906 1.468 2.047 1.468 1.375 0 2.078-.797 2.078-1.75 0-.437-.187-1.062-.953-1.5.828-.375 1.266-.937 1.266-1.672 0-1.203-1.079-1.718-2.36-1.718-1.594 0-2.406.875-2.406 1.968Zm1.078 3.187c0-.484.25-.813.688-1.11l1.5.844c.156.078.437.25.437.594 0 .703-.89.766-1.297.766-.828 0-1.328-.407-1.328-1.094Zm-.219-3.734c0-.829.938-1 1.516-1 .969 0 1.547.515 1.547 1.296 0 .766-.531 1.204-.89 1.407l-1.36-.766c-.438-.25-.813-.453-.813-.938Zm0 0"/></symbol><symbol overflow="visible" id="m"><path style="stroke:none" d="M-5.25 3.281c0 .672 0 3.25 2.375 3.25 1.406 0 2.39-.812 2.39-2.14 0-1.375-.984-2.125-2.203-2.125-.359 0-.828.062-1.203.765v-.219c0-.734.094-1.312.235-1.656.172-.39.61-.843 1.297-.843.171 0 .53.03.828.218-.11.031-.485.172-.485.625 0 .344.235.625.625.625.391 0 .625-.265.625-.64 0-.688-.515-1.25-1.609-1.25-1.297 0-2.875.843-2.875 3.39Zm1.375.985c0-.625.25-1.641 1.094-1.641.953 0 .953.75.953 1.734 0 .985 0 1.782-1.078 1.782-.578 0-.813-.532-.86-.625-.109-.329-.109-.907-.109-1.25Zm0 0"/></symbol><symbol overflow="visible" id="n"><path style="stroke:none" d="M-4.922 0v.469h1.39v5.734c0 .234 0 .328.266.328.11 0 .125 0 .22-.078.765-.562 1.796-.562 2-.562h.202v-.47h-.203c-.156 0-.703.016-1.297.204V.469h1.39V0c-.437.031-1.5.031-1.984.031S-4.484.031-4.921 0Zm0 0"/></symbol><symbol overflow="visible" id="o"><path style="stroke:none" d="M-5.281 3.188c0 .953.015 3.343 2.422 3.343 2.406 0 2.406-2.375 2.406-3.343 0-1 0-3.297-2.406-3.297-2.391 0-2.422 2.296-2.422 3.296ZM-4 3.296c0-.563 0-1.469.078-1.985C-3.782.391-3.156.25-2.859.25c.359 0 .921.219 1.046.953.094.516.094 1.547.094 2.094 0 .719 0 1.375-.078 1.89-.125.891-.828.985-1.062.985-.375 0-.782-.188-.97-.625C-4 5.172-4 4.109-4 3.297Zm0 0"/></symbol><clipPath id="e"><path d="M74 3h13.18v22H74Zm0 0"/></clipPath><clipPath id="f"><path d="M71 1h16.18v27H71Zm0 0"/></clipPath><clipPath id="g"><path d="M74 18h13.18v22H74Zm0 0"/></clipPath><clipPath id="h"><path d="M71 15h16.18v27H71Zm0 0"/></clipPath><clipPath id="p"><path d="M20 135h21v22.523H20Zm0 0"/></clipPath><clipPath id="q"><path d="M46 135h21v22.523H46Zm0 0"/></clipPath><clipPath id="w"><path d="M71 77h16.18v27H71Zm0 0"/></clipPath><clipPath id="x"><path d="M71 91h16.18v27H71Zm0 0"/></clipPath></defs><use xlink:href="#a" x="40.587" y="68.918" style="fill:#000;fill-opacity:1"/><use xlink:href="#b" x="40.587" y="39.46" style="fill:#000;fill-opacity:1"/><use xlink:href="#c" x="40.587" y="16.172" style="fill:#000;fill-opacity:1"/><path style="fill:none;stroke-width:.19925;stroke-linecap:butt;stroke-linejoin:miter;stroke:gray;stroke-opacity:1;stroke-miterlimit:10" d="M-.002 75.924h17.008" transform="matrix(1 0 0 -1 34.947 80.385)"/><path style="fill:none;stroke-width:.3985;stroke-linecap:butt;stroke-linejoin:miter;stroke:#000;stroke-opacity:1;stroke-miterlimit:10" d="m-.002 75.924 8.504 3.402 8.504-3.402M17.006 75.924V58.916" transform="matrix(1 0 0 -1 34.947 80.385)"/><path style="fill:none;stroke-width:.19925;stroke-linecap:butt;stroke-linejoin:miter;stroke:gray;stroke-opacity:1;stroke-miterlimit:10" d="M17.006 58.916H-.002" transform="matrix(1 0 0 -1 34.947 80.385)"/><path style="fill:none;stroke-width:.3985;stroke-linecap:butt;stroke-linejoin:miter;stroke:#000;stroke-opacity:1;stroke-miterlimit:10" d="M-.002 58.916v17.008" transform="matrix(1 0 0 -1 34.947 80.385)"/><use xlink:href="#d" x="64.701" y="20.621" style="fill:#000;fill-opacity:1"/><g clip-path="url(#e)"><path style="fill:none;stroke-width:.19925;stroke-linecap:butt;stroke-linejoin:miter;stroke:gray;stroke-opacity:1;stroke-miterlimit:10" d="m42.522 73.647 8.504-14.73" transform="matrix(1 0 0 -1 34.947 80.385)"/></g><g clip-path="url(#f)"><path style="fill:none;stroke-width:.3985;stroke-linecap:butt;stroke-linejoin:miter;stroke:#000;stroke-opacity:1;stroke-miterlimit:10" d="m42.522 73.647 7.195-5.664 1.309-9.067" transform="matrix(1 0 0 -1 34.947 80.385)"/></g><g clip-path="url(#g)"><path style="fill:none;stroke-width:.19925;stroke-linecap:butt;stroke-linejoin:miter;stroke:gray;stroke-opacity:1;stroke-miterlimit:10" d="M51.026 58.916 42.522 44.19" transform="matrix(1 0 0 -1 34.947 80.385)"/></g><g clip-path="url(#h)"><path style="fill:none;stroke-width:.3985;stroke-linecap:butt;stroke-linejoin:miter;stroke:#000;stroke-opacity:1;stroke-miterlimit:10" d="m51.026 58.916-1.309-9.062-7.195-5.664" transform="matrix(1 0 0 -1 34.947 80.385)"/></g><path style="fill:none;stroke-width:.19925;stroke-linecap:butt;stroke-linejoin:miter;stroke:gray;stroke-opacity:1;stroke-miterlimit:10" d="M42.522 44.19H25.514" transform="matrix(1 0 0 -1 34.947 80.385)"/><path style="fill:none;stroke-width:.3985;stroke-linecap:butt;stroke-linejoin:miter;stroke:#000;stroke-opacity:1;stroke-miterlimit:10" d="m42.522 44.19-8.504-3.403-8.504 3.403" transform="matrix(1 0 0 -1 34.947 80.385)"/><path style="fill:none;stroke-width:.19925;stroke-linecap:butt;stroke-linejoin:miter;stroke:gray;stroke-opacity:1;stroke-miterlimit:10" d="m25.514 44.19-8.508 14.726M17.006 58.916l8.508 14.73" transform="matrix(1 0 0 -1 34.947 80.385)"/><path style="fill:none;stroke-width:.3985;stroke-linecap:butt;stroke-linejoin:miter;stroke:#000;stroke-opacity:1;stroke-miterlimit:10" d="m17.006 58.916 1.309 9.067 7.199 5.664" transform="matrix(1 0 0 -1 34.947 80.385)"/><path style="fill:none;stroke-width:.19925;stroke-linecap:butt;stroke-linejoin:miter;stroke:gray;stroke-opacity:1;stroke-miterlimit:10" d="M25.514 73.647h17.008" transform="matrix(1 0 0 -1 34.947 80.385)"/><path style="fill:none;stroke-width:.3985;stroke-linecap:butt;stroke-linejoin:miter;stroke:#000;stroke-opacity:1;stroke-miterlimit:10" d="m25.514 73.647 8.504 3.402 8.504-3.402" transform="matrix(1 0 0 -1 34.947 80.385)"/><use xlink:href="#i" x="62.225" y="43.729" style="fill:#000;fill-opacity:1"/><path style="fill:none;stroke-width:.19925;stroke-linecap:butt;stroke-linejoin:miter;stroke:gray;stroke-opacity:1;stroke-miterlimit:10" d="m40.24 35.686-8.503-14.73" transform="matrix(1 0 0 -1 34.947 80.385)"/><path style="fill:none;stroke-width:.3985;stroke-linecap:butt;stroke-linejoin:miter;stroke:#000;stroke-opacity:1;stroke-miterlimit:10" d="m40.24 35.686-1.304-9.067-7.2-5.664" transform="matrix(1 0 0 -1 34.947 80.385)"/><path style="fill:none;stroke-width:.19925;stroke-linecap:butt;stroke-linejoin:miter;stroke:gray;stroke-opacity:1;stroke-miterlimit:10" d="m31.737 20.955-14.73 8.504" transform="matrix(1 0 0 -1 34.947 80.385)"/><path style="fill:none;stroke-width:.3985;stroke-linecap:butt;stroke-linejoin:miter;stroke:#000;stroke-opacity:1;stroke-miterlimit:10" d="M31.737 20.955 22.67 22.26l-5.664 7.2" transform="matrix(1 0 0 -1 34.947 80.385)"/><path style="fill:none;stroke-width:.19925;stroke-linecap:butt;stroke-linejoin:miter;stroke:gray;stroke-opacity:1;stroke-miterlimit:10" d="m17.006 29.46 8.508 14.73" transform="matrix(1 0 0 -1 34.947 80.385)"/><path style="fill:none;stroke-width:.3985;stroke-linecap:butt;stroke-linejoin:miter;stroke:#000;stroke-opacity:1;stroke-miterlimit:10" d="m25.514 44.19 14.726-8.504" transform="matrix(1 0 0 -1 34.947 80.385)"/><path style="fill:none;stroke-width:.19925;stroke-linecap:butt;stroke-linejoin:miter;stroke:gray;stroke-opacity:1;stroke-miterlimit:10" d="M17.006 29.46H-.002" transform="matrix(1 0 0 -1 34.947 80.385)"/><use xlink:href="#j" x="27.541" y="48.69" style="fill:#000;fill-opacity:1"/><path style="fill:none;stroke-width:.19925;stroke-linecap:butt;stroke-linejoin:miter;stroke:gray;stroke-opacity:1;stroke-miterlimit:10" d="m-14.728 20.955-8.504 14.73" transform="matrix(1 0 0 -1 34.947 80.385)"/><path style="fill:none;stroke-width:.3985;stroke-linecap:butt;stroke-linejoin:miter;stroke:#000;stroke-opacity:1;stroke-miterlimit:10" d="m-14.728 20.955-7.2 5.664-1.304 9.067M-23.232 35.686l14.726 8.504" transform="matrix(1 0 0 -1 34.947 80.385)"/><path style="fill:none;stroke-width:.19925;stroke-linecap:butt;stroke-linejoin:miter;stroke:gray;stroke-opacity:1;stroke-miterlimit:10" d="m-8.506 44.19 8.504-14.73M-.002 29.46l-14.726-8.505" transform="matrix(1 0 0 -1 34.947 80.385)"/><path style="fill:none;stroke-width:.3985;stroke-linecap:butt;stroke-linejoin:miter;stroke:#000;stroke-opacity:1;stroke-miterlimit:10" d="m-.002 29.46-5.664-7.2-9.062-1.305" transform="matrix(1 0 0 -1 34.947 80.385)"/><use xlink:href="#k" x="19.376" y="25.604" style="fill:#000;fill-opacity:1"/><path style="fill:none;stroke-width:.19925;stroke-linecap:butt;stroke-linejoin:miter;stroke:gray;stroke-opacity:1;stroke-miterlimit:10" d="m-34.017 58.916 8.504 14.73" transform="matrix(1 0 0 -1 34.947 80.385)"/><path style="fill:none;stroke-width:.3985;stroke-linecap:butt;stroke-linejoin:miter;stroke:#000;stroke-opacity:1;stroke-miterlimit:10" d="m-34.017 58.916 1.308 9.067 7.196 5.664" transform="matrix(1 0 0 -1 34.947 80.385)"/><path style="fill:none;stroke-width:.19925;stroke-linecap:butt;stroke-linejoin:miter;stroke:gray;stroke-opacity:1;stroke-miterlimit:10" d="M-25.513 73.647h17.007" transform="matrix(1 0 0 -1 34.947 80.385)"/><path style="fill:none;stroke-width:.3985;stroke-linecap:butt;stroke-linejoin:miter;stroke:#000;stroke-opacity:1;stroke-miterlimit:10" d="m-25.513 73.647 8.504 3.402 8.503-3.402" transform="matrix(1 0 0 -1 34.947 80.385)"/><path style="fill:none;stroke-width:.19925;stroke-linecap:butt;stroke-linejoin:miter;stroke:gray;stroke-opacity:1;stroke-miterlimit:10" d="m-8.506 73.647 8.504-14.73" transform="matrix(1 0 0 -1 34.947 80.385)"/><path style="fill:none;stroke-width:.3985;stroke-linecap:butt;stroke-linejoin:miter;stroke:#000;stroke-opacity:1;stroke-miterlimit:10" d="m-8.506 73.647 7.2-5.664 1.304-9.067" transform="matrix(1 0 0 -1 34.947 80.385)"/><path style="fill:none;stroke-width:.19925;stroke-linecap:butt;stroke-linejoin:miter;stroke:gray;stroke-opacity:1;stroke-miterlimit:10" d="M-.002 58.916-8.506 44.19M-8.506 44.19h-17.007" transform="matrix(1 0 0 -1 34.947 80.385)"/><path style="fill:none;stroke-width:.3985;stroke-linecap:butt;stroke-linejoin:miter;stroke:#000;stroke-opacity:1;stroke-miterlimit:10" d="m-8.506 44.19-8.503-3.403-8.504 3.403" transform="matrix(1 0 0 -1 34.947 80.385)"/><path style="fill:none;stroke-width:.19925;stroke-linecap:butt;stroke-linejoin:miter;stroke:gray;stroke-opacity:1;stroke-miterlimit:10" d="m-25.513 44.19-8.504 14.726" transform="matrix(1 0 0 -1 34.947 80.385)"/><path style="fill:none;stroke-width:.3985;stroke-linecap:butt;stroke-linejoin:miter;stroke:#000;stroke-opacity:1;stroke-miterlimit:10" d="m-25.513 44.19-7.196 5.664-1.308 9.062M17.006 29.46l8.508-14.731" transform="matrix(1 0 0 -1 34.947 80.385)"/><path style="fill:none;stroke-width:.19925;stroke-linecap:butt;stroke-linejoin:miter;stroke:gray;stroke-opacity:1;stroke-miterlimit:10" d="M25.514 14.729 17.006-.001" transform="matrix(1 0 0 -1 34.947 80.385)"/><path style="fill:none;stroke-width:.3985;stroke-linecap:butt;stroke-linejoin:miter;stroke:#000;stroke-opacity:1;stroke-miterlimit:10" d="m25.514 14.729-1.309-9.067-7.199-5.664" transform="matrix(1 0 0 -1 34.947 80.385)"/><use xlink:href="#l" x="46.315" y="85.681" style="fill:#000;fill-opacity:1"/><use xlink:href="#m" x="46.315" y="108.914" style="fill:#000;fill-opacity:1"/><g style="fill:#000;fill-opacity:1"><use xlink:href="#n" x="49.18" y="138.372"/><use xlink:href="#o" x="43.451" y="138.372"/></g><path style="fill:none;stroke-width:.3985;stroke-linecap:butt;stroke-linejoin:miter;stroke:#000;stroke-opacity:1;stroke-miterlimit:10" d="M17.006-75.927H-.002" transform="matrix(1 0 0 -1 34.947 80.385)"/><g clip-path="url(#p)"><path style="fill:none;stroke-width:.3985;stroke-linecap:butt;stroke-linejoin:miter;stroke:#000;stroke-opacity:1;stroke-miterlimit:10" d="m-.002-75.927-8.504 14.73" transform="matrix(1 0 0 -1 34.947 80.385)"/></g><path style="fill:none;stroke-width:.19925;stroke-linecap:butt;stroke-linejoin:miter;stroke:gray;stroke-opacity:1;stroke-miterlimit:10" d="m-8.506-61.197 8.504 14.73" transform="matrix(1 0 0 -1 34.947 80.385)"/><path style="fill:none;stroke-width:.3985;stroke-linecap:butt;stroke-linejoin:miter;stroke:#000;stroke-opacity:1;stroke-miterlimit:10" d="m-8.506-61.197 1.309 9.066 7.195 5.664" transform="matrix(1 0 0 -1 34.947 80.385)"/><path style="fill:none;stroke-width:.19925;stroke-linecap:butt;stroke-linejoin:miter;stroke:gray;stroke-opacity:1;stroke-miterlimit:10" d="M-.002-46.467h17.008M17.006-46.467l8.508-14.73" transform="matrix(1 0 0 -1 34.947 80.385)"/><path style="fill:none;stroke-width:.3985;stroke-linecap:butt;stroke-linejoin:miter;stroke:#000;stroke-opacity:1;stroke-miterlimit:10" d="m17.006-46.467 7.2-5.664 1.308-9.066" transform="matrix(1 0 0 -1 34.947 80.385)"/><g clip-path="url(#q)"><path style="fill:none;stroke-width:.3985;stroke-linecap:butt;stroke-linejoin:miter;stroke:#000;stroke-opacity:1;stroke-miterlimit:10" d="m25.514-61.197-8.508-14.73" transform="matrix(1 0 0 -1 34.947 80.385)"/></g><g style="fill:#000;fill-opacity:1"><use xlink:href="#r" x="29.02" y="127.068"/><use xlink:href="#r" x="26.156" y="122.107"/></g><path style="fill:none;stroke-width:.3985;stroke-linecap:butt;stroke-linejoin:miter;stroke:#000;stroke-opacity:1;stroke-miterlimit:10" d="m-14.728-54.97-8.504 14.73" transform="matrix(1 0 0 -1 34.947 80.385)"/><path style="fill:none;stroke-width:.19925;stroke-linecap:butt;stroke-linejoin:miter;stroke:gray;stroke-opacity:1;stroke-miterlimit:10" d="m-23.232-40.24 14.726 8.504" transform="matrix(1 0 0 -1 34.947 80.385)"/><path style="fill:none;stroke-width:.3985;stroke-linecap:butt;stroke-linejoin:miter;stroke:#000;stroke-opacity:1;stroke-miterlimit:10" d="m-23.232-40.24 5.664 7.195 9.062 1.309" transform="matrix(1 0 0 -1 34.947 80.385)"/><path style="fill:none;stroke-width:.19925;stroke-linecap:butt;stroke-linejoin:miter;stroke:gray;stroke-opacity:1;stroke-miterlimit:10" d="m-8.506-31.736 8.504-14.73" transform="matrix(1 0 0 -1 34.947 80.385)"/><path style="fill:none;stroke-width:.3985;stroke-linecap:butt;stroke-linejoin:miter;stroke:#000;stroke-opacity:1;stroke-miterlimit:10" d="m-.002-46.467-14.726-8.503" transform="matrix(1 0 0 -1 34.947 80.385)"/><g style="fill:#000;fill-opacity:1"><use xlink:href="#s" x="17.901" y="103.985"/><use xlink:href="#t" x="20.765" y="99.024"/></g><path style="fill:none;stroke-width:.3985;stroke-linecap:butt;stroke-linejoin:miter;stroke:#000;stroke-opacity:1;stroke-miterlimit:10" d="m-34.017-17.01 8.504 14.73M-25.513-2.28h17.007M-8.506-2.28l8.504-14.73" transform="matrix(1 0 0 -1 34.947 80.385)"/><path style="fill:none;stroke-width:.19925;stroke-linecap:butt;stroke-linejoin:miter;stroke:gray;stroke-opacity:1;stroke-miterlimit:10" d="m-.002-17.01-8.504-14.726" transform="matrix(1 0 0 -1 34.947 80.385)"/><path style="fill:none;stroke-width:.3985;stroke-linecap:butt;stroke-linejoin:miter;stroke:#000;stroke-opacity:1;stroke-miterlimit:10" d="M-8.506-31.736h-17.007M-25.513-31.736l-8.504 14.726" transform="matrix(1 0 0 -1 34.947 80.385)"/><path style="fill:none;stroke-width:.19925;stroke-linecap:butt;stroke-linejoin:miter;stroke:gray;stroke-opacity:1;stroke-miterlimit:10" d="M-.002-17.01h17.008" transform="matrix(1 0 0 -1 34.947 80.385)"/><g style="fill:#000;fill-opacity:1"><use xlink:href="#u" x="63.32" y="94.036"/><use xlink:href="#v" x="66.184" y="98.997"/></g><g clip-path="url(#w)"><path style="fill:none;stroke-width:.3985;stroke-linecap:butt;stroke-linejoin:miter;stroke:#000;stroke-opacity:1;stroke-miterlimit:10" d="m42.522-2.28 8.504-14.73" transform="matrix(1 0 0 -1 34.947 80.385)"/></g><g clip-path="url(#x)"><path style="fill:none;stroke-width:.3985;stroke-linecap:butt;stroke-linejoin:miter;stroke:#000;stroke-opacity:1;stroke-miterlimit:10" d="m51.026-17.01-8.504-14.726" transform="matrix(1 0 0 -1 34.947 80.385)"/></g><path style="fill:none;stroke-width:.3985;stroke-linecap:butt;stroke-linejoin:miter;stroke:#000;stroke-opacity:1;stroke-miterlimit:10" d="M42.522-31.736H25.514" transform="matrix(1 0 0 -1 34.947 80.385)"/><path style="fill:none;stroke-width:.19925;stroke-linecap:butt;stroke-linejoin:miter;stroke:gray;stroke-opacity:1;stroke-miterlimit:10" d="M25.514-31.736 17.006-17.01" transform="matrix(1 0 0 -1 34.947 80.385)"/><path style="fill:none;stroke-width:.3985;stroke-linecap:butt;stroke-linejoin:miter;stroke:#000;stroke-opacity:1;stroke-miterlimit:10" d="m17.006-17.01 8.508 14.73M25.514-2.28h17.008" transform="matrix(1 0 0 -1 34.947 80.385)"/><g style="fill:#000;fill-opacity:1"><use xlink:href="#y" x="63.606" y="117.144"/><use xlink:href="#z" x="60.742" y="122.105"/></g><path style="fill:none;stroke-width:.3985;stroke-linecap:butt;stroke-linejoin:miter;stroke:#000;stroke-opacity:1;stroke-miterlimit:10" d="m40.24-40.24-8.503-14.73M31.737-54.97l-14.73 8.503" transform="matrix(1 0 0 -1 34.947 80.385)"/><path style="fill:none;stroke-width:.19925;stroke-linecap:butt;stroke-linejoin:miter;stroke:gray;stroke-opacity:1;stroke-miterlimit:10" d="m17.006-46.467 8.508 14.73M25.514-31.736 40.24-40.24" transform="matrix(1 0 0 -1 34.947 80.385)"/><path style="fill:none;stroke-width:.3985;stroke-linecap:butt;stroke-linejoin:miter;stroke:#000;stroke-opacity:1;stroke-miterlimit:10" d="m25.514-31.736 9.062-1.309 5.664-7.195" transform="matrix(1 0 0 -1 34.947 80.385)"/><path style="fill:none;stroke-width:.19925;stroke-linecap:butt;stroke-linejoin:miter;stroke:gray;stroke-opacity:1;stroke-miterlimit:10" d="M-.002-17.01V-.002" transform="matrix(1 0 0 -1 34.947 80.385)"/><path style="fill:none;stroke-width:.3985;stroke-linecap:butt;stroke-linejoin:miter;stroke:#000;stroke-opacity:1;stroke-miterlimit:10" d="M-.002-17.01-3.4-8.506-.002-.002" transform="matrix(1 0 0 -1 34.947 80.385)"/><path style="fill:none;stroke-width:.19925;stroke-linecap:butt;stroke-linejoin:miter;stroke:gray;stroke-opacity:1;stroke-miterlimit:10" d="M-.002-.002h17.008M17.006-.002V-17.01" transform="matrix(1 0 0 -1 34.947 80.385)"/><path style="fill:none;stroke-width:.3985;stroke-linecap:butt;stroke-linejoin:miter;stroke:#000;stroke-opacity:1;stroke-miterlimit:10" d="m17.006-.002 3.402-8.504-3.402-8.504" transform="matrix(1 0 0 -1 34.947 80.385)"/><path style="fill:none;stroke-width:.19925;stroke-linecap:butt;stroke-linejoin:miter;stroke:gray;stroke-opacity:1;stroke-miterlimit:10" d="m-.002-.002-8.504 14.73" transform="matrix(1 0 0 -1 34.947 80.385)"/><path style="fill:none;stroke-width:.3985;stroke-linecap:butt;stroke-linejoin:miter;stroke:#000;stroke-opacity:1;stroke-miterlimit:10" d="m-.002-.002-7.195 5.664-1.309 9.067M-8.506 14.729l8.504 14.73" transform="matrix(1 0 0 -1 34.947 80.385)"/></svg>