<svg xmlns="http://www.w3.org/2000/svg" width="40.764" height="40.731" viewBox="0 0 30.573 30.548" version="1.2"><defs><clipPath id="a"><path d="M0 18h30.36v12.32H0Zm0 0"/></clipPath><clipPath id="b"><path d="M0 13h30.36v17.32H0Zm0 0"/></clipPath><clipPath id="c"><path d="M0 9h30.36v21.32H0Zm0 0"/></clipPath><clipPath id="d"><path d="M6.672 14.95h8.504v8.503H6.672Zm0 0"/></clipPath><clipPath id="e"><path d="M0 0h17v30.32H0Zm0 0"/></clipPath><clipPath id="f"><path d="M0 0h12v30.32H0Zm0 0"/></clipPath></defs><path style="fill:none;stroke-width:.3985;stroke-linecap:butt;stroke-linejoin:miter;stroke:#000;stroke-opacity:1;stroke-miterlimit:10" d="M0 0h28.348" transform="matrix(1 0 0 -1 1.004 29.122)"/><g clip-path="url(#a)"><path style="fill:none;stroke-width:.3985;stroke-linecap:butt;stroke-linejoin:miter;stroke:#000;stroke-opacity:1;stroke-miterlimit:10" d="m0 0 27.914 4.923" transform="matrix(1 0 0 -1 1.004 29.122)"/></g><g clip-path="url(#b)"><path style="fill:none;stroke-width:.3985;stroke-linecap:butt;stroke-linejoin:miter;stroke:#000;stroke-opacity:1;stroke-miterlimit:10" d="m0 0 26.637 9.696" transform="matrix(1 0 0 -1 1.004 29.122)"/></g><g clip-path="url(#c)"><path style="fill:none;stroke-width:.3985;stroke-linecap:butt;stroke-linejoin:miter;stroke:#000;stroke-opacity:1;stroke-miterlimit:10" d="m0 0 24.547 14.173" transform="matrix(1 0 0 -1 1.004 29.122)"/></g><path style="stroke:none;fill-rule:nonzero;fill:red;fill-opacity:1" d="M6.672 23.453V14.95h8.504v8.504Zm0 0"/><g clip-path="url(#d)"><path style="fill:none;stroke-width:.3985;stroke-linecap:butt;stroke-linejoin:miter;stroke:#000;stroke-opacity:1;stroke-miterlimit:10" d="m0 0 21.715 18.22M0 0l18.22 21.716M0 0l14.172 24.548" transform="matrix(1 0 0 -1 1.004 29.122)"/></g><g clip-path="url(#e)"><path style="fill:none;stroke-width:.3985;stroke-linecap:butt;stroke-linejoin:miter;stroke:#000;stroke-opacity:1;stroke-miterlimit:10" d="m0 0 9.696 26.638" transform="matrix(1 0 0 -1 1.004 29.122)"/></g><g clip-path="url(#f)"><path style="fill:none;stroke-width:.3985;stroke-linecap:butt;stroke-linejoin:miter;stroke:#000;stroke-opacity:1;stroke-miterlimit:10" d="m0 0 4.922 27.915" transform="matrix(1 0 0 -1 1.004 29.122)"/></g><path style="fill:none;stroke-width:.3985;stroke-linecap:butt;stroke-linejoin:miter;stroke:#000;stroke-opacity:1;stroke-miterlimit:10" d="M0 0V28.35" transform="matrix(1 0 0 -1 1.004 29.122)"/></svg>