<svg xmlns="http://www.w3.org/2000/svg" width="153.877" height="42.747" viewBox="0 0 115.408 32.06" version="1.2"><defs><clipPath id="a"><path d="M78 18h18v13.59H78Zm0 0"/></clipPath><clipPath id="b"><path d="M81 15h17v16.59H81Zm0 0"/></clipPath></defs><path style="fill:none;stroke-width:.3985;stroke-linecap:butt;stroke-linejoin:miter;stroke:#000;stroke-opacity:1;stroke-miterlimit:10" d="M14.4-3.487h27.895v6.972H14.4ZM26.951 8.22l5.137 5.137" transform="matrix(1 0 0 -1 .713 15.13)"/><path style="fill-rule:nonzero;fill:#000;fill-opacity:1;stroke-width:.3985;stroke-linecap:butt;stroke-linejoin:round;stroke:#000;stroke-opacity:1;stroke-miterlimit:10" d="M-1.454 1.114 1.454.001l-2.908-1.113Zm0 0" transform="scale(1 -1) rotate(45 18.543 38.707)"/><path style="fill:none;stroke-width:.3985;stroke-linecap:butt;stroke-linejoin:miter;stroke:#000;stroke-opacity:1;stroke-miterlimit:10" d="m29.74 5.43 5.137 5.134" transform="matrix(1 0 0 -1 .713 15.13)"/><path style="fill-rule:nonzero;fill:#000;fill-opacity:1;stroke-width:.3985;stroke-linecap:butt;stroke-linejoin:round;stroke:#000;stroke-opacity:1;stroke-miterlimit:10" d="M-1.454 1.115 1.454.002l-2.908-1.113Zm0 0" transform="scale(1 -1) rotate(45 23.305 40.68)"/><path style="fill:none;stroke-width:.3985;stroke-linecap:butt;stroke-linejoin:miter;stroke:#000;stroke-opacity:1;stroke-miterlimit:10" d="M80.682-4.358V4.36l8.52-4.359ZM80.682.001H89.4M89.4-4.358V4.36" transform="matrix(1 0 0 -1 .713 15.13)"/><g clip-path="url(#a)"><path style="fill:none;stroke-width:.3985;stroke-linecap:butt;stroke-linejoin:miter;stroke:#000;stroke-opacity:1;stroke-miterlimit:10" d="m83.646-9.093 5.137-5.132" transform="matrix(1 0 0 -1 .713 15.13)"/></g><path style="fill-rule:nonzero;fill:#000;fill-opacity:1;stroke-width:.3985;stroke-linecap:butt;stroke-linejoin:round;stroke:#000;stroke-opacity:1;stroke-miterlimit:10" d="M-1.455 1.115 1.456 0l-2.908-1.113Zm0 0" transform="scale(1 -1) rotate(-45 9.31 -122.709)"/><g clip-path="url(#b)"><path style="fill:none;stroke-width:.3985;stroke-linecap:butt;stroke-linejoin:miter;stroke:#000;stroke-opacity:1;stroke-miterlimit:10" d="m86.435-6.3 5.137-5.136" transform="matrix(1 0 0 -1 .713 15.13)"/></g><path style="fill-rule:nonzero;fill:#000;fill-opacity:1;stroke-width:.3985;stroke-linecap:butt;stroke-linejoin:round;stroke:#000;stroke-opacity:1;stroke-miterlimit:10" d="M-1.455 1.115 1.453 0l-2.908-1.113Zm0 0" transform="scale(1 -1) rotate(-45 14.073 -124.681)"/><path style="fill:none;stroke-width:.3985;stroke-linecap:butt;stroke-linejoin:miter;stroke:#000;stroke-opacity:1;stroke-miterlimit:10" d="M.002.001h14.2m28.292 0h37.988m9.118 0h23.789" transform="matrix(1 0 0 -1 .713 15.13)"/></svg>