<svg xmlns="http://www.w3.org/2000/svg" width="89.635" height="41.499" viewBox="0 0 67.226 31.124" version="1.2"><defs><clipPath id="a"><path d="M4 0h54v30.688H4Zm0 0"/></clipPath><clipPath id="b"><path d="M51 14h15.84v2H51Zm0 0"/></clipPath></defs><g clip-path="url(#a)"><path style="fill:none;stroke-width:.3985;stroke-linecap:butt;stroke-linejoin:miter;stroke:#000;stroke-opacity:1;stroke-miterlimit:10" d="M-2.39 14.348A28.698 28.698 0 0 0 22.456 0 28.698 28.698 0 0 0-2.391-14.348h-14.348a28.693 28.693 0 0 1 0 28.696Zm-12.356-4.786a1.996 1.996 0 0 1-1.993 1.997 1.994 1.994 0 0 1 0-3.989c1.098 0 1.993.895 1.993 1.992ZM-13.094 0a1.993 1.993 0 1 1-3.983-.002A1.993 1.993 0 0 1-13.094 0Zm-1.652-9.563a1.993 1.993 0 0 1-3.984 0c0-1.101.89-1.996 1.991-1.996 1.098 0 1.993.895 1.993 1.996Zm0 0" transform="matrix(1 0 0 -1 28.969 15.125)"/></g><path style="fill:none;stroke-width:.3985;stroke-linecap:butt;stroke-linejoin:miter;stroke:#000;stroke-opacity:1;stroke-miterlimit:10" d="M-28.348 9.563h9.418M-28.348 4.781H-13.5M-28.348 0h11.07M-28.348-4.781H-13.5M-28.348-9.563h9.418" transform="matrix(1 0 0 -1 28.969 15.125)"/><g clip-path="url(#b)"><path style="fill:none;stroke-width:.3985;stroke-linecap:butt;stroke-linejoin:miter;stroke:#000;stroke-opacity:1;stroke-miterlimit:10" d="M22.687 0h14.176" transform="matrix(1 0 0 -1 28.969 15.125)"/></g></svg>