<svg xmlns="http://www.w3.org/2000/svg" width="64.923" height="15.027" viewBox="0 0 48.692 11.27" version="1.2"><defs><clipPath id="a"><path d="M0 0h48.54v10.906H0Zm0 0"/></clipPath><clipPath id="b"><path d="M0 1h11v9.906H0Zm0 0"/></clipPath><clipPath id="c"><path d="M23 1h16v9.906H23Zm0 0"/></clipPath><clipPath id="d"><path d="M38 0h10.54v10H38Zm0 0"/></clipPath></defs><g clip-path="url(#a)"><path style="fill:none;stroke-width:.3985;stroke-linecap:butt;stroke-linejoin:miter;stroke:#bfbfbf;stroke-opacity:1;stroke-miterlimit:10" d="M.002-.001 14.173 5.67 28.345-.001 42.521 5.67" transform="matrix(1 0 0 -1 2.932 8.698)"/></g><g clip-path="url(#b)"><path style="fill:none;stroke-width:.3985;stroke-linecap:butt;stroke-linejoin:miter;stroke:#000;stroke-opacity:1;stroke-miterlimit:10" d="M.002 1.991 1.724-.997h-3.449Zm0 0" transform="matrix(1 0 0 -1 2.932 8.698)"/></g><path style="fill:none;stroke-width:.3985;stroke-linecap:butt;stroke-linejoin:miter;stroke:#000;stroke-opacity:1;stroke-miterlimit:10" d="M14.173 7.663 15.9 4.675h-3.453Zm0 0" transform="matrix(1 0 0 -1 2.932 8.698)"/><g clip-path="url(#c)"><path style="fill:none;stroke-width:.3985;stroke-linecap:butt;stroke-linejoin:miter;stroke:#000;stroke-opacity:1;stroke-miterlimit:10" d="m28.345 1.991 1.727-2.988h-3.45Zm0 0" transform="matrix(1 0 0 -1 2.932 8.698)"/></g><g clip-path="url(#d)"><path style="fill:none;stroke-width:.3985;stroke-linecap:butt;stroke-linejoin:miter;stroke:#000;stroke-opacity:1;stroke-miterlimit:10" d="m42.521 7.663 1.727-2.988h-3.453Zm0 0" transform="matrix(1 0 0 -1 2.932 8.698)"/></g></svg>