<svg xmlns="http://www.w3.org/2000/svg" xmlns:xlink="http://www.w3.org/1999/xlink" width="106.635" height="58.035" viewBox="0 0 79.976 43.526" version="1.2"><defs><symbol overflow="visible" id="a"><path style="stroke:none" d="M4.813-7.25 3.546-9.297l-6 3 .89 2.234.422-.203c-.421-1.046-.687-1.828.594-2.468l.688-.344 2.593 5.187-1.375.688.204.422c.468-.281 1.468-.766 1.984-1.031.531-.266 1.531-.766 2.015-.97l-.203-.421-1.375.687-2.593-5.187.687-.344c1.281-.64 1.719.031 2.313 1Zm0 0"/></symbol><symbol overflow="visible" id="b"><path style="stroke:none" d="m5.484-2.734-.203-.422-.625.297L3.5-5.156c-.469-.938-1.11-1.047-2-.61a1.902 1.902 0 0 0-1.094 1.61l-1.515-3.032-1.547.86.219.422c.546-.266.609-.313.78.031L.814-.937l-.61.312.203.422L1.5-.797l1.14-.531-.203-.422-.609.313-.937-1.86c-.485-.969.062-1.781.64-2.078.282-.14.578-.063.922.625l1.203 2.406-.61.297.204.422 1.094-.594Zm0 0"/></symbol><symbol overflow="visible" id="c"><path style="stroke:none" d="m2.547-1.266-.203-.421-.547.265L0-5.016l-1.516.86.204.422c.53-.266.578-.297.75.046l1.39 2.75-.61.313.204.422L1.5-.781ZM-.578-6.469a.786.786 0 0 0-1.047-.36.793.793 0 0 0-.344 1.063.77.77 0 0 0 1.032.329.768.768 0 0 0 .359-1.032Zm0 0"/></symbol><symbol overflow="visible" id="d"><path style="stroke:none" d="M3.078-3.11c-.187-.39-.531-.593-.953-.687-.484-.094-.797.016-1.547.235-.375.093-.984.296-1.187-.126-.282-.562.53-.984.703-1.062.672-.344 1.14-.234 1.422.234.078.141.125.172.312.079.203-.11.172-.141.078-.36l-.36-.703c-.093-.172-.124-.25-.28-.172-.032.016-.047.031-.329.36-.28 0-.625.109-.968.28-.281.141-1.657.829-1.078 2 .187.345.484.485.75.563.5.125.875 0 1.625-.219.343-.093 1.062-.312 1.328.22.344.671-.469 1.077-.672 1.171-.938.484-1.516-.062-1.813-.39-.093-.094-.156-.063-.265-.016-.235.11-.203.156-.11.36l.5.968c.078.172.125.266.297.188C.594-.22.61-.22.72-.47l.156-.265c.563.093 1.031-.141 1.203-.235.281-.14 1.656-.828 1-2.14Zm0 0"/></symbol><symbol overflow="visible" id="e"><path style="stroke:none" d="M4.828-2.672c-.094-.219-.203-.156-.328-.094-.563.25-.61.141-.719-.062L2.828-4.75C2.422-5.547 1.5-5.797.172-5.125c-.5.25-1.578.828-1.188 1.61a.6.6 0 0 0 .829.28c.28-.14.468-.468.28-.843a.577.577 0 0 0-.405-.328c.218-.172.5-.344.609-.39.672-.329 1.172-.126 1.516.546l.14.313C1.328-3.579-.89-2.375-.25-1.095c.422.86 1.625.485 2.234.172.72-.344.954-.937.954-1.406.14.281.343.687 1.28.219l.423-.204c.187-.093.296-.156.187-.359Zm-2.312-.156c.437.875-.329 1.406-.547 1.515-.453.235-.969.094-1.172-.312-.485-.938.875-1.766 1.297-2.031Zm0 0"/></symbol><symbol overflow="visible" id="f"><path style="stroke:none" d="m2.86-2.813-.25-.468-.422.203.234.453c.297.61.125.969-.125 1.094-.531.25-.813-.313-.906-.516L.156-4.5l1.328-.656-.218-.422-1.329.656-.843-1.703-.406.219c.453.89.453 1.984-.422 2.453l.156.328L-.844-4 .375-1.562c.484.953 1.344.78 1.984.453.672-.329.813-1.063.5-1.704Zm0 0"/></symbol><symbol overflow="visible" id="g"><path style="stroke:none" d="M3.875-3.25c-.063-.156-.234-.078-.281-.047-.156.078-.14.125-.14.297.03.516-.345 1.047-.907 1.344-1.266.625-1.875-.563-2.094-1L3.156-4c.188-.094.281-.14.156-.39-.14-.266-.53-.891-1.187-1.126-.484-.156-1.031-.062-1.656.235-1.422.718-1.75 2.031-1.188 3.125.594 1.203 1.922 1.625 3.36.906 1.421-.703 1.312-1.844 1.234-2Zm-1.438-.766L.297-2.953c-.156-.344-.328-.75-.281-1.11.062-.484.359-.78.609-.906 1.047-.515 1.656.64 1.813.953Zm0 0"/></symbol><symbol overflow="visible" id="h"><path style="stroke:none" d="m5.219-2.61-.203-.421-.641.312L2-3.734l.453-1.688c.063-.187.078-.266.813-.625l-.22-.422-.796.438-.938.422.22.421a.785.785 0 0 1 .374-.093c0 .078.016.11-.015.14l-.313 1.22L.172-4.5l.375-.188-.219-.421-1.078.578-1 .453.219.422.64-.313 2.204.938-.516 1.89C.75-.89.422-.734 0-.516l.203.422L1-.547l.922-.422-.203-.422c-.14.079-.344.125-.375.079 0 0 0-.016.015-.11l.375-1.422 1.579.672-.36.172.203.422 1.063-.578Zm0 0"/></symbol><symbol overflow="visible" id="i"><path style="stroke:none" d="m3.922-.86.047-.515-.469-.047-.047.5c-.062.672-.422.875-.703.844-.578-.063-.516-.703-.5-.922l.281-2.734L4-3.578l.047-.469-1.469-.156.172-1.89-.469-.032c-.094 1-.656 1.906-1.656 1.844l-.031.36.828.077-.266 2.719C1.046-.062 1.875.25 2.594.313c.75.078 1.25-.454 1.328-1.172Zm0 0"/></symbol><symbol overflow="visible" id="j"><path style="stroke:none" d="M4.297 3.469c.156-.188.062-.266-.047-.36-.453-.406-.36-.5-.203-.687L5.453.828c.594-.672.484-1.61-.625-2.594-.422-.375-1.375-1.156-1.953-.5-.297.329-.14.704.063.875.234.204.609.266.874-.046a.602.602 0 0 0 .157-.532c.25.157.5.36.594.438.562.484.546 1.062.046 1.625l-.218.25C3.812-.11 1.859-1.72.92-.641c-.64.72.157 1.672.673 2.141.593.516 1.234.516 1.656.344-.203.234-.5.578.297 1.281l.344.297c.156.14.25.219.406.047ZM3.563 1.28c-.641.735-1.407.219-1.594.047C1.579.984 1.5.468 1.797.125 2.5-.672 3.78.281 4.172.578Zm0 0"/></symbol><symbol overflow="visible" id="k"><path style="stroke:none" d="m1.5 2.5.406-.234-.343-.579 5.53-3.328-1-1.484-.39.25c.328.531.36.578.016.781L1 .75.64.172.235.406l.672 1.031Zm0 0"/></symbol><symbol overflow="visible" id="l"><path style="stroke:none" d="M3.313 4.781c1.312-.297 2.093-1.422 1.734-3.015C4.672.172 3.469-.484 2.172-.188.969.094.203 1.188.578 2.797c.375 1.64 1.547 2.25 2.735 1.984ZM3.14 3.5c-.829.203-1.891.438-2.172-.797-.281-1.234.781-1.469 1.61-1.672.452-.093.937-.203 1.296-.11.422.095.703.454.813.923.093.422.046.875-.25 1.172-.282.265-.813.375-1.297.484Zm0 0"/></symbol><symbol overflow="visible" id="n"><path style="stroke:none" d="m-1.219 6 .453.094.141-.672 2.531.516c1.032.203 1.516-.235 1.719-1.22.188-.937-.266-1.562-.703-1.937L3.969 3l.25-1.688-.453-.093c-.11.61-.125.687-.5.61l-3.032-.61L.36.53-.094.437l-.218 1.235-.266 1.219.453.093L0 2.313l2.047.406A1.522 1.522 0 0 1 3.297 4.5c-.063.328-.313.516-1.063.36l-2.64-.532.14-.687-.453-.094-.219 1.234Zm0 0"/></symbol><symbol overflow="visible" id="o"><path style="stroke:none" d="M-.063 6.828a.597.597 0 0 0 .829-.172 1.71 1.71 0 0 0 .312-1.078c.219-.062.625-.281 1.047-.875.844-1.172.547-2.078-.016-2.484-.328-.235-.78-.328-1.156-.188-.125-.453-.36-.687-.515-.797-.126-.093-.532-.359-1.032-.203C-.53.906-.28.171-.797-.187c-.406-.297-1.344-.282-2.5 1.328-1.047 1.437-1.031 2.406-.453 2.812.234.172.797.485 1.453.14.563-.296.906-.78 1.469-1.546.156-.219.422-.578.469-.61a.62.62 0 0 1 .828-.093.776.776 0 0 1 .203.297c-.453.218-.781.625-.938.828-.843 1.156-.515 2.062.047 2.469.39.28.797.265 1.016.234-.047.328-.156.516-.235.61 0-.063-.078-.11-.125-.141-.203-.157-.437-.11-.593.093-.157.204-.094.454.093.594Zm.485-2.297c-.36-.265-.906-.656-.39-1.36.515-.702 1.062-.312 1.421-.046.36.266.906.656.39 1.36-.515.702-1.062.312-1.421.046ZM-3.281 3.25c-.281-.219-.485-.86.281-1.906C-2.312.39-1.656.25-1.281.516c.5.359.125.859.047.968l-.688.954c-.187.25-.844 1.171-1.36.812Zm0 0"/></symbol><symbol overflow="visible" id="p"><path style="stroke:none" d="M-5.25 1.719c.063.234.188.203.328.156.578-.14.625-.016.688.203l.578 2.063c.25.859 1.11 1.28 2.531.875C-.578 4.859.578 4.484.344 3.64c-.125-.422-.516-.5-.766-.438-.297.094-.531.375-.422.766a.647.647 0 0 0 .328.422c-.25.125-.562.234-.671.265-.72.203-1.172-.11-1.375-.828l-.094-.328c.672-.219 3.094-1 2.703-2.39C-.22.202-1.453.343-2.125.53c-.766.219-1.11.735-1.203 1.203-.078-.296-.203-.734-1.219-.453l-.437.125c-.204.063-.329.094-.266.313Zm2.25.578c-.266-.938.578-1.313.828-1.375.485-.14.953.078 1.078.515.297 1.032-1.187 1.594-1.64 1.75Zm0 0"/></symbol><symbol overflow="visible" id="q"><path style="stroke:none" d="M-5.984 2.219c0 1.328.906 2.265 2.343 2.265.75 0 1.282-.312 1.5-.484v.484l1.766-.078v-.468c-.61 0-.688 0-.688-.376v-5.03h.688v-.47l-1.25.032-1.25-.032v.47h.688V.39A2.01 2.01 0 0 0-3.47-.063c-1.5 0-2.515.907-2.515 2.282Zm1.28 0C-4.703.813-4 .297-3.358.297c.14 0 .609 0 1.062.547.11.125.11.14.11.328v2.11c0 .187-.016.202-.157.343-.39.406-.922.469-1.14.469-.657 0-1.22-.61-1.22-1.875Zm0 0"/></symbol><symbol overflow="visible" id="r"><path style="stroke:none" d="M-5.516.234c0 .235.125.235.266.235.61.015.61.14.61.375v2.14c0 .891.702 1.532 2.187 1.532.562 0 1.781-.047 1.781-.922a.601.601 0 0 0-.61-.625c-.312 0-.624.219-.624.625 0 .297.187.469.218.5a5.28 5.28 0 0 1-.718.062c-.75 0-1.11-.422-1.11-1.172v-.343c.72-.032 3.25-.125 3.25-1.563 0-.953-1.234-1.14-1.921-1.14-.797 0-1.266.406-1.485.828 0-.313 0-.766-1.047-.766h-.468c-.204 0-.329 0-.329.234Zm2 1.157c0-.97.922-1.094 1.172-1.094.516 0 .906.344.906.797 0 1.062-1.578 1.203-2.078 1.234Zm0 0"/></symbol><symbol overflow="visible" id="s"><path style="stroke:none" d="M-3.813 1.234v.532h.47V1.25c0-.672.327-.906.609-.906.578 0 .578.64.578.86v2.75h-1.469v.468h1.469v1.906h.469c0-1 .484-1.984 1.484-2.016v-.359h-.828V1.22c0-1.063-.86-1.282-1.578-1.282-.75 0-1.204.579-1.204 1.297Zm0 0"/></symbol><symbol overflow="visible" id="t"><path style="stroke:none" d="M-6.125 0v.469h.688v2.578c0 1.047.53 1.437 1.53 1.437a1.9 1.9 0 0 0 1.688-.953v3.39l1.766-.077v-.469c-.61 0-.688 0-.688-.39V.468h.688V0l-1.25.031L-2.953 0v.469h.687v2.078c0 1.094-.859 1.578-1.5 1.578-.328 0-.546-.203-.546-.969V.47h.687V0l-1.25.031Zm0 0"/></symbol><symbol overflow="visible" id="u"><path style="stroke:none" d="M-2.36.781c0 .422.344.781.782.781a.78.78 0 0 0 .766-.78.774.774 0 1 0-1.547 0Zm0 0"/></symbol><symbol overflow="visible" id="v"><path style="stroke:none" d="M-8.578 6.375v.469c.39-.032.953-.032 1.344-.032.421 0 .937 0 1.343.032v-.469h-.25c-.171 0-.343-.016-.53-.031-.282-.032-.298-.047-.298-.266V2.047L-3 6.703c.11.125.125.14.328.14H-.39v-.468h-1.078V.75c0-.219.016-.219.297-.25.234-.031.25-.031.531-.031h.25V0c-.375.031-.937.031-1.328.031-.422 0-.937 0-1.36-.031v.469h.25c.188 0 .36.015.532.031C-2 .531-2 .531-2 .75v5.219L-6.953.125C-7.063.015-7.063 0-7.234 0-7.5 0-7.5.094-7.5.313v5.765c0 .219 0 .234-.281.266-.25.031-.266.031-.547.031Zm0 0"/></symbol><symbol overflow="visible" id="w"><path style="stroke:none" d="M-5.406 2.172c0 1.344.922 2.344 2.547 2.344 1.64 0 2.546-1.016 2.546-2.344 0-1.235-.89-2.235-2.546-2.235-1.672 0-2.547 1.016-2.547 2.235Zm1.281.11c0-.86 0-1.938 1.266-1.938 1.265 0 1.265 1.078 1.265 1.937 0 .453 0 .953-.172 1.297-.187.375-.609.578-1.093.578-.422 0-.844-.156-1.063-.5-.203-.344-.203-.89-.203-1.375Zm0 0"/></symbol><symbol overflow="visible" id="x"><path style="stroke:none" d="M-4.922 1.172c0 .172.188.172.234.172.172 0 .188-.047.25-.203.204-.485.782-.797 1.422-.797 1.407 0 1.422 1.328 1.422 1.828h-3.015c-.22 0-.313 0-.313.265 0 .313.063 1.047.563 1.547.359.36.89.532 1.578.532 1.594 0 2.469-1.032 2.469-2.266 0-1.344-1-2.313-2.61-2.313-1.578 0-2 1.063-2 1.235Zm.938 1.328h2.39c-.015.39-.031.813-.234 1.14-.266.391-.672.516-.953.516-1.172 0-1.188-1.312-1.203-1.656Zm0 0"/></symbol><clipPath id="m"><path d="M73 21h6.965v7H73Zm0 0"/></clipPath></defs><use xlink:href="#a" x="3.51" y="35.394" style="fill:#000;fill-opacity:1"/><use xlink:href="#b" x="10.639" y="31.83" style="fill:#000;fill-opacity:1"/><use xlink:href="#c" x="16.332" y="28.983" style="fill:#000;fill-opacity:1"/><use xlink:href="#d" x="19.175" y="27.562" style="fill:#000;fill-opacity:1"/><use xlink:href="#c" x="26.632" y="23.833" style="fill:#000;fill-opacity:1"/><use xlink:href="#d" x="29.475" y="22.412" style="fill:#000;fill-opacity:1"/><use xlink:href="#e" x="36.933" y="18.683" style="fill:#000;fill-opacity:1"/><use xlink:href="#f" x="45.326" y="14.487" style="fill:#000;fill-opacity:1"/><use xlink:href="#g" x="49.309" y="12.495" style="fill:#000;fill-opacity:1"/><use xlink:href="#h" x="54.005" y="10.147" style="fill:#000;fill-opacity:1"/><use xlink:href="#i" x="59.385" y="6.899" style="fill:#000;fill-opacity:1"/><use xlink:href="#j" x="67.475" y="8.739" style="fill:#000;fill-opacity:1"/><use xlink:href="#k" x="71.537" y="12.562" style="fill:#000;fill-opacity:1"/><use xlink:href="#l" x="73.377" y="15.245" style="fill:#000;fill-opacity:1"/><g clip-path="url(#m)"><use xlink:href="#n" x="74.726" y="20.919" style="fill:#000;fill-opacity:1"/></g><use xlink:href="#o" x="73.365" y="27.216" style="fill:#000;fill-opacity:1"/><use xlink:href="#p" x="66.749" y="34.102" style="fill:#000;fill-opacity:1"/><use xlink:href="#q" x="57.519" y="35.394" style="fill:#000;fill-opacity:1"/><use xlink:href="#r" x="51.153" y="35.394" style="fill:#000;fill-opacity:1"/><use xlink:href="#s" x="45.584" y="35.394" style="fill:#000;fill-opacity:1"/><use xlink:href="#t" x="41.13" y="35.394" style="fill:#000;fill-opacity:1"/><use xlink:href="#u" x="34.764" y="35.394" style="fill:#000;fill-opacity:1"/><use xlink:href="#v" x="27.771" y="35.394" style="fill:#000;fill-opacity:1"/><use xlink:href="#w" x="18.804" y="35.394" style="fill:#000;fill-opacity:1"/><use xlink:href="#s" x="13.076" y="35.394" style="fill:#000;fill-opacity:1"/><use xlink:href="#x" x="8.622" y="35.394" style="fill:#000;fill-opacity:1"/></svg>