<svg xmlns="http://www.w3.org/2000/svg" width="29.268" height="7.947" viewBox="0 0 21.951 5.96" version="1.2"><defs><clipPath id="a"><path d="M0 0h21.926v5.941H0Zm0 0"/></clipPath><clipPath id="b"><path d="M2 0h19.926v5.941H2Zm0 0"/></clipPath></defs><path style="fill:none;stroke-width:.79701;stroke-linecap:butt;stroke-linejoin:miter;stroke:#000;stroke-opacity:1;stroke-miterlimit:10" d="M0 2.213h12.598" transform="matrix(1 0 0 -1 .985 5.174)"/><path style="stroke:none;fill-rule:nonzero;fill:#000;fill-opacity:1" d="M10.645 2.96 6.094 1.446 4.578 2.961l1.516 1.52Zm0 0"/><g clip-path="url(#a)"><path style="fill:none;stroke-width:.79701;stroke-linecap:butt;stroke-linejoin:miter;stroke:#000;stroke-opacity:1;stroke-miterlimit:10" d="m6.631.001-4.55 1.516L.565.001l1.516-1.52Zm0 0" transform="matrix(1 0 0 -1 4.013 2.962)"/></g><path style="stroke:none;fill-rule:nonzero;fill:#000;fill-opacity:1" d="m19.648 2.96-4.546-1.515-1.52 1.516 1.52 1.52Zm0 0"/><g clip-path="url(#b)"><path style="fill:none;stroke-width:.79701;stroke-linecap:butt;stroke-linejoin:miter;stroke:#000;stroke-opacity:1;stroke-miterlimit:10" d="M6.629.001 2.082 1.517.562.001l1.52-1.52Zm0 0" transform="matrix(1 0 0 -1 13.02 2.962)"/></g></svg>