<svg xmlns="http://www.w3.org/2000/svg" width="78.813" height="78.819" viewBox="0 0 59.11 59.114" version="1.2"><defs><clipPath id="a"><path d="M0 0h58.664v58.672H0Zm0 0"/></clipPath><clipPath id="b"><path d="M29 0h29v58H29Zm0 0"/></clipPath><clipPath id="c"><path d="M57.457 29.121C57.457 13.465 44.766.773 29.109.773 13.453.773.762 13.465.762 29.121c0 15.656 12.691 28.348 28.347 28.348 15.657 0 28.348-12.692 28.348-28.348Zm0 0"/></clipPath></defs><g clip-path="url(#a)"><path style="fill:none;stroke-width:.3985;stroke-linecap:butt;stroke-linejoin:miter;stroke:#000;stroke-opacity:1;stroke-miterlimit:10" d="M28.347 0c0 15.656-12.691 28.348-28.348 28.348-15.656 0-28.347-12.692-28.347-28.348 0-15.656 12.691-28.348 28.347-28.348 15.657 0 28.348 12.692 28.348 28.348Zm0 0" transform="matrix(1 0 0 -1 29.11 29.121)"/></g><g clip-path="url(#b)"><g clip-path="url(#c)"><path style="stroke:none;fill-rule:nonzero;fill:red;fill-opacity:1" d="M85.805 29.121C85.805 13.465 73.113.773 57.457.773c-15.656 0-28.348 12.692-28.348 28.348 0 15.656 12.692 28.348 28.348 28.348 15.656 0 28.348-12.692 28.348-28.348Zm0 0"/></g></g></svg>