<svg xmlns="http://www.w3.org/2000/svg" xmlns:xlink="http://www.w3.org/1999/xlink" width="151.137" height="144.219" viewBox="0 0 113.353 108.164" version="1.2"><defs><symbol overflow="visible" id="a"><path style="stroke:none" d="M3.328-3.016c.063-.25.297-1.171.985-1.171.046 0 .296 0 .5.125a.578.578 0 0 0-.47.546c0 .157.11.344.376.344a.546.546 0 0 0 .531-.578c0-.516-.578-.656-.922-.656-.578 0-.922.531-1.047.75-.25-.656-.781-.75-1.078-.75-1.031 0-1.61 1.281-1.61 1.531 0 .11.11.11.126.11.078 0 .11-.032.125-.11.344-1.063 1-1.313 1.344-1.313.187 0 .53.094.53.672 0 .313-.171.97-.53 2.375-.157.61-.516 1.032-.954 1.032-.062 0-.28 0-.5-.125.25-.063.47-.266.47-.547 0-.266-.22-.344-.36-.344-.313 0-.547.25-.547.578 0 .453.484.656.922.656.672 0 1.031-.703 1.047-.75.125.36.484.75 1.078.75 1.031 0 1.594-1.28 1.594-1.53 0-.11-.079-.11-.11-.11-.094 0-.11.047-.14.11-.329 1.077-1 1.312-1.313 1.312-.39 0-.547-.313-.547-.657 0-.218.047-.437.156-.875Zm0 0"/></symbol><symbol overflow="visible" id="i"><path style="stroke:none" d="M1.906-.531a.534.534 0 0 0-.515-.531.537.537 0 0 0-.532.53.524.524 0 1 0 1.047 0Zm0 0"/></symbol><symbol overflow="visible" id="b"><path style="stroke:none" d="M2.328-4.438c0-.187 0-.187-.203-.187-.453.438-1.078.438-1.36.438v.25c.157 0 .626 0 1-.188v3.547c0 .234 0 .328-.687.328H.812V0c.125 0 .985-.031 1.235-.031.219 0 1.094.031 1.25.031v-.25H3.03c-.703 0-.703-.094-.703-.328Zm0 0"/></symbol><symbol overflow="visible" id="c"><path style="stroke:none" d="M3.516-1.266H3.28c-.015.157-.094.563-.187.625-.047.047-.578.047-.688.047H1.125c.734-.64.984-.844 1.39-1.172.516-.406 1-.843 1-1.5 0-.843-.734-1.359-1.624-1.359-.86 0-1.454.61-1.454 1.25 0 .344.297.39.376.39.156 0 .359-.124.359-.374 0-.125-.047-.375-.406-.375.218-.485.687-.641 1.015-.641.703 0 1.063.547 1.063 1.11 0 .609-.438 1.078-.656 1.328L.516-.266C.437-.203.437-.187.437 0h2.876Zm0 0"/></symbol><symbol overflow="visible" id="e"><path style="stroke:none" d="M1.906-2.328c.547 0 .938.375.938 1.125 0 .86-.516 1.125-.906 1.125-.282 0-.907-.078-1.188-.5.328 0 .406-.235.406-.39 0-.22-.172-.376-.39-.376a.38.38 0 0 0-.391.407C.375-.281 1.094.14 1.938.14c.968 0 1.64-.657 1.64-1.344 0-.547-.437-1.094-1.203-1.25.719-.266.984-.781.984-1.219 0-.547-.625-.953-1.406-.953-.766 0-1.36.375-1.36.938 0 .234.157.359.36.359.219 0 .36-.156.36-.344 0-.203-.141-.36-.36-.375.25-.297.719-.375.985-.375.312 0 .75.156.75.75 0 .297-.094.625-.282.828-.219.266-.422.281-.765.313-.172.015-.188.015-.22.015-.015 0-.077.016-.077.094 0 .094.062.094.187.094Zm0 0"/></symbol><symbol overflow="visible" id="f"><path style="stroke:none" d="M3.688-1.14v-.25h-.782V-4.5c0-.14 0-.203-.14-.203-.094 0-.125 0-.188.11L.266-1.392v.25h2.062v.563c0 .25 0 .328-.578.328h-.188V0c.36-.016.797-.031 1.047-.031.266 0 .704.015 1.063.031v-.25h-.188c-.578 0-.578-.078-.578-.328v-.563ZM2.375-3.939v2.547H.531Zm0 0"/></symbol><symbol overflow="visible" id="h"><path style="stroke:none" d="M1.078-3.89c.36.093.563.093.672.093.922 0 1.469-.625 1.469-.734 0-.078-.047-.094-.078-.094-.016 0-.032 0-.063.016-.172.062-.531.203-1.047.203-.203 0-.562-.016-1.015-.188-.079-.031-.094-.031-.094-.031-.094 0-.094.078-.094.188v2.046c0 .125 0 .204.11.204.062 0 .078 0 .14-.094.297-.375.734-.438.969-.438.422 0 .61.328.64.39.126.235.172.5.172.907 0 .203 0 .61-.218.922a.984.984 0 0 1-.813.422c-.453 0-.922-.25-1.094-.719.266.016.407-.156.407-.344 0-.296-.266-.343-.36-.343 0 0-.344 0-.344.375 0 .625.579 1.25 1.407 1.25.89 0 1.672-.657 1.672-1.547 0-.782-.594-1.5-1.454-1.5-.312 0-.671.062-.984.328Zm0 0"/></symbol><symbol overflow="visible" id="j"><path style="stroke:none" d="M.844-.438C.828-.344.78-.171.78-.156c0 .156.125.218.235.218a.377.377 0 0 0 .28-.14c.032-.063.079-.297.126-.438.031-.125.11-.453.14-.625.047-.156.094-.312.125-.468.079-.282.094-.344.297-.625.188-.282.516-.641 1.047-.641.39 0 .406.36.406.484 0 .422-.296 1.188-.406 1.485-.078.203-.11.265-.11.375 0 .375.298.594.657.594.703 0 1-.954 1-1.063 0-.094-.078-.094-.11-.094-.093 0-.093.047-.124.125-.157.563-.469.844-.735.844-.156 0-.187-.094-.187-.25s.047-.25.172-.563c.078-.218.36-.953.36-1.343 0-.672-.532-.797-.907-.797-.578 0-.969.36-1.172.64-.047-.484-.453-.64-.75-.64s-.453.219-.547.375c-.156.265-.25.656-.25.703 0 .078.094.078.125.078.094 0 .094-.016.14-.203.11-.406.25-.75.516-.75.188 0 .235.156.235.344 0 .125-.063.39-.125.578-.047.187-.11.469-.14.625Zm0 0"/></symbol><symbol overflow="visible" id="k"><path style="stroke:none" d="M5.188-1.578c.109 0 .28 0 .28-.156 0-.188-.171-.188-.28-.188H1.03c-.11 0-.281 0-.281.172s.156.172.281.172Zm0 0"/></symbol><clipPath id="d"><path d="M85 34h28.031v33H85Zm0 0"/></clipPath><clipPath id="g"><path d="M48 80h33v27.746H48Zm0 0"/></clipPath></defs><path style="fill:none;stroke-width:.3985;stroke-linecap:butt;stroke-linejoin:miter;stroke:#000;stroke-opacity:1;stroke-miterlimit:10" d="m9.904-3.9 5.82-2.289" transform="matrix(1 0 0 -1 58.843 11.241)"/><path style="fill-rule:nonzero;fill:#000;fill-opacity:1;stroke-width:.3985;stroke-linecap:butt;stroke-linejoin:round;stroke:#000;stroke-opacity:1;stroke-miterlimit:10" d="M4.214 0 .645 1.346 1.817 0 .643-1.347Zm0 0" transform="matrix(.93048 .36618 .36618 -.93048 72.97 16.8)"/><path style="fill:none;stroke-width:.3985;stroke-linecap:butt;stroke-linejoin:miter;stroke:#000;stroke-opacity:1;stroke-miterlimit:10" d="m33.657-21.04 2.696-5.645" transform="matrix(1 0 0 -1 58.843 11.241)"/><path style="fill-rule:nonzero;fill:#000;fill-opacity:1;stroke-width:.3985;stroke-linecap:butt;stroke-linejoin:round;stroke:#000;stroke-opacity:1;stroke-miterlimit:10" d="M4.215 0 .643 1.347 1.816 0 .645-1.346Zm0 0" transform="matrix(.4313 .90215 .90215 -.4313 94.456 36.377)"/><path style="fill:none;stroke-width:.3985;stroke-linecap:butt;stroke-linejoin:miter;stroke:#000;stroke-opacity:1;stroke-miterlimit:10" d="m39.353-49.775-1.871-5.968" transform="matrix(1 0 0 -1 58.843 11.241)"/><path style="fill-rule:nonzero;fill:#000;fill-opacity:1;stroke-width:.3985;stroke-linecap:butt;stroke-linejoin:round;stroke:#000;stroke-opacity:1;stroke-miterlimit:10" d="M4.216-.001.644 1.347 1.816 0 .642-1.347Zm0 0" transform="matrix(-.29922 .95412 .95412 .29922 96.837 65.345)"/><path style="fill:none;stroke-width:.3985;stroke-linecap:butt;stroke-linejoin:miter;stroke:#000;stroke-opacity:1;stroke-miterlimit:10" d="m23.939-74.68-5.442-3.095" transform="matrix(1 0 0 -1 58.843 11.241)"/><path style="fill-rule:nonzero;fill:#000;fill-opacity:1;stroke-width:.3985;stroke-linecap:butt;stroke-linejoin:round;stroke:#000;stroke-opacity:1;stroke-miterlimit:10" d="M4.214 0 .644 1.347 1.818 0 .645-1.345Zm0 0" transform="matrix(-.86926 .49425 .49425 .86926 78.835 88.167)"/><path style="fill:none;stroke-width:.3985;stroke-linecap:butt;stroke-linejoin:miter;stroke:#000;stroke-opacity:1;stroke-miterlimit:10" d="m-4.311-82.376-6.082 1.465" transform="matrix(1 0 0 -1 58.843 11.241)"/><path style="fill-rule:nonzero;fill:#000;fill-opacity:1;stroke-width:.3985;stroke-linecap:butt;stroke-linejoin:round;stroke:#000;stroke-opacity:1;stroke-miterlimit:10" d="M4.213-.001.643 1.347 1.818.002.643-1.345Zm0 0" transform="matrix(-.97229 -.23355 -.23355 .97229 50.12 92.555)"/><path style="fill:none;stroke-width:.3985;stroke-linecap:butt;stroke-linejoin:miter;stroke:#000;stroke-opacity:1;stroke-miterlimit:10" d="m-29.92-68.056-3.07 5.418" transform="matrix(1 0 0 -1 58.843 11.241)"/><path style="fill-rule:nonzero;fill:#000;fill-opacity:1;stroke-width:.3985;stroke-linecap:butt;stroke-linejoin:round;stroke:#000;stroke-opacity:1;stroke-miterlimit:10" d="M4.217 0 .64 1.345 1.818 0 .642-1.345Zm0 0" transform="scale(-.99994 .99994) rotate(-60.432 51.366 60.611)"/><path style="fill:none;stroke-width:.3985;stroke-linecap:butt;stroke-linejoin:miter;stroke:#000;stroke-opacity:1;stroke-miterlimit:10" d="m-36.901-31.255 2.242 5.805" transform="matrix(1 0 0 -1 58.843 11.241)"/><path style="fill-rule:nonzero;fill:#000;fill-opacity:1;stroke-width:.3985;stroke-linecap:butt;stroke-linejoin:round;stroke:#000;stroke-opacity:1;stroke-miterlimit:10" d="M4.215-.002.643 1.346 1.819 0 .643-1.346Zm0 0" transform="scale(.99998 -.99998) rotate(68.906 39.692 -1.975)"/><path style="fill:none;stroke-width:.3985;stroke-linecap:butt;stroke-linejoin:miter;stroke:#000;stroke-opacity:1;stroke-miterlimit:10" d="m-19.124-7.634 5.809 2.32" transform="matrix(1 0 0 -1 58.843 11.241)"/><path style="fill-rule:nonzero;fill:#000;fill-opacity:1;stroke-width:.3985;stroke-linecap:butt;stroke-linejoin:round;stroke:#000;stroke-opacity:1;stroke-miterlimit:10" d="M4.215 0 .643 1.346 1.817-.002.642-1.345Zm0 0" transform="scale(.99994 -.99994) rotate(21.757 66.7 105.714)"/><path style="fill:none;stroke-width:.3985;stroke-linecap:butt;stroke-linejoin:miter;stroke:#000;stroke-opacity:1;stroke-miterlimit:10" d="M10.443-.001C10.443 5.769 5.767 10.44 0 10.44A10.438 10.438 0 0 1-10.44 0c0-5.766 4.672-10.442 10.441-10.442 5.766 0 10.442 4.676 10.442 10.442Zm0 0" transform="matrix(1 0 0 -1 58.843 11.241)"/><use xlink:href="#a" x="53.761" y="12.638" style="fill:#000;fill-opacity:1"/><use xlink:href="#b" x="59.455" y="14.132" style="fill:#000;fill-opacity:1"/><path style="fill:none;stroke-width:.3985;stroke-linecap:butt;stroke-linejoin:miter;stroke:#000;stroke-opacity:1;stroke-miterlimit:10" d="M10.441 0c0 5.765-4.676 10.44-10.441 10.44-5.766 0-10.442-4.675-10.442-10.44 0-5.766 4.676-10.442 10.442-10.442 5.765 0 10.441 4.676 10.441 10.441Zm0 0" transform="matrix(1 0 0 -1 87.906 22.679)"/><use xlink:href="#a" x="82.826" y="24.077" style="fill:#000;fill-opacity:1"/><use xlink:href="#c" x="88.519" y="25.571" style="fill:#000;fill-opacity:1"/><g clip-path="url(#d)"><path style="fill:none;stroke-width:.3985;stroke-linecap:butt;stroke-linejoin:miter;stroke:#000;stroke-opacity:1;stroke-miterlimit:10" d="M10.44 0C10.44 5.765 5.766 10.44 0 10.44c-5.766 0-10.442-4.676-10.442-10.441 0-5.766 4.676-10.442 10.441-10.442 5.766 0 10.442 4.676 10.442 10.442Zm0 0" transform="matrix(1 0 0 -1 101.38 50.859)"/></g><use xlink:href="#a" x="96.297" y="52.256" style="fill:#000;fill-opacity:1"/><use xlink:href="#e" x="101.992" y="53.75" style="fill:#000;fill-opacity:1"/><path style="fill:none;stroke-width:.3985;stroke-linecap:butt;stroke-linejoin:miter;stroke:#000;stroke-opacity:1;stroke-miterlimit:10" d="M10.44.002C10.44 5.767 5.768 10.443 0 10.443c-5.766 0-10.442-4.676-10.442-10.441 0-5.77 4.676-10.442 10.442-10.442 5.77 0 10.441 4.672 10.441 10.442Zm0 0" transform="matrix(1 0 0 -1 92.032 80.662)"/><use xlink:href="#a" x="86.951" y="82.059" style="fill:#000;fill-opacity:1"/><use xlink:href="#f" x="92.644" y="83.553" style="fill:#000;fill-opacity:1"/><g clip-path="url(#g)"><path style="fill:none;stroke-width:.3985;stroke-linecap:butt;stroke-linejoin:miter;stroke:#000;stroke-opacity:1;stroke-miterlimit:10" d="M10.44-.002c0 5.77-4.672 10.442-10.442 10.442-5.765 0-10.441-4.672-10.441-10.442 0-5.765 4.676-10.441 10.441-10.441 5.77 0 10.442 4.676 10.442 10.441Zm0 0" transform="matrix(1 0 0 -1 64.88 96.1)"/></g><use xlink:href="#a" x="59.798" y="97.498" style="fill:#000;fill-opacity:1"/><use xlink:href="#h" x="65.493" y="98.992" style="fill:#000;fill-opacity:1"/><use xlink:href="#i" x="27.646" y="89.277" style="fill:#000;fill-opacity:1"/><use xlink:href="#i" x="32.068" y="89.277" style="fill:#000;fill-opacity:1"/><use xlink:href="#i" x="36.499" y="89.277" style="fill:#000;fill-opacity:1"/><path style="fill:none;stroke-width:.3985;stroke-linecap:butt;stroke-linejoin:miter;stroke:#000;stroke-opacity:1;stroke-miterlimit:10" d="M15.425-.001c0 8.52-6.907 15.426-15.426 15.426-8.516 0-15.422-6.907-15.422-15.426 0-8.516 6.906-15.422 15.422-15.422 8.52 0 15.426 6.906 15.426 15.422Zm0 0" transform="matrix(1 0 0 -1 16.317 57.077)"/><use xlink:href="#a" x="5.66" y="58.06" style="fill:#000;fill-opacity:1"/><use xlink:href="#j" x="11.354" y="59.554" style="fill:#000;fill-opacity:1"/><use xlink:href="#k" x="16.279" y="59.554" style="fill:#000;fill-opacity:1"/><use xlink:href="#b" x="22.506" y="59.554" style="fill:#000;fill-opacity:1"/><path style="fill:none;stroke-width:.3985;stroke-linecap:butt;stroke-linejoin:miter;stroke:#000;stroke-opacity:1;stroke-miterlimit:10" d="M10.825 0c0 5.98-4.847 10.823-10.824 10.823-5.98 0-10.824-4.843-10.824-10.824 0-5.976 4.844-10.824 10.824-10.824 5.977 0 10.824 4.847 10.824 10.824Zm0 0" transform="matrix(1 0 0 -1 29.48 22.96)"/><use xlink:href="#a" x="23.922" y="24.357" style="fill:#000;fill-opacity:1"/><use xlink:href="#j" x="29.616" y="25.852" style="fill:#000;fill-opacity:1"/></svg>