<svg xmlns="http://www.w3.org/2000/svg" xmlns:xlink="http://www.w3.org/1999/xlink" width="84.579" height="104.811" viewBox="0 0 63.434 78.608" version="1.2"><defs><symbol overflow="visible" id="a"><path style="stroke:none" d="M5.516-.234c0-.235-.125-.235-.266-.235-.61-.015-.61-.14-.61-.375v-2.14c0-.891-.702-1.532-2.187-1.532-.562 0-1.781.047-1.781.922 0 .438.344.625.61.625.312 0 .624-.219.624-.625 0-.297-.187-.469-.218-.5a5.28 5.28 0 0 1 .718-.062c.75 0 1.11.422 1.11 1.172v.343c-.72.032-3.25.125-3.25 1.563C.266-.125 1.5.062 2.187.062c.797 0 1.266-.406 1.485-.828 0 .313 0 .766 1.047.766h.468c.204 0 .329 0 .329-.234Zm-2-1.157c0 .97-.922 1.094-1.172 1.094-.516 0-.906-.344-.906-.797 0-1.062 1.578-1.203 2.078-1.234Zm0 0"/></symbol><symbol overflow="visible" id="b"><path style="stroke:none" d="M5.984-2.219c0-1.328-.937-2.265-2.39-2.265-.719 0-1.219.28-1.453.484v-2.922l-1.766.078v.469c.61 0 .688 0 .688.39V0h.468c.157-.188.328-.375.485-.563.078.079.562.625 1.453.625 1.484 0 2.515-.906 2.515-2.28Zm-1.28 0c0 .469 0 1.016-.25 1.406-.298.407-.75.516-1.079.516-.688 0-1.078-.547-1.188-.687v-2.5c.282-.36.75-.641 1.297-.641 1.22 0 1.22 1.203 1.22 1.906Zm0 0"/></symbol><symbol overflow="visible" id="c"><path style="stroke:none" d="M4.766-1.172c0-.14-.141-.14-.235-.14-.187 0-.187.03-.25.156-.25.625-.734.812-1.234.812-1.39 0-1.39-1.453-1.39-1.922 0-.562 0-1.843 1.28-1.843.36 0 .516.015.657.046a.618.618 0 0 0-.203.47c0 .437.343.624.609.624.313 0 .64-.219.64-.625 0-.86-1.156-.922-1.734-.922C1.11-4.516.375-3.375.375-2.219.375-.89 1.313.062 2.844.062c1.625 0 1.922-1.156 1.922-1.234Zm0 0"/></symbol></defs><use xlink:href="#a" x=".474" y="6.49" style="fill:#000;fill-opacity:1"/><use xlink:href="#b" x="28.421" y="7.691" style="fill:#000;fill-opacity:1"/><use xlink:href="#c" x="57.406" y="6.49" style="fill:#000;fill-opacity:1"/><use xlink:href="#c" x="57.406" y="20.663" style="fill:#000;fill-opacity:1"/><path style="fill:none;stroke-width:.3985;stroke-linecap:butt;stroke-linejoin:miter;stroke:#000;stroke-opacity:1;stroke-miterlimit:10" d="M35.05.001h15.18" transform="matrix(1 0 0 -1 3.258 4.263)"/><path style="fill:none;stroke-width:.3985;stroke-linecap:round;stroke-linejoin:round;stroke:#000;stroke-opacity:1;stroke-miterlimit:10" d="M-2.074 2.392C-1.694.958-.85.279 0 .002-.85-.28-1.695-.957-2.074-2.39" transform="matrix(1 0 0 -1 53.687 4.263)"/><path style="fill:none;stroke-width:.3985;stroke-linecap:butt;stroke-linejoin:miter;stroke:#000;stroke-opacity:1;stroke-miterlimit:10" d="m35.05-3.35 15.223-7.614" transform="matrix(1 0 0 -1 3.258 4.263)"/><path style="fill:none;stroke-width:.3985;stroke-linecap:round;stroke-linejoin:round;stroke:#000;stroke-opacity:1;stroke-miterlimit:10" d="M-2.07 2.392C-1.694.956-.85.282 0-.002c-.85-.276-1.693-.955-2.072-2.39" transform="matrix(.89436 .4472 .4472 -.89436 53.708 15.315)"/><use xlink:href="#b" x="28.421" y="36.037" style="fill:#000;fill-opacity:1"/><use xlink:href="#c" x="57.406" y="34.837" style="fill:#000;fill-opacity:1"/><use xlink:href="#c" x="57.406" y="49.01" style="fill:#000;fill-opacity:1"/><path style="fill:none;stroke-width:.3985;stroke-linecap:butt;stroke-linejoin:miter;stroke:#000;stroke-opacity:1;stroke-miterlimit:10" d="M35.05-28.346h15.18" transform="matrix(1 0 0 -1 3.258 4.263)"/><path style="fill:none;stroke-width:.3985;stroke-linecap:round;stroke-linejoin:round;stroke:#000;stroke-opacity:1;stroke-miterlimit:10" d="M-2.074 2.391C-1.694.957-.85.278 0 .001-.85-.282-1.695-.958-2.074-2.39" transform="matrix(1 0 0 -1 53.687 32.61)"/><path style="fill:none;stroke-width:.3985;stroke-linecap:butt;stroke-linejoin:miter;stroke:#000;stroke-opacity:1;stroke-miterlimit:10" d="m35.05-31.698 15.223-7.613" transform="matrix(1 0 0 -1 3.258 4.263)"/><path style="fill:none;stroke-width:.3985;stroke-linecap:round;stroke-linejoin:round;stroke:#000;stroke-opacity:1;stroke-miterlimit:10" d="M-2.07 2.391C-1.693.955-.85.281-.002.001c-.847-.28-1.69-.96-2.07-2.393" transform="matrix(.89436 .4472 .4472 -.89436 53.708 43.662)"/><use xlink:href="#b" x="28.421" y="64.383" style="fill:#000;fill-opacity:1"/><use xlink:href="#c" x="57.406" y="63.183" style="fill:#000;fill-opacity:1"/><use xlink:href="#c" x="57.406" y="77.356" style="fill:#000;fill-opacity:1"/><path style="fill:none;stroke-width:.3985;stroke-linecap:butt;stroke-linejoin:miter;stroke:#000;stroke-opacity:1;stroke-miterlimit:10" d="M35.05-56.694h15.18" transform="matrix(1 0 0 -1 3.258 4.263)"/><path style="fill:none;stroke-width:.3985;stroke-linecap:round;stroke-linejoin:round;stroke:#000;stroke-opacity:1;stroke-miterlimit:10" d="M-2.074 2.39C-1.694.957-.85.28 0 0-.85-.278-1.695-.957-2.074-2.391" transform="matrix(1 0 0 -1 53.687 60.957)"/><path style="fill:none;stroke-width:.3985;stroke-linecap:butt;stroke-linejoin:miter;stroke:#000;stroke-opacity:1;stroke-miterlimit:10" d="m35.05-60.046 15.223-7.609" transform="matrix(1 0 0 -1 3.258 4.263)"/><path style="fill:none;stroke-width:.3985;stroke-linecap:round;stroke-linejoin:round;stroke:#000;stroke-opacity:1;stroke-miterlimit:10" d="M-2.07 2.39C-1.694.958-.849.28 0 0-.85-.28-1.694-.955-2.073-2.39" transform="matrix(.89436 .4472 .4472 -.89436 53.708 72.009)"/><path style="fill:none;stroke-width:.3985;stroke-linecap:butt;stroke-linejoin:miter;stroke:#000;stroke-opacity:1;stroke-miterlimit:10" d="M6.304.001h14.942" transform="matrix(1 0 0 -1 3.258 4.263)"/><path style="fill:none;stroke-width:.3985;stroke-linecap:round;stroke-linejoin:round;stroke:#000;stroke-opacity:1;stroke-miterlimit:10" d="M-2.074 2.392C-1.694.958-.85.279 0 .002-.85-.28-1.695-.957-2.074-2.39" transform="matrix(1 0 0 -1 24.703 4.263)"/><path style="fill:none;stroke-width:.3985;stroke-linecap:butt;stroke-linejoin:miter;stroke:#000;stroke-opacity:1;stroke-miterlimit:10" d="m5.804-5.807 15.56-15.555" transform="matrix(1 0 0 -1 3.258 4.263)"/><path style="fill:none;stroke-width:.3985;stroke-linecap:round;stroke-linejoin:round;stroke:#000;stroke-opacity:1;stroke-miterlimit:10" d="M-2.072 2.394C-1.694.954-.852.278 0 0-.851-.28-1.694-.957-2.072-2.39" transform="matrix(.7071 .70709 .70709 -.7071 24.761 25.767)"/><path style="fill:none;stroke-width:.3985;stroke-linecap:butt;stroke-linejoin:miter;stroke:#000;stroke-opacity:1;stroke-miterlimit:10" d="m2.902-5.807 21.766-43.524" transform="matrix(1 0 0 -1 3.258 4.263)"/><path style="fill:none;stroke-width:.3985;stroke-linecap:round;stroke-linejoin:round;stroke:#000;stroke-opacity:1;stroke-miterlimit:10" d="M-2.073 2.392C-1.694.958-.85.278.002 0-.85-.28-1.694-.955-2.072-2.39" transform="matrix(.4472 .89436 .89436 -.4472 28.014 53.772)"/><path style="fill:none;stroke-width:.3985;stroke-linecap:butt;stroke-linejoin:miter;stroke:#000;stroke-opacity:1;stroke-miterlimit:10" d="M28.347-7.007v-14.332" transform="matrix(1 0 0 -1 3.258 4.263)"/></svg>