<svg xmlns="http://www.w3.org/2000/svg" xmlns:xlink="http://www.w3.org/1999/xlink" width="133.569" height="145.395" viewBox="0 0 100.177 109.046" version="1.2"><defs><symbol overflow="visible" id="a"><path style="stroke:none" d="M5.281-3.188c0-.953-.015-3.343-2.422-3.343C.453-6.531.453-4.156.453-3.188c0 1 0 3.297 2.406 3.297 2.391 0 2.422-2.296 2.422-3.296ZM4-3.296c0 .563 0 1.469-.078 1.985-.14.921-.766 1.062-1.063 1.062-.359 0-.921-.219-1.046-.953-.094-.516-.094-1.547-.094-2.094 0-.719 0-1.375.078-1.89.125-.891.828-.985 1.062-.985.375 0 .782.188.97.625C4-5.172 4-4.109 4-3.297Zm0 0"/></symbol><symbol overflow="visible" id="f"><path style="stroke:none" d="M4.922 0v-.469h-1.39v-5.734c0-.234 0-.328-.266-.328-.11 0-.125 0-.22.078-.765.562-1.796.562-2 .562H.845v.47h.203c.156 0 .703-.016 1.297-.204v5.156H.954V0c.437-.031 1.5-.031 1.984-.031s1.546 0 1.984.031Zm0 0"/></symbol><symbol overflow="visible" id="b"><path style="stroke:none" d="M5.375-.844c-.016.516-.484.735-.828.735-.438 0-.828-.36-1.031-.563.437-.437.859-1.062 1.171-1.531.172-.25.36-.547.985-.547V-3A9.664 9.664 0 0 1 5-2.969c-.313 0-.86-.031-.875-.031v.25c.25 0 .422.11.422.266 0 .062-.031.125-.031.125-.016.03-.344.515-.579.828-.296.422-.5.593-.578.687-.062-.062-.921-1-1.25-1.797.563-.578.97-.984.97-1.421 0-.36-.188-.907-.704-.907-.5 0-1.078.39-1.078 1.14 0 .61.203 1.157.297 1.392l-.75.703c-.25.234-.469.437-.469.828 0 .625.64 1.047 1.406 1.047.703 0 1.203-.375 1.375-.516.406.313.86.516 1.375.516.563 0 1.078-.391 1.078-.985Zm-3.344-2A3.46 3.46 0 0 1 1.812-4c0-.5.282-.781.563-.781.375 0 .469.515.469.718 0 .344-.328.735-.813 1.22Zm-.344.594c.422.906 1.157 1.61 1.297 1.734-.343.235-.734.407-1.156.407-.562 0-.812-.563-.812-1 0-.516.187-.704.671-1.141Zm0 0"/></symbol><symbol overflow="visible" id="d"><path style="stroke:none" d="M2.328-4.438c0-.187 0-.187-.203-.187-.453.438-1.078.438-1.36.438v.25c.157 0 .626 0 1-.188v3.547c0 .234 0 .328-.687.328H.812V0c.125 0 .985-.031 1.235-.031.219 0 1.094.031 1.25.031v-.25H3.03c-.703 0-.703-.094-.703-.328Zm0 0"/></symbol><symbol overflow="visible" id="c"><path style="stroke:none" d="M5.297-2.313c.125-.062.172-.109.172-.187s-.047-.14-.172-.188l-4.234-2.03c-.094-.063-.125-.063-.141-.063-.094 0-.172.078-.172.187 0 .094.094.14.156.172l4 1.922L.938-.594C.813-.53.75-.516.75-.39a.17.17 0 0 0 .172.157c.015 0 .047 0 .125-.032Zm-.11 3.61c.11 0 .282 0 .282-.156 0-.172-.172-.172-.282-.172H1.032c-.125 0-.281 0-.281.172 0 .156.172.156.281.156Zm0 0"/></symbol><clipPath id="e"><path d="M12 52h57v56.57H12Zm0 0"/></clipPath></defs><use xlink:href="#a" x=".173" y="7.03" style="fill:#000;fill-opacity:1"/><path style="fill-rule:nonzero;fill:#ccf;fill-opacity:1;stroke-width:1.19553;stroke-linecap:butt;stroke-linejoin:miter;stroke:#00f;stroke-opacity:1;stroke-miterlimit:10" d="M-8.716-13.948H8.717v27.894H-8.716Zm0 0" transform="matrix(1 0 0 -1 38.38 25.005)"/><use xlink:href="#b" x="35.322" y="18.112" style="fill:#000;fill-opacity:1"/><use xlink:href="#a" x=".173" y="57.304" style="fill:#000;fill-opacity:1"/><path style="fill-rule:nonzero;fill:#ccf;fill-opacity:1;stroke-width:1.19553;stroke-linecap:butt;stroke-linejoin:miter;stroke:#00f;stroke-opacity:1;stroke-miterlimit:10" d="M-8.719-13.947H8.72v27.895H-8.72Zm0 0" transform="matrix(1 0 0 -1 80.938 54.096)"/><use xlink:href="#c" x="75.838" y="47.14" style="fill:#000;fill-opacity:1"/><use xlink:href="#d" x="82.066" y="47.14" style="fill:#000;fill-opacity:1"/><path style="stroke:none;fill-rule:nonzero;fill:#ccf;fill-opacity:1" d="M29.664 97.137h17.434V69.238H29.664Zm21.52-13.95c0-.964-.782-1.742-1.746-1.742a1.741 1.741 0 1 0 0 3.485c.964 0 1.746-.782 1.746-1.743Zm0 0"/><g clip-path="url(#e)"><path style="fill:none;stroke-width:1.19553;stroke-linecap:butt;stroke-linejoin:miter;stroke:#00f;stroke-opacity:1;stroke-miterlimit:10" d="M-8.716-13.95H8.717V13.95H-8.716ZM12.804 0c0 .964-.782 1.742-1.747 1.742a1.741 1.741 0 1 1 0-3.485c.965 0 1.746.782 1.746 1.743Zm0 0" transform="matrix(1 0 0 -1 38.38 83.187)"/></g><use xlink:href="#b" x="35.322" y="76.294" style="fill:#000;fill-opacity:1"/><use xlink:href="#f" x=".173" y="107.578" style="fill:#000;fill-opacity:1"/><path style="fill:none;stroke-width:.3985;stroke-linecap:butt;stroke-linejoin:miter;stroke:#000;stroke-opacity:1;stroke-miterlimit:10" d="M-34.13 50.22h8.503V33.886h11.14M-34.13-.057h8.503V24.19h11.14M-34.13-.057h8.503v-24.242h11.14M-34.13-50.275h8.503v16.28h11.14M4.143 29.037h8.504V4.795h15.422M8.229-29.146h8.504v24.242h11.336M46.701-.057h8.504" transform="matrix(1 0 0 -1 43.553 54.041)"/></svg>