<svg xmlns="http://www.w3.org/2000/svg" width="134.987" height="97.179" viewBox="0 0 101.24 72.884" version="1.2"><defs><clipPath id="a"><path d="M0 0h100.86v72.824H0Zm0 0"/></clipPath></defs><g clip-path="url(#a)"><path style="fill:none;stroke-width:14.17339;stroke-linecap:butt;stroke-linejoin:miter;stroke:red;stroke-opacity:1;stroke-miterlimit:10" d="M28.347-.002c0 15.657-12.691 28.348-28.348 28.348-15.656 0-28.347-12.691-28.347-28.348 0-15.652 12.691-28.343 28.347-28.343 15.657 0 28.348 12.691 28.348 28.343Zm0 0" transform="matrix(1 0 0 -1 36.071 36.393)"/><path style="fill:none;stroke-width:14.17339;stroke-linecap:butt;stroke-linejoin:miter;stroke:#000;stroke-opacity:.5;stroke-miterlimit:10" d="M56.695-.002c0 15.657-12.692 28.348-28.348 28.348C12.691 28.346-.001 15.655-.001-.002c0-15.652 12.692-28.343 28.348-28.343 15.656 0 28.348 12.691 28.348 28.343Zm0 0" transform="matrix(1 0 0 -1 36.071 36.393)"/></g></svg>