<svg xmlns="http://www.w3.org/2000/svg" width="41.029" height="47.379" viewBox="0 0 30.772 35.534" version="1.2"><path style="fill:none;stroke-width:.3985;stroke-linecap:butt;stroke-linejoin:miter;stroke:#000;stroke-opacity:1;stroke-miterlimit:10" d="M0 28.349h27.949" transform="matrix(1 0 0 -1 .895 31.704)"/><path style="fill:none;stroke-width:.3985;stroke-linecap:round;stroke-linejoin:round;stroke:#000;stroke-opacity:1;stroke-miterlimit:10" d="M-2.074 2.392C-1.694.955-.85.28 0 .002-.85-.28-1.695-.955-2.074-2.393" transform="matrix(1 0 0 -1 29.043 3.357)"/><path style="fill:none;stroke-width:.3985;stroke-linecap:butt;stroke-linejoin:miter;stroke:#000;stroke-opacity:1;stroke-miterlimit:10" d="M0 14.173h27.949" transform="matrix(1 0 0 -1 .895 31.704)"/><path style="fill:none;stroke-width:.3985;stroke-linecap:round;stroke-linejoin:round;stroke:#000;stroke-opacity:1;stroke-miterlimit:10" d="M-2.073 2.39C-1.693.956-.851.28 0 0c-.85-.278-1.694-.958-2.074-2.391" transform="matrix(1 0 .5 -1 29.043 17.53)"/><path style="fill:none;stroke-width:.3985;stroke-linecap:butt;stroke-linejoin:miter;stroke:#000;stroke-opacity:1;stroke-miterlimit:10" d="M0 0h27.949" transform="matrix(1 0 0 -1 .895 31.704)"/><path style="fill:none;stroke-width:.3985;stroke-linecap:round;stroke-linejoin:round;stroke:#000;stroke-opacity:1;stroke-miterlimit:10" d="M-2.07 2.392C-1.697.958-.849.278 0 0-.848-.28-1.696-.956-2.075-2.39" transform="matrix(1 0 1 -1 29.043 31.704)"/></svg>