<svg xmlns="http://www.w3.org/2000/svg" width="84.268" height="90.2pt" viewBox="0 0 63.201 90.2" version="1.2"><defs><clipPath id="a"><path d="M0 0h62.8v89.8H0Zm0 0"/></clipPath></defs><g clip-path="url(#a)"><path style="fill:none;stroke-width:.3985;stroke-linecap:butt;stroke-linejoin:miter;stroke:#000;stroke-opacity:1;stroke-miterlimit:10" d="m-10.915-10.913 5.09 1.348L-.56-7.893 4.72-5.91l5.141 2.273 4.836 2.528 4.395 2.738 3.812 2.906 3.118 3.016 2.324 3.078 1.465 3.074.558 3.02-.363 2.906-1.277 2.738-2.149 2.528-2.957 2.27-3.672 1.988-4.281 1.671-4.758 1.348-5.086 1.016-5.265.687-5.285.375-5.137.09-4.84-.16-4.39-.379-3.813-.543-3.117-.656-2.329-.715-1.464-.715-.559-.656.367-.543 1.274-.375 2.148-.164 2.957.09 3.676.375 4.281.687 4.754 1.016 5.09 1.347 5.266 1.676 5.28 1.985 5.141 2.27 4.836 2.526 4.395 2.739 3.812 2.906 3.118 3.02 2.324 3.074 1.465 3.078.558 3.02-.363 2.902-1.277 2.742-2.149 2.523-2.957 2.274-3.672 1.984-4.281 1.672-4.758 1.348-5.086 1.015-5.265.688-5.285.379-5.137.09-4.84-.164-4.39-.38-3.813-.542-3.117-.657-2.329-.71-1.464-.715-.559-.657.367-.543 1.274-.378 2.148-.165 2.957.09 3.676.38 4.281.687 4.754 1.015" transform="matrix(1 0 0 -1 31.224 77.677)"/></g></svg>