<svg xmlns="http://www.w3.org/2000/svg" width="116.091" height="42.915" viewBox="0 0 87.068 32.186" version="1.2"><defs><clipPath id="a"><path d="M57.242 23H60v5.953h-2.758Zm0 0"/></clipPath><clipPath id="b"><path d="M58.23 23H71v5.953H58.23Zm0 0"/></clipPath><clipPath id="c"><path d="M70 23h13v5.953H70Zm0 0"/></clipPath><clipPath id="d"><path d="M81 23h4.586v5.953H81Zm0 0"/></clipPath><clipPath id="e"><path d="M57.242 12H60v13h-2.758Zm0 0"/></clipPath><clipPath id="f"><path d="M58.23 12H71v13H58.23Zm0 0"/></clipPath><clipPath id="g"><path d="M81 12h4.586v13H81Zm0 0"/></clipPath><clipPath id="h"><path d="M57.242 1H60v12.988h-2.758Zm0 0"/></clipPath><clipPath id="i"><path d="M58.23 1H71v12.988H58.23Zm0 0"/></clipPath><clipPath id="j"><path d="M70 1h13v12.988H70Zm0 0"/></clipPath><clipPath id="k"><path d="M81 1h4.586v12.988H81Zm0 0"/></clipPath><clipPath id="l"><path d="M57.242.605H60v2.047h-2.758Zm0 0"/></clipPath><clipPath id="m"><path d="M58.23.605H71v2.047H58.23Zm0 0"/></clipPath><clipPath id="n"><path d="M70 .605h13v2.047H70Zm0 0"/></clipPath><clipPath id="o"><path d="M81 .605h4.586v2.047H81Zm0 0"/></clipPath><clipPath id="p"><path d="M0 0h82v31.777H0Zm0 0"/></clipPath><clipPath id="q"><path d="M0 0h86.602v31.777H0Zm0 0"/></clipPath></defs><path style="stroke:none;fill-rule:nonzero;fill:gray;fill-opacity:1" d="M57.242 28.953V.605h28.344v28.348Zm0 0"/><g clip-path="url(#a)"><path style="fill:none;stroke-width:.79701;stroke-linecap:butt;stroke-linejoin:miter;stroke:#000;stroke-opacity:1;stroke-miterlimit:10" d="M-.001 2.835h11.34M-.002 8.503h11.34M2.834 0v2.836m5.668 0v5.668m-5.668 0v2.836" transform="matrix(1 0 0 -1 47.888 35.671)"/></g><g clip-path="url(#b)"><path style="fill:none;stroke-width:.79701;stroke-linecap:butt;stroke-linejoin:miter;stroke:#000;stroke-opacity:1;stroke-miterlimit:10" d="M0 2.835h11.34M0 8.503h11.34M2.836 0v2.836m5.668 0v5.668m-5.668 0v2.836" transform="matrix(1 0 0 -1 59.227 35.671)"/></g><g clip-path="url(#c)"><path style="fill:none;stroke-width:.79701;stroke-linecap:butt;stroke-linejoin:miter;stroke:#000;stroke-opacity:1;stroke-miterlimit:10" d="M0 2.835h11.337M0 8.503h11.336M2.833 0v2.836m5.672 0v5.668m-5.672 0v2.836" transform="matrix(1 0 0 -1 70.565 35.671)"/></g><g clip-path="url(#d)"><path style="fill:none;stroke-width:.79701;stroke-linecap:butt;stroke-linejoin:miter;stroke:#000;stroke-opacity:1;stroke-miterlimit:10" d="M-.002 2.835h11.34M-.002 8.503h11.34M2.834 0v2.836m5.672 0v5.668m-5.672 0v2.836" transform="matrix(1 0 0 -1 81.904 35.671)"/></g><g clip-path="url(#e)"><path style="fill:none;stroke-width:.79701;stroke-linecap:butt;stroke-linejoin:miter;stroke:#000;stroke-opacity:1;stroke-miterlimit:10" d="M-.001 2.836h11.34M-.002 8.504h11.34M2.834 0v2.836m5.668 0v5.668m-5.668 0v2.836" transform="matrix(1 0 0 -1 47.888 24.332)"/></g><g clip-path="url(#f)"><path style="fill:none;stroke-width:.79701;stroke-linecap:butt;stroke-linejoin:miter;stroke:#000;stroke-opacity:1;stroke-miterlimit:10" d="M0 2.836h11.34M0 8.504h11.34M2.836 0v2.836m5.668 0v5.668m-5.668 0v2.836" transform="matrix(1 0 0 -1 59.227 24.332)"/></g><path style="fill:none;stroke-width:.79701;stroke-linecap:butt;stroke-linejoin:miter;stroke:#000;stroke-opacity:1;stroke-miterlimit:10" d="M0 2.836h11.337M0 8.504h11.336M2.833 0v2.836m5.672 0v5.668m-5.672 0v2.836" transform="matrix(1 0 0 -1 70.565 24.332)"/><g clip-path="url(#g)"><path style="fill:none;stroke-width:.79701;stroke-linecap:butt;stroke-linejoin:miter;stroke:#000;stroke-opacity:1;stroke-miterlimit:10" d="M-.002 2.836h11.34M-.002 8.504h11.34M2.834 0v2.836m5.672 0v5.668m-5.672 0v2.836" transform="matrix(1 0 0 -1 81.904 24.332)"/></g><g clip-path="url(#h)"><path style="fill:none;stroke-width:.79701;stroke-linecap:butt;stroke-linejoin:miter;stroke:#000;stroke-opacity:1;stroke-miterlimit:10" d="M-.001 2.834h11.34M-.002 8.505h11.34M2.834.002v2.832m5.668 0v5.671m-5.668 0v2.832" transform="matrix(1 0 0 -1 47.888 12.994)"/></g><g clip-path="url(#i)"><path style="fill:none;stroke-width:.79701;stroke-linecap:butt;stroke-linejoin:miter;stroke:#000;stroke-opacity:1;stroke-miterlimit:10" d="M0 2.834h11.34M0 8.505h11.34M2.836.002v2.832m5.668 0v5.671m-5.668 0v2.832" transform="matrix(1 0 0 -1 59.227 12.994)"/></g><g clip-path="url(#j)"><path style="fill:none;stroke-width:.79701;stroke-linecap:butt;stroke-linejoin:miter;stroke:#000;stroke-opacity:1;stroke-miterlimit:10" d="M0 2.834h11.337M0 8.505h11.336M2.833.002v2.832m5.672 0v5.671m-5.672 0v2.832" transform="matrix(1 0 0 -1 70.565 12.994)"/></g><g clip-path="url(#k)"><path style="fill:none;stroke-width:.79701;stroke-linecap:butt;stroke-linejoin:miter;stroke:#000;stroke-opacity:1;stroke-miterlimit:10" d="M-.002 2.834h11.34M-.002 8.505h11.34M2.834.002v2.832m5.672 0v5.671m-5.672 0v2.832" transform="matrix(1 0 0 -1 81.904 12.994)"/></g><g clip-path="url(#l)"><path style="fill:none;stroke-width:.79701;stroke-linecap:butt;stroke-linejoin:miter;stroke:#000;stroke-opacity:1;stroke-miterlimit:10" d="M-.001 2.835h11.34M-.002 8.503h11.34M2.834-.001v2.836m5.668 0v5.668m-5.668 0v2.836" transform="matrix(1 0 0 -1 47.888 1.655)"/></g><g clip-path="url(#m)"><path style="fill:none;stroke-width:.79701;stroke-linecap:butt;stroke-linejoin:miter;stroke:#000;stroke-opacity:1;stroke-miterlimit:10" d="M0 2.835h11.34M0 8.503h11.34M2.836-.001v2.836m5.668 0v5.668m-5.668 0v2.836" transform="matrix(1 0 0 -1 59.227 1.655)"/></g><g clip-path="url(#n)"><path style="fill:none;stroke-width:.79701;stroke-linecap:butt;stroke-linejoin:miter;stroke:#000;stroke-opacity:1;stroke-miterlimit:10" d="M0 2.835h11.337M0 8.503h11.336M2.833-.001v2.836m5.672 0v5.668m-5.672 0v2.836" transform="matrix(1 0 0 -1 70.565 1.655)"/></g><g clip-path="url(#o)"><path style="fill:none;stroke-width:.79701;stroke-linecap:butt;stroke-linejoin:miter;stroke:#000;stroke-opacity:1;stroke-miterlimit:10" d="M-.002 2.835h11.34M-.002 8.503h11.34M2.834-.001v2.836m5.672 0v5.668m-5.672 0v2.836" transform="matrix(1 0 0 -1 81.904 1.655)"/></g><path style="fill:none;stroke-width:.99628;stroke-linecap:butt;stroke-linejoin:miter;stroke:#000;stroke-opacity:1;stroke-miterlimit:10" d="M28.844-14.175v28.348" transform="matrix(1 0 0 -1 28.894 14.778)"/><path style="fill:none;stroke-width:2.83466;stroke-linecap:butt;stroke-linejoin:miter;stroke:#ffbfbf;stroke-opacity:1;stroke-miterlimit:10" d="M-28.347 0h56.695" transform="matrix(1 0 0 -1 28.894 14.778)"/><g clip-path="url(#p)"><path style="fill:none;stroke-width:2.83466;stroke-linecap:butt;stroke-linejoin:miter;stroke:red;stroke-opacity:1;stroke-miterlimit:10" d="M-28.347-14.175c21.687 0 26.781 8.297 40.672 12.195" transform="matrix(1 0 0 -1 28.894 14.778)"/></g><g clip-path="url(#q)"><path style="fill:none;stroke-width:2.83466;stroke-linecap:butt;stroke-linejoin:miter;stroke:#00f;stroke-opacity:1;stroke-miterlimit:10" d="M24.31-.002 4.575 7.448l6.512-7.449-6.51-7.445Zm0 0" transform="scale(.99998 -.99998) rotate(10.956 119.844 143.263)"/></g></svg>