<svg xmlns="http://www.w3.org/2000/svg" xmlns:xlink="http://www.w3.org/1999/xlink" width="112.523" height="123.699" viewBox="0 0 84.392 92.774" version="1.2"><defs><symbol overflow="visible" id="b"><path style="stroke:none" d="M5.516-.234c0-.235-.125-.235-.266-.235-.61-.015-.61-.14-.61-.375v-2.14c0-.891-.702-1.532-2.187-1.532-.562 0-1.781.047-1.781.922 0 .438.344.625.61.625.312 0 .624-.219.624-.625 0-.297-.187-.469-.218-.5a5.28 5.28 0 0 1 .718-.062c.75 0 1.11.422 1.11 1.172v.343c-.72.032-3.25.125-3.25 1.563C.266-.125 1.5.062 2.187.062c.797 0 1.266-.406 1.485-.828 0 .313 0 .766 1.047.766h.468c.204 0 .329 0 .329-.234Zm-2-1.157c0 .97-.922 1.094-1.172 1.094-.516 0-.906-.344-.906-.797 0-1.062 1.578-1.203 2.078-1.234Zm0 0"/></symbol><symbol overflow="visible" id="c"><path style="stroke:none" d="M5.984-2.219c0-1.328-.937-2.265-2.39-2.265-.719 0-1.219.28-1.453.484v-2.922l-1.766.078v.469c.61 0 .688 0 .688.39V0h.468c.157-.188.328-.375.485-.563.078.079.562.625 1.453.625 1.484 0 2.515-.906 2.515-2.28Zm-1.28 0c0 .469 0 1.016-.25 1.406-.298.407-.75.516-1.079.516-.688 0-1.078-.547-1.188-.687v-2.5c.282-.36.75-.641 1.297-.641 1.22 0 1.22 1.203 1.22 1.906Zm0 0"/></symbol><symbol overflow="visible" id="d"><path style="stroke:none" d="M4.766-1.172c0-.14-.141-.14-.235-.14-.187 0-.187.03-.25.156-.25.625-.734.812-1.234.812-1.39 0-1.39-1.453-1.39-1.922 0-.562 0-1.843 1.28-1.843.36 0 .516.015.657.046a.618.618 0 0 0-.203.47c0 .437.343.624.609.624.313 0 .64-.219.64-.625 0-.86-1.156-.922-1.734-.922C1.11-4.516.375-3.375.375-2.219.375-.89 1.313.062 2.844.062c1.625 0 1.922-1.156 1.922-1.234Zm0 0"/></symbol><symbol overflow="visible" id="e"><path style="stroke:none" d="M5.984 0v-.469c-.609 0-.687 0-.687-.39v-6.063l-1.766.078v.469c.625 0 .703 0 .703.39v1.954a2.178 2.178 0 0 0-1.359-.453c-1.453 0-2.5.875-2.5 2.28 0 1.313.922 2.267 2.39 2.267.61 0 1.094-.235 1.407-.485v.484ZM4.172-1.031c-.14.187-.547.734-1.297.734-1.219 0-1.219-1.203-1.219-1.906 0-.485 0-1.016.25-1.406.297-.422.766-.516 1.078-.516.563 0 .97.313 1.188.61Zm0 0"/></symbol><symbol overflow="visible" id="f"><path style="stroke:none" d="M4.922-1.172c0-.172-.188-.172-.234-.172-.172 0-.188.047-.25.203-.204.485-.782.797-1.422.797-1.407 0-1.422-1.328-1.422-1.828h3.015c.22 0 .313 0 .313-.265 0-.313-.063-1.047-.563-1.547-.359-.36-.89-.532-1.578-.532C1.187-4.516.312-3.484.312-2.25c0 1.344 1 2.313 2.61 2.313 1.578 0 2-1.063 2-1.235ZM3.984-2.5h-2.39c.015-.39.031-.813.234-1.14.266-.391.672-.516.953-.516 1.172 0 1.188 1.312 1.203 1.656Zm0 0"/></symbol><symbol overflow="visible" id="g"><path style="stroke:none" d="M4.36-6.11c0-.421-.36-.874-1.141-.874-.969 0-2.047.421-2.047 1.546v1.016h-.75v.469h.75V-.47H.484V0l1.25-.031c.375 0 1.016 0 1.375.031v-.469H2.25v-3.484h1.14v-.469H2.188v-1.016c0-1.093.75-1.187 1-1.187.047 0 .11 0 .172.031a.585.585 0 0 0-.234.485c0 .421.36.609.61.609.296 0 .624-.203.624-.61Zm0 0"/></symbol><symbol overflow="visible" id="h"><path style="stroke:none" d="M6.125 0v-.469h-.688v-2.578c0-1.047-.53-1.437-1.53-1.437a1.9 1.9 0 0 0-1.688.953v-3.39l-1.766.077v.469c.61 0 .688 0 .688.39v5.516H.453V0l1.25-.031L2.953 0v-.469h-.687v-2.078c0-1.094.859-1.578 1.5-1.578.328 0 .546.203.546.969V-.47h-.687V0l1.25-.031Zm0 0"/></symbol><clipPath id="a"><path d="M61 3h23.09v85H61Zm0 0"/></clipPath></defs><path style="fill:none;stroke-width:.3985;stroke-linecap:butt;stroke-linejoin:miter;stroke:#000;stroke-opacity:1;stroke-miterlimit:10" d="m-44.509-32.941-18.898-18" transform="matrix(1 0 0 -1 72.958 3.164)"/><path style="fill:none;stroke-width:.3985;stroke-linecap:round;stroke-linejoin:round;stroke:#000;stroke-opacity:1;stroke-miterlimit:10" d="M-2.073 2.39C-1.693.955-.848.28-.001.001c-.85-.28-1.692-.956-2.072-2.39" transform="matrix(-.7241 .68962 .68962 .7241 9.405 54.242)"/><path style="fill:none;stroke-width:.3985;stroke-linecap:butt;stroke-linejoin:miter;stroke:#000;stroke-opacity:1;stroke-miterlimit:10" d="m-41.716-34.148-5.726-16.364" transform="matrix(1 0 0 -1 72.958 3.164)"/><path style="fill:none;stroke-width:.3985;stroke-linecap:round;stroke-linejoin:round;stroke:#000;stroke-opacity:1;stroke-miterlimit:10" d="M-2.071 2.392C-1.693.956-.851.278-.001 0c-.85-.28-1.693-.957-2.072-2.393" transform="scale(-.99996 .99996) rotate(70.71 -50.687 8.997)"/><path style="fill:none;stroke-width:.3985;stroke-linecap:butt;stroke-linejoin:miter;stroke:#000;stroke-opacity:1;stroke-miterlimit:10" d="m-37.653-34.148 5.375-15.368" transform="matrix(1 0 0 -1 72.958 3.164)"/><path style="fill:none;stroke-width:.3985;stroke-linecap:round;stroke-linejoin:round;stroke:#000;stroke-opacity:1;stroke-miterlimit:10" d="M-2.073 2.392C-1.694.956-.85.28 0-.001-.85-.28-1.693-.957-2.07-2.393" transform="matrix(.33032 .94382 .94382 -.33032 40.747 52.868)"/><path style="fill:none;stroke-width:.3985;stroke-linecap:butt;stroke-linejoin:miter;stroke:#000;stroke-opacity:1;stroke-miterlimit:10" d="m-2.032-5.805-5.305-15.16" transform="matrix(1 0 0 -1 72.958 3.164)"/><path style="fill:none;stroke-width:.3985;stroke-linecap:round;stroke-linejoin:round;stroke:#000;stroke-opacity:1;stroke-miterlimit:10" d="M-2.074 2.39C-1.692.957-.85.279 0 0c-.85-.277-1.693-.957-2.073-2.39" transform="matrix(-.33034 .94382 .94382 .33034 65.555 24.316)"/><path style="fill:none;stroke-width:.3985;stroke-linecap:butt;stroke-linejoin:miter;stroke:#000;stroke-opacity:1;stroke-miterlimit:10" d="M-5.575-3.98-33.95-24.25" transform="matrix(1 0 0 -1 72.958 3.164)"/><path style="fill:none;stroke-width:.3985;stroke-linecap:round;stroke-linejoin:round;stroke:#000;stroke-opacity:1;stroke-miterlimit:10" d="M-2.071 2.39C-1.692.958-.851.28-.001-.001c-.85-.276-1.691-.957-2.071-2.39" transform="matrix(-.81369 .58119 .58119 .81369 38.848 27.529)"/><path style="fill:none;stroke-width:.3985;stroke-linecap:butt;stroke-linejoin:miter;stroke:#000;stroke-opacity:1;stroke-miterlimit:10" d="M-9.923-35.356v-42.308" transform="matrix(1 0 0 -1 72.958 3.164)"/><path style="fill:none;stroke-width:.3985;stroke-linecap:round;stroke-linejoin:round;stroke:#000;stroke-opacity:1;stroke-miterlimit:10" d="M-2.071 2.39C-1.692.955-.85.28-.001-.002-.849-.28-1.692-.955-2.07-2.392" transform="matrix(0 1 1 0 63.037 81.028)"/><path style="fill:none;stroke-width:.3985;stroke-linecap:butt;stroke-linejoin:miter;stroke:#000;stroke-opacity:1;stroke-miterlimit:10" d="m-62.763-59.879 45.797-21.809" transform="matrix(1 0 0 -1 72.958 3.164)"/><path style="fill:none;stroke-width:.3985;stroke-linecap:round;stroke-linejoin:round;stroke:#000;stroke-opacity:1;stroke-miterlimit:10" d="M-2.073 2.39C-1.693.957-.852.28 0 .002c-.85-.28-1.694-.958-2.071-2.393" transform="scale(1 -1) rotate(-25.463 -159.887 -166.787)"/><path style="fill:none;stroke-width:.3985;stroke-linecap:butt;stroke-linejoin:miter;stroke:#000;stroke-opacity:1;stroke-miterlimit:10" d="m-44.138-60.598 27.563-19.691" transform="matrix(1 0 0 -1 72.958 3.164)"/><path style="fill:none;stroke-width:.3985;stroke-linecap:round;stroke-linejoin:round;stroke:#000;stroke-opacity:1;stroke-miterlimit:10" d="M-2.073 2.39C-1.693.956-.85.277-.002 0c-.847-.28-1.693-.956-2.07-2.391" transform="matrix(.81367 .5812 .5812 -.81367 56.544 83.567)"/><path style="fill:none;stroke-width:.3985;stroke-linecap:butt;stroke-linejoin:miter;stroke:#000;stroke-opacity:1;stroke-miterlimit:10" d="m-25.72-62.473 11.043-15.777" transform="matrix(1 0 0 -1 72.958 3.164)"/><path style="fill:none;stroke-width:.3985;stroke-linecap:round;stroke-linejoin:round;stroke:#000;stroke-opacity:1;stroke-miterlimit:10" d="M-2.071 2.391C-1.692.958-.851.28-.001.002-.85-.28-1.694-.958-2.07-2.39" transform="matrix(.57346 .81921 .81921 -.57346 58.397 81.576)"/><g clip-path="url(#a)"><path style="fill:none;stroke-width:.3985;stroke-linecap:butt;stroke-linejoin:miter;stroke:#000;stroke-opacity:1;stroke-miterlimit:10" d="M-5.396-78.574 7.636-59.957c1.261 1.8 2.285 5.047 2.285 7.25v20.375c0 2.2-.59 5.668-1.316 7.746L2.162-6.184" transform="matrix(1 0 0 -1 72.958 3.164)"/></g><path style="fill:none;stroke-width:.3985;stroke-linecap:round;stroke-linejoin:round;stroke:#000;stroke-opacity:1;stroke-miterlimit:10" d="M-2.07 2.39C-1.695.959-.849.278-.002.002c-.848-.283-1.694-.96-2.07-2.392" transform="scale(-.99996 .99996) rotate(-70.71 -31.075 57.477)"/><use xlink:href="#b" x="70.174" y="5.391" style="fill:#000;fill-opacity:1"/><use xlink:href="#c" x="59.854" y="34.938" style="fill:#000;fill-opacity:1"/><use xlink:href="#d" x="30.728" y="33.737" style="fill:#000;fill-opacity:1"/><use xlink:href="#e" x=".327" y="63.284" style="fill:#000;fill-opacity:1"/><use xlink:href="#f" x="20.727" y="62.083" style="fill:#000;fill-opacity:1"/><use xlink:href="#g" x="41.446" y="63.344" style="fill:#000;fill-opacity:1"/><use xlink:href="#h" x="59.854" y="91.66" style="fill:#000;fill-opacity:1"/></svg>