<svg xmlns="http://www.w3.org/2000/svg" width="118.903" height="91.635" viewBox="0 0 89.177 68.726" version="1.2"><defs><clipPath id="a"><path d="M0 0h88.766v68.59H0Zm0 0"/></clipPath></defs><path style="fill:none;stroke-width:.19925;stroke-linecap:butt;stroke-linejoin:miter;stroke:gray;stroke-opacity:1;stroke-miterlimit:10" d="M0 .002h85.038M0 28.346h85.04m-85.04 28.34h85.04M-.002.002v56.691M28.347.002v56.691M56.695.002v56.691M85.03.002v56.691" transform="matrix(1 0 0 -1 1.004 65.373)"/><g clip-path="url(#a)"><path style="fill:none;stroke-width:.79701;stroke-linecap:butt;stroke-linejoin:miter;stroke:#00f;stroke-opacity:1;stroke-miterlimit:10" d="M0 28.346V17.244s.437 19.438.605 24.113c.172 4.68.441 10.567.61 9.598.167-.965.437-12.867.605-16.57.168-3.703.437-6.723.605-10.125.168-3.403.438-13.54.606-14.399.172-.86.441 6.66.609 8.215.168 1.555.438-.336.605 2.988.168 3.325.438 16.391.606 20.965.168 4.578.437 12.7.61 12.012.167-.688.437-13.926.605-16.973.168-3.047.437-1.18.605-4.988.168-3.805.438-19.703.606-22.441.168-2.739.441.312.61 2.707.167 2.398.437 10.722.605 14.562.168 3.84.437 11.13.605 13.113.168 1.985.438 2.075.606 1.188.171-.887.44-6.027.609-7.582.168-1.555.437-1.89.605-3.621.168-1.727.438-7.426.606-8.832.168-1.41.437-1.719.605-1.324.172.398.442 2.93.61 4.18.168 1.253.437 3.663.605 4.84.168 1.179.438 3.292.606 3.651.168.36.437-.496.609-1.05.168-.555.438-2.305.605-2.953.168-.649.438-1.356.606-1.72.168-.366.437-.913.605-.913.168.004.442.527.61.925.168.399.437 1.602.605 1.958.168.351.438.55.606.585.168.04.437-.187.605-.316.172-.133.442-.527.61-.629.168-.101.437-.074.605-.098.168-.023.438-.082.605-.078.168.004.438.672.606.102.172-.57.441-9.086.61-4.211.167 4.875.437 35.805.605 39.355.168 3.551.437-8.91.605-13.77.168-4.858.438-15.714.61-21.245.168-5.531.437-14.465.605-18.625.168-4.156.438-10.485.606-11.344.168-.86.437-.148.605 5.145.168 5.296.441 28.504.61 33.02.167 4.51.437-2.388.605-.49.168 1.895.437 14.829.605 14.157.168-.672.438-15.441.606-19 .172-3.555.441-5.273.61-6.633.167-1.36.437-2.379.605-3.164.168-.781.437-2.668.605-2.476.168.191.438 1.879.606 3.86.171 1.976.441 8.417.609 10.405.168 1.989.438 4.43.605 3.922.168-.508.438-6.324.606-7.578.168-1.254.437-.016.61-1.473.167-1.453.437-8.68.605-9.003.168-.325.437 5.421.605 6.671.168 1.25.438 1.23.606 2.348.168 1.113.441 5.34.61 5.691.167.348.437-2.64.605-3.18.168-.538.437-.37.605-.706.168-.332.438-1.29.605-1.692.172-.402.442-.875.61-1.21.168-.337.437-1.243.605-1.212.168.028.438 1.004.606 1.43.168.426.437 1.363.605 1.637.172.27.442.355.61.324.168-.035.437-.418.605-.566.168-.149.438-.438.606-.5.168-.063.437.03.609.043.168.011.437.023.605.035.168.008.438-.02.606.043.168.062.437-1.66.605.414.168 2.078.442 12.531.61 14.539.168 2.008.437.785.605-.063.168-.843.438-2.918.606-6.035.168-3.12.437-13.652.605-16.441.172-2.793.442-4.266.61-3.668.167.598.437 5.976.605 7.976.168 2 .438 3.645.605 6.446.168 2.804.438 12.27.61 13.758.168 1.488.437-.504.605-3.032.168-2.527.438-11.953.606-15.187.168-3.238.437-5.793.605-8.133.168-2.336.438-8.137.61-8.719.168-.578.437 2.39.605 4.535.168 2.145.438 7.414.606 10.926.168 3.512.437 12.106.605 14.38.168 2.273.441 3.23.61 2.003.167-1.227.437-8.145.605-10.84.168-2.695.437-7.523.605-8.594.168-1.07.438.457.606.871.172.41.441 1.36.61 2.098.167.735.437 2.594.605 3.211.168.621.437.969.605 1.238.168.274.438.649.61.72.167.07.437.206.605-.204.168-.41.437-2.188.605-2.754.168-.566.438-1.094.606-1.34.168-.25.437-.597.61-.445.167.152.437 1.168.605 1.547.168.379.437.972.605 1.187.168.215.438.38.606.364.168-.02.441-.395.61-.497.167-.097.437-.183.605-.23a3.35 3.35 0 0 1 .605-.129c.168-.008.438.035.605.05.172.013.442-3.355.61.052.168 3.406.437 22.468.605 24.5.168 2.027.438-9.684.606-9.868.168-.187.437 11.56.61 8.536.167-3.024.437-23.528.605-30.329.168-6.8.437-16.742.605-18.69.168-1.946.438 1.269.606 4.651.168 3.383.437 15.922.609 19.727.168 3.805.437 3.855.605 7.695.168 3.844.438 19.39.606 19.992.168.602.437-11.62.605-15.656.168-4.039.442-10.668.61-13.449.168-2.781.437-5.945.605-6.586.168-.64.438.656.606 1.969.168 1.312.437 6.098.605 7.492.172 1.398.442.695.61 2.563.167 1.863.437 9.585.605 10.882.168 1.297.437-.066.605-1.535.168-1.472.438-6.168.61-9.066.168-2.903.437-10.84.605-11.844.168-1 .438 3.68.606 4.617.168.942.437 1.442.605 2.156.168.715.442 2.352.61 2.993.168.636.437 1.304.605 1.613.168.309.438 1.05.606.605.168-.441.437-3.347.605-3.796.168-.454.441.742.61.543.167-.196.437-1.934.605-1.97.168-.034.437 1.333.605 1.72.168.386.438.93.606 1.074.172.144.441-.055.61-.032.167.024.437.223.605.2.168-.024.437-.242.605-.367.168-.125.438-.465.61-.532.167-.062.437.04.605.063.168.023.437.082.605.097.168.02.606.032.606.032" transform="matrix(1 0 0 -1 1.004 65.373)"/></g></svg>