<svg xmlns="http://www.w3.org/2000/svg" xmlns:xlink="http://www.w3.org/1999/xlink" width="137.475" height="131.379" viewBox="0 0 103.106 98.534" version="1.2"><defs><symbol overflow="visible" id="a"><path style="stroke:none" d="M5.563-1.813c.14 0 .312 0 .312-.171 0-.188-.172-.188-.313-.188H1c-.125 0-.297 0-.297.188 0 .171.172.171.297.171Zm0 0"/></symbol><symbol overflow="visible" id="b"><path style="stroke:none" d="M1.016-3.328c.203.062.406.078.609.078.14 0 .469 0 .844-.203.11-.063.469-.313.469-.438 0-.078-.047-.093-.079-.093-.015 0-.015 0-.093.03a2.513 2.513 0 0 1-.907.173c-.296 0-.609-.063-.89-.156C.922-3.97.89-3.985.875-3.985c-.094 0-.094.078-.094.171v1.797c0 .094 0 .172.11.172.062 0 .078-.031.109-.078.156-.187.422-.39.89-.39.735 0 .735.89.735 1.078 0 .234-.016.578-.219.828a.95.95 0 0 1-.719.312C1.281-.094.86-.312.72-.672c.297 0 .328-.234.328-.297a.304.304 0 0 0-.313-.312.303.303 0 0 0-.296.328C.438-.406.953.125 1.702.125c.828 0 1.516-.578 1.516-1.328A1.3 1.3 0 0 0 1.89-2.5c-.375 0-.688.125-.875.281Zm0 0"/></symbol><symbol overflow="visible" id="c"><path style="stroke:none" d="M.969-1.984c.015-.297.031-.797.234-1.157.266-.468.656-.64 1.016-.64.14 0 .422.015.562.187-.219.047-.265.188-.265.297 0 .156.109.281.296.281.172 0 .282-.109.282-.296 0-.376-.266-.672-.875-.672-.938 0-1.844.812-1.844 2.093 0 1.454.672 2.016 1.469 2.016.234 0 .64-.031 1-.39.203-.188.422-.422.422-.954 0-.203-.016-.593-.375-.922-.22-.203-.485-.406-.985-.406-.422 0-.734.219-.937.563Zm.875 1.89C1-.094 1-1.125 1-1.359c0-.5.328-1 .875-1 .313 0 .484.125.625.312.172.235.172.516.172.828 0 .407-.016.61-.219.86-.14.171-.328.265-.61.265Zm0 0"/></symbol><symbol overflow="visible" id="e"><path style="stroke:none" d="M3.219-1.125H3c-.016.094-.078.484-.156.547-.047.047-.531.047-.625.047h-1.11l.766-.625c.203-.172.734-.547.922-.735.172-.171.422-.484.422-.906 0-.75-.672-1.187-1.485-1.187-.765 0-1.296.515-1.296 1.078 0 .297.25.344.312.344a.32.32 0 0 0 .328-.329c0-.125-.078-.328-.344-.328.141-.297.5-.531.922-.531.625 0 .953.469.953.953 0 .422-.28.86-.687 1.25L.5-.25C.437-.187.437-.187.437 0h2.594Zm0 0"/></symbol><symbol overflow="visible" id="f"><path style="stroke:none" d="M1.766-1.984c.5 0 .843.343.843.953 0 .656-.39.937-.828.937C1.61-.094 1-.125.734-.469c.235-.031.329-.187.329-.344a.328.328 0 0 0-.344-.343.34.34 0 0 0-.344.36c0 .593.656.921 1.422.921.89 0 1.469-.563 1.469-1.156 0-.438-.329-.907-1.047-1.078.484-.157.86-.547.86-1.032 0-.484-.563-.843-1.282-.843-.703 0-1.234.328-1.234.812 0 .266.203.328.328.328.156 0 .312-.094.312-.312 0-.188-.125-.297-.297-.313.281-.312.828-.312.89-.312.298 0 .688.14.688.64 0 .329-.187.907-.796.938-.11 0-.266.015-.313.015-.063.016-.125.016-.125.11s.063.094.156.094Zm0 0"/></symbol><symbol overflow="visible" id="g"><path style="stroke:none" d="M2.14-3.797c0-.187-.015-.187-.203-.187-.39.39-1 .39-1.218.39v.235c.156 0 .562 0 .922-.172v3.015c0 .204 0 .282-.625.282h-.25V0c.328-.031.796-.031 1.125-.031.328 0 .796 0 1.125.031v-.234h-.25c-.625 0-.625-.078-.625-.282Zm0 0"/></symbol><symbol overflow="visible" id="d"><path style="stroke:none" d="M2.266-2.906h.906c-.156.719-.297 1.312-.297 1.906 0 .047 0 .39.078.688.11.328.188.39.328.39.172 0 .36-.156.36-.344 0-.046 0-.062-.032-.14-.171-.36-.296-.75-.296-1.406 0-.172 0-.516.124-1.094h.97c.124 0 .202 0 .28-.063a.314.314 0 0 0 .125-.25c0-.219-.203-.219-.328-.219H1.61c-.171 0-.484 0-.875.391-.28.281-.5.64-.5.703 0 .078.047.094.11.094.094 0 .11-.016.156-.078.39-.578.86-.578 1.031-.578H2c-.234.844-.656 1.812-.953 2.39C1-.39.922-.234.922-.172c0 .172.125.25.25.25.312 0 .39-.297.562-.953Zm0 0"/></symbol><symbol overflow="visible" id="h"><path style="stroke:none" d="M3.89-2.547c0-.844-.078-1.36-.343-1.875-.344-.703-1-.875-1.438-.875-1 0-1.375.75-1.484.969C.344-3.75.328-2.953.328-2.547c0 .531.016 1.328.406 1.969.36.594.954.75 1.375.75.391 0 1.063-.125 1.47-.906.296-.579.312-1.297.312-1.813ZM2.11-.062c-.266 0-.813-.126-.985-.954-.094-.453-.094-1.203-.094-1.625 0-.546 0-1.109.094-1.546.172-.813.781-.891.984-.891.266 0 .829.14.985.86.094.437.094 1.046.094 1.577 0 .47 0 1.188-.094 1.641-.172.828-.719.938-.985.938Zm0 0"/></symbol><symbol overflow="visible" id="i"><path style="stroke:none" d="M2.5-5.078c0-.219-.016-.219-.234-.219-.329.313-.75.5-1.5.5v.266c.218 0 .64 0 1.109-.203v4.078c0 .297-.031.39-.781.39H.812V0c.329-.031 1.016-.031 1.375-.031.36 0 1.047 0 1.376.031v-.266H3.28c-.75 0-.781-.093-.781-.39Zm0 0"/></symbol></defs><path style="fill:none;stroke-width:.3985;stroke-linecap:round;stroke-linejoin:miter;stroke:gray;stroke-opacity:1;stroke-miterlimit:10" d="m-28.86-16.665-1.726-.996M-16.66-28.864l-.997-1.727M0-33.329l.003-1.992M16.664-28.864l.996-1.723M28.863-16.665l1.726-.996M33.328 0h1.992M28.863 16.663l1.726.996M16.664 28.863l.996 1.726M0 33.327l.003 1.993M-16.66 28.863l-.997 1.726M-28.86 16.667l-1.726.996M-33.329.003h-1.992M0-1.993V0M18.898-1.993V0" transform="matrix(1 0 0 -1 50.977 49.093)"/><path style="fill:none;stroke-width:.3985;stroke-linecap:square;stroke-linejoin:miter;stroke:#bfbfbf;stroke-opacity:1;stroke-miterlimit:10" d="M-28.348 0C-28.344-15.658-15.653-28.349 0-28.346c15.656 0 28.347 12.692 28.347 28.344 0 15.656-12.691 28.348-28.347 28.348-15.653 0-28.344-12.695-28.348-28.348" transform="matrix(1 0 0 -1 50.977 49.093)"/><path style="fill:none;stroke-width:.3985;stroke-linecap:square;stroke-linejoin:miter;stroke:gray;stroke-opacity:1;stroke-miterlimit:10" d="M-33.329 0C-33.329-18.408-18.407-33.33 0-33.33c18.406 0 33.328 14.922 33.328 33.328 0 18.407-14.922 33.328-33.328 33.328C-18.403 33.327-33.33 18.406-33.33 0" transform="matrix(1 0 0 -1 50.977 49.093)"/><path style="fill:none;stroke-width:.3985;stroke-linecap:square;stroke-linejoin:miter;stroke:#bfbfbf;stroke-opacity:1;stroke-miterlimit:10" d="M0 0h28.347" transform="matrix(1 0 0 -1 50.977 49.093)"/><path style="fill:none;stroke-width:.3985;stroke-linecap:square;stroke-linejoin:miter;stroke:gray;stroke-opacity:1;stroke-miterlimit:10" d="M0 0h28.347" transform="matrix(1 0 0 -1 50.977 49.093)"/><path style="fill:none;stroke-width:.3985;stroke-linecap:butt;stroke-linejoin:miter;stroke:#000;stroke-opacity:1;stroke-miterlimit:10" d="m7.851.468 2.817 2.816m-2.817 0L10.668.468M16.644 4.175l2.817 2.816m-2.817 0 2.817-2.816M24.699 9.628l2.82 2.82m-2.82 0 2.82-2.82" transform="matrix(1 0 0 -1 50.977 49.093)"/><use xlink:href="#a" x="-.045" y="76.522" style="fill:#000;fill-opacity:1"/><use xlink:href="#b" x="7.737" y="73.264" style="fill:#000;fill-opacity:1"/><path style="fill:none;stroke-width:.359;stroke-linecap:butt;stroke-linejoin:miter;stroke:#000;stroke-opacity:1;stroke-miterlimit:10" d="M.001-.001h3.653" transform="matrix(1 0 0 -1 7.737 74.53)"/><use xlink:href="#c" x="7.737" y="79.648" style="fill:#000;fill-opacity:1"/><use xlink:href="#d" x="12.585" y="76.522" style="fill:#000;fill-opacity:1"/><use xlink:href="#a" x="12.883" y="89.449" style="fill:#000;fill-opacity:1"/><use xlink:href="#e" x="20.665" y="86.19" style="fill:#000;fill-opacity:1"/><path style="fill:none;stroke-width:.359;stroke-linecap:butt;stroke-linejoin:miter;stroke:#000;stroke-opacity:1;stroke-miterlimit:10" d="M0-.001H3.65" transform="matrix(1 0 0 -1 20.665 87.456)"/><use xlink:href="#f" x="20.665" y="92.574" style="fill:#000;fill-opacity:1"/><use xlink:href="#d" x="25.514" y="89.449" style="fill:#000;fill-opacity:1"/><use xlink:href="#a" x="42.089" y="94.18" style="fill:#000;fill-opacity:1"/><use xlink:href="#g" x="49.871" y="90.921" style="fill:#000;fill-opacity:1"/><path style="fill:none;stroke-width:.359;stroke-linecap:butt;stroke-linejoin:miter;stroke:#000;stroke-opacity:1;stroke-miterlimit:10" d="M0 0h3.652" transform="matrix(1 0 0 -1 49.871 92.187)"/><use xlink:href="#e" x="49.871" y="97.305" style="fill:#000;fill-opacity:1"/><use xlink:href="#d" x="54.719" y="94.18" style="fill:#000;fill-opacity:1"/><use xlink:href="#a" x="71.293" y="89.447" style="fill:#000;fill-opacity:1"/><use xlink:href="#g" x="79.075" y="86.189" style="fill:#000;fill-opacity:1"/><path style="fill:none;stroke-width:.359;stroke-linecap:butt;stroke-linejoin:miter;stroke:#000;stroke-opacity:1;stroke-miterlimit:10" d="M0 .002h3.652" transform="matrix(1 0 0 -1 79.075 87.455)"/><use xlink:href="#f" x="79.075" y="92.573" style="fill:#000;fill-opacity:1"/><use xlink:href="#d" x="83.924" y="89.447" style="fill:#000;fill-opacity:1"/><use xlink:href="#a" x="84.221" y="76.519" style="fill:#000;fill-opacity:1"/><use xlink:href="#g" x="92.003" y="73.261" style="fill:#000;fill-opacity:1"/><path style="fill:none;stroke-width:.359;stroke-linecap:butt;stroke-linejoin:miter;stroke:#000;stroke-opacity:1;stroke-miterlimit:10" d="M0 0h3.653" transform="matrix(1 0 0 -1 92.003 74.527)"/><use xlink:href="#c" x="92.003" y="79.645" style="fill:#000;fill-opacity:1"/><use xlink:href="#d" x="96.851" y="76.519" style="fill:#000;fill-opacity:1"/><use xlink:href="#h" x="88.953" y="51.661" style="fill:#000;fill-opacity:1"/><use xlink:href="#g" x="85.416" y="22.394" style="fill:#000;fill-opacity:1"/><path style="fill:none;stroke-width:.359;stroke-linecap:butt;stroke-linejoin:miter;stroke:#000;stroke-opacity:1;stroke-miterlimit:10" d="M-.002-.001h3.656" transform="matrix(1 0 0 -1 85.416 23.659)"/><use xlink:href="#c" x="85.416" y="28.778" style="fill:#000;fill-opacity:1"/><use xlink:href="#d" x="90.265" y="25.652" style="fill:#000;fill-opacity:1"/><use xlink:href="#g" x="72.489" y="9.466" style="fill:#000;fill-opacity:1"/><path style="fill:none;stroke-width:.359;stroke-linecap:butt;stroke-linejoin:miter;stroke:#000;stroke-opacity:1;stroke-miterlimit:10" d="M0 .002h3.652" transform="matrix(1 0 0 -1 72.489 10.732)"/><use xlink:href="#f" x="72.489" y="15.85" style="fill:#000;fill-opacity:1"/><use xlink:href="#d" x="77.337" y="12.724" style="fill:#000;fill-opacity:1"/><use xlink:href="#g" x="46.577" y="4.733" style="fill:#000;fill-opacity:1"/><path style="fill:none;stroke-width:.359;stroke-linecap:butt;stroke-linejoin:miter;stroke:#000;stroke-opacity:1;stroke-miterlimit:10" d="M.001-.001h3.652" transform="matrix(1 0 0 -1 46.577 5.999)"/><use xlink:href="#e" x="46.577" y="11.117" style="fill:#000;fill-opacity:1"/><use xlink:href="#d" x="51.426" y="7.992" style="fill:#000;fill-opacity:1"/><use xlink:href="#e" x="20.665" y="9.464" style="fill:#000;fill-opacity:1"/><path style="fill:none;stroke-width:.359;stroke-linecap:butt;stroke-linejoin:miter;stroke:#000;stroke-opacity:1;stroke-miterlimit:10" d="M0 0H3.65" transform="matrix(1 0 0 -1 20.665 10.73)"/><use xlink:href="#f" x="20.665" y="15.848" style="fill:#000;fill-opacity:1"/><use xlink:href="#d" x="25.514" y="12.723" style="fill:#000;fill-opacity:1"/><use xlink:href="#b" x="7.737" y="22.391" style="fill:#000;fill-opacity:1"/><path style="fill:none;stroke-width:.359;stroke-linecap:butt;stroke-linejoin:miter;stroke:#000;stroke-opacity:1;stroke-miterlimit:10" d="M.001 0h3.653" transform="matrix(1 0 0 -1 7.737 23.657)"/><use xlink:href="#c" x="7.737" y="28.775" style="fill:#000;fill-opacity:1"/><use xlink:href="#d" x="12.585" y="25.649" style="fill:#000;fill-opacity:1"/><use xlink:href="#d" x="7.852" y="50.806" style="fill:#000;fill-opacity:1"/><use xlink:href="#h" x="48.859" y="58.878" style="fill:#000;fill-opacity:1"/><use xlink:href="#i" x="67.757" y="58.878" style="fill:#000;fill-opacity:1"/></svg>