<svg xmlns="http://www.w3.org/2000/svg" xmlns:xlink="http://www.w3.org/1999/xlink" width="78.411" height="46.107" viewBox="0 0 58.808 34.58" version="1.2"><defs><clipPath id="a"><path d="M0 0h58.71v23H0Zm0 0"/></clipPath><clipPath id="c"><path d="M0 11h58.71v23.371H0Zm0 0"/></clipPath><clipPath id="d"><path d="M24 26h7v8.371h-7Zm0 0"/></clipPath><symbol overflow="visible" id="b"><path style="stroke:none" d="M2.5-3.734c0-.266 0-1.204.672-1.375a.895.895 0 0 1 .515 0 .607.607 0 0 0-.328.656c.047.14.188.297.454.234a.549.549 0 0 0 .374-.687c-.125-.5-.718-.516-1.046-.422-.563.14-.782.734-.844.984-.406-.578-.938-.547-1.219-.468-1 .25-1.266 1.64-1.203 1.875.031.109.14.078.156.078C.094-2.875.125-2.922.11-3c.094-1.094.657-1.516 1-1.594.172-.047.532-.031.672.532.078.296.063.968.063 2.421 0 .625-.25 1.125-.672 1.235a1.08 1.08 0 0 1-.516 0c.219-.11.39-.375.328-.656-.062-.25-.296-.266-.437-.235a.543.543 0 0 0-.39.688c.109.437.64.53 1.062.421.64-.156.828-.937.828-.984.203.328.656.61 1.234.469 1-.25 1.235-1.64 1.172-1.875-.031-.11-.11-.078-.14-.078-.094.031-.094.078-.11.14C4.156-1.39 3.547-1 3.25-.922c-.39.094-.61-.172-.688-.515-.046-.204-.062-.438-.062-.875Zm0 0"/></symbol><symbol overflow="visible" id="e"><path style="stroke:none" d="M5.625-2.516c.078-.109.078-.125.11-.203.03-.172-.079-.297-.235-.344a.437.437 0 0 0-.375.126c-.031.062-.203.312-.281.5-.14.218-.266.484-.375.718l-.89 1.64c-.063.126-.657.688-1.282.532-.485-.125-.5-.562-.406-.922.109-.437.421-1.015.968-1.797.235-.343.313-.437.36-.625a.805.805 0 0 0-.594-1C1.703-4.125 1-2.78.985-2.719c-.032.11.062.125.078.125.109.031.109 0 .203-.125.484-.86.953-1.047 1.28-.969.079.032.25.063.173.36-.063.25-.235.484-.344.656-.64.922-.953 1.438-1.063 1.89-.218.86.313 1.298.891 1.454.375.094.735 0 1.078-.203-.25.469-.484.922-1 1.344-.344.25-.765.453-1.203.343-.14-.031-.578-.172-.656-.61.156.048.297.079.453 0a.492.492 0 0 0 .281-.359C1.234.891 1 .797.906.766c-.234-.047-.594.03-.703.5-.125.484.203.953.813 1.093C2 2.61 3.219 1.984 3.78.953Zm0 0"/></symbol></defs><g clip-path="url(#a)"><path style="fill:none;stroke-width:.3985;stroke-linecap:butt;stroke-linejoin:miter;stroke:#000;stroke-opacity:1;stroke-miterlimit:10" d="m.002-.001 56.305 14.078" transform="matrix(1 0 0 -1 .959 16.948)"/></g><path style="fill:none;stroke-width:.3985;stroke-linecap:round;stroke-linejoin:round;stroke:#000;stroke-opacity:1;stroke-miterlimit:10" d="M-2.074 2.393C-1.692.957-.85.28.001-.002-.849-.28-1.695-.955-2.074-2.39" transform="scale(1 -1) rotate(14.035 40.197 231.988)"/><use xlink:href="#b" x="25.69" y="7.137" style="fill:#000;fill-opacity:1"/><g clip-path="url(#c)"><path style="fill:none;stroke-width:.3985;stroke-linecap:butt;stroke-linejoin:miter;stroke:#000;stroke-opacity:1;stroke-miterlimit:10" d="M56.693-14.173.385-.095" transform="matrix(1 0 0 -1 .959 16.948)"/></g><path style="fill:none;stroke-width:.3985;stroke-linecap:round;stroke-linejoin:round;stroke:#000;stroke-opacity:1;stroke-miterlimit:10" d="M-2.072 2.393C-1.693.958-.85.278 0 0c-.849-.277-1.694-.955-2.072-2.39" transform="scale(-1 1) rotate(-14.035 68.463 13.179)"/><g clip-path="url(#d)"><use xlink:href="#e" x="24.869" y="30.975" style="fill:#000;fill-opacity:1"/></g></svg>