<svg xmlns="http://www.w3.org/2000/svg" width="120.795" height="45.339" viewBox="0 0 90.596 34.004" version="1.2"><defs><clipPath id="a"><path d="M0 0h90.395v33.508H0Zm0 0"/></clipPath></defs><g clip-path="url(#a)"><path style="fill:none;stroke-width:.3985;stroke-linecap:butt;stroke-linejoin:miter;stroke:#000;stroke-opacity:1;stroke-miterlimit:10" d="M-1.67.559 1.668-.558M-.558-1.672.556 1.672m6.683 3.34 3.34-1.113M8.353 2.785l1.113 3.34m6.683 3.344 3.344-1.117m-2.23-1.114 1.113 3.344m6.977 2.094 1.113 3.34 6.683-2.227 2.227 6.684 6.684-2.227 2.226 6.68 6.684-2.227 2.226 6.684 6.684-2.227 4.531 2.813 3.426-6.496 6.422 2 .972-7.277 6.72-.325-1.583-7.168 6.195-2.617-1.921-3.308L85.04 0" transform="matrix(1 0 0 -1 2.542 30.758)"/></g></svg>