<svg xmlns="http://www.w3.org/2000/svg" width="116.077" height="17.163" viewBox="0 0 87.058 12.872" version="1.2"><defs><clipPath id="a"><path d="M32 0h22v12.809H32Zm0 0"/></clipPath><clipPath id="b"><path d="M33 0h20v12.809H33Zm0 0"/></clipPath></defs><g clip-path="url(#a)"><path style="fill:none;stroke-width:.3985;stroke-linecap:butt;stroke-linejoin:miter;stroke:#000;stroke-opacity:1;stroke-miterlimit:10" d="M47.751 0a5.23 5.23 0 1 1-10.46 0 5.23 5.23 0 0 1 10.46 0Zm0 0" transform="matrix(1 0 0 -1 .538 6.368)"/></g><g clip-path="url(#b)"><path style="fill:none;stroke-width:.3985;stroke-linecap:butt;stroke-linejoin:miter;stroke:#000;stroke-opacity:1;stroke-miterlimit:10" d="M38.821-3.698 46.22 3.7m0-7.398L38.82 3.7" transform="matrix(1 0 0 -1 .538 6.368)"/></g><path style="fill:none;stroke-width:.3985;stroke-linecap:butt;stroke-linejoin:miter;stroke:#000;stroke-opacity:1;stroke-miterlimit:10" d="M.001 0h37.09m10.86 0h37.09" transform="matrix(1 0 0 -1 .538 6.368)"/></svg>