<svg xmlns="http://www.w3.org/2000/svg" xmlns:xlink="http://www.w3.org/1999/xlink" width="77.78pt" height="94.79pt" viewBox="0 0 77.78 94.79" version="1.2"><defs><symbol overflow="visible" id="a"><path style="stroke:none" d="M4.922 0v-.469h-1.39v-5.734c0-.234 0-.328-.266-.328-.11 0-.125 0-.22.078-.765.562-1.796.562-2 .562H.845v.47h.203c.156 0 .703-.016 1.297-.204v5.156H.954V0c.437-.031 1.5-.031 1.984-.031s1.546 0 1.984.031Zm0 0"/></symbol><symbol overflow="visible" id="b"><path style="stroke:none" d="M5.156-2.219h-.468c-.032.203-.125.844-.266.906-.11.063-.86.063-1.016.063H1.937c.47-.39 1-.813 1.438-1.14 1.14-.844 1.781-1.313 1.781-2.25 0-1.157-1.047-1.891-2.437-1.891-1.219 0-2.156.625-2.156 1.515 0 .594.484.735.718.735C1.61-4.281 2-4.5 2-5c0-.516-.422-.672-.563-.719.282-.234.672-.343 1.032-.343.844 0 1.312.671 1.312 1.421 0 .688-.375 1.375-1.078 2.079l-2 2.046c-.14.11-.14.141-.14.344V0h4.28Zm0 0"/></symbol><symbol overflow="visible" id="f"><path style="stroke:none" d="M5.156-2c0-1.156-.797-2.078-2.265-2.078-.282 0-.813.031-1.282.344v-1.313c.282.047.391.078.72.078 1.452 0 2.374-1.125 2.374-1.375 0-.078-.016-.187-.14-.187-.032 0-.032 0-.141.047a4.32 4.32 0 0 1-1.531.28c-.75 0-1.282-.202-1.547-.28-.094-.032-.094-.047-.125-.047-.14 0-.14.11-.14.265v2.922c0 .172 0 .297.218.297.125 0 .156-.031.219-.11.39-.468.921-.562 1.328-.562.89 0 .89.875.89 1.672 0 .735 0 1.735-1.187 1.735-.25 0-.875-.063-1.297-.625.36-.016.656-.266.656-.672 0-.532-.437-.672-.672-.672-.14 0-.671.094-.671.703 0 .844.78 1.687 2.015 1.687C4.172.11 5.156-.78 5.156-2Zm0 0"/></symbol><symbol overflow="visible" id="c"><path style="stroke:none" d="M4.188 3.656c.468-.281 1.062-.953.609-2.36.516.485 1.36.829 2.11.407.655-.39.827-1.36.124-2.578-.593-1.031-1.547-1.375-2.234-.984-.36.218-.453.625-.266.953.235.39.657.437.953.265.5-.296.329-.812.313-.859.422.156.703.5.86.781C7.077 0 6.546.328 6.265.5 6.156.563 5 1.219 4.437.344 4.22 0 4.204-.031 4.173-.046c-.063-.095-.156-.063-.219-.032-.14.094-.094.187 0 .328l.219.375c.547.953-.313 1.438-.75 1.703-.406.235-1.297.735-1.813-.156A2.512 2.512 0 0 1 1.266.906c.265.235.593.328.953.125.39-.218.5-.64.281-1.031-.219-.36-.625-.516-1.063-.266-.78.454-.812 1.579-.171 2.688.89 1.531 2.125 1.687 2.921 1.234Zm0 0"/></symbol><symbol overflow="visible" id="d"><path style="stroke:none" d="m2.703 4.688.406-.235-.484-.844.953-.546.485.843.406-.234-.485-.844L7.61.734c.22-.125.266-.171.125-.421-.109-.188-.125-.188-.328-.22L1.922-.75l-.406.234 1.437 2.5L2 2.531l-.563-.969-.406.235c.219.312.672 1.094.89 1.469.204.343.626 1.093.782 1.421Zm.703-2.844L2.187-.281l3.876.594Zm0 0"/></symbol><symbol overflow="visible" id="i"><path style="stroke:none" d="M2.047 5.25c1.39 0 2.125-1.016 2.125-2.219 0-.219 0-.781-.766-1.203h.188c1.14 0 1.562.219 1.719.281.468.25.828.782.828 1.391 0 .172-.032.516-.266.75a.595.595 0 0 0-.61-.547c-.343 0-.624.235-.624.625s.265.625.64.625c.625 0 1.25-.422 1.25-1.469 0-1.359-.86-3-3.375-3-.781 0-1.578.079-2.265.5-.766.47-1 1.22-1 1.922 0 1.375.812 2.344 2.156 2.344Zm.015-1.36c-1 0-1.75 0-1.75-1.015 0-.516.391-.781.563-.86.313-.156 1.031-.156 1.219-.156 1.25 0 1.719.532 1.719 1.079 0 .953-.75.953-1.75.953Zm0 0"/></symbol><symbol overflow="visible" id="j"><path style="stroke:none" d="M-1.61 8.344.14 7.328c.204-.125 1.516-.812 1.641-.844.203-.078.266 0 .313.063l.406-.234-.969-2.36-.39.235c.296.703.25.875.218.921-.062.11-.765.516-.921.61L-1 6.547c.031-.266.094-.547.156-.828.266-1.453.203-2.985-.531-4.25-.344-.61-.828-.328-.875-.297-.14.078-.531.36-.203.922l.234.406c.235.406.438.844.625 1.281.266.625.375 1.235.266 1.75l-.438 2.344c-.03.14-.015.172.157.469Zm0 0"/></symbol><symbol overflow="visible" id="o"><path style="stroke:none" d="m-4.266 2.453.235.406 1.203-.687L.032 7.14c.124.203.171.28.405.14.094-.047.11-.062.141-.172.39-.875 1.281-1.39 1.453-1.5l.172-.093-.234-.391-.172.094c-.14.078-.594.36-1.016.828l-2.578-4.469L-.594.875-.828.469c-.36.25-1.281.781-1.703 1.031-.422.234-1.344.766-1.735.953Zm0 0"/></symbol><symbol overflow="visible" id="p"><path style="stroke:none" d="M-2.984 5.406c.468.813 1.687 2.875 3.78 1.672 2.079-1.203.891-3.266.407-4.094-.5-.875-1.64-2.859-3.719-1.656-2.078 1.203-.968 3.203-.468 4.078Zm1.156-.547c-.281-.484-.734-1.28-.906-1.765-.36-.86.125-1.297.39-1.453.297-.172.906-.266 1.375.312.344.39.86 1.281 1.125 1.766.36.625.688 1.187.875 1.672.328.828-.218 1.265-.422 1.375-.328.187-.78.234-1.156-.063-.344-.219-.875-1.14-1.281-1.844Zm0 0"/></symbol><symbol overflow="visible" id="m"><path style="stroke:none" d="M-5.25 1.86c0 1.077.844 1.546 1.328 1.827-.687.36-1 .797-1 1.376 0 1.015.906 1.468 2.047 1.468 1.375 0 2.078-.797 2.078-1.75 0-.437-.187-1.062-.953-1.5.828-.375 1.266-.937 1.266-1.672 0-1.203-1.079-1.718-2.36-1.718-1.594 0-2.406.875-2.406 1.968Zm1.078 3.187c0-.484.25-.813.688-1.11l1.5.844c.156.078.437.25.437.594 0 .703-.89.766-1.297.766-.828 0-1.328-.407-1.328-1.094Zm-.219-3.734c0-.829.938-1 1.516-1 .969 0 1.547.515 1.547 1.296 0 .766-.531 1.204-.89 1.407l-1.36-.766c-.438-.25-.813-.453-.813-.938Zm0 0"/></symbol><symbol overflow="visible" id="n"><path style="stroke:none" d="M-5.469-2.906C-6.047-2.578-8.28-1.281-7.094.78-6.39 2-5.187 2.437-4.03 1.766c1.187-.688 1.328-1.907.718-2.97-.171-.312-.453-.687-1.25-.655l.188-.11c.64-.375 1.188-.562 1.547-.625a1.423 1.423 0 0 1 1.39.703c.079.157.235.485.22.829-.079-.079-.391-.344-.782-.11-.297.172-.438.516-.234.86.187.343.546.406.875.218.593-.344.812-1.062.265-2.015-.64-1.125-2.172-2.079-4.375-.797Zm-.156 1.672c.531-.313 1.547-.594 1.969.14.484.828-.172 1.203-1.031 1.688-.844.5-1.532.89-2.079-.047-.28-.5.047-.969.11-1.063.218-.25.734-.546 1.031-.718Zm0 0"/></symbol><symbol overflow="visible" id="v"><path style="stroke:none" d="m-2.453-4.266-.406.235.687 1.203L-7.14.032c-.203.124-.28.171-.14.405.047.094.062.11.172.141.875.39 1.39 1.281 1.5 1.453l.093.172.391-.234-.094-.172A4.282 4.282 0 0 0-6.047.78l4.469-2.578.703 1.203.406-.234c-.25-.36-.781-1.281-1.031-1.703-.234-.422-.766-1.344-.953-1.735Zm0 0"/></symbol><symbol overflow="visible" id="w"><path style="stroke:none" d="m-2.703-4.688-.406.235.484.844-.953.546-.485-.843-.406.234.485.844L-7.61-.734c-.22.125-.266.171-.125.421.109.188.125.188.328.22l5.484.843.406-.234-1.437-2.5.953-.547.563.969.406-.235c-.219-.312-.672-1.094-.89-1.469a26.144 26.144 0 0 1-.782-1.421Zm-.703 2.844L-2.187.281l-3.876-.594Zm0 0"/></symbol><symbol overflow="visible" id="r"><path style="stroke:none" d="M0-4.922h-.469v1.39h-5.734c-.234 0-.328 0-.328.266 0 .11 0 .125.078.22.562.765.562 1.796.562 2v.202h.47v-.203c0-.156-.016-.703-.204-1.297h5.156v1.39H0c-.031-.437-.031-1.5-.031-1.984s0-1.546.031-1.984Zm0 0"/></symbol><symbol overflow="visible" id="s"><path style="stroke:none" d="M4.266-2.453 4.03-2.86l-1.203.687-2.86-4.969c-.124-.203-.171-.28-.405-.14-.094.047-.11.062-.141.172-.39.875-1.281 1.39-1.453 1.5l-.172.093.234.391.172-.094c.14-.078.594-.36 1.016-.828l2.578 4.469-1.203.703.234.406c.36-.25 1.281-.781 1.703-1.031.422-.234 1.344-.766 1.735-.953Zm0 0"/></symbol><symbol overflow="visible" id="t"><path style="stroke:none" d="m3.36-4.5-.407.234c.078.188.313.797.219.922-.063.11-.719.485-.844.563l-1.281.734c.219-.578.469-1.203.687-1.703.563-1.297.891-2.031.422-2.844-.578-1-1.86-1.11-3.062-.422-1.063.61-1.563 1.625-1.11 2.391.297.516.782.406.985.281.281-.156.515-.547.265-.984-.25-.453-.703-.36-.843-.344.125-.344.406-.625.718-.812.735-.422 1.485-.079 1.86.578.344.593.36 1.375.094 2.343L.359-.796c-.078.156-.062.188.047.36l.078.156 3.704-2.14Zm0 0"/></symbol><symbol overflow="visible" id="u"><path style="stroke:none" d="M3.656-4.188c-.281-.468-.953-1.062-2.36-.609.485-.516.829-1.36.407-2.11-.39-.655-1.36-.827-2.578-.124-1.031.593-1.375 1.547-.984 2.234.218.36.625.453.953.266a.687.687 0 0 0 .265-.953c-.296-.5-.812-.329-.859-.313.156-.422.5-.703.781-.86C0-7.077.328-6.546.5-6.265c.063.11.719 1.266-.156 1.829-.344.218-.375.234-.39.265-.095.063-.063.156-.032.219.094.14.187.094.328 0l.375-.219c.953-.547 1.438.313 1.703.75.235.406.735 1.297-.156 1.813-.235.14-.688.343-1.266.343.235-.265.328-.593.125-.953-.218-.39-.64-.5-1.031-.281-.36.219-.516.625-.266 1.063.454.78 1.579.812 2.688.171 1.531-.89 1.687-2.125 1.234-2.921Zm0 0"/></symbol><clipPath id="e"><path d="M58 15h19.672v27H58Zm0 0"/></clipPath><clipPath id="g"><path d="M50 0h27.672v11H50Zm0 0"/></clipPath><clipPath id="h"><path d="M67 0h10.672v28H67Zm0 0"/></clipPath><clipPath id="k"><path d="M52 62h25.672v21H52Zm0 0"/></clipPath><clipPath id="l"><path d="M58 47h19.672v27H58Zm0 0"/></clipPath><clipPath id="q"><path d="M20 79h27v15.684H20Zm0 0"/></clipPath></defs><use xlink:href="#a" x="38.445" y="56.522" style="fill:#000;fill-opacity:1"/><use xlink:href="#b" x="38.445" y="43.108" style="fill:#000;fill-opacity:1"/><use xlink:href="#c" x="48.716" y="32.262" style="fill:#000;fill-opacity:1"/><use xlink:href="#d" x="60.281" y="25.585" style="fill:#000;fill-opacity:1"/><g clip-path="url(#e)"><path style="fill:none;stroke-width:.3985;stroke-linecap:butt;stroke-linejoin:miter;stroke:#000;stroke-opacity:1;stroke-miterlimit:10" d="m40.242 40.243-8.504-14.73" transform="matrix(1 0 0 -1 32.805 61.763)"/></g><path style="fill:none;stroke-width:.19925;stroke-linecap:butt;stroke-linejoin:miter;stroke:gray;stroke-opacity:1;stroke-miterlimit:10" d="m31.738 25.513-8.504 14.73" transform="matrix(1 0 0 -1 32.805 61.763)"/><use xlink:href="#f" x="61.678" y="16.226" style="fill:#000;fill-opacity:1"/><path style="fill:none;stroke-width:.19925;stroke-linecap:butt;stroke-linejoin:miter;stroke:gray;stroke-opacity:1;stroke-miterlimit:10" d="M23.234 57.251h17.008" transform="matrix(1 0 0 -1 32.805 61.763)"/><g clip-path="url(#g)"><path style="fill:none;stroke-width:.3985;stroke-linecap:butt;stroke-linejoin:miter;stroke:#000;stroke-opacity:1;stroke-miterlimit:10" d="m23.234 57.251 8.504 3.399 8.504-3.399" transform="matrix(1 0 0 -1 32.805 61.763)"/></g><path style="fill:none;stroke-width:.19925;stroke-linecap:butt;stroke-linejoin:miter;stroke:gray;stroke-opacity:1;stroke-miterlimit:10" d="M40.242 57.251V40.243" transform="matrix(1 0 0 -1 32.805 61.763)"/><g clip-path="url(#h)"><path style="fill:none;stroke-width:.3985;stroke-linecap:butt;stroke-linejoin:miter;stroke:#000;stroke-opacity:1;stroke-miterlimit:10" d="m40.242 57.251 3.402-8.504-3.402-8.504" transform="matrix(1 0 0 -1 32.805 61.763)"/></g><path style="fill:none;stroke-width:.19925;stroke-linecap:butt;stroke-linejoin:miter;stroke:gray;stroke-opacity:1;stroke-miterlimit:10" d="M40.242 40.243H23.234M23.234 40.243v17.008" transform="matrix(1 0 0 -1 32.805 61.763)"/><path style="fill:none;stroke-width:.3985;stroke-linecap:butt;stroke-linejoin:miter;stroke:#000;stroke-opacity:1;stroke-miterlimit:10" d="m23.234 40.243-3.402 8.504 3.402 8.504" transform="matrix(1 0 0 -1 32.805 61.763)"/><path style="fill:none;stroke-width:.19925;stroke-linecap:butt;stroke-linejoin:miter;stroke:gray;stroke-opacity:1;stroke-miterlimit:10" d="m31.738 25.513-14.73-8.504" transform="matrix(1 0 0 -1 32.805 61.763)"/><path style="fill:none;stroke-width:.3985;stroke-linecap:butt;stroke-linejoin:miter;stroke:#000;stroke-opacity:1;stroke-miterlimit:10" d="m31.738 25.513-5.664-7.2-9.067-1.304" transform="matrix(1 0 0 -1 32.805 61.763)"/><path style="fill:none;stroke-width:.19925;stroke-linecap:butt;stroke-linejoin:miter;stroke:gray;stroke-opacity:1;stroke-miterlimit:10" d="M17.008 17.01 8.504 31.735M8.504 31.736l14.73 8.507" transform="matrix(1 0 0 -1 32.805 61.763)"/><path style="fill:none;stroke-width:.3985;stroke-linecap:butt;stroke-linejoin:miter;stroke:#000;stroke-opacity:1;stroke-miterlimit:10" d="m8.504 31.736 5.664 7.199 9.066 1.308" transform="matrix(1 0 0 -1 32.805 61.763)"/><path style="fill:none;stroke-width:.19925;stroke-linecap:butt;stroke-linejoin:miter;stroke:gray;stroke-opacity:1;stroke-miterlimit:10" d="M17.008 17.01H0" transform="matrix(1 0 0 -1 32.805 61.763)"/><path style="fill:none;stroke-width:.3985;stroke-linecap:butt;stroke-linejoin:miter;stroke:#000;stroke-opacity:1;stroke-miterlimit:10" d="m0 17.01 8.504 14.726" transform="matrix(1 0 0 -1 32.805 61.763)"/><use xlink:href="#i" x="51.515" y="50.394" style="fill:#000;fill-opacity:1"/><use xlink:href="#j" x="62.254" y="60.574" style="fill:#000;fill-opacity:1"/><path style="fill:none;stroke-width:.19925;stroke-linecap:butt;stroke-linejoin:miter;stroke:gray;stroke-opacity:1;stroke-miterlimit:10" d="m40.242-6.225-14.73-8.504" transform="matrix(1 0 0 -1 32.805 61.763)"/><g clip-path="url(#k)"><path style="fill:none;stroke-width:.3985;stroke-linecap:butt;stroke-linejoin:miter;stroke:#000;stroke-opacity:1;stroke-miterlimit:10" d="m40.242-6.225-5.664-7.2-9.067-1.304" transform="matrix(1 0 0 -1 32.805 61.763)"/></g><path style="fill:none;stroke-width:.19925;stroke-linecap:butt;stroke-linejoin:miter;stroke:gray;stroke-opacity:1;stroke-miterlimit:10" d="M25.511-14.73 17.008.002" transform="matrix(1 0 0 -1 32.805 61.763)"/><path style="fill:none;stroke-width:.3985;stroke-linecap:butt;stroke-linejoin:miter;stroke:#000;stroke-opacity:1;stroke-miterlimit:10" d="m25.511-14.73-7.195 5.665L17.008 0" transform="matrix(1 0 0 -1 32.805 61.763)"/><path style="fill:none;stroke-width:.19925;stroke-linecap:butt;stroke-linejoin:miter;stroke:gray;stroke-opacity:1;stroke-miterlimit:10" d="m17.008.001 14.73 8.504M31.738 8.505l8.504-14.73" transform="matrix(1 0 0 -1 32.805 61.763)"/><g clip-path="url(#l)"><path style="fill:none;stroke-width:.3985;stroke-linecap:butt;stroke-linejoin:miter;stroke:#000;stroke-opacity:1;stroke-miterlimit:10" d="m31.738 8.505 7.2-5.664 1.304-9.066" transform="matrix(1 0 0 -1 32.805 61.763)"/></g><path style="fill:none;stroke-width:.19925;stroke-linecap:butt;stroke-linejoin:miter;stroke:gray;stroke-opacity:1;stroke-miterlimit:10" d="M17.008.001V17.01" transform="matrix(1 0 0 -1 32.805 61.763)"/><path style="fill:none;stroke-width:.3985;stroke-linecap:butt;stroke-linejoin:miter;stroke:#000;stroke-opacity:1;stroke-miterlimit:10" d="m17.008 17.01 14.73-8.505" transform="matrix(1 0 0 -1 32.805 61.763)"/><use xlink:href="#m" x="44.174" y="63.465" style="fill:#000;fill-opacity:1"/><use xlink:href="#n" x="33.903" y="74.256" style="fill:#000;fill-opacity:1"/><path style="fill:none;stroke-width:.19925;stroke-linecap:butt;stroke-linejoin:miter;stroke:gray;stroke-opacity:1;stroke-miterlimit:10" d="m-6.227-23.233-8.504 14.73" transform="matrix(1 0 0 -1 32.805 61.763)"/><path style="fill:none;stroke-width:.3985;stroke-linecap:butt;stroke-linejoin:miter;stroke:#000;stroke-opacity:1;stroke-miterlimit:10" d="m-6.227-23.233-7.195 5.664-1.309 9.066" transform="matrix(1 0 0 -1 32.805 61.763)"/><path style="fill:none;stroke-width:.19925;stroke-linecap:butt;stroke-linejoin:miter;stroke:gray;stroke-opacity:1;stroke-miterlimit:10" d="M-14.73-8.503 0 .001" transform="matrix(1 0 0 -1 32.805 61.763)"/><path style="fill:none;stroke-width:.3985;stroke-linecap:butt;stroke-linejoin:miter;stroke:#000;stroke-opacity:1;stroke-miterlimit:10" d="m-14.73-8.503 5.663 7.196L0 0" transform="matrix(1 0 0 -1 32.805 61.763)"/><path style="fill:none;stroke-width:.19925;stroke-linecap:butt;stroke-linejoin:miter;stroke:gray;stroke-opacity:1;stroke-miterlimit:10" d="m0 .001 8.504-14.73" transform="matrix(1 0 0 -1 32.805 61.763)"/><g style="fill:#000;fill-opacity:1"><use xlink:href="#o" x="39.757" y="79.354"/><use xlink:href="#p" x="34.796" y="82.218"/></g><g clip-path="url(#q)"><path style="fill:none;stroke-width:.3985;stroke-linecap:butt;stroke-linejoin:miter;stroke:#000;stroke-opacity:1;stroke-miterlimit:10" d="m8.504-31.737-14.73 8.504" transform="matrix(1 0 0 -1 32.805 61.763)"/></g><path style="fill:none;stroke-width:.19925;stroke-linecap:butt;stroke-linejoin:miter;stroke:gray;stroke-opacity:1;stroke-miterlimit:10" d="m-6.227-23.233 14.73 8.504" transform="matrix(1 0 0 -1 32.805 61.763)"/><path style="fill:none;stroke-width:.3985;stroke-linecap:butt;stroke-linejoin:miter;stroke:#000;stroke-opacity:1;stroke-miterlimit:10" d="M8.504-14.73v-17.007" transform="matrix(1 0 0 -1 32.805 61.763)"/><path style="fill:none;stroke-width:.19925;stroke-linecap:butt;stroke-linejoin:miter;stroke:gray;stroke-opacity:1;stroke-miterlimit:10" d="M0 .001h17.008" transform="matrix(1 0 0 -1 32.805 61.763)"/><path style="fill:none;stroke-width:.3985;stroke-linecap:butt;stroke-linejoin:miter;stroke:#000;stroke-opacity:1;stroke-miterlimit:10" d="m17.008.001-8.504-14.73" transform="matrix(1 0 0 -1 32.805 61.763)"/><g style="fill:#000;fill-opacity:1"><use xlink:href="#r" x="31.158" y="58.987"/><use xlink:href="#r" x="31.158" y="53.258"/></g><g style="fill:#000;fill-opacity:1"><use xlink:href="#s" x="17.859" y="47.332"/><use xlink:href="#t" x="22.82" y="44.468"/></g><g style="fill:#000;fill-opacity:1"><use xlink:href="#s" x="11.125" y="35.668"/><use xlink:href="#u" x="16.086" y="32.804"/></g><path style="fill:none;stroke-width:.3985;stroke-linecap:butt;stroke-linejoin:miter;stroke:#000;stroke-opacity:1;stroke-miterlimit:10" d="m-23.235 40.243 14.73-8.507" transform="matrix(1 0 0 -1 32.805 61.763)"/><path style="fill:none;stroke-width:.19925;stroke-linecap:butt;stroke-linejoin:miter;stroke:gray;stroke-opacity:1;stroke-miterlimit:10" d="m-8.504 31.736-14.73-8.504" transform="matrix(1 0 0 -1 32.805 61.763)"/><path style="fill:none;stroke-width:.3985;stroke-linecap:butt;stroke-linejoin:miter;stroke:#000;stroke-opacity:1;stroke-miterlimit:10" d="M-23.235 23.232v17.011" transform="matrix(1 0 0 -1 32.805 61.763)"/><path style="fill:none;stroke-width:.19925;stroke-linecap:butt;stroke-linejoin:miter;stroke:gray;stroke-opacity:1;stroke-miterlimit:10" d="M-8.504 31.736 0 17.009" transform="matrix(1 0 0 -1 32.805 61.763)"/><path style="fill:none;stroke-width:.3985;stroke-linecap:butt;stroke-linejoin:miter;stroke:#000;stroke-opacity:1;stroke-miterlimit:10" d="m-8.504 31.736 7.199-5.66L0 17.009" transform="matrix(1 0 0 -1 32.805 61.763)"/><path style="fill:none;stroke-width:.19925;stroke-linecap:butt;stroke-linejoin:miter;stroke:gray;stroke-opacity:1;stroke-miterlimit:10" d="m0 17.01-14.73-8.505" transform="matrix(1 0 0 -1 32.805 61.763)"/><g style="fill:#000;fill-opacity:1"><use xlink:href="#v" x="15.266" y="51.676"/><use xlink:href="#w" x="12.402" y="46.715"/></g><path style="fill:none;stroke-width:.3985;stroke-linecap:butt;stroke-linejoin:miter;stroke:#000;stroke-opacity:1;stroke-miterlimit:10" d="m-31.739 8.505 8.504 14.727" transform="matrix(1 0 0 -1 32.805 61.763)"/><path style="fill:none;stroke-width:.19925;stroke-linecap:butt;stroke-linejoin:miter;stroke:gray;stroke-opacity:1;stroke-miterlimit:10" d="m-23.235 23.232 8.504-14.727" transform="matrix(1 0 0 -1 32.805 61.763)"/><path style="fill:none;stroke-width:.3985;stroke-linecap:butt;stroke-linejoin:miter;stroke:#000;stroke-opacity:1;stroke-miterlimit:10" d="M-14.73 8.505H-31.74" transform="matrix(1 0 0 -1 32.805 61.763)"/><path style="fill:none;stroke-width:.19925;stroke-linecap:butt;stroke-linejoin:miter;stroke:gray;stroke-opacity:1;stroke-miterlimit:10" d="M0 17.01V0" transform="matrix(1 0 0 -1 32.805 61.763)"/><path style="fill:none;stroke-width:.3985;stroke-linecap:butt;stroke-linejoin:miter;stroke:#000;stroke-opacity:1;stroke-miterlimit:10" d="m0 .001-14.73 8.504" transform="matrix(1 0 0 -1 32.805 61.763)"/></svg>