<svg xmlns="http://www.w3.org/2000/svg" xmlns:xlink="http://www.w3.org/1999/xlink" width="148.083" height="100.515" viewBox="0 0 111.062 75.386" version="1.2"><defs><symbol overflow="visible" id="b"><path style="stroke:none" d="M5.563-1.813c.14 0 .312 0 .312-.171 0-.188-.172-.188-.313-.188H1c-.125 0-.297 0-.297.188 0 .171.172.171.297.171Zm0 0"/></symbol><symbol overflow="visible" id="c"><path style="stroke:none" d="M2.25-1.625c.125-.125.453-.39.594-.5.484-.453.953-.89.953-1.61 0-.953-.797-1.562-1.781-1.562-.97 0-1.594.719-1.594 1.438 0 .39.312.437.422.437.172 0 .422-.11.422-.422 0-.406-.407-.406-.5-.406.234-.594.765-.781 1.156-.781.734 0 1.125.625 1.125 1.297 0 .828-.578 1.437-1.531 2.39l-1 1.047C.422-.219.422-.203.422 0h3.14l.235-1.422h-.25c-.016.156-.078.547-.172.703-.047.063-.656.063-.781.063H1.172Zm0 0"/></symbol><symbol overflow="visible" id="d"><path style="stroke:none" d="M2.5-5.078c0-.219-.016-.219-.234-.219-.329.313-.75.5-1.5.5v.266c.218 0 .64 0 1.109-.203v4.078c0 .297-.031.39-.781.39H.812V0c.329-.031 1.016-.031 1.375-.031.36 0 1.047 0 1.376.031v-.266H3.28c-.75 0-.781-.093-.781-.39Zm0 0"/></symbol><symbol overflow="visible" id="e"><path style="stroke:none" d="M3.89-2.547c0-.844-.078-1.36-.343-1.875-.344-.703-1-.875-1.438-.875-1 0-1.375.75-1.484.969C.344-3.75.328-2.953.328-2.547c0 .531.016 1.328.406 1.969.36.594.954.75 1.375.75.391 0 1.063-.125 1.47-.906.296-.579.312-1.297.312-1.813ZM2.11-.062c-.266 0-.813-.126-.985-.954-.094-.453-.094-1.203-.094-1.625 0-.546 0-1.109.094-1.546.172-.813.781-.891.984-.891.266 0 .829.14.985.86.094.437.094 1.046.094 1.577 0 .47 0 1.188-.094 1.641-.172.828-.719.938-.985.938Zm0 0"/></symbol><symbol overflow="visible" id="f"><path style="stroke:none" d="M2.016-2.656c.625 0 1.03.453 1.03 1.297 0 1-.562 1.28-.983 1.28-.438 0-1.047-.155-1.329-.577.297 0 .5-.188.5-.438 0-.265-.187-.437-.453-.437-.203 0-.437.125-.437.453 0 .75.812 1.25 1.734 1.25 1.047 0 1.797-.734 1.797-1.531 0-.672-.531-1.266-1.344-1.454.625-.218 1.11-.75 1.11-1.39 0-.64-.72-1.094-1.547-1.094-.86 0-1.5.453-1.5 1.063 0 .296.187.421.406.421.25 0 .406-.171.406-.406 0-.297-.265-.406-.437-.406.344-.438.953-.469 1.094-.469.203 0 .812.063.812.89 0 .548-.234.891-.344 1.016-.234.25-.422.266-.906.297-.156 0-.219.016-.219.125 0 .11.078.11.219.11Zm0 0"/></symbol><symbol overflow="visible" id="g"><path style="stroke:none" d="M3.14-5.156c0-.157 0-.219-.171-.219-.094 0-.11 0-.188.11L.234-1.564v.25h2.25v.672c0 .297-.015.375-.64.375h-.172V0c.672-.031.687-.031 1.14-.031.454 0 .47 0 1.141.031v-.266h-.172c-.625 0-.64-.078-.64-.375v-.671h.843v-.25h-.843Zm-.593.64v2.954H.516Zm0 0"/></symbol><symbol overflow="visible" id="h"><path style="stroke:none" d="M1.11-4.484c.109.03.421.125.765.125 1 0 1.594-.704 1.594-.829 0-.093-.047-.109-.094-.109-.016 0-.031 0-.094.031a2.982 2.982 0 0 1-1.11.22c-.468 0-.858-.11-1.108-.22-.079-.03-.094-.03-.11-.03-.094 0-.094.077-.094.234v2.328c0 .14 0 .234.125.234.063 0 .079-.031.125-.094.094-.11.391-.515 1.079-.515.437 0 .656.359.734.515.125.281.14.656.14.953 0 .297 0 .735-.218 1.079-.156.25-.485.484-.906.484A1.271 1.271 0 0 1 .734-.922c.016.016.079.016.079.016.218 0 .406-.14.406-.39a.388.388 0 0 0-.39-.407c-.157 0-.407.078-.407.422 0 .718.625 1.453 1.531 1.453 1 0 1.844-.781 1.844-1.766 0-.922-.672-1.75-1.61-1.75-.39 0-.765.125-1.078.406Zm0 0"/></symbol><clipPath id="a"><path d="M0 0h110.594v74H0Zm0 0"/></clipPath></defs><path style="fill:none;stroke-width:.3985;stroke-linecap:round;stroke-linejoin:miter;stroke:gray;stroke-opacity:1;stroke-miterlimit:10" d="M0-1.393V0M24.804-1.393V0M49.609-1.393V0M74.413-1.393V0M99.218-1.393V0M0 61.314v1.394M24.804 61.314v1.394M49.609 61.314v1.394M74.413 61.314v1.394M99.218 61.314v1.394M-1.395.001h1.394M-1.395 15.33h1.394M-1.395 30.658h1.394M-1.395 45.986h1.394M-1.395 61.314h1.394M99.214.001h1.395M99.214 15.33h1.395M99.214 30.658h1.395M99.214 45.986h1.395M99.214 61.314h1.395" transform="matrix(1 0 0 -1 8.696 64.724)"/><path style="fill:none;stroke-width:.3985;stroke-linecap:butt;stroke-linejoin:miter;stroke:gray;stroke-opacity:1;stroke-miterlimit:10" d="M0 .001h99.214M0 61.314h99.214M0 .001v61.313M99.214.001v61.313" transform="matrix(1 0 0 -1 8.696 64.724)"/><g clip-path="url(#a)"><path style="fill:none;stroke-width:.59776;stroke-linecap:butt;stroke-linejoin:miter;stroke:#000;stroke-opacity:1;stroke-miterlimit:10" d="M0 61.314s2.988-7.195 4.132-9.793a328.69 328.69 0 0 1 4.137-8.942 249.788 249.788 0 0 1 4.133-8.09 205.213 205.213 0 0 1 4.132-7.238c1.149-1.89 2.989-4.73 4.137-6.386 1.145-1.653 2.985-4.118 4.133-5.536 1.145-1.418 2.984-3.5 4.133-4.683 1.148-1.18 2.988-2.887 4.133-3.832 1.148-.945 2.988-2.27 4.136-2.98 1.145-.708 2.985-1.657 4.133-2.13 1.149-.472 2.985-1.042 4.133-1.277C46.62.19 48.46.001 49.605.001c1.148 0 2.988.188 4.137.422 1.144.238 2.984.805 4.132 1.278 1.149.472 2.989 1.421 4.133 2.128 1.149.708 2.988 2.036 4.137 2.98 1.144.946 2.984 2.65 4.133 3.833 1.144 1.18 2.984 3.262 4.132 4.68 1.149 1.418 2.989 3.882 4.133 5.535 1.149 1.652 2.989 4.496 4.137 6.387a201.5 201.5 0 0 1 4.133 7.234 257.935 257.935 0 0 1 4.133 8.09 317.06 317.06 0 0 1 4.132 8.937c1.149 2.602 4.137 9.793 4.137 9.793" transform="matrix(1 0 0 -1 8.696 64.724)"/></g><use xlink:href="#b" x="3.286" y="73.911" style="fill:#000;fill-opacity:1"/><use xlink:href="#c" x="9.872" y="73.911" style="fill:#000;fill-opacity:1"/><use xlink:href="#b" x="28.09" y="73.911" style="fill:#000;fill-opacity:1"/><use xlink:href="#d" x="34.677" y="73.911" style="fill:#000;fill-opacity:1"/><use xlink:href="#e" x="56.188" y="73.911" style="fill:#000;fill-opacity:1"/><use xlink:href="#d" x="80.993" y="73.911" style="fill:#000;fill-opacity:1"/><use xlink:href="#c" x="105.797" y="73.911" style="fill:#000;fill-opacity:1"/><use xlink:href="#d" x=".411" y="67.292" style="fill:#000;fill-opacity:1"/><use xlink:href="#c" x=".411" y="51.964" style="fill:#000;fill-opacity:1"/><use xlink:href="#f" x=".411" y="36.636" style="fill:#000;fill-opacity:1"/><use xlink:href="#g" x=".411" y="21.308" style="fill:#000;fill-opacity:1"/><use xlink:href="#h" x=".411" y="5.98" style="fill:#000;fill-opacity:1"/></svg>