<svg xmlns="http://www.w3.org/2000/svg" xmlns:xlink="http://www.w3.org/1999/xlink" width="408.699" height="57.339" viewBox="0 0 306.524 43.004" version="1.2"><defs><symbol overflow="visible" id="b"><path style="stroke:none" d="M3.89-2.547c0-.844-.078-1.36-.343-1.875-.344-.703-1-.875-1.438-.875-1 0-1.375.75-1.484.969C.344-3.75.328-2.953.328-2.547c0 .531.016 1.328.406 1.969.36.594.954.75 1.375.75.391 0 1.063-.125 1.47-.906.296-.579.312-1.297.312-1.813ZM2.11-.062c-.266 0-.813-.126-.985-.954-.094-.453-.094-1.203-.094-1.625 0-.546 0-1.109.094-1.546.172-.813.781-.891.984-.891.266 0 .829.14.985.86.094.437.094 1.046.094 1.577 0 .47 0 1.188-.094 1.641-.172.828-.719.938-.985.938Zm0 0"/></symbol><symbol overflow="visible" id="c"><path style="stroke:none" d="M2.25-1.625c.125-.125.453-.39.594-.5.484-.453.953-.89.953-1.61 0-.953-.797-1.562-1.781-1.562-.97 0-1.594.719-1.594 1.438 0 .39.312.437.422.437.172 0 .422-.11.422-.422 0-.406-.407-.406-.5-.406.234-.594.765-.781 1.156-.781.734 0 1.125.625 1.125 1.297 0 .828-.578 1.437-1.531 2.39l-1 1.047C.422-.219.422-.203.422 0h3.14l.235-1.422h-.25c-.016.156-.078.547-.172.703-.047.063-.656.063-.781.063H1.172Zm0 0"/></symbol><symbol overflow="visible" id="d"><path style="stroke:none" d="M1.11-4.484c.109.03.421.125.765.125 1 0 1.594-.704 1.594-.829 0-.093-.047-.109-.094-.109-.016 0-.031 0-.094.031a2.982 2.982 0 0 1-1.11.22c-.468 0-.858-.11-1.108-.22-.079-.03-.094-.03-.11-.03-.094 0-.094.077-.094.234v2.328c0 .14 0 .234.125.234.063 0 .079-.031.125-.094.094-.11.391-.515 1.079-.515.437 0 .656.359.734.515.125.281.14.656.14.953 0 .297 0 .735-.218 1.079-.156.25-.485.484-.906.484A1.271 1.271 0 0 1 .734-.922c.016.016.079.016.079.016.218 0 .406-.14.406-.39a.388.388 0 0 0-.39-.407c-.157 0-.407.078-.407.422 0 .718.625 1.453 1.531 1.453 1 0 1.844-.781 1.844-1.766 0-.922-.672-1.75-1.61-1.75-.39 0-.765.125-1.078.406Zm0 0"/></symbol><symbol overflow="visible" id="e"><path style="stroke:none" d="M4.031-4.86c.078-.077.078-.093.078-.265H2.08a8.79 8.79 0 0 1-.642-.031c-.421-.032-.421-.11-.453-.235h-.25L.47-3.703h.25c.015-.125.11-.672.219-.735.078-.046.687-.046.796-.046h1.688l-.813 1.109C1.703-2.172 1.5-.906 1.5-.281c0 .078 0 .453.375.453s.375-.36.375-.453v-.39c0-1.141.203-2.079.594-2.61Zm0 0"/></symbol><symbol overflow="visible" id="f"><path style="stroke:none" d="M2.5-5.078c0-.219-.016-.219-.234-.219-.329.313-.75.5-1.5.5v.266c.218 0 .64 0 1.109-.203v4.078c0 .297-.031.39-.781.39H.812V0c.329-.031 1.016-.031 1.375-.031.36 0 1.047 0 1.376.031v-.266H3.28c-.75 0-.781-.093-.781-.39Zm0 0"/></symbol><symbol overflow="visible" id="g"><path style="stroke:none" d="M1.625-.438a.463.463 0 0 0-.453-.453.447.447 0 0 0-.438.438.44.44 0 0 0 .438.453.45.45 0 0 0 .453-.438Zm0 0"/></symbol><clipPath id="a"><path d="M7 0h299.285v41H7Zm0 0"/></clipPath></defs><path style="fill:none;stroke-width:.3985;stroke-linecap:round;stroke-linejoin:miter;stroke:gray;stroke-opacity:1;stroke-miterlimit:10" d="M.001-1.992V.001M70.868-1.992V.001M141.732-1.992V.001M212.599-1.992V.001M283.466-1.992V.001M.001 28.348v1.992M70.868 28.348v1.992M141.732 28.348v1.992M212.599 28.348v1.992M283.466 28.348v1.992M-1.991 0H.001M-1.991 7.087H.001M-1.991 14.172H.001M-1.991 21.258H.001M-1.991 28.348H.001M283.466 0h1.992M283.466 7.087h1.992M283.466 14.172h1.992M283.466 21.258h1.992M283.466 28.348h1.992" transform="matrix(1 0 0 -1 15.823 31.567)"/><path style="fill:none;stroke-width:.3985;stroke-linecap:butt;stroke-linejoin:miter;stroke:gray;stroke-opacity:1;stroke-miterlimit:10" d="M.001 0h283.465M.001 28.348h283.465M.001 0v28.348M283.466 0v28.348" transform="matrix(1 0 0 -1 15.823 31.567)"/><g clip-path="url(#a)"><path style="fill:none;stroke-width:.59776;stroke-linecap:butt;stroke-linejoin:miter;stroke:#000;stroke-opacity:1;stroke-miterlimit:10" d="M.001 0S8.532 4.65 11.81 5.787c3.277 1.136 8.535 1.808 11.812 2.398 3.278.586 8.535 1.367 11.813 1.836 3.277.473 8.531 1.149 11.808 1.55 3.278.407 8.536 1.009 11.813 1.368 3.277.36 8.531.906 11.812 1.234 3.278.329 8.532.832 11.809 1.137 3.277.305 8.535.774 11.813 1.059 3.277.281 8.53.722 11.808.992 3.277.266 8.535.684 11.813.937 3.277.254 8.535.653 11.812.895 3.277.242 8.531.621 11.809.852a3997.686 3997.686 0 0 0 23.625 1.605c3.277.215 8.53.555 11.808.762a5988.434 5988.434 0 0 0 23.625 1.445c3.278.195 8.532.504 11.809.691 3.277.192 8.535.489 11.812.676a11954.405 11954.405 0 0 0 23.621 1.293c3.278.176 8.536.453 11.813.625 3.277.168 8.531.442 11.809.61 3.277.168 11.812.597 11.812.597" transform="matrix(1 0 0 -1 15.823 31.567)"/></g><use xlink:href="#b" x="13.706" y="41.352" style="fill:#000;fill-opacity:1"/><g style="fill:#000;fill-opacity:1"><use xlink:href="#c" x="82.455" y="41.352"/><use xlink:href="#d" x="86.69" y="41.352"/></g><g style="fill:#000;fill-opacity:1"><use xlink:href="#d" x="153.321" y="41.352"/><use xlink:href="#b" x="157.556" y="41.352"/></g><g style="fill:#000;fill-opacity:1"><use xlink:href="#e" x="224.187" y="41.352"/><use xlink:href="#d" x="228.422" y="41.352"/></g><g style="fill:#000;fill-opacity:1"><use xlink:href="#f" x="292.935" y="41.352"/><use xlink:href="#b" x="297.17" y="41.352"/><use xlink:href="#b" x="301.404" y="41.352"/></g><use xlink:href="#b" x="6.941" y="34.135" style="fill:#000;fill-opacity:1"/><use xlink:href="#c" x=".354" y="27.048" style="fill:#000;fill-opacity:1"/><use xlink:href="#g" x="4.588" y="27.048" style="fill:#000;fill-opacity:1"/><use xlink:href="#d" x="6.941" y="27.048" style="fill:#000;fill-opacity:1"/><use xlink:href="#d" x="6.941" y="19.962" style="fill:#000;fill-opacity:1"/><use xlink:href="#e" x=".354" y="12.875" style="fill:#000;fill-opacity:1"/><use xlink:href="#g" x="4.588" y="12.875" style="fill:#000;fill-opacity:1"/><use xlink:href="#d" x="6.941" y="12.875" style="fill:#000;fill-opacity:1"/><g style="fill:#000;fill-opacity:1"><use xlink:href="#f" x="2.707" y="5.789"/><use xlink:href="#b" x="6.942" y="5.789"/></g></svg>