<svg xmlns="http://www.w3.org/2000/svg" width="93.411" height="9.987" viewBox="0 0 70.058 7.49" version="1.2"><defs><clipPath id="a"><path d="M54 0h15.586v7H54Zm0 0"/></clipPath></defs><path style="fill:none;stroke-width:3.48697;stroke-linecap:butt;stroke-linejoin:miter;stroke:#000;stroke-opacity:1;stroke-miterlimit:10" d="M14.172-.001h11.34" transform="matrix(1 0 0 -1 -13.629 3.495)"/><path style="fill:none;stroke-width:2.49069;stroke-linecap:butt;stroke-linejoin:miter;stroke:#fff;stroke-opacity:1;stroke-miterlimit:10" d="M14.172-.001h11.34" transform="matrix(1 0 0 -1 -13.629 3.495)"/><path style="fill:none;stroke-width:3.9851;stroke-linecap:butt;stroke-linejoin:miter;stroke:#000;stroke-opacity:1;stroke-miterlimit:10" d="M28.348-.001h11.336" transform="matrix(1 0 0 -1 -13.629 3.495)"/><path style="fill:none;stroke-width:1.99255;stroke-linecap:butt;stroke-linejoin:miter;stroke:#fff;stroke-opacity:1;stroke-miterlimit:10" d="M28.348-.001h11.336" transform="matrix(1 0 0 -1 -13.629 3.495)"/><path style="fill:none;stroke-width:4.48325;stroke-linecap:butt;stroke-linejoin:miter;stroke:#000;stroke-opacity:1;stroke-miterlimit:10" d="M42.52-.001h11.34" transform="matrix(1 0 0 -1 -13.629 3.495)"/><path style="fill:none;stroke-width:1.49442;stroke-linecap:butt;stroke-linejoin:miter;stroke:#fff;stroke-opacity:1;stroke-miterlimit:10" d="M42.52-.001h11.34" transform="matrix(1 0 0 -1 -13.629 3.495)"/><path style="fill:none;stroke-width:4.98138;stroke-linecap:butt;stroke-linejoin:miter;stroke:#000;stroke-opacity:1;stroke-miterlimit:10" d="M56.695-.001h11.336" transform="matrix(1 0 0 -1 -13.629 3.495)"/><path style="fill:none;stroke-width:.99628;stroke-linecap:butt;stroke-linejoin:miter;stroke:#fff;stroke-opacity:1;stroke-miterlimit:10" d="M56.695-.001h11.336" transform="matrix(1 0 0 -1 -13.629 3.495)"/><g clip-path="url(#a)"><path style="fill:none;stroke-width:5.47952;stroke-linecap:butt;stroke-linejoin:miter;stroke:#000;stroke-opacity:1;stroke-miterlimit:10" d="M70.867-.001h11.34" transform="matrix(1 0 0 -1 -13.629 3.495)"/></g><path style="fill:none;stroke-width:.49814;stroke-linecap:butt;stroke-linejoin:miter;stroke:#fff;stroke-opacity:1;stroke-miterlimit:10" d="M70.867-.001h11.34" transform="matrix(1 0 0 -1 -13.629 3.495)"/></svg>