<svg xmlns="http://www.w3.org/2000/svg" xmlns:xlink="http://www.w3.org/1999/xlink" width="26.211" height="26.211" viewBox="0 0 19.658 19.658" version="1.2"><defs><clipPath id="a"><path d="M0 0h19.488v19.488H0Zm0 0"/></clipPath><symbol overflow="visible" id="b"><path style="stroke:none" d="M5.828 0v-.469h-.703L3.453-2.453 4.61-3.75c.141-.14.204-.203 1.016-.203v-.469l-.906.031-1.032-.03v.468c.141 0 .266.015.376.078-.032.063-.032.094-.079.125l-.828.938-.984-1.141h.406v-.469L1.36-4.39.266-4.42v.468h.718l1.547 1.828L1.22-.656c-.157.187-.516.187-1 .187V0l.922-.031L2.156 0v-.469c-.172 0-.36-.047-.36-.11 0 0 0-.015.063-.093l.97-1.094L3.921-.469h-.39V0l1.202-.031Zm0 0"/></symbol></defs><g clip-path="url(#a)"><path style="fill:none;stroke-width:.79701;stroke-linecap:butt;stroke-linejoin:miter;stroke:red;stroke-opacity:1;stroke-miterlimit:10" d="M8.414 0A8.412 8.412 0 0 1 0 8.414 8.412 8.412 0 0 1-8.414 0 8.412 8.412 0 0 1 0-8.414 8.412 8.412 0 0 1 8.414 0Zm0 0" transform="matrix(1 0 0 -1 9.66 9.66)"/></g><use xlink:href="#b" x="6.637" y="11.872" style="fill:#000;fill-opacity:1"/></svg>