<svg xmlns="http://www.w3.org/2000/svg" width="123.459" height="86.475" viewBox="0 0 92.594 64.856" version="1.2"><defs><clipPath id="a"><path d="M0 0h92.39v64.785H0Zm0 0"/></clipPath></defs><path style="fill:none;stroke-width:.3985;stroke-linecap:butt;stroke-linejoin:miter;stroke:#000;stroke-opacity:1;stroke-miterlimit:10" d="M.001 0v56.692h85.04V0Zm0 0" transform="matrix(1 0 0 -1 3.577 60.887)"/><g clip-path="url(#a)"><path style="fill:none;stroke-width:.3985;stroke-linecap:butt;stroke-linejoin:miter;stroke:red;stroke-opacity:1;stroke-miterlimit:10" d="M.001 0-2.49 2.492l4.98 4.98-4.98 4.981 4.98 4.98-4.98 4.981 4.98 4.985-4.98 4.98 4.98 4.98-4.98 4.981 4.98 4.984-4.98 4.981 4.98 4.98 3.086 1.899 4.98-4.98 4.981 4.98 4.98-4.98 4.985 4.98 4.98-4.98 4.981 4.98 4.98-4.98 4.981 4.98 4.984-4.98 4.98 4.98 4.981-4.98 4.98 4.98 4.985-4.98 4.98 4.98 4.981-4.98 4.98 4.98-2.726-7.707 4.984-4.98-4.984-4.981 4.984-4.984-4.984-4.98 4.984-4.981-4.984-4.98 4.984-4.985-4.984-4.98 4.984-4.981-4.984-4.98-.824-4.157-4.985 4.984-4.98-4.984-4.98 4.984-4.981-4.984-4.984 4.984-4.98-4.984-4.981 4.984-4.98-4.984-4.985 4.984-4.98-4.984-4.981 4.984-4.98-4.984-4.981 4.984-4.984-4.984-4.98 4.984L4.508 0H0" transform="matrix(1 0 0 -1 3.577 60.887)"/></g></svg>