<svg xmlns="http://www.w3.org/2000/svg" xmlns:xlink="http://www.w3.org/1999/xlink" width="54.867" height="94.443" viewBox="0 0 41.15 70.832" version="1.2"><defs><symbol overflow="visible" id="a"><path style="stroke:none" d="M4.172 0v-.313h-.313c-.906 0-.921-.109-.921-.468v-5.594c0-.25 0-.266-.235-.266C2.078-6 1.203-6 .891-6v.313c.203 0 .78 0 1.296-.266v5.172c0 .36-.03.469-.921.469H.953V0c.344-.031 1.203-.031 1.61-.031.39 0 1.265 0 1.609.031Zm0 0"/></symbol><symbol overflow="visible" id="b"><path style="stroke:none" d="M4.469-1.734h-.235C4.172-1.438 4.11-1 4-.844c-.063.078-.719.078-.938.078H1.266l1.062-1.03c1.547-1.376 2.14-1.907 2.14-2.907 0-1.14-.89-1.938-2.109-1.938C1.234-6.64.5-5.719.5-4.828c0 .547.5.547.531.547.172 0 .516-.11.516-.532a.513.513 0 0 0-.531-.515c-.079 0-.094 0-.125.016.218-.657.765-1.016 1.343-1.016.907 0 1.329.812 1.329 1.625 0 .797-.485 1.578-1.047 2.203L.609-.375C.5-.265.5-.235.5 0h3.703Zm0 0"/></symbol><symbol overflow="visible" id="c"><path style="stroke:none" d="M4.563-1.703c0-.813-.641-1.594-1.672-1.813.812-.265 1.39-.953 1.39-1.75 0-.812-.875-1.375-1.828-1.375-1 0-1.765.594-1.765 1.36 0 .328.218.515.515.515.297 0 .5-.218.5-.515 0-.485-.469-.485-.61-.485.298-.5.954-.625 1.313-.625.422 0 .969.22.969 1.11 0 .125-.031.703-.281 1.14-.297.485-.64.516-.89.516a3.29 3.29 0 0 1-.392.031c-.078.016-.14.031-.14.125 0 .11.062.11.234.11h.438c.812 0 1.187.671 1.187 1.656 0 1.36-.687 1.64-1.125 1.64-.437 0-1.187-.171-1.531-.75.344.047.656-.171.656-.546a.537.537 0 0 0-.547-.563c-.25 0-.562.14-.562.578C.422-.437 1.344.22 2.437.22c1.22 0 2.126-.906 2.126-1.922Zm0 0"/></symbol><clipPath id="d"><path d="M16 0h24.727v24H16Zm0 0"/></clipPath></defs><use xlink:href="#a" x=".17" y="12.955" style="fill:#000;fill-opacity:1"/><use xlink:href="#b" x=".17" y="41.301" style="fill:#000;fill-opacity:1"/><use xlink:href="#c" x=".17" y="69.538" style="fill:#000;fill-opacity:1"/><use xlink:href="#a" x="28.516" y="12.955" style="fill:#000;fill-opacity:1"/><use xlink:href="#b" x="28.516" y="41.301" style="fill:#000;fill-opacity:1"/><use xlink:href="#c" x="28.516" y="69.538" style="fill:#000;fill-opacity:1"/><path style="fill:none;stroke-width:.3985;stroke-linecap:butt;stroke-linejoin:miter;stroke:#000;stroke-opacity:1;stroke-miterlimit:10" d="M6.012 0h16.324M6.012-28.347h16.324M6.012-56.695h16.324" transform="matrix(1 0 0 -1 2.66 9.637)"/><g clip-path="url(#d)"><path style="fill:none;stroke-width:.3985;stroke-linecap:butt;stroke-linejoin:miter;stroke:red;stroke-opacity:1;stroke-miterlimit:10" d="M36.852 0a8.506 8.506 0 0 1-8.504 8.504A8.503 8.503 0 0 1 19.844 0a8.503 8.503 0 0 1 8.504-8.504A8.506 8.506 0 0 1 36.852 0Zm0 0" transform="matrix(1 0 0 -1 2.66 9.637)"/></g></svg>