<svg xmlns="http://www.w3.org/2000/svg" xmlns:xlink="http://www.w3.org/1999/xlink" width="113.043" height="83.763" viewBox="0 0 84.782 62.822" version="1.2"><defs><symbol overflow="visible" id="a"><path style="stroke:none" d="M6.125 0v-.469c-.61 0-.688 0-.688-.39v-3.625l-1.812.078v.468c.61 0 .688 0 .688.391v1.906c0 .813-.516 1.344-1.235 1.344-.781 0-.812-.25-.812-.797v-3.39l-1.813.078v.468c.61 0 .688 0 .688.391v2.328c0 1.063.796 1.282 1.796 1.282.25 0 .97 0 1.422-.782v.781Zm0 0"/></symbol><symbol overflow="visible" id="b"><path style="stroke:none" d="M5.984-2.219c0-1.328-.906-2.265-2.343-2.265-.75 0-1.282.312-1.5.484v-.484l-1.766.078v.468c.61 0 .688 0 .688.376v5.03H.375v.47l1.25-.032 1.25.032v-.47h-.688V-.39A2.01 2.01 0 0 0 3.47.063c1.5 0 2.515-.907 2.515-2.282Zm-1.28 0C4.703-.813 4-.297 3.358-.297c-.14 0-.609 0-1.062-.547-.11-.125-.11-.14-.11-.328v-2.11c0-.187.016-.202.157-.343.39-.406.922-.469 1.14-.469.657 0 1.22.61 1.22 1.875Zm0 0"/></symbol><symbol overflow="visible" id="c"><path style="stroke:none" d="M4.922-1.172c0-.172-.188-.172-.234-.172-.172 0-.188.047-.25.203-.204.485-.782.797-1.422.797-1.407 0-1.422-1.328-1.422-1.828h3.015c.22 0 .313 0 .313-.265 0-.313-.063-1.047-.563-1.547-.359-.36-.89-.532-1.578-.532C1.187-4.516.312-3.484.312-2.25c0 1.344 1 2.313 2.61 2.313 1.578 0 2-1.063 2-1.235ZM3.984-2.5h-2.39c.015-.39.031-.813.234-1.14.266-.391.672-.516.953-.516 1.172 0 1.188 1.312 1.203 1.656Zm0 0"/></symbol><symbol overflow="visible" id="d"><path style="stroke:none" d="M4.406-3.672c0-.531-.531-.812-1.062-.812-.688 0-1.094.5-1.313 1.125v-1.125l-1.656.078v.468c.61 0 .688 0 .688.391v3.078H.375V0l1.25-.031C2-.031 2.641-.031 3 0v-.469h-.86v-1.75c0-.687.235-1.906 1.235-1.906 0 0-.188.172-.188.453 0 .406.329.61.61.61.297 0 .61-.204.61-.61Zm0 0"/></symbol><symbol overflow="visible" id="e"><path style="stroke:none" d="M2.922 0v-.469h-.688v-6.453L.47-6.844v.469c.625 0 .687 0 .687.39v5.516H.47V0l1.219-.031Zm0 0"/></symbol><symbol overflow="visible" id="f"><path style="stroke:none" d="M4.36-6.11c0-.421-.36-.874-1.141-.874-.969 0-2.047.421-2.047 1.546v1.016h-.75v.469h.75V-.47H.484V0l1.25-.031c.375 0 1.016 0 1.375.031v-.469H2.25v-3.484h1.14v-.469H2.188v-1.016c0-1.093.75-1.187 1-1.187.047 0 .11 0 .172.031a.585.585 0 0 0-.234.485c0 .421.36.609.61.609.296 0 .624-.203.624-.61Zm0 0"/></symbol><symbol overflow="visible" id="g"><path style="stroke:none" d="M3.813-1.234v-.532h-.47v.516c0 .672-.327.906-.609.906-.578 0-.578-.64-.578-.86v-2.75h1.469v-.468H2.156v-1.906h-.469c0 1-.484 1.984-1.484 2.016v.359h.828v2.734c0 1.063.86 1.282 1.578 1.282.75 0 1.204-.579 1.204-1.297Zm0 0"/></symbol><clipPath id="h"><path d="M47 26h37.672v36.734H47Zm0 0"/></clipPath></defs><path style="fill-rule:nonzero;fill:#fcc;fill-opacity:1;stroke-width:.3985;stroke-linecap:butt;stroke-linejoin:miter;stroke:#000;stroke-opacity:1;stroke-miterlimit:10" d="M0 28.348h19.925v19.925H0Zm0 0" transform="matrix(1 0 0 -1 53.571 61.582)"/><g style="fill:#000;fill-opacity:1"><use xlink:href="#a" x=".468" y="7.857"/><use xlink:href="#b" x="6.834" y="7.857"/><use xlink:href="#b" x="13.2" y="7.857"/></g><g style="fill:#000;fill-opacity:1"><use xlink:href="#c" x="19.885" y="7.857"/><use xlink:href="#d" x="25.135" y="7.857"/></g><g style="fill:#000;fill-opacity:1"><use xlink:href="#e" x="33.673" y="7.857"/><use xlink:href="#c" x="36.852" y="7.857"/><use xlink:href="#f" x="42.102" y="7.857"/><use xlink:href="#g" x="45.599" y="7.857"/></g><g clip-path="url(#h)"><path style="fill:none;stroke-width:.3985;stroke-linecap:butt;stroke-linejoin:miter;stroke:#000;stroke-opacity:1;stroke-miterlimit:10" d="m0 0 19.925 19.926h9.965c0 5.504-4.461 9.96-9.965 9.96-5.5 0-9.96-4.456-9.96-9.96" transform="matrix(1 0 0 -1 53.571 61.582)"/></g></svg>