<svg xmlns="http://www.w3.org/2000/svg" xmlns:xlink="http://www.w3.org/1999/xlink" width="214.347" height="139.735" viewBox="0 0 160.76 104.801" version="1.2"><defs><symbol overflow="visible" id="b"><path style="stroke:none" d="M1.11-4.484c.109.03.421.125.765.125 1 0 1.594-.704 1.594-.829 0-.093-.047-.109-.094-.109-.016 0-.031 0-.094.031a2.982 2.982 0 0 1-1.11.22c-.468 0-.858-.11-1.108-.22-.079-.03-.094-.03-.11-.03-.094 0-.094.077-.094.234v2.328c0 .14 0 .234.125.234.063 0 .079-.031.125-.094.094-.11.391-.515 1.079-.515.437 0 .656.359.734.515.125.281.14.656.14.953 0 .297 0 .735-.218 1.079-.156.25-.485.484-.906.484A1.271 1.271 0 0 1 .734-.922c.016.016.079.016.079.016.218 0 .406-.14.406-.39a.388.388 0 0 0-.39-.407c-.157 0-.407.078-.407.422 0 .718.625 1.453 1.531 1.453 1 0 1.844-.781 1.844-1.766 0-.922-.672-1.75-1.61-1.75-.39 0-.765.125-1.078.406Zm0 0"/></symbol><symbol overflow="visible" id="c"><path style="stroke:none" d="M2.5-5.078c0-.219-.016-.219-.234-.219-.329.313-.75.5-1.5.5v.266c.218 0 .64 0 1.109-.203v4.078c0 .297-.031.39-.781.39H.812V0c.329-.031 1.016-.031 1.375-.031.36 0 1.047 0 1.376.031v-.266H3.28c-.75 0-.781-.093-.781-.39Zm0 0"/></symbol><symbol overflow="visible" id="d"><path style="stroke:none" d="M3.89-2.547c0-.844-.078-1.36-.343-1.875-.344-.703-1-.875-1.438-.875-1 0-1.375.75-1.484.969C.344-3.75.328-2.953.328-2.547c0 .531.016 1.328.406 1.969.36.594.954.75 1.375.75.391 0 1.063-.125 1.47-.906.296-.579.312-1.297.312-1.813ZM2.11-.062c-.266 0-.813-.126-.985-.954-.094-.453-.094-1.203-.094-1.625 0-.546 0-1.109.094-1.546.172-.813.781-.891.984-.891.266 0 .829.14.985.86.094.437.094 1.046.094 1.577 0 .47 0 1.188-.094 1.641-.172.828-.719.938-.985.938Zm0 0"/></symbol><symbol overflow="visible" id="e"><path style="stroke:none" d="M2.25-1.625c.125-.125.453-.39.594-.5.484-.453.953-.89.953-1.61 0-.953-.797-1.562-1.781-1.562-.97 0-1.594.719-1.594 1.438 0 .39.312.437.422.437.172 0 .422-.11.422-.422 0-.406-.407-.406-.5-.406.234-.594.765-.781 1.156-.781.734 0 1.125.625 1.125 1.297 0 .828-.578 1.437-1.531 2.39l-1 1.047C.422-.219.422-.203.422 0h3.14l.235-1.422h-.25c-.016.156-.078.547-.172.703-.047.063-.656.063-.781.063H1.172Zm0 0"/></symbol><symbol overflow="visible" id="f"><path style="stroke:none" d="M3.14-5.156c0-.157 0-.219-.171-.219-.094 0-.11 0-.188.11L.234-1.564v.25h2.25v.672c0 .297-.015.375-.64.375h-.172V0c.672-.031.687-.031 1.14-.031.454 0 .47 0 1.141.031v-.266h-.172c-.625 0-.64-.078-.64-.375v-.671h.843v-.25h-.843Zm-.593.64v2.954H.516Zm0 0"/></symbol><symbol overflow="visible" id="g"><path style="stroke:none" d="M1.094-2.64c0-.657.062-1.235.343-1.72.25-.406.657-.734 1.157-.734.156 0 .515.032.703.297-.36.031-.39.297-.39.375 0 .25.187.375.374.375.14 0 .375-.078.375-.39 0-.47-.36-.86-1.078-.86C1.468-5.297.344-4.25.344-2.53.344-.36 1.359.172 2.125.172c.39 0 .797-.11 1.156-.453.328-.313.594-.64.594-1.344 0-1.031-.797-1.766-1.672-1.766-.578 0-.922.36-1.11.75ZM2.125-.079a.88.88 0 0 1-.797-.516c-.187-.36-.203-.89-.203-1.203 0-.781.422-1.375 1.047-1.375.39 0 .64.203.781.485.172.296.172.656.172 1.062s0 .75-.156 1.047c-.219.36-.485.5-.844.5Zm0 0"/></symbol><symbol overflow="visible" id="h"><path style="stroke:none" d="M2.64-2.875c.454-.219 1-.61 1-1.234 0-.766-.78-1.188-1.515-1.188-.844 0-1.531.578-1.531 1.328 0 .297.094.563.297.797.14.172.171.188.656.5C.563-2.234.344-1.656.344-1.219c0 .89.89 1.39 1.765 1.39.97 0 1.766-.671 1.766-1.515 0-.5-.266-.828-.406-.968-.125-.126-.14-.141-.828-.563Zm-1.234-.75c-.234-.14-.422-.375-.422-.64 0-.5.547-.829 1.125-.829.61 0 1.125.422 1.125.985 0 .453-.359.843-.828 1.078Zm.39 1.094c.032.015.938.578 1.079.656.125.078.547.328.547.813 0 .609-.656.984-1.297.984-.719 0-1.313-.484-1.313-1.14 0-.595.438-1.063.985-1.313Zm0 0"/></symbol><clipPath id="a"><path d="M6 0h154.64v98H6Zm0 0"/></clipPath></defs><path style="fill:none;stroke-width:.19925;stroke-linecap:butt;stroke-linejoin:miter;stroke:#bfbfbf;stroke-opacity:1;stroke-miterlimit:10" d="M6.724.001v87.59M13.798.001v87.59M20.872.001v87.59M27.946.001v87.59M42.09.001v87.59M49.165.001v87.59M56.24.001v87.59M63.313.001v87.59M77.462.001v87.59M84.536.001v87.59M91.61.001v87.59M98.685.001v87.59M112.833.001v87.59M119.907.001v87.59M126.981.001v87.59M134.056.001v87.59" transform="matrix(1 0 0 -1 14.624 88.775)"/><path style="fill:none;stroke-width:.3985;stroke-linecap:butt;stroke-linejoin:miter;stroke:#bfbfbf;stroke-opacity:1;stroke-miterlimit:10" d="M35.02.001v87.59M70.388.001v87.59M105.759.001v87.59M141.13.001v87.59M.001.001h141.734M.001 19.466h141.734M.001 38.93h141.734M.001 58.396h141.734M.001 77.86h141.734" transform="matrix(1 0 0 -1 14.624 88.775)"/><path style="fill:none;stroke-width:.3985;stroke-linecap:round;stroke-linejoin:miter;stroke:gray;stroke-opacity:1;stroke-miterlimit:10" d="M6.724-6.378v1.395M13.798-6.378v1.395M20.872-6.378v1.395M27.946-6.378v1.395M42.09-6.378v1.395M49.165-6.378v1.395M56.24-6.378v1.395M63.313-6.378v1.395M77.462-6.378v1.395M84.536-6.378v1.395M91.61-6.378v1.395M98.685-6.378v1.395M112.833-6.378v1.395M119.907-6.378v1.395M126.981-6.378v1.395M134.056-6.378v1.395M35.02-6.976v1.993M70.388-6.976v1.993M105.759-6.976v1.993M141.13-6.976v1.993" transform="matrix(1 0 0 -1 14.624 88.775)"/><path style="fill:none;stroke-width:.3985;stroke-linecap:round;stroke-linejoin:miter;stroke:#c00;stroke-opacity:1;stroke-miterlimit:10" d="M-6.976.001h1.997M-6.976 19.466h1.997M-6.976 38.93h1.997M-6.976 58.396h1.997M-6.976 77.86h1.997" transform="matrix(1 0 0 -1 14.624 88.775)"/><path style="fill:none;stroke-width:.3985;stroke-linecap:butt;stroke-linejoin:miter;stroke:gray;stroke-opacity:1;stroke-miterlimit:10" d="M.001-4.983h141.734" transform="matrix(1 0 0 -1 14.624 88.775)"/><path style="fill:none;stroke-width:.3985;stroke-linecap:square;stroke-linejoin:miter;stroke:#bfbfbf;stroke-opacity:1;stroke-miterlimit:10" d="M.001.001h141.734M.001 87.59h141.734" transform="matrix(1 0 0 -1 14.624 88.775)"/><path style="fill:none;stroke-width:.3985;stroke-linecap:butt;stroke-linejoin:miter;stroke:gray;stroke-opacity:1;stroke-miterlimit:10" d="M-4.98.001v87.59" transform="matrix(1 0 0 -1 14.624 88.775)"/><path style="fill:none;stroke-width:.3985;stroke-linecap:square;stroke-linejoin:miter;stroke:#bfbfbf;stroke-opacity:1;stroke-miterlimit:10" d="M.001.001v87.59M141.735.001v87.59" transform="matrix(1 0 0 -1 14.624 88.775)"/><g clip-path="url(#a)"><path style="fill:none;stroke-width:.59776;stroke-linecap:butt;stroke-linejoin:miter;stroke:#000;stroke-opacity:1;stroke-miterlimit:10" d="M.001 87.59s.066-10.276.098-13.987c.035-3.715.09-9.399.129-12.778C.27 57.45.34 52.31.396 49.271c.05-3.04.144-7.641.21-10.34.067-2.703.184-6.762.27-9.125.086-2.364.238-5.883.352-7.907.109-2.027.304-5.003.449-6.69.14-1.688.39-4.126.574-5.477.184-1.348.504-3.247.738-4.258.235-1.012.649-2.367.95-3.04.3-.675.835-1.488 1.218-1.827C5.544.27 6.227 0 6.724 0c.496 0 1.37.27 2.007.606.637.34 1.762 1.152 2.579 1.828.82.672 2.265 2.027 3.312 3.039 1.05 1.011 2.906 2.91 4.254 4.258 1.348 1.351 3.73 3.789 5.46 5.476 1.731 1.688 4.794 4.664 7.017 6.691 2.222 2.024 6.148 5.543 9.003 7.907 2.852 2.363 7.899 6.422 11.563 9.125 3.664 2.699 10.14 7.3 14.844 10.34 4.707 3.039 13.023 8.18 19.062 11.554 6.043 3.38 16.719 9.063 24.477 12.778 7.758 3.71 31.43 13.988 31.43 13.988" transform="matrix(1 0 0 -1 14.624 88.775)"/></g><use xlink:href="#b" x="47.525" y="103.54" style="fill:#000;fill-opacity:1"/><g style="fill:#000;fill-opacity:1"><use xlink:href="#c" x="80.778" y="103.54"/><use xlink:href="#d" x="85.013" y="103.54"/></g><g style="fill:#000;fill-opacity:1"><use xlink:href="#c" x="116.148" y="103.54"/><use xlink:href="#b" x="120.383" y="103.54"/></g><g style="fill:#000;fill-opacity:1"><use xlink:href="#e" x="151.518" y="103.54"/><use xlink:href="#d" x="155.753" y="103.54"/></g><use xlink:href="#d" x=".76" y="91.343" style="fill:#c00;fill-opacity:1"/><use xlink:href="#e" x=".76" y="71.877" style="fill:#c00;fill-opacity:1"/><use xlink:href="#f" x=".76" y="52.413" style="fill:#c00;fill-opacity:1"/><use xlink:href="#g" x=".76" y="32.95" style="fill:#c00;fill-opacity:1"/><use xlink:href="#h" x=".76" y="13.485" style="fill:#c00;fill-opacity:1"/></svg>