<svg xmlns="http://www.w3.org/2000/svg" xmlns:xlink="http://www.w3.org/1999/xlink" width="469.035" height="320.283" viewBox="0 0 351.776 240.212" version="1.2"><defs><symbol overflow="visible" id="b"><path style="stroke:none" d="M8.14-3.36c0-2.187-1.484-3.484-3.468-3.484H.39v.469h1.078v5.906H.39V0h4.296c1.97 0 3.454-1.219 3.454-3.36Zm-1.468-.015c0 1.094-.11 1.625-.438 2.063-.468.687-1.343.843-1.953.843H2.828v-5.906h1.453c.657 0 1.485.188 1.969.89.344.516.422 1.188.422 2.11Zm0 0"/></symbol><symbol overflow="visible" id="c"><path style="stroke:none" d="M5.406-2.172c0-1.344-.922-2.344-2.547-2.344C1.22-4.516.313-3.5.313-2.172c0 1.235.89 2.235 2.546 2.235 1.672 0 2.547-1.016 2.547-2.235Zm-1.281-.11c0 .86 0 1.938-1.266 1.938-1.265 0-1.265-1.078-1.265-1.937 0-.453 0-.953.172-1.297.187-.375.609-.578 1.093-.578.422 0 .844.156 1.063.5.203.344.203.89.203 1.375Zm0 0"/></symbol><symbol overflow="visible" id="d"><path style="stroke:none" d="M6.125 0v-.469c-.61 0-.688 0-.688-.39v-3.625l-1.812.078v.468c.61 0 .688 0 .688.391v1.906c0 .813-.516 1.344-1.235 1.344-.781 0-.812-.25-.812-.797v-3.39l-1.813.078v.468c.61 0 .688 0 .688.391v2.328c0 1.063.796 1.282 1.796 1.282.25 0 .97 0 1.422-.782v.781Zm0 0"/></symbol><symbol overflow="visible" id="e"><path style="stroke:none" d="M5.984-2.219c0-1.328-.937-2.265-2.39-2.265-.719 0-1.219.28-1.453.484v-2.922l-1.766.078v.469c.61 0 .688 0 .688.39V0h.468c.157-.188.328-.375.485-.563.078.079.562.625 1.453.625 1.484 0 2.515-.906 2.515-2.28Zm-1.28 0c0 .469 0 1.016-.25 1.406-.298.407-.75.516-1.079.516-.688 0-1.078-.547-1.188-.687v-2.5c.282-.36.75-.641 1.297-.641 1.22 0 1.22 1.203 1.22 1.906Zm0 0"/></symbol><symbol overflow="visible" id="f"><path style="stroke:none" d="M2.922 0v-.469h-.688v-6.453L.47-6.844v.469c.625 0 .687 0 .687.39v5.516H.47V0l1.219-.031Zm0 0"/></symbol><symbol overflow="visible" id="g"><path style="stroke:none" d="M4.922-1.172c0-.172-.188-.172-.234-.172-.172 0-.188.047-.25.203-.204.485-.782.797-1.422.797-1.407 0-1.422-1.328-1.422-1.828h3.015c.22 0 .313 0 .313-.265 0-.313-.063-1.047-.563-1.547-.359-.36-.89-.532-1.578-.532C1.187-4.516.312-3.484.312-2.25c0 1.344 1 2.313 2.61 2.313 1.578 0 2-1.063 2-1.235ZM3.984-2.5h-2.39c.015-.39.031-.813.234-1.14.266-.391.672-.516.953-.516 1.172 0 1.188 1.312 1.203 1.656Zm0 0"/></symbol><symbol overflow="visible" id="h"><path style="stroke:none" d="M8.25 0v-.469h-.969L4.72-6.703c-.11-.25-.219-.25-.39-.25-.282 0-.329.078-.391.25l-2.47 6c-.062.156-.093.234-.843.234H.406V0l1.172-.031c.39 0 .938 0 1.313.031v-.469S2-.469 2-.594l.047-.125.5-1.203h2.672l.593 1.453H4.86V0c.391-.031 1.329-.031 1.766-.031.39 0 1.266 0 1.625.031ZM5.016-2.39H2.734l1.141-2.766Zm0 0"/></symbol><symbol overflow="visible" id="i"><path style="stroke:none" d="M4.406-3.672c0-.531-.531-.812-1.062-.812-.688 0-1.094.5-1.313 1.125v-1.125l-1.656.078v.468c.61 0 .688 0 .688.391v3.078H.375V0l1.25-.031C2-.031 2.641-.031 3 0v-.469h-.86v-1.75c0-.687.235-1.906 1.235-1.906 0 0-.188.172-.188.453 0 .406.329.61.61.61.297 0 .61-.204.61-.61Zm0 0"/></symbol><symbol overflow="visible" id="j"><path style="stroke:none" d="M8.031-3.953v-.469a12.55 12.55 0 0 1-.781.031l-.953-.03v.468c.094 0 .578 0 .578.11 0 .03-.031.093-.031.124L5.797-1.172l-1.14-2.781h.562v-.469l-1.14.031c-.423 0-.845-.03-1-.03v.468h.593c.203.5.203.531.203.531 0 .031-.031.094-.031.125L3.047-1.39 2-3.953h.563v-.469l-1.235.031L.25-4.42v.468h.594L2.359-.234c.079.172.11.28.36.28s.297-.108.36-.28L4.14-2.813 5.187-.233c.079.172.11.28.36.28s.297-.108.36-.28L7.343-3.75c.047-.125.093-.203.687-.203Zm0 0"/></symbol><symbol overflow="visible" id="k"><path style="stroke:none" d="M3.078.313c0-.126-.047-.157-.187-.25C2.062-.5 1.75-1.391 1.75-2.126c0-.672.25-1.594 1.156-2.203.125-.094.172-.125.172-.25a.254.254 0 0 0-.265-.25c-.204 0-1.641.906-1.641 2.703 0 .813.312 1.438.562 1.781.375.516.907.906 1.079.906.218 0 .265-.171.265-.25Zm0 0"/></symbol><symbol overflow="visible" id="l"><path style="stroke:none" d="M3.219-.906c0-.735-.906-.906-1.14-.938l-.704-.125C1.187-2 1-2.079 1-2.25c0-.156.219-.328.813-.328.515 0 .609.172.625.328.015.14.03.281.28.281.298 0 .298-.156.298-.328v-.469c0-.14-.016-.328-.25-.328-.157 0-.22.063-.25.125-.282-.125-.563-.125-.688-.125-1.187 0-1.344.594-1.344.844 0 .656.735.797 1.391.89.297.063.828.141.828.454 0 .234-.25.422-.828.422-.297 0-.656-.063-.813-.563-.03-.156-.078-.234-.28-.234-.298 0-.298.172-.298.328v.656c0 .14 0 .344.25.344.079 0 .188 0 .282-.234.328.218.671.234.859.234 1.125 0 1.344-.61 1.344-.953Zm0 0"/></symbol><symbol overflow="visible" id="m"><path style="stroke:none" d="M2.313-.469a.477.477 0 0 0-.485-.484.47.47 0 0 0-.469.469c0 .28.22.484.47.484a.473.473 0 0 0 .484-.469Zm0 0"/></symbol><symbol overflow="visible" id="n"><path style="stroke:none" d="M3.14-.906c0-.156 0-.313-.296-.313-.266 0-.266.157-.266.297-.015.375-.36.438-.515.438-.454 0-.454-.313-.454-.47v-1.562h1.047c.125 0 .328 0 .328-.265 0-.25-.187-.25-.328-.25H1.61v-.516c0-.14-.015-.328-.296-.328-.282 0-.282.172-.282.328v.516H.484c-.125 0-.328 0-.328.25 0 .265.203.265.328.265h.547v1.61c0 .687.485.953 1.016.953S3.14-.266 3.14-.906Zm0 0"/></symbol><symbol overflow="visible" id="o"><path style="stroke:none" d="M3.25-.797c0-.234-.234-.234-.281-.234-.156 0-.219.015-.281.172-.141.328-.485.375-.657.375-.469 0-.937-.297-1.062-.813h1.953c.172 0 .328 0 .328-.312 0-.797-.453-1.485-1.375-1.485-.828 0-1.516.703-1.516 1.563S1.08.047 1.984.047c.938 0 1.266-.656 1.266-.844Zm-.594-1.015H.97c.125-.438.484-.766.906-.766.328 0 .703.156.781.765Zm0 0"/></symbol><symbol overflow="visible" id="p"><path style="stroke:none" d="M3.469-.266c0-.25-.203-.25-.328-.25h-.25l-.829-1.046.735-.954h.234c.125 0 .344 0 .344-.265 0-.25-.219-.25-.344-.25H2.25c-.125 0-.328 0-.328.25 0 .203.11.265.281.265l-.39.547-.422-.547c.156 0 .28-.062.28-.265 0-.25-.202-.25-.327-.25H.547c-.125 0-.328 0-.328.25 0 .265.218.265.328.265h.25l.75.954L.75-.516H.516c-.125 0-.344 0-.344.25C.172 0 .39 0 .516 0h.78c.126 0 .329 0 .329-.266 0-.203-.11-.25-.297-.25l.484-.703.5.703c-.187 0-.296.047-.296.25 0 .266.203.266.328.266h.797c.109 0 .328 0 .328-.266Zm0 0"/></symbol><symbol overflow="visible" id="q"><path style="stroke:none" d="M2.484-2.125c0-.828-.312-1.453-.562-1.797-.375-.515-.906-.906-1.078-.906-.203 0-.266.187-.266.25 0 .125.094.187.14.219 1.095.718 1.188 1.796 1.188 2.234 0 .656-.25 1.578-1.14 2.188C.64.14.578.186.578.313c0 .078.063.25.266.25s1.64-.907 1.64-2.688Zm0 0"/></symbol><symbol overflow="visible" id="r"><path style="stroke:none" d="M3.266-.797c0-.234-.235-.234-.297-.234-.125 0-.203 0-.266.172-.047.078-.187.375-.625.375a1.027 1.027 0 0 1-1.015-1.032c0-.312.187-1.062 1.062-1.062l.344.015c.015.282.172.376.36.376.187 0 .358-.126.358-.36 0-.531-.734-.547-1.062-.547-1.219 0-1.64.953-1.64 1.578 0 .844.671 1.563 1.546 1.563 1 0 1.235-.719 1.235-.844Zm0 0"/></symbol><symbol overflow="visible" id="s"><path style="stroke:none" d="M3.578-.266c0-.25-.203-.25-.328-.25H3v-1.53c0-.72-.36-1.032-.938-1.032-.39 0-.671.172-.843.297 0-.172-.047-.25-.313-.25h-.5c-.14 0-.328 0-.328.25 0 .265.203.265.313.265h.25v2H.406c-.14 0-.328 0-.328.25C.078 0 .281 0 .391 0h1.093c.11 0 .329 0 .329-.266 0-.25-.204-.25-.344-.25h-.25v-1.156c0-.64.484-.875.797-.875.328 0 .406.172.406.547v1.484h-.203c-.14 0-.344 0-.344.25 0 .266.219.266.344.266H3.25c.11 0 .328 0 .328-.266Zm0 0"/></symbol><symbol overflow="visible" id="t"><path style="stroke:none" d="M3.406-2.594c0-.156-.078-.484-.703-.484-.328 0-.734.11-1.094.469v-.094c0-.25-.046-.328-.328-.328h-.75c-.125 0-.328 0-.328.25 0 .265.203.265.328.265h.5v2h-.5c-.125 0-.328 0-.328.25C.203 0 .406 0 .531 0h1.781c.126 0 .329 0 .329-.266 0-.25-.204-.25-.329-.25H1.61v-.796c0-.61.36-1.22 1.11-1.235 0 .156.172.281.344.281.187 0 .343-.125.343-.328Zm0 0"/></symbol><symbol overflow="visible" id="u"><path style="stroke:none" d="M3.297-.328v-.188c0-.156 0-.328-.266-.328-.265 0-.297.125-.297.328H1.313c.406-.343.968-.796 1.234-1.03.437-.391.75-.845.75-1.407 0-.844-.703-1.375-1.563-1.375-.828 0-1.39.578-1.39 1.187 0 .297.234.375.36.375.171 0 .359-.14.359-.359a.345.345 0 0 0-.094-.234c.11-.266.39-.454.734-.454.531 0 1.031.297 1.031.86 0 .453-.328.844-.765 1.203L.469-.484C.39-.422.344-.391.344-.266.344 0 .547 0 .672 0h2.312c.266 0 .313-.063.313-.328Zm0 0"/></symbol><symbol overflow="visible" id="v"><path style="stroke:none" d="M3.313-2.125c0-1.297-.72-2.203-1.485-2.203-.781 0-1.5.922-1.5 2.203 0 1.297.734 2.203 1.5 2.203.781 0 1.484-.922 1.484-2.203Zm-.563-.078c0 .969-.422 1.75-.922 1.75-.516 0-.922-.781-.922-1.75 0-.953.438-1.61.922-1.61.469 0 .922.657.922 1.61Zm0 0"/></symbol><symbol overflow="visible" id="w"><path style="stroke:none" d="M3.64-.266c0-.218-.14-.25-.39-.25v-1.593c0-.157-.016-.97-.656-.97a.842.842 0 0 0-.656.313.61.61 0 0 0-.532-.312.875.875 0 0 0-.547.203c-.046-.156-.187-.156-.312-.156H.328c-.125 0-.328 0-.328.25 0 .234.125.265.39.265v2c-.265 0-.39.032-.39.25C0 0 .219 0 .328 0h.594c.125 0 .312 0 .312-.266 0-.218-.109-.25-.359-.25v-1.171c0-.563.234-.86.5-.86.14 0 .203.11.203.5v1.531c-.156 0-.281.032-.281.25 0 .266.187.266.312.266h.516c.125 0 .313 0 .313-.266 0-.218-.126-.25-.376-.25v-1.171c0-.563.25-.86.5-.86.141 0 .204.11.204.5v1.531c-.141 0-.282.032-.282.25 0 .266.204.266.313.266h.5c.125 0 .344 0 .344-.266Zm0 0"/></symbol><symbol overflow="visible" id="x"><path style="stroke:none" d="M3.188-.266c0-.25-.204-.25-.329-.25h-.656v-2.187c0-.25-.047-.328-.328-.328H.906c-.125 0-.328 0-.328.25 0 .265.203.265.328.265h.719v2H.859c-.14 0-.343 0-.343.25C.516 0 .734 0 .859 0h2c.125 0 .329 0 .329-.266Zm-.954-3.562a.39.39 0 0 0-.406-.39.387.387 0 0 0-.39.39c0 .219.171.39.39.39a.39.39 0 0 0 .406-.39Zm0 0"/></symbol><symbol overflow="visible" id="y"><path style="stroke:none" d="M3.578-.266c0-.25-.203-.25-.328-.25H3v-3.406c0-.25-.047-.344-.328-.344h-.485c-.14 0-.343.016-.343.266s.218.266.328.266h.25v.906a1.261 1.261 0 0 0-.735-.25c-.765 0-1.453.672-1.453 1.562C.234-.64.875.047 1.625.047c.344 0 .61-.14.797-.313.015.188.062.266.328.266h.5c.125 0 .328 0 .328-.266ZM2.422-1.375c0 .36-.297.89-.781.89-.454 0-.829-.453-.829-1.03 0-.61.438-1.032.891-1.032.406 0 .719.344.719.688Zm0 0"/></symbol><symbol overflow="visible" id="z"><path style="stroke:none" d="M3.547-2.781c0-.25-.188-.25-.328-.25h-.781c-.157 0-.344 0-.344.25 0 .265.172.265.344.265h.265l-.297 1.72-.14-.532c-.125-.469-.172-.547-.422-.547-.094 0-.235 0-.328.188l-.266.906-.297-1.735h.266c.156 0 .343 0 .343-.265 0-.25-.187-.25-.343-.25H.437c-.14 0-.343 0-.343.25 0 .234.14.265.36.265L.858-.28c.032.187.047.312.36.312.312 0 .343-.062.453-.515l.172-.641.265 1c.094.14.235.156.344.156.281 0 .313-.125.344-.312l.406-2.235c.219 0 .344-.03.344-.265Zm0 0"/></symbol><symbol overflow="visible" id="A"><path style="stroke:none" d="M3.625-.266c0-.25-.203-.25-.328-.25-.203 0-.297-.03-.344-.046V-2c0-.5-.375-1.094-1.406-1.094-.313 0-1.031.016-1.031.547 0 .235.171.36.359.36.11 0 .344-.063.344-.36 0 0 .234-.031.343-.031.454 0 .782.187.813.594-1.219.03-2.047.39-2.047 1.062 0 .485.453.969 1.188.969.234 0 .656-.047.968-.25.172.187.485.203.75.203.235 0 .391-.016.391-.266ZM2.359-.969c0 .14 0 .266-.234.375-.234.11-.516.11-.578.11-.39 0-.64-.204-.64-.438 0-.312.546-.515 1.452-.562Zm0 0"/></symbol><symbol overflow="visible" id="B"><path style="stroke:none" d="M3.422-1.516c0-.875-.64-1.562-1.39-1.562-.298 0-.579.11-.813.265v-1.109c0-.25-.047-.344-.313-.344h-.5c-.14 0-.344.016-.344.266s.22.266.329.266h.25v3.406C.64-.172.656 0 .937 0c.22 0 .282-.094.282-.234.265.218.531.28.734.28.766 0 1.469-.671 1.469-1.562Zm-.578 0c0 .61-.453 1.032-.906 1.032-.485 0-.704-.563-.704-.875v-.485c0-.375.375-.703.766-.703.469 0 .844.469.844 1.031Zm0 0"/></symbol><symbol overflow="visible" id="C"><path style="stroke:none" d="M3.063-3.844c0-.437-.579-.453-.704-.453-.578 0-1.125.328-1.125.953v.313H.61c-.125 0-.328 0-.328.25 0 .265.203.265.328.265h.625v2H.61c-.125 0-.343 0-.343.25C.266 0 .484 0 .609 0h1.844c.125 0 .328 0 .328-.266 0-.25-.203-.25-.328-.25h-.64v-2h.78c.11 0 .313 0 .313-.265 0-.25-.187-.25-.312-.25h-.781v-.266c0-.453.359-.484.562-.484.031.11.125.297.344.297a.35.35 0 0 0 .344-.36Zm0 0"/></symbol><symbol overflow="visible" id="D"><path style="stroke:none" d="M3.281-1.516c0-.89-.672-1.578-1.453-1.578-.797 0-1.453.688-1.453 1.578 0 .891.672 1.563 1.453 1.563.766 0 1.453-.688 1.453-1.563Zm-.578-.046c0 .593-.406 1.078-.875 1.078S.953-.97.953-1.563c0-.593.422-1.015.875-1.015s.875.422.875 1.015Zm0 0"/></symbol><symbol overflow="visible" id="E"><path style="stroke:none" d="M3.578-.266c0-.25-.203-.25-.328-.25H3v-1.53c0-.72-.36-1.032-.938-1.032-.39 0-.671.172-.843.297v-1.14c0-.25-.047-.345-.313-.345h-.5c-.14 0-.328.016-.328.266s.203.266.313.266h.25v3.218H.406c-.14 0-.328 0-.328.25C.078 0 .281 0 .391 0h1.093c.11 0 .329 0 .329-.266 0-.25-.204-.25-.344-.25h-.25v-1.156c0-.64.484-.875.797-.875.328 0 .406.172.406.547v1.484h-.203c-.14 0-.344 0-.344.25 0 .266.219.266.344.266H3.25c.11 0 .328 0 .328-.266Zm0 0"/></symbol><symbol overflow="visible" id="F"><path style="stroke:none" d="M3.094-.266c0-.25-.188-.25-.313-.25H2.22V-4c0-.125-.016-.328-.266-.328-.156 0-.219.094-.25.187-.234.547-.578.625-.687.641-.141 0-.313.031-.313.266 0 .203.156.25.281.25.125 0 .375-.032.657-.235v2.703h-.563c-.14 0-.328 0-.328.25C.75 0 .953 0 1.078 0h1.703c.125 0 .313 0 .313-.266Zm0 0"/></symbol><symbol overflow="visible" id="G"><path style="stroke:none" d="M3.422-1.516c0-.875-.64-1.562-1.39-1.562-.298 0-.579.11-.813.281 0-.172-.063-.234-.313-.234h-.5c-.14 0-.344 0-.344.25 0 .265.22.265.329.265h.25v3.5H.406c-.14 0-.344 0-.344.266 0 .25.22.25.329.25h1.093c.11 0 .329 0 .329-.25 0-.266-.204-.266-.344-.266h-.25V-.234c.265.234.531.28.734.28.766 0 1.469-.671 1.469-1.562Zm-.578 0c0 .61-.453 1.032-.906 1.032-.485 0-.704-.563-.704-.875v-.485c0-.375.375-.703.766-.703.469 0 .844.469.844 1.031Zm0 0"/></symbol><symbol overflow="visible" id="H"><path style="stroke:none" d="M3.578-.266c0-.25-.219-.25-.328-.25H3v-2.187c0-.25-.047-.328-.328-.328h-.485c-.14 0-.343 0-.343.25 0 .265.218.265.328.265h.25v1.391c0 .563-.516.64-.719.64-.469 0-.484-.187-.484-.39v-1.828c0-.25-.047-.328-.313-.328h-.5c-.14 0-.328 0-.328.25 0 .265.203.265.313.265h.25v1.688c0 .687.5.875 1.03.875.266 0 .516-.063.766-.219C2.485 0 2.626 0 2.75 0h.5c.125 0 .328 0 .328-.266Zm0 0"/></symbol><clipPath id="a"><path d="M0 0h351.664v239.816H0Zm0 0"/></clipPath></defs><path style="stroke:none;fill-rule:nonzero;fill:#fffbb3;fill-opacity:1" d="m325.34 119.715-92.16-92.16v42.523H118.383V27.555l-92.16 92.16 92.16 92.156v-42.52H233.18v42.52Zm0 0"/><g clip-path="url(#a)"><path style="fill:none;stroke-width:14.17339;stroke-linecap:butt;stroke-linejoin:miter;stroke:#b2b2b2;stroke-opacity:1;stroke-miterlimit:10" d="m149.558-.002-92.16 92.16V49.635H-57.4v42.523l-92.16-92.16 92.16-92.156v42.52H57.398v-42.52Zm0 0" transform="matrix(1 0 0 -1 175.782 119.713)"/></g><g style="fill:#b2b2b2;fill-opacity:1"><use xlink:href="#b" x="139.643" y="148.03"/><use xlink:href="#c" x="148.43" y="148.03"/><use xlink:href="#d" x="154.159" y="148.03"/><use xlink:href="#e" x="160.525" y="148.03"/><use xlink:href="#f" x="166.891" y="148.03"/><use xlink:href="#g" x="170.069" y="148.03"/></g><g style="fill:#b2b2b2;fill-opacity:1"><use xlink:href="#h" x="179.135" y="148.03"/><use xlink:href="#i" x="187.792" y="148.03"/><use xlink:href="#i" x="192.515" y="148.03"/><use xlink:href="#c" x="197.237" y="148.03"/></g><use xlink:href="#j" x="202.647" y="148.03" style="fill:#b2b2b2;fill-opacity:1"/><path style="fill:none;stroke-width:.996;stroke-linecap:butt;stroke-linejoin:miter;stroke:#b2b2b2;stroke-opacity:1;stroke-miterlimit:10" d="M-.001 0v56.754" transform="matrix(1 0 0 -1 211.423 148.09)"/><path style="fill:none;stroke-width:.3985;stroke-linecap:butt;stroke-linejoin:miter;stroke:#000;stroke-opacity:1;stroke-miterlimit:10" d="m-37.548-29.724 2.817 2.816m-2.817 0 2.817-2.816" transform="matrix(1 0 0 -1 175.782 119.713)"/><g style="fill:#000;fill-opacity:1"><use xlink:href="#k" x="124.998" y="143.952"/><use xlink:href="#l" x="128.659" y="143.952"/><use xlink:href="#m" x="132.321" y="143.952"/><use xlink:href="#n" x="135.982" y="143.952"/><use xlink:href="#o" x="139.643" y="143.952"/><use xlink:href="#p" x="143.304" y="143.952"/><use xlink:href="#n" x="146.966" y="143.952"/><use xlink:href="#q" x="150.627" y="143.952"/></g><path style="fill:none;stroke-width:.3985;stroke-linecap:butt;stroke-linejoin:miter;stroke:#000;stroke-opacity:1;stroke-miterlimit:10" d="m-1.407-1.408 2.816 2.816m-2.816 0 2.816-2.816" transform="matrix(1 0 0 -1 175.782 119.713)"/><g style="fill:#000;fill-opacity:1"><use xlink:href="#k" x="157.476" y="115.636"/><use xlink:href="#l" x="161.137" y="115.636"/><use xlink:href="#m" x="164.799" y="115.636"/><use xlink:href="#r" x="168.46" y="115.636"/><use xlink:href="#o" x="172.121" y="115.636"/><use xlink:href="#s" x="175.782" y="115.636"/><use xlink:href="#n" x="179.444" y="115.636"/><use xlink:href="#o" x="183.105" y="115.636"/><use xlink:href="#t" x="186.766" y="115.636"/><use xlink:href="#q" x="190.427" y="115.636"/></g><path style="fill:none;stroke-width:.3985;stroke-linecap:butt;stroke-linejoin:miter;stroke:#000;stroke-opacity:1;stroke-miterlimit:10" d="m115.597 41.178 2.82 2.82m-2.82 0 2.82-2.82" transform="matrix(1 0 0 -1 175.782 119.713)"/><g style="fill:#000;fill-opacity:1"><use xlink:href="#k" x="281.804" y="73.048"/><use xlink:href="#l" x="285.465" y="73.048"/><use xlink:href="#m" x="289.127" y="73.048"/><use xlink:href="#u" x="292.788" y="73.048"/><use xlink:href="#v" x="296.449" y="73.048"/><use xlink:href="#q" x="300.11" y="73.048"/></g><path style="fill:none;stroke-width:.3985;stroke-linecap:butt;stroke-linejoin:miter;stroke:#000;stroke-opacity:1;stroke-miterlimit:10" d="m-134.895-27.514 2.816 2.817m-2.816 0 2.816-2.817" transform="matrix(1 0 0 -1 175.782 119.713)"/><g style="fill:#000;fill-opacity:1"><use xlink:href="#k" x="45.817" y="141.74"/><use xlink:href="#l" x="49.478" y="141.74"/><use xlink:href="#m" x="53.14" y="141.74"/><use xlink:href="#w" x="56.801" y="141.74"/><use xlink:href="#x" x="60.462" y="141.74"/><use xlink:href="#y" x="64.123" y="141.74"/></g><g style="fill:#000;fill-opacity:1"><use xlink:href="#z" x="71.446" y="141.74"/><use xlink:href="#o" x="75.107" y="141.74"/><use xlink:href="#l" x="78.768" y="141.74"/><use xlink:href="#n" x="82.43" y="141.74"/><use xlink:href="#q" x="86.091" y="141.74"/></g><path style="fill:none;stroke-width:.3985;stroke-linecap:butt;stroke-linejoin:miter;stroke:#000;stroke-opacity:1;stroke-miterlimit:10" d="m-1.407-27.514 2.816 2.817m-2.816 0 2.816-2.817" transform="matrix(1 0 0 -1 175.782 119.713)"/><g style="fill:#000;fill-opacity:1"><use xlink:href="#k" x="162.968" y="141.741"/><use xlink:href="#l" x="166.629" y="141.741"/><use xlink:href="#m" x="170.291" y="141.741"/><use xlink:href="#w" x="173.952" y="141.741"/><use xlink:href="#x" x="177.613" y="141.741"/><use xlink:href="#y" x="181.274" y="141.741"/><use xlink:href="#q" x="184.936" y="141.741"/></g><path style="fill:none;stroke-width:.3985;stroke-linecap:butt;stroke-linejoin:miter;stroke:#000;stroke-opacity:1;stroke-miterlimit:10" d="m132.085-27.514 2.817 2.817m-2.817 0 2.817-2.817" transform="matrix(1 0 0 -1 175.782 119.713)"/><g style="fill:#000;fill-opacity:1"><use xlink:href="#k" x="261.819" y="141.74"/><use xlink:href="#l" x="265.48" y="141.74"/><use xlink:href="#m" x="269.142" y="141.74"/><use xlink:href="#w" x="272.803" y="141.74"/><use xlink:href="#x" x="276.464" y="141.74"/><use xlink:href="#y" x="280.125" y="141.74"/></g><g style="fill:#000;fill-opacity:1"><use xlink:href="#o" x="287.448" y="141.74"/><use xlink:href="#A" x="291.109" y="141.74"/><use xlink:href="#l" x="294.77" y="141.74"/><use xlink:href="#n" x="298.432" y="141.74"/><use xlink:href="#q" x="302.093" y="141.74"/></g><path style="fill:none;stroke-width:.3985;stroke-linecap:butt;stroke-linejoin:miter;stroke:#000;stroke-opacity:1;stroke-miterlimit:10" d="m-132.684-29.724 2.82 2.816m-2.82 0 2.82-2.816" transform="matrix(1 0 0 -1 175.782 119.713)"/><g style="fill:#000;fill-opacity:1"><use xlink:href="#k" x="20.711" y="156.376"/><use xlink:href="#l" x="24.372" y="156.376"/><use xlink:href="#m" x="28.034" y="156.376"/><use xlink:href="#B" x="31.695" y="156.376"/><use xlink:href="#A" x="35.356" y="156.376"/><use xlink:href="#l" x="39.017" y="156.376"/><use xlink:href="#o" x="42.679" y="156.376"/></g><g style="fill:#000;fill-opacity:1"><use xlink:href="#z" x="50.001" y="156.376"/><use xlink:href="#o" x="53.662" y="156.376"/><use xlink:href="#l" x="57.324" y="156.376"/><use xlink:href="#n" x="60.985" y="156.376"/><use xlink:href="#q" x="64.646" y="156.376"/></g><path style="fill:none;stroke-width:.3985;stroke-linecap:butt;stroke-linejoin:miter;stroke:#000;stroke-opacity:1;stroke-miterlimit:10" d="m-1.407-29.724 2.816 2.816m-2.816 0 2.816-2.816" transform="matrix(1 0 0 -1 175.782 119.713)"/><g style="fill:#000;fill-opacity:1"><use xlink:href="#k" x="161.137" y="156.376"/><use xlink:href="#l" x="164.798" y="156.376"/><use xlink:href="#m" x="168.46" y="156.376"/><use xlink:href="#B" x="172.121" y="156.376"/><use xlink:href="#A" x="175.782" y="156.376"/><use xlink:href="#l" x="179.443" y="156.376"/><use xlink:href="#o" x="183.105" y="156.376"/><use xlink:href="#q" x="186.766" y="156.376"/></g><path style="fill:none;stroke-width:.3985;stroke-linecap:butt;stroke-linejoin:miter;stroke:#000;stroke-opacity:1;stroke-miterlimit:10" d="m129.874-29.724 2.817 2.816m-2.817 0 2.817-2.816" transform="matrix(1 0 0 -1 175.782 119.713)"/><g style="fill:#000;fill-opacity:1"><use xlink:href="#k" x="283.264" y="156.376"/><use xlink:href="#l" x="286.925" y="156.376"/><use xlink:href="#m" x="290.587" y="156.376"/><use xlink:href="#B" x="294.248" y="156.376"/><use xlink:href="#A" x="297.909" y="156.376"/><use xlink:href="#l" x="301.57" y="156.376"/><use xlink:href="#o" x="305.232" y="156.376"/></g><g style="fill:#000;fill-opacity:1"><use xlink:href="#o" x="312.554" y="156.376"/><use xlink:href="#A" x="316.215" y="156.376"/><use xlink:href="#l" x="319.877" y="156.376"/><use xlink:href="#n" x="323.538" y="156.376"/><use xlink:href="#q" x="327.199" y="156.376"/></g><path style="fill:none;stroke-width:.3985;stroke-linecap:butt;stroke-linejoin:miter;stroke:#000;stroke-opacity:1;stroke-miterlimit:10" d="m48.902 55.315 2.82 2.816m-2.82 0 2.82-2.816" transform="matrix(1 0 0 -1 175.782 119.713)"/><g style="fill:#000;fill-opacity:1"><use xlink:href="#k" x="194.972" y="58.913"/><use xlink:href="#l" x="198.633" y="58.913"/><use xlink:href="#m" x="202.295" y="58.913"/><use xlink:href="#B" x="205.956" y="58.913"/><use xlink:href="#o" x="209.617" y="58.913"/><use xlink:href="#C" x="213.278" y="58.913"/><use xlink:href="#D" x="216.94" y="58.913"/><use xlink:href="#t" x="220.601" y="58.913"/><use xlink:href="#o" x="224.262" y="58.913"/></g><g style="fill:#000;fill-opacity:1"><use xlink:href="#E" x="231.585" y="58.913"/><use xlink:href="#o" x="235.246" y="58.913"/><use xlink:href="#A" x="238.907" y="58.913"/><use xlink:href="#y" x="242.569" y="58.913"/></g><g style="fill:#000;fill-opacity:1"><use xlink:href="#F" x="249.891" y="58.913"/><use xlink:href="#q" x="253.552" y="58.913"/></g><path style="fill:none;stroke-width:.3985;stroke-linecap:butt;stroke-linejoin:miter;stroke:#000;stroke-opacity:1;stroke-miterlimit:10" d="m48.902 107.858 2.82 2.816m-2.82 0 2.82-2.816" transform="matrix(1 0 0 -1 175.782 119.713)"/><g style="fill:#000;fill-opacity:1"><use xlink:href="#k" x="196.803" y="5.422"/><use xlink:href="#l" x="200.464" y="5.422"/><use xlink:href="#m" x="204.126" y="5.422"/><use xlink:href="#B" x="207.787" y="5.422"/><use xlink:href="#o" x="211.448" y="5.422"/><use xlink:href="#C" x="215.109" y="5.422"/><use xlink:href="#D" x="218.771" y="5.422"/><use xlink:href="#t" x="222.432" y="5.422"/><use xlink:href="#o" x="226.093" y="5.422"/></g><g style="fill:#000;fill-opacity:1"><use xlink:href="#n" x="233.416" y="5.422"/><use xlink:href="#x" x="237.077" y="5.422"/><use xlink:href="#G" x="240.738" y="5.422"/></g><g style="fill:#000;fill-opacity:1"><use xlink:href="#F" x="248.061" y="5.422"/><use xlink:href="#q" x="251.722" y="5.422"/></g><path style="fill:none;stroke-width:.3985;stroke-linecap:butt;stroke-linejoin:miter;stroke:#000;stroke-opacity:1;stroke-miterlimit:10" d="m158.171-1.408 2.82 2.816m-2.82 0 2.82-2.816" transform="matrix(1 0 0 -1 175.782 119.713)"/><g style="fill:#000;fill-opacity:1"><use xlink:href="#k" x="318.886" y="114.687"/><use xlink:href="#l" x="322.547" y="114.687"/><use xlink:href="#m" x="326.209" y="114.687"/><use xlink:href="#n" x="329.87" y="114.687"/><use xlink:href="#x" x="333.531" y="114.687"/><use xlink:href="#G" x="337.192" y="114.687"/></g><g style="fill:#000;fill-opacity:1"><use xlink:href="#F" x="344.515" y="114.687"/><use xlink:href="#q" x="348.176" y="114.687"/></g><path style="fill:none;stroke-width:.3985;stroke-linecap:butt;stroke-linejoin:miter;stroke:#000;stroke-opacity:1;stroke-miterlimit:10" d="m48.902-110.674 2.82 2.817m-2.82 0 2.82-2.817" transform="matrix(1 0 0 -1 175.782 119.713)"/><g style="fill:#000;fill-opacity:1"><use xlink:href="#k" x="198.634" y="237.324"/><use xlink:href="#l" x="202.295" y="237.324"/><use xlink:href="#m" x="205.957" y="237.324"/><use xlink:href="#A" x="209.618" y="237.324"/><use xlink:href="#C" x="213.279" y="237.324"/><use xlink:href="#n" x="216.94" y="237.324"/><use xlink:href="#o" x="220.602" y="237.324"/><use xlink:href="#t" x="224.263" y="237.324"/></g><g style="fill:#000;fill-opacity:1"><use xlink:href="#n" x="231.578" y="237.324"/><use xlink:href="#x" x="235.24" y="237.324"/><use xlink:href="#G" x="238.901" y="237.324"/></g><g style="fill:#000;fill-opacity:1"><use xlink:href="#F" x="246.224" y="237.324"/><use xlink:href="#q" x="249.885" y="237.324"/></g><path style="fill:none;stroke-width:.3985;stroke-linecap:butt;stroke-linejoin:miter;stroke:#000;stroke-opacity:1;stroke-miterlimit:10" d="m48.902-58.135 2.82 2.82m-2.82 0 2.82-2.82" transform="matrix(1 0 0 -1 175.782 119.713)"/><g style="fill:#000;fill-opacity:1"><use xlink:href="#k" x="196.802" y="184.782"/><use xlink:href="#l" x="200.463" y="184.782"/><use xlink:href="#m" x="204.125" y="184.782"/><use xlink:href="#A" x="207.786" y="184.782"/><use xlink:href="#C" x="211.447" y="184.782"/><use xlink:href="#n" x="215.108" y="184.782"/><use xlink:href="#o" x="218.77" y="184.782"/><use xlink:href="#t" x="222.431" y="184.782"/></g><g style="fill:#000;fill-opacity:1"><use xlink:href="#E" x="229.753" y="184.782"/><use xlink:href="#o" x="233.415" y="184.782"/><use xlink:href="#A" x="237.076" y="184.782"/><use xlink:href="#y" x="240.737" y="184.782"/></g><g style="fill:#000;fill-opacity:1"><use xlink:href="#F" x="248.06" y="184.782"/><use xlink:href="#q" x="251.721" y="184.782"/></g><path style="fill:none;stroke-width:.3985;stroke-linecap:butt;stroke-linejoin:miter;stroke:#000;stroke-opacity:1;stroke-miterlimit:10" d="m-51.72-58.135 2.817 2.82m-2.816 0 2.816-2.82" transform="matrix(1 0 0 -1 175.782 119.713)"/><g style="fill:#000;fill-opacity:1"><use xlink:href="#k" x="94.351" y="172.359"/><use xlink:href="#l" x="98.012" y="172.359"/><use xlink:href="#m" x="101.674" y="172.359"/><use xlink:href="#B" x="105.335" y="172.359"/><use xlink:href="#o" x="108.996" y="172.359"/><use xlink:href="#C" x="112.657" y="172.359"/><use xlink:href="#D" x="116.319" y="172.359"/><use xlink:href="#t" x="119.98" y="172.359"/><use xlink:href="#o" x="123.641" y="172.359"/></g><g style="fill:#000;fill-opacity:1"><use xlink:href="#E" x="130.964" y="172.359"/><use xlink:href="#o" x="134.625" y="172.359"/><use xlink:href="#A" x="138.286" y="172.359"/><use xlink:href="#y" x="141.948" y="172.359"/></g><g style="fill:#000;fill-opacity:1"><use xlink:href="#u" x="149.27" y="172.359"/><use xlink:href="#q" x="152.931" y="172.359"/></g><path style="fill:none;stroke-width:.3985;stroke-linecap:butt;stroke-linejoin:miter;stroke:#000;stroke-opacity:1;stroke-miterlimit:10" d="m-51.72-110.674 2.817 2.817m-2.816 0 2.816-2.817" transform="matrix(1 0 0 -1 175.782 119.713)"/><g style="fill:#000;fill-opacity:1"><use xlink:href="#k" x="96.181" y="237.324"/><use xlink:href="#l" x="99.842" y="237.324"/><use xlink:href="#m" x="103.504" y="237.324"/><use xlink:href="#B" x="107.165" y="237.324"/><use xlink:href="#o" x="110.826" y="237.324"/><use xlink:href="#C" x="114.487" y="237.324"/><use xlink:href="#D" x="118.149" y="237.324"/><use xlink:href="#t" x="121.81" y="237.324"/><use xlink:href="#o" x="125.471" y="237.324"/></g><g style="fill:#000;fill-opacity:1"><use xlink:href="#n" x="132.794" y="237.324"/><use xlink:href="#x" x="136.455" y="237.324"/><use xlink:href="#G" x="140.116" y="237.324"/></g><g style="fill:#000;fill-opacity:1"><use xlink:href="#u" x="147.439" y="237.324"/><use xlink:href="#q" x="151.1" y="237.324"/></g><path style="fill:none;stroke-width:.3985;stroke-linecap:butt;stroke-linejoin:miter;stroke:#000;stroke-opacity:1;stroke-miterlimit:10" d="m-160.989-1.408 2.816 2.816m-2.816 0 2.816-2.816" transform="matrix(1 0 0 -1 175.782 119.713)"/><g style="fill:#000;fill-opacity:1"><use xlink:href="#k" x="-.273" y="114.687"/><use xlink:href="#l" x="3.388" y="114.687"/><use xlink:href="#m" x="7.05" y="114.687"/><use xlink:href="#n" x="10.711" y="114.687"/><use xlink:href="#x" x="14.372" y="114.687"/><use xlink:href="#G" x="18.033" y="114.687"/></g><g style="fill:#000;fill-opacity:1"><use xlink:href="#u" x="25.349" y="114.687"/><use xlink:href="#q" x="29.01" y="114.687"/></g><path style="fill:none;stroke-width:.3985;stroke-linecap:butt;stroke-linejoin:miter;stroke:#000;stroke-opacity:1;stroke-miterlimit:10" d="m-51.72 107.858 2.817 2.816m-2.816 0 2.816-2.816" transform="matrix(1 0 0 -1 175.782 119.713)"/><g style="fill:#000;fill-opacity:1"><use xlink:href="#k" x="98.012" y="5.422"/><use xlink:href="#l" x="101.673" y="5.422"/><use xlink:href="#m" x="105.335" y="5.422"/><use xlink:href="#A" x="108.996" y="5.422"/><use xlink:href="#C" x="112.657" y="5.422"/><use xlink:href="#n" x="116.318" y="5.422"/><use xlink:href="#o" x="119.98" y="5.422"/><use xlink:href="#t" x="123.641" y="5.422"/></g><g style="fill:#000;fill-opacity:1"><use xlink:href="#n" x="130.963" y="5.422"/><use xlink:href="#x" x="134.625" y="5.422"/><use xlink:href="#G" x="138.286" y="5.422"/></g><g style="fill:#000;fill-opacity:1"><use xlink:href="#u" x="145.609" y="5.422"/><use xlink:href="#q" x="149.27" y="5.422"/></g><path style="fill:none;stroke-width:.3985;stroke-linecap:butt;stroke-linejoin:miter;stroke:#000;stroke-opacity:1;stroke-miterlimit:10" d="m-51.72 55.315 2.817 2.816m-2.816 0 2.816-2.816" transform="matrix(1 0 0 -1 175.782 119.713)"/><g style="fill:#000;fill-opacity:1"><use xlink:href="#k" x="96.182" y="71.336"/><use xlink:href="#l" x="99.843" y="71.336"/><use xlink:href="#m" x="103.505" y="71.336"/><use xlink:href="#A" x="107.166" y="71.336"/><use xlink:href="#C" x="110.827" y="71.336"/><use xlink:href="#n" x="114.488" y="71.336"/><use xlink:href="#o" x="118.15" y="71.336"/><use xlink:href="#t" x="121.811" y="71.336"/></g><g style="fill:#000;fill-opacity:1"><use xlink:href="#E" x="129.126" y="71.336"/><use xlink:href="#o" x="132.788" y="71.336"/><use xlink:href="#A" x="136.449" y="71.336"/><use xlink:href="#y" x="140.11" y="71.336"/></g><g style="fill:#000;fill-opacity:1"><use xlink:href="#u" x="147.433" y="71.336"/><use xlink:href="#q" x="151.094" y="71.336"/></g><path style="fill:none;stroke-width:.3985;stroke-linecap:butt;stroke-linejoin:miter;stroke:#000;stroke-opacity:1;stroke-miterlimit:10" d="m-1.403 55.334 2.816 2.816m-2.816 0 2.816-2.816" transform="matrix(1 0 0 -1 175.782 119.713)"/><g style="fill:#000;fill-opacity:1"><use xlink:href="#k" x="159.312" y="58.895"/><use xlink:href="#l" x="162.973" y="58.895"/><use xlink:href="#m" x="166.635" y="58.895"/><use xlink:href="#s" x="170.296" y="58.895"/><use xlink:href="#D" x="173.957" y="58.895"/><use xlink:href="#t" x="177.618" y="58.895"/><use xlink:href="#n" x="181.28" y="58.895"/><use xlink:href="#E" x="184.941" y="58.895"/><use xlink:href="#q" x="188.602" y="58.895"/></g><path style="fill:none;stroke-width:.3985;stroke-linecap:butt;stroke-linejoin:miter;stroke:#000;stroke-opacity:1;stroke-miterlimit:10" d="m-1.403-58.139 2.816 2.817m-2.816 0 2.816-2.817" transform="matrix(1 0 0 -1 175.782 119.713)"/><g style="fill:#000;fill-opacity:1"><use xlink:href="#k" x="159.312" y="184.788"/><use xlink:href="#l" x="162.973" y="184.788"/><use xlink:href="#m" x="166.635" y="184.788"/><use xlink:href="#l" x="170.296" y="184.788"/><use xlink:href="#D" x="173.957" y="184.788"/><use xlink:href="#H" x="177.618" y="184.788"/><use xlink:href="#n" x="181.28" y="184.788"/><use xlink:href="#E" x="184.941" y="184.788"/><use xlink:href="#q" x="188.602" y="184.788"/></g><path style="fill:none;stroke-width:.3985;stroke-linecap:butt;stroke-linejoin:miter;stroke:#000;stroke-opacity:1;stroke-miterlimit:10" d="m158.195-1.404 2.816 2.816m-2.816 0 2.816-2.816" transform="matrix(1 0 0 -1 175.782 119.713)"/><g style="fill:#000;fill-opacity:1"><use xlink:href="#k" x="320.739" y="128.056"/><use xlink:href="#l" x="324.4" y="128.056"/><use xlink:href="#m" x="328.062" y="128.056"/><use xlink:href="#o" x="331.723" y="128.056"/><use xlink:href="#A" x="335.384" y="128.056"/><use xlink:href="#l" x="339.045" y="128.056"/><use xlink:href="#n" x="342.707" y="128.056"/><use xlink:href="#q" x="346.368" y="128.056"/></g><path style="fill:none;stroke-width:.3985;stroke-linecap:butt;stroke-linejoin:miter;stroke:#000;stroke-opacity:1;stroke-miterlimit:10" d="m-161.005-1.404 2.817 2.816m-2.817 0 2.817-2.816" transform="matrix(1 0 0 -1 175.782 119.713)"/><g style="fill:#000;fill-opacity:1"><use xlink:href="#k" x="1.543" y="128.056"/><use xlink:href="#l" x="5.204" y="128.056"/><use xlink:href="#m" x="8.866" y="128.056"/><use xlink:href="#z" x="12.527" y="128.056"/><use xlink:href="#o" x="16.188" y="128.056"/><use xlink:href="#l" x="19.849" y="128.056"/><use xlink:href="#n" x="23.511" y="128.056"/><use xlink:href="#q" x="27.172" y="128.056"/></g><path style="fill:none;stroke-width:.3985;stroke-linecap:butt;stroke-linejoin:miter;stroke:#000;stroke-opacity:1;stroke-miterlimit:10" d="m-81.204 78.389 2.82 2.82m-2.82 0 2.82-2.82" transform="matrix(1 0 0 -1 175.782 119.713)"/><g style="fill:#000;fill-opacity:1"><use xlink:href="#k" x="70.361" y="48.261"/><use xlink:href="#l" x="74.022" y="48.261"/><use xlink:href="#m" x="77.684" y="48.261"/><use xlink:href="#s" x="81.345" y="48.261"/><use xlink:href="#D" x="85.006" y="48.261"/><use xlink:href="#t" x="88.667" y="48.261"/><use xlink:href="#n" x="92.329" y="48.261"/><use xlink:href="#E" x="95.99" y="48.261"/></g><g style="fill:#000;fill-opacity:1"><use xlink:href="#z" x="103.312" y="48.261"/><use xlink:href="#o" x="106.974" y="48.261"/><use xlink:href="#l" x="110.635" y="48.261"/><use xlink:href="#n" x="114.296" y="48.261"/><use xlink:href="#q" x="117.958" y="48.261"/></g><path style="fill:none;stroke-width:.3985;stroke-linecap:butt;stroke-linejoin:miter;stroke:#000;stroke-opacity:1;stroke-miterlimit:10" d="m78.39 78.389 2.82 2.82m-2.82 0 2.82-2.82" transform="matrix(1 0 0 -1 175.782 119.713)"/><g style="fill:#000;fill-opacity:1"><use xlink:href="#k" x="229.952" y="48.261"/><use xlink:href="#l" x="233.613" y="48.261"/><use xlink:href="#m" x="237.275" y="48.261"/><use xlink:href="#s" x="240.936" y="48.261"/><use xlink:href="#D" x="244.597" y="48.261"/><use xlink:href="#t" x="248.258" y="48.261"/><use xlink:href="#n" x="251.92" y="48.261"/><use xlink:href="#E" x="255.581" y="48.261"/></g><g style="fill:#000;fill-opacity:1"><use xlink:href="#o" x="262.903" y="48.261"/><use xlink:href="#A" x="266.565" y="48.261"/><use xlink:href="#l" x="270.226" y="48.261"/><use xlink:href="#n" x="273.887" y="48.261"/><use xlink:href="#q" x="277.549" y="48.261"/></g><path style="fill:none;stroke-width:.3985;stroke-linecap:butt;stroke-linejoin:miter;stroke:#000;stroke-opacity:1;stroke-miterlimit:10" d="m-81.204-81.205 2.82 2.82m-2.82 0 2.82-2.82" transform="matrix(1 0 0 -1 175.782 119.713)"/><g style="fill:#000;fill-opacity:1"><use xlink:href="#k" x="70.361" y="195.429"/><use xlink:href="#l" x="74.022" y="195.429"/><use xlink:href="#m" x="77.684" y="195.429"/><use xlink:href="#l" x="81.345" y="195.429"/><use xlink:href="#D" x="85.006" y="195.429"/><use xlink:href="#H" x="88.667" y="195.429"/><use xlink:href="#n" x="92.329" y="195.429"/><use xlink:href="#E" x="95.99" y="195.429"/></g><g style="fill:#000;fill-opacity:1"><use xlink:href="#z" x="103.305" y="195.429"/><use xlink:href="#o" x="106.967" y="195.429"/><use xlink:href="#l" x="110.628" y="195.429"/><use xlink:href="#n" x="114.289" y="195.429"/><use xlink:href="#q" x="117.951" y="195.429"/></g><path style="fill:none;stroke-width:.3985;stroke-linecap:butt;stroke-linejoin:miter;stroke:#000;stroke-opacity:1;stroke-miterlimit:10" d="m78.39-81.201 2.82 2.816m-2.82 0 2.82-2.816" transform="matrix(1 0 0 -1 175.782 119.713)"/><g style="fill:#000;fill-opacity:1"><use xlink:href="#k" x="229.952" y="195.429"/><use xlink:href="#l" x="233.613" y="195.429"/><use xlink:href="#m" x="237.275" y="195.429"/><use xlink:href="#l" x="240.936" y="195.429"/><use xlink:href="#D" x="244.597" y="195.429"/><use xlink:href="#H" x="248.258" y="195.429"/><use xlink:href="#n" x="251.92" y="195.429"/><use xlink:href="#E" x="255.581" y="195.429"/></g><g style="fill:#000;fill-opacity:1"><use xlink:href="#o" x="262.903" y="195.429"/><use xlink:href="#A" x="266.565" y="195.429"/><use xlink:href="#l" x="270.226" y="195.429"/><use xlink:href="#n" x="273.887" y="195.429"/><use xlink:href="#q" x="277.549" y="195.429"/></g></svg>