<svg xmlns="http://www.w3.org/2000/svg" xmlns:xlink="http://www.w3.org/1999/xlink" width="84.397" height="97.731" viewBox="0 0 63.298 73.298" version="1.2"><defs><clipPath id="c"><path d="M9 37h45v35.945H9Zm0 0"/></clipPath><clipPath id="d"><path d="M47 14h15.945v2H47Zm0 0"/></clipPath><clipPath id="e"><path d="M47 57h15.945v1H47Zm0 0"/></clipPath><symbol overflow="visible" id="a"><path style="stroke:none" d="M6.719-3.234c.14-.063.203-.125.203-.22 0-.093-.047-.155-.203-.218l-5.5-2.594c-.125-.078-.172-.078-.188-.078a.197.197 0 0 0-.203.203c0 .125.078.172.188.22L6.25-3.454 1.031-1c-.187.094-.203.172-.203.234 0 .11.094.204.203.204.032 0 .047 0 .172-.079Zm-.157 4.593c.172 0 .36 0 .36-.187 0-.203-.219-.203-.36-.203H1.188c-.156 0-.359 0-.359.203 0 .187.172.187.344.187Zm0 0"/></symbol><symbol overflow="visible" id="b"><path style="stroke:none" d="M2.938-6.375c0-.25 0-.266-.235-.266C2.078-6 1.203-6 .891-6v.313c.203 0 .78 0 1.296-.266v5.172c0 .36-.03.469-.921.469H.953V0c.344-.031 1.203-.031 1.61-.031.39 0 1.265 0 1.609.031v-.313h-.313c-.906 0-.921-.109-.921-.468Zm0 0"/></symbol></defs><path style="fill:none;stroke-width:.3985;stroke-linecap:butt;stroke-linejoin:miter;stroke:#000;stroke-opacity:1;stroke-miterlimit:10" d="M-14.173 28.348h28.348v28.344h-28.348ZM18.36 42.52a1.993 1.993 0 1 1-3.987-.002 1.993 1.993 0 0 1 3.986.002Zm0 0" transform="matrix(1 0 0 -1 29.204 57.559)"/><use xlink:href="#a" x="21.455" y="10.607" style="fill:#000;fill-opacity:1"/><use xlink:href="#b" x="31.971" y="10.607" style="fill:#000;fill-opacity:1"/><g clip-path="url(#c)"><path style="fill:none;stroke-width:.3985;stroke-linecap:butt;stroke-linejoin:miter;stroke:#000;stroke-opacity:1;stroke-miterlimit:10" d="M-14.173-14.171h28.348v28.343h-28.348ZM18.36 0A1.993 1.993 0 1 1 14.371 0 1.993 1.993 0 0 1 18.358 0Zm0 0" transform="matrix(1 0 0 -1 29.204 57.559)"/></g><use xlink:href="#a" x="24.559" y="67.057" style="fill:#000;fill-opacity:1"/><use xlink:href="#b" x="35.075" y="67.057" style="fill:#000;fill-opacity:1"/><path style="fill:none;stroke-width:.3985;stroke-linecap:butt;stroke-linejoin:miter;stroke:#000;stroke-opacity:1;stroke-miterlimit:10" d="M-28.548 47.313h14.176M-28.548 37.73h14.176" transform="matrix(1 0 0 -1 29.204 57.559)"/><g clip-path="url(#d)"><path style="fill:none;stroke-width:.3985;stroke-linecap:butt;stroke-linejoin:miter;stroke:#000;stroke-opacity:1;stroke-miterlimit:10" d="M18.558 42.52H32.73" transform="matrix(1 0 0 -1 29.204 57.559)"/></g><path style="fill:none;stroke-width:.3985;stroke-linecap:butt;stroke-linejoin:miter;stroke:#000;stroke-opacity:1;stroke-miterlimit:10" d="M-28.548 4.79h14.176M-28.548-4.793h14.176" transform="matrix(1 0 0 -1 29.204 57.559)"/><g clip-path="url(#e)"><path style="fill:none;stroke-width:.3985;stroke-linecap:butt;stroke-linejoin:miter;stroke:#000;stroke-opacity:1;stroke-miterlimit:10" d="M18.558 0H32.73" transform="matrix(1 0 0 -1 29.204 57.559)"/></g></svg>