<svg xmlns="http://www.w3.org/2000/svg" xmlns:xlink="http://www.w3.org/1999/xlink" width="84.17pt" height="70.707" viewBox="0 0 84.17 53.03" version="1.2"><defs><symbol overflow="visible" id="a"><path style="stroke:none" d="M2.953 4.672c.203-.125.14-.234.078-.36-.297-.53-.187-.593.016-.718L4.89 2.53c.78-.453.984-1.375.234-2.656-.281-.484-.922-1.531-1.688-1.094-.374.219-.359.61-.218.844.156.266.5.438.844.234.265-.14.312-.406.328-.437.171.219.343.484.406.578.375.656.187 1.188-.469 1.563l-.297.171c-.375-.609-1.734-2.75-2.968-2.03-.829.468-.36 1.624-.016 2.218.39.687.969.89 1.437.89-.265.157-.656.376-.125 1.282l.235.406c.094.172.156.281.36.172Zm0-2.313c-.844.485-1.406-.25-1.531-.468-.266-.454-.14-.954.25-1.188.922-.531 1.812.766 2.094 1.188Zm0 0"/></symbol><symbol overflow="visible" id="b"><path style="stroke:none" d="M5.39 1.984c.454-.265.438-.859.173-1.328C5.218.062 4.577-.03 3.921.094l.984-.563L4-1.875l-.406.234c.297.532.344.594.015.797L.938.687.594.095.188.328l.656 1.063c.187.328.5.875.656 1.203l.406-.235-.437-.734L2.984.75C3.578.406 4.766 0 5.266.86c0 0-.25-.063-.485.078a.576.576 0 0 0-.234.812c.156.266.484.438.844.234Zm0 0"/></symbol><symbol overflow="visible" id="c"><path style="stroke:none" d="M4.578 3.61c1.172-.672 1.563-1.97.75-3.391-.812-1.407-2.14-1.703-3.297-1.032C.97-.203.547 1.079 1.375 2.5c.844 1.453 2.156 1.719 3.203 1.11Zm-.547-1.172c-.734.437-1.672.968-2.312-.141C1.094 1.203 2.03.672 2.766.234c.406-.218.828-.468 1.203-.484.422-.031.812.234 1.047.64.218.376.296.813.109 1.172-.188.36-.672.641-1.094.875Zm0 0"/></symbol><symbol overflow="visible" id="d"><path style="stroke:none" d="m7.438 4.984.406-.234a9.4 9.4 0 0 1-.422-.656l-.453-.844-.407.234c.047.079.297.5.204.547-.032.016-.094.016-.125.032l-2.735.375L5.75 2.063l.281.484.407-.235-.61-.968c-.203-.36-.39-.75-.469-.875l-.406.234.297.516c-.328.422-.344.437-.344.437-.031.016-.11.016-.125.032l-2.062.265L4.422-.234l.281.484.406-.234-.656-1.047-.5-.953-.406.234.297.516-2.469 3.171c-.11.141-.188.22-.063.438.125.219.235.203.422.188L4.5 2.171 2.797 4.39c-.125.14-.203.218-.078.421.125.22.25.22.437.188l3.766-.516c.125-.015.219-.015.516.5Zm0 0"/></symbol><symbol overflow="visible" id="e"><path style="stroke:none" d="m2.453 4.266.406-.235-.687-1.203L7.14-.032c.203-.124.28-.171.14-.405-.047-.094-.062-.11-.172-.141-.875-.39-1.39-1.281-1.5-1.453l-.093-.172-.391.234.094.172c.078.14.36.594.828 1.016L1.578 1.797.875.594.469.828c.25.36.781 1.281 1.031 1.703.234.422.766 1.344.953 1.735Zm0 0"/></symbol><symbol overflow="visible" id="f"><path style="stroke:none" d="m4.5 3.36-.234-.407c-.188.078-.797.313-.922.219-.11-.063-.485-.719-.563-.844l-.734-1.281c.578.219 1.203.469 1.703.687 1.297.563 2.031.891 2.844.422 1-.578 1.11-1.86.422-3.062-.61-1.063-1.625-1.563-2.391-1.11-.516.297-.406.782-.281.985.156.281.547.515.984.265.453-.25.36-.703.344-.843.344.125.625.406.812.718.422.735.079 1.485-.578 1.86-.593.344-1.375.36-2.343.094L.796.359C.64.281.609.297.437.406L.281.484l2.14 3.704Zm0 0"/></symbol></defs><path style="stroke:none;fill-rule:nonzero;fill:#ff8080;fill-opacity:1" d="m35.145 51.535 5.09-18.988-6.137 3.543L18.539 9.148l6.137-3.546L5.69.516.601 19.504l6.137-3.543 15.559 26.941-6.137 3.543Zm0 0"/><g style="fill:#000;fill-opacity:1"><use xlink:href="#a" x="8.057" y="11.08"/><use xlink:href="#b" x="10.842" y="15.903"/><use xlink:href="#b" x="13.203" y="19.993"/><use xlink:href="#c" x="15.564" y="24.082"/></g><use xlink:href="#d" x="18.269" y="28.767" style="fill:#000;fill-opacity:1"/><use xlink:href="#e" x="24.316" y="39.242" style="fill:#000;fill-opacity:1"/><path style="stroke:none;fill-rule:nonzero;fill:#8080ff;fill-opacity:1" d="m77.668 51.535 5.086-18.988-3.926 7.375-19.98-34.606 8.347.286L48.211.516l-5.09 18.988 3.926-7.375 19.98 34.605-8.347-.289Zm0 0"/><g style="fill:#000;fill-opacity:1"><use xlink:href="#a" x="50.576" y="11.08"/><use xlink:href="#b" x="53.361" y="15.903"/><use xlink:href="#b" x="55.722" y="19.993"/><use xlink:href="#c" x="58.083" y="24.082"/></g><use xlink:href="#d" x="60.788" y="28.767" style="fill:#000;fill-opacity:1"/><use xlink:href="#f" x="66.835" y="39.242" style="fill:#000;fill-opacity:1"/></svg>