<svg xmlns="http://www.w3.org/2000/svg" width="102.3" height="26.715" viewBox="0 0 76.725 20.036" version="1.2"><defs><clipPath id="a"><path d="M0 0h33v19.555H0Zm0 0"/></clipPath><clipPath id="b"><path d="M15 0h46v19.555H15Zm0 0"/></clipPath><clipPath id="c"><path d="M43 0h33.586v19.555H43Zm0 0"/></clipPath></defs><path style="stroke:none;fill-rule:nonzero;fill:red;fill-opacity:1" d="M18.387 9.54c0-4.7-3.809-8.505-8.504-8.505A8.503 8.503 0 0 0 1.379 9.54a8.506 8.506 0 0 0 8.504 8.504 8.506 8.506 0 0 0 8.504-8.504Zm0 0"/><g clip-path="url(#a)"><path style="fill:none;stroke-width:.99628;stroke-linecap:butt;stroke-linejoin:miter;stroke:red;stroke-opacity:1;stroke-miterlimit:10" d="M8.504-.001c0 4.7-3.808 8.504-8.504 8.504A8.503 8.503 0 0 1-8.504-.001 8.506 8.506 0 0 1 0-8.505 8.506 8.506 0 0 1 8.504-.001Zm0 0" transform="matrix(1 0 0 -1 9.883 9.538)"/></g><path style="stroke:none;fill-rule:nonzero;fill:red;fill-opacity:1" d="M46.734 9.54c0-4.7-3.808-8.505-8.504-8.505a8.5 8.5 0 0 0-8.503 8.504 8.503 8.503 0 0 0 8.503 8.504 8.506 8.506 0 0 0 8.504-8.504Zm0 0"/><g clip-path="url(#b)"><path style="fill:none;stroke-width:.99628;stroke-linecap:butt;stroke-linejoin:miter;stroke:#000;stroke-opacity:1;stroke-miterlimit:10" d="M36.852-.001c0 4.7-3.809 8.504-8.504 8.504a8.5 8.5 0 0 1-8.504-8.504 8.503 8.503 0 0 1 8.504-8.504 8.506 8.506 0 0 1 8.504 8.504Zm0 0" transform="matrix(1 0 0 -1 9.883 9.538)"/></g><path style="stroke:none;fill-rule:nonzero;fill:red;fill-opacity:1" d="M75.082 9.54c0-4.7-3.809-8.505-8.508-8.505A8.503 8.503 0 0 0 58.07 9.54a8.506 8.506 0 0 0 8.504 8.504c4.7 0 8.508-3.809 8.508-8.504Zm0 0"/><g clip-path="url(#c)"><path style="fill:none;stroke-width:.99628;stroke-linecap:butt;stroke-linejoin:miter;stroke:red;stroke-opacity:1;stroke-miterlimit:10" d="M65.2-.001c0 4.7-3.81 8.504-8.508 8.504a8.503 8.503 0 0 1-8.504-8.504 8.506 8.506 0 0 1 8.504-8.504c4.699 0 8.508 3.809 8.508 8.504Zm0 0" transform="matrix(1 0 0 -1 9.883 9.538)"/></g></svg>