<svg xmlns="http://www.w3.org/2000/svg" width="78.493" height="49.395" viewBox="0 0 58.87 37.046" version="1.2"><defs><clipPath id="a"><path d="M25 0h33.805v30H25Zm0 0"/></clipPath><clipPath id="b"><path d="M0 0h35v36.57H0Zm0 0"/></clipPath><clipPath id="c"><path d="M14 0h44.805v36.57H14Zm0 0"/></clipPath><clipPath id="d"><path d="M24 0h34.805v36.57H24Zm0 0"/></clipPath><clipPath id="e"><path d="M0 0h32v36.57H0Zm0 0"/></clipPath><clipPath id="f"><path d="M27 0h31.805v36.57H27Zm0 0"/></clipPath><clipPath id="g"><path d="M2 6h52v30.57H2Zm0 0"/></clipPath><clipPath id="h"><path d="M0 6h43v30.57H0Zm0 0"/></clipPath><clipPath id="i"><path d="M0 6h33v30.57H0Zm0 0"/></clipPath><clipPath id="j"><path d="M1 25h2v11.57H1Zm0 0"/></clipPath><clipPath id="k"><path d="M26 6h32.805v30.57H26Zm0 0"/></clipPath><clipPath id="l"><path d="M56 25h2v11.57h-2Zm0 0"/></clipPath></defs><path style="fill:none;stroke-width:1.59404;stroke-linecap:butt;stroke-linejoin:miter;stroke:#000;stroke-opacity:1;stroke-miterlimit:10" d="M6.078 26.542h41.25" transform="matrix(1 0 0 -1 1.102 30.874)"/><path style="fill-rule:nonzero;fill:#000;fill-opacity:1;stroke-width:1.59404;stroke-linecap:butt;stroke-linejoin:miter;stroke:#000;stroke-opacity:1;stroke-miterlimit:10" d="M-6.078-.001C-5.33.19-2.05 1.26.001 2.425v-4.848C-2.05-1.259-5.331-.189-6.078-.001Zm0 0" transform="matrix(-1 0 0 1 1.899 4.333)"/><path style="stroke:none;fill-rule:nonzero;fill:#000;fill-opacity:1" d="M54.508 4.332c-.746-.187-4.028-1.258-6.078-2.422v4.848c2.05-1.164 5.332-2.235 6.078-2.426Zm0 0"/><g clip-path="url(#a)"><path style="fill:none;stroke-width:1.59404;stroke-linecap:butt;stroke-linejoin:miter;stroke:#000;stroke-opacity:1;stroke-miterlimit:10" d="M6.077.001C5.331.19 2.05 1.26 0 2.423v-4.848C2.05-1.26 5.331-.19 6.077.001Zm0 0" transform="matrix(1 0 0 -1 48.43 4.333)"/></g><path style="fill:none;stroke-width:1.59404;stroke-linecap:butt;stroke-linejoin:miter;stroke:#000;stroke-opacity:1;stroke-miterlimit:10" d="M10.96 17.694h34.774" transform="matrix(1 0 0 -1 1.102 30.874)"/><path style="stroke:none;fill-rule:nonzero;fill:#000;fill-opacity:1" d="M5.98 13.18c.75.187 4.032 1.258 6.082 2.422v-4.844c-2.05 1.164-5.332 2.234-6.082 2.422Zm0 0"/><g clip-path="url(#b)"><path style="fill:none;stroke-width:1.59404;stroke-linecap:butt;stroke-linejoin:miter;stroke:#000;stroke-opacity:1;stroke-miterlimit:10" d="M6.08 0C5.33.187 2.05 1.257 0 2.42v-4.843C2.049-1.258 5.33-.188 6.08 0Zm0 0" transform="matrix(-1 0 0 1 12.061 13.18)"/></g><path style="fill:none;stroke-width:1.59404;stroke-linecap:butt;stroke-linejoin:miter;stroke:#000;stroke-opacity:1;stroke-miterlimit:10" d="M0 4.683v-9.367" transform="matrix(-1 0 0 1 1.899 13.18)"/><path style="stroke:none;fill-rule:nonzero;fill:#000;fill-opacity:1" d="M42.754 13.18c-.746-.188-4.027-1.258-6.078-2.422v4.844c2.05-1.165 5.332-2.235 6.078-2.422Zm0 0"/><g clip-path="url(#c)"><path style="fill:none;stroke-width:1.59404;stroke-linecap:butt;stroke-linejoin:miter;stroke:#000;stroke-opacity:1;stroke-miterlimit:10" d="M6.08 0C5.332.188 2.051 1.258 0 2.422V-2.42C2.052-1.257 5.333-.187 6.08 0Zm0 0" transform="matrix(1 0 0 -1 36.674 13.18)"/></g><path style="stroke:none;fill-rule:nonzero;fill:#000;fill-opacity:1" d="M52.914 13.18c-.746-.188-4.027-1.258-6.078-2.422v4.844c2.05-1.165 5.332-2.235 6.078-2.422Zm0 0"/><g clip-path="url(#d)"><path style="fill:none;stroke-width:1.59404;stroke-linecap:butt;stroke-linejoin:miter;stroke:#000;stroke-opacity:1;stroke-miterlimit:10" d="M6.078 0C5.33.188 2.05 1.258-.001 2.422V-2.42C2.05-1.257 5.331-.187 6.078 0Zm0 0" transform="matrix(1 0 0 -1 46.837 13.18)"/></g><path style="fill:none;stroke-width:1.59404;stroke-linecap:butt;stroke-linejoin:miter;stroke:#000;stroke-opacity:1;stroke-miterlimit:10" d="M.001 4.684v-9.367" transform="matrix(1 0 0 -1 56.999 13.18)"/><path style="fill:none;stroke-width:1.59404;stroke-linecap:butt;stroke-linejoin:miter;stroke:#000;stroke-opacity:1;stroke-miterlimit:10" d="M7.492 8.847h43" transform="matrix(1 0 0 -1 1.102 30.874)"/><path style="stroke:none;fill-rule:nonzero;fill:#000;fill-opacity:1" d="m8.996 22.027-5.32 2.02 1.785-2.02-1.785-2.02Zm0 0"/><g clip-path="url(#e)"><path style="fill:none;stroke-width:1.59404;stroke-linecap:butt;stroke-linejoin:miter;stroke:#000;stroke-opacity:1;stroke-miterlimit:10" d="m-7.894 0 5.32 2.02L-4.359 0l1.785-2.02Zm0 0" transform="matrix(-1 0 0 1 1.102 22.027)"/></g><path style="stroke:none;fill-rule:nonzero;fill:#000;fill-opacity:1" d="m55.527 22.027-5.32-2.02 1.785 2.02-1.785 2.02Zm0 0"/><g clip-path="url(#f)"><path style="fill:none;stroke-width:1.59404;stroke-linecap:butt;stroke-linejoin:miter;stroke:#000;stroke-opacity:1;stroke-miterlimit:10" d="m7.894 0-5.32 2.02L4.358 0 2.573-2.02Zm0 0" transform="matrix(1 0 0 -1 47.634 22.027)"/></g><path style="fill:none;stroke-width:1.59404;stroke-linecap:butt;stroke-linejoin:miter;stroke:#000;stroke-opacity:1;stroke-miterlimit:10" d="M28.12-.001h20.778" transform="matrix(1 0 0 -1 1.102 30.874)"/><path style="stroke:none;fill-rule:nonzero;fill:#000;fill-opacity:1" d="m25.29 30.875 5.32 2.02-1.786-2.02 1.785-2.023Zm0 0"/><g clip-path="url(#g)"><path style="fill:none;stroke-width:1.59404;stroke-linecap:butt;stroke-linejoin:miter;stroke:#000;stroke-opacity:1;stroke-miterlimit:10" d="m7.893.001-5.32 2.02L4.358 0 2.573-2.022Zm0 0" transform="matrix(-1 0 0 1 33.182 30.874)"/></g><path style="stroke:none;fill-rule:nonzero;fill:#000;fill-opacity:1" d="m15.129 30.875 5.316 2.02-1.78-2.02 1.78-2.023Zm0 0"/><g clip-path="url(#h)"><path style="fill:none;stroke-width:1.59404;stroke-linecap:butt;stroke-linejoin:miter;stroke:#000;stroke-opacity:1;stroke-miterlimit:10" d="m7.891.001-5.316 2.02L4.356 0 2.575-2.022Zm0 0" transform="matrix(-1 0 0 1 23.02 30.874)"/></g><path style="stroke:none;fill-rule:nonzero;fill:#000;fill-opacity:1" d="m4.965 30.875 5.32 2.02-1.785-2.02 1.785-2.023Zm0 0"/><g clip-path="url(#i)"><path style="fill:none;stroke-width:1.59404;stroke-linecap:butt;stroke-linejoin:miter;stroke:#000;stroke-opacity:1;stroke-miterlimit:10" d="m7.893.001-5.32 2.02L4.358 0 2.573-2.022Zm0 0" transform="matrix(-1 0 0 1 12.858 30.874)"/></g><g clip-path="url(#j)"><path style="fill:none;stroke-width:1.59404;stroke-linecap:butt;stroke-linejoin:miter;stroke:#000;stroke-opacity:1;stroke-miterlimit:10" d="M0 4.68v-9.363" transform="matrix(-1 0 0 1 1.899 30.874)"/></g><path style="stroke:none;fill-rule:nonzero;fill:#000;fill-opacity:1" d="m53.934 30.875-5.32-2.023 1.784 2.023-1.785 2.02Zm0 0"/><g clip-path="url(#k)"><path style="fill:none;stroke-width:1.59404;stroke-linecap:butt;stroke-linejoin:miter;stroke:#000;stroke-opacity:1;stroke-miterlimit:10" d="m7.894-.001-5.32 2.023L4.359 0l-1.785-2.02Zm0 0" transform="matrix(1 0 0 -1 46.04 30.874)"/></g><g clip-path="url(#l)"><path style="fill:none;stroke-width:1.59404;stroke-linecap:butt;stroke-linejoin:miter;stroke:#000;stroke-opacity:1;stroke-miterlimit:10" d="M.001 4.683v-9.364" transform="matrix(1 0 0 -1 56.999 30.874)"/></g></svg>