<svg xmlns="http://www.w3.org/2000/svg" xmlns:xlink="http://www.w3.org/1999/xlink" width="600.243" height="137.595" viewBox="0 0 450.182 103.196" version="1.2"><defs><symbol overflow="visible" id="f"><path style="stroke:none" d="M2.89-3.516c.813-.265 1.391-.953 1.391-1.75 0-.812-.875-1.375-1.828-1.375-1 0-1.765.594-1.765 1.36 0 .328.218.515.515.515.297 0 .5-.218.5-.515 0-.485-.469-.485-.61-.485.298-.5.954-.625 1.313-.625.422 0 .969.22.969 1.11 0 .125-.031.703-.281 1.14-.297.485-.64.516-.89.516a3.29 3.29 0 0 1-.392.031c-.078.016-.14.031-.14.125 0 .11.062.11.234.11h.438c.812 0 1.187.671 1.187 1.656 0 1.36-.687 1.64-1.125 1.64-.437 0-1.187-.171-1.531-.75.344.047.656-.171.656-.546a.537.537 0 0 0-.547-.563c-.25 0-.562.14-.562.578C.422-.437 1.344.22 2.437.22c1.22 0 2.126-.906 2.126-1.922 0-.813-.641-1.594-1.672-1.813Zm0 0"/></symbol><symbol overflow="visible" id="g"><path style="stroke:none" d="M6.188-5.828c.14-.375.406-.656 1.093-.672v-.313c-.312.032-.718.032-.968.032-.297 0-.875-.016-1.141-.032v.313c.516.016.734.266.734.5 0 .078-.031.14-.047.203L4.031-1 2.125-6.031c-.063-.14-.063-.157-.063-.172 0-.297.563-.297.813-.297v-.313c-.36.032-1.047.032-1.422.032-.469 0-.906-.016-1.266-.032v.313c.657 0 .844 0 .985.375L3.484 0c.063.188.11.219.25.219.157 0 .188-.047.235-.188Zm0 0"/></symbol><symbol overflow="visible" id="h"><path style="stroke:none" d="M6.75-1.61H6.5a3.74 3.74 0 0 1-.188.72c-.046.156-.078.25-.656.25H4.86c.141-.563.438-1.047.891-1.704.469-.703.875-1.39.875-2.187 0-1.375-1.344-2.5-3.031-2.5-1.703 0-3.031 1.14-3.031 2.5 0 .797.406 1.484.875 2.187.437.656.75 1.14.89 1.703h-.797c-.578 0-.61-.093-.656-.234-.094-.234-.14-.484-.188-.734h-.25L.766 0h1.593c.22 0 .25 0 .25-.203 0-.703-.312-1.578-.53-2.219-.22-.578-.5-1.36-.5-2.11 0-1.593 1.109-2.28 2.015-2.28.953 0 2.015.718 2.015 2.28 0 .75-.28 1.5-.562 2.313-.156.422-.469 1.328-.469 2.016 0 .203.031.203.25.203h1.594Zm0 0"/></symbol><symbol overflow="visible" id="i"><path style="stroke:none" d="M2.938-1.64v.859c0 .36-.032.469-.766.469h-.203V0c.406-.031.922-.031 1.343-.031.422 0 .938 0 1.36.031v-.313h-.219c-.734 0-.75-.109-.75-.468v-.86h.985v-.312h-.985v-4.531c0-.204 0-.266-.172-.266-.078 0-.11 0-.187.125L.28-1.953v.312Zm.046-.313H.563l2.421-3.719Zm0 0"/></symbol><symbol overflow="visible" id="j"><path style="stroke:none" d="M1.625-4.563c-.453-.296-.5-.625-.5-.796 0-.61.656-1.032 1.36-1.032.718 0 1.359.516 1.359 1.235 0 .578-.39 1.047-.985 1.39Zm1.453.954c.719-.375 1.203-.891 1.203-1.547 0-.922-.875-1.485-1.781-1.485-1 0-1.813.735-1.813 1.672 0 .172.016.625.438 1.094.11.11.484.36.734.531C1.281-3.047.422-2.5.422-1.5.422-.453 1.438.219 2.484.219c1.125 0 2.079-.828 2.079-1.89 0-.36-.11-.813-.5-1.235-.188-.203-.344-.297-.985-.703Zm-1 .421 1.235.782c.28.187.75.484.75 1.094 0 .734-.75 1.25-1.563 1.25C1.64-.063.922-.672.922-1.5c0-.578.312-1.219 1.156-1.688Zm0 0"/></symbol><symbol overflow="visible" id="k"><path style="stroke:none" d="m1.266-.766 1.062-1.03c1.547-1.376 2.14-1.907 2.14-2.907 0-1.14-.89-1.938-2.109-1.938C1.234-6.64.5-5.719.5-4.828c0 .547.5.547.531.547.172 0 .516-.11.516-.532a.513.513 0 0 0-.531-.515c-.079 0-.094 0-.125.016.218-.657.765-1.016 1.343-1.016.907 0 1.329.812 1.329 1.625 0 .797-.485 1.578-1.047 2.203L.609-.375C.5-.265.5-.235.5 0h3.703l.266-1.734h-.235C4.172-1.438 4.11-1 4-.844c-.063.078-.719.078-.938.078Zm0 0"/></symbol><symbol overflow="visible" id="l"><path style="stroke:none" d="M2.938-6.375c0-.25 0-.266-.235-.266C2.078-6 1.203-6 .891-6v.313c.203 0 .78 0 1.296-.266v5.172c0 .36-.03.469-.921.469H.953V0c.344-.031 1.203-.031 1.61-.031.39 0 1.265 0 1.609.031v-.313h-.313c-.906 0-.921-.109-.921-.468Zm0 0"/></symbol><symbol overflow="visible" id="q"><path style="stroke:none" d="M6.844-3.266c.156 0 .343 0 .343-.187 0-.203-.187-.203-.328-.203H.891c-.141 0-.329 0-.329.203 0 .187.188.187.329.187Zm.015 1.938c.141 0 .329 0 .329-.203 0-.188-.188-.188-.344-.188H.89c-.141 0-.329 0-.329.188 0 .203.188.203.329.203Zm0 0"/></symbol><symbol overflow="visible" id="m"><path style="stroke:none" d="M6.438-6.922a.12.12 0 0 0-.125-.11c-.047 0-.047.016-.172.157l-.485.563c-.25-.47-.765-.72-1.422-.72-1.265 0-2.453 1.157-2.453 2.36 0 .797.516 1.266 1.032 1.406l1.062.282c.375.093.922.25.922 1.062 0 .89-.813 1.828-1.797 1.828-.64 0-1.75-.218-1.75-1.453 0-.234.063-.484.063-.531.015-.047.015-.063.015-.078 0-.094-.062-.11-.11-.11a.142.142 0 0 0-.109.047C1.08-2.188.516.094.516.125c0 .047.046.094.109.094.047 0 .063-.016.188-.157L1.296-.5c.422.578 1.11.719 1.687.719 1.36 0 2.532-1.328 2.532-2.563 0-.687-.344-1.031-.485-1.172-.234-.218-.39-.265-1.265-.484-.235-.063-.579-.172-.672-.188a.928.928 0 0 1-.61-.906c0-.812.797-1.656 1.75-1.656.813 0 1.422.438 1.422 1.547 0 .312-.031.5-.031.562 0 0 0 .094.11.094.109 0 .124-.031.156-.203Zm0 0"/></symbol><symbol overflow="visible" id="o"><path style="stroke:none" d="M3.234-1.422c0-.11-.093-.11-.125-.11-.093 0-.109.048-.125.11-.312.984-1.14 1.313-1.562 1.313-.14 0-.266-.032-.266-.329 0-.234.078-.468.172-.734.453-1.203.86-2.89.86-2.969 0-.171-.11-.265-.282-.265a.41.41 0 0 0-.375.265c-.062.188-.156.672-.218.86-.016.047-.266.922-.297 1.062-.032.094-.125.344-.141.438-.078.281-.313.75-.313 1.078 0 .406.282.812.829.812 1.14 0 1.843-1.203 1.843-1.53Zm0 0"/></symbol><symbol overflow="visible" id="p"><path style="stroke:none" d="M3.734-6.125c.063-.234.094-.328.282-.36.093-.015.406-.015.609-.015.703 0 1.813 0 1.813.984 0 .344-.157 1.032-.547 1.422-.266.25-.782.578-1.688.578h-1.11Zm1.438 2.734c1.016-.218 2.187-.921 2.187-1.921 0-.86-.89-1.5-2.203-1.5H2.328c-.203 0-.297 0-.297.203 0 .109.094.109.281.109.016 0 .204 0 .376.016.187.03.265.03.265.171 0 .032 0 .063-.031.188L1.578-.781c-.094.39-.11.469-.906.469-.172 0-.266 0-.266.203C.406 0 .531 0 .546 0c.282 0 .985-.031 1.25-.031.282 0 1 .031 1.282.031.078 0 .188 0 .188-.203 0-.11-.079-.11-.282-.11-.359 0-.64 0-.64-.171 0-.063.015-.11.031-.172l.656-2.64H4.22c.906 0 1.078.562 1.078.905 0 .141-.078.454-.14.688-.063.281-.157.64-.157.844C5 .219 6.203.219 6.328.219c.844 0 1.203-1 1.203-1.14 0-.126-.11-.126-.125-.126-.093 0-.11.063-.125.14-.25.735-.687.907-.906.907-.328 0-.406-.219-.406-.61 0-.312.062-.812.11-1.14.015-.14.03-.328.03-.469 0-.765-.671-1.078-.937-1.172Zm0 0"/></symbol><symbol overflow="visible" id="n"><path style="stroke:none" d="M2.328-4.438c0-.187 0-.187-.203-.187-.453.438-1.078.438-1.36.438v.25c.157 0 .626 0 1-.188v3.547c0 .234 0 .328-.687.328H.812V0c.125 0 .985-.031 1.235-.031.219 0 1.094.031 1.25.031v-.25H3.03c-.703 0-.703-.094-.703-.328Zm0 0"/></symbol><clipPath id="a"><path d="M64 92h15v10.793H64Zm0 0"/></clipPath><clipPath id="b"><path d="M127 92h16v10.793h-16Zm0 0"/></clipPath><clipPath id="c"><path d="M223 92h16v10.793h-16Zm0 0"/></clipPath><clipPath id="d"><path d="M287 92h16v10.793h-16Zm0 0"/></clipPath><clipPath id="e"><path d="M351 92h15v10.793h-15Zm0 0"/></clipPath></defs><path style="fill-rule:nonzero;fill:#000;fill-opacity:1;stroke-width:.3985;stroke-linecap:butt;stroke-linejoin:miter;stroke:#000;stroke-opacity:1;stroke-miterlimit:10" d="M65.523 0a1.742 1.742 0 1 1-3.484 0 1.741 1.741 0 1 1 3.484 0Zm0 0" transform="matrix(1 0 0 -1 7.782 14.8)"/><path style="stroke:none;fill-rule:nonzero;fill:#000;fill-opacity:1" d="M73.305 99.84c0-.961-.782-1.742-1.743-1.742-.964 0-1.742.78-1.742 1.742 0 .965.778 1.742 1.743 1.742.96 0 1.742-.777 1.742-1.742Zm0 0"/><g clip-path="url(#a)"><path style="fill:none;stroke-width:.3985;stroke-linecap:butt;stroke-linejoin:miter;stroke:#000;stroke-opacity:1;stroke-miterlimit:10" d="M65.523-85.04a1.741 1.741 0 1 1-3.484 0c0-.965.777-1.742 1.742-1.742.96 0 1.742.777 1.742 1.742Zm0 0" transform="matrix(1 0 0 -1 7.782 14.8)"/></g><path style="fill-rule:nonzero;fill:#000;fill-opacity:1;stroke-width:.3985;stroke-linecap:butt;stroke-linejoin:miter;stroke:#000;stroke-opacity:1;stroke-miterlimit:10" d="M129.304 0a1.745 1.745 0 1 1-3.49.002 1.745 1.745 0 0 1 3.49-.003Zm0 0" transform="matrix(1 0 0 -1 7.782 14.8)"/><path style="stroke:none;fill-rule:nonzero;fill:#000;fill-opacity:1" d="M137.086 99.84a1.744 1.744 0 0 0-3.488 0c0 .965.78 1.742 1.746 1.742.96 0 1.742-.777 1.742-1.742Zm0 0"/><g clip-path="url(#b)"><path style="fill:none;stroke-width:.3985;stroke-linecap:butt;stroke-linejoin:miter;stroke:#000;stroke-opacity:1;stroke-miterlimit:10" d="M129.304-85.04a1.744 1.744 0 0 1-3.488 0c0-.965.78-1.742 1.746-1.742.96 0 1.742.777 1.742 1.742Zm0 0" transform="matrix(1 0 0 -1 7.782 14.8)"/></g><path style="fill-rule:nonzero;fill:#000;fill-opacity:1;stroke-width:.3985;stroke-linecap:butt;stroke-linejoin:miter;stroke:#000;stroke-opacity:1;stroke-miterlimit:10" d="M224.976 0a1.745 1.745 0 1 1-3.487.003 1.745 1.745 0 0 1 3.487-.004Zm0 0" transform="matrix(1 0 0 -1 7.782 14.8)"/><path style="stroke:none;fill-rule:nonzero;fill:#000;fill-opacity:1" d="M232.758 99.84a1.745 1.745 0 0 0-3.488 0c0 .965.78 1.742 1.742 1.742.965 0 1.746-.777 1.746-1.742Zm0 0"/><g clip-path="url(#c)"><path style="fill:none;stroke-width:.3985;stroke-linecap:butt;stroke-linejoin:miter;stroke:#000;stroke-opacity:1;stroke-miterlimit:10" d="M224.976-85.04a1.745 1.745 0 0 1-3.488 0c0-.965.78-1.742 1.742-1.742.965 0 1.746.777 1.746 1.742Zm0 0" transform="matrix(1 0 0 -1 7.782 14.8)"/></g><path style="fill-rule:nonzero;fill:#000;fill-opacity:1;stroke-width:.3985;stroke-linecap:butt;stroke-linejoin:miter;stroke:#000;stroke-opacity:1;stroke-miterlimit:10" d="M288.753 0a1.742 1.742 0 1 1-3.484 0 1.741 1.741 0 1 1 3.484 0Zm0 0" transform="matrix(1 0 0 -1 7.782 14.8)"/><path style="stroke:none;fill-rule:nonzero;fill:#000;fill-opacity:1" d="M296.535 99.84a1.741 1.741 0 1 0-3.484 0c0 .965.781 1.742 1.742 1.742.965 0 1.742-.777 1.742-1.742Zm0 0"/><g clip-path="url(#d)"><path style="fill:none;stroke-width:.3985;stroke-linecap:butt;stroke-linejoin:miter;stroke:#000;stroke-opacity:1;stroke-miterlimit:10" d="M288.753-85.04a1.741 1.741 0 1 1-3.484 0c0-.965.781-1.742 1.742-1.742.965 0 1.742.777 1.742 1.742Zm0 0" transform="matrix(1 0 0 -1 7.782 14.8)"/></g><path style="fill-rule:nonzero;fill:#000;fill-opacity:1;stroke-width:.3985;stroke-linecap:butt;stroke-linejoin:miter;stroke:#000;stroke-opacity:1;stroke-miterlimit:10" d="M352.534 0a1.742 1.742 0 1 1-3.484 0 1.741 1.741 0 1 1 3.484 0Zm0 0" transform="matrix(1 0 0 -1 7.782 14.8)"/><path style="stroke:none;fill-rule:nonzero;fill:#000;fill-opacity:1" d="M360.316 99.84a1.741 1.741 0 1 0-3.484 0c0 .965.777 1.742 1.742 1.742.961 0 1.742-.777 1.742-1.742Zm0 0"/><g clip-path="url(#e)"><path style="fill:none;stroke-width:.3985;stroke-linecap:butt;stroke-linejoin:miter;stroke:#000;stroke-opacity:1;stroke-miterlimit:10" d="M352.534-85.04a1.741 1.741 0 1 1-3.484 0c0-.965.777-1.742 1.742-1.742.961 0 1.742.777 1.742 1.742Zm0 0" transform="matrix(1 0 0 -1 7.782 14.8)"/></g><path style="fill:none;stroke-width:.3985;stroke-linecap:butt;stroke-linejoin:miter;stroke:#000;stroke-opacity:1;stroke-miterlimit:10" d="M65.624-85.04h60.094m3.687 0h91.985m3.683 0h60.094m3.688 0h60.093M35.327 4.359v-8.72L26.807 0ZM35.327 0H26.61M26.609 4.359v-8.72M0-28.235a6.975 6.975 0 1 1 .003 13.948 6.975 6.975 0 0 1-.004-13.948ZM0-14.286v-13.95M9.5-12.544v-15.98" transform="matrix(1 0 0 -1 7.782 14.8)"/><path style="fill-rule:nonzero;fill:#000;fill-opacity:1;stroke-width:.3985;stroke-linecap:butt;stroke-linejoin:round;stroke:#000;stroke-opacity:1;stroke-miterlimit:10" d="M-1.456 1.115 1.454.002l-2.91-1.114Zm0 0" transform="matrix(0 1 1 0 17.28 43.323)"/><g style="fill:#000;fill-opacity:1"><use xlink:href="#f" x="21.962" y="39.464"/><use xlink:href="#g" x="26.943" y="39.464"/></g><path style="fill:none;stroke-width:.3985;stroke-linecap:butt;stroke-linejoin:miter;stroke:#000;stroke-opacity:1;stroke-miterlimit:10" d="M3.488-77.727v27.894h-6.973v-27.894Zm0 0" transform="matrix(1 0 0 -1 7.782 14.8)"/><g style="fill:#000;fill-opacity:1"><use xlink:href="#f" x="14.988" y="81.984"/><use xlink:href="#h" x="19.969" y="81.984"/></g><path style="fill:none;stroke-width:.3985;stroke-linecap:butt;stroke-linejoin:miter;stroke:#000;stroke-opacity:1;stroke-miterlimit:10" d="M61.937 0h-26.41m-9.118 0H0v-14.087m0-14.347v-21.2m0-28.293v-7.113h61.938M67.269-56.47v27.899h-6.977V-56.47Zm0 0" transform="matrix(1 0 0 -1 7.782 14.8)"/><g style="fill:#000;fill-opacity:1"><use xlink:href="#i" x="78.768" y="60.724"/><use xlink:href="#h" x="83.749" y="60.724"/></g><path style="fill:none;stroke-width:.3985;stroke-linecap:butt;stroke-linejoin:miter;stroke:#000;stroke-opacity:1;stroke-miterlimit:10" d="M63.78-1.845v-26.527m0-28.297v-26.527M81.722-3.485h27.894v6.973H81.722Zm0 0" transform="matrix(1 0 0 -1 7.782 14.8)"/><g style="fill:#000;fill-opacity:1"><use xlink:href="#f" x="97.363" y="7.594"/><use xlink:href="#h" x="102.344" y="7.594"/></g><path style="fill:none;stroke-width:.3985;stroke-linecap:butt;stroke-linejoin:miter;stroke:#000;stroke-opacity:1;stroke-miterlimit:10" d="M65.624 0h15.899m28.297 0h15.898M127.562-29.157a6.975 6.975 0 1 1-.005 13.95 6.975 6.975 0 0 1 .005-13.95ZM127.562-15.208v-13.949M137.058-14.919v-15.98" transform="matrix(1 0 0 -1 7.782 14.8)"/><path style="fill-rule:nonzero;fill:#000;fill-opacity:1;stroke-width:.3985;stroke-linecap:butt;stroke-linejoin:round;stroke:#000;stroke-opacity:1;stroke-miterlimit:10" d="M-1.453 1.114 1.453 0l-2.906-1.113Zm0 0" transform="matrix(0 -1 -1 0 144.84 29.719)"/><g style="fill:#000;fill-opacity:1"><use xlink:href="#j" x="149.521" y="40.386"/><use xlink:href="#g" x="154.502" y="40.386"/></g><path style="fill:none;stroke-width:.3985;stroke-linecap:butt;stroke-linejoin:miter;stroke:#000;stroke-opacity:1;stroke-miterlimit:10" d="M131.046-76.805v27.894h-6.973v-27.894Zm0 0" transform="matrix(1 0 0 -1 7.782 14.8)"/><g style="fill:#000;fill-opacity:1"><use xlink:href="#k" x="142.547" y="81.062"/><use xlink:href="#h" x="147.528" y="81.062"/></g><path style="fill:none;stroke-width:.3985;stroke-linecap:butt;stroke-linejoin:miter;stroke:#000;stroke-opacity:1;stroke-miterlimit:10" d="M127.562-1.845v-13.164m0-14.347v-19.356m0-28.293v-6.191M138.452-3.485h27.895v6.973h-27.895Zm0 0" transform="matrix(1 0 0 -1 7.782 14.8)"/><g style="fill:#000;fill-opacity:1"><use xlink:href="#l" x="154.092" y="7.594"/><use xlink:href="#h" x="159.073" y="7.594"/></g><path style="fill:none;stroke-width:.3985;stroke-linecap:round;stroke-linejoin:miter;stroke:#000;stroke-opacity:1;stroke-miterlimit:10" d="m191.417 0 13.95 6.976" transform="matrix(1 0 0 -1 7.782 14.8)"/><use xlink:href="#m" x="200.882" y="25.626" style="fill:red;fill-opacity:1"/><use xlink:href="#n" x="206.991" y="27.12" style="fill:red;fill-opacity:1"/><path style="fill:none;stroke-width:.3985;stroke-linecap:butt;stroke-linejoin:miter;stroke:#000;stroke-opacity:1;stroke-miterlimit:10" d="M129.405 0h8.848m28.293 0h24.871m13.95 0h16.023M223.23-24.536v4.711" transform="matrix(1 0 0 -1 7.782 14.8)"/><path style="fill-rule:nonzero;fill:#000;fill-opacity:1;stroke-width:.3985;stroke-linecap:butt;stroke-linejoin:round;stroke:#000;stroke-opacity:1;stroke-miterlimit:10" d="m-2.354 1.802 4.71-1.8-4.71-1.805Zm0 0" transform="matrix(0 -1 -1 0 231.013 36.982)"/><use xlink:href="#o" x="222.161" y="39.126" style="fill:#000;fill-opacity:1"/><path style="fill:none;stroke-width:.3985;stroke-linecap:butt;stroke-linejoin:miter;stroke:#000;stroke-opacity:1;stroke-miterlimit:10" d="M226.718-76.805v27.894h-6.973v-27.894Zm0 0" transform="matrix(1 0 0 -1 7.782 14.8)"/><use xlink:href="#p" x="238.216" y="81.062" style="fill:#000;fill-opacity:1"/><use xlink:href="#q" x="248.625" y="81.062" style="fill:#000;fill-opacity:1"/><g style="fill:#000;fill-opacity:1"><use xlink:href="#i" x="259.134" y="81.062"/><use xlink:href="#h" x="264.115" y="81.062"/></g><path style="fill:none;stroke-width:.3985;stroke-linecap:butt;stroke-linejoin:miter;stroke:#000;stroke-opacity:1;stroke-miterlimit:10" d="M223.23-1.845v-17.98m0-4.71v-24.177m0-28.293v-6.191M287.011-29.157a6.975 6.975 0 0 1 0 13.95 6.975 6.975 0 0 1 0-13.95ZM287.011-15.208v-13.949M296.511-14.919v-15.98" transform="matrix(1 0 0 -1 7.782 14.8)"/><path style="fill-rule:nonzero;fill:#000;fill-opacity:1;stroke-width:.3985;stroke-linecap:butt;stroke-linejoin:round;stroke:#000;stroke-opacity:1;stroke-miterlimit:10" d="M-1.453 1.111 1.453-.002l-2.906-1.113Zm0 0" transform="matrix(0 -1 -1 0 304.291 29.719)"/><g style="fill:#000;fill-opacity:1"><use xlink:href="#j" x="308.97" y="40.386"/><use xlink:href="#g" x="313.951" y="40.386"/></g><path style="fill:none;stroke-width:.3985;stroke-linecap:butt;stroke-linejoin:miter;stroke:#000;stroke-opacity:1;stroke-miterlimit:10" d="M290.5-76.805v27.894h-6.977v-27.894Zm0 0" transform="matrix(1 0 0 -1 7.782 14.8)"/><g style="fill:#000;fill-opacity:1"><use xlink:href="#k" x="301.996" y="81.062"/><use xlink:href="#h" x="306.977" y="81.062"/></g><path style="fill:none;stroke-width:.3985;stroke-linecap:butt;stroke-linejoin:miter;stroke:#000;stroke-opacity:1;stroke-miterlimit:10" d="M287.011-1.845v-13.164m0-14.347v-19.356m0-28.293v-6.191M241.175-3.485h27.895v6.973h-27.895Zm0 0" transform="matrix(1 0 0 -1 7.782 14.8)"/><g style="fill:#000;fill-opacity:1"><use xlink:href="#l" x="256.812" y="7.594"/><use xlink:href="#h" x="261.793" y="7.594"/></g><path style="fill:none;stroke-width:.3985;stroke-linecap:butt;stroke-linejoin:miter;stroke:#000;stroke-opacity:1;stroke-miterlimit:10" d="M225.073 0h15.903m28.293 0h15.898M304.952-3.485h27.899v6.973h-27.899Zm0 0" transform="matrix(1 0 0 -1 7.782 14.8)"/><g style="fill:#000;fill-opacity:1"><use xlink:href="#f" x="320.591" y="7.594"/><use xlink:href="#h" x="325.572" y="7.594"/></g><path style="fill:none;stroke-width:.3985;stroke-linecap:butt;stroke-linejoin:miter;stroke:#000;stroke-opacity:1;stroke-miterlimit:10" d="M288.855 0h15.898m28.297 0h15.898M354.28-56.47v27.899h-6.976V-56.47Zm0 0" transform="matrix(1 0 0 -1 7.782 14.8)"/><g style="fill:#000;fill-opacity:1"><use xlink:href="#i" x="365.775" y="60.724"/><use xlink:href="#h" x="370.756" y="60.724"/></g><path style="fill:none;stroke-width:.3985;stroke-linecap:butt;stroke-linejoin:miter;stroke:#000;stroke-opacity:1;stroke-miterlimit:10" d="M350.792-1.845v-26.527m0-28.297v-26.527M379.245-4.36v8.719l8.52-4.36ZM379.245 0h8.72M387.964-4.36v8.719M414.573-28.235a6.975 6.975 0 1 1-.004 13.95 6.975 6.975 0 0 1 .004-13.95ZM414.573-14.286v-13.95M424.07-12.544v-15.98" transform="matrix(1 0 0 -1 7.782 14.8)"/><path style="fill-rule:nonzero;fill:#000;fill-opacity:1;stroke-width:.3985;stroke-linecap:butt;stroke-linejoin:round;stroke:#000;stroke-opacity:1;stroke-miterlimit:10" d="M-1.456 1.113 1.454 0l-2.91-1.114Zm0 0" transform="matrix(0 1 1 0 431.852 43.323)"/><g style="fill:#000;fill-opacity:1"><use xlink:href="#f" x="436.529" y="39.464"/><use xlink:href="#g" x="441.51" y="39.464"/></g><path style="fill:none;stroke-width:.3985;stroke-linecap:butt;stroke-linejoin:miter;stroke:#000;stroke-opacity:1;stroke-miterlimit:10" d="M418.058-77.727v27.894h-6.973v-27.894Zm0 0" transform="matrix(1 0 0 -1 7.782 14.8)"/><g style="fill:#000;fill-opacity:1"><use xlink:href="#f" x="429.555" y="81.984"/><use xlink:href="#h" x="434.536" y="81.984"/></g><path style="fill:none;stroke-width:.3985;stroke-linecap:butt;stroke-linejoin:miter;stroke:#000;stroke-opacity:1;stroke-miterlimit:10" d="M352.636 0h26.41m9.117 0h26.41v-14.087m0-14.347v-21.2m0-28.293v-7.113h-61.937" transform="matrix(1 0 0 -1 7.782 14.8)"/></svg>