<svg xmlns="http://www.w3.org/2000/svg" xmlns:xlink="http://www.w3.org/1999/xlink" width="144.651" height="244.683" viewBox="0 0 108.488 183.512" version="1.2"><defs><symbol overflow="visible" id="a"><path style="stroke:none" d="M5.156-2.219h-.468c-.032.203-.125.844-.266.906-.11.063-.86.063-1.016.063H1.937c.47-.39 1-.813 1.438-1.14 1.14-.844 1.781-1.313 1.781-2.25 0-1.157-1.047-1.891-2.437-1.891-1.219 0-2.156.625-2.156 1.515 0 .594.484.735.718.735C1.61-4.281 2-4.5 2-5c0-.516-.422-.672-.563-.719.282-.234.672-.343 1.032-.343.844 0 1.312.671 1.312 1.421 0 .688-.375 1.375-1.078 2.079l-2 2.046c-.14.11-.14.141-.14.344V0h4.28Zm0 0"/></symbol><symbol overflow="visible" id="b"><path style="stroke:none" d="M5.25-3.281c0-.672 0-3.25-2.375-3.25-1.406 0-2.39.812-2.39 2.14 0 1.375.984 2.125 2.203 2.125.359 0 .828-.062 1.203-.765v.219c0 .734-.094 1.312-.235 1.656-.172.39-.61.843-1.297.843-.171 0-.53-.03-.828-.218.11-.031.485-.172.485-.625 0-.344-.235-.625-.625-.625-.391 0-.625.265-.625.64 0 .688.515 1.25 1.609 1.25C3.672.11 5.25-.734 5.25-3.28Zm-1.375-.985c0 .625-.25 1.641-1.094 1.641-.953 0-.953-.75-.953-1.734 0-.985 0-1.782 1.078-1.782.578 0 .813.532.86.625.109.329.109.907.109 1.25Zm0 0"/></symbol><symbol overflow="visible" id="c"><path style="stroke:none" d="M5.25-1.797c0-.547-.297-1.406-1.734-1.719.687-.203 1.406-.765 1.406-1.625 0-.765-.75-1.39-2.156-1.39-1.188 0-1.97.64-1.97 1.437 0 .422.313.703.688.703a.668.668 0 0 0 .704-.687c0-.578-.547-.688-.579-.703.344-.282.782-.36 1.094-.36.828 0 .86.641.86.97 0 .124-.016 1.437-1.047 1.5-.407.015-.438.015-.485.03-.094.016-.125.11-.125.172 0 .172.11.172.282.172h.437c1.094 0 1.094.985 1.094 1.5 0 .469 0 1.484-1.031 1.484-.266 0-.782-.046-1.266-.343C1.75-.75 2-1 2-1.406c0-.453-.313-.75-.75-.75-.422 0-.766.265-.766.765 0 .907.97 1.5 2.25 1.5 1.782 0 2.516-1 2.516-1.906Zm0 0"/></symbol><symbol overflow="visible" id="d"><path style="stroke:none" d="M5.281-3.188c0-.953-.015-3.343-2.422-3.343C.453-6.531.453-4.156.453-3.188c0 1 0 3.297 2.406 3.297 2.391 0 2.422-2.296 2.422-3.296ZM4-3.296c0 .563 0 1.469-.078 1.985-.14.921-.766 1.062-1.063 1.062-.359 0-.921-.219-1.046-.953-.094-.516-.094-1.547-.094-2.094 0-.719 0-1.375.078-1.89.125-.891.828-.985 1.062-.985.375 0 .782.188.97.625C4-5.172 4-4.109 4-3.297Zm0 0"/></symbol><symbol overflow="visible" id="e"><path style="stroke:none" d="M4.922 0v-.469h-1.39v-5.734c0-.234 0-.328-.266-.328-.11 0-.125 0-.22.078-.765.562-1.796.562-2 .562H.845v.47h.203c.156 0 .703-.016 1.297-.204v5.156H.954V0c.437-.031 1.5-.031 1.984-.031s1.546 0 1.984.031Zm0 0"/></symbol><symbol overflow="visible" id="m"><path style="stroke:none" d="M5.406 0v-.469h-.968v-1.094h.968v-.468h-.968V-6.22c0-.265-.016-.328-.297-.328-.22 0-.22.016-.344.172L.312-2.031v.469h2.876V-.47h-1.11V0c.375-.031 1.281-.031 1.703-.031.406 0 1.266 0 1.625.031Zm-2.11-2.031H.845L3.297-5.11Zm0 0"/></symbol><symbol overflow="visible" id="n"><path style="stroke:none" d="M5.156-2c0-1.156-.797-2.078-2.265-2.078-.282 0-.813.031-1.282.344v-1.313c.282.047.391.078.72.078 1.452 0 2.374-1.125 2.374-1.375 0-.078-.016-.187-.14-.187-.032 0-.032 0-.141.047a4.32 4.32 0 0 1-1.531.28c-.75 0-1.282-.202-1.547-.28-.094-.032-.094-.047-.125-.047-.14 0-.14.11-.14.265v2.922c0 .172 0 .297.218.297.125 0 .156-.031.219-.11.39-.468.921-.562 1.328-.562.89 0 .89.875.89 1.672 0 .735 0 1.735-1.187 1.735-.25 0-.875-.063-1.297-.625.36-.016.656-.266.656-.672 0-.532-.437-.672-.672-.672-.14 0-.671.094-.671.703 0 .844.78 1.687 2.015 1.687C4.172.11 5.156-.78 5.156-2Zm0 0"/></symbol><symbol overflow="visible" id="o"><path style="stroke:none" d="M5.25-2.047c0-1.39-1.016-2.125-2.219-2.125-.219 0-.781 0-1.203.766v-.188c0-1.14.219-1.562.281-1.719.25-.468.782-.828 1.391-.828.172 0 .516.032.75.266a.595.595 0 0 0-.547.61c0 .343.235.624.625.624s.625-.265.625-.64c0-.625-.422-1.25-1.469-1.25-1.359 0-3 .86-3 3.375 0 .781.079 1.578.5 2.265.47.766 1.22 1 1.922 1C4.281.11 5.25-.703 5.25-2.047Zm-1.36-.015c0 1 0 1.75-1.015 1.75-.516 0-.781-.391-.86-.563-.156-.313-.156-1.031-.156-1.219 0-1.25.532-1.719 1.079-1.719.953 0 .953.75.953 1.75Zm0 0"/></symbol><symbol overflow="visible" id="p"><path style="stroke:none" d="M5.563-6.422H3.53c-.234 0-1.703-.047-1.844-.094-.203-.03-.218-.125-.234-.218H.984l-.343 2.53h.468c.094-.765.22-.89.266-.905.11-.063.922-.063 1.094-.063H4.14c-.172.219-.36.422-.547.64-.953 1.126-1.672 2.47-1.672 3.938 0 .703.562.703.625.703.156 0 .625-.046.625-.703v-.469c0-.468.031-.953.094-1.421.093-.672.296-1.25.656-1.657l1.547-1.796c.093-.11.093-.141.093-.485Zm0 0"/></symbol><symbol overflow="visible" id="q"><path style="stroke:none" d="M5.25-1.86c0-1.077-.844-1.546-1.328-1.827.687-.36 1-.797 1-1.376 0-1.015-.906-1.468-2.047-1.468-1.375 0-2.078.797-2.078 1.75 0 .437.187 1.062.953 1.5C.922-2.906.484-2.344.484-1.61.484-.406 1.563.109 2.844.109 4.438.11 5.25-.766 5.25-1.859ZM4.172-5.046c0 .484-.25.813-.688 1.11l-1.5-.844c-.156-.078-.437-.25-.437-.594 0-.703.89-.766 1.297-.766.828 0 1.328.407 1.328 1.094Zm.219 3.734c0 .829-.938 1-1.516 1-.969 0-1.547-.515-1.547-1.296 0-.766.531-1.204.89-1.407l1.36.766c.438.25.813.453.813.938Zm0 0"/></symbol><symbol overflow="visible" id="f"><path style="stroke:none" d="M8.031-.297c0-.172-.172-.172-.328-.172h-.125c-.094 0-.25 0-.328-.015-.125-.016-.125-.032-.156-.172l-.657-6.14c-.03-.266-.062-.298-.359-.298-.219 0-.312 0-.469.25l-3.64 6c-.11.188-.219.36-.938.375-.14 0-.297 0-.297.297 0 0 0 .172.188.172.297 0 .656-.031.969-.031.375 0 .78.031 1.156.031.078 0 .265 0 .265-.297 0-.172-.171-.172-.25-.172 0 0-.359-.015-.593-.094l.797-1.343h2.312l.156 1.39a4.474 4.474 0 0 1-.656.047c-.219 0-.39 0-.39.297 0 0 0 .172.234.172.469 0 .969-.031 1.453-.031.453 0 .922.031 1.375.031.094 0 .281 0 .281-.297Zm-2.5-2.078H3.563l1.671-2.781Zm0 0"/></symbol><symbol overflow="visible" id="g"><path style="stroke:none" d="M5.938-2.906c0-1.188-.829-1.594-1.594-1.594-.61 0-1.078.313-1.313.5-.187-.344-.64-.5-1.031-.5-.469 0-.719.328-.844.531-.265.422-.39.985-.39 1.016 0 .14.125.14.28.14.235 0 .25-.015.313-.265.094-.328.266-1.063.61-1.063.11 0 .187.079.187.297 0 .188-.015.281-.062.438L.922 1.313c-.047.14-.047.156-.36.156-.14 0-.312 0-.312.281 0 .125.094.188.188.188.28 0 .593-.032.89-.032.344 0 .703.032 1.047.032.063 0 .266 0 .266-.297 0-.172-.172-.172-.266-.172-.14 0-.297 0-.438-.016L2.36-.234c.329.28.688.312.907.312 1.671 0 2.671-1.656 2.671-2.984ZM4.421-1.391c-.344.97-.89 1.11-1.156 1.11-.344 0-.625-.219-.735-.61l.594-2.359c.016-.063.016-.094.031-.172C3.578-4 4-4.14 4.312-4.14c.22 0 .563.141.563.704 0 .53-.344 1.765-.453 2.046Zm0 0"/></symbol><symbol overflow="visible" id="h"><path style="stroke:none" d="M5.61-3.625c0-.516-.548-.875-1.266-.875-.39 0-.86.11-1.282.531C2.892-4.28 2.5-4.5 2-4.5c-.469 0-.719.328-.844.531-.265.422-.39.985-.39 1.016 0 .14.125.14.28.14.235 0 .25-.015.313-.265.094-.328.266-1.063.61-1.063.11 0 .187.079.187.297 0 .188-.015.281-.062.438L1.39-.562c-.047.14-.047.156-.047.218 0 .297.234.422.453.422.062 0 .5-.015.625-.531l.672-2.719c.062-.234.515-.969 1.219-.969.109 0 .343 0 .546.157-.468.218-.468.64-.468.671 0 .25.187.47.5.47.375 0 .718-.329.718-.782Zm0 0"/></symbol><symbol overflow="visible" id="i"><path style="stroke:none" d="M3.89-1.469c0-.14-.124-.14-.28-.14-.188 0-.235 0-.282.125-.078.265-.344 1.203-.922 1.203-.047 0-.14 0-.14-.172 0-.14.078-.39.093-.406l.891-2.375c.063-.157.094-.235.094-.391 0-.547-.516-.875-1.047-.875C1.25-4.5.766-3.156.766-2.953c0 .14.125.14.28.14.188 0 .235 0 .282-.124.078-.266.344-1.204.922-1.204.047 0 .125 0 .125.172 0 .125-.063.375-.078.406l-.89 2.36c-.063.172-.095.25-.095.39 0 .563.516.891 1.047.891 1.047 0 1.532-1.344 1.532-1.547Zm.141-4.656a.6.6 0 0 0-.625-.594c-.453 0-.89.422-.89.86 0 .328.25.609.625.609.468 0 .89-.438.89-.875Zm0 0"/></symbol><symbol overflow="visible" id="j"><path style="stroke:none" d="M3.297-1.469c0-.14-.125-.14-.281-.14-.235 0-.25 0-.313.25-.078.328-.265 1.078-.594 1.078-.125 0-.203-.078-.203-.313 0-.187.032-.265.063-.422l1.406-5.562c0-.047.031-.11.031-.156 0-.188-.187-.188-.328-.172l-1.219.062c-.109 0-.312 0-.312.297 0 .172.172.172.266.172.125 0 .296.016.421.031L.954-1.172c-.048.156-.048.219-.048.281 0 .641.594.97 1.156.97.47 0 .72-.345.844-.532.266-.422.39-.984.39-1.016Zm0 0"/></symbol><symbol overflow="visible" id="k"><path style="stroke:none" d="M5.984-1.672c0-.156-.125-.156-.265-.156-.235 0-.25.016-.297.156-.14.422-.547.797-1.188.797-.328 0-.937-.063-1.046-.078a10.877 10.877 0 0 0-1.157-.063c.516-.656 1.172-.984 1.485-1.14 2.03-1.031 2.64-1.656 2.64-2.781 0-1.125-.828-1.657-1.875-1.657-1.562 0-2.593 1.61-2.593 2.39 0 .438.28.75.687.75.86 0 1.39-1.077 1.39-1.53 0-.266-.156-.61-.312-.61-.047 0-.094.032-.125.078-.047.016-.078.079-.078.125 0 .032.031.079.047.11.062.093.11.203.11.312 0 .297-.423 1.157-.985 1.157-.063 0-.188 0-.188-.282 0-.734.86-2.14 2-2.14.375 0 .844.187.844.859 0 .031-.047 1.047-.5 1.656-.469.625-1.078.985-1.531 1.203C1.297-1.594.907-.125.907.031c0 .14.124.14.265.14.219 0 .25 0 .297-.14.156-.547.328-.687.547-.687.343 0 .656.203.968.406.329.203.672.422 1.11.422 1.265 0 1.89-1.578 1.89-1.844Zm0 0"/></symbol><symbol overflow="visible" id="l"><path style="stroke:none" d="M6.344-4.797c0-.734-.188-1.797-1.766-1.797-1.047 0-1.922.532-2.5 1.532-.531.953-.937 2.656-.937 3.468 0 .688.171 1.766 1.765 1.766.672 0 1.516-.219 2.188-1.047.89-1.11 1.25-3.25 1.25-3.922Zm-1.89 3.234c-.11.297-.47 1.375-1.47 1.375-.437 0-.812-.312-.812-.859 0-.64.719-3.687 1.125-4.453.172-.313.64-.734 1.203-.734.516 0 .844.359.844.828 0 .703-.657 3.14-.89 3.843Zm0 0"/></symbol><symbol overflow="visible" id="r"><path style="stroke:none" d="M11.766-6.656c0-.188-.172-.188-.329-.188H9.61c-.234 0-.312.016-.453.235L5.703-1.391l-.828-5.171c-.047-.25-.094-.282-.375-.282H2.578c-.172 0-.344 0-.344.297 0 .172.172.172.313.172h.219c.109 0 .375.016.5.031L1.859-.766c-.03.141-.046.188-.312.25-.11.016-.328.047-.563.047-.171 0-.343 0-.343.297C.64-.14.67 0 .844 0c.36 0 .765-.031 1.14-.031.391 0 .813.031 1.188.031.078 0 .265 0 .265-.297 0-.172-.171-.172-.312-.172-.078 0-.438 0-.688-.094l1.376-5.484.921 5.75c.032.219.079.297.297.297.25 0 .313-.094.407-.25l3.921-5.953.016.016L8-.641c-.047.125-.063.141-.234.157-.125 0-.282.015-.407.015h-.218c-.157 0-.344 0-.344.297 0 .125.11.172.219.172.468 0 .953-.031 1.421-.031.47 0 .97.031 1.454.031.093 0 .28 0 .28-.297 0-.172-.171-.172-.312-.172h-.218c-.094 0-.422-.015-.485-.015l1.406-5.704c.047-.14.047-.156.25-.171l.61-.016c.172 0 .344 0 .344-.281Zm0 0"/></symbol><symbol overflow="visible" id="s"><path style="stroke:none" d="M6.125-1.469c0-.14-.125-.14-.266-.14-.25 0-.25 0-.328.25-.078.328-.25 1.078-.593 1.078-.125 0-.188-.078-.188-.313 0-.187.016-.265.063-.422l.656-2.687c.047-.156.047-.172.047-.219 0-.219-.172-.422-.454-.422-.171 0-.343.094-.468.219-.313-.328-.703-.375-.969-.375C1.953-4.5.953-2.844.953-1.516c0 1.188.844 1.594 1.594 1.594.61 0 1.078-.312 1.328-.5.188.344.625.5 1.016.5.468 0 .718-.344.843-.531.266-.422.391-.984.391-1.016ZM3.75-1c-.438.578-.844.719-1.156.719-.235 0-.563-.14-.563-.703 0-.547.344-1.766.453-2.047.344-.969.891-1.11 1.141-1.11.36 0 .625.22.734.61l-.578 2.36c-.015.062-.015.093-.031.171Zm0 0"/></symbol><symbol overflow="visible" id="t"><path style="stroke:none" d="m4.938.063.953-3.844c.046-.14.046-.172.046-.219 0-.313-.25-.422-.453-.422-.062 0-.5 0-.625.531l-.718 2.86c-.032.11-.079.265-.375.515a1.032 1.032 0 0 1-.625.235c-.5 0-.516-.469-.516-.688 0-.594.328-1.484.578-2.11.094-.25.14-.374.14-.546 0-.547-.515-.875-1.046-.875C1.25-4.5.766-3.156.766-2.953c0 .14.125.14.28.14.188 0 .235 0 .282-.124.078-.266.344-1.204.922-1.204.047 0 .125 0 .125.172 0 .203-.11.516-.172.656-.312.86-.594 1.579-.594 2.141 0 .906.641 1.25 1.47 1.25.405 0 .687-.14.843-.234-.188.89-.813 1.812-1.578 1.812a.923.923 0 0 1-.516-.156c.14-.063.438-.281.438-.656S1.969.39 1.78.39a.734.734 0 0 0-.718.75c0 .53.53.875 1.265.875 1.266 0 2.36-.985 2.61-1.954Zm0 0"/></symbol></defs><g style="fill:green;fill-opacity:1"><use xlink:href="#a" x="18.545" y="9.655"/><use xlink:href="#b" x="24.274" y="9.655"/></g><path style="fill:none;stroke-width:.3985;stroke-linecap:butt;stroke-linejoin:miter;stroke:#000;stroke-opacity:1;stroke-miterlimit:10" d="m-.36-2.302 15.843 11.02" transform="matrix(1 0 0 -1 16.712 9.655)"/><g style="fill:green;fill-opacity:1"><use xlink:href="#c" x="34.027" y="9.655"/><use xlink:href="#d" x="39.756" y="9.655"/></g><path style="fill:none;stroke-width:.3985;stroke-linecap:butt;stroke-linejoin:miter;stroke:#000;stroke-opacity:1;stroke-miterlimit:10" d="m15.124-2.302 15.84 11.02" transform="matrix(1 0 0 -1 16.712 9.655)"/><g style="fill:green;fill-opacity:1"><use xlink:href="#c" x="49.509" y="9.655"/><use xlink:href="#e" x="55.238" y="9.655"/></g><path style="fill:none;stroke-width:.3985;stroke-linecap:butt;stroke-linejoin:miter;stroke:#000;stroke-opacity:1;stroke-miterlimit:10" d="m30.604-2.302 15.844 11.02" transform="matrix(1 0 0 -1 16.712 9.655)"/><use xlink:href="#f" x="29.658" y="32.877" style="fill:#000;fill-opacity:1"/><g style="fill:#000;fill-opacity:1"><use xlink:href="#g" x="37.847" y="32.877"/><use xlink:href="#h" x="43.735" y="32.877"/><use xlink:href="#i" x="48.736" y="32.877"/><use xlink:href="#j" x="52.283" y="32.877"/></g><g style="fill:#000;fill-opacity:1"><use xlink:href="#k" x="59.367" y="32.877"/><use xlink:href="#l" x="65.255" y="32.877"/><use xlink:href="#k" x="71.142" y="32.877"/><use xlink:href="#k" x="77.03" y="32.877"/></g><use xlink:href="#e" x="70.719" y="49.465" style="fill:green;fill-opacity:1"/><path style="fill:none;stroke-width:.3985;stroke-linecap:butt;stroke-linejoin:miter;stroke:#000;stroke-opacity:1;stroke-miterlimit:10" d="M51.815-42.001 61.93-31.095" transform="matrix(1 0 0 -1 16.712 9.655)"/><use xlink:href="#a" x="86.201" y="49.465" style="fill:green;fill-opacity:1"/><path style="fill:none;stroke-width:.3985;stroke-linecap:butt;stroke-linejoin:miter;stroke:#000;stroke-opacity:1;stroke-miterlimit:10" d="m67.3-42.001 10.11 10.906" transform="matrix(1 0 0 -1 16.712 9.655)"/><use xlink:href="#c" x="101.683" y="49.465" style="fill:gray;fill-opacity:1"/><use xlink:href="#m" x="8.792" y="62.736" style="fill:green;fill-opacity:1"/><path style="fill:none;stroke-width:.3985;stroke-linecap:butt;stroke-linejoin:miter;stroke:#000;stroke-opacity:1;stroke-miterlimit:10" d="M-10.11-55.275-.001-44.353" transform="matrix(1 0 0 -1 16.712 9.655)"/><use xlink:href="#n" x="24.273" y="62.736" style="fill:green;fill-opacity:1"/><path style="fill:none;stroke-width:.3985;stroke-linecap:butt;stroke-linejoin:miter;stroke:#000;stroke-opacity:1;stroke-miterlimit:10" d="m5.37-55.384 10.113 11.02" transform="matrix(1 0 0 -1 16.712 9.655)"/><use xlink:href="#o" x="39.755" y="62.736" style="fill:green;fill-opacity:1"/><path style="fill:none;stroke-width:.3985;stroke-linecap:butt;stroke-linejoin:miter;stroke:#000;stroke-opacity:1;stroke-miterlimit:10" d="m20.85-55.384 10.114 11.02" transform="matrix(1 0 0 -1 16.712 9.655)"/><use xlink:href="#p" x="55.237" y="62.736" style="fill:green;fill-opacity:1"/><path style="fill:none;stroke-width:.3985;stroke-linecap:butt;stroke-linejoin:miter;stroke:#000;stroke-opacity:1;stroke-miterlimit:10" d="m36.335-55.384 10.113 11.23" transform="matrix(1 0 0 -1 16.712 9.655)"/><use xlink:href="#q" x="70.719" y="62.736" style="fill:green;fill-opacity:1"/><path style="fill:none;stroke-width:.3985;stroke-linecap:butt;stroke-linejoin:miter;stroke:#000;stroke-opacity:1;stroke-miterlimit:10" d="m51.815-55.384 10.114 11.02" transform="matrix(1 0 0 -1 16.712 9.655)"/><use xlink:href="#b" x="86.201" y="62.736" style="fill:green;fill-opacity:1"/><path style="fill:none;stroke-width:.3985;stroke-linecap:butt;stroke-linejoin:miter;stroke:#000;stroke-opacity:1;stroke-miterlimit:10" d="m67.3-55.384 10.11 11.02" transform="matrix(1 0 0 -1 16.712 9.655)"/><g style="fill:gray;fill-opacity:1"><use xlink:href="#e" x="95.955" y="62.736"/><use xlink:href="#d" x="101.684" y="62.736"/></g><g style="fill:green;fill-opacity:1"><use xlink:href="#e" x="3.063" y="76.006"/><use xlink:href="#e" x="8.792" y="76.006"/></g><path style="fill:none;stroke-width:.3985;stroke-linecap:butt;stroke-linejoin:miter;stroke:#000;stroke-opacity:1;stroke-miterlimit:10" d="m-15.84-68.544 15.839 10.91" transform="matrix(1 0 0 -1 16.712 9.655)"/><g style="fill:green;fill-opacity:1"><use xlink:href="#e" x="18.545" y="76.006"/><use xlink:href="#a" x="24.274" y="76.006"/></g><path style="fill:none;stroke-width:.3985;stroke-linecap:butt;stroke-linejoin:miter;stroke:#000;stroke-opacity:1;stroke-miterlimit:10" d="m-.36-68.544 15.843 10.91" transform="matrix(1 0 0 -1 16.712 9.655)"/><g style="fill:green;fill-opacity:1"><use xlink:href="#e" x="34.027" y="76.006"/><use xlink:href="#c" x="39.756" y="76.006"/></g><path style="fill:none;stroke-width:.3985;stroke-linecap:butt;stroke-linejoin:miter;stroke:#000;stroke-opacity:1;stroke-miterlimit:10" d="m15.124-68.654 15.84 11.02" transform="matrix(1 0 0 -1 16.712 9.655)"/><g style="fill:green;fill-opacity:1"><use xlink:href="#e" x="49.509" y="76.006"/><use xlink:href="#m" x="55.238" y="76.006"/></g><path style="fill:none;stroke-width:.3985;stroke-linecap:butt;stroke-linejoin:miter;stroke:#000;stroke-opacity:1;stroke-miterlimit:10" d="m30.604-68.544 15.844 10.918" transform="matrix(1 0 0 -1 16.712 9.655)"/><g style="fill:green;fill-opacity:1"><use xlink:href="#e" x="64.991" y="76.006"/><use xlink:href="#n" x="70.72" y="76.006"/></g><path style="fill:none;stroke-width:.3985;stroke-linecap:butt;stroke-linejoin:miter;stroke:#000;stroke-opacity:1;stroke-miterlimit:10" d="m46.089-68.654 15.84 11.02" transform="matrix(1 0 0 -1 16.712 9.655)"/><g style="fill:green;fill-opacity:1"><use xlink:href="#e" x="80.473" y="76.006"/><use xlink:href="#o" x="86.202" y="76.006"/></g><path style="fill:none;stroke-width:.3985;stroke-linecap:butt;stroke-linejoin:miter;stroke:#000;stroke-opacity:1;stroke-miterlimit:10" d="m61.57-68.654 15.84 11.02" transform="matrix(1 0 0 -1 16.712 9.655)"/><g style="fill:gray;fill-opacity:1"><use xlink:href="#e" x="95.955" y="76.006"/><use xlink:href="#p" x="101.684" y="76.006"/></g><g style="fill:green;fill-opacity:1"><use xlink:href="#e" x="3.063" y="89.276"/><use xlink:href="#q" x="8.792" y="89.276"/></g><path style="fill:none;stroke-width:.3985;stroke-linecap:butt;stroke-linejoin:miter;stroke:#000;stroke-opacity:1;stroke-miterlimit:10" d="m-15.84-81.923 15.839 11.02" transform="matrix(1 0 0 -1 16.712 9.655)"/><g style="fill:green;fill-opacity:1"><use xlink:href="#e" x="18.545" y="89.276"/><use xlink:href="#b" x="24.274" y="89.276"/></g><path style="fill:none;stroke-width:.3985;stroke-linecap:butt;stroke-linejoin:miter;stroke:#000;stroke-opacity:1;stroke-miterlimit:10" d="m-.36-81.923 15.843 11.02" transform="matrix(1 0 0 -1 16.712 9.655)"/><g style="fill:green;fill-opacity:1"><use xlink:href="#a" x="34.027" y="89.276"/><use xlink:href="#d" x="39.756" y="89.276"/></g><path style="fill:none;stroke-width:.3985;stroke-linecap:butt;stroke-linejoin:miter;stroke:#000;stroke-opacity:1;stroke-miterlimit:10" d="m15.124-81.923 15.84 11.02" transform="matrix(1 0 0 -1 16.712 9.655)"/><g style="fill:green;fill-opacity:1"><use xlink:href="#a" x="49.509" y="89.276"/><use xlink:href="#e" x="55.238" y="89.276"/></g><path style="fill:none;stroke-width:.3985;stroke-linecap:butt;stroke-linejoin:miter;stroke:#000;stroke-opacity:1;stroke-miterlimit:10" d="m30.604-81.814 15.844 10.91" transform="matrix(1 0 0 -1 16.712 9.655)"/><g style="fill:green;fill-opacity:1"><use xlink:href="#a" x="64.991" y="89.276"/><use xlink:href="#a" x="70.72" y="89.276"/></g><path style="fill:none;stroke-width:.3985;stroke-linecap:butt;stroke-linejoin:miter;stroke:#000;stroke-opacity:1;stroke-miterlimit:10" d="m46.089-81.814 15.84 10.91" transform="matrix(1 0 0 -1 16.712 9.655)"/><g style="fill:green;fill-opacity:1"><use xlink:href="#a" x="80.473" y="89.276"/><use xlink:href="#c" x="86.202" y="89.276"/></g><g style="fill:gray;fill-opacity:1"><use xlink:href="#a" x="95.955" y="89.276"/><use xlink:href="#m" x="101.684" y="89.276"/></g><g style="fill:green;fill-opacity:1"><use xlink:href="#a" x="3.063" y="102.546"/><use xlink:href="#n" x="8.792" y="102.546"/></g><g style="fill:green;fill-opacity:1"><use xlink:href="#a" x="18.545" y="102.546"/><use xlink:href="#o" x="24.274" y="102.546"/></g><g style="fill:green;fill-opacity:1"><use xlink:href="#a" x="34.027" y="102.546"/><use xlink:href="#p" x="39.756" y="102.546"/></g><g style="fill:green;fill-opacity:1"><use xlink:href="#a" x="49.509" y="102.546"/><use xlink:href="#q" x="55.238" y="102.546"/></g><g style="fill:green;fill-opacity:1"><use xlink:href="#a" x="64.991" y="102.546"/><use xlink:href="#b" x="70.72" y="102.546"/></g><g style="fill:green;fill-opacity:1"><use xlink:href="#c" x="80.473" y="102.546"/><use xlink:href="#d" x="86.202" y="102.546"/></g><g style="fill:#000;fill-opacity:1"><use xlink:href="#r" x="31.362" y="125.769"/><use xlink:href="#s" x="42.052" y="125.769"/><use xlink:href="#t" x="47.94" y="125.769"/></g><g style="fill:#000;fill-opacity:1"><use xlink:href="#k" x="57.663" y="125.769"/><use xlink:href="#l" x="63.551" y="125.769"/><use xlink:href="#k" x="69.439" y="125.769"/><use xlink:href="#k" x="75.327" y="125.769"/></g><use xlink:href="#e" x="101.683" y="142.357" style="fill:gray;fill-opacity:1"/><use xlink:href="#a" x="8.792" y="155.627" style="fill:red;fill-opacity:1"/><use xlink:href="#c" x="24.273" y="155.627" style="fill:red;fill-opacity:1"/><use xlink:href="#m" x="39.755" y="155.627" style="fill:#000;fill-opacity:1"/><use xlink:href="#n" x="55.237" y="155.627" style="fill:#000;fill-opacity:1"/><use xlink:href="#o" x="70.719" y="155.627" style="fill:#000;fill-opacity:1"/><use xlink:href="#p" x="86.201" y="155.627" style="fill:#000;fill-opacity:1"/><use xlink:href="#q" x="101.683" y="155.627" style="fill:gray;fill-opacity:1"/><use xlink:href="#b" x="8.792" y="168.897" style="fill:#000;fill-opacity:1"/><g style="fill:#000;fill-opacity:1"><use xlink:href="#e" x="18.545" y="168.897"/><use xlink:href="#d" x="24.274" y="168.897"/></g><g style="fill:#000;fill-opacity:1"><use xlink:href="#e" x="34.027" y="168.897"/><use xlink:href="#e" x="39.756" y="168.897"/></g><g style="fill:#000;fill-opacity:1"><use xlink:href="#e" x="49.509" y="168.897"/><use xlink:href="#a" x="55.238" y="168.897"/></g><g style="fill:#000;fill-opacity:1"><use xlink:href="#e" x="64.991" y="168.897"/><use xlink:href="#c" x="70.72" y="168.897"/></g><g style="fill:#000;fill-opacity:1"><use xlink:href="#e" x="80.473" y="168.897"/><use xlink:href="#m" x="86.202" y="168.897"/></g><g style="fill:gray;fill-opacity:1"><use xlink:href="#e" x="95.955" y="168.897"/><use xlink:href="#n" x="101.684" y="168.897"/></g><g style="fill:#000;fill-opacity:1"><use xlink:href="#e" x="3.063" y="182.168"/><use xlink:href="#o" x="8.792" y="182.168"/></g><g style="fill:#000;fill-opacity:1"><use xlink:href="#e" x="18.545" y="182.168"/><use xlink:href="#p" x="24.274" y="182.168"/></g><g style="fill:#000;fill-opacity:1"><use xlink:href="#e" x="34.027" y="182.168"/><use xlink:href="#q" x="39.756" y="182.168"/></g></svg>