<svg xmlns="http://www.w3.org/2000/svg" xmlns:xlink="http://www.w3.org/1999/xlink" width="21.531" height="12.003" viewBox="0 0 16.148 9.002" version="1.2"><defs><symbol overflow="visible" id="a"><path style="stroke:none" d="M2.938-6.375c0-.25 0-.266-.235-.266C2.078-6 1.203-6 .891-6v.313c.203 0 .78 0 1.296-.266v5.172c0 .36-.03.469-.921.469H.953V0c.344-.031 1.203-.031 1.61-.031.39 0 1.265 0 1.609.031v-.313h-.313c-.906 0-.921-.109-.921-.468Zm0 0"/></symbol><symbol overflow="visible" id="b"><path style="stroke:none" d="M9.063-5.828c.171-.578.609-.672 1-.672v-.313c-.297.032-.61.032-.907.032-.297 0-.937-.016-1.187-.032v.313c.672.016.86.344.86.531 0 .063-.032.14-.048.203l-1.5 4.594-1.593-4.875c0-.047-.032-.11-.032-.156 0-.297.578-.297.844-.297v-.313c-.36.032-1.031.032-1.422.032-.375 0-.797-.016-1.203-.032v.313c.563 0 .766 0 .89.36l.22.702-1.391 4.266L2-6.078c-.016-.016-.031-.094-.031-.125 0-.297.578-.297.843-.297v-.313c-.359.032-1.03.032-1.421.032-.375 0-.797-.016-1.22-.032v.313c.75 0 .798.047.923.422L3.078.032c.031.093.063.187.188.187.14 0 .156-.063.203-.203l1.64-5.063L6.766.031c.03.094.062.188.187.188.14 0 .172-.063.203-.203Zm0 0"/></symbol></defs><g style="fill:#000;fill-opacity:1"><use xlink:href="#a" x="-.29" y="7.29"/><use xlink:href="#b" x="4.691" y="7.29"/></g></svg>