<svg xmlns="http://www.w3.org/2000/svg" width="121.597" height="91.19pt" viewBox="0 0 91.198 91.19" version="1.2"><defs><clipPath id="a"><path d="M0 80h11v10.785H0Zm0 0"/></clipPath><clipPath id="b"><path d="M81 0h9.797v10H81Zm0 0"/></clipPath></defs><path style="fill:none;stroke-width:.19925;stroke-linecap:butt;stroke-linejoin:miter;stroke:#ff8080;stroke-opacity:1;stroke-miterlimit:10" d="M1.416 7.085v42.52M2.834 7.085v42.52M4.252 7.085v42.52M5.67 7.085v42.52M7.088 7.085v42.52M8.502 7.085v42.52M9.92 7.085v42.52M11.338 7.085v42.52M12.756 7.085v42.52M15.592 7.085v42.52M17.006 7.085v42.52M18.424 7.085v42.52M19.842 7.085v42.52M21.26 7.085v42.52M22.678 7.085v42.52M24.096 7.085v42.52M25.514 7.085v42.52M26.928 7.085v42.52M29.764 7.085v42.52M31.182 7.085v42.52M32.6 7.085v42.52M34.018 7.085v42.52M35.432 7.085v42.52M36.85 7.085v42.52M38.268 7.085v42.52M39.686 7.085v42.52M41.104 7.085v42.52M43.936 7.085v42.52M45.354 7.085v42.52M46.772 7.085v42.52M48.19 7.085v42.52M49.608 7.085v42.52M51.026 7.085v42.52M52.44 7.085v42.52M53.858 7.085v42.52M55.276 7.085v42.52M58.112 7.085v42.52M59.53 7.085v42.52M60.944 7.085v42.52M62.362 7.085v42.52M63.78 7.085v42.52M65.198 7.085v42.52M66.615 7.085v42.52M68.033 7.085v42.52M69.448 7.085v42.52M72.283 7.085v42.52M73.701 7.085v42.52M75.12 7.085v42.52M76.537 7.085v42.52M77.951 7.085v42.52M79.37 7.085v42.52M80.787 7.085v42.52M82.205 7.085v42.52M83.623 7.085v42.52" transform="matrix(1 0 0 -1 3.197 87.187)"/><path style="fill:none;stroke-width:.3985;stroke-linecap:butt;stroke-linejoin:miter;stroke:#bfbfbf;stroke-opacity:1;stroke-miterlimit:10" d="M-.002 0v85.039M14.174 0v85.039M28.346 0v85.039M42.522 0v85.039M56.694 0v85.039M70.865 0v85.039M85.041 0v85.039" transform="matrix(1 0 0 -1 3.197 87.187)"/><path style="fill:none;stroke-width:.3985;stroke-linecap:butt;stroke-linejoin:miter;stroke:#000;stroke-opacity:1;stroke-miterlimit:10" d="M-.002 0h84.645" transform="matrix(1 0 0 -1 3.197 87.187)"/><path style="fill:none;stroke-width:.3985;stroke-linecap:round;stroke-linejoin:round;stroke:#000;stroke-opacity:1;stroke-miterlimit:10" d="M-2.073 2.39C-1.694.957-.85.28.001 0-.85-.279-1.694-.959-2.073-2.392" transform="matrix(1 0 0 -1 88.038 87.187)"/><path style="fill:none;stroke-width:.3985;stroke-linecap:butt;stroke-linejoin:miter;stroke:#000;stroke-opacity:1;stroke-miterlimit:10" d="M-.002 0v84.64" transform="matrix(1 0 0 -1 3.197 87.187)"/><path style="fill:none;stroke-width:.3985;stroke-linecap:round;stroke-linejoin:round;stroke:#000;stroke-opacity:1;stroke-miterlimit:10" d="M-2.072 2.392C-1.692.955-.849.28-.002.002c-.847-.282-1.69-.957-2.07-2.395" transform="matrix(0 -1 -1 0 3.197 2.346)"/><g clip-path="url(#a)"><path style="fill:none;stroke-width:.3985;stroke-linecap:butt;stroke-linejoin:miter;stroke:#000;stroke-opacity:1;stroke-miterlimit:10" d="m-1.408-1.41 2.816 2.82m-2.816 0 2.816-2.82" transform="matrix(1 0 0 -1 3.197 87.187)"/></g><g clip-path="url(#b)"><path style="fill:none;stroke-width:.3985;stroke-linecap:butt;stroke-linejoin:miter;stroke:#000;stroke-opacity:1;stroke-miterlimit:10" d="m83.631 83.632 2.817 2.817m-2.817 0 2.817-2.817" transform="matrix(1 0 0 -1 3.197 87.187)"/></g></svg>