<svg xmlns="http://www.w3.org/2000/svg" width="156.663" height="154.131" viewBox="0 0 117.497 115.598" version="1.2"><path style="fill:none;stroke-width:.19925;stroke-linecap:butt;stroke-linejoin:miter;stroke:gray;stroke-opacity:1;stroke-miterlimit:10" d="M.002-.001h113.387M.002 28.347h113.387M.002 56.694h113.387M.002 85.042h113.387M.002 113.378h113.387M.002-.002v113.388M28.346-.001v113.387M56.693-.001v113.387M85.041-.001v113.387M113.377-.001v113.387" transform="matrix(1 0 0 -1 .858 114.284)"/><path style="stroke:none;fill-rule:nonzero;fill:#000;fill-opacity:1" d="M59.543 57.59a1.99 1.99 0 0 0-1.992-1.992 1.99 1.99 0 0 0-1.992 1.992 1.99 1.99 0 0 0 1.992 1.992 1.99 1.99 0 0 0 1.992-1.992Zm0 0"/><path style="stroke:none;fill-rule:nonzero;fill:#000;fill-opacity:1" d="M62.816 56.234a1.99 1.99 0 0 0-1.992-1.992 1.99 1.99 0 0 0-1.992 1.992 1.99 1.99 0 0 0 1.992 1.993 1.99 1.99 0 0 0 1.992-1.993Zm0 0"/><path style="stroke:none;fill-rule:nonzero;fill:#000;fill-opacity:1" d="M64.555 52.578a1.993 1.993 0 1 0-3.986.002 1.993 1.993 0 0 0 3.986-.002ZM63.613 47.77a1.994 1.994 0 0 0-3.988 0 1.994 1.994 0 0 0 3.988 0ZM59.543 43.418a1.99 1.99 0 0 0-1.992-1.992 1.993 1.993 0 1 0 1.992 1.992ZM52.766 41.223a1.994 1.994 0 0 0-3.988 0 1.994 1.994 0 0 0 3.988 0ZM44.512 42.559a1.994 1.994 0 0 0-3.988 0c0 1.097.894 1.992 1.996 1.992a1.996 1.996 0 0 0 1.992-1.992ZM36.629 48.098a1.993 1.993 0 1 0-3.986.001 1.993 1.993 0 0 0 3.986-.001ZM31.195 57.59a1.993 1.993 0 1 0-3.983.002 1.993 1.993 0 0 0 3.983-.002ZM30.082 69.793a1.99 1.99 0 0 0-1.992-1.992 1.99 1.99 0 0 0-1.992 1.992 1.99 1.99 0 0 0 1.992 1.992 1.99 1.99 0 0 0 1.992-1.992ZM34.488 82.645a1.993 1.993 0 1 0-3.986.001 1.993 1.993 0 0 0 3.986-.001ZM44.629 93.598a1.993 1.993 0 1 0-3.986.001 1.993 1.993 0 0 0 3.986-.001ZM59.543 100.11a1.993 1.993 0 1 0-3.986.001 1.993 1.993 0 0 0 3.986-.002ZM77.172 100.145a1.996 1.996 0 0 0-1.992-1.993 1.996 1.996 0 0 0-1.996 1.993 1.994 1.994 0 0 0 3.988 0ZM94.621 92.668a1.99 1.99 0 0 0-1.992-1.992 1.99 1.99 0 0 0-1.992 1.992 1.99 1.99 0 0 0 1.992 1.992 1.99 1.99 0 0 0 1.992-1.992ZM108.645 77.93a1.993 1.993 0 1 0-3.983.002 1.993 1.993 0 0 0 3.983-.002ZM116.238 57.59a1.993 1.993 0 1 0-3.986.001 1.993 1.993 0 0 0 3.986-.001Zm0 0"/></svg>