<svg xmlns="http://www.w3.org/2000/svg" xmlns:xlink="http://www.w3.org/1999/xlink" width="500.235" height="141.771" viewBox="0 0 375.176 106.328" version="1.2"><defs><symbol overflow="visible" id="a"><path style="stroke:none" d="M3.89-2.547c0-.844-.078-1.36-.343-1.875-.344-.703-1-.875-1.438-.875-1 0-1.375.75-1.484.969C.344-3.75.328-2.953.328-2.547c0 .531.016 1.328.406 1.969.36.594.954.75 1.375.75.391 0 1.063-.125 1.47-.906.296-.579.312-1.297.312-1.813ZM2.11-.062c-.266 0-.813-.126-.985-.954-.094-.453-.094-1.203-.094-1.625 0-.546 0-1.109.094-1.546.172-.813.781-.891.984-.891.266 0 .829.14.985.86.094.437.094 1.046.094 1.577 0 .47 0 1.188-.094 1.641-.172.828-.719.938-.985.938Zm0 0"/></symbol><symbol overflow="visible" id="b"><path style="stroke:none" d="M2.25-1.625c.125-.125.453-.39.594-.5.484-.453.953-.89.953-1.61 0-.953-.797-1.562-1.781-1.562-.97 0-1.594.719-1.594 1.438 0 .39.312.437.422.437.172 0 .422-.11.422-.422 0-.406-.407-.406-.5-.406.234-.594.765-.781 1.156-.781.734 0 1.125.625 1.125 1.297 0 .828-.578 1.437-1.531 2.39l-1 1.047C.422-.219.422-.203.422 0h3.14l.235-1.422h-.25c-.016.156-.078.547-.172.703-.047.063-.656.063-.781.063H1.172Zm0 0"/></symbol><symbol overflow="visible" id="c"><path style="stroke:none" d="M3.14-5.156c0-.157 0-.219-.171-.219-.094 0-.11 0-.188.11L.234-1.564v.25h2.25v.672c0 .297-.015.375-.64.375h-.172V0c.672-.031.687-.031 1.14-.031.454 0 .47 0 1.141.031v-.266h-.172c-.625 0-.64-.078-.64-.375v-.671h.843v-.25h-.843Zm-.593.64v2.954H.516Zm0 0"/></symbol><symbol overflow="visible" id="d"><path style="stroke:none" d="M1.094-2.64c0-.657.062-1.235.343-1.72.25-.406.657-.734 1.157-.734.156 0 .515.032.703.297-.36.031-.39.297-.39.375 0 .25.187.375.374.375.14 0 .375-.078.375-.39 0-.47-.36-.86-1.078-.86C1.468-5.297.344-4.25.344-2.53.344-.36 1.359.172 2.125.172c.39 0 .797-.11 1.156-.453.328-.313.594-.64.594-1.344 0-1.031-.797-1.766-1.672-1.766-.578 0-.922.36-1.11.75ZM2.125-.079a.88.88 0 0 1-.797-.516c-.187-.36-.203-.89-.203-1.203 0-.781.422-1.375 1.047-1.375.39 0 .64.203.781.485.172.296.172.656.172 1.062s0 .75-.156 1.047c-.219.36-.485.5-.844.5Zm0 0"/></symbol><symbol overflow="visible" id="e"><path style="stroke:none" d="M2.64-2.875c.454-.219 1-.61 1-1.234 0-.766-.78-1.188-1.515-1.188-.844 0-1.531.578-1.531 1.328 0 .297.094.563.297.797.14.172.171.188.656.5C.563-2.234.344-1.656.344-1.219c0 .89.89 1.39 1.765 1.39.97 0 1.766-.671 1.766-1.515 0-.5-.266-.828-.406-.968-.125-.126-.14-.141-.828-.563Zm-1.234-.75c-.234-.14-.422-.375-.422-.64 0-.5.547-.829 1.125-.829.61 0 1.125.422 1.125.985 0 .453-.359.843-.828 1.078Zm.39 1.094c.032.015.938.578 1.079.656.125.078.547.328.547.813 0 .609-.656.984-1.297.984-.719 0-1.313-.484-1.313-1.14 0-.595.438-1.063.985-1.313Zm0 0"/></symbol><symbol overflow="visible" id="f"><path style="stroke:none" d="M2.5-5.078c0-.219-.016-.219-.234-.219-.329.313-.75.5-1.5.5v.266c.218 0 .64 0 1.109-.203v4.078c0 .297-.031.39-.781.39H.812V0c.329-.031 1.016-.031 1.375-.031.36 0 1.047 0 1.376.031v-.266H3.28c-.75 0-.781-.093-.781-.39Zm0 0"/></symbol><symbol overflow="visible" id="h"><path style="stroke:none" d="M1.11-4.484c.109.03.421.125.765.125 1 0 1.594-.704 1.594-.829 0-.093-.047-.109-.094-.109-.016 0-.031 0-.094.031a2.982 2.982 0 0 1-1.11.22c-.468 0-.858-.11-1.108-.22-.079-.03-.094-.03-.11-.03-.094 0-.094.077-.094.234v2.328c0 .14 0 .234.125.234.063 0 .079-.031.125-.094.094-.11.391-.515 1.079-.515.437 0 .656.359.734.515.125.281.14.656.14.953 0 .297 0 .735-.218 1.079-.156.25-.485.484-.906.484A1.271 1.271 0 0 1 .734-.922c.016.016.079.016.079.016.218 0 .406-.14.406-.39a.388.388 0 0 0-.39-.407c-.157 0-.407.078-.407.422 0 .718.625 1.453 1.531 1.453 1 0 1.844-.781 1.844-1.766 0-.922-.672-1.75-1.61-1.75-.39 0-.765.125-1.078.406Zm0 0"/></symbol><symbol overflow="visible" id="i"><path style="stroke:none" d="M2.016-2.656c.625 0 1.03.453 1.03 1.297 0 1-.562 1.28-.983 1.28-.438 0-1.047-.155-1.329-.577.297 0 .5-.188.5-.438 0-.265-.187-.437-.453-.437-.203 0-.437.125-.437.453 0 .75.812 1.25 1.734 1.25 1.047 0 1.797-.734 1.797-1.531 0-.672-.531-1.266-1.344-1.454.625-.218 1.11-.75 1.11-1.39 0-.64-.72-1.094-1.547-1.094-.86 0-1.5.453-1.5 1.063 0 .296.187.421.406.421.25 0 .406-.171.406-.406 0-.297-.265-.406-.437-.406.344-.438.953-.469 1.094-.469.203 0 .812.063.812.89 0 .548-.234.891-.344 1.016-.234.25-.422.266-.906.297-.156 0-.219.016-.219.125 0 .11.078.11.219.11Zm0 0"/></symbol><symbol overflow="visible" id="j"><path style="stroke:none" d="M4.031-4.86c.078-.077.078-.093.078-.265H2.08a8.79 8.79 0 0 1-.642-.031c-.421-.032-.421-.11-.453-.235h-.25L.47-3.703h.25c.015-.125.11-.672.219-.735.078-.046.687-.046.796-.046h1.688l-.813 1.109C1.703-2.172 1.5-.906 1.5-.281c0 .078 0 .453.375.453s.375-.36.375-.453v-.39c0-1.141.203-2.079.594-2.61Zm0 0"/></symbol><symbol overflow="visible" id="l"><path style="stroke:none" d="M3.125-2.344c0 1.938-.922 2.266-1.39 2.266-.173 0-.579-.016-.798-.266.36-.031.375-.297.375-.375a.37.37 0 0 0-.375-.375.37.37 0 0 0-.375.39c0 .548.454.876 1.188.876 1.094 0 2.125-1.094 2.125-2.797 0-2.063-.922-2.672-1.734-2.672-.954 0-1.797.734-1.797 1.781 0 1.016.781 1.766 1.687 1.766.563 0 .906-.36 1.094-.766Zm-1.063.375c-.374 0-.609-.172-.78-.468-.188-.282-.188-.672-.188-1.079 0-.468 0-.796.218-1.125.204-.296.454-.453.829-.453.53 0 .765.532.796.563.157.39.172 1.015.172 1.172 0 .64-.343 1.39-1.046 1.39Zm0 0"/></symbol><symbol overflow="visible" id="g"><path style="stroke:none" d="M4.719-1.922c0-1.016-.766-2.016-1.953-2.016-.329 0-.72.063-1.094.235v-1.64h2.25c.172 0 .469-.016.469-.376s-.282-.375-.47-.375H1.314c-.391 0-.47.11-.47.485v2.578c0 .203.016.484.391.484.22 0 .266-.062.344-.187.25-.282.64-.454 1.172-.454.75 0 1.156.672 1.156 1.266 0 .734-.656 1.281-1.437 1.281-.235 0-.797-.062-1.063-.53.047-.048.11-.141.11-.313A.51.51 0 0 0 1-2c-.156 0-.5.094-.5.547C.5-.625 1.328.109 2.469.109c1.265 0 2.25-.921 2.25-2.03Zm0 0"/></symbol><symbol overflow="visible" id="k"><path style="stroke:none" d="M4.813-1.766c0-.671-.422-1.25-1.032-1.562.5-.375.75-.906.75-1.422 0-.75-.75-1.453-1.906-1.453-1.234 0-1.922.516-1.922 1.219 0 .375.281.53.516.53.234 0 .5-.187.5-.515a.533.533 0 0 0-.063-.25c.297-.234.89-.234.969-.234.61 0 1.078.312 1.078.703 0 .281-.14.594-.39.797-.297.234-.516.281-.844.281-.64 0-.781.078-.781.39 0 .376.28.376.468.376h.453c.907 0 1.375.61 1.375 1.14 0 .563-.53 1.125-1.359 1.125-.36 0-1.016-.093-1.297-.468.063-.063.11-.157.11-.313a.51.51 0 0 0-.516-.516c-.25 0-.5.172-.5.547 0 .891.969 1.5 2.203 1.5 1.328 0 2.188-.937 2.188-1.875Zm0 0"/></symbol><symbol overflow="visible" id="m"><path style="stroke:none" d="M4.438-.375c0-.36-.266-.375-.454-.375h-.812v-4.969c0-.187-.016-.484-.375-.484-.219 0-.297.14-.36.281-.343.781-.828.89-.984.906-.203.016-.437.047-.437.375 0 .313.203.375.39.375.172 0 .532-.046.938-.343V-.75H1.53c-.187 0-.468.016-.468.375 0 .36.296.375.468.375h2.453c.172 0 .454-.016.454-.375Zm0 0"/></symbol><symbol overflow="visible" id="n"><path style="stroke:none" d="M4.75-3.047c0-1.86-1.047-3.156-2.14-3.156C1.5-6.203.483-4.875.483-3.047.484-1.187 1.516.11 2.61.11 3.734.11 4.75-1.219 4.75-3.047Zm-.828-.11c0 1.391-.578 2.516-1.313 2.516-.718 0-1.312-1.125-1.312-2.515 0-1.36.625-2.297 1.312-2.297.688 0 1.313.937 1.313 2.297Zm0 0"/></symbol><symbol overflow="visible" id="o"><path style="stroke:none" d="M5.188-.375c0-.36-.282-.375-.47-.375-.28 0-.421-.031-.5-.063v-2.03c0-.72-.546-1.579-2-1.579-.437 0-1.484.031-1.484.781 0 .344.25.516.516.516.172 0 .5-.094.5-.531 0 0 .328-.016.484-.016.657 0 1.125.25 1.157.828-1.72.047-2.907.578-2.907 1.516 0 .703.625 1.39 1.672 1.39.36 0 .938-.078 1.406-.359.25.281.688.297 1.063.297.328 0 .563-.016.563-.375Zm-1.813-1c0 .188 0 .375-.328.531-.328.156-.75.156-.828.156-.547 0-.922-.296-.922-.64 0-.438.781-.734 2.078-.781Zm0 0"/></symbol><symbol overflow="visible" id="p"><path style="stroke:none" d="M4.89-2.172c0-1.25-.906-2.219-1.984-2.219-.422 0-.828.141-1.156.375v-1.593c0-.36-.063-.485-.469-.485H.578c-.187 0-.484.016-.484.375 0 .36.312.375.469.375h.359v4.86c0 .25.015.484.422.484.312 0 .39-.14.406-.344.375.328.766.406 1.047.406C3.89.063 4.89-.89 4.89-2.171Zm-.827 0c0 .875-.641 1.485-1.282 1.485-.703 0-1.015-.813-1.015-1.25v-.704c0-.546.53-1.015 1.093-1.015.672 0 1.204.687 1.204 1.484Zm0 0"/></symbol><symbol overflow="visible" id="q"><path style="stroke:none" d="M4.688-2.172c0-1.265-.954-2.25-2.079-2.25-1.125 0-2.078.984-2.078 2.25C.531-.89 1.5.063 2.61.063c1.11 0 2.079-.97 2.079-2.235Zm-.829-.078c0 .86-.562 1.563-1.25 1.563-.671 0-1.25-.704-1.25-1.563 0-.828.61-1.422 1.25-1.422.657 0 1.25.594 1.25 1.422Zm0 0"/></symbol><symbol overflow="visible" id="r"><path style="stroke:none" d="M5.11-.375c0-.36-.298-.375-.454-.375h-.36v-3.125c0-.36-.077-.469-.468-.469h-.703c-.188 0-.484.016-.484.375 0 .36.296.375.468.375h.36v1.985c0 .812-.735.921-1.031.921-.672 0-.688-.28-.688-.562v-2.625c0-.36-.063-.469-.469-.469H.578c-.187 0-.469.016-.469.375 0 .36.297.375.454.375h.359v2.406c0 .985.719 1.25 1.469 1.25.375 0 .75-.093 1.093-.312.063.234.266.25.454.25h.703c.187 0 .468-.016.468-.375Zm0 0"/></symbol><symbol overflow="visible" id="s"><path style="stroke:none" d="M4.5-1.313c0-.203 0-.437-.422-.437-.39 0-.406.234-.406.438 0 .53-.5.625-.719.625-.656 0-.656-.454-.656-.672v-2.235h1.515c.172 0 .47-.015.47-.375 0-.375-.282-.375-.47-.375H2.298v-.718c0-.22-.016-.47-.406-.47-.422 0-.422.235-.422.47v.718H.703c-.187 0-.469.016-.469.375 0 .36.282.375.454.375h.78v2.281c0 1 .688 1.375 1.454 1.375.75 0 1.578-.453 1.578-1.375Zm0 0"/></symbol><symbol overflow="visible" id="t"><path style="stroke:none" d="M4.86-3.781c0-.406-.407-.422-.563-.422H.922c-.156 0-.563.016-.563.422 0 .406.375.406.516.406h3.469c.14 0 .515 0 .515-.406Zm0 1.469c0-.407-.376-.422-.516-.422H.875c-.14 0-.516.015-.516.421 0 .407.407.422.563.422h3.375c.156 0 .562-.015.562-.421Zm0 0"/></symbol></defs><path style="fill:none;stroke-width:.3985;stroke-linecap:round;stroke-linejoin:miter;stroke:#000;stroke-opacity:1;stroke-miterlimit:10" d="M27.897.002h3.984M27.897 17.01h3.984M27.897 34.017h3.984M27.897 51.025h3.984M27.897 68.033h3.984M27.897 85.04h3.984" transform="matrix(1 0 0 -1 10.373 88.494)"/><path style="fill:none;stroke-width:.3985;stroke-linecap:butt;stroke-linejoin:miter;stroke:#000;stroke-opacity:1;stroke-miterlimit:10" d="M29.889.002v84.64" transform="matrix(1 0 0 -1 10.373 88.494)"/><path style="fill:none;stroke-width:.3985;stroke-linecap:round;stroke-linejoin:round;stroke:#000;stroke-opacity:1;stroke-miterlimit:10" d="M-2.074 2.39C-1.694.957-.85.28 0 0-.85-.278-1.695-.957-2.074-2.391" transform="matrix(0 -1 -1 0 40.261 3.653)"/><path style="fill:none;stroke-width:.3985;stroke-linecap:round;stroke-linejoin:miter;stroke:#000;stroke-opacity:1;stroke-miterlimit:10" d="M57.783.002h3.985M57.783 21.26h3.985M57.783 42.521h3.985M57.783 63.78h3.985M57.783 85.04h3.985" transform="matrix(1 0 0 -1 10.373 88.494)"/><path style="fill:none;stroke-width:.3985;stroke-linecap:butt;stroke-linejoin:miter;stroke:#000;stroke-opacity:1;stroke-miterlimit:10" d="M59.775.002v84.64" transform="matrix(1 0 0 -1 10.373 88.494)"/><path style="fill:none;stroke-width:.3985;stroke-linecap:round;stroke-linejoin:round;stroke:#000;stroke-opacity:1;stroke-miterlimit:10" d="M-2.074 2.392C-1.694.958-.85.279 0 .002-.85-.28-1.695-.957-2.074-2.39" transform="matrix(0 -1 -1 0 70.15 3.653)"/><path style="fill:none;stroke-width:.3985;stroke-linecap:round;stroke-linejoin:miter;stroke:#000;stroke-opacity:1;stroke-miterlimit:10" d="M87.674.002h3.984M87.674 14.174h3.984M87.674 28.346h3.984M87.674 42.521h3.984M87.674 56.693h3.984M87.674 70.865h3.984M87.674 85.04h3.984" transform="matrix(1 0 0 -1 10.373 88.494)"/><path style="fill:none;stroke-width:.3985;stroke-linecap:butt;stroke-linejoin:miter;stroke:#000;stroke-opacity:1;stroke-miterlimit:10" d="M89.666.002v84.64" transform="matrix(1 0 0 -1 10.373 88.494)"/><path style="fill:none;stroke-width:.3985;stroke-linecap:round;stroke-linejoin:round;stroke:#000;stroke-opacity:1;stroke-miterlimit:10" d="M-2.074 2.39C-1.694.955-.85.28 0-.002c-.851-.277-1.695-.957-2.074-2.39" transform="matrix(0 -1 -1 0 100.038 3.653)"/><path style="fill:none;stroke-width:.3985;stroke-linecap:round;stroke-linejoin:miter;stroke:#000;stroke-opacity:1;stroke-miterlimit:10" d="M117.56.002h3.985M117.56 21.26h3.985M117.56 42.521h3.985M117.56 63.78h3.985M117.56 85.04h3.985" transform="matrix(1 0 0 -1 10.373 88.494)"/><path style="fill:none;stroke-width:.3985;stroke-linecap:butt;stroke-linejoin:miter;stroke:#000;stroke-opacity:1;stroke-miterlimit:10" d="M119.553.002v84.64" transform="matrix(1 0 0 -1 10.373 88.494)"/><path style="fill:none;stroke-width:.3985;stroke-linecap:round;stroke-linejoin:round;stroke:#000;stroke-opacity:1;stroke-miterlimit:10" d="M-2.074 2.391C-1.694.957-.85.278 0 .001-.85-.282-1.695-.958-2.074-2.39" transform="matrix(0 -1 -1 0 129.926 3.653)"/><path style="fill:none;stroke-width:.3985;stroke-linecap:round;stroke-linejoin:miter;stroke:#000;stroke-opacity:1;stroke-miterlimit:10" d="M147.447.002h3.989M147.447 17.01h3.989M147.447 34.017h3.989M147.447 51.025h3.989M147.447 68.033h3.989M147.447 85.04h3.989" transform="matrix(1 0 0 -1 10.373 88.494)"/><path style="fill:none;stroke-width:.3985;stroke-linecap:butt;stroke-linejoin:miter;stroke:#000;stroke-opacity:1;stroke-miterlimit:10" d="M149.443.002v84.64" transform="matrix(1 0 0 -1 10.373 88.494)"/><path style="fill:none;stroke-width:.3985;stroke-linecap:round;stroke-linejoin:round;stroke:#000;stroke-opacity:1;stroke-miterlimit:10" d="M-2.074 2.393C-1.694.955-.85.279 0-.002c-.851-.277-1.695-.953-2.074-2.39" transform="matrix(0 -1 -1 0 159.815 3.653)"/><path style="fill:none;stroke-width:.3985;stroke-linecap:round;stroke-linejoin:miter;stroke:#000;stroke-opacity:1;stroke-miterlimit:10" d="M177.338.002h3.984M177.338 14.174h3.984M177.338 28.346h3.984M177.338 42.521h3.984M177.338 56.693h3.984M177.338 70.865h3.984M177.338 85.04h3.984" transform="matrix(1 0 0 -1 10.373 88.494)"/><path style="fill:none;stroke-width:.3985;stroke-linecap:butt;stroke-linejoin:miter;stroke:#000;stroke-opacity:1;stroke-miterlimit:10" d="M179.33.002v84.64" transform="matrix(1 0 0 -1 10.373 88.494)"/><path style="fill:none;stroke-width:.3985;stroke-linecap:round;stroke-linejoin:round;stroke:#000;stroke-opacity:1;stroke-miterlimit:10" d="M-2.074 2.39C-1.694.957-.85.277 0 0-.85-.278-1.695-.957-2.074-2.39" transform="matrix(0 -1 -1 0 189.703 3.653)"/><path style="fill:none;stroke-width:.3985;stroke-linecap:round;stroke-linejoin:miter;stroke:#000;stroke-opacity:1;stroke-miterlimit:10" d="M207.225.002h3.984M207.225 12.15h3.984M207.225 24.299h3.984M207.225 36.447h3.984M207.225 48.596h3.984M207.225 60.744h3.984M207.225 72.892h3.984M207.225 85.04h3.984" transform="matrix(1 0 0 -1 10.373 88.494)"/><path style="fill:none;stroke-width:.3985;stroke-linecap:butt;stroke-linejoin:miter;stroke:#000;stroke-opacity:1;stroke-miterlimit:10" d="M209.217.002v84.64" transform="matrix(1 0 0 -1 10.373 88.494)"/><path style="fill:none;stroke-width:.3985;stroke-linecap:round;stroke-linejoin:round;stroke:#000;stroke-opacity:1;stroke-miterlimit:10" d="M-2.074 2.392C-1.694.958-.85.279 0 .002-.85-.28-1.695-.957-2.074-2.39" transform="matrix(0 -1 -1 0 219.591 3.653)"/><path style="fill:none;stroke-width:.3985;stroke-linecap:round;stroke-linejoin:miter;stroke:#000;stroke-opacity:1;stroke-miterlimit:10" d="M237.115.002h3.985M237.115 21.26h3.985M237.115 42.521h3.985M237.115 63.78h3.985M237.115 85.04h3.985" transform="matrix(1 0 0 -1 10.373 88.494)"/><path style="fill:none;stroke-width:.3985;stroke-linecap:butt;stroke-linejoin:miter;stroke:#000;stroke-opacity:1;stroke-miterlimit:10" d="M239.107.002v84.64" transform="matrix(1 0 0 -1 10.373 88.494)"/><path style="fill:none;stroke-width:.3985;stroke-linecap:round;stroke-linejoin:round;stroke:#000;stroke-opacity:1;stroke-miterlimit:10" d="M-2.074 2.39C-1.694.956-.85.28 0-.001c-.851-.277-1.695-.957-2.074-2.39" transform="matrix(0 -1 -1 0 249.48 3.653)"/><path style="fill:none;stroke-width:.3985;stroke-linecap:round;stroke-linejoin:miter;stroke:#000;stroke-opacity:1;stroke-miterlimit:10" d="M267.002.002h3.984M267.002 18.896h3.984M267.002 37.795h3.984M267.002 56.693h3.984M267.002 75.592h3.984" transform="matrix(1 0 0 -1 10.373 88.494)"/><path style="fill:none;stroke-width:.3985;stroke-linecap:butt;stroke-linejoin:miter;stroke:#000;stroke-opacity:1;stroke-miterlimit:10" d="M268.994.002v84.64" transform="matrix(1 0 0 -1 10.373 88.494)"/><path style="fill:none;stroke-width:.3985;stroke-linecap:round;stroke-linejoin:round;stroke:#000;stroke-opacity:1;stroke-miterlimit:10" d="M-2.074 2.391C-1.694.958-.85.278 0 .001-.85-.281-1.695-.956-2.074-2.39" transform="matrix(0 -1 -1 0 279.368 3.653)"/><path style="fill:none;stroke-width:.3985;stroke-linecap:round;stroke-linejoin:miter;stroke:#000;stroke-opacity:1;stroke-miterlimit:10" d="M296.889.002h3.988M296.889 17.01h3.988M296.889 34.017h3.988M296.889 51.025h3.988M296.889 68.033h3.988M296.889 85.04h3.988" transform="matrix(1 0 0 -1 10.373 88.494)"/><path style="fill:none;stroke-width:.3985;stroke-linecap:butt;stroke-linejoin:miter;stroke:#000;stroke-opacity:1;stroke-miterlimit:10" d="M298.885.002v84.64" transform="matrix(1 0 0 -1 10.373 88.494)"/><path style="fill:none;stroke-width:.3985;stroke-linecap:round;stroke-linejoin:round;stroke:#000;stroke-opacity:1;stroke-miterlimit:10" d="M-2.074 2.393C-1.694.955-.85.279 0-.002c-.851-.277-1.695-.953-2.074-2.39" transform="matrix(0 -1 -1 0 309.256 3.653)"/><path style="fill:none;stroke-width:.3985;stroke-linecap:round;stroke-linejoin:miter;stroke:#000;stroke-opacity:1;stroke-miterlimit:10" d="M326.78.002h3.984M326.78 42.521h3.984M326.78 85.04h3.984" transform="matrix(1 0 0 -1 10.373 88.494)"/><path style="fill:none;stroke-width:.3985;stroke-linecap:butt;stroke-linejoin:miter;stroke:#000;stroke-opacity:1;stroke-miterlimit:10" d="M328.772.002v84.64" transform="matrix(1 0 0 -1 10.373 88.494)"/><path style="fill:none;stroke-width:.3985;stroke-linecap:round;stroke-linejoin:round;stroke:#000;stroke-opacity:1;stroke-miterlimit:10" d="M-2.074 2.39C-1.694.957-.85.277 0 0-.85-.278-1.695-.957-2.074-2.39" transform="matrix(0 -1 -1 0 339.144 3.653)"/><path style="fill:none;stroke-width:.3985;stroke-linecap:round;stroke-linejoin:miter;stroke:#000;stroke-opacity:1;stroke-miterlimit:10" d="M356.666.002h3.984M356.666 8.506h3.984M356.666 17.01h3.984M356.666 25.514h3.984M356.666 34.017h3.984M356.666 42.521h3.984M356.666 51.025h3.984M356.666 59.53h3.984M356.666 68.033h3.984M356.666 76.537h3.984M356.666 85.04h3.984" transform="matrix(1 0 0 -1 10.373 88.494)"/><path style="fill:none;stroke-width:.3985;stroke-linecap:butt;stroke-linejoin:miter;stroke:#000;stroke-opacity:1;stroke-miterlimit:10" d="M358.658.002v84.64" transform="matrix(1 0 0 -1 10.373 88.494)"/><path style="fill:none;stroke-width:.3985;stroke-linecap:round;stroke-linejoin:round;stroke:#000;stroke-opacity:1;stroke-miterlimit:10" d="M-2.074 2.392C-1.694.955-.85.279 0 .002-.85-.28-1.695-.957-2.074-2.39" transform="matrix(0 -1 -1 0 369.033 3.653)"/><use xlink:href="#a" x="31.378" y="91.062" style="fill:#000;fill-opacity:1"/><use xlink:href="#b" x="31.378" y="74.054" style="fill:#000;fill-opacity:1"/><use xlink:href="#c" x="31.378" y="57.046" style="fill:#000;fill-opacity:1"/><use xlink:href="#d" x="31.378" y="40.038" style="fill:#000;fill-opacity:1"/><use xlink:href="#e" x="31.378" y="23.03" style="fill:#000;fill-opacity:1"/><g style="fill:#000;fill-opacity:1"><use xlink:href="#f" x="27.144" y="6.023"/><use xlink:href="#a" x="31.379" y="6.023"/></g><use xlink:href="#g" x="37.646" y="104.879" style="fill:#000;fill-opacity:1"/><use xlink:href="#a" x="61.266" y="91.062" style="fill:#000;fill-opacity:1"/><use xlink:href="#h" x="61.266" y="69.802" style="fill:#000;fill-opacity:1"/><g style="fill:#000;fill-opacity:1"><use xlink:href="#f" x="57.032" y="48.542"/><use xlink:href="#a" x="61.267" y="48.542"/></g><g style="fill:#000;fill-opacity:1"><use xlink:href="#f" x="57.032" y="27.282"/><use xlink:href="#h" x="61.267" y="27.282"/></g><g style="fill:#000;fill-opacity:1"><use xlink:href="#b" x="57.032" y="6.023"/><use xlink:href="#a" x="61.267" y="6.023"/></g><use xlink:href="#g" x="67.534" y="104.879" style="fill:#000;fill-opacity:1"/><use xlink:href="#a" x="91.154" y="91.062" style="fill:#000;fill-opacity:1"/><use xlink:href="#h" x="91.154" y="76.889" style="fill:#000;fill-opacity:1"/><g style="fill:#000;fill-opacity:1"><use xlink:href="#f" x="86.92" y="62.715"/><use xlink:href="#a" x="91.155" y="62.715"/></g><g style="fill:#000;fill-opacity:1"><use xlink:href="#f" x="86.92" y="48.542"/><use xlink:href="#h" x="91.155" y="48.542"/></g><g style="fill:#000;fill-opacity:1"><use xlink:href="#b" x="86.92" y="34.369"/><use xlink:href="#a" x="91.155" y="34.369"/></g><g style="fill:#000;fill-opacity:1"><use xlink:href="#b" x="86.92" y="20.196"/><use xlink:href="#h" x="91.155" y="20.196"/></g><g style="fill:#000;fill-opacity:1"><use xlink:href="#i" x="86.92" y="6.023"/><use xlink:href="#a" x="91.155" y="6.023"/></g><use xlink:href="#g" x="97.422" y="104.879" style="fill:#000;fill-opacity:1"/><use xlink:href="#a" x="121.042" y="91.062" style="fill:#000;fill-opacity:1"/><g style="fill:#000;fill-opacity:1"><use xlink:href="#f" x="116.808" y="69.802"/><use xlink:href="#a" x="121.043" y="69.802"/></g><g style="fill:#000;fill-opacity:1"><use xlink:href="#b" x="116.808" y="48.542"/><use xlink:href="#a" x="121.043" y="48.542"/></g><g style="fill:#000;fill-opacity:1"><use xlink:href="#i" x="116.808" y="27.283"/><use xlink:href="#a" x="121.043" y="27.283"/></g><g style="fill:#000;fill-opacity:1"><use xlink:href="#c" x="116.808" y="6.023"/><use xlink:href="#a" x="121.043" y="6.023"/></g><use xlink:href="#g" x="127.31" y="104.879" style="fill:#000;fill-opacity:1"/><use xlink:href="#a" x="150.93" y="91.062" style="fill:#000;fill-opacity:1"/><g style="fill:#000;fill-opacity:1"><use xlink:href="#f" x="146.696" y="74.054"/><use xlink:href="#a" x="150.931" y="74.054"/></g><g style="fill:#000;fill-opacity:1"><use xlink:href="#b" x="146.696" y="57.046"/><use xlink:href="#a" x="150.931" y="57.046"/></g><g style="fill:#000;fill-opacity:1"><use xlink:href="#i" x="146.696" y="40.039"/><use xlink:href="#a" x="150.931" y="40.039"/></g><g style="fill:#000;fill-opacity:1"><use xlink:href="#c" x="146.696" y="23.031"/><use xlink:href="#a" x="150.931" y="23.031"/></g><g style="fill:#000;fill-opacity:1"><use xlink:href="#h" x="146.696" y="6.023"/><use xlink:href="#a" x="150.931" y="6.023"/></g><use xlink:href="#g" x="157.197" y="104.879" style="fill:#000;fill-opacity:1"/><use xlink:href="#a" x="180.818" y="91.062" style="fill:#000;fill-opacity:1"/><g style="fill:#000;fill-opacity:1"><use xlink:href="#f" x="176.584" y="76.889"/><use xlink:href="#a" x="180.819" y="76.889"/></g><g style="fill:#000;fill-opacity:1"><use xlink:href="#b" x="176.584" y="62.716"/><use xlink:href="#a" x="180.819" y="62.716"/></g><g style="fill:#000;fill-opacity:1"><use xlink:href="#i" x="176.584" y="48.543"/><use xlink:href="#a" x="180.819" y="48.543"/></g><g style="fill:#000;fill-opacity:1"><use xlink:href="#c" x="176.584" y="34.37"/><use xlink:href="#a" x="180.819" y="34.37"/></g><g style="fill:#000;fill-opacity:1"><use xlink:href="#h" x="176.584" y="20.197"/><use xlink:href="#a" x="180.819" y="20.197"/></g><g style="fill:#000;fill-opacity:1"><use xlink:href="#d" x="176.584" y="6.023"/><use xlink:href="#a" x="180.819" y="6.023"/></g><use xlink:href="#g" x="187.085" y="104.879" style="fill:#000;fill-opacity:1"/><use xlink:href="#a" x="210.706" y="91.062" style="fill:#000;fill-opacity:1"/><g style="fill:#000;fill-opacity:1"><use xlink:href="#f" x="206.472" y="78.913"/><use xlink:href="#a" x="210.707" y="78.913"/></g><g style="fill:#000;fill-opacity:1"><use xlink:href="#b" x="206.472" y="66.765"/><use xlink:href="#a" x="210.707" y="66.765"/></g><g style="fill:#000;fill-opacity:1"><use xlink:href="#i" x="206.472" y="54.617"/><use xlink:href="#a" x="210.707" y="54.617"/></g><g style="fill:#000;fill-opacity:1"><use xlink:href="#c" x="206.472" y="42.468"/><use xlink:href="#a" x="210.707" y="42.468"/></g><g style="fill:#000;fill-opacity:1"><use xlink:href="#h" x="206.472" y="30.32"/><use xlink:href="#a" x="210.707" y="30.32"/></g><g style="fill:#000;fill-opacity:1"><use xlink:href="#d" x="206.472" y="18.172"/><use xlink:href="#a" x="210.707" y="18.172"/></g><g style="fill:#000;fill-opacity:1"><use xlink:href="#j" x="206.472" y="6.023"/><use xlink:href="#a" x="210.707" y="6.023"/></g><use xlink:href="#g" x="216.973" y="104.879" style="fill:#000;fill-opacity:1"/><use xlink:href="#a" x="240.594" y="91.062" style="fill:#000;fill-opacity:1"/><g style="fill:#000;fill-opacity:1"><use xlink:href="#b" x="236.36" y="69.802"/><use xlink:href="#a" x="240.595" y="69.802"/></g><g style="fill:#000;fill-opacity:1"><use xlink:href="#c" x="236.36" y="48.542"/><use xlink:href="#a" x="240.595" y="48.542"/></g><g style="fill:#000;fill-opacity:1"><use xlink:href="#d" x="236.36" y="27.283"/><use xlink:href="#a" x="240.595" y="27.283"/></g><g style="fill:#000;fill-opacity:1"><use xlink:href="#e" x="236.36" y="6.023"/><use xlink:href="#a" x="240.595" y="6.023"/></g><use xlink:href="#g" x="246.861" y="104.879" style="fill:#000;fill-opacity:1"/><use xlink:href="#a" x="270.482" y="91.062" style="fill:#000;fill-opacity:1"/><g style="fill:#000;fill-opacity:1"><use xlink:href="#b" x="266.247" y="72.164"/><use xlink:href="#a" x="270.482" y="72.164"/></g><g style="fill:#000;fill-opacity:1"><use xlink:href="#c" x="266.247" y="53.267"/><use xlink:href="#a" x="270.482" y="53.267"/></g><g style="fill:#000;fill-opacity:1"><use xlink:href="#d" x="266.247" y="34.37"/><use xlink:href="#a" x="270.482" y="34.37"/></g><g style="fill:#000;fill-opacity:1"><use xlink:href="#e" x="266.247" y="15.472"/><use xlink:href="#a" x="270.482" y="15.472"/></g><use xlink:href="#g" x="276.749" y="104.879" style="fill:#000;fill-opacity:1"/><use xlink:href="#a" x="300.37" y="91.062" style="fill:#000;fill-opacity:1"/><g style="fill:#000;fill-opacity:1"><use xlink:href="#b" x="296.135" y="74.054"/><use xlink:href="#a" x="300.37" y="74.054"/></g><g style="fill:#000;fill-opacity:1"><use xlink:href="#c" x="296.135" y="57.046"/><use xlink:href="#a" x="300.37" y="57.046"/></g><g style="fill:#000;fill-opacity:1"><use xlink:href="#d" x="296.135" y="40.038"/><use xlink:href="#a" x="300.37" y="40.038"/></g><g style="fill:#000;fill-opacity:1"><use xlink:href="#e" x="296.135" y="23.03"/><use xlink:href="#a" x="300.37" y="23.03"/></g><g style="fill:#000;fill-opacity:1"><use xlink:href="#f" x="291.901" y="6.023"/><use xlink:href="#a" x="296.136" y="6.023"/><use xlink:href="#a" x="300.37" y="6.023"/></g><use xlink:href="#g" x="306.637" y="104.879" style="fill:#000;fill-opacity:1"/><use xlink:href="#a" x="330.257" y="91.062" style="fill:#000;fill-opacity:1"/><g style="fill:#000;fill-opacity:1"><use xlink:href="#h" x="326.023" y="48.542"/><use xlink:href="#a" x="330.258" y="48.542"/></g><g style="fill:#000;fill-opacity:1"><use xlink:href="#f" x="321.789" y="6.023"/><use xlink:href="#a" x="326.024" y="6.023"/><use xlink:href="#a" x="330.258" y="6.023"/></g><use xlink:href="#k" x="336.525" y="104.879" style="fill:#000;fill-opacity:1"/><use xlink:href="#a" x="360.145" y="91.062" style="fill:#000;fill-opacity:1"/><g style="fill:#000;fill-opacity:1"><use xlink:href="#f" x="355.911" y="82.558"/><use xlink:href="#a" x="360.146" y="82.558"/></g><g style="fill:#000;fill-opacity:1"><use xlink:href="#b" x="355.911" y="74.054"/><use xlink:href="#a" x="360.146" y="74.054"/></g><g style="fill:#000;fill-opacity:1"><use xlink:href="#i" x="355.911" y="65.55"/><use xlink:href="#a" x="360.146" y="65.55"/></g><g style="fill:#000;fill-opacity:1"><use xlink:href="#c" x="355.911" y="57.046"/><use xlink:href="#a" x="360.146" y="57.046"/></g><g style="fill:#000;fill-opacity:1"><use xlink:href="#h" x="355.911" y="48.542"/><use xlink:href="#a" x="360.146" y="48.542"/></g><g style="fill:#000;fill-opacity:1"><use xlink:href="#d" x="355.911" y="40.038"/><use xlink:href="#a" x="360.146" y="40.038"/></g><g style="fill:#000;fill-opacity:1"><use xlink:href="#j" x="355.911" y="31.534"/><use xlink:href="#a" x="360.146" y="31.534"/></g><g style="fill:#000;fill-opacity:1"><use xlink:href="#e" x="355.911" y="23.03"/><use xlink:href="#a" x="360.146" y="23.03"/></g><g style="fill:#000;fill-opacity:1"><use xlink:href="#l" x="355.911" y="14.526"/><use xlink:href="#a" x="360.146" y="14.526"/></g><g style="fill:#000;fill-opacity:1"><use xlink:href="#f" x="351.677" y="6.023"/><use xlink:href="#a" x="355.912" y="6.023"/><use xlink:href="#a" x="360.146" y="6.023"/></g><g style="fill:#000;fill-opacity:1"><use xlink:href="#m" x="363.798" y="104.879"/><use xlink:href="#n" x="369.028" y="104.879"/></g><g style="fill:#000;fill-opacity:1"><use xlink:href="#o" x=".129" y="104.879"/><use xlink:href="#p" x="5.359" y="104.879"/><use xlink:href="#q" x="10.59" y="104.879"/><use xlink:href="#r" x="15.82" y="104.879"/><use xlink:href="#s" x="21.051" y="104.879"/><use xlink:href="#t" x="26.281" y="104.879"/></g></svg>