<svg xmlns="http://www.w3.org/2000/svg" width="29.293" height="7.443" viewBox="0 0 21.97 5.582" version="1.2"><defs><clipPath id="a"><path d="M4 0h16v5.371H4Zm0 0"/></clipPath><clipPath id="b"><path d="M10 0h11.953v5.371H10Zm0 0"/></clipPath></defs><path style="fill:none;stroke-width:.3985;stroke-linecap:butt;stroke-linejoin:miter;stroke:#000;stroke-opacity:1;stroke-miterlimit:10" d="M-.002 2.21h9.567" transform="matrix(1 0 0 -1 .994 4.788)"/><path style="stroke:none;fill-rule:nonzero;fill:#000;fill-opacity:1" d="M14.32 2.578c-.46-.113-2.492-.754-3.761-1.45v2.895c1.27-.695 3.3-1.335 3.761-1.445Zm0 0"/><g clip-path="url(#a)"><path style="fill:none;stroke-width:.3985;stroke-linecap:butt;stroke-linejoin:miter;stroke:#000;stroke-opacity:1;stroke-miterlimit:10" d="M3.762-.002C3.302.111 1.27.752 0 1.448v-2.895C1.27-.752 3.301-.111 3.762-.002Zm0 0" transform="matrix(1 0 0 -1 10.558 2.576)"/></g><path style="stroke:none;fill-rule:nonzero;fill:#000;fill-opacity:1" d="M20.098 2.578c-.461-.113-2.493-.754-3.762-1.45v2.895c1.27-.695 3.3-1.335 3.762-1.445Zm0 0"/><g clip-path="url(#b)"><path style="fill:none;stroke-width:.3985;stroke-linecap:butt;stroke-linejoin:miter;stroke:#000;stroke-opacity:1;stroke-miterlimit:10" d="M3.761-.002C3.3.111 1.269.752-.001 1.448v-2.895C1.27-.752 3.3-.111 3.761-.002Zm0 0" transform="matrix(1 0 0 -1 16.337 2.576)"/></g></svg>