<svg xmlns="http://www.w3.org/2000/svg" width="89.739" height="48.219" viewBox="0 0 67.304 36.164" version="1.2"><defs><clipPath id="a"><path d="M14 23h30v12.746H14Zm0 0"/></clipPath><clipPath id="b"><path d="M43 0h23.957v8H43Zm0 0"/></clipPath><clipPath id="c"><path d="M44 20h22.957v15.746H44Zm0 0"/></clipPath></defs><path style="fill:none;stroke-width:.3985;stroke-linecap:butt;stroke-linejoin:miter;stroke:#000;stroke-opacity:1;stroke-miterlimit:10" d="M48.19 56.693c2.871 1.66 5.633 1.66 8.504 0 2.871 1.66 5.633 1.66 8.504 0" transform="matrix(1 0 0 -1 -27.694 58.736)"/><g clip-path="url(#a)"><path style="fill:none;stroke-width:.3985;stroke-linecap:butt;stroke-linejoin:miter;stroke:red;stroke-opacity:1;stroke-miterlimit:10" d="M48.19 28.345c2.871 1.66 5.633 1.66 8.504 0 2.871 1.66 5.633 1.66 8.504 0" transform="matrix(1 0 0 -1 -27.694 58.736)"/></g><path style="stroke:none;fill-rule:nonzero;fill:#ccf;fill-opacity:1" d="M.652 30.39 29 2.044h28.348v28.348H29"/><g clip-path="url(#b)"><path style="fill:none;stroke-width:.3985;stroke-linecap:butt;stroke-linejoin:miter;stroke:#000;stroke-opacity:1;stroke-miterlimit:10" d="M76.538 56.693c2.87 1.66 5.629 1.66 8.504 0 2.87 1.66 5.629 1.66 8.504 0" transform="matrix(1 0 0 -1 -27.694 58.736)"/></g><g clip-path="url(#c)"><path style="fill:none;stroke-width:.3985;stroke-linecap:butt;stroke-linejoin:miter;stroke:#000;stroke-opacity:1;stroke-miterlimit:10" d="M77.674 24.095c1.66 2.871 4.051 4.25 7.368 4.25 1.656 2.875 4.047 4.254 7.363 4.254" transform="matrix(1 0 0 -1 -27.694 58.736)"/></g></svg>