<svg xmlns="http://www.w3.org/2000/svg" xmlns:xlink="http://www.w3.org/1999/xlink" width="370.507" height="87.05pt" viewBox="0 0 277.88 87.05" version="1.2"><defs><symbol overflow="visible" id="d"><path style="stroke:none" d="M2.078-1.938c.219.047 1.031.204 1.031.922 0 .5-.343.907-1.125.907-.843 0-1.203-.563-1.39-1.422-.031-.125-.031-.157-.14-.157-.126 0-.126.063-.126.235v1.328c0 .172 0 .234.11.234C.483.11.5.094.688-.094.703-.109.703-.125.89-.312c.437.406.89.421 1.093.421 1.141 0 1.61-.671 1.61-1.39 0-.516-.297-.828-.422-.938-.328-.328-.719-.406-1.14-.484-.563-.11-1.22-.235-1.22-.813 0-.359.25-.765 1.11-.765 1.094 0 1.156.906 1.172 1.203 0 .094.094.094.11.094.14 0 .14-.047.14-.235v-1.015c0-.157 0-.235-.11-.235-.046 0-.078 0-.203.125-.031.032-.125.125-.172.157-.375-.282-.78-.282-.937-.282-1.219 0-1.594.672-1.594 1.235 0 .343.156.625.422.843.328.25.61.313 1.328.454Zm0 0"/></symbol><symbol overflow="visible" id="e"><path style="stroke:none" d="m1.766-4.406-1.391.11v.312c.64 0 .734.062.734.546V-.75c0 .438-.109.438-.78.438V0c.312-.016.859-.031 1.093-.031.36 0 .703.015 1.047.031v-.313c-.672 0-.703-.046-.703-.437Zm.03-1.735a.514.514 0 0 0-.515-.53.537.537 0 0 0-.531.53c0 .266.219.532.531.532a.514.514 0 0 0 .516-.532Zm0 0"/></symbol><symbol overflow="visible" id="f"><path style="stroke:none" d="M1.094-3.422V-.75c0 .438-.11.438-.782.438V0c.36-.016.86-.031 1.141-.031.25 0 .766.015 1.11.031v-.313c-.672 0-.782 0-.782-.437v-1.844c0-1.031.719-1.594 1.344-1.594.64 0 .75.532.75 1.11V-.75c0 .438-.11.438-.781.438V0c.344-.016.86-.031 1.125-.031.25 0 .781.015 1.11.031v-.313c-.516 0-.766 0-.766-.296v-1.907c0-.859 0-1.156-.313-1.515-.14-.172-.469-.375-1.047-.375-.734 0-1.203.422-1.484 1.047v-1.047l-1.407.11v.312c.704 0 .782.062.782.562Zm0 0"/></symbol><symbol overflow="visible" id="h"><path style="stroke:none" d="M1.172-2.172c0-1.625.812-2.047 1.344-2.047.093 0 .718.016 1.062.375-.406.031-.469.328-.469.453 0 .266.188.454.454.454.265 0 .468-.157.468-.47 0-.671-.765-1.062-1.531-1.062C1.25-4.469.344-3.39.344-2.156c0 1.281.984 2.265 2.14 2.265 1.329 0 1.657-1.203 1.657-1.296 0-.094-.11-.094-.141-.094-.078 0-.11.031-.125.093C3.594-.265 2.937-.14 2.578-.14c-.531 0-1.406-.421-1.406-2.03Zm0 0"/></symbol><symbol overflow="visible" id="i"><path style="stroke:none" d="M4.688-2.14c0-1.266-.985-2.329-2.188-2.329C1.25-4.469.281-3.375.281-2.14A2.22 2.22 0 0 0 2.484.11c1.204 0 2.204-.984 2.204-2.25ZM2.5-.14c-.438 0-.875-.204-1.14-.672-.25-.438-.25-1.047-.25-1.407 0-.39 0-.922.234-1.36a1.347 1.347 0 0 1 1.14-.671c.438 0 .86.219 1.125.656.266.422.266 1 .266 1.375 0 .36 0 .906-.219 1.344-.234.453-.672.734-1.156.734Zm0 0"/></symbol><symbol overflow="visible" id="l"><path style="stroke:none" d="M1.719-3.984h1.437v-.313H1.72v-1.828h-.25c0 .813-.297 1.875-1.282 1.922v.219h.844v2.75c0 1.218.938 1.343 1.297 1.343.703 0 .985-.703.985-1.343v-.563h-.25v.547c0 .734-.297 1.11-.672 1.11-.672 0-.672-.907-.672-1.079Zm0 0"/></symbol><symbol overflow="visible" id="m"><path style="stroke:none" d="M3.313-.75c.046.39.312.813.78.813.22 0 .829-.141.829-.954v-.562h-.25v.562c0 .579-.25.641-.36.641-.328 0-.375-.453-.375-.5v-1.984c0-.422 0-.813-.359-1.188-.39-.39-.89-.547-1.36-.547-.827 0-1.515.469-1.515 1.125 0 .297.203.469.469.469a.435.435 0 0 0 .453-.453c0-.125-.047-.453-.516-.453.282-.36.766-.469 1.079-.469.5 0 1.062.39 1.062 1.281v.36c-.516.03-1.203.062-1.828.359-.75.344-1 .86-1 1.297 0 .812.969 1.062 1.594 1.062.656 0 1.109-.406 1.296-.859ZM3.25-2.39v1c0 .937-.719 1.28-1.172 1.28-.484 0-.89-.343-.89-.843 0-.547.421-1.375 2.062-1.438Zm0 0"/></symbol><symbol overflow="visible" id="n"><path style="stroke:none" d="M6.844-3.266c.156 0 .343 0 .343-.187 0-.203-.187-.203-.328-.203H.891c-.141 0-.329 0-.329.203 0 .187.188.187.329.187Zm.015 1.938c.141 0 .329 0 .329-.203 0-.188-.188-.188-.344-.188H.89c-.141 0-.329 0-.329.188 0 .203.188.203.329.203Zm0 0"/></symbol><symbol overflow="visible" id="r"><path style="stroke:none" d="M2.938-6.375c0-.25 0-.266-.235-.266C2.078-6 1.203-6 .891-6v.313c.203 0 .78 0 1.296-.266v5.172c0 .36-.03.469-.921.469H.953V0c.344-.031 1.203-.031 1.61-.031.39 0 1.265 0 1.609.031v-.313h-.313c-.906 0-.921-.109-.921-.468Zm0 0"/></symbol><symbol overflow="visible" id="g"><path style="stroke:none" d="M4.75-2.36c0-1.562-.922-2.046-1.656-2.046-1.375 0-2.688 1.422-2.688 2.828C.406-.641 1 .109 2.031.109c.625 0 1.344-.234 2.094-.843.125.53.453.843.906.843.532 0 .844-.546.844-.703 0-.078-.063-.11-.125-.11-.063 0-.094.032-.125.11-.188.485-.547.485-.563.485-.312 0-.312-.782-.312-1.016 0-.203 0-.234.11-.344C5.796-2.656 6-3.812 6-3.812c0-.032-.016-.11-.125-.11-.094 0-.094.031-.14.219-.188.625-.516 1.375-.985 1.969ZM4.094-.983c-.89.765-1.657.875-2.047.875-.594 0-.906-.454-.906-1.094 0-.484.265-1.563.578-2.063.468-.734 1.015-.921 1.36-.921.983 0 .983 1.312.983 2.078 0 .375 0 .953.032 1.125Zm0 0"/></symbol><symbol overflow="visible" id="q"><path style="stroke:none" d="M6.563-2.297c.171 0 .359 0 .359-.203 0-.188-.188-.188-.36-.188h-5.39c-.172 0-.344 0-.344.188 0 .203.172.203.344.203Zm0 0"/></symbol><symbol overflow="visible" id="t"><path style="stroke:none" d="M2.328-4.438c0-.187 0-.187-.203-.187-.453.438-1.078.438-1.36.438v.25c.157 0 .626 0 1-.188v3.547c0 .234 0 .328-.687.328H.812V0c.125 0 .985-.031 1.235-.031.219 0 1.094.031 1.25.031v-.25H3.03c-.703 0-.703-.094-.703-.328Zm0 0"/></symbol><symbol overflow="visible" id="v"><path style="stroke:none" d="M3.516-1.266H3.28c-.015.157-.094.563-.187.625-.047.047-.578.047-.688.047H1.125c.734-.64.984-.844 1.39-1.172.516-.406 1-.843 1-1.5 0-.843-.734-1.359-1.624-1.359-.86 0-1.454.61-1.454 1.25 0 .344.297.39.376.39.156 0 .359-.124.359-.374 0-.125-.047-.375-.406-.375.218-.485.687-.641 1.015-.641.703 0 1.063.547 1.063 1.11 0 .609-.438 1.078-.656 1.328L.516-.266C.437-.203.437-.187.437 0h2.876Zm0 0"/></symbol><clipPath id="a"><path d="M9 .523h239v85.043H9Zm0 0"/></clipPath><clipPath id="b"><path d="M128 .523h1v85.043h-1Zm0 0"/></clipPath><clipPath id="c"><path d="M37 .523h183v85.043H37Zm0 0"/></clipPath><clipPath id="j"><path d="M196 2h35v83.566h-35Zm0 0"/></clipPath><clipPath id="k"><path d="M215 30h62.82v28H215Zm0 0"/></clipPath><clipPath id="o"><path d="M255 44h22.82v1H255Zm0 0"/></clipPath><clipPath id="p"><path d="M33 71h21v14.566H33Zm0 0"/></clipPath><clipPath id="s"><path d="M75 71h22v14.566H75Zm0 0"/></clipPath><clipPath id="u"><path d="M88 82h4v3.566h-4Zm0 0"/></clipPath></defs><g clip-path="url(#a)"><path style="fill:none;stroke-width:.19925;stroke-linecap:butt;stroke-linejoin:miter;stroke:gray;stroke-opacity:1;stroke-miterlimit:10" d="M-119.057-85.04h238.113m-238.113 42.519h238.113M-119.057-.001h238.113m-238.113 42.523h238.113m-238.113 42.52h238.113M-85.04-119.057v238.113m42.52-238.113v238.113M.001-119.056v238.113m42.52-238.113v238.113M85.04-119.056v238.113" transform="matrix(1 0 0 -1 128.51 68.557)"/></g><path style="fill-rule:nonzero;fill:#cfc;fill-opacity:1;stroke-width:.3985;stroke-linecap:butt;stroke-linejoin:miter;stroke:green;stroke-opacity:1;stroke-miterlimit:10" d="M.002-.002h25.511c0 4.48-1.18 8.88-3.418 12.758Zm0 0" transform="matrix(1 0 0 -1 128.51 68.557)"/><path style="fill:none;stroke-width:.3985;stroke-linecap:butt;stroke-linejoin:miter;stroke:#000;stroke-opacity:1;stroke-miterlimit:10" d="M-127.56-.002h254.722" transform="matrix(1 0 0 -1 128.51 68.557)"/><path style="fill:none;stroke-width:.3985;stroke-linecap:round;stroke-linejoin:round;stroke:#000;stroke-opacity:1;stroke-miterlimit:10" d="M-2.07 2.393C-1.697.955-.853.28 0-.002c-.852-.277-1.696-.953-2.07-2.39" transform="matrix(1 0 0 -1 255.871 68.557)"/><g clip-path="url(#b)"><path style="fill:none;stroke-width:.3985;stroke-linecap:butt;stroke-linejoin:miter;stroke:#000;stroke-opacity:1;stroke-miterlimit:10" d="M.002-127.56v254.722" transform="matrix(1 0 0 -1 128.51 68.557)"/></g><g clip-path="url(#c)"><path style="fill:none;stroke-width:.3985;stroke-linecap:butt;stroke-linejoin:miter;stroke:#000;stroke-opacity:1;stroke-miterlimit:10" d="M85.04-.002c0 46.97-38.073 85.043-85.038 85.043-46.969 0-85.043-38.074-85.043-85.043 0-46.964 38.074-85.039 85.043-85.039C46.967-85.04 85.04-46.966 85.04 0Zm0 0" transform="matrix(1 0 0 -1 128.51 68.557)"/></g><path style="fill:none;stroke-width:1.19553;stroke-linecap:butt;stroke-linejoin:miter;stroke:red;stroke-opacity:1;stroke-miterlimit:10" d="M73.646 42.522V-.002" transform="matrix(1 0 0 -1 128.51 68.557)"/><path style="stroke:none;fill-rule:nonzero;fill:#fff;fill-opacity:1" d="M173.621 53.945h26.941V40.648h-26.94Zm0 0"/><g style="fill:red;fill-opacity:1"><use xlink:href="#d" x="176.939" y="50.624"/><use xlink:href="#e" x="180.868" y="50.624"/><use xlink:href="#f" x="183.636" y="50.624"/></g><use xlink:href="#g" x="190.832" y="50.624" style="fill:red;fill-opacity:1"/><path style="fill:none;stroke-width:1.19553;stroke-linecap:butt;stroke-linejoin:miter;stroke:#00f;stroke-opacity:1;stroke-miterlimit:10" d="M73.646-.002H.002" transform="matrix(1 0 0 -1 128.51 68.557)"/><path style="stroke:none;fill-rule:nonzero;fill:#fff;fill-opacity:1" d="M151.309 82.078h28.05v-10.93h-28.05Zm0 0"/><g style="fill:#00f;fill-opacity:1"><use xlink:href="#h" x="154.628" y="78.757"/><use xlink:href="#i" x="159.055" y="78.757"/><use xlink:href="#d" x="164.037" y="78.757"/></g><use xlink:href="#g" x="169.628" y="78.757" style="fill:#00f;fill-opacity:1"/><g clip-path="url(#j)"><path style="fill:none;stroke-width:1.19553;stroke-linecap:butt;stroke-linejoin:miter;stroke:#ff8000;stroke-opacity:1;stroke-miterlimit:10" d="M85.04-.002 85.038 49.1" transform="matrix(1 0 0 -1 128.51 68.557)"/></g><g clip-path="url(#k)"><path style="stroke:none;fill-rule:nonzero;fill:#fff;fill-opacity:1" d="M215.145 57.441h66.183V30.574h-66.183Zm0 0"/></g><g style="fill:#ff8000;fill-opacity:1"><use xlink:href="#l" x="218.462" y="47.287"/><use xlink:href="#m" x="222.336" y="47.287"/><use xlink:href="#f" x="227.318" y="47.287"/></g><use xlink:href="#g" x="234.513" y="47.287" style="fill:#ff8000;fill-opacity:1"/><use xlink:href="#n" x="243.69" y="47.287" style="fill:#000;fill-opacity:1"/><g style="fill:red;fill-opacity:1"><use xlink:href="#d" x="255.956" y="40.548"/><use xlink:href="#e" x="259.885" y="40.548"/><use xlink:href="#f" x="262.653" y="40.548"/></g><use xlink:href="#g" x="269.848" y="40.548" style="fill:red;fill-opacity:1"/><g clip-path="url(#o)"><path style="fill:none;stroke-width:.398;stroke-linecap:butt;stroke-linejoin:miter;stroke:#000;stroke-opacity:1;stroke-miterlimit:10" d="M0 0h21.41" transform="matrix(1 0 0 -1 255.402 44.797)"/></g><g style="fill:#00f;fill-opacity:1"><use xlink:href="#h" x="255.402" y="54.121"/><use xlink:href="#i" x="259.829" y="54.121"/><use xlink:href="#d" x="264.811" y="54.121"/></g><use xlink:href="#g" x="270.401" y="54.121" style="fill:#00f;fill-opacity:1"/><path style="fill:none;stroke-width:.3985;stroke-linecap:butt;stroke-linejoin:miter;stroke:#000;stroke-opacity:1;stroke-miterlimit:10" d="M.002-.002 85.037 49.1M-85.041 2.99v-5.98" transform="matrix(1 0 0 -1 128.51 68.557)"/><g clip-path="url(#p)"><path style="stroke:none;fill-rule:nonzero;fill:#fff;fill-opacity:1" d="M33.785 85.637h19.371v-13.89h-19.37Zm0 0"/></g><use xlink:href="#q" x="37.105" y="81.486" style="fill:#000;fill-opacity:1"/><use xlink:href="#r" x="44.854" y="81.486" style="fill:#000;fill-opacity:1"/><path style="fill:none;stroke-width:.3985;stroke-linecap:butt;stroke-linejoin:miter;stroke:#000;stroke-opacity:1;stroke-miterlimit:10" d="M-42.522 2.99v-5.98" transform="matrix(1 0 0 -1 128.51 68.557)"/><g clip-path="url(#s)"><path style="stroke:none;fill-rule:nonzero;fill:#fff;fill-opacity:1" d="M75.613 90.238h20.754V71.746H75.613Zm0 0"/></g><use xlink:href="#q" x="78.935" y="83.482" style="fill:#000;fill-opacity:1"/><use xlink:href="#t" x="87.879" y="79.56" style="fill:#000;fill-opacity:1"/><path style="fill:none;stroke-width:.398;stroke-linecap:butt;stroke-linejoin:miter;stroke:#000;stroke-opacity:1;stroke-miterlimit:10" d="M0-.001h3.973" transform="matrix(1 0 0 -1 87.879 80.991)"/><g clip-path="url(#u)"><use xlink:href="#v" x="87.879" y="86.918" style="fill:#000;fill-opacity:1"/></g><path style="fill:none;stroke-width:.3985;stroke-linecap:butt;stroke-linejoin:miter;stroke:#000;stroke-opacity:1;stroke-miterlimit:10" d="M85.04 2.99v-5.98" transform="matrix(1 0 0 -1 128.51 68.557)"/><path style="stroke:none;fill-rule:nonzero;fill:#fff;fill-opacity:1" d="M207.738 84.809h11.625V71.746h-11.625Zm0 0"/><use xlink:href="#r" x="211.058" y="81.486" style="fill:#000;fill-opacity:1"/><path style="fill:none;stroke-width:.3985;stroke-linecap:butt;stroke-linejoin:miter;stroke:#000;stroke-opacity:1;stroke-miterlimit:10" d="M2.99 42.522h-5.98" transform="matrix(1 0 0 -1 128.51 68.557)"/><path style="stroke:none;fill-rule:nonzero;fill:#fff;fill-opacity:1" d="M112.32 35.285h13V16.79h-13Zm0 0"/><use xlink:href="#t" x="116.834" y="24.605" style="fill:#000;fill-opacity:1"/><path style="fill:none;stroke-width:.398;stroke-linecap:butt;stroke-linejoin:miter;stroke:#000;stroke-opacity:1;stroke-miterlimit:10" d="M.002.002H3.97" transform="matrix(1 0 0 -1 116.834 26.037)"/><use xlink:href="#v" x="116.834" y="31.963" style="fill:#000;fill-opacity:1"/></svg>