<svg xmlns="http://www.w3.org/2000/svg" width="117.555" height="79.491" viewBox="0 0 88.166 59.618" version="1.2"><defs><clipPath id="a"><path d="M0 24h64v35.426H0Zm0 0"/></clipPath><clipPath id="b"><path d="M23 0h64.75v36H23Zm0 0"/></clipPath></defs><path style="fill:none;stroke-width:.19925;stroke-linecap:butt;stroke-linejoin:miter;stroke:gray;stroke-opacity:1;stroke-miterlimit:10" d="M0-.001h85.038M0 28.346h85.04M-.002 56.682h85.04M-.002 0v56.695M28.347 0v56.695M56.695 0v56.695M85.03 0v56.695" transform="matrix(1 0 0 -1 .692 58.241)"/><g clip-path="url(#a)"><path style="fill:none;stroke-width:.3985;stroke-linecap:butt;stroke-linejoin:miter;stroke:#000;stroke-opacity:1;stroke-miterlimit:10" d="m0-.001 56.695 28.347L28.347 0" transform="matrix(1 0 0 -1 .692 58.241)"/></g><g clip-path="url(#b)"><path style="fill:none;stroke-width:.3985;stroke-linecap:butt;stroke-linejoin:miter;stroke:red;stroke-opacity:1;stroke-miterlimit:10" d="m28.347 28.346 56.691 28.348-28.343-28.348" transform="matrix(1 0 0 -1 .692 58.241)"/></g></svg>