<svg xmlns="http://www.w3.org/2000/svg" width="153.877" height="23.379" viewBox="0 0 115.408 17.534" version="1.2"><defs><clipPath id="a"><path d="M75 0h21v17.3H75Zm0 0"/></clipPath></defs><path style="fill:none;stroke-width:.3985;stroke-linecap:butt;stroke-linejoin:miter;stroke:#000;stroke-opacity:1;stroke-miterlimit:10" d="M14.4-3.487h27.895v6.973H14.4ZM19.63 6.01h15.981" transform="matrix(1 0 0 -1 .713 8.103)"/><path style="fill-rule:nonzero;fill:#000;fill-opacity:1;stroke-width:.3985;stroke-linecap:butt;stroke-linejoin:round;stroke:#000;stroke-opacity:1;stroke-miterlimit:10" d="m-1.456 1.112 2.91-1.113-2.91-1.114Zm0 0" transform="matrix(1 0 0 -1 36.323 2.092)"/><g clip-path="url(#a)"><path style="fill:none;stroke-width:.3985;stroke-linecap:butt;stroke-linejoin:miter;stroke:#000;stroke-opacity:1;stroke-miterlimit:10" d="M80.682-4.358v8.715L89.202 0Zm0 0" transform="matrix(1 0 0 -1 .713 8.103)"/></g><path style="fill:none;stroke-width:.3985;stroke-linecap:butt;stroke-linejoin:miter;stroke:#000;stroke-opacity:1;stroke-miterlimit:10" d="M80.682.001H89.4M89.4-4.358v8.715M76.322-6.881h15.98" transform="matrix(1 0 0 -1 .713 8.103)"/><path style="fill-rule:nonzero;fill:#000;fill-opacity:1;stroke-width:.3985;stroke-linecap:butt;stroke-linejoin:round;stroke:#000;stroke-opacity:1;stroke-miterlimit:10" d="M-1.454 1.114 1.456.001l-2.91-1.113Zm0 0" transform="matrix(1 0 0 -1 93.016 14.985)"/><path style="fill:none;stroke-width:.3985;stroke-linecap:butt;stroke-linejoin:miter;stroke:#000;stroke-opacity:1;stroke-miterlimit:10" d="M.002.001h14.2m28.292 0h37.988m9.118 0h23.789" transform="matrix(1 0 0 -1 .713 8.103)"/></svg>