<svg xmlns="http://www.w3.org/2000/svg" width="116.463" height="106.899" viewBox="0 0 87.347 80.174" version="1.2"><defs><clipPath id="a"><path d="M0 2h64v77.762H0Zm0 0"/></clipPath></defs><path style="fill:none;stroke-width:.19925;stroke-linecap:butt;stroke-linejoin:miter;stroke:gray;stroke-opacity:1;stroke-miterlimit:10" d="M-.002-.001h56.695M-.002 28.346h56.695M-.002 0v42.52M28.346-.002v42.52m28.34-42.52v42.52" transform="matrix(1 0 0 -1 29.229 43.116)"/><g clip-path="url(#a)"><path style="fill:none;stroke-width:.3985;stroke-linecap:butt;stroke-linejoin:miter;stroke:#000;stroke-opacity:1;stroke-miterlimit:10" d="M28.346-.001c0 19.57-12.692 35.433-28.348 35.433-15.652 0-28.344-15.863-28.344-35.433S-15.654-35.435-.002-35.435C15.654-35.435 28.346-19.57 28.346 0Zm0 0" transform="matrix(1 0 0 -1 29.229 43.116)"/></g><path style="stroke:none;fill-rule:nonzero;fill:#000;fill-opacity:1" d="M36.203 38.133a1.993 1.993 0 0 0-3.984 0c0 1.101.89 1.996 1.992 1.996a1.996 1.996 0 0 0 1.992-1.996Zm-14.945 0a1.993 1.993 0 1 0-1.992 1.996 1.994 1.994 0 0 0 1.992-1.996Zm0 0"/><path style="stroke:none;fill-rule:nonzero;fill:red;fill-opacity:1" d="M53.355 20.98a1.993 1.993 0 1 0-3.983.002 1.993 1.993 0 0 0 3.983-.002ZM4.902 29.957a1.99 1.99 0 0 0-1.992-1.992 1.99 1.99 0 0 0-1.992 1.992 1.99 1.99 0 0 0 1.992 1.992 1.99 1.99 0 0 0 1.992-1.992Zm0 0"/></svg>