<svg xmlns="http://www.w3.org/2000/svg" width="394.439" height="78.776" viewBox="0 0 295.829 59.082" version="1.2"><path style="fill-rule:nonzero;fill:#009;fill-opacity:1;stroke-width:.3985;stroke-linecap:butt;stroke-linejoin:miter;stroke:#00f;stroke-opacity:1;stroke-miterlimit:10" d="M-4.982 0h9.965ZM9.94 0h9.96v14.238H9.94Zm14.918 0h9.96v24.625h-9.96Zm14.918 0h9.964v28.348h-9.964Zm14.921 0h9.961v24.395h-9.96Zm14.918 0h9.961v13.84h-9.96Zm14.918 0h9.965v-.46h-9.965Zm14.922 0h9.961v-14.637h-9.96Zm14.918 0h9.965v-24.852h-9.965Zm14.918 0h9.965v-28.34h-9.965Zm14.922 0h9.961v-24.156h-9.96Zm14.918 0h9.965v-13.434h-9.965Zm14.922 0h9.96v.922h-9.96Zm14.918 0h9.96v15.031h-9.96Zm14.918 0h9.965v25.07h-9.965Zm14.922 0h9.96v28.324h-9.96Zm14.918 0h9.96v23.91h-9.96Zm14.918 0h9.965v13.024h-9.965Zm14.922 0h9.96v-1.387h-9.96Zm14.918 0h9.964v-15.422h-9.964Zm0 0" transform="matrix(1 0 0 -1 6.096 29.086)"/></svg>