<svg xmlns="http://www.w3.org/2000/svg" xmlns:xlink="http://www.w3.org/1999/xlink" width="116.341" height="102.636" viewBox="0 0 87.256 76.977" version="1.2"><defs><symbol overflow="visible" id="a"><path style="stroke:none" d="M8.25 0v-.469h-.969L4.72-6.703c-.11-.25-.219-.25-.39-.25-.282 0-.329.078-.391.25l-2.47 6c-.062.156-.093.234-.843.234H.406V0l1.172-.031c.39 0 .938 0 1.313.031v-.469S2-.469 2-.594l.047-.125.5-1.203h2.672l.593 1.453H4.86V0c.391-.031 1.329-.031 1.766-.031.39 0 1.266 0 1.625.031ZM5.016-2.39H2.734l1.141-2.766Zm0 0"/></symbol><symbol overflow="visible" id="b"><path style="stroke:none" d="M-2.781-11.25c-1.438 0-2.438 1.281-2.563 3.063-.281-1.61-1.187-2.579-2.328-2.579-1.375 0-2.578 1.297-2.578 3.704v6.484h.703v-1.625h8.844v1.625H0v-6.938C0-10-1.313-11.25-2.781-11.25Zm-4.89 2.594c1.14 0 2.077.719 2.077 2.172v2.328h-3.953v-2.719c0-1.5 1.188-1.781 1.875-1.781Zm4.874-.39c.188 0 2.094 0 2.094 2.14v2.75h-4.36v-2.89c0-.298 0-1 .641-1.516.625-.485 1.469-.485 1.625-.485Zm0 0"/></symbol><symbol overflow="visible" id="c"><path style="stroke:none" d="m4.125-7.14-.406-.235-.485.828-6.687-.89c-.266-.016-.313.078-.406.218-.141.25-.094.313.015.469L.125-1.61c.11.126.156.188-.219.829l-.11.187.407.235.547-1.016c.203-.344.469-.813.688-1.125l-.407-.234s-.437.765-.547.703l-.093-.094-.797-1.031L.938-5.47l1.562.203-.484.829.406.234c.172-.36.64-1.172.86-1.547.187-.344.624-1.094.843-1.39ZM.437-5.532l-1.14 1.968-1.828-2.374Zm0 0"/></symbol><symbol overflow="visible" id="d"><path style="stroke:none" d="M-11.14-3.219c-.72 1.25-.11 2.75 1.374 3.75-1.53-.547-2.828-.25-3.39.735-.688 1.187-.172 2.875 1.922 4.078l5.609 3.25.36-.61-1.407-.812L-2.25-.484l1.406.812.344-.61-6.016-3.468c-2.14-1.25-3.89-.734-4.625.531Zm-.188 5.531c.562-.984 1.656-1.437 2.922-.703l2.015 1.157-1.968 3.421-2.36-1.359c-1.297-.75-.953-1.922-.61-2.516Zm2.11-4.406c.093-.156 1.046-1.812 2.89-.75l2.39 1.375-2.187 3.782L-8.641.875c-.25-.156-.859-.5-.984-1.328-.094-.781.328-1.5.406-1.64Zm0 0"/></symbol></defs><path style="fill:none;stroke-width:.19925;stroke-linecap:butt;stroke-linejoin:miter;stroke:gray;stroke-opacity:1;stroke-miterlimit:10" d="M.001-.001h85.04M0 28.346h85.04M0 56.682h85.04M0 0v56.695M28.345-.001v56.695M56.693-.001v56.695M85.029-.001v56.695" transform="matrix(1 0 0 -1 .737 64.674)"/><path style="fill:none;stroke-width:.3985;stroke-linecap:butt;stroke-linejoin:miter;stroke:#000;stroke-opacity:1;stroke-miterlimit:10" d="M20.697-6.798h15.3V6.8h-15.3Zm0 0" transform="matrix(1 0 0 -1 .737 64.674)"/><use xlink:href="#a" x="24.754" y="68.151" style="fill:#000;fill-opacity:1"/><path style="fill:none;stroke-width:.3985;stroke-linecap:butt;stroke-linejoin:miter;stroke:#000;stroke-opacity:1;stroke-miterlimit:10" d="M46.587 11.092V-11.09h20.215v22.183Zm0 0" transform="matrix(1 0 0 -1 .737 64.674)"/><use xlink:href="#b" x="62.555" y="70.787" style="fill:#000;fill-opacity:1"/><path style="fill:none;stroke-width:.3985;stroke-linecap:butt;stroke-linejoin:miter;stroke:#000;stroke-opacity:1;stroke-miterlimit:10" d="M16.9 7.378h15.297V20.97H16.9Zm0 0" transform="matrix(1 0 0 -1 .737 64.674)"/><use xlink:href="#a" x="20.957" y="53.978" style="fill:#000;fill-opacity:1"/><path style="fill:none;stroke-width:.3985;stroke-linecap:butt;stroke-linejoin:miter;stroke:#000;stroke-opacity:1;stroke-miterlimit:10" d="M38.993 39.44V17.253h20.211V39.44Zm0 0" transform="matrix(1 0 0 -1 .737 64.674)"/><use xlink:href="#b" x="54.96" y="42.44" style="fill:#000;fill-opacity:1"/><path style="fill:none;stroke-width:.3985;stroke-linecap:butt;stroke-linejoin:miter;stroke:#000;stroke-opacity:1;stroke-miterlimit:10" d="m12.11 34.573-7.648-13.25 11.774-6.797 7.648 13.25Zm0 0" transform="matrix(1 0 0 -1 .737 64.674)"/><use xlink:href="#c" x="15.757" y="45.612" style="fill:#000;fill-opacity:1"/><path style="fill:none;stroke-width:.3985;stroke-linecap:butt;stroke-linejoin:miter;stroke:#000;stroke-opacity:1;stroke-miterlimit:10" d="M13.685 45.893 32.9 34.8l10.105 17.503-19.21 11.094Zm0 0" transform="matrix(1 0 0 -1 .737 64.674)"/><use xlink:href="#d" x="36.939" y="14.194" style="fill:#000;fill-opacity:1"/></svg>