<svg xmlns="http://www.w3.org/2000/svg" xmlns:xlink="http://www.w3.org/1999/xlink" width="274.059" height="158.047" viewBox="0 0 205.544 118.535" version="1.2"><defs><symbol overflow="visible" id="b"><path style="stroke:none" d="M5.563-1.813c.14 0 .312 0 .312-.171 0-.188-.172-.188-.313-.188H1c-.125 0-.297 0-.297.188 0 .171.172.171.297.171Zm0 0"/></symbol><symbol overflow="visible" id="h"><path style="stroke:none" d="M1.625-1.984a.453.453 0 0 0-.453-.454A.437.437 0 0 0 .734-2a.45.45 0 0 0 .438.453c.25 0 .453-.219.453-.437Zm0 0"/></symbol><symbol overflow="visible" id="c"><path style="stroke:none" d="M2.5-5.078c0-.219-.016-.219-.234-.219-.329.313-.75.5-1.5.5v.266c.218 0 .64 0 1.109-.203v4.078c0 .297-.031.39-.781.39H.812V0c.329-.031 1.016-.031 1.375-.031.36 0 1.047 0 1.376.031v-.266H3.28c-.75 0-.781-.093-.781-.39Zm0 0"/></symbol><symbol overflow="visible" id="d"><path style="stroke:none" d="M3.89-2.547c0-.844-.078-1.36-.343-1.875-.344-.703-1-.875-1.438-.875-1 0-1.375.75-1.484.969C.344-3.75.328-2.953.328-2.547c0 .531.016 1.328.406 1.969.36.594.954.75 1.375.75.391 0 1.063-.125 1.47-.906.296-.579.312-1.297.312-1.813ZM2.11-.062c-.266 0-.813-.126-.985-.954-.094-.453-.094-1.203-.094-1.625 0-.546 0-1.109.094-1.546.172-.813.781-.891.984-.891.266 0 .829.14.985.86.094.437.094 1.046.094 1.577 0 .47 0 1.188-.094 1.641-.172.828-.719.938-.985.938Zm0 0"/></symbol><symbol overflow="visible" id="f"><path style="stroke:none" d="M1.11-4.484c.109.03.421.125.765.125 1 0 1.594-.704 1.594-.829 0-.093-.047-.109-.094-.109-.016 0-.031 0-.094.031a2.982 2.982 0 0 1-1.11.22c-.468 0-.858-.11-1.108-.22-.079-.03-.094-.03-.11-.03-.094 0-.094.077-.094.234v2.328c0 .14 0 .234.125.234.063 0 .079-.031.125-.094.094-.11.391-.515 1.079-.515.437 0 .656.359.734.515.125.281.14.656.14.953 0 .297 0 .735-.218 1.079-.156.25-.485.484-.906.484A1.271 1.271 0 0 1 .734-.922c.016.016.079.016.079.016.218 0 .406-.14.406-.39a.388.388 0 0 0-.39-.407c-.157 0-.407.078-.407.422 0 .718.625 1.453 1.531 1.453 1 0 1.844-.781 1.844-1.766 0-.922-.672-1.75-1.61-1.75-.39 0-.765.125-1.078.406Zm0 0"/></symbol><symbol overflow="visible" id="e"><path style="stroke:none" d="M3.266-1.5c0-.75-.61-1.36-1.36-1.36-.734 0-1.343.61-1.343 1.36 0 .766.609 1.36 1.343 1.36.75 0 1.36-.594 1.36-1.36ZM1.906-.453A1.024 1.024 0 0 1 .875-1.5c0-.578.453-1.047 1.031-1.047.578 0 1.047.469 1.047 1.047 0 .594-.469 1.047-1.047 1.047Zm0 0"/></symbol><symbol overflow="visible" id="i"><path style="stroke:none" d="M4.766-1.344c.093 0 .25 0 .25-.156s-.157-.156-.25-.156H1c-.11 0-.25 0-.25.156s.14.156.25.156Zm0 0"/></symbol><symbol overflow="visible" id="g"><path style="stroke:none" d="M1.625-.438a.463.463 0 0 0-.453-.453.447.447 0 0 0-.438.438.44.44 0 0 0 .438.453.45.45 0 0 0 .453-.438Zm0 0"/></symbol><symbol overflow="visible" id="j"><path style="stroke:none" d="M3.219-1.125H3c-.016.094-.078.484-.156.547-.047.047-.531.047-.625.047h-1.11l.766-.625c.203-.172.734-.547.922-.735.172-.171.422-.484.422-.906 0-.75-.672-1.187-1.485-1.187-.765 0-1.296.515-1.296 1.078 0 .297.25.344.312.344a.32.32 0 0 0 .328-.329c0-.125-.078-.328-.344-.328.141-.297.5-.531.922-.531.625 0 .953.469.953.953 0 .422-.28.86-.687 1.25L.5-.25C.437-.187.437-.187.437 0h2.594Zm0 0"/></symbol><symbol overflow="visible" id="k"><path style="stroke:none" d="M5.516 0v-.438c-.532 0-.61 0-.61-.359v-5.422l-1.61.063v.437c.548 0 .61 0 .61.36v1.734a1.994 1.994 0 0 0-1.25-.406c-1.453 0-2.312.89-2.312 2.047 0 1.187.844 2.03 2.219 2.03.562 0 1-.202 1.296-.437v.438ZM3.859-.984a1.427 1.427 0 0 1-1.203.671c-1.11 0-1.11-1.062-1.11-1.656 0-.531 0-.906.235-1.234.235-.36.672-.469.985-.469.437 0 .812.188 1.093.547Zm0 0"/></symbol><symbol overflow="visible" id="l"><path style="stroke:none" d="M4.563-1.047c0-.172-.172-.172-.235-.172-.156 0-.172.047-.234.172-.203.469-.75.719-1.313.719-1.281 0-1.297-1.156-1.297-1.594h2.782c.187 0 .296 0 .296-.25 0-.203-.015-1-.593-1.484-.406-.328-.953-.406-1.39-.406-1.532 0-2.282.968-2.282 2.046 0 1.172.89 2.063 2.406 2.063 1.485 0 1.86-.938 1.86-1.094ZM3.688-2.25H1.483c.016-.406.063-1.453 1.094-1.453 1.047 0 1.094 1.094 1.11 1.453Zm0 0"/></symbol><symbol overflow="visible" id="m"><path style="stroke:none" d="M5.156-3.547c0-.234-.172-.547-.593-.547-.438 0-.813.219-.985.344-.375-.219-.781-.281-1.219-.281-1.375 0-1.843.734-1.843 1.328 0 .484.312.812.468.937a1.249 1.249 0 0 0-.296.782c0 .39.187.703.375.875C.39.078.296.453.296.656c0 .531.625 1.14 2.344 1.14C4.219 1.797 5 1.313 5 .626c0-.313-.11-.86-.734-1.156C3.75-.766 3.28-.766 2.39-.766h-.454c-.28 0-.406 0-.562-.109a.563.563 0 0 1-.203-.453c0-.172.062-.281.062-.281.329.171.735.234 1.125.234 1.375 0 1.844-.734 1.844-1.328 0-.36-.172-.656-.36-.844.235-.125.423-.14.532-.172 0 .047-.031.094-.031.188a.407.407 0 1 0 .813-.016Zm-1.984.844c0 .39 0 .969-.813.969-.812 0-.812-.579-.812-.97 0-.405 0-.968.812-.968.813 0 .813.563.813.969ZM4.203.657c0 .296-.328.78-1.547.78C1.47 1.438 1.094 1 1.094.641c0-.516.578-.516.703-.516H2.89c.28 0 1.312 0 1.312.531Zm0 0"/></symbol><symbol overflow="visible" id="n"><path style="stroke:none" d="M4.078-3.281c0-.453-.469-.75-1-.75-.625 0-1 .453-1.203.968h-.016v-.968L.375-3.97v.438c.531 0 .61 0 .61.36v2.733h-.61V0l1.14-.031c.22 0 .75 0 1.22.031v-.438h-.766v-1.515c0-.656.25-1.703 1.11-1.719a.571.571 0 0 0-.142.39c0 .391.313.579.563.579.297 0 .578-.203.578-.578Zm0 0"/></symbol><symbol overflow="visible" id="o"><path style="stroke:none" d="M4.703-5.922c.031-.125.031-.14.031-.172 0-.078-.046-.125-.14-.125-.125 0-.907.063-1.094.078-.078.016-.188.032-.188.172 0 .125.11.125.25.125.422 0 .422.063.422.14 0 .063-.078.376-.125.563l-.171.688c-.094.344-.188.687-.266 1.047-.172-.328-.438-.563-.844-.563-1.047 0-2.203 1.25-2.203 2.61C.375-.375 1 .094 1.609.094c.579 0 1.047-.485 1.204-.656.093.5.546.656.828.656.265 0 .484-.11.687-.485.156-.296.281-.859.281-.89 0-.047-.03-.11-.109-.11-.11 0-.125.047-.156.22-.203.78-.39 1.046-.672 1.046-.235 0-.281-.219-.281-.406 0-.125.046-.375.046-.406Zm-1.86 4.844c-.03.14-.046.156-.187.328-.328.39-.687.625-1.031.625-.438 0-.578-.453-.578-.844 0-.437.25-1.469.469-1.906.28-.531.703-.86 1.062-.86.594 0 .735.72.735.766 0 .047-.016.094-.032.14Zm0 0"/></symbol><symbol overflow="visible" id="p"><path style="stroke:none" d="M-3.781-3.078c-.156 0-.235 0-.235.094 0 .046 0 .062.11.187.015.016.094.094.14.156-.203.266-.25.547-.25.86 0 1.187.657 1.468 1.11 1.468.281 0 .515-.124.719-.328.28-.296.343-.64.421-1.093.094-.47.11-.61.266-.813.078-.094.25-.312.578-.312.797 0 .797.906.797 1.03 0 .907-.766 1.141-1.25 1.25-.094.032-.14.048-.14.141 0 .126.077.126.234.126h1.14c.157 0 .235 0 .235-.094 0-.063 0-.063-.172-.235a1.18 1.18 0 0 1-.219-.171c.375-.375.39-.797.39-1.016 0-1.11-.64-1.484-1.234-1.484-.406 0-.656.171-.859.374-.297.297-.36.626-.484 1.282-.047.234-.157.89-.672.89-.281 0-.672-.203-.672-1.015 0-.969.75-1.032.969-1.047.109-.016.171-.016.171-.125 0-.125-.062-.125-.234-.125Zm0 0"/></symbol><symbol overflow="visible" id="q"><path style="stroke:none" d="m-3.969-1.656.11 1.297h.265c0-.579.063-.657.5-.657h2.406c.407 0 .407.094.407.688H0c-.016-.39-.031-.594-.031-.984 0-.141 0-.516.031-.954h-.281c0 .579-.047.61-.39.61Zm-1.562-.016a.477.477 0 0 0-.485.484c0 .266.235.485.485.485a.487.487 0 0 0 .484-.485.468.468 0 0 0-.484-.484Zm0 0"/></symbol><symbol overflow="visible" id="r"><path style="stroke:none" d="M-2.328-1.672c-.953 0-1.406-.672-1.406-1.234 0-.531.437-.64.968-.64h2.079c.406 0 .406.093.406.687H0c-.016-.422-.031-.594-.031-1.032 0-.421.015-.546.031-1.015h-.281c0 .453 0 .687-.281.687h-1.72c-.734 0-1 0-1.312.25-.25.203-.375.547-.375 1 0 .828.625 1.219.875 1.344v.016h-.875l.11 1.296h.265c0-.609.063-.687.516-.687h2.39c.407 0 .407.094.407.688H0c-.016-.422-.031-.594-.031-1.032 0-.422.015-.547.031-1.015h-.281c0 .593 0 .687-.406.687Zm0 0"/></symbol><symbol overflow="visible" id="s"><path style="stroke:none" d="M-5.922-4.703c-.125-.031-.14-.031-.172-.031-.078 0-.125.046-.125.14 0 .125.063.907.078 1.094.016.078.032.188.172.188.125 0 .125-.11.125-.25 0-.422.063-.422.14-.422.063 0 .376.078.563.125l.688.171c.344.094.687.188 1.047.266-.328.172-.563.438-.563.844 0 1.047 1.25 2.203 2.61 2.203C-.375-.375.094-1 .094-1.609c0-.579-.485-1.047-.656-1.204.5-.093.656-.546.656-.828 0-.265-.11-.484-.485-.687-.296-.156-.859-.281-.89-.281-.047 0-.11.03-.11.109 0 .11.047.125.22.156.78.203 1.046.39 1.046.672 0 .235-.219.281-.406.281-.125 0-.375-.046-.406-.046Zm4.844 1.86c.14.03.156.046.328.187.39.328.625.687.625 1.031 0 .438-.453.578-.844.578-.437 0-1.469-.25-1.906-.469-.531-.28-.86-.703-.86-1.062 0-.594.72-.735.766-.735.047 0 .094.016.14.032Zm0 0"/></symbol><clipPath id="a"><path d="M48 0h157.316v98H48Zm0 0"/></clipPath></defs><path style="fill:none;stroke-width:.3985;stroke-linecap:round;stroke-linejoin:miter;stroke:gray;stroke-opacity:1;stroke-miterlimit:10" d="M0-6.976v1.996M35.433-6.976v1.996M70.867-6.976v1.996M106.3-6.976v1.996M141.734-6.976v1.996M-6.973 5.966h1.992M-6.973 18.575h1.992M-6.973 31.188h1.992M-6.973 43.798h1.992M-6.973 56.411h1.992M-6.973 69.02h1.992M-6.973 81.63h1.992" transform="matrix(1 0 0 -1 56.555 88.641)"/><path style="fill:none;stroke-width:.3985;stroke-linecap:butt;stroke-linejoin:miter;stroke:gray;stroke-opacity:1;stroke-miterlimit:10" d="M0-4.98h141.734" transform="matrix(1 0 0 -1 56.555 88.641)"/><path style="fill:none;stroke-width:.3985;stroke-linecap:square;stroke-linejoin:miter;stroke:#bfbfbf;stroke-opacity:1;stroke-miterlimit:10" d="M0 0h141.734M0 87.59h141.734" transform="matrix(1 0 0 -1 56.555 88.641)"/><path style="fill:none;stroke-width:.3985;stroke-linecap:butt;stroke-linejoin:miter;stroke:gray;stroke-opacity:1;stroke-miterlimit:10" d="M-4.98 0v87.59" transform="matrix(1 0 0 -1 56.555 88.641)"/><path style="fill:none;stroke-width:.3985;stroke-linecap:square;stroke-linejoin:miter;stroke:#bfbfbf;stroke-opacity:1;stroke-miterlimit:10" d="M0 0v87.59M141.734 0v87.59" transform="matrix(1 0 0 -1 56.555 88.641)"/><g clip-path="url(#a)"><path style="fill:none;stroke-width:.59776;stroke-linecap:butt;stroke-linejoin:miter;stroke:#000;stroke-opacity:1;stroke-miterlimit:10" d="M0 0S11.379 6.982 15.75 9.67a17209.961 17209.961 0 0 1 31.496 19.465c4.367 2.71 11.375 7.062 15.746 9.777 4.371 2.711 11.379 7.063 15.75 9.773 4.371 2.715 11.379 7.063 15.746 9.774 4.371 2.707 11.379 7.055 15.75 9.754 4.371 2.703 11.379 7.027 15.746 9.715 4.371 2.687 15.75 9.664 15.75 9.664" transform="matrix(1 0 0 -1 56.555 88.641)"/></g><use xlink:href="#b" x="46.164" y="103.934" style="fill:#000;fill-opacity:1"/><g style="fill:#000;fill-opacity:1"><use xlink:href="#c" x="52.75" y="103.934"/><use xlink:href="#d" x="56.985" y="103.934"/></g><use xlink:href="#e" x="62.63" y="101.121" style="fill:#000;fill-opacity:1"/><use xlink:href="#b" x="83.714" y="103.934" style="fill:#000;fill-opacity:1"/><use xlink:href="#f" x="90.3" y="103.934" style="fill:#000;fill-opacity:1"/><use xlink:href="#e" x="95.946" y="101.121" style="fill:#000;fill-opacity:1"/><use xlink:href="#d" x="122.44" y="103.934" style="fill:#000;fill-opacity:1"/><use xlink:href="#e" x="128.086" y="101.121" style="fill:#000;fill-opacity:1"/><use xlink:href="#f" x="157.873" y="103.934" style="fill:#000;fill-opacity:1"/><use xlink:href="#e" x="163.519" y="101.121" style="fill:#000;fill-opacity:1"/><g style="fill:#000;fill-opacity:1"><use xlink:href="#c" x="191.189" y="103.934"/><use xlink:href="#d" x="195.424" y="103.934"/></g><use xlink:href="#e" x="201.069" y="101.121" style="fill:#000;fill-opacity:1"/><use xlink:href="#b" x="25.284" y="84.829" style="fill:#000;fill-opacity:1"/><use xlink:href="#d" x="31.871" y="84.829" style="fill:#000;fill-opacity:1"/><use xlink:href="#g" x="36.105" y="84.829" style="fill:#000;fill-opacity:1"/><g style="fill:#000;fill-opacity:1"><use xlink:href="#c" x="38.457" y="84.829"/><use xlink:href="#f" x="42.692" y="84.829"/></g><use xlink:href="#b" x="29.518" y="72.219" style="fill:#000;fill-opacity:1"/><use xlink:href="#d" x="36.105" y="72.219" style="fill:#000;fill-opacity:1"/><use xlink:href="#g" x="40.339" y="72.219" style="fill:#000;fill-opacity:1"/><use xlink:href="#c" x="42.691" y="72.219" style="fill:#000;fill-opacity:1"/><use xlink:href="#b" x="11.613" y="60.373" style="fill:#000;fill-opacity:1"/><use xlink:href="#f" x="18.2" y="60.373" style="fill:#000;fill-opacity:1"/><use xlink:href="#h" x="24.316" y="60.373" style="fill:#000;fill-opacity:1"/><g style="fill:#000;fill-opacity:1"><use xlink:href="#c" x="28.55" y="60.373"/><use xlink:href="#d" x="32.785" y="60.373"/></g><use xlink:href="#i" x="37.018" y="57.559" style="fill:#000;fill-opacity:1"/><use xlink:href="#j" x="42.774" y="57.559" style="fill:#000;fill-opacity:1"/><use xlink:href="#d" x="42.691" y="47.411" style="fill:#000;fill-opacity:1"/><use xlink:href="#f" x="18.2" y="35.566" style="fill:#000;fill-opacity:1"/><use xlink:href="#h" x="24.316" y="35.566" style="fill:#000;fill-opacity:1"/><g style="fill:#000;fill-opacity:1"><use xlink:href="#c" x="28.55" y="35.566"/><use xlink:href="#d" x="32.785" y="35.566"/></g><use xlink:href="#i" x="37.018" y="32.752" style="fill:#000;fill-opacity:1"/><use xlink:href="#j" x="42.774" y="32.752" style="fill:#000;fill-opacity:1"/><use xlink:href="#d" x="36.105" y="22.191" style="fill:#000;fill-opacity:1"/><use xlink:href="#g" x="40.339" y="22.191" style="fill:#000;fill-opacity:1"/><use xlink:href="#c" x="42.691" y="22.191" style="fill:#000;fill-opacity:1"/><use xlink:href="#d" x="31.871" y="9.579" style="fill:#000;fill-opacity:1"/><use xlink:href="#g" x="36.105" y="9.579" style="fill:#000;fill-opacity:1"/><g style="fill:#000;fill-opacity:1"><use xlink:href="#c" x="38.457" y="9.579"/><use xlink:href="#f" x="42.692" y="9.579"/></g><g style="fill:#000;fill-opacity:1"><use xlink:href="#k" x="108.177" y="115.507"/><use xlink:href="#l" x="114.068" y="115.507"/><use xlink:href="#m" x="118.937" y="115.507"/><use xlink:href="#n" x="124.245" y="115.507"/><use xlink:href="#l" x="128.62" y="115.507"/><use xlink:href="#l" x="133.489" y="115.507"/></g><use xlink:href="#o" x="141.891" y="115.507" style="fill:#000;fill-opacity:1"/><g style="fill:#000;fill-opacity:1"><use xlink:href="#p" x="7.097" y="53.658"/><use xlink:href="#q" x="7.097" y="50.024"/><use xlink:href="#r" x="7.097" y="47.464"/></g><use xlink:href="#s" x="7.097" y="40.807" style="fill:#000;fill-opacity:1"/></svg>