<svg xmlns="http://www.w3.org/2000/svg" width="116.331" height="78.699" viewBox="0 0 87.248 59.024" version="1.2"><defs><clipPath id="a"><path d="M0 0h64v58.535H0Zm0 0"/></clipPath></defs><path style="fill:none;stroke-width:.19925;stroke-linecap:butt;stroke-linejoin:miter;stroke:gray;stroke-opacity:1;stroke-miterlimit:10" d="M.001 0h85.04M0 28.348h85.04M0 56.684h85.04M0 0v56.695M28.345 0v56.695M56.693 0v56.695M85.029 0v56.695" transform="matrix(1 0 0 -1 .733 57.422)"/><g clip-path="url(#a)"><path style="fill:none;stroke-width:.3985;stroke-linecap:butt;stroke-linejoin:miter;stroke:red;stroke-opacity:1;stroke-miterlimit:10" d="M56.693 0C56.693 31.313 31.31 56.695 0 56.695" transform="matrix(1 0 0 -1 .733 57.422)"/><path style="fill:none;stroke-width:.3985;stroke-linecap:butt;stroke-linejoin:miter;stroke:#000;stroke-opacity:1;stroke-miterlimit:10" d="M56.693 0a84.995 84.995 0 0 1-.274 5.555 86.9 86.9 0 0 1-.816 5.504 85.82 85.82 0 0 1-1.352 5.398 86.139 86.139 0 0 1-1.875 5.238 84.363 84.363 0 0 1-2.379 5.028 82.852 82.852 0 0 1-2.859 4.773 88.111 88.111 0 0 1-3.316 4.469 84.766 84.766 0 0 1-3.735 4.121 81.176 81.176 0 0 1-4.125 3.734 81.997 81.997 0 0 1-4.465 3.317 83.295 83.295 0 0 1-4.773 2.86 85.64 85.64 0 0 1-5.031 2.378 82.694 82.694 0 0 1-5.239 1.875c-1.78.512-3.582.961-5.394 1.352-1.824.332-3.66.605-5.504.816a87.968 87.968 0 0 1-5.555.277" transform="matrix(1 0 0 -1 .733 57.422)"/></g></svg>