<svg xmlns="http://www.w3.org/2000/svg" width="20.14" height="121.875" viewBox="0 0 15.105 91.406" version="1.2"><defs><clipPath id="a"><path d="M0 0h14.656v91.11H0Zm0 0"/></clipPath></defs><g clip-path="url(#a)"><path style="fill:none;stroke-width:.3985;stroke-linecap:butt;stroke-linejoin:miter;stroke:#000;stroke-opacity:1;stroke-miterlimit:10" d="m.027 44.52 10.555-5.106m2.27-46.836s-3.715-.586-4.985-.45c-1.265.137-3.199.852-4.156 1.446-.961.594-2.238 1.953-2.75 2.844C.445-2.692 0-.992 0 0 0 .996.445 2.69.961 3.582c.512.894 1.789 2.25 2.75 2.843.957.594 2.89 1.309 4.156 1.446 1.27.136 4.985-.45 4.985-.45m-2.27-46.835L.027-44.52" transform="matrix(1 0 0 -1 .77 45.402)"/></g></svg>