<svg xmlns="http://www.w3.org/2000/svg" xmlns:xlink="http://www.w3.org/1999/xlink" width="147.099" height="180.171" viewBox="0 0 110.324 135.128" version="1.2"><defs><symbol overflow="visible" id="a"><path style="stroke:none" d="M5.516-.234c0-.235-.125-.235-.266-.235-.61-.015-.61-.14-.61-.375v-2.14c0-.891-.702-1.532-2.187-1.532-.562 0-1.781.047-1.781.922 0 .438.344.625.61.625.312 0 .624-.219.624-.625 0-.297-.187-.469-.218-.5a5.28 5.28 0 0 1 .718-.062c.75 0 1.11.422 1.11 1.172v.343c-.72.032-3.25.125-3.25 1.563C.266-.125 1.5.062 2.187.062c.797 0 1.266-.406 1.485-.828 0 .313 0 .766 1.047.766h.468c.204 0 .329 0 .329-.234Zm-2-1.157c0 .97-.922 1.094-1.172 1.094-.516 0-.906-.344-.906-.797 0-1.062 1.578-1.203 2.078-1.234Zm0 0"/></symbol><symbol overflow="visible" id="c"><path style="stroke:none" d="M5.984-2.219c0-1.328-.937-2.265-2.39-2.265-.719 0-1.219.28-1.453.484v-2.922l-1.766.078v.469c.61 0 .688 0 .688.39V0h.468c.157-.188.328-.375.485-.563.078.079.562.625 1.453.625 1.484 0 2.515-.906 2.515-2.28Zm-1.28 0c0 .469 0 1.016-.25 1.406-.298.407-.75.516-1.079.516-.688 0-1.078-.547-1.188-.687v-2.5c.282-.36.75-.641 1.297-.641 1.22 0 1.22 1.203 1.22 1.906Zm0 0"/></symbol><symbol overflow="visible" id="f"><path style="stroke:none" d="M4.766-1.172c0-.14-.141-.14-.235-.14-.187 0-.187.03-.25.156-.25.625-.734.812-1.234.812-1.39 0-1.39-1.453-1.39-1.922 0-.562 0-1.843 1.28-1.843.36 0 .516.015.657.046a.618.618 0 0 0-.203.47c0 .437.343.624.609.624.313 0 .64-.219.64-.625 0-.86-1.156-.922-1.734-.922C1.11-4.516.375-3.375.375-2.219.375-.89 1.313.062 2.844.062c1.625 0 1.922-1.156 1.922-1.234Zm0 0"/></symbol><symbol overflow="visible" id="h"><path style="stroke:none" d="M5.984 0v-.469c-.609 0-.687 0-.687-.39v-6.063l-1.766.078v.469c.625 0 .703 0 .703.39v1.954a2.178 2.178 0 0 0-1.359-.453c-1.453 0-2.5.875-2.5 2.28 0 1.313.922 2.267 2.39 2.267.61 0 1.094-.235 1.407-.485v.484ZM4.172-1.031c-.14.187-.547.734-1.297.734-1.219 0-1.219-1.203-1.219-1.906 0-.485 0-1.016.25-1.406.297-.422.766-.516 1.078-.516.563 0 .97.313 1.188.61Zm0 0"/></symbol><symbol overflow="visible" id="i"><path style="stroke:none" d="M4.922-1.172c0-.172-.188-.172-.234-.172-.172 0-.188.047-.25.203-.204.485-.782.797-1.422.797-1.407 0-1.422-1.328-1.422-1.828h3.015c.22 0 .313 0 .313-.265 0-.313-.063-1.047-.563-1.547-.359-.36-.89-.532-1.578-.532C1.187-4.516.312-3.484.312-2.25c0 1.344 1 2.313 2.61 2.313 1.578 0 2-1.063 2-1.235ZM3.984-2.5h-2.39c.015-.39.031-.813.234-1.14.266-.391.672-.516.953-.516 1.172 0 1.188 1.312 1.203 1.656Zm0 0"/></symbol><symbol overflow="visible" id="j"><path style="stroke:none" d="M4.36-6.11c0-.421-.36-.874-1.141-.874-.969 0-2.047.421-2.047 1.546v1.016h-.75v.469h.75V-.47H.484V0l1.25-.031c.375 0 1.016 0 1.375.031v-.469H2.25v-3.484h1.14v-.469H2.188v-1.016c0-1.093.75-1.187 1-1.187.047 0 .11 0 .172.031a.585.585 0 0 0-.234.485c0 .421.36.609.61.609.296 0 .624-.203.624-.61Zm0 0"/></symbol><symbol overflow="visible" id="l"><path style="stroke:none" d="M5.563-3.953c0-.235-.172-.578-.625-.578-.157 0-.625.031-1.063.375-.172-.125-.594-.328-1.328-.328-1.438 0-1.985.78-1.985 1.468 0 .407.188.829.516 1.047-.281.36-.344.688-.344.89 0 .157.047.641.438.954-.125.031-.86.25-.86.875C.313 1.25.875 2 2.86 2 4.625 2 5.406 1.422 5.406.719c0-.297-.078-.922-.75-1.266-.562-.281-1.156-.281-2.11-.281-.265 0-.718 0-.765-.016a.625.625 0 0 1-.562-.625c0-.093.047-.25.11-.328.452.234.968.266 1.218.266 1.437 0 1.984-.782 1.984-1.485 0-.468-.25-.796-.406-.953.297-.156.516-.172.625-.187a.433.433 0 0 0-.047.203c0 .25.172.422.438.422a.41.41 0 0 0 .421-.422Zm-2.141.937c0 .454 0 1.125-.875 1.125s-.875-.671-.875-1.125c0-.437 0-1.109.875-1.109s.875.672.875 1.11ZM4.547.75c0 .36-.39.89-1.688.89-1.187 0-1.687-.452-1.687-.906 0-.609.625-.609.766-.609h1.171c.313 0 1.438 0 1.438.625Zm0 0"/></symbol><symbol overflow="visible" id="n"><path style="stroke:none" d="M6.125 0v-.469h-.688v-2.578c0-1.047-.53-1.437-1.53-1.437a1.9 1.9 0 0 0-1.688.953v-3.39l-1.766.077v.469c.61 0 .688 0 .688.39v5.516H.453V0l1.25-.031L2.953 0v-.469h-.687v-2.078c0-1.094.859-1.578 1.5-1.578.328 0 .546.203.546.969V-.47h-.687V0l1.25-.031Zm0 0"/></symbol><symbol overflow="visible" id="o"><path style="stroke:none" d="M2.844 0v-.469h-.61v-4.015L.5-4.406v.468c.594 0 .656 0 .656.391v3.078H.47V0l1.219-.031Zm-.469-6.047a.774.774 0 0 0-.781-.781.784.784 0 0 0-.782.781c0 .422.36.766.782.766a.77.77 0 0 0 .781-.766Zm0 0"/></symbol><symbol overflow="visible" id="p"><path style="stroke:none" d="M2.656.422v-4.906l-1.828.078v.468c.172 0 .39 0 .531.016.22.047.22.172.22.39V.423c0 .5-.141 1.219-.735 1.219-.172 0-.25-.032-.39-.063a.624.624 0 0 0 .233-.5.617.617 0 0 0-.625-.625c-.374 0-.625.281-.625.64 0 .563.61.907 1.422.907.86 0 1.797-.531 1.797-1.578Zm0-6.469a.774.774 0 1 0-1.547-.015.774.774 0 0 0 1.547.015Zm0 0"/></symbol><symbol overflow="visible" id="r"><path style="stroke:none" d="M5.86 0v-.469h-.173c-.437 0-.468-.047-.593-.203L3.406-2.766 4.703-3.78c.14-.11.234-.172.906-.172v-.469c-.28.031-.53.031-.78.031l-1.157-.03v.468c.234 0 .265.031.344.11L2.14-2.36v-4.563l-1.766.078v.469c.61 0 .688 0 .688.39v5.516H.375V0l1.188-.031L2.766 0v-.469h-.688v-1.265c.297-.235.375-.297.578-.422l1 1.25c.094.125.25.312.25.344 0 .093-.172.093-.312.093V0a52.51 52.51 0 0 1 1.219-.031c.359 0 .703.015 1.046.031Zm0 0"/></symbol><symbol overflow="visible" id="s"><path style="stroke:none" d="M2.922 0v-.469h-.688v-6.453L.47-6.844v.469c.625 0 .687 0 .687.39v5.516H.47V0l1.219-.031Zm0 0"/></symbol><symbol overflow="visible" id="b"><path style="stroke:none" d="M3.422-1.578c0-.844-.219-1.719-1.531-1.719-1.313 0-1.532.86-1.532 1.719C.36-.688.625.078 1.891.078c1.28 0 1.53-.797 1.53-1.656Zm-.75-.078c0 .312 0 .781-.078 1.015-.125.407-.516.454-.703.454-.204 0-.594-.063-.704-.454-.078-.25-.078-.656-.078-1.015 0-.36 0-.75.094-1 .078-.219.344-.36.688-.36.296 0 .593.094.703.391.078.234.078.64.078.969Zm0 0"/></symbol><symbol overflow="visible" id="d"><path style="stroke:none" d="M3.188 0v-.328H2.28V-3.11c0-.157-.015-.188-.187-.188H2c-.438.328-1.078.328-1.188.328h-.14v.328h.14c.063 0 .438 0 .813-.125v2.438H.719V0c.25-.016.953-.016 1.234-.016s1 0 1.234.016Zm0 0"/></symbol><symbol overflow="visible" id="e"><path style="stroke:none" d="M1.516-.422a.434.434 0 0 0-.422-.437.447.447 0 0 0-.438.437c0 .234.203.422.438.422a.42.42 0 0 0 .422-.422Zm0 0"/></symbol><symbol overflow="visible" id="g"><path style="stroke:none" d="M3.328-1.047h-.406c-.031.188-.11.313-.156.328-.11.016-.329.016-.5.016H1.53c.313-.203.61-.39.828-.516.563-.312.97-.531.97-1.047 0-.625-.563-1.03-1.548-1.03-.234 0-1.343 0-1.343.733 0 .297.25.422.421.422.188 0 .407-.14.407-.406 0-.187-.11-.297-.125-.312.171-.094.359-.094.468-.094.5 0 .938.234.938.687 0 .391-.313.688-.625.907L.532-.344C.436-.28.436-.266.436-.156V0h2.704Zm0 0"/></symbol><symbol overflow="visible" id="k"><path style="stroke:none" d="M3.39-.906c0-.438-.406-.735-.89-.844.297-.094.688-.344.688-.813 0-.406-.454-.734-1.344-.734-.797 0-1.25.344-1.25.797 0 .281.219.422.39.422a.394.394 0 0 0 .407-.406c0-.25-.188-.36-.188-.36.203-.14.453-.172.625-.172.484 0 .594.204.594.454 0 .203-.125.656-.735.671-.046 0-.265.016-.312.016-.078.016-.078.11-.078.14 0 .141.078.141.172.141h.343c.672 0 .72.407.72.688 0 .25-.032.687-.72.687-.109 0-.484-.015-.75-.172A.436.436 0 0 0 1.25-.75a.427.427 0 0 0-.438-.438c-.25 0-.421.172-.421.438 0 .5.484.828 1.437.828 1.234 0 1.563-.594 1.563-.984Zm0 0"/></symbol><symbol overflow="visible" id="m"><path style="stroke:none" d="M3.5 0v-.328h-.656v-.438H3.5v-.343h-.656v-2.032c0-.156-.031-.187-.188-.187h-.36c-.124 0-.155 0-.202.078L.28-1.11v.344h1.86v.438h-.704V0c.235-.016.766-.016 1.047-.016.266 0 .75 0 1.016.016ZM2.219-1.11h-1.5l1.5-1.78Zm0 0"/></symbol><symbol overflow="visible" id="q"><path style="stroke:none" d="M3.328-1c0-.5-.39-1.063-1.39-1.063a1.79 1.79 0 0 0-.782.157v-.547c.188.031.407.031.407.031A1.94 1.94 0 0 0 2.968-3c.078-.078.078-.078.078-.156 0-.031 0-.14-.11-.14 0 0-.015 0-.046.015-.204.047-.547.14-1.016.14-.344 0-.672-.046-1-.14-.047-.016-.063-.016-.078-.016-.11 0-.11.11-.11.188v1.5c0 .156.032.187.188.187.11 0 .11 0 .203-.094.078-.062.281-.28.828-.28.657 0 .657.468.657.765s0 .812-.844.812c-.078 0-.453 0-.688-.203a.39.39 0 0 0 .203-.344.4.4 0 0 0-.39-.406c-.188 0-.406.125-.406.406 0 .485.5.844 1.296.844C2.844.078 3.328-.453 3.328-1Zm0 0"/></symbol></defs><use xlink:href="#a" x="2.493" y="5.065" style="fill:#000;fill-opacity:1"/><use xlink:href="#b" x="3.39" y="13.035" style="fill:#000;fill-opacity:1"/><use xlink:href="#b" x="3.39" y="19.013" style="fill:#000;fill-opacity:1"/><use xlink:href="#c" x="2.095" y="34.612" style="fill:#000;fill-opacity:1"/><use xlink:href="#b" x="3.39" y="42.582" style="fill:#000;fill-opacity:1"/><g style="fill:#000;fill-opacity:1"><use xlink:href="#d" x=".416" y="48.56"/><use xlink:href="#e" x="4.192" y="48.56"/><use xlink:href="#b" x="6.364" y="48.56"/></g><use xlink:href="#f" x="2.733" y="61.758" style="fill:#000;fill-opacity:1"/><use xlink:href="#b" x="3.39" y="69.728" style="fill:#000;fill-opacity:1"/><g style="fill:#000;fill-opacity:1"><use xlink:href="#g" x=".416" y="75.706"/><use xlink:href="#e" x="4.192" y="75.706"/><use xlink:href="#b" x="6.364" y="75.706"/></g><use xlink:href="#h" x="21.937" y="62.959" style="fill:#000;fill-opacity:1"/><g style="fill:#000;fill-opacity:1"><use xlink:href="#d" x="20.259" y="70.929"/><use xlink:href="#e" x="24.035" y="70.929"/><use xlink:href="#b" x="26.207" y="70.929"/></g><g style="fill:#000;fill-opacity:1"><use xlink:href="#g" x="20.259" y="76.906"/><use xlink:href="#e" x="24.035" y="76.906"/><use xlink:href="#b" x="26.207" y="76.906"/></g><path style="fill:none;stroke-width:.3985;stroke-linecap:butt;stroke-linejoin:miter;stroke:#000;stroke-opacity:1;stroke-miterlimit:10" d="M6.058-56.695h7.328" transform="matrix(1 0 0 -1 5.278 9.825)"/><path style="fill:none;stroke-width:.3985;stroke-linecap:round;stroke-linejoin:round;stroke:#000;stroke-opacity:1;stroke-miterlimit:10" d="M-2.071 2.39C-1.692.956-.85.28-.001 0c-.848-.278-1.691-.958-2.07-2.392" transform="matrix(1 0 0 -1 18.864 66.519)"/><use xlink:href="#i" x="42.338" y="61.758" style="fill:#000;fill-opacity:1"/><g style="fill:#000;fill-opacity:1"><use xlink:href="#g" x="40.101" y="69.728"/><use xlink:href="#e" x="43.877" y="69.728"/><use xlink:href="#b" x="46.049" y="69.728"/></g><g style="fill:#000;fill-opacity:1"><use xlink:href="#g" x="40.101" y="75.706"/><use xlink:href="#e" x="43.877" y="75.706"/><use xlink:href="#b" x="46.049" y="75.706"/></g><use xlink:href="#j" x="63.057" y="62.989" style="fill:#000;fill-opacity:1"/><g style="fill:#000;fill-opacity:1"><use xlink:href="#k" x="59.944" y="70.959"/><use xlink:href="#e" x="63.72" y="70.959"/><use xlink:href="#b" x="65.892" y="70.959"/></g><g style="fill:#000;fill-opacity:1"><use xlink:href="#g" x="59.944" y="76.936"/><use xlink:href="#e" x="63.72" y="76.936"/><use xlink:href="#b" x="65.892" y="76.936"/></g><path style="fill:none;stroke-width:.3985;stroke-linecap:butt;stroke-linejoin:miter;stroke:#000;stroke-opacity:1;stroke-miterlimit:10" d="M45.742-56.695h7.332" transform="matrix(1 0 0 -1 5.278 9.825)"/><path style="fill:none;stroke-width:.3985;stroke-linecap:round;stroke-linejoin:round;stroke:#000;stroke-opacity:1;stroke-miterlimit:10" d="M-2.073 2.39C-1.694.956-.85.28 0 0-.85-.279-1.694-.959-2.073-2.393" transform="matrix(1 0 0 -1 58.55 66.519)"/><use xlink:href="#l" x="81.784" y="61.768" style="fill:#000;fill-opacity:1"/><g style="fill:#000;fill-opacity:1"><use xlink:href="#m" x="79.786" y="69.738"/><use xlink:href="#e" x="83.562" y="69.738"/><use xlink:href="#b" x="85.734" y="69.738"/></g><g style="fill:#000;fill-opacity:1"><use xlink:href="#g" x="79.786" y="75.716"/><use xlink:href="#e" x="83.562" y="75.716"/><use xlink:href="#b" x="85.734" y="75.716"/></g><path style="fill:none;stroke-width:.3985;stroke-linecap:butt;stroke-linejoin:miter;stroke:#000;stroke-opacity:1;stroke-miterlimit:10" d="M65.585-56.695h7.328" transform="matrix(1 0 0 -1 5.278 9.825)"/><path style="fill:none;stroke-width:.3985;stroke-linecap:round;stroke-linejoin:round;stroke:#000;stroke-opacity:1;stroke-miterlimit:10" d="M-2.072 2.39C-1.693.956-.85.28-.002 0c-.847-.278-1.691-.958-2.07-2.392" transform="matrix(1 0 0 -1 78.392 66.519)"/><use xlink:href="#n" x="41.78" y="91.305" style="fill:#000;fill-opacity:1"/><g style="fill:#000;fill-opacity:1"><use xlink:href="#g" x="40.101" y="99.275"/><use xlink:href="#e" x="43.877" y="99.275"/><use xlink:href="#b" x="46.049" y="99.275"/></g><g style="fill:#000;fill-opacity:1"><use xlink:href="#k" x="40.101" y="105.253"/><use xlink:href="#e" x="43.877" y="105.253"/><use xlink:href="#b" x="46.049" y="105.253"/></g><use xlink:href="#o" x="63.216" y="91.26" style="fill:#000;fill-opacity:1"/><g style="fill:#000;fill-opacity:1"><use xlink:href="#k" x="59.944" y="99.23"/><use xlink:href="#e" x="63.72" y="99.23"/><use xlink:href="#b" x="65.892" y="99.23"/></g><g style="fill:#000;fill-opacity:1"><use xlink:href="#k" x="59.944" y="105.208"/><use xlink:href="#e" x="63.72" y="105.208"/><use xlink:href="#b" x="65.892" y="105.208"/></g><path style="fill:none;stroke-width:.3985;stroke-linecap:butt;stroke-linejoin:miter;stroke:#000;stroke-opacity:1;stroke-miterlimit:10" d="M45.742-85.042h7.332" transform="matrix(1 0 0 -1 5.278 9.825)"/><path style="fill:none;stroke-width:.3985;stroke-linecap:round;stroke-linejoin:round;stroke:#000;stroke-opacity:1;stroke-miterlimit:10" d="M-2.073 2.393C-1.694.955-.85.279 0-.002c-.851-.277-1.695-.953-2.074-2.39" transform="matrix(1 0 0 -1 58.55 94.865)"/><path style="fill:none;stroke-width:.3985;stroke-linecap:butt;stroke-linejoin:miter;stroke:#000;stroke-opacity:1;stroke-miterlimit:10" d="M25.902-56.695h7.328" transform="matrix(1 0 0 -1 5.278 9.825)"/><path style="fill:none;stroke-width:.3985;stroke-linecap:round;stroke-linejoin:round;stroke:#000;stroke-opacity:1;stroke-miterlimit:10" d="M-2.074 2.39C-1.695.956-.851.28 0 0-.85-.279-1.695-.959-2.074-2.393" transform="matrix(1 0 0 -1 38.707 66.519)"/><path style="fill:none;stroke-width:.3985;stroke-linecap:butt;stroke-linejoin:miter;stroke:#000;stroke-opacity:1;stroke-miterlimit:10" d="m25.902-65.347 7.496-10.715" transform="matrix(1 0 0 -1 5.278 9.825)"/><path style="fill:none;stroke-width:.3985;stroke-linecap:round;stroke-linejoin:round;stroke:#000;stroke-opacity:1;stroke-miterlimit:10" d="M-2.073 2.391C-1.693.958-.85.277 0 .001c-.85-.283-1.694-.956-2.074-2.392" transform="matrix(.57338 .81926 .81926 -.57338 38.792 86.05)"/><use xlink:href="#p" x="102.742" y="62.914" style="fill:#000;fill-opacity:1"/><g style="fill:#000;fill-opacity:1"><use xlink:href="#q" x="99.629" y="70.884"/><use xlink:href="#e" x="103.405" y="70.884"/><use xlink:href="#b" x="105.577" y="70.884"/></g><g style="fill:#000;fill-opacity:1"><use xlink:href="#g" x="99.629" y="76.862"/><use xlink:href="#e" x="103.405" y="76.862"/><use xlink:href="#b" x="105.577" y="76.862"/></g><path style="fill:none;stroke-width:.3985;stroke-linecap:butt;stroke-linejoin:miter;stroke:#000;stroke-opacity:1;stroke-miterlimit:10" d="M85.429-56.695h7.328" transform="matrix(1 0 0 -1 5.278 9.825)"/><path style="fill:none;stroke-width:.3985;stroke-linecap:round;stroke-linejoin:round;stroke:#000;stroke-opacity:1;stroke-miterlimit:10" d="M-2.071 2.39C-1.692.956-.848.28-.001 0c-.847-.278-1.691-.958-2.07-2.392" transform="matrix(1 0 0 -1 98.235 66.519)"/><path style="fill:none;stroke-width:.3985;stroke-linecap:butt;stroke-linejoin:miter;stroke:#000;stroke-opacity:1;stroke-miterlimit:10" d="m65.585-80.714 27.246 19.46" transform="matrix(1 0 0 -1 5.278 9.825)"/><path style="fill:none;stroke-width:.3985;stroke-linecap:round;stroke-linejoin:round;stroke:#000;stroke-opacity:1;stroke-miterlimit:10" d="M-2.073 2.392C-1.693.954-.85.28.001 0c-.85-.276-1.695-.955-2.072-2.39" transform="scale(.99994 -.99994) rotate(35.54 159.852 117.843)"/><use xlink:href="#r" x="2.254" y="119.652" style="fill:#000;fill-opacity:1"/><use xlink:href="#b" x="3.39" y="127.622" style="fill:#000;fill-opacity:1"/><g style="fill:#000;fill-opacity:1"><use xlink:href="#m" x=".416" y="133.599"/><use xlink:href="#e" x="4.192" y="133.599"/><use xlink:href="#b" x="6.364" y="133.599"/></g><use xlink:href="#s" x="23.531" y="119.652" style="fill:#000;fill-opacity:1"/><g style="fill:#000;fill-opacity:1"><use xlink:href="#d" x="20.259" y="127.622"/><use xlink:href="#e" x="24.035" y="127.622"/><use xlink:href="#b" x="26.207" y="127.622"/></g><g style="fill:#000;fill-opacity:1"><use xlink:href="#m" x="20.259" y="133.599"/><use xlink:href="#e" x="24.035" y="133.599"/><use xlink:href="#b" x="26.207" y="133.599"/></g><path style="fill:none;stroke-width:.3985;stroke-linecap:butt;stroke-linejoin:miter;stroke:#000;stroke-opacity:1;stroke-miterlimit:10" d="M6.058-113.386h7.328" transform="matrix(1 0 0 -1 5.278 9.825)"/><path style="fill:none;stroke-width:.3985;stroke-linecap:round;stroke-linejoin:round;stroke:#000;stroke-opacity:1;stroke-miterlimit:10" d="M-2.071 2.392C-1.692.958-.85.279-.001.002-.849-.28-1.692-.957-2.07-2.39" transform="matrix(1 0 0 -1 18.864 123.212)"/></svg>