<svg xmlns="http://www.w3.org/2000/svg" xmlns:xlink="http://www.w3.org/1999/xlink" width="121.491" height="125.379" viewBox="0 0 91.118 94.034" version="1.2"><defs><symbol overflow="visible" id="a"><path style="stroke:none" d="M3.719-3.766c-.188-.375-.469-.64-.922-.64-1.156 0-2.39 1.468-2.39 2.922C.406-.547.952.109 1.718.109c.203 0 .703-.046 1.297-.75a.91.91 0 0 0 .906.75c.36 0 .578-.234.75-.546a6.49 6.49 0 0 0 .297-.985c0-.11-.094-.11-.125-.11-.094 0-.11.048-.14.188-.173.64-.345 1.235-.75 1.235-.282 0-.298-.266-.298-.454 0-.218.016-.312.125-.75.11-.406.125-.515.219-.89l.36-1.39c.062-.282.062-.298.062-.345 0-.171-.11-.265-.281-.265-.25 0-.391.219-.422.437Zm-.64 2.579c-.063.187-.063.203-.204.375-.438.546-.844.703-1.125.703-.5 0-.64-.547-.64-.938 0-.5.312-1.719.546-2.187.313-.579.75-.954 1.157-.954.64 0 .78.813.78.875a.562.562 0 0 1-.03.172Zm0 0"/></symbol><symbol overflow="visible" id="b"><path style="stroke:none" d="M2.375-6.813s0-.109-.125-.109c-.219 0-.953.078-1.219.11-.078 0-.187.015-.187.187 0 .125.094.125.25.125.468 0 .484.063.484.172 0 .062-.078.406-.125.61l-.828 3.25c-.11.5-.156.671-.156 1.015C.469-.516 1 .109 1.734.109c1.172 0 2.407-1.484 2.407-2.921 0-.907-.532-1.594-1.329-1.594-.453 0-.874.297-1.171.593Zm-.922 3.766c.047-.219.047-.234.14-.344.485-.64.938-.796 1.204-.796.36 0 .625.296.625.937 0 .594-.328 1.734-.516 2.11-.328.671-.781 1.03-1.172 1.03-.343 0-.671-.265-.671-1 0-.202 0-.39.156-1.015Zm0 0"/></symbol><symbol overflow="visible" id="c"><path style="stroke:none" d="M3.953-3.781c-.172 0-.297 0-.437.125a.53.53 0 0 0-.188.39c0 .25.188.36.375.36.281 0 .547-.25.547-.64 0-.485-.469-.86-1.172-.86-1.344 0-2.672 1.422-2.672 2.828C.406-.672.984.109 2.031.109c1.422 0 2.25-1.062 2.25-1.171 0-.063-.047-.141-.11-.141-.062 0-.077.031-.14.11-.781.984-1.875.984-1.984.984-.625 0-.906-.485-.906-1.094 0-.406.203-1.375.546-1.984.313-.579.86-1 1.407-1 .328 0 .719.125.86.406Zm0 0"/></symbol><symbol overflow="visible" id="d"><path style="stroke:none" d="M5.14-6.813s0-.109-.124-.109c-.157 0-1.094.094-1.266.11-.078.015-.14.062-.14.187s.093.125.234.125c.484 0 .5.063.5.172l-.032.203-.593 2.36c-.188-.376-.469-.641-.922-.641-1.156 0-2.39 1.468-2.39 2.922C.406-.547.952.109 1.718.109c.203 0 .703-.046 1.297-.75a.91.91 0 0 0 .906.75c.36 0 .578-.234.75-.546a6.49 6.49 0 0 0 .297-.985c0-.11-.094-.11-.125-.11-.094 0-.11.048-.14.188-.173.64-.345 1.235-.75 1.235-.282 0-.298-.266-.298-.454 0-.25.016-.312.047-.484ZM3.079-1.188c-.062.188-.062.204-.203.375-.438.547-.844.704-1.125.704-.5 0-.64-.547-.64-.938 0-.5.312-1.719.546-2.187.313-.579.75-.954 1.157-.954.64 0 .78.813.78.875a.562.562 0 0 1-.03.172Zm0 0"/></symbol><symbol overflow="visible" id="e"><path style="stroke:none" d="M4.469-2c0-1.188-.813-2.188-1.89-2.188-.47 0-.907.157-1.267.516v-1.953c.204.063.532.125.844.125 1.235 0 1.938-.906 1.938-1.031 0-.063-.032-.11-.11-.11 0 0-.03 0-.078.032a3.22 3.22 0 0 1-1.36.296c-.39 0-.858-.078-1.327-.28-.078-.032-.094-.032-.11-.032C1-6.625 1-6.547 1-6.391v2.954c0 .171 0 .25.14.25.079 0 .094-.016.141-.079.11-.156.469-.703 1.282-.703.515 0 .765.453.843.64.156.376.188.75.188 1.25 0 .36 0 .954-.25 1.376-.235.39-.61.64-1.063.64-.719 0-1.297-.53-1.469-1.109.032 0 .063.016.172.016.329 0 .5-.25.5-.485 0-.25-.171-.5-.5-.5-.14 0-.484.079-.484.532C.5-.75 1.188.219 2.297.219 3.453.219 4.469-.734 4.469-2Zm0 0"/></symbol><symbol overflow="visible" id="f"><path style="stroke:none" d="M0 9.328h.469v-.687h2.578c1.031 0 1.437-.516 1.437-1.547 0-.907-.5-1.422-.953-1.688.922-.187.953-1.11.953-1.484 0-.875-.453-1.438-1.078-1.766h1.078L4.406.453h-.468c0 .61 0 .688-.391.688H.469V.453H0l.031 1.25L0 2.953h.469v-.687h2.078c1.094 0 1.578.875 1.578 1.5 0 .328-.203.546-.969.546H.47v-.687H0l.031 1.266L0 6.14h.469v-.688h2.078c1.094 0 1.578.86 1.578 1.484 0 .344-.203.563-.969.563H.47v-.688H0l.031 1.25Zm0 0"/></symbol><symbol overflow="visible" id="g"><path style="stroke:none" d="M0 2.844h.469v-.61h4.015L4.406.5h-.468c0 .594 0 .656-.391.656H.469V.47H0l.031 1.219Zm6.047-.469a.774.774 0 0 0 .781-.781.784.784 0 0 0-.781-.782.78.78 0 0 0-.766.782.77.77 0 0 0 .766.781Zm0 0"/></symbol><symbol overflow="visible" id="h"><path style="stroke:none" d="M1.39 4.14c.438 0 .782-.202 1.063-.546.281-.39.344-.719.485-1.485.062-.375.171-1.015.64-1.015.625 0 .625.922.625 1.11 0 .75-.297 1.124-.844 1.171-.156.016-.203.031-.203.234 0 .235.047.235.281.235h.797c.188 0 .282 0 .282-.172 0-.047 0-.063-.188-.453.125-.266.188-.61.188-1 0-.313 0-1.844-1.313-1.844-.39 0-.656.203-.828.406-.344.39-.406.781-.547 1.547-.062.36-.187 1.094-.781 1.094-.75 0-.75-.906-.75-1.125 0-1.063.734-1.313 1.156-1.438.14-.046.14-.109.14-.234 0-.25-.062-.25-.28-.25H.218c-.188 0-.281 0-.281.188 0 .062 0 .078.156.296l.172.25c-.329.47-.329.985-.329 1.188 0 .312 0 1.844 1.454 1.844Zm0 0"/></symbol><symbol overflow="visible" id="i"><path style="stroke:none" d="M0 6.125h.469v-.688h2.578c1.047 0 1.437-.53 1.437-1.53 0-.954-.562-1.485-1.078-1.75h1.078L4.406.452h-.468c0 .61 0 .688-.391.688H.469V.453H0l.031 1.25L0 2.953h.469v-.687h2.078c1.094 0 1.578.859 1.578 1.5 0 .328-.203.546-.969.546H.47v-.687H0l.031 1.25Zm0 0"/></symbol><symbol overflow="visible" id="j"><path style="stroke:none" d="M3.953 5.563c.235 0 .578-.172.578-.625 0-.157-.031-.625-.375-1.063.125-.172.328-.594.328-1.328 0-1.438-.78-1.985-1.468-1.985-.407 0-.829.188-1.047.516-.36-.281-.688-.344-.89-.344-.157 0-.641.047-.954.438-.031-.125-.25-.86-.875-.86C-1.25.313-2 .875-2 2.86c0 1.766.578 2.547 1.281 2.547.297 0 .922-.078 1.266-.75.281-.562.281-1.156.281-2.11 0-.265 0-.718.016-.765a.625.625 0 0 1 .625-.562c.093 0 .25.047.328.11-.234.452-.266.968-.266 1.218 0 1.437.782 1.984 1.485 1.984.468 0 .796-.25.953-.406.156.297.172.516.187.625a.433.433 0 0 0-.203-.047c-.25 0-.422.172-.422.438 0 .25.188.421.422.421Zm-.937-2.141c-.454 0-1.125 0-1.125-.875s.671-.875 1.125-.875c.437 0 1.109 0 1.109.875s-.672.875-1.11.875ZM-.75 4.547c-.36 0-.89-.39-.89-1.688 0-1.187.452-1.687.906-1.687.609 0 .609.625.609.766v1.171c0 .313 0 1.438-.625 1.438Zm0 0"/></symbol><symbol overflow="visible" id="k"><path style="stroke:none" d="M1.297-6.89.969-7.22c-.172.203-.36.39-.547.578l-.656.625.328.329c.14-.141.36-.297.406-.25 0 0 .016.015.047.109L1.5-3.25l-2.813-1.031.375-.375-.328-.328-.859.89-.813.782.329.328.437-.438L1.718-2c.266.078.36-.016.438-.094.125-.125.188-.219.094-.437L.906-6.22c-.047-.14-.062-.218.39-.672Zm0 0"/></symbol><symbol overflow="visible" id="l"><path style="stroke:none" d="M2.656-4.313c-.125-.125-.265.016-.297.047-.125.125-.093.157-.03.313.202.484 0 1.125-.454 1.578-.984.984-1.938.063-2.281-.281l2.14-2.14c.141-.141.22-.22.032-.407-.22-.219-.797-.703-1.5-.688-.516-.015-1 .25-1.485.735-1.125 1.125-1.031 2.468-.156 3.343.953.954 2.344.938 3.484-.203 1.125-1.125.672-2.171.547-2.296Zm-1.61-.265L-.64-2.891c-.265-.296-.546-.609-.64-.984-.078-.453.11-.828.312-1.031.828-.828 1.766.078 2.016.328Zm0 0"/></symbol><symbol overflow="visible" id="m"><path style="stroke:none" d="M.516-5.703c-.375-.375-.954-.203-1.329.172-.484.484-.406 1.125-.125 1.718l-.796-.796-1.11 1.234.328.328c.438-.437.485-.484.75-.219L.422-1.078l-.484.484.328.328.875-.906c.265-.266.703-.703.984-.953l-.328-.328-.61.61-1.234-1.235c-.5-.5-1.203-1.516-.484-2.235 0 0-.016.266.187.47.281.28.656.187.86-.016.203-.204.28-.563 0-.844Zm0 0"/></symbol><symbol overflow="visible" id="n"><path style="stroke:none" d="M1.297-6.89.969-7.22c-.156.188-.36.39-.547.578l-.656.625.328.329s.328-.329.406-.25l.063.125.921 2.546-2.796-1.015.375-.375-.329-.328-.859.89-.813.782.329.328.437-.438 4.125 1.469.188.5c.171.484.437 1.187-.079 1.703-.093.094-.109.11-.203.14.063-.093.11-.359-.14-.609-.235-.234-.563-.218-.813.032C.72 0 .641.328.922.609c.344.344.984.329 1.406-.093.547-.547.5-1.407.313-2L.906-6.22c-.047-.14-.062-.218.39-.672Zm0 0"/></symbol><symbol overflow="visible" id="o"><path style="stroke:none" d="M2.672-5.797C1.719-6.75.39-6.734-.625-5.719c-.516.516-.672 1.078-.688 1.375l-2.062-2.062-1.203 1.297.344.343c.437-.437.484-.484.75-.218L.75-.75l.328-.328c-.016-.234-.031-.5-.047-.734.11-.016.844.03 1.469-.594 1.047-1.047 1.14-2.422.172-3.39Zm-.906.906c.328.329.718.72.812 1.157.078.515-.156.906-.39 1.14-.485.485-1.157.375-1.344.344L-.922-4.016C-.969-4.469-.844-5-.453-5.39c.86-.859 1.719 0 2.219.5Zm0 0"/></symbol><symbol overflow="visible" id="p"><path style="stroke:none" d="M3.734-4.078c-.156-.156-.25-.063-.343.031-.454.422-.547.328-.704.172L1.173-5.391c-.625-.625-1.578-.578-2.625.47-.39.39-1.234 1.296-.625 1.905a.62.62 0 0 0 .89.016.609.609 0 0 0-.015-.89c-.203-.204-.453-.204-.5-.188a6.17 6.17 0 0 1 .469-.563c.53-.53 1.078-.484 1.609.047l.25.25c-.484.516-2.219 2.375-1.203 3.39.672.673 1.687-.062 2.172-.546.562-.563.593-1.188.453-1.64.219.218.547.546 1.297-.204l.328-.328c.14-.14.234-.234.062-.406Zm-2.234.61c.688.687.125 1.437-.047 1.609-.36.359-.89.39-1.203.078-.766-.766.25-1.969.594-2.344Zm0 0"/></symbol><symbol overflow="visible" id="q"><path style="stroke:none" d="m4.234-4.234-.328-.329c-.437.438-.484.485-.765.204l-4.282-4.282-1.203 1.297L-2-7c.438-.438.5-.5.766-.234l1.39 1.39a2.191 2.191 0 0 0-1.297.64c-1.03 1.032-1.14 2.391-.156 3.376C-.359-.891.97-.875 2-1.906c.438-.438.61-.953.656-1.344L3-2.906Zm-2.015.546c.031.25.14.922-.39 1.454-.86.859-1.72 0-2.22-.5-.343-.344-.718-.72-.812-1.157-.078-.515.172-.921.39-1.14A1.448 1.448 0 0 1 .47-5.438Zm0 0"/></symbol></defs><use xlink:href="#a" x="84.733" y="48.613" style="fill:#000;fill-opacity:1"/><use xlink:href="#b" x="42.709" y="7.408" style="fill:#000;fill-opacity:1"/><use xlink:href="#c" x=".172" y="48.613" style="fill:#000;fill-opacity:1"/><use xlink:href="#d" x="42.254" y="92.447" style="fill:#000;fill-opacity:1"/><path style="fill:none;stroke-width:.3985;stroke-linecap:butt;stroke-linejoin:miter;stroke:#000;stroke-opacity:1;stroke-miterlimit:10" d="M5.657 36.863 36.575 5.945" transform="matrix(1 0 0 -1 44.847 46.468)"/><path style="fill:none;stroke-width:.3985;stroke-linecap:round;stroke-linejoin:round;stroke:#000;stroke-opacity:1;stroke-miterlimit:10" d="M-2.071 2.39C-1.693.956-.851.28 0-.002c-.85-.276-1.693-.953-2.074-2.39" transform="scale(.99998 -.99998) rotate(-45 -8.303 -118.79)"/><use xlink:href="#e" x="69.624" y="21.684" style="fill:#000;fill-opacity:1"/><path style="fill:none;stroke-width:.3985;stroke-linecap:butt;stroke-linejoin:miter;stroke:#000;stroke-opacity:1;stroke-miterlimit:10" d="M-5.66 36.863-36.577 5.945" transform="matrix(1 0 0 -1 44.847 46.468)"/><path style="fill:none;stroke-width:.3985;stroke-linecap:round;stroke-linejoin:round;stroke:#000;stroke-opacity:1;stroke-miterlimit:10" d="M-2.072 2.39C-1.694.955-.852.28.002 0c-.854-.279-1.696-.956-2.074-2.39" transform="scale(-.99998 .99998) rotate(45 -53.15 10.517)"/><path style="fill:none;stroke-width:.3985;stroke-linecap:butt;stroke-linejoin:miter;stroke:#000;stroke-opacity:1;stroke-dasharray:.3985,1.99255;stroke-miterlimit:10" d="M0 35.542V-35.54" transform="matrix(1 0 0 -1 44.847 46.468)"/><g style="fill:#000;fill-opacity:1"><use xlink:href="#f" x="34.503" y="27.948"/><use xlink:href="#g" x="34.503" y="37.492"/><use xlink:href="#h" x="34.503" y="40.67"/><use xlink:href="#h" x="34.503" y="45.193"/><use xlink:href="#g" x="34.503" y="49.716"/><use xlink:href="#i" x="34.503" y="52.894"/><use xlink:href="#j" x="34.503" y="59.261"/></g><path style="fill:none;stroke-width:.3985;stroke-linecap:butt;stroke-linejoin:miter;stroke:#000;stroke-opacity:1;stroke-miterlimit:10" d="M-36.843 0h72.812" transform="matrix(1 0 0 -1 44.847 46.468)"/><path style="fill:none;stroke-width:.3985;stroke-linecap:round;stroke-linejoin:round;stroke:#000;stroke-opacity:1;stroke-miterlimit:10" d="M-2.074 2.39C-1.694.956-.85.28.001 0c-.852-.278-1.696-.958-2.075-2.391" transform="matrix(1 0 0 -1 81.015 46.468)"/><path style="fill:none;stroke-width:.3985;stroke-linecap:butt;stroke-linejoin:miter;stroke:#000;stroke-opacity:1;stroke-miterlimit:10" d="M-36.859-5.665-6.394-36.13" transform="matrix(1 0 0 -1 44.847 46.468)"/><path style="fill:none;stroke-width:.3985;stroke-linecap:round;stroke-linejoin:round;stroke:#000;stroke-opacity:1;stroke-miterlimit:10" d="M-2.07 2.391C-1.693.958-.85.281 0 0c-.85-.276-1.696-.956-2.074-2.39" transform="matrix(.70708 .7071 .7071 -.70708 38.594 82.737)"/><path style="fill:none;stroke-width:.3985;stroke-linecap:butt;stroke-linejoin:miter;stroke:red;stroke-opacity:1;stroke-miterlimit:10" d="m6.114-36.41 30.46 30.464" transform="matrix(1 0 0 -1 44.847 46.468)"/><path style="fill:none;stroke-width:.3985;stroke-linecap:round;stroke-linejoin:round;stroke:red;stroke-opacity:1;stroke-miterlimit:10" d="M-2.073 2.393C-1.69.957-.849.28 0 .001c-.848-.279-1.693-.959-2.072-2.392" transform="scale(1 -1) rotate(45 103.883 72.32)"/><use xlink:href="#k" x="54.745" y="71.297" style="fill:red;fill-opacity:1"/><g style="fill:red;fill-opacity:1"><use xlink:href="#l" x="58.796" y="67.246"/><use xlink:href="#m" x="62.508" y="63.534"/><use xlink:href="#n" x="65.847" y="60.195"/></g><g style="fill:red;fill-opacity:1"><use xlink:href="#o" x="67.239" y="81.354"/><use xlink:href="#p" x="71.74" y="76.853"/><use xlink:href="#q" x="75.678" y="72.915"/></g></svg>