<svg xmlns="http://www.w3.org/2000/svg" width="127.355" height="94.827" viewBox="0 0 95.516 71.12" version="1.2"><defs><clipPath id="a"><path d="M1 1h94.273v69H1Zm0 0"/></clipPath></defs><path style="fill:none;stroke-width:.19925;stroke-linecap:butt;stroke-linejoin:miter;stroke:gray;stroke-opacity:1;stroke-miterlimit:10" d="M0 .001h85.042M-.001 28.349h85.043M-.001 56.685h85.043M-.001 0v56.691M28.347.001v56.691M56.694.001v56.691M85.03.001v56.691" transform="matrix(1 0 0 -1 6.915 63.669)"/><g clip-path="url(#a)"><path style="fill:none;stroke-width:.3985;stroke-linecap:butt;stroke-linejoin:miter;stroke:#000;stroke-opacity:1;stroke-miterlimit:10" d="m0 .001 85.042 28.348c0 15.652-19.039 28.343-42.523 28.343-23.48 0-42.52-12.691-42.52-28.343" transform="matrix(1 0 0 -1 6.915 63.669)"/></g><path style="stroke:none;fill-rule:nonzero;fill:red;fill-opacity:1" d="m13.594 61.441-8.235-4.113.946 2.836-3.84 1.277 2.223 6.68L8.53 66.84l.946 2.836ZM40.484 52.48l-8.234-4.117.945 2.836-3.84 1.281 2.223 6.676 3.844-1.281.945 2.836ZM67.375 43.516l-8.234-4.118.945 2.836-3.84 1.282 2.223 6.68 3.843-1.282.946 2.836ZM94.266 34.55l-8.235-4.112.946 2.835-3.84 1.278 2.226 6.68 3.84-1.282.945 2.836ZM74.406 11.715l1.617 9.062 1.707-2.453 3.325 2.317 4.027-5.774-3.32-2.316 1.707-2.45ZM46.512 6.656l6.082 6.91.187-2.98 4.043.258.45-7.028-4.044-.257.192-2.98ZM19.41 14.602l8.594 3.296-1.215-2.73 3.7-1.648-2.864-6.43-3.7 1.648-1.214-2.73ZM5.938 38.625l7.613-5.176-2.938-.558.762-3.977-6.918-1.32-.758 3.98-2.933-.562Zm0 0"/></svg>