<svg xmlns="http://www.w3.org/2000/svg" xmlns:xlink="http://www.w3.org/1999/xlink" width="198.843" height="41.667" viewBox="0 0 149.132 31.25" version="1.2"><defs><symbol overflow="visible" id="b"><path style="stroke:none" d="M5.156-5.516v-.265H3.11c-.187 0-1.437-.047-1.546-.078-.172-.047-.188-.11-.204-.204H.906L.594-3.765h.453c.094-.75.25-.812.25-.812.125-.047.812-.047.984-.047h1.5c-.922 1.047-.922 1.063-1.11 1.344-.733 1.11-.89 2.14-.89 2.75 0 .625.485.64.578.64.235 0 .407-.14.454-.187.124-.188.124-.234.124-.75 0-1.156.11-2.235.688-2.89l1.438-1.626c.078-.093.093-.14.093-.172Zm0 0"/></symbol><symbol overflow="visible" id="c"><path style="stroke:none" d="M4.86-1.672c0-.953-.735-1.375-1.204-1.64.64-.313.906-.75.906-1.25 0-.86-.75-1.329-1.89-1.329-1.297 0-1.938.72-1.938 1.594 0 .484.266 1 .86 1.344-.485.25-1.157.61-1.157 1.515 0 1.11 1 1.547 2.204 1.547 1.453 0 2.218-.765 2.218-1.78Zm-1-2.89c0 .468-.282.796-.657 1l-1.375-.75c-.047-.016-.39-.204-.39-.516 0-.594.703-.703 1.187-.703.797 0 1.234.39 1.234.968Zm.187 3.375c0 .843-1.047.89-1.39.89-.798 0-1.407-.36-1.407-1.156 0-.406.172-.875.797-1.25l1.203.656c.484.266.797.438.797.86Zm0 0"/></symbol><symbol overflow="visible" id="d"><path style="stroke:none" d="M5 0v-.438h-.89v-.953H5v-.437h-.89v-3.766c0-.265-.032-.312-.298-.312-.218 0-.234.015-.328.14L.297-1.828v.437h2.656v.954H1.922V0C2.25-.031 3.14-.031 3.5-.031c.375 0 1.172 0 1.5.031ZM3.062-1.828H.813l2.25-2.797Zm0 0"/></symbol><symbol overflow="visible" id="e"><path style="stroke:none" d="M4.766-1.797c0-1.031-.72-1.875-2.079-1.875-.421 0-.796.063-1.187.297v-1.14c.313.062.453.062.64.062.25 0 .829 0 1.5-.453.204-.125.72-.563.72-.797 0-.031 0-.188-.141-.188 0 0-.047 0-.14.047a4.072 4.072 0 0 1-2.813 0c-.125-.047-.157-.047-.157-.047-.125 0-.125.125-.125.266v2.64c0 .157 0 .282.204.282.125 0 .14 0 .234-.125.375-.422.86-.485 1.219-.485.828 0 .828.782.828 1.485 0 .64 0 1.531-1.125 1.531-.485 0-.922-.234-1.14-.516.374-.046.577-.296.577-.625 0-.437-.343-.625-.625-.625-.281 0-.625.172-.625.641C.531-.64 1.25.11 2.391.11c1.53 0 2.375-.859 2.375-1.906Zm0 0"/></symbol><symbol overflow="visible" id="f"><path style="stroke:none" d="M4.86-1.844c0-.484-.094-.968-.61-1.437-.469-.39-.938-.485-1.484-.485-.579 0-.922.407-1.063.688v-.156c0-1.125.219-1.485.313-1.641a1.47 1.47 0 0 1 1.218-.656c.172 0 .454.031.672.234-.36.078-.484.344-.484.563 0 .39.297.593.594.593a.571.571 0 0 0 .578-.609c0-.547-.375-1.14-1.375-1.14-1.297 0-2.781.827-2.781 3.046 0 .438.03 1.313.421 1.953.391.688 1.016 1 1.829 1 1.28 0 2.171-.734 2.171-1.953Zm-1.266-.015c0 .906 0 1.562-.922 1.562-.531 0-.766-.406-.828-.562-.125-.282-.125-1-.125-1.032 0-.921.39-1.515 1.015-1.515.86 0 .86.656.86 1.547Zm0 0"/></symbol><symbol overflow="visible" id="g"><path style="stroke:none" d="M4.563 0v-.438H3.266v-5.156c0-.187 0-.297-.266-.297-.11 0-.125 0-.203.063-.688.516-1.656.516-1.828.516H.797v.437h.172a4.16 4.16 0 0 0 1.203-.172v4.61H.89V0c.343-.031 1.421-.031 1.828-.031.422 0 1.484 0 1.844.031Zm0 0"/></symbol><symbol overflow="visible" id="i"><path style="stroke:none" d="M4.766-2.016h-.454c-.015.125-.093.766-.234.829-.11.046-.781.046-.937.046H1.859c.485-.39 1.016-.812 1.47-1.125.75-.53 1.437-1.015 1.437-1.89 0-1.047-.954-1.735-2.25-1.735-1.11 0-1.985.532-1.985 1.36 0 .468.36.687.672.687a.65.65 0 0 0 .656-.672c0-.203-.078-.53-.468-.64.312-.25.718-.282.89-.282.735 0 1.203.547 1.203 1.282 0 .656-.375 1.234-.859 1.718l-2 1.985c-.094.094-.094.11-.094.281V0H4.5Zm0 0"/></symbol><symbol overflow="visible" id="k"><path style="stroke:none" d="M4.86-1.61c0-.718-.532-1.327-1.548-1.546.907-.313 1.25-.938 1.25-1.485 0-.671-.671-1.25-2-1.25-1.109 0-1.828.594-1.828 1.329 0 .406.282.656.641.656.39 0 .656-.281.656-.656 0-.297-.172-.547-.531-.625.063-.063.438-.344 1.016-.344.78 0 .78.593.78.875 0 .5-.187 1.281-.968 1.328l-.422.031c-.14.016-.14.11-.14.172 0 .188.093.188.265.188h.422c1 0 1 .874 1 1.328 0 .406 0 1.312-.953 1.312-.11 0-.734-.016-1.14-.312.406-.11.5-.47.5-.672 0-.422-.298-.703-.72-.703-.374 0-.702.25-.702.703 0 .843.906 1.39 2.093 1.39 1.64 0 2.328-.906 2.328-1.718Zm0 0"/></symbol><clipPath id="a"><path d="M0 0h38v30.875H0Zm0 0"/></clipPath><clipPath id="h"><path d="M32 16h38v14.875H32Zm0 0"/></clipPath><clipPath id="j"><path d="M71 16h37v14.875H71Zm0 0"/></clipPath><clipPath id="l"><path d="M109 16h38v14.875h-38Zm0 0"/></clipPath></defs><path style="fill:none;stroke-width:.3985;stroke-linecap:butt;stroke-linejoin:miter;stroke:gray;stroke-opacity:1;stroke-miterlimit:10" d="M-.002.001h28.348M-.002 28.349h28.348M-.002.001v28.348M28.346.001v28.348" transform="matrix(1 0 0 -1 .865 29.544)"/><g clip-path="url(#a)"><path style="fill:none;stroke-width:.59776;stroke-linecap:butt;stroke-linejoin:miter;stroke:#cc8714;stroke-opacity:1;stroke-miterlimit:10" d="M-.002 14.15s.856 3.109 1.184 3.988c.328.879.851 2.058 1.18 2.343.328.29.855.149 1.183-.277.324-.422.852-1.82 1.18-2.777.328-.961.851-3.035 1.18-4.133.328-1.098.855-2.996 1.183-3.777.328-.785.852-1.723 1.18-1.868.328-.144.851.27 1.18.825.328.554.855 2.144 1.183 3.168.328 1.023.852 3.132 1.18 4.203.328 1.07.855 2.832 1.18 3.504.328.675.855 1.355 1.183 1.355.328 0 .852-.68 1.18-1.355.328-.672.855-2.434 1.183-3.504.325-1.07.852-3.18 1.18-4.203.328-1.024.852-2.614 1.18-3.168.328-.555.855-.97 1.183-.825.328.145.852 1.083 1.18 1.868.328.78.855 2.68 1.18 3.777.328 1.098.855 3.172 1.183 4.133.328.957.852 2.355 1.18 2.777.328.426.855.567 1.184.277.324-.285.851-1.464 1.18-2.343.327-.88 1.179-3.989 1.179-3.989" transform="matrix(1 0 0 -1 .865 29.544)"/><path style="fill:none;stroke-width:.59776;stroke-linecap:butt;stroke-linejoin:miter;stroke:#cc148c;stroke-opacity:1;stroke-miterlimit:10" d="M-.002 14.15s.856 3.183 1.184 4.113c.328.933.851 2.218 1.18 2.593.328.375.855.43 1.183.11.324-.317.852-1.516 1.18-2.41.328-.899.851-2.907 1.18-4.047.328-1.14.855-3.211 1.183-4.176.328-.96.852-2.336 1.18-2.766.328-.425.851-.59 1.18-.328.328.266.855 1.371 1.183 2.23.328.856.852 2.821 1.18 3.958.328 1.137.855 3.234 1.18 4.226.328.993.855 2.45 1.183 2.934.328.48.852.754 1.18.547.328-.207.855-1.215 1.183-2.035.325-.82.852-2.742 1.18-3.871.328-1.13.852-3.243 1.18-4.266.328-1.02.855-2.55 1.183-3.086.328-.535.852-.918 1.18-.766.328.149.855 1.063 1.18 1.84.328.778.855 2.645 1.183 3.762.328 1.121.852 3.25 1.18 4.297.328 1.047.855 2.652 1.184 3.238.324.586.851 1.07 1.18.98.327-.09 1.179-1.636 1.179-1.636" transform="matrix(1 0 0 -1 .865 29.544)"/><path style="fill:none;stroke-width:.59776;stroke-linecap:butt;stroke-linejoin:miter;stroke:#2114cc;stroke-opacity:1;stroke-miterlimit:10" d="M-.002 14.15s.856 3.269 1.184 4.257c.328.985.851 2.387 1.18 2.856.328.468.855.722 1.183.515.324-.203.852-1.183 1.18-1.992.328-.812.851-2.703 1.18-3.851.328-1.149.855-3.325 1.183-4.434.328-1.11.852-2.86 1.18-3.566.328-.704.851-1.45 1.18-1.52.328-.066.855.434 1.183 1.024.328.593.852 2.18 1.18 3.234.328 1.055.855 3.203 1.18 4.375.328 1.172.855 3.176 1.183 4.082.328.906.852 2.102 1.18 2.441.328.34.855.34 1.183 0 .325-.34.852-1.535 1.18-2.441.328-.906.852-2.91 1.18-4.082.328-1.172.855-3.32 1.183-4.375.328-1.055.852-2.64 1.18-3.234.328-.59.855-1.09 1.18-1.024.328.07.855.816 1.183 1.52.328.707.852 2.457 1.18 3.566.328 1.11.855 3.285 1.184 4.434.324 1.148.851 3.039 1.18 3.851.327.809 1.179 1.992 1.179 1.992" transform="matrix(1 0 0 -1 .865 29.544)"/><path style="fill:none;stroke-width:.59776;stroke-linecap:butt;stroke-linejoin:miter;stroke:#14cca5;stroke-opacity:1;stroke-miterlimit:10" d="M-.002 14.15s.856 3.37 1.184 4.421c.328 1.047.851 2.57 1.18 3.137.328.566.855 1.027 1.183.945.324-.078.852-.82 1.18-1.523.328-.703.851-2.426 1.18-3.547.328-1.125.855-3.328 1.183-4.547.328-1.215.852-3.262 1.18-4.219.328-.957.851-2.257 1.18-2.675.328-.418.855-.59 1.183-.352.328.242.852 1.246 1.18 2.078.328.828.855 2.719 1.18 3.899.328 1.175.855 3.402 1.183 4.59.328 1.183.852 3.101 1.18 3.949.328.847.855 1.898 1.183 2.164.325.265.852.144 1.18-.25.328-.395.852-1.653 1.18-2.594.328-.937.855-2.969 1.183-4.18.328-1.21.852-3.422 1.18-4.558.328-1.133.855-2.883 1.18-3.61.328-.726.855-1.511 1.183-1.617.328-.11.852.301 1.18.844.328.543.855 2.031 1.184 3.066.324 1.036.851 3.164 1.18 4.391.327 1.227 1.179 4.45 1.179 4.45" transform="matrix(1 0 0 -1 .865 29.544)"/><path style="fill:none;stroke-width:.59776;stroke-linecap:butt;stroke-linejoin:miter;stroke:#6ecc14;stroke-opacity:1;stroke-miterlimit:10" d="M-.002 14.15s.856 3.496 1.184 4.613c.328 1.12.851 2.773 1.18 3.445.328.672.855 1.348 1.183 1.402.324.055.852-.421 1.18-1 .328-.574.851-2.082 1.18-3.14.328-1.063.855-3.219 1.183-4.496.328-1.278.852-3.532 1.18-4.7.328-1.167.851-2.953 1.18-3.718.328-.766.855-1.625 1.183-1.793.328-.168.852.113 1.18.586.328.472.855 1.828 1.18 2.82.328.992.855 3.074 1.183 4.336.328 1.262.852 3.543 1.18 4.754.328 1.207.855 3.113 1.183 3.965.325.851.852 1.894 1.18 2.168.328.277.852.195 1.18-.172.328-.367.855-1.555 1.183-2.473.328-.918.852-2.91 1.18-4.148.328-1.235.855-3.524 1.18-4.766.328-1.242.855-3.25 1.183-4.18.328-.933.852-2.148 1.18-2.535.328-.383.855-.5 1.184-.242.324.258.851 1.273 1.18 2.11.327.835 1.179 3.925 1.179 3.925" transform="matrix(1 0 0 -1 .865 29.544)"/><path style="fill:none;stroke-width:.59776;stroke-linecap:butt;stroke-linejoin:miter;stroke:#cc3f14;stroke-opacity:1;stroke-miterlimit:10" d="M-.002 14.15S.854 17.801 1.182 19c.328 1.195.851 2.996 1.18 3.785.328.79.855 1.688 1.183 1.89.324.208.852.009 1.18-.413.328-.426.851-1.676 1.18-2.637.328-.957.855-2.988 1.183-4.273.328-1.286.852-3.649 1.18-4.977.328-1.324.851-3.508 1.18-4.586.328-1.082.855-2.598 1.183-3.195.328-.594.852-1.117 1.18-1.098.328.02.855.61 1.18 1.238.328.633.855 2.204 1.183 3.305.328 1.102.852 3.309 1.18 4.645.328 1.332.855 3.691 1.183 4.96.325 1.274.852 3.27 1.18 4.2.328.93.852 2.125 1.18 2.512.328.382.855.511 1.183.269.328-.242.852-1.203 1.18-2.023.328-.82.855-2.668 1.18-3.883.328-1.215.855-3.535 1.183-4.88.328-1.343.852-3.632 1.18-4.812.328-1.18.855-2.937 1.184-3.691.324-.758.851-1.594 1.18-1.758.327-.168 1.179.559 1.179.559" transform="matrix(1 0 0 -1 .865 29.544)"/><path style="fill:none;stroke-width:.59776;stroke-linecap:butt;stroke-linejoin:miter;stroke:#c414cc;stroke-opacity:1;stroke-miterlimit:10" d="M-.002 14.15S.854 18 1.182 19.293c.328 1.293.851 3.262 1.18 4.18.328.918.855 2.066 1.183 2.437.324.367.852.477 1.18.23.328-.25.851-1.199 1.18-2.019.328-.816.855-2.648 1.183-3.883.328-1.238.852-3.605 1.18-5.03.328-1.423.851-3.884 1.18-5.224.328-1.34.855-3.433 1.183-4.445.328-1.008.852-2.344 1.18-2.832.328-.488.855-.812 1.18-.687.328.125.855.87 1.183 1.586.328.714.852 2.39 1.18 3.558.328 1.172.855 3.465 1.183 4.871.325 1.406.852 3.883 1.18 5.262.328 1.379.852 3.582 1.18 4.676.328 1.093.855 2.605 1.183 3.21.328.602.852 1.141 1.18 1.141.328 0 .855-.539 1.18-1.14.328-.606.855-2.114 1.183-3.207.328-1.094.852-3.297 1.18-4.676.328-1.38.855-3.86 1.184-5.266.324-1.406.851-3.699 1.18-4.867.327-1.172 1.179-3.562 1.179-3.562" transform="matrix(1 0 0 -1 .865 29.544)"/><path style="fill:none;stroke-width:.59776;stroke-linecap:butt;stroke-linejoin:miter;stroke:#1450cc;stroke-opacity:1;stroke-miterlimit:10" d="M-.002 14.15s.856 4.117 1.184 5.53c.328 1.415.851 3.59 1.18 4.657.328 1.07.855 2.492 1.183 3.05.324.555.852 1.005 1.18.962.328-.047.851-.645 1.18-1.282.328-.64.855-2.191 1.183-3.32.328-1.133.852-3.39 1.18-4.836.328-1.445.851-4.055 1.18-5.586.328-1.531.855-4.082 1.183-5.457.328-1.375.852-3.46 1.18-4.465.328-1.004.855-2.296 1.18-2.77.328-.472.855-.765 1.183-.632.328.133.852.879 1.18 1.598.328.718.855 2.39 1.183 3.578.325 1.191.852 3.523 1.18 5 .328 1.472.852 4.097 1.18 5.62.328 1.524.855 4.028 1.183 5.364.328 1.336.852 3.324 1.18 4.258.328.934.855 2.09 1.18 2.477.328.386.855.53 1.183.308.328-.223.852-1.117 1.18-1.91.328-.797.855-2.586 1.184-3.828.324-1.246.851-3.645 1.18-5.14.327-1.497 1.179-5.641 1.179-5.641" transform="matrix(1 0 0 -1 .865 29.544)"/></g><use xlink:href="#b" x="65.903" y="6.681" style="fill:#000;fill-opacity:1"/><path style="fill:none;stroke-width:.59776;stroke-linecap:butt;stroke-linejoin:miter;stroke:#cc148c;stroke-opacity:1;stroke-miterlimit:10" d="M-19.926 0s2.91 1.512 4.98 1.328c2.075-.183 7.891-2.472 9.965-2.656C-2.906-1.51 0 0 0 0" transform="matrix(1 0 0 -1 60.926 4.469)"/><use xlink:href="#c" x="104.382" y="6.681" style="fill:#000;fill-opacity:1"/><path style="fill:none;stroke-width:.59776;stroke-linecap:butt;stroke-linejoin:miter;stroke:#cc8714;stroke-opacity:1;stroke-miterlimit:10" d="M-19.925 0s2.907 1.512 4.98 1.328c2.075-.183 7.892-2.472 9.962-2.656C-2.91-1.51 0 0 0 0" transform="matrix(1 0 0 -1 99.405 4.469)"/><use xlink:href="#d" x="65.903" y="17.639" style="fill:#000;fill-opacity:1"/><path style="fill:none;stroke-width:.59776;stroke-linecap:butt;stroke-linejoin:miter;stroke:#6ecc14;stroke-opacity:1;stroke-miterlimit:10" d="M-19.926-.002s2.91 1.512 4.98 1.328c2.075-.183 7.891-2.468 9.965-2.652C-2.906-1.509 0-.002 0-.002" transform="matrix(1 0 0 -1 60.926 15.428)"/><use xlink:href="#e" x="104.382" y="17.639" style="fill:#000;fill-opacity:1"/><path style="fill:none;stroke-width:.59776;stroke-linecap:butt;stroke-linejoin:miter;stroke:#14cca5;stroke-opacity:1;stroke-miterlimit:10" d="M-19.925-.002s2.907 1.512 4.98 1.328c2.075-.183 7.892-2.468 9.962-2.652C-2.91-1.509 0-.002 0-.002" transform="matrix(1 0 0 -1 99.405 15.428)"/><use xlink:href="#f" x="142.862" y="17.639" style="fill:#000;fill-opacity:1"/><path style="fill:none;stroke-width:.59776;stroke-linecap:butt;stroke-linejoin:miter;stroke:#2114cc;stroke-opacity:1;stroke-miterlimit:10" d="M-19.924-.002s2.906 1.512 4.98 1.328c2.075-.183 7.891-2.468 9.961-2.652C-2.908-1.509.002-.002.002-.002" transform="matrix(1 0 0 -1 137.885 15.428)"/><use xlink:href="#g" x="65.903" y="28.598" style="fill:#000;fill-opacity:1"/><g clip-path="url(#h)"><path style="fill:none;stroke-width:.59776;stroke-linecap:butt;stroke-linejoin:miter;stroke:#1450cc;stroke-opacity:1;stroke-miterlimit:10" d="M-19.926 0s2.91 1.512 4.98 1.328c2.075-.183 7.891-2.472 9.965-2.656C-2.906-1.51 0 0 0 0" transform="matrix(1 0 0 -1 60.926 26.387)"/></g><use xlink:href="#i" x="104.382" y="28.598" style="fill:#000;fill-opacity:1"/><g clip-path="url(#j)"><path style="fill:none;stroke-width:.59776;stroke-linecap:butt;stroke-linejoin:miter;stroke:#c414cc;stroke-opacity:1;stroke-miterlimit:10" d="M-19.925 0s2.907 1.512 4.98 1.328c2.075-.183 7.892-2.472 9.962-2.656C-2.91-1.51 0 0 0 0" transform="matrix(1 0 0 -1 99.405 26.387)"/></g><use xlink:href="#k" x="142.862" y="28.598" style="fill:#000;fill-opacity:1"/><g clip-path="url(#l)"><path style="fill:none;stroke-width:.59776;stroke-linecap:butt;stroke-linejoin:miter;stroke:#cc3f14;stroke-opacity:1;stroke-miterlimit:10" d="M-19.924 0s2.906 1.512 4.98 1.328c2.075-.183 7.891-2.472 9.961-2.656C-2.908-1.51.002 0 .002 0" transform="matrix(1 0 0 -1 137.885 26.387)"/></g></svg>