<svg xmlns="http://www.w3.org/2000/svg" xmlns:xlink="http://www.w3.org/1999/xlink" width="95.42pt" height="78.531" viewBox="0 0 95.42 58.898" version="1.2"><defs><symbol overflow="visible" id="a"><path style="stroke:none" d="M.719-8.219.25-8.266l-.078.97-6.438 2.015c-.25.078-.265.187-.28.36-.016.28.046.343.218.421l5.75 2.969c.156.078.234.11.156.86l-.016.218.47.047.077-1.172c.032-.39.079-.922.141-1.297l-.469-.047s-.078.875-.203.875l-.125-.062-1.156-.594.234-2.672 1.5-.469-.078.953.469.047c0-.39.094-1.312.125-1.75.031-.39.11-1.265.172-1.625Zm-2.656 3.016-.204 2.281-2.656-1.39Zm0 0"/></symbol><symbol overflow="visible" id="b"><path style="stroke:none" d="M.703-6.344c-1.187-.593-2.437-.172-3.094 1.125-.312.64-.296 1.203-.218 1.516l-2.61-1.313-.718 1.61.421.219c.266-.547.313-.626.657-.454L.484-.953l.204-.422c-.094-.203-.172-.453-.282-.672.094-.047.813-.219 1.219-1.015.672-1.329.313-2.657-.922-3.282Zm-.578 1.14c.422.22.906.454 1.156.86.235.438.125.89-.031 1.188-.313.61-.969.734-1.14.765l-2.235-1.125a1.69 1.69 0 0 1 0-1.453c.547-1.093 1.625-.547 2.25-.234Zm0 0"/></symbol><symbol overflow="visible" id="c"><path style="stroke:none" d="m1.828-2.172-.36-.297-.39.469-3.062-2.594-1.047 1.375.36.297c.374-.453.421-.515.718-.265l2.344 2-.454.53.36.298.766-.938Zm-4.922-3.547a.772.772 0 0 0-1.094.094.772.772 0 0 0 .094 1.094A.772.772 0 0 0-3-4.625a.772.772 0 0 0-.094-1.094Zm0 0"/></symbol><symbol overflow="visible" id="d"><path style="stroke:none" d="M2.094-6.5c-.14-.188-.469-.344-.844-.078a1.71 1.71 0 0 0-.625.937c-.219-.015-.688.079-1.266.532-1.156.859-1.125 1.796-.703 2.343.235.329.625.563 1.032.547-.016.453.14.75.265.922.094.125.406.484.906.5C.781-.703.33-.094.703.406c.297.406 1.203.688 2.797-.5 1.406-1.062 1.672-2 1.266-2.562-.188-.235-.625-.688-1.36-.563-.625.11-1.094.469-1.86 1.047-.218.156-.577.422-.624.438-.406.218-.703-.032-.813-.172a.604.604 0 0 1-.125-.328c.5-.079.938-.375 1.141-.516 1.14-.86 1.11-1.813.703-2.375a1.376 1.376 0 0 0-.89-.531c.14-.297.312-.438.39-.516 0 .047.031.14.078.188.14.203.39.234.61.078.203-.14.218-.407.078-.594ZM.954-4.469c.265.375.671.907-.032 1.438-.703.515-1.11-.016-1.375-.39-.266-.345-.672-.892.031-1.407.703-.531 1.11.016 1.375.36Zm3.14 2.344c.203.297.218.953-.813 1.734-.953.704-1.64.641-1.906.282-.36-.5.14-.875.25-.954l.938-.703c.265-.187 1.156-.859 1.53-.359Zm0 0"/></symbol><symbol overflow="visible" id="e"><path style="stroke:none" d="M3.172-4.766c-.14-.515-.719-.625-1.235-.484-.656.203-.906.781-.937 1.453L.687-4.875l-1.578.547.141.437c.578-.171.656-.187.766.188L.875-.75l-.656.188.14.453 1.188-.375c.36-.11.969-.297 1.328-.36l-.14-.453-.829.234-.484-1.671c-.203-.657-.313-1.891.64-2.172 0 0-.124.203-.046.484.125.39.484.484.75.406.28-.078.53-.359.406-.75Zm0 0"/></symbol><symbol overflow="visible" id="f"><path style="stroke:none" d="M4.656-1.984c-.015-.172-.203-.141-.25-.125-.172.015-.187.078-.218.234-.125.516-.641.922-1.282 1.031-1.375.235-1.61-1.062-1.687-1.562l2.968-.516c.22-.031.313-.047.266-.312-.062-.297-.234-1.016-.828-1.422-.422-.297-.969-.375-1.656-.266C.406-4.656-.266-3.484-.063-2.266.158-.937 1.313-.156 2.892-.422c1.562-.266 1.796-1.39 1.765-1.562ZM3.5-3.141l-2.344.407c-.047-.375-.11-.797.032-1.172.203-.422.578-.61.843-.656C3.187-4.766 3.421-3.47 3.5-3.141Zm0 0"/></symbol><symbol overflow="visible" id="g"><path style="stroke:none" d="m5.969-.484-.032-.47c-.609.063-.687.063-.718-.327l-.485-6.047-1.765.219.031.468c.625-.046.703-.062.734.329l.157 1.953c-.532-.344-1.063-.36-1.391-.344C1.062-4.578.094-3.625.203-2.234.297-.922 1.297-.047 2.75-.156A2.342 2.342 0 0 0 4.125-.75l.031.484Zm-1.89-.875c-.126.187-.5.765-1.25.828-1.204.11-1.298-1.094-1.345-1.797-.046-.469-.078-1 .141-1.422.25-.438.703-.578 1.016-.594.562-.047 1 .235 1.234.516Zm0 0"/></symbol><symbol overflow="visible" id="h"><path style="stroke:none" d="M5.516-.281c0-.235-.125-.235-.266-.235-.61-.015-.61-.14-.61-.375l-.03-2.14c0-.89-.72-1.516-2.204-1.5-.562 0-1.765.062-1.765.937 0 .438.343.61.609.61.313 0 .625-.22.625-.625 0-.297-.188-.47-.219-.5a5.28 5.28 0 0 1 .719-.063c.75-.016 1.11.406 1.11 1.156l.015.344C2.781-2.64.25-2.516.25-1.078.266-.125 1.5.047 2.188.047 2.984.03 3.452-.375 3.671-.797c0 .313 0 .766 1.047.75h.468c.204 0 .329 0 .329-.234ZM3.5-1.421c.016.968-.906 1.109-1.156 1.109-.516 0-.906-.344-.922-.797C1.422-2.172 3-2.33 3.5-2.36Zm0 0"/></symbol><symbol overflow="visible" id="i"><path style="stroke:none" d="M6.125 0v-.469h-.688v-2.578c0-1.047-.53-1.437-1.53-1.437-.954 0-1.485.562-1.75 1.078v-1.078l-1.704.078v.468c.61 0 .688 0 .688.391v3.078H.453V0l1.25-.031L2.953 0v-.469h-.687v-2.078c0-1.094.859-1.578 1.5-1.578.328 0 .546.203.546.969V-.47h-.687V0l1.25-.031Zm0 0"/></symbol><symbol overflow="visible" id="j"><path style="stroke:none" d="M5.984-.11 5.97-.577c-.61.015-.688.015-.688-.375l-.11-6.063-1.765.11.016.468c.625-.015.703-.015.703.375l.047 1.954a2.177 2.177 0 0 0-1.375-.422C1.344-4.516.312-3.61.344-2.203.359-.891 1.297.047 2.766.016A2.263 2.263 0 0 0 4.172-.5v.484Zm-1.828-1c-.14.204-.531.75-1.281.766-1.219.016-1.25-1.187-1.25-1.89-.016-.485-.031-1.016.219-1.407.297-.421.75-.53 1.062-.53a1.49 1.49 0 0 1 1.203.577Zm0 0"/></symbol><symbol overflow="visible" id="k"><path style="stroke:none" d="M5.11-4.531a.597.597 0 0 0-.688-.5 1.717 1.717 0 0 0-1.016.484c-.172-.094-.625-.266-1.36-.187C.626-4.578.173-3.75.235-3.063c.047.407.282.813.625 1-.234.391-.265.704-.234.907.016.156.11.64.531.906-.125.047-.828.344-.765.969.062.5.703 1.172 2.671.953C4.813 1.484 5.533.828 5.454.14c-.031-.297-.172-.922-.89-1.188-.594-.219-1.172-.156-2.125-.062a21.2 21.2 0 0 1-.766.078.62.62 0 0 1-.61-.547.535.535 0 0 1 .079-.344c.453.188.968.156 1.218.125 1.438-.14 1.891-.984 1.813-1.687a1.35 1.35 0 0 0-.5-.907c.281-.171.484-.218.594-.25a.45.45 0 0 0-.016.204c.031.25.219.39.484.375.25-.032.391-.235.375-.47ZM3.077-3.375c.047.453.125 1.125-.75 1.219-.875.094-.953-.578-1-1.031-.047-.438-.11-1.094.766-1.188.875-.094.937.563.984 1ZM4.594.265c.047.36-.297.907-1.578 1.047-1.188.125-1.72-.25-1.766-.703-.063-.609.547-.671.688-.687l1.171-.125C3.422-.25 4.531-.36 4.594.266Zm0 0"/></symbol><symbol overflow="visible" id="l"><path style="stroke:none" d="M3.578-4.469c-.11-.531-.672-.703-1.187-.593-.672.14-.985.703-1.079 1.359l-.218-1.094L-.5-4.39l.094.454c.594-.126.672-.141.75.25l.61 3.015-.673.14.094.454L1.594-.36c.36-.079 1-.204 1.343-.235l-.093-.453L2-.875l-.344-1.719c-.14-.672-.156-1.922.828-2.125 0 0-.156.203-.093.485a.59.59 0 0 0 .718.468c.297-.046.547-.312.47-.703Zm0 0"/></symbol><symbol overflow="visible" id="m"><path style="stroke:none" d="M4.266-2.734c-.047-.157-.235-.094-.282-.079-.156.063-.156.11-.171.282-.032.515-.47 1-1.079 1.219C1.406-.86.954-2.11.781-2.579l2.86-.985c.203-.078.296-.109.218-.359-.109-.297-.406-.969-1.046-1.281-.454-.219-1.016-.203-1.672.031-1.5.516-1.985 1.766-1.579 2.938C0-.97 1.25-.375 2.783-.891c1.484-.53 1.546-1.671 1.484-1.843Zm-1.329-.938L.672-2.89c-.11-.375-.235-.765-.14-1.14.124-.469.468-.719.734-.797 1.109-.39 1.546.844 1.671 1.156Zm0 0"/></symbol><symbol overflow="visible" id="n"><path style="stroke:none" d="M3.64-3.516c-.093-.156-.265-.062-.296-.03-.156.077-.125.14-.11.296.079.516-.265 1.078-.812 1.406C1.219-1.125.516-2.25.266-2.672l2.593-1.547c.188-.11.266-.156.125-.39-.156-.266-.593-.875-1.265-1.047-.5-.125-1.047.015-1.64.36-1.376.812-1.595 2.14-.97 3.202.688 1.156 2.047 1.469 3.438.64 1.36-.796 1.172-1.921 1.094-2.062Zm-1.5-.671L.095-2.97c-.188-.344-.39-.703-.375-1.094A1.16 1.16 0 0 1 .266-5c1-.594 1.687.531 1.875.813Zm0 0"/></symbol><symbol overflow="visible" id="o"><path style="stroke:none" d="m4.156-4.5-.343-.313-.454.516-1.89-1.766C.703-6.766.03-6.64-.641-5.905c-.656.687-.593 1.453-.39 2.015l-.797-.734-1.094 1.297.344.328c.406-.453.469-.516.75-.25L.438-1.156l-.47.515.345.313.828-.938L2-2.172l-.344-.312-.453.515L-.328-3.39a1.515 1.515 0 0 1-.14-2.171c.218-.235.53-.266 1.093.265l1.969 1.828-.469.5.344.313.828-.938Zm0 0"/></symbol><symbol overflow="visible" id="p"><path style="stroke:none" d="M1.39-5.344c-.234-.078-.265.047-.312.188-.187.578-.297.547-.531.468L-1.5-5.313c-.844-.265-1.656.22-2.094 1.641-.172.531-.469 1.719.36 1.985.421.125.687-.157.765-.407.094-.312-.015-.672-.406-.781-.281-.094-.516.047-.547.063.047-.282.125-.61.156-.704.22-.718.72-.937 1.438-.718l.328.109c-.188.688-.828 3.14.547 3.563.906.28 1.453-.86 1.656-1.516.235-.766-.015-1.313-.36-1.656.298.093.735.218 1.032-.782l.14-.437c.063-.203.094-.328-.124-.39ZM-.296-3.766c.922.282.781 1.188.703 1.438-.156.484-.594.765-1.031.64-1.016-.312-.688-1.875-.563-2.359Zm0 0"/></symbol><symbol overflow="visible" id="q"><path style="stroke:none" d="M-1.5-6.203c-1.313-.14-2.36.64-2.531 2.078a2.536 2.536 0 0 0 .312 1.531l-.484-.047-.125 1.75.469.063c.062-.61.078-.688.453-.64l4.984.577-.078.688.469.047.11-1.235.171-1.25-.469-.046L1.703-2-.14-2.219c.407-.39.563-.828.61-1.219.172-1.5-.61-2.593-1.969-2.765Zm-.156 1.266C-.266-4.766.172-4 .094-3.375c-.016.14-.078.61-.672 1-.14.094-.156.094-.328.063l-2.11-.235c-.171-.031-.187-.047-.312-.203a1.575 1.575 0 0 1-.328-1.172c.078-.656.75-1.156 2-1.015Zm0 0"/></symbol></defs><path style="fill:none;stroke-width:.19925;stroke-linecap:butt;stroke-linejoin:miter;stroke:gray;stroke-opacity:1;stroke-miterlimit:10" d="M0 0h85.038M0 28.347h85.04M-.002 56.683h85.04M-.002 0v56.695M28.347 0v56.695M56.695 0v56.695M85.03 0v56.695" transform="matrix(1 0 0 -1 7.524 57.742)"/><use xlink:href="#a" x="7.327" y="57.729" style="fill:#000;fill-opacity:1"/><use xlink:href="#b" x="9.117" y="45.358" style="fill:#000;fill-opacity:1"/><use xlink:href="#c" x="12.14" y="39.745" style="fill:#000;fill-opacity:1"/><use xlink:href="#d" x="14.113" y="37.2" style="fill:#000;fill-opacity:1"/><use xlink:href="#e" x="22.253" y="32.256" style="fill:red;fill-opacity:1"/><use xlink:href="#f" x="26.789" y="30.919" style="fill:red;fill-opacity:1"/><use xlink:href="#g" x="31.968" y="30.032" style="fill:red;fill-opacity:1"/><use xlink:href="#h" x="42.126" y="29.434" style="fill:#000;fill-opacity:1"/><use xlink:href="#i" x="47.691" y="29.396" style="fill:#000;fill-opacity:1"/><use xlink:href="#j" x="54.057" y="29.409" style="fill:#000;fill-opacity:1"/><use xlink:href="#k" x="64.233" y="29.12" style="fill:#0f0;fill-opacity:1"/><use xlink:href="#l" x="69.931" y="28.497" style="fill:#0f0;fill-opacity:1"/><use xlink:href="#m" x="74.577" y="27.589" style="fill:#0f0;fill-opacity:1"/><use xlink:href="#n" x="79.567" y="25.881" style="fill:#0f0;fill-opacity:1"/><use xlink:href="#o" x="84.178" y="23.248" style="fill:#0f0;fill-opacity:1"/><use xlink:href="#p" x="90.252" y="15.095" style="fill:#000;fill-opacity:1"/><use xlink:href="#q" x="91.888" y="9.752" style="fill:#000;fill-opacity:1"/></svg>