<svg xmlns="http://www.w3.org/2000/svg" width="128.772" height="109.659" viewBox="0 0 96.579 82.244" version="1.2"><path style="fill:none;stroke-width:.19925;stroke-linecap:butt;stroke-linejoin:miter;stroke:gray;stroke-opacity:1;stroke-miterlimit:10" d="M.001.001H85.04M.001 28.345H85.04M.001 56.685H85.04M.001 0v56.692M28.349 0v56.692M56.692 0v56.692M85.032 0v56.692" transform="matrix(1 0 0 -1 10.23 80.763)"/><path style="fill:none;stroke-width:.3985;stroke-linecap:butt;stroke-linejoin:miter;stroke:#000;stroke-opacity:1;stroke-miterlimit:10" d="M-9.276 33.427c2.543-.996 4.992-1.945 7.328-2.875a100.026 100.026 0 0 0 6.347-2.937 86.863 86.863 0 0 0 5.63-3.461c1.816-1.282 3.644-2.567 5.523-3.977 1.93-1.348 3.976-2.766 6.117-4.105a74.33 74.33 0 0 1 7.5-3.848c2.914-1.094 6.082-2.059 9.562-2.887C42.56 8.67 46.681 8.22 51.22 7.99M-4.593 39.59c2.79-.723 5.442-1.398 7.922-2.086a56.026 56.026 0 0 0 6.477-2.504c1.89-1.035 3.699-2.207 5.437-3.453a174.69 174.69 0 0 0 5.137-4.215 139.485 139.485 0 0 1 5.57-4.425 64.15 64.15 0 0 1 6.762-4.07c2.637-1.153 5.508-2.16 8.656-3.009 3.453-.66 7.207-1.09 11.324-1.28M-1.265 47.11c3.11-.38 6.008-.766 8.668-1.266a38.634 38.634 0 0 0 6.774-2.504 49.131 49.131 0 0 0 5.566-3.89 172.255 172.255 0 0 0 5.125-4.72 142.48 142.48 0 0 1 5.387-4.863 60.276 60.276 0 0 1 6.383-4.332 50.308 50.308 0 0 1 8.082-3.09c3.195-.636 6.683-1.027 10.496-1.152M0 56.693c3.324-.137 6.625-.575 9.578-1.266a44.757 44.757 0 0 0 7.524-3.328 64.089 64.089 0 0 0 6.164-4.684 202.873 202.873 0 0 0 5.515-5.332 151.357 151.357 0 0 1 5.574-5.273 58.8 58.8 0 0 1 6.332-4.516 44.974 44.974 0 0 1 7.805-3.043c3.05-.566 6.367-.863 9.98-.867M1.268 66.274a69.574 69.574 0 0 0 9.582-2.175 60.921 60.921 0 0 0 8.34-4.074 85.673 85.673 0 0 0 6.953-5.278 264.028 264.028 0 0 0 6.132-5.73 167.677 167.677 0 0 1 5.973-5.45 58.431 58.431 0 0 1 6.516-4.464 41.496 41.496 0 0 1 7.758-2.77c2.984-.422 6.21-.55 9.71-.36M4.595 73.795c2.89-.824 5.828-1.789 8.758-2.922a83.282 83.282 0 0 0 8.34-4.375 112.666 112.666 0 0 0 7.378-5.402c2.285-1.91 4.469-3.816 6.649-5.715a153.145 153.145 0 0 1 6.37-5.258 56.619 56.619 0 0 1 6.794-4.086 38.883 38.883 0 0 1 7.828-2.187c2.984-.176 6.168-.04 9.617.45M9.271 79.953a154.136 154.136 0 0 0 7.964-3.523 119.295 119.295 0 0 0 7.903-4.5 179.334 179.334 0 0 0 7.382-5.215c2.356-1.797 4.594-3.578 6.887-5.324 2.18-1.668 4.43-3.25 6.63-4.703a52.115 52.115 0 0 1 7.038-3.352 36.61 36.61 0 0 1 7.926-1.27c3.008.188 6.176.7 9.61 1.598M-9.277 33.427a70.148 70.148 0 0 1 3.609 4.523 47.824 47.824 0 0 1 2.95 5.188A44.43 44.43 0 0 1-.73 49.286c.41 2.41.652 4.91.73 7.407.074 2.496.316 5 .727 7.406a44.787 44.787 0 0 0 1.988 6.148 48.107 48.107 0 0 0 2.949 5.188 67.94 67.94 0 0 0 3.613 4.527m-11.226-49.41a93.985 93.985 0 0 1 4.043 5.106 66.8 66.8 0 0 1 3.472 5.824 60.238 60.238 0 0 1 2.575 6.691 75.35 75.35 0 0 1 1.441 7.254c.29 2.352.563 4.59.879 6.695.379 1.973.86 3.825 1.437 5.559a37.548 37.548 0 0 0 2.313 4.664 51.984 51.984 0 0 0 3.031 4.094M4.4 27.615c1.41 1.773 2.79 3.597 4.125 5.457a91.531 91.531 0 0 1 3.637 5.992 81.812 81.812 0 0 1 2.883 6.472 109.76 109.76 0 0 1 2.059 6.563c.546 2.105 1.062 4.137 1.566 6.078a78.777 78.777 0 0 0 1.66 5.254c.652 1.57 1.344 3.066 2.129 4.496a50.97 50.97 0 0 0 2.691 4.012M10.03 24.154a200.743 200.743 0 0 1 3.96 5.484 128.957 128.957 0 0 1 3.625 5.812c1.098 1.993 2.133 4 3.102 6.012a173.611 173.611 0 0 1 2.55 5.953c.755 1.918 1.477 3.782 2.18 5.586a136.058 136.058 0 0 0 2.117 5.035 82.765 82.765 0 0 0 2.325 4.512 95.09 95.09 0 0 0 2.652 4.172M15.552 20.177a453.413 453.413 0 0 1 3.636 5.336c1.192 1.82 2.36 3.652 3.5 5.5 1.106 1.86 2.18 3.719 3.211 5.578a315.532 315.532 0 0 1 2.883 5.492c.899 1.785 1.778 3.54 2.64 5.254.852 1.68 1.704 3.32 2.556 4.926A186.628 186.628 0 0 0 36.61 56.9a230.62 230.62 0 0 0 2.801 4.5M21.696 16.02a561.093 561.093 0 0 0 3.18 5.134 845.013 845.013 0 0 1 3.25 5.214 493.241 493.241 0 0 1 3.18 5.243 884.225 884.225 0 0 1 3.05 5.199l2.93 5.09c.965 1.664 1.93 3.316 2.89 4.957a700.967 700.967 0 0 0 2.923 4.886l3 4.954M29.2 12.193a159.38 159.38 0 0 0 2.594 4.965c.934 1.664 1.89 3.335 2.867 5.007a775.266 775.266 0 0 0 2.988 5.055c1.012 1.691 2.024 3.383 3.04 5.074 1.015 1.7 2.035 3.399 3.058 5.098l3.082 5.144c1.031 1.739 2.074 3.497 3.121 5.278a363.509 363.509 0 0 1 3.168 5.539M38.802 9.303a81.286 81.286 0 0 0 1.863 4.874 146.933 146.933 0 0 0 2.328 4.934c.852 1.66 1.735 3.332 2.64 5.015a552.209 552.209 0 0 0 2.86 5.125c.988 1.742 1.992 3.5 3.004 5.278 1.027 1.804 2.07 3.632 3.121 5.496a469.5 469.5 0 0 1 3.203 5.808 340.233 340.233 0 0 1 3.258 6.27M51.204 7.99c.25 1.628.578 3.265.988 4.906a88.431 88.431 0 0 0 1.637 4.992 155.175 155.175 0 0 0 2.129 5.145c.797 1.753 1.633 3.539 2.504 5.351a732.035 732.035 0 0 0 2.777 5.637c.977 1.953 1.977 3.953 2.992 6.008a521.899 521.899 0 0 1 3.141 6.5c1.07 2.3 2.152 4.683 3.23 7.144" transform="matrix(1 0 0 -1 10.23 80.763)"/><path style="fill:none;stroke-width:1.19553;stroke-linecap:butt;stroke-linejoin:miter;stroke:#00f;stroke-opacity:1;stroke-miterlimit:10" d="M19.188 60.025c-2.921.285-5.93.297-9.039-.008-3.238-.672-6.757-1.82-10.148-3.324 3.238-1.813 6.266-3.938 8.746-6.121a46.435 46.435 0 0 0 5.43-7.23" transform="matrix(1 0 0 -1 10.23 80.763)"/><path style="fill:none;stroke-width:1.19553;stroke-linecap:butt;stroke-linejoin:miter;stroke:red;stroke-opacity:1;stroke-miterlimit:10" d="M.001 56.693c28.348 0 28.348-28.348 56.691-28.348" transform="matrix(1 0 0 -1 10.23 80.763)"/></svg>