<svg xmlns="http://www.w3.org/2000/svg" width="95.69pt" height="85.347" viewBox="0 0 95.69 64.01" version="1.2"><defs><clipPath id="a"><path d="M0 0h95.535v63.516H0Zm0 0"/></clipPath></defs><path style="fill:none;stroke-width:.19925;stroke-linecap:butt;stroke-linejoin:miter;stroke:gray;stroke-opacity:1;stroke-miterlimit:10" d="M0 .001h85.039M-.001 28.35h85.04M-.001 56.685h85.04M-.001 0v56.692M28.348 0v56.692M56.695 0v56.692M85.031 0v56.692" transform="matrix(1 0 0 -1 5.555 61.755)"/><g clip-path="url(#a)"><path style="fill:none;stroke-width:.3985;stroke-linecap:butt;stroke-linejoin:miter;stroke:#000;stroke-opacity:1;stroke-miterlimit:10" d="M7.578 6.614a11.34 11.34 0 0 0 2.449-7.359m7 10.508a11.326 11.326 0 0 0 2.453-7.356m7 10.508a11.34 11.34 0 0 0 2.45-7.36m7 10.509a11.351 11.351 0 0 0 2.453-7.36m6.996 10.512a11.322 11.322 0 0 0 2.453-7.36m7 10.508a11.351 11.351 0 0 0 2.453-7.359m6.996 10.512a11.322 11.322 0 0 0 2.453-7.36m7 10.508a11.358 11.358 0 0 0 2.453-7.36m6.996 10.509a11.305 11.305 0 0 0 2.453-7.356M81.14 37.665c2.5.918 5.246.922 7.754.02M74.73 44.263a11.323 11.323 0 0 0 6.824 3.68m-14.84.808a11.363 11.363 0 0 0 5.083 5.86m-13.868-2.88a11.338 11.338 0 0 0 3.461 6.942M48.683 53.29a11.344 11.344 0 0 0 2.047 7.48m-11.48-7.328a11.355 11.355 0 0 0 .773 7.72m-10.152-8.958a11.335 11.335 0 0 0-.43 7.742m-8.598-10.5a11.326 11.326 0 0 0-1.683 7.57m-6.582-12.011a11.338 11.338 0 0 0-3.055 7.129M5.777 38.689a11.337 11.337 0 0 0-4.613 6.234m.652-14.469a11.335 11.335 0 0 0-6.363 4.434" transform="matrix(1 0 0 -1 5.555 61.755)"/></g></svg>