<svg xmlns="http://www.w3.org/2000/svg" xmlns:xlink="http://www.w3.org/1999/xlink" width="203.469" height="147.675" viewBox="0 0 152.602 110.756" version="1.2"><defs><symbol overflow="visible" id="b"><path style="stroke:none" d="M5.563-1.813c.14 0 .312 0 .312-.171 0-.188-.172-.188-.313-.188H1c-.125 0-.297 0-.297.188 0 .171.172.171.297.171Zm0 0"/></symbol><symbol overflow="visible" id="c"><path style="stroke:none" d="M2.25-1.625c.125-.125.453-.39.594-.5.484-.453.953-.89.953-1.61 0-.953-.797-1.562-1.781-1.562-.97 0-1.594.719-1.594 1.438 0 .39.312.437.422.437.172 0 .422-.11.422-.422 0-.406-.407-.406-.5-.406.234-.594.765-.781 1.156-.781.734 0 1.125.625 1.125 1.297 0 .828-.578 1.437-1.531 2.39l-1 1.047C.422-.219.422-.203.422 0h3.14l.235-1.422h-.25c-.016.156-.078.547-.172.703-.047.063-.656.063-.781.063H1.172Zm0 0"/></symbol><symbol overflow="visible" id="d"><path style="stroke:none" d="M3.14-5.156c0-.157 0-.219-.171-.219-.094 0-.11 0-.188.11L.234-1.564v.25h2.25v.672c0 .297-.015.375-.64.375h-.172V0c.672-.031.687-.031 1.14-.031.454 0 .47 0 1.141.031v-.266h-.172c-.625 0-.64-.078-.64-.375v-.671h.843v-.25h-.843Zm-.593.64v2.954H.516Zm0 0"/></symbol><symbol overflow="visible" id="e"><path style="stroke:none" d="M1.094-2.64c0-.657.062-1.235.343-1.72.25-.406.657-.734 1.157-.734.156 0 .515.032.703.297-.36.031-.39.297-.39.375 0 .25.187.375.374.375.14 0 .375-.078.375-.39 0-.47-.36-.86-1.078-.86C1.468-5.297.344-4.25.344-2.53.344-.36 1.359.172 2.125.172c.39 0 .797-.11 1.156-.453.328-.313.594-.64.594-1.344 0-1.031-.797-1.766-1.672-1.766-.578 0-.922.36-1.11.75ZM2.125-.079a.88.88 0 0 1-.797-.516c-.187-.36-.203-.89-.203-1.203 0-.781.422-1.375 1.047-1.375.39 0 .64.203.781.485.172.296.172.656.172 1.062s0 .75-.156 1.047c-.219.36-.485.5-.844.5Zm0 0"/></symbol><symbol overflow="visible" id="f"><path style="stroke:none" d="M3.89-2.547c0-.844-.078-1.36-.343-1.875-.344-.703-1-.875-1.438-.875-1 0-1.375.75-1.484.969C.344-3.75.328-2.953.328-2.547c0 .531.016 1.328.406 1.969.36.594.954.75 1.375.75.391 0 1.063-.125 1.47-.906.296-.579.312-1.297.312-1.813ZM2.11-.062c-.266 0-.813-.126-.985-.954-.094-.453-.094-1.203-.094-1.625 0-.546 0-1.109.094-1.546.172-.813.781-.891.984-.891.266 0 .829.14.985.86.094.437.094 1.046.094 1.577 0 .47 0 1.188-.094 1.641-.172.828-.719.938-.985.938Zm0 0"/></symbol><clipPath id="a"><path d="M0 0h152.402v110.633H0Zm0 0"/></clipPath></defs><path style="fill:none;stroke-width:.3985;stroke-linecap:round;stroke-linejoin:miter;stroke:#000;stroke-opacity:1;stroke-miterlimit:10" d="M-28.348-1.993v3.985M28.348-1.993v3.985M56.691-1.993v3.985M85.04-1.993v3.985M-1.992-56.692h3.984M-1.992-28.348h3.984" transform="matrix(1 0 0 -1 54.875 34.058)"/><path style="fill:none;stroke-width:.3985;stroke-linecap:butt;stroke-linejoin:miter;stroke:#000;stroke-opacity:1;stroke-miterlimit:10" d="M-54.066 0H96.125" transform="matrix(1 0 0 -1 54.875 34.058)"/><path style="fill:none;stroke-width:.3985;stroke-linecap:round;stroke-linejoin:round;stroke:#000;stroke-opacity:1;stroke-miterlimit:10" d="M-2.073 2.39C-1.693.956-.85.28.001 0-.85-.279-1.694-.959-2.073-2.392" transform="matrix(1 0 0 -1 151.198 34.058)"/><path style="fill:none;stroke-width:.3985;stroke-linecap:butt;stroke-linejoin:miter;stroke:#000;stroke-opacity:1;stroke-miterlimit:10" d="M0-75.567V32.781" transform="matrix(1 0 0 -1 54.875 34.058)"/><path style="fill:none;stroke-width:.3985;stroke-linecap:round;stroke-linejoin:round;stroke:#000;stroke-opacity:1;stroke-miterlimit:10" d="M-2.074 2.39C-1.695.958-.851.278 0 0-.85-.277-1.695-.957-2.074-2.39" transform="matrix(0 -1 -1 0 54.875 1.078)"/><g clip-path="url(#a)"><path style="fill:none;stroke-width:.59776;stroke-linecap:butt;stroke-linejoin:miter;stroke:#000;stroke-opacity:1;stroke-miterlimit:10" d="M0 0s2.691.445 3.582.96c.895.516 2.25 1.79 2.844 2.75.594.957 1.308 2.891 1.445 4.16.137 1.27-.023 3.59-.45 4.985-.425 1.39-1.589 3.758-2.62 5.066C3.773 19.226 1.598 21.27 0 22.261c-1.598.996-4.66 2.348-6.723 2.828-2.058.477-5.773.82-8.117.617-2.344-.203-6.37-1.101-8.773-2.093-2.399-.992-6.325-3.25-8.52-5.059-2.191-1.812-5.57-5.414-7.289-7.988-1.723-2.574-4.11-7.367-5.101-10.563-.997-3.199-2.004-8.879-2.07-12.484-.063-3.602.6-9.762 1.605-13.488 1.004-3.73 3.508-9.852 5.633-13.383 2.12-3.531 6.472-9.067 9.667-12.059 3.196-2.992 9.243-7.383 13.36-9.515 4.117-2.133 11.527-4.868 16.324-5.86 4.797-.996 13.098-1.66 18.242-1.312 5.149.351 13.746 2.027 18.86 3.828 5.113 1.805 13.332 5.914 17.992 9.168 4.66 3.254 11.805 9.703 15.597 14.281 3.793 4.582 9.196 13.063 11.743 18.727C84.977-16.43 89.05-.008 89.05-.008" transform="matrix(1 0 0 -1 54.875 34.058)"/></g><use xlink:href="#b" x="21.119" y="43.843" style="fill:#000;fill-opacity:1"/><use xlink:href="#c" x="27.705" y="43.843" style="fill:#000;fill-opacity:1"/><use xlink:href="#c" x="81.104" y="43.843" style="fill:#000;fill-opacity:1"/><use xlink:href="#d" x="109.45" y="43.843" style="fill:#000;fill-opacity:1"/><use xlink:href="#e" x="137.796" y="43.843" style="fill:#000;fill-opacity:1"/><use xlink:href="#b" x="39.406" y="92.903" style="fill:#000;fill-opacity:1"/><use xlink:href="#d" x="45.993" y="92.903" style="fill:#000;fill-opacity:1"/><use xlink:href="#b" x="39.406" y="64.557" style="fill:#000;fill-opacity:1"/><use xlink:href="#c" x="45.993" y="64.557" style="fill:#000;fill-opacity:1"/><use xlink:href="#f" x="47.985" y="41.85" style="fill:#000;fill-opacity:1"/></svg>