<svg xmlns="http://www.w3.org/2000/svg" width="116.475" height="78.531" viewBox="0 0 87.356 58.898" version="1.2"><path style="fill:none;stroke-width:.19925;stroke-linecap:butt;stroke-linejoin:miter;stroke:gray;stroke-opacity:1;stroke-miterlimit:10" d="M0 0h85.039M-.001 28.347h85.04M-.001 56.683h85.04M-.001 0v56.695M28.348 0v56.695M56.695 0v56.695M85.03 0v56.695" transform="matrix(1 0 0 -1 .895 57.742)"/><path style="fill:none;stroke-width:.3985;stroke-linecap:butt;stroke-linejoin:miter;stroke:#000;stroke-opacity:1;stroke-miterlimit:10" d="M56.695 28.347c0 7.829-12.692 14.172-28.348 14.172C12.691 42.52 0 36.176 0 28.347c0-7.828 12.69-14.175 28.347-14.175 15.656 0 28.348 6.347 28.348 14.175Zm0 0" transform="matrix(1 0 0 -1 .895 57.742)"/></svg>