<svg xmlns="http://www.w3.org/2000/svg" width="149.071" height="95.667" viewBox="0 0 111.803 71.75" version="1.2"><defs><clipPath id="a"><path d="M0 0h111.703v71.625H0Zm0 0"/></clipPath></defs><path style="fill:none;stroke-width:.19925;stroke-linecap:butt;stroke-linejoin:miter;stroke:gray;stroke-opacity:1;stroke-miterlimit:10" d="M0 0h85.04M0 28.347h85.04M0 56.683h85.04M0 0v56.695M28.349 0v56.695M56.692 0v56.695M85.032 0v56.695" transform="matrix(1 0 0 -1 17.823 70.523)"/><g clip-path="url(#a)"><path style="fill:none;stroke-width:.3985;stroke-linecap:butt;stroke-linejoin:miter;stroke:#000;stroke-opacity:1;stroke-miterlimit:10" d="M9.141 3.96c.23-.53.414-1.082.547-1.644m8.594 5.61c.46-1.067.828-2.169 1.098-3.298m8.043 7.258a29.688 29.688 0 0 0 1.644-4.941m7.496 8.902a39.889 39.889 0 0 0 2.196-6.59m6.945 10.555a49.834 49.834 0 0 0 2.742-8.238m6.398 12.199a59.915 59.915 0 0 0 3.293-9.887m5.844 13.848a69.725 69.725 0 0 0 3.848-11.531m5.293 15.492a79.429 79.429 0 0 0 4.394-13.18m-.289 9.52c5.196.465 10.43.48 15.63.039M75.082 33.48a99.707 99.707 0 0 0 15.285 8.242m-20.05-3.61A109.46 109.46 0 0 0 82.84 52.54M63.719 41.535a119.627 119.627 0 0 0 9.301 18.648m-16.867-16.62a129.345 129.345 0 0 0 5.961 21.776M48.192 44.23a139.29 139.29 0 0 0 2.414 24.191m-10.39-24.8a149.677 149.677 0 0 0-1.454 26.007M32.67 41.816a158.993 158.993 0 0 0-6.032 27.121m-.656-30.035a169.687 169.687 0 0 0-11.613 27.14m6.406-30.882A179.529 179.529 0 0 0 2.188 60.296m15.7-28.859A189.459 189.459 0 0 0-9.18 50.308m26.676-20.937a199.251 199.251 0 0 0-34.363 5.047" transform="matrix(1 0 0 -1 17.823 70.523)"/></g></svg>