<svg xmlns="http://www.w3.org/2000/svg" xmlns:xlink="http://www.w3.org/1999/xlink" width="408.219" height="142.971" viewBox="0 0 306.164 107.228" version="1.2"><defs><symbol overflow="visible" id="a"><path style="stroke:none" d="M1.234-2.047c.547 0 1.125 0 1.594-.125.844-.203 1-.703 1-1.015 0-.5-.469-.782-1-.782-1.047 0-2.406.89-2.406 2.422 0 .86.5 1.64 1.469 1.64 1.343 0 2.093-.921 2.093-1.046 0-.047-.062-.125-.125-.125-.03 0-.046.016-.125.11-.546.655-1.359.843-1.828.843-.625 0-.797-.594-.797-1.047 0-.016 0-.328.125-.875Zm.063-.234c.39-1.406 1.39-1.453 1.531-1.453.297 0 .672.14.672.546 0 .907-1.36.907-2.203.907Zm0 0"/></symbol><symbol overflow="visible" id="s"><path style="stroke:none" d="M4.406-3.625a.504.504 0 0 0-.422.484c0 .172.125.329.344.329.25 0 .5-.22.5-.532 0-.422-.453-.625-.875-.625-.531 0-.844.485-.953.672a1.042 1.042 0 0 0-1-.672c-.953 0-1.484 1.156-1.484 1.39 0 .079.062.11.125.11.078 0 .109-.047.125-.11.28-.89.875-1.155 1.218-1.155.266 0 .485.171.485.593 0 .313-.375 1.75-.5 2.188-.063.265-.344.828-.828.828-.188 0-.375-.063-.454-.11.235-.046.422-.265.422-.484 0-.234-.171-.328-.343-.328-.266 0-.5.219-.5.531 0 .438.484.61.859.61.531 0 .828-.422.969-.672.219.594.75.672.984.672.969 0 1.485-1.157 1.485-1.375 0-.047-.032-.11-.11-.11-.11 0-.11.032-.156.172-.203.64-.719 1.094-1.188 1.094-.25 0-.5-.156-.5-.594 0-.203.125-.687.204-1.031.046-.156.28-1.125.296-1.188.11-.328.375-.796.844-.796.156 0 .328.015.453.109Zm0 0"/></symbol><symbol overflow="visible" id="z"><path style="stroke:none" d="M5.828-5.156c.078-.375.25-.672.953-.688.047 0 .157-.015.157-.172 0-.062-.047-.109-.125-.109-.188 0-.704.031-.891.031-.234 0-.25 0-.453-.015-.157 0-.344-.016-.469-.016-.047 0-.172 0-.172.156 0 .125.11.125.172.125.344 0 .594.078.594.375 0 .047-.032.172-.032.188l-.796 3.203c-.313 1.25-1.407 2-2.297 2-.453 0-1.11-.25-1.11-1.203 0-.219.032-.453.079-.688l.875-3.468c.078-.344.109-.407.812-.407.14 0 .234 0 .234-.172 0-.078-.062-.109-.125-.109l-.578.016c-.265.015-.281.015-.562.015-.297 0-.313 0-.578-.015-.172 0-.407-.016-.579-.016-.062 0-.187 0-.187.156 0 .125.094.125.266.125.046 0 .203 0 .343.016.172.016.22.047.22.14 0 .047-.079.375-.141.563l-.188.781c-.078.36-.516 2.032-.547 2.219-.078.281-.078.39-.078.578 0 1.047.781 1.75 1.828 1.75C3.61.203 4.75-.828 5.031-2Zm0 0"/></symbol><symbol overflow="visible" id="D"><path style="stroke:none" d="M1.625-.14c0 .296 0 1.03-.656 1.671-.047.047-.047.063-.047.094 0 .063.062.11.11.11.093 0 .827-.704.827-1.75 0-.563-.203-.954-.578-.954a.467.467 0 0 0-.484.485c0 .25.172.484.484.484a.46.46 0 0 0 .344-.14Zm0 0"/></symbol><symbol overflow="visible" id="b"><path style="stroke:none" d="M4.766-1.344c.093 0 .25 0 .25-.156s-.157-.156-.25-.156H1c-.11 0-.25 0-.25.156s.14.156.25.156Zm0 0"/></symbol><symbol overflow="visible" id="c"><path style="stroke:none" d="M3.375-2.36a.339.339 0 0 0-.266.329c0 .187.157.234.235.234.187 0 .36-.14.36-.375 0-.328-.36-.469-.657-.469-.406 0-.64.313-.703.422-.078-.156-.313-.422-.766-.422-.687 0-1.094.72-1.094.922 0 .032.032.078.11.078.094 0 .11-.03.125-.078.156-.484.562-.718.844-.718.296 0 .39.187.39.39 0 .063 0 .125-.047.313-.14.546-.265 1.093-.297 1.171-.093.22-.312.422-.562.422-.031 0-.203 0-.344-.093C.938-.312.97-.5.97-.547c0-.156-.125-.234-.25-.234-.156 0-.344.125-.344.375 0 .344.375.469.656.469.344 0 .594-.235.703-.422.125.25.407.421.75.421.704 0 1.094-.734 1.094-.921 0-.016 0-.094-.11-.094-.077 0-.093.047-.109.11-.171.515-.593.702-.859.702-.219 0-.375-.125-.375-.375 0-.125.016-.25.078-.453l.188-.781c.062-.234.093-.344.218-.484a.574.574 0 0 1 .422-.204c.031 0 .203 0 .344.079Zm0 0"/></symbol><symbol overflow="visible" id="q"><path style="stroke:none" d="M2.078-3.734a.23.23 0 0 0-.234-.235c-.172 0-.344.156-.344.328 0 .141.11.235.234.235a.344.344 0 0 0 .344-.328Zm-.36 2.093c.032-.062.079-.203.11-.265a.647.647 0 0 0 .031-.219c0-.328-.296-.516-.593-.516-.61 0-.907.797-.907.922 0 .032.032.078.11.078.094 0 .11-.03.125-.078.172-.578.484-.718.656-.718.11 0 .156.078.156.218 0 .11-.031.203-.047.25l-.312.766c-.078.172-.078.187-.156.39-.079.172-.094.25-.094.36 0 .297.265.516.594.516.609 0 .906-.797.906-.922 0-.016 0-.094-.11-.094-.093 0-.093.031-.124.156-.094.297-.344.656-.657.656-.11 0-.156-.062-.156-.218 0-.11.031-.204.11-.391Zm0 0"/></symbol><symbol overflow="visible" id="d"><path style="stroke:none" d="M2.938-.969h-.22c0 .094-.062.406-.14.453-.031.032-.453.032-.531.032h-.969c.328-.235.688-.516.984-.72.454-.312.876-.593.876-1.124 0-.64-.61-.985-1.313-.985-.672 0-1.172.376-1.172.876 0 .25.219.296.297.296a.283.283 0 0 0 .281-.296.27.27 0 0 0-.281-.282c.14-.234.438-.375.766-.375.484 0 .89.281.89.766 0 .422-.297.75-.672 1.062L.516-.234c-.047.047-.063.047-.063.078V0h2.313Zm0 0"/></symbol><symbol overflow="visible" id="e"><path style="stroke:none" d="M5.563-1.813c.14 0 .312 0 .312-.171 0-.188-.172-.188-.313-.188H1c-.125 0-.297 0-.297.188 0 .171.172.171.297.171Zm0 0"/></symbol><symbol overflow="visible" id="f"><path style="stroke:none" d="M1.11-4.484c.109.03.421.125.765.125 1 0 1.594-.704 1.594-.829 0-.093-.047-.109-.094-.109-.016 0-.031 0-.094.031a2.982 2.982 0 0 1-1.11.22c-.468 0-.858-.11-1.108-.22-.079-.03-.094-.03-.11-.03-.094 0-.094.077-.094.234v2.328c0 .14 0 .234.125.234.063 0 .079-.031.125-.094.094-.11.391-.515 1.079-.515.437 0 .656.359.734.515.125.281.14.656.14.953 0 .297 0 .735-.218 1.079-.156.25-.485.484-.906.484A1.271 1.271 0 0 1 .734-.922c.016.016.079.016.079.016.218 0 .406-.14.406-.39a.388.388 0 0 0-.39-.407c-.157 0-.407.078-.407.422 0 .718.625 1.453 1.531 1.453 1 0 1.844-.781 1.844-1.766 0-.922-.672-1.75-1.61-1.75-.39 0-.765.125-1.078.406Zm0 0"/></symbol><symbol overflow="visible" id="g"><path style="stroke:none" d="M2.25-1.625c.125-.125.453-.39.594-.5.484-.453.953-.89.953-1.61 0-.953-.797-1.562-1.781-1.562-.97 0-1.594.719-1.594 1.438 0 .39.312.437.422.437.172 0 .422-.11.422-.422 0-.406-.407-.406-.5-.406.234-.594.765-.781 1.156-.781.734 0 1.125.625 1.125 1.297 0 .828-.578 1.437-1.531 2.39l-1 1.047C.422-.219.422-.203.422 0h3.14l.235-1.422h-.25c-.016.156-.078.547-.172.703-.047.063-.656.063-.781.063H1.172Zm0 0"/></symbol><symbol overflow="visible" id="i"><path style="stroke:none" d="M3.89-2.547c0-.844-.078-1.36-.343-1.875-.344-.703-1-.875-1.438-.875-1 0-1.375.75-1.484.969C.344-3.75.328-2.953.328-2.547c0 .531.016 1.328.406 1.969.36.594.954.75 1.375.75.391 0 1.063-.125 1.47-.906.296-.579.312-1.297.312-1.813ZM2.11-.062c-.266 0-.813-.126-.985-.954-.094-.453-.094-1.203-.094-1.625 0-.546 0-1.109.094-1.546.172-.813.781-.891.984-.891.266 0 .829.14.985.86.094.437.094 1.046.094 1.577 0 .47 0 1.188-.094 1.641-.172.828-.719.938-.985.938Zm0 0"/></symbol><symbol overflow="visible" id="j"><path style="stroke:none" d="M3.14-5.156c0-.157 0-.219-.171-.219-.094 0-.11 0-.188.11L.234-1.564v.25h2.25v.672c0 .297-.015.375-.64.375h-.172V0c.672-.031.687-.031 1.14-.031.454 0 .47 0 1.141.031v-.266h-.172c-.625 0-.64-.078-.64-.375v-.671h.843v-.25h-.843Zm-.593.64v2.954H.516Zm0 0"/></symbol><symbol overflow="visible" id="k"><path style="stroke:none" d="M1.094-2.64c0-.657.062-1.235.343-1.72.25-.406.657-.734 1.157-.734.156 0 .515.032.703.297-.36.031-.39.297-.39.375 0 .25.187.375.374.375.14 0 .375-.078.375-.39 0-.47-.36-.86-1.078-.86C1.468-5.297.344-4.25.344-2.53.344-.36 1.359.172 2.125.172c.39 0 .797-.11 1.156-.453.328-.313.594-.64.594-1.344 0-1.031-.797-1.766-1.672-1.766-.578 0-.922.36-1.11.75ZM2.125-.079a.88.88 0 0 1-.797-.516c-.187-.36-.203-.89-.203-1.203 0-.781.422-1.375 1.047-1.375.39 0 .64.203.781.485.172.296.172.656.172 1.062s0 .75-.156 1.047c-.219.36-.485.5-.844.5Zm0 0"/></symbol><symbol overflow="visible" id="l"><path style="stroke:none" d="M2.64-2.875c.454-.219 1-.61 1-1.234 0-.766-.78-1.188-1.515-1.188-.844 0-1.531.578-1.531 1.328 0 .297.094.563.297.797.14.172.171.188.656.5C.563-2.234.344-1.656.344-1.219c0 .89.89 1.39 1.765 1.39.97 0 1.766-.671 1.766-1.515 0-.5-.266-.828-.406-.968-.125-.126-.14-.141-.828-.563Zm-1.234-.75c-.234-.14-.422-.375-.422-.64 0-.5.547-.829 1.125-.829.61 0 1.125.422 1.125.985 0 .453-.359.843-.828 1.078Zm.39 1.094c.032.015.938.578 1.079.656.125.078.547.328.547.813 0 .609-.656.984-1.297.984-.719 0-1.313-.484-1.313-1.14 0-.595.438-1.063.985-1.313Zm0 0"/></symbol><symbol overflow="visible" id="m"><path style="stroke:none" d="M2.5-5.078c0-.219-.016-.219-.234-.219-.329.313-.75.5-1.5.5v.266c.218 0 .64 0 1.109-.203v4.078c0 .297-.031.39-.781.39H.812V0c.329-.031 1.016-.031 1.375-.031.36 0 1.047 0 1.376.031v-.266H3.28c-.75 0-.781-.093-.781-.39Zm0 0"/></symbol><symbol overflow="visible" id="h"><path style="stroke:none" d="M1.625-.438a.463.463 0 0 0-.453-.453.447.447 0 0 0-.438.438.44.44 0 0 0 .438.453.45.45 0 0 0 .453-.438Zm0 0"/></symbol><symbol overflow="visible" id="n"><path style="stroke:none" d="M4.5 4.64c.094-.109.094-.124.094-.156 0-.015 0-.046-.078-.14L1.546.39h3.626c.672 0 1.344.03 2 .203.828.25 1.516.781 1.781 1.531h.266L8.422 0H.766c-.25 0-.25.016-.25.313l3.359 4.484L.594 8.703c-.078.094-.078.125-.078.156 0 .11.093.11.25.11h7.656l.797-2.266h-.266c-.25.719-.875 1.266-1.703 1.516-.125.031-.766.234-2.031.234H1.312Zm0 0"/></symbol><symbol overflow="visible" id="o"><path style="stroke:none" d="M2.14-3.797c0-.187-.015-.187-.203-.187-.39.39-1 .39-1.218.39v.235c.156 0 .562 0 .922-.172v3.015c0 .204 0 .282-.625.282h-.25V0c.328-.031.796-.031 1.125-.031.328 0 .796 0 1.125.031v-.234h-.25c-.625 0-.625-.078-.625-.282Zm0 0"/></symbol><symbol overflow="visible" id="p"><path style="stroke:none" d="M3.297-1.906c0-.438 0-2.078-1.469-2.078S.36-2.344.36-1.906c0 .422 0 2.031 1.47 2.031 1.468 0 1.468-1.61 1.468-2.031ZM1.828-.063a.84.84 0 0 1-.812-.625C.922-1.03.922-1.609.922-1.984c0-.407 0-.86.094-1.188.14-.531.593-.61.812-.61.266 0 .672.126.797.579.094.312.094.75.094 1.219 0 .375 0 .984-.094 1.312a.825.825 0 0 1-.797.61Zm0 0"/></symbol><symbol overflow="visible" id="r"><path style="stroke:none" d="M4.89-2.031c.094 0 .22 0 .22-.156 0-.157-.157-.157-.25-.157H.718c-.078 0-.25 0-.25.156 0 .157.14.157.219.157ZM4.86-.656c.093 0 .25 0 .25-.156 0-.157-.126-.157-.22-.157H.689c-.079 0-.22 0-.22.156 0 .157.173.157.25.157Zm0 0"/></symbol><symbol overflow="visible" id="t"><path style="stroke:none" d="M2.297-.281c0-.61-.313-1.125-.828-1.125-.453 0-.703.343-.703.703 0 .36.25.703.718.703a.698.698 0 0 0 .438-.156c-.031.719-.39 1.218-.813 1.562-.046.032-.093.063-.093.14 0 .079.109.188.187.188.14 0 1.094-.765 1.094-2.015Zm0 0"/></symbol><symbol overflow="visible" id="u"><path style="stroke:none" d="M7.422-3.547v-.437c-.25.03-.469.03-.719.03-.281 0-.562-.015-.844-.03v.437c.11 0 .313 0 .5.078-.015.078-.015.094-.046.156l-.954 2.266-1.03-2.5h.484v-.437l-1.016.03c-.078 0-.516 0-.906-.03v.437h.515c.125.266.125.281.172.422L2.797-1.25l-.953-2.297h.484v-.437l-1.094.03c-.218 0-.546 0-1-.03v.437H.75l1.406 3.36c.094.234.235.234.344.234.25 0 .297-.094.36-.25l.968-2.328.985 2.344c.093.234.234.234.343.234.11 0 .25 0 .344-.234l1.328-3.157c.063-.14.078-.203.594-.203Zm0 0"/></symbol><symbol overflow="visible" id="v"><path style="stroke:none" d="M5.656 0v-.438h-.61v-2.296c0-1.063-.655-1.297-1.437-1.297-.843 0-1.328.484-1.562.843v-3.03l-1.594.062v.437c.531 0 .61 0 .61.36v4.921h-.61V0l1.125-.031L2.718 0v-.438H2.11V-2.28c0-1 .829-1.39 1.36-1.39.344 0 .515.187.515.858v2.376h-.609V0l1.14-.031Zm0 0"/></symbol><symbol overflow="visible" id="w"><path style="stroke:none" d="M4.563-1.047c0-.172-.172-.172-.235-.172-.156 0-.172.047-.234.172-.203.469-.75.719-1.313.719-1.281 0-1.297-1.156-1.297-1.594h2.782c.187 0 .296 0 .296-.25 0-.203-.015-1-.593-1.484-.406-.328-.953-.406-1.39-.406-1.532 0-2.282.968-2.282 2.046 0 1.172.89 2.063 2.406 2.063 1.485 0 1.86-.938 1.86-1.094ZM3.688-2.25H1.483c.016-.406.063-1.453 1.094-1.453 1.047 0 1.094 1.094 1.11 1.453Zm0 0"/></symbol><symbol overflow="visible" id="x"><path style="stroke:none" d="M4.078-3.281c0-.453-.469-.75-1-.75-.625 0-1 .453-1.203.968h-.016v-.968L.375-3.97v.438c.531 0 .61 0 .61.36v2.733h-.61V0l1.14-.031c.22 0 .75 0 1.22.031v-.438h-.766v-1.515c0-.656.25-1.703 1.11-1.719a.571.571 0 0 0-.142.39c0 .391.313.579.563.579.297 0 .578-.203.578-.578Zm0 0"/></symbol><symbol overflow="visible" id="y"><path style="stroke:none" d="M6.64-3.016c0-.25-.077-.312-.124-.312-.125 0-.125.203-.141.328-.031.672-.531 1.313-1.266 1.313-.515 0-.937-.297-1.468-.782-.532-.5-.985-.875-1.594-.875-.985 0-1.531 1.016-1.531 1.875 0 .235.062.313.125.313.109 0 .14-.172.14-.219.047-1.125.828-1.422 1.266-1.422.515 0 .937.297 1.469.781.53.5.984.875 1.593.875.985 0 1.532-1.015 1.532-1.875Zm0 0"/></symbol><symbol overflow="visible" id="B"><path style="stroke:none" d="M6.047-2.047c.172 0 .344 0 .344-.203 0-.188-.188-.188-.344-.188H1.109c-.156 0-.343 0-.343.188 0 .203.171.203.343.203Zm0 0"/></symbol><symbol overflow="visible" id="A"><path style="stroke:none" d="M3.063 2.14c0-.046-.032-.078-.079-.14C1.828.937 1.47-.672 1.47-2.25c0-1.375.265-3.063 1.531-4.266.047-.046.063-.062.063-.109a.107.107 0 0 0-.11-.11c-.11 0-.922.657-1.406 1.626-.422.859-.64 1.796-.64 2.859 0 .64.077 1.672.577 2.719.532 1.11 1.36 1.765 1.47 1.765.062 0 .108-.03.108-.093Zm0 0"/></symbol><symbol overflow="visible" id="C"><path style="stroke:none" d="M2.719-5.734c0-.22 0-.235-.219-.235-.563.563-1.39.563-1.672.563v.281c.172 0 .719 0 1.203-.234v4.64c0 .328-.015.438-.86.438h-.28V0c.312-.031 1.125-.031 1.484-.031.375 0 1.172 0 1.5.031v-.281h-.281c-.844 0-.875-.11-.875-.438Zm0 0"/></symbol><symbol overflow="visible" id="E"><path style="stroke:none" d="M2.672-2.25c0-.734-.11-1.719-.578-2.719C1.563-6.079.734-6.734.625-6.734c-.094 0-.11.078-.11.109 0 .047.016.063.079.125.531.469 1.515 1.688 1.515 4.25C2.11-.969 1.875.813.58 2.031c-.016.016-.063.063-.063.11 0 .015.015.093.109.093.11 0 .922-.64 1.406-1.625.422-.859.64-1.78.64-2.859Zm0 0"/></symbol></defs><path style="fill:none;stroke-width:.3985;stroke-linecap:round;stroke-linejoin:miter;stroke:gray;stroke-opacity:1;stroke-miterlimit:10" d="M20.247-6.973v1.993M45.56-6.973v1.993M70.868-6.973v1.993M96.176-6.973v1.993M121.485-6.973v1.993M-6.972 0h1.992M-6.972 17.52h1.992M-6.972 35.035h1.992M-6.972 52.555h1.992M-6.972 70.074h1.992M-6.972 87.59h1.992" transform="matrix(1 0 0 -1 20.769 90.922)"/><path style="fill:none;stroke-width:.3985;stroke-linecap:butt;stroke-linejoin:miter;stroke:gray;stroke-opacity:1;stroke-miterlimit:10" d="M0-4.98h141.735" transform="matrix(1 0 0 -1 20.769 90.922)"/><path style="fill:none;stroke-width:.3985;stroke-linecap:square;stroke-linejoin:miter;stroke:#bfbfbf;stroke-opacity:1;stroke-miterlimit:10" d="M0 0h141.735M0 87.59h141.735" transform="matrix(1 0 0 -1 20.769 90.922)"/><path style="fill:none;stroke-width:.3985;stroke-linecap:butt;stroke-linejoin:miter;stroke:gray;stroke-opacity:1;stroke-miterlimit:10" d="M-4.98 0v87.59" transform="matrix(1 0 0 -1 20.769 90.922)"/><path style="fill:none;stroke-width:.3985;stroke-linecap:square;stroke-linejoin:miter;stroke:#bfbfbf;stroke-opacity:1;stroke-miterlimit:10" d="M0 0v87.59M141.735 0v87.59" transform="matrix(1 0 0 -1 20.769 90.922)"/><path style="fill-rule:nonzero;fill:#000;fill-opacity:1;stroke-width:.3985;stroke-linecap:butt;stroke-linejoin:miter;stroke:#000;stroke-opacity:1;stroke-miterlimit:10" d="M78.547 0a1.395 1.395 0 1 1-2.79-.002 1.395 1.395 0 0 1 2.79.002ZM53.149 0a1.395 1.395 0 1 1-2.79-.002 1.395 1.395 0 0 1 2.79.002ZM66.38 0a1.395 1.395 0 1 1-2.791-.002 1.395 1.395 0 0 1 2.79.002ZM84.829 0a1.395 1.395 0 1 1-2.791-.002 1.395 1.395 0 0 1 2.79.002ZM36.16 0a1.395 1.395 0 1 1-2.79-.002A1.395 1.395 0 0 1 36.16 0ZM70.829 0a1.395 1.395 0 1 1-2.791-.002 1.395 1.395 0 0 1 2.79.002Zm0 0" transform="matrix(1 0 0 -1 20.769 90.922)"/><path style="fill-rule:nonzero;fill:#000;fill-opacity:1;stroke-width:.3985;stroke-linecap:butt;stroke-linejoin:miter;stroke:#000;stroke-opacity:1;stroke-miterlimit:10" d="M83.376 0a1.395 1.395 0 1 1-2.787-.002A1.395 1.395 0 0 1 83.375 0ZM11.481 0a1.395 1.395 0 1 1-2.79-.002A1.395 1.395 0 0 1 11.48 0ZM104.856 0a1.395 1.395 0 1 1-2.787-.002 1.395 1.395 0 0 1 2.787.002Zm0 0" transform="matrix(1 0 0 -1 20.769 90.922)"/><path style="fill-rule:nonzero;fill:#000;fill-opacity:1;stroke-width:.3985;stroke-linecap:butt;stroke-linejoin:miter;stroke:#000;stroke-opacity:1;stroke-miterlimit:10" d="M82.684 0a1.395 1.395 0 1 1-2.79-.002 1.395 1.395 0 0 1 2.79.002ZM69.274 0a1.395 1.395 0 1 1-2.79-.002 1.395 1.395 0 0 1 2.79.002ZM75.376 0a1.396 1.396 0 0 1-2.793 0 1.395 1.395 0 0 1 2.793 0ZM47.583 0a1.395 1.395 0 1 1-2.791-.002 1.395 1.395 0 0 1 2.79.002ZM55.57 0a1.395 1.395 0 1 1-2.79-.002A1.395 1.395 0 0 1 55.57 0Zm0 0" transform="matrix(1 0 0 -1 20.769 90.922)"/><path style="fill-rule:nonzero;fill:#000;fill-opacity:1;stroke-width:.3985;stroke-linecap:butt;stroke-linejoin:miter;stroke:#000;stroke-opacity:1;stroke-miterlimit:10" d="M75.215 0a1.395 1.395 0 1 1-2.79-.002 1.395 1.395 0 0 1 2.79.002ZM58.93 0a1.395 1.395 0 1 1-2.79-.002A1.395 1.395 0 0 1 58.93 0ZM83.973 0a1.395 1.395 0 1 1-2.79-.002 1.395 1.395 0 0 1 2.79.002Zm0 0" transform="matrix(1 0 0 -1 20.769 90.922)"/><path style="fill-rule:nonzero;fill:#000;fill-opacity:1;stroke-width:.3985;stroke-linecap:butt;stroke-linejoin:miter;stroke:#000;stroke-opacity:1;stroke-miterlimit:10" d="M81.817 0a1.395 1.395 0 1 1-2.79-.002 1.395 1.395 0 0 1 2.79.002Zm0 0" transform="matrix(1 0 0 -1 20.769 90.922)"/><path style="fill-rule:nonzero;fill:#000;fill-opacity:1;stroke-width:.3985;stroke-linecap:butt;stroke-linejoin:miter;stroke:#000;stroke-opacity:1;stroke-miterlimit:10" d="M83.575 0a1.395 1.395 0 1 1-2.787-.002A1.395 1.395 0 0 1 83.574 0Zm0 0" transform="matrix(1 0 0 -1 20.769 90.922)"/><path style="fill-rule:nonzero;fill:#000;fill-opacity:1;stroke-width:.3985;stroke-linecap:butt;stroke-linejoin:miter;stroke:#000;stroke-opacity:1;stroke-miterlimit:10" d="M84.172 0a1.395 1.395 0 1 1-2.79-.002 1.395 1.395 0 0 1 2.79.002Zm0 0" transform="matrix(1 0 0 -1 20.769 90.922)"/><path style="fill:none;stroke-width:.59776;stroke-linecap:butt;stroke-linejoin:miter;stroke:#000;stroke-opacity:1;stroke-miterlimit:10" d="M0 0h36.852c.785 0 2.047-.004 2.832 0 .79.008 2.05.012 2.836.031.785.024 2.047.047 2.836.121.785.075 2.047.188 2.832.426.79.239 2.05.656 2.836 1.297.785.64 2.047 1.875 2.836 3.328.785 1.45 2.047 4.387 2.832 7.133.789 2.742 2.05 8.36 2.836 12.649.785 4.292 2.047 12.859 2.836 18.277.785 5.418 2.047 15.527 2.832 20.765.789 5.235 2.05 13.7 2.836 16.97.785 3.269 2.047 6.593 2.836 6.593.785.004 2.047-3.316 2.832-6.586.789-3.27 2.05-11.742 2.836-16.977.785-5.238 2.047-15.347 2.836-20.765.785-5.418 2.046-13.985 2.832-18.277.789-4.29 2.05-9.907 2.836-12.649.785-2.746 2.046-5.684 2.836-7.133.785-1.453 2.046-2.687 2.832-3.328.789-.64 2.05-1.058 2.835-1.297.79-.238 2.047-.351 2.836-.426.786-.074 2.047-.097 2.836-.12.786-.02 2.047-.024 2.832-.032.79-.004 2.047 0 2.836 0h36.852" transform="matrix(1 0 0 -1 20.769 90.922)"/><use xlink:href="#a" x="118.742" y="61.247" style="fill:#000;fill-opacity:1"/><use xlink:href="#b" x="123.026" y="57.438" style="fill:#000;fill-opacity:1"/><use xlink:href="#c" x="128.782" y="57.438" style="fill:#000;fill-opacity:1"/><use xlink:href="#d" x="132.954" y="54.929" style="fill:#000;fill-opacity:1"/><path style="fill:none;stroke-width:.19925;stroke-linecap:butt;stroke-linejoin:miter;stroke:gray;stroke-opacity:1;stroke-miterlimit:10" d="m95.317 29.934-13.113-4.95" transform="matrix(1 0 0 -1 20.769 90.922)"/><use xlink:href="#e" x="35.606" y="105.688" style="fill:#000;fill-opacity:1"/><use xlink:href="#f" x="42.192" y="105.688" style="fill:#000;fill-opacity:1"/><use xlink:href="#e" x="57.622" y="105.688" style="fill:#000;fill-opacity:1"/><use xlink:href="#g" x="64.208" y="105.688" style="fill:#000;fill-opacity:1"/><use xlink:href="#h" x="68.443" y="105.688" style="fill:#000;fill-opacity:1"/><use xlink:href="#f" x="70.795" y="105.688" style="fill:#000;fill-opacity:1"/><use xlink:href="#i" x="89.518" y="105.688" style="fill:#000;fill-opacity:1"/><use xlink:href="#g" x="111.534" y="105.688" style="fill:#000;fill-opacity:1"/><use xlink:href="#h" x="115.768" y="105.688" style="fill:#000;fill-opacity:1"/><use xlink:href="#f" x="118.12" y="105.688" style="fill:#000;fill-opacity:1"/><use xlink:href="#f" x="140.136" y="105.688" style="fill:#000;fill-opacity:1"/><use xlink:href="#i" x="6.905" y="93.49" style="fill:#000;fill-opacity:1"/><use xlink:href="#i" x=".318" y="75.973" style="fill:#000;fill-opacity:1"/><use xlink:href="#h" x="4.552" y="75.973" style="fill:#000;fill-opacity:1"/><use xlink:href="#g" x="6.905" y="75.973" style="fill:#000;fill-opacity:1"/><use xlink:href="#i" x=".318" y="58.455" style="fill:#000;fill-opacity:1"/><use xlink:href="#h" x="4.552" y="58.455" style="fill:#000;fill-opacity:1"/><use xlink:href="#j" x="6.905" y="58.455" style="fill:#000;fill-opacity:1"/><use xlink:href="#i" x=".318" y="40.937" style="fill:#000;fill-opacity:1"/><use xlink:href="#h" x="4.552" y="40.937" style="fill:#000;fill-opacity:1"/><use xlink:href="#k" x="6.905" y="40.937" style="fill:#000;fill-opacity:1"/><use xlink:href="#i" x=".318" y="23.419" style="fill:#000;fill-opacity:1"/><use xlink:href="#h" x="4.552" y="23.419" style="fill:#000;fill-opacity:1"/><use xlink:href="#l" x="6.905" y="23.419" style="fill:#000;fill-opacity:1"/><use xlink:href="#m" x="6.905" y="5.901" style="fill:#000;fill-opacity:1"/><use xlink:href="#n" x="180.363" y="78.336" style="fill:#000;fill-opacity:1"/><g style="fill:#000;fill-opacity:1"><use xlink:href="#o" x="190.09" y="80.799"/><use xlink:href="#p" x="193.743" y="80.799"/></g><use xlink:href="#q" x="190.09" y="87.801" style="fill:#000;fill-opacity:1"/><g style="fill:#000;fill-opacity:1"><use xlink:href="#r" x="192.754" y="87.801"/><use xlink:href="#o" x="198.344" y="87.801"/></g><use xlink:href="#s" x="204.031" y="85.061" style="fill:#000;fill-opacity:1"/><use xlink:href="#q" x="209.254" y="86.058" style="fill:#000;fill-opacity:1"/><use xlink:href="#t" x="212.416" y="85.061" style="fill:#000;fill-opacity:1"/><g style="fill:#000;fill-opacity:1"><use xlink:href="#u" x="218.899" y="85.061"/><use xlink:href="#v" x="226.565" y="85.061"/><use xlink:href="#w" x="232.456" y="85.061"/><use xlink:href="#x" x="237.325" y="85.061"/><use xlink:href="#w" x="241.7" y="85.061"/></g><use xlink:href="#s" x="250.102" y="85.061" style="fill:#000;fill-opacity:1"/><use xlink:href="#q" x="255.325" y="86.058" style="fill:#000;fill-opacity:1"/><use xlink:href="#y" x="261.047" y="85.061" style="fill:#000;fill-opacity:1"/><use xlink:href="#z" x="270.774" y="85.061" style="fill:#000;fill-opacity:1"/><use xlink:href="#A" x="278.011" y="85.061" style="fill:#000;fill-opacity:1"/><use xlink:href="#B" x="281.595" y="85.061" style="fill:#000;fill-opacity:1"/><use xlink:href="#C" x="288.762" y="85.061" style="fill:#000;fill-opacity:1"/><use xlink:href="#D" x="293.37" y="85.061" style="fill:#000;fill-opacity:1"/><g style="fill:#000;fill-opacity:1"><use xlink:href="#C" x="297.466" y="85.061"/><use xlink:href="#E" x="302.074" y="85.061"/></g><path style="fill-rule:nonzero;fill:#000;fill-opacity:1;stroke-width:.3985;stroke-linecap:butt;stroke-linejoin:miter;stroke:#000;stroke-opacity:1;stroke-miterlimit:10" d="M1.395-.002C1.395.772.77 1.393.001 1.393A1.395 1.395 0 1 1 1.396-.002Zm0 0" transform="matrix(1 0 0 -1 175.386 82.85)"/></svg>