<svg xmlns="http://www.w3.org/2000/svg" xmlns:xlink="http://www.w3.org/1999/xlink" width="86.365" height="13.251" viewBox="0 0 64.774 9.938" version="1.2"><defs><symbol overflow="visible" id="a"><path style="stroke:none" d="M4.563-1.047c0-.172-.172-.172-.235-.172-.156 0-.172.047-.234.172-.203.469-.75.719-1.313.719-1.281 0-1.297-1.156-1.297-1.594h2.782c.187 0 .296 0 .296-.25 0-.203-.015-1-.593-1.484-.406-.328-.953-.406-1.39-.406-1.532 0-2.282.968-2.282 2.046 0 1.172.89 2.063 2.406 2.063 1.485 0 1.86-.938 1.86-1.094ZM3.688-2.25H1.483c.016-.406.063-1.453 1.094-1.453 1.047 0 1.094 1.094 1.11 1.453Zm0 0"/></symbol><symbol overflow="visible" id="b"><path style="stroke:none" d="M5.375 0v-.438H4.75L3.203-2.202l1.11-1.172c.093-.11.156-.172.875-.172v-.437c-.313.03-.547.03-.844.03-.157 0-.5 0-.907-.03v.437c.188 0 .235.047.297.11l-.828.906-.89-1.016h.328v-.437l-1.078.03c-.188 0-.532 0-.985-.03v.437h.625l1.422 1.625L1.125-.609c-.172.171-.484.171-.89.171V0c.296-.031.53-.031.828-.031.171 0 .515 0 .921.031v-.438c-.14 0-.296-.03-.296-.093 0-.047.078-.11.078-.11l.875-.937.984 1.14h-.313V0l1.079-.031c.203 0 .53 0 .984.031Zm0 0"/></symbol><symbol overflow="visible" id="c"><path style="stroke:none" d="M5.11-.219c0-.218-.157-.218-.235-.218-.578-.016-.578-.094-.578-.313v-1.922c0-.797-.64-1.39-2.031-1.39-.5 0-1.657.015-1.657.843 0 .406.313.594.579.594.312 0 .593-.219.593-.578 0-.266-.156-.422-.187-.453.093-.016.312-.047.64-.047.641 0 1.016.328 1.016 1.031v.281C1.766-2.39.25-2 .25-1 .25-.11 1.375.047 2.016.047c.687 0 1.156-.281 1.39-.703 0 .219 0 .656.969.656h.438c.171 0 .296 0 .296-.219ZM3.25-1.25c0 .938-1.047.938-1.078.938-.453 0-.828-.282-.828-.688 0-.297.156-1 1.906-1.078Zm0 0"/></symbol><symbol overflow="visible" id="d"><path style="stroke:none" d="M8.594 0v-.438h-.61v-2.296c0-1.063-.625-1.297-1.421-1.297-.938 0-1.391.562-1.563.843C4.812-4 4.016-4.03 3.625-4.03c-1.11 0-1.547.797-1.61.937H2v-.937L.453-3.97v.438c.531 0 .61 0 .61.36v2.733h-.61V0l1.125-.031L2.718 0v-.438H2.11V-2.28c0-1 .829-1.39 1.36-1.39.344 0 .531.171.531.858v2.376h-.61V0l1.126-.031L5.656 0v-.438h-.61V-2.28c0-1 .829-1.39 1.36-1.39.344 0 .532.171.532.858v2.376h-.61V0l1.14-.031Zm0 0"/></symbol><symbol overflow="visible" id="e"><path style="stroke:none" d="M5.531-1.984c0-1.188-.812-2.047-2.172-2.047-.718 0-1.218.297-1.39.422v-.422L.375-3.97v.438c.172 0 .313 0 .438.031.171.031.171.125.171.313v4.484H.375v.437L1.5 1.72l1.14.015v-.437h-.609v-1.64c.531.39 1.016.39 1.188.39 1.406 0 2.312-.844 2.312-2.031ZM4.344-2c0 1.25-.64 1.688-1.235 1.688-.453 0-.843-.25-1.078-.625v-2.157a1.548 1.548 0 0 1 1.188-.562c.625 0 1.125.562 1.125 1.656Zm0 0"/></symbol><symbol overflow="visible" id="f"><path style="stroke:none" d="M2.688 0v-.438h-.61v-5.78l-1.61.062v.437c.532 0 .61 0 .61.36v4.921h-.61V0l1.095-.031Zm0 0"/></symbol><clipPath id="g"><path d="M0 0h16v9.906H0Zm0 0"/></clipPath><clipPath id="h"><path d="M5 0h21v9.906H5Zm0 0"/></clipPath></defs><g style="fill:#000;fill-opacity:1"><use xlink:href="#a" x="25.799" y="7.187"/><use xlink:href="#b" x="30.668" y="7.187"/><use xlink:href="#c" x="36.272" y="7.187"/><use xlink:href="#d" x="41.427" y="7.187"/><use xlink:href="#e" x="50.268" y="7.187"/><use xlink:href="#f" x="56.159" y="7.187"/><use xlink:href="#a" x="59.109" y="7.187"/></g><path style="fill:none;stroke-width:.59776;stroke-linecap:butt;stroke-linejoin:miter;stroke:#000;stroke-opacity:1;stroke-miterlimit:10" d="M-19.927-.002H-.002" transform="matrix(1 0 0 -1 20.822 4.975)"/><g clip-path="url(#g)"><path style="fill:none;stroke-width:.59776;stroke-linecap:butt;stroke-linejoin:miter;stroke:#000;stroke-opacity:1;stroke-miterlimit:10" d="m-16.353-1.408 2.816 2.817m-2.816 0 2.816-2.817" transform="matrix(1 0 0 -1 20.822 4.975)"/></g><g clip-path="url(#h)"><path style="fill:none;stroke-width:.59776;stroke-linecap:butt;stroke-linejoin:miter;stroke:#000;stroke-opacity:1;stroke-miterlimit:10" d="m-6.388-1.408 2.816 2.817m-2.816 0 2.816-2.817" transform="matrix(1 0 0 -1 20.822 4.975)"/></g></svg>