<svg xmlns="http://www.w3.org/2000/svg" xmlns:xlink="http://www.w3.org/1999/xlink" width="220.611" height="107.3pt" viewBox="0 0 165.458 107.3" version="1.2"><defs><symbol overflow="visible" id="b"><path style="stroke:none" d="M3.89-2.547c0-.844-.078-1.36-.343-1.875-.344-.703-1-.875-1.438-.875-1 0-1.375.75-1.484.969C.344-3.75.328-2.953.328-2.547c0 .531.016 1.328.406 1.969.36.594.954.75 1.375.75.391 0 1.063-.125 1.47-.906.296-.579.312-1.297.312-1.813ZM2.11-.062c-.266 0-.813-.126-.985-.954-.094-.453-.094-1.203-.094-1.625 0-.546 0-1.109.094-1.546.172-.813.781-.891.984-.891.266 0 .829.14.985.86.094.437.094 1.046.094 1.577 0 .47 0 1.188-.094 1.641-.172.828-.719.938-.985.938Zm0 0"/></symbol><symbol overflow="visible" id="c"><path style="stroke:none" d="M2.5-5.078c0-.219-.016-.219-.234-.219-.329.313-.75.5-1.5.5v.266c.218 0 .64 0 1.109-.203v4.078c0 .297-.031.39-.781.39H.812V0c.329-.031 1.016-.031 1.375-.031.36 0 1.047 0 1.376.031v-.266H3.28c-.75 0-.781-.093-.781-.39Zm0 0"/></symbol><symbol overflow="visible" id="d"><path style="stroke:none" d="M2.25-1.625c.125-.125.453-.39.594-.5.484-.453.953-.89.953-1.61 0-.953-.797-1.562-1.781-1.562-.97 0-1.594.719-1.594 1.438 0 .39.312.437.422.437.172 0 .422-.11.422-.422 0-.406-.407-.406-.5-.406.234-.594.765-.781 1.156-.781.734 0 1.125.625 1.125 1.297 0 .828-.578 1.437-1.531 2.39l-1 1.047C.422-.219.422-.203.422 0h3.14l.235-1.422h-.25c-.016.156-.078.547-.172.703-.047.063-.656.063-.781.063H1.172Zm0 0"/></symbol><symbol overflow="visible" id="e"><path style="stroke:none" d="M2.016-2.656c.625 0 1.03.453 1.03 1.297 0 1-.562 1.28-.983 1.28-.438 0-1.047-.155-1.329-.577.297 0 .5-.188.5-.438 0-.265-.187-.437-.453-.437-.203 0-.437.125-.437.453 0 .75.812 1.25 1.734 1.25 1.047 0 1.797-.734 1.797-1.531 0-.672-.531-1.266-1.344-1.454.625-.218 1.11-.75 1.11-1.39 0-.64-.72-1.094-1.547-1.094-.86 0-1.5.453-1.5 1.063 0 .296.187.421.406.421.25 0 .406-.171.406-.406 0-.297-.265-.406-.437-.406.344-.438.953-.469 1.094-.469.203 0 .812.063.812.89 0 .548-.234.891-.344 1.016-.234.25-.422.266-.906.297-.156 0-.219.016-.219.125 0 .11.078.11.219.11Zm0 0"/></symbol><symbol overflow="visible" id="f"><path style="stroke:none" d="M3.14-5.156c0-.157 0-.219-.171-.219-.094 0-.11 0-.188.11L.234-1.564v.25h2.25v.672c0 .297-.015.375-.64.375h-.172V0c.672-.031.687-.031 1.14-.031.454 0 .47 0 1.141.031v-.266h-.172c-.625 0-.64-.078-.64-.375v-.671h.843v-.25h-.843Zm-.593.64v2.954H.516Zm0 0"/></symbol><symbol overflow="visible" id="g"><path style="stroke:none" d="M5.563-1.813c.14 0 .312 0 .312-.171 0-.188-.172-.188-.313-.188H1c-.125 0-.297 0-.297.188 0 .171.172.171.297.171Zm0 0"/></symbol><clipPath id="a"><path d="M12 47h153.188v53H12Zm0 0"/></clipPath></defs><path style="fill:none;stroke-width:.3985;stroke-linecap:round;stroke-linejoin:miter;stroke:gray;stroke-opacity:1;stroke-miterlimit:10" d="M.002-6.974v1.992M35.431-6.974v1.992M70.865-6.974v1.992M106.299-6.974v1.992M141.732-6.974v1.992M-6.975-.001h1.992M-6.975 17.518h1.992M-6.975 35.038h1.992M-6.975 52.553h1.992M-6.975 70.073h1.992M-6.975 87.593h1.992" transform="matrix(1 0 0 -1 20.592 91.03)"/><path style="fill:none;stroke-width:.3985;stroke-linecap:butt;stroke-linejoin:miter;stroke:gray;stroke-opacity:1;stroke-miterlimit:10" d="M.002-4.982h141.73" transform="matrix(1 0 0 -1 20.592 91.03)"/><path style="fill:none;stroke-width:.3985;stroke-linecap:square;stroke-linejoin:miter;stroke:#bfbfbf;stroke-opacity:1;stroke-miterlimit:10" d="M.002-.001h141.73M.002 87.593h141.73" transform="matrix(1 0 0 -1 20.592 91.03)"/><path style="fill:none;stroke-width:.3985;stroke-linecap:butt;stroke-linejoin:miter;stroke:gray;stroke-opacity:1;stroke-miterlimit:10" d="M-4.983-.001v87.594" transform="matrix(1 0 0 -1 20.592 91.03)"/><path style="fill:none;stroke-width:.3985;stroke-linecap:square;stroke-linejoin:miter;stroke:#bfbfbf;stroke-opacity:1;stroke-miterlimit:10" d="M.002-.001v87.594M141.732-.001v87.594" transform="matrix(1 0 0 -1 20.592 91.03)"/><path style="fill:none;stroke-width:.3985;stroke-linecap:butt;stroke-linejoin:miter;stroke:#000;stroke-opacity:1;stroke-miterlimit:10" d="m-1.408 16.108 2.816 2.82m-2.816 0 2.816-2.82M34.025 33.628l2.817 2.816m-2.817 0 2.817-2.816M69.455 51.147l2.82 2.817m-2.82 0 2.82-2.817M104.888 86.182 107.705 89m-2.817 0 2.817-2.817" transform="matrix(1 0 0 -1 20.592 91.03)"/><g clip-path="url(#a)"><path style="fill:none;stroke-width:.59776;stroke-linecap:butt;stroke-linejoin:miter;stroke:#000;stroke-opacity:1;stroke-miterlimit:10" d="m.002 35.038 35.43-17.52L70.864-.002l70.867 35.04" transform="matrix(1 0 0 -1 20.592 91.03)"/><path style="fill:none;stroke-width:.59776;stroke-linecap:butt;stroke-linejoin:miter;stroke:#000;stroke-opacity:1;stroke-miterlimit:10" d="m.002 17.518 35.43 17.52 70.867-35.04 35.433 17.52" transform="matrix(1 0 0 -1 20.592 91.03)"/></g><use xlink:href="#b" x="18.475" y="105.796" style="fill:#000;fill-opacity:1"/><use xlink:href="#c" x="53.907" y="105.796" style="fill:#000;fill-opacity:1"/><use xlink:href="#d" x="89.339" y="105.796" style="fill:#000;fill-opacity:1"/><use xlink:href="#e" x="124.771" y="105.796" style="fill:#000;fill-opacity:1"/><use xlink:href="#f" x="160.203" y="105.796" style="fill:#000;fill-opacity:1"/><use xlink:href="#g" x=".141" y="93.183" style="fill:#000;fill-opacity:1"/><use xlink:href="#c" x="6.728" y="93.183" style="fill:#000;fill-opacity:1"/><use xlink:href="#b" x="6.728" y="76.08" style="fill:#000;fill-opacity:1"/><use xlink:href="#c" x="6.728" y="58.562" style="fill:#000;fill-opacity:1"/><use xlink:href="#d" x="6.728" y="41.044" style="fill:#000;fill-opacity:1"/><use xlink:href="#e" x="6.728" y="23.526" style="fill:#000;fill-opacity:1"/><use xlink:href="#f" x="6.728" y="6.009" style="fill:#000;fill-opacity:1"/></svg>