<svg xmlns="http://www.w3.org/2000/svg" width="118.256" height="80.475" viewBox="0 0 88.692 60.356" version="1.2"><defs><clipPath id="a"><path d="M0 50h10v10.035H0Zm0 0"/></clipPath><clipPath id="b"><path d="M23 50h15v10.035H23Zm0 0"/></clipPath><clipPath id="c"><path d="M52 50h15v10.035H52Zm0 0"/></clipPath></defs><path style="fill:none;stroke-width:.19925;stroke-linecap:butt;stroke-linejoin:miter;stroke:gray;stroke-opacity:1;stroke-miterlimit:10" d="M0-.002h85.038M0 28.346h85.04M-.002 56.682h85.04M-.002-.002v56.696M28.347-.002v56.696M56.695-.002v56.696M85.03-.002v56.696" transform="matrix(1 0 0 -1 2.399 57.471)"/><g clip-path="url(#a)"><path style="fill:none;stroke-width:.3985;stroke-linecap:butt;stroke-linejoin:miter;stroke:#000;stroke-opacity:1;stroke-miterlimit:10" d="M-1.41-1.408 1.41 1.41m-2.82 0 2.82-2.817" transform="matrix(1 0 0 -1 2.399 57.471)"/></g><g clip-path="url(#b)"><path style="fill:none;stroke-width:.3985;stroke-linecap:butt;stroke-linejoin:miter;stroke:#000;stroke-opacity:1;stroke-miterlimit:10" d="m26.937-1.408 2.82 2.817m-2.82 0 2.82-2.817" transform="matrix(1 0 0 -1 2.399 57.471)"/></g><g clip-path="url(#c)"><path style="fill:none;stroke-width:.3985;stroke-linecap:butt;stroke-linejoin:miter;stroke:#000;stroke-opacity:1;stroke-miterlimit:10" d="M55.285-1.408 58.1 1.41m-2.816 0L58.1-1.409" transform="matrix(1 0 0 -1 2.399 57.471)"/></g><path style="fill:none;stroke-width:.3985;stroke-linecap:butt;stroke-linejoin:miter;stroke:#000;stroke-opacity:1;stroke-miterlimit:10" d="m41.113 23.139 2.816 2.82m-2.816 0 2.816-2.82M69.456 23.139l2.82 2.82m-2.82 0 2.82-2.82M48.199 35.416l2.816 2.817m-2.816 0 2.816-2.817M76.546 35.416l2.817 2.817m-2.817 0 2.817-2.817" transform="matrix(1 0 0 -1 2.399 57.471)"/></svg>