<svg xmlns="http://www.w3.org/2000/svg" width="64.251" height="15.555" viewBox="0 0 48.188 11.666" version="1.2"><defs><clipPath id="a"><path d="M0 0h47.781v11.5H0Zm0 0"/></clipPath><clipPath id="b"><path d="M0 0h10v11.5H0Zm0 0"/></clipPath><clipPath id="c"><path d="M23 0h16v11.5H23Zm0 0"/></clipPath><clipPath id="d"><path d="M37 0h10.781v11H37Zm0 0"/></clipPath></defs><g clip-path="url(#a)"><path style="fill:none;stroke-width:.3985;stroke-linecap:butt;stroke-linejoin:miter;stroke:#bfbfbf;stroke-opacity:1;stroke-miterlimit:10" d="M.002-.002 14.174 5.67 28.345-.002 42.521 5.67" transform="matrix(1 0 0 -1 2.428 8.506)"/></g><g clip-path="url(#b)"><path style="fill:none;stroke-width:.3985;stroke-linecap:butt;stroke-linejoin:miter;stroke:#000;stroke-opacity:1;stroke-miterlimit:10" d="M.002-1.994v3.988M1.724.998-1.725-.998m3.45 0L-1.726.998" transform="matrix(1 0 0 -1 2.428 8.506)"/></g><path style="fill:none;stroke-width:.3985;stroke-linecap:butt;stroke-linejoin:miter;stroke:#000;stroke-opacity:1;stroke-miterlimit:10" d="M14.174 3.678v3.984m1.726-.996-3.453-1.992m3.453 0-3.453 1.992" transform="matrix(1 0 0 -1 2.428 8.506)"/><g clip-path="url(#c)"><path style="fill:none;stroke-width:.3985;stroke-linecap:butt;stroke-linejoin:miter;stroke:#000;stroke-opacity:1;stroke-miterlimit:10" d="M28.345-1.994v3.988m1.727-.996-3.45-1.996m3.45 0L26.622.998" transform="matrix(1 0 0 -1 2.428 8.506)"/></g><g clip-path="url(#d)"><path style="fill:none;stroke-width:.3985;stroke-linecap:butt;stroke-linejoin:miter;stroke:#000;stroke-opacity:1;stroke-miterlimit:10" d="M42.521 3.678v3.984m1.723-.996-3.45-1.992m3.45 0-3.45 1.992" transform="matrix(1 0 0 -1 2.428 8.506)"/></g></svg>