<svg xmlns="http://www.w3.org/2000/svg" xmlns:xlink="http://www.w3.org/1999/xlink" width="140.379" height="176.427" viewBox="0 0 105.284 132.32" version="1.2"><defs><symbol overflow="visible" id="a"><path style="stroke:none" d="M2.5-5.078c0-.219-.016-.219-.234-.219-.329.313-.75.5-1.5.5v.266c.218 0 .64 0 1.109-.203v4.078c0 .297-.031.39-.781.39H.812V0c.329-.031 1.016-.031 1.375-.031.36 0 1.047 0 1.376.031v-.266H3.28c-.75 0-.781-.093-.781-.39Zm0 0"/></symbol><symbol overflow="visible" id="c"><path style="stroke:none" d="M3.125-2.344c0 1.938-.922 2.266-1.39 2.266-.173 0-.579-.016-.798-.266.36-.031.375-.297.375-.375a.37.37 0 0 0-.375-.375.37.37 0 0 0-.375.39c0 .548.454.876 1.188.876 1.094 0 2.125-1.094 2.125-2.797 0-2.063-.922-2.672-1.734-2.672-.954 0-1.797.734-1.797 1.781 0 1.016.781 1.766 1.687 1.766.563 0 .906-.36 1.094-.766Zm-1.063.375c-.374 0-.609-.172-.78-.468-.188-.282-.188-.672-.188-1.079 0-.468 0-.796.218-1.125.204-.296.454-.453.829-.453.53 0 .765.532.796.563.157.39.172 1.015.172 1.172 0 .64-.343 1.39-1.046 1.39Zm0 0"/></symbol><symbol overflow="visible" id="d"><path style="stroke:none" d="M3.89-2.547c0-.844-.078-1.36-.343-1.875-.344-.703-1-.875-1.438-.875-1 0-1.375.75-1.484.969C.344-3.75.328-2.953.328-2.547c0 .531.016 1.328.406 1.969.36.594.954.75 1.375.75.391 0 1.063-.125 1.47-.906.296-.579.312-1.297.312-1.813ZM2.11-.062c-.266 0-.813-.126-.985-.954-.094-.453-.094-1.203-.094-1.625 0-.546 0-1.109.094-1.546.172-.813.781-.891.984-.891.266 0 .829.14.985.86.094.437.094 1.046.094 1.577 0 .47 0 1.188-.094 1.641-.172.828-.719.938-.985.938Zm0 0"/></symbol><symbol overflow="visible" id="e"><path style="stroke:none" d="M2.25-1.625c.125-.125.453-.39.594-.5.484-.453.953-.89.953-1.61 0-.953-.797-1.562-1.781-1.562-.97 0-1.594.719-1.594 1.438 0 .39.312.437.422.437.172 0 .422-.11.422-.422 0-.406-.407-.406-.5-.406.234-.594.765-.781 1.156-.781.734 0 1.125.625 1.125 1.297 0 .828-.578 1.437-1.531 2.39l-1 1.047C.422-.219.422-.203.422 0h3.14l.235-1.422h-.25c-.016.156-.078.547-.172.703-.047.063-.656.063-.781.063H1.172Zm0 0"/></symbol><symbol overflow="visible" id="f"><path style="stroke:none" d="M3.14-5.156c0-.157 0-.219-.171-.219-.094 0-.11 0-.188.11L.234-1.564v.25h2.25v.672c0 .297-.015.375-.64.375h-.172V0c.672-.031.687-.031 1.14-.031.454 0 .47 0 1.141.031v-.266h-.172c-.625 0-.64-.078-.64-.375v-.671h.843v-.25h-.843Zm-.593.64v2.954H.516Zm0 0"/></symbol><symbol overflow="visible" id="g"><path style="stroke:none" d="M1.094-2.64c0-.657.062-1.235.343-1.72.25-.406.657-.734 1.157-.734.156 0 .515.032.703.297-.36.031-.39.297-.39.375 0 .25.187.375.374.375.14 0 .375-.078.375-.39 0-.47-.36-.86-1.078-.86C1.468-5.297.344-4.25.344-2.53.344-.36 1.359.172 2.125.172c.39 0 .797-.11 1.156-.453.328-.313.594-.64.594-1.344 0-1.031-.797-1.766-1.672-1.766-.578 0-.922.36-1.11.75ZM2.125-.079a.88.88 0 0 1-.797-.516c-.187-.36-.203-.89-.203-1.203 0-.781.422-1.375 1.047-1.375.39 0 .64.203.781.485.172.296.172.656.172 1.062s0 .75-.156 1.047c-.219.36-.485.5-.844.5Zm0 0"/></symbol><symbol overflow="visible" id="h"><path style="stroke:none" d="M2.64-2.875c.454-.219 1-.61 1-1.234 0-.766-.78-1.188-1.515-1.188-.844 0-1.531.578-1.531 1.328 0 .297.094.563.297.797.14.172.171.188.656.5C.563-2.234.344-1.656.344-1.219c0 .89.89 1.39 1.765 1.39.97 0 1.766-.671 1.766-1.515 0-.5-.266-.828-.406-.968-.125-.126-.14-.141-.828-.563Zm-1.234-.75c-.234-.14-.422-.375-.422-.64 0-.5.547-.829 1.125-.829.61 0 1.125.422 1.125.985 0 .453-.359.843-.828 1.078Zm.39 1.094c.032.015.938.578 1.079.656.125.078.547.328.547.813 0 .609-.656.984-1.297.984-.719 0-1.313-.484-1.313-1.14 0-.595.438-1.063.985-1.313Zm0 0"/></symbol><symbol overflow="visible" id="b"><path style="stroke:none" d="M1.484-.125c0 .516-.109.984-.593 1.469-.032.031-.047.047-.047.078 0 .062.062.11.11.11.093 0 .765-.626.765-1.563 0-.5-.203-.86-.547-.86a.436.436 0 0 0-.438.438c0 .234.157.453.438.453.203 0 .312-.11.312-.125Zm0 0"/></symbol></defs><path style="fill:none;stroke-width:.3985;stroke-linecap:round;stroke-linejoin:miter;stroke:#000;stroke-opacity:1;stroke-miterlimit:10" d="M-.001-1.994V.002M17.007-11.955V.002M34.014-1.994V.002M51.022-11.955V.002M68.034-1.994V.002M85.042-11.955V.002M-.001 87.592v1.992M17.007 87.592v11.953M34.014 87.592v1.992M51.022 87.592v11.953M68.034 87.592v1.992M85.042 87.592v11.953" transform="matrix(1 0 0 -1 9.591 109.697)"/><path style="fill:none;stroke-width:.59776;stroke-linecap:butt;stroke-linejoin:miter;stroke:#000;stroke-opacity:1;stroke-miterlimit:10" d="M42.518 42.674h8.504L59.53 65.13l17.008-11.227" transform="matrix(1 0 0 -1 9.591 109.697)"/><path style="fill:none;stroke-width:.59776;stroke-linecap:butt;stroke-linejoin:miter;stroke:#000;stroke-opacity:1;stroke-miterlimit:10" d="m8.503.002 8.504 20.21 8.504 67.38 42.523-67.38" transform="matrix(1 0 0 -1 9.591 109.697)"/><path style="fill:none;stroke-width:.59776;stroke-linecap:butt;stroke-linejoin:miter;stroke:#000;stroke-opacity:1;stroke-miterlimit:10" d="m-.001 18.634 17.008 9.32 17.007 27.954 51.028 31.684M-.001.002l17.008 9.316 8.504 9.316 42.523 18.637" transform="matrix(1 0 0 -1 9.591 109.697)"/><use xlink:href="#a" x="-.054" y="119.482" style="fill:#000;fill-opacity:1"/><use xlink:href="#b" x="4.18" y="119.482" style="fill:#000;fill-opacity:1"/><g style="fill:#000;fill-opacity:1"><use xlink:href="#c" x="6.533" y="119.482"/><use xlink:href="#d" x="10.768" y="119.482"/><use xlink:href="#d" x="15.002" y="119.482"/></g><use xlink:href="#a" x="16.954" y="129.445" style="fill:#000;fill-opacity:1"/><use xlink:href="#b" x="21.188" y="129.445" style="fill:#000;fill-opacity:1"/><g style="fill:#000;fill-opacity:1"><use xlink:href="#c" x="23.541" y="129.445"/><use xlink:href="#e" x="27.776" y="129.445"/><use xlink:href="#d" x="32.01" y="129.445"/></g><use xlink:href="#a" x="33.962" y="119.482" style="fill:#000;fill-opacity:1"/><use xlink:href="#b" x="38.196" y="119.482" style="fill:#000;fill-opacity:1"/><g style="fill:#000;fill-opacity:1"><use xlink:href="#c" x="40.548" y="119.482"/><use xlink:href="#f" x="44.783" y="119.482"/><use xlink:href="#d" x="49.017" y="119.482"/></g><use xlink:href="#a" x="50.97" y="129.445" style="fill:#000;fill-opacity:1"/><use xlink:href="#b" x="55.204" y="129.445" style="fill:#000;fill-opacity:1"/><g style="fill:#000;fill-opacity:1"><use xlink:href="#c" x="57.556" y="129.445"/><use xlink:href="#g" x="61.791" y="129.445"/><use xlink:href="#d" x="66.025" y="129.445"/></g><use xlink:href="#a" x="67.978" y="119.482" style="fill:#000;fill-opacity:1"/><use xlink:href="#b" x="72.212" y="119.482" style="fill:#000;fill-opacity:1"/><g style="fill:#000;fill-opacity:1"><use xlink:href="#c" x="74.564" y="119.482"/><use xlink:href="#h" x="78.799" y="119.482"/><use xlink:href="#d" x="83.033" y="119.482"/></g><use xlink:href="#e" x="84.985" y="129.445" style="fill:#000;fill-opacity:1"/><use xlink:href="#b" x="89.22" y="129.445" style="fill:#000;fill-opacity:1"/><g style="fill:#000;fill-opacity:1"><use xlink:href="#d" x="91.572" y="129.445"/><use xlink:href="#d" x="95.807" y="129.445"/><use xlink:href="#d" x="100.041" y="129.445"/></g><use xlink:href="#a" x="-.054" y="15.909" style="fill:#000;fill-opacity:1"/><use xlink:href="#b" x="4.18" y="15.909" style="fill:#000;fill-opacity:1"/><g style="fill:#000;fill-opacity:1"><use xlink:href="#c" x="6.533" y="15.909"/><use xlink:href="#d" x="10.768" y="15.909"/><use xlink:href="#d" x="15.002" y="15.909"/></g><use xlink:href="#a" x="16.954" y="5.947" style="fill:#000;fill-opacity:1"/><use xlink:href="#b" x="21.188" y="5.947" style="fill:#000;fill-opacity:1"/><g style="fill:#000;fill-opacity:1"><use xlink:href="#c" x="23.541" y="5.947"/><use xlink:href="#e" x="27.776" y="5.947"/><use xlink:href="#d" x="32.01" y="5.947"/></g><use xlink:href="#a" x="33.962" y="15.909" style="fill:#000;fill-opacity:1"/><use xlink:href="#b" x="38.196" y="15.909" style="fill:#000;fill-opacity:1"/><g style="fill:#000;fill-opacity:1"><use xlink:href="#c" x="40.548" y="15.909"/><use xlink:href="#f" x="44.783" y="15.909"/><use xlink:href="#d" x="49.017" y="15.909"/></g><use xlink:href="#a" x="50.97" y="5.947" style="fill:#000;fill-opacity:1"/><use xlink:href="#b" x="55.204" y="5.947" style="fill:#000;fill-opacity:1"/><g style="fill:#000;fill-opacity:1"><use xlink:href="#c" x="57.556" y="5.947"/><use xlink:href="#g" x="61.791" y="5.947"/><use xlink:href="#d" x="66.025" y="5.947"/></g><use xlink:href="#a" x="67.978" y="15.909" style="fill:#000;fill-opacity:1"/><use xlink:href="#b" x="72.212" y="15.909" style="fill:#000;fill-opacity:1"/><g style="fill:#000;fill-opacity:1"><use xlink:href="#c" x="74.564" y="15.909"/><use xlink:href="#h" x="78.799" y="15.909"/><use xlink:href="#d" x="83.033" y="15.909"/></g><use xlink:href="#e" x="84.985" y="5.947" style="fill:#000;fill-opacity:1"/><use xlink:href="#b" x="89.22" y="5.947" style="fill:#000;fill-opacity:1"/><g style="fill:#000;fill-opacity:1"><use xlink:href="#d" x="91.572" y="5.947"/><use xlink:href="#d" x="95.807" y="5.947"/><use xlink:href="#d" x="100.041" y="5.947"/></g></svg>