<svg xmlns="http://www.w3.org/2000/svg" width="154.371" height="192.003" viewBox="0 0 115.778 144.002" version="1.2"><defs><clipPath id="a"><path d="M52 23h63.668v120.504H52Zm0 0"/></clipPath><clipPath id="b"><path d="M0 23h64v120.504H0Zm0 0"/></clipPath></defs><g clip-path="url(#a)"><path style="fill:none;stroke-width:.3985;stroke-linecap:butt;stroke-linejoin:miter;stroke:red;stroke-opacity:1;stroke-miterlimit:10" d="M-.001 0c28.347 0 50.316 87.875 56.695 113.387" transform="matrix(1 0 0 -1 57.763 142.289)"/></g><g clip-path="url(#b)"><path style="fill:none;stroke-width:.3985;stroke-linecap:butt;stroke-linejoin:miter;stroke:#00f;stroke-opacity:1;stroke-miterlimit:10" d="M-.001 0c-6.375 25.512-28.344 113.387-56.692 113.387" transform="matrix(1 0 0 -1 57.763 142.289)"/></g><path style="fill:none;stroke-width:.3985;stroke-linecap:butt;stroke-linejoin:miter;stroke:#ff8000;stroke-opacity:1;stroke-miterlimit:10" d="M-56.693 56.695c3.188-6.379 14.172-28.347 28.348-28.347 28.344 0 50.312 87.875 56.691 113.386" transform="matrix(1 0 0 -1 57.763 142.289)"/></svg>