<svg xmlns="http://www.w3.org/2000/svg" xmlns:xlink="http://www.w3.org/1999/xlink" width="125.509" height="97.227" viewBox="0 0 94.132 72.92" version="1.2"><defs><symbol overflow="visible" id="a"><path style="stroke:none" d="M2.89-3.516c.813-.265 1.391-.953 1.391-1.75 0-.812-.875-1.375-1.828-1.375-1 0-1.765.594-1.765 1.36 0 .328.218.515.515.515.297 0 .5-.218.5-.515 0-.485-.469-.485-.61-.485.298-.5.954-.625 1.313-.625.422 0 .969.22.969 1.11 0 .125-.031.703-.281 1.14-.297.485-.64.516-.89.516a3.29 3.29 0 0 1-.392.031c-.078.016-.14.031-.14.125 0 .11.062.11.234.11h.438c.812 0 1.187.671 1.187 1.656 0 1.36-.687 1.64-1.125 1.64-.437 0-1.187-.171-1.531-.75.344.047.656-.171.656-.546a.537.537 0 0 0-.547-.563c-.25 0-.562.14-.562.578C.422-.437 1.344.22 2.437.22c1.22 0 2.126-.906 2.126-1.922 0-.813-.641-1.594-1.672-1.813Zm0 0"/></symbol><symbol overflow="visible" id="b"><path style="stroke:none" d="M6.75-1.61H6.5a3.74 3.74 0 0 1-.188.72c-.046.156-.078.25-.656.25H4.86c.141-.563.438-1.047.891-1.704.469-.703.875-1.39.875-2.187 0-1.375-1.344-2.5-3.031-2.5-1.703 0-3.031 1.14-3.031 2.5 0 .797.406 1.484.875 2.187.437.656.75 1.14.89 1.703h-.797c-.578 0-.61-.093-.656-.234-.094-.234-.14-.484-.188-.734h-.25L.766 0h1.593c.22 0 .25 0 .25-.203 0-.703-.312-1.578-.53-2.219-.22-.578-.5-1.36-.5-2.11 0-1.593 1.109-2.28 2.015-2.28.953 0 2.015.718 2.015 2.28 0 .75-.28 1.5-.562 2.313-.156.422-.469 1.328-.469 2.016 0 .203.031.203.25.203h1.594Zm0 0"/></symbol><symbol overflow="visible" id="c"><path style="stroke:none" d="M-1.64-2.938h.859c.36 0 .469.032.469.766v.203H0c-.031-.406-.031-.922-.031-1.343 0-.422 0-.938.031-1.36h-.313v.219c0 .734-.109.75-.468.75h-.86v-.985h-.312v.985h-4.531c-.204 0-.266 0-.266.172 0 .078 0 .11.125.187L-1.953-.28h.312Zm-.313-.046v2.421l-3.719-2.421Zm0 0"/></symbol><symbol overflow="visible" id="d"><path style="stroke:none" d="M-1.61-6.75v.25c.25.047.485.094.72.188.156.046.25.078.25.656v.797C-1.204-5-1.688-5.297-2.345-5.75c-.703-.469-1.39-.875-2.187-.875-1.375 0-2.5 1.344-2.5 3.031 0 1.703 1.14 3.031 2.5 3.031.797 0 1.484-.406 2.187-.875.656-.437 1.14-.75 1.703-.89v.797c0 .578-.093.61-.234.656-.234.094-.484.14-.734.188v.25L0-.766v-1.593c0-.22 0-.25-.203-.25-.703 0-1.578.312-2.219.53-.578.22-1.36.5-2.11.5-1.593 0-2.28-1.109-2.28-2.015 0-.953.718-2.015 2.28-2.015.75 0 1.5.28 2.313.562.422.156 1.328.469 2.016.469C0-4.578 0-4.61 0-4.828v-1.594Zm0 0"/></symbol></defs><path style="fill:none;stroke-width:.3985;stroke-linecap:butt;stroke-linejoin:miter;stroke:#000;stroke-opacity:1;stroke-miterlimit:10" d="M28.573-3.487h27.895v6.973H28.573Zm0 0" transform="matrix(1 0 0 -1 .575 57.654)"/><g style="fill:red;fill-opacity:1"><use xlink:href="#a" x="37.007" y="71.668"/><use xlink:href="#b" x="41.988" y="71.668"/></g><path style="fill:none;stroke-width:.3985;stroke-linecap:butt;stroke-linejoin:miter;stroke:#000;stroke-opacity:1;stroke-miterlimit:10" d="M81.554 42.295V14.4h6.973v27.895Zm0 0" transform="matrix(1 0 0 -1 .575 57.654)"/><g style="fill:red;fill-opacity:1"><use xlink:href="#c" x="92.705" y="25.787"/><use xlink:href="#d" x="92.705" y="20.806"/></g><path style="fill:none;stroke-width:.3985;stroke-linecap:butt;stroke-linejoin:miter;stroke:#000;stroke-opacity:1;stroke-miterlimit:10" d="M0 .002h28.374m28.293 0h28.375V14.2m0 28.293v14.2" transform="matrix(1 0 0 -1 .575 57.654)"/></svg>