<svg xmlns="http://www.w3.org/2000/svg" width="42.543" height="44.619" viewBox="0 0 31.907 33.464" version="1.2"><defs><clipPath id="a"><path d="M22 23h9.86v10.195H22Zm0 0"/></clipPath></defs><path style="fill:none;stroke-width:.3985;stroke-linecap:butt;stroke-linejoin:miter;stroke:#000;stroke-opacity:1;stroke-miterlimit:10" d="M-.002-.002h28.348M-.002 5.67h22.68m-22.68 5.668H17.01M-.002 28.346H5.67" transform="matrix(1 0 0 -1 .963 30.631)"/><g clip-path="url(#a)"><path style="fill:none;stroke-width:.3985;stroke-linecap:butt;stroke-linejoin:miter;stroke:#000;stroke-opacity:1;stroke-miterlimit:10" d="m26.936-1.408 2.82 2.816m-2.82 0 2.82-2.816" transform="matrix(1 0 0 -1 .963 30.631)"/></g><path style="fill:none;stroke-width:.3985;stroke-linecap:butt;stroke-linejoin:miter;stroke:#000;stroke-opacity:1;stroke-miterlimit:10" d="m21.268 4.26 2.82 2.816m-2.82 0 2.82-2.816M15.6 9.928l2.816 2.82m-2.816 0 2.816-2.82M4.26 26.94l2.817 2.816m-2.817 0 2.817-2.816" transform="matrix(1 0 0 -1 .963 30.631)"/></svg>