<svg xmlns="http://www.w3.org/2000/svg" width="139.712" height="78.651" viewBox="0 0 104.784 58.988" version="1.2"><defs><clipPath id="a"><path d="M9 0h95.676v58.98H9Zm0 0"/></clipPath></defs><path style="fill:none;stroke-width:.19925;stroke-linecap:butt;stroke-linejoin:miter;stroke:gray;stroke-opacity:1;stroke-miterlimit:10" d="M-.001 0h85.043M-.001 28.349h85.043M-.001 56.684h85.043M-.001.001v56.691M28.347.001v56.691M56.694.001v56.691M85.03.001v56.691" transform="matrix(1 0 0 -1 15.083 57.778)"/><path style="stroke:none;fill-rule:nonzero;fill:#8080ff;fill-opacity:1" d="M18.625 15.258a3.543 3.543 0 1 0-7.085-.001 3.543 3.543 0 0 0 7.085 0Zm18.223 0a5.566 5.566 0 1 0-11.133 0 5.566 5.566 0 0 0 11.133 0Zm23.43 0a8.171 8.171 0 0 0-8.173-8.172c-4.511 0-8.167 3.66-8.167 8.172 0 4.512 3.656 8.172 8.167 8.172a8.171 8.171 0 0 0 8.172-8.172Zm30.124 0c0-6.363-5.156-11.52-11.52-11.52-6.359 0-11.515 5.157-11.515 11.52 0 6.363 5.156 11.52 11.516 11.52 6.363 0 11.52-5.157 11.52-11.52Zm0 0"/><path style="stroke:none;fill-rule:nonzero;fill:#ff8080;fill-opacity:1" d="M29.258 43.605c0-7.828-6.348-14.175-14.176-14.175S.91 35.777.91 43.605c0 7.829 6.344 14.172 14.172 14.172s14.176-6.343 14.176-14.172Zm24.8 0c0-5.87-4.757-10.632-10.628-10.632S32.8 37.734 32.8 43.605c0 5.872 4.759 10.63 10.63 10.63 5.87 0 10.629-4.758 10.629-10.63Zm24.805 0a7.085 7.085 0 0 0-7.086-7.085 7.085 7.085 0 0 0-7.086 7.085 7.085 7.085 0 0 0 7.086 7.086 7.085 7.085 0 0 0 7.086-7.086Zm24.805 0a3.546 3.546 0 0 0-7.09 0 3.546 3.546 0 0 0 7.09 0Zm0 0"/><g clip-path="url(#a)"><path style="fill:none;stroke-width:.3985;stroke-linecap:butt;stroke-linejoin:miter;stroke:gray;stroke-opacity:1;stroke-dasharray:.3985,1.99255;stroke-miterlimit:10" d="m-.001 46.063 85.043 10.63M-.001 38.976l85.043-10.629m-85.043 0 85.043-10.633M-.001.002 85.042 10.63" transform="matrix(1 0 0 -1 15.083 57.778)"/></g></svg>