<svg xmlns="http://www.w3.org/2000/svg" xmlns:xlink="http://www.w3.org/1999/xlink" width="306.891" height="165.771" viewBox="0 0 230.168 124.328" version="1.2"><defs><symbol overflow="visible" id="a"><path style="stroke:none" d="M3.89-2.547c0-.844-.078-1.36-.343-1.875-.344-.703-1-.875-1.438-.875-1 0-1.375.75-1.484.969C.344-3.75.328-2.953.328-2.547c0 .531.016 1.328.406 1.969.36.594.954.75 1.375.75.391 0 1.063-.125 1.47-.906.296-.579.312-1.297.312-1.813ZM2.11-.062c-.266 0-.813-.126-.985-.954-.094-.453-.094-1.203-.094-1.625 0-.546 0-1.109.094-1.546.172-.813.781-.891.984-.891.266 0 .829.14.985.86.094.437.094 1.046.094 1.577 0 .47 0 1.188-.094 1.641-.172.828-.719.938-.985.938Zm0 0"/></symbol><symbol overflow="visible" id="c"><path style="stroke:none" d="M2.5-5.078c0-.219-.016-.219-.234-.219-.329.313-.75.5-1.5.5v.266c.218 0 .64 0 1.109-.203v4.078c0 .297-.031.39-.781.39H.812V0c.329-.031 1.016-.031 1.375-.031.36 0 1.047 0 1.376.031v-.266H3.28c-.75 0-.781-.093-.781-.39Zm0 0"/></symbol><symbol overflow="visible" id="d"><path style="stroke:none" d="M1.11-4.484c.109.03.421.125.765.125 1 0 1.594-.704 1.594-.829 0-.093-.047-.109-.094-.109-.016 0-.031 0-.094.031a2.982 2.982 0 0 1-1.11.22c-.468 0-.858-.11-1.108-.22-.079-.03-.094-.03-.11-.03-.094 0-.094.077-.094.234v2.328c0 .14 0 .234.125.234.063 0 .079-.031.125-.094.094-.11.391-.515 1.079-.515.437 0 .656.359.734.515.125.281.14.656.14.953 0 .297 0 .735-.218 1.079-.156.25-.485.484-.906.484A1.271 1.271 0 0 1 .734-.922c.016.016.079.016.079.016.218 0 .406-.14.406-.39a.388.388 0 0 0-.39-.407c-.157 0-.407.078-.407.422 0 .718.625 1.453 1.531 1.453 1 0 1.844-.781 1.844-1.766 0-.922-.672-1.75-1.61-1.75-.39 0-.765.125-1.078.406Zm0 0"/></symbol><symbol overflow="visible" id="e"><path style="stroke:none" d="M2.016-2.656c.625 0 1.03.453 1.03 1.297 0 1-.562 1.28-.983 1.28-.438 0-1.047-.155-1.329-.577.297 0 .5-.188.5-.438 0-.265-.187-.437-.453-.437-.203 0-.437.125-.437.453 0 .75.812 1.25 1.734 1.25 1.047 0 1.797-.734 1.797-1.531 0-.672-.531-1.266-1.344-1.454.625-.218 1.11-.75 1.11-1.39 0-.64-.72-1.094-1.547-1.094-.86 0-1.5.453-1.5 1.063 0 .296.187.421.406.421.25 0 .406-.171.406-.406 0-.297-.265-.406-.437-.406.344-.438.953-.469 1.094-.469.203 0 .812.063.812.89 0 .548-.234.891-.344 1.016-.234.25-.422.266-.906.297-.156 0-.219.016-.219.125 0 .11.078.11.219.11Zm0 0"/></symbol><symbol overflow="visible" id="f"><path style="stroke:none" d="M3.14-5.156c0-.157 0-.219-.171-.219-.094 0-.11 0-.188.11L.234-1.564v.25h2.25v.672c0 .297-.015.375-.64.375h-.172V0c.672-.031.687-.031 1.14-.031.454 0 .47 0 1.141.031v-.266h-.172c-.625 0-.64-.078-.64-.375v-.671h.843v-.25h-.843Zm-.593.64v2.954H.516Zm0 0"/></symbol><symbol overflow="visible" id="g"><path style="stroke:none" d="M1.094-2.64c0-.657.062-1.235.343-1.72.25-.406.657-.734 1.157-.734.156 0 .515.032.703.297-.36.031-.39.297-.39.375 0 .25.187.375.374.375.14 0 .375-.078.375-.39 0-.47-.36-.86-1.078-.86C1.468-5.297.344-4.25.344-2.53.344-.36 1.359.172 2.125.172c.39 0 .797-.11 1.156-.453.328-.313.594-.64.594-1.344 0-1.031-.797-1.766-1.672-1.766-.578 0-.922.36-1.11.75ZM2.125-.079a.88.88 0 0 1-.797-.516c-.187-.36-.203-.89-.203-1.203 0-.781.422-1.375 1.047-1.375.39 0 .64.203.781.485.172.296.172.656.172 1.062s0 .75-.156 1.047c-.219.36-.485.5-.844.5Zm0 0"/></symbol><symbol overflow="visible" id="h"><path style="stroke:none" d="M4.031-4.86c.078-.077.078-.093.078-.265H2.08a8.79 8.79 0 0 1-.642-.031c-.421-.032-.421-.11-.453-.235h-.25L.47-3.703h.25c.015-.125.11-.672.219-.735.078-.046.687-.046.796-.046h1.688l-.813 1.109C1.703-2.172 1.5-.906 1.5-.281c0 .078 0 .453.375.453s.375-.36.375-.453v-.39c0-1.141.203-2.079.594-2.61Zm0 0"/></symbol><symbol overflow="visible" id="i"><path style="stroke:none" d="M3.125-2.344c0 1.938-.922 2.266-1.39 2.266-.173 0-.579-.016-.798-.266.36-.031.375-.297.375-.375a.37.37 0 0 0-.375-.375.37.37 0 0 0-.375.39c0 .548.454.876 1.188.876 1.094 0 2.125-1.094 2.125-2.797 0-2.063-.922-2.672-1.734-2.672-.954 0-1.797.734-1.797 1.781 0 1.016.781 1.766 1.687 1.766.563 0 .906-.36 1.094-.766Zm-1.063.375c-.374 0-.609-.172-.78-.468-.188-.282-.188-.672-.188-1.079 0-.468 0-.796.218-1.125.204-.296.454-.453.829-.453.53 0 .765.532.796.563.157.39.172 1.015.172 1.172 0 .64-.343 1.39-1.046 1.39Zm0 0"/></symbol><symbol overflow="visible" id="j"><path style="stroke:none" d="M2.25-1.625c.125-.125.453-.39.594-.5.484-.453.953-.89.953-1.61 0-.953-.797-1.562-1.781-1.562-.97 0-1.594.719-1.594 1.438 0 .39.312.437.422.437.172 0 .422-.11.422-.422 0-.406-.407-.406-.5-.406.234-.594.765-.781 1.156-.781.734 0 1.125.625 1.125 1.297 0 .828-.578 1.437-1.531 2.39l-1 1.047C.422-.219.422-.203.422 0h3.14l.235-1.422h-.25c-.016.156-.078.547-.172.703-.047.063-.656.063-.781.063H1.172Zm0 0"/></symbol><symbol overflow="visible" id="k"><path style="stroke:none" d="M2.64-2.875c.454-.219 1-.61 1-1.234 0-.766-.78-1.188-1.515-1.188-.844 0-1.531.578-1.531 1.328 0 .297.094.563.297.797.14.172.171.188.656.5C.563-2.234.344-1.656.344-1.219c0 .89.89 1.39 1.765 1.39.97 0 1.766-.671 1.766-1.515 0-.5-.266-.828-.406-.968-.125-.126-.14-.141-.828-.563Zm-1.234-.75c-.234-.14-.422-.375-.422-.64 0-.5.547-.829 1.125-.829.61 0 1.125.422 1.125.985 0 .453-.359.843-.828 1.078Zm.39 1.094c.032.015.938.578 1.079.656.125.078.547.328.547.813 0 .609-.656.984-1.297.984-.719 0-1.313-.484-1.313-1.14 0-.595.438-1.063.985-1.313Zm0 0"/></symbol><symbol overflow="visible" id="b"><path style="stroke:none" d="M3.266-1.5c0-.75-.61-1.36-1.36-1.36-.734 0-1.343.61-1.343 1.36 0 .766.609 1.36 1.343 1.36.75 0 1.36-.594 1.36-1.36ZM1.906-.453A1.024 1.024 0 0 1 .875-1.5c0-.578.453-1.047 1.031-1.047.578 0 1.047.469 1.047 1.047 0 .594-.469 1.047-1.047 1.047Zm0 0"/></symbol><clipPath id="l"><path d="M116 117h5v6.992h-5Zm0 0"/></clipPath><clipPath id="m"><path d="M137 117h9v6.992h-9Zm0 0"/></clipPath><clipPath id="n"><path d="M160 117h9v6.992h-9Zm0 0"/></clipPath><clipPath id="o"><path d="M183 117h9v6.992h-9Zm0 0"/></clipPath><clipPath id="p"><path d="M205 117h12v6.992h-12Zm0 0"/></clipPath><clipPath id="q"><path d="M91 117h9v6.992h-9Zm0 0"/></clipPath><clipPath id="r"><path d="M68 117h9v6.992h-9Zm0 0"/></clipPath><clipPath id="s"><path d="M45 117h9v6.992h-9Zm0 0"/></clipPath><clipPath id="t"><path d="M20 117h13v6.992H20Zm0 0"/></clipPath></defs><path style="fill:none;stroke-width:.3985;stroke-linecap:round;stroke-linejoin:miter;stroke:gray;stroke-opacity:1;stroke-miterlimit:10" d="M97.11 0h1.992M93.8 25.134l1.923.515M84.098 48.555l1.726.996M68.668 68.665l1.406 1.41M48.555 84.098l.996 1.727M25.133 93.801l.515 1.922M0 97.11v1.992M-25.133 93.801l-.515 1.922M-48.555 84.098l-.996 1.727M-68.668 68.665l-1.406 1.41M-84.098 48.555l-1.726.996M-93.8 25.134l-1.923.515M-97.11 0h-1.992M0-6.976v1.996M23.031-6.976v1.996M46.063-6.976v1.996M69.094-6.976v1.996M92.125-6.976v1.996M-23.031-4.98v-1.996M-46.062-4.98v-1.996M-69.094-4.98v-1.996M-92.125-4.98v-1.996" transform="matrix(1 0 0 -1 118.664 108.071)"/><path style="fill:none;stroke-width:.3985;stroke-linecap:square;stroke-linejoin:miter;stroke:#bfbfbf;stroke-opacity:1;stroke-miterlimit:10" d="M92.129 0c0 50.88-41.246 92.126-92.129 92.126S-92.129 50.88-92.129 0" transform="matrix(1 0 0 -1 118.664 108.071)"/><path style="fill:none;stroke-width:.3985;stroke-linecap:square;stroke-linejoin:miter;stroke:gray;stroke-opacity:1;stroke-miterlimit:10" d="M97.11 0c0 53.633-43.477 97.11-97.11 97.11S-97.11 53.633-97.11 0" transform="matrix(1 0 0 -1 118.664 108.071)"/><path style="fill:none;stroke-width:.3985;stroke-linecap:square;stroke-linejoin:miter;stroke:#bfbfbf;stroke-opacity:1;stroke-miterlimit:10" d="M0 0H92.13" transform="matrix(1 0 0 -1 118.664 108.071)"/><path style="fill:none;stroke-width:.3985;stroke-linecap:square;stroke-linejoin:miter;stroke:gray;stroke-opacity:1;stroke-miterlimit:10" d="M0-4.98H92.13" transform="matrix(1 0 0 -1 118.664 108.071)"/><path style="fill:none;stroke-width:.3985;stroke-linecap:square;stroke-linejoin:miter;stroke:#bfbfbf;stroke-opacity:1;stroke-miterlimit:10" d="M0 0h-92.129" transform="matrix(1 0 0 -1 118.664 108.071)"/><path style="fill:none;stroke-width:.3985;stroke-linecap:square;stroke-linejoin:miter;stroke:gray;stroke-opacity:1;stroke-miterlimit:10" d="M0-4.98h-92.129" transform="matrix(1 0 0 -1 118.664 108.071)"/><path style="fill:none;stroke-width:.59776;stroke-linecap:butt;stroke-linejoin:miter;stroke:#000;stroke-opacity:1;stroke-miterlimit:10" d="M0 0s2.773.126 3.828.278c1.055.156 2.738.527 3.766.836 1.031.305 2.66.922 3.648 1.379.989.457 2.54 1.308 3.465 1.91.93.602 2.375 1.684 3.23 2.422.856.738 2.169 2.039 2.938 2.91a38.252 38.252 0 0 1 2.586 3.36c.664.992 1.648 2.68 2.195 3.777a43.288 43.288 0 0 1 1.75 4.156c.418 1.2.989 3.207 1.27 4.488.277 1.285.613 3.414.742 4.77a52.77 52.77 0 0 1 .191 5 55.799 55.799 0 0 1-.398 5.168 58.31 58.31 0 0 1-1 5.281 62.548 62.548 0 0 1-1.625 5.336 66.994 66.994 0 0 1-2.262 5.32 71.693 71.693 0 0 1-2.898 5.246 75.178 75.178 0 0 1-3.543 5.102c-1.07 1.387-2.93 3.574-4.176 4.89-1.246 1.32-3.383 3.387-4.797 4.622-1.414 1.234-3.816 3.148-5.394 4.277a93.247 93.247 0 0 1-5.97 3.883 97.803 97.803 0 0 1-6.519 3.418c-1.878.875-7.023 2.898-7.023 2.898" transform="matrix(1 0 0 -1 118.664 108.071)"/><use xlink:href="#a" x="220.42" y="110.903" style="fill:#000;fill-opacity:1"/><use xlink:href="#b" x="224.654" y="108.09" style="fill:#000;fill-opacity:1"/><g style="fill:#000;fill-opacity:1"><use xlink:href="#c" x="217.043" y="79.766"/><use xlink:href="#d" x="221.278" y="79.766"/></g><use xlink:href="#b" x="225.511" y="76.954" style="fill:#000;fill-opacity:1"/><g style="fill:#000;fill-opacity:1"><use xlink:href="#e" x="207.143" y="55.865"/><use xlink:href="#a" x="211.378" y="55.865"/></g><use xlink:href="#b" x="215.611" y="53.053" style="fill:#000;fill-opacity:1"/><g style="fill:#000;fill-opacity:1"><use xlink:href="#f" x="191.394" y="35.341"/><use xlink:href="#d" x="195.629" y="35.341"/></g><use xlink:href="#b" x="199.862" y="32.528" style="fill:#000;fill-opacity:1"/><g style="fill:#000;fill-opacity:1"><use xlink:href="#g" x="170.87" y="19.592"/><use xlink:href="#a" x="175.105" y="19.592"/></g><use xlink:href="#b" x="179.338" y="16.779" style="fill:#000;fill-opacity:1"/><g style="fill:#000;fill-opacity:1"><use xlink:href="#h" x="146.969" y="9.692"/><use xlink:href="#d" x="151.204" y="9.692"/></g><use xlink:href="#b" x="155.437" y="6.879" style="fill:#000;fill-opacity:1"/><g style="fill:#000;fill-opacity:1"><use xlink:href="#i" x="112.271" y="6.315"/><use xlink:href="#a" x="116.506" y="6.315"/></g><use xlink:href="#b" x="120.739" y="3.503" style="fill:#000;fill-opacity:1"/><g style="fill:#000;fill-opacity:1"><use xlink:href="#c" x="73.339" y="9.692"/><use xlink:href="#a" x="77.574" y="9.692"/><use xlink:href="#d" x="81.808" y="9.692"/></g><use xlink:href="#b" x="86.042" y="6.879" style="fill:#000;fill-opacity:1"/><g style="fill:#000;fill-opacity:1"><use xlink:href="#c" x="49.438" y="19.592"/><use xlink:href="#j" x="53.673" y="19.592"/><use xlink:href="#a" x="57.907" y="19.592"/></g><use xlink:href="#b" x="62.141" y="16.779" style="fill:#000;fill-opacity:1"/><g style="fill:#000;fill-opacity:1"><use xlink:href="#c" x="28.914" y="35.341"/><use xlink:href="#e" x="33.149" y="35.341"/><use xlink:href="#d" x="37.383" y="35.341"/></g><use xlink:href="#b" x="41.616" y="32.528" style="fill:#000;fill-opacity:1"/><g style="fill:#000;fill-opacity:1"><use xlink:href="#c" x="13.165" y="55.865"/><use xlink:href="#d" x="17.4" y="55.865"/><use xlink:href="#a" x="21.634" y="55.865"/></g><use xlink:href="#b" x="25.867" y="53.053" style="fill:#000;fill-opacity:1"/><g style="fill:#000;fill-opacity:1"><use xlink:href="#c" x="3.265" y="79.766"/><use xlink:href="#g" x="7.5" y="79.766"/><use xlink:href="#d" x="11.734" y="79.766"/></g><use xlink:href="#b" x="15.967" y="76.954" style="fill:#000;fill-opacity:1"/><g style="fill:#000;fill-opacity:1"><use xlink:href="#c" x="-.112" y="110.903"/><use xlink:href="#k" x="4.123" y="110.903"/><use xlink:href="#a" x="8.357" y="110.903"/></g><use xlink:href="#b" x="12.591" y="108.09" style="fill:#000;fill-opacity:1"/><g clip-path="url(#l)"><use xlink:href="#a" x="116.547" y="122.837" style="fill:#000;fill-opacity:1"/></g><g style="fill:#000;fill-opacity:1" clip-path="url(#m)"><use xlink:href="#j" x="137.461" y="122.837"/><use xlink:href="#d" x="141.696" y="122.837"/></g><g style="fill:#000;fill-opacity:1" clip-path="url(#n)"><use xlink:href="#d" x="160.492" y="122.837"/><use xlink:href="#a" x="164.727" y="122.837"/></g><g style="fill:#000;fill-opacity:1" clip-path="url(#o)"><use xlink:href="#h" x="183.524" y="122.837"/><use xlink:href="#d" x="187.759" y="122.837"/></g><g style="fill:#000;fill-opacity:1" clip-path="url(#p)"><use xlink:href="#c" x="204.438" y="122.837"/><use xlink:href="#a" x="208.673" y="122.837"/><use xlink:href="#a" x="212.907" y="122.837"/></g><g style="fill:#000;fill-opacity:1" clip-path="url(#q)"><use xlink:href="#j" x="91.398" y="122.837"/><use xlink:href="#d" x="95.633" y="122.837"/></g><g style="fill:#000;fill-opacity:1" clip-path="url(#r)"><use xlink:href="#d" x="68.367" y="122.837"/><use xlink:href="#a" x="72.602" y="122.837"/></g><g style="fill:#000;fill-opacity:1" clip-path="url(#s)"><use xlink:href="#h" x="45.335" y="122.837"/><use xlink:href="#d" x="49.57" y="122.837"/></g><g style="fill:#000;fill-opacity:1" clip-path="url(#t)"><use xlink:href="#c" x="20.187" y="122.837"/><use xlink:href="#a" x="24.422" y="122.837"/><use xlink:href="#a" x="28.656" y="122.837"/></g></svg>