<svg xmlns="http://www.w3.org/2000/svg" width="116.461" height="91.419" viewBox="0 0 87.346 68.564" version="1.2"><defs><clipPath id="a"><path d="M0 34h43v34.348H0Zm0 0"/></clipPath></defs><path style="fill:none;stroke-width:.19925;stroke-linecap:butt;stroke-linejoin:miter;stroke:gray;stroke-opacity:1;stroke-miterlimit:10" d="M-.001 0h85.043M-.001 28.349h85.043M-.001 56.684h85.043M-.001.001v56.691M28.347.001v56.691M56.694.001v56.691M85.03.001v56.691" transform="matrix(1 0 0 -1 .88 57.575)"/><path style="fill:none;stroke-width:.3985;stroke-linecap:butt;stroke-linejoin:miter;stroke:#000;stroke-opacity:1;stroke-miterlimit:10" d="m-.001 0 28.348 28.348V.001" transform="matrix(1 0 0 -1 .88 57.575)"/><path style="fill:none;stroke-width:.3985;stroke-linecap:butt;stroke-linejoin:miter;stroke:#00f;stroke-opacity:1;stroke-miterlimit:10" d="m-.001 0 3.496 39.934L21.714 18.22" transform="matrix(1 0 0 -1 .88 57.575)"/><g clip-path="url(#a)"><path style="fill:none;stroke-width:.3985;stroke-linecap:butt;stroke-linejoin:miter;stroke:red;stroke-opacity:1;stroke-miterlimit:10" d="M-.001 0 36.33 16.943 26.636-9.695" transform="matrix(1 0 0 -1 .88 57.575)"/></g></svg>