<svg xmlns="http://www.w3.org/2000/svg" xmlns:xlink="http://www.w3.org/1999/xlink" width="468.269" height="106.851" viewBox="0 0 351.202 80.138" version="1.2"><defs><symbol overflow="visible" id="a"><path style="stroke:none" d="M2.922 0v-.469h-.688v-6.453L.47-6.844v.469c.625 0 .687 0 .687.39v5.516H.47V0l1.219-.031Zm0 0"/></symbol><symbol overflow="visible" id="b"><path style="stroke:none" d="M2.844 0v-.469h-.61v-4.015L.5-4.406v.468c.594 0 .656 0 .656.391v3.078H.47V0l1.219-.031Zm-.469-6.047a.774.774 0 0 0-.781-.781.784.784 0 0 0-.782.781c0 .422.36.766.782.766a.77.77 0 0 0 .781-.766Zm0 0"/></symbol><symbol overflow="visible" id="c"><path style="stroke:none" d="M6.125 0v-.469h-.688v-2.578c0-1.047-.53-1.437-1.53-1.437-.954 0-1.485.562-1.75 1.078v-1.078l-1.704.078v.468c.61 0 .688 0 .688.391v3.078H.453V0l1.25-.031L2.953 0v-.469h-.687v-2.078c0-1.094.859-1.578 1.5-1.578.328 0 .546.203.546.969V-.47h-.687V0l1.25-.031Zm0 0"/></symbol><symbol overflow="visible" id="d"><path style="stroke:none" d="M4.922-1.172c0-.172-.188-.172-.234-.172-.172 0-.188.047-.25.203-.204.485-.782.797-1.422.797-1.407 0-1.422-1.328-1.422-1.828h3.015c.22 0 .313 0 .313-.265 0-.313-.063-1.047-.563-1.547-.359-.36-.89-.532-1.578-.532C1.187-4.516.312-3.484.312-2.25c0 1.344 1 2.313 2.61 2.313 1.578 0 2-1.063 2-1.235ZM3.984-2.5h-2.39c.015-.39.031-.813.234-1.14.266-.391.672-.516.953-.516 1.172 0 1.188 1.312 1.203 1.656Zm0 0"/></symbol><symbol overflow="visible" id="e"><path style="stroke:none" d="M8.031-3.953v-.469a12.55 12.55 0 0 1-.781.031l-.953-.03v.468c.094 0 .578 0 .578.11 0 .03-.031.093-.031.124L5.797-1.172l-1.14-2.781h.562v-.469l-1.14.031c-.423 0-.845-.03-1-.03v.468h.593c.203.5.203.531.203.531 0 .031-.031.094-.031.125L3.047-1.39 2-3.953h.563v-.469l-1.235.031L.25-4.42v.468h.594L2.359-.234c.079.172.11.28.36.28s.297-.108.36-.28L4.14-2.813 5.187-.233c.079.172.11.28.36.28s.297-.108.36-.28L7.343-3.75c.047-.125.093-.203.687-.203Zm0 0"/></symbol><symbol overflow="visible" id="f"><path style="stroke:none" d="M5.984 0v-.469c-.609 0-.687 0-.687-.39v-6.063l-1.766.078v.469c.625 0 .703 0 .703.39v1.954a2.178 2.178 0 0 0-1.359-.453c-1.453 0-2.5.875-2.5 2.28 0 1.313.922 2.267 2.39 2.267.61 0 1.094-.235 1.407-.485v.484ZM4.172-1.031c-.14.187-.547.734-1.297.734-1.219 0-1.219-1.203-1.219-1.906 0-.485 0-1.016.25-1.406.297-.422.766-.516 1.078-.516.563 0 .97.313 1.188.61Zm0 0"/></symbol><symbol overflow="visible" id="g"><path style="stroke:none" d="M3.813-1.234v-.532h-.47v.516c0 .672-.327.906-.609.906-.578 0-.578-.64-.578-.86v-2.75h1.469v-.468H2.156v-1.906h-.469c0 1-.484 1.984-1.484 2.016v.359h.828v2.734c0 1.063.86 1.282 1.578 1.282.75 0 1.204-.579 1.204-1.297Zm0 0"/></symbol><symbol overflow="visible" id="h"><path style="stroke:none" d="M6.125 0v-.469h-.688v-2.578c0-1.047-.53-1.437-1.53-1.437a1.9 1.9 0 0 0-1.688.953v-3.39l-1.766.077v.469c.61 0 .688 0 .688.39v5.516H.453V0l1.25-.031L2.953 0v-.469h-.687v-2.078c0-1.094.859-1.578 1.5-1.578.328 0 .546.203.546.969V-.47h-.687V0l1.25-.031Zm0 0"/></symbol><symbol overflow="visible" id="i"><path style="stroke:none" d="M4.14-1.39c0-.438-.202-.782-.546-1.063-.39-.281-.719-.344-1.485-.485-.375-.062-1.015-.171-1.015-.64 0-.625.922-.625 1.11-.625.75 0 1.124.297 1.171.844.016.156.031.203.234.203.235 0 .235-.047.235-.281v-.797c0-.188 0-.282-.172-.282-.047 0-.063 0-.453.188-.266-.125-.61-.188-1-.188-.313 0-1.844 0-1.844 1.313 0 .39.203.656.406.828.39.344.781.406 1.547.547.36.062 1.094.187 1.094.781 0 .75-.906.75-1.125.75C1.234-.297.984-1.03.859-1.453c-.046-.14-.109-.14-.234-.14-.25 0-.25.062-.25.28v1.094c0 .188 0 .281.188.281.062 0 .078 0 .296-.156l.25-.172c.47.329.985.329 1.188.329.312 0 1.844 0 1.844-1.454Zm0 0"/></symbol><symbol overflow="visible" id="j"><path style="stroke:none" d="M5.281-3.188c0-.953-.015-3.343-2.422-3.343C.453-6.531.453-4.156.453-3.188c0 1 0 3.297 2.406 3.297 2.391 0 2.422-2.296 2.422-3.296ZM4-3.296c0 .563 0 1.469-.078 1.985-.14.921-.766 1.062-1.063 1.062-.359 0-.921-.219-1.046-.953-.094-.516-.094-1.547-.094-2.094 0-.719 0-1.375.078-1.89.125-.891.828-.985 1.062-.985.375 0 .782.188.97.625C4-5.172 4-4.109 4-3.297Zm0 0"/></symbol><symbol overflow="visible" id="k"><path style="stroke:none" d="M2.36-.781a.784.784 0 0 0-.782-.781.78.78 0 0 0-.766.78.774.774 0 1 0 1.547 0Zm0 0"/></symbol><symbol overflow="visible" id="l"><path style="stroke:none" d="M4.922 0v-.469h-1.39v-5.734c0-.234 0-.328-.266-.328-.11 0-.125 0-.22.078-.765.562-1.796.562-2 .562H.845v.47h.203c.156 0 .703-.016 1.297-.204v5.156H.954V0c.437-.031 1.5-.031 1.984-.031s1.546 0 1.984.031Zm0 0"/></symbol><symbol overflow="visible" id="m"><path style="stroke:none" d="M5.984-2.219c0-1.328-.906-2.265-2.343-2.265-.75 0-1.282.312-1.5.484v-.484l-1.766.078v.468c.61 0 .688 0 .688.376v5.03H.375v.47l1.25-.032 1.25.032v-.47h-.688V-.39A2.01 2.01 0 0 0 3.47.063c1.5 0 2.515-.907 2.515-2.282Zm-1.28 0C4.703-.813 4-.297 3.358-.297c-.14 0-.609 0-1.062-.547-.11-.125-.11-.14-.11-.328v-2.11c0-.187.016-.202.157-.343.39-.406.922-.469 1.14-.469.657 0 1.22.61 1.22 1.875Zm0 0"/></symbol><symbol overflow="visible" id="n"><path style="stroke:none" d="M5.406 0v-.469h-.968v-1.094h.968v-.468h-.968V-6.22c0-.265-.016-.328-.297-.328-.22 0-.22.016-.344.172L.312-2.031v.469h2.876V-.47h-1.11V0c.375-.031 1.281-.031 1.703-.031.406 0 1.266 0 1.625.031Zm-2.11-2.031H.845L3.297-5.11Zm0 0"/></symbol><symbol overflow="visible" id="o"><path style="stroke:none" d="M5.156-2.219h-.468c-.032.203-.125.844-.266.906-.11.063-.86.063-1.016.063H1.937c.47-.39 1-.813 1.438-1.14 1.14-.844 1.781-1.313 1.781-2.25 0-1.157-1.047-1.891-2.437-1.891-1.219 0-2.156.625-2.156 1.515 0 .594.484.735.718.735C1.61-4.281 2-4.5 2-5c0-.516-.422-.672-.563-.719.282-.234.672-.343 1.032-.343.844 0 1.312.671 1.312 1.421 0 .688-.375 1.375-1.078 2.079l-2 2.046c-.14.11-.14.141-.14.344V0h4.28Zm0 0"/></symbol><symbol overflow="visible" id="q"><path style="stroke:none" d="M5.156-2c0-1.156-.797-2.078-2.265-2.078-.282 0-.813.031-1.282.344v-1.313c.282.047.391.078.72.078 1.452 0 2.374-1.125 2.374-1.375 0-.078-.016-.187-.14-.187-.032 0-.032 0-.141.047a4.32 4.32 0 0 1-1.531.28c-.75 0-1.282-.202-1.547-.28-.094-.032-.094-.047-.125-.047-.14 0-.14.11-.14.265v2.922c0 .172 0 .297.218.297.125 0 .156-.031.219-.11.39-.468.921-.562 1.328-.562.89 0 .89.875.89 1.672 0 .735 0 1.735-1.187 1.735-.25 0-.875-.063-1.297-.625.36-.016.656-.266.656-.672 0-.532-.437-.672-.672-.672-.14 0-.671.094-.671.703 0 .844.78 1.687 2.015 1.687C4.172.11 5.156-.78 5.156-2Zm0 0"/></symbol><clipPath id="p"><path d="M0 0h146v79.707H0Zm0 0"/></clipPath></defs><path style="fill:none;stroke-width:.09962;stroke-linecap:butt;stroke-linejoin:miter;stroke:#000;stroke-opacity:1;stroke-miterlimit:10" d="M0 0h84.093" transform="matrix(1 0 0 -1 .61 4.965)"/><path style="fill-rule:nonzero;fill:#000;fill-opacity:1;stroke-width:.09962;stroke-linecap:butt;stroke-linejoin:miter;stroke:#000;stroke-opacity:1;stroke-miterlimit:10" d="M.741 0C.651.024.25.15 0 .285v-.57c.25.137.653.262.742.285Zm0 0" transform="matrix(1 0 0 -1 84.704 4.965)"/><g style="fill:#000;fill-opacity:1"><use xlink:href="#a" x="89.169" y="7.456"/><use xlink:href="#b" x="92.347" y="7.456"/><use xlink:href="#c" x="95.525" y="7.456"/><use xlink:href="#d" x="101.891" y="7.456"/></g><g style="fill:#000;fill-opacity:1"><use xlink:href="#e" x="110.957" y="7.456"/><use xlink:href="#b" x="119.236" y="7.456"/><use xlink:href="#f" x="122.414" y="7.456"/><use xlink:href="#g" x="128.78" y="7.456"/><use xlink:href="#h" x="133.234" y="7.456"/></g><g style="fill:#000;fill-opacity:1"><use xlink:href="#b" x="143.416" y="7.456"/><use xlink:href="#i" x="146.594" y="7.456"/></g><g style="fill:#000;fill-opacity:1"><use xlink:href="#j" x="154.932" y="7.456"/><use xlink:href="#k" x="160.661" y="7.456"/><use xlink:href="#l" x="163.839" y="7.456"/><use xlink:href="#m" x="169.568" y="7.456"/><use xlink:href="#g" x="175.934" y="7.456"/></g><path style="fill:none;stroke-width:.3985;stroke-linecap:butt;stroke-linejoin:miter;stroke:#000;stroke-opacity:1;stroke-miterlimit:10" d="M0-19.926h81.253" transform="matrix(1 0 0 -1 .61 4.965)"/><path style="fill-rule:nonzero;fill:#000;fill-opacity:1;stroke-width:.3985;stroke-linecap:butt;stroke-linejoin:miter;stroke:#000;stroke-opacity:1;stroke-miterlimit:10" d="M2.964 0C2.6.09.999.598-.001 1.148v-2.297C.999-.598 2.6-.089 2.964 0Zm0 0" transform="matrix(1 0 0 -1 81.865 24.89)"/><g style="fill:#000;fill-opacity:1"><use xlink:href="#a" x="89.169" y="27.381"/><use xlink:href="#b" x="92.347" y="27.381"/><use xlink:href="#c" x="95.525" y="27.381"/><use xlink:href="#d" x="101.891" y="27.381"/></g><g style="fill:#000;fill-opacity:1"><use xlink:href="#e" x="110.957" y="27.381"/><use xlink:href="#b" x="119.236" y="27.381"/><use xlink:href="#f" x="122.414" y="27.381"/><use xlink:href="#g" x="128.78" y="27.381"/><use xlink:href="#h" x="133.234" y="27.381"/></g><g style="fill:#000;fill-opacity:1"><use xlink:href="#b" x="143.416" y="27.381"/><use xlink:href="#i" x="146.594" y="27.381"/></g><g style="fill:#000;fill-opacity:1"><use xlink:href="#j" x="154.932" y="27.381"/><use xlink:href="#k" x="160.661" y="27.381"/><use xlink:href="#n" x="163.839" y="27.381"/><use xlink:href="#m" x="169.568" y="27.381"/><use xlink:href="#g" x="175.934" y="27.381"/></g><path style="fill:none;stroke-width:1.19553;stroke-linecap:butt;stroke-linejoin:miter;stroke:#000;stroke-opacity:1;stroke-miterlimit:10" d="M0-39.851h73.683" transform="matrix(1 0 0 -1 .61 4.965)"/><path style="fill-rule:nonzero;fill:#000;fill-opacity:1;stroke-width:1.19553;stroke-linecap:butt;stroke-linejoin:miter;stroke:#000;stroke-opacity:1;stroke-miterlimit:10" d="M8.895 0C7.8.27 3 1.789 0 3.44v-6.883C3-1.789 7.8-.27 8.895 0Zm0 0" transform="matrix(1 0 0 -1 74.293 44.816)"/><g style="fill:#000;fill-opacity:1"><use xlink:href="#a" x="89.169" y="47.306"/><use xlink:href="#b" x="92.347" y="47.306"/><use xlink:href="#c" x="95.525" y="47.306"/><use xlink:href="#d" x="101.891" y="47.306"/></g><g style="fill:#000;fill-opacity:1"><use xlink:href="#e" x="110.957" y="47.306"/><use xlink:href="#b" x="119.236" y="47.306"/><use xlink:href="#f" x="122.414" y="47.306"/><use xlink:href="#g" x="128.78" y="47.306"/><use xlink:href="#h" x="133.234" y="47.306"/></g><g style="fill:#000;fill-opacity:1"><use xlink:href="#b" x="143.416" y="47.306"/><use xlink:href="#i" x="146.594" y="47.306"/></g><g style="fill:#000;fill-opacity:1"><use xlink:href="#l" x="154.932" y="47.306"/><use xlink:href="#k" x="160.661" y="47.306"/><use xlink:href="#o" x="163.839" y="47.306"/><use xlink:href="#m" x="169.568" y="47.306"/><use xlink:href="#g" x="175.934" y="47.306"/></g><path style="fill:none;stroke-width:4.98138;stroke-linecap:butt;stroke-linejoin:miter;stroke:#000;stroke-opacity:1;stroke-miterlimit:10" d="M0-59.777h55.652" transform="matrix(1 0 0 -1 .61 4.965)"/><path style="stroke:none;fill-rule:nonzero;fill:#000;fill-opacity:1" d="M75.383 64.742c-2.352-.594-12.672-3.957-19.121-7.62v15.237c6.449-3.66 16.77-7.023 19.12-7.617Zm0 0"/><g clip-path="url(#p)"><path style="fill:none;stroke-width:4.98138;stroke-linecap:butt;stroke-linejoin:miter;stroke:#000;stroke-opacity:1;stroke-miterlimit:10" d="M19.123 0C16.77.592 6.45 3.955 0 7.62V-7.617C6.451-3.958 16.771-.594 19.123 0Zm0 0" transform="matrix(1 0 0 -1 56.26 64.742)"/></g><g style="fill:#000;fill-opacity:1"><use xlink:href="#a" x="89.169" y="67.231"/><use xlink:href="#b" x="92.347" y="67.231"/><use xlink:href="#c" x="95.525" y="67.231"/><use xlink:href="#d" x="101.891" y="67.231"/></g><g style="fill:#000;fill-opacity:1"><use xlink:href="#e" x="110.957" y="67.231"/><use xlink:href="#b" x="119.236" y="67.231"/><use xlink:href="#f" x="122.414" y="67.231"/><use xlink:href="#g" x="128.78" y="67.231"/><use xlink:href="#h" x="133.234" y="67.231"/></g><g style="fill:#000;fill-opacity:1"><use xlink:href="#b" x="143.416" y="67.231"/><use xlink:href="#i" x="146.594" y="67.231"/></g><g style="fill:#000;fill-opacity:1"><use xlink:href="#q" x="154.932" y="67.231"/><use xlink:href="#m" x="160.661" y="67.231"/><use xlink:href="#g" x="167.027" y="67.231"/></g><path style="fill:none;stroke-width:.09962;stroke-linecap:butt;stroke-linejoin:miter;stroke:#000;stroke-opacity:1;stroke-miterlimit:10" d="M170.081 0h84.942" transform="matrix(1 0 0 -1 .61 4.965)"/><path style="fill:none;stroke-width:.0797;stroke-linecap:round;stroke-linejoin:round;stroke:#000;stroke-opacity:1;stroke-miterlimit:10" d="M-.001.395C.026.246.299.024.374 0 .299-.023.026-.246-.001-.394" transform="matrix(1 0 0 -1 255.318 4.965)"/><g style="fill:#000;fill-opacity:1"><use xlink:href="#a" x="259.247" y="7.456"/><use xlink:href="#b" x="262.425" y="7.456"/><use xlink:href="#c" x="265.603" y="7.456"/><use xlink:href="#d" x="271.969" y="7.456"/></g><g style="fill:#000;fill-opacity:1"><use xlink:href="#e" x="281.035" y="7.456"/><use xlink:href="#b" x="289.314" y="7.456"/><use xlink:href="#f" x="292.492" y="7.456"/><use xlink:href="#g" x="298.858" y="7.456"/><use xlink:href="#h" x="303.312" y="7.456"/></g><g style="fill:#000;fill-opacity:1"><use xlink:href="#b" x="313.494" y="7.456"/><use xlink:href="#i" x="316.672" y="7.456"/></g><g style="fill:#000;fill-opacity:1"><use xlink:href="#j" x="325.01" y="7.456"/><use xlink:href="#k" x="330.739" y="7.456"/><use xlink:href="#l" x="333.917" y="7.456"/><use xlink:href="#m" x="339.646" y="7.456"/><use xlink:href="#g" x="346.012" y="7.456"/></g><path style="fill:none;stroke-width:.3985;stroke-linecap:butt;stroke-linejoin:miter;stroke:#000;stroke-opacity:1;stroke-miterlimit:10" d="M170.081-19.926h84.641" transform="matrix(1 0 0 -1 .61 4.965)"/><path style="fill:none;stroke-width:.31879;stroke-linecap:round;stroke-linejoin:round;stroke:#000;stroke-opacity:1;stroke-miterlimit:10" d="M0 1.586C.099.992 1.197.098 1.494 0 1.196-.098.098-.992 0-1.586" transform="matrix(1 0 0 -1 254.078 24.89)"/><g style="fill:#000;fill-opacity:1"><use xlink:href="#a" x="259.247" y="27.381"/><use xlink:href="#b" x="262.425" y="27.381"/><use xlink:href="#c" x="265.603" y="27.381"/><use xlink:href="#d" x="271.969" y="27.381"/></g><g style="fill:#000;fill-opacity:1"><use xlink:href="#e" x="281.035" y="27.381"/><use xlink:href="#b" x="289.314" y="27.381"/><use xlink:href="#f" x="292.492" y="27.381"/><use xlink:href="#g" x="298.858" y="27.381"/><use xlink:href="#h" x="303.312" y="27.381"/></g><g style="fill:#000;fill-opacity:1"><use xlink:href="#b" x="313.494" y="27.381"/><use xlink:href="#i" x="316.672" y="27.381"/></g><g style="fill:#000;fill-opacity:1"><use xlink:href="#j" x="325.01" y="27.381"/><use xlink:href="#k" x="330.739" y="27.381"/><use xlink:href="#n" x="333.917" y="27.381"/><use xlink:href="#m" x="339.646" y="27.381"/><use xlink:href="#g" x="346.012" y="27.381"/></g><path style="fill:none;stroke-width:1.19553;stroke-linecap:butt;stroke-linejoin:miter;stroke:#000;stroke-opacity:1;stroke-miterlimit:10" d="M170.081-39.851h83.844" transform="matrix(1 0 0 -1 .61 4.965)"/><path style="fill:none;stroke-width:.9564;stroke-linecap:round;stroke-linejoin:round;stroke:#000;stroke-opacity:1;stroke-miterlimit:10" d="M0 4.754C.3 2.972 3.586.297 4.484 0 3.586-.297.3-2.973 0-4.754" transform="matrix(1 0 0 -1 250.77 44.816)"/><g style="fill:#000;fill-opacity:1"><use xlink:href="#a" x="259.247" y="47.306"/><use xlink:href="#b" x="262.425" y="47.306"/><use xlink:href="#c" x="265.603" y="47.306"/><use xlink:href="#d" x="271.969" y="47.306"/></g><g style="fill:#000;fill-opacity:1"><use xlink:href="#e" x="281.035" y="47.306"/><use xlink:href="#b" x="289.314" y="47.306"/><use xlink:href="#f" x="292.492" y="47.306"/><use xlink:href="#g" x="298.858" y="47.306"/><use xlink:href="#h" x="303.312" y="47.306"/></g><g style="fill:#000;fill-opacity:1"><use xlink:href="#b" x="313.494" y="47.306"/><use xlink:href="#i" x="316.672" y="47.306"/></g><g style="fill:#000;fill-opacity:1"><use xlink:href="#l" x="325.01" y="47.306"/><use xlink:href="#k" x="330.739" y="47.306"/><use xlink:href="#o" x="333.917" y="47.306"/><use xlink:href="#m" x="339.646" y="47.306"/><use xlink:href="#g" x="346.012" y="47.306"/></g><path style="fill:none;stroke-width:4.98138;stroke-linecap:butt;stroke-linejoin:miter;stroke:#000;stroke-opacity:1;stroke-miterlimit:10" d="M170.081-59.777h80.059" transform="matrix(1 0 0 -1 .61 4.965)"/><path style="fill:none;stroke-width:3.9851;stroke-linecap:round;stroke-linejoin:round;stroke:#000;stroke-opacity:1;stroke-miterlimit:10" d="M0 11.96C.7 7.476 8.416.75 10.52 0 8.415-.748.7-7.474 0-11.963" transform="matrix(1 0 0 -1 243.218 64.742)"/><g style="fill:#000;fill-opacity:1"><use xlink:href="#a" x="259.247" y="67.231"/><use xlink:href="#b" x="262.425" y="67.231"/><use xlink:href="#c" x="265.603" y="67.231"/><use xlink:href="#d" x="271.969" y="67.231"/></g><g style="fill:#000;fill-opacity:1"><use xlink:href="#e" x="281.035" y="67.231"/><use xlink:href="#b" x="289.314" y="67.231"/><use xlink:href="#f" x="292.492" y="67.231"/><use xlink:href="#g" x="298.858" y="67.231"/><use xlink:href="#h" x="303.312" y="67.231"/></g><g style="fill:#000;fill-opacity:1"><use xlink:href="#b" x="313.494" y="67.231"/><use xlink:href="#i" x="316.672" y="67.231"/></g><g style="fill:#000;fill-opacity:1"><use xlink:href="#q" x="325.01" y="67.231"/><use xlink:href="#m" x="330.739" y="67.231"/><use xlink:href="#g" x="337.105" y="67.231"/></g></svg>