<svg xmlns="http://www.w3.org/2000/svg" width="146.331" height="86.595" viewBox="0 0 109.748 64.946" version="1.2"><defs><clipPath id="a"><path d="M.89 29.887h34.016v34.015H.891Zm0 0"/></clipPath><clipPath id="b"><path d="M37.742 29.887h34.016v34.015H37.742Zm0 0"/></clipPath><clipPath id="c"><path d="M74.594 29.887h34.015v34.015H74.594Zm0 0"/></clipPath></defs><path style="fill:none;stroke-width:.3985;stroke-linecap:butt;stroke-linejoin:miter;stroke:#000;stroke-opacity:1;stroke-miterlimit:10" d="M-.002.001h.703l.348.606L1.401 0H2.1l.348.606-.348.605h.7l.35.606.348-.606h.7L3.85.607 4.198 0h.699l.351.606L5.596 0h.703l.348.606-.348.605H7l.347.606-.348.605H6.3l.348.605-.348.61H7l.347.605.352-.605h.699l.351.605-.351.606h.699l.352.605.351-.605h.7l-.352-.606.351-.605h.7l.347.605.352-.605h.699l-.348-.606.348-.609h-.7l-.35-.605.35-.606h.7l-.352-.605.352-.606h.7l.35.606.348-.606h.704l.347.606-.347.605h.699l.347.606.352-.606h.7l-.352-.605.351-.606h.7l.351.606.348-.606h.703l.347.606-.347.605h.699l.348.606-.348.605h-.7l.348.605-.347.606h.699l.348.605.351-.605h.7l.351.605-.352.61h.7l.351.605-.351.606h-.7l.352.605-.352.606h-.699l-.347-.606-.352.606h-.7l.348.605-.347.61h.699l.352.605-.352.605h-.7l.352.606-.351.605h.699l.352.606.347-.606h.7l.351.606-.352.605h.7l.351.606.352-.606h.699l-.352-.605.352-.606h.7l.347.606.351-.606h.7l.351.606-.351.605h.699l.351.606-.351.605h-.7l.352.61-.351.605h.699l.351.606.348-.606h.703l.348.606-.348.605h.7l.347.605.352-.605h.699l-.348-.605.348-.606.7.004.35.605.348-.605h.7l-.348-.605.348-.606h-.7l-.347-.605.351-.606h.7l-.352-.605.351-.606h.7l.347.606.352-.606h.7l.35.602-.35.61h.698l.352.605.348-.606.703-.004-.352-.605.348-.606h.703l.348.606.351-.606h.7l-.352-.605.351-.606h-.699l-.351-.605.351-.606h.7l-.352-.605.351-.61-.699.004-.351-.605-.352.605h-.7l-.347-.605.348-.605h-.7l-.347-.61.348-.605h.699l-.348-.606.348-.605h.699l.352.605.347-.605h.703l-.351-.606.347-.605h-.699l-.347-.606.347-.609h.7L37.44.611l.347-.606h.704l.347.606.352-.606h.699l.352.606-.352.605h.703l.348.605.351-.605h.7l-.352-.61.352-.605h.699l.351.606.352-.606h.7l.347.606-.348.605h.7l.35.606-.35.605-.7.004.352.605-.352.606h.7l.35.605.349-.605h.703l.347.605-.347.606h.699l.348.61.351-.61h.7l-.348-.606.347-.605h.7l.351.605.352-.605h.699l-.352-.606.352-.605h-.7l-.35-.61.347-.605h.703L50.04.607 50.393 0h.7l.35.606.348-.606h.7l.351.606-.351.605h.703l.347.606.352-.606h.7L54.24.607 54.592 0h.7l.35.606.352-.606h.7" transform="matrix(1 0 0 -1 26.404 18.548)"/><path style="stroke:none;fill-rule:nonzero;fill:#0f0;fill-opacity:.2" d="M49.082 10.043h-11.34v11.34h11.34ZM.89 63.902h34.016V29.887H.891Zm0 0"/><g clip-path="url(#a)"><path style="fill:none;stroke-width:.3985;stroke-linecap:butt;stroke-linejoin:miter;stroke:#000;stroke-opacity:1;stroke-miterlimit:10" d="M0 0h.7l.35.605L1.4 0h.699l.35.605-.35.607h.7l.35.606.35-.606h.699l-.35-.607.35-.605h.7l.35.607.35-.607h.7l.35.605-.35.607h.7l.35.606-.35.607h-.7l.35.605-.35.607h.7l.35.605.35-.605h.699l.35.605-.35.607h.7l.35.605.351-.605h.7l-.351-.605.35-.607h.7l.35.607.35-.607h.7l-.351-.607.35-.605h-.699l-.35-.606.349-.607h.7l-.35-.605.35-.607h.7l.35.607.35-.607h.7l.35.607-.35.605h.7l.35.607.35-.607h.7l-.35-.605.35-.607h.7l.35.607.35-.607h.7l.35.605-.35.607.699-.001.35.607-.35.605h-.7l.351.607-.35.605h.699l.35.606.35-.606h.7l.35.606-.35.605h.699l.35.607-.349.606h-.7l.35.606-.349.606h-.7l-.35-.606-.35.606h-.7l.35.607-.35.606h.7l.35.606-.35.605h-.699l.35.607-.35.607h.7l.35.605.348-.605h.701l.349.604-.349.607h.7l.35.605.35-.605.699-.001-.35-.606.349-.605h.7l.35.605.35-.605h.7l.35.605-.35.606h.7l.35.606-.35.606h-.7l.35.607-.35.605h.7l.35.607.35-.607h.7l.35.605-.35.607h.7l.35.607.35-.605h.7l-.35-.606.35-.605h.698l.35.606.35-.605h.7l-.35-.606.35-.605h-.7l-.348-.606.35-.605h.7l-.35-.605.35-.606h.7l.349.606.35-.606h.7l.35.604-.35.607.7-.001.35.606.35-.606h.7l-.35-.606.348-.607h.7l.35.607.35-.607h.7l-.35-.605.35-.605h-.7l-.35-.606.35-.607h.7l-.351-.605.349-.607h-.7l-.348-.605-.35.606h-.7l-.35-.605.35-.607-.7.001-.35-.606.35-.606h.699l-.35-.607.35-.605h.7l.35.605.35-.605h.699l-.349-.607.349-.605h-.7l-.35-.606.35-.607h.7l-.35-.605.35-.607.7-.001.35.607.35-.607h.7l.35.605-.348.607h.7l.35.606.35-.607h.7l-.35-.607.35-.607h.699l.352.607L43.39 0h.7l.35.605-.35.607h.7l.35.607-.35.606h-.699l.35.606-.35.607h.7l.35.606.35-.606h.7l.35.606-.35.606h.7l.35.607.35-.607h.7l-.35-.605.35-.607h.7l.35.607.35-.607h.7l-.35-.607.35-.605h-.7l-.35-.607.35-.605.7-.002-.35-.605.35-.607h.7l.35.607.35-.607h.7l.35.607-.35.607.7-.002.35.607.351-.607h.7l-.35-.605.35-.607h.7l.35.607.35-.607h.7" transform="matrix(3 0 0 -3 -33.125 55.399)"/></g><path style="stroke:none;fill-rule:nonzero;fill:#00f;fill-opacity:.2" d="M58.152.973h-6.804v6.804h6.804ZM37.742 63.902h34.016V29.887H37.742Zm0 0"/><g clip-path="url(#b)"><path style="fill:none;stroke-width:.3985;stroke-linecap:butt;stroke-linejoin:miter;stroke:#000;stroke-opacity:1;stroke-miterlimit:10" d="M0 0h.7l.35.606L1.4 0h.7l.35.606-.35.606h.7l.35.606.348-.606h.7l-.35-.606.35-.606h.7l.35.606.35-.606h.7l.35.606-.35.606h.7l.35.606-.35.606h-.7l.35.606-.35.607h.7l.35.606.35-.606h.7l.35.605-.35.606h.7l.35.607.35-.606h.699l-.35-.606.35-.606h.7l.35.606.35-.606h.7l-.35-.607.349-.606h-.7l-.35-.605.35-.607h.7l-.35-.606.35-.606h.7l.35.606.35-.606h.7l.35.606-.35.606h.7l.35.607.35-.607h.7l-.35-.606.35-.606h.7l.35.606.35-.606h.7l.35.606-.35.606h.7l.35.606-.35.605h-.7l.35.607-.35.606.7-.001.35.606.35-.606h.698l.35.606-.35.606h.7l.35.606-.349.606h-.7l.35.606-.349.607h-.7l-.35-.607-.35.607h-.7l.35.606-.35.606h.7l.35.606-.35.606h-.7l.35.606-.35.606h.7l.35.606.35-.606h.7l.35.606-.35.606h.7l.35.606.35-.607h.698l-.35-.606.35-.606h.7l.35.606.35-.606h.7l.35.605-.35.607h.7l.35.606-.35.606h-.7l.35.606-.35.607h.7l.35.606.35-.606h.7l.35.605-.35.606h.7l.35.607.35-.606h.699l-.35-.605.35-.605h.7l.35.606.35-.605h.698l-.349-.606.35-.605h-.7l-.348-.606.35-.605h.699l-.35-.606.35-.606h.7l.35.606.35-.606h.7l.35.606-.35.606h.7l.35.605.35-.606h.7l-.35-.605.348-.607h.7l.35.606.35-.606h.7l-.35-.606.35-.606h-.7l-.35-.606.35-.606h.699l-.35-.605.35-.607h-.7l-.35-.605-.35.606h-.699l-.35-.605.35-.607-.7.001-.35-.606.35-.606h.7l-.35-.606.349-.606h.7l.35.606.35-.606h.7l-.35-.606.349-.606h-.7l-.35-.607.35-.605.7-.001-.35-.605.35-.607h.7l.35.606.35-.607h.7l.35.605-.348.607h.7l.35.606.35-.607h.7l-.35-.607.35-.607h.7l.35.607.35-.607.7-.001.35.606-.35.606h.7l.35.607-.349.606h-.7l.35.606-.35.606h.7l.35.607.35-.607h.7l.35.607-.35.606h.7l.35.606.35-.605.7-.001-.35-.606.35-.606h.7l.35.606.35-.606h.7l-.35-.606.35-.606h-.7l-.35-.607.35-.606h.7l-.35-.606.35-.606h.7l.35.606.35-.606h.7l.35.605-.35.607h.7l.35.606.35-.606h.7l-.35-.607.35-.606h.7l.35.607.35-.607h.702" transform="matrix(5 0 0 -5 -86.984 117.76)"/></g><path style="stroke:none;fill-rule:nonzero;fill:red;fill-opacity:.2" d="M73.46 14.012H70.06v3.402h3.402ZM74.594 63.902h34.015V29.887H74.594Zm0 0"/><g clip-path="url(#c)"><path style="fill:none;stroke-width:.3985;stroke-linecap:butt;stroke-linejoin:miter;stroke:#000;stroke-opacity:1;stroke-miterlimit:10" d="M0 0h.7l.35.606L1.4 0h.699l.35.606-.35.606h.7l.35.606.35-.606h.7l-.35-.606.35-.606h.7l.35.606L5.597 0h.7l.35.606-.35.606h.7l.35.606-.35.606h-.7l.35.606-.35.607h.7l.35.606.35-.606h.7l.35.605-.35.606h.7l.35.607.35-.606h.7l-.35-.606.349-.606h.7l.35.606.35-.606h.7l-.35-.607.35-.606h-.7l-.35-.605.35-.606h.699l-.35-.607.35-.606h.7l.35.606.35-.606h.7l.35.606-.35.607h.7l.35.606.35-.606h.7l-.35-.607.35-.606h.7l.35.606.35-.606h.7l.35.606-.35.606h.7l.349.606-.35.605h-.7l.35.606-.349.607h.7l.35.605.349-.605h.7l.35.605-.35.606h.7l.35.606-.35.606h-.7l.35.606-.35.607h-.7l-.35-.607-.349.607h-.7l.35.606-.35.606h.7l.35.605-.35.607h-.7l.35.606-.35.606h.7l.35.606.35-.606h.7l.35.606-.35.606h.7l.35.605.349-.605h.7l-.35-.607.35-.606h.7l.35.606.349-.606h.7l.35.606-.35.606h.7l.35.606-.35.606h-.7l.35.606-.35.606h.7l.35.607.35-.607h.7l.35.606-.35.606h.7l.35.607.35-.605h.699l-.35-.606.35-.605h.7l.35.606.35-.605h.698l-.349-.606.35-.605h-.699l-.35-.606.35-.605h.7l-.35-.606.35-.605h.7l.35.606.35-.606h.7l.35.604-.35.607h.7l.35.605.35-.606h.699l-.35-.606.35-.606h.7l.35.606.35-.606h.7l-.35-.606.349-.606h-.7l-.35-.605.35-.607h.7l-.351-.606.35-.606h-.7l-.35-.605-.349.606h-.7l-.35-.605.35-.606h-.7l-.35-.606.35-.606h.7l-.35-.606.349-.606h.7l.35.606.35-.606h.7l-.35-.606.35-.607h-.7l-.35-.606.35-.605h.699l-.35-.607.35-.606h.7l.35.606.35-.607h.7l.351.605-.35.607h.7l.351.606.35-.607h.7l-.35-.606.35-.607h.7l.35.605.35-.606.7-.001.35.606-.35.607h.7l.35.606-.35.606h-.7l.35.606-.35.607h.7l.35.606.35-.606h.7l.35.605-.35.607h.7l.351.606.35-.606h.7l-.35-.606.35-.606h.7l.35.606.35-.606h.7l-.35-.606.35-.607h-.7l-.35-.605.35-.607h.7l-.35-.606.35-.607h.7l.35.607.35-.607h.7l.35.606-.35.607h.7l.35.607.35-.607h.7l-.35-.606.35-.607h.7l.351.607.35-.607h.7" transform="matrix(10 0 0 -10 -361.95 75.242)"/></g></svg>