<svg xmlns="http://www.w3.org/2000/svg" xmlns:xlink="http://www.w3.org/1999/xlink" width="71.187" height="16.179" viewBox="0 0 53.39 12.134" version="1.2"><defs><clipPath id="a"><path d="M0 0h53.086v11.7H0Zm0 0"/></clipPath><symbol overflow="visible" id="b"><path style="stroke:none" d="M9.328 0v-.469h-.687v-2.578c0-1.031-.516-1.437-1.547-1.437-.907 0-1.422.5-1.688.953-.187-.922-1.11-.953-1.484-.953-.875 0-1.438.453-1.766 1.078v-1.078l-1.703.078v.468c.61 0 .688 0 .688.391v3.078H.453V0l1.25-.031L2.953 0v-.469h-.687v-2.078c0-1.094.875-1.578 1.5-1.578.328 0 .546.203.546.969V-.47h-.687V0l1.266-.031L6.14 0v-.469h-.688v-2.078c0-1.094.86-1.578 1.484-1.578.344 0 .563.203.563.969V-.47h-.688V0l1.25-.031Zm0 0"/></symbol></defs><g clip-path="url(#a)"><path style="fill:none;stroke-width:.3985;stroke-linecap:butt;stroke-linejoin:miter;stroke:#bfbfbf;stroke-opacity:1;stroke-miterlimit:10" d="m.002-.001 14.172 5.672L28.345-.001l14.176 5.672" transform="matrix(1 0 0 -1 5.053 8.456)"/></g><use xlink:href="#b" x=".281" y="10.697" style="fill:#d2c92a;fill-opacity:1"/><use xlink:href="#b" x="14.454" y="5.028" style="fill:#d2c92a;fill-opacity:1"/><use xlink:href="#b" x="28.627" y="10.697" style="fill:#d2c92a;fill-opacity:1"/><use xlink:href="#b" x="42.801" y="5.028" style="fill:#d2c92a;fill-opacity:1"/></svg>