<svg xmlns="http://www.w3.org/2000/svg" width="90.611" height="52.803" viewBox="0 0 67.958 39.602" version="1.2"><defs><clipPath id="a"><path d="M0 0h67.938v39H0Zm0 0"/></clipPath><clipPath id="b"><path d="M0 0h67.938v39.402H0Zm0 0"/></clipPath></defs><g clip-path="url(#a)"><path style="fill:none;stroke-width:.19925;stroke-linecap:butt;stroke-linejoin:miter;stroke:gray;stroke-opacity:1;stroke-miterlimit:10" d="M-32.97 0h65.938M-28.35-18.795v37.593M0-18.796v37.593m28.348-37.593v37.593" transform="matrix(1 0 0 -1 33.958 19.606)"/></g><g clip-path="url(#b)"><path style="fill:none;stroke-width:.3985;stroke-linecap:butt;stroke-linejoin:miter;stroke:#000;stroke-opacity:1;stroke-miterlimit:10" d="M28.347 0c0 7.829-12.692 14.172-28.348 14.172-15.656 0-28.348-6.343-28.348-14.171 0-7.829 12.692-14.176 28.348-14.176 15.656 0 28.348 6.347 28.348 14.176Zm0 0" transform="matrix(1 0 0 -1 33.958 19.606)"/></g></svg>