<svg xmlns="http://www.w3.org/2000/svg" xmlns:xlink="http://www.w3.org/1999/xlink" width="470.427" height="409.755" viewBox="0 0 352.82 307.316" version="1.2"><defs><symbol overflow="visible" id="b"><path style="stroke:none" d="M8.14-3.36c0-2.187-1.484-3.484-3.468-3.484H.39v.469h1.078v5.906H.39V0h4.296c1.97 0 3.454-1.219 3.454-3.36Zm-1.468-.015c0 1.094-.11 1.625-.438 2.063-.468.687-1.343.843-1.953.843H2.828v-5.906h1.453c.657 0 1.485.188 1.969.89.344.516.422 1.188.422 2.11Zm0 0"/></symbol><symbol overflow="visible" id="c"><path style="stroke:none" d="M2.844 0v-.469h-.61v-4.015L.5-4.406v.468c.594 0 .656 0 .656.391v3.078H.47V0l1.219-.031Zm-.469-6.047a.774.774 0 0 0-.781-.781.784.784 0 0 0-.782.781c0 .422.36.766.782.766a.77.77 0 0 0 .781-.766Zm0 0"/></symbol><symbol overflow="visible" id="d"><path style="stroke:none" d="M5.516-.234c0-.235-.125-.235-.266-.235-.61-.015-.61-.14-.61-.375v-2.14c0-.891-.702-1.532-2.187-1.532-.562 0-1.781.047-1.781.922 0 .438.344.625.61.625.312 0 .624-.219.624-.625 0-.297-.187-.469-.218-.5a5.28 5.28 0 0 1 .718-.062c.75 0 1.11.422 1.11 1.172v.343c-.72.032-3.25.125-3.25 1.563C.266-.125 1.5.062 2.187.062c.797 0 1.266-.406 1.485-.828 0 .313 0 .766 1.047.766h.468c.204 0 .329 0 .329-.234Zm-2-1.157c0 .97-.922 1.094-1.172 1.094-.516 0-.906-.344-.906-.797 0-1.062 1.578-1.203 2.078-1.234Zm0 0"/></symbol><symbol overflow="visible" id="e"><path style="stroke:none" d="M9.328 0v-.469h-.687v-2.578c0-1.031-.516-1.437-1.547-1.437-.907 0-1.422.5-1.688.953-.187-.922-1.11-.953-1.484-.953-.875 0-1.438.453-1.766 1.078v-1.078l-1.703.078v.468c.61 0 .688 0 .688.391v3.078H.453V0l1.25-.031L2.953 0v-.469h-.687v-2.078c0-1.094.875-1.578 1.5-1.578.328 0 .546.203.546.969V-.47h-.687V0l1.266-.031L6.14 0v-.469h-.688v-2.078c0-1.094.86-1.578 1.484-1.578.344 0 .563.203.563.969V-.47h-.688V0l1.25-.031Zm0 0"/></symbol><symbol overflow="visible" id="f"><path style="stroke:none" d="M5.406-2.172c0-1.344-.922-2.344-2.547-2.344C1.22-4.516.313-3.5.313-2.172c0 1.235.89 2.235 2.546 2.235 1.672 0 2.547-1.016 2.547-2.235Zm-1.281-.11c0 .86 0 1.938-1.266 1.938-1.265 0-1.265-1.078-1.265-1.937 0-.453 0-.953.172-1.297.187-.375.609-.578 1.093-.578.422 0 .844.156 1.063.5.203.344.203.89.203 1.375Zm0 0"/></symbol><symbol overflow="visible" id="g"><path style="stroke:none" d="M6.125 0v-.469h-.688v-2.578c0-1.047-.53-1.437-1.53-1.437-.954 0-1.485.562-1.75 1.078v-1.078l-1.704.078v.468c.61 0 .688 0 .688.391v3.078H.453V0l1.25-.031L2.953 0v-.469h-.687v-2.078c0-1.094.859-1.578 1.5-1.578.328 0 .546.203.546.969V-.47h-.687V0l1.25-.031Zm0 0"/></symbol><symbol overflow="visible" id="h"><path style="stroke:none" d="M5.984 0v-.469c-.609 0-.687 0-.687-.39v-6.063l-1.766.078v.469c.625 0 .703 0 .703.39v1.954a2.178 2.178 0 0 0-1.359-.453c-1.453 0-2.5.875-2.5 2.28 0 1.313.922 2.267 2.39 2.267.61 0 1.094-.235 1.407-.485v.484ZM4.172-1.031c-.14.187-.547.734-1.297.734-1.219 0-1.219-1.203-1.219-1.906 0-.485 0-1.016.25-1.406.297-.422.766-.516 1.078-.516.563 0 .97.313 1.188.61Zm0 0"/></symbol><symbol overflow="visible" id="i"><path style="stroke:none" d="M3.078.313c0-.126-.047-.157-.187-.25C2.062-.5 1.75-1.391 1.75-2.126c0-.672.25-1.594 1.156-2.203.125-.094.172-.125.172-.25a.254.254 0 0 0-.265-.25c-.204 0-1.641.906-1.641 2.703 0 .813.312 1.438.562 1.781.375.516.907.906 1.079.906.218 0 .265-.171.265-.25Zm0 0"/></symbol><symbol overflow="visible" id="j"><path style="stroke:none" d="M3.219-.906c0-.735-.906-.906-1.14-.938l-.704-.125C1.187-2 1-2.079 1-2.25c0-.156.219-.328.813-.328.515 0 .609.172.625.328.015.14.03.281.28.281.298 0 .298-.156.298-.328v-.469c0-.14-.016-.328-.25-.328-.157 0-.22.063-.25.125-.282-.125-.563-.125-.688-.125-1.187 0-1.344.594-1.344.844 0 .656.735.797 1.391.89.297.063.828.141.828.454 0 .234-.25.422-.828.422-.297 0-.656-.063-.813-.563-.03-.156-.078-.234-.28-.234-.298 0-.298.172-.298.328v.656c0 .14 0 .344.25.344.079 0 .188 0 .282-.234.328.218.671.234.859.234 1.125 0 1.344-.61 1.344-.953Zm0 0"/></symbol><symbol overflow="visible" id="k"><path style="stroke:none" d="M2.313-.469a.477.477 0 0 0-.485-.484.47.47 0 0 0-.469.469c0 .28.22.484.47.484a.473.473 0 0 0 .484-.469Zm0 0"/></symbol><symbol overflow="visible" id="l"><path style="stroke:none" d="M3.578-.266c0-.25-.203-.25-.328-.25H3v-1.53c0-.72-.36-1.032-.938-1.032-.39 0-.671.172-.843.297 0-.172-.047-.25-.313-.25h-.5c-.14 0-.328 0-.328.25 0 .265.203.265.313.265h.25v2H.406c-.14 0-.328 0-.328.25C.078 0 .281 0 .391 0h1.093c.11 0 .329 0 .329-.266 0-.25-.204-.25-.344-.25h-.25v-1.156c0-.64.484-.875.797-.875.328 0 .406.172.406.547v1.484h-.203c-.14 0-.344 0-.344.25 0 .266.219.266.344.266H3.25c.11 0 .328 0 .328-.266Zm0 0"/></symbol><symbol overflow="visible" id="m"><path style="stroke:none" d="M3.281-1.516c0-.89-.672-1.578-1.453-1.578-.797 0-1.453.688-1.453 1.578 0 .891.672 1.563 1.453 1.563.766 0 1.453-.688 1.453-1.563Zm-.578-.046c0 .593-.406 1.078-.875 1.078S.953-.97.953-1.563c0-.593.422-1.015.875-1.015s.875.422.875 1.015Zm0 0"/></symbol><symbol overflow="visible" id="n"><path style="stroke:none" d="M3.406-2.594c0-.156-.078-.484-.703-.484-.328 0-.734.11-1.094.469v-.094c0-.25-.046-.328-.328-.328h-.75c-.125 0-.328 0-.328.25 0 .265.203.265.328.265h.5v2h-.5c-.125 0-.328 0-.328.25C.203 0 .406 0 .531 0h1.781c.126 0 .329 0 .329-.266 0-.25-.204-.25-.329-.25H1.61v-.796c0-.61.36-1.22 1.11-1.235 0 .156.172.281.344.281.187 0 .343-.125.343-.328Zm0 0"/></symbol><symbol overflow="visible" id="o"><path style="stroke:none" d="M3.14-.906c0-.156 0-.313-.296-.313-.266 0-.266.157-.266.297-.015.375-.36.438-.515.438-.454 0-.454-.313-.454-.47v-1.562h1.047c.125 0 .328 0 .328-.265 0-.25-.187-.25-.328-.25H1.61v-.516c0-.14-.015-.328-.296-.328-.282 0-.282.172-.282.328v.516H.484c-.125 0-.328 0-.328.25 0 .265.203.265.328.265h.547v1.61c0 .687.485.953 1.016.953S3.14-.266 3.14-.906Zm0 0"/></symbol><symbol overflow="visible" id="p"><path style="stroke:none" d="M3.578-.266c0-.25-.203-.25-.328-.25H3v-1.53c0-.72-.36-1.032-.938-1.032-.39 0-.671.172-.843.297v-1.14c0-.25-.047-.345-.313-.345h-.5c-.14 0-.328.016-.328.266s.203.266.313.266h.25v3.218H.406c-.14 0-.328 0-.328.25C.078 0 .281 0 .391 0h1.093c.11 0 .329 0 .329-.266 0-.25-.204-.25-.344-.25h-.25v-1.156c0-.64.484-.875.797-.875.328 0 .406.172.406.547v1.484h-.203c-.14 0-.344 0-.344.25 0 .266.219.266.344.266H3.25c.11 0 .328 0 .328-.266Zm0 0"/></symbol><symbol overflow="visible" id="q"><path style="stroke:none" d="M3.547-2.781c0-.25-.188-.25-.328-.25h-.781c-.157 0-.344 0-.344.25 0 .265.172.265.344.265h.265l-.297 1.72-.14-.532c-.125-.469-.172-.547-.422-.547-.094 0-.235 0-.328.188l-.266.906-.297-1.735h.266c.156 0 .343 0 .343-.265 0-.25-.187-.25-.343-.25H.437c-.14 0-.343 0-.343.25 0 .234.14.265.36.265L.858-.28c.032.187.047.312.36.312.312 0 .343-.062.453-.515l.172-.641.265 1c.094.14.235.156.344.156.281 0 .313-.125.344-.312l.406-2.235c.219 0 .344-.03.344-.265Zm0 0"/></symbol><symbol overflow="visible" id="r"><path style="stroke:none" d="M3.25-.797c0-.234-.234-.234-.281-.234-.156 0-.219.015-.281.172-.141.328-.485.375-.657.375-.469 0-.937-.297-1.062-.813h1.953c.172 0 .328 0 .328-.312 0-.797-.453-1.485-1.375-1.485-.828 0-1.516.703-1.516 1.563S1.08.047 1.984.047c.938 0 1.266-.656 1.266-.844Zm-.594-1.015H.97c.125-.438.484-.766.906-.766.328 0 .703.156.781.765Zm0 0"/></symbol><symbol overflow="visible" id="s"><path style="stroke:none" d="M2.484-2.125c0-.828-.312-1.453-.562-1.797-.375-.515-.906-.906-1.078-.906-.203 0-.266.187-.266.25 0 .125.094.187.14.219 1.095.718 1.188 1.796 1.188 2.234 0 .656-.25 1.578-1.14 2.188C.64.14.578.186.578.313c0 .078.063.25.266.25s1.64-.907 1.64-2.688Zm0 0"/></symbol><symbol overflow="visible" id="t"><path style="stroke:none" d="M3.625-.266c0-.25-.203-.25-.328-.25-.203 0-.297-.03-.344-.046V-2c0-.5-.375-1.094-1.406-1.094-.313 0-1.031.016-1.031.547 0 .235.171.36.359.36.11 0 .344-.063.344-.36 0 0 .234-.031.343-.031.454 0 .782.187.813.594-1.219.03-2.047.39-2.047 1.062 0 .485.453.969 1.188.969.234 0 .656-.047.968-.25.172.187.485.203.75.203.235 0 .391-.016.391-.266ZM2.359-.969c0 .14 0 .266-.234.375-.234.11-.516.11-.578.11-.39 0-.64-.204-.64-.438 0-.312.546-.515 1.452-.562Zm0 0"/></symbol><symbol overflow="visible" id="u"><path style="stroke:none" d="M3.266-.797c0-.234-.235-.234-.297-.234-.125 0-.203 0-.266.172-.047.078-.187.375-.625.375a1.027 1.027 0 0 1-1.015-1.032c0-.312.187-1.062 1.062-1.062l.344.015c.015.282.172.376.36.376.187 0 .358-.126.358-.36 0-.531-.734-.547-1.062-.547-1.219 0-1.64.953-1.64 1.578 0 .844.671 1.563 1.546 1.563 1 0 1.235-.719 1.235-.844Zm0 0"/></symbol><symbol overflow="visible" id="v"><path style="stroke:none" d="M3.64-.266c0-.218-.14-.25-.39-.25v-1.593c0-.157-.016-.97-.656-.97a.842.842 0 0 0-.656.313.61.61 0 0 0-.532-.312.875.875 0 0 0-.547.203c-.046-.156-.187-.156-.312-.156H.328c-.125 0-.328 0-.328.25 0 .234.125.265.39.265v2c-.265 0-.39.032-.39.25C0 0 .219 0 .328 0h.594c.125 0 .312 0 .312-.266 0-.218-.109-.25-.359-.25v-1.171c0-.563.234-.86.5-.86.14 0 .203.11.203.5v1.531c-.156 0-.281.032-.281.25 0 .266.187.266.312.266h.516c.125 0 .313 0 .313-.266 0-.218-.126-.25-.376-.25v-1.171c0-.563.25-.86.5-.86.141 0 .204.11.204.5v1.531c-.141 0-.282.032-.282.25 0 .266.204.266.313.266h.5c.125 0 .344 0 .344-.266Zm0 0"/></symbol><symbol overflow="visible" id="w"><path style="stroke:none" d="M3.188-.266c0-.25-.204-.25-.329-.25h-.656v-2.187c0-.25-.047-.328-.328-.328H.906c-.125 0-.328 0-.328.25 0 .265.203.265.328.265h.719v2H.859c-.14 0-.343 0-.343.25C.516 0 .734 0 .859 0h2c.125 0 .329 0 .329-.266Zm-.954-3.562a.39.39 0 0 0-.406-.39.387.387 0 0 0-.39.39c0 .219.171.39.39.39a.39.39 0 0 0 .406-.39Zm0 0"/></symbol><symbol overflow="visible" id="x"><path style="stroke:none" d="M3.578-.266c0-.25-.203-.25-.328-.25H3v-3.406c0-.25-.047-.344-.328-.344h-.485c-.14 0-.343.016-.343.266s.218.266.328.266h.25v.906a1.261 1.261 0 0 0-.735-.25c-.765 0-1.453.672-1.453 1.562C.234-.64.875.047 1.625.047c.344 0 .61-.14.797-.313.015.188.062.266.328.266h.5c.125 0 .328 0 .328-.266ZM2.422-1.375c0 .36-.297.89-.781.89-.454 0-.829-.453-.829-1.03 0-.61.438-1.032.891-1.032.406 0 .719.344.719.688Zm0 0"/></symbol><symbol overflow="visible" id="y"><path style="stroke:none" d="M3.422-1.516c0-.875-.64-1.562-1.39-1.562-.298 0-.579.11-.813.265v-1.109c0-.25-.047-.344-.313-.344h-.5c-.14 0-.344.016-.344.266s.22.266.329.266h.25v3.406C.64-.172.656 0 .937 0c.22 0 .282-.094.282-.234.265.218.531.28.734.28.766 0 1.469-.671 1.469-1.562Zm-.578 0c0 .61-.453 1.032-.906 1.032-.485 0-.704-.563-.704-.875v-.485c0-.375.375-.703.766-.703.469 0 .844.469.844 1.031Zm0 0"/></symbol><symbol overflow="visible" id="z"><path style="stroke:none" d="M3.578-.266c0-.25-.219-.25-.328-.25H3v-2.187c0-.25-.047-.328-.328-.328h-.485c-.14 0-.343 0-.343.25 0 .265.218.265.328.265h.25v1.391c0 .563-.516.64-.719.64-.469 0-.484-.187-.484-.39v-1.828c0-.25-.047-.328-.313-.328h-.5c-.14 0-.328 0-.328.25 0 .265.203.265.313.265h.25v1.688c0 .687.5.875 1.03.875.266 0 .516-.063.766-.219C2.485 0 2.626 0 2.75 0h.5c.125 0 .328 0 .328-.266Zm0 0"/></symbol><symbol overflow="visible" id="A"><path style="stroke:none" d="M3.469-.266c0-.25-.203-.25-.328-.25h-.25l-.829-1.046.735-.954h.234c.125 0 .344 0 .344-.265 0-.25-.219-.25-.344-.25H2.25c-.125 0-.328 0-.328.25 0 .203.11.265.281.265l-.39.547-.422-.547c.156 0 .28-.062.28-.265 0-.25-.202-.25-.327-.25H.547c-.125 0-.328 0-.328.25 0 .265.218.265.328.265h.25l.75.954L.75-.516H.516c-.125 0-.344 0-.344.25C.172 0 .39 0 .516 0h.78c.126 0 .329 0 .329-.266 0-.203-.11-.25-.297-.25l.484-.703.5.703c-.187 0-.296.047-.296.25 0 .266.203.266.328.266h.797c.109 0 .328 0 .328-.266Zm0 0"/></symbol><symbol overflow="visible" id="B"><path style="stroke:none" d="M3.094-.266c0-.25-.188-.25-.313-.25H2.22V-4c0-.125-.016-.328-.266-.328-.156 0-.219.094-.25.187-.234.547-.578.625-.687.641-.141 0-.313.031-.313.266 0 .203.156.25.281.25.125 0 .375-.032.657-.235v2.703h-.563c-.14 0-.328 0-.328.25C.75 0 .953 0 1.078 0h1.703c.125 0 .313 0 .313-.266Zm0 0"/></symbol><symbol overflow="visible" id="C"><path style="stroke:none" d="M3.313-2.125c0-1.297-.72-2.203-1.485-2.203-.781 0-1.5.922-1.5 2.203 0 1.297.734 2.203 1.5 2.203.781 0 1.484-.922 1.484-2.203Zm-.563-.078c0 .969-.422 1.75-.922 1.75-.516 0-.922-.781-.922-1.75 0-.953.438-1.61.922-1.61.469 0 .922.657.922 1.61Zm0 0"/></symbol><symbol overflow="visible" id="D"><path style="stroke:none" d="M3.36-1.234c0-.47-.297-.875-.72-1.094.344-.25.516-.64.516-1 0-.516-.515-1-1.328-1-.86 0-1.344.36-1.344.844 0 .265.204.375.36.375.172 0 .36-.141.36-.36 0-.078-.032-.14-.048-.172.203-.171.625-.171.688-.171.422 0 .734.218.734.5a.718.718 0 0 1-.25.546c-.219.172-.375.188-.61.188-.437 0-.546.062-.546.281 0 .266.203.266.328.266h.313c.64 0 .968.422.968.797 0 .39-.36.78-.937.78-.25 0-.719-.062-.907-.327A.364.364 0 0 0 1-1a.363.363 0 0 0-.36-.36c-.171 0-.343.126-.343.391C.297-.344.969.078 1.844.078c.922 0 1.515-.656 1.515-1.312Zm0 0"/></symbol><clipPath id="a"><path d="M0 0h352.73v306.973H0Zm0 0"/></clipPath></defs><path style="stroke:none;fill-rule:nonzero;fill:#fffbb3;fill-opacity:1" d="m310.078 153.305-133.75-133.75-133.75 133.75 133.75 133.75Zm0 0"/><g clip-path="url(#a)"><path style="fill:none;stroke-width:14.17339;stroke-linecap:butt;stroke-linejoin:miter;stroke:#b2b2b2;stroke-opacity:1;stroke-miterlimit:10" d="M133.75 0 0 133.75-133.75 0 0-133.75Zm0 0" transform="matrix(1 0 0 -1 176.329 153.304)"/></g><g style="fill:#b2b2b2;fill-opacity:1"><use xlink:href="#b" x="153.061" y="181.621"/><use xlink:href="#c" x="161.848" y="181.621"/><use xlink:href="#d" x="165.026" y="181.621"/><use xlink:href="#e" x="170.595" y="181.621"/><use xlink:href="#f" x="180.139" y="181.621"/><use xlink:href="#g" x="185.868" y="181.621"/><use xlink:href="#h" x="192.234" y="181.621"/></g><path style="fill:none;stroke-width:.996;stroke-linecap:butt;stroke-linejoin:miter;stroke:#b2b2b2;stroke-opacity:1;stroke-miterlimit:10" d="M0 0v56.754" transform="matrix(1 0 0 -1 199.098 181.68)"/><path style="fill:none;stroke-width:.3985;stroke-linecap:butt;stroke-linejoin:miter;stroke:#000;stroke-opacity:1;stroke-miterlimit:10" d="m-73.294 70.476 2.817 2.82m-2.817 0 2.817-2.82" transform="matrix(1 0 0 -1 176.329 153.304)"/><g style="fill:#000;fill-opacity:1"><use xlink:href="#i" x="49.666" y="77.341"/><use xlink:href="#j" x="53.327" y="77.341"/><use xlink:href="#k" x="56.989" y="77.341"/><use xlink:href="#l" x="60.65" y="77.341"/><use xlink:href="#m" x="64.311" y="77.341"/><use xlink:href="#n" x="67.972" y="77.341"/><use xlink:href="#o" x="71.634" y="77.341"/><use xlink:href="#p" x="75.295" y="77.341"/></g><g style="fill:#000;fill-opacity:1"><use xlink:href="#q" x="82.617" y="77.341"/><use xlink:href="#r" x="86.279" y="77.341"/><use xlink:href="#j" x="89.94" y="77.341"/><use xlink:href="#o" x="93.601" y="77.341"/><use xlink:href="#s" x="97.263" y="77.341"/></g><path style="fill:none;stroke-width:.3985;stroke-linecap:butt;stroke-linejoin:miter;stroke:#000;stroke-opacity:1;stroke-miterlimit:10" d="m-1.407 142.363 2.816 2.816m-2.816 0 2.816-2.816" transform="matrix(1 0 0 -1 176.329 153.304)"/><g style="fill:#000;fill-opacity:1"><use xlink:href="#i" x="159.853" y="5.456"/><use xlink:href="#j" x="163.514" y="5.456"/><use xlink:href="#k" x="167.176" y="5.456"/><use xlink:href="#l" x="170.837" y="5.456"/><use xlink:href="#m" x="174.498" y="5.456"/><use xlink:href="#n" x="178.159" y="5.456"/><use xlink:href="#o" x="181.821" y="5.456"/><use xlink:href="#p" x="185.482" y="5.456"/><use xlink:href="#s" x="189.143" y="5.456"/></g><path style="fill:none;stroke-width:.3985;stroke-linecap:butt;stroke-linejoin:miter;stroke:#000;stroke-opacity:1;stroke-miterlimit:10" d="m70.476 70.476 2.82 2.82m-2.82 0 2.82-2.82" transform="matrix(1 0 0 -1 176.329 153.304)"/><g style="fill:#000;fill-opacity:1"><use xlink:href="#i" x="251.733" y="77.341"/><use xlink:href="#j" x="255.394" y="77.341"/><use xlink:href="#k" x="259.056" y="77.341"/><use xlink:href="#l" x="262.717" y="77.341"/><use xlink:href="#m" x="266.378" y="77.341"/><use xlink:href="#n" x="270.039" y="77.341"/><use xlink:href="#o" x="273.701" y="77.341"/><use xlink:href="#p" x="277.362" y="77.341"/></g><g style="fill:#000;fill-opacity:1"><use xlink:href="#r" x="284.684" y="77.341"/><use xlink:href="#t" x="288.346" y="77.341"/><use xlink:href="#j" x="292.007" y="77.341"/><use xlink:href="#o" x="295.668" y="77.341"/><use xlink:href="#s" x="299.33" y="77.341"/></g><path style="fill:none;stroke-width:.3985;stroke-linecap:butt;stroke-linejoin:miter;stroke:#000;stroke-opacity:1;stroke-miterlimit:10" d="m-145.18-1.41 2.816 2.82m-2.817 0 2.817-2.82" transform="matrix(1 0 0 -1 176.329 153.304)"/><g style="fill:#000;fill-opacity:1"><use xlink:href="#i" x="-.251" y="155.438"/><use xlink:href="#j" x="3.41" y="155.438"/><use xlink:href="#k" x="7.072" y="155.438"/><use xlink:href="#q" x="10.733" y="155.438"/><use xlink:href="#r" x="14.394" y="155.438"/><use xlink:href="#j" x="18.055" y="155.438"/><use xlink:href="#o" x="21.717" y="155.438"/><use xlink:href="#s" x="25.378" y="155.438"/></g><path style="fill:none;stroke-width:.3985;stroke-linecap:butt;stroke-linejoin:miter;stroke:#000;stroke-opacity:1;stroke-miterlimit:10" d="m-1.407-1.41 2.816 2.82m-2.816 0 2.816-2.82" transform="matrix(1 0 0 -1 176.329 153.304)"/><g style="fill:#000;fill-opacity:1"><use xlink:href="#i" x="158.022" y="149.226"/><use xlink:href="#j" x="161.683" y="149.226"/><use xlink:href="#k" x="165.345" y="149.226"/><use xlink:href="#u" x="169.006" y="149.226"/><use xlink:href="#r" x="172.667" y="149.226"/><use xlink:href="#l" x="176.328" y="149.226"/><use xlink:href="#o" x="179.99" y="149.226"/><use xlink:href="#r" x="183.651" y="149.226"/><use xlink:href="#n" x="187.312" y="149.226"/><use xlink:href="#s" x="190.973" y="149.226"/></g><path style="fill:none;stroke-width:.3985;stroke-linecap:butt;stroke-linejoin:miter;stroke:#000;stroke-opacity:1;stroke-miterlimit:10" d="m142.362-1.41 2.82 2.82m-2.82 0 2.82-2.82" transform="matrix(1 0 0 -1 176.329 153.304)"/><g style="fill:#000;fill-opacity:1"><use xlink:href="#i" x="323.618" y="155.438"/><use xlink:href="#j" x="327.279" y="155.438"/><use xlink:href="#k" x="330.941" y="155.438"/><use xlink:href="#r" x="334.602" y="155.438"/><use xlink:href="#t" x="338.263" y="155.438"/><use xlink:href="#j" x="341.924" y="155.438"/><use xlink:href="#o" x="345.586" y="155.438"/><use xlink:href="#s" x="349.247" y="155.438"/></g><path style="fill:none;stroke-width:.3985;stroke-linecap:butt;stroke-linejoin:miter;stroke:#000;stroke-opacity:1;stroke-miterlimit:10" d="m-1.407-27.512 2.816 2.816m-2.816 0 2.816-2.816" transform="matrix(1 0 0 -1 176.329 153.304)"/><g style="fill:#000;fill-opacity:1"><use xlink:href="#i" x="163.514" y="175.331"/><use xlink:href="#j" x="167.175" y="175.331"/><use xlink:href="#k" x="170.837" y="175.331"/><use xlink:href="#v" x="174.498" y="175.331"/><use xlink:href="#w" x="178.159" y="175.331"/><use xlink:href="#x" x="181.82" y="175.331"/><use xlink:href="#s" x="185.482" y="175.331"/></g><path style="fill:none;stroke-width:.3985;stroke-linecap:butt;stroke-linejoin:miter;stroke:#000;stroke-opacity:1;stroke-miterlimit:10" d="m-1.407-29.727 2.816 2.82m-2.816 0 2.816-2.82" transform="matrix(1 0 0 -1 176.329 153.304)"/><g style="fill:#000;fill-opacity:1"><use xlink:href="#i" x="161.683" y="189.966"/><use xlink:href="#j" x="165.344" y="189.966"/><use xlink:href="#k" x="169.006" y="189.966"/><use xlink:href="#y" x="172.667" y="189.966"/><use xlink:href="#t" x="176.328" y="189.966"/><use xlink:href="#j" x="179.989" y="189.966"/><use xlink:href="#r" x="183.651" y="189.966"/><use xlink:href="#s" x="187.312" y="189.966"/></g><path style="fill:none;stroke-width:.3985;stroke-linecap:butt;stroke-linejoin:miter;stroke:#000;stroke-opacity:1;stroke-miterlimit:10" d="m-73.294-73.294 2.817 2.817m-2.817 0 2.817-2.817" transform="matrix(1 0 0 -1 176.329 153.304)"/><g style="fill:#000;fill-opacity:1"><use xlink:href="#i" x="49.666" y="233.535"/><use xlink:href="#j" x="53.327" y="233.535"/><use xlink:href="#k" x="56.989" y="233.535"/><use xlink:href="#j" x="60.65" y="233.535"/><use xlink:href="#m" x="64.311" y="233.535"/><use xlink:href="#z" x="67.972" y="233.535"/><use xlink:href="#o" x="71.634" y="233.535"/><use xlink:href="#p" x="75.295" y="233.535"/></g><g style="fill:#000;fill-opacity:1"><use xlink:href="#q" x="82.617" y="233.535"/><use xlink:href="#r" x="86.279" y="233.535"/><use xlink:href="#j" x="89.94" y="233.535"/><use xlink:href="#o" x="93.601" y="233.535"/><use xlink:href="#s" x="97.263" y="233.535"/></g><path style="fill:none;stroke-width:.3985;stroke-linecap:butt;stroke-linejoin:miter;stroke:#000;stroke-opacity:1;stroke-miterlimit:10" d="m-1.407-145.18 2.816 2.816m-2.816 0 2.816-2.816" transform="matrix(1 0 0 -1 176.329 153.304)"/><g style="fill:#000;fill-opacity:1"><use xlink:href="#i" x="159.853" y="305.42"/><use xlink:href="#j" x="163.514" y="305.42"/><use xlink:href="#k" x="167.176" y="305.42"/><use xlink:href="#j" x="170.837" y="305.42"/><use xlink:href="#m" x="174.498" y="305.42"/><use xlink:href="#z" x="178.159" y="305.42"/><use xlink:href="#o" x="181.821" y="305.42"/><use xlink:href="#p" x="185.482" y="305.42"/><use xlink:href="#s" x="189.143" y="305.42"/></g><path style="fill:none;stroke-width:.3985;stroke-linecap:butt;stroke-linejoin:miter;stroke:#000;stroke-opacity:1;stroke-miterlimit:10" d="m70.476-73.294 2.82 2.817m-2.82 0 2.82-2.817" transform="matrix(1 0 0 -1 176.329 153.304)"/><g style="fill:#000;fill-opacity:1"><use xlink:href="#i" x="251.733" y="233.535"/><use xlink:href="#j" x="255.394" y="233.535"/><use xlink:href="#k" x="259.056" y="233.535"/><use xlink:href="#j" x="262.717" y="233.535"/><use xlink:href="#m" x="266.378" y="233.535"/><use xlink:href="#z" x="270.039" y="233.535"/><use xlink:href="#o" x="273.701" y="233.535"/><use xlink:href="#p" x="277.362" y="233.535"/></g><g style="fill:#000;fill-opacity:1"><use xlink:href="#r" x="284.684" y="233.535"/><use xlink:href="#t" x="288.346" y="233.535"/><use xlink:href="#j" x="292.007" y="233.535"/><use xlink:href="#o" x="295.668" y="233.535"/><use xlink:href="#s" x="299.33" y="233.535"/></g><path style="fill:none;stroke-width:.3985;stroke-linecap:butt;stroke-linejoin:miter;stroke:#000;stroke-opacity:1;stroke-miterlimit:10" d="m-24.677-29.727 2.817 2.82m-2.817 0 2.817-2.82" transform="matrix(1 0 0 -1 176.329 153.304)"/><g style="fill:#000;fill-opacity:1"><use xlink:href="#i" x="120.251" y="183.755"/><use xlink:href="#j" x="123.912" y="183.755"/><use xlink:href="#k" x="127.574" y="183.755"/><use xlink:href="#o" x="131.235" y="183.755"/><use xlink:href="#r" x="134.896" y="183.755"/><use xlink:href="#A" x="138.557" y="183.755"/><use xlink:href="#o" x="142.219" y="183.755"/><use xlink:href="#s" x="145.88" y="183.755"/></g><path style="fill:none;stroke-width:.3985;stroke-linecap:butt;stroke-linejoin:miter;stroke:#000;stroke-opacity:1;stroke-miterlimit:10" d="m120.82 20.144 2.82 2.816m-2.82 0 2.82-2.816" transform="matrix(1 0 0 -1 176.329 153.304)"/><g style="fill:#000;fill-opacity:1"><use xlink:href="#i" x="302.076" y="133.887"/><use xlink:href="#j" x="305.737" y="133.887"/><use xlink:href="#k" x="309.399" y="133.887"/><use xlink:href="#B" x="313.06" y="133.887"/><use xlink:href="#C" x="316.721" y="133.887"/><use xlink:href="#s" x="320.382" y="133.887"/></g><path style="fill:none;stroke-width:.3985;stroke-linecap:butt;stroke-linejoin:miter;stroke:#000;stroke-opacity:1;stroke-miterlimit:10" d="m-67.009 76.769 2.817 2.82m-2.817 0 2.817-2.82" transform="matrix(1 0 0 -1 176.329 153.304)"/><g style="fill:#000;fill-opacity:1"><use xlink:href="#i" x="97.914" y="71.049"/><use xlink:href="#j" x="101.575" y="71.049"/><use xlink:href="#k" x="105.237" y="71.049"/><use xlink:href="#B" x="108.898" y="71.049"/><use xlink:href="#D" x="112.559" y="71.049"/><use xlink:href="#C" x="116.22" y="71.049"/><use xlink:href="#s" x="119.882" y="71.049"/></g></svg>