<svg xmlns="http://www.w3.org/2000/svg" width="405.219" height="67.395" viewBox="0 0 303.914 50.546" version="1.2"><defs><clipPath id="a"><path d="M0 0h130v50.32H0Zm0 0"/></clipPath><clipPath id="b"><path d="M31 0h184v50.32H31Zm0 0"/></clipPath><clipPath id="c"><path d="M88 0h184v50.32H88Zm0 0"/></clipPath><clipPath id="d"><path d="M159 0h144.871v50.32H159Zm0 0"/></clipPath></defs><path style="stroke:none;fill-rule:nonzero;fill:#d2c92a;fill-opacity:1" d="M2.727 32.652 31.074 4.31h28.348"/><g clip-path="url(#a)"><path style="fill:none;stroke-width:4.98138;stroke-linecap:butt;stroke-linejoin:miter;stroke:#000;stroke-opacity:1;stroke-miterlimit:10" d="m-.001.002 28.347 28.343h28.348" transform="matrix(1 0 0 -1 2.728 32.654)"/></g><path style="stroke:none;fill-rule:nonzero;fill:#d2c92a;fill-opacity:1" d="M130.29 32.652c0-7.828-6.349-14.172-14.173-14.172-7.828 0-14.176 6.344-14.176 14.172s6.348 14.176 14.176 14.176c7.824 0 14.172-6.348 14.172-14.176Zm14.17 0c0-7.828-6.343-14.172-14.17-14.172-7.83 0-14.173 6.344-14.173 14.172s6.344 14.176 14.172 14.176 14.172-6.348 14.172-14.176Zm0 0"/><g clip-path="url(#b)"><path style="fill:none;stroke-width:4.98138;stroke-linecap:butt;stroke-linejoin:miter;stroke:#000;stroke-opacity:1;stroke-miterlimit:10" d="M127.561.002c0 7.828-6.348 14.172-14.172 14.172-7.828 0-14.176-6.344-14.176-14.172s6.348-14.176 14.176-14.176c7.824 0 14.172 6.348 14.172 14.176Zm14.172 0c0 7.828-6.344 14.172-14.172 14.172S113.39 7.83 113.39.002s6.344-14.176 14.172-14.176S141.733-7.826 141.733.002Zm0 0" transform="matrix(1 0 0 -1 2.728 32.654)"/></g><path style="stroke:none;fill-rule:evenodd;fill:#d2c92a;fill-opacity:1" d="M186.98 32.652c0-7.828-6.343-14.172-14.171-14.172-7.829 0-14.172 6.344-14.172 14.172s6.343 14.176 14.172 14.176c7.828 0 14.171-6.348 14.171-14.176Zm14.176 0c0-7.828-6.347-14.172-14.176-14.172-7.824 0-14.171 6.344-14.171 14.172s6.347 14.176 14.171 14.176c7.829 0 14.176-6.348 14.176-14.176Zm0 0"/><g clip-path="url(#c)"><path style="fill:none;stroke-width:4.98138;stroke-linecap:butt;stroke-linejoin:miter;stroke:#000;stroke-opacity:1;stroke-miterlimit:10" d="M184.252.002c0 7.828-6.343 14.172-14.171 14.172-7.829 0-14.172-6.344-14.172-14.172s6.343-14.176 14.172-14.176c7.828 0 14.171 6.348 14.171 14.176Zm14.176 0c0 7.828-6.347 14.172-14.176 14.172-7.824 0-14.171-6.344-14.171-14.172s6.347-14.176 14.171-14.176c7.829 0 14.176 6.348 14.176 14.176Zm0 0" transform="matrix(1 0 0 -1 2.728 32.654)"/></g><path style="stroke:none;fill-rule:nonzero;fill:#d2c92a;fill-opacity:1" d="M229.504 32.652 257.848 4.31l28.347 28.343m14.176 0c0-7.828-6.348-14.172-14.176-14.172s-14.172 6.344-14.172 14.172 6.344 14.176 14.172 14.176 14.176-6.348 14.176-14.176Zm0 0"/><g clip-path="url(#d)"><path style="fill:none;stroke-width:4.98138;stroke-linecap:butt;stroke-linejoin:miter;stroke:#000;stroke-opacity:1;stroke-miterlimit:10" d="m226.776.002 28.344 28.343L283.467.002m14.176 0c0 7.828-6.348 14.172-14.176 14.172S269.295 7.83 269.295.002s6.344-14.176 14.172-14.176S297.643-7.826 297.643.002Zm0 0" transform="matrix(1 0 0 -1 2.728 32.654)"/></g></svg>