<svg xmlns="http://www.w3.org/2000/svg" xmlns:xlink="http://www.w3.org/1999/xlink" width="115.995" height="87.68pt" viewBox="0 0 86.996 87.68" version="1.2"><defs><symbol overflow="visible" id="b"><path style="stroke:none" d="m3-3.484-.078-.579-.39.25.077.563c.094.75-.14 1.203-.375 1.36-.484.312-.578-.407-.609-.641L1.25-5.594l1.219-.812-.063-.516-1.219.813-.265-2.11-.39.266c.14 1.11-.141 2.469-.954 3.062l.047.391.688-.469.374 3.032c.157 1.187.907.953 1.5.546.626-.406.907-1.296.813-2.093Zm0 0"/></symbol><symbol overflow="visible" id="c"><path style="stroke:none" d="M3.938-4.031c-.032-.188-.188-.078-.22-.047-.155.094-.155.14-.187.344-.11.656-.531 1.328-1.062 1.687-1.172.781-1.375-.703-1.438-1.25l2.5-1.672c.188-.11.266-.172.219-.468-.031-.344-.188-1.125-.672-1.407-.36-.187-.812-.093-1.39.282-1.329.89-1.907 2.53-1.735 3.89.188 1.5 1.156 2 2.5 1.11 1.313-.875 1.5-2.282 1.485-2.47Zm-.97-.953L.985-3.672c-.046-.422-.078-.906.032-1.375.156-.578.484-.953.718-1.11.985-.64 1.172.798 1.235 1.173Zm0 0"/></symbol><symbol overflow="visible" id="d"><path style="stroke:none" d="M4.844-3.234 4.78-3.75l-.578.39-1.672-1.28.781-2.079c.094-.234.141-.343.829-.797l-.063-.515-.766.531-.859.547.063.516c.125-.079.234-.125.328-.11-.016.078-.016.125-.047.188l-.563 1.484-.968-.719.328-.234-.063-.516-1.015.719-.907.578.063.516.594-.407 1.546 1.172-.89 2.36c-.094.297-.406.5-.797.765l.063.516.765-.531.844-.547-.063-.516c-.14.11-.312.14-.312.078 0 0 0-.015.031-.14l.656-1.735 1.094.829-.328.218.063.516 1-.703Zm0 0"/></symbol><symbol overflow="visible" id="e"><path style="stroke:none" d="M2.781-9.203c-.062-.469-.422-.766-1.078-.328C.906-9 .063-7.937.22-6.687l.14 1.125-.625.421.063.516.625-.422.484 3.875-.562.39.062.516L1.437-1c.313-.203.844-.563 1.157-.719l-.063-.515-.719.468-.484-3.875.953-.625-.062-.515-1.016.656-.14-1.125c-.157-1.219.453-1.719.671-1.86a.233.233 0 0 1 .141-.062c-.11.203-.156.453-.125.656.063.47.39.47.594.329.25-.157.484-.563.437-1.016Zm0 0"/></symbol><symbol overflow="visible" id="f"><path style="stroke:none" d="M3.813-3.938c-.032-.156-.157-.078-.235-.03-.156.109-.14.14-.172.312-.125.828-.5 1.312-.922 1.594-1.156.765-1.359-.86-1.421-1.376-.079-.624-.25-2.046.812-2.75.313-.203.438-.28.547-.312a1.06 1.06 0 0 0-.094.64c.063.485.375.485.594.344.265-.171.5-.593.437-1.046-.125-.954-1.078-.391-1.562-.063-1.5 1-1.953 2.672-1.797 3.953.188 1.485 1.11 2 2.375 1.156 1.36-.906 1.438-2.343 1.438-2.421Zm0 0"/></symbol><symbol overflow="visible" id="g"><path style="stroke:none" d="M3.25-3.844c-.063-.484-.266-.75-.61-.875-.343-.093-.64.016-1.296.282-.328.14-.875.375-.938-.141-.078-.688.688-1.203.844-1.297.625-.422.969-.297 1.094.266.047.187.047.218.219.109.203-.125.203-.172.156-.438l-.11-.89c-.015-.203-.03-.313-.171-.219-.047.016-.063.031-.36.469-.25 0-.531.11-.86.328-.25.172-1.53 1.031-1.343 2.5.047.422.25.594.453.672.36.172.703.031 1.36-.25.296-.11.921-.375 1.015.281.094.828-.656 1.328-.844 1.438-.875.593-1.187-.079-1.343-.485-.063-.125-.11-.094-.22-.015-.202.14-.202.203-.171.453L.281-.453c.031.219.047.312.203.203.047-.031.063-.047.22-.344L.89-.906c.437.094.859-.188 1.03-.313.266-.172 1.532-1.015 1.329-2.625Zm0 0"/></symbol><symbol overflow="visible" id="h"><path style="stroke:none" d="M4.563-3.328c-.032-.25-.141-.172-.25-.094-.516.313-.532.172-.563-.094L3.453-5.89c-.125-.984-.797-1.312-2.031-.484-.469.313-1.484 1.047-1.36 2.016.063.484.376.5.594.359.266-.188.5-.594.438-1.047-.047-.328-.219-.406-.25-.437.219-.204.484-.407.578-.454.625-.421.984-.156 1.094.672l.046.391c-.593.438-2.687 1.938-2.5 3.531.141 1.063 1.204.578 1.766.188.672-.438 1-1.14 1.125-1.719.047.344.11.844.969.25l.39-.25c.172-.11.282-.188.25-.453ZM2.734-3.5c.125 1.078-.625 1.734-.828 1.875-.437.281-.797.125-.86-.39-.14-1.172 1.157-2.204 1.548-2.516Zm0 0"/></symbol><symbol overflow="visible" id="i"><path style="stroke:none" d="m2.438-1.625-.063-.516-.578.391-.89-7.156-1.47 1.047.063.515c.516-.343.578-.375.64.063l.766 6.125-.578.375.063.515 1.015-.703Zm0 0"/></symbol><symbol overflow="visible" id="j"><path style="stroke:none" d="M4.203-5.406C4.016-6.906 3.11-7.5 1.75-6.61.39-5.688-.219-4.063-.031-2.58.14-1.218 1.016-.608 2.39-1.53c1.39-.922 1.984-2.532 1.812-3.875Zm-1.078.593c.11.954.266 2.157-.797 2.844-1.047.703-1.203-.5-1.312-1.453-.063-.5-.141-1.062-.047-1.531.11-.516.422-.969.828-1.25.36-.219.719-.281.969-.031.218.28.28.89.359 1.421Zm0 0"/></symbol><symbol overflow="visible" id="k"><path style="stroke:none" d="m5.094-3.39-.063-.516-.562.375-.36-2.86c-.14-1.171-.656-1.296-1.484-.75-.797.532-1.156 1.454-1.297 2.157l-.156-1.188L-.234-5.14l.062.516c.516-.344.578-.375.64.063l.423 3.421-.579.375.063.516 1.047-.719 1.031-.672-.062-.515-.563.39-.297-2.312c-.14-1.203.485-2.234 1.032-2.594.265-.172.484-.062.593.781l.375 2.985-.578.375.063.515 1.046-.718Zm0 0"/></symbol><symbol overflow="visible" id="l"><path style="stroke:none" d="M4.078-7.469c-.031-.25-.219-.547-.594-.297-.125.079-.515.375-.843 1-.157-.03-.532-.015-1.141.391C.297-5.578-.047-4.422.047-3.656c.062.453.281.812.578.875-.188.562-.188.953-.172 1.172.031.187.14.687.5.812C.86-.687.281-.03.375.656c.063.563.64 1.078 2.281-.031 1.469-.969 2.047-2.047 1.938-2.828-.032-.328-.188-.969-.797-.985-.5 0-1 .329-1.781.86-.235.14-.61.39-.641.406-.39.188-.531-.172-.563-.375-.015-.11 0-.312.047-.437.407.015.829-.25 1.047-.375 1.188-.797 1.532-1.97 1.438-2.75-.063-.516-.313-.75-.453-.829.203-.343.39-.484.484-.562a.676.676 0 0 0-.016.25c.032.281.22.375.438.234.203-.14.312-.437.281-.703ZM2.422-5.234c.062.5.156 1.25-.563 1.734-.734.484-.828-.266-.89-.766C.906-4.75.813-5.5 1.547-5.984c.719-.485.812.265.875.75ZM3.89-1.688C3.937-1.28 3.687-.5 2.609.22 1.625.89 1.141.656 1.08.156c-.095-.672.437-1.015.546-1.093l.984-.641c.25-.172 1.188-.797 1.282-.11Zm0 0"/></symbol><symbol overflow="visible" id="m"><path style="stroke:none" d="M4.672-5.781c-.172-1.469-1.078-2-2.266-1.203-.625.406-1.015 1.046-1.187 1.359l-.063-.531-1.453 1.062.063.516c.5-.344.578-.39.625.031l.703 5.578-.578.39.062.532 1.047-.75 1.031-.64L2.594.03l-.578.375-.25-2.062c.421.156.796.015 1.14-.203 1.25-.829 1.969-2.391 1.766-3.922Zm-1.078.703c.203 1.562-.313 2.531-.844 2.89-.125.079-.516.329-.953-.03-.125-.079-.125-.095-.14-.298l-.298-2.343c-.03-.204-.015-.22.094-.454.266-.671.703-1.046.89-1.171.532-.36 1.079.015 1.25 1.406Zm0 0"/></symbol><clipPath id="a"><path d="M3 78h5v9.52H3Zm0 0"/></clipPath><clipPath id="n"><path d="M81 0h5.992v8H81Zm0 0"/></clipPath></defs><g clip-path="url(#a)"><use xlink:href="#b" x="4.163" y="87.559" style="fill:#000;fill-opacity:1"/></g><use xlink:href="#c" x="12.911" y="81.727" style="fill:#000;fill-opacity:1"/><use xlink:href="#d" x="21.913" y="75.725" style="fill:#000;fill-opacity:1"/><use xlink:href="#b" x="31.956" y="69.03" style="fill:#000;fill-opacity:1"/><use xlink:href="#c" x="46.641" y="59.241" style="fill:#000;fill-opacity:1"/><use xlink:href="#e" x="56.173" y="52.885" style="fill:#000;fill-opacity:1"/><use xlink:href="#e" x="64.747" y="47.17" style="fill:#000;fill-opacity:1"/><use xlink:href="#c" x="72.821" y="41.787" style="fill:#000;fill-opacity:1"/><use xlink:href="#f" x="81.854" y="35.765" style="fill:#000;fill-opacity:1"/><use xlink:href="#b" x="1.454" y="61.019" style="fill:#000;fill-opacity:1"/><use xlink:href="#c" x="5.159" y="58.548" style="fill:#000;fill-opacity:1"/><use xlink:href="#d" x="9.527" y="55.636" style="fill:#000;fill-opacity:1"/><use xlink:href="#b" x="14.559" y="52.282" style="fill:#000;fill-opacity:1"/><use xlink:href="#c" x="21.439" y="47.695" style="fill:#000;fill-opacity:1"/><use xlink:href="#e" x="25.807" y="44.783" style="fill:#000;fill-opacity:1"/><use xlink:href="#e" x="28.716" y="42.844" style="fill:#000;fill-opacity:1"/><use xlink:href="#c" x="31.626" y="40.904" style="fill:#000;fill-opacity:1"/><use xlink:href="#f" x="35.994" y="37.992" style="fill:#000;fill-opacity:1"/><use xlink:href="#b" x="40.23" y="35.168" style="fill:#000;fill-opacity:1"/><use xlink:href="#g" x="43.935" y="32.698" style="fill:#000;fill-opacity:1"/><use xlink:href="#h" x="50.873" y="28.073" style="fill:#000;fill-opacity:1"/><use xlink:href="#i" x="55.507" y="24.984" style="fill:#000;fill-opacity:1"/><use xlink:href="#j" x="58.151" y="23.221" style="fill:#000;fill-opacity:1"/><use xlink:href="#k" x="62.917" y="20.043" style="fill:#000;fill-opacity:1"/><use xlink:href="#l" x="68.214" y="16.512" style="fill:#000;fill-opacity:1"/><use xlink:href="#m" x="76.155" y="11.218" style="fill:#000;fill-opacity:1"/><g clip-path="url(#n)"><use xlink:href="#h" x="81.451" y="7.687" style="fill:#000;fill-opacity:1"/></g></svg>