<svg xmlns="http://www.w3.org/2000/svg" xmlns:xlink="http://www.w3.org/1999/xlink" width="467.811" height="201.627" viewBox="0 0 350.858 151.22" version="1.2"><defs><symbol overflow="visible" id="b"><path style="stroke:none" d="m7.547-4.328-.203-2.406H.625L.422-4.328H.89c.093-1.125.187-1.938 1.625-1.938h.765v5.797H1.75V0c.547-.031 1.656-.031 2.234-.031.594 0 1.704 0 2.235.031v-.469H4.687v-5.797h.766c1.422 0 1.531.797 1.625 1.938Zm0 0"/></symbol><symbol overflow="visible" id="c"><path style="stroke:none" d="M4.406-3.672c0-.531-.531-.812-1.062-.812-.688 0-1.094.5-1.313 1.125v-1.125l-1.656.078v.468c.61 0 .688 0 .688.391v3.078H.375V0l1.25-.031C2-.031 2.641-.031 3 0v-.469h-.86v-1.75c0-.687.235-1.906 1.235-1.906 0 0-.188.172-.188.453 0 .406.329.61.61.61.297 0 .61-.204.61-.61Zm0 0"/></symbol><symbol overflow="visible" id="d"><path style="stroke:none" d="M5.516-.234c0-.235-.125-.235-.266-.235-.61-.015-.61-.14-.61-.375v-2.14c0-.891-.702-1.532-2.187-1.532-.562 0-1.781.047-1.781.922 0 .438.344.625.61.625.312 0 .624-.219.624-.625 0-.297-.187-.469-.218-.5a5.28 5.28 0 0 1 .718-.062c.75 0 1.11.422 1.11 1.172v.343c-.72.032-3.25.125-3.25 1.563C.266-.125 1.5.062 2.187.062c.797 0 1.266-.406 1.485-.828 0 .313 0 .766 1.047.766h.468c.204 0 .329 0 .329-.234Zm-2-1.157c0 .97-.922 1.094-1.172 1.094-.516 0-.906-.344-.906-.797 0-1.062 1.578-1.203 2.078-1.234Zm0 0"/></symbol><symbol overflow="visible" id="e"><path style="stroke:none" d="M5.984-2.219c0-1.328-.906-2.265-2.343-2.265-.75 0-1.282.312-1.5.484v-.484l-1.766.078v.468c.61 0 .688 0 .688.376v5.03H.375v.47l1.25-.032 1.25.032v-.47h-.688V-.39A2.01 2.01 0 0 0 3.47.063c1.5 0 2.515-.907 2.515-2.282Zm-1.28 0C4.703-.813 4-.297 3.358-.297c-.14 0-.609 0-1.062-.547-.11-.125-.11-.14-.11-.328v-2.11c0-.187.016-.202.157-.343.39-.406.922-.469 1.14-.469.657 0 1.22.61 1.22 1.875Zm0 0"/></symbol><symbol overflow="visible" id="f"><path style="stroke:none" d="M4.922-1.172c0-.172-.188-.172-.234-.172-.172 0-.188.047-.25.203-.204.485-.782.797-1.422.797-1.407 0-1.422-1.328-1.422-1.828h3.015c.22 0 .313 0 .313-.265 0-.313-.063-1.047-.563-1.547-.359-.36-.89-.532-1.578-.532C1.187-4.516.312-3.484.312-2.25c0 1.344 1 2.313 2.61 2.313 1.578 0 2-1.063 2-1.235ZM3.984-2.5h-2.39c.015-.39.031-.813.234-1.14.266-.391.672-.516.953-.516 1.172 0 1.188 1.312 1.203 1.656Zm0 0"/></symbol><symbol overflow="visible" id="g"><path style="stroke:none" d="M4.61-2.016h-.47C4.048-1 3.89-.406 2.579-.406h-.86L4.469-4c.095-.11.11-.125.11-.219 0-.203-.14-.203-.328-.203H.594l-.11 1.734h.47c.046-1.015.359-1.374 1.39-1.374h.844L.405-.438C.312-.329.312-.314.312-.22.313 0 .454 0 .641 0h3.78Zm0 0"/></symbol><symbol overflow="visible" id="h"><path style="stroke:none" d="M2.844 0v-.469h-.61v-4.015L.5-4.406v.468c.594 0 .656 0 .656.391v3.078H.47V0l1.219-.031Zm-.469-6.047a.774.774 0 0 0-.781-.781.784.784 0 0 0-.782.781c0 .422.36.766.782.766a.77.77 0 0 0 .781-.766Zm0 0"/></symbol><symbol overflow="visible" id="i"><path style="stroke:none" d="M6.125 0v-.469c-.61 0-.688 0-.688-.39v-3.625l-1.812.078v.468c.61 0 .688 0 .688.391v1.906c0 .813-.516 1.344-1.235 1.344-.781 0-.812-.25-.812-.797v-3.39l-1.813.078v.468c.61 0 .688 0 .688.391v2.328c0 1.063.796 1.282 1.796 1.282.25 0 .97 0 1.422-.782v.781Zm0 0"/></symbol><symbol overflow="visible" id="j"><path style="stroke:none" d="M9.328 0v-.469h-.687v-2.578c0-1.031-.516-1.437-1.547-1.437-.907 0-1.422.5-1.688.953-.187-.922-1.11-.953-1.484-.953-.875 0-1.438.453-1.766 1.078v-1.078l-1.703.078v.468c.61 0 .688 0 .688.391v3.078H.453V0l1.25-.031L2.953 0v-.469h-.687v-2.078c0-1.094.875-1.578 1.5-1.578.328 0 .546.203.546.969V-.47h-.687V0l1.266-.031L6.14 0v-.469h-.688v-2.078c0-1.094.86-1.578 1.484-1.578.344 0 .563.203.563.969V-.47h-.688V0l1.25-.031Zm0 0"/></symbol><symbol overflow="visible" id="k"><path style="stroke:none" d="M3.078.313c0-.126-.047-.157-.187-.25C2.062-.5 1.75-1.391 1.75-2.126c0-.672.25-1.594 1.156-2.203.125-.094.172-.125.172-.25a.254.254 0 0 0-.265-.25c-.204 0-1.641.906-1.641 2.703 0 .813.312 1.438.562 1.781.375.516.907.906 1.079.906.218 0 .265-.171.265-.25Zm0 0"/></symbol><symbol overflow="visible" id="l"><path style="stroke:none" d="M3.219-.906c0-.735-.906-.906-1.14-.938l-.704-.125C1.187-2 1-2.079 1-2.25c0-.156.219-.328.813-.328.515 0 .609.172.625.328.015.14.03.281.28.281.298 0 .298-.156.298-.328v-.469c0-.14-.016-.328-.25-.328-.157 0-.22.063-.25.125-.282-.125-.563-.125-.688-.125-1.187 0-1.344.594-1.344.844 0 .656.735.797 1.391.89.297.063.828.141.828.454 0 .234-.25.422-.828.422-.297 0-.656-.063-.813-.563-.03-.156-.078-.234-.28-.234-.298 0-.298.172-.298.328v.656c0 .14 0 .344.25.344.079 0 .188 0 .282-.234.328.218.671.234.859.234 1.125 0 1.344-.61 1.344-.953Zm0 0"/></symbol><symbol overflow="visible" id="m"><path style="stroke:none" d="M2.313-.469a.477.477 0 0 0-.485-.484.47.47 0 0 0-.469.469c0 .28.22.484.47.484a.473.473 0 0 0 .484-.469Zm0 0"/></symbol><symbol overflow="visible" id="n"><path style="stroke:none" d="M3.422-1.516c0-.875-.64-1.562-1.39-1.562-.298 0-.579.11-.813.265v-1.109c0-.25-.047-.344-.313-.344h-.5c-.14 0-.344.016-.344.266s.22.266.329.266h.25v3.406C.64-.172.656 0 .937 0c.22 0 .282-.094.282-.234.265.218.531.28.734.28.766 0 1.469-.671 1.469-1.562Zm-.578 0c0 .61-.453 1.032-.906 1.032-.485 0-.704-.563-.704-.875v-.485c0-.375.375-.703.766-.703.469 0 .844.469.844 1.031Zm0 0"/></symbol><symbol overflow="visible" id="o"><path style="stroke:none" d="M3.281-1.516c0-.89-.672-1.578-1.453-1.578-.797 0-1.453.688-1.453 1.578 0 .891.672 1.563 1.453 1.563.766 0 1.453-.688 1.453-1.563Zm-.578-.046c0 .593-.406 1.078-.875 1.078S.953-.97.953-1.563c0-.593.422-1.015.875-1.015s.875.422.875 1.015Zm0 0"/></symbol><symbol overflow="visible" id="p"><path style="stroke:none" d="M3.14-.906c0-.156 0-.313-.296-.313-.266 0-.266.157-.266.297-.015.375-.36.438-.515.438-.454 0-.454-.313-.454-.47v-1.562h1.047c.125 0 .328 0 .328-.265 0-.25-.187-.25-.328-.25H1.61v-.516c0-.14-.015-.328-.296-.328-.282 0-.282.172-.282.328v.516H.484c-.125 0-.328 0-.328.25 0 .265.203.265.328.265h.547v1.61c0 .687.485.953 1.016.953S3.14-.266 3.14-.906Zm0 0"/></symbol><symbol overflow="visible" id="q"><path style="stroke:none" d="M3.64-.266c0-.218-.14-.25-.39-.25v-1.593c0-.157-.016-.97-.656-.97a.842.842 0 0 0-.656.313.61.61 0 0 0-.532-.312.875.875 0 0 0-.547.203c-.046-.156-.187-.156-.312-.156H.328c-.125 0-.328 0-.328.25 0 .234.125.265.39.265v2c-.265 0-.39.032-.39.25C0 0 .219 0 .328 0h.594c.125 0 .312 0 .312-.266 0-.218-.109-.25-.359-.25v-1.171c0-.563.234-.86.5-.86.14 0 .203.11.203.5v1.531c-.156 0-.281.032-.281.25 0 .266.187.266.312.266h.516c.125 0 .313 0 .313-.266 0-.218-.126-.25-.376-.25v-1.171c0-.563.25-.86.5-.86.141 0 .204.11.204.5v1.531c-.141 0-.282.032-.282.25 0 .266.204.266.313.266h.5c.125 0 .344 0 .344-.266Zm0 0"/></symbol><symbol overflow="visible" id="r"><path style="stroke:none" d="M3.281-.266c0-.25-.203-.25-.328-.25h-.828v-3.406c0-.25-.063-.344-.328-.344H.719C.579-4.266.39-4.25.39-4s.203.266.312.266h.844v3.218H.719c-.14 0-.328 0-.328.25C.39 0 .594 0 .703 0h2.25c.125 0 .328 0 .328-.266Zm0 0"/></symbol><symbol overflow="visible" id="s"><path style="stroke:none" d="M3.25-.797c0-.234-.234-.234-.281-.234-.156 0-.219.015-.281.172-.141.328-.485.375-.657.375-.469 0-.937-.297-1.062-.813h1.953c.172 0 .328 0 .328-.312 0-.797-.453-1.485-1.375-1.485-.828 0-1.516.703-1.516 1.563S1.08.047 1.984.047c.938 0 1.266-.656 1.266-.844Zm-.594-1.015H.97c.125-.438.484-.766.906-.766.328 0 .703.156.781.765Zm0 0"/></symbol><symbol overflow="visible" id="t"><path style="stroke:none" d="M3.063-3.844c0-.437-.579-.453-.704-.453-.578 0-1.125.328-1.125.953v.313H.61c-.125 0-.328 0-.328.25 0 .265.203.265.328.265h.625v2H.61c-.125 0-.343 0-.343.25C.266 0 .484 0 .609 0h1.844c.125 0 .328 0 .328-.266 0-.25-.203-.25-.328-.25h-.64v-2h.78c.11 0 .313 0 .313-.265 0-.25-.187-.25-.312-.25h-.781v-.266c0-.453.359-.484.562-.484.031.11.125.297.344.297a.35.35 0 0 0 .344-.36Zm0 0"/></symbol><symbol overflow="visible" id="u"><path style="stroke:none" d="M3.266-.797c0-.234-.235-.234-.297-.234-.125 0-.203 0-.266.172-.047.078-.187.375-.625.375a1.027 1.027 0 0 1-1.015-1.032c0-.312.187-1.062 1.062-1.062l.344.015c.015.282.172.376.36.376.187 0 .358-.126.358-.36 0-.531-.734-.547-1.062-.547-1.219 0-1.64.953-1.64 1.578 0 .844.671 1.563 1.546 1.563 1 0 1.235-.719 1.235-.844Zm0 0"/></symbol><symbol overflow="visible" id="v"><path style="stroke:none" d="M3.406-2.594c0-.156-.078-.484-.703-.484-.328 0-.734.11-1.094.469v-.094c0-.25-.046-.328-.328-.328h-.75c-.125 0-.328 0-.328.25 0 .265.203.265.328.265h.5v2h-.5c-.125 0-.328 0-.328.25C.203 0 .406 0 .531 0h1.781c.126 0 .329 0 .329-.266 0-.25-.204-.25-.329-.25H1.61v-.796c0-.61.36-1.22 1.11-1.235 0 .156.172.281.344.281.187 0 .343-.125.343-.328Zm0 0"/></symbol><symbol overflow="visible" id="w"><path style="stroke:none" d="M3.578-.266c0-.25-.203-.25-.328-.25H3v-1.53c0-.72-.36-1.032-.938-1.032-.39 0-.671.172-.843.297 0-.172-.047-.25-.313-.25h-.5c-.14 0-.328 0-.328.25 0 .265.203.265.313.265h.25v2H.406c-.14 0-.328 0-.328.25C.078 0 .281 0 .391 0h1.093c.11 0 .329 0 .329-.266 0-.25-.204-.25-.344-.25h-.25v-1.156c0-.64.484-.875.797-.875.328 0 .406.172.406.547v1.484h-.203c-.14 0-.344 0-.344.25 0 .266.219.266.344.266H3.25c.11 0 .328 0 .328-.266Zm0 0"/></symbol><symbol overflow="visible" id="x"><path style="stroke:none" d="M2.484-2.125c0-.828-.312-1.453-.562-1.797-.375-.515-.906-.906-1.078-.906-.203 0-.266.187-.266.25 0 .125.094.187.14.219 1.095.718 1.188 1.796 1.188 2.234 0 .656-.25 1.578-1.14 2.188C.64.14.578.186.578.313c0 .078.063.25.266.25s1.64-.907 1.64-2.688Zm0 0"/></symbol><symbol overflow="visible" id="y"><path style="stroke:none" d="M3.422-1.516c0-.875-.64-1.562-1.39-1.562-.298 0-.579.11-.813.281 0-.172-.063-.234-.313-.234h-.5c-.14 0-.344 0-.344.25 0 .265.22.265.329.265h.25v3.5H.406c-.14 0-.344 0-.344.266 0 .25.22.25.329.25h1.093c.11 0 .329 0 .329-.25 0-.266-.204-.266-.344-.266h-.25V-.234c.265.234.531.28.734.28.766 0 1.469-.671 1.469-1.562Zm-.578 0c0 .61-.453 1.032-.906 1.032-.485 0-.704-.563-.704-.875v-.485c0-.375.375-.703.766-.703.469 0 .844.469.844 1.031Zm0 0"/></symbol><symbol overflow="visible" id="z"><path style="stroke:none" d="M3.188-.266c0-.25-.204-.25-.329-.25h-.656v-2.187c0-.25-.047-.328-.328-.328H.906c-.125 0-.328 0-.328.25 0 .265.203.265.328.265h.719v2H.859c-.14 0-.343 0-.343.25C.516 0 .734 0 .859 0h2c.125 0 .329 0 .329-.266Zm-.954-3.562a.39.39 0 0 0-.406-.39.387.387 0 0 0-.39.39c0 .219.171.39.39.39a.39.39 0 0 0 .406-.39Zm0 0"/></symbol><symbol overflow="visible" id="A"><path style="stroke:none" d="M3.563-2.688c0-.171-.141-.421-.547-.421a1.48 1.48 0 0 0-.735.218 1.214 1.214 0 0 0-.656-.187c-.656 0-1.172.531-1.172 1.14 0 .282.11.516.203.641a.981.981 0 0 0-.125.469c0 .219.078.375.14.469C.188-.031.188.42.188.5c0 .61.735 1.047 1.641 1.047S3.468 1.094 3.468.5a.973.973 0 0 0-.5-.828c-.093-.047-.39-.188-1.015-.188h-.469c-.125 0-.28.032-.39-.093-.063-.079-.063-.22-.063-.22 0-.015 0-.062.016-.109.11.063.328.157.578.157.656 0 1.188-.516 1.188-1.156 0-.188-.063-.391-.172-.563a.77.77 0 0 1 .28-.078.344.344 0 0 0 .313.219c.141 0 .329-.094.329-.329Zm-1.344.75c0 .36-.266.641-.594.641-.328 0-.594-.297-.594-.64 0-.344.266-.625.594-.625.328 0 .594.296.594.624ZM2.969.5c0 .281-.5.531-1.14.531C1.187 1.031.687.781.687.5.688.39.75.187.953.062c.14-.093.203-.093.688-.093.578 0 1.328 0 1.328.531Zm0 0"/></symbol><symbol overflow="visible" id="B"><path style="stroke:none" d="M3.578-.266c0-.25-.203-.25-.328-.25H3v-1.53c0-.72-.36-1.032-.938-1.032-.39 0-.671.172-.843.297v-1.14c0-.25-.047-.345-.313-.345h-.5c-.14 0-.328.016-.328.266s.203.266.313.266h.25v3.218H.406c-.14 0-.328 0-.328.25C.078 0 .281 0 .391 0h1.093c.11 0 .329 0 .329-.266 0-.25-.204-.25-.344-.25h-.25v-1.156c0-.64.484-.875.797-.875.328 0 .406.172.406.547v1.484h-.203c-.14 0-.344 0-.344.25 0 .266.219.266.344.266H3.25c.11 0 .328 0 .328-.266Zm0 0"/></symbol><symbol overflow="visible" id="C"><path style="stroke:none" d="M3.578-.266c0-.25-.203-.25-.328-.25H3v-3.406c0-.25-.047-.344-.328-.344h-.485c-.14 0-.343.016-.343.266s.218.266.328.266h.25v.906a1.261 1.261 0 0 0-.735-.25c-.765 0-1.453.672-1.453 1.562C.234-.64.875.047 1.625.047c.344 0 .61-.14.797-.313.015.188.062.266.328.266h.5c.125 0 .328 0 .328-.266ZM2.422-1.375c0 .36-.297.89-.781.89-.454 0-.829-.453-.829-1.03 0-.61.438-1.032.891-1.032.406 0 .719.344.719.688Zm0 0"/></symbol><symbol overflow="visible" id="D"><path style="stroke:none" d="M3.469-.266c0-.25-.203-.25-.328-.25h-.25l-.829-1.046.735-.954h.234c.125 0 .344 0 .344-.265 0-.25-.219-.25-.344-.25H2.25c-.125 0-.328 0-.328.25 0 .203.11.265.281.265l-.39.547-.422-.547c.156 0 .28-.062.28-.265 0-.25-.202-.25-.327-.25H.547c-.125 0-.328 0-.328.25 0 .265.218.265.328.265h.25l.75.954L.75-.516H.516c-.125 0-.344 0-.344.25C.172 0 .39 0 .516 0h.78c.126 0 .329 0 .329-.266 0-.203-.11-.25-.297-.25l.484-.703.5.703c-.187 0-.296.047-.296.25 0 .266.203.266.328.266h.797c.109 0 .328 0 .328-.266Zm0 0"/></symbol><symbol overflow="visible" id="E"><path style="stroke:none" d="M3.625-.266c0-.25-.203-.25-.328-.25-.203 0-.297-.03-.344-.046V-2c0-.5-.375-1.094-1.406-1.094-.313 0-1.031.016-1.031.547 0 .235.171.36.359.36.11 0 .344-.063.344-.36 0 0 .234-.031.343-.031.454 0 .782.187.813.594-1.219.03-2.047.39-2.047 1.062 0 .485.453.969 1.188.969.234 0 .656-.047.968-.25.172.187.485.203.75.203.235 0 .391-.016.391-.266ZM2.359-.969c0 .14 0 .266-.234.375-.234.11-.516.11-.578.11-.39 0-.64-.204-.64-.438 0-.312.546-.515 1.452-.562Zm0 0"/></symbol><symbol overflow="visible" id="F"><path style="stroke:none" d="M3.547-2.781c0-.25-.188-.25-.328-.25h-.781c-.157 0-.344 0-.344.25 0 .265.172.265.344.265h.265l-.297 1.72-.14-.532c-.125-.469-.172-.547-.422-.547-.094 0-.235 0-.328.188l-.266.906-.297-1.735h.266c.156 0 .343 0 .343-.265 0-.25-.187-.25-.343-.25H.437c-.14 0-.343 0-.343.25 0 .234.14.265.36.265L.858-.28c.032.187.047.312.36.312.312 0 .343-.062.453-.515l.172-.641.265 1c.094.14.235.156.344.156.281 0 .313-.125.344-.312l.406-2.235c.219 0 .344-.03.344-.265Zm0 0"/></symbol><symbol overflow="visible" id="G"><path style="stroke:none" d="M3.578-.266c0-.25-.219-.25-.328-.25H3v-2.187c0-.25-.047-.328-.328-.328h-.485c-.14 0-.343 0-.343.25 0 .265.218.265.328.265h.25v1.391c0 .563-.516.64-.719.64-.469 0-.484-.187-.484-.39v-1.828c0-.25-.047-.328-.313-.328h-.5c-.14 0-.328 0-.328.25 0 .265.203.265.313.265h.25v1.688c0 .687.5.875 1.03.875.266 0 .516-.063.766-.219C2.485 0 2.626 0 2.75 0h.5c.125 0 .328 0 .328-.266Zm0 0"/></symbol><symbol overflow="visible" id="H"><path style="stroke:none" d="M3.094-.266c0-.25-.188-.25-.313-.25H2.22V-4c0-.125-.016-.328-.266-.328-.156 0-.219.094-.25.187-.234.547-.578.625-.687.641-.141 0-.313.031-.313.266 0 .203.156.25.281.25.125 0 .375-.032.657-.235v2.703h-.563c-.14 0-.328 0-.328.25C.75 0 .953 0 1.078 0h1.703c.125 0 .313 0 .313-.266Zm0 0"/></symbol><symbol overflow="visible" id="I"><path style="stroke:none" d="M3.297-1.36c0-.812-.625-1.437-1.39-1.437-.329 0-.657.094-.938.313.125-.829.703-1.329 1.25-1.329.156 0 .25.032.297.063-.032.047-.047.094-.047.188 0 .203.14.359.36.359.202 0 .358-.14.358-.375 0-.36-.265-.75-.968-.75-.922 0-1.86.844-1.86 2.25C.36-.422 1.156.078 1.844.078c.765 0 1.453-.594 1.453-1.437Zm-.578 0a.88.88 0 0 1-.875.907c-.422 0-.672-.313-.797-.703C1-1.313 1-1.484 1-1.563c0-.39.39-.703.875-.703.516 0 .844.422.844.907Zm0 0"/></symbol><symbol overflow="visible" id="J"><path style="stroke:none" d="M3.313-2.125c0-1.297-.72-2.203-1.485-2.203-.781 0-1.5.922-1.5 2.203 0 1.297.734 2.203 1.5 2.203.781 0 1.484-.922 1.484-2.203Zm-.563-.078c0 .969-.422 1.75-.922 1.75-.516 0-.922-.781-.922-1.75 0-.953.438-1.61.922-1.61.469 0 .922.657.922 1.61Zm0 0"/></symbol><clipPath id="a"><path d="M0 0h350.785v150.828H0Zm0 0"/></clipPath></defs><path style="stroke:none;fill-rule:nonzero;fill:#fffbb3;fill-opacity:1" d="m52.316 132.86 66.575-115.32H230l66.578 115.32Zm0 0"/><g clip-path="url(#a)"><path style="fill:none;stroke-width:14.17339;stroke-linecap:butt;stroke-linejoin:miter;stroke:#b2b2b2;stroke-opacity:1;stroke-miterlimit:10" d="m-122.13-57.661 66.575 115.32H55.554l66.578-115.32Zm0 0" transform="matrix(1 0 0 -1 174.446 75.198)"/></g><use xlink:href="#b" x="147.238" y="102.578" style="fill:#b2b2b2;fill-opacity:1"/><g style="fill:#b2b2b2;fill-opacity:1"><use xlink:href="#c" x="154.252" y="102.578"/><use xlink:href="#d" x="158.974" y="102.578"/><use xlink:href="#e" x="164.543" y="102.578"/></g><g style="fill:#b2b2b2;fill-opacity:1"><use xlink:href="#f" x="171.228" y="102.578"/><use xlink:href="#g" x="176.478" y="102.578"/><use xlink:href="#h" x="181.569" y="102.578"/><use xlink:href="#i" x="184.747" y="102.578"/><use xlink:href="#j" x="191.113" y="102.578"/></g><path style="fill:none;stroke-width:.996;stroke-linecap:butt;stroke-linejoin:miter;stroke:#b2b2b2;stroke-opacity:1;stroke-miterlimit:10" d="M0 0v58.624" transform="matrix(1 0 0 -1 201.156 104.511)"/><path style="fill:none;stroke-width:.3985;stroke-linecap:butt;stroke-linejoin:miter;stroke:#000;stroke-opacity:1;stroke-miterlimit:10" d="m-135.817-66.157 2.82 2.82m-2.82 0 2.82-2.82" transform="matrix(1 0 0 -1 174.446 75.198)"/><g style="fill:#000;fill-opacity:1"><use xlink:href="#k" x="-.232" y="148.29"/><use xlink:href="#l" x="3.429" y="148.29"/><use xlink:href="#m" x="7.091" y="148.29"/><use xlink:href="#n" x="10.752" y="148.29"/><use xlink:href="#o" x="14.413" y="148.29"/><use xlink:href="#p" x="18.074" y="148.29"/><use xlink:href="#p" x="21.736" y="148.29"/><use xlink:href="#o" x="25.397" y="148.29"/><use xlink:href="#q" x="29.058" y="148.29"/></g><g style="fill:#000;fill-opacity:1"><use xlink:href="#r" x="36.374" y="148.29"/><use xlink:href="#s" x="40.035" y="148.29"/><use xlink:href="#t" x="43.696" y="148.29"/><use xlink:href="#p" x="47.358" y="148.29"/></g><g style="fill:#000;fill-opacity:1"><use xlink:href="#u" x="54.68" y="148.29"/><use xlink:href="#o" x="58.341" y="148.29"/><use xlink:href="#v" x="62.003" y="148.29"/><use xlink:href="#w" x="65.664" y="148.29"/><use xlink:href="#s" x="69.325" y="148.29"/><use xlink:href="#v" x="72.986" y="148.29"/><use xlink:href="#x" x="76.648" y="148.29"/></g><path style="fill:none;stroke-width:.3985;stroke-linecap:butt;stroke-linejoin:miter;stroke:#000;stroke-opacity:1;stroke-miterlimit:10" d="m58.238 63.339 2.82 2.816m-2.82 0 2.82-2.816" transform="matrix(1 0 0 -1 174.446 75.198)"/><g style="fill:#000;fill-opacity:1"><use xlink:href="#k" x="237.613" y="12.088"/><use xlink:href="#l" x="241.274" y="12.088"/><use xlink:href="#m" x="244.936" y="12.088"/><use xlink:href="#p" x="248.597" y="12.088"/><use xlink:href="#o" x="252.258" y="12.088"/><use xlink:href="#y" x="255.919" y="12.088"/></g><g style="fill:#000;fill-opacity:1"><use xlink:href="#v" x="263.242" y="12.088"/><use xlink:href="#z" x="266.903" y="12.088"/><use xlink:href="#A" x="270.564" y="12.088"/><use xlink:href="#B" x="274.226" y="12.088"/><use xlink:href="#p" x="277.887" y="12.088"/></g><g style="fill:#000;fill-opacity:1"><use xlink:href="#u" x="285.21" y="12.088"/><use xlink:href="#o" x="288.871" y="12.088"/><use xlink:href="#v" x="292.532" y="12.088"/><use xlink:href="#w" x="296.193" y="12.088"/><use xlink:href="#s" x="299.855" y="12.088"/><use xlink:href="#v" x="303.516" y="12.088"/><use xlink:href="#x" x="307.177" y="12.088"/></g><path style="fill:none;stroke-width:.3985;stroke-linecap:butt;stroke-linejoin:miter;stroke:#000;stroke-opacity:1;stroke-miterlimit:10" d="m-61.055 63.339 2.816 2.816m-2.816 0 2.816-2.816" transform="matrix(1 0 0 -1 174.446 75.198)"/><g style="fill:#000;fill-opacity:1"><use xlink:href="#k" x="41.716" y="12.112"/><use xlink:href="#l" x="45.377" y="12.112"/><use xlink:href="#m" x="49.039" y="12.112"/><use xlink:href="#p" x="52.7" y="12.112"/><use xlink:href="#o" x="56.361" y="12.112"/><use xlink:href="#y" x="60.022" y="12.112"/></g><g style="fill:#000;fill-opacity:1"><use xlink:href="#r" x="67.345" y="12.112"/><use xlink:href="#s" x="71.006" y="12.112"/><use xlink:href="#t" x="74.667" y="12.112"/><use xlink:href="#p" x="78.329" y="12.112"/></g><g style="fill:#000;fill-opacity:1"><use xlink:href="#u" x="85.651" y="12.112"/><use xlink:href="#o" x="89.313" y="12.112"/><use xlink:href="#v" x="92.974" y="12.112"/><use xlink:href="#w" x="96.635" y="12.112"/><use xlink:href="#s" x="100.296" y="12.112"/><use xlink:href="#v" x="103.958" y="12.112"/><use xlink:href="#x" x="107.619" y="12.112"/></g><path style="fill:none;stroke-width:.3985;stroke-linecap:butt;stroke-linejoin:miter;stroke:#000;stroke-opacity:1;stroke-miterlimit:10" d="m133-66.157 2.816 2.82m-2.817 0 2.817-2.82" transform="matrix(1 0 0 -1 174.446 75.198)"/><g style="fill:#000;fill-opacity:1"><use xlink:href="#k" x="266.747" y="148.29"/><use xlink:href="#l" x="270.408" y="148.29"/><use xlink:href="#m" x="274.07" y="148.29"/><use xlink:href="#n" x="277.731" y="148.29"/><use xlink:href="#o" x="281.392" y="148.29"/><use xlink:href="#p" x="285.053" y="148.29"/><use xlink:href="#p" x="288.715" y="148.29"/><use xlink:href="#o" x="292.376" y="148.29"/><use xlink:href="#q" x="296.037" y="148.29"/></g><g style="fill:#000;fill-opacity:1"><use xlink:href="#v" x="303.36" y="148.29"/><use xlink:href="#z" x="307.021" y="148.29"/><use xlink:href="#A" x="310.682" y="148.29"/><use xlink:href="#B" x="314.344" y="148.29"/><use xlink:href="#p" x="318.005" y="148.29"/></g><g style="fill:#000;fill-opacity:1"><use xlink:href="#u" x="325.327" y="148.29"/><use xlink:href="#o" x="328.989" y="148.29"/><use xlink:href="#v" x="332.65" y="148.29"/><use xlink:href="#w" x="336.311" y="148.29"/><use xlink:href="#s" x="339.972" y="148.29"/><use xlink:href="#v" x="343.634" y="148.29"/><use xlink:href="#x" x="347.295" y="148.29"/></g><path style="fill:none;stroke-width:.3985;stroke-linecap:butt;stroke-linejoin:miter;stroke:#000;stroke-opacity:1;stroke-miterlimit:10" d="m-1.41-66.157 2.82 2.82m-2.82 0 2.82-2.82" transform="matrix(1 0 0 -1 174.446 75.198)"/><g style="fill:#000;fill-opacity:1"><use xlink:href="#k" x="146.987" y="148.29"/><use xlink:href="#l" x="150.648" y="148.29"/><use xlink:href="#m" x="154.31" y="148.29"/><use xlink:href="#n" x="157.971" y="148.29"/><use xlink:href="#o" x="161.632" y="148.29"/><use xlink:href="#p" x="165.293" y="148.29"/><use xlink:href="#p" x="168.955" y="148.29"/><use xlink:href="#o" x="172.616" y="148.29"/><use xlink:href="#q" x="176.277" y="148.29"/></g><g style="fill:#000;fill-opacity:1"><use xlink:href="#l" x="183.6" y="148.29"/><use xlink:href="#z" x="187.261" y="148.29"/><use xlink:href="#C" x="190.922" y="148.29"/><use xlink:href="#s" x="194.584" y="148.29"/><use xlink:href="#x" x="198.245" y="148.29"/></g><path style="fill:none;stroke-width:.3985;stroke-linecap:butt;stroke-linejoin:miter;stroke:#000;stroke-opacity:1;stroke-miterlimit:10" d="m-98.434-1.407 2.816 2.816m-2.816 0 2.816-2.816" transform="matrix(1 0 0 -1 174.446 75.198)"/><g style="fill:#000;fill-opacity:1"><use xlink:href="#k" x="26.304" y="77.332"/><use xlink:href="#l" x="29.965" y="77.332"/><use xlink:href="#m" x="33.627" y="77.332"/><use xlink:href="#r" x="37.288" y="77.332"/><use xlink:href="#s" x="40.949" y="77.332"/><use xlink:href="#t" x="44.61" y="77.332"/><use xlink:href="#p" x="48.272" y="77.332"/></g><g style="fill:#000;fill-opacity:1"><use xlink:href="#l" x="55.594" y="77.332"/><use xlink:href="#z" x="59.255" y="77.332"/><use xlink:href="#C" x="62.917" y="77.332"/><use xlink:href="#s" x="66.578" y="77.332"/><use xlink:href="#x" x="70.239" y="77.332"/></g><path style="fill:none;stroke-width:.3985;stroke-linecap:butt;stroke-linejoin:miter;stroke:#000;stroke-opacity:1;stroke-miterlimit:10" d="m95.617-1.407 2.82 2.816m-2.82 0 2.82-2.816" transform="matrix(1 0 0 -1 174.446 75.198)"/><g style="fill:#000;fill-opacity:1"><use xlink:href="#k" x="274.992" y="76.834"/><use xlink:href="#l" x="278.653" y="76.834"/><use xlink:href="#m" x="282.315" y="76.834"/><use xlink:href="#v" x="285.976" y="76.834"/><use xlink:href="#z" x="289.637" y="76.834"/><use xlink:href="#A" x="293.298" y="76.834"/><use xlink:href="#B" x="296.96" y="76.834"/><use xlink:href="#p" x="300.621" y="76.834"/></g><g style="fill:#000;fill-opacity:1"><use xlink:href="#l" x="307.943" y="76.834"/><use xlink:href="#z" x="311.605" y="76.834"/><use xlink:href="#C" x="315.266" y="76.834"/><use xlink:href="#s" x="318.927" y="76.834"/><use xlink:href="#x" x="322.589" y="76.834"/></g><path style="fill:none;stroke-width:.3985;stroke-linecap:butt;stroke-linejoin:miter;stroke:#000;stroke-opacity:1;stroke-miterlimit:10" d="m-1.41 63.339 2.82 2.816m-2.82 0 2.82-2.816" transform="matrix(1 0 0 -1 174.446 75.198)"/><g style="fill:#000;fill-opacity:1"><use xlink:href="#k" x="152.479" y="5.426"/><use xlink:href="#l" x="156.14" y="5.426"/><use xlink:href="#m" x="159.802" y="5.426"/><use xlink:href="#p" x="163.463" y="5.426"/><use xlink:href="#o" x="167.124" y="5.426"/><use xlink:href="#y" x="170.785" y="5.426"/></g><g style="fill:#000;fill-opacity:1"><use xlink:href="#l" x="178.108" y="5.426"/><use xlink:href="#z" x="181.769" y="5.426"/><use xlink:href="#C" x="185.43" y="5.426"/><use xlink:href="#s" x="189.092" y="5.426"/><use xlink:href="#x" x="192.753" y="5.426"/></g><path style="fill:none;stroke-width:.3985;stroke-linecap:butt;stroke-linejoin:miter;stroke:#000;stroke-opacity:1;stroke-miterlimit:10" d="m-1.41-1.407 2.82 2.816m-2.82 0 2.82-2.816" transform="matrix(1 0 0 -1 174.446 75.198)"/><g style="fill:#000;fill-opacity:1"><use xlink:href="#k" x="156.14" y="71.121"/><use xlink:href="#l" x="159.801" y="71.121"/><use xlink:href="#m" x="163.463" y="71.121"/><use xlink:href="#u" x="167.124" y="71.121"/><use xlink:href="#s" x="170.785" y="71.121"/><use xlink:href="#w" x="174.446" y="71.121"/><use xlink:href="#p" x="178.108" y="71.121"/><use xlink:href="#s" x="181.769" y="71.121"/><use xlink:href="#v" x="185.43" y="71.121"/><use xlink:href="#x" x="189.091" y="71.121"/></g><path style="fill:none;stroke-width:.3985;stroke-linecap:butt;stroke-linejoin:miter;stroke:#000;stroke-opacity:1;stroke-miterlimit:10" d="m-28.618-28.79 2.82 2.82m-2.82 0 2.82-2.82" transform="matrix(1 0 0 -1 174.446 75.198)"/><g style="fill:#000;fill-opacity:1"><use xlink:href="#k" x="132.593" y="110.924"/><use xlink:href="#l" x="136.254" y="110.924"/><use xlink:href="#m" x="139.916" y="110.924"/><use xlink:href="#p" x="143.577" y="110.924"/><use xlink:href="#s" x="147.238" y="110.924"/><use xlink:href="#D" x="150.899" y="110.924"/><use xlink:href="#p" x="154.561" y="110.924"/><use xlink:href="#x" x="158.222" y="110.924"/></g><path style="fill:none;stroke-width:.3985;stroke-linecap:butt;stroke-linejoin:miter;stroke:#000;stroke-opacity:1;stroke-miterlimit:10" d="m-1.41-26.58 2.82 2.821m-2.82 0 2.82-2.82" transform="matrix(1 0 0 -1 174.446 75.198)"/><g style="fill:#000;fill-opacity:1"><use xlink:href="#k" x="177.966" y="102.501"/><use xlink:href="#l" x="181.627" y="102.501"/><use xlink:href="#m" x="185.289" y="102.501"/><use xlink:href="#q" x="188.95" y="102.501"/><use xlink:href="#z" x="192.611" y="102.501"/><use xlink:href="#C" x="196.272" y="102.501"/><use xlink:href="#x" x="199.934" y="102.501"/></g><path style="fill:none;stroke-width:.3985;stroke-linecap:butt;stroke-linejoin:miter;stroke:#000;stroke-opacity:1;stroke-miterlimit:10" d="m-1.41-28.79 2.82 2.82m-2.82 0 2.82-2.82" transform="matrix(1 0 0 -1 174.446 75.198)"/><g style="fill:#000;fill-opacity:1"><use xlink:href="#k" x="159.801" y="110.924"/><use xlink:href="#l" x="163.462" y="110.924"/><use xlink:href="#m" x="167.124" y="110.924"/><use xlink:href="#n" x="170.785" y="110.924"/><use xlink:href="#E" x="174.446" y="110.924"/><use xlink:href="#l" x="178.107" y="110.924"/><use xlink:href="#s" x="181.769" y="110.924"/><use xlink:href="#x" x="185.43" y="110.924"/></g><path style="fill:none;stroke-width:.3985;stroke-linecap:butt;stroke-linejoin:miter;stroke:#000;stroke-opacity:1;stroke-miterlimit:10" d="m-112.97-26.58 2.82 2.821m-2.82 0 2.82-2.82" transform="matrix(1 0 0 -1 174.446 75.198)"/><g style="fill:#000;fill-opacity:1"><use xlink:href="#k" x="66.409" y="102.501"/><use xlink:href="#l" x="70.07" y="102.501"/><use xlink:href="#m" x="73.732" y="102.501"/><use xlink:href="#q" x="77.393" y="102.501"/><use xlink:href="#z" x="81.054" y="102.501"/><use xlink:href="#C" x="84.715" y="102.501"/></g><g style="fill:#000;fill-opacity:1"><use xlink:href="#F" x="92.038" y="102.501"/><use xlink:href="#s" x="95.699" y="102.501"/><use xlink:href="#l" x="99.36" y="102.501"/><use xlink:href="#p" x="103.022" y="102.501"/><use xlink:href="#x" x="106.683" y="102.501"/></g><path style="fill:none;stroke-width:.3985;stroke-linecap:butt;stroke-linejoin:miter;stroke:#000;stroke-opacity:1;stroke-miterlimit:10" d="m-114.243-28.79 2.817 2.82m-2.817 0 2.817-2.82" transform="matrix(1 0 0 -1 174.446 75.198)"/><g style="fill:#000;fill-opacity:1"><use xlink:href="#k" x="37.814" y="110.924"/><use xlink:href="#l" x="41.475" y="110.924"/><use xlink:href="#m" x="45.137" y="110.924"/><use xlink:href="#n" x="48.798" y="110.924"/><use xlink:href="#E" x="52.459" y="110.924"/><use xlink:href="#l" x="56.12" y="110.924"/><use xlink:href="#s" x="59.782" y="110.924"/></g><g style="fill:#000;fill-opacity:1"><use xlink:href="#F" x="67.104" y="110.924"/><use xlink:href="#s" x="70.765" y="110.924"/><use xlink:href="#l" x="74.427" y="110.924"/><use xlink:href="#p" x="78.088" y="110.924"/><use xlink:href="#x" x="81.749" y="110.924"/></g><path style="fill:none;stroke-width:.3985;stroke-linecap:butt;stroke-linejoin:miter;stroke:#000;stroke-opacity:1;stroke-miterlimit:10" d="m110.152-26.58 2.82 2.821m-2.82 0 2.82-2.82" transform="matrix(1 0 0 -1 174.446 75.198)"/><g style="fill:#000;fill-opacity:1"><use xlink:href="#k" x="238.551" y="102.501"/><use xlink:href="#l" x="242.212" y="102.501"/><use xlink:href="#m" x="245.874" y="102.501"/><use xlink:href="#q" x="249.535" y="102.501"/><use xlink:href="#z" x="253.196" y="102.501"/><use xlink:href="#C" x="256.857" y="102.501"/></g><g style="fill:#000;fill-opacity:1"><use xlink:href="#s" x="264.18" y="102.501"/><use xlink:href="#E" x="267.841" y="102.501"/><use xlink:href="#l" x="271.502" y="102.501"/><use xlink:href="#p" x="275.164" y="102.501"/><use xlink:href="#x" x="278.825" y="102.501"/></g><path style="fill:none;stroke-width:.3985;stroke-linecap:butt;stroke-linejoin:miter;stroke:#000;stroke-opacity:1;stroke-miterlimit:10" d="m111.429-28.79 2.816 2.82m-2.816 0 2.816-2.82" transform="matrix(1 0 0 -1 174.446 75.198)"/><g style="fill:#000;fill-opacity:1"><use xlink:href="#k" x="263.485" y="110.924"/><use xlink:href="#l" x="267.146" y="110.924"/><use xlink:href="#m" x="270.808" y="110.924"/><use xlink:href="#n" x="274.469" y="110.924"/><use xlink:href="#E" x="278.13" y="110.924"/><use xlink:href="#l" x="281.791" y="110.924"/><use xlink:href="#s" x="285.453" y="110.924"/></g><g style="fill:#000;fill-opacity:1"><use xlink:href="#s" x="292.775" y="110.924"/><use xlink:href="#E" x="296.436" y="110.924"/><use xlink:href="#l" x="300.098" y="110.924"/><use xlink:href="#p" x="303.759" y="110.924"/><use xlink:href="#x" x="307.42" y="110.924"/></g><path style="fill:none;stroke-width:.3985;stroke-linecap:butt;stroke-linejoin:miter;stroke:#000;stroke-opacity:1;stroke-miterlimit:10" d="m-98.438-1.407 2.82 2.816m-2.82 0 2.82-2.816" transform="matrix(1 0 0 -1 174.446 75.198)"/><g style="fill:#000;fill-opacity:1"><use xlink:href="#k" x="62.774" y="71.12"/><use xlink:href="#l" x="66.435" y="71.12"/><use xlink:href="#m" x="70.097" y="71.12"/><use xlink:href="#F" x="73.758" y="71.12"/><use xlink:href="#s" x="77.419" y="71.12"/><use xlink:href="#l" x="81.08" y="71.12"/><use xlink:href="#p" x="84.742" y="71.12"/><use xlink:href="#x" x="88.403" y="71.12"/></g><path style="fill:none;stroke-width:.3985;stroke-linecap:butt;stroke-linejoin:miter;stroke:#000;stroke-opacity:1;stroke-miterlimit:10" d="m95.62-1.407 2.82 2.816m-2.82 0 2.82-2.816" transform="matrix(1 0 0 -1 174.446 75.198)"/><g style="fill:#000;fill-opacity:1"><use xlink:href="#k" x="256.831" y="71.12"/><use xlink:href="#l" x="260.492" y="71.12"/><use xlink:href="#m" x="264.154" y="71.12"/><use xlink:href="#s" x="267.815" y="71.12"/><use xlink:href="#E" x="271.476" y="71.12"/><use xlink:href="#l" x="275.137" y="71.12"/><use xlink:href="#p" x="278.799" y="71.12"/><use xlink:href="#x" x="282.46" y="71.12"/></g><path style="fill:none;stroke-width:.3985;stroke-linecap:butt;stroke-linejoin:miter;stroke:#000;stroke-opacity:1;stroke-miterlimit:10" d="m-1.407 63.358 2.82 2.817m-2.82 0 2.82-2.817" transform="matrix(1 0 0 -1 174.446 75.198)"/><g style="fill:#000;fill-opacity:1"><use xlink:href="#k" x="157.975" y="18.779"/><use xlink:href="#l" x="161.636" y="18.779"/><use xlink:href="#m" x="165.298" y="18.779"/><use xlink:href="#w" x="168.959" y="18.779"/><use xlink:href="#o" x="172.62" y="18.779"/><use xlink:href="#v" x="176.281" y="18.779"/><use xlink:href="#p" x="179.943" y="18.779"/><use xlink:href="#B" x="183.604" y="18.779"/><use xlink:href="#x" x="187.265" y="18.779"/></g><path style="fill:none;stroke-width:.3985;stroke-linecap:butt;stroke-linejoin:miter;stroke:#000;stroke-opacity:1;stroke-miterlimit:10" d="m-1.407-66.161 2.82 2.816m-2.82 0 2.82-2.816" transform="matrix(1 0 0 -1 174.446 75.198)"/><g style="fill:#000;fill-opacity:1"><use xlink:href="#k" x="157.975" y="135.873"/><use xlink:href="#l" x="161.636" y="135.873"/><use xlink:href="#m" x="165.298" y="135.873"/><use xlink:href="#l" x="168.959" y="135.873"/><use xlink:href="#o" x="172.62" y="135.873"/><use xlink:href="#G" x="176.281" y="135.873"/><use xlink:href="#p" x="179.943" y="135.873"/><use xlink:href="#B" x="183.604" y="135.873"/><use xlink:href="#x" x="187.265" y="135.873"/></g><path style="fill:none;stroke-width:.3985;stroke-linecap:butt;stroke-linejoin:miter;stroke:#000;stroke-opacity:1;stroke-miterlimit:10" d="m-62.926 60.116 2.816 2.816m-2.816 0 2.816-2.816" transform="matrix(1 0 0 -1 174.446 75.198)"/><g style="fill:#000;fill-opacity:1"><use xlink:href="#k" x="87.3" y="9.597"/><use xlink:href="#l" x="90.961" y="9.597"/><use xlink:href="#m" x="94.623" y="9.597"/><use xlink:href="#w" x="98.284" y="9.597"/><use xlink:href="#o" x="101.945" y="9.597"/><use xlink:href="#v" x="105.606" y="9.597"/><use xlink:href="#p" x="109.268" y="9.597"/><use xlink:href="#B" x="112.929" y="9.597"/></g><g style="fill:#000;fill-opacity:1"><use xlink:href="#F" x="120.251" y="9.597"/><use xlink:href="#s" x="123.913" y="9.597"/><use xlink:href="#l" x="127.574" y="9.597"/><use xlink:href="#p" x="131.235" y="9.597"/><use xlink:href="#x" x="134.897" y="9.597"/></g><path style="fill:none;stroke-width:.3985;stroke-linecap:butt;stroke-linejoin:miter;stroke:#000;stroke-opacity:1;stroke-miterlimit:10" d="m60.117 60.116 2.816 2.816m-2.816 0 2.816-2.816" transform="matrix(1 0 0 -1 174.446 75.198)"/><g style="fill:#000;fill-opacity:1"><use xlink:href="#k" x="210.341" y="9.597"/><use xlink:href="#l" x="214.002" y="9.597"/><use xlink:href="#m" x="217.664" y="9.597"/><use xlink:href="#w" x="221.325" y="9.597"/><use xlink:href="#o" x="224.986" y="9.597"/><use xlink:href="#v" x="228.647" y="9.597"/><use xlink:href="#p" x="232.309" y="9.597"/><use xlink:href="#B" x="235.97" y="9.597"/></g><g style="fill:#000;fill-opacity:1"><use xlink:href="#s" x="243.292" y="9.597"/><use xlink:href="#E" x="246.954" y="9.597"/><use xlink:href="#l" x="250.615" y="9.597"/><use xlink:href="#p" x="254.276" y="9.597"/><use xlink:href="#x" x="257.938" y="9.597"/></g><path style="fill:none;stroke-width:.3985;stroke-linecap:butt;stroke-linejoin:miter;stroke:#000;stroke-opacity:1;stroke-miterlimit:10" d="m-66.16-66.161 2.816 2.82m-2.817 0 2.817-2.82" transform="matrix(1 0 0 -1 174.446 75.198)"/><g style="fill:#000;fill-opacity:1"><use xlink:href="#k" x="84.067" y="148.295"/><use xlink:href="#l" x="87.728" y="148.295"/><use xlink:href="#m" x="91.39" y="148.295"/><use xlink:href="#l" x="95.051" y="148.295"/><use xlink:href="#o" x="98.712" y="148.295"/><use xlink:href="#G" x="102.373" y="148.295"/><use xlink:href="#p" x="106.035" y="148.295"/><use xlink:href="#B" x="109.696" y="148.295"/></g><g style="fill:#000;fill-opacity:1"><use xlink:href="#F" x="117.018" y="148.295"/><use xlink:href="#s" x="120.68" y="148.295"/><use xlink:href="#l" x="124.341" y="148.295"/><use xlink:href="#p" x="128.002" y="148.295"/><use xlink:href="#x" x="131.664" y="148.295"/></g><path style="fill:none;stroke-width:.3985;stroke-linecap:butt;stroke-linejoin:miter;stroke:#000;stroke-opacity:1;stroke-miterlimit:10" d="m63.35-66.161 2.817 2.82m-2.816 0 2.816-2.82" transform="matrix(1 0 0 -1 174.446 75.198)"/><g style="fill:#000;fill-opacity:1"><use xlink:href="#k" x="213.575" y="148.295"/><use xlink:href="#l" x="217.236" y="148.295"/><use xlink:href="#m" x="220.898" y="148.295"/><use xlink:href="#l" x="224.559" y="148.295"/><use xlink:href="#o" x="228.22" y="148.295"/><use xlink:href="#G" x="231.881" y="148.295"/><use xlink:href="#p" x="235.543" y="148.295"/><use xlink:href="#B" x="239.204" y="148.295"/></g><g style="fill:#000;fill-opacity:1"><use xlink:href="#s" x="246.526" y="148.295"/><use xlink:href="#E" x="250.188" y="148.295"/><use xlink:href="#l" x="253.849" y="148.295"/><use xlink:href="#p" x="257.51" y="148.295"/><use xlink:href="#x" x="261.172" y="148.295"/></g><path style="fill:none;stroke-width:.3985;stroke-linecap:butt;stroke-linejoin:miter;stroke:#000;stroke-opacity:1;stroke-miterlimit:10" d="m-81.59 27.776 2.816 2.82m-2.817 0 2.817-2.82" transform="matrix(1 0 0 -1 174.446 75.198)"/><g style="fill:#000;fill-opacity:1"><use xlink:href="#k" x="81.451" y="41.935"/><use xlink:href="#l" x="85.112" y="41.935"/><use xlink:href="#m" x="88.774" y="41.935"/><use xlink:href="#H" x="92.435" y="41.935"/><use xlink:href="#I" x="96.096" y="41.935"/><use xlink:href="#J" x="99.757" y="41.935"/><use xlink:href="#x" x="103.419" y="41.935"/></g></svg>