<svg xmlns="http://www.w3.org/2000/svg" width="132.073" height="130.755" viewBox="0 0 99.055 98.066" version="1.2"><defs><clipPath id="a"><path d="M76 42h22.582v27H76Zm0 0"/></clipPath><clipPath id="b"><path d="M74 6h24.582v24H74Zm0 0"/></clipPath><clipPath id="c"><path d="M72 7h26.582v28H72Zm0 0"/></clipPath><clipPath id="d"><path d="M70 0h28.582v28H70Zm0 0"/></clipPath><clipPath id="e"><path d="M71 37h27.582v33H71Zm0 0"/></clipPath><clipPath id="f"><path d="M70 73h28.582v24.598H70Zm0 0"/></clipPath><clipPath id="g"><path d="M6 76h26v21.598H6Zm0 0"/></clipPath><clipPath id="h"><path d="M74 70h24.582v27.598H74Zm0 0"/></clipPath></defs><path style="fill-rule:nonzero;fill:#f99;fill-opacity:1;stroke-width:.3985;stroke-linecap:butt;stroke-linejoin:miter;stroke:#c00;stroke-opacity:1;stroke-miterlimit:10" d="M16.935 79.703a5.977 5.977 0 1 1-11.953 0 5.977 5.977 0 0 1 11.953 0ZM56.786 64.758a5.977 5.977 0 1 1-11.953 0 5.977 5.977 0 0 1 11.953 0Zm0 0" transform="matrix(1 0 0 -1 5.718 91.41)"/><path style="fill-rule:nonzero;fill:#99f;fill-opacity:1;stroke-width:.3985;stroke-linecap:butt;stroke-linejoin:miter;stroke:#00c;stroke-opacity:1;stroke-miterlimit:10" d="M35.865 26.898a6.975 6.975 0 0 1-6.973 6.977 6.975 6.975 0 0 1 0-13.95 6.972 6.972 0 0 1 6.973 6.973Zm0 0" transform="matrix(1 0 0 -1 5.718 91.41)"/><path style="fill-rule:nonzero;fill:#fff;fill-opacity:1;stroke-width:.3985;stroke-linecap:butt;stroke-linejoin:miter;stroke:#ccc;stroke-opacity:1;stroke-miterlimit:10" d="M52.802 19.926a6.972 6.972 0 0 1-6.973 6.972 6.972 6.972 0 0 1-6.972-6.972 6.972 6.972 0 0 1 6.972-6.973 6.972 6.972 0 0 1 6.973 6.973Zm0 0" transform="matrix(1 0 0 -1 5.718 91.41)"/><path style="fill-rule:nonzero;fill:#99f;fill-opacity:1;stroke-width:.3985;stroke-linecap:butt;stroke-linejoin:miter;stroke:#00c;stroke-opacity:1;stroke-miterlimit:10" d="M8.966 19.926a6.975 6.975 0 0 1-13.95 0 6.975 6.975 0 0 1 13.95 0Zm0 0" transform="matrix(1 0 0 -1 5.718 91.41)"/><path style="stroke:none;fill-rule:nonzero;fill:#9f9;fill-opacity:1" d="M96.379 55.543a6.975 6.975 0 1 0-13.948.005 6.975 6.975 0 0 0 13.948-.005Zm0 0"/><g clip-path="url(#a)"><path style="fill:none;stroke-width:.3985;stroke-linecap:butt;stroke-linejoin:miter;stroke:#0c0;stroke-opacity:1;stroke-miterlimit:10" d="M90.661 35.867a6.975 6.975 0 1 1-13.948-.005 6.975 6.975 0 0 1 13.948.005Zm0 0" transform="matrix(1 0 0 -1 5.718 91.41)"/></g><path style="fill-rule:nonzero;fill:#fff;fill-opacity:1;stroke-width:.3985;stroke-linecap:butt;stroke-linejoin:miter;stroke:#ccc;stroke-opacity:1;stroke-miterlimit:10" d="M30.884 79.703a5.977 5.977 0 1 1-11.953 0 5.977 5.977 0 0 1 11.953 0Zm0 0" transform="matrix(1 0 0 -1 5.718 91.41)"/><path style="fill-rule:nonzero;fill:#99f;fill-opacity:1;stroke-width:.3985;stroke-linecap:butt;stroke-linejoin:miter;stroke:#00c;stroke-opacity:1;stroke-miterlimit:10" d="M23.911 66.75c0 5.504-4.46 9.965-9.964 9.965-5.5 0-9.961-4.461-9.961-9.965 0-5.5 4.46-9.961 9.96-9.961 5.504 0 9.965 4.46 9.965 9.96Zm0 0" transform="matrix(1 0 0 -1 5.718 91.41)"/><path style="fill-rule:nonzero;fill:#9f9;fill-opacity:1;stroke-width:.3985;stroke-linecap:butt;stroke-linejoin:miter;stroke:#0c0;stroke-opacity:1;stroke-miterlimit:10" d="M38.857 42.84a6.975 6.975 0 0 1-13.95 0 6.975 6.975 0 0 1 13.95 0Zm0 0" transform="matrix(1 0 0 -1 5.718 91.41)"/><path style="fill-rule:nonzero;fill:#fff;fill-opacity:1;stroke-width:.3985;stroke-linecap:butt;stroke-linejoin:miter;stroke:#ccc;stroke-opacity:1;stroke-miterlimit:10" d="M72.728 30.883a4.982 4.982 0 0 1-4.98 4.984 4.982 4.982 0 0 1 0-9.965c2.75 0 4.98 2.23 4.98 4.98Zm0 0" transform="matrix(1 0 0 -1 5.718 91.41)"/><path style="stroke:none;fill-rule:nonzero;fill:#9f9;fill-opacity:1" d="M92.395 17.684c0-3.301-2.676-5.977-5.98-5.977a5.977 5.977 0 0 0-5.978 5.977 5.978 5.978 0 1 0 11.957 0Zm0 0"/><g clip-path="url(#b)"><path style="fill:none;stroke-width:.3985;stroke-linecap:butt;stroke-linejoin:miter;stroke:#0c0;stroke-opacity:1;stroke-miterlimit:10" d="M86.677 73.726c0 3.301-2.676 5.977-5.98 5.977a5.977 5.977 0 0 1-5.977-5.977 5.978 5.978 0 1 1 11.957 0Zm0 0" transform="matrix(1 0 0 -1 5.718 91.41)"/></g><path style="fill-rule:nonzero;fill:#fffa99;fill-opacity:1;stroke-width:.3985;stroke-linecap:butt;stroke-linejoin:miter;stroke:#d2c92a;stroke-opacity:1;stroke-miterlimit:10" d="M42.841 48.816a4.983 4.983 0 1 1-9.966.003 4.983 4.983 0 0 1 9.966-.003Zm0 0" transform="matrix(1 0 0 -1 5.718 91.41)"/><path style="fill-rule:nonzero;fill:#9f9;fill-opacity:1;stroke-width:.3985;stroke-linecap:butt;stroke-linejoin:miter;stroke:#0c0;stroke-opacity:1;stroke-miterlimit:10" d="M36.86 58.781a4.981 4.981 0 1 1-9.962-.002 4.981 4.981 0 0 1 9.963.002Zm0 0" transform="matrix(1 0 0 -1 5.718 91.41)"/><path style="fill-rule:nonzero;fill:#f99;fill-opacity:1;stroke-width:.3985;stroke-linecap:butt;stroke-linejoin:miter;stroke:#c00;stroke-opacity:1;stroke-miterlimit:10" d="M32.876 65.754c0 5.504-4.46 9.965-9.96 9.965-5.505 0-9.966-4.461-9.966-9.965 0-5.5 4.461-9.961 9.965-9.961 5.5 0 9.961 4.46 9.961 9.96Zm0 0" transform="matrix(1 0 0 -1 5.718 91.41)"/><path style="fill-rule:nonzero;fill:#9f9;fill-opacity:1;stroke-width:.3985;stroke-linecap:butt;stroke-linejoin:miter;stroke:#0c0;stroke-opacity:1;stroke-miterlimit:10" d="M44.833 20.922c0 4.953-4.015 8.965-8.968 8.965a8.965 8.965 0 1 1 0-17.93c4.953 0 8.968 4.012 8.968 8.965Zm0 0" transform="matrix(1 0 0 -1 5.718 91.41)"/><path style="fill-rule:nonzero;fill:#fff;fill-opacity:1;stroke-width:.3985;stroke-linecap:butt;stroke-linejoin:miter;stroke:#ccc;stroke-opacity:1;stroke-miterlimit:10" d="M82.693 31.883c0 4.949-4.016 8.964-8.97 8.964a8.965 8.965 0 0 1-8.964-8.964c0-4.953 4.012-8.97 8.965-8.97a8.969 8.969 0 0 1 8.969 8.97ZM36.86 52.805a8.965 8.965 0 1 1-17.93 0c0-4.954 4.013-8.97 8.966-8.97 4.953 0 8.965 4.016 8.965 8.97Zm0 0" transform="matrix(1 0 0 -1 5.718 91.41)"/><path style="fill-rule:nonzero;fill:#9f9;fill-opacity:1;stroke-width:.3985;stroke-linecap:butt;stroke-linejoin:miter;stroke:#0c0;stroke-opacity:1;stroke-miterlimit:10" d="M83.689 79.703a5.98 5.98 0 0 1-5.98 5.977 5.977 5.977 0 1 1 0-11.954 5.98 5.98 0 0 1 5.98 5.977Zm0 0" transform="matrix(1 0 0 -1 5.718 91.41)"/><path style="stroke:none;fill-rule:nonzero;fill:#9f9;fill-opacity:1" d="M94.387 20.676a7.974 7.974 0 0 0-7.973-7.973c-4.398 0-7.969 3.57-7.969 7.973a7.97 7.97 0 0 0 7.97 7.969 7.97 7.97 0 0 0 7.972-7.97Zm0 0"/><g clip-path="url(#c)"><path style="fill:none;stroke-width:.3985;stroke-linecap:butt;stroke-linejoin:miter;stroke:#0c0;stroke-opacity:1;stroke-miterlimit:10" d="M88.67 70.734a7.974 7.974 0 0 1-7.973 7.973c-4.399 0-7.97-3.57-7.97-7.973a7.97 7.97 0 0 1 7.97-7.969 7.97 7.97 0 0 1 7.972 7.97Zm0 0" transform="matrix(1 0 0 -1 5.718 91.41)"/></g><path style="fill-rule:nonzero;fill:#9f9;fill-opacity:1;stroke-width:.3985;stroke-linecap:butt;stroke-linejoin:miter;stroke:#0c0;stroke-opacity:1;stroke-miterlimit:10" d="M20.923 68.742a6.975 6.975 0 1 1-13.948.003 6.975 6.975 0 0 1 13.948-.003Zm0 0" transform="matrix(1 0 0 -1 5.718 91.41)"/><path style="stroke:none;fill-rule:nonzero;fill:#99f;fill-opacity:1" d="M96.379 11.707c0-5.5-4.461-9.96-9.965-9.96-5.5 0-9.96 4.46-9.96 9.96 0 5.504 4.46 9.965 9.96 9.965 5.504 0 9.965-4.461 9.965-9.965Zm0 0"/><g clip-path="url(#d)"><path style="fill:none;stroke-width:.3985;stroke-linecap:butt;stroke-linejoin:miter;stroke:#00c;stroke-opacity:1;stroke-miterlimit:10" d="M90.661 79.703c0 5.5-4.46 9.96-9.964 9.96-5.5 0-9.961-4.46-9.961-9.96 0-5.504 4.46-9.965 9.96-9.965 5.504 0 9.965 4.461 9.965 9.965Zm0 0" transform="matrix(1 0 0 -1 5.718 91.41)"/></g><path style="fill-rule:nonzero;fill:#fff;fill-opacity:1;stroke-width:.3985;stroke-linecap:butt;stroke-linejoin:miter;stroke:#ccc;stroke-opacity:1;stroke-miterlimit:10" d="M44.833 52.805c0 5.5-4.46 9.96-9.965 9.96-5.5 0-9.96-4.46-9.96-9.96 0-5.504 4.46-9.965 9.96-9.965 5.504 0 9.965 4.46 9.965 9.965Zm0 0" transform="matrix(1 0 0 -1 5.718 91.41)"/><path style="fill-rule:nonzero;fill:#9f9;fill-opacity:1;stroke-width:.3985;stroke-linecap:butt;stroke-linejoin:miter;stroke:#0c0;stroke-opacity:1;stroke-miterlimit:10" d="M66.751 54.797c0 5.5-4.46 9.96-9.965 9.96-5.5 0-9.96-4.46-9.96-9.96 0-5.504 4.46-9.965 9.96-9.965 5.504 0 9.965 4.46 9.965 9.965Zm0 0" transform="matrix(1 0 0 -1 5.718 91.41)"/><path style="stroke:none;fill-rule:nonzero;fill:#9f9;fill-opacity:1" d="M97.375 53.55c0-5.5-4.46-9.96-9.96-9.96-5.505 0-9.966 4.46-9.966 9.96 0 5.505 4.461 9.966 9.965 9.966 5.5 0 9.961-4.461 9.961-9.965Zm0 0"/><g clip-path="url(#e)"><path style="fill:none;stroke-width:.3985;stroke-linecap:butt;stroke-linejoin:miter;stroke:#0c0;stroke-opacity:1;stroke-miterlimit:10" d="M91.657 37.86c0 5.5-4.46 9.96-9.96 9.96-5.504 0-9.965-4.46-9.965-9.96 0-5.505 4.46-9.966 9.965-9.966 5.5 0 9.96 4.461 9.96 9.965Zm0 0" transform="matrix(1 0 0 -1 5.718 91.41)"/></g><path style="fill-rule:nonzero;fill:#99f;fill-opacity:1;stroke-width:.3985;stroke-linecap:butt;stroke-linejoin:miter;stroke:#00c;stroke-opacity:1;stroke-miterlimit:10" d="M45.83 73.726c0 3.301-2.676 5.977-5.977 5.977a5.978 5.978 0 1 1 5.977-5.977Zm0 0" transform="matrix(1 0 0 -1 5.718 91.41)"/><path style="stroke:none;fill-rule:nonzero;fill:#fffa99;fill-opacity:1" d="M92.395 87.426a7.974 7.974 0 0 0-7.973-7.973c-4.399 0-7.969 3.57-7.969 7.973a7.97 7.97 0 0 0 7.969 7.969 7.97 7.97 0 0 0 7.973-7.97Zm0 0"/><g clip-path="url(#f)"><path style="fill:none;stroke-width:.3985;stroke-linecap:butt;stroke-linejoin:miter;stroke:#d2c92a;stroke-opacity:1;stroke-miterlimit:10" d="M86.677 3.984a7.974 7.974 0 0 1-7.973 7.973c-4.398 0-7.968-3.57-7.968-7.973a7.97 7.97 0 0 1 7.968-7.969 7.97 7.97 0 0 1 7.973 7.97Zm0 0" transform="matrix(1 0 0 -1 5.718 91.41)"/></g><path style="fill-rule:nonzero;fill:#fffa99;fill-opacity:1;stroke-width:.3985;stroke-linecap:butt;stroke-linejoin:miter;stroke:#d2c92a;stroke-opacity:1;stroke-miterlimit:10" d="M48.818 27.894c0 4.953-4.016 8.97-8.965 8.97a8.969 8.969 0 0 1-8.969-8.97c0-4.949 4.016-8.964 8.969-8.964 4.949 0 8.965 4.015 8.965 8.964ZM39.853 47.82a4.983 4.983 0 1 1-9.966.003 4.983 4.983 0 0 1 9.966-.003Zm0 0" transform="matrix(1 0 0 -1 5.718 91.41)"/><path style="fill-rule:nonzero;fill:#fff;fill-opacity:1;stroke-width:.3985;stroke-linecap:butt;stroke-linejoin:miter;stroke:#ccc;stroke-opacity:1;stroke-miterlimit:10" d="M57.782 72.726a4.982 4.982 0 0 1-4.98 4.985 4.982 4.982 0 0 1 0-9.965c2.75 0 4.98 2.23 4.98 4.98Zm0 0" transform="matrix(1 0 0 -1 5.718 91.41)"/><path style="fill-rule:nonzero;fill:#9f9;fill-opacity:1;stroke-width:.3985;stroke-linecap:butt;stroke-linejoin:miter;stroke:#0c0;stroke-opacity:1;stroke-miterlimit:10" d="M69.74 80.7c0 5.5-4.461 9.96-9.965 9.96-5.5 0-9.961-4.46-9.961-9.96 0-5.505 4.46-9.966 9.96-9.966 5.505 0 9.966 4.461 9.966 9.965Zm0 0" transform="matrix(1 0 0 -1 5.718 91.41)"/><path style="fill-rule:nonzero;fill:#f99;fill-opacity:1;stroke-width:.3985;stroke-linecap:butt;stroke-linejoin:miter;stroke:#c00;stroke-opacity:1;stroke-miterlimit:10" d="M45.83 26.898c0 5.504-4.462 9.965-9.965 9.965-5.5 0-9.961-4.46-9.961-9.965 0-5.5 4.46-9.96 9.96-9.96 5.504 0 9.965 4.46 9.965 9.96Zm0 0" transform="matrix(1 0 0 -1 5.718 91.41)"/><path style="fill-rule:nonzero;fill:#fff;fill-opacity:1;stroke-width:.3985;stroke-linecap:butt;stroke-linejoin:miter;stroke:#ccc;stroke-opacity:1;stroke-miterlimit:10" d="M17.935 79.703a6.975 6.975 0 1 1-13.95-.005 6.975 6.975 0 0 1 13.95.005Zm0 0" transform="matrix(1 0 0 -1 5.718 91.41)"/><path style="fill-rule:nonzero;fill:#99f;fill-opacity:1;stroke-width:.3985;stroke-linecap:butt;stroke-linejoin:miter;stroke:#00c;stroke-opacity:1;stroke-miterlimit:10" d="M42.841 70.734a4.983 4.983 0 1 1-9.966.003 4.983 4.983 0 0 1 9.966-.003Zm0 0" transform="matrix(1 0 0 -1 5.718 91.41)"/><path style="fill-rule:nonzero;fill:#9f9;fill-opacity:1;stroke-width:.3985;stroke-linecap:butt;stroke-linejoin:miter;stroke:#0c0;stroke-opacity:1;stroke-miterlimit:10" d="M36.86 41.844a8.962 8.962 0 0 1-8.964 8.964 8.962 8.962 0 0 1-8.965-8.964 8.962 8.962 0 0 1 8.965-8.965 8.962 8.962 0 0 1 8.965 8.965Zm0 0" transform="matrix(1 0 0 -1 5.718 91.41)"/><path style="fill-rule:nonzero;fill:#fffa99;fill-opacity:1;stroke-width:.3985;stroke-linecap:butt;stroke-linejoin:miter;stroke:#d2c92a;stroke-opacity:1;stroke-miterlimit:10" d="M71.732 8.965a7.97 7.97 0 1 1-15.942 0c0-4.399 3.57-7.97 7.973-7.97a7.97 7.97 0 0 1 7.969 7.97Zm0 0" transform="matrix(1 0 0 -1 5.718 91.41)"/><path style="fill-rule:nonzero;fill:#99f;fill-opacity:1;stroke-width:.3985;stroke-linecap:butt;stroke-linejoin:miter;stroke:#00c;stroke-opacity:1;stroke-miterlimit:10" d="M47.822 48.816c0 4.953-4.016 8.969-8.965 8.969a8.969 8.969 0 0 1-8.969-8.969c0-4.949 4.016-8.965 8.969-8.965 4.949 0 8.965 4.016 8.965 8.965ZM19.927 80.7c0 5.5-4.46 9.96-9.965 9.96-5.5 0-9.96-4.46-9.96-9.96 0-5.505 4.46-9.966 9.96-9.966 5.504 0 9.965 4.461 9.965 9.965Zm0 0" transform="matrix(1 0 0 -1 5.718 91.41)"/><path style="fill-rule:nonzero;fill:#fff;fill-opacity:1;stroke-width:.3985;stroke-linecap:butt;stroke-linejoin:miter;stroke:#ccc;stroke-opacity:1;stroke-miterlimit:10" d="M60.775 9.965a6.975 6.975 0 1 1-13.95-.005 6.975 6.975 0 0 1 13.95.005Zm0 0" transform="matrix(1 0 0 -1 5.718 91.41)"/><path style="stroke:none;fill-rule:nonzero;fill:#fff;fill-opacity:1" d="M25.645 89.418a6.975 6.975 0 0 0-13.95 0 6.975 6.975 0 0 0 13.95 0Zm0 0"/><g clip-path="url(#g)"><path style="fill:none;stroke-width:.3985;stroke-linecap:butt;stroke-linejoin:miter;stroke:#ccc;stroke-opacity:1;stroke-miterlimit:10" d="M19.927 1.992a6.975 6.975 0 0 1-13.95 0 6.975 6.975 0 0 1 13.95 0Zm0 0" transform="matrix(1 0 0 -1 5.718 91.41)"/></g><path style="fill-rule:nonzero;fill:#f99;fill-opacity:1;stroke-width:.3985;stroke-linecap:butt;stroke-linejoin:miter;stroke:#c00;stroke-opacity:1;stroke-miterlimit:10" d="M67.747 83.687a6.975 6.975 0 0 1-13.95 0 6.975 6.975 0 0 1 13.95 0Zm0 0" transform="matrix(1 0 0 -1 5.718 91.41)"/><path style="fill-rule:nonzero;fill:#9f9;fill-opacity:1;stroke-width:.3985;stroke-linecap:butt;stroke-linejoin:miter;stroke:#0c0;stroke-opacity:1;stroke-miterlimit:10" d="M63.763 64.758c0 3.3-2.676 5.976-5.98 5.976a5.977 5.977 0 1 1 0-11.953 5.977 5.977 0 0 1 5.98 5.977Zm0 0" transform="matrix(1 0 0 -1 5.718 91.41)"/><path style="fill-rule:nonzero;fill:#fff;fill-opacity:1;stroke-width:.3985;stroke-linecap:butt;stroke-linejoin:miter;stroke:#ccc;stroke-opacity:1;stroke-miterlimit:10" d="M52.802 82.691a6.972 6.972 0 0 1-6.973 6.973 6.972 6.972 0 0 1-6.972-6.973 6.972 6.972 0 0 1 6.972-6.972 6.972 6.972 0 0 1 6.973 6.972Zm0 0" transform="matrix(1 0 0 -1 5.718 91.41)"/><path style="fill-rule:nonzero;fill:#9f9;fill-opacity:1;stroke-width:.3985;stroke-linecap:butt;stroke-linejoin:miter;stroke:#0c0;stroke-opacity:1;stroke-miterlimit:10" d="M75.716 21.918a5.977 5.977 0 1 1-11.953 0 5.977 5.977 0 0 1 11.953 0Zm0 0" transform="matrix(1 0 0 -1 5.718 91.41)"/><path style="fill-rule:nonzero;fill:#99f;fill-opacity:1;stroke-width:.3985;stroke-linecap:butt;stroke-linejoin:miter;stroke:#00c;stroke-opacity:1;stroke-miterlimit:10" d="M78.704 73.726c0 5.5-4.457 9.961-9.96 9.961-5.504 0-9.965-4.46-9.965-9.96 0-5.505 4.46-9.965 9.964-9.965 5.504 0 9.961 4.46 9.961 9.964ZM18.93 84.683a5.98 5.98 0 0 1-5.98 5.977 5.977 5.977 0 1 1 0-11.953 5.98 5.98 0 0 1 5.98 5.976Zm0 0" transform="matrix(1 0 0 -1 5.718 91.41)"/><path style="fill-rule:nonzero;fill:#99f;fill-opacity:1;stroke-width:.3985;stroke-linecap:butt;stroke-linejoin:miter;stroke:#00c;stroke-opacity:1;stroke-miterlimit:10" d="M81.697 56.789c0 4.95-4.016 8.965-8.97 8.965a8.965 8.965 0 0 1-8.964-8.965c0-4.953 4.012-8.969 8.965-8.969a8.969 8.969 0 0 1 8.969 8.969Zm0 0" transform="matrix(1 0 0 -1 5.718 91.41)"/><path style="fill-rule:nonzero;fill:#9f9;fill-opacity:1;stroke-width:.3985;stroke-linecap:butt;stroke-linejoin:miter;stroke:#0c0;stroke-opacity:1;stroke-miterlimit:10" d="M53.798 7.969a4.982 4.982 0 0 1-4.98 4.984 4.982 4.982 0 0 1 0-9.965c2.75 0 4.98 2.23 4.98 4.98Zm0 0" transform="matrix(1 0 0 -1 5.718 91.41)"/><path style="fill-rule:nonzero;fill:#f99;fill-opacity:1;stroke-width:.3985;stroke-linecap:butt;stroke-linejoin:miter;stroke:#c00;stroke-opacity:1;stroke-miterlimit:10" d="M56.786 56.789a5.977 5.977 0 1 1-11.953 0 5.98 5.98 0 0 1 5.977-5.98 5.98 5.98 0 0 1 5.976 5.98Zm0 0" transform="matrix(1 0 0 -1 5.718 91.41)"/><path style="stroke:none;fill-rule:nonzero;fill:#fff;fill-opacity:1" d="M96.379 84.438c0-4.403-3.57-7.973-7.969-7.973a7.97 7.97 0 1 0 0 15.941 7.97 7.97 0 0 0 7.969-7.968Zm0 0"/><g clip-path="url(#h)"><path style="fill:none;stroke-width:.3985;stroke-linecap:butt;stroke-linejoin:miter;stroke:#ccc;stroke-opacity:1;stroke-miterlimit:10" d="M90.661 6.973c0 4.402-3.57 7.972-7.968 7.972a7.97 7.97 0 1 1 0-15.941 7.97 7.97 0 0 1 7.968 7.969Zm0 0" transform="matrix(1 0 0 -1 5.718 91.41)"/></g><path style="fill-rule:nonzero;fill:#fffa99;fill-opacity:1;stroke-width:.3985;stroke-linecap:butt;stroke-linejoin:miter;stroke:#d2c92a;stroke-opacity:1;stroke-miterlimit:10" d="M40.849 53.8c0 4.4-3.57 7.97-7.973 7.97a7.97 7.97 0 0 1-7.968-7.97 7.97 7.97 0 1 1 15.94 0Zm0 0" transform="matrix(1 0 0 -1 5.718 91.41)"/></svg>