<svg xmlns="http://www.w3.org/2000/svg" xmlns:xlink="http://www.w3.org/1999/xlink" width="140.499" height="83.787" viewBox="0 0 105.374 62.84" version="1.2"><defs><symbol overflow="visible" id="b"><path style="stroke:none" d="M8.25 0v-.469h-.969L4.72-6.703c-.11-.25-.219-.25-.39-.25-.282 0-.329.078-.391.25l-2.47 6c-.062.156-.093.234-.843.234H.406V0l1.172-.031c.39 0 .938 0 1.313.031v-.469S2-.469 2-.594l.047-.125.5-1.203h2.672l.593 1.453H4.86V0c.391-.031 1.329-.031 1.766-.031.39 0 1.266 0 1.625.031ZM5.016-2.39H2.734l1.141-2.766Zm0 0"/></symbol><symbol overflow="visible" id="c"><path style="stroke:none" d="M7.5-1.86c0-.952-.844-1.624-2.031-1.702 1.078-.204 1.718-.797 1.718-1.563 0-.922-.875-1.719-2.468-1.719H.39v.469h1.078v5.906H.39V0h4.625C6.672 0 7.5-.875 7.5-1.86ZM5.766-5.124c0 .766-.47 1.39-1.438 1.39H2.766v-2.64h1.812c1.016 0 1.188.797 1.188 1.25Zm.28 3.266c0 .109 0 1.39-1.437 1.39H2.766v-2.906h1.937c.203 0 .672 0 1.016.422.328.422.328.984.328 1.094Zm0 0"/></symbol><clipPath id="a"><path d="M0 0h105.063v62.762H0Zm0 0"/></clipPath></defs><path style="stroke:none;fill-rule:nonzero;fill:#d2c92a;fill-opacity:1" d="M2.766 59.691C.273 42.684.273 20.004 2.766 2.996 32.53.508 72.215.508 101.98 2.996c2.489 17.008 2.489 39.688 0 56.695-29.765 2.493-69.449 2.493-99.214 0"/><g clip-path="url(#a)"><path style="fill:none;stroke-width:.3985;stroke-linecap:butt;stroke-linejoin:miter;stroke:#000;stroke-opacity:1;stroke-miterlimit:10" d="M0 0c-2.492 17.007-2.492 39.687 0 56.695 29.766 2.488 69.45 2.488 99.215 0 2.489-17.008 2.489-39.688 0-56.695C69.45-2.493 29.766-2.493.001 0" transform="matrix(1 0 0 -1 2.765 59.691)"/></g><path style="fill:none;stroke-width:.3985;stroke-linecap:butt;stroke-linejoin:miter;stroke:#000;stroke-opacity:1;stroke-miterlimit:10" d="M24.372 14.171c0 5.637-4.567 10.2-10.2 10.2-5.632 0-10.199-4.563-10.199-10.2 0-5.632 4.567-10.199 10.2-10.199 5.632 0 10.199 4.567 10.199 10.2Zm0 0" transform="matrix(1 0 0 -1 2.765 59.691)"/><use xlink:href="#b" x="12.609" y="48.995" style="fill:#000;fill-opacity:1"/><path style="fill:none;stroke-width:.3985;stroke-linecap:butt;stroke-linejoin:miter;stroke:#000;stroke-opacity:1;stroke-miterlimit:10" d="M95.055 42.52c0 5.534-4.484 10.019-10.015 10.019-5.532 0-10.016-4.485-10.016-10.02 0-5.531 4.484-10.015 10.016-10.015 5.53 0 10.015 4.484 10.015 10.015Zm0 0" transform="matrix(1 0 0 -1 2.765 59.691)"/><use xlink:href="#c" x="83.73" y="20.588" style="fill:#000;fill-opacity:1"/><path style="fill:none;stroke-width:.3985;stroke-linecap:butt;stroke-linejoin:miter;stroke:#000;stroke-opacity:1;stroke-miterlimit:10" d="M23.829 18.035c14.468 8.449 34.941 16.66 51.312 20.59" transform="matrix(1 0 0 -1 2.765 59.691)"/><path style="fill:none;stroke-width:.3985;stroke-linecap:round;stroke-linejoin:round;stroke:#000;stroke-opacity:1;stroke-miterlimit:10" d="M-2.073 2.392C-1.694.958-.851.28 0-.002-.85-.278-1.694-.957-2.073-2.389" transform="matrix(.97304 -.2304 -.2304 -.97304 78.1 21.022)"/><path style="fill:none;stroke-width:.3985;stroke-linecap:butt;stroke-linejoin:miter;stroke:#000;stroke-opacity:1;stroke-miterlimit:10" d="M75.555 38.726c-14.472-8.45-34.941-16.66-51.316-20.59" transform="matrix(1 0 0 -1 2.765 59.691)"/><path style="fill:none;stroke-width:.3985;stroke-linecap:round;stroke-linejoin:round;stroke:#000;stroke-opacity:1;stroke-miterlimit:10" d="M-2.07 2.392C-1.695.958-.848.28 0-.001-.847-.278-1.694-.957-2.07-2.393" transform="matrix(-.97304 .2304 .2304 .97304 26.813 41.599)"/></svg>