<svg xmlns="http://www.w3.org/2000/svg" width="107.16" height="63.675" viewBox="0 0 80.37 47.756" version="1.2"><path style="stroke:none;fill-rule:nonzero;fill:#ff8080;fill-opacity:1" d="M.895 12.43V1.094h14.171V12.43Zm0 0"/><path style="stroke:none;fill-rule:nonzero;fill:#80ff80;fill-opacity:1" d="M.895 23.762V12.43h14.171v11.332Zm0 0"/><path style="stroke:none;fill-rule:nonzero;fill:#8080ff;fill-opacity:1" d="M.895 35.094V23.762h14.171v11.332Zm0 0"/><path style="stroke:none;fill-rule:nonzero;fill:#fff880;fill-opacity:1" d="M.895 46.43V35.094h14.171V46.43Zm0 0"/><path style="fill:none;stroke-width:.3985;stroke-linecap:butt;stroke-linejoin:miter;stroke:#000;stroke-opacity:1;stroke-miterlimit:10" d="M-7.085-22.668H7.086v45.336H-7.085Zm14.171 34H-7.085M7.086 0H-7.085M7.086-11.332H-7.085" transform="matrix(1 0 0 -1 7.98 23.762)"/><path style="stroke:none;fill-rule:nonzero;fill:#ff8080;fill-opacity:1" d="M22.152 12.43V1.094h14.176V12.43Zm0 0"/><path style="stroke:none;fill-rule:nonzero;fill:#80ff80;fill-opacity:1" d="M22.152 23.762V12.43h14.176v11.332Zm0 0"/><path style="stroke:none;fill-rule:nonzero;fill:#8080ff;fill-opacity:1" d="M22.152 35.094V23.762h14.176v11.332ZM22.152 46.43V35.094h14.176V46.43Zm0 0"/><path style="fill:none;stroke-width:.3985;stroke-linecap:butt;stroke-linejoin:miter;stroke:#000;stroke-opacity:1;stroke-miterlimit:10" d="M14.172-22.668h14.176v45.336H14.172Zm14.176 34H14.172M28.348 0H14.172m14.176-11.332H14.172" transform="matrix(1 0 0 -1 7.98 23.762)"/><path style="stroke:none;fill-rule:nonzero;fill:#ff8080;fill-opacity:1" d="M43.414 12.43V1.094h14.172V12.43Zm0 0"/><path style="stroke:none;fill-rule:nonzero;fill:#80ff80;fill-opacity:1" d="M43.414 23.762V12.43h14.172v11.332ZM43.414 35.094V23.762h14.172v11.332ZM43.414 46.43V35.094h14.172V46.43Zm0 0"/><path style="fill:none;stroke-width:.3985;stroke-linecap:butt;stroke-linejoin:miter;stroke:#000;stroke-opacity:1;stroke-miterlimit:10" d="M35.434-22.668h14.172v45.336H35.434Zm14.172 34H35.434M49.606 0H35.434m14.172-11.332H35.434" transform="matrix(1 0 0 -1 7.98 23.762)"/><path style="stroke:none;fill-rule:nonzero;fill:#ff8080;fill-opacity:1" d="M64.672 12.43V1.094h14.176V12.43ZM64.672 23.762V12.43h14.176v11.332ZM64.672 35.094V23.762h14.176v11.332ZM64.672 46.43V35.094h14.176V46.43Zm0 0"/><path style="fill:none;stroke-width:.3985;stroke-linecap:butt;stroke-linejoin:miter;stroke:#000;stroke-opacity:1;stroke-miterlimit:10" d="M56.692-22.668h14.176v45.336H56.692Zm14.176 34H56.692M70.868 0H56.692m14.176-11.332H56.692" transform="matrix(1 0 0 -1 7.98 23.762)"/></svg>