<svg xmlns="http://www.w3.org/2000/svg" width="116.077" height="154.419" viewBox="0 0 87.058 115.814" version="1.2"><path style="fill:none;stroke-width:.3985;stroke-linecap:butt;stroke-linejoin:miter;stroke:#000;stroke-opacity:1;stroke-miterlimit:10" d="M.001.001h28.344v28.344h28.347V.001H85.04M.001-42.518h9.45v9.445h9.445v-9.445h9.449v9.445H18.9v9.45h9.445v9.448h9.449v9.45h9.45v-9.45h9.448v-9.449h9.45v-9.449h-9.45v-9.445h9.45v9.445h9.449v-9.445h9.45M.001-85.042H3.15v3.153h3.149v-3.153H9.45v3.153H6.298v3.148H9.45v3.148H12.6v3.149h3.148v-3.148h3.149v-3.149h3.152v-3.148h-3.152v-3.153h3.152v3.153h3.148v-3.153h3.149v3.153h-3.149v3.148h3.149v3.148h-3.149v-3.148h-3.148v3.148H18.9v3.149h-3.153v3.152H18.9v3.149h3.149v3.148h3.148v-3.148h3.149v3.148h-3.149v3.152h3.149v3.149h3.152v3.148h3.149v-3.148h3.148v3.148h-3.148v3.153h3.148v3.148h3.152v3.149h3.149v-3.149h3.148v-3.148h3.149v-3.153h-3.149v-3.148h3.149v3.148h3.152v-3.148h3.148v-3.148h3.149v-3.153h-3.149v-3.148h3.149v3.148h3.152v-3.148h3.149v-3.149h3.148v-3.148h-3.148v-3.153h-3.149v-3.148h-3.152v3.148h-3.149v-3.148h3.149v-3.148h-3.149v-3.153h3.149v3.153h3.152v-3.153h3.149v3.153h-3.149v3.148h3.149v3.148h3.148v3.153h3.152v-3.153h3.149v-3.148h3.148v-3.148h-3.148v-3.153h3.148v3.153h3.153v-3.153h3.148" transform="matrix(1 0 0 -1 .538 29.47)"/></svg>