<svg xmlns="http://www.w3.org/2000/svg" width="116.211" height="77.931" viewBox="0 0 87.158 58.448" version="1.2"><path style="fill:none;stroke-width:.3985;stroke-linecap:butt;stroke-linejoin:miter;stroke:#000;stroke-opacity:1;stroke-miterlimit:10" d="M0 0C20.34 11.744 40.12 15.17 60.131 10.279" transform="matrix(1 0 0 -1 .688 41.04)"/><path style="stroke:none;fill-rule:nonzero;fill:#000;fill-opacity:1" d="M85.727 41.04a176.1 176.1 0 0 0-9.797-12.747 147.6 147.6 0 0 0-11.743-11.3 134.331 134.331 0 0 0-14.152-9.4A136.779 136.779 0 0 0 33.383.744a161.288 161.288 0 0 1 8.758 13.695 151.458 151.458 0 0 1 6.336 14.359 142.073 142.073 0 0 0-5.985 13.984 138.691 138.691 0 0 0-3.566 14.38A66.15 66.15 0 0 1 46.922 50c3.219-2.047 6.734-3.879 10.535-5.473 4.086-1.332 8.445-2.382 13.063-3.136 4.855-.438 9.972-.536 15.207-.352Zm0 0"/></svg>