<svg xmlns="http://www.w3.org/2000/svg" width="94.25pt" height="67.731" viewBox="0 0 94.25 50.798" version="1.2"><defs><clipPath id="a"><path d="M0 0h93.875v13H0Zm0 0"/></clipPath><clipPath id="b"><path d="M0 9h93.875v18H0Zm0 0"/></clipPath><clipPath id="c"><path d="M0 38h93.875v12.695H0Zm0 0"/></clipPath></defs><path style="stroke:none;fill-rule:nonzero;fill:#ff8080;fill-opacity:1" d="M7.383 4.129 1.71 1.297l.973 2.832-.973 2.836Zm7.086 0L8.797 1.297l.976 2.832-.976 2.836Zm7.086 0-5.668-2.832.972 2.832-.972 2.836Zm7.086 0-5.668-2.832.972 2.832-.972 2.836Zm7.09 0-5.672-2.832.972 2.832-.972 2.836Zm7.085 0-5.671-2.832.972 2.832-.972 2.836Zm7.086 0L44.23 1.297l.973 2.832-.973 2.836Zm7.086 0L51.32 1.297l.973 2.832-.973 2.836Zm7.086 0-5.668-2.832.973 2.832-.973 2.836Zm7.09 0-5.672-2.832.973 2.832-.973 2.836Zm7.086 0-5.672-2.832.973 2.832-.973 2.836Zm7.086 0-5.672-2.832.973 2.832-.973 2.836Zm7.086 0-5.668-2.832.973 2.832-.973 2.836Zm0 0"/><g clip-path="url(#a)"><path style="fill:none;stroke-width:.3985;stroke-linecap:butt;stroke-linejoin:miter;stroke:maroon;stroke-opacity:1;stroke-miterlimit:10" d="m3.634 42.522-5.672 2.832.973-2.832-.973-2.836Zm7.086 0-5.672 2.832.976-2.832-.976-2.836Zm7.086 0-5.668 2.832.972-2.832-.972-2.836Zm7.086 0-5.668 2.832.972-2.832-.972-2.836Zm7.09 0-5.672 2.832.972-2.832-.972-2.836Zm7.085 0-5.671 2.832.972-2.832-.972-2.836Zm7.086 0-5.672 2.832.973-2.832-.973-2.836Zm7.086 0-5.668 2.832.973-2.832-.973-2.836Zm7.086 0-5.668 2.832.973-2.832-.973-2.836Zm7.09 0-5.672 2.832.973-2.832-.973-2.836Zm7.086 0-5.672 2.832.973-2.832-.973-2.836Zm7.086 0-5.672 2.832.973-2.832-.973-2.836Zm7.086 0-5.668 2.832.973-2.832-.973-2.836Zm0 0" transform="matrix(1 0 0 -1 3.749 46.651)"/></g><path style="stroke:none;fill-rule:nonzero;fill:#80ff80;fill-opacity:1" d="M6.582 18.305 3.75 15.469.914 18.305l2.836 2.832Zm7.09 0-2.836-2.836L8 18.305l2.836 2.832Zm7.086 0-2.836-2.836-2.832 2.836 2.832 2.832Zm7.086 0-2.836-2.836-2.832 2.836 2.832 2.832Zm7.086 0-2.836-2.836-2.832 2.836 2.832 2.832Zm7.086 0-2.832-2.836-2.836 2.836 2.836 2.832Zm7.086 0-2.832-2.836-2.836 2.836 2.836 2.832Zm7.09 0-2.837-2.836-2.835 2.836 2.835 2.832Zm7.085 0-2.836-2.836-2.832 2.836 2.832 2.832Zm7.086 0-2.836-2.836-2.832 2.836 2.832 2.832Zm7.086 0-2.832-2.836-2.836 2.836 2.836 2.832Zm7.086 0-2.832-2.836-2.836 2.836 2.836 2.832Zm7.09 0-2.836-2.836-2.836 2.836 2.836 2.832Zm0 0"/><g clip-path="url(#b)"><path style="fill:none;stroke-width:.3985;stroke-linecap:butt;stroke-linejoin:miter;stroke:green;stroke-opacity:1;stroke-miterlimit:10" d="M2.833 28.346.001 31.182l-2.836-2.836 2.836-2.832Zm7.09 0-2.836 2.836-2.836-2.836 2.836-2.832Zm7.086 0-2.836 2.836-2.832-2.836 2.832-2.832Zm7.086 0-2.836 2.836-2.832-2.836 2.832-2.832Zm7.086 0-2.836 2.836-2.832-2.836 2.832-2.832Zm7.086 0-2.832 2.836-2.836-2.836 2.836-2.832Zm7.086 0-2.832 2.836-2.836-2.836 2.836-2.832Zm7.09 0-2.837 2.836-2.835-2.836 2.835-2.832Zm7.085 0-2.836 2.836-2.832-2.836 2.832-2.832Zm7.086 0-2.836 2.836-2.832-2.836 2.832-2.832Zm7.086 0-2.832 2.836-2.836-2.836 2.836-2.832Zm7.086 0-2.832 2.836-2.836-2.836 2.836-2.832Zm7.09 0-2.836 2.836-2.836-2.836 2.836-2.832Zm0 0" transform="matrix(1 0 0 -1 3.749 46.651)"/></g><path style="fill-rule:nonzero;fill:#8080ff;fill-opacity:1;stroke-width:.3985;stroke-linecap:butt;stroke-linejoin:miter;stroke:navy;stroke-opacity:1;stroke-miterlimit:10" d="M2.833 17.006h-5.668v-5.668h5.668Zm7.09 0H4.25v-5.668h5.672Zm7.086 0H11.34v-5.668h5.668Zm7.086 0h-5.668v-5.668h5.668Zm7.086 0h-5.668v-5.668h5.668Zm7.086 0h-5.668v-5.668h5.668Zm7.086 0h-5.668v-5.668h5.668Zm7.09 0H46.77v-5.668h5.671Zm7.085 0H53.86v-5.668h5.668Zm7.086 0h-5.668v-5.668h5.668Zm7.086 0h-5.668v-5.668H73.7Zm7.086 0h-5.668v-5.668h5.668Zm7.09 0h-5.672v-5.668h5.672Zm0 0" transform="matrix(1 0 0 -1 3.749 46.651)"/><path style="stroke:none;fill-rule:nonzero;fill:#fff880;fill-opacity:1" d="M6.582 46.652a2.832 2.832 0 0 0-2.832-2.836 2.835 2.835 0 1 0 2.832 2.836Zm7.09 0a2.836 2.836 0 1 0-5.672 0 2.835 2.835 0 0 0 2.836 2.832 2.835 2.835 0 0 0 2.836-2.832Zm7.086 0a2.836 2.836 0 1 0-5.672 0 2.835 2.835 0 0 0 2.836 2.832 2.835 2.835 0 0 0 2.836-2.832Zm7.086 0a2.836 2.836 0 0 0-2.836-2.836 2.832 2.832 0 0 0-2.832 2.836 2.835 2.835 0 0 0 5.668 0Zm7.086 0a2.835 2.835 0 1 0-2.836 2.832 2.835 2.835 0 0 0 2.836-2.832Zm7.086 0a2.835 2.835 0 1 0-5.668 0 2.835 2.835 0 0 0 5.668 0Zm7.09 0a2.836 2.836 0 1 0-5.672 0 2.835 2.835 0 0 0 2.836 2.832 2.835 2.835 0 0 0 2.835-2.832Zm7.085 0a2.836 2.836 0 1 0-5.671 0 2.835 2.835 0 0 0 2.835 2.832 2.835 2.835 0 0 0 2.836-2.832Zm7.086 0a2.836 2.836 0 1 0-5.672 0 2.835 2.835 0 0 0 2.836 2.832 2.835 2.835 0 0 0 2.836-2.832Zm7.086 0a2.835 2.835 0 1 0-2.836 2.832 2.835 2.835 0 0 0 2.836-2.832Zm7.086 0a2.835 2.835 0 1 0-5.668 0 2.835 2.835 0 0 0 5.668 0Zm7.09 0a2.836 2.836 0 1 0-5.672 0 2.835 2.835 0 0 0 2.836 2.832 2.835 2.835 0 0 0 2.836-2.832Zm7.086 0a2.836 2.836 0 1 0-5.672 0 2.835 2.835 0 0 0 2.836 2.832 2.835 2.835 0 0 0 2.836-2.832Zm0 0"/><g clip-path="url(#c)"><path style="fill:none;stroke-width:.3985;stroke-linecap:butt;stroke-linejoin:miter;stroke:#8f8a48;stroke-opacity:1;stroke-miterlimit:10" d="M2.833-.001A2.832 2.832 0 0 1 .001 2.835 2.835 2.835 0 1 1 2.833-.001Zm7.09 0a2.836 2.836 0 1 1-5.672 0 2.835 2.835 0 0 1 2.836-2.832A2.835 2.835 0 0 1 9.923-.001Zm7.086 0a2.836 2.836 0 1 1-5.672 0 2.835 2.835 0 0 1 2.836-2.832 2.835 2.835 0 0 1 2.836 2.832Zm7.086 0a2.836 2.836 0 0 1-2.836 2.836 2.832 2.832 0 0 1-2.832-2.836 2.835 2.835 0 0 1 5.668 0Zm7.086 0a2.835 2.835 0 1 1-2.836-2.832A2.835 2.835 0 0 1 31.18-.001Zm7.086 0a2.835 2.835 0 1 1-5.668 0 2.835 2.835 0 0 1 5.668 0Zm7.09 0a2.836 2.836 0 1 1-5.672 0 2.835 2.835 0 0 1 2.836-2.832 2.835 2.835 0 0 1 2.835 2.832Zm7.085 0a2.836 2.836 0 1 1-5.671 0 2.835 2.835 0 0 1 2.835-2.832 2.835 2.835 0 0 1 2.836 2.832Zm7.086 0a2.836 2.836 0 1 1-5.672 0 2.835 2.835 0 0 1 2.836-2.832 2.835 2.835 0 0 1 2.836 2.832Zm7.086 0a2.835 2.835 0 1 1-2.836-2.832 2.835 2.835 0 0 1 2.836 2.832Zm7.086 0a2.835 2.835 0 1 1-5.668 0 2.835 2.835 0 0 1 5.668 0Zm7.09 0a2.836 2.836 0 1 1-5.672 0 2.835 2.835 0 0 1 2.836-2.832A2.835 2.835 0 0 1 80.79-.001Zm7.086 0a2.836 2.836 0 1 1-5.672 0 2.835 2.835 0 0 1 2.836-2.832 2.835 2.835 0 0 1 2.836 2.832Zm0 0" transform="matrix(1 0 0 -1 3.749 46.651)"/></g></svg>