<svg xmlns="http://www.w3.org/2000/svg" width="129.903" height="133.299" viewBox="0 0 97.427 99.974" version="1.2"><defs><clipPath id="a"><path d="M5 0h78v99.96H5Zm0 0"/></clipPath><clipPath id="b"><path d="M0 0h97.14v84H0Zm0 0"/></clipPath><clipPath id="c"><path d="M0 48h83v51.96H0Zm0 0"/></clipPath></defs><path style="fill:none;stroke-width:.3985;stroke-linecap:butt;stroke-linejoin:miter;stroke:#ff4040;stroke-opacity:1;stroke-miterlimit:10" d="M-.001-.001v87.593" transform="matrix(1 0 0 -1 5.904 93.776)"/><path style="fill:none;stroke-width:.3985;stroke-linecap:butt;stroke-linejoin:miter;stroke:#4040ff;stroke-opacity:1;stroke-miterlimit:10" d="M85.042-.001v87.593" transform="matrix(1 0 0 -1 5.904 93.776)"/><path style="fill:none;stroke-width:.3985;stroke-linecap:butt;stroke-linejoin:miter;stroke:gray;stroke-opacity:1;stroke-miterlimit:10" d="M-.001-.001h85.043M-.001 87.592h85.043M-4.982-4.982v97.555M90.022-4.982v97.555M-4.982-4.982h95.004M-4.982 92.573h95.004" transform="matrix(1 0 0 -1 5.904 93.776)"/><path style="fill:none;stroke-width:.59776;stroke-linecap:butt;stroke-linejoin:miter;stroke:#000;stroke-opacity:1;stroke-miterlimit:10" d="M42.518 42.674h8.504l8.508 22.457 17.008-11.23" transform="matrix(1 0 0 -1 5.904 93.776)"/><g clip-path="url(#a)"><path style="fill:none;stroke-width:.59776;stroke-linecap:butt;stroke-linejoin:miter;stroke:#000;stroke-opacity:1;stroke-miterlimit:10" d="m8.503-.001 8.504 20.215 8.504 67.378 42.523-67.379" transform="matrix(1 0 0 -1 5.904 93.776)"/></g><g clip-path="url(#b)"><path style="fill:none;stroke-width:.59776;stroke-linecap:butt;stroke-linejoin:miter;stroke:#000;stroke-opacity:1;stroke-miterlimit:10" d="m-.001 18.635 17.008 9.32L34.014 55.91l51.028 31.683" transform="matrix(1 0 0 -1 5.904 93.776)"/></g><g clip-path="url(#c)"><path style="fill:none;stroke-width:.59776;stroke-linecap:butt;stroke-linejoin:miter;stroke:#000;stroke-opacity:1;stroke-miterlimit:10" d="m-.001-.001 17.008 9.32 8.504 9.316 42.523 18.637" transform="matrix(1 0 0 -1 5.904 93.776)"/></g></svg>