<svg xmlns="http://www.w3.org/2000/svg" width="40.48" height="47.715" viewBox="0 0 30.36 35.786" version="1.2"><defs><clipPath id="a"><path d="M19 0h11.04v10H19Zm0 0"/></clipPath><clipPath id="b"><path d="M16 9h14.04v16H16Zm0 0"/></clipPath><clipPath id="c"><path d="M14 22h16.04v13.68H14Zm0 0"/></clipPath></defs><path style="fill:none;stroke-width:.3985;stroke-linecap:butt;stroke-linejoin:miter;stroke:#000;stroke-opacity:1;stroke-miterlimit:10" d="M-.002 28.346h25.286" transform="matrix(1 0 0 -1 .689 31.069)"/><path style="stroke:none;fill-rule:nonzero;fill:#000;fill-opacity:1" d="m28.469 2.723-3.57-1.348 1.171 1.348-1.172 1.343Zm0 0"/><g clip-path="url(#a)"><path style="fill:none;stroke-width:.3985;stroke-linecap:butt;stroke-linejoin:miter;stroke:#000;stroke-opacity:1;stroke-miterlimit:10" d="M4.215 0 .645 1.347 1.817 0 .645-1.344Zm0 0" transform="matrix(1 0 0 -1 24.254 2.722)"/></g><path style="fill:none;stroke-width:.3985;stroke-linecap:butt;stroke-linejoin:miter;stroke:#000;stroke-opacity:1;stroke-miterlimit:10" d="M-.002 14.174H23.67" transform="matrix(1 0 0 -1 .689 31.069)"/><path style="stroke:none;fill-rule:nonzero;fill:#000;fill-opacity:1" d="m28.469 16.895-5.961-2.243 1.949 2.243-1.95 2.242Zm0 0"/><g clip-path="url(#b)"><path style="fill:none;stroke-width:.3985;stroke-linecap:butt;stroke-linejoin:miter;stroke:#000;stroke-opacity:1;stroke-miterlimit:10" d="M6.606.001.646 2.243 2.593.001.645-2.24Zm0 0" transform="matrix(1 0 0 -1 21.863 16.896)"/></g><path style="fill:none;stroke-width:.3985;stroke-linecap:butt;stroke-linejoin:miter;stroke:#000;stroke-opacity:1;stroke-miterlimit:10" d="M-.002-.001h22.055" transform="matrix(1 0 0 -1 .689 31.069)"/><path style="stroke:none;fill-rule:nonzero;fill:#000;fill-opacity:1" d="m28.469 31.07-8.356-3.14 2.73 3.14-2.73 3.137Zm0 0"/><g clip-path="url(#c)"><path style="fill:none;stroke-width:.3985;stroke-linecap:butt;stroke-linejoin:miter;stroke:#000;stroke-opacity:1;stroke-miterlimit:10" d="M8.997-.001.642 3.139 3.372 0 .642-3.138Zm0 0" transform="matrix(1 0 0 -1 19.472 31.069)"/></g></svg>