<svg xmlns="http://www.w3.org/2000/svg" xmlns:xlink="http://www.w3.org/1999/xlink" width="143.083" height="124.611" viewBox="0 0 107.312 93.458" version="1.2"><defs><symbol overflow="visible" id="a"><path style="stroke:none" d="M5.719-2.031c0-1.094-.797-1.906-1.719-2.094l-1.438-.313c-.406-.093-.953-.421-.953-1.03 0-.438.282-1.048 1.266-1.048.797 0 1.813.329 2.047 1.688.031.25.031.266.234.266.25 0 .25-.047.25-.282v-1.828c0-.187 0-.281-.187-.281-.078 0-.078.016-.188.11l-.453.437C4-6.86 3.344-6.953 2.875-6.953c-1.516 0-2.234.969-2.234 2.016 0 .64.328 1.093.53 1.312.5.5.829.563 1.923.797.875.203 1.047.219 1.265.437.141.141.391.407.391.86 0 .484-.25 1.172-1.297 1.172-.75 0-2.265-.204-2.344-1.688-.015-.172-.015-.219-.234-.219-.234 0-.234.047-.234.282v1.812C.64.016.64.11.812.11.906.11.922.094 1 .016l.469-.454C2.125.047 3.047.11 3.453.11 5.11.11 5.72-1.016 5.72-2.03Zm0 0"/></symbol><symbol overflow="visible" id="b"><path style="stroke:none" d="M6.125 0v-.469h-.688v-2.578c0-1.047-.53-1.437-1.53-1.437a1.9 1.9 0 0 0-1.688.953v-3.39l-1.766.077v.469c.61 0 .688 0 .688.39v5.516H.453V0l1.25-.031L2.953 0v-.469h-.687v-2.078c0-1.094.859-1.578 1.5-1.578.328 0 .546.203.546.969V-.47h-.687V0l1.25-.031Zm0 0"/></symbol><symbol overflow="visible" id="c"><path style="stroke:none" d="M4.922-1.172c0-.172-.188-.172-.234-.172-.172 0-.188.047-.25.203-.204.485-.782.797-1.422.797-1.407 0-1.422-1.328-1.422-1.828h3.015c.22 0 .313 0 .313-.265 0-.313-.063-1.047-.563-1.547-.359-.36-.89-.532-1.578-.532C1.187-4.516.312-3.484.312-2.25c0 1.344 1 2.313 2.61 2.313 1.578 0 2-1.063 2-1.235ZM3.984-2.5h-2.39c.015-.39.031-.813.234-1.14.266-.391.672-.516.953-.516 1.172 0 1.188 1.312 1.203 1.656Zm0 0"/></symbol><symbol overflow="visible" id="d"><path style="stroke:none" d="M5.984-2.219c0-1.328-.906-2.265-2.343-2.265-.75 0-1.282.312-1.5.484v-.484l-1.766.078v.468c.61 0 .688 0 .688.376v5.03H.375v.47l1.25-.032 1.25.032v-.47h-.688V-.39A2.01 2.01 0 0 0 3.47.063c1.5 0 2.515-.907 2.515-2.282Zm-1.28 0C4.703-.813 4-.297 3.358-.297c-.14 0-.609 0-1.062-.547-.11-.125-.11-.14-.11-.328v-2.11c0-.187.016-.202.157-.343.39-.406.922-.469 1.14-.469.657 0 1.22.61 1.22 1.875Zm0 0"/></symbol><symbol overflow="visible" id="j"><path style="stroke:none" d="M8.422-2.281v-.469c-.344.031-1.219.031-1.61.031-.578 0-1.5 0-2.03-.031v.469h1.421v1c0 .187 0 .484-.375.718-.266.141-.578.204-.906.204-.86 0-1.719-.282-2.203-.907-.422-.546-.563-1.25-.563-2.156 0-1.125.203-1.703.578-2.187.391-.5 1.157-.875 2.125-.875 1.063 0 2.016.765 2.235 2.03.031.188.031.204.265.204.25 0 .266-.016.266-.281v-2.14c0-.188 0-.282-.172-.282-.094 0-.11.031-.203.094l-.656.593a3.026 3.026 0 0 0-1.953-.687c-2.454 0-4 1.469-4 3.531C.64-1.437 2.078.11 4.656.11c.328 0 1.36-.015 1.86-.64.296.265.906.531.968.531.141 0 .141-.125.141-.281v-2Zm0 0"/></symbol><symbol overflow="visible" id="k"><path style="stroke:none" d="M6.125 0v-.469h-.688v-2.578c0-1.047-.53-1.437-1.53-1.437-.954 0-1.485.562-1.75 1.078v-1.078l-1.704.078v.468c.61 0 .688 0 .688.391v3.078H.453V0l1.25-.031L2.953 0v-.469h-.687v-2.078c0-1.094.859-1.578 1.5-1.578.328 0 .546.203.546.969V-.47h-.687V0l1.25-.031Zm0 0"/></symbol><symbol overflow="visible" id="l"><path style="stroke:none" d="M5.406-2.172c0-1.344-.922-2.344-2.547-2.344C1.22-4.516.313-3.5.313-2.172c0 1.235.89 2.235 2.546 2.235 1.672 0 2.547-1.016 2.547-2.235Zm-1.281-.11c0 .86 0 1.938-1.266 1.938-1.265 0-1.265-1.078-1.265-1.937 0-.453 0-.953.172-1.297.187-.375.609-.578 1.093-.578.422 0 .844.156 1.063.5.203.344.203.89.203 1.375Zm0 0"/></symbol><symbol overflow="visible" id="m"><path style="stroke:none" d="M9.328 0v-.469h-.687v-2.578c0-1.031-.516-1.437-1.547-1.437-.907 0-1.422.5-1.688.953-.187-.922-1.11-.953-1.484-.953-.875 0-1.438.453-1.766 1.078v-1.078l-1.703.078v.468c.61 0 .688 0 .688.391v3.078H.453V0l1.25-.031L2.953 0v-.469h-.687v-2.078c0-1.094.875-1.578 1.5-1.578.328 0 .546.203.546.969V-.47h-.687V0l1.266-.031L6.14 0v-.469h-.688v-2.078c0-1.094.86-1.578 1.484-1.578.344 0 .563.203.563.969V-.47h-.688V0l1.25-.031Zm0 0"/></symbol><symbol overflow="visible" id="n"><path style="stroke:none" d="M5.516-.234c0-.235-.125-.235-.266-.235-.61-.015-.61-.14-.61-.375v-2.14c0-.891-.702-1.532-2.187-1.532-.562 0-1.781.047-1.781.922 0 .438.344.625.61.625.312 0 .624-.219.624-.625 0-.297-.187-.469-.218-.5a5.28 5.28 0 0 1 .718-.062c.75 0 1.11.422 1.11 1.172v.343c-.72.032-3.25.125-3.25 1.563C.266-.125 1.5.062 2.187.062c.797 0 1.266-.406 1.485-.828 0 .313 0 .766 1.047.766h.468c.204 0 .329 0 .329-.234Zm-2-1.157c0 .97-.922 1.094-1.172 1.094-.516 0-.906-.344-.906-.797 0-1.062 1.578-1.203 2.078-1.234Zm0 0"/></symbol><symbol overflow="visible" id="o"><path style="stroke:none" d="M4.14-1.39c0-.438-.202-.782-.546-1.063-.39-.281-.719-.344-1.485-.485-.375-.062-1.015-.171-1.015-.64 0-.625.922-.625 1.11-.625.75 0 1.124.297 1.171.844.016.156.031.203.234.203.235 0 .235-.047.235-.281v-.797c0-.188 0-.282-.172-.282-.047 0-.063 0-.453.188-.266-.125-.61-.188-1-.188-.313 0-1.844 0-1.844 1.313 0 .39.203.656.406.828.39.344.781.406 1.547.547.36.062 1.094.187 1.094.781 0 .75-.906.75-1.125.75C1.234-.297.984-1.03.859-1.453c-.046-.14-.109-.14-.234-.14-.25 0-.25.062-.25.28v1.094c0 .188 0 .281.188.281.062 0 .078 0 .296-.156l.25-.172c.47.329.985.329 1.188.329.312 0 1.844 0 1.844-1.454Zm0 0"/></symbol><symbol overflow="visible" id="f"><path style="stroke:none" d="M6.813-1.469c0-.14-.125-.14-.266-.14-.203 0-.25 0-.281.125-.079.265-.36 1.203-.922 1.203-.047 0-.14 0-.14-.172 0-.219.093-.469.234-.813.14-.375.578-1.546.578-2.109 0-.828-.579-1.125-1.375-1.125-.204 0-.86 0-1.516.688C2.922-4.391 2.328-4.5 2-4.5c-.469 0-.719.328-.844.531-.265.422-.39.985-.39 1.016 0 .14.125.14.28.14.235 0 .25-.015.313-.265.094-.328.266-1.063.61-1.063.11 0 .187.079.187.297 0 .188-.015.281-.062.438L1.39-.562c-.047.14-.047.156-.047.218 0 .297.234.422.453.422.062 0 .5-.015.625-.531l.625-2.485c.062-.28.625-1.203 1.531-1.203.422 0 .422.375.422.563 0 .594-.453 1.828-.64 2.265-.079.25-.11.36-.11.5 0 .563.5.891 1.047.891 1.031 0 1.516-1.344 1.516-1.547Zm0 0"/></symbol><symbol overflow="visible" id="g"><path style="stroke:none" d="M6.125-1.469c0-.14-.125-.14-.266-.14-.25 0-.25 0-.328.25-.078.328-.25 1.078-.593 1.078-.125 0-.188-.078-.188-.313 0-.187.016-.265.063-.422l.656-2.687c.047-.156.047-.172.047-.219 0-.219-.172-.422-.454-.422-.171 0-.343.094-.468.219-.313-.328-.703-.375-.969-.375C1.953-4.5.953-2.844.953-1.516c0 1.188.844 1.594 1.594 1.594.61 0 1.078-.312 1.328-.5.188.344.625.5 1.016.5.468 0 .718-.344.843-.531.266-.422.391-.984.391-1.016ZM3.75-1c-.438.578-.844.719-1.156.719-.235 0-.563-.14-.563-.703 0-.547.344-1.766.453-2.047.344-.969.891-1.11 1.141-1.11.36 0 .625.22.734.61l-.578 2.36c-.015.062-.015.093-.031.171Zm0 0"/></symbol><symbol overflow="visible" id="h"><path style="stroke:none" d="M9.75-1.469c0-.14-.125-.14-.281-.14-.188 0-.235 0-.281.125-.079.265-.344 1.203-.907 1.203-.062 0-.14 0-.14-.172 0-.219.093-.469.218-.813.141-.375.594-1.546.594-2.109 0-.828-.594-1.125-1.375-1.125-.797 0-1.266.406-1.594.75-.218-.75-1.125-.75-1.343-.75-.204 0-.86 0-1.516.688C2.922-4.391 2.328-4.5 2-4.5c-.469 0-.719.328-.844.531-.265.422-.39.985-.39 1.016 0 .14.125.14.28.14.235 0 .25-.015.313-.265.094-.328.266-1.063.61-1.063.11 0 .187.079.187.297 0 .188-.015.281-.062.438L1.39-.562c-.047.14-.047.156-.047.218 0 .297.234.422.453.422.062 0 .5-.015.625-.531l.625-2.485c.062-.28.625-1.203 1.531-1.203.422 0 .422.375.422.563 0 .25-.031.422-.14.844l-.423 1.671c-.062.25-.156.641-.156.72 0 .296.235.421.438.421.125 0 .515-.047.64-.562l.61-2.454c.078-.28.64-1.203 1.531-1.203.438 0 .438.375.438.563 0 .594-.454 1.828-.641 2.265-.094.25-.125.36-.125.5 0 .563.516.891 1.047.891 1.047 0 1.531-1.344 1.531-1.547Zm0 0"/></symbol><symbol overflow="visible" id="i"><path style="stroke:none" d="M5.344-.86c0-.078-.203-.312-.297-.312-.031 0-.078 0-.14.063-.735.828-1.75.828-1.891.828-.547 0-.844-.328-.844-.922 0-.25.078-.625.156-.969h.406c.594 0 2.563 0 2.563-1.375C5.297-4.14 4.75-4.5 4-4.5c-1.719 0-2.906 1.297-2.906 2.828 0 1.078.672 1.75 1.922 1.75.296 0 .89-.031 1.406-.219.531-.203.922-.593.922-.718Zm-.688-2.703c0 1.032-1.625 1.032-2.234 1.032.14-.5.234-.797.531-1.125A1.452 1.452 0 0 1 4-4.141c.422 0 .656.266.656.579Zm0 0"/></symbol><clipPath id="e"><path d="M0 68h55v25.188H0Zm0 0"/></clipPath></defs><path style="fill-rule:nonzero;fill:#ccf;fill-opacity:1;stroke-width:.79701;stroke-linecap:butt;stroke-linejoin:miter;stroke:#00f;stroke-opacity:1;stroke-miterlimit:10" d="M-23.91-11.955h47.82v23.91h-47.82Zm0 0" transform="matrix(1 0 0 -1 24.965 54.674)"/><g style="fill:#000;fill-opacity:1"><use xlink:href="#a" x="10.165" y="57.648"/><use xlink:href="#b" x="16.531" y="57.648"/><use xlink:href="#c" x="22.897" y="57.648"/><use xlink:href="#c" x="28.148" y="57.648"/><use xlink:href="#d" x="33.398" y="57.648"/></g><path style="stroke:none;fill-rule:nonzero;fill:#ccc;fill-opacity:1" d="M48.8 83.02c0-4.95-10.671-8.965-23.835-8.965-13.164 0-23.836 4.015-23.836 8.965 0 4.953 10.672 8.968 23.836 8.968 13.164 0 23.836-4.015 23.836-8.968Zm0 0"/><g clip-path="url(#e)"><path style="fill:none;stroke-width:.3985;stroke-linecap:butt;stroke-linejoin:miter;stroke:#000;stroke-opacity:1;stroke-miterlimit:10" d="M23.836-28.346c0 4.95-10.672 8.965-23.836 8.965-13.164 0-23.836-4.015-23.836-8.965 0-4.953 10.672-8.968 23.836-8.968 13.164 0 23.836 4.015 23.836 8.968Zm0 0" transform="matrix(1 0 0 -1 24.965 54.674)"/></g><g style="fill:#000;fill-opacity:1"><use xlink:href="#f" x="11.431" y="84.774"/><use xlink:href="#g" x="17.907" y="84.774"/><use xlink:href="#h" x="23.795" y="84.774"/><use xlink:href="#i" x="33.199" y="84.774"/></g><path style="fill:none;stroke-width:.3985;stroke-linecap:butt;stroke-linejoin:miter;stroke:#000;stroke-opacity:1;stroke-miterlimit:10" d="M0-12.353v-6.828" transform="matrix(1 0 0 -1 24.965 54.674)"/><path style="fill-rule:nonzero;fill:#ccf;fill-opacity:1;stroke-width:.79701;stroke-linecap:butt;stroke-linejoin:miter;stroke:#00f;stroke-opacity:1;stroke-miterlimit:10" d="M32.781-11.955h47.824v23.91H32.781Zm0 0" transform="matrix(1 0 0 -1 24.965 54.674)"/><g style="fill:#000;fill-opacity:1"><use xlink:href="#j" x="61.085" y="57.648"/><use xlink:href="#c" x="70.091" y="57.648"/><use xlink:href="#k" x="75.342" y="57.648"/><use xlink:href="#l" x="81.708" y="57.648"/><use xlink:href="#m" x="87.436" y="57.648"/><use xlink:href="#c" x="96.98" y="57.648"/></g><path style="fill-rule:nonzero;fill:#ffe5cc;fill-opacity:1;stroke-width:.79701;stroke-linecap:butt;stroke-linejoin:miter;stroke:#ff8000;stroke-opacity:1;stroke-miterlimit:10" d="M44.836 42.522 28.348 53.455 11.858 42.522l16.489-10.938Zm0 0" transform="matrix(1 0 0 -1 24.965 54.674)"/><g style="fill:#000;fill-opacity:1"><use xlink:href="#b" x="45.082" y="15.113"/><use xlink:href="#n" x="51.448" y="15.113"/><use xlink:href="#o" x="57.017" y="15.113"/></g><path style="fill:none;stroke-width:.3985;stroke-linecap:butt;stroke-linejoin:miter;stroke:#000;stroke-opacity:1;stroke-miterlimit:10" d="M23.058 34.588 8.234 12.354M33.637 34.588 48.46 12.354" transform="matrix(1 0 0 -1 24.965 54.674)"/></svg>