<svg xmlns="http://www.w3.org/2000/svg" xmlns:xlink="http://www.w3.org/1999/xlink" width="86.5" height="86.475" viewBox="0 0 64.875 64.856" version="1.2"><defs><symbol overflow="visible" id="a"><path style="stroke:none" d="M3.719-3.766c-.188-.375-.469-.64-.922-.64-1.156 0-2.39 1.468-2.39 2.922C.406-.547.952.109 1.718.109c.203 0 .703-.046 1.297-.75a.91.91 0 0 0 .906.75c.36 0 .578-.234.75-.546a6.49 6.49 0 0 0 .297-.985c0-.11-.094-.11-.125-.11-.094 0-.11.048-.14.188-.173.64-.345 1.235-.75 1.235-.282 0-.298-.266-.298-.454 0-.218.016-.312.125-.75.11-.406.125-.515.219-.89l.36-1.39c.062-.282.062-.298.062-.345 0-.171-.11-.265-.281-.265-.25 0-.391.219-.422.437Zm-.64 2.579c-.063.187-.063.203-.204.375-.438.546-.844.703-1.125.703-.5 0-.64-.547-.64-.938 0-.5.312-1.719.546-2.187.313-.579.75-.954 1.157-.954.64 0 .78.813.78.875a.562.562 0 0 1-.03.172Zm0 0"/></symbol><symbol overflow="visible" id="b"><path style="stroke:none" d="M2.469-2.516c.547-.265.89-.593.89-1.078 0-.672-.703-1.031-1.375-1.031-.765 0-1.39.5-1.39 1.156 0 .328.156.563.281.703.125.157.172.188.578.422-.39.172-1.078.547-1.078 1.281 0 .766.797 1.204 1.594 1.204.89 0 1.61-.563 1.61-1.313 0-.469-.267-.86-.673-1.094-.094-.062-.328-.187-.437-.25Zm-1.125-.656c-.188-.11-.375-.297-.375-.562 0-.438.5-.688 1-.688.547 0 1.031.344 1.031.828 0 .625-.734.938-.734.938-.016 0-.032 0-.079-.031Zm.328.969.969.547c.171.11.515.312.515.718 0 .532-.578.86-1.172.86-.64 0-1.187-.422-1.187-.985 0-.515.375-.921.875-1.14Zm0 0"/></symbol><symbol overflow="visible" id="d"><path style="stroke:none" d="M1.047-2.281c0-.563.047-1.078.312-1.516.235-.375.61-.625 1.063-.625.203 0 .484.047.625.234-.172.016-.328.141-.328.344a.32.32 0 0 0 .328.328c.219 0 .344-.14.344-.343 0-.407-.297-.766-.985-.766-1 0-2.031.922-2.031 2.422C.375-.406 1.219.14 2 .14c.844 0 1.578-.657 1.578-1.563 0-.89-.703-1.547-1.515-1.547-.563 0-.86.375-1.016.688ZM2-.078c-.36 0-.625-.203-.781-.516-.094-.203-.157-.562-.157-.969 0-.687.407-1.203.97-1.203.312 0 .53.125.702.375.172.266.172.563.172.97 0 .39 0 .687-.187.968A.815.815 0 0 1 2-.078Zm0 0"/></symbol><symbol overflow="visible" id="e"><path style="stroke:none" d="M1.906-2.328c.547 0 .938.375.938 1.125 0 .86-.516 1.125-.906 1.125-.282 0-.907-.078-1.188-.5.328 0 .406-.235.406-.39 0-.22-.172-.376-.39-.376a.38.38 0 0 0-.391.407C.375-.281 1.094.14 1.938.14c.968 0 1.64-.657 1.64-1.344 0-.547-.437-1.094-1.203-1.25.719-.266.984-.781.984-1.219 0-.547-.625-.953-1.406-.953-.766 0-1.36.375-1.36.938 0 .234.157.359.36.359.219 0 .36-.156.36-.344 0-.203-.141-.36-.36-.375.25-.297.719-.375.985-.375.312 0 .75.156.75.75 0 .297-.094.625-.282.828-.219.266-.422.281-.765.313-.172.015-.188.015-.22.015-.015 0-.077.016-.077.094 0 .094.062.094.187.094Zm0 0"/></symbol><symbol overflow="visible" id="g"><path style="stroke:none" d="M3.734-4.203c.063-.094.063-.11.063-.281H1.969c-.282 0-.36-.016-.61-.032C1-4.546.984-4.594.97-4.703H.734L.484-3.22H.72c.015-.11.094-.562.203-.64.047-.032.625-.032.719-.032h1.515c-.219.282-.578.72-.719.922-.906 1.188-1 2.297-1 2.703 0 .079 0 .407.329.407.343 0 .343-.313.343-.407v-.28c0-1.345.282-1.97.579-2.345Zm0 0"/></symbol><symbol overflow="visible" id="i"><path style="stroke:none" d="M3.688-1.14v-.25h-.782V-4.5c0-.14 0-.203-.14-.203-.094 0-.125 0-.188.11L.266-1.392v.25h2.062v.563c0 .25 0 .328-.578.328h-.188V0c.36-.016.797-.031 1.047-.031.266 0 .704.015 1.063.031v-.25h-.188c-.578 0-.578-.078-.578-.328v-.563ZM2.375-3.939v2.547H.531Zm0 0"/></symbol><symbol overflow="visible" id="k"><path style="stroke:none" d="M2.906-2.078c0 1.734-.844 2-1.265 2-.157 0-.532-.016-.72-.234a.315.315 0 0 0 .313-.329.32.32 0 0 0-.328-.328c-.203 0-.328.14-.328.344 0 .469.39.766 1.063.766 1 0 1.937-.938 1.937-2.438 0-1.719-.765-2.328-1.578-2.328a1.55 1.55 0 0 0-1.11.422c-.234.234-.515.5-.515 1.125 0 .89.703 1.547 1.516 1.547.562 0 .859-.375 1.015-.688Zm-.969.344c-.28 0-.53-.079-.734-.407-.156-.25-.156-.546-.156-.937 0-.406 0-.672.203-.953.172-.25.39-.39.75-.39s.578.218.688.405c.187.282.203.782.203 1.016 0 .906-.516 1.266-.954 1.266Zm0 0"/></symbol><clipPath id="c"><path d="M37 0h27.813v28H37Zm0 0"/></clipPath><clipPath id="f"><path d="M37 16h27.813v33H37Zm0 0"/></clipPath><clipPath id="h"><path d="M0 37h28v27.785H0Zm0 0"/></clipPath><clipPath id="j"><path d="M16 37h33v27.785H16Zm0 0"/></clipPath></defs><path style="fill:none;stroke-width:.3985;stroke-linecap:butt;stroke-linejoin:miter;stroke:#000;stroke-opacity:1;stroke-miterlimit:10" d="M10.274 1.399C10.274 7.07 5.676 11.672 0 11.672c-5.675 0-10.277-4.601-10.277-10.273C-10.277-4.277-5.675-8.878 0-8.878c5.676 0 10.274 4.601 10.274 10.277Zm0 0" transform="matrix(1 0 0 -1 11.421 12.809)"/><use xlink:href="#a" x="6.553" y="12.809" style="fill:#000;fill-opacity:1"/><use xlink:href="#b" x="11.82" y="14.303" style="fill:#000;fill-opacity:1"/><g clip-path="url(#c)"><path style="fill:none;stroke-width:.3985;stroke-linecap:butt;stroke-linejoin:miter;stroke:#000;stroke-opacity:1;stroke-miterlimit:10" d="M10.277 1.399C10.277 7.07 5.676 11.672 0 11.672c-5.676 0-10.274-4.601-10.274-10.273C-10.274-4.277-5.676-8.878 0-8.878c5.676 0 10.277 4.601 10.277 10.277Zm0 0" transform="matrix(1 0 0 -1 53.32 12.809)"/></g><use xlink:href="#a" x="48.453" y="12.809" style="fill:#000;fill-opacity:1"/><use xlink:href="#d" x="53.718" y="14.303" style="fill:#000;fill-opacity:1"/><path style="fill:none;stroke-width:.3985;stroke-linecap:butt;stroke-linejoin:miter;stroke:#000;stroke-opacity:1;stroke-miterlimit:10" d="M10.274 1.399A10.271 10.271 0 0 1 0 11.672c-5.675 0-10.277-4.598-10.277-10.273C-10.277-4.277-5.675-8.88 0-8.88c5.676 0 10.274 4.602 10.274 10.278Zm0 0" transform="matrix(1 0 0 -1 11.421 33.758)"/><use xlink:href="#a" x="6.553" y="33.758" style="fill:#000;fill-opacity:1"/><use xlink:href="#e" x="11.82" y="35.252" style="fill:#000;fill-opacity:1"/><g clip-path="url(#f)"><path style="fill:none;stroke-width:.3985;stroke-linecap:butt;stroke-linejoin:miter;stroke:#000;stroke-opacity:1;stroke-miterlimit:10" d="M10.277 1.399c0 5.675-4.601 10.273-10.277 10.273A10.271 10.271 0 0 1-10.274 1.4C-10.274-4.277-5.676-8.88 0-8.88c5.676 0 10.277 4.602 10.277 10.278Zm0 0" transform="matrix(1 0 0 -1 53.32 33.758)"/></g><use xlink:href="#a" x="48.453" y="33.758" style="fill:#000;fill-opacity:1"/><use xlink:href="#g" x="53.718" y="35.252" style="fill:#000;fill-opacity:1"/><g clip-path="url(#h)"><path style="fill:none;stroke-width:.3985;stroke-linecap:butt;stroke-linejoin:miter;stroke:#000;stroke-opacity:1;stroke-miterlimit:10" d="M10.274 1.398A10.271 10.271 0 0 1 0 11.672c-5.675 0-10.277-4.598-10.277-10.274C-10.277-4.277-5.675-8.879 0-8.879c5.676 0 10.274 4.602 10.274 10.277Zm0 0" transform="matrix(1 0 0 -1 11.421 54.707)"/></g><use xlink:href="#a" x="6.553" y="54.707" style="fill:#000;fill-opacity:1"/><use xlink:href="#i" x="11.82" y="56.202" style="fill:#000;fill-opacity:1"/><g clip-path="url(#j)"><path style="fill:none;stroke-width:.3985;stroke-linecap:butt;stroke-linejoin:miter;stroke:#000;stroke-opacity:1;stroke-miterlimit:10" d="M10.277 1.398c0 5.676-4.602 10.274-10.277 10.274A10.271 10.271 0 0 1-10.274 1.398C-10.274-4.277-5.676-8.879 0-8.879c5.675 0 10.277 4.602 10.277 10.277Zm0 0" transform="matrix(1 0 0 -1 32.371 54.707)"/></g><use xlink:href="#a" x="27.503" y="54.707" style="fill:#000;fill-opacity:1"/><use xlink:href="#k" x="32.77" y="56.202" style="fill:#000;fill-opacity:1"/></svg>