<svg xmlns="http://www.w3.org/2000/svg" xmlns:xlink="http://www.w3.org/1999/xlink" width="311.387" height="216.891" viewBox="0 0 233.54 162.668" version="1.2"><defs><symbol overflow="visible" id="b"><path style="stroke:none" d="M9.984-1.094c0-.203-.093-.25-.25-.25-.234 0-.25.094-.25.25-.062.594-.437.844-.765.844-.766 0-.86-.797-.953-1.906-.063-.625-.157-1.516-1.438-1.906 1.61-.438 2-1.297 2-1.938 0-1.203-1.25-2.203-3.469-2.203H.453v.515H1.72v7.172H.453V0C.797-.031 2.047-.031 2.47-.031c.437 0 1.687 0 2.031.031v-.516H3.234v-3.39h1.422c.485 0 .86.14 1.125.453.36.406.36.672.36 1.469 0 .796 0 1.296.609 1.703.625.406 1.61.422 1.875.422 1.219 0 1.36-1.079 1.36-1.235ZM6.641-6c0 .656 0 1.703-2 1.703H3.234v-3.39h1.422c1.953 0 1.985.984 1.985 1.687Zm0 0"/></symbol><symbol overflow="visible" id="c"><path style="stroke:none" d="M6.328-2.625c0-1.61-1.094-2.797-2.969-2.797-1.953 0-2.984 1.25-2.984 2.797C.375-1.047 1.469.078 3.344.078c1.953 0 2.984-1.187 2.984-2.703Zm-1.422-.11c0 .985 0 2.376-1.547 2.376-1.546 0-1.546-1.391-1.546-2.375 0-.563 0-1.157.218-1.594.266-.484.797-.688 1.313-.688.687 0 1.11.313 1.312.657.25.421.25 1.046.25 1.625Zm0 0"/></symbol><symbol overflow="visible" id="d"><path style="stroke:none" d="M4.469-1.484v-.625h-.5v.609c0 .797-.36 1.14-.735 1.14-.718 0-.718-.796-.718-1.078v-3.359H4.25v-.516H2.516v-2.28h-.5c0 1.187-.579 2.374-1.766 2.405v.391h.969v3.328c0 1.266.984 1.547 1.843 1.547.876 0 1.407-.672 1.407-1.562Zm0 0"/></symbol><symbol overflow="visible" id="e"><path style="stroke:none" d="M5.594-1.406c0-.14-.125-.14-.25-.14-.188 0-.203.015-.266.155-.078.235-.406 1.032-1.5 1.032-1.687 0-1.687-1.813-1.687-2.36 0-.703.015-2.265 1.578-2.265.078 0 .781.03.781.078 0 0 0 .031-.031.047a.733.733 0 0 0-.188.515c0 .5.407.703.703.703.25 0 .704-.156.704-.718 0-.985-1.375-1.063-2.016-1.063-2.125 0-2.969 1.39-2.969 2.766 0 1.625 1.14 2.734 2.89 2.734 1.876 0 2.25-1.39 2.25-1.484Zm0 0"/></symbol><symbol overflow="visible" id="f"><path style="stroke:none" d="M7.172 0v-.516h-.828v-3.14c0-1.14-.485-1.719-1.797-1.719-.86 0-1.61.422-2.016 1.313h-.015v-1.313L.5-5.281v.515c.75 0 .828 0 .828.47v3.78H.5V0c.281-.031 1.14-.031 1.469-.031.343 0 1.203 0 1.484.031v-.516h-.828v-2.546c0-1.282.953-1.922 1.719-1.922.453 0 .703.28.703 1.187v3.281h-.828V0c.281-.031 1.14-.031 1.468-.031.344 0 1.204 0 1.485.031Zm0 0"/></symbol><symbol overflow="visible" id="g"><path style="stroke:none" d="M5.75-1.406c0-.172-.188-.172-.25-.172-.188 0-.203.031-.281.187-.313.782-1.094 1.032-1.672 1.032-1.735 0-1.735-1.61-1.735-2.282h3.594c.266 0 .344 0 .344-.296 0-.36-.078-1.266-.64-1.813-.5-.516-1.173-.672-1.86-.672-1.86 0-2.875 1.219-2.875 2.734C.375-1.016 1.609.079 3.406.079 5.22.078 5.75-1.188 5.75-1.406ZM4.656-2.984H1.813c.015-.5.03-.954.28-1.391a1.32 1.32 0 0 1 1.157-.64c1.281 0 1.39 1.437 1.406 2.03Zm0 0"/></symbol><symbol overflow="visible" id="h"><path style="stroke:none" d="M7-2.672c0-1.64-1.11-2.703-2.719-2.703-.703 0-1.312.234-1.797.625v-.625l-2.062.094v.515c.734 0 .828 0 .828.47v6.109H.422v.5c.266-.016 1.125-.016 1.469-.016.328 0 1.203 0 1.484.015v-.5h-.828V-.483c.297.25.828.562 1.547.562C5.719.078 7-.922 7-2.672Zm-1.438 0c0 1.735-.859 2.344-1.625 2.344-.5 0-1.015-.25-1.39-.813v-3.046a1.998 1.998 0 0 1 1.547-.766c.765 0 1.468.703 1.468 2.281Zm0 0"/></symbol><symbol overflow="visible" id="i"><path style="stroke:none" d="M7.063-2.047c0-.203-.079-.203-.235-.203-.094 0-.203 0-.219.156C6.531-.797 5.344-.328 4.5-.328c-.484 0-1.36-.11-1.969-.766C2.062-1.625 2-2.469 2-3.078c0-1.078.219-1.61.578-2.031.422-.47 1.156-.72 1.89-.72.798 0 1.845.485 2.063 1.907.032.125.125.125.266.125.25 0 .266-.031.266-.265V-6c0-.156 0-.266-.172-.266-.094 0-.11.016-.188.094l-.594.516a2.96 2.96 0 0 0-1.828-.61C1.97-6.266.594-4.89.594-3.078.594-1.297 1.922.109 4.297.109c1.687 0 2.766-1.078 2.766-2.156Zm0 0"/></symbol><symbol overflow="visible" id="j"><path style="stroke:none" d="M5.656 0v-.438h-.61v-2.296c0-1.063-.655-1.297-1.437-1.297-.843 0-1.328.484-1.562.843v-3.03l-1.594.062v.437c.531 0 .61 0 .61.36v4.921h-.61V0l1.125-.031L2.718 0v-.438H2.11V-2.28c0-1 .829-1.39 1.36-1.39.344 0 .515.187.515.858v2.376h-.609V0l1.14-.031Zm0 0"/></symbol><symbol overflow="visible" id="k"><path style="stroke:none" d="M2.625 0v-.438h-.547V-4.03L.5-3.97v.438c.516 0 .578 0 .578.36v2.733h-.61V0c.595-.016.72-.031 1.095-.031.437 0 .546.015 1.062.031Zm-.453-5.422a.713.713 0 0 0-.703-.719.71.71 0 0 0-.703.704.7.7 0 0 0 .703.703.697.697 0 0 0 .703-.688Zm0 0"/></symbol><symbol overflow="visible" id="l"><path style="stroke:none" d="M2.688 0v-.438h-.61v-5.78l-1.61.062v.437c.532 0 .61 0 .61.36v4.921h-.61V0l1.095-.031Zm0 0"/></symbol><symbol overflow="visible" id="m"><path style="stroke:none" d="M5.516 0v-.438c-.532 0-.61 0-.61-.359v-5.422l-1.61.063v.437c.548 0 .61 0 .61.36v1.734a1.994 1.994 0 0 0-1.25-.406c-1.453 0-2.312.89-2.312 2.047 0 1.187.844 2.03 2.219 2.03.562 0 1-.202 1.296-.437v.438ZM3.859-.984a1.427 1.427 0 0 1-1.203.671c-1.11 0-1.11-1.062-1.11-1.656 0-.531 0-.906.235-1.234.235-.36.672-.469.985-.469.437 0 .812.188 1.093.547Zm0 0"/></symbol><symbol overflow="visible" id="n"><path style="stroke:none" d="M4.406-1.047c0-.14-.125-.14-.234-.14-.172 0-.172.015-.25.171-.172.438-.578.688-1.11.688-1.265 0-1.265-1.297-1.265-1.703 0-.531 0-1.64 1.172-1.64.078 0 .562 0 .562.046l-.031.047a.602.602 0 0 0-.125.375c0 .36.281.578.594.578a.569.569 0 0 0 .578-.594c0-.844-1.25-.844-1.61-.844C.97-4.063.345-2.968.345-1.983c0 1.125.812 2.03 2.297 2.03.343 0 .78-.046 1.156-.28.515-.313.61-.782.61-.813Zm0 0"/></symbol><symbol overflow="visible" id="o"><path style="stroke:none" d="M5-1.953c0-1.172-.828-2.11-2.344-2.11-1.578 0-2.36.985-2.36 2.11 0 1.11.813 2 2.345 2C4.25.047 5-.891 5-1.953Zm-1.188-.094c0 .766 0 1.719-1.156 1.719-1.172 0-1.172-.953-1.172-1.719 0-.765 0-1.656 1.157-1.656 1.171 0 1.171.89 1.171 1.656Zm0 0"/></symbol><symbol overflow="visible" id="p"><path style="stroke:none" d="M5.656 0v-.438h-.61v-2.296c0-1.063-.655-1.297-1.437-1.297-1.093 0-1.53.797-1.593.937H2v-.937L.453-3.97v.438c.531 0 .61 0 .61.36v2.733h-.61V0l1.125-.031L2.718 0v-.438H2.11V-2.28c0-1 .829-1.39 1.36-1.39.344 0 .515.187.515.858v2.376h-.609V0l1.14-.031Zm0 0"/></symbol><symbol overflow="visible" id="q"><path style="stroke:none" d="M4.563-1.047c0-.172-.172-.172-.235-.172-.156 0-.172.047-.234.172-.203.469-.75.719-1.313.719-1.281 0-1.297-1.156-1.297-1.594h2.782c.187 0 .296 0 .296-.25 0-.203-.015-1-.593-1.484-.406-.328-.953-.406-1.39-.406-1.532 0-2.282.968-2.282 2.046 0 1.172.89 2.063 2.406 2.063 1.485 0 1.86-.938 1.86-1.094ZM3.688-2.25H1.483c.016-.406.063-1.453 1.094-1.453 1.047 0 1.094 1.094 1.11 1.453Zm0 0"/></symbol><symbol overflow="visible" id="r"><path style="stroke:none" d="M5.531-1.984c0-1.188-.812-2.047-2.172-2.047-.718 0-1.218.297-1.39.422v-.422L.375-3.97v.438c.172 0 .313 0 .438.031.171.031.171.125.171.313v4.484H.375v.437L1.5 1.72l1.14.015v-.437h-.609v-1.64c.531.39 1.016.39 1.188.39 1.406 0 2.312-.844 2.312-2.031ZM4.344-2c0 1.25-.64 1.688-1.235 1.688-.453 0-.843-.25-1.078-.625v-2.157a1.548 1.548 0 0 1 1.188-.562c.625 0 1.125.562 1.125 1.656Zm0 0"/></symbol><symbol overflow="visible" id="s"><path style="stroke:none" d="M3.531-1.11v-.468h-.469v.453c0 .625-.312.797-.546.797C2-.328 2-.875 2-1.078v-2.469h1.36v-.437H2v-1.704h-.453c-.016.829-.438 1.766-1.344 1.782v.36h.75v2.437c0 1.03.89 1.156 1.438 1.156.703 0 1.14-.5 1.14-1.156Zm0 0"/></symbol><clipPath id="a"><path d="M0 30h132v132.504H0Zm0 0"/></clipPath><clipPath id="t"><path d="M94 38h43v57H94Zm0 0"/></clipPath><clipPath id="u"><path d="M94.52 60.777a56.684 56.684 0 0 1 19.39 33.586c-2.46-13.96 6.938-23.172 19.211-30.261l-2.793-4.832c-12.273 7.085-24.95 10.617-35.808 1.507Zm43.457-5.922-7.649 4.415 2.793 4.832 7.645-4.415Zm11.414-15.96a31.904 31.904 0 0 0 10.906 18.89c-6.106-5.125-12.625-2.082-19.531 1.903l-2.79-4.833c6.903-3.984 12.797-8.113 11.415-15.96Zm0 0"/></clipPath><clipPath id="v"><path d="M123 38h38v57h-38Zm0 0"/></clipPath><clipPath id="w"><path d="M94.52 60.777a56.684 56.684 0 0 1 19.39 33.586c-2.46-13.96 6.938-23.172 19.211-30.261l-2.793-4.832c-12.273 7.085-24.95 10.617-35.808 1.507Zm43.457-5.922-7.649 4.415 2.793 4.832 7.645-4.415Zm11.414-15.96a31.904 31.904 0 0 0 10.906 18.89c-6.106-5.125-12.625-2.082-19.531 1.903l-2.79-4.833c6.903-3.984 12.797-8.113 11.415-15.96Zm0 0"/></clipPath><clipPath id="x"><path d="M94 38h67v57H94Zm0 0"/></clipPath><clipPath id="y"><path d="M94.52 60.777a56.684 56.684 0 0 1 19.39 33.586c-2.46-13.96 6.938-23.172 19.211-30.261l-2.793-4.832c-12.273 7.085-24.95 10.617-35.808 1.507Zm43.457-5.922-7.649 4.415 2.793 4.832 7.645-4.415Zm11.414-15.96a31.904 31.904 0 0 0 10.906 18.89c-6.106-5.125-12.625-2.082-19.531 1.903l-2.79-4.833c6.903-3.984 12.797-8.113 11.415-15.96Zm0 0"/></clipPath><clipPath id="z"><path d="m135.523 124.96 46.036-26.573L124.863.18 78.828 26.758Zm0 0"/></clipPath><clipPath id="B"><path d="M151 55h82.309v99H151Zm0 0"/></clipPath><clipPath id="C"><path d="M111 84h5v40h-5Zm0 0"/></clipPath><clipPath id="D"><path d="M111.355 84.816a56.697 56.697 0 0 1 0 38.782c4.848-13.32 17.59-16.602 31.766-16.602v-5.582c-14.176 0-26.918-3.281-31.766-16.598Zm31.766 22.18h8.856v-5.582h-8.856Zm26.727-13.7a31.872 31.872 0 0 0 0 21.817c-2.727-7.492-9.899-8.117-17.871-8.117v-5.582c7.972 0 15.144-.625 17.87-8.117Zm0 0"/></clipPath><clipPath id="E"><path d="M166 84h4v40h-4Zm0 0"/></clipPath><clipPath id="F"><path d="M111.355 84.816a56.697 56.697 0 0 1 0 38.782c4.848-13.32 17.59-16.602 31.766-16.602v-5.582c-14.176 0-26.918-3.281-31.766-16.598Zm31.766 22.18h8.856v-5.582h-8.856Zm26.727-13.7a31.872 31.872 0 0 0 0 21.817c-2.727-7.492-9.899-8.117-17.871-8.117v-5.582c7.972 0 15.144-.625 17.87-8.117Zm0 0"/></clipPath><clipPath id="G"><path d="M115 84h52.93v40H115Zm0 0"/></clipPath><clipPath id="H"><path d="M111.355 84.816a56.697 56.697 0 0 1 0 38.782c4.848-13.32 17.59-16.602 31.766-16.602v-5.582c-14.176 0-26.918-3.281-31.766-16.598Zm31.766 22.18h8.856v-5.582h-8.856Zm26.727-13.7a31.872 31.872 0 0 0 0 21.817c-2.727-7.492-9.899-8.117-17.871-8.117v-5.582c7.972 0 15.144-.625 17.87-8.117Zm0 0"/></clipPath><linearGradient id="A" gradientUnits="userSpaceOnUse" x1="0" y1="0" x2="100.001" y2="0" gradientTransform="matrix(.46034 -.26576 -.56697 -.98206 135.525 124.963)"><stop offset="0" style="stop-color:#33f;stop-opacity:1"/><stop offset=".004" style="stop-color:#3433fe;stop-opacity:1"/><stop offset=".008" style="stop-color:#3533fd;stop-opacity:1"/><stop offset=".012" style="stop-color:#3532fc;stop-opacity:1"/><stop offset=".016" style="stop-color:#3632fb;stop-opacity:1"/><stop offset=".02" style="stop-color:#3732fa;stop-opacity:1"/><stop offset=".023" style="stop-color:#3832f9;stop-opacity:1"/><stop offset=".027" style="stop-color:#3932f8;stop-opacity:1"/><stop offset=".031" style="stop-color:#3931f7;stop-opacity:1"/><stop offset=".035" style="stop-color:#3a31f6;stop-opacity:1"/><stop offset=".039" style="stop-color:#3b31f5;stop-opacity:1"/><stop offset=".043" style="stop-color:#3c31f4;stop-opacity:1"/><stop offset=".047" style="stop-color:#3d31f3;stop-opacity:1"/><stop offset=".051" style="stop-color:#3d30f2;stop-opacity:1"/><stop offset=".055" style="stop-color:#3e30f1;stop-opacity:1"/><stop offset=".059" style="stop-color:#3f30f0;stop-opacity:1"/><stop offset=".063" style="stop-color:#4030ef;stop-opacity:1"/><stop offset=".066" style="stop-color:#4130ee;stop-opacity:1"/><stop offset=".07" style="stop-color:#412fed;stop-opacity:1"/><stop offset=".074" style="stop-color:#422fec;stop-opacity:1"/><stop offset=".078" style="stop-color:#432feb;stop-opacity:1"/><stop offset=".082" style="stop-color:#442fea;stop-opacity:1"/><stop offset=".086" style="stop-color:#452fe9;stop-opacity:1"/><stop offset=".09" style="stop-color:#452ee8;stop-opacity:1"/><stop offset=".094" style="stop-color:#462ee7;stop-opacity:1"/><stop offset=".098" style="stop-color:#472ee6;stop-opacity:1"/><stop offset=".102" style="stop-color:#482ee5;stop-opacity:1"/><stop offset=".105" style="stop-color:#492ee4;stop-opacity:1"/><stop offset=".109" style="stop-color:#492de3;stop-opacity:1"/><stop offset=".113" style="stop-color:#4a2de2;stop-opacity:1"/><stop offset=".117" style="stop-color:#4b2de1;stop-opacity:1"/><stop offset=".121" style="stop-color:#4c2de0;stop-opacity:1"/><stop offset=".125" style="stop-color:#4c2ddf;stop-opacity:1"/><stop offset=".129" style="stop-color:#4d2cde;stop-opacity:1"/><stop offset=".133" style="stop-color:#4e2cdd;stop-opacity:1"/><stop offset=".137" style="stop-color:#4f2cdc;stop-opacity:1"/><stop offset=".141" style="stop-color:#502cdb;stop-opacity:1"/><stop offset=".145" style="stop-color:#502cda;stop-opacity:1"/><stop offset=".148" style="stop-color:#512bd9;stop-opacity:1"/><stop offset=".152" style="stop-color:#522bd8;stop-opacity:1"/><stop offset=".156" style="stop-color:#532bd7;stop-opacity:1"/><stop offset=".16" style="stop-color:#542bd6;stop-opacity:1"/><stop offset=".164" style="stop-color:#542bd5;stop-opacity:1"/><stop offset=".168" style="stop-color:#552ad4;stop-opacity:1"/><stop offset=".172" style="stop-color:#562ad3;stop-opacity:1"/><stop offset=".176" style="stop-color:#572ad2;stop-opacity:1"/><stop offset=".18" style="stop-color:#582ad1;stop-opacity:1"/><stop offset=".184" style="stop-color:#582ad0;stop-opacity:1"/><stop offset=".188" style="stop-color:#5929cf;stop-opacity:1"/><stop offset=".191" style="stop-color:#5a29ce;stop-opacity:1"/><stop offset=".195" style="stop-color:#5b29cd;stop-opacity:1"/><stop offset=".199" style="stop-color:#5c29cc;stop-opacity:1"/><stop offset=".203" style="stop-color:#5c29cb;stop-opacity:1"/><stop offset=".207" style="stop-color:#5d28ca;stop-opacity:1"/><stop offset=".211" style="stop-color:#5e28c9;stop-opacity:1"/><stop offset=".215" style="stop-color:#5f28c8;stop-opacity:1"/><stop offset=".219" style="stop-color:#6028c7;stop-opacity:1"/><stop offset=".223" style="stop-color:#6028c6;stop-opacity:1"/><stop offset=".227" style="stop-color:#6127c5;stop-opacity:1"/><stop offset=".23" style="stop-color:#6227c4;stop-opacity:1"/><stop offset=".234" style="stop-color:#6327c3;stop-opacity:1"/><stop offset=".238" style="stop-color:#6427c2;stop-opacity:1"/><stop offset=".242" style="stop-color:#6427c1;stop-opacity:1"/><stop offset=".246" style="stop-color:#6526c0;stop-opacity:1"/><stop offset=".25" style="stop-color:#6626bf;stop-opacity:1"/><stop offset=".254" style="stop-color:#6726be;stop-opacity:1"/><stop offset=".258" style="stop-color:#6826bd;stop-opacity:1"/><stop offset=".262" style="stop-color:#6826bc;stop-opacity:1"/><stop offset=".266" style="stop-color:#6925bb;stop-opacity:1"/><stop offset=".27" style="stop-color:#6a25ba;stop-opacity:1"/><stop offset=".273" style="stop-color:#6b25b9;stop-opacity:1"/><stop offset=".277" style="stop-color:#6c25b8;stop-opacity:1"/><stop offset=".281" style="stop-color:#6c25b7;stop-opacity:1"/><stop offset=".285" style="stop-color:#6d24b6;stop-opacity:1"/><stop offset=".289" style="stop-color:#6e24b5;stop-opacity:1"/><stop offset=".293" style="stop-color:#6f24b4;stop-opacity:1"/><stop offset=".297" style="stop-color:#7024b3;stop-opacity:1"/><stop offset=".301" style="stop-color:#7024b2;stop-opacity:1"/><stop offset=".305" style="stop-color:#7123b1;stop-opacity:1"/><stop offset=".309" style="stop-color:#7223b0;stop-opacity:1"/><stop offset=".313" style="stop-color:#7323af;stop-opacity:1"/><stop offset=".316" style="stop-color:#7423ae;stop-opacity:1"/><stop offset=".32" style="stop-color:#7423ad;stop-opacity:1"/><stop offset=".324" style="stop-color:#7522ac;stop-opacity:1"/><stop offset=".328" style="stop-color:#7622ab;stop-opacity:1"/><stop offset=".332" style="stop-color:#72a;stop-opacity:1"/><stop offset=".336" style="stop-color:#7822a9;stop-opacity:1"/><stop offset=".34" style="stop-color:#7822a8;stop-opacity:1"/><stop offset=".344" style="stop-color:#7921a7;stop-opacity:1"/><stop offset=".348" style="stop-color:#7a21a6;stop-opacity:1"/><stop offset=".352" style="stop-color:#7b21a5;stop-opacity:1"/><stop offset=".355" style="stop-color:#7c21a4;stop-opacity:1"/><stop offset=".359" style="stop-color:#7c21a3;stop-opacity:1"/><stop offset=".363" style="stop-color:#7d20a2;stop-opacity:1"/><stop offset=".367" style="stop-color:#7e20a1;stop-opacity:1"/><stop offset=".371" style="stop-color:#7f20a0;stop-opacity:1"/><stop offset=".375" style="stop-color:#80209f;stop-opacity:1"/><stop offset=".379" style="stop-color:#80209e;stop-opacity:1"/><stop offset=".383" style="stop-color:#811f9d;stop-opacity:1"/><stop offset=".387" style="stop-color:#821f9c;stop-opacity:1"/><stop offset=".391" style="stop-color:#831f9b;stop-opacity:1"/><stop offset=".395" style="stop-color:#831f9a;stop-opacity:1"/><stop offset=".398" style="stop-color:#841f99;stop-opacity:1"/><stop offset=".402" style="stop-color:#851e98;stop-opacity:1"/><stop offset=".406" style="stop-color:#861e97;stop-opacity:1"/><stop offset=".41" style="stop-color:#871e96;stop-opacity:1"/><stop offset=".414" style="stop-color:#871e95;stop-opacity:1"/><stop offset=".418" style="stop-color:#881e94;stop-opacity:1"/><stop offset=".422" style="stop-color:#891d93;stop-opacity:1"/><stop offset=".426" style="stop-color:#8a1d92;stop-opacity:1"/><stop offset=".43" style="stop-color:#8b1d91;stop-opacity:1"/><stop offset=".434" style="stop-color:#8b1d90;stop-opacity:1"/><stop offset=".438" style="stop-color:#8c1d8f;stop-opacity:1"/><stop offset=".441" style="stop-color:#8d1c8e;stop-opacity:1"/><stop offset=".445" style="stop-color:#8e1c8d;stop-opacity:1"/><stop offset=".449" style="stop-color:#8f1c8c;stop-opacity:1"/><stop offset=".453" style="stop-color:#8f1c8b;stop-opacity:1"/><stop offset=".457" style="stop-color:#901c8a;stop-opacity:1"/><stop offset=".461" style="stop-color:#911b89;stop-opacity:1"/><stop offset=".465" style="stop-color:#921b88;stop-opacity:1"/><stop offset=".469" style="stop-color:#931b87;stop-opacity:1"/><stop offset=".473" style="stop-color:#931b86;stop-opacity:1"/><stop offset=".477" style="stop-color:#941b85;stop-opacity:1"/><stop offset=".48" style="stop-color:#951a84;stop-opacity:1"/><stop offset=".484" style="stop-color:#961a83;stop-opacity:1"/><stop offset=".488" style="stop-color:#971a82;stop-opacity:1"/><stop offset=".492" style="stop-color:#971a81;stop-opacity:1"/><stop offset=".496" style="stop-color:#981a80;stop-opacity:1"/><stop offset=".5" style="stop-color:#991980;stop-opacity:1"/><stop offset=".504" style="stop-color:#9a197f;stop-opacity:1"/><stop offset=".508" style="stop-color:#9b197e;stop-opacity:1"/><stop offset=".512" style="stop-color:#9b197d;stop-opacity:1"/><stop offset=".516" style="stop-color:#9c197c;stop-opacity:1"/><stop offset=".52" style="stop-color:#9d197b;stop-opacity:1"/><stop offset=".523" style="stop-color:#9e187a;stop-opacity:1"/><stop offset=".527" style="stop-color:#9f1879;stop-opacity:1"/><stop offset=".531" style="stop-color:#9f1878;stop-opacity:1"/><stop offset=".535" style="stop-color:#a01877;stop-opacity:1"/><stop offset=".539" style="stop-color:#a11876;stop-opacity:1"/><stop offset=".543" style="stop-color:#a21775;stop-opacity:1"/><stop offset=".547" style="stop-color:#a31774;stop-opacity:1"/><stop offset=".551" style="stop-color:#a31773;stop-opacity:1"/><stop offset=".555" style="stop-color:#a41772;stop-opacity:1"/><stop offset=".559" style="stop-color:#a51771;stop-opacity:1"/><stop offset=".563" style="stop-color:#a61670;stop-opacity:1"/><stop offset=".566" style="stop-color:#a7166f;stop-opacity:1"/><stop offset=".57" style="stop-color:#a7166e;stop-opacity:1"/><stop offset=".574" style="stop-color:#a8166d;stop-opacity:1"/><stop offset=".578" style="stop-color:#a9166c;stop-opacity:1"/><stop offset=".582" style="stop-color:#aa156b;stop-opacity:1"/><stop offset=".586" style="stop-color:#ab156a;stop-opacity:1"/><stop offset=".59" style="stop-color:#ab1569;stop-opacity:1"/><stop offset=".594" style="stop-color:#ac1568;stop-opacity:1"/><stop offset=".598" style="stop-color:#ad1567;stop-opacity:1"/><stop offset=".602" style="stop-color:#ae1466;stop-opacity:1"/><stop offset=".605" style="stop-color:#af1465;stop-opacity:1"/><stop offset=".609" style="stop-color:#af1464;stop-opacity:1"/><stop offset=".613" style="stop-color:#b01463;stop-opacity:1"/><stop offset=".617" style="stop-color:#b11462;stop-opacity:1"/><stop offset=".621" style="stop-color:#b21361;stop-opacity:1"/><stop offset=".625" style="stop-color:#b21360;stop-opacity:1"/><stop offset=".629" style="stop-color:#b3135f;stop-opacity:1"/><stop offset=".633" style="stop-color:#b4135e;stop-opacity:1"/><stop offset=".637" style="stop-color:#b5135d;stop-opacity:1"/><stop offset=".641" style="stop-color:#b6125c;stop-opacity:1"/><stop offset=".645" style="stop-color:#b6125b;stop-opacity:1"/><stop offset=".648" style="stop-color:#b7125a;stop-opacity:1"/><stop offset=".652" style="stop-color:#b81259;stop-opacity:1"/><stop offset=".656" style="stop-color:#b91258;stop-opacity:1"/><stop offset=".66" style="stop-color:#ba1157;stop-opacity:1"/><stop offset=".664" style="stop-color:#ba1156;stop-opacity:1"/><stop offset=".668" style="stop-color:#b15;stop-opacity:1"/><stop offset=".672" style="stop-color:#bc1154;stop-opacity:1"/><stop offset=".676" style="stop-color:#bd1153;stop-opacity:1"/><stop offset=".68" style="stop-color:#be1052;stop-opacity:1"/><stop offset=".684" style="stop-color:#be1051;stop-opacity:1"/><stop offset=".688" style="stop-color:#bf1050;stop-opacity:1"/><stop offset=".691" style="stop-color:#c0104f;stop-opacity:1"/><stop offset=".695" style="stop-color:#c1104e;stop-opacity:1"/><stop offset=".699" style="stop-color:#c20f4d;stop-opacity:1"/><stop offset=".703" style="stop-color:#c20f4c;stop-opacity:1"/><stop offset=".707" style="stop-color:#c30f4b;stop-opacity:1"/><stop offset=".711" style="stop-color:#c40f4a;stop-opacity:1"/><stop offset=".715" style="stop-color:#c50f49;stop-opacity:1"/><stop offset=".719" style="stop-color:#c60e48;stop-opacity:1"/><stop offset=".723" style="stop-color:#c60e47;stop-opacity:1"/><stop offset=".727" style="stop-color:#c70e46;stop-opacity:1"/><stop offset=".73" style="stop-color:#c80e45;stop-opacity:1"/><stop offset=".734" style="stop-color:#c90e44;stop-opacity:1"/><stop offset=".738" style="stop-color:#ca0d43;stop-opacity:1"/><stop offset=".742" style="stop-color:#ca0d42;stop-opacity:1"/><stop offset=".746" style="stop-color:#cb0d41;stop-opacity:1"/><stop offset=".75" style="stop-color:#cc0d40;stop-opacity:1"/><stop offset=".754" style="stop-color:#cd0d3f;stop-opacity:1"/><stop offset=".758" style="stop-color:#ce0c3e;stop-opacity:1"/><stop offset=".762" style="stop-color:#ce0c3d;stop-opacity:1"/><stop offset=".766" style="stop-color:#cf0c3c;stop-opacity:1"/><stop offset=".77" style="stop-color:#d00c3b;stop-opacity:1"/><stop offset=".773" style="stop-color:#d10c3a;stop-opacity:1"/><stop offset=".777" style="stop-color:#d20b39;stop-opacity:1"/><stop offset=".781" style="stop-color:#d20b38;stop-opacity:1"/><stop offset=".785" style="stop-color:#d30b37;stop-opacity:1"/><stop offset=".789" style="stop-color:#d40b36;stop-opacity:1"/><stop offset=".793" style="stop-color:#d50b35;stop-opacity:1"/><stop offset=".797" style="stop-color:#d60a34;stop-opacity:1"/><stop offset=".801" style="stop-color:#d60a33;stop-opacity:1"/><stop offset=".805" style="stop-color:#d70a32;stop-opacity:1"/><stop offset=".809" style="stop-color:#d80a31;stop-opacity:1"/><stop offset=".813" style="stop-color:#d90a30;stop-opacity:1"/><stop offset=".816" style="stop-color:#da092f;stop-opacity:1"/><stop offset=".82" style="stop-color:#da092e;stop-opacity:1"/><stop offset=".824" style="stop-color:#db092d;stop-opacity:1"/><stop offset=".828" style="stop-color:#dc092c;stop-opacity:1"/><stop offset=".832" style="stop-color:#dd092b;stop-opacity:1"/><stop offset=".836" style="stop-color:#de082a;stop-opacity:1"/><stop offset=".84" style="stop-color:#de0829;stop-opacity:1"/><stop offset=".844" style="stop-color:#df0828;stop-opacity:1"/><stop offset=".848" style="stop-color:#e00827;stop-opacity:1"/><stop offset=".852" style="stop-color:#e10826;stop-opacity:1"/><stop offset=".855" style="stop-color:#e20725;stop-opacity:1"/><stop offset=".859" style="stop-color:#e20724;stop-opacity:1"/><stop offset=".863" style="stop-color:#e30723;stop-opacity:1"/><stop offset=".867" style="stop-color:#e40722;stop-opacity:1"/><stop offset=".871" style="stop-color:#e50721;stop-opacity:1"/><stop offset=".875" style="stop-color:#e50620;stop-opacity:1"/><stop offset=".879" style="stop-color:#e6061f;stop-opacity:1"/><stop offset=".883" style="stop-color:#e7061e;stop-opacity:1"/><stop offset=".887" style="stop-color:#e8061d;stop-opacity:1"/><stop offset=".891" style="stop-color:#e9061c;stop-opacity:1"/><stop offset=".895" style="stop-color:#e9051b;stop-opacity:1"/><stop offset=".898" style="stop-color:#ea051a;stop-opacity:1"/><stop offset=".902" style="stop-color:#eb0519;stop-opacity:1"/><stop offset=".906" style="stop-color:#ec0518;stop-opacity:1"/><stop offset=".91" style="stop-color:#ed0517;stop-opacity:1"/><stop offset=".914" style="stop-color:#ed0416;stop-opacity:1"/><stop offset=".918" style="stop-color:#ee0415;stop-opacity:1"/><stop offset=".922" style="stop-color:#ef0414;stop-opacity:1"/><stop offset=".926" style="stop-color:#f00413;stop-opacity:1"/><stop offset=".93" style="stop-color:#f10412;stop-opacity:1"/><stop offset=".934" style="stop-color:#f10311;stop-opacity:1"/><stop offset=".938" style="stop-color:#f20310;stop-opacity:1"/><stop offset=".941" style="stop-color:#f3030f;stop-opacity:1"/><stop offset=".945" style="stop-color:#f4030e;stop-opacity:1"/><stop offset=".949" style="stop-color:#f5030d;stop-opacity:1"/><stop offset=".953" style="stop-color:#f5020c;stop-opacity:1"/><stop offset=".957" style="stop-color:#f6020b;stop-opacity:1"/><stop offset=".961" style="stop-color:#f7020a;stop-opacity:1"/><stop offset=".965" style="stop-color:#f80209;stop-opacity:1"/><stop offset=".969" style="stop-color:#f90208;stop-opacity:1"/><stop offset=".973" style="stop-color:#f90107;stop-opacity:1"/><stop offset=".977" style="stop-color:#fa0106;stop-opacity:1"/><stop offset=".98" style="stop-color:#fb0105;stop-opacity:1"/><stop offset=".984" style="stop-color:#fc0104;stop-opacity:1"/><stop offset=".988" style="stop-color:#fd0103;stop-opacity:1"/><stop offset=".992" style="stop-color:#fd0002;stop-opacity:1"/><stop offset=".996" style="stop-color:#fe0001;stop-opacity:1"/><stop offset="1" style="stop-color:red;stop-opacity:1"/></linearGradient><linearGradient id="I" gradientUnits="userSpaceOnUse" x1="0" y1="0" x2="100" y2="0" gradientTransform="matrix(.53156 0 0 -1.134 114.773 160.906)"><stop offset="0" style="stop-color:#33f;stop-opacity:1"/><stop offset=".004" style="stop-color:#3433fe;stop-opacity:1"/><stop offset=".008" style="stop-color:#3534fd;stop-opacity:1"/><stop offset=".012" style="stop-color:#3534fc;stop-opacity:1"/><stop offset=".016" style="stop-color:#3634fb;stop-opacity:1"/><stop offset=".02" style="stop-color:#3734fa;stop-opacity:1"/><stop offset=".023" style="stop-color:#3835f9;stop-opacity:1"/><stop offset=".027" style="stop-color:#3935f8;stop-opacity:1"/><stop offset=".031" style="stop-color:#3935f7;stop-opacity:1"/><stop offset=".035" style="stop-color:#3a36f6;stop-opacity:1"/><stop offset=".039" style="stop-color:#3b36f5;stop-opacity:1"/><stop offset=".043" style="stop-color:#3c36f4;stop-opacity:1"/><stop offset=".047" style="stop-color:#3d37f3;stop-opacity:1"/><stop offset=".051" style="stop-color:#3d37f2;stop-opacity:1"/><stop offset=".055" style="stop-color:#3e37f1;stop-opacity:1"/><stop offset=".059" style="stop-color:#3f37f0;stop-opacity:1"/><stop offset=".063" style="stop-color:#4038ef;stop-opacity:1"/><stop offset=".066" style="stop-color:#4138ee;stop-opacity:1"/><stop offset=".07" style="stop-color:#4138ed;stop-opacity:1"/><stop offset=".074" style="stop-color:#4239ec;stop-opacity:1"/><stop offset=".078" style="stop-color:#4339eb;stop-opacity:1"/><stop offset=".082" style="stop-color:#4439ea;stop-opacity:1"/><stop offset=".086" style="stop-color:#453ae9;stop-opacity:1"/><stop offset=".09" style="stop-color:#453ae8;stop-opacity:1"/><stop offset=".094" style="stop-color:#463ae7;stop-opacity:1"/><stop offset=".098" style="stop-color:#473ae6;stop-opacity:1"/><stop offset=".102" style="stop-color:#483be5;stop-opacity:1"/><stop offset=".105" style="stop-color:#493be4;stop-opacity:1"/><stop offset=".109" style="stop-color:#493be3;stop-opacity:1"/><stop offset=".113" style="stop-color:#4a3ce2;stop-opacity:1"/><stop offset=".117" style="stop-color:#4b3ce1;stop-opacity:1"/><stop offset=".121" style="stop-color:#4c3ce0;stop-opacity:1"/><stop offset=".125" style="stop-color:#4c3ddf;stop-opacity:1"/><stop offset=".129" style="stop-color:#4d3dde;stop-opacity:1"/><stop offset=".133" style="stop-color:#4e3ddd;stop-opacity:1"/><stop offset=".137" style="stop-color:#4f3ddc;stop-opacity:1"/><stop offset=".141" style="stop-color:#503edb;stop-opacity:1"/><stop offset=".145" style="stop-color:#503eda;stop-opacity:1"/><stop offset=".148" style="stop-color:#513ed9;stop-opacity:1"/><stop offset=".152" style="stop-color:#523fd8;stop-opacity:1"/><stop offset=".156" style="stop-color:#533fd7;stop-opacity:1"/><stop offset=".16" style="stop-color:#543fd6;stop-opacity:1"/><stop offset=".164" style="stop-color:#5440d5;stop-opacity:1"/><stop offset=".168" style="stop-color:#5540d4;stop-opacity:1"/><stop offset=".172" style="stop-color:#5640d3;stop-opacity:1"/><stop offset=".176" style="stop-color:#5740d2;stop-opacity:1"/><stop offset=".18" style="stop-color:#5841d1;stop-opacity:1"/><stop offset=".184" style="stop-color:#5841d0;stop-opacity:1"/><stop offset=".188" style="stop-color:#5941cf;stop-opacity:1"/><stop offset=".191" style="stop-color:#5a42ce;stop-opacity:1"/><stop offset=".195" style="stop-color:#5b42cd;stop-opacity:1"/><stop offset=".199" style="stop-color:#5c42cc;stop-opacity:1"/><stop offset=".203" style="stop-color:#5c43cb;stop-opacity:1"/><stop offset=".207" style="stop-color:#5d43ca;stop-opacity:1"/><stop offset=".211" style="stop-color:#5e43c9;stop-opacity:1"/><stop offset=".215" style="stop-color:#5f43c8;stop-opacity:1"/><stop offset=".219" style="stop-color:#6044c7;stop-opacity:1"/><stop offset=".223" style="stop-color:#6044c6;stop-opacity:1"/><stop offset=".227" style="stop-color:#6144c5;stop-opacity:1"/><stop offset=".23" style="stop-color:#6245c4;stop-opacity:1"/><stop offset=".234" style="stop-color:#6345c3;stop-opacity:1"/><stop offset=".238" style="stop-color:#6445c2;stop-opacity:1"/><stop offset=".242" style="stop-color:#6446c1;stop-opacity:1"/><stop offset=".246" style="stop-color:#6546c0;stop-opacity:1"/><stop offset=".25" style="stop-color:#6646bf;stop-opacity:1"/><stop offset=".254" style="stop-color:#6746be;stop-opacity:1"/><stop offset=".258" style="stop-color:#6847bd;stop-opacity:1"/><stop offset=".262" style="stop-color:#6847bc;stop-opacity:1"/><stop offset=".266" style="stop-color:#6947bb;stop-opacity:1"/><stop offset=".27" style="stop-color:#6a48ba;stop-opacity:1"/><stop offset=".273" style="stop-color:#6b48b9;stop-opacity:1"/><stop offset=".277" style="stop-color:#6c48b8;stop-opacity:1"/><stop offset=".281" style="stop-color:#6c49b7;stop-opacity:1"/><stop offset=".285" style="stop-color:#6d49b6;stop-opacity:1"/><stop offset=".289" style="stop-color:#6e49b5;stop-opacity:1"/><stop offset=".293" style="stop-color:#6f49b4;stop-opacity:1"/><stop offset=".297" style="stop-color:#704ab3;stop-opacity:1"/><stop offset=".301" style="stop-color:#704ab2;stop-opacity:1"/><stop offset=".305" style="stop-color:#714ab1;stop-opacity:1"/><stop offset=".309" style="stop-color:#724bb0;stop-opacity:1"/><stop offset=".313" style="stop-color:#734baf;stop-opacity:1"/><stop offset=".316" style="stop-color:#744bae;stop-opacity:1"/><stop offset=".32" style="stop-color:#744cad;stop-opacity:1"/><stop offset=".324" style="stop-color:#754cac;stop-opacity:1"/><stop offset=".328" style="stop-color:#764cab;stop-opacity:1"/><stop offset=".332" style="stop-color:#774caa;stop-opacity:1"/><stop offset=".336" style="stop-color:#784da9;stop-opacity:1"/><stop offset=".34" style="stop-color:#784da8;stop-opacity:1"/><stop offset=".344" style="stop-color:#794da7;stop-opacity:1"/><stop offset=".348" style="stop-color:#7a4ea6;stop-opacity:1"/><stop offset=".352" style="stop-color:#7b4ea5;stop-opacity:1"/><stop offset=".355" style="stop-color:#7c4ea4;stop-opacity:1"/><stop offset=".359" style="stop-color:#7c4ea3;stop-opacity:1"/><stop offset=".363" style="stop-color:#7d4fa2;stop-opacity:1"/><stop offset=".367" style="stop-color:#7e4fa1;stop-opacity:1"/><stop offset=".371" style="stop-color:#7f4fa0;stop-opacity:1"/><stop offset=".375" style="stop-color:#7f509f;stop-opacity:1"/><stop offset=".379" style="stop-color:#80509e;stop-opacity:1"/><stop offset=".383" style="stop-color:#81509d;stop-opacity:1"/><stop offset=".387" style="stop-color:#82519c;stop-opacity:1"/><stop offset=".391" style="stop-color:#83519b;stop-opacity:1"/><stop offset=".395" style="stop-color:#83519a;stop-opacity:1"/><stop offset=".398" style="stop-color:#845199;stop-opacity:1"/><stop offset=".402" style="stop-color:#855298;stop-opacity:1"/><stop offset=".406" style="stop-color:#865297;stop-opacity:1"/><stop offset=".41" style="stop-color:#875296;stop-opacity:1"/><stop offset=".414" style="stop-color:#875395;stop-opacity:1"/><stop offset=".418" style="stop-color:#885394;stop-opacity:1"/><stop offset=".422" style="stop-color:#895393;stop-opacity:1"/><stop offset=".426" style="stop-color:#8a5492;stop-opacity:1"/><stop offset=".43" style="stop-color:#8b5491;stop-opacity:1"/><stop offset=".434" style="stop-color:#8b5490;stop-opacity:1"/><stop offset=".438" style="stop-color:#8c548f;stop-opacity:1"/><stop offset=".441" style="stop-color:#8d558e;stop-opacity:1"/><stop offset=".445" style="stop-color:#8e558d;stop-opacity:1"/><stop offset=".449" style="stop-color:#8f558c;stop-opacity:1"/><stop offset=".453" style="stop-color:#8f568b;stop-opacity:1"/><stop offset=".457" style="stop-color:#90568a;stop-opacity:1"/><stop offset=".461" style="stop-color:#915689;stop-opacity:1"/><stop offset=".465" style="stop-color:#925788;stop-opacity:1"/><stop offset=".469" style="stop-color:#935787;stop-opacity:1"/><stop offset=".473" style="stop-color:#935786;stop-opacity:1"/><stop offset=".477" style="stop-color:#945785;stop-opacity:1"/><stop offset=".48" style="stop-color:#955884;stop-opacity:1"/><stop offset=".484" style="stop-color:#965883;stop-opacity:1"/><stop offset=".488" style="stop-color:#975882;stop-opacity:1"/><stop offset=".492" style="stop-color:#975981;stop-opacity:1"/><stop offset=".496" style="stop-color:#985980;stop-opacity:1"/><stop offset=".5" style="stop-color:#995980;stop-opacity:1"/><stop offset=".504" style="stop-color:#9a5a7f;stop-opacity:1"/><stop offset=".508" style="stop-color:#9b5a7e;stop-opacity:1"/><stop offset=".512" style="stop-color:#9b5a7d;stop-opacity:1"/><stop offset=".516" style="stop-color:#9c5a7c;stop-opacity:1"/><stop offset=".52" style="stop-color:#9d5b7b;stop-opacity:1"/><stop offset=".523" style="stop-color:#9e5b7a;stop-opacity:1"/><stop offset=".527" style="stop-color:#9f5b79;stop-opacity:1"/><stop offset=".531" style="stop-color:#9f5c78;stop-opacity:1"/><stop offset=".535" style="stop-color:#a05c77;stop-opacity:1"/><stop offset=".539" style="stop-color:#a15c76;stop-opacity:1"/><stop offset=".543" style="stop-color:#a25d75;stop-opacity:1"/><stop offset=".547" style="stop-color:#a35d74;stop-opacity:1"/><stop offset=".551" style="stop-color:#a35d73;stop-opacity:1"/><stop offset=".555" style="stop-color:#a45d72;stop-opacity:1"/><stop offset=".559" style="stop-color:#a55e71;stop-opacity:1"/><stop offset=".563" style="stop-color:#a65e70;stop-opacity:1"/><stop offset=".566" style="stop-color:#a75e6f;stop-opacity:1"/><stop offset=".57" style="stop-color:#a75f6e;stop-opacity:1"/><stop offset=".574" style="stop-color:#a85f6d;stop-opacity:1"/><stop offset=".578" style="stop-color:#a95f6c;stop-opacity:1"/><stop offset=".582" style="stop-color:#aa606b;stop-opacity:1"/><stop offset=".586" style="stop-color:#ab606a;stop-opacity:1"/><stop offset=".59" style="stop-color:#ab6069;stop-opacity:1"/><stop offset=".594" style="stop-color:#ac6068;stop-opacity:1"/><stop offset=".598" style="stop-color:#ad6167;stop-opacity:1"/><stop offset=".602" style="stop-color:#ae6166;stop-opacity:1"/><stop offset=".605" style="stop-color:#af6165;stop-opacity:1"/><stop offset=".609" style="stop-color:#af6264;stop-opacity:1"/><stop offset=".613" style="stop-color:#b06263;stop-opacity:1"/><stop offset=".617" style="stop-color:#b16262;stop-opacity:1"/><stop offset=".621" style="stop-color:#b26361;stop-opacity:1"/><stop offset=".625" style="stop-color:#b26360;stop-opacity:1"/><stop offset=".629" style="stop-color:#b3635f;stop-opacity:1"/><stop offset=".633" style="stop-color:#b4635e;stop-opacity:1"/><stop offset=".637" style="stop-color:#b5645d;stop-opacity:1"/><stop offset=".641" style="stop-color:#b6645c;stop-opacity:1"/><stop offset=".645" style="stop-color:#b6645b;stop-opacity:1"/><stop offset=".648" style="stop-color:#b7655a;stop-opacity:1"/><stop offset=".652" style="stop-color:#b86559;stop-opacity:1"/><stop offset=".656" style="stop-color:#b96558;stop-opacity:1"/><stop offset=".66" style="stop-color:#ba6657;stop-opacity:1"/><stop offset=".664" style="stop-color:#ba6656;stop-opacity:1"/><stop offset=".668" style="stop-color:#b65;stop-opacity:1"/><stop offset=".672" style="stop-color:#bc6654;stop-opacity:1"/><stop offset=".676" style="stop-color:#bd6753;stop-opacity:1"/><stop offset=".68" style="stop-color:#be6752;stop-opacity:1"/><stop offset=".684" style="stop-color:#be6751;stop-opacity:1"/><stop offset=".688" style="stop-color:#bf6850;stop-opacity:1"/><stop offset=".691" style="stop-color:#c0684f;stop-opacity:1"/><stop offset=".695" style="stop-color:#c1684e;stop-opacity:1"/><stop offset=".699" style="stop-color:#c2684d;stop-opacity:1"/><stop offset=".703" style="stop-color:#c2694c;stop-opacity:1"/><stop offset=".707" style="stop-color:#c3694b;stop-opacity:1"/><stop offset=".711" style="stop-color:#c4694a;stop-opacity:1"/><stop offset=".715" style="stop-color:#c56a49;stop-opacity:1"/><stop offset=".719" style="stop-color:#c66a48;stop-opacity:1"/><stop offset=".723" style="stop-color:#c66a47;stop-opacity:1"/><stop offset=".727" style="stop-color:#c76b46;stop-opacity:1"/><stop offset=".73" style="stop-color:#c86b45;stop-opacity:1"/><stop offset=".734" style="stop-color:#c96b44;stop-opacity:1"/><stop offset=".738" style="stop-color:#ca6b43;stop-opacity:1"/><stop offset=".742" style="stop-color:#ca6c42;stop-opacity:1"/><stop offset=".746" style="stop-color:#cb6c41;stop-opacity:1"/><stop offset=".75" style="stop-color:#cc6c40;stop-opacity:1"/><stop offset=".754" style="stop-color:#cd6d3f;stop-opacity:1"/><stop offset=".758" style="stop-color:#ce6d3e;stop-opacity:1"/><stop offset=".762" style="stop-color:#ce6d3d;stop-opacity:1"/><stop offset=".766" style="stop-color:#cf6e3c;stop-opacity:1"/><stop offset=".77" style="stop-color:#d06e3b;stop-opacity:1"/><stop offset=".773" style="stop-color:#d16e3a;stop-opacity:1"/><stop offset=".777" style="stop-color:#d26e39;stop-opacity:1"/><stop offset=".781" style="stop-color:#d26f38;stop-opacity:1"/><stop offset=".785" style="stop-color:#d36f37;stop-opacity:1"/><stop offset=".789" style="stop-color:#d46f36;stop-opacity:1"/><stop offset=".793" style="stop-color:#d57035;stop-opacity:1"/><stop offset=".797" style="stop-color:#d67034;stop-opacity:1"/><stop offset=".801" style="stop-color:#d67033;stop-opacity:1"/><stop offset=".805" style="stop-color:#d77132;stop-opacity:1"/><stop offset=".809" style="stop-color:#d87131;stop-opacity:1"/><stop offset=".813" style="stop-color:#d97130;stop-opacity:1"/><stop offset=".816" style="stop-color:#da712f;stop-opacity:1"/><stop offset=".82" style="stop-color:#da722e;stop-opacity:1"/><stop offset=".824" style="stop-color:#db722d;stop-opacity:1"/><stop offset=".828" style="stop-color:#dc722c;stop-opacity:1"/><stop offset=".832" style="stop-color:#dd732b;stop-opacity:1"/><stop offset=".836" style="stop-color:#de732a;stop-opacity:1"/><stop offset=".84" style="stop-color:#de7329;stop-opacity:1"/><stop offset=".844" style="stop-color:#df7428;stop-opacity:1"/><stop offset=".848" style="stop-color:#e07427;stop-opacity:1"/><stop offset=".852" style="stop-color:#e17426;stop-opacity:1"/><stop offset=".855" style="stop-color:#e27425;stop-opacity:1"/><stop offset=".859" style="stop-color:#e27524;stop-opacity:1"/><stop offset=".863" style="stop-color:#e37523;stop-opacity:1"/><stop offset=".867" style="stop-color:#e47522;stop-opacity:1"/><stop offset=".871" style="stop-color:#e57621;stop-opacity:1"/><stop offset=".875" style="stop-color:#e57620;stop-opacity:1"/><stop offset=".879" style="stop-color:#e6761f;stop-opacity:1"/><stop offset=".883" style="stop-color:#e7771e;stop-opacity:1"/><stop offset=".887" style="stop-color:#e8771d;stop-opacity:1"/><stop offset=".891" style="stop-color:#e9771c;stop-opacity:1"/><stop offset=".895" style="stop-color:#e9771b;stop-opacity:1"/><stop offset=".898" style="stop-color:#ea781a;stop-opacity:1"/><stop offset=".902" style="stop-color:#eb7819;stop-opacity:1"/><stop offset=".906" style="stop-color:#ec7818;stop-opacity:1"/><stop offset=".91" style="stop-color:#ed7917;stop-opacity:1"/><stop offset=".914" style="stop-color:#ed7916;stop-opacity:1"/><stop offset=".918" style="stop-color:#ee7915;stop-opacity:1"/><stop offset=".922" style="stop-color:#ef7a14;stop-opacity:1"/><stop offset=".926" style="stop-color:#f07a13;stop-opacity:1"/><stop offset=".93" style="stop-color:#f17a12;stop-opacity:1"/><stop offset=".934" style="stop-color:#f17a11;stop-opacity:1"/><stop offset=".938" style="stop-color:#f27b10;stop-opacity:1"/><stop offset=".941" style="stop-color:#f37b0f;stop-opacity:1"/><stop offset=".945" style="stop-color:#f47b0e;stop-opacity:1"/><stop offset=".949" style="stop-color:#f57c0d;stop-opacity:1"/><stop offset=".953" style="stop-color:#f57c0c;stop-opacity:1"/><stop offset=".957" style="stop-color:#f67c0b;stop-opacity:1"/><stop offset=".961" style="stop-color:#f77d0a;stop-opacity:1"/><stop offset=".965" style="stop-color:#f87d09;stop-opacity:1"/><stop offset=".969" style="stop-color:#f97d08;stop-opacity:1"/><stop offset=".973" style="stop-color:#f97d07;stop-opacity:1"/><stop offset=".977" style="stop-color:#fa7e06;stop-opacity:1"/><stop offset=".98" style="stop-color:#fb7e05;stop-opacity:1"/><stop offset=".984" style="stop-color:#fc7e04;stop-opacity:1"/><stop offset=".988" style="stop-color:#fd7f03;stop-opacity:1"/><stop offset=".992" style="stop-color:#fd7f02;stop-opacity:1"/><stop offset=".996" style="stop-color:#fe7f01;stop-opacity:1"/><stop offset="1" style="stop-color:#ff7f00;stop-opacity:1"/></linearGradient></defs><path style="stroke:none;fill-rule:nonzero;fill:#33f;fill-opacity:1" d="M114.773 104.207c0-31.312-25.382-56.695-56.695-56.695-31.308 0-56.691 25.383-56.691 56.695 0 31.309 25.383 56.691 56.691 56.691 31.313 0 56.695-25.382 56.695-56.691Zm0 0"/><g clip-path="url(#a)"><path style="fill:none;stroke-width:1.19553;stroke-linecap:butt;stroke-linejoin:miter;stroke:#33f;stroke-opacity:1;stroke-miterlimit:10" d="M56.694-.001c0 31.312-25.382 56.695-56.695 56.695-31.308 0-56.691-25.383-56.691-56.695 0-31.309 25.383-56.691 56.691-56.691 31.313 0 56.695 25.382 56.695 56.691Zm0 0" transform="matrix(1 0 0 -1 58.079 104.206)"/></g><g style="fill:#000;fill-opacity:1"><use xlink:href="#b" x="19.037" y="107.147"/><use xlink:href="#c" x="29.067" y="107.147"/></g><g style="fill:#000;fill-opacity:1"><use xlink:href="#c" x="36.169" y="107.147"/><use xlink:href="#d" x="42.9" y="107.147"/></g><g style="fill:#000;fill-opacity:1"><use xlink:href="#e" x="52.117" y="107.147"/><use xlink:href="#c" x="58.095" y="107.147"/><use xlink:href="#f" x="64.825" y="107.147"/><use xlink:href="#e" x="72.297" y="107.147"/><use xlink:href="#g" x="78.275" y="107.147"/><use xlink:href="#h" x="84.408" y="107.147"/><use xlink:href="#d" x="91.88" y="107.147"/></g><path style="fill-rule:nonzero;fill:red;fill-opacity:1;stroke-width:1.19553;stroke-linecap:butt;stroke-linejoin:miter;stroke:red;stroke-opacity:1;stroke-miterlimit:10" d="M154.636 70.866c0 17.613-14.278 31.89-31.89 31.89-17.614 0-31.891-14.277-31.891-31.89s14.277-31.89 31.89-31.89 31.89 14.277 31.89 31.89Zm0 0" transform="matrix(1 0 0 -1 58.079 104.206)"/><g style="fill:#000;fill-opacity:1"><use xlink:href="#i" x="168.149" y="30.12"/><use xlink:href="#j" x="175.815" y="30.12"/><use xlink:href="#k" x="181.706" y="30.12"/><use xlink:href="#l" x="184.656" y="30.12"/><use xlink:href="#m" x="187.606" y="30.12"/></g><g style="fill:#000;fill-opacity:1"><use xlink:href="#n" x="163.065" y="41.078"/><use xlink:href="#o" x="167.781" y="41.078"/><use xlink:href="#p" x="173.089" y="41.078"/><use xlink:href="#n" x="178.98" y="41.078"/><use xlink:href="#q" x="183.697" y="41.078"/><use xlink:href="#r" x="188.565" y="41.078"/><use xlink:href="#s" x="194.456" y="41.078"/></g><g clip-path="url(#t)"><g clip-path="url(#u)"><path style="stroke:none;fill-rule:nonzero;fill:#33f;fill-opacity:1" d="m79.691 26.258-49.96 28.844 56.699 98.207 49.957-28.844Zm0 0"/></g></g><g clip-path="url(#v)"><g clip-path="url(#w)"><path style="stroke:none;fill-rule:nonzero;fill:red;fill-opacity:1" d="m123.996.68 28.477-16.442 56.699 98.207-28.48 16.442Zm0 0"/></g></g><g clip-path="url(#x)"><g clip-path="url(#y)"><g clip-path="url(#z)"><path style="stroke:none;fill-rule:nonzero;fill:url(#A)" d="M110.965 122.844 70.5 52.758l73.355-42.348 40.461 70.086Zm0 0"/></g></g></g><path style="stroke:none;fill-rule:nonzero;fill:#ff8000;fill-opacity:1" d="M231.703 104.207c0-17.613-14.277-31.89-31.89-31.89-17.614 0-31.891 14.277-31.891 31.89s14.277 31.89 31.89 31.89c17.614 0 31.891-14.277 31.891-31.89Zm0 0"/><g clip-path="url(#B)"><path style="fill:none;stroke-width:1.19553;stroke-linecap:butt;stroke-linejoin:miter;stroke:#ff8000;stroke-opacity:1;stroke-miterlimit:10" d="M173.624-.001c0 17.613-14.277 31.89-31.89 31.89-17.614 0-31.891-14.277-31.891-31.89s14.277-31.89 31.89-31.89c17.614 0 31.891 14.277 31.891 31.89Zm0 0" transform="matrix(1 0 0 -1 58.079 104.206)"/></g><g style="fill:#000;fill-opacity:1"><use xlink:href="#i" x="187.137" y="100.986"/><use xlink:href="#j" x="194.803" y="100.986"/><use xlink:href="#k" x="200.694" y="100.986"/><use xlink:href="#l" x="203.644" y="100.986"/><use xlink:href="#m" x="206.594" y="100.986"/></g><g style="fill:#000;fill-opacity:1"><use xlink:href="#n" x="182.053" y="111.945"/><use xlink:href="#o" x="186.769" y="111.945"/><use xlink:href="#p" x="192.077" y="111.945"/><use xlink:href="#n" x="197.968" y="111.945"/><use xlink:href="#q" x="202.685" y="111.945"/><use xlink:href="#r" x="207.553" y="111.945"/><use xlink:href="#s" x="213.444" y="111.945"/></g><g clip-path="url(#C)"><g clip-path="url(#D)"><path style="stroke:none;fill-rule:nonzero;fill:#33f;fill-opacity:1" d="M115.77 47.504H58.078v113.402h57.692Zm0 0"/></g></g><g clip-path="url(#E)"><g clip-path="url(#F)"><path style="stroke:none;fill-rule:nonzero;fill:#ff8000;fill-opacity:1" d="M166.926 47.504h32.887v113.402h-32.887Zm0 0"/></g></g><g clip-path="url(#G)"><g clip-path="url(#H)"><path style="stroke:none;fill-rule:nonzero;fill:url(#I)" d="M114.773 123.598V84.816h53.157v38.782Zm0 0"/></g></g></svg>