<svg xmlns="http://www.w3.org/2000/svg" xmlns:xlink="http://www.w3.org/1999/xlink" width="145.44" height="98.811" viewBox="0 0 109.08 74.108" version="1.2"><defs><symbol overflow="visible" id="b"><path style="stroke:none" d="M5.563-1.813c.14 0 .312 0 .312-.171 0-.188-.172-.188-.313-.188H1c-.125 0-.297 0-.297.188 0 .171.172.171.297.171Zm0 0"/></symbol><symbol overflow="visible" id="c"><path style="stroke:none" d="M2.5-5.078c0-.219-.016-.219-.234-.219-.329.313-.75.5-1.5.5v.266c.218 0 .64 0 1.109-.203v4.078c0 .297-.031.39-.781.39H.812V0c.329-.031 1.016-.031 1.375-.031.36 0 1.047 0 1.376.031v-.266H3.28c-.75 0-.781-.093-.781-.39Zm0 0"/></symbol><symbol overflow="visible" id="d"><path style="stroke:none" d="M2.25-1.625c.125-.125.453-.39.594-.5.484-.453.953-.89.953-1.61 0-.953-.797-1.562-1.781-1.562-.97 0-1.594.719-1.594 1.438 0 .39.312.437.422.437.172 0 .422-.11.422-.422 0-.406-.407-.406-.5-.406.234-.594.765-.781 1.156-.781.734 0 1.125.625 1.125 1.297 0 .828-.578 1.437-1.531 2.39l-1 1.047C.422-.219.422-.203.422 0h3.14l.235-1.422h-.25c-.016.156-.078.547-.172.703-.047.063-.656.063-.781.063H1.172Zm0 0"/></symbol><symbol overflow="visible" id="e"><path style="stroke:none" d="M3.89-2.547c0-.844-.078-1.36-.343-1.875-.344-.703-1-.875-1.438-.875-1 0-1.375.75-1.484.969C.344-3.75.328-2.953.328-2.547c0 .531.016 1.328.406 1.969.36.594.954.75 1.375.75.391 0 1.063-.125 1.47-.906.296-.579.312-1.297.312-1.813ZM2.11-.062c-.266 0-.813-.126-.985-.954-.094-.453-.094-1.203-.094-1.625 0-.546 0-1.109.094-1.546.172-.813.781-.891.984-.891.266 0 .829.14.985.86.094.437.094 1.046.094 1.577 0 .47 0 1.188-.094 1.641-.172.828-.719.938-.985.938Zm0 0"/></symbol><clipPath id="a"><path d="M0 0h108.621v73.66H0Zm0 0"/></clipPath></defs><path style="fill:none;stroke-width:.3985;stroke-linecap:round;stroke-linejoin:miter;stroke:gray;stroke-opacity:1;stroke-miterlimit:10" d="M-34.017-.001v1.395M-31.18-.001v1.395M-25.513-.001v1.395M-22.677-.001v1.395M-19.84-.001v1.395M-17.009-.001v1.395M-14.173-.001v1.395M-11.337-.001v1.395M-8.505-.001v1.395M-5.669-.001v1.395M-2.833-.001v1.395M2.835-.001v1.395M5.671-.001v1.395M8.503-.001v1.395M11.339-.001v1.395M14.175-.001v1.395M17.007-.001v1.395M19.843-.001v1.395M22.679-.001v1.395M25.51-.001v1.395M31.183-.001v1.395M34.015-.001v1.395M36.85-.001v1.395M39.687-.001v1.395M42.519-.001v1.395M45.355-.001v1.395M48.19-.001v1.395M51.023-.001v1.395M53.858-.001v1.395" transform="matrix(1 0 0 -1 43.454 64.706)"/><path style="fill:none;stroke-width:.3985;stroke-linecap:round;stroke-linejoin:miter;stroke:#000;stroke-opacity:1;stroke-miterlimit:10" d="M-28.349-.001v1.992M28.347-.001v1.992M56.694-.001v1.992M-1.993 28.347H1.99M-1.993 56.694H1.99" transform="matrix(1 0 0 -1 43.454 64.706)"/><path style="fill:none;stroke-width:.3985;stroke-linecap:butt;stroke-linejoin:miter;stroke:#000;stroke-opacity:1;stroke-miterlimit:10" d="M-42.907-.001H63.76" transform="matrix(1 0 0 -1 43.454 64.706)"/><path style="fill:none;stroke-width:.3985;stroke-linecap:round;stroke-linejoin:round;stroke:#000;stroke-opacity:1;stroke-miterlimit:10" d="M-2.074 2.39C-1.694.956-.85.28.001-.001c-.852-.277-1.696-.957-2.075-2.39" transform="matrix(1 0 0 -1 107.413 64.706)"/><path style="fill:none;stroke-width:.3985;stroke-linecap:butt;stroke-linejoin:miter;stroke:#000;stroke-opacity:1;stroke-miterlimit:10" d="M0-7.474v71.227" transform="matrix(1 0 0 -1 43.454 64.706)"/><path style="fill:none;stroke-width:.3985;stroke-linecap:round;stroke-linejoin:round;stroke:#000;stroke-opacity:1;stroke-miterlimit:10" d="M-2.07 2.392C-1.695.958-.852.278 0 0-.852-.28-1.695-.956-2.07-2.39" transform="matrix(0 -1 -1 0 43.454 .754)"/><g clip-path="url(#a)"><path style="fill:none;stroke-width:.59776;stroke-linecap:butt;stroke-linejoin:miter;stroke:#000;stroke-opacity:1;stroke-miterlimit:10" d="M-35.434 22.147s2.773-3.351 3.84-4.539a106.128 106.128 0 0 1 3.835-4.02 86.582 86.582 0 0 1 3.84-3.5 68.888 68.888 0 0 1 3.84-2.976 58.508 58.508 0 0 1 3.836-2.46 47.804 47.804 0 0 1 3.84-1.938 42.4 42.4 0 0 1 3.84-1.422c1.062-.32 2.77-.719 3.836-.899A34.53 34.53 0 0 1-.887.015 34.028 34.028 0 0 1 2.947.15c1.067.114 2.774.407 3.84.66 1.067.258 2.774.782 3.84 1.18a44.42 44.42 0 0 1 3.836 1.7 52.402 52.402 0 0 1 3.84 2.218 61.764 61.764 0 0 1 3.836 2.738 76.701 76.701 0 0 1 3.84 3.258 93.862 93.862 0 0 1 3.84 3.778 114.893 114.893 0 0 1 3.835 4.296 144.264 144.264 0 0 1 3.84 4.817 170.873 170.873 0 0 1 3.84 5.34c1.063 1.55 2.77 4.156 3.836 5.855a247.544 247.544 0 0 1 3.84 6.375 295.641 295.641 0 0 1 3.836 6.899c1.066 1.984 3.84 7.414 3.84 7.414" transform="matrix(1 0 0 -1 43.454 64.706)"/></g><use xlink:href="#b" x="9.697" y="72.498" style="fill:#000;fill-opacity:1"/><use xlink:href="#c" x="16.284" y="72.498" style="fill:#000;fill-opacity:1"/><use xlink:href="#c" x="69.683" y="72.498" style="fill:#000;fill-opacity:1"/><use xlink:href="#d" x="98.03" y="72.498" style="fill:#000;fill-opacity:1"/><use xlink:href="#e" x="36.564" y="72.498" style="fill:#000;fill-opacity:1"/><use xlink:href="#c" x="34.571" y="38.928" style="fill:#000;fill-opacity:1"/><use xlink:href="#d" x="34.571" y="10.581" style="fill:#000;fill-opacity:1"/></svg>