<svg xmlns="http://www.w3.org/2000/svg" width="121.777" height="79.323" viewBox="0 0 91.333 59.492" version="1.2"><defs><clipPath id="a"><path d="M6 31h74v28.238H6Zm0 0"/></clipPath></defs><g clip-path="url(#a)"><path style="fill:none;stroke-width:1.59404;stroke-linecap:round;stroke-linejoin:miter;stroke:#000;stroke-opacity:1;stroke-miterlimit:10" d="M28.57-.001a3.49 3.49 0 0 0 6.977 0 3.486 3.486 0 1 0 6.973 0 3.486 3.486 0 1 0 6.973 0 3.49 3.49 0 0 0 6.976 0" transform="matrix(1 0 0 -1 .675 57.44)"/></g><path style="fill:none;stroke-width:1.59404;stroke-linecap:butt;stroke-linejoin:miter;stroke:red;stroke-opacity:1;stroke-miterlimit:10" d="M81.555 42.295V14.401h6.973v27.894Zm0 0" transform="matrix(1 0 0 -1 .675 57.44)"/><path style="fill:none;stroke-width:.3985;stroke-linecap:butt;stroke-linejoin:miter;stroke:#000;stroke-opacity:1;stroke-miterlimit:10" d="M0-.001h28.57m27.899 0h28.57v13.605m0 29.488v13.602" transform="matrix(1 0 0 -1 .675 57.44)"/></svg>