<svg xmlns="http://www.w3.org/2000/svg" width="125.647" height="88.683" viewBox="0 0 94.235 66.512" version="1.2"><path style="fill:none;stroke-width:.19925;stroke-linecap:butt;stroke-linejoin:miter;stroke:gray;stroke-opacity:1;stroke-miterlimit:10" d="M.001 0h85.04M0 28.346h85.04M0 56.683h85.04M0-.001v56.695M28.345 0v56.695M56.693 0v56.695M85.029 0v56.695" transform="matrix(1 0 0 -1 7.713 58.171)"/><path style="stroke:none;fill-rule:nonzero;fill:#ff8080;fill-opacity:1" d="M9.395 29.266a1.772 1.772 0 1 0-3.363 1.119 1.772 1.772 0 0 0 3.363-1.12ZM20.75 25.48a2.442 2.442 0 1 0-4.636 1.541 2.442 2.442 0 0 0 4.636-1.54Zm12.785-4.265a3.196 3.196 0 1 0-6.061 2.026 3.196 3.196 0 0 0 6.061-2.026Zm14.403-4.797a4.045 4.045 0 1 0-7.676 2.557 4.045 4.045 0 0 0 7.675-2.557Zm16.214-5.406a5.006 5.006 0 0 0-6.328-3.164 5.006 5.006 0 0 0-3.164 6.328 5.006 5.006 0 0 0 6.328 3.164 5.006 5.006 0 0 0 3.164-6.328Zm18.262-6.086A6.081 6.081 0 1 0 70.875 8.77a6.08 6.08 0 0 0 7.691 3.847 6.083 6.083 0 0 0 3.848-7.691Zm0 0"/><path style="stroke:none;fill-rule:nonzero;fill:#8080ff;fill-opacity:1" d="M14.438 55.93a7.087 7.087 0 0 0-8.965-4.48 7.087 7.087 0 1 0 8.965 4.48Zm17.91-5.97a5.902 5.902 0 0 0-7.461-3.73 5.897 5.897 0 1 0 7.46 3.73Zm15.902-5.3a4.837 4.837 0 1 0-9.18 3.059 4.837 4.837 0 1 0 9.18-3.059Zm14.121-4.707a3.899 3.899 0 1 0-7.398 2.465 3.899 3.899 0 0 0 4.933 2.465 3.893 3.893 0 0 0 2.465-4.93Zm12.543-4.183a3.066 3.066 0 1 0-5.816 1.94 3.066 3.066 0 0 0 5.816-1.94Zm11.14-3.711a2.326 2.326 0 1 0-4.414 1.473A2.322 2.322 0 0 0 84.583 35a2.326 2.326 0 0 0 1.473-2.941Zm0 0"/></svg>