<svg xmlns="http://www.w3.org/2000/svg" xmlns:xlink="http://www.w3.org/1999/xlink" width="153.891" height="115.4pt" viewBox="0 0 115.418 115.4" version="1.2"><defs><symbol overflow="visible" id="c"><path style="stroke:none" d="M4.203 0v-.422H3.016v-4.547c0-.281-.047-.281-.36-.281-.484.39-1.125.516-1.75.516H.734v.421h.172c.203 0 .64-.03 1.11-.171v4.062H.812V0c.282-.031 1.344-.031 1.704-.031.359 0 1.39 0 1.687.031Zm0 0"/></symbol><symbol overflow="visible" id="d"><path style="stroke:none" d="M4.39-1.813h-.452c-.063.516-.157.688-.204.704-.093.046-.703.046-.843.046H1.797c1.062-.828 1.5-1.078 1.844-1.343.546-.438.75-.828.75-1.281 0-.938-.875-1.563-2.079-1.563-1.015 0-1.828.453-1.828 1.203 0 .484.391.625.61.625.281 0 .61-.203.61-.61a.566.566 0 0 0-.376-.562c.219-.172.547-.234.797-.234.719 0 1.11.531 1.11 1.14 0 .657-.422 1.188-.891 1.626L.578-.423C.5-.328.484-.328.484-.172V0h3.641Zm0 0"/></symbol><symbol overflow="visible" id="e"><path style="stroke:none" d="M4.469-1.422c0-.656-.5-1.203-1.36-1.39.22-.094 1.094-.438 1.094-1.297 0-.641-.656-1.141-1.844-1.141-1.03 0-1.687.563-1.687 1.203 0 .453.36.61.594.61.312 0 .593-.22.593-.594 0-.172-.062-.469-.453-.563.36-.312.828-.312.907-.312.734 0 .734.531.734.765 0 .579-.266.875-.297.907-.219.25-.375.25-.797.28-.25.017-.328.017-.328.188 0 .157.11.157.25.157h.39c.922 0 .938.78.938 1.171 0 .36 0 1.172-.906 1.172-.172 0-.625-.015-1.016-.28a.646.646 0 0 0 .422-.61c0-.375-.281-.64-.656-.64-.344 0-.64.234-.64.655 0 .766.827 1.25 1.921 1.25 1.563 0 2.14-.843 2.14-1.53Zm0 0"/></symbol><symbol overflow="visible" id="f"><path style="stroke:none" d="M4.61 0v-.422H3.78v-.812h.828v-.407h-.828v-3.343c0-.25-.047-.266-.281-.266-.172 0-.219 0-.328.125L.266-1.641v.407h2.453v.812h-.953V0c.296-.031 1.109-.031 1.453-.031.375 0 1.031 0 1.39.031ZM2.827-1.64H.766l2.062-2.47Zm0 0"/></symbol><symbol overflow="visible" id="g"><path style="stroke:none" d="M4.39-1.61c0-.89-.64-1.671-1.921-1.671-.375 0-.75.062-1.063.265V-4c.25.047.516.047.563.047.218 0 .75 0 1.36-.375.202-.14.687-.547.687-.75 0-.125-.079-.172-.157-.172 0 0-.03 0-.109.047a3.963 3.963 0 0 1-2.64-.016c-.063-.031-.079-.031-.094-.031-.141 0-.141.14-.141.25v2.344c0 .156 0 .281.219.281.125 0 .14-.031.218-.125.329-.375.813-.453 1.125-.453.766 0 .766.734.766 1.328 0 .563 0 1.36-1.031 1.36-.422 0-.813-.172-1.031-.438a.57.57 0 0 0 .5-.578c0-.36-.297-.563-.579-.563-.25 0-.578.157-.578.578 0 .72.672 1.375 1.72 1.375C3.624.11 4.39-.656 4.39-1.609Zm0 0"/></symbol><symbol overflow="visible" id="h"><path style="stroke:none" d="M4.469-1.64c0-.454-.094-.86-.563-1.266-.437-.375-.875-.453-1.375-.453-.484 0-.812.312-.984.593 0-.453.016-1.046.25-1.453a1.345 1.345 0 0 1 1.172-.687c.234 0 .422.047.578.187a.534.534 0 0 0-.406.532.53.53 0 0 0 .546.53c.313 0 .532-.218.532-.546 0-.484-.328-1.047-1.25-1.047-1.25 0-2.563.766-2.563 2.719C.406-1.5.656.109 2.47.109c1.187 0 2-.671 2-1.75Zm-1.14 0c0 .75 0 1.374-.86 1.374-.39 0-.656-.218-.766-.468-.14-.282-.14-.922-.14-.954 0-.718.312-1.328.953-1.328.812 0 .812.61.812 1.375Zm0 0"/></symbol><symbol overflow="visible" id="i"><path style="stroke:none" d="M4.734-4.984v-.141H2.891c-.25 0-.72-.031-.985-.047h-.265c-.329-.031-.344-.11-.344-.219H.844L.547-3.312h.437c.079-.547.188-.704.235-.72.093-.046.75-.046.89-.046h1.297c-.875 1-.875 1.016-1.125 1.406-.562.938-.64 1.797-.64 2.188 0 .593.484.593.53.593.25 0 .376-.14.407-.187.125-.125.125-.25.125-.61 0-.203 0-.562.047-1.015.11-1.047.516-1.5.531-1.516l1.36-1.5c.093-.093.093-.11.093-.265Zm0 0"/></symbol><symbol overflow="visible" id="j"><path style="stroke:none" d="M4.469-1.484c0-.891-.766-1.297-1.078-1.47.328-.171.812-.468.812-1.093 0-1.11-1.266-1.203-1.75-1.203-1.187 0-1.781.64-1.781 1.422 0 .531.344.953.765 1.203-.828.36-1.03.86-1.03 1.344 0 1 .905 1.39 2.015 1.39 1.375 0 2.047-.703 2.047-1.593ZM3.53-4.047c0 .297-.125.61-.562.875l-1.25-.656c-.157-.078-.375-.219-.375-.469 0-.5.593-.61 1.078-.61.719 0 1.11.329 1.11.86Zm.188 3c0 .672-.781.781-1.266.781-.765 0-1.297-.343-1.297-1.015 0-.797.735-1.094.735-1.094l.421.203.907.485c.125.062.5.265.5.64Zm0 0"/></symbol><symbol overflow="visible" id="k"><path style="stroke:none" d="M4.469-2.61c0-.562-.047-1.265-.407-1.828-.343-.53-.89-.812-1.609-.812C1.25-5.25.406-4.594.406-3.5c0 .328.047.828.547 1.266.344.28.688.453 1.39.453.548 0 .86-.39.985-.594 0 .594-.031 1.078-.203 1.438a1.205 1.205 0 0 1-1.11.671c-.078 0-.406 0-.656-.156.094-.031.375-.172.375-.516 0-.312-.234-.53-.546-.53-.297 0-.532.202-.532.546C.656-.359 1.078.11 2.031.11 3.25.11 4.47-.67 4.47-2.609Zm-1.157-.874c0 .812-.359 1.359-.953 1.359-.812 0-.812-.625-.812-1.375 0-.719 0-1.406.922-1.406.844 0 .844.968.844 1.422Zm0 0"/></symbol><clipPath id="a"><path d="M.727 23h113.386v69H.727Zm0 0"/></clipPath><clipPath id="b"><path d="M23 .7h69v113.386H23Zm0 0"/></clipPath></defs><g clip-path="url(#a)"><path style="fill:none;stroke-width:.3985;stroke-linecap:butt;stroke-linejoin:miter;stroke:#000;stroke-opacity:1;stroke-miterlimit:10" d="M-56.693-28.345c283.468 0-170.082 56.691 113.386 56.691" transform="matrix(1 0 0 -1 57.42 57.393)"/></g><g clip-path="url(#b)"><path style="fill:none;stroke-width:.3985;stroke-linecap:butt;stroke-linejoin:miter;stroke:#000;stroke-opacity:1;stroke-miterlimit:10" d="M-28.346-56.693c0 283.469 56.692-170.082 56.692 113.387" transform="matrix(1 0 0 -1 57.42 57.393)"/></g><path style="stroke:none;fill-rule:nonzero;fill:red;fill-opacity:.5" d="M31.281 85.527a1.994 1.994 0 0 0-3.988 0c0 1.098.895 1.993 1.992 1.993a1.996 1.996 0 0 0 1.996-1.993Zm28.14-28.144a1.99 1.99 0 0 0-1.991-1.992 1.99 1.99 0 0 0-1.992 1.992 1.99 1.99 0 0 0 1.992 1.992 1.99 1.99 0 0 0 1.992-1.992Zm-26.648-9.406a1.99 1.99 0 0 0-1.992-1.993 1.99 1.99 0 0 0-1.992 1.993 1.99 1.99 0 0 0 1.992 1.992 1.99 1.99 0 0 0 1.992-1.992Zm1.594-15.63a1.993 1.993 0 1 0-3.986.002 1.993 1.993 0 0 0 3.986-.001Zm15.625-1.597a1.993 1.993 0 1 0-3.983.002 1.993 1.993 0 0 0 3.983-.002Zm18.84 53.29a1.996 1.996 0 0 0-1.992-1.997 1.994 1.994 0 0 0 0 3.988 1.996 1.996 0 0 0 1.992-1.992Zm15.625-1.603a1.99 1.99 0 0 0-1.992-1.992 1.99 1.99 0 0 0-1.992 1.993 1.99 1.99 0 0 0 1.992 1.992 1.99 1.99 0 0 0 1.992-1.993Zm1.594-15.628a1.99 1.99 0 0 0-1.992-1.993 1.99 1.99 0 0 0-1.993 1.993A1.99 1.99 0 0 0 84.06 68.8a1.99 1.99 0 0 0 1.992-1.992Zm1.496-37.551a1.993 1.993 0 0 0-3.984 0c0 1.101.89 1.996 1.992 1.996a1.996 1.996 0 0 0 1.992-1.996Zm0 0"/><use xlink:href="#c" x="20.882" y="82.006" style="fill:#000;fill-opacity:1"/><use xlink:href="#d" x="49.025" y="53.863" style="fill:#000;fill-opacity:1"/><use xlink:href="#e" x="22.376" y="44.345" style="fill:#000;fill-opacity:1"/><use xlink:href="#f" x="23.97" y="28.829" style="fill:#000;fill-opacity:1"/><use xlink:href="#g" x="39.596" y="27.117" style="fill:#000;fill-opacity:1"/><use xlink:href="#h" x="58.433" y="80.406" style="fill:#000;fill-opacity:1"/><use xlink:href="#i" x="74.059" y="78.806" style="fill:#000;fill-opacity:1"/><use xlink:href="#j" x="75.652" y="63.178" style="fill:#000;fill-opacity:1"/><use xlink:href="#k" x="77.147" y="25.629" style="fill:#000;fill-opacity:1"/></svg>