<svg xmlns="http://www.w3.org/2000/svg" width="29.297" height="6.195" viewBox="0 0 21.973 4.646" version="1.2"><defs><clipPath id="a"><path d="M9 0h12.96v4.469H9Zm0 0"/></clipPath></defs><path style="fill:none;stroke-width:.3985;stroke-linecap:butt;stroke-linejoin:miter;stroke:#000;stroke-opacity:1;stroke-miterlimit:10" d="M0 2.212h14.864" transform="matrix(1 0 0 -1 .996 4.364)"/><path style="stroke:none;fill-rule:nonzero;fill:#000;fill-opacity:1" d="M20.723 2.152c.183-.617-.754-1.117-2.098-1.117-1.344 0-2.582.5-2.766 1.117-.183.618.754 1.118 2.098 1.118 1.34 0 2.578-.5 2.766-1.118Zm0 0"/><g clip-path="url(#a)"><path style="fill:none;stroke-width:.3985;stroke-linecap:butt;stroke-linejoin:miter;stroke:#000;stroke-opacity:1;stroke-miterlimit:10" d="M5.062 0c-.002.617-1.09 1.117-2.433 1.117C1.285 1.117.197.617.2 0 .2-.617 1.288-1.117 2.63-1.117c1.34 0 2.429.5 2.431 1.117Zm0 0" transform="matrix(1 0 .3 -1 15.66 2.152)"/></g></svg>