<svg xmlns="http://www.w3.org/2000/svg" width="62.619" height="43.707" viewBox="0 0 46.964 32.78" version="1.2"><defs><clipPath id="a"><path d="M0 0h46.945v32.672H0Zm0 0"/></clipPath></defs><path style="stroke:none;fill-rule:evenodd;fill:gray;fill-opacity:.5" d="M31.758 17.492c0-7.828-6.348-14.176-14.176-14.176-7.824 0-14.172 6.348-14.172 14.176s6.348 14.172 14.172 14.172c7.828 0 14.176-6.344 14.176-14.172Zm14.172 0c0-7.828-6.344-14.176-14.172-14.176S17.582 9.664 17.582 17.492s6.348 14.172 14.176 14.172S45.93 25.32 45.93 17.492Zm0 0"/><path style="stroke:none;fill-rule:evenodd;fill:#fff;fill-opacity:1" d="M29.547 15.281c0-7.828-6.348-14.176-14.176-14.176S1.2 7.453 1.2 15.281s6.344 14.172 14.172 14.172 14.176-6.344 14.176-14.172Zm14.172 0c0-7.828-6.344-14.176-14.172-14.176S15.37 7.453 15.37 15.281s6.348 14.172 14.176 14.172 14.172-6.344 14.172-14.172Zm0 0"/><g clip-path="url(#a)"><path style="fill:none;stroke-width:.3985;stroke-linecap:butt;stroke-linejoin:miter;stroke:#000;stroke-opacity:1;stroke-miterlimit:10" d="M14.175-.001c0 7.828-6.348 14.176-14.176 14.176S-14.173 7.827-14.173-.001-7.829-14.173 0-14.173 14.175-7.83 14.175-.001Zm14.172 0c0 7.828-6.344 14.176-14.172 14.176S-.001 7.827-.001-.001s6.348-14.172 14.176-14.172S28.347-7.83 28.347-.001Zm0 0" transform="matrix(1 0 0 -1 15.372 15.28)"/></g></svg>