<svg xmlns="http://www.w3.org/2000/svg" width="93.411" height="13.323" viewBox="0 0 70.058 9.992" version="1.2"><defs><clipPath id="a"><path d="M53 1h16.586v8H53Zm0 0"/></clipPath><clipPath id="b"><path d="M55 3h14.586v4H55Zm0 0"/></clipPath></defs><path style="fill:none;stroke-width:3.9851;stroke-linecap:butt;stroke-linejoin:miter;stroke:#000;stroke-opacity:1;stroke-miterlimit:10" d="M14.175 0h11.336" transform="matrix(1 0 0 -1 -13.632 4.988)"/><path style="fill:none;stroke-width:2.98883;stroke-linecap:butt;stroke-linejoin:miter;stroke:#fff;stroke-opacity:1;stroke-miterlimit:10" d="M14.175 0h11.336" transform="matrix(1 0 0 -1 -13.632 4.988)"/><path style="fill:none;stroke-width:4.98138;stroke-linecap:butt;stroke-linejoin:miter;stroke:#000;stroke-opacity:1;stroke-miterlimit:10" d="M28.347 0h11.34" transform="matrix(1 0 0 -1 -13.632 4.988)"/><path style="fill:none;stroke-width:2.98883;stroke-linecap:butt;stroke-linejoin:miter;stroke:#fff;stroke-opacity:1;stroke-miterlimit:10" d="M28.347 0h11.34" transform="matrix(1 0 0 -1 -13.632 4.988)"/><path style="fill:none;stroke-width:5.97766;stroke-linecap:butt;stroke-linejoin:miter;stroke:#000;stroke-opacity:1;stroke-miterlimit:10" d="M42.519 0h11.34" transform="matrix(1 0 0 -1 -13.632 4.988)"/><path style="fill:none;stroke-width:2.98883;stroke-linecap:butt;stroke-linejoin:miter;stroke:#fff;stroke-opacity:1;stroke-miterlimit:10" d="M42.519 0h11.34" transform="matrix(1 0 0 -1 -13.632 4.988)"/><path style="fill:none;stroke-width:6.97394;stroke-linecap:butt;stroke-linejoin:miter;stroke:#000;stroke-opacity:1;stroke-miterlimit:10" d="M56.694 0H68.03" transform="matrix(1 0 0 -1 -13.632 4.988)"/><path style="fill:none;stroke-width:2.98883;stroke-linecap:butt;stroke-linejoin:miter;stroke:#fff;stroke-opacity:1;stroke-miterlimit:10" d="M56.694 0H68.03" transform="matrix(1 0 0 -1 -13.632 4.988)"/><g clip-path="url(#a)"><path style="fill:none;stroke-width:7.97021;stroke-linecap:butt;stroke-linejoin:miter;stroke:#000;stroke-opacity:1;stroke-miterlimit:10" d="M70.866 0h11.34" transform="matrix(1 0 0 -1 -13.632 4.988)"/></g><g clip-path="url(#b)"><path style="fill:none;stroke-width:2.98883;stroke-linecap:butt;stroke-linejoin:miter;stroke:#fff;stroke-opacity:1;stroke-miterlimit:10" d="M70.866 0h11.34" transform="matrix(1 0 0 -1 -13.632 4.988)"/></g></svg>