<svg xmlns="http://www.w3.org/2000/svg" width="285.297" height="73.659" viewBox="0 0 213.973 55.244" version="1.2"><defs><clipPath id="a"><path d="M1 40h19v14.867H1Zm0 0"/></clipPath><clipPath id="b"><path d="M29 40h19v14.867H29Zm0 0"/></clipPath><clipPath id="c"><path d="M58 40h19v14.867H58Zm0 0"/></clipPath><clipPath id="d"><path d="M86 40h19v14.867H86Zm0 0"/></clipPath><clipPath id="e"><path d="M114 40h19v14.867h-19Zm0 0"/></clipPath><clipPath id="f"><path d="M143 40h19v14.867h-19Zm0 0"/></clipPath><clipPath id="g"><path d="M171 40h19v14.867h-19Zm0 0"/></clipPath><clipPath id="h"><path d="M199 40h14.96v14.867H199Zm0 0"/></clipPath></defs><path style="fill:none;stroke-width:.3985;stroke-linecap:butt;stroke-linejoin:miter;stroke:#000;stroke-opacity:1;stroke-miterlimit:10" d="M-.002-46.04v-6.735" transform="matrix(1 0 0 -1 3.587 .397)"/><path style="fill:none;stroke-width:.3985;stroke-linecap:round;stroke-linejoin:round;stroke:#000;stroke-opacity:1;stroke-miterlimit:10" d="M-2.07 2.393C-1.693.955-.849.28 0-.002c-.848-.277-1.692-.953-2.07-2.39" transform="matrix(0 1 1 0 3.587 53.371)"/><g clip-path="url(#a)"><path style="fill:none;stroke-width:.3985;stroke-linecap:butt;stroke-linejoin:miter;stroke:#000;stroke-opacity:1;stroke-miterlimit:10" d="m3.518-46.04 6.855-6.852" transform="matrix(1 0 0 -1 3.587 .397)"/></g><path style="fill:none;stroke-width:.3985;stroke-linecap:round;stroke-linejoin:round;stroke:#000;stroke-opacity:1;stroke-miterlimit:10" d="M-2.074 2.39C-1.696.956-.85.277 0 0-.85-.28-1.693-.957-2.07-2.39" transform="matrix(.7071 .70708 .70708 -.7071 14.1 53.43)"/><path style="fill:none;stroke-width:.3985;stroke-linecap:butt;stroke-linejoin:miter;stroke:#000;stroke-opacity:1;stroke-miterlimit:10" d="M28.346-46.04v-6.735" transform="matrix(1 0 0 -1 3.587 .397)"/><path style="fill:none;stroke-width:.3985;stroke-linecap:round;stroke-linejoin:round;stroke:#000;stroke-opacity:1;stroke-miterlimit:10" d="M-2.07 2.39C-1.693.956-.849.28 0 0c-.848-.278-1.692-.958-2.07-2.391" transform="matrix(0 1 1 0 31.934 53.371)"/><g clip-path="url(#b)"><path style="fill:none;stroke-width:.3985;stroke-linecap:butt;stroke-linejoin:miter;stroke:#000;stroke-opacity:1;stroke-miterlimit:10" d="m31.866-46.04 6.851-6.852" transform="matrix(1 0 0 -1 3.587 .397)"/></g><path style="fill:none;stroke-width:.3985;stroke-linecap:round;stroke-linejoin:round;stroke:#000;stroke-opacity:1;stroke-miterlimit:10" d="M-2.073 2.39C-1.695.958-.85.279 0 .002-.849-.28-1.692-.957-2.07-2.39" transform="matrix(.7071 .70708 .70708 -.7071 42.448 53.43)"/><path style="fill:none;stroke-width:.3985;stroke-linecap:butt;stroke-linejoin:miter;stroke:#000;stroke-opacity:1;stroke-miterlimit:10" d="M-.002-31.865v-6.738" transform="matrix(1 0 0 -1 3.587 .397)"/><path style="fill:none;stroke-width:.3985;stroke-linecap:round;stroke-linejoin:round;stroke:#000;stroke-opacity:1;stroke-miterlimit:10" d="M-2.073 2.393C-1.694.955-.85.28 0-.002c-.851-.277-1.695-.953-2.074-2.39" transform="matrix(0 1 1 0 3.587 39.198)"/><path style="fill:none;stroke-width:.3985;stroke-linecap:butt;stroke-linejoin:miter;stroke:#000;stroke-opacity:1;stroke-miterlimit:10" d="m3.518-30.107 20.953-10.476" transform="matrix(1 0 0 -1 3.587 .397)"/><path style="fill:none;stroke-width:.3985;stroke-linecap:round;stroke-linejoin:round;stroke:#000;stroke-opacity:1;stroke-miterlimit:10" d="M-2.071 2.39C-1.694.956-.85.28-.001-.002c-.849-.276-1.693-.955-2.072-2.39" transform="matrix(.89436 .4472 .4472 -.89436 28.236 41.068)"/><path style="fill:none;stroke-width:.3985;stroke-linecap:butt;stroke-linejoin:miter;stroke:#000;stroke-opacity:1;stroke-miterlimit:10" d="M56.694-46.04v-6.735" transform="matrix(1 0 0 -1 3.587 .397)"/><path style="fill:none;stroke-width:.3985;stroke-linecap:round;stroke-linejoin:round;stroke:#000;stroke-opacity:1;stroke-miterlimit:10" d="M-2.07 2.39C-1.693.958-.849.279 0 0c-.848-.277-1.692-.957-2.07-2.39" transform="matrix(0 1 1 0 60.281 53.371)"/><g clip-path="url(#c)"><path style="fill:none;stroke-width:.3985;stroke-linecap:butt;stroke-linejoin:miter;stroke:#000;stroke-opacity:1;stroke-miterlimit:10" d="m60.213-46.04 6.852-6.852" transform="matrix(1 0 0 -1 3.587 .397)"/></g><path style="fill:none;stroke-width:.3985;stroke-linecap:round;stroke-linejoin:round;stroke:#000;stroke-opacity:1;stroke-miterlimit:10" d="M-2.073 2.391C-1.694.958-.849.278 0 0-.85-.28-1.691-.957-2.073-2.393" transform="matrix(.7071 .70708 .70708 -.7071 70.794 53.43)"/><path style="fill:none;stroke-width:.3985;stroke-linecap:butt;stroke-linejoin:miter;stroke:#000;stroke-opacity:1;stroke-miterlimit:10" d="M85.041-46.04v-6.735" transform="matrix(1 0 0 -1 3.587 .397)"/><path style="fill:none;stroke-width:.3985;stroke-linecap:round;stroke-linejoin:round;stroke:#000;stroke-opacity:1;stroke-miterlimit:10" d="M-2.07 2.392C-1.693.958-.849.278 0 0c-.848-.281-1.692-.957-2.07-2.39" transform="matrix(0 1 1 0 88.628 53.371)"/><g clip-path="url(#d)"><path style="fill:none;stroke-width:.3985;stroke-linecap:butt;stroke-linejoin:miter;stroke:#000;stroke-opacity:1;stroke-miterlimit:10" d="m88.56-46.04 6.852-6.852" transform="matrix(1 0 0 -1 3.587 .397)"/></g><path style="fill:none;stroke-width:.3985;stroke-linecap:round;stroke-linejoin:round;stroke:#000;stroke-opacity:1;stroke-miterlimit:10" d="M-2.072 2.392C-1.694.958-.848.279 0 0-.848-.28-1.694-.96-2.072-2.392" transform="matrix(.7071 .70708 .70708 -.7071 99.141 53.43)"/><path style="fill:none;stroke-width:.3985;stroke-linecap:butt;stroke-linejoin:miter;stroke:#000;stroke-opacity:1;stroke-miterlimit:10" d="M56.694-31.865v-6.738" transform="matrix(1 0 0 -1 3.587 .397)"/><path style="fill:none;stroke-width:.3985;stroke-linecap:round;stroke-linejoin:round;stroke:#000;stroke-opacity:1;stroke-miterlimit:10" d="M-2.073 2.39C-1.694.958-.85.279 0 0-.85-.277-1.694-.957-2.073-2.39" transform="matrix(0 1 1 0 60.281 39.198)"/><path style="fill:none;stroke-width:.3985;stroke-linecap:butt;stroke-linejoin:miter;stroke:#000;stroke-opacity:1;stroke-miterlimit:10" d="m60.213-30.107 20.95-10.476" transform="matrix(1 0 0 -1 3.587 .397)"/><path style="fill:none;stroke-width:.3985;stroke-linecap:round;stroke-linejoin:round;stroke:#000;stroke-opacity:1;stroke-miterlimit:10" d="M-2.073 2.39C-1.693.956-.852.28 0-.002c-.853-.278-1.693-.955-2.072-2.39" transform="matrix(.89436 .4472 .4472 -.89436 84.93 41.068)"/><path style="fill:none;stroke-width:.3985;stroke-linecap:butt;stroke-linejoin:miter;stroke:#000;stroke-opacity:1;stroke-miterlimit:10" d="M-.002-17.693v-6.734" transform="matrix(1 0 0 -1 3.587 .397)"/><path style="fill:none;stroke-width:.3985;stroke-linecap:round;stroke-linejoin:round;stroke:#000;stroke-opacity:1;stroke-miterlimit:10" d="M-2.072 2.393C-1.692.955-.849.28-.002-.002c-.847-.277-1.69-.953-2.07-2.39" transform="matrix(0 1 1 0 3.587 25.025)"/><path style="fill:none;stroke-width:.3985;stroke-linecap:butt;stroke-linejoin:miter;stroke:#000;stroke-opacity:1;stroke-miterlimit:10" d="m3.518-15.052 49.27-12.32" transform="matrix(1 0 0 -1 3.587 .397)"/><path style="fill:none;stroke-width:.3985;stroke-linecap:round;stroke-linejoin:round;stroke:#000;stroke-opacity:1;stroke-miterlimit:10" d="M-2.073 2.392C-1.694.957-.848.28-.001 0c-.85-.276-1.694-.955-2.072-2.39" transform="matrix(.97012 .24254 .24254 -.97012 56.568 27.816)"/><path style="fill:none;stroke-width:.3985;stroke-linecap:butt;stroke-linejoin:miter;stroke:#000;stroke-opacity:1;stroke-miterlimit:10" d="M113.39-46.04v-6.735" transform="matrix(1 0 0 -1 3.587 .397)"/><path style="fill:none;stroke-width:.3985;stroke-linecap:round;stroke-linejoin:round;stroke:#000;stroke-opacity:1;stroke-miterlimit:10" d="M-2.07 2.393C-1.693.955-.849.279 0 .002-.848-.28-1.692-.955-2.07-2.393" transform="matrix(0 1 1 0 116.975 53.371)"/><g clip-path="url(#e)"><path style="fill:none;stroke-width:.3985;stroke-linecap:butt;stroke-linejoin:miter;stroke:#000;stroke-opacity:1;stroke-miterlimit:10" d="m116.909-46.04 6.851-6.852" transform="matrix(1 0 0 -1 3.587 .397)"/></g><path style="fill:none;stroke-width:.3985;stroke-linecap:round;stroke-linejoin:round;stroke:#000;stroke-opacity:1;stroke-miterlimit:10" d="M-2.071 2.393C-1.696.956-.848.279 0 0c-.848-.279-1.693-.958-2.072-2.392" transform="matrix(.7071 .70708 .70708 -.7071 127.488 53.43)"/><path style="fill:none;stroke-width:.3985;stroke-linecap:butt;stroke-linejoin:miter;stroke:#000;stroke-opacity:1;stroke-miterlimit:10" d="M141.733-46.04v-6.735" transform="matrix(1 0 0 -1 3.587 .397)"/><path style="fill:none;stroke-width:.3985;stroke-linecap:round;stroke-linejoin:round;stroke:#000;stroke-opacity:1;stroke-miterlimit:10" d="M-2.07 2.39C-1.693.955-.849.28 0-.002c-.848-.277-1.692-.957-2.07-2.39" transform="matrix(0 1 1 0 145.321 53.371)"/><g clip-path="url(#f)"><path style="fill:none;stroke-width:.3985;stroke-linecap:butt;stroke-linejoin:miter;stroke:#000;stroke-opacity:1;stroke-miterlimit:10" d="m145.252-46.04 6.856-6.852" transform="matrix(1 0 0 -1 3.587 .397)"/></g><path style="fill:none;stroke-width:.3985;stroke-linecap:round;stroke-linejoin:round;stroke:#000;stroke-opacity:1;stroke-miterlimit:10" d="M-2.074 2.39C-1.695.957-.85.277.001.001-.85-.281-1.693-.957-2.071-2.391" transform="matrix(.7071 .70708 .70708 -.7071 155.835 53.43)"/><path style="fill:none;stroke-width:.3985;stroke-linecap:butt;stroke-linejoin:miter;stroke:#000;stroke-opacity:1;stroke-miterlimit:10" d="M113.39-31.865v-6.738" transform="matrix(1 0 0 -1 3.587 .397)"/><path style="fill:none;stroke-width:.3985;stroke-linecap:round;stroke-linejoin:round;stroke:#000;stroke-opacity:1;stroke-miterlimit:10" d="M-2.073 2.393C-1.694.955-.85.279 0 .002-.85-.28-1.694-.955-2.073-2.393" transform="matrix(0 1 1 0 116.975 39.198)"/><path style="fill:none;stroke-width:.3985;stroke-linecap:butt;stroke-linejoin:miter;stroke:#000;stroke-opacity:1;stroke-miterlimit:10" d="m116.909-30.107 20.949-10.476" transform="matrix(1 0 0 -1 3.587 .397)"/><path style="fill:none;stroke-width:.3985;stroke-linecap:round;stroke-linejoin:round;stroke:#000;stroke-opacity:1;stroke-miterlimit:10" d="M-2.072 2.39C-1.694.956-.85.28.002 0-.85-.279-1.694-.958-2.073-2.393" transform="matrix(.89436 .4472 .4472 -.89436 141.623 41.068)"/><path style="fill:none;stroke-width:.3985;stroke-linecap:butt;stroke-linejoin:miter;stroke:#000;stroke-opacity:1;stroke-miterlimit:10" d="M170.08-46.04v-6.735" transform="matrix(1 0 0 -1 3.587 .397)"/><path style="fill:none;stroke-width:.3985;stroke-linecap:round;stroke-linejoin:round;stroke:#000;stroke-opacity:1;stroke-miterlimit:10" d="M-2.07 2.39C-1.693.957-.849.277 0 0c-.848-.278-1.692-.957-2.07-2.39" transform="matrix(0 1 1 0 173.668 53.371)"/><g clip-path="url(#g)"><path style="fill:none;stroke-width:.3985;stroke-linecap:butt;stroke-linejoin:miter;stroke:#000;stroke-opacity:1;stroke-miterlimit:10" d="m173.6-46.04 6.852-6.852" transform="matrix(1 0 0 -1 3.587 .397)"/></g><path style="fill:none;stroke-width:.3985;stroke-linecap:round;stroke-linejoin:round;stroke:#000;stroke-opacity:1;stroke-miterlimit:10" d="M-2.073 2.391C-1.695.957-.849.278-.001-.001c-.848-.28-1.69-.956-2.07-2.39" transform="matrix(.7071 .70708 .70708 -.7071 184.181 53.43)"/><path style="fill:none;stroke-width:.3985;stroke-linecap:butt;stroke-linejoin:miter;stroke:#000;stroke-opacity:1;stroke-miterlimit:10" d="M198.428-46.04v-6.735" transform="matrix(1 0 0 -1 3.587 .397)"/><path style="fill:none;stroke-width:.3985;stroke-linecap:round;stroke-linejoin:round;stroke:#000;stroke-opacity:1;stroke-miterlimit:10" d="M-2.07 2.391C-1.693.958-.849.278 0 .001-.848-.281-1.692-.956-2.07-2.39" transform="matrix(0 1 1 0 202.015 53.371)"/><g clip-path="url(#h)"><path style="fill:none;stroke-width:.3985;stroke-linecap:butt;stroke-linejoin:miter;stroke:#000;stroke-opacity:1;stroke-miterlimit:10" d="m201.948-46.04 6.851-6.852" transform="matrix(1 0 0 -1 3.587 .397)"/></g><path style="fill:none;stroke-width:.3985;stroke-linecap:round;stroke-linejoin:round;stroke:#000;stroke-opacity:1;stroke-miterlimit:10" d="M-2.072 2.392C-1.694.958-.85.278-.001-.001c-.848-.278-1.69-.955-2.071-2.392" transform="matrix(.7071 .70708 .70708 -.7071 212.528 53.43)"/><path style="fill:none;stroke-width:.3985;stroke-linecap:butt;stroke-linejoin:miter;stroke:#000;stroke-opacity:1;stroke-miterlimit:10" d="M170.08-31.865v-6.738" transform="matrix(1 0 0 -1 3.587 .397)"/><path style="fill:none;stroke-width:.3985;stroke-linecap:round;stroke-linejoin:round;stroke:#000;stroke-opacity:1;stroke-miterlimit:10" d="M-2.073 2.39C-1.694.957-.85.277 0 0-.85-.278-1.694-.957-2.073-2.39" transform="matrix(0 1 1 0 173.668 39.198)"/><path style="fill:none;stroke-width:.3985;stroke-linecap:butt;stroke-linejoin:miter;stroke:#000;stroke-opacity:1;stroke-miterlimit:10" d="m173.6-30.107 20.953-10.476" transform="matrix(1 0 0 -1 3.587 .397)"/><path style="fill:none;stroke-width:.3985;stroke-linecap:round;stroke-linejoin:round;stroke:#000;stroke-opacity:1;stroke-miterlimit:10" d="M-2.074 2.39C-1.693.955-.852.28 0-.002c-.849-.276-1.693-.956-2.072-2.39" transform="matrix(.89436 .4472 .4472 -.89436 198.317 41.068)"/><path style="fill:none;stroke-width:.3985;stroke-linecap:butt;stroke-linejoin:miter;stroke:#000;stroke-opacity:1;stroke-miterlimit:10" d="M113.39-17.693v-6.734" transform="matrix(1 0 0 -1 3.587 .397)"/><path style="fill:none;stroke-width:.3985;stroke-linecap:round;stroke-linejoin:round;stroke:#000;stroke-opacity:1;stroke-miterlimit:10" d="M-2.072 2.393C-1.692.955-.849.279-.002.002c-.847-.281-1.69-.957-2.07-2.395" transform="matrix(0 1 1 0 116.975 25.025)"/><path style="fill:none;stroke-width:.3985;stroke-linecap:butt;stroke-linejoin:miter;stroke:#000;stroke-opacity:1;stroke-miterlimit:10" d="m116.909-15.052 49.265-12.32" transform="matrix(1 0 0 -1 3.587 .397)"/><path style="fill:none;stroke-width:.3985;stroke-linecap:round;stroke-linejoin:round;stroke:#000;stroke-opacity:1;stroke-miterlimit:10" d="M-2.074 2.392C-1.694.957-.849.28.002 0-.851-.277-1.692-.955-2.074-2.39" transform="matrix(.97012 .24254 .24254 -.97012 169.955 27.816)"/><path style="fill:none;stroke-width:.3985;stroke-linecap:butt;stroke-linejoin:miter;stroke:#000;stroke-opacity:1;stroke-miterlimit:10" d="M-.002-3.521v-6.734" transform="matrix(1 0 0 -1 3.587 .397)"/><path style="fill:none;stroke-width:.3985;stroke-linecap:round;stroke-linejoin:round;stroke:#000;stroke-opacity:1;stroke-miterlimit:10" d="M-2.074 2.393C-1.695.955-.851.28 0-.002c-.851-.277-1.695-.953-2.074-2.39" transform="matrix(0 1 1 0 3.587 10.851)"/><path style="fill:none;stroke-width:.3985;stroke-linecap:butt;stroke-linejoin:miter;stroke:#000;stroke-opacity:1;stroke-miterlimit:10" d="m3.518-.439 105.953-13.246" transform="matrix(1 0 0 -1 3.587 .397)"/><path style="fill:none;stroke-width:.3985;stroke-linecap:round;stroke-linejoin:round;stroke:#000;stroke-opacity:1;stroke-miterlimit:10" d="M-2.074 2.391C-1.694.954-.849.281.001.001-.85-.279-1.695-.955-2.07-2.392" transform="matrix(.99225 .12404 .12404 -.99225 113.257 14.106)"/></svg>