<svg xmlns="http://www.w3.org/2000/svg" xmlns:xlink="http://www.w3.org/1999/xlink" width="287.403" height="147.82" viewBox="0 0 215.552 110.865" version="1.2"><defs><symbol overflow="visible" id="a"><path style="stroke:none" d="M4.406-3.625a.504.504 0 0 0-.422.484c0 .172.125.329.344.329.25 0 .5-.22.5-.532 0-.422-.453-.625-.875-.625-.531 0-.844.485-.953.672a1.042 1.042 0 0 0-1-.672c-.953 0-1.484 1.156-1.484 1.39 0 .079.062.11.125.11.078 0 .109-.047.125-.11.28-.89.875-1.155 1.218-1.155.266 0 .485.171.485.593 0 .313-.375 1.75-.5 2.188-.063.265-.344.828-.828.828-.188 0-.375-.063-.454-.11.235-.046.422-.265.422-.484 0-.234-.171-.328-.343-.328-.266 0-.5.219-.5.531 0 .438.484.61.859.61.531 0 .828-.422.969-.672.219.594.75.672.984.672.969 0 1.485-1.157 1.485-1.375 0-.047-.032-.11-.11-.11-.11 0-.11.032-.156.172-.203.64-.719 1.094-1.188 1.094-.25 0-.5-.156-.5-.594 0-.203.125-.687.204-1.031.046-.156.28-1.125.296-1.188.11-.328.375-.796.844-.796.156 0 .328.015.453.109Zm0 0"/></symbol><symbol overflow="visible" id="c"><path style="stroke:none" d="M1.234-2.047c.547 0 1.125 0 1.594-.125.844-.203 1-.703 1-1.015 0-.5-.469-.782-1-.782-1.047 0-2.406.89-2.406 2.422 0 .86.5 1.64 1.469 1.64 1.343 0 2.093-.921 2.093-1.046 0-.047-.062-.125-.125-.125-.03 0-.046.016-.125.11-.546.655-1.359.843-1.828.843-.625 0-.797-.594-.797-1.047 0-.016 0-.328.125-.875Zm.063-.234c.39-1.406 1.39-1.453 1.531-1.453.297 0 .672.14.672.546 0 .907-1.36.907-2.203.907Zm0 0"/></symbol><symbol overflow="visible" id="l"><path style="stroke:none" d="M4.031-6.375c.063-.125.063-.14.063-.156 0-.11-.094-.203-.188-.203-.125 0-.172.078-.172.093L.563 1.891c-.047.125-.047.14-.047.156 0 .11.078.203.187.203.094 0 .156-.047.219-.219Zm0 0"/></symbol><symbol overflow="visible" id="b"><path style="stroke:none" d="M3.219-1.125H3c-.016.094-.078.484-.156.547-.047.047-.531.047-.625.047h-1.11l.766-.625c.203-.172.734-.547.922-.735.172-.171.422-.484.422-.906 0-.75-.672-1.187-1.485-1.187-.765 0-1.296.515-1.296 1.078 0 .297.25.344.312.344a.32.32 0 0 0 .328-.329c0-.125-.078-.328-.344-.328.141-.297.5-.531.922-.531.625 0 .953.469.953.953 0 .422-.28.86-.687 1.25L.5-.25C.437-.187.437-.187.437 0h2.594Zm0 0"/></symbol><symbol overflow="visible" id="d"><path style="stroke:none" d="M3.375-2.36a.339.339 0 0 0-.266.329c0 .187.157.234.235.234.187 0 .36-.14.36-.375 0-.328-.36-.469-.657-.469-.406 0-.64.313-.703.422-.078-.156-.313-.422-.766-.422-.687 0-1.094.72-1.094.922 0 .032.032.078.11.078.094 0 .11-.03.125-.078.156-.484.562-.718.844-.718.296 0 .39.187.39.39 0 .063 0 .125-.047.313-.14.546-.265 1.093-.297 1.171-.093.22-.312.422-.562.422-.031 0-.203 0-.344-.093C.938-.312.97-.5.97-.547c0-.156-.125-.234-.25-.234-.156 0-.344.125-.344.375 0 .344.375.469.656.469.344 0 .594-.235.703-.422.125.25.407.421.75.421.704 0 1.094-.734 1.094-.921 0-.016 0-.094-.11-.094-.077 0-.093.047-.109.11-.171.515-.593.702-.859.702-.219 0-.375-.125-.375-.375 0-.125.016-.25.078-.453l.188-.781c.062-.234.093-.344.218-.484a.574.574 0 0 1 .422-.204c.031 0 .203 0 .344.079Zm0 0"/></symbol><symbol overflow="visible" id="e"><path style="stroke:none" d="M5.563-1.813c.14 0 .312 0 .312-.171 0-.188-.172-.188-.313-.188H1c-.125 0-.297 0-.297.188 0 .171.172.171.297.171Zm0 0"/></symbol><symbol overflow="visible" id="f"><path style="stroke:none" d="M2.25-1.625c.125-.125.453-.39.594-.5.484-.453.953-.89.953-1.61 0-.953-.797-1.562-1.781-1.562-.97 0-1.594.719-1.594 1.438 0 .39.312.437.422.437.172 0 .422-.11.422-.422 0-.406-.407-.406-.5-.406.234-.594.765-.781 1.156-.781.734 0 1.125.625 1.125 1.297 0 .828-.578 1.437-1.531 2.39l-1 1.047C.422-.219.422-.203.422 0h3.14l.235-1.422h-.25c-.016.156-.078.547-.172.703-.047.063-.656.063-.781.063H1.172Zm0 0"/></symbol><symbol overflow="visible" id="g"><path style="stroke:none" d="M2.5-5.078c0-.219-.016-.219-.234-.219-.329.313-.75.5-1.5.5v.266c.218 0 .64 0 1.109-.203v4.078c0 .297-.031.39-.781.39H.812V0c.329-.031 1.016-.031 1.375-.031.36 0 1.047 0 1.376.031v-.266H3.28c-.75 0-.781-.093-.781-.39Zm0 0"/></symbol><symbol overflow="visible" id="h"><path style="stroke:none" d="M3.89-2.547c0-.844-.078-1.36-.343-1.875-.344-.703-1-.875-1.438-.875-1 0-1.375.75-1.484.969C.344-3.75.328-2.953.328-2.547c0 .531.016 1.328.406 1.969.36.594.954.75 1.375.75.391 0 1.063-.125 1.47-.906.296-.579.312-1.297.312-1.813ZM2.11-.062c-.266 0-.813-.126-.985-.954-.094-.453-.094-1.203-.094-1.625 0-.546 0-1.109.094-1.546.172-.813.781-.891.984-.891.266 0 .829.14.985.86.094.437.094 1.046.094 1.577 0 .47 0 1.188-.094 1.641-.172.828-.719.938-.985.938Zm0 0"/></symbol><symbol overflow="visible" id="i"><path style="stroke:none" d="m1.656-6.219-1.328.094v.281c.61 0 .688.063.688.5v4.657c0 .406-.094.406-.688.406V0c.422-.016.594-.031 1-.031.422 0 .578.015 1.016.031v-.281c-.594 0-.688 0-.688-.406Zm0 0"/></symbol><symbol overflow="visible" id="j"><path style="stroke:none" d="M4.344-1.906c0-1.172-.938-2.11-2.032-2.11-1.14 0-2.046.954-2.046 2.11 0 1.11.921 2 2.03 2 1.142 0 2.048-.906 2.048-2ZM2.312-.156c-.453 0-.828-.219-1.03-.563-.235-.39-.25-.86-.25-1.265 0-.344 0-.844.218-1.22a1.222 1.222 0 0 1 1.047-.593c.515 0 .875.297 1.062.594.204.375.204.828.204 1.219 0 .328 0 .843-.22 1.234a1.18 1.18 0 0 1-1.03.594Zm0 0"/></symbol><symbol overflow="visible" id="k"><path style="stroke:none" d="M1.125-1.61c.219.141.5.282.906.282.86 0 1.5-.61 1.5-1.313 0-.437-.25-.75-.36-.875.36-.328.782-.328.876-.328-.031.031-.11.078-.11.235 0 .109.063.265.266.265.125 0 .266-.078.266-.265a.457.457 0 0 0-.485-.454c-.25 0-.656.094-.968.422a1.541 1.541 0 0 0-.97-.328c-.858 0-1.5.61-1.5 1.328 0 .454.266.782.407.907a1.262 1.262 0 0 0-.265.75c0 .296.14.625.39.78C.625-.046.266.282.266.704c0 .64.875 1.14 2.03 1.14 1.11 0 2.048-.468 2.048-1.155 0-.375-.172-.766-.5-.985-.5-.312-1.031-.312-1.875-.312-.188 0-.469 0-.547-.016C1.172-.688 1-.922 1-1.203c0-.156.047-.281.125-.406Zm.906.048c-.797 0-.797-.891-.797-1.079 0-.25.016-.546.172-.765a.792.792 0 0 1 .625-.313c.813 0 .813.86.813 1.078 0 .204 0 1.079-.813 1.079Zm.422 1.515c.281 0 1.39.016 1.39.735 0 .515-.702.921-1.53.921-.891 0-1.547-.421-1.547-.921 0-.141.093-.735.859-.735Zm0 0"/></symbol><symbol overflow="visible" id="m"><path style="stroke:none" d="M4.14-1.594h-.25c-.015.125-.093.657-.203.797-.062.078-.671.078-.859.078H1.234l.891-.844c1.469-1.265 2.016-1.75 2.016-2.656 0-1.031-.844-1.75-1.954-1.75-1.03 0-1.734.813-1.734 1.625 0 .453.39.5.469.5.203 0 .469-.14.469-.469a.451.451 0 0 0-.47-.468c-.046 0-.062 0-.109.015.22-.64.797-.921 1.282-.921.906 0 1.219.843 1.219 1.468 0 .907-.688 1.657-1.11 2.125L.563-.328c-.11.11-.11.125-.11.328h3.438Zm0 0"/></symbol></defs><path style="fill:none;stroke-width:.3985;stroke-linecap:round;stroke-linejoin:miter;stroke:gray;stroke-opacity:1;stroke-miterlimit:10" d="M14.171-1.992V.001M42.519-1.992V.001M70.866-1.992V.001M99.21-1.992V.001M127.558-1.992V.001M14.171 87.59v1.993M42.519 87.59v1.993M70.866 87.59v1.993M99.21 87.59v1.993M127.558 87.59v1.993M-1.993 12.313H0M-1.993 32.563H0M-1.993 52.81H0M-1.993 73.06H0M141.734 12.313h1.992M141.734 32.563h1.992M141.734 52.81h1.992M141.734 73.06h1.992" transform="matrix(1 0 0 -1 15.657 90.716)"/><path style="fill:none;stroke-width:.3985;stroke-linecap:butt;stroke-linejoin:miter;stroke:gray;stroke-opacity:1;stroke-miterlimit:10" d="M0 0h141.734M0 87.59h141.734M0 0v87.59M141.734 0v87.59" transform="matrix(1 0 0 -1 15.657 90.716)"/><path style="fill:none;stroke-width:.59776;stroke-linecap:butt;stroke-linejoin:miter;stroke:#000;stroke-opacity:1;stroke-dasharray:2.98885,.89665,.89665,.89665;stroke-miterlimit:10" d="M0 34.223s2.988.184 4.132.262c1.149.078 2.988.211 4.137.3 1.144.09 2.984.247 4.133.352 1.144.102 2.984.282 4.132.403 1.149.12 2.989.328 4.133.468a215.795 215.795 0 0 1 8.27 1.168c1.144.188 2.984.504 4.133.723 1.148.215 2.984.586 4.132.836 1.149.254 2.989.684 4.133.973 1.149.289 2.988.785 4.137 1.12 1.144.337 2.984.91 4.133 1.298 1.144.39 2.984 1.054 4.133 1.504 1.148.449 2.988 1.218 4.132 1.738a93.23 93.23 0 0 1 4.133 2.008 91.944 91.944 0 0 1 4.137 2.328 90.578 90.578 0 0 1 4.133 2.691 86.565 86.565 0 0 1 4.133 3.11 87.513 87.513 0 0 1 4.132 3.601 94.746 94.746 0 0 1 4.133 4.164 105.877 105.877 0 0 1 4.137 4.824 119.811 119.811 0 0 1 4.133 5.579 133.538 133.538 0 0 1 4.132 6.453c1.149 1.93 4.133 7.465 4.133 7.465" transform="matrix(1 0 0 -1 15.657 90.716)"/><path style="fill:none;stroke-width:.59776;stroke-linecap:butt;stroke-linejoin:miter;stroke:#000;stroke-opacity:1;stroke-dasharray:.89665,.89665;stroke-miterlimit:10" d="M28.347 78.118s2.558-5.344 3.543-7.274c.984-1.933 2.558-4.89 3.543-6.644.984-1.758 2.558-4.43 3.543-6.012a142.99 142.99 0 0 1 3.543-5.379 113.709 113.709 0 0 1 3.543-4.746 89.944 89.944 0 0 1 3.543-4.113 66.918 66.918 0 0 1 3.543-3.477c.984-.879 2.562-2.148 3.543-2.847a39.608 39.608 0 0 1 3.543-2.215 31.342 31.342 0 0 1 3.547-1.582c.98-.352 2.558-.774 3.542-.95.98-.175 2.56-.316 3.543-.316.98 0 2.559.14 3.543.317.98.175 2.559.597 3.543.949.985.351 2.559 1.054 3.543 1.582.985.527 2.559 1.512 3.543 2.215.985.699 2.559 1.968 3.543 2.847.985.875 2.559 2.426 3.543 3.477a87.574 87.574 0 0 1 3.543 4.113 110.35 110.35 0 0 1 3.543 4.746 138.327 138.327 0 0 1 3.543 5.38 175.228 175.228 0 0 1 3.543 6.01c.984 1.755 2.563 4.712 3.543 6.645.984 1.93 3.547 7.274 3.547 7.274" transform="matrix(1 0 0 -1 15.657 90.716)"/><path style="fill:none;stroke-width:.59776;stroke-linecap:butt;stroke-linejoin:miter;stroke:#000;stroke-opacity:1;stroke-dasharray:2.98885,1.19554;stroke-miterlimit:10" d="M14.171 12.313s3.844 1.371 5.317 1.899l5.316 1.898 5.312 1.898 5.317 1.899c1.473.527 3.84 1.371 5.316 1.898 1.473.528 3.84 1.371 5.313 1.899l5.316 1.898c1.473.528 3.84 1.371 5.313 1.899l5.316 1.898 5.316 1.899c1.473.527 3.84 1.37 5.313 1.898l5.316 1.898c1.473.528 3.84 1.371 5.313 1.899 1.476.523 3.84 1.37 5.316 1.898 1.477.524 3.84 1.371 5.317 1.899 1.472.523 3.84 1.37 5.312 1.894 1.477.528 3.84 1.375 5.317 1.899 1.472.527 3.84 1.375 5.312 1.898 1.477.527 3.844 1.371 5.317 1.899l5.316 1.898 5.312 1.898 5.317 1.899c1.472.527 3.84 1.371 5.316 1.898 1.473.528 5.313 1.899 5.313 1.899" transform="matrix(1 0 0 -1 15.657 90.716)"/><path style="fill:none;stroke-width:.59776;stroke-linecap:butt;stroke-linejoin:miter;stroke:#000;stroke-opacity:1;stroke-miterlimit:10" d="M76.534 0s1.961 6.016 2.715 7.9c.754 1.886 1.965 4.28 2.719 5.683.754 1.402 1.96 3.308 2.715 4.425.754 1.122 1.96 2.707 2.715 3.641.754.93 1.965 2.281 2.718 3.078.754.797 1.961 1.973 2.715 2.672.754.7 1.965 1.738 2.715 2.36a80.102 80.102 0 0 0 2.719 2.113c.754.558 1.96 1.406 2.715 1.914a88.414 88.414 0 0 0 2.718 1.75c.754.465 1.961 1.18 2.715 1.61.754.429 1.961 1.093 2.715 1.491.754.399 1.965 1.016 2.719 1.387.754.375 1.96.95 2.715 1.3a134.694 134.694 0 0 0 5.434 2.371 157.393 157.393 0 0 0 5.433 2.122c.75.281 1.96.719 2.715.988.754.266 1.96.684 2.715.938a245.296 245.296 0 0 0 8.148 2.578c.754.227 2.719.793 2.719.793" transform="matrix(1 0 0 -1 15.657 90.716)"/><use xlink:href="#a" x="65.454" y="17.616" style="fill:#000;fill-opacity:1"/><use xlink:href="#b" x="70.678" y="13.807" style="fill:#000;fill-opacity:1"/><path style="fill:none;stroke-width:.19925;stroke-linecap:butt;stroke-linejoin:miter;stroke:gray;stroke-opacity:1;stroke-miterlimit:10" d="M47.14 72.024 35.433 64.2" transform="matrix(1 0 0 -1 15.657 90.716)"/><use xlink:href="#c" x="90.853" y="19.968" style="fill:#000;fill-opacity:1"/><use xlink:href="#d" x="95.137" y="16.159" style="fill:#000;fill-opacity:1"/><use xlink:href="#e" x="24.42" y="100.501" style="fill:#000;fill-opacity:1"/><use xlink:href="#f" x="31.006" y="100.501" style="fill:#000;fill-opacity:1"/><use xlink:href="#e" x="52.766" y="100.501" style="fill:#000;fill-opacity:1"/><use xlink:href="#g" x="59.352" y="100.501" style="fill:#000;fill-opacity:1"/><use xlink:href="#h" x="84.405" y="100.501" style="fill:#000;fill-opacity:1"/><use xlink:href="#g" x="112.75" y="100.501" style="fill:#000;fill-opacity:1"/><use xlink:href="#f" x="141.096" y="100.501" style="fill:#000;fill-opacity:1"/><use xlink:href="#e" x=".188" y="80.553" style="fill:#000;fill-opacity:1"/><use xlink:href="#g" x="6.775" y="80.553" style="fill:#000;fill-opacity:1"/><use xlink:href="#h" x="6.775" y="60.721" style="fill:#000;fill-opacity:1"/><use xlink:href="#g" x="6.775" y="40.474" style="fill:#000;fill-opacity:1"/><use xlink:href="#f" x="6.775" y="20.227" style="fill:#000;fill-opacity:1"/><use xlink:href="#a" x="83.912" y="109.707" style="fill:#000;fill-opacity:1"/><g style="fill:#000;fill-opacity:1"><use xlink:href="#i" x="196.074" y="53.843"/><use xlink:href="#j" x="198.634" y="53.843"/><use xlink:href="#k" x="203.242" y="53.843"/></g><use xlink:href="#a" x="209.513" y="53.843" style="fill:#000;fill-opacity:1"/><path style="fill:none;stroke-width:.59776;stroke-linecap:butt;stroke-linejoin:miter;stroke:#000;stroke-opacity:1;stroke-miterlimit:10" d="M-19.924.002s2.906 1.507 4.98 1.324c2.075-.184 7.891-2.469 9.961-2.653C-2.909-1.51.002.002.002.002" transform="matrix(1 0 0 -1 191.096 51.63)"/><g style="fill:#000;fill-opacity:1"><use xlink:href="#a" x="196.074" y="64.802"/><use xlink:href="#l" x="201.298" y="64.802"/></g><use xlink:href="#m" x="205.905" y="64.802" style="fill:#000;fill-opacity:1"/><path style="fill:none;stroke-width:.59776;stroke-linecap:butt;stroke-linejoin:miter;stroke:#000;stroke-opacity:1;stroke-dasharray:2.98885,1.19554;stroke-miterlimit:10" d="M-19.924 0s2.906 1.511 4.98 1.328c2.075-.184 7.891-2.473 9.961-2.656C-2.909-1.512.002 0 .002 0" transform="matrix(1 0 0 -1 191.096 62.59)"/></svg>