<svg xmlns="http://www.w3.org/2000/svg" xmlns:xlink="http://www.w3.org/1999/xlink" width="92.62" height="42.483" viewBox="0 0 69.465 31.862" version="1.2"><defs><symbol overflow="visible" id="a"><path style="stroke:none" d="M4.563-1.047c0-.172-.172-.172-.235-.172-.156 0-.172.047-.234.172-.203.469-.75.719-1.313.719-1.281 0-1.297-1.156-1.297-1.594h2.782c.187 0 .296 0 .296-.25 0-.203-.015-1-.593-1.484-.406-.328-.953-.406-1.39-.406-1.532 0-2.282.968-2.282 2.046 0 1.172.89 2.063 2.406 2.063 1.485 0 1.86-.938 1.86-1.094ZM3.688-2.25H1.483c.016-.406.063-1.453 1.094-1.453 1.047 0 1.094 1.094 1.11 1.453Zm0 0"/></symbol><symbol overflow="visible" id="b"><path style="stroke:none" d="M5.375 0v-.438H4.75L3.203-2.202l1.11-1.172c.093-.11.156-.172.875-.172v-.437c-.313.03-.547.03-.844.03-.157 0-.5 0-.907-.03v.437c.188 0 .235.047.297.11l-.828.906-.89-1.016h.328v-.437l-1.078.03c-.188 0-.532 0-.985-.03v.437h.625l1.422 1.625L1.125-.609c-.172.171-.484.171-.89.171V0c.296-.031.53-.031.828-.031.171 0 .515 0 .921.031v-.438c-.14 0-.296-.03-.296-.093 0-.047.078-.11.078-.11l.875-.937.984 1.14h-.313V0l1.079-.031c.203 0 .53 0 .984.031Zm0 0"/></symbol><symbol overflow="visible" id="c"><path style="stroke:none" d="M5.11-.219c0-.218-.157-.218-.235-.218-.578-.016-.578-.094-.578-.313v-1.922c0-.797-.64-1.39-2.031-1.39-.5 0-1.657.015-1.657.843 0 .406.313.594.579.594.312 0 .593-.219.593-.578 0-.266-.156-.422-.187-.453.093-.016.312-.047.64-.047.641 0 1.016.328 1.016 1.031v.281C1.766-2.39.25-2 .25-1 .25-.11 1.375.047 2.016.047c.687 0 1.156-.281 1.39-.703 0 .219 0 .656.969.656h.438c.171 0 .296 0 .296-.219ZM3.25-1.25c0 .938-1.047.938-1.078.938-.453 0-.828-.282-.828-.688 0-.297.156-1 1.906-1.078Zm0 0"/></symbol><symbol overflow="visible" id="d"><path style="stroke:none" d="M8.594 0v-.438h-.61v-2.296c0-1.063-.625-1.297-1.421-1.297-.938 0-1.391.562-1.563.843C4.812-4 4.016-4.03 3.625-4.03c-1.11 0-1.547.797-1.61.937H2v-.937L.453-3.97v.438c.531 0 .61 0 .61.36v2.733h-.61V0l1.125-.031L2.718 0v-.438H2.11V-2.28c0-1 .829-1.39 1.36-1.39.344 0 .531.171.531.858v2.376h-.61V0l1.126-.031L5.656 0v-.438h-.61V-2.28c0-1 .829-1.39 1.36-1.39.344 0 .532.171.532.858v2.376h-.61V0l1.14-.031Zm0 0"/></symbol><symbol overflow="visible" id="e"><path style="stroke:none" d="M5.531-1.984c0-1.188-.812-2.047-2.172-2.047-.718 0-1.218.297-1.39.422v-.422L.375-3.97v.438c.172 0 .313 0 .438.031.171.031.171.125.171.313v4.484H.375v.437L1.5 1.72l1.14.015v-.437h-.609v-1.64c.531.39 1.016.39 1.188.39 1.406 0 2.312-.844 2.312-2.031ZM4.344-2c0 1.25-.64 1.688-1.235 1.688-.453 0-.843-.25-1.078-.625v-2.157a1.548 1.548 0 0 1 1.188-.562c.625 0 1.125.562 1.125 1.656Zm0 0"/></symbol><symbol overflow="visible" id="f"><path style="stroke:none" d="M2.688 0v-.438h-.61v-5.78l-1.61.062v.437c.532 0 .61 0 .61.36v4.921h-.61V0l1.095-.031Zm0 0"/></symbol><symbol overflow="visible" id="g"><path style="stroke:none" d="M5.531-1.984c0-1.22-.875-2.047-2.187-2.047-.719 0-1.203.297-1.375.422v-2.61l-1.594.063v.437c.531 0 .61 0 .61.36V0h.453l.421-.516c.282.297.72.563 1.36.563 1.406 0 2.312-.844 2.312-2.031Zm-1.187-.032c0 .391 0 .844-.188 1.172-.297.5-.843.531-1.031.531-.547 0-.906-.328-1.094-.625v-2.171a1.553 1.553 0 0 1 1.203-.563c1.11 0 1.11 1.078 1.11 1.656Zm0 0"/></symbol><symbol overflow="visible" id="h"><path style="stroke:none" d="M4.406-1.047c0-.14-.125-.14-.234-.14-.172 0-.172.015-.25.171-.172.438-.578.688-1.11.688-1.265 0-1.265-1.297-1.265-1.703 0-.531 0-1.64 1.172-1.64.078 0 .562 0 .562.046l-.031.047a.602.602 0 0 0-.125.375c0 .36.281.578.594.578a.569.569 0 0 0 .578-.594c0-.844-1.25-.844-1.61-.844C.97-4.063.345-2.968.345-1.983c0 1.125.812 2.03 2.297 2.03.343 0 .78-.046 1.156-.28.515-.313.61-.782.61-.813Zm0 0"/></symbol><clipPath id="i"><path d="M0 20h11v11.793H0Zm0 0"/></clipPath><clipPath id="j"><path d="M2 17h15v14.793H2Zm0 0"/></clipPath><clipPath id="k"><path d="M8 19h16v12.793H8Zm0 0"/></clipPath></defs><g style="fill:#000;fill-opacity:1"><use xlink:href="#a" x="20.983" y="7.149"/><use xlink:href="#b" x="25.851" y="7.149"/><use xlink:href="#c" x="31.455" y="7.149"/><use xlink:href="#d" x="36.611" y="7.149"/><use xlink:href="#e" x="45.452" y="7.149"/><use xlink:href="#f" x="51.343" y="7.149"/><use xlink:href="#a" x="54.293" y="7.149"/></g><use xlink:href="#c" x="62.685" y="7.149" style="fill:#000;fill-opacity:1"/><path style="fill:none;stroke-width:.3985;stroke-linecap:butt;stroke-linejoin:miter;stroke:#000;stroke-opacity:1;stroke-miterlimit:10" d="m-14.68-2.735 2.82 2.817m-2.82 0 2.82-2.817M-8.044-.083l2.817 2.82m-2.817 0 2.817-2.82M-1.41-1.41l2.82 2.82m-2.82 0 2.82-2.82" transform="matrix(1 0 0 -1 16.005 4.937)"/><g style="fill:#000;fill-opacity:1"><use xlink:href="#a" x="20.983" y="18.107"/><use xlink:href="#b" x="25.851" y="18.107"/><use xlink:href="#c" x="31.455" y="18.107"/><use xlink:href="#d" x="36.611" y="18.107"/><use xlink:href="#e" x="45.452" y="18.107"/><use xlink:href="#f" x="51.343" y="18.107"/><use xlink:href="#a" x="54.293" y="18.107"/></g><use xlink:href="#g" x="62.685" y="18.107" style="fill:#000;fill-opacity:1"/><path style="fill:none;stroke-width:.3985;stroke-linecap:butt;stroke-linejoin:miter;stroke:#000;stroke-opacity:1;stroke-miterlimit:10" d="M-15.262-1.327h3.984M-13.27.666V-3.32M-8.63 1.326h3.989m-1.992 1.992V-.667M-1.993.001h3.985M-.001 1.994v-3.985" transform="matrix(1 0 0 -1 16.005 15.896)"/><g style="fill:#000;fill-opacity:1"><use xlink:href="#a" x="20.983" y="29.066"/><use xlink:href="#b" x="25.851" y="29.066"/><use xlink:href="#c" x="31.455" y="29.066"/><use xlink:href="#d" x="36.611" y="29.066"/><use xlink:href="#e" x="45.452" y="29.066"/><use xlink:href="#f" x="51.343" y="29.066"/><use xlink:href="#a" x="54.293" y="29.066"/></g><use xlink:href="#h" x="62.685" y="29.066" style="fill:#000;fill-opacity:1"/><g clip-path="url(#i)"><path style="fill:none;stroke-width:.3985;stroke-linecap:butt;stroke-linejoin:miter;stroke:#000;stroke-opacity:1;stroke-miterlimit:10" d="M-13.27.664V-1.33m1.726-.996-1.726.996m-1.727-.996 1.727.996" transform="matrix(1 0 0 -1 16.005 26.855)"/></g><g clip-path="url(#j)"><path style="fill:none;stroke-width:.3985;stroke-linecap:butt;stroke-linejoin:miter;stroke:#000;stroke-opacity:1;stroke-miterlimit:10" d="M-6.633 3.32V1.328m1.722-.996-1.722.996M-8.36.332l1.727.996" transform="matrix(1 0 0 -1 16.005 26.855)"/></g><g clip-path="url(#k)"><path style="fill:none;stroke-width:.3985;stroke-linecap:butt;stroke-linejoin:miter;stroke:#000;stroke-opacity:1;stroke-miterlimit:10" d="M0 1.992V0m1.726-.997L-.001 0m-1.726-.997L-.001 0" transform="matrix(1 0 0 -1 16.005 26.855)"/></g></svg>