<svg xmlns="http://www.w3.org/2000/svg" width="42.488" height="12.795" viewBox="0 0 31.866 9.596" version="1.2"><defs><clipPath id="a"><path d="M0 0h31.8v9.395H0Zm0 0"/></clipPath><clipPath id="b"><path d="M0 0h31.8v9.395H0Zm0 0"/></clipPath></defs><path style="fill:none;stroke-width:1.59404;stroke-linecap:butt;stroke-linejoin:miter;stroke:#000;stroke-opacity:1;stroke-miterlimit:10" d="M0 2.21h9.007" transform="matrix(1 0 0 -1 .942 6.804)"/><path style="stroke:none;fill-rule:nonzero;fill:#000;fill-opacity:1" d="M16.027 4.594C15.281 4.402 12 3.332 9.95 2.168v4.848C12 5.852 15.281 4.78 16.027 4.594Zm0 0"/><g clip-path="url(#a)"><path style="fill:none;stroke-width:1.59404;stroke-linecap:butt;stroke-linejoin:miter;stroke:#000;stroke-opacity:1;stroke-miterlimit:10" d="M6.08-.001C5.332.189 2.051 1.26 0 2.424v-4.847C2.053-1.26 5.334-.19 6.08-.001Zm0 0" transform="matrix(1 0 0 -1 9.948 4.592)"/></g><path style="stroke:none;fill-rule:nonzero;fill:#000;fill-opacity:1" d="M27.543 4.594c-.746-.192-4.027-1.262-6.078-2.426v4.848c2.05-1.164 5.332-2.235 6.078-2.422Zm0 0"/><g clip-path="url(#b)"><path style="fill:none;stroke-width:1.59404;stroke-linecap:butt;stroke-linejoin:miter;stroke:#000;stroke-opacity:1;stroke-miterlimit:10" d="M6.078-.001C5.332.189 2.05 1.26 0 2.424v-4.847C2.05-1.26 5.332-.19 6.078-.001Zm0 0" transform="matrix(1 0 0 -1 21.465 4.592)"/></g></svg>