<svg xmlns="http://www.w3.org/2000/svg" xmlns:xlink="http://www.w3.org/1999/xlink" width="128.499" height="81.003" viewBox="0 0 96.374 60.752" version="1.2"><defs><symbol overflow="visible" id="a"><path style="stroke:none" d="M5.281-3.188c0-.953-.015-3.343-2.422-3.343C.453-6.531.453-4.156.453-3.188c0 1 0 3.297 2.406 3.297 2.391 0 2.422-2.296 2.422-3.296ZM4-3.296c0 .563 0 1.469-.078 1.985-.14.921-.766 1.062-1.063 1.062-.359 0-.921-.219-1.046-.953-.094-.516-.094-1.547-.094-2.094 0-.719 0-1.375.078-1.89.125-.891.828-.985 1.062-.985.375 0 .782.188.97.625C4-5.172 4-4.109 4-3.297Zm0 0"/></symbol><symbol overflow="visible" id="b"><path style="stroke:none" d="M4.922 0v-.469h-1.39v-5.734c0-.234 0-.328-.266-.328-.11 0-.125 0-.22.078-.765.562-1.796.562-2 .562H.845v.47h.203c.156 0 .703-.016 1.297-.204v5.156H.954V0c.437-.031 1.5-.031 1.984-.031s1.546 0 1.984.031Zm0 0"/></symbol></defs><use xlink:href="#a" x=".272" y="7.383" style="fill:#000;fill-opacity:1"/><path style="fill-rule:nonzero;fill:#fff;fill-opacity:1;stroke-width:.3985;stroke-linecap:butt;stroke-linejoin:miter;stroke:#000;stroke-opacity:1;stroke-miterlimit:10" d="M-1.037 6.227A12.46 12.46 0 0 0 9.748.001 12.46 12.46 0 0 0-1.037-6.226h-6.227V6.227Zm0 0" transform="matrix(1 0 0 -1 36.627 17.239)"/><use xlink:href="#a" x=".272" y="33.511" style="fill:#000;fill-opacity:1"/><path style="fill-rule:nonzero;fill:#fff;fill-opacity:1;stroke-width:.3985;stroke-linecap:butt;stroke-linejoin:miter;stroke:#000;stroke-opacity:1;stroke-miterlimit:10" d="M-1.039 6.225c4.45 0 8.563-2.371 10.785-6.227A12.454 12.454 0 0 0-1.039-6.228h-6.226a12.455 12.455 0 0 1 0 12.453Zm0 0" transform="matrix(1 0 0 -1 76.57 30.303)"/><path style="fill-rule:nonzero;fill:#fff;fill-opacity:1;stroke-width:.3985;stroke-linecap:butt;stroke-linejoin:miter;stroke:#000;stroke-opacity:1;stroke-miterlimit:10" d="M-1.037 6.226A12.46 12.46 0 0 0 9.748 0 12.46 12.46 0 0 0-1.037-6.227h-6.227V6.226ZM12.435 0a1.244 1.244 0 1 1-2.488 0 1.244 1.244 0 1 1 2.488 0Zm0 0" transform="matrix(1 0 0 -1 36.627 43.367)"/><use xlink:href="#b" x=".272" y="59.639" style="fill:#000;fill-opacity:1"/><path style="fill:none;stroke-width:.3985;stroke-linecap:butt;stroke-linejoin:miter;stroke:#000;stroke-opacity:1;stroke-miterlimit:10" d="M-32.214 26.072h8.503V15.084h11.141M-32.214-.057h8.503v10.992h11.141M-32.214-.057h8.503v-10.988h11.141M-32.214-26.127h8.503v10.934h11.141M4.871 13.01h8.504V2.02h15.489M7.532-13.12h8.504v10.99h12.828M44.813-.057h8.504" transform="matrix(1 0 0 -1 41.734 30.248)"/></svg>