<svg xmlns="http://www.w3.org/2000/svg" xmlns:xlink="http://www.w3.org/1999/xlink" width="239.643" height="140.499" viewBox="0 0 179.732 105.374" version="1.2"><defs><symbol overflow="visible" id="g"><path style="stroke:none" d="M3.89-2.547c0-.844-.078-1.36-.343-1.875-.344-.703-1-.875-1.438-.875-1 0-1.375.75-1.484.969C.344-3.75.328-2.953.328-2.547c0 .531.016 1.328.406 1.969.36.594.954.75 1.375.75.391 0 1.063-.125 1.47-.906.296-.579.312-1.297.312-1.813ZM2.11-.062c-.266 0-.813-.126-.985-.954-.094-.453-.094-1.203-.094-1.625 0-.546 0-1.109.094-1.546.172-.813.781-.891.984-.891.266 0 .829.14.985.86.094.437.094 1.046.094 1.577 0 .47 0 1.188-.094 1.641-.172.828-.719.938-.985.938Zm0 0"/></symbol><symbol overflow="visible" id="i"><path style="stroke:none" d="M2.5-5.078c0-.219-.016-.219-.234-.219-.329.313-.75.5-1.5.5v.266c.218 0 .64 0 1.109-.203v4.078c0 .297-.031.39-.781.39H.812V0c.329-.031 1.016-.031 1.375-.031.36 0 1.047 0 1.376.031v-.266H3.28c-.75 0-.781-.093-.781-.39Zm0 0"/></symbol><symbol overflow="visible" id="j"><path style="stroke:none" d="M2.25-1.625c.125-.125.453-.39.594-.5.484-.453.953-.89.953-1.61 0-.953-.797-1.562-1.781-1.562-.97 0-1.594.719-1.594 1.438 0 .39.312.437.422.437.172 0 .422-.11.422-.422 0-.406-.407-.406-.5-.406.234-.594.765-.781 1.156-.781.734 0 1.125.625 1.125 1.297 0 .828-.578 1.437-1.531 2.39l-1 1.047C.422-.219.422-.203.422 0h3.14l.235-1.422h-.25c-.016.156-.078.547-.172.703-.047.063-.656.063-.781.063H1.172Zm0 0"/></symbol><symbol overflow="visible" id="k"><path style="stroke:none" d="M2.016-2.656c.625 0 1.03.453 1.03 1.297 0 1-.562 1.28-.983 1.28-.438 0-1.047-.155-1.329-.577.297 0 .5-.188.5-.438 0-.265-.187-.437-.453-.437-.203 0-.437.125-.437.453 0 .75.812 1.25 1.734 1.25 1.047 0 1.797-.734 1.797-1.531 0-.672-.531-1.266-1.344-1.454.625-.218 1.11-.75 1.11-1.39 0-.64-.72-1.094-1.547-1.094-.86 0-1.5.453-1.5 1.063 0 .296.187.421.406.421.25 0 .406-.171.406-.406 0-.297-.265-.406-.437-.406.344-.438.953-.469 1.094-.469.203 0 .812.063.812.89 0 .548-.234.891-.344 1.016-.234.25-.422.266-.906.297-.156 0-.219.016-.219.125 0 .11.078.11.219.11Zm0 0"/></symbol><symbol overflow="visible" id="l"><path style="stroke:none" d="M3.14-5.156c0-.157 0-.219-.171-.219-.094 0-.11 0-.188.11L.234-1.564v.25h2.25v.672c0 .297-.015.375-.64.375h-.172V0c.672-.031.687-.031 1.14-.031.454 0 .47 0 1.141.031v-.266h-.172c-.625 0-.64-.078-.64-.375v-.671h.843v-.25h-.843Zm-.593.64v2.954H.516Zm0 0"/></symbol><symbol overflow="visible" id="m"><path style="stroke:none" d="M1.11-4.484c.109.03.421.125.765.125 1 0 1.594-.704 1.594-.829 0-.093-.047-.109-.094-.109-.016 0-.031 0-.094.031a2.982 2.982 0 0 1-1.11.22c-.468 0-.858-.11-1.108-.22-.079-.03-.094-.03-.11-.03-.094 0-.094.077-.094.234v2.328c0 .14 0 .234.125.234.063 0 .079-.031.125-.094.094-.11.391-.515 1.079-.515.437 0 .656.359.734.515.125.281.14.656.14.953 0 .297 0 .735-.218 1.079-.156.25-.485.484-.906.484A1.271 1.271 0 0 1 .734-.922c.016.016.079.016.079.016.218 0 .406-.14.406-.39a.388.388 0 0 0-.39-.407c-.157 0-.407.078-.407.422 0 .718.625 1.453 1.531 1.453 1 0 1.844-.781 1.844-1.766 0-.922-.672-1.75-1.61-1.75-.39 0-.765.125-1.078.406Zm0 0"/></symbol><symbol overflow="visible" id="h"><path style="stroke:none" d="M3.266-1.5c0-.75-.61-1.36-1.36-1.36-.734 0-1.343.61-1.343 1.36 0 .766.609 1.36 1.343 1.36.75 0 1.36-.594 1.36-1.36ZM1.906-.453A1.024 1.024 0 0 1 .875-1.5c0-.578.453-1.047 1.031-1.047.578 0 1.047.469 1.047 1.047 0 .594-.469 1.047-1.047 1.047Zm0 0"/></symbol><symbol overflow="visible" id="n"><path style="stroke:none" d="M5.563-1.813c.14 0 .312 0 .312-.171 0-.188-.172-.188-.313-.188H1c-.125 0-.297 0-.297.188 0 .171.172.171.297.171Zm0 0"/></symbol><symbol overflow="visible" id="o"><path style="stroke:none" d="M1.625-.438a.463.463 0 0 0-.453-.453.447.447 0 0 0-.438.438.44.44 0 0 0 .438.453.45.45 0 0 0 .453-.438Zm0 0"/></symbol><clipPath id="a"><path d="M23 12h156.598v66H23Zm0 0"/></clipPath><clipPath id="b"><path d="M23 10h156.598v70H23Zm0 0"/></clipPath><clipPath id="c"><path d="M23 7h156.598v76H23Zm0 0"/></clipPath><clipPath id="d"><path d="M23 3h156.598v84H23Zm0 0"/></clipPath><clipPath id="e"><path d="M23 0h156.598v91H23Zm0 0"/></clipPath><clipPath id="f"><path d="M23 0h156.598v98H23Zm0 0"/></clipPath></defs><path style="fill:none;stroke-width:.3985;stroke-linecap:round;stroke-linejoin:miter;stroke:gray;stroke-opacity:1;stroke-miterlimit:10" d="M.002-6.975v1.992M28.346-6.975v1.992M56.693-6.975v1.992M85.04-6.975v1.992M113.388-6.975v1.992M141.736-6.975v1.992M-6.975 4.22h1.992M-6.975 17.388h1.992M-6.975 30.556h1.992M-6.975 43.72h1.992M-6.975 56.888h1.992M-6.975 70.056h1.992M-6.975 83.224h1.992" transform="matrix(1 0 0 -1 31.549 88.603)"/><path style="fill:none;stroke-width:.3985;stroke-linecap:butt;stroke-linejoin:miter;stroke:gray;stroke-opacity:1;stroke-miterlimit:10" d="M.002-4.983h141.73" transform="matrix(1 0 0 -1 31.549 88.603)"/><path style="fill:none;stroke-width:.3985;stroke-linecap:square;stroke-linejoin:miter;stroke:#bfbfbf;stroke-opacity:1;stroke-miterlimit:10" d="M.002.001h141.73M.002 87.591h141.73" transform="matrix(1 0 0 -1 31.549 88.603)"/><path style="fill:none;stroke-width:.3985;stroke-linecap:butt;stroke-linejoin:miter;stroke:gray;stroke-opacity:1;stroke-miterlimit:10" d="M-4.983.001v87.59" transform="matrix(1 0 0 -1 31.549 88.603)"/><path style="fill:none;stroke-width:.3985;stroke-linecap:square;stroke-linejoin:miter;stroke:#bfbfbf;stroke-opacity:1;stroke-miterlimit:10" d="M.002.001v87.59M141.732.001v87.59" transform="matrix(1 0 0 -1 31.549 88.603)"/><g clip-path="url(#a)"><path style="fill:none;stroke-width:.59776;stroke-linecap:butt;stroke-linejoin:miter;stroke:#2114cc;stroke-opacity:1;stroke-miterlimit:10" d="M.002 43.72s4.265 10.102 5.902 13.153c1.64 3.05 4.27 7.386 5.906 8.832 1.641 1.445 4.27 2.226 5.907 1.593 1.64-.636 4.265-3.656 5.906-6.164 1.637-2.504 4.265-8.343 5.906-11.894 1.637-3.551 4.266-10.274 5.906-13.703 1.637-3.43 4.266-8.832 5.903-11.012 1.64-2.18 4.27-4.488 5.906-4.7 1.64-.214 4.27 1.34 5.906 3.165 1.64 1.824 4.266 6.726 5.906 9.988 1.637 3.262 4.266 9.895 5.907 13.52 1.636 3.625 4.265 9.816 5.906 12.613 1.637 2.797 4.266 6.496 5.902 7.543 1.64 1.047 4.27 1.047 5.907 0 1.64-1.047 4.27-4.746 5.906-7.543 1.64-2.797 4.265-8.988 5.906-12.613 1.64-3.625 4.266-10.258 5.906-13.52 1.637-3.262 4.266-8.164 5.907-9.988 1.636-1.824 4.265-3.38 5.906-3.164 1.637.21 4.265 2.52 5.902 4.699 1.64 2.18 4.27 7.582 5.906 11.012 1.641 3.43 4.266 10.152 5.907 13.703 1.64 3.55 4.265 9.39 5.906 11.894 1.637 2.508 5.906 6.164 5.906 6.164" transform="matrix(1 0 0 -1 31.549 88.603)"/></g><g clip-path="url(#b)"><path style="fill:none;stroke-width:.59776;stroke-linecap:butt;stroke-linejoin:miter;stroke:#14cca5;stroke-opacity:1;stroke-miterlimit:10" d="M.002 43.72s4.265 10.418 5.902 13.66c1.64 3.239 4.27 7.946 5.906 9.696 1.641 1.75 4.27 3.172 5.907 2.922 1.64-.247 4.265-2.532 5.906-4.704 1.637-2.175 4.265-7.496 5.906-10.968 1.637-3.47 4.266-10.282 5.906-14.04 1.637-3.757 4.266-10.09 5.903-13.046 1.64-2.953 4.27-6.965 5.906-8.262 1.64-1.297 4.27-1.824 5.906-1.082 1.64.738 4.266 3.852 5.906 6.41 1.637 2.563 4.266 8.41 5.907 12.05 1.636 3.638 4.265 10.52 5.906 14.18 1.637 3.66 4.266 9.583 5.902 12.204 1.64 2.62 4.27 5.867 5.907 6.687 1.64.82 4.27.446 5.906-.77 1.64-1.218 4.265-5.105 5.906-8.011 1.64-2.902 4.266-9.172 5.906-12.918 1.637-3.746 4.266-10.578 5.907-14.078 1.636-3.504 4.265-8.922 5.906-11.164 1.637-2.238 4.265-4.664 5.902-4.996 1.64-.332 4.27.937 5.906 2.613 1.641 1.68 4.266 6.273 5.907 9.469 1.64 3.199 4.265 9.785 5.906 13.574 1.637 3.793 5.906 13.742 5.906 13.742" transform="matrix(1 0 0 -1 31.549 88.603)"/></g><g clip-path="url(#c)"><path style="fill:none;stroke-width:.59776;stroke-linecap:butt;stroke-linejoin:miter;stroke:#6ecc14;stroke-opacity:1;stroke-miterlimit:10" d="M.002 43.72s4.265 10.805 5.902 14.258c1.64 3.457 4.27 8.57 5.906 10.645 1.641 2.078 4.27 4.16 5.907 4.332 1.64.171 4.265-1.309 5.906-3.086 1.637-1.774 4.265-6.438 5.906-9.715 1.637-3.274 4.266-9.946 5.906-13.887 1.637-3.941 4.266-10.91 5.903-14.52 1.64-3.609 4.27-9.128 5.906-11.492 1.64-2.363 4.27-5.023 5.906-5.543 1.64-.515 4.266.356 5.906 1.817 1.637 1.46 4.266 5.648 5.907 8.715 1.636 3.07 4.265 9.5 5.906 13.398 1.637 3.895 4.266 10.945 5.902 14.684 1.64 3.738 4.27 9.625 5.907 12.254 1.64 2.632 4.27 5.847 5.906 6.707 1.64.855 4.265.597 5.906-.536 1.64-1.136 4.266-4.804 5.906-7.644 1.637-2.836 4.266-8.992 5.907-12.813 1.636-3.824 4.265-10.894 5.906-14.73 1.637-3.836 4.265-10.04 5.902-12.918 1.64-2.879 4.27-6.637 5.906-7.828 1.641-1.192 4.266-1.55 5.907-.75 1.64.797 4.265 3.93 5.906 6.515 1.637 2.59 5.906 12.133 5.906 12.133" transform="matrix(1 0 0 -1 31.549 88.603)"/></g><g clip-path="url(#d)"><path style="fill:none;stroke-width:.59776;stroke-linecap:butt;stroke-linejoin:miter;stroke:#cc3f14;stroke-opacity:1;stroke-miterlimit:10" d="M.002 43.72s4.265 11.285 5.902 14.988c1.64 3.7 4.27 9.266 5.906 11.7 1.641 2.433 4.27 5.215 5.907 5.847 1.64.633 4.265.02 5.906-1.289 1.637-1.308 4.265-5.175 5.906-8.136 1.637-2.965 4.266-9.247 5.906-13.211 1.637-3.965 4.266-11.274 5.903-15.375 1.64-4.102 4.27-10.84 5.906-14.176 1.64-3.336 4.27-8.027 5.906-9.867 1.64-1.836 4.266-3.45 5.906-3.391 1.637.063 4.266 1.879 5.907 3.828 1.636 1.945 4.265 6.797 5.906 10.203 1.637 3.407 4.266 10.23 5.902 14.348 1.64 4.121 4.27 11.41 5.907 15.34 1.64 3.926 4.27 10.094 5.906 12.972 1.64 2.875 4.265 6.563 5.906 7.754 1.64 1.192 4.266 1.59 5.906.836 1.637-.75 4.266-3.722 5.907-6.254 1.636-2.53 4.265-8.234 5.906-11.992 1.637-3.754 4.265-10.922 5.902-15.078 1.64-4.152 4.27-11.227 5.906-14.871 1.641-3.648 4.266-9.07 5.907-11.406 1.64-2.336 4.265-4.922 5.906-5.434 1.637-.515 5.906 1.73 5.906 1.73" transform="matrix(1 0 0 -1 31.549 88.603)"/></g><g clip-path="url(#e)"><path style="fill:none;stroke-width:.59776;stroke-linecap:butt;stroke-linejoin:miter;stroke:#c414cc;stroke-opacity:1;stroke-miterlimit:10" d="M.002 43.72S4.267 55.62 5.904 59.62c1.64 3.996 4.27 10.082 5.906 12.918 1.641 2.836 4.27 6.382 5.907 7.523 1.64 1.145 4.265 1.48 5.906.715 1.637-.77 4.265-3.703 5.906-6.235 1.637-2.53 4.266-8.187 5.906-12.007 1.637-3.82 4.266-11.14 5.903-15.535 1.64-4.395 4.27-11.997 5.906-16.145 1.64-4.145 4.27-10.613 5.906-13.734C54.79 14 57.416 9.88 59.056 8.373c1.637-1.508 4.266-2.512 5.907-2.125 1.636.382 4.265 2.69 5.906 4.898 1.637 2.203 4.266 7.383 5.902 10.996 1.64 3.613 4.27 10.703 5.907 15.047 1.64 4.348 4.27 12.004 5.906 16.266 1.64 4.261 4.265 11.066 5.906 14.445 1.64 3.379 4.266 8.055 5.906 9.918 1.637 1.867 4.266 3.523 5.907 3.523 1.636 0 4.265-1.66 5.906-3.523 1.637-1.863 4.265-6.531 5.902-9.914 1.64-3.38 4.27-10.184 5.906-14.446 1.641-4.261 4.266-11.921 5.907-16.27 1.64-4.343 4.265-11.425 5.906-15.038 1.637-3.617 5.906-11.004 5.906-11.004" transform="matrix(1 0 0 -1 31.549 88.603)"/></g><g clip-path="url(#f)"><path style="fill:none;stroke-width:.59776;stroke-linecap:butt;stroke-linejoin:miter;stroke:#1450cc;stroke-opacity:1;stroke-miterlimit:10" d="M.002 43.72s4.265 12.727 5.902 17.094c1.64 4.367 4.27 11.086 5.906 14.39 1.641 3.301 4.27 7.704 5.907 9.422 1.64 1.72 4.265 3.102 5.906 2.965 1.637-.136 4.265-1.984 5.906-3.957 1.637-1.972 4.266-6.761 5.906-10.258 1.637-3.496 4.266-10.476 5.903-14.945 1.64-4.465 4.27-12.523 5.906-17.258 1.64-4.73 4.27-12.605 5.906-16.86 1.64-4.253 4.266-10.698 5.906-13.8 1.637-3.101 4.266-7.094 5.907-8.55C66.599.5 69.228-.414 70.869 0c1.637.41 4.266 2.72 5.902 4.938 1.64 2.223 4.27 7.387 5.907 11.062 1.64 3.676 4.27 10.887 5.906 15.442 1.64 4.55 4.265 12.66 5.906 17.37 1.64 4.708 4.266 12.446 5.906 16.571 1.637 4.125 4.266 10.27 5.907 13.156 1.636 2.891 4.265 6.465 5.906 7.657 1.637 1.195 4.265 1.636 5.902.949 1.64-.688 4.27-3.445 5.906-5.902 1.641-2.461 4.266-7.985 5.907-11.829 1.64-3.843 4.265-11.261 5.906-15.882 1.637-4.621 5.906-17.43 5.906-17.43" transform="matrix(1 0 0 -1 31.549 88.603)"/></g><use xlink:href="#g" x="27.274" y="103.896" style="fill:#000;fill-opacity:1"/><use xlink:href="#h" x="31.508" y="101.083" style="fill:#000;fill-opacity:1"/><g style="fill:#000;fill-opacity:1"><use xlink:href="#i" x="53.503" y="103.896"/><use xlink:href="#g" x="57.738" y="103.896"/></g><use xlink:href="#h" x="61.972" y="101.083" style="fill:#000;fill-opacity:1"/><g style="fill:#000;fill-opacity:1"><use xlink:href="#j" x="81.85" y="103.896"/><use xlink:href="#g" x="86.085" y="103.896"/></g><use xlink:href="#h" x="90.319" y="101.083" style="fill:#000;fill-opacity:1"/><g style="fill:#000;fill-opacity:1"><use xlink:href="#k" x="110.197" y="103.896"/><use xlink:href="#g" x="114.432" y="103.896"/></g><use xlink:href="#h" x="118.665" y="101.083" style="fill:#000;fill-opacity:1"/><g style="fill:#000;fill-opacity:1"><use xlink:href="#l" x="138.544" y="103.896"/><use xlink:href="#g" x="142.779" y="103.896"/></g><use xlink:href="#h" x="147.012" y="101.083" style="fill:#000;fill-opacity:1"/><g style="fill:#000;fill-opacity:1"><use xlink:href="#m" x="166.89" y="103.896"/><use xlink:href="#g" x="171.125" y="103.896"/></g><use xlink:href="#h" x="175.359" y="101.083" style="fill:#000;fill-opacity:1"/><use xlink:href="#n" x=".278" y="86.537" style="fill:#000;fill-opacity:1"/><use xlink:href="#g" x="6.865" y="86.537" style="fill:#000;fill-opacity:1"/><use xlink:href="#o" x="11.099" y="86.537" style="fill:#000;fill-opacity:1"/><g style="fill:#000;fill-opacity:1"><use xlink:href="#i" x="13.451" y="86.537"/><use xlink:href="#m" x="17.686" y="86.537"/></g><use xlink:href="#n" x=".278" y="73.369" style="fill:#000;fill-opacity:1"/><use xlink:href="#g" x="6.865" y="73.369" style="fill:#000;fill-opacity:1"/><use xlink:href="#o" x="11.099" y="73.369" style="fill:#000;fill-opacity:1"/><g style="fill:#000;fill-opacity:1"><use xlink:href="#i" x="13.451" y="73.369"/><use xlink:href="#g" x="17.686" y="73.369"/></g><use xlink:href="#n" x=".278" y="60.202" style="fill:#000;fill-opacity:1"/><use xlink:href="#g" x="6.865" y="60.202" style="fill:#000;fill-opacity:1"/><use xlink:href="#o" x="11.099" y="60.202" style="fill:#000;fill-opacity:1"/><g style="fill:#000;fill-opacity:1"><use xlink:href="#g" x="13.451" y="60.202"/><use xlink:href="#m" x="17.686" y="60.202"/></g><use xlink:href="#g" x="6.865" y="47.449" style="fill:#000;fill-opacity:1"/><use xlink:href="#o" x="11.099" y="47.449" style="fill:#000;fill-opacity:1"/><g style="fill:#000;fill-opacity:1"><use xlink:href="#g" x="13.451" y="47.449"/><use xlink:href="#g" x="17.686" y="47.449"/></g><use xlink:href="#g" x="6.865" y="34.282" style="fill:#000;fill-opacity:1"/><use xlink:href="#o" x="11.099" y="34.282" style="fill:#000;fill-opacity:1"/><g style="fill:#000;fill-opacity:1"><use xlink:href="#g" x="13.451" y="34.282"/><use xlink:href="#m" x="17.686" y="34.282"/></g><use xlink:href="#g" x="6.865" y="21.114" style="fill:#000;fill-opacity:1"/><use xlink:href="#o" x="11.099" y="21.114" style="fill:#000;fill-opacity:1"/><g style="fill:#000;fill-opacity:1"><use xlink:href="#i" x="13.451" y="21.114"/><use xlink:href="#g" x="17.686" y="21.114"/></g><use xlink:href="#g" x="6.865" y="7.947" style="fill:#000;fill-opacity:1"/><use xlink:href="#o" x="11.099" y="7.947" style="fill:#000;fill-opacity:1"/><g style="fill:#000;fill-opacity:1"><use xlink:href="#i" x="13.451" y="7.947"/><use xlink:href="#m" x="17.686" y="7.947"/></g></svg>