<svg xmlns="http://www.w3.org/2000/svg" xmlns:xlink="http://www.w3.org/1999/xlink" width="120.879" height="188.619" viewBox="0 0 90.659 141.464" version="1.2"><defs><symbol overflow="visible" id="b"><path style="stroke:none" d="M5.563-1.813c.14 0 .312 0 .312-.171 0-.188-.172-.188-.313-.188H1c-.125 0-.297 0-.297.188 0 .171.172.171.297.171Zm0 0"/></symbol><symbol overflow="visible" id="c"><path style="stroke:none" d="M2.5-5.078c0-.219-.016-.219-.234-.219-.329.313-.75.5-1.5.5v.266c.218 0 .64 0 1.109-.203v4.078c0 .297-.031.39-.781.39H.812V0c.329-.031 1.016-.031 1.375-.031.36 0 1.047 0 1.376.031v-.266H3.28c-.75 0-.781-.093-.781-.39Zm0 0"/></symbol><symbol overflow="visible" id="d"><path style="stroke:none" d="M2.25-1.625c.125-.125.453-.39.594-.5.484-.453.953-.89.953-1.61 0-.953-.797-1.562-1.781-1.562-.97 0-1.594.719-1.594 1.438 0 .39.312.437.422.437.172 0 .422-.11.422-.422 0-.406-.407-.406-.5-.406.234-.594.765-.781 1.156-.781.734 0 1.125.625 1.125 1.297 0 .828-.578 1.437-1.531 2.39l-1 1.047C.422-.219.422-.203.422 0h3.14l.235-1.422h-.25c-.016.156-.078.547-.172.703-.047.063-.656.063-.781.063H1.172Zm0 0"/></symbol><symbol overflow="visible" id="e"><path style="stroke:none" d="M3.89-2.547c0-.844-.078-1.36-.343-1.875-.344-.703-1-.875-1.438-.875-1 0-1.375.75-1.484.969C.344-3.75.328-2.953.328-2.547c0 .531.016 1.328.406 1.969.36.594.954.75 1.375.75.391 0 1.063-.125 1.47-.906.296-.579.312-1.297.312-1.813ZM2.11-.062c-.266 0-.813-.126-.985-.954-.094-.453-.094-1.203-.094-1.625 0-.546 0-1.109.094-1.546.172-.813.781-.891.984-.891.266 0 .829.14.985.86.094.437.094 1.046.094 1.577 0 .47 0 1.188-.094 1.641-.172.828-.719.938-.985.938Zm0 0"/></symbol><clipPath id="a"><path d="M0 0h90.488v141.195H0Zm0 0"/></clipPath></defs><path style="fill:none;stroke-width:.3985;stroke-linecap:round;stroke-linejoin:miter;stroke:#000;stroke-opacity:1;stroke-miterlimit:10" d="M-28.345-1.992v3.985M28.346-1.992v3.985M-1.994-56.695h3.985M-1.994-28.347h3.985M-1.994 28.348h3.985M-1.994 56.692h3.985" transform="matrix(1 0 0 -1 45.161 70.442)"/><path style="fill:none;stroke-width:.3985;stroke-linecap:butt;stroke-linejoin:miter;stroke:#000;stroke-opacity:1;stroke-miterlimit:10" d="M-44.322 0h88.239" transform="matrix(1 0 0 -1 45.161 70.442)"/><path style="fill:none;stroke-width:.3985;stroke-linecap:round;stroke-linejoin:round;stroke:#000;stroke-opacity:1;stroke-miterlimit:10" d="M-2.07 2.391C-1.695.958-.852.278 0 .001-.852-.281-1.695-.956-2.07-2.39" transform="matrix(1 0 0 -1 89.277 70.442)"/><path style="fill:none;stroke-width:.3985;stroke-linecap:butt;stroke-linejoin:miter;stroke:#000;stroke-opacity:1;stroke-miterlimit:10" d="M-.001-69.75V69.314" transform="matrix(1 0 0 -1 45.161 70.442)"/><path style="fill:none;stroke-width:.3985;stroke-linecap:round;stroke-linejoin:round;stroke:#000;stroke-opacity:1;stroke-miterlimit:10" d="M-2.073 2.392C-1.693.954-.85.279.002.002-.85-.28-1.694-.957-2.073-2.39" transform="matrix(0 -1 -1 0 45.161 .931)"/><g clip-path="url(#a)"><path style="fill:none;stroke-width:.59776;stroke-linecap:butt;stroke-linejoin:miter;stroke:#000;stroke-opacity:1;stroke-miterlimit:10" d="M-36.849-62.277s2.219 10.664 3.07 14.305a322.27 322.27 0 0 0 3.07 11.93c.852 3.011 2.22 7.328 3.07 9.765.852 2.442 2.22 5.89 3.071 7.82.852 1.93 2.219 4.614 3.07 6.094.852 1.477 2.22 3.485 3.07 4.575.852 1.093 2.22 2.523 3.071 3.28.852.763 2.219 1.712 3.07 2.2.852.492 2.22 1.055 3.07 1.336.852.277 2.22.555 3.071.684.852.128 2.219.21 3.07.253.852.04 2.22.024 3.07.036.852.007 2.22-.004 3.071.035.856.039 2.219.12 3.07.25.856.133 2.22.406 3.075.683.851.282 2.214.844 3.07 1.332.851.493 2.219 1.438 3.07 2.2.852.757 2.219 2.187 3.07 3.277.852 1.09 2.22 3.094 3.07 4.574.852 1.477 2.22 4.156 3.071 6.086.852 1.93 2.219 5.375 3.07 7.817.852 2.437 2.22 6.75 3.07 9.761a321.676 321.676 0 0 1 3.071 11.922c.852 3.637 3.07 14.3 3.07 14.3" transform="matrix(1 0 0 -1 45.161 70.442)"/></g><use xlink:href="#b" x="11.405" y="80.227" style="fill:#000;fill-opacity:1"/><use xlink:href="#c" x="17.991" y="80.227" style="fill:#000;fill-opacity:1"/><use xlink:href="#c" x="71.391" y="80.227" style="fill:#000;fill-opacity:1"/><use xlink:href="#b" x="29.692" y="129.288" style="fill:#000;fill-opacity:1"/><use xlink:href="#d" x="36.279" y="129.288" style="fill:#000;fill-opacity:1"/><use xlink:href="#b" x="29.692" y="100.942" style="fill:#000;fill-opacity:1"/><use xlink:href="#c" x="36.279" y="100.942" style="fill:#000;fill-opacity:1"/><use xlink:href="#e" x="38.272" y="78.235" style="fill:#000;fill-opacity:1"/><use xlink:href="#c" x="36.279" y="44.664" style="fill:#000;fill-opacity:1"/><use xlink:href="#d" x="36.279" y="16.318" style="fill:#000;fill-opacity:1"/></svg>