<svg xmlns="http://www.w3.org/2000/svg" width="116.077" height="149.619" viewBox="0 0 87.058 112.214" version="1.2"><defs><clipPath id="a"><path d="M0 0h86.586v32H0Zm0 0"/></clipPath><clipPath id="b"><path d="M0 23h86.586v37H0Zm0 0"/></clipPath><clipPath id="c"><path d="M0 52h86.586v36H0Zm0 0"/></clipPath><clipPath id="d"><path d="M0 80h86.586v31.82H0Zm0 0"/></clipPath></defs><g clip-path="url(#a)"><path style="fill:none;stroke-width:.3985;stroke-linecap:butt;stroke-linejoin:miter;stroke:#000;stroke-opacity:1;stroke-miterlimit:10" d="M.001 0h28.344L42.52 24.552 56.689.001H85.04" transform="matrix(1 0 0 -1 .538 25.571)"/></g><g clip-path="url(#b)"><path style="fill:none;stroke-width:.3985;stroke-linecap:butt;stroke-linejoin:miter;stroke:#000;stroke-opacity:1;stroke-miterlimit:10" d="M.001-28.347h9.445l4.727 8.184 4.723-8.184h9.449l4.722 8.18-4.722 8.18 9.445-.005 4.723 8.18 4.726-8.164h9.446l-4.727-8.176 4.723-8.183 9.457-.012 4.726 8.184 4.723-8.184h9.453" transform="matrix(1 0 0 -1 .538 25.571)"/></g><g clip-path="url(#c)"><path style="fill:none;stroke-width:.3985;stroke-linecap:butt;stroke-linejoin:miter;stroke:#000;stroke-opacity:1;stroke-miterlimit:10" d="M.001-56.695H3.15l1.575 2.727 1.574-2.727h3.148l1.575 2.727-1.575 2.73 3.149-.004 1.578 2.731 1.574-2.727h3.149l-1.579-2.726 1.575-2.727 3.152-.004 1.574 2.73 1.574-2.73h3.153l1.574 2.727-1.574 2.727h3.148l1.574 2.726-1.574 2.727h-3.148l1.574 2.726-1.574 2.727h3.148l1.574 2.726 1.575-2.726 3.148-.004 1.574 2.726-1.574 2.727h3.149l1.574 2.727 1.574-2.72 3.145.005-1.567-2.727 1.574-2.723h3.149l1.574 2.727 1.574-2.727h3.149L55.11-43.05l1.57-2.727-3.148.004-1.574-2.726 1.574-2.727h3.149l-1.574-2.726 1.574-2.727 3.152-.004 1.578 2.727 1.574-2.735 3.153-.004 1.574 2.73-1.574 2.727h3.148l1.578 2.73 1.575-2.73h3.148l-1.574-2.726 1.574-2.73h3.152l1.575 2.73 1.574-2.73h3.152" transform="matrix(1 0 0 -1 .538 25.571)"/></g><g clip-path="url(#d)"><path style="fill:none;stroke-width:.3985;stroke-linecap:butt;stroke-linejoin:miter;stroke:#000;stroke-opacity:1;stroke-miterlimit:10" d="M.001-85.042h1.047l.527.91.524-.91h1.05l.524.91-.523.91H4.2l.524.91.523-.91h1.05l-.522-.91.523-.91h1.05l.524.91.524-.91h1.05l.524.91-.524.91h1.051l.524.91-.524.906h-1.05l.527.91-.528.91h1.051l.524.91.527-.91h1.047l.527.907-.527.91h1.05l.528.91.523-.91h1.051l-.527-.906.527-.91h1.047l.527.91.524-.91h1.05l-.527-.91.528-.907h-1.051l-.528-.91.528-.91h1.05l-.527-.906.524-.91h1.05l.528.91.523-.91h1.051l.523.906-.523.91h1.05l.524.91.524-.91h1.05l-.523-.91.523-.91h1.051l.524.91.527-.91h1.05l.524.91-.523.91h1.047l.527.906-.527.91h-1.047l.523.91-.523.907h1.047l.527.91.523-.91h1.051l.524.91-.524.906h1.047l.527.91-.527.91h-1.047l.524.907-.524.91h-1.05l-.524-.91-.523.91h-1.051l.523.91-.523.906h1.05l.524.91-.523.91h-1.051l.527.907-.527.91h1.05l.524.91.523-.91h1.051l.524.91-.524.906h1.051l.523.91.524-.91h1.05l-.527-.906.528-.91h1.047l.527.91.523-.91h1.051l.524.906-.524.91h1.047l.527.907-.527.91H37.79l.524.91-.524.91h1.047l.527.906.524-.906h1.05l.524.906-.523.91h1.046l.528.91.523-.91 1.051.005-.523-.91.523-.907h1.05l.524.91.524-.906h1.047l-.524-.906.527-.91H46.19l-.524-.907.524-.91 1.046.004-.523-.91.527-.906h1.051l.524.906.523-.906h1.05l.524.906-.523.91h1.05l.524.906.523-.906 1.051-.004-.527-.906.527-.91h1.047l.527.91.524-.91h1.05l-.527-.906.524-.91h-1.047l-.524-.91.524-.907h1.047l-.524-.91.524-.906h-1.047l-.527-.91-.524.91h-1.047l-.527-.907.523-.91h-1.047l-.527-.91.527-.906h1.047l-.523-.91.523-.91h1.051l.524.91.523-.91h1.05l-.527-.907.528-.91H55.63l-.523-.91.523-.906h1.05l-.527-.91.528-.91h1.05l.528.91.523-.915h1.051l.527.91-.527.91 1.05-.003.528.91.524-.91h1.05l-.527-.91.527-.91 1.051-.004.528.91.523-.91h1.05l.524.906-.523.91h1.05l.524.91-.523.91h-1.051l.523.91-.523.907h1.05l.524.91.527-.91h1.051l.524.91-.524.91h1.047l.527.91.524-.91h1.05l-.523-.91.524-.91h1.05l.524.91.527-.91h1.047l-.523-.907.523-.91h-1.05l-.524-.91.523-.91h1.051l-.523-.91.523-.906h1.05l.524.906.528-.906h1.05l.524.906-.524.91h1.051l.524.91.523-.91h1.05l-.523-.91.524-.91h1.05l.528.91.523-.91h1.051" transform="matrix(1 0 0 -1 .538 25.571)"/></g></svg>