<svg xmlns="http://www.w3.org/2000/svg" width="29.268" height="6.675" viewBox="0 0 21.951 5.006" version="1.2"><defs><clipPath id="a"><path d="M7 0h14.926v4.508H7Zm0 0"/></clipPath></defs><path style="fill:none;stroke-width:.79701;stroke-linecap:butt;stroke-linejoin:miter;stroke:#000;stroke-opacity:1;stroke-miterlimit:10" d="M0 2.212h17.336" transform="matrix(1 0 0 -1 .985 4.224)"/><path style="stroke:none;fill-rule:nonzero;fill:#000;fill-opacity:1" d="M20.512 2.012a1.095 1.095 0 1 0-2.19.003 1.095 1.095 0 0 0 2.19-.003Zm0 0"/><g clip-path="url(#a)"><path style="fill:none;stroke-width:.79701;stroke-linecap:butt;stroke-linejoin:miter;stroke:#000;stroke-opacity:1;stroke-miterlimit:10" d="M2.59 0A1.095 1.095 0 1 1 .4-.002a1.095 1.095 0 0 1 2.19.004Zm0 0" transform="matrix(1 0 0 -1 17.921 2.012)"/></g></svg>