<svg xmlns="http://www.w3.org/2000/svg" width="116.391" height="81.147" viewBox="0 0 87.293 60.86" version="1.2"><defs><clipPath id="a"><path d="M23 0h63.941v60.79H23Zm0 0"/></clipPath></defs><path style="fill:none;stroke-width:.19925;stroke-linecap:butt;stroke-linejoin:miter;stroke:gray;stroke-opacity:1;stroke-miterlimit:10" d="M-.002 0h85.043M-.002 28.348h85.043M-.002 56.684h85.043M-.002 0v56.696M28.346 0v56.696M56.694 0v56.696M85.03 0v56.696" transform="matrix(1 0 0 -1 .755 59.633)"/><g clip-path="url(#a)"><path style="fill:none;stroke-width:.3985;stroke-linecap:butt;stroke-linejoin:miter;stroke:#000;stroke-opacity:1;stroke-miterlimit:10" d="m28.346 0 56.695 56.696" transform="matrix(1 0 0 -1 .755 59.633)"/></g><path style="stroke:none;fill-rule:nonzero;fill:red;fill-opacity:1" d="M31.094 2.938a1.993 1.993 0 1 0-1.992 1.996 1.994 1.994 0 0 0 1.992-1.997Zm0 0"/></svg>