<svg xmlns="http://www.w3.org/2000/svg" width="29.964" height="56.883" viewBox="0 0 22.473 42.662" version="1.2"><defs><clipPath id="a"><path d="M0 15h22.21v27.492H0Zm0 0"/></clipPath><clipPath id="b"><path d="M0 0h22.21v27H0Zm0 0"/></clipPath></defs><g clip-path="url(#a)"><path style="fill:none;stroke-width:.3985;stroke-linecap:butt;stroke-linejoin:miter;stroke:#000;stroke-opacity:1;stroke-miterlimit:10" d="m.001-.001 19.754-19.754" transform="matrix(1 0 0 -1 .881 21.163)"/></g><path style="fill:none;stroke-width:.3985;stroke-linecap:round;stroke-linejoin:round;stroke:#000;stroke-opacity:1;stroke-miterlimit:10" d="M-2.074 2.392C-1.693.956-.85.28-.002 0c-.848-.279-1.69-.956-2.072-2.392" transform="scale(1 -1) rotate(-45 -39.175 -45.613)"/><g clip-path="url(#b)"><path style="fill:none;stroke-width:.3985;stroke-linecap:butt;stroke-linejoin:miter;stroke:#000;stroke-opacity:1;stroke-miterlimit:10" d="m.001-.001 19.754 19.758" transform="matrix(1 0 0 -1 .881 21.163)"/></g><path style="fill:none;stroke-width:.3985;stroke-linecap:round;stroke-linejoin:round;stroke:#000;stroke-opacity:1;stroke-miterlimit:10" d="M-2.073 2.393C-1.69.957-.849.28 0 .001-.849-.278-1.694-.957-2.073-2.39" transform="scale(1 -1) rotate(45 11.917 24.45)"/></svg>