<svg xmlns="http://www.w3.org/2000/svg" width="81.273" height="80.763" viewBox="0 0 60.955 60.572" version="1.2"><defs><clipPath id="a"><path d="M2 50h15v10.36H2Zm0 0"/></clipPath><clipPath id="b"><path d="M9 49h15v11.36H9Zm0 0"/></clipPath><clipPath id="c"><path d="M16 48h15v12.36H16Zm0 0"/></clipPath><clipPath id="d"><path d="M23 47h15v13.36H23Zm0 0"/></clipPath><clipPath id="e"><path d="M51 42h9.934v15H51Zm0 0"/></clipPath></defs><g clip-path="url(#a)"><path style="fill:none;stroke-width:.3985;stroke-linecap:butt;stroke-linejoin:miter;stroke:#000;stroke-opacity:1;stroke-miterlimit:10" d="m5.57-.179 2.816 2.82m-2.816 0 2.816-2.82" transform="matrix(1 0 0 -1 2.535 59.032)"/></g><g clip-path="url(#b)"><path style="fill:none;stroke-width:.3985;stroke-linecap:butt;stroke-linejoin:miter;stroke:#000;stroke-opacity:1;stroke-miterlimit:10" d="m12.55 1.052 2.817 2.82m-2.817 0 2.817-2.82" transform="matrix(1 0 0 -1 2.535 59.032)"/></g><g clip-path="url(#c)"><path style="fill:none;stroke-width:.3985;stroke-linecap:butt;stroke-linejoin:miter;stroke:#000;stroke-opacity:1;stroke-miterlimit:10" d="m19.527 2.282 2.82 2.82m-2.82 0 2.82-2.82" transform="matrix(1 0 0 -1 2.535 59.032)"/></g><g clip-path="url(#d)"><path style="fill:none;stroke-width:.3985;stroke-linecap:butt;stroke-linejoin:miter;stroke:#000;stroke-opacity:1;stroke-miterlimit:10" d="m26.507 3.512 2.817 2.82m-2.817 0 2.817-2.82" transform="matrix(1 0 0 -1 2.535 59.032)"/></g><path style="fill:none;stroke-width:.3985;stroke-linecap:butt;stroke-linejoin:miter;stroke:#000;stroke-opacity:1;stroke-miterlimit:10" d="m33.488 4.743 2.816 2.82m-2.816 0 2.816-2.82M40.465 5.973l2.82 2.82m-2.82 0 2.82-2.82M47.445 7.204l2.816 2.82m-2.816 0 2.816-2.82" transform="matrix(1 0 0 -1 2.535 59.032)"/><g clip-path="url(#e)"><path style="fill:none;stroke-width:.3985;stroke-linecap:butt;stroke-linejoin:miter;stroke:#000;stroke-opacity:1;stroke-miterlimit:10" d="m54.425 8.434 2.817 2.82m-2.817 0 2.817-2.82" transform="matrix(1 0 0 -1 2.535 59.032)"/></g><path style="fill:none;stroke-width:.3985;stroke-linecap:butt;stroke-linejoin:miter;stroke:#000;stroke-opacity:1;stroke-miterlimit:10" d="m-1.41 5.677 2.82 2.82m-2.82 0 2.82-2.82M-1.41 12.762l2.82 2.82m-2.82 0 2.82-2.82M-1.41 19.852l2.82 2.817m-2.82 0 2.82-2.817M-1.41 26.938l2.82 2.817m-2.82 0 2.82-2.817M-1.41 34.024l2.82 2.817m-2.82 0 2.82-2.817M-1.41 41.11l2.82 2.82m-2.82 0 2.82-2.82M-1.41 48.196l2.82 2.82m-2.82 0 2.82-2.82M-1.41 55.286l2.82 2.816m-2.82 0 2.82-2.816" transform="matrix(1 0 0 -1 2.535 59.032)"/></svg>