<svg xmlns="http://www.w3.org/2000/svg" xmlns:xlink="http://www.w3.org/1999/xlink" width="191.931" height="144.219" viewBox="0 0 143.948 108.164" version="1.2"><defs><symbol overflow="visible" id="b"><path style="stroke:none" d="M2.375-3.594h.766c.156 0 .265 0 .265-.156 0-.11-.094-.11-.234-.11h-.719l.328-1.328c.031-.125.031-.14.031-.171 0-.157-.109-.25-.25-.25-.25 0-.343.187-.39.343l-.344 1.407h-.766c-.14 0-.25 0-.25.156 0 .11.094.11.235.11h.719l-.641 2.577s-.047.157-.047.297c0 .406.281.813.813.813.906 0 1.39-1.297 1.39-1.39 0-.095-.11-.095-.14-.095-.125 0-.125.032-.188.157-.25.625-.625 1.109-1.047 1.109-.11 0-.25-.016-.25-.375 0-.078.016-.266.063-.453Zm0 0"/></symbol><symbol overflow="visible" id="c"><path style="stroke:none" d="M2.953-5.594c0-.14-.11-.297-.297-.297-.219 0-.437.204-.437.422 0 .25.219.297.312.297a.442.442 0 0 0 .422-.422Zm.11 4.313c0-.11-.126-.11-.157-.11-.125 0-.14.032-.187.22-.094.312-.344 1.046-.828 1.046-.063 0-.188-.016-.188-.25 0-.156.063-.36.156-.64.125-.329.125-.344.282-.72l.296-.843c.079-.219.188-.485.188-.656 0-.438-.313-.735-.719-.735-.843 0-1.187 1.313-1.187 1.39 0 .11.11.11.156.11.125 0 .14-.047.172-.156.062-.234.312-1.11.844-1.11.078 0 .187.016.187.25 0 .204-.062.391-.219.813l-.312.828c-.063.172-.203.547-.234.625-.063.188-.141.407-.141.578 0 .485.328.735.703.735.844 0 1.188-1.313 1.188-1.375Zm0 0"/></symbol><symbol overflow="visible" id="d"><path style="stroke:none" d="M3.547-.344c-.047.125-.047.14-.047.188 0 .172.125.25.266.25.28 0 .328-.172.453-.672.047-.172.172-.64.187-.766.078-.297.235-.922.297-1.172.031-.109.281-.578.5-.796.14-.126.422-.422.906-.422.344 0 .422.296.422.578 0 .515-.375 1.578-.531 1.984-.11.297-.125.344-.125.531 0 .485.344.735.703.735.86 0 1.188-1.313 1.188-1.375 0-.11-.11-.11-.157-.11-.125 0-.125.032-.187.22-.078.312-.344 1.046-.828 1.046-.063 0-.188-.016-.188-.25 0-.219.11-.5.188-.703.156-.422.531-1.422.531-1.938 0-.593-.36-.953-.984-.953-.625 0-1.063.344-1.375.781-.079-.53-.454-.78-.985-.78-.484 0-.937.218-1.312.687-.078-.453-.422-.688-.797-.688-.297 0-.516.188-.672.531a5.53 5.53 0 0 0-.281.844c0 .125.11.125.156.125.14 0 .14-.047.188-.219.171-.718.343-1.046.593-1.046.14 0 .235.078.235.359 0 .188-.047.422-.063.453l-.64 2.578c-.047.125-.047.14-.047.188 0 .172.14.25.265.25.282 0 .328-.172.453-.672.047-.172.172-.64.188-.766.078-.297.234-.922.297-1.172.015-.062.234-.546.594-.89.25-.219.546-.328.828-.328.265 0 .421.171.421.593 0 .157-.046.422-.078.547Zm0 0"/></symbol><symbol overflow="visible" id="e"><path style="stroke:none" d="M2.078-2.047c.672 0 1.14-.078 1.469-.203.625-.25.703-.75.703-.938 0-.406-.344-.78-.953-.78-.906 0-2.25.843-2.25 2.468 0 1 .562 1.594 1.328 1.594.813 0 1.61-.438 1.953-1-.047-.11-.125-.172-.172-.172-.047 0-.062.016-.125.094-.515.656-1.234.859-1.656.859-.61 0-.703-.688-.703-1 0-.063 0-.36.156-.922Zm-.203-.234c.406-1.438 1.297-1.453 1.422-1.453.39 0 .594.265.594.53 0 .923-1.438.923-2.016.923Zm0 0"/></symbol><clipPath id="a"><path d="M0 0h143.922v79H0Zm0 0"/></clipPath></defs><path style="fill:none;stroke-width:.59776;stroke-linecap:butt;stroke-linejoin:miter;stroke:#000;stroke-opacity:1;stroke-miterlimit:10" d="M70.866 42.672h14.176l14.172 22.46 28.348-11.23" transform="matrix(1 0 0 -1 1.075 88.777)"/><path style="fill:none;stroke-width:.59776;stroke-linecap:butt;stroke-linejoin:miter;stroke:#000;stroke-opacity:1;stroke-miterlimit:10" d="m14.175 0 14.172 20.215 14.172 67.374 70.867-67.374" transform="matrix(1 0 0 -1 1.075 88.777)"/><g clip-path="url(#a)"><path style="fill:none;stroke-width:.59776;stroke-linecap:butt;stroke-linejoin:miter;stroke:#000;stroke-opacity:1;stroke-miterlimit:10" d="m0 18.636 28.347 9.317L56.695 55.91l85.039 31.68" transform="matrix(1 0 0 -1 1.075 88.777)"/></g><path style="fill:none;stroke-width:.59776;stroke-linecap:butt;stroke-linejoin:miter;stroke:#000;stroke-opacity:1;stroke-miterlimit:10" d="m0 0 28.347 9.32 14.172 9.316 70.867 18.637" transform="matrix(1 0 0 -1 1.075 88.777)"/><g style="fill:#000;fill-opacity:1"><use xlink:href="#b" x="62.781" y="106.658"/><use xlink:href="#c" x="65.839" y="106.658"/><use xlink:href="#d" x="68.662" y="106.658"/><use xlink:href="#e" x="76.189" y="106.658"/></g></svg>