<svg xmlns="http://www.w3.org/2000/svg" xmlns:xlink="http://www.w3.org/1999/xlink" width="511.899" height="274.707" viewBox="0 0 383.924 206.03" version="1.2"><defs><symbol overflow="visible" id="b"><path style="stroke:none" d="M5.719-2.031c0-1.094-.797-1.906-1.719-2.094l-1.438-.313c-.406-.093-.953-.421-.953-1.03 0-.438.282-1.048 1.266-1.048.797 0 1.813.329 2.047 1.688.031.25.031.266.234.266.25 0 .25-.047.25-.282v-1.828c0-.187 0-.281-.187-.281-.078 0-.078.016-.188.11l-.453.437C4-6.86 3.344-6.953 2.875-6.953c-1.516 0-2.234.969-2.234 2.016 0 .64.328 1.093.53 1.312.5.5.829.563 1.923.797.875.203 1.047.219 1.265.437.141.141.391.407.391.86 0 .484-.25 1.172-1.297 1.172-.75 0-2.265-.204-2.344-1.688-.015-.172-.015-.219-.234-.219-.234 0-.234.047-.234.282v1.812C.64.016.64.11.812.11.906.11.922.094 1 .016l.469-.454C2.125.047 3.047.11 3.453.11 5.11.11 5.72-1.016 5.72-2.03Zm0 0"/></symbol><symbol overflow="visible" id="c"><path style="stroke:none" d="M2.844 0v-.469h-.61v-4.015L.5-4.406v.468c.594 0 .656 0 .656.391v3.078H.47V0l1.219-.031Zm-.469-6.047a.774.774 0 0 0-.781-.781.784.784 0 0 0-.782.781c0 .422.36.766.782.766a.77.77 0 0 0 .781-.766Zm0 0"/></symbol><symbol overflow="visible" id="d"><path style="stroke:none" d="M5.563-3.953c0-.235-.172-.578-.625-.578-.157 0-.625.031-1.063.375-.172-.125-.594-.328-1.328-.328-1.438 0-1.985.78-1.985 1.468 0 .407.188.829.516 1.047-.281.36-.344.688-.344.89 0 .157.047.641.438.954-.125.031-.86.25-.86.875C.313 1.25.875 2 2.86 2 4.625 2 5.406 1.422 5.406.719c0-.297-.078-.922-.75-1.266-.562-.281-1.156-.281-2.11-.281-.265 0-.718 0-.765-.016a.625.625 0 0 1-.562-.625c0-.093.047-.25.11-.328.452.234.968.266 1.218.266 1.437 0 1.984-.782 1.984-1.485 0-.468-.25-.796-.406-.953.297-.156.516-.172.625-.187a.433.433 0 0 0-.047.203c0 .25.172.422.438.422a.41.41 0 0 0 .421-.422Zm-2.141.937c0 .454 0 1.125-.875 1.125s-.875-.671-.875-1.125c0-.437 0-1.109.875-1.109s.875.672.875 1.11ZM4.547.75c0 .36-.39.89-1.688.89-1.187 0-1.687-.452-1.687-.906 0-.609.625-.609.766-.609h1.171c.313 0 1.438 0 1.438.625Zm0 0"/></symbol><symbol overflow="visible" id="e"><path style="stroke:none" d="M6.125 0v-.469h-.688v-2.578c0-1.047-.53-1.437-1.53-1.437-.954 0-1.485.562-1.75 1.078v-1.078l-1.704.078v.468c.61 0 .688 0 .688.391v3.078H.453V0l1.25-.031L2.953 0v-.469h-.687v-2.078c0-1.094.859-1.578 1.5-1.578.328 0 .546.203.546.969V-.47h-.687V0l1.25-.031Zm0 0"/></symbol><symbol overflow="visible" id="f"><path style="stroke:none" d="M5.516-.234c0-.235-.125-.235-.266-.235-.61-.015-.61-.14-.61-.375v-2.14c0-.891-.702-1.532-2.187-1.532-.562 0-1.781.047-1.781.922 0 .438.344.625.61.625.312 0 .624-.219.624-.625 0-.297-.187-.469-.218-.5a5.28 5.28 0 0 1 .718-.062c.75 0 1.11.422 1.11 1.172v.343c-.72.032-3.25.125-3.25 1.563C.266-.125 1.5.062 2.187.062c.797 0 1.266-.406 1.485-.828 0 .313 0 .766 1.047.766h.468c.204 0 .329 0 .329-.234Zm-2-1.157c0 .97-.922 1.094-1.172 1.094-.516 0-.906-.344-.906-.797 0-1.062 1.578-1.203 2.078-1.234Zm0 0"/></symbol><symbol overflow="visible" id="g"><path style="stroke:none" d="M2.922 0v-.469h-.688v-6.453L.47-6.844v.469c.625 0 .687 0 .687.39v5.516H.47V0l1.219-.031Zm0 0"/></symbol><symbol overflow="visible" id="h"><path style="stroke:none" d="M3.078.313c0-.126-.047-.157-.187-.25C2.062-.5 1.75-1.391 1.75-2.126c0-.672.25-1.594 1.156-2.203.125-.094.172-.125.172-.25a.254.254 0 0 0-.265-.25c-.204 0-1.641.906-1.641 2.703 0 .813.312 1.438.562 1.781.375.516.907.906 1.079.906.218 0 .265-.171.265-.25Zm0 0"/></symbol><symbol overflow="visible" id="i"><path style="stroke:none" d="M3.219-.906c0-.735-.906-.906-1.14-.938l-.704-.125C1.187-2 1-2.079 1-2.25c0-.156.219-.328.813-.328.515 0 .609.172.625.328.015.14.03.281.28.281.298 0 .298-.156.298-.328v-.469c0-.14-.016-.328-.25-.328-.157 0-.22.063-.25.125-.282-.125-.563-.125-.688-.125-1.187 0-1.344.594-1.344.844 0 .656.735.797 1.391.89.297.063.828.141.828.454 0 .234-.25.422-.828.422-.297 0-.656-.063-.813-.563-.03-.156-.078-.234-.28-.234-.298 0-.298.172-.298.328v.656c0 .14 0 .344.25.344.079 0 .188 0 .282-.234.328.218.671.234.859.234 1.125 0 1.344-.61 1.344-.953Zm0 0"/></symbol><symbol overflow="visible" id="j"><path style="stroke:none" d="M2.313-.469a.477.477 0 0 0-.485-.484.47.47 0 0 0-.469.469c0 .28.22.484.47.484a.473.473 0 0 0 .484-.469Zm0 0"/></symbol><symbol overflow="visible" id="k"><path style="stroke:none" d="M3.14-.906c0-.156 0-.313-.296-.313-.266 0-.266.157-.266.297-.015.375-.36.438-.515.438-.454 0-.454-.313-.454-.47v-1.562h1.047c.125 0 .328 0 .328-.265 0-.25-.187-.25-.328-.25H1.61v-.516c0-.14-.015-.328-.296-.328-.282 0-.282.172-.282.328v.516H.484c-.125 0-.328 0-.328.25 0 .265.203.265.328.265h.547v1.61c0 .687.485.953 1.016.953S3.14-.266 3.14-.906Zm0 0"/></symbol><symbol overflow="visible" id="l"><path style="stroke:none" d="M3.25-.797c0-.234-.234-.234-.281-.234-.156 0-.219.015-.281.172-.141.328-.485.375-.657.375-.469 0-.937-.297-1.062-.813h1.953c.172 0 .328 0 .328-.312 0-.797-.453-1.485-1.375-1.485-.828 0-1.516.703-1.516 1.563S1.08.047 1.984.047c.938 0 1.266-.656 1.266-.844Zm-.594-1.015H.97c.125-.438.484-.766.906-.766.328 0 .703.156.781.765Zm0 0"/></symbol><symbol overflow="visible" id="m"><path style="stroke:none" d="M3.469-.266c0-.25-.203-.25-.328-.25h-.25l-.829-1.046.735-.954h.234c.125 0 .344 0 .344-.265 0-.25-.219-.25-.344-.25H2.25c-.125 0-.328 0-.328.25 0 .203.11.265.281.265l-.39.547-.422-.547c.156 0 .28-.062.28-.265 0-.25-.202-.25-.327-.25H.547c-.125 0-.328 0-.328.25 0 .265.218.265.328.265h.25l.75.954L.75-.516H.516c-.125 0-.344 0-.344.25C.172 0 .39 0 .516 0h.78c.126 0 .329 0 .329-.266 0-.203-.11-.25-.297-.25l.484-.703.5.703c-.187 0-.296.047-.296.25 0 .266.203.266.328.266h.797c.109 0 .328 0 .328-.266Zm0 0"/></symbol><symbol overflow="visible" id="n"><path style="stroke:none" d="M2.484-2.125c0-.828-.312-1.453-.562-1.797-.375-.515-.906-.906-1.078-.906-.203 0-.266.187-.266.25 0 .125.094.187.14.219 1.095.718 1.188 1.796 1.188 2.234 0 .656-.25 1.578-1.14 2.188C.64.14.578.186.578.313c0 .078.063.25.266.25s1.64-.907 1.64-2.688Zm0 0"/></symbol><symbol overflow="visible" id="o"><path style="stroke:none" d="M3.266-.797c0-.234-.235-.234-.297-.234-.125 0-.203 0-.266.172-.047.078-.187.375-.625.375a1.027 1.027 0 0 1-1.015-1.032c0-.312.187-1.062 1.062-1.062l.344.015c.015.282.172.376.36.376.187 0 .358-.126.358-.36 0-.531-.734-.547-1.062-.547-1.219 0-1.64.953-1.64 1.578 0 .844.671 1.563 1.546 1.563 1 0 1.235-.719 1.235-.844Zm0 0"/></symbol><symbol overflow="visible" id="p"><path style="stroke:none" d="M3.578-.266c0-.25-.203-.25-.328-.25H3v-1.53c0-.72-.36-1.032-.938-1.032-.39 0-.671.172-.843.297 0-.172-.047-.25-.313-.25h-.5c-.14 0-.328 0-.328.25 0 .265.203.265.313.265h.25v2H.406c-.14 0-.328 0-.328.25C.078 0 .281 0 .391 0h1.093c.11 0 .329 0 .329-.266 0-.25-.204-.25-.344-.25h-.25v-1.156c0-.64.484-.875.797-.875.328 0 .406.172.406.547v1.484h-.203c-.14 0-.344 0-.344.25 0 .266.219.266.344.266H3.25c.11 0 .328 0 .328-.266Zm0 0"/></symbol><symbol overflow="visible" id="q"><path style="stroke:none" d="M3.406-2.594c0-.156-.078-.484-.703-.484-.328 0-.734.11-1.094.469v-.094c0-.25-.046-.328-.328-.328h-.75c-.125 0-.328 0-.328.25 0 .265.203.265.328.265h.5v2h-.5c-.125 0-.328 0-.328.25C.203 0 .406 0 .531 0h1.781c.126 0 .329 0 .329-.266 0-.25-.204-.25-.329-.25H1.61v-.796c0-.61.36-1.22 1.11-1.235 0 .156.172.281.344.281.187 0 .343-.125.343-.328Zm0 0"/></symbol><symbol overflow="visible" id="r"><path style="stroke:none" d="M3.36-4c0-.25-.188-.266-.329-.266H.828c-.062-.093-.187-.109-.25-.109-.281 0-.281.188-.281.344v.281c0 .156 0 .328.281.328.266 0 .281-.125.297-.312h1.61C1.358-2.5 1.155-1.031 1.155-.297c0 .11 0 .375.282.375.14 0 .28-.094.28-.328a4.937 4.937 0 0 1 1.47-3.469c.171-.14.171-.156.171-.281Zm0 0"/></symbol><symbol overflow="visible" id="s"><path style="stroke:none" d="M3.313-2.125c0-1.297-.72-2.203-1.485-2.203-.781 0-1.5.922-1.5 2.203 0 1.297.734 2.203 1.5 2.203.781 0 1.484-.922 1.484-2.203Zm-.563-.078c0 .969-.422 1.75-.922 1.75-.516 0-.922-.781-.922-1.75 0-.953.438-1.61.922-1.61.469 0 .922.657.922 1.61Zm0 0"/></symbol><symbol overflow="visible" id="t"><path style="stroke:none" d="M3.422-1.516c0-.875-.64-1.562-1.39-1.562-.298 0-.579.11-.813.265v-1.109c0-.25-.047-.344-.313-.344h-.5c-.14 0-.344.016-.344.266s.22.266.329.266h.25v3.406C.64-.172.656 0 .937 0c.22 0 .282-.094.282-.234.265.218.531.28.734.28.766 0 1.469-.671 1.469-1.562Zm-.578 0c0 .61-.453 1.032-.906 1.032-.485 0-.704-.563-.704-.875v-.485c0-.375.375-.703.766-.703.469 0 .844.469.844 1.031Zm0 0"/></symbol><symbol overflow="visible" id="u"><path style="stroke:none" d="M3.625-.266c0-.25-.203-.25-.328-.25-.203 0-.297-.03-.344-.046V-2c0-.5-.375-1.094-1.406-1.094-.313 0-1.031.016-1.031.547 0 .235.171.36.359.36.11 0 .344-.063.344-.36 0 0 .234-.031.343-.031.454 0 .782.187.813.594-1.219.03-2.047.39-2.047 1.062 0 .485.453.969 1.188.969.234 0 .656-.047.968-.25.172.187.485.203.75.203.235 0 .391-.016.391-.266ZM2.359-.969c0 .14 0 .266-.234.375-.234.11-.516.11-.578.11-.39 0-.64-.204-.64-.438 0-.312.546-.515 1.452-.562Zm0 0"/></symbol><symbol overflow="visible" id="v"><path style="stroke:none" d="M3.547-2.781c0-.25-.188-.25-.328-.25h-.781c-.157 0-.344 0-.344.25 0 .265.172.265.344.265h.265l-.297 1.72-.14-.532c-.125-.469-.172-.547-.422-.547-.094 0-.235 0-.328.188l-.266.906-.297-1.735h.266c.156 0 .343 0 .343-.265 0-.25-.187-.25-.343-.25H.437c-.14 0-.343 0-.343.25 0 .234.14.265.36.265L.858-.28c.032.187.047.312.36.312.312 0 .343-.062.453-.515l.172-.641.265 1c.094.14.235.156.344.156.281 0 .313-.125.344-.312l.406-2.235c.219 0 .344-.03.344-.265Zm0 0"/></symbol><symbol overflow="visible" id="w"><path style="stroke:none" d="M3.64-.266c0-.218-.14-.25-.39-.25v-1.593c0-.157-.016-.97-.656-.97a.842.842 0 0 0-.656.313.61.61 0 0 0-.532-.312.875.875 0 0 0-.547.203c-.046-.156-.187-.156-.312-.156H.328c-.125 0-.328 0-.328.25 0 .234.125.265.39.265v2c-.265 0-.39.032-.39.25C0 0 .219 0 .328 0h.594c.125 0 .312 0 .312-.266 0-.218-.109-.25-.359-.25v-1.171c0-.563.234-.86.5-.86.14 0 .203.11.203.5v1.531c-.156 0-.281.032-.281.25 0 .266.187.266.312.266h.516c.125 0 .313 0 .313-.266 0-.218-.126-.25-.376-.25v-1.171c0-.563.25-.86.5-.86.141 0 .204.11.204.5v1.531c-.141 0-.282.032-.282.25 0 .266.204.266.313.266h.5c.125 0 .344 0 .344-.266Zm0 0"/></symbol><symbol overflow="visible" id="x"><path style="stroke:none" d="M3.188-.266c0-.25-.204-.25-.329-.25h-.656v-2.187c0-.25-.047-.328-.328-.328H.906c-.125 0-.328 0-.328.25 0 .265.203.265.328.265h.719v2H.859c-.14 0-.343 0-.343.25C.516 0 .734 0 .859 0h2c.125 0 .329 0 .329-.266Zm-.954-3.562a.39.39 0 0 0-.406-.39.387.387 0 0 0-.39.39c0 .219.171.39.39.39a.39.39 0 0 0 .406-.39Zm0 0"/></symbol><symbol overflow="visible" id="y"><path style="stroke:none" d="M3.578-.266c0-.25-.203-.25-.328-.25H3v-3.406c0-.25-.047-.344-.328-.344h-.485c-.14 0-.343.016-.343.266s.218.266.328.266h.25v.906a1.261 1.261 0 0 0-.735-.25c-.765 0-1.453.672-1.453 1.562C.234-.64.875.047 1.625.047c.344 0 .61-.14.797-.313.015.188.062.266.328.266h.5c.125 0 .328 0 .328-.266ZM2.422-1.375c0 .36-.297.89-.781.89-.454 0-.829-.453-.829-1.03 0-.61.438-1.032.891-1.032.406 0 .719.344.719.688Zm0 0"/></symbol><symbol overflow="visible" id="z"><path style="stroke:none" d="M3.281-1.516c0-.89-.672-1.578-1.453-1.578-.797 0-1.453.688-1.453 1.578 0 .891.672 1.563 1.453 1.563.766 0 1.453-.688 1.453-1.563Zm-.578-.046c0 .593-.406 1.078-.875 1.078S.953-.97.953-1.563c0-.593.422-1.015.875-1.015s.875.422.875 1.015Zm0 0"/></symbol><symbol overflow="visible" id="A"><path style="stroke:none" d="M3.578-.266c0-.25-.203-.25-.328-.25H3v-1.53c0-.72-.36-1.032-.938-1.032-.39 0-.671.172-.843.297v-1.14c0-.25-.047-.345-.313-.345h-.5c-.14 0-.328.016-.328.266s.203.266.313.266h.25v3.218H.406c-.14 0-.328 0-.328.25C.078 0 .281 0 .391 0h1.093c.11 0 .329 0 .329-.266 0-.25-.204-.25-.344-.25h-.25v-1.156c0-.64.484-.875.797-.875.328 0 .406.172.406.547v1.484h-.203c-.14 0-.344 0-.344.25 0 .266.219.266.344.266H3.25c.11 0 .328 0 .328-.266Zm0 0"/></symbol><symbol overflow="visible" id="B"><path style="stroke:none" d="M3.578-.266c0-.25-.219-.25-.328-.25H3v-2.187c0-.25-.047-.328-.328-.328h-.485c-.14 0-.343 0-.343.25 0 .265.218.265.328.265h.25v1.391c0 .563-.516.64-.719.64-.469 0-.484-.187-.484-.39v-1.828c0-.25-.047-.328-.313-.328h-.5c-.14 0-.328 0-.328.25 0 .265.203.265.313.265h.25v1.688c0 .687.5.875 1.03.875.266 0 .516-.063.766-.219C2.485 0 2.626 0 2.75 0h.5c.125 0 .328 0 .328-.266Zm0 0"/></symbol><clipPath id="a"><path d="M0 0h383.887v205.547H0Zm0 0"/></clipPath></defs><path style="stroke:none;fill-rule:nonzero;fill:#fffbb3;fill-opacity:1" d="M200.969 16.477h72.383l86.046 86.043-86.046 86.039H42.535l86.047-86.04-86.047-86.042Zm0 0"/><g clip-path="url(#a)"><path style="fill:none;stroke-width:14.17339;stroke-linecap:butt;stroke-linejoin:miter;stroke:#b2b2b2;stroke-opacity:1;stroke-miterlimit:10" d="M.002 86.041h72.383L158.43-.002 72.385-86.04h-230.817L-72.385 0l-86.047 86.042Zm0 0" transform="matrix(1 0 0 -1 200.967 102.518)"/></g><g style="fill:#b2b2b2;fill-opacity:1"><use xlink:href="#b" x="185.276" y="129.864"/><use xlink:href="#c" x="191.642" y="129.864"/><use xlink:href="#d" x="194.82" y="129.864"/><use xlink:href="#e" x="200.549" y="129.864"/><use xlink:href="#f" x="206.915" y="129.864"/><use xlink:href="#g" x="212.484" y="129.864"/></g><path style="fill:none;stroke-width:.996;stroke-linecap:butt;stroke-linejoin:miter;stroke:#b2b2b2;stroke-opacity:1;stroke-miterlimit:10" d="M0-.001v58.695" transform="matrix(1 0 0 -1 216.16 131.866)"/><path style="fill:none;stroke-width:.3985;stroke-linecap:butt;stroke-linejoin:miter;stroke:#000;stroke-opacity:1;stroke-miterlimit:10" d="m-17.1-28.755 2.817 2.82m-2.817 0 2.817-2.82" transform="matrix(1 0 0 -1 200.967 102.518)"/><g style="fill:#000;fill-opacity:1"><use xlink:href="#h" x="152.466" y="131.998"/><use xlink:href="#i" x="156.127" y="131.998"/><use xlink:href="#j" x="159.789" y="131.998"/><use xlink:href="#k" x="163.45" y="131.998"/><use xlink:href="#l" x="167.111" y="131.998"/><use xlink:href="#m" x="170.772" y="131.998"/><use xlink:href="#k" x="174.434" y="131.998"/><use xlink:href="#n" x="178.095" y="131.998"/></g><path style="fill:none;stroke-width:.3985;stroke-linecap:butt;stroke-linejoin:miter;stroke:#000;stroke-opacity:1;stroke-miterlimit:10" d="M-1.408-1.408 1.408 1.41m-2.816 0 2.816-2.817" transform="matrix(1 0 0 -1 200.967 102.518)"/><g style="fill:#000;fill-opacity:1"><use xlink:href="#h" x="182.661" y="98.441"/><use xlink:href="#i" x="186.322" y="98.441"/><use xlink:href="#j" x="189.984" y="98.441"/><use xlink:href="#o" x="193.645" y="98.441"/><use xlink:href="#l" x="197.306" y="98.441"/><use xlink:href="#p" x="200.967" y="98.441"/><use xlink:href="#k" x="204.629" y="98.441"/><use xlink:href="#l" x="208.29" y="98.441"/><use xlink:href="#q" x="211.951" y="98.441"/><use xlink:href="#n" x="215.612" y="98.441"/></g><path style="fill:none;stroke-width:.3985;stroke-linecap:butt;stroke-linejoin:miter;stroke:#000;stroke-opacity:1;stroke-miterlimit:10" d="m32.486 91.717 2.817 2.817m-2.817 0 2.817-2.817" transform="matrix(1 0 0 -1 200.967 102.518)"/><g style="fill:#000;fill-opacity:1"><use xlink:href="#h" x="223.878" y="5.316"/><use xlink:href="#i" x="227.539" y="5.316"/><use xlink:href="#j" x="231.201" y="5.316"/><use xlink:href="#r" x="234.862" y="5.316"/><use xlink:href="#s" x="238.523" y="5.316"/><use xlink:href="#n" x="242.184" y="5.316"/></g><path style="fill:none;stroke-width:.3985;stroke-linecap:butt;stroke-linejoin:miter;stroke:#000;stroke-opacity:1;stroke-miterlimit:10" d="m-1.408-28.755 2.816 2.82m-2.816 0 2.816-2.82" transform="matrix(1 0 0 -1 200.967 102.518)"/><g style="fill:#000;fill-opacity:1"><use xlink:href="#h" x="186.322" y="138.209"/><use xlink:href="#i" x="189.983" y="138.209"/><use xlink:href="#j" x="193.645" y="138.209"/><use xlink:href="#t" x="197.306" y="138.209"/><use xlink:href="#u" x="200.967" y="138.209"/><use xlink:href="#i" x="204.628" y="138.209"/><use xlink:href="#l" x="208.29" y="138.209"/><use xlink:href="#n" x="211.951" y="138.209"/></g><path style="fill:none;stroke-width:.3985;stroke-linecap:butt;stroke-linejoin:miter;stroke:#000;stroke-opacity:1;stroke-miterlimit:10" d="m139.717-28.755 2.816 2.82m-2.816 0 2.816-2.82" transform="matrix(1 0 0 -1 200.967 102.518)"/><g style="fill:#000;fill-opacity:1"><use xlink:href="#h" x="318.292" y="138.209"/><use xlink:href="#i" x="321.953" y="138.209"/><use xlink:href="#j" x="325.615" y="138.209"/><use xlink:href="#t" x="329.276" y="138.209"/><use xlink:href="#u" x="332.937" y="138.209"/><use xlink:href="#i" x="336.598" y="138.209"/><use xlink:href="#l" x="340.26" y="138.209"/></g><g style="fill:#000;fill-opacity:1"><use xlink:href="#l" x="347.582" y="138.209"/><use xlink:href="#u" x="351.243" y="138.209"/><use xlink:href="#i" x="354.905" y="138.209"/><use xlink:href="#k" x="358.566" y="138.209"/><use xlink:href="#n" x="362.227" y="138.209"/></g><path style="fill:none;stroke-width:.3985;stroke-linecap:butt;stroke-linejoin:miter;stroke:#000;stroke-opacity:1;stroke-miterlimit:10" d="m-111.174-28.755 2.82 2.82m-2.82 0 2.82-2.82" transform="matrix(1 0 0 -1 200.967 102.518)"/><g style="fill:#000;fill-opacity:1"><use xlink:href="#h" x="67.407" y="138.209"/><use xlink:href="#i" x="71.068" y="138.209"/><use xlink:href="#j" x="74.73" y="138.209"/><use xlink:href="#t" x="78.391" y="138.209"/><use xlink:href="#u" x="82.052" y="138.209"/><use xlink:href="#i" x="85.713" y="138.209"/><use xlink:href="#l" x="89.375" y="138.209"/></g><g style="fill:#000;fill-opacity:1"><use xlink:href="#v" x="96.69" y="138.209"/><use xlink:href="#l" x="100.351" y="138.209"/><use xlink:href="#i" x="104.013" y="138.209"/><use xlink:href="#k" x="107.674" y="138.209"/><use xlink:href="#n" x="111.335" y="138.209"/></g><path style="fill:none;stroke-width:.3985;stroke-linecap:butt;stroke-linejoin:miter;stroke:#000;stroke-opacity:1;stroke-miterlimit:10" d="m-1.408-26.544 2.816 2.82m-2.816 0 2.816-2.82" transform="matrix(1 0 0 -1 200.967 102.518)"/><g style="fill:#000;fill-opacity:1"><use xlink:href="#h" x="204.487" y="129.786"/><use xlink:href="#i" x="208.148" y="129.786"/><use xlink:href="#j" x="211.81" y="129.786"/><use xlink:href="#w" x="215.471" y="129.786"/><use xlink:href="#x" x="219.132" y="129.786"/><use xlink:href="#y" x="222.793" y="129.786"/><use xlink:href="#n" x="226.455" y="129.786"/></g><path style="fill:none;stroke-width:.3985;stroke-linecap:butt;stroke-linejoin:miter;stroke:#000;stroke-opacity:1;stroke-miterlimit:10" d="m141.928-26.54 2.816 2.816m-2.816 0 2.816-2.817" transform="matrix(1 0 0 -1 200.967 102.518)"/><g style="fill:#000;fill-opacity:1"><use xlink:href="#h" x="296.847" y="123.574"/><use xlink:href="#i" x="300.508" y="123.574"/><use xlink:href="#j" x="304.17" y="123.574"/><use xlink:href="#w" x="307.831" y="123.574"/><use xlink:href="#x" x="311.492" y="123.574"/><use xlink:href="#y" x="315.153" y="123.574"/></g><g style="fill:#000;fill-opacity:1"><use xlink:href="#l" x="322.476" y="123.574"/><use xlink:href="#u" x="326.137" y="123.574"/><use xlink:href="#i" x="329.798" y="123.574"/><use xlink:href="#k" x="333.46" y="123.574"/><use xlink:href="#n" x="337.121" y="123.574"/></g><path style="fill:none;stroke-width:.3985;stroke-linecap:butt;stroke-linejoin:miter;stroke:#000;stroke-opacity:1;stroke-miterlimit:10" d="m-108.96-26.544 2.817 2.82m-2.816 0 2.816-2.82" transform="matrix(1 0 0 -1 200.967 102.518)"/><g style="fill:#000;fill-opacity:1"><use xlink:href="#h" x="45.962" y="123.574"/><use xlink:href="#i" x="49.623" y="123.574"/><use xlink:href="#j" x="53.285" y="123.574"/><use xlink:href="#w" x="56.946" y="123.574"/><use xlink:href="#x" x="60.607" y="123.574"/><use xlink:href="#y" x="64.268" y="123.574"/></g><g style="fill:#000;fill-opacity:1"><use xlink:href="#v" x="71.591" y="123.574"/><use xlink:href="#l" x="75.252" y="123.574"/><use xlink:href="#i" x="78.913" y="123.574"/><use xlink:href="#k" x="82.575" y="123.574"/><use xlink:href="#n" x="86.236" y="123.574"/></g><path style="fill:none;stroke-width:.3985;stroke-linecap:butt;stroke-linejoin:miter;stroke:#000;stroke-opacity:1;stroke-miterlimit:10" d="m-1.408 91.721 2.816 2.817m-2.816 0 2.816-2.817" transform="matrix(1 0 0 -1 200.967 102.518)"/><g style="fill:#000;fill-opacity:1"><use xlink:href="#h" x="184.492" y="5.314"/><use xlink:href="#i" x="188.153" y="5.314"/><use xlink:href="#j" x="191.815" y="5.314"/><use xlink:href="#p" x="195.476" y="5.314"/><use xlink:href="#z" x="199.137" y="5.314"/><use xlink:href="#q" x="202.798" y="5.314"/><use xlink:href="#k" x="206.46" y="5.314"/><use xlink:href="#A" x="210.121" y="5.314"/><use xlink:href="#n" x="213.782" y="5.314"/></g><path style="fill:none;stroke-width:.3985;stroke-linecap:butt;stroke-linejoin:miter;stroke:#000;stroke-opacity:1;stroke-miterlimit:10" d="m-1.408-94.537 2.816 2.817m-2.816 0 2.816-2.817" transform="matrix(1 0 0 -1 200.967 102.518)"/><g style="fill:#000;fill-opacity:1"><use xlink:href="#h" x="184.492" y="203.991"/><use xlink:href="#i" x="188.153" y="203.991"/><use xlink:href="#j" x="191.815" y="203.991"/><use xlink:href="#i" x="195.476" y="203.991"/><use xlink:href="#z" x="199.137" y="203.991"/><use xlink:href="#B" x="202.798" y="203.991"/><use xlink:href="#k" x="206.46" y="203.991"/><use xlink:href="#A" x="210.121" y="203.991"/><use xlink:href="#n" x="213.782" y="203.991"/></g><path style="fill:none;stroke-width:.3985;stroke-linecap:butt;stroke-linejoin:miter;stroke:#000;stroke-opacity:1;stroke-miterlimit:10" d="m167.045-1.408 2.816 2.817m-2.816 0 2.816-2.817" transform="matrix(1 0 0 -1 200.967 102.518)"/><g style="fill:#000;fill-opacity:1"><use xlink:href="#h" x="354.773" y="98.441"/><use xlink:href="#i" x="358.434" y="98.441"/><use xlink:href="#j" x="362.096" y="98.441"/><use xlink:href="#l" x="365.757" y="98.441"/><use xlink:href="#u" x="369.418" y="98.441"/><use xlink:href="#i" x="373.079" y="98.441"/><use xlink:href="#k" x="376.741" y="98.441"/><use xlink:href="#n" x="380.402" y="98.441"/></g><path style="fill:none;stroke-width:.3985;stroke-linecap:butt;stroke-linejoin:miter;stroke:#000;stroke-opacity:1;stroke-miterlimit:10" d="m-83.815-1.408 2.817 2.817m-2.817 0 2.817-2.817" transform="matrix(1 0 0 -1 200.967 102.518)"/><g style="fill:#000;fill-opacity:1"><use xlink:href="#h" x="103.916" y="98.441"/><use xlink:href="#i" x="107.577" y="98.441"/><use xlink:href="#j" x="111.239" y="98.441"/><use xlink:href="#v" x="114.9" y="98.441"/><use xlink:href="#l" x="118.561" y="98.441"/><use xlink:href="#i" x="122.222" y="98.441"/><use xlink:href="#k" x="125.884" y="98.441"/><use xlink:href="#n" x="129.545" y="98.441"/></g><path style="fill:none;stroke-width:.3985;stroke-linecap:butt;stroke-linejoin:miter;stroke:#000;stroke-opacity:1;stroke-miterlimit:10" d="m-176.947 91.721 2.816 2.817m-2.816 0 2.816-2.817" transform="matrix(1 0 0 -1 200.967 102.518)"/><g style="fill:#000;fill-opacity:1"><use xlink:href="#h" x="-.199" y="5.313"/><use xlink:href="#i" x="3.462" y="5.313"/><use xlink:href="#j" x="7.124" y="5.313"/><use xlink:href="#p" x="10.785" y="5.313"/><use xlink:href="#z" x="14.446" y="5.313"/><use xlink:href="#q" x="18.107" y="5.313"/><use xlink:href="#k" x="21.769" y="5.313"/><use xlink:href="#A" x="25.43" y="5.313"/></g><g style="fill:#000;fill-opacity:1"><use xlink:href="#v" x="32.745" y="5.313"/><use xlink:href="#l" x="36.407" y="5.313"/><use xlink:href="#i" x="40.068" y="5.313"/><use xlink:href="#k" x="43.729" y="5.313"/><use xlink:href="#n" x="47.391" y="5.313"/></g><path style="fill:none;stroke-width:.3985;stroke-linecap:butt;stroke-linejoin:miter;stroke:#000;stroke-opacity:1;stroke-miterlimit:10" d="m73.912 91.721 2.816 2.817m-2.816 0 2.816-2.817" transform="matrix(1 0 0 -1 200.967 102.518)"/><g style="fill:#000;fill-opacity:1"><use xlink:href="#h" x="250.658" y="5.314"/><use xlink:href="#i" x="254.319" y="5.314"/><use xlink:href="#j" x="257.981" y="5.314"/><use xlink:href="#p" x="261.642" y="5.314"/><use xlink:href="#z" x="265.303" y="5.314"/><use xlink:href="#q" x="268.964" y="5.314"/><use xlink:href="#k" x="272.626" y="5.314"/><use xlink:href="#A" x="276.287" y="5.314"/></g><g style="fill:#000;fill-opacity:1"><use xlink:href="#l" x="283.609" y="5.314"/><use xlink:href="#u" x="287.271" y="5.314"/><use xlink:href="#i" x="290.932" y="5.314"/><use xlink:href="#k" x="294.593" y="5.314"/><use xlink:href="#n" x="298.255" y="5.314"/></g><path style="fill:none;stroke-width:.3985;stroke-linecap:butt;stroke-linejoin:miter;stroke:#000;stroke-opacity:1;stroke-miterlimit:10" d="m-176.947-94.537 2.816 2.817m-2.816 0 2.816-2.817" transform="matrix(1 0 0 -1 200.967 102.518)"/><g style="fill:#000;fill-opacity:1"><use xlink:href="#h" x="-.199" y="203.991"/><use xlink:href="#i" x="3.462" y="203.991"/><use xlink:href="#j" x="7.124" y="203.991"/><use xlink:href="#i" x="10.785" y="203.991"/><use xlink:href="#z" x="14.446" y="203.991"/><use xlink:href="#B" x="18.107" y="203.991"/><use xlink:href="#k" x="21.769" y="203.991"/><use xlink:href="#A" x="25.43" y="203.991"/></g><g style="fill:#000;fill-opacity:1"><use xlink:href="#v" x="32.745" y="203.991"/><use xlink:href="#l" x="36.407" y="203.991"/><use xlink:href="#i" x="40.068" y="203.991"/><use xlink:href="#k" x="43.729" y="203.991"/><use xlink:href="#n" x="47.391" y="203.991"/></g><path style="fill:none;stroke-width:.3985;stroke-linecap:butt;stroke-linejoin:miter;stroke:#000;stroke-opacity:1;stroke-miterlimit:10" d="m73.912-94.537 2.816 2.817m-2.816 0 2.816-2.817" transform="matrix(1 0 0 -1 200.967 102.518)"/><g style="fill:#000;fill-opacity:1"><use xlink:href="#h" x="250.658" y="203.991"/><use xlink:href="#i" x="254.319" y="203.991"/><use xlink:href="#j" x="257.981" y="203.991"/><use xlink:href="#i" x="261.642" y="203.991"/><use xlink:href="#z" x="265.303" y="203.991"/><use xlink:href="#B" x="268.964" y="203.991"/><use xlink:href="#k" x="272.626" y="203.991"/><use xlink:href="#A" x="276.287" y="203.991"/></g><g style="fill:#000;fill-opacity:1"><use xlink:href="#l" x="283.609" y="203.991"/><use xlink:href="#u" x="287.271" y="203.991"/><use xlink:href="#i" x="290.932" y="203.991"/><use xlink:href="#k" x="294.593" y="203.991"/><use xlink:href="#n" x="298.255" y="203.991"/></g></svg>