<svg xmlns="http://www.w3.org/2000/svg" width="103.899" height="45.195" viewBox="0 0 77.924 33.896" version="1.2"><defs><clipPath id="a"><path d="M0 0h77.887v33.844H0Zm0 0"/></clipPath></defs><path style="stroke:none;fill-rule:nonzero;fill:#ccf;fill-opacity:1" d="M2.656 32.438 59.352 4.09l2.488-2.492 3.87 6.55 6.313-.988-1.28 7.5 5.452 3.324-5.824 4.895 2.012 6.062-7.61-.035-.828 2.77-4.593.762Zm0 0"/><g clip-path="url(#a)"><path style="fill:none;stroke-width:.79701;stroke-linecap:butt;stroke-linejoin:miter;stroke:#00f;stroke-opacity:1;stroke-miterlimit:10" d="m0-.002 56.696 28.348 2.488 2.492 3.87-6.55 6.313.988-1.28-7.5 5.452-3.324-5.824-4.895 2.012-6.062-7.61.035L61.29.76 56.696 0Zm0 0" transform="matrix(1 0 0 -1 2.656 32.436)"/></g></svg>