<svg xmlns="http://www.w3.org/2000/svg" xmlns:xlink="http://www.w3.org/1999/xlink" width="217.923" height="250.875" viewBox="0 0 163.442 188.156" version="1.2"><defs><symbol overflow="visible" id="a"><path style="stroke:none" d="M4.5-4.297c0-.047-.031-.094-.094-.094-.11 0-.515.391-.672.688-.218-.547-.609-.703-.937-.703-1.172 0-2.39 1.468-2.39 2.922C.406-.516.983.109 1.718.109c.422 0 .812-.234 1.172-.593-.094.343-.422 1.687-.454 1.78-.078.282-.156.313-.718.329-.125 0-.219 0-.219.203 0 0 0 .11.125.11.313 0 .672-.032 1-.032.328 0 .688.032 1.031.032.047 0 .172 0 .172-.204 0-.109-.094-.109-.265-.109-.47 0-.47-.063-.47-.156 0-.078.016-.14.032-.219ZM1.75-.109c-.61 0-.64-.766-.64-.938 0-.484.28-1.562.452-1.984.313-.735.829-1.156 1.235-1.156.656 0 .797.812.797.875 0 .062-.547 2.25-.578 2.28-.157.282-.72.923-1.266.923Zm0 0"/></symbol><symbol overflow="visible" id="b"><path style="stroke:none" d="M2.938-2.656c-.141-.235-.376-.422-.72-.422-.89 0-1.796.984-1.796 1.984C.422-.406.875.063 1.484.063c.375 0 .704-.204.985-.485.125.422.531.484.719.484.25 0 .421-.14.546-.359.157-.281.25-.672.25-.703 0-.094-.093-.094-.109-.094-.11 0-.11.032-.156.219-.094.344-.219.75-.516.75-.172 0-.234-.156-.234-.344 0-.11.062-.375.11-.547.046-.187.124-.468.155-.625l.141-.53c.047-.188.125-.517.125-.548 0-.156-.125-.219-.234-.219-.125 0-.282.079-.329.282ZM2.5-.875c-.047.203-.203.344-.36.469-.062.062-.343.281-.64.281-.266 0-.516-.188-.516-.672 0-.375.204-1.14.375-1.422.313-.562.672-.656.86-.656.484 0 .625.531.625.61 0 .015-.016.078-.016.093Zm0 0"/></symbol><symbol overflow="visible" id="g"><path style="stroke:none" d="M1.844-4.625c0-.016.031-.11.031-.11 0-.046-.031-.109-.125-.109-.14 0-.719.063-.89.078-.047 0-.157.016-.157.157 0 .093.11.093.188.093.328 0 .328.063.328.11s-.063.328-.11.484l-.156.64C.891-3.031.516-1.515.5-1.421c-.047.172-.047.266-.047.344 0 .703.453 1.14 1.031 1.14.875 0 1.797-.937 1.797-1.968 0-.813-.562-1.172-1.047-1.172-.359 0-.671.203-.875.39Zm-.36 4.5c-.328 0-.53-.297-.53-.719 0-.25.062-.484.265-1.281.031-.125.031-.14.172-.297.265-.297.578-.453.828-.453.265 0 .5.203.5.672 0 .281-.14 1-.36 1.406-.171.344-.515.672-.875.672Zm0 0"/></symbol><symbol overflow="visible" id="h"><path style="stroke:none" d="M3.984-4.625c0-.016.016-.11.016-.11 0-.046-.016-.109-.11-.109-.14 0-.718.063-.89.078-.047 0-.156.016-.156.157 0 .093.11.093.187.093.328 0 .328.063.328.11s0 .093-.015.156l-.406 1.594c-.141-.235-.376-.422-.72-.422-.89 0-1.796.984-1.796 1.984C.422-.406.875.063 1.484.063c.375 0 .704-.204.985-.485.125.422.531.484.719.484.25 0 .421-.14.546-.359.157-.281.25-.672.25-.703 0-.094-.093-.094-.109-.094-.11 0-.11.032-.156.219-.094.344-.219.75-.516.75-.172 0-.234-.156-.234-.344 0-.125.015-.187.047-.281ZM2.5-.875c-.047.203-.203.344-.36.469-.062.062-.343.281-.64.281-.266 0-.516-.188-.516-.672 0-.375.204-1.14.375-1.422.313-.562.672-.656.86-.656.484 0 .625.531.625.61 0 .015-.016.078-.016.093Zm0 0"/></symbol><symbol overflow="visible" id="i"><path style="stroke:none" d="M3.047-2.672c-.25.047-.344.235-.344.39 0 .188.14.266.266.266.156 0 .39-.109.39-.453 0-.469-.53-.61-.906-.61-1.047 0-2.015.97-2.015 1.938 0 .594.406 1.204 1.28 1.204 1.188 0 1.735-.688 1.735-.782 0-.047-.062-.125-.125-.125-.031 0-.047.016-.11.078-.546.641-1.359.641-1.484.641-.5 0-.718-.344-.718-.781 0-.188.093-.953.453-1.438.265-.344.625-.531.984-.531.094 0 .422.016.594.203Zm0 0"/></symbol><symbol overflow="visible" id="k"><path style="stroke:none" d="M1.563-1.594c.187 0 .75-.015 1.125-.14.515-.188.609-.516.609-.72 0-.39-.39-.624-.86-.624-.843 0-1.968.64-1.968 1.844 0 .703.437 1.296 1.25 1.296 1.187 0 1.734-.687 1.734-.78 0-.048-.062-.126-.125-.126-.031 0-.047.016-.11.078-.546.641-1.359.641-1.484.641-.421 0-.703-.281-.703-.844 0-.094 0-.234.094-.625Zm-.391-.187c.297-1.016 1.062-1.094 1.266-1.094.296 0 .562.156.562.422 0 .672-1.188.672-1.484.672Zm0 0"/></symbol><symbol overflow="visible" id="c"><path style="stroke:none" d="M4.14-1.39c0-.438-.202-.782-.546-1.063-.39-.281-.719-.344-1.485-.485-.375-.062-1.015-.171-1.015-.64 0-.625.922-.625 1.11-.625.75 0 1.124.297 1.171.844.016.156.031.203.234.203.235 0 .235-.047.235-.281v-.797c0-.188 0-.282-.172-.282-.047 0-.063 0-.453.188-.266-.125-.61-.188-1-.188-.313 0-1.844 0-1.844 1.313 0 .39.203.656.406.828.39.344.781.406 1.547.547.36.062 1.094.187 1.094.781 0 .75-.906.75-1.125.75C1.234-.297.984-1.03.859-1.453c-.046-.14-.109-.14-.234-.14-.25 0-.25.062-.25.28v1.094c0 .188 0 .281.188.281.062 0 .078 0 .296-.156l.25-.172c.47.329.985.329 1.188.329.312 0 1.844 0 1.844-1.454Zm0 0"/></symbol><symbol overflow="visible" id="d"><path style="stroke:none" d="M3.813-1.234v-.532h-.47v.516c0 .672-.327.906-.609.906-.578 0-.578-.64-.578-.86v-2.75h1.469v-.468H2.156v-1.906h-.469c0 1-.484 1.984-1.484 2.016v.359h.828v2.734c0 1.063.86 1.282 1.578 1.282.75 0 1.204-.579 1.204-1.297Zm0 0"/></symbol><symbol overflow="visible" id="e"><path style="stroke:none" d="M5.516-.234c0-.235-.125-.235-.266-.235-.61-.015-.61-.14-.61-.375v-2.14c0-.891-.702-1.532-2.187-1.532-.562 0-1.781.047-1.781.922 0 .438.344.625.61.625.312 0 .624-.219.624-.625 0-.297-.187-.469-.218-.5a5.28 5.28 0 0 1 .718-.062c.75 0 1.11.422 1.11 1.172v.343c-.72.032-3.25.125-3.25 1.563C.266-.125 1.5.062 2.187.062c.797 0 1.266-.406 1.485-.828 0 .313 0 .766 1.047.766h.468c.204 0 .329 0 .329-.234Zm-2-1.157c0 .97-.922 1.094-1.172 1.094-.516 0-.906-.344-.906-.797 0-1.062 1.578-1.203 2.078-1.234Zm0 0"/></symbol><symbol overflow="visible" id="f"><path style="stroke:none" d="M4.406-3.672c0-.531-.531-.812-1.062-.812-.688 0-1.094.5-1.313 1.125v-1.125l-1.656.078v.468c.61 0 .688 0 .688.391v3.078H.375V0l1.25-.031C2-.031 2.641-.031 3 0v-.469h-.86v-1.75c0-.687.235-1.906 1.235-1.906 0 0-.188.172-.188.453 0 .406.329.61.61.61.297 0 .61-.204.61-.61Zm0 0"/></symbol><symbol overflow="visible" id="l"><path style="stroke:none" d="M4.5-2.547c0-.922-.078-2.703-2.063-2.703C.454-5.25.376-3.453.376-2.547.375-1.657.438.11 2.438.11 4.453.11 4.5-1.656 4.5-2.547ZM3.422-2.64c0 1.829-.11 1.938-.36 2.172-.062.078-.296.25-.624.25a.97.97 0 0 1-.61-.218c-.25-.22-.375-.329-.375-2.204 0-.578 0-1.156.078-1.546.11-.563.61-.72.907-.72.187 0 .796.048.921.798.063.39.063 1.015.063 1.468Zm0 0"/></symbol><symbol overflow="visible" id="m"><path style="stroke:none" d="M2.11-.266c0-.578-.313-1.015-.75-1.015a.623.623 0 0 0-.641.64c0 .329.219.641.64.641.141 0 .297-.031.407-.125-.032.39-.204.922-.75 1.344-.047.047-.094.078-.094.156s.094.172.172.172c.156 0 1.015-.688 1.015-1.813Zm0 0"/></symbol><symbol overflow="visible" id="n"><path style="stroke:none" d="M4.203 0v-.422H3.016v-4.547c0-.281-.047-.281-.36-.281-.484.39-1.125.516-1.75.516H.734v.421h.172c.203 0 .64-.03 1.11-.171v4.062H.812V0c.282-.031 1.344-.031 1.704-.031.359 0 1.39 0 1.687.031Zm0 0"/></symbol><symbol overflow="visible" id="o"><path style="stroke:none" d="M5.438-2.188H5c-.063.547-.219 1.766-1.703 1.766h-.875v-4.625H3.5v-.422c-.297.032-1.266.032-1.61.032-.359 0-1.218 0-1.515-.032v.422h.86v4.625h-.86V0h4.797Zm0 0"/></symbol><symbol overflow="visible" id="p"><path style="stroke:none" d="M7.266-.781c0-.172-.141-.203-.235-.203-.156 0-.203.078-.218.187-.047.5-.36.578-.5.578-.5 0-.563-.515-.657-1.187-.062-.532-.125-1.016-.906-1.297.844-.235 1.313-.719 1.313-1.266 0-.86-.985-1.5-2.516-1.5H.375v.422h.86v4.625h-.86V0c.313-.031 1.078-.031 1.438-.031.343 0 1.109 0 1.421.031v-.422h-.859v-2.14h1.016c.312 0 .578.078.796.296.25.235.25.407.25.938 0 .547 0 .89.5 1.187.36.203.922.25 1.297.25.891 0 1.032-.703 1.032-.89ZM4.796-3.97c0 .469-.046 1.063-1.39 1.063H2.375v-2.14h1.063c1.296 0 1.359.577 1.359 1.077Zm0 0"/></symbol><clipPath id="j"><path d="M71 153h43v34.734H71Zm0 0"/></clipPath></defs><path style="fill:none;stroke-width:.59776;stroke-linecap:butt;stroke-linejoin:miter;stroke:#000;stroke-opacity:1;stroke-miterlimit:10" d="M12.454 0C12.454 6.88 6.88 12.455 0 12.455-6.88 12.454-12.453 6.88-12.453 0c0-6.88 5.575-12.453 12.454-12.453C6.88-12.452 12.454-6.878 12.454 0Zm0 0" transform="matrix(1 0 0 -1 52.39 77.2)"/><use xlink:href="#a" x="47.757" y="78.376" style="fill:#000;fill-opacity:1"/><use xlink:href="#b" x="52.204" y="79.871" style="fill:#000;fill-opacity:1"/><path style="fill:none;stroke-width:.59776;stroke-linecap:butt;stroke-linejoin:miter;stroke:#000;stroke-opacity:1;stroke-miterlimit:10" d="M-26.023 0h9.238" transform="matrix(1 0 0 -1 52.39 77.2)"/><path style="fill-rule:nonzero;fill:#000;fill-opacity:1;stroke-width:.59776;stroke-linecap:butt;stroke-linejoin:round;stroke:#000;stroke-opacity:1;stroke-miterlimit:10" d="M4.829 0 .966 1.459 2.243 0 .966-1.46Zm0 0" transform="matrix(1 0 0 -1 33.515 77.2)"/><g style="fill:#000;fill-opacity:1"><use xlink:href="#c" x=".356" y="80.333"/><use xlink:href="#d" x="4.879" y="80.333"/><use xlink:href="#e" x="9.332" y="80.333"/><use xlink:href="#f" x="14.901" y="80.333"/><use xlink:href="#d" x="19.624" y="80.333"/></g><path style="fill:none;stroke-width:.59776;stroke-linecap:butt;stroke-linejoin:miter;stroke:#000;stroke-opacity:1;stroke-miterlimit:10" d="M52.544 40.087c0 6.879-5.579 12.457-12.457 12.457-6.875 0-12.454-5.578-12.454-12.457 0-6.875 5.579-12.453 12.454-12.453 6.878 0 12.457 5.578 12.457 12.453Zm0 0" transform="matrix(1 0 0 -1 52.39 77.2)"/><use xlink:href="#a" x="88.254" y="38.288" style="fill:#000;fill-opacity:1"/><use xlink:href="#g" x="92.701" y="39.783" style="fill:#000;fill-opacity:1"/><path style="fill:none;stroke-width:.59776;stroke-linecap:butt;stroke-linejoin:miter;stroke:#000;stroke-opacity:1;stroke-miterlimit:10" d="M52.544-40.09c0 6.88-5.579 12.454-12.457 12.454-6.875 0-12.454-5.574-12.454-12.453s5.579-12.453 12.454-12.453c6.878 0 12.457 5.574 12.457 12.453Zm0 0" transform="matrix(1 0 0 -1 52.39 77.2)"/><use xlink:href="#a" x="87.932" y="118.464" style="fill:#000;fill-opacity:1"/><use xlink:href="#h" x="92.379" y="119.959" style="fill:#000;fill-opacity:1"/><path style="fill:none;stroke-width:.59776;stroke-linecap:butt;stroke-linejoin:miter;stroke:#000;stroke-opacity:1;stroke-miterlimit:10" d="M92.63 0c0 6.88-5.575 12.454-12.454 12.454-6.879 0-12.453-5.574-12.453-12.453 0-6.88 5.575-12.453 12.453-12.453 6.88 0 12.454 5.574 12.454 12.453Zm0 0" transform="matrix(1 0 0 -1 52.39 77.2)"/><use xlink:href="#a" x="128.313" y="78.376" style="fill:#000;fill-opacity:1"/><use xlink:href="#i" x="132.761" y="79.871" style="fill:#000;fill-opacity:1"/><g clip-path="url(#j)"><path style="fill:none;stroke-width:.59776;stroke-linecap:butt;stroke-linejoin:miter;stroke:#000;stroke-opacity:1;stroke-miterlimit:10" d="M52.544-96.78c0 6.875-5.579 12.453-12.457 12.453-6.875 0-12.454-5.578-12.454-12.453 0-6.88 5.579-12.457 12.454-12.457 6.878 0 12.457 5.578 12.457 12.457Zm0 0" transform="matrix(1 0 0 -1 52.39 77.2)"/></g><use xlink:href="#a" x="88.116" y="175.157" style="fill:#000;fill-opacity:1"/><use xlink:href="#k" x="92.563" y="176.651" style="fill:#000;fill-opacity:1"/><path style="fill:none;stroke-width:.59776;stroke-linecap:butt;stroke-linejoin:miter;stroke:#000;stroke-opacity:1;stroke-miterlimit:10" d="M9.016 9.016 28.22 28.22" transform="matrix(1 0 0 -1 52.39 77.2)"/><path style="fill-rule:nonzero;fill:#000;fill-opacity:1;stroke-width:.59776;stroke-linecap:butt;stroke-linejoin:round;stroke:#000;stroke-opacity:1;stroke-miterlimit:10" d="M4.83 0 .963 1.46 2.239 0 .963-1.458Zm0 0" transform="scale(1 -1) rotate(45 100.475 70.292)"/><g style="fill:#000;fill-opacity:1"><use xlink:href="#l" x="49.094" y="53.318"/><use xlink:href="#m" x="53.98" y="53.318"/><use xlink:href="#n" x="56.69" y="53.318"/><use xlink:href="#m" x="61.575" y="53.318"/><use xlink:href="#o" x="64.285" y="53.318"/></g><path style="fill:none;stroke-width:.59776;stroke-linecap:butt;stroke-linejoin:miter;stroke:#000;stroke-opacity:1;stroke-miterlimit:10" d="M12.75 0h50.645" transform="matrix(1 0 0 -1 52.39 77.2)"/><path style="fill-rule:nonzero;fill:#000;fill-opacity:1;stroke-width:.59776;stroke-linecap:butt;stroke-linejoin:round;stroke:#000;stroke-opacity:1;stroke-miterlimit:10" d="M4.828 0 .964 1.459 2.242 0 .964-1.46Zm0 0" transform="matrix(1 0 0 -1 113.692 77.2)"/><g style="fill:#000;fill-opacity:1"><use xlink:href="#n" x="81.237" y="73.362"/><use xlink:href="#m" x="86.123" y="73.362"/><use xlink:href="#n" x="88.833" y="73.362"/><use xlink:href="#m" x="93.718" y="73.362"/><use xlink:href="#p" x="96.428" y="73.362"/></g><path style="fill:none;stroke-width:.59776;stroke-linecap:butt;stroke-linejoin:miter;stroke:#000;stroke-opacity:1;stroke-miterlimit:10" d="M36.79 52.407c-4.95 18.465 9.574 19.785 7.414 3.961" transform="matrix(1 0 0 -1 52.39 77.2)"/><path style="fill-rule:nonzero;fill:#000;fill-opacity:1;stroke-width:.59776;stroke-linecap:butt;stroke-linejoin:round;stroke:#000;stroke-opacity:1;stroke-miterlimit:10" d="M4.83.001.963 1.46 2.24-.001.963-1.457Zm0 0" transform="matrix(-.18198 .98325 .98325 .18198 96.956 18.79)"/><g style="fill:#000;fill-opacity:1"><use xlink:href="#n" x="81.954" y="6.04"/><use xlink:href="#m" x="86.84" y="6.04"/><use xlink:href="#n" x="89.55" y="6.04"/><use xlink:href="#m" x="94.435" y="6.04"/><use xlink:href="#o" x="97.145" y="6.04"/></g><path style="fill:none;stroke-width:.59776;stroke-linecap:butt;stroke-linejoin:miter;stroke:#000;stroke-opacity:1;stroke-miterlimit:10" d="M49.106 31.071 68.31 11.868" transform="matrix(1 0 0 -1 52.39 77.2)"/><path style="fill-rule:nonzero;fill:#000;fill-opacity:1;stroke-width:.59776;stroke-linecap:butt;stroke-linejoin:round;stroke:#000;stroke-opacity:1;stroke-miterlimit:10" d="M4.826 0 .964 1.46 2.241 0 .964-1.458Zm0 0" transform="scale(1 -1) rotate(-45 -17.468 -175.84)"/><g style="fill:#000;fill-opacity:1"><use xlink:href="#l" x="114.814" y="53.318"/><use xlink:href="#m" x="119.7" y="53.318"/><use xlink:href="#n" x="122.41" y="53.318"/><use xlink:href="#m" x="127.295" y="53.318"/><use xlink:href="#o" x="130.005" y="53.318"/></g><path style="fill:none;stroke-width:.59776;stroke-linecap:butt;stroke-linejoin:miter;stroke:#000;stroke-opacity:1;stroke-miterlimit:10" d="M71.16-9.019 51.959-28.222" transform="matrix(1 0 0 -1 52.39 77.2)"/><path style="fill-rule:nonzero;fill:#000;fill-opacity:1;stroke-width:.59776;stroke-linecap:butt;stroke-linejoin:round;stroke:#000;stroke-opacity:1;stroke-miterlimit:10" d="M4.829 0 .964 1.46 2.241.002.964-1.457Zm0 0" transform="scale(-1 1) rotate(45 -178.383 -75.772)"/><g style="fill:#000;fill-opacity:1"><use xlink:href="#l" x="114.814" y="105.003"/><use xlink:href="#m" x="119.7" y="105.003"/><use xlink:href="#n" x="122.41" y="105.003"/><use xlink:href="#m" x="127.295" y="105.003"/><use xlink:href="#o" x="130.005" y="105.003"/></g><path style="fill:none;stroke-width:.59776;stroke-linecap:butt;stroke-linejoin:miter;stroke:#000;stroke-opacity:1;stroke-miterlimit:10" d="M85.055-11.78c12.45-30.051-.742-64.297-29.511-78.461" transform="matrix(1 0 0 -1 52.39 77.2)"/><path style="fill-rule:nonzero;fill:#000;fill-opacity:1;stroke-width:.59776;stroke-linecap:butt;stroke-linejoin:round;stroke:#000;stroke-opacity:1;stroke-miterlimit:10" d="M4.826-.001.964 1.458 2.24-.002.965-1.459Zm0 0" transform="matrix(-.90686 .42137 .42137 .90686 109.826 166.553)"/><g style="fill:#000;fill-opacity:1"><use xlink:href="#n" x="139.744" y="143.676"/><use xlink:href="#m" x="144.63" y="143.676"/><use xlink:href="#l" x="147.34" y="143.676"/><use xlink:href="#m" x="152.225" y="143.676"/><use xlink:href="#p" x="154.935" y="143.676"/></g><path style="fill:none;stroke-width:.59776;stroke-linecap:butt;stroke-linejoin:miter;stroke:#000;stroke-opacity:1;stroke-miterlimit:10" d="M43.387-52.405c4.95-18.47-9.574-19.79-7.414-3.961" transform="matrix(1 0 0 -1 52.39 77.2)"/><path style="fill-rule:nonzero;fill:#000;fill-opacity:1;stroke-width:.59776;stroke-linecap:butt;stroke-linejoin:round;stroke:#000;stroke-opacity:1;stroke-miterlimit:10" d="M4.827 0 .966 1.46 2.24-.002.965-1.457Zm0 0" transform="scale(.99995 -.99995) rotate(79.514 125.513 -14.914)"/><g style="fill:#000;fill-opacity:1"><use xlink:href="#n" x="81.236" y="152.281"/><use xlink:href="#m" x="86.122" y="152.281"/><use xlink:href="#n" x="88.832" y="152.281"/><use xlink:href="#m" x="93.717" y="152.281"/><use xlink:href="#p" x="96.427" y="152.281"/></g><path style="fill:none;stroke-width:.59776;stroke-linecap:butt;stroke-linejoin:miter;stroke:#000;stroke-opacity:1;stroke-miterlimit:10" d="M31.07-31.07 11.869-11.866" transform="matrix(1 0 0 -1 52.39 77.2)"/><path style="fill-rule:nonzero;fill:#000;fill-opacity:1;stroke-width:.59776;stroke-linecap:butt;stroke-linejoin:round;stroke:#000;stroke-opacity:1;stroke-miterlimit:10" d="M4.827-.001.965 1.457 2.242 0 .965-1.459Zm0 0" transform="scale(-1 1) rotate(-45 76.432 124.626)"/><g style="fill:#000;fill-opacity:1"><use xlink:href="#l" x="47.659" y="105.003"/><use xlink:href="#m" x="52.545" y="105.003"/><use xlink:href="#n" x="55.255" y="105.003"/><use xlink:href="#m" x="60.14" y="105.003"/><use xlink:href="#p" x="62.85" y="105.003"/></g><path style="fill:none;stroke-width:.59776;stroke-linecap:butt;stroke-linejoin:miter;stroke:#000;stroke-opacity:1;stroke-miterlimit:10" d="M28.31-91.902C-1.743-79.456-16.633-45.909-6.3-15.554" transform="matrix(1 0 0 -1 52.39 77.2)"/><path style="fill-rule:nonzero;fill:#000;fill-opacity:1;stroke-width:.59776;stroke-linecap:butt;stroke-linejoin:round;stroke:#000;stroke-opacity:1;stroke-miterlimit:10" d="M4.826-.002.966 1.457 2.242.002.967-1.458Zm0 0" transform="scale(.99998 -.99998) rotate(69.923 90.424 -14.912)"/><g style="fill:#000;fill-opacity:1"><use xlink:href="#n" x="22.729" y="143.676"/><use xlink:href="#m" x="27.615" y="143.676"/><use xlink:href="#l" x="30.325" y="143.676"/><use xlink:href="#m" x="35.21" y="143.676"/><use xlink:href="#p" x="37.92" y="143.676"/></g></svg>