<svg xmlns="http://www.w3.org/2000/svg" width="29.268" height="9.267" viewBox="0 0 21.951 6.95" version="1.2"><defs><clipPath id="a"><path d="M0 0h21.926v6.926H0Zm0 0"/></clipPath><clipPath id="b"><path d="M4 0h17.926v6.926H4Zm0 0"/></clipPath></defs><path style="fill:none;stroke-width:.79701;stroke-linecap:butt;stroke-linejoin:miter;stroke:#000;stroke-opacity:1;stroke-miterlimit:10" d="M0 2.21h17.46" transform="matrix(1 0 0 -1 .985 5.667)"/><g clip-path="url(#a)"><path style="fill:none;stroke-width:.79701;stroke-linecap:butt;stroke-linejoin:miter;stroke:#000;stroke-opacity:1;stroke-miterlimit:10" d="M2.185 2.186 0-.002m-2.183 2.188L0-.002m-2.183-2.183L0-.002m2.184-2.183L0-.002" transform="matrix(1 0 0 -1 12.397 3.455)"/></g><g clip-path="url(#b)"><path style="fill:none;stroke-width:.79701;stroke-linecap:butt;stroke-linejoin:miter;stroke:#000;stroke-opacity:1;stroke-miterlimit:10" d="M2.185 2.186 0-.002m-2.184 2.188L.001-.002m-2.184-2.183L.001-.002m2.184-2.183L0-.002" transform="matrix(1 0 0 -1 18.444 3.455)"/></g></svg>