<svg xmlns="http://www.w3.org/2000/svg" xmlns:xlink="http://www.w3.org/1999/xlink" width="195.363" height="14.067" viewBox="0 0 146.522 10.55" version="1.2"><defs><symbol overflow="visible" id="a"><path style="stroke:none" d="M4.578-3.188c0-.796-.047-1.593-.39-2.328C3.733-6.484 2.905-6.64 2.5-6.64c-.61 0-1.328.266-1.75 1.188-.313.687-.36 1.469-.36 2.266 0 .75.032 1.64.454 2.406a1.83 1.83 0 0 0 1.64 1c.532 0 1.297-.203 1.735-1.157.312-.687.36-1.468.36-2.25ZM2.484 0c-.39 0-.984-.25-1.156-1.203-.11-.594-.11-1.516-.11-2.11 0-.64 0-1.296.079-1.828.187-1.187.937-1.28 1.187-1.28.329 0 .985.187 1.172 1.171.11.563.11 1.313.11 1.938 0 .75 0 1.421-.11 2.062C3.5-.297 2.937 0 2.484 0Zm0 0"/></symbol><symbol overflow="visible" id="e"><path style="stroke:none" d="M4.469-2c0-1.188-.813-2.188-1.89-2.188-.47 0-.907.157-1.267.516v-1.953c.204.063.532.125.844.125 1.235 0 1.938-.906 1.938-1.031 0-.063-.032-.11-.11-.11 0 0-.03 0-.078.032a3.22 3.22 0 0 1-1.36.296c-.39 0-.858-.078-1.327-.28-.078-.032-.094-.032-.11-.032C1-6.625 1-6.547 1-6.391v2.954c0 .171 0 .25.14.25.079 0 .094-.016.141-.079.11-.156.469-.703 1.282-.703.515 0 .765.453.843.64.156.376.188.75.188 1.25 0 .36 0 .954-.25 1.376-.235.39-.61.64-1.063.64-.719 0-1.297-.53-1.469-1.109.032 0 .063.016.172.016.329 0 .5-.25.5-.485 0-.25-.171-.5-.5-.5-.14 0-.484.079-.484.532C.5-.75 1.188.219 2.297.219 3.453.219 4.469-.734 4.469-2Zm0 0"/></symbol><symbol overflow="visible" id="f"><path style="stroke:none" d="M2.938-6.375c0-.25 0-.266-.235-.266C2.078-6 1.203-6 .891-6v.313c.203 0 .78 0 1.296-.266v5.172c0 .36-.03.469-.921.469H.953V0c.344-.031 1.203-.031 1.61-.031.39 0 1.265 0 1.609.031v-.313h-.313c-.906 0-.921-.109-.921-.468Zm0 0"/></symbol><symbol overflow="visible" id="g"><path style="stroke:none" d="m1.266-.766 1.062-1.03c1.547-1.376 2.14-1.907 2.14-2.907 0-1.14-.89-1.938-2.109-1.938C1.234-6.64.5-5.719.5-4.828c0 .547.5.547.531.547.172 0 .516-.11.516-.532a.513.513 0 0 0-.531-.515c-.079 0-.094 0-.125.016.218-.657.765-1.016 1.343-1.016.907 0 1.329.812 1.329 1.625 0 .797-.485 1.578-1.047 2.203L.609-.375C.5-.265.5-.235.5 0h3.703l.266-1.734h-.235C4.172-1.438 4.11-1 4-.844c-.063.078-.719.078-.938.078Zm0 0"/></symbol><symbol overflow="visible" id="h"><path style="stroke:none" d="M2.89-3.516c.813-.265 1.391-.953 1.391-1.75 0-.812-.875-1.375-1.828-1.375-1 0-1.765.594-1.765 1.36 0 .328.218.515.515.515.297 0 .5-.218.5-.515 0-.485-.469-.485-.61-.485.298-.5.954-.625 1.313-.625.422 0 .969.22.969 1.11 0 .125-.031.703-.281 1.14-.297.485-.64.516-.89.516a3.29 3.29 0 0 1-.392.031c-.078.016-.14.031-.14.125 0 .11.062.11.234.11h.438c.812 0 1.187.671 1.187 1.656 0 1.36-.687 1.64-1.125 1.64-.437 0-1.187-.171-1.531-.75.344.047.656-.171.656-.546a.537.537 0 0 0-.547-.563c-.25 0-.562.14-.562.578C.422-.437 1.344.22 2.437.22c1.22 0 2.126-.906 2.126-1.922 0-.813-.641-1.594-1.672-1.813Zm0 0"/></symbol><symbol overflow="visible" id="b"><path style="stroke:none" d="M2.64-3.719h1.126c-.329 1.469-.422 1.906-.422 2.578 0 .141 0 .407.078.75.11.438.219.5.36.5.202 0 .421-.171.421-.375 0-.062 0-.078-.062-.218-.297-.72-.297-1.375-.297-1.657 0-.515.078-1.062.187-1.578h1.125c.14 0 .5 0 .5-.344 0-.234-.218-.234-.406-.234H1.906c-.218 0-.593 0-1.031.469-.344.39-.61.844-.61.89 0 .016 0 .11.126.11.078 0 .093-.047.156-.125.484-.766 1.062-.766 1.265-.766h.563c-.313 1.203-.844 2.406-1.266 3.313-.078.156-.078.172-.078.25 0 .187.157.265.282.265.296 0 .375-.28.5-.64.14-.469.14-.485.265-.985Zm0 0"/></symbol><symbol overflow="visible" id="d"><path style="stroke:none" d="M1.906-.531a.534.534 0 0 0-.515-.531.537.537 0 0 0-.532.53.524.524 0 1 0 1.047 0Zm0 0"/></symbol><symbol overflow="visible" id="c"><path style="stroke:none" d="M2.5-.313c0-.671-.344-1.25-.922-1.25-.469 0-.766.36-.766.782 0 .406.266.781.766.781a.842.842 0 0 0 .563-.203C2.047.89 1.406 1.422 1.203 1.594c-.062.047-.094.078-.094.14 0 .094.11.204.188.204.156 0 1.203-.86 1.203-2.25Zm0 0"/></symbol></defs><use xlink:href="#a" x=".473" y="7.407" style="fill:#000;fill-opacity:1"/><use xlink:href="#b" x="5.454" y="7.407" style="fill:#000;fill-opacity:1"/><use xlink:href="#c" x="11.491" y="7.407" style="fill:#000;fill-opacity:1"/><use xlink:href="#a" x="18.485" y="7.407" style="fill:#000;fill-opacity:1"/><use xlink:href="#d" x="23.466" y="7.407" style="fill:#000;fill-opacity:1"/><use xlink:href="#e" x="26.233" y="7.407" style="fill:#000;fill-opacity:1"/><use xlink:href="#b" x="31.215" y="7.407" style="fill:#000;fill-opacity:1"/><use xlink:href="#c" x="37.251" y="7.407" style="fill:#000;fill-opacity:1"/><use xlink:href="#f" x="44.245" y="7.407" style="fill:#000;fill-opacity:1"/><use xlink:href="#b" x="49.226" y="7.407" style="fill:#000;fill-opacity:1"/><use xlink:href="#c" x="55.263" y="7.407" style="fill:#000;fill-opacity:1"/><use xlink:href="#f" x="62.256" y="7.407" style="fill:#000;fill-opacity:1"/><use xlink:href="#d" x="67.238" y="7.407" style="fill:#000;fill-opacity:1"/><use xlink:href="#e" x="70.005" y="7.407" style="fill:#000;fill-opacity:1"/><use xlink:href="#b" x="74.986" y="7.407" style="fill:#000;fill-opacity:1"/><use xlink:href="#c" x="81.023" y="7.407" style="fill:#000;fill-opacity:1"/><use xlink:href="#g" x="88.017" y="7.407" style="fill:#000;fill-opacity:1"/><use xlink:href="#b" x="92.998" y="7.407" style="fill:#000;fill-opacity:1"/><use xlink:href="#c" x="99.034" y="7.407" style="fill:#000;fill-opacity:1"/><use xlink:href="#g" x="106.028" y="7.407" style="fill:#000;fill-opacity:1"/><use xlink:href="#d" x="111.009" y="7.407" style="fill:#000;fill-opacity:1"/><use xlink:href="#e" x="113.777" y="7.407" style="fill:#000;fill-opacity:1"/><use xlink:href="#b" x="118.758" y="7.407" style="fill:#000;fill-opacity:1"/><use xlink:href="#c" x="124.795" y="7.407" style="fill:#000;fill-opacity:1"/><use xlink:href="#h" x="131.788" y="7.407" style="fill:#000;fill-opacity:1"/><use xlink:href="#b" x="136.77" y="7.407" style="fill:#000;fill-opacity:1"/><use xlink:href="#c" x="142.806" y="7.407" style="fill:#000;fill-opacity:1"/></svg>