<svg xmlns="http://www.w3.org/2000/svg" width="116.451" height="78.723" viewBox="0 0 87.338 59.042" version="1.2"><defs><clipPath id="a"><path d="M0 0h87.008v58.563H0Zm0 0"/></clipPath></defs><path style="fill:none;stroke-width:.3985;stroke-linecap:butt;stroke-linejoin:miter;stroke:#000;stroke-opacity:1;stroke-miterlimit:10" d="M17.923 10.84h6.64v6.645h-6.64ZM68.427 42.489a4.695 4.695 0 0 1-4.696 4.695 4.698 4.698 0 0 1 0-9.395 4.698 4.698 0 0 1 4.696 4.7Zm0 0" transform="matrix(1 0 0 -1 .796 57.395)"/><g clip-path="url(#a)"><path style="fill:none;stroke-width:.3985;stroke-linecap:butt;stroke-linejoin:miter;stroke:#000;stroke-opacity:1;stroke-miterlimit:10" d="m0 0 17.724 11.817m7.039 4.691 34.894 23.266m8.149 5.43L85.04 56.692" transform="matrix(1 0 0 -1 .796 57.395)"/></g></svg>