<svg xmlns="http://www.w3.org/2000/svg" width="116.077" height="60.987" viewBox="0 0 87.058 45.74" version="1.2"><defs><clipPath id="a"><path d="M0 0h86.586v3H0Zm0 0"/></clipPath><clipPath id="b"><path d="M0 15h86.586v2H0Zm0 0"/></clipPath><clipPath id="c"><path d="M0 29h86.586v2H0Zm0 0"/></clipPath><clipPath id="d"><path d="M0 43h86.586v2H0Zm0 0"/></clipPath></defs><g clip-path="url(#a)"><path style="fill:none;stroke-width:1.19553;stroke-linecap:butt;stroke-linejoin:miter;stroke:#000;stroke-opacity:1;stroke-miterlimit:10" d="M.001.002h28.344m28.344 0H85.04" transform="matrix(1 0 0 -1 .538 1.486)"/></g><g clip-path="url(#b)"><path style="fill:none;stroke-width:1.19553;stroke-linecap:butt;stroke-linejoin:miter;stroke:#000;stroke-opacity:1;stroke-miterlimit:10" d="M.001-14.174h9.445m9.45 0h9.449m28.344 0h9.449m9.449 0h9.453" transform="matrix(1 0 0 -1 .538 1.486)"/></g><g clip-path="url(#c)"><path style="fill:none;stroke-width:1.19553;stroke-linecap:butt;stroke-linejoin:miter;stroke:#000;stroke-opacity:1;stroke-miterlimit:10" d="M.001-28.346H3.15m3.149 0h3.148m9.45 0h3.148m3.148 0h3.153m28.344 0h3.148m3.148 0h3.153m9.449 0h3.152m3.149 0h3.152" transform="matrix(1 0 0 -1 .538 1.486)"/></g><g clip-path="url(#d)"><path style="fill:none;stroke-width:1.19553;stroke-linecap:butt;stroke-linejoin:miter;stroke:#000;stroke-opacity:1;stroke-miterlimit:10" d="M.001-42.522h1.047m1.05 0H3.15m3.148 0h1.05m1.048 0h1.05m9.45 0h1.046m1.051 0h1.051m3.148 0h1.051m1.051 0h1.05m28.345 0h1.046m1.051 0h1.051m3.148 0h1.051m1.051 0h1.05m9.45 0h1.05m1.052 0h1.05m3.149 0h1.05m1.051 0h1.051" transform="matrix(1 0 0 -1 .538 1.486)"/></g></svg>