<svg xmlns="http://www.w3.org/2000/svg" width="97.923" height="20.091" viewBox="0 0 73.442 15.068" version="1.2"><defs><clipPath id="a"><path d="M0 0h24v14.602H0Zm0 0"/></clipPath><clipPath id="b"><path d="M16 0h57.164v14.602H16Zm0 0"/></clipPath><clipPath id="c"><path d="M20 0h40v14.602H20Zm0 0"/></clipPath><clipPath id="d"><path d="M13 0h40v14.602H13Zm0 0"/></clipPath></defs><g clip-path="url(#a)"><path style="fill:none;stroke-width:.3985;stroke-linecap:butt;stroke-linejoin:miter;stroke:#000;stroke-opacity:1;stroke-miterlimit:10" d="M0 .002c0 5.5 4.46 9.96 9.964 9.96a9.95 9.95 0 0 0 6.711-2.601" transform="matrix(1 0 0 -1 .938 12.861)"/></g><path style="fill-rule:nonzero;fill:#000;fill-opacity:1;stroke-width:.3985;stroke-linecap:butt;stroke-linejoin:miter;stroke:#000;stroke-opacity:1;stroke-miterlimit:10" d="M4.214-.002.643 1.346 1.818 0 .642-1.344Zm0 0" transform="matrix(.63327 .77385 .77385 -.63327 16.5 4.179)"/><g clip-path="url(#b)"><path style="fill:none;stroke-width:1.19553;stroke-linecap:butt;stroke-linejoin:miter;stroke:#000;stroke-opacity:1;stroke-miterlimit:10" d="m32.566 2.966 9.953 6.997L56.695.002l14.172 9.96" transform="matrix(1 0 0 -1 .938 12.861)"/></g><path style="stroke:none;fill-rule:nonzero;fill:#000;fill-opacity:1" d="m37.523 7.07 4.907-1.254-2.325-.562.262-2.375Zm0 0"/><g clip-path="url(#c)"><path style="fill:none;stroke-width:1.19553;stroke-linecap:butt;stroke-linejoin:miter;stroke:#000;stroke-opacity:1;stroke-miterlimit:10" d="M6.667 0 1.932 1.796 3.51 0 1.93-1.793Zm0 0" transform="matrix(-.81807 .57504 .57504 .81807 42.977 3.236)"/></g><path style="stroke:none;fill-rule:nonzero;fill:#000;fill-opacity:1" d="m30.676 11.883 4.91-1.254-2.328-.563.262-2.375Zm0 0"/><g clip-path="url(#d)"><path style="fill:none;stroke-width:1.19553;stroke-linecap:butt;stroke-linejoin:miter;stroke:#000;stroke-opacity:1;stroke-miterlimit:10" d="M6.668 0 1.93 1.798l1.581-1.8-1.58-1.792Zm0 0" transform="matrix(-.81807 .57504 .57504 .81807 36.131 8.049)"/></g></svg>