<svg xmlns="http://www.w3.org/2000/svg" xmlns:xlink="http://www.w3.org/1999/xlink" width="168.299" height="31.107" viewBox="0 0 126.224 23.33" version="1.2"><defs><clipPath id="a"><path d="M0 6h16v16.996H0Zm0 0"/></clipPath><clipPath id="c"><path d="M33 6h21v16.996H33Zm0 0"/></clipPath><clipPath id="d"><path d="M71 6h22v16.996H71Zm0 0"/></clipPath><clipPath id="e"><path d="M109 6h16.836v16.996H109Zm0 0"/></clipPath><symbol overflow="visible" id="b"><path style="stroke:none" d="M3.89-3.734c-.265.015-.468.234-.468.453 0 .14.094.297.312.297.22 0 .454-.172.454-.563 0-.453-.422-.86-1.188-.86-1.313 0-1.688 1.016-1.688 1.454 0 .781.735.922 1.032.984.515.11 1.031.219 1.031.766 0 .25-.219 1.094-1.422 1.094-.14 0-.906 0-1.14-.532.39.047.64-.25.64-.53 0-.22-.172-.345-.375-.345-.266 0-.562.204-.562.657 0 .562.578.968 1.421.968 1.625 0 2.016-1.203 2.016-1.656a.97.97 0 0 0-.312-.719c-.266-.28-.563-.343-1-.421-.36-.079-.75-.157-.75-.61 0-.281.234-.89 1.109-.89.25 0 .75.078.89.453Zm0 0"/></symbol><symbol overflow="visible" id="f"><path style="stroke:none" d="M2.047-3.984h.937c.204 0 .313 0 .313-.204 0-.109-.11-.109-.281-.109H2.14c.359-1.422.406-1.61.406-1.672 0-.172-.125-.265-.297-.265-.031 0-.313 0-.39.359l-.391 1.578H.53c-.203 0-.297 0-.297.188 0 .125.078.125.282.125h.875C.67-1.156.625-.984.625-.813c0 .547.375.922.922.922 1.016 0 1.578-1.453 1.578-1.53 0-.11-.078-.11-.11-.11-.093 0-.109.031-.156.14C2.438-.344 1.906-.109 1.563-.109c-.204 0-.313-.125-.313-.454 0-.25.031-.312.063-.484Zm0 0"/></symbol></defs><g clip-path="url(#a)"><path style="fill:none;stroke-width:.3985;stroke-linecap:butt;stroke-linejoin:miter;stroke:#000;stroke-opacity:1;stroke-miterlimit:10" d="M4.695 0A4.695 4.695 0 0 1 0 4.695 4.695 4.695 0 0 1-4.696 0 4.695 4.695 0 0 1 0-4.695 4.695 4.695 0 0 1 4.695 0Zm0 0" transform="matrix(1 0 0 -1 5.516 17.082)"/></g><use xlink:href="#b" x="3.181" y="6.263" style="fill:#000;fill-opacity:1"/><g clip-path="url(#c)"><path style="fill:none;stroke-width:.3985;stroke-linecap:butt;stroke-linejoin:miter;stroke:#000;stroke-opacity:1;stroke-miterlimit:10" d="M42.836 0a4.698 4.698 0 0 1-9.395 0 4.698 4.698 0 0 1 9.395 0Zm0 0" transform="matrix(1 0 0 -1 5.516 17.082)"/></g><path style="fill:none;stroke-width:.3985;stroke-linecap:butt;stroke-linejoin:miter;stroke:#000;stroke-opacity:1;stroke-miterlimit:10" d="M33.242 0H4.894" transform="matrix(1 0 0 -1 5.516 17.082)"/><g clip-path="url(#d)"><path style="fill:none;stroke-width:.3985;stroke-linecap:butt;stroke-linejoin:miter;stroke:#000;stroke-opacity:1;stroke-miterlimit:10" d="M80.972 0a4.698 4.698 0 0 1-9.395 0 4.698 4.698 0 0 1 9.395 0Zm0 0" transform="matrix(1 0 0 -1 5.516 17.082)"/></g><path style="fill:none;stroke-width:.3985;stroke-linecap:butt;stroke-linejoin:miter;stroke:#000;stroke-opacity:1;stroke-miterlimit:10" d="M71.379 0H43.035" transform="matrix(1 0 0 -1 5.516 17.082)"/><g clip-path="url(#e)"><path style="fill:none;stroke-width:.3985;stroke-linecap:butt;stroke-linejoin:miter;stroke:#000;stroke-opacity:1;stroke-miterlimit:10" d="M119.109 0a4.695 4.695 0 0 1-4.695 4.695A4.695 4.695 0 0 1 109.718 0a4.695 4.695 0 0 1 4.696-4.695A4.695 4.695 0 0 1 119.109 0Zm0 0" transform="matrix(1 0 0 -1 5.516 17.082)"/></g><use xlink:href="#f" x="118.13" y="6.879" style="fill:#000;fill-opacity:1"/><path style="fill:none;stroke-width:.3985;stroke-linecap:butt;stroke-linejoin:miter;stroke:#000;stroke-opacity:1;stroke-miterlimit:10" d="M109.52 0H81.17" transform="matrix(1 0 0 -1 5.516 17.082)"/></svg>