<svg xmlns="http://www.w3.org/2000/svg" width="42.536" height="13.011" viewBox="0 0 31.902 9.758" version="1.2"><defs><clipPath id="a"><path d="M0 0h31.852v9.637H0Zm0 0"/></clipPath><clipPath id="b"><path d="M1 0h30.852v9.637H1Zm0 0"/></clipPath></defs><path style="fill:none;stroke-width:1.59404;stroke-linecap:butt;stroke-linejoin:miter;stroke:#000;stroke-opacity:1;stroke-miterlimit:10" d="M0 2.213h16.911" transform="matrix(1 0 0 -1 .96 6.975)"/><g clip-path="url(#a)"><path style="fill:none;stroke-width:1.59404;stroke-linecap:butt;stroke-linejoin:miter;stroke:#000;stroke-opacity:1;stroke-miterlimit:10" d="M3.31 3.31.002.002M-3.311 3.31.002.002m-3.313-3.313L.002.002M3.31-3.311.002.002" transform="matrix(1 0 0 -1 17.87 4.763)"/></g><g clip-path="url(#b)"><path style="fill:none;stroke-width:1.59404;stroke-linecap:butt;stroke-linejoin:miter;stroke:#000;stroke-opacity:1;stroke-miterlimit:10" d="M3.311 3.31 0 .002M-3.31 3.31 0 .002M-3.31-3.311 0 .002m3.312-3.313L0 .002" transform="matrix(1 0 0 -1 26.974 4.763)"/></g></svg>