<svg xmlns="http://www.w3.org/2000/svg" xmlns:xlink="http://www.w3.org/1999/xlink" width="354.699" height="348.771" viewBox="0 0 266.024 261.578" version="1.2"><defs><symbol overflow="visible" id="d"><path style="stroke:none" d="M1.031 21.703c.328-.015.5-.234.5-.484a.48.48 0 0 0-.484-.5.47.47 0 0 0-.484.5c0 .515.5.937 1.109.937 1.516 0 2.078-2.343 2.781-5.234A130.35 130.35 0 0 0 6.406 7.39C6.781 5.28 7.141 3.28 7.484 2c.125-.5.454-1.781.844-1.781a.98.98 0 0 1 .61.234c-.329.016-.5.234-.5.484 0 .329.25.485.468.485.25 0 .5-.14.5-.5C9.406.39 8.86 0 8.312 0 7.563 0 7 1.094 6.454 3.125c-.031.11-1.39 5.11-2.484 11.625-.266 1.531-.547 3.188-.875 4.578-.188.735-.64 2.61-1.453 2.61-.36 0-.594-.235-.61-.235Zm0 0"/></symbol><symbol overflow="visible" id="e"><path style="stroke:none" d="M1.906-2.328c.547 0 .938.375.938 1.125 0 .86-.516 1.125-.906 1.125-.282 0-.907-.078-1.188-.5.328 0 .406-.235.406-.39 0-.22-.172-.376-.39-.376a.38.38 0 0 0-.391.407C.375-.281 1.094.14 1.938.14c.968 0 1.64-.657 1.64-1.344 0-.547-.437-1.094-1.203-1.25.719-.266.984-.781.984-1.219 0-.547-.625-.953-1.406-.953-.766 0-1.36.375-1.36.938 0 .234.157.359.36.359.219 0 .36-.156.36-.344 0-.203-.141-.36-.36-.375.25-.297.719-.375.985-.375.312 0 .75.156.75.75 0 .297-.094.625-.282.828-.219.266-.422.281-.765.313-.172.015-.188.015-.22.015-.015 0-.077.016-.077.094 0 .094.062.094.187.094Zm0 0"/></symbol><symbol overflow="visible" id="g"><path style="stroke:none" d="M3.516-1.266H3.28c-.015.157-.094.563-.187.625-.047.047-.578.047-.688.047H1.125c.734-.64.984-.844 1.39-1.172.516-.406 1-.843 1-1.5 0-.843-.734-1.359-1.624-1.359-.86 0-1.454.61-1.454 1.25 0 .344.297.39.376.39.156 0 .359-.124.359-.374 0-.125-.047-.375-.406-.375.218-.485.687-.641 1.015-.641.703 0 1.063.547 1.063 1.11 0 .609-.438 1.078-.656 1.328L.516-.266C.437-.203.437-.187.437 0h2.876Zm0 0"/></symbol><symbol overflow="visible" id="h"><path style="stroke:none" d="M3.594-2.219c0-.765-.094-1.328-.406-1.812-.22-.313-.657-.594-1.204-.594C.36-4.625.36-2.719.36-2.219c0 .5 0 2.36 1.625 2.36 1.61 0 1.61-1.86 1.61-2.36ZM1.984-.063c-.328 0-.75-.187-.89-.75C1-1.219 1-1.796 1-2.313c0-.515 0-1.046.094-1.421.156-.547.593-.704.89-.704.375 0 .735.235.86.641.11.375.125.875.125 1.485 0 .515 0 1.03-.094 1.468-.14.64-.61.781-.89.781Zm0 0"/></symbol><symbol overflow="visible" id="o"><path style="stroke:none" d="M2.328-4.438c0-.187 0-.187-.203-.187-.453.438-1.078.438-1.36.438v.25c.157 0 .626 0 1-.188v3.547c0 .234 0 .328-.687.328H.812V0c.125 0 .985-.031 1.235-.031.219 0 1.094.031 1.25.031v-.25H3.03c-.703 0-.703-.094-.703-.328Zm0 0"/></symbol><symbol overflow="visible" id="r"><path style="stroke:none" d="M3.688-1.14v-.25h-.782V-4.5c0-.14 0-.203-.14-.203-.094 0-.125 0-.188.11L.266-1.392v.25h2.062v.563c0 .25 0 .328-.578.328h-.188V0c.36-.016.797-.031 1.047-.031.266 0 .704.015 1.063.031v-.25h-.188c-.578 0-.578-.078-.578-.328v-.563ZM2.375-3.939v2.547H.531Zm0 0"/></symbol><symbol overflow="visible" id="f"><path style="stroke:none" d="M3.484-4.922c.047-.094.047-.11.047-.125a.173.173 0 0 0-.172-.172c-.109 0-.14.078-.187.172L.578 1.437c-.047.094-.047.11-.047.125 0 .11.094.172.172.172.125 0 .156-.078.188-.171Zm0 0"/></symbol><symbol overflow="visible" id="i"><path style="stroke:none" d="M3.328-3.016c.063-.25.297-1.171.985-1.171.046 0 .296 0 .5.125a.578.578 0 0 0-.47.546c0 .157.11.344.376.344a.546.546 0 0 0 .531-.578c0-.516-.578-.656-.922-.656-.578 0-.922.531-1.047.75-.25-.656-.781-.75-1.078-.75-1.031 0-1.61 1.281-1.61 1.531 0 .11.11.11.126.11.078 0 .11-.032.125-.11.344-1.063 1-1.313 1.344-1.313.187 0 .53.094.53.672 0 .313-.171.97-.53 2.375-.157.61-.516 1.032-.954 1.032-.062 0-.28 0-.5-.125.25-.063.47-.266.47-.547 0-.266-.22-.344-.36-.344-.313 0-.547.25-.547.578 0 .453.484.656.922.656.672 0 1.031-.703 1.047-.75.125.36.484.75 1.078.75 1.031 0 1.594-1.28 1.594-1.53 0-.11-.079-.11-.11-.11-.094 0-.11.047-.14.11-.329 1.077-1 1.312-1.313 1.312-.39 0-.547-.313-.547-.657 0-.218.047-.437.156-.875Zm0 0"/></symbol><symbol overflow="visible" id="k"><path style="stroke:none" d="M3.656-3.984h.86c.203 0 .296 0 .296-.204 0-.109-.093-.109-.265-.109h-.828l.203-1.14c.047-.204.187-.907.25-1.032.078-.187.25-.343.469-.343.03 0 .296 0 .484.187a.557.557 0 0 0-.547.531c0 .235.188.36.375.36.266 0 .547-.235.547-.61 0-.453-.453-.687-.86-.687-.343 0-.968.187-1.265 1.172-.063.203-.094.312-.328 1.562h-.688c-.203 0-.312 0-.312.188 0 .125.094.125.281.125h.656L2.25-.047c-.188.969-.36 1.875-.875 1.875-.047 0-.281 0-.484-.187.468-.032.562-.391.562-.532 0-.234-.187-.359-.375-.359-.266 0-.547.234-.547.61 0 .437.438.687.844.687.547 0 .953-.594 1.125-.969.328-.625.547-1.828.563-1.906Zm0 0"/></symbol><symbol overflow="visible" id="j"><path style="stroke:none" d="M3.781-.547V.11L5.25 0v-.313c-.688 0-.781-.062-.781-.562v-6.047l-1.422.11v.312c.687 0 .765.063.765.563v2.156a1.582 1.582 0 0 0-1.25-.625c-1.171 0-2.218.984-2.218 2.265 0 1.266.969 2.25 2.11 2.25.64 0 1.077-.343 1.327-.656Zm0-2.672v2.047c0 .172 0 .188-.11.36-.296.484-.733.703-1.171.703-.453 0-.813-.266-1.047-.641-.25-.406-.281-.969-.281-1.39 0-.36.016-.954.297-1.407.218-.312.593-.64 1.14-.64.344 0 .766.156 1.063.593.11.172.11.188.11.375Zm0 0"/></symbol><symbol overflow="visible" id="l"><path style="stroke:none" d="M3.297 2.39c0-.03 0-.046-.172-.218C1.891.922 1.562-.968 1.562-2.5c0-1.734.375-3.469 1.61-4.703.125-.125.125-.14.125-.172 0-.078-.031-.11-.094-.11-.11 0-1 .688-1.594 1.954C1.11-4.438.984-3.328.984-2.5c0 .781.11 1.984.657 3.125C2.25 1.844 3.094 2.5 3.203 2.5c.063 0 .094-.031.094-.11Zm0 0"/></symbol><symbol overflow="visible" id="m"><path style="stroke:none" d="M2.875-2.5c0-.766-.11-1.969-.656-3.11C1.625-6.827.766-7.483.672-7.483a.107.107 0 0 0-.11.109c0 .031 0 .047.188.234.984.985 1.547 2.563 1.547 4.641 0 1.719-.36 3.469-1.594 4.719-.14.125-.14.14-.14.172 0 .062.046.109.109.109.094 0 1-.688 1.578-1.953.516-1.094.625-2.203.625-3.047Zm0 0"/></symbol><symbol overflow="visible" id="n"><path style="stroke:none" d="M2.938-6.375c0-.25 0-.266-.235-.266C2.078-6 1.203-6 .891-6v.313c.203 0 .78 0 1.296-.266v5.172c0 .36-.03.469-.921.469H.953V0c.344-.031 1.203-.031 1.61-.031.39 0 1.265 0 1.609.031v-.313h-.313c-.906 0-.921-.109-.921-.468Zm0 0"/></symbol><symbol overflow="visible" id="p"><path style="stroke:none" d="m1.266-.766 1.062-1.03c1.547-1.376 2.14-1.907 2.14-2.907 0-1.14-.89-1.938-2.109-1.938C1.234-6.64.5-5.719.5-4.828c0 .547.5.547.531.547.172 0 .516-.11.516-.532a.513.513 0 0 0-.531-.515c-.079 0-.094 0-.125.016.218-.657.765-1.016 1.343-1.016.907 0 1.329.812 1.329 1.625 0 .797-.485 1.578-1.047 2.203L.609-.375C.5-.265.5-.235.5 0h3.703l.266-1.734h-.235C4.172-1.438 4.11-1 4-.844c-.063.078-.719.078-.938.078Zm0 0"/></symbol><symbol overflow="visible" id="q"><path style="stroke:none" d="M2.89-3.516c.813-.265 1.391-.953 1.391-1.75 0-.812-.875-1.375-1.828-1.375-1 0-1.765.594-1.765 1.36 0 .328.218.515.515.515.297 0 .5-.218.5-.515 0-.485-.469-.485-.61-.485.298-.5.954-.625 1.313-.625.422 0 .969.22.969 1.11 0 .125-.031.703-.281 1.14-.297.485-.64.516-.89.516a3.29 3.29 0 0 1-.392.031c-.078.016-.14.031-.14.125 0 .11.062.11.234.11h.438c.812 0 1.187.671 1.187 1.656 0 1.36-.687 1.64-1.125 1.64-.437 0-1.187-.171-1.531-.75.344.047.656-.171.656-.546a.537.537 0 0 0-.547-.563c-.25 0-.562.14-.562.578C.422-.437 1.344.22 2.437.22c1.22 0 2.126-.906 2.126-1.922 0-.813-.641-1.594-1.672-1.813Zm0 0"/></symbol><clipPath id="a"><path d="M29 113h86v128H29Zm0 0"/></clipPath><clipPath id="b"><path d="M29.004 241.016c42.52 0 75.473-98.86 85.039-127.563v127.563h-85.04"/></clipPath><linearGradient id="c" gradientUnits="userSpaceOnUse" x1="0" y1="25.003" x2="0" y2="74.997" gradientTransform="matrix(1.701 0 0 -2.55151 -13.526 304.81)"><stop offset="0" style="stop-color:#bfbfbf;stop-opacity:1"/><stop offset=".004" style="stop-color:#bebebf;stop-opacity:1"/><stop offset=".008" style="stop-color:#bebec0;stop-opacity:1"/><stop offset=".012" style="stop-color:#bdbdc0;stop-opacity:1"/><stop offset=".016" style="stop-color:#bcbcc0;stop-opacity:1"/><stop offset=".02" style="stop-color:#bcbcc0;stop-opacity:1"/><stop offset=".023" style="stop-color:#bbbbc1;stop-opacity:1"/><stop offset=".027" style="stop-color:#babac1;stop-opacity:1"/><stop offset=".031" style="stop-color:#b9b9c1;stop-opacity:1"/><stop offset=".035" style="stop-color:#b9b9c1;stop-opacity:1"/><stop offset=".039" style="stop-color:#b8b8c2;stop-opacity:1"/><stop offset=".043" style="stop-color:#b7b7c2;stop-opacity:1"/><stop offset=".047" style="stop-color:#b6b6c2;stop-opacity:1"/><stop offset=".051" style="stop-color:#b6b6c2;stop-opacity:1"/><stop offset=".055" style="stop-color:#b5b5c3;stop-opacity:1"/><stop offset=".059" style="stop-color:#b4b4c3;stop-opacity:1"/><stop offset=".063" style="stop-color:#b3b3c3;stop-opacity:1"/><stop offset=".066" style="stop-color:#b3b3c3;stop-opacity:1"/><stop offset=".07" style="stop-color:#b2b2c4;stop-opacity:1"/><stop offset=".074" style="stop-color:#b1b1c4;stop-opacity:1"/><stop offset=".078" style="stop-color:#b0b0c4;stop-opacity:1"/><stop offset=".082" style="stop-color:#b0b0c4;stop-opacity:1"/><stop offset=".086" style="stop-color:#afafc5;stop-opacity:1"/><stop offset=".09" style="stop-color:#aeaec5;stop-opacity:1"/><stop offset=".094" style="stop-color:#adadc5;stop-opacity:1"/><stop offset=".098" style="stop-color:#adadc5;stop-opacity:1"/><stop offset=".102" style="stop-color:#acacc6;stop-opacity:1"/><stop offset=".105" style="stop-color:#ababc6;stop-opacity:1"/><stop offset=".109" style="stop-color:#aaaac6;stop-opacity:1"/><stop offset=".113" style="stop-color:#aaaac6;stop-opacity:1"/><stop offset=".117" style="stop-color:#a9a9c7;stop-opacity:1"/><stop offset=".121" style="stop-color:#a8a8c7;stop-opacity:1"/><stop offset=".125" style="stop-color:#a7a7c7;stop-opacity:1"/><stop offset=".129" style="stop-color:#a7a7c7;stop-opacity:1"/><stop offset=".133" style="stop-color:#a6a6c8;stop-opacity:1"/><stop offset=".137" style="stop-color:#a5a5c8;stop-opacity:1"/><stop offset=".141" style="stop-color:#a4a4c8;stop-opacity:1"/><stop offset=".145" style="stop-color:#a4a4c8;stop-opacity:1"/><stop offset=".148" style="stop-color:#a3a3c9;stop-opacity:1"/><stop offset=".152" style="stop-color:#a2a2c9;stop-opacity:1"/><stop offset=".156" style="stop-color:#a1a1c9;stop-opacity:1"/><stop offset=".16" style="stop-color:#a1a1c9;stop-opacity:1"/><stop offset=".164" style="stop-color:#a0a0ca;stop-opacity:1"/><stop offset=".168" style="stop-color:#9f9fca;stop-opacity:1"/><stop offset=".172" style="stop-color:#9e9eca;stop-opacity:1"/><stop offset=".176" style="stop-color:#9e9eca;stop-opacity:1"/><stop offset=".18" style="stop-color:#9d9dcb;stop-opacity:1"/><stop offset=".184" style="stop-color:#9c9ccb;stop-opacity:1"/><stop offset=".188" style="stop-color:#9b9bcb;stop-opacity:1"/><stop offset=".191" style="stop-color:#9b9bcb;stop-opacity:1"/><stop offset=".195" style="stop-color:#9a9acc;stop-opacity:1"/><stop offset=".199" style="stop-color:#99c;stop-opacity:1"/><stop offset=".203" style="stop-color:#9898cc;stop-opacity:1"/><stop offset=".207" style="stop-color:#9898cc;stop-opacity:1"/><stop offset=".211" style="stop-color:#9797cd;stop-opacity:1"/><stop offset=".215" style="stop-color:#9696cd;stop-opacity:1"/><stop offset=".219" style="stop-color:#9595cd;stop-opacity:1"/><stop offset=".223" style="stop-color:#9595cd;stop-opacity:1"/><stop offset=".227" style="stop-color:#9494ce;stop-opacity:1"/><stop offset=".23" style="stop-color:#9393ce;stop-opacity:1"/><stop offset=".234" style="stop-color:#9292ce;stop-opacity:1"/><stop offset=".238" style="stop-color:#9292ce;stop-opacity:1"/><stop offset=".242" style="stop-color:#9191cf;stop-opacity:1"/><stop offset=".246" style="stop-color:#9090cf;stop-opacity:1"/><stop offset=".25" style="stop-color:#8f8fcf;stop-opacity:1"/><stop offset=".254" style="stop-color:#8f8fcf;stop-opacity:1"/><stop offset=".258" style="stop-color:#8e8ed0;stop-opacity:1"/><stop offset=".262" style="stop-color:#8d8dd0;stop-opacity:1"/><stop offset=".266" style="stop-color:#8c8cd0;stop-opacity:1"/><stop offset=".27" style="stop-color:#8c8cd0;stop-opacity:1"/><stop offset=".273" style="stop-color:#8b8bd1;stop-opacity:1"/><stop offset=".277" style="stop-color:#8a8ad1;stop-opacity:1"/><stop offset=".281" style="stop-color:#8989d1;stop-opacity:1"/><stop offset=".285" style="stop-color:#8989d1;stop-opacity:1"/><stop offset=".289" style="stop-color:#8888d2;stop-opacity:1"/><stop offset=".293" style="stop-color:#8787d2;stop-opacity:1"/><stop offset=".297" style="stop-color:#8686d2;stop-opacity:1"/><stop offset=".301" style="stop-color:#8686d2;stop-opacity:1"/><stop offset=".305" style="stop-color:#8585d3;stop-opacity:1"/><stop offset=".309" style="stop-color:#8484d3;stop-opacity:1"/><stop offset=".313" style="stop-color:#8383d3;stop-opacity:1"/><stop offset=".316" style="stop-color:#8383d3;stop-opacity:1"/><stop offset=".32" style="stop-color:#8282d4;stop-opacity:1"/><stop offset=".324" style="stop-color:#8181d4;stop-opacity:1"/><stop offset=".328" style="stop-color:#8080d4;stop-opacity:1"/><stop offset=".332" style="stop-color:#8080d4;stop-opacity:1"/><stop offset=".336" style="stop-color:#7f7fd5;stop-opacity:1"/><stop offset=".34" style="stop-color:#7e7ed5;stop-opacity:1"/><stop offset=".344" style="stop-color:#7e7ed5;stop-opacity:1"/><stop offset=".348" style="stop-color:#7d7dd5;stop-opacity:1"/><stop offset=".352" style="stop-color:#7c7cd6;stop-opacity:1"/><stop offset=".355" style="stop-color:#7b7bd6;stop-opacity:1"/><stop offset=".359" style="stop-color:#7b7bd6;stop-opacity:1"/><stop offset=".363" style="stop-color:#7a7ad6;stop-opacity:1"/><stop offset=".367" style="stop-color:#7979d7;stop-opacity:1"/><stop offset=".371" style="stop-color:#7878d7;stop-opacity:1"/><stop offset=".375" style="stop-color:#7878d7;stop-opacity:1"/><stop offset=".379" style="stop-color:#7777d7;stop-opacity:1"/><stop offset=".383" style="stop-color:#7676d8;stop-opacity:1"/><stop offset=".387" style="stop-color:#7575d8;stop-opacity:1"/><stop offset=".391" style="stop-color:#7575d8;stop-opacity:1"/><stop offset=".395" style="stop-color:#7474d8;stop-opacity:1"/><stop offset=".398" style="stop-color:#7373d9;stop-opacity:1"/><stop offset=".402" style="stop-color:#7272d9;stop-opacity:1"/><stop offset=".406" style="stop-color:#7272d9;stop-opacity:1"/><stop offset=".41" style="stop-color:#7171d9;stop-opacity:1"/><stop offset=".414" style="stop-color:#7070da;stop-opacity:1"/><stop offset=".418" style="stop-color:#6f6fda;stop-opacity:1"/><stop offset=".422" style="stop-color:#6f6fda;stop-opacity:1"/><stop offset=".426" style="stop-color:#6e6eda;stop-opacity:1"/><stop offset=".43" style="stop-color:#6d6ddb;stop-opacity:1"/><stop offset=".434" style="stop-color:#6c6cdb;stop-opacity:1"/><stop offset=".438" style="stop-color:#6c6cdb;stop-opacity:1"/><stop offset=".441" style="stop-color:#6b6bdb;stop-opacity:1"/><stop offset=".445" style="stop-color:#6a6adc;stop-opacity:1"/><stop offset=".449" style="stop-color:#6969dc;stop-opacity:1"/><stop offset=".453" style="stop-color:#6969dc;stop-opacity:1"/><stop offset=".457" style="stop-color:#6868dc;stop-opacity:1"/><stop offset=".461" style="stop-color:#6767dd;stop-opacity:1"/><stop offset=".465" style="stop-color:#66d;stop-opacity:1"/><stop offset=".469" style="stop-color:#66d;stop-opacity:1"/><stop offset=".473" style="stop-color:#6565dd;stop-opacity:1"/><stop offset=".477" style="stop-color:#6464de;stop-opacity:1"/><stop offset=".48" style="stop-color:#6363de;stop-opacity:1"/><stop offset=".484" style="stop-color:#6363de;stop-opacity:1"/><stop offset=".488" style="stop-color:#6262de;stop-opacity:1"/><stop offset=".492" style="stop-color:#6161df;stop-opacity:1"/><stop offset=".496" style="stop-color:#6060df;stop-opacity:1"/><stop offset=".5" style="stop-color:#6060df;stop-opacity:1"/><stop offset=".504" style="stop-color:#5f5fdf;stop-opacity:1"/><stop offset=".508" style="stop-color:#5e5ee0;stop-opacity:1"/><stop offset=".512" style="stop-color:#5d5de0;stop-opacity:1"/><stop offset=".516" style="stop-color:#5d5de0;stop-opacity:1"/><stop offset=".52" style="stop-color:#5c5ce0;stop-opacity:1"/><stop offset=".523" style="stop-color:#5b5be1;stop-opacity:1"/><stop offset=".527" style="stop-color:#5a5ae1;stop-opacity:1"/><stop offset=".531" style="stop-color:#5a5ae1;stop-opacity:1"/><stop offset=".535" style="stop-color:#5959e1;stop-opacity:1"/><stop offset=".539" style="stop-color:#5858e2;stop-opacity:1"/><stop offset=".543" style="stop-color:#5757e2;stop-opacity:1"/><stop offset=".547" style="stop-color:#5757e2;stop-opacity:1"/><stop offset=".551" style="stop-color:#5656e2;stop-opacity:1"/><stop offset=".555" style="stop-color:#5555e3;stop-opacity:1"/><stop offset=".559" style="stop-color:#5454e3;stop-opacity:1"/><stop offset=".563" style="stop-color:#5454e3;stop-opacity:1"/><stop offset=".566" style="stop-color:#5353e3;stop-opacity:1"/><stop offset=".57" style="stop-color:#5252e4;stop-opacity:1"/><stop offset=".574" style="stop-color:#5151e4;stop-opacity:1"/><stop offset=".578" style="stop-color:#5151e4;stop-opacity:1"/><stop offset=".582" style="stop-color:#5050e4;stop-opacity:1"/><stop offset=".586" style="stop-color:#4f4fe5;stop-opacity:1"/><stop offset=".59" style="stop-color:#4e4ee5;stop-opacity:1"/><stop offset=".594" style="stop-color:#4e4ee5;stop-opacity:1"/><stop offset=".598" style="stop-color:#4d4de5;stop-opacity:1"/><stop offset=".602" style="stop-color:#4c4ce6;stop-opacity:1"/><stop offset=".605" style="stop-color:#4b4be6;stop-opacity:1"/><stop offset=".609" style="stop-color:#4b4be6;stop-opacity:1"/><stop offset=".613" style="stop-color:#4a4ae6;stop-opacity:1"/><stop offset=".617" style="stop-color:#4949e7;stop-opacity:1"/><stop offset=".621" style="stop-color:#4848e7;stop-opacity:1"/><stop offset=".625" style="stop-color:#4848e7;stop-opacity:1"/><stop offset=".629" style="stop-color:#4747e7;stop-opacity:1"/><stop offset=".633" style="stop-color:#4646e8;stop-opacity:1"/><stop offset=".637" style="stop-color:#4545e8;stop-opacity:1"/><stop offset=".641" style="stop-color:#4545e8;stop-opacity:1"/><stop offset=".645" style="stop-color:#4444e8;stop-opacity:1"/><stop offset=".648" style="stop-color:#4343e9;stop-opacity:1"/><stop offset=".652" style="stop-color:#4242e9;stop-opacity:1"/><stop offset=".656" style="stop-color:#4242e9;stop-opacity:1"/><stop offset=".66" style="stop-color:#4141e9;stop-opacity:1"/><stop offset=".664" style="stop-color:#4040ea;stop-opacity:1"/><stop offset=".668" style="stop-color:#4040ea;stop-opacity:1"/><stop offset=".672" style="stop-color:#3f3fea;stop-opacity:1"/><stop offset=".676" style="stop-color:#3e3eea;stop-opacity:1"/><stop offset=".68" style="stop-color:#3d3deb;stop-opacity:1"/><stop offset=".684" style="stop-color:#3d3deb;stop-opacity:1"/><stop offset=".688" style="stop-color:#3c3ceb;stop-opacity:1"/><stop offset=".691" style="stop-color:#3b3beb;stop-opacity:1"/><stop offset=".695" style="stop-color:#3a3aec;stop-opacity:1"/><stop offset=".699" style="stop-color:#3a3aec;stop-opacity:1"/><stop offset=".703" style="stop-color:#3939ec;stop-opacity:1"/><stop offset=".707" style="stop-color:#3838ec;stop-opacity:1"/><stop offset=".711" style="stop-color:#3737ed;stop-opacity:1"/><stop offset=".715" style="stop-color:#3737ed;stop-opacity:1"/><stop offset=".719" style="stop-color:#3636ed;stop-opacity:1"/><stop offset=".723" style="stop-color:#3535ed;stop-opacity:1"/><stop offset=".727" style="stop-color:#3434ee;stop-opacity:1"/><stop offset=".73" style="stop-color:#3434ee;stop-opacity:1"/><stop offset=".734" style="stop-color:#33e;stop-opacity:1"/><stop offset=".738" style="stop-color:#3232ee;stop-opacity:1"/><stop offset=".742" style="stop-color:#3131ef;stop-opacity:1"/><stop offset=".746" style="stop-color:#3131ef;stop-opacity:1"/><stop offset=".75" style="stop-color:#3030ef;stop-opacity:1"/><stop offset=".754" style="stop-color:#2f2fef;stop-opacity:1"/><stop offset=".758" style="stop-color:#2e2ef0;stop-opacity:1"/><stop offset=".762" style="stop-color:#2e2ef0;stop-opacity:1"/><stop offset=".766" style="stop-color:#2d2df0;stop-opacity:1"/><stop offset=".77" style="stop-color:#2c2cf0;stop-opacity:1"/><stop offset=".773" style="stop-color:#2b2bf1;stop-opacity:1"/><stop offset=".777" style="stop-color:#2b2bf1;stop-opacity:1"/><stop offset=".781" style="stop-color:#2a2af1;stop-opacity:1"/><stop offset=".785" style="stop-color:#2929f1;stop-opacity:1"/><stop offset=".789" style="stop-color:#2828f2;stop-opacity:1"/><stop offset=".793" style="stop-color:#2828f2;stop-opacity:1"/><stop offset=".797" style="stop-color:#2727f2;stop-opacity:1"/><stop offset=".801" style="stop-color:#2626f2;stop-opacity:1"/><stop offset=".805" style="stop-color:#2525f3;stop-opacity:1"/><stop offset=".809" style="stop-color:#2525f3;stop-opacity:1"/><stop offset=".813" style="stop-color:#2424f3;stop-opacity:1"/><stop offset=".816" style="stop-color:#2323f3;stop-opacity:1"/><stop offset=".82" style="stop-color:#2222f4;stop-opacity:1"/><stop offset=".824" style="stop-color:#2222f4;stop-opacity:1"/><stop offset=".828" style="stop-color:#2121f4;stop-opacity:1"/><stop offset=".832" style="stop-color:#2020f4;stop-opacity:1"/><stop offset=".836" style="stop-color:#1f1ff5;stop-opacity:1"/><stop offset=".84" style="stop-color:#1f1ff5;stop-opacity:1"/><stop offset=".844" style="stop-color:#1e1ef5;stop-opacity:1"/><stop offset=".848" style="stop-color:#1d1df5;stop-opacity:1"/><stop offset=".852" style="stop-color:#1c1cf6;stop-opacity:1"/><stop offset=".855" style="stop-color:#1c1cf6;stop-opacity:1"/><stop offset=".859" style="stop-color:#1b1bf6;stop-opacity:1"/><stop offset=".863" style="stop-color:#1a1af6;stop-opacity:1"/><stop offset=".867" style="stop-color:#1919f7;stop-opacity:1"/><stop offset=".871" style="stop-color:#1919f7;stop-opacity:1"/><stop offset=".875" style="stop-color:#1818f7;stop-opacity:1"/><stop offset=".879" style="stop-color:#1717f7;stop-opacity:1"/><stop offset=".883" style="stop-color:#1616f8;stop-opacity:1"/><stop offset=".887" style="stop-color:#1616f8;stop-opacity:1"/><stop offset=".891" style="stop-color:#1515f8;stop-opacity:1"/><stop offset=".895" style="stop-color:#1414f8;stop-opacity:1"/><stop offset=".898" style="stop-color:#1313f9;stop-opacity:1"/><stop offset=".902" style="stop-color:#1313f9;stop-opacity:1"/><stop offset=".906" style="stop-color:#1212f9;stop-opacity:1"/><stop offset=".91" style="stop-color:#1111f9;stop-opacity:1"/><stop offset=".914" style="stop-color:#1010fa;stop-opacity:1"/><stop offset=".918" style="stop-color:#1010fa;stop-opacity:1"/><stop offset=".922" style="stop-color:#0f0ffa;stop-opacity:1"/><stop offset=".926" style="stop-color:#0e0efa;stop-opacity:1"/><stop offset=".93" style="stop-color:#0d0dfb;stop-opacity:1"/><stop offset=".934" style="stop-color:#0d0dfb;stop-opacity:1"/><stop offset=".938" style="stop-color:#0c0cfb;stop-opacity:1"/><stop offset=".941" style="stop-color:#0b0bfb;stop-opacity:1"/><stop offset=".945" style="stop-color:#0a0afc;stop-opacity:1"/><stop offset=".949" style="stop-color:#0a0afc;stop-opacity:1"/><stop offset=".953" style="stop-color:#0909fc;stop-opacity:1"/><stop offset=".957" style="stop-color:#0808fc;stop-opacity:1"/><stop offset=".961" style="stop-color:#0707fd;stop-opacity:1"/><stop offset=".965" style="stop-color:#0707fd;stop-opacity:1"/><stop offset=".969" style="stop-color:#0606fd;stop-opacity:1"/><stop offset=".973" style="stop-color:#0505fd;stop-opacity:1"/><stop offset=".977" style="stop-color:#0404fd;stop-opacity:1"/><stop offset=".98" style="stop-color:#0404fe;stop-opacity:1"/><stop offset=".984" style="stop-color:#0303fe;stop-opacity:1"/><stop offset=".988" style="stop-color:#0202fe;stop-opacity:1"/><stop offset=".992" style="stop-color:#0202fe;stop-opacity:1"/><stop offset=".996" style="stop-color:#0101ff;stop-opacity:1"/><stop offset="1" style="stop-color:#00f;stop-opacity:1"/></linearGradient></defs><g clip-path="url(#a)"><g clip-path="url(#b)"><path style="stroke:none;fill-rule:nonzero;fill:url(#c)" d="M29.004 241.016V113.453h85.039v127.563Zm0 0"/></g></g><use xlink:href="#d" x="67.423" y="210.873" style="fill:#000;fill-opacity:1"/><use xlink:href="#e" x="77.386" y="213.336" style="fill:#000;fill-opacity:1"/><use xlink:href="#f" x="81.357" y="213.336" style="fill:#000;fill-opacity:1"/><use xlink:href="#g" x="85.439" y="213.336" style="fill:#000;fill-opacity:1"/><use xlink:href="#h" x="72.958" y="233.511" style="fill:#000;fill-opacity:1"/><use xlink:href="#i" x="88.248" y="224.433" style="fill:#000;fill-opacity:1"/><use xlink:href="#g" x="93.942" y="220.32" style="fill:#000;fill-opacity:1"/><use xlink:href="#j" x="98.411" y="224.433" style="fill:#000;fill-opacity:1"/><use xlink:href="#i" x="103.946" y="224.433" style="fill:#000;fill-opacity:1"/><path style="fill:none;stroke-width:.19925;stroke-linecap:butt;stroke-linejoin:miter;stroke:gray;stroke-opacity:1;stroke-miterlimit:10" d="M0 0h221.105M0 56.694h221.105M0 113.386h221.105M0 170.081h221.105M0 0v221.106M56.695-.001v221.106M113.387-.001v221.106M170.082-.001v221.106M56.695 127.562h56.692m-56.692 14.172h56.692m-56.692 14.172h56.692M56.695 170.08h56.692m-42.52-56.695v56.695m14.172-56.695v56.695m14.176-56.695v56.695m14.172-56.695v56.695" transform="matrix(1 0 0 -1 29.004 241.015)"/><path style="fill:none;stroke-width:.3985;stroke-linecap:butt;stroke-linejoin:miter;stroke:#000;stroke-opacity:1;stroke-miterlimit:10" d="M-11.34 0h237.715" transform="matrix(1 0 0 -1 29.004 241.015)"/><path style="fill:none;stroke-width:.3985;stroke-linecap:round;stroke-linejoin:round;stroke:#000;stroke-opacity:1;stroke-miterlimit:10" d="M-2.071 2.39C-1.693.956-.85.28-.001 0c-.848-.278-1.692-.958-2.07-2.391" transform="matrix(1 0 0 -1 255.58 241.015)"/><use xlink:href="#i" x="259.295" y="243.16" style="fill:#000;fill-opacity:1"/><path style="fill:none;stroke-width:.3985;stroke-linecap:butt;stroke-linejoin:miter;stroke:#000;stroke-opacity:1;stroke-miterlimit:10" d="M0-11.34v237.714" transform="matrix(1 0 0 -1 29.004 241.015)"/><path style="fill:none;stroke-width:.3985;stroke-linecap:round;stroke-linejoin:round;stroke:#000;stroke-opacity:1;stroke-miterlimit:10" d="M-2.072 2.39C-1.693.958-.849.278-.002 0c-.847-.277-1.691-.957-2.07-2.39" transform="matrix(0 -1 -1 0 29.004 14.44)"/><use xlink:href="#k" x="19.307" y="8.234" style="fill:#000;fill-opacity:1"/><use xlink:href="#l" x="25.257" y="8.234" style="fill:#000;fill-opacity:1"/><use xlink:href="#i" x="29.132" y="8.234" style="fill:#000;fill-opacity:1"/><use xlink:href="#m" x="34.826" y="8.234" style="fill:#000;fill-opacity:1"/><path style="fill:none;stroke-width:.3985;stroke-linecap:butt;stroke-linejoin:miter;stroke:#000;stroke-opacity:1;stroke-miterlimit:10" d="M56.695 3.984v-7.969" transform="matrix(1 0 0 -1 29.004 241.015)"/><use xlink:href="#n" x="83.206" y="254.941" style="fill:#000;fill-opacity:1"/><path style="fill:none;stroke-width:.3985;stroke-linecap:butt;stroke-linejoin:miter;stroke:#000;stroke-opacity:1;stroke-miterlimit:10" d="M85.039 3.984v-7.969" transform="matrix(1 0 0 -1 29.004 241.015)"/><use xlink:href="#n" x="108.371" y="256.937" style="fill:#000;fill-opacity:1"/><use xlink:href="#o" x="114.548" y="253.015" style="fill:#000;fill-opacity:1"/><path style="fill:none;stroke-width:.398;stroke-linecap:butt;stroke-linejoin:miter;stroke:#000;stroke-opacity:1;stroke-miterlimit:10" d="M-.001.002h3.973" transform="matrix(1 0 0 -1 114.548 254.447)"/><use xlink:href="#g" x="114.548" y="260.373" style="fill:#000;fill-opacity:1"/><path style="fill:none;stroke-width:.3985;stroke-linecap:butt;stroke-linejoin:miter;stroke:#000;stroke-opacity:1;stroke-miterlimit:10" d="M113.387 3.984v-7.969" transform="matrix(1 0 0 -1 29.004 241.015)"/><use xlink:href="#p" x="139.899" y="254.941" style="fill:#000;fill-opacity:1"/><path style="fill:none;stroke-width:.3985;stroke-linecap:butt;stroke-linejoin:miter;stroke:#000;stroke-opacity:1;stroke-miterlimit:10" d="M170.082 3.984v-7.969" transform="matrix(1 0 0 -1 29.004 241.015)"/><use xlink:href="#q" x="196.592" y="254.941" style="fill:#000;fill-opacity:1"/><path style="fill:none;stroke-width:.3985;stroke-linecap:butt;stroke-linejoin:miter;stroke:#000;stroke-opacity:1;stroke-miterlimit:10" d="M3.984 56.695h-7.968" transform="matrix(1 0 0 -1 29.004 241.015)"/><use xlink:href="#n" x="16.518" y="187.533" style="fill:#000;fill-opacity:1"/><path style="fill:none;stroke-width:.3985;stroke-linecap:butt;stroke-linejoin:miter;stroke:#000;stroke-opacity:1;stroke-miterlimit:10" d="M3.984 113.386h-7.968" transform="matrix(1 0 0 -1 29.004 241.015)"/><use xlink:href="#p" x="16.518" y="130.84" style="fill:#000;fill-opacity:1"/><path style="fill:none;stroke-width:.3985;stroke-linecap:butt;stroke-linejoin:miter;stroke:#000;stroke-opacity:1;stroke-miterlimit:10" d="M3.984 127.562h-7.968" transform="matrix(1 0 0 -1 29.004 241.015)"/><use xlink:href="#p" x="10.155" y="115.947" style="fill:#000;fill-opacity:1"/><use xlink:href="#o" x="16.332" y="112.025" style="fill:#000;fill-opacity:1"/><path style="fill:none;stroke-width:.398;stroke-linecap:butt;stroke-linejoin:miter;stroke:#000;stroke-opacity:1;stroke-miterlimit:10" d="M0 0h3.973" transform="matrix(1 0 0 -1 16.332 113.457)"/><use xlink:href="#r" x="16.332" y="119.383" style="fill:#000;fill-opacity:1"/><path style="fill:none;stroke-width:.3985;stroke-linecap:butt;stroke-linejoin:miter;stroke:#000;stroke-opacity:1;stroke-miterlimit:10" d="M3.984 170.081h-7.968" transform="matrix(1 0 0 -1 29.004 241.015)"/><use xlink:href="#q" x="16.518" y="74.147" style="fill:#000;fill-opacity:1"/><path style="fill:none;stroke-width:.3985;stroke-linecap:butt;stroke-linejoin:miter;stroke:#000;stroke-opacity:1;stroke-miterlimit:10" d="M-28.348 14.175C-25.156 10.984-14.172 0 0 0c56.695 0 100.633 175.75 113.387 226.774" transform="matrix(1 0 0 -1 29.004 241.015)"/><use xlink:href="#i" x="145.909" y="25.873" style="fill:#000;fill-opacity:1"/><use xlink:href="#g" x="151.603" y="22.258" style="fill:#000;fill-opacity:1"/></svg>