<svg xmlns="http://www.w3.org/2000/svg" xmlns:xlink="http://www.w3.org/1999/xlink" width="90.02pt" height="90.005" viewBox="0 0 90.02 67.504" version="1.2"><defs><symbol overflow="visible" id="b"><path style="stroke:none" d="M8.578 0v-.469H7.5v-5.906h1.078v-.469c-.39.032-1.36.032-1.797.032-.422 0-1.39 0-1.781-.032v.469h1.078v2.594H2.875v-2.594h1.078v-.469c-.375.032-1.344.032-1.781.032-.422 0-1.406 0-1.781-.032v.469h1.078v5.906H.39V0C.766-.031 1.75-.031 2.17-.031c.438 0 1.407 0 1.782.031v-.469H2.875v-2.844h3.203v2.844H5V0c.39-.031 1.36-.031 1.781-.031.438 0 1.407 0 1.797.031Zm0 0"/></symbol><symbol overflow="visible" id="c"><path style="stroke:none" d="M2.844 0v-.469h-.61v-4.015L.5-4.406v.468c.594 0 .656 0 .656.391v3.078H.47V0l1.219-.031Zm-.469-6.047a.774.774 0 0 0-.781-.781.784.784 0 0 0-.782.781c0 .422.36.766.782.766a.77.77 0 0 0 .781-.766Zm0 0"/></symbol><symbol overflow="visible" id="d"><path style="stroke:none" d="M2.531-6.313c0-.39-.36-.718-.781-.718-.438 0-.797.328-.797.718 0 .047 0 .079.031.172L1.5-2.516c.031.25.031.266.25.266.188 0 .219-.016.25-.219l.516-3.719ZM2.516-.78a.78.78 0 0 0-.766-.781.784.784 0 0 0-.781.78.774.774 0 1 0 1.547 0Zm0 0"/></symbol><clipPath id="a"><path d="M0 0h89.531v67.258H0Zm0 0"/></clipPath><clipPath id="e"><path d="M44 8h45.531v59.258H44Zm0 0"/></clipPath></defs><path style="fill:none;stroke-width:.19925;stroke-linecap:butt;stroke-linejoin:miter;stroke:gray;stroke-opacity:1;stroke-miterlimit:10" d="M0 .001h85.039M-.001 28.345h85.04m-85.04 28.34h85.04M-.001.001v56.692M28.348 0v56.692M56.695 0v56.692M85.03 0v56.692" transform="matrix(1 0 0 -1 .727 64.478)"/><g clip-path="url(#a)"><path style="fill:none;stroke-width:.3985;stroke-linecap:butt;stroke-linejoin:miter;stroke:#000;stroke-opacity:1;stroke-miterlimit:10" d="M0 .001v3.52h7.046v7.047h7.043v7.043h7.043v7.047h7.047V31.7h7.043v7.047h7.047v7.043h7.043v7.046h7.047v7.043l7.035-6.43 5.945 3.141 2.282-6.98 6.664.89-.258-7.332 6.57-1.445-2.765-6.805 5.66-3.625-2.453-2.937v-.012" transform="matrix(1 0 0 -1 .727 64.478)"/></g><path style="fill:none;stroke-width:.3985;stroke-linecap:butt;stroke-linejoin:miter;stroke:red;stroke-opacity:1;stroke-miterlimit:10" d="M34.222 49.86h22.274v13.665H34.222Zm0 0" transform="matrix(1 0 0 -1 .727 64.478)"/><g style="fill:#000;fill-opacity:1"><use xlink:href="#b" x="38.269" y="11.297"/><use xlink:href="#c" x="47.235" y="11.297"/><use xlink:href="#d" x="50.413" y="11.297"/></g><g clip-path="url(#e)"><path style="fill:none;stroke-width:.3985;stroke-linecap:butt;stroke-linejoin:miter;stroke:#00f;stroke-opacity:1;stroke-miterlimit:10" d="m84.734-1.733.613 3.469m1.426-2.043-3.469.613m-4.281 6.121.61 3.469m1.43-2.04-3.47.61m-4.285 6.121.613 3.47m1.426-2.04-3.469.613m-4.285 6.121.614 3.47m1.43-2.044-3.47.614m-4.285 6.12.61 3.47m1.43-2.04-3.47.61m-4.284 6.125.613 3.468m1.43-2.043-3.47.614m-4.284 6.12.609 3.47m1.43-2.04-3.47.61" transform="matrix(1 0 0 -1 .727 64.478)"/></g></svg>