<svg xmlns="http://www.w3.org/2000/svg" xmlns:xlink="http://www.w3.org/1999/xlink" width="307.035" height="163.395" viewBox="0 0 230.276 122.546" version="1.2"><defs><symbol overflow="visible" id="a"><path style="stroke:none" d="M5.828 0v-.469h-.703L3.453-2.453 4.61-3.75c.141-.14.204-.203 1.016-.203v-.469l-.906.031-1.032-.03v.468c.141 0 .266.015.376.078-.032.063-.032.094-.079.125l-.828.938-.984-1.141h.406v-.469L1.36-4.39.266-4.42v.468h.718l1.547 1.828L1.22-.656c-.157.187-.516.187-1 .187V0l.922-.031L2.156 0v-.469c-.172 0-.36-.047-.36-.11 0 0 0-.015.063-.093l.97-1.094L3.921-.469h-.39V0l1.202-.031Zm0 0"/></symbol><symbol overflow="visible" id="b"><path style="stroke:none" d="M5.781-3.953v-.469A12.55 12.55 0 0 1 5-4.39l-.906-.03v.468s.468 0 .468.11L4.5-3.72 3.36-1.266 2.093-3.953h.531v-.469l-1.234.031-1.125-.03v.468H.89L2.766 0 2.53.484C2.312.954 2 1.641 1.281 1.641c-.14 0-.156-.016-.234-.047.094-.032.312-.172.312-.532C1.36.734 1.125.5.781.5a.553.553 0 0 0-.562.578c0 .5.469.922 1.062.922.766 0 1.344-.625 1.625-1.188l2.14-4.562c.063-.14.095-.203.735-.203Zm0 0"/></symbol><symbol overflow="visible" id="c"><path style="stroke:none" d="M4.61-2.016h-.47C4.048-1 3.89-.406 2.579-.406h-.86L4.469-4c.095-.11.11-.125.11-.219 0-.203-.14-.203-.328-.203H.594l-.11 1.734h.47c.046-1.015.359-1.374 1.39-1.374h.844L.405-.438C.312-.329.312-.314.312-.22.313 0 .454 0 .641 0h3.78Zm0 0"/></symbol><symbol overflow="visible" id="d"><path style="stroke:none" d="M8.328-3.953v-.469c-.312.016-.719.031-.984.031-.11 0-.938-.015-1.219-.03v.468c.219 0 .5 0 .734.094-.562.875-1.156 1.734-1.906 2.453-.625-.657-1.375-1.532-1.766-2.375.141-.11.594-.531.876-.844.25-.297.546-.703.546-1.094 0-.531-.328-1.312-1.093-1.312-.829 0-1.797.625-1.797 1.765 0 .594.125 1.235.422 1.922l-.735.625c-.203.172-.547.469-.625.547-.203.25-.297.516-.297.797 0 .922.97 1.484 2.063 1.484.719 0 1.375-.234 1.984-.625.282.157 1.078.625 2.11.625.812 0 1.593-.453 1.625-1.28h-.47c-.046.75-.921.812-1.109.812-.468 0-.953-.297-1.406-.735.453-.468.782-.812 1.235-1.484l.828-1.188c.14-.187.468-.187.984-.187ZM4.141-5.72c0 .438-.438.985-1.094 1.578a4.034 4.034 0 0 1-.297-1.484c0-.828.516-1.047.766-1.047.484 0 .625.656.625.953Zm0 4.922c-.688.438-1.407.438-1.47.438-.827 0-.921-1.094-.921-1.375 0-.47.14-.985.547-1.282.36.657.937 1.547 1.844 2.22Zm0 0"/></symbol><symbol overflow="visible" id="e"><path style="stroke:none" d="M2.922 0v-.469h-.688v-6.453L.47-6.844v.469c.625 0 .687 0 .687.39v5.516H.47V0l1.219-.031Zm0 0"/></symbol><symbol overflow="visible" id="f"><path style="stroke:none" d="M5.516-.234c0-.235-.125-.235-.266-.235-.61-.015-.61-.14-.61-.375v-2.14c0-.891-.702-1.532-2.187-1.532-.562 0-1.781.047-1.781.922 0 .438.344.625.61.625.312 0 .624-.219.624-.625 0-.297-.187-.469-.218-.5a5.28 5.28 0 0 1 .718-.062c.75 0 1.11.422 1.11 1.172v.343c-.72.032-3.25.125-3.25 1.563C.266-.125 1.5.062 2.187.062c.797 0 1.266-.406 1.485-.828 0 .313 0 .766 1.047.766h.468c.204 0 .329 0 .329-.234Zm-2-1.157c0 .97-.922 1.094-1.172 1.094-.516 0-.906-.344-.906-.797 0-1.062 1.578-1.203 2.078-1.234Zm0 0"/></symbol><symbol overflow="visible" id="g"><path style="stroke:none" d="M6.125 0v-.469h-.688v-2.578c0-1.047-.53-1.437-1.53-1.437-.954 0-1.485.562-1.75 1.078v-1.078l-1.704.078v.468c.61 0 .688 0 .688.391v3.078H.453V0l1.25-.031L2.953 0v-.469h-.687v-2.078c0-1.094.859-1.578 1.5-1.578.328 0 .546.203.546.969V-.47h-.687V0l1.25-.031Zm0 0"/></symbol><symbol overflow="visible" id="h"><path style="stroke:none" d="M5.563-3.953c0-.235-.172-.578-.625-.578-.157 0-.625.031-1.063.375-.172-.125-.594-.328-1.328-.328-1.438 0-1.985.78-1.985 1.468 0 .407.188.829.516 1.047-.281.36-.344.688-.344.89 0 .157.047.641.438.954-.125.031-.86.25-.86.875C.313 1.25.875 2 2.86 2 4.625 2 5.406 1.422 5.406.719c0-.297-.078-.922-.75-1.266-.562-.281-1.156-.281-2.11-.281-.265 0-.718 0-.765-.016a.625.625 0 0 1-.562-.625c0-.093.047-.25.11-.328.452.234.968.266 1.218.266 1.437 0 1.984-.782 1.984-1.485 0-.468-.25-.796-.406-.953.297-.156.516-.172.625-.187a.433.433 0 0 0-.047.203c0 .25.172.422.438.422a.41.41 0 0 0 .421-.422Zm-2.141.937c0 .454 0 1.125-.875 1.125s-.875-.671-.875-1.125c0-.437 0-1.109.875-1.109s.875.672.875 1.11ZM4.547.75c0 .36-.39.89-1.688.89-1.187 0-1.687-.452-1.687-.906 0-.609.625-.609.766-.609h1.171c.313 0 1.438 0 1.438.625Zm0 0"/></symbol><symbol overflow="visible" id="i"><path style="stroke:none" d="M4.922-1.172c0-.172-.188-.172-.234-.172-.172 0-.188.047-.25.203-.204.485-.782.797-1.422.797-1.407 0-1.422-1.328-1.422-1.828h3.015c.22 0 .313 0 .313-.265 0-.313-.063-1.047-.563-1.547-.359-.36-.89-.532-1.578-.532C1.187-4.516.312-3.484.312-2.25c0 1.344 1 2.313 2.61 2.313 1.578 0 2-1.063 2-1.235ZM3.984-2.5h-2.39c.015-.39.031-.813.234-1.14.266-.391.672-.516.953-.516 1.172 0 1.188 1.312 1.203 1.656Zm0 0"/></symbol><symbol overflow="visible" id="j"><path style="stroke:none" d="M2.36-3.656a.77.77 0 0 0-.782-.766.767.767 0 0 0-.766.766.774.774 0 1 0 1.547 0Zm.03 3.344c0-.657-.25-1.25-.812-1.25-.469 0-.766.359-.766.78 0 .407.266.782.766.782.234 0 .39-.094.453-.125a2.673 2.673 0 0 1-.828 1.703c-.078.078-.094.094-.094.156 0 .094.11.204.188.204.14 0 1.094-.907 1.094-2.25Zm0 0"/></symbol><symbol overflow="visible" id="r"><path style="stroke:none" d="M4.406-3.672c0-.531-.531-.812-1.062-.812-.688 0-1.094.5-1.313 1.125v-1.125l-1.656.078v.468c.61 0 .688 0 .688.391v3.078H.375V0l1.25-.031C2-.031 2.641-.031 3 0v-.469h-.86v-1.75c0-.687.235-1.906 1.235-1.906 0 0-.188.172-.188.453 0 .406.329.61.61.61.297 0 .61-.204.61-.61Zm0 0"/></symbol><symbol overflow="visible" id="k"><path style="stroke:none" d="M6.125-1.469c0-.14-.125-.14-.266-.14-.25 0-.25 0-.328.25-.078.328-.25 1.078-.593 1.078-.125 0-.188-.078-.188-.313 0-.187.016-.265.063-.422l.656-2.687c.047-.156.047-.172.047-.219 0-.219-.172-.422-.454-.422-.171 0-.343.094-.468.219-.313-.328-.703-.375-.969-.375C1.953-4.5.953-2.844.953-1.516c0 1.188.844 1.594 1.594 1.594.61 0 1.078-.312 1.328-.5.188.344.625.5 1.016.5.468 0 .718-.344.843-.531.266-.422.391-.984.391-1.016ZM3.75-1c-.438.578-.844.719-1.156.719-.235 0-.563-.14-.563-.703 0-.547.344-1.766.453-2.047.344-.969.891-1.11 1.141-1.11.36 0 .625.22.734.61l-.578 2.36c-.015.062-.015.093-.031.171Zm0 0"/></symbol><symbol overflow="visible" id="l"><path style="stroke:none" d="M5.25-1.5c0-.156-.14-.156-.281-.156-.172 0-.235 0-.282.11-.218.546-.734.562-1.578.562l-.671.03h-.485c.219-.234.469-.484 1.172-1.062.39-.312.89-.718 1.156-.984.578-.563 1.11-1.203 1.11-1.36 0-.14-.125-.14-.282-.14-.203 0-.218 0-.28.11-.126.171-.36.562-.516.562-.25 0-.454-.172-.657-.344-.312-.234-.531-.328-.797-.328-.859 0-1.406.89-1.406 1.188 0 .14.14.14.266.14.203 0 .218 0 .281-.125.047-.078.14-.125.469-.156h.703c.14 0 .531-.016.687-.016h.204c-.22.235-.47.485-1.157 1.063-.406.312-.906.719-1.172.984C1.266-.953.641-.25.641-.062c0 .14.109.14.28.14.188 0 .204-.015.266-.094.188-.28.47-.578.782-.578.25 0 .422.14.625.297.281.219.484.375.844.375C4.562.078 5.25-1.172 5.25-1.5Zm0 0"/></symbol><symbol overflow="visible" id="m"><path style="stroke:none" d="M3.89-1.469c0-.14-.124-.14-.28-.14-.188 0-.235 0-.282.125-.078.265-.344 1.203-.922 1.203-.047 0-.14 0-.14-.172 0-.14.078-.39.093-.406l.891-2.375c.063-.157.094-.235.094-.391 0-.547-.516-.875-1.047-.875C1.25-4.5.766-3.156.766-2.953c0 .14.125.14.28.14.188 0 .235 0 .282-.124.078-.266.344-1.204.922-1.204.047 0 .125 0 .125.172 0 .125-.063.375-.078.406l-.89 2.36c-.063.172-.095.25-.095.39 0 .563.516.891 1.047.891 1.047 0 1.532-1.344 1.532-1.547Zm.141-4.656a.6.6 0 0 0-.625-.594c-.453 0-.89.422-.89.86 0 .328.25.609.625.609.468 0 .89-.438.89-.875Zm0 0"/></symbol><symbol overflow="visible" id="n"><path style="stroke:none" d="M9.75-1.469c0-.14-.125-.14-.281-.14-.188 0-.235 0-.281.125-.079.265-.344 1.203-.907 1.203-.062 0-.14 0-.14-.172 0-.219.093-.469.218-.813.141-.375.594-1.546.594-2.109 0-.828-.594-1.125-1.375-1.125-.797 0-1.266.406-1.594.75-.218-.75-1.125-.75-1.343-.75-.204 0-.86 0-1.516.688C2.922-4.391 2.328-4.5 2-4.5c-.469 0-.719.328-.844.531-.265.422-.39.985-.39 1.016 0 .14.125.14.28.14.235 0 .25-.015.313-.265.094-.328.266-1.063.61-1.063.11 0 .187.079.187.297 0 .188-.015.281-.062.438L1.39-.562c-.047.14-.047.156-.047.218 0 .297.234.422.453.422.062 0 .5-.015.625-.531l.625-2.485c.062-.28.625-1.203 1.531-1.203.422 0 .422.375.422.563 0 .25-.031.422-.14.844l-.423 1.671c-.062.25-.156.641-.156.72 0 .296.235.421.438.421.125 0 .515-.047.64-.562l.61-2.454c.078-.28.64-1.203 1.531-1.203.438 0 .438.375.438.563 0 .594-.454 1.828-.641 2.265-.094.25-.125.36-.125.5 0 .563.516.891 1.047.891 1.047 0 1.531-1.344 1.531-1.547Zm0 0"/></symbol><symbol overflow="visible" id="o"><path style="stroke:none" d="M6.531-1.469c0-.14-.125-.14-.281-.14-.234 0-.25 0-.313.25-.078.328-.265 1.078-.609 1.078-.11 0-.187-.078-.187-.313 0-.187.015-.265.062-.422l.688-2.765c.046-.14.046-.172.046-.219 0-.313-.25-.422-.453-.422-.125 0-.515.063-.64.547l-.688 2.813c-.047.171-.047.218-.328.5-.14.125-.39.28-.687.28-.5 0-.516-.468-.516-.687 0-.594.328-1.484.578-2.11.094-.25.14-.374.14-.546 0-.547-.515-.875-1.046-.875C1.25-4.5.766-3.156.766-2.953c0 .14.125.14.28.14.188 0 .235 0 .282-.124.078-.266.344-1.204.922-1.204.047 0 .125 0 .125.172 0 .203-.11.516-.172.656-.312.86-.594 1.579-.594 2.141 0 .906.641 1.25 1.47 1.25.28 0 .702-.047 1.187-.5.187.344.64.5 1.03.5.47 0 .72-.344.845-.531.265-.422.39-.984.39-1.016Zm0 0"/></symbol><symbol overflow="visible" id="p"><path style="stroke:none" d="M4.172-1.469c0-.14-.125-.14-.281-.14-.22 0-.22 0-.297.156-.422 1-.906 1.172-1.172 1.172-.094 0-.203-.016-.203-.313 0-.187.015-.265.047-.422l.75-2.937h.796c.172 0 .329 0 .329-.297 0-.172-.157-.172-.297-.172h-.719l.188-.797c.078-.25.187-.687.187-.765 0-.235-.172-.422-.453-.422-.125 0-.5.062-.625.531l-.36 1.453H1.25c-.172 0-.344 0-.344.281 0 .188.172.188.313.188h.718L1.25-1.172c-.047.156-.047.219-.047.281 0 .625.578.97 1.172.97 1.14 0 1.797-1.391 1.797-1.548Zm0 0"/></symbol><symbol overflow="visible" id="q"><path style="stroke:none" d="M6.234-1.469c0-.14-.14-.14-.28-.14-.188 0-.235 0-.282.125-.078.265-.344 1.203-.922 1.203-.047 0-.14 0-.14-.172 0-.219.109-.469.234-.813.14-.375.593-1.546.593-2.109 0-.828-.593-1.125-1.375-1.125-.515 0-.906.156-1.343.5l.656-2.578c0-.047.031-.11.031-.156 0-.188-.187-.188-.328-.172l-1.219.062c-.109 0-.312 0-.312.297 0 .172.172.172.266.172.125 0 .296.016.421.031L.797-.562C.75-.422.75-.406.75-.345c0 .25.203.422.469.422.11 0 .5-.047.61-.531l.624-2.485c.063-.265.625-1.203 1.531-1.203.438 0 .438.375.438.563 0 .594-.469 1.828-.64 2.265-.095.25-.126.36-.126.5 0 .563.516.891 1.047.891 1.031 0 1.531-1.344 1.531-1.547Zm0 0"/></symbol><symbol overflow="visible" id="s"><path style="stroke:none" d="M5.344-.86c0-.078-.203-.312-.297-.312-.031 0-.078 0-.14.063-.735.828-1.75.828-1.891.828-.547 0-.844-.328-.844-.922 0-.25.078-.625.156-.969h.406c.594 0 2.563 0 2.563-1.375C5.297-4.14 4.75-4.5 4-4.5c-1.719 0-2.906 1.297-2.906 2.828 0 1.078.672 1.75 1.922 1.75.296 0 .89-.031 1.406-.219.531-.203.922-.593.922-.718Zm-.688-2.703c0 1.032-1.625 1.032-2.234 1.032.14-.5.234-.797.531-1.125A1.452 1.452 0 0 1 4-4.141c.422 0 .656.266.656.579Zm0 0"/></symbol><symbol overflow="visible" id="t"><path style="stroke:none" d="M3.297-1.469c0-.14-.125-.14-.281-.14-.235 0-.25 0-.313.25-.078.328-.265 1.078-.594 1.078-.125 0-.203-.078-.203-.313 0-.187.032-.265.063-.422l1.406-5.562c0-.047.031-.11.031-.156 0-.188-.187-.188-.328-.172l-1.219.062c-.109 0-.312 0-.312.297 0 .172.172.172.266.172.125 0 .296.016.421.031L.954-1.172c-.048.156-.048.219-.048.281 0 .641.594.97 1.156.97.47 0 .72-.345.844-.532.266-.422.39-.984.39-1.016Zm0 0"/></symbol><symbol overflow="visible" id="u"><path style="stroke:none" d="M5.531-3.64c0-.735-.453-.876-.64-.876-.344 0-.72.36-.72.72 0 .233.141.343.25.421.188.14.391.344.391.64 0 .047-.421 2.454-1.546 2.454-.547 0-.641-.438-.641-.75 0-.547.328-1.407.578-2.063.094-.25.14-.36.14-.531 0-.547-.515-.875-1.046-.875C1.25-4.5.766-3.156.766-2.953c0 .14.125.14.28.14.188 0 .235 0 .282-.124.078-.266.344-1.204.922-1.204.047 0 .125 0 .125.172 0 .203-.11.516-.172.656-.375 1.016-.594 1.594-.594 2.094 0 1.125.97 1.297 1.594 1.297 1.766 0 2.328-3.203 2.328-3.719Zm0 0"/></symbol><symbol overflow="visible" id="v"><path style="stroke:none" d="M5.938-2.828c0-1.031-.72-1.672-1.907-1.672-1.968 0-2.968 1.656-2.968 2.906 0 1.032.718 1.672 1.89 1.672 1.969 0 2.985-1.656 2.985-2.906ZM4.343-1.234c-.297.625-.86.953-1.36.953-.359 0-.828-.172-.828-.875 0-.39.25-1.5.5-2.032.297-.624.86-.953 1.36-.953.343 0 .828.157.828.875 0 .391-.266 1.5-.5 2.032Zm0 0"/></symbol><symbol overflow="visible" id="w"><path style="stroke:none" d="M6.813-1.469c0-.14-.125-.14-.266-.14-.203 0-.25 0-.281.125-.079.265-.36 1.203-.922 1.203-.047 0-.14 0-.14-.172 0-.219.093-.469.234-.813.14-.375.578-1.546.578-2.109 0-.828-.579-1.125-1.375-1.125-.204 0-.86 0-1.516.688C2.922-4.391 2.328-4.5 2-4.5c-.469 0-.719.328-.844.531-.265.422-.39.985-.39 1.016 0 .14.125.14.28.14.235 0 .25-.015.313-.265.094-.328.266-1.063.61-1.063.11 0 .187.079.187.297 0 .188-.015.281-.062.438L1.39-.562c-.047.14-.047.156-.047.218 0 .297.234.422.453.422.062 0 .5-.015.625-.531l.625-2.485c.062-.28.625-1.203 1.531-1.203.422 0 .422.375.422.563 0 .594-.453 1.828-.64 2.265-.079.25-.11.36-.11.5 0 .563.5.891 1.047.891 1.031 0 1.516-1.344 1.516-1.547Zm0 0"/></symbol></defs><path style="fill:none;stroke-width:.3985;stroke-linecap:butt;stroke-linejoin:miter;stroke:#000;stroke-opacity:1;stroke-miterlimit:10" d="M-79.914-9.946 79.516 9.898" transform="matrix(1 0 0 -1 80.586 88.214)"/><path style="fill:none;stroke-width:.3985;stroke-linecap:round;stroke-linejoin:round;stroke:#000;stroke-opacity:1;stroke-miterlimit:10" d="M-2.072 2.39C-1.695.957-.851.277 0-.002c-.85-.276-1.693-.954-2.072-2.387" transform="matrix(.99231 -.1235 -.1235 -.99231 160.3 78.291)"/><use xlink:href="#a" x="165.466" y="79.484" style="fill:#000;fill-opacity:1"/><path style="fill:none;stroke-width:.3985;stroke-linecap:butt;stroke-linejoin:miter;stroke:#000;stroke-opacity:1;stroke-miterlimit:10" d="m29.086-27.333-57.883 54.39" transform="matrix(1 0 0 -1 80.586 88.214)"/><path style="fill:none;stroke-width:.3985;stroke-linecap:round;stroke-linejoin:round;stroke:#000;stroke-opacity:1;stroke-miterlimit:10" d="M-2.073 2.39C-1.692.957-.851.279 0 0c-.852-.28-1.694-.959-2.073-2.392" transform="scale(-.99994 .99994) rotate(-43.219 51.2 95.704)"/><use xlink:href="#b" x="45.568" y="59.365" style="fill:#000;fill-opacity:1"/><path style="fill:none;stroke-width:.3985;stroke-linecap:butt;stroke-linejoin:miter;stroke:#000;stroke-opacity:1;stroke-miterlimit:10" d="M0-26.638V79.515" transform="matrix(1 0 0 -1 80.586 88.214)"/><path style="fill:none;stroke-width:.3985;stroke-linecap:round;stroke-linejoin:round;stroke:#000;stroke-opacity:1;stroke-miterlimit:10" d="M-2.073 2.39C-1.694.958-.851.278 0 0c-.852-.277-1.695-.957-2.074-2.39" transform="matrix(0 -1 -1 0 80.586 8.501)"/><use xlink:href="#c" x="78.041" y="5.187" style="fill:#000;fill-opacity:1"/><path style="fill:none;stroke-width:.3985;stroke-linecap:butt;stroke-linejoin:miter;stroke:#000;stroke-opacity:1;stroke-miterlimit:10" d="M19.387-18.216c15.48 1.926 27.734 6.059 33.59 11.317" transform="matrix(1 0 0 -1 80.586 88.214)"/><path style="fill:none;stroke-width:.3985;stroke-linecap:round;stroke-linejoin:round;stroke:#000;stroke-opacity:1;stroke-miterlimit:10" d="M-2.074 2.39C-1.695.958-.848.28 0 .002-.85-.277-1.694-.958-2.072-2.393" transform="scale(.99996 -.99996) rotate(43.219 186.75 121.283)"/><path style="fill:none;stroke-width:.3985;stroke-linecap:butt;stroke-linejoin:miter;stroke:#000;stroke-opacity:1;stroke-miterlimit:10" d="m40.086-13.712 20.043-6.851" transform="matrix(1 0 0 -1 80.586 88.214)"/><g style="fill:#000;fill-opacity:1"><use xlink:href="#d" x="78.497" y="119.322"/><use xlink:href="#e" x="87.404" y="119.322"/><use xlink:href="#f" x="90.582" y="119.322"/><use xlink:href="#g" x="96.151" y="119.322"/><use xlink:href="#h" x="102.517" y="119.322"/><use xlink:href="#e" x="108.245" y="119.322"/><use xlink:href="#i" x="111.424" y="119.322"/><use xlink:href="#j" x="116.674" y="119.322"/></g><g style="fill:#000;fill-opacity:1"><use xlink:href="#k" x="119.852" y="119.322"/><use xlink:href="#l" x="125.74" y="119.322"/><use xlink:href="#m" x="130.632" y="119.322"/><use xlink:href="#n" x="134.178" y="119.322"/><use xlink:href="#o" x="143.583" y="119.322"/><use xlink:href="#p" x="149.77" y="119.322"/><use xlink:href="#q" x="153.605" y="119.322"/></g><g style="fill:#000;fill-opacity:1"><use xlink:href="#d" x="160.032" y="119.322"/><use xlink:href="#r" x="168.939" y="119.322"/><use xlink:href="#f" x="173.661" y="119.322"/><use xlink:href="#g" x="179.23" y="119.322"/><use xlink:href="#h" x="185.596" y="119.322"/><use xlink:href="#e" x="191.325" y="119.322"/><use xlink:href="#i" x="194.503" y="119.322"/><use xlink:href="#j" x="199.753" y="119.322"/></g><path style="fill:none;stroke-width:.3985;stroke-linecap:butt;stroke-linejoin:miter;stroke:#000;stroke-opacity:1;stroke-dasharray:2.98883,2.98883;stroke-miterlimit:10" d="m0 0 79.898-9.946" transform="matrix(1 0 0 -1 80.586 88.214)"/><path style="fill:none;stroke-width:.3985;stroke-linecap:butt;stroke-linejoin:miter;stroke:#000;stroke-opacity:1;stroke-miterlimit:10" d="M66.582-8.29c0 19.559-8.598 39.191-23.5 53.691" transform="matrix(1 0 0 -1 80.586 88.214)"/><path style="fill:none;stroke-width:.3985;stroke-linecap:round;stroke-linejoin:round;stroke:#000;stroke-opacity:1;stroke-miterlimit:10" d="M-2.072 2.389C-1.695.956-.852.278 0 .002-.85-.28-1.695-.958-2.072-2.39" transform="matrix(-.7201 -.69383 -.69383 .7201 123.529 42.674)"/><path style="fill:none;stroke-width:.3985;stroke-linecap:butt;stroke-linejoin:miter;stroke:#000;stroke-opacity:1;stroke-miterlimit:10" d="m60.34 20.628 24.14 8.25" transform="matrix(1 0 0 -1 80.586 88.214)"/><g style="fill:#000;fill-opacity:1"><use xlink:href="#d" x="100.422" y="53.815"/><use xlink:href="#e" x="109.329" y="53.815"/><use xlink:href="#f" x="112.507" y="53.815"/><use xlink:href="#g" x="118.076" y="53.815"/><use xlink:href="#h" x="124.442" y="53.815"/><use xlink:href="#e" x="130.17" y="53.815"/><use xlink:href="#i" x="133.349" y="53.815"/><use xlink:href="#j" x="138.599" y="53.815"/></g><g style="fill:#000;fill-opacity:1"><use xlink:href="#s" x="141.777" y="53.815"/><use xlink:href="#t" x="147.077" y="53.815"/><use xlink:href="#s" x="150.036" y="53.815"/><use xlink:href="#u" x="155.336" y="53.815"/><use xlink:href="#k" x="160.636" y="53.815"/><use xlink:href="#p" x="166.524" y="53.815"/><use xlink:href="#m" x="170.36" y="53.815"/><use xlink:href="#v" x="173.907" y="53.815"/><use xlink:href="#w" x="179.794" y="53.815"/></g><g style="fill:#000;fill-opacity:1"><use xlink:href="#d" x="186.809" y="53.815"/><use xlink:href="#r" x="195.716" y="53.815"/><use xlink:href="#f" x="200.438" y="53.815"/><use xlink:href="#g" x="206.007" y="53.815"/><use xlink:href="#h" x="212.373" y="53.815"/><use xlink:href="#e" x="218.102" y="53.815"/><use xlink:href="#i" x="221.28" y="53.815"/><use xlink:href="#j" x="226.53" y="53.815"/></g><path style="fill:none;stroke-width:.3985;stroke-linecap:butt;stroke-linejoin:miter;stroke:#000;stroke-opacity:1;stroke-dasharray:2.98883,2.98883;stroke-miterlimit:10" d="m0 0 51.36 54.812" transform="matrix(1 0 0 -1 80.586 88.214)"/><path style="fill:none;stroke-width:.3985;stroke-linecap:butt;stroke-linejoin:miter;stroke:#000;stroke-opacity:1;stroke-miterlimit:10" d="m51 61.566 10.633 4.21-3.606-10.98" transform="matrix(1 0 0 -1 80.586 88.214)"/><path style="fill:none;stroke-width:.3985;stroke-linecap:butt;stroke-linejoin:miter;stroke:#000;stroke-opacity:1;stroke-miterlimit:10" d="M53.363 62.5a11.154 11.154 0 0 1 5.465-5.266M57.437 61.3c-1.015.977-1.683 1.934-1.496 2.133.192.203 1.168-.426 2.18-1.403 1.016-.976 1.684-1.933 1.496-2.132-.191-.204-1.168.425-2.18 1.402Zm0 0" transform="matrix(1 0 0 -1 80.586 88.214)"/></svg>