<svg xmlns="http://www.w3.org/2000/svg" width="117.099" height="97.22pt" viewBox="0 0 87.824 97.22" version="1.2"><defs><clipPath id="a"><path d="M0 1h87.734v28H0Zm0 0"/></clipPath><clipPath id="b"><path d="M0 15h87.734v26H0Zm0 0"/></clipPath><clipPath id="c"><path d="M0 31h87.734v26H0Zm0 0"/></clipPath><clipPath id="d"><path d="M0 43h87.734v29H0Zm0 0"/></clipPath><clipPath id="e"><path d="M0 58h87.734v28H0Zm0 0"/></clipPath><clipPath id="f"><path d="M0 65h87.734v31.828H0Zm0 0"/></clipPath></defs><path style="fill:none;stroke-width:.79701;stroke-linecap:butt;stroke-linejoin:miter;stroke:#000;stroke-opacity:1;stroke-miterlimit:10" d="M0 85.039h85.04" transform="matrix(1 0 0 -1 1.328 86.066)"/><g clip-path="url(#a)"><path style="fill:none;stroke-width:.79701;stroke-linecap:butt;stroke-linejoin:miter;stroke:#000;stroke-opacity:1;stroke-miterlimit:10" d="m0 70.867 2.492 2.492 4.98-4.984 4.981 4.984 4.98-4.984 4.985 4.984 4.98-4.984 4.981 4.984 4.98-4.984 4.981 4.984 4.984-4.984 4.98 4.984 4.981-4.984 4.98 4.984 4.985-4.984 4.98 4.984 4.981-4.984 4.98 4.984 2.493-2.492h.355" transform="matrix(1 0 0 -1 1.328 86.066)"/></g><g clip-path="url(#b)"><path style="fill:none;stroke-width:.79701;stroke-linecap:butt;stroke-linejoin:miter;stroke:#000;stroke-opacity:1;stroke-miterlimit:10" d="M0 56.695c.375.746 1.246 1.242 2.492 1.242h37.54c1.242 0 2.113.5 2.488 1.246.375-.746 1.246-1.246 2.492-1.246H82.55c1.246 0 2.117-.496 2.488-1.242" transform="matrix(1 0 0 -1 1.328 86.066)"/></g><g clip-path="url(#c)"><path style="fill:none;stroke-width:.79701;stroke-linecap:butt;stroke-linejoin:miter;stroke:#000;stroke-opacity:1;stroke-miterlimit:10" d="m0 43.765 2.492-1.246L0 41.273Zm9.961 0 2.492-1.246-2.492-1.246Zm9.965 0 2.492-1.246-2.492-1.246Zm9.96 0 2.493-1.246-2.492-1.246Zm9.966 0 2.488-1.246-2.488-1.246Zm9.96 0 2.493-1.246-2.492-1.246Zm9.965 0 2.489-1.246-2.489-1.246Zm9.961 0 2.493-1.246-2.493-1.246Zm9.965 0 2.489-1.246-2.489-1.246Zm0 0" transform="matrix(1 0 0 -1 1.328 86.066)"/></g><g clip-path="url(#d)"><path style="fill:none;stroke-width:.79701;stroke-linecap:butt;stroke-linejoin:miter;stroke:#000;stroke-opacity:1;stroke-miterlimit:10" d="M0 28.347C.332 29.73 1.22 30.84 2.242 30.84c1.024 0 1.91-1.109 2.242-2.492.333-1.383.11-2.492-.25-2.492-.359 0-.582 1.11-.25 2.492.333 1.383 1.22 2.492 2.243 2.492s1.91-1.109 2.242-2.492c.332-1.383.11-2.492-.25-2.492s-.582 1.11-.25 2.492C8.3 29.73 9.188 30.84 10.21 30.84c1.024 0 1.91-1.109 2.242-2.492.332-1.383.11-2.492-.25-2.492s-.582 1.11-.25 2.492c.336 1.383 1.219 2.492 2.242 2.492 1.024 0 1.91-1.109 2.243-2.492.332-1.383.109-2.492-.25-2.492-.356 0-.578 1.11-.246 2.492.332 1.383 1.218 2.492 2.242 2.492 1.023 0 1.906-1.109 2.238-2.492.332-1.383.113-2.492-.246-2.492-.36 0-.582 1.11-.25 2.492.332 1.383 1.219 2.492 2.242 2.492 1.024 0 1.91-1.109 2.242-2.492.332-1.383.11-2.492-.25-2.492s-.582 1.11-.25 2.492c.332 1.383 1.219 2.492 2.242 2.492 1.024 0 1.91-1.109 2.243-2.492.332-1.383.109-2.492-.25-2.492-.36 0-.582 1.11-.25 2.492.332 1.383 1.218 2.492 2.242 2.492 1.023 0 1.91-1.109 2.242-2.492.332-1.383.11-2.492-.25-2.492s-.582 1.11-.25 2.492c.332 1.383 1.219 2.492 2.242 2.492 1.024 0 1.91-1.109 2.242-2.492.332-1.383.11-2.492-.25-2.492-.359 0-.578 1.11-.246 2.492.332 1.383 1.22 2.492 2.239 2.492 1.023 0 1.91-1.109 2.242-2.492.332-1.383.11-2.492-.246-2.492-.36 0-.582 1.11-.25 2.492.332 1.383 1.218 2.492 2.242 2.492 1.023 0 1.91-1.109 2.242-2.492.332-1.383.11-2.492-.25-2.492s-.582 1.11-.25 2.492c.332 1.383 1.219 2.492 2.242 2.492 1.024 0 1.91-1.109 2.242-2.492.332-1.383.11-2.492-.25-2.492-.359 0-.582 1.11-.25 2.492.332 1.383 1.22 2.492 2.243 2.492s1.91-1.109 2.242-2.492c.332-1.383.11-2.492-.25-2.492s-.582 1.11-.25 2.492c.332 1.383 1.219 2.492 2.242 2.492s1.91-1.109 2.242-2.492c.332-1.383.11-2.492-.25-2.492s-.578 1.11-.246 2.492c.332 1.383 1.215 2.492 2.238 2.492 1.024 0 1.91-1.109 2.243-2.492.332-1.383.109-2.492-.25-2.492-.356 0-.579 1.11-.247 2.492.332 1.383 1.22 2.492 2.243 2.492s1.906-1.109 2.238-2.492c.332-1.383.113-2.492-.246-2.492-.36 0-.582 1.11-.25 2.492.332 1.383 1.219 2.492 2.242 2.492s1.91-1.109 2.242-2.492c.332-1.383.11-2.492-.25-2.492s-.582 1.11-.25 2.492c.332 1.383 1.219 2.492 2.242 2.492 1.024 0 1.91-1.109 2.243-2.492.332-1.383.109-2.492-.25-2.492-.36 0-.582 1.11-.25 2.492.332 1.383 1.218 2.492 2.242 2.492 1.023 0 1.91-1.109 2.242-2.492.332-1.383.11-2.492-.25-2.492s-.582 1.11-.25 2.492c.336 1.383 1.219 2.492 2.242 2.492 1.024 0 1.91-1.109 2.242-2.492.332-1.383.11-2.492-.25-2.492-.355 0-.578 1.11-.246 2.492.332 1.383 1.219 2.492 2.242 2.492 1.024 0 1.907-1.109 2.239-2.492h.855" transform="matrix(1 0 0 -1 1.328 86.066)"/></g><g clip-path="url(#e)"><path style="fill:none;stroke-width:.79701;stroke-linecap:butt;stroke-linejoin:miter;stroke:#000;stroke-opacity:1;stroke-miterlimit:10" d="M0 14.171c.828 1.383 1.66 2.493 2.492 2.493.828 0 1.66-1.11 2.489-2.493.832-1.378 1.66-2.488 2.492-2.488.828 0 1.66 1.11 2.488 2.488.832 1.383 1.66 2.493 2.492 2.493.832 0 1.66-1.11 2.492-2.493.829-1.378 1.66-2.488 2.489-2.488.832 0 1.66 1.11 2.492 2.488.828 1.383 1.66 2.493 2.488 2.493.832 0 1.664-1.11 2.492-2.493.832-1.378 1.66-2.488 2.493-2.488.828 0 1.66 1.11 2.488 2.488.832 1.383 1.66 2.493 2.492 2.493.828 0 1.66-1.11 2.492-2.493.828-1.378 1.66-2.488 2.488-2.488.833 0 1.66 1.11 2.493 2.488.828 1.383 1.66 2.493 2.488 2.493.832 0 1.66-1.11 2.492-2.493.832-1.378 1.66-2.488 2.492-2.488.828 0 1.66 1.11 2.489 2.488.832 1.383 1.66 2.493 2.492 2.493.828 0 1.66-1.11 2.488-2.493.832-1.378 1.664-2.488 2.492-2.488.832 0 1.66 1.11 2.492 2.488.829 1.383 1.66 2.493 2.489 2.493.832 0 1.66-1.11 2.492-2.493.828-1.378 1.66-2.488 2.492-2.488.828 0 1.66 1.11 2.488 2.488.832 1.383 1.66 2.493 2.493 2.493.828 0 1.66-1.11 2.488-2.493.832-1.378 1.66-2.488 2.492-2.488.832 0 1.66 1.11 2.492 2.488.828 1.383 1.66 2.493 2.489 2.493.832 0 1.66-1.11 2.492-2.493h.355" transform="matrix(1 0 0 -1 1.328 86.066)"/></g><g clip-path="url(#f)"><path style="fill:none;stroke-width:.79701;stroke-linecap:butt;stroke-linejoin:miter;stroke:#000;stroke-opacity:1;stroke-miterlimit:10" d="M9.887 1.214a9.726 9.726 0 0 0 0-2.43m9.89 3.645c.2-1.613.2-3.246 0-4.86m9.887 6.075a29.907 29.907 0 0 0 0-7.285m9.89 8.496a39.985 39.985 0 0 0 0-9.71M49.443 6.07c.496-4.031.496-8.11 0-12.14m9.89 13.355a59.814 59.814 0 0 0 0-14.57M69.22 8.5a69.534 69.534 0 0 0 0-17m9.89 18.214a79.643 79.643 0 0 0 0-19.43" transform="matrix(1 0 0 -1 1.328 86.066)"/></g></svg>