<svg xmlns="http://www.w3.org/2000/svg" xmlns:xlink="http://www.w3.org/1999/xlink" width="330.507" height="285.435" viewBox="0 0 247.88 214.076" version="1.2"><defs><symbol overflow="visible" id="b"><path style="stroke:none" d="M8.547-.953c0-.219-.14-.219-.235-.219-.203 0-.218.11-.234.234-.047.47-.328.688-.625.688-.61 0-.687-.703-.75-1.125-.016-.11-.094-.797-.11-.844-.14-.703-.687-1.015-1.109-1.172C6.641-3.687 7.141-4.344 7.141-5c0-1-1.094-1.844-2.97-1.844H.392v.469h1.078v5.906H.39V0C.75-.031 1.719-.031 2.14-.031c.421 0 1.39 0 1.75.031v-.469H2.828v-2.765h1.156c.141 0 .579 0 .891.328.313.36.313.547.313 1.265 0 .657 0 1.157.703 1.485.437.218 1.062.265 1.468.265 1.063 0 1.188-.89 1.188-1.062ZM5.625-4.984c0 .562 0 1.39-1.64 1.39H2.827v-2.781H4c1.61 0 1.625.781 1.625 1.39Zm0 0"/></symbol><symbol overflow="visible" id="c"><path style="stroke:none" d="M4.922-1.172c0-.172-.188-.172-.234-.172-.172 0-.188.047-.25.203-.204.485-.782.797-1.422.797-1.407 0-1.422-1.328-1.422-1.828h3.015c.22 0 .313 0 .313-.265 0-.313-.063-1.047-.563-1.547-.359-.36-.89-.532-1.578-.532C1.187-4.516.312-3.484.312-2.25c0 1.344 1 2.313 2.61 2.313 1.578 0 2-1.063 2-1.235ZM3.984-2.5h-2.39c.015-.39.031-.813.234-1.14.266-.391.672-.516.953-.516 1.172 0 1.188 1.312 1.203 1.656Zm0 0"/></symbol><symbol overflow="visible" id="d"><path style="stroke:none" d="M5.563-3.953c0-.235-.172-.578-.625-.578-.157 0-.625.031-1.063.375-.172-.125-.594-.328-1.328-.328-1.438 0-1.985.78-1.985 1.468 0 .407.188.829.516 1.047-.281.36-.344.688-.344.89 0 .157.047.641.438.954-.125.031-.86.25-.86.875C.313 1.25.875 2 2.86 2 4.625 2 5.406 1.422 5.406.719c0-.297-.078-.922-.75-1.266-.562-.281-1.156-.281-2.11-.281-.265 0-.718 0-.765-.016a.625.625 0 0 1-.562-.625c0-.093.047-.25.11-.328.452.234.968.266 1.218.266 1.437 0 1.984-.782 1.984-1.485 0-.468-.25-.796-.406-.953.297-.156.516-.172.625-.187a.433.433 0 0 0-.047.203c0 .25.172.422.438.422a.41.41 0 0 0 .421-.422Zm-2.141.937c0 .454 0 1.125-.875 1.125s-.875-.671-.875-1.125c0-.437 0-1.109.875-1.109s.875.672.875 1.11ZM4.547.75c0 .36-.39.89-1.688.89-1.187 0-1.687-.452-1.687-.906 0-.609.625-.609.766-.609h1.171c.313 0 1.438 0 1.438.625Zm0 0"/></symbol><symbol overflow="visible" id="e"><path style="stroke:none" d="M6.125 0v-.469c-.61 0-.688 0-.688-.39v-3.625l-1.812.078v.468c.61 0 .688 0 .688.391v1.906c0 .813-.516 1.344-1.235 1.344-.781 0-.812-.25-.812-.797v-3.39l-1.813.078v.468c.61 0 .688 0 .688.391v2.328c0 1.063.796 1.282 1.796 1.282.25 0 .97 0 1.422-.782v.781Zm0 0"/></symbol><symbol overflow="visible" id="f"><path style="stroke:none" d="M2.922 0v-.469h-.688v-6.453L.47-6.844v.469c.625 0 .687 0 .687.39v5.516H.47V0l1.219-.031Zm0 0"/></symbol><symbol overflow="visible" id="g"><path style="stroke:none" d="M5.516-.234c0-.235-.125-.235-.266-.235-.61-.015-.61-.14-.61-.375v-2.14c0-.891-.702-1.532-2.187-1.532-.562 0-1.781.047-1.781.922 0 .438.344.625.61.625.312 0 .624-.219.624-.625 0-.297-.187-.469-.218-.5a5.28 5.28 0 0 1 .718-.062c.75 0 1.11.422 1.11 1.172v.343c-.72.032-3.25.125-3.25 1.563C.266-.125 1.5.062 2.187.062c.797 0 1.266-.406 1.485-.828 0 .313 0 .766 1.047.766h.468c.204 0 .329 0 .329-.234Zm-2-1.157c0 .97-.922 1.094-1.172 1.094-.516 0-.906-.344-.906-.797 0-1.062 1.578-1.203 2.078-1.234Zm0 0"/></symbol><symbol overflow="visible" id="h"><path style="stroke:none" d="M4.406-3.672c0-.531-.531-.812-1.062-.812-.688 0-1.094.5-1.313 1.125v-1.125l-1.656.078v.468c.61 0 .688 0 .688.391v3.078H.375V0l1.25-.031C2-.031 2.641-.031 3 0v-.469h-.86v-1.75c0-.687.235-1.906 1.235-1.906 0 0-.188.172-.188.453 0 .406.329.61.61.61.297 0 .61-.204.61-.61Zm0 0"/></symbol><symbol overflow="visible" id="i"><path style="stroke:none" d="M7.188-4.89c0-1.094-.985-1.954-2.641-1.954H.39v.469h1.078v5.906H.39V0C.766-.031 1.75-.031 2.17-.031c.438 0 1.407 0 1.782.031v-.469H2.875v-2.547h1.766c1.39 0 2.546-.718 2.546-1.875Zm-1.532 0c0 .702 0 1.468-1.5 1.468H2.828v-2.953h1.344c1.484 0 1.484.766 1.484 1.484Zm0 0"/></symbol><symbol overflow="visible" id="j"><path style="stroke:none" d="M5.406-2.172c0-1.344-.922-2.344-2.547-2.344C1.22-4.516.313-3.5.313-2.172c0 1.235.89 2.235 2.546 2.235 1.672 0 2.547-1.016 2.547-2.235Zm-1.281-.11c0 .86 0 1.938-1.266 1.938-1.265 0-1.265-1.078-1.265-1.937 0-.453 0-.953.172-1.297.187-.375.609-.578 1.093-.578.422 0 .844.156 1.063.5.203.344.203.89.203 1.375Zm0 0"/></symbol><symbol overflow="visible" id="k"><path style="stroke:none" d="M5.781-3.953v-.469A12.55 12.55 0 0 1 5-4.39l-.906-.03v.468s.468 0 .468.11L4.5-3.72 3.36-1.266 2.093-3.953h.531v-.469l-1.234.031-1.125-.03v.468H.89L2.766 0 2.53.484C2.312.954 2 1.641 1.281 1.641c-.14 0-.156-.016-.234-.047.094-.032.312-.172.312-.532C1.36.734 1.125.5.781.5a.553.553 0 0 0-.562.578c0 .5.469.922 1.062.922.766 0 1.344-.625 1.625-1.188l2.14-4.562c.063-.14.095-.203.735-.203Zm0 0"/></symbol><symbol overflow="visible" id="l"><path style="stroke:none" d="M6.125 0v-.469h-.688v-2.578c0-1.047-.53-1.437-1.53-1.437-.954 0-1.485.562-1.75 1.078v-1.078l-1.704.078v.468c.61 0 .688 0 .688.391v3.078H.453V0l1.25-.031L2.953 0v-.469h-.687v-2.078c0-1.094.859-1.578 1.5-1.578.328 0 .546.203.546.969V-.47h-.687V0l1.25-.031Zm0 0"/></symbol><symbol overflow="visible" id="m"><path style="stroke:none" d="M3.078.313c0-.126-.047-.157-.187-.25C2.062-.5 1.75-1.391 1.75-2.126c0-.672.25-1.594 1.156-2.203.125-.094.172-.125.172-.25a.254.254 0 0 0-.265-.25c-.204 0-1.641.906-1.641 2.703 0 .813.312 1.438.562 1.781.375.516.907.906 1.079.906.218 0 .265-.171.265-.25Zm0 0"/></symbol><symbol overflow="visible" id="n"><path style="stroke:none" d="M3.219-.906c0-.735-.906-.906-1.14-.938l-.704-.125C1.187-2 1-2.079 1-2.25c0-.156.219-.328.813-.328.515 0 .609.172.625.328.015.14.03.281.28.281.298 0 .298-.156.298-.328v-.469c0-.14-.016-.328-.25-.328-.157 0-.22.063-.25.125-.282-.125-.563-.125-.688-.125-1.187 0-1.344.594-1.344.844 0 .656.735.797 1.391.89.297.063.828.141.828.454 0 .234-.25.422-.828.422-.297 0-.656-.063-.813-.563-.03-.156-.078-.234-.28-.234-.298 0-.298.172-.298.328v.656c0 .14 0 .344.25.344.079 0 .188 0 .282-.234.328.218.671.234.859.234 1.125 0 1.344-.61 1.344-.953Zm0 0"/></symbol><symbol overflow="visible" id="o"><path style="stroke:none" d="M2.313-.469a.477.477 0 0 0-.485-.484.47.47 0 0 0-.469.469c0 .28.22.484.47.484a.473.473 0 0 0 .484-.469Zm0 0"/></symbol><symbol overflow="visible" id="p"><path style="stroke:none" d="M3.266-.797c0-.234-.235-.234-.297-.234-.125 0-.203 0-.266.172-.047.078-.187.375-.625.375a1.027 1.027 0 0 1-1.015-1.032c0-.312.187-1.062 1.062-1.062l.344.015c.015.282.172.376.36.376.187 0 .358-.126.358-.36 0-.531-.734-.547-1.062-.547-1.219 0-1.64.953-1.64 1.578 0 .844.671 1.563 1.546 1.563 1 0 1.235-.719 1.235-.844Zm0 0"/></symbol><symbol overflow="visible" id="q"><path style="stroke:none" d="M3.281-1.516c0-.89-.672-1.578-1.453-1.578-.797 0-1.453.688-1.453 1.578 0 .891.672 1.563 1.453 1.563.766 0 1.453-.688 1.453-1.563Zm-.578-.046c0 .593-.406 1.078-.875 1.078S.953-.97.953-1.563c0-.593.422-1.015.875-1.015s.875.422.875 1.015Zm0 0"/></symbol><symbol overflow="visible" id="r"><path style="stroke:none" d="M3.406-2.594c0-.156-.078-.484-.703-.484-.328 0-.734.11-1.094.469v-.094c0-.25-.046-.328-.328-.328h-.75c-.125 0-.328 0-.328.25 0 .265.203.265.328.265h.5v2h-.5c-.125 0-.328 0-.328.25C.203 0 .406 0 .531 0h1.781c.126 0 .329 0 .329-.266 0-.25-.204-.25-.329-.25H1.61v-.796c0-.61.36-1.22 1.11-1.235 0 .156.172.281.344.281.187 0 .343-.125.343-.328Zm0 0"/></symbol><symbol overflow="visible" id="s"><path style="stroke:none" d="M3.578-.266c0-.25-.203-.25-.328-.25H3v-1.53c0-.72-.36-1.032-.938-1.032-.39 0-.671.172-.843.297 0-.172-.047-.25-.313-.25h-.5c-.14 0-.328 0-.328.25 0 .265.203.265.313.265h.25v2H.406c-.14 0-.328 0-.328.25C.078 0 .281 0 .391 0h1.093c.11 0 .329 0 .329-.266 0-.25-.204-.25-.344-.25h-.25v-1.156c0-.64.484-.875.797-.875.328 0 .406.172.406.547v1.484h-.203c-.14 0-.344 0-.344.25 0 .266.219.266.344.266H3.25c.11 0 .328 0 .328-.266Zm0 0"/></symbol><symbol overflow="visible" id="t"><path style="stroke:none" d="M3.25-.797c0-.234-.234-.234-.281-.234-.156 0-.219.015-.281.172-.141.328-.485.375-.657.375-.469 0-.937-.297-1.062-.813h1.953c.172 0 .328 0 .328-.312 0-.797-.453-1.485-1.375-1.485-.828 0-1.516.703-1.516 1.563S1.08.047 1.984.047c.938 0 1.266-.656 1.266-.844Zm-.594-1.015H.97c.125-.438.484-.766.906-.766.328 0 .703.156.781.765Zm0 0"/></symbol><symbol overflow="visible" id="u"><path style="stroke:none" d="M3.094-.266c0-.25-.188-.25-.313-.25H2.22V-4c0-.125-.016-.328-.266-.328-.156 0-.219.094-.25.187-.234.547-.578.625-.687.641-.141 0-.313.031-.313.266 0 .203.156.25.281.25.125 0 .375-.032.657-.235v2.703h-.563c-.14 0-.328 0-.328.25C.75 0 .953 0 1.078 0h1.703c.125 0 .313 0 .313-.266Zm0 0"/></symbol><symbol overflow="visible" id="v"><path style="stroke:none" d="M2.484-2.125c0-.828-.312-1.453-.562-1.797-.375-.515-.906-.906-1.078-.906-.203 0-.266.187-.266.25 0 .125.094.187.14.219 1.095.718 1.188 1.796 1.188 2.234 0 .656-.25 1.578-1.14 2.188C.64.14.578.186.578.313c0 .078.063.25.266.25s1.64-.907 1.64-2.688Zm0 0"/></symbol><symbol overflow="visible" id="w"><path style="stroke:none" d="M3.297-.328v-.188c0-.156 0-.328-.266-.328-.265 0-.297.125-.297.328H1.313c.406-.343.968-.796 1.234-1.03.437-.391.75-.845.75-1.407 0-.844-.703-1.375-1.563-1.375-.828 0-1.39.578-1.39 1.187 0 .297.234.375.36.375.171 0 .359-.14.359-.359a.345.345 0 0 0-.094-.234c.11-.266.39-.454.734-.454.531 0 1.031.297 1.031.86 0 .453-.328.844-.765 1.203L.469-.484C.39-.422.344-.391.344-.266.344 0 .547 0 .672 0h2.312c.266 0 .313-.063.313-.328Zm0 0"/></symbol><symbol overflow="visible" id="x"><path style="stroke:none" d="M3.36-1.234c0-.47-.297-.875-.72-1.094.344-.25.516-.64.516-1 0-.516-.515-1-1.328-1-.86 0-1.344.36-1.344.844 0 .265.204.375.36.375.172 0 .36-.141.36-.36 0-.078-.032-.14-.048-.172.203-.171.625-.171.688-.171.422 0 .734.218.734.5a.718.718 0 0 1-.25.546c-.219.172-.375.188-.61.188-.437 0-.546.062-.546.281 0 .266.203.266.328.266h.313c.64 0 .968.422.968.797 0 .39-.36.78-.937.78-.25 0-.719-.062-.907-.327A.364.364 0 0 0 1-1a.363.363 0 0 0-.36-.36c-.171 0-.343.126-.343.391C.297-.344.969.078 1.844.078c.922 0 1.515-.656 1.515-1.312Zm0 0"/></symbol><symbol overflow="visible" id="y"><path style="stroke:none" d="M3.469-1.406c0-.266-.203-.266-.328-.266h-.485V-4c0-.266-.047-.344-.328-.344h-.187c-.188 0-.235.016-.329.172L.266-1.734c-.079.093-.079.109-.079.265 0 .266.079.313.329.313h1.656v.64h-.36c-.14 0-.328 0-.328.25 0 .266.188.266.329.266H3.03c.125 0 .328 0 .328-.266 0-.25-.203-.25-.328-.25h-.375v-.64h.485c.125 0 .328 0 .328-.25Zm-1.313-.266H.812l1.344-2.125Zm0 0"/></symbol><symbol overflow="visible" id="z"><path style="stroke:none" d="M3.297-1.344c0-.718-.531-1.406-1.36-1.406-.234 0-.515.047-.78.172v-1.156H2.75c.11 0 .313-.016.313-.266s-.188-.266-.313-.266H.906c-.265 0-.312.079-.312.344v1.797c0 .156 0 .344.265.344.157 0 .188-.047.25-.125.172-.203.438-.328.813-.328.531 0 .812.484.812.89 0 .516-.468.89-1 .89-.171 0-.562-.046-.75-.358.032-.047.079-.11.079-.22a.367.367 0 0 0-.36-.374c-.125 0-.36.078-.36.39C.344-.437.939.078 1.735.078c.875 0 1.563-.64 1.563-1.422Zm0 0"/></symbol><symbol overflow="visible" id="A"><path style="stroke:none" d="M3.188-.266c0-.25-.204-.25-.329-.25h-.656v-2.187c0-.25-.047-.328-.328-.328H.906c-.125 0-.328 0-.328.25 0 .265.203.265.328.265h.719v2H.859c-.14 0-.343 0-.343.25C.516 0 .734 0 .859 0h2c.125 0 .329 0 .329-.266Zm-.954-3.562a.39.39 0 0 0-.406-.39.387.387 0 0 0-.39.39c0 .219.171.39.39.39a.39.39 0 0 0 .406-.39Zm0 0"/></symbol><symbol overflow="visible" id="B"><path style="stroke:none" d="M3.578-.266c0-.25-.203-.25-.328-.25H3v-3.406c0-.25-.047-.344-.328-.344h-.485c-.14 0-.343.016-.343.266s.218.266.328.266h.25v.906a1.261 1.261 0 0 0-.735-.25c-.765 0-1.453.672-1.453 1.562C.234-.64.875.047 1.625.047c.344 0 .61-.14.797-.313.015.188.062.266.328.266h.5c.125 0 .328 0 .328-.266ZM2.422-1.375c0 .36-.297.89-.781.89-.454 0-.829-.453-.829-1.03 0-.61.438-1.032.891-1.032.406 0 .719.344.719.688Zm0 0"/></symbol><symbol overflow="visible" id="C"><path style="stroke:none" d="M3.14-.906c0-.156 0-.313-.296-.313-.266 0-.266.157-.266.297-.015.375-.36.438-.515.438-.454 0-.454-.313-.454-.47v-1.562h1.047c.125 0 .328 0 .328-.265 0-.25-.187-.25-.328-.25H1.61v-.516c0-.14-.015-.328-.296-.328-.282 0-.282.172-.282.328v.516H.484c-.125 0-.328 0-.328.25 0 .265.203.265.328.265h.547v1.61c0 .687.485.953 1.016.953S3.14-.266 3.14-.906Zm0 0"/></symbol><symbol overflow="visible" id="D"><path style="stroke:none" d="M3.469-.266c0-.25-.203-.25-.328-.25h-.25l-.829-1.046.735-.954h.234c.125 0 .344 0 .344-.265 0-.25-.219-.25-.344-.25H2.25c-.125 0-.328 0-.328.25 0 .203.11.265.281.265l-.39.547-.422-.547c.156 0 .28-.062.28-.265 0-.25-.202-.25-.327-.25H.547c-.125 0-.328 0-.328.25 0 .265.218.265.328.265h.25l.75.954L.75-.516H.516c-.125 0-.344 0-.344.25C.172 0 .39 0 .516 0h.78c.126 0 .329 0 .329-.266 0-.203-.11-.25-.297-.25l.484-.703.5.703c-.187 0-.296.047-.296.25 0 .266.203.266.328.266h.797c.109 0 .328 0 .328-.266Zm0 0"/></symbol><symbol overflow="visible" id="E"><path style="stroke:none" d="M3.64-.266c0-.218-.14-.25-.39-.25v-1.593c0-.157-.016-.97-.656-.97a.842.842 0 0 0-.656.313.61.61 0 0 0-.532-.312.875.875 0 0 0-.547.203c-.046-.156-.187-.156-.312-.156H.328c-.125 0-.328 0-.328.25 0 .234.125.265.39.265v2c-.265 0-.39.032-.39.25C0 0 .219 0 .328 0h.594c.125 0 .312 0 .312-.266 0-.218-.109-.25-.359-.25v-1.171c0-.563.234-.86.5-.86.14 0 .203.11.203.5v1.531c-.156 0-.281.032-.281.25 0 .266.187.266.312.266h.516c.125 0 .313 0 .313-.266 0-.218-.126-.25-.376-.25v-1.171c0-.563.25-.86.5-.86.141 0 .204.11.204.5v1.531c-.141 0-.282.032-.282.25 0 .266.204.266.313.266h.5c.125 0 .344 0 .344-.266Zm0 0"/></symbol><symbol overflow="visible" id="F"><path style="stroke:none" d="M3.422-1.516c0-.875-.64-1.562-1.39-1.562-.298 0-.579.11-.813.265v-1.109c0-.25-.047-.344-.313-.344h-.5c-.14 0-.344.016-.344.266s.22.266.329.266h.25v3.406C.64-.172.656 0 .937 0c.22 0 .282-.094.282-.234.265.218.531.28.734.28.766 0 1.469-.671 1.469-1.562Zm-.578 0c0 .61-.453 1.032-.906 1.032-.485 0-.704-.563-.704-.875v-.485c0-.375.375-.703.766-.703.469 0 .844.469.844 1.031Zm0 0"/></symbol><symbol overflow="visible" id="G"><path style="stroke:none" d="M3.625-.266c0-.25-.203-.25-.328-.25-.203 0-.297-.03-.344-.046V-2c0-.5-.375-1.094-1.406-1.094-.313 0-1.031.016-1.031.547 0 .235.171.36.359.36.11 0 .344-.063.344-.36 0 0 .234-.031.343-.031.454 0 .782.187.813.594-1.219.03-2.047.39-2.047 1.062 0 .485.453.969 1.188.969.234 0 .656-.047.968-.25.172.187.485.203.75.203.235 0 .391-.016.391-.266ZM2.359-.969c0 .14 0 .266-.234.375-.234.11-.516.11-.578.11-.39 0-.64-.204-.64-.438 0-.312.546-.515 1.452-.562Zm0 0"/></symbol><symbol overflow="visible" id="H"><path style="stroke:none" d="M3.36-4c0-.25-.188-.266-.329-.266H.828c-.062-.093-.187-.109-.25-.109-.281 0-.281.188-.281.344v.281c0 .156 0 .328.281.328.266 0 .281-.125.297-.312h1.61C1.358-2.5 1.155-1.031 1.155-.297c0 .11 0 .375.282.375.14 0 .28-.094.28-.328a4.937 4.937 0 0 1 1.47-3.469c.171-.14.171-.156.171-.281Zm0 0"/></symbol><symbol overflow="visible" id="I"><path style="stroke:none" d="M3.547-2.781c0-.25-.188-.25-.328-.25h-.781c-.157 0-.344 0-.344.25 0 .265.172.265.344.265h.265l-.297 1.72-.14-.532c-.125-.469-.172-.547-.422-.547-.094 0-.235 0-.328.188l-.266.906-.297-1.735h.266c.156 0 .343 0 .343-.265 0-.25-.187-.25-.343-.25H.437c-.14 0-.343 0-.343.25 0 .234.14.265.36.265L.858-.28c.032.187.047.312.36.312.312 0 .343-.062.453-.515l.172-.641.265 1c.094.14.235.156.344.156.281 0 .313-.125.344-.312l.406-2.235c.219 0 .344-.03.344-.265Zm0 0"/></symbol><symbol overflow="visible" id="J"><path style="stroke:none" d="M3.578-.266c0-.25-.203-.25-.328-.25H3v-1.53c0-.72-.36-1.032-.938-1.032-.39 0-.671.172-.843.297v-1.14c0-.25-.047-.345-.313-.345h-.5c-.14 0-.328.016-.328.266s.203.266.313.266h.25v3.218H.406c-.14 0-.328 0-.328.25C.078 0 .281 0 .391 0h1.093c.11 0 .329 0 .329-.266 0-.25-.204-.25-.344-.25h-.25v-1.156c0-.64.484-.875.797-.875.328 0 .406.172.406.547v1.484h-.203c-.14 0-.344 0-.344.25 0 .266.219.266.344.266H3.25c.11 0 .328 0 .328-.266Zm0 0"/></symbol><symbol overflow="visible" id="K"><path style="stroke:none" d="M3.578-.266c0-.25-.219-.25-.328-.25H3v-2.187c0-.25-.047-.328-.328-.328h-.485c-.14 0-.343 0-.343.25 0 .265.218.265.328.265h.25v1.391c0 .563-.516.64-.719.64-.469 0-.484-.187-.484-.39v-1.828c0-.25-.047-.328-.313-.328h-.5c-.14 0-.328 0-.328.25 0 .265.203.265.313.265h.25v1.688c0 .687.5.875 1.03.875.266 0 .516-.063.766-.219C2.485 0 2.626 0 2.75 0h.5c.125 0 .328 0 .328-.266Zm0 0"/></symbol><clipPath id="a"><path d="M0 0h247.82v213.613H0Zm0 0"/></clipPath></defs><path style="stroke:none;fill-rule:nonzero;fill:#fffbb3;fill-opacity:1" d="m123.89 18.172-93.816 68.16 35.836 110.29h115.961l35.836-110.29Zm0 0"/><g clip-path="url(#a)"><path style="fill:none;stroke-width:14.17339;stroke-linecap:butt;stroke-linejoin:miter;stroke:#b2b2b2;stroke-opacity:1;stroke-miterlimit:10" d="m-.001 98.643-93.817-68.16 35.836-110.29H57.98l35.836 110.29Zm0 0" transform="matrix(1 0 0 -1 123.892 116.815)"/></g><g style="fill:#b2b2b2;fill-opacity:1"><use xlink:href="#b" x="81.635" y="144.16"/><use xlink:href="#c" x="90.233" y="144.16"/><use xlink:href="#d" x="95.483" y="144.16"/><use xlink:href="#e" x="101.212" y="144.16"/><use xlink:href="#f" x="107.578" y="144.16"/><use xlink:href="#g" x="110.756" y="144.16"/><use xlink:href="#h" x="116.325" y="144.16"/></g><use xlink:href="#i" x="124.863" y="144.16" style="fill:#b2b2b2;fill-opacity:1"/><g style="fill:#b2b2b2;fill-opacity:1"><use xlink:href="#j" x="132.375" y="144.16"/><use xlink:href="#f" x="138.103" y="144.16"/><use xlink:href="#k" x="141.281" y="144.16"/><use xlink:href="#d" x="147.329" y="144.16"/><use xlink:href="#j" x="153.057" y="144.16"/><use xlink:href="#l" x="158.786" y="144.16"/></g><path style="fill:none;stroke-width:.996;stroke-linecap:butt;stroke-linejoin:miter;stroke:#b2b2b2;stroke-opacity:1;stroke-miterlimit:10" d="M-.002-.001v58.695" transform="matrix(1 0 0 -1 165.65 146.163)"/><path style="fill:none;stroke-width:.3985;stroke-linecap:butt;stroke-linejoin:miter;stroke:#000;stroke-opacity:1;stroke-miterlimit:10" d="m-1.408 105.995 2.817 2.816m-2.817 0 2.817-2.816" transform="matrix(1 0 0 -1 123.892 116.815)"/><g style="fill:#000;fill-opacity:1"><use xlink:href="#m" x="101.924" y="5.336"/><use xlink:href="#n" x="105.585" y="5.336"/><use xlink:href="#o" x="109.247" y="5.336"/><use xlink:href="#p" x="112.908" y="5.336"/><use xlink:href="#q" x="116.569" y="5.336"/><use xlink:href="#r" x="120.23" y="5.336"/><use xlink:href="#s" x="123.892" y="5.336"/><use xlink:href="#t" x="127.553" y="5.336"/><use xlink:href="#r" x="131.214" y="5.336"/></g><g style="fill:#000;fill-opacity:1"><use xlink:href="#u" x="138.537" y="5.336"/><use xlink:href="#v" x="142.198" y="5.336"/></g><path style="fill:none;stroke-width:.3985;stroke-linecap:butt;stroke-linejoin:miter;stroke:#000;stroke-opacity:1;stroke-miterlimit:10" d="m-103.556 31.78 2.816 2.82m-2.816 0 2.816-2.82" transform="matrix(1 0 0 -1 123.892 116.815)"/><g style="fill:#000;fill-opacity:1"><use xlink:href="#m" x="-.221" y="79.548"/><use xlink:href="#n" x="3.44" y="79.548"/><use xlink:href="#o" x="7.102" y="79.548"/><use xlink:href="#p" x="10.763" y="79.548"/><use xlink:href="#q" x="14.424" y="79.548"/><use xlink:href="#r" x="18.085" y="79.548"/><use xlink:href="#s" x="21.747" y="79.548"/><use xlink:href="#t" x="25.408" y="79.548"/><use xlink:href="#r" x="29.069" y="79.548"/></g><g style="fill:#000;fill-opacity:1"><use xlink:href="#w" x="36.385" y="79.548"/><use xlink:href="#v" x="40.046" y="79.548"/></g><path style="fill:none;stroke-width:.3985;stroke-linecap:butt;stroke-linejoin:miter;stroke:#000;stroke-opacity:1;stroke-miterlimit:10" d="m-64.537-88.298 2.817 2.816m-2.817 0 2.817-2.816" transform="matrix(1 0 0 -1 123.892 116.815)"/><g style="fill:#000;fill-opacity:1"><use xlink:href="#m" x="13.308" y="205.839"/><use xlink:href="#n" x="16.969" y="205.839"/><use xlink:href="#o" x="20.631" y="205.839"/><use xlink:href="#p" x="24.292" y="205.839"/><use xlink:href="#q" x="27.953" y="205.839"/><use xlink:href="#r" x="31.614" y="205.839"/><use xlink:href="#s" x="35.276" y="205.839"/><use xlink:href="#t" x="38.937" y="205.839"/><use xlink:href="#r" x="42.598" y="205.839"/></g><g style="fill:#000;fill-opacity:1"><use xlink:href="#x" x="49.921" y="205.839"/><use xlink:href="#v" x="53.582" y="205.839"/></g><path style="fill:none;stroke-width:.3985;stroke-linecap:butt;stroke-linejoin:miter;stroke:#000;stroke-opacity:1;stroke-miterlimit:10" d="m61.721-88.298 2.817 2.816m-2.817 0 2.817-2.816" transform="matrix(1 0 0 -1 123.892 116.815)"/><g style="fill:#000;fill-opacity:1"><use xlink:href="#m" x="190.54" y="205.839"/><use xlink:href="#n" x="194.201" y="205.839"/><use xlink:href="#o" x="197.863" y="205.839"/><use xlink:href="#p" x="201.524" y="205.839"/><use xlink:href="#q" x="205.185" y="205.839"/><use xlink:href="#r" x="208.846" y="205.839"/><use xlink:href="#s" x="212.508" y="205.839"/><use xlink:href="#t" x="216.169" y="205.839"/><use xlink:href="#r" x="219.83" y="205.839"/></g><g style="fill:#000;fill-opacity:1"><use xlink:href="#y" x="227.153" y="205.839"/><use xlink:href="#v" x="230.814" y="205.839"/></g><path style="fill:none;stroke-width:.3985;stroke-linecap:butt;stroke-linejoin:miter;stroke:#000;stroke-opacity:1;stroke-miterlimit:10" d="m100.737 31.78 2.82 2.82m-2.82 0 2.82-2.82" transform="matrix(1 0 0 -1 123.892 116.815)"/><g style="fill:#000;fill-opacity:1"><use xlink:href="#m" x="204.069" y="79.548"/><use xlink:href="#n" x="207.73" y="79.548"/><use xlink:href="#o" x="211.392" y="79.548"/><use xlink:href="#p" x="215.053" y="79.548"/><use xlink:href="#q" x="218.714" y="79.548"/><use xlink:href="#r" x="222.375" y="79.548"/><use xlink:href="#s" x="226.037" y="79.548"/><use xlink:href="#t" x="229.698" y="79.548"/><use xlink:href="#r" x="233.359" y="79.548"/></g><g style="fill:#000;fill-opacity:1"><use xlink:href="#z" x="240.682" y="79.548"/><use xlink:href="#v" x="244.343" y="79.548"/></g><path style="fill:none;stroke-width:.3985;stroke-linecap:butt;stroke-linejoin:miter;stroke:#000;stroke-opacity:1;stroke-miterlimit:10" d="m-52.482 68.885 2.817 2.82m-2.817 0 2.817-2.82" transform="matrix(1 0 0 -1 123.892 116.815)"/><g style="fill:#000;fill-opacity:1"><use xlink:href="#m" x="54.513" y="42.442"/><use xlink:href="#n" x="58.174" y="42.442"/><use xlink:href="#o" x="61.836" y="42.442"/><use xlink:href="#n" x="65.497" y="42.442"/><use xlink:href="#A" x="69.158" y="42.442"/><use xlink:href="#B" x="72.819" y="42.442"/><use xlink:href="#t" x="76.481" y="42.442"/></g><g style="fill:#000;fill-opacity:1"><use xlink:href="#u" x="83.796" y="42.442"/><use xlink:href="#v" x="87.457" y="42.442"/></g><path style="fill:none;stroke-width:.3985;stroke-linecap:butt;stroke-linejoin:miter;stroke:#000;stroke-opacity:1;stroke-miterlimit:10" d="m-84.048-28.26 2.82 2.817m-2.82 0 2.82-2.816" transform="matrix(1 0 0 -1 123.892 116.815)"/><g style="fill:#000;fill-opacity:1"><use xlink:href="#m" x="1.122" y="145.8"/><use xlink:href="#n" x="4.783" y="145.8"/><use xlink:href="#o" x="8.445" y="145.8"/><use xlink:href="#n" x="12.106" y="145.8"/><use xlink:href="#A" x="15.767" y="145.8"/><use xlink:href="#B" x="19.428" y="145.8"/><use xlink:href="#t" x="23.09" y="145.8"/></g><g style="fill:#000;fill-opacity:1"><use xlink:href="#w" x="30.412" y="145.8"/><use xlink:href="#v" x="34.073" y="145.8"/></g><path style="fill:none;stroke-width:.3985;stroke-linecap:butt;stroke-linejoin:miter;stroke:#000;stroke-opacity:1;stroke-miterlimit:10" d="m-1.408-88.298 2.817 2.816m-2.817 0 2.817-2.816" transform="matrix(1 0 0 -1 123.892 116.815)"/><g style="fill:#000;fill-opacity:1"><use xlink:href="#m" x="105.585" y="212.051"/><use xlink:href="#n" x="109.246" y="212.051"/><use xlink:href="#o" x="112.908" y="212.051"/><use xlink:href="#n" x="116.569" y="212.051"/><use xlink:href="#A" x="120.23" y="212.051"/><use xlink:href="#B" x="123.891" y="212.051"/><use xlink:href="#t" x="127.553" y="212.051"/></g><g style="fill:#000;fill-opacity:1"><use xlink:href="#x" x="134.875" y="212.051"/><use xlink:href="#v" x="138.536" y="212.051"/></g><path style="fill:none;stroke-width:.3985;stroke-linecap:butt;stroke-linejoin:miter;stroke:#000;stroke-opacity:1;stroke-miterlimit:10" d="m81.23-28.26 2.816 2.817m-2.817 0 2.817-2.816" transform="matrix(1 0 0 -1 123.892 116.815)"/><g style="fill:#000;fill-opacity:1"><use xlink:href="#m" x="210.048" y="145.8"/><use xlink:href="#n" x="213.709" y="145.8"/><use xlink:href="#o" x="217.371" y="145.8"/><use xlink:href="#n" x="221.032" y="145.8"/><use xlink:href="#A" x="224.693" y="145.8"/><use xlink:href="#B" x="228.354" y="145.8"/><use xlink:href="#t" x="232.016" y="145.8"/></g><g style="fill:#000;fill-opacity:1"><use xlink:href="#y" x="239.338" y="145.8"/><use xlink:href="#v" x="242.999" y="145.8"/></g><path style="fill:none;stroke-width:.3985;stroke-linecap:butt;stroke-linejoin:miter;stroke:#000;stroke-opacity:1;stroke-miterlimit:10" d="m49.663 68.885 2.82 2.82m-2.82 0 2.82-2.82" transform="matrix(1 0 0 -1 123.892 116.815)"/><g style="fill:#000;fill-opacity:1"><use xlink:href="#m" x="156.658" y="42.442"/><use xlink:href="#n" x="160.319" y="42.442"/><use xlink:href="#o" x="163.981" y="42.442"/><use xlink:href="#n" x="167.642" y="42.442"/><use xlink:href="#A" x="171.303" y="42.442"/><use xlink:href="#B" x="174.964" y="42.442"/><use xlink:href="#t" x="178.626" y="42.442"/></g><g style="fill:#000;fill-opacity:1"><use xlink:href="#z" x="185.948" y="42.442"/><use xlink:href="#v" x="189.609" y="42.442"/></g><path style="fill:none;stroke-width:.3985;stroke-linecap:butt;stroke-linejoin:miter;stroke:#000;stroke-opacity:1;stroke-miterlimit:10" d="M-1.408-1.408 1.41 1.41m-2.817 0L1.41-1.408" transform="matrix(1 0 0 -1 123.892 116.815)"/><g style="fill:#000;fill-opacity:1"><use xlink:href="#m" x="105.585" y="112.738"/><use xlink:href="#n" x="109.246" y="112.738"/><use xlink:href="#o" x="112.908" y="112.738"/><use xlink:href="#p" x="116.569" y="112.738"/><use xlink:href="#t" x="120.23" y="112.738"/><use xlink:href="#s" x="123.891" y="112.738"/><use xlink:href="#C" x="127.553" y="112.738"/><use xlink:href="#t" x="131.214" y="112.738"/><use xlink:href="#r" x="134.875" y="112.738"/><use xlink:href="#v" x="138.536" y="112.738"/></g><path style="fill:none;stroke-width:.3985;stroke-linecap:butt;stroke-linejoin:miter;stroke:#000;stroke-opacity:1;stroke-miterlimit:10" d="m-43.665-28.755 2.816 2.82m-2.816 0 2.816-2.82" transform="matrix(1 0 0 -1 123.892 116.815)"/><g style="fill:#000;fill-opacity:1"><use xlink:href="#m" x="48.825" y="146.294"/><use xlink:href="#n" x="52.486" y="146.294"/><use xlink:href="#o" x="56.148" y="146.294"/><use xlink:href="#C" x="59.809" y="146.294"/><use xlink:href="#t" x="63.47" y="146.294"/><use xlink:href="#D" x="67.131" y="146.294"/><use xlink:href="#C" x="70.793" y="146.294"/><use xlink:href="#v" x="74.454" y="146.294"/></g><path style="fill:none;stroke-width:.3985;stroke-linecap:butt;stroke-linejoin:miter;stroke:#000;stroke-opacity:1;stroke-miterlimit:10" d="m-1.408-26.544 2.817 2.82m-2.817 0 2.817-2.82" transform="matrix(1 0 0 -1 123.892 116.815)"/><g style="fill:#000;fill-opacity:1"><use xlink:href="#m" x="127.411" y="144.083"/><use xlink:href="#n" x="131.072" y="144.083"/><use xlink:href="#o" x="134.734" y="144.083"/><use xlink:href="#E" x="138.395" y="144.083"/><use xlink:href="#A" x="142.056" y="144.083"/><use xlink:href="#B" x="145.717" y="144.083"/><use xlink:href="#v" x="149.379" y="144.083"/></g><path style="fill:none;stroke-width:.3985;stroke-linecap:butt;stroke-linejoin:miter;stroke:#000;stroke-opacity:1;stroke-miterlimit:10" d="m-1.408-28.755 2.817 2.82m-2.817 0 2.817-2.82" transform="matrix(1 0 0 -1 123.892 116.815)"/><g style="fill:#000;fill-opacity:1"><use xlink:href="#m" x="109.247" y="152.506"/><use xlink:href="#n" x="112.908" y="152.506"/><use xlink:href="#o" x="116.57" y="152.506"/><use xlink:href="#F" x="120.231" y="152.506"/><use xlink:href="#G" x="123.892" y="152.506"/><use xlink:href="#n" x="127.553" y="152.506"/><use xlink:href="#t" x="131.215" y="152.506"/><use xlink:href="#v" x="134.876" y="152.506"/></g><path style="fill:none;stroke-width:.3985;stroke-linecap:butt;stroke-linejoin:miter;stroke:#000;stroke-opacity:1;stroke-miterlimit:10" d="m22.682 88.499 2.82 2.816m-2.82 0 2.82-2.816" transform="matrix(1 0 0 -1 123.892 116.815)"/><g style="fill:#000;fill-opacity:1"><use xlink:href="#m" x="137" y="22.832"/><use xlink:href="#n" x="140.661" y="22.832"/><use xlink:href="#o" x="144.323" y="22.832"/><use xlink:href="#H" x="147.984" y="22.832"/><use xlink:href="#z" x="151.645" y="22.832"/><use xlink:href="#v" x="155.306" y="22.832"/></g><path style="fill:none;stroke-width:.3985;stroke-linecap:butt;stroke-linejoin:miter;stroke:#000;stroke-opacity:1;stroke-miterlimit:10" d="m-92.77-1.408 2.816 2.817m-2.817 0 2.817-2.817" transform="matrix(1 0 0 -1 123.892 116.815)"/><g style="fill:#000;fill-opacity:1"><use xlink:href="#m" x="17.885" y="112.737"/><use xlink:href="#n" x="21.546" y="112.737"/><use xlink:href="#o" x="25.208" y="112.737"/><use xlink:href="#I" x="28.869" y="112.737"/><use xlink:href="#t" x="32.53" y="112.737"/><use xlink:href="#n" x="36.191" y="112.737"/><use xlink:href="#C" x="39.853" y="112.737"/><use xlink:href="#v" x="43.514" y="112.737"/></g><path style="fill:none;stroke-width:.3985;stroke-linecap:butt;stroke-linejoin:miter;stroke:#000;stroke-opacity:1;stroke-miterlimit:10" d="m89.956-1.408 2.816 2.817m-2.816 0 2.816-2.817" transform="matrix(1 0 0 -1 123.892 116.815)"/><g style="fill:#000;fill-opacity:1"><use xlink:href="#m" x="200.609" y="112.737"/><use xlink:href="#n" x="204.27" y="112.737"/><use xlink:href="#o" x="207.932" y="112.737"/><use xlink:href="#t" x="211.593" y="112.737"/><use xlink:href="#G" x="215.254" y="112.737"/><use xlink:href="#n" x="218.915" y="112.737"/><use xlink:href="#C" x="222.577" y="112.737"/><use xlink:href="#v" x="226.238" y="112.737"/></g><path style="fill:none;stroke-width:.3985;stroke-linecap:butt;stroke-linejoin:miter;stroke:#000;stroke-opacity:1;stroke-miterlimit:10" d="m-1.404 106.006 2.817 2.817m-2.817 0 2.817-2.817" transform="matrix(1 0 0 -1 123.892 116.815)"/><g style="fill:#000;fill-opacity:1"><use xlink:href="#m" x="107.42" y="17.747"/><use xlink:href="#n" x="111.081" y="17.747"/><use xlink:href="#o" x="114.743" y="17.747"/><use xlink:href="#s" x="118.404" y="17.747"/><use xlink:href="#q" x="122.065" y="17.747"/><use xlink:href="#r" x="125.726" y="17.747"/><use xlink:href="#C" x="129.388" y="17.747"/><use xlink:href="#J" x="133.049" y="17.747"/><use xlink:href="#v" x="136.71" y="17.747"/></g><path style="fill:none;stroke-width:.3985;stroke-linecap:butt;stroke-linejoin:miter;stroke:#000;stroke-opacity:1;stroke-miterlimit:10" d="m-1.4-88.31 2.817 2.816m-2.817 0 2.817-2.816" transform="matrix(1 0 0 -1 123.892 116.815)"/><g style="fill:#000;fill-opacity:1"><use xlink:href="#m" x="107.424" y="199.639"/><use xlink:href="#n" x="111.085" y="199.639"/><use xlink:href="#o" x="114.747" y="199.639"/><use xlink:href="#n" x="118.408" y="199.639"/><use xlink:href="#q" x="122.069" y="199.639"/><use xlink:href="#K" x="125.73" y="199.639"/><use xlink:href="#C" x="129.392" y="199.639"/><use xlink:href="#J" x="133.053" y="199.639"/><use xlink:href="#v" x="136.714" y="199.639"/></g><path style="fill:none;stroke-width:.3985;stroke-linecap:butt;stroke-linejoin:miter;stroke:#000;stroke-opacity:1;stroke-miterlimit:10" d="m60.807 60.807 2.817 2.817m-2.817 0 2.817-2.817" transform="matrix(1 0 0 -1 123.892 116.815)"/><g style="fill:#000;fill-opacity:1"><use xlink:href="#m" x="160.478" y="62.947"/><use xlink:href="#n" x="164.139" y="62.947"/><use xlink:href="#o" x="167.801" y="62.947"/><use xlink:href="#s" x="171.462" y="62.947"/><use xlink:href="#q" x="175.123" y="62.947"/><use xlink:href="#r" x="178.784" y="62.947"/><use xlink:href="#C" x="182.446" y="62.947"/><use xlink:href="#J" x="186.107" y="62.947"/></g><g style="fill:#000;fill-opacity:1"><use xlink:href="#t" x="193.429" y="62.947"/><use xlink:href="#G" x="197.091" y="62.947"/><use xlink:href="#n" x="200.752" y="62.947"/><use xlink:href="#C" x="204.413" y="62.947"/><use xlink:href="#v" x="208.075" y="62.947"/></g><path style="fill:none;stroke-width:.3985;stroke-linecap:butt;stroke-linejoin:miter;stroke:#000;stroke-opacity:1;stroke-miterlimit:10" d="m67.561-70.373 2.82 2.82m-2.82 0 2.82-2.82" transform="matrix(1 0 0 -1 123.892 116.815)"/><g style="fill:#000;fill-opacity:1"><use xlink:href="#m" x="167.233" y="181.699"/><use xlink:href="#n" x="170.894" y="181.699"/><use xlink:href="#o" x="174.556" y="181.699"/><use xlink:href="#n" x="178.217" y="181.699"/><use xlink:href="#q" x="181.878" y="181.699"/><use xlink:href="#K" x="185.539" y="181.699"/><use xlink:href="#C" x="189.201" y="181.699"/><use xlink:href="#J" x="192.862" y="181.699"/></g><g style="fill:#000;fill-opacity:1"><use xlink:href="#t" x="200.184" y="181.699"/><use xlink:href="#G" x="203.846" y="181.699"/><use xlink:href="#n" x="207.507" y="181.699"/><use xlink:href="#C" x="211.168" y="181.699"/><use xlink:href="#v" x="214.83" y="181.699"/></g><path style="fill:none;stroke-width:.3985;stroke-linecap:butt;stroke-linejoin:miter;stroke:#000;stroke-opacity:1;stroke-miterlimit:10" d="m-63.619 60.807 2.817 2.817m-2.817 0 2.817-2.817" transform="matrix(1 0 0 -1 123.892 116.815)"/><g style="fill:#000;fill-opacity:1"><use xlink:href="#m" x="36.054" y="62.946"/><use xlink:href="#n" x="39.715" y="62.946"/><use xlink:href="#o" x="43.377" y="62.946"/><use xlink:href="#s" x="47.038" y="62.946"/><use xlink:href="#q" x="50.699" y="62.946"/><use xlink:href="#r" x="54.36" y="62.946"/><use xlink:href="#C" x="58.022" y="62.946"/><use xlink:href="#J" x="61.683" y="62.946"/></g><g style="fill:#000;fill-opacity:1"><use xlink:href="#I" x="69.005" y="62.946"/><use xlink:href="#t" x="72.667" y="62.946"/><use xlink:href="#n" x="76.328" y="62.946"/><use xlink:href="#C" x="79.989" y="62.946"/><use xlink:href="#v" x="83.651" y="62.946"/></g><path style="fill:none;stroke-width:.3985;stroke-linecap:butt;stroke-linejoin:miter;stroke:#000;stroke-opacity:1;stroke-miterlimit:10" d="m-70.369-70.373 2.817 2.82m-2.817 0 2.817-2.82" transform="matrix(1 0 0 -1 123.892 116.815)"/><g style="fill:#000;fill-opacity:1"><use xlink:href="#m" x="29.303" y="181.699"/><use xlink:href="#n" x="32.964" y="181.699"/><use xlink:href="#o" x="36.626" y="181.699"/><use xlink:href="#n" x="40.287" y="181.699"/><use xlink:href="#q" x="43.948" y="181.699"/><use xlink:href="#K" x="47.609" y="181.699"/><use xlink:href="#C" x="51.271" y="181.699"/><use xlink:href="#J" x="54.932" y="181.699"/></g><g style="fill:#000;fill-opacity:1"><use xlink:href="#I" x="62.254" y="181.699"/><use xlink:href="#t" x="65.916" y="181.699"/><use xlink:href="#n" x="69.577" y="181.699"/><use xlink:href="#C" x="73.238" y="181.699"/><use xlink:href="#v" x="76.9" y="181.699"/></g></svg>