<svg xmlns="http://www.w3.org/2000/svg" width="116.077" height="7.875" viewBox="0 0 87.058 5.906" version="1.2"><defs><clipPath id="a"><path d="M35 0h16v5.86H35Zm0 0"/></clipPath></defs><path style="stroke:none;fill-rule:nonzero;fill:#000;fill-opacity:1" d="M44.8 2.902a1.741 1.741 0 1 0-3.484 0c0 .965.778 1.743 1.743 1.743.96 0 1.742-.778 1.742-1.743Zm0 0"/><g clip-path="url(#a)"><path style="fill:none;stroke-width:.3985;stroke-linecap:butt;stroke-linejoin:miter;stroke:#000;stroke-opacity:1;stroke-miterlimit:10" d="M44.263 0a1.741 1.741 0 1 1-3.484 0 1.741 1.741 0 1 1 3.484 0Zm0 0" transform="matrix(1 0 0 -1 .538 2.903)"/></g><path style="fill:none;stroke-width:.3985;stroke-linecap:butt;stroke-linejoin:miter;stroke:#000;stroke-opacity:1;stroke-miterlimit:10" d="M.001 0h40.676m3.687 0H85.04" transform="matrix(1 0 0 -1 .538 2.903)"/></svg>