<svg xmlns="http://www.w3.org/2000/svg" xmlns:xlink="http://www.w3.org/1999/xlink" width="154.453" height="98.187" viewBox="0 0 115.84 73.64" version="1.2"><defs><symbol overflow="visible" id="b"><path style="stroke:none" d="M5.563-1.813c.14 0 .312 0 .312-.171 0-.188-.172-.188-.313-.188H1c-.125 0-.297 0-.297.188 0 .171.172.171.297.171Zm0 0"/></symbol><symbol overflow="visible" id="c"><path style="stroke:none" d="M2.5-5.078c0-.219-.016-.219-.234-.219-.329.313-.75.5-1.5.5v.266c.218 0 .64 0 1.109-.203v4.078c0 .297-.031.39-.781.39H.812V0c.329-.031 1.016-.031 1.375-.031.36 0 1.047 0 1.376.031v-.266H3.28c-.75 0-.781-.093-.781-.39Zm0 0"/></symbol><symbol overflow="visible" id="d"><path style="stroke:none" d="M3.89-2.547c0-.844-.078-1.36-.343-1.875-.344-.703-1-.875-1.438-.875-1 0-1.375.75-1.484.969C.344-3.75.328-2.953.328-2.547c0 .531.016 1.328.406 1.969.36.594.954.75 1.375.75.391 0 1.063-.125 1.47-.906.296-.579.312-1.297.312-1.813ZM2.11-.062c-.266 0-.813-.126-.985-.954-.094-.453-.094-1.203-.094-1.625 0-.546 0-1.109.094-1.546.172-.813.781-.891.984-.891.266 0 .829.14.985.86.094.437.094 1.046.094 1.577 0 .47 0 1.188-.094 1.641-.172.828-.719.938-.985.938Zm0 0"/></symbol><symbol overflow="visible" id="e"><path style="stroke:none" d="M5.531-1.984c0-1.22-.875-2.047-2.187-2.047-.719 0-1.203.297-1.375.422v-2.61l-1.594.063v.437c.531 0 .61 0 .61.36V0h.453l.421-.516c.282.297.72.563 1.36.563 1.406 0 2.312-.844 2.312-2.031Zm-1.187-.032c0 .391 0 .844-.188 1.172-.297.5-.843.531-1.031.531-.547 0-.906-.328-1.094-.625v-2.171a1.553 1.553 0 0 1 1.203-.563c1.11 0 1.11 1.078 1.11 1.656Zm0 0"/></symbol><symbol overflow="visible" id="f"><path style="stroke:none" d="M5.11-.219c0-.218-.157-.218-.235-.218-.578-.016-.578-.094-.578-.313v-1.922c0-.797-.64-1.39-2.031-1.39-.5 0-1.657.015-1.657.843 0 .406.313.594.579.594.312 0 .593-.219.593-.578 0-.266-.156-.422-.187-.453.093-.016.312-.047.64-.047.641 0 1.016.328 1.016 1.031v.281C1.766-2.39.25-2 .25-1 .25-.11 1.375.047 2.016.047c.687 0 1.156-.281 1.39-.703 0 .219 0 .656.969.656h.438c.171 0 .296 0 .296-.219ZM3.25-1.25c0 .938-1.047.938-1.078.938-.453 0-.828-.282-.828-.688 0-.297.156-1 1.906-1.078Zm0 0"/></symbol><clipPath id="a"><path d="M0 28h74v45.46H0Zm0 0"/></clipPath></defs><path style="fill:none;stroke-width:.3985;stroke-linecap:round;stroke-linejoin:miter;stroke:#000;stroke-opacity:1;stroke-miterlimit:10" d="M-28.346-1.993v3.985M28.346-1.993v3.985M-1.994-28.348h3.988M-1.994 28.347h3.988" transform="matrix(1 0 0 -1 36.748 36.64)"/><path style="fill:none;stroke-width:.3985;stroke-linecap:butt;stroke-linejoin:miter;stroke:#000;stroke-opacity:1;stroke-miterlimit:10" d="M-35.818 0H35.42" transform="matrix(1 0 0 -1 36.748 36.64)"/><path style="fill:none;stroke-width:.3985;stroke-linecap:round;stroke-linejoin:round;stroke:#000;stroke-opacity:1;stroke-miterlimit:10" d="M-2.07 2.39C-1.693.956-.853.28 0 0c-.852-.278-1.692-.958-2.07-2.391" transform="matrix(1 0 0 -1 72.367 36.64)"/><path style="fill:none;stroke-width:.3985;stroke-linecap:butt;stroke-linejoin:miter;stroke:#000;stroke-opacity:1;stroke-miterlimit:10" d="M-.002-35.817v71.238" transform="matrix(1 0 0 -1 36.748 36.64)"/><path style="fill:none;stroke-width:.3985;stroke-linecap:round;stroke-linejoin:round;stroke:#000;stroke-opacity:1;stroke-miterlimit:10" d="M-2.073 2.393C-1.694.955-.851.279 0 .002-.851-.28-1.694-.955-2.073-2.393" transform="matrix(0 -1 -1 0 36.748 1.02)"/><path style="fill:none;stroke-width:.59776;stroke-linecap:butt;stroke-linejoin:miter;stroke:#000;stroke-opacity:1;stroke-dasharray:2.98885,1.19554;stroke-miterlimit:10" d="m-28.346 28.347 56.692-14.172" transform="matrix(1 0 0 -1 36.748 36.64)"/><g clip-path="url(#a)"><path style="fill:none;stroke-width:.59776;stroke-linecap:butt;stroke-linejoin:miter;stroke:#000;stroke-opacity:1;stroke-miterlimit:10" d="M-28.346-28.348 28.346-.001" transform="matrix(1 0 0 -1 36.748 36.64)"/></g><use xlink:href="#b" x="2.991" y="46.424" style="fill:#000;fill-opacity:1"/><use xlink:href="#c" x="9.577" y="46.424" style="fill:#000;fill-opacity:1"/><use xlink:href="#c" x="62.977" y="46.424" style="fill:#000;fill-opacity:1"/><use xlink:href="#b" x="21.278" y="67.139" style="fill:#000;fill-opacity:1"/><use xlink:href="#c" x="27.865" y="67.139" style="fill:#000;fill-opacity:1"/><use xlink:href="#d" x="29.857" y="44.432" style="fill:#000;fill-opacity:1"/><use xlink:href="#c" x="27.865" y="10.861" style="fill:#000;fill-opacity:1"/><use xlink:href="#e" x="109.257" y="33.402" style="fill:#000;fill-opacity:1"/><path style="fill:none;stroke-width:.59776;stroke-linecap:butt;stroke-linejoin:miter;stroke:#000;stroke-opacity:1;stroke-dasharray:2.98885,1.19554;stroke-miterlimit:10" d="m-19.925-.884 9.961 1.77L.001-.885" transform="matrix(1 0 0 -1 104.28 31.19)"/><use xlink:href="#f" x="109.257" y="44.361" style="fill:#000;fill-opacity:1"/><path style="fill:none;stroke-width:.59776;stroke-linecap:butt;stroke-linejoin:miter;stroke:#000;stroke-opacity:1;stroke-miterlimit:10" d="m-19.925-.886 9.961 1.77L.001-.887" transform="matrix(1 0 0 -1 104.28 42.149)"/></svg>