<svg xmlns="http://www.w3.org/2000/svg" width="90.613" height="53.091" viewBox="0 0 67.96 39.818" version="1.2"><defs><clipPath id="a"><path d="M0 0h67.941v2H0Zm0 0"/></clipPath><clipPath id="b"><path d="M0 0h67.941v39.727H0Zm0 0"/></clipPath></defs><path style="stroke:none;fill-rule:nonzero;fill:#fff200;fill-opacity:1" d="M.988 38.719V1.125h65.938v37.594Zm0 0"/><g clip-path="url(#a)"><path style="fill:none;stroke-width:.3985;stroke-linecap:butt;stroke-linejoin:miter;stroke:#000;stroke-opacity:1;stroke-miterlimit:10" d="M-32.97 18.797h65.938" transform="matrix(1 0 0 -1 33.958 19.922)"/></g><g clip-path="url(#b)"><path style="fill:none;stroke-width:.3985;stroke-linecap:butt;stroke-linejoin:miter;stroke:#000;stroke-opacity:1;stroke-miterlimit:10" d="M28.347 0c0 7.828-12.692 14.172-28.348 14.172-15.656 0-28.348-6.344-28.348-14.172S-15.657-14.172 0-14.172c15.656 0 28.348 6.344 28.348 14.172Zm0 0" transform="matrix(1 0 0 -1 33.958 19.922)"/></g></svg>