<svg xmlns="http://www.w3.org/2000/svg" width="135.707" height="97.731" viewBox="0 0 101.78 73.298" version="1.2"><defs><clipPath id="a"><path d="M0 0h101.672v21H0Zm0 0"/></clipPath><clipPath id="b"><path d="M0 23h101.672v27H0Zm0 0"/></clipPath><clipPath id="c"><path d="M0 51h101.672v21.945H0Zm0 0"/></clipPath></defs><path style="fill:none;stroke-width:.19925;stroke-linecap:butt;stroke-linejoin:miter;stroke:gray;stroke-opacity:1;stroke-miterlimit:10" d="M0 0h85.04M0 28.348h85.04M0 56.684h85.04M0 0v56.692M28.349 0v56.692M56.692 0v56.692M85.032 0v56.692" transform="matrix(1 0 0 -1 8.308 64.645)"/><path style="stroke:none;fill-rule:nonzero;fill:#ff8080;fill-opacity:1" d="M8.309.863h3.543l3.543 7.09-3.543 7.086H1.219l3.547-7.086L1.219.863Zm14.171 0h3.543l3.547 7.09-3.547 7.086H15.395l3.543-7.086-3.543-7.09Zm14.176 0H40.2l3.543 7.09L40.2 15.04H29.566l3.543-7.086-3.543-7.09Zm14.172 0h3.543l3.543 7.09-3.543 7.086H43.742l3.543-7.086-3.543-7.09ZM65 .863h3.547l3.543 7.09-3.543 7.086H57.914l3.543-7.086-3.543-7.09Zm14.176 0h3.543l3.543 7.09-3.543 7.086H72.086l3.547-7.086-3.547-7.09Zm14.172 0h3.543l3.543 7.09-3.543 7.086H86.26l3.544-7.086-3.543-7.09Zm0 0"/><g clip-path="url(#a)"><path style="fill:none;stroke-width:.3985;stroke-linecap:butt;stroke-linejoin:miter;stroke:maroon;stroke-opacity:1;stroke-miterlimit:10" d="M0 63.782h3.544l3.543-7.09-3.543-7.086H-7.09l3.547 7.086-3.547 7.09Zm14.172 0h3.543l3.547-7.09-3.547-7.086H7.087l3.543 7.086-3.543 7.09Zm14.176 0h3.543l3.543-7.09-3.543-7.086H21.258l3.543 7.086-3.543 7.09Zm14.172 0h3.543l3.543-7.09-3.543-7.086H35.434l3.543 7.086-3.543 7.09Zm14.172 0h3.547l3.543-7.09-3.543-7.086H49.606l3.543 7.086-3.543 7.09Zm14.176 0h3.543l3.543-7.09-3.543-7.086H63.778l3.547 7.086-3.547 7.09Zm14.172 0h3.543l3.543-7.09-3.543-7.086h-10.63l3.544 7.086-3.543 7.09Zm0 0" transform="matrix(1 0 0 -1 8.308 64.645)"/></g><path style="stroke:none;fill-rule:nonzero;fill:#80ff80;fill-opacity:1" d="M8.309 29.21h3.543l3.543 7.087-3.543 7.086H1.219l3.547-7.086-3.547-7.086Zm28.347 0H40.2l3.543 7.087-3.543 7.086H29.566l3.543-7.086-3.543-7.086Zm28.344 0h3.547l3.543 7.087-3.543 7.086H57.914l3.543-7.086-3.543-7.086Zm28.348 0h3.543l3.546 7.087-3.546 7.086H86.26l3.544-7.086-3.543-7.086Zm0 0"/><g clip-path="url(#b)"><path style="fill:none;stroke-width:.3985;stroke-linecap:butt;stroke-linejoin:miter;stroke:green;stroke-opacity:1;stroke-miterlimit:10" d="M0 35.434h3.544l3.543-7.086-3.543-7.086H-7.09l3.547 7.086-3.547 7.086Zm28.348 0h3.543l3.543-7.086-3.543-7.086H21.258l3.543 7.086-3.543 7.086Zm28.344 0h3.547l3.543-7.086-3.543-7.086H49.606l3.543 7.086-3.543 7.086Zm28.348 0h3.543l3.546-7.086-3.546-7.086h-10.63l3.544 7.086-3.543 7.086Zm0 0" transform="matrix(1 0 0 -1 8.308 64.645)"/></g><path style="stroke:none;fill-rule:nonzero;fill:#8080ff;fill-opacity:1" d="M8.309 57.559h3.543l3.543 7.086-3.543 7.085H1.219l3.547-7.085-3.547-7.086Zm42.52 0h3.542l3.543 7.086-3.543 7.085H43.742l3.543-7.085-3.543-7.086Zm42.519 0h3.543l3.546 7.086-3.546 7.085H86.26l3.544-7.085-3.543-7.086Zm0 0"/><g clip-path="url(#c)"><path style="fill:none;stroke-width:.3985;stroke-linecap:butt;stroke-linejoin:miter;stroke:navy;stroke-opacity:1;stroke-miterlimit:10" d="M0 7.086h3.544L7.087 0 3.544-7.085H-7.09L-3.542 0-7.09 7.086Zm42.52 0h3.543L49.606 0l-3.543-7.085H35.434L38.977 0l-3.543 7.086Zm42.52 0h3.543L92.129 0l-3.546-7.085h-10.63L81.498 0l-3.543 7.086Zm0 0" transform="matrix(1 0 0 -1 8.308 64.645)"/></g></svg>