<svg xmlns="http://www.w3.org/2000/svg" xmlns:xlink="http://www.w3.org/1999/xlink" width="339.771" height="383.331" viewBox="0 0 254.828 287.498" version="1.2"><defs><symbol overflow="visible" id="a"><path style="stroke:none" d="M3.813-1.234v-.532h-.47v.516c0 .672-.327.906-.609.906-.578 0-.578-.64-.578-.86v-2.75h1.469v-.468H2.156v-1.906h-.469c0 1-.484 1.984-1.484 2.016v.359h.828v2.734c0 1.063.86 1.282 1.578 1.282.75 0 1.204-.579 1.204-1.297Zm0 0"/></symbol><symbol overflow="visible" id="b"><path style="stroke:none" d="M4.922-1.172c0-.172-.188-.172-.234-.172-.172 0-.188.047-.25.203-.204.485-.782.797-1.422.797-1.407 0-1.422-1.328-1.422-1.828h3.015c.22 0 .313 0 .313-.265 0-.313-.063-1.047-.563-1.547-.359-.36-.89-.532-1.578-.532C1.187-4.516.312-3.484.312-2.25c0 1.344 1 2.313 2.61 2.313 1.578 0 2-1.063 2-1.235ZM3.984-2.5h-2.39c.015-.39.031-.813.234-1.14.266-.391.672-.516.953-.516 1.172 0 1.188 1.312 1.203 1.656Zm0 0"/></symbol><symbol overflow="visible" id="c"><path style="stroke:none" d="M5.828 0v-.469h-.703L3.453-2.453 4.61-3.75c.141-.14.204-.203 1.016-.203v-.469l-.906.031-1.032-.03v.468c.141 0 .266.015.376.078-.032.063-.032.094-.079.125l-.828.938-.984-1.141h.406v-.469L1.36-4.39.266-4.42v.468h.718l1.547 1.828L1.22-.656c-.157.187-.516.187-1 .187V0l.922-.031L2.156 0v-.469c-.172 0-.36-.047-.36-.11 0 0 0-.015.063-.093l.97-1.094L3.921-.469h-.39V0l1.202-.031Zm0 0"/></symbol><symbol overflow="visible" id="d"><path style="stroke:none" d="M8.031-3.953v-.469a12.55 12.55 0 0 1-.781.031l-.953-.03v.468c.094 0 .578 0 .578.11 0 .03-.031.093-.031.124L5.797-1.172l-1.14-2.781h.562v-.469l-1.14.031c-.423 0-.845-.03-1-.03v.468h.593c.203.5.203.531.203.531 0 .031-.031.094-.031.125L3.047-1.39 2-3.953h.563v-.469l-1.235.031L.25-4.42v.468h.594L2.359-.234c.079.172.11.28.36.28s.297-.108.36-.28L4.14-2.813 5.187-.233c.079.172.11.28.36.28s.297-.108.36-.28L7.343-3.75c.047-.125.093-.203.687-.203Zm0 0"/></symbol><symbol overflow="visible" id="e"><path style="stroke:none" d="M5.406-2.172c0-1.344-.922-2.344-2.547-2.344C1.22-4.516.313-3.5.313-2.172c0 1.235.89 2.235 2.546 2.235 1.672 0 2.547-1.016 2.547-2.235Zm-1.281-.11c0 .86 0 1.938-1.266 1.938-1.265 0-1.265-1.078-1.265-1.937 0-.453 0-.953.172-1.297.187-.375.609-.578 1.093-.578.422 0 .844.156 1.063.5.203.344.203.89.203 1.375Zm0 0"/></symbol><symbol overflow="visible" id="f"><path style="stroke:none" d="M6.125 0v-.469h-.688v-2.578c0-1.047-.53-1.437-1.53-1.437a1.9 1.9 0 0 0-1.688.953v-3.39l-1.766.077v.469c.61 0 .688 0 .688.39v5.516H.453V0l1.25-.031L2.953 0v-.469h-.687v-2.078c0-1.094.859-1.578 1.5-1.578.328 0 .546.203.546.969V-.47h-.687V0l1.25-.031Zm0 0"/></symbol><symbol overflow="visible" id="g"><path style="stroke:none" d="M4.406-3.672c0-.531-.531-.812-1.062-.812-.688 0-1.094.5-1.313 1.125v-1.125l-1.656.078v.468c.61 0 .688 0 .688.391v3.078H.375V0l1.25-.031C2-.031 2.641-.031 3 0v-.469h-.86v-1.75c0-.687.235-1.906 1.235-1.906 0 0-.188.172-.188.453 0 .406.329.61.61.61.297 0 .61-.204.61-.61Zm0 0"/></symbol><symbol overflow="visible" id="h"><path style="stroke:none" d="M4.36-6.11c0-.421-.36-.874-1.141-.874-.969 0-2.047.421-2.047 1.546v1.016h-.75v.469h.75V-.47H.484V0l1.25-.031c.375 0 1.016 0 1.375.031v-.469H2.25v-3.484h1.14v-.469H2.188v-1.016c0-1.093.75-1.187 1-1.187.047 0 .11 0 .172.031a.585.585 0 0 0-.234.485c0 .421.36.609.61.609.296 0 .624-.203.624-.61Zm0 0"/></symbol><symbol overflow="visible" id="i"><path style="stroke:none" d="M6.125 0v-.469c-.61 0-.688 0-.688-.39v-3.625l-1.812.078v.468c.61 0 .688 0 .688.391v1.906c0 .813-.516 1.344-1.235 1.344-.781 0-.812-.25-.812-.797v-3.39l-1.813.078v.468c.61 0 .688 0 .688.391v2.328c0 1.063.796 1.282 1.796 1.282.25 0 .97 0 1.422-.782v.781Zm0 0"/></symbol><symbol overflow="visible" id="j"><path style="stroke:none" d="M3.078.313c0-.126-.047-.157-.187-.25C2.062-.5 1.75-1.391 1.75-2.126c0-.672.25-1.594 1.156-2.203.125-.094.172-.125.172-.25a.254.254 0 0 0-.265-.25c-.204 0-1.641.906-1.641 2.703 0 .813.312 1.438.562 1.781.375.516.907.906 1.079.906.218 0 .265-.171.265-.25Zm0 0"/></symbol><symbol overflow="visible" id="k"><path style="stroke:none" d="M3.219-.906c0-.735-.906-.906-1.14-.938l-.704-.125C1.187-2 1-2.079 1-2.25c0-.156.219-.328.813-.328.515 0 .609.172.625.328.015.14.03.281.28.281.298 0 .298-.156.298-.328v-.469c0-.14-.016-.328-.25-.328-.157 0-.22.063-.25.125-.282-.125-.563-.125-.688-.125-1.187 0-1.344.594-1.344.844 0 .656.735.797 1.391.89.297.063.828.141.828.454 0 .234-.25.422-.828.422-.297 0-.656-.063-.813-.563-.03-.156-.078-.234-.28-.234-.298 0-.298.172-.298.328v.656c0 .14 0 .344.25.344.079 0 .188 0 .282-.234.328.218.671.234.859.234 1.125 0 1.344-.61 1.344-.953Zm0 0"/></symbol><symbol overflow="visible" id="l"><path style="stroke:none" d="M2.313-.469a.477.477 0 0 0-.485-.484.47.47 0 0 0-.469.469c0 .28.22.484.47.484a.473.473 0 0 0 .484-.469Zm0 0"/></symbol><symbol overflow="visible" id="m"><path style="stroke:none" d="M3.14-.906c0-.156 0-.313-.296-.313-.266 0-.266.157-.266.297-.015.375-.36.438-.515.438-.454 0-.454-.313-.454-.47v-1.562h1.047c.125 0 .328 0 .328-.265 0-.25-.187-.25-.328-.25H1.61v-.516c0-.14-.015-.328-.296-.328-.282 0-.282.172-.282.328v.516H.484c-.125 0-.328 0-.328.25 0 .265.203.265.328.265h.547v1.61c0 .687.485.953 1.016.953S3.14-.266 3.14-.906Zm0 0"/></symbol><symbol overflow="visible" id="n"><path style="stroke:none" d="M3.25-.797c0-.234-.234-.234-.281-.234-.156 0-.219.015-.281.172-.141.328-.485.375-.657.375-.469 0-.937-.297-1.062-.813h1.953c.172 0 .328 0 .328-.312 0-.797-.453-1.485-1.375-1.485-.828 0-1.516.703-1.516 1.563S1.08.047 1.984.047c.938 0 1.266-.656 1.266-.844Zm-.594-1.015H.97c.125-.438.484-.766.906-.766.328 0 .703.156.781.765Zm0 0"/></symbol><symbol overflow="visible" id="o"><path style="stroke:none" d="M3.469-.266c0-.25-.203-.25-.328-.25h-.25l-.829-1.046.735-.954h.234c.125 0 .344 0 .344-.265 0-.25-.219-.25-.344-.25H2.25c-.125 0-.328 0-.328.25 0 .203.11.265.281.265l-.39.547-.422-.547c.156 0 .28-.062.28-.265 0-.25-.202-.25-.327-.25H.547c-.125 0-.328 0-.328.25 0 .265.218.265.328.265h.25l.75.954L.75-.516H.516c-.125 0-.344 0-.344.25C.172 0 .39 0 .516 0h.78c.126 0 .329 0 .329-.266 0-.203-.11-.25-.297-.25l.484-.703.5.703c-.187 0-.296.047-.296.25 0 .266.203.266.328.266h.797c.109 0 .328 0 .328-.266Zm0 0"/></symbol><symbol overflow="visible" id="p"><path style="stroke:none" d="M2.484-2.125c0-.828-.312-1.453-.562-1.797-.375-.515-.906-.906-1.078-.906-.203 0-.266.187-.266.25 0 .125.094.187.14.219 1.095.718 1.188 1.796 1.188 2.234 0 .656-.25 1.578-1.14 2.188C.64.14.578.186.578.313c0 .078.063.25.266.25s1.64-.907 1.64-2.688Zm0 0"/></symbol><symbol overflow="visible" id="q"><path style="stroke:none" d="M3.625-.266c0-.25-.203-.25-.328-.25-.203 0-.297-.03-.344-.046V-2c0-.5-.375-1.094-1.406-1.094-.313 0-1.031.016-1.031.547 0 .235.171.36.359.36.11 0 .344-.063.344-.36 0 0 .234-.031.343-.031.454 0 .782.187.813.594-1.219.03-2.047.39-2.047 1.062 0 .485.453.969 1.188.969.234 0 .656-.047.968-.25.172.187.485.203.75.203.235 0 .391-.016.391-.266ZM2.359-.969c0 .14 0 .266-.234.375-.234.11-.516.11-.578.11-.39 0-.64-.204-.64-.438 0-.312.546-.515 1.452-.562Zm0 0"/></symbol><symbol overflow="visible" id="r"><path style="stroke:none" d="M3.547-2.781c0-.25-.188-.25-.328-.25h-.781c-.157 0-.344 0-.344.25 0 .265.172.265.344.265h.265l-.297 1.72-.14-.532c-.125-.469-.172-.547-.422-.547-.094 0-.235 0-.328.188l-.266.906-.297-1.735h.266c.156 0 .343 0 .343-.265 0-.25-.187-.25-.343-.25H.437c-.14 0-.343 0-.343.25 0 .234.14.265.36.265L.858-.28c.032.187.047.312.36.312.312 0 .343-.062.453-.515l.172-.641.265 1c.094.14.235.156.344.156.281 0 .313-.125.344-.312l.406-2.235c.219 0 .344-.03.344-.265Zm0 0"/></symbol><symbol overflow="visible" id="s"><path style="stroke:none" d="M3.281-1.516c0-.89-.672-1.578-1.453-1.578-.797 0-1.453.688-1.453 1.578 0 .891.672 1.563 1.453 1.563.766 0 1.453-.688 1.453-1.563Zm-.578-.046c0 .593-.406 1.078-.875 1.078S.953-.97.953-1.563c0-.593.422-1.015.875-1.015s.875.422.875 1.015Zm0 0"/></symbol><symbol overflow="visible" id="t"><path style="stroke:none" d="M3.578-.266c0-.25-.203-.25-.328-.25H3v-1.53c0-.72-.36-1.032-.938-1.032-.39 0-.671.172-.843.297v-1.14c0-.25-.047-.345-.313-.345h-.5c-.14 0-.328.016-.328.266s.203.266.313.266h.25v3.218H.406c-.14 0-.328 0-.328.25C.078 0 .281 0 .391 0h1.093c.11 0 .329 0 .329-.266 0-.25-.204-.25-.344-.25h-.25v-1.156c0-.64.484-.875.797-.875.328 0 .406.172.406.547v1.484h-.203c-.14 0-.344 0-.344.25 0 .266.219.266.344.266H3.25c.11 0 .328 0 .328-.266Zm0 0"/></symbol><symbol overflow="visible" id="u"><path style="stroke:none" d="M3.406-2.594c0-.156-.078-.484-.703-.484-.328 0-.734.11-1.094.469v-.094c0-.25-.046-.328-.328-.328h-.75c-.125 0-.328 0-.328.25 0 .265.203.265.328.265h.5v2h-.5c-.125 0-.328 0-.328.25C.203 0 .406 0 .531 0h1.781c.126 0 .329 0 .329-.266 0-.25-.204-.25-.329-.25H1.61v-.796c0-.61.36-1.22 1.11-1.235 0 .156.172.281.344.281.187 0 .343-.125.343-.328Zm0 0"/></symbol><symbol overflow="visible" id="v"><path style="stroke:none" d="M3.063-3.844c0-.437-.579-.453-.704-.453-.578 0-1.125.328-1.125.953v.313H.61c-.125 0-.328 0-.328.25 0 .265.203.265.328.265h.625v2H.61c-.125 0-.343 0-.343.25C.266 0 .484 0 .609 0h1.844c.125 0 .328 0 .328-.266 0-.25-.203-.25-.328-.25h-.64v-2h.78c.11 0 .313 0 .313-.265 0-.25-.187-.25-.312-.25h-.781v-.266c0-.453.359-.484.562-.484.031.11.125.297.344.297a.35.35 0 0 0 .344-.36Zm0 0"/></symbol><symbol overflow="visible" id="w"><path style="stroke:none" d="M3.578-.266c0-.25-.219-.25-.328-.25H3v-2.187c0-.25-.047-.328-.328-.328h-.485c-.14 0-.343 0-.343.25 0 .265.218.265.328.265h.25v1.391c0 .563-.516.64-.719.64-.469 0-.484-.187-.484-.39v-1.828c0-.25-.047-.328-.313-.328h-.5c-.14 0-.328 0-.328.25 0 .265.203.265.313.265h.25v1.688c0 .687.5.875 1.03.875.266 0 .516-.063.766-.219C2.485 0 2.626 0 2.75 0h.5c.125 0 .328 0 .328-.266Zm0 0"/></symbol><symbol overflow="visible" id="x"><path style="stroke:none" d="M3.422-1.516c0-.875-.64-1.562-1.39-1.562-.298 0-.579.11-.813.281 0-.172-.063-.234-.313-.234h-.5c-.14 0-.344 0-.344.25 0 .265.22.265.329.265h.25v3.5H.406c-.14 0-.344 0-.344.266 0 .25.22.25.329.25h1.093c.11 0 .329 0 .329-.25 0-.266-.204-.266-.344-.266h-.25V-.234c.265.234.531.28.734.28.766 0 1.469-.671 1.469-1.562Zm-.578 0c0 .61-.453 1.032-.906 1.032-.485 0-.704-.563-.704-.875v-.485c0-.375.375-.703.766-.703.469 0 .844.469.844 1.031Zm0 0"/></symbol><symbol overflow="visible" id="y"><path style="stroke:none" d="M3.281-.266c0-.25-.203-.25-.328-.25h-.828v-3.406c0-.25-.063-.344-.328-.344H.719C.579-4.266.39-4.25.39-4s.203.266.312.266h.844v3.218H.719c-.14 0-.328 0-.328.25C.39 0 .594 0 .703 0h2.25c.125 0 .328 0 .328-.266Zm0 0"/></symbol><symbol overflow="visible" id="z"><path style="stroke:none" d="M3.188-.266c0-.25-.204-.25-.329-.25h-.656v-2.187c0-.25-.047-.328-.328-.328H.906c-.125 0-.328 0-.328.25 0 .265.203.265.328.265h.719v2H.859c-.14 0-.343 0-.343.25C.516 0 .734 0 .859 0h2c.125 0 .329 0 .329-.266Zm-.954-3.562a.39.39 0 0 0-.406-.39.387.387 0 0 0-.39.39c0 .219.171.39.39.39a.39.39 0 0 0 .406-.39Zm0 0"/></symbol><symbol overflow="visible" id="A"><path style="stroke:none" d="M3.578-.266c0-.25-.203-.25-.328-.25H3v-1.53c0-.72-.36-1.032-.938-1.032-.39 0-.671.172-.843.297 0-.172-.047-.25-.313-.25h-.5c-.14 0-.328 0-.328.25 0 .265.203.265.313.265h.25v2H.406c-.14 0-.328 0-.328.25C.078 0 .281 0 .391 0h1.093c.11 0 .329 0 .329-.266 0-.25-.204-.25-.344-.25h-.25v-1.156c0-.64.484-.875.797-.875.328 0 .406.172.406.547v1.484h-.203c-.14 0-.344 0-.344.25 0 .266.219.266.344.266H3.25c.11 0 .328 0 .328-.266Zm0 0"/></symbol><symbol overflow="visible" id="B"><path style="stroke:none" d="M3.266-.797c0-.234-.235-.234-.297-.234-.125 0-.203 0-.266.172-.047.078-.187.375-.625.375a1.027 1.027 0 0 1-1.015-1.032c0-.312.187-1.062 1.062-1.062l.344.015c.015.282.172.376.36.376.187 0 .358-.126.358-.36 0-.531-.734-.547-1.062-.547-1.219 0-1.64.953-1.64 1.578 0 .844.671 1.563 1.546 1.563 1 0 1.235-.719 1.235-.844Zm0 0"/></symbol><symbol overflow="visible" id="C"><path style="stroke:none" d="M3.36-4c0-.25-.188-.266-.329-.266H.828c-.062-.093-.187-.109-.25-.109-.281 0-.281.188-.281.344v.281c0 .156 0 .328.281.328.266 0 .281-.125.297-.312h1.61C1.358-2.5 1.155-1.031 1.155-.297c0 .11 0 .375.282.375.14 0 .28-.094.28-.328a4.937 4.937 0 0 1 1.47-3.469c.171-.14.171-.156.171-.281Zm0 0"/></symbol><symbol overflow="visible" id="D"><path style="stroke:none" d="M3.313-2.125c0-1.297-.72-2.203-1.485-2.203-.781 0-1.5.922-1.5 2.203 0 1.297.734 2.203 1.5 2.203.781 0 1.484-.922 1.484-2.203Zm-.563-.078c0 .969-.422 1.75-.922 1.75-.516 0-.922-.781-.922-1.75 0-.953.438-1.61.922-1.61.469 0 .922.657.922 1.61Zm0 0"/></symbol><symbol overflow="visible" id="E"><path style="stroke:none" d="M3.64-.266c0-.218-.14-.25-.39-.25v-1.593c0-.157-.016-.97-.656-.97a.842.842 0 0 0-.656.313.61.61 0 0 0-.532-.312.875.875 0 0 0-.547.203c-.046-.156-.187-.156-.312-.156H.328c-.125 0-.328 0-.328.25 0 .234.125.265.39.265v2c-.265 0-.39.032-.39.25C0 0 .219 0 .328 0h.594c.125 0 .312 0 .312-.266 0-.218-.109-.25-.359-.25v-1.171c0-.563.234-.86.5-.86.14 0 .203.11.203.5v1.531c-.156 0-.281.032-.281.25 0 .266.187.266.312.266h.516c.125 0 .313 0 .313-.266 0-.218-.126-.25-.376-.25v-1.171c0-.563.25-.86.5-.86.141 0 .204.11.204.5v1.531c-.141 0-.282.032-.282.25 0 .266.204.266.313.266h.5c.125 0 .344 0 .344-.266Zm0 0"/></symbol><symbol overflow="visible" id="F"><path style="stroke:none" d="M3.578-.266c0-.25-.203-.25-.328-.25H3v-3.406c0-.25-.047-.344-.328-.344h-.485c-.14 0-.343.016-.343.266s.218.266.328.266h.25v.906a1.261 1.261 0 0 0-.735-.25c-.765 0-1.453.672-1.453 1.562C.234-.64.875.047 1.625.047c.344 0 .61-.14.797-.313.015.188.062.266.328.266h.5c.125 0 .328 0 .328-.266ZM2.422-1.375c0 .36-.297.89-.781.89-.454 0-.829-.453-.829-1.03 0-.61.438-1.032.891-1.032.406 0 .719.344.719.688Zm0 0"/></symbol><symbol overflow="visible" id="G"><path style="stroke:none" d="M3.422-1.516c0-.875-.64-1.562-1.39-1.562-.298 0-.579.11-.813.265v-1.109c0-.25-.047-.344-.313-.344h-.5c-.14 0-.344.016-.344.266s.22.266.329.266h.25v3.406C.64-.172.656 0 .937 0c.22 0 .282-.094.282-.234.265.218.531.28.734.28.766 0 1.469-.671 1.469-1.562Zm-.578 0c0 .61-.453 1.032-.906 1.032-.485 0-.704-.563-.704-.875v-.485c0-.375.375-.703.766-.703.469 0 .844.469.844 1.031Zm0 0"/></symbol></defs><path style="fill-rule:nonzero;fill:#fffbb3;fill-opacity:1;stroke-width:14.17339;stroke-linecap:butt;stroke-linejoin:miter;stroke:#b2b2b2;stroke-opacity:1;stroke-miterlimit:10" d="M-83.89-126.779H83.888v253.555H-83.89ZM83.888 63.698H-83.89M83.888.616H-83.89M83.888-63.048H-83.89" transform="matrix(1 0 0 -1 127.339 143.487)"/><g style="fill:#b2b2b2;fill-opacity:1"><use xlink:href="#a" x="117.237" y="51.384"/><use xlink:href="#b" x="121.69" y="51.384"/><use xlink:href="#c" x="126.941" y="51.384"/><use xlink:href="#a" x="132.988" y="51.384"/></g><use xlink:href="#a" x="118.428" y="114.463" style="fill:#b2b2b2;fill-opacity:1"/><use xlink:href="#d" x="122.562" y="114.463" style="fill:#b2b2b2;fill-opacity:1"/><use xlink:href="#e" x="130.523" y="114.463" style="fill:#b2b2b2;fill-opacity:1"/><g style="fill:#b2b2b2;fill-opacity:1"><use xlink:href="#a" x="114.318" y="178.13"/><use xlink:href="#f" x="118.771" y="178.13"/><use xlink:href="#g" x="125.137" y="178.13"/><use xlink:href="#b" x="129.86" y="178.13"/><use xlink:href="#b" x="135.11" y="178.13"/></g><g style="fill:#b2b2b2;fill-opacity:1"><use xlink:href="#h" x="117.182" y="241.857"/><use xlink:href="#e" x="120.679" y="241.857"/><use xlink:href="#i" x="126.407" y="241.857"/><use xlink:href="#g" x="132.774" y="241.857"/></g><path style="fill:none;stroke-width:.3985;stroke-linecap:butt;stroke-linejoin:miter;stroke:#000;stroke-opacity:1;stroke-miterlimit:10" d="m-11.51 90.694 2.816 2.82m-2.817 0 2.817-2.82" transform="matrix(1 0 0 -1 127.339 143.487)"/><g style="fill:#000;fill-opacity:1"><use xlink:href="#j" x="84.427" y="53.518"/><use xlink:href="#k" x="88.088" y="53.518"/><use xlink:href="#l" x="91.75" y="53.518"/><use xlink:href="#m" x="95.411" y="53.518"/><use xlink:href="#n" x="99.072" y="53.518"/><use xlink:href="#o" x="102.733" y="53.518"/><use xlink:href="#m" x="106.395" y="53.518"/><use xlink:href="#p" x="110.056" y="53.518"/></g><path style="fill:none;stroke-width:.3985;stroke-linecap:butt;stroke-linejoin:miter;stroke:#000;stroke-opacity:1;stroke-miterlimit:10" d="m89.567 93.827 2.817 2.82m-2.817 0 2.817-2.82" transform="matrix(1 0 0 -1 127.339 143.487)"/><g style="fill:#000;fill-opacity:1"><use xlink:href="#j" x="194.515" y="44.173"/><use xlink:href="#k" x="198.176" y="44.173"/><use xlink:href="#l" x="201.838" y="44.173"/><use xlink:href="#m" x="205.499" y="44.173"/><use xlink:href="#n" x="209.16" y="44.173"/><use xlink:href="#o" x="212.821" y="44.173"/><use xlink:href="#m" x="216.483" y="44.173"/></g><g style="fill:#000;fill-opacity:1"><use xlink:href="#n" x="223.805" y="44.173"/><use xlink:href="#q" x="227.466" y="44.173"/><use xlink:href="#k" x="231.128" y="44.173"/><use xlink:href="#m" x="234.789" y="44.173"/><use xlink:href="#p" x="238.45" y="44.173"/></g><path style="fill:none;stroke-width:.3985;stroke-linecap:butt;stroke-linejoin:miter;stroke:#000;stroke-opacity:1;stroke-miterlimit:10" d="m-92.386 93.827 2.82 2.82m-2.82 0 2.82-2.82" transform="matrix(1 0 0 -1 127.339 143.487)"/><g style="fill:#000;fill-opacity:1"><use xlink:href="#j" x="12.567" y="44.173"/><use xlink:href="#k" x="16.228" y="44.173"/><use xlink:href="#l" x="19.89" y="44.173"/><use xlink:href="#m" x="23.551" y="44.173"/><use xlink:href="#n" x="27.212" y="44.173"/><use xlink:href="#o" x="30.873" y="44.173"/><use xlink:href="#m" x="34.535" y="44.173"/></g><g style="fill:#000;fill-opacity:1"><use xlink:href="#r" x="41.857" y="44.173"/><use xlink:href="#n" x="45.518" y="44.173"/><use xlink:href="#k" x="49.18" y="44.173"/><use xlink:href="#m" x="52.841" y="44.173"/><use xlink:href="#p" x="56.502" y="44.173"/></g><path style="fill:none;stroke-width:.3985;stroke-linecap:butt;stroke-linejoin:miter;stroke:#000;stroke-opacity:1;stroke-miterlimit:10" d="m-10.32 27.616 2.817 2.816m-2.816 0 2.816-2.816" transform="matrix(1 0 0 -1 127.339 143.487)"/><g style="fill:#000;fill-opacity:1"><use xlink:href="#j" x="89.279" y="116.597"/><use xlink:href="#k" x="92.94" y="116.597"/><use xlink:href="#l" x="96.602" y="116.597"/><use xlink:href="#m" x="100.263" y="116.597"/><use xlink:href="#r" x="103.924" y="116.597"/><use xlink:href="#s" x="107.585" y="116.597"/><use xlink:href="#p" x="111.247" y="116.597"/></g><path style="fill:none;stroke-width:.3985;stroke-linecap:butt;stroke-linejoin:miter;stroke:#000;stroke-opacity:1;stroke-miterlimit:10" d="m89.567 30.749 2.817 2.816m-2.817 0 2.817-2.816" transform="matrix(1 0 0 -1 127.339 143.487)"/><g style="fill:#000;fill-opacity:1"><use xlink:href="#j" x="196.345" y="107.252"/><use xlink:href="#k" x="200.006" y="107.252"/><use xlink:href="#l" x="203.668" y="107.252"/><use xlink:href="#m" x="207.329" y="107.252"/><use xlink:href="#r" x="210.99" y="107.252"/><use xlink:href="#s" x="214.651" y="107.252"/></g><g style="fill:#000;fill-opacity:1"><use xlink:href="#n" x="221.974" y="107.252"/><use xlink:href="#q" x="225.635" y="107.252"/><use xlink:href="#k" x="229.296" y="107.252"/><use xlink:href="#m" x="232.958" y="107.252"/><use xlink:href="#p" x="236.619" y="107.252"/></g><path style="fill:none;stroke-width:.3985;stroke-linecap:butt;stroke-linejoin:miter;stroke:#000;stroke-opacity:1;stroke-miterlimit:10" d="m-92.386 30.749 2.82 2.816m-2.82 0 2.82-2.816" transform="matrix(1 0 0 -1 127.339 143.487)"/><g style="fill:#000;fill-opacity:1"><use xlink:href="#j" x="14.398" y="107.252"/><use xlink:href="#k" x="18.059" y="107.252"/><use xlink:href="#l" x="21.721" y="107.252"/><use xlink:href="#m" x="25.382" y="107.252"/><use xlink:href="#r" x="29.043" y="107.252"/><use xlink:href="#s" x="32.704" y="107.252"/></g><g style="fill:#000;fill-opacity:1"><use xlink:href="#r" x="40.02" y="107.252"/><use xlink:href="#n" x="43.681" y="107.252"/><use xlink:href="#k" x="47.342" y="107.252"/><use xlink:href="#m" x="51.004" y="107.252"/><use xlink:href="#p" x="54.665" y="107.252"/></g><path style="fill:none;stroke-width:.3985;stroke-linecap:butt;stroke-linejoin:miter;stroke:#000;stroke-opacity:1;stroke-miterlimit:10" d="m-14.429-36.052 2.817 2.816m-2.817 0 2.817-2.816" transform="matrix(1 0 0 -1 127.339 143.487)"/><g style="fill:#000;fill-opacity:1"><use xlink:href="#j" x="77.847" y="180.264"/><use xlink:href="#k" x="81.508" y="180.264"/><use xlink:href="#l" x="85.17" y="180.264"/><use xlink:href="#m" x="88.831" y="180.264"/><use xlink:href="#t" x="92.492" y="180.264"/><use xlink:href="#u" x="96.153" y="180.264"/><use xlink:href="#n" x="99.815" y="180.264"/><use xlink:href="#n" x="103.476" y="180.264"/><use xlink:href="#p" x="107.137" y="180.264"/></g><path style="fill:none;stroke-width:.3985;stroke-linecap:butt;stroke-linejoin:miter;stroke:#000;stroke-opacity:1;stroke-miterlimit:10" d="m89.567-32.626 2.817 2.82m-2.817 0 2.817-2.82" transform="matrix(1 0 0 -1 127.339 143.487)"/><g style="fill:#000;fill-opacity:1"><use xlink:href="#j" x="192.684" y="183.049"/><use xlink:href="#k" x="196.345" y="183.049"/><use xlink:href="#l" x="200.007" y="183.049"/><use xlink:href="#m" x="203.668" y="183.049"/><use xlink:href="#t" x="207.329" y="183.049"/><use xlink:href="#u" x="210.99" y="183.049"/><use xlink:href="#n" x="214.652" y="183.049"/><use xlink:href="#n" x="218.313" y="183.049"/></g><g style="fill:#000;fill-opacity:1"><use xlink:href="#n" x="225.635" y="183.049"/><use xlink:href="#q" x="229.297" y="183.049"/><use xlink:href="#k" x="232.958" y="183.049"/><use xlink:href="#m" x="236.619" y="183.049"/><use xlink:href="#p" x="240.281" y="183.049"/></g><path style="fill:none;stroke-width:.3985;stroke-linecap:butt;stroke-linejoin:miter;stroke:#000;stroke-opacity:1;stroke-miterlimit:10" d="m-92.386-32.626 2.82 2.82m-2.82 0 2.82-2.82" transform="matrix(1 0 0 -1 127.339 143.487)"/><g style="fill:#000;fill-opacity:1"><use xlink:href="#j" x="10.736" y="183.049"/><use xlink:href="#k" x="14.397" y="183.049"/><use xlink:href="#l" x="18.059" y="183.049"/><use xlink:href="#m" x="21.72" y="183.049"/><use xlink:href="#t" x="25.381" y="183.049"/><use xlink:href="#u" x="29.042" y="183.049"/><use xlink:href="#n" x="32.704" y="183.049"/><use xlink:href="#n" x="36.365" y="183.049"/></g><g style="fill:#000;fill-opacity:1"><use xlink:href="#r" x="43.687" y="183.049"/><use xlink:href="#n" x="47.349" y="183.049"/><use xlink:href="#k" x="51.01" y="183.049"/><use xlink:href="#m" x="54.671" y="183.049"/><use xlink:href="#p" x="58.333" y="183.049"/></g><path style="fill:none;stroke-width:.3985;stroke-linecap:butt;stroke-linejoin:miter;stroke:#000;stroke-opacity:1;stroke-miterlimit:10" d="m-11.566-99.779 2.817 2.817m-2.817 0 2.817-2.817" transform="matrix(1 0 0 -1 127.339 143.487)"/><g style="fill:#000;fill-opacity:1"><use xlink:href="#j" x="84.372" y="243.991"/><use xlink:href="#k" x="88.033" y="243.991"/><use xlink:href="#l" x="91.695" y="243.991"/><use xlink:href="#v" x="95.356" y="243.991"/><use xlink:href="#s" x="99.017" y="243.991"/><use xlink:href="#w" x="102.678" y="243.991"/><use xlink:href="#u" x="106.34" y="243.991"/><use xlink:href="#p" x="110.001" y="243.991"/></g><path style="fill:none;stroke-width:.3985;stroke-linecap:butt;stroke-linejoin:miter;stroke:#000;stroke-opacity:1;stroke-miterlimit:10" d="m89.567-96.322 2.817 2.817m-2.817 0 2.817-2.817" transform="matrix(1 0 0 -1 127.339 143.487)"/><g style="fill:#000;fill-opacity:1"><use xlink:href="#j" x="194.515" y="246.745"/><use xlink:href="#k" x="198.176" y="246.745"/><use xlink:href="#l" x="201.838" y="246.745"/><use xlink:href="#v" x="205.499" y="246.745"/><use xlink:href="#s" x="209.16" y="246.745"/><use xlink:href="#w" x="212.821" y="246.745"/><use xlink:href="#u" x="216.483" y="246.745"/></g><g style="fill:#000;fill-opacity:1"><use xlink:href="#n" x="223.805" y="246.745"/><use xlink:href="#q" x="227.466" y="246.745"/><use xlink:href="#k" x="231.128" y="246.745"/><use xlink:href="#m" x="234.789" y="246.745"/><use xlink:href="#p" x="238.45" y="246.745"/></g><path style="fill:none;stroke-width:.3985;stroke-linecap:butt;stroke-linejoin:miter;stroke:#000;stroke-opacity:1;stroke-miterlimit:10" d="m-92.386-96.322 2.82 2.817m-2.82 0 2.82-2.817" transform="matrix(1 0 0 -1 127.339 143.487)"/><g style="fill:#000;fill-opacity:1"><use xlink:href="#j" x="12.567" y="246.745"/><use xlink:href="#k" x="16.228" y="246.745"/><use xlink:href="#l" x="19.89" y="246.745"/><use xlink:href="#v" x="23.551" y="246.745"/><use xlink:href="#s" x="27.212" y="246.745"/><use xlink:href="#w" x="30.873" y="246.745"/><use xlink:href="#u" x="34.535" y="246.745"/></g><g style="fill:#000;fill-opacity:1"><use xlink:href="#r" x="41.857" y="246.745"/><use xlink:href="#n" x="45.518" y="246.745"/><use xlink:href="#k" x="49.18" y="246.745"/><use xlink:href="#m" x="52.841" y="246.745"/><use xlink:href="#p" x="56.502" y="246.745"/></g><path style="fill:none;stroke-width:.3985;stroke-linecap:butt;stroke-linejoin:miter;stroke:#000;stroke-opacity:1;stroke-miterlimit:10" d="m-1.41 62.288 2.817 2.82m-2.816 0 2.816-2.82" transform="matrix(1 0 0 -1 127.339 143.487)"/><g style="fill:#000;fill-opacity:1"><use xlink:href="#j" x="72.562" y="81.45"/><use xlink:href="#k" x="76.223" y="81.45"/><use xlink:href="#l" x="79.885" y="81.45"/><use xlink:href="#m" x="83.546" y="81.45"/><use xlink:href="#n" x="87.207" y="81.45"/><use xlink:href="#o" x="90.868" y="81.45"/><use xlink:href="#m" x="94.53" y="81.45"/></g><g style="fill:#000;fill-opacity:1"><use xlink:href="#k" x="101.845" y="81.45"/><use xlink:href="#x" x="105.506" y="81.45"/><use xlink:href="#y" x="109.168" y="81.45"/><use xlink:href="#z" x="112.829" y="81.45"/><use xlink:href="#m" x="116.49" y="81.45"/><use xlink:href="#p" x="120.152" y="81.45"/></g><path style="fill:none;stroke-width:.3985;stroke-linecap:butt;stroke-linejoin:miter;stroke:#000;stroke-opacity:1;stroke-miterlimit:10" d="m89.567 62.288 2.817 2.82m-2.817 0 2.817-2.82" transform="matrix(1 0 0 -1 127.339 143.487)"/><g style="fill:#000;fill-opacity:1"><use xlink:href="#j" x="183.531" y="74.764"/><use xlink:href="#k" x="187.192" y="74.764"/><use xlink:href="#l" x="190.854" y="74.764"/><use xlink:href="#m" x="194.515" y="74.764"/><use xlink:href="#n" x="198.176" y="74.764"/><use xlink:href="#o" x="201.837" y="74.764"/><use xlink:href="#m" x="205.499" y="74.764"/></g><g style="fill:#000;fill-opacity:1"><use xlink:href="#k" x="212.821" y="74.764"/><use xlink:href="#x" x="216.482" y="74.764"/><use xlink:href="#y" x="220.144" y="74.764"/><use xlink:href="#z" x="223.805" y="74.764"/><use xlink:href="#m" x="227.466" y="74.764"/></g><g style="fill:#000;fill-opacity:1"><use xlink:href="#n" x="234.789" y="74.764"/><use xlink:href="#q" x="238.45" y="74.764"/><use xlink:href="#k" x="242.111" y="74.764"/><use xlink:href="#m" x="245.773" y="74.764"/><use xlink:href="#p" x="249.434" y="74.764"/></g><path style="fill:none;stroke-width:.3985;stroke-linecap:butt;stroke-linejoin:miter;stroke:#000;stroke-opacity:1;stroke-miterlimit:10" d="m-92.386 62.288 2.82 2.82m-2.82 0 2.82-2.82" transform="matrix(1 0 0 -1 127.339 143.487)"/><g style="fill:#000;fill-opacity:1"><use xlink:href="#j" x="1.583" y="74.764"/><use xlink:href="#k" x="5.244" y="74.764"/><use xlink:href="#l" x="8.906" y="74.764"/><use xlink:href="#m" x="12.567" y="74.764"/><use xlink:href="#n" x="16.228" y="74.764"/><use xlink:href="#o" x="19.889" y="74.764"/><use xlink:href="#m" x="23.551" y="74.764"/></g><g style="fill:#000;fill-opacity:1"><use xlink:href="#k" x="30.873" y="74.764"/><use xlink:href="#x" x="34.534" y="74.764"/><use xlink:href="#y" x="38.196" y="74.764"/><use xlink:href="#z" x="41.857" y="74.764"/><use xlink:href="#m" x="45.518" y="74.764"/></g><g style="fill:#000;fill-opacity:1"><use xlink:href="#r" x="52.841" y="74.764"/><use xlink:href="#n" x="56.502" y="74.764"/><use xlink:href="#k" x="60.163" y="74.764"/><use xlink:href="#m" x="63.825" y="74.764"/><use xlink:href="#p" x="67.486" y="74.764"/></g><path style="fill:none;stroke-width:.3985;stroke-linecap:butt;stroke-linejoin:miter;stroke:#000;stroke-opacity:1;stroke-miterlimit:10" d="m-1.41-.79 2.817 2.816m-2.816 0L1.407-.79" transform="matrix(1 0 0 -1 127.339 143.487)"/><g style="fill:#000;fill-opacity:1"><use xlink:href="#j" x="76.223" y="144.529"/><use xlink:href="#k" x="79.884" y="144.529"/><use xlink:href="#l" x="83.546" y="144.529"/><use xlink:href="#m" x="87.207" y="144.529"/><use xlink:href="#r" x="90.868" y="144.529"/><use xlink:href="#s" x="94.529" y="144.529"/></g><g style="fill:#000;fill-opacity:1"><use xlink:href="#k" x="101.852" y="144.529"/><use xlink:href="#x" x="105.513" y="144.529"/><use xlink:href="#y" x="109.174" y="144.529"/><use xlink:href="#z" x="112.836" y="144.529"/><use xlink:href="#m" x="116.497" y="144.529"/><use xlink:href="#p" x="120.158" y="144.529"/></g><path style="fill:none;stroke-width:.3985;stroke-linecap:butt;stroke-linejoin:miter;stroke:#000;stroke-opacity:1;stroke-miterlimit:10" d="m89.567-.79 2.817 2.816m-2.817 0L92.384-.79" transform="matrix(1 0 0 -1 127.339 143.487)"/><g style="fill:#000;fill-opacity:1"><use xlink:href="#j" x="185.362" y="137.843"/><use xlink:href="#k" x="189.023" y="137.843"/><use xlink:href="#l" x="192.685" y="137.843"/><use xlink:href="#m" x="196.346" y="137.843"/><use xlink:href="#r" x="200.007" y="137.843"/><use xlink:href="#s" x="203.668" y="137.843"/></g><g style="fill:#000;fill-opacity:1"><use xlink:href="#k" x="210.984" y="137.843"/><use xlink:href="#x" x="214.645" y="137.843"/><use xlink:href="#y" x="218.306" y="137.843"/><use xlink:href="#z" x="221.968" y="137.843"/><use xlink:href="#m" x="225.629" y="137.843"/></g><g style="fill:#000;fill-opacity:1"><use xlink:href="#n" x="232.952" y="137.843"/><use xlink:href="#q" x="236.613" y="137.843"/><use xlink:href="#k" x="240.274" y="137.843"/><use xlink:href="#m" x="243.935" y="137.843"/><use xlink:href="#p" x="247.597" y="137.843"/></g><path style="fill:none;stroke-width:.3985;stroke-linecap:butt;stroke-linejoin:miter;stroke:#000;stroke-opacity:1;stroke-miterlimit:10" d="m-92.386-.79 2.82 2.816m-2.82 0 2.82-2.816" transform="matrix(1 0 0 -1 127.339 143.487)"/><g style="fill:#000;fill-opacity:1"><use xlink:href="#j" x="3.414" y="137.843"/><use xlink:href="#k" x="7.075" y="137.843"/><use xlink:href="#l" x="10.737" y="137.843"/><use xlink:href="#m" x="14.398" y="137.843"/><use xlink:href="#r" x="18.059" y="137.843"/><use xlink:href="#s" x="21.72" y="137.843"/></g><g style="fill:#000;fill-opacity:1"><use xlink:href="#k" x="29.043" y="137.843"/><use xlink:href="#x" x="32.704" y="137.843"/><use xlink:href="#y" x="36.365" y="137.843"/><use xlink:href="#z" x="40.027" y="137.843"/><use xlink:href="#m" x="43.688" y="137.843"/></g><g style="fill:#000;fill-opacity:1"><use xlink:href="#r" x="51.011" y="137.843"/><use xlink:href="#n" x="54.672" y="137.843"/><use xlink:href="#k" x="58.333" y="137.843"/><use xlink:href="#m" x="61.994" y="137.843"/><use xlink:href="#p" x="65.656" y="137.843"/></g><path style="fill:none;stroke-width:.3985;stroke-linecap:butt;stroke-linejoin:miter;stroke:#000;stroke-opacity:1;stroke-miterlimit:10" d="m-1.41-64.458 2.817 2.816m-2.816 0 2.816-2.816" transform="matrix(1 0 0 -1 127.339 143.487)"/><g style="fill:#000;fill-opacity:1"><use xlink:href="#j" x="68.9" y="208.196"/><use xlink:href="#k" x="72.561" y="208.196"/><use xlink:href="#l" x="76.223" y="208.196"/><use xlink:href="#m" x="79.884" y="208.196"/><use xlink:href="#t" x="83.545" y="208.196"/><use xlink:href="#u" x="87.206" y="208.196"/><use xlink:href="#n" x="90.868" y="208.196"/><use xlink:href="#n" x="94.529" y="208.196"/></g><g style="fill:#000;fill-opacity:1"><use xlink:href="#k" x="101.851" y="208.196"/><use xlink:href="#x" x="105.513" y="208.196"/><use xlink:href="#y" x="109.174" y="208.196"/><use xlink:href="#z" x="112.835" y="208.196"/><use xlink:href="#m" x="116.497" y="208.196"/><use xlink:href="#p" x="120.158" y="208.196"/></g><path style="fill:none;stroke-width:.3985;stroke-linecap:butt;stroke-linejoin:miter;stroke:#000;stroke-opacity:1;stroke-miterlimit:10" d="m89.567-64.458 2.817 2.816m-2.817 0 2.817-2.816" transform="matrix(1 0 0 -1 127.339 143.487)"/><g style="fill:#000;fill-opacity:1"><use xlink:href="#j" x="181.7" y="214.882"/><use xlink:href="#k" x="185.361" y="214.882"/><use xlink:href="#l" x="189.023" y="214.882"/><use xlink:href="#m" x="192.684" y="214.882"/><use xlink:href="#t" x="196.345" y="214.882"/><use xlink:href="#u" x="200.006" y="214.882"/><use xlink:href="#n" x="203.668" y="214.882"/><use xlink:href="#n" x="207.329" y="214.882"/></g><g style="fill:#000;fill-opacity:1"><use xlink:href="#k" x="214.651" y="214.882"/><use xlink:href="#x" x="218.313" y="214.882"/><use xlink:href="#y" x="221.974" y="214.882"/><use xlink:href="#z" x="225.635" y="214.882"/><use xlink:href="#m" x="229.297" y="214.882"/></g><g style="fill:#000;fill-opacity:1"><use xlink:href="#n" x="236.619" y="214.882"/><use xlink:href="#q" x="240.28" y="214.882"/><use xlink:href="#k" x="243.942" y="214.882"/><use xlink:href="#m" x="247.603" y="214.882"/><use xlink:href="#p" x="251.264" y="214.882"/></g><path style="fill:none;stroke-width:.3985;stroke-linecap:butt;stroke-linejoin:miter;stroke:#000;stroke-opacity:1;stroke-miterlimit:10" d="m-92.386-64.458 2.82 2.816m-2.82 0 2.82-2.816" transform="matrix(1 0 0 -1 127.339 143.487)"/><g style="fill:#000;fill-opacity:1"><use xlink:href="#j" x="-.247" y="214.882"/><use xlink:href="#k" x="3.414" y="214.882"/><use xlink:href="#l" x="7.076" y="214.882"/><use xlink:href="#m" x="10.737" y="214.882"/><use xlink:href="#t" x="14.398" y="214.882"/><use xlink:href="#u" x="18.059" y="214.882"/><use xlink:href="#n" x="21.721" y="214.882"/><use xlink:href="#n" x="25.382" y="214.882"/></g><g style="fill:#000;fill-opacity:1"><use xlink:href="#k" x="32.697" y="214.882"/><use xlink:href="#x" x="36.359" y="214.882"/><use xlink:href="#y" x="40.02" y="214.882"/><use xlink:href="#z" x="43.681" y="214.882"/><use xlink:href="#m" x="47.343" y="214.882"/></g><g style="fill:#000;fill-opacity:1"><use xlink:href="#r" x="54.665" y="214.882"/><use xlink:href="#n" x="58.326" y="214.882"/><use xlink:href="#k" x="61.988" y="214.882"/><use xlink:href="#m" x="65.649" y="214.882"/><use xlink:href="#p" x="69.31" y="214.882"/></g><path style="fill:none;stroke-width:.3985;stroke-linecap:butt;stroke-linejoin:miter;stroke:#000;stroke-opacity:1;stroke-miterlimit:10" d="m-1.41 132.456 2.817 2.816m-2.816 0 2.816-2.816" transform="matrix(1 0 0 -1 127.339 143.487)"/><g style="fill:#000;fill-opacity:1"><use xlink:href="#j" x="110.863" y="5.547"/><use xlink:href="#k" x="114.524" y="5.547"/><use xlink:href="#l" x="118.186" y="5.547"/><use xlink:href="#A" x="121.847" y="5.547"/><use xlink:href="#s" x="125.508" y="5.547"/><use xlink:href="#u" x="129.169" y="5.547"/><use xlink:href="#m" x="132.831" y="5.547"/><use xlink:href="#t" x="136.492" y="5.547"/><use xlink:href="#p" x="140.153" y="5.547"/></g><path style="fill:none;stroke-width:.3985;stroke-linecap:butt;stroke-linejoin:miter;stroke:#000;stroke-opacity:1;stroke-miterlimit:10" d="m-1.41-135.275 2.817 2.82m-2.816 0 2.816-2.82" transform="matrix(1 0 0 -1 127.339 143.487)"/><g style="fill:#000;fill-opacity:1"><use xlink:href="#j" x="110.863" y="285.695"/><use xlink:href="#k" x="114.524" y="285.695"/><use xlink:href="#l" x="118.186" y="285.695"/><use xlink:href="#k" x="121.847" y="285.695"/><use xlink:href="#s" x="125.508" y="285.695"/><use xlink:href="#w" x="129.169" y="285.695"/><use xlink:href="#m" x="132.831" y="285.695"/><use xlink:href="#t" x="136.492" y="285.695"/><use xlink:href="#p" x="140.153" y="285.695"/></g><path style="fill:none;stroke-width:.3985;stroke-linecap:butt;stroke-linejoin:miter;stroke:#000;stroke-opacity:1;stroke-miterlimit:10" d="m89.567-1.408 2.817 2.817m-2.817 0 2.817-2.817" transform="matrix(1 0 0 -1 127.339 143.487)"/><g style="fill:#000;fill-opacity:1"><use xlink:href="#j" x="203.668" y="151.833"/><use xlink:href="#k" x="207.329" y="151.833"/><use xlink:href="#l" x="210.991" y="151.833"/><use xlink:href="#n" x="214.652" y="151.833"/><use xlink:href="#q" x="218.313" y="151.833"/><use xlink:href="#k" x="221.974" y="151.833"/><use xlink:href="#m" x="225.636" y="151.833"/><use xlink:href="#p" x="229.297" y="151.833"/></g><path style="fill:none;stroke-width:.3985;stroke-linecap:butt;stroke-linejoin:miter;stroke:#000;stroke-opacity:1;stroke-miterlimit:10" d="m-92.386-1.408 2.82 2.817m-2.82 0 2.82-2.817" transform="matrix(1 0 0 -1 127.339 143.487)"/><g style="fill:#000;fill-opacity:1"><use xlink:href="#j" x="21.72" y="151.833"/><use xlink:href="#k" x="25.381" y="151.833"/><use xlink:href="#l" x="29.043" y="151.833"/><use xlink:href="#r" x="32.704" y="151.833"/><use xlink:href="#n" x="36.365" y="151.833"/><use xlink:href="#k" x="40.026" y="151.833"/><use xlink:href="#m" x="43.688" y="151.833"/><use xlink:href="#p" x="47.349" y="151.833"/></g><path style="fill:none;stroke-width:.3985;stroke-linecap:butt;stroke-linejoin:miter;stroke:#000;stroke-opacity:1;stroke-miterlimit:10" d="m-92.386 132.456 2.82 2.816m-2.82 0 2.82-2.816" transform="matrix(1 0 0 -1 127.339 143.487)"/><g style="fill:#000;fill-opacity:1"><use xlink:href="#j" x="10.736" y="5.547"/><use xlink:href="#k" x="14.397" y="5.547"/><use xlink:href="#l" x="18.059" y="5.547"/><use xlink:href="#A" x="21.72" y="5.547"/><use xlink:href="#s" x="25.381" y="5.547"/><use xlink:href="#u" x="29.042" y="5.547"/><use xlink:href="#m" x="32.704" y="5.547"/><use xlink:href="#t" x="36.365" y="5.547"/></g><g style="fill:#000;fill-opacity:1"><use xlink:href="#r" x="43.687" y="5.547"/><use xlink:href="#n" x="47.349" y="5.547"/><use xlink:href="#k" x="51.01" y="5.547"/><use xlink:href="#m" x="54.671" y="5.547"/><use xlink:href="#p" x="58.333" y="5.547"/></g><path style="fill:none;stroke-width:.3985;stroke-linecap:butt;stroke-linejoin:miter;stroke:#000;stroke-opacity:1;stroke-miterlimit:10" d="m89.567 132.456 2.817 2.816m-2.817 0 2.817-2.816" transform="matrix(1 0 0 -1 127.339 143.487)"/><g style="fill:#000;fill-opacity:1"><use xlink:href="#j" x="192.684" y="5.547"/><use xlink:href="#k" x="196.345" y="5.547"/><use xlink:href="#l" x="200.007" y="5.547"/><use xlink:href="#A" x="203.668" y="5.547"/><use xlink:href="#s" x="207.329" y="5.547"/><use xlink:href="#u" x="210.99" y="5.547"/><use xlink:href="#m" x="214.652" y="5.547"/><use xlink:href="#t" x="218.313" y="5.547"/></g><g style="fill:#000;fill-opacity:1"><use xlink:href="#n" x="225.635" y="5.547"/><use xlink:href="#q" x="229.297" y="5.547"/><use xlink:href="#k" x="232.958" y="5.547"/><use xlink:href="#m" x="236.619" y="5.547"/><use xlink:href="#p" x="240.281" y="5.547"/></g><path style="fill:none;stroke-width:.3985;stroke-linecap:butt;stroke-linejoin:miter;stroke:#000;stroke-opacity:1;stroke-miterlimit:10" d="m-92.386-135.275 2.82 2.82m-2.82 0 2.82-2.82" transform="matrix(1 0 0 -1 127.339 143.487)"/><g style="fill:#000;fill-opacity:1"><use xlink:href="#j" x="10.736" y="285.695"/><use xlink:href="#k" x="14.397" y="285.695"/><use xlink:href="#l" x="18.059" y="285.695"/><use xlink:href="#k" x="21.72" y="285.695"/><use xlink:href="#s" x="25.381" y="285.695"/><use xlink:href="#w" x="29.042" y="285.695"/><use xlink:href="#m" x="32.704" y="285.695"/><use xlink:href="#t" x="36.365" y="285.695"/></g><g style="fill:#000;fill-opacity:1"><use xlink:href="#r" x="43.687" y="285.695"/><use xlink:href="#n" x="47.349" y="285.695"/><use xlink:href="#k" x="51.01" y="285.695"/><use xlink:href="#m" x="54.671" y="285.695"/><use xlink:href="#p" x="58.333" y="285.695"/></g><path style="fill:none;stroke-width:.3985;stroke-linecap:butt;stroke-linejoin:miter;stroke:#000;stroke-opacity:1;stroke-miterlimit:10" d="m89.567-135.275 2.817 2.82m-2.817 0 2.817-2.82" transform="matrix(1 0 0 -1 127.339 143.487)"/><g style="fill:#000;fill-opacity:1"><use xlink:href="#j" x="192.684" y="285.695"/><use xlink:href="#k" x="196.345" y="285.695"/><use xlink:href="#l" x="200.007" y="285.695"/><use xlink:href="#k" x="203.668" y="285.695"/><use xlink:href="#s" x="207.329" y="285.695"/><use xlink:href="#w" x="210.99" y="285.695"/><use xlink:href="#m" x="214.652" y="285.695"/><use xlink:href="#t" x="218.313" y="285.695"/></g><g style="fill:#000;fill-opacity:1"><use xlink:href="#n" x="225.635" y="285.695"/><use xlink:href="#q" x="229.297" y="285.695"/><use xlink:href="#k" x="232.958" y="285.695"/><use xlink:href="#m" x="236.619" y="285.695"/><use xlink:href="#p" x="240.281" y="285.695"/></g><path style="fill:none;stroke-width:.3985;stroke-linecap:butt;stroke-linejoin:miter;stroke:#000;stroke-opacity:1;stroke-miterlimit:10" d="M-1.41-1.408 1.408 1.41m-2.816 0 2.816-2.817" transform="matrix(1 0 0 -1 127.339 143.487)"/><g style="fill:#000;fill-opacity:1"><use xlink:href="#j" x="109.033" y="139.41"/><use xlink:href="#k" x="112.694" y="139.41"/><use xlink:href="#l" x="116.356" y="139.41"/><use xlink:href="#B" x="120.017" y="139.41"/><use xlink:href="#n" x="123.678" y="139.41"/><use xlink:href="#A" x="127.339" y="139.41"/><use xlink:href="#m" x="131.001" y="139.41"/><use xlink:href="#n" x="134.662" y="139.41"/><use xlink:href="#u" x="138.323" y="139.41"/><use xlink:href="#p" x="141.984" y="139.41"/></g><path style="fill:none;stroke-width:.3985;stroke-linecap:butt;stroke-linejoin:miter;stroke:#000;stroke-opacity:1;stroke-miterlimit:10" d="m47.313 132.456 2.817 2.816m-2.817 0 2.817-2.816" transform="matrix(1 0 0 -1 127.339 143.487)"/><g style="fill:#000;fill-opacity:1"><use xlink:href="#j" x="165.077" y="5.547"/><use xlink:href="#k" x="168.738" y="5.547"/><use xlink:href="#l" x="172.4" y="5.547"/><use xlink:href="#C" x="176.061" y="5.547"/><use xlink:href="#D" x="179.722" y="5.547"/><use xlink:href="#p" x="183.383" y="5.547"/></g><path style="fill:none;stroke-width:.3985;stroke-linecap:butt;stroke-linejoin:miter;stroke:#000;stroke-opacity:1;stroke-miterlimit:10" d="m-1.41 92.905 2.817 2.82m-2.816 0 2.816-2.82" transform="matrix(1 0 0 -1 127.339 143.487)"/><g style="fill:#000;fill-opacity:1"><use xlink:href="#j" x="114.525" y="45.095"/><use xlink:href="#k" x="118.186" y="45.095"/><use xlink:href="#l" x="121.848" y="45.095"/><use xlink:href="#E" x="125.509" y="45.095"/><use xlink:href="#z" x="129.17" y="45.095"/><use xlink:href="#F" x="132.831" y="45.095"/><use xlink:href="#p" x="136.493" y="45.095"/></g><path style="fill:none;stroke-width:.3985;stroke-linecap:butt;stroke-linejoin:miter;stroke:#000;stroke-opacity:1;stroke-miterlimit:10" d="m-1.41 90.694 2.817 2.82m-2.816 0 2.816-2.82" transform="matrix(1 0 0 -1 127.339 143.487)"/><g style="fill:#000;fill-opacity:1"><use xlink:href="#j" x="112.694" y="59.73"/><use xlink:href="#k" x="116.355" y="59.73"/><use xlink:href="#l" x="120.017" y="59.73"/><use xlink:href="#G" x="123.678" y="59.73"/><use xlink:href="#q" x="127.339" y="59.73"/><use xlink:href="#k" x="131" y="59.73"/><use xlink:href="#n" x="134.662" y="59.73"/><use xlink:href="#p" x="138.323" y="59.73"/></g></svg>