<svg xmlns="http://www.w3.org/2000/svg" width="29.269" height="9.339" viewBox="0 0 21.952 7.004" version="1.2"><defs><clipPath id="a"><path d="M5 0h16.93v6.508H5Zm0 0"/></clipPath></defs><path style="fill:none;stroke-width:.3985;stroke-linecap:butt;stroke-linejoin:miter;stroke:#000;stroke-opacity:1;stroke-miterlimit:10" d="M0 2.212h10.163" transform="matrix(1 0 0 -1 .985 5.212)"/><path style="stroke:none;fill-rule:nonzero;fill:#000;fill-opacity:1" d="M20.71 3c0-1.266-2.14-2.293-4.78-2.293S11.148 1.734 11.148 3c0 1.266 2.141 2.293 4.782 2.293 2.64 0 4.78-1.027 4.78-2.293Zm0 0"/><g clip-path="url(#a)"><path style="fill:none;stroke-width:.3985;stroke-linecap:butt;stroke-linejoin:miter;stroke:#000;stroke-opacity:1;stroke-miterlimit:10" d="M9.763 0c0 1.266-2.14 2.293-4.781 2.293C2.342 2.293.2 1.266.2 0c0-1.265 2.14-2.293 4.78-2.293 2.642 0 4.782 1.028 4.782 2.293Zm0 0" transform="matrix(1 0 0 -1 10.948 3)"/></g></svg>