<svg xmlns="http://www.w3.org/2000/svg" width="87.23pt" height="83.307" viewBox="0 0 87.23 62.48" version="1.2"><defs><clipPath id="a"><path d="M37 51h41v11.219H37Zm0 0"/></clipPath><clipPath id="b"><path d="M0 0h86.844v62.219H0Zm0 0"/></clipPath></defs><g clip-path="url(#a)"><path style="fill:none;stroke-width:.3985;stroke-linecap:round;stroke-linejoin:miter;stroke:#000;stroke-opacity:1;stroke-miterlimit:10" d="M70.641 0a3.486 3.486 0 1 0-6.973 0 3.49 3.49 0 0 0-6.976 0 3.486 3.486 0 1 0-6.972 0 3.486 3.486 0 1 0-6.973 0" transform="matrix(1 0 0 -1 .796 57.524)"/></g><path style="fill:none;stroke-width:.3985;stroke-linecap:round;stroke-linejoin:miter;stroke:#000;stroke-opacity:1;stroke-miterlimit:10" d="M20.423 15.848a3.481 3.481 0 0 0-4.676 1.559 3.487 3.487 0 0 0 1.559 4.68 3.487 3.487 0 0 0-3.122 6.234 3.486 3.486 0 0 0-4.675 1.558 3.486 3.486 0 0 0 1.558 4.68 3.487 3.487 0 0 0-3.117 6.238" transform="matrix(1 0 0 -1 .796 57.524)"/><g clip-path="url(#b)"><path style="fill:none;stroke-width:.3985;stroke-linecap:butt;stroke-linejoin:miter;stroke:#000;stroke-opacity:1;stroke-miterlimit:10" d="M85.04 0H70.64M42.747 0H28.349l-7.926 15.848M7.95 40.794 0 56.688v.004" transform="matrix(1 0 0 -1 .796 57.524)"/></g></svg>