<svg xmlns="http://www.w3.org/2000/svg" width="343.384" height="41.283" viewBox="0 0 257.538 30.962" version="1.2"><defs><clipPath id="a"><path d="M0 0h35v30.941H0Zm0 0"/></clipPath><clipPath id="b"><path d="M52 0h40v30.941H52Zm0 0"/></clipPath><clipPath id="c"><path d="M108 0h41v30.941h-41Zm0 0"/></clipPath><clipPath id="d"><path d="M109 0h39v30.941h-39Zm0 0"/></clipPath><clipPath id="e"><path d="M165 0h41v30.941h-41Zm0 0"/></clipPath><clipPath id="f"><path d="M222 0h35.309v30.941H222Zm0 0"/></clipPath></defs><g clip-path="url(#a)"><path style="fill:none;stroke-width:.3985;stroke-linecap:butt;stroke-linejoin:miter;stroke:#00f;stroke-opacity:1;stroke-dasharray:2.98883,2.98883;stroke-miterlimit:10" d="M184.254-.001c0 7.828-6.344 14.175-14.172 14.175S155.907 7.827 155.907 0s6.347-14.172 14.175-14.172S184.254-7.83 184.254-.001Zm0 0" transform="matrix(1 0 0 -1 -154.93 15.569)"/></g><path style="fill:none;stroke-width:.3985;stroke-linecap:butt;stroke-linejoin:miter;stroke:#000;stroke-opacity:1;stroke-miterlimit:10" d="M170.082 14.174 157.805-7.087h24.55Zm0 0" transform="matrix(1 0 0 -1 -154.93 15.569)"/><g clip-path="url(#b)"><path style="fill:none;stroke-width:.3985;stroke-linecap:butt;stroke-linejoin:miter;stroke:#00f;stroke-opacity:1;stroke-dasharray:2.98883,2.98883;stroke-miterlimit:10" d="M240.95-.001c0 7.828-6.348 14.175-14.176 14.175S212.602 7.827 212.602 0s6.344-14.172 14.172-14.172S240.95-7.83 240.95-.001Zm0 0" transform="matrix(1 0 0 -1 -154.93 15.569)"/></g><path style="fill:none;stroke-width:.3985;stroke-linecap:butt;stroke-linejoin:miter;stroke:#000;stroke-opacity:1;stroke-miterlimit:10" d="M236.797 10.022h-20.043V-10.02h20.043Zm0 0" transform="matrix(1 0 0 -1 -154.93 15.569)"/><g clip-path="url(#c)"><path style="fill:none;stroke-width:.3985;stroke-linecap:butt;stroke-linejoin:miter;stroke:#00f;stroke-opacity:1;stroke-dasharray:2.98883,2.98883;stroke-miterlimit:10" d="M297.64-.001c0 7.828-6.343 14.175-14.17 14.175-7.83 0-14.177-6.347-14.177-14.175s6.348-14.172 14.176-14.172S297.641-7.83 297.641-.001Zm0 0" transform="matrix(1 0 0 -1 -154.93 15.569)"/></g><g clip-path="url(#d)"><path style="fill:none;stroke-width:.3985;stroke-linecap:butt;stroke-linejoin:miter;stroke:#000;stroke-opacity:1;stroke-miterlimit:10" d="m283.47 14.174-13.481-9.792 5.148-15.848h16.66l5.153 15.848Zm0 0" transform="matrix(1 0 0 -1 -154.93 15.569)"/></g><g clip-path="url(#e)"><path style="fill:none;stroke-width:.3985;stroke-linecap:butt;stroke-linejoin:miter;stroke:#00f;stroke-opacity:1;stroke-dasharray:2.98883,2.98883;stroke-miterlimit:10" d="M354.336-.001c0 7.828-6.347 14.175-14.176 14.175-7.828 0-14.171-6.347-14.171-14.175s6.343-14.172 14.171-14.172c7.829 0 14.176 6.344 14.176 14.172Zm0 0" transform="matrix(1 0 0 -1 -154.93 15.569)"/><path style="fill:none;stroke-width:.3985;stroke-linecap:butt;stroke-linejoin:miter;stroke:#000;stroke-opacity:1;stroke-miterlimit:10" d="M347.25 12.276h-14.175L325.989-.001l7.086-12.274h14.175L354.336 0Zm0 0" transform="matrix(1 0 0 -1 -154.93 15.569)"/></g><g clip-path="url(#f)"><path style="fill:none;stroke-width:.3985;stroke-linecap:butt;stroke-linejoin:miter;stroke:#00f;stroke-opacity:1;stroke-dasharray:2.98883,2.98883;stroke-miterlimit:10" d="M411.028-.001c0 7.828-6.344 14.175-14.172 14.175S382.68 7.827 382.68 0s6.348-14.172 14.176-14.172S411.028-7.83 411.028-.001Zm0 0" transform="matrix(1 0 0 -1 -154.93 15.569)"/><path style="fill:none;stroke-width:.3985;stroke-linecap:butt;stroke-linejoin:miter;stroke:#000;stroke-opacity:1;stroke-miterlimit:10" d="m396.856 14.174-11.082-5.34-2.735-11.988 7.668-9.617h12.297l7.668 9.617-2.738 11.989Zm0 0" transform="matrix(1 0 0 -1 -154.93 15.569)"/></g></svg>