<svg xmlns="http://www.w3.org/2000/svg" xmlns:xlink="http://www.w3.org/1999/xlink" width="426.627" height="16.827" viewBox="0 0 319.97 12.62" version="1.2"><defs><symbol overflow="visible" id="a"><path style="stroke:none" d="m6.734-4.375-.312-2.406H.39v.468h1.078v5.844H.39V0c.375-.031 1.39-.031 1.828-.031.484 0 1.562 0 2.015.031v-.469H2.875v-2.687h.5c.969 0 1.047.422 1.047 1.156h.469v-2.797h-.47c0 .734-.077 1.172-1.046 1.172h-.5v-2.688h1.406c1.594 0 1.828.766 1.985 1.938Zm0 0"/></symbol><symbol overflow="visible" id="b"><path style="stroke:none" d="M5.516-.234c0-.235-.125-.235-.266-.235-.61-.015-.61-.14-.61-.375v-2.14c0-.891-.702-1.532-2.187-1.532-.562 0-1.781.047-1.781.922 0 .438.344.625.61.625.312 0 .624-.219.624-.625 0-.297-.187-.469-.218-.5a5.28 5.28 0 0 1 .718-.062c.75 0 1.11.422 1.11 1.172v.343c-.72.032-3.25.125-3.25 1.563C.266-.125 1.5.062 2.187.062c.797 0 1.266-.406 1.485-.828 0 .313 0 .766 1.047.766h.468c.204 0 .329 0 .329-.234Zm-2-1.157c0 .97-.922 1.094-1.172 1.094-.516 0-.906-.344-.906-.797 0-1.062 1.578-1.203 2.078-1.234Zm0 0"/></symbol><symbol overflow="visible" id="c"><path style="stroke:none" d="M2.922 0v-.469h-.688v-6.453L.47-6.844v.469c.625 0 .687 0 .687.39v5.516H.47V0l1.219-.031Zm0 0"/></symbol><symbol overflow="visible" id="d"><path style="stroke:none" d="M4.14-1.39c0-.438-.202-.782-.546-1.063-.39-.281-.719-.344-1.485-.485-.375-.062-1.015-.171-1.015-.64 0-.625.922-.625 1.11-.625.75 0 1.124.297 1.171.844.016.156.031.203.234.203.235 0 .235-.047.235-.281v-.797c0-.188 0-.282-.172-.282-.047 0-.063 0-.453.188-.266-.125-.61-.188-1-.188-.313 0-1.844 0-1.844 1.313 0 .39.203.656.406.828.39.344.781.406 1.547.547.36.062 1.094.187 1.094.781 0 .75-.906.75-1.125.75C1.234-.297.984-1.03.859-1.453c-.046-.14-.109-.14-.234-.14-.25 0-.25.062-.25.28v1.094c0 .188 0 .281.188.281.062 0 .078 0 .296-.156l.25-.172c.47.329.985.329 1.188.329.312 0 1.844 0 1.844-1.454Zm0 0"/></symbol><symbol overflow="visible" id="e"><path style="stroke:none" d="M4.766-1.172c0-.14-.141-.14-.235-.14-.187 0-.187.03-.25.156-.25.625-.734.812-1.234.812-1.39 0-1.39-1.453-1.39-1.922 0-.562 0-1.843 1.28-1.843.36 0 .516.015.657.046a.618.618 0 0 0-.203.47c0 .437.343.624.609.624.313 0 .64-.219.64-.625 0-.86-1.156-.922-1.734-.922C1.11-4.516.375-3.375.375-2.219.375-.89 1.313.062 2.844.062c1.625 0 1.922-1.156 1.922-1.234Zm0 0"/></symbol><symbol overflow="visible" id="f"><path style="stroke:none" d="M6.125 0v-.469h-.688v-2.578c0-1.047-.53-1.437-1.53-1.437a1.9 1.9 0 0 0-1.688.953v-3.39l-1.766.077v.469c.61 0 .688 0 .688.39v5.516H.453V0l1.25-.031L2.953 0v-.469h-.687v-2.078c0-1.094.859-1.578 1.5-1.578.328 0 .546.203.546.969V-.47h-.687V0l1.25-.031Zm0 0"/></symbol><symbol overflow="visible" id="g"><path style="stroke:none" d="M4.922-1.172c0-.172-.188-.172-.234-.172-.172 0-.188.047-.25.203-.204.485-.782.797-1.422.797-1.407 0-1.422-1.328-1.422-1.828h3.015c.22 0 .313 0 .313-.265 0-.313-.063-1.047-.563-1.547-.359-.36-.89-.532-1.578-.532C1.187-4.516.312-3.484.312-2.25c0 1.344 1 2.313 2.61 2.313 1.578 0 2-1.063 2-1.235ZM3.984-2.5h-2.39c.015-.39.031-.813.234-1.14.266-.391.672-.516.953-.516 1.172 0 1.188 1.312 1.203 1.656Zm0 0"/></symbol><symbol overflow="visible" id="h"><path style="stroke:none" d="M8.422-6.375v-.469c-.375.032-.938.032-1.328.032-.422 0-.938 0-1.36-.032v.469h.25c.188 0 .36.016.532.031.296.032.296.047.296.266v3.75C6.813-.844 5.734-.36 4.642-.36c-1.735 0-1.766-1.313-1.766-1.86v-4.156h1.078v-.469c-.375.032-1.344.032-1.781.032-.422 0-1.406 0-1.781-.032v.469h1.078v4.078C1.469-.984 2.547.11 4.609.11 6.5.11 7.344-1.062 7.344-2.28v-3.797c0-.219.015-.234.297-.266.234-.031.25-.031.53-.031ZM3.875-7.953a.7.7 0 0 0-.703-.703.7.7 0 0 0-.703.703.71.71 0 0 0 .703.703.71.71 0 0 0 .703-.703Zm3.016 0a.7.7 0 0 0-.704-.703.687.687 0 0 0-.687.703c0 .375.297.703.688.703a.71.71 0 0 0 .703-.703Zm0 0"/></symbol><symbol overflow="visible" id="i"><path style="stroke:none" d="M5.984-2.219c0-1.328-.937-2.265-2.39-2.265-.719 0-1.219.28-1.453.484v-2.922l-1.766.078v.469c.61 0 .688 0 .688.39V0h.468c.157-.188.328-.375.485-.563.078.079.562.625 1.453.625 1.484 0 2.515-.906 2.515-2.28Zm-1.28 0c0 .469 0 1.016-.25 1.406-.298.407-.75.516-1.079.516-.688 0-1.078-.547-1.188-.687v-2.5c.282-.36.75-.641 1.297-.641 1.22 0 1.22 1.203 1.22 1.906Zm0 0"/></symbol><symbol overflow="visible" id="j"><path style="stroke:none" d="M6.125 0v-.469h-.688v-2.578c0-1.047-.53-1.437-1.53-1.437-.954 0-1.485.562-1.75 1.078v-1.078l-1.704.078v.468c.61 0 .688 0 .688.391v3.078H.453V0l1.25-.031L2.953 0v-.469h-.687v-2.078c0-1.094.859-1.578 1.5-1.578.328 0 .546.203.546.969V-.47h-.687V0l1.25-.031Zm0 0"/></symbol><symbol overflow="visible" id="k"><path style="stroke:none" d="M5.781-3.953v-.469c-.25.016-.531.031-.781.031l-.906-.03v.468c.187 0 .468.031.468.11 0 0 0 .015-.046.109l-1.157 2.5-1.265-2.72h.531v-.468l-1.234.031-1.125-.03v.468H.89l1.75 3.75c.125.25.25.25.375.25.171 0 .28-.031.375-.25L5.047-3.75c.062-.14.094-.203.734-.203Zm0 0"/></symbol><symbol overflow="visible" id="l"><path style="stroke:none" d="M5.406-2.172c0-1.344-.922-2.344-2.547-2.344C1.22-4.516.313-3.5.313-2.172c0 1.235.89 2.235 2.546 2.235 1.672 0 2.547-1.016 2.547-2.235Zm-1.281-.11c0 .86 0 1.938-1.266 1.938-1.265 0-1.265-1.078-1.265-1.937 0-.453 0-.953.172-1.297.187-.375.609-.578 1.093-.578.422 0 .844.156 1.063.5.203.344.203.89.203 1.375Zm0 0"/></symbol><symbol overflow="visible" id="m"><path style="stroke:none" d="M8.328 0v-.469h-.984L4.828-3.953 6.5-6.156c.11-.14.125-.157.469-.188.234-.031.297-.031.578-.031h.281v-.469c-.406.032-.906.032-1.328.032-.39 0-1.156 0-1.516-.032v.469c.172 0 .563 0 .922.11-.015.03-.062.077-.078.109L4.5-4.406 3.078-6.375h.828v-.469c-.406.032-1.36.032-1.797.032-.406 0-1.265 0-1.625-.032v.469h.985l2.203 3.063-2 2.64c-.094.125-.11.14-.438.172-.203.016-.406.031-.609.031H.344V0c.406-.031.906-.031 1.328-.031.39 0 1.156 0 1.516.031v-.469c-.172 0-.563 0-.922-.11.015-.015.062-.077.093-.109L4-2.874 5.734-.469h-.828V0c.407-.031 1.36-.031 1.797-.031.406 0 1.266 0 1.625.031Zm0 0"/></symbol><symbol overflow="visible" id="n"><path style="stroke:none" d="M5.781-3.953v-.469A12.55 12.55 0 0 1 5-4.39l-.906-.03v.468s.468 0 .468.11L4.5-3.72 3.36-1.266 2.093-3.953h.531v-.469l-1.234.031-1.125-.03v.468H.89L2.766 0 2.53.484C2.312.954 2 1.641 1.281 1.641c-.14 0-.156-.016-.234-.047.094-.032.312-.172.312-.532C1.36.734 1.125.5.781.5a.553.553 0 0 0-.562.578c0 .5.469.922 1.062.922.766 0 1.344-.625 1.625-1.188l2.14-4.562c.063-.14.095-.203.735-.203Zm0 0"/></symbol><symbol overflow="visible" id="o"><path style="stroke:none" d="M5.984-2.219c0-1.328-.906-2.265-2.343-2.265-.75 0-1.282.312-1.5.484v-.484l-1.766.078v.468c.61 0 .688 0 .688.376v5.03H.375v.47l1.25-.032 1.25.032v-.47h-.688V-.39A2.01 2.01 0 0 0 3.47.063c1.5 0 2.515-.907 2.515-2.282Zm-1.28 0C4.703-.813 4-.297 3.358-.297c-.14 0-.609 0-1.062-.547-.11-.125-.11-.14-.11-.328v-2.11c0-.187.016-.202.157-.343.39-.406.922-.469 1.14-.469.657 0 1.22.61 1.22 1.875Zm0 0"/></symbol><symbol overflow="visible" id="p"><path style="stroke:none" d="M9.328 0v-.469h-.687v-2.578c0-1.031-.516-1.437-1.547-1.437-.907 0-1.422.5-1.688.953-.187-.922-1.11-.953-1.484-.953-.875 0-1.438.453-1.766 1.078v-1.078l-1.703.078v.468c.61 0 .688 0 .688.391v3.078H.453V0l1.25-.031L2.953 0v-.469h-.687v-2.078c0-1.094.875-1.578 1.5-1.578.328 0 .546.203.546.969V-.47h-.687V0l1.266-.031L6.14 0v-.469h-.688v-2.078c0-1.094.86-1.578 1.484-1.578.344 0 .563.203.563.969V-.47h-.688V0l1.25-.031Zm0 0"/></symbol><symbol overflow="visible" id="q"><path style="stroke:none" d="M6.125 0v-.469c-.61 0-.688 0-.688-.39v-3.625l-1.812.078v.468c.61 0 .688 0 .688.391v1.906c0 .813-.516 1.344-1.235 1.344-.781 0-.812-.25-.812-.797v-3.39l-1.813.078v.468c.61 0 .688 0 .688.391v2.328c0 1.063.796 1.282 1.796 1.282.25 0 .97 0 1.422-.782v.781Zm0 0"/></symbol><symbol overflow="visible" id="r"><path style="stroke:none" d="M2.844 0v-.469h-.61v-4.015L.5-4.406v.468c.594 0 .656 0 .656.391v3.078H.47V0l1.219-.031Zm-.469-6.047a.774.774 0 0 0-.781-.781.784.784 0 0 0-.782.781c0 .422.36.766.782.766a.77.77 0 0 0 .781-.766Zm0 0"/></symbol><symbol overflow="visible" id="s"><path style="stroke:none" d="M5.86 0v-.469h-.173c-.437 0-.468-.047-.593-.203L3.406-2.766 4.703-3.78c.14-.11.234-.172.906-.172v-.469c-.28.031-.53.031-.78.031l-1.157-.03v.468c.234 0 .265.031.344.11L2.14-2.36v-4.563l-1.766.078v.469c.61 0 .688 0 .688.39v5.516H.375V0l1.188-.031L2.766 0v-.469h-.688v-1.265c.297-.235.375-.297.578-.422l1 1.25c.094.125.25.312.25.344 0 .093-.172.093-.312.093V0a52.51 52.51 0 0 1 1.219-.031c.359 0 .703.015 1.046.031Zm0 0"/></symbol><symbol overflow="visible" id="t"><path style="stroke:none" d="M5.984 1.938v-.47h-.687v-5.952H4.89l-.532.78a1.851 1.851 0 0 0-1.5-.78c-1.453 0-2.484.89-2.484 2.265C.375-.813 1.391.062 2.765.062c.5 0 .938-.14 1.407-.546v1.953h-.688v.468l1.25-.03Zm-1.75-3.36c0 .188 0 .219-.156.422-.406.594-.906.703-1.203.703-.625 0-1.219-.578-1.219-1.906 0-1.422.735-1.89 1.328-1.89.766 0 1.25.796 1.25 1.296Zm0 0"/></symbol><symbol overflow="visible" id="u"><path style="stroke:none" d="M5.516-.234c0-.235-.125-.235-.266-.235-.61-.015-.61-.14-.61-.375v-2.14c0-.891-.702-1.532-2.187-1.532-.562 0-1.781.047-1.781.922 0 .438.344.625.61.625.312 0 .624-.219.624-.625 0-.297-.187-.469-.218-.5a5.28 5.28 0 0 1 .718-.062c.75 0 1.11.422 1.11 1.172v.343c-.72.032-3.25.125-3.25 1.563C.266-.125 1.5.062 2.187.062c.797 0 1.266-.406 1.485-.828 0 .313 0 .766 1.047.766h.468c.204 0 .329 0 .329-.234Zm-2-1.157c0 .97-.922 1.094-1.172 1.094-.516 0-.906-.344-.906-.797 0-1.062 1.578-1.203 2.078-1.234ZM2.203-6.047A.7.7 0 0 0 1.5-6.75a.687.687 0 0 0-.688.703c0 .375.297.688.688.688.39 0 .703-.313.703-.688Zm2.563 0a.7.7 0 0 0-.704-.703.687.687 0 0 0-.687.703c0 .375.297.688.688.688.39 0 .703-.313.703-.688Zm0 0"/></symbol><symbol overflow="visible" id="v"><path style="stroke:none" d="M3.813-1.234v-.532h-.47v.516c0 .672-.327.906-.609.906-.578 0-.578-.64-.578-.86v-2.75h1.469v-.468H2.156v-1.906h-.469c0 1-.484 1.984-1.484 2.016v.359h.828v2.734c0 1.063.86 1.282 1.578 1.282.75 0 1.204-.579 1.204-1.297Zm0 0"/></symbol><symbol overflow="visible" id="w"><path style="stroke:none" d="M2.656.422v-4.906l-1.828.078v.468c.172 0 .39 0 .531.016.22.047.22.172.22.39V.423c0 .5-.141 1.219-.735 1.219-.172 0-.25-.032-.39-.063a.624.624 0 0 0 .233-.5.617.617 0 0 0-.625-.625c-.374 0-.625.281-.625.64 0 .563.61.907 1.422.907.86 0 1.797-.531 1.797-1.578Zm0-6.469a.774.774 0 1 0-1.547-.015.774.774 0 0 0 1.547.015Zm0 0"/></symbol><symbol overflow="visible" id="x"><path style="stroke:none" d="M5.984 0v-.469c-.609 0-.687 0-.687-.39v-6.063l-1.766.078v.469c.625 0 .703 0 .703.39v1.954a2.178 2.178 0 0 0-1.359-.453c-1.453 0-2.5.875-2.5 2.28 0 1.313.922 2.267 2.39 2.267.61 0 1.094-.235 1.407-.485v.484ZM4.172-1.031c-.14.187-.547.734-1.297.734-1.219 0-1.219-1.203-1.219-1.906 0-.485 0-1.016.25-1.406.297-.422.766-.516 1.078-.516.563 0 .97.313 1.188.61Zm0 0"/></symbol><symbol overflow="visible" id="y"><path style="stroke:none" d="M5.563-3.953c0-.235-.172-.578-.625-.578-.157 0-.625.031-1.063.375-.172-.125-.594-.328-1.328-.328-1.438 0-1.985.78-1.985 1.468 0 .407.188.829.516 1.047-.281.36-.344.688-.344.89 0 .157.047.641.438.954-.125.031-.86.25-.86.875C.313 1.25.875 2 2.86 2 4.625 2 5.406 1.422 5.406.719c0-.297-.078-.922-.75-1.266-.562-.281-1.156-.281-2.11-.281-.265 0-.718 0-.765-.016a.625.625 0 0 1-.562-.625c0-.093.047-.25.11-.328.452.234.968.266 1.218.266 1.437 0 1.984-.782 1.984-1.485 0-.468-.25-.796-.406-.953.297-.156.516-.172.625-.187a.433.433 0 0 0-.047.203c0 .25.172.422.438.422a.41.41 0 0 0 .421-.422Zm-2.141.937c0 .454 0 1.125-.875 1.125s-.875-.671-.875-1.125c0-.437 0-1.109.875-1.109s.875.672.875 1.11ZM4.547.75c0 .36-.39.89-1.688.89-1.187 0-1.687-.452-1.687-.906 0-.609.625-.609.766-.609h1.171c.313 0 1.438 0 1.438.625Zm0 0"/></symbol><symbol overflow="visible" id="z"><path style="stroke:none" d="M4.406-3.672c0-.531-.531-.812-1.062-.812-.688 0-1.094.5-1.313 1.125v-1.125l-1.656.078v.468c.61 0 .688 0 .688.391v3.078H.375V0l1.25-.031C2-.031 2.641-.031 3 0v-.469h-.86v-1.75c0-.687.235-1.906 1.235-1.906 0 0-.188.172-.188.453 0 .406.329.61.61.61.297 0 .61-.204.61-.61Zm0 0"/></symbol><symbol overflow="visible" id="A"><path style="stroke:none" d="M5.406-2.172c0-1.344-.922-2.344-2.547-2.344C1.22-4.516.313-3.5.313-2.172c0 1.235.89 2.235 2.546 2.235 1.672 0 2.547-1.016 2.547-2.235Zm-1.281-.11c0 .86 0 1.938-1.266 1.938-1.265 0-1.265-1.078-1.265-1.937 0-.453 0-.953.172-1.297.187-.375.609-.578 1.093-.578.422 0 .844.156 1.063.5.203.344.203.89.203 1.375ZM2.281-6.046a.7.7 0 0 0-.703-.703.697.697 0 0 0-.687.703c0 .375.312.688.687.688.39 0 .703-.313.703-.688Zm2.563 0a.7.7 0 0 0-.703-.703.697.697 0 0 0-.688.703c0 .375.313.688.688.688.39 0 .703-.313.703-.688Zm0 0"/></symbol><symbol overflow="visible" id="B"><path style="stroke:none" d="M5.625-1.797c0-1.25-.703-2.094-1.547-2.422 1.063-.36 1.219-1.031 1.219-1.39 0-.657-.578-1.375-2.14-1.375-1.22 0-2.095.468-2.095 1.437v1.125H.375v.469h.688V-.47H.375V0l1.11-.031c.28 0 .374.015.656.031v-5.563c0-.28 0-1.062 1.015-1.062.969 0 .969.75.969 1.016 0 .546-.172 1.125-1.14 1.187-.126 0-.22 0-.22.172s.094.172.188.188c1.485.109 1.5 1.75 1.5 2.28 0 .329 0 1.485-.953 1.485-.156 0-.266-.062-.297-.078.172-.078.25-.266.25-.438a.493.493 0 1 0-.984.016c0 .422.36.86 1.062.86 1.125 0 2.094-.641 2.094-1.86Zm0 0"/></symbol><symbol overflow="visible" id="C"><path style="stroke:none" d="M6.438-2.828h-.47c-.093 1.11-.234 2.312-2.265 2.312H2.297L6.28-6.344c.078-.125.078-.14.078-.25 0-.25-.109-.25-.312-.25H.922L.797-4.437h.469c.078-1.329.75-1.938 2.14-1.938h1.297L.72-.515C.64-.407.64-.376.64-.266.64 0 .734 0 .953 0H6.25Zm0 0"/></symbol><symbol overflow="visible" id="D"><path style="stroke:none" d="M8.031-3.953v-.469a12.55 12.55 0 0 1-.781.031l-.953-.03v.468c.094 0 .578 0 .578.11 0 .03-.031.093-.031.124L5.797-1.172l-1.14-2.781h.562v-.469l-1.14.031c-.423 0-.845-.03-1-.03v.468h.593c.203.5.203.531.203.531 0 .031-.031.094-.031.125L3.047-1.39 2-3.953h.563v-.469l-1.235.031L.25-4.42v.468h.594L2.359-.234c.079.172.11.28.36.28s.297-.108.36-.28L4.14-2.813 5.187-.233c.079.172.11.28.36.28s.297-.108.36-.28L7.343-3.75c.047-.125.093-.203.687-.203Zm0 0"/></symbol></defs><use xlink:href="#a" x=".625" y="9.43" style="fill:#000;fill-opacity:1"/><use xlink:href="#b" x="7.838" y="9.43" style="fill:#00f;fill-opacity:1"/><use xlink:href="#c" x="13.407" y="9.43" style="fill:#000;fill-opacity:1"/><use xlink:href="#d" x="16.585" y="9.43" style="fill:#000;fill-opacity:1"/><use xlink:href="#e" x="21.108" y="9.43" style="fill:#000;fill-opacity:1"/><use xlink:href="#f" x="26.199" y="9.43" style="fill:#000;fill-opacity:1"/><use xlink:href="#g" x="32.565" y="9.43" style="fill:#00f;fill-opacity:1"/><use xlink:href="#d" x="37.815" y="9.43" style="fill:#000;fill-opacity:1"/><use xlink:href="#h" x="46.154" y="9.43" style="fill:#00f;fill-opacity:1"/><use xlink:href="#i" x="54.971" y="9.43" style="fill:#000;fill-opacity:1"/><use xlink:href="#g" x="61.337" y="9.43" style="fill:#00f;fill-opacity:1"/><use xlink:href="#j" x="66.588" y="9.43" style="fill:#000;fill-opacity:1"/><use xlink:href="#k" x="76.769" y="9.43" style="fill:#000;fill-opacity:1"/><use xlink:href="#l" x="82.817" y="9.43" style="fill:#00f;fill-opacity:1"/><use xlink:href="#j" x="88.545" y="9.43" style="fill:#000;fill-opacity:1"/><use xlink:href="#m" x="98.727" y="9.43" style="fill:#000;fill-opacity:1"/><use xlink:href="#n" x="107.384" y="9.43" style="fill:#000;fill-opacity:1"/><use xlink:href="#c" x="113.432" y="9.43" style="fill:#000;fill-opacity:1"/><use xlink:href="#l" x="116.61" y="9.43" style="fill:#00f;fill-opacity:1"/><use xlink:href="#o" x="122.338" y="9.43" style="fill:#000;fill-opacity:1"/><use xlink:href="#f" x="128.705" y="9.43" style="fill:#000;fill-opacity:1"/><use xlink:href="#l" x="135.071" y="9.43" style="fill:#00f;fill-opacity:1"/><use xlink:href="#j" x="140.799" y="9.43" style="fill:#000;fill-opacity:1"/><use xlink:href="#p" x="147.165" y="9.43" style="fill:#000;fill-opacity:1"/><use xlink:href="#q" x="156.709" y="9.43" style="fill:#00f;fill-opacity:1"/><use xlink:href="#d" x="163.076" y="9.43" style="fill:#000;fill-opacity:1"/><use xlink:href="#r" x="167.599" y="9.43" style="fill:#00f;fill-opacity:1"/><use xlink:href="#s" x="170.777" y="9.43" style="fill:#000;fill-opacity:1"/><use xlink:href="#t" x="180.64" y="9.43" style="fill:#000;fill-opacity:1"/><use xlink:href="#q" x="186.687" y="9.43" style="fill:#00f;fill-opacity:1"/><use xlink:href="#u" x="193.053" y="9.43" style="fill:#00f;fill-opacity:1"/><use xlink:href="#c" x="198.622" y="9.43" style="fill:#000;fill-opacity:1"/><use xlink:href="#v" x="201.8" y="9.43" style="fill:#000;fill-opacity:1"/><use xlink:href="#w" x="210.069" y="9.43" style="fill:#000;fill-opacity:1"/><use xlink:href="#g" x="213.566" y="9.43" style="fill:#00f;fill-opacity:1"/><use xlink:href="#x" x="218.816" y="9.43" style="fill:#000;fill-opacity:1"/><use xlink:href="#g" x="225.183" y="9.43" style="fill:#00f;fill-opacity:1"/><use xlink:href="#j" x="230.433" y="9.43" style="fill:#000;fill-opacity:1"/><use xlink:href="#y" x="240.615" y="9.43" style="fill:#000;fill-opacity:1"/><use xlink:href="#z" x="246.343" y="9.43" style="fill:#000;fill-opacity:1"/><use xlink:href="#A" x="251.065" y="9.43" style="fill:#00f;fill-opacity:1"/><use xlink:href="#B" x="256.794" y="9.43" style="fill:#000;fill-opacity:1"/><use xlink:href="#g" x="262.742" y="9.43" style="fill:#00f;fill-opacity:1"/><use xlink:href="#z" x="267.992" y="9.43" style="fill:#000;fill-opacity:1"/><use xlink:href="#g" x="272.714" y="9.43" style="fill:#00f;fill-opacity:1"/><use xlink:href="#j" x="277.965" y="9.43" style="fill:#000;fill-opacity:1"/><use xlink:href="#C" x="288.146" y="9.43" style="fill:#000;fill-opacity:1"/><use xlink:href="#D" x="295.15" y="9.43" style="fill:#000;fill-opacity:1"/><use xlink:href="#g" x="303.429" y="9.43" style="fill:#00f;fill-opacity:1"/><use xlink:href="#z" x="308.679" y="9.43" style="fill:#000;fill-opacity:1"/><use xlink:href="#y" x="313.402" y="9.43" style="fill:#000;fill-opacity:1"/></svg>