<svg xmlns="http://www.w3.org/2000/svg" width="135.483" height="173.279" viewBox="0 0 101.612 129.959" version="1.2"><defs><clipPath id="a"><path d="M1.004 124.574H2.46v4.164H1.004Zm0 0"/></clipPath><clipPath id="b"><path d="M2.46 124.574h5.977v4.164H2.462Zm0 0"/></clipPath><clipPath id="c"><path d="M8.438 124.574h5.98v4.164h-5.98Zm0 0"/></clipPath><clipPath id="d"><path d="M14.418 124.574h5.977v4.164h-5.977Zm0 0"/></clipPath><clipPath id="e"><path d="M20.395 124.574h5.976v4.164h-5.976Zm0 0"/></clipPath><clipPath id="f"><path d="M26.371 124.574h5.98v4.164h-5.98Zm0 0"/></clipPath><clipPath id="g"><path d="M32.352 124.574h5.976v4.164h-5.976Zm0 0"/></clipPath><clipPath id="h"><path d="M38.328 124.574h5.195v4.164h-5.195Zm0 0"/></clipPath><clipPath id="i"><path d="M1.004 118.598H2.46v5.976H1.004Zm0 0"/></clipPath><clipPath id="j"><path d="M2.46 118.598h5.977v5.976H2.462Zm0 0"/></clipPath><clipPath id="k"><path d="M8.438 118.598h5.98v5.976h-5.98Zm0 0"/></clipPath><clipPath id="l"><path d="M14.418 118.598h5.977v5.976h-5.977Zm0 0"/></clipPath><clipPath id="m"><path d="M20.395 118.598h5.976v5.976h-5.976Zm0 0"/></clipPath><clipPath id="n"><path d="M26.371 118.598h5.98v5.976h-5.98Zm0 0"/></clipPath><clipPath id="o"><path d="M32.352 118.598h5.976v5.976h-5.976Zm0 0"/></clipPath><clipPath id="p"><path d="M38.328 118.598h5.195v5.976h-5.195Zm0 0"/></clipPath><clipPath id="q"><path d="M1.004 112.621H2.46v5.977H1.004Zm0 0"/></clipPath><clipPath id="r"><path d="M2.46 112.621h5.977v5.977H2.462Zm0 0"/></clipPath><clipPath id="s"><path d="M8.438 112.621h5.98v5.977h-5.98Zm0 0"/></clipPath><clipPath id="t"><path d="M14.418 112.621h5.977v5.977h-5.977Zm0 0"/></clipPath><clipPath id="u"><path d="M20.395 112.621h5.976v5.977h-5.976Zm0 0"/></clipPath><clipPath id="v"><path d="M26.371 112.621h5.98v5.977h-5.98Zm0 0"/></clipPath><clipPath id="w"><path d="M32.352 112.621h5.976v5.977h-5.976Zm0 0"/></clipPath><clipPath id="x"><path d="M38.328 112.621h5.195v5.977h-5.195Zm0 0"/></clipPath><clipPath id="y"><path d="M1.004 106.64H2.46v5.981H1.004Zm0 0"/></clipPath><clipPath id="z"><path d="M2.46 106.64h5.977v5.981H2.462Zm0 0"/></clipPath><clipPath id="A"><path d="M8.438 106.64h5.98v5.981h-5.98Zm0 0"/></clipPath><clipPath id="B"><path d="M14.418 106.64h5.977v5.981h-5.977Zm0 0"/></clipPath><clipPath id="C"><path d="M20.395 106.64h5.976v5.981h-5.976Zm0 0"/></clipPath><clipPath id="D"><path d="M26.371 106.64h5.98v5.981h-5.98Zm0 0"/></clipPath><clipPath id="E"><path d="M32.352 106.64h5.976v5.981h-5.976Zm0 0"/></clipPath><clipPath id="F"><path d="M38.328 106.64h5.195v5.981h-5.195Zm0 0"/></clipPath><clipPath id="G"><path d="M1.004 100.664H2.46v5.977H1.004Zm0 0"/></clipPath><clipPath id="H"><path d="M2.46 100.664h5.977v5.977H2.462Zm0 0"/></clipPath><clipPath id="I"><path d="M8.438 100.664h5.98v5.977h-5.98Zm0 0"/></clipPath><clipPath id="J"><path d="M14.418 100.664h5.977v5.977h-5.977Zm0 0"/></clipPath><clipPath id="K"><path d="M20.395 100.664h5.976v5.977h-5.976Zm0 0"/></clipPath><clipPath id="L"><path d="M26.371 100.664h5.98v5.977h-5.98Zm0 0"/></clipPath><clipPath id="M"><path d="M32.352 100.664h5.976v5.977h-5.976Zm0 0"/></clipPath><clipPath id="N"><path d="M38.328 100.664h5.195v5.977h-5.195Zm0 0"/></clipPath><clipPath id="O"><path d="M1.004 94.688H2.46v5.976H1.004Zm0 0"/></clipPath><clipPath id="P"><path d="M2.46 94.688h5.977v5.976H2.462Zm0 0"/></clipPath><clipPath id="Q"><path d="M8.438 94.688h5.98v5.976h-5.98Zm0 0"/></clipPath><clipPath id="R"><path d="M14.418 94.688h5.977v5.976h-5.977Zm0 0"/></clipPath><clipPath id="S"><path d="M20.395 94.688h5.976v5.976h-5.976Zm0 0"/></clipPath><clipPath id="T"><path d="M26.371 94.688h5.98v5.976h-5.98Zm0 0"/></clipPath><clipPath id="U"><path d="M32.352 94.688h5.976v5.976h-5.976Zm0 0"/></clipPath><clipPath id="V"><path d="M38.328 94.688h5.195v5.976h-5.195Zm0 0"/></clipPath><clipPath id="W"><path d="M1.004 88.71H2.46v5.978H1.004Zm0 0"/></clipPath><clipPath id="X"><path d="M2.46 88.71h5.977v5.978H2.462Zm0 0"/></clipPath><clipPath id="Y"><path d="M8.438 88.71h5.98v5.978h-5.98Zm0 0"/></clipPath><clipPath id="Z"><path d="M14.418 88.71h5.977v5.978h-5.977Zm0 0"/></clipPath><clipPath id="aa"><path d="M20.395 88.71h5.976v5.978h-5.976Zm0 0"/></clipPath><clipPath id="ab"><path d="M26.371 88.71h5.98v5.978h-5.98Zm0 0"/></clipPath><clipPath id="ac"><path d="M32.352 88.71h5.976v5.978h-5.976Zm0 0"/></clipPath><clipPath id="ad"><path d="M38.328 88.71h5.195v5.978h-5.195Zm0 0"/></clipPath><clipPath id="ae"><path d="M1.004 82.73H2.46v5.98H1.004Zm0 0"/></clipPath><clipPath id="af"><path d="M2.46 82.73h5.977v5.98H2.462Zm0 0"/></clipPath><clipPath id="ag"><path d="M8.438 82.73h5.98v5.98h-5.98Zm0 0"/></clipPath><clipPath id="ah"><path d="M14.418 82.73h5.977v5.98h-5.977Zm0 0"/></clipPath><clipPath id="ai"><path d="M20.395 82.73h5.976v5.98h-5.976Zm0 0"/></clipPath><clipPath id="aj"><path d="M26.371 82.73h5.98v5.98h-5.98Zm0 0"/></clipPath><clipPath id="ak"><path d="M32.352 82.73h5.976v5.98h-5.976Zm0 0"/></clipPath><clipPath id="al"><path d="M38.328 82.73h5.195v5.98h-5.195Zm0 0"/></clipPath><clipPath id="am"><path d="M1.004 76.754H2.46v5.976H1.004Zm0 0"/></clipPath><clipPath id="an"><path d="M2.46 76.754h5.977v5.976H2.462Zm0 0"/></clipPath><clipPath id="ao"><path d="M8.438 76.754h5.98v5.976h-5.98Zm0 0"/></clipPath><clipPath id="ap"><path d="M14.418 76.754h5.977v5.976h-5.977Zm0 0"/></clipPath><clipPath id="aq"><path d="M20.395 76.754h5.976v5.976h-5.976Zm0 0"/></clipPath><clipPath id="ar"><path d="M26.371 76.754h5.98v5.976h-5.98Zm0 0"/></clipPath><clipPath id="as"><path d="M32.352 76.754h5.976v5.976h-5.976Zm0 0"/></clipPath><clipPath id="at"><path d="M38.328 76.754h5.195v5.976h-5.195Zm0 0"/></clipPath><clipPath id="au"><path d="M1.004 72.047H2.46v4.707H1.004Zm0 0"/></clipPath><clipPath id="av"><path d="M2.46 72.047h5.977v4.707H2.462Zm0 0"/></clipPath><clipPath id="aw"><path d="M8.438 72.047h5.98v4.707h-5.98Zm0 0"/></clipPath><clipPath id="ax"><path d="M14.418 72.047h5.977v4.707h-5.977Zm0 0"/></clipPath><clipPath id="ay"><path d="M20.395 72.047h5.976v4.707h-5.976Zm0 0"/></clipPath><clipPath id="az"><path d="M26.371 72.047h5.98v4.707h-5.98Zm0 0"/></clipPath><clipPath id="aA"><path d="M32.352 72.047h5.976v4.707h-5.976Zm0 0"/></clipPath><clipPath id="aB"><path d="M38.328 72.047h5.195v4.707h-5.195Zm0 0"/></clipPath><clipPath id="aC"><path d="M57.7 125.578h1.55v3.16H57.7Zm0 0"/></clipPath><clipPath id="aD"><path d="M59.25 125.578h7.969v3.16H59.25Zm0 0"/></clipPath><clipPath id="aE"><path d="M67.219 125.578h7.972v3.16H67.22Zm0 0"/></clipPath><clipPath id="aF"><path d="M75.191 125.578h7.97v3.16h-7.97Zm0 0"/></clipPath><clipPath id="aG"><path d="M83.16 125.578h7.969v3.16H83.16Zm0 0"/></clipPath><clipPath id="aH"><path d="M91.129 125.578h7.973v3.16h-7.973Zm0 0"/></clipPath><clipPath id="aI"><path d="M99.102 125.578h1.117v3.16h-1.117Zm0 0"/></clipPath><clipPath id="aJ"><path d="M57.7 117.605h1.55v7.973H57.7Zm0 0"/></clipPath><clipPath id="aK"><path d="M59.25 117.605h7.969v7.973H59.25Zm0 0"/></clipPath><clipPath id="aL"><path d="M67.219 117.605h7.972v7.973H67.22Zm0 0"/></clipPath><clipPath id="aM"><path d="M75.191 117.605h7.97v7.973h-7.97Zm0 0"/></clipPath><clipPath id="aN"><path d="M83.16 117.605h7.969v7.973H83.16Zm0 0"/></clipPath><clipPath id="aO"><path d="M91.129 117.605h7.973v7.973h-7.973Zm0 0"/></clipPath><clipPath id="aP"><path d="M99.102 117.605h1.117v7.973h-1.117Zm0 0"/></clipPath><clipPath id="aQ"><path d="M57.7 109.637h1.55v7.968H57.7Zm0 0"/></clipPath><clipPath id="aR"><path d="M59.25 109.637h7.969v7.968H59.25Zm0 0"/></clipPath><clipPath id="aS"><path d="M67.219 109.637h7.972v7.968H67.22Zm0 0"/></clipPath><clipPath id="aT"><path d="M75.191 109.637h7.97v7.968h-7.97Zm0 0"/></clipPath><clipPath id="aU"><path d="M83.16 109.637h7.969v7.968H83.16Zm0 0"/></clipPath><clipPath id="aV"><path d="M91.129 109.637h7.973v7.968h-7.973Zm0 0"/></clipPath><clipPath id="aW"><path d="M99.102 109.637h1.117v7.968h-1.117Zm0 0"/></clipPath><clipPath id="aX"><path d="M57.7 101.668h1.55v7.969H57.7Zm0 0"/></clipPath><clipPath id="aY"><path d="M59.25 101.668h7.969v7.969H59.25Zm0 0"/></clipPath><clipPath id="aZ"><path d="M67.219 101.668h7.972v7.969H67.22Zm0 0"/></clipPath><clipPath id="ba"><path d="M75.191 101.668h7.97v7.969h-7.97Zm0 0"/></clipPath><clipPath id="bb"><path d="M83.16 101.668h7.969v7.969H83.16Zm0 0"/></clipPath><clipPath id="bc"><path d="M91.129 101.668h7.973v7.969h-7.973Zm0 0"/></clipPath><clipPath id="bd"><path d="M99.102 101.668h1.117v7.969h-1.117Zm0 0"/></clipPath><clipPath id="be"><path d="M57.7 93.695h1.55v7.973H57.7Zm0 0"/></clipPath><clipPath id="bf"><path d="M59.25 93.695h7.969v7.973H59.25Zm0 0"/></clipPath><clipPath id="bg"><path d="M67.219 93.695h7.972v7.973H67.22Zm0 0"/></clipPath><clipPath id="bh"><path d="M75.191 93.695h7.97v7.973h-7.97Zm0 0"/></clipPath><clipPath id="bi"><path d="M83.16 93.695h7.969v7.973H83.16Zm0 0"/></clipPath><clipPath id="bj"><path d="M91.129 93.695h7.973v7.973h-7.973Zm0 0"/></clipPath><clipPath id="bk"><path d="M99.102 93.695h1.117v7.973h-1.117Zm0 0"/></clipPath><clipPath id="bl"><path d="M57.7 85.727h1.55v7.968H57.7Zm0 0"/></clipPath><clipPath id="bm"><path d="M59.25 85.727h7.969v7.968H59.25Zm0 0"/></clipPath><clipPath id="bn"><path d="M67.219 85.727h7.972v7.968H67.22Zm0 0"/></clipPath><clipPath id="bo"><path d="M75.191 85.727h7.97v7.968h-7.97Zm0 0"/></clipPath><clipPath id="bp"><path d="M83.16 85.727h7.969v7.968H83.16Zm0 0"/></clipPath><clipPath id="bq"><path d="M91.129 85.727h7.973v7.968h-7.973Zm0 0"/></clipPath><clipPath id="br"><path d="M99.102 85.727h1.117v7.968h-1.117Zm0 0"/></clipPath><clipPath id="bs"><path d="M57.7 77.758h1.55v7.969H57.7Zm0 0"/></clipPath><clipPath id="bt"><path d="M59.25 77.758h7.969v7.969H59.25Zm0 0"/></clipPath><clipPath id="bu"><path d="M67.219 77.758h7.972v7.969H67.22Zm0 0"/></clipPath><clipPath id="bv"><path d="M75.191 77.758h7.97v7.969h-7.97Zm0 0"/></clipPath><clipPath id="bw"><path d="M83.16 77.758h7.969v7.969H83.16Zm0 0"/></clipPath><clipPath id="bx"><path d="M91.129 77.758h7.973v7.969h-7.973Zm0 0"/></clipPath><clipPath id="by"><path d="M99.102 77.758h1.117v7.969h-1.117Zm0 0"/></clipPath><clipPath id="bz"><path d="M57.7 72.047h1.55v5.71H57.7Zm0 0"/></clipPath><clipPath id="bA"><path d="M59.25 72.047h7.969v5.71H59.25Zm0 0"/></clipPath><clipPath id="bB"><path d="M67.219 72.047h7.972v5.71H67.22Zm0 0"/></clipPath><clipPath id="bC"><path d="M75.191 72.047h7.97v5.71h-7.97Zm0 0"/></clipPath><clipPath id="bD"><path d="M83.16 72.047h7.969v5.71H83.16Zm0 0"/></clipPath><clipPath id="bE"><path d="M91.129 72.047h7.973v5.71h-7.973Zm0 0"/></clipPath><clipPath id="bF"><path d="M99.102 72.047h1.117v5.71h-1.117Zm0 0"/></clipPath><clipPath id="bG"><path d="M1.004 47.86h4.445V57.87H1.004Zm0 0"/></clipPath><clipPath id="bH"><path d="M5.45 47.86h19.925V57.87H5.449Zm0 0"/></clipPath><clipPath id="bI"><path d="M25.375 47.86h18.148V57.87H25.375Zm0 0"/></clipPath><clipPath id="bJ"><path d="M1.004 27.934h4.445v19.925H1.004Zm0 0"/></clipPath><clipPath id="bK"><path d="M5.45 27.934h19.925v19.925H5.449Zm0 0"/></clipPath><clipPath id="bL"><path d="M25.375 27.934h18.148v19.925H25.375Zm0 0"/></clipPath><clipPath id="bM"><path d="M1.004 8.008h4.445v19.926H1.004Zm0 0"/></clipPath><clipPath id="bN"><path d="M5.45 8.008h19.925v19.926H5.449Zm0 0"/></clipPath><clipPath id="bO"><path d="M25.375 8.008h18.148v19.926H25.375Zm0 0"/></clipPath><clipPath id="bP"><path d="M1.004 1.18h4.445v6.828H1.004Zm0 0"/></clipPath><clipPath id="bQ"><path d="M5.45 1.18h19.925v6.828H5.449Zm0 0"/></clipPath><clipPath id="bR"><path d="M25.375 1.18h18.148v6.828H25.375Zm0 0"/></clipPath><clipPath id="bS"><path d="M57.7 47.86h7.527V57.87h-7.528Zm0 0"/></clipPath><clipPath id="bT"><path d="M65.227 47.86h19.925V57.87H65.227Zm0 0"/></clipPath><clipPath id="bU"><path d="M85.152 47.86h15.067V57.87H85.152Zm0 0"/></clipPath><clipPath id="bV"><path d="M57.7 27.934h7.527v19.925h-7.528Zm0 0"/></clipPath><clipPath id="bW"><path d="M65.227 27.934h19.925v19.925H65.227Zm0 0"/></clipPath><clipPath id="bX"><path d="M85.152 27.934h15.067v19.925H85.152Zm0 0"/></clipPath><clipPath id="bY"><path d="M57.7 8.008h7.527v19.926h-7.528Zm0 0"/></clipPath><clipPath id="bZ"><path d="M65.227 8.008h19.925v19.926H65.227Zm0 0"/></clipPath><clipPath id="ca"><path d="M85.152 8.008h15.067v19.926H85.152Zm0 0"/></clipPath><clipPath id="cb"><path d="M57.7 1.18h7.527v6.828h-7.528Zm0 0"/></clipPath><clipPath id="cc"><path d="M65.227 1.18h19.925v6.828H65.227Zm0 0"/></clipPath><clipPath id="cd"><path d="M85.152 1.18h15.067v6.828H85.152Zm0 0"/></clipPath></defs><g clip-path="url(#a)"><path style="fill:none;stroke-width:.74721;stroke-linecap:butt;stroke-linejoin:miter;stroke:#000;stroke-opacity:1;stroke-miterlimit:10" d="M3.984.002C3.984 2.2 2.2 3.986 0 3.986a3.986 3.986 0 0 1 0-7.973c2.199 0 3.984 1.786 3.984 3.989Zm0 0" transform="matrix(1 0 0 -1 -.527 127.564)"/></g><g clip-path="url(#b)"><path style="fill:none;stroke-width:.74721;stroke-linecap:butt;stroke-linejoin:miter;stroke:#000;stroke-opacity:1;stroke-miterlimit:10" d="M3.987.002a3.987 3.987 0 1 1-7.974-.005 3.987 3.987 0 0 1 7.974.005Zm0 0" transform="matrix(1 0 0 -1 5.45 127.564)"/></g><g clip-path="url(#c)"><path style="fill:none;stroke-width:.74721;stroke-linecap:butt;stroke-linejoin:miter;stroke:#000;stroke-opacity:1;stroke-miterlimit:10" d="M3.986.002a3.986 3.986 0 1 1-7.972-.004 3.986 3.986 0 0 1 7.972.004Zm0 0" transform="matrix(1 0 0 -1 11.428 127.564)"/></g><g clip-path="url(#d)"><path style="fill:none;stroke-width:.74721;stroke-linecap:butt;stroke-linejoin:miter;stroke:#000;stroke-opacity:1;stroke-miterlimit:10" d="M3.985.002C3.985 2.2 2.2 3.986 0 3.986A3.984 3.984 0 0 1-3.984.002a3.984 3.984 0 1 1 7.969 0Zm0 0" transform="matrix(1 0 0 -1 17.406 127.564)"/></g><g clip-path="url(#e)"><path style="fill:none;stroke-width:.74721;stroke-linecap:butt;stroke-linejoin:miter;stroke:#000;stroke-opacity:1;stroke-miterlimit:10" d="M3.984.002a3.984 3.984 0 1 1-7.969 0 3.984 3.984 0 1 1 7.969 0Zm0 0" transform="matrix(1 0 0 -1 23.383 127.564)"/></g><g clip-path="url(#f)"><path style="fill:none;stroke-width:.74721;stroke-linecap:butt;stroke-linejoin:miter;stroke:#000;stroke-opacity:1;stroke-miterlimit:10" d="M3.987.002a3.987 3.987 0 1 1-7.974-.005 3.987 3.987 0 0 1 7.974.005Zm0 0" transform="matrix(1 0 0 -1 29.361 127.564)"/></g><g clip-path="url(#g)"><path style="fill:none;stroke-width:.74721;stroke-linecap:butt;stroke-linejoin:miter;stroke:#000;stroke-opacity:1;stroke-miterlimit:10" d="M3.985.002a3.984 3.984 0 1 1-7.969 0 3.984 3.984 0 1 1 7.97 0Zm0 0" transform="matrix(1 0 0 -1 35.339 127.564)"/></g><g clip-path="url(#h)"><path style="fill:none;stroke-width:.74721;stroke-linecap:butt;stroke-linejoin:miter;stroke:#000;stroke-opacity:1;stroke-miterlimit:10" d="M3.984.002C3.984 2.2 2.2 3.986 0 3.986a3.986 3.986 0 0 1 0-7.973c2.2 0 3.984 1.786 3.984 3.989Zm0 0" transform="matrix(1 0 0 -1 41.316 127.564)"/></g><g clip-path="url(#i)"><path style="fill:none;stroke-width:.74721;stroke-linecap:butt;stroke-linejoin:miter;stroke:#000;stroke-opacity:1;stroke-miterlimit:10" d="M3.984 0C3.984 2.2 2.2 3.986 0 3.986a3.984 3.984 0 1 1 0-7.969c2.199 0 3.984 1.781 3.984 3.985Zm0 0" transform="matrix(1 0 0 -1 -.527 121.587)"/></g><g clip-path="url(#j)"><path style="fill:none;stroke-width:.74721;stroke-linecap:butt;stroke-linejoin:miter;stroke:#000;stroke-opacity:1;stroke-miterlimit:10" d="M3.987 0a3.987 3.987 0 0 1-7.973 0A3.984 3.984 0 0 1 0-3.983 3.984 3.984 0 0 1 3.987.001Zm0 0" transform="matrix(1 0 0 -1 5.45 121.587)"/></g><g clip-path="url(#k)"><path style="fill:none;stroke-width:.74721;stroke-linecap:butt;stroke-linejoin:miter;stroke:#000;stroke-opacity:1;stroke-miterlimit:10" d="M3.986 0a3.986 3.986 0 0 1-7.973 0A3.984 3.984 0 0 1 .002-3.983c2.199 0 3.984 1.781 3.984 3.985Zm0 0" transform="matrix(1 0 0 -1 11.428 121.587)"/></g><g clip-path="url(#l)"><path style="fill:none;stroke-width:.74721;stroke-linecap:butt;stroke-linejoin:miter;stroke:#000;stroke-opacity:1;stroke-miterlimit:10" d="M3.985 0a3.984 3.984 0 1 1-7.969 0A3.981 3.981 0 0 1 0-3.983c2.2 0 3.985 1.781 3.985 3.985Zm0 0" transform="matrix(1 0 0 -1 17.406 121.587)"/></g><g clip-path="url(#m)"><path style="fill:none;stroke-width:.74721;stroke-linecap:butt;stroke-linejoin:miter;stroke:#000;stroke-opacity:1;stroke-miterlimit:10" d="M3.984 0a3.984 3.984 0 1 1-7.969 0A3.984 3.984 0 0 1-.001-3.983 3.981 3.981 0 0 1 3.984.001Zm0 0" transform="matrix(1 0 0 -1 23.383 121.587)"/></g><g clip-path="url(#n)"><path style="fill:none;stroke-width:.74721;stroke-linecap:butt;stroke-linejoin:miter;stroke:#000;stroke-opacity:1;stroke-miterlimit:10" d="M3.987 0a3.987 3.987 0 0 1-7.973 0A3.984 3.984 0 0 1-.002-3.983 3.984 3.984 0 0 1 3.987.001Zm0 0" transform="matrix(1 0 0 -1 29.361 121.587)"/></g><g clip-path="url(#o)"><path style="fill:none;stroke-width:.74721;stroke-linecap:butt;stroke-linejoin:miter;stroke:#000;stroke-opacity:1;stroke-miterlimit:10" d="M3.985 0a3.984 3.984 0 1 1-7.969 0A3.981 3.981 0 0 1 .002-3.983c2.2 0 3.984 1.781 3.984 3.985Zm0 0" transform="matrix(1 0 0 -1 35.339 121.587)"/></g><g clip-path="url(#p)"><path style="fill:none;stroke-width:.74721;stroke-linecap:butt;stroke-linejoin:miter;stroke:#000;stroke-opacity:1;stroke-miterlimit:10" d="M3.984 0C3.984 2.2 2.2 3.986 0 3.986a3.984 3.984 0 1 1 0-7.969c2.2 0 3.984 1.781 3.984 3.985Zm0 0" transform="matrix(1 0 0 -1 41.316 121.587)"/></g><g clip-path="url(#q)"><path style="fill:none;stroke-width:.74721;stroke-linecap:butt;stroke-linejoin:miter;stroke:#000;stroke-opacity:1;stroke-miterlimit:10" d="M3.984 0A3.984 3.984 0 0 1 0 3.984a3.984 3.984 0 1 1 0-7.969C2.199-3.985 3.984-2.2 3.984 0Zm0 0" transform="matrix(1 0 0 -1 -.527 115.609)"/></g><g clip-path="url(#r)"><path style="fill:none;stroke-width:.74721;stroke-linecap:butt;stroke-linejoin:miter;stroke:#000;stroke-opacity:1;stroke-miterlimit:10" d="M3.987 0A3.984 3.984 0 0 1-.001 3.984a3.984 3.984 0 1 1 0-7.969A3.987 3.987 0 0 1 3.987 0Zm0 0" transform="matrix(1 0 0 -1 5.45 115.609)"/></g><g clip-path="url(#s)"><path style="fill:none;stroke-width:.74721;stroke-linecap:butt;stroke-linejoin:miter;stroke:#000;stroke-opacity:1;stroke-miterlimit:10" d="M3.986 0A3.984 3.984 0 0 1 .002 3.984a3.984 3.984 0 1 1 0-7.969C2.2-3.985 3.986-2.2 3.986 0Zm0 0" transform="matrix(1 0 0 -1 11.428 115.609)"/></g><g clip-path="url(#t)"><path style="fill:none;stroke-width:.74721;stroke-linecap:butt;stroke-linejoin:miter;stroke:#000;stroke-opacity:1;stroke-miterlimit:10" d="M3.985 0A3.984 3.984 0 0 1 0 3.984 3.981 3.981 0 0 1-3.984 0a3.984 3.984 0 1 1 7.969 0Zm0 0" transform="matrix(1 0 0 -1 17.406 115.609)"/></g><g clip-path="url(#u)"><path style="fill:none;stroke-width:.74721;stroke-linecap:butt;stroke-linejoin:miter;stroke:#000;stroke-opacity:1;stroke-miterlimit:10" d="M3.984 0A3.981 3.981 0 0 1-.001 3.984a3.984 3.984 0 1 1 0-7.969A3.984 3.984 0 0 1 3.984 0Zm0 0" transform="matrix(1 0 0 -1 23.383 115.609)"/></g><g clip-path="url(#v)"><path style="fill:none;stroke-width:.74721;stroke-linecap:butt;stroke-linejoin:miter;stroke:#000;stroke-opacity:1;stroke-miterlimit:10" d="M3.987 0A3.984 3.984 0 0 1-.002 3.984a3.984 3.984 0 1 1 0-7.969A3.987 3.987 0 0 1 3.987 0Zm0 0" transform="matrix(1 0 0 -1 29.361 115.609)"/></g><g clip-path="url(#w)"><path style="fill:none;stroke-width:.74721;stroke-linecap:butt;stroke-linejoin:miter;stroke:#000;stroke-opacity:1;stroke-miterlimit:10" d="M3.985 0A3.984 3.984 0 0 1 .001 3.984 3.981 3.981 0 0 1-3.983 0a3.984 3.984 0 1 1 7.968 0Zm0 0" transform="matrix(1 0 0 -1 35.339 115.609)"/></g><g clip-path="url(#x)"><path style="fill:none;stroke-width:.74721;stroke-linecap:butt;stroke-linejoin:miter;stroke:#000;stroke-opacity:1;stroke-miterlimit:10" d="M3.984 0A3.984 3.984 0 0 1 0 3.984a3.984 3.984 0 1 1 0-7.969C2.2-3.985 3.984-2.2 3.984 0Zm0 0" transform="matrix(1 0 0 -1 41.316 115.609)"/></g><g clip-path="url(#y)"><path style="fill:none;stroke-width:.74721;stroke-linecap:butt;stroke-linejoin:miter;stroke:#000;stroke-opacity:1;stroke-miterlimit:10" d="M3.984-.002A3.987 3.987 0 0 1 0 3.987a3.987 3.987 0 0 1 0-7.973c2.199 0 3.984 1.785 3.984 3.984Zm0 0" transform="matrix(1 0 0 -1 -.527 109.631)"/></g><g clip-path="url(#z)"><path style="fill:none;stroke-width:.74721;stroke-linecap:butt;stroke-linejoin:miter;stroke:#000;stroke-opacity:1;stroke-miterlimit:10" d="M3.987-.002a3.987 3.987 0 1 1-7.972.003 3.987 3.987 0 0 1 7.972-.003Zm0 0" transform="matrix(1 0 0 -1 5.45 109.631)"/></g><g clip-path="url(#A)"><path style="fill:none;stroke-width:.74721;stroke-linecap:butt;stroke-linejoin:miter;stroke:#000;stroke-opacity:1;stroke-miterlimit:10" d="M3.986-.002a3.987 3.987 0 1 1-7.974.003 3.987 3.987 0 0 1 7.974-.003Zm0 0" transform="matrix(1 0 0 -1 11.428 109.631)"/></g><g clip-path="url(#B)"><path style="fill:none;stroke-width:.74721;stroke-linecap:butt;stroke-linejoin:miter;stroke:#000;stroke-opacity:1;stroke-miterlimit:10" d="M3.985-.002a3.984 3.984 0 1 1-7.969 0 3.984 3.984 0 1 1 7.969 0Zm0 0" transform="matrix(1 0 0 -1 17.406 109.631)"/></g><g clip-path="url(#C)"><path style="fill:none;stroke-width:.74721;stroke-linecap:butt;stroke-linejoin:miter;stroke:#000;stroke-opacity:1;stroke-miterlimit:10" d="M3.984-.002a3.984 3.984 0 1 1-7.969 0 3.984 3.984 0 1 1 7.969 0Zm0 0" transform="matrix(1 0 0 -1 23.383 109.631)"/></g><g clip-path="url(#D)"><path style="fill:none;stroke-width:.74721;stroke-linecap:butt;stroke-linejoin:miter;stroke:#000;stroke-opacity:1;stroke-miterlimit:10" d="M3.987-.002a3.987 3.987 0 1 1-7.972.003 3.987 3.987 0 0 1 7.972-.003Zm0 0" transform="matrix(1 0 0 -1 29.361 109.631)"/></g><g clip-path="url(#E)"><path style="fill:none;stroke-width:.74721;stroke-linecap:butt;stroke-linejoin:miter;stroke:#000;stroke-opacity:1;stroke-miterlimit:10" d="M3.985-.002a3.984 3.984 0 1 1-7.969 0 3.984 3.984 0 1 1 7.97 0Zm0 0" transform="matrix(1 0 0 -1 35.339 109.631)"/></g><g clip-path="url(#F)"><path style="fill:none;stroke-width:.74721;stroke-linecap:butt;stroke-linejoin:miter;stroke:#000;stroke-opacity:1;stroke-miterlimit:10" d="M3.984-.002A3.987 3.987 0 0 1 0 3.987a3.987 3.987 0 0 1 0-7.973c2.2 0 3.984 1.785 3.984 3.984Zm0 0" transform="matrix(1 0 0 -1 41.316 109.631)"/></g><g clip-path="url(#G)"><path style="fill:none;stroke-width:.74721;stroke-linecap:butt;stroke-linejoin:miter;stroke:#000;stroke-opacity:1;stroke-miterlimit:10" d="M3.984.001c0 2.2-1.785 3.985-3.984 3.985a3.984 3.984 0 1 1 0-7.969c2.199 0 3.984 1.781 3.984 3.984Zm0 0" transform="matrix(1 0 0 -1 -.527 103.654)"/></g><g clip-path="url(#H)"><path style="fill:none;stroke-width:.74721;stroke-linecap:butt;stroke-linejoin:miter;stroke:#000;stroke-opacity:1;stroke-miterlimit:10" d="M3.987.001a3.987 3.987 0 0 1-7.973 0A3.984 3.984 0 0 1 0-3.983 3.984 3.984 0 0 1 3.987 0Zm0 0" transform="matrix(1 0 0 -1 5.45 103.654)"/></g><g clip-path="url(#I)"><path style="fill:none;stroke-width:.74721;stroke-linecap:butt;stroke-linejoin:miter;stroke:#000;stroke-opacity:1;stroke-miterlimit:10" d="M3.986.001a3.986 3.986 0 0 1-7.973 0A3.984 3.984 0 0 1 .002-3.983C2.2-3.983 3.986-2.202 3.986 0Zm0 0" transform="matrix(1 0 0 -1 11.428 103.654)"/></g><g clip-path="url(#J)"><path style="fill:none;stroke-width:.74721;stroke-linecap:butt;stroke-linejoin:miter;stroke:#000;stroke-opacity:1;stroke-miterlimit:10" d="M3.985.001a3.984 3.984 0 1 1-7.969 0A3.981 3.981 0 0 1 0-3.983c2.2 0 3.985 1.781 3.985 3.984Zm0 0" transform="matrix(1 0 0 -1 17.406 103.654)"/></g><g clip-path="url(#K)"><path style="fill:none;stroke-width:.74721;stroke-linecap:butt;stroke-linejoin:miter;stroke:#000;stroke-opacity:1;stroke-miterlimit:10" d="M3.984.001a3.984 3.984 0 1 1-7.969 0A3.984 3.984 0 0 1-.001-3.983 3.981 3.981 0 0 1 3.984 0Zm0 0" transform="matrix(1 0 0 -1 23.383 103.654)"/></g><g clip-path="url(#L)"><path style="fill:none;stroke-width:.74721;stroke-linecap:butt;stroke-linejoin:miter;stroke:#000;stroke-opacity:1;stroke-miterlimit:10" d="M3.987.001a3.987 3.987 0 0 1-7.973 0A3.984 3.984 0 0 1-.002-3.983 3.984 3.984 0 0 1 3.987 0Zm0 0" transform="matrix(1 0 0 -1 29.361 103.654)"/></g><g clip-path="url(#M)"><path style="fill:none;stroke-width:.74721;stroke-linecap:butt;stroke-linejoin:miter;stroke:#000;stroke-opacity:1;stroke-miterlimit:10" d="M3.985.001a3.984 3.984 0 1 1-7.969 0A3.981 3.981 0 0 1 .002-3.983c2.2 0 3.984 1.781 3.984 3.984Zm0 0" transform="matrix(1 0 0 -1 35.339 103.654)"/></g><g clip-path="url(#N)"><path style="fill:none;stroke-width:.74721;stroke-linecap:butt;stroke-linejoin:miter;stroke:#000;stroke-opacity:1;stroke-miterlimit:10" d="M3.984.001c0 2.2-1.785 3.985-3.984 3.985a3.984 3.984 0 1 1 0-7.969c2.2 0 3.984 1.781 3.984 3.984Zm0 0" transform="matrix(1 0 0 -1 41.316 103.654)"/></g><g clip-path="url(#O)"><path style="fill:none;stroke-width:.74721;stroke-linecap:butt;stroke-linejoin:miter;stroke:#000;stroke-opacity:1;stroke-miterlimit:10" d="M3.984 0C3.984 2.2 2.2 3.984 0 3.984A3.986 3.986 0 0 1-3.985 0c0-2.2 1.786-3.984 3.985-3.984S3.984-2.2 3.984 0Zm0 0" transform="matrix(1 0 0 -1 -.527 97.676)"/></g><g clip-path="url(#P)"><path style="fill:none;stroke-width:.74721;stroke-linecap:butt;stroke-linejoin:miter;stroke:#000;stroke-opacity:1;stroke-miterlimit:10" d="M3.987 0a3.987 3.987 0 0 1-7.973 0 3.986 3.986 0 0 1 7.973 0Zm0 0" transform="matrix(1 0 0 -1 5.45 97.676)"/></g><g clip-path="url(#Q)"><path style="fill:none;stroke-width:.74721;stroke-linecap:butt;stroke-linejoin:miter;stroke:#000;stroke-opacity:1;stroke-miterlimit:10" d="M3.986 0a3.986 3.986 0 0 1-7.973 0 3.987 3.987 0 0 1 7.973 0Zm0 0" transform="matrix(1 0 0 -1 11.428 97.676)"/></g><g clip-path="url(#R)"><path style="fill:none;stroke-width:.74721;stroke-linecap:butt;stroke-linejoin:miter;stroke:#000;stroke-opacity:1;stroke-miterlimit:10" d="M3.985 0C3.985 2.2 2.2 3.984 0 3.984A3.984 3.984 0 0 1-3.984 0a3.984 3.984 0 1 1 7.969 0Zm0 0" transform="matrix(1 0 0 -1 17.406 97.676)"/></g><g clip-path="url(#S)"><path style="fill:none;stroke-width:.74721;stroke-linecap:butt;stroke-linejoin:miter;stroke:#000;stroke-opacity:1;stroke-miterlimit:10" d="M3.984 0a3.984 3.984 0 1 1-7.969 0 3.984 3.984 0 1 1 7.969 0Zm0 0" transform="matrix(1 0 0 -1 23.383 97.676)"/></g><g clip-path="url(#T)"><path style="fill:none;stroke-width:.74721;stroke-linecap:butt;stroke-linejoin:miter;stroke:#000;stroke-opacity:1;stroke-miterlimit:10" d="M3.987 0a3.987 3.987 0 0 1-7.973 0 3.986 3.986 0 0 1 7.973 0Zm0 0" transform="matrix(1 0 0 -1 29.361 97.676)"/></g><g clip-path="url(#U)"><path style="fill:none;stroke-width:.74721;stroke-linecap:butt;stroke-linejoin:miter;stroke:#000;stroke-opacity:1;stroke-miterlimit:10" d="M3.985 0a3.984 3.984 0 1 1-7.969 0 3.984 3.984 0 1 1 7.97 0Zm0 0" transform="matrix(1 0 0 -1 35.339 97.676)"/></g><g clip-path="url(#V)"><path style="fill:none;stroke-width:.74721;stroke-linecap:butt;stroke-linejoin:miter;stroke:#000;stroke-opacity:1;stroke-miterlimit:10" d="M3.984 0C3.984 2.2 2.2 3.984 0 3.984A3.986 3.986 0 0 1-3.984 0C-3.984-2.2-2.2-3.984 0-3.984 2.2-3.984 3.984-2.2 3.984 0Zm0 0" transform="matrix(1 0 0 -1 41.316 97.676)"/></g><g clip-path="url(#W)"><path style="fill:none;stroke-width:.74721;stroke-linecap:butt;stroke-linejoin:miter;stroke:#000;stroke-opacity:1;stroke-miterlimit:10" d="M3.984-.001A3.984 3.984 0 0 1 0 3.983a3.984 3.984 0 1 1 0-7.968c2.199 0 3.984 1.785 3.984 3.984Zm0 0" transform="matrix(1 0 0 -1 -.527 91.698)"/></g><g clip-path="url(#X)"><path style="fill:none;stroke-width:.74721;stroke-linecap:butt;stroke-linejoin:miter;stroke:#000;stroke-opacity:1;stroke-miterlimit:10" d="M3.987-.001A3.984 3.984 0 0 1-.001 3.983a3.984 3.984 0 1 1 0-7.968A3.987 3.987 0 0 1 3.987-.001Zm0 0" transform="matrix(1 0 0 -1 5.45 91.698)"/></g><g clip-path="url(#Y)"><path style="fill:none;stroke-width:.74721;stroke-linecap:butt;stroke-linejoin:miter;stroke:#000;stroke-opacity:1;stroke-miterlimit:10" d="M3.986-.001A3.984 3.984 0 0 1 .002 3.983a3.984 3.984 0 1 1 0-7.968C2.2-3.985 3.986-2.2 3.986-.001Zm0 0" transform="matrix(1 0 0 -1 11.428 91.698)"/></g><g clip-path="url(#Z)"><path style="fill:none;stroke-width:.74721;stroke-linecap:butt;stroke-linejoin:miter;stroke:#000;stroke-opacity:1;stroke-miterlimit:10" d="M3.985-.001A3.984 3.984 0 0 1 0 3.983 3.981 3.981 0 0 1-3.984 0a3.984 3.984 0 1 1 7.969 0Zm0 0" transform="matrix(1 0 0 -1 17.406 91.698)"/></g><g clip-path="url(#aa)"><path style="fill:none;stroke-width:.74721;stroke-linecap:butt;stroke-linejoin:miter;stroke:#000;stroke-opacity:1;stroke-miterlimit:10" d="M3.984-.001A3.981 3.981 0 0 1-.001 3.983a3.984 3.984 0 1 1 0-7.968A3.984 3.984 0 0 1 3.984-.001Zm0 0" transform="matrix(1 0 0 -1 23.383 91.698)"/></g><g clip-path="url(#ab)"><path style="fill:none;stroke-width:.74721;stroke-linecap:butt;stroke-linejoin:miter;stroke:#000;stroke-opacity:1;stroke-miterlimit:10" d="M3.987-.001A3.984 3.984 0 0 1-.002 3.983a3.984 3.984 0 1 1 0-7.968A3.987 3.987 0 0 1 3.987-.001Zm0 0" transform="matrix(1 0 0 -1 29.361 91.698)"/></g><g clip-path="url(#ac)"><path style="fill:none;stroke-width:.74721;stroke-linecap:butt;stroke-linejoin:miter;stroke:#000;stroke-opacity:1;stroke-miterlimit:10" d="M3.985-.001A3.984 3.984 0 0 1 .001 3.983 3.981 3.981 0 0 1-3.983 0a3.984 3.984 0 1 1 7.968 0Zm0 0" transform="matrix(1 0 0 -1 35.339 91.698)"/></g><g clip-path="url(#ad)"><path style="fill:none;stroke-width:.74721;stroke-linecap:butt;stroke-linejoin:miter;stroke:#000;stroke-opacity:1;stroke-miterlimit:10" d="M3.984-.001A3.984 3.984 0 0 1 0 3.983a3.984 3.984 0 1 1 0-7.968c2.2 0 3.984 1.785 3.984 3.984Zm0 0" transform="matrix(1 0 0 -1 41.316 91.698)"/></g><g clip-path="url(#ae)"><path style="fill:none;stroke-width:.74721;stroke-linecap:butt;stroke-linejoin:miter;stroke:#000;stroke-opacity:1;stroke-miterlimit:10" d="M3.984.002C3.984 2.2 2.2 3.986 0 3.986a3.986 3.986 0 0 1 0-7.972c2.199 0 3.984 1.785 3.984 3.988Zm0 0" transform="matrix(1 0 0 -1 -.527 85.72)"/></g><g clip-path="url(#af)"><path style="fill:none;stroke-width:.74721;stroke-linecap:butt;stroke-linejoin:miter;stroke:#000;stroke-opacity:1;stroke-miterlimit:10" d="M3.987.002a3.987 3.987 0 1 1-7.974-.005 3.987 3.987 0 0 1 7.974.005Zm0 0" transform="matrix(1 0 0 -1 5.45 85.72)"/></g><g clip-path="url(#ag)"><path style="fill:none;stroke-width:.74721;stroke-linecap:butt;stroke-linejoin:miter;stroke:#000;stroke-opacity:1;stroke-miterlimit:10" d="M3.986.002a3.986 3.986 0 1 1-7.972-.003 3.986 3.986 0 0 1 7.972.003Zm0 0" transform="matrix(1 0 0 -1 11.428 85.72)"/></g><g clip-path="url(#ah)"><path style="fill:none;stroke-width:.74721;stroke-linecap:butt;stroke-linejoin:miter;stroke:#000;stroke-opacity:1;stroke-miterlimit:10" d="M3.985.002C3.985 2.2 2.2 3.986 0 3.986A3.984 3.984 0 0 1-3.984.002a3.984 3.984 0 1 1 7.969 0Zm0 0" transform="matrix(1 0 0 -1 17.406 85.72)"/></g><g clip-path="url(#ai)"><path style="fill:none;stroke-width:.74721;stroke-linecap:butt;stroke-linejoin:miter;stroke:#000;stroke-opacity:1;stroke-miterlimit:10" d="M3.984.002a3.984 3.984 0 1 1-7.969 0 3.984 3.984 0 1 1 7.969 0Zm0 0" transform="matrix(1 0 0 -1 23.383 85.72)"/></g><g clip-path="url(#aj)"><path style="fill:none;stroke-width:.74721;stroke-linecap:butt;stroke-linejoin:miter;stroke:#000;stroke-opacity:1;stroke-miterlimit:10" d="M3.987.002a3.987 3.987 0 1 1-7.974-.005 3.987 3.987 0 0 1 7.974.005Zm0 0" transform="matrix(1 0 0 -1 29.361 85.72)"/></g><g clip-path="url(#ak)"><path style="fill:none;stroke-width:.74721;stroke-linecap:butt;stroke-linejoin:miter;stroke:#000;stroke-opacity:1;stroke-miterlimit:10" d="M3.985.002a3.984 3.984 0 1 1-7.969 0 3.984 3.984 0 1 1 7.97 0Zm0 0" transform="matrix(1 0 0 -1 35.339 85.72)"/></g><g clip-path="url(#al)"><path style="fill:none;stroke-width:.74721;stroke-linecap:butt;stroke-linejoin:miter;stroke:#000;stroke-opacity:1;stroke-miterlimit:10" d="M3.984.002C3.984 2.2 2.2 3.986 0 3.986a3.986 3.986 0 0 1 0-7.972c2.2 0 3.984 1.785 3.984 3.988Zm0 0" transform="matrix(1 0 0 -1 41.316 85.72)"/></g><g clip-path="url(#am)"><path style="fill:none;stroke-width:.74721;stroke-linecap:butt;stroke-linejoin:miter;stroke:#000;stroke-opacity:1;stroke-miterlimit:10" d="M3.984 0C3.984 2.2 2.2 3.986 0 3.986a3.984 3.984 0 1 1 0-7.969c2.199 0 3.984 1.782 3.984 3.985Zm0 0" transform="matrix(1 0 0 -1 -.527 79.743)"/></g><g clip-path="url(#an)"><path style="fill:none;stroke-width:.74721;stroke-linecap:butt;stroke-linejoin:miter;stroke:#000;stroke-opacity:1;stroke-miterlimit:10" d="M3.987 0a3.987 3.987 0 0 1-7.973 0A3.984 3.984 0 0 1 0-3.983 3.984 3.984 0 0 1 3.987.001Zm0 0" transform="matrix(1 0 0 -1 5.45 79.743)"/></g><g clip-path="url(#ao)"><path style="fill:none;stroke-width:.74721;stroke-linecap:butt;stroke-linejoin:miter;stroke:#000;stroke-opacity:1;stroke-miterlimit:10" d="M3.986 0a3.986 3.986 0 0 1-7.973 0A3.984 3.984 0 0 1 .002-3.983c2.199 0 3.984 1.782 3.984 3.985Zm0 0" transform="matrix(1 0 0 -1 11.428 79.743)"/></g><g clip-path="url(#ap)"><path style="fill:none;stroke-width:.74721;stroke-linecap:butt;stroke-linejoin:miter;stroke:#000;stroke-opacity:1;stroke-miterlimit:10" d="M3.985 0a3.984 3.984 0 1 1-7.969 0A3.981 3.981 0 0 1 0-3.983c2.2 0 3.985 1.782 3.985 3.985Zm0 0" transform="matrix(1 0 0 -1 17.406 79.743)"/></g><g clip-path="url(#aq)"><path style="fill:none;stroke-width:.74721;stroke-linecap:butt;stroke-linejoin:miter;stroke:#000;stroke-opacity:1;stroke-miterlimit:10" d="M3.984 0a3.984 3.984 0 1 1-7.969 0A3.984 3.984 0 0 1-.001-3.983 3.981 3.981 0 0 1 3.984.001Zm0 0" transform="matrix(1 0 0 -1 23.383 79.743)"/></g><g clip-path="url(#ar)"><path style="fill:none;stroke-width:.74721;stroke-linecap:butt;stroke-linejoin:miter;stroke:#000;stroke-opacity:1;stroke-miterlimit:10" d="M3.987 0a3.987 3.987 0 0 1-7.973 0A3.984 3.984 0 0 1-.002-3.983 3.984 3.984 0 0 1 3.987.001Zm0 0" transform="matrix(1 0 0 -1 29.361 79.743)"/></g><g clip-path="url(#as)"><path style="fill:none;stroke-width:.74721;stroke-linecap:butt;stroke-linejoin:miter;stroke:#000;stroke-opacity:1;stroke-miterlimit:10" d="M3.985 0a3.984 3.984 0 1 1-7.969 0A3.981 3.981 0 0 1 .002-3.983c2.2 0 3.984 1.782 3.984 3.985Zm0 0" transform="matrix(1 0 0 -1 35.339 79.743)"/></g><g clip-path="url(#at)"><path style="fill:none;stroke-width:.74721;stroke-linecap:butt;stroke-linejoin:miter;stroke:#000;stroke-opacity:1;stroke-miterlimit:10" d="M3.984 0C3.984 2.2 2.2 3.986 0 3.986a3.984 3.984 0 1 1 0-7.969c2.2 0 3.984 1.782 3.984 3.985Zm0 0" transform="matrix(1 0 0 -1 41.316 79.743)"/></g><g clip-path="url(#au)"><path style="fill:none;stroke-width:.74721;stroke-linecap:butt;stroke-linejoin:miter;stroke:#000;stroke-opacity:1;stroke-miterlimit:10" d="M3.984 0A3.984 3.984 0 0 1 0 3.984a3.984 3.984 0 1 1 0-7.969C2.199-3.985 3.984-2.2 3.984 0Zm0 0" transform="matrix(1 0 0 -1 -.527 73.765)"/></g><g clip-path="url(#av)"><path style="fill:none;stroke-width:.74721;stroke-linecap:butt;stroke-linejoin:miter;stroke:#000;stroke-opacity:1;stroke-miterlimit:10" d="M3.987 0A3.984 3.984 0 0 1-.001 3.984a3.984 3.984 0 1 1 0-7.969A3.987 3.987 0 0 1 3.987 0Zm0 0" transform="matrix(1 0 0 -1 5.45 73.765)"/></g><g clip-path="url(#aw)"><path style="fill:none;stroke-width:.74721;stroke-linecap:butt;stroke-linejoin:miter;stroke:#000;stroke-opacity:1;stroke-miterlimit:10" d="M3.986 0A3.984 3.984 0 0 1 .002 3.984a3.984 3.984 0 1 1 0-7.969C2.2-3.985 3.986-2.2 3.986 0Zm0 0" transform="matrix(1 0 0 -1 11.428 73.765)"/></g><g clip-path="url(#ax)"><path style="fill:none;stroke-width:.74721;stroke-linecap:butt;stroke-linejoin:miter;stroke:#000;stroke-opacity:1;stroke-miterlimit:10" d="M3.985 0A3.984 3.984 0 0 1 0 3.984 3.981 3.981 0 0 1-3.984 0a3.984 3.984 0 1 1 7.969 0Zm0 0" transform="matrix(1 0 0 -1 17.406 73.765)"/></g><g clip-path="url(#ay)"><path style="fill:none;stroke-width:.74721;stroke-linecap:butt;stroke-linejoin:miter;stroke:#000;stroke-opacity:1;stroke-miterlimit:10" d="M3.984 0A3.981 3.981 0 0 1-.001 3.984a3.984 3.984 0 1 1 0-7.969A3.984 3.984 0 0 1 3.984 0Zm0 0" transform="matrix(1 0 0 -1 23.383 73.765)"/></g><g clip-path="url(#az)"><path style="fill:none;stroke-width:.74721;stroke-linecap:butt;stroke-linejoin:miter;stroke:#000;stroke-opacity:1;stroke-miterlimit:10" d="M3.987 0A3.984 3.984 0 0 1-.002 3.984a3.984 3.984 0 1 1 0-7.969A3.987 3.987 0 0 1 3.987 0Zm0 0" transform="matrix(1 0 0 -1 29.361 73.765)"/></g><g clip-path="url(#aA)"><path style="fill:none;stroke-width:.74721;stroke-linecap:butt;stroke-linejoin:miter;stroke:#000;stroke-opacity:1;stroke-miterlimit:10" d="M3.985 0A3.984 3.984 0 0 1 .001 3.984 3.981 3.981 0 0 1-3.983 0a3.984 3.984 0 1 1 7.968 0Zm0 0" transform="matrix(1 0 0 -1 35.339 73.765)"/></g><g clip-path="url(#aB)"><path style="fill:none;stroke-width:.74721;stroke-linecap:butt;stroke-linejoin:miter;stroke:#000;stroke-opacity:1;stroke-miterlimit:10" d="M3.984 0A3.984 3.984 0 0 1 0 3.984a3.984 3.984 0 1 1 0-7.969C2.2-3.985 3.984-2.2 3.984 0Zm0 0" transform="matrix(1 0 0 -1 41.316 73.765)"/></g><path style="fill:none;stroke-width:.3985;stroke-linecap:butt;stroke-linejoin:miter;stroke:#000;stroke-opacity:1;stroke-miterlimit:10" d="M-.001.001v56.692h42.52V0Zm0 0" transform="matrix(1 0 0 -1 1.005 128.74)"/><g clip-path="url(#aC)"><path style="fill:none;stroke-width:.74721;stroke-linecap:butt;stroke-linejoin:miter;stroke:#000;stroke-opacity:1;stroke-miterlimit:10" d="M3.986 0a3.986 3.986 0 0 1-7.973 0 3.987 3.987 0 0 1 7.973 0Zm0 0" transform="matrix(1 0 0 -1 55.264 129.562)"/></g><g clip-path="url(#aD)"><path style="fill:none;stroke-width:.74721;stroke-linecap:butt;stroke-linejoin:miter;stroke:#000;stroke-opacity:1;stroke-miterlimit:10" d="M3.984 0C3.984 2.2 2.2 3.984 0 3.984A3.986 3.986 0 0 1-3.984 0C-3.984-2.2-2.2-3.984 0-3.984 2.2-3.984 3.984-2.2 3.984 0Zm0 0" transform="matrix(1 0 0 -1 63.234 129.562)"/></g><g clip-path="url(#aE)"><path style="fill:none;stroke-width:.74721;stroke-linecap:butt;stroke-linejoin:miter;stroke:#000;stroke-opacity:1;stroke-miterlimit:10" d="M3.987 0a3.987 3.987 0 0 1-7.973 0 3.986 3.986 0 0 1 7.973 0Zm0 0" transform="matrix(1 0 0 -1 71.205 129.562)"/></g><g clip-path="url(#aF)"><path style="fill:none;stroke-width:.74721;stroke-linecap:butt;stroke-linejoin:miter;stroke:#000;stroke-opacity:1;stroke-miterlimit:10" d="M3.985 0a3.984 3.984 0 1 1-7.969 0 3.984 3.984 0 1 1 7.97 0Zm0 0" transform="matrix(1 0 0 -1 79.175 129.562)"/></g><g clip-path="url(#aG)"><path style="fill:none;stroke-width:.74721;stroke-linecap:butt;stroke-linejoin:miter;stroke:#000;stroke-opacity:1;stroke-miterlimit:10" d="M3.984 0a3.984 3.984 0 1 1-7.969 0 3.984 3.984 0 1 1 7.969 0Zm0 0" transform="matrix(1 0 0 -1 87.145 129.562)"/></g><g clip-path="url(#aH)"><path style="fill:none;stroke-width:.74721;stroke-linecap:butt;stroke-linejoin:miter;stroke:#000;stroke-opacity:1;stroke-miterlimit:10" d="M3.986 0a3.986 3.986 0 0 1-7.972 0 3.987 3.987 0 0 1 7.972 0Zm0 0" transform="matrix(1 0 0 -1 95.115 129.562)"/></g><g clip-path="url(#aI)"><path style="fill:none;stroke-width:.74721;stroke-linecap:butt;stroke-linejoin:miter;stroke:#000;stroke-opacity:1;stroke-miterlimit:10" d="M3.985 0C3.985 2.2 2.2 3.984 0 3.984A3.984 3.984 0 0 1-3.984 0a3.984 3.984 0 1 1 7.969 0Zm0 0" transform="matrix(1 0 0 -1 103.086 129.562)"/></g><g clip-path="url(#aJ)"><path style="fill:none;stroke-width:.74721;stroke-linecap:butt;stroke-linejoin:miter;stroke:#000;stroke-opacity:1;stroke-miterlimit:10" d="M3.986-.002a3.987 3.987 0 1 1-7.974.003 3.987 3.987 0 0 1 7.974-.003Zm0 0" transform="matrix(1 0 0 -1 55.264 121.592)"/></g><g clip-path="url(#aK)"><path style="fill:none;stroke-width:.74721;stroke-linecap:butt;stroke-linejoin:miter;stroke:#000;stroke-opacity:1;stroke-miterlimit:10" d="M3.984-.002A3.987 3.987 0 0 1 0 3.987a3.987 3.987 0 0 1 0-7.973c2.2 0 3.984 1.785 3.984 3.984Zm0 0" transform="matrix(1 0 0 -1 63.234 121.592)"/></g><g clip-path="url(#aL)"><path style="fill:none;stroke-width:.74721;stroke-linecap:butt;stroke-linejoin:miter;stroke:#000;stroke-opacity:1;stroke-miterlimit:10" d="M3.987-.002a3.987 3.987 0 1 1-7.972.003 3.987 3.987 0 0 1 7.972-.003Zm0 0" transform="matrix(1 0 0 -1 71.205 121.592)"/></g><g clip-path="url(#aM)"><path style="fill:none;stroke-width:.74721;stroke-linecap:butt;stroke-linejoin:miter;stroke:#000;stroke-opacity:1;stroke-miterlimit:10" d="M3.985-.002a3.984 3.984 0 1 1-7.969 0 3.984 3.984 0 1 1 7.97 0Zm0 0" transform="matrix(1 0 0 -1 79.175 121.592)"/></g><g clip-path="url(#aN)"><path style="fill:none;stroke-width:.74721;stroke-linecap:butt;stroke-linejoin:miter;stroke:#000;stroke-opacity:1;stroke-miterlimit:10" d="M3.984-.002a3.984 3.984 0 1 1-7.969 0 3.984 3.984 0 1 1 7.969 0Zm0 0" transform="matrix(1 0 0 -1 87.145 121.592)"/></g><g clip-path="url(#aO)"><path style="fill:none;stroke-width:.74721;stroke-linecap:butt;stroke-linejoin:miter;stroke:#000;stroke-opacity:1;stroke-miterlimit:10" d="M3.986-.002a3.987 3.987 0 1 1-7.973.003 3.987 3.987 0 0 1 7.973-.003Zm0 0" transform="matrix(1 0 0 -1 95.115 121.592)"/></g><g clip-path="url(#aP)"><path style="fill:none;stroke-width:.74721;stroke-linecap:butt;stroke-linejoin:miter;stroke:#000;stroke-opacity:1;stroke-miterlimit:10" d="M3.985-.002a3.984 3.984 0 1 1-7.969 0 3.984 3.984 0 1 1 7.969 0Zm0 0" transform="matrix(1 0 0 -1 103.086 121.592)"/></g><g clip-path="url(#aQ)"><path style="fill:none;stroke-width:.74721;stroke-linecap:butt;stroke-linejoin:miter;stroke:#000;stroke-opacity:1;stroke-miterlimit:10" d="M3.986 0a3.986 3.986 0 0 1-7.973 0A3.984 3.984 0 0 1 .001-3.982c2.2 0 3.985 1.78 3.985 3.984Zm0 0" transform="matrix(1 0 0 -1 55.264 113.622)"/></g><g clip-path="url(#aR)"><path style="fill:none;stroke-width:.74721;stroke-linecap:butt;stroke-linejoin:miter;stroke:#000;stroke-opacity:1;stroke-miterlimit:10" d="M3.984 0C3.984 2.2 2.2 3.986 0 3.986a3.984 3.984 0 1 1 0-7.969c2.2 0 3.984 1.782 3.984 3.985Zm0 0" transform="matrix(1 0 0 -1 63.234 113.622)"/></g><g clip-path="url(#aS)"><path style="fill:none;stroke-width:.74721;stroke-linecap:butt;stroke-linejoin:miter;stroke:#000;stroke-opacity:1;stroke-miterlimit:10" d="M3.987 0a3.987 3.987 0 0 1-7.973 0A3.984 3.984 0 0 1-.002-3.982 3.984 3.984 0 0 1 3.987 0Zm0 0" transform="matrix(1 0 0 -1 71.205 113.622)"/></g><g clip-path="url(#aT)"><path style="fill:none;stroke-width:.74721;stroke-linecap:butt;stroke-linejoin:miter;stroke:#000;stroke-opacity:1;stroke-miterlimit:10" d="M3.985 0a3.984 3.984 0 1 1-7.969 0A3.981 3.981 0 0 1 .002-3.982c2.2 0 3.984 1.78 3.984 3.984Zm0 0" transform="matrix(1 0 0 -1 79.175 113.622)"/></g><g clip-path="url(#aU)"><path style="fill:none;stroke-width:.74721;stroke-linecap:butt;stroke-linejoin:miter;stroke:#000;stroke-opacity:1;stroke-miterlimit:10" d="M3.984 0a3.984 3.984 0 1 1-7.969 0A3.984 3.984 0 0 1 0-3.982 3.981 3.981 0 0 1 3.984 0Zm0 0" transform="matrix(1 0 0 -1 87.145 113.622)"/></g><g clip-path="url(#aV)"><path style="fill:none;stroke-width:.74721;stroke-linecap:butt;stroke-linejoin:miter;stroke:#000;stroke-opacity:1;stroke-miterlimit:10" d="M3.986 0a3.986 3.986 0 0 1-7.972 0A3.984 3.984 0 0 1 .002-3.982c2.2 0 3.984 1.78 3.984 3.984Zm0 0" transform="matrix(1 0 0 -1 95.115 113.622)"/></g><g clip-path="url(#aW)"><path style="fill:none;stroke-width:.74721;stroke-linecap:butt;stroke-linejoin:miter;stroke:#000;stroke-opacity:1;stroke-miterlimit:10" d="M3.985 0a3.984 3.984 0 1 1-7.969 0A3.981 3.981 0 0 1 0-3.982c2.2 0 3.985 1.78 3.985 3.984Zm0 0" transform="matrix(1 0 0 -1 103.086 113.622)"/></g><g clip-path="url(#aX)"><path style="fill:none;stroke-width:.74721;stroke-linecap:butt;stroke-linejoin:miter;stroke:#000;stroke-opacity:1;stroke-miterlimit:10" d="M3.986 0A3.984 3.984 0 0 1 0 3.983a3.984 3.984 0 1 1 0-7.969c2.2 0 3.985 1.785 3.985 3.984Zm0 0" transform="matrix(1 0 0 -1 55.264 105.652)"/></g><g clip-path="url(#aY)"><path style="fill:none;stroke-width:.74721;stroke-linecap:butt;stroke-linejoin:miter;stroke:#000;stroke-opacity:1;stroke-miterlimit:10" d="M3.984 0A3.984 3.984 0 0 1 0 3.983a3.984 3.984 0 1 1 0-7.969c2.2 0 3.984 1.785 3.984 3.984Zm0 0" transform="matrix(1 0 0 -1 63.234 105.652)"/></g><g clip-path="url(#aZ)"><path style="fill:none;stroke-width:.74721;stroke-linecap:butt;stroke-linejoin:miter;stroke:#000;stroke-opacity:1;stroke-miterlimit:10" d="M3.987 0A3.984 3.984 0 0 1-.002 3.983a3.984 3.984 0 1 1 0-7.969A3.987 3.987 0 0 1 3.987-.001Zm0 0" transform="matrix(1 0 0 -1 71.205 105.652)"/></g><g clip-path="url(#ba)"><path style="fill:none;stroke-width:.74721;stroke-linecap:butt;stroke-linejoin:miter;stroke:#000;stroke-opacity:1;stroke-miterlimit:10" d="M3.985 0A3.984 3.984 0 0 1 .001 3.983 3.981 3.981 0 0 1-3.983-.001a3.984 3.984 0 1 1 7.968 0Zm0 0" transform="matrix(1 0 0 -1 79.175 105.652)"/></g><g clip-path="url(#bb)"><path style="fill:none;stroke-width:.74721;stroke-linecap:butt;stroke-linejoin:miter;stroke:#000;stroke-opacity:1;stroke-miterlimit:10" d="M3.984 0A3.981 3.981 0 0 1-.001 3.983a3.984 3.984 0 1 1 0-7.969A3.984 3.984 0 0 1 3.984-.001Zm0 0" transform="matrix(1 0 0 -1 87.145 105.652)"/></g><g clip-path="url(#bc)"><path style="fill:none;stroke-width:.74721;stroke-linecap:butt;stroke-linejoin:miter;stroke:#000;stroke-opacity:1;stroke-miterlimit:10" d="M3.986 0A3.984 3.984 0 0 1 .002 3.983a3.984 3.984 0 1 1 0-7.969c2.2 0 3.984 1.785 3.984 3.984Zm0 0" transform="matrix(1 0 0 -1 95.115 105.652)"/></g><g clip-path="url(#bd)"><path style="fill:none;stroke-width:.74721;stroke-linecap:butt;stroke-linejoin:miter;stroke:#000;stroke-opacity:1;stroke-miterlimit:10" d="M3.985 0A3.984 3.984 0 0 1 0 3.983 3.981 3.981 0 0 1-3.984-.001a3.984 3.984 0 1 1 7.969 0Zm0 0" transform="matrix(1 0 0 -1 103.086 105.652)"/></g><g clip-path="url(#be)"><path style="fill:none;stroke-width:.74721;stroke-linecap:butt;stroke-linejoin:miter;stroke:#000;stroke-opacity:1;stroke-miterlimit:10" d="M3.986.002a3.986 3.986 0 1 1-7.972-.003 3.986 3.986 0 0 1 7.972.003Zm0 0" transform="matrix(1 0 0 -1 55.264 97.682)"/></g><g clip-path="url(#bf)"><path style="fill:none;stroke-width:.74721;stroke-linecap:butt;stroke-linejoin:miter;stroke:#000;stroke-opacity:1;stroke-miterlimit:10" d="M3.984.002c0 2.2-1.785 3.984-3.984 3.984a3.986 3.986 0 0 1 0-7.972c2.2 0 3.984 1.785 3.984 3.988Zm0 0" transform="matrix(1 0 0 -1 63.234 97.682)"/></g><g clip-path="url(#bg)"><path style="fill:none;stroke-width:.74721;stroke-linecap:butt;stroke-linejoin:miter;stroke:#000;stroke-opacity:1;stroke-miterlimit:10" d="M3.987.002a3.987 3.987 0 1 1-7.974-.005 3.987 3.987 0 0 1 7.974.005Zm0 0" transform="matrix(1 0 0 -1 71.205 97.682)"/></g><g clip-path="url(#bh)"><path style="fill:none;stroke-width:.74721;stroke-linecap:butt;stroke-linejoin:miter;stroke:#000;stroke-opacity:1;stroke-miterlimit:10" d="M3.985.002a3.984 3.984 0 1 1-7.969 0 3.984 3.984 0 1 1 7.97 0Zm0 0" transform="matrix(1 0 0 -1 79.175 97.682)"/></g><g clip-path="url(#bi)"><path style="fill:none;stroke-width:.74721;stroke-linecap:butt;stroke-linejoin:miter;stroke:#000;stroke-opacity:1;stroke-miterlimit:10" d="M3.984.002a3.984 3.984 0 1 1-7.969 0 3.984 3.984 0 1 1 7.969 0Zm0 0" transform="matrix(1 0 0 -1 87.145 97.682)"/></g><g clip-path="url(#bj)"><path style="fill:none;stroke-width:.74721;stroke-linecap:butt;stroke-linejoin:miter;stroke:#000;stroke-opacity:1;stroke-miterlimit:10" d="M3.986.002a3.986 3.986 0 1 1-7.972-.003 3.986 3.986 0 0 1 7.972.003Zm0 0" transform="matrix(1 0 0 -1 95.115 97.682)"/></g><g clip-path="url(#bk)"><path style="fill:none;stroke-width:.74721;stroke-linecap:butt;stroke-linejoin:miter;stroke:#000;stroke-opacity:1;stroke-miterlimit:10" d="M3.985.002c0 2.2-1.785 3.984-3.985 3.984A3.984 3.984 0 0 1-3.984.002a3.984 3.984 0 1 1 7.969 0Zm0 0" transform="matrix(1 0 0 -1 103.086 97.682)"/></g><g clip-path="url(#bl)"><path style="fill:none;stroke-width:.74721;stroke-linecap:butt;stroke-linejoin:miter;stroke:#000;stroke-opacity:1;stroke-miterlimit:10" d="M3.986 0a3.986 3.986 0 0 1-7.973 0A3.984 3.984 0 0 1 .001-3.984c2.2 0 3.985 1.781 3.985 3.984Zm0 0" transform="matrix(1 0 0 -1 55.264 89.711)"/></g><g clip-path="url(#bm)"><path style="fill:none;stroke-width:.74721;stroke-linecap:butt;stroke-linejoin:miter;stroke:#000;stroke-opacity:1;stroke-miterlimit:10" d="M3.984 0C3.984 2.2 2.2 3.985 0 3.985a3.984 3.984 0 1 1 0-7.969c2.2 0 3.984 1.781 3.984 3.984Zm0 0" transform="matrix(1 0 0 -1 63.234 89.711)"/></g><g clip-path="url(#bn)"><path style="fill:none;stroke-width:.74721;stroke-linecap:butt;stroke-linejoin:miter;stroke:#000;stroke-opacity:1;stroke-miterlimit:10" d="M3.987 0a3.987 3.987 0 0 1-7.973 0A3.984 3.984 0 0 1-.002-3.984 3.984 3.984 0 0 1 3.987 0Zm0 0" transform="matrix(1 0 0 -1 71.205 89.711)"/></g><g clip-path="url(#bo)"><path style="fill:none;stroke-width:.74721;stroke-linecap:butt;stroke-linejoin:miter;stroke:#000;stroke-opacity:1;stroke-miterlimit:10" d="M3.985 0a3.984 3.984 0 1 1-7.969 0A3.981 3.981 0 0 1 .002-3.984c2.2 0 3.984 1.781 3.984 3.984Zm0 0" transform="matrix(1 0 0 -1 79.175 89.711)"/></g><g clip-path="url(#bp)"><path style="fill:none;stroke-width:.74721;stroke-linecap:butt;stroke-linejoin:miter;stroke:#000;stroke-opacity:1;stroke-miterlimit:10" d="M3.984 0a3.984 3.984 0 1 1-7.969 0A3.984 3.984 0 0 1 0-3.984 3.981 3.981 0 0 1 3.984 0Zm0 0" transform="matrix(1 0 0 -1 87.145 89.711)"/></g><g clip-path="url(#bq)"><path style="fill:none;stroke-width:.74721;stroke-linecap:butt;stroke-linejoin:miter;stroke:#000;stroke-opacity:1;stroke-miterlimit:10" d="M3.986 0a3.986 3.986 0 0 1-7.972 0A3.984 3.984 0 0 1 .002-3.984c2.2 0 3.984 1.781 3.984 3.984Zm0 0" transform="matrix(1 0 0 -1 95.115 89.711)"/></g><g clip-path="url(#br)"><path style="fill:none;stroke-width:.74721;stroke-linecap:butt;stroke-linejoin:miter;stroke:#000;stroke-opacity:1;stroke-miterlimit:10" d="M3.985 0a3.984 3.984 0 1 1-7.969 0A3.981 3.981 0 0 1 0-3.984c2.2 0 3.985 1.781 3.985 3.984Zm0 0" transform="matrix(1 0 0 -1 103.086 89.711)"/></g><g clip-path="url(#bs)"><path style="fill:none;stroke-width:.74721;stroke-linecap:butt;stroke-linejoin:miter;stroke:#000;stroke-opacity:1;stroke-miterlimit:10" d="M3.986-.001A3.984 3.984 0 0 1 0 3.983a3.984 3.984 0 1 1 0-7.968c2.2 0 3.985 1.785 3.985 3.984Zm0 0" transform="matrix(1 0 0 -1 55.264 81.741)"/></g><g clip-path="url(#bt)"><path style="fill:none;stroke-width:.74721;stroke-linecap:butt;stroke-linejoin:miter;stroke:#000;stroke-opacity:1;stroke-miterlimit:10" d="M3.984-.001A3.984 3.984 0 0 1 0 3.983a3.984 3.984 0 1 1 0-7.968c2.2 0 3.984 1.785 3.984 3.984Zm0 0" transform="matrix(1 0 0 -1 63.234 81.741)"/></g><g clip-path="url(#bu)"><path style="fill:none;stroke-width:.74721;stroke-linecap:butt;stroke-linejoin:miter;stroke:#000;stroke-opacity:1;stroke-miterlimit:10" d="M3.987-.001A3.984 3.984 0 0 1-.002 3.983a3.984 3.984 0 1 1 0-7.968A3.987 3.987 0 0 1 3.987-.001Zm0 0" transform="matrix(1 0 0 -1 71.205 81.741)"/></g><g clip-path="url(#bv)"><path style="fill:none;stroke-width:.74721;stroke-linecap:butt;stroke-linejoin:miter;stroke:#000;stroke-opacity:1;stroke-miterlimit:10" d="M3.985-.001A3.984 3.984 0 0 1 .001 3.983 3.981 3.981 0 0 1-3.983 0a3.984 3.984 0 1 1 7.968 0Zm0 0" transform="matrix(1 0 0 -1 79.175 81.741)"/></g><g clip-path="url(#bw)"><path style="fill:none;stroke-width:.74721;stroke-linecap:butt;stroke-linejoin:miter;stroke:#000;stroke-opacity:1;stroke-miterlimit:10" d="M3.984-.001A3.981 3.981 0 0 1-.001 3.983a3.984 3.984 0 1 1 0-7.968A3.984 3.984 0 0 1 3.984-.001Zm0 0" transform="matrix(1 0 0 -1 87.145 81.741)"/></g><g clip-path="url(#bx)"><path style="fill:none;stroke-width:.74721;stroke-linecap:butt;stroke-linejoin:miter;stroke:#000;stroke-opacity:1;stroke-miterlimit:10" d="M3.986-.001A3.984 3.984 0 0 1 .002 3.983a3.984 3.984 0 1 1 0-7.968c2.2 0 3.984 1.785 3.984 3.984Zm0 0" transform="matrix(1 0 0 -1 95.115 81.741)"/></g><g clip-path="url(#by)"><path style="fill:none;stroke-width:.74721;stroke-linecap:butt;stroke-linejoin:miter;stroke:#000;stroke-opacity:1;stroke-miterlimit:10" d="M3.985-.001A3.984 3.984 0 0 1 0 3.983 3.981 3.981 0 0 1-3.984 0a3.984 3.984 0 1 1 7.969 0Zm0 0" transform="matrix(1 0 0 -1 103.086 81.741)"/></g><g clip-path="url(#bz)"><path style="fill:none;stroke-width:.74721;stroke-linecap:butt;stroke-linejoin:miter;stroke:#000;stroke-opacity:1;stroke-miterlimit:10" d="M3.986.001a3.986 3.986 0 1 1-7.972-.003 3.986 3.986 0 0 1 7.972.003Zm0 0" transform="matrix(1 0 0 -1 55.264 73.77)"/></g><g clip-path="url(#bA)"><path style="fill:none;stroke-width:.74721;stroke-linecap:butt;stroke-linejoin:miter;stroke:#000;stroke-opacity:1;stroke-miterlimit:10" d="M3.984.001c0 2.2-1.785 3.985-3.984 3.985a3.986 3.986 0 0 1 0-7.973c2.2 0 3.984 1.785 3.984 3.988Zm0 0" transform="matrix(1 0 0 -1 63.234 73.77)"/></g><g clip-path="url(#bB)"><path style="fill:none;stroke-width:.74721;stroke-linecap:butt;stroke-linejoin:miter;stroke:#000;stroke-opacity:1;stroke-miterlimit:10" d="M3.987.001a3.987 3.987 0 1 1-7.974-.005 3.987 3.987 0 0 1 7.974.005Zm0 0" transform="matrix(1 0 0 -1 71.205 73.77)"/></g><g clip-path="url(#bC)"><path style="fill:none;stroke-width:.74721;stroke-linecap:butt;stroke-linejoin:miter;stroke:#000;stroke-opacity:1;stroke-miterlimit:10" d="M3.985.001a3.984 3.984 0 1 1-7.969 0 3.984 3.984 0 1 1 7.97 0Zm0 0" transform="matrix(1 0 0 -1 79.175 73.77)"/></g><g clip-path="url(#bD)"><path style="fill:none;stroke-width:.74721;stroke-linecap:butt;stroke-linejoin:miter;stroke:#000;stroke-opacity:1;stroke-miterlimit:10" d="M3.984.001a3.984 3.984 0 1 1-7.969 0 3.984 3.984 0 1 1 7.969 0Zm0 0" transform="matrix(1 0 0 -1 87.145 73.77)"/></g><g clip-path="url(#bE)"><path style="fill:none;stroke-width:.74721;stroke-linecap:butt;stroke-linejoin:miter;stroke:#000;stroke-opacity:1;stroke-miterlimit:10" d="M3.986.001a3.986 3.986 0 1 1-7.972-.003 3.986 3.986 0 0 1 7.972.003Zm0 0" transform="matrix(1 0 0 -1 95.115 73.77)"/></g><g clip-path="url(#bF)"><path style="fill:none;stroke-width:.74721;stroke-linecap:butt;stroke-linejoin:miter;stroke:#000;stroke-opacity:1;stroke-miterlimit:10" d="M3.985.001a3.984 3.984 0 1 1-7.969 0 3.984 3.984 0 1 1 7.969 0Zm0 0" transform="matrix(1 0 0 -1 103.086 73.77)"/></g><path style="fill:none;stroke-width:.3985;stroke-linecap:butt;stroke-linejoin:miter;stroke:#000;stroke-opacity:1;stroke-miterlimit:10" d="M56.694.001v56.692h42.52V0Zm0 0" transform="matrix(1 0 0 -1 1.005 128.74)"/><g clip-path="url(#bG)"><path style="fill:none;stroke-width:1.99255;stroke-linecap:butt;stroke-linejoin:miter;stroke:#000;stroke-opacity:1;stroke-miterlimit:10" d="M3.985 0a3.984 3.984 0 1 1-7.969 0 3.984 3.984 0 1 1 7.969 0Zm0 0" transform="matrix(1 0 0 -1 -4.512 57.82)"/></g><g clip-path="url(#bH)"><path style="fill:none;stroke-width:1.99255;stroke-linecap:butt;stroke-linejoin:miter;stroke:#000;stroke-opacity:1;stroke-miterlimit:10" d="M3.985 0a3.984 3.984 0 1 1-7.969 0 3.984 3.984 0 1 1 7.97 0Zm0 0" transform="matrix(1 0 0 -1 15.413 57.82)"/></g><g clip-path="url(#bI)"><path style="fill:none;stroke-width:1.99255;stroke-linecap:butt;stroke-linejoin:miter;stroke:#000;stroke-opacity:1;stroke-miterlimit:10" d="M3.985 0a3.984 3.984 0 1 1-7.969 0 3.984 3.984 0 1 1 7.97 0Zm0 0" transform="matrix(1 0 0 -1 35.339 57.82)"/></g><g clip-path="url(#bJ)"><path style="fill:none;stroke-width:1.99255;stroke-linecap:butt;stroke-linejoin:miter;stroke:#000;stroke-opacity:1;stroke-miterlimit:10" d="M3.985 0a3.984 3.984 0 1 1-7.969 0 3.984 3.984 0 1 1 7.969 0Zm0 0" transform="matrix(1 0 0 -1 -4.512 37.895)"/></g><g clip-path="url(#bK)"><path style="fill:none;stroke-width:1.99255;stroke-linecap:butt;stroke-linejoin:miter;stroke:#000;stroke-opacity:1;stroke-miterlimit:10" d="M3.985 0a3.984 3.984 0 1 1-7.969 0 3.984 3.984 0 1 1 7.97 0Zm0 0" transform="matrix(1 0 0 -1 15.413 37.895)"/></g><g clip-path="url(#bL)"><path style="fill:none;stroke-width:1.99255;stroke-linecap:butt;stroke-linejoin:miter;stroke:#000;stroke-opacity:1;stroke-miterlimit:10" d="M3.985 0a3.984 3.984 0 1 1-7.969 0 3.984 3.984 0 1 1 7.97 0Zm0 0" transform="matrix(1 0 0 -1 35.339 37.895)"/></g><g clip-path="url(#bM)"><path style="fill:none;stroke-width:1.99255;stroke-linecap:butt;stroke-linejoin:miter;stroke:#000;stroke-opacity:1;stroke-miterlimit:10" d="M3.985 0a3.984 3.984 0 1 1-7.969 0A3.981 3.981 0 0 1 .001-3.984C2.2-3.984 3.985-2.203 3.985 0Zm0 0" transform="matrix(1 0 0 -1 -4.512 17.97)"/></g><g clip-path="url(#bN)"><path style="fill:none;stroke-width:1.99255;stroke-linecap:butt;stroke-linejoin:miter;stroke:#000;stroke-opacity:1;stroke-miterlimit:10" d="M3.985 0a3.984 3.984 0 1 1-7.969 0A3.981 3.981 0 0 1 .001-3.984C2.2-3.984 3.985-2.203 3.985 0Zm0 0" transform="matrix(1 0 0 -1 15.413 17.97)"/></g><g clip-path="url(#bO)"><path style="fill:none;stroke-width:1.99255;stroke-linecap:butt;stroke-linejoin:miter;stroke:#000;stroke-opacity:1;stroke-miterlimit:10" d="M3.985 0a3.984 3.984 0 1 1-7.969 0A3.981 3.981 0 0 1 .002-3.984c2.2 0 3.984 1.781 3.984 3.984Zm0 0" transform="matrix(1 0 0 -1 35.339 17.97)"/></g><g clip-path="url(#bP)"><path style="fill:none;stroke-width:1.99255;stroke-linecap:butt;stroke-linejoin:miter;stroke:#000;stroke-opacity:1;stroke-miterlimit:10" d="M3.985 0a3.984 3.984 0 1 1-7.969 0A3.981 3.981 0 0 1 .001-3.983c2.199 0 3.984 1.782 3.984 3.985Zm0 0" transform="matrix(1 0 0 -1 -4.512 -1.956)"/></g><g clip-path="url(#bQ)"><path style="fill:none;stroke-width:1.99255;stroke-linecap:butt;stroke-linejoin:miter;stroke:#000;stroke-opacity:1;stroke-miterlimit:10" d="M3.985 0a3.984 3.984 0 1 1-7.969 0A3.981 3.981 0 0 1 .001-3.983c2.199 0 3.984 1.782 3.984 3.985Zm0 0" transform="matrix(1 0 0 -1 15.413 -1.956)"/></g><g clip-path="url(#bR)"><path style="fill:none;stroke-width:1.99255;stroke-linecap:butt;stroke-linejoin:miter;stroke:#000;stroke-opacity:1;stroke-miterlimit:10" d="M3.985 0a3.984 3.984 0 1 1-7.969 0A3.981 3.981 0 0 1 .002-3.983c2.2 0 3.984 1.782 3.984 3.985Zm0 0" transform="matrix(1 0 0 -1 35.339 -1.956)"/></g><path style="fill:none;stroke-width:.3985;stroke-linecap:butt;stroke-linejoin:miter;stroke:#000;stroke-opacity:1;stroke-miterlimit:10" d="M-.001 70.868v56.692h42.52V70.868Zm0 0" transform="matrix(1 0 0 -1 1.005 128.74)"/><g clip-path="url(#bS)"><path style="fill:none;stroke-width:3.9851;stroke-linecap:butt;stroke-linejoin:miter;stroke:#000;stroke-opacity:1;stroke-miterlimit:10" d="M3.986 0C3.986 2.2 2.2 3.984 0 3.984A3.984 3.984 0 0 1-3.983 0a3.984 3.984 0 1 1 7.969 0Zm0 0" transform="matrix(1 0 0 -1 55.264 57.82)"/></g><g clip-path="url(#bT)"><path style="fill:none;stroke-width:3.9851;stroke-linecap:butt;stroke-linejoin:miter;stroke:#000;stroke-opacity:1;stroke-miterlimit:10" d="M3.986 0a3.986 3.986 0 0 1-7.973 0 3.987 3.987 0 0 1 7.973 0Zm0 0" transform="matrix(1 0 0 -1 75.19 57.82)"/></g><g clip-path="url(#bU)"><path style="fill:none;stroke-width:3.9851;stroke-linecap:butt;stroke-linejoin:miter;stroke:#000;stroke-opacity:1;stroke-miterlimit:10" d="M3.986 0a3.986 3.986 0 0 1-7.973 0 3.987 3.987 0 0 1 7.973 0Zm0 0" transform="matrix(1 0 0 -1 95.115 57.82)"/></g><g clip-path="url(#bV)"><path style="fill:none;stroke-width:3.9851;stroke-linecap:butt;stroke-linejoin:miter;stroke:#000;stroke-opacity:1;stroke-miterlimit:10" d="M3.986 0a3.984 3.984 0 1 1-7.969 0 3.984 3.984 0 1 1 7.969 0Zm0 0" transform="matrix(1 0 0 -1 55.264 37.895)"/></g><g clip-path="url(#bW)"><path style="fill:none;stroke-width:3.9851;stroke-linecap:butt;stroke-linejoin:miter;stroke:#000;stroke-opacity:1;stroke-miterlimit:10" d="M3.986 0a3.986 3.986 0 0 1-7.973 0 3.987 3.987 0 0 1 7.973 0Zm0 0" transform="matrix(1 0 0 -1 75.19 37.895)"/></g><g clip-path="url(#bX)"><path style="fill:none;stroke-width:3.9851;stroke-linecap:butt;stroke-linejoin:miter;stroke:#000;stroke-opacity:1;stroke-miterlimit:10" d="M3.986 0a3.986 3.986 0 0 1-7.973 0 3.987 3.987 0 0 1 7.973 0Zm0 0" transform="matrix(1 0 0 -1 95.115 37.895)"/></g><g clip-path="url(#bY)"><path style="fill:none;stroke-width:3.9851;stroke-linecap:butt;stroke-linejoin:miter;stroke:#000;stroke-opacity:1;stroke-miterlimit:10" d="M3.986 0a3.984 3.984 0 1 1-7.969 0A3.981 3.981 0 0 1 0-3.984c2.2 0 3.985 1.781 3.985 3.984Zm0 0" transform="matrix(1 0 0 -1 55.264 17.97)"/></g><g clip-path="url(#bZ)"><path style="fill:none;stroke-width:3.9851;stroke-linecap:butt;stroke-linejoin:miter;stroke:#000;stroke-opacity:1;stroke-miterlimit:10" d="M3.986 0a3.986 3.986 0 0 1-7.973 0A3.984 3.984 0 0 1 .001-3.984c2.2 0 3.985 1.781 3.985 3.984Zm0 0" transform="matrix(1 0 0 -1 75.19 17.97)"/></g><g clip-path="url(#ca)"><path style="fill:none;stroke-width:3.9851;stroke-linecap:butt;stroke-linejoin:miter;stroke:#000;stroke-opacity:1;stroke-miterlimit:10" d="M3.986 0a3.986 3.986 0 0 1-7.973 0A3.984 3.984 0 0 1 .002-3.984C2.2-3.984 3.986-2.203 3.986 0Zm0 0" transform="matrix(1 0 0 -1 95.115 17.97)"/></g><g clip-path="url(#cb)"><path style="fill:none;stroke-width:3.9851;stroke-linecap:butt;stroke-linejoin:miter;stroke:#000;stroke-opacity:1;stroke-miterlimit:10" d="M3.986 0a3.984 3.984 0 1 1-7.969 0A3.981 3.981 0 0 1 0-3.983c2.2 0 3.985 1.782 3.985 3.985Zm0 0" transform="matrix(1 0 0 -1 55.264 -1.956)"/></g><g clip-path="url(#cc)"><path style="fill:none;stroke-width:3.9851;stroke-linecap:butt;stroke-linejoin:miter;stroke:#000;stroke-opacity:1;stroke-miterlimit:10" d="M3.986 0a3.986 3.986 0 0 1-7.973 0A3.984 3.984 0 0 1 .001-3.983c2.2 0 3.985 1.782 3.985 3.985Zm0 0" transform="matrix(1 0 0 -1 75.19 -1.956)"/></g><g clip-path="url(#cd)"><path style="fill:none;stroke-width:3.9851;stroke-linecap:butt;stroke-linejoin:miter;stroke:#000;stroke-opacity:1;stroke-miterlimit:10" d="M3.986 0a3.986 3.986 0 0 1-7.973 0A3.984 3.984 0 0 1 .002-3.983c2.199 0 3.984 1.782 3.984 3.985Zm0 0" transform="matrix(1 0 0 -1 95.115 -1.956)"/></g><path style="fill:none;stroke-width:.3985;stroke-linecap:butt;stroke-linejoin:miter;stroke:#000;stroke-opacity:1;stroke-miterlimit:10" d="M56.694 70.868v56.692h42.52V70.868Zm0 0" transform="matrix(1 0 0 -1 1.005 128.74)"/></svg>