<svg xmlns="http://www.w3.org/2000/svg" xmlns:xlink="http://www.w3.org/1999/xlink" width="311.387" height="216.891" viewBox="0 0 233.54 162.668" version="1.2"><defs><clipPath id="a"><path d="M0 30h132v132.504H0Zm0 0"/></clipPath><clipPath id="n"><path d="M94 38h43v57H94Zm0 0"/></clipPath><clipPath id="o"><path d="M94.52 60.777a56.684 56.684 0 0 1 19.39 33.586c-2.46-13.96 6.938-23.172 19.211-30.261l-2.793-4.832c-12.273 7.085-24.95 10.617-35.808 1.507Zm43.457-5.922-7.649 4.415 2.793 4.832 7.645-4.415Zm11.414-15.96a31.904 31.904 0 0 0 10.906 18.89c-6.106-5.125-12.625-2.082-19.531 1.903l-2.79-4.833c6.903-3.984 12.797-8.113 11.415-15.96Zm0 0"/></clipPath><clipPath id="p"><path d="M123 38h38v57h-38Zm0 0"/></clipPath><clipPath id="q"><path d="M94.52 60.777a56.684 56.684 0 0 1 19.39 33.586c-2.46-13.96 6.938-23.172 19.211-30.261l-2.793-4.832c-12.273 7.085-24.95 10.617-35.808 1.507Zm43.457-5.922-7.649 4.415 2.793 4.832 7.645-4.415Zm11.414-15.96a31.904 31.904 0 0 0 10.906 18.89c-6.106-5.125-12.625-2.082-19.531 1.903l-2.79-4.833c6.903-3.984 12.797-8.113 11.415-15.96Zm0 0"/></clipPath><clipPath id="r"><path d="M94 38h67v57H94Zm0 0"/></clipPath><clipPath id="s"><path d="M94.52 60.777a56.684 56.684 0 0 1 19.39 33.586c-2.46-13.96 6.938-23.172 19.211-30.261l-2.793-4.832c-12.273 7.085-24.95 10.617-35.808 1.507Zm43.457-5.922-7.649 4.415 2.793 4.832 7.645-4.415Zm11.414-15.96a31.904 31.904 0 0 0 10.906 18.89c-6.106-5.125-12.625-2.082-19.531 1.903l-2.79-4.833c6.903-3.984 12.797-8.113 11.415-15.96Zm0 0"/></clipPath><clipPath id="t"><path d="m135.523 124.96 46.036-26.573L124.863.18 78.828 26.758Zm0 0"/></clipPath><clipPath id="v"><path d="M151 55h82.309v99H151Zm0 0"/></clipPath><clipPath id="w"><path d="M111 84h5v40h-5Zm0 0"/></clipPath><clipPath id="x"><path d="M111.355 84.816a56.697 56.697 0 0 1 0 38.782c4.848-13.32 17.59-16.602 31.766-16.602v-5.582c-14.176 0-26.918-3.281-31.766-16.598Zm31.766 22.18h8.856v-5.582h-8.856Zm26.727-13.7a31.872 31.872 0 0 0 0 21.817c-2.727-7.492-9.899-8.117-17.871-8.117v-5.582c7.972 0 15.144-.625 17.87-8.117Zm0 0"/></clipPath><clipPath id="y"><path d="M166 84h4v40h-4Zm0 0"/></clipPath><clipPath id="z"><path d="M111.355 84.816a56.697 56.697 0 0 1 0 38.782c4.848-13.32 17.59-16.602 31.766-16.602v-5.582c-14.176 0-26.918-3.281-31.766-16.598Zm31.766 22.18h8.856v-5.582h-8.856Zm26.727-13.7a31.872 31.872 0 0 0 0 21.817c-2.727-7.492-9.899-8.117-17.871-8.117v-5.582c7.972 0 15.144-.625 17.87-8.117Zm0 0"/></clipPath><clipPath id="A"><path d="M115 84h52.93v40H115Zm0 0"/></clipPath><clipPath id="B"><path d="M111.355 84.816a56.697 56.697 0 0 1 0 38.782c4.848-13.32 17.59-16.602 31.766-16.602v-5.582c-14.176 0-26.918-3.281-31.766-16.598Zm31.766 22.18h8.856v-5.582h-8.856Zm26.727-13.7a31.872 31.872 0 0 0 0 21.817c-2.727-7.492-9.899-8.117-17.871-8.117v-5.582c7.972 0 15.144-.625 17.87-8.117Zm0 0"/></clipPath><symbol overflow="visible" id="b"><path style="stroke:none" d="M9.984-1.094c0-.203-.093-.25-.25-.25-.234 0-.25.094-.25.25-.062.594-.437.844-.765.844-.766 0-.86-.797-.953-1.906-.063-.625-.157-1.516-1.438-1.906 1.61-.438 2-1.297 2-1.938 0-1.203-1.25-2.203-3.469-2.203H.453v.515H1.72v7.172H.453V0C.797-.031 2.047-.031 2.47-.031c.437 0 1.687 0 2.031.031v-.516H3.234v-3.39h1.422c.485 0 .86.14 1.125.453.36.406.36.672.36 1.469 0 .796 0 1.296.609 1.703.625.406 1.61.422 1.875.422 1.219 0 1.36-1.079 1.36-1.235ZM6.641-6c0 .656 0 1.703-2 1.703H3.234v-3.39h1.422c1.953 0 1.985.984 1.985 1.687Zm0 0"/></symbol><symbol overflow="visible" id="c"><path style="stroke:none" d="M6.328-2.625c0-1.61-1.094-2.797-2.969-2.797-1.953 0-2.984 1.25-2.984 2.797C.375-1.047 1.469.078 3.344.078c1.953 0 2.984-1.187 2.984-2.703Zm-1.422-.11c0 .985 0 2.376-1.547 2.376-1.546 0-1.546-1.391-1.546-2.375 0-.563 0-1.157.218-1.594.266-.484.797-.688 1.313-.688.687 0 1.11.313 1.312.657.25.421.25 1.046.25 1.625Zm0 0"/></symbol><symbol overflow="visible" id="d"><path style="stroke:none" d="M4.469-1.484v-.625h-.5v.609c0 .797-.36 1.14-.735 1.14-.718 0-.718-.796-.718-1.078v-3.359H4.25v-.516H2.516v-2.28h-.5c0 1.187-.579 2.374-1.766 2.405v.391h.969v3.328c0 1.266.984 1.547 1.843 1.547.876 0 1.407-.672 1.407-1.562Zm0 0"/></symbol><symbol overflow="visible" id="e"><path style="stroke:none" d="M5.594-1.406c0-.14-.125-.14-.25-.14-.188 0-.203.015-.266.155-.078.235-.406 1.032-1.5 1.032-1.687 0-1.687-1.813-1.687-2.36 0-.703.015-2.265 1.578-2.265.078 0 .781.03.781.078 0 0 0 .031-.031.047a.733.733 0 0 0-.188.515c0 .5.407.703.703.703.25 0 .704-.156.704-.718 0-.985-1.375-1.063-2.016-1.063-2.125 0-2.969 1.39-2.969 2.766 0 1.625 1.14 2.734 2.89 2.734 1.876 0 2.25-1.39 2.25-1.484Zm0 0"/></symbol><symbol overflow="visible" id="f"><path style="stroke:none" d="M7.172 0v-.516h-.828v-3.14c0-1.14-.485-1.719-1.797-1.719-.86 0-1.61.422-2.016 1.313h-.015v-1.313L.5-5.281v.515c.75 0 .828 0 .828.47v3.78H.5V0c.281-.031 1.14-.031 1.469-.031.343 0 1.203 0 1.484.031v-.516h-.828v-2.546c0-1.282.953-1.922 1.719-1.922.453 0 .703.28.703 1.187v3.281h-.828V0c.281-.031 1.14-.031 1.468-.031.344 0 1.204 0 1.485.031Zm0 0"/></symbol><symbol overflow="visible" id="g"><path style="stroke:none" d="M5.75-1.406c0-.172-.188-.172-.25-.172-.188 0-.203.031-.281.187-.313.782-1.094 1.032-1.672 1.032-1.735 0-1.735-1.61-1.735-2.282h3.594c.266 0 .344 0 .344-.296 0-.36-.078-1.266-.64-1.813-.5-.516-1.173-.672-1.86-.672-1.86 0-2.875 1.219-2.875 2.734C.375-1.016 1.609.079 3.406.079 5.22.078 5.75-1.188 5.75-1.406ZM4.656-2.984H1.813c.015-.5.03-.954.28-1.391a1.32 1.32 0 0 1 1.157-.64c1.281 0 1.39 1.437 1.406 2.03Zm0 0"/></symbol><symbol overflow="visible" id="h"><path style="stroke:none" d="M7-2.672c0-1.64-1.11-2.703-2.719-2.703-.703 0-1.312.234-1.797.625v-.625l-2.062.094v.515c.734 0 .828 0 .828.47v6.109H.422v.5c.266-.016 1.125-.016 1.469-.016.328 0 1.203 0 1.484.015v-.5h-.828V-.483c.297.25.828.562 1.547.562C5.719.078 7-.922 7-2.672Zm-1.438 0c0 1.735-.859 2.344-1.625 2.344-.5 0-1.015-.25-1.39-.813v-3.046a1.998 1.998 0 0 1 1.547-.766c.765 0 1.468.703 1.468 2.281Zm0 0"/></symbol><symbol overflow="visible" id="i"><path style="stroke:none" d="M4.406-1.047c0-.14-.125-.14-.234-.14-.172 0-.172.015-.25.171-.172.438-.578.688-1.11.688-1.265 0-1.265-1.297-1.265-1.703 0-.531 0-1.64 1.172-1.64.078 0 .562 0 .562.046l-.031.047a.602.602 0 0 0-.125.375c0 .36.281.578.594.578a.569.569 0 0 0 .578-.594c0-.844-1.25-.844-1.61-.844C.97-4.063.345-2.968.345-1.983c0 1.125.812 2.03 2.297 2.03.343 0 .78-.046 1.156-.28.515-.313.61-.782.61-.813Zm0 0"/></symbol><symbol overflow="visible" id="j"><path style="stroke:none" d="M5.656 0v-.438h-.61v-2.296c0-1.063-.655-1.297-1.437-1.297-.843 0-1.328.484-1.562.843v-3.03l-1.594.062v.437c.531 0 .61 0 .61.36v4.921h-.61V0l1.125-.031L2.718 0v-.438H2.11V-2.28c0-1 .829-1.39 1.36-1.39.344 0 .515.187.515.858v2.376h-.609V0l1.14-.031Zm0 0"/></symbol><symbol overflow="visible" id="k"><path style="stroke:none" d="M2.625 0v-.438h-.547V-4.03L.5-3.97v.438c.516 0 .578 0 .578.36v2.733h-.61V0c.595-.016.72-.031 1.095-.031.437 0 .546.015 1.062.031Zm-.453-5.422a.713.713 0 0 0-.703-.719.71.71 0 0 0-.703.704.7.7 0 0 0 .703.703.697.697 0 0 0 .703-.688Zm0 0"/></symbol><symbol overflow="visible" id="l"><path style="stroke:none" d="M2.688 0v-.438h-.61v-5.78l-1.61.062v.437c.532 0 .61 0 .61.36v4.921h-.61V0l1.095-.031Zm0 0"/></symbol><symbol overflow="visible" id="m"><path style="stroke:none" d="M5.516 0v-.438c-.532 0-.61 0-.61-.359v-5.422l-1.61.063v.437c.548 0 .61 0 .61.36v1.734a1.994 1.994 0 0 0-1.25-.406c-1.453 0-2.312.89-2.312 2.047 0 1.187.844 2.03 2.219 2.03.562 0 1-.202 1.296-.437v.438ZM3.859-.984a1.427 1.427 0 0 1-1.203.671c-1.11 0-1.11-1.062-1.11-1.656 0-.531 0-.906.235-1.234.235-.36.672-.469.985-.469.437 0 .812.188 1.093.547Zm0 0"/></symbol><linearGradient id="u" gradientUnits="userSpaceOnUse" x1="0" y1="0" x2="100.001" y2="0" gradientTransform="matrix(.46034 -.26576 -.56697 -.98206 135.525 124.963)"><stop offset="0" style="stop-color:#000;stop-opacity:1"/><stop offset=".004" style="stop-color:#000001;stop-opacity:1"/><stop offset=".008" style="stop-color:#010102;stop-opacity:1"/><stop offset=".012" style="stop-color:#010103;stop-opacity:1"/><stop offset=".016" style="stop-color:#020204;stop-opacity:1"/><stop offset=".02" style="stop-color:#020205;stop-opacity:1"/><stop offset=".023" style="stop-color:#030306;stop-opacity:1"/><stop offset=".027" style="stop-color:#030307;stop-opacity:1"/><stop offset=".031" style="stop-color:#040408;stop-opacity:1"/><stop offset=".035" style="stop-color:#040409;stop-opacity:1"/><stop offset=".039" style="stop-color:#05050a;stop-opacity:1"/><stop offset=".043" style="stop-color:#05050b;stop-opacity:1"/><stop offset=".047" style="stop-color:#06060c;stop-opacity:1"/><stop offset=".051" style="stop-color:#06060d;stop-opacity:1"/><stop offset=".055" style="stop-color:#07070e;stop-opacity:1"/><stop offset=".059" style="stop-color:#07070f;stop-opacity:1"/><stop offset=".063" style="stop-color:#080810;stop-opacity:1"/><stop offset=".066" style="stop-color:#080811;stop-opacity:1"/><stop offset=".07" style="stop-color:#090912;stop-opacity:1"/><stop offset=".074" style="stop-color:#090913;stop-opacity:1"/><stop offset=".078" style="stop-color:#0a0a14;stop-opacity:1"/><stop offset=".082" style="stop-color:#0a0a15;stop-opacity:1"/><stop offset=".086" style="stop-color:#0b0b16;stop-opacity:1"/><stop offset=".09" style="stop-color:#0b0b17;stop-opacity:1"/><stop offset=".094" style="stop-color:#0c0c18;stop-opacity:1"/><stop offset=".098" style="stop-color:#0c0c19;stop-opacity:1"/><stop offset=".102" style="stop-color:#0d0d1a;stop-opacity:1"/><stop offset=".105" style="stop-color:#0d0d1b;stop-opacity:1"/><stop offset=".109" style="stop-color:#0e0e1c;stop-opacity:1"/><stop offset=".113" style="stop-color:#0e0e1d;stop-opacity:1"/><stop offset=".117" style="stop-color:#0f0f1e;stop-opacity:1"/><stop offset=".121" style="stop-color:#0f0f1f;stop-opacity:1"/><stop offset=".125" style="stop-color:#101020;stop-opacity:1"/><stop offset=".129" style="stop-color:#101021;stop-opacity:1"/><stop offset=".133" style="stop-color:#112;stop-opacity:1"/><stop offset=".137" style="stop-color:#111123;stop-opacity:1"/><stop offset=".141" style="stop-color:#121224;stop-opacity:1"/><stop offset=".145" style="stop-color:#121225;stop-opacity:1"/><stop offset=".148" style="stop-color:#131326;stop-opacity:1"/><stop offset=".152" style="stop-color:#131327;stop-opacity:1"/><stop offset=".156" style="stop-color:#141428;stop-opacity:1"/><stop offset=".16" style="stop-color:#141429;stop-opacity:1"/><stop offset=".164" style="stop-color:#15152a;stop-opacity:1"/><stop offset=".168" style="stop-color:#15152b;stop-opacity:1"/><stop offset=".172" style="stop-color:#16162c;stop-opacity:1"/><stop offset=".176" style="stop-color:#16162d;stop-opacity:1"/><stop offset=".18" style="stop-color:#17172e;stop-opacity:1"/><stop offset=".184" style="stop-color:#17172f;stop-opacity:1"/><stop offset=".188" style="stop-color:#181830;stop-opacity:1"/><stop offset=".191" style="stop-color:#181831;stop-opacity:1"/><stop offset=".195" style="stop-color:#191932;stop-opacity:1"/><stop offset=".199" style="stop-color:#191933;stop-opacity:1"/><stop offset=".203" style="stop-color:#1a1a34;stop-opacity:1"/><stop offset=".207" style="stop-color:#1a1a35;stop-opacity:1"/><stop offset=".211" style="stop-color:#1b1b36;stop-opacity:1"/><stop offset=".215" style="stop-color:#1b1b37;stop-opacity:1"/><stop offset=".219" style="stop-color:#1c1c38;stop-opacity:1"/><stop offset=".223" style="stop-color:#1c1c39;stop-opacity:1"/><stop offset=".227" style="stop-color:#1d1d3a;stop-opacity:1"/><stop offset=".23" style="stop-color:#1d1d3b;stop-opacity:1"/><stop offset=".234" style="stop-color:#1e1e3c;stop-opacity:1"/><stop offset=".238" style="stop-color:#1e1e3d;stop-opacity:1"/><stop offset=".242" style="stop-color:#1f1f3e;stop-opacity:1"/><stop offset=".246" style="stop-color:#1f1f3f;stop-opacity:1"/><stop offset=".25" style="stop-color:#202040;stop-opacity:1"/><stop offset=".254" style="stop-color:#202041;stop-opacity:1"/><stop offset=".258" style="stop-color:#212142;stop-opacity:1"/><stop offset=".262" style="stop-color:#212143;stop-opacity:1"/><stop offset=".266" style="stop-color:#224;stop-opacity:1"/><stop offset=".27" style="stop-color:#222245;stop-opacity:1"/><stop offset=".273" style="stop-color:#232346;stop-opacity:1"/><stop offset=".277" style="stop-color:#232347;stop-opacity:1"/><stop offset=".281" style="stop-color:#242448;stop-opacity:1"/><stop offset=".285" style="stop-color:#242449;stop-opacity:1"/><stop offset=".289" style="stop-color:#25254a;stop-opacity:1"/><stop offset=".293" style="stop-color:#25254b;stop-opacity:1"/><stop offset=".297" style="stop-color:#26264c;stop-opacity:1"/><stop offset=".301" style="stop-color:#26264d;stop-opacity:1"/><stop offset=".305" style="stop-color:#27274e;stop-opacity:1"/><stop offset=".309" style="stop-color:#27274f;stop-opacity:1"/><stop offset=".313" style="stop-color:#282850;stop-opacity:1"/><stop offset=".316" style="stop-color:#282851;stop-opacity:1"/><stop offset=".32" style="stop-color:#292952;stop-opacity:1"/><stop offset=".324" style="stop-color:#292953;stop-opacity:1"/><stop offset=".328" style="stop-color:#2a2a54;stop-opacity:1"/><stop offset=".332" style="stop-color:#2a2a55;stop-opacity:1"/><stop offset=".336" style="stop-color:#2b2b56;stop-opacity:1"/><stop offset=".34" style="stop-color:#2b2b57;stop-opacity:1"/><stop offset=".344" style="stop-color:#2c2c58;stop-opacity:1"/><stop offset=".348" style="stop-color:#2c2c59;stop-opacity:1"/><stop offset=".352" style="stop-color:#2d2d5a;stop-opacity:1"/><stop offset=".355" style="stop-color:#2d2d5b;stop-opacity:1"/><stop offset=".359" style="stop-color:#2e2e5c;stop-opacity:1"/><stop offset=".363" style="stop-color:#2e2e5d;stop-opacity:1"/><stop offset=".367" style="stop-color:#2f2f5e;stop-opacity:1"/><stop offset=".371" style="stop-color:#2f2f5f;stop-opacity:1"/><stop offset=".375" style="stop-color:#303060;stop-opacity:1"/><stop offset=".379" style="stop-color:#303061;stop-opacity:1"/><stop offset=".383" style="stop-color:#313162;stop-opacity:1"/><stop offset=".387" style="stop-color:#313163;stop-opacity:1"/><stop offset=".391" style="stop-color:#323264;stop-opacity:1"/><stop offset=".395" style="stop-color:#323265;stop-opacity:1"/><stop offset=".398" style="stop-color:#336;stop-opacity:1"/><stop offset=".402" style="stop-color:#333367;stop-opacity:1"/><stop offset=".406" style="stop-color:#343468;stop-opacity:1"/><stop offset=".41" style="stop-color:#343469;stop-opacity:1"/><stop offset=".414" style="stop-color:#35356a;stop-opacity:1"/><stop offset=".418" style="stop-color:#35356b;stop-opacity:1"/><stop offset=".422" style="stop-color:#36366c;stop-opacity:1"/><stop offset=".426" style="stop-color:#36366d;stop-opacity:1"/><stop offset=".43" style="stop-color:#37376e;stop-opacity:1"/><stop offset=".434" style="stop-color:#37376f;stop-opacity:1"/><stop offset=".438" style="stop-color:#383870;stop-opacity:1"/><stop offset=".441" style="stop-color:#383871;stop-opacity:1"/><stop offset=".445" style="stop-color:#393972;stop-opacity:1"/><stop offset=".449" style="stop-color:#393973;stop-opacity:1"/><stop offset=".453" style="stop-color:#3a3a74;stop-opacity:1"/><stop offset=".457" style="stop-color:#3a3a75;stop-opacity:1"/><stop offset=".461" style="stop-color:#3b3b76;stop-opacity:1"/><stop offset=".465" style="stop-color:#3b3b77;stop-opacity:1"/><stop offset=".469" style="stop-color:#3c3c78;stop-opacity:1"/><stop offset=".473" style="stop-color:#3c3c79;stop-opacity:1"/><stop offset=".477" style="stop-color:#3d3d7a;stop-opacity:1"/><stop offset=".48" style="stop-color:#3d3d7b;stop-opacity:1"/><stop offset=".484" style="stop-color:#3e3e7c;stop-opacity:1"/><stop offset=".488" style="stop-color:#3e3e7d;stop-opacity:1"/><stop offset=".492" style="stop-color:#3f3f7e;stop-opacity:1"/><stop offset=".496" style="stop-color:#3f3f7f;stop-opacity:1"/><stop offset=".5" style="stop-color:#404080;stop-opacity:1"/><stop offset=".504" style="stop-color:#404080;stop-opacity:1"/><stop offset=".508" style="stop-color:#414181;stop-opacity:1"/><stop offset=".512" style="stop-color:#414182;stop-opacity:1"/><stop offset=".516" style="stop-color:#424283;stop-opacity:1"/><stop offset=".52" style="stop-color:#424284;stop-opacity:1"/><stop offset=".523" style="stop-color:#434385;stop-opacity:1"/><stop offset=".527" style="stop-color:#434386;stop-opacity:1"/><stop offset=".531" style="stop-color:#444487;stop-opacity:1"/><stop offset=".535" style="stop-color:#448;stop-opacity:1"/><stop offset=".539" style="stop-color:#454589;stop-opacity:1"/><stop offset=".543" style="stop-color:#45458a;stop-opacity:1"/><stop offset=".547" style="stop-color:#46468b;stop-opacity:1"/><stop offset=".551" style="stop-color:#46468c;stop-opacity:1"/><stop offset=".555" style="stop-color:#47478d;stop-opacity:1"/><stop offset=".559" style="stop-color:#47478e;stop-opacity:1"/><stop offset=".563" style="stop-color:#48488f;stop-opacity:1"/><stop offset=".566" style="stop-color:#484890;stop-opacity:1"/><stop offset=".57" style="stop-color:#494991;stop-opacity:1"/><stop offset=".574" style="stop-color:#494992;stop-opacity:1"/><stop offset=".578" style="stop-color:#4a4a93;stop-opacity:1"/><stop offset=".582" style="stop-color:#4a4a94;stop-opacity:1"/><stop offset=".586" style="stop-color:#4b4b95;stop-opacity:1"/><stop offset=".59" style="stop-color:#4b4b96;stop-opacity:1"/><stop offset=".594" style="stop-color:#4c4c97;stop-opacity:1"/><stop offset=".598" style="stop-color:#4c4c98;stop-opacity:1"/><stop offset=".602" style="stop-color:#4d4d99;stop-opacity:1"/><stop offset=".605" style="stop-color:#4d4d9a;stop-opacity:1"/><stop offset=".609" style="stop-color:#4e4e9b;stop-opacity:1"/><stop offset=".613" style="stop-color:#4e4e9c;stop-opacity:1"/><stop offset=".617" style="stop-color:#4f4f9d;stop-opacity:1"/><stop offset=".621" style="stop-color:#4f4f9e;stop-opacity:1"/><stop offset=".625" style="stop-color:#50509f;stop-opacity:1"/><stop offset=".629" style="stop-color:#5050a0;stop-opacity:1"/><stop offset=".633" style="stop-color:#5151a1;stop-opacity:1"/><stop offset=".637" style="stop-color:#5151a2;stop-opacity:1"/><stop offset=".641" style="stop-color:#5252a3;stop-opacity:1"/><stop offset=".645" style="stop-color:#5252a4;stop-opacity:1"/><stop offset=".648" style="stop-color:#5353a5;stop-opacity:1"/><stop offset=".652" style="stop-color:#5353a6;stop-opacity:1"/><stop offset=".656" style="stop-color:#5454a7;stop-opacity:1"/><stop offset=".66" style="stop-color:#5454a8;stop-opacity:1"/><stop offset=".664" style="stop-color:#5555a9;stop-opacity:1"/><stop offset=".668" style="stop-color:#55a;stop-opacity:1"/><stop offset=".672" style="stop-color:#5656ab;stop-opacity:1"/><stop offset=".676" style="stop-color:#5656ac;stop-opacity:1"/><stop offset=".68" style="stop-color:#5757ad;stop-opacity:1"/><stop offset=".684" style="stop-color:#5757ae;stop-opacity:1"/><stop offset=".688" style="stop-color:#5858af;stop-opacity:1"/><stop offset=".691" style="stop-color:#5858b0;stop-opacity:1"/><stop offset=".695" style="stop-color:#5959b1;stop-opacity:1"/><stop offset=".699" style="stop-color:#5959b2;stop-opacity:1"/><stop offset=".703" style="stop-color:#5a5ab3;stop-opacity:1"/><stop offset=".707" style="stop-color:#5a5ab4;stop-opacity:1"/><stop offset=".711" style="stop-color:#5b5bb5;stop-opacity:1"/><stop offset=".715" style="stop-color:#5b5bb6;stop-opacity:1"/><stop offset=".719" style="stop-color:#5c5cb7;stop-opacity:1"/><stop offset=".723" style="stop-color:#5c5cb8;stop-opacity:1"/><stop offset=".727" style="stop-color:#5d5db9;stop-opacity:1"/><stop offset=".73" style="stop-color:#5d5dba;stop-opacity:1"/><stop offset=".734" style="stop-color:#5e5ebb;stop-opacity:1"/><stop offset=".738" style="stop-color:#5e5ebc;stop-opacity:1"/><stop offset=".742" style="stop-color:#5f5fbd;stop-opacity:1"/><stop offset=".746" style="stop-color:#5f5fbe;stop-opacity:1"/><stop offset=".75" style="stop-color:#6060bf;stop-opacity:1"/><stop offset=".754" style="stop-color:#6060c0;stop-opacity:1"/><stop offset=".758" style="stop-color:#6161c1;stop-opacity:1"/><stop offset=".762" style="stop-color:#6161c2;stop-opacity:1"/><stop offset=".766" style="stop-color:#6262c3;stop-opacity:1"/><stop offset=".77" style="stop-color:#6262c4;stop-opacity:1"/><stop offset=".773" style="stop-color:#6363c5;stop-opacity:1"/><stop offset=".777" style="stop-color:#6363c6;stop-opacity:1"/><stop offset=".781" style="stop-color:#6464c7;stop-opacity:1"/><stop offset=".785" style="stop-color:#6464c8;stop-opacity:1"/><stop offset=".789" style="stop-color:#6565c9;stop-opacity:1"/><stop offset=".793" style="stop-color:#6565ca;stop-opacity:1"/><stop offset=".797" style="stop-color:#6666cb;stop-opacity:1"/><stop offset=".801" style="stop-color:#66c;stop-opacity:1"/><stop offset=".805" style="stop-color:#6767cd;stop-opacity:1"/><stop offset=".809" style="stop-color:#6767ce;stop-opacity:1"/><stop offset=".813" style="stop-color:#6868cf;stop-opacity:1"/><stop offset=".816" style="stop-color:#6868d0;stop-opacity:1"/><stop offset=".82" style="stop-color:#6969d1;stop-opacity:1"/><stop offset=".824" style="stop-color:#6969d2;stop-opacity:1"/><stop offset=".828" style="stop-color:#6a6ad3;stop-opacity:1"/><stop offset=".832" style="stop-color:#6a6ad4;stop-opacity:1"/><stop offset=".836" style="stop-color:#6b6bd5;stop-opacity:1"/><stop offset=".84" style="stop-color:#6b6bd6;stop-opacity:1"/><stop offset=".844" style="stop-color:#6c6cd7;stop-opacity:1"/><stop offset=".848" style="stop-color:#6c6cd8;stop-opacity:1"/><stop offset=".852" style="stop-color:#6d6dd9;stop-opacity:1"/><stop offset=".855" style="stop-color:#6d6dda;stop-opacity:1"/><stop offset=".859" style="stop-color:#6e6edb;stop-opacity:1"/><stop offset=".863" style="stop-color:#6e6edc;stop-opacity:1"/><stop offset=".867" style="stop-color:#6f6fdd;stop-opacity:1"/><stop offset=".871" style="stop-color:#6f6fde;stop-opacity:1"/><stop offset=".875" style="stop-color:#7070df;stop-opacity:1"/><stop offset=".879" style="stop-color:#7070e0;stop-opacity:1"/><stop offset=".883" style="stop-color:#7171e1;stop-opacity:1"/><stop offset=".887" style="stop-color:#7171e2;stop-opacity:1"/><stop offset=".891" style="stop-color:#7272e3;stop-opacity:1"/><stop offset=".895" style="stop-color:#7272e4;stop-opacity:1"/><stop offset=".898" style="stop-color:#7373e5;stop-opacity:1"/><stop offset=".902" style="stop-color:#7373e6;stop-opacity:1"/><stop offset=".906" style="stop-color:#7474e7;stop-opacity:1"/><stop offset=".91" style="stop-color:#7474e8;stop-opacity:1"/><stop offset=".914" style="stop-color:#7575e9;stop-opacity:1"/><stop offset=".918" style="stop-color:#7575ea;stop-opacity:1"/><stop offset=".922" style="stop-color:#7676eb;stop-opacity:1"/><stop offset=".926" style="stop-color:#7676ec;stop-opacity:1"/><stop offset=".93" style="stop-color:#7777ed;stop-opacity:1"/><stop offset=".934" style="stop-color:#77e;stop-opacity:1"/><stop offset=".938" style="stop-color:#7878ef;stop-opacity:1"/><stop offset=".941" style="stop-color:#7878f0;stop-opacity:1"/><stop offset=".945" style="stop-color:#7979f1;stop-opacity:1"/><stop offset=".949" style="stop-color:#7979f2;stop-opacity:1"/><stop offset=".953" style="stop-color:#7a7af3;stop-opacity:1"/><stop offset=".957" style="stop-color:#7a7af4;stop-opacity:1"/><stop offset=".961" style="stop-color:#7b7bf5;stop-opacity:1"/><stop offset=".965" style="stop-color:#7b7bf6;stop-opacity:1"/><stop offset=".969" style="stop-color:#7c7cf7;stop-opacity:1"/><stop offset=".973" style="stop-color:#7c7cf8;stop-opacity:1"/><stop offset=".977" style="stop-color:#7d7df9;stop-opacity:1"/><stop offset=".98" style="stop-color:#7d7dfa;stop-opacity:1"/><stop offset=".984" style="stop-color:#7e7efb;stop-opacity:1"/><stop offset=".988" style="stop-color:#7e7efc;stop-opacity:1"/><stop offset=".992" style="stop-color:#7f7ffd;stop-opacity:1"/><stop offset=".996" style="stop-color:#7f7ffe;stop-opacity:1"/><stop offset="1" style="stop-color:#8080ff;stop-opacity:1"/></linearGradient><linearGradient id="C" gradientUnits="userSpaceOnUse" x1="0" y1="0" x2="100" y2="0" gradientTransform="matrix(.53156 0 0 -1.134 114.773 160.906)"><stop offset="0" style="stop-color:#000;stop-opacity:1"/><stop offset=".004" style="stop-color:#000001;stop-opacity:1"/><stop offset=".008" style="stop-color:#010102;stop-opacity:1"/><stop offset=".012" style="stop-color:#010103;stop-opacity:1"/><stop offset=".016" style="stop-color:#020204;stop-opacity:1"/><stop offset=".02" style="stop-color:#020205;stop-opacity:1"/><stop offset=".023" style="stop-color:#030306;stop-opacity:1"/><stop offset=".027" style="stop-color:#030307;stop-opacity:1"/><stop offset=".031" style="stop-color:#040408;stop-opacity:1"/><stop offset=".035" style="stop-color:#040409;stop-opacity:1"/><stop offset=".039" style="stop-color:#05050a;stop-opacity:1"/><stop offset=".043" style="stop-color:#05050b;stop-opacity:1"/><stop offset=".047" style="stop-color:#06060c;stop-opacity:1"/><stop offset=".051" style="stop-color:#06060d;stop-opacity:1"/><stop offset=".055" style="stop-color:#07070e;stop-opacity:1"/><stop offset=".059" style="stop-color:#07070f;stop-opacity:1"/><stop offset=".063" style="stop-color:#080810;stop-opacity:1"/><stop offset=".066" style="stop-color:#080811;stop-opacity:1"/><stop offset=".07" style="stop-color:#090912;stop-opacity:1"/><stop offset=".074" style="stop-color:#090913;stop-opacity:1"/><stop offset=".078" style="stop-color:#0a0a14;stop-opacity:1"/><stop offset=".082" style="stop-color:#0a0a15;stop-opacity:1"/><stop offset=".086" style="stop-color:#0b0b16;stop-opacity:1"/><stop offset=".09" style="stop-color:#0b0b17;stop-opacity:1"/><stop offset=".094" style="stop-color:#0c0c18;stop-opacity:1"/><stop offset=".098" style="stop-color:#0c0c19;stop-opacity:1"/><stop offset=".102" style="stop-color:#0d0d1a;stop-opacity:1"/><stop offset=".105" style="stop-color:#0d0d1b;stop-opacity:1"/><stop offset=".109" style="stop-color:#0e0e1c;stop-opacity:1"/><stop offset=".113" style="stop-color:#0e0e1d;stop-opacity:1"/><stop offset=".117" style="stop-color:#0f0f1e;stop-opacity:1"/><stop offset=".121" style="stop-color:#0f0f1f;stop-opacity:1"/><stop offset=".125" style="stop-color:#101020;stop-opacity:1"/><stop offset=".129" style="stop-color:#101021;stop-opacity:1"/><stop offset=".133" style="stop-color:#112;stop-opacity:1"/><stop offset=".137" style="stop-color:#111123;stop-opacity:1"/><stop offset=".141" style="stop-color:#121224;stop-opacity:1"/><stop offset=".145" style="stop-color:#121225;stop-opacity:1"/><stop offset=".148" style="stop-color:#131326;stop-opacity:1"/><stop offset=".152" style="stop-color:#131327;stop-opacity:1"/><stop offset=".156" style="stop-color:#141428;stop-opacity:1"/><stop offset=".16" style="stop-color:#141429;stop-opacity:1"/><stop offset=".164" style="stop-color:#15152a;stop-opacity:1"/><stop offset=".168" style="stop-color:#15152b;stop-opacity:1"/><stop offset=".172" style="stop-color:#16162c;stop-opacity:1"/><stop offset=".176" style="stop-color:#16162d;stop-opacity:1"/><stop offset=".18" style="stop-color:#17172e;stop-opacity:1"/><stop offset=".184" style="stop-color:#17172f;stop-opacity:1"/><stop offset=".188" style="stop-color:#181830;stop-opacity:1"/><stop offset=".191" style="stop-color:#181831;stop-opacity:1"/><stop offset=".195" style="stop-color:#191932;stop-opacity:1"/><stop offset=".199" style="stop-color:#191933;stop-opacity:1"/><stop offset=".203" style="stop-color:#1a1a34;stop-opacity:1"/><stop offset=".207" style="stop-color:#1a1a35;stop-opacity:1"/><stop offset=".211" style="stop-color:#1b1b36;stop-opacity:1"/><stop offset=".215" style="stop-color:#1b1b37;stop-opacity:1"/><stop offset=".219" style="stop-color:#1c1c38;stop-opacity:1"/><stop offset=".223" style="stop-color:#1c1c39;stop-opacity:1"/><stop offset=".227" style="stop-color:#1d1d3a;stop-opacity:1"/><stop offset=".23" style="stop-color:#1d1d3b;stop-opacity:1"/><stop offset=".234" style="stop-color:#1e1e3c;stop-opacity:1"/><stop offset=".238" style="stop-color:#1e1e3d;stop-opacity:1"/><stop offset=".242" style="stop-color:#1f1f3e;stop-opacity:1"/><stop offset=".246" style="stop-color:#1f1f3f;stop-opacity:1"/><stop offset=".25" style="stop-color:#202040;stop-opacity:1"/><stop offset=".254" style="stop-color:#202041;stop-opacity:1"/><stop offset=".258" style="stop-color:#212142;stop-opacity:1"/><stop offset=".262" style="stop-color:#212143;stop-opacity:1"/><stop offset=".266" style="stop-color:#224;stop-opacity:1"/><stop offset=".27" style="stop-color:#222245;stop-opacity:1"/><stop offset=".273" style="stop-color:#232346;stop-opacity:1"/><stop offset=".277" style="stop-color:#232347;stop-opacity:1"/><stop offset=".281" style="stop-color:#242448;stop-opacity:1"/><stop offset=".285" style="stop-color:#242449;stop-opacity:1"/><stop offset=".289" style="stop-color:#25254a;stop-opacity:1"/><stop offset=".293" style="stop-color:#25254b;stop-opacity:1"/><stop offset=".297" style="stop-color:#26264c;stop-opacity:1"/><stop offset=".301" style="stop-color:#26264d;stop-opacity:1"/><stop offset=".305" style="stop-color:#27274e;stop-opacity:1"/><stop offset=".309" style="stop-color:#27274f;stop-opacity:1"/><stop offset=".313" style="stop-color:#282850;stop-opacity:1"/><stop offset=".316" style="stop-color:#282851;stop-opacity:1"/><stop offset=".32" style="stop-color:#292952;stop-opacity:1"/><stop offset=".324" style="stop-color:#292953;stop-opacity:1"/><stop offset=".328" style="stop-color:#2a2a54;stop-opacity:1"/><stop offset=".332" style="stop-color:#2a2a55;stop-opacity:1"/><stop offset=".336" style="stop-color:#2b2b56;stop-opacity:1"/><stop offset=".34" style="stop-color:#2b2b57;stop-opacity:1"/><stop offset=".344" style="stop-color:#2c2c58;stop-opacity:1"/><stop offset=".348" style="stop-color:#2c2c59;stop-opacity:1"/><stop offset=".352" style="stop-color:#2d2d5a;stop-opacity:1"/><stop offset=".355" style="stop-color:#2d2d5b;stop-opacity:1"/><stop offset=".359" style="stop-color:#2e2e5c;stop-opacity:1"/><stop offset=".363" style="stop-color:#2e2e5d;stop-opacity:1"/><stop offset=".367" style="stop-color:#2f2f5e;stop-opacity:1"/><stop offset=".371" style="stop-color:#2f2f5f;stop-opacity:1"/><stop offset=".375" style="stop-color:#303060;stop-opacity:1"/><stop offset=".379" style="stop-color:#303061;stop-opacity:1"/><stop offset=".383" style="stop-color:#313162;stop-opacity:1"/><stop offset=".387" style="stop-color:#313163;stop-opacity:1"/><stop offset=".391" style="stop-color:#323264;stop-opacity:1"/><stop offset=".395" style="stop-color:#323265;stop-opacity:1"/><stop offset=".398" style="stop-color:#336;stop-opacity:1"/><stop offset=".402" style="stop-color:#333367;stop-opacity:1"/><stop offset=".406" style="stop-color:#343468;stop-opacity:1"/><stop offset=".41" style="stop-color:#343469;stop-opacity:1"/><stop offset=".414" style="stop-color:#35356a;stop-opacity:1"/><stop offset=".418" style="stop-color:#35356b;stop-opacity:1"/><stop offset=".422" style="stop-color:#36366c;stop-opacity:1"/><stop offset=".426" style="stop-color:#36366d;stop-opacity:1"/><stop offset=".43" style="stop-color:#37376e;stop-opacity:1"/><stop offset=".434" style="stop-color:#37376f;stop-opacity:1"/><stop offset=".438" style="stop-color:#383870;stop-opacity:1"/><stop offset=".441" style="stop-color:#383871;stop-opacity:1"/><stop offset=".445" style="stop-color:#393972;stop-opacity:1"/><stop offset=".449" style="stop-color:#393973;stop-opacity:1"/><stop offset=".453" style="stop-color:#3a3a74;stop-opacity:1"/><stop offset=".457" style="stop-color:#3a3a75;stop-opacity:1"/><stop offset=".461" style="stop-color:#3b3b76;stop-opacity:1"/><stop offset=".465" style="stop-color:#3b3b77;stop-opacity:1"/><stop offset=".469" style="stop-color:#3c3c78;stop-opacity:1"/><stop offset=".473" style="stop-color:#3c3c79;stop-opacity:1"/><stop offset=".477" style="stop-color:#3d3d7a;stop-opacity:1"/><stop offset=".48" style="stop-color:#3d3d7b;stop-opacity:1"/><stop offset=".484" style="stop-color:#3e3e7c;stop-opacity:1"/><stop offset=".488" style="stop-color:#3e3e7d;stop-opacity:1"/><stop offset=".492" style="stop-color:#3f3f7e;stop-opacity:1"/><stop offset=".496" style="stop-color:#3f3f7f;stop-opacity:1"/><stop offset=".5" style="stop-color:#40407f;stop-opacity:1"/><stop offset=".504" style="stop-color:#404080;stop-opacity:1"/><stop offset=".508" style="stop-color:#414181;stop-opacity:1"/><stop offset=".512" style="stop-color:#414182;stop-opacity:1"/><stop offset=".516" style="stop-color:#424283;stop-opacity:1"/><stop offset=".52" style="stop-color:#424284;stop-opacity:1"/><stop offset=".523" style="stop-color:#434385;stop-opacity:1"/><stop offset=".527" style="stop-color:#434386;stop-opacity:1"/><stop offset=".531" style="stop-color:#444487;stop-opacity:1"/><stop offset=".535" style="stop-color:#448;stop-opacity:1"/><stop offset=".539" style="stop-color:#454589;stop-opacity:1"/><stop offset=".543" style="stop-color:#45458a;stop-opacity:1"/><stop offset=".547" style="stop-color:#46468b;stop-opacity:1"/><stop offset=".551" style="stop-color:#46468c;stop-opacity:1"/><stop offset=".555" style="stop-color:#47478d;stop-opacity:1"/><stop offset=".559" style="stop-color:#47478e;stop-opacity:1"/><stop offset=".563" style="stop-color:#48488f;stop-opacity:1"/><stop offset=".566" style="stop-color:#484890;stop-opacity:1"/><stop offset=".57" style="stop-color:#494991;stop-opacity:1"/><stop offset=".574" style="stop-color:#494992;stop-opacity:1"/><stop offset=".578" style="stop-color:#4a4a93;stop-opacity:1"/><stop offset=".582" style="stop-color:#4a4a94;stop-opacity:1"/><stop offset=".586" style="stop-color:#4b4b95;stop-opacity:1"/><stop offset=".59" style="stop-color:#4b4b96;stop-opacity:1"/><stop offset=".594" style="stop-color:#4c4c97;stop-opacity:1"/><stop offset=".598" style="stop-color:#4c4c98;stop-opacity:1"/><stop offset=".602" style="stop-color:#4d4d99;stop-opacity:1"/><stop offset=".605" style="stop-color:#4d4d9a;stop-opacity:1"/><stop offset=".609" style="stop-color:#4e4e9b;stop-opacity:1"/><stop offset=".613" style="stop-color:#4e4e9c;stop-opacity:1"/><stop offset=".617" style="stop-color:#4f4f9d;stop-opacity:1"/><stop offset=".621" style="stop-color:#4f4f9e;stop-opacity:1"/><stop offset=".625" style="stop-color:#50509f;stop-opacity:1"/><stop offset=".629" style="stop-color:#5050a0;stop-opacity:1"/><stop offset=".633" style="stop-color:#5151a1;stop-opacity:1"/><stop offset=".637" style="stop-color:#5151a2;stop-opacity:1"/><stop offset=".641" style="stop-color:#5252a3;stop-opacity:1"/><stop offset=".645" style="stop-color:#5252a4;stop-opacity:1"/><stop offset=".648" style="stop-color:#5353a5;stop-opacity:1"/><stop offset=".652" style="stop-color:#5353a6;stop-opacity:1"/><stop offset=".656" style="stop-color:#5454a7;stop-opacity:1"/><stop offset=".66" style="stop-color:#5454a8;stop-opacity:1"/><stop offset=".664" style="stop-color:#5555a9;stop-opacity:1"/><stop offset=".668" style="stop-color:#55a;stop-opacity:1"/><stop offset=".672" style="stop-color:#5656ab;stop-opacity:1"/><stop offset=".676" style="stop-color:#5656ac;stop-opacity:1"/><stop offset=".68" style="stop-color:#5757ad;stop-opacity:1"/><stop offset=".684" style="stop-color:#5757ae;stop-opacity:1"/><stop offset=".688" style="stop-color:#5858af;stop-opacity:1"/><stop offset=".691" style="stop-color:#5858b0;stop-opacity:1"/><stop offset=".695" style="stop-color:#5959b1;stop-opacity:1"/><stop offset=".699" style="stop-color:#5959b2;stop-opacity:1"/><stop offset=".703" style="stop-color:#5a5ab3;stop-opacity:1"/><stop offset=".707" style="stop-color:#5a5ab4;stop-opacity:1"/><stop offset=".711" style="stop-color:#5b5bb5;stop-opacity:1"/><stop offset=".715" style="stop-color:#5b5bb6;stop-opacity:1"/><stop offset=".719" style="stop-color:#5c5cb7;stop-opacity:1"/><stop offset=".723" style="stop-color:#5c5cb8;stop-opacity:1"/><stop offset=".727" style="stop-color:#5d5db9;stop-opacity:1"/><stop offset=".73" style="stop-color:#5d5dba;stop-opacity:1"/><stop offset=".734" style="stop-color:#5e5ebb;stop-opacity:1"/><stop offset=".738" style="stop-color:#5e5ebc;stop-opacity:1"/><stop offset=".742" style="stop-color:#5f5fbd;stop-opacity:1"/><stop offset=".746" style="stop-color:#5f5fbe;stop-opacity:1"/><stop offset=".75" style="stop-color:#6060bf;stop-opacity:1"/><stop offset=".754" style="stop-color:#6060c0;stop-opacity:1"/><stop offset=".758" style="stop-color:#6161c1;stop-opacity:1"/><stop offset=".762" style="stop-color:#6161c2;stop-opacity:1"/><stop offset=".766" style="stop-color:#6262c3;stop-opacity:1"/><stop offset=".77" style="stop-color:#6262c4;stop-opacity:1"/><stop offset=".773" style="stop-color:#6363c5;stop-opacity:1"/><stop offset=".777" style="stop-color:#6363c6;stop-opacity:1"/><stop offset=".781" style="stop-color:#6464c7;stop-opacity:1"/><stop offset=".785" style="stop-color:#6464c8;stop-opacity:1"/><stop offset=".789" style="stop-color:#6565c9;stop-opacity:1"/><stop offset=".793" style="stop-color:#6565ca;stop-opacity:1"/><stop offset=".797" style="stop-color:#6666cb;stop-opacity:1"/><stop offset=".801" style="stop-color:#66c;stop-opacity:1"/><stop offset=".805" style="stop-color:#6767cd;stop-opacity:1"/><stop offset=".809" style="stop-color:#6767ce;stop-opacity:1"/><stop offset=".813" style="stop-color:#6868cf;stop-opacity:1"/><stop offset=".816" style="stop-color:#6868d0;stop-opacity:1"/><stop offset=".82" style="stop-color:#6969d1;stop-opacity:1"/><stop offset=".824" style="stop-color:#6969d2;stop-opacity:1"/><stop offset=".828" style="stop-color:#6a6ad3;stop-opacity:1"/><stop offset=".832" style="stop-color:#6a6ad4;stop-opacity:1"/><stop offset=".836" style="stop-color:#6b6bd5;stop-opacity:1"/><stop offset=".84" style="stop-color:#6b6bd6;stop-opacity:1"/><stop offset=".844" style="stop-color:#6c6cd7;stop-opacity:1"/><stop offset=".848" style="stop-color:#6c6cd8;stop-opacity:1"/><stop offset=".852" style="stop-color:#6d6dd9;stop-opacity:1"/><stop offset=".855" style="stop-color:#6d6dda;stop-opacity:1"/><stop offset=".859" style="stop-color:#6e6edb;stop-opacity:1"/><stop offset=".863" style="stop-color:#6e6edc;stop-opacity:1"/><stop offset=".867" style="stop-color:#6f6fdd;stop-opacity:1"/><stop offset=".871" style="stop-color:#6f6fde;stop-opacity:1"/><stop offset=".875" style="stop-color:#7070df;stop-opacity:1"/><stop offset=".879" style="stop-color:#7070e0;stop-opacity:1"/><stop offset=".883" style="stop-color:#7171e1;stop-opacity:1"/><stop offset=".887" style="stop-color:#7171e2;stop-opacity:1"/><stop offset=".891" style="stop-color:#7272e3;stop-opacity:1"/><stop offset=".895" style="stop-color:#7272e4;stop-opacity:1"/><stop offset=".898" style="stop-color:#7373e5;stop-opacity:1"/><stop offset=".902" style="stop-color:#7373e6;stop-opacity:1"/><stop offset=".906" style="stop-color:#7474e7;stop-opacity:1"/><stop offset=".91" style="stop-color:#7474e8;stop-opacity:1"/><stop offset=".914" style="stop-color:#7575e9;stop-opacity:1"/><stop offset=".918" style="stop-color:#7575ea;stop-opacity:1"/><stop offset=".922" style="stop-color:#7676eb;stop-opacity:1"/><stop offset=".926" style="stop-color:#7676ec;stop-opacity:1"/><stop offset=".93" style="stop-color:#7777ed;stop-opacity:1"/><stop offset=".934" style="stop-color:#77e;stop-opacity:1"/><stop offset=".938" style="stop-color:#7878ef;stop-opacity:1"/><stop offset=".941" style="stop-color:#7878f0;stop-opacity:1"/><stop offset=".945" style="stop-color:#7979f1;stop-opacity:1"/><stop offset=".949" style="stop-color:#7979f2;stop-opacity:1"/><stop offset=".953" style="stop-color:#7a7af3;stop-opacity:1"/><stop offset=".957" style="stop-color:#7a7af4;stop-opacity:1"/><stop offset=".961" style="stop-color:#7b7bf5;stop-opacity:1"/><stop offset=".965" style="stop-color:#7b7bf6;stop-opacity:1"/><stop offset=".969" style="stop-color:#7c7cf7;stop-opacity:1"/><stop offset=".973" style="stop-color:#7c7cf8;stop-opacity:1"/><stop offset=".977" style="stop-color:#7d7df9;stop-opacity:1"/><stop offset=".98" style="stop-color:#7d7dfa;stop-opacity:1"/><stop offset=".984" style="stop-color:#7e7efb;stop-opacity:1"/><stop offset=".988" style="stop-color:#7e7efc;stop-opacity:1"/><stop offset=".992" style="stop-color:#7f7ffd;stop-opacity:1"/><stop offset=".996" style="stop-color:#7f7ffe;stop-opacity:1"/><stop offset="1" style="stop-color:#7f7fff;stop-opacity:1"/></linearGradient></defs><path style="stroke:none;fill-rule:nonzero;fill:#000;fill-opacity:1" d="M114.773 104.207c0-31.312-25.382-56.695-56.695-56.695-31.308 0-56.691 25.383-56.691 56.695 0 31.309 25.383 56.691 56.691 56.691 31.313 0 56.695-25.382 56.695-56.691Zm0 0"/><g clip-path="url(#a)"><path style="fill:none;stroke-width:1.19553;stroke-linecap:butt;stroke-linejoin:miter;stroke:#000;stroke-opacity:1;stroke-miterlimit:10" d="M56.694-.001c0 31.312-25.382 56.695-56.695 56.695-31.308 0-56.691-25.383-56.691-56.695 0-31.309 25.383-56.691 56.691-56.691 31.313 0 56.695 25.382 56.695 56.691Zm0 0" transform="matrix(1 0 0 -1 58.079 104.206)"/></g><g style="fill:#fff;fill-opacity:1"><use xlink:href="#b" x="19.037" y="107.147"/><use xlink:href="#c" x="29.067" y="107.147"/></g><g style="fill:#fff;fill-opacity:1"><use xlink:href="#c" x="36.169" y="107.147"/><use xlink:href="#d" x="42.9" y="107.147"/></g><g style="fill:#fff;fill-opacity:1"><use xlink:href="#e" x="52.117" y="107.147"/><use xlink:href="#c" x="58.095" y="107.147"/><use xlink:href="#f" x="64.825" y="107.147"/><use xlink:href="#e" x="72.297" y="107.147"/><use xlink:href="#g" x="78.275" y="107.147"/><use xlink:href="#h" x="84.408" y="107.147"/><use xlink:href="#d" x="91.88" y="107.147"/></g><path style="fill-rule:nonzero;fill:#8080ff;fill-opacity:1;stroke-width:1.19553;stroke-linecap:butt;stroke-linejoin:miter;stroke:#8080ff;stroke-opacity:1;stroke-miterlimit:10" d="M154.636 70.866c0 17.613-14.278 31.89-31.89 31.89-17.614 0-31.891-14.277-31.891-31.89s14.277-31.89 31.89-31.89 31.89 14.277 31.89 31.89Zm0 0" transform="matrix(1 0 0 -1 58.079 104.206)"/><use xlink:href="#i" x="169.772" y="36.424" style="fill:#fff;fill-opacity:1"/><g style="fill:#fff;fill-opacity:1"><use xlink:href="#j" x="174.192" y="36.424"/><use xlink:href="#k" x="180.083" y="36.424"/><use xlink:href="#l" x="183.033" y="36.424"/><use xlink:href="#m" x="185.983" y="36.424"/></g><g clip-path="url(#n)"><g clip-path="url(#o)"><path style="stroke:none;fill-rule:nonzero;fill:#000;fill-opacity:1" d="m79.691 26.258-49.96 28.844 56.699 98.207 49.957-28.844Zm0 0"/></g></g><g clip-path="url(#p)"><g clip-path="url(#q)"><path style="stroke:none;fill-rule:nonzero;fill:#8080ff;fill-opacity:1" d="m123.996.68 28.477-16.442 56.699 98.207-28.48 16.442Zm0 0"/></g></g><g clip-path="url(#r)"><g clip-path="url(#s)"><g clip-path="url(#t)"><path style="stroke:none;fill-rule:nonzero;fill:url(#u)" d="M110.965 122.844 70.5 52.758l73.355-42.348 40.461 70.086Zm0 0"/></g></g></g><path style="stroke:none;fill-rule:nonzero;fill:#8080ff;fill-opacity:1" d="M231.703 104.207c0-17.613-14.277-31.89-31.89-31.89-17.614 0-31.891 14.277-31.891 31.89s14.277 31.89 31.89 31.89c17.614 0 31.891-14.277 31.891-31.89Zm0 0"/><g clip-path="url(#v)"><path style="fill:none;stroke-width:1.19553;stroke-linecap:butt;stroke-linejoin:miter;stroke:#8080ff;stroke-opacity:1;stroke-miterlimit:10" d="M173.624-.001c0 17.613-14.277 31.89-31.89 31.89-17.614 0-31.891-14.277-31.891-31.89s14.277-31.89 31.89-31.89c17.614 0 31.891 14.277 31.891 31.89Zm0 0" transform="matrix(1 0 0 -1 58.079 104.206)"/></g><use xlink:href="#i" x="188.76" y="107.29" style="fill:#fff;fill-opacity:1"/><g style="fill:#fff;fill-opacity:1"><use xlink:href="#j" x="193.18" y="107.29"/><use xlink:href="#k" x="199.071" y="107.29"/><use xlink:href="#l" x="202.021" y="107.29"/><use xlink:href="#m" x="204.971" y="107.29"/></g><g clip-path="url(#w)"><g clip-path="url(#x)"><path style="stroke:none;fill-rule:nonzero;fill:#000;fill-opacity:1" d="M115.77 47.504H58.078v113.402h57.692Zm0 0"/></g></g><g clip-path="url(#y)"><g clip-path="url(#z)"><path style="stroke:none;fill-rule:nonzero;fill:#8080ff;fill-opacity:1" d="M166.926 47.504h32.887v113.402h-32.887Zm0 0"/></g></g><g clip-path="url(#A)"><g clip-path="url(#B)"><path style="stroke:none;fill-rule:nonzero;fill:url(#C)" d="M114.773 123.598V84.816h53.157v38.782Zm0 0"/></g></g></svg>