<svg xmlns="http://www.w3.org/2000/svg" width="65.237" height="16.779" viewBox="0 0 48.928 12.584" version="1.2"><defs><clipPath id="a"><path d="M0 0h48.89v12.375H0Zm0 0"/></clipPath><clipPath id="b"><path d="M0 1h11v11.375H0Zm0 0"/></clipPath><clipPath id="c"><path d="M23 1h17v11.375H23Zm0 0"/></clipPath><clipPath id="d"><path d="M38 0h10.89v12H38Zm0 0"/></clipPath></defs><g clip-path="url(#a)"><path style="fill:none;stroke-width:.3985;stroke-linecap:butt;stroke-linejoin:miter;stroke:#bfbfbf;stroke-opacity:1;stroke-miterlimit:10" d="m-.001 0 14.176 5.668L28.347 0l14.171 5.668" transform="matrix(1 0 0 -1 3.173 7.824)"/></g><path style="stroke:none;fill-rule:nonzero;fill:#d2c92a;fill-opacity:1" d="M3.172 11.313s0-.18-.996-1.168c0 0-.996-.825-.996-2.32 0 0 0-1.16.832-1.16 0 0 1.16 0 1.16 1.16 0 0 0-1.16 1.16-1.16 0 0 .832 0 .832 1.16 0 0 0 1.495-.996 2.32 0 0-.996.988-.996 1.168Zm0 0"/><g clip-path="url(#b)"><path style="fill:none;stroke-width:.3985;stroke-linecap:butt;stroke-linejoin:miter;stroke:#000;stroke-opacity:1;stroke-miterlimit:10" d="M-.001-3.489s0 .18-.996 1.168c0 0-.996.825-.996 2.32 0 0 0 1.16.832 1.16 0 0 1.16 0 1.16-1.16 0 0 0 1.16 1.16 1.16 0 0 .832 0 .832-1.16 0 0 0-1.495-.996-2.32 0 0-.996-.988-.996-1.167Zm0 0" transform="matrix(1 0 0 -1 3.173 7.824)"/></g><path style="fill-rule:nonzero;fill:#d2c92a;fill-opacity:1;stroke-width:.3985;stroke-linecap:butt;stroke-linejoin:miter;stroke:#000;stroke-opacity:1;stroke-miterlimit:10" d="M14.175 2.183s0 .18-.996 1.164c0 0-.997.829-.997 2.32 0 0 0 1.165.832 1.165 0 0 1.16 0 1.16-1.164 0 0 0 1.164 1.16 1.164 0 0 .833 0 .833-1.164 0 0 0-1.492-.996-2.32 0 0-.996-.985-.996-1.165Zm0 0" transform="matrix(1 0 0 -1 3.173 7.824)"/><path style="stroke:none;fill-rule:nonzero;fill:#d2c92a;fill-opacity:1" d="M31.52 11.313s0-.18-.997-1.168c0 0-.996-.825-.996-2.32 0 0 0-1.16.832-1.16 0 0 1.16 0 1.16 1.16 0 0 0-1.16 1.16-1.16 0 0 .833 0 .833 1.16 0 0 0 1.495-.996 2.32 0 0-.996.988-.996 1.168Zm0 0"/><g clip-path="url(#c)"><path style="fill:none;stroke-width:.3985;stroke-linecap:butt;stroke-linejoin:miter;stroke:#000;stroke-opacity:1;stroke-miterlimit:10" d="M28.347-3.489s0 .18-.997 1.168c0 0-.996.825-.996 2.32 0 0 0 1.16.832 1.16 0 0 1.16 0 1.16-1.16 0 0 0 1.16 1.16 1.16 0 0 .833 0 .833-1.16 0 0 0-1.495-.996-2.32 0 0-.996-.988-.996-1.167Zm0 0" transform="matrix(1 0 0 -1 3.173 7.824)"/></g><path style="stroke:none;fill-rule:nonzero;fill:#d2c92a;fill-opacity:1" d="M45.691 5.64s0-.18-.996-1.163c0 0-.996-.829-.996-2.32 0 0 0-1.165.832-1.165 0 0 1.16 0 1.16 1.164 0 0 0-1.164 1.164-1.164 0 0 .833 0 .833 1.164 0 0 0 1.492-.997 2.32 0 0-1 .985-1 1.165Zm0 0"/><g clip-path="url(#d)"><path style="fill:none;stroke-width:.3985;stroke-linecap:butt;stroke-linejoin:miter;stroke:#000;stroke-opacity:1;stroke-miterlimit:10" d="M42.518 2.183s0 .18-.996 1.164c0 0-.996.829-.996 2.32 0 0 0 1.165.832 1.165 0 0 1.16 0 1.16-1.164 0 0 0 1.164 1.164 1.164 0 0 .832 0 .832-1.164 0 0 0-1.492-.996-2.32 0 0-1-.985-1-1.165Zm0 0" transform="matrix(1 0 0 -1 3.173 7.824)"/></g></svg>