<svg xmlns="http://www.w3.org/2000/svg" width="64.611" height="15.195" viewBox="0 0 48.458 11.396" version="1.2"><defs><clipPath id="a"><path d="M0 0h48.188v11.094H0Zm0 0"/></clipPath><clipPath id="b"><path d="M0 0h11v11.094H0Zm0 0"/></clipPath><clipPath id="c"><path d="M23 0h16v11.094H23Zm0 0"/></clipPath><clipPath id="d"><path d="M37 0h11.188v10H37Zm0 0"/></clipPath></defs><g clip-path="url(#a)"><path style="fill:none;stroke-width:.3985;stroke-linecap:butt;stroke-linejoin:miter;stroke:#bfbfbf;stroke-opacity:1;stroke-miterlimit:10" d="m0 0 14.175 5.668L28.347 0l14.172 5.668" transform="matrix(1 0 0 -1 2.696 8.363)"/></g><g clip-path="url(#b)"><path style="fill:none;stroke-width:.3985;stroke-linecap:butt;stroke-linejoin:miter;stroke:#000;stroke-opacity:1;stroke-miterlimit:10" d="M0 0v1.992M0 0l1.894.617M-.001 0l1.172-1.614M0 0l-1.172-1.614M0 0l-1.894.617" transform="matrix(1 0 0 -1 2.696 8.363)"/></g><path style="fill:none;stroke-width:.3985;stroke-linecap:butt;stroke-linejoin:miter;stroke:#000;stroke-opacity:1;stroke-miterlimit:10" d="M14.175 5.668V7.66m0-1.992 1.895.617m-1.895-.617 1.168-1.61m-1.168 1.61-1.172-1.61m1.172 1.61-1.898.617" transform="matrix(1 0 0 -1 2.696 8.363)"/><g clip-path="url(#c)"><path style="fill:none;stroke-width:.3985;stroke-linecap:butt;stroke-linejoin:miter;stroke:#000;stroke-opacity:1;stroke-miterlimit:10" d="M28.347 0v1.992m0-1.992 1.894.617M28.348 0l1.172-1.614M28.347 0l-1.172-1.614M28.347 0l-1.895.617" transform="matrix(1 0 0 -1 2.696 8.363)"/></g><g clip-path="url(#d)"><path style="fill:none;stroke-width:.3985;stroke-linecap:butt;stroke-linejoin:miter;stroke:#000;stroke-opacity:1;stroke-miterlimit:10" d="M42.519 5.668V7.66m0-1.992 1.894.617m-1.894-.617 1.172-1.61m-1.172 1.61-1.168-1.61m1.168 1.61-1.895.617" transform="matrix(1 0 0 -1 2.696 8.363)"/></g></svg>