<svg xmlns="http://www.w3.org/2000/svg" width="154.407" height="120.771" viewBox="0 0 115.805 90.578" version="1.2"><defs><clipPath id="a"><path d="M3 0h98v90.367H3Zm0 0"/></clipPath><clipPath id="b"><path d="M0 0h115.707v79H0Zm0 0"/></clipPath><clipPath id="c"><path d="M0 43h101v47.367H0Zm0 0"/></clipPath></defs><path style="fill:none;stroke-width:.3985;stroke-linecap:butt;stroke-linejoin:miter;stroke:#000;stroke-opacity:1;stroke-miterlimit:10" d="M.002 0v87.59M113.388 0v87.59M.002 0h113.386M.002 87.59h113.386" transform="matrix(1 0 0 -1 1.111 89.074)"/><path style="fill:none;stroke-width:.59776;stroke-linecap:butt;stroke-linejoin:miter;stroke:#000;stroke-opacity:1;stroke-miterlimit:10" d="M56.693 42.672h11.34l11.336 22.46 22.68-11.23" transform="matrix(1 0 0 -1 1.111 89.074)"/><g clip-path="url(#a)"><path style="fill:none;stroke-width:.59776;stroke-linecap:butt;stroke-linejoin:miter;stroke:#000;stroke-opacity:1;stroke-miterlimit:10" d="m11.338 0 11.34 20.215 11.34 67.375 56.69-67.375" transform="matrix(1 0 0 -1 1.111 89.074)"/></g><g clip-path="url(#b)"><path style="fill:none;stroke-width:.59776;stroke-linecap:butt;stroke-linejoin:miter;stroke:#000;stroke-opacity:1;stroke-miterlimit:10" d="m.002 18.637 22.676 9.316L45.353 55.91l68.032 31.68" transform="matrix(1 0 0 -1 1.111 89.074)"/></g><g clip-path="url(#c)"><path style="fill:none;stroke-width:.59776;stroke-linecap:butt;stroke-linejoin:miter;stroke:#000;stroke-opacity:1;stroke-miterlimit:10" d="m.002 0 22.676 9.32 11.34 9.317 56.69 18.636" transform="matrix(1 0 0 -1 1.111 89.074)"/></g></svg>