<svg xmlns="http://www.w3.org/2000/svg" xmlns:xlink="http://www.w3.org/1999/xlink" width="66.819" height="129.983" viewBox="0 0 50.114 97.487" version="1.2"><defs><symbol overflow="visible" id="a"><path style="stroke:none" d="M5.516-.234c0-.235-.125-.235-.266-.235-.61-.015-.61-.14-.61-.375v-2.14c0-.891-.702-1.532-2.187-1.532-.562 0-1.781.047-1.781.922 0 .438.344.625.61.625.312 0 .624-.219.624-.625 0-.297-.187-.469-.218-.5a5.28 5.28 0 0 1 .718-.062c.75 0 1.11.422 1.11 1.172v.343c-.72.032-3.25.125-3.25 1.563C.266-.125 1.5.062 2.187.062c.797 0 1.266-.406 1.485-.828 0 .313 0 .766 1.047.766h.468c.204 0 .329 0 .329-.234Zm-2-1.157c0 .97-.922 1.094-1.172 1.094-.516 0-.906-.344-.906-.797 0-1.062 1.578-1.203 2.078-1.234Zm0 0"/></symbol><symbol overflow="visible" id="b"><path style="stroke:none" d="M8.328 0v-.469h-.984L4.828-3.953 6.5-6.156c.11-.14.125-.157.469-.188.234-.031.297-.031.578-.031h.281v-.469c-.406.032-.906.032-1.328.032-.39 0-1.156 0-1.516-.032v.469c.172 0 .563 0 .922.11-.015.03-.062.077-.078.109L4.5-4.406 3.078-6.375h.828v-.469c-.406.032-1.36.032-1.797.032-.406 0-1.265 0-1.625-.032v.469h.985l2.203 3.063-2 2.64c-.094.125-.11.14-.438.172-.203.016-.406.031-.609.031H.344V0c.406-.031.906-.031 1.328-.031.39 0 1.156 0 1.516.031v-.469c-.172 0-.563 0-.922-.11.015-.015.062-.077.093-.109L4-2.874 5.734-.469h-.828V0c.407-.031 1.36-.031 1.797-.031.406 0 1.266 0 1.625.031Zm0 0"/></symbol><symbol overflow="visible" id="c"><path style="stroke:none" d="M5.563-3.953c0-.235-.172-.578-.625-.578-.157 0-.625.031-1.063.375-.172-.125-.594-.328-1.328-.328-1.438 0-1.985.78-1.985 1.468 0 .407.188.829.516 1.047-.281.36-.344.688-.344.89 0 .157.047.641.438.954-.125.031-.86.25-.86.875C.313 1.25.875 2 2.86 2 4.625 2 5.406 1.422 5.406.719c0-.297-.078-.922-.75-1.266-.562-.281-1.156-.281-2.11-.281-.265 0-.718 0-.765-.016a.625.625 0 0 1-.562-.625c0-.093.047-.25.11-.328.452.234.968.266 1.218.266 1.437 0 1.984-.782 1.984-1.485 0-.468-.25-.796-.406-.953.297-.156.516-.172.625-.187a.433.433 0 0 0-.047.203c0 .25.172.422.438.422a.41.41 0 0 0 .421-.422Zm-2.141.937c0 .454 0 1.125-.875 1.125s-.875-.671-.875-1.125c0-.437 0-1.109.875-1.109s.875.672.875 1.11ZM4.547.75c0 .36-.39.89-1.688.89-1.187 0-1.687-.452-1.687-.906 0-.609.625-.609.766-.609h1.171c.313 0 1.438 0 1.438.625Zm0 0"/></symbol></defs><path style="fill:none;stroke-width:.3985;stroke-linecap:butt;stroke-linejoin:miter;stroke:red;stroke-opacity:1;stroke-miterlimit:10" d="M-23.856-8.841h47.715v38.394h-47.715Zm0 0" transform="matrix(1 0 0 -1 24.614 30.494)"/><path style="fill:none;stroke-width:.3985;stroke-linecap:butt;stroke-linejoin:miter;stroke:#000;stroke-opacity:1;stroke-miterlimit:10" d="M-6.104-3.381H6.103V7.833H-6.104Zm0 0" transform="matrix(1 0 0 -1 10.381 14.618)"/><use xlink:href="#a" x="7.597" y="14.618" style="fill:#000;fill-opacity:1"/><path style="fill:none;stroke-width:.3985;stroke-linecap:butt;stroke-linejoin:miter;stroke:#000;stroke-opacity:1;stroke-miterlimit:10" d="M-7.651-3.319h15.3v13.473h-15.3Zm0 0" transform="matrix(1 0 0 -1 24.534 14.618)"/><use xlink:href="#b" x="20.205" y="14.618" style="fill:#000;fill-opacity:1"/><path style="fill:none;stroke-width:.3985;stroke-linecap:butt;stroke-linejoin:miter;stroke:#000;stroke-opacity:1;stroke-miterlimit:10" d="M-6.185-5.323H6.186V7.853H-6.185Zm0 0" transform="matrix(1 0 0 -1 38.767 14.618)"/><use xlink:href="#c" x="35.902" y="14.618" style="fill:#000;fill-opacity:1"/><path style="fill:none;stroke-width:.3985;stroke-linecap:butt;stroke-linejoin:miter;stroke:#000;stroke-opacity:1;stroke-miterlimit:10" d="M-6.104-3.38H6.103V7.834H-6.104Zm0 0" transform="matrix(1 0 0 -1 10.381 30.494)"/><use xlink:href="#a" x="7.597" y="30.494" style="fill:#000;fill-opacity:1"/><path style="fill:none;stroke-width:.3985;stroke-linecap:butt;stroke-linejoin:miter;stroke:#000;stroke-opacity:1;stroke-miterlimit:10" d="M-7.651-3.322h15.3v13.477h-15.3Zm0 0" transform="matrix(1 0 0 -1 24.534 30.494)"/><use xlink:href="#b" x="20.205" y="30.494" style="fill:#000;fill-opacity:1"/><path style="fill:none;stroke-width:.3985;stroke-linecap:butt;stroke-linejoin:miter;stroke:#000;stroke-opacity:1;stroke-miterlimit:10" d="M-6.185-5.322H6.186V7.854H-6.185Zm0 0" transform="matrix(1 0 0 -1 38.767 30.494)"/><use xlink:href="#c" x="35.902" y="30.494" style="fill:#000;fill-opacity:1"/><path style="fill:none;stroke-width:.3985;stroke-linecap:butt;stroke-linejoin:miter;stroke:red;stroke-opacity:1;stroke-miterlimit:10" d="M-23.856-65.537h47.715v46.899h-47.715Zm0 0" transform="matrix(1 0 0 -1 24.614 30.494)"/><path style="fill:none;stroke-width:.3985;stroke-linecap:butt;stroke-linejoin:miter;stroke:#000;stroke-opacity:1;stroke-miterlimit:10" d="M-6.104-3.38H6.103V7.835H-6.104Zm0 0" transform="matrix(1 0 0 -1 10.381 62.807)"/><use xlink:href="#a" x="7.597" y="62.807" style="fill:#000;fill-opacity:1"/><path style="fill:none;stroke-width:.3985;stroke-linecap:butt;stroke-linejoin:miter;stroke:#000;stroke-opacity:1;stroke-miterlimit:10" d="M-7.651-3.321h15.3v13.476h-15.3Zm0 0" transform="matrix(1 0 0 -1 24.534 62.807)"/><use xlink:href="#b" x="20.205" y="62.807" style="fill:#000;fill-opacity:1"/><path style="fill:none;stroke-width:.3985;stroke-linecap:butt;stroke-linejoin:miter;stroke:#000;stroke-opacity:1;stroke-miterlimit:10" d="M-6.185-5.321H6.186V7.854H-6.185Zm0 0" transform="matrix(1 0 0 -1 38.767 62.807)"/><use xlink:href="#c" x="35.902" y="62.807" style="fill:#000;fill-opacity:1"/><path style="fill:none;stroke-width:.3985;stroke-linecap:butt;stroke-linejoin:miter;stroke:#000;stroke-opacity:1;stroke-miterlimit:10" d="M-6.104-3.379H6.103V7.832H-6.104Zm0 0" transform="matrix(1 0 0 -1 10.381 87.188)"/><use xlink:href="#a" x="7.597" y="87.188" style="fill:#000;fill-opacity:1"/><path style="fill:none;stroke-width:.3985;stroke-linecap:butt;stroke-linejoin:miter;stroke:#000;stroke-opacity:1;stroke-miterlimit:10" d="M-7.651-3.32h15.3v13.476h-15.3Zm0 0" transform="matrix(1 0 0 -1 24.534 87.188)"/><use xlink:href="#b" x="20.205" y="87.188" style="fill:#000;fill-opacity:1"/><path style="fill:none;stroke-width:.3985;stroke-linecap:butt;stroke-linejoin:miter;stroke:#000;stroke-opacity:1;stroke-miterlimit:10" d="M-6.185-5.324H6.186v13.18H-6.185Zm0 0" transform="matrix(1 0 0 -1 38.767 87.188)"/><use xlink:href="#c" x="35.902" y="87.188" style="fill:#000;fill-opacity:1"/></svg>