<svg xmlns="http://www.w3.org/2000/svg" width="136.535" height="83.173" viewBox="0 0 102.401 62.38" version="1.2"><defs><clipPath id="a"><path d="M88 19h14.102v20H88Zm0 0"/></clipPath></defs><path style="fill:none;stroke-width:.3985;stroke-linecap:butt;stroke-linejoin:miter;stroke:#000;stroke-opacity:1;stroke-miterlimit:10" d="M28.572-3.487h27.894v6.973H28.572ZM42.521 11.657a3.49 3.49 0 0 1 0-6.976 3.486 3.486 0 0 1 3.484 3.488 3.48 3.48 0 0 1-1.535 2.89" transform="matrix(1 0 0 -1 .71 57.384)"/><path style="fill-rule:nonzero;fill:#000;fill-opacity:1;stroke-width:.3985;stroke-linecap:butt;stroke-linejoin:round;stroke:#000;stroke-opacity:1;stroke-miterlimit:10" d="M-1.457 1.114 1.453 0l-2.909-1.115Zm0 0" transform="scale(-.99997 .99997) rotate(-34.019 53.638 96.917)"/><path style="fill:none;stroke-width:.3985;stroke-linecap:butt;stroke-linejoin:miter;stroke:#000;stroke-opacity:1;stroke-miterlimit:10" d="M92.013 26.603H78.068m13.945 3.488H78.068" transform="matrix(1 0 0 -1 .71 57.384)"/><g clip-path="url(#a)"><path style="fill:none;stroke-width:.3985;stroke-linecap:butt;stroke-linejoin:miter;stroke:#000;stroke-opacity:1;stroke-miterlimit:10" d="M100.185 28.349a3.49 3.49 0 0 0-6.977 0 3.49 3.49 0 0 0 6.379 1.95" transform="matrix(1 0 0 -1 .71 57.384)"/></g><path style="fill-rule:nonzero;fill:#000;fill-opacity:1;stroke-width:.3985;stroke-linecap:butt;stroke-linejoin:round;stroke:#000;stroke-opacity:1;stroke-miterlimit:10" d="M-1.453 1.113 1.453 0l-2.907-1.115Zm0 0" transform="matrix(.55945 .82883 .82883 -.55945 100.027 27.226)"/><path style="fill:none;stroke-width:.3985;stroke-linecap:butt;stroke-linejoin:miter;stroke:#000;stroke-opacity:1;stroke-miterlimit:10" d="M.001.001h28.372m28.293 0H85.04v26.403m0 3.886v26.403" transform="matrix(1 0 0 -1 .71 57.384)"/></svg>