<svg xmlns="http://www.w3.org/2000/svg" width="116.621" height="78.819" viewBox="0 0 87.466 59.114" version="1.2"><defs><clipPath id="a"><path d="M0 0h87.2v58.672H0Zm0 0"/></clipPath></defs><path style="fill:none;stroke-width:.19925;stroke-linecap:butt;stroke-linejoin:miter;stroke:gray;stroke-opacity:1;stroke-miterlimit:10" d="M0-.002h85.042M0 28.346h85.043M0 56.682h85.043M0-.002v56.696M28.347-.002v56.696M56.695-.002v56.696M85.03-.002v56.696" transform="matrix(1 0 0 -1 .95 57.467)"/><g clip-path="url(#a)"><path style="fill:none;stroke-width:.3985;stroke-linecap:butt;stroke-linejoin:miter;stroke:#000;stroke-opacity:1;stroke-miterlimit:10" d="m0-.002 85.042 28.348c0 15.656-19.039 28.348-42.523 28.348-23.48 0-42.52-12.692-42.52-28.348" transform="matrix(1 0 0 -1 .95 57.467)"/><path style="fill:none;stroke-width:.3985;stroke-linecap:butt;stroke-linejoin:miter;stroke:red;stroke-opacity:1;stroke-miterlimit:10" d="M0-.002 1.951 1.55m7.5 1.602 1.95 1.546m7.5 1.602 1.953 1.55m7.5 1.602 1.949 1.547m7.5 1.602 1.953 1.55m7.5 1.602 1.95 1.547m7.5 1.602 1.948 1.55m7.504 1.602 1.95 1.547m7.5 1.601 1.949 1.551m7.484 1.645-.86 2.336m-1.636 7.203-1.86 1.656M76.262 45.6l-2.324.89m-5.977 4.57-2.472.282m-6.833 3.238-2.48-.203m-7.305 2.004-2.414-.617m-7.535.828-2.289-.98m-7.574-.368-2.098-1.34m-7.379-1.687-1.816-1.703m-6.836-3.192-1.375-2.078m-5.613-4.96-.641-2.41M.202 31.142.706 28.7" transform="matrix(1 0 0 -1 .95 57.467)"/></g></svg>