<svg xmlns="http://www.w3.org/2000/svg" width="116.379" height="78.771" viewBox="0 0 87.284 59.078" version="1.2"><defs><clipPath id="a"><path d="M0 0h86.926v58.617H0Zm0 0"/></clipPath><clipPath id="b"><path d="M20 34h66.926v24.617H20Zm0 0"/></clipPath></defs><path style="fill:none;stroke-width:.19925;stroke-linecap:butt;stroke-linejoin:miter;stroke:gray;stroke-opacity:1;stroke-miterlimit:10" d="M0-.001h85.04M0 28.347h85.04M0 56.683h85.04M0-.001v56.695M28.349 0v56.695M56.692 0v56.695M85.032 0v56.695" transform="matrix(1 0 0 -1 .769 57.413)"/><g clip-path="url(#a)"><path style="fill:none;stroke-width:.3985;stroke-linecap:butt;stroke-linejoin:miter;stroke:#000;stroke-opacity:1;stroke-miterlimit:10" d="m0-.001 85.04 56.695" transform="matrix(1 0 0 -1 .769 57.413)"/></g><g clip-path="url(#b)"><path style="fill:none;stroke-width:.3985;stroke-linecap:butt;stroke-linejoin:miter;stroke:red;stroke-opacity:1;stroke-miterlimit:10" d="M25.512 17.007 85.04-.001" transform="matrix(1 0 0 -1 .769 57.413)"/></g><path style="stroke:none;fill-rule:nonzero;fill:red;fill-opacity:1" d="M69.945 52.309a1.996 1.996 0 0 0-1.996-1.993 1.996 1.996 0 0 0-1.992 1.993c0 1.101.895 1.996 1.992 1.996a1.997 1.997 0 0 0 1.996-1.996Zm0 0"/></svg>