<svg xmlns="http://www.w3.org/2000/svg" width="116.595" height="78.531" viewBox="0 0 87.446 58.898" version="1.2"><defs><clipPath id="a"><path d="M0 9h87.168v41H0Zm0 0"/></clipPath></defs><path style="fill:none;stroke-width:.19925;stroke-linecap:butt;stroke-linejoin:miter;stroke:gray;stroke-opacity:1;stroke-miterlimit:10" d="M-.002 0h85.043M-.002 28.347h85.043M-.002 56.683h85.043M-.002 0v56.695M28.346 0v56.695M56.693 0v56.695M85.03 0v56.695" transform="matrix(1 0 0 -1 .916 57.742)"/><g clip-path="url(#a)"><path style="fill:none;stroke-width:.3985;stroke-linecap:butt;stroke-linejoin:miter;stroke:#000;stroke-opacity:1;stroke-miterlimit:10" d="M85.041 28.347c0 3.18-3.332 6.352-9.277 8.836-5.95 2.485-14.48 4.274-23.782 4.98-9.3.708-19.312.333-27.91-1.046-8.593-1.379-15.718-3.758-19.86-6.621-4.14-2.863-5.269-6.203-3.144-9.3 2.121-3.102 7.485-5.946 14.942-7.93 7.46-1.981 16.969-3.094 26.512-3.094" transform="matrix(1 0 0 -1 .916 57.742)"/></g></svg>