<svg xmlns="http://www.w3.org/2000/svg" width="112.851" height="112.851" viewBox="0 0 84.638 84.638" version="1.2"><defs><clipPath id="a"><path d="M52 0h32.457v33H52Zm0 0"/></clipPath><clipPath id="b"><path d="M52 23h32.457v38H52Zm0 0"/></clipPath><clipPath id="c"><path d="M0 52h33v32.457H0Zm0 0"/></clipPath><clipPath id="d"><path d="M23 52h38v32.457H23Zm0 0"/></clipPath><clipPath id="e"><path d="M52 52h32.457v32.457H52Zm0 0"/></clipPath></defs><path style="fill:none;stroke-width:.3985;stroke-linecap:butt;stroke-linejoin:miter;stroke:#000;stroke-opacity:1;stroke-miterlimit:10" d="M12.755 56.692C12.755 63.739 7.044 69.45 0 69.45c-7.047 0-12.758-5.711-12.758-12.758 0-7.043 5.711-12.754 12.758-12.754 7.043 0 12.754 5.711 12.754 12.754Zm0 0" transform="matrix(1 0 0 -1 13.792 70.485)"/><path style="stroke:none;fill-rule:nonzero;fill:#000;fill-opacity:1" d="M16.004 13.793a2.215 2.215 0 0 0-2.211-2.215 2.212 2.212 0 0 0 0 4.426c1.219 0 2.21-.992 2.21-2.211Zm0 0"/><path style="fill:none;stroke-width:.3985;stroke-linecap:butt;stroke-linejoin:miter;stroke:#000;stroke-opacity:1;stroke-miterlimit:10" d="M41.103 56.692c0 7.047-5.711 12.758-12.754 12.758-7.047 0-12.758-5.711-12.758-12.758 0-7.043 5.71-12.754 12.758-12.754 7.043 0 12.754 5.711 12.754 12.754Zm0 0" transform="matrix(1 0 0 -1 13.792 70.485)"/><path style="stroke:none;fill-rule:nonzero;fill:#000;fill-opacity:1" d="M41.031 13.793a2.212 2.212 0 0 0-2.21-2.215 2.214 2.214 0 0 0 0 4.426c1.222 0 2.21-.992 2.21-2.211ZM47.668 13.793a2.212 2.212 0 0 0-2.211-2.215 2.212 2.212 0 0 0 0 4.426c1.223 0 2.211-.992 2.211-2.211Zm0 0"/><g clip-path="url(#a)"><path style="fill:none;stroke-width:.3985;stroke-linecap:butt;stroke-linejoin:miter;stroke:#000;stroke-opacity:1;stroke-miterlimit:10" d="M69.45 56.692c0 7.047-5.71 12.758-12.758 12.758-7.043 0-12.754-5.711-12.754-12.758 0-7.043 5.711-12.754 12.754-12.754 7.047 0 12.758 5.711 12.758 12.754Zm0 0" transform="matrix(1 0 0 -1 13.792 70.485)"/></g><path style="stroke:none;fill-rule:nonzero;fill:#000;fill-opacity:1" d="M72.7 10.008a2.214 2.214 0 1 0-2.215 2.215 2.216 2.216 0 0 0 2.214-2.215ZM69.379 15.82a2.211 2.211 0 0 0-4.422 0c0 1.223.988 2.215 2.211 2.215 1.223 0 2.21-.992 2.21-2.215ZM76.016 15.82a2.214 2.214 0 0 0-4.426 0c0 1.223.992 2.215 2.215 2.215 1.218 0 2.21-.992 2.21-2.215Zm0 0"/><path style="fill:none;stroke-width:.3985;stroke-linecap:butt;stroke-linejoin:miter;stroke:#000;stroke-opacity:1;stroke-miterlimit:10" d="M12.755 28.348c0 7.043-5.711 12.754-12.754 12.754-7.047 0-12.758-5.71-12.758-12.754 0-7.047 5.711-12.758 12.758-12.758 7.043 0 12.754 5.711 12.754 12.758Zm0 0" transform="matrix(1 0 0 -1 13.792 70.485)"/><path style="stroke:none;fill-rule:nonzero;fill:#000;fill-opacity:1" d="M12.688 38.82a2.212 2.212 0 0 0-4.426 0 2.212 2.212 0 0 0 4.426 0ZM19.32 38.82c0-1.222-.988-2.21-2.21-2.21-1.223 0-2.212.988-2.212 2.21 0 1.223.989 2.211 2.211 2.211 1.223 0 2.211-.988 2.211-2.21ZM12.688 45.457a2.216 2.216 0 0 0-2.215-2.215 2.214 2.214 0 1 0 2.215 2.215ZM19.32 45.457a2.212 2.212 0 0 0-2.21-2.215 2.212 2.212 0 0 0 0 4.426c1.222 0 2.21-.992 2.21-2.211Zm0 0"/><path style="fill:none;stroke-width:.3985;stroke-linecap:butt;stroke-linejoin:miter;stroke:#000;stroke-opacity:1;stroke-miterlimit:10" d="M41.103 28.348c0 7.043-5.711 12.754-12.754 12.754-7.047 0-12.758-5.71-12.758-12.754 0-7.047 5.71-12.758 12.758-12.758 7.043 0 12.754 5.711 12.754 12.758Zm0 0" transform="matrix(1 0 0 -1 13.792 70.485)"/><path style="stroke:none;fill-rule:nonzero;fill:#000;fill-opacity:1" d="M44.352 36.5a2.215 2.215 0 0 0-2.211-2.215 2.216 2.216 0 0 0-2.215 2.215 2.214 2.214 0 0 0 4.426 0ZM38.988 40.395a2.214 2.214 0 0 0-4.426 0 2.212 2.212 0 0 0 4.426 0ZM49.715 40.395a2.214 2.214 0 0 0-4.426 0 2.212 2.212 0 0 0 4.426 0ZM41.035 46.7a2.211 2.211 0 0 0-4.422 0c0 1.222.989 2.214 2.211 2.214 1.223 0 2.211-.992 2.211-2.215ZM47.664 46.7a2.211 2.211 0 0 0-4.422 0c0 1.222.988 2.214 2.211 2.214 1.223 0 2.211-.992 2.211-2.215Zm0 0"/><g clip-path="url(#b)"><path style="fill:none;stroke-width:.3985;stroke-linecap:butt;stroke-linejoin:miter;stroke:#000;stroke-opacity:1;stroke-miterlimit:10" d="M69.45 28.348c0 7.043-5.71 12.754-12.758 12.754-7.043 0-12.754-5.71-12.754-12.754 0-7.047 5.711-12.758 12.754-12.758 7.047 0 12.758 5.711 12.758 12.758Zm0 0" transform="matrix(1 0 0 -1 13.792 70.485)"/></g><path style="stroke:none;fill-rule:nonzero;fill:#000;fill-opacity:1" d="M66.063 38.82a2.212 2.212 0 0 0-4.426 0 2.212 2.212 0 0 0 4.426 0ZM72.7 38.82a2.212 2.212 0 0 0-4.427 0 2.212 2.212 0 0 0 4.426 0ZM79.332 38.82c0-1.222-.988-2.21-2.21-2.21-1.224 0-2.212.988-2.212 2.21 0 1.223.988 2.211 2.211 2.211 1.223 0 2.211-.988 2.211-2.21ZM66.063 45.457a2.215 2.215 0 0 0-2.211-2.215 2.216 2.216 0 0 0-2.215 2.215 2.214 2.214 0 0 0 4.426 0ZM72.7 45.457a2.216 2.216 0 0 0-2.216-2.215 2.214 2.214 0 1 0 2.215 2.215ZM79.332 45.457a2.212 2.212 0 0 0-2.21-2.215 2.212 2.212 0 0 0 0 4.426c1.222 0 2.21-.992 2.21-2.211Zm0 0"/><g clip-path="url(#c)"><path style="fill:none;stroke-width:.3985;stroke-linecap:butt;stroke-linejoin:miter;stroke:#000;stroke-opacity:1;stroke-miterlimit:10" d="M12.755 0c0 7.044-5.711 12.755-12.754 12.755-7.047 0-12.758-5.711-12.758-12.754 0-7.047 5.711-12.758 12.758-12.758 7.043 0 12.754 5.71 12.754 12.758Zm0 0" transform="matrix(1 0 0 -1 13.792 70.485)"/></g><path style="stroke:none;fill-rule:nonzero;fill:#000;fill-opacity:1" d="M16.004 63.852a2.215 2.215 0 0 0-2.211-2.215 2.212 2.212 0 0 0 0 4.425c1.219 0 2.21-.992 2.21-2.21ZM9.367 67.168c0-1.223-.988-2.211-2.21-2.211-1.223 0-2.212.988-2.212 2.211 0 1.223.989 2.21 2.211 2.21 1.223 0 2.211-.987 2.211-2.21ZM16.004 70.484a2.211 2.211 0 1 0-4.423.001 2.211 2.211 0 0 0 4.423 0ZM22.64 67.168a2.212 2.212 0 0 0-4.425 0 2.212 2.212 0 0 0 4.426 0ZM9.367 73.8a2.211 2.211 0 0 0-4.422 0c0 1.223.989 2.216 2.211 2.216 1.223 0 2.211-.993 2.211-2.215ZM16.004 77.121a2.211 2.211 0 1 0-4.423.001 2.211 2.211 0 0 0 4.423 0ZM22.64 73.8c0-1.218-.992-2.21-2.214-2.21a2.214 2.214 0 0 0 0 4.426A2.216 2.216 0 0 0 22.64 73.8Zm0 0"/><g clip-path="url(#d)"><path style="fill:none;stroke-width:.3985;stroke-linecap:butt;stroke-linejoin:miter;stroke:#000;stroke-opacity:1;stroke-miterlimit:10" d="M41.103 0c0 7.044-5.711 12.755-12.754 12.755C21.302 12.755 15.59 7.044 15.59 0c0-7.047 5.71-12.758 12.758-12.758 7.043 0 12.754 5.71 12.754 12.758Zm0 0" transform="matrix(1 0 0 -1 13.792 70.485)"/></g><path style="stroke:none;fill-rule:nonzero;fill:#000;fill-opacity:1" d="M41.031 63.852a2.212 2.212 0 0 0-2.21-2.215 2.214 2.214 0 0 0 0 4.426c1.222 0 2.21-.993 2.21-2.211ZM47.668 63.852a2.212 2.212 0 0 0-2.211-2.215 2.212 2.212 0 0 0 0 4.425c1.223 0 2.211-.992 2.211-2.21ZM37.715 70.484c0-1.222-.988-2.21-2.211-2.21-1.223 0-2.211.988-2.211 2.21 0 1.223.988 2.211 2.21 2.211 1.224 0 2.212-.988 2.212-2.21ZM44.352 70.484a2.212 2.212 0 0 0-4.426 0 2.212 2.212 0 0 0 4.426 0ZM50.984 70.484c0-1.222-.988-2.21-2.21-2.21-1.223 0-2.212.988-2.212 2.21 0 1.223.989 2.211 2.211 2.211 1.223 0 2.211-.988 2.211-2.21ZM37.715 77.121c0-1.223-.988-2.21-2.211-2.21a2.211 2.211 0 1 0 2.21 2.21ZM44.352 77.121a2.212 2.212 0 0 0-4.426 0 2.214 2.214 0 0 0 4.426 0ZM50.984 77.121c0-1.223-.988-2.21-2.21-2.21a2.211 2.211 0 1 0 2.21 2.21Zm0 0"/><g clip-path="url(#e)"><path style="fill:none;stroke-width:.3985;stroke-linecap:butt;stroke-linejoin:miter;stroke:#000;stroke-opacity:1;stroke-miterlimit:10" d="M69.45 0c0 7.044-5.71 12.755-12.758 12.755-7.043 0-12.754-5.711-12.754-12.754 0-7.047 5.711-12.758 12.754-12.758C63.74-12.757 69.45-7.047 69.45 0Zm0 0" transform="matrix(1 0 0 -1 13.792 70.485)"/></g><path style="stroke:none;fill-rule:nonzero;fill:#000;fill-opacity:1" d="M66.063 63.852a2.215 2.215 0 0 0-2.211-2.215 2.216 2.216 0 0 0-2.215 2.215 2.214 2.214 0 0 0 4.426 0ZM72.7 63.852a2.216 2.216 0 0 0-2.216-2.215 2.214 2.214 0 1 0 2.215 2.215ZM79.332 63.852a2.212 2.212 0 0 0-2.21-2.215 2.212 2.212 0 0 0 0 4.425c1.222 0 2.21-.992 2.21-2.21ZM66.063 70.484a2.212 2.212 0 0 0-4.426 0 2.212 2.212 0 0 0 4.426 0ZM72.7 70.484a2.212 2.212 0 0 0-4.427 0 2.212 2.212 0 0 0 4.426 0ZM79.332 70.484c0-1.222-.988-2.21-2.21-2.21-1.224 0-2.212.988-2.212 2.21 0 1.223.988 2.211 2.211 2.211 1.223 0 2.211-.988 2.211-2.21ZM66.063 77.121a2.212 2.212 0 0 0-4.426 0 2.214 2.214 0 0 0 4.426 0ZM72.7 77.121a2.212 2.212 0 0 0-4.427 0 2.214 2.214 0 0 0 4.426 0ZM79.332 77.121c0-1.223-.988-2.21-2.21-2.21a2.211 2.211 0 1 0 2.21 2.21Zm0 0"/></svg>