<svg xmlns="http://www.w3.org/2000/svg" width="76.539" height="70.635" viewBox="0 0 57.404 52.976" version="1.2"><defs><clipPath id="a"><path d="M0 43h13v9.965H0Zm0 0"/></clipPath><clipPath id="b"><path d="M5 42h15v10.965H5Zm0 0"/></clipPath><clipPath id="c"><path d="M12 40h15v12.965H12Zm0 0"/></clipPath><clipPath id="d"><path d="M19 39h15v13.965H19Zm0 0"/></clipPath><clipPath id="e"><path d="M26 38h15v14.965H26Zm0 0"/></clipPath><clipPath id="f"><path d="M47 34h10.105v15H47Zm0 0"/></clipPath><clipPath id="g"><path d="M0 38h10v14.965H0Zm0 0"/></clipPath></defs><g clip-path="url(#a)"><path style="fill:none;stroke-width:.3985;stroke-linecap:butt;stroke-linejoin:miter;stroke:#000;stroke-opacity:1;stroke-miterlimit:10" d="m5.57-.178 2.82 2.816m-2.82 0L8.39-.178" transform="matrix(1 0 0 -1 -1.288 51.638)"/></g><g clip-path="url(#b)"><path style="fill:none;stroke-width:.3985;stroke-linecap:butt;stroke-linejoin:miter;stroke:#000;stroke-opacity:1;stroke-miterlimit:10" d="m12.55 1.052 2.816 2.816m-2.816 0 2.816-2.816" transform="matrix(1 0 0 -1 -1.288 51.638)"/></g><g clip-path="url(#c)"><path style="fill:none;stroke-width:.3985;stroke-linecap:butt;stroke-linejoin:miter;stroke:#000;stroke-opacity:1;stroke-miterlimit:10" d="m19.53 2.283 2.817 2.816m-2.817 0 2.817-2.816" transform="matrix(1 0 0 -1 -1.288 51.638)"/></g><g clip-path="url(#d)"><path style="fill:none;stroke-width:.3985;stroke-linecap:butt;stroke-linejoin:miter;stroke:#000;stroke-opacity:1;stroke-miterlimit:10" d="m26.507 3.513 2.82 2.816m-2.82 0 2.82-2.816" transform="matrix(1 0 0 -1 -1.288 51.638)"/></g><g clip-path="url(#e)"><path style="fill:none;stroke-width:.3985;stroke-linecap:butt;stroke-linejoin:miter;stroke:#000;stroke-opacity:1;stroke-miterlimit:10" d="m33.487 4.743 2.817 2.817m-2.817 0 2.817-2.817" transform="matrix(1 0 0 -1 -1.288 51.638)"/></g><path style="fill:none;stroke-width:.3985;stroke-linecap:butt;stroke-linejoin:miter;stroke:#000;stroke-opacity:1;stroke-miterlimit:10" d="m40.464 5.974 2.82 2.82m-2.82 0 2.82-2.82M47.444 7.204l2.817 2.82m-2.817 0 2.817-2.82" transform="matrix(1 0 0 -1 -1.288 51.638)"/><g clip-path="url(#f)"><path style="fill:none;stroke-width:.3985;stroke-linecap:butt;stroke-linejoin:miter;stroke:#000;stroke-opacity:1;stroke-miterlimit:10" d="m54.425 8.435 2.816 2.82m-2.816 0 2.816-2.82" transform="matrix(1 0 0 -1 -1.288 51.638)"/></g><g clip-path="url(#g)"><path style="fill:none;stroke-width:.3985;stroke-linecap:butt;stroke-linejoin:miter;stroke:#000;stroke-opacity:1;stroke-miterlimit:10" d="m2.136 4.728 2.816 2.816m-2.816 0 2.816-2.816" transform="matrix(1 0 0 -1 -1.288 51.638)"/></g><path style="fill:none;stroke-width:.3985;stroke-linecap:butt;stroke-linejoin:miter;stroke:#000;stroke-opacity:1;stroke-miterlimit:10" d="m5.679 10.865 2.816 2.82m-2.816 0 2.816-2.82M9.222 17.001l2.816 2.82m-2.816 0 2.816-2.82M12.765 23.142l2.816 2.816m-2.816 0 2.816-2.816M16.308 29.279l2.816 2.816m-2.816 0 2.816-2.816M19.85 35.415l2.82 2.817m-2.82 0 2.82-2.817M23.393 41.552l2.82 2.816m-2.82 0 2.82-2.816M26.936 47.689l2.82 2.816m-2.82 0 2.82-2.816" transform="matrix(1 0 0 -1 -1.288 51.638)"/></svg>