<svg xmlns="http://www.w3.org/2000/svg" xmlns:xlink="http://www.w3.org/1999/xlink" width="185.629" height="98.187" viewBox="0 0 139.222 73.64" version="1.2"><defs><symbol overflow="visible" id="b"><path style="stroke:none" d="M5.563-1.813c.14 0 .312 0 .312-.171 0-.188-.172-.188-.313-.188H1c-.125 0-.297 0-.297.188 0 .171.172.171.297.171Zm0 0"/></symbol><symbol overflow="visible" id="c"><path style="stroke:none" d="M2.5-5.078c0-.219-.016-.219-.234-.219-.329.313-.75.5-1.5.5v.266c.218 0 .64 0 1.109-.203v4.078c0 .297-.031.39-.781.39H.812V0c.329-.031 1.016-.031 1.375-.031.36 0 1.047 0 1.376.031v-.266H3.28c-.75 0-.781-.093-.781-.39Zm0 0"/></symbol><symbol overflow="visible" id="d"><path style="stroke:none" d="M3.89-2.547c0-.844-.078-1.36-.343-1.875-.344-.703-1-.875-1.438-.875-1 0-1.375.75-1.484.969C.344-3.75.328-2.953.328-2.547c0 .531.016 1.328.406 1.969.36.594.954.75 1.375.75.391 0 1.063-.125 1.47-.906.296-.579.312-1.297.312-1.813ZM2.11-.062c-.266 0-.813-.126-.985-.954-.094-.453-.094-1.203-.094-1.625 0-.546 0-1.109.094-1.546.172-.813.781-.891.984-.891.266 0 .829.14.985.86.094.437.094 1.046.094 1.577 0 .47 0 1.188-.094 1.641-.172.828-.719.938-.985.938Zm0 0"/></symbol><symbol overflow="visible" id="e"><path style="stroke:none" d="M5.11-.219c0-.218-.157-.218-.235-.218-.578-.016-.578-.094-.578-.313v-1.922c0-.797-.64-1.39-2.031-1.39-.5 0-1.657.015-1.657.843 0 .406.313.594.579.594.312 0 .593-.219.593-.578 0-.266-.156-.422-.187-.453.093-.016.312-.047.64-.047.641 0 1.016.328 1.016 1.031v.281C1.766-2.39.25-2 .25-1 .25-.11 1.375.047 2.016.047c.687 0 1.156-.281 1.39-.703 0 .219 0 .656.969.656h.438c.171 0 .296 0 .296-.219ZM3.25-1.25c0 .938-1.047.938-1.078.938-.453 0-.828-.282-.828-.688 0-.297.156-1 1.906-1.078Zm0 0"/></symbol><symbol overflow="visible" id="f"><path style="stroke:none" d="M3.828-1.25c0-.469-.265-.75-.422-.89-.406-.329-.687-.376-1.39-.5-.438-.063-1-.157-1-.563 0-.531.828-.531 1.03-.531 1 0 1.032.53 1.063.765 0 .125.125.125.22.125.218 0 .233-.047.233-.265v-.688c0-.172 0-.265-.187-.265-.078 0-.234.078-.39.156-.282-.125-.641-.156-.938-.156-.266 0-1.703 0-1.703 1.187 0 .938 1.187 1.14 1.5 1.188.734.125 1.328.218 1.328.734 0 .64-.844.64-1.047.64-.453 0-1.047-.109-1.297-.937-.047-.156-.062-.172-.25-.172-.234 0-.234.047-.234.266v.953c0 .156 0 .25.187.25.063 0 .078 0 .281-.125l.235-.14c.422.265.906.265 1.078.265.266 0 1.703 0 1.703-1.297Zm0 0"/></symbol><symbol overflow="visible" id="g"><path style="stroke:none" d="M5.531-1.984c0-1.188-.812-2.047-2.172-2.047-.718 0-1.218.297-1.39.422v-.422L.375-3.97v.438c.172 0 .313 0 .438.031.171.031.171.125.171.313v4.484H.375v.437L1.5 1.72l1.14.015v-.437h-.609v-1.64c.531.39 1.016.39 1.188.39 1.406 0 2.312-.844 2.312-2.031ZM4.344-2c0 1.25-.64 1.688-1.235 1.688-.453 0-.843-.25-1.078-.625v-2.157a1.548 1.548 0 0 1 1.188-.562c.625 0 1.125.562 1.125 1.656Zm0 0"/></symbol><symbol overflow="visible" id="h"><path style="stroke:none" d="M4.406-1.047c0-.14-.125-.14-.234-.14-.172 0-.172.015-.25.171-.172.438-.578.688-1.11.688-1.265 0-1.265-1.297-1.265-1.703 0-.531 0-1.64 1.172-1.64.078 0 .562 0 .562.046l-.031.047a.602.602 0 0 0-.125.375c0 .36.281.578.594.578a.569.569 0 0 0 .578-.594c0-.844-1.25-.844-1.61-.844C.97-4.063.345-2.968.345-1.983c0 1.125.812 2.03 2.297 2.03.343 0 .78-.046 1.156-.28.515-.313.61-.782.61-.813Zm0 0"/></symbol><symbol overflow="visible" id="i"><path style="stroke:none" d="M4.563-1.047c0-.172-.172-.172-.235-.172-.156 0-.172.047-.234.172-.203.469-.75.719-1.313.719-1.281 0-1.297-1.156-1.297-1.594h2.782c.187 0 .296 0 .296-.25 0-.203-.015-1-.593-1.484-.406-.328-.953-.406-1.39-.406-1.532 0-2.282.968-2.282 2.046 0 1.172.89 2.063 2.406 2.063 1.485 0 1.86-.938 1.86-1.094ZM3.688-2.25H1.483c.016-.406.063-1.453 1.094-1.453 1.047 0 1.094 1.094 1.11 1.453Zm0 0"/></symbol><symbol overflow="visible" id="j"><path style="stroke:none" d="M4.078-3.281c0-.453-.469-.75-1-.75-.625 0-1 .453-1.203.968h-.016v-.968L.375-3.97v.438c.531 0 .61 0 .61.36v2.733h-.61V0l1.14-.031c.22 0 .75 0 1.22.031v-.438h-.766v-1.515c0-.656.25-1.703 1.11-1.719a.571.571 0 0 0-.142.39c0 .391.313.579.563.579.297 0 .578-.203.578-.578Zm0 0"/></symbol><symbol overflow="visible" id="k"><path style="stroke:none" d="M5.531-1.984c0-1.22-.875-2.047-2.187-2.047-.719 0-1.203.297-1.375.422v-2.61l-1.594.063v.437c.531 0 .61 0 .61.36V0h.453l.421-.516c.282.297.72.563 1.36.563 1.406 0 2.312-.844 2.312-2.031Zm-1.187-.032c0 .391 0 .844-.188 1.172-.297.5-.843.531-1.031.531-.547 0-.906-.328-1.094-.625v-2.171a1.553 1.553 0 0 1 1.203-.563c1.11 0 1.11 1.078 1.11 1.656Zm0 0"/></symbol><clipPath id="a"><path d="M0 28h74v45.46H0Zm0 0"/></clipPath></defs><path style="fill:none;stroke-width:.3985;stroke-linecap:round;stroke-linejoin:miter;stroke:#000;stroke-opacity:1;stroke-miterlimit:10" d="M-28.345-1.993v3.985M28.346-1.993v3.985M-1.994-28.348h3.985M-1.994 28.347h3.985" transform="matrix(1 0 0 -1 36.439 36.64)"/><path style="fill:none;stroke-width:.3985;stroke-linecap:butt;stroke-linejoin:miter;stroke:#000;stroke-opacity:1;stroke-miterlimit:10" d="M-35.818 0H35.42" transform="matrix(1 0 0 -1 36.439 36.64)"/><path style="fill:none;stroke-width:.3985;stroke-linecap:round;stroke-linejoin:round;stroke:#000;stroke-opacity:1;stroke-miterlimit:10" d="M-2.074 2.39C-1.695.956-.851.28 0 0-.85-.279-1.695-.959-2.074-2.392" transform="matrix(1 0 0 -1 72.058 36.64)"/><path style="fill:none;stroke-width:.3985;stroke-linecap:butt;stroke-linejoin:miter;stroke:#000;stroke-opacity:1;stroke-miterlimit:10" d="M-.002-35.817v71.238" transform="matrix(1 0 0 -1 36.439 36.64)"/><path style="fill:none;stroke-width:.3985;stroke-linecap:round;stroke-linejoin:round;stroke:#000;stroke-opacity:1;stroke-miterlimit:10" d="M-2.073 2.392C-1.694.955-.851.28 0 .002-.851-.28-1.694-.956-2.073-2.39" transform="matrix(0 -1 -1 0 36.439 1.02)"/><path style="fill:none;stroke-width:.59776;stroke-linecap:butt;stroke-linejoin:miter;stroke:#000;stroke-opacity:1;stroke-dasharray:2.98885,1.19554;stroke-miterlimit:10" d="m-28.345 28.347 56.691-14.172" transform="matrix(1 0 0 -1 36.439 36.64)"/><g clip-path="url(#a)"><path style="fill:none;stroke-width:.59776;stroke-linecap:butt;stroke-linejoin:miter;stroke:#000;stroke-opacity:1;stroke-miterlimit:10" d="M-28.345-28.348 28.346-.001" transform="matrix(1 0 0 -1 36.439 36.64)"/></g><use xlink:href="#b" x="2.682" y="46.424" style="fill:#000;fill-opacity:1"/><use xlink:href="#c" x="9.268" y="46.424" style="fill:#000;fill-opacity:1"/><use xlink:href="#c" x="62.668" y="46.424" style="fill:#000;fill-opacity:1"/><use xlink:href="#b" x="20.969" y="67.139" style="fill:#000;fill-opacity:1"/><use xlink:href="#c" x="27.556" y="67.139" style="fill:#000;fill-opacity:1"/><use xlink:href="#d" x="29.548" y="44.432" style="fill:#000;fill-opacity:1"/><use xlink:href="#c" x="27.556" y="10.861" style="fill:#000;fill-opacity:1"/><use xlink:href="#e" x="108.948" y="27.922" style="fill:#000;fill-opacity:1"/><path style="fill:none;stroke-width:.59776;stroke-linecap:butt;stroke-linejoin:miter;stroke:#000;stroke-opacity:1;stroke-miterlimit:10" d="m-19.924 0 4.98 1.328 9.961-2.656L.002 0" transform="matrix(1 0 0 -1 103.971 25.711)"/><g style="fill:#000;fill-opacity:1"><use xlink:href="#f" x="108.948" y="38.881"/><use xlink:href="#g" x="113.135" y="38.881"/><use xlink:href="#e" x="119.026" y="38.881"/><use xlink:href="#h" x="124.182" y="38.881"/><use xlink:href="#i" x="128.898" y="38.881"/><use xlink:href="#j" x="133.767" y="38.881"/></g><path style="fill:none;stroke-width:.3985;stroke-linecap:butt;stroke-linejoin:miter;stroke:#000;stroke-opacity:1;stroke-miterlimit:10" d="M1.994.001A1.996 1.996 0 0 1 .002 1.993 1.996 1.996 0 0 1-1.994.001a1.994 1.994 0 0 1 3.988 0Zm0 0" transform="matrix(1 0 0 -1 103.971 36.669)"/><use xlink:href="#k" x="108.948" y="49.84" style="fill:#000;fill-opacity:1"/><path style="fill:none;stroke-width:.59776;stroke-linecap:butt;stroke-linejoin:miter;stroke:#000;stroke-opacity:1;stroke-dasharray:2.98885,1.19554;stroke-miterlimit:10" d="m-19.924 0 4.98 1.327 9.961-2.652L.002-.001" transform="matrix(1 0 0 -1 103.971 47.628)"/></svg>