<svg xmlns="http://www.w3.org/2000/svg" width="117.843" height="81.363" viewBox="0 0 88.382 61.022" version="1.2"><defs><clipPath id="a"><path d="M0 14h72v46.531H0Zm0 0"/></clipPath><clipPath id="b"><path d="M0 0h88.074v60.531H0Zm0 0"/></clipPath></defs><path style="fill:none;stroke-width:.19925;stroke-linecap:butt;stroke-linejoin:miter;stroke:gray;stroke-opacity:1;stroke-miterlimit:10" d="M-.001 0h85.043M-.001 28.346h85.043M-.001 56.683h85.043M-.001-.001v56.696M28.347-.001v56.696M56.694-.001v56.696M85.03-.001v56.696" transform="matrix(1 0 0 -1 .919 57.304)"/><g clip-path="url(#a)"><path style="fill:none;stroke-width:.99628;stroke-linecap:butt;stroke-linejoin:miter;stroke:#000;stroke-opacity:1;stroke-miterlimit:10" d="m-.001 0 56.695 28.347" transform="matrix(1 0 0 -1 .919 57.304)"/></g><g clip-path="url(#b)"><path style="fill:none;stroke-width:.99628;stroke-linecap:butt;stroke-linejoin:miter;stroke:red;stroke-opacity:1;stroke-miterlimit:10" d="m0 0 11.338 5.67" transform="matrix(5 0 0 -5 29.265 57.304)"/></g></svg>