<svg xmlns="http://www.w3.org/2000/svg" width="127.555" height="80.739" viewBox="0 0 95.666 60.554" version="1.2"><defs><clipPath id="a"><path d="M0 23h95.5v37.332H0Zm0 0"/></clipPath><clipPath id="b"><path d="M0 21h95.5v39.332H0Zm0 0"/></clipPath><clipPath id="c"><path d="M0 17h95.5v43.332H0Zm0 0"/></clipPath></defs><path style="fill:none;stroke-width:.19925;stroke-linecap:butt;stroke-linejoin:miter;stroke:gray;stroke-opacity:1;stroke-miterlimit:10" d="M0 0h85.04M0 28.347h85.04M0 56.683h85.04M0 0v56.695M28.348 0v56.695M56.695 0v56.695M85.031 0v56.695" transform="matrix(1 0 0 -1 6.125 57.57)"/><g clip-path="url(#a)"><path style="fill:none;stroke-width:.3985;stroke-linecap:butt;stroke-linejoin:miter;stroke:#000;stroke-opacity:1;stroke-miterlimit:10" d="m0 0 28.348 28.347C59.66 28.347 85.039 15.656 85.039 0" transform="matrix(1 0 0 -1 6.125 57.57)"/></g><g clip-path="url(#b)"><path style="fill:none;stroke-width:.3985;stroke-linecap:butt;stroke-linejoin:miter;stroke:#000;stroke-opacity:1;stroke-miterlimit:10" d="M-1.762 0h3.524M0-1.762v3.523m5.285 5.286h3.52M7.043 5.285v3.52m5.285 5.285h3.524m-1.762-1.762v3.523m5.285 5.281h3.52m-1.762-1.757v3.52m5.285 5.284h3.523m-1.761-1.761v3.523m8.777-.664 2.266-2.695m-2.48.215 2.694 2.265m7.524-1.008 1.996-2.898m-2.45.45 2.903 2m7.399-1.778 1.664-3.106m-2.383.72 3.101 1.663m7.157-2.691 1.21-3.309m-2.257 1.05 3.308 1.208m6.668-3.898.5-3.485m-1.992 1.492 3.488.5m5.508-5.675-.77-3.438M80.68 8.965l3.437-.77" transform="matrix(1 0 0 -1 6.125 57.57)"/></g><g clip-path="url(#c)"><path style="fill:none;stroke-width:.3985;stroke-linecap:butt;stroke-linejoin:miter;stroke:red;stroke-opacity:1;stroke-miterlimit:10" d="M-5.285 3.523h3.523m-1.761-1.762v3.524m5.285 5.281h3.523M3.523 8.804v3.524m5.282 5.285h3.523m-1.762-1.762v3.524m5.286 5.28h3.523m-1.762-1.76v3.523m5.282 5.285h3.523m-1.762-1.762v3.52m12.73.78 2.266-2.698m-2.48.215 2.695 2.269m7.996-1.074 2-2.899m-2.449.45 2.898 2m7.938-1.91 1.664-3.102m-2.383.719 3.102 1.664m7.816-2.946 1.207-3.308m-2.258 1.05 3.309 1.208m7.555-4.426.504-3.485m-1.996 1.493 3.488.5m6.73-6.996-.77-3.434m-1.331 2.101 3.433-.769" transform="matrix(1 0 0 -1 6.125 57.57)"/></g></svg>