<svg xmlns="http://www.w3.org/2000/svg" xmlns:xlink="http://www.w3.org/1999/xlink" width="145.275" height="100.371" viewBox="0 0 108.956 75.278" version="1.2"><defs><symbol overflow="visible" id="a"><path style="stroke:none" d="M5.281-3.188c0-.953-.015-3.343-2.422-3.343C.453-6.531.453-4.156.453-3.188c0 1 0 3.297 2.406 3.297 2.391 0 2.422-2.296 2.422-3.296ZM4-3.296c0 .563 0 1.469-.078 1.985-.14.921-.766 1.062-1.063 1.062-.359 0-.921-.219-1.046-.953-.094-.516-.094-1.547-.094-2.094 0-.719 0-1.375.078-1.89.125-.891.828-.985 1.062-.985.375 0 .782.188.97.625C4-5.172 4-4.109 4-3.297Zm0 0"/></symbol><symbol overflow="visible" id="b"><path style="stroke:none" d="M4.922 0v-.469h-1.39v-5.734c0-.234 0-.328-.266-.328-.11 0-.125 0-.22.078-.765.562-1.796.562-2 .562H.845v.47h.203c.156 0 .703-.016 1.297-.204v5.156H.954V0c.437-.031 1.5-.031 1.984-.031s1.546 0 1.984.031Zm0 0"/></symbol><clipPath id="c"><path d="M99 37h9.934v1H99Zm0 0"/></clipPath></defs><use xlink:href="#a" x=".563" y="7.146" style="fill:#000;fill-opacity:1"/><path style="fill:none;stroke-width:.3985;stroke-linecap:butt;stroke-linejoin:miter;stroke:#000;stroke-opacity:1;stroke-miterlimit:10" d="M2.906 8.719c4.813 0 8.715-3.903 8.715-8.72 0-4.812-3.902-8.718-8.715-8.718h-13.078V8.72Zm0 0" transform="matrix(1 0 0 -1 39.824 19.492)"/><use xlink:href="#a" x=".563" y="40.533" style="fill:#000;fill-opacity:1"/><path style="fill:none;stroke-width:.3985;stroke-linecap:butt;stroke-linejoin:miter;stroke:#000;stroke-opacity:1;stroke-miterlimit:10" d="M-1.454 8.716c6.23 0 11.988-3.32 15.101-8.715A17.436 17.436 0 0 0-1.454-8.718h-8.715A17.47 17.47 0 0 1-7.833.001c0 3.058-.809 6.066-2.336 8.715Zm0 0" transform="matrix(1 0 0 -1 85.544 37.325)"/><path style="fill:none;stroke-width:.3985;stroke-linecap:butt;stroke-linejoin:miter;stroke:#000;stroke-opacity:1;stroke-miterlimit:10" d="M2.906 8.717A8.716 8.716 0 0 0 11.621.002c0-4.817-3.902-8.719-8.715-8.719h-13.078V8.717ZM15.31.002a1.744 1.744 0 1 1-3.488-.003 1.744 1.744 0 0 1 3.488.003Zm0 0" transform="matrix(1 0 0 -1 39.824 55.158)"/><use xlink:href="#b" x=".563" y="73.921" style="fill:#000;fill-opacity:1"/><path style="fill:none;stroke-width:.3985;stroke-linecap:butt;stroke-linejoin:miter;stroke:#000;stroke-opacity:1;stroke-miterlimit:10" d="M-38.504 33.334H-30V20.684h11.137M-38.504-.053H-30v14.926h11.137M-38.504-.053H-30v-14.93h11.137M-38.504-33.39H-30v12.595h11.137M3.329 17.779h8.503V2.849h17.114M7.016-17.89h8.504v14.93h13.426" transform="matrix(1 0 0 -1 48.316 37.271)"/><g clip-path="url(#c)"><path style="fill:none;stroke-width:.3985;stroke-linecap:butt;stroke-linejoin:miter;stroke:#000;stroke-opacity:1;stroke-miterlimit:10" d="M51.106-.053h8.504" transform="matrix(1 0 0 -1 48.316 37.271)"/></g></svg>