<svg xmlns="http://www.w3.org/2000/svg" xmlns:xlink="http://www.w3.org/1999/xlink" width="125.043" height="99.843" viewBox="0 0 93.782 74.882" version="1.2"><defs><symbol overflow="visible" id="a"><path style="stroke:none" d="m7.422-4.281-.234-.407-.922.532-2.954-5.11.922-.53L4-10.204c-.313.203-1.156.687-1.531.906-.375.219-1.203.703-1.563.875l.235.406.937-.53 1.297 2.233L.594-4.718-.703-6.953l.937-.531L0-7.891c-.313.204-1.14.688-1.531.907-.36.203-1.219.703-1.547.875l.234.406.922-.547 2.953 5.11-.922.546.235.406C.64-.405 1.5-.905 1.859-1.109c.391-.22 1.22-.704 1.563-.86l-.235-.406-.937.531L.828-4.312 3.61-5.907l1.422 2.468-.937.532.234.406a44.036 44.036 0 0 1 1.531-.922c.375-.219 1.22-.703 1.563-.86Zm0 0"/></symbol><symbol overflow="visible" id="b"><path style="stroke:none" d="M3.688-3.469c-.094-.14-.266-.047-.297-.031-.157.094-.141.125-.11.297.063.531-.281 1.078-.844 1.406-1.218.703-1.89-.453-2.14-.875l2.61-1.5c.202-.11.28-.156.14-.39-.156-.266-.578-.875-1.25-1.063-.5-.14-1.047-.016-1.64.328C-1.22-4.5-1.47-3.172-.86-2.109c.671 1.171 2.03 1.5 3.421.703 1.36-.797 1.204-1.907 1.126-2.063Zm-1.485-.687L.125-2.97c-.172-.328-.375-.719-.36-1.094.032-.468.329-.78.563-.921 1.016-.579 1.688.53 1.875.828Zm0 0"/></symbol><symbol overflow="visible" id="c"><path style="stroke:none" d="m2.531-1.453-.234-.406-.594.343-3.219-5.593-1.5.953.235.406c.547-.313.594-.344.797-.016L.766-.984l-.594.343.234.407 1.047-.641Zm0 0"/></symbol><symbol overflow="visible" id="d"><path style="stroke:none" d="M3.61-4.578C2.937-5.75 1.64-6.141.218-5.328c-1.407.812-1.703 2.14-1.032 3.297.61 1.062 1.891 1.484 3.313.656 1.453-.844 1.719-2.156 1.11-3.203Zm-1.172.547c.437.734.968 1.672-.141 2.312C1.203-1.094.672-2.03.234-2.766c-.218-.406-.468-.828-.484-1.203-.031-.422.234-.812.64-1.047.376-.218.813-.296 1.172-.109.36.188.641.672.875 1.094Zm0 0"/></symbol><symbol overflow="visible" id="e"><path style="stroke:none" d="m4.984-7.438-.234-.406a9.4 9.4 0 0 1-.656.422l-.844.453.234.407c.079-.047.5-.297.547-.204.016.032.016.094.032.125l.375 2.735L2.063-5.75l.484-.281-.235-.407-.968.61c-.36.203-.75.39-.875.469l.234.406.516-.297c.422.328.437.344.437.344.016.031.016.11.032.125l.265 2.062-2.187-1.703.484-.281-.234-.406-1.047.656-.953.5.234.406.516-.297 3.171 2.469c.141.11.22.188.438.063.219-.125.203-.235.188-.422L2.171-4.5 4.39-2.797c.14.125.218.203.421.078.22-.125.22-.25.188-.437l-.516-3.766c-.015-.125-.015-.219.5-.516Zm0 0"/></symbol><symbol overflow="visible" id="f"><path style="stroke:none" d="M1.984-5.39c-.265-.454-.859-.438-1.328-.173-.594.344-.687.985-.562 1.641l-.563-.984L-1.875-4l.234.406c.532-.297.594-.344.797-.015L.687-.938l-.593.344.234.406 1.063-.656c.328-.187.875-.5 1.203-.656l-.235-.406-.734.437L.75-2.984C.406-3.578 0-4.766.86-5.266c0 0-.063.25.078.485.203.36.578.375.812.234.266-.156.438-.484.234-.844Zm0 0"/></symbol><symbol overflow="visible" id="g"><path style="stroke:none" d="m5.188-2.984-.235-.407c-.531.297-.594.344-.781 0L1.14-8.64l-1.5.954.234.406c.531-.313.61-.344.813-.016l.968 1.703c-.625-.093-1.11.11-1.406.266C-1-4.594-1.469-3.312-.766-2.094c.657 1.14 1.922 1.5 3.188.766.531-.313.844-.75.984-1.11l.235.407Zm-2.094.015c-.031.219-.094.906-.75 1.281-1.047.61-1.656-.437-2-1.046-.25-.422-.516-.875-.485-1.344.032-.5.391-.828.657-.984.5-.282 1-.204 1.343-.063Zm0 0"/></symbol><clipPath id="h"><path d="M0 38h42v36.824H0Zm0 0"/></clipPath></defs><path style="fill:none;stroke-width:.19925;stroke-linecap:butt;stroke-linejoin:miter;stroke:gray;stroke-opacity:1;stroke-miterlimit:10" d="M0 .002h85.042M0 28.345h85.043M0 56.686h85.043M0 .002v56.691M28.347.002v56.691M56.694.002v56.691M85.03.002v56.691" transform="matrix(1 0 0 -1 1.036 73.658)"/><path style="stroke:none;fill-rule:nonzero;fill:#ccf;fill-opacity:1" d="M85.852.96 29.805 33.317l6.808 11.79L92.66 12.75Zm0 0"/><g style="fill:#000;fill-opacity:1"><use xlink:href="#a" x="37.8" y="40.519"/><use xlink:href="#b" x="45.565" y="36.036"/><use xlink:href="#c" x="50.112" y="33.411"/><use xlink:href="#c" x="52.864" y="31.822"/><use xlink:href="#d" x="55.617" y="30.233"/></g><use xlink:href="#e" x="63.882" y="25.46" style="fill:#000;fill-opacity:1"/><g style="fill:#000;fill-opacity:1"><use xlink:href="#d" x="70.776" y="21.48"/><use xlink:href="#f" x="75.737" y="18.616"/><use xlink:href="#c" x="79.827" y="16.255"/><use xlink:href="#g" x="82.579" y="14.666"/></g><g clip-path="url(#h)"><path style="fill:none;stroke-width:.3985;stroke-linecap:butt;stroke-linejoin:miter;stroke:#000;stroke-opacity:1;stroke-miterlimit:10" d="M34.89 29.346 0 .002" transform="matrix(1 0 0 -1 1.036 73.658)"/></g></svg>