<svg xmlns="http://www.w3.org/2000/svg" xmlns:xlink="http://www.w3.org/1999/xlink" width="111.795" height="145.227" viewBox="0 0 83.846 108.92" version="1.2"><defs><symbol overflow="visible" id="d"><path style="stroke:none" d="M8.547-.953c0-.219-.14-.219-.235-.219-.203 0-.218.11-.234.234-.047.47-.328.688-.625.688-.61 0-.687-.703-.75-1.125-.016-.11-.094-.797-.11-.844-.14-.703-.687-1.015-1.109-1.172C6.641-3.687 7.141-4.344 7.141-5c0-1-1.094-1.844-2.97-1.844H.392v.469h1.078v5.906H.39V0C.75-.031 1.719-.031 2.14-.031c.421 0 1.39 0 1.75.031v-.469H2.828v-2.765h1.156c.141 0 .579 0 .891.328.313.36.313.547.313 1.265 0 .657 0 1.157.703 1.485.437.218 1.062.265 1.468.265 1.063 0 1.188-.89 1.188-1.062ZM5.625-4.984c0 .562 0 1.39-1.64 1.39H2.827v-2.781H4c1.61 0 1.625.781 1.625 1.39Zm0 0"/></symbol><symbol overflow="visible" id="e"><path style="stroke:none" d="M4.922-1.172c0-.172-.188-.172-.234-.172-.172 0-.188.047-.25.203-.204.485-.782.797-1.422.797-1.407 0-1.422-1.328-1.422-1.828h3.015c.22 0 .313 0 .313-.265 0-.313-.063-1.047-.563-1.547-.359-.36-.89-.532-1.578-.532C1.187-4.516.312-3.484.312-2.25c0 1.344 1 2.313 2.61 2.313 1.578 0 2-1.063 2-1.235ZM3.984-2.5h-2.39c.015-.39.031-.813.234-1.14.266-.391.672-.516.953-.516 1.172 0 1.188 1.312 1.203 1.656Zm0 0"/></symbol><symbol overflow="visible" id="f"><path style="stroke:none" d="M9.328 0v-.469h-.687v-2.578c0-1.031-.516-1.437-1.547-1.437-.907 0-1.422.5-1.688.953-.187-.922-1.11-.953-1.484-.953-.875 0-1.438.453-1.766 1.078v-1.078l-1.703.078v.468c.61 0 .688 0 .688.391v3.078H.453V0l1.25-.031L2.953 0v-.469h-.687v-2.078c0-1.094.875-1.578 1.5-1.578.328 0 .546.203.546.969V-.47h-.687V0l1.266-.031L6.14 0v-.469h-.688v-2.078c0-1.094.86-1.578 1.484-1.578.344 0 .563.203.563.969V-.47h-.688V0l1.25-.031Zm0 0"/></symbol><symbol overflow="visible" id="g"><path style="stroke:none" d="M5.516-.234c0-.235-.125-.235-.266-.235-.61-.015-.61-.14-.61-.375v-2.14c0-.891-.702-1.532-2.187-1.532-.562 0-1.781.047-1.781.922 0 .438.344.625.61.625.312 0 .624-.219.624-.625 0-.297-.187-.469-.218-.5a5.28 5.28 0 0 1 .718-.062c.75 0 1.11.422 1.11 1.172v.343c-.72.032-3.25.125-3.25 1.563C.266-.125 1.5.062 2.187.062c.797 0 1.266-.406 1.485-.828 0 .313 0 .766 1.047.766h.468c.204 0 .329 0 .329-.234Zm-2-1.157c0 .97-.922 1.094-1.172 1.094-.516 0-.906-.344-.906-.797 0-1.062 1.578-1.203 2.078-1.234Zm0 0"/></symbol><symbol overflow="visible" id="h"><path style="stroke:none" d="M4.406-3.672c0-.531-.531-.812-1.062-.812-.688 0-1.094.5-1.313 1.125v-1.125l-1.656.078v.468c.61 0 .688 0 .688.391v3.078H.375V0l1.25-.031C2-.031 2.641-.031 3 0v-.469h-.86v-1.75c0-.687.235-1.906 1.235-1.906 0 0-.188.172-.188.453 0 .406.329.61.61.61.297 0 .61-.204.61-.61Zm0 0"/></symbol><symbol overflow="visible" id="i"><path style="stroke:none" d="M5.86 0v-.469h-.173c-.437 0-.468-.047-.593-.203L3.406-2.766 4.703-3.78c.14-.11.234-.172.906-.172v-.469c-.28.031-.53.031-.78.031l-1.157-.03v.468c.234 0 .265.031.344.11L2.14-2.36v-4.563l-1.766.078v.469c.61 0 .688 0 .688.39v5.516H.375V0l1.188-.031L2.766 0v-.469h-.688v-1.265c.297-.235.375-.297.578-.422l1 1.25c.094.125.25.312.25.344 0 .093-.172.093-.312.093V0a52.51 52.51 0 0 1 1.219-.031c.359 0 .703.015 1.046.031Zm0 0"/></symbol><symbol overflow="visible" id="l"><path style="stroke:none" d="M8.422-6.375v-.469c-.375.032-.938.032-1.328.032-.422 0-.938 0-1.36-.032v.469h.25c.188 0 .36.016.532.031.296.032.296.047.296.266v3.75C6.813-.844 5.734-.36 4.642-.36c-1.735 0-1.766-1.313-1.766-1.86v-4.156h1.078v-.469c-.375.032-1.344.032-1.781.032-.422 0-1.406 0-1.781-.032v.469h1.078v4.078C1.469-.984 2.547.11 4.609.11 6.5.11 7.344-1.062 7.344-2.28v-3.797c0-.219.015-.234.297-.266.234-.031.25-.031.53-.031Zm0 0"/></symbol><symbol overflow="visible" id="m"><path style="stroke:none" d="M4.14-1.39c0-.438-.202-.782-.546-1.063-.39-.281-.719-.344-1.485-.485-.375-.062-1.015-.171-1.015-.64 0-.625.922-.625 1.11-.625.75 0 1.124.297 1.171.844.016.156.031.203.234.203.235 0 .235-.047.235-.281v-.797c0-.188 0-.282-.172-.282-.047 0-.063 0-.453.188-.266-.125-.61-.188-1-.188-.313 0-1.844 0-1.844 1.313 0 .39.203.656.406.828.39.344.781.406 1.547.547.36.062 1.094.187 1.094.781 0 .75-.906.75-1.125.75C1.234-.297.984-1.03.859-1.453c-.046-.14-.109-.14-.234-.14-.25 0-.25.062-.25.28v1.094c0 .188 0 .281.188.281.062 0 .078 0 .296-.156l.25-.172c.47.329.985.329 1.188.329.312 0 1.844 0 1.844-1.454Zm0 0"/></symbol><symbol overflow="visible" id="n"><path style="stroke:none" d="M7.64-2.266c0-.203-.077-.203-.25-.203-.124 0-.218 0-.218.172C7.094-.969 5.89-.359 4.89-.359c-.782 0-1.625-.235-2.141-.844-.469-.578-.594-1.313-.594-2.219 0-.562.031-1.625.672-2.297.64-.656 1.516-.765 2.031-.765 1.079 0 2.016.765 2.235 2.03.031.188.047.204.265.204.266 0 .282-.016.282-.281v-2.14c0-.188 0-.282-.188-.282-.094 0-.11.031-.187.094l-.657.593a3.03 3.03 0 0 0-1.968-.687c-2.485 0-4 1.484-4 3.531S2.156.11 4.64.11c1.875 0 3-1.218 3-2.375Zm0 0"/></symbol><clipPath id="a"><path d="M1 1h58v25H1Zm0 0"/></clipPath><clipPath id="b"><path d="M1.14 26.293V1.176h52.844l4.98 4.984v20.133ZM53.985 1.176V6.16h4.98-4.98"/></clipPath><clipPath id="j"><path d="M0 68h83.77v40.879H0Zm0 0"/></clipPath><clipPath id="k"><path d="M0 79h83.77v29.879H0Zm0 0"/></clipPath><linearGradient id="c" gradientUnits="userSpaceOnUse" x1="0" y1="25.003" x2="0" y2="74.997" gradientTransform="matrix(1.15662 0 0 -.50238 -27.779 38.854)"><stop offset="0" style="stop-color:#fff;stop-opacity:1"/><stop offset=".008" style="stop-color:#fefefe;stop-opacity:1"/><stop offset=".016" style="stop-color:#fdfdfd;stop-opacity:1"/><stop offset=".023" style="stop-color:#fdfdfd;stop-opacity:1"/><stop offset=".031" style="stop-color:#fcfcfc;stop-opacity:1"/><stop offset=".039" style="stop-color:#fbfbfb;stop-opacity:1"/><stop offset=".047" style="stop-color:#fafafa;stop-opacity:1"/><stop offset=".055" style="stop-color:#f9f9f9;stop-opacity:1"/><stop offset=".063" style="stop-color:#f8f8f8;stop-opacity:1"/><stop offset=".07" style="stop-color:#f7f7f7;stop-opacity:1"/><stop offset=".078" style="stop-color:#f6f6f6;stop-opacity:1"/><stop offset=".086" style="stop-color:#f5f5f5;stop-opacity:1"/><stop offset=".094" style="stop-color:#f4f4f4;stop-opacity:1"/><stop offset=".102" style="stop-color:#f3f3f3;stop-opacity:1"/><stop offset=".109" style="stop-color:#f2f2f2;stop-opacity:1"/><stop offset=".117" style="stop-color:#f1f1f1;stop-opacity:1"/><stop offset=".125" style="stop-color:#f0f0f0;stop-opacity:1"/><stop offset=".133" style="stop-color:#efefef;stop-opacity:1"/><stop offset=".141" style="stop-color:#eee;stop-opacity:1"/><stop offset=".148" style="stop-color:#ededed;stop-opacity:1"/><stop offset=".156" style="stop-color:#ececec;stop-opacity:1"/><stop offset=".164" style="stop-color:#ebebeb;stop-opacity:1"/><stop offset=".172" style="stop-color:#eaeaea;stop-opacity:1"/><stop offset=".18" style="stop-color:#e9e9e9;stop-opacity:1"/><stop offset=".188" style="stop-color:#e8e8e8;stop-opacity:1"/><stop offset=".195" style="stop-color:#e7e7e7;stop-opacity:1"/><stop offset=".203" style="stop-color:#e6e6e6;stop-opacity:1"/><stop offset=".211" style="stop-color:#e5e5e5;stop-opacity:1"/><stop offset=".219" style="stop-color:#e4e4e4;stop-opacity:1"/><stop offset=".227" style="stop-color:#e3e3e3;stop-opacity:1"/><stop offset=".234" style="stop-color:#e2e2e2;stop-opacity:1"/><stop offset=".242" style="stop-color:#e1e1e1;stop-opacity:1"/><stop offset=".25" style="stop-color:#e0e0e0;stop-opacity:1"/><stop offset=".258" style="stop-color:#dfdfdf;stop-opacity:1"/><stop offset=".266" style="stop-color:#dedede;stop-opacity:1"/><stop offset=".273" style="stop-color:#ddd;stop-opacity:1"/><stop offset=".281" style="stop-color:#dcdcdc;stop-opacity:1"/><stop offset=".289" style="stop-color:#dbdbdb;stop-opacity:1"/><stop offset=".297" style="stop-color:#dadada;stop-opacity:1"/><stop offset=".305" style="stop-color:#d9d9d9;stop-opacity:1"/><stop offset=".313" style="stop-color:#d8d8d8;stop-opacity:1"/><stop offset=".32" style="stop-color:#d7d7d7;stop-opacity:1"/><stop offset=".328" style="stop-color:#d6d6d6;stop-opacity:1"/><stop offset=".336" style="stop-color:#d5d5d5;stop-opacity:1"/><stop offset=".344" style="stop-color:#d4d4d4;stop-opacity:1"/><stop offset=".352" style="stop-color:#d3d3d3;stop-opacity:1"/><stop offset=".359" style="stop-color:#d2d2d2;stop-opacity:1"/><stop offset=".367" style="stop-color:#d1d1d1;stop-opacity:1"/><stop offset=".375" style="stop-color:#d0d0d0;stop-opacity:1"/><stop offset=".383" style="stop-color:#cfcfcf;stop-opacity:1"/><stop offset=".391" style="stop-color:#cecece;stop-opacity:1"/><stop offset=".398" style="stop-color:#cdcdcd;stop-opacity:1"/><stop offset=".406" style="stop-color:#ccc;stop-opacity:1"/><stop offset=".414" style="stop-color:#cbcbcb;stop-opacity:1"/><stop offset=".422" style="stop-color:#cacaca;stop-opacity:1"/><stop offset=".43" style="stop-color:#c9c9c9;stop-opacity:1"/><stop offset=".438" style="stop-color:#c8c8c8;stop-opacity:1"/><stop offset=".445" style="stop-color:#c7c7c7;stop-opacity:1"/><stop offset=".453" style="stop-color:#c6c6c6;stop-opacity:1"/><stop offset=".461" style="stop-color:#c5c5c5;stop-opacity:1"/><stop offset=".469" style="stop-color:#c4c4c4;stop-opacity:1"/><stop offset=".477" style="stop-color:#c3c3c3;stop-opacity:1"/><stop offset=".484" style="stop-color:#c2c2c2;stop-opacity:1"/><stop offset=".492" style="stop-color:#c1c1c1;stop-opacity:1"/><stop offset=".5" style="stop-color:silver;stop-opacity:1"/><stop offset=".508" style="stop-color:#bfbfbf;stop-opacity:1"/><stop offset=".516" style="stop-color:#bebebe;stop-opacity:1"/><stop offset=".523" style="stop-color:#bdbdbd;stop-opacity:1"/><stop offset=".531" style="stop-color:#bcbcbc;stop-opacity:1"/><stop offset=".539" style="stop-color:#bbb;stop-opacity:1"/><stop offset=".547" style="stop-color:#bababa;stop-opacity:1"/><stop offset=".555" style="stop-color:#b9b9b9;stop-opacity:1"/><stop offset=".563" style="stop-color:#b8b8b8;stop-opacity:1"/><stop offset=".57" style="stop-color:#b7b7b7;stop-opacity:1"/><stop offset=".578" style="stop-color:#b6b6b6;stop-opacity:1"/><stop offset=".586" style="stop-color:#b5b5b5;stop-opacity:1"/><stop offset=".594" style="stop-color:#b4b4b4;stop-opacity:1"/><stop offset=".602" style="stop-color:#b3b3b3;stop-opacity:1"/><stop offset=".609" style="stop-color:#b2b2b2;stop-opacity:1"/><stop offset=".617" style="stop-color:#b1b1b1;stop-opacity:1"/><stop offset=".625" style="stop-color:#b0b0b0;stop-opacity:1"/><stop offset=".633" style="stop-color:#afafaf;stop-opacity:1"/><stop offset=".641" style="stop-color:#aeaeae;stop-opacity:1"/><stop offset=".648" style="stop-color:#adadad;stop-opacity:1"/><stop offset=".656" style="stop-color:#acacac;stop-opacity:1"/><stop offset=".664" style="stop-color:#ababab;stop-opacity:1"/><stop offset=".672" style="stop-color:#aaa;stop-opacity:1"/><stop offset=".68" style="stop-color:#a9a9a9;stop-opacity:1"/><stop offset=".688" style="stop-color:#a8a8a8;stop-opacity:1"/><stop offset=".695" style="stop-color:#a7a7a7;stop-opacity:1"/><stop offset=".703" style="stop-color:#a6a6a6;stop-opacity:1"/><stop offset=".711" style="stop-color:#a5a5a5;stop-opacity:1"/><stop offset=".719" style="stop-color:#a4a4a4;stop-opacity:1"/><stop offset=".727" style="stop-color:#a3a3a3;stop-opacity:1"/><stop offset=".734" style="stop-color:#a2a2a2;stop-opacity:1"/><stop offset=".742" style="stop-color:#a1a1a1;stop-opacity:1"/><stop offset=".75" style="stop-color:#a0a0a0;stop-opacity:1"/><stop offset=".758" style="stop-color:#9f9f9f;stop-opacity:1"/><stop offset=".766" style="stop-color:#9e9e9e;stop-opacity:1"/><stop offset=".773" style="stop-color:#9d9d9d;stop-opacity:1"/><stop offset=".781" style="stop-color:#9c9c9c;stop-opacity:1"/><stop offset=".789" style="stop-color:#9b9b9b;stop-opacity:1"/><stop offset=".797" style="stop-color:#9a9a9a;stop-opacity:1"/><stop offset=".805" style="stop-color:#999;stop-opacity:1"/><stop offset=".813" style="stop-color:#989898;stop-opacity:1"/><stop offset=".82" style="stop-color:#979797;stop-opacity:1"/><stop offset=".828" style="stop-color:#969696;stop-opacity:1"/><stop offset=".836" style="stop-color:#959595;stop-opacity:1"/><stop offset=".844" style="stop-color:#949494;stop-opacity:1"/><stop offset=".852" style="stop-color:#939393;stop-opacity:1"/><stop offset=".859" style="stop-color:#929292;stop-opacity:1"/><stop offset=".867" style="stop-color:#919191;stop-opacity:1"/><stop offset=".875" style="stop-color:#909090;stop-opacity:1"/><stop offset=".883" style="stop-color:#8f8f8f;stop-opacity:1"/><stop offset=".891" style="stop-color:#8e8e8e;stop-opacity:1"/><stop offset=".898" style="stop-color:#8d8d8d;stop-opacity:1"/><stop offset=".906" style="stop-color:#8c8c8c;stop-opacity:1"/><stop offset=".914" style="stop-color:#8b8b8b;stop-opacity:1"/><stop offset=".922" style="stop-color:#8a8a8a;stop-opacity:1"/><stop offset=".93" style="stop-color:#898989;stop-opacity:1"/><stop offset=".938" style="stop-color:#888;stop-opacity:1"/><stop offset=".945" style="stop-color:#878787;stop-opacity:1"/><stop offset=".953" style="stop-color:#868686;stop-opacity:1"/><stop offset=".961" style="stop-color:#858585;stop-opacity:1"/><stop offset=".969" style="stop-color:#848484;stop-opacity:1"/><stop offset=".977" style="stop-color:#838383;stop-opacity:1"/><stop offset=".984" style="stop-color:#828282;stop-opacity:1"/><stop offset=".992" style="stop-color:#818181;stop-opacity:1"/><stop offset="1" style="stop-color:gray;stop-opacity:1"/></linearGradient></defs><g clip-path="url(#a)"><g clip-path="url(#b)"><path style="stroke:none;fill-rule:nonzero;fill:url(#c)" d="M1.14 26.293V1.176h57.825v25.117Zm0 0"/></g></g><path style="fill:none;stroke-width:.3985;stroke-linecap:butt;stroke-linejoin:miter;stroke:#000;stroke-opacity:1;stroke-miterlimit:10" d="M-28.911-12.558v25.117h52.843l4.98-4.984v-20.133Zm52.843 25.117V7.575h4.98-4.98" transform="matrix(1 0 0 -1 30.052 13.735)"/><g style="fill:#000;fill-opacity:1"><use xlink:href="#d" x="10.186" y="17.137"/><use xlink:href="#e" x="18.784" y="17.137"/><use xlink:href="#f" x="24.034" y="17.137"/><use xlink:href="#g" x="33.578" y="17.137"/><use xlink:href="#h" x="39.147" y="17.137"/><use xlink:href="#i" x="43.87" y="17.137"/></g><path style="stroke:none;fill-rule:nonzero;fill:#d2c92a;fill-opacity:1" d="M82.063 97.484c0-5.347-16.676-9.683-37.243-9.683-20.57 0-37.246 4.336-37.246 9.683 0 5.348 16.676 9.684 37.246 9.684 20.567 0 37.242-4.336 37.242-9.684Zm0 0"/><g clip-path="url(#j)"><path style="fill:none;stroke-width:1.39478;stroke-linecap:butt;stroke-linejoin:miter;stroke:#000;stroke-opacity:1;stroke-miterlimit:10" d="M52.01-83.75c0 5.348-16.675 9.684-37.242 9.684-20.57 0-37.246-4.336-37.246-9.683 0-5.348 16.676-9.684 37.246-9.684 20.567 0 37.242 4.336 37.242 9.684Zm0 0" transform="matrix(1 0 0 -1 30.052 13.735)"/></g><g clip-path="url(#k)"><path style="fill:none;stroke-width:.59776;stroke-linecap:butt;stroke-linejoin:miter;stroke:#fff;stroke-opacity:1;stroke-miterlimit:10" d="M52.01-83.75c0 5.348-16.675 9.684-37.242 9.684-20.57 0-37.246-4.336-37.246-9.683 0-5.348 16.676-9.684 37.246-9.684 20.567 0 37.242 4.336 37.242 9.684Zm0 0" transform="matrix(1 0 0 -1 30.052 13.735)"/></g><g style="fill:#000;fill-opacity:1"><use xlink:href="#l" x="21.805" y="100.901"/><use xlink:href="#m" x="30.622" y="100.901"/><use xlink:href="#e" x="35.145" y="100.901"/></g><g style="fill:#000;fill-opacity:1"><use xlink:href="#n" x="44.211" y="100.901"/><use xlink:href="#g" x="52.49" y="100.901"/><use xlink:href="#m" x="58.059" y="100.901"/><use xlink:href="#e" x="62.582" y="100.901"/></g><path style="fill:none;stroke-width:.3985;stroke-linecap:butt;stroke-linejoin:miter;stroke:#000;stroke-opacity:1;stroke-dasharray:2.98883,2.98883;stroke-miterlimit:10" d="m2.214-12.558 10.812-61.32" transform="matrix(1 0 0 -1 30.052 13.735)"/></svg>