<svg xmlns="http://www.w3.org/2000/svg" xmlns:xlink="http://www.w3.org/1999/xlink" width="149.571" height="16.323" viewBox="0 0 112.178 12.242" version="1.2"><defs><symbol overflow="visible" id="a"><path style="stroke:none" d="m1.266-.766 1.062-1.03c1.547-1.376 2.14-1.907 2.14-2.907 0-1.14-.89-1.938-2.109-1.938C1.234-6.64.5-5.719.5-4.828c0 .547.5.547.531.547.172 0 .516-.11.516-.532a.513.513 0 0 0-.531-.515c-.079 0-.094 0-.125.016.218-.657.765-1.016 1.343-1.016.907 0 1.329.812 1.329 1.625 0 .797-.485 1.578-1.047 2.203L.609-.375C.5-.265.5-.235.5 0h3.703l.266-1.734h-.235C4.172-1.438 4.11-1 4-.844c-.063.078-.719.078-.938.078Zm0 0"/></symbol><symbol overflow="visible" id="b"><path style="stroke:none" d="M2.328-4.438c0-.187 0-.187-.203-.187-.453.438-1.078.438-1.36.438v.25c.157 0 .626 0 1-.188v3.547c0 .234 0 .328-.687.328H.812V0c.125 0 .985-.031 1.235-.031.219 0 1.094.031 1.25.031v-.25H3.03c-.703 0-.703-.094-.703-.328Zm0 0"/></symbol><symbol overflow="visible" id="d"><path style="stroke:none" d="M3.516-1.266H3.28c-.015.157-.094.563-.187.625-.047.047-.578.047-.688.047H1.125c.734-.64.984-.844 1.39-1.172.516-.406 1-.843 1-1.5 0-.843-.734-1.359-1.624-1.359-.86 0-1.454.61-1.454 1.25 0 .344.297.39.376.39.156 0 .359-.124.359-.374 0-.125-.047-.375-.406-.375.218-.485.687-.641 1.015-.641.703 0 1.063.547 1.063 1.11 0 .609-.438 1.078-.656 1.328L.516-.266C.437-.203.437-.187.437 0h2.876Zm0 0"/></symbol><symbol overflow="visible" id="e"><path style="stroke:none" d="M1.906-2.328c.547 0 .938.375.938 1.125 0 .86-.516 1.125-.906 1.125-.282 0-.907-.078-1.188-.5.328 0 .406-.235.406-.39 0-.22-.172-.376-.39-.376a.38.38 0 0 0-.391.407C.375-.281 1.094.14 1.938.14c.968 0 1.64-.657 1.64-1.344 0-.547-.437-1.094-1.203-1.25.719-.266.984-.781.984-1.219 0-.547-.625-.953-1.406-.953-.766 0-1.36.375-1.36.938 0 .234.157.359.36.359.219 0 .36-.156.36-.344 0-.203-.141-.36-.36-.375.25-.297.719-.375.985-.375.312 0 .75.156.75.75 0 .297-.094.625-.282.828-.219.266-.422.281-.765.313-.172.015-.188.015-.22.015-.015 0-.077.016-.077.094 0 .094.062.094.187.094Zm0 0"/></symbol><symbol overflow="visible" id="f"><path style="stroke:none" d="M3.688-1.14v-.25h-.782V-4.5c0-.14 0-.203-.14-.203-.094 0-.125 0-.188.11L.266-1.392v.25h2.062v.563c0 .25 0 .328-.578.328h-.188V0c.36-.016.797-.031 1.047-.031.266 0 .704.015 1.063.031v-.25h-.188c-.578 0-.578-.078-.578-.328v-.563ZM2.375-3.939v2.547H.531Zm0 0"/></symbol><symbol overflow="visible" id="g"><path style="stroke:none" d="M1.078-3.89c.36.093.563.093.672.093.922 0 1.469-.625 1.469-.734 0-.078-.047-.094-.078-.094-.016 0-.032 0-.063.016-.172.062-.531.203-1.047.203-.203 0-.562-.016-1.015-.188-.079-.031-.094-.031-.094-.031-.094 0-.094.078-.094.188v2.046c0 .125 0 .204.11.204.062 0 .078 0 .14-.094.297-.375.734-.438.969-.438.422 0 .61.328.64.39.126.235.172.5.172.907 0 .203 0 .61-.218.922a.984.984 0 0 1-.813.422c-.453 0-.922-.25-1.094-.719.266.016.407-.156.407-.344 0-.296-.266-.343-.36-.343 0 0-.344 0-.344.375 0 .625.579 1.25 1.407 1.25.89 0 1.672-.657 1.672-1.547 0-.782-.594-1.5-1.454-1.5-.312 0-.671.062-.984.328Zm0 0"/></symbol><symbol overflow="visible" id="h"><path style="stroke:none" d="M1.047-2.281c0-.563.047-1.078.312-1.516.235-.375.61-.625 1.063-.625.203 0 .484.047.625.234-.172.016-.328.141-.328.344a.32.32 0 0 0 .328.328c.219 0 .344-.14.344-.343 0-.407-.297-.766-.985-.766-1 0-2.031.922-2.031 2.422C.375-.406 1.219.14 2 .14c.844 0 1.578-.657 1.578-1.563 0-.89-.703-1.547-1.515-1.547-.563 0-.86.375-1.016.688ZM2-.078c-.36 0-.625-.203-.781-.516-.094-.203-.157-.562-.157-.969 0-.687.407-1.203.97-1.203.312 0 .53.125.702.375.172.266.172.563.172.97 0 .39 0 .687-.187.968A.815.815 0 0 1 2-.078Zm0 0"/></symbol><symbol overflow="visible" id="i"><path style="stroke:none" d="M3.734-4.203c.063-.094.063-.11.063-.281H1.969c-.282 0-.36-.016-.61-.032C1-4.546.984-4.594.97-4.703H.734L.484-3.22H.72c.015-.11.094-.562.203-.64.047-.032.625-.032.719-.032h1.515c-.219.282-.578.72-.719.922-.906 1.188-1 2.297-1 2.703 0 .079 0 .407.329.407.343 0 .343-.313.343-.407v-.28c0-1.345.282-1.97.579-2.345Zm0 0"/></symbol><symbol overflow="visible" id="c"><path style="stroke:none" d="M2.5-.313c0-.671-.344-1.25-.922-1.25-.469 0-.766.36-.766.782 0 .406.266.781.766.781a.842.842 0 0 0 .563-.203C2.047.89 1.406 1.422 1.203 1.594c-.062.047-.094.078-.094.14 0 .094.11.204.188.204.156 0 1.203-.86 1.203-2.25Zm0 0"/></symbol></defs><use xlink:href="#a" x=".157" y="8.944" style="fill:#000;fill-opacity:1"/><use xlink:href="#b" x="5.138" y="5.328" style="fill:#000;fill-opacity:1"/><use xlink:href="#c" x="9.608" y="8.944" style="fill:#000;fill-opacity:1"/><use xlink:href="#a" x="16.601" y="8.944" style="fill:#000;fill-opacity:1"/><use xlink:href="#d" x="21.583" y="5.328" style="fill:#000;fill-opacity:1"/><use xlink:href="#c" x="26.052" y="8.944" style="fill:#000;fill-opacity:1"/><use xlink:href="#a" x="33.046" y="8.944" style="fill:#000;fill-opacity:1"/><use xlink:href="#e" x="38.027" y="5.328" style="fill:#000;fill-opacity:1"/><use xlink:href="#c" x="42.497" y="8.944" style="fill:#000;fill-opacity:1"/><use xlink:href="#a" x="49.49" y="8.944" style="fill:#000;fill-opacity:1"/><use xlink:href="#f" x="54.472" y="5.328" style="fill:#000;fill-opacity:1"/><use xlink:href="#c" x="58.941" y="8.944" style="fill:#000;fill-opacity:1"/><use xlink:href="#a" x="65.935" y="8.944" style="fill:#000;fill-opacity:1"/><use xlink:href="#g" x="70.916" y="5.328" style="fill:#000;fill-opacity:1"/><use xlink:href="#c" x="75.386" y="8.944" style="fill:#000;fill-opacity:1"/><use xlink:href="#a" x="82.379" y="8.944" style="fill:#000;fill-opacity:1"/><use xlink:href="#h" x="87.361" y="5.328" style="fill:#000;fill-opacity:1"/><use xlink:href="#c" x="91.83" y="8.944" style="fill:#000;fill-opacity:1"/><use xlink:href="#a" x="98.824" y="8.944" style="fill:#000;fill-opacity:1"/><use xlink:href="#i" x="103.805" y="5.328" style="fill:#000;fill-opacity:1"/><use xlink:href="#c" x="108.275" y="8.944" style="fill:#000;fill-opacity:1"/></svg>