<svg xmlns="http://www.w3.org/2000/svg" width="78.825" height="248.907" viewBox="0 0 59.119 186.68" version="1.2"><defs><clipPath id="a"><path d="M0 0h58.68v64H0Zm0 0"/></clipPath><clipPath id="b"><path d="M0 59h58.68v69H0Zm0 0"/></clipPath><clipPath id="c"><path d="M0 122h58.68v64.52H0Zm0 0"/></clipPath></defs><g clip-path="url(#a)"><path style="fill:none;stroke-width:.3985;stroke-linecap:butt;stroke-linejoin:miter;stroke:#000;stroke-opacity:1;stroke-miterlimit:10" d="M28.349 28.345c3.144 0 28.343-25.199 28.343-28.343 0-3.149-25.199-28.348-28.343-28.348C25.2-28.346 0-3.146 0 .002c0 3.144 25.2 28.343 28.348 28.343Zm0 0" transform="matrix(1 0 0 -1 .776 29.404)"/></g><g clip-path="url(#b)"><path style="fill:none;stroke-width:.3985;stroke-linecap:butt;stroke-linejoin:miter;stroke:#000;stroke-opacity:1;stroke-miterlimit:10" d="M28.349-35.432c7.863 0 28.343-20.48 28.343-28.348 0-7.867-20.48-28.347-28.343-28.347C20.48-92.127 0-71.647 0-63.78c0 7.868 20.48 28.348 28.348 28.348Zm0 0" transform="matrix(1 0 0 -1 .776 29.404)"/></g><g clip-path="url(#c)"><path style="fill:none;stroke-width:.3985;stroke-linecap:butt;stroke-linejoin:miter;stroke:#000;stroke-opacity:1;stroke-miterlimit:10" d="M28.349-99.213a28.247 28.247 0 0 0 28.343-28.348 28.25 28.25 0 0 0-28.343-28.347A28.25 28.25 0 0 0 0-127.561a28.248 28.248 0 0 0 28.348 28.348Zm0 0" transform="matrix(1 0 0 -1 .776 29.404)"/></g></svg>