<svg xmlns="http://www.w3.org/2000/svg" width="120.195" height="82.395" viewBox="0 0 90.146 61.796" version="1.2"><defs><clipPath id="a"><path d="M80 52h9.719v9.695H80Zm0 0"/></clipPath></defs><path style="fill:none;stroke-width:.3985;stroke-linecap:butt;stroke-linejoin:miter;stroke:#000;stroke-opacity:1;stroke-miterlimit:10" d="M-.001 0c9.242 14.512 18.086 28.348 28.348 28.348 10.261 0 19.105-13.836 28.347-28.348M-1.407-1.41l2.816 2.82m-2.816 0 2.816-2.82M26.936 26.938l2.82 2.816m-2.82 0 2.82-2.816M55.284-1.41l2.82 2.82m-2.82 0 2.82-2.82" transform="matrix(1 0 0 -1 2.126 30.797)"/><g clip-path="url(#a)"><path style="fill:none;stroke-width:.3985;stroke-linecap:butt;stroke-linejoin:miter;stroke:#000;stroke-opacity:1;stroke-miterlimit:10" d="m83.632-29.758 2.816 2.82m-2.816 0 2.816-2.82" transform="matrix(1 0 0 -1 2.126 30.797)"/></g></svg>