<svg xmlns="http://www.w3.org/2000/svg" width="118.875" height="106.881" viewBox="0 0 89.156 80.161" version="1.2"><path style="fill:none;stroke-width:.19925;stroke-linecap:butt;stroke-linejoin:miter;stroke:gray;stroke-opacity:1;stroke-miterlimit:10" d="M-.001 0h56.695M-.001 28.348h56.695M-.001 0v42.52M28.346 0v42.52M56.682 0v42.52" transform="matrix(1 0 0 -1 30.935 43.11)"/><path style="fill:none;stroke-width:.3985;stroke-linecap:butt;stroke-linejoin:miter;stroke:#000;stroke-opacity:1;stroke-miterlimit:10" d="M-28.345-35.433h56.691v70.867h-56.691Zm0 0" transform="matrix(1 0 0 -1 30.935 43.11)"/><path style="stroke:none;fill-rule:nonzero;fill:#000;fill-opacity:1" d="M37.91 38.129a1.993 1.993 0 1 0-3.986.002 1.993 1.993 0 0 0 3.986-.002Zm-14.945 0a1.99 1.99 0 0 0-1.992-1.992 1.99 1.99 0 0 0-1.993 1.992 1.99 1.99 0 0 0 1.993 1.992 1.99 1.99 0 0 0 1.992-1.992Zm0 0"/><path style="stroke:none;fill-rule:nonzero;fill:red;fill-opacity:1" d="M61.273 14.762a1.993 1.993 0 1 0-3.986.001 1.993 1.993 0 0 0 3.986-.001ZM4.582 28.937a1.994 1.994 0 0 0-3.988 0 1.994 1.994 0 0 0 3.988 0Zm0 0"/></svg>