<svg xmlns="http://www.w3.org/2000/svg" xmlns:xlink="http://www.w3.org/1999/xlink" width="129.939" height="78.531" viewBox="0 0 97.454 58.898" version="1.2"><defs><symbol overflow="visible" id="b"><path style="stroke:none" d="M.047-5.531c-.234-.016-.25.11-.25.25-.047.61-.172.61-.406.593l-2.141-.109c-.89-.047-1.563.625-1.64 2.11-.032.562-.048 1.78.827 1.828.438.03.641-.313.657-.579a.613.613 0 0 0-.594-.656c-.297-.015-.469.172-.516.203a3.873 3.873 0 0 1-.015-.718c.031-.75.468-1.094 1.218-1.063l.344.016c0 .734-.031 3.265 1.406 3.344C-.109-.267.141-1.5.173-2.188c.047-.797-.344-1.282-.75-1.516.312.015.765.031.812-1.016l.032-.468c0-.204.015-.329-.22-.344ZM-1.22-3.594c.969.063 1.047.985 1.047 1.235-.031.515-.39.89-.844.859-1.062-.047-1.125-1.625-1.14-2.14Zm0 0"/></symbol><symbol overflow="visible" id="c"><path style="stroke:none" d="M.36-6.375c-1.22-.531-2.454-.047-3.032 1.281-.281.657-.234 1.25-.14 1.532l-2.672-1.172-.641 1.656.438.187c.234-.562.265-.625.625-.468L.421-.97l.187-.437C.5-1.625.406-1.86.297-2.063c.11-.046.797-.265 1.156-1.093.594-1.36.156-2.672-1.094-3.219Zm-.516 1.172c.422.187.922.406 1.187.797.25.437.188.89.047 1.187-.266.625-.937.766-1.11.828l-2.28-1a1.594 1.594 0 0 1-.079-1.437c.485-1.125 1.594-.656 2.235-.375Zm0 0"/></symbol><symbol overflow="visible" id="d"><path style="stroke:none" d="m1.64-2.313-.374-.265-.344.484-3.281-2.328-.938 1.469.39.265c.345-.484.376-.53.688-.312L.297-1.203l-.406.562.375.266.687-1.016Zm-5.187-3.124a.766.766 0 0 0-1.094.187.784.784 0 0 0 .188 1.094c.344.234.828.14 1.078-.203.25-.36.172-.844-.172-1.079Zm0 0"/></symbol><symbol overflow="visible" id="e"><path style="stroke:none" d="M1.375-6.688a.594.594 0 0 0-.86.016c-.109.094-.421.438-.515.984-.219.032-.656.172-1.203.672-1.047.985-.922 1.922-.453 2.422.281.297.718.485 1.093.422.047.453.22.735.36.89.11.11.484.438.984.391C.703-.78.312-.125.75.33 1.094.702 2 .874 3.453-.485c1.297-1.204 1.469-2.157.985-2.672-.204-.219-.688-.625-1.407-.422C2.437-3.406 2-3 1.297-2.344c-.188.172-.516.485-.578.5a.591.591 0 0 1-.828-.062.527.527 0 0 1-.141-.313c.484-.14.89-.469 1.063-.64 1.062-.985.921-1.922.437-2.438-.313-.344-.719-.406-.938-.422.11-.312.25-.468.329-.562.015.062.062.14.109.187.156.188.406.188.61.016a.44.44 0 0 0 .015-.61ZM.437-4.53c.313.328.782.812.141 1.406-.64.594-1.11.11-1.422-.219-.297-.328-.75-.812-.11-1.406.641-.594 1.095-.11 1.391.219Zm3.407 1.984c.234.266.328.922-.625 1.797-.875.813-1.547.828-1.86.484-.421-.437.032-.859.141-.968l.86-.797c.218-.203 1.046-.969 1.484-.516Zm0 0"/></symbol><symbol overflow="visible" id="f"><path style="stroke:none" d="M2.625-.61.781-5.155l-1.672.765.172.422c.156-.062.36-.14.516-.187.219-.032.266.093.344.297L1.625-.203c.188.469.313 1.172-.234 1.406-.157.063-.235.063-.375.094.125-.203.078-.438.03-.563A.628.628 0 0 0 .235.391c-.359.156-.468.515-.343.843.218.516.906.61 1.656.297C2.344 1.22 3.016.36 2.625-.609Zm-2.422-6A.768.768 0 0 0-.813-7.03a.742.742 0 0 0-.421 1 .773.773 0 0 0 1 .437c.39-.172.593-.625.437-1.015Zm0 0"/></symbol><symbol overflow="visible" id="g"><path style="stroke:none" d="m6-1.234-.094-.454c-.593.125-.672.141-.75-.25l-.734-3.546-1.766.437.094.453c.594-.125.672-.14.75.25l.39 1.86c.157.796-.234 1.421-.937 1.562-.765.156-.844-.062-.953-.61l-.688-3.312-1.765.438.094.453c.609-.125.671-.14.75.25l.468 2.281c.22 1.031 1.047 1.094 2.032.89.25-.046.953-.202 1.234-1.046l.156.766Zm0 0"/></symbol><symbol overflow="visible" id="h"><path style="stroke:none" d="m2.844-.094-.016-.469-.61.016-.14-4.016-1.734.141.015.469c.594-.016.657-.031.672.36l.11 3.077-.688.032.016.468 1.219-.078Zm-.672-6.031a.798.798 0 0 0-.813-.766.785.785 0 0 0-.75.813c.016.422.375.75.797.734a.76.76 0 0 0 .766-.781Zm0 0"/></symbol><symbol overflow="visible" id="i"><path style="stroke:none" d="M4.875-.578c.016-.14-.125-.172-.219-.172-.187-.031-.187 0-.265.125-.329.578-.829.703-1.313.64C1.688-.14 1.86-1.577 1.906-2.046c.078-.562.219-1.828 1.5-1.672.344.031.5.063.64.125a.56.56 0 0 0-.25.438c-.062.422.267.656.532.687.313.031.656-.14.719-.531C5.14-3.86 4-4.063 3.437-4.14 1.641-4.345.781-3.298.642-2.157.484-.844 1.297.219 2.828.406 4.438.594 4.86-.5 4.875-.578Zm0 0"/></symbol><symbol overflow="visible" id="j"><path style="stroke:none" d="m6.703-2 .14-.438c-.218-.078-.5-.14-.734-.218l-.875-.297-.14.437s.453.141.422.25l-.094.094-1.828 2-.39-2.953.5.156.14-.437-1.172-.36-1.078-.359-.14.438.593.187L2.64.844l-.375.39c-.36.375-.86.938-1.547.72-.125-.048-.14-.063-.203-.126.093 0 .343-.047.453-.39.11-.313-.047-.625-.375-.735a.564.564 0 0 0-.719.39c-.156.47.172 1.016.734 1.204.735.234 1.47-.188 1.907-.625l3.437-3.703c.094-.11.14-.172.75.031Zm0 0"/></symbol><symbol overflow="visible" id="k"><path style="stroke:none" d="M4.39 3.344c.141-.172.048-.25-.062-.344-.453-.406-.375-.5-.219-.672L5.47.672c.578-.672.437-1.61-.703-2.563-.422-.359-1.391-1.093-1.954-.421-.265.328-.124.687.079.859.234.187.625.219.875-.078.203-.235.156-.469.156-.532.25.157.515.344.594.422.578.485.578 1.032.093 1.594L4.391.22C3.812-.203 1.812-1.766.89-.656c-.61.734.218 1.672.734 2.11.625.5 1.25.5 1.672.312-.188.25-.485.593.328 1.265l.36.297c.156.125.25.203.406.016Zm-.796-2.156c-.625.734-1.422.234-1.61.078-.39-.329-.468-.829-.171-1.188.671-.812 1.968.094 2.39.39Zm0 0"/></symbol><symbol overflow="visible" id="l"><path style="stroke:none" d="M5.328 3.516C6.406 2.734 6.61 1.437 5.766.28a2.618 2.618 0 0 0-1.282-.937l.391-.281-1.11-1.375-.374.28c.359.5.406.563.109.782L-.563 1.734l-.406-.562-.375.266.782 1L.14 3.452l.375-.265-.407-.547 1.5-1.11c-.03.547.157.969.391 1.297.89 1.203 2.234 1.5 3.328.688Zm-.766-1.032c-1.125.829-1.953.563-2.343.047-.078-.11-.36-.484-.172-1.187.031-.157.047-.157.187-.266l1.704-1.25c.156-.11.171-.11.374-.078.563.063.922.453 1.047.64.391.532.235 1.344-.796 2.094Zm0 0"/></symbol><symbol overflow="visible" id="m"><path style="stroke:none" d="M4.313 4.719c1.218-.5 1.75-1.703 1.218-3.032A2.473 2.473 0 0 0 4.516.484l.453-.187-.75-1.61-.438.172c.235.563.266.641-.078.782L-.953 1.53l-.266-.64-.437.187.5 1.14.437 1.173.438-.188-.25-.625 1.719-.687c-.157.53-.094.984.046 1.359.579 1.39 1.797 1.984 3.079 1.469ZM3.828 3.53c-1.312.516-2.047.063-2.281-.531-.063-.125-.234-.563.094-1.188.078-.14.093-.156.265-.218L3.875.797c.172-.063.188-.063.36.015.53.204.796.672.874.875.25.61-.109 1.36-1.28 1.844Zm0 0"/></symbol><symbol overflow="visible" id="n"><path style="stroke:none" d="m.578 2.86.453-.094-.14-.672L7.219.828 6.797-.89l-.453.094c.125.625.14.688-.235.766L.688 1.047.546.359.094.453l.265 1.203Zm0 0"/></symbol><symbol overflow="visible" id="o"><path style="stroke:none" d="M1.406 4.875c.172-.016.157-.203.157-.25-.016-.172-.063-.188-.22-.234C.86 4.203.517 3.64.485 3 .422 1.594 1.75 1.516 2.25 1.5l.14 3.016c0 .218.016.312.282.296.312-.015 1.047-.109 1.515-.64.344-.375.485-.906.454-1.594C4.578.984 3.5.156 2.266.203.922.266 0 1.313.078 2.922.141 4.5 1.234 4.875 1.406 4.875Zm1.282-1-.11-2.39c.39-.016.813-.016 1.14.171.407.25.548.657.563.938.063 1.172-1.25 1.25-1.593 1.281Zm0 0"/></symbol><clipPath id="a"><path d="M0 9h96v49.848H0Zm0 0"/></clipPath></defs><path style="fill:none;stroke-width:.19925;stroke-linecap:butt;stroke-linejoin:miter;stroke:gray;stroke-opacity:1;stroke-miterlimit:10" d="M.002-.001H85.04M0 28.346h85.04M0 56.682h85.04M0 0v56.695M28.347-.001v56.695M56.693-.001v56.695M85.03-.001v56.695" transform="matrix(1 0 0 -1 5.174 57.733)"/><g clip-path="url(#a)"><path style="fill:none;stroke-width:.3985;stroke-linecap:butt;stroke-linejoin:miter;stroke:red;stroke-opacity:1;stroke-dasharray:2.98883,2.98883;stroke-miterlimit:10" d="M.002-.001c0 56.695 85.039 56.695 85.039 0" transform="matrix(1 0 0 -1 5.174 57.733)"/></g><use xlink:href="#b" x="5.103" y="57.73" style="fill:#000;fill-opacity:1"/><use xlink:href="#c" x="7.534" y="42.101" style="fill:#000;fill-opacity:1"/><use xlink:href="#d" x="11.812" y="33.519" style="fill:#000;fill-opacity:1"/><use xlink:href="#e" x="15.694" y="28.408" style="fill:#000;fill-opacity:1"/><use xlink:href="#f" x="28.687" y="19.201" style="fill:#000;fill-opacity:1"/><use xlink:href="#g" x="34.996" y="16.832" style="fill:#000;fill-opacity:1"/><use xlink:href="#h" x="44.463" y="15.296" style="fill:#000;fill-opacity:1"/><use xlink:href="#i" x="50.876" y="15.251" style="fill:#000;fill-opacity:1"/><use xlink:href="#j" x="59.11" y="16.502" style="fill:#000;fill-opacity:1"/><use xlink:href="#k" x="73.894" y="23.286" style="fill:#000;fill-opacity:1"/><use xlink:href="#l" x="80.433" y="29.191" style="fill:#000;fill-opacity:1"/><use xlink:href="#m" x="85.779" y="37.171" style="fill:#000;fill-opacity:1"/><use xlink:href="#n" x="88.948" y="46.221" style="fill:#000;fill-opacity:1"/><use xlink:href="#o" x="90.032" y="52.543" style="fill:#000;fill-opacity:1"/></svg>