<svg xmlns="http://www.w3.org/2000/svg" xmlns:xlink="http://www.w3.org/1999/xlink" width="116.965" height="78.795" viewBox="0 0 87.724 59.096" version="1.2"><defs><clipPath id="b"><path d="M20 0h67.586v50H20Zm0 0"/></clipPath><symbol overflow="visible" id="a"><path style="stroke:none" d="M3.953-3.781c-.172 0-.297 0-.437.125a.53.53 0 0 0-.188.39c0 .25.188.36.375.36.281 0 .547-.25.547-.64 0-.485-.469-.86-1.172-.86-1.344 0-2.672 1.422-2.672 2.828C.406-.672.984.109 2.031.109c1.422 0 2.25-1.062 2.25-1.171 0-.063-.047-.141-.11-.141-.062 0-.077.031-.14.11-.781.984-1.875.984-1.984.984-.625 0-.906-.485-.906-1.094 0-.406.203-1.375.546-1.984.313-.579.86-1 1.407-1 .328 0 .719.125.86.406Zm0 0"/></symbol></defs><path style="fill:none;stroke-width:.19925;stroke-linecap:butt;stroke-linejoin:miter;stroke:gray;stroke-opacity:1;stroke-miterlimit:10" d="M.002-.001H85.04M0 28.346h85.04M0 56.682h85.04M0 0v56.695M28.346 0v56.695M56.693 0v56.695M85.03 0v56.695" transform="matrix(1 0 0 -1 .971 57.53)"/><path style="fill:none;stroke-width:.3985;stroke-linecap:butt;stroke-linejoin:miter;stroke:#000;stroke-opacity:1;stroke-miterlimit:10" d="M48.271 28.346c0 11.004-8.918 19.926-19.926 19.926-11.003 0-19.925-8.922-19.925-19.926 0-11.003 8.921-19.925 19.925-19.925 11.008 0 19.926 8.922 19.926 19.925Zm0 0" transform="matrix(1 0 0 -1 .971 57.53)"/><use xlink:href="#a" x="27.161" y="31.328" style="fill:#000;fill-opacity:1"/><g clip-path="url(#b)"><path style="fill:none;stroke-width:.3985;stroke-linecap:butt;stroke-linejoin:miter;stroke:red;stroke-opacity:1;stroke-miterlimit:10" d="m85.04 56.694-59.507-8.422 2.812-19.926L42.6 14.14Zm0 0" transform="matrix(1 0 0 -1 .971 57.53)"/></g></svg>