<svg xmlns="http://www.w3.org/2000/svg" xmlns:xlink="http://www.w3.org/1999/xlink" width="107.115" height="82.611" viewBox="0 0 80.336 61.958" version="1.2"><defs><clipPath id="d"><path d="M0 26h14v35.938H0Zm0 0"/></clipPath><clipPath id="e"><path d="M2 26h19v35.938H2Zm0 0"/></clipPath><clipPath id="f"><path d="M44 26h27v35.938H44Zm0 0"/></clipPath><clipPath id="g"><path d="M64 32h1v29.938h-1Zm0 0"/></clipPath><clipPath id="h"><path d="M59 26h21.004v35.938H59Zm0 0"/></clipPath><symbol overflow="visible" id="a"><path style="stroke:none" d="M4.406-3.672c0-.531-.531-.812-1.062-.812-.688 0-1.094.5-1.313 1.125v-1.125l-1.656.078v.468c.61 0 .688 0 .688.391v3.078H.375V0l1.25-.031C2-.031 2.641-.031 3 0v-.469h-.86v-1.75c0-.687.235-1.906 1.235-1.906 0 0-.188.172-.188.453 0 .406.329.61.61.61.297 0 .61-.204.61-.61Zm0 0"/></symbol><symbol overflow="visible" id="b"><path style="stroke:none" d="M5.406-2.172c0-1.344-.922-2.344-2.547-2.344C1.22-4.516.313-3.5.313-2.172c0 1.235.89 2.235 2.546 2.235 1.672 0 2.547-1.016 2.547-2.235Zm-1.281-.11c0 .86 0 1.938-1.266 1.938-1.265 0-1.265-1.078-1.265-1.937 0-.453 0-.953.172-1.297.187-.375.609-.578 1.093-.578.422 0 .844.156 1.063.5.203.344.203.89.203 1.375Zm0 0"/></symbol><symbol overflow="visible" id="c"><path style="stroke:none" d="M3.813-1.234v-.532h-.47v.516c0 .672-.327.906-.609.906-.578 0-.578-.64-.578-.86v-2.75h1.469v-.468H2.156v-1.906h-.469c0 1-.484 1.984-1.484 2.016v.359h.828v2.734c0 1.063.86 1.282 1.578 1.282.75 0 1.204-.579 1.204-1.297Zm0 0"/></symbol></defs><g style="fill:#000;fill-opacity:1"><use xlink:href="#a" x="25.825" y="7.278"/><use xlink:href="#b" x="30.547" y="7.278"/></g><g style="fill:#000;fill-opacity:1"><use xlink:href="#b" x="36.595" y="7.278"/><use xlink:href="#c" x="42.323" y="7.278"/></g><path style="fill:none;stroke-width:.3985;stroke-linecap:butt;stroke-linejoin:miter;stroke:#000;stroke-opacity:1;stroke-miterlimit:10" d="m-6.71-6.714-21.637-21.633" transform="matrix(1 0 0 -1 36.3 4.145)"/><g clip-path="url(#d)"><path style="fill:none;stroke-width:.3985;stroke-linecap:butt;stroke-linejoin:miter;stroke:#000;stroke-opacity:1;stroke-miterlimit:10" d="m-28.347-28.347-7.086-28.348" transform="matrix(1 0 0 -1 36.3 4.145)"/></g><g clip-path="url(#e)"><path style="fill:none;stroke-width:.3985;stroke-linecap:butt;stroke-linejoin:miter;stroke:#000;stroke-opacity:1;stroke-miterlimit:10" d="m-28.347-28.347 7.086-28.348" transform="matrix(1 0 0 -1 36.3 4.145)"/></g><path style="fill:none;stroke-width:.3985;stroke-linecap:butt;stroke-linejoin:miter;stroke:#000;stroke-opacity:1;stroke-miterlimit:10" d="m6.712-6.714 21.636-21.633" transform="matrix(1 0 0 -1 36.3 4.145)"/><g clip-path="url(#f)"><path style="fill:none;stroke-width:.3985;stroke-linecap:butt;stroke-linejoin:miter;stroke:#000;stroke-opacity:1;stroke-miterlimit:10" d="M28.348-28.347 14.173-56.695" transform="matrix(1 0 0 -1 36.3 4.145)"/></g><g clip-path="url(#g)"><path style="fill:none;stroke-width:.3985;stroke-linecap:butt;stroke-linejoin:miter;stroke:#000;stroke-opacity:1;stroke-miterlimit:10" d="M28.348-28.347v-28.348" transform="matrix(1 0 0 -1 36.3 4.145)"/></g><g clip-path="url(#h)"><path style="fill:none;stroke-width:.3985;stroke-linecap:butt;stroke-linejoin:miter;stroke:#000;stroke-opacity:1;stroke-miterlimit:10" d="M28.348-28.347 42.52-56.695" transform="matrix(1 0 0 -1 36.3 4.145)"/></g></svg>