<svg xmlns="http://www.w3.org/2000/svg" width="342.867" height="342.867" viewBox="0 0 257.15 257.15" version="1.2"><path style="fill:none;stroke-width:.19925;stroke-linecap:butt;stroke-linejoin:miter;stroke:gray;stroke-opacity:1;stroke-miterlimit:10" d="M-119.055-85.042h238.113M-119.055-42.52h238.113M-119.055.001h238.113m-238.113 42.52h238.113M-119.055 85.04h238.113M-85.04-119.058v238.113m42.52-238.113v238.113M0-119.058v238.113m42.519-238.113v238.113m42.523-238.113v238.113" transform="matrix(1 0 0 -1 128.153 128.153)"/><path style="fill:none;stroke-width:.3985;stroke-linecap:butt;stroke-linejoin:miter;stroke:#000;stroke-opacity:1;stroke-miterlimit:10" d="M-127.56 0h255.122M0-127.562V127.56M85.042 0c0 46.965-38.074 85.04-85.043 85.04C-46.966 85.04-85.04 46.965-85.04 0c0-46.968 38.075-85.042 85.04-85.042 46.968 0 85.042 38.074 85.042 85.043Zm0 0" transform="matrix(1 0 0 -1 128.153 128.153)"/><path style="fill:none;stroke-width:.3985;stroke-linecap:butt;stroke-linejoin:miter;stroke:#000;stroke-opacity:1;stroke-miterlimit:10" d="M25.511 0c0 4.477-1.18 8.88-3.418 12.755" transform="matrix(1 0 0 -1 128.153 128.153)"/></svg>