<svg xmlns="http://www.w3.org/2000/svg" width="140.355" height="101.811" viewBox="0 0 105.266 76.358" version="1.2"><defs><clipPath id="a"><path d="M0 0h104.898v76.035H0Zm0 0"/></clipPath></defs><path style="stroke:none;fill-rule:nonzero;fill:#ccf;fill-opacity:1" d="M9.738 66.496 2.652 59.41l14.172-14.176L2.652 31.062l14.172-14.175L2.652 2.715 31 16.887 45.172 2.715l14.172 14.172L73.52 2.715 87.69 16.887l14.172-14.172-14.172 28.348 14.172 14.171-14.172 14.172 14.172 14.176L73.52 59.41 59.344 73.582 45.172 59.41 31 73.582 16.824 59.41l-7.086 7.086"/><g clip-path="url(#a)"><path style="fill:none;stroke-width:.79701;stroke-linecap:butt;stroke-linejoin:miter;stroke:#00f;stroke-opacity:1;stroke-miterlimit:10" d="m0-.001-7.086 7.086L7.086 21.26-7.086 35.432 7.086 49.608-7.086 63.78l28.348-14.172L35.434 63.78l14.172-14.172L63.782 63.78l14.171-14.172L92.125 63.78 77.953 35.432l14.172-14.171L77.953 7.089 92.125-7.087 63.782 7.085 49.606-7.087 35.434 7.085 21.262-7.087 7.086 7.085 0-.001" transform="matrix(1 0 0 -1 9.738 66.495)"/></g></svg>