<svg xmlns="http://www.w3.org/2000/svg" xmlns:xlink="http://www.w3.org/1999/xlink" width="306.195" height="139.735" viewBox="0 0 229.646 104.801" version="1.2"><defs><symbol overflow="visible" id="a"><path style="stroke:none" d="M5.563-1.813c.14 0 .312 0 .312-.171 0-.188-.172-.188-.313-.188H1c-.125 0-.297 0-.297.188 0 .171.172.171.297.171Zm0 0"/></symbol><symbol overflow="visible" id="b"><path style="stroke:none" d="M2.5-5.078c0-.219-.016-.219-.234-.219-.329.313-.75.5-1.5.5v.266c.218 0 .64 0 1.109-.203v4.078c0 .297-.031.39-.781.39H.812V0c.329-.031 1.016-.031 1.375-.031.36 0 1.047 0 1.376.031v-.266H3.28c-.75 0-.781-.093-.781-.39Zm0 0"/></symbol><symbol overflow="visible" id="c"><path style="stroke:none" d="M3.89-2.547c0-.844-.078-1.36-.343-1.875-.344-.703-1-.875-1.438-.875-1 0-1.375.75-1.484.969C.344-3.75.328-2.953.328-2.547c0 .531.016 1.328.406 1.969.36.594.954.75 1.375.75.391 0 1.063-.125 1.47-.906.296-.579.312-1.297.312-1.813ZM2.11-.062c-.266 0-.813-.126-.985-.954-.094-.453-.094-1.203-.094-1.625 0-.546 0-1.109.094-1.546.172-.813.781-.891.984-.891.266 0 .829.14.985.86.094.437.094 1.046.094 1.577 0 .47 0 1.188-.094 1.641-.172.828-.719.938-.985.938Zm0 0"/></symbol><symbol overflow="visible" id="d"><path style="stroke:none" d="M2.25-1.625c.125-.125.453-.39.594-.5.484-.453.953-.89.953-1.61 0-.953-.797-1.562-1.781-1.562-.97 0-1.594.719-1.594 1.438 0 .39.312.437.422.437.172 0 .422-.11.422-.422 0-.406-.407-.406-.5-.406.234-.594.765-.781 1.156-.781.734 0 1.125.625 1.125 1.297 0 .828-.578 1.437-1.531 2.39l-1 1.047C.422-.219.422-.203.422 0h3.14l.235-1.422h-.25c-.016.156-.078.547-.172.703-.047.063-.656.063-.781.063H1.172Zm0 0"/></symbol><symbol overflow="visible" id="e"><path style="stroke:none" d="M2.016-2.656c.625 0 1.03.453 1.03 1.297 0 1-.562 1.28-.983 1.28-.438 0-1.047-.155-1.329-.577.297 0 .5-.188.5-.438 0-.265-.187-.437-.453-.437-.203 0-.437.125-.437.453 0 .75.812 1.25 1.734 1.25 1.047 0 1.797-.734 1.797-1.531 0-.672-.531-1.266-1.344-1.454.625-.218 1.11-.75 1.11-1.39 0-.64-.72-1.094-1.547-1.094-.86 0-1.5.453-1.5 1.063 0 .296.187.421.406.421.25 0 .406-.171.406-.406 0-.297-.265-.406-.437-.406.344-.438.953-.469 1.094-.469.203 0 .812.063.812.89 0 .548-.234.891-.344 1.016-.234.25-.422.266-.906.297-.156 0-.219.016-.219.125 0 .11.078.11.219.11Zm0 0"/></symbol><symbol overflow="visible" id="f"><path style="stroke:none" d="M3.14-5.156c0-.157 0-.219-.171-.219-.094 0-.11 0-.188.11L.234-1.564v.25h2.25v.672c0 .297-.015.375-.64.375h-.172V0c.672-.031.687-.031 1.14-.031.454 0 .47 0 1.141.031v-.266h-.172c-.625 0-.64-.078-.64-.375v-.671h.843v-.25h-.843Zm-.593.64v2.954H.516Zm0 0"/></symbol><symbol overflow="visible" id="h"><path style="stroke:none" d="M1.11-4.484c.109.03.421.125.765.125 1 0 1.594-.704 1.594-.829 0-.093-.047-.109-.094-.109-.016 0-.031 0-.094.031a2.982 2.982 0 0 1-1.11.22c-.468 0-.858-.11-1.108-.22-.079-.03-.094-.03-.11-.03-.094 0-.094.077-.094.234v2.328c0 .14 0 .234.125.234.063 0 .079-.031.125-.094.094-.11.391-.515 1.079-.515.437 0 .656.359.734.515.125.281.14.656.14.953 0 .297 0 .735-.218 1.079-.156.25-.485.484-.906.484A1.271 1.271 0 0 1 .734-.922c.016.016.079.016.079.016.218 0 .406-.14.406-.39a.388.388 0 0 0-.39-.407c-.157 0-.407.078-.407.422 0 .718.625 1.453 1.531 1.453 1 0 1.844-.781 1.844-1.766 0-.922-.672-1.75-1.61-1.75-.39 0-.765.125-1.078.406Zm0 0"/></symbol><symbol overflow="visible" id="g"><path style="stroke:none" d="M1.625-.438a.463.463 0 0 0-.453-.453.447.447 0 0 0-.438.438.44.44 0 0 0 .438.453.45.45 0 0 0 .453-.438Zm0 0"/></symbol><symbol overflow="visible" id="i"><path style="stroke:none" d="M3.078-3.781c0-.156 0-.235-.094-.235-.046 0-.062 0-.187.11-.016.015-.094.094-.156.14-.266-.203-.547-.25-.86-.25-1.187 0-1.468.657-1.468 1.11 0 .281.124.515.328.719.296.28.64.343 1.093.421.47.094.61.11.813.266.094.078.312.25.312.578 0 .797-.906.797-1.03.797-.907 0-1.141-.766-1.25-1.25-.032-.094-.048-.14-.141-.14-.126 0-.126.077-.126.234v1.14c0 .157 0 .235.094.235.063 0 .063 0 .235-.172a1.18 1.18 0 0 1 .171-.219c.375.375.797.39 1.016.39 1.11 0 1.484-.64 1.484-1.234 0-.406-.171-.656-.374-.859-.297-.297-.626-.36-1.282-.484-.234-.047-.89-.157-.89-.672 0-.281.203-.672 1.015-.672.969 0 1.032.75 1.047.969.016.109.016.171.125.171.125 0 .125-.062.125-.234Zm0 0"/></symbol><symbol overflow="visible" id="j"><path style="stroke:none" d="m1.656-3.969-1.297.11v.265c.579 0 .657.063.657.5v2.406c0 .407-.094.407-.688.407V0c.39-.016.594-.031.984-.031.141 0 .516 0 .954.031v-.281c-.579 0-.61-.047-.61-.39Zm.016-1.562a.477.477 0 0 0-.484-.485.497.497 0 0 0-.485.485c0 .265.219.484.485.484a.468.468 0 0 0 .484-.484Zm0 0"/></symbol><symbol overflow="visible" id="k"><path style="stroke:none" d="M1.672-2.328c0-.953.672-1.406 1.234-1.406.531 0 .64.437.64.968v2.079c0 .406-.093.406-.687.406V0c.422-.016.594-.031 1.032-.031.421 0 .546.015 1.015.031v-.281c-.453 0-.687 0-.687-.281v-1.72c0-.734 0-1-.25-1.312-.203-.25-.547-.375-1-.375-.828 0-1.219.625-1.344.875h-.016v-.875l-1.296.11v.265c.609 0 .687.063.687.516v2.39C1-.28.906-.28.312-.28V0c.422-.016.594-.031 1.032-.031.422 0 .547.015 1.015.031v-.281c-.593 0-.687 0-.687-.406Zm0 0"/></symbol><symbol overflow="visible" id="m"><path style="stroke:none" d="M3.266-3.531c-.188.047-.375.172-.375.422a.42.42 0 0 0 .421.421c.235 0 .422-.156.422-.437 0-.547-.625-.89-1.421-.89-1.141 0-2 .952-2 2.077C.313-.78 1.234.095 2.296.095c1.25 0 1.531-1.078 1.531-1.157 0-.109-.094-.109-.125-.109-.094 0-.094.016-.156.172-.203.61-.703.844-1.156.844-.579 0-1.313-.469-1.313-1.797 0-1.39.719-1.813 1.25-1.813.125 0 .61.016.938.235Zm0 0"/></symbol><symbol overflow="visible" id="n"><path style="stroke:none" d="M4.344-1.906c0-1.172-.938-2.11-2.032-2.11-1.14 0-2.046.954-2.046 2.11 0 1.11.921 2 2.03 2 1.142 0 2.048-.906 2.048-2ZM2.312-.156c-.453 0-.828-.219-1.03-.563-.235-.39-.25-.86-.25-1.265 0-.344 0-.844.218-1.22a1.222 1.222 0 0 1 1.047-.593c.515 0 .875.297 1.062.594.204.375.204.828.204 1.219 0 .328 0 .843-.22 1.234a1.18 1.18 0 0 1-1.03.594Zm0 0"/></symbol><symbol overflow="visible" id="o"><path style="stroke:none" d="M2.922-3.594v-.265H1.609v-1.657h-.25c0 .75-.312 1.672-1.187 1.704v.218h.781v2.485c0 1 .719 1.203 1.203 1.203.594 0 .906-.563.906-1.203v-.516h-.25v.484c0 .672-.28.985-.593.985-.61 0-.61-.781-.61-.953v-2.485Zm0 0"/></symbol><symbol overflow="visible" id="p"><path style="stroke:none" d="M3.063-.64c.046.374.312.687.703.687.218 0 .78-.125.78-.844v-.5h-.25v.484c0 .11 0 .547-.327.547-.313 0-.313-.421-.313-.562v-1.578c0-.516 0-.813-.406-1.188-.328-.297-.766-.422-1.219-.422-.75 0-1.375.375-1.375.954 0 .265.188.421.422.421a.394.394 0 0 0 .406-.406c0-.39-.39-.437-.406-.437.25-.235.688-.313.938-.313.453 0 .968.344.968 1.14v.282c-.484.031-1.156.063-1.75.36-.656.312-.843.78-.843 1.14 0 .734.859.969 1.468.969.735 0 1.079-.485 1.204-.735Zm-.079-.626c0 .875-.671 1.141-1.062 1.141-.422 0-.813-.313-.813-.75 0-.594.5-1.219 1.875-1.281Zm0 0"/></symbol><symbol overflow="visible" id="l"><path style="stroke:none" d="M4.406-3.625a.504.504 0 0 0-.422.484c0 .172.125.329.344.329.25 0 .5-.22.5-.532 0-.422-.453-.625-.875-.625-.531 0-.844.485-.953.672a1.042 1.042 0 0 0-1-.672c-.953 0-1.484 1.156-1.484 1.39 0 .079.062.11.125.11.078 0 .109-.047.125-.11.28-.89.875-1.155 1.218-1.155.266 0 .485.171.485.593 0 .313-.375 1.75-.5 2.188-.063.265-.344.828-.828.828-.188 0-.375-.063-.454-.11.235-.046.422-.265.422-.484 0-.234-.171-.328-.343-.328-.266 0-.5.219-.5.531 0 .438.484.61.859.61.531 0 .828-.422.969-.672.219.594.75.672.984.672.969 0 1.485-1.157 1.485-1.375 0-.047-.032-.11-.11-.11-.11 0-.11.032-.156.172-.203.64-.719 1.094-1.188 1.094-.25 0-.5-.156-.5-.594 0-.203.125-.687.204-1.031.046-.156.28-1.125.296-1.188.11-.328.375-.796.844-.796.156 0 .328.015.453.109Zm0 0"/></symbol></defs><path style="fill:none;stroke-width:.3985;stroke-linecap:butt;stroke-linejoin:miter;stroke:#bfbfbf;stroke-opacity:1;stroke-miterlimit:10" d="M.001 11.978h141.735M.001 27.888h141.735M.001 43.798h141.735M.001 59.708h141.735M.001 75.618h141.735" transform="matrix(1 0 0 -1 27.272 88.775)"/><path style="fill:none;stroke-width:.3985;stroke-linecap:round;stroke-linejoin:miter;stroke:gray;stroke-opacity:1;stroke-miterlimit:10" d="M14.525-6.976v1.993M39.966-6.976v1.993M65.412-6.976v1.993M90.853-6.976v1.993M116.298-6.976v1.993M141.744-6.976v1.993M-6.975 11.978h1.992M-6.975 27.888h1.992M-6.975 43.798h1.992M-6.975 59.708h1.992M-6.975 75.618h1.992" transform="matrix(1 0 0 -1 27.272 88.775)"/><path style="fill:none;stroke-width:.3985;stroke-linecap:butt;stroke-linejoin:miter;stroke:gray;stroke-opacity:1;stroke-miterlimit:10" d="M.001-4.983h141.735" transform="matrix(1 0 0 -1 27.272 88.775)"/><path style="fill:none;stroke-width:.3985;stroke-linecap:square;stroke-linejoin:miter;stroke:#bfbfbf;stroke-opacity:1;stroke-miterlimit:10" d="M.001.001h141.735M.001 87.59h141.735" transform="matrix(1 0 0 -1 27.272 88.775)"/><path style="fill:none;stroke-width:.3985;stroke-linecap:butt;stroke-linejoin:miter;stroke:gray;stroke-opacity:1;stroke-miterlimit:10" d="M-4.983.001v87.59" transform="matrix(1 0 0 -1 27.272 88.775)"/><path style="fill:none;stroke-width:.3985;stroke-linecap:square;stroke-linejoin:miter;stroke:#bfbfbf;stroke-opacity:1;stroke-miterlimit:10" d="M.001.001v87.59M141.736.001v87.59" transform="matrix(1 0 0 -1 27.272 88.775)"/><path style="fill:none;stroke-width:.59776;stroke-linecap:butt;stroke-linejoin:miter;stroke:#00c;stroke-opacity:1;stroke-dasharray:.89665,.89665;stroke-miterlimit:10" d="M15.986.001s1.445 4.879 2 6.543c.555 1.66 1.441 4.035 1.996 5.434a112.537 112.537 0 0 0 2 4.644 113.077 113.077 0 0 0 1.996 4.059 107.58 107.58 0 0 0 2 3.617c.555.96 1.445 2.41 2 3.289.555.875 1.441 2.219 1.996 3.031a149.4 149.4 0 0 0 2 2.844c.555.77 1.442 1.965 1.996 2.7.555.734 1.446 1.886 2 2.597.555.71 1.442 1.836 1.996 2.535.555.7 1.446 1.809 2 2.504.555.695 1.446 1.805 2 2.504.551.7 1.442 1.82 1.996 2.535.555.71 1.446 1.863 2 2.598a202.18 202.18 0 0 1 1.996 2.699c.555.77 1.446 2.027 2 2.844.555.812 1.442 2.156 1.997 3.03a121.36 121.36 0 0 1 2 3.286c.554.957 1.445 2.555 2 3.621a116.13 116.13 0 0 1 1.996 4.055c.554 1.21 1.445 3.246 2 4.644a123.888 123.888 0 0 1 1.996 5.438c.554 1.66 2 6.539 2 6.539" transform="matrix(1 0 0 -1 27.272 88.775)"/><path style="fill:none;stroke-width:.59776;stroke-linecap:butt;stroke-linejoin:miter;stroke:#c00;stroke-opacity:1;stroke-dasharray:2.98885,1.19554;stroke-miterlimit:10" d="M.001 43.798s4.266 5.344 5.907 7.32c1.636 1.977 4.265 5.11 5.902 6.926 1.64 1.816 4.27 4.606 5.906 6.164 1.64 1.559 4.266 3.852 5.907 5.067 1.636 1.218 4.265 2.89 5.906 3.703 1.637.808 4.265 1.777 5.906 2.136 1.637.36 4.266.567 5.902.457 1.641-.109 4.27-.675 5.907-1.246 1.64-.574 4.27-1.879 5.906-2.883 1.64-1.007 4.266-2.98 5.906-4.367 1.637-1.383 4.266-3.925 5.906-5.613 1.637-1.691 4.266-4.66 5.907-6.563 1.636-1.902 4.265-5.14 5.902-7.156 1.64-2.015 4.27-5.347 5.906-7.367 1.64-2.02 4.27-5.273 5.906-7.187 1.641-1.915 4.266-4.907 5.907-6.614 1.636-1.707 4.265-4.285 5.906-5.691 1.637-1.41 4.266-3.43 5.906-4.465 1.637-1.035 4.266-2.387 5.903-2.992 1.64-.606 4.27-1.227 5.906-1.367 1.64-.145 4.265.007 5.906.336 1.637.328 4.266 1.242 5.906 2.023 1.637.777 4.266 2.402 5.907 3.594 1.636 1.191 5.902 4.98 5.902 4.98" transform="matrix(1 0 0 -1 27.272 88.775)"/><path style="fill:none;stroke-width:.59776;stroke-linecap:butt;stroke-linejoin:miter;stroke:#000;stroke-opacity:1;stroke-miterlimit:10" d="M.001 11.982s4.266.386 5.907.851c1.636.469 4.265 1.606 5.902 2.516 1.64.91 4.27 2.738 5.906 4.039 1.64 1.3 4.266 3.722 5.907 5.347 1.636 1.63 4.265 4.512 5.906 6.372 1.637 1.863 4.265 5.054 5.906 7.054 1.637 1.996 4.266 5.324 5.902 7.352 1.641 2.027 4.27 5.312 5.907 7.262 1.64 1.949 4.27 5.019 5.906 6.78 1.64 1.766 4.266 4.454 5.906 5.938 1.637 1.485 4.266 3.645 5.906 4.77 1.637 1.129 4.266 2.644 5.907 3.355 1.636.707 4.265 1.504 5.902 1.754 1.64.254 4.27.281 5.906.063 1.64-.22 4.27-.961 5.906-1.637 1.641-.68 4.266-2.148 5.907-3.246 1.636-1.098 4.265-3.215 5.906-4.68 1.637-1.46 4.266-4.117 5.906-5.863 1.637-1.746 4.266-4.793 5.903-6.734 1.64-1.938 4.27-5.215 5.906-7.239 1.64-2.027 4.265-5.355 5.906-7.36 1.637-2.007 4.266-5.21 5.906-7.085 1.637-1.875 4.266-4.79 5.907-6.434 1.636-1.644 5.902-5.43 5.902-5.43" transform="matrix(1 0 0 -1 27.272 88.775)"/><use xlink:href="#a" x="36.385" y="103.54" style="fill:#000;fill-opacity:1"/><use xlink:href="#b" x="42.971" y="103.54" style="fill:#000;fill-opacity:1"/><use xlink:href="#c" x="65.122" y="103.54" style="fill:#000;fill-opacity:1"/><use xlink:href="#b" x="90.565" y="103.54" style="fill:#000;fill-opacity:1"/><use xlink:href="#d" x="116.009" y="103.54" style="fill:#000;fill-opacity:1"/><use xlink:href="#e" x="141.453" y="103.54" style="fill:#000;fill-opacity:1"/><use xlink:href="#f" x="166.896" y="103.54" style="fill:#000;fill-opacity:1"/><use xlink:href="#a" x="6.822" y="78.948" style="fill:#000;fill-opacity:1"/><use xlink:href="#b" x="13.408" y="78.948" style="fill:#000;fill-opacity:1"/><use xlink:href="#a" x=".235" y="63.038" style="fill:#000;fill-opacity:1"/><use xlink:href="#c" x="6.822" y="63.038" style="fill:#000;fill-opacity:1"/><use xlink:href="#g" x="11.056" y="63.038" style="fill:#000;fill-opacity:1"/><use xlink:href="#h" x="13.408" y="63.038" style="fill:#000;fill-opacity:1"/><use xlink:href="#c" x="13.408" y="47.544" style="fill:#000;fill-opacity:1"/><use xlink:href="#c" x="6.822" y="31.634" style="fill:#000;fill-opacity:1"/><use xlink:href="#g" x="11.056" y="31.634" style="fill:#000;fill-opacity:1"/><use xlink:href="#h" x="13.408" y="31.634" style="fill:#000;fill-opacity:1"/><use xlink:href="#b" x="13.408" y="15.726" style="fill:#000;fill-opacity:1"/><g style="fill:#000;fill-opacity:1"><use xlink:href="#i" x="208.818" y="44.559"/><use xlink:href="#j" x="212.453" y="44.559"/><use xlink:href="#k" x="215.013" y="44.559"/></g><use xlink:href="#l" x="221.668" y="44.559" style="fill:#000;fill-opacity:1"/><path style="fill:none;stroke-width:.59776;stroke-linecap:butt;stroke-linejoin:miter;stroke:#000;stroke-opacity:1;stroke-miterlimit:10" d="M-19.927-.001s2.91 1.512 4.984 1.328c2.07-.184 7.887-2.469 9.961-2.652 2.075-.188 4.98 1.324 4.98 1.324" transform="matrix(1 0 0 -1 203.841 42.346)"/><g style="fill:#000;fill-opacity:1"><use xlink:href="#m" x="208.818" y="55.517"/><use xlink:href="#n" x="212.914" y="55.517"/><use xlink:href="#i" x="217.522" y="55.517"/></g><use xlink:href="#l" x="222.692" y="55.517" style="fill:#000;fill-opacity:1"/><path style="fill:none;stroke-width:.59776;stroke-linecap:butt;stroke-linejoin:miter;stroke:#c00;stroke-opacity:1;stroke-dasharray:2.98885,1.19554;stroke-miterlimit:10" d="M-19.927 0s2.91 1.513 4.984 1.329c2.07-.188 7.887-2.473 9.961-2.656C-2.907-1.511-.002 0-.002 0" transform="matrix(1 0 0 -1 203.841 53.306)"/><g style="fill:#000;fill-opacity:1"><use xlink:href="#o" x="208.818" y="66.477"/><use xlink:href="#p" x="212.402" y="66.477"/><use xlink:href="#k" x="217.01" y="66.477"/></g><use xlink:href="#l" x="223.665" y="66.477" style="fill:#000;fill-opacity:1"/><path style="fill:none;stroke-width:.59776;stroke-linecap:butt;stroke-linejoin:miter;stroke:#00c;stroke-opacity:1;stroke-dasharray:.89665,.89665;stroke-miterlimit:10" d="M-19.927-.001s2.91 1.512 4.984 1.328c2.07-.184 7.887-2.469 9.961-2.652 2.075-.188 4.98 1.324 4.98 1.324" transform="matrix(1 0 0 -1 203.841 64.264)"/></svg>