<svg xmlns="http://www.w3.org/2000/svg" xmlns:xlink="http://www.w3.org/1999/xlink" width="138.771" height="195.435" viewBox="0 0 104.078 146.576" version="1.2"><defs><clipPath id="a"><path d="M.555 9h102.05v136.36H.555Zm0 0"/></clipPath><clipPath id="b"><path d="M.555 128h102.05v1H.555Zm0 0"/></clipPath><clipPath id="c"><path d="M51 0h1v145.36h-1Zm0 0"/></clipPath><clipPath id="d"><path d="M.555 37h102.05v108.36H.555Zm0 0"/></clipPath><clipPath id="e"><path d="M.555 138H6v1H.555Zm0 0"/></clipPath><symbol overflow="visible" id="f"><path style="stroke:none" d="M6.563-2.297c.171 0 .359 0 .359-.203 0-.188-.188-.188-.36-.188h-5.39c-.172 0-.344 0-.344.188 0 .203.172.203.344.203Zm0 0"/></symbol><symbol overflow="visible" id="g"><path style="stroke:none" d="M4.578-3.188c0-.796-.047-1.593-.39-2.328C3.733-6.484 2.905-6.64 2.5-6.64c-.61 0-1.328.266-1.75 1.188-.313.687-.36 1.469-.36 2.266 0 .75.032 1.64.454 2.406a1.83 1.83 0 0 0 1.64 1c.532 0 1.297-.203 1.735-1.157.312-.687.36-1.468.36-2.25ZM2.484 0c-.39 0-.984-.25-1.156-1.203-.11-.594-.11-1.516-.11-2.11 0-.64 0-1.296.079-1.828.187-1.187.937-1.28 1.187-1.28.329 0 .985.187 1.172 1.171.11.563.11 1.313.11 1.938 0 .75 0 1.421-.11 2.062C3.5-.297 2.937 0 2.484 0Zm0 0"/></symbol><symbol overflow="visible" id="i"><path style="stroke:none" d="M4.469-2c0-1.188-.813-2.188-1.89-2.188-.47 0-.907.157-1.267.516v-1.953c.204.063.532.125.844.125 1.235 0 1.938-.906 1.938-1.031 0-.063-.032-.11-.11-.11 0 0-.03 0-.078.032a3.22 3.22 0 0 1-1.36.296c-.39 0-.858-.078-1.327-.28-.078-.032-.094-.032-.11-.032C1-6.625 1-6.547 1-6.391v2.954c0 .171 0 .25.14.25.079 0 .094-.016.141-.079.11-.156.469-.703 1.282-.703.515 0 .765.453.843.64.156.376.188.75.188 1.25 0 .36 0 .954-.25 1.376-.235.39-.61.64-1.063.64-.719 0-1.297-.53-1.469-1.109.032 0 .063.016.172.016.329 0 .5-.25.5-.485 0-.25-.171-.5-.5-.5-.14 0-.484.079-.484.532C.5-.75 1.188.219 2.297.219 3.453.219 4.469-.734 4.469-2Zm0 0"/></symbol><symbol overflow="visible" id="j"><path style="stroke:none" d="M2.938-6.375c0-.25 0-.266-.235-.266C2.078-6 1.203-6 .891-6v.313c.203 0 .78 0 1.296-.266v5.172c0 .36-.03.469-.921.469H.953V0c.344-.031 1.203-.031 1.61-.031.39 0 1.265 0 1.609.031v-.313h-.313c-.906 0-.921-.109-.921-.468Zm0 0"/></symbol><symbol overflow="visible" id="h"><path style="stroke:none" d="M1.906-.531a.534.534 0 0 0-.515-.531.537.537 0 0 0-.532.53.524.524 0 1 0 1.047 0Zm0 0"/></symbol></defs><g clip-path="url(#a)"><path style="fill:none;stroke-width:.19925;stroke-linecap:butt;stroke-linejoin:miter;stroke:gray;stroke-opacity:1;stroke-miterlimit:10" d="M-119.058-85.04h238.114m-238.114 42.52h238.114M-119.058 0h238.114m-238.114 42.519h238.114m-238.114 42.52h238.114M-85.042-119.055v238.11m42.523-238.11v238.11m42.52-238.11v238.11m42.52-238.11v238.11m42.52-238.11v238.11" transform="matrix(1 0 0 -1 51.581 128.351)"/></g><path style="fill-rule:nonzero;fill:#cfc;fill-opacity:1;stroke-width:.3985;stroke-linecap:butt;stroke-linejoin:miter;stroke:green;stroke-opacity:1;stroke-miterlimit:10" d="M.001 0h25.512c0 4.476-1.18 8.878-3.418 12.757Zm0 0" transform="matrix(1 0 0 -1 51.581 128.351)"/><g clip-path="url(#b)"><path style="fill:none;stroke-width:.3985;stroke-linecap:butt;stroke-linejoin:miter;stroke:#000;stroke-opacity:1;stroke-miterlimit:10" d="M-127.561 0H127.16" transform="matrix(1 0 0 -1 51.581 128.351)"/></g><g clip-path="url(#c)"><path style="fill:none;stroke-width:.3985;stroke-linecap:butt;stroke-linejoin:miter;stroke:#000;stroke-opacity:1;stroke-miterlimit:10" d="M.001-127.56v254.724" transform="matrix(1 0 0 -1 51.581 128.351)"/></g><path style="fill:none;stroke-width:.3985;stroke-linecap:round;stroke-linejoin:round;stroke:#000;stroke-opacity:1;stroke-miterlimit:10" d="M-2.073 2.39C-1.694.956-.85.28.001-.001c-.851-.277-1.695-.957-2.074-2.39" transform="matrix(0 -1 -1 0 51.581 .99)"/><g clip-path="url(#d)"><path style="fill:none;stroke-width:.3985;stroke-linecap:butt;stroke-linejoin:miter;stroke:#000;stroke-opacity:1;stroke-miterlimit:10" d="M85.04 0c0 46.968-38.074 85.038-85.039 85.038-46.969 0-85.043-38.07-85.043-85.039 0-46.964 38.074-85.039 85.043-85.039 46.965 0 85.04 38.075 85.04 85.04Zm0 0" transform="matrix(1 0 0 -1 51.581 128.351)"/></g><path style="fill:none;stroke-width:.3985;stroke-linecap:butt;stroke-linejoin:miter;stroke:#000;stroke-opacity:1;stroke-miterlimit:10" d="M-42.519 2.988V-2.99" transform="matrix(1 0 0 -1 51.581 128.351)"/><g clip-path="url(#e)"><use xlink:href="#f" x="-1.178" y="141.28" style="fill:#000;fill-opacity:1"/></g><use xlink:href="#g" x="6.571" y="141.28" style="fill:#000;fill-opacity:1"/><use xlink:href="#h" x="11.552" y="141.28" style="fill:#000;fill-opacity:1"/><use xlink:href="#i" x="14.32" y="141.28" style="fill:#000;fill-opacity:1"/><path style="fill:none;stroke-width:.3985;stroke-linecap:butt;stroke-linejoin:miter;stroke:#000;stroke-opacity:1;stroke-miterlimit:10" d="M2.99 42.519h-5.977" transform="matrix(1 0 0 -1 51.581 128.351)"/><use xlink:href="#g" x="32.342" y="89.041" style="fill:#000;fill-opacity:1"/><use xlink:href="#h" x="37.324" y="89.041" style="fill:#000;fill-opacity:1"/><use xlink:href="#i" x="40.091" y="89.041" style="fill:#000;fill-opacity:1"/><path style="fill:none;stroke-width:.3985;stroke-linecap:butt;stroke-linejoin:miter;stroke:#000;stroke-opacity:1;stroke-miterlimit:10" d="M2.99 85.038h-5.977" transform="matrix(1 0 0 -1 51.581 128.351)"/><use xlink:href="#j" x="40.091" y="46.522" style="fill:#000;fill-opacity:1"/></svg>