<svg xmlns="http://www.w3.org/2000/svg" width="138.195" height="99.891" viewBox="0 0 103.646 74.918" version="1.2"><defs><clipPath id="a"><path d="M0 0h103.469v74.879H0Zm0 0"/></clipPath></defs><path style="stroke:none;fill-rule:nonzero;fill:#ccf;fill-opacity:1" d="M9.203 68.164v-3.52m1.762 1.758H7.44m-2.246-2.246v-3.523m1.762 1.762H3.434m-2.145-4.012h3.524M3.05 60.145v-3.52m2.246-2.25H8.82M7.06 56.137v-3.524m2.246-2.246h3.523m-1.762 1.762v-3.524m2.25-2.246h3.52m-1.758 1.762v-3.523m-1.59-.496v-3.524m1.762 1.762h-3.523m-2.25-2.246V36.57m1.761 1.762h-3.52m-2.25-2.25v-3.52m1.762 1.762H3.707m-2.684-4.02h3.52m-1.762 1.762v-3.523m2.25-2.246h3.524m-1.762 1.762v-3.524m2.246-2.25h3.524M10.8 24.047v-3.52m2.246-2.25h3.523M14.81 20.04v-3.523m-1.055-.493V12.5m1.762 1.762h-3.524m-2.246-2.25v-3.52m1.762 1.758H7.984m-2.25-2.246V4.48m1.762 1.762h-3.52m-1.91-5.035 1.114 3.34M.953 3.434l3.34-1.114m2.844 1.422 1.113 3.34M6.023 5.969l3.34-1.114m2.844 1.422 1.113 3.34m-2.226-1.113 3.34-1.113m2.843 1.421 1.114 3.34m-2.227-1.113 3.34-1.113m2.844 1.422 1.113 3.34m-2.227-1.114 3.34-1.113m2.844 1.422 1.113 3.34m-2.226-1.114 3.34-1.113m1.105-.246h3.523m-1.761 1.762v-3.524m2.25-2.25h3.52M36.52 12.5V8.98m2.25-2.25h3.523m-1.762 1.762V4.97m2.246-2.246h3.524m-1.762 1.761V.961m4.02 3.82v3.524m-1.762-1.762h3.52m2.25 2.246v3.524m-1.762-1.762h3.523m2.246 2.25v3.52m-1.761-1.759h3.523m.496.454h3.523m-1.761 1.761v-3.523m2.246-2.246h3.523m-1.761 1.762V9.246m2.246-2.25h3.523M68.61 8.758v-3.52m2.25-2.25h3.52M72.617 4.75V1.227m4.02 3.289v3.523m-1.762-1.762h3.523m2.247 2.246v3.524m-1.762-1.762h3.523m2.25 2.246v3.524m-1.761-1.762h3.52m.495.988h3.524m-1.762 1.762V13.52m2.246-2.247h3.523m-1.761 1.762V9.512m2.25-2.246h3.52M96.69 9.027V5.504m2.246-2.246h3.524m-1.762 1.758v-3.52m.16 4.852L97.52 7.46m1.114-2.227 1.113 3.344m-1.422 2.84-3.34 1.117m1.114-2.23 1.113 3.343m-1.422 2.84-3.34 1.117m1.114-2.23 1.113 3.344m-1.422 2.843-3.34 1.114m1.113-2.23 1.114 3.343m-1.422 2.844-3.34 1.113m1.113-2.23 1.113 3.343m-1.421 1.375v3.524m-1.762-1.762h3.523m2.246 2.25v3.52m-1.757-1.762h3.52m2.25 2.25v3.523m-1.763-1.761h3.52m2.25 2.246v3.523m-1.762-1.762h3.524m-1.778 4.016h-3.523m1.762-1.758v3.52m-2.246 2.25h-3.524m1.762-1.762v3.523m-2.25 2.247h-3.52m1.762-1.762v3.523m-2.5.496v3.52m-1.762-1.758h3.524m2.246 2.246v3.524m-1.762-1.762h3.523m2.247 2.246v3.523m-1.762-1.761h3.523m2.25 2.25v3.52m-1.761-1.762h3.52m-3.141 1.394-1.114-3.34m2.227 1.114-3.344 1.113m-2.84-1.422-1.117-3.34m2.23 1.113-3.343 1.114m-2.84-1.422-1.117-3.34m2.23 1.113-3.344 1.114m-2.843-1.422-1.114-3.34m2.23 1.113-3.343 1.113m-2.844-1.422-1.113-3.34m2.23 1.114-3.343 1.113m-1.578-2.652h-3.52m1.762-1.762v3.52m-2.25 2.25h-3.52m1.758-1.762v3.523m-2.246 2.246h-3.523m1.761-1.761v3.523m-2.246 2.246h-3.523m1.761-1.758v3.52m-4.019-.266v-3.523m1.762 1.762h-3.524m-2.246-2.246v-3.524m1.762 1.762h-3.524m-2.246-2.246V61.57m1.762 1.762h-3.523m-.496-4.012H42.87m1.762-1.761v3.523m-2.246 2.25h-3.524m1.762-1.762v3.52m-2.246 2.25h-3.524m1.762-1.762v3.524m-2.25 2.246h-3.52m1.758-1.762v3.523m-4.015.266v-3.52m1.762 1.762h-3.524m-2.246-2.25v-3.523m1.758 1.761h-3.52m-2.25-2.246v-3.523m1.762 1.762h-3.523m-2.247-2.246v-3.524m1.762 1.762h-3.523m-.496 3.472h-3.52m1.758-1.761v3.523"/><g clip-path="url(#a)"><path style="fill:none;stroke-width:.79701;stroke-linecap:butt;stroke-linejoin:miter;stroke:#00f;stroke-opacity:1;stroke-miterlimit:10" d="M0-1.76v3.52M1.76.001h-3.523m-2.246 2.246V5.77m1.762-1.762H-5.77m-2.145 4.012h3.524M-6.153 6.26v3.52m2.246 2.25h3.523m-1.761-1.762v3.524M.1 16.037h3.523m-1.762-1.762V17.8m2.25 2.246h3.52m-1.758-1.762v3.523m-1.59.496v3.524m1.762-1.762H2.523M.273 26.31v3.524m1.761-1.762h-3.52m-2.25 2.25v3.52m1.762-1.762h-3.523m-2.684 4.02h3.52m-1.762-1.762v3.523m2.25 2.246h3.524m-1.762-1.762v3.524m2.246 2.25h3.523m-1.761-1.762v3.52m2.246 2.25h3.523m-1.761-1.762v3.523m-1.055.493v3.523m1.762-1.762H2.788m-2.246 2.25v3.52m1.762-1.758H-1.22M-3.47 58.4v3.524m1.762-1.762h-3.52m-1.91 5.035 1.114-3.34m-2.227 1.113 3.34 1.114m2.844-1.422 1.113-3.34m-2.227 1.113L.16 61.55m2.844-1.422 1.113-3.34M1.89 57.9l3.34 1.113m2.843-1.421 1.114-3.34M6.96 55.365l3.34 1.113m2.844-1.422 1.113-3.34M12.03 52.83l3.34 1.113m2.844-1.422 1.113-3.34m-2.226 1.114 3.34 1.113m1.105.246h3.523m-1.761-1.762v3.524m2.25 2.25h3.52m-1.762-1.762v3.52m2.25 2.25h3.523m-1.762-1.762v3.523m2.246 2.246h3.524m-1.762-1.761v3.523m4.02-3.82v-3.524m-1.762 1.762h3.52m2.25-2.246v-3.523M41.6 55.853h3.523m2.246-2.25v-3.52m-1.761 1.759h3.523m.496-.454h3.523m-1.761-1.761v3.523m2.246 2.246h3.523m-1.761-1.762v3.524m2.246 2.25h3.523m-1.762-1.762v3.52m2.25 2.25h3.52m-1.762-1.762v3.523m4.02-3.289v-3.523m-1.762 1.762h3.523m2.247-2.246v-3.524m-1.762 1.762h3.523m2.25-2.246v-3.524m-1.761 1.762h3.52m.495-.988h3.524m-1.762-1.762v3.523m2.246 2.247h3.523m-1.761-1.762v3.523m2.25 2.246h3.52m-1.759-1.761V60.9m2.247 2.246h3.523m-1.762-1.758v3.52m.16-4.852-3.34-1.113m1.114 2.227 1.113-3.344m-1.422-2.84-3.34-1.117m1.114 2.23 1.113-3.343m-1.422-2.84-3.34-1.117m1.114 2.23 1.113-3.344m-1.422-2.843-3.34-1.114m1.113 2.23 1.114-3.343m-1.422-2.844-3.34-1.113m1.113 2.23 1.113-3.343M78.98 36.17v-3.524m-1.762 1.762h3.523m2.246-2.25v-3.52M81.23 30.4h3.52M87 28.15v-3.523m-1.763 1.761h3.52m2.25-2.246V20.62m-1.762 1.762h3.524m-1.778-4.016h-3.523m1.762 1.758v-3.52m-2.246-2.25H83.46m1.762 1.762v-3.523m-2.25-2.247h-3.52m1.762 1.762V8.584m-2.5-.496v-3.52m-1.762 1.758h3.524m2.246-2.246V.556M80.96 2.318h3.524M86.73.072v-3.523M84.968-1.69h3.523m2.25-2.25v-3.52M88.98-5.697h3.52m-3.141-1.394-1.114 3.34m2.227-1.114-3.344-1.113m-2.84 1.422-1.117 3.34m2.23-1.113-3.343-1.114m-2.84 1.422L78.1 1.318M80.33.205 76.987-.91M74.144.513l-1.114 3.34m2.23-1.113-3.343-1.113m-2.844 1.422-1.113 3.34m2.23-1.114-3.343-1.113m-1.578 2.652h-3.52m1.762 1.762v-3.52m-2.25-2.25h-3.52M59.5 4.568V1.045m-2.246-2.246H53.73M55.49.56v-3.523M53.245-5.21h-3.523m1.761 1.758v-3.52m-4.019.266v3.523m1.762-1.762h-3.524m-2.246 2.246V.826m1.762-1.762h-3.524M39.448 1.31v3.524m1.762-1.762h-3.523m-.496 4.012h-3.524m1.762 1.761V5.322m-2.246-2.25h-3.524m1.762 1.762v-3.52m-2.246-2.25H25.65M27.413.826v-3.524m-2.25-2.246h-3.52m1.758 1.762v-3.523m-4.015-.266v3.52m1.762-1.762h-3.524m-2.246 2.25V.56M17.136-1.2h-3.52m-2.25 2.246v3.523m1.762-1.762H9.605M7.358 5.052v3.524M9.12 6.814H5.597M5.1 3.341H1.58M3.34 5.104V1.58" transform="matrix(1 0 0 -1 9.204 66.404)"/></g></svg>