<svg xmlns="http://www.w3.org/2000/svg" xmlns:xlink="http://www.w3.org/1999/xlink" width="216.219" height="136.347" viewBox="0 0 162.164 102.26" version="1.2"><defs><symbol overflow="visible" id="b"><path style="stroke:none" d="M3.89-2.547c0-.844-.078-1.36-.343-1.875-.344-.703-1-.875-1.438-.875-1 0-1.375.75-1.484.969C.344-3.75.328-2.953.328-2.547c0 .531.016 1.328.406 1.969.36.594.954.75 1.375.75.391 0 1.063-.125 1.47-.906.296-.579.312-1.297.312-1.813ZM2.11-.062c-.266 0-.813-.126-.985-.954-.094-.453-.094-1.203-.094-1.625 0-.546 0-1.109.094-1.546.172-.813.781-.891.984-.891.266 0 .829.14.985.86.094.437.094 1.046.094 1.577 0 .47 0 1.188-.094 1.641-.172.828-.719.938-.985.938Zm0 0"/></symbol><symbol overflow="visible" id="c"><path style="stroke:none" d="M2.25-1.625c.125-.125.453-.39.594-.5.484-.453.953-.89.953-1.61 0-.953-.797-1.562-1.781-1.562-.97 0-1.594.719-1.594 1.438 0 .39.312.437.422.437.172 0 .422-.11.422-.422 0-.406-.407-.406-.5-.406.234-.594.765-.781 1.156-.781.734 0 1.125.625 1.125 1.297 0 .828-.578 1.437-1.531 2.39l-1 1.047C.422-.219.422-.203.422 0h3.14l.235-1.422h-.25c-.016.156-.078.547-.172.703-.047.063-.656.063-.781.063H1.172Zm0 0"/></symbol><symbol overflow="visible" id="d"><path style="stroke:none" d="M3.14-5.156c0-.157 0-.219-.171-.219-.094 0-.11 0-.188.11L.234-1.564v.25h2.25v.672c0 .297-.015.375-.64.375h-.172V0c.672-.031.687-.031 1.14-.031.454 0 .47 0 1.141.031v-.266h-.172c-.625 0-.64-.078-.64-.375v-.671h.843v-.25h-.843Zm-.593.64v2.954H.516Zm0 0"/></symbol><symbol overflow="visible" id="e"><path style="stroke:none" d="M1.094-2.64c0-.657.062-1.235.343-1.72.25-.406.657-.734 1.157-.734.156 0 .515.032.703.297-.36.031-.39.297-.39.375 0 .25.187.375.374.375.14 0 .375-.078.375-.39 0-.47-.36-.86-1.078-.86C1.468-5.297.344-4.25.344-2.53.344-.36 1.359.172 2.125.172c.39 0 .797-.11 1.156-.453.328-.313.594-.64.594-1.344 0-1.031-.797-1.766-1.672-1.766-.578 0-.922.36-1.11.75ZM2.125-.079a.88.88 0 0 1-.797-.516c-.187-.36-.203-.89-.203-1.203 0-.781.422-1.375 1.047-1.375.39 0 .64.203.781.485.172.296.172.656.172 1.062s0 .75-.156 1.047c-.219.36-.485.5-.844.5Zm0 0"/></symbol><symbol overflow="visible" id="f"><path style="stroke:none" d="M2.64-2.875c.454-.219 1-.61 1-1.234 0-.766-.78-1.188-1.515-1.188-.844 0-1.531.578-1.531 1.328 0 .297.094.563.297.797.14.172.171.188.656.5C.563-2.234.344-1.656.344-1.219c0 .89.89 1.39 1.765 1.39.97 0 1.766-.671 1.766-1.515 0-.5-.266-.828-.406-.968-.125-.126-.14-.141-.828-.563Zm-1.234-.75c-.234-.14-.422-.375-.422-.64 0-.5.547-.829 1.125-.829.61 0 1.125.422 1.125.985 0 .453-.359.843-.828 1.078Zm.39 1.094c.032.015.938.578 1.079.656.125.078.547.328.547.813 0 .609-.656.984-1.297.984-.719 0-1.313-.484-1.313-1.14 0-.595.438-1.063.985-1.313Zm0 0"/></symbol><symbol overflow="visible" id="g"><path style="stroke:none" d="M2.5-5.078c0-.219-.016-.219-.234-.219-.329.313-.75.5-1.5.5v.266c.218 0 .64 0 1.109-.203v4.078c0 .297-.031.39-.781.39H.812V0c.329-.031 1.016-.031 1.375-.031.36 0 1.047 0 1.376.031v-.266H3.28c-.75 0-.781-.093-.781-.39Zm0 0"/></symbol><clipPath id="a"><path d="M4 0h157.746v100H4Zm0 0"/></clipPath></defs><path style="fill:none;stroke-width:.3985;stroke-linecap:round;stroke-linejoin:miter;stroke:gray;stroke-opacity:1;stroke-miterlimit:10" d="M0-1.992V0M28.345-1.992V0M56.692-1.992V0M85.04-1.992V0M113.384-1.992V0M141.731-1.992V0M0 87.59v1.993M28.345 87.59v1.993M56.692 87.59v1.993M85.04 87.59v1.993M113.384 87.59v1.993M141.731 87.59v1.993M-1.991 0H0M-1.991 17.52H0M-1.991 35.036H0M-1.991 52.555H0M-1.991 70.07H0M-1.991 87.59H0M141.735 0h1.992M141.735 17.52h1.992M141.735 35.036h1.992M141.735 52.555h1.992M141.735 70.07h1.992M141.735 87.59h1.992" transform="matrix(1 0 0 -1 13.003 90.938)"/><path style="fill:none;stroke-width:.3985;stroke-linecap:butt;stroke-linejoin:miter;stroke:gray;stroke-opacity:1;stroke-miterlimit:10" d="M0 0h141.735M0 87.59h141.735M0 0v87.59M141.735 0v87.59" transform="matrix(1 0 0 -1 13.003 90.938)"/><g clip-path="url(#a)"><path style="fill:none;stroke-width:.59776;stroke-linecap:butt;stroke-linejoin:miter;stroke:#000;stroke-opacity:1;stroke-miterlimit:10" d="M0 0s4.267 14.372 5.907 17.88c1.637 3.507 4.266 5.59 5.902 7.406 1.641 1.816 4.27 4.23 5.907 5.683 1.64 1.453 4.265 3.54 5.906 4.79 1.637 1.25 4.266 3.105 5.906 4.222 1.637 1.113 4.266 2.797 5.903 3.812 1.64 1.02 4.27 2.57 5.906 3.512 1.64.938 4.27 2.387 5.906 3.266 1.64.879 4.266 2.238 5.906 3.066 1.637.828 4.266 2.117 5.907 2.903 1.636.785 4.265 2.011 5.902 2.757 1.64.75 4.27 1.922 5.906 2.637 1.64.719 4.266 1.844 5.906 2.531 1.641.688 4.266 1.77 5.907 2.434a579.83 579.83 0 0 0 5.906 2.348c1.637.64 4.266 1.648 5.902 2.27 1.64.62 4.27 1.6 5.907 2.202 1.64.602 4.265 1.551 5.906 2.137a814.95 814.95 0 0 0 11.808 4.102c1.641.554 4.27 1.433 5.907 1.976 1.64.54 4.27 1.399 5.906 1.926 1.64.531 4.266 1.367 5.906 1.887 1.637.515 5.906 1.843 5.906 1.843" transform="matrix(1 0 0 -1 13.003 90.938)"/></g><use xlink:href="#b" x="10.886" y="100.723" style="fill:#000;fill-opacity:1"/><g style="fill:#000;fill-opacity:1"><use xlink:href="#c" x="37.115" y="100.723"/><use xlink:href="#b" x="41.35" y="100.723"/></g><g style="fill:#000;fill-opacity:1"><use xlink:href="#d" x="65.46" y="100.723"/><use xlink:href="#b" x="69.695" y="100.723"/></g><g style="fill:#000;fill-opacity:1"><use xlink:href="#e" x="93.806" y="100.723"/><use xlink:href="#b" x="98.041" y="100.723"/></g><g style="fill:#000;fill-opacity:1"><use xlink:href="#f" x="122.152" y="100.723"/><use xlink:href="#b" x="126.387" y="100.723"/></g><g style="fill:#000;fill-opacity:1"><use xlink:href="#g" x="148.38" y="100.723"/><use xlink:href="#b" x="152.615" y="100.723"/><use xlink:href="#b" x="156.849" y="100.723"/></g><use xlink:href="#b" x="4.12" y="93.506" style="fill:#000;fill-opacity:1"/><use xlink:href="#c" x="4.12" y="75.988" style="fill:#000;fill-opacity:1"/><use xlink:href="#d" x="4.12" y="58.47" style="fill:#000;fill-opacity:1"/><use xlink:href="#e" x="4.12" y="40.952" style="fill:#000;fill-opacity:1"/><use xlink:href="#f" x="4.12" y="23.434" style="fill:#000;fill-opacity:1"/><g style="fill:#000;fill-opacity:1"><use xlink:href="#g" x="-.114" y="5.917"/><use xlink:href="#b" x="4.121" y="5.917"/></g></svg>