<svg xmlns="http://www.w3.org/2000/svg" width="56.117" height="48.291" viewBox="0 0 42.088 36.218" version="1.2"><defs><clipPath id="a"><path d="M0 17h10v18.828H0Zm0 0"/></clipPath><clipPath id="b"><path d="M0 17h13v18.828H0Zm0 0"/></clipPath><clipPath id="c"><path d="M6 17h15v18.828H6Zm0 0"/></clipPath><clipPath id="d"><path d="M9 17h15v18.828H9Zm0 0"/></clipPath><clipPath id="e"><path d="M17 17h15v18.828H17Zm0 0"/></clipPath><clipPath id="f"><path d="M20 17h15v18.828H20Zm0 0"/></clipPath><clipPath id="g"><path d="M26 6h15.633v24H26Zm0 0"/></clipPath><clipPath id="h"><path d="M29 17h12.633v18.828H29Zm0 0"/></clipPath><clipPath id="i"><path d="M31 17h10.633v18.828H31Zm0 0"/></clipPath></defs><path style="fill:none;stroke-width:.3985;stroke-linecap:butt;stroke-linejoin:miter;stroke:#000;stroke-opacity:1;stroke-miterlimit:10" d="m.002 0-11.34-11.34M-11.338-11.34l-5.672-11.336" transform="matrix(1 0 0 -1 20.588 .754)"/><g clip-path="url(#a)"><path style="fill:none;stroke-width:.3985;stroke-linecap:butt;stroke-linejoin:miter;stroke:#000;stroke-opacity:1;stroke-miterlimit:10" d="m-17.01-22.676-2.832-11.34" transform="matrix(1 0 0 -1 20.588 .754)"/></g><g clip-path="url(#b)"><path style="fill:none;stroke-width:.3985;stroke-linecap:butt;stroke-linejoin:miter;stroke:#000;stroke-opacity:1;stroke-miterlimit:10" d="m-17.01-22.676 2.836-11.34" transform="matrix(1 0 0 -1 20.588 .754)"/></g><path style="fill:none;stroke-width:.3985;stroke-linecap:butt;stroke-linejoin:miter;stroke:#000;stroke-opacity:1;stroke-miterlimit:10" d="m-11.338-11.34 5.668-11.336" transform="matrix(1 0 0 -1 20.588 .754)"/><g clip-path="url(#c)"><path style="fill:none;stroke-width:.3985;stroke-linecap:butt;stroke-linejoin:miter;stroke:#000;stroke-opacity:1;stroke-miterlimit:10" d="m-5.67-22.676-2.832-11.34" transform="matrix(1 0 0 -1 20.588 .754)"/></g><g clip-path="url(#d)"><path style="fill:none;stroke-width:.3985;stroke-linecap:butt;stroke-linejoin:miter;stroke:#000;stroke-opacity:1;stroke-miterlimit:10" d="m-5.67-22.676 2.836-11.34" transform="matrix(1 0 0 -1 20.588 .754)"/></g><path style="fill:none;stroke-width:.3985;stroke-linecap:butt;stroke-linejoin:miter;stroke:#000;stroke-opacity:1;stroke-miterlimit:10" d="m.002 0 11.336-11.34M11.338-11.34 5.67-22.676" transform="matrix(1 0 0 -1 20.588 .754)"/><g clip-path="url(#e)"><path style="fill:none;stroke-width:.3985;stroke-linecap:butt;stroke-linejoin:miter;stroke:#000;stroke-opacity:1;stroke-miterlimit:10" d="m5.67-22.676-2.836-11.34" transform="matrix(1 0 0 -1 20.588 .754)"/></g><g clip-path="url(#f)"><path style="fill:none;stroke-width:.3985;stroke-linecap:butt;stroke-linejoin:miter;stroke:#000;stroke-opacity:1;stroke-miterlimit:10" d="m5.67-22.676 2.836-11.34" transform="matrix(1 0 0 -1 20.588 .754)"/></g><g clip-path="url(#g)"><path style="fill:none;stroke-width:.3985;stroke-linecap:butt;stroke-linejoin:miter;stroke:#000;stroke-opacity:1;stroke-miterlimit:10" d="m11.338-11.34 5.672-11.336" transform="matrix(1 0 0 -1 20.588 .754)"/></g><g clip-path="url(#h)"><path style="fill:none;stroke-width:.3985;stroke-linecap:butt;stroke-linejoin:miter;stroke:#000;stroke-opacity:1;stroke-miterlimit:10" d="m17.01-22.676-2.836-11.34" transform="matrix(1 0 0 -1 20.588 .754)"/></g><g clip-path="url(#i)"><path style="fill:none;stroke-width:.3985;stroke-linecap:butt;stroke-linejoin:miter;stroke:#000;stroke-opacity:1;stroke-miterlimit:10" d="m17.01-22.676 2.832-11.34" transform="matrix(1 0 0 -1 20.588 .754)"/></g></svg>