<svg xmlns="http://www.w3.org/2000/svg" xmlns:xlink="http://www.w3.org/1999/xlink" width="320.067" height="296.979" viewBox="0 0 240.05 222.734" version="1.2"><defs><symbol overflow="visible" id="a"><path style="stroke:none" d="M3.89-2.547c0-.844-.078-1.36-.343-1.875-.344-.703-1-.875-1.438-.875-1 0-1.375.75-1.484.969C.344-3.75.328-2.953.328-2.547c0 .531.016 1.328.406 1.969.36.594.954.75 1.375.75.391 0 1.063-.125 1.47-.906.296-.579.312-1.297.312-1.813ZM2.11-.062c-.266 0-.813-.126-.985-.954-.094-.453-.094-1.203-.094-1.625 0-.546 0-1.109.094-1.546.172-.813.781-.891.984-.891.266 0 .829.14.985.86.094.437.094 1.046.094 1.577 0 .47 0 1.188-.094 1.641-.172.828-.719.938-.985.938Zm0 0"/></symbol><symbol overflow="visible" id="c"><path style="stroke:none" d="M2.5-5.078c0-.219-.016-.219-.234-.219-.329.313-.75.5-1.5.5v.266c.218 0 .64 0 1.109-.203v4.078c0 .297-.031.39-.781.39H.812V0c.329-.031 1.016-.031 1.375-.031.36 0 1.047 0 1.376.031v-.266H3.28c-.75 0-.781-.093-.781-.39Zm0 0"/></symbol><symbol overflow="visible" id="d"><path style="stroke:none" d="M1.11-4.484c.109.03.421.125.765.125 1 0 1.594-.704 1.594-.829 0-.093-.047-.109-.094-.109-.016 0-.031 0-.094.031a2.982 2.982 0 0 1-1.11.22c-.468 0-.858-.11-1.108-.22-.079-.03-.094-.03-.11-.03-.094 0-.094.077-.094.234v2.328c0 .14 0 .234.125.234.063 0 .079-.031.125-.094.094-.11.391-.515 1.079-.515.437 0 .656.359.734.515.125.281.14.656.14.953 0 .297 0 .735-.218 1.079-.156.25-.485.484-.906.484A1.271 1.271 0 0 1 .734-.922c.016.016.079.016.079.016.218 0 .406-.14.406-.39a.388.388 0 0 0-.39-.407c-.157 0-.407.078-.407.422 0 .718.625 1.453 1.531 1.453 1 0 1.844-.781 1.844-1.766 0-.922-.672-1.75-1.61-1.75-.39 0-.765.125-1.078.406Zm0 0"/></symbol><symbol overflow="visible" id="e"><path style="stroke:none" d="M2.016-2.656c.625 0 1.03.453 1.03 1.297 0 1-.562 1.28-.983 1.28-.438 0-1.047-.155-1.329-.577.297 0 .5-.188.5-.438 0-.265-.187-.437-.453-.437-.203 0-.437.125-.437.453 0 .75.812 1.25 1.734 1.25 1.047 0 1.797-.734 1.797-1.531 0-.672-.531-1.266-1.344-1.454.625-.218 1.11-.75 1.11-1.39 0-.64-.72-1.094-1.547-1.094-.86 0-1.5.453-1.5 1.063 0 .296.187.421.406.421.25 0 .406-.171.406-.406 0-.297-.265-.406-.437-.406.344-.438.953-.469 1.094-.469.203 0 .812.063.812.89 0 .548-.234.891-.344 1.016-.234.25-.422.266-.906.297-.156 0-.219.016-.219.125 0 .11.078.11.219.11Zm0 0"/></symbol><symbol overflow="visible" id="f"><path style="stroke:none" d="M3.14-5.156c0-.157 0-.219-.171-.219-.094 0-.11 0-.188.11L.234-1.564v.25h2.25v.672c0 .297-.015.375-.64.375h-.172V0c.672-.031.687-.031 1.14-.031.454 0 .47 0 1.141.031v-.266h-.172c-.625 0-.64-.078-.64-.375v-.671h.843v-.25h-.843Zm-.593.64v2.954H.516Zm0 0"/></symbol><symbol overflow="visible" id="g"><path style="stroke:none" d="M1.094-2.64c0-.657.062-1.235.343-1.72.25-.406.657-.734 1.157-.734.156 0 .515.032.703.297-.36.031-.39.297-.39.375 0 .25.187.375.374.375.14 0 .375-.078.375-.39 0-.47-.36-.86-1.078-.86C1.468-5.297.344-4.25.344-2.53.344-.36 1.359.172 2.125.172c.39 0 .797-.11 1.156-.453.328-.313.594-.64.594-1.344 0-1.031-.797-1.766-1.672-1.766-.578 0-.922.36-1.11.75ZM2.125-.079a.88.88 0 0 1-.797-.516c-.187-.36-.203-.89-.203-1.203 0-.781.422-1.375 1.047-1.375.39 0 .64.203.781.485.172.296.172.656.172 1.062s0 .75-.156 1.047c-.219.36-.485.5-.844.5Zm0 0"/></symbol><symbol overflow="visible" id="h"><path style="stroke:none" d="M4.031-4.86c.078-.077.078-.093.078-.265H2.08a8.79 8.79 0 0 1-.642-.031c-.421-.032-.421-.11-.453-.235h-.25L.47-3.703h.25c.015-.125.11-.672.219-.735.078-.046.687-.046.796-.046h1.688l-.813 1.109C1.703-2.172 1.5-.906 1.5-.281c0 .078 0 .453.375.453s.375-.36.375-.453v-.39c0-1.141.203-2.079.594-2.61Zm0 0"/></symbol><symbol overflow="visible" id="i"><path style="stroke:none" d="M3.125-2.344c0 1.938-.922 2.266-1.39 2.266-.173 0-.579-.016-.798-.266.36-.031.375-.297.375-.375a.37.37 0 0 0-.375-.375.37.37 0 0 0-.375.39c0 .548.454.876 1.188.876 1.094 0 2.125-1.094 2.125-2.797 0-2.063-.922-2.672-1.734-2.672-.954 0-1.797.734-1.797 1.781 0 1.016.781 1.766 1.687 1.766.563 0 .906-.36 1.094-.766Zm-1.063.375c-.374 0-.609-.172-.78-.468-.188-.282-.188-.672-.188-1.079 0-.468 0-.796.218-1.125.204-.296.454-.453.829-.453.53 0 .765.532.796.563.157.39.172 1.015.172 1.172 0 .64-.343 1.39-1.046 1.39Zm0 0"/></symbol><symbol overflow="visible" id="j"><path style="stroke:none" d="M2.25-1.625c.125-.125.453-.39.594-.5.484-.453.953-.89.953-1.61 0-.953-.797-1.562-1.781-1.562-.97 0-1.594.719-1.594 1.438 0 .39.312.437.422.437.172 0 .422-.11.422-.422 0-.406-.407-.406-.5-.406.234-.594.765-.781 1.156-.781.734 0 1.125.625 1.125 1.297 0 .828-.578 1.437-1.531 2.39l-1 1.047C.422-.219.422-.203.422 0h3.14l.235-1.422h-.25c-.016.156-.078.547-.172.703-.047.063-.656.063-.781.063H1.172Zm0 0"/></symbol><symbol overflow="visible" id="k"><path style="stroke:none" d="M2.64-2.875c.454-.219 1-.61 1-1.234 0-.766-.78-1.188-1.515-1.188-.844 0-1.531.578-1.531 1.328 0 .297.094.563.297.797.14.172.171.188.656.5C.563-2.234.344-1.656.344-1.219c0 .89.89 1.39 1.765 1.39.97 0 1.766-.671 1.766-1.515 0-.5-.266-.828-.406-.968-.125-.126-.14-.141-.828-.563Zm-1.234-.75c-.234-.14-.422-.375-.422-.64 0-.5.547-.829 1.125-.829.61 0 1.125.422 1.125.985 0 .453-.359.843-.828 1.078Zm.39 1.094c.032.015.938.578 1.079.656.125.078.547.328.547.813 0 .609-.656.984-1.297.984-.719 0-1.313-.484-1.313-1.14 0-.595.438-1.063.985-1.313Zm0 0"/></symbol><symbol overflow="visible" id="b"><path style="stroke:none" d="M3.266-1.5c0-.75-.61-1.36-1.36-1.36-.734 0-1.343.61-1.343 1.36 0 .766.609 1.36 1.343 1.36.75 0 1.36-.594 1.36-1.36ZM1.906-.453A1.024 1.024 0 0 1 .875-1.5c0-.578.453-1.047 1.031-1.047.578 0 1.047.469 1.047 1.047 0 .594-.469 1.047-1.047 1.047Zm0 0"/></symbol><symbol overflow="visible" id="l"><path style="stroke:none" d="M1.484-.125c0 .516-.109.984-.593 1.469-.032.031-.047.047-.047.078 0 .062.062.11.11.11.093 0 .765-.626.765-1.563 0-.5-.203-.86-.547-.86a.436.436 0 0 0-.438.438c0 .234.157.453.438.453.203 0 .312-.11.312-.125Zm0 0"/></symbol></defs><path style="fill:none;stroke-width:.3985;stroke-linecap:butt;stroke-linejoin:miter;stroke:#bfbfbf;stroke-opacity:1;stroke-miterlimit:10" d="M42.519.002c0 23.48-19.035 42.52-42.52 42.52-23.484 0-42.52-19.04-42.52-42.52 0-23.485 19.036-42.524 42.52-42.524 23.485 0 42.52 19.04 42.52 42.524" transform="matrix(1 0 0 -1 121.481 111.15)"/><path style="fill:none;stroke-width:.3985;stroke-linecap:butt;stroke-linejoin:miter;stroke:#bfbfbf;stroke-opacity:1;stroke-miterlimit:10" d="M85.042.002C85.042 46.966 46.968 85.04 0 85.04-46.969 85.04-85.04 46.966-85.04 0-85.04-46.966-46.97-85.04 0-85.04c46.968 0 85.042 38.074 85.042 85.043" transform="matrix(1 0 0 -1 121.481 111.15)"/><path style="fill:none;stroke-width:.3985;stroke-linecap:round;stroke-linejoin:miter;stroke:gray;stroke-opacity:1;stroke-miterlimit:10" d="M99.984.002h1.992M96.578 25.877l1.925.515M86.59 49.994l1.726.996M70.699 70.7l1.41 1.407M49.992 86.588l.996 1.726M25.878 96.58l.516 1.922M0 99.986v1.992M-25.88 96.58l-.515 1.922M-49.993 86.588l-.996 1.726M-70.7 70.7l-1.41 1.407M-86.59 49.994l-1.727.996M-96.579 25.877l-1.925.515M-99.985.002h-1.992M-96.579-25.877l-1.925-.516M-86.59-49.99l-1.727-.997M-70.7-70.702l-1.41-1.406M-49.993-86.588l-.996-1.727M-25.88-96.577l-.515-1.925M0-99.983v-1.996M25.878-96.577l.516-1.925M49.992-86.588l.996-1.727M70.699-70.702l1.41-1.406M86.59-49.99l1.726-.997M96.578-25.877l1.925-.516M0 .002h0M42.519.002h0M85.042.002h0M42.519-1.99v3.984M85.042-1.99v3.984M1.992 42.521h-3.985M1.992 85.04h-3.985M-42.52 1.994v-3.985M-85.04 1.994v-3.985M-1.993-42.522h3.985M-1.993-85.041h3.985" transform="matrix(1 0 0 -1 121.481 111.15)"/><path style="fill:none;stroke-width:.3985;stroke-linecap:butt;stroke-linejoin:miter;stroke:gray;stroke-opacity:1;stroke-miterlimit:10" d="M99.984.002c0 55.218-44.762 99.984-99.985 99.984-55.218 0-99.984-44.766-99.984-99.984 0-55.223 44.766-99.985 99.984-99.985 55.223 0 99.985 44.762 99.985 99.985M0 .002h99.984M0 .002v99.984M0 .002h-99.985M0 .002v-99.985" transform="matrix(1 0 0 -1 121.481 111.15)"/><path style="fill:none;stroke-width:.59776;stroke-linecap:butt;stroke-linejoin:miter;stroke:#000;stroke-opacity:1;stroke-miterlimit:10" d="M0 .002s.066-.004.148.007C.23.021.425.05.585.088c.16.035.48.117.711.199.235.082.668.25.965.39.301.141.832.418 1.188.637.355.215.968.625 1.367.934.398.304 1.074.87 1.5 1.277.43.41 1.137 1.145 1.578 1.668.441.52 1.156 1.445 1.594 2.086.433.64 1.129 1.77 1.539 2.535.414.77 1.055 2.102 1.418 3 .367.899.922 2.441 1.222 3.473.297 1.027.727 2.785.938 3.941.215 1.156.484 3.117.586 4.399.101 1.28.176 3.441.148 4.835-.03 1.399-.183 3.739-.37 5.243-.184 1.5-.602 4-.962 5.597-.36 1.594-1.074 4.23-1.629 5.903-.55 1.672-1.593 4.414-2.363 6.14-.766 1.73-2.164 4.547-3.16 6.309-.996 1.762-2.777 4.617-4.016 6.39-1.238 1.77-3.422 4.626-4.918 6.38-1.492 1.753-4.097 4.562-5.855 6.269-1.762 1.71-6.832 6.055-6.832 6.055" transform="matrix(1 0 0 -1 121.481 111.15)"/><use xlink:href="#a" x="226.113" y="113.982" style="fill:#000;fill-opacity:1"/><use xlink:href="#b" x="230.347" y="111.169" style="fill:#000;fill-opacity:1"/><g style="fill:#000;fill-opacity:1"><use xlink:href="#c" x="222.638" y="82.101"/><use xlink:href="#d" x="226.873" y="82.101"/></g><use xlink:href="#b" x="231.106" y="79.288" style="fill:#000;fill-opacity:1"/><g style="fill:#000;fill-opacity:1"><use xlink:href="#e" x="212.451" y="57.506"/><use xlink:href="#a" x="216.686" y="57.506"/></g><use xlink:href="#b" x="220.919" y="54.694" style="fill:#000;fill-opacity:1"/><g style="fill:#000;fill-opacity:1"><use xlink:href="#f" x="196.245" y="36.386"/><use xlink:href="#d" x="200.48" y="36.386"/></g><use xlink:href="#b" x="204.713" y="33.574" style="fill:#000;fill-opacity:1"/><g style="fill:#000;fill-opacity:1"><use xlink:href="#g" x="175.125" y="20.18"/><use xlink:href="#a" x="179.36" y="20.18"/></g><use xlink:href="#b" x="183.593" y="17.368" style="fill:#000;fill-opacity:1"/><g style="fill:#000;fill-opacity:1"><use xlink:href="#h" x="150.53" y="9.993"/><use xlink:href="#d" x="154.765" y="9.993"/></g><use xlink:href="#b" x="158.998" y="7.18" style="fill:#000;fill-opacity:1"/><g style="fill:#000;fill-opacity:1"><use xlink:href="#i" x="115.088" y="6.518"/><use xlink:href="#a" x="119.323" y="6.518"/></g><use xlink:href="#b" x="123.556" y="3.706" style="fill:#000;fill-opacity:1"/><g style="fill:#000;fill-opacity:1"><use xlink:href="#c" x="75.412" y="9.993"/><use xlink:href="#a" x="79.647" y="9.993"/><use xlink:href="#d" x="83.881" y="9.993"/></g><use xlink:href="#b" x="88.114" y="7.18" style="fill:#000;fill-opacity:1"/><g style="fill:#000;fill-opacity:1"><use xlink:href="#c" x="50.817" y="20.18"/><use xlink:href="#j" x="55.052" y="20.18"/><use xlink:href="#a" x="59.286" y="20.18"/></g><use xlink:href="#b" x="63.52" y="17.368" style="fill:#000;fill-opacity:1"/><g style="fill:#000;fill-opacity:1"><use xlink:href="#c" x="29.697" y="36.386"/><use xlink:href="#e" x="33.932" y="36.386"/><use xlink:href="#d" x="38.166" y="36.386"/></g><use xlink:href="#b" x="42.4" y="33.574" style="fill:#000;fill-opacity:1"/><g style="fill:#000;fill-opacity:1"><use xlink:href="#c" x="13.491" y="57.506"/><use xlink:href="#d" x="17.726" y="57.506"/><use xlink:href="#a" x="21.96" y="57.506"/></g><use xlink:href="#b" x="26.194" y="54.694" style="fill:#000;fill-opacity:1"/><g style="fill:#000;fill-opacity:1"><use xlink:href="#c" x="3.304" y="82.101"/><use xlink:href="#g" x="7.539" y="82.101"/><use xlink:href="#d" x="11.773" y="82.101"/></g><use xlink:href="#b" x="16.006" y="79.288" style="fill:#000;fill-opacity:1"/><g style="fill:#000;fill-opacity:1"><use xlink:href="#c" x="-.171" y="113.982"/><use xlink:href="#k" x="4.064" y="113.982"/><use xlink:href="#a" x="8.298" y="113.982"/></g><use xlink:href="#b" x="12.532" y="111.169" style="fill:#000;fill-opacity:1"/><g style="fill:#000;fill-opacity:1"><use xlink:href="#c" x="3.304" y="145.863"/><use xlink:href="#i" x="7.539" y="145.863"/><use xlink:href="#d" x="11.773" y="145.863"/></g><use xlink:href="#b" x="16.006" y="143.05" style="fill:#000;fill-opacity:1"/><g style="fill:#000;fill-opacity:1"><use xlink:href="#j" x="13.491" y="170.457"/><use xlink:href="#c" x="17.726" y="170.457"/><use xlink:href="#a" x="21.96" y="170.457"/></g><use xlink:href="#b" x="26.194" y="167.645" style="fill:#000;fill-opacity:1"/><g style="fill:#000;fill-opacity:1"><use xlink:href="#j" x="29.697" y="191.577"/><use xlink:href="#j" x="33.932" y="191.577"/><use xlink:href="#d" x="38.166" y="191.577"/></g><use xlink:href="#b" x="42.4" y="188.765" style="fill:#000;fill-opacity:1"/><g style="fill:#000;fill-opacity:1"><use xlink:href="#j" x="50.817" y="207.783"/><use xlink:href="#f" x="55.052" y="207.783"/><use xlink:href="#a" x="59.286" y="207.783"/></g><use xlink:href="#b" x="63.52" y="204.971" style="fill:#000;fill-opacity:1"/><g style="fill:#000;fill-opacity:1"><use xlink:href="#j" x="75.412" y="217.971"/><use xlink:href="#d" x="79.647" y="217.971"/><use xlink:href="#d" x="83.881" y="217.971"/></g><use xlink:href="#b" x="88.114" y="215.158" style="fill:#000;fill-opacity:1"/><g style="fill:#000;fill-opacity:1"><use xlink:href="#j" x="112.971" y="221.445"/><use xlink:href="#h" x="117.206" y="221.445"/><use xlink:href="#a" x="121.44" y="221.445"/></g><use xlink:href="#b" x="125.673" y="218.633" style="fill:#000;fill-opacity:1"/><g style="fill:#000;fill-opacity:1"><use xlink:href="#j" x="150.53" y="217.971"/><use xlink:href="#k" x="154.765" y="217.971"/><use xlink:href="#d" x="158.999" y="217.971"/></g><use xlink:href="#b" x="163.233" y="215.158" style="fill:#000;fill-opacity:1"/><g style="fill:#000;fill-opacity:1"><use xlink:href="#e" x="175.125" y="207.783"/><use xlink:href="#a" x="179.36" y="207.783"/><use xlink:href="#a" x="183.594" y="207.783"/></g><use xlink:href="#b" x="187.827" y="204.971" style="fill:#000;fill-opacity:1"/><g style="fill:#000;fill-opacity:1"><use xlink:href="#e" x="196.245" y="191.577"/><use xlink:href="#c" x="200.48" y="191.577"/><use xlink:href="#d" x="204.714" y="191.577"/></g><use xlink:href="#b" x="208.947" y="188.765" style="fill:#000;fill-opacity:1"/><g style="fill:#000;fill-opacity:1"><use xlink:href="#e" x="212.451" y="170.457"/><use xlink:href="#e" x="216.686" y="170.457"/><use xlink:href="#a" x="220.92" y="170.457"/></g><use xlink:href="#b" x="225.153" y="167.645" style="fill:#000;fill-opacity:1"/><g style="fill:#000;fill-opacity:1"><use xlink:href="#e" x="222.638" y="145.863"/><use xlink:href="#f" x="226.873" y="145.863"/><use xlink:href="#d" x="231.107" y="145.863"/></g><use xlink:href="#b" x="235.341" y="143.05" style="fill:#000;fill-opacity:1"/><use xlink:href="#a" x="119.364" y="118.943" style="fill:#000;fill-opacity:1"/><use xlink:href="#d" x="154.356" y="118.943" style="fill:#000;fill-opacity:1"/><use xlink:href="#l" x="158.59" y="118.943" style="fill:#000;fill-opacity:1"/><g style="fill:#000;fill-opacity:1"><use xlink:href="#a" x="160.943" y="118.943"/><use xlink:href="#a" x="165.178" y="118.943"/><use xlink:href="#a" x="169.412" y="118.943"/></g><g style="fill:#000;fill-opacity:1"><use xlink:href="#c" x="194.759" y="118.943"/><use xlink:href="#a" x="198.994" y="118.943"/></g><use xlink:href="#l" x="203.228" y="118.943" style="fill:#000;fill-opacity:1"/><g style="fill:#000;fill-opacity:1"><use xlink:href="#a" x="205.58" y="118.943"/><use xlink:href="#a" x="209.815" y="118.943"/><use xlink:href="#a" x="214.049" y="118.943"/></g><use xlink:href="#d" x="154.356" y="120.935" style="fill:#000;fill-opacity:1"/><use xlink:href="#l" x="158.59" y="120.935" style="fill:#000;fill-opacity:1"/><g style="fill:#000;fill-opacity:1"><use xlink:href="#a" x="160.943" y="120.935"/><use xlink:href="#a" x="165.178" y="120.935"/><use xlink:href="#a" x="169.412" y="120.935"/></g><g style="fill:#000;fill-opacity:1"><use xlink:href="#c" x="194.759" y="120.935"/><use xlink:href="#a" x="198.994" y="120.935"/></g><use xlink:href="#l" x="203.228" y="120.935" style="fill:#000;fill-opacity:1"/><g style="fill:#000;fill-opacity:1"><use xlink:href="#a" x="205.58" y="120.935"/><use xlink:href="#a" x="209.815" y="120.935"/><use xlink:href="#a" x="214.049" y="120.935"/></g><use xlink:href="#d" x="97.543" y="70.424" style="fill:#000;fill-opacity:1"/><use xlink:href="#l" x="101.777" y="70.424" style="fill:#000;fill-opacity:1"/><g style="fill:#000;fill-opacity:1"><use xlink:href="#a" x="104.13" y="70.424"/><use xlink:href="#a" x="108.365" y="70.424"/><use xlink:href="#a" x="112.599" y="70.424"/></g><g style="fill:#000;fill-opacity:1"><use xlink:href="#c" x="93.309" y="27.903"/><use xlink:href="#a" x="97.544" y="27.903"/></g><use xlink:href="#l" x="101.777" y="27.903" style="fill:#000;fill-opacity:1"/><g style="fill:#000;fill-opacity:1"><use xlink:href="#a" x="104.13" y="27.903"/><use xlink:href="#a" x="108.365" y="27.903"/><use xlink:href="#a" x="112.599" y="27.903"/></g><use xlink:href="#d" x="69.316" y="120.935" style="fill:#000;fill-opacity:1"/><use xlink:href="#l" x="73.55" y="120.935" style="fill:#000;fill-opacity:1"/><g style="fill:#000;fill-opacity:1"><use xlink:href="#a" x="75.903" y="120.935"/><use xlink:href="#a" x="80.138" y="120.935"/><use xlink:href="#a" x="84.372" y="120.935"/></g><g style="fill:#000;fill-opacity:1"><use xlink:href="#c" x="24.679" y="120.935"/><use xlink:href="#a" x="28.914" y="120.935"/></g><use xlink:href="#l" x="33.147" y="120.935" style="fill:#000;fill-opacity:1"/><g style="fill:#000;fill-opacity:1"><use xlink:href="#a" x="35.5" y="120.935"/><use xlink:href="#a" x="39.735" y="120.935"/><use xlink:href="#a" x="43.969" y="120.935"/></g><use xlink:href="#d" x="97.543" y="155.464" style="fill:#000;fill-opacity:1"/><use xlink:href="#l" x="101.777" y="155.464" style="fill:#000;fill-opacity:1"/><g style="fill:#000;fill-opacity:1"><use xlink:href="#a" x="104.13" y="155.464"/><use xlink:href="#a" x="108.365" y="155.464"/><use xlink:href="#a" x="112.599" y="155.464"/></g><g style="fill:#000;fill-opacity:1"><use xlink:href="#c" x="93.309" y="197.984"/><use xlink:href="#a" x="97.544" y="197.984"/></g><use xlink:href="#l" x="101.777" y="197.984" style="fill:#000;fill-opacity:1"/><g style="fill:#000;fill-opacity:1"><use xlink:href="#a" x="104.13" y="197.984"/><use xlink:href="#a" x="108.365" y="197.984"/><use xlink:href="#a" x="112.599" y="197.984"/></g></svg>