<svg xmlns="http://www.w3.org/2000/svg" xmlns:xlink="http://www.w3.org/1999/xlink" width="99.508" height="48.123" viewBox="0 0 74.631 36.092" version="1.2"><defs><clipPath id="a"><path d="M0 0h40v35.637H0Zm0 0"/></clipPath><clipPath id="c"><path d="M35 0h39.445v35.637H35Zm0 0"/></clipPath><symbol overflow="visible" id="b"><path style="stroke:none" d="M8.25 0v-.469h-.969L4.72-6.703c-.11-.25-.219-.25-.39-.25-.282 0-.329.078-.391.25l-2.47 6c-.062.156-.093.234-.843.234H.406V0l1.172-.031c.39 0 .938 0 1.313.031v-.469S2-.469 2-.594l.047-.125.5-1.203h2.672l.593 1.453H4.86V0c.391-.031 1.329-.031 1.766-.031.39 0 1.266 0 1.625.031ZM5.016-2.39H2.734l1.141-2.766Zm0 0"/></symbol></defs><g clip-path="url(#a)"><path style="fill:none;stroke-width:.3985;stroke-linecap:butt;stroke-linejoin:miter;stroke:#000;stroke-opacity:1;stroke-miterlimit:10" d="M21.635 0-6.47 16.226a32.455 32.455 0 0 1 0-32.453Zm0 0" transform="matrix(1 0 0 -1 11.841 17.062)"/></g><use xlink:href="#b" x="7.513" y="20.539" style="fill:#000;fill-opacity:1"/><g clip-path="url(#c)"><path style="fill:none;stroke-width:.3985;stroke-linecap:butt;stroke-linejoin:miter;stroke:#000;stroke-opacity:1;stroke-miterlimit:10" d="M61.256 10.82H28.803A32.464 32.464 0 0 1 45.03-17.29Zm0 0" transform="matrix(1 0 0 -1 11.841 17.062)"/></g><use xlink:href="#b" x="50.032" y="20.539" style="fill:#000;fill-opacity:1"/></svg>