<svg xmlns="http://www.w3.org/2000/svg" width="116.26" height="59.931" viewBox="0 0 87.195 44.948" version="1.2"><defs><clipPath id="a"><path d="M0 9h86.793v35.922H0Zm0 0"/></clipPath><clipPath id="b"><path d="M0 4h69v40.922H0Zm0 0"/></clipPath></defs><path style="stroke:none;fill-rule:nonzero;fill:gray;fill-opacity:1" d="M29.09 15.164h14.172C43.262 7.336 36.918.992 29.09.992S14.918 7.336 14.918 15.164a14.18 14.18 0 0 0 4.148 10.024Zm0 0"/><g clip-path="url(#a)"><path style="fill:none;stroke-width:.3985;stroke-linecap:butt;stroke-linejoin:miter;stroke:#000;stroke-opacity:1;stroke-miterlimit:10" d="M56.692 0H0l-28.347-28.347" transform="matrix(1 0 0 -1 29.09 15.165)"/></g><g clip-path="url(#b)"><path style="fill:none;stroke-width:.79701;stroke-linecap:butt;stroke-linejoin:miter;stroke:red;stroke-opacity:1;stroke-miterlimit:10" d="M-20.043-20.046c11.07-11.07 29.016-11.07 40.086 0a28.35 28.35 0 0 1 8.293 19.25" transform="matrix(1 0 0 -1 29.09 15.165)"/></g><path style="fill:none;stroke-width:.79701;stroke-linecap:round;stroke-linejoin:round;stroke:red;stroke-opacity:1;stroke-miterlimit:10" d="M-2.55 3.112C-2.085 1.245-1.046.362.001 0c-1.047-.363-2.086-1.242-2.55-3.11" transform="matrix(0 -1 -1 0 57.436 15.563)"/></svg>