<svg xmlns="http://www.w3.org/2000/svg" xmlns:xlink="http://www.w3.org/1999/xlink" width="127.901" height="110.523" viewBox="0 0 95.926 82.892" version="1.2"><defs><clipPath id="e"><path d="M83 60h12.89v22H83Zm0 0"/></clipPath><clipPath id="f"><path d="M80 57h15.89v25.84H80Zm0 0"/></clipPath><clipPath id="g"><path d="M63 72h29v10.84H63Zm0 0"/></clipPath><clipPath id="h"><path d="M55 57h20v25.84H55Zm0 0"/></clipPath><clipPath id="i"><path d="M80 43h15.89v27H80Zm0 0"/></clipPath><clipPath id="k"><path d="M38 57h20v25.84H38Zm0 0"/></clipPath><clipPath id="l"><path d="M46 57h21v25.84H46Zm0 0"/></clipPath><clipPath id="o"><path d="M0 57h16v25.84H0Zm0 0"/></clipPath><clipPath id="p"><path d="M29 57h21v25.84H29Zm0 0"/></clipPath><symbol overflow="visible" id="a"><path style="stroke:none" d="M4.922 0v-.469h-1.39v-5.734c0-.234 0-.328-.266-.328-.11 0-.125 0-.22.078-.765.562-1.796.562-2 .562H.845v.47h.203c.156 0 .703-.016 1.297-.204v5.156H.954V0c.437-.031 1.5-.031 1.984-.031s1.546 0 1.984.031Zm0 0"/></symbol><symbol overflow="visible" id="b"><path style="stroke:none" d="M5.156-2.219h-.468c-.032.203-.125.844-.266.906-.11.063-.86.063-1.016.063H1.937c.47-.39 1-.813 1.438-1.14 1.14-.844 1.781-1.313 1.781-2.25 0-1.157-1.047-1.891-2.437-1.891-1.219 0-2.156.625-2.156 1.515 0 .594.484.735.718.735C1.61-4.281 2-4.5 2-5c0-.516-.422-.672-.563-.719.282-.234.672-.343 1.032-.343.844 0 1.312.671 1.312 1.421 0 .688-.375 1.375-1.078 2.079l-2 2.046c-.14.11-.14.141-.14.344V0h4.28Zm0 0"/></symbol><symbol overflow="visible" id="c"><path style="stroke:none" d="M4.188 3.656c.468-.281 1.062-.953.609-2.36.516.485 1.36.829 2.11.407.655-.39.827-1.36.124-2.578-.593-1.031-1.547-1.375-2.234-.984-.36.218-.453.625-.266.953.235.39.657.437.953.265.5-.296.329-.812.313-.859.422.156.703.5.86.781C7.077 0 6.546.328 6.265.5 6.156.563 5 1.219 4.437.344 4.22 0 4.204-.031 4.173-.046c-.063-.095-.156-.063-.219-.032-.14.094-.094.187 0 .328l.219.375c.547.953-.313 1.438-.75 1.703-.406.235-1.297.735-1.813-.156A2.512 2.512 0 0 1 1.266.906c.265.235.593.328.953.125.39-.218.5-.64.281-1.031-.219-.36-.625-.516-1.063-.266-.78.454-.812 1.579-.171 2.688.89 1.531 2.125 1.687 2.921 1.234Zm0 0"/></symbol><symbol overflow="visible" id="d"><path style="stroke:none" d="m-2.703 4.688.406.234.485-.844.953.547-.485.844.407.234.484-.844 3.625 2.094c.219.125.297.14.437-.11.11-.187.094-.187.016-.374L1.609 1.28l-.406-.234-1.437 2.5L-1.188 3l.563-.969-.406-.234c-.157.344-.61 1.125-.828 1.5-.204.344-.625 1.094-.844 1.39Zm2.828-.813L1.344 1.75 2.78 5.406Zm0 0"/></symbol><symbol overflow="visible" id="j"><path style="stroke:none" d="M-5.156 2c0 1.156.797 2.078 2.265 2.078.282 0 .813-.031 1.282-.344v1.313C-1.891 5-2 4.969-2.33 4.969c-1.452 0-2.374 1.125-2.374 1.375 0 .078.016.187.14.187.032 0 .032 0 .141-.047a4.32 4.32 0 0 1 1.531-.28c.75 0 1.282.202 1.547.28.094.032.094.047.125.047.14 0 .14-.11.14-.265V3.344c0-.172 0-.297-.218-.297-.125 0-.156.031-.219.11-.39.468-.921.562-1.328.562-.89 0-.89-.875-.89-1.672 0-.735 0-1.735 1.187-1.735.25 0 .875.063 1.297.625-.36.016-.656.266-.656.672 0 .532.437.672.672.672.14 0 .671-.094.671-.703 0-.844-.78-1.687-2.015-1.687C-4.172-.11-5.156.78-5.156 2Zm0 0"/></symbol><symbol overflow="visible" id="m"><path style="stroke:none" d="M-4.39-3.531c-1.22.703-1.329 1.937-.735 2.984.11.188.39.672 1.266.672l-.157.094C-5 .78-5.484.813-5.64.829A1.624 1.624 0 0 1-7.062.03c-.079-.156-.235-.469-.157-.781.235.281.563.328.813.172a.612.612 0 0 0 .234-.86c-.203-.343-.547-.406-.875-.218-.531.312-.875 1-.344 1.906.672 1.172 2.25 2.156 4.422.906.672-.39 1.328-.86 1.719-1.578.422-.781.25-1.531-.11-2.14-.687-1.188-1.874-1.641-3.03-.97Zm.671 1.187c.86-.5 1.516-.875 2.016.016.266.437.047.86-.047 1.015-.203.297-.828.657-.984.75-1.079.625-1.75.407-2.032-.078-.468-.828.172-1.203 1.047-1.703Zm0 0"/></symbol><symbol overflow="visible" id="n"><path style="stroke:none" d="M-8.344-1.61-7.328.14c.125.204.812 1.516.844 1.641.078.203 0 .266-.063.313l.234.406 2.36-.969-.235-.39c-.703.296-.875.25-.921.218-.11-.062-.516-.765-.61-.921L-6.547-1c.266.031.547.094.828.156 1.453.266 2.985.203 4.25-.531.61-.344.328-.828.297-.875-.078-.14-.36-.531-.922-.203l-.406.234c-.406.235-.844.438-1.281.625-.625.266-1.235.375-1.75.266l-2.344-.438c-.14-.03-.172-.015-.469.157Zm0 0"/></symbol><symbol overflow="visible" id="q"><path style="stroke:none" d="M1.016-5.469c-.938-.547-1.766-.047-2.25.235.03-.766-.204-1.266-.704-1.563-.875-.5-1.718.047-2.28 1.047-.688 1.188-.36 2.203.468 2.672.375.219 1.016.36 1.781-.078-.093.906.172 1.562.813 1.937 1.031.594 2.031-.093 2.672-1.203.796-1.375.453-2.5-.5-3.047Zm-3.313-.656c.422.234.578.625.625 1.14l-1.484.876c-.14.109-.438.25-.735.078-.609-.344-.203-1.14 0-1.5.407-.719 1-.938 1.594-.594Zm3.344 1.672c.719.422.406 1.312.125 1.812-.484.829-1.234 1.079-1.906.688-.672-.39-.782-1.063-.766-1.469l1.328-.797c.438-.265.797-.468 1.219-.234Zm0 0"/></symbol></defs><use xlink:href="#a" x="49.298" y="52.015" style="fill:#000;fill-opacity:1"/><use xlink:href="#b" x="49.298" y="22.557" style="fill:#000;fill-opacity:1"/><path style="fill:none;stroke-width:.19925;stroke-linecap:butt;stroke-linejoin:miter;stroke:gray;stroke-opacity:1;stroke-miterlimit:10" d="M.001 58.92H17.01" transform="matrix(1 0 0 -1 43.659 63.482)"/><path style="fill:none;stroke-width:.3985;stroke-linecap:butt;stroke-linejoin:miter;stroke:#000;stroke-opacity:1;stroke-miterlimit:10" d="m.001 58.92 8.504 3.398 8.504-3.398" transform="matrix(1 0 0 -1 43.659 63.482)"/><path style="fill:none;stroke-width:.19925;stroke-linecap:butt;stroke-linejoin:miter;stroke:gray;stroke-opacity:1;stroke-miterlimit:10" d="m17.009 58.92 8.504-14.731" transform="matrix(1 0 0 -1 43.659 63.482)"/><path style="fill:none;stroke-width:.3985;stroke-linecap:butt;stroke-linejoin:miter;stroke:#000;stroke-opacity:1;stroke-miterlimit:10" d="m17.009 58.92 7.195-5.665 1.309-9.066" transform="matrix(1 0 0 -1 43.659 63.482)"/><path style="fill:none;stroke-width:.19925;stroke-linecap:butt;stroke-linejoin:miter;stroke:gray;stroke-opacity:1;stroke-miterlimit:10" d="m25.513 44.189-8.504-14.73" transform="matrix(1 0 0 -1 43.659 63.482)"/><path style="fill:none;stroke-width:.3985;stroke-linecap:butt;stroke-linejoin:miter;stroke:#000;stroke-opacity:1;stroke-miterlimit:10" d="m25.513 44.189-1.309-9.066-7.195-5.664" transform="matrix(1 0 0 -1 43.659 63.482)"/><path style="fill:none;stroke-width:.19925;stroke-linecap:butt;stroke-linejoin:miter;stroke:gray;stroke-opacity:1;stroke-miterlimit:10" d="M17.009 29.459H.001M.001 29.459l-8.504 14.73" transform="matrix(1 0 0 -1 43.659 63.482)"/><path style="fill:none;stroke-width:.3985;stroke-linecap:butt;stroke-linejoin:miter;stroke:#000;stroke-opacity:1;stroke-miterlimit:10" d="m.001 29.459-7.2 5.664-1.304 9.066M-8.503 44.189l8.504 14.73" transform="matrix(1 0 0 -1 43.659 63.482)"/><use xlink:href="#c" x="64.96" y="38.056" style="fill:#000;fill-opacity:1"/><path style="fill:none;stroke-width:.3985;stroke-linecap:butt;stroke-linejoin:miter;stroke:#000;stroke-opacity:1;stroke-miterlimit:10" d="m34.017 29.459-8.504-14.73" transform="matrix(1 0 0 -1 43.659 63.482)"/><path style="fill:none;stroke-width:.19925;stroke-linecap:butt;stroke-linejoin:miter;stroke:gray;stroke-opacity:1;stroke-miterlimit:10" d="m25.513 14.728-8.504 14.73" transform="matrix(1 0 0 -1 43.659 63.482)"/><path style="fill:none;stroke-width:.3985;stroke-linecap:butt;stroke-linejoin:miter;stroke:#000;stroke-opacity:1;stroke-miterlimit:10" d="M17.009 29.459h17.008" transform="matrix(1 0 0 -1 43.659 63.482)"/><use xlink:href="#d" x="76.277" y="59.367" style="fill:#000;fill-opacity:1"/><g clip-path="url(#e)"><path style="fill:none;stroke-width:.19925;stroke-linecap:butt;stroke-linejoin:miter;stroke:gray;stroke-opacity:1;stroke-miterlimit:10" d="m51.025.002-8.504-14.73" transform="matrix(1 0 0 -1 43.659 63.482)"/></g><g clip-path="url(#f)"><path style="fill:none;stroke-width:.3985;stroke-linecap:butt;stroke-linejoin:miter;stroke:#000;stroke-opacity:1;stroke-miterlimit:10" d="M51.025.002 49.72-9.065l-7.2-5.664" transform="matrix(1 0 0 -1 43.659 63.482)"/></g><path style="fill:none;stroke-width:.19925;stroke-linecap:butt;stroke-linejoin:miter;stroke:gray;stroke-opacity:1;stroke-miterlimit:10" d="M42.52-14.729H25.514" transform="matrix(1 0 0 -1 43.659 63.482)"/><g clip-path="url(#g)"><path style="fill:none;stroke-width:.3985;stroke-linecap:butt;stroke-linejoin:miter;stroke:#000;stroke-opacity:1;stroke-miterlimit:10" d="m42.52-14.729-8.503-3.402-8.504 3.402" transform="matrix(1 0 0 -1 43.659 63.482)"/></g><path style="fill:none;stroke-width:.19925;stroke-linecap:butt;stroke-linejoin:miter;stroke:gray;stroke-opacity:1;stroke-miterlimit:10" d="M25.513-14.729 17.009.001" transform="matrix(1 0 0 -1 43.659 63.482)"/><g clip-path="url(#h)"><path style="fill:none;stroke-width:.3985;stroke-linecap:butt;stroke-linejoin:miter;stroke:#000;stroke-opacity:1;stroke-miterlimit:10" d="m25.513-14.729-7.2 5.664L17.01.002" transform="matrix(1 0 0 -1 43.659 63.482)"/></g><path style="fill:none;stroke-width:.19925;stroke-linecap:butt;stroke-linejoin:miter;stroke:gray;stroke-opacity:1;stroke-miterlimit:10" d="m17.009.002 8.504 14.726M25.513 14.728H42.52" transform="matrix(1 0 0 -1 43.659 63.482)"/><path style="fill:none;stroke-width:.3985;stroke-linecap:butt;stroke-linejoin:miter;stroke:#000;stroke-opacity:1;stroke-miterlimit:10" d="m25.513 14.728 8.504 3.402 8.504-3.402" transform="matrix(1 0 0 -1 43.659 63.482)"/><g clip-path="url(#i)"><path style="fill:none;stroke-width:.3985;stroke-linecap:butt;stroke-linejoin:miter;stroke:#000;stroke-opacity:1;stroke-miterlimit:10" d="M42.52 14.728 51.026.002" transform="matrix(1 0 0 -1 43.659 63.482)"/></g><use xlink:href="#j" x="55.027" y="65.184" style="fill:#000;fill-opacity:1"/><g clip-path="url(#k)"><path style="fill:none;stroke-width:.3985;stroke-linecap:butt;stroke-linejoin:miter;stroke:#000;stroke-opacity:1;stroke-miterlimit:10" d="M8.505-14.729.001.001" transform="matrix(1 0 0 -1 43.659 63.482)"/></g><path style="fill:none;stroke-width:.19925;stroke-linecap:butt;stroke-linejoin:miter;stroke:gray;stroke-opacity:1;stroke-miterlimit:10" d="M.001.002H17.01" transform="matrix(1 0 0 -1 43.659 63.482)"/><g clip-path="url(#l)"><path style="fill:none;stroke-width:.3985;stroke-linecap:butt;stroke-linejoin:miter;stroke:#000;stroke-opacity:1;stroke-miterlimit:10" d="m17.009.002-8.504-14.73" transform="matrix(1 0 0 -1 43.659 63.482)"/></g><use xlink:href="#m" x="30.861" y="64.358" style="fill:#000;fill-opacity:1"/><use xlink:href="#n" x="13.944" y="74.126" style="fill:#000;fill-opacity:1"/><g clip-path="url(#o)"><path style="fill:none;stroke-width:.3985;stroke-linecap:butt;stroke-linejoin:miter;stroke:#000;stroke-opacity:1;stroke-miterlimit:10" d="m-42.522-14.729 8.508 14.73" transform="matrix(1 0 0 -1 43.659 63.482)"/></g><path style="fill:none;stroke-width:.19925;stroke-linecap:butt;stroke-linejoin:miter;stroke:gray;stroke-opacity:1;stroke-miterlimit:10" d="m-34.014.002 8.503-14.73" transform="matrix(1 0 0 -1 43.659 63.482)"/><path style="fill:none;stroke-width:.3985;stroke-linecap:butt;stroke-linejoin:miter;stroke:#000;stroke-opacity:1;stroke-miterlimit:10" d="M-25.51-14.729h-17.008" transform="matrix(1 0 0 -1 43.659 63.482)"/><path style="fill:none;stroke-width:.19925;stroke-linecap:butt;stroke-linejoin:miter;stroke:gray;stroke-opacity:1;stroke-miterlimit:10" d="m-34.014.002 8.503 14.726" transform="matrix(1 0 0 -1 43.659 63.482)"/><path style="fill:none;stroke-width:.3985;stroke-linecap:butt;stroke-linejoin:miter;stroke:#000;stroke-opacity:1;stroke-miterlimit:10" d="m-34.014.002 1.304 9.062 7.2 5.664" transform="matrix(1 0 0 -1 43.659 63.482)"/><path style="fill:none;stroke-width:.19925;stroke-linecap:butt;stroke-linejoin:miter;stroke:gray;stroke-opacity:1;stroke-miterlimit:10" d="M-25.51 14.728h17.007" transform="matrix(1 0 0 -1 43.659 63.482)"/><path style="fill:none;stroke-width:.3985;stroke-linecap:butt;stroke-linejoin:miter;stroke:#000;stroke-opacity:1;stroke-miterlimit:10" d="m-25.51 14.728 8.503 3.402 8.504-3.402" transform="matrix(1 0 0 -1 43.659 63.482)"/><path style="fill:none;stroke-width:.19925;stroke-linecap:butt;stroke-linejoin:miter;stroke:gray;stroke-opacity:1;stroke-miterlimit:10" d="M-8.503 14.728.001.002M.001.002l-8.504-14.73" transform="matrix(1 0 0 -1 43.659 63.482)"/><g clip-path="url(#p)"><path style="fill:none;stroke-width:.3985;stroke-linecap:butt;stroke-linejoin:miter;stroke:#000;stroke-opacity:1;stroke-miterlimit:10" d="m.001.002-1.308-9.067-7.196-5.664" transform="matrix(1 0 0 -1 43.659 63.482)"/></g><path style="fill:none;stroke-width:.3985;stroke-linecap:butt;stroke-linejoin:miter;stroke:#000;stroke-opacity:1;stroke-miterlimit:10" d="M-8.503-14.729H-25.51" transform="matrix(1 0 0 -1 43.659 63.482)"/><use xlink:href="#q" x="36.501" y="43.018" style="fill:#000;fill-opacity:1"/><path style="fill:none;stroke-width:.3985;stroke-linecap:butt;stroke-linejoin:miter;stroke:#000;stroke-opacity:1;stroke-miterlimit:10" d="M-17.007 29.459H.001" transform="matrix(1 0 0 -1 43.659 63.482)"/><path style="fill:none;stroke-width:.19925;stroke-linecap:butt;stroke-linejoin:miter;stroke:gray;stroke-opacity:1;stroke-miterlimit:10" d="m.001 29.459-8.504-14.73" transform="matrix(1 0 0 -1 43.659 63.482)"/><path style="fill:none;stroke-width:.3985;stroke-linecap:butt;stroke-linejoin:miter;stroke:#000;stroke-opacity:1;stroke-miterlimit:10" d="m-8.503 14.728-8.504 14.73" transform="matrix(1 0 0 -1 43.659 63.482)"/></svg>