<svg xmlns="http://www.w3.org/2000/svg" width="119.819" height="84.579" viewBox="0 0 89.864 63.434" version="1.2"><defs><clipPath id="a"><path d="M0 0h89.797v63.152H0Zm0 0"/></clipPath><clipPath id="b"><path d="M0 51h11v12.152H0Zm0 0"/></clipPath><clipPath id="c"><path d="M0 52h12v11.152H0Zm0 0"/></clipPath><clipPath id="d"><path d="M77 14h12.797v13H77Zm0 0"/></clipPath><clipPath id="e"><path d="M79 11h10.797v18H79Zm0 0"/></clipPath></defs><path style="fill:none;stroke-width:.19925;stroke-linecap:butt;stroke-linejoin:miter;stroke:gray;stroke-opacity:1;stroke-miterlimit:10" d="M-.001-.001h85.043M-.001 28.346h85.043M-.001 56.682h85.043M-.001 0v56.695M28.347 0v56.695M56.694 0v56.695M85.03 0v56.695" transform="matrix(1 0 0 -1 3.548 59.53)"/><g clip-path="url(#a)"><path style="fill:none;stroke-width:.3985;stroke-linecap:butt;stroke-linejoin:miter;stroke:#000;stroke-opacity:1;stroke-miterlimit:10" d="m-.001-.001 85.043 28.347c0 15.657-19.04 28.348-42.524 28.348-23.48 0-42.52-12.691-42.52-28.348" transform="matrix(1 0 0 -1 3.548 59.53)"/></g><g clip-path="url(#b)"><path style="fill:none;stroke-width:.3985;stroke-linecap:butt;stroke-linejoin:miter;stroke:#000;stroke-opacity:1;stroke-miterlimit:10" d="m-1.259-2.52 2.52 5.042" transform="matrix(1 0 0 -1 3.548 59.53)"/></g><g clip-path="url(#c)"><path style="fill:none;stroke-width:.3985;stroke-linecap:butt;stroke-linejoin:miter;stroke:#000;stroke-opacity:1;stroke-miterlimit:10" d="M2.518-1.26-2.52 1.26" transform="matrix(1 0 0 -1 3.548 59.53)"/></g><path style="fill:none;stroke-width:.3985;stroke-linecap:butt;stroke-linejoin:miter;stroke:#000;stroke-opacity:1;stroke-miterlimit:10" d="m17.909 3.87 2.52 5.039M21.69 5.128 16.651 7.65M37.08 10.26l2.52 5.04M40.858 11.518l-5.039 2.52M56.249 16.647l2.52 5.043M60.03 17.909l-5.043 2.52M75.417 23.038l2.523 5.043M79.198 24.3l-5.039 2.52" transform="matrix(1 0 0 -1 3.548 59.53)"/><g clip-path="url(#d)"><path style="fill:none;stroke-width:.3985;stroke-linecap:butt;stroke-linejoin:miter;stroke:#000;stroke-opacity:1;stroke-miterlimit:10" d="m84.58 38.51-5.483 1.29" transform="matrix(1 0 0 -1 3.548 59.53)"/></g><g clip-path="url(#e)"><path style="fill:none;stroke-width:.3985;stroke-linecap:butt;stroke-linejoin:miter;stroke:#000;stroke-opacity:1;stroke-miterlimit:10" d="m82.483 41.897-1.289-5.484" transform="matrix(1 0 0 -1 3.548 59.53)"/></g><path style="fill:none;stroke-width:.3985;stroke-linecap:butt;stroke-linejoin:miter;stroke:#000;stroke-opacity:1;stroke-miterlimit:10" d="m69.073 52.78-5.277-1.98M65.444 54.428l1.98-5.277M49.026 58.397l-4.25-3.703M45.05 58.667l3.703-4.246M28.284 57.147l-2.836-4.87M24.432 56.128l4.872-2.836M9.159 48.55l-.434-5.618M6.136 45.96l5.617-.434" transform="matrix(1 0 0 -1 3.548 59.53)"/></svg>