<svg xmlns="http://www.w3.org/2000/svg" xmlns:xlink="http://www.w3.org/1999/xlink" width="110.388" height="141.34" viewBox="0 0 82.791 106.005" version="1.2"><defs><symbol overflow="visible" id="a"><path style="stroke:none" d="M8.578 0v-.469H7.5v-5.906h1.078v-.469c-.39.032-1.36.032-1.797.032-.422 0-1.39 0-1.781-.032v.469h1.078v2.594H2.875v-2.594h1.078v-.469c-.375.032-1.344.032-1.781.032-.422 0-1.406 0-1.781-.032v.469h1.078v5.906H.39V0C.766-.031 1.75-.031 2.17-.031c.438 0 1.407 0 1.782.031v-.469H2.875v-2.844h3.203v2.844H5V0c.39-.031 1.36-.031 1.781-.031.438 0 1.407 0 1.797.031Zm0 0"/></symbol><symbol overflow="visible" id="b"><path style="stroke:none" d="M4.922-1.172c0-.172-.188-.172-.234-.172-.172 0-.188.047-.25.203-.204.485-.782.797-1.422.797-1.407 0-1.422-1.328-1.422-1.828h3.015c.22 0 .313 0 .313-.265 0-.313-.063-1.047-.563-1.547-.359-.36-.89-.532-1.578-.532C1.187-4.516.312-3.484.312-2.25c0 1.344 1 2.313 2.61 2.313 1.578 0 2-1.063 2-1.235ZM3.984-2.5h-2.39c.015-.39.031-.813.234-1.14.266-.391.672-.516.953-.516 1.172 0 1.188 1.312 1.203 1.656Zm0 0"/></symbol><symbol overflow="visible" id="c"><path style="stroke:none" d="M2.922 0v-.469h-.688v-6.453L.47-6.844v.469c.625 0 .687 0 .687.39v5.516H.47V0l1.219-.031Zm0 0"/></symbol><symbol overflow="visible" id="d"><path style="stroke:none" d="M5.406-2.172c0-1.344-.922-2.344-2.547-2.344C1.22-4.516.313-3.5.313-2.172c0 1.235.89 2.235 2.546 2.235 1.672 0 2.547-1.016 2.547-2.235Zm-1.281-.11c0 .86 0 1.938-1.266 1.938-1.265 0-1.265-1.078-1.265-1.937 0-.453 0-.953.172-1.297.187-.375.609-.578 1.093-.578.422 0 .844.156 1.063.5.203.344.203.89.203 1.375Zm0 0"/></symbol><symbol overflow="visible" id="e"><path style="stroke:none" d="M11.61-6.375v-.469c-.282.016-.626.032-1.079.032-.375 0-.984 0-1.344-.032v.469c.25 0 .72 0 1.016.11L8.484-1.798 6.72-6.375h.953v-.469c-.375.032-1.313.032-1.734.032-.391 0-1.188 0-1.532-.032v.469h.86l.406 1.063-1.36 3.515-1.765-4.578h.969v-.469c-.391.032-1.329.032-1.75.032-.391 0-1.172 0-1.532-.032v.469h.86l2.39 6.203c.063.156.11.25.36.25s.281-.094.344-.25l1.734-4.5 1.734 4.5c.063.156.094.25.344.25.25 0 .297-.094.36-.25l2.296-5.953c.063-.172.063-.188.375-.219.203-.031.406-.031.578-.031Zm0 0"/></symbol><symbol overflow="visible" id="f"><path style="stroke:none" d="M4.406-3.672c0-.531-.531-.812-1.062-.812-.688 0-1.094.5-1.313 1.125v-1.125l-1.656.078v.468c.61 0 .688 0 .688.391v3.078H.375V0l1.25-.031C2-.031 2.641-.031 3 0v-.469h-.86v-1.75c0-.687.235-1.906 1.235-1.906 0 0-.188.172-.188.453 0 .406.329.61.61.61.297 0 .61-.204.61-.61Zm0 0"/></symbol><symbol overflow="visible" id="g"><path style="stroke:none" d="M5.984 0v-.469c-.609 0-.687 0-.687-.39v-6.063l-1.766.078v.469c.625 0 .703 0 .703.39v1.954a2.178 2.178 0 0 0-1.359-.453c-1.453 0-2.5.875-2.5 2.28 0 1.313.922 2.267 2.39 2.267.61 0 1.094-.235 1.407-.485v.484ZM4.172-1.031c-.14.187-.547.734-1.297.734-1.219 0-1.219-1.203-1.219-1.906 0-.485 0-1.016.25-1.406.297-.422.766-.516 1.078-.516.563 0 .97.313 1.188.61Zm0 0"/></symbol><symbol overflow="visible" id="h"><path style="stroke:none" d="M2.531-6.313c0-.39-.36-.718-.781-.718-.438 0-.797.328-.797.718 0 .047 0 .079.031.172L1.5-2.516c.031.25.031.266.25.266.188 0 .219-.016.25-.219l.516-3.719ZM2.516-.78a.78.78 0 0 0-.766-.781.784.784 0 0 0-.781.78.774.774 0 1 0 1.547 0Zm0 0"/></symbol><clipPath id="i"><path d="M0 41h82.688v47H0Zm0 0"/></clipPath><clipPath id="j"><path d="M0 43h82.688v47H0Zm0 0"/></clipPath><clipPath id="k"><path d="M0 45h82.688v48H0Zm0 0"/></clipPath><clipPath id="l"><path d="M5.734 85.941h71.13v13.746H5.733Zm0 0"/></clipPath><clipPath id="n"><path d="M3.523 88.152h71.13v13.746H3.522Zm0 0"/></clipPath><clipPath id="p"><path d="M1.313 90.363H72.44v13.746H1.312Zm0 0"/></clipPath><linearGradient id="m" gradientUnits="userSpaceOnUse" x1="0" y1="25.003" x2="0" y2="74.997" gradientTransform="matrix(0 -.27492 -1.42278 0 112.439 106.56)"><stop offset="0" style="stop-color:#fff;stop-opacity:1"/><stop offset=".008" style="stop-color:#fefeff;stop-opacity:1"/><stop offset=".016" style="stop-color:#fdfdff;stop-opacity:1"/><stop offset=".023" style="stop-color:#fdfdff;stop-opacity:1"/><stop offset=".031" style="stop-color:#fcfcff;stop-opacity:1"/><stop offset=".039" style="stop-color:#fbfbff;stop-opacity:1"/><stop offset=".047" style="stop-color:#fafaff;stop-opacity:1"/><stop offset=".055" style="stop-color:#f9f9ff;stop-opacity:1"/><stop offset=".063" style="stop-color:#f8f8ff;stop-opacity:1"/><stop offset=".07" style="stop-color:#f7f7ff;stop-opacity:1"/><stop offset=".078" style="stop-color:#f6f6ff;stop-opacity:1"/><stop offset=".086" style="stop-color:#f5f5ff;stop-opacity:1"/><stop offset=".094" style="stop-color:#f4f4ff;stop-opacity:1"/><stop offset=".102" style="stop-color:#f3f3ff;stop-opacity:1"/><stop offset=".109" style="stop-color:#f2f2ff;stop-opacity:1"/><stop offset=".117" style="stop-color:#f1f1ff;stop-opacity:1"/><stop offset=".125" style="stop-color:#f0f0ff;stop-opacity:1"/><stop offset=".133" style="stop-color:#efefff;stop-opacity:1"/><stop offset=".141" style="stop-color:#eef;stop-opacity:1"/><stop offset=".148" style="stop-color:#ededff;stop-opacity:1"/><stop offset=".156" style="stop-color:#ececff;stop-opacity:1"/><stop offset=".164" style="stop-color:#ebebff;stop-opacity:1"/><stop offset=".172" style="stop-color:#eaeaff;stop-opacity:1"/><stop offset=".18" style="stop-color:#e9e9ff;stop-opacity:1"/><stop offset=".188" style="stop-color:#e8e8ff;stop-opacity:1"/><stop offset=".195" style="stop-color:#e7e7ff;stop-opacity:1"/><stop offset=".203" style="stop-color:#e6e6ff;stop-opacity:1"/><stop offset=".211" style="stop-color:#e5e5ff;stop-opacity:1"/><stop offset=".219" style="stop-color:#e4e4ff;stop-opacity:1"/><stop offset=".227" style="stop-color:#e3e3ff;stop-opacity:1"/><stop offset=".234" style="stop-color:#e2e2ff;stop-opacity:1"/><stop offset=".242" style="stop-color:#e1e1ff;stop-opacity:1"/><stop offset=".25" style="stop-color:#e0e0ff;stop-opacity:1"/><stop offset=".258" style="stop-color:#dfdfff;stop-opacity:1"/><stop offset=".266" style="stop-color:#dedeff;stop-opacity:1"/><stop offset=".273" style="stop-color:#ddf;stop-opacity:1"/><stop offset=".281" style="stop-color:#dcdcff;stop-opacity:1"/><stop offset=".289" style="stop-color:#dbdbff;stop-opacity:1"/><stop offset=".297" style="stop-color:#dadaff;stop-opacity:1"/><stop offset=".305" style="stop-color:#d9d9ff;stop-opacity:1"/><stop offset=".313" style="stop-color:#d8d8ff;stop-opacity:1"/><stop offset=".32" style="stop-color:#d7d7ff;stop-opacity:1"/><stop offset=".328" style="stop-color:#d6d6ff;stop-opacity:1"/><stop offset=".336" style="stop-color:#d5d5ff;stop-opacity:1"/><stop offset=".344" style="stop-color:#d4d4ff;stop-opacity:1"/><stop offset=".352" style="stop-color:#d3d3ff;stop-opacity:1"/><stop offset=".359" style="stop-color:#d2d2ff;stop-opacity:1"/><stop offset=".367" style="stop-color:#d1d1ff;stop-opacity:1"/><stop offset=".375" style="stop-color:#d0d0ff;stop-opacity:1"/><stop offset=".383" style="stop-color:#cfcfff;stop-opacity:1"/><stop offset=".391" style="stop-color:#ceceff;stop-opacity:1"/><stop offset=".398" style="stop-color:#cdcdff;stop-opacity:1"/><stop offset=".406" style="stop-color:#ccf;stop-opacity:1"/><stop offset=".414" style="stop-color:#cbcbff;stop-opacity:1"/><stop offset=".422" style="stop-color:#cacaff;stop-opacity:1"/><stop offset=".43" style="stop-color:#c9c9ff;stop-opacity:1"/><stop offset=".438" style="stop-color:#c8c8ff;stop-opacity:1"/><stop offset=".445" style="stop-color:#c7c7ff;stop-opacity:1"/><stop offset=".453" style="stop-color:#c6c6ff;stop-opacity:1"/><stop offset=".461" style="stop-color:#c5c5ff;stop-opacity:1"/><stop offset=".469" style="stop-color:#c4c4ff;stop-opacity:1"/><stop offset=".477" style="stop-color:#c3c3ff;stop-opacity:1"/><stop offset=".484" style="stop-color:#c2c2ff;stop-opacity:1"/><stop offset=".492" style="stop-color:#c1c1ff;stop-opacity:1"/><stop offset=".5" style="stop-color:#c0c0ff;stop-opacity:1"/><stop offset=".508" style="stop-color:#bfbfff;stop-opacity:1"/><stop offset=".516" style="stop-color:#bebeff;stop-opacity:1"/><stop offset=".523" style="stop-color:#bdbdff;stop-opacity:1"/><stop offset=".531" style="stop-color:#bcbcff;stop-opacity:1"/><stop offset=".539" style="stop-color:#bbf;stop-opacity:1"/><stop offset=".547" style="stop-color:#babaff;stop-opacity:1"/><stop offset=".555" style="stop-color:#b9b9ff;stop-opacity:1"/><stop offset=".563" style="stop-color:#b8b8ff;stop-opacity:1"/><stop offset=".57" style="stop-color:#b7b7ff;stop-opacity:1"/><stop offset=".578" style="stop-color:#b6b6ff;stop-opacity:1"/><stop offset=".586" style="stop-color:#b5b5ff;stop-opacity:1"/><stop offset=".594" style="stop-color:#b4b4ff;stop-opacity:1"/><stop offset=".602" style="stop-color:#b3b3ff;stop-opacity:1"/><stop offset=".609" style="stop-color:#b2b2ff;stop-opacity:1"/><stop offset=".617" style="stop-color:#b1b1ff;stop-opacity:1"/><stop offset=".625" style="stop-color:#b0b0ff;stop-opacity:1"/><stop offset=".633" style="stop-color:#afafff;stop-opacity:1"/><stop offset=".641" style="stop-color:#aeaeff;stop-opacity:1"/><stop offset=".648" style="stop-color:#adadff;stop-opacity:1"/><stop offset=".656" style="stop-color:#acacff;stop-opacity:1"/><stop offset=".664" style="stop-color:#ababff;stop-opacity:1"/><stop offset=".672" style="stop-color:#aaf;stop-opacity:1"/><stop offset=".68" style="stop-color:#a9a9ff;stop-opacity:1"/><stop offset=".688" style="stop-color:#a8a8ff;stop-opacity:1"/><stop offset=".695" style="stop-color:#a7a7ff;stop-opacity:1"/><stop offset=".703" style="stop-color:#a6a6ff;stop-opacity:1"/><stop offset=".711" style="stop-color:#a5a5ff;stop-opacity:1"/><stop offset=".719" style="stop-color:#a4a4ff;stop-opacity:1"/><stop offset=".727" style="stop-color:#a3a3ff;stop-opacity:1"/><stop offset=".734" style="stop-color:#a2a2ff;stop-opacity:1"/><stop offset=".742" style="stop-color:#a1a1ff;stop-opacity:1"/><stop offset=".75" style="stop-color:#a0a0ff;stop-opacity:1"/><stop offset=".758" style="stop-color:#9f9fff;stop-opacity:1"/><stop offset=".766" style="stop-color:#9e9eff;stop-opacity:1"/><stop offset=".773" style="stop-color:#9d9dff;stop-opacity:1"/><stop offset=".781" style="stop-color:#9c9cff;stop-opacity:1"/><stop offset=".789" style="stop-color:#9b9bff;stop-opacity:1"/><stop offset=".797" style="stop-color:#9a9aff;stop-opacity:1"/><stop offset=".805" style="stop-color:#99f;stop-opacity:1"/><stop offset=".813" style="stop-color:#9898ff;stop-opacity:1"/><stop offset=".82" style="stop-color:#9797ff;stop-opacity:1"/><stop offset=".828" style="stop-color:#9696ff;stop-opacity:1"/><stop offset=".836" style="stop-color:#9595ff;stop-opacity:1"/><stop offset=".844" style="stop-color:#9494ff;stop-opacity:1"/><stop offset=".852" style="stop-color:#9393ff;stop-opacity:1"/><stop offset=".859" style="stop-color:#9292ff;stop-opacity:1"/><stop offset=".867" style="stop-color:#9191ff;stop-opacity:1"/><stop offset=".875" style="stop-color:#9090ff;stop-opacity:1"/><stop offset=".883" style="stop-color:#8f8fff;stop-opacity:1"/><stop offset=".891" style="stop-color:#8e8eff;stop-opacity:1"/><stop offset=".898" style="stop-color:#8d8dff;stop-opacity:1"/><stop offset=".906" style="stop-color:#8c8cff;stop-opacity:1"/><stop offset=".914" style="stop-color:#8b8bff;stop-opacity:1"/><stop offset=".922" style="stop-color:#8a8aff;stop-opacity:1"/><stop offset=".93" style="stop-color:#8989ff;stop-opacity:1"/><stop offset=".938" style="stop-color:#88f;stop-opacity:1"/><stop offset=".945" style="stop-color:#8787ff;stop-opacity:1"/><stop offset=".953" style="stop-color:#8686ff;stop-opacity:1"/><stop offset=".961" style="stop-color:#8585ff;stop-opacity:1"/><stop offset=".969" style="stop-color:#8484ff;stop-opacity:1"/><stop offset=".977" style="stop-color:#8383ff;stop-opacity:1"/><stop offset=".984" style="stop-color:#8282ff;stop-opacity:1"/><stop offset=".992" style="stop-color:#8181ff;stop-opacity:1"/><stop offset="1" style="stop-color:#8080ff;stop-opacity:1"/></linearGradient><linearGradient id="o" gradientUnits="userSpaceOnUse" x1="0" y1="25.003" x2="0" y2="74.997" gradientTransform="matrix(0 -.27492 -1.42278 0 110.227 108.771)"><stop offset="0" style="stop-color:#fff;stop-opacity:1"/><stop offset=".008" style="stop-color:#fefeff;stop-opacity:1"/><stop offset=".016" style="stop-color:#fdfdff;stop-opacity:1"/><stop offset=".023" style="stop-color:#fdfdff;stop-opacity:1"/><stop offset=".031" style="stop-color:#fcfcff;stop-opacity:1"/><stop offset=".039" style="stop-color:#fbfbff;stop-opacity:1"/><stop offset=".047" style="stop-color:#fafaff;stop-opacity:1"/><stop offset=".055" style="stop-color:#f9f9ff;stop-opacity:1"/><stop offset=".063" style="stop-color:#f8f8ff;stop-opacity:1"/><stop offset=".07" style="stop-color:#f7f7ff;stop-opacity:1"/><stop offset=".078" style="stop-color:#f6f6ff;stop-opacity:1"/><stop offset=".086" style="stop-color:#f5f5ff;stop-opacity:1"/><stop offset=".094" style="stop-color:#f4f4ff;stop-opacity:1"/><stop offset=".102" style="stop-color:#f3f3ff;stop-opacity:1"/><stop offset=".109" style="stop-color:#f2f2ff;stop-opacity:1"/><stop offset=".117" style="stop-color:#f1f1ff;stop-opacity:1"/><stop offset=".125" style="stop-color:#f0f0ff;stop-opacity:1"/><stop offset=".133" style="stop-color:#efefff;stop-opacity:1"/><stop offset=".141" style="stop-color:#eef;stop-opacity:1"/><stop offset=".148" style="stop-color:#ededff;stop-opacity:1"/><stop offset=".156" style="stop-color:#ececff;stop-opacity:1"/><stop offset=".164" style="stop-color:#ebebff;stop-opacity:1"/><stop offset=".172" style="stop-color:#eaeaff;stop-opacity:1"/><stop offset=".18" style="stop-color:#e9e9ff;stop-opacity:1"/><stop offset=".188" style="stop-color:#e8e8ff;stop-opacity:1"/><stop offset=".195" style="stop-color:#e7e7ff;stop-opacity:1"/><stop offset=".203" style="stop-color:#e6e6ff;stop-opacity:1"/><stop offset=".211" style="stop-color:#e5e5ff;stop-opacity:1"/><stop offset=".219" style="stop-color:#e4e4ff;stop-opacity:1"/><stop offset=".227" style="stop-color:#e3e3ff;stop-opacity:1"/><stop offset=".234" style="stop-color:#e2e2ff;stop-opacity:1"/><stop offset=".242" style="stop-color:#e1e1ff;stop-opacity:1"/><stop offset=".25" style="stop-color:#e0e0ff;stop-opacity:1"/><stop offset=".258" style="stop-color:#dfdfff;stop-opacity:1"/><stop offset=".266" style="stop-color:#dedeff;stop-opacity:1"/><stop offset=".273" style="stop-color:#ddf;stop-opacity:1"/><stop offset=".281" style="stop-color:#dcdcff;stop-opacity:1"/><stop offset=".289" style="stop-color:#dbdbff;stop-opacity:1"/><stop offset=".297" style="stop-color:#dadaff;stop-opacity:1"/><stop offset=".305" style="stop-color:#d9d9ff;stop-opacity:1"/><stop offset=".313" style="stop-color:#d8d8ff;stop-opacity:1"/><stop offset=".32" style="stop-color:#d7d7ff;stop-opacity:1"/><stop offset=".328" style="stop-color:#d6d6ff;stop-opacity:1"/><stop offset=".336" style="stop-color:#d5d5ff;stop-opacity:1"/><stop offset=".344" style="stop-color:#d4d4ff;stop-opacity:1"/><stop offset=".352" style="stop-color:#d3d3ff;stop-opacity:1"/><stop offset=".359" style="stop-color:#d2d2ff;stop-opacity:1"/><stop offset=".367" style="stop-color:#d1d1ff;stop-opacity:1"/><stop offset=".375" style="stop-color:#d0d0ff;stop-opacity:1"/><stop offset=".383" style="stop-color:#cfcfff;stop-opacity:1"/><stop offset=".391" style="stop-color:#ceceff;stop-opacity:1"/><stop offset=".398" style="stop-color:#cdcdff;stop-opacity:1"/><stop offset=".406" style="stop-color:#ccf;stop-opacity:1"/><stop offset=".414" style="stop-color:#cbcbff;stop-opacity:1"/><stop offset=".422" style="stop-color:#cacaff;stop-opacity:1"/><stop offset=".43" style="stop-color:#c9c9ff;stop-opacity:1"/><stop offset=".438" style="stop-color:#c8c8ff;stop-opacity:1"/><stop offset=".445" style="stop-color:#c7c7ff;stop-opacity:1"/><stop offset=".453" style="stop-color:#c6c6ff;stop-opacity:1"/><stop offset=".461" style="stop-color:#c5c5ff;stop-opacity:1"/><stop offset=".469" style="stop-color:#c4c4ff;stop-opacity:1"/><stop offset=".477" style="stop-color:#c3c3ff;stop-opacity:1"/><stop offset=".484" style="stop-color:#c2c2ff;stop-opacity:1"/><stop offset=".492" style="stop-color:#c1c1ff;stop-opacity:1"/><stop offset=".5" style="stop-color:#c0c0ff;stop-opacity:1"/><stop offset=".508" style="stop-color:#bfbfff;stop-opacity:1"/><stop offset=".516" style="stop-color:#bebeff;stop-opacity:1"/><stop offset=".523" style="stop-color:#bdbdff;stop-opacity:1"/><stop offset=".531" style="stop-color:#bcbcff;stop-opacity:1"/><stop offset=".539" style="stop-color:#bbf;stop-opacity:1"/><stop offset=".547" style="stop-color:#babaff;stop-opacity:1"/><stop offset=".555" style="stop-color:#b9b9ff;stop-opacity:1"/><stop offset=".563" style="stop-color:#b8b8ff;stop-opacity:1"/><stop offset=".57" style="stop-color:#b7b7ff;stop-opacity:1"/><stop offset=".578" style="stop-color:#b6b6ff;stop-opacity:1"/><stop offset=".586" style="stop-color:#b5b5ff;stop-opacity:1"/><stop offset=".594" style="stop-color:#b4b4ff;stop-opacity:1"/><stop offset=".602" style="stop-color:#b3b3ff;stop-opacity:1"/><stop offset=".609" style="stop-color:#b2b2ff;stop-opacity:1"/><stop offset=".617" style="stop-color:#b1b1ff;stop-opacity:1"/><stop offset=".625" style="stop-color:#b0b0ff;stop-opacity:1"/><stop offset=".633" style="stop-color:#afafff;stop-opacity:1"/><stop offset=".641" style="stop-color:#aeaeff;stop-opacity:1"/><stop offset=".648" style="stop-color:#adadff;stop-opacity:1"/><stop offset=".656" style="stop-color:#acacff;stop-opacity:1"/><stop offset=".664" style="stop-color:#ababff;stop-opacity:1"/><stop offset=".672" style="stop-color:#aaf;stop-opacity:1"/><stop offset=".68" style="stop-color:#a9a9ff;stop-opacity:1"/><stop offset=".688" style="stop-color:#a8a8ff;stop-opacity:1"/><stop offset=".695" style="stop-color:#a7a7ff;stop-opacity:1"/><stop offset=".703" style="stop-color:#a6a6ff;stop-opacity:1"/><stop offset=".711" style="stop-color:#a5a5ff;stop-opacity:1"/><stop offset=".719" style="stop-color:#a4a4ff;stop-opacity:1"/><stop offset=".727" style="stop-color:#a3a3ff;stop-opacity:1"/><stop offset=".734" style="stop-color:#a2a2ff;stop-opacity:1"/><stop offset=".742" style="stop-color:#a1a1ff;stop-opacity:1"/><stop offset=".75" style="stop-color:#a0a0ff;stop-opacity:1"/><stop offset=".758" style="stop-color:#9f9fff;stop-opacity:1"/><stop offset=".766" style="stop-color:#9e9eff;stop-opacity:1"/><stop offset=".773" style="stop-color:#9d9dff;stop-opacity:1"/><stop offset=".781" style="stop-color:#9c9cff;stop-opacity:1"/><stop offset=".789" style="stop-color:#9b9bff;stop-opacity:1"/><stop offset=".797" style="stop-color:#9a9aff;stop-opacity:1"/><stop offset=".805" style="stop-color:#99f;stop-opacity:1"/><stop offset=".813" style="stop-color:#9898ff;stop-opacity:1"/><stop offset=".82" style="stop-color:#9797ff;stop-opacity:1"/><stop offset=".828" style="stop-color:#9696ff;stop-opacity:1"/><stop offset=".836" style="stop-color:#9595ff;stop-opacity:1"/><stop offset=".844" style="stop-color:#9494ff;stop-opacity:1"/><stop offset=".852" style="stop-color:#9393ff;stop-opacity:1"/><stop offset=".859" style="stop-color:#9292ff;stop-opacity:1"/><stop offset=".867" style="stop-color:#9191ff;stop-opacity:1"/><stop offset=".875" style="stop-color:#9090ff;stop-opacity:1"/><stop offset=".883" style="stop-color:#8f8fff;stop-opacity:1"/><stop offset=".891" style="stop-color:#8e8eff;stop-opacity:1"/><stop offset=".898" style="stop-color:#8d8dff;stop-opacity:1"/><stop offset=".906" style="stop-color:#8c8cff;stop-opacity:1"/><stop offset=".914" style="stop-color:#8b8bff;stop-opacity:1"/><stop offset=".922" style="stop-color:#8a8aff;stop-opacity:1"/><stop offset=".93" style="stop-color:#8989ff;stop-opacity:1"/><stop offset=".938" style="stop-color:#88f;stop-opacity:1"/><stop offset=".945" style="stop-color:#8787ff;stop-opacity:1"/><stop offset=".953" style="stop-color:#8686ff;stop-opacity:1"/><stop offset=".961" style="stop-color:#8585ff;stop-opacity:1"/><stop offset=".969" style="stop-color:#8484ff;stop-opacity:1"/><stop offset=".977" style="stop-color:#8383ff;stop-opacity:1"/><stop offset=".984" style="stop-color:#8282ff;stop-opacity:1"/><stop offset=".992" style="stop-color:#8181ff;stop-opacity:1"/><stop offset="1" style="stop-color:#8080ff;stop-opacity:1"/></linearGradient><linearGradient id="q" gradientUnits="userSpaceOnUse" x1="0" y1="25.003" x2="0" y2="74.997" gradientTransform="matrix(0 -.27492 -1.42278 0 108.016 110.983)"><stop offset="0" style="stop-color:#fff;stop-opacity:1"/><stop offset=".008" style="stop-color:#fefeff;stop-opacity:1"/><stop offset=".016" style="stop-color:#fdfdff;stop-opacity:1"/><stop offset=".023" style="stop-color:#fdfdff;stop-opacity:1"/><stop offset=".031" style="stop-color:#fcfcff;stop-opacity:1"/><stop offset=".039" style="stop-color:#fbfbff;stop-opacity:1"/><stop offset=".047" style="stop-color:#fafaff;stop-opacity:1"/><stop offset=".055" style="stop-color:#f9f9ff;stop-opacity:1"/><stop offset=".063" style="stop-color:#f8f8ff;stop-opacity:1"/><stop offset=".07" style="stop-color:#f7f7ff;stop-opacity:1"/><stop offset=".078" style="stop-color:#f6f6ff;stop-opacity:1"/><stop offset=".086" style="stop-color:#f5f5ff;stop-opacity:1"/><stop offset=".094" style="stop-color:#f4f4ff;stop-opacity:1"/><stop offset=".102" style="stop-color:#f3f3ff;stop-opacity:1"/><stop offset=".109" style="stop-color:#f2f2ff;stop-opacity:1"/><stop offset=".117" style="stop-color:#f1f1ff;stop-opacity:1"/><stop offset=".125" style="stop-color:#f0f0ff;stop-opacity:1"/><stop offset=".133" style="stop-color:#efefff;stop-opacity:1"/><stop offset=".141" style="stop-color:#eef;stop-opacity:1"/><stop offset=".148" style="stop-color:#ededff;stop-opacity:1"/><stop offset=".156" style="stop-color:#ececff;stop-opacity:1"/><stop offset=".164" style="stop-color:#ebebff;stop-opacity:1"/><stop offset=".172" style="stop-color:#eaeaff;stop-opacity:1"/><stop offset=".18" style="stop-color:#e9e9ff;stop-opacity:1"/><stop offset=".188" style="stop-color:#e8e8ff;stop-opacity:1"/><stop offset=".195" style="stop-color:#e7e7ff;stop-opacity:1"/><stop offset=".203" style="stop-color:#e6e6ff;stop-opacity:1"/><stop offset=".211" style="stop-color:#e5e5ff;stop-opacity:1"/><stop offset=".219" style="stop-color:#e4e4ff;stop-opacity:1"/><stop offset=".227" style="stop-color:#e3e3ff;stop-opacity:1"/><stop offset=".234" style="stop-color:#e2e2ff;stop-opacity:1"/><stop offset=".242" style="stop-color:#e1e1ff;stop-opacity:1"/><stop offset=".25" style="stop-color:#e0e0ff;stop-opacity:1"/><stop offset=".258" style="stop-color:#dfdfff;stop-opacity:1"/><stop offset=".266" style="stop-color:#dedeff;stop-opacity:1"/><stop offset=".273" style="stop-color:#ddf;stop-opacity:1"/><stop offset=".281" style="stop-color:#dcdcff;stop-opacity:1"/><stop offset=".289" style="stop-color:#dbdbff;stop-opacity:1"/><stop offset=".297" style="stop-color:#dadaff;stop-opacity:1"/><stop offset=".305" style="stop-color:#d9d9ff;stop-opacity:1"/><stop offset=".313" style="stop-color:#d8d8ff;stop-opacity:1"/><stop offset=".32" style="stop-color:#d7d7ff;stop-opacity:1"/><stop offset=".328" style="stop-color:#d6d6ff;stop-opacity:1"/><stop offset=".336" style="stop-color:#d5d5ff;stop-opacity:1"/><stop offset=".344" style="stop-color:#d4d4ff;stop-opacity:1"/><stop offset=".352" style="stop-color:#d3d3ff;stop-opacity:1"/><stop offset=".359" style="stop-color:#d2d2ff;stop-opacity:1"/><stop offset=".367" style="stop-color:#d1d1ff;stop-opacity:1"/><stop offset=".375" style="stop-color:#d0d0ff;stop-opacity:1"/><stop offset=".383" style="stop-color:#cfcfff;stop-opacity:1"/><stop offset=".391" style="stop-color:#ceceff;stop-opacity:1"/><stop offset=".398" style="stop-color:#cdcdff;stop-opacity:1"/><stop offset=".406" style="stop-color:#ccf;stop-opacity:1"/><stop offset=".414" style="stop-color:#cbcbff;stop-opacity:1"/><stop offset=".422" style="stop-color:#cacaff;stop-opacity:1"/><stop offset=".43" style="stop-color:#c9c9ff;stop-opacity:1"/><stop offset=".438" style="stop-color:#c8c8ff;stop-opacity:1"/><stop offset=".445" style="stop-color:#c7c7ff;stop-opacity:1"/><stop offset=".453" style="stop-color:#c6c6ff;stop-opacity:1"/><stop offset=".461" style="stop-color:#c5c5ff;stop-opacity:1"/><stop offset=".469" style="stop-color:#c4c4ff;stop-opacity:1"/><stop offset=".477" style="stop-color:#c3c3ff;stop-opacity:1"/><stop offset=".484" style="stop-color:#c2c2ff;stop-opacity:1"/><stop offset=".492" style="stop-color:#c1c1ff;stop-opacity:1"/><stop offset=".5" style="stop-color:#c0c0ff;stop-opacity:1"/><stop offset=".508" style="stop-color:#bfbfff;stop-opacity:1"/><stop offset=".516" style="stop-color:#bebeff;stop-opacity:1"/><stop offset=".523" style="stop-color:#bdbdff;stop-opacity:1"/><stop offset=".531" style="stop-color:#bcbcff;stop-opacity:1"/><stop offset=".539" style="stop-color:#bbf;stop-opacity:1"/><stop offset=".547" style="stop-color:#babaff;stop-opacity:1"/><stop offset=".555" style="stop-color:#b9b9ff;stop-opacity:1"/><stop offset=".563" style="stop-color:#b8b8ff;stop-opacity:1"/><stop offset=".57" style="stop-color:#b7b7ff;stop-opacity:1"/><stop offset=".578" style="stop-color:#b6b6ff;stop-opacity:1"/><stop offset=".586" style="stop-color:#b5b5ff;stop-opacity:1"/><stop offset=".594" style="stop-color:#b4b4ff;stop-opacity:1"/><stop offset=".602" style="stop-color:#b3b3ff;stop-opacity:1"/><stop offset=".609" style="stop-color:#b2b2ff;stop-opacity:1"/><stop offset=".617" style="stop-color:#b1b1ff;stop-opacity:1"/><stop offset=".625" style="stop-color:#b0b0ff;stop-opacity:1"/><stop offset=".633" style="stop-color:#afafff;stop-opacity:1"/><stop offset=".641" style="stop-color:#aeaeff;stop-opacity:1"/><stop offset=".648" style="stop-color:#adadff;stop-opacity:1"/><stop offset=".656" style="stop-color:#acacff;stop-opacity:1"/><stop offset=".664" style="stop-color:#ababff;stop-opacity:1"/><stop offset=".672" style="stop-color:#aaf;stop-opacity:1"/><stop offset=".68" style="stop-color:#a9a9ff;stop-opacity:1"/><stop offset=".688" style="stop-color:#a8a8ff;stop-opacity:1"/><stop offset=".695" style="stop-color:#a7a7ff;stop-opacity:1"/><stop offset=".703" style="stop-color:#a6a6ff;stop-opacity:1"/><stop offset=".711" style="stop-color:#a5a5ff;stop-opacity:1"/><stop offset=".719" style="stop-color:#a4a4ff;stop-opacity:1"/><stop offset=".727" style="stop-color:#a3a3ff;stop-opacity:1"/><stop offset=".734" style="stop-color:#a2a2ff;stop-opacity:1"/><stop offset=".742" style="stop-color:#a1a1ff;stop-opacity:1"/><stop offset=".75" style="stop-color:#a0a0ff;stop-opacity:1"/><stop offset=".758" style="stop-color:#9f9fff;stop-opacity:1"/><stop offset=".766" style="stop-color:#9e9eff;stop-opacity:1"/><stop offset=".773" style="stop-color:#9d9dff;stop-opacity:1"/><stop offset=".781" style="stop-color:#9c9cff;stop-opacity:1"/><stop offset=".789" style="stop-color:#9b9bff;stop-opacity:1"/><stop offset=".797" style="stop-color:#9a9aff;stop-opacity:1"/><stop offset=".805" style="stop-color:#99f;stop-opacity:1"/><stop offset=".813" style="stop-color:#9898ff;stop-opacity:1"/><stop offset=".82" style="stop-color:#9797ff;stop-opacity:1"/><stop offset=".828" style="stop-color:#9696ff;stop-opacity:1"/><stop offset=".836" style="stop-color:#9595ff;stop-opacity:1"/><stop offset=".844" style="stop-color:#9494ff;stop-opacity:1"/><stop offset=".852" style="stop-color:#9393ff;stop-opacity:1"/><stop offset=".859" style="stop-color:#9292ff;stop-opacity:1"/><stop offset=".867" style="stop-color:#9191ff;stop-opacity:1"/><stop offset=".875" style="stop-color:#9090ff;stop-opacity:1"/><stop offset=".883" style="stop-color:#8f8fff;stop-opacity:1"/><stop offset=".891" style="stop-color:#8e8eff;stop-opacity:1"/><stop offset=".898" style="stop-color:#8d8dff;stop-opacity:1"/><stop offset=".906" style="stop-color:#8c8cff;stop-opacity:1"/><stop offset=".914" style="stop-color:#8b8bff;stop-opacity:1"/><stop offset=".922" style="stop-color:#8a8aff;stop-opacity:1"/><stop offset=".93" style="stop-color:#8989ff;stop-opacity:1"/><stop offset=".938" style="stop-color:#88f;stop-opacity:1"/><stop offset=".945" style="stop-color:#8787ff;stop-opacity:1"/><stop offset=".953" style="stop-color:#8686ff;stop-opacity:1"/><stop offset=".961" style="stop-color:#8585ff;stop-opacity:1"/><stop offset=".969" style="stop-color:#8484ff;stop-opacity:1"/><stop offset=".977" style="stop-color:#8383ff;stop-opacity:1"/><stop offset=".984" style="stop-color:#8282ff;stop-opacity:1"/><stop offset=".992" style="stop-color:#8181ff;stop-opacity:1"/><stop offset="1" style="stop-color:#8080ff;stop-opacity:1"/></linearGradient></defs><path style="fill-rule:nonzero;fill:#ccf;fill-opacity:1;stroke-width:.79701;stroke-linecap:butt;stroke-linejoin:miter;stroke:#00f;stroke-opacity:1;stroke-miterlimit:10" d="M-35.566-6.871h71.13V6.87h-71.13Zm0 0" transform="matrix(1 0 0 -1 41.3 7.773)"/><path style="fill-rule:nonzero;fill:#ccf;fill-opacity:1;stroke-width:.79701;stroke-linecap:butt;stroke-linejoin:miter;stroke:#00f;stroke-opacity:1;stroke-miterlimit:10" d="M-35.565-6.87h71.13V6.87h-71.13Zm0 0" transform="matrix(1 0 0 -1 39.088 9.985)"/><path style="fill-rule:nonzero;fill:#ccf;fill-opacity:1;stroke-width:.79701;stroke-linecap:butt;stroke-linejoin:miter;stroke:#00f;stroke-opacity:1;stroke-miterlimit:10" d="M-35.564-6.874h71.129V6.872h-71.129Zm0 0" transform="matrix(1 0 0 -1 36.877 12.197)"/><g style="fill:#000;fill-opacity:1"><use xlink:href="#a" x="4.633" y="15.668"/><use xlink:href="#b" x="13.599" y="15.668"/><use xlink:href="#c" x="18.849" y="15.668"/><use xlink:href="#c" x="22.027" y="15.668"/><use xlink:href="#d" x="25.205" y="15.668"/></g><use xlink:href="#e" x="34.75" y="15.668" style="fill:#000;fill-opacity:1"/><g style="fill:#000;fill-opacity:1"><use xlink:href="#d" x="45.639" y="15.668"/><use xlink:href="#f" x="51.367" y="15.668"/><use xlink:href="#c" x="56.09" y="15.668"/><use xlink:href="#g" x="59.268" y="15.668"/><use xlink:href="#h" x="65.634" y="15.668"/></g><path style="fill-rule:nonzero;fill:#ccf;fill-opacity:1;stroke-width:.79701;stroke-linecap:butt;stroke-linejoin:miter;stroke:#00f;stroke-opacity:1;stroke-miterlimit:10" d="M-35.563-35.22h71.129v13.745h-71.13Zm0 0" transform="matrix(1 0 0 -1 45.723 3.35)"/><path style="fill-rule:nonzero;fill:#ccf;fill-opacity:1;stroke-width:.79701;stroke-linecap:butt;stroke-linejoin:miter;stroke:#00f;stroke-opacity:1;stroke-miterlimit:10" d="M-35.566-35.22h71.13v13.747h-71.13Zm0 0" transform="matrix(1 0 0 -1 41.3 7.773)"/><path style="fill-rule:nonzero;fill:#ccf;fill-opacity:1;stroke-width:.79701;stroke-linecap:butt;stroke-linejoin:miter;stroke:#00f;stroke-opacity:1;stroke-miterlimit:10" d="M-35.564-35.218h71.129v13.743h-71.129Zm0 0" transform="matrix(1 0 0 -1 36.877 12.197)"/><g style="fill:#000;fill-opacity:1"><use xlink:href="#a" x="4.633" y="44.014"/><use xlink:href="#b" x="13.599" y="44.014"/><use xlink:href="#c" x="18.849" y="44.014"/><use xlink:href="#c" x="22.027" y="44.014"/><use xlink:href="#d" x="25.205" y="44.014"/></g><use xlink:href="#e" x="34.75" y="44.014" style="fill:#000;fill-opacity:1"/><g style="fill:#000;fill-opacity:1"><use xlink:href="#d" x="45.639" y="44.014"/><use xlink:href="#f" x="51.367" y="44.014"/><use xlink:href="#c" x="56.09" y="44.014"/><use xlink:href="#g" x="59.268" y="44.014"/><use xlink:href="#h" x="65.634" y="44.014"/></g><path style="stroke:none;fill-rule:nonzero;fill:#ccf;fill-opacity:.5" d="M5.734 64.465v-9.36c9.82 3.32 25.746 3.32 35.567 0 9.82-3.324 25.742-3.324 35.562 0v18.723c-9.82-3.32-25.742-3.32-35.562 0-9.82 3.324-25.746 3.324-35.567 0Zm0 0"/><g clip-path="url(#i)"><path style="fill:none;stroke-width:.79701;stroke-linecap:butt;stroke-linejoin:miter;stroke:#00f;stroke-opacity:.5;stroke-miterlimit:10" d="M-35.566-56.692v9.36c9.82-3.32 25.747-3.32 35.567 0 9.82 3.324 25.742 3.324 35.562 0v-18.723c-9.82 3.32-25.742 3.32-35.562 0-9.82-3.324-25.746-3.324-35.567 0Zm0 0" transform="matrix(1 0 0 -1 41.3 7.773)"/></g><path style="stroke:none;fill-rule:nonzero;fill:#ccf;fill-opacity:.5" d="M3.523 66.68v-9.364c9.82 3.32 25.743 3.32 35.567 0 9.82-3.32 25.742-3.32 35.562 0v18.727c-9.82-3.324-25.742-3.324-35.562 0-9.824 3.32-25.746 3.32-35.567 0Zm0 0"/><g clip-path="url(#j)"><path style="fill:none;stroke-width:.79701;stroke-linecap:butt;stroke-linejoin:miter;stroke:#00f;stroke-opacity:.5;stroke-miterlimit:10" d="M-35.565-56.695v9.363c9.82-3.32 25.742-3.32 35.567 0 9.82 3.32 25.742 3.32 35.562 0v-18.726c-9.82 3.324-25.742 3.324-35.562 0-9.825-3.32-25.746-3.32-35.567 0Zm0 0" transform="matrix(1 0 0 -1 39.088 9.985)"/></g><path style="stroke:none;fill-rule:nonzero;fill:#ccf;fill-opacity:1" d="M1.313 68.89v-9.363c9.82 3.32 25.742 3.32 35.562 0 9.824-3.32 25.746-3.32 35.566 0v18.727c-9.82-3.32-25.742-3.32-35.566 0-9.82 3.32-25.742 3.32-35.563 0Zm0 0"/><g clip-path="url(#k)"><path style="fill:none;stroke-width:.79701;stroke-linecap:butt;stroke-linejoin:miter;stroke:#00f;stroke-opacity:1;stroke-miterlimit:10" d="M-35.564-56.694v9.363c9.82-3.32 25.742-3.32 35.563 0 9.824 3.32 25.746 3.32 35.566 0v-18.726c-9.82 3.32-25.742 3.32-35.566 0-9.82-3.32-25.743-3.32-35.563 0Zm0 0" transform="matrix(1 0 0 -1 36.877 12.197)"/></g><g style="fill:#000;fill-opacity:1"><use xlink:href="#a" x="4.633" y="72.362"/><use xlink:href="#b" x="13.599" y="72.362"/><use xlink:href="#c" x="18.849" y="72.362"/><use xlink:href="#c" x="22.027" y="72.362"/><use xlink:href="#d" x="25.205" y="72.362"/></g><use xlink:href="#e" x="34.75" y="72.362" style="fill:#000;fill-opacity:1"/><g style="fill:#000;fill-opacity:1"><use xlink:href="#d" x="45.639" y="72.362"/><use xlink:href="#f" x="51.367" y="72.362"/><use xlink:href="#c" x="56.09" y="72.362"/><use xlink:href="#g" x="59.268" y="72.362"/><use xlink:href="#h" x="65.634" y="72.362"/></g><path style="stroke:none;fill-rule:nonzero;fill:#000;fill-opacity:1" d="M5.734 99.688h71.13V85.94H5.733Zm0 0"/><g clip-path="url(#l)"><path style="stroke:none;fill-rule:nonzero;fill:url(#m)" d="M76.863 99.688H5.734V85.94h71.13Zm0 0"/></g><path style="fill:none;stroke-width:.79701;stroke-linecap:butt;stroke-linejoin:miter;stroke:#00f;stroke-opacity:1;stroke-miterlimit:10" d="M-35.566-91.914h71.13v13.746h-71.13Zm0 0" transform="matrix(1 0 0 -1 41.3 7.773)"/><path style="stroke:none;fill-rule:nonzero;fill:#000;fill-opacity:1" d="M3.523 101.898h71.13V88.152H3.522Zm0 0"/><g clip-path="url(#n)"><path style="stroke:none;fill-rule:nonzero;fill:url(#o)" d="M74.652 101.898H3.523V88.152h71.13Zm0 0"/></g><path style="fill:none;stroke-width:.79701;stroke-linecap:butt;stroke-linejoin:miter;stroke:#00f;stroke-opacity:1;stroke-miterlimit:10" d="M-35.565-91.914h71.13v13.746h-71.13Zm0 0" transform="matrix(1 0 0 -1 39.088 9.985)"/><g clip-path="url(#p)"><path style="stroke:none;fill-rule:nonzero;fill:url(#q)" d="M72.441 104.11H1.312V90.362h71.13Zm0 0"/></g><path style="fill:none;stroke-width:.79701;stroke-linecap:butt;stroke-linejoin:miter;stroke:#00f;stroke-opacity:1;stroke-miterlimit:10" d="M-35.564-91.913h71.129v13.746h-71.129Zm0 0" transform="matrix(1 0 0 -1 36.877 12.197)"/><g style="fill:#000;fill-opacity:1"><use xlink:href="#a" x="4.633" y="100.707"/><use xlink:href="#b" x="13.599" y="100.707"/><use xlink:href="#c" x="18.849" y="100.707"/><use xlink:href="#c" x="22.027" y="100.707"/><use xlink:href="#d" x="25.205" y="100.707"/></g><use xlink:href="#e" x="34.75" y="100.707" style="fill:#000;fill-opacity:1"/><g style="fill:#000;fill-opacity:1"><use xlink:href="#d" x="45.639" y="100.707"/><use xlink:href="#f" x="51.367" y="100.707"/><use xlink:href="#c" x="56.09" y="100.707"/><use xlink:href="#g" x="59.268" y="100.707"/><use xlink:href="#h" x="65.634" y="100.707"/></g></svg>