<svg xmlns="http://www.w3.org/2000/svg" xmlns:xlink="http://www.w3.org/1999/xlink" width="595.443" height="238.587" viewBox="0 0 446.582 178.94" version="1.2"><defs><symbol overflow="visible" id="a"><path style="stroke:none" d="M10.063-.422 6.03-5.812 9.813-9.36c.171-.157.171-.235.171-.297 0-.297-.28-.297-.484-.297h-.875c-.25 0-.531 0-.844.281l-4.61 4.36v-3.954c0-.453-.108-.687-.687-.687H2c-.516 0-.688.156-.688.687v8.579C1.313-.172 1.47 0 2 0h.484c.547 0 .688-.188.688-.688v-2.406l1.594-1.515L7.969-.297C8.203 0 8.422 0 8.687 0h.86c.312 0 .515 0 .515-.422Zm0 0"/></symbol><symbol overflow="visible" id="b"><path style="stroke:none" d="M7.438-3.234c0-2.344-1.157-3.579-3.5-3.579-2.391 0-3.5 1.282-3.5 3.579 0 2.343 1.234 3.39 3.5 3.39 2.25 0 3.5-1.031 3.5-3.39Zm-1.954-.172c0 1.14 0 2.437-1.546 2.437C2.39-.969 2.39-2.25 2.39-3.406c0-1.094 0-2.375 1.546-2.375 1.547 0 1.547 1.265 1.547 2.375Zm0 0"/></symbol><symbol overflow="visible" id="c"><path style="stroke:none" d="M7.172-.688v-3.968c0-1.485-.625-2.078-2.094-2.078-1.437 0-2.094 1-2.297 1.406h-.015v-3.938c0-.453-.094-.687-.688-.687h-.531c-.516 0-.688.156-.688.687v8.579c0 .515.157.687.688.687h.578c.547 0 .688-.188.688-.688v-3.171c0-1.25.828-1.829 1.578-1.829.687 0 .828.329.828 1.047v3.954c0 .453.11.687.687.687h.578c.547 0 .688-.188.688-.688Zm0 0"/></symbol><symbol overflow="visible" id="d"><path style="stroke:none" d="M2.781-.688v-8.578c0-.453-.094-.687-.687-.687h-.531c-.516 0-.688.156-.688.687v8.579c0 .515.156.687.688.687h.53c.548 0 .688-.188.688-.688Zm0 0"/></symbol><symbol overflow="visible" id="e"><path style="stroke:none" d="M6.875-3.734c0-1.844-.86-3.079-3-3.079-2.297 0-3.438 1.297-3.438 3.47 0 2.359 1.375 3.5 3.626 3.5.546 0 1.359-.063 2.312-.548.313-.156.406-.203.406-.375 0-.093-.047-.515-.047-.625-.062-.453-.078-.453-.203-.453-.062 0-.093 0-.25.14a3.244 3.244 0 0 1-2.172.829c-1.609 0-1.78-1.281-1.828-2.188h3.906c.329 0 .688-.015.688-.671Zm-1.594-.094H2.297c.047-.875.328-1.953 1.578-1.953 1.14 0 1.36.828 1.406 1.953Zm0 0"/></symbol><symbol overflow="visible" id="f"><path style="stroke:none" d="M2.781-.688v-5.187c0-.469-.094-.688-.687-.688h-.531c-.516 0-.688.157-.688.688v5.188c0 .515.156.687.688.687h.53c.548 0 .688-.188.688-.688Zm.11-8v-.28c0-.454-.11-.688-.704-.688H1.47c-.547 0-.688.187-.688.687v.281c0 .407.063.688.688.688h.718c.61 0 .704-.266.704-.688Zm0 0"/></symbol><symbol overflow="visible" id="g"><path style="stroke:none" d="M5.688-2.016a2.03 2.03 0 0 0-.704-1.546c-.562-.516-1.062-.594-1.671-.72-.782-.14-1.36-.25-1.36-.812 0-.593.469-.703 1.031-.703.954 0 1.47.36 1.844.672.156.14.172.14.234.14.141 0 .172-.124.188-.171.031-.125.172-.922.172-1 0-.235-.766-.422-.922-.485a5.02 5.02 0 0 0-1.406-.171c-.64 0-2.563 0-2.563 2.046 0 .704.313 1.141.703 1.485.5.453 1.063.562 1.875.719.422.062 1.157.203 1.157.828 0 .671-.563.765-1.125.765-.625 0-1.438-.172-2.11-.984-.062-.063-.11-.11-.203-.11-.14 0-.172.126-.187.22C.609-1.657.437-.829.437-.689c0 .25 1.079.594 1.079.594.796.25 1.375.25 1.625.25.734 0 2.546-.062 2.546-2.172Zm0 0"/></symbol><symbol overflow="visible" id="h"><path style="stroke:none" d="M5.344-.672c0-.047-.016-.14-.11-.453-.078-.281-.093-.36-.234-.36-.063 0-.078 0-.172.094-.156.11-.547.422-1.14.422-.344 0-.563-.234-.563-1.187v-3.375h1.281c.172 0 .688 0 .688-.516s-.516-.516-.688-.516H3.125v-1.203c0-.453-.094-.687-.688-.687H2c-.516 0-.688.156-.688.687v1.204H.97c-.156 0-.688 0-.688.515 0 .516.516.516.688.516h.297v3.625c0 1.453.515 2.062 1.5 2.062.125 0 .765 0 1.515-.234.235-.063 1.063-.328 1.063-.594Zm0 0"/></symbol><symbol overflow="visible" id="i"><path style="stroke:none" d="M6.797-.688V-4.53c0-2.266-2.172-2.282-2.89-2.282a5.86 5.86 0 0 0-2.36.454c-.297.14-.375.171-.375.328 0 .11.094.937.11 1.047.015.093.077.171.187.171.062 0 .11-.046.156-.093.61-.64 1.328-.953 2.219-.953.781 0 1 .468 1 1.312v.5c-.5 0-4.25.031-4.25 2.14 0 1 .797 2.063 2.062 2.063.485 0 1.563-.14 2.235-1.125v.281c0 .454.093.688.687.688h.531c.547 0 .688-.188.688-.688ZM4.844-2.202c0 1.328-1.36 1.328-1.407 1.328-.593 0-.984-.516-.984-1.063 0-1.406 2-1.5 2.39-1.515Zm0 0"/></symbol><symbol overflow="visible" id="j"><path style="stroke:none" d="M11.563-.688v-3.968c0-1.485-.626-2.078-2.094-2.078-1.016 0-1.813.484-2.328 1.421-.235-1.375-1.454-1.421-2.047-1.421-.282 0-.875 0-1.516.484a2.916 2.916 0 0 0-.844 1H2.72v-.719c0-.453-.094-.687-.688-.687h-.484c-.516 0-.688.156-.688.687v5.282c0 .515.157.687.688.687h.578c.547 0 .688-.188.688-.688v-3.171c0-1.297.874-1.829 1.578-1.829.687 0 .843.297.843 1.047v3.954c0 .515.157.687.688.687H6.5c.547 0 .688-.188.688-.688v-3.171c0-1.297.875-1.829 1.578-1.829.687 0 .843.297.843 1.047v3.954c0 .515.157.687.688.687h.578c.547 0 .688-.188.688-.688Zm0 0"/></symbol><symbol overflow="visible" id="k"><path style="stroke:none" d="M10.313-6.172c-.047-.39-.297-.39-.75-.39-.672 0-.844.03-1.047.78L7.359-1.624 6.141-5.922c-.094-.312-.188-.64-.844-.64-.219 0-.547 0-.75.328-.125.203-.766 2.687-1.266 4.375l-1.14-4.063c-.141-.484-.297-.64-.891-.64H.969c-.281 0-.578 0-.625.39L1.859-.656C2.047 0 2.422 0 2.781 0h.406c.672 0 .782-.219.938-.781.328-1.203.86-3 .906-3.75l.016-.016c.094.813.719 3.078.906 3.766.156.515.234.781.953.781h.969c.61 0 .766-.172.906-.656Zm0 0"/></symbol><symbol overflow="visible" id="l"><path style="stroke:none" d="M6.563-.719c0-.156-.063-.812-.094-1 0-.047-.032-.187-.172-.187-.063 0-.094 0-.234.14-.235.22-.907.797-2.094.797-1.485 0-1.485-1.437-1.485-2.36 0-1.155.063-2.358 1.532-2.358.937 0 1.312.218 1.843.656.172.156.188.156.25.156.141 0 .172-.125.188-.188.031-.109.172-.921.172-.984 0-.14-.094-.187-.344-.312C5.437-6.672 5-6.813 4-6.813c-2.14 0-3.469 1-3.469 3.516C.531-.922 1.766.156 3.937.156c.376 0 1.235-.015 2.204-.5.406-.219.421-.234.421-.375Zm0 0"/></symbol><symbol overflow="visible" id="m"><path style="stroke:none" d="M7.656-5.813c0-.046-.062-.39-.093-.546-.063-.344-.063-.375-.313-.375-.453 0-1.172.171-1.719.515-.672-.453-1.422-.515-2.031-.515-.61 0-2.89 0-2.89 2.375 0 .578.171 1.296.703 1.765C.938-2.063.938-1.5.938-1.438c0 .282.078.75.375 1.141C1.109-.219.359.047.359.97c0 .437.22 1.187 1.125 1.594.813.374 1.766.39 2.454.39.843 0 3.578 0 3.578-2.031 0-2.235-2.016-2.235-3.954-2.235h-.687c-.516 0-.719 0-.922-.171-.062-.063-.297-.282-.297-.657 0-.093 0-.125.016-.218.687.375 1.531.375 1.828.375.61 0 2.89 0 2.89-2.36 0-.828-.327-1.343-.452-1.5.25 0 .75 0 1.328.157a.718.718 0 0 0 .203.062c.125 0 .187-.078.187-.188Zm-3.11 1.454c0 .78-.046 1.343-1.046 1.343s-1.047-.546-1.047-1.328c0-.797.047-1.343 1.047-1.343 1 0 1.047.53 1.047 1.328ZM6.032.969c0 .953-1.625.953-2.093.953-.563 0-2.094 0-2.094-1 0-.672.437-.672.765-.672h1.672c1.157 0 1.75.188 1.75.719Zm0 0"/></symbol><symbol overflow="visible" id="n"><path style="stroke:none" d="M7.172-.688v-3.968c0-1.485-.625-2.078-2.094-2.078-1.5 0-2.156 1.093-2.344 1.484H2.72v-.719c0-.453-.094-.687-.688-.687h-.484c-.516 0-.688.156-.688.687v5.282c0 .515.157.687.688.687h.578c.547 0 .688-.188.688-.688v-3.171c0-1.25.828-1.829 1.578-1.829.687 0 .828.329.828 1.047v3.954c0 .453.11.687.687.687h.578c.547 0 .688-.188.688-.688Zm0 0"/></symbol><symbol overflow="visible" id="o"><path style="stroke:none" d="M5.938-.484v-.141c0-.469-.235-.469-.563-.469l-1.547.016-1.453.016v-2.032H5c.297 0 .469-.078.469-.469 0-.374-.125-.468-.469-.468H2.375v-1.844h.484l2.344.016c.344 0 .578 0 .578-.47v-.077c0-.328-.062-.485-.484-.485H1.39c-.36 0-.485.11-.485.485v5.922c0 .359.11.484.485.484h4.062c.375 0 .484-.125.484-.484Zm0 0"/></symbol><symbol overflow="visible" id="p"><path style="stroke:none" d="M4.984-.484v-2.75c0-1.032-.437-1.438-1.453-1.438-1.047 0-1.5.75-1.625 1.016h-.015v-.485c0-.328-.063-.484-.47-.484h-.343c-.36 0-.484.11-.484.484v3.657c0 .359.11.484.484.484h.39c.391 0 .485-.125.485-.484v-2.204c0-.859.578-1.265 1.094-1.265.484 0 .578.219.578.734v2.735c0 .328.078.484.484.484H4.5c.39 0 .484-.125.484-.484Zm0 0"/></symbol><symbol overflow="visible" id="q"><path style="stroke:none" d="M4.781-2.594c0-1.281-.61-2.14-2.093-2.14-1.594 0-2.376.89-2.376 2.406 0 1.64.938 2.437 2.516 2.437.375 0 .938-.046 1.594-.375.219-.109.297-.14.297-.265 0-.063-.032-.36-.047-.438-.031-.312-.047-.312-.14-.312-.032 0-.063 0-.173.093a2.197 2.197 0 0 1-1.5.579c-1.125 0-1.25-.891-1.28-1.532h2.718c.234 0 .484 0 .484-.453Zm-1.11-.062H1.595c.031-.61.234-1.36 1.093-1.36.797 0 .954.579.985 1.36Zm0 0"/></symbol><symbol overflow="visible" id="r"><path style="stroke:none" d="M3.547-3.938v-.468c0-.203 0-.266-.172-.266-.281 0-1.016.094-1.484 1.172v-.64c0-.329-.079-.485-.485-.485h-.312c-.36 0-.485.11-.485.484v3.657c0 .359.11.484.485.484h.36c.374 0 .484-.125.484-.484v-1.813c0-.937.78-1.328 1.406-1.375.187 0 .203 0 .203-.265Zm0 0"/></symbol><symbol overflow="visible" id="s"><path style="stroke:none" d="M5.328-4.031c0-.047-.047-.282-.078-.39-.031-.235-.031-.25-.219-.25-.312 0-.797.109-1.187.343-.469-.313-.985-.344-1.406-.344-.422 0-2.016 0-2.016 1.64 0 .407.11.891.5 1.235C.64-1.437.64-1.047.64-1c0 .188.062.516.28.797C.767-.156.25.03.25.672c0 .312.156.828.781 1.11.563.265 1.235.265 1.703.265.579 0 2.485 0 2.485-1.406 0-1.563-1.407-1.563-2.75-1.563H2c-.36 0-.5 0-.64-.11-.048-.046-.22-.187-.22-.452 0-.079.016-.094.032-.157.469.266 1.047.266 1.266.266.406 0 2 0 2-1.64 0-.579-.22-.938-.313-1.047.172 0 .516 0 .922.109.047.031.11.047.14.047.094 0 .141-.063.141-.125Zm-2.172 1c0 .547-.031.937-.719.937-.703 0-.734-.375-.734-.922 0-.546.031-.937.734-.937.688 0 .72.375.72.922ZM4.203.672c0 .656-1.14.656-1.469.656-.39 0-1.453 0-1.453-.687 0-.47.297-.47.532-.47h1.156c.812 0 1.234.141 1.234.5Zm0 0"/></symbol><symbol overflow="visible" id="t"><path style="stroke:none" d="M1.938-.484v-3.61c0-.312-.079-.468-.485-.468h-.36c-.359 0-.484.109-.484.468v3.61c0 .359.11.484.485.484h.36c.374 0 .484-.125.484-.484ZM2-6.047v-.187c0-.313-.063-.47-.469-.47h-.515c-.375 0-.485.126-.485.47v.187c0 .297.063.484.485.484h.515c.407 0 .469-.171.469-.484Zm0 0"/></symbol><symbol overflow="visible" id="u"><path style="stroke:none" d="M8.031-.484v-2.75c0-1.032-.437-1.438-1.453-1.438-.703 0-1.25.328-1.61.984-.155-.953-1.015-.984-1.437-.984-.187 0-.594 0-1.047.328a2.002 2.002 0 0 0-.578.688h-.015v-.485c0-.328-.063-.484-.47-.484h-.343c-.36 0-.484.11-.484.484v3.657c0 .359.11.484.484.484h.39c.391 0 .485-.125.485-.484v-2.204c0-.89.61-1.265 1.094-1.265.484 0 .594.203.594.734v2.735c0 .359.109.484.468.484h.407C4.89 0 5-.125 5-.484v-2.204c0-.89.61-1.265 1.094-1.265.468 0 .578.203.578.734v2.735c0 .359.11.484.484.484h.407c.375 0 .468-.125.468-.484Zm0 0"/></symbol><symbol overflow="visible" id="v"><path style="stroke:none" d="M4.719-.219c0-.078-.032-.125-.11-.203L3-2.359l1.453-1.782c.094-.109.094-.156.094-.203 0-.218-.203-.218-.344-.218h-.437c-.172 0-.297 0-.438.14-.047.063-.703.922-.86 1.156L1.61-4.344c-.171-.218-.28-.218-.515-.218H.656c-.125 0-.344 0-.344.218 0 .063.032.11.094.188l1.5 1.797L.344-.422c-.063.078-.11.125-.11.203 0 .219.22.219.36.219h.437c.328 0 .344-.031.563-.36l.86-1.28L3.468-.204c.14.203.265.203.469.203h.437c.14 0 .344 0 .344-.219Zm0 0"/></symbol><symbol overflow="visible" id="w"><path style="stroke:none" d="M5.219-2.297c0-.484 0-2.375-1.875-2.375-.828 0-1.313.453-1.406.563v-2.329c0-.328-.079-.484-.485-.484h-.36c-.359 0-.484.11-.484.484v5.954c0 .359.11.484.485.484h.39c.172 0 .47 0 .485-.39.453.5.968.5 1.125.5 2.125 0 2.125-1.907 2.125-2.407Zm-1.36 0c0 .735 0 1.688-1.125 1.688A.97.97 0 0 1 1.97-1v-2.61c.125-.124.422-.343.875-.343 1.015 0 1.015.906 1.015 1.656Zm0 0"/></symbol><symbol overflow="visible" id="x"><path style="stroke:none" d="M4.969-.484v-5.954c0-.328-.063-.484-.469-.484h-.375c-.375 0-.469.14-.469.484v2.266a1.763 1.763 0 0 0-1.265-.5C.375-4.672.375-2.766.375-2.266c0 .454 0 2.375 1.969 2.375.422 0 .844-.125 1.281-.578 0 .375.14.469.469.469H4.5c.375 0 .469-.125.469-.484ZM3.625-1.25c0 .172 0 .266-.297.469-.25.156-.484.172-.594.172-1.015 0-1.015-.922-1.015-1.657 0-.75 0-1.687 1.125-1.687.281 0 .562.094.781.297Zm0 0"/></symbol><symbol overflow="visible" id="y"><path style="stroke:none" d="M4.984-.484v-3.61c0-.312-.062-.468-.484-.468h-.39c-.376 0-.485.125-.485.468v2.375c0 .657-.344 1.219-1.047 1.219-.562 0-.625-.14-.625-.672v-2.922c0-.312-.062-.468-.484-.468h-.39c-.36 0-.485.109-.485.468v2.844c0 1.063.578 1.36 1.625 1.36.265 0 .969 0 1.437-.844v.25c0 .328.078.484.485.484H4.5c.39 0 .484-.125.484-.484Zm0 0"/></symbol><symbol overflow="visible" id="z"><path style="stroke:none" d="M3.719-.469c0-.031-.016-.094-.078-.312-.047-.203-.079-.25-.157-.25-.062 0-.062 0-.125.062-.109.078-.375.297-.796.297-.235 0-.391-.172-.391-.828v-2.344h.89c.126 0 .47 0 .47-.36 0-.359-.345-.359-.47-.359h-.89v-.828c0-.328-.063-.484-.485-.484h-.296c-.36 0-.485.11-.485.484v.829H.672c-.11 0-.469 0-.469.359 0 .36.36.36.469.36h.203v2.515c0 1.016.36 1.437 1.047 1.437.094 0 .531 0 1.047-.156.172-.047.75-.234.75-.422Zm0 0"/></symbol><symbol overflow="visible" id="A"><path style="stroke:none" d="M3.953-1.406c0-.563-.297-.907-.484-1.063-.39-.36-.75-.422-1.172-.5-.547-.11-.938-.187-.938-.562 0-.422.329-.5.72-.5.655 0 1.015.25 1.28.468.094.11.125.11.157.11.109 0 .125-.094.14-.14.016-.079.11-.641.11-.688 0-.157-.532-.297-.641-.328a3.484 3.484 0 0 0-.969-.125c-.453 0-1.781 0-1.781 1.421 0 .485.219.797.484 1.032.344.312.735.39 1.297.5.297.047.797.14.797.578 0 .469-.375.531-.765.531-.438 0-1-.125-1.47-.687-.046-.047-.077-.079-.14-.079-.094 0-.125.094-.125.157-.031.14-.14.703-.14.797 0 .187.75.421.75.421.546.172.953.172 1.125.172.5 0 1.765-.046 1.765-1.515Zm0 0"/></symbol><symbol overflow="visible" id="B"><path style="stroke:none" d="M4.563-.5c0-.11-.047-.563-.063-.703 0-.016-.031-.125-.125-.125-.031 0-.063 0-.156.11-.172.14-.64.546-1.453.546-1.047 0-1.047-1-1.047-1.64 0-.813.062-1.641 1.078-1.641.64 0 .906.156 1.265.453.125.11.141.11.188.11.094 0 .11-.094.125-.126.016-.078.125-.64.125-.687 0-.094-.078-.14-.25-.219-.469-.219-.766-.312-1.469-.312-1.484 0-2.406.703-2.406 2.437C.375-.64 1.219.11 2.735.11c.265 0 .859-.015 1.53-.343.282-.157.298-.172.298-.266Zm0 0"/></symbol><symbol overflow="visible" id="C"><path style="stroke:none" d="M4.984-.484v-2.75c0-1.032-.437-1.438-1.453-1.438-1 0-1.453.688-1.594.969h-.015v-2.735c0-.328-.063-.484-.469-.484h-.375c-.36 0-.484.11-.484.484v5.954c0 .359.11.484.484.484h.39c.391 0 .485-.125.485-.484v-2.204c0-.859.578-1.265 1.094-1.265.484 0 .578.219.578.734v2.735c0 .328.078.484.484.484H4.5c.39 0 .484-.125.484-.484Zm0 0"/></symbol><symbol overflow="visible" id="D"><path style="stroke:none" d="M5.469-2c0-1.11-.828-1.953-1.813-2.172l-.969-.219c-.218-.062-.828-.28-.828-.859 0-.844.844-.86 1.188-.86.547 0 1.047.126 1.531.61.172.14.172.156.219.156.062 0 .11-.031.14-.172l.141-.875c.031-.078.031-.093.031-.125 0-.078-.015-.093-.265-.218-.703-.36-1.297-.407-1.797-.407-.89 0-2.438.22-2.438 2.079 0 .703.375 1.171.563 1.359.5.515.969.625 1.75.797.562.14.781.187 1 .39.094.094.312.297.312.688 0 .937-.859.953-1.187.953-.844 0-1.578-.328-2.063-.781-.125-.125-.14-.125-.187-.125-.063 0-.11.031-.14.187l-.141.86c-.032.093-.032.109-.032.14 0 .203 1.047.563 1.094.578A4.648 4.648 0 0 0 3.047.22C4.53.219 5.469-.453 5.469-2Zm0 0"/></symbol><symbol overflow="visible" id="E"><path style="stroke:none" d="M5.156-2.25c0-1.625-.797-2.484-2.422-2.484-1.656 0-2.421.89-2.421 2.484 0 1.625.859 2.36 2.421 2.36 1.563 0 2.422-.72 2.422-2.36Zm-1.343-.11c0 .782 0 1.688-1.079 1.688-1.062 0-1.062-.89-1.062-1.687 0-.766 0-1.657 1.062-1.657 1.079 0 1.079.875 1.079 1.657Zm0 0"/></symbol><symbol overflow="visible" id="F"><path style="stroke:none" d="M4.39-.375c0-.375-.296-.375-.593-.375l-1.531.016h-.454L4.25-3.813a.422.422 0 0 0 .11-.328c0-.421-.298-.421-.47-.421H.938c-.125 0-.484 0-.484.375s.328.375.594.375L2.5-3.845h.36L.421-.75a.422.422 0 0 0-.11.328C.313 0 .625 0 .782 0h3.14c.125 0 .469 0 .469-.375Zm0 0"/></symbol><symbol overflow="visible" id="G"><path style="stroke:none" d="M4.922-.484v-.11c0-.156 0-.36-.203-.437-.078-.047-.39-.047-.594-.047l-.672.016H1.828l1.328-1.25c.14-.126.516-.438.672-.579.547-.53 1.094-1.062 1.094-1.953 0-1.218-.875-2.297-2.344-2.297-.344 0-.906.047-1.39.438-.094.078-.547.437-.735 1.094l.5.64c.063.078.094.125.156.125.094 0 .11-.078.141-.187.203-.688.547-1.11 1.188-1.11.765 0 1.093.704 1.093 1.313 0 .64-.375 1.312-.984 1.953L.64-.844c-.094.094-.094.11-.094.281v.079c0 .359.11.484.484.484h3.422c.375 0 .469-.125.469-.484Zm0 0"/></symbol><symbol overflow="visible" id="H"><path style="stroke:none" d="M5.047-3.422c0-1.36 0-3.719-2.313-3.719C.422-7.14.422-4.812.422-3.42c0 1.374 0 3.64 2.312 3.64 2.313 0 2.313-2.25 2.313-3.64Zm-1.36-.14c0 .578 0 1.343-.062 1.89-.031.266-.14 1.172-.89 1.172-.735 0-.844-.922-.876-1.188-.078-.53-.078-1.468-.078-1.875 0-.578 0-1.218.063-1.718.031-.266.125-1.14.89-1.14.735 0 .86.843.891 1.03.063.516.063 1.297.063 1.829Zm0 0"/></symbol><symbol overflow="visible" id="I"><path style="stroke:none" d="M5.156-2c0-.36-.125-.469-.468-.469h-.422v-3.969c0-.359-.11-.484-.485-.484h-.719c-.187 0-.343 0-.453.234L.391-2.609c-.079.14-.079.171-.079.359V-2c0 .313.063.469.47.469h2.25v1.047c0 .328.062.484.484.484h.265c.39 0 .485-.125.485-.484v-1.047h.421c.313 0 .47-.063.47-.469Zm-2.062-.469h-1.75C2.937-5.39 3.03-5.703 3.078-5.875h.016Zm0 0"/></symbol><symbol overflow="visible" id="ap"><path style="stroke:none" d="M5.016-3.547C5.016-4.609 5-7.14 2.734-7.14c-.609 0-1.265.11-1.78.75-.423.547-.5 1.047-.5 1.813 0 .625.03 1.203.452 1.766.406.515.86.671 1.5.671.735 0 1.078-.593 1.219-.906-.016.094 0 .281-.031.719-.063.61-.235 1.61-1.328 1.61-.313 0-.594-.079-.875-.329-.047-.062-.079-.078-.125-.078-.079 0-.094.047-.157.125-.187.328-.328.547-.328.61 0 .078.531.609 1.5.609 2.735 0 2.735-2.875 2.735-3.766Zm-1.407-.89c0 .14 0 1.578-.953 1.578-.797 0-.797-.72-.797-1.704 0-.968 0-1.687.907-1.687.687 0 .843.766.843 1.813Zm0 0"/></symbol><symbol overflow="visible" id="aq"><path style="stroke:none" d="M2.172-.266v-.765c0-.266-.016-.282-.266-.282h-.765c-.266 0-.266.016-.266.282v.765c0 .25 0 .266.328.266-.062.156-.11.313-.172.484C.984.625.875.922.875.922c0 .14.11.14.266.14h.109c.203 0 .219-.015.313-.171l.515-.829c.094-.14.094-.156.094-.328Zm0 0"/></symbol><symbol overflow="visible" id="ar"><path style="stroke:none" d="M4.203-5.469c0-.828-.219-2.015-1.781-2.015-1.172 0-1.813.671-1.813 2.015 0 .922.297 2.016 1.813 2.016 1.36 0 1.781-.922 1.781-2.016Zm4.078-1.593a.43.43 0 0 0-.422-.422c-.218 0-.328.156-.375.218L2.141-.172C2.062-.062 2 0 2 .141a.42.42 0 0 0 .422.421c.203 0 .312-.14.375-.218l5.36-7.094c.124-.156.124-.281.124-.313Zm1.36 5.609c0-.828-.235-2-1.782-2-1.187 0-1.812.656-1.812 2 0 .922.297 2.016 1.812 2.016 1.36 0 1.782-.922 1.782-2.016ZM3.078-5.47c0 .328 0 1.297-.672 1.297-.61 0-.61-.687-.61-1.297 0-.61 0-1.297.61-1.297.672 0 .672.97.672 1.297ZM8.5-1.453c0 .328 0 1.297-.656 1.297-.61 0-.61-.688-.61-1.297 0-.61 0-1.281.61-1.281.656 0 .656.953.656 1.28Zm0 0"/></symbol><symbol overflow="visible" id="as"><path style="stroke:none" d="M5.016-6.422c0-.219 0-.484-.422-.5H1.14c-.485 0-.688 0-.688.469v.14c0 .157 0 .344.219.438.062.031.39.031.61.031l.687-.015h1.687C1.422-3.391 1.422-.875 1.422-.375c0 .328.078.484.484.484h.453c.157 0 .485 0 .485-.39.031-2.469.89-4.282 2.094-5.782.078-.093.078-.171.078-.359Zm0 0"/></symbol><symbol overflow="visible" id="at"><path style="stroke:none" d="M5.016-2.031c0-.906-.438-1.469-1.235-1.703C4.75-4.047 4.86-4.75 4.86-5.188c0-1.468-.937-1.953-2.125-1.953C1.656-7.14.61-6.75.61-5.187c0 .515.172 1.156 1.079 1.453C.655-3.438.452-2.656.452-2.031c0 1.562.844 2.25 2.281 2.25 1.5 0 2.282-.75 2.282-2.25ZM3.594-5.187c0 .578-.016 1.093-.86 1.093-.828 0-.843-.484-.843-1.093 0-.688.046-1.063.843-1.063.782 0 .86.36.86 1.063Zm.031 3.14c0 .75-.016 1.328-.89 1.328-.876 0-.891-.562-.891-1.328 0-.64 0-1.328.89-1.328.891 0 .891.672.891 1.328Zm0 0"/></symbol><symbol overflow="visible" id="au"><path style="stroke:none" d="M4.922-2.203c0-1.313-.547-2.297-2.078-2.297a1.96 1.96 0 0 0-.719.14v-1.562h1.953c.469 0 .484-.234.484-.5 0-.25 0-.5-.484-.5H1.312c-.328 0-.484.063-.484.469v3.047c0 .453.235.453.5.453.25 0 .344 0 .484-.235.235-.39.579-.593 1-.593.641 0 .641.765.641 1.531 0 .781 0 1.531-1.047 1.531-.297 0-.984-.094-1.375-.875C1-1.656.97-1.719.891-1.719c-.079 0-.094.047-.157.14-.14.22-.359.579-.359.641 0 .079.64 1.157 2.063 1.157 1.609 0 2.484-.813 2.484-2.422Zm0 0"/></symbol><symbol overflow="visible" id="av"><path style="stroke:none" d="M5.016-2.36c0-.562 0-2.421-1.938-2.421-.562 0-.953.312-1.219.89.047-.89.047-1.109.204-1.515.296-.75.953-.844 1.296-.844.172 0 .438.031.672.156.078.047.11.078.157.078.125 0 .125-.125.125-.28v-.36c0-.235 0-.25-.36-.375-.25-.11-.531-.11-.625-.11C.453-7.14.453-4.266.453-3.39c0 1.032 0 3.61 2.328 3.61.766 0 1.25-.188 1.656-.64.516-.579.579-1.157.579-1.938Zm-1.391 0c0 .97 0 1.641-.86 1.641-.78 0-.89-.89-.89-1.75 0-.828.234-1.594.953-1.594.797 0 .797.72.797 1.704Zm0 0"/></symbol><symbol overflow="visible" id="aw"><path style="stroke:none" d="M5.016-2.031c0-.89-.485-1.5-1.375-1.735.812-.437 1.078-1.078 1.078-1.64 0-1.61-1.422-1.735-2.078-1.735-1.36 0-2.032.985-2.032 1.063 0 .062.063.14.063.14l.281.407c.078.125.156.125.156.125.063 0 .094-.047.141-.11.5-.734 1.219-.734 1.344-.734.64 0 .719.328.719.813 0 .14 0 .625-.297 1-.25.28-.5.296-.797.328-.11 0-.297.015-.328.03-.063.032-.063.095-.063.25v.173c0 .265 0 .281.266.281h.437c.906 0 1.016.563 1.016 1.328 0 .672-.063 1.328-.969 1.328a2.483 2.483 0 0 1-1.734-.703C.75-1.5.75-1.516.704-1.516c-.095 0-.11.094-.126.11 0 0-.125.64-.125.687 0 .125.86.938 2.172.938 1.719 0 2.39-.922 2.39-2.25Zm0 0"/></symbol><symbol overflow="visible" id="ax"><path style="stroke:none" d="M4.719-.36c0-.359-.375-.359-.485-.359h-.703v-5.937c0-.188 0-.485-.437-.485-.188 0-.235.016-.36.141-.171.156-.546.531-1.53.547-.188 0-.454.078-.454.36 0 .359.36.359.484.359.297 0 .657-.047.938-.125v5.14H1.39c-.125 0-.47 0-.47.36 0 .359.345.359.47.359h2.843c.11 0 .485 0 .485-.36Zm0 0"/></symbol><symbol overflow="visible" id="J"><path style="stroke:none" d="M5.25-.39v-2.094a.107.107 0 0 0-.11-.11H3.5c-.063 0-.094.047-.094.11v.546c0 .063.031.11.094.11h.656v1.031c-.25.063-.5.094-.75.094-.5 0-.984-.14-1.312-.516-.36-.422-.438-.984-.438-1.547 0-.562.078-1.125.438-1.546.328-.375.812-.516 1.312-.516.266 0 .531.031.781.14.266.11.47.282.672.47.016.015.032.03.063.03.047 0 .094-.03.094-.078l.156-.843c0-.063-.031-.11-.063-.125a3.468 3.468 0 0 0-.828-.297 3.268 3.268 0 0 0-.875-.094c-.797 0-1.625.172-2.187.719-.563.547-.735 1.36-.735 2.14 0 .782.172 1.594.735 2.141.562.547 1.39.719 2.187.719.61 0 1.219-.14 1.781-.406.032-.016.063-.047.063-.079Zm0 0"/></symbol><symbol overflow="visible" id="K"><path style="stroke:none" d="M3.813-2.078c0-1.016-.47-1.703-1.657-1.703C.875-3.781.25-3.062.25-1.86c0 1.312.75 1.953 2 1.953.313 0 .766-.047 1.281-.313.188-.078.235-.11.235-.203 0-.062-.016-.281-.032-.344-.03-.25-.03-.265-.109-.265-.031 0-.047 0-.14.078a1.815 1.815 0 0 1-1.204.469c-.89 0-.984-.704-1.015-1.22h2.171c.188 0 .376-.015.376-.374Zm-.876-.047H1.282c.016-.484.172-1.094.875-1.094.625 0 .75.469.781 1.094Zm0 0"/></symbol><symbol overflow="visible" id="L"><path style="stroke:none" d="M3.156-1.125c0-.438-.234-.719-.39-.844-.313-.297-.594-.343-.922-.406-.438-.078-.766-.14-.766-.453 0-.328.266-.39.578-.39.532 0 .828.202 1.032.374.078.078.093.078.124.078.079 0 .094-.078.11-.109.015-.063.094-.5.094-.547 0-.125-.422-.234-.516-.265-.313-.094-.578-.094-.781-.094-.36 0-1.422 0-1.422 1.14 0 .391.172.625.39.813.282.266.594.312 1.047.406.22.031.625.11.625.453 0 .375-.296.438-.609.438-.36 0-.797-.11-1.172-.547-.047-.047-.062-.063-.11-.063-.093 0-.109.063-.109.11C.344-.921.25-.47.25-.375c0 .14.594.328.594.328.437.14.765.14.906.14.406 0 1.406-.03 1.406-1.218Zm0 0"/></symbol><symbol overflow="visible" id="M"><path style="stroke:none" d="M3.781-.375v-2.14c0-1.266-1.219-1.266-1.61-1.266-.374 0-.78.031-1.312.25-.171.078-.203.094-.203.187 0 .047.047.516.047.578.016.047.047.094.11.094.046 0 .062-.031.093-.047.344-.36.735-.547 1.235-.547.421 0 .546.266.546.735v.281c-.265 0-2.359.016-2.359 1.188C.328-.5.766.093 1.468.093c.282 0 .876-.078 1.25-.64v.171c0 .25.048.375.376.375h.297c.312 0 .39-.11.39-.375Zm-1.094-.86c0 .75-.75.75-.78.75-.329 0-.548-.28-.548-.593 0-.781 1.11-.828 1.329-.844Zm0 0"/></symbol><symbol overflow="visible" id="N"><path style="stroke:none" d="M6.422-.375v-2.219c0-.812-.344-1.14-1.156-1.14-.579 0-1.016.265-1.297.78-.125-.765-.813-.78-1.14-.78-.157 0-.485 0-.845.265-.25.172-.406.438-.468.547v-.39c0-.25-.063-.391-.391-.391H.859c-.28 0-.375.094-.375.39v2.938C.484-.094.563 0 .86 0h.313c.312 0 .39-.11.39-.375v-1.766c0-.718.485-1.015.875-1.015.391 0 .47.156.47.578v2.203c0 .281.093.375.39.375h.312C3.906 0 4-.11 4-.375v-1.766c0-.718.484-1.015.875-1.015.375 0 .469.156.469.578v2.203c0 .281.078.375.375.375h.328c.297 0 .375-.11.375-.375Zm0 0"/></symbol><symbol overflow="visible" id="O"><path style="stroke:none" d="M2.969-.375c0-.016-.016-.078-.063-.25-.031-.156-.047-.203-.125-.203-.047 0-.047 0-.094.062-.093.063-.312.235-.64.235-.188 0-.313-.14-.313-.656v-1.891h.72c.093 0 .374 0 .374-.281 0-.297-.281-.297-.375-.297h-.719v-.656c0-.25-.046-.375-.375-.375h-.25c-.28 0-.39.078-.39.375v.656H.547c-.094 0-.39 0-.39.297 0 .28.296.28.39.28h.156v2.017c0 .812.281 1.156.828 1.156.078 0 .422 0 .844-.14.14-.032.594-.173.594-.329Zm0 0"/></symbol><symbol overflow="visible" id="P"><path style="stroke:none" d="M5.594-.375v-4.766c0-.265-.063-.39-.375-.39H5c-.313 0-.39.11-.39.39v4.172l-2.188-4.25c-.172-.312-.406-.312-.578-.312h-.735c-.28 0-.39.093-.39.39v4.766c0 .281.094.375.39.375h.22c.296 0 .374-.11.374-.375v-4.188h.016l2.187 4.25C4.078 0 4.312 0 4.47 0h.75c.297 0 .375-.11.375-.375Zm0 0"/></symbol><symbol overflow="visible" id="Q"><path style="stroke:none" d="M4.125-1.797c0-1.297-.64-1.984-1.938-1.984C.86-3.781.25-3.078.25-1.797.25-.5.938.093 2.188.093s1.937-.577 1.937-1.89ZM3.047-1.89c0 .625 0 1.36-.86 1.36-.859 0-.859-.719-.859-1.36 0-.609 0-1.328.86-1.328.859 0 .859.703.859 1.328Zm0 0"/></symbol><symbol overflow="visible" id="R"><path style="stroke:none" d="M2.438-1.828c0-.281-.297-.281-.391-.281H.484c-.109 0-.39 0-.39.28 0 .298.281.298.39.298h1.563c.094 0 .39 0 .39-.297Zm0 0"/></symbol><symbol overflow="visible" id="S"><path style="stroke:none" d="M4.375-1.594c0-.89-.656-1.562-1.453-1.75l-.766-.172c-.187-.03-.672-.218-.672-.671 0-.688.672-.704.954-.704.437 0 .843.11 1.234.485.125.125.125.14.156.14.047 0 .094-.03.11-.156l.124-.687c.016-.063.016-.079.016-.11 0-.062 0-.062-.203-.172-.563-.28-1.031-.312-1.438-.312-.718 0-1.953.172-1.953 1.656 0 .563.297.938.454 1.094.406.406.78.484 1.39.64.453.094.625.141.797.297.094.079.25.25.25.547 0 .75-.688.782-.938.782a2.482 2.482 0 0 1-1.656-.641c-.094-.094-.11-.094-.14-.094-.047 0-.094.031-.11.14l-.125.704C.391-.516.391-.5.391-.484c0 .171.828.453.875.468a3.75 3.75 0 0 0 1.171.188c1.188 0 1.938-.531 1.938-1.766Zm0 0"/></symbol><symbol overflow="visible" id="T"><path style="stroke:none" d="M2.844-3.14v-.376c0-.171 0-.218-.156-.218-.22 0-.797.078-1.172.937H1.5v-.515c0-.25-.047-.391-.375-.391h-.25c-.297 0-.39.094-.39.39v2.938c0 .281.093.375.39.375h.281c.313 0 .39-.11.39-.375v-1.453c0-.766.626-1.078 1.126-1.11.156 0 .172 0 .172-.203Zm0 0"/></symbol><symbol overflow="visible" id="U"><path style="stroke:none" d="M3.516-.297c0-.297-.25-.297-.485-.297l-1.219.016h-.359l1.938-2.469c.078-.094.093-.14.093-.265 0-.344-.234-.344-.375-.344H.75c-.11 0-.39 0-.39.312 0 .297.265.297.484.297l1.14-.015h.297L.344-.61C.266-.5.25-.47.25-.33.25 0 .5 0 .625 0h2.5c.11 0 .39 0 .39-.297Zm0 0"/></symbol><symbol overflow="visible" id="V"><path style="stroke:none" d="M3.984-.375v-2.89c0-.25-.062-.391-.375-.391h-.328c-.297 0-.375.11-.375.39v1.891c0 .516-.281.984-.844.984-.453 0-.5-.125-.5-.546v-2.329c0-.25-.062-.39-.39-.39H.859c-.28 0-.375.094-.375.39V-1C.484-.156.938.094 1.766.094c.218 0 .78 0 1.156-.688v.219c0 .25.062.375.39.375h.297c.297 0 .375-.11.375-.375Zm0 0"/></symbol><symbol overflow="visible" id="W"><path style="stroke:none" d="M4.25-3.234c0-.032-.031-.22-.047-.297-.031-.188-.031-.203-.172-.203-.25 0-.656.093-.953.28-.375-.25-.797-.28-1.14-.28-.329 0-1.594 0-1.594 1.312 0 .313.094.719.39.985-.218.296-.218.593-.218.64 0 .156.046.422.218.625-.125.047-.53.203-.53.703 0 .25.109.656.624.89.453.22.985.22 1.36.22.468 0 1.984 0 1.984-1.125 0-1.25-1.125-1.25-2.203-1.25h-.375c-.282 0-.407 0-.516-.094-.031-.031-.156-.156-.156-.36 0-.062 0-.078.015-.125.375.22.844.22 1 .22.344 0 1.61 0 1.61-1.329 0-.453-.172-.734-.25-.828.14 0 .422 0 .75.094a.29.29 0 0 0 .11.031c.062 0 .093-.047.093-.11Zm-1.719.812c0 .438-.031.75-.594.75-.546 0-.578-.297-.578-.75 0-.437.032-.734.579-.734.562 0 .593.297.593.734ZM3.36.531c0 .531-.906.531-1.171.531-.313 0-1.172 0-1.172-.546 0-.375.25-.375.437-.375h.922c.64 0 .984.109.984.39Zm0 0"/></symbol><symbol overflow="visible" id="X"><path style="stroke:none" d="M3.984-.375v-2.219c0-.812-.343-1.14-1.156-1.14-.844 0-1.203.609-1.312.812v-.39c0-.25-.063-.391-.391-.391H.859c-.28 0-.375.094-.375.39v2.938C.484-.094.563 0 .86 0h.313c.312 0 .39-.11.39-.375v-1.766c0-.703.47-1.015.875-1.015.391 0 .47.172.47.578v2.203c0 .25.046.375.374.375h.328c.297 0 .375-.11.375-.375Zm0 0"/></symbol><symbol overflow="visible" id="Y"><path style="stroke:none" d="M1.547-.375v-2.89c0-.25-.063-.391-.39-.391H.874c-.297 0-.39.094-.39.39v2.891c0 .281.093.375.39.375h.281c.313 0 .39-.11.39-.375Zm.062-4.453v-.156c0-.25-.062-.375-.39-.375H.812c-.296 0-.375.093-.375.375v.156c0 .234.032.375.376.375h.406c.328 0 .39-.14.39-.375Zm0 0"/></symbol><symbol overflow="visible" id="Z"><path style="stroke:none" d="M5.11-3.813c0-1.203-.782-1.718-2.016-1.718H1.109c-.28 0-.39.093-.39.39v4.766c0 .281.094.375.39.375h.407c.296 0 .375-.11.375-.375v-1.766h1.218c1.25 0 2-.515 2-1.671Zm-1.11 0c0 .532-.094 1.047-1.156 1.047h-.969v-2.078h.984C3.891-4.844 4-4.359 4-3.812Zm0 0"/></symbol><symbol overflow="visible" id="aa"><path style="stroke:none" d="M1.734-.219v-.61c0-.202 0-.218-.218-.218h-.61c-.203 0-.219.016-.219.219v.61C.688-.017.704 0 .97 0l-.14.375C.78.5.702.735.702.735c0 .109.078.109.203.109H1c.156 0 .172 0 .25-.14l.422-.657c.062-.11.062-.125.062-.266Zm0 0"/></symbol><symbol overflow="visible" id="ab"><path style="stroke:none" d="M7.063-.375v-4.766c0-.265-.063-.39-.391-.39h-.656c-.204 0-.407.015-.547.343L4.422-2.608c-.172.406-.469 1.14-.531 1.421-.079-.28-.407-1.078-.563-1.5L2.297-5.203c-.125-.328-.39-.328-.531-.328h-.657c-.28 0-.39.093-.39.39v4.766c0 .281.094.375.39.375h.22c.296 0 .374-.11.374-.375V-4.5h.016c.078.36.437 1.234.625 1.719L3.28-.516c.14.344.328.344.594.344.281 0 .469 0 .61-.344l1.015-2.5c.094-.203.516-1.28.578-1.484v4.125c0 .25.063.375.39.375h.204c.312 0 .39-.11.39-.375Zm0 0"/></symbol><symbol overflow="visible" id="ac"><path style="stroke:none" d="M1.547-.375v-4.766c0-.265-.063-.39-.39-.39H.874c-.297 0-.39.093-.39.39v4.766c0 .281.093.375.39.375h.281c.313 0 .39-.11.39-.375Zm0 0"/></symbol><symbol overflow="visible" id="ad"><path style="stroke:none" d="M3.969-.375v-4.766c0-.265-.047-.39-.375-.39h-.297c-.297 0-.375.11-.375.39v1.797a1.423 1.423 0 0 0-1.016-.39c-1.61 0-1.61 1.53-1.61 1.921 0 .36 0 1.907 1.579 1.907.328 0 .672-.11 1.016-.469C2.89-.078 3 0 3.28 0h.313c.297 0 .375-.11.375-.375ZM2.89-1c0 .14 0 .219-.235.375a.847.847 0 0 1-.469.14c-.812 0-.812-.734-.812-1.328 0-.609 0-1.343.89-1.343.235 0 .454.078.626.234Zm0 0"/></symbol><symbol overflow="visible" id="ae"><path style="stroke:none" d="m5.594-.234-2.235-3 2.094-1.97c.094-.077.094-.124.094-.155 0-.172-.156-.172-.266-.172h-.484c-.14 0-.297 0-.469.156L1.766-2.953v-2.188c0-.265-.063-.39-.391-.39h-.266c-.28 0-.39.093-.39.39v4.766c0 .281.094.375.39.375h.266c.313 0 .39-.11.39-.375v-1.344l.876-.843 1.796 2.39C4.563 0 4.673 0 4.829 0h.484c.157 0 .282 0 .282-.234Zm0 0"/></symbol><symbol overflow="visible" id="af"><path style="stroke:none" d="M5.734-3.422c-.03-.234-.171-.234-.421-.234-.375 0-.47.031-.579.437l-.64 2.313-.688-2.39c-.047-.173-.094-.36-.469-.36-.109 0-.296 0-.406.187-.078.125-.422 1.5-.703 2.438l-.64-2.266c-.079-.265-.172-.36-.5-.36H.53c-.156 0-.312 0-.344.235l.844 3.063c.11.359.313.359.516.359h.219c.375 0 .437-.125.53-.438.188-.656.47-1.671.5-2.078l.017-.015c.046.453.39 1.719.5 2.094.078.28.124.437.515.437h.547c.344 0 .422-.094.5-.36Zm0 0"/></symbol><symbol overflow="visible" id="ag"><path style="stroke:none" d="M2.922 1.89c0-.03 0-.046-.094-.14-.515-.625-1.062-1.594-1.062-3.734 0-2.344.671-3.282 1.109-3.797.031-.047.047-.063.047-.094 0-.094-.094-.094-.219-.094h-.14c-.141 0-.157 0-.313.125-.953.797-1.563 2.157-1.563 3.86 0 .953.204 2.625 1.532 3.828.156.14.187.14.344.14h.14c.125 0 .219 0 .219-.093Zm0 0"/></symbol><symbol overflow="visible" id="ah"><path style="stroke:none" d="M1.734-.219v-.61c0-.202 0-.218-.218-.218h-.61c-.203 0-.219.016-.219.219v.61c0 .202.016.218.22.218h.609c.218 0 .218-.016.218-.219Zm0 0"/></symbol><symbol overflow="visible" id="ai"><path style="stroke:none" d="M3.953-.172s0-.078-.078-.172L2.5-2.172l1.219-1.14c.094-.079.125-.11.125-.172 0-.172-.156-.172-.281-.172h-.454c-.14 0-.296 0-.484.172l-1.14 1.062V-5.14c0-.265-.063-.39-.391-.39H.937c-.296 0-.39.093-.39.39v4.766c0 .281.094.375.39.375h.141c.297 0 .375-.11.375-.375v-.844l.375-.328L2.875-.203C3-.031 3.063 0 3.297 0h.375c.11 0 .281 0 .281-.172Zm0 0"/></symbol><symbol overflow="visible" id="aj"><path style="stroke:none" d="M8.078-5.297c0-.234-.219-.234-.328-.234h-.156c-.172 0-.39 0-.485.36l-.843 3.124c-.11.406-.188.672-.25 1.031H6c-.047-.218-.047-.234-.234-.937l-.86-3.219c-.078-.312-.25-.36-.468-.36h-.532c-.172 0-.39 0-.484.36l-.703 2.61-.203.78c-.079.376-.157.641-.172.766-.063-.421-.25-1.125-.39-1.625l-.688-2.546c-.094-.344-.329-.344-.485-.344H.516c-.11 0-.329 0-.329.234 0 0 0 .031.032.156L1.53-.328C1.625 0 1.844 0 2.016 0h.515c.172 0 .39 0 .485-.36l.843-3.124c.11-.422.172-.657.25-1.032h.016c.094.454.14.657.281 1.172L5.22-.328C5.312 0 5.53 0 5.687 0h.579c.171 0 .39 0 .468-.328l1.313-4.813c.031-.125.031-.156.031-.156Zm0 0"/></symbol><symbol overflow="visible" id="ak"><path style="stroke:none" d="M3.984-.375v-2.219c0-.812-.343-1.14-1.156-1.14-.797 0-1.172.546-1.281.765H1.53V-5.14c0-.265-.047-.39-.375-.39H.86c-.28 0-.375.093-.375.39v4.766C.484-.094.563 0 .86 0h.313c.312 0 .39-.11.39-.375v-1.766c0-.703.47-1.015.875-1.015.391 0 .47.172.47.578v2.203c0 .25.046.375.374.375h.328c.297 0 .375-.11.375-.375Zm0 0"/></symbol><symbol overflow="visible" id="al"><path style="stroke:none" d="M2.719-1.984c0-.97-.203-2.641-1.531-3.844-.172-.14-.188-.14-.344-.14h-.14c-.126 0-.22 0-.22.093 0 .031 0 .047.094.14.5.626 1.063 1.594 1.063 3.75C1.64.345.969 1.266.53 1.798c-.047.062-.047.094-.047.094 0 .093.094.093.22.093h.14c.14 0 .156 0 .297-.125.968-.796 1.578-2.156 1.578-3.843Zm0 0"/></symbol><symbol overflow="visible" id="aH"><path style="stroke:none" d="M3.938-1.766c0-1.046-.438-1.828-1.657-1.828-.203 0-.39.031-.578.11v-1.25h1.563c.375 0 .375-.188.375-.391 0-.219 0-.406-.375-.406h-2.22c-.265 0-.39.047-.39.375v2.437c0 .36.188.36.406.36.204 0 .282 0 .391-.188.188-.312.453-.469.797-.469.516 0 .516.594.516 1.22 0 .624 0 1.218-.844 1.218-.234 0-.781-.063-1.094-.703-.031-.047-.062-.094-.11-.094-.062 0-.077.047-.124.11-.11.187-.297.452-.297.515s.516.922 1.656.922c1.281 0 1.984-.64 1.984-1.938Zm0 0"/></symbol><symbol overflow="visible" id="aI"><path style="stroke:none" d="M4.016-1.625c0-.703-.391-1.203-1.11-1.375.64-.36.86-.875.86-1.328 0-1.281-1.141-1.375-1.657-1.375-1.093 0-1.625.781-1.625.844 0 .046.063.125.063.125l.219.312c.062.094.125.094.125.094.046 0 .062-.031.109-.094C1.406-5 1.969-5 2.078-5c.5 0 .578.266.578.656 0 .11 0 .5-.25.797-.187.219-.39.235-.625.25-.093.016-.25.016-.265.031-.063.032-.063.079-.063.204v.14c0 .219.016.219.219.219h.36c.718 0 .812.453.812 1.062 0 .547-.063 1.063-.781 1.063-.266 0-.844-.047-1.391-.547-.063-.078-.078-.094-.11-.094-.078 0-.093.078-.093.094 0 0-.11.516-.11.547 0 .11.688.75 1.735.75 1.375 0 1.922-.734 1.922-1.797Zm0 0"/></symbol><symbol overflow="visible" id="aJ"><path style="stroke:none" d="M4.016-5.125c0-.188 0-.39-.344-.406H.906c-.375 0-.547 0-.547.375v.11c0 .124 0 .28.172.343.063.031.328.031.485.031h1.906C1.14-2.703 1.14-.703 1.14-.297c0 .25.046.39.375.39h.375c.125 0 .375 0 .375-.312.03-1.984.718-3.422 1.671-4.625.079-.078.079-.14.079-.281Zm0 0"/></symbol><symbol overflow="visible" id="aK"><path style="stroke:none" d="M3.89-5.64a.334.334 0 0 0-.343-.329c-.219 0-.297.188-.328.266L.53 1.469c-.047.125-.047.14-.047.187 0 .172.141.328.344.328.219 0 .297-.187.328-.265l2.688-7.172c.047-.125.047-.14.047-.188Zm0 0"/></symbol><symbol overflow="visible" id="aL"><path style="stroke:none" d="M3.766-3.422c0-.234-.204-.234-.313-.234h-.172c-.328 0-.422.125-.5.344L2-.906l-.781-2.406c-.063-.157-.125-.344-.5-.344H.53c-.125 0-.328 0-.328.234 0 .016 0 .031.047.14l.938 2.954C1.313 0 1.546 0 1.703 0h.578c.14 0 .39 0 .5-.328l.953-2.953c.032-.11.032-.125.032-.14Zm0 0"/></symbol><symbol overflow="visible" id="aR"><path style="stroke:none" d="M3.938-.375v-.11c0-.124 0-.265-.172-.343-.047-.031-.313-.031-.47-.031H1.47l1.047-.985c.125-.11.421-.36.546-.468.438-.422.876-.844.876-1.563 0-.969-.704-1.828-1.876-1.828-.28 0-.734.031-1.109.344-.078.062-.437.343-.594.875l.407.515c.046.063.078.094.125.094.078 0 .093-.047.109-.156.156-.547.438-.875.938-.875.625 0 .89.562.89 1.047 0 .515-.312 1.046-.781 1.562L.516-.672c-.079.078-.079.094-.079.219v.078c0 .281.094.375.391.375h2.719c.312 0 .39-.11.39-.375Zm0 0"/></symbol><symbol overflow="visible" id="aS"><path style="stroke:none" d="M4.031-2.734c0-1.094 0-2.97-1.843-2.97-1.844 0-1.844 1.86-1.844 2.97 0 1.093 0 2.906 1.844 2.906C4.03.172 4.03-1.625 4.03-2.734Zm-1.078-.11c0 .453 0 1.078-.062 1.516-.016.203-.11.937-.704.937-.593 0-.687-.734-.703-.953-.062-.422-.062-1.172-.062-1.5 0-.469 0-.984.047-1.375.031-.218.11-.906.718-.906.579 0 .688.656.704.828.062.406.062 1.031.062 1.453Zm0 0"/></symbol><symbol overflow="visible" id="aU"><path style="stroke:none" d="M3.766-.281c0-.297-.297-.297-.375-.297h-.563v-4.75c0-.14 0-.375-.344-.375-.171 0-.203.016-.296.11-.141.124-.438.421-1.235.437-.14 0-.344.062-.344.281 0 .297.282.297.375.297a3 3 0 0 0 .75-.11v4.11H1.11c-.093 0-.375 0-.375.297C.734 0 1.016 0 1.11 0h2.282c.078 0 .375 0 .375-.281Zm0 0"/></symbol><symbol overflow="visible" id="aV"><path style="stroke:none" d="M4.016-1.625c0-.719-.344-1.172-.985-1.36.766-.25.86-.812.86-1.171 0-1.172-.75-1.547-1.704-1.547-.859 0-1.703.312-1.703 1.547 0 .422.141.937.86 1.172-.813.234-.985.859-.985 1.359 0 1.25.672 1.797 1.829 1.797 1.203 0 1.828-.594 1.828-1.797ZM2.875-4.141c0 .454-.016.86-.688.86-.671 0-.687-.39-.687-.86 0-.546.047-.859.688-.859.624 0 .687.297.687.86Zm.031 2.5c0 .61-.015 1.063-.719 1.063-.703 0-.718-.438-.718-1.063 0-.515 0-1.062.718-1.062.72 0 .72.547.72 1.062Zm0 0"/></symbol><symbol overflow="visible" id="aW"><path style="stroke:none" d="M4.125-1.594c0-.297-.094-.375-.375-.375h-.344V-5.14c0-.296-.078-.39-.375-.39h-.578c-.156 0-.281 0-.375.187L.313-2.094c-.063.125-.063.156-.063.297v.188c0 .265.047.39.375.39h1.797v.844c0 .25.062.375.39.375h.22c.296 0 .374-.11.374-.375v-.844h.344c.25 0 .375-.062.375-.375Zm-1.656-.375h-1.39c1.265-2.343 1.343-2.593 1.39-2.718Zm0 0"/></symbol><symbol overflow="visible" id="bd"><path style="stroke:none" d="M4.016-1.875c0-.453 0-1.938-1.563-1.938-.437 0-.75.25-.969.704.032-.72.047-.891.172-1.204.219-.609.75-.687 1.032-.687.14 0 .343.031.546.125.047.047.079.063.11.063.094 0 .094-.094.094-.22v-.296c0-.188 0-.188-.282-.297-.203-.078-.422-.078-.5-.078-2.297 0-2.297 2.297-2.297 3 0 .812 0 2.875 1.86 2.875.625 0 1-.14 1.328-.516.406-.469.469-.922.469-1.531ZM2.89-1.891c0 .782 0 1.313-.672 1.313-.64 0-.719-.719-.719-1.39 0-.673.188-1.282.75-1.282.64 0 .64.578.64 1.36Zm0 0"/></symbol><symbol overflow="visible" id="bh"><path style="stroke:none" d="M4.016-2.844c0-.844-.016-2.86-1.829-2.86-.484 0-1.015.079-1.437.595-.328.437-.39.843-.39 1.453 0 .5.015.953.359 1.406.328.422.687.531 1.203.531.594 0 .86-.468.969-.718 0 .078 0 .234-.016.578-.047.484-.188 1.28-1.063 1.28a.973.973 0 0 1-.703-.265c-.03-.047-.062-.062-.093-.062-.063 0-.079.047-.125.11-.157.25-.266.437-.266.484 0 .062.422.484 1.203.484 2.188 0 2.188-2.297 2.188-3.016ZM2.89-3.547c0 .11 0 1.266-.766 1.266-.64 0-.64-.578-.64-1.375 0-.766 0-1.344.718-1.344.547 0 .688.625.688 1.453Zm0 0"/></symbol><symbol overflow="visible" id="ay"><path style="stroke:none" d="M5.86-.266 4.327-2.875C4.891-3 5.75-3.344 5.75-4.453c0-1.766-1.953-1.766-2.344-1.766H1.25c-.328 0-.438.094-.438.422v5.36c0 .328.11.437.438.437h.422c.344 0 .437-.11.437-.438v-2.359h1L4.58-.219C4.702 0 4.796 0 5 0h.531c.172 0 .328 0 .328-.266ZM4.5-4.453c0 .531-.125 1.016-1.219 1.016H2.11v-2.016h1.172c1.031 0 1.219.406 1.219 1Zm0 0"/></symbol><symbol overflow="visible" id="az"><path style="stroke:none" d="M4.297-2.328c0-1.156-.531-1.938-1.875-1.938-1.438 0-2.14.813-2.14 2.172 0 1.469.843 2.188 2.25 2.188.343 0 .859-.047 1.452-.328.188-.11.266-.141.266-.235 0-.062-.031-.328-.047-.406-.031-.266-.047-.281-.125-.281-.031 0-.047 0-.156.093a2.025 2.025 0 0 1-1.344.516c-1.015 0-1.125-.797-1.156-1.375h2.437c.22 0 .438 0 .438-.406Zm-1-.063h-1.86c.032-.546.204-1.218.985-1.218.719 0 .86.515.875 1.218Zm0 0"/></symbol><symbol overflow="visible" id="aA"><path style="stroke:none" d="M4.797-3.625c0-.047-.047-.266-.063-.344-.046-.219-.046-.234-.203-.234-.281 0-.734.11-1.062.312-.422-.28-.89-.312-1.281-.312-.376 0-1.797 0-1.797 1.484 0 .344.093.797.437 1.094-.25.328-.25.688-.25.734 0 .172.063.454.25.704-.14.046-.61.218-.61.78 0 .282.141.75.704 1.016.515.235 1.11.235 1.531.235.531 0 2.25 0 2.25-1.266 0-1.406-1.266-1.406-2.484-1.406h-.422c-.328 0-.453 0-.578-.11-.032-.03-.188-.171-.188-.406 0-.062.016-.078.016-.125.422.235.953.235 1.14.235.376 0 1.797 0 1.797-1.485 0-.515-.187-.828-.265-.937.14 0 .453 0 .828.11a.368.368 0 0 0 .125.03c.078 0 .125-.046.125-.109Zm-1.953.906c0 .485-.031.828-.656.828-.626 0-.657-.328-.657-.828 0-.484.032-.844.657-.844.624 0 .656.344.656.844ZM3.78.594c0 .61-1.031.61-1.312.61-.36 0-1.328 0-1.328-.626 0-.422.28-.422.484-.422h1.047c.734 0 1.11.125 1.11.438Zm0 0"/></symbol><symbol overflow="visible" id="aB"><path style="stroke:none" d="M4.484-.438v-2.484c0-.922-.39-1.281-1.312-1.281-.938 0-1.344.672-1.453.922h-.016v-.453c0-.282-.062-.422-.422-.422H.97c-.328 0-.438.093-.438.422v3.296c0 .329.11.438.438.438h.36c.343 0 .437-.11.437-.438v-1.968c0-.781.515-1.156.984-1.156.422 0 .516.203.516.671v2.454c0 .296.062.437.421.437h.36c.344 0 .437-.11.437-.438Zm0 0"/></symbol><symbol overflow="visible" id="aC"><path style="stroke:none" d="M3.188-3.547v-.422c0-.172 0-.234-.157-.234-.25 0-.906.094-1.328 1.062h-.016v-.593c0-.282-.062-.422-.421-.422H.984c-.328 0-.437.093-.437.422v3.296C.547-.108.64 0 .984 0h.329c.343 0 .421-.11.421-.438v-1.625c0-.859.72-1.203 1.282-1.234.156-.015.171-.015.171-.25Zm0 0"/></symbol><symbol overflow="visible" id="aD"><path style="stroke:none" d="M4.25-.438v-2.39c0-1.422-1.36-1.438-1.813-1.438-.421 0-.874.047-1.468.297-.188.078-.235.11-.235.203 0 .063.063.579.063.657a.136.136 0 0 0 .125.093c.031 0 .062-.03.094-.046.39-.407.828-.61 1.39-.61.485 0 .625.297.625.828v.313c-.312 0-2.656.015-2.656 1.344 0 .625.5 1.28 1.281 1.28.313 0 .985-.077 1.407-.702v.171c0 .297.062.438.421.438h.344c.328 0 .422-.11.422-.438Zm-1.219-.937c0 .828-.86.828-.875.828-.375 0-.625-.328-.625-.656 0-.89 1.25-.953 1.5-.953Zm0 0"/></symbol><symbol overflow="visible" id="aE"><path style="stroke:none" d="M3.344-.422c0-.031-.016-.094-.063-.281-.047-.172-.078-.235-.156-.235-.047 0-.047.016-.11.063-.093.078-.328.281-.703.281-.218 0-.359-.156-.359-.75v-2.125h.797c.11 0 .438 0 .438-.312 0-.328-.329-.328-.438-.328h-.797v-.75c0-.282-.062-.422-.422-.422H1.25c-.328 0-.438.093-.438.422v.75H.61c-.093 0-.437 0-.437.328 0 .312.328.312.437.312h.188v2.281c0 .907.312 1.282.937 1.282.079 0 .47 0 .938-.14.156-.048.672-.204.672-.376Zm0 0"/></symbol><symbol overflow="visible" id="aF"><path style="stroke:none" d="M1.734-.438v-3.234c0-.297-.062-.437-.421-.437H.984c-.328 0-.437.093-.437.437v3.235C.547-.11.64 0 .984 0h.329c.343 0 .421-.11.421-.438Zm.063-5v-.171c0-.282-.063-.422-.422-.422H.922c-.344 0-.438.11-.438.422v.171c0 .266.047.438.438.438h.453c.375 0 .422-.172.422-.438Zm0 0"/></symbol><symbol overflow="visible" id="aG"><path style="stroke:none" d="M4.25-3.86c0-.25-.234-.25-.36-.25h-.203c-.374 0-.468.141-.546.391L2.25-1.016l-.89-2.703c-.063-.187-.126-.39-.548-.39H.595c-.14 0-.36 0-.36.25 0 .03 0 .046.047.171L1.344-.374C1.469 0 1.75 0 1.906 0h.657C2.719 0 3 0 3.125-.375l1.078-3.313c.047-.124.047-.14.047-.171Zm0 0"/></symbol><symbol overflow="visible" id="aM"><path style="stroke:none" d="M9.094-5.969c0-.25-.235-.25-.36-.25h-.203c-.172 0-.422 0-.531.39l-.953 3.532c-.125.453-.203.75-.281 1.156H6.75c-.047-.25-.047-.265-.25-1.062l-.969-3.625c-.11-.344-.281-.39-.547-.39h-.593c-.188 0-.438 0-.547.39l-.781 2.937L2.828-2c-.094.422-.172.703-.187.86-.079-.47-.297-1.266-.438-1.829l-.781-2.875c-.11-.375-.36-.375-.531-.375H.578c-.125 0-.36 0-.36.25 0 0 0 .047.032.172L1.719-.375c.11.375.36.375.547.375h.593c.188 0 .438 0 .547-.406l.938-3.516c.125-.484.187-.734.281-1.156h.016c.109.516.156.734.312 1.312l.922 3.391C5.969 0 6.219 0 6.406 0h.64c.188 0 .438 0 .548-.375l1.468-5.422c.032-.125.032-.172.032-.172Zm0 0"/></symbol><symbol overflow="visible" id="aN"><path style="stroke:none" d="M4.469-.438v-5.359c0-.281-.063-.422-.422-.422h-.328c-.344 0-.438.11-.438.422v2.031a1.617 1.617 0 0 0-1.125-.437C.328-4.203.328-2.484.328-2.047c0 .422 0 2.14 1.781 2.14.375 0 .766-.109 1.141-.515 0 .328.125.422.438.422h.359c.344 0 .422-.11.422-.438ZM3.25-1.125c0 .156 0 .234-.25.422-.234.14-.438.156-.547.156-.906 0-.906-.828-.906-1.5s0-1.515 1.016-1.515c.25 0 .5.093.687.28Zm0 0"/></symbol><symbol overflow="visible" id="aO"><path style="stroke:none" d="M4.64-1.797c0-.328-.109-.422-.421-.422h-.375v-3.578c0-.312-.11-.422-.438-.422H2.75c-.172 0-.297 0-.406.203l-2 3.672C.28-2.219.28-2.188.28-2.03v.234c0 .281.063.422.422.422H2.72v.938c0 .296.078.437.437.437h.25c.344 0 .438-.11.438-.438v-.937h.375c.281 0 .422-.063.422-.422Zm-1.859-.422H1.203C2.641-4.859 2.72-5.125 2.766-5.28h.015Zm0 0"/></symbol><symbol overflow="visible" id="aP"><path style="stroke:none" d="M1.953-.234v-.704c0-.234 0-.234-.234-.234h-.703c-.22 0-.235 0-.235.234v.704c0 .218.016.234.297.234-.047.14-.094.281-.14.438-.063.124-.141.39-.141.39 0 .125.078.125.219.125h.109c.188 0 .188-.015.281-.156l.469-.75c.078-.125.078-.14.078-.281Zm0 0"/></symbol><symbol overflow="visible" id="aQ"><path style="stroke:none" d="M3.781-4.922c0-.75-.203-1.812-1.61-1.812-1.046 0-1.624.593-1.624 1.812 0 .828.265 1.813 1.625 1.813 1.234 0 1.61-.829 1.61-1.813Zm3.656-1.422a.383.383 0 0 0-.375-.39c-.187 0-.28.14-.328.203L1.922-.156c-.063.093-.125.156-.125.281A.38.38 0 0 0 2.172.5c.203 0 .297-.125.344-.188l4.828-6.39c.093-.14.093-.25.093-.266Zm1.235 5.047c0-.75-.203-1.812-1.61-1.812-1.046 0-1.625.593-1.625 1.796C5.438-.469 5.704.5 7.063.5c1.235 0 1.61-.828 1.61-1.797ZM2.766-4.922c0 .297 0 1.156-.594 1.156-.547 0-.547-.609-.547-1.156 0-.547 0-1.156.547-1.156.594 0 .594.875.594 1.156Zm4.89 3.61c0 .296 0 1.171-.593 1.171-.547 0-.547-.609-.547-1.171 0-.547 0-1.157.546-1.157.594 0 .594.875.594 1.156Zm0 0"/></symbol><symbol overflow="visible" id="aT"><path style="stroke:none" d="m6.281-.266-2.5-3.359 2.36-2.219c.109-.11.109-.156.109-.187 0-.188-.188-.188-.313-.188h-.546c-.157 0-.329 0-.516.172l-2.89 2.734v-2.484c0-.281-.063-.422-.438-.422H1.25c-.328 0-.438.094-.438.422v5.36c0 .328.11.437.438.437h.297c.344 0 .437-.11.437-.438v-1.5l1-.937 2 2.688C5.125 0 5.266 0 5.438 0h.53c.188 0 .313 0 .313-.266Zm0 0"/></symbol><symbol overflow="visible" id="aX"><path style="stroke:none" d="M6.016-1.734c0-1.266-1.25-1.47-1.579-1.516.829-.188 1.297-.656 1.297-1.36 0-1.609-1.906-1.609-2.28-1.609H1.25c-.328 0-.438.094-.438.422v5.36c0 .328.11.437.438.437h2.453c.672 0 2.313-.11 2.313-1.734Zm-1.5-2.844c0 1.016-1.172 1.016-1.391 1.016H2.078v-1.891h1.047c.36 0 1.39.031 1.39.875Zm.25 2.812c0 .938-.954 1-1.391 1H2.078v-2.156h1.125c.328 0 1.563 0 1.563 1.156Zm0 0"/></symbol><symbol overflow="visible" id="aY"><path style="stroke:none" d="M4.484-.438v-3.234c0-.297-.062-.437-.437-.437h-.36c-.328 0-.421.125-.421.437v2.125c0 .594-.313 1.094-.954 1.094-.5 0-.546-.125-.546-.594v-2.625c0-.297-.079-.437-.438-.437h-.36c-.327 0-.437.093-.437.437v2.547c0 .953.531 1.219 1.453 1.219.25 0 .891 0 1.313-.75v.219c0 .296.062.437.422.437h.328c.344 0 .437-.11.437-.438Zm0 0"/></symbol><symbol overflow="visible" id="aZ"><path style="stroke:none" d="M4.453-.203s0-.078-.078-.188L2.812-2.437 4.188-3.72c.109-.11.14-.125.14-.203 0-.187-.187-.187-.312-.187H3.5c-.156 0-.328 0-.547.187L1.672-2.719v-3.078c0-.281-.063-.422-.438-.422h-.187c-.328 0-.422.094-.422.422v5.36c0 .328.094.437.422.437h.156c.344 0 .438-.11.438-.438v-.921c.14-.125.28-.266.421-.391L3.234-.219c.141.188.204.219.47.219h.437c.125 0 .312 0 .312-.203Zm0 0"/></symbol><symbol overflow="visible" id="ba"><path style="stroke:none" d="M4.64-2.016c0-1.468-.718-2.25-2.171-2.25-1.5 0-2.188.797-2.188 2.25 0 1.454.766 2.11 2.172 2.11 1.406 0 2.188-.64 2.188-2.11Zm-1.218-.109c0 .703 0 1.531-.953 1.531-.969 0-.969-.812-.969-1.531 0-.688 0-1.484.953-1.484.969 0 .969.78.969 1.484Zm0 0"/></symbol><symbol overflow="visible" id="bb"><path style="stroke:none" d="M4.484-.438v-2.484c0-.922-.39-1.281-1.312-1.281-.89 0-1.313.61-1.438.86v-2.454c0-.281-.062-.422-.437-.422H.969c-.328 0-.438.094-.438.422v5.36C.531-.11.641 0 .97 0h.36c.343 0 .437-.11.437-.438v-1.968c0-.781.515-1.156.984-1.156.422 0 .516.203.516.671v2.454c0 .296.062.437.421.437h.36c.344 0 .437-.11.437-.438Zm0 0"/></symbol><symbol overflow="visible" id="bc"><path style="stroke:none" d="M1.734-.438v-5.359c0-.281-.062-.422-.421-.422H.984c-.328 0-.437.094-.437.422v5.36C.547-.11.64 0 .984 0h.329c.343 0 .421-.11.421-.438Zm0 0"/></symbol><symbol overflow="visible" id="be"><path style="stroke:none" d="M4.922-1.797c0-1-.75-1.75-1.64-1.969l-.86-.187c-.203-.047-.75-.25-.75-.766 0-.765.766-.781 1.062-.781.5 0 .954.125 1.391.547.14.14.156.14.188.14.062 0 .093-.015.125-.156l.14-.781c.016-.078.016-.094.016-.11 0-.077-.016-.093-.235-.202a3.495 3.495 0 0 0-1.625-.36c-.796 0-2.187.188-2.187 1.86 0 .64.328 1.062.5 1.234.453.469.875.562 1.578.719.5.109.703.156.906.343.078.094.266.282.266.61 0 .843-.766.875-1.063.875a2.8 2.8 0 0 1-1.859-.703c-.11-.11-.125-.11-.156-.11-.063 0-.094.032-.125.157l-.14.78C.436-.577.436-.561.436-.53c0 .187.938.5.985.515a4.494 4.494 0 0 0 1.312.22c1.344 0 2.188-.61 2.188-2Zm0 0"/></symbol><symbol overflow="visible" id="bf"><path style="stroke:none" d="M5.344-.438v-.124c0-.422-.219-.422-.516-.422l-1.39.015-1.297.016v-1.844H4.5c.266 0 .422-.062.422-.406 0-.344-.11-.422-.422-.422H2.14v-1.672h.438l2.11.031c.312 0 .515 0 .515-.421v-.079c0-.28-.062-.437-.437-.437H1.25c-.328 0-.438.11-.438.437v5.329c0 .328.11.437.438.437h3.656c.344 0 .438-.11.438-.438Zm0 0"/></symbol><symbol overflow="visible" id="bg"><path style="stroke:none" d="M3.547-1.266c0-.5-.266-.812-.422-.953-.36-.328-.672-.375-1.047-.453-.5-.094-.86-.156-.86-.515 0-.36.298-.438.641-.438.61 0 .938.219 1.157.422.093.094.109.094.156.094.078 0 .11-.079.11-.125.015-.063.109-.563.109-.61 0-.14-.47-.265-.579-.312-.359-.094-.64-.11-.874-.11-.407 0-1.61 0-1.61 1.282 0 .453.203.718.438.937.312.281.671.344 1.187.438.25.046.703.125.703.53 0 .423-.344.485-.687.485-.407 0-.907-.125-1.328-.625-.047-.047-.063-.078-.125-.078-.079 0-.11.094-.11.14-.015.126-.125.641-.125.72 0 .171.672.39.672.39.485.14.86.14 1.016.14.453 0 1.578-.03 1.578-1.359Zm0 0"/></symbol><symbol overflow="visible" id="bi"><path style="stroke:none" d="M7.953-.438v-5.359c0-.281-.062-.422-.437-.422h-.75c-.235 0-.454.016-.61.375L4.984-2.937c-.187.468-.53 1.28-.593 1.593h-.016c-.078-.312-.453-1.203-.64-1.672L2.593-5.859c-.156-.36-.438-.36-.61-.36H1.25c-.328 0-.438.094-.438.422v5.36c0 .328.11.437.438.437h.234c.344 0 .438-.11.438-.438v-4.625c.11.407.516 1.391.719 1.922L3.687-.578c.157.375.376.375.688.375.297 0 .516 0 .672-.375l1.156-2.828c.078-.203.563-1.422.625-1.656h.016v4.625c0 .296.062.437.437.437h.235c.343 0 .437-.11.437-.438Zm0 0"/></symbol><symbol overflow="visible" id="bj"><path style="stroke:none" d="M4.64-2.016c0-1.468-.718-2.25-2.171-2.25-1.5 0-2.188.797-2.188 2.25 0 1.454.766 2.11 2.172 2.11 1.406 0 2.188-.64 2.188-2.11Zm-1.218-.109c0 .703 0 1.531-.953 1.531-.969 0-.969-.812-.969-1.531 0-.688 0-1.484.953-1.484.969 0 .969.78.969 1.484ZM1.969-5.438v-.156c0-.265-.047-.39-.375-.39h-.422c-.297 0-.375.109-.375.39v.157c0 .234.031.375.375.375h.422c.328 0 .375-.141.375-.375Zm2.172 0v-.156c0-.265-.047-.39-.375-.39h-.422c-.297 0-.39.109-.39.39v.157c0 .234.046.375.39.375h.422c.328 0 .375-.141.375-.375Zm0 0"/></symbol><symbol overflow="visible" id="bk"><path style="stroke:none" d="M4.688-2.078c0-.438 0-2.125-1.625-2.125-.532 0-1 .219-1.329.516 0-.329-.125-.422-.421-.422H.984c-.328 0-.437.093-.437.437v4.985c0 .312.094.421.437.421h.36c.328 0 .422-.109.422-.421V-.345c.406.438.89.438 1.03.438 1.892 0 1.892-1.719 1.892-2.172Zm-1.22.031c0 .36 0 1.5-1.015 1.5a.797.797 0 0 1-.469-.156c-.218-.156-.218-.188-.218-.36v-2.14c.093-.094.39-.297.78-.297.923 0 .923 1.047.923 1.453Zm0 0"/></symbol><clipPath id="am"><path d="M155 80h181v69H155Zm0 0"/></clipPath><clipPath id="an"><path d="M336.477 114.953c0-18.785-40.614-34.016-90.711-34.016-50.098 0-90.711 15.231-90.711 34.016 0 18.79 40.613 34.016 90.71 34.016 50.098 0 90.712-15.227 90.712-34.016Zm0 0"/></clipPath><linearGradient id="ao" gradientUnits="userSpaceOnUse" x1="25.003" y1="0" x2="74.997" y2="0" gradientTransform="matrix(3.62883 0 0 -1.36081 64.325 182.995)"><stop offset="0" style="stop-color:#000;stop-opacity:1"/><stop offset=".004" style="stop-color:#040404;stop-opacity:1"/><stop offset=".008" style="stop-color:#080808;stop-opacity:1"/><stop offset=".012" style="stop-color:#0d0d0d;stop-opacity:1"/><stop offset=".016" style="stop-color:#111;stop-opacity:1"/><stop offset=".02" style="stop-color:#151515;stop-opacity:1"/><stop offset=".023" style="stop-color:#191919;stop-opacity:1"/><stop offset=".027" style="stop-color:#1d1d1d;stop-opacity:1"/><stop offset=".031" style="stop-color:#212121;stop-opacity:1"/><stop offset=".035" style="stop-color:#252525;stop-opacity:1"/><stop offset=".039" style="stop-color:#2a2a2a;stop-opacity:1"/><stop offset=".043" style="stop-color:#2e2e2e;stop-opacity:1"/><stop offset=".047" style="stop-color:#323232;stop-opacity:1"/><stop offset=".051" style="stop-color:#363636;stop-opacity:1"/><stop offset=".055" style="stop-color:#3a3a3a;stop-opacity:1"/><stop offset=".059" style="stop-color:#3e3e3e;stop-opacity:1"/><stop offset=".063" style="stop-color:#424242;stop-opacity:1"/><stop offset=".066" style="stop-color:#474747;stop-opacity:1"/><stop offset=".07" style="stop-color:#4b4b4b;stop-opacity:1"/><stop offset=".074" style="stop-color:#4f4f4f;stop-opacity:1"/><stop offset=".078" style="stop-color:#535353;stop-opacity:1"/><stop offset=".082" style="stop-color:#575757;stop-opacity:1"/><stop offset=".086" style="stop-color:#5b5b5b;stop-opacity:1"/><stop offset=".09" style="stop-color:#606060;stop-opacity:1"/><stop offset=".094" style="stop-color:#646464;stop-opacity:1"/><stop offset=".098" style="stop-color:#686868;stop-opacity:1"/><stop offset=".102" style="stop-color:#6c6c6c;stop-opacity:1"/><stop offset=".105" style="stop-color:#707070;stop-opacity:1"/><stop offset=".109" style="stop-color:#747474;stop-opacity:1"/><stop offset=".113" style="stop-color:#787878;stop-opacity:1"/><stop offset=".117" style="stop-color:#7d7d7d;stop-opacity:1"/><stop offset=".121" style="stop-color:#818181;stop-opacity:1"/><stop offset=".125" style="stop-color:#858585;stop-opacity:1"/><stop offset=".129" style="stop-color:#898989;stop-opacity:1"/><stop offset=".133" style="stop-color:#8d8d8d;stop-opacity:1"/><stop offset=".137" style="stop-color:#919191;stop-opacity:1"/><stop offset=".141" style="stop-color:#959595;stop-opacity:1"/><stop offset=".145" style="stop-color:#9a9a9a;stop-opacity:1"/><stop offset=".148" style="stop-color:#9e9e9e;stop-opacity:1"/><stop offset=".152" style="stop-color:#a2a2a2;stop-opacity:1"/><stop offset=".156" style="stop-color:#a6a6a6;stop-opacity:1"/><stop offset=".16" style="stop-color:#aaa;stop-opacity:1"/><stop offset=".164" style="stop-color:#aeaeae;stop-opacity:1"/><stop offset=".168" style="stop-color:#b2b2b2;stop-opacity:1"/><stop offset=".172" style="stop-color:#b7b7b7;stop-opacity:1"/><stop offset=".176" style="stop-color:#bbb;stop-opacity:1"/><stop offset=".18" style="stop-color:#bfbfbf;stop-opacity:1"/><stop offset=".184" style="stop-color:#c3c3c3;stop-opacity:1"/><stop offset=".188" style="stop-color:#c7c7c7;stop-opacity:1"/><stop offset=".191" style="stop-color:#cbcbcb;stop-opacity:1"/><stop offset=".195" style="stop-color:#d0d0d0;stop-opacity:1"/><stop offset=".199" style="stop-color:#d4d4d4;stop-opacity:1"/><stop offset=".203" style="stop-color:#d8d8d8;stop-opacity:1"/><stop offset=".207" style="stop-color:#dcdcdc;stop-opacity:1"/><stop offset=".211" style="stop-color:#e0e0e0;stop-opacity:1"/><stop offset=".215" style="stop-color:#e4e4e4;stop-opacity:1"/><stop offset=".219" style="stop-color:#e8e8e8;stop-opacity:1"/><stop offset=".223" style="stop-color:#ededed;stop-opacity:1"/><stop offset=".227" style="stop-color:#f1f1f1;stop-opacity:1"/><stop offset=".23" style="stop-color:#f5f5f5;stop-opacity:1"/><stop offset=".234" style="stop-color:#f9f9f9;stop-opacity:1"/><stop offset=".238" style="stop-color:#fbfbfb;stop-opacity:1"/><stop offset=".242" style="stop-color:#fdfdfd;stop-opacity:1"/><stop offset=".246" style="stop-color:#f9f9f9;stop-opacity:1"/><stop offset=".25" style="stop-color:#f5f5f5;stop-opacity:1"/><stop offset=".254" style="stop-color:#f1f1f1;stop-opacity:1"/><stop offset=".258" style="stop-color:#eee;stop-opacity:1"/><stop offset=".262" style="stop-color:#eaeaea;stop-opacity:1"/><stop offset=".266" style="stop-color:#e6e6e6;stop-opacity:1"/><stop offset=".27" style="stop-color:#e2e2e2;stop-opacity:1"/><stop offset=".273" style="stop-color:#dedede;stop-opacity:1"/><stop offset=".277" style="stop-color:#dadada;stop-opacity:1"/><stop offset=".281" style="stop-color:#d7d7d7;stop-opacity:1"/><stop offset=".285" style="stop-color:#d3d3d3;stop-opacity:1"/><stop offset=".289" style="stop-color:#cfcfcf;stop-opacity:1"/><stop offset=".293" style="stop-color:#cbcbcb;stop-opacity:1"/><stop offset=".297" style="stop-color:#c7c7c7;stop-opacity:1"/><stop offset=".301" style="stop-color:#c3c3c3;stop-opacity:1"/><stop offset=".305" style="stop-color:silver;stop-opacity:1"/><stop offset=".309" style="stop-color:#bcbcbc;stop-opacity:1"/><stop offset=".313" style="stop-color:#b8b8b8;stop-opacity:1"/><stop offset=".316" style="stop-color:#b4b4b4;stop-opacity:1"/><stop offset=".32" style="stop-color:#b0b0b0;stop-opacity:1"/><stop offset=".324" style="stop-color:#acacac;stop-opacity:1"/><stop offset=".328" style="stop-color:#a9a9a9;stop-opacity:1"/><stop offset=".332" style="stop-color:#a5a5a5;stop-opacity:1"/><stop offset=".336" style="stop-color:#a1a1a1;stop-opacity:1"/><stop offset=".34" style="stop-color:#9d9d9d;stop-opacity:1"/><stop offset=".344" style="stop-color:#999;stop-opacity:1"/><stop offset=".348" style="stop-color:#959595;stop-opacity:1"/><stop offset=".352" style="stop-color:#929292;stop-opacity:1"/><stop offset=".355" style="stop-color:#8e8e8e;stop-opacity:1"/><stop offset=".359" style="stop-color:#8a8a8a;stop-opacity:1"/><stop offset=".363" style="stop-color:#868686;stop-opacity:1"/><stop offset=".367" style="stop-color:#828282;stop-opacity:1"/><stop offset=".371" style="stop-color:#7e7e7e;stop-opacity:1"/><stop offset=".375" style="stop-color:#7b7b7b;stop-opacity:1"/><stop offset=".379" style="stop-color:#777;stop-opacity:1"/><stop offset=".383" style="stop-color:#737373;stop-opacity:1"/><stop offset=".387" style="stop-color:#6f6f6f;stop-opacity:1"/><stop offset=".391" style="stop-color:#6b6b6b;stop-opacity:1"/><stop offset=".395" style="stop-color:#676767;stop-opacity:1"/><stop offset=".398" style="stop-color:#646464;stop-opacity:1"/><stop offset=".402" style="stop-color:#606060;stop-opacity:1"/><stop offset=".406" style="stop-color:#5c5c5c;stop-opacity:1"/><stop offset=".41" style="stop-color:#585858;stop-opacity:1"/><stop offset=".414" style="stop-color:#545454;stop-opacity:1"/><stop offset=".418" style="stop-color:#505050;stop-opacity:1"/><stop offset=".422" style="stop-color:#4d4d4d;stop-opacity:1"/><stop offset=".426" style="stop-color:#494949;stop-opacity:1"/><stop offset=".43" style="stop-color:#454545;stop-opacity:1"/><stop offset=".434" style="stop-color:#414141;stop-opacity:1"/><stop offset=".438" style="stop-color:#3d3d3d;stop-opacity:1"/><stop offset=".441" style="stop-color:#393939;stop-opacity:1"/><stop offset=".445" style="stop-color:#363636;stop-opacity:1"/><stop offset=".449" style="stop-color:#323232;stop-opacity:1"/><stop offset=".453" style="stop-color:#2e2e2e;stop-opacity:1"/><stop offset=".457" style="stop-color:#2a2a2a;stop-opacity:1"/><stop offset=".461" style="stop-color:#262626;stop-opacity:1"/><stop offset=".465" style="stop-color:#222;stop-opacity:1"/><stop offset=".469" style="stop-color:#1f1f1f;stop-opacity:1"/><stop offset=".473" style="stop-color:#1b1b1b;stop-opacity:1"/><stop offset=".477" style="stop-color:#171717;stop-opacity:1"/><stop offset=".48" style="stop-color:#131313;stop-opacity:1"/><stop offset=".484" style="stop-color:#0f0f0f;stop-opacity:1"/><stop offset=".488" style="stop-color:#0c0c0c;stop-opacity:1"/><stop offset=".492" style="stop-color:#080808;stop-opacity:1"/><stop offset=".496" style="stop-color:#040404;stop-opacity:1"/><stop offset=".5" style="stop-color:#000;stop-opacity:1"/><stop offset=".504" style="stop-color:#040404;stop-opacity:1"/><stop offset=".508" style="stop-color:#080808;stop-opacity:1"/><stop offset=".512" style="stop-color:#0c0c0c;stop-opacity:1"/><stop offset=".516" style="stop-color:#111;stop-opacity:1"/><stop offset=".52" style="stop-color:#151515;stop-opacity:1"/><stop offset=".523" style="stop-color:#191919;stop-opacity:1"/><stop offset=".527" style="stop-color:#1d1d1d;stop-opacity:1"/><stop offset=".531" style="stop-color:#212121;stop-opacity:1"/><stop offset=".535" style="stop-color:#252525;stop-opacity:1"/><stop offset=".539" style="stop-color:#292929;stop-opacity:1"/><stop offset=".543" style="stop-color:#2e2e2e;stop-opacity:1"/><stop offset=".547" style="stop-color:#323232;stop-opacity:1"/><stop offset=".551" style="stop-color:#363636;stop-opacity:1"/><stop offset=".555" style="stop-color:#3a3a3a;stop-opacity:1"/><stop offset=".559" style="stop-color:#3e3e3e;stop-opacity:1"/><stop offset=".563" style="stop-color:#424242;stop-opacity:1"/><stop offset=".566" style="stop-color:#474747;stop-opacity:1"/><stop offset=".57" style="stop-color:#4b4b4b;stop-opacity:1"/><stop offset=".574" style="stop-color:#4f4f4f;stop-opacity:1"/><stop offset=".578" style="stop-color:#535353;stop-opacity:1"/><stop offset=".582" style="stop-color:#575757;stop-opacity:1"/><stop offset=".586" style="stop-color:#5b5b5b;stop-opacity:1"/><stop offset=".59" style="stop-color:#5f5f5f;stop-opacity:1"/><stop offset=".594" style="stop-color:#646464;stop-opacity:1"/><stop offset=".598" style="stop-color:#686868;stop-opacity:1"/><stop offset=".602" style="stop-color:#6c6c6c;stop-opacity:1"/><stop offset=".605" style="stop-color:#707070;stop-opacity:1"/><stop offset=".609" style="stop-color:#747474;stop-opacity:1"/><stop offset=".613" style="stop-color:#787878;stop-opacity:1"/><stop offset=".617" style="stop-color:#7c7c7c;stop-opacity:1"/><stop offset=".621" style="stop-color:#818181;stop-opacity:1"/><stop offset=".625" style="stop-color:#858585;stop-opacity:1"/><stop offset=".629" style="stop-color:#898989;stop-opacity:1"/><stop offset=".633" style="stop-color:#8d8d8d;stop-opacity:1"/><stop offset=".637" style="stop-color:#919191;stop-opacity:1"/><stop offset=".641" style="stop-color:#959595;stop-opacity:1"/><stop offset=".645" style="stop-color:#9a9a9a;stop-opacity:1"/><stop offset=".648" style="stop-color:#9e9e9e;stop-opacity:1"/><stop offset=".652" style="stop-color:#a2a2a2;stop-opacity:1"/><stop offset=".656" style="stop-color:#a6a6a6;stop-opacity:1"/><stop offset=".66" style="stop-color:#aaa;stop-opacity:1"/><stop offset=".664" style="stop-color:#aeaeae;stop-opacity:1"/><stop offset=".668" style="stop-color:#b2b2b2;stop-opacity:1"/><stop offset=".672" style="stop-color:#b7b7b7;stop-opacity:1"/><stop offset=".676" style="stop-color:#bbb;stop-opacity:1"/><stop offset=".68" style="stop-color:#bfbfbf;stop-opacity:1"/><stop offset=".684" style="stop-color:#c3c3c3;stop-opacity:1"/><stop offset=".688" style="stop-color:#c7c7c7;stop-opacity:1"/><stop offset=".691" style="stop-color:#cbcbcb;stop-opacity:1"/><stop offset=".695" style="stop-color:#cfcfcf;stop-opacity:1"/><stop offset=".699" style="stop-color:#d4d4d4;stop-opacity:1"/><stop offset=".703" style="stop-color:#d8d8d8;stop-opacity:1"/><stop offset=".707" style="stop-color:#dcdcdc;stop-opacity:1"/><stop offset=".711" style="stop-color:#e0e0e0;stop-opacity:1"/><stop offset=".715" style="stop-color:#e4e4e4;stop-opacity:1"/><stop offset=".719" style="stop-color:#e8e8e8;stop-opacity:1"/><stop offset=".723" style="stop-color:#ededed;stop-opacity:1"/><stop offset=".727" style="stop-color:#f1f1f1;stop-opacity:1"/><stop offset=".73" style="stop-color:#f5f5f5;stop-opacity:1"/><stop offset=".734" style="stop-color:#f9f9f9;stop-opacity:1"/><stop offset=".738" style="stop-color:#fbfbfb;stop-opacity:1"/><stop offset=".742" style="stop-color:#fdfdfd;stop-opacity:1"/><stop offset=".746" style="stop-color:#f9f9f9;stop-opacity:1"/><stop offset=".75" style="stop-color:#f5f5f5;stop-opacity:1"/><stop offset=".754" style="stop-color:#f1f1f1;stop-opacity:1"/><stop offset=".758" style="stop-color:#eee;stop-opacity:1"/><stop offset=".762" style="stop-color:#eaeaea;stop-opacity:1"/><stop offset=".766" style="stop-color:#e6e6e6;stop-opacity:1"/><stop offset=".77" style="stop-color:#e2e2e2;stop-opacity:1"/><stop offset=".773" style="stop-color:#dedede;stop-opacity:1"/><stop offset=".777" style="stop-color:#dadada;stop-opacity:1"/><stop offset=".781" style="stop-color:#d7d7d7;stop-opacity:1"/><stop offset=".785" style="stop-color:#d3d3d3;stop-opacity:1"/><stop offset=".789" style="stop-color:#cfcfcf;stop-opacity:1"/><stop offset=".793" style="stop-color:#cbcbcb;stop-opacity:1"/><stop offset=".797" style="stop-color:#c7c7c7;stop-opacity:1"/><stop offset=".801" style="stop-color:#c3c3c3;stop-opacity:1"/><stop offset=".805" style="stop-color:silver;stop-opacity:1"/><stop offset=".809" style="stop-color:#bcbcbc;stop-opacity:1"/><stop offset=".813" style="stop-color:#b8b8b8;stop-opacity:1"/><stop offset=".816" style="stop-color:#b4b4b4;stop-opacity:1"/><stop offset=".82" style="stop-color:#b0b0b0;stop-opacity:1"/><stop offset=".824" style="stop-color:#acacac;stop-opacity:1"/><stop offset=".828" style="stop-color:#a9a9a9;stop-opacity:1"/><stop offset=".832" style="stop-color:#a5a5a5;stop-opacity:1"/><stop offset=".836" style="stop-color:#a1a1a1;stop-opacity:1"/><stop offset=".84" style="stop-color:#9d9d9d;stop-opacity:1"/><stop offset=".844" style="stop-color:#999;stop-opacity:1"/><stop offset=".848" style="stop-color:#959595;stop-opacity:1"/><stop offset=".852" style="stop-color:#929292;stop-opacity:1"/><stop offset=".855" style="stop-color:#8e8e8e;stop-opacity:1"/><stop offset=".859" style="stop-color:#8a8a8a;stop-opacity:1"/><stop offset=".863" style="stop-color:#868686;stop-opacity:1"/><stop offset=".867" style="stop-color:#828282;stop-opacity:1"/><stop offset=".871" style="stop-color:#7e7e7e;stop-opacity:1"/><stop offset=".875" style="stop-color:#7b7b7b;stop-opacity:1"/><stop offset=".879" style="stop-color:#777;stop-opacity:1"/><stop offset=".883" style="stop-color:#737373;stop-opacity:1"/><stop offset=".887" style="stop-color:#6f6f6f;stop-opacity:1"/><stop offset=".891" style="stop-color:#6b6b6b;stop-opacity:1"/><stop offset=".895" style="stop-color:#686868;stop-opacity:1"/><stop offset=".898" style="stop-color:#646464;stop-opacity:1"/><stop offset=".902" style="stop-color:#606060;stop-opacity:1"/><stop offset=".906" style="stop-color:#5c5c5c;stop-opacity:1"/><stop offset=".91" style="stop-color:#585858;stop-opacity:1"/><stop offset=".914" style="stop-color:#545454;stop-opacity:1"/><stop offset=".918" style="stop-color:#515151;stop-opacity:1"/><stop offset=".922" style="stop-color:#4d4d4d;stop-opacity:1"/><stop offset=".926" style="stop-color:#494949;stop-opacity:1"/><stop offset=".93" style="stop-color:#454545;stop-opacity:1"/><stop offset=".934" style="stop-color:#414141;stop-opacity:1"/><stop offset=".938" style="stop-color:#3d3d3d;stop-opacity:1"/><stop offset=".941" style="stop-color:#3a3a3a;stop-opacity:1"/><stop offset=".945" style="stop-color:#363636;stop-opacity:1"/><stop offset=".949" style="stop-color:#323232;stop-opacity:1"/><stop offset=".953" style="stop-color:#2e2e2e;stop-opacity:1"/><stop offset=".957" style="stop-color:#2a2a2a;stop-opacity:1"/><stop offset=".961" style="stop-color:#262626;stop-opacity:1"/><stop offset=".965" style="stop-color:#232323;stop-opacity:1"/><stop offset=".969" style="stop-color:#1f1f1f;stop-opacity:1"/><stop offset=".973" style="stop-color:#1b1b1b;stop-opacity:1"/><stop offset=".977" style="stop-color:#171717;stop-opacity:1"/><stop offset=".98" style="stop-color:#131313;stop-opacity:1"/><stop offset=".984" style="stop-color:#0f0f0f;stop-opacity:1"/><stop offset=".988" style="stop-color:#0c0c0c;stop-opacity:1"/><stop offset=".992" style="stop-color:#080808;stop-opacity:1"/><stop offset=".996" style="stop-color:#040404;stop-opacity:1"/><stop offset="1" style="stop-color:#000;stop-opacity:1"/></linearGradient></defs><path style="stroke:none;fill-rule:nonzero;fill:#bfbfbf;fill-opacity:1" d="M.805.988v176.907h444.558V.988Zm0 0"/><use xlink:href="#a" x="10.079" y="17.947" style="fill:#404040;fill-opacity:1"/><g style="fill:#404040;fill-opacity:1"><use xlink:href="#b" x="20.595" y="17.947"/><use xlink:href="#c" x="28.485" y="17.947"/><use xlink:href="#d" x="36.533" y="17.947"/><use xlink:href="#e" x="40.206" y="17.947"/></g><g style="fill:#404040;fill-opacity:1"><use xlink:href="#f" x="50.851" y="17.947"/><use xlink:href="#g" x="54.524" y="17.947"/><use xlink:href="#h" x="60.578" y="17.947"/></g><g style="fill:#404040;fill-opacity:1"><use xlink:href="#i" x="69.687" y="17.947"/><use xlink:href="#j" x="77.219" y="17.947"/></g><g style="fill:#404040;fill-opacity:1"><use xlink:href="#k" x="92.986" y="17.947"/><use xlink:href="#f" x="103.659" y="17.947"/><use xlink:href="#l" x="107.332" y="17.947"/><use xlink:href="#c" x="114.347" y="17.947"/><use xlink:href="#h" x="122.395" y="17.947"/><use xlink:href="#f" x="128.191" y="17.947"/><use xlink:href="#m" x="131.864" y="17.947"/><use xlink:href="#g" x="139.754" y="17.947"/><use xlink:href="#h" x="145.808" y="17.947"/><use xlink:href="#e" x="151.604" y="17.947"/><use xlink:href="#n" x="158.935" y="17.947"/></g><g style="fill:#000;fill-opacity:1"><use xlink:href="#o" x="10.079" y="29.902"/><use xlink:href="#p" x="16.475" y="29.902"/><use xlink:href="#q" x="22.064" y="29.902"/><use xlink:href="#r" x="27.155" y="29.902"/><use xlink:href="#s" x="30.861" y="29.902"/><use xlink:href="#t" x="36.341" y="29.902"/><use xlink:href="#q" x="38.891" y="29.902"/><use xlink:href="#u" x="43.982" y="29.902"/><use xlink:href="#t" x="52.619" y="29.902"/><use xlink:href="#v" x="55.17" y="29.902"/></g><use xlink:href="#w" x="63.469" y="29.902" style="fill:#000;fill-opacity:1"/><g style="fill:#000;fill-opacity:1"><use xlink:href="#q" x="69.367" y="29.902"/><use xlink:href="#t" x="74.458" y="29.902"/></g><g style="fill:#000;fill-opacity:1"><use xlink:href="#x" x="80.326" y="29.902"/><use xlink:href="#q" x="85.915" y="29.902"/><use xlink:href="#r" x="91.006" y="29.902"/></g><g style="fill:#000;fill-opacity:1"><use xlink:href="#x" x="98.029" y="29.902"/><use xlink:href="#q" x="103.618" y="29.902"/><use xlink:href="#y" x="108.709" y="29.902"/><use xlink:href="#z" x="114.298" y="29.902"/><use xlink:href="#A" x="118.323" y="29.902"/><use xlink:href="#B" x="122.527" y="29.902"/><use xlink:href="#C" x="127.399" y="29.902"/><use xlink:href="#q" x="132.988" y="29.902"/><use xlink:href="#p" x="138.079" y="29.902"/></g><g style="fill:#000;fill-opacity:1"><use xlink:href="#D" x="146.996" y="29.902"/><use xlink:href="#z" x="153.083" y="29.902"/><use xlink:href="#r" x="157.108" y="29.902"/><use xlink:href="#E" x="160.814" y="29.902"/><use xlink:href="#u" x="166.293" y="29.902"/><use xlink:href="#q" x="174.931" y="29.902"/><use xlink:href="#r" x="180.022" y="29.902"/><use xlink:href="#F" x="183.728" y="29.902"/><use xlink:href="#q" x="188.47" y="29.902"/><use xlink:href="#y" x="193.561" y="29.902"/><use xlink:href="#s" x="199.15" y="29.902"/><use xlink:href="#y" x="204.629" y="29.902"/><use xlink:href="#p" x="210.218" y="29.902"/><use xlink:href="#s" x="215.808" y="29.902"/></g><g style="fill:#000;fill-opacity:1"><use xlink:href="#G" x="224.605" y="29.902"/><use xlink:href="#H" x="230.084" y="29.902"/><use xlink:href="#H" x="235.563" y="29.902"/><use xlink:href="#I" x="241.043" y="29.902"/></g><path style="fill-rule:nonzero;fill:#fff;fill-opacity:1;stroke-width:.3985;stroke-linecap:butt;stroke-linejoin:miter;stroke:gray;stroke-opacity:1;stroke-miterlimit:10" d="M-235.891 71.45V-57.84h426.418V71.45Zm0 0" transform="matrix(1 0 0 -1 245.766 109.852)"/><g style="fill:#000;fill-opacity:1"><use xlink:href="#J" x="13.4" y="47.903"/><use xlink:href="#K" x="19.242" y="47.903"/><use xlink:href="#L" x="23.315" y="47.903"/><use xlink:href="#M" x="26.678" y="47.903"/><use xlink:href="#N" x="30.863" y="47.903"/><use xlink:href="#O" x="37.773" y="47.903"/><use xlink:href="#K" x="40.993" y="47.903"/></g><g style="fill:#000;fill-opacity:1"><use xlink:href="#P" x="47.99" y="47.903"/><use xlink:href="#K" x="54.319" y="47.903"/><use xlink:href="#O" x="58.391" y="47.903"/><use xlink:href="#O" x="61.611" y="47.903"/><use xlink:href="#Q" x="64.831" y="47.903"/><use xlink:href="#R" x="69.215" y="47.903"/><use xlink:href="#S" x="72.14" y="47.903"/><use xlink:href="#O" x="77.009" y="47.903"/><use xlink:href="#T" x="80.229" y="47.903"/><use xlink:href="#Q" x="83.194" y="47.903"/><use xlink:href="#N" x="87.578" y="47.903"/><use xlink:href="#K" x="94.488" y="47.903"/><use xlink:href="#T" x="98.561" y="47.903"/><use xlink:href="#U" x="101.526" y="47.903"/><use xlink:href="#K" x="105.319" y="47.903"/><use xlink:href="#V" x="109.392" y="47.903"/><use xlink:href="#W" x="113.863" y="47.903"/><use xlink:href="#V" x="118.247" y="47.903"/><use xlink:href="#X" x="122.718" y="47.903"/><use xlink:href="#W" x="127.189" y="47.903"/></g><g style="fill:#000;fill-opacity:1"><use xlink:href="#Y" x="134.498" y="47.903"/><use xlink:href="#X" x="136.538" y="47.903"/></g><g style="fill:#000;fill-opacity:1"><use xlink:href="#Z" x="143.934" y="47.903"/><use xlink:href="#T" x="149.537" y="47.903"/><use xlink:href="#Q" x="152.502" y="47.903"/><use xlink:href="#U" x="156.886" y="47.903"/><use xlink:href="#K" x="160.68" y="47.903"/><use xlink:href="#X" x="164.752" y="47.903"/><use xlink:href="#O" x="169.224" y="47.903"/><use xlink:href="#aa" x="172.444" y="47.903"/></g><g style="fill:#000;fill-opacity:1"><use xlink:href="#Y" x="177.807" y="47.903"/><use xlink:href="#X" x="179.848" y="47.903"/></g><g style="fill:#000;fill-opacity:1"><use xlink:href="#ab" x="187.244" y="47.903"/><use xlink:href="#Y" x="195.039" y="47.903"/><use xlink:href="#ac" x="197.079" y="47.903"/><use xlink:href="#ac" x="199.12" y="47.903"/><use xlink:href="#Y" x="201.16" y="47.903"/><use xlink:href="#M" x="203.2" y="47.903"/></g><g style="fill:#000;fill-opacity:1"><use xlink:href="#T" x="207.137" y="47.903"/><use xlink:href="#ad" x="210.102" y="47.903"/><use xlink:href="#K" x="214.574" y="47.903"/><use xlink:href="#X" x="218.646" y="47.903"/></g><g style="fill:#000;fill-opacity:1"><use xlink:href="#ae" x="226.043" y="47.903"/><use xlink:href="#Y" x="232.132" y="47.903"/><use xlink:href="#ac" x="234.172" y="47.903"/><use xlink:href="#Q" x="236.212" y="47.903"/></g><use xlink:href="#af" x="240.349" y="47.903" style="fill:#000;fill-opacity:1"/><g style="fill:#000;fill-opacity:1"><use xlink:href="#M" x="246.032" y="47.903"/><use xlink:href="#O" x="250.216" y="47.903"/><use xlink:href="#O" x="253.436" y="47.903"/><use xlink:href="#L" x="256.656" y="47.903"/><use xlink:href="#O" x="260.019" y="47.903"/><use xlink:href="#V" x="263.239" y="47.903"/><use xlink:href="#X" x="267.71" y="47.903"/><use xlink:href="#ad" x="272.182" y="47.903"/><use xlink:href="#K" x="276.653" y="47.903"/><use xlink:href="#X" x="280.725" y="47.903"/></g><g style="fill:#000;fill-opacity:1"><use xlink:href="#ag" x="288.122" y="47.903"/><use xlink:href="#ab" x="291.533" y="47.903"/><use xlink:href="#T" x="299.328" y="47.903"/><use xlink:href="#ad" x="302.293" y="47.903"/><use xlink:href="#ah" x="306.764" y="47.903"/></g><use xlink:href="#ai" x="312.128" y="47.903" style="fill:#000;fill-opacity:1"/><g style="fill:#000;fill-opacity:1"><use xlink:href="#aj" x="315.627" y="47.903"/><use xlink:href="#ak" x="323.908" y="47.903"/><use xlink:href="#al" x="328.379" y="47.903"/></g><g clip-path="url(#am)"><g clip-path="url(#an)"><path style="stroke:none;fill-rule:nonzero;fill:url(#ao)" d="M155.055 148.969V80.938h181.422v68.03Zm0 0"/></g></g><path style="fill:none;stroke-width:.19925;stroke-linecap:butt;stroke-linejoin:miter;stroke:#000;stroke-opacity:1;stroke-miterlimit:10" d="M90.71-5.101c0 18.785-40.613 34.016-90.71 34.016-50.098 0-90.711-15.231-90.711-34.016 0-18.79 40.613-34.016 90.71-34.016 50.098 0 90.712 15.227 90.712 34.016Zm0 0" transform="matrix(1 0 0 -1 245.766 109.852)"/><path style="stroke:none;fill-rule:nonzero;fill:#696;fill-opacity:1" d="M245.766 109.852V75.836c32.402 0 62.355 6.484 78.558 17.008 9.305 6.043 13.426 13.02 11.805 19.972"/><path style="stroke:none;fill-rule:nonzero;fill:#999;fill-opacity:1" d="m245.766 109.852 90.363 2.964c-2.824 12.106-22.66 22.73-52.027 27.864-19.325 3.382-41.215 4.097-61.813 2.03"/><path style="stroke:none;fill-rule:nonzero;fill:#998066;fill-opacity:1" d="m245.766 109.852-23.477 32.859c-39.652-3.984-67.234-17.465-67.234-32.86"/><path style="stroke:none;fill-rule:nonzero;fill:#ffb266;fill-opacity:1" d="M245.766 109.852h-90.711c0-5.97 4.195-11.836 12.152-17.008"/><path style="stroke:none;fill-rule:nonzero;fill:#404040;fill-opacity:1" d="m245.766 109.852-78.559-17.008a60.55 60.55 0 0 1 4.254-2.504"/><path style="stroke:none;fill-rule:nonzero;fill:#1919ff;fill-opacity:1" d="M245.766 109.852 171.46 90.34c3.027-1.621 6.434-3.14 10.164-4.54"/><path style="stroke:none;fill-rule:nonzero;fill:#8080ff;fill-opacity:1" d="M245.766 109.852 181.625 85.8c16.234-6.09 38.031-9.645 60.977-9.946"/><path style="stroke:none;fill-rule:nonzero;fill:#8f8a48;fill-opacity:1" d="m245.766 109.852-3.164-33.997c1.054-.011 2.109-.02 3.164-.02"/><path style="fill:none;stroke-width:.19925;stroke-linecap:butt;stroke-linejoin:miter;stroke:#000;stroke-opacity:1;stroke-miterlimit:10" d="M0 0v34.016M0 0l90.363-2.964M0 0l-23.477-32.859M0 0h-90.711M0 0-78.56 17.008M0 0l-74.305 19.512M0 0l-64.141 24.051M0 0l-3.164 33.997M90.71 0c0 18.786-40.613 34.016-90.71 34.016-50.098 0-90.711-15.23-90.711-34.016 0-18.789 40.613-34.015 90.71-34.015C50.098-34.015 90.712-18.79 90.712 0Zm0 0" transform="matrix(1 0 0 -1 245.766 109.852)"/><g style="fill:#000;fill-opacity:1"><use xlink:href="#ap" x="204.885" y="89.939"/><use xlink:href="#aq" x="210.364" y="89.939"/><use xlink:href="#I" x="213.413" y="89.939"/><use xlink:href="#ar" x="218.892" y="89.939"/></g><g style="fill:#000;fill-opacity:1"><use xlink:href="#G" x="270.175" y="104.556"/><use xlink:href="#as" x="275.654" y="104.556"/><use xlink:href="#aq" x="281.134" y="104.556"/><use xlink:href="#at" x="284.182" y="104.556"/><use xlink:href="#ar" x="289.662" y="104.556"/></g><g style="fill:#000;fill-opacity:1"><use xlink:href="#G" x="269.382" y="127.492"/><use xlink:href="#au" x="274.861" y="127.492"/><use xlink:href="#aq" x="280.341" y="127.492"/><use xlink:href="#av" x="283.389" y="127.492"/><use xlink:href="#ar" x="288.869" y="127.492"/></g><g style="fill:#000;fill-opacity:1"><use xlink:href="#G" x="192.412" y="127.492"/><use xlink:href="#G" x="197.891" y="127.492"/><use xlink:href="#aq" x="203.371" y="127.492"/><use xlink:href="#aw" x="206.419" y="127.492"/><use xlink:href="#ar" x="211.899" y="127.492"/></g><g style="fill:#000;fill-opacity:1"><use xlink:href="#ax" x="164.352" y="107.756"/><use xlink:href="#H" x="169.831" y="107.756"/><use xlink:href="#aq" x="175.311" y="107.756"/><use xlink:href="#I" x="178.359" y="107.756"/><use xlink:href="#ar" x="183.839" y="107.756"/></g><path style="fill:none;stroke-width:.3985;stroke-linecap:butt;stroke-linejoin:miter;stroke:#000;stroke-opacity:1;stroke-miterlimit:10" d="M-28.758 30.91v8.504h210.21" transform="matrix(1 0 0 -1 245.766 109.852)"/><path style="fill:none;stroke-width:.3985;stroke-linecap:butt;stroke-linejoin:miter;stroke:#000;stroke-opacity:1;stroke-miterlimit:10" d="M-1.426 30.61v8.812h182.918" transform="matrix(1 0 0 -1 245.766 109.852)"/><g style="fill:#000;fill-opacity:1"><use xlink:href="#ay" x="205.307" y="65.249"/><use xlink:href="#az" x="211.61" y="65.249"/><use xlink:href="#aA" x="216.192" y="65.249"/><use xlink:href="#az" x="221.124" y="65.249"/><use xlink:href="#aB" x="225.706" y="65.249"/><use xlink:href="#az" x="230.736" y="65.249"/><use xlink:href="#aC" x="235.317" y="65.249"/><use xlink:href="#aD" x="238.653" y="65.249"/><use xlink:href="#aE" x="243.36" y="65.249"/><use xlink:href="#aF" x="246.983" y="65.249"/><use xlink:href="#aG" x="249.278" y="65.249"/><use xlink:href="#az" x="253.761" y="65.249"/></g><g style="fill:#000;fill-opacity:1"><use xlink:href="#ag" x="261.634" y="65.249"/><use xlink:href="#aH" x="265.045" y="65.249"/><use xlink:href="#aI" x="269.429" y="65.249"/><use xlink:href="#aa" x="273.812" y="65.249"/><use xlink:href="#aJ" x="276.251" y="65.249"/></g><use xlink:href="#ai" x="283.56" y="65.249" style="fill:#000;fill-opacity:1"/><g style="fill:#000;fill-opacity:1"><use xlink:href="#aj" x="287.059" y="65.249"/><use xlink:href="#ak" x="295.34" y="65.249"/><use xlink:href="#al" x="299.811" y="65.249"/><use xlink:href="#aK" x="303.222" y="65.249"/><use xlink:href="#ad" x="307.606" y="65.249"/><use xlink:href="#M" x="312.077" y="65.249"/><use xlink:href="#aL" x="316.261" y="65.249"/><use xlink:href="#Q" x="320.246" y="65.249"/><use xlink:href="#X" x="324.63" y="65.249"/></g><g style="fill:#000;fill-opacity:1"><use xlink:href="#aM" x="332.392" y="65.249"/><use xlink:href="#aF" x="341.708" y="65.249"/><use xlink:href="#aB" x="344.003" y="65.249"/><use xlink:href="#aN" x="349.034" y="65.249"/></g><g style="fill:#000;fill-opacity:1"><use xlink:href="#aO" x="357.354" y="65.249"/><use xlink:href="#aP" x="362.286" y="65.249"/><use xlink:href="#aO" x="365.03" y="65.249"/><use xlink:href="#aQ" x="369.961" y="65.249"/></g><g style="fill:#000;fill-opacity:1"><use xlink:href="#ag" x="382.478" y="65.249"/><use xlink:href="#aR" x="385.889" y="65.249"/><use xlink:href="#aH" x="390.273" y="65.249"/><use xlink:href="#aa" x="394.656" y="65.249"/><use xlink:href="#aS" x="397.095" y="65.249"/></g><use xlink:href="#ai" x="404.404" y="65.249" style="fill:#000;fill-opacity:1"/><g style="fill:#000;fill-opacity:1"><use xlink:href="#aj" x="407.903" y="65.249"/><use xlink:href="#ak" x="416.184" y="65.249"/><use xlink:href="#al" x="420.655" y="65.249"/></g><path style="fill:none;stroke-width:.3985;stroke-linecap:butt;stroke-linejoin:miter;stroke:#000;stroke-opacity:1;stroke-miterlimit:10" d="M57.68 5.297h123.773" transform="matrix(1 0 0 -1 245.766 109.852)"/><g style="fill:#000;fill-opacity:1"><use xlink:href="#aT" x="374.93" y="99.52"/><use xlink:href="#az" x="381.78" y="99.52"/><use xlink:href="#aC" x="386.362" y="99.52"/><use xlink:href="#aB" x="389.698" y="99.52"/><use xlink:href="#az" x="394.728" y="99.52"/><use xlink:href="#aB" x="399.31" y="99.52"/><use xlink:href="#az" x="404.34" y="99.52"/><use xlink:href="#aC" x="408.922" y="99.52"/><use xlink:href="#aA" x="412.257" y="99.52"/><use xlink:href="#aF" x="417.189" y="99.52"/><use xlink:href="#az" x="419.484" y="99.52"/></g><g style="fill:#000;fill-opacity:1"><use xlink:href="#ag" x="378.094" y="113.72"/><use xlink:href="#aU" x="381.505" y="113.72"/><use xlink:href="#aH" x="385.889" y="113.72"/><use xlink:href="#aV" x="390.272" y="113.72"/><use xlink:href="#aa" x="394.656" y="113.72"/><use xlink:href="#aW" x="397.095" y="113.72"/></g><use xlink:href="#ai" x="404.403" y="113.72" style="fill:#000;fill-opacity:1"/><g style="fill:#000;fill-opacity:1"><use xlink:href="#aj" x="407.902" y="113.72"/><use xlink:href="#ak" x="416.183" y="113.72"/><use xlink:href="#al" x="420.654" y="113.72"/></g><path style="fill:none;stroke-width:.3985;stroke-linecap:butt;stroke-linejoin:miter;stroke:#000;stroke-opacity:1;stroke-miterlimit:10" d="M38.492-22.218v-25.516h142.96" transform="matrix(1 0 0 -1 245.766 109.852)"/><g style="fill:#000;fill-opacity:1"><use xlink:href="#aX" x="325.516" y="152.413"/><use xlink:href="#aC" x="332.088" y="152.413"/><use xlink:href="#aD" x="335.424" y="152.413"/><use xlink:href="#aY" x="340.131" y="152.413"/><use xlink:href="#aB" x="345.161" y="152.413"/><use xlink:href="#aZ" x="350.191" y="152.413"/></g><g style="fill:#000;fill-opacity:1"><use xlink:href="#ba" x="354.675" y="152.413"/><use xlink:href="#bb" x="359.606" y="152.413"/><use xlink:href="#bc" x="364.636" y="152.413"/><use xlink:href="#az" x="366.932" y="152.413"/></g><g style="fill:#000;fill-opacity:1"><use xlink:href="#ag" x="378.094" y="152.413"/><use xlink:href="#aU" x="381.505" y="152.413"/><use xlink:href="#aW" x="385.889" y="152.413"/><use xlink:href="#bd" x="390.272" y="152.413"/><use xlink:href="#aa" x="394.656" y="152.413"/><use xlink:href="#aS" x="397.095" y="152.413"/></g><use xlink:href="#ai" x="404.403" y="152.413" style="fill:#000;fill-opacity:1"/><g style="fill:#000;fill-opacity:1"><use xlink:href="#aj" x="407.902" y="152.413"/><use xlink:href="#ak" x="416.183" y="152.413"/><use xlink:href="#al" x="420.654" y="152.413"/></g><path style="fill:none;stroke-width:.3985;stroke-linecap:butt;stroke-linejoin:miter;stroke:#000;stroke-opacity:1;stroke-miterlimit:10" d="M-38.493-22.218v-25.516h-188.324" transform="matrix(1 0 0 -1 245.766 109.852)"/><g style="fill:#000;fill-opacity:1"><use xlink:href="#be" x="22.094" y="152.413"/><use xlink:href="#aE" x="27.572" y="152.413"/><use xlink:href="#az" x="31.195" y="152.413"/><use xlink:href="#aF" x="35.777" y="152.413"/><use xlink:href="#aB" x="38.072" y="152.413"/><use xlink:href="#aZ" x="43.102" y="152.413"/></g><g style="fill:#000;fill-opacity:1"><use xlink:href="#ba" x="47.585" y="152.413"/><use xlink:href="#bb" x="52.517" y="152.413"/><use xlink:href="#bc" x="57.547" y="152.413"/><use xlink:href="#az" x="59.842" y="152.413"/></g><g style="fill:#000;fill-opacity:1"><use xlink:href="#ag" x="71.006" y="152.413"/><use xlink:href="#aU" x="74.417" y="152.413"/><use xlink:href="#aR" x="78.801" y="152.413"/><use xlink:href="#aJ" x="83.184" y="152.413"/><use xlink:href="#aa" x="87.568" y="152.413"/><use xlink:href="#aU" x="90.007" y="152.413"/></g><use xlink:href="#ai" x="97.315" y="152.413" style="fill:#000;fill-opacity:1"/><g style="fill:#000;fill-opacity:1"><use xlink:href="#aj" x="100.814" y="152.413"/><use xlink:href="#ak" x="109.095" y="152.413"/><use xlink:href="#al" x="113.566" y="152.413"/></g><path style="fill:none;stroke-width:.3985;stroke-linecap:butt;stroke-linejoin:miter;stroke:#000;stroke-opacity:1;stroke-miterlimit:10" d="M-84.95 2.098h-141.867" transform="matrix(1 0 0 -1 245.766 109.852)"/><g style="fill:#000;fill-opacity:1"><use xlink:href="#bf" x="22.094" y="102.575"/><use xlink:href="#aC" x="27.85" y="102.575"/><use xlink:href="#aN" x="31.186" y="102.575"/><use xlink:href="#aA" x="36.216" y="102.575"/><use xlink:href="#aD" x="41.148" y="102.575"/><use xlink:href="#bg" x="45.855" y="102.575"/></g><g style="fill:#000;fill-opacity:1"><use xlink:href="#ag" x="56.22" y="102.575"/><use xlink:href="#aH" x="59.631" y="102.575"/><use xlink:href="#bh" x="64.015" y="102.575"/><use xlink:href="#aa" x="68.398" y="102.575"/><use xlink:href="#aR" x="70.837" y="102.575"/></g><use xlink:href="#ai" x="78.146" y="102.575" style="fill:#000;fill-opacity:1"/><g style="fill:#000;fill-opacity:1"><use xlink:href="#aj" x="81.645" y="102.575"/><use xlink:href="#ak" x="89.926" y="102.575"/><use xlink:href="#al" x="94.397" y="102.575"/></g><path style="fill:none;stroke-width:.3985;stroke-linecap:butt;stroke-linejoin:miter;stroke:#000;stroke-opacity:1;stroke-miterlimit:10" d="M-68.48 16.676h-158.337" transform="matrix(1 0 0 -1 245.766 109.852)"/><g style="fill:#000;fill-opacity:1"><use xlink:href="#bi" x="22.094" y="87.992"/><use xlink:href="#aF" x="30.863" y="87.992"/><use xlink:href="#aB" x="33.159" y="87.992"/><use xlink:href="#az" x="38.189" y="87.992"/><use xlink:href="#aC" x="42.77" y="87.992"/><use xlink:href="#aD" x="46.106" y="87.992"/><use xlink:href="#bc" x="50.813" y="87.992"/><use xlink:href="#bj" x="53.109" y="87.992"/><use xlink:href="#bc" x="58.04" y="87.992"/><use xlink:href="#bk" x="60.336" y="87.992"/></g><g style="fill:#000;fill-opacity:1"><use xlink:href="#aC" x="65.088" y="87.992"/><use xlink:href="#ba" x="68.423" y="87.992"/></g><g style="fill:#000;fill-opacity:1"><use xlink:href="#aN" x="73.633" y="87.992"/><use xlink:href="#aY" x="78.663" y="87.992"/><use xlink:href="#aZ" x="83.693" y="87.992"/><use xlink:href="#aE" x="88.454" y="87.992"/><use xlink:href="#az" x="92.077" y="87.992"/></g><g style="fill:#000;fill-opacity:1"><use xlink:href="#ag" x="103.24" y="87.992"/><use xlink:href="#bh" x="106.651" y="87.992"/><use xlink:href="#aa" x="111.035" y="87.992"/><use xlink:href="#aR" x="113.474" y="87.992"/></g><use xlink:href="#ai" x="120.782" y="87.992" style="fill:#000;fill-opacity:1"/><g style="fill:#000;fill-opacity:1"><use xlink:href="#aj" x="124.281" y="87.992"/><use xlink:href="#ak" x="132.562" y="87.992"/><use xlink:href="#al" x="137.033" y="87.992"/></g><g style="fill:#000;fill-opacity:1"><use xlink:href="#ax" x="149.22" y="87.992"/><use xlink:href="#aq" x="154.699" y="87.992"/><use xlink:href="#av" x="157.748" y="87.992"/><use xlink:href="#ar" x="163.227" y="87.992"/></g><path style="fill:none;stroke-width:.3985;stroke-linecap:butt;stroke-linejoin:miter;stroke:#000;stroke-opacity:1;stroke-miterlimit:10" d="M-62.551 19.684v19.738h-164.266" transform="matrix(1 0 0 -1 245.766 109.852)"/><g style="fill:#000;fill-opacity:1"><use xlink:href="#be" x="22.094" y="65.242"/><use xlink:href="#ba" x="27.572" y="65.242"/><use xlink:href="#aB" x="32.504" y="65.242"/><use xlink:href="#bg" x="37.534" y="65.242"/><use xlink:href="#aE" x="41.318" y="65.242"/><use xlink:href="#aF" x="44.94" y="65.242"/><use xlink:href="#aA" x="47.236" y="65.242"/><use xlink:href="#az" x="52.167" y="65.242"/></g><g style="fill:#000;fill-opacity:1"><use xlink:href="#ag" x="63.331" y="65.242"/><use xlink:href="#aU" x="66.742" y="65.242"/><use xlink:href="#bd" x="71.126" y="65.242"/><use xlink:href="#aa" x="75.509" y="65.242"/><use xlink:href="#aH" x="77.948" y="65.242"/></g><use xlink:href="#ai" x="85.257" y="65.242" style="fill:#000;fill-opacity:1"/><g style="fill:#000;fill-opacity:1"><use xlink:href="#aj" x="88.756" y="65.242"/><use xlink:href="#ak" x="97.037" y="65.242"/><use xlink:href="#al" x="101.508" y="65.242"/></g><g style="fill:#000;fill-opacity:1"><use xlink:href="#G" x="153.288" y="65.242"/><use xlink:href="#aq" x="158.767" y="65.242"/><use xlink:href="#ap" x="161.816" y="65.242"/><use xlink:href="#ar" x="167.295" y="65.242"/></g></svg>