<svg xmlns="http://www.w3.org/2000/svg" xmlns:xlink="http://www.w3.org/1999/xlink" width="117.891" height="78.531" viewBox="0 0 88.418 58.898" version="1.2"><defs><clipPath id="a"><path d="M22 38h44v20.848H22Zm0 0"/></clipPath><clipPath id="c"><path d="M0 17h88.129v25H0Zm0 0"/></clipPath><clipPath id="e"><path d="M0 0h88.129v21H0Zm0 0"/></clipPath><symbol overflow="visible" id="b"><path style="stroke:none" d="M8.25 0v-.469h-.969L4.72-6.703c-.11-.25-.219-.25-.39-.25-.282 0-.329.078-.391.25l-2.47 6c-.062.156-.093.234-.843.234H.406V0l1.172-.031c.39 0 .938 0 1.313.031v-.469S2-.469 2-.594l.047-.125.5-1.203h2.672l.593 1.453H4.86V0c.391-.031 1.329-.031 1.766-.031.39 0 1.266 0 1.625.031ZM5.016-2.39H2.734l1.141-2.766Zm0 0"/></symbol><symbol overflow="visible" id="d"><path style="stroke:none" d="M7.5-1.86c0-.952-.844-1.624-2.031-1.702 1.078-.204 1.718-.797 1.718-1.563 0-.922-.875-1.719-2.468-1.719H.39v.469h1.078v5.906H.39V0h4.625C6.672 0 7.5-.875 7.5-1.86ZM5.766-5.124c0 .766-.47 1.39-1.438 1.39H2.766v-2.64h1.812c1.016 0 1.188.797 1.188 1.25Zm.28 3.266c0 .109 0 1.39-1.437 1.39H2.766v-2.906h1.937c.203 0 .672 0 1.016.422.328.422.328.984.328 1.094Zm0 0"/></symbol><symbol overflow="visible" id="f"><path style="stroke:none" d="M7.64-2.266c0-.203-.077-.203-.25-.203-.124 0-.218 0-.218.172C7.094-.969 5.89-.359 4.89-.359c-.782 0-1.625-.235-2.141-.844-.469-.578-.594-1.313-.594-2.219 0-.562.031-1.625.672-2.297.64-.656 1.516-.765 2.031-.765 1.079 0 2.016.765 2.235 2.03.031.188.047.204.265.204.266 0 .282-.016.282-.281v-2.14c0-.188 0-.282-.188-.282-.094 0-.11.031-.187.094l-.657.593a3.03 3.03 0 0 0-1.968-.687c-2.485 0-4 1.484-4 3.531S2.156.11 4.64.11c1.875 0 3-1.218 3-2.375Zm0 0"/></symbol></defs><path style="fill:none;stroke-width:.19925;stroke-linecap:butt;stroke-linejoin:miter;stroke:gray;stroke-opacity:1;stroke-miterlimit:10" d="M0 0h85.04M0 28.347h85.04M0 56.683h85.04M0 0v56.695M28.349 0v56.695M56.692 0v56.695M85.032 0v56.695" transform="matrix(1 0 0 -1 1.394 57.742)"/><path style="stroke:none;fill-rule:nonzero;fill:#fcc;fill-opacity:1" d="m28.418 57.453 7.848-13.594h15.297l7.851 13.594Zm0 0"/><g clip-path="url(#a)"><path style="fill:none;stroke-width:.3985;stroke-linecap:butt;stroke-linejoin:miter;stroke:#ff4040;stroke-opacity:1;stroke-miterlimit:10" d="m27.024.289 7.848 13.594h15.297L58.02.289Zm0 0" transform="matrix(1 0 0 -1 1.394 57.742)"/></g><use xlink:href="#b" x="39.585" y="54.132" style="fill:#000;fill-opacity:1"/><path style="stroke:none;fill-rule:nonzero;fill:#cfc;fill-opacity:1" d="m1.418 36.133 21.789-13.477h41.418L86.41 36.133Zm0 0"/><g clip-path="url(#c)"><path style="fill:none;stroke-width:.3985;stroke-linecap:butt;stroke-linejoin:miter;stroke:#40ff40;stroke-opacity:1;stroke-miterlimit:10" d="m.024 21.61 21.789 13.476h41.418l21.785-13.477Zm0 0" transform="matrix(1 0 0 -1 1.394 57.742)"/></g><use xlink:href="#d" x="39.839" y="32.812" style="fill:#000;fill-opacity:1"/><path style="stroke:none;fill-rule:nonzero;fill:#ccf;fill-opacity:1" d="M1.395 14.984 9.3 1.29h69.226l7.907 13.695Zm0 0"/><g clip-path="url(#e)"><path style="fill:none;stroke-width:.3985;stroke-linecap:butt;stroke-linejoin:miter;stroke:#4040ff;stroke-opacity:1;stroke-miterlimit:10" d="m0 42.758 7.907 13.695h69.226l7.907-13.695Zm0 0" transform="matrix(1 0 0 -1 1.394 57.742)"/></g><use xlink:href="#f" x="39.774" y="11.552" style="fill:#000;fill-opacity:1"/></svg>