<svg xmlns="http://www.w3.org/2000/svg" xmlns:xlink="http://www.w3.org/1999/xlink" width="66.843" height="18.747" viewBox="0 0 50.132 14.06" version="1.2"><defs><clipPath id="a"><path d="M0 0h49.7v13.59H0Zm0 0"/></clipPath><symbol overflow="visible" id="b"><path style="stroke:none" d="M5.984-2.219c0-1.328-.906-2.265-2.343-2.265-.75 0-1.282.312-1.5.484v-.484l-1.766.078v.468c.61 0 .688 0 .688.376v5.03H.375v.47l1.25-.032 1.25.032v-.47h-.688V-.39A2.01 2.01 0 0 0 3.47.063c1.5 0 2.515-.907 2.515-2.282Zm-1.28 0C4.703-.813 4-.297 3.358-.297c-.14 0-.609 0-1.062-.547-.11-.125-.11-.14-.11-.328v-2.11c0-.187.016-.202.157-.343.39-.406.922-.469 1.14-.469.657 0 1.22.61 1.22 1.875Zm0 0"/></symbol></defs><g clip-path="url(#a)"><path style="fill:none;stroke-width:.3985;stroke-linecap:butt;stroke-linejoin:miter;stroke:#bfbfbf;stroke-opacity:1;stroke-miterlimit:10" d="m0 0 14.175 5.668L28.347 0l14.172 5.668" transform="matrix(1 0 0 -1 3.407 9.383)"/></g><use xlink:href="#b" x=".224" y="10.658" style="fill:#d2c92a;fill-opacity:1"/><use xlink:href="#b" x="14.397" y="4.989" style="fill:#d2c92a;fill-opacity:1"/><use xlink:href="#b" x="28.57" y="10.658" style="fill:#d2c92a;fill-opacity:1"/><use xlink:href="#b" x="42.744" y="4.989" style="fill:#d2c92a;fill-opacity:1"/></svg>