<svg xmlns="http://www.w3.org/2000/svg" xmlns:xlink="http://www.w3.org/1999/xlink" width="122.456" height="154.179" viewBox="0 0 91.842 115.634" version="1.2"><defs><symbol overflow="visible" id="b"><path style="stroke:none" d="M5.563-1.813c.14 0 .312 0 .312-.171 0-.188-.172-.188-.313-.188H1c-.125 0-.297 0-.297.188 0 .171.172.171.297.171Zm0 0"/></symbol><symbol overflow="visible" id="c"><path style="stroke:none" d="M2.25-1.625c.125-.125.453-.39.594-.5.484-.453.953-.89.953-1.61 0-.953-.797-1.562-1.781-1.562-.97 0-1.594.719-1.594 1.438 0 .39.312.437.422.437.172 0 .422-.11.422-.422 0-.406-.407-.406-.5-.406.234-.594.765-.781 1.156-.781.734 0 1.125.625 1.125 1.297 0 .828-.578 1.437-1.531 2.39l-1 1.047C.422-.219.422-.203.422 0h3.14l.235-1.422h-.25c-.016.156-.078.547-.172.703-.047.063-.656.063-.781.063H1.172Zm0 0"/></symbol><symbol overflow="visible" id="d"><path style="stroke:none" d="M2.5-5.078c0-.219-.016-.219-.234-.219-.329.313-.75.5-1.5.5v.266c.218 0 .64 0 1.109-.203v4.078c0 .297-.031.39-.781.39H.812V0c.329-.031 1.016-.031 1.375-.031.36 0 1.047 0 1.376.031v-.266H3.28c-.75 0-.781-.093-.781-.39Zm0 0"/></symbol><symbol overflow="visible" id="e"><path style="stroke:none" d="M3.89-2.547c0-.844-.078-1.36-.343-1.875-.344-.703-1-.875-1.438-.875-1 0-1.375.75-1.484.969C.344-3.75.328-2.953.328-2.547c0 .531.016 1.328.406 1.969.36.594.954.75 1.375.75.391 0 1.063-.125 1.47-.906.296-.579.312-1.297.312-1.813ZM2.11-.062c-.266 0-.813-.126-.985-.954-.094-.453-.094-1.203-.094-1.625 0-.546 0-1.109.094-1.546.172-.813.781-.891.984-.891.266 0 .829.14.985.86.094.437.094 1.046.094 1.577 0 .47 0 1.188-.094 1.641-.172.828-.719.938-.985.938Zm0 0"/></symbol><symbol overflow="visible" id="f"><path style="stroke:none" d="M2.016-2.656c.625 0 1.03.453 1.03 1.297 0 1-.562 1.28-.983 1.28-.438 0-1.047-.155-1.329-.577.297 0 .5-.188.5-.438 0-.265-.187-.437-.453-.437-.203 0-.437.125-.437.453 0 .75.812 1.25 1.734 1.25 1.047 0 1.797-.734 1.797-1.531 0-.672-.531-1.266-1.344-1.454.625-.218 1.11-.75 1.11-1.39 0-.64-.72-1.094-1.547-1.094-.86 0-1.5.453-1.5 1.063 0 .296.187.421.406.421.25 0 .406-.171.406-.406 0-.297-.265-.406-.437-.406.344-.438.953-.469 1.094-.469.203 0 .812.063.812.89 0 .548-.234.891-.344 1.016-.234.25-.422.266-.906.297-.156 0-.219.016-.219.125 0 .11.078.11.219.11Zm0 0"/></symbol><symbol overflow="visible" id="g"><path style="stroke:none" d="M3.14-5.156c0-.157 0-.219-.171-.219-.094 0-.11 0-.188.11L.234-1.564v.25h2.25v.672c0 .297-.015.375-.64.375h-.172V0c.672-.031.687-.031 1.14-.031.454 0 .47 0 1.141.031v-.266h-.172c-.625 0-.64-.078-.64-.375v-.671h.843v-.25h-.843Zm-.593.64v2.954H.516Zm0 0"/></symbol><symbol overflow="visible" id="h"><path style="stroke:none" d="M1.11-4.484c.109.03.421.125.765.125 1 0 1.594-.704 1.594-.829 0-.093-.047-.109-.094-.109-.016 0-.031 0-.094.031a2.982 2.982 0 0 1-1.11.22c-.468 0-.858-.11-1.108-.22-.079-.03-.094-.03-.11-.03-.094 0-.094.077-.094.234v2.328c0 .14 0 .234.125.234.063 0 .079-.031.125-.094.094-.11.391-.515 1.079-.515.437 0 .656.359.734.515.125.281.14.656.14.953 0 .297 0 .735-.218 1.079-.156.25-.485.484-.906.484A1.271 1.271 0 0 1 .734-.922c.016.016.079.016.079.016.218 0 .406-.14.406-.39a.388.388 0 0 0-.39-.407c-.157 0-.407.078-.407.422 0 .718.625 1.453 1.531 1.453 1 0 1.844-.781 1.844-1.766 0-.922-.672-1.75-1.61-1.75-.39 0-.765.125-1.078.406Zm0 0"/></symbol><clipPath id="a"><path d="M0 0h91.762v94H0Zm0 0"/></clipPath></defs><path style="fill:none;stroke-width:.3985;stroke-linecap:round;stroke-linejoin:miter;stroke:#000;stroke-opacity:1;stroke-miterlimit:10" d="M-39.686-1.396v2.793M-19.842-1.396v2.793M19.841-1.396v2.793M39.685-1.396v2.793M-1.393 19.842h2.79M-1.393 39.686h2.79M-1.393 59.53h2.79M-1.393 79.37h2.79M-1.393 99.213h2.79" transform="matrix(1 0 0 -1 45.846 105.26)"/><path style="fill:none;stroke-width:.3985;stroke-linecap:butt;stroke-linejoin:miter;stroke:#000;stroke-opacity:1;stroke-miterlimit:10" d="M-44.916-.002h89.43" transform="matrix(1 0 0 -1 45.846 105.26)"/><path style="fill:none;stroke-width:.3985;stroke-linecap:round;stroke-linejoin:round;stroke:#000;stroke-opacity:1;stroke-miterlimit:10" d="M-2.073 2.393C-1.694.955-.851.28 0-.002c-.852-.277-1.695-.953-2.074-2.39" transform="matrix(1 0 0 -1 90.558 105.26)"/><path style="fill:none;stroke-width:.3985;stroke-linecap:butt;stroke-linejoin:miter;stroke:#000;stroke-opacity:1;stroke-miterlimit:10" d="M.002-5.232v109.277" transform="matrix(1 0 0 -1 45.846 105.26)"/><path style="fill:none;stroke-width:.3985;stroke-linecap:round;stroke-linejoin:round;stroke:#000;stroke-opacity:1;stroke-miterlimit:10" d="M-2.074 2.393C-1.695.955-.85.28 0-.002c-.851-.277-1.695-.953-2.074-2.39" transform="matrix(0 -1 -1 0 45.846 1.016)"/><g clip-path="url(#a)"><path style="fill:none;stroke-width:.59776;stroke-linecap:butt;stroke-linejoin:miter;stroke:#000;stroke-opacity:1;stroke-miterlimit:10" d="M-39.686 99.213s2.39-9.312 3.309-12.676a569.847 569.847 0 0 1 3.304-11.574c.918-3.058 2.391-7.719 3.309-10.473.918-2.753 2.39-6.921 3.305-9.37.918-2.446 2.39-6.126 3.308-8.266.918-2.14 2.39-5.332 3.309-7.168.918-1.832 2.387-4.531 3.305-6.063.918-1.527 2.39-3.734 3.308-4.96.918-1.223 2.387-2.942 3.305-3.856.918-.918 2.39-2.145 3.308-2.758.918-.613 2.387-1.348 3.305-1.656.918-.305 2.39-.551 3.309-.551.918 0 2.39.246 3.304.55.918.306 2.391 1.04 3.309 1.653.918.613 2.39 1.836 3.309 2.754.918.918 2.386 2.633 3.304 3.86.918 1.222 2.39 3.43 3.309 4.956.918 1.532 2.387 4.227 3.305 6.063.918 1.836 2.39 5.023 3.308 7.164.918 2.14 2.39 5.82 3.305 8.266.918 2.445 2.39 6.617 3.308 9.367.918 2.754 2.391 7.414 3.31 10.473a576.61 576.61 0 0 1 3.304 11.57c.918 3.363 3.308 12.676 3.308 12.676" transform="matrix(1 0 0 -1 45.846 105.26)"/></g><use xlink:href="#b" x=".751" y="114.447" style="fill:#000;fill-opacity:1"/><use xlink:href="#c" x="7.338" y="114.447" style="fill:#000;fill-opacity:1"/><use xlink:href="#b" x="20.594" y="114.447" style="fill:#000;fill-opacity:1"/><use xlink:href="#d" x="27.18" y="114.447" style="fill:#000;fill-opacity:1"/><use xlink:href="#d" x="63.571" y="114.447" style="fill:#000;fill-opacity:1"/><use xlink:href="#c" x="83.414" y="114.447" style="fill:#000;fill-opacity:1"/><use xlink:href="#e" x="38.956" y="113.053" style="fill:#000;fill-opacity:1"/><use xlink:href="#d" x="37.561" y="87.986" style="fill:#000;fill-opacity:1"/><use xlink:href="#c" x="37.561" y="68.144" style="fill:#000;fill-opacity:1"/><use xlink:href="#f" x="37.561" y="48.301" style="fill:#000;fill-opacity:1"/><use xlink:href="#g" x="37.561" y="28.459" style="fill:#000;fill-opacity:1"/><use xlink:href="#h" x="37.561" y="8.617" style="fill:#000;fill-opacity:1"/></svg>