<svg xmlns="http://www.w3.org/2000/svg" width="118.865" height="81.075" viewBox="0 0 89.149 60.806" version="1.2"><path style="fill:none;stroke-width:.19925;stroke-linecap:butt;stroke-linejoin:miter;stroke:gray;stroke-opacity:1;stroke-miterlimit:10" d="M0 0h85.04M0 28.349h85.04M0 56.684h85.04M0 .001v56.69M28.348.002v56.69M56.695.002v56.69M85.031.002v56.69" transform="matrix(1 0 0 -1 .683 59.606)"/><path style="stroke:none;fill-rule:nonzero;fill:red;fill-opacity:1" d="M59.371 2.914A1.996 1.996 0 0 0 57.38.918a1.997 1.997 0 0 0-1.996 1.996c0 1.098.894 1.992 1.996 1.992a1.996 1.996 0 0 0 1.992-1.992Zm0 0"/><path style="stroke:none;fill-rule:nonzero;fill:#0f0;fill-opacity:1" d="M59.371 31.258a1.996 1.996 0 0 0-1.992-1.992 1.996 1.996 0 0 0-1.996 1.992 1.994 1.994 0 0 0 3.988 0Zm0 0"/><path style="stroke:none;fill-rule:nonzero;fill:#00f;fill-opacity:1" d="M31.023 31.258a1.993 1.993 0 1 0-3.983.002 1.993 1.993 0 0 0 3.983-.002Zm0 0"/><path style="stroke:none;fill-rule:nonzero;fill:#000;fill-opacity:1" d="M87.715 17.086a1.993 1.993 0 1 0-3.983.002 1.993 1.993 0 0 0 3.983-.002Zm0 0"/></svg>