<svg xmlns="http://www.w3.org/2000/svg" xmlns:xlink="http://www.w3.org/1999/xlink" width="382.155" height="56.019" viewBox="0 0 286.616 42.014" version="1.2"><defs><clipPath id="i"><path d="M72.25 10.55h141.73v19.927H72.25Zm0 0"/></clipPath><clipPath id="a"><path d="M0 0h12v12H0z"/></clipPath><clipPath id="k"><path d="M72.25 10.55h42.52v19.927H72.25Zm0 0"/></clipPath><clipPath id="c"><path d="M0 0h9v9H0z"/></clipPath><clipPath id="m"><path d="M121.855 10.55h42.524v19.927h-42.524Zm0 0"/></clipPath><clipPath id="e"><path d="M0 0h9v9H0z"/></clipPath><clipPath id="o"><path d="M171.465 10.55h42.52v19.927h-42.52Zm0 0"/></clipPath><clipPath id="g"><path d="M0 0h9v9H0z"/></clipPath><pattern id="j" patternUnits="userSpaceOnUse" width="12" height="12" patternTransform="matrix(.9449 0 0 -.9449 -71.75 13618.551)"><use xlink:href="#b"/></pattern><pattern id="l" patternUnits="userSpaceOnUse" width="9" height="9" patternTransform="matrix(.9449 0 0 -.9449 -71.75 13618.551)"><use xlink:href="#d"/></pattern><pattern id="n" patternUnits="userSpaceOnUse" width="9" height="9" patternTransform="matrix(.9449 0 0 -.9449 -71.75 13618.551)"><use xlink:href="#f"/></pattern><pattern id="p" patternUnits="userSpaceOnUse" width="9" height="9" patternTransform="matrix(.9449 0 0 -.9449 -71.75 13618.551)"><use xlink:href="#h"/></pattern><g id="b" clip-path="url(#a)"><path style="fill:#000;fill-opacity:1;stroke:none" d="M0 0h12v12H0z"/><path style="stroke:none;fill-rule:nonzero;fill:#ccc;fill-opacity:1" d="M0 0h6v6H0Zm6 6h6v6H6Zm0 0"/></g><g id="d" clip-path="url(#c)"><path style="stroke:none;fill-rule:nonzero;fill:#000;fill-opacity:1" d="M5.852 3.926H.148L4.762.574 3 6 1.238.574Zm0 0"/></g><g id="f" clip-path="url(#e)"><path style="stroke:none;fill-rule:nonzero;fill:#00f;fill-opacity:1" d="M5.852 3.926H.148L4.762.574 3 6 1.238.574Zm0 0"/></g><g id="h" clip-path="url(#g)"><path style="stroke:none;fill-rule:nonzero;fill:red;fill-opacity:1" d="M5.852 3.926H.148L4.762.574 3 6 1.238.574Zm0 0"/></g></defs><g clip-path="url(#i)"><path style="stroke:none;fill-rule:nonzero;fill:url(#j)" d="M72.25 30.477h141.73V10.55H72.25Zm0 0"/></g><g clip-path="url(#k)"><path style="stroke:none;fill-rule:nonzero;fill:url(#l)" d="M72.25 30.477h42.52V10.55H72.25Zm0 0"/></g><g clip-path="url(#m)"><path style="stroke:none;fill-rule:nonzero;fill:url(#n)" d="M121.855 30.477h42.52V10.55h-42.52Zm0 0"/></g><g clip-path="url(#o)"><path style="stroke:none;fill-rule:nonzero;fill:url(#p)" d="M171.465 30.477h42.52V10.55h-42.52Zm0 0"/></g></svg>