<svg xmlns="http://www.w3.org/2000/svg" width="122.739" height="85.011" viewBox="0 0 92.054 63.758" version="1.2"><defs><clipPath id="a"><path d="M2 0h89.582v62H2Zm0 0"/></clipPath><clipPath id="b"><path d="M0 47h16v16.637H0Zm0 0"/></clipPath></defs><path style="fill:none;stroke-width:.3985;stroke-linecap:butt;stroke-linejoin:miter;stroke:#000;stroke-opacity:1;stroke-miterlimit:10" d="M68.364 45.577a4.694 4.694 0 0 1-6.512 1.301 4.694 4.694 0 0 1-1.3-6.512 4.694 4.694 0 0 1 6.511-1.3 4.694 4.694 0 0 1 1.301 6.511Zm0 0" transform="matrix(1 0 0 -1 5.421 57.753)"/><g clip-path="url(#a)"><path style="fill:none;stroke-width:.3985;stroke-linecap:butt;stroke-linejoin:miter;stroke:#000;stroke-opacity:1;stroke-miterlimit:10" d="m2.927 1.952 57.457 38.305m8.148 5.43L85.04 56.694" transform="matrix(1 0 0 -1 5.421 57.753)"/></g><g clip-path="url(#b)"><path style="fill:none;stroke-width:.3985;stroke-linecap:butt;stroke-linejoin:miter;stroke:#000;stroke-opacity:1;stroke-miterlimit:10" d="M.923 4.605-4.605.92-.92-4.606 4.606-.923Zm0 0" transform="matrix(1 0 0 -1 5.421 57.753)"/></g></svg>