<svg xmlns="http://www.w3.org/2000/svg" width="87.32pt" height="79.587" viewBox="0 0 87.32 59.69" version="1.2"><defs><clipPath id="a"><path d="M0 24h35v35.535H0Zm0 0"/></clipPath><clipPath id="b"><path d="M0 0h35v59.535H0Zm0 0"/></clipPath></defs><path style="fill:none;stroke-width:.19925;stroke-linecap:butt;stroke-linejoin:miter;stroke:gray;stroke-opacity:1;stroke-miterlimit:10" d="M-.001-.002h85.043M-.001 28.346h85.043M-.001 56.682h85.043M-.001-.002v56.696M28.347-.002v56.696M56.694-.002v56.696M85.03-.002v56.696" transform="matrix(1 0 0 -1 .841 58.385)"/><g clip-path="url(#a)"><path style="fill:none;stroke-width:.3985;stroke-linecap:butt;stroke-linejoin:miter;stroke:#000;stroke-opacity:1;stroke-miterlimit:10" d="m-.001-.002 28.348 28.348V-.002" transform="matrix(1 0 0 -1 .841 58.385)"/></g><g clip-path="url(#b)"><path style="fill:none;stroke-width:.3985;stroke-linecap:butt;stroke-linejoin:miter;stroke:#00f;stroke-opacity:1;stroke-miterlimit:10" d="m-.001-.002 28.348 56.696V28.346" transform="matrix(1 0 0 -1 .841 58.385)"/></g><path style="fill:none;stroke-width:.3985;stroke-linecap:butt;stroke-linejoin:miter;stroke:red;stroke-opacity:1;stroke-miterlimit:10" d="m28.346 28.346 28.348 28.348H28.346" transform="matrix(1 0 0 -1 .841 58.385)"/></svg>