<svg xmlns="http://www.w3.org/2000/svg" width="58.635" height="48.315" viewBox="0 0 43.976 36.236" version="1.2"><defs><clipPath id="a"><path d="M0 17h11v18.855H0Zm0 0"/></clipPath><clipPath id="b"><path d="M0 17h15v18.855H0Zm0 0"/></clipPath><clipPath id="c"><path d="M6 17h16v18.855H6Zm0 0"/></clipPath><clipPath id="d"><path d="M10 17h16v18.855H10Zm0 0"/></clipPath><clipPath id="e"><path d="M18 17h16v18.855H18Zm0 0"/></clipPath><clipPath id="f"><path d="M22 17h16v18.855H22Zm0 0"/></clipPath><clipPath id="g"><path d="M27 6h16.965v24H27Zm0 0"/></clipPath><clipPath id="h"><path d="M29 17h14.965v18.855H29Zm0 0"/></clipPath><clipPath id="i"><path d="M33 17h10.965v18.855H33Zm0 0"/></clipPath></defs><path style="fill:none;stroke-width:.3985;stroke-linecap:butt;stroke-linejoin:miter;stroke:#000;stroke-opacity:1;stroke-miterlimit:10" d="m.002.001-11.34-11.34M-11.338-11.339l-5.668-11.34" transform="matrix(1 0 0 -1 21.975 .763)"/><g clip-path="url(#a)"><path style="fill:none;stroke-width:.3985;stroke-linecap:butt;stroke-linejoin:miter;stroke:#000;stroke-opacity:1;stroke-miterlimit:10" d="m-17.006-22.678-3.782-11.336" transform="matrix(1 0 0 -1 21.975 .763)"/></g><g clip-path="url(#b)"><path style="fill:none;stroke-width:.3985;stroke-linecap:butt;stroke-linejoin:miter;stroke:#000;stroke-opacity:1;stroke-miterlimit:10" d="m-17.006-22.678 3.777-11.336" transform="matrix(1 0 0 -1 21.975 .763)"/></g><path style="fill:none;stroke-width:.3985;stroke-linecap:butt;stroke-linejoin:miter;stroke:#000;stroke-opacity:1;stroke-miterlimit:10" d="m-11.338-11.339 5.668-11.34" transform="matrix(1 0 0 -1 21.975 .763)"/><g clip-path="url(#c)"><path style="fill:none;stroke-width:.3985;stroke-linecap:butt;stroke-linejoin:miter;stroke:#000;stroke-opacity:1;stroke-miterlimit:10" d="m-5.67-22.678-3.778-11.336" transform="matrix(1 0 0 -1 21.975 .763)"/></g><g clip-path="url(#d)"><path style="fill:none;stroke-width:.3985;stroke-linecap:butt;stroke-linejoin:miter;stroke:#000;stroke-opacity:1;stroke-miterlimit:10" d="m-5.67-22.678 3.78-11.336" transform="matrix(1 0 0 -1 21.975 .763)"/></g><path style="fill:none;stroke-width:.3985;stroke-linecap:butt;stroke-linejoin:miter;stroke:#000;stroke-opacity:1;stroke-miterlimit:10" d="m.002.001 11.335-11.34M11.338-11.339 5.67-22.679" transform="matrix(1 0 0 -1 21.975 .763)"/><g clip-path="url(#e)"><path style="fill:none;stroke-width:.3985;stroke-linecap:butt;stroke-linejoin:miter;stroke:#000;stroke-opacity:1;stroke-miterlimit:10" d="M5.67-22.678 1.888-34.014" transform="matrix(1 0 0 -1 21.975 .763)"/></g><g clip-path="url(#f)"><path style="fill:none;stroke-width:.3985;stroke-linecap:butt;stroke-linejoin:miter;stroke:#000;stroke-opacity:1;stroke-miterlimit:10" d="m5.67-22.678 3.78-11.336" transform="matrix(1 0 0 -1 21.975 .763)"/></g><g clip-path="url(#g)"><path style="fill:none;stroke-width:.3985;stroke-linecap:butt;stroke-linejoin:miter;stroke:#000;stroke-opacity:1;stroke-miterlimit:10" d="m11.338-11.339 5.671-11.34" transform="matrix(1 0 0 -1 21.975 .763)"/></g><g clip-path="url(#h)"><path style="fill:none;stroke-width:.3985;stroke-linecap:butt;stroke-linejoin:miter;stroke:#000;stroke-opacity:1;stroke-miterlimit:10" d="m17.01-22.678-3.782-11.336" transform="matrix(1 0 0 -1 21.975 .763)"/></g><g clip-path="url(#i)"><path style="fill:none;stroke-width:.3985;stroke-linecap:butt;stroke-linejoin:miter;stroke:#000;stroke-opacity:1;stroke-miterlimit:10" d="m17.01-22.678 3.777-11.336" transform="matrix(1 0 0 -1 21.975 .763)"/></g></svg>