<svg xmlns="http://www.w3.org/2000/svg" width="29.269" height="5.403" viewBox="0 0 21.952 4.052" version="1.2"><defs><clipPath id="a"><path d="M11 0h10.93v3.578H11Zm0 0"/></clipPath></defs><path style="fill:none;stroke-width:.3985;stroke-linecap:butt;stroke-linejoin:miter;stroke:#000;stroke-opacity:1;stroke-miterlimit:10" d="M0 2.213h16.468" transform="matrix(1 0 0 -1 .985 4.576)"/><path style="stroke:none;fill-rule:nonzero;fill:#000;fill-opacity:1" d="M20.71 2.363A1.63 1.63 0 0 0 19.083.734a1.63 1.63 0 0 0-1.629 1.63Zm0 0"/><g clip-path="url(#a)"><path style="fill:none;stroke-width:.3985;stroke-linecap:butt;stroke-linejoin:miter;stroke:#000;stroke-opacity:1;stroke-miterlimit:10" d="M3.457.001A1.63 1.63 0 0 1 1.828 1.63 1.63 1.63 0 0 1 .2 0Zm0 0" transform="matrix(1 0 0 -1 17.254 2.364)"/></g></svg>