<svg xmlns="http://www.w3.org/2000/svg" xmlns:xlink="http://www.w3.org/1999/xlink" width="125.283" height="78.531" viewBox="0 0 93.962 58.898" version="1.2"><defs><symbol overflow="visible" id="a"><path style="stroke:none" d="M.063-5.516c-.235-.015-.25.094-.25.235-.047.61-.172.61-.407.593l-2.14-.109c-.891-.047-1.579.625-1.657 2.11-.03.562-.046 1.78.829 1.828a.608.608 0 0 0 .656-.579c.015-.312-.172-.64-.578-.656A.7.7 0 0 0-4-1.906c-.031-.282-.031-.61-.031-.719.047-.75.484-1.094 1.234-1.047l.344.016c0 .719-.047 3.25 1.39 3.328C-.109-.266.141-1.5.173-2.188c.047-.796-.328-1.28-.734-1.53.312.015.765.046.812-1l.031-.47c0-.203.016-.312-.219-.328Zm-1.266 1.922c.969.063 1.047.985 1.031 1.235-.031.515-.39.89-.844.859-1.062-.047-1.125-1.64-1.125-2.14Zm0 0"/></symbol><symbol overflow="visible" id="b"><path style="stroke:none" d="M-.047-7.5c-1.531-.563-2.922.11-3.5 1.625A2.772 2.772 0 0 0-3.594-4L-6.89-5.234l-.656 1.968.484.188c.266-.688.297-.781.735-.625L.438-1.172l.171-.469c-.14-.265-.28-.53-.421-.78.78-.36 1.156-.923 1.328-1.376.578-1.547.062-3.094-1.563-3.703Zm-.5 1.36c.5.187 1.14.421 1.438.827.421.563.312 1.141.187 1.485-.281.765-.953.969-1.266 1.031l-2.859-1.062a1.914 1.914 0 0 1-.187-1.72c.515-1.374 1.937-.843 2.687-.562Zm0 0"/></symbol><symbol overflow="visible" id="c"><path style="stroke:none" d="M1.922-2.719 1.5-3.016l-.422.594-3.969-2.797L-3.984-3.5l.421.297c.407-.578.454-.64.829-.375L.359-1.391l-.468.657.421.296c.11-.234.594-.906.782-1.171.187-.266.625-.891.828-1.11ZM-4.36-6.422a.868.868 0 0 0-1.204.203A.887.887 0 0 0-5.359-5c.39.281.937.156 1.203-.203.281-.406.187-.953-.203-1.219Zm0 0"/></symbol><symbol overflow="visible" id="d"><path style="stroke:none" d="M2.016-7.828c-.172-.219-.594-.375-.985-.063-.406.329-.61.813-.672 1.157-.578.093-1 .312-1.468.703C-2.375-5-2.313-3.86-1.781-3.22c.234.281.64.578 1.281.563 0 .328.094.797.36 1.125.328.39.812.562 1.156.547C.812-.75.437-.063.859.453c.454.563 1.547.688 3.266-.719C5.656-1.516 6-2.656 5.438-3.344c-.672-.812-1.422-.64-1.735-.578-.625.156-1.219.64-2.031 1.297-.219.188-.64.531-.703.547-.438.265-.828.015-.985-.172a.56.56 0 0 1-.156-.422c.64-.11 1.156-.531 1.297-.64 1.281-1.063 1.188-2.188.656-2.829A1.68 1.68 0 0 0 .688-6.75c.156-.344.328-.563.468-.719.016.063.016.125.11.235.156.203.437.28.687.078.234-.188.219-.469.063-.672ZM.812-5.344c.344.422.875 1.063.063 1.735-.797.64-1.328 0-1.672-.422-.344-.438-.875-1.078-.078-1.719.813-.672 1.344-.031 1.688.406ZM4.72-2.687c.265.328.375 1.124-.844 2.124-1.219 1-1.984.766-2.266.407-.484-.594.094-1.094.235-1.203l1.047-.86c.687-.547 1.421-.953 1.828-.469Zm0 0"/></symbol><symbol overflow="visible" id="e"><path style="stroke:none" d="M3.734-5.64c-.156-.579-.843-.735-1.406-.594-.906.25-1.062 1.156-1.11 1.687v.016L.86-5.813-1-5.202l.14.5c.704-.203.797-.219.922.234l1 3.64-.796.22.14.5c.235-.11 1.11-.344 1.438-.438.328-.094 1.265-.344 1.562-.39l-.14-.5-1.016.28-.578-2.093c-.094-.375-.531-2.234.828-2.61-.14.157-.156.391-.11.594a.69.69 0 0 0 .86.5c.281-.078.625-.39.484-.875Zm0 0"/></symbol><symbol overflow="visible" id="f"><path style="stroke:none" d="M5.484-2.203c-.015-.172-.203-.14-.265-.14-.172.03-.188.062-.25.234-.203.812-.938 1.171-1.5 1.25-1.719.25-1.953-1.344-2.047-2l3.562-.516c.25-.031.329-.047.282-.344-.047-.36-.25-1.234-.875-1.703-.579-.453-1.266-.516-1.938-.406C.61-5.578-.219-4.203 0-2.703.234-1.047 1.61-.156 3.39-.406c1.797-.25 2.126-1.578 2.094-1.797ZM4.188-3.61l-2.813.406c-.063-.516-.11-.953.078-1.422a1.31 1.31 0 0 1 1.063-.797c1.265-.187 1.578 1.219 1.671 1.813Zm0 0"/></symbol><symbol overflow="visible" id="g"><path style="stroke:none" d="M7.031-.375 7-.891c-.75.032-.828.032-.844-.437L5.75-8.625l-2.047.219.016.515c.75-.046.828-.046.86.422l.124 2.39c-.266-.202-.812-.5-1.64-.468-1.704.094-2.844 1.188-2.75 2.86C.405-.97 1.64-.017 3.233-.095a2.483 2.483 0 0 0 1.641-.719l.031.625ZM4.844-1.469c-.469.75-1.063.938-1.485.953-1.484.079-1.562-1.437-1.609-2.218-.031-.563-.063-1.172.172-1.625.328-.688 1.047-.797 1.312-.813.5-.031 1.032.156 1.438.656Zm0 0"/></symbol><symbol overflow="visible" id="h"><path style="stroke:none" d="M2.656.406 2.641-4.5l-1.829.094v.468c.172 0 .391 0 .532.016.218.047.218.172.218.39L1.579.423c0 .5-.14 1.219-.734 1.219-.172 0-.25-.032-.39-.063a.624.624 0 0 0 .233-.5.617.617 0 0 0-.625-.625c-.374 0-.625.281-.625.64 0 .563.61.907 1.422.907.86 0 1.797-.547 1.797-1.594Zm-.015-6.468a.757.757 0 0 0-.766-.766.774.774 0 1 0 0 1.547.78.78 0 0 0 .766-.782Zm0 0"/></symbol><symbol overflow="visible" id="i"><path style="stroke:none" d="M6.125 0v-.469c-.61 0-.688 0-.688-.39v-3.625l-1.812.078v.468c.61 0 .688 0 .688.391v1.906c0 .813-.516 1.344-1.235 1.344-.781 0-.812-.25-.812-.797v-3.39l-1.813.078v.468c.61 0 .688 0 .688.391v2.328c0 1.063.796 1.282 1.796 1.282.25 0 .97 0 1.422-.782v.781Zm0 0"/></symbol><symbol overflow="visible" id="j"><path style="stroke:none" d="M2.844-.047v-.469l-.61.016-.062-4.016-1.735.11v.468c.594-.015.657-.015.672.376l.047 3.078L.47-.47V0l1.219-.063ZM2.28-6.078a.751.751 0 0 0-.781-.766.784.784 0 0 0-.781.782.805.805 0 0 0 .797.765c.437-.016.78-.36.765-.781Zm0 0"/></symbol><symbol overflow="visible" id="k"><path style="stroke:none" d="M4.719-1.36c0-.14-.14-.14-.235-.124-.187 0-.187.03-.25.156-.218.64-.703.844-1.203.86-1.39.062-1.453-1.391-1.469-1.86-.015-.563-.062-1.844 1.22-1.89.359-.016.515-.016.655.015-.187.172-.187.375-.187.469a.61.61 0 0 0 .64.609c.313-.016.626-.25.61-.656-.031-.86-1.188-.875-1.766-.844C.938-4.562.25-3.391.281-2.235.344-.905 1.312.016 2.844-.046 4.469-.109 4.719-1.28 4.719-1.359Zm0 0"/></symbol><symbol overflow="visible" id="l"><path style="stroke:none" d="m5.375-4.5-.047-.469a6.45 6.45 0 0 1-.766.11l-.906.062.047.469s.469-.047.469.062l-.047.125-.906 2.547L1.703-4.14l.531-.046-.046-.47-1.22.141-1.124.079.047.468.625-.062L2.75-.266l-.188.5c-.171.5-.421 1.22-1.124 1.282-.141.015-.157 0-.235-.016.094-.047.297-.203.266-.563C1.437.61 1.172.391.829.422c-.266.031-.548.25-.5.64.046.5.546.86 1.14.797.75-.078 1.265-.734 1.5-1.328l1.687-4.75c.047-.156.078-.218.719-.281Zm0 0"/></symbol><symbol overflow="visible" id="m"><path style="stroke:none" d="M5.219-1.813C5.14-2.046 5.016-2 4.89-1.968c-.594.157-.625.047-.704-.187l-.609-2.047c-.25-.844-1.11-1.266-2.531-.828-.531.156-1.688.562-1.438 1.406.125.422.5.484.766.406a.596.596 0 0 0 .422-.765.713.713 0 0 0-.375-.422 9.09 9.09 0 0 1 .672-.266c.718-.219 1.187.078 1.406.797l.094.328C1.922-3.312-.47-2.484-.062-1.109c.28.906 1.515.734 2.171.546.766-.234 1.11-.765 1.188-1.234.094.297.219.734 1.219.438l.453-.141c.187-.047.312-.094.25-.313Zm-2.266-.53c.281.921-.547 1.312-.781 1.39-.5.14-.985-.078-1.11-.516C.75-2.484 2.234-3.079 2.688-3.25Zm0 0"/></symbol><symbol overflow="visible" id="n"><path style="stroke:none" d="M4.156-4.844C3.516-6 2.266-6.39 1.016-5.687c-.657.359-.985.906-1.079 1.14l-.234-.422-1.516.922.235.422c.531-.297.594-.328.766 0L1.64.765l-.594.329.219.406L2.344.89l1.11-.593-.22-.406-.609.328-.906-1.625c.562.078.984-.032 1.343-.235 1.313-.718 1.766-2 1.094-3.203Zm-1.125.625c.688 1.235.328 2.016-.234 2.328-.125.063-.531.297-1.188.047-.171-.062-.187-.078-.265-.25L.312-3.938c-.093-.156-.078-.171-.03-.374.156-.547.593-.844.78-.954.579-.328 1.36-.062 1.97 1.047Zm0 0"/></symbol><symbol overflow="visible" id="o"><path style="stroke:none" d="M2.469-5.875c-.969-.906-2.266-.89-3.25.156-.5.547-.656 1.14-.672 1.422l-.344-.328-1.172 1.328.344.328c.422-.437.484-.5.766-.25L1.812.22l-.484.5.328.328L2.5.109l.875-.875-.328-.328-.469.5-1.36-1.265c.548-.094.923-.329 1.204-.625 1.031-1.094 1.062-2.454.047-3.391Zm-.875.922c1.031.953.922 1.828.484 2.297-.094.11-.422.453-1.11.406-.171 0-.187-.016-.327-.14L-.891-3.845c-.14-.125-.156-.156-.14-.344-.032-.578.281-.984.437-1.156.438-.468 1.266-.484 2.188.39Zm0 0"/></symbol><symbol overflow="visible" id="p"><path style="stroke:none" d="M1.438-2.547 1.03-2.78l-.343.594-5.625-3.157-.797 1.578.406.235c.297-.547.328-.594.672-.406L.156-1.235l-.328.593.406.235.563-1.078Zm0 0"/></symbol><symbol overflow="visible" id="q"><path style="stroke:none" d="M.484-5.031c-.156-.063-.203.11-.218.156-.063.172-.016.203.093.297.391.36.5 1.016.297 1.61-.469 1.343-1.719.921-2.187.765l.984-2.86c.063-.203.094-.296-.172-.39-.281-.094-1-.281-1.625.031-.469.234-.797.672-1.015 1.328-.516 1.5.171 2.657 1.343 3.063C-.75-.594.484-1.22 1.016-2.75 1.53-4.234.64-4.984.484-5.031Zm-1.546.453-.782 2.266c-.375-.141-.75-.297-1-.61a1.16 1.16 0 0 1-.187-1.062c.375-1.11 1.64-.688 1.969-.594Zm0 0"/></symbol><symbol overflow="visible" id="r"><path style="stroke:none" d="M-.328-2.453c-.422-.078-.828.172-.906.61a.788.788 0 0 0 .625.905.78.78 0 0 0 .906-.609.772.772 0 0 0-.625-.906Zm0 0"/></symbol></defs><path style="fill:none;stroke-width:.19925;stroke-linecap:butt;stroke-linejoin:miter;stroke:gray;stroke-opacity:1;stroke-miterlimit:10" d="M.002 0H85.04M0 28.347h85.04M0 56.683h85.04M0 0v56.695M28.347 0v56.695M56.693 0v56.695M85.03 0v56.695" transform="matrix(1 0 0 -1 7.795 57.742)"/><use xlink:href="#a" x="7.718" y="57.738" style="fill:#000;fill-opacity:1"/><use xlink:href="#b" x="8.496" y="48.338" style="fill:#000;fill-opacity:1"/><use xlink:href="#c" x="11.32" y="41.403" style="fill:#000;fill-opacity:1"/><use xlink:href="#d" x="13.358" y="38.181" style="fill:#000;fill-opacity:1"/><use xlink:href="#e" x="22.76" y="32.14" style="fill:red;fill-opacity:1"/><use xlink:href="#f" x="28.07" y="30.684" style="fill:red;fill-opacity:1"/><use xlink:href="#g" x="34.145" y="29.816" style="fill:red;fill-opacity:1"/><use xlink:href="#h" x="45.417" y="29.404" style="fill:#000;fill-opacity:1"/><use xlink:href="#i" x="48.912" y="29.398" style="fill:#000;fill-opacity:1"/><use xlink:href="#j" x="55.277" y="29.387" style="fill:#000;fill-opacity:1"/><use xlink:href="#k" x="58.453" y="29.358" style="fill:#000;fill-opacity:1"/><use xlink:href="#l" x="63.544" y="29.186" style="fill:#000;fill-opacity:1"/><use xlink:href="#m" x="73.338" y="27.957" style="fill:#000;fill-opacity:1"/><use xlink:href="#n" x="78.726" y="26.421" style="fill:#000;fill-opacity:1"/><use xlink:href="#o" x="84.354" y="23.321" style="fill:#000;fill-opacity:1"/><use xlink:href="#p" x="88.563" y="18.537" style="fill:#000;fill-opacity:1"/><use xlink:href="#q" x="90.201" y="15.786" style="fill:#000;fill-opacity:1"/><use xlink:href="#r" x="91.828" y="10.788" style="fill:#000;fill-opacity:1"/></svg>