<svg xmlns="http://www.w3.org/2000/svg" width="126.963" height="70.4pt" viewBox="0 0 95.222 70.4" version="1.2"><defs><clipPath id="a"><path d="M27 23h34v47.102H27Zm0 0"/></clipPath></defs><path style="fill:none;stroke-width:.19925;stroke-linecap:butt;stroke-linejoin:miter;stroke:gray;stroke-opacity:1;stroke-miterlimit:10" d="M0 0h85.039M-.001 28.349h85.04M-.001 56.684h85.04M-.001.001v56.691M28.348.001v56.691M56.695.001v56.691M85.03.001v56.691" transform="matrix(1 0 0 -1 8.688 57.493)"/><path style="fill:none;stroke-width:.3985;stroke-linecap:butt;stroke-linejoin:miter;stroke:#000;stroke-opacity:1;stroke-miterlimit:10" d="m0 0 28.347 28.348V.001" transform="matrix(1 0 0 -1 8.688 57.493)"/><g clip-path="url(#a)"><path style="fill:none;stroke-width:.3985;stroke-linecap:butt;stroke-linejoin:miter;stroke:#00f;stroke-opacity:1;stroke-miterlimit:10" d="m24.855-11.589 3.492 39.937L46.57 6.634" transform="matrix(1 0 0 -1 8.688 57.493)"/></g><path style="fill:none;stroke-width:.3985;stroke-linecap:butt;stroke-linejoin:miter;stroke:red;stroke-opacity:1;stroke-miterlimit:10" d="m-7.985 11.403 36.332 16.945-9.695-26.64" transform="matrix(1 0 0 -1 8.688 57.493)"/></svg>