<svg xmlns="http://www.w3.org/2000/svg" width="116.955" height="78.867" viewBox="0 0 87.716 59.15" version="1.2"><defs><clipPath id="a"><path d="M0 0h87.574v58.727H0Zm0 0"/></clipPath></defs><path style="fill:none;stroke-width:.19925;stroke-linecap:butt;stroke-linejoin:miter;stroke:gray;stroke-opacity:1;stroke-miterlimit:10" d="M0 .001h85.042M0 28.345h85.043M0 56.685h85.043M0 .001v56.692M28.347 0v56.692M56.695 0v56.692M85.03 0v56.692" transform="matrix(1 0 0 -1 1.075 57.521)"/><path style="stroke:none;fill-rule:nonzero;fill:#d2c92a;fill-opacity:1" d="m1.074 57.52 85.04-28.344L43.593.828 1.074 29.176V57.52"/><g clip-path="url(#a)"><path style="fill:none;stroke-width:.3985;stroke-linecap:butt;stroke-linejoin:miter;stroke:#000;stroke-opacity:1;stroke-miterlimit:10" d="m0 .001 85.038 28.344-42.52 28.348L0 28.345V.001" transform="matrix(1 0 0 -1 1.075 57.521)"/></g></svg>