<svg xmlns="http://www.w3.org/2000/svg" width="64.035" height="16.443" viewBox="0 0 48.026 12.332" version="1.2"><defs><clipPath id="a"><path d="M0 0h47.54v11.996H0Zm0 0"/></clipPath><clipPath id="b"><path d="M0 1h10v10.996H0Zm0 0"/></clipPath><clipPath id="c"><path d="M23 1h15v10.996H23Zm0 0"/></clipPath><clipPath id="d"><path d="M37 0h10.54v11H37Zm0 0"/></clipPath></defs><g clip-path="url(#a)"><path style="fill:none;stroke-width:.3985;stroke-linecap:butt;stroke-linejoin:miter;stroke:#bfbfbf;stroke-opacity:1;stroke-miterlimit:10" d="M-.001-.001 14.175 5.67 28.346-.001 42.518 5.67" transform="matrix(1 0 0 -1 2.259 8.663)"/></g><path style="stroke:none;fill-rule:nonzero;fill:#d2c92a;fill-opacity:1" d="m2.258 6.672 1.496 1.992-1.496 1.992L.766 8.664Zm0 0"/><g clip-path="url(#b)"><path style="fill:none;stroke-width:.3985;stroke-linecap:butt;stroke-linejoin:miter;stroke:#000;stroke-opacity:1;stroke-miterlimit:10" d="M-.001 1.991 1.495 0-.001-1.993-1.493-.001Zm0 0" transform="matrix(1 0 0 -1 2.259 8.663)"/></g><path style="fill-rule:nonzero;fill:#d2c92a;fill-opacity:1;stroke-width:.3985;stroke-linecap:butt;stroke-linejoin:miter;stroke:#000;stroke-opacity:1;stroke-miterlimit:10" d="m14.175 7.663 1.492-1.992-1.492-1.992-1.497 1.992Zm0 0" transform="matrix(1 0 0 -1 2.259 8.663)"/><path style="stroke:none;fill-rule:nonzero;fill:#d2c92a;fill-opacity:1" d="m30.605 6.672 1.497 1.992-1.497 1.992-1.492-1.992Zm0 0"/><g clip-path="url(#c)"><path style="fill:none;stroke-width:.3985;stroke-linecap:butt;stroke-linejoin:miter;stroke:#000;stroke-opacity:1;stroke-miterlimit:10" d="M28.346 1.991 29.843 0l-1.497-1.992-1.492 1.992Zm0 0" transform="matrix(1 0 0 -1 2.259 8.663)"/></g><path style="stroke:none;fill-rule:nonzero;fill:#d2c92a;fill-opacity:1" d="m44.777 1 1.496 1.992-1.496 1.992-1.492-1.992Zm0 0"/><g clip-path="url(#d)"><path style="fill:none;stroke-width:.3985;stroke-linecap:butt;stroke-linejoin:miter;stroke:#000;stroke-opacity:1;stroke-miterlimit:10" d="m42.518 7.663 1.496-1.992-1.496-1.992-1.492 1.992Zm0 0" transform="matrix(1 0 0 -1 2.259 8.663)"/></g></svg>