<svg xmlns="http://www.w3.org/2000/svg" xmlns:xlink="http://www.w3.org/1999/xlink" width="117.117" height="222.987" viewBox="0 0 87.838 167.24" version="1.2"><defs><symbol overflow="visible" id="a"><path style="stroke:none" d="M3.89-3.734c-.265.015-.468.234-.468.453 0 .14.094.297.312.297.22 0 .454-.172.454-.563 0-.453-.422-.86-1.188-.86-1.313 0-1.688 1.016-1.688 1.454 0 .781.735.922 1.032.984.515.11 1.031.219 1.031.766 0 .25-.219 1.094-1.422 1.094-.14 0-.906 0-1.14-.532.39.047.64-.25.64-.53 0-.22-.172-.345-.375-.345-.266 0-.562.204-.562.657 0 .562.578.968 1.421.968 1.625 0 2.016-1.203 2.016-1.656a.97.97 0 0 0-.312-.719c-.266-.28-.563-.343-1-.421-.36-.079-.75-.157-.75-.61 0-.281.234-.89 1.109-.89.25 0 .75.078.89.453Zm0 0"/></symbol><symbol overflow="visible" id="b"><path style="stroke:none" d="M6.734-5.922c.11-.047.188-.094.188-.219a.197.197 0 0 0-.203-.203c-.047 0-.14.047-.172.063L1.03-3.671c-.172.077-.203.14-.203.218 0 .094.063.156.203.219L6.547-.641c.125.079.14.079.172.079.11 0 .203-.094.203-.204 0-.093-.047-.156-.219-.234L1.5-3.453ZM6.563 1.36c.171 0 .359 0 .359-.187 0-.203-.219-.203-.36-.203H1.188c-.156 0-.359 0-.359.203 0 .187.172.187.344.187Zm0 0"/></symbol><symbol overflow="visible" id="c"><path style="stroke:none" d="M2.89-3.516c.813-.265 1.391-.953 1.391-1.75 0-.812-.875-1.375-1.828-1.375-1 0-1.765.594-1.765 1.36 0 .328.218.515.515.515.297 0 .5-.218.5-.515 0-.485-.469-.485-.61-.485.298-.5.954-.625 1.313-.625.422 0 .969.22.969 1.11 0 .125-.031.703-.281 1.14-.297.485-.64.516-.89.516a3.29 3.29 0 0 1-.392.031c-.078.016-.14.031-.14.125 0 .11.062.11.234.11h.438c.812 0 1.187.671 1.187 1.656 0 1.36-.687 1.64-1.125 1.64-.437 0-1.187-.171-1.531-.75.344.047.656-.171.656-.546a.537.537 0 0 0-.547-.563c-.25 0-.562.14-.562.578C.422-.437 1.344.22 2.437.22c1.22 0 2.126-.906 2.126-1.922 0-.813-.641-1.594-1.672-1.813Zm0 0"/></symbol><symbol overflow="visible" id="e"><path style="stroke:none" d="M5.156-2.219h-.468c-.032.203-.125.844-.266.906-.11.063-.86.063-1.016.063H1.937c.47-.39 1-.813 1.438-1.14 1.14-.844 1.781-1.313 1.781-2.25 0-1.157-1.047-1.891-2.437-1.891-1.219 0-2.156.625-2.156 1.515 0 .594.484.735.718.735C1.61-4.281 2-4.5 2-5c0-.516-.422-.672-.563-.719.282-.234.672-.343 1.032-.343.844 0 1.312.671 1.312 1.421 0 .688-.375 1.375-1.078 2.079l-2 2.046c-.14.11-.14.141-.14.344V0h4.28Zm0 0"/></symbol><clipPath id="d"><path d="M24 137h40v29.86H24Zm0 0"/></clipPath></defs><path style="fill-rule:nonzero;fill:#ccf;fill-opacity:1;stroke-width:.79701;stroke-linecap:butt;stroke-linejoin:miter;stroke:#8080ff;stroke-opacity:1;stroke-miterlimit:10" d="M8.506 0A8.506 8.506 0 0 1 .002 8.506a8.504 8.504 0 1 1 0-17.008A8.503 8.503 0 0 1 8.506.001Zm0 0" transform="matrix(1 0 0 -1 43.838 9.54)"/><path style="stroke:none;fill-rule:nonzero;fill:#000;fill-opacity:1" d="M46.05 9.54a2.214 2.214 0 0 0-4.425 0 2.212 2.212 0 0 0 4.426 0Zm0 0"/><path style="fill-rule:nonzero;fill:#ccf;fill-opacity:1;stroke-width:.79701;stroke-linecap:butt;stroke-linejoin:miter;stroke:#8080ff;stroke-opacity:1;stroke-miterlimit:10" d="M8.506-36.85a8.506 8.506 0 0 1-8.504 8.503c-4.7 0-8.508-3.808-8.508-8.504 0-4.695 3.809-8.504 8.508-8.504a8.506 8.506 0 0 1 8.504 8.504ZM8.506-73.702a8.506 8.506 0 0 1-8.504 8.504c-4.7 0-8.508-3.809-8.508-8.504 0-4.695 3.809-8.504 8.508-8.504a8.506 8.506 0 0 1 8.504 8.504Zm0 0" transform="matrix(1 0 0 -1 43.838 9.54)"/><use xlink:href="#a" x="32.371" y="69.465" style="fill:red;fill-opacity:1"/><use xlink:href="#b" x="39.808" y="69.465" style="fill:red;fill-opacity:1"/><use xlink:href="#c" x="50.324" y="69.465" style="fill:red;fill-opacity:1"/><path style="fill-rule:nonzero;fill:#ccf;fill-opacity:1;stroke-width:.79701;stroke-linecap:butt;stroke-linejoin:miter;stroke:#8080ff;stroke-opacity:1;stroke-miterlimit:10" d="M8.506-110.554c0 4.7-3.809 8.504-8.504 8.504a8.504 8.504 0 1 1 0-17.008 8.506 8.506 0 0 1 8.504 8.504Zm0 0" transform="matrix(1 0 0 -1 43.838 9.54)"/><path style="stroke:none;fill-rule:nonzero;fill:#ccf;fill-opacity:1" d="M52.344 156.945c0-4.699-3.809-8.504-8.504-8.504a8.504 8.504 0 1 0 0 17.008 8.506 8.506 0 0 0 8.504-8.504Zm0 0"/><g clip-path="url(#d)"><path style="fill:none;stroke-width:.79701;stroke-linecap:butt;stroke-linejoin:miter;stroke:#8080ff;stroke-opacity:1;stroke-miterlimit:10" d="M8.506-147.405c0 4.699-3.809 8.504-8.504 8.504a8.504 8.504 0 1 1 0-17.008 8.506 8.506 0 0 1 8.504 8.504Zm0 0" transform="matrix(1 0 0 -1 43.838 9.54)"/></g><path style="stroke:none;fill-rule:nonzero;fill:#000;fill-opacity:1" d="M46.05 156.945a2.215 2.215 0 0 0-2.21-2.215 2.216 2.216 0 0 0-2.215 2.215 2.214 2.214 0 0 0 4.426 0Zm0 0"/><path style="fill-rule:nonzero;fill:#ccc;fill-opacity:1;stroke-width:.79701;stroke-linecap:butt;stroke-linejoin:miter;stroke:gray;stroke-opacity:1;stroke-miterlimit:10" d="M-42.522-42.519h11.34v11.336h-11.34Zm0 0" transform="matrix(1 0 0 -1 43.838 9.54)"/><path style="fill:none;stroke-width:.3985;stroke-linecap:butt;stroke-linejoin:miter;stroke:#000;stroke-opacity:1;stroke-miterlimit:10" d="M-36.799-27.093C-35.689-12.526-23.873-.722-8.904.001" transform="matrix(1 0 0 -1 43.838 9.54)"/><path style="fill-rule:nonzero;fill:#000;fill-opacity:1;stroke-width:.3985;stroke-linecap:butt;stroke-linejoin:round;stroke:#000;stroke-opacity:1;stroke-miterlimit:10" d="M4.216-.001.642 1.345 1.816.001.646-1.347Zm0 0" transform="scale(-.99997 .99997) rotate(88.094 -21.6 13.787)"/><path style="fill:none;stroke-width:.3985;stroke-linecap:butt;stroke-linejoin:miter;stroke:#000;stroke-opacity:1;stroke-miterlimit:10" d="M-36.85-42.917c-.722-14.973 9.887-27.871 24.282-30.379" transform="matrix(1 0 0 -1 43.838 9.54)"/><path style="fill-rule:nonzero;fill:#000;fill-opacity:1;stroke-width:.3985;stroke-linecap:butt;stroke-linejoin:round;stroke:#000;stroke-opacity:1;stroke-miterlimit:10" d="M4.213-.001.642 1.345 1.818.002.642-1.345Zm0 0" transform="matrix(.99155 .12933 .12933 -.99155 29.564 82.606)"/><path style="fill:none;stroke-width:.3985;stroke-linecap:butt;stroke-linejoin:miter;stroke:#000;stroke-opacity:1;stroke-miterlimit:10" d="M-30.783-36.85h18.187" transform="matrix(1 0 0 -1 43.838 9.54)"/><path style="fill-rule:nonzero;fill:#000;fill-opacity:1;stroke-width:.3985;stroke-linecap:butt;stroke-linejoin:round;stroke:#000;stroke-opacity:1;stroke-miterlimit:10" d="M4.213 0 .643 1.344 1.818 0 .643-1.347Zm0 0" transform="matrix(1 0 0 -1 29.525 46.39)"/><path style="fill-rule:nonzero;fill:#ccc;fill-opacity:1;stroke-width:.79701;stroke-linecap:butt;stroke-linejoin:miter;stroke:gray;stroke-opacity:1;stroke-miterlimit:10" d="M-42.522-116.222h11.34v11.34h-11.34Zm0 0" transform="matrix(1 0 0 -1 43.838 9.54)"/><path style="fill:none;stroke-width:.3985;stroke-linecap:butt;stroke-linejoin:miter;stroke:#000;stroke-opacity:1;stroke-miterlimit:10" d="M-36.799-120.308c1.11-14.57 12.926-26.375 27.895-27.097" transform="matrix(1 0 0 -1 43.838 9.54)"/><path style="fill-rule:nonzero;fill:#000;fill-opacity:1;stroke-width:.3985;stroke-linecap:butt;stroke-linejoin:round;stroke:#000;stroke-opacity:1;stroke-miterlimit:10" d="M4.215.001.645 1.347 1.818 0 .645-1.346Zm0 0" transform="scale(-.99997 .99997) rotate(-88.094 64.46 69.457)"/><path style="fill:none;stroke-width:.3985;stroke-linecap:butt;stroke-linejoin:miter;stroke:#000;stroke-opacity:1;stroke-miterlimit:10" d="M-36.85-104.483c-.722 14.972 9.887 27.867 24.282 30.375" transform="matrix(1 0 0 -1 43.838 9.54)"/><path style="fill-rule:nonzero;fill:#000;fill-opacity:1;stroke-width:.3985;stroke-linecap:butt;stroke-linejoin:round;stroke:#000;stroke-opacity:1;stroke-miterlimit:10" d="M4.213 0 .643 1.345 1.817 0 .642-1.346Zm0 0" transform="scale(.99995 -.99995) rotate(7.431 660.612 185.696)"/><path style="fill:none;stroke-width:.3985;stroke-linecap:butt;stroke-linejoin:miter;stroke:#000;stroke-opacity:1;stroke-miterlimit:10" d="M-30.783-110.554h18.187" transform="matrix(1 0 0 -1 43.838 9.54)"/><path style="fill-rule:nonzero;fill:#000;fill-opacity:1;stroke-width:.3985;stroke-linecap:butt;stroke-linejoin:round;stroke:#000;stroke-opacity:1;stroke-miterlimit:10" d="M4.213 0 .643 1.346 1.818-.001.643-1.345Zm0 0" transform="matrix(1 0 0 -1 29.525 120.093)"/><path style="fill-rule:nonzero;fill:#ccc;fill-opacity:1;stroke-width:.79701;stroke-linecap:butt;stroke-linejoin:miter;stroke:gray;stroke-opacity:1;stroke-miterlimit:10" d="M31.182-42.519h11.34v11.336h-11.34Zm0 0" transform="matrix(1 0 0 -1 43.838 9.54)"/><path style="fill:none;stroke-width:.3985;stroke-linecap:butt;stroke-linejoin:miter;stroke:#000;stroke-opacity:1;stroke-miterlimit:10" d="M27.092-36.85H8.904" transform="matrix(1 0 0 -1 43.838 9.54)"/><path style="fill-rule:nonzero;fill:#000;fill-opacity:1;stroke-width:.3985;stroke-linecap:butt;stroke-linejoin:round;stroke:#000;stroke-opacity:1;stroke-miterlimit:10" d="M4.215 0 .645 1.344 1.816 0 .645-1.347Zm0 0" transform="matrix(1 0 0 -1 69.21 46.39)"/><path style="fill:none;stroke-width:.3985;stroke-linecap:butt;stroke-linejoin:miter;stroke:#000;stroke-opacity:1;stroke-miterlimit:10" d="M36.799-46.608c-1.11-14.57-12.922-26.372-27.895-27.094" transform="matrix(1 0 0 -1 43.838 9.54)"/><path style="fill-rule:nonzero;fill:#000;fill-opacity:1;stroke-width:.3985;stroke-linecap:butt;stroke-linejoin:round;stroke:#000;stroke-opacity:1;stroke-miterlimit:10" d="M4.216-.001.642 1.346 1.816 0 .642-1.347Zm0 0" transform="scale(.99997 -.99997) rotate(88.094 70.2 12.717)"/><path style="fill:none;stroke-width:.3985;stroke-linecap:butt;stroke-linejoin:miter;stroke:#000;stroke-opacity:1;stroke-miterlimit:10" d="M36.85-30.784c.722 14.972-9.887 27.87-24.282 30.379" transform="matrix(1 0 0 -1 43.838 9.54)"/><path style="fill-rule:nonzero;fill:#000;fill-opacity:1;stroke-width:.3985;stroke-linecap:butt;stroke-linejoin:round;stroke:#000;stroke-opacity:1;stroke-miterlimit:10" d="M4.214-.002.642 1.345 1.818 0 .643-1.346Zm0 0" transform="scale(-.99995 .99995) rotate(-7.431 49.29 452.529)"/><use xlink:href="#e" x="76.61" y="15.624" style="fill:#000;fill-opacity:1"/><path style="fill-rule:nonzero;fill:#ccc;fill-opacity:1;stroke-width:.79701;stroke-linecap:butt;stroke-linejoin:miter;stroke:gray;stroke-opacity:1;stroke-miterlimit:10" d="M31.182-116.222h11.34v11.34h-11.34Zm0 0" transform="matrix(1 0 0 -1 43.838 9.54)"/><path style="fill:none;stroke-width:.3985;stroke-linecap:butt;stroke-linejoin:miter;stroke:#000;stroke-opacity:1;stroke-miterlimit:10" d="M27.092-110.554H8.904" transform="matrix(1 0 0 -1 43.838 9.54)"/><path style="fill-rule:nonzero;fill:#000;fill-opacity:1;stroke-width:.3985;stroke-linecap:butt;stroke-linejoin:round;stroke:#000;stroke-opacity:1;stroke-miterlimit:10" d="M4.215 0 .645 1.346 1.816-.001.645-1.345Zm0 0" transform="matrix(1 0 0 -1 69.21 120.093)"/><path style="fill:none;stroke-width:.3985;stroke-linecap:butt;stroke-linejoin:miter;stroke:#000;stroke-opacity:1;stroke-miterlimit:10" d="M36.799-100.796c-1.11 14.57-12.922 26.371-27.895 27.094" transform="matrix(1 0 0 -1 43.838 9.54)"/><path style="fill-rule:nonzero;fill:#000;fill-opacity:1;stroke-width:.3985;stroke-linecap:butt;stroke-linejoin:round;stroke:#000;stroke-opacity:1;stroke-miterlimit:10" d="M4.213.001.643 1.347 1.817 0 .643-1.346Zm0 0" transform="matrix(.03326 .99942 .99942 -.03326 80.574 108.618)"/><path style="fill:none;stroke-width:.3985;stroke-linecap:butt;stroke-linejoin:miter;stroke:#000;stroke-opacity:1;stroke-miterlimit:10" d="M36.85-116.62c.722-14.973-9.887-27.871-24.282-30.38" transform="matrix(1 0 0 -1 43.838 9.54)"/><path style="fill-rule:nonzero;fill:#000;fill-opacity:1;stroke-width:.3985;stroke-linecap:butt;stroke-linejoin:round;stroke:#000;stroke-opacity:1;stroke-miterlimit:10" d="M4.213-.002.643 1.347 1.818-.001.642-1.344Zm0 0" transform="matrix(-.99155 .12933 .12933 .99155 58.112 156.308)"/><use xlink:href="#e" x="76.61" y="157.384" style="fill:#000;fill-opacity:1"/></svg>