<svg xmlns="http://www.w3.org/2000/svg" width="63.507" height="14.379" viewBox="0 0 47.63 10.784" version="1.2"><defs><clipPath id="a"><path d="M0 0h47.445v10.676H0Zm0 0"/></clipPath><clipPath id="b"><path d="M0 1h10v9.676H0Zm0 0"/></clipPath><clipPath id="c"><path d="M23 1h15v9.676H23Zm0 0"/></clipPath><clipPath id="d"><path d="M37 0h10.445v10H37Zm0 0"/></clipPath></defs><g clip-path="url(#a)"><path style="fill:none;stroke-width:.3985;stroke-linecap:butt;stroke-linejoin:miter;stroke:#bfbfbf;stroke-opacity:1;stroke-miterlimit:10" d="M0 .002 14.174 5.67 28.347.002 42.519 5.67" transform="matrix(1 0 0 -1 2.368 8.115)"/></g><g clip-path="url(#b)"><path style="fill:none;stroke-width:.3985;stroke-linecap:butt;stroke-linejoin:miter;stroke:#000;stroke-opacity:1;stroke-miterlimit:10" d="m-1.407-1.408 2.816 2.816m-2.816 0 2.816-2.816" transform="matrix(1 0 0 -1 2.368 8.115)"/></g><path style="fill:none;stroke-width:.3985;stroke-linecap:butt;stroke-linejoin:miter;stroke:#000;stroke-opacity:1;stroke-miterlimit:10" d="m12.765 4.26 2.816 2.82m-2.816 0 2.816-2.82" transform="matrix(1 0 0 -1 2.368 8.115)"/><g clip-path="url(#c)"><path style="fill:none;stroke-width:.3985;stroke-linecap:butt;stroke-linejoin:miter;stroke:#000;stroke-opacity:1;stroke-miterlimit:10" d="m26.937-1.408 2.82 2.816m-2.82 0 2.82-2.816" transform="matrix(1 0 0 -1 2.368 8.115)"/></g><g clip-path="url(#d)"><path style="fill:none;stroke-width:.3985;stroke-linecap:butt;stroke-linejoin:miter;stroke:#000;stroke-opacity:1;stroke-miterlimit:10" d="m41.112 4.26 2.817 2.82m-2.817 0 2.817-2.82" transform="matrix(1 0 0 -1 2.368 8.115)"/></g></svg>