<svg xmlns="http://www.w3.org/2000/svg" width="29.268" height="9.339" viewBox="0 0 21.951 7.004" version="1.2"><defs><clipPath id="a"><path d="M0 0h21.926v6.508H0Zm0 0"/></clipPath></defs><path style="fill:none;stroke-width:.79701;stroke-linecap:butt;stroke-linejoin:miter;stroke:#000;stroke-opacity:1;stroke-miterlimit:10" d="M0 2.212h10.363" transform="matrix(1 0 0 -1 .985 5.212)"/><path style="stroke:none;fill-rule:nonzero;fill:#000;fill-opacity:1" d="M20.512 3c0-1.156-2.051-2.094-4.582-2.094-2.532 0-4.582.938-4.582 2.094s2.05 2.094 4.582 2.094c2.53 0 4.582-.938 4.582-2.094Zm0 0"/><g clip-path="url(#a)"><path style="fill:none;stroke-width:.79701;stroke-linecap:butt;stroke-linejoin:miter;stroke:#000;stroke-opacity:1;stroke-miterlimit:10" d="M9.564 0c0 1.157-2.05 2.094-4.582 2.094C2.452 2.094.4 1.157.4 0c0-1.156 2.051-2.093 4.582-2.093 2.532 0 4.582.937 4.582 2.093Zm0 0" transform="matrix(1 0 0 -1 10.947 3)"/></g></svg>