<svg xmlns="http://www.w3.org/2000/svg" width="138.771" height="195.435" viewBox="0 0 104.078 146.576" version="1.2"><defs><clipPath id="a"><path d="M.555 9h102.05v136.36H.555Zm0 0"/></clipPath><clipPath id="b"><path d="M.555 128h102.05v1H.555Zm0 0"/></clipPath><clipPath id="c"><path d="M8 0h2v145.36H8Zm0 0"/></clipPath><clipPath id="d"><path d="M.555 37H100v108.36H.555Zm0 0"/></clipPath></defs><g clip-path="url(#a)"><path style="fill:none;stroke-width:.19925;stroke-linecap:butt;stroke-linejoin:miter;stroke:gray;stroke-opacity:1;stroke-miterlimit:10" d="M-119.057-85.04h238.113m-238.113 42.52h238.113M-119.057 0h238.113m-238.113 42.519h238.113m-238.113 42.52h238.113M-85.04-119.055v238.11m42.52-238.11v238.11M.001-119.056v238.11m42.519-238.11v238.11m42.52-238.11v238.11" transform="matrix(1 0 0 -1 9.061 128.351)"/></g><path style="fill-rule:nonzero;fill:#cfc;fill-opacity:1;stroke-width:.3985;stroke-linecap:butt;stroke-linejoin:miter;stroke:green;stroke-opacity:1;stroke-miterlimit:10" d="M.002 0h25.511c0 4.476-1.18 8.878-3.418 12.757Zm0 0" transform="matrix(1 0 0 -1 9.061 128.351)"/><g clip-path="url(#b)"><path style="fill:none;stroke-width:.3985;stroke-linecap:butt;stroke-linejoin:miter;stroke:#000;stroke-opacity:1;stroke-miterlimit:10" d="M-127.561 0h254.723" transform="matrix(1 0 0 -1 9.061 128.351)"/></g><g clip-path="url(#c)"><path style="fill:none;stroke-width:.3985;stroke-linecap:butt;stroke-linejoin:miter;stroke:#000;stroke-opacity:1;stroke-miterlimit:10" d="M.002-127.56v254.724" transform="matrix(1 0 0 -1 9.061 128.351)"/></g><path style="fill:none;stroke-width:.3985;stroke-linecap:round;stroke-linejoin:round;stroke:#000;stroke-opacity:1;stroke-miterlimit:10" d="M-2.073 2.39C-1.694.955-.85.28.001-.003c-.851-.277-1.695-.953-2.074-2.39" transform="matrix(0 -1 -1 0 9.061 .99)"/><g clip-path="url(#d)"><path style="fill:none;stroke-width:.3985;stroke-linecap:butt;stroke-linejoin:miter;stroke:#000;stroke-opacity:1;stroke-miterlimit:10" d="M85.04 0c0 46.968-38.074 85.038-85.039 85.038-46.968 0-85.042-38.07-85.042-85.039C-85.041-46.965-46.967-85.04 0-85.04c46.965 0 85.04 38.075 85.04 85.04Zm0 0" transform="matrix(1 0 0 -1 9.061 128.351)"/></g><path style="fill:none;stroke-width:.3985;stroke-linecap:butt;stroke-linejoin:miter;stroke:#000;stroke-opacity:1;stroke-miterlimit:10" d="M85.04-2.989v5.977M-2.99 42.519h5.98M-2.99 85.038h5.98" transform="matrix(1 0 0 -1 9.061 128.351)"/></svg>