<svg xmlns="http://www.w3.org/2000/svg" xmlns:xlink="http://www.w3.org/1999/xlink" width="126.699" height="84.123" viewBox="0 0 95.024 63.092" version="1.2"><defs><symbol overflow="visible" id="b"><path style="stroke:none" d="M5.281-3.188c0-.953-.015-3.343-2.422-3.343C.453-6.531.453-4.156.453-3.188c0 1 0 3.297 2.406 3.297 2.391 0 2.422-2.296 2.422-3.296ZM4-3.296c0 .563 0 1.469-.078 1.985-.14.921-.766 1.062-1.063 1.062-.359 0-.921-.219-1.046-.953-.094-.516-.094-1.547-.094-2.094 0-.719 0-1.375.078-1.89.125-.891.828-.985 1.062-.985.375 0 .782.188.97.625C4-5.172 4-4.109 4-3.297Zm0 0"/></symbol><symbol overflow="visible" id="c"><path style="stroke:none" d="M5.984-2.219c0-1.328-.906-2.265-2.343-2.265-.75 0-1.282.312-1.5.484v-.484l-1.766.078v.468c.61 0 .688 0 .688.376v5.03H.375v.47l1.25-.032 1.25.032v-.47h-.688V-.39A2.01 2.01 0 0 0 3.47.063c1.5 0 2.515-.907 2.515-2.282Zm-1.28 0C4.703-.813 4-.297 3.358-.297c-.14 0-.609 0-1.062-.547-.11-.125-.11-.14-.11-.328v-2.11c0-.187.016-.202.157-.343.39-.406.922-.469 1.14-.469.657 0 1.22.61 1.22 1.875Zm0 0"/></symbol><symbol overflow="visible" id="d"><path style="stroke:none" d="M3.813-1.234v-.532h-.47v.516c0 .672-.327.906-.609.906-.578 0-.578-.64-.578-.86v-2.75h1.469v-.468H2.156v-1.906h-.469c0 1-.484 1.984-1.484 2.016v.359h.828v2.734c0 1.063.86 1.282 1.578 1.282.75 0 1.204-.579 1.204-1.297Zm0 0"/></symbol><symbol overflow="visible" id="e"><path style="stroke:none" d="M5.156-2.219h-.468c-.032.203-.125.844-.266.906-.11.063-.86.063-1.016.063H1.937c.47-.39 1-.813 1.438-1.14 1.14-.844 1.781-1.313 1.781-2.25 0-1.157-1.047-1.891-2.437-1.891-1.219 0-2.156.625-2.156 1.515 0 .594.484.735.718.735C1.61-4.281 2-4.5 2-5c0-.516-.422-.672-.563-.719.282-.234.672-.343 1.032-.343.844 0 1.312.671 1.312 1.421 0 .688-.375 1.375-1.078 2.079l-2 2.046c-.14.11-.14.141-.14.344V0h4.28Zm0 0"/></symbol><symbol overflow="visible" id="f"><path style="stroke:none" d="M5.406 0v-.469h-.968v-1.094h.968v-.468h-.968V-6.22c0-.265-.016-.328-.297-.328-.22 0-.22.016-.344.172L.312-2.031v.469h2.876V-.47h-1.11V0c.375-.031 1.281-.031 1.703-.031.406 0 1.266 0 1.625.031Zm-2.11-2.031H.845L3.297-5.11Zm0 0"/></symbol><symbol overflow="visible" id="g"><path style="stroke:none" d="M5.563-6.422H3.53c-.234 0-1.703-.047-1.844-.094-.203-.03-.218-.125-.234-.218H.984l-.343 2.53h.468c.094-.765.22-.89.266-.905.11-.063.922-.063 1.094-.063H4.14c-.172.219-.36.422-.547.64-.953 1.126-1.672 2.47-1.672 3.938 0 .703.562.703.625.703.156 0 .625-.046.625-.703v-.469c0-.468.031-.953.094-1.421.093-.672.296-1.25.656-1.657l1.547-1.796c.093-.11.093-.141.093-.485Zm0 0"/></symbol><clipPath id="a"><path d="M2 0h92.535v62.637H2Zm0 0"/></clipPath></defs><path style="fill:none;stroke-width:.19925;stroke-linecap:butt;stroke-linejoin:miter;stroke:gray;stroke-opacity:1;stroke-miterlimit:10" d="M0-.002h85.042M0 28.346h85.043M0 56.682h85.043M0-.002v56.695M28.347-.002v56.695M56.694-.002v56.695M85.03-.002v56.695" transform="matrix(1 0 0 -1 8.372 57.42)"/><g clip-path="url(#a)"><path style="fill:none;stroke-width:.3985;stroke-linecap:butt;stroke-linejoin:miter;stroke:#000;stroke-opacity:1;stroke-miterlimit:10" d="m0-.002 85.042 56.695" transform="matrix(1 0 0 -1 8.372 57.42)"/></g><g style="fill:#000;fill-opacity:1"><use xlink:href="#b" x=".098" y="59.717"/><use xlink:href="#c" x="5.827" y="59.717"/><use xlink:href="#d" x="12.193" y="59.717"/></g><g style="fill:#000;fill-opacity:1"><use xlink:href="#e" x="13.812" y="48.665"/><use xlink:href="#b" x="19.541" y="48.665"/><use xlink:href="#c" x="25.269" y="48.665"/><use xlink:href="#d" x="31.635" y="48.665"/></g><g style="fill:#000;fill-opacity:1"><use xlink:href="#f" x="30.39" y="37.618"/><use xlink:href="#b" x="36.119" y="37.618"/><use xlink:href="#c" x="41.847" y="37.618"/><use xlink:href="#d" x="48.213" y="37.618"/></g><g style="fill:#000;fill-opacity:1"><use xlink:href="#g" x="55.257" y="21.139"/><use xlink:href="#b" x="60.986" y="21.139"/><use xlink:href="#c" x="66.714" y="21.139"/><use xlink:href="#d" x="73.08" y="21.139"/></g></svg>