<svg xmlns="http://www.w3.org/2000/svg" width="46.332" height="84.147" viewBox="0 0 34.749 63.11" version="1.2"><defs><clipPath id="a"><path d="M0 0h34.625v62.664H0Zm0 0"/></clipPath></defs><g clip-path="url(#a)"><path style="fill:none;stroke-width:.3985;stroke-linecap:butt;stroke-linejoin:miter;stroke:#000;stroke-opacity:1;stroke-miterlimit:10" d="M1.993.001a1.993 1.993 0 1 1-3.986-.002 1.993 1.993 0 0 1 3.986.002ZM0 .001l28.347 28.348m1.993 0a1.993 1.993 0 0 1-3.984 0c0-1.102.89-1.996 1.991-1.996 1.098 0 1.993.894 1.993 1.996Zm-1.993 0v28.343m1.993 0a1.993 1.993 0 1 1-3.986-.001 1.993 1.993 0 0 1 3.986.001Zm0 0" transform="matrix(1 0 0 -1 3.074 59.458)"/></g></svg>