<svg xmlns="http://www.w3.org/2000/svg" width="125.876" height="85.827" viewBox="0 0 94.407 64.37" version="1.2"><defs><clipPath id="a"><path d="M0 0h94.11v64.055H0Zm0 0"/></clipPath></defs><path style="fill:none;stroke-width:.19925;stroke-linecap:butt;stroke-linejoin:miter;stroke:gray;stroke-opacity:1;stroke-miterlimit:10" d="M.002 0H85.04M.001 28.349h85.04M.001 56.684h85.04M.001.001v56.691M28.347.001v56.691M56.693.001v56.691M85.03.001v56.691" transform="matrix(1 0 0 -1 1.565 62.86)"/><path style="stroke:none;fill-rule:nonzero;fill:#d2c92a;fill-opacity:1" d="M1.566 62.86c1.18-.395.985-2.954 2.164-3.348.856-.285 1.977.625 3.149 1.578 1.176.95 2.297 1.86 3.152 1.574.856-.285 1.207-1.684 1.574-3.152.368-1.465.72-2.864 1.575-3.149.855-.285 1.98.621 3.152 1.575 1.172.953 2.293 1.859 3.148 1.574.856-.285 1.211-1.684 1.579-3.149.367-1.468.718-2.867 1.574-3.152.855-.285 1.976.625 3.148 1.578 1.176.953 2.297 1.86 3.153 1.574.855-.285 1.207-1.683 1.574-3.152.367-1.465.719-2.863 1.574-3.148.855-.286 1.977.62 3.152 1.574 1.172.953 2.293 1.86 3.149 1.574.855-.285 1.21-1.684 1.578-3.148.367-1.47.719-2.868 1.574-3.153.856-.285 1.977.625 3.149 1.578 1.175.953 2.296 1.86 3.152 1.575.855-.286 1.207-1.684 1.574-3.153.367-1.465.719-2.863 1.574-3.148.856-.285 1.977.62 3.153 1.574 1.172.953 2.293 1.86 3.148 1.574.856-.285 1.211-1.683 1.578-3.148s.719-2.867 1.575-3.153c.855-.285 1.976.625 3.148 1.578 1.176.954 2.297 1.86 3.152 1.575.856-.285 1.207-1.684 1.575-3.153.367-1.464.718-2.863 1.574-3.148.855-.285 1.976.621 3.152 1.574 1.172.953 2.293 1.86 3.148 1.574.856-.285 1.211-1.683 1.579-3.148.363-1.465.718-2.867 1.574-3.148.855-.286 1.976.62 3.148 1.574 1.176.953 2.297 1.86 3.153 1.574.855-.285 1.207-1.684 1.574-3.148.367-1.47.719-2.868 1.574-3.153-.144-.89.926-1.855 2.05-2.863 1.126-1.012 2.2-1.977 2.052-2.863-.36-.829-1.786-1.055-3.278-1.293-1.492-.235-2.918-.461-3.277-1.29-.527-.734.008-2.074.57-3.476.563-1.402 1.094-2.742.57-3.477-.648-.628-2.05-.3-3.523.047-1.473.348-2.875.676-3.52.047-.73-.531-.648-1.969-.558-3.48.094-1.508.176-2.95-.555-3.477-.789-.437-2.054.254-3.382.977-1.329.726-2.594 1.414-3.383.976-.832-.347-1.078-1.77-1.336-3.258-.254-1.492-.5-2.91-1.332-3.261-.864-.266-1.965.664-3.117 1.64-1.153.977-2.258 1.91-3.118 1.641-.882-.191-1.382-1.543-1.91-2.96-.523-1.419-1.027-2.77-1.906-2.958-.895-.117-1.824.988-2.793 2.148-.969 1.157-1.898 2.262-2.793 2.145-.898-.043-1.613-1.297-2.36-2.61C51.14 2.2 50.427.946 49.528.903c-.902.024-1.644 1.258-2.425 2.555-.778 1.297-1.52 2.531-2.422 2.559-.895.093-1.797-1.036-2.739-2.22-.941-1.179-1.84-2.308-2.738-2.214-.887.168-1.422 1.508-1.984 2.91-.559 1.406-1.098 2.742-1.985 2.91-.867.246-1.945-.715-3.07-1.722-1.125-1.012-2.203-1.97-3.07-1.727-.84.324-1.133 1.738-1.43 3.219-.3 1.48-.59 2.894-1.434 3.219-.804.406-2.046-.325-3.347-1.094-1.301-.766-2.547-1.5-3.348-1.09-.75.5-.723 1.941-.691 3.453.031 1.512.058 2.953-.692 3.453-.675.598-2.062.207-3.515-.21-1.453-.415-2.844-.81-3.516-.212-.566.704-.11 2.07.371 3.504.48 1.434.938 2.801.371 3.504-.414.801-1.851.93-3.36 1.063-1.503.133-2.94.261-3.355 1.062-.214.875.778 1.922 1.82 3.016 1.048 1.094 2.04 2.137 1.825 3.012 0 .902-1.215 1.68-2.488 2.492-1.278.812-2.492 1.59-2.492 2.488 0 .902 1.214 1.68 2.492 2.492 1.273.813 2.488 1.59 2.488 2.492 0 .899-1.215 1.676-2.488 2.489-1.278.812-2.492 1.59-2.492 2.492 0 .902 1.214 1.68 2.492 2.492 1.273.809 2.488 1.586 2.488 2.488 0 .903-1.215 1.68-2.488 2.493-1.278.812-2.492 1.59-2.492 2.488-4.739 6.215-2.247 6.836-2.247 8.082v.02"/><g clip-path="url(#a)"><path style="fill:none;stroke-width:.3985;stroke-linecap:butt;stroke-linejoin:miter;stroke:#000;stroke-opacity:1;stroke-miterlimit:10" d="M.002 0c1.18.395.984 2.954 2.164 3.348.855.285 1.977-.625 3.148-1.578C6.49.82 7.611-.09 8.467.196 9.322.48 9.674 1.88 10.04 3.348c.367 1.465.719 2.864 1.574 3.149.856.285 1.98-.621 3.153-1.574 1.171-.954 2.293-1.86 3.148-1.575.855.285 1.21 1.684 1.578 3.149.367 1.468.719 2.867 1.574 3.152.856.285 1.977-.625 3.149-1.578 1.176-.953 2.297-1.86 3.152-1.574.856.285 1.207 1.683 1.574 3.152.367 1.465.72 2.863 1.575 3.149.855.285 1.976-.622 3.152-1.575 1.172-.953 2.293-1.86 3.148-1.574.856.285 1.211 1.684 1.578 3.149.368 1.468.72 2.867 1.575 3.152.855.285 1.976-.625 3.148-1.578 1.176-.953 2.297-1.86 3.152-1.575.856.286 1.207 1.684 1.575 3.153.367 1.465.718 2.863 1.574 3.148.855.285 1.976-.62 3.152-1.574 1.172-.953 2.293-1.86 3.149-1.574.855.285 1.21 1.683 1.578 3.148.367 1.465.719 2.867 1.574 3.153.855.285 1.977-.625 3.148-1.579 1.176-.953 2.297-1.859 3.153-1.574.855.285 1.207 1.684 1.574 3.153.367 1.464.719 2.863 1.574 3.148.856.285 1.977-.621 3.153-1.574 1.171-.953 2.293-1.86 3.148-1.574.855.285 1.21 1.683 1.578 3.148.363 1.465.719 2.867 1.574 3.148.856.286 1.977-.62 3.149-1.574 1.176-.953 2.297-1.86 3.152-1.574.856.285 1.207 1.684 1.574 3.148.368 1.47.72 2.868 1.575 3.153-.145.89.925 1.855 2.05 2.863 1.125 1.012 2.2 1.977 2.051 2.863-.36.829-1.785 1.055-3.277 1.293-1.492.235-2.918.461-3.278 1.29-.527.734.008 2.074.57 3.476.563 1.402 1.095 2.742.571 3.477-.648.628-2.05.3-3.523-.047-1.473-.348-2.875-.676-3.52-.047-.73.531-.648 1.969-.558 3.48.093 1.508.175 2.95-.555 3.477-.79.437-2.055-.254-3.383-.977-1.328-.726-2.594-1.414-3.383-.976-.832.347-1.078 1.77-1.336 3.258-.254 1.492-.5 2.91-1.332 3.261-.863.266-1.965-.664-3.117-1.64-1.152-.977-2.258-1.91-3.117-1.641-.883.191-1.383 1.543-1.91 2.96-.524 1.419-1.028 2.77-1.907 2.958-.894.117-1.824-.988-2.793-2.148-.968-1.157-1.898-2.262-2.793-2.145-.898.043-1.613 1.297-2.359 2.61-.75 1.316-1.465 2.57-2.363 2.613-.903-.024-1.645-1.258-2.426-2.555-.777-1.297-1.52-2.531-2.422-2.559-.894-.093-1.797 1.036-2.738 2.22-.942 1.179-1.84 2.308-2.738 2.214-.887-.168-1.422-1.508-1.985-2.91-.558-1.406-1.097-2.742-1.984-2.91-.867-.246-1.945.715-3.07 1.722-1.125 1.012-2.204 1.97-3.07 1.727-.84-.324-1.134-1.738-1.43-3.219-.301-1.48-.59-2.894-1.434-3.219-.805-.406-2.047.325-3.348 1.094-1.3.766-2.547 1.5-3.347 1.09-.75-.5-.723-1.941-.692-3.453.032-1.512.059-2.953-.691-3.453-.676-.598-2.063-.207-3.516.21-1.453.415-2.844.81-3.515.212-.567-.704-.11-2.07.37-3.504.481-1.434.938-2.801.372-3.504-.414-.801-1.852-.93-3.36-1.063-1.503-.133-2.941-.261-3.355-1.062-.215-.875.777-1.922 1.82-3.016 1.047-1.094 2.04-2.137 1.824-3.012 0-.902-1.214-1.68-2.488-2.492-1.277-.812-2.492-1.59-2.492-2.488 0-.902 1.215-1.68 2.492-2.492 1.274-.813 2.488-1.59 2.488-2.492 0-.899-1.214-1.676-2.488-2.489-1.277-.812-2.492-1.59-2.492-2.492 0-.902 1.215-1.68 2.492-2.492 1.274-.809 2.488-1.586 2.488-2.488 0-.903-1.214-1.68-2.488-2.493C3.463 9.778 2.248 9 2.248 8.102-2.49 1.887.002 1.266.002.02V0" transform="matrix(1 0 0 -1 1.565 62.86)"/></g></svg>