<svg xmlns="http://www.w3.org/2000/svg" xmlns:xlink="http://www.w3.org/1999/xlink" width="343.011" height="140.445" viewBox="0 0 257.258 105.334" version="1.2"><defs><symbol overflow="visible" id="a"><path style="stroke:none" d="M3.89-2.547c0-.844-.078-1.36-.343-1.875-.344-.703-1-.875-1.438-.875-1 0-1.375.75-1.484.969C.344-3.75.328-2.953.328-2.547c0 .531.016 1.328.406 1.969.36.594.954.75 1.375.75.391 0 1.063-.125 1.47-.906.296-.579.312-1.297.312-1.813ZM2.11-.062c-.266 0-.813-.126-.985-.954-.094-.453-.094-1.203-.094-1.625 0-.546 0-1.109.094-1.546.172-.813.781-.891.984-.891.266 0 .829.14.985.86.094.437.094 1.046.094 1.577 0 .47 0 1.188-.094 1.641-.172.828-.719.938-.985.938Zm0 0"/></symbol><symbol overflow="visible" id="c"><path style="stroke:none" d="M2.5-5.078c0-.219-.016-.219-.234-.219-.329.313-.75.5-1.5.5v.266c.218 0 .64 0 1.109-.203v4.078c0 .297-.031.39-.781.39H.812V0c.329-.031 1.016-.031 1.375-.031.36 0 1.047 0 1.376.031v-.266H3.28c-.75 0-.781-.093-.781-.39Zm0 0"/></symbol><symbol overflow="visible" id="d"><path style="stroke:none" d="M2.25-1.625c.125-.125.453-.39.594-.5.484-.453.953-.89.953-1.61 0-.953-.797-1.562-1.781-1.562-.97 0-1.594.719-1.594 1.438 0 .39.312.437.422.437.172 0 .422-.11.422-.422 0-.406-.407-.406-.5-.406.234-.594.765-.781 1.156-.781.734 0 1.125.625 1.125 1.297 0 .828-.578 1.437-1.531 2.39l-1 1.047C.422-.219.422-.203.422 0h3.14l.235-1.422h-.25c-.016.156-.078.547-.172.703-.047.063-.656.063-.781.063H1.172Zm0 0"/></symbol><symbol overflow="visible" id="e"><path style="stroke:none" d="M2.016-2.656c.625 0 1.03.453 1.03 1.297 0 1-.562 1.28-.983 1.28-.438 0-1.047-.155-1.329-.577.297 0 .5-.188.5-.438 0-.265-.187-.437-.453-.437-.203 0-.437.125-.437.453 0 .75.812 1.25 1.734 1.25 1.047 0 1.797-.734 1.797-1.531 0-.672-.531-1.266-1.344-1.454.625-.218 1.11-.75 1.11-1.39 0-.64-.72-1.094-1.547-1.094-.86 0-1.5.453-1.5 1.063 0 .296.187.421.406.421.25 0 .406-.171.406-.406 0-.297-.265-.406-.437-.406.344-.438.953-.469 1.094-.469.203 0 .812.063.812.89 0 .548-.234.891-.344 1.016-.234.25-.422.266-.906.297-.156 0-.219.016-.219.125 0 .11.078.11.219.11Zm0 0"/></symbol><symbol overflow="visible" id="f"><path style="stroke:none" d="M3.14-5.156c0-.157 0-.219-.171-.219-.094 0-.11 0-.188.11L.234-1.564v.25h2.25v.672c0 .297-.015.375-.64.375h-.172V0c.672-.031.687-.031 1.14-.031.454 0 .47 0 1.141.031v-.266h-.172c-.625 0-.64-.078-.64-.375v-.671h.843v-.25h-.843Zm-.593.64v2.954H.516Zm0 0"/></symbol><symbol overflow="visible" id="g"><path style="stroke:none" d="M1.11-4.484c.109.03.421.125.765.125 1 0 1.594-.704 1.594-.829 0-.093-.047-.109-.094-.109-.016 0-.031 0-.094.031a2.982 2.982 0 0 1-1.11.22c-.468 0-.858-.11-1.108-.22-.079-.03-.094-.03-.11-.03-.094 0-.094.077-.094.234v2.328c0 .14 0 .234.125.234.063 0 .079-.031.125-.094.094-.11.391-.515 1.079-.515.437 0 .656.359.734.515.125.281.14.656.14.953 0 .297 0 .735-.218 1.079-.156.25-.485.484-.906.484A1.271 1.271 0 0 1 .734-.922c.016.016.079.016.079.016.218 0 .406-.14.406-.39a.388.388 0 0 0-.39-.407c-.157 0-.407.078-.407.422 0 .718.625 1.453 1.531 1.453 1 0 1.844-.781 1.844-1.766 0-.922-.672-1.75-1.61-1.75-.39 0-.765.125-1.078.406Zm0 0"/></symbol><symbol overflow="visible" id="b"><path style="stroke:none" d="M3.266-1.5c0-.75-.61-1.36-1.36-1.36-.734 0-1.343.61-1.343 1.36 0 .766.609 1.36 1.343 1.36.75 0 1.36-.594 1.36-1.36ZM1.906-.453A1.024 1.024 0 0 1 .875-1.5c0-.578.453-1.047 1.031-1.047.578 0 1.047.469 1.047 1.047 0 .594-.469 1.047-1.047 1.047Zm0 0"/></symbol><symbol overflow="visible" id="h"><path style="stroke:none" d="M5.563-1.813c.14 0 .312 0 .312-.171 0-.188-.172-.188-.313-.188H1c-.125 0-.297 0-.297.188 0 .171.172.171.297.171Zm0 0"/></symbol><symbol overflow="visible" id="i"><path style="stroke:none" d="M1.625-.438a.463.463 0 0 0-.453-.453.447.447 0 0 0-.438.438.44.44 0 0 0 .438.453.45.45 0 0 0 .453-.438Zm0 0"/></symbol><symbol overflow="visible" id="j"><path style="stroke:none" d="M2.14-3.797c0-.187-.015-.187-.203-.187-.39.39-1 .39-1.218.39v.235c.156 0 .562 0 .922-.172v3.015c0 .204 0 .282-.625.282h-.25V0c.328-.031.796-.031 1.125-.031.328 0 .796 0 1.125.031v-.234h-.25c-.625 0-.625-.078-.625-.282Zm0 0"/></symbol><symbol overflow="visible" id="k"><path style="stroke:none" d="M.969-1.984c.015-.297.031-.797.234-1.157.266-.468.656-.64 1.016-.64.14 0 .422.015.562.187-.219.047-.265.188-.265.297 0 .156.109.281.296.281.172 0 .282-.109.282-.296 0-.376-.266-.672-.875-.672-.938 0-1.844.812-1.844 2.093 0 1.454.672 2.016 1.469 2.016.234 0 .64-.031 1-.39.203-.188.422-.422.422-.954 0-.203-.016-.593-.375-.922-.22-.203-.485-.406-.985-.406-.422 0-.734.219-.937.563Zm.875 1.89C1-.094 1-1.125 1-1.359c0-.5.328-1 .875-1 .313 0 .484.125.625.312.172.235.172.516.172.828 0 .407-.016.61-.219.86-.14.171-.328.265-.61.265Zm0 0"/></symbol><symbol overflow="visible" id="q"><path style="stroke:none" d="M3.422-3.61c.047-.062.047-.078.047-.25H1.922c-.234 0-.39 0-.625-.015-.281-.016-.36-.031-.39-.172h-.22L.47-2.734h.219c.03-.125.078-.485.171-.547.047-.031.563-.031.657-.031h1.343c-.062.078-.375.468-.53.64-.579.703-.985 1.547-.985 2.453 0 .063 0 .344.297.344.28 0 .28-.281.28-.36V-.39c0-1.156.25-1.734.548-2.093Zm0 0"/></symbol><symbol overflow="visible" id="s"><path style="stroke:none" d="M2.297-2.156c.453-.203.781-.5.781-.922 0-.594-.625-.906-1.25-.906-.672 0-1.266.406-1.266 1.015 0 .375.25.656.5.813.063.031.204.11.266.14-.39.157-.953.485-.953 1.094 0 .703.75 1.047 1.438 1.047.796 0 1.453-.484 1.453-1.14 0-.423-.25-.657-.329-.75-.124-.11-.421-.282-.64-.391ZM1.219-2.75c-.016-.016-.313-.172-.313-.453 0-.39.469-.578.906-.578.47 0 .938.25.938.703 0 .469-.5.703-.672.797Zm.343.86c.079.046.72.406.875.484.126.078.454.25.454.593 0 .485-.547.72-1.063.72-.547 0-1.062-.313-1.062-.829 0-.515.468-.844.796-.969Zm0 0"/></symbol><symbol overflow="visible" id="u"><path style="stroke:none" d="M2.672-1.89c0 .452-.031.906-.25 1.265-.156.234-.438.531-.906.531-.141 0-.47-.015-.625-.172.187-.046.234-.171.234-.28 0-.157-.11-.298-.281-.298-.172 0-.297.125-.297.313 0 .484.453.656.969.656.921 0 1.75-.844 1.75-2.094 0-1.453-.657-2.015-1.422-2.015-.766 0-1.469.562-1.469 1.343 0 .454.172.704.39.922.25.25.547.407.985.407.516 0 .797-.344.922-.579Zm-.89.39a.703.703 0 0 1-.626-.313C.984-2.046.97-2.296.97-2.64c0-.343 0-.578.203-.828a.796.796 0 0 1 .672-.312c.812 0 .812 1.015.812 1.265 0 .532-.36 1.016-.875 1.016Zm0 0"/></symbol><symbol overflow="visible" id="w"><path style="stroke:none" d="M3.297-1.906c0-.438 0-2.078-1.469-2.078S.36-2.344.36-1.906c0 .422 0 2.031 1.47 2.031 1.468 0 1.468-1.61 1.468-2.031ZM1.828-.063a.84.84 0 0 1-.812-.625C.922-1.03.922-1.609.922-1.984c0-.407 0-.86.094-1.188.14-.531.593-.61.812-.61.266 0 .672.126.797.579.094.312.094.75.094 1.219 0 .375 0 .984-.094 1.312a.825.825 0 0 1-.797.61Zm0 0"/></symbol><symbol overflow="visible" id="z"><path style="stroke:none" d="M3.219-1.125H3c-.016.094-.078.484-.156.547-.047.047-.531.047-.625.047h-1.11l.766-.625c.203-.172.734-.547.922-.735.172-.171.422-.484.422-.906 0-.75-.672-1.187-1.485-1.187-.765 0-1.296.515-1.296 1.078 0 .297.25.344.312.344a.32.32 0 0 0 .328-.329c0-.125-.078-.328-.344-.328.141-.297.5-.531.922-.531.625 0 .953.469.953.953 0 .422-.28.86-.687 1.25L.5-.25C.437-.187.437-.187.437 0h2.594Zm0 0"/></symbol><symbol overflow="visible" id="C"><path style="stroke:none" d="M1.766-1.984c.5 0 .843.343.843.953 0 .656-.39.937-.828.937C1.61-.094 1-.125.734-.469c.235-.031.329-.187.329-.344a.328.328 0 0 0-.344-.343.34.34 0 0 0-.344.36c0 .593.656.921 1.422.921.89 0 1.469-.563 1.469-1.156 0-.438-.329-.907-1.047-1.078.484-.157.86-.547.86-1.032 0-.484-.563-.843-1.282-.843-.703 0-1.234.328-1.234.812 0 .266.203.328.328.328.156 0 .312-.094.312-.312 0-.188-.125-.297-.297-.313.281-.312.828-.312.89-.312.298 0 .688.14.688.64 0 .329-.187.907-.796.938-.11 0-.266.015-.313.015-.063.016-.125.016-.125.11s.063.094.156.094Zm0 0"/></symbol><symbol overflow="visible" id="l"><path style="stroke:none" d="M3.078-3.781c0-.156 0-.235-.094-.235-.046 0-.062 0-.187.11-.016.015-.094.094-.156.14-.266-.203-.547-.25-.86-.25-1.187 0-1.468.657-1.468 1.11 0 .281.124.515.328.719.296.28.64.343 1.093.421.47.094.61.11.813.266.094.078.312.25.312.578 0 .797-.906.797-1.03.797-.907 0-1.141-.766-1.25-1.25-.032-.094-.048-.14-.141-.14-.126 0-.126.077-.126.234v1.14c0 .157 0 .235.094.235.063 0 .063 0 .235-.172a1.18 1.18 0 0 1 .171-.219c.375.375.797.39 1.016.39 1.11 0 1.484-.64 1.484-1.234 0-.406-.171-.656-.374-.859-.297-.297-.626-.36-1.282-.484-.234-.047-.89-.157-.89-.672 0-.281.203-.672 1.015-.672.969 0 1.032.75 1.047.969.016.109.016.171.125.171.125 0 .125-.062.125-.234Zm0 0"/></symbol><symbol overflow="visible" id="m"><path style="stroke:none" d="m1.656-3.969-1.297.11v.265c.579 0 .657.063.657.5v2.406c0 .407-.094.407-.688.407V0c.39-.016.594-.031.984-.031.141 0 .516 0 .954.031v-.281c-.579 0-.61-.047-.61-.39Zm.016-1.562a.477.477 0 0 0-.484-.485.497.497 0 0 0-.485.485c0 .265.219.484.485.484a.468.468 0 0 0 .484-.484Zm0 0"/></symbol><symbol overflow="visible" id="n"><path style="stroke:none" d="M1.672-2.328c0-.953.672-1.406 1.234-1.406.531 0 .64.437.64.968v2.079c0 .406-.093.406-.687.406V0c.422-.016.594-.031 1.032-.031.421 0 .546.015 1.015.031v-.281c-.453 0-.687 0-.687-.281v-1.72c0-.734 0-1-.25-1.312-.203-.25-.547-.375-1-.375-.828 0-1.219.625-1.344.875h-.016v-.875l-1.296.11v.265c.609 0 .687.063.687.516v2.39C1-.28.906-.28.312-.28V0c.422-.016.594-.031 1.032-.031.422 0 .547.015 1.015.031v-.281c-.593 0-.687 0-.687-.406Zm0 0"/></symbol><symbol overflow="visible" id="o"><path style="stroke:none" d="M2.719-5.734c0-.22 0-.235-.219-.235-.563.563-1.39.563-1.672.563v.281c.172 0 .719 0 1.203-.234v4.64c0 .328-.015.438-.86.438h-.28V0c.312-.031 1.125-.031 1.484-.031.375 0 1.172 0 1.5.031v-.281h-.281c-.844 0-.875-.11-.875-.438Zm0 0"/></symbol><symbol overflow="visible" id="r"><path style="stroke:none" d="M4.14-1.594h-.25c-.015.125-.093.657-.203.797-.062.078-.671.078-.859.078H1.234l.891-.844c1.469-1.265 2.016-1.75 2.016-2.656 0-1.031-.844-1.75-1.954-1.75-1.03 0-1.734.813-1.734 1.625 0 .453.39.5.469.5.203 0 .469-.14.469-.469a.451.451 0 0 0-.47-.468c-.046 0-.062 0-.109.015.22-.64.797-.921 1.282-.921.906 0 1.219.843 1.219 1.468 0 .907-.688 1.657-1.11 2.125L.563-.328c-.11.11-.11.125-.11.328h3.438Zm0 0"/></symbol><symbol overflow="visible" id="t"><path style="stroke:none" d="M2.734-3.156C3.563-3.47 3.97-4.125 3.97-4.75c0-.688-.766-1.219-1.703-1.219-.922 0-1.625.532-1.625 1.203 0 .297.187.47.453.47a.435.435 0 0 0 .453-.454c0-.313-.219-.438-.531-.438.234-.375.78-.562 1.234-.562.734 0 .875.594.875 1.016 0 .265-.047.703-.266 1.046-.28.391-.593.407-.859.438-.219.016-.234.016-.313.016-.078 0-.156.015-.156.109 0 .125.078.125.235.125h.406c.781 0 1.125.625 1.125 1.469 0 1.156-.61 1.484-1.063 1.484-.171 0-1.046-.047-1.437-.719a.475.475 0 0 0 .562-.484.468.468 0 0 0-.484-.484c-.219 0-.484.14-.484.515 0 .797.828 1.422 1.875 1.422 1.109 0 1.953-.812 1.953-1.734 0-.782-.625-1.438-1.485-1.625Zm0 0"/></symbol><symbol overflow="visible" id="v"><path style="stroke:none" d="M.266-1.766v.282h2.437v.78c0 .329-.015.423-.687.423h-.204V0C2.375-.031 3-.031 3.063-.031c.047 0 .704 0 1.266.031v-.281h-.203c-.672 0-.703-.094-.703-.422v-.781h.922v-.282h-.922v-4.062c0-.188 0-.25-.172-.25-.11 0-.11.016-.188.14Zm.28 0 2.22-3.312v3.312Zm0 0"/></symbol><symbol overflow="visible" id="x"><path style="stroke:none" d="M.938-3.094c0 .156 0 .266.125.266.062 0 .093-.047.14-.125a1.45 1.45 0 0 1 1.172-.594c.969 0 .969 1.39.969 1.703 0 .282 0 .844-.266 1.25-.234.375-.61.547-.969.547a1.456 1.456 0 0 1-1.343-1c.015 0 .062.016.125.016.187 0 .453-.11.453-.438 0-.281-.203-.437-.453-.437-.188 0-.438.11-.438.468 0 .813.688 1.641 1.688 1.641 1.078 0 2-.89 2-2 0-1.078-.766-1.969-1.75-1.969-.422 0-.86.141-1.188.47v-1.767c.281.079.563.125.828.125 1.11 0 1.75-.796 1.75-.921 0-.079-.047-.11-.094-.11-.015 0-.03 0-.124.047a3.488 3.488 0 0 1-1.204.234c-.39 0-.796-.078-1.203-.234-.093-.047-.11-.047-.11-.047-.109 0-.109.078-.109.235Zm0 0"/></symbol><symbol overflow="visible" id="y"><path style="stroke:none" d="M1.203-2.969c0-.922.094-1.422.344-1.89.172-.375.61-.891 1.281-.891.172 0 .594.031.797.36-.328 0-.484.171-.484.406a.41.41 0 0 0 .421.421c.25 0 .422-.171.422-.437 0-.5-.359-.969-1.171-.969-1.157 0-2.422 1.14-2.422 3.14C.39-.405 1.484.204 2.328.204c.985 0 1.89-.844 1.89-2.031 0-1.125-.827-2-1.843-2-.531 0-.922.328-1.172.86Zm1.11 2.922c-.516 0-.813-.422-.907-.687-.172-.407-.187-1.157-.187-1.297 0-.594.281-1.563 1.14-1.563.141 0 .579 0 .875.547.172.344.172.781.172 1.219 0 .422 0 .875-.172 1.203-.28.516-.671.578-.921.578Zm0 0"/></symbol><symbol overflow="visible" id="A"><path style="stroke:none" d="M4.39-5.469c.079-.093.079-.125.079-.312H2.25c-1.14 0-1.172-.11-1.188-.282h-.25L.516-4.188h.25C.796-4.39.875-4.89.984-5c.063-.063.782-.063.907-.063h1.875l-.86 1.172C1.734-2.28 1.625-.812 1.625-.312c0 .109 0 .515.422.515s.422-.406.422-.516V-.75c0-1.328.187-2.36.672-3.016Zm0 0"/></symbol><symbol overflow="visible" id="D"><path style="stroke:none" d="M1.547-4.078c-.266-.172-.484-.406-.484-.734 0-.594.625-.938 1.218-.938.703 0 1.25.484 1.25 1.11 0 .624-.531 1.046-.89 1.25Zm1.312.828c.454-.219 1.11-.656 1.11-1.39 0-.844-.844-1.329-1.656-1.329-.938 0-1.672.672-1.672 1.5 0 .328.125.657.343.922.141.172.204.203.72.531C.921-2.64.39-2.094.39-1.359c0 .953.937 1.562 1.906 1.562C3.344.203 4.219-.53 4.219-1.5c0-.875-.672-1.313-.89-1.453-.095-.063-.36-.235-.47-.297Zm-.906.39 1.125.704c.203.125.656.422.656.969 0 .703-.718 1.14-1.421 1.14C1.53-.047.875-.609.875-1.359c0-.641.438-1.172 1.078-1.5Zm0 0"/></symbol><symbol overflow="visible" id="p"><path style="stroke:none" d="M4.406-3.625a.504.504 0 0 0-.422.484c0 .172.125.329.344.329.25 0 .5-.22.5-.532 0-.422-.453-.625-.875-.625-.531 0-.844.485-.953.672a1.042 1.042 0 0 0-1-.672c-.953 0-1.484 1.156-1.484 1.39 0 .079.062.11.125.11.078 0 .109-.047.125-.11.28-.89.875-1.155 1.218-1.155.266 0 .485.171.485.593 0 .313-.375 1.75-.5 2.188-.063.265-.344.828-.828.828-.188 0-.375-.063-.454-.11.235-.046.422-.265.422-.484 0-.234-.171-.328-.343-.328-.266 0-.5.219-.5.531 0 .438.484.61.859.61.531 0 .828-.422.969-.672.219.594.75.672.984.672.969 0 1.485-1.157 1.485-1.375 0-.047-.032-.11-.11-.11-.11 0-.11.032-.156.172-.203.64-.719 1.094-1.188 1.094-.25 0-.5-.156-.5-.594 0-.203.125-.687.204-1.031.046-.156.28-1.125.296-1.188.11-.328.375-.796.844-.796.156 0 .328.015.453.109Zm0 0"/></symbol><clipPath id="B"><path d="M168 58h69v47h-69Zm0 0"/></clipPath><clipPath id="E"><path d="M166 68h74v37h-74Zm0 0"/></clipPath></defs><path style="fill:none;stroke-width:.3985;stroke-linecap:round;stroke-linejoin:miter;stroke:gray;stroke-opacity:1;stroke-miterlimit:10" d="M0-6.975v1.993M28.348-6.975v1.993M56.696-6.975v1.993M85.04-6.975v1.993M113.387-6.975v1.993M141.735-6.975v1.993M-6.972 4.22h1.992M-6.972 17.385h1.992M-6.972 30.553h1.992M-6.972 43.72h1.992M-6.972 56.889h1.992M-6.972 70.057h1.992M-6.972 83.225h1.992" transform="matrix(1 0 0 -1 31.312 88.541)"/><path style="fill:none;stroke-width:.3985;stroke-linecap:butt;stroke-linejoin:miter;stroke:gray;stroke-opacity:1;stroke-miterlimit:10" d="M0-4.982h141.735" transform="matrix(1 0 0 -1 31.312 88.541)"/><path style="fill:none;stroke-width:.3985;stroke-linecap:square;stroke-linejoin:miter;stroke:#bfbfbf;stroke-opacity:1;stroke-miterlimit:10" d="M0 .002h141.735M0 87.592h141.735" transform="matrix(1 0 0 -1 31.312 88.541)"/><path style="fill:none;stroke-width:.3985;stroke-linecap:butt;stroke-linejoin:miter;stroke:gray;stroke-opacity:1;stroke-miterlimit:10" d="M-4.98.002v87.59" transform="matrix(1 0 0 -1 31.312 88.541)"/><path style="fill:none;stroke-width:.3985;stroke-linecap:square;stroke-linejoin:miter;stroke:#bfbfbf;stroke-opacity:1;stroke-miterlimit:10" d="M0 .002v87.59M141.735.002v87.59" transform="matrix(1 0 0 -1 31.312 88.541)"/><path style="fill:none;stroke-width:1.8929;stroke-linecap:butt;stroke-linejoin:miter;stroke:#000;stroke-opacity:1;stroke-miterlimit:10" d="M0 43.72s4.266 9.614 5.907 12.329c1.636 2.715 4.265 6.355 5.906 7.238 1.637.887 4.266.457 5.902-.851 1.641-1.31 4.27-5.625 5.907-8.586 1.64-2.965 4.27-9.38 5.906-12.77 1.64-3.39 4.265-9.258 5.906-11.68 1.637-2.418 4.266-5.312 5.906-5.757 1.637-.45 4.266.828 5.907 2.539 1.636 1.71 4.265 6.629 5.902 9.789 1.64 3.16 4.27 9.687 5.906 12.992 1.64 3.305 4.27 8.746 5.906 10.828 1.641 2.086 4.266 4.188 5.907 4.188 1.636 0 4.265-2.102 5.906-4.188 1.637-2.082 4.266-7.523 5.906-10.828 1.637-3.305 4.266-9.828 5.903-12.988 1.64-3.16 4.27-8.082 5.906-9.793 1.64-1.711 4.27-2.989 5.906-2.54 1.64.446 4.266 3.34 5.906 5.758 1.64 2.418 4.266 8.286 5.907 11.676 1.636 3.395 4.265 9.809 5.906 12.774 1.636 2.96 4.265 7.277 5.906 8.586 1.637 1.308 4.266 1.738 5.902.851 1.641-.883 4.27-4.523 5.907-7.238 1.64-2.715 5.906-12.328 5.906-12.328" transform="matrix(1 0 0 -1 31.312 88.541)"/><path style="fill:none;stroke-width:1.69365;stroke-linecap:butt;stroke-linejoin:miter;stroke:#000;stroke-opacity:1;stroke-dasharray:13.54921,3.3873,2.54047,2.54047,2.54047,2.54047,2.54047,2.54047;stroke-miterlimit:10" d="M0 43.72s4.266 9.84 5.907 12.716c1.636 2.875 4.265 6.851 5.906 8.011 1.637 1.16 4.266 1.328 5.902.34 1.641-.988 4.27-4.687 5.907-7.457 1.64-2.766 4.27-8.969 5.906-12.496 1.64-3.523 4.265-9.926 5.906-12.902 1.637-2.977 4.266-7.22 5.906-8.543 1.637-1.328 4.266-1.832 5.907-1.016 1.636.813 4.265 4.23 5.902 6.883 1.64 2.652 4.27 8.726 5.906 12.234 1.64 3.512 4.27 9.992 5.906 13.063 1.641 3.066 4.266 7.566 5.907 9.058 1.636 1.492 4.265 2.332 5.906 1.692 1.637-.637 4.266-3.758 5.906-6.29 1.637-2.535 4.266-8.468 5.903-11.956 1.64-3.489 4.27-10.028 5.906-13.18 1.64-3.152 4.27-7.89 5.906-9.543 1.64-1.652 4.266-2.828 5.906-2.367 1.64.46 4.266 3.281 5.907 5.683 1.636 2.407 4.265 8.18 5.906 11.633 1.636 3.457 4.265 10.043 5.906 13.274 1.637 3.23 4.266 8.199 5.902 10.007 1.641 1.809 4.27 3.313 5.907 3.028 1.64-.281 5.906-5.059 5.906-5.059" transform="matrix(1 0 0 -1 31.312 88.541)"/><path style="fill:none;stroke-width:1.4944;stroke-linecap:butt;stroke-linejoin:miter;stroke:#000;stroke-opacity:1;stroke-dasharray:14.944,2.9888,2.9888,2.9888;stroke-miterlimit:10" d="M0 43.72s4.266 10.102 5.907 13.153c1.636 3.05 4.265 7.383 5.906 8.832 1.637 1.445 4.266 2.227 5.902 1.594 1.641-.637 4.27-3.66 5.907-6.164 1.64-2.504 4.27-8.344 5.906-11.895 1.64-3.554 4.265-10.273 5.906-13.703 1.637-3.43 4.266-8.832 5.906-11.016 1.637-2.18 4.266-4.484 5.907-4.695 1.636-.215 4.265 1.34 5.902 3.164 1.64 1.824 4.27 6.727 5.906 9.988 1.64 3.262 4.27 9.895 5.906 13.52 1.641 3.625 4.266 9.816 5.907 12.613 1.636 2.797 4.265 6.496 5.906 7.543 1.637 1.047 4.266 1.047 5.906 0 1.637-1.047 4.266-4.746 5.903-7.543 1.64-2.797 4.27-8.988 5.906-12.613 1.64-3.625 4.27-10.258 5.906-13.52 1.64-3.261 4.266-8.164 5.906-9.988 1.64-1.824 4.266-3.379 5.907-3.164 1.636.211 4.265 2.516 5.906 4.695 1.636 2.184 4.265 7.586 5.906 11.016 1.637 3.43 4.266 10.149 5.902 13.703 1.641 3.551 4.27 9.39 5.907 11.895 1.64 2.504 5.906 6.164 5.906 6.164" transform="matrix(1 0 0 -1 31.312 88.541)"/><path style="fill:none;stroke-width:1.29514;stroke-linecap:butt;stroke-linejoin:miter;stroke:#000;stroke-opacity:1;stroke-dasharray:12.95148,3.88544;stroke-miterlimit:10" d="M0 43.72S4.266 54.14 5.907 57.38c1.636 3.24 4.265 7.946 5.906 9.696 1.637 1.75 4.266 3.172 5.902 2.922 1.641-.246 4.27-2.531 5.907-4.703 1.64-2.176 4.27-7.5 5.906-10.969 1.64-3.469 4.265-10.281 5.906-14.043 1.637-3.758 4.266-10.086 5.906-13.043 1.637-2.957 4.266-6.965 5.907-8.261 1.636-1.297 4.265-1.825 5.902-1.083 1.64.739 4.27 3.848 5.906 6.41 1.64 2.563 4.27 8.41 5.906 12.051 1.641 3.637 4.266 10.52 5.907 14.18 1.636 3.66 4.265 9.582 5.906 12.203 1.637 2.621 4.266 5.867 5.906 6.688 1.637.82 4.266.445 5.903-.774 1.64-1.215 4.27-5.101 5.906-8.008 1.64-2.902 4.27-9.171 5.906-12.918 1.64-3.746 4.266-10.578 5.906-14.078 1.64-3.504 4.266-8.921 5.907-11.164 1.636-2.242 4.265-4.668 5.906-4.996 1.636-.332 4.265.938 5.906 2.614 1.637 1.675 4.266 6.269 5.902 9.468 1.641 3.196 4.27 9.785 5.907 13.574 1.64 3.793 5.906 13.743 5.906 13.743" transform="matrix(1 0 0 -1 31.312 88.541)"/><path style="fill:none;stroke-width:1.09589;stroke-linecap:butt;stroke-linejoin:miter;stroke:#000;stroke-opacity:1;stroke-dasharray:5.47948,1.64383,1.64383,1.64383;stroke-miterlimit:10" d="M0 43.72s4.266 10.805 5.907 14.258c1.636 3.458 4.265 8.567 5.906 10.645 1.637 2.078 4.266 4.156 5.902 4.332 1.641.172 4.27-1.309 5.907-3.086 1.64-1.773 4.27-6.437 5.906-9.715 1.64-3.273 4.265-9.945 5.906-13.886 1.637-3.942 4.266-10.91 5.906-14.52 1.637-3.61 4.266-9.129 5.907-11.492 1.636-2.363 4.265-5.024 5.902-5.543 1.64-.516 4.27.355 5.906 1.816 1.64 1.461 4.27 5.649 5.906 8.715 1.641 3.07 4.266 9.5 5.907 13.399 1.636 3.894 4.265 10.945 5.906 14.683 1.637 3.738 4.266 9.625 5.906 12.254 1.637 2.629 4.266 5.848 5.903 6.703 1.64.86 4.27.602 5.906-.531 1.64-1.137 4.27-4.805 5.906-7.645 1.64-2.836 4.266-8.992 5.906-12.812 1.64-3.824 4.266-10.895 5.907-14.73 1.636-3.837 4.265-10.04 5.906-12.919 1.636-2.878 4.265-6.64 5.906-7.828 1.637-1.191 4.266-1.55 5.902-.75 1.641.797 4.27 3.93 5.907 6.516 1.64 2.586 5.906 12.129 5.906 12.129" transform="matrix(1 0 0 -1 31.312 88.541)"/><path style="fill:none;stroke-width:.89664;stroke-linecap:butt;stroke-linejoin:miter;stroke:#000;stroke-opacity:1;stroke-dasharray:1.34496,1.34496;stroke-miterlimit:10" d="M0 43.72s4.266 11.286 5.907 14.985c1.636 3.703 4.265 9.266 5.906 11.703 1.637 2.434 4.266 5.215 5.902 5.848 1.641.633 4.27.02 5.907-1.29 1.64-1.308 4.27-5.175 5.906-8.136 1.64-2.965 4.265-9.246 5.906-13.21 1.637-3.966 4.266-11.274 5.906-15.376 1.637-4.101 4.266-10.84 5.907-14.176 1.636-3.336 4.265-8.027 5.902-9.867 1.64-1.84 4.27-3.45 5.906-3.39 1.64.058 4.27 1.878 5.906 3.828 1.641 1.945 4.266 6.797 5.907 10.203 1.636 3.406 4.265 10.23 5.906 14.347 1.637 4.118 4.266 11.41 5.906 15.336 1.637 3.93 4.266 10.098 5.903 12.973 1.64 2.879 4.27 6.566 5.906 7.758 1.64 1.191 4.27 1.59 5.906.836 1.64-.75 4.266-3.723 5.906-6.254 1.64-2.531 4.266-8.238 5.907-11.992 1.636-3.758 4.265-10.922 5.906-15.078 1.636-4.157 4.265-11.227 5.906-14.875 1.637-3.645 4.266-9.067 5.902-11.403 1.641-2.34 4.27-4.922 5.907-5.433 1.64-.516 5.906 1.73 5.906 1.73" transform="matrix(1 0 0 -1 31.312 88.541)"/><path style="fill:none;stroke-width:.69739;stroke-linecap:butt;stroke-linejoin:miter;stroke:#000;stroke-opacity:1;stroke-dasharray:3.48695,1.39478;stroke-miterlimit:10" d="M0 43.72s4.266 11.9 5.907 15.9c1.636 3.995 4.265 10.081 5.906 12.917 1.637 2.836 4.266 6.383 5.902 7.524 1.641 1.144 4.27 1.48 5.907.71 1.64-.765 4.27-3.703 5.906-6.23 1.64-2.531 4.265-8.188 5.906-12.008 1.637-3.82 4.266-11.14 5.906-15.535 1.637-4.395 4.266-12 5.907-16.144 1.636-4.145 4.265-10.614 5.902-13.735 1.64-3.117 4.27-7.238 5.906-8.746 1.64-1.508 4.27-2.512 5.906-2.125 1.641.383 4.266 2.691 5.907 4.898 1.636 2.204 4.265 7.383 5.906 10.997 1.637 3.613 4.266 10.703 5.906 15.046 1.637 4.348 4.266 12.004 5.903 16.266 1.64 4.262 4.27 11.066 5.906 14.445 1.64 3.38 4.27 8.055 5.906 9.918 1.64 1.864 4.266 3.524 5.906 3.524 1.64 0 4.266-1.66 5.907-3.524 1.636-1.863 4.265-6.53 5.906-9.914 1.636-3.379 4.265-10.183 5.906-14.445 1.637-4.262 4.266-11.926 5.902-16.27 1.641-4.343 4.27-11.425 5.907-15.043 1.64-3.613 5.906-11 5.906-11" transform="matrix(1 0 0 -1 31.312 88.541)"/><path style="fill:none;stroke-width:.49814;stroke-linecap:butt;stroke-linejoin:miter;stroke:#000;stroke-opacity:1;stroke-miterlimit:10" d="M0 43.72s4.266 12.727 5.907 17.094c1.636 4.368 4.265 11.086 5.906 14.387 1.637 3.305 4.266 7.707 5.902 9.426 1.641 1.719 4.27 3.102 5.907 2.965 1.64-.137 4.27-1.989 5.906-3.957 1.64-1.973 4.265-6.762 5.906-10.258 1.637-3.5 4.266-10.477 5.906-14.945 1.637-4.465 4.266-12.524 5.907-17.258 1.636-4.735 4.265-12.606 5.902-16.86 1.64-4.257 4.27-10.699 5.906-13.8 1.64-3.102 4.27-7.094 5.906-8.551C66.602.502 69.227-.412 70.868.002c1.636.41 4.265 2.719 5.906 4.937 1.637 2.223 4.266 7.387 5.906 11.063 1.637 3.676 4.266 10.887 5.903 15.441 1.64 4.551 4.27 12.66 5.906 17.368 1.64 4.71 4.27 12.449 5.906 16.574 1.64 4.125 4.266 10.27 5.906 13.156 1.64 2.89 4.266 6.465 5.907 7.656 1.636 1.196 4.265 1.637 5.906.95 1.636-.688 4.265-3.446 5.906-5.907 1.637-2.457 4.266-7.98 5.902-11.824 1.641-3.848 4.27-11.262 5.907-15.883 1.64-4.625 5.906-17.43 5.906-17.43" transform="matrix(1 0 0 -1 31.312 88.541)"/><use xlink:href="#a" x="27.037" y="103.834" style="fill:#000;fill-opacity:1"/><use xlink:href="#b" x="31.271" y="101.021" style="fill:#000;fill-opacity:1"/><g style="fill:#000;fill-opacity:1"><use xlink:href="#c" x="53.266" y="103.834"/><use xlink:href="#a" x="57.501" y="103.834"/></g><use xlink:href="#b" x="61.735" y="101.021" style="fill:#000;fill-opacity:1"/><g style="fill:#000;fill-opacity:1"><use xlink:href="#d" x="81.613" y="103.834"/><use xlink:href="#a" x="85.848" y="103.834"/></g><use xlink:href="#b" x="90.082" y="101.021" style="fill:#000;fill-opacity:1"/><g style="fill:#000;fill-opacity:1"><use xlink:href="#e" x="109.96" y="103.834"/><use xlink:href="#a" x="114.195" y="103.834"/></g><use xlink:href="#b" x="118.428" y="101.021" style="fill:#000;fill-opacity:1"/><g style="fill:#000;fill-opacity:1"><use xlink:href="#f" x="138.307" y="103.834"/><use xlink:href="#a" x="142.542" y="103.834"/></g><use xlink:href="#b" x="146.775" y="101.021" style="fill:#000;fill-opacity:1"/><g style="fill:#000;fill-opacity:1"><use xlink:href="#g" x="166.653" y="103.834"/><use xlink:href="#a" x="170.888" y="103.834"/></g><use xlink:href="#b" x="175.122" y="101.021" style="fill:#000;fill-opacity:1"/><use xlink:href="#h" x=".041" y="86.475" style="fill:#000;fill-opacity:1"/><use xlink:href="#a" x="6.628" y="86.475" style="fill:#000;fill-opacity:1"/><use xlink:href="#i" x="10.862" y="86.475" style="fill:#000;fill-opacity:1"/><g style="fill:#000;fill-opacity:1"><use xlink:href="#c" x="13.214" y="86.475"/><use xlink:href="#g" x="17.449" y="86.475"/></g><use xlink:href="#h" x=".041" y="73.307" style="fill:#000;fill-opacity:1"/><use xlink:href="#a" x="6.628" y="73.307" style="fill:#000;fill-opacity:1"/><use xlink:href="#i" x="10.862" y="73.307" style="fill:#000;fill-opacity:1"/><g style="fill:#000;fill-opacity:1"><use xlink:href="#c" x="13.214" y="73.307"/><use xlink:href="#a" x="17.449" y="73.307"/></g><use xlink:href="#h" x=".041" y="60.14" style="fill:#000;fill-opacity:1"/><use xlink:href="#a" x="6.628" y="60.14" style="fill:#000;fill-opacity:1"/><use xlink:href="#i" x="10.862" y="60.14" style="fill:#000;fill-opacity:1"/><g style="fill:#000;fill-opacity:1"><use xlink:href="#a" x="13.214" y="60.14"/><use xlink:href="#g" x="17.449" y="60.14"/></g><use xlink:href="#a" x="6.628" y="47.388" style="fill:#000;fill-opacity:1"/><use xlink:href="#i" x="10.862" y="47.388" style="fill:#000;fill-opacity:1"/><g style="fill:#000;fill-opacity:1"><use xlink:href="#a" x="13.214" y="47.388"/><use xlink:href="#a" x="17.449" y="47.388"/></g><use xlink:href="#a" x="6.628" y="34.22" style="fill:#000;fill-opacity:1"/><use xlink:href="#i" x="10.862" y="34.22" style="fill:#000;fill-opacity:1"/><g style="fill:#000;fill-opacity:1"><use xlink:href="#a" x="13.214" y="34.22"/><use xlink:href="#g" x="17.449" y="34.22"/></g><use xlink:href="#a" x="6.628" y="21.053" style="fill:#000;fill-opacity:1"/><use xlink:href="#i" x="10.862" y="21.053" style="fill:#000;fill-opacity:1"/><g style="fill:#000;fill-opacity:1"><use xlink:href="#c" x="13.214" y="21.053"/><use xlink:href="#a" x="17.449" y="21.053"/></g><use xlink:href="#a" x="6.628" y="7.885" style="fill:#000;fill-opacity:1"/><use xlink:href="#i" x="10.862" y="7.885" style="fill:#000;fill-opacity:1"/><g style="fill:#000;fill-opacity:1"><use xlink:href="#c" x="13.214" y="7.885"/><use xlink:href="#g" x="17.449" y="7.885"/></g><use xlink:href="#j" x="218.969" y="7.374" style="fill:#000;fill-opacity:1"/><path style="fill:none;stroke-width:.379;stroke-linecap:butt;stroke-linejoin:miter;stroke:#000;stroke-opacity:1;stroke-miterlimit:10" d="M0 .001h3.652" transform="matrix(1 0 0 -1 218.969 8.806)"/><use xlink:href="#k" x="218.969" y="14.09" style="fill:#000;fill-opacity:1"/><g style="fill:#000;fill-opacity:1"><use xlink:href="#l" x="225.354" y="11.048"/><use xlink:href="#m" x="228.989" y="11.048"/><use xlink:href="#n" x="231.549" y="11.048"/></g><g style="fill:#000;fill-opacity:1"><use xlink:href="#o" x="238.202" y="11.048"/><use xlink:href="#o" x="242.81" y="11.048"/></g><use xlink:href="#p" x="247.419" y="11.048" style="fill:#000;fill-opacity:1"/><path style="fill:none;stroke-width:.49814;stroke-linecap:butt;stroke-linejoin:miter;stroke:#000;stroke-opacity:1;stroke-miterlimit:10" d="M-19.926 0s2.91 1.512 4.98 1.328c2.075-.183 7.891-2.472 9.965-2.656C-2.906-1.512 0 0 0 0" transform="matrix(1 0 0 -1 212.797 8.836)"/><use xlink:href="#j" x="218.969" y="19.935" style="fill:#000;fill-opacity:1"/><path style="fill:none;stroke-width:.379;stroke-linecap:butt;stroke-linejoin:miter;stroke:#000;stroke-opacity:1;stroke-miterlimit:10" d="M0 0h3.652" transform="matrix(1 0 0 -1 218.969 21.367)"/><use xlink:href="#q" x="218.969" y="26.651" style="fill:#000;fill-opacity:1"/><g style="fill:#000;fill-opacity:1"><use xlink:href="#l" x="225.354" y="23.608"/><use xlink:href="#m" x="228.989" y="23.608"/><use xlink:href="#n" x="231.549" y="23.608"/></g><g style="fill:#000;fill-opacity:1"><use xlink:href="#o" x="238.202" y="23.608"/><use xlink:href="#r" x="242.81" y="23.608"/></g><use xlink:href="#p" x="247.419" y="23.608" style="fill:#000;fill-opacity:1"/><path style="fill:none;stroke-width:.69739;stroke-linecap:butt;stroke-linejoin:miter;stroke:#000;stroke-opacity:1;stroke-dasharray:3.48695,1.39478;stroke-miterlimit:10" d="M-19.926-.001s2.91 1.511 4.98 1.328c2.075-.184 7.891-2.47 9.965-2.653C-2.906-1.509 0 0 0 0" transform="matrix(1 0 0 -1 212.797 21.397)"/><use xlink:href="#j" x="218.969" y="32.496" style="fill:#000;fill-opacity:1"/><path style="fill:none;stroke-width:.379;stroke-linecap:butt;stroke-linejoin:miter;stroke:#000;stroke-opacity:1;stroke-miterlimit:10" d="M0-.002h3.652" transform="matrix(1 0 0 -1 218.969 33.928)"/><use xlink:href="#s" x="218.969" y="39.212" style="fill:#000;fill-opacity:1"/><g style="fill:#000;fill-opacity:1"><use xlink:href="#l" x="225.354" y="36.169"/><use xlink:href="#m" x="228.989" y="36.169"/><use xlink:href="#n" x="231.549" y="36.169"/></g><g style="fill:#000;fill-opacity:1"><use xlink:href="#o" x="238.202" y="36.169"/><use xlink:href="#t" x="242.81" y="36.169"/></g><use xlink:href="#p" x="247.419" y="36.169" style="fill:#000;fill-opacity:1"/><path style="fill:none;stroke-width:.89664;stroke-linecap:butt;stroke-linejoin:miter;stroke:#000;stroke-opacity:1;stroke-dasharray:1.34496,1.34496;stroke-miterlimit:10" d="M-19.926.001s2.91 1.512 4.98 1.324c2.075-.183 7.891-2.469 9.965-2.652C-2.906-1.511 0 0 0 0" transform="matrix(1 0 0 -1 212.797 33.958)"/><use xlink:href="#j" x="218.969" y="45.057" style="fill:#000;fill-opacity:1"/><path style="fill:none;stroke-width:.379;stroke-linecap:butt;stroke-linejoin:miter;stroke:#000;stroke-opacity:1;stroke-miterlimit:10" d="M0 0h3.652" transform="matrix(1 0 0 -1 218.969 46.489)"/><use xlink:href="#u" x="218.969" y="51.773" style="fill:#000;fill-opacity:1"/><g style="fill:#000;fill-opacity:1"><use xlink:href="#l" x="225.354" y="48.73"/><use xlink:href="#m" x="228.989" y="48.73"/><use xlink:href="#n" x="231.549" y="48.73"/></g><g style="fill:#000;fill-opacity:1"><use xlink:href="#o" x="238.202" y="48.73"/><use xlink:href="#v" x="242.81" y="48.73"/></g><use xlink:href="#p" x="247.419" y="48.73" style="fill:#000;fill-opacity:1"/><path style="fill:none;stroke-width:1.09589;stroke-linecap:butt;stroke-linejoin:miter;stroke:#000;stroke-opacity:1;stroke-dasharray:5.47948,1.64383,1.64383,1.64383;stroke-miterlimit:10" d="M-19.926-.002s2.91 1.512 4.98 1.329c2.075-.184 7.891-2.47 9.965-2.653C-2.906-1.509 0-.002 0-.002" transform="matrix(1 0 0 -1 212.797 46.518)"/><use xlink:href="#j" x="220.796" y="57.617" style="fill:#000;fill-opacity:1"/><path style="fill:none;stroke-width:.379;stroke-linecap:butt;stroke-linejoin:miter;stroke:#000;stroke-opacity:1;stroke-miterlimit:10" d="M0-.002h7.304" transform="matrix(1 0 0 -1 218.969 59.049)"/><g style="fill:#000;fill-opacity:1"><use xlink:href="#j" x="218.969" y="64.334"/><use xlink:href="#w" x="222.622" y="64.334"/></g><g style="fill:#000;fill-opacity:1"><use xlink:href="#l" x="229.007" y="61.291"/><use xlink:href="#m" x="232.642" y="61.291"/><use xlink:href="#n" x="235.202" y="61.291"/></g><g style="fill:#000;fill-opacity:1"><use xlink:href="#o" x="241.855" y="61.291"/><use xlink:href="#x" x="246.463" y="61.291"/></g><use xlink:href="#p" x="251.072" y="61.291" style="fill:#000;fill-opacity:1"/><path style="fill:none;stroke-width:1.29514;stroke-linecap:butt;stroke-linejoin:miter;stroke:#000;stroke-opacity:1;stroke-dasharray:12.95148,3.88544;stroke-miterlimit:10" d="M-19.926 0s2.91 1.513 4.98 1.325c2.075-.183 7.891-2.469 9.965-2.652C-2.906-1.511 0 0 0 0" transform="matrix(1 0 0 -1 212.797 59.079)"/><use xlink:href="#j" x="220.796" y="70.178" style="fill:#000;fill-opacity:1"/><path style="fill:none;stroke-width:.379;stroke-linecap:butt;stroke-linejoin:miter;stroke:#000;stroke-opacity:1;stroke-miterlimit:10" d="M0 0h7.304" transform="matrix(1 0 0 -1 218.969 71.61)"/><g style="fill:#000;fill-opacity:1"><use xlink:href="#j" x="218.969" y="76.894"/><use xlink:href="#j" x="222.622" y="76.894"/></g><g style="fill:#000;fill-opacity:1"><use xlink:href="#l" x="229.007" y="73.852"/><use xlink:href="#m" x="232.642" y="73.852"/><use xlink:href="#n" x="235.202" y="73.852"/></g><g style="fill:#000;fill-opacity:1"><use xlink:href="#o" x="241.855" y="73.852"/><use xlink:href="#y" x="246.463" y="73.852"/></g><use xlink:href="#p" x="251.072" y="73.852" style="fill:#000;fill-opacity:1"/><path style="fill:none;stroke-width:1.4944;stroke-linecap:butt;stroke-linejoin:miter;stroke:#000;stroke-opacity:1;stroke-dasharray:14.944,2.9888,2.9888,2.9888;stroke-miterlimit:10" d="M-19.926 0s2.91 1.511 4.98 1.327c2.075-.183 7.891-2.468 9.965-2.656C-2.906-1.512 0 0 0 0" transform="matrix(1 0 0 -1 212.797 71.64)"/><use xlink:href="#j" x="220.796" y="82.739" style="fill:#000;fill-opacity:1"/><path style="fill:none;stroke-width:.379;stroke-linecap:butt;stroke-linejoin:miter;stroke:#000;stroke-opacity:1;stroke-miterlimit:10" d="M0 0h7.304" transform="matrix(1 0 0 -1 218.969 84.171)"/><g style="fill:#000;fill-opacity:1"><use xlink:href="#j" x="218.969" y="89.455"/><use xlink:href="#z" x="222.622" y="89.455"/></g><g style="fill:#000;fill-opacity:1"><use xlink:href="#l" x="229.007" y="86.413"/><use xlink:href="#m" x="232.642" y="86.413"/><use xlink:href="#n" x="235.202" y="86.413"/></g><g style="fill:#000;fill-opacity:1"><use xlink:href="#o" x="241.855" y="86.413"/><use xlink:href="#A" x="246.463" y="86.413"/></g><use xlink:href="#p" x="251.072" y="86.413" style="fill:#000;fill-opacity:1"/><g clip-path="url(#B)"><path style="fill:none;stroke-width:1.69365;stroke-linecap:butt;stroke-linejoin:miter;stroke:#000;stroke-opacity:1;stroke-dasharray:13.54921,3.3873,2.54047,2.54047,2.54047,2.54047,2.54047,2.54047;stroke-miterlimit:10" d="M-19.926.002s2.91 1.508 4.98 1.324c2.075-.184 7.891-2.469 9.965-2.652C-2.906-1.51 0 .002 0 .002" transform="matrix(1 0 0 -1 212.797 84.201)"/></g><use xlink:href="#j" x="220.796" y="95.3" style="fill:#000;fill-opacity:1"/><path style="fill:none;stroke-width:.379;stroke-linecap:butt;stroke-linejoin:miter;stroke:#000;stroke-opacity:1;stroke-miterlimit:10" d="M0 .002h7.304" transform="matrix(1 0 0 -1 218.969 96.732)"/><g style="fill:#000;fill-opacity:1"><use xlink:href="#j" x="218.969" y="102.016"/><use xlink:href="#C" x="222.622" y="102.016"/></g><g style="fill:#000;fill-opacity:1"><use xlink:href="#l" x="229.007" y="98.974"/><use xlink:href="#m" x="232.642" y="98.974"/><use xlink:href="#n" x="235.202" y="98.974"/></g><g style="fill:#000;fill-opacity:1"><use xlink:href="#o" x="241.855" y="98.974"/><use xlink:href="#D" x="246.463" y="98.974"/></g><use xlink:href="#p" x="251.072" y="98.974" style="fill:#000;fill-opacity:1"/><g clip-path="url(#E)"><path style="fill:none;stroke-width:1.8929;stroke-linecap:butt;stroke-linejoin:miter;stroke:#000;stroke-opacity:1;stroke-miterlimit:10" d="M-19.926 0s2.91 1.512 4.98 1.328c2.075-.183 7.891-2.472 9.965-2.656C-2.906-1.51 0 0 0 0" transform="matrix(1 0 0 -1 212.797 96.762)"/></g></svg>