<svg xmlns="http://www.w3.org/2000/svg" xmlns:xlink="http://www.w3.org/1999/xlink" width="78.459" height="85.923" viewBox="0 0 58.844 64.442" version="1.2"><defs><symbol overflow="visible" id="a"><path style="stroke:none" d="M5.828 0v-.469h-.703L3.453-2.453 4.61-3.75c.141-.14.204-.203 1.016-.203v-.469l-.906.031-1.032-.03v.468c.141 0 .266.015.376.078-.032.063-.032.094-.079.125l-.828.938-.984-1.141h.406v-.469L1.36-4.39.266-4.42v.468h.718l1.547 1.828L1.22-.656c-.157.187-.516.187-1 .187V0l.922-.031L2.156 0v-.469c-.172 0-.36-.047-.36-.11 0 0 0-.015.063-.093l.97-1.094L3.921-.469h-.39V0l1.202-.031Zm0 0"/></symbol><symbol overflow="visible" id="b"><path style="stroke:none" d="M5.781-3.953v-.469A12.55 12.55 0 0 1 5-4.39l-.906-.03v.468s.468 0 .468.11L4.5-3.72 3.36-1.266 2.093-3.953h.531v-.469l-1.234.031-1.125-.03v.468H.89L2.766 0 2.53.484C2.312.954 2 1.641 1.281 1.641c-.14 0-.156-.016-.234-.047.094-.032.312-.172.312-.532C1.36.734 1.125.5.781.5a.553.553 0 0 0-.562.578c0 .5.469.922 1.062.922.766 0 1.344-.625 1.625-1.188l2.14-4.562c.063-.14.095-.203.735-.203Zm0 0"/></symbol><symbol overflow="visible" id="c"><path style="stroke:none" d="M4.61-2.016h-.47C4.048-1 3.89-.406 2.579-.406h-.86L4.469-4c.095-.11.11-.125.11-.219 0-.203-.14-.203-.328-.203H.594l-.11 1.734h.47c.046-1.015.359-1.374 1.39-1.374h.844L.405-.438C.312-.329.312-.314.312-.22.313 0 .454 0 .641 0h3.78Zm0 0"/></symbol></defs><path style="fill:none;stroke-width:.3985;stroke-linecap:butt;stroke-linejoin:miter;stroke:#000;stroke-opacity:1;stroke-miterlimit:10" d="m-24.551-3.67 48.707 7.278" transform="matrix(1 0 0 -1 25.508 35.78)"/><path style="fill:none;stroke-width:.3985;stroke-linecap:round;stroke-linejoin:round;stroke:#000;stroke-opacity:1;stroke-miterlimit:10" d="M-2.072 2.392C-1.694.957-.852.278-.001 0c-.847-.28-1.69-.956-2.071-2.393" transform="scale(.99995 -.99995) rotate(8.498 241.245 319.493)"/><use xlink:href="#a" x="51.943" y="33.59" style="fill:#000;fill-opacity:1"/><path style="fill:none;stroke-width:.3985;stroke-linecap:butt;stroke-linejoin:miter;stroke:#000;stroke-opacity:1;stroke-miterlimit:10" d="M14.172-6.353-13.808 6.19" transform="matrix(1 0 0 -1 25.508 35.78)"/><path style="fill:none;stroke-width:.3985;stroke-linecap:round;stroke-linejoin:round;stroke:#000;stroke-opacity:1;stroke-miterlimit:10" d="M-2.073 2.392C-1.695.957-.851.277 0 0-.85-.279-1.694-.956-2.073-2.393" transform="scale(-.99997 .99997) rotate(-24.145 63.227 41.678)"/><use xlink:href="#b" x="5.476" y="29.371" style="fill:#000;fill-opacity:1"/><path style="fill:none;stroke-width:.3985;stroke-linecap:butt;stroke-linejoin:miter;stroke:#000;stroke-opacity:1;stroke-miterlimit:10" d="M0-27.38v54.363" transform="matrix(1 0 0 -1 25.508 35.78)"/><path style="fill:none;stroke-width:.3985;stroke-linecap:round;stroke-linejoin:round;stroke:#000;stroke-opacity:1;stroke-miterlimit:10" d="M-2.074 2.39C-1.694.958-.85.279.001 0c-.852-.277-1.696-.957-2.075-2.39" transform="matrix(0 -1 -1 0 25.508 8.598)"/><use xlink:href="#c" x="22.963" y="5.135" style="fill:#000;fill-opacity:1"/></svg>