<svg xmlns="http://www.w3.org/2000/svg" width="57.495" height="85.827" viewBox="0 0 43.121 64.37" version="1.2"><defs><clipPath id="a"><path d="M27 14h15.68v21H27Zm0 0"/></clipPath><clipPath id="b"><path d="M27 28h15.68v21H27Zm0 0"/></clipPath><clipPath id="c"><path d="M27 0h15.68v21H27Zm0 0"/></clipPath></defs><path style="fill:none;stroke-width:.3985;stroke-linecap:butt;stroke-linejoin:miter;stroke:#000;stroke-opacity:1;stroke-miterlimit:10" d="m-8.442-16.886-4.375-8.746M-15.532-31.062l-4.37-8.742M-22.618-45.234l-4.37-8.746" transform="matrix(1 0 0 -1 31.75 3.52)"/><g clip-path="url(#a)"><path style="fill:none;stroke-width:.3985;stroke-linecap:butt;stroke-linejoin:miter;stroke:#000;stroke-opacity:1;stroke-miterlimit:10" d="m5.73-16.886-4.371-8.746" transform="matrix(1 0 0 -1 31.75 3.52)"/></g><path style="fill:none;stroke-width:.3985;stroke-linecap:butt;stroke-linejoin:miter;stroke:#000;stroke-opacity:1;stroke-miterlimit:10" d="m-8.442-45.234-4.375-8.746M-5.731-45.234l4.375-8.746M-1.356-31.062l-4.375-8.742" transform="matrix(1 0 0 -1 31.75 3.52)"/><g clip-path="url(#b)"><path style="fill:none;stroke-width:.3985;stroke-linecap:butt;stroke-linejoin:miter;stroke:#000;stroke-opacity:1;stroke-miterlimit:10" d="m1.359-31.062 4.371-8.742" transform="matrix(1 0 0 -1 31.75 3.52)"/></g><path style="fill:none;stroke-width:.3985;stroke-linecap:butt;stroke-linejoin:miter;stroke:#000;stroke-opacity:1;stroke-miterlimit:10" d="m-1.356-2.714-4.375-8.746" transform="matrix(1 0 0 -1 31.75 3.52)"/><g clip-path="url(#c)"><path style="fill:none;stroke-width:.3985;stroke-linecap:butt;stroke-linejoin:miter;stroke:#000;stroke-opacity:1;stroke-miterlimit:10" d="M1.359-2.714 5.73-11.46" transform="matrix(1 0 0 -1 31.75 3.52)"/></g><path style="stroke:none;fill-rule:nonzero;fill:#000;fill-opacity:1" d="M34.586 3.52a2.836 2.836 0 1 0-5.672 0 2.836 2.836 0 0 0 5.672 0ZM27.5 17.691a2.835 2.835 0 0 0-2.836-2.832 2.835 2.835 0 1 0 2.836 2.832ZM20.414 31.867a2.836 2.836 0 1 0-5.672 0 2.835 2.835 0 0 0 2.836 2.832 2.835 2.835 0 0 0 2.836-2.832ZM13.324 46.04a2.835 2.835 0 1 0-2.832 2.835 2.835 2.835 0 0 0 2.832-2.836ZM6.238 60.21a2.832 2.832 0 0 0-2.832-2.831A2.832 2.832 0 0 0 .57 60.21a2.835 2.835 0 1 0 5.668 0ZM41.672 17.691a2.835 2.835 0 0 0-5.668 0 2.835 2.835 0 1 0 5.668 0ZM34.586 31.867a2.836 2.836 0 1 0-5.672 0A2.835 2.835 0 0 0 31.75 34.7a2.835 2.835 0 0 0 2.836-2.832ZM27.5 46.04a2.836 2.836 0 1 0-5.671-.001 2.836 2.836 0 0 0 5.671 0ZM20.414 60.21a2.832 2.832 0 0 0-2.836-2.831 2.832 2.832 0 0 0-2.836 2.832 2.836 2.836 0 1 0 5.672 0ZM34.586 60.21a2.832 2.832 0 0 0-2.836-2.831 2.832 2.832 0 0 0-2.836 2.832 2.836 2.836 0 1 0 5.672 0ZM41.672 46.04a2.835 2.835 0 1 0-5.668 0 2.835 2.835 0 1 0 5.668 0Zm0 0"/></svg>