<svg xmlns="http://www.w3.org/2000/svg" width="42.537" height="6.675" viewBox="0 0 31.903 5.006" version="1.2"><defs><clipPath id="a"><path d="M7 0h24.855v4.508H7Zm0 0"/></clipPath></defs><path style="fill:none;stroke-width:1.59404;stroke-linecap:butt;stroke-linejoin:miter;stroke:#000;stroke-opacity:1;stroke-miterlimit:10" d="M0 2.212h27.645" transform="matrix(1 0 0 -1 .96 4.224)"/><path style="stroke:none;fill-rule:nonzero;fill:#000;fill-opacity:1" d="M30.102 2.012a.749.749 0 0 0-1.497 0c0 .414.336.746.75.746.41 0 .747-.332.747-.746Zm0 0"/><g clip-path="url(#a)"><path style="fill:none;stroke-width:1.49442;stroke-linecap:butt;stroke-linejoin:miter;stroke:#000;stroke-opacity:1;stroke-miterlimit:10" d="M2.242 0A.749.749 0 0 1 .745 0c0-.414.336-.746.75-.746.41 0 .747.332.747.747Zm0 0" transform="matrix(1 0 0 -1 27.86 2.012)"/></g></svg>