<svg xmlns="http://www.w3.org/2000/svg" xmlns:xlink="http://www.w3.org/1999/xlink" width="138.771" height="195.435" viewBox="0 0 104.078 146.576" version="1.2"><defs><clipPath id="a"><path d="M.555 9h102.05v136.36H.555Zm0 0"/></clipPath><clipPath id="b"><path d="M.555 128h102.05v1H.555Zm0 0"/></clipPath><clipPath id="c"><path d="M51 0h1v145.36h-1Zm0 0"/></clipPath><clipPath id="d"><path d="M.555 37h102.05v108.36H.555Zm0 0"/></clipPath><clipPath id="g"><path d="M11 142h4v3.36h-4Zm0 0"/></clipPath><symbol overflow="visible" id="e"><path style="stroke:none" d="M6.563-2.297c.171 0 .359 0 .359-.203 0-.188-.188-.188-.36-.188h-5.39c-.172 0-.344 0-.344.188 0 .203.172.203.344.203Zm0 0"/></symbol><symbol overflow="visible" id="f"><path style="stroke:none" d="M2.328-4.438c0-.187 0-.187-.203-.187-.453.438-1.078.438-1.36.438v.25c.157 0 .626 0 1-.188v3.547c0 .234 0 .328-.687.328H.812V0c.125 0 .985-.031 1.235-.031.219 0 1.094.031 1.25.031v-.25H3.03c-.703 0-.703-.094-.703-.328Zm0 0"/></symbol><symbol overflow="visible" id="h"><path style="stroke:none" d="M3.516-1.266H3.28c-.015.157-.094.563-.187.625-.047.047-.578.047-.688.047H1.125c.734-.64.984-.844 1.39-1.172.516-.406 1-.843 1-1.5 0-.843-.734-1.359-1.624-1.359-.86 0-1.454.61-1.454 1.25 0 .344.297.39.376.39.156 0 .359-.124.359-.374 0-.125-.047-.375-.406-.375.218-.485.687-.641 1.015-.641.703 0 1.063.547 1.063 1.11 0 .609-.438 1.078-.656 1.328L.516-.266C.437-.203.437-.187.437 0h2.876Zm0 0"/></symbol><symbol overflow="visible" id="i"><path style="stroke:none" d="M2.938-6.375c0-.25 0-.266-.235-.266C2.078-6 1.203-6 .891-6v.313c.203 0 .78 0 1.296-.266v5.172c0 .36-.03.469-.921.469H.953V0c.344-.031 1.203-.031 1.61-.031.39 0 1.265 0 1.609.031v-.313h-.313c-.906 0-.921-.109-.921-.468Zm0 0"/></symbol></defs><g clip-path="url(#a)"><path style="fill:none;stroke-width:.19925;stroke-linecap:butt;stroke-linejoin:miter;stroke:gray;stroke-opacity:1;stroke-miterlimit:10" d="M-119.058-85.04h238.114m-238.114 42.52h238.114M-119.058 0h238.114m-238.114 42.519h238.114m-238.114 42.52h238.114M-85.042-119.055v238.11m42.523-238.11v238.11m42.52-238.11v238.11m42.52-238.11v238.11m42.52-238.11v238.11" transform="matrix(1 0 0 -1 51.581 128.351)"/></g><path style="fill-rule:nonzero;fill:#cfc;fill-opacity:1;stroke-width:.3985;stroke-linecap:butt;stroke-linejoin:miter;stroke:green;stroke-opacity:1;stroke-miterlimit:10" d="M.001 0h25.512c0 4.476-1.18 8.878-3.418 12.757Zm0 0" transform="matrix(1 0 0 -1 51.581 128.351)"/><g clip-path="url(#b)"><path style="fill:none;stroke-width:.3985;stroke-linecap:butt;stroke-linejoin:miter;stroke:#000;stroke-opacity:1;stroke-miterlimit:10" d="M-127.561 0H127.16" transform="matrix(1 0 0 -1 51.581 128.351)"/></g><g clip-path="url(#c)"><path style="fill:none;stroke-width:.3985;stroke-linecap:butt;stroke-linejoin:miter;stroke:#000;stroke-opacity:1;stroke-miterlimit:10" d="M.001-127.56v254.724" transform="matrix(1 0 0 -1 51.581 128.351)"/></g><path style="fill:none;stroke-width:.3985;stroke-linecap:round;stroke-linejoin:round;stroke:#000;stroke-opacity:1;stroke-miterlimit:10" d="M-2.073 2.39C-1.694.956-.85.28.001-.001c-.851-.277-1.695-.957-2.074-2.39" transform="matrix(0 -1 -1 0 51.581 .99)"/><g clip-path="url(#d)"><path style="fill:none;stroke-width:.3985;stroke-linecap:butt;stroke-linejoin:miter;stroke:#000;stroke-opacity:1;stroke-miterlimit:10" d="M85.04 0c0 46.968-38.074 85.038-85.039 85.038-46.969 0-85.043-38.07-85.043-85.039 0-46.964 38.074-85.039 85.043-85.039 46.965 0 85.04 38.075 85.04 85.04Zm0 0" transform="matrix(1 0 0 -1 51.581 128.351)"/></g><path style="fill:none;stroke-width:.3985;stroke-linecap:butt;stroke-linejoin:miter;stroke:#000;stroke-opacity:1;stroke-miterlimit:10" d="M-42.519 2.988V-2.99" transform="matrix(1 0 0 -1 51.581 128.351)"/><use xlink:href="#e" x="2.006" y="143.276" style="fill:#000;fill-opacity:1"/><use xlink:href="#f" x="10.95" y="139.354" style="fill:#000;fill-opacity:1"/><path style="fill:none;stroke-width:.398;stroke-linecap:butt;stroke-linejoin:miter;stroke:#000;stroke-opacity:1;stroke-miterlimit:10" d="M0 0h3.972" transform="matrix(1 0 0 -1 10.95 140.786)"/><g clip-path="url(#g)"><use xlink:href="#h" x="10.95" y="146.712" style="fill:#000;fill-opacity:1"/></g><path style="fill:none;stroke-width:.3985;stroke-linecap:butt;stroke-linejoin:miter;stroke:#000;stroke-opacity:1;stroke-miterlimit:10" d="M2.99 42.519h-5.977" transform="matrix(1 0 0 -1 51.581 128.351)"/><use xlink:href="#f" x="39.906" y="84.399" style="fill:#000;fill-opacity:1"/><path style="fill:none;stroke-width:.398;stroke-linecap:butt;stroke-linejoin:miter;stroke:#000;stroke-opacity:1;stroke-miterlimit:10" d="M0-.001h3.973" transform="matrix(1 0 0 -1 39.906 85.831)"/><use xlink:href="#h" x="39.906" y="91.757" style="fill:#000;fill-opacity:1"/><path style="fill:none;stroke-width:.3985;stroke-linecap:butt;stroke-linejoin:miter;stroke:#000;stroke-opacity:1;stroke-miterlimit:10" d="M2.99 85.038h-5.977" transform="matrix(1 0 0 -1 51.581 128.351)"/><use xlink:href="#i" x="40.091" y="46.522" style="fill:#000;fill-opacity:1"/></svg>