<svg xmlns="http://www.w3.org/2000/svg" xmlns:xlink="http://www.w3.org/1999/xlink" width="129.579" height="177.627" viewBox="0 0 97.184 133.22" version="1.2"><defs><symbol overflow="visible" id="a"><path style="stroke:none" d="M4.922 0v-.469h-1.39v-5.734c0-.234 0-.328-.266-.328-.11 0-.125 0-.22.078-.765.562-1.796.562-2 .562H.845v.47h.203c.156 0 .703-.016 1.297-.204v5.156H.954V0c.437-.031 1.5-.031 1.984-.031s1.546 0 1.984.031Zm0 0"/></symbol><symbol overflow="visible" id="b"><path style="stroke:none" d="M5.156-2.219h-.468c-.032.203-.125.844-.266.906-.11.063-.86.063-1.016.063H1.937c.47-.39 1-.813 1.438-1.14 1.14-.844 1.781-1.313 1.781-2.25 0-1.157-1.047-1.891-2.437-1.891-1.219 0-2.156.625-2.156 1.515 0 .594.484.735.718.735C1.61-4.281 2-4.5 2-5c0-.516-.422-.672-.563-.719.282-.234.672-.343 1.032-.343.844 0 1.312.671 1.312 1.421 0 .688-.375 1.375-1.078 2.079l-2 2.046c-.14.11-.14.141-.14.344V0h4.28Zm0 0"/></symbol><symbol overflow="visible" id="c"><path style="stroke:none" d="M5.25-1.797c0-.547-.297-1.406-1.734-1.719.687-.203 1.406-.765 1.406-1.625 0-.765-.75-1.39-2.156-1.39-1.188 0-1.97.64-1.97 1.437 0 .422.313.703.688.703a.668.668 0 0 0 .704-.687c0-.578-.547-.688-.579-.703.344-.282.782-.36 1.094-.36.828 0 .86.641.86.97 0 .124-.016 1.437-1.047 1.5-.407.015-.438.015-.485.03-.094.016-.125.11-.125.172 0 .172.11.172.282.172h.437c1.094 0 1.094.985 1.094 1.5 0 .469 0 1.484-1.031 1.484-.266 0-.782-.046-1.266-.343C1.75-.75 2-1 2-1.406c0-.453-.313-.75-.75-.75-.422 0-.766.265-.766.765 0 .907.97 1.5 2.25 1.5 1.782 0 2.516-1 2.516-1.906Zm0 0"/></symbol><symbol overflow="visible" id="d"><path style="stroke:none" d="M5.406 0v-.469h-.968v-1.094h.968v-.468h-.968V-6.22c0-.265-.016-.328-.297-.328-.22 0-.22.016-.344.172L.312-2.031v.469h2.876V-.47h-1.11V0c.375-.031 1.281-.031 1.703-.031.406 0 1.266 0 1.625.031Zm-2.11-2.031H.845L3.297-5.11Zm0 0"/></symbol><symbol overflow="visible" id="e"><path style="stroke:none" d="M5.156-2c0-1.156-.797-2.078-2.265-2.078-.282 0-.813.031-1.282.344v-1.313c.282.047.391.078.72.078 1.452 0 2.374-1.125 2.374-1.375 0-.078-.016-.187-.14-.187-.032 0-.032 0-.141.047a4.32 4.32 0 0 1-1.531.28c-.75 0-1.282-.202-1.547-.28-.094-.032-.094-.047-.125-.047-.14 0-.14.11-.14.265v2.922c0 .172 0 .297.218.297.125 0 .156-.031.219-.11.39-.468.921-.562 1.328-.562.89 0 .89.875.89 1.672 0 .735 0 1.735-1.187 1.735-.25 0-.875-.063-1.297-.625.36-.016.656-.266.656-.672 0-.532-.437-.672-.672-.672-.14 0-.671.094-.671.703 0 .844.78 1.687 2.015 1.687C4.172.11 5.156-.78 5.156-2Zm0 0"/></symbol><symbol overflow="visible" id="f"><path style="stroke:none" d="M5.25-2.047c0-1.39-1.016-2.125-2.219-2.125-.219 0-.781 0-1.203.766v-.188c0-1.14.219-1.562.281-1.719.25-.468.782-.828 1.391-.828.172 0 .516.032.75.266a.595.595 0 0 0-.547.61c0 .343.235.624.625.624s.625-.265.625-.64c0-.625-.422-1.25-1.469-1.25-1.359 0-3 .86-3 3.375 0 .781.079 1.578.5 2.265.47.766 1.22 1 1.922 1C4.281.11 5.25-.703 5.25-2.047Zm-1.36-.015c0 1 0 1.75-1.015 1.75-.516 0-.781-.391-.86-.563-.156-.313-.156-1.031-.156-1.219 0-1.25.532-1.719 1.079-1.719.953 0 .953.75.953 1.75Zm0 0"/></symbol><symbol overflow="visible" id="g"><path style="stroke:none" d="M5.563-6.422H3.53c-.234 0-1.703-.047-1.844-.094-.203-.03-.218-.125-.234-.218H.984l-.343 2.53h.468c.094-.765.22-.89.266-.905.11-.063.922-.063 1.094-.063H4.14c-.172.219-.36.422-.547.64-.953 1.126-1.672 2.47-1.672 3.938 0 .703.562.703.625.703.156 0 .625-.046.625-.703v-.469c0-.468.031-.953.094-1.421.093-.672.296-1.25.656-1.657l1.547-1.796c.093-.11.093-.141.093-.485Zm0 0"/></symbol><symbol overflow="visible" id="h"><path style="stroke:none" d="M5.25-1.86c0-1.077-.844-1.546-1.328-1.827.687-.36 1-.797 1-1.376 0-1.015-.906-1.468-2.047-1.468-1.375 0-2.078.797-2.078 1.75 0 .437.187 1.062.953 1.5C.922-2.906.484-2.344.484-1.61.484-.406 1.563.109 2.844.109 4.438.11 5.25-.766 5.25-1.859ZM4.172-5.046c0 .484-.25.813-.688 1.11l-1.5-.844c-.156-.078-.437-.25-.437-.594 0-.703.89-.766 1.297-.766.828 0 1.328.407 1.328 1.094Zm.219 3.734c0 .829-.938 1-1.516 1-.969 0-1.547-.515-1.547-1.296 0-.766.531-1.204.89-1.407l1.36.766c.438.25.813.453.813.938Zm0 0"/></symbol><symbol overflow="visible" id="i"><path style="stroke:none" d="M5.25-3.281c0-.672 0-3.25-2.375-3.25-1.406 0-2.39.812-2.39 2.14 0 1.375.984 2.125 2.203 2.125.359 0 .828-.062 1.203-.765v.219c0 .734-.094 1.312-.235 1.656-.172.39-.61.843-1.297.843-.171 0-.53-.03-.828-.218.11-.031.485-.172.485-.625 0-.344-.235-.625-.625-.625-.391 0-.625.265-.625.64 0 .688.515 1.25 1.609 1.25C3.672.11 5.25-.734 5.25-3.28Zm-1.375-.985c0 .625-.25 1.641-1.094 1.641-.953 0-.953-.75-.953-1.734 0-.985 0-1.782 1.078-1.782.578 0 .813.532.86.625.109.329.109.907.109 1.25Zm0 0"/></symbol><symbol overflow="visible" id="j"><path style="stroke:none" d="M5.281-3.188c0-.953-.015-3.343-2.422-3.343C.453-6.531.453-4.156.453-3.188c0 1 0 3.297 2.406 3.297 2.391 0 2.422-2.296 2.422-3.296ZM4-3.296c0 .563 0 1.469-.078 1.985-.14.921-.766 1.062-1.063 1.062-.359 0-.921-.219-1.046-.953-.094-.516-.094-1.547-.094-2.094 0-.719 0-1.375.078-1.89.125-.891.828-.985 1.062-.985.375 0 .782.188.97.625C4-5.172 4-4.109 4-3.297Zm0 0"/></symbol><clipPath id="k"><path d="M9 88h39v44.828H9Zm0 0"/></clipPath><clipPath id="l"><path d="M6 88h39v44.828H6Zm0 0"/></clipPath><clipPath id="m"><path d="M51 100h36v32.828H51Zm0 0"/></clipPath><clipPath id="n"><path d="M51 100h36v32.828H51Zm0 0"/></clipPath></defs><use xlink:href="#a" x="2.619" y="7.108" style="fill:#000;fill-opacity:1"/><use xlink:href="#b" x="2.619" y="18.447" style="fill:#000;fill-opacity:1"/><use xlink:href="#c" x="2.619" y="29.73" style="fill:#000;fill-opacity:1"/><use xlink:href="#d" x="2.619" y="41.129" style="fill:#000;fill-opacity:1"/><use xlink:href="#e" x="2.619" y="52.408" style="fill:#000;fill-opacity:1"/><use xlink:href="#f" x="2.619" y="63.746" style="fill:#000;fill-opacity:1"/><use xlink:href="#g" x="2.619" y="75.189" style="fill:#000;fill-opacity:1"/><use xlink:href="#h" x="2.619" y="86.423" style="fill:#000;fill-opacity:1"/><use xlink:href="#i" x="2.619" y="97.762" style="fill:#000;fill-opacity:1"/><g style="fill:#000;fill-opacity:1"><use xlink:href="#a" x="-.245" y="109.1"/><use xlink:href="#j" x="5.484" y="109.1"/></g><g style="fill:#000;fill-opacity:1"><use xlink:href="#a" x="-.245" y="120.494"/><use xlink:href="#a" x="5.484" y="120.494"/></g><g style="fill:#000;fill-opacity:1"><use xlink:href="#a" x="-.245" y="131.832"/><use xlink:href="#b" x="5.484" y="131.832"/></g><use xlink:href="#a" x="45.138" y="7.108" style="fill:#000;fill-opacity:1"/><use xlink:href="#b" x="45.138" y="18.447" style="fill:#000;fill-opacity:1"/><use xlink:href="#c" x="45.138" y="29.73" style="fill:#000;fill-opacity:1"/><use xlink:href="#d" x="45.138" y="41.129" style="fill:#000;fill-opacity:1"/><use xlink:href="#e" x="45.138" y="52.408" style="fill:#000;fill-opacity:1"/><use xlink:href="#f" x="45.138" y="63.746" style="fill:#000;fill-opacity:1"/><use xlink:href="#g" x="45.138" y="75.189" style="fill:#000;fill-opacity:1"/><use xlink:href="#h" x="45.138" y="86.423" style="fill:#000;fill-opacity:1"/><use xlink:href="#i" x="45.138" y="97.762" style="fill:#000;fill-opacity:1"/><g style="fill:#000;fill-opacity:1"><use xlink:href="#a" x="42.274" y="109.1"/><use xlink:href="#j" x="48.003" y="109.1"/></g><g style="fill:#000;fill-opacity:1"><use xlink:href="#a" x="42.274" y="120.494"/><use xlink:href="#a" x="48.003" y="120.494"/></g><g style="fill:#000;fill-opacity:1"><use xlink:href="#a" x="42.274" y="131.832"/><use xlink:href="#b" x="48.003" y="131.832"/></g><path style="fill:none;stroke-width:.3985;stroke-linecap:butt;stroke-linejoin:miter;stroke:#000;stroke-opacity:1;stroke-miterlimit:10" d="M6.384-34.014 36.134 0M6.384-45.354l29.75 34.015M6.384-56.694l29.75 34.016M6.384.001l29.75-34.015M6.384-11.339l29.75-34.015M6.384-22.678l29.75-34.016M9.247-102.05l26.887 34.016M9.247-113.385 36.134-79.37" transform="matrix(1 0 0 -1 5.483 3.845)"/><g clip-path="url(#k)"><path style="fill:none;stroke-width:.3985;stroke-linecap:butt;stroke-linejoin:miter;stroke:#000;stroke-opacity:1;stroke-miterlimit:10" d="M9.247-124.725 36.134-90.71" transform="matrix(1 0 0 -1 5.483 3.845)"/></g><path style="fill:none;stroke-width:.3985;stroke-linecap:butt;stroke-linejoin:miter;stroke:#000;stroke-opacity:1;stroke-miterlimit:10" d="m6.384-68.034 26.887-34.016M6.384-79.37l26.887-34.015" transform="matrix(1 0 0 -1 5.483 3.845)"/><g clip-path="url(#l)"><path style="fill:none;stroke-width:.3985;stroke-linecap:butt;stroke-linejoin:miter;stroke:#000;stroke-opacity:1;stroke-miterlimit:10" d="m6.384-90.71 26.887-34.015" transform="matrix(1 0 0 -1 5.483 3.845)"/></g><path style="fill:none;stroke-width:.3985;stroke-linecap:butt;stroke-linejoin:miter;stroke:#000;stroke-opacity:1;stroke-miterlimit:10" d="M6.384.001h29.75M6.384-11.339h29.75M6.384-22.678h29.75M6.384-34.014h29.75M6.384-45.354h29.75M6.384-56.694h29.75M6.384-68.034h29.75M6.384-79.37h29.75M6.384-90.71h29.75M9.247-102.05h24.024M9.247-113.385h24.024M9.247-124.725h24.024" transform="matrix(1 0 0 -1 5.483 3.845)"/><use xlink:href="#a" x="87.658" y="7.108" style="fill:#000;fill-opacity:1"/><use xlink:href="#b" x="87.658" y="18.447" style="fill:#000;fill-opacity:1"/><use xlink:href="#c" x="87.658" y="29.73" style="fill:#000;fill-opacity:1"/><use xlink:href="#d" x="87.658" y="41.129" style="fill:#000;fill-opacity:1"/><use xlink:href="#e" x="87.658" y="52.408" style="fill:#000;fill-opacity:1"/><use xlink:href="#f" x="87.658" y="63.746" style="fill:#000;fill-opacity:1"/><use xlink:href="#g" x="87.658" y="75.189" style="fill:#000;fill-opacity:1"/><use xlink:href="#h" x="87.658" y="86.423" style="fill:#000;fill-opacity:1"/><use xlink:href="#i" x="87.658" y="97.762" style="fill:#000;fill-opacity:1"/><g style="fill:#000;fill-opacity:1"><use xlink:href="#a" x="84.794" y="109.1"/><use xlink:href="#j" x="90.523" y="109.1"/></g><g style="fill:#000;fill-opacity:1"><use xlink:href="#a" x="84.794" y="120.494"/><use xlink:href="#a" x="90.523" y="120.494"/></g><g style="fill:#000;fill-opacity:1"><use xlink:href="#a" x="84.794" y="131.832"/><use xlink:href="#b" x="90.523" y="131.832"/></g><path style="fill:none;stroke-width:.3985;stroke-linecap:butt;stroke-linejoin:miter;stroke:#000;stroke-opacity:1;stroke-miterlimit:10" d="M48.904-22.678 78.658.002M48.904-34.014 78.658-11.34M48.904.001l29.754-22.68M48.904-11.339l29.754-22.675M48.904-68.034l29.754 22.68M48.904-79.37l29.754 22.676M48.904-45.354l29.754-22.68M48.904-56.694 78.658-79.37M51.767-113.385l26.89 22.675" transform="matrix(1 0 0 -1 5.483 3.845)"/><g clip-path="url(#m)"><path style="fill:none;stroke-width:.3985;stroke-linecap:butt;stroke-linejoin:miter;stroke:#000;stroke-opacity:1;stroke-miterlimit:10" d="M51.767-124.725 75.79-102.05" transform="matrix(1 0 0 -1 5.483 3.845)"/></g><path style="fill:none;stroke-width:.3985;stroke-linecap:butt;stroke-linejoin:miter;stroke:#000;stroke-opacity:1;stroke-miterlimit:10" d="m48.904-90.71 26.886-22.675" transform="matrix(1 0 0 -1 5.483 3.845)"/><g clip-path="url(#n)"><path style="fill:none;stroke-width:.3985;stroke-linecap:butt;stroke-linejoin:miter;stroke:#000;stroke-opacity:1;stroke-miterlimit:10" d="m51.767-102.05 24.023-22.675" transform="matrix(1 0 0 -1 5.483 3.845)"/></g><path style="fill:none;stroke-width:.3985;stroke-linecap:butt;stroke-linejoin:miter;stroke:#000;stroke-opacity:1;stroke-miterlimit:10" d="M48.904.001h29.754M48.904-11.339h29.754M48.904-22.678h29.754M48.904-34.014h29.754M48.904-45.354h29.754M48.904-56.694h29.754M48.904-68.034h29.754M48.904-79.37h29.754M48.904-90.71h29.754M51.767-102.05H75.79M51.767-113.385H75.79M51.767-124.725H75.79" transform="matrix(1 0 0 -1 5.483 3.845)"/></svg>