<svg xmlns="http://www.w3.org/2000/svg" xmlns:xlink="http://www.w3.org/1999/xlink" width="151.947" height="195.963" viewBox="0 0 113.96 146.972" version="1.2"><defs><symbol overflow="visible" id="b"><path style="stroke:none" d="M2.5-5.078c0-.219-.016-.219-.234-.219-.329.313-.75.5-1.5.5v.266c.218 0 .64 0 1.109-.203v4.078c0 .297-.031.39-.781.39H.812V0c.329-.031 1.016-.031 1.375-.031.36 0 1.047 0 1.376.031v-.266H3.28c-.75 0-.781-.093-.781-.39Zm0 0"/></symbol><symbol overflow="visible" id="c"><path style="stroke:none" d="M2.25-1.625c.125-.125.453-.39.594-.5.484-.453.953-.89.953-1.61 0-.953-.797-1.562-1.781-1.562-.97 0-1.594.719-1.594 1.438 0 .39.312.437.422.437.172 0 .422-.11.422-.422 0-.406-.407-.406-.5-.406.234-.594.765-.781 1.156-.781.734 0 1.125.625 1.125 1.297 0 .828-.578 1.437-1.531 2.39l-1 1.047C.422-.219.422-.203.422 0h3.14l.235-1.422h-.25c-.016.156-.078.547-.172.703-.047.063-.656.063-.781.063H1.172Zm0 0"/></symbol><symbol overflow="visible" id="d"><path style="stroke:none" d="M2.016-2.656c.625 0 1.03.453 1.03 1.297 0 1-.562 1.28-.983 1.28-.438 0-1.047-.155-1.329-.577.297 0 .5-.188.5-.438 0-.265-.187-.437-.453-.437-.203 0-.437.125-.437.453 0 .75.812 1.25 1.734 1.25 1.047 0 1.797-.734 1.797-1.531 0-.672-.531-1.266-1.344-1.454.625-.218 1.11-.75 1.11-1.39 0-.64-.72-1.094-1.547-1.094-.86 0-1.5.453-1.5 1.063 0 .296.187.421.406.421.25 0 .406-.171.406-.406 0-.297-.265-.406-.437-.406.344-.438.953-.469 1.094-.469.203 0 .812.063.812.89 0 .548-.234.891-.344 1.016-.234.25-.422.266-.906.297-.156 0-.219.016-.219.125 0 .11.078.11.219.11Zm0 0"/></symbol><symbol overflow="visible" id="e"><path style="stroke:none" d="M3.89-2.547c0-.844-.078-1.36-.343-1.875-.344-.703-1-.875-1.438-.875-1 0-1.375.75-1.484.969C.344-3.75.328-2.953.328-2.547c0 .531.016 1.328.406 1.969.36.594.954.75 1.375.75.391 0 1.063-.125 1.47-.906.296-.579.312-1.297.312-1.813ZM2.11-.062c-.266 0-.813-.126-.985-.954-.094-.453-.094-1.203-.094-1.625 0-.546 0-1.109.094-1.546.172-.813.781-.891.984-.891.266 0 .829.14.985.86.094.437.094 1.046.094 1.577 0 .47 0 1.188-.094 1.641-.172.828-.719.938-.985.938Zm0 0"/></symbol><symbol overflow="visible" id="g"><path style="stroke:none" d="M1.11-4.484c.109.03.421.125.765.125 1 0 1.594-.704 1.594-.829 0-.093-.047-.109-.094-.109-.016 0-.031 0-.094.031a2.982 2.982 0 0 1-1.11.22c-.468 0-.858-.11-1.108-.22-.079-.03-.094-.03-.11-.03-.094 0-.094.077-.094.234v2.328c0 .14 0 .234.125.234.063 0 .079-.031.125-.094.094-.11.391-.515 1.079-.515.437 0 .656.359.734.515.125.281.14.656.14.953 0 .297 0 .735-.218 1.079-.156.25-.485.484-.906.484A1.271 1.271 0 0 1 .734-.922c.016.016.079.016.079.016.218 0 .406-.14.406-.39a.388.388 0 0 0-.39-.407c-.157 0-.407.078-.407.422 0 .718.625 1.453 1.531 1.453 1 0 1.844-.781 1.844-1.766 0-.922-.672-1.75-1.61-1.75-.39 0-.765.125-1.078.406Zm0 0"/></symbol><symbol overflow="visible" id="h"><path style="stroke:none" d="M4.031-4.86c.078-.077.078-.093.078-.265H2.08a8.79 8.79 0 0 1-.642-.031c-.421-.032-.421-.11-.453-.235h-.25L.47-3.703h.25c.015-.125.11-.672.219-.735.078-.046.687-.046.796-.046h1.688l-.813 1.109C1.703-2.172 1.5-.906 1.5-.281c0 .078 0 .453.375.453s.375-.36.375-.453v-.39c0-1.141.203-2.079.594-2.61Zm0 0"/></symbol><symbol overflow="visible" id="f"><path style="stroke:none" d="M1.625-.438a.463.463 0 0 0-.453-.453.447.447 0 0 0-.438.438.44.44 0 0 0 .438.453.45.45 0 0 0 .453-.438Zm0 0"/></symbol><clipPath id="a"><path d="M11 0h102.941v145H11Zm0 0"/></clipPath></defs><path style="fill:none;stroke-width:.3985;stroke-linecap:round;stroke-linejoin:miter;stroke:#000;stroke-opacity:1;stroke-miterlimit:10" d="M28.346-1.994v3.985M56.693-1.994v3.985M85.04-1.994v3.985M-1.994 35.432h3.988M-1.994 70.866h3.988M-1.994 106.3h3.988" transform="matrix(1 0 0 -1 20.42 136.018)"/><path style="fill:none;stroke-width:.3985;stroke-linecap:butt;stroke-linejoin:miter;stroke:#000;stroke-opacity:1;stroke-miterlimit:10" d="M-7.47-.002h99.585" transform="matrix(1 0 0 -1 20.42 136.018)"/><path style="fill:none;stroke-width:.3985;stroke-linecap:round;stroke-linejoin:round;stroke:#000;stroke-opacity:1;stroke-miterlimit:10" d="M-2.073 2.39C-1.693.954-.85.28.002-.003c-.852-.277-1.696-.953-2.075-2.39" transform="matrix(1 0 0 -1 112.733 136.018)"/><path style="fill:none;stroke-width:.3985;stroke-linecap:butt;stroke-linejoin:miter;stroke:#000;stroke-opacity:1;stroke-miterlimit:10" d="M.002-7.47v142.105" transform="matrix(1 0 0 -1 20.42 136.018)"/><path style="fill:none;stroke-width:.3985;stroke-linecap:round;stroke-linejoin:round;stroke:#000;stroke-opacity:1;stroke-miterlimit:10" d="M-2.073 2.393C-1.693.955-.85.279.002-.002c-.852-.277-1.696-.953-2.075-2.39" transform="matrix(0 -1 -1 0 20.42 1.185)"/><g clip-path="url(#a)"><path style="fill:none;stroke-width:.59776;stroke-linecap:butt;stroke-linejoin:miter;stroke:#000;stroke-opacity:1;stroke-miterlimit:10" d="M.002-.002S2.56.1 3.545.221c.98.125 2.558.418 3.543.664.98.246 2.558.738 3.543 1.11a44.907 44.907 0 0 1 3.543 1.546 50.63 50.63 0 0 1 3.543 1.997c.984.613 2.558 1.699 3.543 2.433.984.738 2.558 2.02 3.543 2.879a86.48 86.48 0 0 1 3.543 3.324c.984.98 2.562 2.657 3.543 3.766a120.75 120.75 0 0 1 3.543 4.207 150.283 150.283 0 0 1 3.546 4.648c.98 1.352 2.559 3.621 3.543 5.094.98 1.477 2.559 3.942 3.543 5.54.98 1.597 2.559 4.257 3.543 5.976a306.509 306.509 0 0 1 3.543 6.422 347.252 347.252 0 0 1 3.543 6.867 403.243 403.243 0 0 1 3.543 7.308 480.73 480.73 0 0 1 3.543 7.75c.985 2.211 2.563 5.86 3.543 8.196a552.872 552.872 0 0 1 3.543 8.636 644.869 644.869 0 0 1 3.543 9.079c.984 2.582 2.563 6.82 3.547 9.523.98 2.703 2.559 7.137 3.543 9.965.98 2.828 3.543 10.41 3.543 10.41" transform="matrix(1 0 0 -1 20.42 136.018)"/></g><use xlink:href="#b" x="46.649" y="145.802" style="fill:#000;fill-opacity:1"/><use xlink:href="#c" x="74.995" y="145.802" style="fill:#000;fill-opacity:1"/><use xlink:href="#d" x="103.341" y="145.802" style="fill:#000;fill-opacity:1"/><use xlink:href="#e" x="13.529" y="143.81" style="fill:#000;fill-opacity:1"/><use xlink:href="#b" x=".716" y="103.153" style="fill:#000;fill-opacity:1"/><use xlink:href="#f" x="4.95" y="103.153" style="fill:#000;fill-opacity:1"/><g style="fill:#000;fill-opacity:1"><use xlink:href="#c" x="7.303" y="103.153"/><use xlink:href="#g" x="11.538" y="103.153"/></g><use xlink:href="#c" x="4.95" y="67.72" style="fill:#000;fill-opacity:1"/><use xlink:href="#f" x="9.185" y="67.72" style="fill:#000;fill-opacity:1"/><use xlink:href="#g" x="11.537" y="67.72" style="fill:#000;fill-opacity:1"/><use xlink:href="#d" x=".716" y="32.287" style="fill:#000;fill-opacity:1"/><use xlink:href="#f" x="4.95" y="32.287" style="fill:#000;fill-opacity:1"/><g style="fill:#000;fill-opacity:1"><use xlink:href="#h" x="7.303" y="32.287"/><use xlink:href="#g" x="11.538" y="32.287"/></g></svg>