<svg xmlns="http://www.w3.org/2000/svg" xmlns:xlink="http://www.w3.org/1999/xlink" width="148.351" height="58.731" viewBox="0 0 111.263 44.048" version="1.2"><defs><symbol overflow="visible" id="a"><path style="stroke:none" d="M5.984 0v-.469h-.687V-4.53l-1.75.062-.016.047H2.078v-.984c0-.828.672-1.219 1.594-1.219.281 0 .5.063.719.188-.157.062-.438.234-.438.625 0 .39.297.656.656.656.36 0 .657-.25.657-.672 0-.516-.438-1.156-1.532-1.156-1.234 0-2.671.39-2.671 1.562v1h-.75v.469h.75V-.47H.375V0l1.219-.031L2.828 0v-.469h-.687v-3.484h1.78c.25 0 .313 0 .313.344v3.14h-.703V0l1.235-.031Zm0 0"/></symbol><symbol overflow="visible" id="b"><path style="stroke:none" d="M4.406-3.672c0-.531-.531-.812-1.062-.812-.688 0-1.094.5-1.313 1.125v-1.125l-1.656.078v.468c.61 0 .688 0 .688.391v3.078H.375V0l1.25-.031C2-.031 2.641-.031 3 0v-.469h-.86v-1.75c0-.687.235-1.906 1.235-1.906 0 0-.188.172-.188.453 0 .406.329.61.61.61.297 0 .61-.204.61-.61Zm0 0"/></symbol><symbol overflow="visible" id="c"><path style="stroke:none" d="M4.14-1.39c0-.438-.202-.782-.546-1.063-.39-.281-.719-.344-1.485-.485-.375-.062-1.015-.171-1.015-.64 0-.625.922-.625 1.11-.625.75 0 1.124.297 1.171.844.016.156.031.203.234.203.235 0 .235-.047.235-.281v-.797c0-.188 0-.282-.172-.282-.047 0-.063 0-.453.188-.266-.125-.61-.188-1-.188-.313 0-1.844 0-1.844 1.313 0 .39.203.656.406.828.39.344.781.406 1.547.547.36.062 1.094.187 1.094.781 0 .75-.906.75-1.125.75C1.234-.297.984-1.03.859-1.453c-.046-.14-.109-.14-.234-.14-.25 0-.25.062-.25.28v1.094c0 .188 0 .281.188.281.062 0 .078 0 .296-.156l.25-.172c.47.329.985.329 1.188.329.312 0 1.844 0 1.844-1.454Zm0 0"/></symbol><symbol overflow="visible" id="d"><path style="stroke:none" d="M3.813-1.234v-.532h-.47v.516c0 .672-.327.906-.609.906-.578 0-.578-.64-.578-.86v-2.75h1.469v-.468H2.156v-1.906h-.469c0 1-.484 1.984-1.484 2.016v.359h.828v2.734c0 1.063.86 1.282 1.578 1.282.75 0 1.204-.579 1.204-1.297Zm0 0"/></symbol><symbol overflow="visible" id="e"><path style="stroke:none" d="M6.125 0v-.469h-.688v-2.578c0-1.047-.53-1.437-1.53-1.437-.954 0-1.485.562-1.75 1.078v-1.078l-1.704.078v.468c.61 0 .688 0 .688.391v3.078H.453V0l1.25-.031L2.953 0v-.469h-.687v-2.078c0-1.094.859-1.578 1.5-1.578.328 0 .546.203.546.969V-.47h-.687V0l1.25-.031Zm0 0"/></symbol><symbol overflow="visible" id="f"><path style="stroke:none" d="M5.406-2.172c0-1.344-.922-2.344-2.547-2.344C1.22-4.516.313-3.5.313-2.172c0 1.235.89 2.235 2.546 2.235 1.672 0 2.547-1.016 2.547-2.235Zm-1.281-.11c0 .86 0 1.938-1.266 1.938-1.265 0-1.265-1.078-1.265-1.937 0-.453 0-.953.172-1.297.187-.375.609-.578 1.093-.578.422 0 .844.156 1.063.5.203.344.203.89.203 1.375Zm0 0"/></symbol><symbol overflow="visible" id="g"><path style="stroke:none" d="M5.984 0v-.469c-.609 0-.687 0-.687-.39v-6.063l-1.766.078v.469c.625 0 .703 0 .703.39v1.954a2.178 2.178 0 0 0-1.359-.453c-1.453 0-2.5.875-2.5 2.28 0 1.313.922 2.267 2.39 2.267.61 0 1.094-.235 1.407-.485v.484ZM4.172-1.031c-.14.187-.547.734-1.297.734-1.219 0-1.219-1.203-1.219-1.906 0-.485 0-1.016.25-1.406.297-.422.766-.516 1.078-.516.563 0 .97.313 1.188.61Zm0 0"/></symbol><symbol overflow="visible" id="h"><path style="stroke:none" d="M4.922-1.172c0-.172-.188-.172-.234-.172-.172 0-.188.047-.25.203-.204.485-.782.797-1.422.797-1.407 0-1.422-1.328-1.422-1.828h3.015c.22 0 .313 0 .313-.265 0-.313-.063-1.047-.563-1.547-.359-.36-.89-.532-1.578-.532C1.187-4.516.312-3.484.312-2.25c0 1.344 1 2.313 2.61 2.313 1.578 0 2-1.063 2-1.235ZM3.984-2.5h-2.39c.015-.39.031-.813.234-1.14.266-.391.672-.516.953-.516 1.172 0 1.188 1.312 1.203 1.656Zm0 0"/></symbol><symbol overflow="visible" id="i"><path style="stroke:none" d="M4.766-1.172c0-.14-.141-.14-.235-.14-.187 0-.187.03-.25.156-.25.625-.734.812-1.234.812-1.39 0-1.39-1.453-1.39-1.922 0-.562 0-1.843 1.28-1.843.36 0 .516.015.657.046a.618.618 0 0 0-.203.47c0 .437.343.624.609.624.313 0 .64-.219.64-.625 0-.86-1.156-.922-1.734-.922C1.11-4.516.375-3.375.375-2.219.375-.89 1.313.062 2.844.062c1.625 0 1.922-1.156 1.922-1.234Zm0 0"/></symbol><symbol overflow="visible" id="j"><path style="stroke:none" d="M6.125 0v-.469h-.688v-2.578c0-1.047-.53-1.437-1.53-1.437a1.9 1.9 0 0 0-1.688.953v-3.39l-1.766.077v.469c.61 0 .688 0 .688.39v5.516H.453V0l1.25-.031L2.953 0v-.469h-.687v-2.078c0-1.094.859-1.578 1.5-1.578.328 0 .546.203.546.969V-.47h-.687V0l1.25-.031Zm0 0"/></symbol><symbol overflow="visible" id="k"><path style="stroke:none" d="M2.844 0v-.469h-.61v-4.015L.5-4.406v.468c.594 0 .656 0 .656.391v3.078H.47V0l1.219-.031Zm-.469-6.047a.774.774 0 0 0-.781-.781.784.784 0 0 0-.782.781c0 .422.36.766.782.766a.77.77 0 0 0 .781-.766Zm0 0"/></symbol><symbol overflow="visible" id="l"><path style="stroke:none" d="M4.36-6.11c0-.421-.36-.874-1.141-.874-.969 0-2.047.421-2.047 1.546v1.016h-.75v.469h.75V-.47H.484V0l1.25-.031c.375 0 1.016 0 1.375.031v-.469H2.25v-3.484h1.14v-.469H2.188v-1.016c0-1.093.75-1.187 1-1.187.047 0 .11 0 .172.031a.585.585 0 0 0-.234.485c0 .421.36.609.61.609.296 0 .624-.203.624-.61Zm0 0"/></symbol><symbol overflow="visible" id="m"><path style="stroke:none" d="M6.125 0v-.469c-.61 0-.688 0-.688-.39v-3.625l-1.812.078v.468c.61 0 .688 0 .688.391v1.906c0 .813-.516 1.344-1.235 1.344-.781 0-.812-.25-.812-.797v-3.39l-1.813.078v.468c.61 0 .688 0 .688.391v2.328c0 1.063.796 1.282 1.796 1.282.25 0 .97 0 1.422-.782v.781Zm0 0"/></symbol></defs><path style="stroke:none;fill-rule:nonzero;fill:#ff8080;fill-opacity:1" d="M6.184 42.563h54.55V28.886H6.184Zm0 0"/><g style="fill:#000;fill-opacity:1"><use xlink:href="#a" x="9.505" y="39.183"/><use xlink:href="#b" x="15.871" y="39.183"/><use xlink:href="#c" x="20.593" y="39.183"/><use xlink:href="#d" x="25.116" y="39.183"/></g><g style="fill:#000;fill-opacity:1"><use xlink:href="#e" x="33.385" y="39.183"/><use xlink:href="#f" x="39.751" y="39.183"/></g><g style="fill:#000;fill-opacity:1"><use xlink:href="#g" x="45.798" y="39.183"/><use xlink:href="#h" x="52.165" y="39.183"/></g><path style="stroke:none;fill-rule:nonzero;fill:#80ff80;fill-opacity:1" d="M42.074 42.535h67.813V28.918H42.074Zm0 0"/><g style="fill:#000;fill-opacity:1"><use xlink:href="#c" x="45.394" y="39.153"/><use xlink:href="#h" x="49.917" y="39.153"/><use xlink:href="#i" x="55.167" y="39.153"/><use xlink:href="#f" x="60.258" y="39.153"/><use xlink:href="#e" x="65.986" y="39.153"/><use xlink:href="#g" x="72.352" y="39.153"/></g><g style="fill:#000;fill-opacity:1"><use xlink:href="#e" x="82.534" y="39.153"/><use xlink:href="#f" x="88.9" y="39.153"/></g><g style="fill:#000;fill-opacity:1"><use xlink:href="#g" x="94.948" y="39.153"/><use xlink:href="#h" x="101.314" y="39.153"/></g><path style="stroke:none;fill-rule:nonzero;fill:#dfbf9f;fill-opacity:1" d="M46.191 14.188h59.575V.57H46.19Zm0 0"/><g style="fill:#000;fill-opacity:1"><use xlink:href="#d" x="49.514" y="10.806"/><use xlink:href="#j" x="53.967" y="10.806"/><use xlink:href="#k" x="60.333" y="10.806"/><use xlink:href="#b" x="63.511" y="10.806"/><use xlink:href="#g" x="68.233" y="10.806"/></g><g style="fill:#000;fill-opacity:1"><use xlink:href="#e" x="78.415" y="10.806"/><use xlink:href="#f" x="84.781" y="10.806"/></g><g style="fill:#000;fill-opacity:1"><use xlink:href="#g" x="90.829" y="10.806"/><use xlink:href="#h" x="97.195" y="10.806"/></g><path style="fill-rule:nonzero;fill:#8080ff;fill-opacity:1;stroke-width:1.19553;stroke-linecap:butt;stroke-linejoin:miter;stroke:#00f;stroke-opacity:1;stroke-miterlimit:10" d="M.001 0h42.52v28.347H.001" transform="matrix(1 0 0 -1 33.46 35.726)"/><path style="stroke:none;fill-rule:nonzero;fill:#b2b2ff;fill-opacity:1" d="M.648 14.215H66.27V.543H.648Zm0 0"/><g style="fill:#000;fill-opacity:1"><use xlink:href="#l" x="3.97" y="10.836"/><use xlink:href="#f" x="7.467" y="10.836"/><use xlink:href="#m" x="13.196" y="10.836"/><use xlink:href="#b" x="19.562" y="10.836"/><use xlink:href="#d" x="24.284" y="10.836"/><use xlink:href="#j" x="28.738" y="10.836"/></g><g style="fill:#000;fill-opacity:1"><use xlink:href="#e" x="38.919" y="10.836"/><use xlink:href="#f" x="45.286" y="10.836"/></g><g style="fill:#000;fill-opacity:1"><use xlink:href="#g" x="51.333" y="10.836"/><use xlink:href="#h" x="57.699" y="10.836"/></g></svg>