<svg xmlns="http://www.w3.org/2000/svg" width="91.01pt" height="40.155" viewBox="0 0 91.01 30.116" version="1.2"><defs><clipPath id="a"><path d="M0 0h90.516v29.676H0Zm0 0"/></clipPath></defs><path style="fill:none;stroke-width:.3985;stroke-linecap:butt;stroke-linejoin:miter;stroke:#000;stroke-opacity:1;stroke-miterlimit:10" d="M0-.001v4.984h4.98v-9.965h4.984v9.965h4.98v-9.965h4.981v9.965h4.98v-9.965h4.985v9.965h4.98v-9.965h4.981v9.965h4.98v-9.965h4.98v9.965h4.985v-9.965h4.98v9.965h4.981v-9.965h4.98v9.965h4.985v-9.965h4.98v4.98h5.336" transform="matrix(1 0 0 -1 4.317 23.487)"/><g clip-path="url(#a)"><path style="fill:none;stroke-width:.3985;stroke-linecap:butt;stroke-linejoin:miter;stroke:red;stroke-opacity:1;stroke-miterlimit:10" d="m0-.001-3.524 3.523 3.523 3.524L7.046-.001l3.52 3.523-3.52 3.524-2.351 3.441 4.054 2.898 5.79-8.109 4.054 2.899-2.894 4.05-1.739 3.778 4.48 2.183L22.8 9.23l4.48 2.18-2.183 4.48-1.086 4.012 4.777 1.41 2.82-9.558 4.778 1.41-1.41 4.777-.414 4.145 4.945.605 1.207-9.89 4.946.605-.606 4.941.27 4.164 4.976-.214-.426-9.954 4.977-.21.21 4.976.95 4.059 4.875-1.028-2.05-9.746 4.87-1.027 1.028 4.875 1.601 3.84 4.641-1.813-3.633-9.277 4.637-1.816 1.816 4.636 2.219 3.516 4.27-2.563-5.125-8.543L79.433-.34l2.563 4.273L85.038 0" transform="matrix(1 0 0 -1 4.317 23.487)"/></g></svg>