<svg xmlns="http://www.w3.org/2000/svg" xmlns:xlink="http://www.w3.org/1999/xlink" width="133.587" height="145.683" viewBox="0 0 100.19 109.262" version="1.2"><defs><symbol overflow="visible" id="a"><path style="stroke:none" d="M17.484 0v-1.406H15.36L10.344-7.36l3.5-3.875c.39-.422.562-.625 3.047-.625v-1.407l-2.75.079-3.079-.079v1.407c.422 0 .782.046 1.141.265-.125.172-.125.235-.25.36l-2.5 2.812-2.937-3.437h1.203v-1.407l-3.625.079-3.282-.079v1.407h2.11l4.672 5.5-3.922 4.39c-.5.563-1.578.563-3.016.563V0l2.75-.094L6.484 0v-1.406c-.53 0-1.109-.14-1.109-.328 0 0 0-.063.219-.297l2.89-3.266 3.297 3.89H10.61V0l3.594-.094Zm0 0"/></symbol><symbol overflow="visible" id="b"><path style="stroke:none" d="M17.344-11.86v-1.406a39.32 39.32 0 0 1-2.375.079l-2.719-.079v1.407s1.406 0 1.406.343l-.14.36-3.438 7.36-3.797-8.063h1.61v-1.407l-3.704.079-3.406-.079v1.407h1.906L8.282 0l-.687 1.438c-.657 1.437-1.61 3.468-3.735 3.468-.421 0-.484-.031-.718-.125.265-.125.953-.531.953-1.578 0-.984-.719-1.703-1.735-1.703-.828 0-1.703.563-1.703 1.734 0 1.516 1.406 2.75 3.203 2.75 2.297 0 4.032-1.859 4.844-3.562l6.422-13.656c.203-.422.297-.625 2.219-.625Zm0 0"/></symbol><symbol overflow="visible" id="c"><path style="stroke:none" d="M11.422-3.703v-1.594h-1.406v1.531c0 2.032-.954 2.75-1.797 2.75-1.735 0-1.735-1.906-1.735-2.593v-8.25h4.36v-1.407h-4.36v-5.718H5.078c-.031 3-1.484 5.953-4.453 6.047v1.078h2.453v8.187C3.078-.484 5.672.172 7.797.172c2.281 0 3.625-1.703 3.625-3.875Zm0 0"/></symbol></defs><path style="fill:none;stroke-width:.3985;stroke-linecap:butt;stroke-linejoin:miter;stroke:#000;stroke-opacity:1;stroke-miterlimit:10" d="M0 85.042h85.039" transform="matrix(1 0 0 -1 9.008 95.284)"/><use xlink:href="#a" x="-.063" y="16.88" style="fill:#000;fill-opacity:1"/><use xlink:href="#b" x="42.456" y="13.891" style="fill:#000;fill-opacity:1"/><use xlink:href="#c" x="87.367" y="19.644" style="fill:#000;fill-opacity:1"/><path style="fill:none;stroke-width:.3985;stroke-linecap:butt;stroke-linejoin:miter;stroke:#000;stroke-opacity:1;stroke-miterlimit:10" d="M0 42.518h85.039" transform="matrix(1 0 0 -1 9.008 95.284)"/><use xlink:href="#a" x="-.063" y="52.764" style="fill:#000;fill-opacity:1"/><use xlink:href="#b" x="42.456" y="52.764" style="fill:#000;fill-opacity:1"/><use xlink:href="#c" x="87.367" y="52.764" style="fill:#000;fill-opacity:1"/><path style="fill:none;stroke-width:.3985;stroke-linecap:butt;stroke-linejoin:miter;stroke:#000;stroke-opacity:1;stroke-miterlimit:10" d="M0-.001h85.039" transform="matrix(1 0 0 -1 9.008 95.284)"/><use xlink:href="#a" x="-.063" y="101.919" style="fill:#000;fill-opacity:1"/><use xlink:href="#b" x="42.456" y="101.919" style="fill:#000;fill-opacity:1"/><use xlink:href="#c" x="87.367" y="101.919" style="fill:#000;fill-opacity:1"/></svg>