<svg xmlns="http://www.w3.org/2000/svg" xmlns:xlink="http://www.w3.org/1999/xlink" width="366.699" height="272.067" viewBox="0 0 275.024 204.05" version="1.2"><defs><symbol overflow="visible" id="b"><path style="stroke:none" d="M8.578-6.375v-.469c-.39.032-.953.032-1.344.032-.421 0-.937 0-1.343-.032v.469h.25c.171 0 .343.016.53.031.282.032.298.047.298.266v4.031L3-6.703c-.11-.125-.125-.14-.328-.14H.39v.468h1.078V-.75c0 .219-.016.219-.297.25-.234.031-.25.031-.531.031H.39V0c.375-.031.937-.031 1.328-.031.422 0 .937 0 1.36.031v-.469h-.25c-.188 0-.36-.015-.532-.031C2-.531 2-.531 2-.75v-5.219L6.953-.125c.11.11.11.125.281.125C7.5 0 7.5-.094 7.5-.313v-5.765c0-.219 0-.234.281-.266.25-.031.266-.031.547-.031Zm0 0"/></symbol><symbol overflow="visible" id="c"><path style="stroke:none" d="M5.516-.234c0-.235-.125-.235-.266-.235-.61-.015-.61-.14-.61-.375v-2.14c0-.891-.702-1.532-2.187-1.532-.562 0-1.781.047-1.781.922 0 .438.344.625.61.625.312 0 .624-.219.624-.625 0-.297-.187-.469-.218-.5a5.28 5.28 0 0 1 .718-.062c.75 0 1.11.422 1.11 1.172v.343c-.72.032-3.25.125-3.25 1.563C.266-.125 1.5.062 2.187.062c.797 0 1.266-.406 1.485-.828 0 .313 0 .766 1.047.766h.468c.204 0 .329 0 .329-.234Zm-2-1.157c0 .97-.922 1.094-1.172 1.094-.516 0-.906-.344-.906-.797 0-1.062 1.578-1.203 2.078-1.234Zm0 0"/></symbol><symbol overflow="visible" id="d"><path style="stroke:none" d="M6.125 0v-.469h-.688v-2.578c0-1.047-.53-1.437-1.53-1.437-.954 0-1.485.562-1.75 1.078v-1.078l-1.704.078v.468c.61 0 .688 0 .688.391v3.078H.453V0l1.25-.031L2.953 0v-.469h-.687v-2.078c0-1.094.859-1.578 1.5-1.578.328 0 .546.203.546.969V-.47h-.687V0l1.25-.031Zm0 0"/></symbol><symbol overflow="visible" id="e"><path style="stroke:none" d="M5.984 0v-.469c-.609 0-.687 0-.687-.39v-6.063l-1.766.078v.469c.625 0 .703 0 .703.39v1.954a2.178 2.178 0 0 0-1.359-.453c-1.453 0-2.5.875-2.5 2.28 0 1.313.922 2.267 2.39 2.267.61 0 1.094-.235 1.407-.485v.484ZM4.172-1.031c-.14.187-.547.734-1.297.734-1.219 0-1.219-1.203-1.219-1.906 0-.485 0-1.016.25-1.406.297-.422.766-.516 1.078-.516.563 0 .97.313 1.188.61Zm0 0"/></symbol><symbol overflow="visible" id="f"><path style="stroke:none" d="M8.422-2.281v-.469c-.344.031-1.219.031-1.61.031-.578 0-1.5 0-2.03-.031v.469h1.421v1c0 .187 0 .484-.375.718-.266.141-.578.204-.906.204-.86 0-1.719-.282-2.203-.907-.422-.546-.563-1.25-.563-2.156 0-1.125.203-1.703.578-2.187.391-.5 1.157-.875 2.125-.875 1.063 0 2.016.765 2.235 2.03.031.188.031.204.265.204.25 0 .266-.016.266-.281v-2.14c0-.188 0-.282-.172-.282-.094 0-.11.031-.203.094l-.656.593a3.026 3.026 0 0 0-1.953-.687c-2.454 0-4 1.469-4 3.531C.64-1.437 2.078.11 4.656.11c.328 0 1.36-.015 1.86-.64.296.265.906.531.968.531.141 0 .141-.125.141-.281v-2Zm0 0"/></symbol><symbol overflow="visible" id="g"><path style="stroke:none" d="M3.813-1.234v-.532h-.47v.516c0 .672-.327.906-.609.906-.578 0-.578-.64-.578-.86v-2.75h1.469v-.468H2.156v-1.906h-.469c0 1-.484 1.984-1.484 2.016v.359h.828v2.734c0 1.063.86 1.282 1.578 1.282.75 0 1.204-.579 1.204-1.297Zm0 0"/></symbol><symbol overflow="visible" id="h"><path style="stroke:none" d="M4.922-1.172c0-.172-.188-.172-.234-.172-.172 0-.188.047-.25.203-.204.485-.782.797-1.422.797-1.407 0-1.422-1.328-1.422-1.828h3.015c.22 0 .313 0 .313-.265 0-.313-.063-1.047-.563-1.547-.359-.36-.89-.532-1.578-.532C1.187-4.516.312-3.484.312-2.25c0 1.344 1 2.313 2.61 2.313 1.578 0 2-1.063 2-1.235ZM3.984-2.5h-2.39c.015-.39.031-.813.234-1.14.266-.391.672-.516.953-.516 1.172 0 1.188 1.312 1.203 1.656Zm0 0"/></symbol><symbol overflow="visible" id="i"><path style="stroke:none" d="M8.328-3.953v-.469c-.312.016-.719.031-.984.031-.11 0-.938-.015-1.219-.03v.468c.219 0 .5 0 .734.094-.562.875-1.156 1.734-1.906 2.453-.625-.657-1.375-1.532-1.766-2.375.141-.11.594-.531.876-.844.25-.297.546-.703.546-1.094 0-.531-.328-1.312-1.093-1.312-.829 0-1.797.625-1.797 1.765 0 .594.125 1.235.422 1.922l-.735.625c-.203.172-.547.469-.625.547-.203.25-.297.516-.297.797 0 .922.97 1.484 2.063 1.484.719 0 1.375-.234 1.984-.625.282.157 1.078.625 2.11.625.812 0 1.593-.453 1.625-1.28h-.47c-.046.75-.921.812-1.109.812-.468 0-.953-.297-1.406-.735.453-.468.782-.812 1.235-1.484l.828-1.188c.14-.187.468-.187.984-.187ZM4.141-5.72c0 .438-.438.985-1.094 1.578a4.034 4.034 0 0 1-.297-1.484c0-.828.516-1.047.766-1.047.484 0 .625.656.625.953Zm0 4.922c-.688.438-1.407.438-1.47.438-.827 0-.921-1.094-.921-1.375 0-.47.14-.985.547-1.282.36.657.937 1.547 1.844 2.22Zm0 0"/></symbol><symbol overflow="visible" id="j"><path style="stroke:none" d="M3.078.313c0-.126-.047-.157-.187-.25C2.062-.5 1.75-1.391 1.75-2.126c0-.672.25-1.594 1.156-2.203.125-.094.172-.125.172-.25a.254.254 0 0 0-.265-.25c-.204 0-1.641.906-1.641 2.703 0 .813.312 1.438.562 1.781.375.516.907.906 1.079.906.218 0 .265-.171.265-.25Zm0 0"/></symbol><symbol overflow="visible" id="k"><path style="stroke:none" d="M3.219-.906c0-.735-.906-.906-1.14-.938l-.704-.125C1.187-2 1-2.079 1-2.25c0-.156.219-.328.813-.328.515 0 .609.172.625.328.015.14.03.281.28.281.298 0 .298-.156.298-.328v-.469c0-.14-.016-.328-.25-.328-.157 0-.22.063-.25.125-.282-.125-.563-.125-.688-.125-1.187 0-1.344.594-1.344.844 0 .656.735.797 1.391.89.297.063.828.141.828.454 0 .234-.25.422-.828.422-.297 0-.656-.063-.813-.563-.03-.156-.078-.234-.28-.234-.298 0-.298.172-.298.328v.656c0 .14 0 .344.25.344.079 0 .188 0 .282-.234.328.218.671.234.859.234 1.125 0 1.344-.61 1.344-.953Zm0 0"/></symbol><symbol overflow="visible" id="l"><path style="stroke:none" d="M2.313-.469a.477.477 0 0 0-.485-.484.47.47 0 0 0-.469.469c0 .28.22.484.47.484a.473.473 0 0 0 .484-.469Zm0 0"/></symbol><symbol overflow="visible" id="m"><path style="stroke:none" d="M3.266-.797c0-.234-.235-.234-.297-.234-.125 0-.203 0-.266.172-.047.078-.187.375-.625.375a1.027 1.027 0 0 1-1.015-1.032c0-.312.187-1.062 1.062-1.062l.344.015c.015.282.172.376.36.376.187 0 .358-.126.358-.36 0-.531-.734-.547-1.062-.547-1.219 0-1.64.953-1.64 1.578 0 .844.671 1.563 1.546 1.563 1 0 1.235-.719 1.235-.844Zm0 0"/></symbol><symbol overflow="visible" id="n"><path style="stroke:none" d="M3.25-.797c0-.234-.234-.234-.281-.234-.156 0-.219.015-.281.172-.141.328-.485.375-.657.375-.469 0-.937-.297-1.062-.813h1.953c.172 0 .328 0 .328-.312 0-.797-.453-1.485-1.375-1.485-.828 0-1.516.703-1.516 1.563S1.08.047 1.984.047c.938 0 1.266-.656 1.266-.844Zm-.594-1.015H.97c.125-.438.484-.766.906-.766.328 0 .703.156.781.765Zm0 0"/></symbol><symbol overflow="visible" id="o"><path style="stroke:none" d="M3.578-.266c0-.25-.203-.25-.328-.25H3v-1.53c0-.72-.36-1.032-.938-1.032-.39 0-.671.172-.843.297 0-.172-.047-.25-.313-.25h-.5c-.14 0-.328 0-.328.25 0 .265.203.265.313.265h.25v2H.406c-.14 0-.328 0-.328.25C.078 0 .281 0 .391 0h1.093c.11 0 .329 0 .329-.266 0-.25-.204-.25-.344-.25h-.25v-1.156c0-.64.484-.875.797-.875.328 0 .406.172.406.547v1.484h-.203c-.14 0-.344 0-.344.25 0 .266.219.266.344.266H3.25c.11 0 .328 0 .328-.266Zm0 0"/></symbol><symbol overflow="visible" id="p"><path style="stroke:none" d="M3.14-.906c0-.156 0-.313-.296-.313-.266 0-.266.157-.266.297-.015.375-.36.438-.515.438-.454 0-.454-.313-.454-.47v-1.562h1.047c.125 0 .328 0 .328-.265 0-.25-.187-.25-.328-.25H1.61v-.516c0-.14-.015-.328-.296-.328-.282 0-.282.172-.282.328v.516H.484c-.125 0-.328 0-.328.25 0 .265.203.265.328.265h.547v1.61c0 .687.485.953 1.016.953S3.14-.266 3.14-.906Zm0 0"/></symbol><symbol overflow="visible" id="q"><path style="stroke:none" d="M3.406-2.594c0-.156-.078-.484-.703-.484-.328 0-.734.11-1.094.469v-.094c0-.25-.046-.328-.328-.328h-.75c-.125 0-.328 0-.328.25 0 .265.203.265.328.265h.5v2h-.5c-.125 0-.328 0-.328.25C.203 0 .406 0 .531 0h1.781c.126 0 .329 0 .329-.266 0-.25-.204-.25-.329-.25H1.61v-.796c0-.61.36-1.22 1.11-1.235 0 .156.172.281.344.281.187 0 .343-.125.343-.328Zm0 0"/></symbol><symbol overflow="visible" id="r"><path style="stroke:none" d="M2.484-2.125c0-.828-.312-1.453-.562-1.797-.375-.515-.906-.906-1.078-.906-.203 0-.266.187-.266.25 0 .125.094.187.14.219 1.095.718 1.188 1.796 1.188 2.234 0 .656-.25 1.578-1.14 2.188C.64.14.578.186.578.313c0 .078.063.25.266.25s1.64-.907 1.64-2.688Zm0 0"/></symbol><symbol overflow="visible" id="s"><path style="stroke:none" d="M3.469-.266c0-.25-.203-.25-.328-.25h-.25l-.829-1.046.735-.954h.234c.125 0 .344 0 .344-.265 0-.25-.219-.25-.344-.25H2.25c-.125 0-.328 0-.328.25 0 .203.11.265.281.265l-.39.547-.422-.547c.156 0 .28-.062.28-.265 0-.25-.202-.25-.327-.25H.547c-.125 0-.328 0-.328.25 0 .265.218.265.328.265h.25l.75.954L.75-.516H.516c-.125 0-.344 0-.344.25C.172 0 .39 0 .516 0h.78c.126 0 .329 0 .329-.266 0-.203-.11-.25-.297-.25l.484-.703.5.703c-.187 0-.296.047-.296.25 0 .266.203.266.328.266h.797c.109 0 .328 0 .328-.266Zm0 0"/></symbol><symbol overflow="visible" id="t"><path style="stroke:none" d="M3.36-1.234c0-.47-.297-.875-.72-1.094.344-.25.516-.64.516-1 0-.516-.515-1-1.328-1-.86 0-1.344.36-1.344.844 0 .265.204.375.36.375.172 0 .36-.141.36-.36 0-.078-.032-.14-.048-.172.203-.171.625-.171.688-.171.422 0 .734.218.734.5a.718.718 0 0 1-.25.546c-.219.172-.375.188-.61.188-.437 0-.546.062-.546.281 0 .266.203.266.328.266h.313c.64 0 .968.422.968.797 0 .39-.36.78-.937.78-.25 0-.719-.062-.907-.327A.364.364 0 0 0 1-1a.363.363 0 0 0-.36-.36c-.171 0-.343.126-.343.391C.297-.344.969.078 1.844.078c.922 0 1.515-.656 1.515-1.312Zm0 0"/></symbol><symbol overflow="visible" id="u"><path style="stroke:none" d="M3.313-2.125c0-1.297-.72-2.203-1.485-2.203-.781 0-1.5.922-1.5 2.203 0 1.297.734 2.203 1.5 2.203.781 0 1.484-.922 1.484-2.203Zm-.563-.078c0 .969-.422 1.75-.922 1.75-.516 0-.922-.781-.922-1.75 0-.953.438-1.61.922-1.61.469 0 .922.657.922 1.61Zm0 0"/></symbol><symbol overflow="visible" id="v"><path style="stroke:none" d="M3.64-.266c0-.218-.14-.25-.39-.25v-1.593c0-.157-.016-.97-.656-.97a.842.842 0 0 0-.656.313.61.61 0 0 0-.532-.312.875.875 0 0 0-.547.203c-.046-.156-.187-.156-.312-.156H.328c-.125 0-.328 0-.328.25 0 .234.125.265.39.265v2c-.265 0-.39.032-.39.25C0 0 .219 0 .328 0h.594c.125 0 .312 0 .312-.266 0-.218-.109-.25-.359-.25v-1.171c0-.563.234-.86.5-.86.14 0 .203.11.203.5v1.531c-.156 0-.281.032-.281.25 0 .266.187.266.312.266h.516c.125 0 .313 0 .313-.266 0-.218-.126-.25-.376-.25v-1.171c0-.563.25-.86.5-.86.141 0 .204.11.204.5v1.531c-.141 0-.282.032-.282.25 0 .266.204.266.313.266h.5c.125 0 .344 0 .344-.266Zm0 0"/></symbol><symbol overflow="visible" id="w"><path style="stroke:none" d="M3.188-.266c0-.25-.204-.25-.329-.25h-.656v-2.187c0-.25-.047-.328-.328-.328H.906c-.125 0-.328 0-.328.25 0 .265.203.265.328.265h.719v2H.859c-.14 0-.343 0-.343.25C.516 0 .734 0 .859 0h2c.125 0 .329 0 .329-.266Zm-.954-3.562a.39.39 0 0 0-.406-.39.387.387 0 0 0-.39.39c0 .219.171.39.39.39a.39.39 0 0 0 .406-.39Zm0 0"/></symbol><symbol overflow="visible" id="x"><path style="stroke:none" d="M3.578-.266c0-.25-.203-.25-.328-.25H3v-3.406c0-.25-.047-.344-.328-.344h-.485c-.14 0-.343.016-.343.266s.218.266.328.266h.25v.906a1.261 1.261 0 0 0-.735-.25c-.765 0-1.453.672-1.453 1.562C.234-.64.875.047 1.625.047c.344 0 .61-.14.797-.313.015.188.062.266.328.266h.5c.125 0 .328 0 .328-.266ZM2.422-1.375c0 .36-.297.89-.781.89-.454 0-.829-.453-.829-1.03 0-.61.438-1.032.891-1.032.406 0 .719.344.719.688Zm0 0"/></symbol><symbol overflow="visible" id="y"><path style="stroke:none" d="M3.625-.266c0-.25-.203-.25-.328-.25-.203 0-.297-.03-.344-.046V-2c0-.5-.375-1.094-1.406-1.094-.313 0-1.031.016-1.031.547 0 .235.171.36.359.36.11 0 .344-.063.344-.36 0 0 .234-.031.343-.031.454 0 .782.187.813.594-1.219.03-2.047.39-2.047 1.062 0 .485.453.969 1.188.969.234 0 .656-.047.968-.25.172.187.485.203.75.203.235 0 .391-.016.391-.266ZM2.359-.969c0 .14 0 .266-.234.375-.234.11-.516.11-.578.11-.39 0-.64-.204-.64-.438 0-.312.546-.515 1.452-.562Zm0 0"/></symbol><symbol overflow="visible" id="z"><path style="stroke:none" d="M3.547-2.781c0-.25-.188-.25-.328-.25h-.781c-.157 0-.344 0-.344.25 0 .265.172.265.344.265h.265l-.297 1.72-.14-.532c-.125-.469-.172-.547-.422-.547-.094 0-.235 0-.328.188l-.266.906-.297-1.735h.266c.156 0 .343 0 .343-.265 0-.25-.187-.25-.343-.25H.437c-.14 0-.343 0-.343.25 0 .234.14.265.36.265L.858-.28c.032.187.047.312.36.312.312 0 .343-.062.453-.515l.172-.641.265 1c.094.14.235.156.344.156.281 0 .313-.125.344-.312l.406-2.235c.219 0 .344-.03.344-.265Zm0 0"/></symbol><symbol overflow="visible" id="A"><path style="stroke:none" d="M3.422-1.516c0-.875-.64-1.562-1.39-1.562-.298 0-.579.11-.813.265v-1.109c0-.25-.047-.344-.313-.344h-.5c-.14 0-.344.016-.344.266s.22.266.329.266h.25v3.406C.64-.172.656 0 .937 0c.22 0 .282-.094.282-.234.265.218.531.28.734.28.766 0 1.469-.671 1.469-1.562Zm-.578 0c0 .61-.453 1.032-.906 1.032-.485 0-.704-.563-.704-.875v-.485c0-.375.375-.703.766-.703.469 0 .844.469.844 1.031Zm0 0"/></symbol><symbol overflow="visible" id="B"><path style="stroke:none" d="M3.281-1.516c0-.89-.672-1.578-1.453-1.578-.797 0-1.453.688-1.453 1.578 0 .891.672 1.563 1.453 1.563.766 0 1.453-.688 1.453-1.563Zm-.578-.046c0 .593-.406 1.078-.875 1.078S.953-.97.953-1.563c0-.593.422-1.015.875-1.015s.875.422.875 1.015Zm0 0"/></symbol><symbol overflow="visible" id="C"><path style="stroke:none" d="M3.578-.266c0-.25-.203-.25-.328-.25H3v-1.53c0-.72-.36-1.032-.938-1.032-.39 0-.671.172-.843.297v-1.14c0-.25-.047-.345-.313-.345h-.5c-.14 0-.328.016-.328.266s.203.266.313.266h.25v3.218H.406c-.14 0-.328 0-.328.25C.078 0 .281 0 .391 0h1.093c.11 0 .329 0 .329-.266 0-.25-.204-.25-.344-.25h-.25v-1.156c0-.64.484-.875.797-.875.328 0 .406.172.406.547v1.484h-.203c-.14 0-.344 0-.344.25 0 .266.219.266.344.266H3.25c.11 0 .328 0 .328-.266Zm0 0"/></symbol><symbol overflow="visible" id="D"><path style="stroke:none" d="M3.578-.266c0-.25-.219-.25-.328-.25H3v-2.187c0-.25-.047-.328-.328-.328h-.485c-.14 0-.343 0-.343.25 0 .265.218.265.328.265h.25v1.391c0 .563-.516.64-.719.64-.469 0-.484-.187-.484-.39v-1.828c0-.25-.047-.328-.313-.328h-.5c-.14 0-.328 0-.328.25 0 .265.203.265.313.265h.25v1.688c0 .687.5.875 1.03.875.266 0 .516-.063.766-.219C2.485 0 2.626 0 2.75 0h.5c.125 0 .328 0 .328-.266Zm0 0"/></symbol><symbol overflow="visible" id="E"><path style="stroke:none" d="M3.422-1.516c0-.875-.64-1.562-1.39-1.562-.298 0-.579.11-.813.281 0-.172-.063-.234-.313-.234h-.5c-.14 0-.344 0-.344.25 0 .265.22.265.329.265h.25v3.5H.406c-.14 0-.344 0-.344.266 0 .25.22.25.329.25h1.093c.11 0 .329 0 .329-.25 0-.266-.204-.266-.344-.266h-.25V-.234c.265.234.531.28.734.28.766 0 1.469-.671 1.469-1.562Zm-.578 0c0 .61-.453 1.032-.906 1.032-.485 0-.704-.563-.704-.875v-.485c0-.375.375-.703.766-.703.469 0 .844.469.844 1.031Zm0 0"/></symbol><symbol overflow="visible" id="F"><path style="stroke:none" d="M3.094-.266c0-.25-.188-.25-.313-.25H2.22V-4c0-.125-.016-.328-.266-.328-.156 0-.219.094-.25.187-.234.547-.578.625-.687.641-.141 0-.313.031-.313.266 0 .203.156.25.281.25.125 0 .375-.032.657-.235v2.703h-.563c-.14 0-.328 0-.328.25C.75 0 .953 0 1.078 0h1.703c.125 0 .313 0 .313-.266Zm0 0"/></symbol><symbol overflow="visible" id="G"><path style="stroke:none" d="M3.297-.328v-.188c0-.156 0-.328-.266-.328-.265 0-.297.125-.297.328H1.313c.406-.343.968-.796 1.234-1.03.437-.391.75-.845.75-1.407 0-.844-.703-1.375-1.563-1.375-.828 0-1.39.578-1.39 1.187 0 .297.234.375.36.375.171 0 .359-.14.359-.359a.345.345 0 0 0-.094-.234c.11-.266.39-.454.734-.454.531 0 1.031.297 1.031.86 0 .453-.328.844-.765 1.203L.469-.484C.39-.422.344-.391.344-.266.344 0 .547 0 .672 0h2.312c.266 0 .313-.063.313-.328Zm0 0"/></symbol><clipPath id="a"><path d="M0 0h274.535v203.574H0Zm0 0"/></clipPath></defs><path style="stroke:none;fill-rule:nonzero;fill:#fffbb3;fill-opacity:1" d="M70.512 186.586h113.05V16.504H70.513Zm-7.086-115.75c0-10.176-8.25-18.426-18.426-18.426-10.176 0-18.426 8.25-18.426 18.426 0 10.176 8.25 18.426 18.426 18.426 10.176 0 18.426-8.25 18.426-18.426Zm164.074 30.71c0-10.179-8.25-18.425-18.426-18.425-10.176 0-18.426 8.246-18.426 18.426 0 10.176 8.25 18.422 18.426 18.422 10.176 0 18.426-8.246 18.426-18.422Zm0 0"/><g clip-path="url(#a)"><path style="fill:none;stroke-width:14.17339;stroke-linecap:butt;stroke-linejoin:miter;stroke:#b2b2b2;stroke-opacity:1;stroke-miterlimit:10" d="M-56.525-85.04h113.05V85.04h-113.05Zm-7.086 115.75c0 10.175-8.25 18.425-18.426 18.425-10.176 0-18.426-8.25-18.426-18.426 0-10.176 8.25-18.426 18.426-18.426 10.176 0 18.426 8.25 18.426 18.426ZM100.463-.003c0 10.18-8.25 18.426-18.426 18.426-10.176 0-18.426-8.246-18.426-18.426 0-10.176 8.25-18.422 18.426-18.422 10.176 0 18.426 8.246 18.426 18.422Zm0 0" transform="matrix(1 0 0 -1 127.037 101.545)"/></g><g style="fill:#b2b2b2;fill-opacity:1"><use xlink:href="#b" x="98.857" y="129.837"/><use xlink:href="#c" x="107.823" y="129.837"/><use xlink:href="#d" x="113.392" y="129.837"/><use xlink:href="#e" x="119.759" y="129.837"/></g><g style="fill:#b2b2b2;fill-opacity:1"><use xlink:href="#f" x="129.94" y="129.837"/><use xlink:href="#c" x="138.947" y="129.837"/><use xlink:href="#g" x="144.516" y="129.837"/><use xlink:href="#h" x="148.969" y="129.837"/></g><path style="fill:none;stroke-width:.996;stroke-linecap:butt;stroke-linejoin:miter;stroke:#b2b2b2;stroke-opacity:1;stroke-miterlimit:10" d="M0 0v56.801" transform="matrix(1 0 0 -1 154.718 129.946)"/><use xlink:href="#i" x="122.583" y="51.876" style="fill:#b2b2b2;fill-opacity:1"/><path style="fill:none;stroke-width:.3985;stroke-linecap:butt;stroke-linejoin:miter;stroke:#000;stroke-opacity:1;stroke-miterlimit:10" d="m-1.408-1.408 2.816 2.816m-2.816 0 2.816-2.816" transform="matrix(1 0 0 -1 127.037 101.545)"/><g style="fill:#000;fill-opacity:1"><use xlink:href="#j" x="108.73" y="97.467"/><use xlink:href="#k" x="112.391" y="97.467"/><use xlink:href="#l" x="116.053" y="97.467"/><use xlink:href="#m" x="119.714" y="97.467"/><use xlink:href="#n" x="123.375" y="97.467"/><use xlink:href="#o" x="127.036" y="97.467"/><use xlink:href="#p" x="130.698" y="97.467"/><use xlink:href="#n" x="134.359" y="97.467"/><use xlink:href="#q" x="138.02" y="97.467"/><use xlink:href="#r" x="141.681" y="97.467"/></g><path style="fill:none;stroke-width:.3985;stroke-linecap:butt;stroke-linejoin:miter;stroke:#000;stroke-opacity:1;stroke-miterlimit:10" d="m-29.588-29.701 2.817 2.816m-2.817 0 2.817-2.816" transform="matrix(1 0 0 -1 127.037 101.545)"/><g style="fill:#000;fill-opacity:1"><use xlink:href="#j" x="84.212" y="125.759"/><use xlink:href="#k" x="87.873" y="125.759"/><use xlink:href="#l" x="91.535" y="125.759"/><use xlink:href="#p" x="95.196" y="125.759"/><use xlink:href="#n" x="98.857" y="125.759"/><use xlink:href="#s" x="102.518" y="125.759"/><use xlink:href="#p" x="106.18" y="125.759"/><use xlink:href="#r" x="109.841" y="125.759"/></g><path style="fill:none;stroke-width:.3985;stroke-linecap:butt;stroke-linejoin:miter;stroke:#000;stroke-opacity:1;stroke-miterlimit:10" d="m62.205 35.318 2.817 2.82m-2.817 0 2.817-2.82" transform="matrix(1 0 0 -1 127.037 101.545)"/><g style="fill:#000;fill-opacity:1"><use xlink:href="#j" x="194.169" y="60.739"/><use xlink:href="#k" x="197.83" y="60.739"/><use xlink:href="#l" x="201.492" y="60.739"/><use xlink:href="#t" x="205.153" y="60.739"/><use xlink:href="#u" x="208.814" y="60.739"/><use xlink:href="#r" x="212.475" y="60.739"/></g><path style="fill:none;stroke-width:.3985;stroke-linecap:butt;stroke-linejoin:miter;stroke:#000;stroke-opacity:1;stroke-miterlimit:10" d="m-1.408-27.49 2.816 2.82m-2.816 0 2.816-2.82" transform="matrix(1 0 0 -1 127.037 101.545)"/><g style="fill:#000;fill-opacity:1"><use xlink:href="#j" x="130.556" y="129.759"/><use xlink:href="#k" x="134.217" y="129.759"/><use xlink:href="#l" x="137.879" y="129.759"/><use xlink:href="#v" x="141.54" y="129.759"/><use xlink:href="#w" x="145.201" y="129.759"/><use xlink:href="#x" x="148.862" y="129.759"/><use xlink:href="#r" x="152.524" y="129.759"/></g><path style="fill:none;stroke-width:.3985;stroke-linecap:butt;stroke-linejoin:miter;stroke:#000;stroke-opacity:1;stroke-miterlimit:10" d="m62.205-27.49 2.817 2.82m-2.817 0 2.817-2.82" transform="matrix(1 0 0 -1 127.037 101.545)"/><g style="fill:#000;fill-opacity:1"><use xlink:href="#j" x="143.194" y="129.759"/><use xlink:href="#k" x="146.855" y="129.759"/><use xlink:href="#l" x="150.517" y="129.759"/><use xlink:href="#v" x="154.178" y="129.759"/><use xlink:href="#w" x="157.839" y="129.759"/><use xlink:href="#x" x="161.5" y="129.759"/></g><g style="fill:#000;fill-opacity:1"><use xlink:href="#n" x="168.823" y="129.759"/><use xlink:href="#y" x="172.484" y="129.759"/><use xlink:href="#k" x="176.145" y="129.759"/><use xlink:href="#p" x="179.807" y="129.759"/><use xlink:href="#r" x="183.468" y="129.759"/></g><path style="fill:none;stroke-width:.3985;stroke-linecap:butt;stroke-linejoin:miter;stroke:#000;stroke-opacity:1;stroke-miterlimit:10" d="m-65.021-27.49 2.816 2.82m-2.816 0 2.816-2.82" transform="matrix(1 0 0 -1 127.037 101.545)"/><g style="fill:#000;fill-opacity:1"><use xlink:href="#j" x="41.457" y="123.547"/><use xlink:href="#k" x="45.118" y="123.547"/><use xlink:href="#l" x="48.78" y="123.547"/><use xlink:href="#v" x="52.441" y="123.547"/><use xlink:href="#w" x="56.102" y="123.547"/><use xlink:href="#x" x="59.763" y="123.547"/></g><g style="fill:#000;fill-opacity:1"><use xlink:href="#z" x="67.079" y="123.547"/><use xlink:href="#n" x="70.74" y="123.547"/><use xlink:href="#k" x="74.401" y="123.547"/><use xlink:href="#p" x="78.063" y="123.547"/><use xlink:href="#r" x="81.724" y="123.547"/></g><path style="fill:none;stroke-width:.3985;stroke-linecap:butt;stroke-linejoin:miter;stroke:#000;stroke-opacity:1;stroke-miterlimit:10" d="m-1.408-29.701 2.816 2.816m-2.816 0L1.408-29.7" transform="matrix(1 0 0 -1 127.037 101.545)"/><g style="fill:#000;fill-opacity:1"><use xlink:href="#j" x="112.391" y="138.182"/><use xlink:href="#k" x="116.052" y="138.182"/><use xlink:href="#l" x="119.714" y="138.182"/><use xlink:href="#A" x="123.375" y="138.182"/><use xlink:href="#y" x="127.036" y="138.182"/><use xlink:href="#k" x="130.697" y="138.182"/><use xlink:href="#n" x="134.359" y="138.182"/><use xlink:href="#r" x="138.02" y="138.182"/></g><path style="fill:none;stroke-width:.3985;stroke-linecap:butt;stroke-linejoin:miter;stroke:#000;stroke-opacity:1;stroke-miterlimit:10" d="m62.205-29.701 2.817 2.816m-2.817 0 2.817-2.816" transform="matrix(1 0 0 -1 127.037 101.545)"/><g style="fill:#000;fill-opacity:1"><use xlink:href="#j" x="166.851" y="138.182"/><use xlink:href="#k" x="170.512" y="138.182"/><use xlink:href="#l" x="174.174" y="138.182"/><use xlink:href="#A" x="177.835" y="138.182"/><use xlink:href="#y" x="181.496" y="138.182"/><use xlink:href="#k" x="185.157" y="138.182"/><use xlink:href="#n" x="188.819" y="138.182"/></g><g style="fill:#000;fill-opacity:1"><use xlink:href="#n" x="196.134" y="138.182"/><use xlink:href="#y" x="199.795" y="138.182"/><use xlink:href="#k" x="203.457" y="138.182"/><use xlink:href="#p" x="207.118" y="138.182"/><use xlink:href="#r" x="210.779" y="138.182"/></g><path style="fill:none;stroke-width:.3985;stroke-linecap:butt;stroke-linejoin:miter;stroke:#000;stroke-opacity:1;stroke-miterlimit:10" d="m-65.021-29.701 2.816 2.816m-2.816 0 2.816-2.816" transform="matrix(1 0 0 -1 127.037 101.545)"/><g style="fill:#000;fill-opacity:1"><use xlink:href="#j" x="12.308" y="131.971"/><use xlink:href="#k" x="15.969" y="131.971"/><use xlink:href="#l" x="19.631" y="131.971"/><use xlink:href="#A" x="23.292" y="131.971"/><use xlink:href="#y" x="26.953" y="131.971"/><use xlink:href="#k" x="30.614" y="131.971"/><use xlink:href="#n" x="34.276" y="131.971"/></g><g style="fill:#000;fill-opacity:1"><use xlink:href="#z" x="41.598" y="131.971"/><use xlink:href="#n" x="45.259" y="131.971"/><use xlink:href="#k" x="48.921" y="131.971"/><use xlink:href="#p" x="52.582" y="131.971"/><use xlink:href="#r" x="56.243" y="131.971"/></g><path style="fill:none;stroke-width:.3985;stroke-linecap:butt;stroke-linejoin:miter;stroke:#000;stroke-opacity:1;stroke-miterlimit:10" d="m-1.408 90.717 2.816 2.82m-2.816 0 2.816-2.82" transform="matrix(1 0 0 -1 127.037 101.545)"/><g style="fill:#000;fill-opacity:1"><use xlink:href="#j" x="110.561" y="5.341"/><use xlink:href="#k" x="114.222" y="5.341"/><use xlink:href="#l" x="117.884" y="5.341"/><use xlink:href="#o" x="121.545" y="5.341"/><use xlink:href="#B" x="125.206" y="5.341"/><use xlink:href="#q" x="128.867" y="5.341"/><use xlink:href="#p" x="132.529" y="5.341"/><use xlink:href="#C" x="136.19" y="5.341"/><use xlink:href="#r" x="139.851" y="5.341"/></g><path style="fill:none;stroke-width:.3985;stroke-linecap:butt;stroke-linejoin:miter;stroke:#000;stroke-opacity:1;stroke-miterlimit:10" d="m-1.408-93.537 2.816 2.82m-2.816 0 2.816-2.82" transform="matrix(1 0 0 -1 127.037 101.545)"/><g style="fill:#000;fill-opacity:1"><use xlink:href="#j" x="110.561" y="202.017"/><use xlink:href="#k" x="114.222" y="202.017"/><use xlink:href="#l" x="117.884" y="202.017"/><use xlink:href="#k" x="121.545" y="202.017"/><use xlink:href="#B" x="125.206" y="202.017"/><use xlink:href="#D" x="128.867" y="202.017"/><use xlink:href="#p" x="132.529" y="202.017"/><use xlink:href="#C" x="136.19" y="202.017"/><use xlink:href="#r" x="139.851" y="202.017"/></g><path style="fill:none;stroke-width:.3985;stroke-linecap:butt;stroke-linejoin:miter;stroke:#000;stroke-opacity:1;stroke-miterlimit:10" d="m62.205-1.408 2.817 2.816m-2.817 0 2.817-2.816" transform="matrix(1 0 0 -1 127.037 101.545)"/><g style="fill:#000;fill-opacity:1"><use xlink:href="#j" x="176.004" y="97.467"/><use xlink:href="#k" x="179.665" y="97.467"/><use xlink:href="#l" x="183.327" y="97.467"/><use xlink:href="#n" x="186.988" y="97.467"/><use xlink:href="#y" x="190.649" y="97.467"/><use xlink:href="#k" x="194.31" y="97.467"/><use xlink:href="#p" x="197.972" y="97.467"/><use xlink:href="#r" x="201.633" y="97.467"/></g><path style="fill:none;stroke-width:.3985;stroke-linecap:butt;stroke-linejoin:miter;stroke:#000;stroke-opacity:1;stroke-miterlimit:10" d="m-65.021-1.408 2.816 2.816m-2.816 0 2.816-2.816" transform="matrix(1 0 0 -1 127.037 101.545)"/><g style="fill:#000;fill-opacity:1"><use xlink:href="#j" x="48.779" y="97.467"/><use xlink:href="#k" x="52.44" y="97.467"/><use xlink:href="#l" x="56.102" y="97.467"/><use xlink:href="#z" x="59.763" y="97.467"/><use xlink:href="#n" x="63.424" y="97.467"/><use xlink:href="#k" x="67.085" y="97.467"/><use xlink:href="#p" x="70.747" y="97.467"/><use xlink:href="#r" x="74.408" y="97.467"/></g><path style="fill:none;stroke-width:.3985;stroke-linecap:butt;stroke-linejoin:miter;stroke:#000;stroke-opacity:1;stroke-miterlimit:10" d="m62.205 90.717 2.817 2.82m-2.817 0 2.817-2.82" transform="matrix(1 0 0 -1 127.037 101.545)"/><g style="fill:#000;fill-opacity:1"><use xlink:href="#j" x="165.02" y="5.341"/><use xlink:href="#k" x="168.681" y="5.341"/><use xlink:href="#l" x="172.343" y="5.341"/><use xlink:href="#o" x="176.004" y="5.341"/><use xlink:href="#B" x="179.665" y="5.341"/><use xlink:href="#q" x="183.326" y="5.341"/><use xlink:href="#p" x="186.988" y="5.341"/><use xlink:href="#C" x="190.649" y="5.341"/></g><g style="fill:#000;fill-opacity:1"><use xlink:href="#n" x="197.971" y="5.341"/><use xlink:href="#y" x="201.633" y="5.341"/><use xlink:href="#k" x="205.294" y="5.341"/><use xlink:href="#p" x="208.955" y="5.341"/><use xlink:href="#r" x="212.617" y="5.341"/></g><path style="fill:none;stroke-width:.3985;stroke-linecap:butt;stroke-linejoin:miter;stroke:#000;stroke-opacity:1;stroke-miterlimit:10" d="m62.205-93.537 2.817 2.82m-2.817 0 2.817-2.82" transform="matrix(1 0 0 -1 127.037 101.545)"/><g style="fill:#000;fill-opacity:1"><use xlink:href="#j" x="165.02" y="202.017"/><use xlink:href="#k" x="168.681" y="202.017"/><use xlink:href="#l" x="172.343" y="202.017"/><use xlink:href="#k" x="176.004" y="202.017"/><use xlink:href="#B" x="179.665" y="202.017"/><use xlink:href="#D" x="183.326" y="202.017"/><use xlink:href="#p" x="186.988" y="202.017"/><use xlink:href="#C" x="190.649" y="202.017"/></g><g style="fill:#000;fill-opacity:1"><use xlink:href="#n" x="197.971" y="202.017"/><use xlink:href="#y" x="201.633" y="202.017"/><use xlink:href="#k" x="205.294" y="202.017"/><use xlink:href="#p" x="208.955" y="202.017"/><use xlink:href="#r" x="212.617" y="202.017"/></g><path style="fill:none;stroke-width:.3985;stroke-linecap:butt;stroke-linejoin:miter;stroke:#000;stroke-opacity:1;stroke-miterlimit:10" d="m-65.021-93.537 2.816 2.82m-2.816 0 2.816-2.82" transform="matrix(1 0 0 -1 127.037 101.545)"/><g style="fill:#000;fill-opacity:1"><use xlink:href="#j" x="37.795" y="202.017"/><use xlink:href="#k" x="41.456" y="202.017"/><use xlink:href="#l" x="45.118" y="202.017"/><use xlink:href="#k" x="48.779" y="202.017"/><use xlink:href="#B" x="52.44" y="202.017"/><use xlink:href="#D" x="56.101" y="202.017"/><use xlink:href="#p" x="59.763" y="202.017"/><use xlink:href="#C" x="63.424" y="202.017"/></g><g style="fill:#000;fill-opacity:1"><use xlink:href="#z" x="70.746" y="202.017"/><use xlink:href="#n" x="74.408" y="202.017"/><use xlink:href="#k" x="78.069" y="202.017"/><use xlink:href="#p" x="81.73" y="202.017"/><use xlink:href="#r" x="85.392" y="202.017"/></g><path style="fill:none;stroke-width:.3985;stroke-linecap:butt;stroke-linejoin:miter;stroke:#000;stroke-opacity:1;stroke-miterlimit:10" d="m-65.021 90.717 2.816 2.82m-2.816 0 2.816-2.82" transform="matrix(1 0 0 -1 127.037 101.545)"/><g style="fill:#000;fill-opacity:1"><use xlink:href="#j" x="37.795" y="5.341"/><use xlink:href="#k" x="41.456" y="5.341"/><use xlink:href="#l" x="45.118" y="5.341"/><use xlink:href="#o" x="48.779" y="5.341"/><use xlink:href="#B" x="52.44" y="5.341"/><use xlink:href="#q" x="56.101" y="5.341"/><use xlink:href="#p" x="59.763" y="5.341"/><use xlink:href="#C" x="63.424" y="5.341"/></g><g style="fill:#000;fill-opacity:1"><use xlink:href="#z" x="70.746" y="5.341"/><use xlink:href="#n" x="74.408" y="5.341"/><use xlink:href="#k" x="78.069" y="5.341"/><use xlink:href="#p" x="81.73" y="5.341"/><use xlink:href="#r" x="85.392" y="5.341"/></g><path style="fill:none;stroke-width:.3985;stroke-linecap:butt;stroke-linejoin:miter;stroke:#000;stroke-opacity:1;stroke-miterlimit:10" d="m106.143-1.408 2.816 2.816m-2.816 0 2.816-2.816" transform="matrix(1 0 0 -1 127.037 101.545)"/><g style="fill:#000;fill-opacity:1"><use xlink:href="#j" x="238.105" y="103.205"/><use xlink:href="#k" x="241.766" y="103.205"/><use xlink:href="#l" x="245.428" y="103.205"/><use xlink:href="#B" x="249.089" y="103.205"/><use xlink:href="#D" x="252.75" y="103.205"/><use xlink:href="#p" x="256.411" y="103.205"/><use xlink:href="#E" x="260.073" y="103.205"/><use xlink:href="#D" x="263.734" y="103.205"/><use xlink:href="#p" x="267.395" y="103.205"/><use xlink:href="#r" x="271.056" y="103.205"/></g><path style="fill:none;stroke-width:.3985;stroke-linecap:butt;stroke-linejoin:miter;stroke:#000;stroke-opacity:1;stroke-miterlimit:10" d="m-108.959 29.299 2.817 2.82m-2.817 0 2.817-2.82" transform="matrix(1 0 0 -1 127.037 101.545)"/><g style="fill:#000;fill-opacity:1"><use xlink:href="#j" x="-.649" y="65.81"/><use xlink:href="#k" x="3.012" y="65.81"/><use xlink:href="#l" x="6.674" y="65.81"/><use xlink:href="#w" x="10.335" y="65.81"/><use xlink:href="#o" x="13.996" y="65.81"/><use xlink:href="#E" x="17.657" y="65.81"/><use xlink:href="#D" x="21.319" y="65.81"/><use xlink:href="#p" x="24.98" y="65.81"/></g><g style="fill:#000;fill-opacity:1"><use xlink:href="#F" x="32.295" y="65.81"/><use xlink:href="#r" x="35.957" y="65.81"/></g><path style="fill:none;stroke-width:.3985;stroke-linecap:butt;stroke-linejoin:miter;stroke:#000;stroke-opacity:1;stroke-miterlimit:10" d="m-65.021-32.12 2.816 2.821m-2.816 0 2.816-2.82" transform="matrix(1 0 0 -1 127.037 101.545)"/><g style="fill:#000;fill-opacity:1"><use xlink:href="#j" x="43.287" y="140.599"/><use xlink:href="#k" x="46.948" y="140.599"/><use xlink:href="#l" x="50.61" y="140.599"/><use xlink:href="#w" x="54.271" y="140.599"/><use xlink:href="#o" x="57.932" y="140.599"/><use xlink:href="#E" x="61.593" y="140.599"/><use xlink:href="#D" x="65.255" y="140.599"/><use xlink:href="#p" x="68.916" y="140.599"/></g><g style="fill:#000;fill-opacity:1"><use xlink:href="#G" x="76.238" y="140.599"/><use xlink:href="#r" x="79.9" y="140.599"/></g></svg>