<svg xmlns="http://www.w3.org/2000/svg" xmlns:xlink="http://www.w3.org/1999/xlink" width="73.591" height="94.556" viewBox="0 0 55.193 70.917" version="1.2"><defs><symbol overflow="visible" id="a"><path style="stroke:none" d="M5.516-.234c0-.235-.125-.235-.266-.235-.61-.015-.61-.14-.61-.375v-2.14c0-.891-.702-1.532-2.187-1.532-.562 0-1.781.047-1.781.922 0 .438.344.625.61.625.312 0 .624-.219.624-.625 0-.297-.187-.469-.218-.5a5.28 5.28 0 0 1 .718-.062c.75 0 1.11.422 1.11 1.172v.343c-.72.032-3.25.125-3.25 1.563C.266-.125 1.5.062 2.187.062c.797 0 1.266-.406 1.485-.828 0 .313 0 .766 1.047.766h.468c.204 0 .329 0 .329-.234Zm-2-1.157c0 .97-.922 1.094-1.172 1.094-.516 0-.906-.344-.906-.797 0-1.062 1.578-1.203 2.078-1.234Zm0 0"/></symbol><symbol overflow="visible" id="b"><path style="stroke:none" d="M6.125 0v-.469h-.688v-2.578c0-1.047-.53-1.437-1.53-1.437a1.9 1.9 0 0 0-1.688.953v-3.39l-1.766.077v.469c.61 0 .688 0 .688.39v5.516H.453V0l1.25-.031L2.953 0v-.469h-.687v-2.078c0-1.094.859-1.578 1.5-1.578.328 0 .546.203.546.969V-.47h-.687V0l1.25-.031Zm0 0"/></symbol><symbol overflow="visible" id="c"><path style="stroke:none" d="M4.922-1.172c0-.172-.188-.172-.234-.172-.172 0-.188.047-.25.203-.204.485-.782.797-1.422.797-1.407 0-1.422-1.328-1.422-1.828h3.015c.22 0 .313 0 .313-.265 0-.313-.063-1.047-.563-1.547-.359-.36-.89-.532-1.578-.532C1.187-4.516.312-3.484.312-2.25c0 1.344 1 2.313 2.61 2.313 1.578 0 2-1.063 2-1.235ZM3.984-2.5h-2.39c.015-.39.031-.813.234-1.14.266-.391.672-.516.953-.516 1.172 0 1.188 1.312 1.203 1.656Zm0 0"/></symbol><symbol overflow="visible" id="d"><path style="stroke:none" d="M2.922 0v-.469h-.688v-6.453L.47-6.844v.469c.625 0 .687 0 .687.39v5.516H.47V0l1.219-.031Zm0 0"/></symbol><symbol overflow="visible" id="e"><path style="stroke:none" d="M5.406-2.172c0-1.344-.922-2.344-2.547-2.344C1.22-4.516.313-3.5.313-2.172c0 1.235.89 2.235 2.546 2.235 1.672 0 2.547-1.016 2.547-2.235Zm-1.281-.11c0 .86 0 1.938-1.266 1.938-1.265 0-1.265-1.078-1.265-1.937 0-.453 0-.953.172-1.297.187-.375.609-.578 1.093-.578.422 0 .844.156 1.063.5.203.344.203.89.203 1.375Zm0 0"/></symbol><symbol overflow="visible" id="f"><path style="stroke:none" d="M8.031-3.953v-.469a12.55 12.55 0 0 1-.781.031l-.953-.03v.468c.094 0 .578 0 .578.11 0 .03-.031.093-.031.124L5.797-1.172l-1.14-2.781h.562v-.469l-1.14.031c-.423 0-.845-.03-1-.03v.468h.593c.203.5.203.531.203.531 0 .031-.031.094-.031.125L3.047-1.39 2-3.953h.563v-.469l-1.235.031L.25-4.42v.468h.594L2.359-.234c.079.172.11.28.36.28s.297-.108.36-.28L4.14-2.813 5.187-.233c.079.172.11.28.36.28s.297-.108.36-.28L7.343-3.75c.047-.125.093-.203.687-.203Zm0 0"/></symbol><symbol overflow="visible" id="g"><path style="stroke:none" d="M4.406-3.672c0-.531-.531-.812-1.062-.812-.688 0-1.094.5-1.313 1.125v-1.125l-1.656.078v.468c.61 0 .688 0 .688.391v3.078H.375V0l1.25-.031C2-.031 2.641-.031 3 0v-.469h-.86v-1.75c0-.687.235-1.906 1.235-1.906 0 0-.188.172-.188.453 0 .406.329.61.61.61.297 0 .61-.204.61-.61Zm0 0"/></symbol><symbol overflow="visible" id="h"><path style="stroke:none" d="M5.984 0v-.469c-.609 0-.687 0-.687-.39v-6.063l-1.766.078v.469c.625 0 .703 0 .703.39v1.954a2.178 2.178 0 0 0-1.359-.453c-1.453 0-2.5.875-2.5 2.28 0 1.313.922 2.267 2.39 2.267.61 0 1.094-.235 1.407-.485v.484ZM4.172-1.031c-.14.187-.547.734-1.297.734-1.219 0-1.219-1.203-1.219-1.906 0-.485 0-1.016.25-1.406.297-.422.766-.516 1.078-.516.563 0 .97.313 1.188.61Zm0 0"/></symbol><symbol overflow="visible" id="i"><path style="stroke:none" d="M4.14-1.39c0-.438-.202-.782-.546-1.063-.39-.281-.719-.344-1.485-.485-.375-.062-1.015-.171-1.015-.64 0-.625.922-.625 1.11-.625.75 0 1.124.297 1.171.844.016.156.031.203.234.203.235 0 .235-.047.235-.281v-.797c0-.188 0-.282-.172-.282-.047 0-.063 0-.453.188-.266-.125-.61-.188-1-.188-.313 0-1.844 0-1.844 1.313 0 .39.203.656.406.828.39.344.781.406 1.547.547.36.062 1.094.187 1.094.781 0 .75-.906.75-1.125.75C1.234-.297.984-1.03.859-1.453c-.046-.14-.109-.14-.234-.14-.25 0-.25.062-.25.28v1.094c0 .188 0 .281.188.281.062 0 .078 0 .296-.156l.25-.172c.47.329.985.329 1.188.329.312 0 1.844 0 1.844-1.454Zm0 0"/></symbol></defs><path style="fill:none;stroke-width:.3985;stroke-linecap:butt;stroke-linejoin:miter;stroke:#000;stroke-opacity:1;stroke-miterlimit:10" d="M11.261-34.766 3.698-49.098M18.655-34.766l8.196-15.531M-6.106-5.606h12.21V5.605h-12.21Zm0 0" transform="matrix(1 0 0 -1 18.095 6.766)"/><use xlink:href="#a" x="15.31" y="8.992" style="fill:#000;fill-opacity:1"/><path style="fill:none;stroke-width:.3985;stroke-linecap:butt;stroke-linejoin:miter;stroke:#000;stroke-opacity:1;stroke-miterlimit:10" d="M-15.173-6.806h30.344V6.808h-30.344Zm0 0" transform="matrix(1 0 0 -1 33.051 34.523)"/><g style="fill:#000;fill-opacity:1"><use xlink:href="#b" x="21.201" y="37.95"/><use xlink:href="#c" x="27.568" y="37.95"/><use xlink:href="#d" x="32.818" y="37.95"/><use xlink:href="#d" x="35.996" y="37.95"/><use xlink:href="#e" x="39.174" y="37.95"/></g><path style="fill:none;stroke-width:.3985;stroke-linecap:butt;stroke-linejoin:miter;stroke:#000;stroke-opacity:1;stroke-miterlimit:10" d="M-17.298-6.806H17.3V6.807h-34.598Zm0 0" transform="matrix(1 0 0 -1 18.095 62.87)"/><use xlink:href="#f" x="4.117" y="66.296" style="fill:#000;fill-opacity:1"/><g style="fill:#000;fill-opacity:1"><use xlink:href="#e" x="12.078" y="66.296"/><use xlink:href="#g" x="17.806" y="66.296"/><use xlink:href="#d" x="22.528" y="66.296"/><use xlink:href="#h" x="25.707" y="66.296"/></g><path style="fill:none;stroke-width:.3985;stroke-linecap:butt;stroke-linejoin:miter;stroke:#000;stroke-opacity:1;stroke-miterlimit:10" d="M-5.583-5.607H5.581V5.608H-5.583Zm0 0" transform="matrix(1 0 0 -1 48.008 62.87)"/><use xlink:href="#i" x="45.748" y="65.096" style="fill:#000;fill-opacity:1"/></svg>