<svg xmlns="http://www.w3.org/2000/svg" width="40.565" height="17.547" viewBox="0 0 30.424 13.16" version="1.2"><defs><clipPath id="a"><path d="M0 0h30.137v12.738H0Zm0 0"/></clipPath></defs><path style="fill:none;stroke-width:4.98138;stroke-linecap:butt;stroke-linejoin:miter;stroke:#000;stroke-opacity:1;stroke-miterlimit:10" d="M.002 0H13.9" transform="matrix(1 0 0 -1 .721 6.156)"/><path style="fill:none;stroke-width:2.98883;stroke-linecap:butt;stroke-linejoin:miter;stroke:#fff;stroke-opacity:1;stroke-miterlimit:10" d="M.002 0H13.9" transform="matrix(1 0 0 -1 .721 6.156)"/><path style="stroke:none;fill-rule:nonzero;fill:#000;fill-opacity:1" d="M27.016 6.156c-1.524-.37-8.215-2.46-12.395-4.738v9.477c4.18-2.278 10.871-4.372 12.395-4.739Zm0 0"/><g clip-path="url(#a)"><path style="fill:none;stroke-width:.99628;stroke-linecap:butt;stroke-linejoin:miter;stroke:#000;stroke-opacity:1;stroke-miterlimit:10" d="M12.394 0C10.87.37 4.179 2.46-.001 4.738v-9.477C4.18-2.46 10.87-.367 12.394 0Zm0 0" transform="matrix(1 0 0 -1 14.622 6.156)"/></g></svg>