<svg xmlns="http://www.w3.org/2000/svg" width="154.143" height="116.331" viewBox="0 0 115.607 87.248" version="1.2"><defs><clipPath id="a"><path d="M0 23h64v63.871H0Zm0 0"/></clipPath></defs><g clip-path="url(#a)"><path style="fill:none;stroke-width:.3985;stroke-linecap:butt;stroke-linejoin:miter;stroke:#000;stroke-opacity:1;stroke-miterlimit:10" d="M28.349.002c0 15.652-12.692 28.343-28.348 28.343-15.656 0-28.348-12.691-28.348-28.343 0-15.657 12.692-28.348 28.348-28.348 15.656 0 28.348 12.691 28.348 28.348Zm0 0" transform="matrix(1 0 0 -1 29.358 57.318)"/></g><path style="fill:none;stroke-width:.3985;stroke-linecap:butt;stroke-linejoin:miter;stroke:#00f;stroke-opacity:1;stroke-miterlimit:10" d="M0 .002h85.04M0 20.045h85.04M0 40.088h85.04M0 .002v56.691M20.045.002v56.691M40.087.002v56.691M60.134.002v56.691M80.177.002v56.691" transform="matrix(1 0 0 -1 29.358 57.318)"/></svg>