<svg xmlns="http://www.w3.org/2000/svg" xmlns:xlink="http://www.w3.org/1999/xlink" width="131.619" height="131.211" viewBox="0 0 98.714 98.408" version="1.2"><defs><symbol overflow="visible" id="a"><path style="stroke:none" d="M6.328-5.766c.11-.406.281-.703 1.078-.734.047 0 .172-.016.172-.203 0 0 0-.11-.125-.11-.328 0-.687.032-1.016.032-.343 0-.718-.032-1.046-.032-.063 0-.172 0-.172.204 0 .109.093.109.172.109.578.016.687.219.687.438 0 .03-.031.187-.031.203L5.14-2.297C4.812-.953 3.656-.094 2.656-.094c-.672 0-1.203-.437-1.203-1.297 0-.015 0-.328.11-.765l.953-3.89c.093-.36.109-.454.843-.454.266 0 .344 0 .344-.203 0-.11-.11-.11-.14-.11-.282 0-1 .032-1.282.032-.281 0-1-.032-1.281-.032-.078 0-.188 0-.188.204 0 .109.079.109.282.109.015 0 .203 0 .375.016.172.03.265.03.265.171 0 .047-.109.47-.171.704l-.22.875C1.25-4.344.782-2.47.735-2.266c-.062.266-.062.422-.062.579 0 1.203.906 1.906 1.953 1.906 1.25 0 2.484-1.125 2.813-2.438Zm0 0"/></symbol><symbol overflow="visible" id="b"><path style="stroke:none" d="M4.828-4.094 4-6.078c-.031-.078-.047-.125-.047-.125 0-.063.156-.25.578-.297.11-.016.203-.016.203-.188 0-.125-.125-.125-.156-.125-.406 0-.828.032-1.25.032-.25 0-.86-.032-1.11-.032-.062 0-.187 0-.187.204 0 .109.11.109.235.109.593 0 .656.094.75.313l1.171 2.78L2.079-1.14l-.125.11C1.47-.5 1-.344.484-.313.36-.296.266-.296.266-.109c0 .015 0 .109.14.109.297 0 .625-.031.922-.031.375 0 .766.031 1.125.031.063 0 .172 0 .172-.203 0-.094-.094-.11-.11-.11-.093 0-.406-.03-.406-.312 0-.156.157-.313.266-.438L3.406-2.14l.89-.984 1 2.39c.048.11.063.11.063.141 0 .078-.203.25-.578.281-.11.016-.203.016-.203.188 0 .125.11.125.14.125C5 0 5.704-.031 5.985-.031c.25 0 .86.031 1.11.031.062 0 .187 0 .187-.188 0-.124-.11-.124-.187-.124-.657 0-.688-.032-.86-.438-.375-.922-1.046-2.484-1.28-3.078.671-.703 1.718-1.89 2.046-2.156A1.98 1.98 0 0 1 8.266-6.5c.125-.016.218-.016.218-.203 0 0 0-.11-.125-.11-.296 0-.64.032-.937.032-.375 0-.75-.032-1.11-.032-.062 0-.187 0-.187.204 0 .062.047.093.11.109.093.016.406.031.406.313 0 .14-.11.265-.188.359Zm0 0"/></symbol><symbol overflow="visible" id="e"><path style="stroke:none" d="m5.953-5.672.14-.14c.298-.297.626-.641 1.298-.688.109-.016.203-.016.203-.188 0-.078-.047-.125-.125-.125-.266 0-.547.032-.813.032-.343 0-.687-.032-1-.032-.062 0-.187 0-.187.188 0 .11.093.125.14.125.079 0 .36.016.36.234 0 .172-.235.422-.266.47L3.391-3.126 2.297-6.094c-.063-.14-.063-.156-.063-.172 0-.234.485-.234.594-.234.125 0 .235 0 .235-.203 0-.11-.126-.11-.157-.11-.281 0-.969.032-1.25.032-.25 0-.875-.032-1.125-.032-.047 0-.187 0-.187.204 0 .109.11.109.234.109.594 0 .64.094.735.344L2.53-2.875c.016.031.047.14.047.156 0 .031-.406 1.64-.453 1.828-.125.547-.14.579-.938.579-.187 0-.265 0-.265.203 0 .109.11.109.14.109.266 0 .97-.031 1.25-.031.282 0 1 .031 1.282.031.062 0 .187 0 .187-.203 0-.11-.094-.11-.281-.11-.016 0-.203 0-.375-.015-.219-.016-.281-.047-.281-.156 0-.079.094-.422.14-.625l.36-1.407c.047-.203.062-.218.14-.312Zm0 0"/></symbol><symbol overflow="visible" id="f"><path style="stroke:none" d="M7.172-6.563c.016-.046.031-.093.031-.156 0-.093-.047-.093-.25-.093H2.75c-.234 0-.25.015-.313.203l-.546 1.796a.793.793 0 0 0-.032.141s0 .11.125.11c.094 0 .11-.079.125-.11C2.5-5.844 3.016-6.5 4.563-6.5h1.625L.625-.266s-.047.141-.047.172C.578 0 .641 0 .828 0h4.328c.25 0 .25-.016.313-.203l.718-2.203c0-.031.032-.11.032-.14 0-.063-.032-.11-.125-.11-.094 0-.11.031-.172.25C5.484-1.062 5-.344 3.312-.344H1.61Zm0 0"/></symbol><symbol overflow="visible" id="c"><path style="stroke:none" d="M3.875-2.766 1.891-4.75c-.125-.125-.141-.14-.22-.14a.197.197 0 0 0-.202.202c0 .063.015.079.125.188l2 2-2 2.016c-.11.109-.125.125-.125.187 0 .125.093.203.203.203.078 0 .094-.015.219-.14L3.875-2.22 5.938-.156a.236.236 0 0 0 .14.062c.125 0 .203-.078.203-.203 0-.016 0-.047-.031-.11C6.234-.421 4.656-1.983 4.156-2.5l1.828-1.813c.047-.062.204-.187.25-.25 0-.015.047-.062.047-.125 0-.125-.078-.203-.203-.203-.078 0-.11.032-.219.141Zm0 0"/></symbol><symbol overflow="visible" id="d"><path style="stroke:none" d="M5.453-4.484c.063-.063.094-.11.094-.204 0-.078-.047-.078-.188-.078H2.11c-.171 0-.187.016-.234.141l-.39 1.266c-.016.078-.016.078-.016.109s.015.094.11.094c.093 0 .109-.047.124-.11.344-.984.875-1.25 1.781-1.25h1.25L.672-.312a.333.333 0 0 0-.11.234C.563 0 .625 0 .75 0h3.375c.172 0 .188 0 .219-.14l.5-1.547c.031-.094.031-.11.031-.125 0 0 0-.094-.11-.094-.093 0-.109.031-.156.187C4.297-.766 3.938-.28 2.72-.28H1.39Zm0 0"/></symbol><symbol overflow="visible" id="h"><path style="stroke:none" d="M1.734-.734c-.062.234-.296.609-.656.609-.016 0-.234 0-.375-.094a.437.437 0 0 0 .313-.39c0-.157-.125-.25-.282-.25a.407.407 0 0 0-.406.421c0 .344.39.5.734.5.329 0 .61-.187.782-.484.172.36.547.484.828.484.812 0 1.234-.859 1.234-1.062 0-.094-.094-.094-.11-.094-.108 0-.108.047-.14.125-.14.485-.562.844-.953.844-.281 0-.422-.188-.422-.453 0-.188.172-.813.36-1.594.14-.531.453-.703.687-.703.016 0 .219 0 .375.094a.431.431 0 0 0-.312.39c0 .141.125.25.28.25.157 0 .392-.125.392-.421 0-.391-.454-.516-.72-.516-.359 0-.64.234-.78.5-.126-.281-.454-.5-.844-.5C.937-3.078.5-2.218.5-2c0 .078.094.078.11.078.093 0 .093-.016.14-.11.172-.546.61-.843.953-.843.234 0 .422.125.422.453 0 .14-.094.485-.156.735Zm0 0"/></symbol><symbol overflow="visible" id="i"><path style="stroke:none" d="M.516.844c-.047.203-.063.25-.329.25-.093 0-.187 0-.187.156 0 .078.063.11.094.11.172 0 .406-.032.594-.032.234 0 .5.031.734.031.062 0 .14-.03.14-.156 0-.11-.093-.11-.187-.11-.156 0-.344 0-.344-.077 0-.032.063-.22.078-.313.094-.375.188-.75.266-1.047.078.14.297.406.719.406.844 0 1.781-.937 1.781-1.968 0-.813-.563-1.172-1.031-1.172-.438 0-.813.297-1 .5-.11-.406-.5-.5-.719-.5-.266 0-.438.187-.547.375-.14.234-.25.656-.25.703 0 .078.094.078.125.078.094 0 .094-.016.14-.203.11-.406.25-.75.516-.75.188 0 .235.156.235.344a.693.693 0 0 1-.032.203Zm1.328-3.078c.406-.547.75-.641.968-.641.282 0 .516.203.516.672 0 .281-.156 1-.36 1.406-.187.344-.515.672-.874.672-.5 0-.625-.531-.625-.61 0-.03.015-.078.015-.109Zm0 0"/></symbol><symbol overflow="visible" id="j"><path style="stroke:none" d="M2.844-2.75h.672c.14 0 .234 0 .234-.156C3.75-3 3.656-3 3.531-3h-.64c.156-.89.203-1.203.265-1.406a.384.384 0 0 1 .36-.297s.187 0 .328.078c-.297.094-.313.344-.313.375 0 .156.125.266.281.266.188 0 .391-.157.391-.422 0-.328-.328-.5-.687-.5a.974.974 0 0 0-.844.515c-.14.266-.188.579-.344 1.391h-.547c-.14 0-.234 0-.234.156 0 .094.094.094.219.094h.515c0 .047-.437 2.547-.61 3.297-.03.156-.155.672-.484.672-.015 0-.171 0-.312-.078a.437.437 0 0 0 .313-.375C1.188.609 1.063.5.905.5a.404.404 0 0 0-.39.422c0 .312.328.5.671.5.438 0 .75-.453.829-.61.25-.468.421-1.328.437-1.406Zm0 0"/></symbol><symbol overflow="visible" id="k"><path style="stroke:none" d="M3.703-2.578c.031-.094.031-.125.031-.14 0-.157-.125-.22-.234-.22a.351.351 0 0 0-.328.266.817.817 0 0 0-.719-.406c-.86 0-1.781.937-1.781 1.937C.672-.42 1.156 0 1.734 0c.329 0 .625-.156.875-.375L2.453.25c-.078.297-.125.484-.39.719-.313.25-.61.25-.782.25-.312 0-.406-.016-.531-.047A.383.383 0 0 0 .969.828c0-.172-.125-.25-.266-.25A.407.407 0 0 0 .297 1c0 .422.61.422 1 .422 1.094 0 1.547-.563 1.656-.953ZM2.75-.922c-.031.094-.031.11-.156.25-.235.297-.578.485-.844.485-.344 0-.516-.313-.516-.672 0-.297.188-1.079.375-1.391.282-.484.61-.625.844-.625.5 0 .625.516.625.594 0 .015 0 .015-.015.094Zm0 0"/></symbol><symbol overflow="visible" id="l"><path style="stroke:none" d="M3.547-2.875c0-.031.015-.063.015-.094 0-.047-.03-.11-.093-.11s-.36.235-.5.47a.828.828 0 0 0-.75-.47c-.89 0-1.797.985-1.797 1.985C.422-.406.875.063 1.484.063c.391 0 .72-.25.875-.376-.015.016-.234.891-.25 1.016-.109.39-.109.39-.546.39-.079 0-.172 0-.172.157 0 .047.03.11.093.11.235 0 .5-.032.735-.032.234 0 .531.031.75.031.062 0 .125-.03.125-.156 0-.11-.094-.11-.172-.11-.156 0-.344 0-.344-.077 0-.016 0-.032.031-.157Zm-1.047 2c-.047.11-.047.125-.125.234-.281.329-.61.516-.875.516-.266 0-.516-.188-.516-.672 0-.375.204-1.14.375-1.422.313-.562.672-.656.86-.656.484 0 .625.531.625.61 0 .03-.016.078-.016.093Zm0 0"/></symbol><symbol overflow="visible" id="m"><path style="stroke:none" d="M3.875-2.625c.031-.094.031-.11.031-.156 0-.14-.11-.219-.234-.219a.33.33 0 0 0-.281.156c-.032.047-.079.266-.11.406l-.156.579a19.65 19.65 0 0 1-.281 1.125S2.53-.125 2-.125c-.484 0-.484-.453-.484-.578 0-.375.156-.813.375-1.36.078-.218.109-.296.109-.421 0-.329-.281-.594-.656-.594C.64-3.078.328-2.125.328-2c0 .078.094.078.125.078.094 0 .094-.031.125-.11.172-.577.469-.843.75-.843.11 0 .172.078.172.234 0 .172-.063.313-.094.407C1.063-1.375 1-1.125 1-.813c0 .11 0 .438.266.672.218.172.515.203.703.203.281 0 .531-.093.75-.312-.078.39-.156.688-.453 1.031-.188.219-.47.438-.844.438-.047 0-.375 0-.516-.219.375-.047.375-.375.375-.39 0-.22-.203-.266-.265-.266-.172 0-.407.14-.407.469 0 .343.329.609.829.609C2.14 1.422 3 .875 3.218 0Zm0 0"/></symbol><clipPath id="g"><path d="M0 0h98.57v62H0Zm0 0"/></clipPath></defs><use xlink:href="#a" x=".19" y="7.493" style="fill:#000;fill-opacity:1"/><use xlink:href="#b" x="20.389" y="49.288" style="fill:#000;fill-opacity:1"/><use xlink:href="#c" x="31.638" y="49.288" style="fill:#000;fill-opacity:1"/><use xlink:href="#d" x="39.387" y="50.782" style="fill:#000;fill-opacity:1"/><use xlink:href="#e" x="48.016" y="49.288" style="fill:#000;fill-opacity:1"/><use xlink:href="#b" x="85.332" y="49.288" style="fill:#000;fill-opacity:1"/><use xlink:href="#e" x="34.202" y="92.578" style="fill:#000;fill-opacity:1"/><use xlink:href="#f" x="86.093" y="92.578" style="fill:#000;fill-opacity:1"/><g clip-path="url(#g)"><path style="fill:none;stroke-width:1.39478;stroke-linecap:butt;stroke-linejoin:miter;stroke:#000;stroke-opacity:1;stroke-dasharray:2.98883,2.98883;stroke-miterlimit:10" d="M-35.681 38.904 34.533 4.662" transform="matrix(1 0 0 -1 47.279 46.631)"/></g><path style="fill:none;stroke-width:.59776;stroke-linecap:butt;stroke-linejoin:miter;stroke:#fff;stroke-opacity:1;stroke-dasharray:2.98883,2.98883;stroke-miterlimit:10" d="M-35.681 38.904 34.533 4.662" transform="matrix(1 0 0 -1 47.279 46.631)"/><use xlink:href="#h" x="50.225" y="21.328" style="fill:#000;fill-opacity:1"/><path style="fill:none;stroke-width:.3985;stroke-linecap:butt;stroke-linejoin:miter;stroke:#000;stroke-opacity:1;stroke-miterlimit:10" d="M34.533.748H12.256m30.317-6.926v-29.441m-7.278-6.926H-1.56m-7.516 6.926v27.95M-15.22 7.67l-22.383 27.948" transform="matrix(1 0 0 -1 47.279 46.631)"/><use xlink:href="#i" x="68.619" y="52.407" style="fill:#000;fill-opacity:1"/><use xlink:href="#j" x="93.369" y="69.272" style="fill:#000;fill-opacity:1"/><use xlink:href="#k" x="62.078" y="95.696" style="fill:#000;fill-opacity:1"/><use xlink:href="#l" x="30.78" y="69.1" style="fill:#000;fill-opacity:1"/><use xlink:href="#m" x="13.057" y="31.509" style="fill:#000;fill-opacity:1"/></svg>