<svg xmlns="http://www.w3.org/2000/svg" xmlns:xlink="http://www.w3.org/1999/xlink" width="47.547" height="48.123" viewBox="0 0 35.66 36.092" version="1.2"><defs><symbol overflow="visible" id="a"><path style="stroke:none" d="M5.516-.234c0-.235-.125-.235-.266-.235-.61-.015-.61-.14-.61-.375v-2.14c0-.891-.702-1.532-2.187-1.532-.562 0-1.781.047-1.781.922 0 .438.344.625.61.625.312 0 .624-.219.624-.625 0-.297-.187-.469-.218-.5a5.28 5.28 0 0 1 .718-.062c.75 0 1.11.422 1.11 1.172v.343c-.72.032-3.25.125-3.25 1.563C.266-.125 1.5.062 2.187.062c.797 0 1.266-.406 1.485-.828 0 .313 0 .766 1.047.766h.468c.204 0 .329 0 .329-.234Zm-2-1.157c0 .97-.922 1.094-1.172 1.094-.516 0-.906-.344-.906-.797 0-1.062 1.578-1.203 2.078-1.234Zm0 0"/></symbol><symbol overflow="visible" id="b"><path style="stroke:none" d="M5.984-2.219c0-1.328-.937-2.265-2.39-2.265-.719 0-1.219.28-1.453.484v-2.922l-1.766.078v.469c.61 0 .688 0 .688.39V0h.468c.157-.188.328-.375.485-.563.078.079.562.625 1.453.625 1.484 0 2.515-.906 2.515-2.28Zm-1.28 0c0 .469 0 1.016-.25 1.406-.298.407-.75.516-1.079.516-.688 0-1.078-.547-1.188-.687v-2.5c.282-.36.75-.641 1.297-.641 1.22 0 1.22 1.203 1.22 1.906Zm0 0"/></symbol><symbol overflow="visible" id="c"><path style="stroke:none" d="M4.766-1.172c0-.14-.141-.14-.235-.14-.187 0-.187.03-.25.156-.25.625-.734.812-1.234.812-1.39 0-1.39-1.453-1.39-1.922 0-.562 0-1.843 1.28-1.843.36 0 .516.015.657.046a.618.618 0 0 0-.203.47c0 .437.343.624.609.624.313 0 .64-.219.64-.625 0-.86-1.156-.922-1.734-.922C1.11-4.516.375-3.375.375-2.219.375-.89 1.313.062 2.844.062c1.625 0 1.922-1.156 1.922-1.234Zm0 0"/></symbol></defs><use xlink:href="#a" x=".587" y="6.232" style="fill:#000;fill-opacity:1"/><use xlink:href="#b" x="28.534" y="7.433" style="fill:#000;fill-opacity:1"/><use xlink:href="#c" x="29.172" y="34.579" style="fill:#000;fill-opacity:1"/><path style="fill:none;stroke-width:.3985;stroke-linecap:butt;stroke-linejoin:miter;stroke:red;stroke-opacity:1;stroke-miterlimit:10" d="M6.305.001h14.941" transform="matrix(1 0 0 -1 3.371 4.005)"/><path style="fill:none;stroke-width:.3985;stroke-linecap:round;stroke-linejoin:round;stroke:red;stroke-opacity:1;stroke-miterlimit:10" d="M-2.073 2.392C-1.695.958-.851.278 0 .002-.851-.28-1.695-.957-2.073-2.39" transform="matrix(1 0 0 -1 24.816 4.005)"/><path style="fill:none;stroke-width:.3985;stroke-linecap:butt;stroke-linejoin:miter;stroke:#00f;stroke-opacity:1;stroke-miterlimit:10" d="M5.805-5.808 22.258-22.26" transform="matrix(1 0 0 -1 3.371 4.005)"/><path style="fill:none;stroke-width:.3985;stroke-linecap:round;stroke-linejoin:round;stroke:#00f;stroke-opacity:1;stroke-miterlimit:10" d="M-2.072 2.39C-1.693.956-.85.28.002 0-.85-.279-1.694-.955-2.072-2.389" transform="matrix(.70714 .70705 .70705 -.70714 25.772 26.405)"/></svg>