<svg xmlns="http://www.w3.org/2000/svg" xmlns:xlink="http://www.w3.org/1999/xlink" width="127.299" height="139.131" viewBox="0 0 95.474 104.348" version="1.2"><defs><symbol overflow="visible" id="a"><path style="stroke:none" d="M2.5-5.078c0-.219-.016-.219-.234-.219-.329.313-.75.5-1.5.5v.266c.218 0 .64 0 1.109-.203v4.078c0 .297-.031.39-.781.39H.812V0c.329-.031 1.016-.031 1.375-.031.36 0 1.047 0 1.376.031v-.266H3.28c-.75 0-.781-.093-.781-.39Zm0 0"/></symbol><symbol overflow="visible" id="b"><path style="stroke:none" d="M2.016-2.656c.625 0 1.03.453 1.03 1.297 0 1-.562 1.28-.983 1.28-.438 0-1.047-.155-1.329-.577.297 0 .5-.188.5-.438 0-.265-.187-.437-.453-.437-.203 0-.437.125-.437.453 0 .75.812 1.25 1.734 1.25 1.047 0 1.797-.734 1.797-1.531 0-.672-.531-1.266-1.344-1.454.625-.218 1.11-.75 1.11-1.39 0-.64-.72-1.094-1.547-1.094-.86 0-1.5.453-1.5 1.063 0 .296.187.421.406.421.25 0 .406-.171.406-.406 0-.297-.265-.406-.437-.406.344-.438.953-.469 1.094-.469.203 0 .812.063.812.89 0 .548-.234.891-.344 1.016-.234.25-.422.266-.906.297-.156 0-.219.016-.219.125 0 .11.078.11.219.11Zm0 0"/></symbol><symbol overflow="visible" id="d"><path style="stroke:none" d="M1.094-2.64c0-.657.062-1.235.343-1.72.25-.406.657-.734 1.157-.734.156 0 .515.032.703.297-.36.031-.39.297-.39.375 0 .25.187.375.374.375.14 0 .375-.078.375-.39 0-.47-.36-.86-1.078-.86C1.468-5.297.344-4.25.344-2.53.344-.36 1.359.172 2.125.172c.39 0 .797-.11 1.156-.453.328-.313.594-.64.594-1.344 0-1.031-.797-1.766-1.672-1.766-.578 0-.922.36-1.11.75ZM2.125-.079a.88.88 0 0 1-.797-.516c-.187-.36-.203-.89-.203-1.203 0-.781.422-1.375 1.047-1.375.39 0 .64.203.781.485.172.296.172.656.172 1.062s0 .75-.156 1.047c-.219.36-.485.5-.844.5Zm0 0"/></symbol><symbol overflow="visible" id="e"><path style="stroke:none" d="M2.25-1.625c.125-.125.453-.39.594-.5.484-.453.953-.89.953-1.61 0-.953-.797-1.562-1.781-1.562-.97 0-1.594.719-1.594 1.438 0 .39.312.437.422.437.172 0 .422-.11.422-.422 0-.406-.407-.406-.5-.406.234-.594.765-.781 1.156-.781.734 0 1.125.625 1.125 1.297 0 .828-.578 1.437-1.531 2.39l-1 1.047C.422-.219.422-.203.422 0h3.14l.235-1.422h-.25c-.016.156-.078.547-.172.703-.047.063-.656.063-.781.063H1.172Zm0 0"/></symbol><symbol overflow="visible" id="g"><path style="stroke:none" d="M3.89-2.547c0-.844-.078-1.36-.343-1.875-.344-.703-1-.875-1.438-.875-1 0-1.375.75-1.484.969C.344-3.75.328-2.953.328-2.547c0 .531.016 1.328.406 1.969.36.594.954.75 1.375.75.391 0 1.063-.125 1.47-.906.296-.579.312-1.297.312-1.813ZM2.11-.062c-.266 0-.813-.126-.985-.954-.094-.453-.094-1.203-.094-1.625 0-.546 0-1.109.094-1.546.172-.813.781-.891.984-.891.266 0 .829.14.985.86.094.437.094 1.046.094 1.577 0 .47 0 1.188-.094 1.641-.172.828-.719.938-.985.938Zm0 0"/></symbol><symbol overflow="visible" id="c"><path style="stroke:none" d="M1.625-.438a.463.463 0 0 0-.453-.453.447.447 0 0 0-.438.438.44.44 0 0 0 .438.453.45.45 0 0 0 .453-.438Zm0 0"/></symbol><symbol overflow="visible" id="f"><path style="stroke:none" d="M1.484-.125c0 .516-.109.984-.593 1.469-.032.031-.047.047-.047.078 0 .062.062.11.11.11.093 0 .765-.626.765-1.563 0-.5-.203-.86-.547-.86a.436.436 0 0 0-.438.438c0 .234.157.453.438.453.203 0 .312-.11.312-.125Zm0 0"/></symbol><symbol overflow="visible" id="h"><path style="stroke:none" d="M1.625-1.984a.453.453 0 0 0-.453-.454A.437.437 0 0 0 .734-2a.45.45 0 0 0 .438.453c.25 0 .453-.219.453-.437Zm0 0"/></symbol><symbol overflow="visible" id="i"><path style="stroke:none" d="M1.016-3.328c.203.062.406.078.609.078.14 0 .469 0 .844-.203.11-.063.469-.313.469-.438 0-.078-.047-.093-.079-.093-.015 0-.015 0-.093.03a2.513 2.513 0 0 1-.907.173c-.296 0-.609-.063-.89-.156C.922-3.97.89-3.985.875-3.985c-.094 0-.094.078-.094.171v1.797c0 .094 0 .172.11.172.062 0 .078-.031.109-.078.156-.187.422-.39.89-.39.735 0 .735.89.735 1.078 0 .234-.016.578-.219.828a.95.95 0 0 1-.719.312C1.281-.094.86-.312.72-.672c.297 0 .328-.234.328-.297a.304.304 0 0 0-.313-.312.303.303 0 0 0-.296.328C.438-.406.953.125 1.702.125c.828 0 1.516-.578 1.516-1.328A1.3 1.3 0 0 0 1.89-2.5c-.375 0-.688.125-.875.281Zm0 0"/></symbol><symbol overflow="visible" id="j"><path style="stroke:none" d="M.969-1.984c.015-.297.031-.797.234-1.157.266-.468.656-.64 1.016-.64.14 0 .422.015.562.187-.219.047-.265.188-.265.297 0 .156.109.281.296.281.172 0 .282-.109.282-.296 0-.376-.266-.672-.875-.672-.938 0-1.844.812-1.844 2.093 0 1.454.672 2.016 1.469 2.016.234 0 .64-.031 1-.39.203-.188.422-.422.422-.954 0-.203-.016-.593-.375-.922-.22-.203-.485-.406-.985-.406-.422 0-.734.219-.937.563Zm.875 1.89C1-.094 1-1.125 1-1.359c0-.5.328-1 .875-1 .313 0 .484.125.625.312.172.235.172.516.172.828 0 .407-.016.61-.219.86-.14.171-.328.265-.61.265Zm0 0"/></symbol></defs><path style="fill:none;stroke-width:.3985;stroke-linecap:round;stroke-linejoin:miter;stroke:gray;stroke-opacity:1;stroke-miterlimit:10" d="M-1.397 4.883H.002M-1.397 7.832H.002M-1.397 9.953H.002M-1.397 11.61H.002M-1.397 12.969H.002M-1.397 14.121H.002M-1.397 15.121H.002M-1.397 16.008H.002M-1.397 16.8H.002M-1.397 22.402H.002M-1.397 25.352H.002M-1.397 27.473H.002M-1.397 29.129H.002M-1.397 30.488H.002M-1.397 31.64H.002M-1.397 32.64H.002M-1.397 33.527H.002M-1.397 34.32H.002M-1.397 39.918H.002M-1.397 42.871H.002M-1.397 44.988H.002M-1.397 46.648H.002M-1.397 48.008H.002M-1.397 49.16H.002M-1.397 50.16H.002M-1.397 51.043H.002M-1.397 51.836H.002M-1.397 57.438H.002M-1.397 60.387H.002M-1.397 62.508H.002M-1.397 64.164H.002M-1.397 65.523H.002M-1.397 66.676H.002M-1.397 67.676H.002M-1.397 68.563H.002M-1.397 69.356H.002M-1.397 74.957H.002M-1.397 77.906H.002M-1.397 80.027H.002M-1.397 81.684H.002M-1.397 83.043H.002M-1.397 84.195H.002M-1.397 85.195H.002M-1.397 86.082H.002M-1.397 86.875H.002M56.693 4.883h1.395M56.693 7.832h1.395M56.693 9.953h1.395M56.693 11.61h1.395M56.693 12.969h1.395M56.693 14.121h1.395M56.693 15.121h1.395M56.693 16.008h1.395M56.693 16.8h1.395M56.693 22.402h1.395M56.693 25.352h1.395M56.693 27.473h1.395M56.693 29.129h1.395M56.693 30.488h1.395M56.693 31.64h1.395M56.693 32.64h1.395M56.693 33.527h1.395M56.693 34.32h1.395M56.693 39.918h1.395M56.693 42.871h1.395M56.693 44.988h1.395M56.693 46.648h1.395M56.693 48.008h1.395M56.693 49.16h1.395M56.693 50.16h1.395M56.693 51.043h1.395M56.693 51.836h1.395M56.693 57.438h1.395M56.693 60.387h1.395M56.693 62.508h1.395M56.693 64.164h1.395M56.693 65.523h1.395M56.693 66.676h1.395M56.693 67.676h1.395M56.693 68.563h1.395M56.693 69.356h1.395M56.693 74.957h1.395M56.693 77.906h1.395M56.693 80.027h1.395M56.693 81.684h1.395M56.693 83.043h1.395M56.693 84.195h1.395M56.693 85.195h1.395M56.693 86.082h1.395M56.693 86.875h1.395M.002-1.992V0M28.346-1.992V0M56.693-1.992V0M.002 87.59v1.992M28.346 87.59v1.992M56.693 87.59v1.992M-1.994 0H.002M-1.994 17.52H.002M-1.994 35.035H.002M-1.994 52.555H.002M-1.994 70.074H.002M-1.994 87.59H.002M56.693 0h1.992M56.693 17.52h1.992M56.693 35.035h1.992M56.693 52.555h1.992M56.693 70.074h1.992M56.693 87.59h1.992" transform="matrix(1 0 0 -1 28.213 91.711)"/><path style="fill:none;stroke-width:.3985;stroke-linecap:butt;stroke-linejoin:miter;stroke:gray;stroke-opacity:1;stroke-miterlimit:10" d="M.002 0h56.691M.002 87.59h56.691M.002 0v87.59M56.693 0v87.59" transform="matrix(1 0 0 -1 28.213 91.711)"/><path style="fill:none;stroke-width:.3985;stroke-linecap:butt;stroke-linejoin:miter;stroke:#000;stroke-opacity:1;stroke-miterlimit:10" d="m-1.408-1.41 2.816 2.82m-2.816 0 2.816-2.82M55.283 86.184 58.103 89m-2.82 0 2.82-2.816" transform="matrix(1 0 0 -1 28.213 91.711)"/><use xlink:href="#a" x="26.096" y="101.495" style="fill:#000;fill-opacity:1"/><g style="fill:#000;fill-opacity:1"><use xlink:href="#b" x="46.914" y="101.495"/><use xlink:href="#a" x="51.149" y="101.495"/></g><use xlink:href="#c" x="55.382" y="101.495" style="fill:#000;fill-opacity:1"/><g style="fill:#000;fill-opacity:1"><use xlink:href="#d" x="57.735" y="101.495"/><use xlink:href="#e" x="61.97" y="101.495"/></g><use xlink:href="#a" x="75.261" y="101.495" style="fill:#000;fill-opacity:1"/><use xlink:href="#f" x="79.495" y="101.495" style="fill:#000;fill-opacity:1"/><g style="fill:#000;fill-opacity:1"><use xlink:href="#g" x="81.848" y="101.495"/><use xlink:href="#g" x="86.083" y="101.495"/><use xlink:href="#g" x="90.317" y="101.495"/></g><g style="fill:#000;fill-opacity:1"><use xlink:href="#a" x="15.096" y="94.279"/><use xlink:href="#g" x="19.331" y="94.279"/></g><g style="fill:#000;fill-opacity:1"><use xlink:href="#a" x="10.862" y="76.761"/><use xlink:href="#g" x="15.097" y="76.761"/><use xlink:href="#g" x="19.331" y="76.761"/></g><use xlink:href="#a" x="4.275" y="58.468" style="fill:#000;fill-opacity:1"/><use xlink:href="#f" x="8.51" y="58.468" style="fill:#000;fill-opacity:1"/><g style="fill:#000;fill-opacity:1"><use xlink:href="#g" x="10.862" y="58.468"/><use xlink:href="#g" x="15.097" y="58.468"/><use xlink:href="#g" x="19.331" y="58.468"/></g><g style="fill:#000;fill-opacity:1"><use xlink:href="#a" x=".041" y="40.95"/><use xlink:href="#g" x="4.276" y="40.95"/></g><use xlink:href="#f" x="8.51" y="40.95" style="fill:#000;fill-opacity:1"/><g style="fill:#000;fill-opacity:1"><use xlink:href="#g" x="10.862" y="40.95"/><use xlink:href="#g" x="15.097" y="40.95"/><use xlink:href="#g" x="19.331" y="40.95"/></g><use xlink:href="#a" x=".595" y="24.971" style="fill:#000;fill-opacity:1"/><use xlink:href="#h" x="6.711" y="24.971" style="fill:#000;fill-opacity:1"/><g style="fill:#000;fill-opacity:1"><use xlink:href="#a" x="10.945" y="24.971"/><use xlink:href="#g" x="15.18" y="24.971"/></g><use xlink:href="#i" x="19.413" y="22.158" style="fill:#000;fill-opacity:1"/><use xlink:href="#a" x=".595" y="7.453" style="fill:#000;fill-opacity:1"/><use xlink:href="#h" x="6.711" y="7.453" style="fill:#000;fill-opacity:1"/><g style="fill:#000;fill-opacity:1"><use xlink:href="#a" x="10.945" y="7.453"/><use xlink:href="#g" x="15.18" y="7.453"/></g><use xlink:href="#j" x="19.413" y="4.64" style="fill:#000;fill-opacity:1"/></svg>