<svg xmlns="http://www.w3.org/2000/svg" xmlns:xlink="http://www.w3.org/1999/xlink" width="78.92" height="43.227" viewBox="0 0 59.19 32.42" version="1.2"><defs><clipPath id="a"><path d="M0 0h58.785v32.129H0Zm0 0"/></clipPath><clipPath id="b"><path d="M5 13h16v19.129H5Zm0 0"/></clipPath><clipPath id="d"><path d="M0 15h20v17.129H0Zm0 0"/></clipPath><symbol overflow="visible" id="c"><path style="stroke:none" d="M4.75-2.36c0-1.562-.922-2.046-1.656-2.046-1.375 0-2.688 1.422-2.688 2.828C.406-.641 1 .109 2.031.109c.625 0 1.344-.234 2.094-.843.125.53.453.843.906.843.532 0 .844-.546.844-.703 0-.078-.063-.11-.125-.11-.063 0-.094.032-.125.11-.188.485-.547.485-.563.485-.312 0-.312-.782-.312-1.016 0-.203 0-.234.11-.344C5.796-2.656 6-3.812 6-3.812c0-.032-.016-.11-.125-.11-.094 0-.094.031-.14.219-.188.625-.516 1.375-.985 1.969ZM4.094-.983c-.89.765-1.657.875-2.047.875-.594 0-.906-.454-.906-1.094 0-.484.265-1.563.578-2.063.468-.734 1.015-.921 1.36-.921.983 0 .983 1.312.983 2.078 0 .375 0 .953.032 1.125Zm0 0"/></symbol></defs><g clip-path="url(#a)"><path style="fill:none;stroke-width:.3985;stroke-linecap:butt;stroke-linejoin:miter;stroke:#000;stroke-opacity:1;stroke-miterlimit:10" d="M56.695-.001H0l28.348 28.348" transform="matrix(1 0 0 -1 1.082 29.202)"/></g><g clip-path="url(#b)"><path style="fill:none;stroke-width:.3985;stroke-linecap:butt;stroke-linejoin:miter;stroke:#000;stroke-opacity:1;stroke-miterlimit:10" d="M14.172-.001a14.18 14.18 0 0 1-4.149 10.023" transform="matrix(1 0 0 -1 1.082 29.202)"/></g><use xlink:href="#c" x="5.734" y="28.092" style="fill:#000;fill-opacity:1"/><g clip-path="url(#d)"><path style="fill:none;stroke-width:.3985;stroke-linecap:butt;stroke-linejoin:miter;stroke:#000;stroke-opacity:1;stroke-miterlimit:10" d="M12.836 3.253a4.98 4.98 0 1 1-9.961 0 4.981 4.981 0 0 1 9.961 0Zm0 0" transform="matrix(1 0 0 -1 1.082 29.202)"/></g></svg>