<svg xmlns="http://www.w3.org/2000/svg" xmlns:xlink="http://www.w3.org/1999/xlink" width="148.948" height="177.195" viewBox="0 0 111.711 132.896" version="1.2"><defs><symbol overflow="visible" id="a"><path style="stroke:none" d="M4.922 0v-.469h-1.39v-5.734c0-.234 0-.328-.266-.328-.11 0-.125 0-.22.078-.765.562-1.796.562-2 .562H.845v.47h.203c.156 0 .703-.016 1.297-.204v5.156H.954V0c.437-.031 1.5-.031 1.984-.031s1.546 0 1.984.031Zm0 0"/></symbol><symbol overflow="visible" id="b"><path style="stroke:none" d="m5.469 1.234-.375-.28c-.14.155-.594.624-.75.577-.125-.015-.735-.453-.86-.547L2.297.125A92.171 92.171 0 0 1 4.14.047C5.562.047 6.344.03 6.906-.72c.672-.937.266-2.14-.86-2.969-.984-.718-2.124-.765-2.64-.046-.36.484-.047.875.14 1.015.267.203.72.25 1.017-.156.296-.422.046-.797-.047-.906.375-.016.75.11 1.046.328.688.5.672 1.312.235 1.922-.406.547-1.125.89-2.11 1.047L.86-.016C.688 0 .672.031.547.188l-.094.14 3.469 2.516Zm0 0"/></symbol><symbol overflow="visible" id="c"><path style="stroke:none" d="M3.328 4.438c.531-.157 1.25-.72 1.11-2.188.39.594 1.156 1.11 1.968.844.719-.235 1.11-1.14.672-2.485C6.703-.516 5.86-1.062 5.094-.812c-.407.14-.578.515-.469.859.14.437.531.578.875.469.547-.188.484-.735.5-.766.375.234.578.64.672.938.266.78-.344 1-.656 1.109-.125.031-1.375.422-1.75-.547C4.14.875 4.125.844 4.094.812 4.047.72 3.954.72 3.89.735c-.157.063-.125.172-.079.329l.141.421C4.297 2.516 3.36 2.813 2.86 2.97c-.437.156-1.406.469-1.734-.5-.078-.266-.188-.766-.063-1.313.204.282.516.438.907.313.422-.14.593-.532.468-.953-.14-.407-.484-.641-.953-.5-.875.28-1.14 1.39-.75 2.609.547 1.703 1.735 2.094 2.594 1.813Zm0 0"/></symbol><symbol overflow="visible" id="h"><path style="stroke:none" d="m-1.672 5.14.453.141.297-.922 1.031.344-.296.922.453.14.296-.921L4.547 6.14c.25.078.312.078.39-.188C5 5.75 5 5.75 4.891 5.578L1.844.922 1.39.782.5 3.515l-1.031-.344.344-1.063-.454-.14c-.093.375-.359 1.234-.5 1.64-.125.391-.39 1.204-.53 1.532ZM.922 3.767l.75-2.344 2.172 3.297Zm0 0"/></symbol><symbol overflow="visible" id="i"><path style="stroke:none" d="M-3 4.656C-2.312 5.578-1.14 5.86.047 5c.234-.172.64-.5.844-1.031l.78 1.062c-.265.125-.374.157-.64.36-1.172.843-1.265 2.312-1.11 2.5.048.062.126.14.235.078.016-.032.016-.032.078-.125a4.373 4.373 0 0 1 1.063-1.125c.61-.438 1.172-.578 1.422-.672.094-.047.11-.031.14-.047.11-.078.047-.172-.046-.297l-1.72-2.36C.985 3.204.923 3.11.75 3.235c-.11.063-.11.11-.11.204-.062.624-.421 1.015-.75 1.25-.718.515-1.234-.204-1.702-.844-.438-.594-1.016-1.406-.063-2.094.203-.156.734-.469 1.406-.25-.265.219-.375.594-.125.922.313.437.75.281.938.14.11-.078.484-.468.125-.953-.485-.687-1.625-.906-2.61-.187-1.296.937-1.578 2.234-.859 3.234Zm0 0"/></symbol><symbol overflow="visible" id="m"><path style="stroke:none" d="M-5.25 2.047c0 1.39 1.016 2.125 2.219 2.125.219 0 .781 0 1.203-.766v.188c0 1.14-.219 1.562-.281 1.719-.25.468-.782.828-1.391.828-.172 0-.516-.032-.75-.266a.595.595 0 0 0 .547-.61c0-.343-.235-.624-.625-.624s-.625.265-.625.64c0 .625.422 1.25 1.469 1.25 1.359 0 3-.86 3-3.375 0-.781-.079-1.578-.5-2.265-.47-.766-1.22-1-1.922-1-1.375 0-2.344.812-2.344 2.156Zm1.36.015c0-1 0-1.75 1.015-1.75.516 0 .781.391.86.563.156.313.156 1.031.156 1.219 0 1.25-.532 1.719-1.079 1.719-.953 0-.953-.75-.953-1.75Zm0 0"/></symbol><symbol overflow="visible" id="n"><path style="stroke:none" d="m-8.281 1.938 1.64 1.187c.188.14 1.36 1.031 1.454 1.156.14.14.093.235.062.313l.375.281 1.766-1.844-.375-.281c-.532.563-.72.594-.75.578-.141-.015-.797-.484-.938-.594L-6.39 1.75c.282-.078.532-.125.829-.188C-4.141 1.204-2.783.548-1.906-.64c.406-.578-.047-.906-.094-.953-.125-.093-.531-.312-.906.219L-3.187-1c-.282.375-.594.75-.907 1.094-.484.484-.968.828-1.515.937l-2.297.547c-.14.047-.172.078-.375.36Zm0 0"/></symbol><symbol overflow="visible" id="r"><path style="stroke:none" d="M-3.39-4.422c-1.032.328-1.204 1.281-1.329 1.828-.547-.547-1.062-.703-1.61-.531-.968.313-1.124 1.328-.78 2.406C-6.688.594-5.703 1-4.797.72c.422-.14.969-.5 1.125-1.375.625.672 1.281.922 1.985.703 1.14-.375 1.312-1.563.921-2.781-.5-1.516-1.593-2.032-2.625-1.688Zm-2.704 2.016c.453-.156.844-.016 1.266.312l-.328 1.688c-.032.172-.11.484-.438.594-.672.218-1-.61-1.125-1-.265-.782-.031-1.391.625-1.594Zm3.485-1.36c.796-.25 1.25.579 1.421 1.125.297.922 0 1.625-.75 1.875-.734.235-1.312-.125-1.625-.406l.313-1.547c.11-.469.188-.89.64-1.047Zm0 0"/></symbol><symbol overflow="visible" id="s"><path style="stroke:none" d="M-1.5-6.016c-.64-.203-3.094-1-3.828 1.266-.438 1.344.047 2.531 1.312 2.938 1.297.421 2.313-.282 2.688-1.454.11-.328.203-.796-.36-1.375l.22.063c.702.234 1.218.5 1.5.734.312.297.609.86.405 1.5-.062.172-.203.5-.468.719 0-.11-.016-.516-.438-.656a.597.597 0 0 0-.781.406c-.125.375.047.672.406.781.64.219 1.344-.093 1.688-1.14.406-1.22.078-3-2.344-3.782ZM-2.86-5c.594.188 1.485.734 1.22 1.547-.298.906-1 .672-1.938.375-.938-.313-1.703-.547-1.375-1.578.187-.547.781-.61.86-.625.359-.016.905.172 1.234.281Zm0 0"/></symbol><symbol overflow="visible" id="t"><path style="stroke:none" d="m3.984-2.89-.28-.376-1.126.813-3.36-4.64c-.14-.188-.202-.266-.421-.11-.094.062-.094.078-.125.187-.297.907-1.125 1.516-1.297 1.641l-.156.11.281.374.156-.109a4.82 4.82 0 0 0 .922-.922L1.61-1.75.484-.937l.282.375c.343-.282 1.203-.907 1.593-1.204.391-.28 1.25-.906 1.625-1.125Zm0 0"/></symbol><symbol overflow="visible" id="u"><path style="stroke:none" d="M2.39-5.688C1.829-6.452.423-8.374-1.53-6.968c-1.953 1.421-.547 3.343.015 4.124.594.813 1.938 2.672 3.891 1.25 1.938-1.39.61-3.281.016-4.093Zm-1.093.672c.328.454.86 1.188 1.11 1.641.421.844 0 1.313-.235 1.484-.297.22-.89.375-1.406-.14C.375-2.406-.22-3.234-.547-3.687c-.422-.579-.812-1.11-1.047-1.579-.422-.78.094-1.28.282-1.421a1.005 1.005 0 0 1 1.14-.047c.36.203.984 1.062 1.469 1.718Zm0 0"/></symbol><symbol overflow="visible" id="v"><path style="stroke:none" d="m2.875-4.828-.375.281c.078.188.375.75.313.89-.063.11-.672.548-.797.641l-1.188.86c.156-.594.328-1.25.5-1.766.422-1.344.672-2.11.11-2.86-.672-.937-1.954-.921-3.079-.093-.984.719-1.375 1.766-.859 2.484.36.485.828.313 1.016.172.265-.203.468-.593.171-1-.296-.422-.734-.297-.89-.25.094-.36.344-.672.64-.89.688-.5 1.454-.22 1.891.39.406.547.5 1.328.36 2.297L.266-.828c-.047.172-.032.203.093.36l.094.14 3.469-2.516Zm0 0"/></symbol><clipPath id="d"><path d="M101 40h10.566v23H101Zm0 0"/></clipPath><clipPath id="e"><path d="M98 37h13.566v29H98Zm0 0"/></clipPath><clipPath id="f"><path d="M93 30h18.566v17H93Zm0 0"/></clipPath><clipPath id="g"><path d="M90 27h21.566v23H90Zm0 0"/></clipPath><clipPath id="j"><path d="M90 80h21.566v22H90Zm0 0"/></clipPath><clipPath id="k"><path d="M101 93h10.566v22H101Zm0 0"/></clipPath><clipPath id="l"><path d="M98 90h13.566v28H98Zm0 0"/></clipPath><clipPath id="o"><path d="M26 106h18v26.844H26Zm0 0"/></clipPath><clipPath id="p"><path d="M49 106h17v26.844H49Zm0 0"/></clipPath><clipPath id="q"><path d="M32 122h29v10.844H32Zm0 0"/></clipPath></defs><use xlink:href="#a" x="57.102" y="77.42" style="fill:#000;fill-opacity:1"/><use xlink:href="#b" x="69.492" y="56.174" style="fill:#000;fill-opacity:1"/><use xlink:href="#c" x="92.055" y="46.251" style="fill:#000;fill-opacity:1"/><g clip-path="url(#d)"><path style="fill:none;stroke-width:.19925;stroke-linecap:butt;stroke-linejoin:miter;stroke:gray;stroke-opacity:1;stroke-miterlimit:10" d="m58.286 42.35-5.253-16.176" transform="matrix(1 0 0 -1 51.464 85.862)"/></g><g clip-path="url(#e)"><path style="fill:none;stroke-width:.3985;stroke-linecap:butt;stroke-linejoin:miter;stroke:#000;stroke-opacity:1;stroke-miterlimit:10" d="m58.286 42.35.61-9.14-5.863-7.036" transform="matrix(1 0 0 -1 51.464 85.862)"/></g><path style="fill:none;stroke-width:.19925;stroke-linecap:butt;stroke-linejoin:miter;stroke:gray;stroke-opacity:1;stroke-miterlimit:10" d="M53.033 26.174H36.025" transform="matrix(1 0 0 -1 51.464 85.862)"/><path style="fill:none;stroke-width:.3985;stroke-linecap:butt;stroke-linejoin:miter;stroke:#000;stroke-opacity:1;stroke-miterlimit:10" d="m53.033 26.174-8.504-3.402-8.504 3.402" transform="matrix(1 0 0 -1 51.464 85.862)"/><path style="fill:none;stroke-width:.19925;stroke-linecap:butt;stroke-linejoin:miter;stroke:gray;stroke-opacity:1;stroke-miterlimit:10" d="M36.025 26.174 30.767 42.35M30.767 42.35l13.762 9.996" transform="matrix(1 0 0 -1 51.464 85.862)"/><path style="fill:none;stroke-width:.3985;stroke-linecap:butt;stroke-linejoin:miter;stroke:#000;stroke-opacity:1;stroke-miterlimit:10" d="m30.767 42.35 4.883 7.75 8.879 2.246" transform="matrix(1 0 0 -1 51.464 85.862)"/><g clip-path="url(#f)"><path style="fill:none;stroke-width:.19925;stroke-linecap:butt;stroke-linejoin:miter;stroke:gray;stroke-opacity:1;stroke-miterlimit:10" d="m44.529 52.346 13.757-9.996" transform="matrix(1 0 0 -1 51.464 85.862)"/></g><g clip-path="url(#g)"><path style="fill:none;stroke-width:.3985;stroke-linecap:butt;stroke-linejoin:miter;stroke:#000;stroke-opacity:1;stroke-miterlimit:10" d="m44.529 52.346 8.879-2.246 4.878-7.75" transform="matrix(1 0 0 -1 51.464 85.862)"/></g><path style="fill:none;stroke-width:.19925;stroke-linecap:butt;stroke-linejoin:miter;stroke:gray;stroke-opacity:1;stroke-miterlimit:10" d="m36.025 26.174-13.762-10" transform="matrix(1 0 0 -1 51.464 85.862)"/><path style="fill:none;stroke-width:.3985;stroke-linecap:butt;stroke-linejoin:miter;stroke:#000;stroke-opacity:1;stroke-miterlimit:10" d="m36.025 26.174-4.883-7.753-8.879-2.247" transform="matrix(1 0 0 -1 51.464 85.862)"/><path style="fill:none;stroke-width:.19925;stroke-linecap:butt;stroke-linejoin:miter;stroke:gray;stroke-opacity:1;stroke-miterlimit:10" d="m22.263 16.174-13.758 10M8.505 26.174 13.76 42.35" transform="matrix(1 0 0 -1 51.464 85.862)"/><path style="fill:none;stroke-width:.3985;stroke-linecap:butt;stroke-linejoin:miter;stroke:#000;stroke-opacity:1;stroke-miterlimit:10" d="m8.505 26.174-.61 9.137 5.864 7.04" transform="matrix(1 0 0 -1 51.464 85.862)"/><path style="fill:none;stroke-width:.19925;stroke-linecap:butt;stroke-linejoin:miter;stroke:gray;stroke-opacity:1;stroke-miterlimit:10" d="M13.76 42.35h17.007" transform="matrix(1 0 0 -1 51.464 85.862)"/><path style="fill:none;stroke-width:.3985;stroke-linecap:butt;stroke-linejoin:miter;stroke:#000;stroke-opacity:1;stroke-miterlimit:10" d="m13.76 42.35 8.503 3.399 8.504-3.399" transform="matrix(1 0 0 -1 51.464 85.862)"/><use xlink:href="#h" x="80.007" y="77.657" style="fill:#000;fill-opacity:1"/><use xlink:href="#i" x="96.422" y="96.05" style="fill:#000;fill-opacity:1"/><path style="fill:none;stroke-width:.19925;stroke-linecap:butt;stroke-linejoin:miter;stroke:gray;stroke-opacity:1;stroke-miterlimit:10" d="M53.033-26.173H36.025" transform="matrix(1 0 0 -1 51.464 85.862)"/><path style="fill:none;stroke-width:.3985;stroke-linecap:butt;stroke-linejoin:miter;stroke:#000;stroke-opacity:1;stroke-miterlimit:10" d="m53.033-26.173-8.504-3.403-8.504 3.403" transform="matrix(1 0 0 -1 51.464 85.862)"/><path style="fill:none;stroke-width:.19925;stroke-linecap:butt;stroke-linejoin:miter;stroke:gray;stroke-opacity:1;stroke-miterlimit:10" d="M36.025-26.173 30.767-9.997" transform="matrix(1 0 0 -1 51.464 85.862)"/><path style="fill:none;stroke-width:.3985;stroke-linecap:butt;stroke-linejoin:miter;stroke:#000;stroke-opacity:1;stroke-miterlimit:10" d="m36.025-26.173-5.863 7.035.605 9.14" transform="matrix(1 0 0 -1 51.464 85.862)"/><path style="fill:none;stroke-width:.19925;stroke-linecap:butt;stroke-linejoin:miter;stroke:gray;stroke-opacity:1;stroke-miterlimit:10" d="M30.767-9.997 44.529-.001" transform="matrix(1 0 0 -1 51.464 85.862)"/><g clip-path="url(#j)"><path style="fill:none;stroke-width:.3985;stroke-linecap:butt;stroke-linejoin:miter;stroke:#000;stroke-opacity:1;stroke-miterlimit:10" d="m44.529-.001 13.757-9.996" transform="matrix(1 0 0 -1 51.464 85.862)"/></g><g clip-path="url(#k)"><path style="fill:none;stroke-width:.19925;stroke-linecap:butt;stroke-linejoin:miter;stroke:gray;stroke-opacity:1;stroke-miterlimit:10" d="m58.286-9.997-5.253-16.176" transform="matrix(1 0 0 -1 51.464 85.862)"/></g><g clip-path="url(#l)"><path style="fill:none;stroke-width:.3985;stroke-linecap:butt;stroke-linejoin:miter;stroke:#000;stroke-opacity:1;stroke-miterlimit:10" d="m58.286-9.997.61-9.137-5.863-7.04" transform="matrix(1 0 0 -1 51.464 85.862)"/></g><path style="fill:none;stroke-width:.19925;stroke-linecap:butt;stroke-linejoin:miter;stroke:gray;stroke-opacity:1;stroke-miterlimit:10" d="M30.767-9.997 17.009-.001" transform="matrix(1 0 0 -1 51.464 85.862)"/><path style="fill:none;stroke-width:.3985;stroke-linecap:butt;stroke-linejoin:miter;stroke:#000;stroke-opacity:1;stroke-miterlimit:10" d="m30.767-9.997-8.879 2.246-4.879 7.75" transform="matrix(1 0 0 -1 51.464 85.862)"/><path style="fill:none;stroke-width:.19925;stroke-linecap:butt;stroke-linejoin:miter;stroke:gray;stroke-opacity:1;stroke-miterlimit:10" d="m17.01-.001 5.253 16.175" transform="matrix(1 0 0 -1 51.464 85.862)"/><path style="fill:none;stroke-width:.3985;stroke-linecap:butt;stroke-linejoin:miter;stroke:#000;stroke-opacity:1;stroke-miterlimit:10" d="M22.263 16.174h17.008M39.27 16.174 44.53 0" transform="matrix(1 0 0 -1 51.464 85.862)"/><use xlink:href="#m" x="62.831" y="94.358" style="fill:#000;fill-opacity:1"/><use xlink:href="#n" x="50.471" y="115.508" style="fill:#000;fill-opacity:1"/><path style="fill:none;stroke-width:.19925;stroke-linecap:butt;stroke-linejoin:miter;stroke:gray;stroke-opacity:1;stroke-miterlimit:10" d="m-13.76-42.349-5.254 16.176" transform="matrix(1 0 0 -1 51.464 85.862)"/><g clip-path="url(#o)"><path style="fill:none;stroke-width:.3985;stroke-linecap:butt;stroke-linejoin:miter;stroke:#000;stroke-opacity:1;stroke-miterlimit:10" d="m-13.76-42.349-5.864 7.035.61 9.14" transform="matrix(1 0 0 -1 51.464 85.862)"/></g><path style="fill:none;stroke-width:.19925;stroke-linecap:butt;stroke-linejoin:miter;stroke:gray;stroke-opacity:1;stroke-miterlimit:10" d="m-19.014-26.173 13.758 9.996" transform="matrix(1 0 0 -1 51.464 85.862)"/><path style="fill:none;stroke-width:.3985;stroke-linecap:butt;stroke-linejoin:miter;stroke:#000;stroke-opacity:1;stroke-miterlimit:10" d="m-19.014-26.173 4.879 7.75 8.879 2.246" transform="matrix(1 0 0 -1 51.464 85.862)"/><path style="fill:none;stroke-width:.19925;stroke-linecap:butt;stroke-linejoin:miter;stroke:gray;stroke-opacity:1;stroke-miterlimit:10" d="m-5.256-16.177 13.761-9.996" transform="matrix(1 0 0 -1 51.464 85.862)"/><g clip-path="url(#p)"><path style="fill:none;stroke-width:.3985;stroke-linecap:butt;stroke-linejoin:miter;stroke:#000;stroke-opacity:1;stroke-miterlimit:10" d="M8.505-26.173 3.247-42.35" transform="matrix(1 0 0 -1 51.464 85.862)"/></g><path style="fill:none;stroke-width:.19925;stroke-linecap:butt;stroke-linejoin:miter;stroke:gray;stroke-opacity:1;stroke-miterlimit:10" d="M3.247-42.349H-13.76" transform="matrix(1 0 0 -1 51.464 85.862)"/><g clip-path="url(#q)"><path style="fill:none;stroke-width:.3985;stroke-linecap:butt;stroke-linejoin:miter;stroke:#000;stroke-opacity:1;stroke-miterlimit:10" d="m3.247-42.349-8.503-3.402-8.504 3.402" transform="matrix(1 0 0 -1 51.464 85.862)"/></g><path style="fill:none;stroke-width:.19925;stroke-linecap:butt;stroke-linejoin:miter;stroke:gray;stroke-opacity:1;stroke-miterlimit:10" d="M-5.256-16.177 0-.001" transform="matrix(1 0 0 -1 51.464 85.862)"/><path style="fill:none;stroke-width:.3985;stroke-linecap:butt;stroke-linejoin:miter;stroke:#000;stroke-opacity:1;stroke-miterlimit:10" d="m-5.256-16.177-.606 9.14L.001 0" transform="matrix(1 0 0 -1 51.464 85.862)"/><path style="fill:none;stroke-width:.19925;stroke-linecap:butt;stroke-linejoin:miter;stroke:gray;stroke-opacity:1;stroke-miterlimit:10" d="M.001-.001H17.01" transform="matrix(1 0 0 -1 51.464 85.862)"/><path style="fill:none;stroke-width:.3985;stroke-linecap:butt;stroke-linejoin:miter;stroke:#000;stroke-opacity:1;stroke-miterlimit:10" d="m17.01-.001 5.253-16.176M22.263-16.177 8.505-26.173" transform="matrix(1 0 0 -1 51.464 85.862)"/><use xlink:href="#r" x="41.639" y="83.124" style="fill:#000;fill-opacity:1"/><use xlink:href="#s" x="17.605" y="77.873" style="fill:#000;fill-opacity:1"/><path style="fill:none;stroke-width:.19925;stroke-linecap:butt;stroke-linejoin:miter;stroke:gray;stroke-opacity:1;stroke-miterlimit:10" d="m-49.784 16.174 13.758 9.997" transform="matrix(1 0 0 -1 51.464 85.862)"/><path style="fill:none;stroke-width:.3985;stroke-linecap:butt;stroke-linejoin:miter;stroke:#000;stroke-opacity:1;stroke-miterlimit:10" d="m-49.784 16.174 4.88 7.75 8.878 2.247" transform="matrix(1 0 0 -1 51.464 85.862)"/><path style="fill:none;stroke-width:.19925;stroke-linecap:butt;stroke-linejoin:miter;stroke:gray;stroke-opacity:1;stroke-miterlimit:10" d="m-36.026 26.17 13.762-9.996" transform="matrix(1 0 0 -1 51.464 85.862)"/><path style="fill:none;stroke-width:.3985;stroke-linecap:butt;stroke-linejoin:miter;stroke:#000;stroke-opacity:1;stroke-miterlimit:10" d="m-36.026 26.17 8.883-2.246 4.879-7.75" transform="matrix(1 0 0 -1 51.464 85.862)"/><path style="fill:none;stroke-width:.19925;stroke-linecap:butt;stroke-linejoin:miter;stroke:gray;stroke-opacity:1;stroke-miterlimit:10" d="M-22.264 16.174-27.518 0" transform="matrix(1 0 0 -1 51.464 85.862)"/><path style="fill:none;stroke-width:.3985;stroke-linecap:butt;stroke-linejoin:miter;stroke:#000;stroke-opacity:1;stroke-miterlimit:10" d="M-27.518-.001h-17.008" transform="matrix(1 0 0 -1 51.464 85.862)"/><path style="fill:none;stroke-width:.19925;stroke-linecap:butt;stroke-linejoin:miter;stroke:gray;stroke-opacity:1;stroke-miterlimit:10" d="m-44.53-.001-5.254 16.175" transform="matrix(1 0 0 -1 51.464 85.862)"/><path style="fill:none;stroke-width:.3985;stroke-linecap:butt;stroke-linejoin:miter;stroke:#000;stroke-opacity:1;stroke-miterlimit:10" d="m-44.53-.001-5.86 7.039.606 9.136" transform="matrix(1 0 0 -1 51.464 85.862)"/><path style="fill:none;stroke-width:.19925;stroke-linecap:butt;stroke-linejoin:miter;stroke:gray;stroke-opacity:1;stroke-miterlimit:10" d="M-22.264 16.174h17.008" transform="matrix(1 0 0 -1 51.464 85.862)"/><path style="fill:none;stroke-width:.3985;stroke-linecap:butt;stroke-linejoin:miter;stroke:#000;stroke-opacity:1;stroke-miterlimit:10" d="m-22.264 16.174 8.504 3.403 8.504-3.403" transform="matrix(1 0 0 -1 51.464 85.862)"/><path style="fill:none;stroke-width:.19925;stroke-linecap:butt;stroke-linejoin:miter;stroke:gray;stroke-opacity:1;stroke-miterlimit:10" d="M-5.256 16.174 0 0" transform="matrix(1 0 0 -1 51.464 85.862)"/><path style="fill:none;stroke-width:.3985;stroke-linecap:butt;stroke-linejoin:miter;stroke:#000;stroke-opacity:1;stroke-miterlimit:10" d="M.001-.001-13.76-9.997M-13.76-9.997-27.518-.001" transform="matrix(1 0 0 -1 51.464 85.862)"/><g style="fill:#000;fill-opacity:1"><use xlink:href="#t" x="43.459" y="61.181"/><use xlink:href="#u" x="48.093" y="57.814"/></g><g style="fill:#000;fill-opacity:1"><use xlink:href="#a" x="40.478" y="35.072"/><use xlink:href="#a" x="46.207" y="35.072"/></g><path style="fill:none;stroke-width:.3985;stroke-linecap:butt;stroke-linejoin:miter;stroke:#000;stroke-opacity:1;stroke-miterlimit:10" d="m-5.256 68.522 13.761-9.996M8.505 58.526 3.247 42.35" transform="matrix(1 0 0 -1 51.464 85.862)"/><path style="fill:none;stroke-width:.19925;stroke-linecap:butt;stroke-linejoin:miter;stroke:gray;stroke-opacity:1;stroke-miterlimit:10" d="M3.247 42.35H-13.76" transform="matrix(1 0 0 -1 51.464 85.862)"/><path style="fill:none;stroke-width:.3985;stroke-linecap:butt;stroke-linejoin:miter;stroke:#000;stroke-opacity:1;stroke-miterlimit:10" d="m-13.76 42.35-5.254 16.176" transform="matrix(1 0 0 -1 51.464 85.862)"/><g style="fill:#000;fill-opacity:1"><use xlink:href="#t" x="29.73" y="18.877"/><use xlink:href="#v" x="34.365" y="15.51"/></g><path style="fill:none;stroke-width:.3985;stroke-linecap:butt;stroke-linejoin:miter;stroke:#000;stroke-opacity:1;stroke-miterlimit:10" d="M-27.518 84.698h17.008M-10.51 84.698l5.254-16.176" transform="matrix(1 0 0 -1 51.464 85.862)"/><path style="fill:none;stroke-width:.19925;stroke-linecap:butt;stroke-linejoin:miter;stroke:gray;stroke-opacity:1;stroke-miterlimit:10" d="m-5.256 68.522-13.758-9.996" transform="matrix(1 0 0 -1 51.464 85.862)"/><path style="fill:none;stroke-width:.3985;stroke-linecap:butt;stroke-linejoin:miter;stroke:#000;stroke-opacity:1;stroke-miterlimit:10" d="m-19.014 58.526-13.762 9.996M-32.776 68.522l5.258 16.176M3.247 42.35l5.258-16.176" transform="matrix(1 0 0 -1 51.464 85.862)"/><path style="fill:none;stroke-width:.19925;stroke-linecap:butt;stroke-linejoin:miter;stroke:gray;stroke-opacity:1;stroke-miterlimit:10" d="m8.505 26.174-13.761-10" transform="matrix(1 0 0 -1 51.464 85.862)"/><path style="fill:none;stroke-width:.3985;stroke-linecap:butt;stroke-linejoin:miter;stroke:#000;stroke-opacity:1;stroke-miterlimit:10" d="m-5.256 16.174-13.758 10M-19.014 26.174l5.254 16.176" transform="matrix(1 0 0 -1 51.464 85.862)"/></svg>