<svg xmlns="http://www.w3.org/2000/svg" xmlns:xlink="http://www.w3.org/1999/xlink" width="420.723" height="314.859" viewBox="0 0 315.542 236.144" version="1.2"><defs><symbol overflow="visible" id="b"><path style="stroke:none" d="M4.016 0v-.469H2.875v-5.906h1.14v-.469c-.406.032-1.39.032-1.843.032-.453 0-1.438 0-1.844-.032v.469h1.14v5.906H.329V0c.406-.031 1.39-.031 1.844-.031.453 0 1.437 0 1.844.031Zm0 0"/></symbol><symbol overflow="visible" id="c"><path style="stroke:none" d="M4.14-1.39c0-.438-.202-.782-.546-1.063-.39-.281-.719-.344-1.485-.485-.375-.062-1.015-.171-1.015-.64 0-.625.922-.625 1.11-.625.75 0 1.124.297 1.171.844.016.156.031.203.234.203.235 0 .235-.047.235-.281v-.797c0-.188 0-.282-.172-.282-.047 0-.063 0-.453.188-.266-.125-.61-.188-1-.188-.313 0-1.844 0-1.844 1.313 0 .39.203.656.406.828.39.344.781.406 1.547.547.36.062 1.094.187 1.094.781 0 .75-.906.75-1.125.75C1.234-.297.984-1.03.859-1.453c-.046-.14-.109-.14-.234-.14-.25 0-.25.062-.25.28v1.094c0 .188 0 .281.188.281.062 0 .078 0 .296-.156l.25-.172c.47.329.985.329 1.188.329.312 0 1.844 0 1.844-1.454Zm0 0"/></symbol><symbol overflow="visible" id="d"><path style="stroke:none" d="M5.406-2.172c0-1.344-.922-2.344-2.547-2.344C1.22-4.516.313-3.5.313-2.172c0 1.235.89 2.235 2.546 2.235 1.672 0 2.547-1.016 2.547-2.235Zm-1.281-.11c0 .86 0 1.938-1.266 1.938-1.265 0-1.265-1.078-1.265-1.937 0-.453 0-.953.172-1.297.187-.375.609-.578 1.093-.578.422 0 .844.156 1.063.5.203.344.203.89.203 1.375Zm0 0"/></symbol><symbol overflow="visible" id="e"><path style="stroke:none" d="M4.766-1.172c0-.14-.141-.14-.235-.14-.187 0-.187.03-.25.156-.25.625-.734.812-1.234.812-1.39 0-1.39-1.453-1.39-1.922 0-.562 0-1.843 1.28-1.843.36 0 .516.015.657.046a.618.618 0 0 0-.203.47c0 .437.343.624.609.624.313 0 .64-.219.64-.625 0-.86-1.156-.922-1.734-.922C1.11-4.516.375-3.375.375-2.219.375-.89 1.313.062 2.844.062c1.625 0 1.922-1.156 1.922-1.234Zm0 0"/></symbol><symbol overflow="visible" id="f"><path style="stroke:none" d="M4.922-1.172c0-.172-.188-.172-.234-.172-.172 0-.188.047-.25.203-.204.485-.782.797-1.422.797-1.407 0-1.422-1.328-1.422-1.828h3.015c.22 0 .313 0 .313-.265 0-.313-.063-1.047-.563-1.547-.359-.36-.89-.532-1.578-.532C1.187-4.516.312-3.484.312-2.25c0 1.344 1 2.313 2.61 2.313 1.578 0 2-1.063 2-1.235ZM3.984-2.5h-2.39c.015-.39.031-.813.234-1.14.266-.391.672-.516.953-.516 1.172 0 1.188 1.312 1.203 1.656Zm0 0"/></symbol><symbol overflow="visible" id="g"><path style="stroke:none" d="M2.922 0v-.469h-.688v-6.453L.47-6.844v.469c.625 0 .687 0 .687.39v5.516H.47V0l1.219-.031Zm0 0"/></symbol><symbol overflow="visible" id="h"><path style="stroke:none" d="m7.547-4.328-.203-2.406H.625L.422-4.328H.89c.093-1.125.187-1.938 1.625-1.938h.765v5.797H1.75V0c.547-.031 1.656-.031 2.234-.031.594 0 1.704 0 2.235.031v-.469H4.687v-5.797h.766c1.422 0 1.531.797 1.625 1.938Zm0 0"/></symbol><symbol overflow="visible" id="i"><path style="stroke:none" d="M4.406-3.672c0-.531-.531-.812-1.062-.812-.688 0-1.094.5-1.313 1.125v-1.125l-1.656.078v.468c.61 0 .688 0 .688.391v3.078H.375V0l1.25-.031C2-.031 2.641-.031 3 0v-.469h-.86v-1.75c0-.687.235-1.906 1.235-1.906 0 0-.188.172-.188.453 0 .406.329.61.61.61.297 0 .61-.204.61-.61Zm0 0"/></symbol><symbol overflow="visible" id="j"><path style="stroke:none" d="M2.844 0v-.469h-.61v-4.015L.5-4.406v.468c.594 0 .656 0 .656.391v3.078H.47V0l1.219-.031Zm-.469-6.047a.774.774 0 0 0-.781-.781.784.784 0 0 0-.782.781c0 .422.36.766.782.766a.77.77 0 0 0 .781-.766Zm0 0"/></symbol><symbol overflow="visible" id="k"><path style="stroke:none" d="M5.516-.234c0-.235-.125-.235-.266-.235-.61-.015-.61-.14-.61-.375v-2.14c0-.891-.702-1.532-2.187-1.532-.562 0-1.781.047-1.781.922 0 .438.344.625.61.625.312 0 .624-.219.624-.625 0-.297-.187-.469-.218-.5a5.28 5.28 0 0 1 .718-.062c.75 0 1.11.422 1.11 1.172v.343c-.72.032-3.25.125-3.25 1.563C.266-.125 1.5.062 2.187.062c.797 0 1.266-.406 1.485-.828 0 .313 0 .766 1.047.766h.468c.204 0 .329 0 .329-.234Zm-2-1.157c0 .97-.922 1.094-1.172 1.094-.516 0-.906-.344-.906-.797 0-1.062 1.578-1.203 2.078-1.234Zm0 0"/></symbol><symbol overflow="visible" id="l"><path style="stroke:none" d="M6.125 0v-.469h-.688v-2.578c0-1.047-.53-1.437-1.53-1.437-.954 0-1.485.562-1.75 1.078v-1.078l-1.704.078v.468c.61 0 .688 0 .688.391v3.078H.453V0l1.25-.031L2.953 0v-.469h-.687v-2.078c0-1.094.859-1.578 1.5-1.578.328 0 .546.203.546.969V-.47h-.687V0l1.25-.031Zm0 0"/></symbol><symbol overflow="visible" id="m"><path style="stroke:none" d="M5.563-3.953c0-.235-.172-.578-.625-.578-.157 0-.625.031-1.063.375-.172-.125-.594-.328-1.328-.328-1.438 0-1.985.78-1.985 1.468 0 .407.188.829.516 1.047-.281.36-.344.688-.344.89 0 .157.047.641.438.954-.125.031-.86.25-.86.875C.313 1.25.875 2 2.86 2 4.625 2 5.406 1.422 5.406.719c0-.297-.078-.922-.75-1.266-.562-.281-1.156-.281-2.11-.281-.265 0-.718 0-.765-.016a.625.625 0 0 1-.562-.625c0-.093.047-.25.11-.328.452.234.968.266 1.218.266 1.437 0 1.984-.782 1.984-1.485 0-.468-.25-.796-.406-.953.297-.156.516-.172.625-.187a.433.433 0 0 0-.047.203c0 .25.172.422.438.422a.41.41 0 0 0 .421-.422Zm-2.141.937c0 .454 0 1.125-.875 1.125s-.875-.671-.875-1.125c0-.437 0-1.109.875-1.109s.875.672.875 1.11ZM4.547.75c0 .36-.39.89-1.688.89-1.187 0-1.687-.452-1.687-.906 0-.609.625-.609.766-.609h1.171c.313 0 1.438 0 1.438.625Zm0 0"/></symbol><symbol overflow="visible" id="n"><path style="stroke:none" d="M3.078.313c0-.126-.047-.157-.187-.25C2.062-.5 1.75-1.391 1.75-2.126c0-.672.25-1.594 1.156-2.203.125-.094.172-.125.172-.25a.254.254 0 0 0-.265-.25c-.204 0-1.641.906-1.641 2.703 0 .813.312 1.438.562 1.781.375.516.907.906 1.079.906.218 0 .265-.171.265-.25Zm0 0"/></symbol><symbol overflow="visible" id="o"><path style="stroke:none" d="M3.219-.906c0-.735-.906-.906-1.14-.938l-.704-.125C1.187-2 1-2.079 1-2.25c0-.156.219-.328.813-.328.515 0 .609.172.625.328.015.14.03.281.28.281.298 0 .298-.156.298-.328v-.469c0-.14-.016-.328-.25-.328-.157 0-.22.063-.25.125-.282-.125-.563-.125-.688-.125-1.187 0-1.344.594-1.344.844 0 .656.735.797 1.391.89.297.063.828.141.828.454 0 .234-.25.422-.828.422-.297 0-.656-.063-.813-.563-.03-.156-.078-.234-.28-.234-.298 0-.298.172-.298.328v.656c0 .14 0 .344.25.344.079 0 .188 0 .282-.234.328.218.671.234.859.234 1.125 0 1.344-.61 1.344-.953Zm0 0"/></symbol><symbol overflow="visible" id="p"><path style="stroke:none" d="M2.313-.469a.477.477 0 0 0-.485-.484.47.47 0 0 0-.469.469c0 .28.22.484.47.484a.473.473 0 0 0 .484-.469Zm0 0"/></symbol><symbol overflow="visible" id="q"><path style="stroke:none" d="M3.625-.266c0-.25-.203-.25-.328-.25-.203 0-.297-.03-.344-.046V-2c0-.5-.375-1.094-1.406-1.094-.313 0-1.031.016-1.031.547 0 .235.171.36.359.36.11 0 .344-.063.344-.36 0 0 .234-.031.343-.031.454 0 .782.187.813.594-1.219.03-2.047.39-2.047 1.062 0 .485.453.969 1.188.969.234 0 .656-.047.968-.25.172.187.485.203.75.203.235 0 .391-.016.391-.266ZM2.359-.969c0 .14 0 .266-.234.375-.234.11-.516.11-.578.11-.39 0-.64-.204-.64-.438 0-.312.546-.515 1.452-.562Zm0 0"/></symbol><symbol overflow="visible" id="r"><path style="stroke:none" d="M3.422-1.516c0-.875-.64-1.562-1.39-1.562-.298 0-.579.11-.813.281 0-.172-.063-.234-.313-.234h-.5c-.14 0-.344 0-.344.25 0 .265.22.265.329.265h.25v3.5H.406c-.14 0-.344 0-.344.266 0 .25.22.25.329.25h1.093c.11 0 .329 0 .329-.25 0-.266-.204-.266-.344-.266h-.25V-.234c.265.234.531.28.734.28.766 0 1.469-.671 1.469-1.562Zm-.578 0c0 .61-.453 1.032-.906 1.032-.485 0-.704-.563-.704-.875v-.485c0-.375.375-.703.766-.703.469 0 .844.469.844 1.031Zm0 0"/></symbol><symbol overflow="visible" id="s"><path style="stroke:none" d="M3.25-.797c0-.234-.234-.234-.281-.234-.156 0-.219.015-.281.172-.141.328-.485.375-.657.375-.469 0-.937-.297-1.062-.813h1.953c.172 0 .328 0 .328-.312 0-.797-.453-1.485-1.375-1.485-.828 0-1.516.703-1.516 1.563S1.08.047 1.984.047c.938 0 1.266-.656 1.266-.844Zm-.594-1.015H.97c.125-.438.484-.766.906-.766.328 0 .703.156.781.765Zm0 0"/></symbol><symbol overflow="visible" id="t"><path style="stroke:none" d="M3.469-.266c0-.25-.203-.25-.328-.25h-.25l-.829-1.046.735-.954h.234c.125 0 .344 0 .344-.265 0-.25-.219-.25-.344-.25H2.25c-.125 0-.328 0-.328.25 0 .203.11.265.281.265l-.39.547-.422-.547c.156 0 .28-.062.28-.265 0-.25-.202-.25-.327-.25H.547c-.125 0-.328 0-.328.25 0 .265.218.265.328.265h.25l.75.954L.75-.516H.516c-.125 0-.344 0-.344.25C.172 0 .39 0 .516 0h.78c.126 0 .329 0 .329-.266 0-.203-.11-.25-.297-.25l.484-.703.5.703c-.187 0-.296.047-.296.25 0 .266.203.266.328.266h.797c.109 0 .328 0 .328-.266Zm0 0"/></symbol><symbol overflow="visible" id="u"><path style="stroke:none" d="M2.484-2.125c0-.828-.312-1.453-.562-1.797-.375-.515-.906-.906-1.078-.906-.203 0-.266.187-.266.25 0 .125.094.187.14.219 1.095.718 1.188 1.796 1.188 2.234 0 .656-.25 1.578-1.14 2.188C.64.14.578.186.578.313c0 .078.063.25.266.25s1.64-.907 1.64-2.688Zm0 0"/></symbol><symbol overflow="visible" id="v"><path style="stroke:none" d="M3.281-.266c0-.25-.203-.25-.328-.25h-.828v-3.406c0-.25-.063-.344-.328-.344H.719C.579-4.266.39-4.25.39-4s.203.266.312.266h.844v3.218H.719c-.14 0-.328 0-.328.25C.39 0 .594 0 .703 0h2.25c.125 0 .328 0 .328-.266Zm0 0"/></symbol><symbol overflow="visible" id="w"><path style="stroke:none" d="M3.063-3.844c0-.437-.579-.453-.704-.453-.578 0-1.125.328-1.125.953v.313H.61c-.125 0-.328 0-.328.25 0 .265.203.265.328.265h.625v2H.61c-.125 0-.343 0-.343.25C.266 0 .484 0 .609 0h1.844c.125 0 .328 0 .328-.266 0-.25-.203-.25-.328-.25h-.64v-2h.78c.11 0 .313 0 .313-.265 0-.25-.187-.25-.312-.25h-.781v-.266c0-.453.359-.484.562-.484.031.11.125.297.344.297a.35.35 0 0 0 .344-.36Zm0 0"/></symbol><symbol overflow="visible" id="x"><path style="stroke:none" d="M3.14-.906c0-.156 0-.313-.296-.313-.266 0-.266.157-.266.297-.015.375-.36.438-.515.438-.454 0-.454-.313-.454-.47v-1.562h1.047c.125 0 .328 0 .328-.265 0-.25-.187-.25-.328-.25H1.61v-.516c0-.14-.015-.328-.296-.328-.282 0-.282.172-.282.328v.516H.484c-.125 0-.328 0-.328.25 0 .265.203.265.328.265h.547v1.61c0 .687.485.953 1.016.953S3.14-.266 3.14-.906Zm0 0"/></symbol><symbol overflow="visible" id="y"><path style="stroke:none" d="M3.266-.797c0-.234-.235-.234-.297-.234-.125 0-.203 0-.266.172-.047.078-.187.375-.625.375a1.027 1.027 0 0 1-1.015-1.032c0-.312.187-1.062 1.062-1.062l.344.015c.015.282.172.376.36.376.187 0 .358-.126.358-.36 0-.531-.734-.547-1.062-.547-1.219 0-1.64.953-1.64 1.578 0 .844.671 1.563 1.546 1.563 1 0 1.235-.719 1.235-.844Zm0 0"/></symbol><symbol overflow="visible" id="z"><path style="stroke:none" d="M3.281-1.516c0-.89-.672-1.578-1.453-1.578-.797 0-1.453.688-1.453 1.578 0 .891.672 1.563 1.453 1.563.766 0 1.453-.688 1.453-1.563Zm-.578-.046c0 .593-.406 1.078-.875 1.078S.953-.97.953-1.563c0-.593.422-1.015.875-1.015s.875.422.875 1.015Zm0 0"/></symbol><symbol overflow="visible" id="A"><path style="stroke:none" d="M3.406-2.594c0-.156-.078-.484-.703-.484-.328 0-.734.11-1.094.469v-.094c0-.25-.046-.328-.328-.328h-.75c-.125 0-.328 0-.328.25 0 .265.203.265.328.265h.5v2h-.5c-.125 0-.328 0-.328.25C.203 0 .406 0 .531 0h1.781c.126 0 .329 0 .329-.266 0-.25-.204-.25-.329-.25H1.61v-.796c0-.61.36-1.22 1.11-1.235 0 .156.172.281.344.281.187 0 .343-.125.343-.328Zm0 0"/></symbol><symbol overflow="visible" id="B"><path style="stroke:none" d="M3.578-.266c0-.25-.203-.25-.328-.25H3v-1.53c0-.72-.36-1.032-.938-1.032-.39 0-.671.172-.843.297 0-.172-.047-.25-.313-.25h-.5c-.14 0-.328 0-.328.25 0 .265.203.265.313.265h.25v2H.406c-.14 0-.328 0-.328.25C.078 0 .281 0 .391 0h1.093c.11 0 .329 0 .329-.266 0-.25-.204-.25-.344-.25h-.25v-1.156c0-.64.484-.875.797-.875.328 0 .406.172.406.547v1.484h-.203c-.14 0-.344 0-.344.25 0 .266.219.266.344.266H3.25c.11 0 .328 0 .328-.266Zm0 0"/></symbol><symbol overflow="visible" id="D"><path style="stroke:none" d="M3.188-.266c0-.25-.204-.25-.329-.25h-.656v-2.187c0-.25-.047-.328-.328-.328H.906c-.125 0-.328 0-.328.25 0 .265.203.265.328.265h.719v2H.859c-.14 0-.343 0-.343.25C.516 0 .734 0 .859 0h2c.125 0 .329 0 .329-.266Zm-.954-3.562a.39.39 0 0 0-.406-.39.387.387 0 0 0-.39.39c0 .219.171.39.39.39a.39.39 0 0 0 .406-.39Zm0 0"/></symbol><symbol overflow="visible" id="E"><path style="stroke:none" d="M3.563-2.688c0-.171-.141-.421-.547-.421a1.48 1.48 0 0 0-.735.218 1.214 1.214 0 0 0-.656-.187c-.656 0-1.172.531-1.172 1.14 0 .282.11.516.203.641a.981.981 0 0 0-.125.469c0 .219.078.375.14.469C.188-.031.188.42.188.5c0 .61.735 1.047 1.641 1.047S3.468 1.094 3.468.5a.973.973 0 0 0-.5-.828c-.093-.047-.39-.188-1.015-.188h-.469c-.125 0-.28.032-.39-.093-.063-.079-.063-.22-.063-.22 0-.015 0-.062.016-.109.11.063.328.157.578.157.656 0 1.188-.516 1.188-1.156 0-.188-.063-.391-.172-.563a.77.77 0 0 1 .28-.078.344.344 0 0 0 .313.219c.141 0 .329-.094.329-.329Zm-1.344.75c0 .36-.266.641-.594.641-.328 0-.594-.297-.594-.64 0-.344.266-.625.594-.625.328 0 .594.296.594.624ZM2.969.5c0 .281-.5.531-1.14.531C1.187 1.031.687.781.687.5.688.39.75.187.953.062c.14-.093.203-.093.688-.093.578 0 1.328 0 1.328.531Zm0 0"/></symbol><symbol overflow="visible" id="F"><path style="stroke:none" d="M3.578-.266c0-.25-.203-.25-.328-.25H3v-1.53c0-.72-.36-1.032-.938-1.032-.39 0-.671.172-.843.297v-1.14c0-.25-.047-.345-.313-.345h-.5c-.14 0-.328.016-.328.266s.203.266.313.266h.25v3.218H.406c-.14 0-.328 0-.328.25C.078 0 .281 0 .391 0h1.093c.11 0 .329 0 .329-.266 0-.25-.204-.25-.344-.25h-.25v-1.156c0-.64.484-.875.797-.875.328 0 .406.172.406.547v1.484h-.203c-.14 0-.344 0-.344.25 0 .266.219.266.344.266H3.25c.11 0 .328 0 .328-.266Zm0 0"/></symbol><symbol overflow="visible" id="G"><path style="stroke:none" d="M3.578-.266c0-.25-.203-.25-.328-.25H3v-3.406c0-.25-.047-.344-.328-.344h-.485c-.14 0-.343.016-.343.266s.218.266.328.266h.25v.906a1.261 1.261 0 0 0-.735-.25c-.765 0-1.453.672-1.453 1.562C.234-.64.875.047 1.625.047c.344 0 .61-.14.797-.313.015.188.062.266.328.266h.5c.125 0 .328 0 .328-.266ZM2.422-1.375c0 .36-.297.89-.781.89-.454 0-.829-.453-.829-1.03 0-.61.438-1.032.891-1.032.406 0 .719.344.719.688Zm0 0"/></symbol><symbol overflow="visible" id="H"><path style="stroke:none" d="M3.547-2.781c0-.25-.188-.25-.328-.25h-.781c-.157 0-.344 0-.344.25 0 .265.172.265.344.265h.265l-.297 1.72-.14-.532c-.125-.469-.172-.547-.422-.547-.094 0-.235 0-.328.188l-.266.906-.297-1.735h.266c.156 0 .343 0 .343-.265 0-.25-.187-.25-.343-.25H.437c-.14 0-.343 0-.343.25 0 .234.14.265.36.265L.858-.28c.032.187.047.312.36.312.312 0 .343-.062.453-.515l.172-.641.265 1c.094.14.235.156.344.156.281 0 .313-.125.344-.312l.406-2.235c.219 0 .344-.03.344-.265Zm0 0"/></symbol><symbol overflow="visible" id="I"><path style="stroke:none" d="M3.094-.266c0-.25-.188-.25-.313-.25H2.22V-4c0-.125-.016-.328-.266-.328-.156 0-.219.094-.25.187-.234.547-.578.625-.687.641-.141 0-.313.031-.313.266 0 .203.156.25.281.25.125 0 .375-.032.657-.235v2.703h-.563c-.14 0-.328 0-.328.25C.75 0 .953 0 1.078 0h1.703c.125 0 .313 0 .313-.266Zm0 0"/></symbol><symbol overflow="visible" id="J"><path style="stroke:none" d="M3.297-1.344c0-.718-.531-1.406-1.36-1.406-.234 0-.515.047-.78.172v-1.156H2.75c.11 0 .313-.016.313-.266s-.188-.266-.313-.266H.906c-.265 0-.312.079-.312.344v1.797c0 .156 0 .344.265.344.157 0 .188-.047.25-.125.172-.203.438-.328.813-.328.531 0 .812.484.812.89 0 .516-.468.89-1 .89-.171 0-.562-.046-.75-.358.032-.047.079-.11.079-.22a.367.367 0 0 0-.36-.374c-.125 0-.36.078-.36.39C.344-.437.939.078 1.735.078c.875 0 1.563-.64 1.563-1.422Zm0 0"/></symbol><symbol overflow="visible" id="K"><path style="stroke:none" d="M3.313-2.125c0-1.297-.72-2.203-1.485-2.203-.781 0-1.5.922-1.5 2.203 0 1.297.734 2.203 1.5 2.203.781 0 1.484-.922 1.484-2.203Zm-.563-.078c0 .969-.422 1.75-.922 1.75-.516 0-.922-.781-.922-1.75 0-.953.438-1.61.922-1.61.469 0 .922.657.922 1.61Zm0 0"/></symbol><symbol overflow="visible" id="L"><path style="stroke:none" d="M3.64-.266c0-.218-.14-.25-.39-.25v-1.593c0-.157-.016-.97-.656-.97a.842.842 0 0 0-.656.313.61.61 0 0 0-.532-.312.875.875 0 0 0-.547.203c-.046-.156-.187-.156-.312-.156H.328c-.125 0-.328 0-.328.25 0 .234.125.265.39.265v2c-.265 0-.39.032-.39.25C0 0 .219 0 .328 0h.594c.125 0 .312 0 .312-.266 0-.218-.109-.25-.359-.25v-1.171c0-.563.234-.86.5-.86.14 0 .203.11.203.5v1.531c-.156 0-.281.032-.281.25 0 .266.187.266.312.266h.516c.125 0 .313 0 .313-.266 0-.218-.126-.25-.376-.25v-1.171c0-.563.25-.86.5-.86.141 0 .204.11.204.5v1.531c-.141 0-.282.032-.282.25 0 .266.204.266.313.266h.5c.125 0 .344 0 .344-.266Zm0 0"/></symbol><symbol overflow="visible" id="M"><path style="stroke:none" d="M3.422-1.516c0-.875-.64-1.562-1.39-1.562-.298 0-.579.11-.813.265v-1.109c0-.25-.047-.344-.313-.344h-.5c-.14 0-.344.016-.344.266s.22.266.329.266h.25v3.406C.64-.172.656 0 .937 0c.22 0 .282-.094.282-.234.265.218.531.28.734.28.766 0 1.469-.671 1.469-1.562Zm-.578 0c0 .61-.453 1.032-.906 1.032-.485 0-.704-.563-.704-.875v-.485c0-.375.375-.703.766-.703.469 0 .844.469.844 1.031Zm0 0"/></symbol><symbol overflow="visible" id="N"><path style="stroke:none" d="M3.578-.266c0-.25-.219-.25-.328-.25H3v-2.187c0-.25-.047-.328-.328-.328h-.485c-.14 0-.343 0-.343.25 0 .265.218.265.328.265h.25v1.391c0 .563-.516.64-.719.64-.469 0-.484-.187-.484-.39v-1.828c0-.25-.047-.328-.313-.328h-.5c-.14 0-.328 0-.328.25 0 .265.203.265.313.265h.25v1.688c0 .687.5.875 1.03.875.266 0 .516-.063.766-.219C2.485 0 2.626 0 2.75 0h.5c.125 0 .328 0 .328-.266Zm0 0"/></symbol><clipPath id="a"><path d="M0 0h315.313v235.715H0Zm0 0"/></clipPath><clipPath id="C"><path d="M18 224h15v11.715H18Zm0 0"/></clipPath></defs><path style="stroke:none;fill-rule:nonzero;fill:#fffbb3;fill-opacity:1" d="M282.324 117.39 32.328 13.845v207.094Zm0 0"/><g clip-path="url(#a)"><path style="fill:none;stroke-width:14.17339;stroke-linecap:butt;stroke-linejoin:miter;stroke:#b2b2b2;stroke-opacity:1;stroke-miterlimit:10" d="M177.536-.002-72.46 103.545v-207.094Zm0 0" transform="matrix(1 0 0 -1 104.788 117.389)"/></g><g style="fill:#b2b2b2;fill-opacity:1"><use xlink:href="#b" x="60.673" y="144.734"/><use xlink:href="#c" x="65.017" y="144.734"/><use xlink:href="#d" x="69.54" y="144.734"/><use xlink:href="#c" x="75.268" y="144.734"/><use xlink:href="#e" x="79.791" y="144.734"/><use xlink:href="#f" x="84.882" y="144.734"/><use xlink:href="#g" x="90.133" y="144.734"/><use xlink:href="#f" x="93.311" y="144.734"/><use xlink:href="#c" x="98.561" y="144.734"/></g><use xlink:href="#h" x="106.9" y="144.734" style="fill:#b2b2b2;fill-opacity:1"/><g style="fill:#b2b2b2;fill-opacity:1"><use xlink:href="#i" x="113.913" y="144.734"/><use xlink:href="#j" x="118.636" y="144.734"/><use xlink:href="#k" x="121.814" y="144.734"/><use xlink:href="#l" x="127.383" y="144.734"/><use xlink:href="#m" x="133.749" y="144.734"/><use xlink:href="#g" x="139.477" y="144.734"/><use xlink:href="#f" x="142.656" y="144.734"/></g><path style="fill:none;stroke-width:.996;stroke-linecap:butt;stroke-linejoin:miter;stroke:#b2b2b2;stroke-opacity:1;stroke-miterlimit:10" d="M-.002.002v58.695" transform="matrix(1 0 0 -1 148.404 146.736)"/><path style="fill:none;stroke-width:.3985;stroke-linecap:butt;stroke-linejoin:miter;stroke:#000;stroke-opacity:1;stroke-miterlimit:10" d="m194.65-1.408 2.816 2.817m-2.817 0 2.817-2.817" transform="matrix(1 0 0 -1 104.788 117.389)"/><g style="fill:#000;fill-opacity:1"><use xlink:href="#n" x="286.198" y="112.362"/><use xlink:href="#o" x="289.859" y="112.362"/><use xlink:href="#p" x="293.521" y="112.362"/><use xlink:href="#q" x="297.182" y="112.362"/><use xlink:href="#r" x="300.843" y="112.362"/><use xlink:href="#s" x="304.504" y="112.362"/><use xlink:href="#t" x="308.166" y="112.362"/><use xlink:href="#u" x="311.827" y="112.362"/></g><path style="fill:none;stroke-width:.3985;stroke-linecap:butt;stroke-linejoin:miter;stroke:#000;stroke-opacity:1;stroke-miterlimit:10" d="m-80.956 112.744 2.816 2.817m-2.816 0 2.816-2.817" transform="matrix(1 0 0 -1 104.788 117.389)"/><g style="fill:#000;fill-opacity:1"><use xlink:href="#n" x="28.762" y="5.37"/><use xlink:href="#o" x="32.423" y="5.37"/><use xlink:href="#p" x="36.085" y="5.37"/><use xlink:href="#v" x="39.746" y="5.37"/><use xlink:href="#s" x="43.407" y="5.37"/><use xlink:href="#w" x="47.068" y="5.37"/><use xlink:href="#x" x="50.73" y="5.37"/></g><g style="fill:#000;fill-opacity:1"><use xlink:href="#y" x="58.052" y="5.37"/><use xlink:href="#z" x="61.713" y="5.37"/><use xlink:href="#A" x="65.375" y="5.37"/><use xlink:href="#B" x="69.036" y="5.37"/><use xlink:href="#s" x="72.697" y="5.37"/><use xlink:href="#A" x="76.359" y="5.37"/><use xlink:href="#u" x="80.02" y="5.37"/></g><g clip-path="url(#C)"><path style="fill:none;stroke-width:.3985;stroke-linecap:butt;stroke-linejoin:miter;stroke:#000;stroke-opacity:1;stroke-miterlimit:10" d="m-80.956-115.564 2.816 2.82m-2.816 0 2.816-2.82" transform="matrix(1 0 0 -1 104.788 117.389)"/></g><g style="fill:#000;fill-opacity:1"><use xlink:href="#n" x="28.762" y="233.176"/><use xlink:href="#o" x="32.423" y="233.176"/><use xlink:href="#p" x="36.085" y="233.176"/><use xlink:href="#A" x="39.746" y="233.176"/><use xlink:href="#D" x="43.407" y="233.176"/><use xlink:href="#E" x="47.068" y="233.176"/><use xlink:href="#F" x="50.73" y="233.176"/><use xlink:href="#x" x="54.391" y="233.176"/></g><g style="fill:#000;fill-opacity:1"><use xlink:href="#y" x="61.713" y="233.176"/><use xlink:href="#z" x="65.375" y="233.176"/><use xlink:href="#A" x="69.036" y="233.176"/><use xlink:href="#B" x="72.697" y="233.176"/><use xlink:href="#s" x="76.359" y="233.176"/><use xlink:href="#A" x="80.02" y="233.176"/><use xlink:href="#u" x="83.681" y="233.176"/></g><path style="fill:none;stroke-width:.3985;stroke-linecap:butt;stroke-linejoin:miter;stroke:#000;stroke-opacity:1;stroke-miterlimit:10" d="m56.845 55.666 2.82 2.82m-2.82 0 2.82-2.82" transform="matrix(1 0 0 -1 104.788 117.389)"/><g style="fill:#000;fill-opacity:1"><use xlink:href="#n" x="139.244" y="56.235"/><use xlink:href="#o" x="142.905" y="56.235"/><use xlink:href="#p" x="146.567" y="56.235"/><use xlink:href="#v" x="150.228" y="56.235"/><use xlink:href="#s" x="153.889" y="56.235"/><use xlink:href="#w" x="157.55" y="56.235"/><use xlink:href="#x" x="161.212" y="56.235"/></g><g style="fill:#000;fill-opacity:1"><use xlink:href="#o" x="168.534" y="56.235"/><use xlink:href="#D" x="172.195" y="56.235"/><use xlink:href="#G" x="175.857" y="56.235"/><use xlink:href="#s" x="179.518" y="56.235"/><use xlink:href="#u" x="183.179" y="56.235"/></g><path style="fill:none;stroke-width:.3985;stroke-linecap:butt;stroke-linejoin:miter;stroke:#000;stroke-opacity:1;stroke-miterlimit:10" d="m56.845-58.486 2.82 2.816m-2.82 0 2.82-2.816" transform="matrix(1 0 0 -1 104.788 117.389)"/><g style="fill:#000;fill-opacity:1"><use xlink:href="#n" x="137.414" y="182.81"/><use xlink:href="#o" x="141.075" y="182.81"/><use xlink:href="#p" x="144.737" y="182.81"/><use xlink:href="#A" x="148.398" y="182.81"/><use xlink:href="#D" x="152.059" y="182.81"/><use xlink:href="#E" x="155.72" y="182.81"/><use xlink:href="#F" x="159.382" y="182.81"/><use xlink:href="#x" x="163.043" y="182.81"/></g><g style="fill:#000;fill-opacity:1"><use xlink:href="#o" x="170.365" y="182.81"/><use xlink:href="#D" x="174.027" y="182.81"/><use xlink:href="#G" x="177.688" y="182.81"/><use xlink:href="#s" x="181.349" y="182.81"/><use xlink:href="#u" x="185.011" y="182.81"/></g><path style="fill:none;stroke-width:.3985;stroke-linecap:butt;stroke-linejoin:miter;stroke:#000;stroke-opacity:1;stroke-miterlimit:10" d="m-80.956-1.408 2.816 2.817m-2.816 0 2.816-2.817" transform="matrix(1 0 0 -1 104.788 117.389)"/><g style="fill:#000;fill-opacity:1"><use xlink:href="#n" x="28.762" y="119.523"/><use xlink:href="#o" x="32.423" y="119.523"/><use xlink:href="#p" x="36.085" y="119.523"/><use xlink:href="#v" x="39.746" y="119.523"/><use xlink:href="#z" x="43.407" y="119.523"/><use xlink:href="#H" x="47.068" y="119.523"/><use xlink:href="#s" x="50.73" y="119.523"/><use xlink:href="#A" x="54.391" y="119.523"/></g><g style="fill:#000;fill-opacity:1"><use xlink:href="#o" x="61.713" y="119.523"/><use xlink:href="#D" x="65.375" y="119.523"/><use xlink:href="#G" x="69.036" y="119.523"/><use xlink:href="#s" x="72.697" y="119.523"/><use xlink:href="#u" x="76.359" y="119.523"/></g><path style="fill:none;stroke-width:.3985;stroke-linecap:butt;stroke-linejoin:miter;stroke:#000;stroke-opacity:1;stroke-miterlimit:10" d="M-1.41-1.408 1.408 1.41m-2.816 0 2.816-2.817" transform="matrix(1 0 0 -1 104.788 117.389)"/><g style="fill:#000;fill-opacity:1"><use xlink:href="#n" x="86.482" y="113.311"/><use xlink:href="#o" x="90.143" y="113.311"/><use xlink:href="#p" x="93.805" y="113.311"/><use xlink:href="#y" x="97.466" y="113.311"/><use xlink:href="#s" x="101.127" y="113.311"/><use xlink:href="#B" x="104.788" y="113.311"/><use xlink:href="#x" x="108.45" y="113.311"/><use xlink:href="#s" x="112.111" y="113.311"/><use xlink:href="#A" x="115.772" y="113.311"/><use xlink:href="#u" x="119.433" y="113.311"/></g><path style="fill:none;stroke-width:.3985;stroke-linecap:butt;stroke-linejoin:miter;stroke:#000;stroke-opacity:1;stroke-miterlimit:10" d="m-45.522-28.756 2.816 2.82m-2.816 0 2.816-2.82" transform="matrix(1 0 0 -1 104.788 117.389)"/><g style="fill:#000;fill-opacity:1"><use xlink:href="#n" x="64.193" y="146.868"/><use xlink:href="#o" x="67.854" y="146.868"/><use xlink:href="#p" x="71.516" y="146.868"/><use xlink:href="#x" x="75.177" y="146.868"/><use xlink:href="#s" x="78.838" y="146.868"/><use xlink:href="#t" x="82.499" y="146.868"/><use xlink:href="#x" x="86.161" y="146.868"/><use xlink:href="#u" x="89.822" y="146.868"/></g><path style="fill:none;stroke-width:.3985;stroke-linecap:butt;stroke-linejoin:miter;stroke:#000;stroke-opacity:1;stroke-miterlimit:10" d="m-80.956 44.518 2.816 2.816m-2.816 0 2.816-2.816" transform="matrix(1 0 0 -1 104.788 117.389)"/><g style="fill:#000;fill-opacity:1"><use xlink:href="#n" x="12.427" y="67.384"/><use xlink:href="#o" x="16.088" y="67.384"/><use xlink:href="#p" x="19.75" y="67.384"/><use xlink:href="#I" x="23.411" y="67.384"/><use xlink:href="#J" x="27.072" y="67.384"/><use xlink:href="#K" x="30.733" y="67.384"/><use xlink:href="#u" x="34.395" y="67.384"/></g><path style="fill:none;stroke-width:.3985;stroke-linecap:butt;stroke-linejoin:miter;stroke:#000;stroke-opacity:1;stroke-miterlimit:10" d="m-1.41-26.545 2.817 2.82m-2.816 0 2.816-2.82" transform="matrix(1 0 0 -1 104.788 117.389)"/><g style="fill:#000;fill-opacity:1"><use xlink:href="#n" x="108.308" y="144.656"/><use xlink:href="#o" x="111.969" y="144.656"/><use xlink:href="#p" x="115.631" y="144.656"/><use xlink:href="#L" x="119.292" y="144.656"/><use xlink:href="#D" x="122.953" y="144.656"/><use xlink:href="#G" x="126.614" y="144.656"/><use xlink:href="#u" x="130.276" y="144.656"/></g><path style="fill:none;stroke-width:.3985;stroke-linecap:butt;stroke-linejoin:miter;stroke:#000;stroke-opacity:1;stroke-miterlimit:10" d="m-80.964-26.54 2.817 2.816m-2.817 0 2.817-2.817" transform="matrix(1 0 0 -1 104.788 117.389)"/><g style="fill:#000;fill-opacity:1"><use xlink:href="#n" x="3.266" y="138.444"/><use xlink:href="#o" x="6.927" y="138.444"/><use xlink:href="#p" x="10.589" y="138.444"/><use xlink:href="#L" x="14.25" y="138.444"/><use xlink:href="#D" x="17.911" y="138.444"/><use xlink:href="#G" x="21.572" y="138.444"/></g><g style="fill:#000;fill-opacity:1"><use xlink:href="#H" x="28.895" y="138.444"/><use xlink:href="#s" x="32.556" y="138.444"/><use xlink:href="#o" x="36.217" y="138.444"/><use xlink:href="#x" x="39.879" y="138.444"/><use xlink:href="#u" x="43.54" y="138.444"/></g><path style="fill:none;stroke-width:.3985;stroke-linecap:butt;stroke-linejoin:miter;stroke:#000;stroke-opacity:1;stroke-miterlimit:10" d="m133.97-26.545 2.816 2.82m-2.816 0 2.816-2.82" transform="matrix(1 0 0 -1 104.788 117.389)"/><g style="fill:#000;fill-opacity:1"><use xlink:href="#n" x="243.683" y="144.656"/><use xlink:href="#o" x="247.344" y="144.656"/><use xlink:href="#p" x="251.006" y="144.656"/><use xlink:href="#L" x="254.667" y="144.656"/><use xlink:href="#D" x="258.328" y="144.656"/><use xlink:href="#G" x="261.989" y="144.656"/></g><g style="fill:#000;fill-opacity:1"><use xlink:href="#s" x="269.312" y="144.656"/><use xlink:href="#q" x="272.973" y="144.656"/><use xlink:href="#o" x="276.634" y="144.656"/><use xlink:href="#x" x="280.296" y="144.656"/><use xlink:href="#u" x="283.957" y="144.656"/></g><path style="fill:none;stroke-width:.3985;stroke-linecap:butt;stroke-linejoin:miter;stroke:#000;stroke-opacity:1;stroke-miterlimit:10" d="m-1.41-28.756 2.817 2.82m-2.816 0 2.816-2.82" transform="matrix(1 0 0 -1 104.788 117.389)"/><g style="fill:#000;fill-opacity:1"><use xlink:href="#n" x="90.143" y="153.079"/><use xlink:href="#o" x="93.804" y="153.079"/><use xlink:href="#p" x="97.466" y="153.079"/><use xlink:href="#M" x="101.127" y="153.079"/><use xlink:href="#q" x="104.788" y="153.079"/><use xlink:href="#o" x="108.449" y="153.079"/><use xlink:href="#s" x="112.111" y="153.079"/><use xlink:href="#u" x="115.772" y="153.079"/></g><path style="fill:none;stroke-width:.3985;stroke-linecap:butt;stroke-linejoin:miter;stroke:#000;stroke-opacity:1;stroke-miterlimit:10" d="m-80.964-28.756 2.817 2.82m-2.817 0 2.817-2.82" transform="matrix(1 0 0 -1 104.788 117.389)"/><g style="fill:#000;fill-opacity:1"><use xlink:href="#n" x="1.436" y="153.079"/><use xlink:href="#o" x="5.097" y="153.079"/><use xlink:href="#p" x="8.759" y="153.079"/><use xlink:href="#M" x="12.42" y="153.079"/><use xlink:href="#q" x="16.081" y="153.079"/><use xlink:href="#o" x="19.742" y="153.079"/><use xlink:href="#s" x="23.404" y="153.079"/></g><g style="fill:#000;fill-opacity:1"><use xlink:href="#H" x="30.726" y="153.079"/><use xlink:href="#s" x="34.387" y="153.079"/><use xlink:href="#o" x="38.049" y="153.079"/><use xlink:href="#x" x="41.71" y="153.079"/><use xlink:href="#u" x="45.371" y="153.079"/></g><path style="fill:none;stroke-width:.3985;stroke-linecap:butt;stroke-linejoin:miter;stroke:#000;stroke-opacity:1;stroke-miterlimit:10" d="m128.626-28.756 2.82 2.82m-2.82 0 2.82-2.82" transform="matrix(1 0 0 -1 104.788 117.389)"/><g style="fill:#000;fill-opacity:1"><use xlink:href="#n" x="211.025" y="153.079"/><use xlink:href="#o" x="214.686" y="153.079"/><use xlink:href="#p" x="218.348" y="153.079"/><use xlink:href="#M" x="222.009" y="153.079"/><use xlink:href="#q" x="225.67" y="153.079"/><use xlink:href="#o" x="229.331" y="153.079"/><use xlink:href="#s" x="232.993" y="153.079"/></g><g style="fill:#000;fill-opacity:1"><use xlink:href="#s" x="240.315" y="153.079"/><use xlink:href="#q" x="243.976" y="153.079"/><use xlink:href="#o" x="247.638" y="153.079"/><use xlink:href="#x" x="251.299" y="153.079"/><use xlink:href="#u" x="254.96" y="153.079"/></g><path style="fill:none;stroke-width:.3985;stroke-linecap:butt;stroke-linejoin:miter;stroke:#000;stroke-opacity:1;stroke-miterlimit:10" d="m-80.964-1.404 2.817 2.82m-2.817 0 2.817-2.82" transform="matrix(1 0 0 -1 104.788 117.389)"/><g style="fill:#000;fill-opacity:1"><use xlink:href="#n" x="10.589" y="113.305"/><use xlink:href="#o" x="14.25" y="113.305"/><use xlink:href="#p" x="17.912" y="113.305"/><use xlink:href="#H" x="21.573" y="113.305"/><use xlink:href="#s" x="25.234" y="113.305"/><use xlink:href="#o" x="28.895" y="113.305"/><use xlink:href="#x" x="32.557" y="113.305"/><use xlink:href="#u" x="36.218" y="113.305"/></g><path style="fill:none;stroke-width:.3985;stroke-linecap:butt;stroke-linejoin:miter;stroke:#000;stroke-opacity:1;stroke-miterlimit:10" d="m194.653-1.408 2.817 2.817m-2.817 0 2.817-2.817" transform="matrix(1 0 0 -1 104.788 117.389)"/><g style="fill:#000;fill-opacity:1"><use xlink:href="#n" x="286.203" y="125.734"/><use xlink:href="#o" x="289.864" y="125.734"/><use xlink:href="#p" x="293.526" y="125.734"/><use xlink:href="#s" x="297.187" y="125.734"/><use xlink:href="#q" x="300.848" y="125.734"/><use xlink:href="#o" x="304.509" y="125.734"/><use xlink:href="#x" x="308.171" y="125.734"/><use xlink:href="#u" x="311.832" y="125.734"/></g><path style="fill:none;stroke-width:.3985;stroke-linecap:butt;stroke-linejoin:miter;stroke:#000;stroke-opacity:1;stroke-miterlimit:10" d="m-1.405 79.8 2.816 2.82m-2.816 0L1.41 79.8" transform="matrix(1 0 0 -1 104.788 117.389)"/><g style="fill:#000;fill-opacity:1"><use xlink:href="#n" x="88.314" y="44.527"/><use xlink:href="#o" x="91.975" y="44.527"/><use xlink:href="#p" x="95.637" y="44.527"/><use xlink:href="#B" x="99.298" y="44.527"/><use xlink:href="#z" x="102.959" y="44.527"/><use xlink:href="#A" x="106.62" y="44.527"/><use xlink:href="#x" x="110.282" y="44.527"/><use xlink:href="#F" x="113.943" y="44.527"/><use xlink:href="#u" x="117.604" y="44.527"/></g><path style="fill:none;stroke-width:.3985;stroke-linecap:butt;stroke-linejoin:miter;stroke:#000;stroke-opacity:1;stroke-miterlimit:10" d="m-1.405-82.619 2.816 2.817m-2.816 0L1.41-82.62" transform="matrix(1 0 0 -1 104.788 117.389)"/><g style="fill:#000;fill-opacity:1"><use xlink:href="#n" x="88.314" y="194.521"/><use xlink:href="#o" x="91.975" y="194.521"/><use xlink:href="#p" x="95.637" y="194.521"/><use xlink:href="#o" x="99.298" y="194.521"/><use xlink:href="#z" x="102.959" y="194.521"/><use xlink:href="#N" x="106.62" y="194.521"/><use xlink:href="#x" x="110.282" y="194.521"/><use xlink:href="#F" x="113.943" y="194.521"/><use xlink:href="#u" x="117.604" y="194.521"/></g><path style="fill:none;stroke-width:.3985;stroke-linecap:butt;stroke-linejoin:miter;stroke:#000;stroke-opacity:1;stroke-miterlimit:10" d="m-80.96 78.147 2.817 2.82m-2.817 0 2.817-2.82" transform="matrix(1 0 0 -1 104.788 117.389)"/><g style="fill:#000;fill-opacity:1"><use xlink:href="#n" x="-.39" y="46.178"/><use xlink:href="#o" x="3.271" y="46.178"/><use xlink:href="#p" x="6.933" y="46.178"/><use xlink:href="#B" x="10.594" y="46.178"/><use xlink:href="#z" x="14.255" y="46.178"/><use xlink:href="#A" x="17.916" y="46.178"/><use xlink:href="#x" x="21.578" y="46.178"/><use xlink:href="#F" x="25.239" y="46.178"/></g><g style="fill:#000;fill-opacity:1"><use xlink:href="#H" x="32.554" y="46.178"/><use xlink:href="#s" x="36.216" y="46.178"/><use xlink:href="#o" x="39.877" y="46.178"/><use xlink:href="#x" x="43.538" y="46.178"/><use xlink:href="#u" x="47.2" y="46.178"/></g><path style="fill:none;stroke-width:.3985;stroke-linecap:butt;stroke-linejoin:miter;stroke:#000;stroke-opacity:1;stroke-miterlimit:10" d="m56.02 56.018 2.817 2.82m-2.816 0 2.816-2.82" transform="matrix(1 0 0 -1 104.788 117.389)"/><g style="fill:#000;fill-opacity:1"><use xlink:href="#n" x="136.588" y="68.307"/><use xlink:href="#o" x="140.249" y="68.307"/><use xlink:href="#p" x="143.911" y="68.307"/><use xlink:href="#B" x="147.572" y="68.307"/><use xlink:href="#z" x="151.233" y="68.307"/><use xlink:href="#A" x="154.894" y="68.307"/><use xlink:href="#x" x="158.556" y="68.307"/><use xlink:href="#F" x="162.217" y="68.307"/></g><g style="fill:#000;fill-opacity:1"><use xlink:href="#s" x="169.539" y="68.307"/><use xlink:href="#q" x="173.201" y="68.307"/><use xlink:href="#o" x="176.862" y="68.307"/><use xlink:href="#x" x="180.523" y="68.307"/><use xlink:href="#u" x="184.185" y="68.307"/></g><path style="fill:none;stroke-width:.3985;stroke-linecap:butt;stroke-linejoin:miter;stroke:#000;stroke-opacity:1;stroke-miterlimit:10" d="m-80.96-80.963 2.817 2.82m-2.817 0 2.817-2.82" transform="matrix(1 0 0 -1 104.788 117.389)"/><g style="fill:#000;fill-opacity:1"><use xlink:href="#n" x="-.39" y="192.862"/><use xlink:href="#o" x="3.271" y="192.862"/><use xlink:href="#p" x="6.933" y="192.862"/><use xlink:href="#o" x="10.594" y="192.862"/><use xlink:href="#z" x="14.255" y="192.862"/><use xlink:href="#N" x="17.916" y="192.862"/><use xlink:href="#x" x="21.578" y="192.862"/><use xlink:href="#F" x="25.239" y="192.862"/></g><g style="fill:#000;fill-opacity:1"><use xlink:href="#H" x="32.554" y="192.862"/><use xlink:href="#s" x="36.216" y="192.862"/><use xlink:href="#o" x="39.877" y="192.862"/><use xlink:href="#x" x="43.538" y="192.862"/><use xlink:href="#u" x="47.2" y="192.862"/></g><path style="fill:none;stroke-width:.3985;stroke-linecap:butt;stroke-linejoin:miter;stroke:#000;stroke-opacity:1;stroke-miterlimit:10" d="m56.025-58.834 2.816 2.817m-2.816 0 2.816-2.817" transform="matrix(1 0 0 -1 104.788 117.389)"/><g style="fill:#000;fill-opacity:1"><use xlink:href="#n" x="136.591" y="170.737"/><use xlink:href="#o" x="140.252" y="170.737"/><use xlink:href="#p" x="143.914" y="170.737"/><use xlink:href="#o" x="147.575" y="170.737"/><use xlink:href="#z" x="151.236" y="170.737"/><use xlink:href="#N" x="154.897" y="170.737"/><use xlink:href="#x" x="158.559" y="170.737"/><use xlink:href="#F" x="162.22" y="170.737"/></g><g style="fill:#000;fill-opacity:1"><use xlink:href="#s" x="169.542" y="170.737"/><use xlink:href="#q" x="173.204" y="170.737"/><use xlink:href="#o" x="176.865" y="170.737"/><use xlink:href="#x" x="180.526" y="170.737"/><use xlink:href="#u" x="184.188" y="170.737"/></g></svg>