<svg xmlns="http://www.w3.org/2000/svg" xmlns:xlink="http://www.w3.org/1999/xlink" width="120.981" height="83.173" viewBox="0 0 90.736 62.38" version="1.2"><defs><symbol overflow="visible" id="a"><path style="stroke:none" d="m1.266-.766 1.062-1.03c1.547-1.376 2.14-1.907 2.14-2.907 0-1.14-.89-1.938-2.109-1.938C1.234-6.64.5-5.719.5-4.828c0 .547.5.547.531.547.172 0 .516-.11.516-.532a.513.513 0 0 0-.531-.515c-.079 0-.094 0-.125.016.218-.657.765-1.016 1.343-1.016.907 0 1.329.812 1.329 1.625 0 .797-.485 1.578-1.047 2.203L.609-.375C.5-.265.5-.235.5 0h3.703l.266-1.734h-.235C4.172-1.438 4.11-1 4-.844c-.063.078-.719.078-.938.078Zm0 0"/></symbol><symbol overflow="visible" id="c"><path style="stroke:none" d="M6.75-1.61H6.5a3.74 3.74 0 0 1-.188.72c-.046.156-.078.25-.656.25H4.86c.141-.563.438-1.047.891-1.704.469-.703.875-1.39.875-2.187 0-1.375-1.344-2.5-3.031-2.5-1.703 0-3.031 1.14-3.031 2.5 0 .797.406 1.484.875 2.187.437.656.75 1.14.89 1.703h-.797c-.578 0-.61-.093-.656-.234-.094-.234-.14-.484-.188-.734h-.25L.766 0h1.593c.22 0 .25 0 .25-.203 0-.703-.312-1.578-.53-2.219-.22-.578-.5-1.36-.5-2.11 0-1.593 1.109-2.28 2.015-2.28.953 0 2.015.718 2.015 2.28 0 .75-.28 1.5-.562 2.313-.156.422-.469 1.328-.469 2.016 0 .203.031.203.25.203h1.594Zm0 0"/></symbol><symbol overflow="visible" id="b"><path style="stroke:none" d="M2.297-3.5c.062-.203.156-.594.156-.64 0-.173-.125-.266-.297-.266-.015 0-.297.015-.39.36L.328 1.718c-.031.125-.031.14-.031.172 0 .14.11.265.281.265.203 0 .328-.187.344-.219.047-.078.172-.609.547-2.14.328.266.781.312.968.312.704 0 1.094-.453 1.329-.734a.904.904 0 0 0 .906.734c.344 0 .578-.234.734-.546.172-.36.297-.97.297-.985 0-.11-.094-.11-.125-.11-.094 0-.11.048-.14.188-.157.64-.344 1.235-.75 1.235-.266 0-.297-.266-.297-.454 0-.218.109-.687.187-1.046l.281-1.079c.032-.14.141-.515.172-.671.047-.235.157-.61.157-.672 0-.172-.141-.266-.297-.266-.047 0-.313.016-.391.344l-.469 1.875c-.11.5-.218.906-.25 1.015-.015.047-.484.954-1.297.954-.5 0-.734-.329-.734-.875 0-.282.063-.563.14-.844Zm0 0"/></symbol></defs><path style="fill:none;stroke-width:.3985;stroke-linecap:butt;stroke-linejoin:miter;stroke:red;stroke-opacity:1;stroke-miterlimit:10" d="M28.572-3.487h27.895v6.973H28.572Zm0 0" transform="matrix(1 0 0 -1 .877 57.384)"/><path style="fill:none;stroke-width:.3985;stroke-linecap:butt;stroke-linejoin:miter;stroke:#000;stroke-opacity:1;stroke-miterlimit:10" d="M81.553 42.294V14.4h6.976v27.894Zm0 0" transform="matrix(1 0 0 -1 .877 57.384)"/><use xlink:href="#a" x="60.531" y="31.473" style="fill:#000;fill-opacity:1"/><use xlink:href="#b" x="65.513" y="31.473" style="fill:#000;fill-opacity:1"/><use xlink:href="#c" x="71.516" y="31.473" style="fill:#000;fill-opacity:1"/><path style="fill:none;stroke-width:.3985;stroke-linecap:butt;stroke-linejoin:miter;stroke:#000;stroke-opacity:1;stroke-miterlimit:10" d="M.002.001h28.371m28.293 0h28.375v14.2m0 28.292v14.2" transform="matrix(1 0 0 -1 .877 57.384)"/></svg>