<svg xmlns="http://www.w3.org/2000/svg" xmlns:xlink="http://www.w3.org/1999/xlink" width="92.235" height="15.915" viewBox="0 0 69.176 11.936" version="1.2"><defs><symbol overflow="visible" id="a"><path style="stroke:none" d="M3.297 2.39c0-.03 0-.046-.172-.218C1.891.922 1.562-.968 1.562-2.5c0-1.734.375-3.469 1.61-4.703.125-.125.125-.14.125-.172 0-.078-.031-.11-.094-.11-.11 0-1 .688-1.594 1.954C1.11-4.438.984-3.328.984-2.5c0 .781.11 1.984.657 3.125C2.25 1.844 3.094 2.5 3.203 2.5c.063 0 .094-.031.094-.11Zm0 0"/></symbol><symbol overflow="visible" id="b"><path style="stroke:none" d="M4.813-.89v-.563h-.25v.562c0 .579-.25.641-.36.641-.328 0-.36-.453-.36-.5v-1.984c0-.422 0-.813-.359-1.188-.39-.39-.89-.547-1.375-.547-.812 0-1.5.469-1.5 1.125 0 .297.204.469.454.469a.448.448 0 0 0 .468-.453c0-.125-.062-.453-.515-.453.265-.36.765-.469 1.078-.469.484 0 1.062.39 1.062 1.281v.36c-.515.03-1.219.062-1.844.359-.75.344-1 .86-1 1.297 0 .812.97 1.062 1.594 1.062.672 0 1.125-.406 1.313-.859.047.39.312.813.781.813.203 0 .813-.141.813-.954Zm-1.657-.5c0 .937-.719 1.28-1.172 1.28-.484 0-.89-.343-.89-.843 0-.547.406-1.375 2.062-1.438Zm0 0"/></symbol><symbol overflow="visible" id="c"><path style="stroke:none" d="M2.875-2.5c0-.766-.11-1.969-.656-3.11C1.625-6.827.766-7.483.672-7.483a.107.107 0 0 0-.11.109c0 .031 0 .047.188.234.984.985 1.547 2.563 1.547 4.641 0 1.719-.36 3.469-1.594 4.719-.14.125-.14.14-.14.172 0 .062.046.109.109.109.094 0 1-.688 1.578-1.953.516-1.094.625-2.203.625-3.047Zm0 0"/></symbol><symbol overflow="visible" id="d"><path style="stroke:none" d="M5.188-2.156c0-1.266-.97-2.25-2.11-2.25-.781 0-1.203.468-1.36.64v-3.156l-1.437.11v.312c.703 0 .781.063.781.563V0h.25l.36-.625c.14.234.562.734 1.297.734 1.187 0 2.219-.984 2.219-2.265Zm-.829 0c0 .36-.015.953-.296 1.406-.22.313-.594.64-1.125.64-.454 0-.813-.234-1.047-.609-.141-.203-.141-.234-.141-.422v-2.046c0-.188 0-.204.11-.36.39-.562.937-.64 1.171-.64.453 0 .813.265 1.047.64.266.406.281.969.281 1.39Zm0 0"/></symbol><symbol overflow="visible" id="e"><path style="stroke:none" d="M4.14-1.188c0-.093-.109-.093-.14-.093-.078 0-.11.031-.125.093C3.594-.265 2.937-.14 2.578-.14c-.531 0-1.406-.421-1.406-2.03 0-1.626.812-2.048 1.344-2.048.093 0 .718.016 1.062.375-.406.031-.469.328-.469.453 0 .266.188.454.454.454.265 0 .468-.157.468-.47 0-.671-.765-1.062-1.531-1.062C1.25-4.469.344-3.39.344-2.156c0 1.281.984 2.265 2.14 2.265 1.329 0 1.657-1.203 1.657-1.296Zm0 0"/></symbol></defs><g style="fill:#000;fill-opacity:1"><use xlink:href="#a" x="-.375" y="8.413"/><use xlink:href="#b" x="3.5" y="8.413"/><use xlink:href="#c" x="8.482" y="8.413"/></g><g style="fill:#000;fill-opacity:1"><use xlink:href="#a" x="27.692" y="8.413"/><use xlink:href="#d" x="31.567" y="8.413"/><use xlink:href="#c" x="37.107" y="8.413"/></g><path style="fill:none;stroke-width:.3985;stroke-linecap:butt;stroke-linejoin:miter;stroke:#000;stroke-opacity:1;stroke-miterlimit:10" d="M9.888 0h7.894" transform="matrix(1 0 0 -1 5.991 5.922)"/><path style="fill:none;stroke-width:.3985;stroke-linecap:round;stroke-linejoin:round;stroke:#000;stroke-opacity:1;stroke-miterlimit:10" d="M-2.071 2.39C-1.692.958-.85.278-.001 0c-.848-.277-1.691-.957-2.07-2.39" transform="matrix(1 0 0 -1 23.974 5.922)"/><g style="fill:#000;fill-opacity:1"><use xlink:href="#a" x="56.596" y="8.413"/><use xlink:href="#e" x="60.471" y="8.413"/><use xlink:href="#c" x="64.895" y="8.413"/></g><path style="fill:none;stroke-width:.3985;stroke-linecap:butt;stroke-linejoin:miter;stroke:#000;stroke-opacity:1;stroke-miterlimit:10" d="M38.513 0h8.176" transform="matrix(1 0 0 -1 5.991 5.922)"/><path style="fill:none;stroke-width:.3985;stroke-linecap:round;stroke-linejoin:round;stroke:#000;stroke-opacity:1;stroke-miterlimit:10" d="M-2.074 2.39C-1.694.958-.85.278.001 0c-.852-.277-1.696-.957-2.075-2.39" transform="matrix(1 0 0 -1 52.878 5.922)"/></svg>