<svg xmlns="http://www.w3.org/2000/svg" width="153.437" height="81.267" viewBox="0 0 115.078 60.95" version="1.2"><defs><clipPath id="a"><path d="M48 51h15v9.926H48Zm0 0"/></clipPath><clipPath id="b"><path d="M59 51h15v9.926H59Zm0 0"/></clipPath><clipPath id="c"><path d="M71 51h15v9.926H71Zm0 0"/></clipPath><clipPath id="d"><path d="M82 51h15v9.926H82Zm0 0"/></clipPath><clipPath id="e"><path d="M93 51h15v9.926H93Zm0 0"/></clipPath><clipPath id="f"><path d="M105 51h9.617v9.926H105Zm0 0"/></clipPath><clipPath id="g"><path d="M48 51h15v9.926H48Zm0 0"/></clipPath><clipPath id="h"><path d="M58 47h16v13.926H58Zm0 0"/></clipPath><clipPath id="i"><path d="M101 31h13.617v16H101Zm0 0"/></clipPath><clipPath id="j"><path d="M48 51h15v9.926H48Zm0 0"/></clipPath><clipPath id="k"><path d="M48 51h15v9.926H48Zm0 0"/></clipPath><clipPath id="l"><path d="M48 51h15v9.926H48Zm0 0"/></clipPath><clipPath id="m"><path d="M48 51h15v9.926H48Zm0 0"/></clipPath><clipPath id="n"><path d="M48 51h15v9.926H48Zm0 0"/></clipPath><clipPath id="o"><path d="M48 51h15v9.926H48Zm0 0"/></clipPath><clipPath id="p"><path d="M48 51h15v9.926H48Zm0 0"/></clipPath><clipPath id="q"><path d="M37 47h15v13.926H37Zm0 0"/></clipPath></defs><g clip-path="url(#a)"><path style="fill:none;stroke-width:.3985;stroke-linecap:butt;stroke-linejoin:miter;stroke:#000;stroke-opacity:1;stroke-miterlimit:10" d="m-1.407-1.41 2.816 2.82m-2.816 0 2.816-2.82" transform="matrix(1 0 0 -1 55.368 58.36)"/></g><g clip-path="url(#b)"><path style="fill:none;stroke-width:.3985;stroke-linecap:butt;stroke-linejoin:miter;stroke:#000;stroke-opacity:1;stroke-miterlimit:10" d="m9.929-1.41 2.82 2.82m-2.82 0 2.82-2.82" transform="matrix(1 0 0 -1 55.368 58.36)"/></g><g clip-path="url(#c)"><path style="fill:none;stroke-width:.3985;stroke-linecap:butt;stroke-linejoin:miter;stroke:#000;stroke-opacity:1;stroke-miterlimit:10" d="m21.269-1.41 2.816 2.82m-2.816 0 2.816-2.82" transform="matrix(1 0 0 -1 55.368 58.36)"/></g><g clip-path="url(#d)"><path style="fill:none;stroke-width:.3985;stroke-linecap:butt;stroke-linejoin:miter;stroke:#000;stroke-opacity:1;stroke-miterlimit:10" d="m32.609-1.41 2.816 2.82m-2.816 0 2.816-2.82" transform="matrix(1 0 0 -1 55.368 58.36)"/></g><g clip-path="url(#e)"><path style="fill:none;stroke-width:.3985;stroke-linecap:butt;stroke-linejoin:miter;stroke:#000;stroke-opacity:1;stroke-miterlimit:10" d="m43.944-1.41 2.82 2.82m-2.82 0 2.82-2.82" transform="matrix(1 0 0 -1 55.368 58.36)"/></g><g clip-path="url(#f)"><path style="fill:none;stroke-width:.3985;stroke-linecap:butt;stroke-linejoin:miter;stroke:#000;stroke-opacity:1;stroke-miterlimit:10" d="m55.284-1.41 2.817 2.82m-2.817 0 2.817-2.82" transform="matrix(1 0 0 -1 55.368 58.36)"/></g><g clip-path="url(#g)"><path style="fill:none;stroke-width:.3985;stroke-linecap:butt;stroke-linejoin:miter;stroke:#000;stroke-opacity:1;stroke-miterlimit:10" d="m-1.407-1.41 2.816 2.82m-2.816 0 2.816-2.82" transform="matrix(1 0 0 -1 55.368 58.36)"/></g><g clip-path="url(#h)"><path style="fill:none;stroke-width:.3985;stroke-linecap:butt;stroke-linejoin:miter;stroke:#000;stroke-opacity:1;stroke-miterlimit:10" d="m9.245 2.47 2.82 2.816m-2.82 0 2.82-2.817" transform="matrix(1 0 0 -1 55.368 58.36)"/></g><path style="fill:none;stroke-width:.3985;stroke-linecap:butt;stroke-linejoin:miter;stroke:#000;stroke-opacity:1;stroke-miterlimit:10" d="m19.902 6.348 2.816 2.817m-2.816 0 2.816-2.817M30.554 10.227l2.82 2.817m-2.82 0 2.82-2.817M41.21 14.102l2.817 2.82m-2.817 0 2.817-2.82" transform="matrix(1 0 0 -1 55.368 58.36)"/><g clip-path="url(#i)"><path style="fill:none;stroke-width:.3985;stroke-linecap:butt;stroke-linejoin:miter;stroke:#000;stroke-opacity:1;stroke-miterlimit:10" d="m51.866 17.981 2.817 2.816m-2.817 0 2.817-2.816" transform="matrix(1 0 0 -1 55.368 58.36)"/></g><g clip-path="url(#j)"><path style="fill:none;stroke-width:.3985;stroke-linecap:butt;stroke-linejoin:miter;stroke:#000;stroke-opacity:1;stroke-miterlimit:10" d="m-1.407-1.41 2.816 2.82m-2.816 0 2.816-2.82" transform="matrix(1 0 0 -1 55.368 58.36)"/></g><path style="fill:none;stroke-width:.3985;stroke-linecap:butt;stroke-linejoin:miter;stroke:#000;stroke-opacity:1;stroke-miterlimit:10" d="m7.277 5.88 2.816 2.816m-2.816 0 2.816-2.816M15.964 13.169l2.816 2.816m-2.816 0 2.816-2.816M24.648 20.458l2.82 2.816m-2.82 0 2.82-2.816M33.335 27.743l2.817 2.82m-2.817 0 2.817-2.82M42.019 35.032l2.82 2.82m-2.82 0 2.82-2.82" transform="matrix(1 0 0 -1 55.368 58.36)"/><g clip-path="url(#k)"><path style="fill:none;stroke-width:.3985;stroke-linecap:butt;stroke-linejoin:miter;stroke:#000;stroke-opacity:1;stroke-miterlimit:10" d="m-1.407-1.41 2.816 2.82m-2.816 0 2.816-2.82" transform="matrix(1 0 0 -1 55.368 58.36)"/></g><path style="fill:none;stroke-width:.3985;stroke-linecap:butt;stroke-linejoin:miter;stroke:#000;stroke-opacity:1;stroke-miterlimit:10" d="m4.26 8.41 2.817 2.817m-2.816 0 2.816-2.816M9.929 18.231l2.82 2.816m-2.82 0 2.82-2.816M15.6 28.051l2.817 2.817m-2.816 0 2.816-2.817M21.269 37.868l2.816 2.82m-2.816 0 2.816-2.82M26.937 47.688l2.82 2.82m-2.82 0 2.82-2.82" transform="matrix(1 0 0 -1 55.368 58.36)"/><g clip-path="url(#l)"><path style="fill:none;stroke-width:.3985;stroke-linecap:butt;stroke-linejoin:miter;stroke:#000;stroke-opacity:1;stroke-miterlimit:10" d="m-1.407-1.41 2.816 2.82m-2.816 0 2.816-2.82" transform="matrix(1 0 0 -1 55.368 58.36)"/></g><path style="fill:none;stroke-width:.3985;stroke-linecap:butt;stroke-linejoin:miter;stroke:#000;stroke-opacity:1;stroke-miterlimit:10" d="m.562 9.758 2.816 2.817m-2.816 0 2.816-2.817M2.53 20.922l2.817 2.82m-2.817 0 2.817-2.82M4.5 32.09l2.816 2.817m-2.817 0 2.817-2.817M6.468 43.258l2.816 2.817m-2.816 0 2.816-2.817M8.437 54.422l2.816 2.82m-2.816 0 2.816-2.82" transform="matrix(1 0 0 -1 55.368 58.36)"/><g clip-path="url(#m)"><path style="fill:none;stroke-width:.3985;stroke-linecap:butt;stroke-linejoin:miter;stroke:#000;stroke-opacity:1;stroke-miterlimit:10" d="m-1.407-1.41 2.816 2.82m-2.816 0 2.816-2.82" transform="matrix(1 0 0 -1 55.368 58.36)"/></g><path style="fill:none;stroke-width:.3985;stroke-linecap:butt;stroke-linejoin:miter;stroke:#000;stroke-opacity:1;stroke-miterlimit:10" d="m-3.38 9.758 2.82 2.817m-2.82 0 2.82-2.817M-5.348 20.922l2.82 2.82m-2.82 0 2.82-2.82M-7.317 32.09l2.82 2.817m-2.82 0 2.82-2.817M-9.286 43.258l2.82 2.817m-2.82 0 2.82-2.817M-11.255 54.422l2.82 2.82m-2.82 0 2.82-2.82" transform="matrix(1 0 0 -1 55.368 58.36)"/><g clip-path="url(#n)"><path style="fill:none;stroke-width:.3985;stroke-linecap:butt;stroke-linejoin:miter;stroke:#000;stroke-opacity:1;stroke-miterlimit:10" d="m-1.407-1.41 2.816 2.82m-2.816 0 2.816-2.82" transform="matrix(1 0 0 -1 55.368 58.36)"/></g><path style="fill:none;stroke-width:.3985;stroke-linecap:butt;stroke-linejoin:miter;stroke:#000;stroke-opacity:1;stroke-miterlimit:10" d="m-7.079 8.41 2.82 2.817m-2.82 0 2.82-2.816M-12.747 18.231l2.816 2.816m-2.816 0 2.816-2.816M-18.419 28.051l2.82 2.817m-2.82 0 2.82-2.817M-24.087 37.868l2.82 2.82m-2.82 0 2.82-2.82M-29.755 47.688l2.817 2.82m-2.817 0 2.817-2.82" transform="matrix(1 0 0 -1 55.368 58.36)"/><g clip-path="url(#o)"><path style="fill:none;stroke-width:.3985;stroke-linecap:butt;stroke-linejoin:miter;stroke:#000;stroke-opacity:1;stroke-miterlimit:10" d="m-1.407-1.41 2.816 2.82m-2.816 0 2.816-2.82" transform="matrix(1 0 0 -1 55.368 58.36)"/></g><path style="fill:none;stroke-width:.3985;stroke-linecap:butt;stroke-linejoin:miter;stroke:#000;stroke-opacity:1;stroke-miterlimit:10" d="m-10.095 5.88 2.817 2.816m-2.817 0 2.817-2.816M-18.782 13.169l2.82 2.816m-2.82 0 2.82-2.816M-27.466 20.458l2.817 2.816m-2.817 0 2.817-2.816M-36.153 27.743l2.82 2.82m-2.82 0 2.82-2.82M-44.837 35.032l2.817 2.82m-2.817 0 2.817-2.82" transform="matrix(1 0 0 -1 55.368 58.36)"/><g clip-path="url(#p)"><path style="fill:none;stroke-width:.3985;stroke-linecap:butt;stroke-linejoin:miter;stroke:#000;stroke-opacity:1;stroke-miterlimit:10" d="m-1.407-1.41 2.816 2.82m-2.816 0 2.816-2.82" transform="matrix(1 0 0 -1 55.368 58.36)"/></g><g clip-path="url(#q)"><path style="fill:none;stroke-width:.3985;stroke-linecap:butt;stroke-linejoin:miter;stroke:#000;stroke-opacity:1;stroke-miterlimit:10" d="m-12.063 2.47 2.816 2.816m-2.816 0 2.816-2.817" transform="matrix(1 0 0 -1 55.368 58.36)"/></g><path style="fill:none;stroke-width:.3985;stroke-linecap:butt;stroke-linejoin:miter;stroke:#000;stroke-opacity:1;stroke-miterlimit:10" d="m-22.72 6.348 2.82 2.817m-2.82 0 2.82-2.817M-33.372 10.227l2.817 2.817m-2.817 0 2.817-2.817M-44.028 14.102l2.816 2.82m-2.816 0 2.816-2.82M-54.684 17.981l2.82 2.816m-2.82 0 2.82-2.816" transform="matrix(1 0 0 -1 55.368 58.36)"/></svg>