<svg xmlns="http://www.w3.org/2000/svg" xmlns:xlink="http://www.w3.org/1999/xlink" width="586.083" height="263pt" viewBox="0 0 439.562 263" version="1.2"><defs><symbol overflow="visible" id="a"><path style="stroke:none" d="M1.781-1.14C1.391-.485 1-.345.563-.314c-.125.016-.22.016-.22.204 0 .062.063.109.141.109.266 0 .579-.031.844-.031.344 0 .688.031 1 .031.063 0 .188 0 .188-.188 0-.109-.079-.124-.157-.124-.218-.016-.468-.094-.468-.344 0-.125.062-.235.14-.375l.766-1.266h2.5c.016.203.156 1.563.156 1.656 0 .297-.516.329-.719.329-.14 0-.234 0-.234.203C4.5 0 4.61 0 4.64 0c.407 0 .829-.031 1.235-.031.25 0 .89.031 1.14.031.048 0 .173 0 .173-.203 0-.11-.094-.11-.235-.11-.61 0-.61-.062-.64-.359l-.61-6.219c-.016-.203-.016-.25-.187-.25-.157 0-.204.079-.266.172Zm1.203-1.47 1.954-3.296.328 3.297Zm0 0"/></symbol><symbol overflow="visible" id="b"><path style="stroke:none" d="M1.594-.781c-.094.39-.125.469-.907.469-.171 0-.265 0-.265.203C.422 0 .516 0 .688 0H4.25C5.828 0 7-1.172 7-2.156c0-.719-.578-1.297-1.547-1.406 1.031-.188 2.078-.922 2.078-1.876 0-.734-.656-1.375-1.843-1.375h-3.36c-.187 0-.281 0-.281.204 0 .109.094.109.281.109.016 0 .203 0 .375.016.172.03.266.03.266.171 0 .032-.016.063-.031.188Zm1.5-2.875.625-2.469c.094-.344.11-.375.531-.375h1.297c.875 0 1.078.594 1.078 1.031 0 .875-.86 1.813-2.063 1.813ZM2.656-.312h-.219c-.109-.016-.14-.032-.14-.11 0-.031 0-.047.062-.219l.688-2.78h1.875c.953 0 1.156.733 1.156 1.155 0 .985-.89 1.954-2.078 1.954Zm0 0"/></symbol><symbol overflow="visible" id="c"><path style="stroke:none" d="M7.578-6.922c0-.031-.016-.11-.11-.11-.03 0-.046.016-.155.126l-.688.765c-.094-.14-.547-.89-1.656-.89C2.734-7.031.5-4.828.5-2.516.5-.875 1.672.22 3.203.22c.86 0 1.625-.39 2.156-.86.922-.812 1.094-1.718 1.094-1.75 0-.109-.11-.109-.125-.109-.062 0-.11.031-.125.11-.094.28-.328 1-1.016 1.578-.687.546-1.312.718-1.828.718-.89 0-1.953-.515-1.953-2.062 0-.578.203-2.188 1.203-3.36.61-.703 1.547-1.203 2.438-1.203 1.016 0 1.61.766 1.61 1.922 0 .406-.032.406-.032.516 0 .093.11.093.14.093.126 0 .126-.015.188-.203Zm0 0"/></symbol><symbol overflow="visible" id="d"><path style="stroke:none" d="M1.578-.781c-.094.39-.11.469-.906.469-.156 0-.266 0-.266.187C.406 0 .484 0 .672 0h3.312c2.063 0 4.032-2.11 4.032-4.281 0-1.407-.844-2.532-2.344-2.532H2.328c-.187 0-.297 0-.297.188 0 .125.078.125.281.125.126 0 .313.016.422.016.172.03.22.046.22.171 0 .032 0 .063-.032.188Zm2.156-5.344c.094-.344.11-.375.547-.375h1.063c.968 0 1.797.531 1.797 1.844 0 .484-.188 2.125-1.047 3.218A2.919 2.919 0 0 1 3.797-.313H2.453c-.094-.015-.125-.03-.125-.109 0-.031 0-.047.047-.219Zm0 0"/></symbol><symbol overflow="visible" id="e"><path style="stroke:none" d="M7.063-2.328c.015-.047.046-.11.046-.14 0 0 0-.11-.125-.11-.093 0-.109.062-.125.125-.656 1.469-1.015 2.14-2.718 2.14H2.469c-.11-.015-.14-.03-.14-.109 0-.031 0-.047.046-.219l.688-2.734h.984c.844 0 .844.219.844.469 0 .062 0 .187-.063.484-.016.047-.031.078-.031.11 0 .046.031.109.125.109.078 0 .11-.047.156-.203l.563-2.328c0-.063-.047-.11-.125-.11-.079 0-.11.063-.125.172-.22.766-.391 1-1.313 1h-.937l.593-2.406c.094-.36.11-.39.547-.39h1.407c1.203 0 1.515.28 1.515 1.109 0 .234 0 .25-.047.53 0 .048-.015.126-.015.173 0 .047.03.125.125.125.109 0 .125-.063.14-.25l.203-1.735c.032-.265-.015-.265-.265-.265H2.297c-.188 0-.297 0-.297.203 0 .11.094.11.281.11.375 0 .656 0 .656.171 0 .047 0 .063-.062.25L1.562-.78c-.093.39-.109.469-.906.469-.172 0-.281 0-.281.187C.375 0 .469 0 .656 0h5.172c.234 0 .25-.016.313-.172Zm0 0"/></symbol><symbol overflow="visible" id="f"><path style="stroke:none" d="M3.016-3.234h.968c.75 0 .829.156.829.437 0 .078 0 .188-.063.5-.031.047-.031.078-.031.11 0 .078.062.109.11.109.109 0 .109-.031.155-.203l.547-2.172c.032-.11.032-.125.032-.156a.117.117 0 0 0-.125-.11c-.094 0-.11.047-.141.219-.219.766-.438.953-1.297.953h-.906l.64-2.531c.094-.36.11-.39.547-.39h1.313c1.218 0 1.453.327 1.453 1.093 0 .234 0 .266-.031.547C7-4.703 7-4.688 7-4.656c0 .047.031.125.125.125.11 0 .11-.063.125-.25l.203-1.735c.031-.265-.016-.265-.266-.265h-4.89c-.188 0-.297 0-.297.203 0 .11.094.11.281.11.375 0 .656 0 .656.171 0 .047 0 .063-.062.25L1.562-.78c-.093.39-.109.469-.906.469-.172 0-.281 0-.281.187C.375 0 .5 0 .531 0c.281 0 1.031-.031 1.313-.031C2.172-.031 3 0 3.328 0c.094 0 .203 0 .203-.188 0-.078-.047-.109-.047-.109-.03-.016-.062-.016-.28-.016-.22 0-.267 0-.517-.015-.296-.031-.328-.078-.328-.203 0-.016 0-.078.047-.219Zm0 0"/></symbol><symbol overflow="visible" id="g"><path style="stroke:none" d="M7.61-6.047c.093-.36.109-.453.827-.453.266 0 .344 0 .344-.203 0-.11-.11-.11-.14-.11-.282 0-1 .032-1.282.032-.28 0-.984-.032-1.28-.032-.079 0-.188 0-.188.204 0 .109.093.109.28.109.016 0 .204 0 .376.016.187.03.266.03.266.171 0 .032 0 .047-.032.188l-.593 2.422H3.14l.593-2.344c.079-.36.11-.453.829-.453.265 0 .343 0 .343-.203 0-.11-.11-.11-.14-.11-.282 0-1 .032-1.282.032-.28 0-.984-.032-1.28-.032-.079 0-.188 0-.188.204 0 .109.093.109.28.109.017 0 .204 0 .376.016.172.03.265.03.265.171 0 .032 0 .063-.03.188L1.561-.781c-.093.39-.109.469-.906.469-.172 0-.265 0-.265.203C.39 0 .516 0 .53 0c.281 0 .985-.031 1.266-.031.203 0 .422.015.64.015.22 0 .438.016.641.016.078 0 .203 0 .203-.203 0-.11-.094-.11-.281-.11-.375 0-.64 0-.64-.171 0-.063.015-.11.015-.172l.688-2.735h3.03c-.405 1.657-.64 2.61-.687 2.75-.093.329-.281.329-.906.329-.14 0-.234 0-.234.203 0 .109.125.109.14.109.282 0 .985-.031 1.266-.031.203 0 .422.015.64.015.22 0 .438.016.641.016.078 0 .203 0 .203-.203 0-.11-.093-.11-.281-.11-.36 0-.64 0-.64-.171 0-.063.015-.11.03-.172Zm0 0"/></symbol><symbol overflow="visible" id="h"><path style="stroke:none" d="M7.578-6.922c0-.031-.016-.11-.11-.11-.03 0-.046.016-.155.126l-.688.765c-.094-.14-.547-.89-1.656-.89C2.734-7.031.5-4.828.5-2.516.5-.922 1.61.22 3.219.22c.437 0 .89-.094 1.25-.235.5-.203.687-.406.86-.609.093.25.359.61.452.61.047 0 .078-.032.078-.032.016-.015.11-.406.157-.61l.187-.765.14-.516c.11-.437.11-.468.688-.468.047 0 .157-.016.157-.203 0-.079-.047-.11-.125-.11-.235 0-.829.031-1.047.031-.313 0-1.094-.03-1.407-.03-.078 0-.203 0-.203.202 0 .11.078.11.297.11.016 0 .297 0 .531.015.266.032.313.063.313.188 0 .094-.11.531-.219.906C5.047-.203 3.766-.094 3.406-.094c-.953 0-2-.562-2-2.094 0-.312.094-1.953 1.14-3.25.548-.671 1.517-1.28 2.5-1.28 1.016 0 1.61.765 1.61 1.921 0 .406-.031.406-.031.516 0 .093.11.093.14.093.126 0 .126-.015.188-.203Zm0 0"/></symbol><symbol overflow="visible" id="i"><path style="stroke:none" d="M5.078-4.031a.497.497 0 0 1-.047-.14s.172-.141.282-.22l1.75-1.343C8-6.438 8.39-6.47 8.688-6.5c.078-.016.171-.016.171-.203 0-.031-.03-.11-.109-.11-.219 0-.469.032-.703.032-.36 0-.75-.032-1.11-.032-.062 0-.187 0-.187.204 0 .062.047.093.125.109.219.016.297.063.297.203 0 .188-.297.422-.36.469L2.938-2.844l.797-3.203c.079-.36.11-.453.829-.453.25 0 .343 0 .343-.203 0-.078-.078-.11-.14-.11-.282 0-1 .032-1.282.032-.28 0-.984-.032-1.28-.032-.063 0-.204 0-.204.188 0 .125.094.125.297.125.125 0 .312.016.422.016.156.03.219.046.219.171 0 .032 0 .063-.032.188L1.562-.781c-.093.39-.109.469-.906.469-.172 0-.281 0-.281.187C.375 0 .5 0 .531 0c.281 0 .985-.031 1.266-.031.203 0 .422.015.64.015.22 0 .438.016.641.016.078 0 .203 0 .203-.203 0-.11-.094-.11-.281-.11-.375 0-.64 0-.64-.171 0-.079.046-.297.078-.438.14-.531.28-1.047.406-1.578l1.484-1.156L5.484-.97c.125.266.125.297.125.344 0 .313-.437.313-.53.313-.11 0-.22 0-.22.203C4.86 0 4.984 0 5 0c.406 0 .828-.031 1.219-.031.218 0 .765.031.984.031.047 0 .172 0 .172-.203 0-.11-.11-.11-.203-.11-.406 0-.531-.093-.688-.437Zm0 0"/></symbol><symbol overflow="visible" id="j"><path style="stroke:none" d="M3.734-6.031c.079-.36.11-.469 1.047-.469.297 0 .375 0 .375-.188 0-.125-.11-.125-.156-.125-.328 0-1.14.032-1.469.032-.297 0-1.031-.032-1.328-.032-.062 0-.187 0-.187.204 0 .109.093.109.28.109.017 0 .204 0 .376.016.172.03.265.03.265.171 0 .032 0 .063-.03.188L1.561-.781c-.093.39-.109.469-.906.469-.172 0-.265 0-.265.203C.39 0 .484 0 .656 0h4.625c.235 0 .235 0 .297-.172l.797-2.156c.031-.11.031-.125.031-.14 0-.032-.031-.11-.11-.11-.093 0-.109.062-.171.219-.344.906-.781 2.046-2.5 2.046H2.469c-.11-.015-.14-.03-.14-.109 0-.031 0-.047.046-.219Zm0 0"/></symbol><symbol overflow="visible" id="k"><path style="stroke:none" d="M6.64-4.39c0-.985-.906-1.766-2.437-1.766H.375v.437h.969v5.282H.375V0c.313-.031 1.25-.031 1.61-.031.374 0 1.312 0 1.624.031v-.438h-.968v-2.25h1.656c1.281 0 2.344-.656 2.344-1.703Zm-1.406 0c0 .624 0 1.312-1.375 1.312H2.594v-2.64h1.265c1.375 0 1.375.687 1.375 1.327Zm0 0"/></symbol><symbol overflow="visible" id="l"><path style="stroke:none" d="M4.078-3.281c0-.453-.469-.75-1-.75-.625 0-1 .453-1.203.968h-.016v-.968L.375-3.97v.438c.531 0 .61 0 .61.36v2.733h-.61V0l1.14-.031c.22 0 .75 0 1.22.031v-.438h-.766v-1.515c0-.656.25-1.703 1.11-1.719a.571.571 0 0 0-.142.39c0 .391.313.579.563.579.297 0 .578-.203.578-.578Zm0 0"/></symbol><symbol overflow="visible" id="m"><path style="stroke:none" d="M5-1.953c0-1.172-.828-2.11-2.344-2.11-1.578 0-2.36.985-2.36 2.11 0 1.11.813 2 2.345 2C4.25.047 5-.891 5-1.953Zm-1.188-.094c0 .766 0 1.719-1.156 1.719-1.172 0-1.172-.953-1.172-1.719 0-.765 0-1.656 1.157-1.656 1.171 0 1.171.89 1.171 1.656Zm0 0"/></symbol><symbol overflow="visible" id="n"><path style="stroke:none" d="M5.531-1.984c0-1.188-.812-2.047-2.172-2.047-.718 0-1.218.297-1.39.422v-.422L.375-3.97v.438c.172 0 .313 0 .438.031.171.031.171.125.171.313v4.484H.375v.437L1.5 1.72l1.14.015v-.437h-.609v-1.64c.531.39 1.016.39 1.188.39 1.406 0 2.312-.844 2.312-2.031ZM4.344-2c0 1.25-.64 1.688-1.235 1.688-.453 0-.843-.25-1.078-.625v-2.157a1.548 1.548 0 0 1 1.188-.562c.625 0 1.125.562 1.125 1.656Zm0 0"/></symbol><symbol overflow="visible" id="o"><path style="stroke:none" d="M3.828-1.25c0-.469-.265-.75-.422-.89-.406-.329-.687-.376-1.39-.5-.438-.063-1-.157-1-.563 0-.531.828-.531 1.03-.531 1 0 1.032.53 1.063.765 0 .125.125.125.22.125.218 0 .233-.047.233-.265v-.688c0-.172 0-.265-.187-.265-.078 0-.234.078-.39.156-.282-.125-.641-.156-.938-.156-.266 0-1.703 0-1.703 1.187 0 .938 1.187 1.14 1.5 1.188.734.125 1.328.218 1.328.734 0 .64-.844.64-1.047.64-.453 0-1.047-.109-1.297-.937-.047-.156-.062-.172-.25-.172-.234 0-.234.047-.234.266v.953c0 .156 0 .25.187.25.063 0 .078 0 .281-.125l.235-.14c.422.265.906.265 1.078.265.266 0 1.703 0 1.703-1.297Zm0 0"/></symbol><symbol overflow="visible" id="p"><path style="stroke:none" d="M2.625 0v-.438h-.547V-4.03L.5-3.97v.438c.516 0 .578 0 .578.36v2.733h-.61V0c.595-.016.72-.031 1.095-.031.437 0 .546.015 1.062.031Zm-.453-5.422a.713.713 0 0 0-.703-.719.71.71 0 0 0-.703.704.7.7 0 0 0 .703.703.697.697 0 0 0 .703-.688Zm0 0"/></symbol><symbol overflow="visible" id="q"><path style="stroke:none" d="M3.531-1.11v-.468h-.469v.453c0 .625-.312.797-.546.797C2-.328 2-.875 2-1.078v-2.469h1.36v-.437H2v-1.704h-.453c-.016.829-.438 1.766-1.344 1.782v.36h.75v2.437c0 1.03.89 1.156 1.438 1.156.703 0 1.14-.5 1.14-1.156Zm0 0"/></symbol><symbol overflow="visible" id="r"><path style="stroke:none" d="M5.656 0v-.438h-.61v-2.296c0-1.063-.655-1.297-1.437-1.297-1.093 0-1.53.797-1.593.937H2v-.937L.453-3.97v.438c.531 0 .61 0 .61.36v2.733h-.61V0l1.125-.031L2.718 0v-.438H2.11V-2.28c0-1 .829-1.39 1.36-1.39.344 0 .515.187.515.858v2.376h-.609V0l1.14-.031Zm0 0"/></symbol><symbol overflow="visible" id="s"><path style="stroke:none" d="M3.656 0v-.438H2.641v-5.28h1.015v-.438c-.312.031-1.281.031-1.656.031s-1.36 0-1.672-.031v.437h1.016v5.282H.328V0C.641-.031 1.61-.031 1.984-.031c.391 0 1.36 0 1.672.031Zm0 0"/></symbol><symbol overflow="visible" id="N"><path style="stroke:none" d="M5.922-2.469h-.453c-.063.61-.219 2.031-1.86 2.031h-.968v-5.28h1.218v-.438c-.375.031-1.39.031-1.812.031-.375 0-1.36 0-1.672-.031v.437h.969v5.282H.375V0h5.281Zm0 0"/></symbol><symbol overflow="visible" id="O"><path style="stroke:none" d="M4.563-1.047c0-.172-.172-.172-.235-.172-.156 0-.172.047-.234.172-.203.469-.75.719-1.313.719-1.281 0-1.297-1.156-1.297-1.594h2.782c.187 0 .296 0 .296-.25 0-.203-.015-1-.593-1.484-.406-.328-.953-.406-1.39-.406-1.532 0-2.282.968-2.282 2.046 0 1.172.89 2.063 2.406 2.063 1.485 0 1.86-.938 1.86-1.094ZM3.688-2.25H1.483c.016-.406.063-1.453 1.094-1.453 1.047 0 1.094 1.094 1.11 1.453Zm0 0"/></symbol><symbol overflow="visible" id="Q"><path style="stroke:none" d="M5.531-1.984c0-1.22-.875-2.047-2.187-2.047-.719 0-1.203.297-1.375.422v-2.61l-1.594.063v.437c.531 0 .61 0 .61.36V0h.453l.421-.516c.282.297.72.563 1.36.563 1.406 0 2.312-.844 2.312-2.031Zm-1.187-.032c0 .391 0 .844-.188 1.172-.297.5-.843.531-1.031.531-.547 0-.906-.328-1.094-.625v-2.171a1.553 1.553 0 0 1 1.203-.563c1.11 0 1.11 1.078 1.11 1.656Zm0 0"/></symbol><symbol overflow="visible" id="R"><path style="stroke:none" d="M5.656 0v-.438h-.61v-2.296c0-1.063-.655-1.297-1.437-1.297-.843 0-1.328.484-1.562.843v-3.03l-1.594.062v.437c.531 0 .61 0 .61.36v4.921h-.61V0l1.125-.031L2.718 0v-.438H2.11V-2.28c0-1 .829-1.39 1.36-1.39.344 0 .515.187.515.858v2.376h-.609V0l1.14-.031Zm0 0"/></symbol><symbol overflow="visible" id="S"><path style="stroke:none" d="M5.156-3.547c0-.234-.172-.547-.593-.547-.438 0-.813.219-.985.344-.375-.219-.781-.281-1.219-.281-1.375 0-1.843.734-1.843 1.328 0 .484.312.812.468.937a1.249 1.249 0 0 0-.296.782c0 .39.187.703.375.875C.39.078.296.453.296.656c0 .531.625 1.14 2.344 1.14C4.219 1.797 5 1.313 5 .626c0-.313-.11-.86-.734-1.156C3.75-.766 3.28-.766 2.39-.766h-.454c-.28 0-.406 0-.562-.109a.563.563 0 0 1-.203-.453c0-.172.062-.281.062-.281.329.171.735.234 1.125.234 1.375 0 1.844-.734 1.844-1.328 0-.36-.172-.656-.36-.844.235-.125.423-.14.532-.172 0 .047-.031.094-.031.188a.407.407 0 1 0 .813-.016Zm-1.984.844c0 .39 0 .969-.813.969-.812 0-.812-.579-.812-.97 0-.405 0-.968.812-.968.813 0 .813.563.813.969ZM4.203.657c0 .296-.328.78-1.547.78C1.47 1.438 1.094 1 1.094.641c0-.516.578-.516.703-.516H2.89c.28 0 1.312 0 1.312.531Zm0 0"/></symbol><symbol overflow="visible" id="T"><path style="stroke:none" d="M5.344-3.547v-.437c-.25.03-.469.03-.719.03-.266 0-.547 0-.813-.03v.437c.25 0 .329.047.407.078 0 .047 0 .063-.047.125L3.094-1.109 1.922-3.547h.469v-.437l-1.11.03c-.328 0-.5 0-1.031-.03v.437h.563L2.421-.203c.078.172.156.25.375.25s.297-.078.375-.25L4.687-3.36c.063-.125.094-.188.657-.188Zm0 0"/></symbol><symbol overflow="visible" id="U"><path style="stroke:none" d="M2.297-.281c0-.61-.313-1.125-.828-1.125-.453 0-.703.343-.703.703 0 .36.25.703.718.703a.698.698 0 0 0 .438-.156c-.031.719-.39 1.218-.813 1.562-.046.032-.093.063-.093.14 0 .079.109.188.187.188.14 0 1.094-.765 1.094-2.015Zm0 0"/></symbol><symbol overflow="visible" id="V"><path style="stroke:none" d="M5.11-.219c0-.218-.157-.218-.235-.218-.578-.016-.578-.094-.578-.313v-1.922c0-.797-.64-1.39-2.031-1.39-.5 0-1.657.015-1.657.843 0 .406.313.594.579.594.312 0 .593-.219.593-.578 0-.266-.156-.422-.187-.453.093-.016.312-.047.64-.047.641 0 1.016.328 1.016 1.031v.281C1.766-2.39.25-2 .25-1 .25-.11 1.375.047 2.016.047c.687 0 1.156-.281 1.39-.703 0 .219 0 .656.969.656h.438c.171 0 .296 0 .296-.219ZM3.25-1.25c0 .938-1.047.938-1.078.938-.453 0-.828-.282-.828-.688 0-.297.156-1 1.906-1.078Zm0 0"/></symbol><symbol overflow="visible" id="W"><path style="stroke:none" d="M5.516 0v-.438c-.532 0-.61 0-.61-.359v-5.422l-1.61.063v.437c.548 0 .61 0 .61.36v1.734a1.994 1.994 0 0 0-1.25-.406c-1.453 0-2.312.89-2.312 2.047 0 1.187.844 2.03 2.219 2.03.562 0 1-.202 1.296-.437v.438ZM3.859-.984a1.427 1.427 0 0 1-1.203.671c-1.11 0-1.11-1.062-1.11-1.656 0-.531 0-.906.235-1.234.235-.36.672-.469.985-.469.437 0 .812.188 1.093.547Zm0 0"/></symbol><symbol overflow="visible" id="Z"><path style="stroke:none" d="M2.688 0v-.438h-.61v-5.78l-1.61.062v.437c.532 0 .61 0 .61.36v4.921h-.61V0l1.095-.031Zm0 0"/></symbol><symbol overflow="visible" id="aa"><path style="stroke:none" d="M2.172-.703a.704.704 0 0 0-1.406 0A.71.71 0 0 0 1.469 0a.69.69 0 0 0 .703-.703Zm0 0"/></symbol><symbol overflow="visible" id="ab"><path style="stroke:none" d="M5.531 1.734v-.437h-.61v-5.328h-.405l-.47.687c-.359-.437-.796-.687-1.39-.687-1.406 0-2.312.843-2.312 2.047 0 1.187.86 2.03 2.219 2.03.484 0 .937-.155 1.296-.483v1.734H3.25v.437l1.14-.015Zm-1.61-3.062c0 .172 0 .187-.108.344-.329.5-.766.671-1.157.671-.594 0-1.11-.53-1.11-1.671 0-.282.016-.766.282-1.157a1.16 1.16 0 0 1 .938-.515c.718 0 1.156.719 1.156 1.156Zm0 0"/></symbol><symbol overflow="visible" id="ac"><path style="stroke:none" d="M5.656 0v-.438c-.547 0-.61 0-.61-.359V-4.03l-1.671.062v.438c.547 0 .61 0 .61.36v1.702c0 .719-.454 1.157-1.157 1.157-.687 0-.719-.188-.719-.672v-3.047L.453-3.97v.438c.531 0 .61 0 .61.36v2.062c0 .984.765 1.156 1.64 1.156.281 0 .89 0 1.344-.672v.672Zm0 0"/></symbol><symbol overflow="visible" id="ad"><path style="stroke:none" d="M4.406-1.047c0-.14-.125-.14-.234-.14-.172 0-.172.015-.25.171-.172.438-.578.688-1.11.688-1.265 0-1.265-1.297-1.265-1.703 0-.531 0-1.64 1.172-1.64.078 0 .562 0 .562.046l-.031.047a.602.602 0 0 0-.125.375c0 .36.281.578.594.578a.569.569 0 0 0 .578-.594c0-.844-1.25-.844-1.61-.844C.97-4.063.345-2.968.345-1.983c0 1.125.812 2.03 2.297 2.03.343 0 .78-.046 1.156-.28.515-.313.61-.782.61-.813Zm0 0"/></symbol><symbol overflow="visible" id="ae"><path style="stroke:none" d="M7.422-3.547v-.437c-.25.03-.469.03-.719.03-.281 0-.562-.015-.844-.03v.437c.11 0 .313 0 .5.078-.015.078-.015.094-.046.156l-.954 2.266-1.03-2.5h.484v-.437l-1.016.03c-.078 0-.516 0-.906-.03v.437h.515c.125.266.125.281.172.422L2.797-1.25l-.953-2.297h.484v-.437l-1.094.03c-.218 0-.546 0-1-.03v.437H.75l1.406 3.36c.094.234.235.234.344.234.25 0 .297-.094.36-.25l.968-2.328.985 2.344c.093.234.234.234.343.234.11 0 .25 0 .344-.234l1.328-3.157c.063-.14.078-.203.594-.203Zm0 0"/></symbol><symbol overflow="visible" id="af"><path style="stroke:none" d="M4.86-5.719v-.437c-.376.031-1.079.031-1.47.031-.406 0-1.421 0-1.765-.031v.437h1.25v4.375c0 .75-.36 1.094-.906 1.094-.188 0-.485-.031-.735-.14a.683.683 0 0 0 .391-.626c0-.453-.328-.718-.703-.718-.375 0-.719.25-.719.718C.203-.344.891.11 2 .11c1.281 0 2.125-.546 2.125-1.453v-4.375Zm0 0"/></symbol><symbol overflow="visible" id="ag"><path style="stroke:none" d="M4.047-5.484c0-.407-.36-.797-1.047-.797-.953 0-1.922.406-1.922 1.406v.89H.391v.438h.687v3.11h-.61V0l1.157-.031c.219 0 .75 0 1.219.031v-.438h-.766v-3.109h1.063v-.437H2.03v-.891c0-.969.688-1.047.922-1.047.031 0 .11.016.11.016s0 .015-.016.047a.56.56 0 0 0-.14.375c0 .375.296.578.562.578a.567.567 0 0 0 .578-.578Zm0 0"/></symbol><symbol overflow="visible" id="ah"><path style="stroke:none" d="M8.594 0v-.438h-.61v-2.296c0-1.063-.625-1.297-1.421-1.297-.938 0-1.391.562-1.563.843C4.812-4 4.016-4.03 3.625-4.03c-1.11 0-1.547.797-1.61.937H2v-.937L.453-3.97v.438c.531 0 .61 0 .61.36v2.733h-.61V0l1.125-.031L2.718 0v-.438H2.11V-2.28c0-1 .829-1.39 1.36-1.39.344 0 .531.171.531.858v2.376h-.61V0l1.126-.031L5.656 0v-.438h-.61V-2.28c0-1 .829-1.39 1.36-1.39.344 0 .532.171.532.858v2.376h-.61V0l1.14-.031Zm0 0"/></symbol><symbol overflow="visible" id="al"><path style="stroke:none" d="M7.531-3.031c0-1.906-1.312-3.125-3.203-3.125H.375v.437h.969v5.282H.375V0h3.969C6.125 0 7.53-1.078 7.53-3.031Zm-1.36 0c0 .875 0 2.594-2.202 2.594H2.594V-5.72h1.36c.702 0 1.374.235 1.765.719.39.5.453 1.14.453 1.969Zm0 0"/></symbol><symbol overflow="visible" id="aq"><path style="stroke:none" d="M5.297-1.828c0-.969-.734-1.703-1.578-1.89l-1.313-.266c-.906-.204-.922-.813-.922-.938 0-.422.282-.937 1.172-.937 1.422 0 1.781.968 1.875 1.562.032.14.032.188.235.188.218 0 .234-.047.234-.266V-6c0-.156 0-.266-.188-.266-.078 0-.078.016-.187.11l-.406.39c-.5-.39-1.078-.5-1.563-.5-1.437 0-2.062.907-2.062 1.813 0 .64.36 1.047.453 1.14.484.5.781.563 1.719.75l.421.094c.532.11.672.14.97.438.015.015.25.265.25.656 0 .188-.063 1.047-1.22 1.047-.53 0-2.062-.11-2.14-1.5 0-.156 0-.219-.219-.219-.234 0-.234.063-.234.266v1.625c0 .172 0 .265.172.265.078 0 .093 0 .171-.078.063-.047.25-.265.422-.406.547.39 1.344.484 1.844.484 1.516 0 2.094-1 2.094-1.937Zm0 0"/></symbol><symbol overflow="visible" id="ar"><path style="stroke:none" d="M2.938-1.547v-.89H.108v.89Zm0 0"/></symbol><symbol overflow="visible" id="as"><path style="stroke:none" d="M7.61 0v-.438h-.86L4.39-6.03c-.093-.25-.234-.25-.39-.25s-.297 0-.39.25L1.343-.641C1.28-.5 1.28-.5 1.047-.469a5.055 5.055 0 0 1-.469.031H.391V0C.89-.016 1-.031 1.484-.031c.344 0 .625 0 1.188.031v-.438c-.235 0-.547 0-.797-.093l.5-1.188h2.484l.532 1.282h-.844V0c.312-.031 1.219-.031 1.594-.031s1.14 0 1.468.031ZM4.655-2.156H2.563l1.046-2.516Zm0 0"/></symbol><symbol overflow="visible" id="at"><path style="stroke:none" d="M6.938-1.672c0-.781-.657-1.406-1.86-1.547 1-.172 1.563-.734 1.563-1.39 0-.829-.797-1.547-2.282-1.547H.375v.437h.969v5.282H.375V0h4.266c1.53 0 2.296-.797 2.296-1.672ZM5.343-4.609c0 .656-.438 1.234-1.328 1.234H2.53v-2.344H4.25c1.063 0 1.094.922 1.094 1.11Zm.25 2.921c0 .625-.36 1.25-1.328 1.25H2.53v-2.578h1.813c.156 0 .625 0 .937.36.25.312.313.687.313.969Zm0 0"/></symbol><symbol overflow="visible" id="au"><path style="stroke:none" d="m6.984-3.86-.187-2.187H.578L.391-3.859h.453c.094-1 .172-1.75 1.484-1.75h.719v5.171H1.672V0c.39-.031 1.562-.031 2.016-.031.468 0 1.624 0 2.03.031v-.438H4.345v-5.171h.703c1.328 0 1.39.765 1.484 1.75Zm0 0"/></symbol><symbol overflow="visible" id="t"><path style="stroke:none" d="m7.547-4.125.25-1.625c.031-.094.031-.14.031-.14 0-.157-.156-.157-.297-.157H2.547c-.203 0-.235 0-.297.156l-.453 1.297c-.063.188-.172.485-.172.547 0 .156.172.156.266.156.171 0 .203-.015.265-.187.422-1.219.672-1.547 1.828-1.547h.375L3.08-.469c-.032.016-.298.047-.735.047h-.406c-.157 0-.313 0-.313.266 0 .156.172.156.219.156l1.718-.031L5.345 0c.125 0 .265 0 .265-.266 0-.156-.14-.156-.28-.156h-.391c-.188 0-.47-.016-.641-.031l1.25-5.031c.047-.141.047-.141.187-.141h.313c.875 0 1.078.156 1.078.719 0 .281-.063.625-.078.718-.016.094-.016.125-.016.125 0 .172.157.172.25.172.157 0 .235 0 .266-.234Zm0 0"/></symbol><symbol overflow="visible" id="u"><path style="stroke:none" d="M5.344-2.547c0-.922-.64-1.5-1.719-1.5-1.766 0-2.672 1.484-2.672 2.61 0 .921.64 1.515 1.703 1.515 1.781 0 2.688-1.5 2.688-2.625ZM3.906-1.109c-.265.562-.765.859-1.219.859-.312 0-.75-.156-.75-.797 0-.344.235-1.344.454-1.828.265-.563.765-.86 1.218-.86.313 0 .75.157.75.797 0 .344-.234 1.344-.453 1.829Zm0 0"/></symbol><symbol overflow="visible" id="v"><path style="stroke:none" d="M5.344-2.625c0-1.063-.75-1.422-1.438-1.422-.547 0-.969.281-1.187.453-.156-.312-.563-.453-.922-.453-.422 0-.64.297-.75.484-.234.376-.36.876-.36.907 0 .125.125.125.25.125.22 0 .235 0 .297-.235.063-.296.235-.968.532-.968.109 0 .171.078.171.28 0 .173-.015.25-.046.392L.828 1.171c-.031.14-.047.14-.312.14-.141 0-.297 0-.297.266 0 .11.093.156.172.156.25 0 .546-.015.796-.015.313 0 .641.015.954.015.062 0 .234 0 .234-.25 0-.156-.156-.171-.234-.171H1.75L2.125-.22c.281.25.61.297.813.297 1.515 0 2.406-1.5 2.406-2.703ZM3.969-1.25c-.297.86-.797 1-1.031 1-.313 0-.563-.203-.657-.563l.531-2.109c.016-.062.016-.094.016-.156.39-.516.766-.656 1.047-.656.203 0 .516.125.516.64 0 .485-.313 1.594-.422 1.844Zm0 0"/></symbol><symbol overflow="visible" id="w"><path style="stroke:none" d="M2.969-1.328c0-.125-.11-.125-.25-.125-.219 0-.219.016-.281.234-.079.297-.235.969-.547.969-.11 0-.172-.078-.172-.281 0-.172.015-.235.062-.39l1.25-5c.016-.048.031-.095.031-.141 0-.172-.171-.157-.296-.157l-1.094.063c-.11 0-.281 0-.281.265 0 .157.156.157.234.157.11 0 .281.015.39.015L.86-1.062c-.046.14-.046.203-.046.265 0 .578.546.875 1.046.875.422 0 .641-.312.766-.484.234-.39.344-.89.344-.922Zm0 0"/></symbol><symbol overflow="visible" id="x"><path style="stroke:none" d="M5.516-1.328c0-.125-.11-.125-.25-.125-.22 0-.22.016-.282.234-.078.297-.234.969-.546.969-.11 0-.172-.078-.172-.281 0-.172.015-.235.062-.39l.594-2.423c.031-.125.031-.14.031-.187 0-.203-.14-.375-.39-.375a.62.62 0 0 0-.422.187c-.297-.297-.641-.328-.875-.328-1.5 0-2.407 1.484-2.407 2.688C.86-.297 1.61.078 2.297.078c.547 0 .969-.297 1.187-.469.172.313.563.47.922.47.422 0 .64-.313.766-.485.234-.39.344-.89.344-.922Zm-2.141.437c-.39.5-.766.641-1.047.641-.203 0-.5-.125-.5-.64 0-.485.313-1.579.406-1.829.297-.875.797-1.015 1.032-1.015.312 0 .562.203.656.562l-.516 2.11c-.031.062-.031.093-.031.171Zm0 0"/></symbol><symbol overflow="visible" id="y"><path style="stroke:none" d="M4.813-.766c0-.078-.188-.296-.282-.296-.015 0-.062 0-.125.062-.656.75-1.562.75-1.703.75-.484 0-.765-.281-.765-.797 0-.344.25-1.437.5-1.906.343-.64.906-.781 1.171-.781.094 0 .344.015.5.187a.686.686 0 0 0-.453.61c0 .124.078.406.453.406s.641-.313.641-.703c0-.438-.39-.813-1.14-.813-1.704 0-2.657 1.453-2.657 2.61 0 .734.422 1.515 1.75 1.515.235 0 .781-.031 1.266-.203.484-.188.844-.531.844-.64Zm0 0"/></symbol><symbol overflow="visible" id="z"><path style="stroke:none" d="M4.813-.766c0-.078-.188-.296-.282-.296-.015 0-.062 0-.125.062-.656.75-1.562.75-1.687.75-.5 0-.766-.297-.766-.828 0-.219.063-.578.14-.875h.36c.547 0 2.313 0 2.313-1.234 0-.547-.5-.86-1.157-.86C2.047-4.047.984-2.875.984-1.5c0 .969.61 1.578 1.72 1.578.28 0 .812-.031 1.265-.203.484-.188.844-.531.844-.64Zm-.625-2.437c0 .922-1.47.922-2.016.922.14-.438.219-.719.484-1 .25-.313.64-.453.953-.453.375 0 .579.25.579.53Zm0 0"/></symbol><symbol overflow="visible" id="A"><path style="stroke:none" d="M4.172-1.469c0-.203-.063-.5-.39-.765-.266-.204-.485-.25-.97-.344-.265-.047-.64-.125-.64-.453 0 0 0-.703.953-.703.094 0 .422 0 .625.218-.344.157-.344.47-.344.5 0 .22.172.375.39.375.235 0 .563-.187.563-.625 0-.5-.5-.78-1.218-.78-.688 0-1 .234-1.172.374-.297.25-.469.719-.469 1 0 .766.766.906 1.047.969.469.094.937.172.937.594 0 0 0 .859-1.234.859-.125 0-.547 0-.844-.25.063-.016.438-.188.438-.61 0-.327-.282-.406-.438-.406-.328 0-.64.266-.64.704 0 .562.578.89 1.453.89.25 0 .828-.015 1.312-.36.453-.327.64-.89.64-1.187Zm0 0"/></symbol><symbol overflow="visible" id="B"><path style="stroke:none" d="M3.766-1.328c0-.125-.125-.125-.266-.125-.188 0-.203.016-.266.156C2.86-.407 2.406-.25 2.172-.25c-.078 0-.188-.016-.188-.281 0-.172.032-.235.063-.39l.656-2.641h.719c.156 0 .312 0 .312-.266 0-.156-.156-.156-.28-.156h-.642l.172-.704c.063-.234.157-.625.157-.703 0-.203-.141-.375-.391-.375a.582.582 0 0 0-.578.47l-.313 1.312h-.734c-.156 0-.313 0-.313.265 0 .156.157.156.297.156h.641l-.625 2.5c-.047.141-.047.204-.047.266 0 .563.516.875 1.063.875 1.03 0 1.625-1.25 1.625-1.406Zm0 0"/></symbol><symbol overflow="visible" id="C"><path style="stroke:none" d="M5.047-3.25c0-.484-.484-.797-1.14-.797-.345 0-.766.094-1.157.484-.156-.28-.5-.484-.953-.484-.422 0-.64.297-.75.484-.234.376-.36.876-.36.907 0 .125.125.125.25.125.22 0 .235 0 .297-.235.063-.296.235-.968.532-.968.109 0 .171.078.171.28 0 .173-.015.25-.046.392L1.25-.517c-.047.141-.047.157-.047.204 0 .28.219.39.406.39a.593.593 0 0 0 .563-.484l.625-2.453c.047-.204.453-.875 1.078-.875.094 0 .313.015.5.156-.422.187-.422.562-.422.594 0 .234.156.421.438.421.343 0 .656-.296.656-.687Zm0 0"/></symbol><symbol overflow="visible" id="D"><path style="stroke:none" d="M3.5-1.328c0-.125-.125-.125-.25-.125-.172 0-.219 0-.25.11-.078.234-.313 1.093-.828 1.093-.047 0-.125 0-.125-.156 0-.125.062-.344.062-.36l.813-2.14A.729.729 0 0 0 3-3.25c0-.516-.453-.797-.938-.797-.937 0-1.374 1.203-1.374 1.39 0 .126.125.126.25.126.171 0 .218 0 .25-.11.078-.234.312-1.093.828-1.093.046 0 .125 0 .125.171 0 .11-.063.329-.063.36l-.812 2.125a.75.75 0 0 0-.079.36c0 .5.454.796.938.796C3.063.078 3.5-1.14 3.5-1.328ZM3.625-5.5a.537.537 0 0 0-.563-.547c-.406 0-.796.39-.796.781 0 .282.218.532.562.532.422 0 .797-.391.797-.766Zm0 0"/></symbol><symbol overflow="visible" id="E"><path style="stroke:none" d="m4.047.578.969-3.89c.03-.141.03-.22.03-.22 0-.202-.155-.374-.405-.374-.235 0-.329.11-.422.187-.25-.25-.547-.328-.86-.328-1.53 0-2.406 1.469-2.406 2.625C.953-.469 1.61 0 2.406 0c.297 0 .578-.078.875-.234L3.125.39c-.203.843-.719 1.093-1.203 1.093-.25 0-.453-.015-.563-.046a.719.719 0 0 0 .25-.5c0-.235-.171-.422-.437-.422a.66.66 0 0 0-.64.671c0 .547.702.625 1.374.625 1.078 0 1.938-.453 2.14-1.234Zm-.563-1.625c-.078.313-.609.719-1.03.719-.485 0-.532-.438-.532-.625 0-.5.328-1.578.453-1.906.281-.735.75-.875.984-.875.266 0 .547.14.657.546Zm0 0"/></symbol><symbol overflow="visible" id="F"><path style="stroke:none" d="M5.61-1.328c0-.125-.126-.125-.25-.125-.173 0-.22 0-.25.11C5.03-1.11 4.796-.25 4.28-.25c-.047 0-.125 0-.125-.156 0-.188.094-.422.203-.735.125-.328.532-1.39.532-1.906 0-.734-.532-1-1.235-1-.469 0-.828.14-1.203.453l.578-2.328c.016-.047.031-.094.031-.14 0-.172-.171-.157-.296-.157l-1.094.063c-.11 0-.281 0-.281.265 0 .157.156.157.234.157.11 0 .281.015.39.015L.72-.516c-.031.141-.031.157-.031.204 0 .218.171.39.406.39.11 0 .453-.047.562-.484l.547-2.235c.063-.25.563-1.093 1.39-1.093.376 0 .376.343.376.515 0 .531-.406 1.64-.563 2.047-.094.219-.11.313-.11.453 0 .5.454.797.938.797.938 0 1.375-1.219 1.375-1.406Zm0 0"/></symbol><symbol overflow="visible" id="G"><path style="stroke:none" d="M6.14-1.328c0-.125-.124-.125-.25-.125-.171 0-.218 0-.265.11-.063.234-.313 1.093-.813 1.093-.046 0-.125 0-.125-.156 0-.188.079-.422.204-.735.125-.328.53-1.39.53-1.906 0-.734-.53-1-1.25-1-.187 0-.765 0-1.359.61-.187-.516-.718-.61-1.015-.61-.422 0-.64.297-.75.484-.234.376-.36.876-.36.907 0 .125.125.125.25.125.22 0 .235 0 .297-.235.063-.296.235-.968.532-.968.109 0 .171.078.171.28 0 .173-.015.25-.046.392L1.25-.517c-.047.141-.047.157-.047.204 0 .28.219.39.406.39a.593.593 0 0 0 .563-.484l.562-2.235c.063-.25.563-1.093 1.375-1.093.391 0 .391.343.391.515 0 .531-.406 1.64-.578 2.047-.078.219-.094.313-.094.453 0 .5.453.797.938.797.921 0 1.375-1.219 1.375-1.406Zm0 0"/></symbol><symbol overflow="visible" id="H"><path style="stroke:none" d="M4.484 1.484c0-.156-.156-.171-.234-.171h-.39l1.265-5.079c.016-.03.016-.093.016-.125 0-.03-.016-.156-.157-.156 0 0-.5.11-.765.328-.282-.297-.625-.328-.86-.328-1.515 0-2.406 1.484-2.406 2.688 0 1.062.75 1.437 1.438 1.437.406 0 .734-.172.875-.25l-.329 1.344c-.03.125-.046.125-.14.14h-.313c-.156 0-.328 0-.328.266 0 .047.031.156.188.156.297 0 .625-.015.937-.015.313 0 .64.015.969.015.063 0 .234 0 .234-.25ZM3.47-.984c-.078.312-.594.734-1.047.734-.203 0-.516-.125-.516-.64 0-.485.313-1.579.422-1.829.297-.875.797-1.015 1.031-1.015.313 0 .563.203.657.562Zm0 0"/></symbol><symbol overflow="visible" id="I"><path style="stroke:none" d="M5.875-1.328c0-.125-.11-.125-.25-.125-.219 0-.219.016-.281.234-.078.297-.235.969-.547.969-.11 0-.172-.078-.172-.281 0-.172.016-.235.063-.39l.609-2.485c.047-.125.047-.14.047-.188 0-.281-.219-.39-.407-.39-.125 0-.468.062-.578.5l-.625 2.53c-.03.157-.046.188-.296.438a.888.888 0 0 1-.61.266c-.453 0-.469-.422-.469-.625 0-.531.297-1.328.516-1.89C2.953-3 3-3.11 3-3.25c0-.516-.453-.797-.938-.797-.937 0-1.374 1.203-1.374 1.39 0 .126.125.126.25.126.171 0 .218 0 .25-.11.078-.234.312-1.093.828-1.093.046 0 .125 0 .125.171 0 .188-.11.454-.157.579-.296.78-.546 1.421-.546 1.921 0 .829.593 1.141 1.328 1.141.25 0 .64-.047 1.078-.469.172.313.562.47.922.47.421 0 .64-.313.765-.485.235-.39.344-.89.344-.922Zm0 0"/></symbol><symbol overflow="visible" id="J"><path style="stroke:none" d="M4.984-3.281c0-.656-.406-.781-.578-.781-.312 0-.64.328-.64.64 0 .219.125.313.203.375.187.125.36.328.36.594 0 .031-.376 2.203-1.391 2.203-.5 0-.563-.39-.563-.672 0-.5.281-1.265.5-1.86C2.969-3 3-3.108 3-3.25c0-.516-.453-.797-.938-.797-.937 0-1.374 1.203-1.374 1.39 0 .126.125.126.25.126.171 0 .218 0 .25-.11.078-.234.312-1.093.828-1.093.046 0 .125 0 .125.171 0 .188-.11.454-.157.579-.343.906-.53 1.437-.53 1.89 0 1.016.874 1.172 1.421 1.172 1.594 0 2.11-2.89 2.11-3.36Zm0 0"/></symbol><symbol overflow="visible" id="K"><path style="stroke:none" d="M7.094-3.281c0-.656-.407-.781-.578-.781-.313 0-.641.328-.641.64 0 .219.125.313.219.375.172.125.343.328.343.594 0 .125-.218.984-.421 1.453-.188.438-.454.75-.829.75-.5 0-.578-.39-.578-.672 0-.312.22-1.14.454-2.078.078-.297.14-.5.14-.594 0-.281-.219-.39-.406-.39-.438 0-.547.406-.578.578l-.313 1.219c-.078.359-.219.843-.219 1.093 0 .094 0 .14.032.219-.172.375-.406.625-.703.625-.641 0-.641-.547-.641-.703 0-.5.25-1.125.516-1.875C2.953-2.984 3-3.11 3-3.25c0-.516-.453-.797-.938-.797-.937 0-1.374 1.203-1.374 1.39 0 .126.125.126.25.126.171 0 .218 0 .25-.11.078-.234.312-1.093.828-1.093.046 0 .125 0 .125.171 0 .188-.11.454-.157.579-.328.875-.53 1.421-.53 1.875 0 1 .874 1.187 1.5 1.187.452 0 .765-.219.952-.469.313.391.844.47 1.219.47.656 0 1.094-.454 1.406-1.173.282-.625.563-1.734.563-2.187Zm0 0"/></symbol><symbol overflow="visible" id="L"><path style="stroke:none" d="M5.61-1.328c0-.125-.126-.125-.25-.125-.22 0-.235.016-.298.234-.062.297-.234.969-.53.969-.11 0-.173-.078-.173-.281 0-.172.016-.235.047-.39l1.266-5c0-.048.016-.095.016-.141 0-.172-.157-.157-.282-.157l-1.093.063c-.11 0-.282 0-.282.265 0 .157.157.157.235.157.109 0 .265.015.375.015l-.47 1.953c-.28-.25-.609-.28-.812-.28C1.844-4.047.953-2.563.953-1.36c0 1.062.75 1.437 1.438 1.437.546 0 .968-.297 1.171-.469.172.313.579.47.938.47.422 0 .64-.313.75-.485.234-.39.36-.89.36-.922Zm-2.141.437c-.39.5-.766.641-1.047.641-.203 0-.516-.125-.516-.64 0-.485.313-1.579.422-1.829.297-.875.797-1.015 1.031-1.015.313 0 .563.203.657.562l-.532 2.11C3.47-1 3.47-.97 3.47-.891Zm0 0"/></symbol><symbol overflow="visible" id="M"><path style="stroke:none" d="M2.438-.797c0-.312-.22-.515-.547-.515-.36 0-.797.328-.797.78 0 .376.281.532.531.532.406 0 .813-.375.813-.797Zm0 0"/></symbol><symbol overflow="visible" id="P"><path style="stroke:none" d="M1.625-1.047C1.187-.328.797-.313.437-.28.376-.266.329-.203.329-.11c0 .046.047.109.125.109.172 0 .594-.031.766-.031.203 0 .687.031.875.031.062 0 .172 0 .172-.156 0-.11-.11-.125-.125-.125-.094 0-.422-.031-.422-.297 0-.125.093-.297.125-.344l.703-1.156H4.89c.03.219.046.515.078.734.031.36.093.75.093.782 0 .125-.125.28-.656.28-.078 0-.203 0-.203.173 0 .093.078.109.14.109.173 0 .391-.016.563-.016.172 0 .39-.015.532-.015.296 0 .328 0 .53.015.141 0 .36.016.5.016.048 0 .173 0 .173-.156 0-.125-.11-.125-.204-.125-.546 0-.546-.063-.578-.313l-.625-5.578c-.03-.203-.03-.25-.187-.25-.125 0-.172.063-.25.172Zm1.094-1.297L4.53-5.313l.328 2.97Zm0 0"/></symbol><symbol overflow="visible" id="X"><path style="stroke:none" d="M1.469-.688c-.094.329-.11.407-.782.407-.171 0-.265 0-.265.172C.422 0 .516 0 .672 0h3.265c1.454 0 2.516-1.063 2.516-1.922 0-.64-.531-1.187-1.406-1.281 1.016-.203 1.89-.875 1.89-1.672 0-.703-.656-1.25-1.718-1.25H2.156c-.172 0-.265 0-.265.156 0 .125.078.125.265.125.031 0 .188 0 .344.016.14.016.203.031.203.14 0 .032 0 .079-.031.172Zm1.39-2.609L3.406-5.5c.078-.328.094-.344.485-.344h1.203c.937 0 1.015.703 1.015.922 0 .813-.828 1.625-1.843 1.625ZM2.438-.28H2.25c-.094-.016-.11-.031-.11-.094 0-.016 0-.031.032-.203l.625-2.5h1.687c.563 0 1.125.25 1.125 1.062 0 .891-.812 1.735-1.89 1.735Zm0 0"/></symbol><symbol overflow="visible" id="Y"><path style="stroke:none" d="M6.938-6.078c.03-.11.03-.125.03-.14 0-.016-.015-.11-.109-.11-.046 0-.078.031-.14.11l-.547.593c-.031.047-.078.078-.078.078-.016 0-.016 0-.078-.062-.125-.188-.532-.72-1.47-.72-2.046 0-4.093 2-4.093 4.048C.453-.828 1.531.203 2.97.203c.937 0 1.672-.484 2.015-.797.813-.734.97-1.515.97-1.562 0-.031-.016-.094-.126-.094-.094 0-.11.047-.125.094C5.266-.72 3.984-.078 3.078-.078c-.86 0-1.781-.531-1.781-1.89 0-.407.125-1.813 1.031-2.923.547-.64 1.422-1.156 2.281-1.156 1 0 1.532.766 1.532 1.75 0 .313-.032.375-.032.438 0 .093.11.093.141.093.11 0 .11-.015.156-.187Zm0 0"/></symbol><symbol overflow="visible" id="ai"><path style="stroke:none" d="M1.438-.688c-.079.329-.094.407-.766.407-.172 0-.266 0-.266.172C.406 0 .5 0 .656 0h3.016c1.922 0 3.703-1.906 3.703-3.844 0-1.219-.766-2.281-2.172-2.281H2.141c-.172 0-.282 0-.282.156 0 .125.094.125.282.125.03 0 .187 0 .328.016.156.016.219.031.219.14 0 .032 0 .079-.032.172ZM3.421-5.5c.078-.328.094-.344.469-.344h1.015c.938 0 1.672.516 1.672 1.672 0 .516-.219 1.953-.922 2.844C5.25-.812 4.5-.281 3.516-.281h-1.25c-.094-.016-.125-.031-.125-.094 0-.016 0-.031.046-.203Zm0 0"/></symbol><symbol overflow="visible" id="aj"><path style="stroke:none" d="M2.813-3.031h.921c.641 0 .766.11.766.406 0 .063-.031.25-.063.406-.015.047-.03.094-.03.125 0 0 0 .11.124.11.11 0 .11-.063.157-.188l.468-1.89c.032-.125.032-.141.032-.188 0-.063-.047-.11-.125-.11-.094 0-.11.048-.141.22-.188.718-.469.827-1.188.827h-.843c.125-.546.546-2.25.593-2.359.063-.125.125-.156.422-.156H5.22c1.125 0 1.375.281 1.375 1 0 .281-.047.547-.047.61 0 .077.047.14.125.14.11 0 .125-.063.14-.234L7-5.97c0-.125-.094-.125-.266-.125H2.11c-.156 0-.265 0-.265.157 0 .109.093.109.281.109.031 0 .203 0 .344.031.187.016.203.063.203.14 0 .032 0 .048-.047.204L1.437-.687c-.078.328-.093.406-.78.406-.157 0-.266 0-.266.172C.39 0 .484 0 .64 0h4.734c.172 0 .188 0 .219-.031.015-.016.031-.016.078-.14.11-.235.875-1.938.875-2.032 0-.063-.047-.11-.125-.11s-.078 0-.172.22C5.687-.844 5.312-.282 3.828-.282H2.281c-.094-.016-.125-.031-.125-.094 0-.016 0-.031.047-.203Zm0 0"/></symbol><symbol overflow="visible" id="ak"><path style="stroke:none" d="M2.797-2.922h.875c.64 0 .765.11.765.406 0 .016-.015.188-.062.407-.047.093-.047.109-.047.125 0 .03.031.125.125.125.11 0 .11-.047.14-.188l.5-1.937c.016-.047.032-.094.032-.141 0-.047-.047-.125-.125-.125-.11 0-.125.078-.156.219-.188.703-.438.843-1.157.843H2.86c.125-.5.579-2.343.61-2.453.062-.187.156-.187.437-.187h1.235c1.125 0 1.328.297 1.328 1 0 .297-.047.547-.047.61 0 .077.047.14.125.14.11 0 .11-.063.14-.234l.188-1.657c0-.125-.094-.125-.266-.125h-4.5c-.171 0-.265 0-.265.157 0 .109.093.109.281.109.031 0 .203 0 .344.031.187.016.203.063.203.14 0 .032 0 .048-.047.204L1.437-.687c-.078.328-.093.406-.78.406-.157 0-.266 0-.266.172C.39-.063.42 0 .53 0c.094 0 .516-.016.61-.016.062-.015.39-.015.578-.015.172 0 .422.015.64.015.22 0 .47.016.688.016.062 0 .187 0 .187-.156 0-.125-.093-.125-.28-.125-.017 0-.25 0-.47-.016-.28-.031-.296-.062-.296-.172 0-.015 0-.062.03-.203Zm0 0"/></symbol><symbol overflow="visible" id="am"><path style="stroke:none" d="M6.938-6.078c.03-.11.03-.125.03-.14 0-.016-.015-.11-.109-.11-.046 0-.078.031-.14.11l-.547.593c-.031.047-.078.078-.078.078-.016 0-.016 0-.078-.062-.125-.188-.532-.72-1.47-.72-2.046 0-4.093 2-4.093 4.048C.453-.875 1.47.203 2.984.203c1.032 0 1.704-.437 1.954-.766.062.22.296.547.406.547.078 0 .093-.03.14-.218l.172-.688c.063-.25.14-.61.188-.812.125-.422.125-.438.64-.438.032 0 .157-.015.157-.172 0 0 0-.11-.125-.11-.079 0-.422.017-.485.017H4.906c-.218 0-.453-.016-.656-.016-.078 0-.188 0-.188.156 0 .125.079.125.313.125.188 0 .234 0 .453.016.25.015.297.047.297.172 0 .03 0 .046-.063.265-.062.266-.171.703-.203.766-.296.656-1.171.875-1.734.875-.781 0-1.828-.438-1.828-1.906 0-.547.187-1.875 1.031-2.907.531-.64 1.422-1.156 2.281-1.156 1 0 1.532.766 1.532 1.75 0 .313-.032.375-.032.438 0 .093.11.093.141.093.11 0 .11-.015.156-.187Zm0 0"/></symbol><symbol overflow="visible" id="an"><path style="stroke:none" d="M7-5.438c.078-.328.11-.406.797-.406.156 0 .25 0 .25-.172 0-.078-.063-.109-.14-.109l-.563.016c-.266.015-.282.015-.578.015-.282 0-.297 0-.563-.015-.187 0-.422-.016-.594-.016-.046 0-.171 0-.171.156 0 .125.093.125.265.125.031 0 .203 0 .344.016.172.016.219.047.219.14 0 .032-.016.063-.047.172l-.547 2.188H2.89l.53-2.11c.079-.343.11-.406.798-.406.156 0 .25 0 .25-.172 0-.078-.063-.109-.14-.109l-.563.016c-.266.015-.282.015-.579.015-.28 0-.296 0-.562-.015-.188 0-.422-.016-.594-.016-.047 0-.172 0-.172.156 0 .125.094.125.266.125.031 0 .203 0 .344.016.172.016.219.047.219.14 0 .032-.016.079-.047.172L1.437-.687c-.078.328-.093.406-.78.406-.157 0-.266 0-.266.172C.39-.031.453 0 .53 0c.172 0 .39-.016.563-.016.265-.015.281-.015.578-.015.281 0 .297 0 .578.015.172 0 .406.016.578.016C2.891 0 3 0 3-.156c0-.125-.078-.125-.281-.125-.031 0-.188 0-.328-.016-.204-.031-.22-.062-.22-.14 0-.032 0-.047.048-.204l.594-2.406h2.796C5.531-2.734 5-.594 4.953-.5c-.062.156-.078.219-.766.219-.109 0-.218 0-.218.172 0 .078.062.109.14.109.172 0 .391-.016.563-.016.266-.015.281-.015.578-.015.281 0 .297 0 .578.015.172 0 .406.016.578.016.063 0 .172 0 .172-.156 0-.125-.078-.125-.266-.125-.046 0-.203 0-.343-.016-.203-.031-.203-.062-.203-.14 0-.079.015-.157.03-.22Zm0 0"/></symbol><symbol overflow="visible" id="ao"><path style="stroke:none" d="M4.625-3.734 6.453-5.11l.11-.063c.546-.39.89-.625 1.421-.672.063-.015.157-.015.157-.172 0-.03-.032-.109-.11-.109-.062 0-.125.031-.656.031-.328 0-.656-.031-.969-.031-.062 0-.172 0-.172.156 0 .11.094.125.125.125.079 0 .25.016.25.157 0 .078-.046.187-.171.296-.047.032-.047.047-.079.063-.03.031-.046.047-.093.078L2.703-2.578l.719-2.86c.078-.343.11-.406.797-.406.156 0 .25 0 .25-.172 0-.078-.063-.109-.14-.109-.173 0-.376.016-.563.016-.188.015-.391.015-.579.015-.28 0-.296 0-.562-.015-.188 0-.422-.016-.594-.016-.047 0-.172 0-.172.156 0 .125.079.125.266.125.031 0 .203 0 .344.016.156.016.219.031.219.14 0 .032-.016.079-.047.172L1.437-.687c-.078.328-.093.406-.78.406-.157 0-.266 0-.266.172C.39-.016.469 0 .53 0c.172 0 .39-.016.563-.016.265-.015.281-.015.578-.015.281 0 .297 0 .578.015.172 0 .406.016.578.016C2.891 0 3 0 3-.156c0-.125-.078-.125-.281-.125-.031 0-.188 0-.328-.016-.204-.031-.22-.062-.22-.14 0-.079.095-.376.454-1.797l1.36-1.032L5.14-.75c.046.11.062.14.062.203 0 .266-.375.266-.453.266-.11 0-.219 0-.219.172 0 .078.094.109.157.109.171 0 .343-.016.515-.016s.36-.015.547-.015c.156 0 .39 0 .453.015L6.641 0c.046 0 .171 0 .171-.156 0-.125-.109-.125-.171-.125-.313 0-.47-.047-.61-.375Zm0 0"/></symbol><symbol overflow="visible" id="ap"><path style="stroke:none" d="M3.422-5.422c.078-.344.11-.422.937-.422.25 0 .329 0 .329-.172 0-.109-.11-.109-.141-.109-.203 0-.438.016-.656.016-.22 0-.422.015-.641.015-.203 0-.422 0-.625-.015-.156 0-.438-.016-.594-.016-.047 0-.172 0-.172.156 0 .125.079.125.266.125.031 0 .203 0 .344.016.156.016.219.031.219.14 0 .032-.016.079-.047.172L1.437-.687c-.078.328-.093.406-.78.406-.157 0-.266 0-.266.172C.39 0 .484 0 .64 0h4.234c.219 0 .234-.016.297-.203.094-.219.734-1.922.734-2 0-.063-.062-.11-.125-.11-.093 0-.093.032-.172.22-.296.796-.687 1.812-2.265 1.812H2.28c-.094-.016-.125-.031-.125-.094 0-.016 0-.031.047-.203Zm0 0"/></symbol></defs><use xlink:href="#a" x="57.24" y="113.437" style="fill:#ff8000;fill-opacity:1"/><use xlink:href="#b" x="97.17" y="110.349" style="fill:#00c;fill-opacity:1"/><use xlink:href="#c" x="88.962" y="51.068" style="fill:#00c;fill-opacity:1"/><path style="fill:none;stroke-width:.79701;stroke-linecap:butt;stroke-linejoin:miter;stroke:#00c;stroke-opacity:1;stroke-miterlimit:10" d="m27.613 3.712-.574 52.16" transform="matrix(1 0 0 -1 65.84 110.657)"/><path style="fill:none;stroke-width:.3985;stroke-linecap:butt;stroke-linejoin:miter;stroke:gray;stroke-opacity:1;stroke-miterlimit:10" d="m2.594.626 25.02 3.086" transform="matrix(1 0 0 -1 65.84 110.657)"/><use xlink:href="#d" x="74.004" y="83.102" style="fill:#000;fill-opacity:1"/><path style="fill:none;stroke-width:.3985;stroke-linecap:butt;stroke-linejoin:miter;stroke:gray;stroke-opacity:1;stroke-miterlimit:10" d="M12.43 23.837-24.457-63.21" transform="matrix(1 0 0 -1 65.84 110.657)"/><use xlink:href="#e" x="29.935" y="184.192" style="fill:#000;fill-opacity:1"/><path style="fill:none;stroke-width:.3985;stroke-linecap:butt;stroke-linejoin:miter;stroke:gray;stroke-opacity:1;stroke-miterlimit:10" d="m12.43 23.837 56.937-75.465" transform="matrix(1 0 0 -1 65.84 110.657)"/><use xlink:href="#f" x="138.727" y="172.613" style="fill:#000;fill-opacity:1"/><path style="fill:none;stroke-width:.3985;stroke-linecap:butt;stroke-linejoin:miter;stroke:gray;stroke-opacity:1;stroke-miterlimit:10" d="M79.773 3.712c0 28.808-23.351 52.164-52.16 52.164-28.808 0-52.164-23.356-52.164-52.164 0-28.809 23.356-52.16 52.164-52.16 28.809 0 52.16 23.351 52.16 52.16Zm0 0" transform="matrix(1 0 0 -1 65.84 110.657)"/><use xlink:href="#g" x="43.757" y="66.342" style="fill:#000;fill-opacity:1"/><use xlink:href="#h" x="128.573" y="151.959" style="fill:#000;fill-opacity:1"/><path style="fill:none;stroke-width:.3985;stroke-linecap:butt;stroke-linejoin:miter;stroke:gray;stroke-opacity:1;stroke-miterlimit:10" d="M89.7 23.837c0 42.675-34.599 77.27-77.27 77.27-42.676 0-77.274-34.595-77.274-77.27 0-42.676 34.598-77.27 77.274-77.27 42.671 0 77.27 34.594 77.27 77.27Zm0 0" transform="matrix(1 0 0 -1 65.84 110.657)"/><use xlink:href="#i" x="10.737" y="28.465" style="fill:#000;fill-opacity:1"/><use xlink:href="#j" x="44.72" y="168.511" style="fill:#b20000;fill-opacity:1"/><path style="fill:none;stroke-width:.79701;stroke-linecap:butt;stroke-linejoin:miter;stroke:#b20000;stroke-opacity:1;stroke-miterlimit:10" d="m2.594.626-20.325-47.953" transform="matrix(1 0 0 -1 65.84 110.657)"/><path style="stroke:none;fill-rule:nonzero;fill:#000;fill-opacity:.5" d="M70.426 110.031a1.996 1.996 0 0 0-1.992-1.992 1.996 1.996 0 0 0-1.996 1.992 1.994 1.994 0 0 0 3.988 0ZM95.445 106.945a1.993 1.993 0 1 0-3.986.002 1.993 1.993 0 0 0 3.986-.002ZM94.871 54.785a1.99 1.99 0 0 0-1.992-1.992 1.99 1.99 0 0 0-1.992 1.992 1.99 1.99 0 0 0 1.992 1.992 1.99 1.99 0 0 0 1.992-1.992ZM80.262 86.82a1.994 1.994 0 0 0-3.988 0 1.994 1.994 0 0 0 3.988 0ZM126.848 148.555a1.993 1.993 0 1 0-3.986.001 1.993 1.993 0 0 0 3.986-.001ZM50.102 157.984a1.993 1.993 0 1 0-3.983.002 1.993 1.993 0 0 0 3.983-.002Zm0 0"/><g style="fill:#000;fill-opacity:1"><use xlink:href="#k" x="182.944" y="7.141"/><use xlink:href="#l" x="190.189" y="7.141"/><use xlink:href="#m" x="194.564" y="7.141"/><use xlink:href="#n" x="199.873" y="7.141"/></g><g style="fill:#000;fill-opacity:1"><use xlink:href="#m" x="206.059" y="7.141"/><use xlink:href="#o" x="211.367" y="7.141"/><use xlink:href="#p" x="215.555" y="7.141"/><use xlink:href="#q" x="218.505" y="7.141"/><use xlink:href="#p" x="222.629" y="7.141"/><use xlink:href="#m" x="225.579" y="7.141"/><use xlink:href="#r" x="230.887" y="7.141"/></g><use xlink:href="#s" x="240.311" y="7.141" style="fill:#000;fill-opacity:1"/><use xlink:href="#s" x="244.606" y="7.141" style="fill:#000;fill-opacity:1"/><use xlink:href="#t" x="182.944" y="18.1" style="fill:#000;fill-opacity:1"/><use xlink:href="#u" x="189.292" y="18.1" style="fill:#000;fill-opacity:1"/><g style="fill:#000;fill-opacity:1"><use xlink:href="#v" x="197.918" y="18.1"/><use xlink:href="#w" x="203.217" y="18.1"/><use xlink:href="#x" x="205.88" y="18.1"/><use xlink:href="#y" x="211.179" y="18.1"/></g><use xlink:href="#z" x="215.429" y="18.1" style="fill:#000;fill-opacity:1"/><use xlink:href="#x" x="223.517" y="18.1" style="fill:#000;fill-opacity:1"/><g style="fill:#b20000;fill-opacity:1"><use xlink:href="#A" x="232.154" y="18.1"/><use xlink:href="#B" x="236.521" y="18.1"/><use xlink:href="#C" x="239.973" y="18.1"/></g><g style="fill:#b20000;fill-opacity:1"><use xlink:href="#x" x="243.954" y="18.1"/><use xlink:href="#D" x="249.253" y="18.1"/><use xlink:href="#E" x="252.445" y="18.1"/><use xlink:href="#F" x="257.215" y="18.1"/><use xlink:href="#B" x="262.514" y="18.1"/></g><g style="fill:#b20000;fill-opacity:1"><use xlink:href="#w" x="269.284" y="18.1"/><use xlink:href="#D" x="271.947" y="18.1"/><use xlink:href="#G" x="275.139" y="18.1"/><use xlink:href="#z" x="280.967" y="18.1"/></g><use xlink:href="#z" x="289.072" y="18.1" style="fill:#000;fill-opacity:1"/><g style="fill:#000;fill-opacity:1"><use xlink:href="#H" x="293.313" y="18.1"/><use xlink:href="#I" x="298.083" y="18.1"/><use xlink:href="#x" x="303.651" y="18.1"/><use xlink:href="#w" x="308.95" y="18.1"/></g><g style="fill:#000;fill-opacity:1"><use xlink:href="#B" x="314.94" y="18.1"/><use xlink:href="#u" x="318.392" y="18.1"/></g><use xlink:href="#x" x="327.018" y="18.1" style="fill:#000;fill-opacity:1"/><g style="fill:#000;fill-opacity:1"><use xlink:href="#E" x="335.652" y="18.1"/><use xlink:href="#D" x="340.422" y="18.1"/><use xlink:href="#J" x="343.614" y="18.1"/><use xlink:href="#z" x="348.385" y="18.1"/><use xlink:href="#G" x="353.155" y="18.1"/></g><g style="fill:#00c;fill-opacity:1"><use xlink:href="#A" x="362.316" y="18.1"/><use xlink:href="#B" x="366.683" y="18.1"/><use xlink:href="#C" x="370.135" y="18.1"/></g><g style="fill:#00c;fill-opacity:1"><use xlink:href="#x" x="374.107" y="18.1"/><use xlink:href="#D" x="379.406" y="18.1"/><use xlink:href="#E" x="382.598" y="18.1"/><use xlink:href="#F" x="387.368" y="18.1"/><use xlink:href="#B" x="392.667" y="18.1"/></g><g style="fill:#00c;fill-opacity:1"><use xlink:href="#w" x="399.446" y="18.1"/><use xlink:href="#D" x="402.109" y="18.1"/><use xlink:href="#G" x="405.301" y="18.1"/><use xlink:href="#z" x="411.129" y="18.1"/></g><g style="fill:#000;fill-opacity:1"><use xlink:href="#K" x="419.233" y="18.1"/><use xlink:href="#D" x="426.119" y="18.1"/><use xlink:href="#B" x="429.311" y="18.1"/><use xlink:href="#F" x="432.763" y="18.1"/></g><g style="fill:#000;fill-opacity:1"><use xlink:href="#u" x="182.944" y="29.059"/><use xlink:href="#G" x="188.243" y="29.059"/><use xlink:href="#z" x="194.071" y="29.059"/></g><g style="fill:#000;fill-opacity:1"><use xlink:href="#z" x="202.553" y="29.059"/><use xlink:href="#G" x="207.324" y="29.059"/><use xlink:href="#L" x="213.152" y="29.059"/></g><g style="fill:#000;fill-opacity:1"><use xlink:href="#x" x="222.163" y="29.059"/><use xlink:href="#B" x="227.462" y="29.059"/></g><use xlink:href="#x" x="234.626" y="29.059" style="fill:#000;fill-opacity:1"/><g style="fill:#ff8000;fill-opacity:1"><use xlink:href="#E" x="243.638" y="29.059"/><use xlink:href="#D" x="248.408" y="29.059"/><use xlink:href="#J" x="251.6" y="29.059"/><use xlink:href="#z" x="256.37" y="29.059"/><use xlink:href="#G" x="261.14" y="29.059"/></g><use xlink:href="#v" x="270.681" y="29.059" style="fill:#ff8000;fill-opacity:1"/><g style="fill:#ff8000;fill-opacity:1"><use xlink:href="#u" x="275.451" y="29.059"/><use xlink:href="#D" x="280.75" y="29.059"/><use xlink:href="#G" x="283.942" y="29.059"/><use xlink:href="#B" x="289.77" y="29.059"/></g><use xlink:href="#M" x="293.222" y="29.059" style="fill:#000;fill-opacity:1"/><g style="fill:#000;fill-opacity:1"><use xlink:href="#N" x="182.944" y="48.985"/><use xlink:href="#O" x="189.319" y="48.985"/><use xlink:href="#q" x="194.188" y="48.985"/></g><use xlink:href="#P" x="203.165" y="48.985" style="fill:#ff8000;fill-opacity:1"/><use xlink:href="#Q" x="214.928" y="48.985" style="fill:#000;fill-opacity:1"/><use xlink:href="#O" x="221.115" y="48.985" style="fill:#000;fill-opacity:1"/><g style="fill:#000;fill-opacity:1"><use xlink:href="#q" x="230.834" y="48.985"/><use xlink:href="#R" x="234.959" y="48.985"/><use xlink:href="#O" x="240.85" y="48.985"/></g><g style="fill:#000;fill-opacity:1"><use xlink:href="#S" x="250.569" y="48.985"/><use xlink:href="#p" x="255.877" y="48.985"/><use xlink:href="#T" x="258.827" y="48.985"/></g><g style="fill:#000;fill-opacity:1"><use xlink:href="#O" x="264.144" y="48.985"/><use xlink:href="#r" x="269.013" y="48.985"/></g><use xlink:href="#n" x="279.746" y="48.985" style="fill:#000;fill-opacity:1"/><g style="fill:#000;fill-opacity:1"><use xlink:href="#m" x="285.933" y="48.985"/><use xlink:href="#p" x="291.241" y="48.985"/><use xlink:href="#r" x="294.191" y="48.985"/></g><g style="fill:#000;fill-opacity:1"><use xlink:href="#q" x="299.795" y="48.985"/><use xlink:href="#U" x="303.919" y="48.985"/></g><g style="fill:#000;fill-opacity:1"><use xlink:href="#V" x="312.043" y="48.985"/><use xlink:href="#r" x="317.199" y="48.985"/><use xlink:href="#W" x="323.089" y="48.985"/></g><use xlink:href="#X" x="333.838" y="48.985" style="fill:#00c;fill-opacity:1"/><use xlink:href="#Y" x="341.258" y="48.985" style="fill:#00c;fill-opacity:1"/><g style="fill:#000;fill-opacity:1"><use xlink:href="#q" x="353.327" y="48.985"/><use xlink:href="#R" x="357.452" y="48.985"/><use xlink:href="#O" x="363.342" y="48.985"/></g><g style="fill:#000;fill-opacity:1"><use xlink:href="#S" x="373.062" y="48.985"/><use xlink:href="#p" x="378.37" y="48.985"/><use xlink:href="#T" x="381.32" y="48.985"/></g><g style="fill:#000;fill-opacity:1"><use xlink:href="#O" x="386.637" y="48.985"/><use xlink:href="#r" x="391.506" y="48.985"/></g><g style="fill:#00c;fill-opacity:1"><use xlink:href="#o" x="402.242" y="48.985"/><use xlink:href="#q" x="406.429" y="48.985"/><use xlink:href="#l" x="410.554" y="48.985"/><use xlink:href="#V" x="414.929" y="48.985"/><use xlink:href="#p" x="420.085" y="48.985"/><use xlink:href="#S" x="423.035" y="48.985"/><use xlink:href="#R" x="428.343" y="48.985"/></g><use xlink:href="#q" x="433.938" y="48.985" style="fill:#00c;fill-opacity:1"/><g style="fill:#00c;fill-opacity:1"><use xlink:href="#Z" x="182.944" y="59.943"/><use xlink:href="#p" x="185.894" y="59.943"/><use xlink:href="#r" x="188.844" y="59.943"/><use xlink:href="#O" x="194.735" y="59.943"/></g><use xlink:href="#aa" x="199.604" y="59.943" style="fill:#000;fill-opacity:1"/><g style="fill:#000;fill-opacity:1"><use xlink:href="#s" x="207.71" y="59.943"/><use xlink:href="#q" x="211.709" y="59.943"/></g><g style="fill:#000;fill-opacity:1"><use xlink:href="#p" x="219.518" y="59.943"/><use xlink:href="#o" x="222.468" y="59.943"/></g><g style="fill:#000;fill-opacity:1"><use xlink:href="#l" x="230.332" y="59.943"/><use xlink:href="#O" x="234.707" y="59.943"/><use xlink:href="#ab" x="239.576" y="59.943"/><use xlink:href="#ac" x="245.18" y="59.943"/><use xlink:href="#p" x="251.071" y="59.943"/><use xlink:href="#l" x="254.021" y="59.943"/><use xlink:href="#O" x="258.397" y="59.943"/><use xlink:href="#W" x="263.265" y="59.943"/></g><g style="fill:#000;fill-opacity:1"><use xlink:href="#q" x="272.841" y="59.943"/><use xlink:href="#m" x="276.966" y="59.943"/></g><g style="fill:#000;fill-opacity:1"><use xlink:href="#n" x="285.959" y="59.943"/><use xlink:href="#Z" x="291.85" y="59.943"/><use xlink:href="#V" x="294.8" y="59.943"/><use xlink:href="#ad" x="299.956" y="59.943"/><use xlink:href="#O" x="304.672" y="59.943"/></g><use xlink:href="#V" x="313.226" y="59.943" style="fill:#000;fill-opacity:1"/><g style="fill:#b20000;fill-opacity:1"><use xlink:href="#o" x="322.065" y="59.943"/><use xlink:href="#q" x="326.252" y="59.943"/><use xlink:href="#l" x="330.377" y="59.943"/><use xlink:href="#V" x="334.752" y="59.943"/><use xlink:href="#p" x="339.908" y="59.943"/><use xlink:href="#S" x="342.858" y="59.943"/><use xlink:href="#R" x="348.166" y="59.943"/></g><use xlink:href="#q" x="353.761" y="59.943" style="fill:#b20000;fill-opacity:1"/><g style="fill:#b20000;fill-opacity:1"><use xlink:href="#Z" x="361.562" y="59.943"/><use xlink:href="#p" x="364.512" y="59.943"/><use xlink:href="#r" x="367.462" y="59.943"/><use xlink:href="#O" x="373.353" y="59.943"/></g><g style="fill:#000;fill-opacity:1"><use xlink:href="#O" x="381.911" y="59.943"/><use xlink:href="#ab" x="386.78" y="59.943"/><use xlink:href="#ac" x="392.384" y="59.943"/><use xlink:href="#V" x="398.275" y="59.943"/><use xlink:href="#Z" x="403.43" y="59.943"/></g><g style="fill:#000;fill-opacity:1"><use xlink:href="#q" x="410.056" y="59.943"/><use xlink:href="#m" x="414.181" y="59.943"/></g><g style="fill:#000;fill-opacity:1"><use xlink:href="#q" x="423.174" y="59.943"/><use xlink:href="#R" x="427.299" y="59.943"/><use xlink:href="#O" x="433.19" y="59.943"/></g><g style="fill:#000;fill-opacity:1"><use xlink:href="#S" x="182.944" y="70.902"/><use xlink:href="#p" x="188.252" y="70.902"/><use xlink:href="#T" x="191.202" y="70.902"/></g><g style="fill:#000;fill-opacity:1"><use xlink:href="#O" x="196.51" y="70.902"/><use xlink:href="#r" x="201.379" y="70.902"/></g><g style="fill:#00c;fill-opacity:1"><use xlink:href="#o" x="210.803" y="70.902"/><use xlink:href="#q" x="214.99" y="70.902"/><use xlink:href="#l" x="219.115" y="70.902"/><use xlink:href="#V" x="223.49" y="70.902"/><use xlink:href="#p" x="228.646" y="70.902"/><use xlink:href="#S" x="231.596" y="70.902"/><use xlink:href="#R" x="236.904" y="70.902"/></g><use xlink:href="#q" x="242.499" y="70.902" style="fill:#00c;fill-opacity:1"/><g style="fill:#00c;fill-opacity:1"><use xlink:href="#Z" x="250.156" y="70.902"/><use xlink:href="#p" x="253.106" y="70.902"/><use xlink:href="#r" x="256.056" y="70.902"/><use xlink:href="#O" x="261.947" y="70.902"/></g><use xlink:href="#X" x="270.349" y="70.902" style="fill:#00c;fill-opacity:1"/><use xlink:href="#Y" x="277.768" y="70.902" style="fill:#00c;fill-opacity:1"/><g style="fill:#000;fill-opacity:1"><use xlink:href="#ae" x="288.517" y="70.902"/><use xlink:href="#p" x="296.183" y="70.902"/><use xlink:href="#q" x="299.133" y="70.902"/><use xlink:href="#R" x="303.258" y="70.902"/></g><g style="fill:#000;fill-opacity:1"><use xlink:href="#m" x="312.681" y="70.902"/><use xlink:href="#r" x="317.989" y="70.902"/><use xlink:href="#O" x="323.88" y="70.902"/></g><g style="fill:#000;fill-opacity:1"><use xlink:href="#O" x="332.282" y="70.902"/><use xlink:href="#r" x="337.151" y="70.902"/><use xlink:href="#W" x="343.042" y="70.902"/></g><g style="fill:#000;fill-opacity:1"><use xlink:href="#V" x="352.465" y="70.902"/><use xlink:href="#q" x="357.621" y="70.902"/></g><g style="fill:#000;fill-opacity:1"><use xlink:href="#q" x="365.278" y="70.902"/><use xlink:href="#R" x="369.403" y="70.902"/><use xlink:href="#O" x="375.294" y="70.902"/></g><use xlink:href="#n" x="383.695" y="70.902" style="fill:#000;fill-opacity:1"/><g style="fill:#000;fill-opacity:1"><use xlink:href="#m" x="389.882" y="70.902"/><use xlink:href="#p" x="395.19" y="70.902"/><use xlink:href="#r" x="398.14" y="70.902"/></g><use xlink:href="#q" x="403.735" y="70.902" style="fill:#000;fill-opacity:1"/><use xlink:href="#P" x="411.392" y="70.902" style="fill:#ff8000;fill-opacity:1"/><use xlink:href="#aa" x="418.302" y="70.902" style="fill:#000;fill-opacity:1"/><g style="fill:#000;fill-opacity:1"><use xlink:href="#af" x="182.944" y="81.861"/><use xlink:href="#m" x="188.422" y="81.861"/><use xlink:href="#p" x="193.731" y="81.861"/><use xlink:href="#r" x="196.68" y="81.861"/></g><g style="fill:#000;fill-opacity:1"><use xlink:href="#q" x="205.988" y="81.861"/><use xlink:href="#R" x="210.112" y="81.861"/><use xlink:href="#O" x="216.003" y="81.861"/></g><g style="fill:#000;fill-opacity:1"><use xlink:href="#o" x="224.288" y="81.861"/><use xlink:href="#q" x="228.475" y="81.861"/><use xlink:href="#l" x="232.6" y="81.861"/><use xlink:href="#V" x="236.975" y="81.861"/><use xlink:href="#p" x="242.131" y="81.861"/><use xlink:href="#S" x="245.081" y="81.861"/><use xlink:href="#R" x="250.389" y="81.861"/></g><use xlink:href="#q" x="255.993" y="81.861" style="fill:#000;fill-opacity:1"/><g style="fill:#000;fill-opacity:1"><use xlink:href="#Z" x="263.525" y="81.861"/><use xlink:href="#p" x="266.475" y="81.861"/><use xlink:href="#r" x="269.425" y="81.861"/><use xlink:href="#O" x="275.316" y="81.861"/></g><use xlink:href="#P" x="283.604" y="81.861" style="fill:#ff8000;fill-opacity:1"/><use xlink:href="#X" x="290.514" y="81.861" style="fill:#00c;fill-opacity:1"/><g style="fill:#000;fill-opacity:1"><use xlink:href="#ag" x="301.351" y="81.861"/><use xlink:href="#l" x="304.597" y="81.861"/><use xlink:href="#m" x="308.972" y="81.861"/><use xlink:href="#ah" x="314.281" y="81.861"/></g><g style="fill:#000;fill-opacity:1"><use xlink:href="#q" x="326.538" y="81.861"/><use xlink:href="#R" x="330.662" y="81.861"/><use xlink:href="#O" x="336.553" y="81.861"/></g><use xlink:href="#n" x="344.838" y="81.861" style="fill:#000;fill-opacity:1"/><g style="fill:#000;fill-opacity:1"><use xlink:href="#m" x="351.025" y="81.861"/><use xlink:href="#p" x="356.333" y="81.861"/><use xlink:href="#r" x="359.283" y="81.861"/></g><use xlink:href="#q" x="364.887" y="81.861" style="fill:#000;fill-opacity:1"/><use xlink:href="#P" x="372.42" y="81.861" style="fill:#ff8000;fill-opacity:1"/><g style="fill:#000;fill-opacity:1"><use xlink:href="#q" x="382.747" y="81.861"/><use xlink:href="#m" x="386.872" y="81.861"/></g><g style="fill:#000;fill-opacity:1"><use xlink:href="#q" x="395.596" y="81.861"/><use xlink:href="#R" x="399.72" y="81.861"/><use xlink:href="#O" x="405.611" y="81.861"/></g><use xlink:href="#n" x="413.896" y="81.861" style="fill:#000;fill-opacity:1"/><g style="fill:#000;fill-opacity:1"><use xlink:href="#m" x="420.083" y="81.861"/><use xlink:href="#p" x="425.391" y="81.861"/><use xlink:href="#r" x="428.341" y="81.861"/></g><use xlink:href="#q" x="433.945" y="81.861" style="fill:#000;fill-opacity:1"/><use xlink:href="#X" x="182.944" y="92.82" style="fill:#00c;fill-opacity:1"/><use xlink:href="#U" x="190.364" y="92.82" style="fill:#000;fill-opacity:1"/><g style="fill:#000;fill-opacity:1"><use xlink:href="#V" x="196.847" y="92.82"/><use xlink:href="#r" x="202.002" y="92.82"/><use xlink:href="#W" x="207.893" y="92.82"/></g><g style="fill:#000;fill-opacity:1"><use xlink:href="#ad" x="217.317" y="92.82"/><use xlink:href="#m" x="222.033" y="92.82"/><use xlink:href="#r" x="227.341" y="92.82"/><use xlink:href="#o" x="233.232" y="92.82"/><use xlink:href="#q" x="237.42" y="92.82"/><use xlink:href="#l" x="241.544" y="92.82"/><use xlink:href="#ac" x="245.92" y="92.82"/><use xlink:href="#ad" x="251.811" y="92.82"/><use xlink:href="#q" x="256.527" y="92.82"/></g><g style="fill:#000;fill-opacity:1"><use xlink:href="#q" x="264.184" y="92.82"/><use xlink:href="#R" x="268.309" y="92.82"/><use xlink:href="#O" x="274.2" y="92.82"/></g><g style="fill:#000;fill-opacity:1"><use xlink:href="#O" x="282.601" y="92.82"/><use xlink:href="#ab" x="287.47" y="92.82"/><use xlink:href="#ac" x="293.074" y="92.82"/><use xlink:href="#p" x="298.965" y="92.82"/><use xlink:href="#Z" x="301.915" y="92.82"/><use xlink:href="#V" x="304.865" y="92.82"/><use xlink:href="#q" x="310.02" y="92.82"/><use xlink:href="#O" x="314.145" y="92.82"/><use xlink:href="#l" x="319.014" y="92.82"/><use xlink:href="#V" x="323.389" y="92.82"/><use xlink:href="#Z" x="328.545" y="92.82"/></g><g style="fill:#000;fill-opacity:1"><use xlink:href="#q" x="335.028" y="92.82"/><use xlink:href="#l" x="339.152" y="92.82"/><use xlink:href="#p" x="343.528" y="92.82"/><use xlink:href="#V" x="346.478" y="92.82"/><use xlink:href="#r" x="351.633" y="92.82"/><use xlink:href="#S" x="357.524" y="92.82"/><use xlink:href="#Z" x="362.832" y="92.82"/><use xlink:href="#O" x="365.782" y="92.82"/></g><use xlink:href="#ai" x="374.184" y="92.82" style="fill:#000;fill-opacity:1"/><use xlink:href="#P" x="382.039" y="92.82" style="fill:#ff8000;fill-opacity:1"/><use xlink:href="#X" x="388.949" y="92.82" style="fill:#00c;fill-opacity:1"/><g style="fill:#000;fill-opacity:1"><use xlink:href="#m" x="399.901" y="92.82"/><use xlink:href="#r" x="405.209" y="92.82"/></g><g style="fill:#000;fill-opacity:1"><use xlink:href="#p" x="414.633" y="92.82"/><use xlink:href="#q" x="417.583" y="92.82"/><use xlink:href="#aa" x="421.707" y="92.82"/></g><g style="fill:#000;fill-opacity:1"><use xlink:href="#k" x="182.944" y="103.779"/><use xlink:href="#l" x="190.189" y="103.779"/><use xlink:href="#m" x="194.564" y="103.779"/></g><g style="fill:#000;fill-opacity:1"><use xlink:href="#W" x="200.168" y="103.779"/><use xlink:href="#ac" x="206.059" y="103.779"/><use xlink:href="#ad" x="211.95" y="103.779"/><use xlink:href="#O" x="216.667" y="103.779"/></g><g style="fill:#000;fill-opacity:1"><use xlink:href="#q" x="224.808" y="103.779"/><use xlink:href="#R" x="228.933" y="103.779"/><use xlink:href="#O" x="234.823" y="103.779"/></g><g style="fill:#000;fill-opacity:1"><use xlink:href="#o" x="242.974" y="103.779"/><use xlink:href="#q" x="247.161" y="103.779"/><use xlink:href="#l" x="251.286" y="103.779"/><use xlink:href="#V" x="255.661" y="103.779"/><use xlink:href="#p" x="260.817" y="103.779"/><use xlink:href="#S" x="263.767" y="103.779"/><use xlink:href="#R" x="269.075" y="103.779"/></g><use xlink:href="#q" x="274.679" y="103.779" style="fill:#000;fill-opacity:1"/><g style="fill:#000;fill-opacity:1"><use xlink:href="#Z" x="282.067" y="103.779"/><use xlink:href="#p" x="285.017" y="103.779"/><use xlink:href="#r" x="287.967" y="103.779"/><use xlink:href="#O" x="293.858" y="103.779"/><use xlink:href="#o" x="298.727" y="103.779"/></g><use xlink:href="#P" x="306.197" y="103.779" style="fill:#ff8000;fill-opacity:1"/><use xlink:href="#aj" x="313.107" y="103.779" style="fill:#000;fill-opacity:1"/><g style="fill:#000;fill-opacity:1"><use xlink:href="#V" x="323.677" y="103.779"/><use xlink:href="#r" x="328.833" y="103.779"/><use xlink:href="#W" x="334.724" y="103.779"/></g><use xlink:href="#X" x="343.892" y="103.779" style="fill:#00c;fill-opacity:1"/><use xlink:href="#ak" x="351.312" y="103.779" style="fill:#000;fill-opacity:1"/><g style="fill:#000;fill-opacity:1"><use xlink:href="#p" x="361.753" y="103.779"/><use xlink:href="#r" x="364.703" y="103.779"/></g><use xlink:href="#V" x="373.867" y="103.779" style="fill:#000;fill-opacity:1"/><g style="fill:#000;fill-opacity:1"><use xlink:href="#o" x="382.304" y="103.779"/><use xlink:href="#q" x="386.491" y="103.779"/><use xlink:href="#l" x="390.616" y="103.779"/><use xlink:href="#V" x="394.991" y="103.779"/><use xlink:href="#p" x="400.147" y="103.779"/><use xlink:href="#S" x="403.097" y="103.779"/><use xlink:href="#R" x="408.405" y="103.779"/></g><use xlink:href="#q" x="414.009" y="103.779" style="fill:#000;fill-opacity:1"/><g style="fill:#000;fill-opacity:1"><use xlink:href="#Z" x="421.397" y="103.779"/><use xlink:href="#p" x="424.347" y="103.779"/><use xlink:href="#r" x="427.297" y="103.779"/><use xlink:href="#O" x="433.188" y="103.779"/></g><g style="fill:#000;fill-opacity:1"><use xlink:href="#ae" x="182.944" y="114.738"/><use xlink:href="#p" x="190.61" y="114.738"/><use xlink:href="#q" x="193.56" y="114.738"/><use xlink:href="#R" x="197.685" y="114.738"/></g><use xlink:href="#ai" x="207.096" y="114.738" style="fill:#000;fill-opacity:1"/><use xlink:href="#P" x="214.951" y="114.738" style="fill:#ff8000;fill-opacity:1"/><g style="fill:#000;fill-opacity:1"><use xlink:href="#V" x="225.381" y="114.738"/><use xlink:href="#r" x="230.537" y="114.738"/><use xlink:href="#W" x="236.428" y="114.738"/></g><use xlink:href="#ai" x="245.838" y="114.738" style="fill:#000;fill-opacity:1"/><use xlink:href="#X" x="253.693" y="114.738" style="fill:#00c;fill-opacity:1"/><use xlink:href="#aa" x="261.113" y="114.738" style="fill:#000;fill-opacity:1"/><g style="fill:#000;fill-opacity:1"><use xlink:href="#al" x="268.761" y="114.738"/><use xlink:href="#O" x="276.894" y="114.738"/><use xlink:href="#o" x="281.763" y="114.738"/><use xlink:href="#ad" x="285.95" y="114.738"/><use xlink:href="#l" x="290.666" y="114.738"/><use xlink:href="#p" x="295.042" y="114.738"/><use xlink:href="#Q" x="297.992" y="114.738"/></g><use xlink:href="#O" x="304.179" y="114.738" style="fill:#000;fill-opacity:1"/><g style="fill:#000;fill-opacity:1"><use xlink:href="#q" x="312.571" y="114.738"/><use xlink:href="#R" x="316.696" y="114.738"/><use xlink:href="#O" x="322.587" y="114.738"/></g><g style="fill:#000;fill-opacity:1"><use xlink:href="#ad" x="330.979" y="114.738"/><use xlink:href="#p" x="335.695" y="114.738"/><use xlink:href="#l" x="338.645" y="114.738"/><use xlink:href="#ad" x="343.021" y="114.738"/><use xlink:href="#Z" x="347.737" y="114.738"/><use xlink:href="#O" x="350.687" y="114.738"/></g><use xlink:href="#Y" x="359.075" y="114.738" style="fill:#00c;fill-opacity:1"/><g style="fill:#000;fill-opacity:1"><use xlink:href="#am" x="366.291" y="114.738"/><use xlink:href="#an" x="373.507" y="114.738"/></g><g style="fill:#000;fill-opacity:1"><use xlink:href="#ae" x="385.362" y="114.738"/><use xlink:href="#p" x="393.028" y="114.738"/><use xlink:href="#q" x="395.978" y="114.738"/><use xlink:href="#R" x="400.103" y="114.738"/></g><g style="fill:#000;fill-opacity:1"><use xlink:href="#ad" x="409.508" y="114.738"/><use xlink:href="#O" x="414.225" y="114.738"/><use xlink:href="#r" x="419.094" y="114.738"/></g><g style="fill:#000;fill-opacity:1"><use xlink:href="#q" x="424.698" y="114.738"/><use xlink:href="#O" x="428.822" y="114.738"/><use xlink:href="#l" x="433.691" y="114.738"/></g><use xlink:href="#X" x="182.944" y="125.697" style="fill:#00c;fill-opacity:1"/><g style="fill:#000;fill-opacity:1"><use xlink:href="#V" x="194.86" y="125.697"/><use xlink:href="#r" x="200.016" y="125.697"/><use xlink:href="#W" x="205.907" y="125.697"/></g><g style="fill:#000;fill-opacity:1"><use xlink:href="#l" x="216.29" y="125.697"/><use xlink:href="#V" x="220.665" y="125.697"/><use xlink:href="#W" x="225.821" y="125.697"/><use xlink:href="#p" x="231.712" y="125.697"/><use xlink:href="#ac" x="234.662" y="125.697"/><use xlink:href="#o" x="240.553" y="125.697"/></g><use xlink:href="#X" x="249.239" y="125.697" style="fill:#00c;fill-opacity:1"/><use xlink:href="#Y" x="256.659" y="125.697" style="fill:#00c;fill-opacity:1"/><use xlink:href="#U" x="263.875" y="125.697" style="fill:#000;fill-opacity:1"/><g style="fill:#000;fill-opacity:1"><use xlink:href="#V" x="271.559" y="125.697"/><use xlink:href="#r" x="276.715" y="125.697"/><use xlink:href="#W" x="282.606" y="125.697"/></g><g style="fill:#000;fill-opacity:1"><use xlink:href="#V" x="292.989" y="125.697"/><use xlink:href="#S" x="298.145" y="125.697"/><use xlink:href="#V" x="303.453" y="125.697"/><use xlink:href="#p" x="308.608" y="125.697"/><use xlink:href="#r" x="311.558" y="125.697"/><use xlink:href="#U" x="317.449" y="125.697"/></g><g style="fill:#000;fill-opacity:1"><use xlink:href="#W" x="325.133" y="125.697"/><use xlink:href="#O" x="331.024" y="125.697"/><use xlink:href="#o" x="335.893" y="125.697"/><use xlink:href="#ad" x="340.08" y="125.697"/><use xlink:href="#l" x="344.797" y="125.697"/><use xlink:href="#p" x="349.172" y="125.697"/><use xlink:href="#Q" x="352.122" y="125.697"/></g><use xlink:href="#O" x="358.309" y="125.697" style="fill:#000;fill-opacity:1"/><g style="fill:#000;fill-opacity:1"><use xlink:href="#q" x="367.679" y="125.697"/><use xlink:href="#R" x="371.803" y="125.697"/><use xlink:href="#O" x="377.694" y="125.697"/></g><g style="fill:#000;fill-opacity:1"><use xlink:href="#ad" x="387.055" y="125.697"/><use xlink:href="#p" x="391.771" y="125.697"/><use xlink:href="#l" x="394.721" y="125.697"/><use xlink:href="#ad" x="399.097" y="125.697"/><use xlink:href="#Z" x="403.813" y="125.697"/><use xlink:href="#O" x="406.763" y="125.697"/></g><g style="fill:#000;fill-opacity:1"><use xlink:href="#am" x="416.134" y="125.697"/><use xlink:href="#ao" x="423.35" y="125.697"/></g><use xlink:href="#ap" x="431.792" y="125.697" style="fill:#b20000;fill-opacity:1"/><g style="fill:#000;fill-opacity:1"><use xlink:href="#ae" x="182.944" y="136.656"/><use xlink:href="#p" x="190.61" y="136.656"/><use xlink:href="#q" x="193.56" y="136.656"/><use xlink:href="#R" x="197.685" y="136.656"/></g><g style="fill:#000;fill-opacity:1"><use xlink:href="#ad" x="207.108" y="136.656"/><use xlink:href="#O" x="211.825" y="136.656"/><use xlink:href="#r" x="216.693" y="136.656"/></g><g style="fill:#000;fill-opacity:1"><use xlink:href="#q" x="222.288" y="136.656"/><use xlink:href="#O" x="226.413" y="136.656"/><use xlink:href="#l" x="231.282" y="136.656"/></g><use xlink:href="#ai" x="239.19" y="136.656" style="fill:#000;fill-opacity:1"/><g style="fill:#000;fill-opacity:1"><use xlink:href="#V" x="250.578" y="136.656"/><use xlink:href="#r" x="255.734" y="136.656"/><use xlink:href="#W" x="261.625" y="136.656"/></g><g style="fill:#000;fill-opacity:1"><use xlink:href="#l" x="271.048" y="136.656"/><use xlink:href="#V" x="275.424" y="136.656"/><use xlink:href="#W" x="280.58" y="136.656"/><use xlink:href="#p" x="286.47" y="136.656"/><use xlink:href="#ac" x="289.42" y="136.656"/><use xlink:href="#o" x="295.311" y="136.656"/></g><use xlink:href="#ai" x="303.032" y="136.656" style="fill:#000;fill-opacity:1"/><use xlink:href="#am" x="310.882" y="136.656" style="fill:#000;fill-opacity:1"/><use xlink:href="#aa" x="318.102" y="136.656" style="fill:#000;fill-opacity:1"/><g style="fill:#000;fill-opacity:1"><use xlink:href="#aq" x="182.944" y="147.615"/><use xlink:href="#p" x="188.835" y="147.615"/><use xlink:href="#r" x="191.785" y="147.615"/><use xlink:href="#ad" x="197.676" y="147.615"/><use xlink:href="#O" x="202.392" y="147.615"/></g><g style="fill:#000;fill-opacity:1"><use xlink:href="#q" x="210.193" y="147.615"/><use xlink:href="#R" x="214.317" y="147.615"/><use xlink:href="#O" x="220.208" y="147.615"/></g><use xlink:href="#n" x="228.009" y="147.615" style="fill:#000;fill-opacity:1"/><g style="fill:#000;fill-opacity:1"><use xlink:href="#m" x="234.196" y="147.615"/><use xlink:href="#p" x="239.504" y="147.615"/><use xlink:href="#r" x="242.454" y="147.615"/></g><use xlink:href="#q" x="248.049" y="147.615" style="fill:#000;fill-opacity:1"/><use xlink:href="#X" x="255.105" y="147.615" style="fill:#00c;fill-opacity:1"/><g style="fill:#000;fill-opacity:1"><use xlink:href="#p" x="265.456" y="147.615"/><use xlink:href="#o" x="268.406" y="147.615"/></g><g style="fill:#000;fill-opacity:1"><use xlink:href="#q" x="275.525" y="147.615"/><use xlink:href="#R" x="279.65" y="147.615"/><use xlink:href="#O" x="285.541" y="147.615"/></g><g style="fill:#000;fill-opacity:1"><use xlink:href="#ad" x="293.341" y="147.615"/><use xlink:href="#O" x="298.058" y="147.615"/><use xlink:href="#r" x="302.927" y="147.615"/></g><g style="fill:#000;fill-opacity:1"><use xlink:href="#q" x="308.522" y="147.615"/><use xlink:href="#O" x="312.646" y="147.615"/><use xlink:href="#l" x="317.515" y="147.615"/></g><g style="fill:#000;fill-opacity:1"><use xlink:href="#m" x="324.822" y="147.615"/><use xlink:href="#ag" x="330.13" y="147.615"/></g><g style="fill:#000;fill-opacity:1"><use xlink:href="#q" x="336.299" y="147.615"/><use xlink:href="#R" x="340.424" y="147.615"/><use xlink:href="#O" x="346.315" y="147.615"/></g><g style="fill:#000;fill-opacity:1"><use xlink:href="#ad" x="354.116" y="147.615"/><use xlink:href="#p" x="358.832" y="147.615"/><use xlink:href="#l" x="361.782" y="147.615"/><use xlink:href="#ad" x="366.157" y="147.615"/><use xlink:href="#Z" x="370.874" y="147.615"/><use xlink:href="#O" x="373.824" y="147.615"/></g><use xlink:href="#Y" x="381.632" y="147.615" style="fill:#00c;fill-opacity:1"/><g style="fill:#000;fill-opacity:1"><use xlink:href="#am" x="388.848" y="147.615"/><use xlink:href="#an" x="396.064" y="147.615"/></g><use xlink:href="#U" x="404.399" y="147.615" style="fill:#000;fill-opacity:1"/><g style="fill:#000;fill-opacity:1"><use xlink:href="#q" x="410.398" y="147.615"/><use xlink:href="#R" x="414.522" y="147.615"/><use xlink:href="#O" x="420.413" y="147.615"/><use xlink:href="#l" x="425.282" y="147.615"/><use xlink:href="#O" x="429.657" y="147.615"/><use xlink:href="#ar" x="434.526" y="147.615"/></g><g style="fill:#000;fill-opacity:1"><use xlink:href="#ag" x="182.944" y="158.574"/><use xlink:href="#m" x="186.19" y="158.574"/><use xlink:href="#l" x="191.498" y="158.574"/><use xlink:href="#O" x="195.874" y="158.574"/></g><use xlink:href="#X" x="203.841" y="158.574" style="fill:#00c;fill-opacity:1"/><use xlink:href="#Y" x="211.26" y="158.574" style="fill:#00c;fill-opacity:1"/><g style="fill:#000;fill-opacity:1"><use xlink:href="#O" x="221.574" y="158.574"/><use xlink:href="#ab" x="226.443" y="158.574"/><use xlink:href="#ac" x="232.047" y="158.574"/><use xlink:href="#V" x="237.938" y="158.574"/><use xlink:href="#Z" x="243.093" y="158.574"/><use xlink:href="#o" x="246.043" y="158.574"/></g><use xlink:href="#X" x="253.329" y="158.574" style="fill:#00c;fill-opacity:1"/><use xlink:href="#am" x="260.749" y="158.574" style="fill:#000;fill-opacity:1"/><use xlink:href="#aa" x="267.965" y="158.574" style="fill:#000;fill-opacity:1"/><g style="fill:#000;fill-opacity:1"><use xlink:href="#as" x="275.479" y="158.574"/><use xlink:href="#S" x="283.486" y="158.574"/><use xlink:href="#V" x="288.794" y="158.574"/><use xlink:href="#p" x="293.95" y="158.574"/><use xlink:href="#r" x="296.9" y="158.574"/><use xlink:href="#U" x="302.79" y="158.574"/></g><g style="fill:#000;fill-opacity:1"><use xlink:href="#o" x="308.923" y="158.574"/><use xlink:href="#p" x="313.111" y="158.574"/><use xlink:href="#r" x="316.061" y="158.574"/><use xlink:href="#ad" x="321.952" y="158.574"/><use xlink:href="#O" x="326.668" y="158.574"/></g><g style="fill:#000;fill-opacity:1"><use xlink:href="#q" x="334.63" y="158.574"/><use xlink:href="#R" x="338.755" y="158.574"/><use xlink:href="#O" x="344.645" y="158.574"/></g><use xlink:href="#n" x="352.617" y="158.574" style="fill:#000;fill-opacity:1"/><g style="fill:#000;fill-opacity:1"><use xlink:href="#m" x="358.803" y="158.574"/><use xlink:href="#p" x="364.111" y="158.574"/><use xlink:href="#r" x="367.061" y="158.574"/></g><use xlink:href="#q" x="372.665" y="158.574" style="fill:#000;fill-opacity:1"/><use xlink:href="#ai" x="379.883" y="158.574" style="fill:#000;fill-opacity:1"/><g style="fill:#000;fill-opacity:1"><use xlink:href="#p" x="390.836" y="158.574"/><use xlink:href="#o" x="393.786" y="158.574"/></g><g style="fill:#000;fill-opacity:1"><use xlink:href="#q" x="401.067" y="158.574"/><use xlink:href="#R" x="405.191" y="158.574"/><use xlink:href="#O" x="411.082" y="158.574"/></g><g style="fill:#000;fill-opacity:1"><use xlink:href="#ad" x="419.053" y="158.574"/><use xlink:href="#O" x="423.77" y="158.574"/><use xlink:href="#r" x="428.638" y="158.574"/><use xlink:href="#ar" x="434.529" y="158.574"/></g><g style="fill:#000;fill-opacity:1"><use xlink:href="#q" x="182.944" y="169.532"/><use xlink:href="#O" x="187.069" y="169.532"/><use xlink:href="#l" x="191.937" y="169.532"/></g><g style="fill:#000;fill-opacity:1"><use xlink:href="#m" x="199.926" y="169.532"/><use xlink:href="#ag" x="205.234" y="169.532"/></g><g style="fill:#000;fill-opacity:1"><use xlink:href="#q" x="212.094" y="169.532"/><use xlink:href="#R" x="216.218" y="169.532"/><use xlink:href="#O" x="222.109" y="169.532"/></g><g style="fill:#000;fill-opacity:1"><use xlink:href="#ad" x="230.591" y="169.532"/><use xlink:href="#p" x="235.308" y="169.532"/><use xlink:href="#l" x="238.258" y="169.532"/><use xlink:href="#ad" x="242.633" y="169.532"/><use xlink:href="#Z" x="247.35" y="169.532"/><use xlink:href="#O" x="250.299" y="169.532"/></g><g style="fill:#000;fill-opacity:1"><use xlink:href="#am" x="258.783" y="169.532"/><use xlink:href="#ao" x="265.999" y="169.532"/></g><use xlink:href="#ap" x="274.44" y="169.532" style="fill:#b20000;fill-opacity:1"/><use xlink:href="#U" x="280.711" y="169.532" style="fill:#000;fill-opacity:1"/><g style="fill:#000;fill-opacity:1"><use xlink:href="#q" x="287.292" y="169.532"/><use xlink:href="#R" x="291.417" y="169.532"/><use xlink:href="#O" x="297.308" y="169.532"/><use xlink:href="#l" x="302.177" y="169.532"/><use xlink:href="#O" x="306.552" y="169.532"/><use xlink:href="#ag" x="311.421" y="169.532"/><use xlink:href="#m" x="314.667" y="169.532"/><use xlink:href="#l" x="319.975" y="169.532"/><use xlink:href="#O" x="324.35" y="169.532"/></g><use xlink:href="#ai" x="332.836" y="169.532" style="fill:#000;fill-opacity:1"/><use xlink:href="#ap" x="340.691" y="169.532" style="fill:#b20000;fill-opacity:1"/><g style="fill:#000;fill-opacity:1"><use xlink:href="#O" x="350.575" y="169.532"/><use xlink:href="#ab" x="355.444" y="169.532"/><use xlink:href="#ac" x="361.048" y="169.532"/><use xlink:href="#V" x="366.939" y="169.532"/><use xlink:href="#Z" x="372.094" y="169.532"/><use xlink:href="#o" x="375.044" y="169.532"/></g><use xlink:href="#ai" x="382.845" y="169.532" style="fill:#000;fill-opacity:1"/><use xlink:href="#am" x="390.695" y="169.532" style="fill:#000;fill-opacity:1"/><use xlink:href="#aa" x="397.916" y="169.532" style="fill:#000;fill-opacity:1"/><g style="fill:#000;fill-opacity:1"><use xlink:href="#as" x="405.815" y="169.532"/><use xlink:href="#r" x="413.822" y="169.532"/><use xlink:href="#W" x="419.713" y="169.532"/></g><g style="fill:#000;fill-opacity:1"><use xlink:href="#p" x="429.218" y="169.532"/><use xlink:href="#r" x="432.168" y="169.532"/></g><g style="fill:#000;fill-opacity:1"><use xlink:href="#q" x="182.944" y="180.491"/><use xlink:href="#R" x="187.069" y="180.491"/><use xlink:href="#O" x="192.959" y="180.491"/><use xlink:href="#o" x="197.828" y="180.491"/><use xlink:href="#O" x="202.015" y="180.491"/></g><use xlink:href="#ai" x="209.828" y="180.491" style="fill:#000;fill-opacity:1"/><use xlink:href="#P" x="217.683" y="180.491" style="fill:#ff8000;fill-opacity:1"/><g style="fill:#000;fill-opacity:1"><use xlink:href="#O" x="227.537" y="180.491"/><use xlink:href="#ab" x="232.406" y="180.491"/><use xlink:href="#ac" x="238.01" y="180.491"/><use xlink:href="#V" x="243.901" y="180.491"/><use xlink:href="#Z" x="249.056" y="180.491"/><use xlink:href="#o" x="252.006" y="180.491"/></g><use xlink:href="#ai" x="259.137" y="180.491" style="fill:#000;fill-opacity:1"/><use xlink:href="#X" x="266.992" y="180.491" style="fill:#00c;fill-opacity:1"/><use xlink:href="#U" x="274.412" y="180.491" style="fill:#000;fill-opacity:1"/><g style="fill:#000;fill-opacity:1"><use xlink:href="#q" x="280.419" y="180.491"/><use xlink:href="#R" x="284.544" y="180.491"/><use xlink:href="#O" x="290.435" y="180.491"/><use xlink:href="#l" x="295.304" y="180.491"/><use xlink:href="#O" x="299.679" y="180.491"/><use xlink:href="#ag" x="304.548" y="180.491"/><use xlink:href="#m" x="307.794" y="180.491"/><use xlink:href="#l" x="313.102" y="180.491"/><use xlink:href="#O" x="317.478" y="180.491"/></g><g style="fill:#000;fill-opacity:1"><use xlink:href="#q" x="325.287" y="180.491"/><use xlink:href="#R" x="329.412" y="180.491"/><use xlink:href="#O" x="335.303" y="180.491"/></g><g style="fill:#000;fill-opacity:1"><use xlink:href="#l" x="343.121" y="180.491"/><use xlink:href="#O" x="347.497" y="180.491"/><use xlink:href="#ah" x="352.366" y="180.491"/><use xlink:href="#V" x="361.207" y="180.491"/><use xlink:href="#p" x="366.362" y="180.491"/><use xlink:href="#r" x="369.312" y="180.491"/><use xlink:href="#W" x="375.203" y="180.491"/><use xlink:href="#O" x="381.094" y="180.491"/><use xlink:href="#l" x="385.963" y="180.491"/></g><use xlink:href="#P" x="393.281" y="180.491" style="fill:#ff8000;fill-opacity:1"/><use xlink:href="#ap" x="400.192" y="180.491" style="fill:#b20000;fill-opacity:1"/><g style="fill:#000;fill-opacity:1"><use xlink:href="#O" x="409.406" y="180.491"/><use xlink:href="#ab" x="414.275" y="180.491"/><use xlink:href="#ac" x="419.879" y="180.491"/><use xlink:href="#V" x="425.77" y="180.491"/><use xlink:href="#Z" x="430.925" y="180.491"/><use xlink:href="#o" x="433.875" y="180.491"/></g><g style="fill:#000;fill-opacity:1"><use xlink:href="#q" x="182.944" y="191.45"/><use xlink:href="#R" x="187.069" y="191.45"/><use xlink:href="#O" x="192.959" y="191.45"/></g><g style="fill:#000;fill-opacity:1"><use xlink:href="#l" x="200.24" y="191.45"/><use xlink:href="#O" x="204.616" y="191.45"/><use xlink:href="#ah" x="209.484" y="191.45"/><use xlink:href="#V" x="218.325" y="191.45"/><use xlink:href="#p" x="223.481" y="191.45"/><use xlink:href="#r" x="226.431" y="191.45"/><use xlink:href="#W" x="232.322" y="191.45"/><use xlink:href="#O" x="238.213" y="191.45"/><use xlink:href="#l" x="243.082" y="191.45"/></g><use xlink:href="#X" x="249.88" y="191.45" style="fill:#00c;fill-opacity:1"/><use xlink:href="#am" x="257.299" y="191.45" style="fill:#000;fill-opacity:1"/><use xlink:href="#aa" x="264.515" y="191.45" style="fill:#000;fill-opacity:1"/><g style="fill:#000;fill-opacity:1"><use xlink:href="#at" x="271.796" y="191.45"/><use xlink:href="#ac" x="279.336" y="191.45"/><use xlink:href="#q" x="285.227" y="191.45"/></g><use xlink:href="#X" x="291.777" y="191.45" style="fill:#00c;fill-opacity:1"/><use xlink:href="#Y" x="299.196" y="191.45" style="fill:#00c;fill-opacity:1"/><use xlink:href="#ae" x="308.829" y="191.45" style="fill:#000;fill-opacity:1"/><g style="fill:#000;fill-opacity:1"><use xlink:href="#V" x="316.199" y="191.45"/><use xlink:href="#o" x="321.355" y="191.45"/></g><g style="fill:#000;fill-opacity:1"><use xlink:href="#V" x="327.954" y="191.45"/><use xlink:href="#Z" x="333.11" y="191.45"/><use xlink:href="#o" x="336.06" y="191.45"/><use xlink:href="#m" x="340.247" y="191.45"/></g><g style="fill:#000;fill-opacity:1"><use xlink:href="#n" x="347.976" y="191.45"/><use xlink:href="#l" x="353.867" y="191.45"/><use xlink:href="#m" x="358.243" y="191.45"/></g><use xlink:href="#T" x="363.264" y="191.45" style="fill:#000;fill-opacity:1"/><g style="fill:#000;fill-opacity:1"><use xlink:href="#O" x="368.572" y="191.45"/><use xlink:href="#W" x="373.441" y="191.45"/></g><g style="fill:#000;fill-opacity:1"><use xlink:href="#O" x="381.735" y="191.45"/><use xlink:href="#ab" x="386.603" y="191.45"/><use xlink:href="#ac" x="392.207" y="191.45"/><use xlink:href="#V" x="398.098" y="191.45"/><use xlink:href="#Z" x="403.254" y="191.45"/></g><g style="fill:#000;fill-opacity:1"><use xlink:href="#q" x="408.625" y="191.45"/><use xlink:href="#m" x="412.749" y="191.45"/></g><use xlink:href="#X" x="420.477" y="191.45" style="fill:#00c;fill-opacity:1"/><use xlink:href="#am" x="427.897" y="191.45" style="fill:#000;fill-opacity:1"/><use xlink:href="#U" x="435.113" y="191.45" style="fill:#000;fill-opacity:1"/><g style="fill:#000;fill-opacity:1"><use xlink:href="#q" x="182.944" y="202.409"/><use xlink:href="#R" x="187.069" y="202.409"/><use xlink:href="#O" x="192.959" y="202.409"/><use xlink:href="#l" x="197.828" y="202.409"/><use xlink:href="#O" x="202.204" y="202.409"/><use xlink:href="#ag" x="207.073" y="202.409"/><use xlink:href="#m" x="210.318" y="202.409"/><use xlink:href="#l" x="215.626" y="202.409"/><use xlink:href="#O" x="220.002" y="202.409"/></g><g style="fill:#000;fill-opacity:1"><use xlink:href="#O" x="229.237" y="202.409"/><use xlink:href="#V" x="234.106" y="202.409"/><use xlink:href="#ad" x="239.262" y="202.409"/></g><use xlink:href="#R" x="243.691" y="202.409" style="fill:#000;fill-opacity:1"/><g style="fill:#000;fill-opacity:1"><use xlink:href="#m" x="253.949" y="202.409"/><use xlink:href="#ag" x="259.257" y="202.409"/></g><g style="fill:#000;fill-opacity:1"><use xlink:href="#q" x="266.869" y="202.409"/><use xlink:href="#R" x="270.994" y="202.409"/><use xlink:href="#O" x="276.885" y="202.409"/></g><g style="fill:#000;fill-opacity:1"><use xlink:href="#o" x="286.129" y="202.409"/><use xlink:href="#q" x="290.316" y="202.409"/><use xlink:href="#l" x="294.441" y="202.409"/><use xlink:href="#V" x="298.817" y="202.409"/><use xlink:href="#p" x="303.972" y="202.409"/><use xlink:href="#S" x="306.922" y="202.409"/><use xlink:href="#R" x="312.23" y="202.409"/></g><use xlink:href="#q" x="317.825" y="202.409" style="fill:#000;fill-opacity:1"/><g style="fill:#000;fill-opacity:1"><use xlink:href="#Z" x="326.316" y="202.409"/><use xlink:href="#p" x="329.266" y="202.409"/><use xlink:href="#r" x="332.216" y="202.409"/><use xlink:href="#O" x="338.107" y="202.409"/><use xlink:href="#o" x="342.976" y="202.409"/></g><use xlink:href="#P" x="351.539" y="202.409" style="fill:#ff8000;fill-opacity:1"/><use xlink:href="#ap" x="358.449" y="202.409" style="fill:#b20000;fill-opacity:1"/><g style="fill:#000;fill-opacity:1"><use xlink:href="#V" x="369.091" y="202.409"/><use xlink:href="#r" x="374.247" y="202.409"/><use xlink:href="#W" x="380.138" y="202.409"/></g><use xlink:href="#X" x="390.399" y="202.409" style="fill:#00c;fill-opacity:1"/><use xlink:href="#Y" x="397.819" y="202.409" style="fill:#00c;fill-opacity:1"/><g style="fill:#000;fill-opacity:1"><use xlink:href="#O" x="409.406" y="202.409"/><use xlink:href="#ab" x="414.275" y="202.409"/><use xlink:href="#ac" x="419.879" y="202.409"/><use xlink:href="#V" x="425.77" y="202.409"/><use xlink:href="#Z" x="430.925" y="202.409"/><use xlink:href="#o" x="433.875" y="202.409"/></g><use xlink:href="#X" x="182.944" y="213.368" style="fill:#00c;fill-opacity:1"/><use xlink:href="#am" x="190.364" y="213.368" style="fill:#000;fill-opacity:1"/><use xlink:href="#aa" x="197.58" y="213.368" style="fill:#000;fill-opacity:1"/><g style="fill:#000;fill-opacity:1"><use xlink:href="#as" x="205.497" y="213.368"/><use xlink:href="#r" x="213.504" y="213.368"/><use xlink:href="#W" x="219.395" y="213.368"/></g><g style="fill:#000;fill-opacity:1"><use xlink:href="#q" x="228.909" y="213.368"/><use xlink:href="#R" x="233.033" y="213.368"/><use xlink:href="#p" x="238.924" y="213.368"/><use xlink:href="#r" x="241.874" y="213.368"/><use xlink:href="#S" x="247.765" y="213.368"/><use xlink:href="#o" x="253.073" y="213.368"/></g><g style="fill:#000;fill-opacity:1"><use xlink:href="#ae" x="260.883" y="213.368"/><use xlink:href="#R" x="268.549" y="213.368"/><use xlink:href="#p" x="274.44" y="213.368"/><use xlink:href="#ad" x="277.39" y="213.368"/></g><use xlink:href="#R" x="281.81" y="213.368" style="fill:#000;fill-opacity:1"/><g style="fill:#000;fill-opacity:1"><use xlink:href="#O" x="291.315" y="213.368"/><use xlink:href="#ab" x="296.183" y="213.368"/><use xlink:href="#ac" x="301.787" y="213.368"/><use xlink:href="#V" x="307.678" y="213.368"/><use xlink:href="#Z" x="312.834" y="213.368"/></g><g style="fill:#000;fill-opacity:1"><use xlink:href="#q" x="319.406" y="213.368"/><use xlink:href="#R" x="323.531" y="213.368"/><use xlink:href="#O" x="329.422" y="213.368"/></g><g style="fill:#000;fill-opacity:1"><use xlink:href="#o" x="337.913" y="213.368"/><use xlink:href="#V" x="342.1" y="213.368"/><use xlink:href="#ah" x="347.256" y="213.368"/><use xlink:href="#O" x="356.097" y="213.368"/></g><g style="fill:#000;fill-opacity:1"><use xlink:href="#q" x="364.588" y="213.368"/><use xlink:href="#R" x="368.712" y="213.368"/><use xlink:href="#p" x="374.603" y="213.368"/><use xlink:href="#r" x="377.553" y="213.368"/><use xlink:href="#S" x="383.444" y="213.368"/></g><g style="fill:#000;fill-opacity:1"><use xlink:href="#V" x="392.366" y="213.368"/><use xlink:href="#Z" x="397.521" y="213.368"/><use xlink:href="#o" x="400.471" y="213.368"/><use xlink:href="#m" x="404.659" y="213.368"/></g><g style="fill:#000;fill-opacity:1"><use xlink:href="#O" x="413.589" y="213.368"/><use xlink:href="#ab" x="418.458" y="213.368"/><use xlink:href="#ac" x="424.062" y="213.368"/><use xlink:href="#V" x="429.953" y="213.368"/><use xlink:href="#Z" x="435.108" y="213.368"/></g><g style="fill:#000;fill-opacity:1"><use xlink:href="#m" x="182.944" y="224.327"/><use xlink:href="#r" x="188.252" y="224.327"/><use xlink:href="#O" x="194.143" y="224.327"/></g><g style="fill:#000;fill-opacity:1"><use xlink:href="#V" x="202.545" y="224.327"/><use xlink:href="#r" x="207.7" y="224.327"/><use xlink:href="#m" x="213.591" y="224.327"/><use xlink:href="#q" x="218.899" y="224.327"/><use xlink:href="#R" x="223.024" y="224.327"/><use xlink:href="#O" x="228.915" y="224.327"/><use xlink:href="#l" x="233.783" y="224.327"/><use xlink:href="#U" x="238.159" y="224.327"/></g><g style="fill:#000;fill-opacity:1"><use xlink:href="#q" x="244.642" y="224.327"/><use xlink:href="#R" x="248.766" y="224.327"/><use xlink:href="#O" x="254.657" y="224.327"/><use xlink:href="#l" x="259.526" y="224.327"/><use xlink:href="#O" x="263.901" y="224.327"/><use xlink:href="#ag" x="268.77" y="224.327"/><use xlink:href="#m" x="272.016" y="224.327"/><use xlink:href="#l" x="277.324" y="224.327"/><use xlink:href="#O" x="281.7" y="224.327"/></g><use xlink:href="#P" x="290.101" y="224.327" style="fill:#ff8000;fill-opacity:1"/><use xlink:href="#ap" x="297.012" y="224.327" style="fill:#b20000;fill-opacity:1"/><g style="fill:#000;fill-opacity:1"><use xlink:href="#V" x="306.815" y="224.327"/><use xlink:href="#Z" x="311.971" y="224.327"/><use xlink:href="#o" x="314.921" y="224.327"/><use xlink:href="#m" x="319.108" y="224.327"/></g><g style="fill:#000;fill-opacity:1"><use xlink:href="#O" x="327.949" y="224.327"/><use xlink:href="#ab" x="332.818" y="224.327"/><use xlink:href="#ac" x="338.421" y="224.327"/><use xlink:href="#V" x="344.312" y="224.327"/><use xlink:href="#Z" x="349.468" y="224.327"/><use xlink:href="#o" x="352.418" y="224.327"/></g><use xlink:href="#X" x="360.138" y="224.327" style="fill:#00c;fill-opacity:1"/><use xlink:href="#Y" x="367.558" y="224.327" style="fill:#00c;fill-opacity:1"/><use xlink:href="#aa" x="374.774" y="224.327" style="fill:#000;fill-opacity:1"/><g style="fill:#000;fill-opacity:1"><use xlink:href="#au" x="182.944" y="236.282"/><use xlink:href="#R" x="190.323" y="236.282"/><use xlink:href="#O" x="196.214" y="236.282"/><use xlink:href="#l" x="201.083" y="236.282"/><use xlink:href="#O" x="205.459" y="236.282"/><use xlink:href="#ag" x="210.327" y="236.282"/><use xlink:href="#m" x="213.573" y="236.282"/><use xlink:href="#l" x="218.881" y="236.282"/><use xlink:href="#O" x="223.257" y="236.282"/></g><g style="fill:#000;fill-opacity:1"><use xlink:href="#q" x="235.155" y="236.282"/><use xlink:href="#R" x="239.28" y="236.282"/><use xlink:href="#O" x="245.171" y="236.282"/></g><g style="fill:#b20000;fill-opacity:1"><use xlink:href="#o" x="257.08" y="236.282"/><use xlink:href="#q" x="261.267" y="236.282"/><use xlink:href="#l" x="265.392" y="236.282"/><use xlink:href="#V" x="269.767" y="236.282"/><use xlink:href="#p" x="274.923" y="236.282"/><use xlink:href="#S" x="277.873" y="236.282"/><use xlink:href="#R" x="283.181" y="236.282"/></g><use xlink:href="#q" x="288.776" y="236.282" style="fill:#b20000;fill-opacity:1"/><g style="fill:#b20000;fill-opacity:1"><use xlink:href="#Z" x="299.93" y="236.282"/><use xlink:href="#p" x="302.88" y="236.282"/><use xlink:href="#r" x="305.83" y="236.282"/><use xlink:href="#O" x="311.721" y="236.282"/></g><use xlink:href="#P" x="323.63" y="236.282" style="fill:#ff8000;fill-opacity:1"/><use xlink:href="#ap" x="330.54" y="236.282" style="fill:#b20000;fill-opacity:1"/><g style="fill:#000;fill-opacity:1"><use xlink:href="#O" x="343.846" y="236.282"/><use xlink:href="#ab" x="348.715" y="236.282"/><use xlink:href="#ac" x="354.319" y="236.282"/><use xlink:href="#V" x="360.21" y="236.282"/><use xlink:href="#Z" x="365.365" y="236.282"/></g><g style="fill:#000;fill-opacity:1"><use xlink:href="#q" x="375.345" y="236.282"/><use xlink:href="#m" x="379.469" y="236.282"/></g><g style="fill:#000;fill-opacity:1"><use xlink:href="#q" x="391.816" y="236.282"/><use xlink:href="#R" x="395.941" y="236.282"/><use xlink:href="#O" x="401.832" y="236.282"/></g><g style="fill:#000;fill-opacity:1"><use xlink:href="#S" x="413.73" y="236.282"/><use xlink:href="#p" x="419.038" y="236.282"/><use xlink:href="#T" x="421.988" y="236.282"/></g><g style="fill:#000;fill-opacity:1"><use xlink:href="#O" x="427.305" y="236.282"/><use xlink:href="#r" x="432.174" y="236.282"/></g><g style="fill:#00c;fill-opacity:1"><use xlink:href="#o" x="182.944" y="248.237"/><use xlink:href="#q" x="187.131" y="248.237"/><use xlink:href="#l" x="191.256" y="248.237"/><use xlink:href="#V" x="195.631" y="248.237"/><use xlink:href="#p" x="200.787" y="248.237"/><use xlink:href="#S" x="203.737" y="248.237"/><use xlink:href="#R" x="209.045" y="248.237"/></g><use xlink:href="#q" x="214.64" y="248.237" style="fill:#00c;fill-opacity:1"/><g style="fill:#00c;fill-opacity:1"><use xlink:href="#Z" x="223.158" y="248.237"/><use xlink:href="#p" x="226.108" y="248.237"/><use xlink:href="#r" x="229.058" y="248.237"/><use xlink:href="#O" x="234.949" y="248.237"/></g><use xlink:href="#X" x="244.218" y="248.237" style="fill:#00c;fill-opacity:1"/><use xlink:href="#Y" x="251.638" y="248.237" style="fill:#00c;fill-opacity:1"/><g style="fill:#000;fill-opacity:1"><use xlink:href="#R" x="263.25" y="248.237"/><use xlink:href="#V" x="269.141" y="248.237"/><use xlink:href="#o" x="274.297" y="248.237"/></g><use xlink:href="#Q" x="282.877" y="248.237" style="fill:#000;fill-opacity:1"/><g style="fill:#000;fill-opacity:1"><use xlink:href="#O" x="289.064" y="248.237"/><use xlink:href="#O" x="293.933" y="248.237"/><use xlink:href="#r" x="298.802" y="248.237"/></g><g style="fill:#000;fill-opacity:1"><use xlink:href="#n" x="309.086" y="248.237"/><use xlink:href="#Z" x="314.977" y="248.237"/><use xlink:href="#V" x="317.927" y="248.237"/><use xlink:href="#ad" x="323.083" y="248.237"/><use xlink:href="#O" x="327.799" y="248.237"/><use xlink:href="#W" x="332.668" y="248.237"/></g><g style="fill:#000;fill-opacity:1"><use xlink:href="#ae" x="342.961" y="248.237"/><use xlink:href="#p" x="350.627" y="248.237"/><use xlink:href="#q" x="353.577" y="248.237"/><use xlink:href="#R" x="357.702" y="248.237"/></g><g style="fill:#000;fill-opacity:1"><use xlink:href="#m" x="367.986" y="248.237"/><use xlink:href="#r" x="373.294" y="248.237"/><use xlink:href="#O" x="379.185" y="248.237"/></g><g style="fill:#000;fill-opacity:1"><use xlink:href="#O" x="388.448" y="248.237"/><use xlink:href="#r" x="393.316" y="248.237"/><use xlink:href="#W" x="399.207" y="248.237"/></g><g style="fill:#000;fill-opacity:1"><use xlink:href="#V" x="409.501" y="248.237"/><use xlink:href="#q" x="414.656" y="248.237"/></g><g style="fill:#000;fill-opacity:1"><use xlink:href="#q" x="423.174" y="248.237"/><use xlink:href="#R" x="427.299" y="248.237"/><use xlink:href="#O" x="433.19" y="248.237"/></g><g style="fill:#ff8000;fill-opacity:1"><use xlink:href="#S" x="182.944" y="260.193"/><use xlink:href="#p" x="188.252" y="260.193"/><use xlink:href="#T" x="191.202" y="260.193"/></g><g style="fill:#ff8000;fill-opacity:1"><use xlink:href="#O" x="196.51" y="260.193"/><use xlink:href="#r" x="201.379" y="260.193"/></g><use xlink:href="#n" x="210.803" y="260.193" style="fill:#ff8000;fill-opacity:1"/><g style="fill:#ff8000;fill-opacity:1"><use xlink:href="#m" x="216.989" y="260.193"/><use xlink:href="#p" x="222.297" y="260.193"/><use xlink:href="#r" x="225.247" y="260.193"/></g><use xlink:href="#q" x="230.842" y="260.193" style="fill:#ff8000;fill-opacity:1"/><use xlink:href="#P" x="238.5" y="260.193" style="fill:#ff8000;fill-opacity:1"/><use xlink:href="#aa" x="245.41" y="260.193" style="fill:#000;fill-opacity:1"/></svg>