<svg xmlns="http://www.w3.org/2000/svg" width="64.251" height="14.475" viewBox="0 0 48.188 10.856" version="1.2"><defs><clipPath id="a"><path d="M0 0h47.781v10.785H0Zm0 0"/></clipPath><clipPath id="b"><path d="M0 1h10v9.785H0Zm0 0"/></clipPath><clipPath id="c"><path d="M23 1h16v9.785H23Zm0 0"/></clipPath><clipPath id="d"><path d="M37 0h10.781v10H37Zm0 0"/></clipPath></defs><g clip-path="url(#a)"><path style="fill:none;stroke-width:.3985;stroke-linecap:butt;stroke-linejoin:miter;stroke:#bfbfbf;stroke-opacity:1;stroke-miterlimit:10" d="M.002.002 14.174 5.67 28.345.002 42.521 5.67" transform="matrix(1 0 0 -1 2.428 7.779)"/></g><g clip-path="url(#b)"><path style="fill:none;stroke-width:.3985;stroke-linecap:butt;stroke-linejoin:miter;stroke:#000;stroke-opacity:1;stroke-miterlimit:10" d="M.002-1.994V.002m1.722.996L.002.002m-1.727.996L.002.002" transform="matrix(1 0 0 -1 2.428 7.779)"/></g><path style="fill:none;stroke-width:.3985;stroke-linecap:butt;stroke-linejoin:miter;stroke:#000;stroke-opacity:1;stroke-miterlimit:10" d="M14.174 3.677V5.67m1.726.996-1.726-.996m-1.727.996 1.727-.996" transform="matrix(1 0 0 -1 2.428 7.779)"/><g clip-path="url(#c)"><path style="fill:none;stroke-width:.3985;stroke-linecap:butt;stroke-linejoin:miter;stroke:#000;stroke-opacity:1;stroke-miterlimit:10" d="M28.345-1.994V.002m1.727.996L28.345.002m-1.722.996 1.722-.996" transform="matrix(1 0 0 -1 2.428 7.779)"/></g><g clip-path="url(#d)"><path style="fill:none;stroke-width:.3985;stroke-linecap:butt;stroke-linejoin:miter;stroke:#000;stroke-opacity:1;stroke-miterlimit:10" d="M42.521 3.677V5.67m1.723.996L42.52 5.67m-1.726.996 1.726-.996" transform="matrix(1 0 0 -1 2.428 7.779)"/></g></svg>