<svg xmlns="http://www.w3.org/2000/svg" xmlns:xlink="http://www.w3.org/1999/xlink" width="116.379" height="78.723" viewBox="0 0 87.284 59.042" version="1.2"><defs><symbol overflow="visible" id="a"><path style="stroke:none" d="m7.766-5.172-.266-.39-.578.375L5.5-7.329c-.578-.86-1.219-.906-2.078-.344-.766.5-.906 1.219-.875 1.734-.672-.656-1.453-.187-1.766.032-.734.484-.953 1.172-.875 1.875l-.594-.907-1.375 1.016.25.39c.516-.343.579-.374.797-.046L.688-1.016.109-.64l.266.391 1.031-.719 1.047-.672-.265-.39-.563.39-1.14-1.734c-.61-.906-.157-1.797.374-2.156.266-.172.563-.125.985.515L3.328-2.78l-.578.375.266.39 1.03-.734 1.063-.656-.265-.39-.578.374-1.141-1.734a1.498 1.498 0 0 1 .36-2.125c.296-.188.578-.14 1 .5l1.484 2.234-.563.375.266.39L6.688-4.5Zm0 0"/></symbol><symbol overflow="visible" id="b"><path style="stroke:none" d="m2.625-6.5-.266-.375c-.187.125-.421.313-.64.438l-.766.5.266.375s.39-.266.453-.172l.016.14.406 2.688-2.547-1.547L0-4.75l-.266-.375-1.015.703-.953.61.265.374.516-.359 3.75 2.266.078.531c.078.516.203 1.25-.406 1.656-.11.078-.125.078-.203.094.046-.078.14-.313-.047-.61-.188-.28-.5-.343-.782-.156C.704.141.563.454.781.766c.281.421.906.53 1.39.203.642-.438.782-1.281.704-1.906l-.75-4.985c-.031-.14-.031-.219.5-.578Zm0 0"/></symbol><symbol overflow="visible" id="c"><path style="stroke:none" d="m5.094-3.39-.266-.391-.562.375-1.422-2.14c-.578-.876-1.25-.907-2.078-.36-.797.531-.922 1.297-.86 1.875l-.594-.907-1.375 1.016.25.39c.516-.343.579-.374.797-.046L.688-1.016.109-.64l.266.391 1.031-.719 1.047-.672-.265-.39-.563.39-1.14-1.734c-.61-.906-.172-1.797.374-2.156.266-.172.563-.125.985.515L3.328-2.78l-.578.375.266.39 1.03-.718Zm0 0"/></symbol><symbol overflow="visible" id="d"><path style="stroke:none" d="M3.297-4.813c-.75-1.109-2.063-1.421-3.422-.53-1.36.921-1.547 2.265-.813 3.359.688 1.03 1.97 1.359 3.344.437 1.39-.922 1.563-2.25.89-3.266Zm-1.125.641c.484.703 1.078 1.61.015 2.297-1.046.703-1.64-.203-2.124-.906-.25-.39-.532-.797-.579-1.188-.046-.406.172-.797.579-1.078.359-.219.796-.328 1.171-.172.36.188.672.64.938 1.047Zm0 0"/></symbol><symbol overflow="visible" id="e"><path style="stroke:none" d="m4.984-3.313-.265-.39c-.516.328-.578.375-.797.047L.562-8.703-.859-7.641l.265.391c.516-.36.578-.39.797-.078l1.078 1.625a2.157 2.157 0 0 0-1.375.375c-1.203.812-1.593 2.125-.812 3.297.719 1.094 2.015 1.36 3.234.547.516-.344.797-.797.906-1.172l.266.39Zm-2.093.141c0 .235-.047.906-.672 1.328C1.203-1.172.547-2.172.156-2.75c-.265-.406-.562-.844-.562-1.313 0-.515.344-.859.61-1.03a1.448 1.448 0 0 1 1.312-.141Zm0 0"/></symbol><symbol overflow="visible" id="f"><path style="stroke:none" d="M3.438-3.703c-.094-.156-.25-.047-.282-.016-.156.094-.125.14-.094.297.094.531-.203 1.11-.734 1.469-1.172.781-1.922-.328-2.203-.75l2.5-1.672c.188-.11.266-.172.11-.39-.172-.25-.626-.844-1.313-.97-.5-.093-1.031.063-1.61.438-1.328.89-1.484 2.219-.796 3.25.75 1.125 2.109 1.36 3.453.469 1.312-.875 1.062-1.984.969-2.125Zm-1.516-.578L-.062-2.97c-.204-.328-.422-.687-.438-1.078 0-.469.266-.797.5-.953.984-.64 1.719.438 1.922.719Zm0 0"/></symbol><clipPath id="g"><path d="M0 0h86.926v58.563H0Zm0 0"/></clipPath></defs><path style="fill:none;stroke-width:.19925;stroke-linecap:butt;stroke-linejoin:miter;stroke:gray;stroke-opacity:1;stroke-miterlimit:10" d="M0 0h85.04M0 28.348h85.04M0 56.684h85.04M0 0v56.692M28.349 0v56.692M56.692 0v56.692M85.032 0v56.692" transform="matrix(1 0 0 -1 .769 57.395)"/><path style="fill:none;stroke-width:.3985;stroke-linecap:butt;stroke-linejoin:miter;stroke:#00f;stroke-opacity:1;stroke-miterlimit:10" d="M58.876 48.594 17.477 20.993l8.621-12.938 41.403 27.602Zm0 0" transform="matrix(1 0 0 -1 .769 57.395)"/><use xlink:href="#a" x="26.684" y="43.076" style="fill:#00f;fill-opacity:1"/><use xlink:href="#b" x="34.36" y="37.959" style="fill:#00f;fill-opacity:1"/><g style="fill:#00f;fill-opacity:1"><use xlink:href="#c" x="42.566" y="32.488"/><use xlink:href="#d" x="47.863" y="28.957"/></g><g style="fill:#00f;fill-opacity:1"><use xlink:href="#e" x="52.894" y="25.603"/><use xlink:href="#f" x="58.191" y="22.072"/></g><g clip-path="url(#g)"><path style="fill:none;stroke-width:.3985;stroke-linecap:butt;stroke-linejoin:miter;stroke:#000;stroke-opacity:1;stroke-miterlimit:10" d="m0 0 21.622 14.41m41.734 27.82L85.04 56.693" transform="matrix(1 0 0 -1 .769 57.395)"/></g></svg>