<svg xmlns="http://www.w3.org/2000/svg" xmlns:xlink="http://www.w3.org/1999/xlink" width="95.475" height="59.523" viewBox="0 0 71.606 44.642" version="1.2"><defs><clipPath id="b"><path d="M44 2h27.41v32H44Zm0 0"/></clipPath><clipPath id="d"><path d="M43 18h28.41v26.465H43Zm0 0"/></clipPath><clipPath id="e"><path d="M41 18h28v26.465H41Zm0 0"/></clipPath><symbol overflow="visible" id="a"><path style="stroke:none" d="M8.25 0v-.469h-.969L4.72-6.703c-.11-.25-.219-.25-.39-.25-.282 0-.329.078-.391.25l-2.47 6c-.062.156-.093.234-.843.234H.406V0l1.172-.031c.39 0 .938 0 1.313.031v-.469S2-.469 2-.594l.047-.125.5-1.203h2.672l.593 1.453H4.86V0c.391-.031 1.329-.031 1.766-.031.39 0 1.266 0 1.625.031ZM5.016-2.39H2.734l1.141-2.766Zm0 0"/></symbol><symbol overflow="visible" id="c"><path style="stroke:none" d="M7.5-1.86c0-.952-.844-1.624-2.031-1.702 1.078-.204 1.718-.797 1.718-1.563 0-.922-.875-1.719-2.468-1.719H.39v.469h1.078v5.906H.39V0h4.625C6.672 0 7.5-.875 7.5-1.86ZM5.766-5.124c0 .766-.47 1.39-1.438 1.39H2.766v-2.64h1.812c1.016 0 1.188.797 1.188 1.25Zm.28 3.266c0 .109 0 1.39-1.437 1.39H2.766v-2.906h1.937c.203 0 .672 0 1.016.422.328.422.328.984.328 1.094Zm0 0"/></symbol></defs><path style="fill:none;stroke-width:.3985;stroke-linecap:butt;stroke-linejoin:miter;stroke:#000;stroke-opacity:1;stroke-miterlimit:10" d="M10.199-.002c0 5.633-4.566 10.2-10.2 10.2-5.632 0-10.198-4.567-10.198-10.2C-10.2-5.635-5.633-10.2 0-10.2s10.199 4.566 10.199 10.2Zm0 0" transform="matrix(1 0 0 -1 11.219 18.092)"/><use xlink:href="#a" x="6.891" y="21.569" style="fill:#000;fill-opacity:1"/><g clip-path="url(#b)"><path style="fill:none;stroke-width:.3985;stroke-linecap:butt;stroke-linejoin:miter;stroke:#000;stroke-opacity:1;stroke-miterlimit:10" d="M58.976-.002c0 5.535-4.484 10.02-10.015 10.02-5.532 0-10.016-4.485-10.016-10.02 0-5.531 4.484-10.015 10.016-10.015 5.53 0 10.015 4.484 10.015 10.015Zm0 0" transform="matrix(1 0 0 -1 11.219 18.092)"/></g><use xlink:href="#c" x="56.105" y="21.509" style="fill:#000;fill-opacity:1"/><path style="fill:none;stroke-width:.79701;stroke-linecap:butt;stroke-linejoin:miter;stroke:#00f;stroke-opacity:1;stroke-miterlimit:10" d="M8.761 8.647c8.016 6.816 19.344 7.601 28.122 2.375" transform="matrix(1 0 0 -1 11.219 18.092)"/><path style="fill:none;stroke-width:.79701;stroke-linecap:round;stroke-linejoin:round;stroke:#00f;stroke-opacity:1;stroke-miterlimit:10" d="M-2.55 3.111C-2.085 1.242-1.047.364 0 0c-1.047-.364-2.086-1.247-2.554-3.111" transform="matrix(-.74055 .6719 .6719 .74055 19.677 9.703)"/><path style="stroke:none;fill-rule:nonzero;fill:#8080ff;fill-opacity:1" d="M45.563 5.754c-.79-.582-4.504-3.082-7.051-4.934-.203 1.985-.41 3.965-.614 5.946 2.516-1.055 6.704-1.16 7.664-1.012Zm0 0"/><path style="fill:none;stroke-width:.79701;stroke-linecap:butt;stroke-linejoin:miter;stroke:#00f;stroke-opacity:1;stroke-miterlimit:10" d="M40.082 8.748a37.405 37.405 0 0 1-3.66 4.918c.242-.918.457-1.832.632-2.75a30.104 30.104 0 0 1-2.53-.984 31.993 31.993 0 0 0 5.558-1.184Zm0 0" transform="matrix(1 0 0 -1 11.219 18.092)"/><g clip-path="url(#d)"><path style="fill:none;stroke-width:.79701;stroke-linecap:butt;stroke-linejoin:miter;stroke:#00f;stroke-opacity:1;stroke-miterlimit:10" d="M53.058-11.42c4.91-16.527-10.53-17.93-9.062-4.199" transform="matrix(1 0 0 -1 11.219 18.092)"/></g><path style="fill:none;stroke-width:.79701;stroke-linecap:round;stroke-linejoin:round;stroke:#00f;stroke-opacity:1;stroke-miterlimit:10" d="M-2.55 3.11C-2.086 1.243-1.046.362 0 0-1.045-.365-2.084-1.246-2.55-3.112" transform="scale(-.99997 .99997) rotate(-71.933 -12.014 58.773)"/><path style="stroke:none;fill-rule:nonzero;fill:#8080ff;fill-opacity:1" d="M55.129 36.102c-.184.734-.8 3.933-1.223 6.277 1.68-1.074 3.36-2.145 5.04-3.215-1.72-.242-3.54-2.375-3.817-3.062Zm0 0"/><g clip-path="url(#e)"><path style="fill:none;stroke-width:.79701;stroke-linecap:butt;stroke-linejoin:miter;stroke:#00f;stroke-opacity:1;stroke-miterlimit:10" d="M44.77-11.752c-1.134-1.676-2.137-3.496-2.962-5.215.72.516 1.453 1.024 2.207 1.54a14.37 14.37 0 0 1 1.977-1.645c-.59 1.496-.988 3.363-1.223 5.32Zm0 0" transform="matrix(1 0 0 -1 11.219 18.092)"/></g></svg>