<svg xmlns="http://www.w3.org/2000/svg" width="138.771" height="82.82pt" viewBox="0 0 104.078 82.82" version="1.2"><defs><clipPath id="a"><path d="M.555.926h102.05v80.789H.555Zm0 0"/></clipPath><clipPath id="b"><path d="M.555 64h102.05v1H.555Zm0 0"/></clipPath><clipPath id="c"><path d="M8 .926h2v80.789H8Zm0 0"/></clipPath><clipPath id="d"><path d="M.555.926H100v80.789H.555Zm0 0"/></clipPath></defs><g clip-path="url(#a)"><path style="fill:none;stroke-width:.19925;stroke-linecap:butt;stroke-linejoin:miter;stroke:gray;stroke-opacity:1;stroke-miterlimit:10" d="M-119.057-85.04h238.113m-238.113 42.52h238.113M-119.057 0h238.113m-238.113 42.52h238.113m-238.113 42.519h238.113M-85.04-119.055v238.11m42.52-238.11v238.11M.001-119.055v238.11m42.519-238.11v238.11m42.52-238.11v238.11" transform="matrix(1 0 0 -1 9.061 64.707)"/></g><g clip-path="url(#b)"><path style="fill:none;stroke-width:.3985;stroke-linecap:butt;stroke-linejoin:miter;stroke:#000;stroke-opacity:1;stroke-miterlimit:10" d="M-127.561 0H127.56" transform="matrix(1 0 0 -1 9.061 64.707)"/></g><g clip-path="url(#c)"><path style="fill:none;stroke-width:.3985;stroke-linecap:butt;stroke-linejoin:miter;stroke:#000;stroke-opacity:1;stroke-miterlimit:10" d="M.002-127.563v255.125" transform="matrix(1 0 0 -1 9.061 64.707)"/></g><g clip-path="url(#d)"><path style="fill:none;stroke-width:.3985;stroke-linecap:butt;stroke-linejoin:miter;stroke:#000;stroke-opacity:1;stroke-miterlimit:10" d="M85.04 0c0 46.969-38.074 85.039-85.039 85.039-46.968 0-85.042-38.07-85.042-85.039S-46.967-85.04 0-85.04c46.965 0 85.04 38.071 85.04 85.04Zm0 0" transform="matrix(1 0 0 -1 9.061 64.707)"/></g><path style="fill-rule:nonzero;fill:#cfc;fill-opacity:1;stroke-width:.3985;stroke-linecap:butt;stroke-linejoin:miter;stroke:green;stroke-opacity:1;stroke-miterlimit:10" d="M.002 0h25.511c0 4.477-1.18 8.879-3.418 12.758Zm0 0" transform="matrix(1 0 0 -1 9.061 64.707)"/><path style="fill:none;stroke-width:1.19553;stroke-linecap:butt;stroke-linejoin:miter;stroke:red;stroke-opacity:1;stroke-miterlimit:10" d="M73.646 42.52V0" transform="matrix(1 0 0 -1 9.061 64.707)"/><path style="fill:none;stroke-width:1.19553;stroke-linecap:butt;stroke-linejoin:miter;stroke:#00f;stroke-opacity:1;stroke-miterlimit:10" d="M73.646 0H.001" transform="matrix(1 0 0 -1 9.061 64.707)"/></svg>