<svg xmlns="http://www.w3.org/2000/svg" xmlns:xlink="http://www.w3.org/1999/xlink" width="84.219" height="144.675" viewBox="0 0 63.164 108.506" version="1.2"><defs><symbol overflow="visible" id="a"><path style="stroke:none" d="m.453-2.11-.25-.14-.125.219.25.14c.313.172.328.375.25.516-.156.266-.453.094-.562.031l-1.297-.734.39-.672-.218-.125-.391.672-.89-.516-.126.219c.47.281.797.766.547 1.25l.157.094.234-.39 1.297.734c.484.28.828-.063 1.015-.391.204-.344.047-.719-.28-.906Zm0 0"/></symbol><symbol overflow="visible" id="b"><path style="stroke:none" d="M.844-2.828c-.078-.047-.14.047-.156.062-.047.094-.032.125.046.188.157.25.157.625-.03.969-.407.703-1.079.312-1.329.171L.25-2.952c.063-.11.094-.156-.047-.235-.156-.093-.547-.296-.937-.171-.297.078-.547.296-.735.64-.468.813-.203 1.547.422 1.906.688.391 1.453.172 1.922-.64.469-.797.063-1.313-.031-1.375Zm-.953.11-.688 1.187c-.203-.125-.406-.266-.515-.453a.618.618 0 0 1 .03-.625c.329-.579 1-.22 1.173-.11Zm0 0"/></symbol><symbol overflow="visible" id="c"><path style="stroke:none" d="m1.813-3.156-.25-.14-.22.374-1.593.281-.344-1.015c-.031-.11-.047-.172.203-.625l-.25-.14-.265.5-.344.562.25.14a.333.333 0 0 1 .188-.172c0 .032.015.047.015.063l.266.75-.938.172.125-.219-.25-.14-.36.64-.359.594.25.14.22-.375 1.468-.25.39 1.157c.063.156-.046.343-.203.593l.25.141.266-.484.344-.547-.25-.14c-.063.093-.14.171-.172.155 0 0-.016-.015-.031-.062l-.297-.875 1.047-.188-.125.22.25.14.36-.657Zm0 0"/></symbol><symbol overflow="visible" id="d"><path style="stroke:none" d="M.547-2.594.25-2.766.094-2.5l.281.156c.39.235.438.485.344.656-.188.329-.563.11-.688.047l-1.593-.921.484-.829-.281-.156-.485.828-1.093-.64-.157.28c.578.345.985.954.672 1.517l.203.125.281-.47L-.359-1C.25-.64.67-1.078.906-1.484c.25-.438.063-.875-.36-1.11Zm0 0"/></symbol><symbol overflow="visible" id="e"><path style="stroke:none" d="M1.094-3.625c-.125-.063-.203.047-.219.078-.063.11-.031.14.047.25C1.14-3 1.14-2.5.906-2.078c-.531.906-1.39.422-1.719.234L.313-3.797c.079-.14.126-.203-.046-.297-.204-.125-.72-.36-1.22-.218-.359.093-.687.375-.952.828-.594 1.03-.25 1.984.547 2.437.89.516 1.89.203 2.5-.828.593-1.031.046-1.688-.047-1.75Zm-1.235.11-.89 1.546c-.25-.156-.516-.328-.64-.578a.789.789 0 0 1 .015-.797c.437-.765 1.281-.297 1.515-.172Zm0 0"/></symbol><symbol overflow="visible" id="f"><path style="stroke:none" d="M-2.469-5.406c-.297-.157-.75-.11-1.062.437-.375.657-.516 1.578.265 2.032l.688.39-.297.516.328.187.297-.515L.125-.984l-.266.468.329.188.468-.875c.14-.266.39-.688.578-.938l-.328-.187-.344.594-2.375-1.375.454-.782-.329-.187-.484.828-.687-.39c-.766-.438-.516-.985-.407-1.157.016-.031.032-.078.079-.11 0 .141.109.266.234.329.297.172.562.031.656-.156.125-.22.11-.5-.172-.672Zm0 0"/></symbol><symbol overflow="visible" id="g"><path style="stroke:none" d="M-2.594-5.688c-.297-.171-.781-.093-1.094.454-.421.718-.546 1.671.266 2.14l.719.406-.313.547.329.204.312-.547L.141-1.031l-.297.5.344.187.5-.922c.156-.28.421-.734.609-.984l-.344-.188-.375.641-2.515-1.453.484-.844-.328-.203-.5.89L-3-3.811c-.797-.47-.563-1.063-.453-1.235a.276.276 0 0 1 .078-.125c.016.156.125.281.266.36a.476.476 0 0 0 .687-.157c.125-.218.125-.547-.172-.718Zm0 0"/></symbol><symbol overflow="visible" id="h"><path style="stroke:none" d="M1.281-4.234c-.14-.079-.234.078-.25.109-.078.125-.047.156.047.266.266.375.266.937-.016 1.437-.609 1.063-1.64.5-2.03.266L.358-4.437c.094-.172.141-.25-.062-.36-.219-.14-.813-.406-1.406-.234-.422.11-.797.437-1.094.953-.703 1.219-.297 2.312.64 2.844 1.016.593 2.188.25 2.875-.954.704-1.203.094-1.984-.03-2.046Zm-1.437.125-1.047 1.812c-.281-.187-.594-.375-.766-.687a.939.939 0 0 1 .032-.938c.5-.875 1.5-.328 1.78-.187Zm0 0"/></symbol><symbol overflow="visible" id="i"><path style="stroke:none" d="M1.25-4.313c-.125-.062-.188.047-.234.141-.079.125-.047.156.015.25.39.5.328.953.094 1.36-.64 1.093-1.813.421-2.172.218-.437-.25-1.469-.844-.875-1.86.156-.28.266-.405.344-.5a.692.692 0 0 0 .266.376c.359.203.656 0 .78-.219.141-.234.141-.594-.202-.781-.672-.39-1.25.5-1.516.969-.828 1.421-.25 2.53.656 3.046 1.063.61 2.235.297 2.938-.921.75-1.282-.032-2.047-.094-2.079Zm0 0"/></symbol><symbol overflow="visible" id="j"><path style="stroke:none" d="M.781-3.75.344-4l-.219.375.422.25c.578.328.61.719.484.953-.281.469-.812.156-1 .047L-2.25-3.688l.703-1.203-.39-.218-.704 1.203-1.578-.922-.218.39c.812.5 1.406 1.375.953 2.204l.296.171.391-.687L-.53-1.437c.875.5 1.484-.094 1.812-.688.375-.625.11-1.266-.5-1.625Zm0 0"/></symbol><symbol overflow="visible" id="k"><path style="stroke:none" d="M.86-4.266c-.376-.218-.766-.218-1.188-.062-.453.187-.656.453-1.172 1.031-.234.297-.64.797-1.047.563-.547-.313-.094-1.11 0-1.266.375-.656.813-.828 1.328-.594.125.063.188.063.282-.11.125-.202.078-.218-.125-.343l-.688-.39c-.156-.094-.234-.141-.328 0-.016.046-.031.062-.063.5-.25.156-.468.421-.656.765-.156.266-.922 1.594.203 2.25.344.188.672.156.922.063.484-.172.75-.485 1.25-1.063.234-.281.703-.86 1.219-.562.656.375.203 1.171.094 1.359-.532.922-1.297.75-1.735.656-.125-.031-.156.016-.219.125-.125.219-.078.25.11.36L0-.438c.156.094.234.141.328-.015C.36-.516.36-.531.344-.797l-.031-.281c.515-.25.78-.703.875-.875.156-.281.921-1.594-.329-2.313Zm0 0"/></symbol><symbol overflow="visible" id="l"><path style="stroke:none" d="M2.75-5.297c-.203-.125-.281 0-.344.125-.344.563-.453.484-.672.36L-.28-5.97c-.828-.484-1.828-.156-2.625 1.235-.313.53-.922 1.687-.11 2.171.407.235.782 0 .922-.25.172-.296.14-.703-.25-.921-.281-.172-.531-.094-.578-.047.094-.313.266-.625.328-.735.406-.703.985-.78 1.688-.375l.328.188c-.36.672-1.656 3.094-.297 3.875.906.515 1.734-.547 2.11-1.203.421-.735.312-1.406.03-1.828.282.156.72.406 1.282-.563l.265-.453c.11-.188.172-.297-.062-.422ZM.594-4.03c.89.515.531 1.437.39 1.687-.28.469-.812.64-1.218.406-1.016-.593-.313-2.14-.063-2.609Zm0 0"/></symbol><symbol overflow="visible" id="m"><path style="stroke:none" d="m1.64-2.844-.452-.265-.391.671-6.281-3.624-.907 1.765.454.266c.343-.61.375-.672.765-.453l5.36 3.093-.376.672.454.266.656-1.219Zm0 0"/></symbol><symbol overflow="visible" id="n"><path style="stroke:none" d="M.953-6.719C-.407-7.5-1.953-7.156-2.89-5.516c-.953 1.641-.453 3.157.891 3.922 1.234.719 2.734.422 3.719-1.265.968-1.704.468-3.141-.766-3.86ZM.11-5.5c.86.5 1.954 1.14 1.22 2.422-.75 1.281-1.845.64-2.704.14-.469-.265-.984-.562-1.203-.921-.266-.407-.235-.954.062-1.454.235-.421.641-.75 1.11-.765.468-.016 1.031.297 1.515.578Zm0 0"/></symbol><symbol overflow="visible" id="o"><path style="stroke:none" d="m3.703-6.406-.484-.282-.422.72L.094-7.532C-1-8.156-1.75-7.828-2.344-6.797c-.578 1.016-.297 1.906.078 2.484l-1.14-.656-.922 1.844.484.281c.375-.64.422-.719.828-.484l3.22 1.86-.423.718.485.281L1-1.797l.781-1.297-.484-.281-.406.719-2.188-1.25c-1.125-.656-1.125-1.86-.75-2.5.203-.36.547-.453 1.344 0l2.812 1.625-.406.718.484.282.72-1.328Zm0 0"/></symbol><symbol overflow="visible" id="p"><path style="stroke:none" d="M-.813-8.484a.74.74 0 0 0-1.015.312c-.094.156-.36.688-.25 1.39-.235.11-.735.438-1.203 1.235-.89 1.563-.375 2.625.36 3.063.452.25 1.015.296 1.468.109.203.516.516.781.75.906.156.094.719.36 1.297.125C.563-1.187.344-.28 1.016.11c.546.313 1.687.204 2.937-1.953 1.11-1.906.953-3.125.188-3.562-.313-.188-1.047-.485-1.829.031-.64.422-1.015 1.078-1.624 2.11-.157.28-.438.78-.485.828a.803.803 0 0 1-1.016.203c-.109-.063-.265-.188-.296-.313.546-.36.859-.875 1.015-1.156.906-1.547.422-2.64-.344-3.078-.5-.297-1-.219-1.28-.157.015-.437.109-.671.171-.78.063.046.14.124.203.155.282.157.578.079.735-.187a.522.522 0 0 0-.204-.734Zm-.328 2.921c.485.282 1.22.704.672 1.641-.547.953-1.281.531-1.765.25-.485-.281-1.204-.703-.657-1.656.547-.938 1.266-.516 1.75-.234Zm4.782 1.125c.375.22.734.97-.079 2.375C2.813-.766 2.016-.53 1.517-.813c-.641-.375-.25-1.062-.172-1.203l.734-1.28c.188-.313.89-1.532 1.563-1.142Zm0 0"/></symbol><symbol overflow="visible" id="q"><path style="stroke:none" d="M1.406-8.39c-1.515-.876-3.218-.454-4.172 1.218-.5.844-.484 1.672-.421 2.047l-.579-.328-1.093 2.094.546.312c.422-.719.47-.797.922-.531L2.391-.25l-.47.797.548.312.797-1.468.89-1.438-.547-.312-.468.796L1-2.78c.703-.266 1.094-.719 1.375-1.188.984-1.719.656-3.484-.969-4.422Zm-.86 1.484c1.626.937 1.766 2.078 1.329 2.828-.094.156-.406.687-1.297.875-.234.031-.25.031-.469-.094l-2.437-1.422c-.219-.125-.219-.14-.297-.39-.188-.735.078-1.375.219-1.625.453-.782 1.515-1 2.953-.172Zm0 0"/></symbol><symbol overflow="visible" id="r"><path style="stroke:none" d="M3.5-6.719c-.281-.156-.36 0-.453.157-.422.703-.578.625-.86.453L-.358-7.58c-1.047-.609-2.313-.202-3.329 1.563-.39.672-1.187 2.141-.156 2.75.531.297 1 .032 1.188-.296.219-.36.187-.891-.328-1.172-.344-.204-.672-.125-.735-.094.14-.375.344-.766.422-.906.516-.891 1.25-1.016 2.156-.5L-.734-6c-.454.875-2.079 3.938-.36 4.938 1.125.656 2.188-.688 2.657-1.516.546-.953.39-1.766.046-2.344.375.219.922.531 1.625-.687l.329-.579c.14-.218.218-.375-.063-.53ZM.75-5.14c1.14.657.672 1.86.5 2.157-.36.609-1.031.843-1.563.53-1.28-.733-.374-2.702-.062-3.327Zm0 0"/></symbol><symbol overflow="visible" id="s"><path style="stroke:none" d="m1.172-5.547-.656-.375-.329.578.625.36c.844.484.907 1.046.704 1.39-.407.703-1.172.25-1.454.094l-3.374-1.953 1.03-1.781-.577-.329-1.032 1.782-2.328-1.344-.328.578c1.203.703 2.063 2 1.39 3.25l.454.25.578-1.015 3.344 1.937c1.312.75 2.187-.172 2.687-1.031.532-.922.157-1.875-.734-2.39Zm0 0"/></symbol><symbol overflow="visible" id="t"><path style="stroke:none" d="m4.469-7.734-.594-.344-.5.86L.109-9.095c-1.312-.765-2.187-.375-2.921.89-.704 1.22-.344 2.282-.032 2.845v.015l-4.281-2.468-1.188 2.265.61.344c.453-.797.5-.875.984-.594L.234-1.78l-.5.875.594.344.86-1.61.968-1.562-.594-.344-.5.86-2.625-1.516c-1.375-.782-1.359-2.22-.906-3.016.25-.422.672-.531 1.625.016l3.39 1.953-.5.86.595.343.859-1.594Zm0 0"/></symbol><symbol overflow="visible" id="v"><path style="stroke:none" d="M-6.313-8.016c-.5-.28-1.187-.062-1.515.485-.313.562-.156 1.265.344 1.547.078.046.109.062.25.125l5.078 2.046c.344.141.375.141.531-.14.14-.235.14-.297-.094-.469l-4.437-3.484ZM.875-3.859c-.547-.329-1.266-.11-1.594.437a1.166 1.166 0 0 0 .422 1.578c.563.328 1.281.14 1.594-.422a1.16 1.16 0 0 0-.422-1.593Zm0 0"/></symbol><clipPath id="u"><path d="M51 0h11.746v8H51Zm0 0"/></clipPath></defs><use xlink:href="#a" x="3.091" y="107.958" style="fill:#000;fill-opacity:1"/><use xlink:href="#b" x="4.297" y="105.869" style="fill:#000;fill-opacity:1"/><use xlink:href="#c" x="5.828" y="103.216" style="fill:#000;fill-opacity:1"/><use xlink:href="#d" x="7.718" y="99.943" style="fill:#000;fill-opacity:1"/><use xlink:href="#e" x="10.554" y="95.032" style="fill:#000;fill-opacity:1"/><use xlink:href="#f" x="12.523" y="91.622" style="fill:#000;fill-opacity:1"/><use xlink:href="#g" x="13.907" y="89.224" style="fill:#000;fill-opacity:1"/><use xlink:href="#h" x="15.364" y="86.701" style="fill:#000;fill-opacity:1"/><use xlink:href="#i" x="17.661" y="82.722" style="fill:#000;fill-opacity:1"/><use xlink:href="#j" x="19.994" y="78.681" style="fill:#000;fill-opacity:1"/><use xlink:href="#k" x="22.128" y="74.985" style="fill:#000;fill-opacity:1"/><use xlink:href="#l" x="26.376" y="67.626" style="fill:#000;fill-opacity:1"/><use xlink:href="#m" x="29.393" y="62.401" style="fill:#000;fill-opacity:1"/><use xlink:href="#n" x="31.18" y="59.305" style="fill:#000;fill-opacity:1"/><use xlink:href="#o" x="34.522" y="53.517" style="fill:#000;fill-opacity:1"/><use xlink:href="#p" x="38.368" y="46.855" style="fill:#000;fill-opacity:1"/><use xlink:href="#q" x="44.412" y="36.386" style="fill:#000;fill-opacity:1"/><use xlink:href="#r" x="48.656" y="29.035" style="fill:#000;fill-opacity:1"/><use xlink:href="#s" x="52.485" y="22.404" style="fill:#000;fill-opacity:1"/><use xlink:href="#t" x="55.639" y="16.94" style="fill:#000;fill-opacity:1"/><g clip-path="url(#u)"><use xlink:href="#v" x="60.281" y="8.9" style="fill:#000;fill-opacity:1"/></g></svg>