<svg xmlns="http://www.w3.org/2000/svg" xmlns:xlink="http://www.w3.org/1999/xlink" width="100.528" height="45.819" viewBox="0 0 75.396 34.364" version="1.2"><defs><symbol overflow="visible" id="b"><path style="stroke:none" d="M.453 1.219c-.078.343-.11.406-.547.406-.11 0-.218 0-.218.188 0 .078.046.125.124.125.266 0 .563-.032.829-.032.343 0 .671.032 1 .032.046 0 .171 0 .171-.204 0-.109-.093-.109-.234-.109-.5 0-.5-.063-.5-.156 0-.125.422-1.75.484-2 .125.297.407.64.922.64 1.157 0 2.407-1.453 2.407-2.921 0-.938-.579-1.594-1.329-1.594-.5 0-.984.36-1.312.75-.094-.547-.531-.75-.89-.75-.47 0-.657.39-.735.562-.188.344-.313.938-.313.969 0 .11.094.11.11.11.11 0 .11-.016.172-.235.172-.703.375-1.188.734-1.188.172 0 .313.079.313.454 0 .234-.032.343-.079.515Zm1.75-4.328c.063-.266.344-.547.516-.704.36-.296.64-.374.812-.374.39 0 .64.343.64.937 0 .594-.327 1.734-.515 2.11-.344.702-.812 1.03-1.187 1.03-.656 0-.781-.828-.781-.89 0-.016 0-.031.03-.156Zm0 0"/></symbol><symbol overflow="visible" id="c"><path style="stroke:none" d="M2.328-4.438c0-.187 0-.187-.203-.187-.453.438-1.078.438-1.36.438v.25c.157 0 .626 0 1-.188v3.547c0 .234 0 .328-.687.328H.812V0c.125 0 .985-.031 1.235-.031.219 0 1.094.031 1.25.031v-.25H3.03c-.703 0-.703-.094-.703-.328Zm0 0"/></symbol><symbol overflow="visible" id="e"><path style="stroke:none" d="M3.516-1.266H3.28c-.015.157-.094.563-.187.625-.047.047-.578.047-.688.047H1.125c.734-.64.984-.844 1.39-1.172.516-.406 1-.843 1-1.5 0-.843-.734-1.359-1.624-1.359-.86 0-1.454.61-1.454 1.25 0 .344.297.39.376.39.156 0 .359-.124.359-.374 0-.125-.047-.375-.406-.375.218-.485.687-.641 1.015-.641.703 0 1.063.547 1.063 1.11 0 .609-.438 1.078-.656 1.328L.516-.266C.437-.203.437-.187.437 0h2.876Zm0 0"/></symbol><symbol overflow="visible" id="f"><path style="stroke:none" d="M3.297-1.86c.015-.077.015-.109.015-.109 0-.11-.078-.172-.171-.172-.204 0-.25.172-.282.297l-.109.422-.14.625c-.032.063-.047.156-.063.188 0 .03-.266.5-.688.5-.234 0-.406-.11-.406-.438 0-.265.14-.64.281-1a.452.452 0 0 0 .063-.219c0-.25-.234-.437-.547-.437-.516 0-.797.64-.797.765 0 .079.078.079.11.079.078 0 .078-.032.109-.094.11-.344.344-.578.562-.578.094 0 .157.047.157.187 0 .094-.032.172-.063.266-.25.594-.297.766-.297.969 0 .546.469.671.797.671.281 0 .5-.14.625-.25-.078.282-.125.5-.36.735-.124.11-.359.312-.655.312-.094 0-.282-.015-.391-.125a.326.326 0 0 0 .25-.296c0-.141-.125-.204-.219-.204A.324.324 0 0 0 .75.578c0 .25.266.438.688.438C2 1.016 2.671.64 2.827 0Zm0 0"/></symbol><clipPath id="a"><path d="M0 5h29v29.047H0Zm0 0"/></clipPath><clipPath id="d"><path d="M46 5h29.094v29.047H46Zm0 0"/></clipPath></defs><g clip-path="url(#a)"><path style="fill:none;stroke-width:.3985;stroke-linecap:butt;stroke-linejoin:miter;stroke:#000;stroke-opacity:1;stroke-miterlimit:10" d="M11.058 0C11.058 6.11 6.11 11.058 0 11.058-6.11 11.058-11.06 6.11-11.06 0c0-6.11 4.95-11.059 11.059-11.059 6.11 0 11.058 4.95 11.058 11.059Zm0 0" transform="matrix(1 0 0 -1 11.965 21.785)"/></g><use xlink:href="#b" x="7.224" y="5.07" style="fill:#000;fill-opacity:1"/><use xlink:href="#c" x="12.236" y="6.564" style="fill:#000;fill-opacity:1"/><path style="stroke:none;fill-rule:nonzero;fill:#000;fill-opacity:1" d="M14.176 21.785c0-1.223-.989-2.21-2.211-2.21-1.223 0-2.211.988-2.211 2.21 0 1.223.988 2.211 2.21 2.211 1.223 0 2.212-.988 2.212-2.21Zm0 0"/><g clip-path="url(#d)"><path style="fill:none;stroke-width:.3985;stroke-linecap:butt;stroke-linejoin:miter;stroke:#000;stroke-opacity:1;stroke-miterlimit:10" d="M61.922 0c0 6.11-4.953 11.058-11.059 11.058-6.11 0-11.058-4.949-11.058-11.058 0-6.11 4.949-11.059 11.058-11.059 6.106 0 11.059 4.95 11.059 11.059Zm0 0" transform="matrix(1 0 0 -1 11.965 21.785)"/></g><use xlink:href="#b" x="58.086" y="5.07" style="fill:#000;fill-opacity:1"/><use xlink:href="#e" x="63.098" y="6.564" style="fill:#000;fill-opacity:1"/><path style="stroke:none;fill-rule:nonzero;fill:#000;fill-opacity:1" d="M65.988 21.785a3.16 3.16 0 0 0-3.16-3.16 3.16 3.16 0 0 0-3.16 3.16 3.16 3.16 0 0 0 3.16 3.16 3.16 3.16 0 0 0 3.16-3.16Zm0 0"/><use xlink:href="#f" x="60.918" y="22.373" style="fill:#fff;fill-opacity:1"/></svg>