<svg xmlns="http://www.w3.org/2000/svg" width="139.288" height="139.299" viewBox="0 0 104.466 104.474" version="1.2"><defs><clipPath id="a"><path d="M0 0h104.2v104.21H0Zm0 0"/></clipPath><clipPath id="b"><path d="M0 0h103v104H0Zm0 0"/></clipPath><clipPath id="c"><path d="M102.992 51.977c0-28.18-22.844-51.024-51.027-51.024C23.785.953.94 23.797.94 51.977c0 28.183 22.844 51.027 51.024 51.027 28.183 0 51.027-22.844 51.027-51.027Zm0 0"/></clipPath><clipPath id="d"><path d="M0 94h103v1H0Zm0 0"/></clipPath><clipPath id="e"><path d="M102.992 51.977c0-28.18-22.844-51.024-51.027-51.024C23.785.953.94 23.797.94 51.977c0 28.183 22.844 51.027 51.024 51.027 28.183 0 51.027-22.844 51.027-51.027Zm0 0"/></clipPath><clipPath id="f"><path d="M9 0h1v104H9Zm0 0"/></clipPath><clipPath id="g"><path d="M102.992 51.977c0-28.18-22.844-51.024-51.027-51.024C23.785.953.94 23.797.94 51.977c0 28.183 22.844 51.027 51.024 51.027 28.183 0 51.027-22.844 51.027-51.027Zm0 0"/></clipPath><clipPath id="h"><path d="M0 3h101v101H0Zm0 0"/></clipPath><clipPath id="i"><path d="M102.992 51.977c0-28.18-22.844-51.024-51.027-51.024C23.785.953.94 23.797.94 51.977c0 28.183 22.844 51.027 51.024 51.027 28.183 0 51.027-22.844 51.027-51.027Zm0 0"/></clipPath><clipPath id="j"><path d="M25 76h16v25H25Zm0 0"/></clipPath><clipPath id="k"><path d="M102.992 51.977c0-28.18-22.844-51.024-51.027-51.024C23.785.953.94 23.797.94 51.977c0 28.183 22.844 51.027 51.024 51.027 28.183 0 51.027-22.844 51.027-51.027Zm0 0"/></clipPath></defs><g clip-path="url(#a)"><path style="fill:none;stroke-width:.3985;stroke-linecap:butt;stroke-linejoin:miter;stroke:#000;stroke-opacity:1;stroke-miterlimit:10" d="M93.546 42.521c0 28.18-22.844 51.024-51.027 51.024-28.18 0-51.024-22.844-51.024-51.024 0-28.183 22.844-51.027 51.024-51.027 28.183 0 51.027 22.844 51.027 51.027Zm0 0" transform="matrix(1 0 0 -1 9.446 94.498)"/></g><g clip-path="url(#b)"><g clip-path="url(#c)"><path style="fill:none;stroke-width:.19925;stroke-linecap:butt;stroke-linejoin:miter;stroke:gray;stroke-opacity:1;stroke-miterlimit:10" d="M-119.055-85.041h238.113m-238.113 42.52h238.113M-119.055.001h238.113m-238.113 42.52h238.113M-119.055 85.04h238.113M-85.04-119.057v238.114m42.52-238.114v238.114M0-119.057v238.114m42.519-238.114v238.114m42.523-238.114v238.114" transform="matrix(1 0 0 -1 9.446 94.498)"/></g></g><g clip-path="url(#d)"><g clip-path="url(#e)"><path style="fill:none;stroke-width:.3985;stroke-linecap:butt;stroke-linejoin:miter;stroke:#000;stroke-opacity:1;stroke-miterlimit:10" d="M-127.56.002h255.122" transform="matrix(1 0 0 -1 9.446 94.498)"/></g></g><g clip-path="url(#f)"><g clip-path="url(#g)"><path style="fill:none;stroke-width:.3985;stroke-linecap:butt;stroke-linejoin:miter;stroke:#000;stroke-opacity:1;stroke-miterlimit:10" d="M0-127.56v255.12" transform="matrix(1 0 0 -1 9.446 94.498)"/></g></g><g clip-path="url(#h)"><g clip-path="url(#i)"><path style="fill:none;stroke-width:.3985;stroke-linecap:butt;stroke-linejoin:miter;stroke:#000;stroke-opacity:1;stroke-miterlimit:10" d="M85.042.002C85.042 46.967 46.968 85.04 0 85.04c-46.965 0-85.039-38.074-85.039-85.04C-85.04-46.966-46.966-85.04 0-85.04c46.968 0 85.042 38.074 85.042 85.043Zm0 0" transform="matrix(1 0 0 -1 9.446 94.498)"/></g></g><g clip-path="url(#j)"><g clip-path="url(#k)"><path style="fill:none;stroke-width:.3985;stroke-linecap:butt;stroke-linejoin:miter;stroke:#000;stroke-opacity:1;stroke-miterlimit:10" d="M25.511.002a25.52 25.52 0 0 1-3.418 12.754" transform="matrix(1 0 0 -1 9.446 94.498)"/></g></g></svg>