<svg xmlns="http://www.w3.org/2000/svg" xmlns:xlink="http://www.w3.org/1999/xlink" width="285.493" height="251.163" viewBox="0 0 214.12 188.372" version="1.2"><defs><symbol overflow="visible" id="a"><path style="stroke:none" d="M3.328-3.016c.063-.25.297-1.171.985-1.171.046 0 .296 0 .5.125a.578.578 0 0 0-.47.546c0 .157.11.344.376.344a.546.546 0 0 0 .531-.578c0-.516-.578-.656-.922-.656-.578 0-.922.531-1.047.75-.25-.656-.781-.75-1.078-.75-1.031 0-1.61 1.281-1.61 1.531 0 .11.11.11.126.11.078 0 .11-.032.125-.11.344-1.063 1-1.313 1.344-1.313.187 0 .53.094.53.672 0 .313-.171.97-.53 2.375-.157.61-.516 1.032-.954 1.032-.062 0-.28 0-.5-.125.25-.063.47-.266.47-.547 0-.266-.22-.344-.36-.344-.313 0-.547.25-.547.578 0 .453.484.656.922.656.672 0 1.031-.703 1.047-.75.125.36.484.75 1.078.75 1.031 0 1.594-1.28 1.594-1.53 0-.11-.079-.11-.11-.11-.094 0-.11.047-.14.11-.329 1.077-1 1.312-1.313 1.312-.39 0-.547-.313-.547-.657 0-.218.047-.437.156-.875Zm0 0"/></symbol><symbol overflow="visible" id="c"><path style="stroke:none" d="M2.047-3.984h.937c.204 0 .313 0 .313-.204 0-.109-.11-.109-.281-.109H2.14c.359-1.422.406-1.61.406-1.672 0-.172-.125-.265-.297-.265-.031 0-.313 0-.39.359l-.391 1.578H.53c-.203 0-.297 0-.297.188 0 .125.078.125.282.125h.875C.67-1.156.625-.984.625-.813c0 .547.375.922.922.922 1.016 0 1.578-1.453 1.578-1.53 0-.11-.078-.11-.11-.11-.093 0-.109.031-.156.14C2.438-.344 1.906-.109 1.563-.109c-.204 0-.313-.125-.313-.454 0-.25.031-.312.063-.484Zm0 0"/></symbol><symbol overflow="visible" id="e"><path style="stroke:none" d="M4.844-3.797c.047-.14.047-.156.047-.234 0-.172-.141-.266-.297-.266a.455.455 0 0 0-.344.203c-.016.063-.11.36-.14.547-.079.25-.141.531-.204.797L3.453-.953c-.031.14-.469.844-1.125.844-.5 0-.61-.438-.61-.813 0-.453.173-1.078.5-1.953.157-.406.204-.516.204-.719 0-.437-.313-.812-.813-.812-.953 0-1.312 1.453-1.312 1.531 0 .11.094.11.11.11.109 0 .109-.032.156-.188.28-.938.671-1.235 1.015-1.235.078 0 .25 0 .25.313 0 .25-.11.516-.172.703-.406 1.063-.578 1.625-.578 2.094 0 .89.625 1.187 1.219 1.187.39 0 .719-.171 1-.453-.125.516-.25 1.016-.64 1.547-.266.328-.641.625-1.095.625-.14 0-.593-.031-.765-.422.156 0 .297 0 .422-.125a.493.493 0 0 0 .203-.406c0-.313-.266-.344-.36-.344C.829.531.5.687.5 1.171c0 .5.438.876 1.063.876 1.015 0 2.046-.906 2.328-2.031Zm0 0"/></symbol><symbol overflow="visible" id="k"><path style="stroke:none" d="M2.031-.016c0-.656-.25-1.046-.64-1.046a.517.517 0 0 0-.532.53c0 .266.204.532.532.532a.58.58 0 0 0 .343-.125c.032-.031.047-.031.047-.031.016 0 .016 0 .016.14 0 .75-.344 1.344-.672 1.672-.11.11-.11.125-.11.157 0 .078.048.109.094.109.11 0 .922-.766.922-1.938Zm0 0"/></symbol><symbol overflow="visible" id="b"><path style="stroke:none" d="M3.297 2.39c0-.03 0-.046-.172-.218C1.891.922 1.562-.968 1.562-2.5c0-1.734.375-3.469 1.61-4.703.125-.125.125-.14.125-.172 0-.078-.031-.11-.094-.11-.11 0-1 .688-1.594 1.954C1.11-4.438.984-3.328.984-2.5c0 .781.11 1.984.657 3.125C2.25 1.844 3.094 2.5 3.203 2.5c.063 0 .094-.031.094-.11Zm0 0"/></symbol><symbol overflow="visible" id="d"><path style="stroke:none" d="M2.875-2.5c0-.766-.11-1.969-.656-3.11C1.625-6.827.766-7.483.672-7.483a.107.107 0 0 0-.11.109c0 .031 0 .047.188.234.984.985 1.547 2.563 1.547 4.641 0 1.719-.36 3.469-1.594 4.719-.14.125-.14.14-.14.172 0 .062.046.109.109.109.094 0 1-.688 1.578-1.953.516-1.094.625-2.203.625-3.047Zm0 0"/></symbol><symbol overflow="visible" id="g"><path style="stroke:none" d="M2.938-6.375c0-.25 0-.266-.235-.266C2.078-6 1.203-6 .891-6v.313c.203 0 .78 0 1.296-.266v5.172c0 .36-.03.469-.921.469H.953V0c.344-.031 1.203-.031 1.61-.031.39 0 1.265 0 1.609.031v-.313h-.313c-.906 0-.921-.109-.921-.468Zm0 0"/></symbol><symbol overflow="visible" id="h"><path style="stroke:none" d="m1.266-.766 1.062-1.03c1.547-1.376 2.14-1.907 2.14-2.907 0-1.14-.89-1.938-2.109-1.938C1.234-6.64.5-5.719.5-4.828c0 .547.5.547.531.547.172 0 .516-.11.516-.532a.513.513 0 0 0-.531-.515c-.079 0-.094 0-.125.016.218-.657.765-1.016 1.343-1.016.907 0 1.329.812 1.329 1.625 0 .797-.485 1.578-1.047 2.203L.609-.375C.5-.265.5-.235.5 0h3.703l.266-1.734h-.235C4.172-1.438 4.11-1 4-.844c-.063.078-.719.078-.938.078Zm0 0"/></symbol><symbol overflow="visible" id="i"><path style="stroke:none" d="M2.89-3.516c.813-.265 1.391-.953 1.391-1.75 0-.812-.875-1.375-1.828-1.375-1 0-1.765.594-1.765 1.36 0 .328.218.515.515.515.297 0 .5-.218.5-.515 0-.485-.469-.485-.61-.485.298-.5.954-.625 1.313-.625.422 0 .969.22.969 1.11 0 .125-.031.703-.281 1.14-.297.485-.64.516-.89.516a3.29 3.29 0 0 1-.392.031c-.078.016-.14.031-.14.125 0 .11.062.11.234.11h.438c.812 0 1.187.671 1.187 1.656 0 1.36-.687 1.64-1.125 1.64-.437 0-1.187-.171-1.531-.75.344.047.656-.171.656-.546a.537.537 0 0 0-.547-.563c-.25 0-.562.14-.562.578C.422-.437 1.344.22 2.437.22c1.22 0 2.126-.906 2.126-1.922 0-.813-.641-1.594-1.672-1.813Zm0 0"/></symbol><symbol overflow="visible" id="m"><path style="stroke:none" d="M6.844-3.266c.156 0 .343 0 .343-.187 0-.203-.187-.203-.328-.203H.891c-.141 0-.329 0-.329.203 0 .187.188.187.329.187Zm.015 1.938c.141 0 .329 0 .329-.203 0-.188-.188-.188-.344-.188H.89c-.141 0-.329 0-.329.188 0 .203.188.203.329.203Zm0 0"/></symbol><symbol overflow="visible" id="n"><path style="stroke:none" d="M2.078-1.938c.219.047 1.031.204 1.031.922 0 .5-.343.907-1.125.907-.843 0-1.203-.563-1.39-1.422-.031-.125-.031-.157-.14-.157-.126 0-.126.063-.126.235v1.328c0 .172 0 .234.11.234C.483.11.5.094.688-.094.703-.109.703-.125.89-.312c.437.406.89.421 1.093.421 1.141 0 1.61-.671 1.61-1.39 0-.516-.297-.828-.422-.938-.328-.328-.719-.406-1.14-.484-.563-.11-1.22-.235-1.22-.813 0-.359.25-.765 1.11-.765 1.094 0 1.156.906 1.172 1.203 0 .094.094.094.11.094.14 0 .14-.047.14-.235v-1.015c0-.157 0-.235-.11-.235-.046 0-.078 0-.203.125-.031.032-.125.125-.172.157-.375-.282-.78-.282-.937-.282-1.219 0-1.594.672-1.594 1.235 0 .343.156.625.422.843.328.25.61.313 1.328.454Zm0 0"/></symbol><symbol overflow="visible" id="o"><path style="stroke:none" d="m1.766-4.406-1.391.11v.312c.64 0 .734.062.734.546V-.75c0 .438-.109.438-.78.438V0c.312-.016.859-.031 1.093-.031.36 0 .703.015 1.047.031v-.313c-.672 0-.703-.046-.703-.437Zm.03-1.735a.514.514 0 0 0-.515-.53.537.537 0 0 0-.531.53c0 .266.219.532.531.532a.514.514 0 0 0 .516-.532Zm0 0"/></symbol><symbol overflow="visible" id="p"><path style="stroke:none" d="M1.094-3.422V-.75c0 .438-.11.438-.782.438V0c.36-.016.86-.031 1.141-.031.25 0 .766.015 1.11.031v-.313c-.672 0-.782 0-.782-.437v-1.844c0-1.031.719-1.594 1.344-1.594.64 0 .75.532.75 1.11V-.75c0 .438-.11.438-.781.438V0c.344-.016.86-.031 1.125-.031.25 0 .781.015 1.11.031v-.313c-.516 0-.766 0-.766-.296v-1.907c0-.859 0-1.156-.313-1.515-.14-.172-.469-.375-1.047-.375-.734 0-1.203.422-1.484 1.047v-1.047l-1.407.11v.312c.704 0 .782.062.782.562Zm0 0"/></symbol><symbol overflow="visible" id="s"><path style="stroke:none" d="M1.172-2.172c0-1.625.812-2.047 1.344-2.047.093 0 .718.016 1.062.375-.406.031-.469.328-.469.453 0 .266.188.454.454.454.265 0 .468-.157.468-.47 0-.671-.765-1.062-1.531-1.062C1.25-4.469.344-3.39.344-2.156c0 1.281.984 2.265 2.14 2.265 1.329 0 1.657-1.203 1.657-1.296 0-.094-.11-.094-.141-.094-.078 0-.11.031-.125.093C3.594-.265 2.937-.14 2.578-.14c-.531 0-1.406-.421-1.406-2.03Zm0 0"/></symbol><symbol overflow="visible" id="t"><path style="stroke:none" d="M4.688-2.14c0-1.266-.985-2.329-2.188-2.329C1.25-4.469.281-3.375.281-2.14A2.22 2.22 0 0 0 2.484.11c1.204 0 2.204-.984 2.204-2.25ZM2.5-.14c-.438 0-.875-.204-1.14-.672-.25-.438-.25-1.047-.25-1.407 0-.39 0-.922.234-1.36a1.347 1.347 0 0 1 1.14-.671c.438 0 .86.219 1.125.656.266.422.266 1 .266 1.375 0 .36 0 .906-.219 1.344-.234.453-.672.734-1.156.734Zm0 0"/></symbol><symbol overflow="visible" id="w"><path style="stroke:none" d="M4.578-3.188c0-.796-.047-1.593-.39-2.328C3.733-6.484 2.905-6.64 2.5-6.64c-.61 0-1.328.266-1.75 1.188-.313.687-.36 1.469-.36 2.266 0 .75.032 1.64.454 2.406a1.83 1.83 0 0 0 1.64 1c.532 0 1.297-.203 1.735-1.157.312-.687.36-1.468.36-2.25ZM2.484 0c-.39 0-.984-.25-1.156-1.203-.11-.594-.11-1.516-.11-2.11 0-.64 0-1.296.079-1.828.187-1.187.937-1.28 1.187-1.28.329 0 .985.187 1.172 1.171.11.563.11 1.313.11 1.938 0 .75 0 1.421-.11 2.062C3.5-.297 2.937 0 2.484 0Zm0 0"/></symbol><symbol overflow="visible" id="f"><path style="stroke:none" d="M6.563-2.297c.171 0 .359 0 .359-.203 0-.188-.188-.188-.36-.188h-5.39c-.172 0-.344 0-.344.188 0 .203.172.203.344.203Zm0 0"/></symbol><symbol overflow="visible" id="j"><path style="stroke:none" d="M4.11 11.453c0-.031-.016-.062-.032-.094-.453-.484-1.14-1.296-1.562-2.921-.22-.907-.313-1.922-.313-2.86 0-2.625.625-4.453 1.828-5.75.078-.094.078-.11.078-.125 0-.11-.078-.11-.109-.11-.156 0-.688.61-.813.75-1.03 1.22-1.671 3-1.671 5.235 0 1.406.25 3.406 1.562 5.094.094.125.735.875.922.875.031 0 .11 0 .11-.094Zm0 0"/></symbol><symbol overflow="visible" id="l"><path style="stroke:none" d="M3.047 5.578c0-1.406-.25-3.422-1.563-5.094-.093-.125-.75-.89-.921-.89-.047 0-.125.031-.125.11 0 .03.015.062.062.093.484.516 1.125 1.328 1.531 2.922.235.906.328 1.922.328 2.86 0 1-.093 2.015-.359 3-.375 1.39-.969 2.187-1.469 2.75-.094.093-.094.108-.094.124 0 .078.079.094.126.094.14 0 .687-.594.812-.735 1.016-1.218 1.672-3 1.672-5.234Zm0 0"/></symbol><symbol overflow="visible" id="q"><path style="stroke:none" d="M2.328-4.438c0-.187 0-.187-.203-.187-.453.438-1.078.438-1.36.438v.25c.157 0 .626 0 1-.188v3.547c0 .234 0 .328-.687.328H.812V0c.125 0 .985-.031 1.235-.031.219 0 1.094.031 1.25.031v-.25H3.03c-.703 0-.703-.094-.703-.328Zm0 0"/></symbol><symbol overflow="visible" id="u"><path style="stroke:none" d="M3.516-1.266H3.28c-.015.157-.094.563-.187.625-.047.047-.578.047-.688.047H1.125c.734-.64.984-.844 1.39-1.172.516-.406 1-.843 1-1.5 0-.843-.734-1.359-1.624-1.359-.86 0-1.454.61-1.454 1.25 0 .344.297.39.376.39.156 0 .359-.124.359-.374 0-.125-.047-.375-.406-.375.218-.485.687-.641 1.015-.641.703 0 1.063.547 1.063 1.11 0 .609-.438 1.078-.656 1.328L.516-.266C.437-.203.437-.187.437 0h2.876Zm0 0"/></symbol><symbol overflow="visible" id="r"><path style="stroke:none" d="M1.719-2.75h.703c.14 0 .219 0 .219-.156C2.64-3 2.562-3 2.437-3h-.656l.25-1.031a.324.324 0 0 0 .031-.094c0-.14-.109-.234-.25-.234-.171 0-.265.125-.328.296-.046.188.047-.156-.265 1.063H.516c-.125 0-.22 0-.22.156 0 .094.079.094.204.094h.656L.75-1.11c-.047.173-.11.423-.11.516 0 .406.36.656.75.656.782 0 1.22-.968 1.22-1.062 0-.094-.094-.094-.11-.094-.094 0-.094.016-.156.14-.188.438-.547.829-.922.829-.156 0-.25-.094-.25-.344 0-.062.031-.219.047-.281Zm0 0"/></symbol><symbol overflow="visible" id="v"><path style="stroke:none" d="M2.172-2.531H3c-.11.422-.266 1.047-.266 1.61 0 .28.047.468.079.609.109.359.203.374.312.374.172 0 .328-.14.328-.312 0-.047-.015-.078-.047-.14-.14-.266-.265-.657-.265-1.235 0-.125 0-.406.093-.906h.875c.125 0 .188 0 .266-.047a.31.31 0 0 0 .11-.219C4.484-3 4.311-3 4.186-3H1.563c-.28 0-.484.063-.796.36-.188.156-.454.53-.454.593 0 .078.094.078.126.078.078 0 .078-.015.124-.078.344-.484.782-.484.938-.484h.422c-.219.765-.594 1.594-.797 2.015-.047.079-.11.235-.14.25 0 .032-.016.063-.016.11 0 .11.078.218.25.218.265 0 .343-.312.515-.937Zm0 0"/></symbol></defs><path style="fill:none;stroke-width:.19925;stroke-linecap:butt;stroke-linejoin:miter;stroke:gray;stroke-opacity:1;stroke-miterlimit:10" d="M-53.86-28.348H82.205M-53.861 0H82.206M-53.861 28.347H82.206M-53.861 56.695H82.206M-53.861 85.039H82.206M-28.345-53.86v164.41M-.001-53.86v164.41M28.346-53.86v164.41M56.694-53.86v164.41M-28.345-28.348h56.691m-56.691 7.09h56.691m-56.691 7.086h56.691m-56.691 7.086h56.691M-28.345 0h56.691m-56.691 7.086h56.691m-56.691 7.086h56.691m-56.691 7.09h56.691m-56.691 7.085h56.691m-56.691-56.695v56.695m7.086-56.695v56.695m7.086-56.695v56.695m7.086-56.695v56.695m7.086-56.695v56.695m7.09-56.695v56.695m7.085-56.695v56.695m7.086-56.695v56.695m7.086-56.695v56.695" transform="matrix(1 0 0 -1 57.263 127.527)"/><path style="fill:none;stroke-width:.3985;stroke-linecap:butt;stroke-linejoin:miter;stroke:#00f;stroke-opacity:1;stroke-miterlimit:10" d="M28.346-59.528v175.75" transform="matrix(1 0 0 -1 57.263 127.527)"/><path style="fill:none;stroke-width:.3985;stroke-linecap:butt;stroke-linejoin:miter;stroke:#000;stroke-opacity:1;stroke-miterlimit:10" d="M-56.693 0H84.643" transform="matrix(1 0 0 -1 57.263 127.527)"/><path style="fill:none;stroke-width:.3985;stroke-linecap:round;stroke-linejoin:round;stroke:#000;stroke-opacity:1;stroke-miterlimit:10" d="M-2.073 2.39C-1.694.957-.85.277.001 0-.85-.278-1.694-.957-2.073-2.391" transform="matrix(1 0 0 -1 142.104 127.527)"/><use xlink:href="#a" x="145.822" y="130.017" style="fill:#000;fill-opacity:1"/><use xlink:href="#b" x="151.516" y="130.017" style="fill:#000;fill-opacity:1"/><use xlink:href="#c" x="155.391" y="130.017" style="fill:#000;fill-opacity:1"/><use xlink:href="#d" x="158.988" y="130.017" style="fill:#000;fill-opacity:1"/><path style="fill:none;stroke-width:.3985;stroke-linecap:butt;stroke-linejoin:miter;stroke:#000;stroke-opacity:1;stroke-miterlimit:10" d="M-.001-56.692v169.68" transform="matrix(1 0 0 -1 57.263 127.527)"/><path style="fill:none;stroke-width:.3985;stroke-linecap:round;stroke-linejoin:round;stroke:#000;stroke-opacity:1;stroke-miterlimit:10" d="M-2.071 2.392C-1.692.958-.848.279-.001.002-.848-.28-1.692-.957-2.07-2.39" transform="matrix(0 -1 -1 0 57.263 14.339)"/><use xlink:href="#e" x="48.969" y="8.131" style="fill:#000;fill-opacity:1"/><use xlink:href="#b" x="54.211" y="8.131" style="fill:#000;fill-opacity:1"/><use xlink:href="#c" x="58.085" y="8.131" style="fill:#000;fill-opacity:1"/><use xlink:href="#d" x="61.683" y="8.131" style="fill:#000;fill-opacity:1"/><path style="fill:none;stroke-width:.3985;stroke-linecap:butt;stroke-linejoin:miter;stroke:#000;stroke-opacity:1;stroke-miterlimit:10" d="M-28.345 1.992v-3.985" transform="matrix(1 0 0 -1 57.263 127.527)"/><use xlink:href="#f" x="22.552" y="139.459" style="fill:#000;fill-opacity:1"/><use xlink:href="#g" x="30.3" y="139.459" style="fill:#000;fill-opacity:1"/><path style="fill:none;stroke-width:.3985;stroke-linecap:butt;stroke-linejoin:miter;stroke:#000;stroke-opacity:1;stroke-miterlimit:10" d="M56.694 1.992v-3.985" transform="matrix(1 0 0 -1 57.263 127.527)"/><use xlink:href="#h" x="111.465" y="139.459" style="fill:#000;fill-opacity:1"/><path style="fill:none;stroke-width:.3985;stroke-linecap:butt;stroke-linejoin:miter;stroke:#000;stroke-opacity:1;stroke-miterlimit:10" d="M1.99-28.348h-3.983" transform="matrix(1 0 0 -1 57.263 127.527)"/><use xlink:href="#f" x="39.021" y="158.668" style="fill:#000;fill-opacity:1"/><use xlink:href="#g" x="46.77" y="158.668" style="fill:#000;fill-opacity:1"/><path style="fill:none;stroke-width:.3985;stroke-linecap:butt;stroke-linejoin:miter;stroke:#000;stroke-opacity:1;stroke-miterlimit:10" d="M1.99 28.347h-3.983" transform="matrix(1 0 0 -1 57.263 127.527)"/><use xlink:href="#g" x="46.77" y="102.39" style="fill:#000;fill-opacity:1"/><path style="fill:none;stroke-width:.3985;stroke-linecap:butt;stroke-linejoin:miter;stroke:#000;stroke-opacity:1;stroke-miterlimit:10" d="M1.99 56.695h-3.983" transform="matrix(1 0 0 -1 57.263 127.527)"/><use xlink:href="#h" x="46.77" y="74.044" style="fill:#000;fill-opacity:1"/><path style="fill:none;stroke-width:.3985;stroke-linecap:butt;stroke-linejoin:miter;stroke:#000;stroke-opacity:1;stroke-miterlimit:10" d="M1.99 85.039h-3.983" transform="matrix(1 0 0 -1 57.263 127.527)"/><use xlink:href="#i" x="46.77" y="45.698" style="fill:#000;fill-opacity:1"/><path style="stroke:none;fill-rule:nonzero;fill:#000;fill-opacity:1" d="M59.078 127.527a1.812 1.812 0 0 0-1.816-1.812 1.811 1.811 0 1 0 0 3.625 1.815 1.815 0 0 0 1.816-1.813Zm0 0"/><path style="fill:none;stroke-width:.79701;stroke-linecap:butt;stroke-linejoin:miter;stroke:#000;stroke-opacity:1;stroke-miterlimit:10" d="m.151-1.809 1.086.379.664.922.055 1.125-.535.972-.934.575-1.086.062-.98-.43-.7-.8-.3-1.004.113-1.031.484-.903.766-.664.937-.36L.714-3l.941.27.812.534.622.73.394.868.152.926-.078.93-.297.874-.48.774-.633.648-.746.493-.82.335-.864.165-.87.007-.848-.148-.805-.285-.742-.41-.664-.516-.574-.602-.477-.675-.375-.727-.273-.766-.172-.785-.07-.797.019-.793.113-.78.192-.755.27-.726.339-.692.402-.648.457-.606.508-.554.55-.508.587-.457.621-.406.64-.352.665-.3.68-.255.695-.203.699-.152.703-.11.707-.062.703-.023.703.02.696.058.687.093.68.133.668.164.656.196.645.222.632.254.618.278.601.3.59.328.57.344.559.367.543.387.527.402.512.422.496.434.48.45.47.464.448.473.438.488.422.496.41.508.394.515.383.524.371.535.356.54.347.55.333.55.324.563.308.567.301.574.29.578.277.582.27.586.26.594.25.593.243.602.234.605.227.61.215.61.21.616.204.618.195.62.188.626.183.629.176.632.168.633.164.637.156.64.153.645.148.645.14.652.137.652.133.653.13.66.12.66.121.664.114.668.218 1.344.102.675.101.684.098.68.094.687.09.692.086.691.086.695.082.704.078.703.148 1.414.074.715.067.718.133 1.446.062.73.063.734.054.735.059.742.055.746.054.75.051.754.05.758.048.762.047.765.046.77.043.777.043.781.04.782.042.789.036.797.039.796.035.805.035.809.035.812.035.817.032.824.03.828.032.832.027.84.032.844.027.847.027.856.024.859.027.867.024.871.023.875.023.883.024.887.023.894.02.899.023.902.04 1.828.019.922.015.93.02.933.016.942.02.945.015.953.015.961.016.965.016.969.015.98.016.985.012.988.015 1 .012 1.004.012 1.008.015 1.02.012 1.023.012 1.027.011 1.039.012 1.043.012 1.05.008 1.06.011 1.062.012 1.07.008 1.082.012 1.082.007 1.094.008 1.102" transform="matrix(1 0 0 -1 57.263 127.527)"/><use xlink:href="#j" x="88.916" y="30.447" style="fill:#000;fill-opacity:1"/><use xlink:href="#a" x="93.482" y="38.517" style="fill:#000;fill-opacity:1"/><use xlink:href="#b" x="99.176" y="38.517" style="fill:#000;fill-opacity:1"/><use xlink:href="#c" x="103.05" y="38.517" style="fill:#000;fill-opacity:1"/><use xlink:href="#d" x="106.648" y="38.517" style="fill:#000;fill-opacity:1"/><use xlink:href="#k" x="110.522" y="38.517" style="fill:#000;fill-opacity:1"/><use xlink:href="#e" x="114.943" y="38.517" style="fill:#000;fill-opacity:1"/><use xlink:href="#b" x="120.192" y="38.517" style="fill:#000;fill-opacity:1"/><use xlink:href="#c" x="124.066" y="38.517" style="fill:#000;fill-opacity:1"/><use xlink:href="#d" x="127.664" y="38.517" style="fill:#000;fill-opacity:1"/><use xlink:href="#l" x="131.538" y="30.447" style="fill:#000;fill-opacity:1"/><use xlink:href="#m" x="138.872" y="38.517" style="fill:#000;fill-opacity:1"/><use xlink:href="#b" x="149.381" y="38.517" style="fill:#000;fill-opacity:1"/><use xlink:href="#c" x="153.262" y="38.517" style="fill:#000;fill-opacity:1"/><g style="fill:#000;fill-opacity:1"><use xlink:href="#n" x="158.52" y="38.517"/><use xlink:href="#o" x="162.449" y="38.517"/><use xlink:href="#p" x="165.217" y="38.517"/></g><use xlink:href="#q" x="173.608" y="34.594" style="fill:#000;fill-opacity:1"/><path style="fill:none;stroke-width:.398;stroke-linecap:butt;stroke-linejoin:miter;stroke:#000;stroke-opacity:1;stroke-miterlimit:10" d="M.001-.001h3.97" transform="matrix(1 0 0 -1 173.608 36.026)"/><use xlink:href="#r" x="174.089" y="41.952" style="fill:#000;fill-opacity:1"/><use xlink:href="#k" x="178.775" y="38.517" style="fill:#000;fill-opacity:1"/><use xlink:href="#c" x="183.196" y="38.517" style="fill:#000;fill-opacity:1"/><g style="fill:#000;fill-opacity:1"><use xlink:href="#s" x="188.461" y="38.517"/><use xlink:href="#t" x="192.888" y="38.517"/><use xlink:href="#n" x="197.87" y="38.517"/></g><use xlink:href="#q" x="204.655" y="34.594" style="fill:#000;fill-opacity:1"/><path style="fill:none;stroke-width:.398;stroke-linecap:butt;stroke-linejoin:miter;stroke:#000;stroke-opacity:1;stroke-miterlimit:10" d="M.001-.001H3.97" transform="matrix(1 0 0 -1 204.655 36.026)"/><use xlink:href="#r" x="205.136" y="41.952" style="fill:#000;fill-opacity:1"/><use xlink:href="#d" x="209.822" y="38.517" style="fill:#000;fill-opacity:1"/><path style="stroke:none;fill-rule:nonzero;fill:red;fill-opacity:1" d="M77.3 127.527a1.99 1.99 0 0 0-1.991-1.992 1.99 1.99 0 0 0-1.993 1.992 1.99 1.99 0 0 0 1.993 1.993 1.99 1.99 0 0 0 1.992-1.993Zm0 0"/><path style="stroke:none;fill-rule:nonzero;fill:#fff;fill-opacity:1" d="M75.508 150.203h31.101v-18.492H75.508Zm0 0"/><use xlink:href="#b" x="78.829" y="143.448" style="fill:red;fill-opacity:1"/><use xlink:href="#u" x="84.368" y="139.526" style="fill:red;fill-opacity:1"/><path style="fill:none;stroke-width:.398;stroke-linecap:butt;stroke-linejoin:miter;stroke:red;stroke-opacity:1;stroke-miterlimit:10" d="M0 .001h4.91" transform="matrix(1 0 0 -1 83.899 140.958)"/><use xlink:href="#v" x="83.899" y="146.884" style="fill:red;fill-opacity:1"/><use xlink:href="#k" x="90.003" y="143.448" style="fill:red;fill-opacity:1"/><g style="fill:red;fill-opacity:1"><use xlink:href="#w" x="94.431" y="143.448"/><use xlink:href="#d" x="99.412" y="143.448"/></g></svg>