<svg xmlns="http://www.w3.org/2000/svg" xmlns:xlink="http://www.w3.org/1999/xlink" width="65.884" height="29.715" viewBox="0 0 49.413 22.286" version="1.2"><defs><symbol overflow="visible" id="b"><path style="stroke:none" d="M5.719-2.031c0-1.094-.797-1.906-1.719-2.094l-1.438-.313c-.406-.093-.953-.421-.953-1.03 0-.438.282-1.048 1.266-1.048.797 0 1.813.329 2.047 1.688.031.25.031.266.234.266.25 0 .25-.047.25-.282v-1.828c0-.187 0-.281-.187-.281-.078 0-.078.016-.188.11l-.453.437C4-6.86 3.344-6.953 2.875-6.953c-1.516 0-2.234.969-2.234 2.016 0 .64.328 1.093.53 1.312.5.5.829.563 1.923.797.875.203 1.047.219 1.265.437.141.141.391.407.391.86 0 .484-.25 1.172-1.297 1.172-.75 0-2.265-.204-2.344-1.688-.015-.172-.015-.219-.234-.219-.234 0-.234.047-.234.282v1.812C.64.016.64.11.812.11.906.11.922.094 1 .016l.469-.454C2.125.047 3.047.11 3.453.11 5.11.11 5.72-1.016 5.72-2.03Zm0 0"/></symbol><symbol overflow="visible" id="c"><path style="stroke:none" d="m7.547-4.328-.203-2.406H.625L.422-4.328H.89c.093-1.125.187-1.938 1.625-1.938h.765v5.797H1.75V0c.547-.031 1.656-.031 2.234-.031.594 0 1.704 0 2.235.031v-.469H4.687v-5.797h.766c1.422 0 1.531.797 1.625 1.938Zm0 0"/></symbol><symbol overflow="visible" id="d"><path style="stroke:none" d="M7.969-3.375c0-2.156-1.453-3.578-3.657-3.578-2.28 0-3.671 1.484-3.671 3.578C.64-1.312 2.03.109 4.297.109c2.297 0 3.672-1.437 3.672-3.484Zm-1.532-.156c0 .703-.03 1.594-.453 2.281a1.97 1.97 0 0 1-1.687.938 1.938 1.938 0 0 1-1.719-1.032c-.328-.625-.422-1.328-.422-2.187 0-.64.031-1.485.469-2.156a2.01 2.01 0 0 1 1.672-.86c.64 0 1.328.281 1.719.938.39.64.421 1.406.421 2.078Zm0 0"/></symbol><symbol overflow="visible" id="e"><path style="stroke:none" d="M7.188-4.89c0-1.094-.985-1.954-2.641-1.954H.39v.469h1.078v5.906H.39V0C.766-.031 1.75-.031 2.17-.031c.438 0 1.407 0 1.782.031v-.469H2.875v-2.547h1.766c1.39 0 2.546-.718 2.546-1.875Zm-1.532 0c0 .702 0 1.468-1.5 1.468H2.828v-2.953h1.344c1.484 0 1.484.766 1.484 1.484Zm0 0"/></symbol><symbol overflow="visible" id="f"><path style="stroke:none" d="M2.531-6.313c0-.39-.36-.718-.781-.718-.438 0-.797.328-.797.718 0 .047 0 .079.031.172L1.5-2.516c.031.25.031.266.25.266.188 0 .219-.016.25-.219l.516-3.719ZM2.516-.78a.78.78 0 0 0-.766-.781.784.784 0 0 0-.781.78.774.774 0 1 0 1.547 0Zm0 0"/></symbol><clipPath id="a"><path d="M0 0h49.121v21.93H0Zm0 0"/></clipPath></defs><path style="stroke:none;fill-rule:nonzero;fill:red;fill-opacity:1" d="m47.809 6.844-2.946-2.95L41.918.95H6.906L3.961 3.895 1.016 6.844v7.879l2.945 2.949 2.945 2.945h35.012l2.945-2.945 2.946-2.95Zm0 0"/><g clip-path="url(#a)"><path style="fill:none;stroke-width:2.98883;stroke-linecap:butt;stroke-linejoin:miter;stroke:#fff;stroke-opacity:1;stroke-miterlimit:10" d="m23.397 3.94-2.945 2.948-2.946 2.946h-35.011l-2.946-2.946-2.945-2.949V-3.94l2.945-2.949 2.946-2.945h35.011l2.946 2.945 2.945 2.95Zm0 0" transform="matrix(1 0 0 -1 24.412 10.783)"/><path style="fill:none;stroke-width:.59776;stroke-linecap:butt;stroke-linejoin:miter;stroke:red;stroke-opacity:1;stroke-miterlimit:10" d="m23.397 3.94-2.945 2.948-2.946 2.946h-35.011l-2.946-2.946-2.945-2.949V-3.94l2.945-2.949 2.946-2.945h35.011l2.946 2.945 2.945 2.95Zm0 0" transform="matrix(1 0 0 -1 24.412 10.783)"/></g><g style="fill:#fff;fill-opacity:1"><use xlink:href="#b" x="7.28" y="14.24"/><use xlink:href="#c" x="13.647" y="14.24"/><use xlink:href="#d" x="21.617" y="14.24"/><use xlink:href="#e" x="30.224" y="14.24"/><use xlink:href="#f" x="38.055" y="14.24"/></g></svg>