<svg xmlns="http://www.w3.org/2000/svg" xmlns:xlink="http://www.w3.org/1999/xlink" width="71.273" height="40.419" viewBox="0 0 53.455 30.314" version="1.2"><defs><clipPath id="a"><path d="M11 0h33v29.973H11Zm0 0"/></clipPath><symbol overflow="visible" id="b"><path style="stroke:none" d="M5.375-.844c-.016.516-.484.735-.828.735-.438 0-.828-.36-1.031-.563.437-.437.859-1.062 1.171-1.531.172-.25.36-.547.985-.547V-3A9.664 9.664 0 0 1 5-2.969c-.313 0-.86-.031-.875-.031v.25c.25 0 .422.11.422.266 0 .062-.031.125-.031.125-.016.03-.344.515-.579.828-.296.422-.5.593-.578.687-.062-.062-.921-1-1.25-1.797.563-.578.97-.984.97-1.421 0-.36-.188-.907-.704-.907-.5 0-1.078.39-1.078 1.14 0 .61.203 1.157.297 1.392l-.75.703c-.25.234-.469.437-.469.828 0 .625.64 1.047 1.406 1.047.703 0 1.203-.375 1.375-.516.406.313.86.516 1.375.516.563 0 1.078-.391 1.078-.985Zm-3.344-2A3.46 3.46 0 0 1 1.812-4c0-.5.282-.781.563-.781.375 0 .469.515.469.718 0 .344-.328.735-.813 1.22Zm-.344.594c.422.906 1.157 1.61 1.297 1.734-.343.235-.734.407-1.156.407-.562 0-.812-.563-.812-1 0-.516.187-.704.671-1.141Zm0 0"/></symbol></defs><g clip-path="url(#a)"><path style="fill:none;stroke-width:.3985;stroke-linecap:butt;stroke-linejoin:miter;stroke:#000;stroke-opacity:1;stroke-miterlimit:10" d="M-8.716-13.948H8.717v27.895H-8.716Zm-.2 23.38c0 .964-.78 1.742-1.746 1.742a1.741 1.741 0 1 1 0-3.485c.965 0 1.746.781 1.746 1.742Zm0-9.43a1.745 1.745 0 1 1-3.489-.005 1.745 1.745 0 0 1 3.49.005Zm0-9.434c0 .965-.78 1.742-1.746 1.742a1.741 1.741 0 1 1 0-3.484c.965 0 1.746.781 1.746 1.742Zm0 0" transform="matrix(1 0 0 -1 29.084 14.822)"/></g><use xlink:href="#b" x="26.026" y="7.929" style="fill:#000;fill-opacity:1"/><path style="fill:none;stroke-width:.3985;stroke-linecap:butt;stroke-linejoin:miter;stroke:#000;stroke-opacity:1;stroke-miterlimit:10" d="M-28.345 9.431h15.742M-28.345 4.717h19.43M-28.345.002h15.742M-28.345-4.717h19.43M-28.345-9.432h15.742M8.916.002h14.172" transform="matrix(1 0 0 -1 29.084 14.822)"/></svg>