<svg xmlns="http://www.w3.org/2000/svg" xmlns:xlink="http://www.w3.org/1999/xlink" width="102.903" height="84.53pt" viewBox="0 0 77.177 84.53" version="1.2"><defs><symbol overflow="visible" id="a"><path style="stroke:none" d="M.453 1.219c-.078.343-.11.406-.547.406-.11 0-.218 0-.218.188 0 .078.046.125.124.125.266 0 .563-.032.829-.032.343 0 .671.032 1 .032.046 0 .171 0 .171-.204 0-.109-.093-.109-.234-.109-.5 0-.5-.063-.5-.156 0-.125.422-1.75.484-2 .125.297.407.64.922.64 1.157 0 2.407-1.453 2.407-2.921 0-.938-.579-1.594-1.329-1.594-.5 0-.984.36-1.312.75-.094-.547-.531-.75-.89-.75-.47 0-.657.39-.735.562-.188.344-.313.938-.313.969 0 .11.094.11.11.11.11 0 .11-.016.172-.235.172-.703.375-1.188.734-1.188.172 0 .313.079.313.454 0 .234-.032.343-.079.515Zm1.75-4.328c.063-.266.344-.547.516-.704.36-.296.64-.374.812-.374.39 0 .64.343.64.937 0 .594-.327 1.734-.515 2.11-.344.702-.812 1.03-1.187 1.03-.656 0-.781-.828-.781-.89 0-.016 0-.031.03-.156Zm0 0"/></symbol><symbol overflow="visible" id="g"><path style="stroke:none" d="M2.047-3.984h.937c.204 0 .313 0 .313-.204 0-.109-.11-.109-.281-.109H2.14c.359-1.422.406-1.61.406-1.672 0-.172-.125-.265-.297-.265-.031 0-.313 0-.39.359l-.391 1.578H.53c-.203 0-.297 0-.297.188 0 .125.078.125.282.125h.875C.67-1.156.625-.984.625-.813c0 .547.375.922.922.922 1.016 0 1.578-1.453 1.578-1.53 0-.11-.078-.11-.11-.11-.093 0-.109.031-.156.14C2.438-.344 1.906-.109 1.563-.109c-.204 0-.313-.125-.313-.454 0-.25.031-.312.063-.484Zm0 0"/></symbol><symbol overflow="visible" id="b"><path style="stroke:none" d="M2.328-4.438c0-.187 0-.187-.203-.187-.453.438-1.078.438-1.36.438v.25c.157 0 .626 0 1-.188v3.547c0 .234 0 .328-.687.328H.812V0c.125 0 .985-.031 1.235-.031.219 0 1.094.031 1.25.031v-.25H3.03c-.703 0-.703-.094-.703-.328Zm0 0"/></symbol><symbol overflow="visible" id="d"><path style="stroke:none" d="M3.516-1.266H3.28c-.015.157-.094.563-.187.625-.047.047-.578.047-.688.047H1.125c.734-.64.984-.844 1.39-1.172.516-.406 1-.843 1-1.5 0-.843-.734-1.359-1.624-1.359-.86 0-1.454.61-1.454 1.25 0 .344.297.39.376.39.156 0 .359-.124.359-.374 0-.125-.047-.375-.406-.375.218-.485.687-.641 1.015-.641.703 0 1.063.547 1.063 1.11 0 .609-.438 1.078-.656 1.328L.516-.266C.437-.203.437-.187.437 0h2.876Zm0 0"/></symbol><symbol overflow="visible" id="e"><path style="stroke:none" d="M6.719-3.234c.14-.063.203-.125.203-.22 0-.093-.047-.155-.203-.218l-5.5-2.594c-.125-.078-.172-.078-.188-.078a.197.197 0 0 0-.203.203c0 .125.078.172.188.22L6.25-3.454 1.031-1c-.187.094-.203.172-.203.234 0 .11.094.204.203.204.032 0 .047 0 .172-.079Zm-.157 4.593c.172 0 .36 0 .36-.187 0-.203-.219-.203-.36-.203H1.188c-.156 0-.359 0-.359.203 0 .187.172.187.344.187Zm0 0"/></symbol><symbol overflow="visible" id="f"><path style="stroke:none" d="M2.938-6.375c0-.25 0-.266-.235-.266C2.078-6 1.203-6 .891-6v.313c.203 0 .78 0 1.296-.266v5.172c0 .36-.03.469-.921.469H.953V0c.344-.031 1.203-.031 1.61-.031.39 0 1.265 0 1.609.031v-.313h-.313c-.906 0-.921-.109-.921-.468Zm0 0"/></symbol><symbol overflow="visible" id="h"><path style="stroke:none" d="M5.156-2.219h-.468c-.032.203-.125.844-.266.906-.11.063-.86.063-1.016.063H1.937c.47-.39 1-.813 1.438-1.14 1.14-.844 1.781-1.313 1.781-2.25 0-1.157-1.047-1.891-2.437-1.891-1.219 0-2.156.625-2.156 1.515 0 .594.484.735.718.735C1.61-4.281 2-4.5 2-5c0-.516-.422-.672-.563-.719.282-.234.672-.343 1.032-.343.844 0 1.312.671 1.312 1.421 0 .688-.375 1.375-1.078 2.079l-2 2.046c-.14.11-.14.141-.14.344V0h4.28Zm0 0"/></symbol><clipPath id="c"><path d="M46 7h30.766v34H46Zm0 0"/></clipPath></defs><path style="fill:none;stroke-width:.3985;stroke-linecap:butt;stroke-linejoin:miter;stroke:#000;stroke-opacity:1;stroke-miterlimit:10" d="M11.059.002C11.059 6.107 6.109 11.06 0 11.06c-6.11 0-11.059-4.953-11.059-11.058 0-6.11 4.95-11.06 11.059-11.06 6.11 0 11.059 4.95 11.059 11.06Zm0 0" transform="matrix(1 0 0 -1 11.855 24.107)"/><path style="stroke:none;fill-rule:nonzero;fill:#000;fill-opacity:1" d="M10.75 24.105a2.214 2.214 0 0 0-4.426 0c0 1.223.992 2.215 2.215 2.215 1.219 0 2.211-.992 2.211-2.215ZM17.387 24.105a2.214 2.214 0 1 0-2.215 2.215 2.216 2.216 0 0 0 2.215-2.215Zm0 0"/><use xlink:href="#a" x="7.114" y="7.392" style="fill:#000;fill-opacity:1"/><use xlink:href="#b" x="12.127" y="8.886" style="fill:#000;fill-opacity:1"/><g clip-path="url(#c)"><path style="fill:none;stroke-width:.3985;stroke-linecap:butt;stroke-linejoin:miter;stroke:#000;stroke-opacity:1;stroke-miterlimit:10" d="M61.922.002c0 6.105-4.953 11.058-11.059 11.058-6.11 0-11.058-4.953-11.058-11.058 0-6.11 4.949-11.06 11.058-11.06 6.106 0 11.059 4.95 11.059 11.06Zm0 0" transform="matrix(1 0 0 -1 11.855 24.107)"/></g><use xlink:href="#a" x="48.844" y="7.392" style="fill:#000;fill-opacity:1"/><use xlink:href="#d" x="53.856" y="8.886" style="fill:#000;fill-opacity:1"/><use xlink:href="#e" x="61.093" y="7.392" style="fill:#000;fill-opacity:1"/><use xlink:href="#f" x="71.609" y="7.392" style="fill:#000;fill-opacity:1"/><path style="fill:none;stroke-width:.3985;stroke-linecap:butt;stroke-linejoin:miter;stroke:#000;stroke-opacity:1;stroke-miterlimit:10" d="M36.508-47.846h11.336v11.34H36.508Zm0 0" transform="matrix(1 0 0 -1 11.855 24.107)"/><use xlink:href="#g" x="49.998" y="81.798" style="fill:#000;fill-opacity:1"/><use xlink:href="#b" x="53.594" y="83.293" style="fill:#000;fill-opacity:1"/><path style="fill:none;stroke-width:.3985;stroke-linecap:butt;stroke-linejoin:miter;stroke:#000;stroke-opacity:1;stroke-miterlimit:10" d="M35.32-35.323 7.96-7.959" transform="matrix(1 0 0 -1 11.855 24.107)"/><path style="fill:none;stroke-width:.3985;stroke-linecap:round;stroke-linejoin:round;stroke:#000;stroke-opacity:1;stroke-miterlimit:10" d="M-2.072 2.39C-1.694.956-.852.28.002 0-.85-.279-1.694-.955-2.072-2.389" transform="matrix(.7071 .70708 .70708 -.7071 47.318 59.569)"/><path style="fill:none;stroke-width:.3985;stroke-linecap:butt;stroke-linejoin:miter;stroke:#000;stroke-opacity:1;stroke-miterlimit:10" d="m43.383-36.307 4.93 23.914" transform="matrix(1 0 0 -1 11.855 24.107)"/><path style="fill:none;stroke-width:.3985;stroke-linecap:round;stroke-linejoin:round;stroke:#000;stroke-opacity:1;stroke-miterlimit:10" d="M-2.073 2.392C-1.693.955-.852.278 0 0-.849-.279-1.694-.956-2.073-2.39" transform="scale(1 -1) rotate(78.363 52.377 18.783)"/><use xlink:href="#h" x="48.594" y="44.253" style="fill:#000;fill-opacity:1"/></svg>