<svg xmlns="http://www.w3.org/2000/svg" width="134.976" height="77.51pt" viewBox="0 0 101.232 77.51" version="1.2"><defs><clipPath id="a"><path d="M71 14h29v30H71Zm0 0"/></clipPath><clipPath id="b"><path d="M99.84 29.102c0-7.829-6.348-14.172-14.176-14.172s-14.172 6.343-14.172 14.172c0 7.828 6.344 14.171 14.172 14.171S99.84 36.93 99.84 29.102Zm0 0"/></clipPath><clipPath id="c"><path d="M14 0h30v30H14Zm0 0"/></clipPath><clipPath id="d"><path d="M43.145 14.93C43.145 7.102 36.8.754 28.973.754S14.797 7.102 14.797 14.93c0 7.824 6.348 14.172 14.176 14.172s14.172-6.348 14.172-14.172Zm0 0"/></clipPath></defs><path style="fill:none;stroke-width:.3985;stroke-linecap:butt;stroke-linejoin:miter;stroke:#000;stroke-opacity:1;stroke-miterlimit:10" d="M0-.001h.887v.886h.886V-.883h.883v.883h.887v.886h-.887v.887H4.43v.887h-.887v.883h.887v.886h.886v-1.77H6.2v.884h.887v-.883h.887v-.887H6.199V.885h.887V-.883h.887v-.887H6.199v-.886h.887v-.887h.887v.887h.886v-1.774h.887v.887h.883v.887h-.883v.886h1.77v.887h-.887v.883h.887v.886h.886V-.883h.887v.883h.883v.886h-.883v.887h1.77v.887h-.887v.883h-.883v-.883h-.887v1.77h-.886v-.887h-.887v.886h-.883v.887h1.77v.887h-.887v.887h.887v.882h.886v-1.77h.887v.888h1.77v.882h.886v-1.77h.887v.888h.883v.882h-.883v.887h1.77v.887h-.887v.887h-.883v-.887h-.887v1.77h-.886v-.883h-.887v.882h-.883v.887h1.77v.887h-.887v.887h.887v.882h.886v-1.77h.887v.888h.883v.882h-.883v.887h1.77v.887h-.887v.887h.887v.886h.886v-1.773h.887v.887h.887v-.887h.883v-.887h-1.77v-.887h.887v-1.77h.883v-.886h-1.77v-.887h.887v-.882h.883v.882h.886v-1.77h.887v.888h.887v.882h-.887v.887h1.77v.887h-.883v.887h.883v.882h.886v-1.77h.887v.888h.887v-.887h.886V12.4h-1.773v-.887h.887v-.882h.886v.882h.883v-1.77h.887v.888h.887v-.887h.886v-.887h-1.773v-.887h.887V7.09h-.887v-.887h-.887v1.77h-.883v-.883h-1.773v-.887h-.887v1.77h-.887v-.883h-.882v-.887h.883v-.887h-1.77v-.887h.887v-.886h.883v.886h.886v-1.77h.887v.884h.887v-.883h.886v-.887h-1.773V.885h.887V-.883h.886v-.887h-1.773v-.886h.887v-.887h.886v.887h.883v-1.774h.887v.887h.887v-.887h.886v-.883h-1.773V-6.2h.887v-.887h-.887v-.887h-.887V-6.2h-.883v-.887h-1.773v-.887h-.887V-6.2h-.887v-.887h-.882v-.887h.883v-.883h-1.77v-.886h.887v-.887h.883v.887h.886v-1.774h.887v.887h.887v-.887h.886v-.887h-1.773v-.882h.887v-.887h.886v.887h.883v-1.774h.887v.887h.887v.887h-.887v.882h1.773v.887h-.886v.887h.886v.887h.883v-1.774h.887v.887h.887v-.887h.886v-.887h-1.773v-.882h.887v-1.774h.886v-.887h-1.773v-.882h.887v-.887h.886v.887h.887v-1.774h.883v.887h.887v.887h-.887v.882h1.773v.887h-.886v.887h.886v.887h.887v-1.774h.883v.887h.887v.887h-.887v.882h1.773v.887h-.886v.887h-.887v-.887h-.883v1.774h-.887v-.887h-.886v.887h-.887v.886h1.773v.883h-.886v.887h.886v.887h.887v-1.774h.883v.887h1.773v.887h.887v-1.774h.883v.887h.886v.887h-.886v.886h1.773v.883h-.886v.887h-.887v-.887h-.883v1.774h-.887v-.887h-.886v.887h-.887v.886h1.773v.887h-.886v.883h.886v.886h.887V-.883h.883v.883h.886v.886h-.886v.887h1.773v.887h-.886v.883h.886v.886h.887v-1.77h.887v.884h.882v-.883h.887v-.887h-1.77V.885h.883V-.883h.887v-.887h-1.77v-.886h.883v-.887h.887v.887h.887v-1.774h.887v.887h.882v.887h-.882v.886h1.77v.887h-.888v.883h.887v.886h.887V-.883h.887v.883h.886" transform="matrix(1 0 0 -1 .625 57.448)"/><path style="stroke:none;fill-rule:nonzero;fill:#0f0;fill-opacity:.2" d="M50.703 54.613a4.725 4.725 0 0 0-9.45 0 4.725 4.725 0 0 0 9.45 0ZM99.84 29.102c0-7.829-6.348-14.172-14.176-14.172s-14.172 6.343-14.172 14.172c0 7.828 6.344 14.171 14.172 14.171S99.84 36.93 99.84 29.102Zm0 0"/><g clip-path="url(#a)"><g clip-path="url(#b)"><path style="fill:none;stroke-width:.3985;stroke-linecap:butt;stroke-linejoin:miter;stroke:#000;stroke-opacity:1;stroke-miterlimit:10" d="M0 0h.886v.885h.885v-1.77h.887V0h.886v.885h-.886v.887H4.43v.886h-.885v.885h.885v.887h.885V2.658h.887v.885h.886v-.885h.885v-.886h-1.77V.885h.885v-1.77h.885v-.887h-1.77v-.886h.885v-.885h.885v.885h.887V-4.43h.885v.887h.885v.885h-.885v.886h1.772v.887h-.887V0h.887v.885h.886v-1.77h.885V0h.887v.885h-.887v.887h1.772v.886h-.885v.885h-.887v-.885h-.885V4.43h-.886v-.887h-.887v.887h-.885v.885h1.772v.886h-.887v.886h.887v.886h.886V6.2h.885v.886h1.772v.886h.886V6.2h.886v.886h.886v.886h-.886v.885h1.771v.887h-.885v.885h-.886v-.885h-.886v1.77h-.886v-.885h-.885v.886h-.887v.885h1.772v.887h-.885v.885h.885v.886h.886v-1.771h.886v.885h.886v.886h-.886v.886h1.771v.886h-.885v.885h.885v.887h.887V16.83h.885v.885h.886v-.885h.886v-.886h-1.772v-.886h.886v-1.771h.886v-.886h-1.772v-.886h.886v-.886h.886v.886h.886V9.745h.885v.885h.887v.886h-.887v.885h1.772v.887h-.885v.885h.885v.886h.886v-1.771h.887v.885h.885v-.885h.885v-.886h-1.77v-.886h.885v-.886h.885v.886h.887V9.745h.885v.885h.886v-.885h.885v-.887h-1.77v-.885h.885v-.886h-.886v-.886h-.885v1.772h-.887v-.886h-1.77v-.886h-.887v1.772h-.886v-.886h-.885v-.886h.885v-.886h-1.772V4.43h.887v-.887h.885v.887h.886V2.658h.887v.885h.885v-.885h.885v-.886h-1.77V.885h.885v-1.77h.885v-.887h-1.77v-.886h.885v-.885h.885v.885h.887V-4.43h.885v.887h.886v-.887h.885v-.885h-1.77v-.886h.885v-.886h-.886v-.886h-.885V-6.2h-.887v-.886h-1.77v-.886h-.887V-6.2h-.886v-.886h-.885v-.886h.885v-.885h-1.772v-.887h.887v-.885h.885v.885h.886v-1.77h.887v.885h.885v-.886h.885v-.886h-1.77v-.886h.885v-.885h.885v.885h.887v-1.77h.885v.885h.886v.885h-.886v.886h1.771v.886h-.885v.886h.885v.885h.887v-1.77h.885v.885h.886v-.886h.887v-.886h-1.773v-.886h.886v-1.77h.887v-.887h-1.773v-.886h.886v-.885h.887v.885h.885v-1.772h.885v.887h.887v.885h-.887v.886h1.773v.886h-.886v.886h.886v.885h.885v-1.77h.887v.885h.885v.885h-.885v.886h1.77v.886h-.885v.886h-.885v-.886h-.887v1.771h-.885v-.885h-.886v.885h-.887v.887h1.773v.885h-.886v.886h.886v.886h.885v-1.772h.887v.886h1.77v.886h.887v-1.772h.886v.886h.885v.886h-.885v.886h1.772v.885h-.887v.887h-.885v-.887h-.886v1.772h-.886v-.885h-.886v.885h-.885v.886h1.77v.887h-.885V0h.886v.885h.886v-1.77h.886V0h.885v.885h-.885v.887h1.772v.886h-.887v.885h.887v.887h.885V2.658h.886v.885h.886v-.885h.886v-.886H48.72V.885h.886v-1.77h.886v-.887H48.72v-.886h.886v-.885h.886v.885h.885V-4.43h.887v.887h.885v.885h-.885v.886h1.77v.887h-.885V0h.886v.885h.886v-1.77h.886V0h.885" transform="matrix(3 0 0 -3 -50.4 37.606)"/></g></g><path style="stroke:none;fill-rule:nonzero;fill:red;fill-opacity:.2" d="M19.523 46.11a4.725 4.725 0 0 0-9.449 0 4.725 4.725 0 0 0 9.45 0ZM43.145 14.93C43.145 7.102 36.8.754 28.973.754S14.797 7.102 14.797 14.93c0 7.824 6.348 14.172 14.176 14.172s14.172-6.348 14.172-14.172Zm0 0"/><g clip-path="url(#c)"><g clip-path="url(#d)"><path style="fill:none;stroke-width:.3985;stroke-linecap:butt;stroke-linejoin:miter;stroke:#000;stroke-opacity:1;stroke-miterlimit:10" d="M0 0h.886v.886h.885V-.886h.887v.885h.885v.887h-.885v.886h1.77v.885h-.885v.887h.886v.885h.887V2.657H6.2v.887h.885v-.887h.887v-.885H6.201V.886h.885V-.886h.887v-.885H6.201v-.887h.885v-.886h.887v.886h.886v-1.77h.885v.884h.887v.886h-.887v.887h1.772v.885h-.885v.885h.885v.887h.885V-.886h.886v.885h.887v.887h-.886v.886h1.771v.885h-.885v.887h-.886v-.887h-.887v1.772h-.885v-.885h-.885v.885h-.887v.886h1.772V6.2h-.885v.886h.885v.885h.885v-1.77h.887v.885h1.771v.885h.885v-1.77h.887v.885h.886v.885h-.886v.887h1.771v.885h-.885v.886h-.886v-.886h-.887v1.772h-.885v-.886h-.885v.886h-.886v.886h1.771v.885h-.885v.887h.885v.885h.885v-1.772h.887v.887h.886v.885h-.886v.886h1.771v.886h-.885v.886h.885v.885h.887v-1.77h.885v.885h.886v-.886h.886v-.886h-1.772v-.886h.886v-1.772h.886v-.885h-1.772v-.886h.886v-.886h.886v.886h.886V9.744h.885v.886h.887v.886h-.887v.886h1.772v.885h-.885v.887h.885v.885h.886v-1.772h.886v.887h.886v-.887h.885v-.885h-1.77v-.886h.885v-.886h.885v.886h.887V9.744h.885v.886h.886v-.886h.886V8.86h-1.772v-.887h.886v-.885h-.886V6.2h-.885v1.771h-.887v-.885h-1.77V6.2h-.887v1.771h-.886v-.885h-.885V6.2h.885v-.886h-1.772v-.886h.887v-.885h.885v.885h.886V2.657h.886v.887h.886v-.887h.885v-.885h-1.77V.886h.885V-.886h.885v-.885h-1.77v-.887h.885v-.886h.885v.886h.887v-1.77h.885v.884h.886v-.885h.886v-.885h-1.772v-.887h.886v-.885h-.886v-.886h-.885v1.77h-.887v-.884h-1.77v-.886h-.887v1.77h-.886v-.884h-.885v-.886h.885v-.887h-1.772v-.885h.887v-.885h.885v.885h.886v-1.772h.886v.887h.886v-.887h.885v-.886h-1.77v-.885h.885v-.887h.885v.887h.887v-1.772h.885v.885h.886v.887h-.886v.885h1.772v.886h-.886v.887h.886v.885h.886v-1.772h.885v.887h.887v-.887h.885v-.886h-1.772v-.885h.887v-1.772h.885v-.886h-1.772v-.886h.887v-.886h.885v.886h.886v-1.771h.887v.885h.885v.886h-.885v.886h1.77v.886h-.885v.885h.885v.887h.887v-1.772h.886v.885h.885v.887h-.885v.885h1.772v.886h-.887v.887h-.885v-.887h-.886v1.772h-.887v-.885h-.885v.885h-.885v.885h1.77v.887h-.885v.886h.885v.885h.887v-1.77h.886v.885h1.772v.885h.885v-1.77h.886v.885h.885v.885h-.885v.885h1.772v.887h-.887v.885h-.885v-.885h-.886v1.77h-.885v-.885h-.887v.886h-.885v.887h1.772v.885h-.887v.885h.887v.887h.885V-.886h.886v.885h.885v.887h-.885v.886h1.772v.885h-.887v.887h.887v.885h.885V2.657h.885v.887h.887v-.887h.886v-.885H48.72V.886h.887V-.886h.886v-.885H48.72v-.887h.887v-.886h.886v.886h.885v-1.77h.887v.884h.885v.886h-.885v.887h1.77v.885h-.885v.885h.886v.887h.886V-.886h.886v.885h.885" transform="matrix(3 0 0 -3 -13.548 48.944)"/></g></g><path style="fill:none;stroke-width:.3985;stroke-linecap:butt;stroke-linejoin:miter;stroke:red;stroke-opacity:1;stroke-miterlimit:10" d="m16.129 15.64 6.351 13.98" transform="matrix(1 0 0 -1 .625 57.448)"/></svg>