<svg xmlns="http://www.w3.org/2000/svg" width="154.179" height="87.68pt" viewBox="0 0 115.634 87.68" version="1.2"><defs><clipPath id="a"><path d="M0 24h64v63.52H0Zm0 0"/></clipPath></defs><path style="fill:none;stroke-width:.19925;stroke-linecap:butt;stroke-linejoin:miter;stroke:gray;stroke-opacity:1;stroke-miterlimit:10" d="M0 0h85.039M-.001 28.348h85.04M-.001 56.684h85.04M-.001 0v56.692M28.348 0v56.692M56.695 0v56.692M85.03 0v56.692" transform="matrix(1 0 0 -1 29.309 58.02)"/><path style="fill:none;stroke-width:.3985;stroke-linecap:butt;stroke-linejoin:miter;stroke:#000;stroke-opacity:1;stroke-miterlimit:10" d="m0 0 28.347 28.348V0" transform="matrix(1 0 0 -1 29.309 58.02)"/><path style="fill:none;stroke-width:.3985;stroke-linecap:butt;stroke-linejoin:miter;stroke:#00f;stroke-opacity:1;stroke-miterlimit:10" d="m0 0 56.695 56.692V0" transform="matrix(1 0 0 -1 29.309 58.02)"/><g clip-path="url(#a)"><path style="fill:none;stroke-width:.3985;stroke-linecap:butt;stroke-linejoin:miter;stroke:red;stroke-opacity:1;stroke-miterlimit:10" d="m-28.348-28.347 56.695 56.695v-56.695" transform="matrix(1 0 0 -1 29.309 58.02)"/></g></svg>