<svg xmlns="http://www.w3.org/2000/svg" width="116.341" height="78.531" viewBox="0 0 87.256 58.898" version="1.2"><path style="fill:none;stroke-width:.19925;stroke-linecap:butt;stroke-linejoin:miter;stroke:gray;stroke-opacity:1;stroke-miterlimit:10" d="M.001 0h85.04M0 28.347h85.04M0 56.683h85.04M0 0v56.695M28.345 0v56.695M56.693 0v56.695M85.029 0v56.695" transform="matrix(1 0 0 -1 .737 57.742)"/><path style="stroke:none;fill-rule:nonzero;fill:#000;fill-opacity:1" d="M72.602 29.395c0-.551-.45-.997-.997-.997a.995.995 0 1 0 .997.997ZM72.168 26.934a.995.995 0 1 0-1.99-.002.995.995 0 0 0 1.99.002ZM70.89 24.547a.995.995 0 1 0-1.99-.002.995.995 0 0 0 1.99.002ZM68.8 22.309a.995.995 0 1 0-1.99-.002.995.995 0 0 0 1.99.002ZM65.969 20.285a.995.995 0 1 0-1.99-.002.995.995 0 0 0 1.99.002ZM62.473 18.54a.995.995 0 1 0-1.99-.003.995.995 0 0 0 1.99.002ZM58.426 17.121a.995.995 0 1 0-1.99-.002.995.995 0 0 0 1.99.002ZM53.95 16.078a.995.995 0 1 0-1.991-.002.995.995 0 0 0 1.99.002ZM49.176 15.438a.995.995 0 1 0-1.99-.002.995.995 0 0 0 1.99.002ZM44.254 15.223a.995.995 0 1 0-1.99-.002.995.995 0 0 0 1.99.002ZM39.332 15.438a.995.995 0 1 0-1.99-.002.995.995 0 0 0 1.99.002ZM34.559 16.078a.995.995 0 1 0-1.99-.002.995.995 0 0 0 1.99.002ZM30.082 17.121a.999.999 0 0 0-1.996 0 .998.998 0 0 0 1.996 0ZM26.031 18.54a.995.995 0 1 0-1.99-.003.995.995 0 0 0 1.99.002ZM22.54 20.285a.995.995 0 1 0-1.991-.002.995.995 0 0 0 1.99.002ZM19.703 22.309a.995.995 0 1 0-1.99-.002.995.995 0 0 0 1.99.002ZM17.617 24.547a.995.995 0 1 0-1.99-.002.995.995 0 0 0 1.99.002ZM16.336 26.934a.995.995 0 1 0-1.99-.002.995.995 0 0 0 1.99.002ZM15.906 29.395a.995.995 0 1 0-1.99-.002.995.995 0 0 0 1.99.002ZM16.336 31.855a.995.995 0 1 0-1.99-.001.995.995 0 0 0 1.99.001ZM17.617 34.242a.995.995 0 1 0-1.99-.001.995.995 0 0 0 1.99.001ZM19.703 36.48a.998.998 0 0 0-.996-.996.995.995 0 1 0 .996.996ZM22.54 38.504a.998.998 0 0 0-.997-.996.998.998 0 0 0 0 1.996c.55 0 .996-.45.996-1ZM26.031 40.254a.995.995 0 1 0-1.99-.002.995.995 0 0 0 1.99.002ZM30.082 41.668c0-.547-.45-.996-1-.996a1 1 0 0 0-.996.996c0 .55.45 1 .996 1 .55 0 1-.45 1-1ZM34.559 42.715a.995.995 0 1 0-1.99-.002.995.995 0 0 0 1.99.002ZM39.332 43.352a.998.998 0 0 0-.996-.997.998.998 0 0 0 0 1.997c.55 0 .996-.45.996-1ZM44.254 43.57a.995.995 0 1 0-1.99-.001.995.995 0 0 0 1.99.001ZM49.176 43.352a.998.998 0 0 0-.996-.997.998.998 0 0 0 0 1.997c.55 0 .996-.45.996-1ZM53.95 42.715a.995.995 0 1 0-1.991-.002.995.995 0 0 0 1.99.002ZM58.426 41.668a.998.998 0 0 0-.996-.996.998.998 0 0 0 0 1.996c.55 0 .996-.45.996-1ZM62.473 40.254a.995.995 0 1 0-1.99-.002.995.995 0 0 0 1.99.002ZM65.969 38.504a.998.998 0 0 0-.996-.996.998.998 0 0 0 0 1.996c.55 0 .996-.45.996-1ZM68.8 36.48a.998.998 0 0 0-.995-.996 1 1 0 0 0-.996.996.995.995 0 1 0 1.992 0ZM70.89 34.242a.995.995 0 1 0-1.99-.001.995.995 0 0 0 1.99.001ZM72.168 31.855a.995.995 0 1 0-1.99-.001.995.995 0 0 0 1.99.001Zm0 0"/><path style="stroke:none;fill-rule:nonzero;fill:#000;fill-opacity:1" d="M72.602 29.395c0-.551-.45-.997-.997-.997a.995.995 0 1 0 .997.997Zm0 0"/></svg>