<svg xmlns="http://www.w3.org/2000/svg" width="29.245" height="8.307" viewBox="0 0 21.934 6.23" version="1.2"><defs><clipPath id="a"><path d="M7 0h14.902v5.844H7Zm0 0"/></clipPath><clipPath id="b"><path d="M11 0h10.902v5.844H11Zm0 0"/></clipPath></defs><path style="fill:none;stroke-width:.3985;stroke-linecap:butt;stroke-linejoin:miter;stroke:#000;stroke-opacity:1;stroke-miterlimit:10" d="M0 2.214h16.454" transform="matrix(1 0 0 -1 .976 4.944)"/><path style="stroke:none;fill-rule:nonzero;fill:#000;fill-opacity:1" d="M15.934 2.73 12.96.97v3.527Zm0 0"/><g clip-path="url(#a)"><path style="fill:none;stroke-width:.3985;stroke-linecap:butt;stroke-linejoin:miter;stroke:#000;stroke-opacity:1;stroke-miterlimit:10" d="M3.172.002.2 1.764v-3.528Zm0 0" transform="matrix(1 0 0 -1 12.761 2.732)"/></g><path style="stroke:none;fill-rule:nonzero;fill:#000;fill-opacity:1" d="M20.504 2.73 17.527.97v3.527Zm0 0"/><g clip-path="url(#b)"><path style="fill:none;stroke-width:.3985;stroke-linecap:butt;stroke-linejoin:miter;stroke:#000;stroke-opacity:1;stroke-miterlimit:10" d="M3.174.002.198 1.764v-3.528Zm0 0" transform="matrix(1 0 0 -1 17.33 2.732)"/></g></svg>