<svg xmlns="http://www.w3.org/2000/svg" width="87.683" height="91.539" viewBox="0 0 65.762 68.654" version="1.2"><defs><clipPath id="a"><path d="M0 18h28v50.48H0Zm0 0"/></clipPath><clipPath id="b"><path d="M0 17h44v51.48H0Zm0 0"/></clipPath><clipPath id="c"><path d="M13 9h52.645v54H13Zm0 0"/></clipPath><clipPath id="d"><path d="M17 8h48.645v52H17Zm0 0"/></clipPath><clipPath id="e"><path d="M13 13h52.645v54H13Zm0 0"/></clipPath><clipPath id="f"><path d="M22 21h43.645v47.48H22Zm0 0"/></clipPath><clipPath id="g"><path d="M25 21h40.645v47.48H25Zm0 0"/></clipPath><clipPath id="h"><path d="M12 30h53.645v38.48H12Zm0 0"/></clipPath><clipPath id="i"><path d="M15 35h49v33.48H15Zm0 0"/></clipPath><clipPath id="j"><path d="M18 27h47.645v41.48H18Zm0 0"/></clipPath><clipPath id="k"><path d="M20 24h45.645v44.48H20Zm0 0"/></clipPath><clipPath id="l"><path d="M19 20h46.645v48.48H19Zm0 0"/></clipPath><clipPath id="m"><path d="M21 18h44.645v50H21Zm0 0"/></clipPath><clipPath id="n"><path d="M21 18h44.645v50.48H21Zm0 0"/></clipPath><clipPath id="o"><path d="M29 28h36.645v40.48H29Zm0 0"/></clipPath><clipPath id="p"><path d="M30 33h35.645v35.48H30Zm0 0"/></clipPath><clipPath id="q"><path d="M28 32h37.645v36.48H28Zm0 0"/></clipPath><clipPath id="r"><path d="M29 37h36.645v31.48H29Zm0 0"/></clipPath><clipPath id="s"><path d="M23 33h42.645v35.48H23Zm0 0"/></clipPath><clipPath id="t"><path d="M17 25h48.645v43.48H17Zm0 0"/></clipPath><clipPath id="u"><path d="M20 19h45.645v49.48H20Zm0 0"/></clipPath><clipPath id="v"><path d="M22 11h43.645v54H22Zm0 0"/></clipPath><clipPath id="w"><path d="M19 7h46.645v50H19Zm0 0"/></clipPath><clipPath id="x"><path d="M17 7h48.645v56H17Zm0 0"/></clipPath><clipPath id="y"><path d="M0 12h47v56.48H0Zm0 0"/></clipPath><clipPath id="z"><path d="M0 17h49v51.48H0Zm0 0"/></clipPath><clipPath id="A"><path d="M0 21h49v47.48H0Zm0 0"/></clipPath><clipPath id="B"><path d="M0 16h53v52.48H0Zm0 0"/></clipPath><clipPath id="C"><path d="M4 14h56v54.48H4Zm0 0"/></clipPath><clipPath id="D"><path d="M6 22h55v46.48H6Zm0 0"/></clipPath><clipPath id="E"><path d="M6 17h50v51.48H6Zm0 0"/></clipPath></defs><path style="fill:none;stroke-width:1.59404;stroke-linecap:round;stroke-linejoin:miter;stroke:#fff;stroke-opacity:1;stroke-miterlimit:10" d="M.001 0s8.035 13.958-1.734 5.915" transform="matrix(1 0 0 -1 23.03 28.567)"/><path style="fill:none;stroke-width:1.59404;stroke-linecap:round;stroke-linejoin:miter;stroke:#fcfcff;stroke-opacity:1;stroke-miterlimit:10" d="M-1.733 5.915c-9.77-8.047 11.52-9.82 5.508-9.254" transform="matrix(1 0 0 -1 23.03 28.567)"/><path style="fill:none;stroke-width:1.59404;stroke-linecap:round;stroke-linejoin:miter;stroke:#fafaff;stroke-opacity:1;stroke-miterlimit:10" d="M3.775-3.34c-6.012.567 1.035 7.548-6.852 1.25" transform="matrix(1 0 0 -1 23.03 28.567)"/><path style="fill:none;stroke-width:1.59404;stroke-linecap:round;stroke-linejoin:miter;stroke:#f7f7ff;stroke-opacity:1;stroke-miterlimit:10" d="M-3.077-2.09c-7.89-6.296 4.219 3.196-3.168.575" transform="matrix(1 0 0 -1 23.03 28.567)"/><path style="fill:none;stroke-width:1.59404;stroke-linecap:round;stroke-linejoin:miter;stroke:#f5f5ff;stroke-opacity:1;stroke-miterlimit:10" d="M-6.245-1.515c-7.387-2.621 6.227 4.754 3.2 9.18" transform="matrix(1 0 0 -1 23.03 28.567)"/><path style="fill:none;stroke-width:1.59404;stroke-linecap:round;stroke-linejoin:miter;stroke:#f2f2ff;stroke-opacity:1;stroke-miterlimit:10" d="M-3.046 7.665c-3.03 4.425-12.691-3.36-7.457-4.348" transform="matrix(1 0 0 -1 23.03 28.567)"/><path style="fill:none;stroke-width:1.59404;stroke-linecap:round;stroke-linejoin:miter;stroke:#f0f0ff;stroke-opacity:1;stroke-miterlimit:10" d="M-10.503 3.317c5.239-.988-1.906-5.95 1.121-6.488" transform="matrix(1 0 0 -1 23.03 28.567)"/><path style="fill:none;stroke-width:1.59404;stroke-linecap:round;stroke-linejoin:miter;stroke:#ededff;stroke-opacity:1;stroke-miterlimit:10" d="M-9.382-3.171c3.024-.543 4.52 10.054-.785 8.968" transform="matrix(1 0 0 -1 23.03 28.567)"/><path style="fill:none;stroke-width:1.59404;stroke-linecap:round;stroke-linejoin:miter;stroke:#ebebff;stroke-opacity:1;stroke-miterlimit:10" d="M-10.167 5.797c-5.308-1.085-12.328-14.136-2.976-9.195" transform="matrix(1 0 0 -1 23.03 28.567)"/><path style="fill:none;stroke-width:1.59404;stroke-linecap:round;stroke-linejoin:miter;stroke:#e8e8ff;stroke-opacity:1;stroke-miterlimit:10" d="M-13.143-3.398c9.355 4.942 7.363 13.832 5.742 6.965" transform="matrix(1 0 0 -1 23.03 28.567)"/><path style="fill:none;stroke-width:1.59404;stroke-linecap:round;stroke-linejoin:miter;stroke:#e5e5ff;stroke-opacity:1;stroke-miterlimit:10" d="M-7.401 3.567c-1.617-6.871-3.047-.547 6.195-4.418" transform="matrix(1 0 0 -1 23.03 28.567)"/><path style="fill:none;stroke-width:1.59404;stroke-linecap:round;stroke-linejoin:miter;stroke:#e3e3ff;stroke-opacity:1;stroke-miterlimit:10" d="M-1.206-.851c9.242-3.867-16.566 4.676-8.289 2.969" transform="matrix(1 0 0 -1 23.03 28.567)"/><path style="fill:none;stroke-width:1.59404;stroke-linecap:round;stroke-linejoin:miter;stroke:#e0e0ff;stroke-opacity:1;stroke-miterlimit:10" d="M-9.495 2.118C-1.214.407-7.737-.413-2.265 5.38" transform="matrix(1 0 0 -1 23.03 28.567)"/><path style="fill:none;stroke-width:1.59404;stroke-linecap:round;stroke-linejoin:miter;stroke:#dedeff;stroke-opacity:1;stroke-miterlimit:10" d="M-2.264 5.38c5.472 5.792 9.425 8.289 1.832 1.66" transform="matrix(1 0 0 -1 23.03 28.567)"/><path style="fill:none;stroke-width:1.59404;stroke-linecap:round;stroke-linejoin:miter;stroke:#dbdbff;stroke-opacity:1;stroke-miterlimit:10" d="M-.432 7.04C-8.03.415-3.25-4.234.243 2.532" transform="matrix(1 0 0 -1 23.03 28.567)"/><path style="fill:none;stroke-width:1.59404;stroke-linecap:round;stroke-linejoin:miter;stroke:#d9d9ff;stroke-opacity:1;stroke-miterlimit:10" d="M.243 2.532c3.489 6.765-4.968 10.46-9.226 9.36" transform="matrix(1 0 0 -1 23.03 28.567)"/><path style="fill:none;stroke-width:1.59404;stroke-linecap:round;stroke-linejoin:miter;stroke:#d6d6ff;stroke-opacity:1;stroke-miterlimit:10" d="M-8.983 11.891c-4.258-1.101-7.383-2.91-5.32 5.082" transform="matrix(1 0 0 -1 23.03 28.567)"/><path style="fill:none;stroke-width:1.59404;stroke-linecap:round;stroke-linejoin:miter;stroke:#d4d4ff;stroke-opacity:1;stroke-miterlimit:10" d="M-14.303 16.973c2.062 7.992 6.789 14.192 9.937 6.36" transform="matrix(1 0 0 -1 23.03 28.567)"/><path style="fill:none;stroke-width:1.59404;stroke-linecap:round;stroke-linejoin:miter;stroke:#d1d1ff;stroke-opacity:1;stroke-miterlimit:10" d="M-4.366 23.333c3.148-7.832-11.89-4.032-4.129-3.61" transform="matrix(1 0 0 -1 23.03 28.567)"/><path style="fill:none;stroke-width:1.59404;stroke-linecap:round;stroke-linejoin:miter;stroke:#cfcfff;stroke-opacity:1;stroke-miterlimit:10" d="M-8.495 19.723c7.762.426-16.062.508-9.773-1.488" transform="matrix(1 0 0 -1 23.03 28.567)"/><path style="fill:none;stroke-width:1.59404;stroke-linecap:round;stroke-linejoin:miter;stroke:#ccf;stroke-opacity:1;stroke-miterlimit:10" d="M-18.268 18.235c6.289-1.996-4.196 3.336 2.324-3.8" transform="matrix(1 0 0 -1 23.03 28.567)"/><path style="fill:none;stroke-width:1.59404;stroke-linecap:round;stroke-linejoin:miter;stroke:#c9c9ff;stroke-opacity:1;stroke-miterlimit:10" d="M-15.944 14.434c6.52-7.14 12.05-6.324 8.371-.117" transform="matrix(1 0 0 -1 23.03 28.567)"/><path style="fill:none;stroke-width:1.59404;stroke-linecap:round;stroke-linejoin:miter;stroke:#c7c7ff;stroke-opacity:1;stroke-miterlimit:10" d="M-7.573 14.317c-3.676 6.203 2.254 7.797-2.684 2.164" transform="matrix(1 0 0 -1 23.03 28.567)"/><path style="fill:none;stroke-width:1.59404;stroke-linecap:round;stroke-linejoin:miter;stroke:#c4c4ff;stroke-opacity:1;stroke-miterlimit:10" d="M-10.257 16.481c-4.933-5.633 14.754 15.664 6.196 5.977" transform="matrix(1 0 0 -1 23.03 28.567)"/><path style="fill:none;stroke-width:1.59404;stroke-linecap:round;stroke-linejoin:miter;stroke:#c2c2ff;stroke-opacity:1;stroke-miterlimit:10" d="M-4.061 22.458c-8.563-9.688 4.093-4.489 2.187-7.164" transform="matrix(1 0 0 -1 23.03 28.567)"/><path style="fill:none;stroke-width:1.59404;stroke-linecap:round;stroke-linejoin:miter;stroke:#bfbfff;stroke-opacity:1;stroke-miterlimit:10" d="M-1.874 15.294c-1.91-2.676 8.38-6.637 2.867-1.688" transform="matrix(1 0 0 -1 23.03 28.567)"/><path style="fill:none;stroke-width:1.59404;stroke-linecap:round;stroke-linejoin:miter;stroke:#bdbdff;stroke-opacity:1;stroke-miterlimit:10" d="M.993 13.606C-4.514 18.556-15.167.903-6.06 3.833" transform="matrix(1 0 0 -1 23.03 28.567)"/><path style="fill:none;stroke-width:1.59404;stroke-linecap:round;stroke-linejoin:miter;stroke:#babaff;stroke-opacity:1;stroke-miterlimit:10" d="M-6.061 3.833c9.101 2.925.875 5.03-7.324-4.274" transform="matrix(1 0 0 -1 23.03 28.567)"/><path style="fill:none;stroke-width:1.59404;stroke-linecap:round;stroke-linejoin:miter;stroke:#b8b8ff;stroke-opacity:1;stroke-miterlimit:10" d="M-13.385-.44c-8.2-9.302-4.458-1.75-3.446-8.84" transform="matrix(1 0 0 -1 23.03 28.567)"/><path style="fill:none;stroke-width:1.59404;stroke-linecap:round;stroke-linejoin:miter;stroke:#b5b5ff;stroke-opacity:1;stroke-miterlimit:10" d="M-16.83-9.28c1.01-7.09-6.938-1.442-3.763-5.067" transform="matrix(1 0 0 -1 23.03 28.567)"/><g clip-path="url(#a)"><path style="fill:none;stroke-width:1.59404;stroke-linecap:round;stroke-linejoin:miter;stroke:#b2b2ff;stroke-opacity:1;stroke-miterlimit:10" d="M-20.593-14.347c3.18-3.625-4.09-5.395 3.004 2.14" transform="matrix(1 0 0 -1 23.03 28.567)"/></g><path style="fill:none;stroke-width:1.59404;stroke-linecap:round;stroke-linejoin:miter;stroke:#b0b0ff;stroke-opacity:1;stroke-miterlimit:10" d="M-17.589-12.206c7.094 7.535-.574 10.503 6.239 9.242" transform="matrix(1 0 0 -1 23.03 28.567)"/><path style="fill:none;stroke-width:1.59404;stroke-linecap:round;stroke-linejoin:miter;stroke:#adadff;stroke-opacity:1;stroke-miterlimit:10" d="M-11.35-2.964c6.808-1.266 4.535-12.262 6.902-7.598" transform="matrix(1 0 0 -1 23.03 28.567)"/><path style="fill:none;stroke-width:1.59404;stroke-linecap:round;stroke-linejoin:miter;stroke:#ababff;stroke-opacity:1;stroke-miterlimit:10" d="M-4.448-10.562c2.363 4.664-16.793-9.137-7.289.57" transform="matrix(1 0 0 -1 23.03 28.567)"/><path style="fill:none;stroke-width:1.59404;stroke-linecap:round;stroke-linejoin:miter;stroke:#a8a8ff;stroke-opacity:1;stroke-miterlimit:10" d="M-11.737-9.992c9.504 9.707-.023 6.149-2.602 9.676" transform="matrix(1 0 0 -1 23.03 28.567)"/><path style="fill:none;stroke-width:1.59404;stroke-linecap:round;stroke-linejoin:miter;stroke:#a6a6ff;stroke-opacity:1;stroke-miterlimit:10" d="M-14.339-.316C-16.92 3.208-1.06-10.526-6.147-8.972" transform="matrix(1 0 0 -1 23.03 28.567)"/><path style="fill:none;stroke-width:1.59404;stroke-linecap:round;stroke-linejoin:miter;stroke:#a3a3ff;stroke-opacity:1;stroke-miterlimit:10" d="M-6.147-8.972c-5.09 1.559 1.937-2.012-3.492-4.727" transform="matrix(1 0 0 -1 23.03 28.567)"/><path style="fill:none;stroke-width:1.59404;stroke-linecap:round;stroke-linejoin:miter;stroke:#a1a1ff;stroke-opacity:1;stroke-miterlimit:10" d="M-9.64-13.699c-5.425-2.718 2.669-2.156 1.704-.582" transform="matrix(1 0 0 -1 23.03 28.567)"/><path style="fill:none;stroke-width:1.59404;stroke-linecap:round;stroke-linejoin:miter;stroke:#9e9eff;stroke-opacity:1;stroke-miterlimit:10" d="M-7.936-14.28c-.965 1.574 8.293 3.054 5.722 3.91" transform="matrix(1 0 0 -1 23.03 28.567)"/><path style="fill:none;stroke-width:1.59404;stroke-linecap:round;stroke-linejoin:miter;stroke:#9c9cff;stroke-opacity:1;stroke-miterlimit:10" d="M-2.214-10.37c-2.57.859 13.7 13.828 6.16 7.835" transform="matrix(1 0 0 -1 23.03 28.567)"/><path style="fill:none;stroke-width:1.59404;stroke-linecap:round;stroke-linejoin:miter;stroke:#99f;stroke-opacity:1;stroke-miterlimit:10" d="M3.947-2.535c-7.543-5.992-7.61-.726-6.653-5.84" transform="matrix(1 0 0 -1 23.03 28.567)"/><path style="fill:none;stroke-width:1.59404;stroke-linecap:round;stroke-linejoin:miter;stroke:#9696ff;stroke-opacity:1;stroke-miterlimit:10" d="M-2.706-8.374c.953-5.118 2.196 3.742.91-2.727" transform="matrix(1 0 0 -1 23.03 28.567)"/><g clip-path="url(#b)"><path style="fill:none;stroke-width:1.59404;stroke-linecap:round;stroke-linejoin:miter;stroke:#9494ff;stroke-opacity:1;stroke-miterlimit:10" d="M-1.796-11.101c-1.28-6.465-4.863-11.219-9.004-1.52" transform="matrix(1 0 0 -1 23.03 28.567)"/></g><path style="fill:none;stroke-width:1.59404;stroke-linecap:round;stroke-linejoin:miter;stroke:#9191ff;stroke-opacity:1;stroke-miterlimit:10" d="M-10.8-12.62c-4.136 9.695 5.098 8.394-1.257 2.59" transform="matrix(1 0 0 -1 23.03 28.567)"/><path style="fill:none;stroke-width:1.59404;stroke-linecap:round;stroke-linejoin:miter;stroke:#8f8fff;stroke-opacity:1;stroke-miterlimit:10" d="M-12.057-10.03c-6.36-5.805 16.699 13.179 7.191 8.847" transform="matrix(1 0 0 -1 23.03 28.567)"/><path style="fill:none;stroke-width:1.59404;stroke-linecap:round;stroke-linejoin:miter;stroke:#8c8cff;stroke-opacity:1;stroke-miterlimit:10" d="M-4.866-1.183C-14.378-5.511-6.069-2.378 3.802.684" transform="matrix(1 0 0 -1 23.03 28.567)"/><path style="fill:none;stroke-width:1.59404;stroke-linecap:round;stroke-linejoin:miter;stroke:#8a8aff;stroke-opacity:1;stroke-miterlimit:10" d="M3.802.684c9.875 3.059 11.73 11.559 7.281 1.649" transform="matrix(1 0 0 -1 23.03 28.567)"/><path style="fill:none;stroke-width:1.59404;stroke-linecap:round;stroke-linejoin:miter;stroke:#8787ff;stroke-opacity:1;stroke-miterlimit:10" d="M11.083 2.333c-4.449-9.914 10.848-9.754 4.106-5.98" transform="matrix(1 0 0 -1 23.03 28.567)"/><g clip-path="url(#c)"><path style="fill:none;stroke-width:1.59404;stroke-linecap:round;stroke-linejoin:miter;stroke:#8585ff;stroke-opacity:1;stroke-miterlimit:10" d="M15.189-3.648C8.443.122 19.728-18.152 25.02-8.87" transform="matrix(1 0 0 -1 23.03 28.567)"/></g><g clip-path="url(#d)"><path style="fill:none;stroke-width:1.59404;stroke-linecap:round;stroke-linejoin:miter;stroke:#8282ff;stroke-opacity:1;stroke-miterlimit:10" d="M25.02-8.87c5.29 9.285-10.616-2.25-7.831 6.542" transform="matrix(1 0 0 -1 23.03 28.567)"/></g><path style="fill:none;stroke-width:1.59404;stroke-linecap:round;stroke-linejoin:miter;stroke:#8080ff;stroke-opacity:1;stroke-miterlimit:10" d="M17.189-2.328c2.785 8.797-.375-.468-5.082-2.468" transform="matrix(1 0 0 -1 23.03 28.567)"/><path style="fill:none;stroke-width:1.59404;stroke-linecap:round;stroke-linejoin:miter;stroke:#7d7dff;stroke-opacity:1;stroke-miterlimit:10" d="M12.107-4.796c-4.711-2-5.02 9.562-8.793 3.953" transform="matrix(1 0 0 -1 23.03 28.567)"/><path style="fill:none;stroke-width:1.59404;stroke-linecap:round;stroke-linejoin:miter;stroke:#7a7aff;stroke-opacity:1;stroke-miterlimit:10" d="M3.314-.843C-.46-6.453 14.31 6.352 6.798 5.415" transform="matrix(1 0 0 -1 23.03 28.567)"/><path style="fill:none;stroke-width:1.59404;stroke-linecap:round;stroke-linejoin:miter;stroke:#7878ff;stroke-opacity:1;stroke-miterlimit:10" d="M6.798 5.415C-.714 4.477-.412-12.437 5.65-4.46" transform="matrix(1 0 0 -1 23.03 28.567)"/><path style="fill:none;stroke-width:1.59404;stroke-linecap:round;stroke-linejoin:miter;stroke:#7575ff;stroke-opacity:1;stroke-miterlimit:10" d="M5.65-4.46C11.712 3.516 3.646-.495-1.186.532" transform="matrix(1 0 0 -1 23.03 28.567)"/><path style="fill:none;stroke-width:1.59404;stroke-linecap:round;stroke-linejoin:miter;stroke:#7373ff;stroke-opacity:1;stroke-miterlimit:10" d="M-1.186.532C-6.022 1.559-5.35 2.778 4.552 7.645" transform="matrix(1 0 0 -1 23.03 28.567)"/><path style="fill:none;stroke-width:1.59404;stroke-linecap:round;stroke-linejoin:miter;stroke:#7070ff;stroke-opacity:1;stroke-miterlimit:10" d="M4.552 7.645c9.902 4.867 13.988-.289 6.602-4.176" transform="matrix(1 0 0 -1 23.03 28.567)"/><path style="fill:none;stroke-width:1.59404;stroke-linecap:round;stroke-linejoin:miter;stroke:#6e6eff;stroke-opacity:1;stroke-miterlimit:10" d="M11.154 3.47c-7.391-3.883-2.504 5.124-.079.245" transform="matrix(1 0 0 -1 23.03 28.567)"/><path style="fill:none;stroke-width:1.59404;stroke-linecap:round;stroke-linejoin:miter;stroke:#6b6bff;stroke-opacity:1;stroke-miterlimit:10" d="M11.075 3.715c2.422-4.882 8.122-7.59 3.368-1" transform="matrix(1 0 0 -1 23.03 28.567)"/><path style="fill:none;stroke-width:1.59404;stroke-linecap:round;stroke-linejoin:miter;stroke:#6969ff;stroke-opacity:1;stroke-miterlimit:10" d="M14.443 2.715c-4.754 6.586-7.438 11.73-1.125 5.594" transform="matrix(1 0 0 -1 23.03 28.567)"/><path style="fill:none;stroke-width:1.59404;stroke-linecap:round;stroke-linejoin:miter;stroke:#66f;stroke-opacity:1;stroke-miterlimit:10" d="M13.318 8.31C19.63 2.175 3.454 4.074 6.732-.645" transform="matrix(1 0 0 -1 23.03 28.567)"/><path style="fill:none;stroke-width:1.59404;stroke-linecap:round;stroke-linejoin:miter;stroke:#6363ff;stroke-opacity:1;stroke-miterlimit:10" d="M6.732-.644c3.277-4.723-2.746-7.953 3.254-5.613" transform="matrix(1 0 0 -1 23.03 28.567)"/><path style="fill:none;stroke-width:1.59404;stroke-linecap:round;stroke-linejoin:miter;stroke:#6161ff;stroke-opacity:1;stroke-miterlimit:10" d="M9.986-6.257c5.996 2.344-6.946-9.211-1.391-3.985" transform="matrix(1 0 0 -1 23.03 28.567)"/><path style="fill:none;stroke-width:1.59404;stroke-linecap:round;stroke-linejoin:miter;stroke:#5e5eff;stroke-opacity:1;stroke-miterlimit:10" d="M8.595-10.242c5.55 5.227 7.55 11.446 5.16 3.11" transform="matrix(1 0 0 -1 23.03 28.567)"/><g clip-path="url(#e)"><path style="fill:none;stroke-width:1.59404;stroke-linecap:round;stroke-linejoin:miter;stroke:#5c5cff;stroke-opacity:1;stroke-miterlimit:10" d="M13.755-7.132c-2.39-8.34 2.957-6.188 8.508-8.11" transform="matrix(1 0 0 -1 23.03 28.567)"/></g><g clip-path="url(#f)"><path style="fill:none;stroke-width:1.59404;stroke-linecap:round;stroke-linejoin:miter;stroke:#5959ff;stroke-opacity:1;stroke-miterlimit:10" d="M22.263-15.242c5.55-1.921 16.375-2.261 9.95-.535" transform="matrix(1 0 0 -1 23.03 28.567)"/></g><g clip-path="url(#g)"><path style="fill:none;stroke-width:1.59404;stroke-linecap:round;stroke-linejoin:miter;stroke:#5757ff;stroke-opacity:1;stroke-miterlimit:10" d="M32.212-15.777c-6.43 1.727 1.438.114-7.543-9.07" transform="matrix(1 0 0 -1 23.03 28.567)"/></g><g clip-path="url(#h)"><path style="fill:none;stroke-width:1.59404;stroke-linecap:round;stroke-linejoin:miter;stroke:#5454ff;stroke-opacity:1;stroke-miterlimit:10" d="M24.67-24.847c-8.977-9.184-17.763-4.816-9.872-5.828" transform="matrix(1 0 0 -1 23.03 28.567)"/></g><g clip-path="url(#i)"><path style="fill:none;stroke-width:1.59404;stroke-linecap:round;stroke-linejoin:miter;stroke:#5252ff;stroke-opacity:1;stroke-miterlimit:10" d="M14.798-30.675c7.89-1.012-.96 2.61 2.965 1.055" transform="matrix(1 0 0 -1 23.03 28.567)"/></g><g clip-path="url(#j)"><path style="fill:none;stroke-width:1.59404;stroke-linecap:round;stroke-linejoin:miter;stroke:#4f4fff;stroke-opacity:1;stroke-miterlimit:10" d="M17.763-29.62c3.922-1.555 7.539 3.71 7.766 8.261" transform="matrix(1 0 0 -1 23.03 28.567)"/></g><g clip-path="url(#k)"><path style="fill:none;stroke-width:1.59404;stroke-linecap:round;stroke-linejoin:miter;stroke:#4c4cff;stroke-opacity:1;stroke-miterlimit:10" d="M25.529-21.359c.222 4.547-6.086-6.094-4.934 2.461" transform="matrix(1 0 0 -1 23.03 28.567)"/></g><g clip-path="url(#l)"><path style="fill:none;stroke-width:1.59404;stroke-linecap:round;stroke-linejoin:miter;stroke:#4a4aff;stroke-opacity:1;stroke-miterlimit:10" d="M20.595-18.898c1.148 8.559-5.371 1.344 1.703 2.84" transform="matrix(1 0 0 -1 23.03 28.567)"/></g><g clip-path="url(#m)"><path style="fill:none;stroke-width:1.59404;stroke-linecap:round;stroke-linejoin:miter;stroke:#4747ff;stroke-opacity:1;stroke-miterlimit:10" d="M22.298-16.058c7.074 1.496-2.219 4.426-1.035 3.207" transform="matrix(1 0 0 -1 23.03 28.567)"/></g><g clip-path="url(#n)"><path style="fill:none;stroke-width:1.59404;stroke-linecap:round;stroke-linejoin:miter;stroke:#4545ff;stroke-opacity:1;stroke-miterlimit:10" d="M21.263-12.851c1.187-1.215 12.89.285 8.098-9.582" transform="matrix(1 0 0 -1 23.03 28.567)"/></g><g clip-path="url(#o)"><path style="fill:none;stroke-width:1.59404;stroke-linecap:round;stroke-linejoin:miter;stroke:#4242ff;stroke-opacity:1;stroke-miterlimit:10" d="M29.36-22.433c-4.792-9.863 18.387-3.148 9.333-4.563" transform="matrix(1 0 0 -1 23.03 28.567)"/></g><g clip-path="url(#p)"><path style="fill:none;stroke-width:1.59404;stroke-linecap:round;stroke-linejoin:miter;stroke:#4040ff;stroke-opacity:1;stroke-miterlimit:10" d="M38.693-26.995c-9.055-1.415-9.82-10.454-6.875-3.458" transform="matrix(1 0 0 -1 23.03 28.567)"/></g><g clip-path="url(#q)"><path style="fill:none;stroke-width:1.59404;stroke-linecap:round;stroke-linejoin:miter;stroke:#3d3dff;stroke-opacity:1;stroke-miterlimit:10" d="M31.818-30.453c2.949 6.997-7.95 2.891-2.817-1.156" transform="matrix(1 0 0 -1 23.03 28.567)"/></g><g clip-path="url(#r)"><path style="fill:none;stroke-width:1.59404;stroke-linecap:round;stroke-linejoin:miter;stroke:#3b3bff;stroke-opacity:1;stroke-miterlimit:10" d="M29.001-31.609c5.137-4.043 4.266-6.676 3.395-6.484" transform="matrix(1 0 0 -1 23.03 28.567)"/></g><g clip-path="url(#s)"><path style="fill:none;stroke-width:1.59404;stroke-linecap:round;stroke-linejoin:miter;stroke:#3838ff;stroke-opacity:1;stroke-miterlimit:10" d="M32.396-38.093c-.867.191-14.77 14.332-7.434 9.367" transform="matrix(1 0 0 -1 23.03 28.567)"/></g><g clip-path="url(#t)"><path style="fill:none;stroke-width:1.59404;stroke-linecap:round;stroke-linejoin:miter;stroke:#3636ff;stroke-opacity:1;stroke-miterlimit:10" d="M24.962-28.726c7.34-4.96-15.226 16.695-5.347 7.246" transform="matrix(1 0 0 -1 23.03 28.567)"/></g><g clip-path="url(#u)"><path style="fill:none;stroke-width:1.59404;stroke-linecap:round;stroke-linejoin:miter;stroke:#33f;stroke-opacity:1;stroke-miterlimit:10" d="M19.615-21.48c9.878-9.45 18.324 2.434 9.789 7.629" transform="matrix(1 0 0 -1 23.03 28.567)"/></g><g clip-path="url(#v)"><path style="fill:none;stroke-width:1.59404;stroke-linecap:round;stroke-linejoin:miter;stroke:#3030ff;stroke-opacity:1;stroke-miterlimit:10" d="M29.404-13.851c-8.536 5.2.734 5.113-7.66 8.285" transform="matrix(1 0 0 -1 23.03 28.567)"/></g><g clip-path="url(#w)"><path style="fill:none;stroke-width:1.59404;stroke-linecap:round;stroke-linejoin:miter;stroke:#2e2eff;stroke-opacity:1;stroke-miterlimit:10" d="M21.743-5.566c-8.398 3.168 5.704 5.254-.476 3.836" transform="matrix(1 0 0 -1 23.03 28.567)"/></g><g clip-path="url(#x)"><path style="fill:none;stroke-width:1.59404;stroke-linecap:round;stroke-linejoin:miter;stroke:#2b2bff;stroke-opacity:1;stroke-miterlimit:10" d="M21.267-1.73c-6.18-1.422 1.258-3.668-4.488-9.371" transform="matrix(1 0 0 -1 23.03 28.567)"/></g><path style="fill:none;stroke-width:1.59404;stroke-linecap:round;stroke-linejoin:miter;stroke:#2929ff;stroke-opacity:1;stroke-miterlimit:10" d="M16.779-11.101c-5.743-5.7-4.485 2.063-7.184 5.234" transform="matrix(1 0 0 -1 23.03 28.567)"/><path style="fill:none;stroke-width:1.59404;stroke-linecap:round;stroke-linejoin:miter;stroke:#2626ff;stroke-opacity:1;stroke-miterlimit:10" d="M9.595-5.867c-2.695 3.168 1.879 2.633-6.54 3.86" transform="matrix(1 0 0 -1 23.03 28.567)"/><path style="fill:none;stroke-width:1.59404;stroke-linecap:round;stroke-linejoin:miter;stroke:#2424ff;stroke-opacity:1;stroke-miterlimit:10" d="M3.056-2.007C-5.358-.785 1.782-12.226-2.565-11.68" transform="matrix(1 0 0 -1 23.03 28.567)"/><path style="fill:none;stroke-width:1.59404;stroke-linecap:round;stroke-linejoin:miter;stroke:#2121ff;stroke-opacity:1;stroke-miterlimit:10" d="M-2.565-11.68c-4.344.552 6.035-.519.387 8.895" transform="matrix(1 0 0 -1 23.03 28.567)"/><path style="fill:none;stroke-width:1.59404;stroke-linecap:round;stroke-linejoin:miter;stroke:#1f1fff;stroke-opacity:1;stroke-miterlimit:10" d="M-2.178-2.785C-7.823 6.63-2.94-17.578-.952-8.562" transform="matrix(1 0 0 -1 23.03 28.567)"/><g clip-path="url(#y)"><path style="fill:none;stroke-width:1.59404;stroke-linecap:round;stroke-linejoin:miter;stroke:#1c1cff;stroke-opacity:1;stroke-miterlimit:10" d="M-.952-8.562c1.992 9.02 3.688-17.492-2.25-8.406" transform="matrix(1 0 0 -1 23.03 28.567)"/></g><g clip-path="url(#z)"><path style="fill:none;stroke-width:1.59404;stroke-linecap:round;stroke-linejoin:miter;stroke:#1919ff;stroke-opacity:1;stroke-miterlimit:10" d="M-3.202-16.968c-5.937 9.09 5.258 5.12 6.05 1.148" transform="matrix(1 0 0 -1 23.03 28.567)"/></g><g clip-path="url(#A)"><path style="fill:none;stroke-width:1.59404;stroke-linecap:round;stroke-linejoin:miter;stroke:#1717ff;stroke-opacity:1;stroke-miterlimit:10" d="M2.849-15.82c.793-3.972.383 5.211-7.184-3.226" transform="matrix(1 0 0 -1 23.03 28.567)"/></g><g clip-path="url(#B)"><path style="fill:none;stroke-width:1.59404;stroke-linecap:round;stroke-linejoin:miter;stroke:#1414ff;stroke-opacity:1;stroke-miterlimit:10" d="M-4.335-19.046c-7.562-8.442 16.395-.621 9.93 8.293" transform="matrix(1 0 0 -1 23.03 28.567)"/></g><g clip-path="url(#C)"><path style="fill:none;stroke-width:1.59404;stroke-linecap:round;stroke-linejoin:miter;stroke:#1212ff;stroke-opacity:1;stroke-miterlimit:10" d="M5.595-10.753c-6.469 8.91 5.527-16.11 8.504-8.957" transform="matrix(1 0 0 -1 23.03 28.567)"/></g><g clip-path="url(#D)"><path style="fill:none;stroke-width:1.59404;stroke-linecap:round;stroke-linejoin:miter;stroke:#0f0fff;stroke-opacity:1;stroke-miterlimit:10" d="M14.099-19.71c2.976 7.152-12.336 1.554-6.668-2.305" transform="matrix(1 0 0 -1 23.03 28.567)"/></g><g clip-path="url(#E)"><path style="fill:none;stroke-width:1.59404;stroke-linecap:round;stroke-linejoin:miter;stroke:#0d0dff;stroke-opacity:1;stroke-miterlimit:10" d="M7.43-22.015c5.665-3.855.052 15.098-1.124 9.602" transform="matrix(1 0 0 -1 23.03 28.567)"/></g><path style="fill:none;stroke-width:1.59404;stroke-linecap:round;stroke-linejoin:miter;stroke:#0a0aff;stroke-opacity:1;stroke-miterlimit:10" d="M6.306-12.413C5.134-17.91 13.583 1.274 8.677-6.48" transform="matrix(1 0 0 -1 23.03 28.567)"/><path style="fill:none;stroke-width:1.59404;stroke-linecap:round;stroke-linejoin:miter;stroke:#0808ff;stroke-opacity:1;stroke-miterlimit:10" d="M8.677-6.48c-4.906-7.758 6.04 3.356 4.047-.101" transform="matrix(1 0 0 -1 23.03 28.567)"/><path style="fill:none;stroke-width:1.59404;stroke-linecap:round;stroke-linejoin:miter;stroke:#0505ff;stroke-opacity:1;stroke-miterlimit:10" d="M12.724-6.581c-1.988-3.457-14.902 6.175-5.52.476" transform="matrix(1 0 0 -1 23.03 28.567)"/><path style="fill:none;stroke-width:1.59404;stroke-linecap:round;stroke-linejoin:miter;stroke:#0303ff;stroke-opacity:1;stroke-miterlimit:10" d="M7.204-6.105c9.387-5.7-1.156-2.598 3.77-3.793" transform="matrix(1 0 0 -1 23.03 28.567)"/><path style="fill:none;stroke-width:1.59404;stroke-linecap:round;stroke-linejoin:miter;stroke:#00f;stroke-opacity:1;stroke-miterlimit:10" d="M10.974-9.898c4.922-1.2 2.023 8.777 3.441 5.985" transform="matrix(1 0 0 -1 23.03 28.567)"/></svg>