<svg xmlns="http://www.w3.org/2000/svg" xmlns:xlink="http://www.w3.org/1999/xlink" width="94.491" height="192.177" viewBox="0 0 70.868 144.133" version="1.2"><defs><symbol overflow="visible" id="a"><path style="stroke:none" d="M3.86-1.11c0-.546-.422-1.14-1.485-1.14-.484 0-.813.125-.969.219v-1.422l-.984.031v.344c.312 0 .36 0 .36.187V0h.405l.141-.266c.36.25.703.313.969.313C3.328.047 3.859-.5 3.859-1.11Zm-.75 0c0 .266 0 .876-.891.876-.422 0-.656-.25-.781-.407v-.906c0-.11 0-.11.093-.187a1.28 1.28 0 0 1 .766-.235c.812 0 .812.578.812.86Zm0 0"/></symbol><symbol overflow="visible" id="b"><path style="stroke:none" d="M2.813-1.781c0-.282-.282-.469-.626-.469-.437 0-.734.313-.859.594h-.016v-.594l-.89.031v.344c.312 0 .36 0 .36.188v1.359h-.36V0c.219-.016.453-.016.687-.016.282 0 .563 0 .735.016v-.328h-.438v-.656c0-.532.313-.954.735-.985-.032.047-.047.078-.047.188 0 .218.156.36.36.36.202 0 .358-.141.358-.36Zm0 0"/></symbol><symbol overflow="visible" id="c"><path style="stroke:none" d="M3.563-.172c0-.156-.079-.156-.188-.156h-.031c-.063 0-.25 0-.344-.063v-1.062c0-.39-.313-.813-1.375-.813-.36 0-1.094 0-1.094.532a.36.36 0 0 0 .375.375.361.361 0 0 0 .375-.375.373.373 0 0 0-.078-.22C1.391-2 1.547-2 1.625-2c.453 0 .703.172.703.563v.109c-.062 0-.578-.016-1.062.078-.594.11-.97.281-.97.656 0 .64.954.64 1.157.64.484 0 .844-.124 1-.343C2.5 0 2.843 0 3.22 0c.312 0 .344 0 .344-.172ZM2.327-.656c0 .11 0 .25-.25.344-.203.078-.469.078-.5.078-.36 0-.625-.141-.625-.375 0-.438 1.14-.485 1.375-.485Zm0 0"/></symbol><symbol overflow="visible" id="d"><path style="stroke:none" d="M3.719-1.875v-.344c-.172.016-.328.031-.5.031s-.39-.015-.563-.03v.343h.235L2.109-.391l-.78-1.484h.234v-.344l-.672.031c-.25 0-.375 0-.625-.03v.343h.359l.938 1.766c.046.109.093.156.265.156h.328c.11 0 .188 0 .266-.156l.937-1.766Zm0 0"/></symbol><symbol overflow="visible" id="e"><path style="stroke:none" d="M3.172-.547c0-.125-.125-.125-.203-.125h-.031c-.094 0-.126 0-.172.063-.047.093-.188.343-.72.343-.64 0-.968-.25-1.015-.718H2.97c.11 0 .203 0 .203-.157 0-.296-.11-.625-.328-.812-.235-.203-.531-.313-1.016-.313-1.125 0-1.547.61-1.547 1.141S.703.047 1.921.047c.126 0 .47 0 .782-.125.328-.14.469-.406.469-.469Zm-.516-.687H1.031c.016-.188.016-.766.797-.766.672 0 .813.438.828.766Zm0 0"/></symbol><symbol overflow="visible" id="f"><path style="stroke:none" d="M2.094-.813v-.593H.172v.593Zm0 0"/></symbol><symbol overflow="visible" id="g"><path style="stroke:none" d="M3.594-1.906c0-.188-.156-.39-.453-.39-.11 0-.375.03-.657.202-.28-.156-.609-.156-.796-.156-.954 0-1.22.453-1.22.766 0 .28.188.437.282.515a.634.634 0 0 0-.14.406c0 .204.078.36.171.485-.234.047-.5.172-.5.437 0 .36.516.657 1.61.657.734 0 1.609-.141 1.609-.672 0-.156-.063-.516-.547-.688-.344-.11-.656-.11-1.219-.11h-.28c-.25 0-.298 0-.407-.062a.364.364 0 0 1-.11-.234c0-.063 0-.078.016-.11.235.11.516.141.735.141.953 0 1.218-.469 1.218-.765 0-.25-.172-.422-.203-.454.094-.03.25-.062.328-.078-.015.063-.015.063-.015.11 0 .187.14.297.28.297a.295.295 0 0 0 .298-.297Zm-1.313.422c0 .218-.031.484-.594.484-.546 0-.593-.266-.593-.484 0-.22.031-.485.593-.485.547 0 .594.25.594.485ZM2.97.359c0 .157-.313.375-1.078.375C1.125.734.812.516.812.36c0-.234.407-.234.594-.234h.282c.562 0 1.28 0 1.28.234Zm0 0"/></symbol><symbol overflow="visible" id="h"><path style="stroke:none" d="M3.875 0v-.328h-.36v-1.14c0-.735-.609-.782-.968-.782-.672 0-1 .344-1.125.531v-.531l-.938.031v.344c.313 0 .36 0 .36.188v1.359h-.36V0l.688-.016c.187 0 .469 0 .687.016v-.328H1.5v-.875c0-.61.625-.766.922-.766.328 0 .422.125.422.485v1.156h-.36V0l.704-.016c.171 0 .468 0 .687.016Zm0 0"/></symbol><symbol overflow="visible" id="i"><path style="stroke:none" d="M3.875 0v-.328c-.328 0-.36 0-.36-.203V-2.25l-1.03.031v.344c.328 0 .359 0 .359.188v.906c0 .453-.485.547-.813.547-.531 0-.531-.11-.531-.329V-2.25l-1.016.031v.344c.313 0 .36 0 .36.188v1.093c0 .578.61.64 1.078.64.172 0 .64 0 .969-.327v.328Zm0 0"/></symbol><symbol overflow="visible" id="j"><path style="stroke:none" d="M5.14-1.875v-.344c-.109.016-.265.031-.484.031-.203 0-.406-.015-.593-.03v.343h.296L3.688-.297l-.672-1.578h.265v-.344c-.203.016-.406.031-.61.031-.171 0-.358-.015-.53-.03v.343h.312L1.86-.469 1.25-1.875h.266v-.344l-.672.031c-.188 0-.406-.015-.594-.03v.343h.328l.75 1.766c.063.156.156.156.25.156h.328c.094 0 .188 0 .25-.156l.531-1.266.547 1.266c.063.156.157.156.25.156h.313c.094 0 .203 0 .265-.156l.75-1.766Zm0 0"/></symbol><symbol overflow="visible" id="k"><path style="stroke:none" d="M3.5-1.078c0-.563-.438-1.188-1.61-1.188-1.187 0-1.609.641-1.609 1.188C.281-.547.72.047 1.891.047 3.062.047 3.5-.547 3.5-1.078Zm-.75-.063c0 .407 0 .875-.86.875-.859 0-.859-.468-.859-.875 0-.39 0-.859.86-.859.859 0 .859.469.859.86Zm0 0"/></symbol><symbol overflow="visible" id="l"><path style="stroke:none" d="M1.844 0v-.328h-.36v-3.125L.5-3.422v.344c.328 0 .36 0 .36.187v2.563H.5V0c.234-.016.453-.016.672-.016.016 0 .406 0 .672.016Zm0 0"/></symbol><symbol overflow="visible" id="m"><path style="stroke:none" d="M3.766 0v-.328c-.329 0-.36 0-.36-.203v-2.922l-.984.031v.344c.312 0 .36 0 .36.187v.844c-.204-.11-.5-.203-.891-.203-1.079 0-1.563.563-1.563 1.156 0 .532.422 1.14 1.484 1.14.391 0 .704-.108.922-.25v.25ZM2.734-.656a1.038 1.038 0 0 1-.843.422c-.813 0-.813-.594-.813-.86 0-.265 0-.875.875-.875.219 0 .469.047.688.219.093.078.093.094.093.188Zm0 0"/></symbol></defs><path style="fill:none;stroke-width:.398;stroke-linecap:butt;stroke-linejoin:miter;stroke:#bfbfbf;stroke-opacity:1;stroke-miterlimit:10" d="M0 .001v28.344" transform="matrix(1 0 0 -1 21.348 29.114)"/><path style="fill:none;stroke-width:.398;stroke-linecap:butt;stroke-linejoin:miter;stroke:#bfbfbf;stroke-opacity:1;stroke-miterlimit:10" d="M0-.001h28.347" transform="matrix(1 0 0 -1 21.149 .968)"/><g style="fill:#bfbfbf;fill-opacity:1"><use xlink:href="#a" x=".545" y="16.163"/><use xlink:href="#b" x="4.724" y="16.163"/><use xlink:href="#c" x="7.823" y="16.163"/></g><use xlink:href="#d" x="11.305" y="16.163" style="fill:#bfbfbf;fill-opacity:1"/><g style="fill:#bfbfbf;fill-opacity:1"><use xlink:href="#e" x="15.085" y="16.163"/><use xlink:href="#f" x="18.533" y="16.163"/><use xlink:href="#g" x="21.108" y="16.163"/><use xlink:href="#h" x="24.884" y="16.163"/></g><g style="fill:#bfbfbf;fill-opacity:1"><use xlink:href="#i" x="28.864" y="16.163"/><use xlink:href="#f" x="33.043" y="16.163"/><use xlink:href="#j" x="35.618" y="16.163"/></g><g style="fill:#bfbfbf;fill-opacity:1"><use xlink:href="#k" x="40.804" y="16.163"/><use xlink:href="#b" x="44.58" y="16.163"/><use xlink:href="#l" x="47.678" y="16.163"/><use xlink:href="#m" x="49.85" y="16.163"/><use xlink:href="#f" x="54.029" y="16.163"/><use xlink:href="#l" x="56.605" y="16.163"/><use xlink:href="#k" x="58.777" y="16.163"/><use xlink:href="#g" x="62.552" y="16.163"/><use xlink:href="#k" x="66.328" y="16.163"/></g><path style="fill:none;stroke-width:.398;stroke-linecap:butt;stroke-linejoin:miter;stroke:#bfbfbf;stroke-opacity:1;stroke-miterlimit:10" d="M0 0h28.347" transform="matrix(1 0 0 -1 21.149 28.915)"/><path style="fill:none;stroke-width:.398;stroke-linecap:butt;stroke-linejoin:miter;stroke:#bfbfbf;stroke-opacity:1;stroke-miterlimit:10" d="M0 .001v28.344" transform="matrix(1 0 0 -1 49.296 29.114)"/><path style="fill:none;stroke-width:.398;stroke-linecap:butt;stroke-linejoin:miter;stroke:#bfbfbf;stroke-opacity:1;stroke-miterlimit:10" d="M0-.001v28.348" transform="matrix(1 0 0 -1 21.348 85.808)"/><path style="fill:none;stroke-width:.398;stroke-linecap:butt;stroke-linejoin:miter;stroke:#bfbfbf;stroke-opacity:1;stroke-miterlimit:10" d="M0 0h28.347" transform="matrix(1 0 0 -1 21.149 57.66)"/><g style="fill:#bfbfbf;fill-opacity:1"><use xlink:href="#a" x=".545" y="72.856"/><use xlink:href="#b" x="4.724" y="72.856"/><use xlink:href="#c" x="7.823" y="72.856"/></g><use xlink:href="#d" x="11.305" y="72.856" style="fill:#bfbfbf;fill-opacity:1"/><g style="fill:#bfbfbf;fill-opacity:1"><use xlink:href="#e" x="15.085" y="72.856"/><use xlink:href="#f" x="18.533" y="72.856"/><use xlink:href="#g" x="21.108" y="72.856"/><use xlink:href="#h" x="24.884" y="72.856"/></g><g style="fill:#bfbfbf;fill-opacity:1"><use xlink:href="#i" x="28.864" y="72.856"/><use xlink:href="#f" x="33.043" y="72.856"/><use xlink:href="#j" x="35.618" y="72.856"/></g><g style="fill:#bfbfbf;fill-opacity:1"><use xlink:href="#k" x="40.804" y="72.856"/><use xlink:href="#b" x="44.58" y="72.856"/><use xlink:href="#l" x="47.678" y="72.856"/><use xlink:href="#m" x="49.85" y="72.856"/><use xlink:href="#f" x="54.029" y="72.856"/><use xlink:href="#l" x="56.605" y="72.856"/><use xlink:href="#k" x="58.777" y="72.856"/><use xlink:href="#g" x="62.552" y="72.856"/><use xlink:href="#k" x="66.328" y="72.856"/></g><path style="fill:none;stroke-width:.398;stroke-linecap:butt;stroke-linejoin:miter;stroke:#bfbfbf;stroke-opacity:1;stroke-miterlimit:10" d="M0-.002h28.347" transform="matrix(1 0 0 -1 21.149 85.608)"/><path style="fill:none;stroke-width:.398;stroke-linecap:butt;stroke-linejoin:miter;stroke:#bfbfbf;stroke-opacity:1;stroke-miterlimit:10" d="M0-.001v28.348" transform="matrix(1 0 0 -1 49.296 85.808)"/><path style="fill:none;stroke-width:.398;stroke-linecap:butt;stroke-linejoin:miter;stroke:#bfbfbf;stroke-opacity:1;stroke-miterlimit:10" d="M0 0v28.344" transform="matrix(1 0 0 -1 21.348 142.5)"/><path style="fill:none;stroke-width:.398;stroke-linecap:butt;stroke-linejoin:miter;stroke:#bfbfbf;stroke-opacity:1;stroke-miterlimit:10" d="M0 0h28.347" transform="matrix(1 0 0 -1 21.149 114.353)"/><g style="fill:#bfbfbf;fill-opacity:1"><use xlink:href="#a" x=".545" y="129.549"/><use xlink:href="#b" x="4.724" y="129.549"/><use xlink:href="#c" x="7.823" y="129.549"/></g><use xlink:href="#d" x="11.305" y="129.549" style="fill:#bfbfbf;fill-opacity:1"/><g style="fill:#bfbfbf;fill-opacity:1"><use xlink:href="#e" x="15.085" y="129.549"/><use xlink:href="#f" x="18.533" y="129.549"/><use xlink:href="#g" x="21.108" y="129.549"/><use xlink:href="#h" x="24.884" y="129.549"/></g><g style="fill:#bfbfbf;fill-opacity:1"><use xlink:href="#i" x="28.864" y="129.549"/><use xlink:href="#f" x="33.043" y="129.549"/><use xlink:href="#j" x="35.618" y="129.549"/></g><g style="fill:#bfbfbf;fill-opacity:1"><use xlink:href="#k" x="40.804" y="129.549"/><use xlink:href="#b" x="44.58" y="129.549"/><use xlink:href="#l" x="47.678" y="129.549"/><use xlink:href="#m" x="49.85" y="129.549"/><use xlink:href="#f" x="54.029" y="129.549"/><use xlink:href="#l" x="56.605" y="129.549"/><use xlink:href="#k" x="58.777" y="129.549"/><use xlink:href="#g" x="62.552" y="129.549"/><use xlink:href="#k" x="66.328" y="129.549"/></g><path style="fill:none;stroke-width:.398;stroke-linecap:butt;stroke-linejoin:miter;stroke:#bfbfbf;stroke-opacity:1;stroke-miterlimit:10" d="M0 0h28.347" transform="matrix(1 0 0 -1 21.149 142.3)"/><path style="fill:none;stroke-width:.398;stroke-linecap:butt;stroke-linejoin:miter;stroke:#bfbfbf;stroke-opacity:1;stroke-miterlimit:10" d="M0 0v28.344" transform="matrix(1 0 0 -1 49.296 142.5)"/><path style="fill:none;stroke-width:.3985;stroke-linecap:butt;stroke-linejoin:miter;stroke:#bfbfbf;stroke-opacity:1;stroke-miterlimit:10" d="M28.345 141.733h28.348v28.348H28.345Zm0-56.691h28.348v28.344H28.345Zm0-56.696h28.348v28.348H28.345Zm0 0" transform="matrix(1 0 0 -1 -7.197 170.846)"/></svg>