<svg xmlns="http://www.w3.org/2000/svg" width="84.363" height="84.219" viewBox="0 0 63.272 63.164" version="1.2"><defs><clipPath id="a"><path d="M13 0h49.906v50H13Zm0 0"/></clipPath><clipPath id="b"><path d="M6 0h56.906v56H6Zm0 0"/></clipPath><clipPath id="c"><path d="M1 0h61.906v62H1Zm0 0"/></clipPath><clipPath id="d"><path d="M0 0h62.906v62.746H0Zm0 0"/></clipPath><clipPath id="e"><path d="M0 0h62.906v62.746H0Zm0 0"/></clipPath><clipPath id="f"><path d="M0 0h62v62.746H0Zm0 0"/></clipPath><clipPath id="g"><path d="M0 6h56v56.746H0Zm0 0"/></clipPath></defs><path style="fill-rule:nonzero;fill:#bfbfbf;fill-opacity:1;stroke-width:.3985;stroke-linecap:butt;stroke-linejoin:miter;stroke:#000;stroke-opacity:1;stroke-miterlimit:10" d="m10.915 10.912 2.136 6.524-2.508.44Zm0 0 4.343 5.25-2.207 1.274Zm0 0 5.98 3.297-1.637 1.953Zm0 0 6.851.902-.871 2.395Zm0 0 6.851-1.644v2.546Zm0 0 5.98-4.039.871 2.395Zm0 0 4.343-5.992 1.637 1.953Zm0 0 2.136-7.266 2.207 1.274Zm0 0-.372-7.707 2.508.441Zm0 0L8.032 3.646l2.511-.44Zm0 0L5.825 4.92l2.207-1.274Zm0 0L4.188 6.873 5.825 4.92Zm0 0L3.317 9.268l.87-2.395Zm0 0-7.598.902V9.268Zm0 0L4.188 14.21l-.871-2.395Zm0 0-5.09 5.25-1.637-1.953Zm0 0-2.883 6.524-2.207-1.274Zm0 0-.372 6.965-2.511-.441Zm0 0 2.136 6.524-2.508.44Zm0 0" transform="matrix(1 0 0 -1 31.273 31.166)"/><path style="fill-rule:nonzero;fill:#bfbfbf;fill-opacity:1;stroke-width:.3985;stroke-linecap:butt;stroke-linejoin:miter;stroke:#000;stroke-opacity:1;stroke-miterlimit:10" d="m10.543 17.877 2.508-.441 1.246 5.335-4.847.852Zm2.508-.441 2.207-1.274 3.305 4.149-4.266 2.46Zm2.207-1.274 1.637-1.953 4.832 2.328-3.164 3.774Zm1.637-1.953.871-2.395 5.645.098-1.684 4.625Zm.871-2.395V9.268l5.645-2.278v4.922Zm0-2.546-.871-2.395 4.832-4.508 1.684 4.625Zm-.871-2.395L15.258 4.92l3.305-6.324 3.164 3.77ZM15.258 4.92l-2.207-1.274 1.246-7.515 4.266 2.465Zm-2.207-1.274-2.508-.44L9.45-4.722l4.847.852Zm-2.508-.44-2.511.44-3.43-7.515 4.848-.852Zm-2.511.44L5.825 4.92.34-1.404 4.602-3.87ZM5.825 4.92 4.188 6.873l-7.012-4.508L.34-1.405ZM4.188 6.873l-.871 2.395-7.824-2.278 1.683-4.625Zm-.871 2.395v2.546l-7.824.098V6.99Zm0 2.546.87 2.395-7.01 2.328-1.684-4.625Zm.87 2.395 1.638 1.953L.34 20.311l-3.164-3.774Zm1.638 1.953 2.207 1.274-3.43 5.335-4.262-2.46Zm2.207 1.274 2.511.44-1.093 5.747-4.848-.852Zm2.511.44 2.508-.44 1.246 5.335-4.847.852Zm0 0" transform="matrix(1 0 0 -1 31.273 31.166)"/><path style="stroke:none;fill-rule:nonzero;fill:#bfbfbf;fill-opacity:1" d="m40.723 7.543 4.847.852.274-3.782-6.856-1.207Zm4.847.852 4.266 2.46 2.039-2.761-6.031-3.48Zm4.266 2.46L53 14.63l3.348-1.203-4.473-5.332ZM53 14.63l1.684 4.625 4.046.715-2.382-6.543Zm1.684 4.625v4.922l4.046 2.754v-6.961Zm0 4.922L53 28.8l3.348 4.672 2.382-6.543ZM53 28.8l-3.164 3.77 2.039 6.234 4.473-5.332Zm-3.164 3.77-4.266 2.464.274 7.25 6.031-3.48Zm-4.266 2.464-4.847.852-1.735 7.605 6.856-1.207Zm-4.847.852-4.848-.852-3.742 7.25 6.855 1.207Zm-4.848-.852-4.262-2.465-5.508 6.235 6.028 3.48Zm-4.262-2.465L28.45 28.8l-6.816 4.673 4.472 5.332ZM28.45 28.8l-1.683-4.624-7.516 2.754 2.383 6.543Zm-1.683-4.624v-4.922l-7.516.715v6.96Zm0-4.922 1.683-4.625-6.816-1.203-2.383 6.543Zm1.683-4.625 3.164-3.774-5.508-2.761-4.472 5.332Zm3.164-3.774 4.262-2.46-3.742-3.782-6.028 3.48Zm4.262-2.46 4.848-.852-1.735-4.137-6.855 1.207Zm4.848-.852 4.847.852.274-3.782-6.856-1.207Zm0 0"/><g clip-path="url(#a)"><path style="fill:none;stroke-width:.3985;stroke-linecap:butt;stroke-linejoin:miter;stroke:#000;stroke-opacity:1;stroke-miterlimit:10" d="m9.45 23.623 4.847-.852.274 3.782-6.856 1.207Zm4.847-.852 4.266-2.46 2.039 2.761-6.031 3.48Zm4.266-2.46 3.164-3.774 3.348 1.203-4.473 5.332Zm3.164-3.774 1.684-4.625 4.046-.715-2.382 6.543Zm1.684-4.625V6.99l4.046-2.754v6.961Zm0-4.922-1.684-4.625 3.348-4.672 2.382 6.543Zm-1.684-4.625-3.164-3.77 2.039-6.234 4.473 5.332Zm-3.164-3.77-4.266-2.464.274-7.25 6.031 3.48Zm-4.266-2.464L9.45-4.721l-1.735-7.605 6.856 1.207ZM9.45-4.721l-4.848.852L.86-11.12l6.855-1.207Zm-4.848.852L.34-1.404-5.168-7.64l6.028-3.48ZM.34-1.404l-3.164 3.77-6.816-4.673 4.472-5.332Zm-3.164 3.77L-4.507 6.99l-7.516-2.754 2.383-6.543ZM-4.507 6.99v4.922l-7.516-.715v-6.96Zm0 4.922 1.683 4.625-6.816 1.203-2.383-6.543Zm1.683 4.625L.34 20.311l-5.508 2.761-4.472-5.332ZM.34 20.311l4.262 2.46L.86 26.553l-6.028-3.48Zm4.262 2.46 4.848.852-1.735 4.137L.86 26.553Zm4.848.852 4.847-.852.274 3.782-6.856 1.207Zm0 0" transform="matrix(1 0 0 -1 31.273 31.166)"/></g><path style="stroke:none;fill-rule:nonzero;fill:#bfbfbf;fill-opacity:1" d="m38.988 3.406 6.856 1.207-.719-1.972-8.395-1.48Zm6.856 1.207 6.031 3.48.633-1.19-7.383-4.262Zm6.031 3.48 4.473 5.333 1.64.008-5.48-6.532Zm4.473 5.333 2.382 6.543 2.176 1.476-2.918-8.011Zm2.382 6.543v6.96l2.176 3.044v-8.528Zm0 6.96-2.382 6.544 1.64 4.511 2.918-8.011Zm-2.382 6.544-4.473 5.332.633 5.71 5.48-6.53Zm-4.473 5.332-6.031 3.48-.719 6.492 7.383-4.261Zm-6.031 3.48-6.856 1.207-2.258 6.766 8.395-1.48Zm-6.856 1.207-6.855-1.207-3.801 6.492 8.398 1.48Zm-6.855-1.207-6.028-3.48-5.156 5.71 7.383 4.262Zm-6.028-3.48-4.472-5.332-6.164 4.511 5.48 6.532Zm-4.472-5.332L19.25 26.93l-6.695 3.043 2.914 8.011ZM19.25 26.93v-6.961l-6.695 1.476v8.528Zm0-6.961 2.383-6.543-6.164.008-2.914 8.011Zm2.383-6.543 4.472-5.332-5.156-1.192-5.48 6.532Zm4.472-5.332 6.028-3.48-3.801-1.973-7.383 4.261Zm6.028-3.48 6.855-1.208L36.73 1.16l-8.398 1.48Zm6.855-1.208 6.856 1.207-.719-1.972-8.395-1.48Zm0 0"/><g clip-path="url(#b)"><path style="fill:none;stroke-width:.3985;stroke-linecap:butt;stroke-linejoin:miter;stroke:#000;stroke-opacity:1;stroke-miterlimit:10" d="m7.715 27.76 6.856-1.207-.719 1.972-8.395 1.48Zm6.856-1.207 6.031-3.48.633 1.19-7.383 4.262Zm6.031-3.48 4.473-5.333 1.64-.008-5.48 6.532Zm4.473-5.333 2.382-6.543 2.176-1.476-2.918 8.011Zm2.382-6.543v-6.96l2.176-3.044v8.528Zm0-6.96-2.382-6.544 1.64-4.511 2.918 8.011Zm-2.382-6.544-4.473-5.332.633-5.71 5.48 6.53Zm-4.473-5.332-6.031-3.48-.719-6.492 7.383 4.261Zm-6.031-3.48-6.856-1.207-2.258-6.766 8.395 1.48Zm-6.856-1.207L.86-11.12l-3.801-6.492 8.398-1.48ZM.86-11.12l-6.028 3.48-5.156-5.71 7.383-4.262Zm-6.028 3.48L-9.64-2.307l-6.164-4.511 5.48-6.532ZM-9.64-2.307l-2.383 6.543-6.695-3.043 2.914-8.011Zm-2.383 6.543v6.961l-6.695-1.476V1.193Zm0 6.961 2.383 6.543-6.164-.008-2.914-8.011Zm2.383 6.543 4.472 5.332-5.156 1.192-5.48-6.532Zm4.472 5.332 6.028 3.48-3.801 1.973-7.383-4.261Zm6.028 3.48 6.855 1.208-2.258 2.246-8.398-1.48Zm6.855 1.208 6.856-1.207-.719 1.972-8.395 1.48Zm0 0" transform="matrix(1 0 0 -1 31.273 31.166)"/></g><path style="stroke:none;fill-rule:nonzero;fill:#bfbfbf;fill-opacity:1" d="m36.73 1.16 8.395 1.48-1.664-.027L34.098.961Zm8.395 1.48 7.383 4.262-.809.465-8.238-4.754Zm7.383 4.262 5.48 6.532-.18 1.218L51.7 7.367Zm5.48 6.532 2.918 8.011.157 2.14-3.254-8.933Zm2.918 8.011v8.528l.157 3.125v-9.512Zm0 8.528-2.918 8.011-.18 4.047 3.255-8.933Zm-2.918 8.011-5.48 6.532-.809 4.8 6.11-7.285Zm-5.48 6.532-7.383 4.261-1.664 5.293 8.238-4.754Zm-7.383 4.261-8.395 1.48-2.632 5.466 9.363-1.653Zm-8.395 1.48-8.398-1.48-3.598 5.293 9.364 1.653Zm-8.398-1.48-7.383-4.261-4.453 4.8 8.238 4.754Zm-7.383-4.261-5.48-6.532-5.082 4.047 6.11 7.285Zm-5.48-6.532-2.914-8.011-5.422 3.125 3.254 8.933Zm-2.914-8.011v-8.528l-5.422 2.14v9.513Zm0-8.528 2.914-8.011-5.082 1.218-3.254 8.934Zm2.914-8.011 5.48-6.532-4.453.465-6.11 7.285Zm5.48-6.532 7.383-4.261-3.598-.028-8.238 4.754Zm7.383-4.261 8.398-1.48-2.632-.2-9.364 1.652Zm8.398-1.48 8.395 1.48-1.664-.028L34.098.961Zm0 0"/><g clip-path="url(#c)"><path style="fill:none;stroke-width:.3985;stroke-linecap:butt;stroke-linejoin:miter;stroke:#000;stroke-opacity:1;stroke-miterlimit:10" d="m5.457 30.006 8.395-1.48-1.664.027-9.363 1.652Zm8.395-1.48 7.383-4.262-.809-.465-8.238 4.754Zm7.383-4.262 5.48-6.532-.18-1.218-6.109 7.285Zm5.48-6.532 2.918-8.011.157-2.14-3.254 8.933Zm2.918-8.011V1.193l.157-3.125V7.58Zm0-8.528-2.918-8.011-.18-4.047 3.255 8.933Zm-2.918-8.011-5.48-6.532-.809-4.8 6.11 7.285Zm-5.48-6.532-7.383-4.261-1.664-5.293 8.238 4.754Zm-7.383-4.261-8.395-1.48-2.632-5.466 9.363 1.653Zm-8.395-1.48-8.398 1.48-3.598-5.293 9.364-1.653Zm-8.398 1.48-7.383 4.261-4.453-4.8 8.238-4.754Zm-7.383 4.261-5.48 6.532-5.082-4.047 6.11-7.285Zm-5.48 6.532-2.914 8.011-5.422-3.125 3.254-8.933Zm-2.914 8.011v8.528l-5.422-2.14v-9.513Zm0 8.528 2.914 8.011-5.082-1.218-3.254-8.934Zm2.914 8.011 5.48 6.532-4.453-.465-6.11-7.285Zm5.48 6.532 7.383 4.261-3.598.028-8.238-4.754Zm7.383 4.261 8.398 1.48-2.632.2-9.364-1.652Zm8.398 1.48 8.395-1.48-1.664.028-9.363 1.652Zm0 0" transform="matrix(1 0 0 -1 31.273 31.166)"/></g><path style="stroke:none;fill-rule:nonzero;fill:#bfbfbf;fill-opacity:1" d="m34.098.96 9.363 1.653-2.492 1.914-9.696-1.707Zm9.363 1.653 8.238 4.754-2.207 2.086-8.523-4.926Zm8.238 4.754 6.11 7.285-1.989 2.34-6.328-7.539Zm6.11 7.285 3.254 8.934-1.876 2.656-3.367-9.25Zm3.254 8.934v9.512l-1.876 2.992v-9.848Zm0 9.512-3.254 8.933-1.989 3.309 3.367-9.25Zm-3.254 8.933-6.11 7.285-2.207 3.563 6.328-7.54Zm-6.11 7.285-8.238 4.754-2.492 3.735 8.523-4.926Zm-8.238 4.754-9.363 1.653-2.825 3.789 9.696-1.707Zm-9.363 1.653-9.364-1.653-3.156 3.735 9.695 1.707Zm-9.364-1.653-8.238-4.754-3.445 3.563 8.527 4.926Zm-8.238-4.754-6.11-7.285-3.663 3.309 6.328 7.539Zm-6.11-7.285-3.253-8.933-3.778 2.992 3.368 9.25Zm-3.253-8.933v-9.512l-3.778 2.656v9.848Zm0-9.512 3.254-8.934-3.664 2.34-3.368 9.25Zm3.254-8.934 6.11-7.285-3.446 2.086-6.328 7.54Zm6.11-7.285 8.237-4.754-3.156 1.914-8.527 4.926Zm8.237-4.754L34.098.961l-2.825 1.86-9.695 1.706ZM34.098.961l9.363 1.652-2.492 1.914-9.696-1.707Zm0 0"/><g clip-path="url(#d)"><path style="fill:none;stroke-width:.3985;stroke-linecap:butt;stroke-linejoin:miter;stroke:#000;stroke-opacity:1;stroke-miterlimit:10" d="m2.825 30.205 9.363-1.652-2.492-1.914L0 28.346Zm9.363-1.652 8.238-4.754-2.207-2.086-8.523 4.926Zm8.238-4.754 6.11-7.285-1.989-2.34-6.328 7.539Zm6.11-7.285 3.253-8.934-1.875-2.656-3.367 9.25Zm3.253-8.934v-9.512l-1.875-2.992v9.848Zm0-9.512-3.253-8.933-1.989-3.309 3.367 9.25Zm-3.253-8.933-6.11-7.285-2.207-3.563 6.328 7.54Zm-6.11-7.285-8.238-4.754-2.492-3.735 8.523 4.926Zm-8.238-4.754-9.363-1.653L0-28.346l9.696 1.707Zm-9.363-1.653-9.364 1.653-3.156-3.735L0-28.346Zm-9.364 1.653-8.238 4.754-3.445-3.563 8.527-4.926Zm-8.238 4.754-6.11 7.285-3.663-3.309 6.328-7.539Zm-6.11 7.285-3.253 8.933-3.778-2.992 3.368-9.25Zm-3.253 8.933V7.58l-3.778-2.656v-9.848Zm0 9.512 3.254 8.934-3.664-2.34-3.368-9.25Zm3.254 8.934 6.11 7.285-3.446-2.086-6.328-7.54Zm6.11 7.285 8.237 4.754-3.156-1.914-8.527-4.926Zm8.237 4.754 9.364 1.652L0 28.345l-9.695-1.706Zm9.364 1.652 9.363-1.652-2.492-1.914L0 28.346Zm0 0" transform="matrix(1 0 0 -1 31.273 31.166)"/></g><path style="stroke:none;fill-rule:nonzero;fill:#bfbfbf;fill-opacity:1" d="m31.273 2.82 9.696 1.707-3.157 3.735-9.363-1.653Zm9.696 1.707 8.523 4.926-3.445 3.563-8.234-4.754Zm8.523 4.926 6.328 7.54-3.66 3.308-6.113-7.285Zm6.328 7.54 3.367 9.25-3.773 2.991-3.254-8.933Zm3.367 9.25v9.847l-3.773 2.656v-9.512Zm0 9.847-3.367 9.25-3.66 2.34 3.254-8.934Zm-3.367 9.25-6.328 7.539-3.445 2.086 6.113-7.285Zm-6.328 7.539-8.523 4.926-3.157 1.914 8.235-4.754Zm-8.523 4.926-9.696 1.707-2.824 1.86 9.363-1.653Zm-9.696 1.707-9.695-1.707-2.496 1.914 9.367 1.652Zm-9.695-1.707-8.527-4.926-2.203 2.086 8.234 4.754Zm-8.527-4.926-6.328-7.54-1.989 2.34 6.114 7.286Zm-6.328-7.54-3.368-9.25-1.87 2.657 3.25 8.934Zm-3.368-9.25v-9.847l-1.87 2.992v9.512Zm0-9.847 3.368-9.25-1.989 3.309-3.25 8.933Zm3.368-9.25 6.328-7.539-2.203 3.563L4.734 20.3Zm6.328-7.539 8.527-4.926-2.496 3.735-8.234 4.754Zm8.527-4.926 9.695-1.707-2.824 3.79-9.367 1.652Zm9.695-1.707 9.696 1.707-3.157 3.735-9.363-1.653Zm0 0"/><g clip-path="url(#e)"><path style="fill:none;stroke-width:.3985;stroke-linecap:butt;stroke-linejoin:miter;stroke:#000;stroke-opacity:1;stroke-miterlimit:10" d="m0 28.346 9.696-1.707-3.156-3.735-9.364 1.653Zm9.696-1.707 8.523-4.926-3.445-3.563-8.234 4.754Zm8.523-4.926 6.328-7.54-3.66-3.308-6.113 7.285Zm6.328-7.54 3.367-9.25-3.773-2.991-3.254 8.933Zm3.367-9.25v-9.847L24.142-7.58v9.512Zm0-9.847-3.367-9.25-3.66-2.34 3.254 8.934Zm-3.367-9.25-6.328-7.539-3.445-2.086 6.113 7.285Zm-6.328-7.539-8.523-4.926-3.156-1.914 8.234 4.754Zm-8.523-4.926L0-28.346l-2.824-1.86 9.364 1.653ZM0-28.346l-9.695 1.707-2.496-1.914 9.367-1.652Zm-9.695 1.707-8.527 4.926-2.203-2.086 8.234-4.754Zm-8.527 4.926-6.328 7.54-1.989-2.34 6.114-7.286Zm-6.328 7.54-3.368 9.25-1.87-2.657 3.25-8.934Zm-3.368 9.25v9.847l-1.87-2.992V-7.58Zm0 9.847 3.368 9.25-1.989-3.309-3.25-8.933Zm3.368 9.25 6.328 7.539-2.203-3.563-6.114-7.285Zm6.328 7.539 8.527 4.926-2.496-3.735-8.234-4.754Zm8.527 4.926L0 28.346l-2.824-3.79-9.367-1.652ZM0 28.346l9.696-1.707-3.156-3.735-9.364 1.653Zm0 0" transform="matrix(1 0 0 -1 31.273 31.166)"/></g><path style="stroke:none;fill-rule:nonzero;fill:#bfbfbf;fill-opacity:1" d="m28.45 6.61 9.363 1.652-3.602 5.293-8.395-1.48Zm9.363 1.652 8.234 4.754-4.45 4.8-7.386-4.261Zm8.234 4.754L52.16 20.3l-5.082 4.047-5.48-6.532ZM52.16 20.3l3.254 8.933-5.422 3.125-2.914-8.011Zm3.254 8.933v9.512l-5.422 2.14V32.36Zm0 9.512L52.16 47.68l-5.082 1.218 2.914-8.011ZM52.16 47.68l-6.113 7.285-4.45.465 5.481-6.532Zm-6.113 7.285-8.234 4.754-3.602-.028 7.387-4.261Zm-8.234 4.754-9.364 1.652-2.633-.2 8.395-1.48Zm-9.364 1.652-9.367-1.652-1.664-.028 8.398 1.48Zm-9.367-1.652-8.234-4.754-.813.465 7.383 4.261Zm-8.234-4.754L4.734 47.68l-.18 1.218 5.481 6.532ZM4.734 47.68l-3.25-8.934.157 2.14 2.914 8.012Zm-3.25-8.934v-9.512l.157 3.125v8.528Zm0-9.512 3.25-8.933-.18 4.047-2.913 8.011Zm3.25-8.933 6.114-7.285-.813 4.8-5.48 6.532Zm6.114-7.285 8.234-4.754-1.664 5.293-7.383 4.261Zm8.234-4.754 9.367-1.653-2.633 5.465-8.398 1.48Zm9.367-1.653 9.363 1.653-3.601 5.293-8.395-1.48Zm0 0"/><g clip-path="url(#f)"><path style="fill:none;stroke-width:.3985;stroke-linecap:butt;stroke-linejoin:miter;stroke:#000;stroke-opacity:1;stroke-miterlimit:10" d="m-2.824 24.557 9.364-1.653-3.602-5.293-8.395 1.48Zm9.364-1.653 8.234-4.754-4.45-4.8-7.386 4.261Zm8.234-4.754 6.113-7.285-5.082-4.047-5.48 6.532Zm6.113-7.285 3.254-8.933-5.422-3.125-2.914 8.011Zm3.254-8.933V-7.58L18.72-9.72v8.527Zm0-9.512-3.254-8.934-5.082-1.218 2.914 8.011Zm-3.254-8.934-6.113-7.285-4.45-.465 5.481 6.532Zm-6.113-7.285L6.54-28.553l-3.602.028 7.387 4.261ZM6.54-28.553l-9.364-1.652-2.633.2 8.395 1.48Zm-9.364-1.652-9.367 1.652-1.664.028 8.398-1.48Zm-9.367 1.652-8.234 4.754-.813-.465 7.383-4.261Zm-8.234 4.754-6.114 7.285-.18-1.218 5.481-6.532Zm-6.114 7.285-3.25 8.934.157-2.14 2.914-8.012Zm-3.25 8.934v9.512l.157-3.125v-8.528Zm0 9.512 3.25 8.933-.18-4.047-2.913-8.011Zm3.25 8.933 6.114 7.285-.813-4.8-5.48-6.532Zm6.114 7.285 8.234 4.754-1.664-5.293-7.383-4.261Zm8.234 4.754 9.367 1.653-2.633-5.465-8.398-1.48Zm9.367 1.653 9.364-1.653-3.602-5.293-8.395 1.48Zm0 0" transform="matrix(1 0 0 -1 31.273 31.166)"/></g><path style="stroke:none;fill-rule:nonzero;fill:#bfbfbf;fill-opacity:1" d="m25.816 12.074 8.395 1.48-3.8 6.493-6.856-1.207Zm8.395 1.48 7.387 4.262-5.157 5.711-6.03-3.48Zm7.387 4.262 5.48 6.532-6.164 4.511-4.473-5.332Zm5.48 6.532 2.914 8.011-6.695 3.043-2.383-6.543Zm2.914 8.011v8.528l-6.695 1.476v-6.96Zm0 8.528-2.914 8.011-6.164.008 2.383-6.543Zm-2.914 8.011-5.48 6.532-5.157-1.192 4.473-5.332Zm-5.48 6.532L34.21 59.69l-3.8-1.972 6.03-3.48ZM34.21 59.69l-8.395 1.48-2.261-2.245 6.855-1.207Zm-8.395 1.48-8.398-1.48-.719-1.972 6.856 1.207Zm-8.398-1.48-7.383-4.261.637-1.192 6.027 3.48Zm-7.383-4.261-5.48-6.532 1.64.008 4.477 5.332Zm-5.48-6.532L1.64 40.887l2.175 1.476 2.38 6.543ZM1.64 40.887v-8.528l2.175 3.043v6.961Zm0-8.528 2.914-8.011 1.64 4.511-2.379 6.543Zm2.914-8.011 5.48-6.532.637 5.711-4.477 5.332Zm5.48-6.532 7.383-4.261-.719 6.492-6.027 3.48Zm7.383-4.261 8.398-1.48-2.261 6.765-6.856 1.207Zm8.398-1.48 8.395 1.48-3.8 6.492-6.856-1.207Zm0 0"/><g clip-path="url(#g)"><path style="fill:none;stroke-width:.3985;stroke-linecap:butt;stroke-linejoin:miter;stroke:#000;stroke-opacity:1;stroke-miterlimit:10" d="m-5.457 19.092 8.395-1.48-3.8-6.493-6.856 1.207Zm8.395-1.48 7.387-4.262-5.157-5.711-6.03 3.48Zm7.387-4.262 5.48-6.532-6.164-4.511-4.473 5.332Zm5.48-6.532 2.914-8.011-6.695-3.043L9.64 2.307Zm2.914-8.011v-8.528l-6.695-1.476v6.96Zm0-8.528-2.914-8.011-6.164-.008 2.383 6.543Zm-2.914-8.011-5.48-6.532-5.157 1.192 4.473 5.332Zm-5.48-6.532-7.387-4.261-3.8 1.972 6.03 3.48Zm-7.387-4.261-8.395-1.48-2.261 2.245 6.855 1.207Zm-8.395-1.48-8.398 1.48-.719 1.972 6.856-1.207Zm-8.398 1.48-7.383 4.261.637 1.192 6.027-3.48Zm-7.383 4.261-5.48 6.532 1.64-.008 4.477-5.332Zm-5.48 6.532-2.914 8.011 2.175-1.476 2.38-6.543Zm-2.914 8.011v8.528l2.175-3.043v-6.961Zm0 8.528 2.914 8.011 1.64-4.511-2.379-6.543Zm2.914 8.011 5.48 6.532.637-5.711-4.477-5.332Zm5.48 6.532 7.383 4.261-.719-6.492-6.027-3.48Zm7.383 4.261 8.398 1.48-2.261-6.765-6.856-1.207Zm8.398 1.48 8.395-1.48-3.8-6.492-6.856 1.207Zm0 0" transform="matrix(1 0 0 -1 31.273 31.166)"/></g></svg>