<svg xmlns="http://www.w3.org/2000/svg" width="151.179" height="159.939" viewBox="0 0 113.384 119.954" version="1.2"><defs><clipPath id="a"><path d="M32 14h81.074v92H32Zm0 0"/></clipPath><clipPath id="b"><path d="M0 39h81v80.93H0Zm0 0"/></clipPath></defs><path style="stroke:none;fill-rule:nonzero;fill:red;fill-opacity:.5" d="M111.66 59.957c0-18.785-15.23-34.016-34.015-34.016-18.79 0-34.016 15.23-34.016 34.016 0 18.79 15.226 34.016 34.016 34.016 18.785 0 34.015-15.227 34.015-34.016Zm0 0"/><g clip-path="url(#a)"><path style="fill:none;stroke-width:.79701;stroke-linecap:butt;stroke-linejoin:miter;stroke:#000;stroke-opacity:1;stroke-miterlimit:10" d="M62.363.001c0 18.785-15.23 34.016-34.015 34.016C9.558 34.017-5.668 18.787-5.668 0c0-18.79 15.226-34.016 34.016-34.016 18.785 0 34.015 15.227 34.015 34.016Zm0 0" transform="matrix(1 0 0 -1 49.297 59.958)"/></g><path style="fill-rule:nonzero;fill:#0f0;fill-opacity:.5;stroke-width:.79701;stroke-linecap:butt;stroke-linejoin:miter;stroke:#000;stroke-opacity:1;stroke-miterlimit:10" d="M19.844 24.548c0 18.789-15.23 34.015-34.016 34.015-18.79 0-34.016-15.226-34.016-34.015 0-18.785 15.227-34.016 34.016-34.016 18.785 0 34.016 15.23 34.016 34.016Zm0 0" transform="matrix(1 0 0 -1 49.297 59.958)"/><path style="stroke:none;fill-rule:nonzero;fill:#00f;fill-opacity:.5" d="M69.14 84.508c0-18.79-15.23-34.016-34.015-34.016-18.79 0-34.016 15.227-34.016 34.016 0 18.785 15.227 34.015 34.016 34.015 18.785 0 34.016-15.23 34.016-34.015Zm0 0"/><g clip-path="url(#b)"><path style="fill:none;stroke-width:.79701;stroke-linecap:butt;stroke-linejoin:miter;stroke:#000;stroke-opacity:1;stroke-miterlimit:10" d="M19.844-24.55c0 18.79-15.23 34.016-34.016 34.016-18.79 0-34.016-15.227-34.016-34.016 0-18.785 15.227-34.015 34.016-34.015 18.785 0 34.016 15.23 34.016 34.015Zm0 0" transform="matrix(1 0 0 -1 49.297 59.958)"/></g></svg>