<svg xmlns="http://www.w3.org/2000/svg" xmlns:xlink="http://www.w3.org/1999/xlink" width="107.559" height="120.363" viewBox="0 0 80.669 90.272" version="1.2"><defs><symbol overflow="visible" id="b"><path style="stroke:none" d="M5.281-3.188c0-.953-.015-3.343-2.422-3.343C.453-6.531.453-4.156.453-3.188c0 1 0 3.297 2.406 3.297 2.391 0 2.422-2.296 2.422-3.296ZM4-3.296c0 .563 0 1.469-.078 1.985-.14.921-.766 1.062-1.063 1.062-.359 0-.921-.219-1.046-.953-.094-.516-.094-1.547-.094-2.094 0-.719 0-1.375.078-1.89.125-.891.828-.985 1.062-.985.375 0 .782.188.97.625C4-5.172 4-4.109 4-3.297Zm0 0"/></symbol><symbol overflow="visible" id="c"><path style="stroke:none" d="M5.156-2.219h-.468c-.032.203-.125.844-.266.906-.11.063-.86.063-1.016.063H1.937c.47-.39 1-.813 1.438-1.14 1.14-.844 1.781-1.313 1.781-2.25 0-1.157-1.047-1.891-2.437-1.891-1.219 0-2.156.625-2.156 1.515 0 .594.484.735.718.735C1.61-4.281 2-4.5 2-5c0-.516-.422-.672-.563-.719.282-.234.672-.343 1.032-.343.844 0 1.312.671 1.312 1.421 0 .688-.375 1.375-1.078 2.079l-2 2.046c-.14.11-.14.141-.14.344V0h4.28Zm0 0"/></symbol><symbol overflow="visible" id="d"><path style="stroke:none" d="M5.406 0v-.469h-.968v-1.094h.968v-.468h-.968V-6.22c0-.265-.016-.328-.297-.328-.22 0-.22.016-.344.172L.312-2.031v.469h2.876V-.47h-1.11V0c.375-.031 1.281-.031 1.703-.031.406 0 1.266 0 1.625.031Zm-2.11-2.031H.845L3.297-5.11Zm0 0"/></symbol><symbol overflow="visible" id="e"><path style="stroke:none" d="M5.25-2.047c0-1.39-1.016-2.125-2.219-2.125-.219 0-.781 0-1.203.766v-.188c0-1.14.219-1.562.281-1.719.25-.468.782-.828 1.391-.828.172 0 .516.032.75.266a.595.595 0 0 0-.547.61c0 .343.235.624.625.624s.625-.265.625-.64c0-.625-.422-1.25-1.469-1.25-1.359 0-3 .86-3 3.375 0 .781.079 1.578.5 2.265.47.766 1.22 1 1.922 1C4.281.11 5.25-.703 5.25-2.047Zm-1.36-.015c0 1 0 1.75-1.015 1.75-.516 0-.781-.391-.86-.563-.156-.313-.156-1.031-.156-1.219 0-1.25.532-1.719 1.079-1.719.953 0 .953.75.953 1.75Zm0 0"/></symbol><symbol overflow="visible" id="f"><path style="stroke:none" d="M5.25-1.86c0-1.077-.844-1.546-1.328-1.827.687-.36 1-.797 1-1.376 0-1.015-.906-1.468-2.047-1.468-1.375 0-2.078.797-2.078 1.75 0 .437.187 1.062.953 1.5C.922-2.906.484-2.344.484-1.61.484-.406 1.563.109 2.844.109 4.438.11 5.25-.766 5.25-1.859ZM4.172-5.046c0 .484-.25.813-.688 1.11l-1.5-.844c-.156-.078-.437-.25-.437-.594 0-.703.89-.766 1.297-.766.828 0 1.328.407 1.328 1.094Zm.219 3.734c0 .829-.938 1-1.516 1-.969 0-1.547-.515-1.547-1.296 0-.766.531-1.204.89-1.407l1.36.766c.438.25.813.453.813.938Zm0 0"/></symbol><symbol overflow="visible" id="g"><path style="stroke:none" d="M7.39-3.61c-.062-.937-.234-3.328-3.687-3.124C.234-6.547.375-4.172.438-3.22.5-2.219.655.078 4.124-.109c3.438-.188 3.328-2.5 3.266-3.5Zm-1.859 0c.047.563.094 1.47.032 1.985C5.421-.687 4.546-.5 4.109-.469c-.515.016-1.328-.156-1.562-.875-.172-.515-.25-1.547-.281-2.093-.047-.704-.094-1.36 0-1.876.109-.906 1.109-1.046 1.453-1.062.531-.031 1.125.125 1.437.547.25.36.328 1.422.375 2.219Zm0 0"/></symbol><symbol overflow="visible" id="h"><path style="stroke:none" d="M6.938.625 6.39.391c-.125.171-.47.718-.657.703-.156-.016-1.03-.39-1.234-.485L2.766-.156c.718-.11 1.484-.219 2.156-.297C6.594-.641 7.516-.734 7.89-1.61c.453-1.063-.485-2.266-2.141-3-1.438-.625-2.781-.532-3.125.28-.234.548.281.938.563 1.063.39.172.921.157 1.124-.312.204-.469-.218-.813-.375-.938.422-.078.907.032 1.329.22C6.28-3.86 6.578-3 6.28-2.313c-.265.64-1 1.078-2.093 1.359L1.03-.11C.828-.08.813-.047.734.14L.672.297l5.047 2.219Zm0 0"/></symbol><symbol overflow="visible" id="i"><path style="stroke:none" d="M7.469-.203c.36-.875 1.297-3.078-1.547-4.328-2.828-1.25-3.766.937-4.14 1.828C1.39-1.781.5.328 3.327 1.578c2.828 1.25 3.75-.86 4.14-1.781ZM6-.953C5.781-.438 5.437.39 5.156.844c-.531.765-1.328.562-1.687.406-.422-.188-1-.688-.86-1.422.094-.516.5-1.469.704-1.969.28-.671.546-1.265.828-1.703.515-.75 1.359-.484 1.64-.36.438.204.844.579.89 1.079.063.438-.343 1.422-.671 2.172Zm0 0"/></symbol><symbol overflow="visible" id="j"><path style="stroke:none" d="m3.36 3.281.328-.344-.61-.593.766-.781.61.593.312-.328-.61-.594L7.078-1.78c.188-.188.219-.25.047-.422-.125-.125-.156-.11-.328-.078L1.609-1.25l-.312.328L3.078.813l-.765.78-.704-.687-.328.344c.25.219.813.766 1.078 1.031.25.235.782.766 1 1ZM3.452.547l-1.531-1.5 3.687-.719Zm0 0"/></symbol><symbol overflow="visible" id="k"><path style="stroke:none" d="M5.5.906c.656-.672 2.313-2.406.828-3.86-1.5-1.468-3.156.235-3.828.923-.703.719-2.297 2.375-.797 3.844C3.172 3.25 4.797 1.625 5.5.905Zm-.719-.86C4.391.454 3.75 1.11 3.344 1.438c-.735.579-1.219.297-1.39.125-.235-.218-.423-.734.015-1.312.312-.438 1.015-1.172 1.406-1.578.5-.516.953-.984 1.36-1.297.702-.563 1.187-.234 1.343-.078.219.219.344.61.156 1.031-.156.375-.89 1.14-1.453 1.719Zm0 0"/></symbol><symbol overflow="visible" id="l"><path style="stroke:none" d="M3.11-.266c.828-1.125.921-1.953.468-2.28-.078-.048-.265-.204-.875.296l.11-.156c.687-.906 1.015-1.188 1.124-1.297.36-.328.766-.453.985-.297.078.047.172.156.125.406-.156-.047-.39.094-.563.328-.203.282-.296.594-.156.688.14.094.39-.047.625-.344.36-.5.578-1.125.203-1.406-.5-.36-1.61-.094-3.11 1.922-.452.625-.905 1.281-1.155 1.937C.594.281.734.671.984.86c.5.36 1.329-.046 2.125-1.125Zm-.454-.359C2.062.172 1.61.781 1.234.515c-.187-.14-.062-.53.016-.687.125-.297.563-.875.672-1.031.75-1 1.234-1.219 1.422-1.094.36.266-.094.875-.688 1.672Zm0 0"/></symbol><symbol overflow="visible" id="m"><path style="stroke:none" d="M3.813-1.172c.562-.766 1.984-2.687 1.109-3.328-.86-.625-2.266 1.281-2.844 2.063C1.468-1.625.11.219.968.842c.876.641 2.235-1.202 2.845-2.015Zm-.391-.406C3.078-1.125 2.547-.406 2.203 0c-.594.688-.89.64-1.015.547C1.063.453.984.14 1.375-.484c.281-.438.89-1.266 1.219-1.704.422-.578.812-1.109 1.156-1.5.563-.687.89-.578.969-.515.14.11.156.36-.016.766-.172.343-.797 1.203-1.281 1.859Zm0 0"/></symbol><symbol overflow="visible" id="n"><path style="stroke:none" d="M2.984-1.578c.125-1.078-.265-1.578-.5-1.89.422-.313.625-.735.688-1.313.11-1.016-.328-1.5-.906-1.547-.75-.078-1.204.672-1.313 1.625-.047.437-.031 1.047.344 1.531-.484.328-.781.875-.875 1.61C.297-.375.812.188 1.5.25c.844.094 1.36-.75 1.484-1.828Zm-.203-3.219c-.062.484-.234.797-.5 1.078l-.687-.922c-.094-.093-.203-.28-.172-.625.078-.703.562-.718.766-.703.437.047.671.485.593 1.172ZM2.47-1.063c-.094.813-.61.922-.89.907C1.046-.22.812-.766.89-1.531c.093-.766.421-1.172.625-1.36l.625.844c.203.266.39.5.328.985Zm0 0"/></symbol><symbol overflow="visible" id="o"><path style="stroke:none" d="M3.156-2.906c.094-.938.36-3.313-.906-3.438C.969-6.454.687-4.109.594-3.156.469-2.156.234.14 1.516.25 2.78.375 3.03-1.906 3.156-2.906Zm-.672-.172c-.062.562-.156 1.469-.265 1.984-.156.907-.516 1-.656.985-.188-.016-.485-.266-.454-1 0-.5.11-1.532.172-2.079.078-.703.157-1.359.266-1.874.156-.891.547-.938.672-.938.172.031.36.234.422.688.062.375-.063 1.437-.157 2.234Zm0 0"/></symbol><clipPath id="a"><path d="M8 0h66v89.906H8Zm0 0"/></clipPath></defs><g clip-path="url(#a)"><path style="fill:none;stroke-width:.19925;stroke-linecap:butt;stroke-linejoin:miter;stroke:gray;stroke-opacity:1;stroke-miterlimit:10" d="M0 26.804c.801-.027 1.235-.082 1.356-.11-.012.005-.012.005.125-.073.351-.239.96-.707 1.847-1.465 1.16-1.078 2.598-2.488 4.329-4.215a198.605 198.605 0 0 1 7.226-6.805 103.475 103.475 0 0 1 11.195-7.914c4.747-2.39 9.958-4.449 15.543-6.054C47.477-.922 53.52-1.47 59.672-1.481M0 36.77c1.641-.066 3.032-.25 4.098-.496.89-.3 1.727-.676 2.59-1.16.957-.64 2.047-1.477 3.285-2.54 1.398-1.296 2.969-2.831 4.727-4.585 1.968-1.95 4.18-4.063 6.675-6.293 2.817-2.297 6-4.586 9.575-6.781 3.964-2 8.3-3.711 12.96-5.051 4.922-.918 10.055-1.379 15.364-1.387M0 46.73c2.485-.101 4.829-.41 6.84-.879a30.405 30.405 0 0 0 5.055-2.242c1.566-1.043 3.133-2.246 4.726-3.613 1.637-1.52 3.336-3.18 5.122-4.957a167.608 167.608 0 0 1 6.12-5.79 73.908 73.908 0 0 1 7.958-5.644 59.661 59.661 0 0 1 10.383-4.047c3.984-.742 8.21-1.125 12.671-1.129M0 56.695c3.325-.137 6.625-.578 9.582-1.266 2.7-.918 5.2-2.035 7.52-3.328a63.608 63.608 0 0 0 6.164-4.683 215.38 215.38 0 0 0 5.516-5.332 151.46 151.46 0 0 1 5.574-5.278 57.904 57.904 0 0 1 6.336-4.512 44.239 44.239 0 0 1 7.804-3.043c3.047-.566 6.368-.867 9.977-.87M0 66.655c4.164-.172 8.422-.738 12.32-1.653a59.84 59.84 0 0 0 9.989-4.41 79.444 79.444 0 0 0 7.605-5.754 225.036 225.036 0 0 0 5.91-5.707 135.34 135.34 0 0 1 5.02-4.765 43.328 43.328 0 0 1 4.715-3.38 29.55 29.55 0 0 1 5.227-2.038c2.113-.395 4.523-.61 7.289-.613M0 76.62c5.004-.211 10.223-.907 15.063-2.04a74.937 74.937 0 0 0 12.453-5.495 93.072 93.072 0 0 0 9.043-6.829 230.278 230.278 0 0 0 6.309-6.078c1.664-1.648 3.148-3.07 4.468-4.254 1.164-.953 2.188-1.691 3.094-2.25.84-.421 1.691-.757 2.648-1.035 1.176-.215 2.68-.347 4.598-.347M0 86.573a97.801 97.801 0 0 0 17.805-2.421c5.414-1.836 10.406-4.07 14.91-6.582A108.088 108.088 0 0 0 43.2 69.67a246.513 246.513 0 0 0 6.699-6.453c1.59-1.574 2.894-2.82 3.922-3.746.75-.613 1.234-.96 1.476-1.113.059-.031.04-.023.07-.031.243-.043.837-.094 1.907-.094M0 26.804V86.582m1.356-59.887c.683 2.394 1.37 4.789 2.055 7.184.687 2.394 1.37 4.789 2.058 7.183.684 2.395 1.371 4.79 2.055 7.184.687 2.394 1.37 4.789 2.058 7.183.684 2.395 1.371 4.785 2.055 7.18.688 2.395 1.371 4.789 2.059 7.184.683 2.394 1.37 4.789 2.054 7.183.688 2.395 1.371 4.79 2.059 7.184M1.481 26.62c1.3 2.122 2.605 4.247 3.906 6.372 1.3 2.12 2.602 4.246 3.906 6.367l3.903 6.371c1.304 2.125 2.605 4.246 3.906 6.371 1.3 2.121 2.605 4.246 3.906 6.367 1.301 2.125 2.602 4.246 3.906 6.371l3.903 6.372c1.304 2.12 2.605 4.246 3.906 6.367M3.328 25.156c1.66 1.851 3.32 3.707 4.985 5.562 1.66 1.856 3.324 3.711 4.984 5.567 1.66 1.855 3.324 3.71 4.985 5.566 1.664 1.856 3.324 3.711 4.984 5.567 1.664 1.855 3.324 3.71 4.984 5.566l4.989 5.562c1.66 1.856 3.32 3.711 4.984 5.567 1.66 1.855 3.324 3.71 4.984 5.566M7.657 20.941c1.761 1.762 3.523 3.523 5.28 5.285 1.763 1.762 3.524 3.524 5.282 5.285 1.762 1.762 3.524 3.528 5.281 5.29 1.762 1.761 3.524 3.523 5.282 5.285 1.761 1.761 3.523 3.523 5.28 5.285a6731.37 6731.37 0 0 1 5.282 5.285c1.762 1.762 3.524 3.523 5.281 5.285 1.762 1.762 3.524 3.523 5.282 5.285m-35.024-49.09c1.625 1.887 3.246 3.778 4.867 5.668 1.625 1.89 3.246 3.778 4.868 5.668l4.87 5.668c1.622 1.89 3.243 3.778 4.868 5.668 1.62 1.89 3.246 3.778 4.867 5.668 1.621 1.89 3.246 3.781 4.867 5.668 1.625 1.89 3.246 3.781 4.867 5.668 1.625 1.89 3.246 3.781 4.871 5.668M26.078 6.222c1.22 2.176 2.438 4.348 3.653 6.52 1.219 2.172 2.437 4.344 3.652 6.52l3.656 6.515a5461.13 5461.13 0 0 0 3.653 6.52c1.215 2.171 2.433 4.343 3.652 6.515 1.215 2.176 2.434 4.348 3.652 6.52 1.22 2.172 2.434 4.343 3.653 6.52 1.219 2.171 2.433 4.343 3.652 6.515M41.621.167c.57 2.422 1.145 4.848 1.72 7.27.57 2.426 1.144 4.848 1.718 7.274.57 2.421 1.145 4.847 1.719 7.27.57 2.425 1.144 4.847 1.718 7.272.57 2.422 1.145 4.848 1.72 7.27.57 2.426 1.144 4.848 1.714 7.27.574 2.425 1.148 4.847 1.719 7.273a4894.46 4894.46 0 0 1 1.719 7.27m4.285-59.817c-.098 2.488-.2 4.977-.297 7.465-.102 2.488-.2 4.977-.297 7.469-.102 2.488-.2 4.976-.3 7.465-.098 2.488-.196 4.976-.298 7.464-.097 2.489-.199 4.977-.297 7.465-.101 2.489-.199 4.977-.296 7.469-.102 2.488-.2 4.977-.301 7.465-.098 2.488-.2 4.976-.297 7.465" transform="matrix(1 0 0 -1 11.171 87.316)"/></g><path style="stroke:none;fill-rule:nonzero;fill:#fcc;fill-opacity:1" d="M4.988 57.188h12.367V43.91H4.988Zm0 0"/><use xlink:href="#b" x="8.307" y="53.757" style="fill:#000;fill-opacity:1"/><path style="stroke:none;fill-rule:nonzero;fill:#fcc;fill-opacity:1" d="M8.813 58.84H26.91V45.562H8.812Zm0 0"/><g style="fill:#000;fill-opacity:1"><use xlink:href="#c" x="12.132" y="55.411"/><use xlink:href="#b" x="17.86" y="55.411"/></g><path style="stroke:none;fill-rule:nonzero;fill:#fcc;fill-opacity:1" d="M16.82 65.969h18.102V52.684H16.82Zm0 0"/><g style="fill:#000;fill-opacity:1"><use xlink:href="#d" x="20.142" y="62.54"/><use xlink:href="#b" x="25.871" y="62.54"/></g><path style="stroke:none;fill-rule:nonzero;fill:#fcc;fill-opacity:1" d="M33.07 79.04h18.102V65.761H33.07Zm0 0"/><g style="fill:#000;fill-opacity:1"><use xlink:href="#e" x="36.392" y="75.61"/><use xlink:href="#b" x="42.121" y="75.61"/></g><path style="stroke:none;fill-rule:nonzero;fill:#fcc;fill-opacity:1" d="M61.395 85.48h18.097V72.203H61.395Zm0 0"/><g style="fill:#000;fill-opacity:1"><use xlink:href="#f" x="64.716" y="82.05"/><use xlink:href="#b" x="70.444" y="82.05"/></g><path style="stroke:none;fill-rule:nonzero;fill:#ccf;fill-opacity:1" d="M21.793 4.93C14.586 4.145 7.77 4.14.852 4.785l1.793 13.152c5.757-.535 11.265-.53 16.93.083.738-4.364 1.476-8.727 2.218-13.09Zm0 0"/><use xlink:href="#g" x="7.079" y="14.044" style="fill:#000;fill-opacity:1"/><path style="stroke:none;fill-rule:nonzero;fill:#ccf;fill-opacity:1" d="M51.402 19.441a101.653 101.653 0 0 0-9.246-6.87 84.906 84.906 0 0 0-12.652-5.786c-1.328 4.219-2.66 8.442-3.992 12.66a65.493 65.493 0 0 1 9.707 4.442 82.274 82.274 0 0 1 7.441 5.547c2.914-3.332 5.828-6.66 8.742-9.993Zm0 0"/><g style="fill:#000;fill-opacity:1"><use xlink:href="#h" x="30.678" y="17.699"/><use xlink:href="#i" x="37.442" y="20.677"/></g><path style="stroke:none;fill-rule:nonzero;fill:#ccf;fill-opacity:1" d="M62.55 30.105c-1.07-.98-2.343-2.203-3.82-3.668a268.793 268.793 0 0 0-5.84-5.671c-2.988 3.27-5.976 6.539-8.964 9.804a250.993 250.993 0 0 1 5.414 5.266 143.65 143.65 0 0 0 4.43 4.238c2.925-3.324 5.855-6.648 8.78-9.969Zm0 0"/><g style="fill:#000;fill-opacity:1"><use xlink:href="#j" x="48.449" y="30.124"/><use xlink:href="#k" x="52.003" y="33.593"/></g><path style="stroke:none;fill-rule:nonzero;fill:#ccf;fill-opacity:1" d="M65.668 32.188a4.94 4.94 0 0 1-.82-.34c-.414-.254-.989-.66-1.746-1.266-2.84 3.395-5.676 6.793-8.516 10.188a37.668 37.668 0 0 0 3.77 2.66 24.854 24.854 0 0 0 3.914 1.59l3.398-12.833Zm0 0"/><g style="fill:#000;fill-opacity:1"><use xlink:href="#l" x="58.053" y="39.142"/><use xlink:href="#m" x="60.128" y="40.653"/></g><path style="stroke:none;fill-rule:nonzero;fill:#ccf;fill-opacity:1" d="M75.07 31.395c-2.648.55-4.804.867-6.492.996-1.246.007-2.113-.059-2.676-.149-.902 4.332-1.808 8.664-2.71 12.996 1.69.274 3.648.426 5.917.418 2.625-.203 5.621-.636 9.02-1.343-1.02-4.305-2.04-8.61-3.059-12.918Zm0 0"/><g style="fill:#000;fill-opacity:1"><use xlink:href="#n" x="65.448" y="42.127"/><use xlink:href="#o" x="68.493" y="42.423"/></g></svg>