<svg xmlns="http://www.w3.org/2000/svg" width="79.24pt" height="105.363" viewBox="0 0 79.24 79.022" version="1.2"><defs><clipPath id="a"><path d="M0 51h27v27.531H0Zm0 0"/></clipPath></defs><path style="fill:none;stroke-width:.3985;stroke-linecap:butt;stroke-linejoin:miter;stroke:#bfbfbf;stroke-opacity:1;stroke-miterlimit:10" d="M-.001.002v56.691M5.67.002v56.691M11.339.002v56.691M17.007.002v56.691M22.679.002v56.691M28.347.002v56.691M34.015.002v56.691M39.687.002v56.691M45.355.002v56.691M51.022.002v56.691M56.694.002v56.691" transform="matrix(1 0 0 -1 20.958 57.205)"/><path style="fill:none;stroke-width:.3985;stroke-linecap:butt;stroke-linejoin:miter;stroke:#000;stroke-opacity:1;stroke-miterlimit:10" d="M-.001.002h56.297" transform="matrix(1 0 0 -1 20.958 57.205)"/><path style="fill:none;stroke-width:.3985;stroke-linecap:round;stroke-linejoin:round;stroke:#000;stroke-opacity:1;stroke-miterlimit:10" d="M-2.073 2.393C-1.694.955-.851.279 0 .002-.851-.28-1.694-.955-2.073-2.393" transform="matrix(1 0 0 -1 77.452 57.205)"/><path style="fill:none;stroke-width:.3985;stroke-linecap:butt;stroke-linejoin:miter;stroke:#000;stroke-opacity:1;stroke-miterlimit:10" d="M-.001.002v56.293" transform="matrix(1 0 0 -1 20.958 57.205)"/><path style="fill:none;stroke-width:.3985;stroke-linecap:round;stroke-linejoin:round;stroke:#000;stroke-opacity:1;stroke-miterlimit:10" d="M-2.07 2.392C-1.695.958-.852.278 0 0c-.852-.281-1.695-.957-2.07-2.39" transform="matrix(0 -1 -1 0 20.958 .71)"/><g clip-path="url(#a)"><path style="fill:none;stroke-width:.3985;stroke-linecap:butt;stroke-linejoin:miter;stroke:#000;stroke-opacity:1;stroke-miterlimit:10" d="m-.001.002-19.762-19.766" transform="matrix(1 0 0 -1 20.958 57.205)"/></g><path style="fill:none;stroke-width:.3985;stroke-linecap:round;stroke-linejoin:round;stroke:#000;stroke-opacity:1;stroke-miterlimit:10" d="M-2.073 2.39C-1.694.956-.849.277.001 0-.849-.28-1.694-.954-2.07-2.39" transform="scale(-1 1) rotate(45 -93.606 37.28)"/><path style="fill:none;stroke-width:.3985;stroke-linecap:butt;stroke-linejoin:miter;stroke:#000;stroke-opacity:1;stroke-miterlimit:10" d="m-11.43-11.432 2.816 2.82m-2.817 0 2.817-2.82M-1.407 26.94l2.816 2.816m-2.816 0 2.816-2.817M35.241 35.24l2.817 2.82m-2.817 0 2.817-2.82" transform="matrix(1 0 0 -1 20.958 57.205)"/></svg>