<svg xmlns="http://www.w3.org/2000/svg" width="73.1pt" height="41.019" viewBox="0 0 73.1 30.764" version="1.2"><defs><clipPath id="a"><path d="M0 0h35v30.645H0Zm0 0"/></clipPath></defs><g clip-path="url(#a)"><path style="fill:none;stroke-width:.3985;stroke-linecap:butt;stroke-linejoin:miter;stroke:#000;stroke-opacity:1;stroke-miterlimit:10" d="M14.173-.001c0 7.828-6.343 14.175-14.172 14.175-7.828 0-14.175-6.347-14.175-14.175 0-7.829 6.347-14.172 14.175-14.172 7.829 0 14.172 6.343 14.172 14.172Zm0 0" transform="matrix(1 0 0 -1 14.94 15.272)"/></g><path style="fill:none;stroke-width:.3985;stroke-linecap:butt;stroke-linejoin:miter;stroke:#000;stroke-opacity:1;stroke-miterlimit:10" d="M22.74-.001h33.953" transform="matrix(1 0 0 -1 14.94 15.272)"/><path style="fill-rule:nonzero;fill:#000;fill-opacity:1;stroke-width:.3985;stroke-linecap:butt;stroke-linejoin:miter;stroke:#000;stroke-opacity:1;stroke-miterlimit:10" d="M3.76.001c-.461.11-2.493.75-3.758 1.446v-2.895C1.267-.752 3.299-.112 3.759.002Zm0 0" transform="matrix(-1 0 0 1 37.681 15.272)"/></svg>