<svg xmlns="http://www.w3.org/2000/svg" width="151.323" height="142.515" viewBox="0 0 113.492 106.886" version="1.2"><path style="stroke:none;fill-rule:nonzero;fill:red;fill-opacity:.5" d="M87.676 32.125C87.676 14.902 73.715.941 56.492.941c-17.219 0-31.18 13.961-31.18 31.184 0 17.219 13.961 31.18 31.18 31.18 17.223 0 31.184-13.961 31.184-31.18Zm0 0"/><path style="stroke:none;fill-rule:nonzero;fill:#0f0;fill-opacity:.5" d="M63.125 74.645c0-17.223-13.957-31.18-31.18-31.18-17.222 0-31.183 13.957-31.183 31.18 0 17.222 13.96 31.18 31.183 31.18s31.18-13.958 31.18-31.18Zm0 0"/><path style="stroke:none;fill-rule:nonzero;fill:#00f;fill-opacity:.5" d="M112.223 74.645c0-17.223-13.957-31.18-31.18-31.18s-31.18 13.957-31.18 31.18c0 17.222 13.957 31.18 31.18 31.18s31.18-13.958 31.18-31.18Zm0 0"/></svg>