<svg xmlns="http://www.w3.org/2000/svg" width="116.475" height="101.235" viewBox="0 0 87.356 75.926" version="1.2"><defs><clipPath id="a"><path d="M0 0h50v75.89H0Zm0 0"/></clipPath></defs><path style="fill:none;stroke-width:.19925;stroke-linecap:butt;stroke-linejoin:miter;stroke:gray;stroke-opacity:1;stroke-miterlimit:10" d="M0 0h85.039M-.001 28.346h85.04M-.001 56.683h85.04M-.001-.001v56.695M28.348 0v56.695M56.695 0v56.695M85.03 0v56.695" transform="matrix(1 0 0 -1 .895 72.046)"/><path style="stroke:none;fill-rule:nonzero;fill:#000;fill-opacity:.5" d="M3.73 74.879V18.187h28.348V74.88Zm42.52-56.692c0-7.828-6.344-14.175-14.172-14.175s-14.176 6.347-14.176 14.175c0 7.829 6.348 14.172 14.176 14.172S46.25 26.016 46.25 18.187Zm0 0"/><path style="stroke:none;fill-rule:nonzero;fill:red;fill-opacity:1" d="M.895 72.047V15.352h28.347v56.695Zm42.52-56.695c0-7.829-6.345-14.172-14.173-14.172S15.07 7.523 15.07 15.352c0 7.828 6.344 14.175 14.172 14.175s14.172-6.347 14.172-14.175Zm0 0"/><g clip-path="url(#a)"><path style="fill:none;stroke-width:.3985;stroke-linecap:butt;stroke-linejoin:miter;stroke:#000;stroke-opacity:1;stroke-miterlimit:10" d="M0 0v56.694h28.347V0Zm42.52 56.694c0 7.829-6.345 14.172-14.173 14.172s-14.172-6.343-14.172-14.172c0-7.828 6.344-14.175 14.172-14.175S42.52 48.866 42.52 56.694Zm0 0" transform="matrix(1 0 0 -1 .895 72.046)"/></g></svg>