<svg xmlns="http://www.w3.org/2000/svg" width="116.571" height="78.819" viewBox="0 0 87.428 59.114" version="1.2"><defs><clipPath id="a"><path d="M0 0h87.14v58.672H0Zm0 0"/></clipPath></defs><path style="fill:none;stroke-width:.19925;stroke-linecap:butt;stroke-linejoin:miter;stroke:gray;stroke-opacity:1;stroke-miterlimit:10" d="M-.001-.002h85.043M-.001 28.346h85.043M-.001 56.682h85.043M-.001-.002v56.696M28.346-.002v56.696M56.694-.002v56.696M85.03-.002v56.696" transform="matrix(1 0 0 -1 .892 57.467)"/><g clip-path="url(#a)"><path style="fill:none;stroke-width:.3985;stroke-linecap:butt;stroke-linejoin:miter;stroke:#00f;stroke-opacity:1;stroke-dasharray:2.98883,2.98883;stroke-miterlimit:10" d="M85.042 28.346c0 15.656-19.04 28.348-42.52 28.348C19.038 56.694 0 44.002 0 28.346-.001 12.69 19.038-.002 42.522-.002c23.48 0 42.52 12.692 42.52 28.348Zm0 0" transform="matrix(1 0 0 -1 .892 57.467)"/><path style="fill:none;stroke-width:.3985;stroke-linecap:butt;stroke-linejoin:miter;stroke:#000;stroke-opacity:1;stroke-miterlimit:10" d="M56.182 46.213c-1.55 5.79-7.668 10.48-13.66 10.48s-12.11-4.69-13.66-10.48C25.9 50.17 19.78 51.897 15.19 50.061c-4.59-1.832-7.84-7.301-7.258-12.207-2.984.277-6.242-1.774-7.285-4.582-1.039-2.809.098-6.496 2.54-8.227-1.61-3.531-.485-8.398 2.51-10.867 2.997-2.473 7.99-2.649 11.15-.395.515-5.691 5.5-11.097 11.128-12.074C33.608.737 40.12 4.147 42.522 9.334c2.398-5.187 8.91-8.601 14.54-7.625 5.632.977 10.616 6.383 11.132 12.074 3.16-2.253 8.152-2.078 11.148.391 2.996 2.469 4.121 7.34 2.512 10.871 2.442 1.73 3.578 5.414 2.54 8.223-1.04 2.808-4.302 4.863-7.286 4.586.582 4.906-2.668 10.375-7.258 12.207-4.59 1.832-10.71.11-13.668-3.848Zm0 0" transform="matrix(1 0 0 -1 .892 57.467)"/></g></svg>