<svg xmlns="http://www.w3.org/2000/svg" width="116.379" height="78.627" viewBox="0 0 87.284 58.97" version="1.2"><defs><clipPath id="a"><path d="M0 23h35v35.953H0Zm0 0"/></clipPath><clipPath id="b"><path d="M0 23h38v35.953H0Zm0 0"/></clipPath><clipPath id="c"><path d="M23 23h61v35.953H23Zm0 0"/></clipPath><clipPath id="d"><path d="M23 20h58v38.953H23Zm0 0"/></clipPath></defs><path style="fill:none;stroke-width:.19925;stroke-linecap:butt;stroke-linejoin:miter;stroke:gray;stroke-opacity:1;stroke-miterlimit:10" d="M-.002 0h85.043M-.002 28.349h85.043M-.002 56.684h85.043M-.002.001v56.691M28.346.001v56.691M56.693.001v56.691M85.03.001v56.691" transform="matrix(1 0 0 -1 .787 57.778)"/><g clip-path="url(#a)"><path style="fill:none;stroke-width:.3985;stroke-linecap:butt;stroke-linejoin:miter;stroke:#000;stroke-opacity:1;stroke-miterlimit:10" d="m-.002 0 28.348 28.348" transform="matrix(1 0 0 -1 .787 57.778)"/></g><g clip-path="url(#b)"><path style="fill:none;stroke-width:.3985;stroke-linecap:butt;stroke-linejoin:miter;stroke:red;stroke-opacity:1;stroke-miterlimit:10" d="m-.002 0 31.336 28.348" transform="matrix(1 0 0 -1 .787 57.778)"/></g><g clip-path="url(#c)"><path style="fill:none;stroke-width:.3985;stroke-linecap:butt;stroke-linejoin:miter;stroke:#000;stroke-opacity:1;stroke-miterlimit:10" d="m28.346 0 49.097 28.348" transform="matrix(1 0 0 -1 .787 57.778)"/></g><g clip-path="url(#d)"><path style="fill:none;stroke-width:.3985;stroke-linecap:butt;stroke-linejoin:miter;stroke:red;stroke-opacity:1;stroke-miterlimit:10" d="m28.346 0 45.578 31.868" transform="matrix(1 0 0 -1 .787 57.778)"/></g></svg>