<svg xmlns="http://www.w3.org/2000/svg" width="97.947" height="150.459" viewBox="0 0 73.46 112.844" version="1.2"><defs><clipPath id="a"><path d="M0 0h73.191v112.766H0Zm0 0"/></clipPath></defs><g clip-path="url(#a)"><path style="fill:none;stroke-width:.59776;stroke-linecap:butt;stroke-linejoin:miter;stroke:#000;stroke-opacity:1;stroke-miterlimit:10" d="M-35.435-55.363s2.133 9.48 2.953 12.719c.82 3.234 2.133 7.925 2.954 10.601.82 2.68 2.132 6.516 2.953 8.684.82 2.168 2.133 5.238 2.953 6.953.816 1.715 2.133 4.097 2.953 5.414a41.252 41.252 0 0 0 2.95 4.07c.82.969 2.132 2.238 2.952 2.914.82.676 2.133 1.52 2.953 1.957.82.434 2.133.938 2.954 1.184.82.25 2.132.496 2.953.61.816.116 2.132.19 2.953.226.816.035 2.133.023 2.949.031.82.008 2.133-.004 2.953.031.82.035 2.133.11 2.953.223.82.117 2.133.36 2.953.61.82.25 2.133.75 2.954 1.183.816.437 2.132 1.277 2.953 1.953.816.676 2.132 1.945 2.949 2.914.82.969 2.133 2.75 2.953 4.067.82 1.316 2.133 3.695 2.953 5.41.82 1.715 2.133 4.78 2.953 6.949.82 2.168 2.133 6.004 2.953 8.68a273.673 273.673 0 0 1 2.953 10.597c.817 3.235 2.95 12.715 2.95 12.715" transform="matrix(1 0 0 -1 36.462 56.336)"/></g></svg>