<svg xmlns="http://www.w3.org/2000/svg" width="101.119" height="43.395" viewBox="0 0 75.839 32.546" version="1.2"><defs><clipPath id="a"><path d="M0 0h75.758v32.32H0Zm0 0"/></clipPath></defs><path style="stroke:none;fill-rule:nonzero;fill:#ccf;fill-opacity:1" d="m1.05 28.953 3.34 1.113m-2.226 1.118 1.113-3.344m6.684-3.34 3.34 1.113m-2.227 1.114 1.114-3.34m6.683-3.344 3.34 1.113m-2.227 1.117 1.114-3.343m6.683-3.34 3.344 1.113m-2.23 1.113 1.113-3.34m6.683-3.343 3.344 1.113m-2.23 1.113 1.113-3.34m6.684-3.34 3.343 1.114m-2.23 1.113 1.117-3.34m6.68-3.343 3.343 1.113m-2.23 1.113 1.117-3.34m8.29-.191L66.18 4.25M63.94 3.16l3.329-1.152m5.75 5.957-1.274 3.285m-1.004-2.277 3.285 1.27m.532 8.265-3.094 1.683m.707-2.386 1.683 3.09m-4.937 6.648-3.45-.711m2.083-1.371-.711 3.45m-7.906 1.847-2.493-2.492m2.493 0-2.493 2.492m-7.472 0-2.489-2.492m2.489 0-2.489 2.492m-7.472 0-2.492-2.492m2.492 0-2.492 2.492m-7.473 0-2.488-2.492m2.488 0-2.488 2.492m-7.473 0-2.492-2.492m2.492 0-2.492 2.492m-7.473 0L6.63 28.266m2.488 0L6.63 30.758"/><g clip-path="url(#a)"><path style="fill:none;stroke-width:.79701;stroke-linecap:butt;stroke-linejoin:miter;stroke:#00f;stroke-opacity:1;stroke-miterlimit:10" d="M-1.67.558 1.67-.555M-.558-1.673.556 1.671m6.683 3.34 3.34-1.113M8.353 2.784l1.113 3.34m6.684 3.344 3.34-1.113m-2.227-1.117 1.113 3.343m6.684 3.34 3.344-1.113m-2.231-1.113 1.113 3.34m6.684 3.343 3.344-1.113m-2.23-1.113 1.112 3.34m6.684 3.34 3.344-1.114m-2.23-1.113 1.117 3.34m6.68 3.343 3.343-1.113m-2.23-1.113 1.117 3.34m8.289.191 1.148-3.332m-2.238 1.09 3.328 1.152m5.75-5.957-1.273-3.285m-1.004 2.277 3.285-1.27m.531-8.265L68.743 9.32m.707 2.386 1.684-3.09m-4.938-6.648-3.449.711M64.83 4.05 64.12.6m-7.907-1.847L53.72 1.245m2.492 0L53.72-1.247m-7.473 0L43.76 1.245m2.488 0L43.76-1.247m-7.473 0-2.492 2.492m2.492 0-2.492-2.492m-7.473 0-2.488 2.492m2.488 0-2.488-2.492m-7.472 0-2.493 2.492m2.493 0-2.493-2.492m-7.472 0L3.907 1.245m2.489 0L3.907-1.247" transform="matrix(1 0 0 -1 2.721 29.511)"/></g></svg>