<svg xmlns="http://www.w3.org/2000/svg" width="117.243" height="79.035" viewBox="0 0 87.932 59.276" version="1.2"><defs><clipPath id="a"><path d="M0 0h87.898v58.914H0Zm0 0"/></clipPath><clipPath id="b"><path d="M59 0h28.898v58.914H59Zm0 0"/></clipPath><clipPath id="c"><path d="M51 5h28v53.914H51Zm0 0"/></clipPath></defs><path style="fill:none;stroke-width:.19925;stroke-linecap:butt;stroke-linejoin:miter;stroke:gray;stroke-opacity:1;stroke-miterlimit:10" d="M.002.001H85.04M0 28.345h85.04M0 56.685h85.04M0 0v56.692M28.346 0v56.692M56.693 0v56.692M85.029 0v56.692" transform="matrix(1 0 0 -1 1.561 57.638)"/><g clip-path="url(#a)"><path style="fill:none;stroke-width:.3985;stroke-linecap:butt;stroke-linejoin:miter;stroke:#000;stroke-opacity:1;stroke-miterlimit:10" d="M.002 28.345 85.04 56.693 70.869 0Zm0 0" transform="matrix(1 0 0 -1 1.561 57.638)"/></g><path style="fill:none;stroke-width:.3985;stroke-linecap:butt;stroke-linejoin:miter;stroke:red;stroke-opacity:1;stroke-miterlimit:10" d="m.002 28.345 73.367-18.336" transform="matrix(1 0 0 -1 1.561 57.638)"/><g clip-path="url(#b)"><path style="fill:none;stroke-width:.3985;stroke-linecap:butt;stroke-linejoin:miter;stroke:#ff8000;stroke-opacity:1;stroke-miterlimit:10" d="M85.04 56.693 63.53 2.935" transform="matrix(1 0 0 -1 1.561 57.638)"/></g><g clip-path="url(#c)"><path style="fill:none;stroke-width:.3985;stroke-linecap:butt;stroke-linejoin:miter;stroke:#00f;stroke-opacity:1;stroke-miterlimit:10" d="M70.869.001 55.27 46.771" transform="matrix(1 0 0 -1 1.561 57.638)"/></g></svg>