<svg xmlns="http://www.w3.org/2000/svg" xmlns:xlink="http://www.w3.org/1999/xlink" width="40.392" height="26.519" viewBox="0 0 30.294 19.889" version="1.2"><defs><symbol overflow="visible" id="a"><path style="stroke:none" d="M4.469-2c0-1.188-.813-2.188-1.89-2.188-.47 0-.907.157-1.267.516v-1.953c.204.063.532.125.844.125 1.235 0 1.938-.906 1.938-1.031 0-.063-.032-.11-.11-.11 0 0-.03 0-.078.032a3.22 3.22 0 0 1-1.36.296c-.39 0-.858-.078-1.327-.28-.078-.032-.094-.032-.11-.032C1-6.625 1-6.547 1-6.391v2.954c0 .171 0 .25.14.25.079 0 .094-.016.141-.079.11-.156.469-.703 1.282-.703.515 0 .765.453.843.64.156.376.188.75.188 1.25 0 .36 0 .954-.25 1.376-.235.39-.61.64-1.063.64-.719 0-1.297-.53-1.469-1.109.032 0 .063.016.172.016.329 0 .5-.25.5-.485 0-.25-.171-.5-.5-.5-.14 0-.484.079-.484.532C.5-.75 1.188.219 2.297.219 3.453.219 4.469-.734 4.469-2Zm0 0"/></symbol><symbol overflow="visible" id="b"><path style="stroke:none" d="M6.75-1.61H6.5a3.74 3.74 0 0 1-.188.72c-.046.156-.078.25-.656.25H4.86c.141-.563.438-1.047.891-1.704.469-.703.875-1.39.875-2.187 0-1.375-1.344-2.5-3.031-2.5-1.703 0-3.031 1.14-3.031 2.5 0 .797.406 1.484.875 2.187.437.656.75 1.14.89 1.703h-.797c-.578 0-.61-.093-.656-.234-.094-.234-.14-.484-.188-.734h-.25L.766 0h1.593c.22 0 .25 0 .25-.203 0-.703-.312-1.578-.53-2.219-.22-.578-.5-1.36-.5-2.11 0-1.593 1.109-2.28 2.015-2.28.953 0 2.015.718 2.015 2.28 0 .75-.28 1.5-.562 2.313-.156.422-.469 1.328-.469 2.016 0 .203.031.203.25.203h1.594Zm0 0"/></symbol></defs><path style="fill:none;stroke-width:.3985;stroke-linecap:butt;stroke-linejoin:miter;stroke:#000;stroke-opacity:1;stroke-miterlimit:10" d="M-13.946-3.486h27.894v6.972h-27.894Zm0 0" transform="matrix(1 0 0 -1 14.794 15.146)"/><g style="fill:#000;fill-opacity:1"><use xlink:href="#a" x="8.706" y="7.941"/><use xlink:href="#b" x="13.687" y="7.941"/></g></svg>