<svg xmlns="http://www.w3.org/2000/svg" width="118.86" height="78.531" viewBox="0 0 89.145 58.898" version="1.2"><path style="fill:none;stroke-width:.19925;stroke-linecap:butt;stroke-linejoin:miter;stroke:gray;stroke-opacity:1;stroke-miterlimit:10" d="M.002 0H85.04M0 28.347h85.04M0 56.683h85.04M0 0v56.695M28.346 0v56.695M56.693 0v56.695M85.03 0v56.695" transform="matrix(1 0 0 -1 2.572 57.742)"/><path style="stroke:none;fill-rule:nonzero;fill:#000;fill-opacity:1" d="M32.91 29.395a1.993 1.993 0 1 0-3.983.002 1.993 1.993 0 0 0 3.983-.002Zm28.348 23.367a1.99 1.99 0 0 0-1.992-1.992 1.993 1.993 0 1 0 1.992 1.992ZM4.566 21.742a1.994 1.994 0 0 0-3.988 0 1.994 1.994 0 0 0 3.988 0Zm0 0"/></svg>