<svg xmlns="http://www.w3.org/2000/svg" xmlns:xlink="http://www.w3.org/1999/xlink" width="130.66" height="146.331" viewBox="0 0 97.995 109.748" version="1.2"><defs><symbol overflow="visible" id="b"><path style="stroke:none" d="M3.89-2.547c0-.844-.078-1.36-.343-1.875-.344-.703-1-.875-1.438-.875-1 0-1.375.75-1.484.969C.344-3.75.328-2.953.328-2.547c0 .531.016 1.328.406 1.969.36.594.954.75 1.375.75.391 0 1.063-.125 1.47-.906.296-.579.312-1.297.312-1.813ZM2.11-.062c-.266 0-.813-.126-.985-.954-.094-.453-.094-1.203-.094-1.625 0-.546 0-1.109.094-1.546.172-.813.781-.891.984-.891.266 0 .829.14.985.86.094.437.094 1.046.094 1.577 0 .47 0 1.188-.094 1.641-.172.828-.719.938-.985.938Zm0 0"/></symbol><symbol overflow="visible" id="d"><path style="stroke:none" d="M2.25-1.625c.125-.125.453-.39.594-.5.484-.453.953-.89.953-1.61 0-.953-.797-1.562-1.781-1.562-.97 0-1.594.719-1.594 1.438 0 .39.312.437.422.437.172 0 .422-.11.422-.422 0-.406-.407-.406-.5-.406.234-.594.765-.781 1.156-.781.734 0 1.125.625 1.125 1.297 0 .828-.578 1.437-1.531 2.39l-1 1.047C.422-.219.422-.203.422 0h3.14l.235-1.422h-.25c-.016.156-.078.547-.172.703-.047.063-.656.063-.781.063H1.172Zm0 0"/></symbol><symbol overflow="visible" id="e"><path style="stroke:none" d="M1.11-4.484c.109.03.421.125.765.125 1 0 1.594-.704 1.594-.829 0-.093-.047-.109-.094-.109-.016 0-.031 0-.094.031a2.982 2.982 0 0 1-1.11.22c-.468 0-.858-.11-1.108-.22-.079-.03-.094-.03-.11-.03-.094 0-.094.077-.094.234v2.328c0 .14 0 .234.125.234.063 0 .079-.031.125-.094.094-.11.391-.515 1.079-.515.437 0 .656.359.734.515.125.281.14.656.14.953 0 .297 0 .735-.218 1.079-.156.25-.485.484-.906.484A1.271 1.271 0 0 1 .734-.922c.016.016.079.016.079.016.218 0 .406-.14.406-.39a.388.388 0 0 0-.39-.407c-.157 0-.407.078-.407.422 0 .718.625 1.453 1.531 1.453 1 0 1.844-.781 1.844-1.766 0-.922-.672-1.75-1.61-1.75-.39 0-.765.125-1.078.406Zm0 0"/></symbol><symbol overflow="visible" id="f"><path style="stroke:none" d="M4.031-4.86c.078-.077.078-.093.078-.265H2.08a8.79 8.79 0 0 1-.642-.031c-.421-.032-.421-.11-.453-.235h-.25L.47-3.703h.25c.015-.125.11-.672.219-.735.078-.046.687-.046.796-.046h1.688l-.813 1.109C1.703-2.172 1.5-.906 1.5-.281c0 .078 0 .453.375.453s.375-.36.375-.453v-.39c0-1.141.203-2.079.594-2.61Zm0 0"/></symbol><symbol overflow="visible" id="g"><path style="stroke:none" d="M2.5-5.078c0-.219-.016-.219-.234-.219-.329.313-.75.5-1.5.5v.266c.218 0 .64 0 1.109-.203v4.078c0 .297-.031.39-.781.39H.812V0c.329-.031 1.016-.031 1.375-.031.36 0 1.047 0 1.376.031v-.266H3.28c-.75 0-.781-.093-.781-.39Zm0 0"/></symbol><symbol overflow="visible" id="h"><path style="stroke:none" d="M2.016-2.656c.625 0 1.03.453 1.03 1.297 0 1-.562 1.28-.983 1.28-.438 0-1.047-.155-1.329-.577.297 0 .5-.188.5-.438 0-.265-.187-.437-.453-.437-.203 0-.437.125-.437.453 0 .75.812 1.25 1.734 1.25 1.047 0 1.797-.734 1.797-1.531 0-.672-.531-1.266-1.344-1.454.625-.218 1.11-.75 1.11-1.39 0-.64-.72-1.094-1.547-1.094-.86 0-1.5.453-1.5 1.063 0 .296.187.421.406.421.25 0 .406-.171.406-.406 0-.297-.265-.406-.437-.406.344-.438.953-.469 1.094-.469.203 0 .812.063.812.89 0 .548-.234.891-.344 1.016-.234.25-.422.266-.906.297-.156 0-.219.016-.219.125 0 .11.078.11.219.11Zm0 0"/></symbol><symbol overflow="visible" id="i"><path style="stroke:none" d="M3.14-5.156c0-.157 0-.219-.171-.219-.094 0-.11 0-.188.11L.234-1.564v.25h2.25v.672c0 .297-.015.375-.64.375h-.172V0c.672-.031.687-.031 1.14-.031.454 0 .47 0 1.141.031v-.266h-.172c-.625 0-.64-.078-.64-.375v-.671h.843v-.25h-.843Zm-.593.64v2.954H.516Zm0 0"/></symbol><symbol overflow="visible" id="c"><path style="stroke:none" d="M1.625-.438a.463.463 0 0 0-.453-.453.447.447 0 0 0-.438.438.44.44 0 0 0 .438.453.45.45 0 0 0 .453-.438Zm0 0"/></symbol><clipPath id="a"><path d="M1 0h96.992v98H1Zm0 0"/></clipPath></defs><path style="fill:none;stroke-width:.3985;stroke-linecap:round;stroke-linejoin:miter;stroke:gray;stroke-opacity:1;stroke-miterlimit:10" d="M.001-1.993v1.992M10.63-11.954V-.001M21.263-1.993v1.992M31.892-11.954V-.001M42.525-1.993v1.992M53.154-11.954V-.001M63.782-1.993v1.992M74.415-11.954V-.001M85.044-1.993v1.992M.001 85.042v1.992M10.63 85.042v1.992M21.263 85.042v1.992M31.892 85.042v1.992M42.525 85.042v1.992M53.154 85.042v1.992M63.782 85.042v1.992M74.415 85.042v1.992M85.044 85.042v1.992M-1.991 0H.001M-1.991 21.26H.001M-1.991 42.526H.001M-1.991 63.788H.001M-1.991 85.05H.001M85.04 0h1.992M85.04 21.26h1.992M85.04 42.526h1.992M85.04 63.788h1.992M85.04 85.05h1.992" transform="matrix(1 0 0 -1 9.76 88.714)"/><path style="fill:none;stroke-width:.3985;stroke-linecap:butt;stroke-linejoin:miter;stroke:gray;stroke-opacity:1;stroke-miterlimit:10" d="M.001 0h85.04M.001 85.042h85.04M.001 0v85.042M85.04 0v85.042" transform="matrix(1 0 0 -1 9.76 88.714)"/><g clip-path="url(#a)"><path style="fill:none;stroke-width:.59776;stroke-linecap:butt;stroke-linejoin:miter;stroke:#000;stroke-opacity:1;stroke-miterlimit:10" d="M.001 0S2.56.065 3.544.147C4.53.23 6.103.425 7.087.589a54.38 54.38 0 0 1 3.543.738 57.69 57.69 0 0 1 3.543 1.035 62.14 62.14 0 0 1 3.543 1.329c.984.41 2.563 1.132 3.543 1.625a73.126 73.126 0 0 1 3.543 1.918 83.777 83.777 0 0 1 3.547 2.214c.98.657 2.558 1.774 3.543 2.512.98.734 2.558 1.984 3.543 2.805.98.82 2.558 2.199 3.543 3.097.98.903 2.558 2.415 3.543 3.399.984.984 2.558 2.625 3.543 3.691a165.936 165.936 0 0 1 3.543 3.985 206.667 206.667 0 0 1 3.543 4.28 209.6 209.6 0 0 1 3.543 4.579c.984 1.313 2.562 3.48 3.543 4.871a276.097 276.097 0 0 1 3.543 5.168 316.794 316.794 0 0 1 3.546 5.465c.98 1.555 2.559 4.117 3.543 5.758.98 1.636 2.559 4.332 3.543 6.05a462.612 462.612 0 0 1 3.543 6.348 514.173 514.173 0 0 1 3.543 6.645 1018.86 1018.86 0 0 1 3.543 6.941" transform="matrix(1 0 0 -1 9.76 88.714)"/></g><use xlink:href="#b" x="7.644" y="98.499" style="fill:#000;fill-opacity:1"/><use xlink:href="#b" x="12.864" y="108.462" style="fill:#000;fill-opacity:1"/><use xlink:href="#c" x="17.098" y="108.462" style="fill:#000;fill-opacity:1"/><g style="fill:#000;fill-opacity:1"><use xlink:href="#d" x="19.451" y="108.462"/><use xlink:href="#e" x="23.685" y="108.462"/></g><use xlink:href="#b" x="25.611" y="98.499" style="fill:#000;fill-opacity:1"/><use xlink:href="#c" x="29.846" y="98.499" style="fill:#000;fill-opacity:1"/><use xlink:href="#e" x="32.197" y="98.499" style="fill:#000;fill-opacity:1"/><use xlink:href="#b" x="34.124" y="108.462" style="fill:#000;fill-opacity:1"/><use xlink:href="#c" x="38.358" y="108.462" style="fill:#000;fill-opacity:1"/><g style="fill:#000;fill-opacity:1"><use xlink:href="#f" x="40.712" y="108.462"/><use xlink:href="#e" x="44.946" y="108.462"/></g><use xlink:href="#g" x="50.166" y="98.499" style="fill:#000;fill-opacity:1"/><use xlink:href="#g" x="55.386" y="108.462" style="fill:#000;fill-opacity:1"/><use xlink:href="#c" x="59.62" y="108.462" style="fill:#000;fill-opacity:1"/><g style="fill:#000;fill-opacity:1"><use xlink:href="#d" x="61.972" y="108.462"/><use xlink:href="#e" x="66.207" y="108.462"/></g><use xlink:href="#g" x="68.133" y="98.499" style="fill:#000;fill-opacity:1"/><use xlink:href="#c" x="72.368" y="98.499" style="fill:#000;fill-opacity:1"/><use xlink:href="#e" x="74.719" y="98.499" style="fill:#000;fill-opacity:1"/><use xlink:href="#g" x="76.647" y="108.462" style="fill:#000;fill-opacity:1"/><use xlink:href="#c" x="80.882" y="108.462" style="fill:#000;fill-opacity:1"/><g style="fill:#000;fill-opacity:1"><use xlink:href="#f" x="83.234" y="108.462"/><use xlink:href="#e" x="87.468" y="108.462"/></g><use xlink:href="#d" x="92.688" y="98.499" style="fill:#000;fill-opacity:1"/><use xlink:href="#b" x=".877" y="91.282" style="fill:#000;fill-opacity:1"/><use xlink:href="#g" x=".877" y="70.02" style="fill:#000;fill-opacity:1"/><use xlink:href="#d" x=".877" y="48.757" style="fill:#000;fill-opacity:1"/><use xlink:href="#h" x=".877" y="27.495" style="fill:#000;fill-opacity:1"/><use xlink:href="#i" x=".877" y="6.233" style="fill:#000;fill-opacity:1"/></svg>