<svg xmlns="http://www.w3.org/2000/svg" xmlns:xlink="http://www.w3.org/1999/xlink" width="92.445" height="39.225" viewBox="0 0 69.334 29.419" version="1.2"><defs><symbol overflow="visible" id="a"><path style="stroke:none" d="M6.125 0v-.469h-.688v-2.578c0-1.047-.53-1.437-1.53-1.437a1.9 1.9 0 0 0-1.688.953v-3.39l-1.766.077v.469c.61 0 .688 0 .688.39v5.516H.453V0l1.25-.031L2.953 0v-.469h-.687v-2.078c0-1.094.859-1.578 1.5-1.578.328 0 .546.203.546.969V-.47h-.687V0l1.25-.031Zm0 0"/></symbol><symbol overflow="visible" id="b"><path style="stroke:none" d="M5.516-.234c0-.235-.125-.235-.266-.235-.61-.015-.61-.14-.61-.375v-2.14c0-.891-.702-1.532-2.187-1.532-.562 0-1.781.047-1.781.922 0 .438.344.625.61.625.312 0 .624-.219.624-.625 0-.297-.187-.469-.218-.5a5.28 5.28 0 0 1 .718-.062c.75 0 1.11.422 1.11 1.172v.343c-.72.032-3.25.125-3.25 1.563C.266-.125 1.5.062 2.187.062c.797 0 1.266-.406 1.485-.828 0 .313 0 .766 1.047.766h.468c.204 0 .329 0 .329-.234Zm-2-1.157c0 .97-.922 1.094-1.172 1.094-.516 0-.906-.344-.906-.797 0-1.062 1.578-1.203 2.078-1.234Zm0 0"/></symbol><symbol overflow="visible" id="c"><path style="stroke:none" d="M2.922 0v-.469h-.688v-6.453L.47-6.844v.469c.625 0 .687 0 .687.39v5.516H.47V0l1.219-.031Zm0 0"/></symbol><symbol overflow="visible" id="d"><path style="stroke:none" d="M5.406-2.172c0-.765-.328-1.578-1.125-2l.703-1.125-.296-.203-.72 1.156c-.515-.172-1.015-.172-1.109-.172C1.22-4.516.313-3.5.313-2.172c0 .61.234 1.438 1.125 1.906L.734.875l.297.188.735-1.172c.5.171.968.171 1.093.171 1.672 0 2.547-1.015 2.547-2.234Zm-1.703-1.75L1.75-.766c-.297-.359-.297-.921-.297-1.421 0-.75 0-1.97 1.406-1.97.297 0 .594.063.844.235Zm.563 1.735c0 .75 0 1.89-1.407 1.89-.125 0-.5 0-.828-.219L3.97-3.672c.281.39.297.938.297 1.485Zm0 0"/></symbol><symbol overflow="visible" id="e"><path style="stroke:none" d="M5.984-2.219c0-1.328-.906-2.265-2.343-2.265-.75 0-1.282.312-1.5.484v-.484l-1.766.078v.468c.61 0 .688 0 .688.376v5.03H.375v.47l1.25-.032 1.25.032v-.47h-.688V-.39A2.01 2.01 0 0 0 3.47.063c1.5 0 2.515-.907 2.515-2.282Zm-1.28 0C4.703-.813 4-.297 3.358-.297c-.14 0-.609 0-1.062-.547-.11-.125-.11-.14-.11-.328v-2.11c0-.187.016-.202.157-.343.39-.406.922-.469 1.14-.469.657 0 1.22.61 1.22 1.875Zm0 0"/></symbol><symbol overflow="visible" id="f"><path style="stroke:none" d="M4.922-1.172c0-.172-.188-.172-.234-.172-.172 0-.188.047-.25.203-.204.485-.782.797-1.422.797-1.407 0-1.422-1.328-1.422-1.828h3.015c.22 0 .313 0 .313-.265 0-.313-.063-1.047-.563-1.547-.359-.36-.89-.532-1.578-.532C1.187-4.516.312-3.484.312-2.25c0 1.344 1 2.313 2.61 2.313 1.578 0 2-1.063 2-1.235ZM3.984-2.5h-2.39c.015-.39.031-.813.234-1.14.266-.391.672-.516.953-.516 1.172 0 1.188 1.312 1.203 1.656Zm0 0"/></symbol><symbol overflow="visible" id="g"><path style="stroke:none" d="M4.36-6.11c0-.421-.36-.874-1.141-.874-.969 0-2.047.421-2.047 1.546v1.016h-.75v.469h.75V-.47H.484V0l1.25-.031c.375 0 1.016 0 1.375.031v-.469H2.25v-3.484h1.14v-.469H2.188v-1.016c0-1.093.75-1.187 1-1.187.047 0 .11 0 .172.031a.585.585 0 0 0-.234.485c0 .421.36.609.61.609.296 0 .624-.203.624-.61Zm0 0"/></symbol></defs><path style="fill:none;stroke-width:.3985;stroke-linecap:butt;stroke-linejoin:miter;stroke:#000;stroke-opacity:1;stroke-miterlimit:10" d="M-33.467-7.745h66.934V7.743h-66.934Zm0 0" transform="matrix(1 0 0 -1 34.334 20.184)"/><g style="fill:#000;fill-opacity:1"><use xlink:href="#a" x="4.187" y="22.675"/><use xlink:href="#b" x="10.553" y="22.675"/><use xlink:href="#c" x="16.122" y="22.675"/><use xlink:href="#c" x="19.3" y="22.675"/><use xlink:href="#d" x="22.478" y="22.675"/></g><use xlink:href="#e" x="32.023" y="22.675" style="fill:#000;fill-opacity:1"/><g style="fill:#000;fill-opacity:1"><use xlink:href="#f" x="38.708" y="22.675"/><use xlink:href="#d" x="43.958" y="22.675"/><use xlink:href="#e" x="49.686" y="22.675"/><use xlink:href="#c" x="56.053" y="22.675"/><use xlink:href="#f" x="59.231" y="22.675"/></g><g style="fill:#000;fill-opacity:1"><use xlink:href="#g" x="26.697" y="7.655"/><use xlink:href="#d" x="30.194" y="7.655"/></g><use xlink:href="#d" x="36.241" y="7.655" style="fill:#000;fill-opacity:1"/></svg>