<svg xmlns="http://www.w3.org/2000/svg" width="78.579" height="41.523" viewBox="0 0 58.934 31.142" version="1.2"><defs><clipPath id="a"><path d="M0 0h58.902v30.715H0Zm0 0"/></clipPath><clipPath id="b"><path d="M22 19h16v11.715H22Zm0 0"/></clipPath></defs><g clip-path="url(#a)"><path style="fill:none;stroke-width:.3985;stroke-linecap:butt;stroke-linejoin:miter;stroke:#000;stroke-opacity:1;stroke-miterlimit:10" d="M-28.347 28.345s4.855-3.324 6.511-4.527c1.657-1.2 4.06-3.04 5.43-4.133a132.56 132.56 0 0 0 4.445-3.738 98.475 98.475 0 0 0 3.563-3.348 71.604 71.604 0 0 0 2.77-2.953 51.685 51.685 0 0 0 2.085-2.559A39.691 39.691 0 0 0-2.05 4.923c.347-.547.777-1.336 1-1.773.222-.438.48-1.051.609-1.38.125-.327.25-.765.309-.984.062-.218.097-.48.117-.59C0 .088-.004.002 0 .002s-.003.086.016.196c.02.109.055.37.113.59.059.218.184.656.313.984.129.328.383.941.605 1.379.223.433.657 1.222 1 1.77.348.546.996 1.507 1.492 2.163.497.657 1.41 1.793 2.086 2.559.672.766 1.891 2.078 2.77 2.953a98.06 98.06 0 0 0 3.559 3.344c1.109.984 3.074 2.648 4.445 3.742 1.367 1.09 3.77 2.93 5.426 4.133 1.656 1.2 6.511 4.527 6.511 4.527" transform="matrix(1 0 0 -1 29.441 29.099)"/></g><g clip-path="url(#b)"><path style="fill:none;stroke-width:.3985;stroke-linecap:butt;stroke-linejoin:miter;stroke:#000;stroke-opacity:1;stroke-miterlimit:10" d="M1.028 3.462A1.993 1.993 0 1 1-.283-.305a1.993 1.993 0 0 1 1.31 3.767Zm0 0" transform="matrix(1 0 0 -1 29.441 29.099)"/></g></svg>