<svg xmlns="http://www.w3.org/2000/svg" width="55.419" height="55.395" viewBox="0 0 41.564 41.546" version="1.2"><defs><clipPath id="a"><path d="M0 23h18v18.32H0Zm0 0"/></clipPath></defs><path style="fill:none;stroke-width:.3985;stroke-linecap:butt;stroke-linejoin:miter;stroke:#000;stroke-opacity:1;stroke-miterlimit:10" d="M-.002 0h27.95" transform="matrix(1 0 0 -1 11.99 29.121)"/><path style="fill:none;stroke-width:.3985;stroke-linecap:round;stroke-linejoin:round;stroke:#000;stroke-opacity:1;stroke-miterlimit:10" d="M-2.071 2.39C-1.692.958-.848.278-.001 0c-.847-.277-1.691-.957-2.07-2.39" transform="matrix(1 0 0 -1 40.138 29.121)"/><path style="fill:none;stroke-width:.3985;stroke-linecap:butt;stroke-linejoin:miter;stroke:#000;stroke-opacity:1;stroke-miterlimit:10" d="M-.002 0v27.95" transform="matrix(1 0 0 -1 11.99 29.121)"/><path style="fill:none;stroke-width:.3985;stroke-linecap:round;stroke-linejoin:round;stroke:#000;stroke-opacity:1;stroke-miterlimit:10" d="M-2.073 2.392C-1.695.955-.851.28 0 .002-.851-.28-1.695-.955-2.073-2.393" transform="matrix(0 -1 -1 0 11.99 .973)"/><g clip-path="url(#a)"><path style="fill:none;stroke-width:.3985;stroke-linecap:butt;stroke-linejoin:miter;stroke:#000;stroke-opacity:1;stroke-miterlimit:10" d="M-.002 0-10.63-10.633" transform="matrix(1 0 0 -1 11.99 29.121)"/></g><path style="fill:none;stroke-width:.3985;stroke-linecap:round;stroke-linejoin:round;stroke:#000;stroke-opacity:1;stroke-miterlimit:10" d="M-2.074 2.39C-1.694.956-.851.279 0 .003-.85-.28-1.693-.957-2.072-2.39" transform="scale(-1 1) rotate(45 -48.765 18.477)"/></svg>