<svg xmlns="http://www.w3.org/2000/svg" width="94.439" height="76.52pt" viewBox="0 0 70.829 76.52" version="1.2"><defs><clipPath id="a"><path d="M15 46h41v30.281H15Zm0 0"/></clipPath></defs><path style="fill-rule:nonzero;fill:#ccf;fill-opacity:1;stroke-width:.79701;stroke-linecap:butt;stroke-linejoin:miter;stroke:#8080ff;stroke-opacity:1;stroke-miterlimit:10" d="M8.503 56.693a8.503 8.503 0 0 1-8.504 8.504 8.506 8.506 0 0 1-8.504-8.504A8.506 8.506 0 0 1-.001 48.19c4.699 0 8.504 3.809 8.504 8.504ZM8.503 28.346A8.5 8.5 0 0 1-.001 36.85a8.503 8.503 0 0 1-8.504-8.504 8.506 8.506 0 0 1 8.504-8.504c4.699 0 8.504 3.808 8.504 8.504Zm0 0" transform="matrix(1 0 0 -1 35.33 66.373)"/><path style="stroke:none;fill-rule:nonzero;fill:#ccf;fill-opacity:1" d="M43.832 66.371a8.503 8.503 0 0 0-8.504-8.504 8.506 8.506 0 0 0-8.504 8.504 8.504 8.504 0 1 0 17.008 0Zm0 0"/><g clip-path="url(#a)"><path style="fill:none;stroke-width:.79701;stroke-linecap:butt;stroke-linejoin:miter;stroke:#8080ff;stroke-opacity:1;stroke-miterlimit:10" d="M8.503.002A8.503 8.503 0 0 1-.001 8.506 8.506 8.506 0 0 1-8.505.002a8.504 8.504 0 1 1 17.008 0Zm0 0" transform="matrix(1 0 0 -1 35.33 66.373)"/></g><path style="fill-rule:nonzero;fill:#ccc;fill-opacity:1;stroke-width:.79701;stroke-linecap:butt;stroke-linejoin:miter;stroke:gray;stroke-opacity:1;stroke-miterlimit:10" d="M22.678 22.678h11.336v11.34H22.678ZM-34.017 22.678h11.34v11.34h-11.34Zm0 0" transform="matrix(1 0 0 -1 35.33 66.373)"/></svg>