<svg xmlns="http://www.w3.org/2000/svg" xmlns:xlink="http://www.w3.org/1999/xlink" width="97.04pt" height="97.299" viewBox="0 0 97.04 72.974" version="1.2"><defs><clipPath id="a"><path d="M3 0h40v72.96H3Zm0 0"/></clipPath><clipPath id="e"><path d="M60 9h36.559v55H60Zm0 0"/></clipPath><clipPath id="f"><path d="M59 0h37.559v72.96H59Zm0 0"/></clipPath><symbol overflow="visible" id="b"><path style="stroke:none" d="M4.203 0v-.422H3.016v-4.547c0-.281-.047-.281-.36-.281-.484.39-1.125.516-1.75.516H.734v.421h.172c.203 0 .64-.03 1.11-.171v4.062H.812V0c.282-.031 1.344-.031 1.704-.031.359 0 1.39 0 1.687.031Zm0 0"/></symbol><symbol overflow="visible" id="c"><path style="stroke:none" d="M4.39-1.813h-.452c-.063.516-.157.688-.204.704-.093.046-.703.046-.843.046H1.797c1.062-.828 1.5-1.078 1.844-1.343.546-.438.75-.828.75-1.281 0-.938-.875-1.563-2.079-1.563-1.015 0-1.828.453-1.828 1.203 0 .484.391.625.61.625.281 0 .61-.203.61-.61a.566.566 0 0 0-.376-.562c.219-.172.547-.234.797-.234.719 0 1.11.531 1.11 1.14 0 .657-.422 1.188-.891 1.626L.578-.423C.5-.328.484-.328.484-.172V0h3.641Zm0 0"/></symbol><symbol overflow="visible" id="d"><path style="stroke:none" d="M4.469-1.422c0-.656-.5-1.203-1.36-1.39.22-.094 1.094-.438 1.094-1.297 0-.641-.656-1.141-1.844-1.141-1.03 0-1.687.563-1.687 1.203 0 .453.36.61.594.61.312 0 .593-.22.593-.594 0-.172-.062-.469-.453-.563.36-.312.828-.312.907-.312.734 0 .734.531.734.765 0 .579-.266.875-.297.907-.219.25-.375.25-.797.28-.25.017-.328.017-.328.188 0 .157.11.157.25.157h.39c.922 0 .938.78.938 1.171 0 .36 0 1.172-.906 1.172-.172 0-.625-.015-1.016-.28a.646.646 0 0 0 .422-.61c0-.375-.281-.64-.656-.64-.344 0-.64.234-.64.655 0 .766.827 1.25 1.921 1.25 1.563 0 2.14-.843 2.14-1.53Zm0 0"/></symbol></defs><path style="fill:none;stroke-width:.3985;stroke-linecap:butt;stroke-linejoin:miter;stroke:#000;stroke-opacity:1;stroke-miterlimit:10" d="M28.348 42.519C-28.218 28.378 56.305 14.237.388.097" transform="matrix(1 0 0 -1 8.933 57.71)"/><path style="fill:none;stroke-width:.3985;stroke-linecap:round;stroke-linejoin:round;stroke:#000;stroke-opacity:1;stroke-miterlimit:10" d="M-2.07 2.392C-1.692.957-.85.28 0-.002-.85-.28-1.694-.955-2.073-2.39" transform="scale(-1 1) rotate(14.035 -238.785 -8.24)"/><g clip-path="url(#a)"><path style="fill:none;stroke-width:.3985;stroke-linecap:butt;stroke-linejoin:miter;stroke:#000;stroke-opacity:1;stroke-miterlimit:10" d="m0-14.173 28.2 70.496" transform="matrix(1 0 0 -1 8.933 57.71)"/></g><path style="fill:none;stroke-width:.3985;stroke-linecap:round;stroke-linejoin:round;stroke:#000;stroke-opacity:1;stroke-miterlimit:10" d="M-2.074 2.392C-1.694.958-.849.278 0-.002-.85-.278-1.694-.956-2.071-2.39" transform="scale(.99996 -.99996) rotate(68.199 19.491 26.877)"/><path style="stroke:none;fill-rule:nonzero;fill:red;fill-opacity:.5" d="M17.305 55.934a1.99 1.99 0 0 0-1.992-1.993 1.99 1.99 0 0 0-1.993 1.993 1.99 1.99 0 0 0 1.992 1.992 1.99 1.99 0 0 0 1.993-1.992Zm7.777-19.477a1.99 1.99 0 0 0-1.992-1.992 1.99 1.99 0 0 0-1.992 1.992 1.99 1.99 0 0 0 1.992 1.992 1.99 1.99 0 0 0 1.992-1.992Zm7.809-19.492a1.993 1.993 0 1 0-1.993 1.996 1.994 1.994 0 0 0 1.993-1.996Zm0 0"/><use xlink:href="#b" x="-.179" y="58.556" style="fill:#000;fill-opacity:1"/><use xlink:href="#c" x="7.597" y="39.08" style="fill:#000;fill-opacity:1"/><use xlink:href="#d" x="15.407" y="19.534" style="fill:#000;fill-opacity:1"/><g clip-path="url(#e)"><path style="fill:none;stroke-width:.3985;stroke-linecap:butt;stroke-linejoin:miter;stroke:#000;stroke-opacity:1;stroke-miterlimit:10" d="M85.04 42.519C28.477 28.378 113 14.237 57.079.097" transform="matrix(1 0 0 -1 8.933 57.71)"/></g><path style="fill:none;stroke-width:.3985;stroke-linecap:round;stroke-linejoin:round;stroke:#000;stroke-opacity:1;stroke-miterlimit:10" d="M-2.072 2.393C-1.694.957-.849.279 0-.001c-.85-.279-1.692-.954-2.07-2.39" transform="scale(-1 1) rotate(14.035 -267.132 -238.529)"/><g clip-path="url(#f)"><path style="fill:none;stroke-width:.3985;stroke-linecap:butt;stroke-linejoin:miter;stroke:#000;stroke-opacity:1;stroke-miterlimit:10" d="m56.692-14.173 28.2 70.496" transform="matrix(1 0 0 -1 8.933 57.71)"/></g><path style="fill:none;stroke-width:.3985;stroke-linecap:round;stroke-linejoin:round;stroke:#000;stroke-opacity:1;stroke-miterlimit:10" d="M-2.073 2.39C-1.693.957-.85.28-.002 0c-.847-.28-1.69-.958-2.068-2.392" transform="matrix(.37137 -.92844 -.92844 -.37137 93.9 1.201)"/><path style="stroke:none;fill-rule:nonzero;fill:red;fill-opacity:.5" d="M89.582 16.977a1.99 1.99 0 0 0-1.992-1.993 1.993 1.993 0 1 0 1.992 1.992Zm-7.816 19.468a1.993 1.993 0 1 0-3.983.002 1.993 1.993 0 0 0 3.983-.002Zm-7.77 19.496a1.99 1.99 0 0 0-1.992-1.992 1.99 1.99 0 0 0-1.992 1.992 1.99 1.99 0 0 0 1.992 1.993 1.99 1.99 0 0 0 1.992-1.993Zm0 0"/><use xlink:href="#b" x="72.097" y="19.598" style="fill:#000;fill-opacity:1"/><use xlink:href="#c" x="64.28" y="39.069" style="fill:#000;fill-opacity:1"/><use xlink:href="#d" x="56.511" y="58.509" style="fill:#000;fill-opacity:1"/></svg>