<svg xmlns="http://www.w3.org/2000/svg" xmlns:xlink="http://www.w3.org/1999/xlink" width="470.907" height="214.275" viewBox="0 0 353.18 160.706" version="1.2"><defs><symbol overflow="visible" id="b"><path style="stroke:none" d="M5.719-2.031c0-1.094-.797-1.906-1.719-2.094l-1.438-.313c-.406-.093-.953-.421-.953-1.03 0-.438.282-1.048 1.266-1.048.797 0 1.813.329 2.047 1.688.031.25.031.266.234.266.25 0 .25-.047.25-.282v-1.828c0-.187 0-.281-.187-.281-.078 0-.078.016-.188.11l-.453.437C4-6.86 3.344-6.953 2.875-6.953c-1.516 0-2.234.969-2.234 2.016 0 .64.328 1.093.53 1.312.5.5.829.563 1.923.797.875.203 1.047.219 1.265.437.141.141.391.407.391.86 0 .484-.25 1.172-1.297 1.172-.75 0-2.265-.204-2.344-1.688-.015-.172-.015-.219-.234-.219-.234 0-.234.047-.234.282v1.812C.64.016.64.11.812.11.906.11.922.094 1 .016l.469-.454C2.125.047 3.047.11 3.453.11 5.11.11 5.72-1.016 5.72-2.03Zm0 0"/></symbol><symbol overflow="visible" id="c"><path style="stroke:none" d="M4.922-1.172c0-.172-.188-.172-.234-.172-.172 0-.188.047-.25.203-.204.485-.782.797-1.422.797-1.407 0-1.422-1.328-1.422-1.828h3.015c.22 0 .313 0 .313-.265 0-.313-.063-1.047-.563-1.547-.359-.36-.89-.532-1.578-.532C1.187-4.516.312-3.484.312-2.25c0 1.344 1 2.313 2.61 2.313 1.578 0 2-1.063 2-1.235ZM3.984-2.5h-2.39c.015-.39.031-.813.234-1.14.266-.391.672-.516.953-.516 1.172 0 1.188 1.312 1.203 1.656Zm0 0"/></symbol><symbol overflow="visible" id="d"><path style="stroke:none" d="M9.328 0v-.469h-.687v-2.578c0-1.031-.516-1.437-1.547-1.437-.907 0-1.422.5-1.688.953-.187-.922-1.11-.953-1.484-.953-.875 0-1.438.453-1.766 1.078v-1.078l-1.703.078v.468c.61 0 .688 0 .688.391v3.078H.453V0l1.25-.031L2.953 0v-.469h-.687v-2.078c0-1.094.875-1.578 1.5-1.578.328 0 .546.203.546.969V-.47h-.687V0l1.266-.031L6.14 0v-.469h-.688v-2.078c0-1.094.86-1.578 1.484-1.578.344 0 .563.203.563.969V-.47h-.688V0l1.25-.031Zm0 0"/></symbol><symbol overflow="visible" id="e"><path style="stroke:none" d="M2.844 0v-.469h-.61v-4.015L.5-4.406v.468c.594 0 .656 0 .656.391v3.078H.47V0l1.219-.031Zm-.469-6.047a.774.774 0 0 0-.781-.781.784.784 0 0 0-.782.781c0 .422.36.766.782.766a.77.77 0 0 0 .781-.766Zm0 0"/></symbol><symbol overflow="visible" id="f"><path style="stroke:none" d="M4.766-1.172c0-.14-.141-.14-.235-.14-.187 0-.187.03-.25.156-.25.625-.734.812-1.234.812-1.39 0-1.39-1.453-1.39-1.922 0-.562 0-1.843 1.28-1.843.36 0 .516.015.657.046a.618.618 0 0 0-.203.47c0 .437.343.624.609.624.313 0 .64-.219.64-.625 0-.86-1.156-.922-1.734-.922C1.11-4.516.375-3.375.375-2.219.375-.89 1.313.062 2.844.062c1.625 0 1.922-1.156 1.922-1.234Zm0 0"/></symbol><symbol overflow="visible" id="g"><path style="stroke:none" d="M4.406-3.672c0-.531-.531-.812-1.062-.812-.688 0-1.094.5-1.313 1.125v-1.125l-1.656.078v.468c.61 0 .688 0 .688.391v3.078H.375V0l1.25-.031C2-.031 2.641-.031 3 0v-.469h-.86v-1.75c0-.687.235-1.906 1.235-1.906 0 0-.188.172-.188.453 0 .406.329.61.61.61.297 0 .61-.204.61-.61Zm0 0"/></symbol><symbol overflow="visible" id="h"><path style="stroke:none" d="M2.922 0v-.469h-.688v-6.453L.47-6.844v.469c.625 0 .687 0 .687.39v5.516H.47V0l1.219-.031Zm0 0"/></symbol><symbol overflow="visible" id="i"><path style="stroke:none" d="M3.078.313c0-.126-.047-.157-.187-.25C2.062-.5 1.75-1.391 1.75-2.126c0-.672.25-1.594 1.156-2.203.125-.094.172-.125.172-.25a.254.254 0 0 0-.265-.25c-.204 0-1.641.906-1.641 2.703 0 .813.312 1.438.562 1.781.375.516.907.906 1.079.906.218 0 .265-.171.265-.25Zm0 0"/></symbol><symbol overflow="visible" id="j"><path style="stroke:none" d="M3.219-.906c0-.735-.906-.906-1.14-.938l-.704-.125C1.187-2 1-2.079 1-2.25c0-.156.219-.328.813-.328.515 0 .609.172.625.328.015.14.03.281.28.281.298 0 .298-.156.298-.328v-.469c0-.14-.016-.328-.25-.328-.157 0-.22.063-.25.125-.282-.125-.563-.125-.688-.125-1.187 0-1.344.594-1.344.844 0 .656.735.797 1.391.89.297.063.828.141.828.454 0 .234-.25.422-.828.422-.297 0-.656-.063-.813-.563-.03-.156-.078-.234-.28-.234-.298 0-.298.172-.298.328v.656c0 .14 0 .344.25.344.079 0 .188 0 .282-.234.328.218.671.234.859.234 1.125 0 1.344-.61 1.344-.953Zm0 0"/></symbol><symbol overflow="visible" id="k"><path style="stroke:none" d="M2.313-.469a.477.477 0 0 0-.485-.484.47.47 0 0 0-.469.469c0 .28.22.484.47.484a.473.473 0 0 0 .484-.469Zm0 0"/></symbol><symbol overflow="visible" id="l"><path style="stroke:none" d="M3.625-.266c0-.25-.203-.25-.328-.25-.203 0-.297-.03-.344-.046V-2c0-.5-.375-1.094-1.406-1.094-.313 0-1.031.016-1.031.547 0 .235.171.36.359.36.11 0 .344-.063.344-.36 0 0 .234-.031.343-.031.454 0 .782.187.813.594-1.219.03-2.047.39-2.047 1.062 0 .485.453.969 1.188.969.234 0 .656-.047.968-.25.172.187.485.203.75.203.235 0 .391-.016.391-.266ZM2.359-.969c0 .14 0 .266-.234.375-.234.11-.516.11-.578.11-.39 0-.64-.204-.64-.438 0-.312.546-.515 1.452-.562Zm0 0"/></symbol><symbol overflow="visible" id="m"><path style="stroke:none" d="M3.422-1.516c0-.875-.64-1.562-1.39-1.562-.298 0-.579.11-.813.281 0-.172-.063-.234-.313-.234h-.5c-.14 0-.344 0-.344.25 0 .265.22.265.329.265h.25v3.5H.406c-.14 0-.344 0-.344.266 0 .25.22.25.329.25h1.093c.11 0 .329 0 .329-.25 0-.266-.204-.266-.344-.266h-.25V-.234c.265.234.531.28.734.28.766 0 1.469-.671 1.469-1.562Zm-.578 0c0 .61-.453 1.032-.906 1.032-.485 0-.704-.563-.704-.875v-.485c0-.375.375-.703.766-.703.469 0 .844.469.844 1.031Zm0 0"/></symbol><symbol overflow="visible" id="n"><path style="stroke:none" d="M3.25-.797c0-.234-.234-.234-.281-.234-.156 0-.219.015-.281.172-.141.328-.485.375-.657.375-.469 0-.937-.297-1.062-.813h1.953c.172 0 .328 0 .328-.312 0-.797-.453-1.485-1.375-1.485-.828 0-1.516.703-1.516 1.563S1.08.047 1.984.047c.938 0 1.266-.656 1.266-.844Zm-.594-1.015H.97c.125-.438.484-.766.906-.766.328 0 .703.156.781.765Zm0 0"/></symbol><symbol overflow="visible" id="o"><path style="stroke:none" d="M3.469-.266c0-.25-.203-.25-.328-.25h-.25l-.829-1.046.735-.954h.234c.125 0 .344 0 .344-.265 0-.25-.219-.25-.344-.25H2.25c-.125 0-.328 0-.328.25 0 .203.11.265.281.265l-.39.547-.422-.547c.156 0 .28-.062.28-.265 0-.25-.202-.25-.327-.25H.547c-.125 0-.328 0-.328.25 0 .265.218.265.328.265h.25l.75.954L.75-.516H.516c-.125 0-.344 0-.344.25C.172 0 .39 0 .516 0h.78c.126 0 .329 0 .329-.266 0-.203-.11-.25-.297-.25l.484-.703.5.703c-.187 0-.296.047-.296.25 0 .266.203.266.328.266h.797c.109 0 .328 0 .328-.266Zm0 0"/></symbol><symbol overflow="visible" id="p"><path style="stroke:none" d="M2.484-2.125c0-.828-.312-1.453-.562-1.797-.375-.515-.906-.906-1.078-.906-.203 0-.266.187-.266.25 0 .125.094.187.14.219 1.095.718 1.188 1.796 1.188 2.234 0 .656-.25 1.578-1.14 2.188C.64.14.578.186.578.313c0 .078.063.25.266.25s1.64-.907 1.64-2.688Zm0 0"/></symbol><symbol overflow="visible" id="q"><path style="stroke:none" d="M3.406-2.594c0-.156-.078-.484-.703-.484-.328 0-.734.11-1.094.469v-.094c0-.25-.046-.328-.328-.328h-.75c-.125 0-.328 0-.328.25 0 .265.203.265.328.265h.5v2h-.5c-.125 0-.328 0-.328.25C.203 0 .406 0 .531 0h1.781c.126 0 .329 0 .329-.266 0-.25-.204-.25-.329-.25H1.61v-.796c0-.61.36-1.22 1.11-1.235 0 .156.172.281.344.281.187 0 .343-.125.343-.328Zm0 0"/></symbol><symbol overflow="visible" id="r"><path style="stroke:none" d="M3.266-.797c0-.234-.235-.234-.297-.234-.125 0-.203 0-.266.172-.047.078-.187.375-.625.375a1.027 1.027 0 0 1-1.015-1.032c0-.312.187-1.062 1.062-1.062l.344.015c.015.282.172.376.36.376.187 0 .358-.126.358-.36 0-.531-.734-.547-1.062-.547-1.219 0-1.64.953-1.64 1.578 0 .844.671 1.563 1.546 1.563 1 0 1.235-.719 1.235-.844Zm0 0"/></symbol><symbol overflow="visible" id="s"><path style="stroke:none" d="M3.14-.906c0-.156 0-.313-.296-.313-.266 0-.266.157-.266.297-.015.375-.36.438-.515.438-.454 0-.454-.313-.454-.47v-1.562h1.047c.125 0 .328 0 .328-.265 0-.25-.187-.25-.328-.25H1.61v-.516c0-.14-.015-.328-.296-.328-.282 0-.282.172-.282.328v.516H.484c-.125 0-.328 0-.328.25 0 .265.203.265.328.265h.547v1.61c0 .687.485.953 1.016.953S3.14-.266 3.14-.906Zm0 0"/></symbol><symbol overflow="visible" id="t"><path style="stroke:none" d="M3.578-.266c0-.25-.203-.25-.328-.25H3v-1.53c0-.72-.36-1.032-.938-1.032-.39 0-.671.172-.843.297 0-.172-.047-.25-.313-.25h-.5c-.14 0-.328 0-.328.25 0 .265.203.265.313.265h.25v2H.406c-.14 0-.328 0-.328.25C.078 0 .281 0 .391 0h1.093c.11 0 .329 0 .329-.266 0-.25-.204-.25-.344-.25h-.25v-1.156c0-.64.484-.875.797-.875.328 0 .406.172.406.547v1.484h-.203c-.14 0-.344 0-.344.25 0 .266.219.266.344.266H3.25c.11 0 .328 0 .328-.266Zm0 0"/></symbol><symbol overflow="visible" id="u"><path style="stroke:none" d="M3.578-.266c0-.25-.203-.25-.328-.25H3v-3.406c0-.25-.047-.344-.328-.344h-.485c-.14 0-.343.016-.343.266s.218.266.328.266h.25v.906a1.261 1.261 0 0 0-.735-.25c-.765 0-1.453.672-1.453 1.562C.234-.64.875.047 1.625.047c.344 0 .61-.14.797-.313.015.188.062.266.328.266h.5c.125 0 .328 0 .328-.266ZM2.422-1.375c0 .36-.297.89-.781.89-.454 0-.829-.453-.829-1.03 0-.61.438-1.032.891-1.032.406 0 .719.344.719.688Zm0 0"/></symbol><symbol overflow="visible" id="v"><path style="stroke:none" d="M3.578-.266c0-.25-.203-.25-.328-.25H3v-1.53c0-.72-.36-1.032-.938-1.032-.39 0-.671.172-.843.297v-1.14c0-.25-.047-.345-.313-.345h-.5c-.14 0-.328.016-.328.266s.203.266.313.266h.25v3.218H.406c-.14 0-.328 0-.328.25C.078 0 .281 0 .391 0h1.093c.11 0 .329 0 .329-.266 0-.25-.204-.25-.344-.25h-.25v-1.156c0-.64.484-.875.797-.875.328 0 .406.172.406.547v1.484h-.203c-.14 0-.344 0-.344.25 0 .266.219.266.344.266H3.25c.11 0 .328 0 .328-.266Zm0 0"/></symbol><symbol overflow="visible" id="w"><path style="stroke:none" d="M3.281-1.516c0-.89-.672-1.578-1.453-1.578-.797 0-1.453.688-1.453 1.578 0 .891.672 1.563 1.453 1.563.766 0 1.453-.688 1.453-1.563Zm-.578-.046c0 .593-.406 1.078-.875 1.078S.953-.97.953-1.563c0-.593.422-1.015.875-1.015s.875.422.875 1.015Zm0 0"/></symbol><symbol overflow="visible" id="x"><path style="stroke:none" d="M3.422-1.516c0-.875-.64-1.562-1.39-1.562-.298 0-.579.11-.813.265v-1.109c0-.25-.047-.344-.313-.344h-.5c-.14 0-.344.016-.344.266s.22.266.329.266h.25v3.406C.64-.172.656 0 .937 0c.22 0 .282-.094.282-.234.265.218.531.28.734.28.766 0 1.469-.671 1.469-1.562Zm-.578 0c0 .61-.453 1.032-.906 1.032-.485 0-.704-.563-.704-.875v-.485c0-.375.375-.703.766-.703.469 0 .844.469.844 1.031Zm0 0"/></symbol><symbol overflow="visible" id="y"><path style="stroke:none" d="M3.64-.266c0-.218-.14-.25-.39-.25v-1.593c0-.157-.016-.97-.656-.97a.842.842 0 0 0-.656.313.61.61 0 0 0-.532-.312.875.875 0 0 0-.547.203c-.046-.156-.187-.156-.312-.156H.328c-.125 0-.328 0-.328.25 0 .234.125.265.39.265v2c-.265 0-.39.032-.39.25C0 0 .219 0 .328 0h.594c.125 0 .312 0 .312-.266 0-.218-.109-.25-.359-.25v-1.171c0-.563.234-.86.5-.86.14 0 .203.11.203.5v1.531c-.156 0-.281.032-.281.25 0 .266.187.266.312.266h.516c.125 0 .313 0 .313-.266 0-.218-.126-.25-.376-.25v-1.171c0-.563.25-.86.5-.86.141 0 .204.11.204.5v1.531c-.141 0-.282.032-.282.25 0 .266.204.266.313.266h.5c.125 0 .344 0 .344-.266Zm0 0"/></symbol><symbol overflow="visible" id="z"><path style="stroke:none" d="M3.188-.266c0-.25-.204-.25-.329-.25h-.656v-2.187c0-.25-.047-.328-.328-.328H.906c-.125 0-.328 0-.328.25 0 .265.203.265.328.265h.719v2H.859c-.14 0-.343 0-.343.25C.516 0 .734 0 .859 0h2c.125 0 .329 0 .329-.266Zm-.954-3.562a.39.39 0 0 0-.406-.39.387.387 0 0 0-.39.39c0 .219.171.39.39.39a.39.39 0 0 0 .406-.39Zm0 0"/></symbol><symbol overflow="visible" id="A"><path style="stroke:none" d="M3.547-2.781c0-.25-.188-.25-.328-.25h-.781c-.157 0-.344 0-.344.25 0 .265.172.265.344.265h.265l-.297 1.72-.14-.532c-.125-.469-.172-.547-.422-.547-.094 0-.235 0-.328.188l-.266.906-.297-1.735h.266c.156 0 .343 0 .343-.265 0-.25-.187-.25-.343-.25H.437c-.14 0-.343 0-.343.25 0 .234.14.265.36.265L.858-.28c.032.187.047.312.36.312.312 0 .343-.062.453-.515l.172-.641.265 1c.094.14.235.156.344.156.281 0 .313-.125.344-.312l.406-2.235c.219 0 .344-.03.344-.265Zm0 0"/></symbol><symbol overflow="visible" id="B"><path style="stroke:none" d="M3.578-.266c0-.25-.219-.25-.328-.25H3v-2.187c0-.25-.047-.328-.328-.328h-.485c-.14 0-.343 0-.343.25 0 .265.218.265.328.265h.25v1.391c0 .563-.516.64-.719.64-.469 0-.484-.187-.484-.39v-1.828c0-.25-.047-.328-.313-.328h-.5c-.14 0-.328 0-.328.25 0 .265.203.265.313.265h.25v1.688c0 .687.5.875 1.03.875.266 0 .516-.063.766-.219C2.485 0 2.626 0 2.75 0h.5c.125 0 .328 0 .328-.266Zm0 0"/></symbol><symbol overflow="visible" id="C"><path style="stroke:none" d="M3.36-1.234c0-.47-.297-.875-.72-1.094.344-.25.516-.64.516-1 0-.516-.515-1-1.328-1-.86 0-1.344.36-1.344.844 0 .265.204.375.36.375.172 0 .36-.141.36-.36 0-.078-.032-.14-.048-.172.203-.171.625-.171.688-.171.422 0 .734.218.734.5a.718.718 0 0 1-.25.546c-.219.172-.375.188-.61.188-.437 0-.546.062-.546.281 0 .266.203.266.328.266h.313c.64 0 .968.422.968.797 0 .39-.36.78-.937.78-.25 0-.719-.062-.907-.327A.364.364 0 0 0 1-1a.363.363 0 0 0-.36-.36c-.171 0-.343.126-.343.391C.297-.344.969.078 1.844.078c.922 0 1.515-.656 1.515-1.312Zm0 0"/></symbol><symbol overflow="visible" id="D"><path style="stroke:none" d="M3.313-2.125c0-1.297-.72-2.203-1.485-2.203-.781 0-1.5.922-1.5 2.203 0 1.297.734 2.203 1.5 2.203.781 0 1.484-.922 1.484-2.203Zm-.563-.078c0 .969-.422 1.75-.922 1.75-.516 0-.922-.781-.922-1.75 0-.953.438-1.61.922-1.61.469 0 .922.657.922 1.61Zm0 0"/></symbol><clipPath id="a"><path d="M0 0h352.77v160.559H0Zm0 0"/></clipPath></defs><path style="stroke:none;fill-rule:nonzero;fill:#fffbb3;fill-opacity:1" d="M301.996 143.57c0-69.48-56.328-125.808-125.808-125.808-69.485 0-125.81 56.328-125.81 125.808Zm0 0"/><g clip-path="url(#a)"><path style="fill:none;stroke-width:14.17339;stroke-linecap:butt;stroke-linejoin:miter;stroke:#b2b2b2;stroke-opacity:1;stroke-miterlimit:10" d="M125.81-56.747C125.81 12.733 69.48 69.06 0 69.06c-69.484 0-125.808-56.328-125.808-125.808Zm0 0" transform="matrix(1 0 0 -1 176.187 86.823)"/></g><g style="fill:#b2b2b2;fill-opacity:1"><use xlink:href="#b" x="150.264" y="115.114"/><use xlink:href="#c" x="156.63" y="115.114"/><use xlink:href="#d" x="161.88" y="115.114"/><use xlink:href="#e" x="171.425" y="115.114"/><use xlink:href="#f" x="174.603" y="115.114"/><use xlink:href="#e" x="179.694" y="115.114"/><use xlink:href="#g" x="182.872" y="115.114"/><use xlink:href="#f" x="187.594" y="115.114"/><use xlink:href="#h" x="192.685" y="115.114"/><use xlink:href="#c" x="195.863" y="115.114"/></g><path style="fill:none;stroke-width:.996;stroke-linecap:butt;stroke-linejoin:miter;stroke:#b2b2b2;stroke-opacity:1;stroke-miterlimit:10" d="M.001.001v56.801" transform="matrix(1 0 0 -1 201.612 115.224)"/><path style="fill:none;stroke-width:.3985;stroke-linecap:butt;stroke-linejoin:miter;stroke:#000;stroke-opacity:1;stroke-miterlimit:10" d="m-1.41 74.737 2.82 2.816m-2.82 0 2.82-2.816" transform="matrix(1 0 0 -1 176.187 86.823)"/><g style="fill:#000;fill-opacity:1"><use xlink:href="#i" x="161.542" y="5.651"/><use xlink:href="#j" x="165.203" y="5.651"/><use xlink:href="#k" x="168.865" y="5.651"/><use xlink:href="#l" x="172.526" y="5.651"/><use xlink:href="#m" x="176.187" y="5.651"/><use xlink:href="#n" x="179.848" y="5.651"/><use xlink:href="#o" x="183.51" y="5.651"/><use xlink:href="#p" x="187.171" y="5.651"/></g><path style="fill:none;stroke-width:.3985;stroke-linecap:butt;stroke-linejoin:miter;stroke:#000;stroke-opacity:1;stroke-miterlimit:10" d="m131.485-65.243 2.82 2.816m-2.82 0 2.82-2.816" transform="matrix(1 0 0 -1 176.187 86.823)"/><g style="fill:#000;fill-opacity:1"><use xlink:href="#i" x="285.282" y="159.003"/><use xlink:href="#j" x="288.943" y="159.003"/><use xlink:href="#k" x="292.605" y="159.003"/><use xlink:href="#l" x="296.266" y="159.003"/><use xlink:href="#q" x="299.927" y="159.003"/><use xlink:href="#r" x="303.588" y="159.003"/></g><g style="fill:#000;fill-opacity:1"><use xlink:href="#j" x="310.904" y="159.003"/><use xlink:href="#s" x="314.565" y="159.003"/><use xlink:href="#l" x="318.226" y="159.003"/><use xlink:href="#q" x="321.888" y="159.003"/><use xlink:href="#s" x="325.549" y="159.003"/><use xlink:href="#p" x="329.21" y="159.003"/></g><path style="fill:none;stroke-width:.3985;stroke-linecap:butt;stroke-linejoin:miter;stroke:#000;stroke-opacity:1;stroke-miterlimit:10" d="m-134.304-65.243 2.82 2.816m-2.82 0 2.82-2.816" transform="matrix(1 0 0 -1 176.187 86.823)"/><g style="fill:#000;fill-opacity:1"><use xlink:href="#i" x="23.157" y="159.003"/><use xlink:href="#j" x="26.818" y="159.003"/><use xlink:href="#k" x="30.48" y="159.003"/><use xlink:href="#l" x="34.141" y="159.003"/><use xlink:href="#q" x="37.802" y="159.003"/><use xlink:href="#r" x="41.463" y="159.003"/></g><g style="fill:#000;fill-opacity:1"><use xlink:href="#n" x="48.786" y="159.003"/><use xlink:href="#t" x="52.447" y="159.003"/><use xlink:href="#u" x="56.108" y="159.003"/><use xlink:href="#p" x="59.77" y="159.003"/></g><path style="fill:none;stroke-width:.3985;stroke-linecap:butt;stroke-linejoin:miter;stroke:#000;stroke-opacity:1;stroke-miterlimit:10" d="m-1.41-65.243 2.82 2.816m-2.82 0 2.82-2.816" transform="matrix(1 0 0 -1 176.187 86.823)"/><g style="fill:#000;fill-opacity:1"><use xlink:href="#i" x="146.897" y="159.003"/><use xlink:href="#j" x="150.558" y="159.003"/><use xlink:href="#k" x="154.22" y="159.003"/><use xlink:href="#r" x="157.881" y="159.003"/><use xlink:href="#v" x="161.542" y="159.003"/><use xlink:href="#w" x="165.203" y="159.003"/><use xlink:href="#q" x="168.865" y="159.003"/><use xlink:href="#u" x="172.526" y="159.003"/></g><g style="fill:#000;fill-opacity:1"><use xlink:href="#r" x="179.848" y="159.003"/><use xlink:href="#n" x="183.51" y="159.003"/><use xlink:href="#t" x="187.171" y="159.003"/><use xlink:href="#s" x="190.832" y="159.003"/><use xlink:href="#n" x="194.494" y="159.003"/><use xlink:href="#q" x="198.155" y="159.003"/><use xlink:href="#p" x="201.816" y="159.003"/></g><path style="fill:none;stroke-width:.3985;stroke-linecap:butt;stroke-linejoin:miter;stroke:#000;stroke-opacity:1;stroke-miterlimit:10" d="m-1.41-1.407 2.82 2.816m-2.82 0 2.82-2.816" transform="matrix(1 0 0 -1 176.187 86.823)"/><g style="fill:#000;fill-opacity:1"><use xlink:href="#i" x="157.881" y="82.745"/><use xlink:href="#j" x="161.542" y="82.745"/><use xlink:href="#k" x="165.204" y="82.745"/><use xlink:href="#r" x="168.865" y="82.745"/><use xlink:href="#n" x="172.526" y="82.745"/><use xlink:href="#t" x="176.187" y="82.745"/><use xlink:href="#s" x="179.849" y="82.745"/><use xlink:href="#n" x="183.51" y="82.745"/><use xlink:href="#q" x="187.171" y="82.745"/><use xlink:href="#p" x="190.832" y="82.745"/></g><path style="fill:none;stroke-width:.3985;stroke-linecap:butt;stroke-linejoin:miter;stroke:#000;stroke-opacity:1;stroke-miterlimit:10" d="m-1.41-29.7 2.82 2.816m-2.82 0L1.41-29.7" transform="matrix(1 0 0 -1 176.187 86.823)"/><g style="fill:#000;fill-opacity:1"><use xlink:href="#i" x="161.542" y="123.46"/><use xlink:href="#j" x="165.203" y="123.46"/><use xlink:href="#k" x="168.865" y="123.46"/><use xlink:href="#x" x="172.526" y="123.46"/><use xlink:href="#l" x="176.187" y="123.46"/><use xlink:href="#j" x="179.848" y="123.46"/><use xlink:href="#n" x="183.51" y="123.46"/><use xlink:href="#p" x="187.171" y="123.46"/></g><path style="fill:none;stroke-width:.3985;stroke-linecap:butt;stroke-linejoin:miter;stroke:#000;stroke-opacity:1;stroke-miterlimit:10" d="m-1.41-27.49 2.82 2.817m-2.82 0 2.82-2.817" transform="matrix(1 0 0 -1 176.187 86.823)"/><g style="fill:#000;fill-opacity:1"><use xlink:href="#i" x="179.707" y="115.037"/><use xlink:href="#j" x="183.368" y="115.037"/><use xlink:href="#k" x="187.03" y="115.037"/><use xlink:href="#y" x="190.691" y="115.037"/><use xlink:href="#z" x="194.352" y="115.037"/><use xlink:href="#u" x="198.013" y="115.037"/><use xlink:href="#p" x="201.675" y="115.037"/></g><path style="fill:none;stroke-width:.3985;stroke-linecap:butt;stroke-linejoin:miter;stroke:#000;stroke-opacity:1;stroke-miterlimit:10" d="m-27.332-29.7 2.817 2.816m-2.817 0 2.817-2.816" transform="matrix(1 0 0 -1 176.187 86.823)"/><g style="fill:#000;fill-opacity:1"><use xlink:href="#i" x="117.454" y="117.248"/><use xlink:href="#j" x="121.115" y="117.248"/><use xlink:href="#k" x="124.777" y="117.248"/><use xlink:href="#s" x="128.438" y="117.248"/><use xlink:href="#n" x="132.099" y="117.248"/><use xlink:href="#o" x="135.76" y="117.248"/><use xlink:href="#s" x="139.422" y="117.248"/><use xlink:href="#p" x="143.083" y="117.248"/></g><path style="fill:none;stroke-width:.3985;stroke-linecap:butt;stroke-linejoin:miter;stroke:#000;stroke-opacity:1;stroke-miterlimit:10" d="m-131.218-29.72 2.816 2.816m-2.816 0 2.816-2.816" transform="matrix(1 0 0 -1 176.187 86.823)"/><g style="fill:#000;fill-opacity:1"><use xlink:href="#i" x="22.58" y="123.48"/><use xlink:href="#j" x="26.241" y="123.48"/><use xlink:href="#k" x="29.903" y="123.48"/><use xlink:href="#x" x="33.564" y="123.48"/><use xlink:href="#l" x="37.225" y="123.48"/><use xlink:href="#j" x="40.886" y="123.48"/><use xlink:href="#n" x="44.548" y="123.48"/></g><g style="fill:#000;fill-opacity:1"><use xlink:href="#A" x="51.87" y="123.48"/><use xlink:href="#n" x="55.531" y="123.48"/><use xlink:href="#j" x="59.193" y="123.48"/><use xlink:href="#s" x="62.854" y="123.48"/><use xlink:href="#p" x="66.515" y="123.48"/></g><path style="fill:none;stroke-width:.3985;stroke-linecap:butt;stroke-linejoin:miter;stroke:#000;stroke-opacity:1;stroke-miterlimit:10" d="m128.403-29.72 2.816 2.816m-2.816 0 2.816-2.816" transform="matrix(1 0 0 -1 176.187 86.823)"/><g style="fill:#000;fill-opacity:1"><use xlink:href="#i" x="282.197" y="123.48"/><use xlink:href="#j" x="285.858" y="123.48"/><use xlink:href="#k" x="289.52" y="123.48"/><use xlink:href="#x" x="293.181" y="123.48"/><use xlink:href="#l" x="296.842" y="123.48"/><use xlink:href="#j" x="300.503" y="123.48"/><use xlink:href="#n" x="304.165" y="123.48"/></g><g style="fill:#000;fill-opacity:1"><use xlink:href="#n" x="311.487" y="123.48"/><use xlink:href="#l" x="315.148" y="123.48"/><use xlink:href="#j" x="318.81" y="123.48"/><use xlink:href="#s" x="322.471" y="123.48"/><use xlink:href="#p" x="326.132" y="123.48"/></g><path style="fill:none;stroke-width:.3985;stroke-linecap:butt;stroke-linejoin:miter;stroke:#000;stroke-opacity:1;stroke-miterlimit:10" d="m-130.714-27.513 2.816 2.816m-2.816 0 2.816-2.816" transform="matrix(1 0 0 -1 176.187 86.823)"/><g style="fill:#000;fill-opacity:1"><use xlink:href="#i" x="-.571" y="115.06"/><use xlink:href="#j" x="3.09" y="115.06"/><use xlink:href="#k" x="6.752" y="115.06"/><use xlink:href="#y" x="10.413" y="115.06"/><use xlink:href="#z" x="14.074" y="115.06"/><use xlink:href="#u" x="17.735" y="115.06"/></g><g style="fill:#000;fill-opacity:1"><use xlink:href="#A" x="25.051" y="115.06"/><use xlink:href="#n" x="28.712" y="115.06"/><use xlink:href="#j" x="32.373" y="115.06"/><use xlink:href="#s" x="36.035" y="115.06"/><use xlink:href="#p" x="39.696" y="115.06"/></g><path style="fill:none;stroke-width:.3985;stroke-linecap:butt;stroke-linejoin:miter;stroke:#000;stroke-opacity:1;stroke-miterlimit:10" d="m127.895-27.513 2.82 2.816m-2.82 0 2.82-2.816" transform="matrix(1 0 0 -1 176.187 86.823)"/><g style="fill:#000;fill-opacity:1"><use xlink:href="#i" x="309.01" y="115.06"/><use xlink:href="#j" x="312.671" y="115.06"/><use xlink:href="#k" x="316.333" y="115.06"/><use xlink:href="#y" x="319.994" y="115.06"/><use xlink:href="#z" x="323.655" y="115.06"/><use xlink:href="#u" x="327.316" y="115.06"/></g><g style="fill:#000;fill-opacity:1"><use xlink:href="#n" x="334.639" y="115.06"/><use xlink:href="#l" x="338.3" y="115.06"/><use xlink:href="#j" x="341.961" y="115.06"/><use xlink:href="#s" x="345.623" y="115.06"/><use xlink:href="#p" x="349.284" y="115.06"/></g><path style="fill:none;stroke-width:.3985;stroke-linecap:butt;stroke-linejoin:miter;stroke:#000;stroke-opacity:1;stroke-miterlimit:10" d="m-1.41 74.737 2.82 2.816m-2.82 0 2.82-2.816" transform="matrix(1 0 0 -1 176.187 86.823)"/><g style="fill:#000;fill-opacity:1"><use xlink:href="#i" x="159.711" y="19.023"/><use xlink:href="#j" x="163.372" y="19.023"/><use xlink:href="#k" x="167.034" y="19.023"/><use xlink:href="#t" x="170.695" y="19.023"/><use xlink:href="#w" x="174.356" y="19.023"/><use xlink:href="#q" x="178.017" y="19.023"/><use xlink:href="#s" x="181.679" y="19.023"/><use xlink:href="#v" x="185.34" y="19.023"/><use xlink:href="#p" x="189.001" y="19.023"/></g><path style="fill:none;stroke-width:.3985;stroke-linecap:butt;stroke-linejoin:miter;stroke:#000;stroke-opacity:1;stroke-miterlimit:10" d="m-1.406-65.251 2.82 2.82m-2.82 0 2.82-2.82" transform="matrix(1 0 0 -1 176.187 86.823)"/><g style="fill:#000;fill-opacity:1"><use xlink:href="#i" x="159.716" y="146.585"/><use xlink:href="#j" x="163.377" y="146.585"/><use xlink:href="#k" x="167.039" y="146.585"/><use xlink:href="#j" x="170.7" y="146.585"/><use xlink:href="#w" x="174.361" y="146.585"/><use xlink:href="#B" x="178.022" y="146.585"/><use xlink:href="#s" x="181.684" y="146.585"/><use xlink:href="#v" x="185.345" y="146.585"/><use xlink:href="#p" x="189.006" y="146.585"/></g><path style="fill:none;stroke-width:.3985;stroke-linecap:butt;stroke-linejoin:miter;stroke:#000;stroke-opacity:1;stroke-miterlimit:10" d="m118.77-1.45 2.82 2.82m-2.82 0 2.82-2.82" transform="matrix(1 0 0 -1 176.187 86.823)"/><g style="fill:#000;fill-opacity:1"><use xlink:href="#i" x="281.721" y="82.786"/><use xlink:href="#j" x="285.382" y="82.786"/><use xlink:href="#k" x="289.044" y="82.786"/><use xlink:href="#n" x="292.705" y="82.786"/><use xlink:href="#l" x="296.366" y="82.786"/><use xlink:href="#j" x="300.027" y="82.786"/><use xlink:href="#s" x="303.689" y="82.786"/><use xlink:href="#p" x="307.35" y="82.786"/></g><path style="fill:none;stroke-width:.3985;stroke-linecap:butt;stroke-linejoin:miter;stroke:#000;stroke-opacity:1;stroke-miterlimit:10" d="m-121.59-1.45 2.817 2.82m-2.816 0 2.816-2.82" transform="matrix(1 0 0 -1 176.187 86.823)"/><g style="fill:#000;fill-opacity:1"><use xlink:href="#i" x="41.364" y="82.786"/><use xlink:href="#j" x="45.025" y="82.786"/><use xlink:href="#k" x="48.687" y="82.786"/><use xlink:href="#A" x="52.348" y="82.786"/><use xlink:href="#n" x="56.009" y="82.786"/><use xlink:href="#j" x="59.67" y="82.786"/><use xlink:href="#s" x="63.332" y="82.786"/><use xlink:href="#p" x="66.993" y="82.786"/></g><path style="fill:none;stroke-width:.3985;stroke-linecap:butt;stroke-linejoin:miter;stroke:#000;stroke-opacity:1;stroke-miterlimit:10" d="m-62.64 59.784 2.82 2.816m-2.82 0 2.82-2.816" transform="matrix(1 0 0 -1 176.187 86.823)"/><g style="fill:#000;fill-opacity:1"><use xlink:href="#i" x="60.181" y="21.553"/><use xlink:href="#j" x="63.842" y="21.553"/><use xlink:href="#k" x="67.504" y="21.553"/><use xlink:href="#t" x="71.165" y="21.553"/><use xlink:href="#w" x="74.826" y="21.553"/><use xlink:href="#q" x="78.487" y="21.553"/><use xlink:href="#s" x="82.149" y="21.553"/><use xlink:href="#v" x="85.81" y="21.553"/></g><g style="fill:#000;fill-opacity:1"><use xlink:href="#A" x="93.132" y="21.553"/><use xlink:href="#n" x="96.794" y="21.553"/><use xlink:href="#j" x="100.455" y="21.553"/><use xlink:href="#s" x="104.116" y="21.553"/><use xlink:href="#p" x="107.778" y="21.553"/></g><path style="fill:none;stroke-width:.3985;stroke-linecap:butt;stroke-linejoin:miter;stroke:#000;stroke-opacity:1;stroke-miterlimit:10" d="m59.82 59.784 2.817 2.816m-2.816 0 2.816-2.816" transform="matrix(1 0 0 -1 176.187 86.823)"/><g style="fill:#000;fill-opacity:1"><use xlink:href="#i" x="240.936" y="21.553"/><use xlink:href="#j" x="244.597" y="21.553"/><use xlink:href="#k" x="248.259" y="21.553"/><use xlink:href="#t" x="251.92" y="21.553"/><use xlink:href="#w" x="255.581" y="21.553"/><use xlink:href="#q" x="259.242" y="21.553"/><use xlink:href="#s" x="262.904" y="21.553"/><use xlink:href="#v" x="266.565" y="21.553"/></g><g style="fill:#000;fill-opacity:1"><use xlink:href="#n" x="273.887" y="21.553"/><use xlink:href="#l" x="277.549" y="21.553"/><use xlink:href="#j" x="281.21" y="21.553"/><use xlink:href="#s" x="284.871" y="21.553"/><use xlink:href="#p" x="288.533" y="21.553"/></g><path style="fill:none;stroke-width:.3985;stroke-linecap:butt;stroke-linejoin:miter;stroke:#000;stroke-opacity:1;stroke-miterlimit:10" d="m-65.246-65.247 2.817 2.816m-2.817 0 2.817-2.816" transform="matrix(1 0 0 -1 176.187 86.823)"/><g style="fill:#000;fill-opacity:1"><use xlink:href="#i" x="86.721" y="159.005"/><use xlink:href="#j" x="90.382" y="159.005"/><use xlink:href="#k" x="94.044" y="159.005"/><use xlink:href="#j" x="97.705" y="159.005"/><use xlink:href="#w" x="101.366" y="159.005"/><use xlink:href="#B" x="105.027" y="159.005"/><use xlink:href="#s" x="108.689" y="159.005"/><use xlink:href="#v" x="112.35" y="159.005"/></g><g style="fill:#000;fill-opacity:1"><use xlink:href="#A" x="119.672" y="159.005"/><use xlink:href="#n" x="123.334" y="159.005"/><use xlink:href="#j" x="126.995" y="159.005"/><use xlink:href="#s" x="130.656" y="159.005"/><use xlink:href="#p" x="134.318" y="159.005"/></g><path style="fill:none;stroke-width:.3985;stroke-linecap:butt;stroke-linejoin:miter;stroke:#000;stroke-opacity:1;stroke-miterlimit:10" d="m62.434-65.247 2.817 2.816m-2.817 0 2.817-2.816" transform="matrix(1 0 0 -1 176.187 86.823)"/><g style="fill:#000;fill-opacity:1"><use xlink:href="#i" x="214.4" y="159.005"/><use xlink:href="#j" x="218.061" y="159.005"/><use xlink:href="#k" x="221.723" y="159.005"/><use xlink:href="#j" x="225.384" y="159.005"/><use xlink:href="#w" x="229.045" y="159.005"/><use xlink:href="#B" x="232.706" y="159.005"/><use xlink:href="#s" x="236.368" y="159.005"/><use xlink:href="#v" x="240.029" y="159.005"/></g><g style="fill:#000;fill-opacity:1"><use xlink:href="#n" x="247.351" y="159.005"/><use xlink:href="#l" x="251.013" y="159.005"/><use xlink:href="#j" x="254.674" y="159.005"/><use xlink:href="#s" x="258.335" y="159.005"/><use xlink:href="#p" x="261.997" y="159.005"/></g><path style="fill:none;stroke-width:.3985;stroke-linecap:butt;stroke-linejoin:miter;stroke:#000;stroke-opacity:1;stroke-miterlimit:10" d="m80.973 46.112 2.817 2.82m-2.817 0 2.817-2.82" transform="matrix(1 0 0 -1 176.187 86.823)"/><g style="fill:#000;fill-opacity:1"><use xlink:href="#i" x="262.088" y="41.436"/><use xlink:href="#j" x="265.749" y="41.436"/><use xlink:href="#k" x="269.411" y="41.436"/><use xlink:href="#C" x="273.072" y="41.436"/><use xlink:href="#D" x="276.733" y="41.436"/><use xlink:href="#p" x="280.394" y="41.436"/></g></svg>