<svg xmlns="http://www.w3.org/2000/svg" xmlns:xlink="http://www.w3.org/1999/xlink" width="143.451" height="132.939" viewBox="0 0 107.588 99.704" version="1.2"><defs><symbol overflow="visible" id="b"><path style="stroke:none" d="M1.11-4.484c.109.03.421.125.765.125 1 0 1.594-.704 1.594-.829 0-.093-.047-.109-.094-.109-.016 0-.031 0-.094.031a2.982 2.982 0 0 1-1.11.22c-.468 0-.858-.11-1.108-.22-.079-.03-.094-.03-.11-.03-.094 0-.094.077-.094.234v2.328c0 .14 0 .234.125.234.063 0 .079-.031.125-.094.094-.11.391-.515 1.079-.515.437 0 .656.359.734.515.125.281.14.656.14.953 0 .297 0 .735-.218 1.079-.156.25-.485.484-.906.484A1.271 1.271 0 0 1 .734-.922c.016.016.079.016.079.016.218 0 .406-.14.406-.39a.388.388 0 0 0-.39-.407c-.157 0-.407.078-.407.422 0 .718.625 1.453 1.531 1.453 1 0 1.844-.781 1.844-1.766 0-.922-.672-1.75-1.61-1.75-.39 0-.765.125-1.078.406Zm0 0"/></symbol><symbol overflow="visible" id="c"><path style="stroke:none" d="M1.094-2.64c0-.657.062-1.235.343-1.72.25-.406.657-.734 1.157-.734.156 0 .515.032.703.297-.36.031-.39.297-.39.375 0 .25.187.375.374.375.14 0 .375-.078.375-.39 0-.47-.36-.86-1.078-.86C1.468-5.297.344-4.25.344-2.53.344-.36 1.359.172 2.125.172c.39 0 .797-.11 1.156-.453.328-.313.594-.64.594-1.344 0-1.031-.797-1.766-1.672-1.766-.578 0-.922.36-1.11.75ZM2.125-.079a.88.88 0 0 1-.797-.516c-.187-.36-.203-.89-.203-1.203 0-.781.422-1.375 1.047-1.375.39 0 .64.203.781.485.172.296.172.656.172 1.062s0 .75-.156 1.047c-.219.36-.485.5-.844.5Zm0 0"/></symbol><symbol overflow="visible" id="d"><path style="stroke:none" d="M4.031-4.86c.078-.077.078-.093.078-.265H2.08a8.79 8.79 0 0 1-.642-.031c-.421-.032-.421-.11-.453-.235h-.25L.47-3.703h.25c.015-.125.11-.672.219-.735.078-.046.687-.046.796-.046h1.688l-.813 1.109C1.703-2.172 1.5-.906 1.5-.281c0 .078 0 .453.375.453s.375-.36.375-.453v-.39c0-1.141.203-2.079.594-2.61Zm0 0"/></symbol><symbol overflow="visible" id="e"><path style="stroke:none" d="M2.64-2.875c.454-.219 1-.61 1-1.234 0-.766-.78-1.188-1.515-1.188-.844 0-1.531.578-1.531 1.328 0 .297.094.563.297.797.14.172.171.188.656.5C.563-2.234.344-1.656.344-1.219c0 .89.89 1.39 1.765 1.39.97 0 1.766-.671 1.766-1.515 0-.5-.266-.828-.406-.968-.125-.126-.14-.141-.828-.563Zm-1.234-.75c-.234-.14-.422-.375-.422-.64 0-.5.547-.829 1.125-.829.61 0 1.125.422 1.125.985 0 .453-.359.843-.828 1.078Zm.39 1.094c.032.015.938.578 1.079.656.125.078.547.328.547.813 0 .609-.656.984-1.297.984-.719 0-1.313-.484-1.313-1.14 0-.595.438-1.063.985-1.313Zm0 0"/></symbol><symbol overflow="visible" id="f"><path style="stroke:none" d="M3.125-2.344c0 1.938-.922 2.266-1.39 2.266-.173 0-.579-.016-.798-.266.36-.031.375-.297.375-.375a.37.37 0 0 0-.375-.375.37.37 0 0 0-.375.39c0 .548.454.876 1.188.876 1.094 0 2.125-1.094 2.125-2.797 0-2.063-.922-2.672-1.734-2.672-.954 0-1.797.734-1.797 1.781 0 1.016.781 1.766 1.687 1.766.563 0 .906-.36 1.094-.766Zm-1.063.375c-.374 0-.609-.172-.78-.468-.188-.282-.188-.672-.188-1.079 0-.468 0-.796.218-1.125.204-.296.454-.453.829-.453.53 0 .765.532.796.563.157.39.172 1.015.172 1.172 0 .64-.343 1.39-1.046 1.39Zm0 0"/></symbol><symbol overflow="visible" id="g"><path style="stroke:none" d="M2.5-5.078c0-.219-.016-.219-.234-.219-.329.313-.75.5-1.5.5v.266c.218 0 .64 0 1.109-.203v4.078c0 .297-.031.39-.781.39H.812V0c.329-.031 1.016-.031 1.375-.031.36 0 1.047 0 1.376.031v-.266H3.28c-.75 0-.781-.093-.781-.39Zm0 0"/></symbol><symbol overflow="visible" id="h"><path style="stroke:none" d="M3.89-2.547c0-.844-.078-1.36-.343-1.875-.344-.703-1-.875-1.438-.875-1 0-1.375.75-1.484.969C.344-3.75.328-2.953.328-2.547c0 .531.016 1.328.406 1.969.36.594.954.75 1.375.75.391 0 1.063-.125 1.47-.906.296-.579.312-1.297.312-1.813ZM2.11-.062c-.266 0-.813-.126-.985-.954-.094-.453-.094-1.203-.094-1.625 0-.546 0-1.109.094-1.546.172-.813.781-.891.984-.891.266 0 .829.14.985.86.094.437.094 1.046.094 1.577 0 .47 0 1.188-.094 1.641-.172.828-.719.938-.985.938Zm0 0"/></symbol><symbol overflow="visible" id="i"><path style="stroke:none" d="M2.016-2.656c.625 0 1.03.453 1.03 1.297 0 1-.562 1.28-.983 1.28-.438 0-1.047-.155-1.329-.577.297 0 .5-.188.5-.438 0-.265-.187-.437-.453-.437-.203 0-.437.125-.437.453 0 .75.812 1.25 1.734 1.25 1.047 0 1.797-.734 1.797-1.531 0-.672-.531-1.266-1.344-1.454.625-.218 1.11-.75 1.11-1.39 0-.64-.72-1.094-1.547-1.094-.86 0-1.5.453-1.5 1.063 0 .296.187.421.406.421.25 0 .406-.171.406-.406 0-.297-.265-.406-.437-.406.344-.438.953-.469 1.094-.469.203 0 .812.063.812.89 0 .548-.234.891-.344 1.016-.234.25-.422.266-.906.297-.156 0-.219.016-.219.125 0 .11.078.11.219.11Zm0 0"/></symbol><symbol overflow="visible" id="j"><path style="stroke:none" d="M3.14-5.156c0-.157 0-.219-.171-.219-.094 0-.11 0-.188.11L.234-1.564v.25h2.25v.672c0 .297-.015.375-.64.375h-.172V0c.672-.031.687-.031 1.14-.031.454 0 .47 0 1.141.031v-.266h-.172c-.625 0-.64-.078-.64-.375v-.671h.843v-.25h-.843Zm-.593.64v2.954H.516Zm0 0"/></symbol><clipPath id="a"><path d="M8 0h99.383v98H8Zm0 0"/></clipPath></defs><path style="fill:none;stroke-width:.3985;stroke-linecap:butt;stroke-linejoin:miter;stroke:#bfbfbf;stroke-opacity:1;stroke-dasharray:2.98883,1.99255;stroke-miterlimit:10" d="M0 0v85.039M17.008 0v85.039M34.016 0v85.039M51.024 0v85.039M68.035 0v85.039M85.043 0v85.039M0 5.668h85.04M0 17.008h85.04M0 28.347h85.04M0 39.687h85.04M0 51.027h85.04M0 62.367h85.04M0 73.703h85.04M0 85.043h85.04" transform="matrix(1 0 0 -1 17.449 88.613)"/><path style="fill:none;stroke-width:.3985;stroke-linecap:round;stroke-linejoin:miter;stroke:gray;stroke-opacity:1;stroke-miterlimit:10" d="M0-1.992V0M17.008-1.992V0M34.016-1.992V0M51.024-1.992V0M68.035-1.992V0M85.043-1.992V0M0 85.039v1.996M17.008 85.039v1.996M34.016 85.039v1.996M51.024 85.039v1.996M68.035 85.039v1.996M85.043 85.039v1.996M-1.992 5.668H0M-1.992 17.008H0M-1.992 28.347H0M-1.992 39.687H0M-1.992 51.027H0M-1.992 62.367H0M-1.992 73.703H0M-1.992 85.043H0M85.04 5.668h1.991M85.04 17.008h1.991M85.04 28.347h1.991M85.04 39.687h1.991M85.04 51.027h1.991M85.04 62.367h1.991M85.04 73.703h1.991M85.04 85.043h1.991" transform="matrix(1 0 0 -1 17.449 88.613)"/><path style="fill:none;stroke-width:.3985;stroke-linecap:butt;stroke-linejoin:miter;stroke:gray;stroke-opacity:1;stroke-miterlimit:10" d="M0 0h85.04M0 85.039h85.04M0 0v85.039M85.04 0v85.039" transform="matrix(1 0 0 -1 17.449 88.613)"/><g clip-path="url(#a)"><path style="fill:none;stroke-width:.59776;stroke-linecap:butt;stroke-linejoin:miter;stroke:#000;stroke-opacity:1;stroke-miterlimit:10" d="m0 0 3.543 2.41 3.543 2.512L10.63 7.53l3.543 2.707 3.543 2.805 3.547 2.902 3.543 3.004 3.543 3.098 3.543 3.199 3.543 3.297 3.543 3.398 3.543 3.492 3.543 3.594 3.543 3.691 3.543 3.79 3.543 3.886 3.547 3.989 3.542 4.082 3.543 4.183 3.543 4.281 3.543 4.38 3.543 4.48 3.543 4.578 3.543 4.672" transform="matrix(1 0 0 -1 17.449 88.613)"/></g><use xlink:href="#b" x="15.332" y="98.398" style="fill:#000;fill-opacity:1"/><use xlink:href="#c" x="32.34" y="98.398" style="fill:#000;fill-opacity:1"/><use xlink:href="#d" x="49.349" y="98.398" style="fill:#000;fill-opacity:1"/><use xlink:href="#e" x="66.357" y="98.398" style="fill:#000;fill-opacity:1"/><use xlink:href="#f" x="83.365" y="98.398" style="fill:#000;fill-opacity:1"/><g style="fill:#000;fill-opacity:1"><use xlink:href="#g" x="98.256" y="98.398"/><use xlink:href="#h" x="102.491" y="98.398"/></g><g style="fill:#000;fill-opacity:1"><use xlink:href="#i" x="4.332" y="85.511"/><use xlink:href="#h" x="8.567" y="85.511"/></g><g style="fill:#000;fill-opacity:1"><use xlink:href="#j" x="4.332" y="74.172"/><use xlink:href="#h" x="8.567" y="74.172"/></g><g style="fill:#000;fill-opacity:1"><use xlink:href="#b" x="4.332" y="62.833"/><use xlink:href="#h" x="8.567" y="62.833"/></g><g style="fill:#000;fill-opacity:1"><use xlink:href="#c" x="4.332" y="51.494"/><use xlink:href="#h" x="8.567" y="51.494"/></g><g style="fill:#000;fill-opacity:1"><use xlink:href="#d" x="4.332" y="40.155"/><use xlink:href="#h" x="8.567" y="40.155"/></g><g style="fill:#000;fill-opacity:1"><use xlink:href="#e" x="4.332" y="28.817"/><use xlink:href="#h" x="8.567" y="28.817"/></g><g style="fill:#000;fill-opacity:1"><use xlink:href="#f" x="4.332" y="17.478"/><use xlink:href="#h" x="8.567" y="17.478"/></g><g style="fill:#000;fill-opacity:1"><use xlink:href="#g" x=".098" y="6.139"/><use xlink:href="#h" x="4.333" y="6.139"/><use xlink:href="#h" x="8.567" y="6.139"/></g></svg>