<svg xmlns="http://www.w3.org/2000/svg" xmlns:xlink="http://www.w3.org/1999/xlink" width="184.692" height="191.691" viewBox="0 0 138.519 143.768" version="1.2"><defs><symbol overflow="visible" id="a"><path style="stroke:none" d="M4.922 0v-.469h-1.39v-5.734c0-.234 0-.328-.266-.328-.11 0-.125 0-.22.078-.765.562-1.796.562-2 .562H.845v.47h.203c.156 0 .703-.016 1.297-.204v5.156H.954V0c.437-.031 1.5-.031 1.984-.031s1.546 0 1.984.031Zm0 0"/></symbol><symbol overflow="visible" id="b"><path style="stroke:none" d="m5.469 1.234-.375-.28c-.14.155-.594.624-.75.577-.125-.015-.735-.453-.86-.547L2.297.125A92.171 92.171 0 0 1 4.14.047C5.562.047 6.344.03 6.906-.72c.672-.937.266-2.14-.86-2.969-.984-.718-2.124-.765-2.64-.046-.36.484-.047.875.14 1.015.267.203.72.25 1.017-.156.296-.422.046-.797-.047-.906.375-.016.75.11 1.046.328.688.5.672 1.312.235 1.922-.406.547-1.125.89-2.11 1.047L.86-.016C.688 0 .672.031.547.188l-.094.14 3.469 2.516Zm0 0"/></symbol><symbol overflow="visible" id="c"><path style="stroke:none" d="M1.234 5.406c.547.063 1.438-.156 1.891-1.531.14.703.61 1.469 1.469 1.547.765.094 1.468-.578 1.625-1.984.11-1.188-.438-2.032-1.235-2.11a.686.686 0 0 0-.78.594c-.048.453.25.75.609.781.578.063.75-.469.765-.5.25.375.281.813.25 1.125-.094.828-.734.797-1.062.766-.125-.016-1.422-.172-1.375-1.203.03-.422.03-.454.015-.5 0-.094-.094-.125-.156-.141-.172-.016-.172.094-.203.266L3 2.953c-.11 1.094-1.094.985-1.61.938C.939 3.844-.077 3.734.032 2.703c.032-.265.125-.781.469-1.219.063.329.297.61.703.641.438.047.766-.234.813-.656.03-.422-.188-.782-.672-.844-.907-.094-1.61.797-1.735 2.078-.187 1.766.735 2.61 1.625 2.703Zm0 0"/></symbol><symbol overflow="visible" id="d"><path style="stroke:none" d="m-3.625 4.016.344.312.656-.719.813.735-.657.718.36.313.656-.719 3.11 2.797c.187.188.25.203.437 0 .14-.156.14-.156.094-.36l-.876-5.5-.359-.312-1.922 2.14-.812-.733.734-.829-.344-.312c-.234.297-.843.969-1.125 1.281-.265.297-.843.938-1.109 1.188Zm2.938-.204 1.64-1.828.64 3.891Zm0 0"/></symbol><symbol overflow="visible" id="e"><path style="stroke:none" d="M4.313 3.469c1-.578 1.406-1.735.671-3.016-.14-.234-.437-.687-.937-.937l1.14-.657c.094.282.11.391.282.672.718 1.266 2.172 1.5 2.39 1.375.063-.047.141-.11.079-.219-.016-.03-.016-.03-.11-.109a3.923 3.923 0 0 1-1-1.187c-.375-.641-.469-1.204-.547-1.485-.015-.094 0-.094-.015-.11-.063-.124-.157-.077-.297 0L3.437-.733c-.14.078-.25.14-.14.328.062.11.11.125.203.14.594.11.938.516 1.14.875.454.766-.296 1.204-1 1.594-.624.375-1.5.875-2.093-.156-.125-.219-.375-.781-.11-1.438.204.297.563.438.907.235.469-.266.36-.719.25-.922-.078-.11-.422-.531-.953-.234-.72.421-1.063 1.53-.438 2.609C2 3.672 3.25 4.078 4.313 3.469Zm0 0"/></symbol><symbol overflow="visible" id="f"><path style="stroke:none" d="M.328 5.625c1.313.438 2.328-.297 2.703-1.438.063-.218.25-.75-.36-1.406l.188.063c1.079.36 1.422.703 1.532.797.375.39.562 1 .375 1.578-.063.156-.188.484-.485.64.063-.359-.125-.625-.406-.718a.635.635 0 0 0-.813.406c-.109.375.079.672.422.781.594.203 1.329 0 1.657-1 .421-1.297.093-3.125-2.297-3.906-.735-.234-1.516-.406-2.297-.203-.875.187-1.344.843-1.547 1.515-.438 1.313.047 2.485 1.328 2.891Zm.438-1.281c-.954-.313-1.672-.547-1.36-1.516.156-.484.625-.625.797-.64.344-.063 1.031.171 1.203.218 1.203.39 1.485 1.047 1.313 1.563-.297.906-1.016.687-1.953.375Zm0 0"/></symbol><symbol overflow="visible" id="g"><path style="stroke:none" d="m-4.11 7.438 1.985-.422c.234-.047 1.688-.313 1.828-.297.203 0 .234.093.281.172l.454-.094L.25 4.25l-.453.094c.062.765-.031.922-.078.937-.094.094-.89.266-1.063.297l-1.625.344c.125-.25.25-.5.39-.734.704-1.313 1.126-2.766.829-4.204-.14-.687-.703-.578-.75-.562-.156.031-.625.172-.484.812l.093.47c.094.452.172.937.22 1.405.046.688-.032 1.282-.313 1.75L-4.11 6.953c-.079.125-.063.14 0 .484Zm0 0"/></symbol><symbol overflow="visible" id="h"><path style="stroke:none" d="M-2.14 5.156c.812.719 1.718.407 2.25.235-.188.734-.079 1.265.359 1.656.75.672 1.703.312 2.469-.531.921-1.032.796-2.079.078-2.72-.313-.296-.907-.577-1.75-.296.28-.875.14-1.578-.391-2.063-.906-.812-2-.359-2.86.594-1.062 1.188-.968 2.39-.156 3.125ZM.952 6.47C.593 6.14.516 5.75.593 5.234l1.626-.562c.172-.063.484-.156.75.078.515.469-.031 1.172-.313 1.469-.547.625-1.187.718-1.703.25ZM-1.969 4.14c-.61-.547-.11-1.375.282-1.797.64-.719 1.406-.813 2-.281.562.515.53 1.187.437 1.609l-1.469.484c-.484.172-.89.313-1.25-.015Zm0 0"/></symbol><symbol overflow="visible" id="i"><path style="stroke:none" d="M4.75 3.984c.64-.203 3.094-1 2.36-3.265C6.671-.625 5.593-1.312 4.327-.906 3.031-.484 2.61.688 2.984 1.859c.11.329.329.766 1.11.907l-.219.062c-.703.235-1.281.313-1.656.297-.406-.047-.985-.328-1.188-.969a1.68 1.68 0 0 1-.062-.875c.062.11.328.422.75.282.328-.11.515-.422.406-.782C2 .406 1.672.266 1.312.375.672.594.282 1.25.625 2.297c.406 1.219 1.703 2.469 4.125 1.687Zm.516-1.609c-.594.188-1.641.266-1.907-.547C3.063.922 3.766.688 4.703.391c.938-.313 1.703-.547 2.031.484.188.547-.25.922-.328 1-.265.203-.812.39-1.14.5Zm0 0"/></symbol><symbol overflow="visible" id="l"><path style="stroke:none" d="M-4.922 0v.469h1.39v5.734c0 .234 0 .328.266.328.11 0 .125 0 .22-.078.765-.562 1.796-.562 2-.562h.202v-.47h-.203c-.156 0-.703.016-1.297.204V.469h1.39V0c-.437.031-1.5.031-1.984.031S-4.484.031-4.921 0Zm0 0"/></symbol><symbol overflow="visible" id="m"><path style="stroke:none" d="M-5.281 3.188c0 .953.015 3.343 2.422 3.343 2.406 0 2.406-2.375 2.406-3.343 0-1 0-3.297-2.406-3.297-2.391 0-2.422 2.296-2.422 3.296ZM-4 3.296c0-.563 0-1.469.078-1.985C-3.782.391-3.156.25-2.859.25c.359 0 .921.219 1.046.953.094.516.094 1.547.094 2.094 0 .719 0 1.375-.078 1.89-.125.891-.828.985-1.062.985-.375 0-.782-.188-.97-.625C-4 5.172-4 4.109-4 3.297Zm0 0"/></symbol><symbol overflow="visible" id="H"><path style="stroke:none" d="M-5.156 2.219h.468c.032-.203.125-.844.266-.906.11-.063.86-.063 1.016-.063h1.469c-.47.39-1 .813-1.438 1.14-1.14.844-1.781 1.313-1.781 2.25 0 1.157 1.047 1.891 2.437 1.891 1.219 0 2.156-.625 2.156-1.515 0-.594-.484-.735-.718-.735C-1.61 4.281-2 4.5-2 5c0 .516.422.672.563.719-.282.234-.672.343-1.032.343-.844 0-1.312-.671-1.312-1.421 0-.688.375-1.375 1.078-2.079l2-2.046c.14-.11.14-.141.14-.344V0h-4.28Zm0 0"/></symbol><symbol overflow="visible" id="o"><path style="stroke:none" d="M-4.922 0v.469h1.39v5.734c0 .234 0 .328.266.328.11 0 .125 0 .22-.078.765-.562 1.796-.562 2-.562h.202v-.47h-.203c-.156 0-.703.016-1.297.204V.469h1.39V0c-.437.031-1.5.031-1.984.031S-4.484.031-4.921 0Zm0 0"/></symbol><symbol overflow="visible" id="p"><path style="stroke:none" d="m-1.516-4.688-.453.141.422 1.328L-7-1.438c-.219.063-.313.094-.234.344.046.11.046.125.156.203C-6.312-.359-6 .625-5.938.813l.063.203.453-.141-.062-.203A5.286 5.286 0 0 0-6.063-.5l4.891-1.594.422 1.328.453-.14c-.172-.406-.5-1.406-.64-1.875-.157-.453-.485-1.469-.579-1.906Zm0 0"/></symbol><symbol overflow="visible" id="q"><path style="stroke:none" d="m-3.703-4.219.14.453c.204-.03.844-.156.954-.03.093.093.328.796.375.952l.453 1.39a38.253 38.253 0 0 1-1.547-1.015c-1.14-.828-1.781-1.297-2.672-1-1.11.36-1.484 1.578-1.063 2.906.375 1.157 1.282 1.86 2.125 1.579.563-.188.532-.688.47-.907-.11-.312-.438-.625-.907-.468-.5.156-.5.609-.5.765a1.661 1.661 0 0 1-.656-.875c-.266-.812.234-1.453.953-1.687.64-.219 1.422-.063 2.312.375L-.703-.516c.14.11.172.094.375.032l.156-.047L-1.5-4.61Zm0 0"/></symbol><symbol overflow="visible" id="r"><path style="stroke:none" d="m3.297-3.656-.344-.313-.937 1.031L-2.25-6.78c-.172-.157-.25-.219-.422-.016-.078.078-.094.094-.094.219-.078.953-.765 1.719-.906 1.86l-.14.155.343.313.14-.156c.11-.11.454-.532.704-1.094l3.844 3.453-.922 1.031.344.313c.28-.344.984-1.14 1.312-1.5.328-.36 1.031-1.14 1.344-1.453Zm0 0"/></symbol><symbol overflow="visible" id="s"><path style="stroke:none" d="M2.188-5.11c-.407-.359-1.25-.718-2.438.141.297-.64.36-1.547-.266-2.125-.578-.515-1.546-.375-2.5.657-.78.89-.828 1.906-.234 2.437a.679.679 0 0 0 .984-.047c.297-.328.235-.734-.046-.969-.422-.39-.876-.062-.907-.062.031-.438.25-.813.469-1.047.547-.61 1.047-.203 1.297.031.094.078 1.047.953.406 1.766-.266.312-.281.328-.297.375a.155.155 0 0 0 .047.203c.125.125.188.047.313-.078l.28-.328c.735-.813 1.47-.157 1.86.187.344.313 1.094 1 .407 1.766A2.31 2.31 0 0 1 .468-1.5c.14-.297.125-.656-.172-.922-.328-.312-.781-.265-1.063.063-.296.312-.312.734.063 1.062.672.61 1.75.297 2.61-.656 1.187-1.328.952-2.547.28-3.156Zm0 0"/></symbol><symbol overflow="visible" id="t"><path style="stroke:none" d="m4.813-1.016-.094-.453-1.36.282-1.203-5.61c-.047-.234-.062-.328-.328-.266-.094.016-.11.016-.187.11-.625.719-1.641.922-1.829.969l-.203.046.094.47.203-.048c.14-.03.688-.156 1.219-.468L2.203-.938l-1.36.282.095.453c.421-.125 1.468-.344 1.937-.438.469-.109 1.516-.328 1.938-.375Zm0 0"/></symbol><symbol overflow="visible" id="u"><path style="stroke:none" d="m5.281-1.125-.093-.453-.938.203-.234-1.078.937-.203-.094-.453-.937.203L3.047-7c-.047-.266-.078-.328-.36-.266-.203.047-.203.063-.296.235l-2.5 4.984.093.453 2.813-.593.234 1.078-1.094.218.094.454c.375-.11 1.25-.297 1.672-.376.39-.093 1.235-.265 1.578-.312ZM2.797-2.672l-2.39.516 1.75-3.531Zm0 0"/></symbol><symbol overflow="visible" id="ag"><path style="stroke:none" d="M4.766-2.844c-.11-.547-.594-1.328-2.063-1.328.64-.344 1.219-1.031 1.047-1.875-.172-.75-1.031-1.219-2.406-.922-1.157.25-1.782 1.032-1.625 1.813.094.422.453.625.828.547.437-.094.61-.454.531-.813-.11-.562-.672-.562-.703-.562.266-.36.688-.516.984-.579.813-.171.985.454 1.047.766.031.125.281 1.406-.719 1.688-.39.093-.421.093-.453.125-.093.03-.109.14-.093.203.03.172.14.14.312.11l.422-.095c1.078-.218 1.281.735 1.39 1.25.094.454.313 1.438-.703 1.641-.25.063-.78.14-1.312-.063.313-.156.5-.468.406-.859-.093-.437-.453-.656-.89-.578-.407.094-.688.438-.594.922.203.89 1.266 1.266 2.515 1 1.75-.375 2.266-1.516 2.079-2.39Zm0 0"/></symbol><symbol overflow="visible" id="ah"><path style="stroke:none" d="m4.578-3.25-.469.11c.016.203.079.843-.046.937-.11.094-.844.25-1 .281l-1.438.297c.39-.484.828-1 1.172-1.422.953-1.047 1.484-1.656 1.281-2.578C3.844-6.75 2.656-7.25 1.297-6.953.109-6.703-.687-5.891-.5-5.016c.125.579.64.61.86.563a.69.69 0 0 0 .546-.86c-.094-.5-.531-.562-.687-.578.234-.296.578-.484.937-.562.813-.172 1.422.406 1.578 1.125.141.687-.078 1.437-.625 2.266L.58-.642c-.11.141-.11.172-.063.36l.03.172L4.735-1Zm0 0"/></symbol><symbol overflow="visible" id="v"><path style="stroke:none" d="m1.516-4.688-.454-.14L.641-3.5l-5.454-1.781c-.218-.063-.312-.094-.39.156-.047.11-.047.125 0 .234.297.891-.016 1.875-.078 2.063l-.063.203.453.156.063-.203a4.53 4.53 0 0 0 .203-1.297l4.89 1.594-.421 1.328.453.14c.11-.437.437-1.437.578-1.905.156-.454.484-1.47.64-1.876Zm0 0"/></symbol><symbol overflow="visible" id="w"><path style="stroke:none" d="M-.313-5.531c-1.093-.344-2.218.125-2.671 1.515-.079.266-.22.797-.063 1.329l-1.25-.407c.125-.25.203-.344.297-.656.453-1.375-.344-2.61-.578-2.672-.078-.031-.188-.047-.234.063v.156a3.754 3.754 0 0 1-.204 1.531c-.234.719-.578 1.156-.734 1.39-.063.079-.078.079-.094.11-.047.125.063.156.219.203l2.766.906c.171.047.296.094.375-.109.03-.125.015-.156-.047-.234-.328-.531-.25-1.063-.125-1.453.281-.844 1.11-.563 1.86-.313.702.219 1.655.531 1.28 1.656-.078.235-.328.813-.984 1.032.094-.344-.047-.704-.438-.829-.5-.156-.78.22-.859.438-.031.125-.11.672.469.86.797.25 1.86-.235 2.234-1.407.5-1.515-.062-2.719-1.219-3.11Zm0 0"/></symbol><symbol overflow="visible" id="x"><path style="stroke:none" d="m3.984-2.89-.28-.376-1.126.813-3.36-4.64c-.14-.188-.202-.266-.421-.11-.094.062-.094.078-.125.187-.297.907-1.125 1.516-1.297 1.641l-.156.11.281.374.156-.109a4.82 4.82 0 0 0 .922-.922L1.61-1.75.484-.937l.282.375c.343-.282 1.203-.907 1.593-1.204.391-.28 1.25-.906 1.625-1.125Zm0 0"/></symbol><symbol overflow="visible" id="y"><path style="stroke:none" d="M3.047-4.734C2.234-5.86.969-5.86 0-5.156c-.172.125-.64.453-.516 1.328l-.109-.156c-.672-.922-.75-1.391-.797-1.547a1.66 1.66 0 0 1 .64-1.5c.141-.094.438-.266.766-.219a.592.592 0 0 0-.078.813c.203.28.547.375.86.14.312-.234.343-.578.125-.875-.36-.516-1.063-.766-1.922-.156-1.094.797-1.907 2.453-.438 4.5.469.625 1 1.219 1.735 1.531.828.344 1.578.094 2.14-.312 1.125-.813 1.438-2.032.64-3.125Zm-1.125.78c.594.813 1.031 1.423.219 2.017-.422.296-.86.14-1.032.046-.312-.156-.734-.75-.843-.89C-.47-3.797-.297-4.484.14-4.812c.765-.547 1.203.046 1.78.859Zm0 0"/></symbol><symbol overflow="visible" id="z"><path style="stroke:none" d="m.516-4.89-.47-.048-.14 1.375-5.703-.609c-.234-.016-.328-.031-.36.234-.015.11-.015.126.048.235.484.828.375 1.844.359 2.047l-.016.203.47.047.015-.203a4.538 4.538 0 0 0-.063-1.313l5.125.547L-.375-1l.469.047c.015-.438.125-1.485.187-1.969.047-.484.156-1.531.235-1.969Zm0 0"/></symbol><symbol overflow="visible" id="A"><path style="stroke:none" d="m-5.813-6.203-.203 2.016c-.03.234-.234 1.703-.296 1.828-.047.203-.141.218-.235.218l-.047.454 2.469.609.047-.469c-.734-.172-.844-.312-.86-.36-.046-.109.032-.921.063-1.093l.172-1.672c.203.203.375.406.578.625 1.016 1.063 2.281 1.922 3.734 2.078.704.078.766-.484.766-.547.016-.156.016-.64-.64-.703l-.47-.047a8.668 8.668 0 0 1-1.39-.25c-.672-.156-1.219-.421-1.594-.828l-1.61-1.718c-.109-.094-.14-.11-.484-.141Zm0 0"/></symbol><symbol overflow="visible" id="B"><path style="stroke:none" d="m-4.813-1.016-.093.454 1.36.28-1.204 5.61c-.047.234-.063.328.203.39.094.016.11.016.219-.046.875-.375 1.89-.172 2.078-.125l.203.047.094-.469-.203-.047a4.588 4.588 0 0 0-1.313-.062L-2.39-.031l1.36.281.093-.453c-.421-.063-1.468-.281-1.937-.375-.469-.11-1.516-.328-1.938-.438Zm0 0"/></symbol><symbol overflow="visible" id="C"><path style="stroke:none" d="M-5.531.719c-.219 1.062.515 1.687.922 2.078-.75.203-1.141.578-1.25 1.14-.22.985.578 1.626 1.687 1.86 1.344.281 2.203-.36 2.39-1.297.095-.422.048-1.063-.624-1.656.89-.188 1.453-.64 1.61-1.36.25-1.187-.72-1.921-1.97-2.187-1.562-.328-2.53.36-2.765 1.422Zm.406 3.344c.094-.47.406-.735.906-.938l1.282 1.14c.14.11.374.329.296.657-.14.687-1.03.578-1.421.484-.813-.172-1.204-.672-1.063-1.343Zm.563-3.688c.171-.813 1.125-.781 1.687-.656.953.203 1.406.812 1.25 1.578-.172.75-.766 1.062-1.172 1.187l-1.172-1.03c-.375-.329-.703-.61-.594-1.079Zm0 0"/></symbol><symbol overflow="visible" id="D"><path style="stroke:none" d="m-3.297-3.656-.344.312.938 1.031-4.266 3.844c-.172.157-.25.219-.078.422.078.078.094.094.219.094.922.203 1.61.969 1.75 1.11l.14.155.344-.312-.14-.156c-.11-.11-.485-.5-1.016-.813l3.844-3.453.922 1.031.343-.312c-.312-.313-1.015-1.11-1.343-1.469a52.832 52.832 0 0 1-1.313-1.484Zm0 0"/></symbol><symbol overflow="visible" id="E"><path style="stroke:none" d="M-5.953-1.703c-.5.437-2.422 2.172-.828 3.937.937 1.047 2.203 1.235 3.187.344 1.031-.922.922-2.156.11-3.062-.235-.266-.61-.563-1.375-.375l.156-.157c.547-.484 1.047-.812 1.39-.921.422-.141 1.047-.125 1.5.39.11.125.344.422.391.766a.613.613 0 0 0-.781.062.603.603 0 0 0-.063.875c.266.281.625.297.907.047.5-.469.578-1.234-.157-2.047-.859-.968-2.546-1.578-4.437.14Zm.187 1.687c.47-.421 1.391-.921 1.954-.296.64.703.078 1.218-.641 1.875-.734.656-1.328 1.187-2.047.39-.39-.437-.156-.969-.11-1.062.157-.297.594-.688.844-.907Zm0 0"/></symbol><symbol overflow="visible" id="F"><path style="stroke:none" d="m-.516-5.594-.14.453c.172.094.75.375.765.532.032.125-.203.828-.25.984l-.453 1.39a40.303 40.303 0 0 1-.64-1.703c-.454-1.359-.688-2.109-1.579-2.406-1.109-.36-2.14.422-2.562 1.75-.375 1.157-.063 2.235.781 2.516.563.187.844-.25.907-.469.109-.312.03-.75-.438-.906-.5-.156-.781.203-.875.328-.125-.36-.11-.75 0-1.094.266-.812 1.047-1.047 1.766-.812.64.218 1.171.781 1.625 1.656L-.266-.828c.047.172.079.187.282.25l.156.047L1.5-4.61Zm0 0"/></symbol><symbol overflow="visible" id="G"><path style="stroke:none" d="M-1.406-6c-.907-.297-3.188-1.031-3.922 1.266-.75 2.28 1.516 3.015 2.437 3.312C-1.937-1.109.25-.406 1-2.688c.734-2.28-1.453-3-2.406-3.312Zm-.5 1.188c.547.171 1.406.453 1.875.671.828.422.765 1.063.687 1.344a1.09 1.09 0 0 1-1.234.703c-.531-.078-1.5-.39-2.031-.562-.672-.219-1.297-.422-1.766-.656-.813-.391-.688-1.094-.61-1.313.11-.36.423-.688.891-.734.407-.032 1.422.296 2.188.546Zm0 0"/></symbol><symbol overflow="visible" id="I"><path style="stroke:none" d="m-4.5-3.36.234.407c.188-.078.797-.313.922-.219.11.063.485.719.563.844l.734 1.281a38.422 38.422 0 0 1-1.703-.687c-1.297-.563-2.031-.891-2.844-.422-1 .578-1.11 1.86-.422 3.062.61 1.063 1.625 1.563 2.391 1.11.516-.297.406-.782.281-.985C-4.5.75-4.89.516-5.328.766c-.453.25-.36.703-.344.843-.344-.125-.625-.406-.812-.718-.422-.735-.079-1.485.578-1.86.593-.344 1.375-.36 2.343-.094l2.766.704c.156.078.188.062.36-.047l.156-.078-2.14-3.704Zm0 0"/></symbol><symbol overflow="visible" id="M"><path style="stroke:none" d="m-3.703-4.219.14.453c.204-.03.844-.156.954-.03.093.093.328.796.375.952l.453 1.39a38.253 38.253 0 0 1-1.547-1.015c-1.14-.828-1.781-1.297-2.672-1-1.11.36-1.484 1.578-1.063 2.906.375 1.157 1.282 1.86 2.125 1.579.563-.188.532-.688.47-.907-.11-.312-.438-.625-.907-.468-.5.156-.5.609-.5.765a1.661 1.661 0 0 1-.656-.875c-.266-.812.234-1.453.953-1.687.64-.219 1.422-.063 2.312.375L-.703-.516c.14.11.172.094.375.032l.156-.047L-1.5-4.61Zm0 0"/></symbol><symbol overflow="visible" id="N"><path style="stroke:none" d="M-3.328-4.438c-.531.157-1.25.72-1.11 2.188-.39-.594-1.156-1.11-1.968-.844-.719.235-1.11 1.14-.672 2.485C-6.703.516-5.86 1.062-5.094.812c.407-.14.578-.515.469-.859-.14-.437-.531-.578-.875-.469-.547.188-.484.735-.5.766-.375-.234-.578-.64-.672-.938-.266-.78.344-1 .656-1.109.125-.031 1.375-.422 1.75.547.125.375.141.406.172.438.047.093.14.093.203.078.157-.063.125-.172.079-.329l-.141-.421c-.344-1.032.594-1.329 1.094-1.485.437-.156 1.406-.469 1.734.5.078.266.188.766.063 1.313-.204-.282-.516-.438-.907-.313-.422.14-.593.532-.468.953.14.407.484.641.953.5.875-.28 1.14-1.39.75-2.609-.547-1.703-1.735-2.094-2.594-1.813Zm0 0"/></symbol><symbol overflow="visible" id="O"><path style="stroke:none" d="m.656-5.578-.234.406c.156.14.672.531.64.688.016.125-.359.78-.437.906l-.734 1.281c-.11-.594-.204-1.281-.282-1.812-.156-1.407-.234-2.204-1.046-2.672-1-.578-2.172-.047-2.86 1.156-.61 1.063-.531 2.188.234 2.64.516.297.875-.062 1-.265.157-.281.172-.734-.265-.984-.453-.25-.797.046-.906.125-.063-.344.03-.75.218-1.063.422-.734 1.235-.797 1.891-.422.594.344 1 1.016 1.25 1.969l.766 2.766c.03.171.062.187.234.296l.156.079 2.14-3.704Zm0 0"/></symbol><symbol overflow="visible" id="P"><path style="stroke:none" d="m2.703-4.688-.406-.234-.485.844-.953-.547.485-.844-.407-.234-.484.844-3.625-2.094c-.219-.125-.297-.14-.437.11-.11.187-.094.187-.016.374l2.016 5.188.406.234 1.437-2.5.954.547-.563.969.406.234c.157-.344.61-1.125.828-1.5.204-.344.625-1.094.844-1.39Zm-2.828.813L-1.344-1.75-2.78-5.406Zm0 0"/></symbol><symbol overflow="visible" id="Q"><path style="stroke:none" d="m-3.797 4.125.422-.188c-.063-.203-.234-.828-.14-.937.093-.11.78-.406.921-.469l1.344-.61a50.978 50.978 0 0 1-.86 1.641c-.703 1.235-1.093 1.922-.703 2.766.47 1.063 1.72 1.313 2.985.75 1.11-.5 1.719-1.453 1.36-2.266-.25-.53-.75-.484-.97-.39-.296.14-.562.5-.359.953a.729.729 0 0 0 .813.422c-.157.344-.47.594-.797.734-.781.344-1.485-.078-1.782-.765-.28-.625-.218-1.391.141-2.329L-.438.75C-.344.61-.358.578-.453.39L-.516.235-4.422 1.97Zm0 0"/></symbol><symbol overflow="visible" id="R"><path style="stroke:none" d="M-3.89 3.922c.468 1.062 1.562 1.562 2.906.969.25-.11.734-.344 1.03-.829l.532 1.204a2.56 2.56 0 0 0-.687.234c-1.329.578-1.704 1.969-1.61 2.203.032.063.094.172.203.125.032-.016.032-.016.11-.11.437-.437.89-.702 1.281-.874.688-.297 1.266-.328 1.531-.375.11 0 .11.015.14 0 .126-.063.079-.172.016-.313L.375 3.484C.312 3.328.25 3.22.047 3.313c-.11.046-.125.093-.156.187-.157.594-.61.875-.97 1.047-.812.36-1.171-.438-1.5-1.156-.296-.672-.702-1.594.376-2.079.234-.093.828-.28 1.437.063-.312.156-.484.5-.312.875.219.484.656.422.875.328.125-.062.578-.344.328-.906C-.219.906-1.281.453-2.406.953c-1.453.656-1.985 1.86-1.485 2.969Zm0 0"/></symbol><symbol overflow="visible" id="S"><path style="stroke:none" d="m-5.469-1.234.375.28c.14-.155.594-.624.75-.577.125.015.735.453.86.547l1.187.859c-.625.031-1.297.063-1.844.078-1.421 0-2.203.016-2.765.766-.672.937-.266 2.14.86 2.969.984.718 2.124.765 2.64.046.36-.484.047-.875-.14-1.015-.267-.203-.72-.25-1.017.156-.296.422-.046.797.047.906a1.67 1.67 0 0 1-1.046-.328c-.688-.5-.672-1.312-.235-1.922.406-.547 1.125-.89 2.11-1.047L-.86.016c.171-.016.187-.047.312-.204l.094-.14-3.469-2.516Zm0 0"/></symbol><symbol overflow="visible" id="T"><path style="stroke:none" d="M-5.453-1.422c-.813 1.125-.422 2.313.547 3.016.172.125.64.453 1.422.078l-.11.156c-.672.922-1.094 1.14-1.234 1.234-.469.22-1.125.204-1.61-.156-.14-.094-.406-.328-.453-.656.329.188.625.078.797-.156a.621.621 0 0 0-.14-.89c-.313-.235-.657-.141-.875.155-.36.516-.407 1.266.453 1.875 1.093.797 2.937 1.079 4.406-.968.469-.625.875-1.313.922-2.125.078-.907-.39-1.532-.953-1.938-1.125-.812-2.375-.719-3.172.375Zm1.094.813c.593-.813 1.03-1.422 1.843-.829a.927.927 0 0 1 .375.954c-.062.343-.484.937-.593 1.078-.735 1.015-1.438 1.078-1.875.75-.766-.547-.329-1.14.25-1.953Zm0 0"/></symbol><symbol overflow="visible" id="W"><path style="stroke:none" d="m2.875-4.828-.375.281c.078.188.375.75.313.89-.063.11-.672.548-.797.641l-1.188.86c.156-.594.328-1.25.5-1.766.422-1.344.672-2.11.11-2.86-.672-.937-1.954-.921-3.079-.093-.984.719-1.375 1.766-.859 2.484.36.485.828.313 1.016.172.265-.203.468-.593.171-1-.296-.422-.734-.297-.89-.25.094-.36.344-.672.64-.89.688-.5 1.454-.22 1.891.39.406.547.5 1.328.36 2.297L.266-.828c-.047.172-.032.203.093.36l.094.14 3.469-2.516Zm0 0"/></symbol><symbol overflow="visible" id="X"><path style="stroke:none" d="M.719-8.469-.921-7.28c-.188.14-1.391.968-1.548 1.031-.172.078-.25.016-.312-.063l-.375.282 1.203 2.25.375-.281c-.375-.657-.344-.844-.313-.891.047-.11.704-.578.844-.688l1.344-.984c0 .297-.031.563-.047.844-.11 1.484.094 2.984.969 4.172.406.578.86.25.906.203.125-.094.469-.407.094-.938l-.281-.375a7.954 7.954 0 0 1-.75-1.219c-.329-.578-.5-1.171-.454-1.718l.204-2.36c.015-.14-.016-.171-.22-.453Zm0 0"/></symbol><symbol overflow="visible" id="Y"><path style="stroke:none" d="m5.61.063-.423-.188c-.125.172-.453.734-.609.719-.125.015-.812-.281-.953-.344L2.281-.36c.594-.156 1.25-.343 1.766-.453 1.39-.296 2.156-.484 2.547-1.328.468-1.062-.188-2.156-1.453-2.718-1.11-.5-2.22-.297-2.579.515-.25.532.126.86.344.953.297.141.75.094.953-.359.22-.469-.109-.797-.218-.89.343-.094.75-.032 1.078.109.781.343.922 1.14.625 1.828-.282.625-.907 1.11-1.828 1.453L.844-.187C.688-.142.672-.11.578.078L.516.234 4.422 1.97Zm0 0"/></symbol><symbol overflow="visible" id="Z"><path style="stroke:none" d="M5.547.438c.437-.985-.125-1.75-.469-2.22.766-.046 1.25-.312 1.484-.843.407-.922-.234-1.703-1.28-2.172-1.25-.562-2.22-.11-2.61.75-.172.406-.25 1.063.25 1.766-.89 0-1.531.344-1.828 1.015-.485 1.094.281 2 1.453 2.516 1.453.656 2.562.188 3-.813Zm.312-3.344c-.187.437-.562.625-1.078.734L3.75-3.562c-.11-.126-.297-.407-.156-.72.281-.64 1.14-.343 1.5-.171.765.344 1.047.922.765 1.547ZM4.547.578c-.328.766-1.266.547-1.797.313C1.86.5 1.562-.203 1.875-.922c.313-.703.969-.89 1.39-.922l.922 1.235c.297.421.563.75.36 1.187Zm0 0"/></symbol><symbol overflow="visible" id="aa"><path style="stroke:none" d="m4.5 3.36-.234-.407c-.188.063-.797.313-.907.219-.125-.063-.5-.719-.578-.844l-.734-1.281c.578.203 1.203.469 1.703.672 1.313.562 2.031.89 2.844.422 1-.579 1.125-1.844.422-3.047C6.406-1.97 5.39-2.47 4.625-2.031c-.516.297-.39.797-.281 1 .172.281.547.515.984.265.453-.265.375-.718.344-.843.344.109.64.406.812.718.422.735.079 1.47-.578 1.844-.593.344-1.375.36-2.328.11L.813.343C.64.282.609.298.438.392L.28.484l2.14 3.704Zm0 0"/></symbol><symbol overflow="visible" id="ab"><path style="stroke:none" d="M5.469 2.906C6.047 2.562 8.28 1.281 7.094-.78c-.703-1.219-1.89-1.656-3.047-1-1.188.687-1.344 1.906-.734 2.968.187.313.468.688 1.265.672l-.187.11c-.641.36-1.188.562-1.563.625-.422.031-1.031-.11-1.375-.703a1.743 1.743 0 0 1-.234-.829c.093.079.406.329.797.11a.612.612 0 0 0 .234-.86c-.203-.343-.547-.421-.875-.234-.594.344-.828 1.094-.281 2.047.656 1.125 2.172 2.047 4.375.781Zm.156-1.687c-.531.312-1.547.61-1.969-.125C3.187.266 3.844-.11 4.703-.61c.844-.485 1.531-.891 2.063.046.296.5-.047.97-.094 1.063-.234.266-.75.547-1.047.719Zm0 0"/></symbol><symbol overflow="visible" id="ac"><path style="stroke:none" d="M5.25-1.797c0-.547-.297-1.406-1.734-1.719.687-.203 1.406-.765 1.406-1.625 0-.765-.75-1.39-2.156-1.39-1.188 0-1.97.64-1.97 1.437 0 .422.313.703.688.703a.668.668 0 0 0 .704-.687c0-.578-.547-.688-.579-.703.344-.282.782-.36 1.094-.36.828 0 .86.641.86.97 0 .124-.016 1.437-1.047 1.5-.407.015-.438.015-.485.03-.094.016-.125.11-.125.172 0 .172.11.172.282.172h.437c1.094 0 1.094.985 1.094 1.5 0 .469 0 1.484-1.031 1.484-.266 0-.782-.046-1.266-.343C1.75-.75 2-1 2-1.406c0-.453-.313-.75-.75-.75-.422 0-.766.265-.766.765 0 .907.97 1.5 2.25 1.5 1.782 0 2.516-1 2.516-1.906Zm0 0"/></symbol><symbol overflow="visible" id="ad"><path style="stroke:none" d="M5.281-3.188c0-.953-.015-3.343-2.422-3.343C.453-6.531.453-4.156.453-3.188c0 1 0 3.297 2.406 3.297 2.391 0 2.422-2.296 2.422-3.296ZM4-3.296c0 .563 0 1.469-.078 1.985-.14.921-.766 1.062-1.063 1.062-.359 0-.921-.219-1.046-.953-.094-.516-.094-1.547-.094-2.094 0-.719 0-1.375.078-1.89.125-.891.828-.985 1.062-.985.375 0 .782.188.97.625C4-5.172 4-4.109 4-3.297Zm0 0"/></symbol><symbol overflow="visible" id="ae"><path style="stroke:none" d="M5.313 1.625c.312-.438.562-1.313-.407-2.406C5.594-.547 6.5-.578 7-1.266c.453-.625.219-1.562-.922-2.39-.953-.703-1.969-.64-2.437 0-.25.344-.172.765.14.984.36.266.766.14.969-.156a.667.667 0 0 0-.063-.89c.454-.048.86.155 1.11.343.672.484.312 1.016.125 1.281-.078.11-.86 1.156-1.734.61-.329-.235-.344-.25-.407-.266-.094-.047-.156.016-.203.063-.094.14-.015.203.125.296l.36.266c.89.64.312 1.438.015 1.86-.281.374-.875 1.203-1.719.593A2.452 2.452 0 0 1 1.547.297.736.736 0 0 0 2.453.03c.266-.36.172-.797-.172-1.047-.344-.25-.781-.234-1.078.172-.531.735-.094 1.797.953 2.547 1.438 1.047 2.625.656 3.156-.078Zm0 0"/></symbol><symbol overflow="visible" id="af"><path style="stroke:none" d="m3.984 2.89.282-.374-1.125-.813L6.5-2.937c.14-.188.203-.266-.016-.422-.093-.063-.093-.079-.218-.063-.954 0-1.782-.61-1.954-.734l-.156-.11-.281.375.156.11c.125.094.594.406 1.172.61L2.172 1 1.047.187.766.564C1.14.78 2 1.405 2.39 1.702c.39.281 1.25.906 1.593 1.188Zm0 0"/></symbol><clipPath id="j"><path d="M128 96h10.277v22H128Zm0 0"/></clipPath><clipPath id="k"><path d="M125 93h13.277v28H125Zm0 0"/></clipPath><clipPath id="n"><path d="M117 83h21.277v22H117Zm0 0"/></clipPath><clipPath id="J"><path d="M10 124h24v19.652H10Zm0 0"/></clipPath><clipPath id="K"><path d="M0 132h20v11.652H0Zm0 0"/></clipPath><clipPath id="L"><path d="M0 129h23v14.652H0Zm0 0"/></clipPath><clipPath id="U"><path d="M33 115h18v28.652H33Zm0 0"/></clipPath><clipPath id="V"><path d="M55 115h18v28.652H55Zm0 0"/></clipPath></defs><use xlink:href="#a" x="72.422" y="79.262" style="fill:#000;fill-opacity:1"/><use xlink:href="#b" x="80.817" y="63.514" style="fill:#000;fill-opacity:1"/><use xlink:href="#c" x="98.684" y="61.111" style="fill:#000;fill-opacity:1"/><use xlink:href="#d" x="113.41" y="71.096" style="fill:#000;fill-opacity:1"/><path style="fill:none;stroke-width:.19925;stroke-linecap:butt;stroke-linejoin:miter;stroke:gray;stroke-opacity:1;stroke-miterlimit:10" d="M54.436 5.724 37.803 9.259" transform="matrix(1 0 0 -1 66.782 87.704)"/><path style="fill:none;stroke-width:.3985;stroke-linecap:butt;stroke-linejoin:miter;stroke:#000;stroke-opacity:1;stroke-miterlimit:10" d="m54.436 5.724-9.023-1.56-7.61 5.095" transform="matrix(1 0 0 -1 66.782 87.704)"/><path style="fill:none;stroke-width:.19925;stroke-linecap:butt;stroke-linejoin:miter;stroke:gray;stroke-opacity:1;stroke-miterlimit:10" d="m37.803 9.259 11.38 12.64M49.182 21.9l5.254-16.176" transform="matrix(1 0 0 -1 66.782 87.704)"/><path style="fill:none;stroke-width:.3985;stroke-linecap:butt;stroke-linejoin:miter;stroke:#000;stroke-opacity:1;stroke-miterlimit:10" d="m49.182 21.9 5.864-7.04-.61-9.136" transform="matrix(1 0 0 -1 66.782 87.704)"/><path style="fill:none;stroke-width:.19925;stroke-linecap:butt;stroke-linejoin:miter;stroke:gray;stroke-opacity:1;stroke-miterlimit:10" d="m37.803 9.259-15.539 6.918" transform="matrix(1 0 0 -1 66.782 87.704)"/><path style="fill:none;stroke-width:.3985;stroke-linecap:butt;stroke-linejoin:miter;stroke:#000;stroke-opacity:1;stroke-miterlimit:10" d="m22.264 16.177 7.512-8.344 8.027 1.426" transform="matrix(1 0 0 -1 66.782 87.704)"/><path style="fill:none;stroke-width:.19925;stroke-linecap:butt;stroke-linejoin:miter;stroke:gray;stroke-opacity:1;stroke-miterlimit:10" d="m22.264 16.177 1.778 16.914" transform="matrix(1 0 0 -1 66.782 87.704)"/><path style="fill:none;stroke-width:.3985;stroke-linecap:butt;stroke-linejoin:miter;stroke:#000;stroke-opacity:1;stroke-miterlimit:10" d="m24.042 33.09 16.636 3.536" transform="matrix(1 0 0 -1 66.782 87.704)"/><use xlink:href="#e" x="111.754" y="55.111" style="fill:#000;fill-opacity:1"/><path style="fill:none;stroke-width:.19925;stroke-linecap:butt;stroke-linejoin:miter;stroke:gray;stroke-opacity:1;stroke-miterlimit:10" d="m57.686 36.626-8.504-14.727" transform="matrix(1 0 0 -1 66.782 87.704)"/><path style="fill:none;stroke-width:.3985;stroke-linecap:butt;stroke-linejoin:miter;stroke:#000;stroke-opacity:1;stroke-miterlimit:10" d="m57.686 36.626-1.304-9.063-7.2-5.664" transform="matrix(1 0 0 -1 66.782 87.704)"/><path style="fill:none;stroke-width:.19925;stroke-linecap:butt;stroke-linejoin:miter;stroke:gray;stroke-opacity:1;stroke-miterlimit:10" d="m49.182 21.9-8.504 14.726" transform="matrix(1 0 0 -1 66.782 87.704)"/><path style="fill:none;stroke-width:.3985;stroke-linecap:butt;stroke-linejoin:miter;stroke:#000;stroke-opacity:1;stroke-miterlimit:10" d="M40.678 36.626h17.008" transform="matrix(1 0 0 -1 66.782 87.704)"/><path style="fill:none;stroke-width:.19925;stroke-linecap:butt;stroke-linejoin:miter;stroke:gray;stroke-opacity:1;stroke-miterlimit:10" d="M22.264 16.177 8.503 26.173" transform="matrix(1 0 0 -1 66.782 87.704)"/><path style="fill:none;stroke-width:.3985;stroke-linecap:butt;stroke-linejoin:miter;stroke:#000;stroke-opacity:1;stroke-miterlimit:10" d="m8.503 26.173 15.539 6.918" transform="matrix(1 0 0 -1 66.782 87.704)"/><use xlink:href="#f" x="88.921" y="77.418" style="fill:#000;fill-opacity:1"/><use xlink:href="#g" x="96.656" y="93.549" style="fill:#000;fill-opacity:1"/><path style="fill:none;stroke-width:.19925;stroke-linecap:butt;stroke-linejoin:miter;stroke:gray;stroke-opacity:1;stroke-miterlimit:10" d="M30.768-23.831 15.23-16.913" transform="matrix(1 0 0 -1 66.782 87.704)"/><path style="fill:none;stroke-width:.3985;stroke-linecap:butt;stroke-linejoin:miter;stroke:#000;stroke-opacity:1;stroke-miterlimit:10" d="m30.768-23.831-9.152.351-6.387 6.567" transform="matrix(1 0 0 -1 66.782 87.704)"/><path style="fill:none;stroke-width:.19925;stroke-linecap:butt;stroke-linejoin:miter;stroke:gray;stroke-opacity:1;stroke-miterlimit:10" d="M15.23-16.917 17.006 0" transform="matrix(1 0 0 -1 66.782 87.704)"/><path style="fill:none;stroke-width:.3985;stroke-linecap:butt;stroke-linejoin:miter;stroke:#000;stroke-opacity:1;stroke-miterlimit:10" d="m17.007 0-5.61-9.722 3.832-7.195" transform="matrix(1 0 0 -1 66.782 87.704)"/><path style="fill:none;stroke-width:.19925;stroke-linecap:butt;stroke-linejoin:miter;stroke:gray;stroke-opacity:1;stroke-miterlimit:10" d="m17.007 0 16.636 3.536" transform="matrix(1 0 0 -1 66.782 87.704)"/><path style="fill:none;stroke-width:.3985;stroke-linecap:butt;stroke-linejoin:miter;stroke:#000;stroke-opacity:1;stroke-miterlimit:10" d="m33.643 3.536 8.504-14.73" transform="matrix(1 0 0 -1 66.782 87.704)"/><use xlink:href="#h" x="106.421" y="104.227" style="fill:#000;fill-opacity:1"/><path style="fill:none;stroke-width:.19925;stroke-linecap:butt;stroke-linejoin:miter;stroke:gray;stroke-opacity:1;stroke-miterlimit:10" d="m47.405-27.37-16.637 3.539" transform="matrix(1 0 0 -1 66.782 87.704)"/><path style="fill:none;stroke-width:.3985;stroke-linecap:butt;stroke-linejoin:miter;stroke:#000;stroke-opacity:1;stroke-miterlimit:10" d="m47.405-27.37-9.027-1.559-7.61 5.098" transform="matrix(1 0 0 -1 66.782 87.704)"/><path style="fill:none;stroke-width:.19925;stroke-linecap:butt;stroke-linejoin:miter;stroke:gray;stroke-opacity:1;stroke-miterlimit:10" d="m30.768-23.831 11.38 12.637" transform="matrix(1 0 0 -1 66.782 87.704)"/><use xlink:href="#i" x="118.754" y="101.635" style="fill:#000;fill-opacity:1"/><g clip-path="url(#j)"><path style="fill:none;stroke-width:.19925;stroke-linecap:butt;stroke-linejoin:miter;stroke:gray;stroke-opacity:1;stroke-miterlimit:10" d="M69.667-11.194 64.413-27.37" transform="matrix(1 0 0 -1 66.782 87.704)"/></g><g clip-path="url(#k)"><path style="fill:none;stroke-width:.3985;stroke-linecap:butt;stroke-linejoin:miter;stroke:#000;stroke-opacity:1;stroke-miterlimit:10" d="m69.667-11.194.61-9.137-5.864-7.04" transform="matrix(1 0 0 -1 66.782 87.704)"/></g><g style="fill:#000;fill-opacity:1"><use xlink:href="#l" x="128.418" y="116.775"/><use xlink:href="#m" x="122.69" y="116.775"/></g><path style="fill:none;stroke-width:.19925;stroke-linecap:butt;stroke-linejoin:miter;stroke:gray;stroke-opacity:1;stroke-miterlimit:10" d="M55.909-42.097 47.405-27.37" transform="matrix(1 0 0 -1 66.782 87.704)"/><path style="fill:none;stroke-width:.3985;stroke-linecap:butt;stroke-linejoin:miter;stroke:#000;stroke-opacity:1;stroke-miterlimit:10" d="m55.909-42.097-7.2 5.664-1.304 9.063" transform="matrix(1 0 0 -1 66.782 87.704)"/><path style="fill:none;stroke-width:.19925;stroke-linecap:butt;stroke-linejoin:miter;stroke:gray;stroke-opacity:1;stroke-miterlimit:10" d="M47.405-27.37h17.008M64.413-27.37l-8.504-14.727" transform="matrix(1 0 0 -1 66.782 87.704)"/><path style="fill:none;stroke-width:.3985;stroke-linecap:butt;stroke-linejoin:miter;stroke:#000;stroke-opacity:1;stroke-miterlimit:10" d="m64.413-27.37-1.305-9.063-7.2-5.664" transform="matrix(1 0 0 -1 66.782 87.704)"/><path style="fill:none;stroke-width:.19925;stroke-linecap:butt;stroke-linejoin:miter;stroke:gray;stroke-opacity:1;stroke-miterlimit:10" d="m47.405-27.37-5.258 16.176" transform="matrix(1 0 0 -1 66.782 87.704)"/><path style="fill:none;stroke-width:.3985;stroke-linecap:butt;stroke-linejoin:miter;stroke:#000;stroke-opacity:1;stroke-miterlimit:10" d="M42.147-11.194 55.91-1.198" transform="matrix(1 0 0 -1 66.782 87.704)"/><g clip-path="url(#n)"><path style="fill:none;stroke-width:.3985;stroke-linecap:butt;stroke-linejoin:miter;stroke:#000;stroke-opacity:1;stroke-miterlimit:10" d="m55.909-1.194 13.758-10" transform="matrix(1 0 0 -1 66.782 87.704)"/></g><path style="fill:none;stroke-width:.19925;stroke-linecap:butt;stroke-linejoin:miter;stroke:gray;stroke-opacity:1;stroke-miterlimit:10" d="m17.007 0 5.257 16.177" transform="matrix(1 0 0 -1 66.782 87.704)"/><path style="fill:none;stroke-width:.3985;stroke-linecap:butt;stroke-linejoin:miter;stroke:#000;stroke-opacity:1;stroke-miterlimit:10" d="m22.264 16.177 11.38-12.641" transform="matrix(1 0 0 -1 66.782 87.704)"/><g style="fill:#000;fill-opacity:1"><use xlink:href="#o" x="81.014" y="89.351"/><use xlink:href="#o" x="75.286" y="89.351"/></g><path style="fill:none;stroke-width:.19925;stroke-linecap:butt;stroke-linejoin:miter;stroke:gray;stroke-opacity:1;stroke-miterlimit:10" d="M8.503-14.73-.001 0" transform="matrix(1 0 0 -1 66.782 87.704)"/><path style="fill:none;stroke-width:.3985;stroke-linecap:butt;stroke-linejoin:miter;stroke:#000;stroke-opacity:1;stroke-miterlimit:10" d="m-.001 0 1.176-11.163 7.328-3.567" transform="matrix(1 0 0 -1 66.782 87.704)"/><path style="fill:none;stroke-width:.19925;stroke-linecap:butt;stroke-linejoin:miter;stroke:gray;stroke-opacity:1;stroke-miterlimit:10" d="M-.001 0h17.008" transform="matrix(1 0 0 -1 66.782 87.704)"/><path style="fill:none;stroke-width:.3985;stroke-linecap:butt;stroke-linejoin:miter;stroke:#000;stroke-opacity:1;stroke-miterlimit:10" d="M17.007 0 8.503-14.73" transform="matrix(1 0 0 -1 66.782 87.704)"/><g style="fill:#000;fill-opacity:1"><use xlink:href="#p" x="64.359" y="85.574"/><use xlink:href="#q" x="62.588" y="80.126"/></g><g style="fill:#000;fill-opacity:1"><use xlink:href="#r" x="45.688" y="76.42"/><use xlink:href="#s" x="49.522" y="72.163"/></g><g style="fill:#000;fill-opacity:1"><use xlink:href="#t" x="38.76" y="58.152"/><use xlink:href="#u" x="44.363" y="56.961"/></g><path style="fill:none;stroke-width:.19925;stroke-linecap:butt;stroke-linejoin:miter;stroke:gray;stroke-opacity:1;stroke-miterlimit:10" d="m-25.142 43.544 11.383-12.64" transform="matrix(1 0 0 -1 66.782 87.704)"/><path style="fill:none;stroke-width:.3985;stroke-linecap:butt;stroke-linejoin:miter;stroke:#000;stroke-opacity:1;stroke-miterlimit:10" d="m-25.142 43.544 8.219-4.043 3.164-8.598" transform="matrix(1 0 0 -1 66.782 87.704)"/><path style="fill:none;stroke-width:.19925;stroke-linecap:butt;stroke-linejoin:miter;stroke:gray;stroke-opacity:1;stroke-miterlimit:10" d="m-13.76 30.903-16.636-3.535" transform="matrix(1 0 0 -1 66.782 87.704)"/><g style="fill:#000;fill-opacity:1"><use xlink:href="#v" x="29.163" y="55.071"/><use xlink:href="#w" x="30.934" y="49.623"/></g><g style="fill:#000;fill-opacity:1"><use xlink:href="#x" x="15.368" y="41.152"/><use xlink:href="#y" x="20.003" y="37.785"/></g><path style="fill:none;stroke-width:.19925;stroke-linecap:butt;stroke-linejoin:miter;stroke:gray;stroke-opacity:1;stroke-miterlimit:10" d="m-54.439 60.458 15.54-6.918" transform="matrix(1 0 0 -1 66.782 87.704)"/><path style="fill:none;stroke-width:.3985;stroke-linecap:butt;stroke-linejoin:miter;stroke:#000;stroke-opacity:1;stroke-miterlimit:10" d="m-54.439 60.458 9.153-.352 6.386-6.566" transform="matrix(1 0 0 -1 66.782 87.704)"/><path style="fill:none;stroke-width:.19925;stroke-linecap:butt;stroke-linejoin:miter;stroke:gray;stroke-opacity:1;stroke-miterlimit:10" d="m-38.9 53.54-13.758-9.996M-52.657 43.544l-1.782 16.914" transform="matrix(1 0 0 -1 66.782 87.704)"/><path style="fill:none;stroke-width:.3985;stroke-linecap:butt;stroke-linejoin:miter;stroke:#000;stroke-opacity:1;stroke-miterlimit:10" d="m-52.657 43.544-4.274 8.101 2.492 8.813" transform="matrix(1 0 0 -1 66.782 87.704)"/><path style="fill:none;stroke-width:.19925;stroke-linecap:butt;stroke-linejoin:miter;stroke:gray;stroke-opacity:1;stroke-miterlimit:10" d="m-38.9 53.54 13.758-9.996" transform="matrix(1 0 0 -1 66.782 87.704)"/><path style="fill:none;stroke-width:.3985;stroke-linecap:butt;stroke-linejoin:miter;stroke:#000;stroke-opacity:1;stroke-miterlimit:10" d="m-38.9 53.54 8.88-2.246 4.878-7.75" transform="matrix(1 0 0 -1 66.782 87.704)"/><path style="fill:none;stroke-width:.19925;stroke-linecap:butt;stroke-linejoin:miter;stroke:gray;stroke-opacity:1;stroke-miterlimit:10" d="m-25.142 43.544-5.254-16.176" transform="matrix(1 0 0 -1 66.782 87.704)"/><path style="fill:none;stroke-width:.3985;stroke-linecap:butt;stroke-linejoin:miter;stroke:#000;stroke-opacity:1;stroke-miterlimit:10" d="M-30.396 27.368h-17.008M-47.404 27.368l-5.253 16.176" transform="matrix(1 0 0 -1 66.782 87.704)"/><path style="fill:none;stroke-width:.19925;stroke-linecap:butt;stroke-linejoin:miter;stroke:gray;stroke-opacity:1;stroke-miterlimit:10" d="m-13.76 30.903 8.505-14.726" transform="matrix(1 0 0 -1 66.782 87.704)"/><path style="fill:none;stroke-width:.3985;stroke-linecap:butt;stroke-linejoin:miter;stroke:#000;stroke-opacity:1;stroke-miterlimit:10" d="M-5.255 16.177-6.431 27.34l-7.328 3.562" transform="matrix(1 0 0 -1 66.782 87.704)"/><path style="fill:none;stroke-width:.19925;stroke-linecap:butt;stroke-linejoin:miter;stroke:gray;stroke-opacity:1;stroke-miterlimit:10" d="M-5.255 16.177-16.638 3.536" transform="matrix(1 0 0 -1 66.782 87.704)"/><path style="fill:none;stroke-width:.3985;stroke-linecap:butt;stroke-linejoin:miter;stroke:#000;stroke-opacity:1;stroke-miterlimit:10" d="m-16.638 3.536-15.535 6.918" transform="matrix(1 0 0 -1 66.782 87.704)"/><g style="fill:#000;fill-opacity:1"><use xlink:href="#z" x="33.31" y="74.323"/><use xlink:href="#A" x="33.909" y="68.626"/></g><path style="fill:none;stroke-width:.19925;stroke-linecap:butt;stroke-linejoin:miter;stroke:gray;stroke-opacity:1;stroke-miterlimit:10" d="m-45.935 20.45 15.54 6.918" transform="matrix(1 0 0 -1 66.782 87.704)"/><path style="fill:none;stroke-width:.3985;stroke-linecap:butt;stroke-linejoin:miter;stroke:#000;stroke-opacity:1;stroke-miterlimit:10" d="M-30.396 27.368h-11.226l-4.313-6.918" transform="matrix(1 0 0 -1 66.782 87.704)"/><path style="fill:none;stroke-width:.19925;stroke-linecap:butt;stroke-linejoin:miter;stroke:gray;stroke-opacity:1;stroke-miterlimit:10" d="m-30.396 27.368-1.777-16.914" transform="matrix(1 0 0 -1 66.782 87.704)"/><path style="fill:none;stroke-width:.3985;stroke-linecap:butt;stroke-linejoin:miter;stroke:#000;stroke-opacity:1;stroke-miterlimit:10" d="m-32.173 10.454-13.762 9.996" transform="matrix(1 0 0 -1 66.782 87.704)"/><path style="fill:none;stroke-width:.19925;stroke-linecap:butt;stroke-linejoin:miter;stroke:gray;stroke-opacity:1;stroke-miterlimit:10" d="M-5.255 16.177-.001 0" transform="matrix(1 0 0 -1 66.782 87.704)"/><g style="fill:#000;fill-opacity:1"><use xlink:href="#B" x="62.301" y="95.438"/><use xlink:href="#C" x="56.698" y="94.247"/></g><g style="fill:#000;fill-opacity:1"><use xlink:href="#D" x="49.901" y="110.613"/><use xlink:href="#E" x="46.067" y="106.356"/></g><g style="fill:#000;fill-opacity:1"><use xlink:href="#F" x="29.163" y="109.808"/><use xlink:href="#G" x="30.934" y="104.36"/></g><path style="fill:none;stroke-width:.19925;stroke-linecap:butt;stroke-linejoin:miter;stroke:gray;stroke-opacity:1;stroke-miterlimit:10" d="M-52.661-11.194-38.9-1.198" transform="matrix(1 0 0 -1 66.782 87.704)"/><path style="fill:none;stroke-width:.3985;stroke-linecap:butt;stroke-linejoin:miter;stroke:#000;stroke-opacity:1;stroke-miterlimit:10" d="m-52.661-11.194 4.882 7.75 8.88 2.246" transform="matrix(1 0 0 -1 66.782 87.704)"/><path style="fill:none;stroke-width:.19925;stroke-linecap:butt;stroke-linejoin:miter;stroke:gray;stroke-opacity:1;stroke-miterlimit:10" d="m-38.9-1.198 13.758-9.996" transform="matrix(1 0 0 -1 66.782 87.704)"/><path style="fill:none;stroke-width:.3985;stroke-linecap:butt;stroke-linejoin:miter;stroke:#000;stroke-opacity:1;stroke-miterlimit:10" d="m-25.142-11.194-5.613 9.722-8.145.274" transform="matrix(1 0 0 -1 66.782 87.704)"/><path style="fill:none;stroke-width:.19925;stroke-linecap:butt;stroke-linejoin:miter;stroke:gray;stroke-opacity:1;stroke-miterlimit:10" d="m-25.142-11.194-5.254-16.176" transform="matrix(1 0 0 -1 66.782 87.704)"/><g style="fill:#000;fill-opacity:1"><use xlink:href="#H" x="33.611" y="116.72"/><use xlink:href="#l" x="27.883" y="116.72"/></g><g style="fill:#000;fill-opacity:1"><use xlink:href="#I" x="19.184" y="131.619"/><use xlink:href="#I" x="16.32" y="126.658"/></g><path style="fill:none;stroke-width:.3985;stroke-linecap:butt;stroke-linejoin:miter;stroke:#000;stroke-opacity:1;stroke-miterlimit:10" d="m-65.818-47.82 1.778 16.915" transform="matrix(1 0 0 -1 66.782 87.704)"/><path style="fill:none;stroke-width:.19925;stroke-linecap:butt;stroke-linejoin:miter;stroke:gray;stroke-opacity:1;stroke-miterlimit:10" d="m-64.04-30.905 16.636 3.535" transform="matrix(1 0 0 -1 66.782 87.704)"/><path style="fill:none;stroke-width:.3985;stroke-linecap:butt;stroke-linejoin:miter;stroke:#000;stroke-opacity:1;stroke-miterlimit:10" d="m-47.404-27.37-10.98 2.336-5.656-5.871" transform="matrix(1 0 0 -1 66.782 87.704)"/><path style="fill:none;stroke-width:.19925;stroke-linecap:butt;stroke-linejoin:miter;stroke:gray;stroke-opacity:1;stroke-miterlimit:10" d="m-47.404-27.37 8.504-14.727" transform="matrix(1 0 0 -1 66.782 87.704)"/><g clip-path="url(#J)"><path style="fill:none;stroke-width:.3985;stroke-linecap:butt;stroke-linejoin:miter;stroke:#000;stroke-opacity:1;stroke-miterlimit:10" d="m-38.9-42.097-11.379-12.64" transform="matrix(1 0 0 -1 66.782 87.704)"/></g><g clip-path="url(#K)"><path style="fill:none;stroke-width:.19925;stroke-linecap:butt;stroke-linejoin:miter;stroke:gray;stroke-opacity:1;stroke-miterlimit:10" d="m-50.279-54.737-15.539 6.918" transform="matrix(1 0 0 -1 66.782 87.704)"/></g><g clip-path="url(#L)"><path style="fill:none;stroke-width:.3985;stroke-linecap:butt;stroke-linejoin:miter;stroke:#000;stroke-opacity:1;stroke-miterlimit:10" d="m-50.279-54.737-9.152.351-6.387 6.567" transform="matrix(1 0 0 -1 66.782 87.704)"/></g><path style="fill:none;stroke-width:.19925;stroke-linecap:butt;stroke-linejoin:miter;stroke:gray;stroke-opacity:1;stroke-miterlimit:10" d="M-47.404-27.37h17.008" transform="matrix(1 0 0 -1 66.782 87.704)"/><path style="fill:none;stroke-width:.3985;stroke-linecap:butt;stroke-linejoin:miter;stroke:#000;stroke-opacity:1;stroke-miterlimit:10" d="M-30.396-27.37-38.9-42.097" transform="matrix(1 0 0 -1 66.782 87.704)"/><g style="fill:#000;fill-opacity:1"><use xlink:href="#M" x="16.902" y="112.959"/><use xlink:href="#N" x="15.132" y="107.511"/></g><path style="fill:none;stroke-width:.19925;stroke-linecap:butt;stroke-linejoin:miter;stroke:gray;stroke-opacity:1;stroke-miterlimit:10" d="m-64.04-23.835 11.379 12.64" transform="matrix(1 0 0 -1 66.782 87.704)"/><path style="fill:none;stroke-width:.3985;stroke-linecap:butt;stroke-linejoin:miter;stroke:#000;stroke-opacity:1;stroke-miterlimit:10" d="m-64.04-23.835 3.164 8.598 8.215 4.043" transform="matrix(1 0 0 -1 66.782 87.704)"/><path style="fill:none;stroke-width:.19925;stroke-linecap:butt;stroke-linejoin:miter;stroke:gray;stroke-opacity:1;stroke-miterlimit:10" d="m-52.661-11.194 5.257-16.176" transform="matrix(1 0 0 -1 66.782 87.704)"/><path style="fill:none;stroke-width:.3985;stroke-linecap:butt;stroke-linejoin:miter;stroke:#000;stroke-opacity:1;stroke-miterlimit:10" d="m-47.404-27.37-16.636 3.535" transform="matrix(1 0 0 -1 66.782 87.704)"/><path style="fill:none;stroke-width:.19925;stroke-linecap:butt;stroke-linejoin:miter;stroke:gray;stroke-opacity:1;stroke-miterlimit:10" d="m-25.142-11.194 11.383-12.637" transform="matrix(1 0 0 -1 66.782 87.704)"/><path style="fill:none;stroke-width:.3985;stroke-linecap:butt;stroke-linejoin:miter;stroke:#000;stroke-opacity:1;stroke-miterlimit:10" d="m-13.76-23.831-16.636-3.54" transform="matrix(1 0 0 -1 66.782 87.704)"/><g style="fill:#000;fill-opacity:1"><use xlink:href="#O" x="41.608" y="95.673"/><use xlink:href="#P" x="44.472" y="90.712"/></g><path style="fill:none;stroke-width:.19925;stroke-linecap:butt;stroke-linejoin:miter;stroke:gray;stroke-opacity:1;stroke-miterlimit:10" d="M-33.646 3.536h17.008" transform="matrix(1 0 0 -1 66.782 87.704)"/><path style="fill:none;stroke-width:.3985;stroke-linecap:butt;stroke-linejoin:miter;stroke:#000;stroke-opacity:1;stroke-miterlimit:10" d="m-16.638 3.536-10.254 4.566-6.754-4.566" transform="matrix(1 0 0 -1 66.782 87.704)"/><path style="fill:none;stroke-width:.19925;stroke-linecap:butt;stroke-linejoin:miter;stroke:gray;stroke-opacity:1;stroke-miterlimit:10" d="m-16.638 3.536-8.504-14.73" transform="matrix(1 0 0 -1 66.782 87.704)"/><path style="fill:none;stroke-width:.3985;stroke-linecap:butt;stroke-linejoin:miter;stroke:#000;stroke-opacity:1;stroke-miterlimit:10" d="m-25.142-11.194-8.504 14.73" transform="matrix(1 0 0 -1 66.782 87.704)"/><path style="fill:none;stroke-width:.19925;stroke-linecap:butt;stroke-linejoin:miter;stroke:gray;stroke-opacity:1;stroke-miterlimit:10" d="M-16.638 3.536-.001.001" transform="matrix(1 0 0 -1 66.782 87.704)"/><path style="fill:none;stroke-width:.3985;stroke-linecap:butt;stroke-linejoin:miter;stroke:#000;stroke-opacity:1;stroke-miterlimit:10" d="m-.001 0 1.777-16.913" transform="matrix(1 0 0 -1 66.782 87.704)"/><g style="fill:#000;fill-opacity:1"><use xlink:href="#Q" x="66.716" y="107.303"/><use xlink:href="#R" x="61.483" y="109.633"/></g><g style="fill:#000;fill-opacity:1"><use xlink:href="#S" x="59.542" y="126.776"/><use xlink:href="#T" x="54.908" y="123.409"/></g><path style="fill:none;stroke-width:.19925;stroke-linecap:butt;stroke-linejoin:miter;stroke:gray;stroke-opacity:1;stroke-miterlimit:10" d="m-22.263-50.007-5.258 16.176" transform="matrix(1 0 0 -1 66.782 87.704)"/><g clip-path="url(#U)"><path style="fill:none;stroke-width:.3985;stroke-linecap:butt;stroke-linejoin:miter;stroke:#000;stroke-opacity:1;stroke-miterlimit:10" d="m-22.263-50.007-5.863 7.04.605 9.136" transform="matrix(1 0 0 -1 66.782 87.704)"/></g><path style="fill:none;stroke-width:.19925;stroke-linecap:butt;stroke-linejoin:miter;stroke:gray;stroke-opacity:1;stroke-miterlimit:10" d="m-27.52-33.831 13.76 10" transform="matrix(1 0 0 -1 66.782 87.704)"/><path style="fill:none;stroke-width:.3985;stroke-linecap:butt;stroke-linejoin:miter;stroke:#000;stroke-opacity:1;stroke-miterlimit:10" d="m-13.76-23.831-10.98-2.336-2.78-7.664" transform="matrix(1 0 0 -1 66.782 87.704)"/><path style="fill:none;stroke-width:.19925;stroke-linecap:butt;stroke-linejoin:miter;stroke:gray;stroke-opacity:1;stroke-miterlimit:10" d="M-13.76-23.831 0-33.831" transform="matrix(1 0 0 -1 66.782 87.704)"/><g clip-path="url(#V)"><path style="fill:none;stroke-width:.3985;stroke-linecap:butt;stroke-linejoin:miter;stroke:#000;stroke-opacity:1;stroke-miterlimit:10" d="m-.001-33.831-5.254-16.176" transform="matrix(1 0 0 -1 66.782 87.704)"/></g><path style="fill:none;stroke-width:.3985;stroke-linecap:butt;stroke-linejoin:miter;stroke:#000;stroke-opacity:1;stroke-miterlimit:10" d="M-5.255-50.007h-17.008" transform="matrix(1 0 0 -1 66.782 87.704)"/><path style="fill:none;stroke-width:.19925;stroke-linecap:butt;stroke-linejoin:miter;stroke:gray;stroke-opacity:1;stroke-miterlimit:10" d="m-13.76-23.831 15.536 6.918" transform="matrix(1 0 0 -1 66.782 87.704)"/><path style="fill:none;stroke-width:.3985;stroke-linecap:butt;stroke-linejoin:miter;stroke:#000;stroke-opacity:1;stroke-miterlimit:10" d="M1.776-16.913 0-33.831" transform="matrix(1 0 0 -1 66.782 87.704)"/><g style="fill:#000;fill-opacity:1"><use xlink:href="#W" x="62.834" y="68.605"/><use xlink:href="#X" x="67.468" y="65.238"/></g><g style="fill:#000;fill-opacity:1"><use xlink:href="#Y" x="65.74" y="47.981"/><use xlink:href="#Z" x="70.974" y="50.311"/></g><g style="fill:#000;fill-opacity:1"><use xlink:href="#aa" x="81.025" y="35.716"/><use xlink:href="#ab" x="83.889" y="40.677"/></g><path style="fill:none;stroke-width:.19925;stroke-linecap:butt;stroke-linejoin:miter;stroke:gray;stroke-opacity:1;stroke-miterlimit:10" d="m28.39 53.544-8.505-14.73" transform="matrix(1 0 0 -1 66.782 87.704)"/><path style="fill:none;stroke-width:.3985;stroke-linecap:butt;stroke-linejoin:miter;stroke:#000;stroke-opacity:1;stroke-miterlimit:10" d="m28.39 53.544-1.31-9.067-7.195-5.664" transform="matrix(1 0 0 -1 66.782 87.704)"/><path style="fill:none;stroke-width:.19925;stroke-linecap:butt;stroke-linejoin:miter;stroke:gray;stroke-opacity:1;stroke-miterlimit:10" d="M19.885 38.813 11.382 53.54" transform="matrix(1 0 0 -1 66.782 87.704)"/><g style="fill:#000;fill-opacity:1"><use xlink:href="#ac" x="80.939" y="25.666"/><use xlink:href="#ad" x="86.667" y="25.666"/></g><g style="fill:#000;fill-opacity:1"><use xlink:href="#ae" x="89.912" y="8.245"/><use xlink:href="#af" x="94.546" y="11.612"/></g><path style="fill:none;stroke-width:.3985;stroke-linecap:butt;stroke-linejoin:miter;stroke:#000;stroke-opacity:1;stroke-miterlimit:10" d="M35.42 86.634 33.644 69.72" transform="matrix(1 0 0 -1 66.782 87.704)"/><path style="fill:none;stroke-width:.19925;stroke-linecap:butt;stroke-linejoin:miter;stroke:gray;stroke-opacity:1;stroke-miterlimit:10" d="m33.643 69.716-13.758 10" transform="matrix(1 0 0 -1 66.782 87.704)"/><path style="fill:none;stroke-width:.3985;stroke-linecap:butt;stroke-linejoin:miter;stroke:#000;stroke-opacity:1;stroke-miterlimit:10" d="m19.885 79.716 15.536 6.918" transform="matrix(1 0 0 -1 66.782 87.704)"/><path style="fill:none;stroke-width:.19925;stroke-linecap:butt;stroke-linejoin:miter;stroke:gray;stroke-opacity:1;stroke-miterlimit:10" d="M33.643 69.72 28.39 53.544" transform="matrix(1 0 0 -1 66.782 87.704)"/><path style="fill:none;stroke-width:.3985;stroke-linecap:butt;stroke-linejoin:miter;stroke:#000;stroke-opacity:1;stroke-miterlimit:10" d="m33.643 69.72.61-9.141-5.864-7.035" transform="matrix(1 0 0 -1 66.782 87.704)"/><path style="fill:none;stroke-width:.19925;stroke-linecap:butt;stroke-linejoin:miter;stroke:gray;stroke-opacity:1;stroke-miterlimit:10" d="m28.39 53.544-17.008-.004" transform="matrix(1 0 0 -1 66.782 87.704)"/><path style="fill:none;stroke-width:.3985;stroke-linecap:butt;stroke-linejoin:miter;stroke:#000;stroke-opacity:1;stroke-miterlimit:10" d="M11.382 53.54 6.124 69.716M6.124 69.716l13.761 10" transform="matrix(1 0 0 -1 66.782 87.704)"/><path style="fill:none;stroke-width:.19925;stroke-linecap:butt;stroke-linejoin:miter;stroke:gray;stroke-opacity:1;stroke-miterlimit:10" d="M19.885 38.813 8.503 26.173" transform="matrix(1 0 0 -1 66.782 87.704)"/><path style="fill:none;stroke-width:.3985;stroke-linecap:butt;stroke-linejoin:miter;stroke:#000;stroke-opacity:1;stroke-miterlimit:10" d="m8.503 26.173 10.257 4.566 1.125 8.074" transform="matrix(1 0 0 -1 66.782 87.704)"/><path style="fill:none;stroke-width:.19925;stroke-linecap:butt;stroke-linejoin:miter;stroke:gray;stroke-opacity:1;stroke-miterlimit:10" d="M8.503 26.173-7.033 33.09" transform="matrix(1 0 0 -1 66.782 87.704)"/><path style="fill:none;stroke-width:.3985;stroke-linecap:butt;stroke-linejoin:miter;stroke:#000;stroke-opacity:1;stroke-miterlimit:10" d="m-7.032 33.09 1.777 16.915" transform="matrix(1 0 0 -1 66.782 87.704)"/><g style="fill:#000;fill-opacity:1"><use xlink:href="#ag" x="63.888" y="35.457"/><use xlink:href="#ah" x="69.491" y="34.266"/></g><path style="fill:none;stroke-width:.19925;stroke-linecap:butt;stroke-linejoin:miter;stroke:gray;stroke-opacity:1;stroke-miterlimit:10" d="m-.001 66.18 11.383-12.64" transform="matrix(1 0 0 -1 66.782 87.704)"/><path style="fill:none;stroke-width:.3985;stroke-linecap:butt;stroke-linejoin:miter;stroke:#000;stroke-opacity:1;stroke-miterlimit:10" d="m11.382 53.54-3.47 10.676L0 66.18" transform="matrix(1 0 0 -1 66.782 87.704)"/><path style="fill:none;stroke-width:.19925;stroke-linecap:butt;stroke-linejoin:miter;stroke:gray;stroke-opacity:1;stroke-miterlimit:10" d="m11.382 53.54-16.637-3.535" transform="matrix(1 0 0 -1 66.782 87.704)"/><path style="fill:none;stroke-width:.3985;stroke-linecap:butt;stroke-linejoin:miter;stroke:#000;stroke-opacity:1;stroke-miterlimit:10" d="M-5.255 50.005-.001 66.18" transform="matrix(1 0 0 -1 66.782 87.704)"/><path style="fill:none;stroke-width:.19925;stroke-linecap:butt;stroke-linejoin:miter;stroke:gray;stroke-opacity:1;stroke-miterlimit:10" d="m8.503 26.173-13.758-9.996" transform="matrix(1 0 0 -1 66.782 87.704)"/><path style="fill:none;stroke-width:.3985;stroke-linecap:butt;stroke-linejoin:miter;stroke:#000;stroke-opacity:1;stroke-miterlimit:10" d="M-5.255 16.177-7.032 33.09" transform="matrix(1 0 0 -1 66.782 87.704)"/></svg>