<svg xmlns="http://www.w3.org/2000/svg" width="90.11pt" height="84.579" viewBox="0 0 90.11 63.434" version="1.2"><defs><clipPath id="a"><path d="M0 0h89.664v63.152H0Zm0 0"/></clipPath><clipPath id="b"><path d="M0 51h11v12.152H0Zm0 0"/></clipPath><clipPath id="c"><path d="M0 52h12v11.152H0Zm0 0"/></clipPath><clipPath id="d"><path d="M9 46h15v17.152H9Zm0 0"/></clipPath><clipPath id="e"><path d="M76 24h13.664v17H76Zm0 0"/></clipPath><clipPath id="f"><path d="M75 25h14.664v15H75Zm0 0"/></clipPath><clipPath id="g"><path d="M77 15h12.664v14H77Zm0 0"/></clipPath><clipPath id="h"><path d="M79 13h10.664v18H79Zm0 0"/></clipPath></defs><path style="fill:none;stroke-width:.19925;stroke-linecap:butt;stroke-linejoin:miter;stroke:gray;stroke-opacity:1;stroke-miterlimit:10" d="M-.002 0h85.043M-.002 28.35h85.043M-.002 56.685h85.043M-.002 0v56.691M28.346.001v56.691M56.693.001v56.691M85.03.001v56.691" transform="matrix(1 0 0 -1 3.166 59.54)"/><g clip-path="url(#a)"><path style="fill:none;stroke-width:.3985;stroke-linecap:butt;stroke-linejoin:miter;stroke:#000;stroke-opacity:1;stroke-miterlimit:10" d="M-.002 0 85.041 28.35c0 15.652-19.039 28.343-42.52 28.343-23.484 0-42.523-12.691-42.523-28.343" transform="matrix(1 0 0 -1 3.166 59.54)"/></g><g clip-path="url(#b)"><path style="fill:none;stroke-width:.3985;stroke-linecap:butt;stroke-linejoin:miter;stroke:#000;stroke-opacity:1;stroke-miterlimit:10" d="m-1.26-2.519 2.52 5.04" transform="matrix(1 0 0 -1 3.166 59.54)"/></g><g clip-path="url(#c)"><path style="fill:none;stroke-width:.3985;stroke-linecap:butt;stroke-linejoin:miter;stroke:#000;stroke-opacity:1;stroke-miterlimit:10" d="m2.522-1.26-5.043 2.519" transform="matrix(1 0 0 -1 3.166 59.54)"/></g><g clip-path="url(#d)"><path style="fill:none;stroke-width:.3985;stroke-linecap:butt;stroke-linejoin:miter;stroke:#000;stroke-opacity:1;stroke-miterlimit:10" d="M12.186 1.962 14.706 7" transform="matrix(1 0 0 -1 3.166 59.54)"/></g><path style="fill:none;stroke-width:.3985;stroke-linecap:butt;stroke-linejoin:miter;stroke:#000;stroke-opacity:1;stroke-miterlimit:10" d="m15.967 3.22-5.043 2.523M25.63 6.442l2.52 5.043M29.412 7.704l-5.043 2.52M39.076 10.927l2.52 5.039M42.857 12.185l-5.043 2.52M52.522 15.407l2.519 5.04M56.303 16.665l-5.043 2.523M65.967 19.888l2.52 5.043M69.748 21.15l-5.043 2.519" transform="matrix(1 0 0 -1 3.166 59.54)"/><g clip-path="url(#e)"><path style="fill:none;stroke-width:.3985;stroke-linecap:butt;stroke-linejoin:miter;stroke:#000;stroke-opacity:1;stroke-miterlimit:10" d="m79.412 24.372 2.52 5.04" transform="matrix(1 0 0 -1 3.166 59.54)"/></g><g clip-path="url(#f)"><path style="fill:none;stroke-width:.3985;stroke-linecap:butt;stroke-linejoin:miter;stroke:#000;stroke-opacity:1;stroke-miterlimit:10" d="m83.193 25.63-5.043 2.52" transform="matrix(1 0 0 -1 3.166 59.54)"/></g><g clip-path="url(#g)"><path style="fill:none;stroke-width:.3985;stroke-linecap:butt;stroke-linejoin:miter;stroke:#000;stroke-opacity:1;stroke-miterlimit:10" d="m85.424 36.712-5.367 1.715" transform="matrix(1 0 0 -1 3.166 59.54)"/></g><g clip-path="url(#h)"><path style="fill:none;stroke-width:.3985;stroke-linecap:butt;stroke-linejoin:miter;stroke:#000;stroke-opacity:1;stroke-miterlimit:10" d="m83.596 40.255-1.715-5.367" transform="matrix(1 0 0 -1 3.166 59.54)"/></g><path style="fill:none;stroke-width:.3985;stroke-linecap:butt;stroke-linejoin:miter;stroke:#000;stroke-opacity:1;stroke-miterlimit:10" d="m76.037 48.423-5.547-.988M72.772 50.704l.988-5.55M63.03 55.34l-4.993-2.616M59.225 56.528l2.617-4.992M48.736 58.427l-4.23-3.727M44.756 58.68l3.726-4.23M34.143 58.185l-3.297-4.567M30.209 57.552l4.57-3.301M19.936 54.563l-2.02-5.261M16.295 52.942l5.262-2.02M7.197 46.942l-.02-5.636M4.373 44.134l5.633-.02M-1.244 34.286l3.168-4.66M-1.99 30.372l4.664 3.168" transform="matrix(1 0 0 -1 3.166 59.54)"/></svg>