<svg xmlns="http://www.w3.org/2000/svg" xmlns:xlink="http://www.w3.org/1999/xlink" width="155.883" height="164.139" viewBox="0 0 116.912 123.104" version="1.2"><defs><symbol overflow="visible" id="a"><path style="stroke:none" d="M4.922 0v-.469h-1.39v-5.734c0-.234 0-.328-.266-.328-.11 0-.125 0-.22.078-.765.562-1.796.562-2 .562H.845v.47h.203c.156 0 .703-.016 1.297-.204v5.156H.954V0c.437-.031 1.5-.031 1.984-.031s1.546 0 1.984.031Zm0 0"/></symbol><symbol overflow="visible" id="b"><path style="stroke:none" d="M5.156-2.219h-.468c-.032.203-.125.844-.266.906-.11.063-.86.063-1.016.063H1.937c.47-.39 1-.813 1.438-1.14 1.14-.844 1.781-1.313 1.781-2.25 0-1.157-1.047-1.891-2.437-1.891-1.219 0-2.156.625-2.156 1.515 0 .594.484.735.718.735C1.61-4.281 2-4.5 2-5c0-.516-.422-.672-.563-.719.282-.234.672-.343 1.032-.343.844 0 1.312.671 1.312 1.421 0 .688-.375 1.375-1.078 2.079l-2 2.046c-.14.11-.14.141-.14.344V0h4.28Zm0 0"/></symbol><symbol overflow="visible" id="k"><path style="stroke:none" d="M5.25-1.86c0-1.077-.844-1.546-1.328-1.827.687-.36 1-.797 1-1.376 0-1.015-.906-1.468-2.047-1.468-1.375 0-2.078.797-2.078 1.75 0 .437.187 1.062.953 1.5C.922-2.906.484-2.344.484-1.61.484-.406 1.563.109 2.844.109 4.438.11 5.25-.766 5.25-1.859ZM4.172-5.046c0 .484-.25.813-.688 1.11l-1.5-.844c-.156-.078-.437-.25-.437-.594 0-.703.89-.766 1.297-.766.828 0 1.328.407 1.328 1.094Zm.219 3.734c0 .829-.938 1-1.516 1-.969 0-1.547-.515-1.547-1.296 0-.766.531-1.204.89-1.407l1.36.766c.438.25.813.453.813.938Zm0 0"/></symbol><symbol overflow="visible" id="c"><path style="stroke:none" d="M4.188 3.656c.468-.281 1.062-.953.609-2.36.516.485 1.36.829 2.11.407.655-.39.827-1.36.124-2.578-.593-1.031-1.547-1.375-2.234-.984-.36.218-.453.625-.266.953.235.39.657.437.953.265.5-.296.329-.812.313-.859.422.156.703.5.86.781C7.077 0 6.546.328 6.265.5 6.156.563 5 1.219 4.437.344 4.22 0 4.204-.031 4.173-.046c-.063-.095-.156-.063-.219-.032-.14.094-.094.187 0 .328l.219.375c.547.953-.313 1.438-.75 1.703-.406.235-1.297.735-1.813-.156A2.512 2.512 0 0 1 1.266.906c.265.235.593.328.953.125.39-.218.5-.64.281-1.031-.219-.36-.625-.516-1.063-.266-.78.454-.812 1.579-.171 2.688.89 1.531 2.125 1.687 2.921 1.234Zm0 0"/></symbol><symbol overflow="visible" id="e"><path style="stroke:none" d="M4.313 3.469c1-.578 1.39-1.719.656-3C4.829.234 4.53-.22 4.03-.47l1.14-.656c.095.266.126.375.282.656.734 1.266 2.172 1.5 2.39 1.375.063-.031.157-.11.095-.219-.016-.03-.016-.03-.125-.093a4.438 4.438 0 0 1-1-1.188c-.375-.64-.47-1.219-.532-1.484-.015-.094 0-.11-.015-.125-.079-.125-.172-.063-.313.015L3.422-.734c-.14.093-.25.156-.14.343.062.11.109.125.202.125.61.11.954.516 1.157.875.437.766-.313 1.204-1.016 1.61-.625.36-1.5.86-2.094-.172-.125-.219-.375-.781-.093-1.438.187.313.562.454.906.25.469-.265.36-.734.234-.937-.062-.11-.406-.531-.937-.219-.72.422-1.063 1.5-.454 2.578.797 1.375 2.063 1.797 3.125 1.188Zm0 0"/></symbol><symbol overflow="visible" id="f"><path style="stroke:none" d="M4.39 3.531c1.22-.703 1.329-1.937.735-2.984-.11-.188-.39-.672-1.266-.672l.157-.094C5-.78 5.484-.813 5.64-.829a1.624 1.624 0 0 1 1.421.798c.079.156.235.469.157.781-.235-.281-.563-.328-.813-.172a.612.612 0 0 0-.234.86c.203.343.547.406.875.218.531-.312.875-1 .344-1.906-.672-1.172-2.25-2.156-4.422-.906-.672.39-1.328.86-1.719 1.578-.422.781-.25 1.531.11 2.14.687 1.188 1.874 1.641 3.03.97ZM3.72 2.344c-.86.5-1.516.875-2.016-.016-.266-.437-.047-.86.047-1.015.203-.297.828-.657.984-.75C3.813-.063 4.484.156 4.766.64c.468.828-.172 1.203-1.047 1.703Zm0 0"/></symbol><symbol overflow="visible" id="C"><path style="stroke:none" d="m2.453 4.266.406-.235-.687-1.203L7.14-.032c.203-.124.28-.171.14-.405-.047-.094-.062-.11-.172-.141-.875-.39-1.39-1.281-1.5-1.453l-.093-.172-.391.234.094.172c.078.14.36.594.828 1.016L1.578 1.797.875.594.469.828c.25.36.781 1.281 1.031 1.703.234.422.766 1.344.953 1.735Zm0 0"/></symbol><symbol overflow="visible" id="D"><path style="stroke:none" d="M5.469 2.906C6.047 2.578 8.28 1.281 7.094-.78 6.39-2 5.187-2.437 4.03-1.766c-1.187.688-1.328 1.907-.718 2.97.171.312.453.687 1.25.655l-.188.11c-.64.375-1.188.562-1.547.625a1.423 1.423 0 0 1-1.39-.703c-.079-.157-.235-.485-.22-.829.079.079.391.344.782.11.297-.172.438-.516.234-.86-.187-.343-.546-.406-.875-.218-.593.344-.812 1.062-.265 2.015.64 1.125 2.172 2.079 4.375.797Zm.156-1.672c-.531.313-1.547.594-1.969-.14C3.172.266 3.828-.11 4.687-.594c.844-.5 1.532-.89 2.079.047.28.5-.047.969-.11 1.063-.218.25-.734.546-1.031.718Zm0 0"/></symbol><symbol overflow="visible" id="Y"><path style="stroke:none" d="M8.344 1.61 7.328-.14c-.125-.204-.812-1.516-.844-1.641-.078-.203 0-.266.063-.313L6.313-2.5l-2.36.969.235.39c.703-.296.875-.25.921-.218.11.062.516.765.61.921L6.547 1C6.28.969 6 .906 5.719.844 4.266.578 2.734.64 1.469 1.375c-.61.344-.328.828-.297.875.078.14.36.531.922.203L2.5 2.22c.406-.235.844-.438 1.281-.625.625-.266 1.235-.375 1.75-.266l2.344.438c.14.03.172.015.469-.157Zm0 0"/></symbol><symbol overflow="visible" id="d"><path style="stroke:none" d="m-2.703 4.688.406.234.485-.844.953.547-.485.844.407.234.484-.844 3.625 2.094c.219.125.297.14.437-.11.11-.187.094-.187.016-.374L1.609 1.28l-.406-.234-1.437 2.5L-1.188 3l.563-.969-.406-.234c-.157.344-.61 1.125-.828 1.5-.204.344-.625 1.094-.844 1.39Zm2.828-.813L1.344 1.75 2.78 5.406Zm0 0"/></symbol><symbol overflow="visible" id="g"><path style="stroke:none" d="m2.781 8.016 1.016-1.75c.125-.204.906-1.454 1-1.547.14-.172.219-.14.312-.094l.235-.406-2.016-1.563-.234.39c.61.485.656.657.64.688.016.125-.39.829-.484.985l-.828 1.437c-.11-.25-.203-.5-.297-.781C1.641 3.985.828 2.703-.438 1.969c-.609-.344-.89.14-.921.187-.079.14-.266.563.296.89l.407.235c.406.235.812.5 1.187.781.531.422.922.875 1.094 1.391l.781 2.25c.047.125.078.14.375.313Zm0 0"/></symbol><symbol overflow="visible" id="l"><path style="stroke:none" d="M-2.906 5.469c.328.578 1.625 2.812 3.687 1.625C2 6.39 2.437 5.187 1.766 4.03c-.688-1.187-1.907-1.328-2.97-.718-.312.171-.687.453-.655 1.25l-.11-.188c-.375-.64-.562-1.188-.625-1.547a1.423 1.423 0 0 1 .703-1.39c.157-.079.485-.235.829-.22-.079.079-.344.391-.11.782.172.297.516.438.86.234.343-.187.406-.546.218-.875-.344-.593-1.062-.812-2.015-.265-1.125.64-2.079 2.172-.797 4.375Zm1.672.156c-.313-.531-.594-1.547.14-1.969.828-.484 1.203.172 1.688 1.031.5.844.89 1.532-.047 2.079-.5.28-.969-.047-1.063-.11-.25-.218-.546-.734-.718-1.031Zm0 0"/></symbol><symbol overflow="visible" id="p"><path style="stroke:none" d="m-4.266 2.453.235.406 1.203-.687L.032 7.14c.124.203.171.28.405.14.094-.047.11-.062.141-.172.39-.875 1.281-1.39 1.453-1.5l.172-.093-.234-.391-.172.094c-.14.078-.594.36-1.016.828l-2.578-4.469L-.594.875-.828.469c-.36.25-1.281.781-1.703 1.031-.422.234-1.344.766-1.735.953Zm0 0"/></symbol><symbol overflow="visible" id="q"><path style="stroke:none" d="m-3.36 4.5.407-.234c-.078-.188-.313-.797-.219-.922.063-.11.719-.485.844-.563l1.281-.734a38.422 38.422 0 0 1-.687 1.703c-.563 1.297-.891 2.031-.422 2.844.578 1 1.86 1.11 3.062.422 1.063-.61 1.563-1.625 1.11-2.391-.297-.516-.782-.406-.985-.281-.281.156-.515.547-.265.984.25.453.703.36.843.344-.125.344-.406.625-.718.812-.735.422-1.485.079-1.86-.578-.344-.593-.36-1.375-.094-2.343L-.359.796C-.281.64-.297.609-.406.437L-.484.281l-3.704 2.14Zm0 0"/></symbol><symbol overflow="visible" id="t"><path style="stroke:none" d="m-4.688 2.703.235.406.844-.484.546.953-.843.485.234.406.844-.485L-.734 7.61c.125.22.171.266.421.125.188-.109.188-.125.22-.328L.75 1.922l-.234-.406-2.5 1.437L-2.531 2l.969-.563-.235-.406c-.312.219-1.094.672-1.469.89-.343.204-1.093.626-1.421.782Zm2.844.703L.281 2.187l-.594 3.876Zm0 0"/></symbol><symbol overflow="visible" id="u"><path style="stroke:none" d="M-3.469 4.313c.578 1 1.719 1.39 3 .656.235-.14.688-.438.938-.938l.656 1.14c-.266.095-.375.126-.656.282-1.266.734-1.5 2.172-1.375 2.39.031.063.11.157.219.095.03-.016.03-.016.093-.125.39-.47.813-.782 1.188-1 .64-.375 1.219-.47 1.484-.532.094-.015.11 0 .125-.015.125-.079.063-.172-.015-.313L.734 3.422c-.093-.14-.156-.25-.343-.14-.11.062-.125.109-.125.202-.11.61-.516.954-.875 1.157-.766.437-1.204-.313-1.61-1.016-.36-.625-.86-1.5.172-2.094.219-.125.781-.375 1.438-.093-.313.187-.454.562-.25.906.265.469.734.36.937.234.11-.062.531-.406.219-.937-.422-.72-1.5-1.063-2.578-.454-1.375.797-1.797 2.063-1.188 3.125Zm0 0"/></symbol><symbol overflow="visible" id="O"><path style="stroke:none" d="M-3.625 4.234c.547.938 1.516.922 2.078.907-.422.656-.484 1.203-.187 1.703.5.875 1.515.812 2.515.25 1.188-.688 1.39-1.735.922-2.563C1.484 4.156 1 3.703.125 3.72c.531-.75.625-1.453.25-2.094-.594-1.031-1.781-.938-2.89-.297-1.376.797-1.657 1.953-1.11 2.906Zm2.531 2.22c-.234-.423-.187-.829.047-1.313l1.719-.016c.172-.016.5 0 .672.297.343.61-.39 1.11-.75 1.312-.719.407-1.344.313-1.688-.28ZM-3.14 3.327c-.421-.719.313-1.344.813-1.625.828-.484 1.578-.328 1.969.344.39.672.156 1.312-.063 1.672l-1.547.015c-.515 0-.937.016-1.172-.406Zm0 0"/></symbol><symbol overflow="visible" id="m"><path style="stroke:none" d="M4.266-2.453 4.03-2.86l-1.203.687-2.86-4.969c-.124-.203-.171-.28-.405-.14-.094.047-.11.062-.141.172-.39.875-1.281 1.39-1.453 1.5l-.172.093.234.391.172-.094c.14-.078.594-.36 1.016-.828l2.578 4.469-1.203.703.234.406c.36-.25 1.281-.781 1.703-1.031.422-.234 1.344-.766 1.735-.953Zm0 0"/></symbol><symbol overflow="visible" id="n"><path style="stroke:none" d="M2.984-5.406c-.468-.813-1.687-2.875-3.78-1.672-2.079 1.203-.891 3.266-.407 4.094.5.875 1.64 2.859 3.719 1.656 2.078-1.203.968-3.203.468-4.078Zm-1.156.547c.281.484.734 1.28.906 1.765.36.86-.125 1.297-.39 1.453-.297.172-.906.266-1.375-.312-.344-.39-.86-1.281-1.125-1.766-.36-.625-.688-1.187-.875-1.672-.328-.828.218-1.265.422-1.375.328-.187.78-.234 1.156.063.344.219.875 1.14 1.281 1.844Zm0 0"/></symbol><symbol overflow="visible" id="M"><path style="stroke:none" d="m3.36-4.5-.407.234c.078.188.313.797.219.922-.063.11-.719.485-.844.563l-1.281.734c.219-.578.469-1.203.687-1.703.563-1.297.891-2.031.422-2.844-.578-1-1.86-1.11-3.062-.422-1.063.61-1.563 1.625-1.11 2.391.297.516.782.406.985.281.281-.156.515-.547.265-.984-.25-.453-.703-.36-.843-.344.125-.344.406-.625.718-.812.735-.422 1.485-.079 1.86.578.344.593.36 1.375.094 2.343L.359-.796c-.078.156-.062.188.047.36l.078.156 3.704-2.14Zm0 0"/></symbol><symbol overflow="visible" id="N"><path style="stroke:none" d="M1.61-8.344-.14-7.328c-.204.125-1.516.812-1.641.844-.203.078-.266 0-.313-.063l-.406.234.969 2.36.39-.235c-.296-.703-.25-.875-.218-.921.062-.11.765-.516.921-.61L1-6.547C.969-6.28.906-6 .844-5.719c-.266 1.453-.203 2.985.531 4.25.344.61.828.328.875.297.14-.078.531-.36.203-.922L2.22-2.5a12.144 12.144 0 0 1-.625-1.281c-.266-.625-.375-1.235-.266-1.75l.438-2.344c.03-.14.015-.172-.157-.469Zm0 0"/></symbol><symbol overflow="visible" id="R"><path style="stroke:none" d="M3.656-4.188c-.281-.468-.953-1.062-2.36-.609.485-.516.829-1.36.407-2.11-.39-.655-1.36-.827-2.578-.124-1.031.593-1.375 1.547-.984 2.234.218.36.625.453.953.266a.687.687 0 0 0 .265-.953c-.296-.5-.812-.329-.859-.313.156-.422.5-.703.781-.86C0-7.077.328-6.546.5-6.265c.063.11.719 1.266-.156 1.829-.344.218-.375.234-.39.265-.095.063-.063.156-.032.219.094.14.187.094.328 0l.375-.219c.953-.547 1.438.313 1.703.75.235.406.735 1.297-.156 1.813-.235.14-.688.343-1.266.343.235-.265.328-.593.125-.953-.218-.39-.64-.5-1.031-.281-.36.219-.516.625-.266 1.063.454.78 1.579.812 2.688.171 1.531-.89 1.687-2.125 1.234-2.921Zm0 0"/></symbol><symbol overflow="visible" id="X"><path style="stroke:none" d="M3.531-4.39C2.828-5.61 1.594-5.72.547-5.126c-.188.11-.672.39-.672 1.266l-.094-.157C-.78-5-.813-5.484-.829-5.64A1.624 1.624 0 0 1-.03-7.062c.156-.079.469-.235.781-.157-.281.235-.328.563-.172.813a.612.612 0 0 0 .86.234c.343-.203.406-.547.218-.875-.312-.531-1-.875-1.906-.344-1.172.672-2.156 2.25-.906 4.422.39.672.86 1.328 1.578 1.719.781.422 1.531.25 2.14-.11 1.188-.687 1.641-1.874.97-3.03Zm-1.187.671c.5.86.875 1.516-.016 2.016-.437.266-.86.047-1.015-.047-.297-.203-.657-.828-.75-.984-.625-1.079-.407-1.75.078-2.032.828-.468 1.203.172 1.703 1.047Zm0 0"/></symbol><symbol overflow="visible" id="o"><path style="stroke:none" d="M0 4.922h.469v-1.39h5.734c.234 0 .328 0 .328-.266 0-.11 0-.125-.078-.22-.562-.765-.562-1.796-.562-2V.845h-.47v.203c0 .156.016.703.204 1.297H.469V.954H0c.031.437.031 1.5.031 1.984s0 1.546-.031 1.984Zm0 0"/></symbol><symbol overflow="visible" id="z"><path style="stroke:none" d="M6.422 5.563V3.53c0-.234.047-1.703.094-1.844.03-.203.125-.218.218-.234V.984L4.204.641v.468c.765.094.89.22.905.266.063.11.063.922.063 1.094V4.14c-.219-.172-.422-.36-.64-.547C3.405 2.64 2.061 1.922.593 1.922c-.703 0-.703.562-.703.625 0 .156.046.625.703.625h.469c.468 0 .953.031 1.421.094.672.093 1.25.296 1.657.656l1.796 1.547c.11.093.141.093.485.093Zm0 0"/></symbol><symbol overflow="visible" id="r"><path style="stroke:none" d="m-4.266-2.453-.234.406 1.203.688-2.86 4.968c-.124.204-.171.282.063.422.094.047.11.063.235.047.953-.125 1.843.39 2.015.5l.172.094.235-.39-.172-.095c-.141-.078-.625-.359-1.235-.484l2.578-4.469 1.204.704.234-.407c-.39-.187-1.313-.719-1.735-.969-.421-.234-1.343-.765-1.703-1.015Zm0 0"/></symbol><symbol overflow="visible" id="s"><path style="stroke:none" d="M-5.438-1.063c-.28.47-.453 1.375.641 2.36-.703-.172-1.61-.047-2.031.703-.39.656-.047 1.578 1.172 2.281 1.031.594 2.031.422 2.422-.265a.668.668 0 0 0-.235-.954.67.67 0 0 0-.953.235c-.297.5.125.89.14.906-.437.078-.843-.078-1.124-.234-.719-.422-.422-.985-.25-1.266.062-.11.718-1.234 1.656-.765.344.187.375.203.422.203.094.03.156-.032.187-.094.094-.14 0-.188-.14-.281l-.375-.22C-4.86 1-4.375.142-4.11-.296c.234-.406.734-1.297 1.625-.781.234.14.656.437.921.937-.328-.078-.671 0-.875.36-.218.39-.109.812.282 1.031.36.219.797.156 1.047-.281.453-.781-.11-1.781-1.22-2.422-1.53-.89-2.655-.406-3.108.39Zm0 0"/></symbol><symbol overflow="visible" id="v"><path style="stroke:none" d="M-5.563-.86c-.703 1.22-.187 2.36.86 2.954.187.11.672.39 1.422-.047l-.094.156c-.563.985-.969 1.25-1.11 1.344a1.562 1.562 0 0 1-1.609.015c-.156-.078-.437-.265-.531-.593.344.14.64 0 .797-.25.172-.297.11-.672-.234-.86-.344-.203-.688-.078-.875.25-.313.532-.25 1.282.656 1.813C-5.11 4.594-3.25 4.672-2 2.5c.39-.672.734-1.422.703-2.219-.031-.89-.562-1.469-1.172-1.828-1.187-.687-2.422-.469-3.094.688Zm1.157.704c.5-.86.875-1.516 1.765-1.016a.952.952 0 0 1 .454.922c-.016.36-.376.984-.47 1.14-.624 1.079-1.312 1.22-1.796.938-.828-.469-.453-1.11.047-1.984Zm0 0"/></symbol><symbol overflow="visible" id="A"><path style="stroke:none" d="m-2.453-4.266-.406.235.687 1.203L-7.14.032c-.203.124-.28.171-.14.405.047.094.062.11.172.141.875.39 1.39 1.281 1.5 1.453l.093.172.391-.234-.094-.172A4.282 4.282 0 0 0-6.047.78l4.469-2.578.703 1.203.406-.234c-.25-.36-.781-1.281-1.031-1.703-.234-.422-.766-1.344-.953-1.735Zm0 0"/></symbol><symbol overflow="visible" id="B"><path style="stroke:none" d="M-4.234-3.625c-.938.547-.922 1.516-.907 2.078-.656-.422-1.203-.484-1.703-.187-.875.5-.812 1.515-.25 2.515.688 1.188 1.735 1.39 2.563.922.375-.219.828-.703.812-1.578.75.531 1.453.625 2.094.25 1.031-.594.938-1.781.297-2.89-.797-1.376-1.953-1.657-2.906-1.11Zm-2.22 2.531c.423-.234.829-.187 1.313.047l.016 1.719c.016.172 0 .5-.297.672-.61.343-1.11-.39-1.312-.75-.407-.719-.313-1.344.28-1.688Zm3.126-2.047c.719-.421 1.344.313 1.625.813.484.828.328 1.578-.344 1.969-.672.39-1.312.156-1.672-.063l-.015-1.547c0-.515-.016-.937.406-1.172Zm0 0"/></symbol><symbol overflow="visible" id="G"><path style="stroke:none" d="m-4.5-3.36.234.407c.188-.078.797-.313.922-.219.11.063.485.719.563.844l.734 1.281a38.422 38.422 0 0 1-1.703-.687c-1.297-.563-2.031-.891-2.844-.422-1 .578-1.11 1.86-.422 3.062.61 1.063 1.625 1.563 2.391 1.11.516-.297.406-.782.281-.985C-4.5.75-4.89.516-5.328.766c-.453.25-.36.703-.344.843-.344-.125-.625-.406-.812-.718-.422-.735-.079-1.485.578-1.86.593-.344 1.375-.36 2.343-.094l2.766.704c.156.078.188.062.36-.047l.156-.078-2.14-3.704Zm0 0"/></symbol><symbol overflow="visible" id="I"><path style="stroke:none" d="M-4.188-3.656c-.468.281-1.062.953-.609 2.36-.516-.485-1.36-.829-2.11-.407-.655.39-.827 1.36-.124 2.578.593 1.031 1.547 1.375 2.234.984.36-.218.453-.625.266-.953a.687.687 0 0 0-.953-.265c-.5.296-.329.812-.313.859-.422-.156-.703-.5-.86-.781-.421-.719.11-1.047.391-1.219.11-.063 1.266-.719 1.829.156.218.344.234.375.265.39.063.095.156.063.219.032.14-.094.094-.187 0-.328l-.219-.375c-.547-.953.313-1.438.75-1.703.406-.235 1.297-.735 1.813.156.14.235.343.688.343 1.266-.265-.235-.593-.328-.953-.125-.39.218-.5.64-.281 1.031.219.36.625.516 1.063.266.78-.454.812-1.579.171-2.688-.89-1.531-2.125-1.687-2.921-1.234Zm0 0"/></symbol><symbol overflow="visible" id="J"><path style="stroke:none" d="m-2.703-4.688-.406.235.484.844-.953.546-.485-.843-.406.234.485.844L-7.61-.734c-.22.125-.266.171-.125.421.109.188.125.188.328.22l5.484.843.406-.234-1.437-2.5.953-.547.563.969.406-.235c-.219-.312-.672-1.094-.89-1.469a26.144 26.144 0 0 1-.782-1.421Zm-.703 2.844L-2.187.281l-3.876-.594Zm0 0"/></symbol><symbol overflow="visible" id="E"><path style="stroke:none" d="M-5.156 2.219h.468c.032-.203.125-.844.266-.906.11-.063.86-.063 1.016-.063h1.469c-.47.39-1 .813-1.438 1.14-1.14.844-1.781 1.313-1.781 2.25 0 1.157 1.047 1.891 2.437 1.891 1.219 0 2.156-.625 2.156-1.515 0-.594-.484-.735-.718-.735C-1.61 4.281-2 4.5-2 5c0 .516.422.672.563.719-.282.234-.672.343-1.032.343-.844 0-1.312-.671-1.312-1.421 0-.688.375-1.375 1.078-2.079l2-2.046c.14-.11.14-.141.14-.344V0h-4.28Zm0 0"/></symbol><symbol overflow="visible" id="F"><path style="stroke:none" d="M-5.281 3.188c0 .953.015 3.343 2.422 3.343 2.406 0 2.406-2.375 2.406-3.343 0-1 0-3.297-2.406-3.297-2.391 0-2.422 2.296-2.422 3.296ZM-4 3.296c0-.563 0-1.469.078-1.985C-3.782.391-3.156.25-2.859.25c.359 0 .921.219 1.046.953.094.516.094 1.547.094 2.094 0 .719 0 1.375-.078 1.89-.125.891-.828.985-1.062.985-.375 0-.782-.188-.97-.625C-4 5.172-4 4.109-4 3.297Zm0 0"/></symbol><symbol overflow="visible" id="L"><path style="stroke:none" d="M-5.25 2.047c0 1.39 1.016 2.125 2.219 2.125.219 0 .781 0 1.203-.766v.188c0 1.14-.219 1.562-.281 1.719-.25.468-.782.828-1.391.828-.172 0-.516-.032-.75-.266a.595.595 0 0 0 .547-.61c0-.343-.235-.624-.625-.624s-.625.265-.625.64c0 .625.422 1.25 1.469 1.25 1.359 0 3-.86 3-3.375 0-.781-.079-1.578-.5-2.265-.47-.766-1.22-1-1.922-1-1.375 0-2.344.812-2.344 2.156Zm1.36.015c0-1 0-1.75 1.015-1.75.516 0 .781.391.86.563.156.313.156 1.031.156 1.219 0 1.25-.532 1.719-1.079 1.719-.953 0-.953-.75-.953-1.75Zm0 0"/></symbol><symbol overflow="visible" id="H"><path style="stroke:none" d="m.656-5.578-.234.406c.156.14.672.531.64.688.016.125-.359.78-.437.906l-.734 1.281a29.958 29.958 0 0 1-.266-1.812c-.172-1.407-.25-2.204-1.063-2.672-1-.578-2.171-.047-2.859 1.156-.61 1.063-.531 2.188.234 2.64.516.297.875-.062 1-.265.157-.281.172-.734-.265-.984-.453-.25-.797.046-.906.125-.063-.344.03-.75.218-1.063.422-.734 1.235-.797 1.891-.422.594.344 1 1.016 1.25 1.969l.766 2.766c.03.171.062.187.234.296l.156.079 2.14-3.704Zm0 0"/></symbol><symbol overflow="visible" id="K"><path style="stroke:none" d="M.844-5.469c-1-.578-2.203-.343-2.938.938-.14.234-.375.718-.344 1.281l-1.14-.656c.187-.235.281-.313.437-.594.735-1.266.204-2.625-.015-2.75-.063-.031-.156-.078-.219.031-.016.032-.016.032-.031.157a4.13 4.13 0 0 1-.531 1.468c-.376.64-.813 1-1 1.203-.079.063-.094.047-.11.063-.078.125.016.187.156.266l2.532 1.453c.14.093.25.156.359-.032.063-.109.047-.156.016-.25-.204-.578-.016-1.078.187-1.437.438-.766 1.188-.328 1.89.078.626.36 1.5.86.907 1.89-.125.22-.5.72-1.188.813.157-.312.094-.703-.25-.906-.468-.266-.796.047-.921.25-.063.11-.25.625.28.937.72.422 1.845.157 2.454-.921.797-1.376.531-2.672-.531-3.282Zm0 0"/></symbol><symbol overflow="visible" id="P"><path style="stroke:none" d="M-2.219-5.156v.468c.203.032.844.125.906.266.063.11.063.86.063 1.016v1.469c-.39-.47-.813-1-1.14-1.438-.844-1.14-1.313-1.781-2.25-1.781-1.157 0-1.891 1.047-1.891 2.437 0 1.219.625 2.156 1.515 2.156.594 0 .735-.484.735-.718C-4.281-1.61-4.5-2-5-2c-.516 0-.672.422-.719.563-.234-.282-.343-.672-.343-1.032 0-.844.671-1.312 1.421-1.312.688 0 1.375.375 2.079 1.078l2.046 2c.11.14.141.14.344.14H0v-4.28Zm0 0"/></symbol><symbol overflow="visible" id="Q"><path style="stroke:none" d="M-3.281-5.25c-.672 0-3.25 0-3.25 2.375 0 1.406.812 2.39 2.14 2.39 1.375 0 2.125-.984 2.125-2.203 0-.359-.062-.828-.765-1.203h.219c.734 0 1.312.094 1.656.235.39.172.843.61.843 1.297 0 .171-.03.53-.218.828-.031-.11-.172-.485-.625-.485-.344 0-.625.235-.625.625 0 .391.265.625.64.625.688 0 1.25-.515 1.25-1.609 0-1.297-.843-2.875-3.39-2.875Zm-.985 1.375c.625 0 1.641.25 1.641 1.094 0 .953-.75.953-1.734.953-.985 0-1.782 0-1.782-1.078 0-.578.532-.813.625-.86.329-.109.907-.109 1.25-.109Zm0 0"/></symbol><symbol overflow="visible" id="V"><path style="stroke:none" d="M-1.797-5.25c-.547 0-1.406.297-1.719 1.734-.203-.687-.765-1.406-1.625-1.406-.765 0-1.39.75-1.39 2.156 0 1.188.64 1.97 1.437 1.97a.678.678 0 0 0 .703-.688.668.668 0 0 0-.687-.704c-.578 0-.688.547-.703.579-.282-.344-.36-.782-.36-1.094 0-.828.641-.86.97-.86.124 0 1.437.016 1.5 1.047.015.407.015.438.03.485.016.094.11.125.172.125.172 0 .172-.11.172-.282v-.437c0-1.094.985-1.094 1.5-1.094.469 0 1.484 0 1.484 1.031 0 .266-.046.782-.343 1.266C-.75-1.75-1-2-1.406-2c-.453 0-.75.313-.75.75 0 .422.265.766.765.766.907 0 1.5-.97 1.5-2.25 0-1.782-1-2.516-1.906-2.516Zm0 0"/></symbol><symbol overflow="visible" id="W"><path style="stroke:none" d="M-2-5.156c-1.156 0-2.078.797-2.078 2.265 0 .282.031.813.344 1.282h-1.313c.047-.282.078-.391.078-.72 0-1.452-1.125-2.374-1.375-2.374-.078 0-.187.016-.187.14 0 .032 0 .032.047.141a4.32 4.32 0 0 1 .28 1.531c0 .75-.202 1.282-.28 1.547-.032.094-.047.094-.047.125 0 .14.11.14.265.14h2.922c.172 0 .297 0 .297-.218 0-.125-.031-.156-.11-.219-.468-.39-.562-.921-.562-1.328 0-.89.875-.89 1.672-.89.735 0 1.735 0 1.735 1.187 0 .25-.063.875-.625 1.297-.016-.36-.266-.656-.672-.656-.532 0-.672.437-.672.672 0 .14.094.671.703.671.844 0 1.687-.78 1.687-2.015C.11-4.172-.78-5.156-2-5.156Zm0 0"/></symbol><symbol overflow="visible" id="S"><path style="stroke:none" d="M5.438 1.063c.28-.47.453-1.375-.641-2.36.703.172 1.61.047 2.031-.703.39-.656.047-1.578-1.172-2.281-1.031-.594-2.031-.422-2.422.265a.668.668 0 0 0 .235.954.67.67 0 0 0 .953-.235c.297-.5-.125-.89-.14-.906.437-.078.843.078 1.124.234.719.422.422.985.25 1.266-.062.11-.718 1.234-1.656.765-.344-.187-.375-.203-.422-.203-.094-.03-.156.032-.187.094-.094.14 0 .188.14.281l.375.22C4.86-1 4.375-.142 4.11.296c-.234.406-.734 1.297-1.625.781-.234-.14-.656-.437-.921-.937.328.078.671 0 .875-.36.218-.39.109-.812-.282-1.031-.36-.219-.797-.156-1.047.281-.453.781.11 1.781 1.22 2.422 1.53.89 2.655.406 3.108-.39Zm0 0"/></symbol><symbol overflow="visible" id="T"><path style="stroke:none" d="m4.266 2.453.234-.406-1.203-.688 2.86-4.968c.124-.204.171-.282-.063-.422-.094-.047-.11-.063-.235-.047-.953.125-1.843-.39-2.015-.5l-.172-.094-.235.39.172.095c.141.078.625.359 1.235.484L2.266.766 1.062.062.829.47c.39.187 1.313.719 1.735.969.421.234 1.343.765 1.703 1.015Zm0 0"/></symbol><symbol overflow="visible" id="U"><path style="stroke:none" d="m4.688 2.703.234-.406-.844-.485.547-.953.844.485.234-.407L4.86.454l2.094-3.625c.125-.219.14-.297-.11-.437-.187-.11-.187-.094-.374-.016L1.28-1.609l-.234.406 2.5 1.437L3 1.188 2.031.625l-.234.406c.344.157 1.125.61 1.5.828.344.204 1.094.625 1.39.844ZM3.875-.125 1.75-1.344 5.406-2.78Zm0 0"/></symbol><clipPath id="h"><path d="M93 41h23.867v16H93Zm0 0"/></clipPath><clipPath id="i"><path d="M104 29h12.867v22H104Zm0 0"/></clipPath><clipPath id="j"><path d="M101 26h15.867v27H101Zm0 0"/></clipPath><clipPath id="w"><path d="M66 98h16v24.656H66Zm0 0"/></clipPath><clipPath id="x"><path d="M72 110h21v12.656H72Zm0 0"/></clipPath><clipPath id="y"><path d="M69 107h27v15.656H69Zm0 0"/></clipPath></defs><use xlink:href="#a" x="55.544" y="67.47" style="fill:#000;fill-opacity:1"/><use xlink:href="#b" x="55.544" y="54.057" style="fill:#000;fill-opacity:1"/><use xlink:href="#c" x="62.702" y="45.008" style="fill:#000;fill-opacity:1"/><use xlink:href="#d" x="74.019" y="46.679" style="fill:#000;fill-opacity:1"/><path style="fill:none;stroke-width:.19925;stroke-linecap:butt;stroke-linejoin:miter;stroke:gray;stroke-opacity:1;stroke-miterlimit:10" d="M34.017 17.008H17.009" transform="matrix(1 0 0 -1 49.905 72.711)"/><path style="fill:none;stroke-width:.3985;stroke-linecap:butt;stroke-linejoin:miter;stroke:#000;stroke-opacity:1;stroke-miterlimit:10" d="m34.017 17.008-8.504-3.402-8.504 3.402" transform="matrix(1 0 0 -1 49.905 72.711)"/><path style="fill:none;stroke-width:.19925;stroke-linecap:butt;stroke-linejoin:miter;stroke:gray;stroke-opacity:1;stroke-miterlimit:10" d="m17.01 17.008 8.503 14.73" transform="matrix(1 0 0 -1 49.905 72.711)"/><use xlink:href="#e" x="82.823" y="43.21" style="fill:#000;fill-opacity:1"/><use xlink:href="#f" x="94.439" y="36.504" style="fill:#000;fill-opacity:1"/><use xlink:href="#g" x="105.717" y="38.153" style="fill:#000;fill-opacity:1"/><path style="fill:none;stroke-width:.19925;stroke-linecap:butt;stroke-linejoin:miter;stroke:gray;stroke-opacity:1;stroke-miterlimit:10" d="M65.755 25.512H48.747" transform="matrix(1 0 0 -1 49.905 72.711)"/><g clip-path="url(#h)"><path style="fill:none;stroke-width:.3985;stroke-linecap:butt;stroke-linejoin:miter;stroke:#000;stroke-opacity:1;stroke-miterlimit:10" d="m65.755 25.512-8.504-3.403-8.504 3.403" transform="matrix(1 0 0 -1 49.905 72.711)"/></g><path style="fill:none;stroke-width:.19925;stroke-linecap:butt;stroke-linejoin:miter;stroke:gray;stroke-opacity:1;stroke-miterlimit:10" d="m48.747 25.512 8.504 14.73" transform="matrix(1 0 0 -1 49.905 72.711)"/><g clip-path="url(#i)"><path style="fill:none;stroke-width:.19925;stroke-linecap:butt;stroke-linejoin:miter;stroke:gray;stroke-opacity:1;stroke-miterlimit:10" d="m57.251 40.242 8.504-14.73" transform="matrix(1 0 0 -1 49.905 72.711)"/></g><g clip-path="url(#j)"><path style="fill:none;stroke-width:.3985;stroke-linecap:butt;stroke-linejoin:miter;stroke:#000;stroke-opacity:1;stroke-miterlimit:10" d="m57.251 40.242 7.196-5.664 1.308-9.066" transform="matrix(1 0 0 -1 49.905 72.711)"/></g><path style="fill:none;stroke-width:.19925;stroke-linecap:butt;stroke-linejoin:miter;stroke:gray;stroke-opacity:1;stroke-miterlimit:10" d="m48.747 25.512-8.504 14.73" transform="matrix(1 0 0 -1 49.905 72.711)"/><use xlink:href="#k" x="95.785" y="30.769" style="fill:#000;fill-opacity:1"/><path style="fill:none;stroke-width:.19925;stroke-linecap:butt;stroke-linejoin:miter;stroke:gray;stroke-opacity:1;stroke-miterlimit:10" d="m48.747 54.973 8.504-14.73" transform="matrix(1 0 0 -1 49.905 72.711)"/><path style="fill:none;stroke-width:.3985;stroke-linecap:butt;stroke-linejoin:miter;stroke:#000;stroke-opacity:1;stroke-miterlimit:10" d="m48.747 54.973 7.196-5.664 1.308-9.067" transform="matrix(1 0 0 -1 49.905 72.711)"/><path style="fill:none;stroke-width:.19925;stroke-linecap:butt;stroke-linejoin:miter;stroke:gray;stroke-opacity:1;stroke-miterlimit:10" d="M57.251 40.242H40.243" transform="matrix(1 0 0 -1 49.905 72.711)"/><path style="fill:none;stroke-width:.3985;stroke-linecap:butt;stroke-linejoin:miter;stroke:#000;stroke-opacity:1;stroke-miterlimit:10" d="m40.243 40.242 8.504 14.73" transform="matrix(1 0 0 -1 49.905 72.711)"/><use xlink:href="#l" x="94.616" y="51.493" style="fill:#000;fill-opacity:1"/><path style="fill:none;stroke-width:.19925;stroke-linecap:butt;stroke-linejoin:miter;stroke:gray;stroke-opacity:1;stroke-miterlimit:10" d="m48.747 8.504-14.73 8.504" transform="matrix(1 0 0 -1 49.905 72.711)"/><path style="fill:none;stroke-width:.3985;stroke-linecap:butt;stroke-linejoin:miter;stroke:#000;stroke-opacity:1;stroke-miterlimit:10" d="m48.747 8.504-9.066 1.305-5.664 7.199" transform="matrix(1 0 0 -1 49.905 72.711)"/><path style="fill:none;stroke-width:.19925;stroke-linecap:butt;stroke-linejoin:miter;stroke:gray;stroke-opacity:1;stroke-miterlimit:10" d="m34.017 17.008 14.73 8.504M48.747 25.512V8.504" transform="matrix(1 0 0 -1 49.905 72.711)"/><path style="fill:none;stroke-width:.3985;stroke-linecap:butt;stroke-linejoin:miter;stroke:#000;stroke-opacity:1;stroke-miterlimit:10" d="m48.747 25.512 3.399-8.504-3.399-8.504" transform="matrix(1 0 0 -1 49.905 72.711)"/><path style="fill:none;stroke-width:.19925;stroke-linecap:butt;stroke-linejoin:miter;stroke:gray;stroke-opacity:1;stroke-miterlimit:10" d="m34.017 17.008-8.504 14.73" transform="matrix(1 0 0 -1 49.905 72.711)"/><g style="fill:#000;fill-opacity:1"><use xlink:href="#m" x="76.969" y="38.113"/><use xlink:href="#n" x="81.93" y="35.249"/></g><path style="fill:none;stroke-width:.3985;stroke-linecap:butt;stroke-linejoin:miter;stroke:#000;stroke-opacity:1;stroke-miterlimit:10" d="m25.513 48.746 14.73-8.504" transform="matrix(1 0 0 -1 49.905 72.711)"/><path style="fill:none;stroke-width:.19925;stroke-linecap:butt;stroke-linejoin:miter;stroke:gray;stroke-opacity:1;stroke-miterlimit:10" d="m40.243 40.242-14.73-8.504" transform="matrix(1 0 0 -1 49.905 72.711)"/><path style="fill:none;stroke-width:.3985;stroke-linecap:butt;stroke-linejoin:miter;stroke:#000;stroke-opacity:1;stroke-miterlimit:10" d="M25.513 31.738v17.008" transform="matrix(1 0 0 -1 49.905 72.711)"/><path style="fill:none;stroke-width:.19925;stroke-linecap:butt;stroke-linejoin:miter;stroke:gray;stroke-opacity:1;stroke-miterlimit:10" d="m17.01 17.008-8.505 14.73" transform="matrix(1 0 0 -1 49.905 72.711)"/><path style="fill:none;stroke-width:.3985;stroke-linecap:butt;stroke-linejoin:miter;stroke:#000;stroke-opacity:1;stroke-miterlimit:10" d="M8.505 31.738h17.008" transform="matrix(1 0 0 -1 49.905 72.711)"/><path style="fill:none;stroke-width:.19925;stroke-linecap:butt;stroke-linejoin:miter;stroke:gray;stroke-opacity:1;stroke-miterlimit:10" d="M17.01 17.008H0" transform="matrix(1 0 0 -1 49.905 72.711)"/><path style="fill:none;stroke-width:.3985;stroke-linecap:butt;stroke-linejoin:miter;stroke:#000;stroke-opacity:1;stroke-miterlimit:10" d="m.001 17.008 8.504 14.73" transform="matrix(1 0 0 -1 49.905 72.711)"/><g style="fill:#000;fill-opacity:1"><use xlink:href="#o" x="68.559" y="58.479"/><use xlink:href="#o" x="68.559" y="64.208"/></g><g style="fill:#000;fill-opacity:1"><use xlink:href="#p" x="80.062" y="67.022"/><use xlink:href="#q" x="75.101" y="69.886"/></g><g style="fill:#000;fill-opacity:1"><use xlink:href="#r" x="78.387" y="81.302"/><use xlink:href="#s" x="73.426" y="78.438"/></g><path style="fill:none;stroke-width:.19925;stroke-linecap:butt;stroke-linejoin:miter;stroke:gray;stroke-opacity:1;stroke-miterlimit:10" d="M17.01-17.008V0" transform="matrix(1 0 0 -1 49.905 72.711)"/><path style="fill:none;stroke-width:.3985;stroke-linecap:butt;stroke-linejoin:miter;stroke:#000;stroke-opacity:1;stroke-miterlimit:10" d="m17.01-17.008-3.403 8.504L17.009 0" transform="matrix(1 0 0 -1 49.905 72.711)"/><path style="fill:none;stroke-width:.19925;stroke-linecap:butt;stroke-linejoin:miter;stroke:gray;stroke-opacity:1;stroke-miterlimit:10" d="m17.01 0 14.726-8.504" transform="matrix(1 0 0 -1 49.905 72.711)"/><g style="fill:#000;fill-opacity:1"><use xlink:href="#p" x="81.856" y="87.138"/><use xlink:href="#t" x="76.895" y="90.002"/></g><g style="fill:#000;fill-opacity:1"><use xlink:href="#p" x="88.593" y="98.806"/><use xlink:href="#u" x="83.632" y="101.67"/></g><g style="fill:#000;fill-opacity:1"><use xlink:href="#r" x="86.891" y="113.039"/><use xlink:href="#v" x="81.93" y="110.175"/></g><path style="fill:none;stroke-width:.19925;stroke-linecap:butt;stroke-linejoin:miter;stroke:gray;stroke-opacity:1;stroke-miterlimit:10" d="M25.513-48.746v17.008" transform="matrix(1 0 0 -1 49.905 72.711)"/><g clip-path="url(#w)"><path style="fill:none;stroke-width:.3985;stroke-linecap:butt;stroke-linejoin:miter;stroke:#000;stroke-opacity:1;stroke-miterlimit:10" d="m25.513-48.746-3.402 8.504 3.402 8.504" transform="matrix(1 0 0 -1 49.905 72.711)"/></g><path style="fill:none;stroke-width:.19925;stroke-linecap:butt;stroke-linejoin:miter;stroke:gray;stroke-opacity:1;stroke-miterlimit:10" d="m25.513-31.738 14.73-8.504" transform="matrix(1 0 0 -1 49.905 72.711)"/><g clip-path="url(#x)"><path style="fill:none;stroke-width:.19925;stroke-linecap:butt;stroke-linejoin:miter;stroke:gray;stroke-opacity:1;stroke-miterlimit:10" d="m40.243-40.242-14.73-8.504" transform="matrix(1 0 0 -1 49.905 72.711)"/></g><g clip-path="url(#y)"><path style="fill:none;stroke-width:.3985;stroke-linecap:butt;stroke-linejoin:miter;stroke:#000;stroke-opacity:1;stroke-miterlimit:10" d="m40.243-40.242-5.664-7.2-9.066-1.304" transform="matrix(1 0 0 -1 49.905 72.711)"/></g><path style="fill:none;stroke-width:.19925;stroke-linecap:butt;stroke-linejoin:miter;stroke:gray;stroke-opacity:1;stroke-miterlimit:10" d="m25.513-31.738 14.73 8.504" transform="matrix(1 0 0 -1 49.905 72.711)"/><g style="fill:#000;fill-opacity:1"><use xlink:href="#o" x="91.743" y="98.72"/><use xlink:href="#z" x="91.743" y="104.449"/></g><path style="fill:none;stroke-width:.19925;stroke-linecap:butt;stroke-linejoin:miter;stroke:gray;stroke-opacity:1;stroke-miterlimit:10" d="m54.97-31.738-14.727-8.504" transform="matrix(1 0 0 -1 49.905 72.711)"/><path style="fill:none;stroke-width:.3985;stroke-linecap:butt;stroke-linejoin:miter;stroke:#000;stroke-opacity:1;stroke-miterlimit:10" d="m54.97-31.738-5.664-7.196-9.063-1.308" transform="matrix(1 0 0 -1 49.905 72.711)"/><path style="fill:none;stroke-width:.19925;stroke-linecap:butt;stroke-linejoin:miter;stroke:gray;stroke-opacity:1;stroke-miterlimit:10" d="M40.243-40.242v17.008" transform="matrix(1 0 0 -1 49.905 72.711)"/><path style="fill:none;stroke-width:.3985;stroke-linecap:butt;stroke-linejoin:miter;stroke:#000;stroke-opacity:1;stroke-miterlimit:10" d="m40.243-23.234 14.727-8.504" transform="matrix(1 0 0 -1 49.905 72.711)"/><g style="fill:#000;fill-opacity:1"><use xlink:href="#A" x="72.555" y="102.896"/><use xlink:href="#B" x="69.691" y="97.935"/></g><path style="fill:none;stroke-width:.19925;stroke-linecap:butt;stroke-linejoin:miter;stroke:gray;stroke-opacity:1;stroke-miterlimit:10" d="m8.505-31.738 8.504 14.73" transform="matrix(1 0 0 -1 49.905 72.711)"/><path style="fill:none;stroke-width:.3985;stroke-linecap:butt;stroke-linejoin:miter;stroke:#000;stroke-opacity:1;stroke-miterlimit:10" d="m8.505-31.738 1.305 9.066 7.2 5.664" transform="matrix(1 0 0 -1 49.905 72.711)"/><path style="fill:none;stroke-width:.19925;stroke-linecap:butt;stroke-linejoin:miter;stroke:gray;stroke-opacity:1;stroke-miterlimit:10" d="m17.01-17.008 8.503-14.73M25.513-31.738H8.505" transform="matrix(1 0 0 -1 49.905 72.711)"/><path style="fill:none;stroke-width:.3985;stroke-linecap:butt;stroke-linejoin:miter;stroke:#000;stroke-opacity:1;stroke-miterlimit:10" d="m25.513-31.738-8.504-3.403-8.504 3.403" transform="matrix(1 0 0 -1 49.905 72.711)"/><path style="fill:none;stroke-width:.19925;stroke-linecap:butt;stroke-linejoin:miter;stroke:gray;stroke-opacity:1;stroke-miterlimit:10" d="m17.01-17.008 14.726 8.504" transform="matrix(1 0 0 -1 49.905 72.711)"/><g style="fill:#000;fill-opacity:1"><use xlink:href="#C" x="84.503" y="82.768"/><use xlink:href="#D" x="87.367" y="87.729"/></g><path style="fill:none;stroke-width:.3985;stroke-linecap:butt;stroke-linejoin:miter;stroke:#000;stroke-opacity:1;stroke-miterlimit:10" d="m48.747-8.504-8.504-14.73" transform="matrix(1 0 0 -1 49.905 72.711)"/><path style="fill:none;stroke-width:.19925;stroke-linecap:butt;stroke-linejoin:miter;stroke:gray;stroke-opacity:1;stroke-miterlimit:10" d="m40.243-23.234-8.507 14.73" transform="matrix(1 0 0 -1 49.905 72.711)"/><path style="fill:none;stroke-width:.3985;stroke-linecap:butt;stroke-linejoin:miter;stroke:#000;stroke-opacity:1;stroke-miterlimit:10" d="M31.736-8.504h17.011" transform="matrix(1 0 0 -1 49.905 72.711)"/><path style="fill:none;stroke-width:.19925;stroke-linecap:butt;stroke-linejoin:miter;stroke:gray;stroke-opacity:1;stroke-miterlimit:10" d="m17.01 0 14.726 8.504" transform="matrix(1 0 0 -1 49.905 72.711)"/><path style="fill:none;stroke-width:.3985;stroke-linecap:butt;stroke-linejoin:miter;stroke:#000;stroke-opacity:1;stroke-miterlimit:10" d="M31.736 8.504V-8.504" transform="matrix(1 0 0 -1 49.905 72.711)"/><path style="fill:none;stroke-width:.19925;stroke-linecap:butt;stroke-linejoin:miter;stroke:gray;stroke-opacity:1;stroke-miterlimit:10" d="M17.01 0v17.008" transform="matrix(1 0 0 -1 49.905 72.711)"/><path style="fill:none;stroke-width:.3985;stroke-linecap:butt;stroke-linejoin:miter;stroke:#000;stroke-opacity:1;stroke-miterlimit:10" d="m17.01 17.008 14.726-8.504" transform="matrix(1 0 0 -1 49.905 72.711)"/><g style="fill:#000;fill-opacity:1"><use xlink:href="#E" x="64.137" y="74.413"/><use xlink:href="#F" x="58.408" y="74.413"/></g><g style="fill:#000;fill-opacity:1"><use xlink:href="#G" x="55.594" y="85.861"/><use xlink:href="#A" x="52.73" y="80.9"/></g><g style="fill:#000;fill-opacity:1"><use xlink:href="#H" x="41.362" y="84.214"/><use xlink:href="#H" x="44.226" y="79.253"/></g><path style="fill:none;stroke-width:.19925;stroke-linecap:butt;stroke-linejoin:miter;stroke:gray;stroke-opacity:1;stroke-miterlimit:10" d="M-17.007 0H.001" transform="matrix(1 0 0 -1 49.905 72.711)"/><path style="fill:none;stroke-width:.3985;stroke-linecap:butt;stroke-linejoin:miter;stroke:#000;stroke-opacity:1;stroke-miterlimit:10" d="m-17.007 0 8.504 3.402L.001 0" transform="matrix(1 0 0 -1 49.905 72.711)"/><path style="fill:none;stroke-width:.19925;stroke-linecap:butt;stroke-linejoin:miter;stroke:gray;stroke-opacity:1;stroke-miterlimit:10" d="m.001 0-8.504-14.73" transform="matrix(1 0 0 -1 49.905 72.711)"/><g style="fill:#000;fill-opacity:1"><use xlink:href="#G" x="35.426" y="87.685"/><use xlink:href="#I" x="32.562" y="82.724"/></g><g style="fill:#000;fill-opacity:1"><use xlink:href="#G" x="23.861" y="94.362"/><use xlink:href="#J" x="20.997" y="89.401"/></g><g style="fill:#000;fill-opacity:1"><use xlink:href="#H" x="9.577" y="92.69"/><use xlink:href="#K" x="12.441" y="87.729"/></g><path style="fill:none;stroke-width:.19925;stroke-linecap:butt;stroke-linejoin:miter;stroke:gray;stroke-opacity:1;stroke-miterlimit:10" d="M-48.745-8.504h17.008" transform="matrix(1 0 0 -1 49.905 72.711)"/><path style="fill:none;stroke-width:.3985;stroke-linecap:butt;stroke-linejoin:miter;stroke:#000;stroke-opacity:1;stroke-miterlimit:10" d="m-48.745-8.504 8.504 3.402 8.504-3.402" transform="matrix(1 0 0 -1 49.905 72.711)"/><path style="fill:none;stroke-width:.19925;stroke-linecap:butt;stroke-linejoin:miter;stroke:gray;stroke-opacity:1;stroke-miterlimit:10" d="m-31.737-8.504-8.504-14.73M-40.24-23.234l-8.505 14.73" transform="matrix(1 0 0 -1 49.905 72.711)"/><path style="fill:none;stroke-width:.3985;stroke-linecap:butt;stroke-linejoin:miter;stroke:#000;stroke-opacity:1;stroke-miterlimit:10" d="m-40.24-23.234-7.2 5.664-1.305 9.066" transform="matrix(1 0 0 -1 49.905 72.711)"/><path style="fill:none;stroke-width:.19925;stroke-linecap:butt;stroke-linejoin:miter;stroke:gray;stroke-opacity:1;stroke-miterlimit:10" d="m-31.737-8.504 8.504-14.73" transform="matrix(1 0 0 -1 49.905 72.711)"/><g style="fill:#000;fill-opacity:1"><use xlink:href="#E" x="23.896" y="97.647"/><use xlink:href="#L" x="18.167" y="97.647"/></g><path style="fill:none;stroke-width:.19925;stroke-linecap:butt;stroke-linejoin:miter;stroke:gray;stroke-opacity:1;stroke-miterlimit:10" d="m-31.737-37.965-8.504 14.73" transform="matrix(1 0 0 -1 49.905 72.711)"/><path style="fill:none;stroke-width:.3985;stroke-linecap:butt;stroke-linejoin:miter;stroke:#000;stroke-opacity:1;stroke-miterlimit:10" d="m-31.737-37.965-7.2 5.664-1.304 9.067" transform="matrix(1 0 0 -1 49.905 72.711)"/><path style="fill:none;stroke-width:.19925;stroke-linecap:butt;stroke-linejoin:miter;stroke:gray;stroke-opacity:1;stroke-miterlimit:10" d="M-40.24-23.234h17.007" transform="matrix(1 0 0 -1 49.905 72.711)"/><path style="fill:none;stroke-width:.3985;stroke-linecap:butt;stroke-linejoin:miter;stroke:#000;stroke-opacity:1;stroke-miterlimit:10" d="m-23.233-23.234-8.504-14.73" transform="matrix(1 0 0 -1 49.905 72.711)"/><g style="fill:#000;fill-opacity:1"><use xlink:href="#M" x="19.772" y="78.444"/><use xlink:href="#N" x="24.733" y="75.58"/></g><path style="fill:none;stroke-width:.19925;stroke-linecap:butt;stroke-linejoin:miter;stroke:gray;stroke-opacity:1;stroke-miterlimit:10" d="M-31.737 8.504-17.007 0" transform="matrix(1 0 0 -1 49.905 72.711)"/><path style="fill:none;stroke-width:.3985;stroke-linecap:butt;stroke-linejoin:miter;stroke:#000;stroke-opacity:1;stroke-miterlimit:10" d="m-31.737 8.504 9.066-1.305L-17.007 0" transform="matrix(1 0 0 -1 49.905 72.711)"/><path style="fill:none;stroke-width:.19925;stroke-linecap:butt;stroke-linejoin:miter;stroke:gray;stroke-opacity:1;stroke-miterlimit:10" d="m-17.007 0-14.73-8.504M-31.737-8.504V8.504" transform="matrix(1 0 0 -1 49.905 72.711)"/><path style="fill:none;stroke-width:.3985;stroke-linecap:butt;stroke-linejoin:miter;stroke:#000;stroke-opacity:1;stroke-miterlimit:10" d="M-31.737-8.504-35.139 0l3.402 8.504" transform="matrix(1 0 0 -1 49.905 72.711)"/><path style="fill:none;stroke-width:.19925;stroke-linecap:butt;stroke-linejoin:miter;stroke:gray;stroke-opacity:1;stroke-miterlimit:10" d="m-17.007 0 8.504-14.73" transform="matrix(1 0 0 -1 49.905 72.711)"/><g style="fill:#000;fill-opacity:1"><use xlink:href="#q" x="39.848" y="90.302"/><use xlink:href="#O" x="34.887" y="93.166"/></g><path style="fill:none;stroke-width:.3985;stroke-linecap:butt;stroke-linejoin:miter;stroke:#000;stroke-opacity:1;stroke-miterlimit:10" d="m-8.503-31.738-14.73 8.504" transform="matrix(1 0 0 -1 49.905 72.711)"/><path style="fill:none;stroke-width:.19925;stroke-linecap:butt;stroke-linejoin:miter;stroke:gray;stroke-opacity:1;stroke-miterlimit:10" d="m-23.233-23.234 14.73 8.504" transform="matrix(1 0 0 -1 49.905 72.711)"/><path style="fill:none;stroke-width:.3985;stroke-linecap:butt;stroke-linejoin:miter;stroke:#000;stroke-opacity:1;stroke-miterlimit:10" d="M-8.503-14.73v-17.008" transform="matrix(1 0 0 -1 49.905 72.711)"/><path style="fill:none;stroke-width:.19925;stroke-linecap:butt;stroke-linejoin:miter;stroke:gray;stroke-opacity:1;stroke-miterlimit:10" d="m.001 0 8.504-14.73" transform="matrix(1 0 0 -1 49.905 72.711)"/><path style="fill:none;stroke-width:.3985;stroke-linecap:butt;stroke-linejoin:miter;stroke:#000;stroke-opacity:1;stroke-miterlimit:10" d="M8.505-14.73H-8.503" transform="matrix(1 0 0 -1 49.905 72.711)"/><path style="fill:none;stroke-width:.19925;stroke-linecap:butt;stroke-linejoin:miter;stroke:gray;stroke-opacity:1;stroke-miterlimit:10" d="M.001 0H17.01" transform="matrix(1 0 0 -1 49.905 72.711)"/><path style="fill:none;stroke-width:.3985;stroke-linecap:butt;stroke-linejoin:miter;stroke:#000;stroke-opacity:1;stroke-miterlimit:10" d="M17.01 0 8.504-14.73" transform="matrix(1 0 0 -1 49.905 72.711)"/><g style="fill:#000;fill-opacity:1"><use xlink:href="#P" x="48.203" y="69.936"/><use xlink:href="#Q" x="48.203" y="64.207"/></g><g style="fill:#000;fill-opacity:1"><use xlink:href="#R" x="36.728" y="61.346"/><use xlink:href="#n" x="41.689" y="58.482"/></g><g style="fill:#000;fill-opacity:1"><use xlink:href="#S" x="38.43" y="47.113"/><use xlink:href="#T" x="43.391" y="49.977"/></g><path style="fill:none;stroke-width:.19925;stroke-linecap:butt;stroke-linejoin:miter;stroke:gray;stroke-opacity:1;stroke-miterlimit:10" d="M.001 34.016V17.008" transform="matrix(1 0 0 -1 49.905 72.711)"/><path style="fill:none;stroke-width:.3985;stroke-linecap:butt;stroke-linejoin:miter;stroke:#000;stroke-opacity:1;stroke-miterlimit:10" d="M.001 34.016 3.4 25.512 0 17.008" transform="matrix(1 0 0 -1 49.905 72.711)"/><path style="fill:none;stroke-width:.19925;stroke-linecap:butt;stroke-linejoin:miter;stroke:gray;stroke-opacity:1;stroke-miterlimit:10" d="m.001 17.008-14.73 8.504" transform="matrix(1 0 0 -1 49.905 72.711)"/><g style="fill:#000;fill-opacity:1"><use xlink:href="#R" x="34.931" y="41.226"/><use xlink:href="#M" x="39.892" y="38.362"/></g><g style="fill:#000;fill-opacity:1"><use xlink:href="#R" x="28.224" y="29.609"/><use xlink:href="#R" x="33.185" y="26.745"/></g><g style="fill:#000;fill-opacity:1"><use xlink:href="#S" x="29.923" y="15.381"/><use xlink:href="#U" x="34.884" y="18.245"/></g><path style="fill:none;stroke-width:.19925;stroke-linecap:butt;stroke-linejoin:miter;stroke:gray;stroke-opacity:1;stroke-miterlimit:10" d="M-8.503 65.754V48.746" transform="matrix(1 0 0 -1 49.905 72.711)"/><path style="fill:none;stroke-width:.3985;stroke-linecap:butt;stroke-linejoin:miter;stroke:#000;stroke-opacity:1;stroke-miterlimit:10" d="m-8.503 65.754 3.399-8.504-3.399-8.504" transform="matrix(1 0 0 -1 49.905 72.711)"/><path style="fill:none;stroke-width:.19925;stroke-linecap:butt;stroke-linejoin:miter;stroke:gray;stroke-opacity:1;stroke-miterlimit:10" d="m-8.503 48.746-14.73 8.504M-23.233 57.25l14.73 8.504" transform="matrix(1 0 0 -1 49.905 72.711)"/><path style="fill:none;stroke-width:.3985;stroke-linecap:butt;stroke-linejoin:miter;stroke:#000;stroke-opacity:1;stroke-miterlimit:10" d="m-23.233 57.25 5.664 7.2 9.066 1.304" transform="matrix(1 0 0 -1 49.905 72.711)"/><path style="fill:none;stroke-width:.19925;stroke-linecap:butt;stroke-linejoin:miter;stroke:gray;stroke-opacity:1;stroke-miterlimit:10" d="m-8.503 48.746-14.73-8.504" transform="matrix(1 0 0 -1 49.905 72.711)"/><g style="fill:#000;fill-opacity:1"><use xlink:href="#V" x="24.969" y="29.695"/><use xlink:href="#W" x="24.969" y="23.966"/></g><g style="fill:#000;fill-opacity:1"><use xlink:href="#R" x="11.698" y="17.992"/><use xlink:href="#X" x="16.659" y="15.128"/></g><path style="fill:none;stroke-width:.3985;stroke-linecap:butt;stroke-linejoin:miter;stroke:#000;stroke-opacity:1;stroke-miterlimit:10" d="m-46.468 63.477 14.731 8.504M-31.737 71.98l8.504-14.73" transform="matrix(1 0 0 -1 49.905 72.711)"/><path style="fill:none;stroke-width:.19925;stroke-linecap:butt;stroke-linejoin:miter;stroke:gray;stroke-opacity:1;stroke-miterlimit:10" d="m-23.233 57.25-14.73-8.504" transform="matrix(1 0 0 -1 49.905 72.711)"/><path style="fill:none;stroke-width:.3985;stroke-linecap:butt;stroke-linejoin:miter;stroke:#000;stroke-opacity:1;stroke-miterlimit:10" d="m-37.964 48.746-8.504 14.73" transform="matrix(1 0 0 -1 49.905 72.711)"/><path style="fill:none;stroke-width:.19925;stroke-linecap:butt;stroke-linejoin:miter;stroke:gray;stroke-opacity:1;stroke-miterlimit:10" d="M-23.233 57.25V40.242" transform="matrix(1 0 0 -1 49.905 72.711)"/><path style="fill:none;stroke-width:.3985;stroke-linecap:butt;stroke-linejoin:miter;stroke:#000;stroke-opacity:1;stroke-miterlimit:10" d="m-23.233 40.242-14.73 8.504" transform="matrix(1 0 0 -1 49.905 72.711)"/><g style="fill:#000;fill-opacity:1"><use xlink:href="#c" x="44.172" y="25.571"/><use xlink:href="#Y" x="47.036" y="30.532"/></g><path style="fill:none;stroke-width:.19925;stroke-linecap:butt;stroke-linejoin:miter;stroke:gray;stroke-opacity:1;stroke-miterlimit:10" d="M8.505 48.746.001 34.016" transform="matrix(1 0 0 -1 49.905 72.711)"/><path style="fill:none;stroke-width:.3985;stroke-linecap:butt;stroke-linejoin:miter;stroke:#000;stroke-opacity:1;stroke-miterlimit:10" d="M8.505 48.746 7.197 39.68 0 34.016" transform="matrix(1 0 0 -1 49.905 72.711)"/><path style="fill:none;stroke-width:.19925;stroke-linecap:butt;stroke-linejoin:miter;stroke:gray;stroke-opacity:1;stroke-miterlimit:10" d="m.001 34.016-8.504 14.73M-8.503 48.746H8.505" transform="matrix(1 0 0 -1 49.905 72.711)"/><path style="fill:none;stroke-width:.3985;stroke-linecap:butt;stroke-linejoin:miter;stroke:#000;stroke-opacity:1;stroke-miterlimit:10" d="m-8.503 48.746 8.504 3.402 8.504-3.402" transform="matrix(1 0 0 -1 49.905 72.711)"/><path style="fill:none;stroke-width:.19925;stroke-linecap:butt;stroke-linejoin:miter;stroke:gray;stroke-opacity:1;stroke-miterlimit:10" d="m.001 34.016-14.73-8.504" transform="matrix(1 0 0 -1 49.905 72.711)"/><g style="fill:#000;fill-opacity:1"><use xlink:href="#I" x="32.314" y="45.647"/><use xlink:href="#B" x="29.45" y="40.686"/></g><path style="fill:none;stroke-width:.3985;stroke-linecap:butt;stroke-linejoin:miter;stroke:#000;stroke-opacity:1;stroke-miterlimit:10" d="m-31.737 25.512 8.504 14.73" transform="matrix(1 0 0 -1 49.905 72.711)"/><path style="fill:none;stroke-width:.19925;stroke-linecap:butt;stroke-linejoin:miter;stroke:gray;stroke-opacity:1;stroke-miterlimit:10" d="m-23.233 40.242 8.504-14.73" transform="matrix(1 0 0 -1 49.905 72.711)"/><path style="fill:none;stroke-width:.3985;stroke-linecap:butt;stroke-linejoin:miter;stroke:#000;stroke-opacity:1;stroke-miterlimit:10" d="M-14.73 25.512h-17.007" transform="matrix(1 0 0 -1 49.905 72.711)"/><path style="fill:none;stroke-width:.19925;stroke-linecap:butt;stroke-linejoin:miter;stroke:gray;stroke-opacity:1;stroke-miterlimit:10" d="m.001 17.008-14.73-8.504" transform="matrix(1 0 0 -1 49.905 72.711)"/><path style="fill:none;stroke-width:.3985;stroke-linecap:butt;stroke-linejoin:miter;stroke:#000;stroke-opacity:1;stroke-miterlimit:10" d="M-14.73 8.504v17.008" transform="matrix(1 0 0 -1 49.905 72.711)"/><path style="fill:none;stroke-width:.19925;stroke-linecap:butt;stroke-linejoin:miter;stroke:gray;stroke-opacity:1;stroke-miterlimit:10" d="M.001 17.008V0" transform="matrix(1 0 0 -1 49.905 72.711)"/><path style="fill:none;stroke-width:.3985;stroke-linecap:butt;stroke-linejoin:miter;stroke:#000;stroke-opacity:1;stroke-miterlimit:10" d="m.001 0-14.73 8.504" transform="matrix(1 0 0 -1 49.905 72.711)"/></svg>