<svg xmlns="http://www.w3.org/2000/svg" width="131.739" height="131.739" viewBox="0 0 98.804 98.804" version="1.2"><defs><clipPath id="a"><path d="M0 80h19v18.707H0Zm0 0"/></clipPath><clipPath id="b"><path d="M23 80h24v18.707H23Zm0 0"/></clipPath><clipPath id="c"><path d="M52 80h23v18.707H52Zm0 0"/></clipPath><clipPath id="d"><path d="M80 80h18.707v18.707H80Zm0 0"/></clipPath><clipPath id="e"><path d="M80 52h18.707v23H80Zm0 0"/></clipPath><clipPath id="f"><path d="M80 23h18.707v24H80Zm0 0"/></clipPath><clipPath id="g"><path d="M80 0h18.707v19H80Zm0 0"/></clipPath></defs><g clip-path="url(#a)"><path style="fill:none;stroke-width:.3985;stroke-linecap:butt;stroke-linejoin:miter;stroke:#000;stroke-opacity:1;stroke-miterlimit:10" d="M5.669 0A5.667 5.667 0 0 1 .001 5.668a5.668 5.668 0 1 1 0-11.336A5.667 5.667 0 0 1 5.67 0Zm0 0" transform="matrix(1 0 0 -1 6.788 91.828)"/></g><path style="stroke:none;fill-rule:nonzero;fill:#000;fill-opacity:1" d="M9.621 91.828a2.832 2.832 0 0 0-2.832-2.836 2.836 2.836 0 1 0 0 5.672 2.832 2.832 0 0 0 2.832-2.836Zm0 0"/><path style="fill:none;stroke-width:.3985;stroke-linecap:butt;stroke-linejoin:miter;stroke:#000;stroke-opacity:1;stroke-miterlimit:10" d="M5.669 28.348a5.67 5.67 0 1 1-11.34-.004 5.67 5.67 0 0 1 11.34.004Zm0 0" transform="matrix(1 0 0 -1 6.788 91.828)"/><path style="stroke:none;fill-rule:nonzero;fill:#000;fill-opacity:1" d="M9.621 63.48a2.832 2.832 0 0 0-2.832-2.835 2.836 2.836 0 1 0 0 5.671 2.832 2.832 0 0 0 2.832-2.836Zm0 0"/><path style="fill:none;stroke-width:.3985;stroke-linecap:butt;stroke-linejoin:miter;stroke:#000;stroke-opacity:1;stroke-miterlimit:10" d="M5.669 56.695a5.67 5.67 0 1 1-11.34-.003 5.67 5.67 0 0 1 11.34.003Zm0 0" transform="matrix(1 0 0 -1 6.788 91.828)"/><path style="stroke:none;fill-rule:nonzero;fill:#000;fill-opacity:1" d="M9.621 35.133a2.835 2.835 0 1 0-5.666.006 2.835 2.835 0 0 0 5.666-.006Zm0 0"/><path style="fill:none;stroke-width:.3985;stroke-linecap:butt;stroke-linejoin:miter;stroke:#000;stroke-opacity:1;stroke-miterlimit:10" d="M5.669 85.039a5.67 5.67 0 1 1-11.341.002 5.67 5.67 0 0 1 11.341-.002Zm0 0" transform="matrix(1 0 0 -1 6.788 91.828)"/><path style="stroke:none;fill-rule:nonzero;fill:#000;fill-opacity:1" d="M9.621 6.79A2.832 2.832 0 0 0 6.79 3.952 2.835 2.835 0 1 0 9.621 6.79Zm0 0"/><g clip-path="url(#b)"><path style="fill:none;stroke-width:.3985;stroke-linecap:butt;stroke-linejoin:miter;stroke:#000;stroke-opacity:1;stroke-miterlimit:10" d="M34.017 0a5.667 5.667 0 0 1-5.668 5.668 5.668 5.668 0 1 1 0-11.336A5.667 5.667 0 0 1 34.017 0Zm0 0" transform="matrix(1 0 0 -1 6.788 91.828)"/></g><path style="stroke:none;fill-rule:nonzero;fill:#000;fill-opacity:1" d="M37.969 91.828a2.835 2.835 0 1 0-2.832 2.836 2.835 2.835 0 0 0 2.832-2.836Zm0 0"/><path style="fill:none;stroke-width:.3985;stroke-linecap:butt;stroke-linejoin:miter;stroke:#000;stroke-opacity:1;stroke-miterlimit:10" d="M34.017 28.348a5.67 5.67 0 1 1-11.34-.004 5.67 5.67 0 0 1 11.34.004Zm0 0" transform="matrix(1 0 0 -1 6.788 91.828)"/><path style="stroke:none;fill-rule:nonzero;fill:#000;fill-opacity:1" d="M37.969 63.48a2.835 2.835 0 1 0-2.832 2.836 2.835 2.835 0 0 0 2.832-2.836Zm0 0"/><path style="fill:none;stroke-width:.3985;stroke-linecap:butt;stroke-linejoin:miter;stroke:#000;stroke-opacity:1;stroke-miterlimit:10" d="M34.017 56.695a5.67 5.67 0 1 1-11.34-.003 5.67 5.67 0 0 1 11.34.003Zm0 0" transform="matrix(1 0 0 -1 6.788 91.828)"/><path style="stroke:none;fill-rule:nonzero;fill:#000;fill-opacity:1" d="M37.969 35.133a2.834 2.834 0 1 0-5.668.004 2.834 2.834 0 0 0 5.668-.004Zm0 0"/><path style="fill:none;stroke-width:.3985;stroke-linecap:butt;stroke-linejoin:miter;stroke:#000;stroke-opacity:1;stroke-miterlimit:10" d="M34.017 85.039a5.67 5.67 0 1 1-11.342.002 5.67 5.67 0 0 1 11.342-.002Zm0 0" transform="matrix(1 0 0 -1 6.788 91.828)"/><path style="stroke:none;fill-rule:nonzero;fill:#000;fill-opacity:1" d="M37.969 6.79a2.835 2.835 0 1 0-5.668 0 2.835 2.835 0 0 0 5.668 0Zm0 0"/><g clip-path="url(#c)"><path style="fill:none;stroke-width:.3985;stroke-linecap:butt;stroke-linejoin:miter;stroke:#000;stroke-opacity:1;stroke-miterlimit:10" d="M62.364 0a5.668 5.668 0 0 1-5.672 5.668A5.667 5.667 0 0 1 51.025 0a5.667 5.667 0 0 1 5.667-5.668A5.668 5.668 0 0 1 62.364 0Zm0 0" transform="matrix(1 0 0 -1 6.788 91.828)"/></g><path style="stroke:none;fill-rule:nonzero;fill:#000;fill-opacity:1" d="M66.316 91.828a2.836 2.836 0 0 0-2.836-2.836 2.832 2.832 0 0 0-2.832 2.836 2.832 2.832 0 0 0 2.832 2.836 2.836 2.836 0 0 0 2.836-2.836Zm0 0"/><path style="fill:none;stroke-width:.3985;stroke-linecap:butt;stroke-linejoin:miter;stroke:#000;stroke-opacity:1;stroke-miterlimit:10" d="M62.364 28.348a5.67 5.67 0 1 1-11.34-.006 5.67 5.67 0 0 1 11.34.006Zm0 0" transform="matrix(1 0 0 -1 6.788 91.828)"/><path style="stroke:none;fill-rule:nonzero;fill:#000;fill-opacity:1" d="M66.316 63.48a2.836 2.836 0 0 0-2.836-2.835 2.832 2.832 0 0 0-2.832 2.835 2.832 2.832 0 0 0 2.832 2.836 2.836 2.836 0 0 0 2.836-2.836Zm0 0"/><path style="fill:none;stroke-width:.3985;stroke-linecap:butt;stroke-linejoin:miter;stroke:#000;stroke-opacity:1;stroke-miterlimit:10" d="M62.364 56.695a5.67 5.67 0 1 1-11.34-.005 5.67 5.67 0 0 1 11.34.005Zm0 0" transform="matrix(1 0 0 -1 6.788 91.828)"/><path style="stroke:none;fill-rule:nonzero;fill:#000;fill-opacity:1" d="M66.316 35.133a2.835 2.835 0 1 0-5.67.006 2.835 2.835 0 0 0 5.67-.006Zm0 0"/><path style="fill:none;stroke-width:.3985;stroke-linecap:butt;stroke-linejoin:miter;stroke:#000;stroke-opacity:1;stroke-miterlimit:10" d="M62.364 85.039a5.67 5.67 0 1 1-11.338.002 5.67 5.67 0 0 1 11.338-.002Zm0 0" transform="matrix(1 0 0 -1 6.788 91.828)"/><path style="stroke:none;fill-rule:nonzero;fill:#000;fill-opacity:1" d="M66.316 6.79a2.836 2.836 0 0 0-2.836-2.837 2.832 2.832 0 0 0-2.832 2.836 2.835 2.835 0 0 0 5.668 0Zm0 0"/><g clip-path="url(#d)"><path style="fill:none;stroke-width:.3985;stroke-linecap:butt;stroke-linejoin:miter;stroke:#000;stroke-opacity:1;stroke-miterlimit:10" d="M90.708 0a5.665 5.665 0 0 1-5.668 5.668A5.667 5.667 0 0 1 79.372 0a5.667 5.667 0 0 1 5.668-5.668A5.665 5.665 0 0 1 90.708 0Zm0 0" transform="matrix(1 0 0 -1 6.788 91.828)"/></g><path style="stroke:none;fill-rule:nonzero;fill:#000;fill-opacity:1" d="M94.664 91.828a2.836 2.836 0 1 0-5.671 0 2.836 2.836 0 0 0 5.671 0Zm0 0"/><g clip-path="url(#e)"><path style="fill:none;stroke-width:.3985;stroke-linecap:butt;stroke-linejoin:miter;stroke:#000;stroke-opacity:1;stroke-miterlimit:10" d="M90.708 28.348a5.667 5.667 0 1 1-11.336 0 5.668 5.668 0 1 1 11.336 0Zm0 0" transform="matrix(1 0 0 -1 6.788 91.828)"/></g><path style="stroke:none;fill-rule:nonzero;fill:#000;fill-opacity:1" d="M94.664 63.48a2.836 2.836 0 1 0-5.671 0 2.836 2.836 0 0 0 5.671 0Zm0 0"/><g clip-path="url(#f)"><path style="fill:none;stroke-width:.3985;stroke-linecap:butt;stroke-linejoin:miter;stroke:#000;stroke-opacity:1;stroke-miterlimit:10" d="M90.708 56.695a5.667 5.667 0 1 1-11.336 0 5.668 5.668 0 1 1 11.336 0Zm0 0" transform="matrix(1 0 0 -1 6.788 91.828)"/></g><path style="stroke:none;fill-rule:nonzero;fill:#000;fill-opacity:1" d="M94.664 35.133a2.835 2.835 0 0 0-2.836-2.832 2.835 2.835 0 1 0 2.836 2.832Zm0 0"/><g clip-path="url(#g)"><path style="fill:none;stroke-width:.3985;stroke-linecap:butt;stroke-linejoin:miter;stroke:#000;stroke-opacity:1;stroke-miterlimit:10" d="M90.708 85.039a5.668 5.668 0 1 1-11.336 0 5.667 5.667 0 1 1 11.336 0Zm0 0" transform="matrix(1 0 0 -1 6.788 91.828)"/></g><path style="stroke:none;fill-rule:nonzero;fill:#000;fill-opacity:1" d="M94.664 6.79a2.836 2.836 0 1 0-5.672 0 2.835 2.835 0 0 0 2.836 2.831 2.835 2.835 0 0 0 2.836-2.832Zm0 0"/></svg>