<svg xmlns="http://www.w3.org/2000/svg" xmlns:xlink="http://www.w3.org/1999/xlink" width="92.63pt" height="88.76pt" viewBox="0 0 92.63 88.76" version="1.2"><defs><symbol overflow="visible" id="a"><path style="stroke:none" d="m-.594-2-.281-.016v.25l.266.016c.359 0 .484.172.468.328 0 .297-.343.281-.453.281l-1.437-.046.015-.766h-.234l-.016.766-1-.032-.015.25c.515.016 1.031.281 1.031.797h.188l.015-.422 1.422.047c.563.016.688-.437.688-.812C.077-1.75-.22-1.984-.595-2Zm0 0"/></symbol><symbol overflow="visible" id="b"><path style="stroke:none" d="M-.39-2.688c-.094-.015-.11.094-.11.11 0 .094 0 .11.094.156.25.125.39.438.36.781-.063.766-.766.704-1.048.688l.14-1.61c0-.109.016-.171-.124-.187-.172-.016-.563-.016-.844.219-.219.187-.344.437-.375.812-.062.86.438 1.39 1.11 1.438C-.47-.22.093-.703.171-1.578c.062-.828-.469-1.11-.563-1.11Zm-.766.454-.11 1.265c-.218-.047-.437-.062-.625-.187a.644.644 0 0 1-.203-.532c.063-.609.75-.562.938-.546Zm0 0"/></symbol><symbol overflow="visible" id="c"><path style="stroke:none" d="M.516-3.219.25-3.266l-.063.391-1.234.75-.61-.75c-.062-.094-.109-.14-.03-.594l-.266-.031L-2-3l-.125.578.266.031a.546.546 0 0 1 .078-.203.34.34 0 0 1 .078.063l.422.531-.719.438.047-.22-.266-.03-.078.671-.125.594.266.031.062-.39 1.14-.688.688.86c.094.093.063.296.016.562l.266.047.078-.5.093-.563-.265-.046c-.016.093-.063.203-.094.203l-.031-.063-.516-.625.797-.5L.047-2l.266.047.093-.672Zm0 0"/></symbol><symbol overflow="visible" id="d"><path style="stroke:none" d="m-.203-2.313-.281-.062-.063.25.266.063c.406.093.484.312.437.468-.078.328-.422.25-.562.219l-1.547-.375.203-.813-.266-.046-.203.812-1.078-.266-.062.266c.562.14 1.062.547.953 1.094l.203.047.11-.453 1.53.359c.61.156.844-.313.938-.719.11-.437-.156-.734-.578-.843Zm0 0"/></symbol><symbol overflow="visible" id="e"><path style="stroke:none" d="M.39-3.11C.282-3.14.235-3.03.22-3c-.032.094 0 .11.078.172.234.234.297.625.156 1-.297.812-1.078.547-1.375.437l.64-1.75c.048-.125.079-.187-.077-.25-.172-.062-.61-.187-1.016 0-.281.141-.516.407-.656.813-.344.922.094 1.64.812 1.906C-.453-.375.313-.75.656-1.687 1-2.595.47-3.079.391-3.11Zm-.984.266-.515 1.39c-.235-.109-.47-.187-.61-.39a.707.707 0 0 1-.11-.656c.25-.672 1.016-.406 1.235-.344Zm0 0"/></symbol><symbol overflow="visible" id="f"><path style="stroke:none" d="M-2.438-4.14c-.25-.11-.593-.016-.796.437-.266.578-.282 1.312.375 1.61l.593.25-.203.437.266.125L-2-1.72l2.047.907-.188.406.266.125.313-.735c.093-.218.265-.593.374-.796l-.265-.125-.235.5-2.046-.907.312-.672-.266-.125-.328.72-.593-.25c-.641-.298-.5-.767-.438-.923.016-.031.031-.047.063-.078.015.11.109.203.234.25.234.11.438-.047.5-.203.078-.172.047-.406-.188-.516Zm0 0"/></symbol><symbol overflow="visible" id="g"><path style="stroke:none" d="M-2.281-4.39c-.25-.141-.625-.048-.86.406-.296.562-.375 1.328.297 1.671l.578.297-.218.438.28.14.22-.437L.062-.828l-.203.406.282.14.359-.734c.125-.218.313-.593.438-.812l-.282-.14-.265.5-2.047-1.048.343-.656-.28-.14-.36.703-.578-.297c-.656-.344-.485-.797-.406-.953.015-.032.03-.063.078-.094.015.11.093.219.203.281.25.125.469-.031.547-.187.093-.172.062-.422-.172-.532Zm0 0"/></symbol><symbol overflow="visible" id="h"><path style="stroke:none" d="M1.031-3.266c-.11-.062-.172.047-.187.063-.047.094-.016.125.062.234.188.266.172.719-.047 1.094-.5.813-1.265.375-1.562.188L.359-3.454c.063-.125.094-.172-.062-.266-.188-.11-.61-.344-1.078-.219-.344.094-.64.329-.89.72-.548.921-.25 1.812.468 2.234.797.484 1.703.25 2.266-.688.562-.922.078-1.531-.032-1.594Zm-1.093.079-.829 1.39c-.234-.156-.453-.312-.578-.547a.75.75 0 0 1 .016-.734c.422-.672 1.187-.235 1.39-.11Zm0 0"/></symbol><symbol overflow="visible" id="i"><path style="stroke:none" d="M1.297-3.172c-.078-.062-.14.016-.188.078-.062.11-.062.11-.015.188.25.406.172.75-.032 1.047-.578.78-1.421.187-1.671 0-.313-.235-1.047-.766-.516-1.5.14-.188.234-.282.281-.36.047.188.14.281.188.328.265.172.5.063.61-.093.124-.172.14-.438-.11-.61-.469-.36-.985.282-1.219.61-.734 1-.375 1.89.281 2.359.75.547 1.672.406 2.297-.469.656-.906.125-1.562.094-1.578Zm0 0"/></symbol><symbol overflow="visible" id="j"><path style="stroke:none" d="m1.094-2.656-.297-.235-.203.25.281.22c.36.327.344.608.219.765-.266.312-.61.015-.75-.094l-1.5-1.281.672-.797-.25-.219-.672.797-1.047-.89-.219.265c.547.469.86 1.188.39 1.734l.204.172.375-.437 1.5 1.281C.39-.641.907-1 1.25-1.391c.344-.421.234-.921-.156-1.265Zm0 0"/></symbol><symbol overflow="visible" id="k"><path style="stroke:none" d="M1.422-2.89c-.219-.235-.516-.313-.828-.282-.36.047-.563.188-1.047.531-.219.172-.61.454-.86.22-.328-.329.157-.813.25-.923.407-.39.75-.437 1.063-.187.078.078.11.094.219-.016.125-.125.093-.14-.032-.265l-.421-.422c-.094-.094-.141-.141-.22-.063-.03.031-.046.047-.155.36a1.657 1.657 0 0 0-.61.406c-.156.156-.953.969-.265 1.656.218.203.453.25.656.234.375-.046.61-.218 1.078-.53.203-.157.672-.47.984-.173.391.39-.078.875-.187.985-.547.546-1.094.296-1.36.14-.109-.047-.14-.031-.218.047-.11.125-.078.172.047.281l.578.579c.093.093.14.14.218.062C.36-.297.376-.313.406-.5l.031-.219c.422-.078.688-.344.797-.453.157-.156.954-.969.188-1.719Zm0 0"/></symbol><symbol overflow="visible" id="l"><path style="stroke:none" d="M3.36-2.688c-.11-.14-.204-.078-.282-.03-.375.28-.437.202-.547.046l-.984-1.344c-.406-.562-1.156-.64-2.094.047-.344.266-1.094.86-.687 1.422.203.25.515.219.687.094.203-.14.281-.422.094-.672a.542.542 0 0 0-.36-.234c.141-.157.344-.297.422-.36.485-.344.875-.234 1.22.235l.155.203C.563-2.937-1-1.72-.344-.812c.438.609 1.328.156 1.75-.157.5-.375.61-.844.563-1.203.125.188.343.485 1 0l.297-.219c.125-.093.203-.14.093-.296Zm-1.797.204c.453.609-.079 1.109-.235 1.218C1-1.03.61-1.062.406-1.344c-.5-.672.422-1.5.735-1.734Zm0 0"/></symbol><symbol overflow="visible" id="m"><path style="stroke:none" d="m1.984-1.219-.203-.312-.468.281-2.688-4.406-1.172.797.188.312c.437-.25.468-.281.64-.016L.578-.796.11-.516l.204.313.828-.547Zm0 0"/></symbol><symbol overflow="visible" id="n"><path style="stroke:none" d="M3.156-3.578c-.5-.969-1.531-1.375-2.719-.781-1.203.593-1.5 1.671-1 2.64C-.108-.812.891-.39 2.11-1c1.235-.625 1.5-1.688 1.047-2.578Zm-.969.39c.329.641.72 1.422-.218 1.891-.922.453-1.313-.328-1.64-.969-.157-.328-.345-.703-.345-1.015 0-.328.22-.64.579-.813.312-.156.671-.203.968-.015.282.156.485.562.657.921Zm0 0"/></symbol><symbol overflow="visible" id="o"><path style="stroke:none" d="m4.844-1.75-.125-.375-.532.203-.75-2.031c-.296-.828-.843-1-1.624-.703a1.574 1.574 0 0 0-1.079 1.36l-.312-.86-1.313.547.125.375c.485-.172.532-.204.641.093l.89 2.438-.53.203.124.375.985-.39 1-.329-.125-.375-.547.203-.61-1.64c-.312-.86.235-1.5.735-1.688.266-.093.484.016.703.61l.781 2.125-.547.203.125.375.97-.39Zm0 0"/></symbol><symbol overflow="visible" id="p"><path style="stroke:none" d="M3.89-4.39c-.03-.173-.234-.438-.624-.344a1.323 1.323 0 0 0-.813.515c-.172-.062-.578-.172-1.187-.031-1.204.266-1.5 1.031-1.375 1.625.078.344.328.64.64.781a1.11 1.11 0 0 0-.11.797c.032.125.157.531.532.719-.078.047-.64.375-.531.89.094.422.687.938 2.344.563C4.25.781 4.796.156 4.672-.438c-.063-.25-.25-.765-.875-.906-.531-.125-1.031-.015-1.828.172-.219.047-.61.14-.625.125a.551.551 0 0 1-.61-.422.646.646 0 0 1 .032-.297c.437.125.859.047 1.062 0 1.203-.28 1.531-1.03 1.39-1.609-.093-.39-.374-.625-.53-.75.218-.172.406-.234.484-.266v.157c.062.218.234.343.453.296.219-.046.328-.234.266-.453ZM2.282-3.173c.094.375.219.938-.515 1.11-.72.171-.844-.391-.938-.766-.078-.375-.219-.938.5-1.11.734-.171.875.391.953.766ZM3.953-.25c.078.297-.156.828-1.25 1.078-.984.235-1.5-.062-1.578-.437-.11-.5.422-.625.531-.657l.985-.218c.25-.063 1.203-.282 1.312.234Zm0 0"/></symbol><symbol overflow="visible" id="q"><path style="stroke:none" d="M5.328-2.11c-.016-1.187-.844-2.015-2.125-1.984-.687.016-1.156.282-1.36.453v-.437l-1.593.11v.421c.563-.015.625-.015.64.328l.094 4.516-.625.016v.421L1.5 1.688h1.125v-.422H2L1.969-.391c.39.313.781.375 1.156.375 1.344-.03 2.234-.843 2.203-2.093Zm-1.14.016c.03 1.266-.579 1.75-1.172 1.766-.125 0-.547.016-.954-.469-.109-.125-.109-.125-.109-.297L1.906-3c0-.172.016-.172.14-.297a1.413 1.413 0 0 1 1-.437c.61-.016 1.126.515 1.142 1.64Zm0 0"/></symbol><symbol overflow="visible" id="r"><path style="stroke:none" d="M5.078.344c.016-.219-.11-.219-.234-.235-.547-.062-.532-.187-.516-.39l.234-1.969c.094-.813-.484-1.469-1.859-1.625-.515-.063-1.625-.156-1.719.64-.046.407.266.626.516.657a.555.555 0 0 0 .625-.516c.031-.281-.125-.437-.156-.469.25-.015.547 0 .656.016.688.078.984.485.906 1.172l-.047.313C2.828-2.11.516-2.283.36-.954.266-.078 1.375.219 2 .28c.734.094 1.203-.25 1.453-.61-.031.282-.078.704.86.813l.437.047c.188.031.297.031.328-.187ZM3.36-.906c-.093.875-.953.89-1.187.86-.469-.048-.797-.392-.75-.798.11-.969 1.562-.953 2.031-.922Zm0 0"/></symbol><symbol overflow="visible" id="s"><path style="stroke:none" d="m3.75-.313.11-.484-.422-.094-.11.47c-.14.609-.5.765-.734.718-.531-.125-.406-.719-.36-.922l.594-2.531 1.313.297.109-.422-1.313-.297.407-1.735-.438-.109c-.234.906-.89 1.703-1.781 1.531l-.078.313.734.172-.578 2.5C.97.063 1.72.469 2.36.625 3.063.781 3.594.344 3.75-.313Zm0 0"/></symbol><symbol overflow="visible" id="t"><path style="stroke:none" d="m5.5 2.078.156-.422-.625-.234.875-2.313c.36-.953.016-1.468-.875-1.796-.875-.329-1.515 0-1.843.265l1.14-3.047-1.61-.515-.155.421c.546.204.609.235.484.594L1.172-.03l-.61-.235-.156.422 1.14.39L2.657 1l.156-.422-.609-.234.703-1.875c.375-.969 1.297-1.11 1.86-.89.312.108.421.358.156 1.03l-.906 2.422-.61-.234-.156.422 1.14.406Zm0 0"/></symbol><symbol overflow="visible" id="u"><path style="stroke:none" d="M5.063-4.328c.187-.344.015-.797-.36-1-.36-.188-.828-.063-1.016.281-.015.047-.03.063-.062.156L2.437-1.5c-.078.203-.093.234.094.328.156.094.203.078.328-.062l2.141-3ZM2.546.469a.792.792 0 0 0-.328-1.047c-.36-.188-.828-.031-1.016.344A.746.746 0 0 0 1.516.78.755.755 0 0 0 2.546.47Zm0 0"/></symbol><symbol overflow="visible" id="v"><path style="stroke:none" d="m1.969.688.172-.22-.204-.156-.171.22c-.22.28-.407.28-.532.187C1 .547 1.204.28 1.266.188L2.14-.954 2.75-.5l.14-.188-.609-.453.61-.796-.188-.157c-.312.406-.828.672-1.25.36l-.11.156.329.266-.86 1.125C.47.266.766.625 1.063.859c.313.235.672.125.907-.171Zm0 0"/></symbol><symbol overflow="visible" id="w"><path style="stroke:none" d="M2.406 1.266c.063-.079-.015-.141-.031-.157-.063-.062-.094-.046-.156 0-.266.125-.61.047-.86-.187-.578-.5-.125-1.031.063-1.25L2.64.734c.078.079.125.11.218.016.11-.14.36-.453.329-.813-.032-.296-.172-.546-.454-.796-.656-.563-1.375-.454-1.828.062-.469.547-.39 1.281.266 1.86.64.562 1.172.265 1.234.203ZM2.484.39l-.953-.844c.157-.156.297-.313.516-.39a.625.625 0 0 1 .562.14c.47.406 0 .953-.125 1.094Zm0 0"/></symbol><symbol overflow="visible" id="x"><path style="stroke:none" d="m2.297 2.328.187-.187-.296-.297.156-1.438.953-.047c.11 0 .172-.015.5.329L3.984.5 3.61.156 3.22-.28l-.188.187c.047.063.078.11.125.188-.062.031-.062.031-.11.031L2.36.141l.079-.829.156.157.187-.188-.5-.453-.406-.469-.188.188.282.281-.125 1.36L.75.217C.61.235.469.095.281-.093L.094.094l.375.344.375.421.187-.187C.97.609.921.516.938.484H1l.813-.046-.079.937-.156-.156-.187.187.484.469Zm0 0"/></symbol><symbol overflow="visible" id="y"><path style="stroke:none" d="m1.969 1.219.234-.188-.172-.203-.219.188c-.312.25-.53.187-.625.078-.218-.266.047-.5.157-.594L2.562-.531l.547.64.204-.171-.547-.641.843-.719-.171-.203c-.438.375-1.079.531-1.454.094l-.156.14.313.36L.937-.016C.47.391.672.844.954 1.172c.281.328.688.328 1.016.047Zm0 0"/></symbol><symbol overflow="visible" id="z"><path style="stroke:none" d="M2.266 2.172c.093-.063.03-.156.015-.188-.062-.093-.11-.078-.203-.046-.312.03-.672-.141-.906-.485C.719.734 1.39.266 1.656.093l1.016 1.563c.078.125.11.172.265.078.157-.093.516-.375.61-.812.062-.297-.047-.64-.266-1-.547-.828-1.36-.922-2-.5C.578-.141.406.703.953 1.532c.516.827 1.235.687 1.313.64Zm.375-.938-.813-1.25c.234-.109.438-.25.688-.25.28 0 .5.172.593.313.391.61-.296 1.062-.468 1.187Zm0 0"/></symbol><symbol overflow="visible" id="A"><path style="stroke:none" d="M4.766.547c.234-.125.39-.453.156-.89-.313-.548-.89-1.016-1.531-.673l-.547.313-.235-.422-.265.14.234.422L.625.516.422.14.156.28l.39.688c.11.203.329.578.407.765l.266-.14-.266-.469L2.906.047l.36.64.265-.14-.375-.688.547-.312c.625-.344.906.047.985.203.015.016.03.047.03.094-.093-.047-.218-.032-.327.015-.235.141-.235.375-.157.532.094.171.297.296.532.156Zm0 0"/></symbol><symbol overflow="visible" id="B"><path style="stroke:none" d="M4.875.86c.25-.126.422-.47.203-.922-.281-.579-.844-1.11-1.516-.797l-.593.28-.203-.437-.282.141.204.438L.608.546.422.14.14.28l.359.75c.11.219.297.61.39.813l.282-.14-.25-.5L3 .218l.328.672L3.61.75 3.266.031l.593-.281c.657-.313.922.11 1 .266.016.03.032.046.032.109-.11-.047-.25-.063-.36 0-.25.11-.281.39-.203.547.094.172.297.297.547.187Zm0 0"/></symbol><symbol overflow="visible" id="C"><path style="stroke:none" d="M1.969 2.813c.11-.032.062-.141.047-.172-.032-.094-.094-.094-.204-.11-.343-.031-.687-.297-.843-.703-.36-.89.469-1.234.812-1.36l.75 1.923c.047.14.078.187.235.125.203-.094.64-.282.828-.735.14-.328.14-.703-.031-1.14C3.171-.375 2.296-.656 1.5-.36.64-.016.281.844.672 1.859c.39 1.016 1.172 1 1.297.954Zm.61-.922L1.983.375C2.22.297 2.5.219 2.75.281a.724.724 0 0 1 .578.453c.281.735-.531 1.079-.75 1.157Zm0 0"/></symbol><symbol overflow="visible" id="D"><path style="stroke:none" d="M1.703 2.984c.094-.03.063-.125.047-.203-.031-.125-.031-.125-.14-.125-.47-.062-.704-.328-.798-.672C.547 1.047 1.547.766 1.845.672c.375-.11 1.25-.36 1.5.515.062.22.078.344.094.454a.484.484 0 0 0-.36-.063c-.312.094-.36.344-.297.531.047.204.235.391.531.297.563-.156.391-.937.282-1.328C3.25-.125 2.344-.406 1.563-.172.671.078.202.906.5 1.938c.313 1.078 1.156 1.046 1.203 1.046Zm0 0"/></symbol><symbol overflow="visible" id="E"><path style="stroke:none" d="m1.406 2.516.36-.079-.063-.328-.344.079c-.484.093-.687-.11-.734-.297-.078-.407.36-.5.531-.532L3.094.984l.203 1.032.328-.079-.203-1.03L4.75.656 4.687.327C4 .453 3.234.234 3.079-.453l-.25.062.11.563L1 .547C.25.703.219 1.344.312 1.859c.11.532.579.766 1.094.657Zm0 0"/></symbol><symbol overflow="visible" id="F"><path style="stroke:none" d="M1.375 2.938c.297-.047.547-.235.719-.5.187-.313.203-.563.234-1.141.016-.281.047-.75.39-.797.47-.047.548.625.563.766.063.562-.125.859-.531.937-.11.016-.14.031-.125.188.016.171.047.171.219.156l.594-.078c.14-.016.203-.016.187-.14 0-.032 0-.048-.172-.329.078-.203.094-.453.063-.75C3.484 1.031 3.359-.094 2.39.016a.818.818 0 0 0-.594.359c-.219.328-.234.625-.281 1.172 0 .281-.032.828-.454.875-.562.062-.64-.61-.656-.766C.328.891.844.641 1.156.516c.094-.063.094-.094.078-.204C1.22.141 1.172.157 1 .172L.187.266C.047.28-.016.28 0 .406 0 .47 0 .484.14.641l.141.171c-.203.36-.156.72-.14.875.03.22.156 1.36 1.234 1.25Zm0 0"/></symbol><symbol overflow="visible" id="G"><path style="stroke:none" d="M-.063 4.313c.172 0 .172-.11.172-.204.047-.468.141-.453.329-.453l1.671.11c.688.03 1.22-.5 1.297-1.657.016-.437.047-1.39-.64-1.421-.329-.032-.5.25-.516.453-.016.25.14.484.453.515.235.016.39-.125.406-.156.032.219.016.469.016.563-.031.593-.375.843-.953.812l-.266-.016c0-.546.047-2.546-1.078-2.609-.75-.047-.937.922-.969 1.453-.047.625.25 1 .563 1.188-.234-.016-.594-.032-.64.78l-.016.376c-.016.156-.016.25.172.266Zm.985-1.516C.172 2.75.109 2.03.125 1.844c.031-.407.313-.688.656-.672.844.047.875 1.281.875 1.672Zm0 0"/></symbol><symbol overflow="visible" id="H"><path style="stroke:none" d="m-.36 2.297.376.062.093-.53 5.094.78.14-1.406-.374-.047c-.078.485-.078.532-.39.485L.233.969.312.438-.061.374l-.11.969Zm0 0"/></symbol><symbol overflow="visible" id="I"><path style="stroke:none" d="M.625 4.719c1.063.281 2.063-.235 2.39-1.532C3.345 1.891 2.72.97 1.657.688.672.438-.297.938-.625 2.25c-.344 1.344.281 2.219 1.25 2.469Zm.344-.969C.28 3.562-.578 3.344-.312 2.328c.25-1 1.109-.781 1.796-.594.36.094.766.188 1 .407.235.218.329.578.235.968-.094.344-.297.641-.625.766-.297.078-.75-.031-1.125-.125Zm0 0"/></symbol><symbol overflow="visible" id="J"><path style="stroke:none" d="m-1.953 4.766.36.14.218-.531 2.016.828c.812.328 1.28.031 1.593-.75.313-.734.047-1.328-.28-1.703l.843.344.484-1.344-.36-.156c-.202.484-.218.531-.515.406L0 1.016.219.484l-.36-.14-.375 1-.421.953.359.14.219-.53 1.625.671c.843.344.937 1.156.734 1.656-.094.266-.328.375-.922.125L-1.016 3.5l.22-.547-.36-.14-.36.984Zm0 0"/></symbol><symbol overflow="visible" id="K"><path style="stroke:none" d="M.531 5.844c.172.093.5.125.688-.219.062-.11.25-.469.203-.938.156-.093.484-.312.797-.843.625-1.063.281-1.813-.25-2.125a1.15 1.15 0 0 0-.985-.078 1.2 1.2 0 0 0-.515-.625C.359.953-.016.766-.421.937c.03-.109.187-.75-.267-1.015-.39-.219-1.171-.14-2.03 1.344-.766 1.296-.673 2.125-.157 2.421.219.126.719.36 1.266 0 .453-.296.703-.734 1.109-1.437.125-.203.328-.547.36-.563.234-.312.562-.218.703-.14a.44.44 0 0 1 .187.219c-.375.234-.61.593-.719.78C-.579 3.61-.25 4.36.25 4.657c.36.203.703.157.89.125 0 .297-.077.453-.109.547a.315.315 0 0 0-.14-.11c-.188-.109-.375-.077-.485.11-.11.203-.062.406.125.516Zm.203-2.016c-.312-.187-.812-.484-.437-1.125.39-.656.89-.36 1.203-.172.344.203.844.5.453 1.156-.375.641-.875.344-1.219.141Zm-3.25-.781c-.28-.156-.515-.656.063-1.625.515-.89 1.062-1.063 1.39-.86.454.25.188.704.125.813l-.5.875c-.14.219-.625 1.063-1.078.797Zm0 0"/></symbol><symbol overflow="visible" id="L"><path style="stroke:none" d="M-2.281 5.266c.86.812 2.031.812 2.922-.11.468-.5.609-1.015.625-1.281l.312.297 1.047-1.188-.297-.296c-.375.406-.422.453-.672.218L-1.609-.219l.421-.453-.296-.297-.766.844-.797.797.297.297.438-.453 1.203 1.14c-.5.063-.829.297-1.079.563-.937.984-.984 2.172-.093 3.047Zm.797-.813c-.907-.875-.829-1.656-.407-2.094.079-.078.375-.39 1-.343.157.015.157.015.282.125L.78 3.469c.11.11.094.125.11.312.03.5-.266.89-.391 1.016-.422.453-1.172.422-1.984-.344Zm0 0"/></symbol><symbol overflow="visible" id="M"><path style="stroke:none" d="M-3.875 3.281c.125.172.234.11.328.031.438-.343.516-.25.64-.078l1.22 1.563c.5.64 1.375.703 2.453-.14.406-.313 1.28-1.032.78-1.673-.25-.312-.609-.25-.812-.093-.218.171-.328.5-.093.796.171.235.39.25.437.235-.172.203-.406.39-.484.453-.547.422-1.031.328-1.453-.219l-.188-.25C-.547 3.484 1.22 2 .406.937-.14.25-1.125.813-1.625 1.188c-.578.454-.688 1.032-.61 1.454-.171-.235-.437-.563-1.187.03l-.36.267c-.14.109-.234.171-.093.343ZM-1.765 3c-.548-.703.046-1.313.234-1.453.375-.297.843-.266 1.093.062.61.766-.453 1.766-.796 2.063Zm0 0"/></symbol><symbol overflow="visible" id="N"><path style="stroke:none" d="m-2.484 2.828.25.422.375-.234-.25-.407c-.313-.546-.172-.906.046-1.03.47-.282.782.25.891.421L.141 4.234l-1.172.704.234.375 1.172-.704.906 1.532.375-.22c-.468-.827-.547-1.827.235-2.327l-.172-.281-.657.39L-.234 1.5C-.75.64-1.563.86-2.125 1.187c-.625.375-.703 1.063-.36 1.641Zm0 0"/></symbol><symbol overflow="visible" id="O"><path style="stroke:none" d="m-5.422 2.25.172.422.61-.25.952 2.281c.391.938 1 1.078 1.876.703.859-.343 1.093-1.031 1.14-1.468l1.25 3 1.531-.704-.171-.421c-.532.218-.61.25-.75-.094L-.845.844l.61-.25-.172-.422L-1.5.656l-1.125.438.172.422.61-.25.765 1.843a1.438 1.438 0 0 1-.734 1.938c-.313.125-.547 0-.829-.672L-3.64 2l.61-.25-.172-.422-1.094.5Zm0 0"/></symbol><symbol overflow="visible" id="P"><path style="stroke:none" d="M-.781 6.61c.11.374.531.593.937.484.39-.094.656-.5.547-.875 0-.047-.015-.078-.062-.157l-1.422-3.28c-.094-.235-.094-.266-.281-.22-.188.063-.22.094-.204.297L-.812 6.5Zm-1.406-5.235c.109.406.546.656.953.547.39-.094.625-.531.515-.938A.775.775 0 0 0-1.64.438a.772.772 0 0 0-.546.937Zm0 0"/></symbol><symbol overflow="visible" id="Q"><path style="stroke:none" d="m-1.938.797.032.281.25-.016-.032-.265c-.015-.36.125-.5.282-.516.297-.015.328.328.328.438l.125 1.437-.766.063.016.234.766-.062.078.984.25-.016c-.032-.515.171-1.046.687-1.093l-.015-.188-.422.031L-.484.688c-.047-.563-.5-.641-.875-.61-.391.031-.61.344-.579.719Zm0 0"/></symbol><symbol overflow="visible" id="R"><path style="stroke:none" d="M-2.64.656c0 .094.109.094.124.094.094 0 .11-.016.141-.11.094-.25.406-.421.75-.437.766 0 .781.703.781.984l-1.625.016c-.11 0-.172 0-.172.14 0 .173.047.563.313.829.203.203.484.297.86.281.859 0 1.327-.578 1.312-1.25C-.172.484-.703-.016-1.578-.016-2.422 0-2.656.563-2.641.656Zm.515.719 1.281-.016c-.015.22-.015.438-.11.625a.627.627 0 0 1-.515.266c-.625.016-.656-.688-.656-.875Zm0 0"/></symbol><symbol overflow="visible" id="S"><path style="stroke:none" d="m-3.25-.25-.016.266.407.03.812 1.188-.687.672c-.079.063-.125.11-.579.078l-.015.266h.5l.578.078.016-.265c-.079 0-.141-.032-.204-.063.032-.047.032-.047.047-.078l.5-.484.5.687-.218-.016-.016.266.672.016.61.078.015-.266-.39-.031-.798-1.094.797-.75c.11-.11.313-.094.578-.078l.016-.266-.516-.015-.562-.063-.016.266c.094.016.203.047.188.078l-.047.047-.578.562-.563-.765.219.015.016-.265-.672-.032Zm0 0"/></symbol><symbol overflow="visible" id="T"><path style="stroke:none" d="m-2.281.344-.063.297.266.046.047-.28c.078-.391.265-.485.422-.47.343.063.28.422.265.547l-.265 1.579-.829-.141-.046.266.828.14-.172 1.094.266.047c.093-.578.484-1.094 1.03-1.016L-.5 2.25l-.453-.078.265-1.563C-.594 0-1.078-.203-1.5-.28c-.422-.063-.719.219-.781.625Zm0 0"/></symbol><symbol overflow="visible" id="U"><path style="stroke:none" d="M-3.11-.266c-.046.094.047.125.079.141.11.031.14 0 .203-.063.219-.234.61-.328 1-.203.812.266.562 1.063.469 1.36L-3.125.39c-.125-.047-.188-.063-.234.093-.063.188-.172.625.03 1.016.142.281.423.484.813.625.938.297 1.657-.14 1.891-.86C-.359.47-.75-.28-1.703-.593c-.922-.312-1.375.235-1.406.328Zm.282.97 1.406.452c-.094.235-.172.469-.36.625a.726.726 0 0 1-.655.14C-3.11 1.688-2.876.907-2.829.704Zm0 0"/></symbol><symbol overflow="visible" id="V"><path style="stroke:none" d="M-4.078 2.516c-.11.25-.016.609.437.812.579.235 1.329.235 1.61-.422l.25-.594.437.188.11-.281-.438-.188.875-2.047.406.172.11-.281-.735-.297c-.218-.078-.609-.25-.812-.344l-.11.282.5.203-.875 2.047-.671-.282-.11.282.719.296-.25.594c-.281.64-.75.516-.906.453-.031-.015-.047-.015-.078-.046a.397.397 0 0 0 .25-.25c.109-.235-.047-.438-.204-.5a.384.384 0 0 0-.515.203Zm0 0"/></symbol><symbol overflow="visible" id="W"><path style="stroke:none" d="M-4.375 2.313c-.125.25-.063.624.39.859.579.281 1.36.344 1.688-.313L-2 2.266l.438.218.14-.28-.437-.22L-.83-.062l.407.203.14-.282-.734-.359a9.886 9.886 0 0 1-.812-.422l-.14.281.5.25L-2.5 1.656l-.672-.328-.14.281.718.36-.297.593c-.328.657-.812.47-.968.391-.016-.015-.047-.015-.079-.062a.377.377 0 0 0 .282-.204.413.413 0 0 0-.172-.562c-.188-.094-.422-.063-.547.188Zm0 0"/></symbol><symbol overflow="visible" id="X"><path style="stroke:none" d="M-3.266-1.078c-.062.11.047.172.063.187.094.063.14.032.234-.03.281-.204.735-.173 1.094.046.813.5.36 1.266.172 1.578l-1.75-1.078c-.125-.078-.172-.11-.266.031-.11.188-.328.625-.234 1.078.094.36.328.657.734.907.922.562 1.781.265 2.235-.454.484-.78.25-1.703-.672-2.28-.922-.563-1.547-.079-1.61.015Zm.079 1.11 1.374.859c-.156.203-.312.453-.546.562a.788.788 0 0 1-.735-.031C-3.766 1-3.313.234-3.188.032Zm0 0"/></symbol><symbol overflow="visible" id="Y"><path style="stroke:none" d="M-3.14-1.39c-.047.077.03.14.093.187.094.078.094.078.172.016.406-.235.766-.141 1.047.078.766.593.14 1.406-.063 1.656-.234.312-.78 1.031-1.5.469-.171-.141-.28-.235-.328-.297A.432.432 0 0 0-3.406.53a.4.4 0 0 0-.078-.594c-.172-.14-.438-.156-.61.079-.375.484.235 1 .563 1.25.984.75 1.89.453 2.39-.204.563-.718.438-1.656-.406-2.312-.89-.688-1.562-.172-1.594-.14Zm0 0"/></symbol><symbol overflow="visible" id="Z"><path style="stroke:none" d="m-2.594-1.234-.265.28.234.22.25-.266c.328-.344.625-.297.766-.156.296.265-.016.593-.125.718L-3.094.984l-.765-.718-.235.25.766.718-.938 1 .25.235c.485-.516 1.25-.781 1.766-.313l.188-.203-.422-.39L-1.125.14c.516-.563.172-1.11-.203-1.454-.406-.375-.906-.296-1.266.079Zm0 0"/></symbol><symbol overflow="visible" id="aa"><path style="stroke:none" d="M-2.797-1.625a.996.996 0 0 0-.312.813c.015.375.14.593.437 1.078.156.234.406.656.156.875-.359.312-.812-.204-.89-.313-.375-.422-.39-.781-.11-1.062.094-.078.094-.11-.015-.235-.11-.125-.125-.11-.266 0l-.437.39c-.11.095-.157.142-.079.235.032.032.032.032.344.172.047.203.172.422.375.64.14.173.89 1.016 1.625.376a.794.794 0 0 0 .282-.625c-.016-.39-.172-.64-.454-1.125-.156-.235-.437-.703-.125-.985.422-.375.875.125.97.25.515.594.25 1.094.062 1.36-.047.11-.032.14.046.218.11.126.141.094.266-.015l.61-.531c.109-.094.156-.141.078-.235C-.281-.39-.281-.39-.47-.438L-.688-.5c-.046-.406-.296-.688-.406-.813-.14-.171-.89-1.015-1.703-.312Zm0 0"/></symbol><symbol overflow="visible" id="ab"><path style="stroke:none" d="M-2.297-3.625c-.156.078-.094.172-.047.25.203.422.125.469-.031.563l-1.453.828c-.594.343-.75 1.078-.172 2.078.219.375.734 1.187 1.328.844C-2.39.78-2.39.468-2.5.28c-.125-.203-.39-.328-.656-.172-.203.125-.266.297-.266.344-.156-.172-.281-.39-.328-.469-.297-.515-.125-.906.375-1.203l.234-.125C-2.859-.875-1.797.813-.828.25c.656-.375.297-1.281.031-1.75-.312-.531-.781-.703-1.14-.688.203-.124.515-.296.109-1l-.188-.328c-.078-.125-.125-.203-.28-.109Zm0 1.781c.656-.375 1.094.203 1.188.375.203.344.109.75-.188.922-.734.422-1.437-.594-1.64-.922Zm0 0"/></symbol><symbol overflow="visible" id="ac"><path style="stroke:none" d="m-.953-2.125-.344.156.234.5L-5.766.625l.61 1.266.343-.157c-.203-.453-.218-.5.079-.625L-.72-.687l.219.5.344-.157-.422-.875Zm0 0"/></symbol><symbol overflow="visible" id="ad"><path style="stroke:none" d="M-3.047-3.656c-1.047.344-1.61 1.297-1.203 2.562C-3.844.188-2.812.641-1.766.296-.812-.015-.25-.953-.672-2.25c-.422-1.297-1.437-1.719-2.375-1.406Zm.219 1c.687-.219 1.515-.485 1.844.515.312.985-.516 1.25-1.204 1.47-.343.109-.75.234-1.062.187-.328-.047-.578-.313-.703-.704-.11-.328-.11-.687.125-.953.187-.265.625-.39 1-.515Zm0 0"/></symbol><symbol overflow="visible" id="ae"><path style="stroke:none" d="m-.844-5.094-.39.063.093.578-2.14.36c-.86.14-1.11.64-.969 1.468.125.781.672 1.156 1.125 1.313l-.89.14.296 1.406.39-.062c-.077-.5-.093-.563.235-.625l2.547-.422.094.563.39-.063-.203-1.047-.14-1.031-.39.062.093.579-1.719.28c-.906.157-1.422-.5-1.515-1.015-.047-.281.093-.5.718-.594l2.235-.375.093.579L-.5-3l-.203-1.031Zm0 0"/></symbol><symbol overflow="visible" id="af"><path style="stroke:none" d="M-3.469-4.734c-.187 0-.484.156-.484.546 0 .125.031.532.328.907-.094.156-.266.515-.266 1.14.016 1.235.704 1.704 1.313 1.688.344 0 .672-.172.875-.453.297.234.578.281.766.281.125 0 .546-.047.812-.39.031.109.234.734.766.718.437 0 1.062-.469 1.046-2.172-.015-1.515-.53-2.187-1.14-2.187-.25.015-.797.078-1.063.656-.234.5-.234 1.016-.218 1.828 0 .235.015.625 0 .656a.554.554 0 0 1-.547.485.666.666 0 0 1-.282-.094c.22-.39.22-.828.22-1.047-.016-1.234-.688-1.687-1.282-1.687-.406.015-.688.234-.828.359-.14-.25-.156-.438-.188-.531A.665.665 0 0 0-3.469-4c.219 0 .375-.14.375-.36a.361.361 0 0 0-.375-.374Zm.844 1.828c.375 0 .953-.016.969.734.015.75-.563.766-.938.766-.39.015-.969.015-.984-.735-.016-.75.562-.75.953-.765ZM.594-3.922c.312 0 .765.328.781 1.453C1.391-1.453 1-1.03.609-1.03c-.515.015-.515-.516-.515-.64l-.016-1c-.015-.267-.015-1.235.516-1.25Zm0 0"/></symbol><symbol overflow="visible" id="ag"><path style="stroke:none" d="M-.547-5.703c-1.14-.313-2.156.25-2.5 1.484-.172.672-.047 1.188.078 1.422l-.422-.11-.359 1.563.406.11c.156-.547.172-.61.5-.516l4.36 1.172-.172.61.406.109.281-1.11.313-1.078-.406-.11-.157.595L.188-2c.39-.297.578-.64.671-1C1.203-4.297.672-5.375-.547-5.703ZM-.844-4.61C.391-4.281.687-3.547.531-2.97c-.031.11-.14.516-.719.781-.14.047-.14.047-.312.016l-1.844-.5c-.156-.047-.156-.062-.25-.203a1.466 1.466 0 0 1-.14-1.094c.156-.594.812-.937 1.89-.64Zm0 0"/></symbol><symbol overflow="visible" id="ah"><path style="stroke:none" d="M1.953-4.688c-.187-.093-.25.016-.297.125-.234.5-.36.454-.531.36l-1.797-.844c-.75-.344-1.562 0-2.14 1.25-.22.453-.657 1.5.078 1.844.375.172.64-.047.75-.281.125-.25.093-.594-.266-.766-.25-.11-.453-.016-.5-.016.063-.234.172-.515.219-.625.297-.609.797-.734 1.422-.453l.28.14c-.25.61-1.171 2.75.048 3.313C.016-.266.656-1.234.922-1.797a1.517 1.517 0 0 0-.125-1.578c.265.125.64.297 1.047-.563l.187-.39c.078-.172.125-.266-.078-.36ZM.22-3.468c.797.374.547 1.171.437 1.39-.187.422-.625.625-1 .453-.89-.422-.406-1.781-.219-2.203Zm0 0"/></symbol><symbol overflow="visible" id="ai"><path style="stroke:none" d="m1.016-3.625-.407-.281-.25.375.407.265c.515.36.53.735.39.954-.297.453-.797.109-.968 0L-1.97-3.75l.75-1.14-.36-.235-.75 1.14-1.483-1-.235.36c.766.547 1.281 1.422.781 2.203l.282.188.421-.641 2.126 1.422c.843.547 1.468 0 1.828-.547.406-.594.187-1.25-.375-1.625Zm0 0"/></symbol><symbol overflow="visible" id="aj"><path style="stroke:none" d="m4.016-4.297-.329-.312-.453.484-1.812-1.688c-.734-.687-1.344-.562-2 .141-.625.672-.563 1.39-.453 1.813l-2.36-2.22L-4.5-4.796l.328.313c.39-.422.453-.485.734-.235l3.86 3.61-.453.484.328.313.812-.907.829-.86-.329-.312-.437.485-1.469-1.36a1.456 1.456 0 0 1-.125-2.078c.219-.234.484-.25 1.016.266l1.89 1.75-.437.484.328.313.797-.89Zm0 0"/></symbol><symbol overflow="visible" id="ak"><path style="stroke:none" d="M-1.875-6.39c-.234-.313-.719-.329-1.047-.063-.328.25-.406.703-.172 1.016.031.03.047.062.125.125l2.594 2.468c.172.172.188.188.36.063.14-.125.156-.156.046-.328l-1.843-3.188Zm3.344 4.265A.756.756 0 0 0 .39-2.25C.062-2 .016-1.531.28-1.187c.25.328.735.39 1.063.14a.784.784 0 0 0 .125-1.078Zm0 0"/></symbol><symbol overflow="visible" id="al"><path style="stroke:none" d="m1.5-1.453-.125-.25-.219.11.125.234c.157.328.063.515-.078.578C.937-.656.797-.97.734-1.062L.11-2.36l.688-.329-.094-.203-.687.329-.438-.907-.234.11c.219.468.234 1.046-.235 1.296l.079.157.39-.188.625 1.281c.25.516.703.407 1.031.25.36-.171.438-.546.266-.89Zm0 0"/></symbol><symbol overflow="visible" id="am"><path style="stroke:none" d="M2.266-1.531c-.047-.094-.157-.063-.172-.063-.094.047-.078.063-.078.172-.016.266-.25.531-.563.656C.734-.484.47-1.14.375-1.406l1.516-.578c.109-.047.171-.063.125-.188-.063-.172-.235-.531-.594-.687-.25-.11-.547-.079-.89.046-.813.313-1.048 1-.813 1.626.265.671.953.968 1.765.656.797-.313.813-.922.782-1Zm-.75-.5-1.204.469C.25-1.766.172-1.97.204-2.188a.62.62 0 0 1 .39-.438c.579-.219.86.422.923.594Zm0 0"/></symbol><symbol overflow="visible" id="an"><path style="stroke:none" d="m3.14-.875-.078-.25-.39.11-1.156-.829.406-.86c.062-.093.078-.155.531-.28l-.062-.25-.5.171-.563.126.063.25c.078-.016.156-.016.234-.016-.016.062-.016.062-.031.094l-.313.625-.703-.485.219-.047-.063-.25-.656.204-.578.124.063.25.374-.093 1.125.765-.5.97C.5-.407.297-.36.047-.282l.078.25.5-.157.531-.124-.078-.25C.984-.547.891-.547.875-.579l.047-.063.328-.734.797.547-.219.047.078.25.657-.188Zm0 0"/></symbol><symbol overflow="visible" id="ao"><path style="stroke:none" d="M2.047-1.078 2-1.375l-.266.047.047.281c.063.39-.093.547-.25.563-.328.062-.39-.282-.422-.422L.844-2.484l.828-.141-.047-.266-.828.141-.188-1.094-.265.047c.094.578-.11 1.188-.656 1.313l.046.203.454-.094.265 1.563c.11.609.625.656 1.047.578.422-.063.625-.438.547-.844Zm0 0"/></symbol><symbol overflow="visible" id="ap"><path style="stroke:none" d="M3.047-.734c0-.11-.11-.11-.14-.11-.11 0-.126.031-.157.125-.14.297-.484.5-.89.5C1-.203.983-1.03.968-1.344l1.86-.015c.14 0 .202 0 .202-.172 0-.188-.031-.64-.344-.953-.234-.22-.562-.329-.984-.329C.72-2.796.187-2.155.187-1.39.204-.562.813.031 1.813.016c.97 0 1.235-.657 1.235-.75Zm-.594-.829L.97-1.546c.015-.25.015-.5.156-.703a.672.672 0 0 1 .578-.344c.719 0 .734.813.75 1.031Zm0 0"/></symbol><symbol overflow="visible" id="aq"><path style="stroke:none" d="M3.11-3.64c.015-.266-.172-.594-.672-.626-.61-.062-1.329.157-1.391.875L1-2.75l-.484-.047-.032.297.485.047L.78-.234.344-.266.313.031l.796.047c.235.031.657.063.875.094l.032-.297-.547-.047.187-2.219.719.063.031-.297-.765-.063.046-.64c.063-.703.563-.719.72-.719.03.016.062.016.093.031-.11.047-.14.172-.156.297-.031.266.172.406.344.422.187.016.39-.078.421-.344Zm0 0"/></symbol><symbol overflow="visible" id="ar"><path style="stroke:none" d="M3.5-3.484c.047-.282-.125-.625-.64-.704-.626-.109-1.391.047-1.516.782l-.11.656-.468-.078-.047.297.469.078L.796-.188.359-.266.313.047l.812.125c.25.047.656.11.89.172L2.063.03l-.546-.093.39-2.266.735.125.046-.297-.78-.14.109-.657c.125-.719.625-.687.796-.656.032 0 .063 0 .11.031a.424.424 0 0 0-.219.297c-.047.266.172.438.344.453.203.047.406-.062.453-.312Zm0 0"/></symbol><symbol overflow="visible" id="as"><path style="stroke:none" d="M3.438.14c.03-.124-.094-.171-.126-.171-.093-.032-.124.015-.203.11-.218.25-.656.374-1.078.25-.922-.25-.703-1.11-.594-1.47l2 .547c.126.031.188.063.22-.094.062-.218.171-.687-.063-1.125-.172-.296-.5-.515-.938-.64C1.61-2.75.844-2.22.61-1.406.36-.531.844.28 1.891.578 2.937.875 3.406.266 3.437.141ZM3.062-.905l-1.578-.438c.094-.25.188-.531.375-.687a.699.699 0 0 1 .735-.172c.765.203.531 1.078.469 1.297Zm0 0"/></symbol><symbol overflow="visible" id="at"><path style="stroke:none" d="M3.375.547c.047-.078-.031-.125-.11-.156-.109-.047-.109-.047-.187.03C2.734.75 2.391.75 2.047.61 1.157.234 1.547-.719 1.672-1c.156-.36.5-1.203 1.344-.86.203.094.328.157.406.22a.42.42 0 0 0-.25.25c-.125.28.047.484.219.562.203.078.453.031.578-.235.219-.546-.5-.89-.875-1.046-1.156-.5-1.922.046-2.25.796C.5-.469.828.407 1.828.829 2.86 1.266 3.36.594 3.375.547Zm0 0"/></symbol><symbol overflow="visible" id="au"><path style="stroke:none" d="M2.813.594 3 .266 2.719.094l-.172.312c-.25.422-.531.453-.719.344-.344-.188-.125-.578-.031-.734l.969-1.704.906.516.172-.297-.906-.515.671-1.188-.296-.172c-.344.61-1.016 1.047-1.626.719l-.14.234.5.282-.969 1.703c-.39.672.094 1.125.531 1.39.485.266.938.063 1.204-.39Zm0 0"/></symbol><symbol overflow="visible" id="av"><path style="stroke:none" d="M3.078.984c.188-.25.219-.562.14-.859-.109-.36-.265-.531-.671-.953-.203-.188-.547-.547-.344-.828.281-.375.844.031.953.125.453.328.547.672.328 1.015-.062.094-.062.11.063.204.14.109.156.093.265-.047l.344-.485c.078-.11.125-.156.016-.234-.016-.016-.031-.031-.375-.094-.078-.187-.25-.375-.485-.547-.187-.125-1.109-.797-1.687-.015a.779.779 0 0 0-.125.671c.094.375.297.579.688 1 .187.172.562.594.312.938-.344.453-.875.063-1-.031C.875.375 1.031-.187 1.156-.5c.032-.094 0-.125-.093-.188C.921-.78.89-.75.796-.609L.312.047C.234.157.189.203.297.266c.047.046.062.046.25.062H.78c.125.39.438.625.563.719.172.125 1.093.797 1.734-.063Zm0 0"/></symbol><symbol overflow="visible" id="aw"><path style="stroke:none" d="M2.906 3.156c.14-.11.078-.187.016-.265-.313-.36-.235-.422-.094-.547L4.11 1.266c.532-.438.547-1.188-.187-2.079C3.64-1.14 3-1.859 2.469-1.405c-.25.203-.188.531-.063.687.172.188.453.266.688.063a.579.579 0 0 0 .187-.39c.172.14.328.327.39.405.392.454.313.86-.124 1.235l-.203.172C2.954.359 1.625-1.11.766-.391.203.094.719.922 1.062 1.33c.407.484.875.562 1.235.484-.172.14-.453.375.062 1l.25.28c.094.126.157.188.297.063Zm-.312-1.75c-.578.469-1.125-.015-1.25-.156-.25-.313-.25-.719.015-.938.657-.546 1.532.329 1.797.61Zm0 0"/></symbol><symbol overflow="visible" id="ax"><path style="stroke:none" d="m1.266 1.953.312-.203-.297-.469 4.313-2.828-.813-1.125-.312.203c.281.422.297.453.031.625L.812.563.516.108.203.313l.578.812Zm0 0"/></symbol><symbol overflow="visible" id="ay"><path style="stroke:none" d="M3.531 3.203c.985-.469 1.39-1.5.813-2.703-.578-1.203-1.64-1.516-2.625-1.047C.797-.094.375.906.969 2.125c.61 1.234 1.656 1.516 2.562 1.078Zm-.36-.969c-.64.313-1.437.688-1.905-.25-.438-.921.359-1.296 1-1.609.328-.156.703-.344 1.015-.344.328.016.625.235.797.594.156.313.188.688.016.969-.157.265-.563.468-.922.64Zm0 0"/></symbol><symbol overflow="visible" id="az"><path style="stroke:none" d="m1.39 4.969.376-.11-.157-.562 2.094-.578c.844-.235 1.031-.766.797-1.578-.203-.766-.781-1.079-1.266-1.157l.875-.25L3.656-.64l-.375.11c.14.5.156.562-.156.656l-2.5.688L.469.25.094.36l.328 1.015.25 1.016.375-.11-.156-.547 1.687-.468c.89-.25 1.469.328 1.61.843.078.266-.047.485-.657.657l-2.187.609-.157-.547-.375.11.313.984Zm0 0"/></symbol><symbol overflow="visible" id="aA"><path style="stroke:none" d="M3.828 4.453c.188-.016.469-.187.422-.578 0-.125-.063-.531-.39-.89.078-.157.234-.532.187-1.157C3.937.61 3.219.203 2.609.25a1.16 1.16 0 0 0-.843.516A1.208 1.208 0 0 0 .984.562C.86.563.438.641.204 1 .155.906-.079.297-.61.344c-.438.031-1.047.562-.891 2.25.14 1.515.703 2.14 1.313 2.094.25-.032.78-.141 1.015-.75.188-.5.14-1.016.078-1.829C.875 1.875.844 1.5.86 1.47a.546.546 0 0 1 .5-.532c.079-.015.204.032.297.063a1.931 1.931 0 0 0-.14 1.047c.109 1.234.796 1.656 1.39 1.594.406-.032.672-.282.797-.422.172.25.203.422.235.515-.063 0-.141-.015-.188-.015-.219.031-.36.172-.344.39.031.22.203.375.422.344Zm-1-1.766c-.375.032-.937.094-1-.656-.078-.734.484-.797.86-.828.39-.031.968-.078 1.046.656.063.75-.515.797-.906.829Zm-3.11 1.266c-.312.031-.796-.265-.905-1.39-.094-1 .265-1.454.656-1.485.515-.047.562.484.578.61l.078.984c.031.265.125 1.234-.406 1.281Zm0 0"/></symbol><symbol overflow="visible" id="aB"><path style="stroke:none" d="M.672 5.688c1.156.28 2.172-.297 2.484-1.547.156-.672 0-1.188-.11-1.422l.423.11.312-1.579-.406-.11c-.125.548-.14.61-.484.532L-1.5.609-1.36 0l-.406-.094-.25 1.11-.28 1.093.405.094.141-.61 1.61.391c-.391.313-.547.672-.641 1.032-.313 1.312.25 2.375 1.453 2.671Zm.265-1.11C-.28 4.281-.577 3.578-.438 3c.016-.125.126-.531.688-.813.125-.078.125-.078.297-.03l1.86.437c.155.047.155.062.25.219.28.453.218.906.171 1.078-.14.593-.797.953-1.89.687Zm0 0"/></symbol><symbol overflow="visible" id="aC"><path style="stroke:none" d="M-2.016 4.656c.188.094.25-.015.297-.125.235-.484.344-.422.532-.343l1.78.875c.735.359 1.563.015 2.157-1.22.234-.468.703-1.5-.031-1.843-.375-.188-.672.031-.781.25-.125.266-.079.625.28.797.25.11.438.015.485 0-.062.25-.187.515-.234.625-.297.61-.781.734-1.406.437L.78 3.97c.266-.61 1.203-2.735 0-3.313-.797-.39-1.453.563-1.719 1.125-.328.657-.156 1.235.079 1.578-.25-.125-.625-.312-1.032.547l-.203.39c-.078.173-.125.266.078.36ZM-.25 3.47c-.813-.39-.547-1.188-.438-1.406.204-.422.641-.61 1.016-.438.875.422.375 1.781.188 2.219Zm0 0"/></symbol><symbol overflow="visible" id="aD"><path style="stroke:none" d="m-1.188 3.563.391.296.266-.343-.39-.297c-.5-.36-.5-.75-.36-.953.328-.438.828-.079.984.046l2.094 1.532-.813 1.094.344.265.813-1.094 1.437 1.047.266-.36c-.75-.562-1.235-1.468-.703-2.25l-.266-.187-.453.625L.359 1.47c-.812-.594-1.468-.063-1.843.468-.438.579-.25 1.22.296 1.625Zm0 0"/></symbol><symbol overflow="visible" id="aE"><path style="stroke:none" d="m-4.36 3.938.298.328.484-.438 1.672 1.844c.672.75 1.312.672 2.015.031.688-.625.672-1.344.594-1.766l2.172 2.407 1.203-1.188-.312-.328c-.422.39-.485.438-.735.156L-.516 1.063-.03.625-.328.297l-.875.812-.906.797.296.328.485-.437L.016 3.28c.703.766.421 1.672-.032 2.078-.25.22-.515.204-1.015-.343l-1.735-1.922.485-.438-.297-.328-.875.828Zm0 0"/></symbol><symbol overflow="visible" id="aF"><path style="stroke:none" d="M1.11 6.578c.202.328.671.406 1.03.188.344-.22.5-.672.297-1-.03-.047-.046-.079-.109-.141L.047 2.875c-.156-.188-.172-.219-.344-.11-.156.094-.172.141-.11.313l1.47 3.39Zm-2.813-4.625a.76.76 0 0 0 1.047.25.775.775 0 0 0 .25-1.047C-.641.796-1.11.672-1.453.891a.765.765 0 0 0-.25 1.062Zm0 0"/></symbol><symbol overflow="visible" id="aG"><path style="stroke:none" d="m-1.719 1.172.078.281.25-.078-.078-.266c-.11-.343 0-.484.157-.53.28-.095.375.234.406.327l.406 1.39-.734.22.078.218.734-.218.281.953.235-.063C-.063 2.922.047 2.344.53 2.187L.47 2.017l-.406.125L-.329.766C-.5.234-.953.25-1.312.359c-.375.11-.516.454-.407.813Zm0 0"/></symbol><symbol overflow="visible" id="aH"><path style="stroke:none" d="M-2.5 1.094c.016.093.125.078.14.078.094-.016.11-.047.126-.14.046-.25.328-.485.671-.548.75-.14.875.547.938.829l-1.594.296c-.11.016-.172.032-.156.172.031.157.14.547.453.766.234.14.531.187.906.125.844-.156 1.188-.797 1.063-1.453C-.078.5-.688.094-1.547.266c-.828.14-.969.734-.953.828Zm.64.625 1.266-.235c.016.204.063.422-.015.641a.66.66 0 0 1-.454.36c-.625.109-.765-.594-.796-.766Zm0 0"/></symbol><symbol overflow="visible" id="aI"><path style="stroke:none" d="m-3.266.203.016.266.406-.031 1 1.062-.61.75c-.062.094-.093.14-.562.172l.016.265.516-.062.578-.016-.016-.265a.36.36 0 0 1-.219-.031c.032-.047.032-.047.032-.079l.437-.546.594.609-.219.015.016.266.672-.078H0l-.016-.266-.39.016-.938-.969.688-.86c.078-.124.281-.124.547-.14L-.125.016l-.516.046-.562.016.016.266c.093-.016.203.015.203.047l-.032.046-.5.641-.671-.672.218-.015-.015-.266-.672.063Zm0 0"/></symbol><symbol overflow="visible" id="aJ"><path style="stroke:none" d="m-2.25.594-.016.297.266.015.016-.281c.03-.406.218-.531.375-.516.343.016.328.375.312.516l-.094 1.594-.843-.047-.016.265.844.047-.063 1.11.266.015c.031-.578.375-1.14.937-1.109v-.203l-.468-.031.093-1.579c.047-.625-.453-.78-.875-.812-.437-.016-.703.297-.734.719Zm0 0"/></symbol><symbol overflow="visible" id="aK"><path style="stroke:none" d="M-3.125-.188c-.031.11.078.141.11.157.093.031.109 0 .171-.078.235-.25.61-.344 1-.235.828.25.61 1.047.532 1.344L-3.095.469c-.14-.031-.203-.063-.265.11-.047.171-.141.624.062 1.015.172.281.453.484.86.61.937.28 1.64-.204 1.859-.938.234-.782-.188-1.532-1.14-1.813-.938-.281-1.376.266-1.407.36Zm.328.97 1.422.421c-.094.234-.156.484-.36.625-.234.188-.484.203-.64.156-.703-.203-.469-1-.422-1.203Zm0 0"/></symbol><symbol overflow="visible" id="aL"><path style="stroke:none" d="M-4.11 2.469c-.109.25-.015.594.438.797.578.25 1.313.28 1.594-.375l.265-.594.438.187.11-.265-.438-.188.89-2.062.407.172.125-.266-.735-.297a9.423 9.423 0 0 1-.796-.375l-.125.266.5.219-.891 2.062L-3 1.453l-.11.266.704.312-.266.594c-.281.64-.734.5-.89.438l-.094-.047c.125-.016.219-.11.265-.235.11-.234-.046-.453-.203-.515a.384.384 0 0 0-.515.203Zm0 0"/></symbol><symbol overflow="visible" id="aM"><path style="stroke:none" d="M-4.469 2.11c-.14.25-.078.609.36.859.562.312 1.312.437 1.687-.219l.313-.578.421.234.157-.265-.422-.235L-.828-.109l.406.218.156-.265L-1-.546c-.219-.126-.578-.329-.781-.454l-.157.266.485.265-1.125 2.016-.656-.36-.157.266.704.39-.313.579c-.36.64-.828.437-.984.36-.016-.016-.047-.032-.094-.079a.432.432 0 0 0 .312-.203c.141-.25-.015-.469-.171-.547-.172-.11-.407-.078-.532.156Zm0 0"/></symbol><symbol overflow="visible" id="aN"><path style="stroke:none" d="M-3.156-1.36c-.078.094.031.173.047.188.093.063.14.047.234-.016.313-.171.75-.109 1.094.157.765.562.25 1.297.031 1.578L-3.406-.688c-.11-.093-.172-.125-.266.016-.14.172-.39.578-.312 1.063.046.343.25.671.625.953.859.64 1.765.437 2.265-.235.563-.75.407-1.671-.468-2.328-.86-.64-1.532-.25-1.594-.14Zm-.031 1.11 1.312.969c-.172.203-.36.422-.594.515a.761.761 0 0 1-.734-.093c-.64-.485-.125-1.204.015-1.391Zm0 0"/></symbol><symbol overflow="visible" id="aO"><path style="stroke:none" d="M-2.906-1.813c-.078.079-.016.141.047.188.078.094.078.094.187.047.438-.172.766-.047 1.016.219.672.687-.063 1.421-.282 1.64-.28.266-.937.906-1.562.266-.172-.172-.234-.281-.281-.36.156.016.281-.093.328-.14a.405.405 0 0 0 .015-.594c-.156-.156-.421-.219-.624-.015-.422.421.093 1.015.375 1.312.874.89 1.812.703 2.39.14.656-.64.688-1.578-.062-2.359-.797-.797-1.516-.375-1.547-.343Zm0 0"/></symbol><symbol overflow="visible" id="aP"><path style="stroke:none" d="m-2.313-1.703-.312.219.188.265.296-.203c.391-.281.672-.203.782-.031.25.328-.11.594-.25.703L-3.22.39l-.625-.843-.265.203.625.844-1.11.797.188.28c.562-.405 1.375-.546 1.797.016l.203-.156-.328-.468 1.609-1.141c.61-.453.36-1.063.063-1.469-.329-.453-.829-.469-1.25-.156Zm0 0"/></symbol><symbol overflow="visible" id="aQ"><path style="stroke:none" d="M-2.344-2.25c-.265.156-.422.422-.5.734-.047.344.016.579.203 1.125.079.282.235.75-.078.907C-3.125.734-3.438.125-3.5 0c-.266-.5-.203-.86.14-1.078.094-.047.126-.078.047-.219-.078-.14-.109-.125-.265-.047l-.516.282c-.125.062-.187.093-.125.203.016.015.016.03.282.234 0 .203.078.453.203.719.109.187.64 1.203 1.5.75.265-.14.39-.36.421-.547.079-.39 0-.656-.171-1.203-.094-.25-.25-.781.125-.985.5-.265.812.329.89.47C-.609-.72-1-.282-1.25-.063c-.078.078-.063.109 0 .203.078.156.11.14.266.062l.718-.375c.125-.078.188-.094.125-.203-.03-.063-.03-.063-.218-.156l-.188-.11c.047-.421-.125-.75-.187-.89-.11-.188-.641-1.203-1.61-.719Zm0 0"/></symbol><symbol overflow="visible" id="aR"><path style="stroke:none" d="M-.953-4.203c-.172.031-.156.14-.14.234.062.469-.032.485-.204.531l-1.656.297c-.672.125-1.047.75-.844 1.891.078.438.281 1.375.953 1.25a.461.461 0 0 0 .375-.563c-.031-.25-.234-.437-.547-.39a.537.537 0 0 0-.359.234 2.335 2.335 0 0 1-.156-.547c-.094-.578.187-.906.75-1l.265-.046c.125.515.547 2.468 1.657 2.265.734-.14.703-1.125.593-1.64-.109-.625-.484-.907-.828-1.016.219-.047.578-.11.438-.906l-.078-.375c-.016-.157-.032-.25-.22-.22ZM-1.547-2.5c.734-.125.953.563.984.75.079.39-.125.734-.468.797-.828.14-1.157-1.031-1.235-1.406Zm0 0"/></symbol><symbol overflow="visible" id="aS"><path style="stroke:none" d="m-.063-2.328-.374.015.015.547-5.156.141.094 1.406h.375c-.016-.5-.016-.547.296-.562l4.407-.125.015.547.375-.016-.062-.984Zm0 0"/></symbol><symbol overflow="visible" id="aT"><path style="stroke:none" d="M-1.125-4.64c-1.078-.157-2 .468-2.188 1.78-.203 1.329.5 2.172 1.579 2.329C-.72-.375.187-.97.39-2.312c.203-1.36-.516-2.172-1.516-2.329Zm-.234 1c.718.109 1.578.234 1.421 1.28-.156 1.016-1.015.891-1.734.782-.344-.047-.766-.11-1.016-.281-.28-.204-.406-.563-.343-.954.047-.343.219-.671.547-.812.296-.125.75-.063 1.125-.016Zm0 0"/></symbol><symbol overflow="visible" id="aU"><path style="stroke:none" d="m2.016-4.75-.36-.156-.234.531-2-.844c-.813-.343-1.281-.047-1.61.735-.312.734-.046 1.328.266 1.703l-.844-.36-.5 1.344.36.156c.203-.468.234-.53.531-.406L.015-1.03-.218-.5l.36.156.39-1L.97-2.28l-.36-.156-.218.53-1.61-.687a1.279 1.279 0 0 1-.734-1.672c.11-.265.344-.359.937-.109l2.079.875-.235.531.36.156.375-.968Zm0 0"/></symbol><symbol overflow="visible" id="aV"><path style="stroke:none" d="M.25-5.875c-.156-.11-.484-.172-.734.14a1.436 1.436 0 0 0-.297.923c-.172.062-.547.218-.922.703-.766.984-.516 1.78-.031 2.156.265.203.64.281.968.187.094.36.282.579.422.704.11.078.453.296.875.203C.5-.766.266-.156.671.17 1.017.438 1.813.454 2.86-.89c.938-1.203.954-2.03.47-2.406-.204-.156-.657-.422-1.25-.14-.485.218-.798.624-1.298 1.265-.14.188-.39.5-.406.531-.281.25-.61.125-.734.032a.572.572 0 0 1-.157-.25c.407-.157.688-.516.829-.688.75-.969.515-1.75.046-2.11a1.25 1.25 0 0 0-.875-.234c.047-.28.141-.437.188-.515a.893.893 0 0 0 .125.11c.172.14.375.124.516-.048.14-.172.109-.39-.063-.531Zm-.484 1.984c.296.235.75.579.296 1.157-.468.593-.921.25-1.218.015-.313-.25-.766-.594-.297-1.187.453-.578.906-.235 1.219.015ZM2.89-2.687c.25.187.406.718-.282 1.609-.625.797-1.187.906-1.484.672-.406-.328-.078-.75 0-.86l.61-.78c.156-.204.75-.97 1.156-.642Zm0 0"/></symbol><symbol overflow="visible" id="aW"><path style="stroke:none" d="M3.875-4.234c-.547-1.047-1.656-1.438-2.797-.86-.61.313-.906.782-1.016 1.016l-.203-.39-1.375.78.188.376c.5-.25.547-.282.703.03L1.438.735l-.547.282.203.375 1-.532 1.015-.5-.203-.375-.562.282-.75-1.485c.484.11.875.016 1.203-.156 1.187-.625 1.64-1.75 1.078-2.86Zm-1.016.515c.579 1.125.235 1.844-.296 2.11-.11.062-.485.25-1.063-.016-.156-.063-.156-.063-.234-.219L.406-3.53C.328-3.687.344-3.687.391-3.86c.156-.485.546-.75.718-.829.547-.28 1.235-.03 1.75.97Zm0 0"/></symbol><symbol overflow="visible" id="aX"><path style="stroke:none" d="M4.938-1.219c-.047-.203-.172-.187-.297-.156-.532.11-.547-.016-.594-.219l-.39-1.953c-.157-.797-.938-1.25-2.282-.969-.5.094-1.594.344-1.438 1.141.079.406.438.5.688.453.266-.062.531-.281.453-.672C1.031-3.859.828-3.969.781-4c.25-.094.531-.172.64-.188.673-.14 1.079.172 1.204.844l.063.313c-.626.156-2.891.703-2.626 2.015.172.86 1.313.797 1.922.688.735-.156 1.079-.625 1.204-1.031.062.28.14.687 1.078.5l.421-.079c.188-.046.297-.062.25-.28ZM2.921-1.89c.172.86-.64 1.141-.875 1.188-.453.094-.875-.14-.953-.547-.188-.953 1.203-1.375 1.656-1.484Zm0 0"/></symbol><symbol overflow="visible" id="aY"><path style="stroke:none" d="m3.625-1.016.016-.5-.438-.015-.015.484c-.032.625-.344.844-.594.844-.547-.031-.531-.64-.516-.844l.094-2.594 1.36.063.03-.438-1.359-.062.063-1.781-.438-.016c-.047.938-.547 1.844-1.469 1.844l-.015.328.765.015-.093 2.563C.969-.125 1.78.141 2.437.156c.72.032 1.157-.5 1.188-1.172Zm0 0"/></symbol><symbol overflow="visible" id="aZ"><path style="stroke:none" d="m5.531 1.969.157-.422-.61-.219L5.906-1c.344-.953-.031-1.469-.922-1.781-.875-.313-1.515.031-1.843.312L4.234-5.53 2.61-6.047l-.14.438c.547.203.625.234.484.578L1.188-.047.563-.28.405.14l1.156.375 1.11.437.156-.422-.61-.219.673-1.89c.343-.969 1.265-1.125 1.843-.922.297.11.422.344.172 1.031L4.046.97 3.423.75l-.156.422 1.156.375Zm0 0"/></symbol><symbol overflow="visible" id="ba"><path style="stroke:none" d="M5.625-3.563c.234-.328.125-.796-.219-1.03-.328-.25-.797-.204-1.031.124-.016.032-.047.063-.078.157L2.625-1.142c-.094.204-.125.235.031.36.156.11.219.094.344-.047l2.547-2.656ZM2.453.814A.77.77 0 0 0 2.266-.25c-.329-.25-.797-.156-1.032.188A.764.764 0 0 0 1.375 1 .791.791 0 0 0 2.453.812Zm0 0"/></symbol><symbol overflow="visible" id="bb"><path style="stroke:none" d="m1.594 1.344.234-.14-.125-.22-.219.141c-.312.188-.515.125-.593-.016-.157-.25.14-.421.234-.484l1.219-.766.406.657.203-.125-.406-.657.844-.515-.125-.203c-.438.265-1.016.328-1.297-.11L1.812-1l.22.36L.827.11C.344.405.484.86.688 1.171c.203.328.578.375.906.172Zm0 0"/></symbol><symbol overflow="visible" id="bc"><path style="stroke:none" d="M1.625 2.188c.078-.032.031-.126.031-.141-.047-.094-.062-.094-.156-.078-.281-.016-.563-.235-.688-.547-.296-.703.344-.969.61-1.078l.625 1.484c.047.11.078.156.203.094.156-.063.5-.234.64-.594.11-.266.079-.562-.062-.906-.344-.781-1.047-1-1.656-.734-.656.28-.922.968-.578 1.78.328.782.937.766 1.031.72Zm.453-.75-.5-1.172c.203-.063.406-.157.625-.125.235.03.39.218.453.359.235.578-.406.875-.578.938Zm0 0"/></symbol><symbol overflow="visible" id="bd"><path style="stroke:none" d="m.703 3.188.266-.063-.078-.39.875-1.141.843.468c.094.063.141.079.25.532l.25-.063-.14-.484-.094-.578-.25.062a.59.59 0 0 1 0 .235c-.063-.032-.063-.032-.094-.032l-.594-.359.5-.672.047.219.25-.063-.171-.64-.11-.61-.25.063.094.375-.828 1.078L.516.594C.39.516.344.313.296.063L.032.124l.125.5.11.547.265-.063C.5 1.016.516.906.531.891l.063.046.703.391-.547.766-.047-.219-.265.063.156.656Zm0 0"/></symbol><symbol overflow="visible" id="be"><path style="stroke:none" d="m.813 2.172.296-.016-.015-.265-.282.015c-.406.016-.53-.172-.546-.328 0-.344.359-.36.5-.36l1.593-.062.032.844.265-.016-.031-.843 1.11-.047-.016-.266C3.14.844 2.547.578 2.5.016L2.297.03 2.328.5.75.563c-.625.03-.734.53-.719.953.016.437.36.671.781.656Zm0 0"/></symbol><symbol overflow="visible" id="bf"><path style="stroke:none" d="M-.25 3.125c.094.031.125-.078.14-.11.032-.109.016-.124-.062-.187-.234-.219-.344-.61-.219-1C-.125 1.016.688 1.25.984 1.36L.406 3.125c-.047.14-.062.203.094.25.188.063.625.172 1.016-.031.28-.172.484-.453.609-.844.313-.938-.14-1.64-.86-1.89C.47.36-.28.75-.593 1.702c-.297.922.25 1.39.344 1.422Zm.953-.297.469-1.406c.219.078.469.156.61.344.187.234.187.5.14.671-.219.672-1 .438-1.219.391Zm0 0"/></symbol><symbol overflow="visible" id="bg"><path style="stroke:none" d="M2.047 4.328c.234.125.61.078.86-.36.296-.546.39-1.28-.235-1.624l-.563-.313.235-.422-.25-.14-.235.422L-.094.797.11.407-.156.265l-.375.703c-.11.203-.313.578-.438.765l.266.141.265-.484 1.954 1.093-.36.641.25.14.39-.671.563.312c.61.344.438.797.344.938-.015.031-.031.062-.062.078-.016-.125-.094-.203-.204-.266-.218-.14-.437-.015-.515.14-.094.157-.094.392.125.532Zm0 0"/></symbol><symbol overflow="visible" id="bh"><path style="stroke:none" d="M1.375 4.75c.234.172.61.188.938-.219.39-.5.609-1.25.03-1.718l-.515-.407.297-.375-.25-.203-.297.375L-.219.781.062.437-.188.25l-.5.656c-.156.203-.421.531-.578.703l.25.188.344-.438 1.797 1.422-.469.578.25.204.5-.626.516.407c.578.453.312.89.203 1.031-.016.031-.031.047-.078.063a.402.402 0 0 0-.172-.313.39.39 0 0 0-.563.063.389.389 0 0 0 .063.562Zm0 0"/></symbol><symbol overflow="visible" id="bi"><path style="stroke:none" d="M-2.047 2.75c.078.094.172.016.188 0 .093-.078.078-.11.03-.219-.077-.344.079-.75.407-1.031.734-.61 1.313.047 1.547.328l-1.578 1.328c-.11.094-.156.125-.047.25.14.172.469.531.953.578.344.032.703-.109 1.063-.406.828-.703.828-1.61.296-2.265C.22.609-.718.546-1.546 1.234c-.828.704-.578 1.422-.5 1.516Zm1.063.297L.266 2c.156.219.328.438.359.688a.798.798 0 0 1-.266.703c-.609.5-1.187-.172-1.343-.344Zm0 0"/></symbol><symbol overflow="visible" id="bj"><path style="stroke:none" d="M-2.656 2.172c.047.078.125.031.203 0 .11-.063.11-.063.094-.14-.016-.485.203-.75.53-.907.876-.406 1.329.516 1.454.797.172.36.563 1.172-.25 1.562-.219.094-.328.141-.422.157a.446.446 0 0 0-.016-.36C-1.188 3-1.469 3-1.64 3.078c-.187.094-.328.313-.203.578.266.547 1 .235 1.375.063C.656 3.188.781 2.234.437 1.5.031.672-.843.344-1.828.812c-1.016.485-.844 1.313-.828 1.36Zm0 0"/></symbol><symbol overflow="visible" id="bk"><path style="stroke:none" d="m-2.484 1.422.062.36.313-.063-.063-.344c-.11-.484.094-.688.297-.719.39-.094.484.344.516.516l.406 1.922-1.031.219.062.343 1.031-.219.282 1.329.343-.063c-.14-.687.063-1.469.735-1.625l-.047-.265-.563.124-.406-1.921C-.703.266-1.344.234-1.859.328c-.532.11-.735.578-.625 1.094Zm0 0"/></symbol><symbol overflow="visible" id="bl"><path style="stroke:none" d="M-3.094.938c-.015.312.14.578.375.796.281.22.531.282 1.094.391.266.047.75.14.75.484-.016.47-.703.454-.844.454-.562-.016-.843-.25-.86-.657 0-.11-.015-.14-.171-.14-.172-.016-.172.015-.172.187l-.015.594c-.016.14-.016.203.109.203.031.016.047.016.344-.125.187.11.437.156.734.172.219 0 1.36.031 1.39-.938a.726.726 0 0 0-.28-.625c-.282-.265-.563-.312-1.126-.437-.265-.047-.796-.172-.796-.594.03-.562.703-.547.859-.531.781.016.953.578 1.031.89.047.11.078.11.188.11.171 0 .171-.047.171-.219L-.28.141c0-.141 0-.203-.125-.203-.063 0-.078 0-.235.109l-.187.11a1.559 1.559 0 0 0-.875-.25c-.219-.016-1.36-.048-1.39 1.03Zm0 0"/></symbol><symbol overflow="visible" id="bm"><path style="stroke:none" d="M-3.594-2.375c-.11.14-.015.219.063.266.375.28.312.359.203.515l-.985 1.36c-.39.546-.234 1.28.704 1.953.359.265 1.14.797 1.546.25a.497.497 0 0 0-.109-.688c-.203-.14-.484-.14-.672.11a.492.492 0 0 0-.094.421 3.796 3.796 0 0 1-.484-.312c-.484-.344-.5-.766-.172-1.219l.156-.219c.485.297 2.11 1.407 2.766.5.438-.609-.25-1.28-.672-1.593-.515-.375-.984-.328-1.312-.172.125-.188.344-.484-.313-.953l-.312-.219c-.125-.094-.203-.156-.313 0Zm.735 1.64C-2.406-1.343-1.766-1-1.625-.89c.328.25.422.641.219.922-.485.672-1.547.047-1.875-.172Zm0 0"/></symbol><symbol overflow="visible" id="bn"><path style="stroke:none" d="m-1.39-1.86-.298.22.329.437L-5.5 1.89l.89 1.078.313-.219c-.297-.406-.328-.438-.078-.625l3.531-2.64.328.437.297-.219-.625-.781Zm0 0"/></symbol><symbol overflow="visible" id="bo"><path style="stroke:none" d="M-3.078-3.64c-1.047.343-1.594 1.328-1.172 2.593C-3.828.22-2.812.656-1.766.313c.954-.329 1.5-1.266 1.079-2.547-.438-1.313-1.438-1.72-2.391-1.407Zm.234 1.015c.688-.234 1.516-.5 1.844.5.328.969-.5 1.234-1.188 1.469-.343.11-.734.25-1.046.203-.329-.063-.61-.313-.735-.688-.11-.328-.094-.703.125-.984.203-.234.625-.375 1-.5Zm0 0"/></symbol><symbol overflow="visible" id="bp"><path style="stroke:none" d="m.828-5.094-.39-.062-.094.578-2.14-.344c-.86-.156-1.25.234-1.391 1.078a1.593 1.593 0 0 0 .656 1.594l-.89-.14-.173 1.421.39.063c.079-.5.095-.563.423-.516L-.234-1l-.094.563.39.062.141-1.047.203-1.031-.39-.063-.094.579-1.719-.282c-.906-.156-1.203-.937-1.11-1.453.048-.281.235-.437.86-.328l2.235.36-.094.578.39.062.141-1.047Zm0 0"/></symbol><symbol overflow="visible" id="bq"><path style="stroke:none" d="M.86-5.797c-.126-.14-.438-.234-.72.047-.078.094-.343.39-.406.875-.171.047-.562.156-1 .61-.859.89-.687 1.702-.25 2.124.25.25.61.36.938.313.062.36.219.594.36.719.077.093.421.359.843.296-.063.11-.36.688.031 1.047C.97.547 1.75.641 2.937-.578c1.047-1.094 1.157-1.922.72-2.344-.173-.172-.626-.5-1.22-.281-.5.187-.859.562-1.421 1.14-.157.172-.438.454-.47.454a.545.545 0 0 1-.718-.016.535.535 0 0 1-.14-.281c.421-.125.734-.422.89-.578.86-.891.703-1.688.266-2.11-.281-.281-.64-.312-.828-.312.078-.297.187-.422.234-.516.031.047.078.125.11.156.156.141.359.141.515-.015a.342.342 0 0 0-.016-.516Zm-.672 1.89c.28.266.687.673.156 1.204-.516.547-.922.14-1.203-.125-.282-.266-.688-.672-.172-1.219.531-.531.937-.125 1.218.14Zm3 1.532c.218.219.312.766-.47 1.578-.702.735-1.28.766-1.562.5-.375-.36 0-.734.078-.828l.704-.719c.187-.187.859-.89 1.25-.531Zm0 0"/></symbol></defs><path style="fill:none;stroke-width:.09962;stroke-linecap:butt;stroke-linejoin:miter;stroke:gray;stroke-opacity:1;stroke-miterlimit:10" d="M-56.694.001c0 23.48 19.039 42.52 42.52 42.52 21.917 0 39.687-17.77 39.687-39.688 0-20.351-16.5-36.851-36.852-36.851-18.785 0-34.015 15.23-34.015 34.02 0 17.218 13.96 31.179 31.18 31.179 15.656 0 28.347-12.692 28.347-28.348 0-14.09-11.422-25.511-25.512-25.511-12.523 0-22.68 10.152-22.68 22.68 0 10.956 8.887 19.843 19.844 19.843 9.395 0 17.008-7.617 17.008-17.012 0-7.828-6.344-14.172-14.172-14.172-6.261 0-11.34 5.078-11.34 11.34a8.506 8.506 0 0 0 8.504 8.504" transform="matrix(1 0 0 -1 60.827 48.259)"/><use xlink:href="#a" x="4.119" y="48.258" style="fill:#000;fill-opacity:1"/><use xlink:href="#b" x="4.173" y="45.942" style="fill:#000;fill-opacity:1"/><use xlink:href="#c" x="4.409" y="43.113" style="fill:#000;fill-opacity:1"/><use xlink:href="#d" x="4.962" y="39.77" style="fill:#000;fill-opacity:1"/><use xlink:href="#e" x="6.192" y="35.053" style="fill:#000;fill-opacity:1"/><use xlink:href="#f" x="7.336" y="32.005" style="fill:#000;fill-opacity:1"/><use xlink:href="#g" x="8.246" y="29.958" style="fill:#000;fill-opacity:1"/><use xlink:href="#h" x="9.279" y="27.89" style="fill:#000;fill-opacity:1"/><use xlink:href="#i" x="11.122" y="24.828" style="fill:#000;fill-opacity:1"/><use xlink:href="#j" x="13.217" y="21.942" style="fill:#000;fill-opacity:1"/><use xlink:href="#k" x="15.294" y="19.496" style="fill:#000;fill-opacity:1"/><use xlink:href="#l" x="19.83" y="15.195" style="fill:#000;fill-opacity:1"/><use xlink:href="#m" x="23.359" y="12.66" style="fill:#000;fill-opacity:1"/><use xlink:href="#n" x="25.507" y="11.288" style="fill:#000;fill-opacity:1"/><use xlink:href="#o" x="29.704" y="9.16" style="fill:#000;fill-opacity:1"/><use xlink:href="#p" x="34.745" y="7.355" style="fill:#000;fill-opacity:1"/><use xlink:href="#q" x="42.891" y="5.808" style="fill:#000;fill-opacity:1"/><use xlink:href="#r" x="48.607" y="5.704" style="fill:#000;fill-opacity:1"/><use xlink:href="#s" x="53.7" y="6.307" style="fill:#000;fill-opacity:1"/><use xlink:href="#t" x="57.802" y="7.203" style="fill:#000;fill-opacity:1"/><use xlink:href="#u" x="63.493" y="9.438" style="fill:#000;fill-opacity:1"/><use xlink:href="#v" x="69.721" y="13.107" style="fill:#000;fill-opacity:1"/><use xlink:href="#w" x="71.571" y="14.502" style="fill:#000;fill-opacity:1"/><use xlink:href="#x" x="73.723" y="16.354" style="fill:#000;fill-opacity:1"/><use xlink:href="#y" x="76.091" y="18.777" style="fill:#000;fill-opacity:1"/><use xlink:href="#z" x="79.147" y="22.576" style="fill:#000;fill-opacity:1"/><use xlink:href="#A" x="80.898" y="25.323" style="fill:#000;fill-opacity:1"/><use xlink:href="#B" x="81.98" y="27.285" style="fill:#000;fill-opacity:1"/><use xlink:href="#C" x="82.998" y="29.36" style="fill:#000;fill-opacity:1"/><use xlink:href="#D" x="84.295" y="32.69" style="fill:#000;fill-opacity:1"/><use xlink:href="#E" x="85.276" y="36.119" style="fill:#000;fill-opacity:1"/><use xlink:href="#F" x="85.9" y="39.267" style="fill:#000;fill-opacity:1"/><use xlink:href="#G" x="86.402" y="45.481" style="fill:#000;fill-opacity:1"/><use xlink:href="#H" x="86.102" y="49.816" style="fill:#000;fill-opacity:1"/><use xlink:href="#I" x="85.767" y="52.343" style="fill:#000;fill-opacity:1"/><use xlink:href="#J" x="84.617" y="56.909" style="fill:#000;fill-opacity:1"/><use xlink:href="#K" x="82.573" y="61.859" style="fill:#000;fill-opacity:1"/><use xlink:href="#L" x="78.091" y="68.836" style="fill:#000;fill-opacity:1"/><use xlink:href="#M" x="74.107" y="72.965" style="fill:#000;fill-opacity:1"/><use xlink:href="#N" x="70.039" y="76.089" style="fill:#000;fill-opacity:1"/><use xlink:href="#O" x="66.459" y="78.287" style="fill:#000;fill-opacity:1"/><use xlink:href="#P" x="60.781" y="80.555" style="fill:#000;fill-opacity:1"/><use xlink:href="#Q" x="53.71" y="82.054" style="fill:#000;fill-opacity:1"/><use xlink:href="#R" x="51.4" y="82.253" style="fill:#000;fill-opacity:1"/><use xlink:href="#S" x="48.574" y="82.304" style="fill:#000;fill-opacity:1"/><use xlink:href="#T" x="45.197" y="82.031" style="fill:#000;fill-opacity:1"/><use xlink:href="#U" x="40.413" y="81.091" style="fill:#000;fill-opacity:1"/><use xlink:href="#V" x="37.326" y="80.056" style="fill:#000;fill-opacity:1"/><use xlink:href="#W" x="35.261" y="79.187" style="fill:#000;fill-opacity:1"/><use xlink:href="#X" x="33.184" y="78.173" style="fill:#000;fill-opacity:1"/><use xlink:href="#Y" x="30.142" y="76.297" style="fill:#000;fill-opacity:1"/><use xlink:href="#Z" x="27.323" y="74.112" style="fill:#000;fill-opacity:1"/><use xlink:href="#aa" x="24.986" y="71.912" style="fill:#000;fill-opacity:1"/><use xlink:href="#ab" x="21.049" y="67.054" style="fill:#000;fill-opacity:1"/><use xlink:href="#ac" x="18.925" y="63.263" style="fill:#000;fill-opacity:1"/><use xlink:href="#ad" x="17.834" y="60.957" style="fill:#000;fill-opacity:1"/><use xlink:href="#ae" x="16.365" y="56.483" style="fill:#000;fill-opacity:1"/><use xlink:href="#af" x="15.51" y="51.195" style="fill:#000;fill-opacity:1"/><use xlink:href="#ag" x="15.795" y="42.916" style="fill:#000;fill-opacity:1"/><use xlink:href="#ah" x="17.312" y="37.377" style="fill:#000;fill-opacity:1"/><use xlink:href="#ai" x="19.519" y="32.745" style="fill:#000;fill-opacity:1"/><use xlink:href="#aj" x="21.785" y="29.202" style="fill:#000;fill-opacity:1"/><use xlink:href="#ak" x="26.035" y="24.806" style="fill:#000;fill-opacity:1"/><use xlink:href="#al" x="31.988" y="20.711" style="fill:#000;fill-opacity:1"/><use xlink:href="#am" x="34.068" y="19.687" style="fill:#000;fill-opacity:1"/><use xlink:href="#an" x="36.711" y="18.648" style="fill:#000;fill-opacity:1"/><use xlink:href="#ao" x="39.983" y="17.765" style="fill:#000;fill-opacity:1"/><use xlink:href="#ap" x="44.811" y="17.089" style="fill:#000;fill-opacity:1"/><use xlink:href="#aq" x="48.055" y="17.09" style="fill:#000;fill-opacity:1"/><use xlink:href="#ar" x="50.286" y="17.284" style="fill:#000;fill-opacity:1"/><use xlink:href="#as" x="52.572" y="17.639" style="fill:#000;fill-opacity:1"/><use xlink:href="#at" x="56.016" y="18.6" style="fill:#000;fill-opacity:1"/><use xlink:href="#au" x="59.3" y="19.997" style="fill:#000;fill-opacity:1"/><use xlink:href="#av" x="62.09" y="21.586" style="fill:#000;fill-opacity:1"/><use xlink:href="#aw" x="66.952" y="25.519" style="fill:#000;fill-opacity:1"/><use xlink:href="#ax" x="69.709" y="28.879" style="fill:#000;fill-opacity:1"/><use xlink:href="#ay" x="71.162" y="30.978" style="fill:#000;fill-opacity:1"/><use xlink:href="#az" x="73.24" y="35.21" style="fill:#000;fill-opacity:1"/><use xlink:href="#aA" x="74.661" y="40.378" style="fill:#000;fill-opacity:1"/><use xlink:href="#aB" x="74.959" y="48.666" style="fill:#000;fill-opacity:1"/><use xlink:href="#aC" x="73.573" y="54.243" style="fill:#000;fill-opacity:1"/><use xlink:href="#aD" x="71.291" y="58.842" style="fill:#000;fill-opacity:1"/><use xlink:href="#aE" x="68.87" y="62.292" style="fill:#000;fill-opacity:1"/><use xlink:href="#aF" x="64.253" y="66.302" style="fill:#000;fill-opacity:1"/><use xlink:href="#aG" x="57.816" y="69.574" style="fill:#000;fill-opacity:1"/><use xlink:href="#aH" x="55.594" y="70.242" style="fill:#000;fill-opacity:1"/><use xlink:href="#aI" x="52.805" y="70.779" style="fill:#000;fill-opacity:1"/><use xlink:href="#aJ" x="49.427" y="70.972" style="fill:#000;fill-opacity:1"/><use xlink:href="#aK" x="44.578" y="70.463" style="fill:#000;fill-opacity:1"/><use xlink:href="#aL" x="41.464" y="69.505" style="fill:#000;fill-opacity:1"/><use xlink:href="#aM" x="39.41" y="68.612" style="fill:#000;fill-opacity:1"/><use xlink:href="#aN" x="37.371" y="67.514" style="fill:#000;fill-opacity:1"/><use xlink:href="#aO" x="34.504" y="65.373" style="fill:#000;fill-opacity:1"/><use xlink:href="#aP" x="32.021" y="62.809" style="fill:#000;fill-opacity:1"/><use xlink:href="#aQ" x="30.137" y="60.206" style="fill:#000;fill-opacity:1"/><use xlink:href="#aR" x="27.573" y="54.501" style="fill:#000;fill-opacity:1"/><use xlink:href="#aS" x="26.859" y="50.213" style="fill:#000;fill-opacity:1"/><use xlink:href="#aT" x="26.682" y="47.662" style="fill:#000;fill-opacity:1"/><use xlink:href="#aU" x="27.335" y="42.976" style="fill:#000;fill-opacity:1"/><use xlink:href="#aV" x="29.463" y="38.043" style="fill:#000;fill-opacity:1"/><use xlink:href="#aW" x="35.058" y="31.902" style="fill:#000;fill-opacity:1"/><use xlink:href="#aX" x="40.202" y="29.313" style="fill:#000;fill-opacity:1"/><use xlink:href="#aY" x="45.25" y="28.347" style="fill:#000;fill-opacity:1"/><use xlink:href="#aZ" x="49.501" y="28.375" style="fill:#000;fill-opacity:1"/><use xlink:href="#ba" x="55.196" y="30.614" style="fill:#000;fill-opacity:1"/><use xlink:href="#bb" x="60.504" y="35.483" style="fill:#000;fill-opacity:1"/><use xlink:href="#bc" x="61.746" y="37.446" style="fill:#000;fill-opacity:1"/><use xlink:href="#bd" x="62.887" y="40.055" style="fill:#000;fill-opacity:1"/><use xlink:href="#be" x="63.589" y="43.373" style="fill:#000;fill-opacity:1"/><use xlink:href="#bf" x="63.476" y="48.249" style="fill:#000;fill-opacity:1"/><use xlink:href="#bg" x="62.424" y="51.334" style="fill:#000;fill-opacity:1"/><use xlink:href="#bh" x="61.334" y="53.295" style="fill:#000;fill-opacity:1"/><use xlink:href="#bi" x="59.942" y="55.16" style="fill:#000;fill-opacity:1"/><use xlink:href="#bj" x="57.186" y="57.46" style="fill:#000;fill-opacity:1"/><use xlink:href="#bk" x="53.946" y="58.978" style="fill:#000;fill-opacity:1"/><use xlink:href="#bl" x="50.794" y="59.645" style="fill:#000;fill-opacity:1"/><use xlink:href="#bm" x="44.59" y="58.715" style="fill:#000;fill-opacity:1"/><use xlink:href="#bn" x="41.151" y="56.047" style="fill:#000;fill-opacity:1"/><use xlink:href="#bo" x="39.464" y="54.061" style="fill:#000;fill-opacity:1"/><use xlink:href="#bp" x="37.83" y="49.513" style="fill:#000;fill-opacity:1"/><use xlink:href="#bq" x="38.824" y="44.126" style="fill:#000;fill-opacity:1"/></svg>