<svg xmlns="http://www.w3.org/2000/svg" width="29.316" height="7.515" viewBox="0 0 21.987 5.636" version="1.2"><defs><clipPath id="a"><path d="M2 0h19.98v5.453H2Zm0 0"/></clipPath></defs><path style="fill:none;stroke-width:.79701;stroke-linecap:butt;stroke-linejoin:miter;stroke:#000;stroke-opacity:1;stroke-miterlimit:10" d="M.001 2.211h13.09" transform="matrix(1 0 0 -1 1.002 4.84)"/><path style="stroke:none;fill-rule:nonzero;fill:#000;fill-opacity:1" d="M20.531 2.629c.23-.777-1.02-1.41-2.797-1.41-1.777 0-3.406.633-3.64 1.41-.235.777 1.02 1.41 2.793 1.41 1.777 0 3.41-.633 3.644-1.41Zm0 0"/><g clip-path="url(#a)"><path style="fill:none;stroke-width:.79701;stroke-linecap:butt;stroke-linejoin:miter;stroke:#000;stroke-opacity:1;stroke-miterlimit:10" d="M6.836 0c-.002.777-1.442 1.41-3.22 1.41C1.84 1.41.4.777.4 0 .398-.779 1.84-1.41 3.615-1.41c1.777 0 3.22.632 3.221 1.41Zm0 0" transform="matrix(1 0 .3 -1 13.695 2.628)"/></g></svg>