<svg xmlns="http://www.w3.org/2000/svg" xmlns:xlink="http://www.w3.org/1999/xlink" width="149.595" height="81.003" viewBox="0 0 112.196 60.752" version="1.2"><defs><clipPath id="b"><path d="M0 35h43v25.629H0Zm0 0"/></clipPath><symbol overflow="visible" id="a"><path style="stroke:none" d="M5.984-2.219c0-1.328-.906-2.265-2.343-2.265-.75 0-1.282.312-1.5.484v-.484l-1.766.078v.468c.61 0 .688 0 .688.376v5.03H.375v.47l1.25-.032 1.25.032v-.47h-.688V-.39A2.01 2.01 0 0 0 3.47.063c1.5 0 2.515-.907 2.515-2.282Zm-1.28 0C4.703-.813 4-.297 3.358-.297c-.14 0-.609 0-1.062-.547-.11-.125-.11-.14-.11-.328v-2.11c0-.187.016-.202.157-.343.39-.406.922-.469 1.14-.469.657 0 1.22.61 1.22 1.875Zm0 0"/></symbol></defs><path style="stroke:none;fill-rule:nonzero;fill:red;fill-opacity:1" d="M110.137 13.098a2.112 2.112 0 1 0-4.227 0c0 1.164.945 2.113 2.113 2.113 1.168 0 2.114-.95 2.114-2.113Zm0 0"/><use xlink:href="#a" x="104.839" y="5.332" style="fill:#000;fill-opacity:1"/><path style="stroke:none;fill-rule:nonzero;fill:gray;fill-opacity:1" d="m27.848 59.383 8.906-5.14-27.41-12.661-8.223 2.371Zm0 0"/><g clip-path="url(#b)"><path style="fill:none;stroke-width:.3985;stroke-linecap:butt;stroke-linejoin:miter;stroke:#000;stroke-opacity:1;stroke-miterlimit:10" d="m.002 0 8.906 5.14-27.41 12.661-8.223-2.371Zm0 0" transform="matrix(1 0 0 -1 27.846 59.383)"/></g><path style="fill-rule:nonzero;fill:gray;fill-opacity:1;stroke-width:.3985;stroke-linecap:butt;stroke-linejoin:miter;stroke:#000;stroke-opacity:1;stroke-miterlimit:10" d="m16.037 9.258 5.828 3.367-27.207 8.973-6.113-1.762ZM26.724 15.43l4.114 2.371-26.122 6.703-4.714-1.36ZM34.361 19.836l3.055 1.762-24.758 5.2-3.75-1.083ZM40.088 23.145l2.359 1.36-23.36 4.148-3.05-.88ZM44.54 25.715l1.876 1.082-22.016 3.39-2.535-.73ZM48.107 27.774l1.527.879-20.77 2.824-2.14-.617ZM51.021 29.457l1.27.73-19.625 2.384-1.828-.528ZM53.45 30.86l1.071.617-18.578 2.039-1.582-.453ZM55.506 32.043l.914.528-17.625 1.769-1.38-.398ZM57.271 33.063l.79.453-16.759 1.55-1.214-.351ZM58.795 33.942l.691.398-15.96 1.367-1.079-.312ZM60.134 34.715l.606.352-15.234 1.21-.961-.277ZM61.31 35.395l.54.312-14.567 1.086-.863-.25ZM62.361 36l.48.278-13.953.976-.78-.226ZM63.299 36.543l.433.25-13.387.883-.71-.207ZM64.142 37.028l.39.226-12.862.805-.649-.188ZM64.904 37.469l.355.207-12.375.73-.593-.168ZM65.6 37.871l.324.188-11.926.672-.547-.16ZM66.232 38.238l.297.168-11.504.622-.504-.149ZM66.814 38.57l.274.16-11.118.571-.464-.137ZM67.35 38.88l.25.148-10.747.527-.433-.125ZM67.841 39.164l.235.137-10.406.488-.399-.113ZM68.299 39.43l.214.125-10.078.457-.375-.11ZM68.724 39.676l.2.113-9.778.426-.351-.102ZM69.119 39.903l.187.109-9.492.398-.328-.097ZM69.486 40.113l.176.102-9.223.375-.305-.09ZM69.83 40.313l.168.097-8.969.348-.29-.082ZM70.154 40.5l.156.09-8.726.328-.274-.078ZM70.459 40.676l.144.082-8.496.313-.258-.075ZM70.744 40.84l.137.078-8.278.297-.242-.07ZM71.013 40.996l.13.075-8.071.277-.23-.067ZM71.267 41.145l.125.07-7.875.262-.218-.063ZM71.51 41.281l.117.067-7.688.25-.207-.059ZM71.736 41.414l.11.063-7.508.238-.196-.059ZM71.955 41.54l.101.058-7.336.226-.187-.054ZM72.158 41.656l.101.059-7.175.215-.18-.05ZM72.353 41.77l.098.054-7.02.207-.172-.05ZM72.54 41.88l.09.05-6.867.195-.164-.047ZM72.716 41.98l.09.051-6.726.188-.156-.047ZM72.888 42.078l.082.047-6.586.18-.152-.043ZM73.049 42.172l.078.047-6.453.172-.145-.043ZM73.205 42.262l.074.043-6.328.164-.137-.04ZM73.353 42.348l.07.043-6.203.156-.132-.039ZM73.494 42.43l.07.039-6.09.152-.125-.039ZM73.63 42.508l.067.04-5.973.144-.125-.036ZM73.763 42.582l.063.04-5.867.136-.118-.031ZM73.888 42.656l.063.036-5.762.132-.113-.03ZM74.01 42.727l.058.035-5.66.129-.11-.031ZM74.127 42.793l.054.031-5.562.125-.106-.027ZM74.236 42.86l.055.03-5.465.118-.102-.027ZM74.345 42.922l.055.027-5.379.118-.097-.028ZM74.45 42.98l.052.028-5.29.113-.093-.027ZM74.552 43.04l.047.027-5.203.109-.09-.027ZM74.646 43.094l.047.027-5.117.106-.09-.028ZM74.74 43.149l.047.027-5.04.102-.085-.028ZM74.83 43.2l.047.027-4.961.097-.086-.023ZM74.92 43.25l.043.028-4.887.093-.078-.023ZM75.006 43.301l.039.023-4.813.09-.078-.02ZM75.088 43.348l.039.023-4.743.09-.074-.023ZM75.166 43.395l.039.02-4.672.09-.074-.024ZM75.244 43.438l.035.023-4.605.082-.07-.02ZM75.318 43.48l.035.024-4.539.078-.07-.02ZM75.388 43.524l.04.02-4.481.077-.066-.02ZM75.459 43.563l.035.02-4.414.077-.067-.02ZM75.529 43.602l.035.02-4.36.074-.062-.016ZM75.595 43.64l.032.02-4.297.075-.063-.02ZM75.662 43.68l.031.016-4.242.074-.059-.02ZM75.724 43.715l.028.02-4.184.066-.059-.016ZM75.783 43.75l.031.016-4.133.07-.054-.02ZM75.841 43.785l.032.016-4.082.066-.055-.015ZM75.9 43.817l.027.02-4.027.062-.055-.016ZM75.959 43.852l.027.015-3.98.063-.051-.016ZM76.013 43.883l.024.016-3.93.058-.05-.015ZM76.064 43.914l.028.016-3.883.058-.051-.015ZM76.119 43.942l.023.015-3.836.059L72.26 44ZM76.17 43.973l.023.015-3.789.055-.05-.015ZM76.216 44l.028.016-3.75.055-.043-.016ZM76.267 44.028l.024.015-3.703.05-.047-.01ZM76.314 44.055l.024.016-3.664.05-.043-.011ZM76.357 44.082l.024.012-3.618.05-.043-.011ZM76.404 44.11l.023.011-3.582.051-.039-.012ZM76.447 44.133l.023.012-3.543.05-.039-.011ZM76.49 44.16l.023.012-3.504.047-.039-.012ZM76.533 44.184l.02.012-3.465.046-.04-.011ZM76.572 44.207l.023.012-3.43.043-.034-.012ZM76.615 44.23l.02.012-3.391.043-.04-.011ZM76.654 44.25l.02.012-3.356.043-.039-.008ZM76.69 44.274l.019.011-3.32.043-.036-.011ZM76.728 44.297l.02.008-3.29.043-.034-.012ZM76.763 44.317l.02.011-3.254.04-.035-.008ZM76.802 44.336l.016.012-3.219.039-.035-.008ZM76.838 44.36l.015.007-3.187.04-.035-.008ZM76.869 44.38l.02.007-3.157.039-.035-.008ZM76.904 44.399l.016.007-3.125.04-.032-.012ZM76.94 44.418l.015.008-3.098.035-.031-.008ZM76.97 44.434l.016.012-3.066.035-.032-.008ZM77.002 44.453l.015.008-3.039.035-.027-.008ZM77.033 44.473l.016.008-3.008.035-.032-.008ZM77.064 44.488l.016.008-2.985.035-.027-.007ZM77.091 44.508l.016.008-2.953.031-.027-.008Zm0 0" transform="matrix(1 0 0 -1 27.846 59.383)"/></svg>