<svg xmlns="http://www.w3.org/2000/svg" xmlns:xlink="http://www.w3.org/1999/xlink" width="148.713" height="147.459" viewBox="0 0 111.535 110.594" version="1.2"><defs><symbol overflow="visible" id="a"><path style="stroke:none" d="M5.516-.234c0-.235-.125-.235-.266-.235-.61-.015-.61-.14-.61-.375v-2.14c0-.891-.702-1.532-2.187-1.532-.562 0-1.781.047-1.781.922 0 .438.344.625.61.625.312 0 .624-.219.624-.625 0-.297-.187-.469-.218-.5a5.28 5.28 0 0 1 .718-.062c.75 0 1.11.422 1.11 1.172v.343c-.72.032-3.25.125-3.25 1.563C.266-.125 1.5.062 2.187.062c.797 0 1.266-.406 1.485-.828 0 .313 0 .766 1.047.766h.468c.204 0 .329 0 .329-.234Zm-2-1.157c0 .97-.922 1.094-1.172 1.094-.516 0-.906-.344-.906-.797 0-1.062 1.578-1.203 2.078-1.234Zm0 0"/></symbol><symbol overflow="visible" id="b"><path style="stroke:none" d="M5.984-2.219c0-1.328-.937-2.265-2.39-2.265-.719 0-1.219.28-1.453.484v-2.922l-1.766.078v.469c.61 0 .688 0 .688.39V0h.468c.157-.188.328-.375.485-.563.078.079.562.625 1.453.625 1.484 0 2.515-.906 2.515-2.28Zm-1.28 0c0 .469 0 1.016-.25 1.406-.298.407-.75.516-1.079.516-.688 0-1.078-.547-1.188-.687v-2.5c.282-.36.75-.641 1.297-.641 1.22 0 1.22 1.203 1.22 1.906Zm0 0"/></symbol><symbol overflow="visible" id="c"><path style="stroke:none" d="M4.766-1.172c0-.14-.141-.14-.235-.14-.187 0-.187.03-.25.156-.25.625-.734.812-1.234.812-1.39 0-1.39-1.453-1.39-1.922 0-.562 0-1.843 1.28-1.843.36 0 .516.015.657.046a.618.618 0 0 0-.203.47c0 .437.343.624.609.624.313 0 .64-.219.64-.625 0-.86-1.156-.922-1.734-.922C1.11-4.516.375-3.375.375-2.219.375-.89 1.313.062 2.844.062c1.625 0 1.922-1.156 1.922-1.234Zm0 0"/></symbol><symbol overflow="visible" id="d"><path style="stroke:none" d="M5.984 0v-.469c-.609 0-.687 0-.687-.39v-6.063l-1.766.078v.469c.625 0 .703 0 .703.39v1.954a2.178 2.178 0 0 0-1.359-.453c-1.453 0-2.5.875-2.5 2.28 0 1.313.922 2.267 2.39 2.267.61 0 1.094-.235 1.407-.485v.484ZM4.172-1.031c-.14.187-.547.734-1.297.734-1.219 0-1.219-1.203-1.219-1.906 0-.485 0-1.016.25-1.406.297-.422.766-.516 1.078-.516.563 0 .97.313 1.188.61Zm0 0"/></symbol><symbol overflow="visible" id="e"><path style="stroke:none" d="M4.922-1.172c0-.172-.188-.172-.234-.172-.172 0-.188.047-.25.203-.204.485-.782.797-1.422.797-1.407 0-1.422-1.328-1.422-1.828h3.015c.22 0 .313 0 .313-.265 0-.313-.063-1.047-.563-1.547-.359-.36-.89-.532-1.578-.532C1.187-4.516.312-3.484.312-2.25c0 1.344 1 2.313 2.61 2.313 1.578 0 2-1.063 2-1.235ZM3.984-2.5h-2.39c.015-.39.031-.813.234-1.14.266-.391.672-.516.953-.516 1.172 0 1.188 1.312 1.203 1.656Zm0 0"/></symbol><symbol overflow="visible" id="f"><path style="stroke:none" d="M4.36-6.11c0-.421-.36-.874-1.141-.874-.969 0-2.047.421-2.047 1.546v1.016h-.75v.469h.75V-.47H.484V0l1.25-.031c.375 0 1.016 0 1.375.031v-.469H2.25v-3.484h1.14v-.469H2.188v-1.016c0-1.093.75-1.187 1-1.187.047 0 .11 0 .172.031a.585.585 0 0 0-.234.485c0 .421.36.609.61.609.296 0 .624-.203.624-.61Zm0 0"/></symbol><symbol overflow="visible" id="g"><path style="stroke:none" d="M5.563-3.953c0-.235-.172-.578-.625-.578-.157 0-.625.031-1.063.375-.172-.125-.594-.328-1.328-.328-1.438 0-1.985.78-1.985 1.468 0 .407.188.829.516 1.047-.281.36-.344.688-.344.89 0 .157.047.641.438.954-.125.031-.86.25-.86.875C.313 1.25.875 2 2.86 2 4.625 2 5.406 1.422 5.406.719c0-.297-.078-.922-.75-1.266-.562-.281-1.156-.281-2.11-.281-.265 0-.718 0-.765-.016a.625.625 0 0 1-.562-.625c0-.093.047-.25.11-.328.452.234.968.266 1.218.266 1.437 0 1.984-.782 1.984-1.485 0-.468-.25-.796-.406-.953.297-.156.516-.172.625-.187a.433.433 0 0 0-.047.203c0 .25.172.422.438.422a.41.41 0 0 0 .421-.422Zm-2.141.937c0 .454 0 1.125-.875 1.125s-.875-.671-.875-1.125c0-.437 0-1.109.875-1.109s.875.672.875 1.11ZM4.547.75c0 .36-.39.89-1.688.89-1.187 0-1.687-.452-1.687-.906 0-.609.625-.609.766-.609h1.171c.313 0 1.438 0 1.438.625Zm0 0"/></symbol><symbol overflow="visible" id="h"><path style="stroke:none" d="M6.125 0v-.469h-.688v-2.578c0-1.047-.53-1.437-1.53-1.437a1.9 1.9 0 0 0-1.688.953v-3.39l-1.766.077v.469c.61 0 .688 0 .688.39v5.516H.453V0l1.25-.031L2.953 0v-.469h-.687v-2.078c0-1.094.859-1.578 1.5-1.578.328 0 .546.203.546.969V-.47h-.687V0l1.25-.031Zm0 0"/></symbol><symbol overflow="visible" id="i"><path style="stroke:none" d="M5.719-2.547v-.36H0v.36Zm0 0"/></symbol></defs><path style="stroke:none;fill-rule:nonzero;fill:#ccf;fill-opacity:1" d="M41.11 99.965a8.27 8.27 0 0 0-16.54 0 8.27 8.27 0 0 0 16.54 0Zm0 0"/><use xlink:href="#a" x="30.056" y="102.192" style="fill:#000;fill-opacity:1"/><path style="stroke:none;fill-rule:nonzero;fill:#ccf;fill-opacity:1" d="M87.617 99.965c0-5.203-4.219-9.418-9.422-9.418a9.416 9.416 0 0 0-9.418 9.418c0 5.203 4.215 9.422 9.418 9.422a9.422 9.422 0 0 0 9.422-9.422Zm0 0"/><use xlink:href="#b" x="75.013" y="103.393" style="fill:#000;fill-opacity:1"/><path style="stroke:none;fill-rule:nonzero;fill:#ccf;fill-opacity:1" d="M108.992 77.29a8.118 8.118 0 1 0-16.236 0 8.118 8.118 0 0 0 16.236 0Zm0 0"/><use xlink:href="#c" x="98.328" y="79.515" style="fill:#000;fill-opacity:1"/><path style="stroke:none;fill-rule:nonzero;fill:#ccf;fill-opacity:1" d="M110.293 31.934c0-5.204-4.215-9.422-9.418-9.422a9.422 9.422 0 0 0 0 18.843c5.203 0 9.418-4.218 9.418-9.421Zm0 0"/><use xlink:href="#d" x="97.691" y="35.361" style="fill:#000;fill-opacity:1"/><path style="stroke:none;fill-rule:nonzero;fill:#ccf;fill-opacity:1" d="M86.379 9.258a8.184 8.184 0 0 0-16.367 0 8.18 8.18 0 0 0 8.183 8.18 8.18 8.18 0 0 0 8.184-8.18Zm0 0"/><use xlink:href="#e" x="75.57" y="11.483" style="fill:#000;fill-opacity:1"/><path style="stroke:none;fill-rule:nonzero;fill:#ccf;fill-opacity:1" d="M41.3 9.258A8.46 8.46 0 0 0 32.84.797a8.456 8.456 0 0 0-8.457 8.46 8.456 8.456 0 0 0 8.457 8.458c4.672 0 8.46-3.785 8.46-8.457Zm0 0"/><use xlink:href="#f" x="31.093" y="12.744" style="fill:#000;fill-opacity:1"/><path style="stroke:none;fill-rule:nonzero;fill:#ccf;fill-opacity:1" d="M19.184 31.934a9.02 9.02 0 0 0-18.04 0 9.02 9.02 0 0 0 18.04 0Zm0 0"/><use xlink:href="#g" x="7.3" y="33.199" style="fill:#000;fill-opacity:1"/><path style="stroke:none;fill-rule:nonzero;fill:#ccf;fill-opacity:1" d="M19.543 77.29a9.38 9.38 0 1 0-18.758 0 9.38 9.38 0 0 0 18.758 0Zm0 0"/><use xlink:href="#h" x="6.981" y="80.745" style="fill:#000;fill-opacity:1"/><path style="fill:none;stroke-width:.3985;stroke-linecap:butt;stroke-linejoin:miter;stroke:#000;stroke-opacity:1;stroke-miterlimit:10" d="M-14.21-45.358h26.871" transform="matrix(1 0 0 -1 55.519 54.611)"/><path style="fill:none;stroke-width:.3985;stroke-linecap:round;stroke-linejoin:round;stroke:#000;stroke-opacity:1;stroke-miterlimit:10" d="M-2.074 2.39C-1.694.958-.85.278.001 0c-.852-.277-1.696-.957-2.075-2.39" transform="matrix(1 0 0 -1 68.378 99.969)"/><path style="stroke:none;fill-rule:nonzero;fill:#fcc;fill-opacity:1" d="M68.832 85.883c0-7.672-6.219-13.89-13.89-13.89-7.669 0-13.887 6.218-13.887 13.89 0 7.668 6.218 13.887 13.886 13.887 7.672 0 13.891-6.22 13.891-13.887Zm0 0"/><g style="fill:#000;fill-opacity:1"><use xlink:href="#a" x="46.111" y="89.308"/><use xlink:href="#i" x="51.681" y="89.308"/><use xlink:href="#b" x="57.409" y="89.308"/></g><path style="fill:none;stroke-width:.3985;stroke-linecap:butt;stroke-linejoin:miter;stroke:#000;stroke-opacity:1;stroke-miterlimit:10" d="m29.482-38.557 9.714 9.715" transform="matrix(1 0 0 -1 55.519 54.611)"/><path style="fill:none;stroke-width:.3985;stroke-linecap:round;stroke-linejoin:round;stroke:#000;stroke-opacity:1;stroke-miterlimit:10" d="M-2.072 2.391C-1.693.958-.85.281 0 0c-.85-.276-1.696-.956-2.072-2.392" transform="scale(.99998 -.99998) rotate(45.004 147.987 72.835)"/><path style="stroke:none;fill-rule:nonzero;fill:#fcc;fill-opacity:1" d="M93.863 78.36c0-7.555-6.125-13.68-13.675-13.68-7.555 0-13.676 6.125-13.676 13.68 0 7.55 6.12 13.675 13.675 13.675 7.551 0 13.676-6.125 13.676-13.676Zm0 0"/><g style="fill:#000;fill-opacity:1"><use xlink:href="#b" x="71.594" y="81.785"/><use xlink:href="#i" x="77.96" y="81.785"/><use xlink:href="#c" x="83.688" y="81.785"/></g><path style="fill:none;stroke-width:.3985;stroke-linecap:butt;stroke-linejoin:miter;stroke:#000;stroke-opacity:1;stroke-miterlimit:10" d="M45.356-14.362v27.024" transform="matrix(1 0 0 -1 55.519 54.611)"/><path style="fill:none;stroke-width:.3985;stroke-linecap:round;stroke-linejoin:round;stroke:#000;stroke-opacity:1;stroke-miterlimit:10" d="M-2.073 2.392C-1.694.954-.85.279.001.002-.85-.28-1.694-.957-2.073-2.39" transform="matrix(0 -1 -1 0 100.876 41.751)"/><path style="stroke:none;fill-rule:nonzero;fill:#fcc;fill-opacity:1" d="M100.676 55.262c0-7.551-6.121-13.676-13.676-13.676-7.55 0-13.676 6.125-13.676 13.676 0 7.554 6.125 13.675 13.676 13.675 7.555 0 13.676-6.12 13.676-13.675Zm0 0"/><g style="fill:#000;fill-opacity:1"><use xlink:href="#c" x="78.407" y="58.69"/><use xlink:href="#i" x="83.498" y="58.69"/><use xlink:href="#d" x="89.227" y="58.69"/></g><path style="fill:none;stroke-width:.3985;stroke-linecap:butt;stroke-linejoin:miter;stroke:#000;stroke-opacity:1;stroke-miterlimit:10" d="m38.556 29.482-9.668 9.668" transform="matrix(1 0 0 -1 55.519 54.611)"/><path style="fill:none;stroke-width:.3985;stroke-linecap:round;stroke-linejoin:round;stroke:#000;stroke-opacity:1;stroke-miterlimit:10" d="M-2.07 2.392C-1.695.955-.85.282 0-.001c-.85-.276-1.696-.955-2.074-2.389" transform="scale(-.99998 .99998) rotate(-44.996 -23.637 109.39)"/><path style="stroke:none;fill-rule:nonzero;fill:#fcc;fill-opacity:1" d="M92.992 30.031c0-7.605-6.164-13.77-13.77-13.77-7.6 0-13.765 6.165-13.765 13.77 0 7.606 6.164 13.77 13.766 13.77 7.605 0 13.77-6.164 13.77-13.77Zm0 0"/><g style="fill:#000;fill-opacity:1"><use xlink:href="#d" x="70.552" y="33.459"/><use xlink:href="#i" x="76.918" y="33.459"/><use xlink:href="#e" x="82.646" y="33.459"/></g><path style="fill:none;stroke-width:.3985;stroke-linecap:butt;stroke-linejoin:miter;stroke:#000;stroke-opacity:1;stroke-miterlimit:10" d="M14.294 45.357H-13.62" transform="matrix(1 0 0 -1 55.519 54.611)"/><path style="fill:none;stroke-width:.3985;stroke-linecap:round;stroke-linejoin:round;stroke:#000;stroke-opacity:1;stroke-miterlimit:10" d="M-2.071 2.391C-1.692.958-.848.278-.001.001c-.847-.282-1.691-.957-2.07-2.39" transform="matrix(-1 0 0 1 41.698 9.253)"/><path style="stroke:none;fill-rule:nonzero;fill:#fcc;fill-opacity:1" d="M68.23 22.023c0-6.941-5.628-12.57-12.574-12.57-6.941 0-12.57 5.629-12.57 12.57 0 6.946 5.629 12.575 12.57 12.575 6.946 0 12.574-5.63 12.574-12.575Zm0 0"/><g style="fill:#000;fill-opacity:1"><use xlink:href="#e" x="48.419" y="25.482"/><use xlink:href="#i" x="53.67" y="25.482"/><use xlink:href="#f" x="59.398" y="25.482"/></g><path style="fill:none;stroke-width:.3985;stroke-linecap:butt;stroke-linejoin:miter;stroke:#000;stroke-opacity:1;stroke-miterlimit:10" d="m-28.804 39.236-9.754-9.758" transform="matrix(1 0 0 -1 55.519 54.611)"/><path style="fill:none;stroke-width:.3985;stroke-linecap:round;stroke-linejoin:round;stroke:#000;stroke-opacity:1;stroke-miterlimit:10" d="M-2.074 2.39C-1.695.957-.85.277.001.001-.85-.281-1.693-.957-2.071-2.391" transform="matrix(-.70706 .70712 .70712 .70706 16.82 25.272)"/><path style="stroke:none;fill-rule:nonzero;fill:#fcc;fill-opacity:1" d="M44.523 29.934c0-7.34-5.949-13.29-13.289-13.29s-13.289 5.95-13.289 13.29c0 7.34 5.95 13.289 13.29 13.289 7.34 0 13.288-5.95 13.288-13.29Zm0 0"/><g style="fill:#000;fill-opacity:1"><use xlink:href="#f" x="23.759" y="32.418"/><use xlink:href="#i" x="27.255" y="32.418"/><use xlink:href="#g" x="32.984" y="32.418"/></g><path style="fill:none;stroke-width:.3985;stroke-linecap:butt;stroke-linejoin:miter;stroke:#000;stroke-opacity:1;stroke-miterlimit:10" d="M-45.358 13.459v-26.16" transform="matrix(1 0 0 -1 55.519 54.611)"/><path style="fill:none;stroke-width:.3985;stroke-linecap:round;stroke-linejoin:round;stroke:#000;stroke-opacity:1;stroke-miterlimit:10" d="M-2.07 2.39C-1.693.957-.853.28 0 0c-.848-.278-1.692-.958-2.07-2.391" transform="matrix(.00002 .99998 .99998 -.00002 10.16 67.512)"/><path style="stroke:none;fill-rule:nonzero;fill:#fcc;fill-opacity:1" d="M39.355 54.43c0-8.004-6.492-14.496-14.5-14.496-8.003 0-14.496 6.492-14.496 14.496 0 8.008 6.493 14.5 14.496 14.5 8.008 0 14.5-6.493 14.5-14.5Zm0 0"/><g style="fill:#000;fill-opacity:1"><use xlink:href="#g" x="15.947" y="56.887"/><use xlink:href="#i" x="21.675" y="56.887"/><use xlink:href="#h" x="27.404" y="56.887"/></g><path style="fill:none;stroke-width:.3985;stroke-linecap:butt;stroke-linejoin:miter;stroke:#000;stroke-opacity:1;stroke-miterlimit:10" d="m-38.585-29.451 9.637-9.637" transform="matrix(1 0 0 -1 55.519 54.611)"/><path style="fill:none;stroke-width:.3985;stroke-linecap:round;stroke-linejoin:round;stroke:#000;stroke-opacity:1;stroke-miterlimit:10" d="M-2.074 2.39C-1.695.956-.85.277.001 0-.85-.28-1.693-.958-2.071-2.392" transform="matrix(.70712 .70706 .70706 -.70712 26.71 93.84)"/><path style="stroke:none;fill-rule:nonzero;fill:#fcc;fill-opacity:1" d="M45.742 79.059c0-7.668-6.219-13.887-13.887-13.887-7.671 0-13.89 6.219-13.89 13.887 0 7.671 6.219 13.89 13.89 13.89 7.668 0 13.887-6.219 13.887-13.89Zm0 0"/><g style="fill:#000;fill-opacity:1"><use xlink:href="#h" x="23.023" y="82.487"/><use xlink:href="#i" x="29.389" y="82.487"/><use xlink:href="#a" x="35.117" y="82.487"/></g></svg>