<svg xmlns="http://www.w3.org/2000/svg" xmlns:xlink="http://www.w3.org/1999/xlink" width="118.443" height="177.171" viewBox="0 0 88.832 132.878" version="1.2"><defs><symbol overflow="visible" id="a"><path style="stroke:none" d="M4.922 0v-.469h-1.39v-5.734c0-.234 0-.328-.266-.328-.11 0-.125 0-.22.078-.765.562-1.796.562-2 .562H.845v.47h.203c.156 0 .703-.016 1.297-.204v5.156H.954V0c.437-.031 1.5-.031 1.984-.031s1.546 0 1.984.031Zm0 0"/></symbol><symbol overflow="visible" id="c"><path style="stroke:none" d="M5.25-1.797c0-.547-.297-1.406-1.734-1.719.687-.203 1.406-.765 1.406-1.625 0-.765-.75-1.39-2.156-1.39-1.188 0-1.97.64-1.97 1.437 0 .422.313.703.688.703a.668.668 0 0 0 .704-.687c0-.578-.547-.688-.579-.703.344-.282.782-.36 1.094-.36.828 0 .86.641.86.97 0 .124-.016 1.437-1.047 1.5-.407.015-.438.015-.485.03-.094.016-.125.11-.125.172 0 .172.11.172.282.172h.437c1.094 0 1.094.985 1.094 1.5 0 .469 0 1.484-1.031 1.484-.266 0-.782-.046-1.266-.343C1.75-.75 2-1 2-1.406c0-.453-.313-.75-.75-.75-.422 0-.766.265-.766.765 0 .907.97 1.5 2.25 1.5 1.782 0 2.516-1 2.516-1.906Zm0 0"/></symbol><symbol overflow="visible" id="b"><path style="stroke:none" d="m5.469 1.234-.375-.28c-.14.155-.594.624-.75.577-.125-.015-.735-.453-.86-.547L2.297.125A92.171 92.171 0 0 1 4.14.047C5.562.047 6.344.03 6.906-.72c.672-.937.266-2.14-.86-2.969-.984-.718-2.124-.765-2.64-.046-.36.484-.047.875.14 1.015.267.203.72.25 1.017-.156.296-.422.046-.797-.047-.906.375-.016.75.11 1.046.328.688.5.672 1.312.235 1.922-.406.547-1.125.89-2.11 1.047L.86-.016C.688 0 .672.031.547.188l-.094.14 3.469 2.516Zm0 0"/></symbol><symbol overflow="visible" id="d"><path style="stroke:none" d="m4.375 3.172.281-.375-.781-.563.64-.89.782.562.266-.375L4.78.97l2.469-3.39c.156-.22.172-.282-.063-.438-.171-.125-.171-.11-.359-.063l-5.39 1.469-.266.375L3.5.609l-.64.891-.891-.656-.282.375c.313.187 1.047.718 1.391.968.328.25 1.016.75 1.297.985ZM3.859.297 1.875-1.141l3.797-1.062Zm0 0"/></symbol><symbol overflow="visible" id="e"><path style="stroke:none" d="M.313 5.531c1.093.344 2.218-.125 2.671-1.515.079-.266.22-.797.063-1.329l1.25.407c-.125.25-.203.344-.297.656-.453 1.375.344 2.61.578 2.672.078.031.188.047.234-.063v-.156a3.754 3.754 0 0 1 .204-1.531c.234-.719.578-1.156.734-1.39.063-.079.078-.079.094-.11.047-.125-.063-.156-.219-.203l-2.766-.906c-.171-.047-.296-.094-.375.109-.03.125-.015.156.047.234.328.531.25 1.063.125 1.453-.281.844-1.11.563-1.86.313-.702-.219-1.655-.531-1.28-1.656.078-.235.328-.813.984-1.032-.094.344.047.704.438.829.5.156.78-.22.859-.438.031-.125.11-.672-.469-.86-.797-.25-1.86.235-2.234 1.407-.5 1.515.062 2.719 1.219 3.11Zm0 0"/></symbol><symbol overflow="visible" id="j"><path style="stroke:none" d="M-3.578-4.375c-1.313.438-1.703 1.64-1.328 2.781.062.219.25.75 1.11.907l-.188.062c-1.079.36-1.547.266-1.72.266a1.632 1.632 0 0 1-1.218-1.079 1.074 1.074 0 0 1 .016-.796c.156.328.468.437.75.343.328-.109.531-.421.406-.78-.11-.376-.453-.517-.797-.407-.594.203-1.078.781-.75 1.781C-6.875 0-5.547 1.297-3.157.516-2.421.28-1.671-.047-1.14-.656c.563-.688.563-1.469.36-2.14-.438-1.313-1.516-1.985-2.797-1.579Zm.406 1.313c.953-.313 1.672-.547 1.985.421a.94.94 0 0 1-.266.985c-.25.25-.938.484-1.11.531-1.203.39-1.796.016-1.968-.5-.297-.906.422-1.125 1.36-1.438Zm0 0"/></symbol><symbol overflow="visible" id="k"><path style="stroke:none" d="M.719-8.469-.921-7.28c-.188.14-1.391.968-1.548 1.031-.172.078-.25.016-.312-.063l-.375.282 1.203 2.25.375-.281c-.375-.657-.344-.844-.313-.891.047-.11.704-.578.844-.688l1.344-.984c0 .297-.031.563-.047.844-.11 1.484.094 2.984.969 4.172.406.578.86.25.906.203.125-.094.469-.407.094-.938l-.281-.375a7.954 7.954 0 0 1-.75-1.219c-.329-.578-.5-1.171-.454-1.718l.204-2.36c.015-.14-.016-.171-.22-.453Zm0 0"/></symbol><symbol overflow="visible" id="l"><path style="stroke:none" d="M-5.25 1.86c0 1.077.844 1.546 1.328 1.827-.687.36-1 .797-1 1.376 0 1.015.906 1.468 2.047 1.468 1.375 0 2.078-.797 2.078-1.75 0-.437-.187-1.062-.953-1.5.828-.375 1.266-.937 1.266-1.672 0-1.203-1.079-1.718-2.36-1.718-1.594 0-2.406.875-2.406 1.968Zm1.078 3.187c0-.484.25-.813.688-1.11l1.5.844c.156.078.437.25.437.594 0 .703-.89.766-1.297.766-.828 0-1.328-.407-1.328-1.094Zm-.219-3.734c0-.829.938-1 1.516-1 .969 0 1.547.515 1.547 1.296 0 .766-.531 1.204-.89 1.407l-1.36-.766c-.438-.25-.813-.453-.813-.938Zm0 0"/></symbol><symbol overflow="visible" id="m"><path style="stroke:none" d="M-6.172-.422c-.406.547-1.922 2.625 0 4.016 1.14.828 2.422.75 3.203-.328.813-1.11.453-2.297-.531-3.016-.297-.219-.719-.422-1.422-.078L-4.797 0c.438-.594.844-1.016 1.172-1.219.36-.203.969-.328 1.531.078.14.11.406.344.547.672a.602.602 0 0 0-.75.219c-.203.281-.187.64.125.875.313.219.656.14.875-.156.406-.563.328-1.313-.562-1.953-1.047-.766-2.829-1-4.313 1.062Zm.531 1.594C-5.28.656-4.484 0-3.797.484c.766.563.328 1.172-.25 1.97-.578.796-1.047 1.437-1.906.812-.469-.344-.36-.922-.328-1.016.093-.328.437-.797.64-1.078Zm0 0"/></symbol><symbol overflow="visible" id="p"><path style="stroke:none" d="m1.516-4.688-.454-.14L.641-3.5l-5.454-1.781c-.218-.063-.312-.094-.39.156-.047.11-.047.125 0 .234.297.907-.016 1.891-.078 2.079l-.063.203.453.14.063-.203a4.53 4.53 0 0 0 .203-1.297l4.89 1.594-.421 1.328.453.14c.11-.437.437-1.437.578-1.905.156-.454.484-1.47.64-1.876Zm0 0"/></symbol><symbol overflow="visible" id="q"><path style="stroke:none" d="M-1.406-6c-.907-.297-3.188-1.031-3.922 1.266-.75 2.28 1.516 3.015 2.437 3.312C-1.937-1.109.25-.406 1-2.688c.734-2.28-1.453-3-2.406-3.312Zm-.5 1.188c.547.171 1.406.453 1.875.671.828.422.765 1.063.687 1.344a1.09 1.09 0 0 1-1.234.703c-.531-.078-1.5-.39-2.031-.562-.672-.219-1.297-.422-1.766-.656-.813-.391-.688-1.094-.61-1.313.11-.36.423-.688.891-.734.407-.032 1.422.296 2.188.546Zm0 0"/></symbol><symbol overflow="visible" id="r"><path style="stroke:none" d="m1.516 4.688.453-.141-.422-1.328L7 1.438c.219-.063.313-.094.234-.344-.046-.11-.046-.125-.156-.203C6.312.359 6-.625 5.938-.813l-.063-.203-.453.141.062.203c.047.14.235.656.579 1.172L1.171 2.094.75.766l-.453.14c.172.406.5 1.406.64 1.875.157.453.485 1.469.579 1.906Zm0 0"/></symbol><symbol overflow="visible" id="s"><path style="stroke:none" d="m-3.984 2.89.28.376 1.126-.813 3.36 4.64c.14.188.202.266.421.11.094-.062.094-.078.125-.187.297-.907 1.125-1.516 1.297-1.641l.156-.11-.281-.374L2.344 5a4.82 4.82 0 0 0-.922.922L-1.61 1.75-.484.937-.766.563c-.343.282-1.203.907-1.593 1.204-.391.28-1.25.906-1.625 1.125Zm0 0"/></symbol><symbol overflow="visible" id="t"><path style="stroke:none" d="m-2.875 4.828.375-.281c-.078-.188-.375-.75-.313-.89.063-.11.672-.548.797-.641l1.188-.86c-.156.594-.328 1.25-.5 1.766-.422 1.344-.672 2.11-.11 2.86.672.937 1.954.921 3.079.093.984-.719 1.375-1.766.859-2.484-.36-.485-.828-.313-1.016-.172-.265.203-.468.593-.171 1 .296.422.734.297.89.25-.094.36-.344.672-.64.89-.688.5-1.454.22-1.891-.39-.406-.547-.5-1.328-.36-2.297L-.266.828c.047-.172.032-.203-.093-.36l-.094-.14-3.469 2.516Zm0 0"/></symbol><clipPath id="f"><path d="M70 44h18.746v16H70Zm0 0"/></clipPath><clipPath id="g"><path d="M67 41h21.746v22H67Zm0 0"/></clipPath><clipPath id="h"><path d="M78 27h10.746v23H78Zm0 0"/></clipPath><clipPath id="i"><path d="M76 25h12.746v28H76Zm0 0"/></clipPath><clipPath id="n"><path d="M3 109h18v23.816H3Zm0 0"/></clipPath><clipPath id="o"><path d="M26 109h17v23.816H26Zm0 0"/></clipPath><clipPath id="u"><path d="M34 112h12v20.816H34Zm0 0"/></clipPath><clipPath id="v"><path d="M30 109h19v23.816H30Zm0 0"/></clipPath><clipPath id="w"><path d="M53 109h18v23.816H53Zm0 0"/></clipPath></defs><use xlink:href="#a" x="34.275" y="80.812" style="fill:#000;fill-opacity:1"/><use xlink:href="#b" x="46.663" y="59.567" style="fill:#000;fill-opacity:1"/><path style="fill:none;stroke-width:.3985;stroke-linecap:butt;stroke-linejoin:miter;stroke:#000;stroke-opacity:1;stroke-miterlimit:10" d="m30.767 42.348 5.258-16.176" transform="matrix(1 0 0 -1 28.635 89.254)"/><path style="fill:none;stroke-width:.19925;stroke-linecap:butt;stroke-linejoin:miter;stroke:gray;stroke-opacity:1;stroke-miterlimit:10" d="m36.025 26.172-13.762-9.996" transform="matrix(1 0 0 -1 28.635 89.254)"/><path style="fill:none;stroke-width:.3985;stroke-linecap:butt;stroke-linejoin:miter;stroke:#000;stroke-opacity:1;stroke-miterlimit:10" d="m36.025 26.172-4.883-7.75-8.879-2.246" transform="matrix(1 0 0 -1 28.635 89.254)"/><path style="fill:none;stroke-width:.19925;stroke-linecap:butt;stroke-linejoin:miter;stroke:gray;stroke-opacity:1;stroke-miterlimit:10" d="M22.263 16.176 8.506 26.172" transform="matrix(1 0 0 -1 28.635 89.254)"/><path style="fill:none;stroke-width:.3985;stroke-linecap:butt;stroke-linejoin:miter;stroke:#000;stroke-opacity:1;stroke-miterlimit:10" d="m8.506 26.172 5.254 16.176" transform="matrix(1 0 0 -1 28.635 89.254)"/><use xlink:href="#c" x="48.034" y="38.409" style="fill:#000;fill-opacity:1"/><use xlink:href="#d" x="60.42" y="17.223" style="fill:#000;fill-opacity:1"/><path style="fill:none;stroke-width:.19925;stroke-linecap:butt;stroke-linejoin:miter;stroke:gray;stroke-opacity:1;stroke-miterlimit:10" d="m44.53 84.7 5.253-16.176" transform="matrix(1 0 0 -1 28.635 89.254)"/><path style="fill:none;stroke-width:.3985;stroke-linecap:butt;stroke-linejoin:miter;stroke:#000;stroke-opacity:1;stroke-miterlimit:10" d="m44.53 84.7 5.862-7.04-.609-9.136" transform="matrix(1 0 0 -1 28.635 89.254)"/><path style="fill:none;stroke-width:.19925;stroke-linecap:butt;stroke-linejoin:miter;stroke:gray;stroke-opacity:1;stroke-miterlimit:10" d="m49.783 68.524-13.758-10" transform="matrix(1 0 0 -1 28.635 89.254)"/><path style="fill:none;stroke-width:.3985;stroke-linecap:butt;stroke-linejoin:miter;stroke:#000;stroke-opacity:1;stroke-miterlimit:10" d="m49.783 68.524-4.879-7.754-8.879-2.246" transform="matrix(1 0 0 -1 28.635 89.254)"/><path style="fill:none;stroke-width:.19925;stroke-linecap:butt;stroke-linejoin:miter;stroke:gray;stroke-opacity:1;stroke-miterlimit:10" d="M36.025 58.524 22.263 68.52" transform="matrix(1 0 0 -1 28.635 89.254)"/><path style="fill:none;stroke-width:.3985;stroke-linecap:butt;stroke-linejoin:miter;stroke:#000;stroke-opacity:1;stroke-miterlimit:10" d="m22.263 68.52 5.258 16.175" transform="matrix(1 0 0 -1 28.635 89.254)"/><path style="fill:none;stroke-width:.19925;stroke-linecap:butt;stroke-linejoin:miter;stroke:gray;stroke-opacity:1;stroke-miterlimit:10" d="M27.521 84.7H44.53" transform="matrix(1 0 0 -1 28.635 89.254)"/><path style="fill:none;stroke-width:.3985;stroke-linecap:butt;stroke-linejoin:miter;stroke:#000;stroke-opacity:1;stroke-miterlimit:10" d="m27.521 84.7 8.504 3.398 8.504-3.399" transform="matrix(1 0 0 -1 28.635 89.254)"/><use xlink:href="#e" x="70.996" y="38.72" style="fill:#000;fill-opacity:1"/><g clip-path="url(#f)"><path style="fill:none;stroke-width:.19925;stroke-linecap:butt;stroke-linejoin:miter;stroke:gray;stroke-opacity:1;stroke-miterlimit:10" d="m58.287 42.348-13.758-9.996" transform="matrix(1 0 0 -1 28.635 89.254)"/></g><g clip-path="url(#g)"><path style="fill:none;stroke-width:.3985;stroke-linecap:butt;stroke-linejoin:miter;stroke:#000;stroke-opacity:1;stroke-miterlimit:10" d="m58.287 42.348-4.879-7.75-8.879-2.246" transform="matrix(1 0 0 -1 28.635 89.254)"/></g><path style="fill:none;stroke-width:.19925;stroke-linecap:butt;stroke-linejoin:miter;stroke:gray;stroke-opacity:1;stroke-miterlimit:10" d="m44.53 32.352-13.763 9.996" transform="matrix(1 0 0 -1 28.635 89.254)"/><path style="fill:none;stroke-width:.3985;stroke-linecap:butt;stroke-linejoin:miter;stroke:#000;stroke-opacity:1;stroke-miterlimit:10" d="m44.53 32.352-8.88 2.246-4.883 7.75" transform="matrix(1 0 0 -1 28.635 89.254)"/><path style="fill:none;stroke-width:.19925;stroke-linecap:butt;stroke-linejoin:miter;stroke:gray;stroke-opacity:1;stroke-miterlimit:10" d="m30.767 42.348 5.258 16.176" transform="matrix(1 0 0 -1 28.635 89.254)"/><path style="fill:none;stroke-width:.3985;stroke-linecap:butt;stroke-linejoin:miter;stroke:#000;stroke-opacity:1;stroke-miterlimit:10" d="M36.025 58.524h17.008" transform="matrix(1 0 0 -1 28.635 89.254)"/><g clip-path="url(#h)"><path style="fill:none;stroke-width:.19925;stroke-linecap:butt;stroke-linejoin:miter;stroke:gray;stroke-opacity:1;stroke-miterlimit:10" d="m53.033 58.524 5.254-16.176" transform="matrix(1 0 0 -1 28.635 89.254)"/></g><g clip-path="url(#i)"><path style="fill:none;stroke-width:.3985;stroke-linecap:butt;stroke-linejoin:miter;stroke:#000;stroke-opacity:1;stroke-miterlimit:10" d="m53.033 58.524 5.863-7.036-.61-9.14" transform="matrix(1 0 0 -1 28.635 89.254)"/></g><path style="fill:none;stroke-width:.19925;stroke-linecap:butt;stroke-linejoin:miter;stroke:gray;stroke-opacity:1;stroke-miterlimit:10" d="M30.767 42.348H13.76" transform="matrix(1 0 0 -1 28.635 89.254)"/><use xlink:href="#j" x="32.571" y="44.168" style="fill:#000;fill-opacity:1"/><path style="fill:none;stroke-width:.19925;stroke-linecap:butt;stroke-linejoin:miter;stroke:gray;stroke-opacity:1;stroke-miterlimit:10" d="m-13.76 42.348 5.254 16.176" transform="matrix(1 0 0 -1 28.635 89.254)"/><path style="fill:none;stroke-width:.3985;stroke-linecap:butt;stroke-linejoin:miter;stroke:#000;stroke-opacity:1;stroke-miterlimit:10" d="m-13.76 42.348-.605 9.14 5.859 7.036" transform="matrix(1 0 0 -1 28.635 89.254)"/><path style="fill:none;stroke-width:.19925;stroke-linecap:butt;stroke-linejoin:miter;stroke:gray;stroke-opacity:1;stroke-miterlimit:10" d="M-8.506 58.524H8.506" transform="matrix(1 0 0 -1 28.635 89.254)"/><path style="fill:none;stroke-width:.3985;stroke-linecap:butt;stroke-linejoin:miter;stroke:#000;stroke-opacity:1;stroke-miterlimit:10" d="m-8.506 58.524 8.504 3.402 8.508-3.402" transform="matrix(1 0 0 -1 28.635 89.254)"/><path style="fill:none;stroke-width:.19925;stroke-linecap:butt;stroke-linejoin:miter;stroke:gray;stroke-opacity:1;stroke-miterlimit:10" d="m8.506 58.524 5.254-16.176M13.76 42.348.002 32.352" transform="matrix(1 0 0 -1 28.635 89.254)"/><path style="fill:none;stroke-width:.3985;stroke-linecap:butt;stroke-linejoin:miter;stroke:#000;stroke-opacity:1;stroke-miterlimit:10" d="m13.76 42.348-4.88-7.75-8.878-2.246M.002 32.352l-13.762 9.996" transform="matrix(1 0 0 -1 28.635 89.254)"/><use xlink:href="#k" x="36.769" y="20.626" style="fill:#000;fill-opacity:1"/><path style="fill:none;stroke-width:.19925;stroke-linecap:butt;stroke-linejoin:miter;stroke:gray;stroke-opacity:1;stroke-miterlimit:10" d="M.002 84.7H17.01" transform="matrix(1 0 0 -1 28.635 89.254)"/><path style="fill:none;stroke-width:.3985;stroke-linecap:butt;stroke-linejoin:miter;stroke:#000;stroke-opacity:1;stroke-miterlimit:10" d="m.002 84.7 8.504 3.398 8.504-3.399" transform="matrix(1 0 0 -1 28.635 89.254)"/><path style="fill:none;stroke-width:.19925;stroke-linecap:butt;stroke-linejoin:miter;stroke:gray;stroke-opacity:1;stroke-miterlimit:10" d="m17.01 84.7 5.253-16.176" transform="matrix(1 0 0 -1 28.635 89.254)"/><path style="fill:none;stroke-width:.3985;stroke-linecap:butt;stroke-linejoin:miter;stroke:#000;stroke-opacity:1;stroke-miterlimit:10" d="m17.01 84.7 5.863-7.04-.61-9.136" transform="matrix(1 0 0 -1 28.635 89.254)"/><path style="fill:none;stroke-width:.19925;stroke-linecap:butt;stroke-linejoin:miter;stroke:gray;stroke-opacity:1;stroke-miterlimit:10" d="M22.263 68.52 8.506 58.524" transform="matrix(1 0 0 -1 28.635 89.254)"/><path style="fill:none;stroke-width:.3985;stroke-linecap:butt;stroke-linejoin:miter;stroke:#000;stroke-opacity:1;stroke-miterlimit:10" d="m8.506 58.524-13.762 10" transform="matrix(1 0 0 -1 28.635 89.254)"/><path style="fill:none;stroke-width:.19925;stroke-linecap:butt;stroke-linejoin:miter;stroke:gray;stroke-opacity:1;stroke-miterlimit:10" d="M-5.256 68.524.002 84.695" transform="matrix(1 0 0 -1 28.635 89.254)"/><path style="fill:none;stroke-width:.3985;stroke-linecap:butt;stroke-linejoin:miter;stroke:#000;stroke-opacity:1;stroke-miterlimit:10" d="m-5.256 68.524-.606 9.136 5.864 7.035" transform="matrix(1 0 0 -1 28.635 89.254)"/><path style="fill:none;stroke-width:.19925;stroke-linecap:butt;stroke-linejoin:miter;stroke:gray;stroke-opacity:1;stroke-miterlimit:10" d="M22.263 16.176 17.01 0" transform="matrix(1 0 0 -1 28.635 89.254)"/><path style="fill:none;stroke-width:.3985;stroke-linecap:butt;stroke-linejoin:miter;stroke:#000;stroke-opacity:1;stroke-miterlimit:10" d="m22.263 16.176.61-9.14L17.01 0" transform="matrix(1 0 0 -1 28.635 89.254)"/><use xlink:href="#l" x="40.003" y="97.751" style="fill:#000;fill-opacity:1"/><use xlink:href="#m" x="27.582" y="118.986" style="fill:#000;fill-opacity:1"/><g clip-path="url(#n)"><path style="fill:none;stroke-width:.3985;stroke-linecap:butt;stroke-linejoin:miter;stroke:#000;stroke-opacity:1;stroke-miterlimit:10" d="m-13.76-42.348-5.254 16.176" transform="matrix(1 0 0 -1 28.635 89.254)"/></g><path style="fill:none;stroke-width:.19925;stroke-linecap:butt;stroke-linejoin:miter;stroke:gray;stroke-opacity:1;stroke-miterlimit:10" d="m-19.014-26.172 13.758 9.996" transform="matrix(1 0 0 -1 28.635 89.254)"/><path style="fill:none;stroke-width:.3985;stroke-linecap:butt;stroke-linejoin:miter;stroke:#000;stroke-opacity:1;stroke-miterlimit:10" d="m-19.014-26.172 4.879 7.75 8.879 2.246" transform="matrix(1 0 0 -1 28.635 89.254)"/><path style="fill:none;stroke-width:.19925;stroke-linecap:butt;stroke-linejoin:miter;stroke:gray;stroke-opacity:1;stroke-miterlimit:10" d="m-5.256-16.176 13.762-9.996" transform="matrix(1 0 0 -1 28.635 89.254)"/><g clip-path="url(#o)"><path style="fill:none;stroke-width:.3985;stroke-linecap:butt;stroke-linejoin:miter;stroke:#000;stroke-opacity:1;stroke-miterlimit:10" d="M8.506-26.172 3.248-42.348" transform="matrix(1 0 0 -1 28.635 89.254)"/></g><path style="fill:none;stroke-width:.3985;stroke-linecap:butt;stroke-linejoin:miter;stroke:#000;stroke-opacity:1;stroke-miterlimit:10" d="M3.248-42.348H-13.76" transform="matrix(1 0 0 -1 28.635 89.254)"/><g style="fill:#000;fill-opacity:1"><use xlink:href="#p" x="16.156" y="100.164"/><use xlink:href="#q" x="17.926" y="94.716"/></g><path style="fill:none;stroke-width:.3985;stroke-linecap:butt;stroke-linejoin:miter;stroke:#000;stroke-opacity:1;stroke-miterlimit:10" d="m-27.522 0 13.762 9.996M-13.76 9.996.002 0" transform="matrix(1 0 0 -1 28.635 89.254)"/><path style="fill:none;stroke-width:.19925;stroke-linecap:butt;stroke-linejoin:miter;stroke:gray;stroke-opacity:1;stroke-miterlimit:10" d="m.002 0-5.258-16.176" transform="matrix(1 0 0 -1 28.635 89.254)"/><path style="fill:none;stroke-width:.3985;stroke-linecap:butt;stroke-linejoin:miter;stroke:#000;stroke-opacity:1;stroke-miterlimit:10" d="M-5.256-16.176h-17.008M-22.264-16.176-27.522 0" transform="matrix(1 0 0 -1 28.635 89.254)"/><path style="fill:none;stroke-width:.19925;stroke-linecap:butt;stroke-linejoin:miter;stroke:gray;stroke-opacity:1;stroke-miterlimit:10" d="M.002 0H17.01" transform="matrix(1 0 0 -1 28.635 89.254)"/><g style="fill:#000;fill-opacity:1"><use xlink:href="#r" x="54.529" y="89.285"/><use xlink:href="#r" x="56.299" y="94.733"/></g><path style="fill:none;stroke-width:.3985;stroke-linecap:butt;stroke-linejoin:miter;stroke:#000;stroke-opacity:1;stroke-miterlimit:10" d="M44.53 0 39.27-16.176" transform="matrix(1 0 0 -1 28.635 89.254)"/><path style="fill:none;stroke-width:.19925;stroke-linecap:butt;stroke-linejoin:miter;stroke:gray;stroke-opacity:1;stroke-miterlimit:10" d="M39.271-16.176H22.263" transform="matrix(1 0 0 -1 28.635 89.254)"/><path style="fill:none;stroke-width:.3985;stroke-linecap:butt;stroke-linejoin:miter;stroke:#000;stroke-opacity:1;stroke-miterlimit:10" d="m39.271-16.176-8.504-3.402-8.504 3.402" transform="matrix(1 0 0 -1 28.635 89.254)"/><path style="fill:none;stroke-width:.19925;stroke-linecap:butt;stroke-linejoin:miter;stroke:gray;stroke-opacity:1;stroke-miterlimit:10" d="M22.263-16.176 17.01 0" transform="matrix(1 0 0 -1 28.635 89.254)"/><path style="fill:none;stroke-width:.3985;stroke-linecap:butt;stroke-linejoin:miter;stroke:#000;stroke-opacity:1;stroke-miterlimit:10" d="m17.01 0 13.757 9.996M30.767 9.996 44.53 0" transform="matrix(1 0 0 -1 28.635 89.254)"/><g style="fill:#000;fill-opacity:1"><use xlink:href="#s" x="53.615" y="113.891"/><use xlink:href="#t" x="48.981" y="117.258"/></g><path style="fill:none;stroke-width:.3985;stroke-linecap:butt;stroke-linejoin:miter;stroke:#000;stroke-opacity:1;stroke-miterlimit:10" d="M30.767-42.348H13.76" transform="matrix(1 0 0 -1 28.635 89.254)"/><g clip-path="url(#u)"><path style="fill:none;stroke-width:.19925;stroke-linecap:butt;stroke-linejoin:miter;stroke:gray;stroke-opacity:1;stroke-miterlimit:10" d="M13.76-42.348 8.506-26.172" transform="matrix(1 0 0 -1 28.635 89.254)"/></g><g clip-path="url(#v)"><path style="fill:none;stroke-width:.3985;stroke-linecap:butt;stroke-linejoin:miter;stroke:#000;stroke-opacity:1;stroke-miterlimit:10" d="m13.76-42.348-5.864 7.036.61 9.14" transform="matrix(1 0 0 -1 28.635 89.254)"/></g><path style="fill:none;stroke-width:.19925;stroke-linecap:butt;stroke-linejoin:miter;stroke:gray;stroke-opacity:1;stroke-miterlimit:10" d="m8.506-26.172 13.757 9.996" transform="matrix(1 0 0 -1 28.635 89.254)"/><path style="fill:none;stroke-width:.3985;stroke-linecap:butt;stroke-linejoin:miter;stroke:#000;stroke-opacity:1;stroke-miterlimit:10" d="m22.263-16.176 13.762-9.996" transform="matrix(1 0 0 -1 28.635 89.254)"/><g clip-path="url(#w)"><path style="fill:none;stroke-width:.3985;stroke-linecap:butt;stroke-linejoin:miter;stroke:#000;stroke-opacity:1;stroke-miterlimit:10" d="m36.025-26.172-5.258-16.176" transform="matrix(1 0 0 -1 28.635 89.254)"/></g><path style="fill:none;stroke-width:.19925;stroke-linecap:butt;stroke-linejoin:miter;stroke:gray;stroke-opacity:1;stroke-miterlimit:10" d="m.002 0-5.258 16.176" transform="matrix(1 0 0 -1 28.635 89.254)"/><path style="fill:none;stroke-width:.3985;stroke-linecap:butt;stroke-linejoin:miter;stroke:#000;stroke-opacity:1;stroke-miterlimit:10" d="m.002 0-5.864 7.035.606 9.14" transform="matrix(1 0 0 -1 28.635 89.254)"/><path style="fill:none;stroke-width:.19925;stroke-linecap:butt;stroke-linejoin:miter;stroke:gray;stroke-opacity:1;stroke-miterlimit:10" d="m-5.256 16.176 13.762 9.996" transform="matrix(1 0 0 -1 28.635 89.254)"/><path style="fill:none;stroke-width:.3985;stroke-linecap:butt;stroke-linejoin:miter;stroke:#000;stroke-opacity:1;stroke-miterlimit:10" d="m-5.256 16.176 4.879 7.75 8.883 2.246" transform="matrix(1 0 0 -1 28.635 89.254)"/></svg>