<svg xmlns="http://www.w3.org/2000/svg" width="116.621" height="78.819" viewBox="0 0 87.466 59.114" version="1.2"><defs><clipPath id="a"><path d="M0 0h87.2v58.672H0Zm0 0"/></clipPath></defs><path style="fill:none;stroke-width:.19925;stroke-linecap:butt;stroke-linejoin:miter;stroke:gray;stroke-opacity:1;stroke-miterlimit:10" d="M0-.002h85.042M0 28.346h85.043M0 56.682h85.043M0-.002v56.696M28.347-.002v56.696M56.695-.002v56.696M85.03-.002v56.696" transform="matrix(1 0 0 -1 .95 57.467)"/><g clip-path="url(#a)"><path style="fill:none;stroke-width:.3985;stroke-linecap:butt;stroke-linejoin:miter;stroke:#000;stroke-opacity:1;stroke-miterlimit:10" d="M70.866 56.694H14.175c-7.828 0-14.176-6.344-14.176-14.172V14.174C0 6.346 6.347-.002 14.175-.002h56.691c7.829 0 14.176 6.348 14.176 14.176v28.348c0 7.828-6.347 14.172-14.176 14.172Zm0 0" transform="matrix(1 0 0 -1 .95 57.467)"/></g></svg>