<svg xmlns="http://www.w3.org/2000/svg" width="40.484" height="47.379" viewBox="0 0 30.363 35.534" version="1.2"><path style="fill:none;stroke-width:.3985;stroke-linecap:butt;stroke-linejoin:miter;stroke:#000;stroke-opacity:1;stroke-miterlimit:10" d="M0 28.349h27.95" transform="matrix(1 0 0 -1 .69 31.704)"/><path style="fill:none;stroke-width:.3985;stroke-linecap:round;stroke-linejoin:round;stroke:#000;stroke-opacity:1;stroke-miterlimit:10" d="M-2.072 2.392C-1.692.955-.849.28-.002.002c-.847-.282-1.69-.957-2.07-2.395" transform="matrix(1 0 0 -1 20.908 3.357)"/><path style="fill:none;stroke-width:.3985;stroke-linecap:round;stroke-linejoin:round;stroke:#000;stroke-opacity:1;stroke-miterlimit:10" d="M-2.074 2.392C-1.695.955-.851.28 0 .002-.85-.28-1.695-.955-2.074-2.393" transform="matrix(1 0 0 -1 24.375 3.357)"/><path style="fill:none;stroke-width:.3985;stroke-linecap:round;stroke-linejoin:round;stroke:#000;stroke-opacity:1;stroke-miterlimit:10" d="M-2.072 2.392C-1.694.955-.85.28.002.002-.85-.28-1.694-.955-2.072-2.393" transform="matrix(1 0 0 -1 28.838 3.357)"/><path style="fill:none;stroke-width:.3985;stroke-linecap:butt;stroke-linejoin:miter;stroke:#000;stroke-opacity:1;stroke-miterlimit:10" d="M0 14.173h27.95" transform="matrix(1 0 0 -1 .69 31.704)"/><path style="fill:none;stroke-width:.3985;stroke-linecap:round;stroke-linejoin:round;stroke:#000;stroke-opacity:1;stroke-miterlimit:10" d="M-2.073 2.39C-1.693.956-.85.28.002 0-.85-.279-1.694-.959-2.073-2.392" transform="matrix(1 0 0 -1 24.893 17.53)"/><path style="fill:none;stroke-width:.3985;stroke-linecap:round;stroke-linejoin:round;stroke:#000;stroke-opacity:1;stroke-miterlimit:10" d="M-2.07 2.39C-1.693.956-.849.28 0 0c-.848-.278-1.692-.958-2.07-2.391" transform="matrix(1 0 0 -1 28.36 17.53)"/><path style="fill:none;stroke-width:.3985;stroke-linecap:round;stroke-linejoin:round;stroke:#000;stroke-opacity:1;stroke-miterlimit:10" d="M-2.072 2.39C-1.694.956-.85.28.002 0-.85-.279-1.694-.959-2.072-2.392" transform="matrix(1 0 0 -1 28.838 17.53)"/><path style="fill:none;stroke-width:.3985;stroke-linecap:butt;stroke-linejoin:miter;stroke:#000;stroke-opacity:1;stroke-miterlimit:10" d="M0 0h27.95" transform="matrix(1 0 0 -1 .69 31.704)"/><path style="fill:none;stroke-width:.3985;stroke-linecap:round;stroke-linejoin:round;stroke:#000;stroke-opacity:1;stroke-miterlimit:10" d="M-2.072 2.392C-1.693.958-.85.278-.002 0c-.847-.281-1.691-.957-2.07-2.39" transform="matrix(1 0 0 -1 22.9 31.704)"/><path style="fill:none;stroke-width:.3985;stroke-linecap:round;stroke-linejoin:round;stroke:#000;stroke-opacity:1;stroke-miterlimit:10" d="M-2.074 2.392C-1.695.958-.851.278 0 0-.85-.28-1.695-.956-2.074-2.39" transform="matrix(1 0 0 -1 25.371 31.704)"/><path style="fill:none;stroke-width:.3985;stroke-linecap:round;stroke-linejoin:round;stroke:#000;stroke-opacity:1;stroke-miterlimit:10" d="M-2.072 2.392C-1.694.958-.85.278.002 0-.85-.28-1.694-.956-2.072-2.39" transform="matrix(1 0 0 -1 28.838 31.704)"/></svg>