<svg xmlns="http://www.w3.org/2000/svg" width="121.131" height="78.579" viewBox="0 0 90.848 58.934" version="1.2"><defs><clipPath id="a"><path d="M0 0h90.773v58.902H0Zm0 0"/></clipPath></defs><path style="fill:none;stroke-width:.19925;stroke-linecap:butt;stroke-linejoin:miter;stroke:gray;stroke-opacity:1;stroke-miterlimit:10" d="M0 .001h85.04M0 28.349h85.04M0 56.685h85.04M0 0v56.691M28.349.001v56.691M56.692.001v56.691M85.032.001v56.691" transform="matrix(1 0 0 -1 3.722 57.751)"/><g clip-path="url(#a)"><path style="fill:none;stroke-width:.3985;stroke-linecap:butt;stroke-linejoin:miter;stroke:#000;stroke-opacity:1;stroke-miterlimit:10" d="m0 .001-2.492 2.488 5.465 4.707-3.71 5.703 6.761 2.899-1.086 6.527 7.457-.566 2.07 6.3 6.493-3.41 3.918 5.602 5.539-4.566 4.703 5.129 5.082-4.95 4.957 4.973 5.004-4.945 4.867 5.148 5.258-4.574 4.332 5.707 5.863-3.555 2.836 6.735 6.547-1.211-.402 7.457 6.28 2.03-3.558 6.47 2.645 1.918.21 4.675" transform="matrix(1 0 0 -1 3.722 57.751)"/></g></svg>