<svg xmlns="http://www.w3.org/2000/svg" xmlns:xlink="http://www.w3.org/1999/xlink" width="142.76" height="136.347" viewBox="0 0 107.07 102.26" version="1.2"><defs><symbol overflow="visible" id="d"><path style="stroke:none" d="M3.89-2.547c0-.844-.078-1.36-.343-1.875-.344-.703-1-.875-1.438-.875-1 0-1.375.75-1.484.969C.344-3.75.328-2.953.328-2.547c0 .531.016 1.328.406 1.969.36.594.954.75 1.375.75.391 0 1.063-.125 1.47-.906.296-.579.312-1.297.312-1.813ZM2.11-.062c-.266 0-.813-.126-.985-.954-.094-.453-.094-1.203-.094-1.625 0-.546 0-1.109.094-1.546.172-.813.781-.891.984-.891.266 0 .829.14.985.86.094.437.094 1.046.094 1.577 0 .47 0 1.188-.094 1.641-.172.828-.719.938-.985.938Zm0 0"/></symbol><symbol overflow="visible" id="e"><path style="stroke:none" d="M2.25-1.625c.125-.125.453-.39.594-.5.484-.453.953-.89.953-1.61 0-.953-.797-1.562-1.781-1.562-.97 0-1.594.719-1.594 1.438 0 .39.312.437.422.437.172 0 .422-.11.422-.422 0-.406-.407-.406-.5-.406.234-.594.765-.781 1.156-.781.734 0 1.125.625 1.125 1.297 0 .828-.578 1.437-1.531 2.39l-1 1.047C.422-.219.422-.203.422 0h3.14l.235-1.422h-.25c-.016.156-.078.547-.172.703-.047.063-.656.063-.781.063H1.172Zm0 0"/></symbol><symbol overflow="visible" id="f"><path style="stroke:none" d="M1.11-4.484c.109.03.421.125.765.125 1 0 1.594-.704 1.594-.829 0-.093-.047-.109-.094-.109-.016 0-.031 0-.094.031a2.982 2.982 0 0 1-1.11.22c-.468 0-.858-.11-1.108-.22-.079-.03-.094-.03-.11-.03-.094 0-.094.077-.094.234v2.328c0 .14 0 .234.125.234.063 0 .079-.031.125-.094.094-.11.391-.515 1.079-.515.437 0 .656.359.734.515.125.281.14.656.14.953 0 .297 0 .735-.218 1.079-.156.25-.485.484-.906.484A1.271 1.271 0 0 1 .734-.922c.016.016.079.016.079.016.218 0 .406-.14.406-.39a.388.388 0 0 0-.39-.407c-.157 0-.407.078-.407.422 0 .718.625 1.453 1.531 1.453 1 0 1.844-.781 1.844-1.766 0-.922-.672-1.75-1.61-1.75-.39 0-.765.125-1.078.406Zm0 0"/></symbol><symbol overflow="visible" id="g"><path style="stroke:none" d="M4.031-4.86c.078-.077.078-.093.078-.265H2.08a8.79 8.79 0 0 1-.642-.031c-.421-.032-.421-.11-.453-.235h-.25L.47-3.703h.25c.015-.125.11-.672.219-.735.078-.046.687-.046.796-.046h1.688l-.813 1.109C1.703-2.172 1.5-.906 1.5-.281c0 .078 0 .453.375.453s.375-.36.375-.453v-.39c0-1.141.203-2.079.594-2.61Zm0 0"/></symbol><symbol overflow="visible" id="h"><path style="stroke:none" d="M2.5-5.078c0-.219-.016-.219-.234-.219-.329.313-.75.5-1.5.5v.266c.218 0 .64 0 1.109-.203v4.078c0 .297-.031.39-.781.39H.812V0c.329-.031 1.016-.031 1.375-.031.36 0 1.047 0 1.376.031v-.266H3.28c-.75 0-.781-.093-.781-.39Zm0 0"/></symbol><symbol overflow="visible" id="j"><path style="stroke:none" d="M2.016-2.656c.625 0 1.03.453 1.03 1.297 0 1-.562 1.28-.983 1.28-.438 0-1.047-.155-1.329-.577.297 0 .5-.188.5-.438 0-.265-.187-.437-.453-.437-.203 0-.437.125-.437.453 0 .75.812 1.25 1.734 1.25 1.047 0 1.797-.734 1.797-1.531 0-.672-.531-1.266-1.344-1.454.625-.218 1.11-.75 1.11-1.39 0-.64-.72-1.094-1.547-1.094-.86 0-1.5.453-1.5 1.063 0 .296.187.421.406.421.25 0 .406-.171.406-.406 0-.297-.265-.406-.437-.406.344-.438.953-.469 1.094-.469.203 0 .812.063.812.89 0 .548-.234.891-.344 1.016-.234.25-.422.266-.906.297-.156 0-.219.016-.219.125 0 .11.078.11.219.11Zm0 0"/></symbol><symbol overflow="visible" id="i"><path style="stroke:none" d="M1.625-.438a.463.463 0 0 0-.453-.453.447.447 0 0 0-.438.438.44.44 0 0 0 .438.453.45.45 0 0 0 .453-.438Zm0 0"/></symbol><clipPath id="a"><path d="M96 83h10.605v15H96Zm0 0"/></clipPath><clipPath id="b"><path d="M96 40h10.605v15H96Zm0 0"/></clipPath><clipPath id="c"><path d="M96 0h10.605v11H96Zm0 0"/></clipPath></defs><path style="fill:none;stroke-width:.3985;stroke-linecap:round;stroke-linejoin:miter;stroke:gray;stroke-opacity:1;stroke-miterlimit:10" d="M-2.775-1.992V0M41.13-1.992V0M59.318-1.992V0M73.275-1.992V0M-2.775 87.59v1.993M41.13 87.59v1.993M59.318 87.59v1.993M73.275 87.59v1.993M-4.771 0h1.996M-4.771 21.899h1.996M-4.771 43.797h1.996M-4.771 65.692h1.996M-4.771 87.59h1.996M85.041 0h1.992M85.041 21.899h1.992M85.041 43.797h1.992M85.041 65.692h1.992M85.041 87.59h1.992" transform="matrix(1 0 0 -1 18.373 90.938)"/><path style="fill:none;stroke-width:.3985;stroke-linecap:butt;stroke-linejoin:miter;stroke:gray;stroke-opacity:1;stroke-miterlimit:10" d="M-2.775 0H85.04M-2.775 87.59H85.04M-2.775 0v87.59M85.041 0v87.59" transform="matrix(1 0 0 -1 18.373 90.938)"/><path style="fill:none;stroke-width:.3985;stroke-linecap:butt;stroke-linejoin:miter;stroke:#000;stroke-opacity:1;stroke-miterlimit:10" d="m-4.186-1.41 2.817 2.82m-2.817 0 2.817-2.82M-4.186 42.387l2.817 2.817m-2.817 0 2.817-2.817M-4.186 86.18-1.369 89m-2.817 0 2.817-2.82M23.584-1.41 26.4 1.41m-2.816 0L26.4-1.41M23.584 42.387l2.816 2.817m-2.816 0 2.816-2.817M23.584 86.18 26.4 89m-2.816 0 2.816-2.82M35.088-1.41l2.816 2.82m-2.816 0 2.816-2.82M35.088 42.387l2.816 2.817m-2.816 0 2.816-2.817M35.088 86.18 37.904 89m-2.816 0 2.816-2.82M43.912-1.41l2.82 2.82m-2.82 0 2.82-2.82M43.912 42.387l2.82 2.817m-2.82 0 2.82-2.817M43.912 86.18l2.82 2.82m-2.82 0 2.82-2.82M51.354-1.41l2.816 2.82m-2.816 0 2.816-2.82M51.354 42.387l2.816 2.817m-2.816 0 2.816-2.817M51.354 86.18 54.17 89m-2.816 0 2.816-2.82M57.908-1.41l2.82 2.82m-2.82 0 2.82-2.82M57.908 42.387l2.82 2.817m-2.82 0 2.82-2.817M57.908 86.18l2.82 2.82m-2.82 0 2.82-2.82M63.838-1.41l2.816 2.82m-2.816 0 2.816-2.82M63.838 42.387l2.816 2.817m-2.816 0 2.816-2.817M63.838 86.18 66.654 89m-2.816 0 2.816-2.82M69.287-1.41l2.817 2.82m-2.817 0 2.817-2.82M69.287 42.387l2.817 2.817m-2.817 0 2.817-2.817M69.287 86.18 72.104 89m-2.817 0 2.817-2.82M74.357-1.41l2.82 2.82m-2.82 0 2.82-2.82M74.357 42.387l2.82 2.817m-2.82 0 2.82-2.817M74.357 86.18l2.82 2.82m-2.82 0 2.82-2.82M79.123-1.41l2.82 2.82m-2.82 0 2.82-2.82M79.123 42.387l2.82 2.817m-2.82 0 2.82-2.817M79.123 86.18l2.82 2.82m-2.82 0 2.82-2.82" transform="matrix(1 0 0 -1 18.373 90.938)"/><g clip-path="url(#a)"><path style="fill:none;stroke-width:.3985;stroke-linecap:butt;stroke-linejoin:miter;stroke:#000;stroke-opacity:1;stroke-miterlimit:10" d="m83.63-1.41 2.821 2.82m-2.82 0 2.82-2.82" transform="matrix(1 0 0 -1 18.373 90.938)"/></g><g clip-path="url(#b)"><path style="fill:none;stroke-width:.3985;stroke-linecap:butt;stroke-linejoin:miter;stroke:#000;stroke-opacity:1;stroke-miterlimit:10" d="m83.63 42.387 2.821 2.817m-2.82 0 2.82-2.817" transform="matrix(1 0 0 -1 18.373 90.938)"/></g><g clip-path="url(#c)"><path style="fill:none;stroke-width:.3985;stroke-linecap:butt;stroke-linejoin:miter;stroke:#000;stroke-opacity:1;stroke-miterlimit:10" d="M83.63 86.18 86.452 89m-2.82 0 2.82-2.82" transform="matrix(1 0 0 -1 18.373 90.938)"/></g><use xlink:href="#d" x="13.479" y="100.723" style="fill:#000;fill-opacity:1"/><g style="fill:#000;fill-opacity:1"><use xlink:href="#e" x="53.153" y="100.723"/><use xlink:href="#f" x="57.388" y="100.723"/><use xlink:href="#d" x="61.622" y="100.723"/></g><g style="fill:#000;fill-opacity:1"><use xlink:href="#f" x="71.34" y="100.723"/><use xlink:href="#d" x="75.575" y="100.723"/><use xlink:href="#d" x="79.809" y="100.723"/></g><g style="fill:#000;fill-opacity:1"><use xlink:href="#g" x="85.295" y="100.723"/><use xlink:href="#f" x="89.53" y="100.723"/><use xlink:href="#d" x="93.764" y="100.723"/></g><use xlink:href="#h" x="6.714" y="93.506" style="fill:#000;fill-opacity:1"/><use xlink:href="#h" x=".127" y="71.609" style="fill:#000;fill-opacity:1"/><use xlink:href="#i" x="4.361" y="71.609" style="fill:#000;fill-opacity:1"/><use xlink:href="#f" x="6.714" y="71.609" style="fill:#000;fill-opacity:1"/><use xlink:href="#e" x="6.714" y="49.712" style="fill:#000;fill-opacity:1"/><use xlink:href="#e" x=".127" y="27.814" style="fill:#000;fill-opacity:1"/><use xlink:href="#i" x="4.361" y="27.814" style="fill:#000;fill-opacity:1"/><use xlink:href="#f" x="6.714" y="27.814" style="fill:#000;fill-opacity:1"/><use xlink:href="#j" x="6.714" y="5.917" style="fill:#000;fill-opacity:1"/></svg>