<svg xmlns="http://www.w3.org/2000/svg" xmlns:xlink="http://www.w3.org/1999/xlink" width="22.415" height="17.779" viewBox="0 0 16.811 13.334" version="1.2"><defs><symbol overflow="visible" id="a"><path style="stroke:none" d="M-6.11-4.36c-.421 0-.874.36-.874 1.141 0 .969.421 2.047 1.546 2.047h1.016v.75h.469v-.75H-.47v.688H0l-.031-1.25c0-.375 0-1.016.031-1.375h-.469v.859h-3.484v-1.14h-.469v1.203h-1.016c-1.093 0-1.187-.75-1.187-1 0-.047 0-.11.031-.172.11.156.297.234.485.234.421 0 .609-.36.609-.61 0-.296-.203-.624-.61-.624Zm0 0"/></symbol></defs><path style="fill:none;stroke-width:1.19553;stroke-linecap:butt;stroke-linejoin:miter;stroke:#00f;stroke-opacity:1;stroke-miterlimit:10" d="M-5.068-6.807H5.068V6.807H-5.068Zm0 0" transform="matrix(0 -1 -1 0 8.31 6.334)"/><use xlink:href="#a" x="11.797" y="8.083" style="fill:#000;fill-opacity:1"/></svg>