<svg xmlns="http://www.w3.org/2000/svg" width="116.883" height="78.843" viewBox="0 0 87.662 59.132" version="1.2"><defs><clipPath id="a"><path d="M0 0h87.492v58.7H0Zm0 0"/></clipPath></defs><path style="fill:none;stroke-width:.19925;stroke-linecap:butt;stroke-linejoin:miter;stroke:gray;stroke-opacity:1;stroke-miterlimit:10" d="M.001 0h85.04M0 28.348h85.04M0 56.684h85.04M0 0v56.692M28.345 0v56.692M56.693 0v56.692M85.029 0v56.692" transform="matrix(1 0 0 -1 .94 57.512)"/><g clip-path="url(#a)"><path style="fill:none;stroke-width:.3985;stroke-linecap:butt;stroke-linejoin:miter;stroke:#000;stroke-opacity:1;stroke-miterlimit:10" d="M.001 0c41.72 16.532 41.72 16.532 85.012 28.336-22.601 12.106-22.601 12.106-42.469 28.34-19.89-16.219-19.89-16.219-42.52-28.312" transform="matrix(1 0 0 -1 .94 57.512)"/></g></svg>