<svg xmlns="http://www.w3.org/2000/svg" xmlns:xlink="http://www.w3.org/1999/xlink" width="167.3" height="101.836" viewBox="0 0 125.475 76.377" version="1.2"><defs><symbol overflow="visible" id="a"><path style="stroke:none" d="M4.14-1.39c0-.438-.202-.782-.546-1.063-.39-.281-.719-.344-1.485-.485-.375-.062-1.015-.171-1.015-.64 0-.625.922-.625 1.11-.625.75 0 1.124.297 1.171.844.016.156.031.203.234.203.235 0 .235-.047.235-.281v-.797c0-.188 0-.282-.172-.282-.047 0-.063 0-.453.188-.266-.125-.61-.188-1-.188-.313 0-1.844 0-1.844 1.313 0 .39.203.656.406.828.39.344.781.406 1.547.547.36.062 1.094.187 1.094.781 0 .75-.906.75-1.125.75C1.234-.297.984-1.03.859-1.453c-.046-.14-.109-.14-.234-.14-.25 0-.25.062-.25.28v1.094c0 .188 0 .281.188.281.062 0 .078 0 .296-.156l.25-.172c.47.329.985.329 1.188.329.312 0 1.844 0 1.844-1.454Zm0 0"/></symbol><symbol overflow="visible" id="b"><path style="stroke:none" d="M5.406-2.172c0-1.344-.922-2.344-2.547-2.344C1.22-4.516.313-3.5.313-2.172c0 1.235.89 2.235 2.546 2.235 1.672 0 2.547-1.016 2.547-2.235Zm-1.281-.11c0 .86 0 1.938-1.266 1.938-1.265 0-1.265-1.078-1.265-1.937 0-.453 0-.953.172-1.297.187-.375.609-.578 1.093-.578.422 0 .844.156 1.063.5.203.344.203.89.203 1.375Zm0 0"/></symbol><symbol overflow="visible" id="c"><path style="stroke:none" d="M9.328 0v-.469h-.687v-2.578c0-1.031-.516-1.437-1.547-1.437-.907 0-1.422.5-1.688.953-.187-.922-1.11-.953-1.484-.953-.875 0-1.438.453-1.766 1.078v-1.078l-1.703.078v.468c.61 0 .688 0 .688.391v3.078H.453V0l1.25-.031L2.953 0v-.469h-.687v-2.078c0-1.094.875-1.578 1.5-1.578.328 0 .546.203.546.969V-.47h-.687V0l1.266-.031L6.14 0v-.469h-.688v-2.078c0-1.094.86-1.578 1.484-1.578.344 0 .563.203.563.969V-.47h-.688V0l1.25-.031Zm0 0"/></symbol><symbol overflow="visible" id="d"><path style="stroke:none" d="M4.922-1.172c0-.172-.188-.172-.234-.172-.172 0-.188.047-.25.203-.204.485-.782.797-1.422.797-1.407 0-1.422-1.328-1.422-1.828h3.015c.22 0 .313 0 .313-.265 0-.313-.063-1.047-.563-1.547-.359-.36-.89-.532-1.578-.532C1.187-4.516.312-3.484.312-2.25c0 1.344 1 2.313 2.61 2.313 1.578 0 2-1.063 2-1.235ZM3.984-2.5h-2.39c.015-.39.031-.813.234-1.14.266-.391.672-.516.953-.516 1.172 0 1.188 1.312 1.203 1.656Zm0 0"/></symbol><symbol overflow="visible" id="e"><path style="stroke:none" d="M6.125 0v-.469h-.688v-2.578c0-1.047-.53-1.437-1.53-1.437-.954 0-1.485.562-1.75 1.078v-1.078l-1.704.078v.468c.61 0 .688 0 .688.391v3.078H.453V0l1.25-.031L2.953 0v-.469h-.687v-2.078c0-1.094.859-1.578 1.5-1.578.328 0 .546.203.546.969V-.47h-.687V0l1.25-.031Zm0 0"/></symbol><symbol overflow="visible" id="f"><path style="stroke:none" d="M5.984 0v-.469c-.609 0-.687 0-.687-.39v-6.063l-1.766.078v.469c.625 0 .703 0 .703.39v1.954a2.178 2.178 0 0 0-1.359-.453c-1.453 0-2.5.875-2.5 2.28 0 1.313.922 2.267 2.39 2.267.61 0 1.094-.235 1.407-.485v.484ZM4.172-1.031c-.14.187-.547.734-1.297.734-1.219 0-1.219-1.203-1.219-1.906 0-.485 0-1.016.25-1.406.297-.422.766-.516 1.078-.516.563 0 .97.313 1.188.61Zm0 0"/></symbol><symbol overflow="visible" id="g"><path style="stroke:none" d="M3.328-1c0-.5-.39-1.063-1.39-1.063a1.79 1.79 0 0 0-.782.157v-.547c.188.031.407.031.407.031A1.94 1.94 0 0 0 2.968-3c.078-.078.078-.078.078-.156 0-.031 0-.14-.11-.14 0 0-.015 0-.046.015-.204.047-.547.14-1.016.14-.344 0-.672-.046-1-.14-.047-.016-.063-.016-.078-.016-.11 0-.11.11-.11.188v1.5c0 .156.032.187.188.187.11 0 .11 0 .203-.094.078-.062.281-.28.828-.28.657 0 .657.468.657.765s0 .812-.844.812c-.078 0-.453 0-.688-.203a.39.39 0 0 0 .203-.344.4.4 0 0 0-.39-.406c-.188 0-.406.125-.406.406 0 .485.5.844 1.296.844C2.844.078 3.328-.453 3.328-1Zm0 0"/></symbol><symbol overflow="visible" id="h"><path style="stroke:none" d="M5.875 0v-.328h-.36v-1.14c0-.735-.577-.782-.952-.782-.329 0-.766.063-1.094.469-.14-.36-.422-.469-.922-.469-.688 0-1.016.36-1.125.531v-.531l-.938.031v.344c.313 0 .36 0 .36.188v1.359h-.36V0l.688-.016c.187 0 .469 0 .687.016v-.328H1.5v-.875c0-.61.625-.766.922-.766.328 0 .422.11.422.485v1.156H2.5V0l.688-.016c.187 0 .468 0 .687.016v-.328h-.36v-.875c0-.61.626-.766.922-.766.313 0 .422.11.422.485v1.156H4.5V0l.688-.016c.187 0 .468 0 .687.016Zm0 0"/></symbol><symbol overflow="visible" id="i"><path style="stroke:none" d="M3.5-1.078c0-.563-.438-1.188-1.61-1.188-1.187 0-1.609.641-1.609 1.188C.281-.547.72.047 1.891.047 3.062.047 3.5-.547 3.5-1.078Zm-.75-.063c0 .407 0 .875-.86.875-.859 0-.859-.468-.859-.875 0-.39 0-.859.86-.859.859 0 .859.469.859.86Zm0 0"/></symbol><symbol overflow="visible" id="j"><path style="stroke:none" d="M2.813-3c0-.25-.22-.5-.688-.5-.672 0-1.266.266-1.266.828v.453h-.5v.344h.5v1.547H.5V0c.234-.016.469-.016.688-.016.28 0 .578 0 .75.016v-.328h-.454v-1.547h.75v-.344h-.78v-.437c0-.078 0-.281.155-.422a.805.805 0 0 1 .454-.14c.062 0 .062.015.062.015v.015A.371.371 0 0 0 2.078-3c0 .25.203.36.36.36.187 0 .374-.126.374-.36Zm0 0"/></symbol><symbol overflow="visible" id="k"><path style="stroke:none" d="M2.688-.703a.6.6 0 0 0-.344-.531c-.25-.141-.375-.157-.985-.235-.343-.062-.625-.093-.625-.281 0-.125.141-.281.735-.281.515 0 .61.14.625.328.015.11.047.125.172.125h.062c.156 0 .172-.031.172-.172v-.344c0-.11 0-.172-.14-.172a.75.75 0 0 0-.235.063c-.219-.063-.469-.063-.625-.063-.188 0-.516 0-.797.125-.312.141-.375.375-.375.532 0 .515.672.609 1.047.671.594.079.906.11.906.36 0 .344-.61.344-.734.344-.453 0-.672-.141-.797-.47C.703-.796.687-.796.562-.796H.5c-.156 0-.172.016-.172.172v.484c0 .11 0 .188.14.188.063 0 .063 0 .173-.063a.734.734 0 0 0 .14-.093c.281.156.61.156.75.156.203 0 1.157 0 1.157-.75Zm0 0"/></symbol><symbol overflow="visible" id="l"><path style="stroke:none" d="M3.172-.547c0-.125-.125-.125-.203-.125h-.031c-.094 0-.126 0-.172.063-.047.093-.188.343-.72.343-.64 0-.968-.25-1.015-.718H2.97c.11 0 .203 0 .203-.157 0-.296-.11-.625-.328-.812-.235-.203-.531-.313-1.016-.313-1.125 0-1.547.61-1.547 1.141S.703.047 1.921.047c.126 0 .47 0 .782-.125.328-.14.469-.406.469-.469Zm-.516-.687H1.031c.016-.188.016-.766.797-.766.672 0 .813.438.828.766Zm0 0"/></symbol><symbol overflow="visible" id="m"><path style="stroke:none" d="M3.875 0v-.328h-.36v-1.14c0-.735-.609-.782-.968-.782-.672 0-1 .344-1.125.531v-.531l-.938.031v.344c.313 0 .36 0 .36.188v1.359h-.36V0l.688-.016c.187 0 .469 0 .687.016v-.328H1.5v-.875c0-.61.625-.766.922-.766.328 0 .422.125.422.485v1.156h-.36V0l.704-.016c.171 0 .468 0 .687.016Zm0 0"/></symbol><symbol overflow="visible" id="n"><path style="stroke:none" d="M3.766 0v-.328c-.329 0-.36 0-.36-.203v-2.922l-.984.031v.344c.312 0 .36 0 .36.187v.844c-.204-.11-.5-.203-.891-.203-1.079 0-1.563.563-1.563 1.156 0 .532.422 1.14 1.484 1.14.391 0 .704-.108.922-.25v.25ZM2.734-.656a1.038 1.038 0 0 1-.843.422c-.813 0-.813-.594-.813-.86 0-.265 0-.875.875-.875.219 0 .469.047.688.219.093.078.093.094.093.188Zm0 0"/></symbol><symbol overflow="visible" id="o"><path style="stroke:none" d="M1.516-.422a.434.434 0 0 0-.422-.437.447.447 0 0 0-.438.437c0 .234.203.422.438.422a.42.42 0 0 0 .422-.422Zm0 0"/></symbol><symbol overflow="visible" id="p"><path style="stroke:none" d="M2.813-1.781c0-.282-.282-.469-.626-.469-.437 0-.734.313-.859.594h-.016v-.594l-.89.031v.344c.312 0 .36 0 .36.188v1.359h-.36V0c.219-.016.453-.016.687-.016.282 0 .563 0 .735.016v-.328h-.438v-.656c0-.532.313-.954.735-.985-.032.047-.047.078-.047.188 0 .218.156.36.36.36.202 0 .358-.141.358-.36Zm0 0"/></symbol><symbol overflow="visible" id="q"><path style="stroke:none" d="M2.484-.594v-.234h-.406v.219c0 .14-.047.343-.344.343-.312 0-.312-.203-.312-.343v-1.266h.953v-.344h-.953v-.953H1c0 .516-.266 1-.781 1.016v.281H.75v1.281c0 .563.547.64.875.64.36 0 .86-.14.86-.64Zm0 0"/></symbol><symbol overflow="visible" id="r"><path style="stroke:none" d="M3.875 0v-.328h-.36v-1.14c0-.735-.609-.782-.968-.782-.5 0-.844.172-1.078.469v-1.672l-.985.031v.344c.313 0 .36 0 .36.187v2.563h-.36V0l.688-.016c.187 0 .469 0 .687.016v-.328H1.5v-.875c0-.61.625-.766.922-.766.328 0 .422.125.422.485v1.156h-.36V0l.704-.016c.171 0 .468 0 .687.016Zm0 0"/></symbol><symbol overflow="visible" id="s"><path style="stroke:none" d="M3.563-.172c0-.156-.079-.156-.188-.156h-.031c-.063 0-.25 0-.344-.063v-1.062c0-.39-.313-.813-1.375-.813-.36 0-1.094 0-1.094.532a.36.36 0 0 0 .375.375.361.361 0 0 0 .375-.375.373.373 0 0 0-.078-.22C1.391-2 1.547-2 1.625-2c.453 0 .703.172.703.563v.109c-.062 0-.578-.016-1.062.078-.594.11-.97.281-.97.656 0 .64.954.64 1.157.64.484 0 .844-.124 1-.343C2.5 0 2.843 0 3.22 0c.312 0 .344 0 .344-.172ZM2.327-.656c0 .11 0 .25-.25.344-.203.078-.469.078-.5.078-.36 0-.625-.141-.625-.375 0-.438 1.14-.485 1.375-.485Zm0 0"/></symbol><symbol overflow="visible" id="t"><path style="stroke:none" d="M3.188 0v-.328H2.28V-3.11c0-.157-.015-.188-.187-.188H2c-.438.328-1.078.328-1.188.328h-.14v.328h.14c.063 0 .438 0 .813-.125v2.438H.719V0c.25-.016.953-.016 1.234-.016s1 0 1.234.016Zm0 0"/></symbol><symbol overflow="visible" id="u"><path style="stroke:none" d="M3.094-.547c0-.11-.094-.11-.203-.11-.157 0-.172 0-.204.079-.078.14-.218.312-.64.312-.25 0-.5-.046-.703-.203-.172-.125-.266-.344-.266-.656 0-.625.313-.844.86-.844.218 0 .328.016.39.032a.344.344 0 0 0-.062.203c0 .218.156.375.375.375a.36.36 0 0 0 .375-.375c0-.532-.75-.532-1.079-.532-1.375 0-1.609.782-1.609 1.157 0 .515.39 1.156 1.563 1.156.14 0 .468 0 .75-.125.328-.14.453-.422.453-.469Zm0 0"/></symbol></defs><path style="fill:none;stroke-width:.19925;stroke-linecap:butt;stroke-linejoin:miter;stroke:gray;stroke-opacity:1;stroke-miterlimit:10" d="M.002 0h56.691M.002 28.349h56.691M.002 56.684h56.691M.002.001v56.691M28.346.001v56.691M56.686.001v56.691" transform="matrix(1 0 0 -1 14.521 74.966)"/><path style="fill:none;stroke-width:.3985;stroke-linecap:butt;stroke-linejoin:miter;stroke:#000;stroke-opacity:1;stroke-miterlimit:10" d="M-1.42 21.54h59.535v13.613H-1.42Zm0 0" transform="matrix(1 0 0 -1 14.521 74.966)"/><g style="fill:#000;fill-opacity:1"><use xlink:href="#a" x="16.422" y="50.047"/><use xlink:href="#b" x="20.945" y="50.047"/><use xlink:href="#c" x="26.673" y="50.047"/><use xlink:href="#d" x="36.217" y="50.047"/></g><g style="fill:#000;fill-opacity:1"><use xlink:href="#e" x="45.283" y="50.047"/><use xlink:href="#b" x="51.649" y="50.047"/></g><g style="fill:#000;fill-opacity:1"><use xlink:href="#f" x="57.697" y="50.047"/><use xlink:href="#d" x="64.063" y="50.047"/></g><path style="fill:none;stroke-width:.3985;stroke-linecap:butt;stroke-linejoin:miter;stroke:#000;stroke-opacity:1;stroke-miterlimit:10" d="M7.135 49.727H109.49V59.95H7.135Zm0 0" transform="matrix(1 0 0 -1 14.521 74.966)"/><g style="fill:#000;fill-opacity:1"><use xlink:href="#g" x="24.976" y="21.834"/><use xlink:href="#h" x="28.751" y="21.834"/><use xlink:href="#h" x="34.938" y="21.834"/></g><g style="fill:#000;fill-opacity:1"><use xlink:href="#i" x="43.695" y="21.834"/><use xlink:href="#j" x="47.471" y="21.834"/></g><g style="fill:#000;fill-opacity:1"><use xlink:href="#k" x="52.418" y="21.834"/><use xlink:href="#i" x="55.431" y="21.834"/><use xlink:href="#h" x="59.207" y="21.834"/><use xlink:href="#l" x="65.394" y="21.834"/><use xlink:href="#m" x="68.841" y="21.834"/><use xlink:href="#i" x="73.02" y="21.834"/></g><g style="fill:#000;fill-opacity:1"><use xlink:href="#n" x="76.995" y="21.834"/><use xlink:href="#l" x="81.175" y="21.834"/><use xlink:href="#o" x="84.622" y="21.834"/><use xlink:href="#m" x="86.794" y="21.834"/><use xlink:href="#i" x="90.973" y="21.834"/><use xlink:href="#p" x="94.749" y="21.834"/><use xlink:href="#q" x="97.847" y="21.834"/><use xlink:href="#r" x="100.821" y="21.834"/></g><g style="fill:#000;fill-opacity:1"><use xlink:href="#l" x="107.576" y="21.834"/><use xlink:href="#s" x="111.023" y="21.834"/><use xlink:href="#k" x="114.699" y="21.834"/><use xlink:href="#q" x="117.713" y="21.834"/></g><path style="fill:none;stroke-width:.3985;stroke-linecap:butt;stroke-linejoin:miter;stroke:#000;stroke-opacity:1;stroke-miterlimit:10" d="M-13.584 63.9h83.863v10.179h-83.863Zm0 0" transform="matrix(1 0 0 -1 14.521 74.966)"/><g style="fill:#000;fill-opacity:1"><use xlink:href="#t" x="4.258" y="7.707"/><use xlink:href="#u" x="8.033" y="7.707"/><use xlink:href="#h" x="11.411" y="7.707"/></g><g style="fill:#000;fill-opacity:1"><use xlink:href="#i" x="20.173" y="7.707"/><use xlink:href="#j" x="23.949" y="7.707"/></g><g style="fill:#000;fill-opacity:1"><use xlink:href="#k" x="28.895" y="7.707"/><use xlink:href="#i" x="31.909" y="7.707"/><use xlink:href="#h" x="35.685" y="7.707"/><use xlink:href="#l" x="41.871" y="7.707"/><use xlink:href="#m" x="45.319" y="7.707"/><use xlink:href="#i" x="49.498" y="7.707"/></g><g style="fill:#000;fill-opacity:1"><use xlink:href="#n" x="53.473" y="7.707"/><use xlink:href="#l" x="57.652" y="7.707"/><use xlink:href="#o" x="61.099" y="7.707"/><use xlink:href="#m" x="63.271" y="7.707"/><use xlink:href="#i" x="67.451" y="7.707"/><use xlink:href="#p" x="71.226" y="7.707"/><use xlink:href="#q" x="74.325" y="7.707"/><use xlink:href="#r" x="77.299" y="7.707"/></g></svg>