<svg xmlns="http://www.w3.org/2000/svg" width="134.403" height="97.371" viewBox="0 0 100.802 73.028" version="1.2"><defs><clipPath id="a"><path d="M0 0h77v72.543H0Zm0 0"/></clipPath></defs><g clip-path="url(#a)"><path style="fill:none;stroke-width:.3985;stroke-linecap:butt;stroke-linejoin:miter;stroke:#000;stroke-opacity:1;stroke-miterlimit:10" d="m0 0 69.458 69.456" transform="matrix(1 0 0 -1 1.046 70.546)"/></g><path style="fill:none;stroke-width:.3985;stroke-linecap:round;stroke-linejoin:round;stroke:#000;stroke-opacity:1;stroke-miterlimit:10" d="M-2.071 2.39C-1.693.958-.851.28 0 0c-.85-.276-1.696-.956-2.074-2.39" transform="scale(1 -1) rotate(45 36.467 84.8)"/><path style="stroke:none;fill-rule:nonzero;fill:#000;fill-opacity:1" d="M30.39 70.547a.995.995 0 1 0-1.994-.002.995.995 0 0 0 1.995.002ZM31.953 63.633a.999.999 0 0 0-1.996 0 1 1 0 0 0 .996.996c.55 0 1-.45 1-.996ZM32.664 56.867a.995.995 0 1 0-1.99-.001.995.995 0 0 0 1.99.001ZM32.57 50.395a.995.995 0 1 0-1.994-.002.995.995 0 0 0 1.994.002ZM31.727 44.355a.995.995 0 1 0-1.991-.001.995.995 0 0 0 1.99.001ZM30.227 38.867a.998.998 0 0 0-.997-.996.995.995 0 1 0 .996.996ZM28.172 34.043a.995.995 0 1 0-1.99-.002.995.995 0 0 0 1.99.002ZM25.684 29.96a.995.995 0 1 0-1.99 0 .995.995 0 0 0 1.99 0ZM22.906 26.688a1 1 0 0 0-.996-.997.998.998 0 0 0 0 1.997c.547 0 .996-.45.996-1ZM19.977 24.266c0-.551-.45-.996-.997-.996a.995.995 0 1 0 .997.996ZM17.047 22.703a.998.998 0 0 0-1.996 0 .999.999 0 0 0 1.996 0ZM14.266 21.992a.995.995 0 1 0-1.99-.001.995.995 0 0 0 1.99.001ZM11.777 22.086a.995.995 0 1 0-1.99-.002.995.995 0 0 0 1.99.002ZM9.723 22.93a.995.995 0 1 0-1.99-.002.995.995 0 0 0 1.99.002Zm0 0"/><path style="stroke:none;fill-rule:nonzero;fill:#000;fill-opacity:1" d="M8.223 24.43a.995.995 0 1 0-1.99-.002.995.995 0 0 0 1.99.002ZM7.383 26.484a.999.999 0 0 0-1.996 0 .998.998 0 0 0 1.996 0ZM7.285 28.969a.998.998 0 0 0-.996-.996.995.995 0 1 0 .996.996ZM8 31.75a.995.995 0 1 0-1.994-.002A.995.995 0 0 0 8 31.75ZM9.563 34.68a.998.998 0 0 0-1.997 0 .999.999 0 0 0 1.997 0ZM11.984 37.61a.995.995 0 1 0-1.99-.002.995.995 0 0 0 1.99.001ZM15.254 40.39a.995.995 0 1 0-1.99-.001.995.995 0 0 0 1.99.002ZM19.336 42.875a.998.998 0 0 0-.996-.996.995.995 0 1 0 .996.996ZM24.164 44.93a.998.998 0 0 0-.996-.996.998.998 0 0 0 0 1.996c.55 0 .996-.45.996-1ZM29.648 46.434a.995.995 0 1 0-1.99-.002.995.995 0 0 0 1.99.002ZM35.688 47.273a.995.995 0 1 0-1.991-.001.995.995 0 0 0 1.99.001ZM42.16 47.371a.995.995 0 1 0-1.99-.002.995.995 0 0 0 1.99.002ZM48.926 46.656a.995.995 0 1 0-1.99-.001.995.995 0 0 0 1.99.001ZM55.84 45.094a.995.995 0 1 0-1.99-.002.995.995 0 0 0 1.99.002ZM62.754 42.672a.995.995 0 1 0-1.99-.002.995.995 0 0 0 1.99.002ZM69.52 39.398a.998.998 0 0 0-.997-.996.998.998 0 0 0 0 1.996c.551 0 .997-.449.997-1ZM75.992 35.32a.995.995 0 1 0-1.99-.001.995.995 0 0 0 1.99.001ZM82.031 30.492a.995.995 0 1 0-1.99-.001.995.995 0 0 0 1.99.001ZM87.52 25.008a.999.999 0 0 0-1.997 0 1 1 0 0 0 .997.996c.55 0 1-.45 1-.996ZM92.344 18.965a.995.995 0 1 0-1.99-.002.995.995 0 0 0 1.99.002ZM96.426 12.496a.995.995 0 1 0-1.99-.002.995.995 0 0 0 1.99.002ZM99.695 5.73a.995.995 0 1 0-1.99-.001.995.995 0 0 0 1.99.001Zm0 0"/></svg>