<svg xmlns="http://www.w3.org/2000/svg" width="116.331" height="78.651" viewBox="0 0 87.248 58.988" version="1.2"><defs><clipPath id="a"><path d="M0 23h64v35.98H0Zm0 0"/></clipPath><clipPath id="b"><path d="M0 30h49v28.98H0Zm0 0"/></clipPath></defs><path style="fill:none;stroke-width:.19925;stroke-linecap:butt;stroke-linejoin:miter;stroke:gray;stroke-opacity:1;stroke-miterlimit:10" d="M.001.002h85.04M0 28.346h85.04M0 56.686h85.04M0 .001v56.691M28.345.002v56.691M56.693.002v56.691M85.029.002v56.691" transform="matrix(1 0 0 -1 .733 57.787)"/><g clip-path="url(#a)"><path style="fill:none;stroke-width:.3985;stroke-linecap:butt;stroke-linejoin:miter;stroke:#000;stroke-opacity:1;stroke-miterlimit:10" d="m.001.002 56.692 28.344L28.345.002" transform="matrix(1 0 0 -1 .733 57.787)"/></g><g clip-path="url(#b)"><path style="fill:none;stroke-width:.3985;stroke-linecap:butt;stroke-linejoin:miter;stroke:red;stroke-opacity:1;stroke-miterlimit:10" d="m.001.002 42.52 21.258L21.259.002" transform="matrix(1 0 0 -1 .733 57.787)"/></g></svg>