<svg xmlns="http://www.w3.org/2000/svg" width="40.484" height="20.931" viewBox="0 0 30.363 15.698" version="1.2"><defs><clipPath id="a"><path d="M19 0h11.043v11H19Zm0 0"/></clipPath></defs><path style="fill:none;stroke-width:.3985;stroke-linecap:butt;stroke-linejoin:miter;stroke:#000;stroke-opacity:1;stroke-miterlimit:10" d="M0 .002h27.95" transform="matrix(1 0 0 -1 .69 11.955)"/><path style="fill:none;stroke-width:.3985;stroke-linecap:round;stroke-linejoin:round;stroke:#000;stroke-opacity:1;stroke-miterlimit:10" d="M-2.072 2.393C-1.694.955-.85.279.002.002-.85-.28-1.694-.955-2.072-2.393" transform="matrix(1 0 0 -1 28.838 11.955)"/><path style="fill:none;stroke-width:.3985;stroke-linecap:butt;stroke-linejoin:miter;stroke:#000;stroke-opacity:1;stroke-miterlimit:10" d="M2.071 8.506h23.211" transform="matrix(1 0 0 -1 .69 11.955)"/><path style="fill:none;stroke-width:.3985;stroke-linecap:round;stroke-linejoin:round;stroke:#000;stroke-opacity:1;stroke-miterlimit:10" d="M2.071 2.393C1.692.955.85.28.001-.002c.848-.277 1.691-.953 2.07-2.39" transform="matrix(-1 0 0 1 2.962 3.45)"/><path style="stroke:none;fill-rule:nonzero;fill:#000;fill-opacity:1" d="m28.469 3.45-3.57-1.345 1.175 1.344-1.176 1.348Zm0 0"/><g clip-path="url(#a)"><path style="fill:none;stroke-width:.3985;stroke-linecap:butt;stroke-linejoin:miter;stroke:#000;stroke-opacity:1;stroke-miterlimit:10" d="M4.214.002.644 1.345 1.818.002.643-1.346Zm0 0" transform="matrix(1 0 0 -1 24.255 3.45)"/></g></svg>