<svg xmlns="http://www.w3.org/2000/svg" xmlns:xlink="http://www.w3.org/1999/xlink" width="55.227" height="55.227" viewBox="0 0 41.42 41.42" version="1.2"><defs><clipPath id="a"><path d="M0 0h41.129v41.129H0Zm0 0"/></clipPath><symbol overflow="visible" id="b"><path style="stroke:none" d="M2.36-.781a.784.784 0 0 0-.782-.781.78.78 0 0 0-.766.78.774.774 0 1 0 1.547 0Zm0 0"/></symbol></defs><path style="stroke:none;fill-rule:nonzero;fill:gray;fill-opacity:1" d="M11.77 29.059h11.335l-8.015 8.015H3.75Zm0 0"/><g clip-path="url(#a)"><path style="fill:none;stroke-width:.3985;stroke-linecap:butt;stroke-linejoin:miter;stroke:#000;stroke-opacity:1;stroke-miterlimit:10" d="M28.345 0H.002m-10.915-10.915L.002 0m0 28.348V0" transform="matrix(1 0 0 -1 11.768 29.058)"/></g><path style="fill:none;stroke-width:.79701;stroke-linecap:butt;stroke-linejoin:miter;stroke:red;stroke-opacity:1;stroke-miterlimit:10" d="M14.173 0v14.175H.002" transform="matrix(1 0 0 -1 11.768 29.058)"/><use xlink:href="#b" x="17.266" y="22.748" style="fill:red;fill-opacity:1"/></svg>