<svg xmlns="http://www.w3.org/2000/svg" xmlns:xlink="http://www.w3.org/1999/xlink" width="493.131" height="161.043" viewBox="0 0 369.848 120.782" version="1.2"><defs><symbol overflow="visible" id="a"><path style="stroke:none" d="M1.781-1.14C1.391-.485 1-.345.563-.314c-.125.016-.22.016-.22.204 0 .062.063.109.141.109.266 0 .579-.031.844-.031.344 0 .688.031 1 .031.063 0 .188 0 .188-.188 0-.109-.079-.124-.157-.124-.218-.016-.468-.094-.468-.344 0-.125.062-.235.14-.375l.766-1.266h2.5c.016.203.156 1.563.156 1.656 0 .297-.516.329-.719.329-.14 0-.234 0-.234.203C4.5 0 4.61 0 4.64 0c.407 0 .829-.031 1.235-.031.25 0 .89.031 1.14.031.048 0 .173 0 .173-.203 0-.11-.094-.11-.235-.11-.61 0-.61-.062-.64-.359l-.61-6.219c-.016-.203-.016-.25-.187-.25-.157 0-.204.079-.266.172Zm1.203-1.47 1.954-3.296.328 3.297Zm0 0"/></symbol><symbol overflow="visible" id="b"><path style="stroke:none" d="M1.594-.781c-.094.39-.125.469-.907.469-.171 0-.265 0-.265.203C.422 0 .516 0 .688 0H4.25C5.828 0 7-1.172 7-2.156c0-.719-.578-1.297-1.547-1.406 1.031-.188 2.078-.922 2.078-1.876 0-.734-.656-1.375-1.843-1.375h-3.36c-.187 0-.281 0-.281.204 0 .109.094.109.281.109.016 0 .203 0 .375.016.172.03.266.03.266.171 0 .032-.016.063-.031.188Zm1.5-2.875.625-2.469c.094-.344.11-.375.531-.375h1.297c.875 0 1.078.594 1.078 1.031 0 .875-.86 1.813-2.063 1.813ZM2.656-.312h-.219c-.109-.016-.14-.032-.14-.11 0-.031 0-.047.062-.219l.688-2.78h1.875c.953 0 1.156.733 1.156 1.155 0 .985-.89 1.954-2.078 1.954Zm0 0"/></symbol><symbol overflow="visible" id="c"><path style="stroke:none" d="M7.578-6.922c0-.031-.016-.11-.11-.11-.03 0-.046.016-.155.126l-.688.765c-.094-.14-.547-.89-1.656-.89C2.734-7.031.5-4.828.5-2.516.5-.875 1.672.22 3.203.22c.86 0 1.625-.39 2.156-.86.922-.812 1.094-1.718 1.094-1.75 0-.109-.11-.109-.125-.109-.062 0-.11.031-.125.11-.094.28-.328 1-1.016 1.578-.687.546-1.312.718-1.828.718-.89 0-1.953-.515-1.953-2.062 0-.578.203-2.188 1.203-3.36.61-.703 1.547-1.203 2.438-1.203 1.016 0 1.61.766 1.61 1.922 0 .406-.032.406-.032.516 0 .093.11.093.14.093.126 0 .126-.015.188-.203Zm0 0"/></symbol><symbol overflow="visible" id="d"><path style="stroke:none" d="M1.578-.781c-.094.39-.11.469-.906.469-.156 0-.266 0-.266.187C.406 0 .484 0 .672 0h3.312c2.063 0 4.032-2.11 4.032-4.281 0-1.407-.844-2.532-2.344-2.532H2.328c-.187 0-.297 0-.297.188 0 .125.078.125.281.125.126 0 .313.016.422.016.172.03.22.046.22.171 0 .032 0 .063-.032.188Zm2.156-5.344c.094-.344.11-.375.547-.375h1.063c.968 0 1.797.531 1.797 1.844 0 .484-.188 2.125-1.047 3.218A2.919 2.919 0 0 1 3.797-.313H2.453c-.094-.015-.125-.03-.125-.109 0-.031 0-.047.047-.219Zm0 0"/></symbol><symbol overflow="visible" id="e"><path style="stroke:none" d="M7.063-2.328c.015-.047.046-.11.046-.14 0 0 0-.11-.125-.11-.093 0-.109.062-.125.125-.656 1.469-1.015 2.14-2.718 2.14H2.469c-.11-.015-.14-.03-.14-.109 0-.031 0-.047.046-.219l.688-2.734h.984c.844 0 .844.219.844.469 0 .062 0 .187-.063.484-.016.047-.031.078-.031.11 0 .046.031.109.125.109.078 0 .11-.047.156-.203l.563-2.328c0-.063-.047-.11-.125-.11-.079 0-.11.063-.125.172-.22.766-.391 1-1.313 1h-.937l.593-2.406c.094-.36.11-.39.547-.39h1.407c1.203 0 1.515.28 1.515 1.109 0 .234 0 .25-.047.53 0 .048-.015.126-.015.173 0 .047.03.125.125.125.109 0 .125-.063.14-.25l.203-1.735c.032-.265-.015-.265-.265-.265H2.297c-.188 0-.297 0-.297.203 0 .11.094.11.281.11.375 0 .656 0 .656.171 0 .047 0 .063-.062.25L1.562-.78c-.093.39-.109.469-.906.469-.172 0-.281 0-.281.187C.375 0 .469 0 .656 0h5.172c.234 0 .25-.016.313-.172Zm0 0"/></symbol><symbol overflow="visible" id="f"><path style="stroke:none" d="M3.016-3.234h.968c.75 0 .829.156.829.437 0 .078 0 .188-.063.5-.031.047-.031.078-.031.11 0 .078.062.109.11.109.109 0 .109-.031.155-.203l.547-2.172c.032-.11.032-.125.032-.156a.117.117 0 0 0-.125-.11c-.094 0-.11.047-.141.219-.219.766-.438.953-1.297.953h-.906l.64-2.531c.094-.36.11-.39.547-.39h1.313c1.218 0 1.453.327 1.453 1.093 0 .234 0 .266-.031.547C7-4.703 7-4.688 7-4.656c0 .047.031.125.125.125.11 0 .11-.063.125-.25l.203-1.735c.031-.265-.016-.265-.266-.265h-4.89c-.188 0-.297 0-.297.203 0 .11.094.11.281.11.375 0 .656 0 .656.171 0 .047 0 .063-.062.25L1.562-.78c-.093.39-.109.469-.906.469-.172 0-.281 0-.281.187C.375 0 .5 0 .531 0c.281 0 1.031-.031 1.313-.031C2.172-.031 3 0 3.328 0c.094 0 .203 0 .203-.188 0-.078-.047-.109-.047-.109-.03-.016-.062-.016-.28-.016-.22 0-.267 0-.517-.015-.296-.031-.328-.078-.328-.203 0-.016 0-.078.047-.219Zm0 0"/></symbol><symbol overflow="visible" id="h"><path style="stroke:none" d="M4.75-2.36c0-1.562-.922-2.046-1.656-2.046-1.375 0-2.688 1.422-2.688 2.828C.406-.641 1 .109 2.031.109c.625 0 1.344-.234 2.094-.843.125.53.453.843.906.843.532 0 .844-.546.844-.703 0-.078-.063-.11-.125-.11-.063 0-.094.032-.125.11-.188.485-.547.485-.563.485-.312 0-.312-.782-.312-1.016 0-.203 0-.234.11-.344C5.796-2.656 6-3.812 6-3.812c0-.032-.016-.11-.125-.11-.094 0-.094.031-.14.219-.188.625-.516 1.375-.985 1.969ZM4.094-.983c-.89.765-1.657.875-2.047.875-.594 0-.906-.454-.906-1.094 0-.484.265-1.563.578-2.063.468-.734 1.015-.921 1.36-.921.983 0 .983 1.312.983 2.078 0 .375 0 .953.032 1.125Zm0 0"/></symbol><symbol overflow="visible" id="i"><path style="stroke:none" d="M5.734-5.672c0-.75-.546-1.36-1.359-1.36-.578 0-.86.157-1.203.407C2.625-6.219 2.078-5.25 1.89-4.5L.297 1.828c0 .047.047.11.125.11s.11-.032.11-.047l.702-2.766c.188.61.625.969 1.36.969.719 0 1.469-.344 1.922-.781a2.486 2.486 0 0 0 .796-1.829c0-.718-.375-1.25-.734-1.484.578-.344 1.156-.953 1.156-1.672ZM3.938-4.016c-.126.047-.235.063-.485.063-.14 0-.328.015-.437-.031.03-.11.39-.079.5-.079.203 0 .296 0 .421.047Zm1.234-1.89c0 .703-.375 1.422-.89 1.734-.282-.11-.47-.125-.766-.125-.22 0-.782-.016-.782.313 0 .28.516.25.688.25.375 0 .531 0 .828-.125.375.359.422.671.438 1.125.015.578-.22 1.328-.5 1.718-.391.532-1.063.891-1.625.891-.766 0-1.141-.578-1.141-1.281 0-.094 0-.25.047-.438l.64-2.515c.22-.86.938-2.454 2.141-2.454.578 0 .922.313.922.907Zm0 0"/></symbol><symbol overflow="visible" id="j"><path style="stroke:none" d="M.406-2.531C.796-3.671 1.891-3.687 2-3.687c1.5 0 1.61 1.75 1.61 2.53 0 .61-.047.782-.126.985-.218.719-.515 1.875-.515 2.14 0 .11.047.173.125.173.14 0 .219-.22.328-.594.234-.844.328-1.406.36-1.719.03-.125.046-.25.093-.39.313-.985.953-2.47 1.344-3.25.078-.126.187-.344.187-.391 0-.094-.093-.094-.11-.094-.03 0-.093 0-.124.063-.516.953-.922 1.953-1.313 2.953-.015-.297-.015-1.063-.406-2.032-.25-.609-.64-1.093-1.328-1.093-1.25 0-1.953 1.515-1.953 1.828 0 .094.094.094.203.094Zm0 0"/></symbol><symbol overflow="visible" id="k"><path style="stroke:none" d="M2.625-4.36C1.391-4.061.422-2.765.422-1.561.422-.595 1.062.125 2 .125c1.156 0 1.984-1.578 1.984-2.953 0-.906-.39-1.406-.734-1.844-.36-.453-.953-1.203-.953-1.64 0-.22.203-.454.547-.454.312 0 .5.125.719.266.203.125.39.25.546.25.25 0 .391-.234.391-.406 0-.219-.156-.235-.516-.328-.515-.11-.656-.11-.812-.11-.781 0-1.14.438-1.14 1.032 0 .546.296 1.093.593 1.703Zm.125.22c.25.468.547 1 .547 1.718 0 .656-.375 2.328-1.297 2.328-.547 0-.969-.422-.969-1.187 0-.625.375-2.5 1.719-2.86Zm0 0"/></symbol><symbol overflow="visible" id="l"><path style="stroke:none" d="M11.61-6.375v-.469c-.282.016-.626.032-1.079.032-.375 0-.984 0-1.344-.032v.469c.25 0 .72 0 1.016.11L8.484-1.798 6.72-6.375h.953v-.469c-.375.032-1.313.032-1.734.032-.391 0-1.188 0-1.532-.032v.469h.86l.406 1.063-1.36 3.515-1.765-4.578h.969v-.469c-.391.032-1.329.032-1.75.032-.391 0-1.172 0-1.532-.032v.469h.86l2.39 6.203c.063.156.11.25.36.25s.281-.094.344-.25l1.734-4.5 1.734 4.5c.063.156.094.25.344.25.25 0 .297-.094.36-.25l2.296-5.953c.063-.172.063-.188.375-.219.203-.031.406-.031.578-.031Zm0 0"/></symbol><symbol overflow="visible" id="m"><path style="stroke:none" d="M6.125 0v-.469h-.688v-2.578c0-1.047-.53-1.437-1.53-1.437a1.9 1.9 0 0 0-1.688.953v-3.39l-1.766.077v.469c.61 0 .688 0 .688.39v5.516H.453V0l1.25-.031L2.953 0v-.469h-.687v-2.078c0-1.094.859-1.578 1.5-1.578.328 0 .546.203.546.969V-.47h-.687V0l1.25-.031Zm0 0"/></symbol><symbol overflow="visible" id="n"><path style="stroke:none" d="M4.922-1.172c0-.172-.188-.172-.234-.172-.172 0-.188.047-.25.203-.204.485-.782.797-1.422.797-1.407 0-1.422-1.328-1.422-1.828h3.015c.22 0 .313 0 .313-.265 0-.313-.063-1.047-.563-1.547-.359-.36-.89-.532-1.578-.532C1.187-4.516.312-3.484.312-2.25c0 1.344 1 2.313 2.61 2.313 1.578 0 2-1.063 2-1.235ZM3.984-2.5h-2.39c.015-.39.031-.813.234-1.14.266-.391.672-.516.953-.516 1.172 0 1.188 1.312 1.203 1.656Zm0 0"/></symbol><symbol overflow="visible" id="o"><path style="stroke:none" d="M6.125 0v-.469h-.688v-2.578c0-1.047-.53-1.437-1.53-1.437-.954 0-1.485.562-1.75 1.078v-1.078l-1.704.078v.468c.61 0 .688 0 .688.391v3.078H.453V0l1.25-.031L2.953 0v-.469h-.687v-2.078c0-1.094.859-1.578 1.5-1.578.328 0 .546.203.546.969V-.47h-.687V0l1.25-.031Zm0 0"/></symbol><symbol overflow="visible" id="p"><path style="stroke:none" d="M8.031-3.953v-.469a12.55 12.55 0 0 1-.781.031l-.953-.03v.468c.094 0 .578 0 .578.11 0 .03-.031.093-.031.124L5.797-1.172l-1.14-2.781h.562v-.469l-1.14.031c-.423 0-.845-.03-1-.03v.468h.593c.203.5.203.531.203.531 0 .031-.031.094-.031.125L3.047-1.39 2-3.953h.563v-.469l-1.235.031L.25-4.42v.468h.594L2.359-.234c.079.172.11.28.36.28s.297-.108.36-.28L4.14-2.813 5.187-.233c.079.172.11.28.36.28s.297-.108.36-.28L7.343-3.75c.047-.125.093-.203.687-.203Zm0 0"/></symbol><symbol overflow="visible" id="q"><path style="stroke:none" d="M5.516-.234c0-.235-.125-.235-.266-.235-.61-.015-.61-.14-.61-.375v-2.14c0-.891-.702-1.532-2.187-1.532-.562 0-1.781.047-1.781.922 0 .438.344.625.61.625.312 0 .624-.219.624-.625 0-.297-.187-.469-.218-.5a5.28 5.28 0 0 1 .718-.062c.75 0 1.11.422 1.11 1.172v.343c-.72.032-3.25.125-3.25 1.563C.266-.125 1.5.062 2.187.062c.797 0 1.266-.406 1.485-.828 0 .313 0 .766 1.047.766h.468c.204 0 .329 0 .329-.234Zm-2-1.157c0 .97-.922 1.094-1.172 1.094-.516 0-.906-.344-.906-.797 0-1.062 1.578-1.203 2.078-1.234Zm0 0"/></symbol><symbol overflow="visible" id="r"><path style="stroke:none" d="M4.14-1.39c0-.438-.202-.782-.546-1.063-.39-.281-.719-.344-1.485-.485-.375-.062-1.015-.171-1.015-.64 0-.625.922-.625 1.11-.625.75 0 1.124.297 1.171.844.016.156.031.203.234.203.235 0 .235-.047.235-.281v-.797c0-.188 0-.282-.172-.282-.047 0-.063 0-.453.188-.266-.125-.61-.188-1-.188-.313 0-1.844 0-1.844 1.313 0 .39.203.656.406.828.39.344.781.406 1.547.547.36.062 1.094.187 1.094.781 0 .75-.906.75-1.125.75C1.234-.297.984-1.03.859-1.453c-.046-.14-.109-.14-.234-.14-.25 0-.25.062-.25.28v1.094c0 .188 0 .281.188.281.062 0 .078 0 .296-.156l.25-.172c.47.329.985.329 1.188.329.312 0 1.844 0 1.844-1.454Zm0 0"/></symbol><symbol overflow="visible" id="s"><path style="stroke:none" d="M6.125 0v-.469c-.61 0-.688 0-.688-.39v-3.625l-1.812.078v.468c.61 0 .688 0 .688.391v1.906c0 .813-.516 1.344-1.235 1.344-.781 0-.812-.25-.812-.797v-3.39l-1.813.078v.468c.61 0 .688 0 .688.391v2.328c0 1.063.796 1.282 1.796 1.282.25 0 .97 0 1.422-.782v.781Zm0 0"/></symbol><symbol overflow="visible" id="t"><path style="stroke:none" d="M9.328 0v-.469h-.687v-2.578c0-1.031-.516-1.437-1.547-1.437-.907 0-1.422.5-1.688.953-.187-.922-1.11-.953-1.484-.953-.875 0-1.438.453-1.766 1.078v-1.078l-1.703.078v.468c.61 0 .688 0 .688.391v3.078H.453V0l1.25-.031L2.953 0v-.469h-.687v-2.078c0-1.094.875-1.578 1.5-1.578.328 0 .546.203.546.969V-.47h-.687V0l1.266-.031L6.14 0v-.469h-.688v-2.078c0-1.094.86-1.578 1.484-1.578.344 0 .563.203.563.969V-.47h-.688V0l1.25-.031Zm0 0"/></symbol><symbol overflow="visible" id="u"><path style="stroke:none" d="M3.813-1.234v-.532h-.47v.516c0 .672-.327.906-.609.906-.578 0-.578-.64-.578-.86v-2.75h1.469v-.468H2.156v-1.906h-.469c0 1-.484 1.984-1.484 2.016v.359h.828v2.734c0 1.063.86 1.282 1.578 1.282.75 0 1.204-.579 1.204-1.297Zm0 0"/></symbol><symbol overflow="visible" id="v"><path style="stroke:none" d="M5.984 0v-.469c-.609 0-.687 0-.687-.39v-6.063l-1.766.078v.469c.625 0 .703 0 .703.39v1.954a2.178 2.178 0 0 0-1.359-.453c-1.453 0-2.5.875-2.5 2.28 0 1.313.922 2.267 2.39 2.267.61 0 1.094-.235 1.407-.485v.484ZM4.172-1.031c-.14.187-.547.734-1.297.734-1.219 0-1.219-1.203-1.219-1.906 0-.485 0-1.016.25-1.406.297-.422.766-.516 1.078-.516.563 0 .97.313 1.188.61Zm0 0"/></symbol><symbol overflow="visible" id="w"><path style="stroke:none" d="M4.406-3.672c0-.531-.531-.812-1.062-.812-.688 0-1.094.5-1.313 1.125v-1.125l-1.656.078v.468c.61 0 .688 0 .688.391v3.078H.375V0l1.25-.031C2-.031 2.641-.031 3 0v-.469h-.86v-1.75c0-.687.235-1.906 1.235-1.906 0 0-.188.172-.188.453 0 .406.329.61.61.61.297 0 .61-.204.61-.61Zm0 0"/></symbol><symbol overflow="visible" id="x"><path style="stroke:none" d="M5.984-2.219c0-1.328-.906-2.265-2.343-2.265-.75 0-1.282.312-1.5.484v-.484l-1.766.078v.468c.61 0 .688 0 .688.376v5.03H.375v.47l1.25-.032 1.25.032v-.47h-.688V-.39A2.01 2.01 0 0 0 3.47.063c1.5 0 2.515-.907 2.515-2.282Zm-1.28 0C4.703-.813 4-.297 3.358-.297c-.14 0-.609 0-1.062-.547-.11-.125-.11-.14-.11-.328v-2.11c0-.187.016-.202.157-.343.39-.406.922-.469 1.14-.469.657 0 1.22.61 1.22 1.875Zm0 0"/></symbol><symbol overflow="visible" id="y"><path style="stroke:none" d="M2.922 0v-.469h-.688v-6.453L.47-6.844v.469c.625 0 .687 0 .687.39v5.516H.47V0l1.219-.031Zm0 0"/></symbol><symbol overflow="visible" id="z"><path style="stroke:none" d="M2.5-.313c0-.671-.344-1.25-.922-1.25-.469 0-.766.36-.766.782 0 .406.266.781.766.781a.842.842 0 0 0 .563-.203C2.047.89 1.406 1.422 1.203 1.594c-.062.047-.094.078-.094.14 0 .094.11.204.188.204.156 0 1.203-.86 1.203-2.25Zm0 0"/></symbol><symbol overflow="visible" id="A"><path style="stroke:none" d="M2.844 0v-.469h-.61v-4.015L.5-4.406v.468c.594 0 .656 0 .656.391v3.078H.47V0l1.219-.031Zm-.469-6.047a.774.774 0 0 0-.781-.781.784.784 0 0 0-.782.781c0 .422.36.766.782.766a.77.77 0 0 0 .781-.766Zm0 0"/></symbol><symbol overflow="visible" id="B"><path style="stroke:none" d="M2.36-.781a.784.784 0 0 0-.782-.781.78.78 0 0 0-.766.78.774.774 0 1 0 1.547 0Zm0 0"/></symbol><symbol overflow="visible" id="C"><path style="stroke:none" d="M1.719-7.14c0-.157 0-.344-.203-.344-.204 0-.204.234-.204.375v9.234c0 .156 0 .375.204.375.203 0 .203-.188.203-.344Zm1.937.03c0-.156 0-.374-.203-.374-.187 0-.187.187-.187.343v9.297c0 .156 0 .344.187.344.203 0 .203-.234.203-.375Zm0 0"/></symbol><symbol overflow="visible" id="D"><path style="stroke:none" d="M6.844-3.266c.156 0 .343 0 .343-.187 0-.203-.187-.203-.328-.203H.891c-.141 0-.329 0-.329.203 0 .187.188.187.329.187Zm.015 1.938c.141 0 .329 0 .329-.203 0-.188-.188-.188-.344-.188H.89c-.141 0-.329 0-.329.188 0 .203.188.203.329.203Zm0 0"/></symbol><clipPath id="g"><path d="M53 0h73v120.672H53Zm0 0"/></clipPath></defs><use xlink:href="#a" x=".898" y="100.48" style="fill:red;fill-opacity:1"/><use xlink:href="#b" x="157.141" y="86.307" style="fill:red;fill-opacity:1"/><use xlink:href="#c" x=".537" y="43.787" style="fill:#00f;fill-opacity:1"/><use xlink:href="#d" x="157.141" y="29.614" style="fill:#00f;fill-opacity:1"/><use xlink:href="#e" x="57.531" y="119.678" style="fill:#000;fill-opacity:1"/><use xlink:href="#f" x="114.293" y="7.635" style="fill:#000;fill-opacity:1"/><path style="stroke:none;fill-rule:nonzero;fill:#fff200;fill-opacity:1" d="m74.406 90.758 9.598-18.969c-10.477-5.3-23.266-1.105-28.567 9.371a21.245 21.245 0 0 0-2.203 11.516Zm0 0"/><path style="stroke:none;fill-rule:nonzero;fill:#b2ffb2;fill-opacity:1" d="m74.406 90.758 21.172-1.918a21.26 21.26 0 0 0-11.574-17.05Zm0 0"/><path style="stroke:none;fill-rule:nonzero;fill:#fff200;fill-opacity:1" d="M104.469 31.348 94.87 50.316c10.477 5.301 23.266 1.106 28.567-9.37a21.26 21.26 0 0 0 2.203-11.508Zm0 0"/><path style="stroke:none;fill-rule:nonzero;fill:#b2ffb2;fill-opacity:1" d="m104.469 31.348-21.172 1.91A21.249 21.249 0 0 0 94.87 50.316Zm0 0"/><path style="fill:none;stroke-width:.79701;stroke-linecap:butt;stroke-linejoin:miter;stroke:red;stroke-opacity:1;stroke-miterlimit:10" d="M-56.695.658 85.039 13.49" transform="matrix(1 0 0 -1 68.582 97.076)"/><path style="fill:none;stroke-width:.79701;stroke-linecap:butt;stroke-linejoin:miter;stroke:#00f;stroke-opacity:1;stroke-miterlimit:10" d="m-56.695 57.365 141.734 12.8" transform="matrix(1 0 0 -1 68.582 97.076)"/><g clip-path="url(#g)"><path style="fill:none;stroke-width:.79701;stroke-linecap:butt;stroke-linejoin:miter;stroke:#000;stroke-opacity:1;stroke-miterlimit:10" d="m-3.582-12.276 49.691 98.2" transform="matrix(1 0 0 -1 68.582 97.076)"/></g><path style="fill:none;stroke-width:.3985;stroke-linecap:butt;stroke-linejoin:miter;stroke:#000;stroke-opacity:1;stroke-miterlimit:10" d="M15.422 25.287c-10.477 5.3-23.266 1.105-28.567-9.371A21.245 21.245 0 0 1-15.348 4.4" transform="matrix(1 0 0 -1 68.582 97.076)"/><use xlink:href="#h" x="64.038" y="82.349" style="fill:#000;fill-opacity:1"/><path style="fill:none;stroke-width:.3985;stroke-linecap:butt;stroke-linejoin:miter;stroke:#000;stroke-opacity:1;stroke-miterlimit:10" d="M26.996 8.236a21.26 21.26 0 0 1-11.574 17.05" transform="matrix(1 0 0 -1 68.582 97.076)"/><use xlink:href="#i" x="81.88" y="86.086" style="fill:#000;fill-opacity:1"/><path style="fill:none;stroke-width:.3985;stroke-linecap:butt;stroke-linejoin:miter;stroke:#000;stroke-opacity:1;stroke-miterlimit:10" d="M26.29 46.76c10.476-5.301 23.265-1.106 28.566 9.37a21.26 21.26 0 0 1 2.203 11.508" transform="matrix(1 0 0 -1 68.582 97.076)"/><use xlink:href="#j" x="108.774" y="43.078" style="fill:#000;fill-opacity:1"/><path style="fill:none;stroke-width:.3985;stroke-linecap:butt;stroke-linejoin:miter;stroke:#000;stroke-opacity:1;stroke-miterlimit:10" d="M14.715 63.818A21.249 21.249 0 0 1 26.289 46.76" transform="matrix(1 0 0 -1 68.582 97.076)"/><use xlink:href="#k" x="91.511" y="41.969" style="fill:#000;fill-opacity:1"/><path style="stroke:none;fill-rule:nonzero;fill:#fcc;fill-opacity:1" d="M364.777 33.75H193.82a3.988 3.988 0 0 0-3.988 3.988v33.637c0 2.2 1.785 3.984 3.988 3.984h170.957c2.2 0 3.985-1.785 3.985-3.984V37.738a3.987 3.987 0 0 0-3.985-3.988Zm0 0"/><g style="fill:#000;fill-opacity:1"><use xlink:href="#l" x="194.256" y="45.09"/><use xlink:href="#m" x="206.102" y="45.09"/><use xlink:href="#n" x="212.468" y="45.09"/><use xlink:href="#o" x="217.718" y="45.09"/></g><use xlink:href="#p" x="227.402" y="45.09" style="fill:#000;fill-opacity:1"/><use xlink:href="#n" x="235.372" y="45.09" style="fill:#000;fill-opacity:1"/><g style="fill:#000;fill-opacity:1"><use xlink:href="#q" x="243.93" y="45.09"/><use xlink:href="#r" x="249.499" y="45.09"/><use xlink:href="#r" x="254.022" y="45.09"/><use xlink:href="#s" x="258.545" y="45.09"/><use xlink:href="#t" x="264.911" y="45.09"/><use xlink:href="#n" x="274.455" y="45.09"/></g><g style="fill:#000;fill-opacity:1"><use xlink:href="#u" x="283.023" y="45.09"/><use xlink:href="#m" x="287.476" y="45.09"/><use xlink:href="#q" x="293.843" y="45.09"/><use xlink:href="#u" x="299.412" y="45.09"/></g><g style="fill:red;fill-opacity:1"><use xlink:href="#a" x="307.194" y="45.09"/><use xlink:href="#b" x="314.666" y="45.09"/></g><g style="fill:#000;fill-opacity:1"><use xlink:href="#q" x="326.043" y="45.09"/><use xlink:href="#o" x="331.612" y="45.09"/><use xlink:href="#v" x="337.978" y="45.09"/></g><use xlink:href="#c" x="347.665" y="45.09" style="fill:#00f;fill-opacity:1"/><use xlink:href="#d" x="355.493" y="45.09" style="fill:#00f;fill-opacity:1"/><g style="fill:#000;fill-opacity:1"><use xlink:href="#q" x="194.256" y="57.045"/><use xlink:href="#w" x="199.825" y="57.045"/><use xlink:href="#n" x="204.547" y="57.045"/></g><g style="fill:#000;fill-opacity:1"><use xlink:href="#x" x="213.115" y="57.045"/><use xlink:href="#q" x="219.481" y="57.045"/><use xlink:href="#w" x="225.051" y="57.045"/><use xlink:href="#q" x="229.773" y="57.045"/><use xlink:href="#y" x="235.342" y="57.045"/><use xlink:href="#y" x="238.52" y="57.045"/><use xlink:href="#n" x="241.698" y="57.045"/><use xlink:href="#y" x="246.948" y="57.045"/><use xlink:href="#z" x="250.126" y="57.045"/></g><g style="fill:#000;fill-opacity:1"><use xlink:href="#A" x="256.622" y="57.045"/><use xlink:href="#B" x="259.8" y="57.045"/></g><g style="fill:#000;fill-opacity:1"><use xlink:href="#n" x="264.642" y="57.045"/><use xlink:href="#B" x="269.892" y="57.045"/><use xlink:href="#z" x="273.07" y="57.045"/></g><g style="fill:red;fill-opacity:1"><use xlink:href="#a" x="279.572" y="57.045"/><use xlink:href="#b" x="287.044" y="57.045"/></g><use xlink:href="#C" x="298.041" y="57.045" style="fill:#000;fill-opacity:1"/><use xlink:href="#c" x="305.963" y="57.045" style="fill:#00f;fill-opacity:1"/><use xlink:href="#d" x="313.791" y="57.045" style="fill:#00f;fill-opacity:1"/><use xlink:href="#z" x="322.321" y="57.045" style="fill:#000;fill-opacity:1"/><g style="fill:#000;fill-opacity:1"><use xlink:href="#u" x="328.817" y="57.045"/><use xlink:href="#m" x="333.27" y="57.045"/><use xlink:href="#n" x="339.636" y="57.045"/><use xlink:href="#o" x="344.886" y="57.045"/></g><use xlink:href="#h" x="194.256" y="69" style="fill:#000;fill-opacity:1"/><use xlink:href="#D" x="203.433" y="69" style="fill:#000;fill-opacity:1"/><use xlink:href="#j" x="213.949" y="69" style="fill:#000;fill-opacity:1"/><g style="fill:#000;fill-opacity:1"><use xlink:href="#q" x="222.981" y="69"/><use xlink:href="#o" x="228.55" y="69"/><use xlink:href="#v" x="234.916" y="69"/></g><use xlink:href="#i" x="244.603" y="69" style="fill:#000;fill-opacity:1"/><use xlink:href="#D" x="253.531" y="69" style="fill:#000;fill-opacity:1"/><use xlink:href="#k" x="264.047" y="69" style="fill:#000;fill-opacity:1"/><use xlink:href="#B" x="268.852" y="69" style="fill:#000;fill-opacity:1"/></svg>