<svg xmlns="http://www.w3.org/2000/svg" width="116.341" height="78.531" viewBox="0 0 87.256 58.898" version="1.2"><defs><clipPath id="a"><path d="M0 3h62v55.848H0Zm0 0"/></clipPath><clipPath id="b"><path d="M25 0h61.883v56H25Zm0 0"/></clipPath></defs><path style="fill:none;stroke-width:.19925;stroke-linecap:butt;stroke-linejoin:miter;stroke:gray;stroke-opacity:1;stroke-miterlimit:10" d="M.001 0h85.04M0 28.347h85.04M0 56.683h85.04M0 0v56.695M28.345 0v56.695M56.693 0v56.695M85.029 0v56.695" transform="matrix(1 0 0 -1 .737 57.742)"/><g clip-path="url(#a)"><path style="fill:none;stroke-width:.3985;stroke-linecap:butt;stroke-linejoin:miter;stroke:red;stroke-opacity:1;stroke-miterlimit:10" d="M0-.001h-1.742l-.875 1.512.875 1.508-.875 1.511h-1.742L-5.23 3.02l.871-1.508-.871-1.512h-1.742l-.875 1.512H-9.59l-.871-1.512h-1.743l-.875 1.512.875 1.508h1.743l.87 1.511-.87 1.508.87 1.512h1.743l.875-1.512h1.742l.871 1.512-.871 1.508h-1.742l-.875 1.511.875 1.512-.875 1.508H-9.59l-.871-1.508h-1.743l-.875 1.508.875 1.512h1.743l.87 1.507-.87 1.512h-1.743l-.875 1.508.875 1.512-.875 1.507h-1.742l-.87-1.507.87-1.512-.87-1.508h-1.743l-.875-1.512.875-1.507h1.742l.871-1.512-.87-1.508h-1.743l-.875 1.508h-1.742l-.871-1.508.87-1.512-.87-1.511h-1.743l-.875-1.508.875-1.512h1.743l.87 1.512h1.743l.875-1.512-.875-1.508.875-1.511h1.742l.871-1.508-.87-1.512h-1.743l-.875 1.512h-1.742l-.871-1.512h-1.743l-.875 1.512.875 1.508-.875 1.511h-1.742l-.87-1.511.87-1.508-.87-1.512h-1.743l-.875 1.512h-1.742l-.871-1.512h-1.743L-34 1.511l.875 1.508h1.743l.87 1.511-.87 1.508h-1.743L-34 7.55l.875 1.508-.875 1.511h-1.742l-.87-1.511.87-1.508-.87-1.512h-1.743l-.875-1.508.875-1.511h1.742l.871-1.508-.87-1.512h-1.743l-.875 1.512h-1.742l-.871-1.512h-1.742l-.875 1.512.875 1.508-.875 1.511h-1.743l-.87-1.511.87-1.508-.87-1.512h-1.743l-.875 1.512h-1.742l-.871-1.512h-1.742l-.875 1.512.875 1.508h1.742l.87 1.511-.87 1.508.87 1.512h1.743l.875-1.512h1.742l.871 1.512-.87 1.508h-1.743l-.875 1.511.875 1.512h1.742l.871 1.508-.87 1.512.87 1.507h1.743l.875-1.507-.875-1.512.875-1.508h1.742l.87 1.508h1.743l.875-1.508h1.742l.871 1.508-.87 1.512h-1.743l-.875 1.507.875 1.512-.875 1.508h-1.742l-.871-1.508h-1.742l-.875 1.508.875 1.512h1.742l.87 1.507-.87 1.512.87 1.508h1.743l.875-1.508h1.742l.871 1.508-.87 1.512h-1.743l-.875 1.508.875 1.511h1.742l.871 1.512-.87 1.508.87 1.511H-34l.875-1.511L-34 31.71l.875-1.512h1.743l.87-1.511-.87-1.508h-1.743L-34 25.667l.875-1.508h1.743l.87 1.508h1.743l.875-1.508h1.742l.871 1.508-.87 1.512.87 1.508h1.742l.875-1.508-.875-1.512.875-1.508h1.743l.87 1.508h1.743l.875-1.508h1.742l.871 1.508-.87 1.512h-1.743l-.875 1.508.875 1.511-.875 1.512h-1.742l-.871-1.512h-1.743l-.875 1.512.875 1.508h1.743l.87 1.511-.87 1.508h-1.743l-.875 1.512.875 1.508-.875 1.512h-1.742l-.87-1.512.87-1.508-.87-1.512h-1.743l-.875 1.512h-1.742l-.871-1.512h-1.743L-34 37.75l.875 1.508h1.743l.87 1.512-.87 1.507.87 1.512h1.743l.875-1.512h1.742l.871 1.512-.87 1.508h-1.743l-.875 1.512.875 1.507" transform="matrix(1 0 0 -1 55.855 57.542)"/></g><g clip-path="url(#b)"><path style="fill:none;stroke-width:.3985;stroke-linecap:butt;stroke-linejoin:miter;stroke:#00f;stroke-opacity:1;stroke-miterlimit:10" d="M-.002.002h1.746l.871-1.512-.87-1.512.87-1.507h1.743l.87 1.507-.87 1.512.87 1.512h1.747l.87-1.512h1.743L10.46.002h1.746l.871-1.512-.87-1.512h-1.747l-.87-1.507.87-1.512-.87-1.508H7.845L6.975-6.04H5.229L4.358-7.55l.87-1.512h1.747l.87-1.507-.87-1.512.87-1.508h1.743l.871 1.508h1.746l.871-1.508-.87-1.512h-1.747l-.87-1.507.87-1.512h1.746l.871-1.508-.87-1.512.87-1.511h1.743l.87 1.511-.87 1.512.87 1.508h1.747l.87 1.512-.87 1.507H15.69l-.871 1.512.87 1.508h1.747l.87-1.508h1.743l.871 1.508-.871 1.512.871 1.507h1.746l.871 1.512-.87 1.508H20.92L20.05-7.55h-1.742l-.871 1.508.87 1.512-.87 1.507H15.69l-.871 1.512.87 1.512h1.747l.87-1.512h1.743L20.92.002h1.746l.871-1.512-.87-1.512.87-1.507h1.742l.872 1.507-.872 1.512.872 1.512h1.746l.87-1.512h1.743l.871 1.512h1.746l.871-1.512-.87-1.512H31.38l-.871-1.507.871-1.512h1.746l.871-1.508-.87-1.512.87-1.507h1.742l.872 1.507-.872 1.512.872 1.508h1.746l.87 1.512-.87 1.507h-1.746L35.74-1.51l.872 1.512h1.746l.87-1.512h1.743l.871 1.512h1.746l.871-1.512-.87-1.512.87-1.507h1.742l.871 1.507-.87 1.512.87 1.512h1.747l.87-1.512h1.743l.87 1.512h1.747l.871-1.512-.871-1.512h-1.746l-.871-1.507.87-1.512-.87-1.508H49.69l-.871 1.508h-1.747l-.87-1.508.87-1.512h1.747l.87-1.507-.87-1.512h-1.747l-.87-1.508.87-1.512-.87-1.507h-1.743l-.87 1.507.87 1.512-.87 1.508h-1.747l-.871-1.508h-1.742l-.871 1.508h-1.746l-.872-1.508.872-1.512h1.746l.87-1.507-.87-1.512.87-1.508h1.743l.871 1.508h1.746l.871-1.508-.87-1.512h-1.747l-.871-1.511.871-1.508-.871-1.512h-1.742l-.871 1.512h-1.746l-.872-1.512.872-1.508h1.746l.87-1.511-.87-1.508h-1.746l-.872-1.512.872-1.508-.872-1.512h-1.742l-.87 1.512.87 1.508-.87 1.512H31.38l-.871 1.508.871 1.511h1.746l.871 1.508-.87 1.512H31.38l-.871-1.512h-1.742l-.871 1.512H26.15l-.872-1.512.872-1.508-.872-1.511h-1.742l-.87 1.511.87 1.508-.87 1.512H20.92l-.871-1.512h-1.742l-.871 1.512H15.69l-.871-1.512.87-1.508h1.747l.87-1.511-.87-1.508.87-1.512h1.743l.871 1.512h1.746l.871-1.512-.87-1.508H20.92l-.871-1.512.871-1.507h1.746l.871-1.512-.87-1.508.87-1.512h1.742l.872 1.512-.872 1.508.872 1.512h1.746l.87-1.512h1.743l.871 1.512h1.746l.871-1.512-.87-1.508H31.38l-.871-1.512.871-1.507-.871-1.512h-1.742l-.871 1.512H26.15l-.872-1.512.872-1.512h1.746l.87-1.508-.87-1.511" transform="matrix(1 0 0 -1 30.658 1.248)"/></g></svg>