<svg xmlns="http://www.w3.org/2000/svg" xmlns:xlink="http://www.w3.org/1999/xlink" width="216.775" height="135.628" viewBox="0 0 162.581 101.721" version="1.2"><defs><symbol overflow="visible" id="b"><path style="stroke:none" d="M2.25-1.625c.125-.125.453-.39.594-.5.484-.453.953-.89.953-1.61 0-.953-.797-1.562-1.781-1.562-.97 0-1.594.719-1.594 1.438 0 .39.312.437.422.437.172 0 .422-.11.422-.422 0-.406-.407-.406-.5-.406.234-.594.765-.781 1.156-.781.734 0 1.125.625 1.125 1.297 0 .828-.578 1.437-1.531 2.39l-1 1.047C.422-.219.422-.203.422 0h3.14l.235-1.422h-.25c-.016.156-.078.547-.172.703-.047.063-.656.063-.781.063H1.172Zm0 0"/></symbol><symbol overflow="visible" id="c"><path style="stroke:none" d="M3.14-5.156c0-.157 0-.219-.171-.219-.094 0-.11 0-.188.11L.234-1.564v.25h2.25v.672c0 .297-.015.375-.64.375h-.172V0c.672-.031.687-.031 1.14-.031.454 0 .47 0 1.141.031v-.266h-.172c-.625 0-.64-.078-.64-.375v-.671h.843v-.25h-.843Zm-.593.64v2.954H.516Zm0 0"/></symbol><symbol overflow="visible" id="d"><path style="stroke:none" d="M1.094-2.64c0-.657.062-1.235.343-1.72.25-.406.657-.734 1.157-.734.156 0 .515.032.703.297-.36.031-.39.297-.39.375 0 .25.187.375.374.375.14 0 .375-.078.375-.39 0-.47-.36-.86-1.078-.86C1.468-5.297.344-4.25.344-2.53.344-.36 1.359.172 2.125.172c.39 0 .797-.11 1.156-.453.328-.313.594-.64.594-1.344 0-1.031-.797-1.766-1.672-1.766-.578 0-.922.36-1.11.75ZM2.125-.079a.88.88 0 0 1-.797-.516c-.187-.36-.203-.89-.203-1.203 0-.781.422-1.375 1.047-1.375.39 0 .64.203.781.485.172.296.172.656.172 1.062s0 .75-.156 1.047c-.219.36-.485.5-.844.5Zm0 0"/></symbol><symbol overflow="visible" id="e"><path style="stroke:none" d="M2.64-2.875c.454-.219 1-.61 1-1.234 0-.766-.78-1.188-1.515-1.188-.844 0-1.531.578-1.531 1.328 0 .297.094.563.297.797.14.172.171.188.656.5C.563-2.234.344-1.656.344-1.219c0 .89.89 1.39 1.765 1.39.97 0 1.766-.671 1.766-1.515 0-.5-.266-.828-.406-.968-.125-.126-.14-.141-.828-.563Zm-1.234-.75c-.234-.14-.422-.375-.422-.64 0-.5.547-.829 1.125-.829.61 0 1.125.422 1.125.985 0 .453-.359.843-.828 1.078Zm.39 1.094c.032.015.938.578 1.079.656.125.078.547.328.547.813 0 .609-.656.984-1.297.984-.719 0-1.313-.484-1.313-1.14 0-.595.438-1.063.985-1.313Zm0 0"/></symbol><symbol overflow="visible" id="f"><path style="stroke:none" d="M2.5-5.078c0-.219-.016-.219-.234-.219-.329.313-.75.5-1.5.5v.266c.218 0 .64 0 1.109-.203v4.078c0 .297-.031.39-.781.39H.812V0c.329-.031 1.016-.031 1.375-.031.36 0 1.047 0 1.376.031v-.266H3.28c-.75 0-.781-.093-.781-.39Zm0 0"/></symbol><symbol overflow="visible" id="g"><path style="stroke:none" d="M3.89-2.547c0-.844-.078-1.36-.343-1.875-.344-.703-1-.875-1.438-.875-1 0-1.375.75-1.484.969C.344-3.75.328-2.953.328-2.547c0 .531.016 1.328.406 1.969.36.594.954.75 1.375.75.391 0 1.063-.125 1.47-.906.296-.579.312-1.297.312-1.813ZM2.11-.062c-.266 0-.813-.126-.985-.954-.094-.453-.094-1.203-.094-1.625 0-.546 0-1.109.094-1.546.172-.813.781-.891.984-.891.266 0 .829.14.985.86.094.437.094 1.046.094 1.577 0 .47 0 1.188-.094 1.641-.172.828-.719.938-.985.938Zm0 0"/></symbol><symbol overflow="visible" id="h"><path style="stroke:none" d="M1.11-4.484c.109.03.421.125.765.125 1 0 1.594-.704 1.594-.829 0-.093-.047-.109-.094-.109-.016 0-.031 0-.094.031a2.982 2.982 0 0 1-1.11.22c-.468 0-.858-.11-1.108-.22-.079-.03-.094-.03-.11-.03-.094 0-.094.077-.094.234v2.328c0 .14 0 .234.125.234.063 0 .079-.031.125-.094.094-.11.391-.515 1.079-.515.437 0 .656.359.734.515.125.281.14.656.14.953 0 .297 0 .735-.218 1.079-.156.25-.485.484-.906.484A1.271 1.271 0 0 1 .734-.922c.016.016.079.016.079.016.218 0 .406-.14.406-.39a.388.388 0 0 0-.39-.407c-.157 0-.407.078-.407.422 0 .718.625 1.453 1.531 1.453 1 0 1.844-.781 1.844-1.766 0-.922-.672-1.75-1.61-1.75-.39 0-.765.125-1.078.406Zm0 0"/></symbol><symbol overflow="visible" id="i"><path style="stroke:none" d="M4.031-4.86c.078-.077.078-.093.078-.265H2.08a8.79 8.79 0 0 1-.642-.031c-.421-.032-.421-.11-.453-.235h-.25L.47-3.703h.25c.015-.125.11-.672.219-.735.078-.046.687-.046.796-.046h1.688l-.813 1.109C1.703-2.172 1.5-.906 1.5-.281c0 .078 0 .453.375.453s.375-.36.375-.453v-.39c0-1.141.203-2.079.594-2.61Zm0 0"/></symbol><clipPath id="a"><path d="M8 0h154.371v100H8Zm0 0"/></clipPath></defs><path style="fill:none;stroke-width:.3985;stroke-linecap:round;stroke-linejoin:miter;stroke:gray;stroke-opacity:1;stroke-miterlimit:10" d="M14.176-1.993v1.992M42.523-1.993v1.992M70.87-1.993v1.992M99.219-1.993v1.992M127.566-1.993v1.992M14.176 87.593v1.992M42.523 87.593v1.992M70.87 87.593v1.992M99.219 87.593v1.992M127.566 87.593v1.992M-1.992 17.518H0M-1.992 35.769H0M-1.992 54.019H0M-1.992 72.265H0M141.734 17.518h1.992M141.734 35.769h1.992M141.734 54.019h1.992M141.734 72.265h1.992" transform="matrix(1 0 0 -1 17.445 90.644)"/><path style="fill:none;stroke-width:.3985;stroke-linecap:butt;stroke-linejoin:miter;stroke:gray;stroke-opacity:1;stroke-miterlimit:10" d="M0-.001h141.734M0 87.593h141.734M0-.001v87.594M141.734-.001v87.594" transform="matrix(1 0 0 -1 17.445 90.644)"/><g clip-path="url(#a)"><path style="fill:none;stroke-width:.59776;stroke-linecap:butt;stroke-linejoin:miter;stroke:#000;stroke-opacity:1;stroke-miterlimit:10" d="M0-.001s4.265.496 5.906.734c1.637.243 4.266.68 5.906.989 1.637.312 4.266.863 5.907 1.242 1.636.383 4.265 1.047 5.906 1.496 1.637.45 4.265 1.23 5.902 1.75 1.64.52 4.27 1.41 5.906 2 1.641.594 4.27 1.598 5.907 2.258 1.64.66 4.265 1.777 5.906 2.508 1.637.73 4.266 1.96 5.906 2.761 1.637.805 4.266 2.145 5.906 3.02 1.637.87 4.266 2.324 5.903 3.27 1.64.94 4.27 2.507 5.906 3.519 1.64 1.015 4.27 2.695 5.906 3.777 1.64 1.082 4.27 2.88 5.907 4.031a311.571 311.571 0 0 1 5.906 4.282 346.552 346.552 0 0 1 5.906 4.539 369.534 369.534 0 0 1 5.906 4.789 394.715 394.715 0 0 1 5.907 5.043 400.633 400.633 0 0 1 5.902 5.297c1.64 1.504 4.27 3.976 5.906 5.55 1.64 1.575 4.27 4.16 5.906 5.805a460.61 460.61 0 0 1 5.907 6.059 550.714 550.714 0 0 1 5.906 6.308c1.637 1.785 5.906 6.567 5.906 6.567" transform="matrix(1 0 0 -1 17.445 90.644)"/></g><use xlink:href="#b" x="29.503" y="100.428" style="fill:#000;fill-opacity:1"/><use xlink:href="#c" x="57.85" y="100.428" style="fill:#000;fill-opacity:1"/><use xlink:href="#d" x="86.198" y="100.428" style="fill:#000;fill-opacity:1"/><use xlink:href="#e" x="114.546" y="100.428" style="fill:#000;fill-opacity:1"/><g style="fill:#000;fill-opacity:1"><use xlink:href="#f" x="140.776" y="100.428"/><use xlink:href="#g" x="145.011" y="100.428"/></g><g style="fill:#000;fill-opacity:1"><use xlink:href="#b" x="4.329" y="75.692"/><use xlink:href="#h" x="8.563" y="75.692"/></g><g style="fill:#000;fill-opacity:1"><use xlink:href="#h" x="4.329" y="57.444"/><use xlink:href="#g" x="8.563" y="57.444"/></g><g style="fill:#000;fill-opacity:1"><use xlink:href="#i" x="4.329" y="39.196"/><use xlink:href="#h" x="8.563" y="39.196"/></g><g style="fill:#000;fill-opacity:1"><use xlink:href="#f" x=".095" y="20.947"/><use xlink:href="#g" x="4.329" y="20.947"/><use xlink:href="#g" x="8.564" y="20.947"/></g></svg>