<svg xmlns="http://www.w3.org/2000/svg" width="88.395" height="112.275" viewBox="0 0 66.296 84.206" version="1.2"><defs><clipPath id="a"><path d="M0 0h65.945v83.809H0Zm0 0"/></clipPath><clipPath id="b"><path d="M51 0h14.945v14H51Zm0 0"/></clipPath><clipPath id="c"><path d="M0 69h15v14.809H0Zm0 0"/></clipPath></defs><g clip-path="url(#a)"><path style="fill:none;stroke-width:.3985;stroke-linecap:butt;stroke-linejoin:miter;stroke:#000;stroke-opacity:1;stroke-miterlimit:10" d="M-.002-.002h28.348m-28.348 0L36.822 21.26M-.002-.002l-13.316 4.848M-.002-.002l-19.39-53.273M-.002-.002l11.34-19.636" transform="matrix(1 0 0 -1 24.08 26.1)"/></g><path style="fill-rule:nonzero;fill:#fff;fill-opacity:1;stroke-width:.3985;stroke-linecap:butt;stroke-linejoin:miter;stroke:red;stroke-opacity:1;stroke-miterlimit:10" d="m28.346 3.987 3.793-2.754-1.45-4.457h-4.683l-1.45 4.457Zm0 0" transform="matrix(1 0 0 -1 24.08 26.1)"/><path style="stroke:none;fill-rule:nonzero;fill:#fff;fill-opacity:1" d="m60.902.855 3.793 2.754-1.449 4.454h-4.684l-1.449-4.454Zm0 0"/><g clip-path="url(#b)"><path style="fill:none;stroke-width:.3985;stroke-linecap:butt;stroke-linejoin:miter;stroke:red;stroke-opacity:1;stroke-miterlimit:10" d="m36.822 25.245 3.793-2.754-1.449-4.453h-4.683l-1.45 4.453Zm0 0" transform="matrix(1 0 0 -1 24.08 26.1)"/></g><path style="fill-rule:nonzero;fill:#fff;fill-opacity:1;stroke-width:.3985;stroke-linecap:butt;stroke-linejoin:miter;stroke:red;stroke-opacity:1;stroke-miterlimit:10" d="M-13.318 8.834-9.53 6.08l-1.446-4.457h-4.687l-1.445 4.457Zm0 0" transform="matrix(1 0 0 -1 24.08 26.1)"/><path style="stroke:none;fill-rule:nonzero;fill:#fff;fill-opacity:1" d="m4.688 75.39 3.792 2.755-1.449 4.453H2.348l-1.45-4.453Zm0 0"/><g clip-path="url(#c)"><path style="fill:none;stroke-width:.3985;stroke-linecap:butt;stroke-linejoin:miter;stroke:red;stroke-opacity:1;stroke-miterlimit:10" d="m-19.392-49.29 3.792-2.755-1.449-4.453h-4.683l-1.45 4.453Zm0 0" transform="matrix(1 0 0 -1 24.08 26.1)"/></g><path style="fill-rule:nonzero;fill:#fff;fill-opacity:1;stroke-width:.3985;stroke-linecap:butt;stroke-linejoin:miter;stroke:red;stroke-opacity:1;stroke-miterlimit:10" d="m11.338-15.654 3.789-2.754-1.445-4.457H8.998l-1.45 4.457Zm0 0" transform="matrix(1 0 0 -1 24.08 26.1)"/></svg>