<svg xmlns="http://www.w3.org/2000/svg" xmlns:xlink="http://www.w3.org/1999/xlink" width="257.115" height="137.019" viewBox="0 0 192.836 102.764" version="1.2"><defs><symbol overflow="visible" id="a"><path style="stroke:none" d="M5.563-1.813c.14 0 .312 0 .312-.171 0-.188-.172-.188-.313-.188H1c-.125 0-.297 0-.297.188 0 .171.172.171.297.171Zm0 0"/></symbol><symbol overflow="visible" id="b"><path style="stroke:none" d="M2.5-5.078c0-.219-.016-.219-.234-.219-.329.313-.75.5-1.5.5v.266c.218 0 .64 0 1.109-.203v4.078c0 .297-.031.39-.781.39H.812V0c.329-.031 1.016-.031 1.375-.031.36 0 1.047 0 1.376.031v-.266H3.28c-.75 0-.781-.093-.781-.39Zm0 0"/></symbol><symbol overflow="visible" id="c"><path style="stroke:none" d="M3.89-2.547c0-.844-.078-1.36-.343-1.875-.344-.703-1-.875-1.438-.875-1 0-1.375.75-1.484.969C.344-3.75.328-2.953.328-2.547c0 .531.016 1.328.406 1.969.36.594.954.75 1.375.75.391 0 1.063-.125 1.47-.906.296-.579.312-1.297.312-1.813ZM2.11-.062c-.266 0-.813-.126-.985-.954-.094-.453-.094-1.203-.094-1.625 0-.546 0-1.109.094-1.546.172-.813.781-.891.984-.891.266 0 .829.14.985.86.094.437.094 1.046.094 1.577 0 .47 0 1.188-.094 1.641-.172.828-.719.938-.985.938Zm0 0"/></symbol><symbol overflow="visible" id="e"><path style="stroke:none" d="M1.11-4.484c.109.03.421.125.765.125 1 0 1.594-.704 1.594-.829 0-.093-.047-.109-.094-.109-.016 0-.031 0-.094.031a2.982 2.982 0 0 1-1.11.22c-.468 0-.858-.11-1.108-.22-.079-.03-.094-.03-.11-.03-.094 0-.094.077-.094.234v2.328c0 .14 0 .234.125.234.063 0 .079-.031.125-.094.094-.11.391-.515 1.079-.515.437 0 .656.359.734.515.125.281.14.656.14.953 0 .297 0 .735-.218 1.079-.156.25-.485.484-.906.484A1.271 1.271 0 0 1 .734-.922c.016.016.079.016.079.016.218 0 .406-.14.406-.39a.388.388 0 0 0-.39-.407c-.157 0-.407.078-.407.422 0 .718.625 1.453 1.531 1.453 1 0 1.844-.781 1.844-1.766 0-.922-.672-1.75-1.61-1.75-.39 0-.765.125-1.078.406Zm0 0"/></symbol><symbol overflow="visible" id="f"><path style="stroke:none" d="M4.031-4.86c.078-.077.078-.093.078-.265H2.08a8.79 8.79 0 0 1-.642-.031c-.421-.032-.421-.11-.453-.235h-.25L.47-3.703h.25c.015-.125.11-.672.219-.735.078-.046.687-.046.796-.046h1.688l-.813 1.109C1.703-2.172 1.5-.906 1.5-.281c0 .078 0 .453.375.453s.375-.36.375-.453v-.39c0-1.141.203-2.079.594-2.61Zm0 0"/></symbol><symbol overflow="visible" id="g"><path style="stroke:none" d="M2.25-1.625c.125-.125.453-.39.594-.5.484-.453.953-.89.953-1.61 0-.953-.797-1.562-1.781-1.562-.97 0-1.594.719-1.594 1.438 0 .39.312.437.422.437.172 0 .422-.11.422-.422 0-.406-.407-.406-.5-.406.234-.594.765-.781 1.156-.781.734 0 1.125.625 1.125 1.297 0 .828-.578 1.437-1.531 2.39l-1 1.047C.422-.219.422-.203.422 0h3.14l.235-1.422h-.25c-.016.156-.078.547-.172.703-.047.063-.656.063-.781.063H1.172Zm0 0"/></symbol><symbol overflow="visible" id="d"><path style="stroke:none" d="M1.625-.438a.463.463 0 0 0-.453-.453.447.447 0 0 0-.438.438.44.44 0 0 0 .438.453.45.45 0 0 0 .453-.438Zm0 0"/></symbol><symbol overflow="visible" id="h"><path style="stroke:none" d="M5.531-1.984c0-1.188-.812-2.047-2.172-2.047-.718 0-1.218.297-1.39.422v-.422L.375-3.97v.438c.172 0 .313 0 .438.031.171.031.171.125.171.313v4.484H.375v.437L1.5 1.72l1.14.015v-.437h-.609v-1.64c.531.39 1.016.39 1.188.39 1.406 0 2.312-.844 2.312-2.031ZM4.344-2c0 1.25-.64 1.688-1.235 1.688-.453 0-.843-.25-1.078-.625v-2.157a1.548 1.548 0 0 1 1.188-.562c.625 0 1.125.562 1.125 1.656Zm0 0"/></symbol><symbol overflow="visible" id="i"><path style="stroke:none" d="M5-1.953c0-1.172-.828-2.11-2.344-2.11-1.578 0-2.36.985-2.36 2.11 0 1.11.813 2 2.345 2C4.25.047 5-.891 5-1.953Zm-1.188-.094c0 .766 0 1.719-1.156 1.719-1.172 0-1.172-.953-1.172-1.719 0-.765 0-1.656 1.157-1.656 1.171 0 1.171.89 1.171 1.656Zm0 0"/></symbol><symbol overflow="visible" id="j"><path style="stroke:none" d="M2.688 0v-.438h-.61v-5.78l-1.61.062v.437c.532 0 .61 0 .61.36v4.921h-.61V0l1.095-.031Zm0 0"/></symbol><symbol overflow="visible" id="k"><path style="stroke:none" d="M5.344-3.547v-.437c-.25.03-.469.03-.719.03-.281 0-.547-.015-.813-.03v.437s.391 0 .391.11c0 0 0 .015-.047.109L3.094-1.141 1.922-3.547h.469v-.437l-1.11.03c-.328 0-.5 0-1.031-.03v.437h.563L2.53 0c-.312.734-.64 1.438-1.344 1.438-.046 0-.109 0-.171-.032.156-.078.265-.234.265-.468 0-.344-.25-.532-.531-.532-.297 0-.547.188-.547.531 0 .485.453.86.984.86.704 0 1.25-.516 1.532-1.11l1.969-4.03c.062-.141.093-.204.656-.204Zm0 0"/></symbol><symbol overflow="visible" id="l"><path style="stroke:none" d="M5.156-3.547c0-.234-.172-.547-.593-.547-.438 0-.813.219-.985.344-.375-.219-.781-.281-1.219-.281-1.375 0-1.843.734-1.843 1.328 0 .484.312.812.468.937a1.249 1.249 0 0 0-.296.782c0 .39.187.703.375.875C.39.078.296.453.296.656c0 .531.625 1.14 2.344 1.14C4.219 1.797 5 1.313 5 .626c0-.313-.11-.86-.734-1.156C3.75-.766 3.28-.766 2.39-.766h-.454c-.28 0-.406 0-.562-.109a.563.563 0 0 1-.203-.453c0-.172.062-.281.062-.281.329.171.735.234 1.125.234 1.375 0 1.844-.734 1.844-1.328 0-.36-.172-.656-.36-.844.235-.125.423-.14.532-.172 0 .047-.031.094-.031.188a.407.407 0 1 0 .813-.016Zm-1.984.844c0 .39 0 .969-.813.969-.812 0-.812-.579-.812-.97 0-.405 0-.968.812-.968.813 0 .813.563.813.969ZM4.203.657c0 .296-.328.78-1.547.78C1.47 1.438 1.094 1 1.094.641c0-.516.578-.516.703-.516H2.89c.28 0 1.312 0 1.312.531Zm0 0"/></symbol><symbol overflow="visible" id="m"><path style="stroke:none" d="M5.656 0v-.438h-.61v-2.296c0-1.063-.655-1.297-1.437-1.297-1.093 0-1.53.797-1.593.937H2v-.937L.453-3.97v.438c.531 0 .61 0 .61.36v2.733h-.61V0l1.125-.031L2.718 0v-.438H2.11V-2.28c0-1 .829-1.39 1.36-1.39.344 0 .515.187.515.858v2.376h-.609V0l1.14-.031Zm0 0"/></symbol><symbol overflow="visible" id="n"><path style="stroke:none" d="M4.406-1.047c0-.14-.125-.14-.234-.14-.172 0-.172.015-.25.171-.172.438-.578.688-1.11.688-1.265 0-1.265-1.297-1.265-1.703 0-.531 0-1.64 1.172-1.64.078 0 .562 0 .562.046l-.031.047a.602.602 0 0 0-.125.375c0 .36.281.578.594.578a.569.569 0 0 0 .578-.594c0-.844-1.25-.844-1.61-.844C.97-4.063.345-2.968.345-1.983c0 1.125.812 2.03 2.297 2.03.343 0 .78-.046 1.156-.28.515-.313.61-.782.61-.813Zm0 0"/></symbol><symbol overflow="visible" id="o"><path style="stroke:none" d="M2.625 0v-.438h-.547V-4.03L.5-3.97v.438c.516 0 .578 0 .578.36v2.733h-.61V0c.595-.016.72-.031 1.095-.031.437 0 .546.015 1.062.031Zm-.453-5.422a.713.713 0 0 0-.703-.719.71.71 0 0 0-.703.704.7.7 0 0 0 .703.703.697.697 0 0 0 .703-.688Zm0 0"/></symbol><symbol overflow="visible" id="p"><path style="stroke:none" d="M4.078-3.281c0-.453-.469-.75-1-.75-.625 0-1 .453-1.203.968h-.016v-.968L.375-3.97v.438c.531 0 .61 0 .61.36v2.733h-.61V0l1.14-.031c.22 0 .75 0 1.22.031v-.438h-.766v-1.515c0-.656.25-1.703 1.11-1.719a.571.571 0 0 0-.142.39c0 .391.313.579.563.579.297 0 .578-.203.578-.578Zm0 0"/></symbol><symbol overflow="visible" id="q"><path style="stroke:none" d="M4.563-1.047c0-.172-.172-.172-.235-.172-.156 0-.172.047-.234.172-.203.469-.75.719-1.313.719-1.281 0-1.297-1.156-1.297-1.594h2.782c.187 0 .296 0 .296-.25 0-.203-.015-1-.593-1.484-.406-.328-.953-.406-1.39-.406-1.532 0-2.282.968-2.282 2.046 0 1.172.89 2.063 2.406 2.063 1.485 0 1.86-.938 1.86-1.094ZM3.688-2.25H1.483c.016-.406.063-1.453 1.094-1.453 1.047 0 1.094 1.094 1.11 1.453Zm0 0"/></symbol></defs><path style="fill:none;stroke-width:.3985;stroke-linecap:round;stroke-linejoin:miter;stroke:gray;stroke-opacity:1;stroke-miterlimit:10" d="M0-6.974v1.992M21.258-6.974v1.992M42.52-6.974v1.992M63.782-6.974v1.992M85.04-6.974v1.992M-6.972 8.99h1.992M-6.972 20.166h1.992M-6.972 31.342h1.992M-6.972 42.522h1.992M-6.972 53.698h1.992M-6.972 64.873h1.992M-6.972 76.05h1.992" transform="matrix(1 0 0 -1 31.601 86.725)"/><path style="fill:none;stroke-width:.3985;stroke-linecap:butt;stroke-linejoin:miter;stroke:gray;stroke-opacity:1;stroke-miterlimit:10" d="M0-4.982h85.04" transform="matrix(1 0 0 -1 31.601 86.725)"/><path style="fill:none;stroke-width:.3985;stroke-linecap:square;stroke-linejoin:miter;stroke:#bfbfbf;stroke-opacity:1;stroke-miterlimit:10" d="M0-.002h85.04M0 85.041h85.04" transform="matrix(1 0 0 -1 31.601 86.725)"/><path style="fill:none;stroke-width:.3985;stroke-linecap:butt;stroke-linejoin:miter;stroke:gray;stroke-opacity:1;stroke-miterlimit:10" d="M-4.98-.002v85.043" transform="matrix(1 0 0 -1 31.601 86.725)"/><path style="fill:none;stroke-width:.3985;stroke-linecap:square;stroke-linejoin:miter;stroke:#bfbfbf;stroke-opacity:1;stroke-miterlimit:10" d="M0-.002v85.043M85.04-.002v85.043" transform="matrix(1 0 0 -1 31.601 86.725)"/><path style="fill:none;stroke-width:.59776;stroke-linecap:butt;stroke-linejoin:miter;stroke:#000;stroke-opacity:1;stroke-miterlimit:10" d="m1.481 64.678 82.078-10.785" transform="matrix(1 0 0 -1 31.601 86.725)"/><path style="fill-rule:nonzero;fill:red;fill-opacity:1;stroke-width:.59776;stroke-linecap:butt;stroke-linejoin:miter;stroke:red;stroke-opacity:1;stroke-miterlimit:10" d="M.497 64.873a.498.498 0 1 1-.996.005.498.498 0 0 1 .996-.005ZM85.54 53.698a.498.498 0 1 1-.996-.003.498.498 0 0 1 .996.003Zm0 0" transform="matrix(1 0 0 -1 31.601 86.725)"/><path style="fill:none;stroke-width:.59776;stroke-linecap:butt;stroke-linejoin:miter;stroke:#000;stroke-opacity:1;stroke-miterlimit:10" d="M75.426 51.573c-.605 2.433-2.082 6.277-3.254 8.468-1.171 2.192-3.523 5.516-5.183 7.325-1.66 1.804-4.738 4.394-6.781 5.703-2.04 1.304-5.645 2.992-7.934 3.71-2.29.723-6.18 1.395-8.566 1.485-2.391.086-6.313-.3-8.645-.852-2.332-.55-6.039-1.968-8.16-3.12-2.125-1.157-5.367-3.512-7.145-5.196-1.773-1.68-4.343-4.824-5.656-6.922-1.312-2.101-3.043-5.828-3.808-8.207-.762-2.379-1.54-6.445-1.708-8.953-.164-2.508.067-6.644.508-9.113.442-2.469 1.66-6.414 2.684-8.684 1.023-2.27 3.148-5.762 4.684-7.687 1.539-1.926 4.437-4.73 6.386-6.184 1.95-1.453 5.43-3.402 7.668-4.289 2.235-.887 6.074-1.844 8.45-2.105 2.374-.262 6.316-.168 8.68.21 2.362.38 6.151 1.524 8.347 2.52 2.195.996 5.586 3.11 7.468 4.656 1.883 1.547 4.653 4.496 6.106 6.492 1.45 2 3.418 5.59 4.34 7.907.922 2.32 1.933 6.894 2.297 8.804.367 1.914.441 3.032.332 4.98-.11 1.946-.504 6.622-1.11 9.052ZM84.192 43.748 56.508 83.811m-2.261.746L9.536 69.28m-1.414-1.977V17.737m1.414-1.977L54.246.483m2.262.746L84.192 41.29" transform="matrix(1 0 0 -1 31.601 86.725)"/><path style="fill-rule:nonzero;fill:#000;fill-opacity:1;stroke-width:.59776;stroke-linecap:butt;stroke-linejoin:miter;stroke:#000;stroke-opacity:1;stroke-miterlimit:10" d="M85.54 42.522a.498.498 0 1 1-.996-.003.498.498 0 0 1 .996.003ZM56.157 85.041a.498.498 0 1 1-.997-.003.498.498 0 0 1 .997.003ZM8.618 68.8a.498.498 0 1 1-.997-.003.498.498 0 0 1 .997.002ZM8.618 16.24a.498.498 0 1 1-.996.005.498.498 0 0 1 .996-.004ZM56.157-.002a.498.498 0 1 1-.995.005.498.498 0 0 1 .995-.005Zm0 0" transform="matrix(1 0 0 -1 31.601 86.725)"/><use xlink:href="#a" x="26.191" y="101.491" style="fill:#000;fill-opacity:1"/><use xlink:href="#b" x="32.778" y="101.491" style="fill:#000;fill-opacity:1"/><use xlink:href="#a" x="44.158" y="101.491" style="fill:#000;fill-opacity:1"/><use xlink:href="#c" x="50.744" y="101.491" style="fill:#000;fill-opacity:1"/><use xlink:href="#d" x="54.978" y="101.491" style="fill:#000;fill-opacity:1"/><use xlink:href="#e" x="57.331" y="101.491" style="fill:#000;fill-opacity:1"/><use xlink:href="#c" x="72.004" y="101.491" style="fill:#000;fill-opacity:1"/><use xlink:href="#c" x="89.97" y="101.491" style="fill:#000;fill-opacity:1"/><use xlink:href="#d" x="94.205" y="101.491" style="fill:#000;fill-opacity:1"/><use xlink:href="#e" x="96.557" y="101.491" style="fill:#000;fill-opacity:1"/><use xlink:href="#b" x="114.523" y="101.491" style="fill:#000;fill-opacity:1"/><use xlink:href="#a" x=".33" y="79.889" style="fill:#000;fill-opacity:1"/><use xlink:href="#c" x="6.917" y="79.889" style="fill:#000;fill-opacity:1"/><use xlink:href="#d" x="11.151" y="79.889" style="fill:#000;fill-opacity:1"/><g style="fill:#000;fill-opacity:1"><use xlink:href="#f" x="13.503" y="79.889"/><use xlink:href="#e" x="17.738" y="79.889"/></g><use xlink:href="#a" x="4.564" y="68.712" style="fill:#000;fill-opacity:1"/><use xlink:href="#c" x="11.151" y="68.712" style="fill:#000;fill-opacity:1"/><use xlink:href="#d" x="15.385" y="68.712" style="fill:#000;fill-opacity:1"/><use xlink:href="#e" x="17.737" y="68.712" style="fill:#000;fill-opacity:1"/><use xlink:href="#a" x=".33" y="57.535" style="fill:#000;fill-opacity:1"/><use xlink:href="#c" x="6.917" y="57.535" style="fill:#000;fill-opacity:1"/><use xlink:href="#d" x="11.151" y="57.535" style="fill:#000;fill-opacity:1"/><g style="fill:#000;fill-opacity:1"><use xlink:href="#g" x="13.503" y="57.535"/><use xlink:href="#e" x="17.738" y="57.535"/></g><use xlink:href="#c" x="17.737" y="46.774" style="fill:#000;fill-opacity:1"/><use xlink:href="#c" x="6.917" y="35.597" style="fill:#000;fill-opacity:1"/><use xlink:href="#d" x="11.151" y="35.597" style="fill:#000;fill-opacity:1"/><g style="fill:#000;fill-opacity:1"><use xlink:href="#g" x="13.503" y="35.597"/><use xlink:href="#e" x="17.738" y="35.597"/></g><use xlink:href="#c" x="11.151" y="24.42" style="fill:#000;fill-opacity:1"/><use xlink:href="#d" x="15.385" y="24.42" style="fill:#000;fill-opacity:1"/><use xlink:href="#e" x="17.737" y="24.42" style="fill:#000;fill-opacity:1"/><use xlink:href="#c" x="6.917" y="13.244" style="fill:#000;fill-opacity:1"/><use xlink:href="#d" x="11.151" y="13.244" style="fill:#000;fill-opacity:1"/><g style="fill:#000;fill-opacity:1"><use xlink:href="#f" x="13.503" y="13.244"/><use xlink:href="#e" x="17.738" y="13.244"/></g><use xlink:href="#h" x="155.449" y="43.536" style="fill:#000;fill-opacity:1"/><g style="fill:#000;fill-opacity:1"><use xlink:href="#i" x="161.636" y="43.536"/><use xlink:href="#j" x="166.944" y="43.536"/><use xlink:href="#k" x="169.894" y="43.536"/><use xlink:href="#l" x="175.498" y="43.536"/><use xlink:href="#i" x="180.806" y="43.536"/><use xlink:href="#m" x="186.114" y="43.536"/></g><path style="fill:none;stroke-width:.59776;stroke-linecap:butt;stroke-linejoin:miter;stroke:#000;stroke-opacity:1;stroke-miterlimit:10" d="m-11.316 4.234-3.183-1.488M-15.18.78l.902-1.785m2.168-1.332h4.293m2.168 1.332L-4.745.78m-.68 1.965L-8.61 4.234" transform="matrix(1 0 0 -1 150.472 41.324)"/><path style="fill-rule:nonzero;fill:#000;fill-opacity:1;stroke-width:.59776;stroke-linecap:butt;stroke-linejoin:miter;stroke:#000;stroke-opacity:1;stroke-miterlimit:10" d="M-9.464 4.867a.498.498 0 1 1-.995-.003.498.498 0 0 1 .995.003ZM-15.355 2.113a.498.498 0 1 1-.995.005.498.498 0 0 1 .995-.005ZM-13.105-2.336a.5.5 0 0 1-.496.5.501.501 0 0 1 0-1 .5.5 0 0 1 .496.5ZM-5.824-2.336c0 .273-.222.5-.5.5a.5.5 0 0 1 0-1c.278 0 .5.226.5.5ZM-3.574 2.113a.498.498 0 1 1-.996.003.498.498 0 0 1 .996-.003Zm0 0" transform="matrix(1 0 0 -1 150.472 41.324)"/><g style="fill:#000;fill-opacity:1"><use xlink:href="#n" x="155.449" y="54.495"/><use xlink:href="#o" x="160.165" y="54.495"/><use xlink:href="#p" x="163.115" y="54.495"/><use xlink:href="#n" x="167.491" y="54.495"/><use xlink:href="#j" x="172.207" y="54.495"/><use xlink:href="#q" x="175.157" y="54.495"/></g><path style="fill:none;stroke-width:.59776;stroke-linecap:butt;stroke-linejoin:miter;stroke:#000;stroke-opacity:1;stroke-miterlimit:10" d="M-3.624 1.095c-1.243.215-4.578.454-6.34.454-1.758 0-5.094-.239-6.34-.454-1.242-.214-2.625-.792-2.625-1.093 0-.305 1.383-.883 2.625-1.098 1.246-.215 4.582-.453 6.34-.453 1.762 0 5.097.238 6.34.453C-2.378-.88-.995-.303-.995.002c0 .3-1.383.879-2.63 1.093Zm0 0" transform="matrix(1 0 0 -1 150.472 52.283)"/><g style="fill:#000;fill-opacity:1"><use xlink:href="#j" x="155.449" y="65.453"/><use xlink:href="#o" x="158.399" y="65.453"/><use xlink:href="#m" x="161.349" y="65.453"/><use xlink:href="#q" x="167.24" y="65.453"/></g><path style="fill:none;stroke-width:.59776;stroke-linecap:butt;stroke-linejoin:miter;stroke:#000;stroke-opacity:1;stroke-miterlimit:10" d="m-18.48.387 2.09.554m2.89 0 7.075-1.883m2.887 0 2.093.559" transform="matrix(1 0 0 -1 150.472 63.242)"/><path style="fill-rule:nonzero;fill:red;fill-opacity:1;stroke-width:.59776;stroke-linecap:butt;stroke-linejoin:miter;stroke:red;stroke-opacity:1;stroke-miterlimit:10" d="M-14.445 1.328a.498.498 0 1 1-.995-.003.498.498 0 0 1 .995.003ZM-4.484-1.328a.498.498 0 1 1-.995.004.498.498 0 0 1 .995-.004Zm0 0" transform="matrix(1 0 0 -1 150.472 63.242)"/></svg>