<svg xmlns="http://www.w3.org/2000/svg" xmlns:xlink="http://www.w3.org/1999/xlink" width="147.051" height="85.419" viewBox="0 0 110.288 64.064" version="1.2"><defs><symbol overflow="visible" id="b"><path style="stroke:none" d="M2.5-5.078c0-.219-.016-.219-.234-.219-.329.313-.75.5-1.5.5v.266c.218 0 .64 0 1.109-.203v4.078c0 .297-.031.39-.781.39H.812V0c.329-.031 1.016-.031 1.375-.031.36 0 1.047 0 1.376.031v-.266H3.28c-.75 0-.781-.093-.781-.39Zm0 0"/></symbol><symbol overflow="visible" id="c"><path style="stroke:none" d="M2.64-2.875c.454-.219 1-.61 1-1.234 0-.766-.78-1.188-1.515-1.188-.844 0-1.531.578-1.531 1.328 0 .297.094.563.297.797.14.172.171.188.656.5C.563-2.234.344-1.656.344-1.219c0 .89.89 1.39 1.765 1.39.97 0 1.766-.671 1.766-1.515 0-.5-.266-.828-.406-.968-.125-.126-.14-.141-.828-.563Zm-1.234-.75c-.234-.14-.422-.375-.422-.64 0-.5.547-.829 1.125-.829.61 0 1.125.422 1.125.985 0 .453-.359.843-.828 1.078Zm.39 1.094c.032.015.938.578 1.079.656.125.078.547.328.547.813 0 .609-.656.984-1.297.984-.719 0-1.313-.484-1.313-1.14 0-.595.438-1.063.985-1.313Zm0 0"/></symbol><symbol overflow="visible" id="d"><path style="stroke:none" d="M2.25-1.625c.125-.125.453-.39.594-.5.484-.453.953-.89.953-1.61 0-.953-.797-1.562-1.781-1.562-.97 0-1.594.719-1.594 1.438 0 .39.312.437.422.437.172 0 .422-.11.422-.422 0-.406-.407-.406-.5-.406.234-.594.765-.781 1.156-.781.734 0 1.125.625 1.125 1.297 0 .828-.578 1.437-1.531 2.39l-1 1.047C.422-.219.422-.203.422 0h3.14l.235-1.422h-.25c-.016.156-.078.547-.172.703-.047.063-.656.063-.781.063H1.172Zm0 0"/></symbol><symbol overflow="visible" id="e"><path style="stroke:none" d="M3.14-5.156c0-.157 0-.219-.171-.219-.094 0-.11 0-.188.11L.234-1.564v.25h2.25v.672c0 .297-.015.375-.64.375h-.172V0c.672-.031.687-.031 1.14-.031.454 0 .47 0 1.141.031v-.266h-.172c-.625 0-.64-.078-.64-.375v-.671h.843v-.25h-.843Zm-.593.64v2.954H.516Zm0 0"/></symbol><symbol overflow="visible" id="f"><path style="stroke:none" d="M4.031-4.86c.078-.077.078-.093.078-.265H2.08a8.79 8.79 0 0 1-.642-.031c-.421-.032-.421-.11-.453-.235h-.25L.47-3.703h.25c.015-.125.11-.672.219-.735.078-.046.687-.046.796-.046h1.688l-.813 1.109C1.703-2.172 1.5-.906 1.5-.281c0 .078 0 .453.375.453s.375-.36.375-.453v-.39c0-1.141.203-2.079.594-2.61Zm0 0"/></symbol><symbol overflow="visible" id="g"><path style="stroke:none" d="M2.016-2.656c.625 0 1.03.453 1.03 1.297 0 1-.562 1.28-.983 1.28-.438 0-1.047-.155-1.329-.577.297 0 .5-.188.5-.438 0-.265-.187-.437-.453-.437-.203 0-.437.125-.437.453 0 .75.812 1.25 1.734 1.25 1.047 0 1.797-.734 1.797-1.531 0-.672-.531-1.266-1.344-1.454.625-.218 1.11-.75 1.11-1.39 0-.64-.72-1.094-1.547-1.094-.86 0-1.5.453-1.5 1.063 0 .296.187.421.406.421.25 0 .406-.171.406-.406 0-.297-.265-.406-.437-.406.344-.438.953-.469 1.094-.469.203 0 .812.063.812.89 0 .548-.234.891-.344 1.016-.234.25-.422.266-.906.297-.156 0-.219.016-.219.125 0 .11.078.11.219.11Zm0 0"/></symbol><symbol overflow="visible" id="h"><path style="stroke:none" d="M3.89-2.547c0-.844-.078-1.36-.343-1.875-.344-.703-1-.875-1.438-.875-1 0-1.375.75-1.484.969C.344-3.75.328-2.953.328-2.547c0 .531.016 1.328.406 1.969.36.594.954.75 1.375.75.391 0 1.063-.125 1.47-.906.296-.579.312-1.297.312-1.813ZM2.11-.062c-.266 0-.813-.126-.985-.954-.094-.453-.094-1.203-.094-1.625 0-.546 0-1.109.094-1.546.172-.813.781-.891.984-.891.266 0 .829.14.985.86.094.437.094 1.046.094 1.577 0 .47 0 1.188-.094 1.641-.172.828-.719.938-.985.938Zm0 0"/></symbol><symbol overflow="visible" id="j"><path style="stroke:none" d="M1.094-2.64c0-.657.062-1.235.343-1.72.25-.406.657-.734 1.157-.734.156 0 .515.032.703.297-.36.031-.39.297-.39.375 0 .25.187.375.374.375.14 0 .375-.078.375-.39 0-.47-.36-.86-1.078-.86C1.468-5.297.344-4.25.344-2.53.344-.36 1.359.172 2.125.172c.39 0 .797-.11 1.156-.453.328-.313.594-.64.594-1.344 0-1.031-.797-1.766-1.672-1.766-.578 0-.922.36-1.11.75ZM2.125-.079a.88.88 0 0 1-.797-.516c-.187-.36-.203-.89-.203-1.203 0-.781.422-1.375 1.047-1.375.39 0 .64.203.781.485.172.296.172.656.172 1.062s0 .75-.156 1.047c-.219.36-.485.5-.844.5Zm0 0"/></symbol><symbol overflow="visible" id="k"><path style="stroke:none" d="M3.125-2.344c0 1.938-.922 2.266-1.39 2.266-.173 0-.579-.016-.798-.266.36-.031.375-.297.375-.375a.37.37 0 0 0-.375-.375.37.37 0 0 0-.375.39c0 .548.454.876 1.188.876 1.094 0 2.125-1.094 2.125-2.797 0-2.063-.922-2.672-1.734-2.672-.954 0-1.797.734-1.797 1.781 0 1.016.781 1.766 1.687 1.766.563 0 .906-.36 1.094-.766Zm-1.063.375c-.374 0-.609-.172-.78-.468-.188-.282-.188-.672-.188-1.079 0-.468 0-.796.218-1.125.204-.296.454-.453.829-.453.53 0 .765.532.796.563.157.39.172 1.015.172 1.172 0 .64-.343 1.39-1.046 1.39Zm0 0"/></symbol><symbol overflow="visible" id="i"><path style="stroke:none" d="M1.625-.438a.463.463 0 0 0-.453-.453.447.447 0 0 0-.438.438.44.44 0 0 0 .438.453.45.45 0 0 0 .453-.438Zm0 0"/></symbol><clipPath id="a"><path d="M100 0h9.934v10H100Zm0 0"/></clipPath></defs><path style="fill:none;stroke-width:.3985;stroke-linecap:round;stroke-linejoin:miter;stroke:gray;stroke-opacity:1;stroke-miterlimit:10" d="M0-.002v1.395M10.003-.002v1.395M15.007-.002v1.395M25.01-.002v1.395M30.015-.002v1.395M40.019-.002v1.395M45.023-.002v1.395M55.027-.002v1.395M60.027-.002v1.395M70.034-.002v1.395M75.034-.002v1.395M0 51.159v1.394M10.003 51.159v1.394M15.007 51.159v1.394M25.01 51.159v1.394M30.015 51.159v1.394M40.019 51.159v1.394M45.023 51.159v1.394M55.027 51.159v1.394M60.027 51.159v1.394M70.034 51.159v1.394M75.034 51.159v1.394M5.003-.002v1.996M20.01-.002v1.996M35.015-.002v1.996M50.023-.002v1.996M65.03-.002v1.996M80.038-.002v1.996M5.003 50.56v1.993M20.01 50.56v1.993M35.015 50.56v1.993M50.023 50.56v1.993M65.03 50.56v1.993M80.038 50.56v1.993M0 6.307H1.99M0 15.768H1.99M0 25.225H1.99M0 34.686H1.99M0 44.147H1.99M83.046 6.307h1.996M83.046 15.768h1.996M83.046 25.225h1.996M83.046 34.686h1.996M83.046 44.147h1.996" transform="matrix(1 0 0 -1 22.325 54.639)"/><path style="fill:none;stroke-width:.3985;stroke-linecap:butt;stroke-linejoin:miter;stroke:gray;stroke-opacity:1;stroke-miterlimit:10" d="M0-.002h85.042M0 52.553h85.042M0-.002v52.555M85.042-.002v52.555" transform="matrix(1 0 0 -1 22.325 54.639)"/><path style="fill:none;stroke-width:.3985;stroke-linecap:butt;stroke-linejoin:miter;stroke:#000;stroke-opacity:1;stroke-miterlimit:10" d="M-1.407-1.408 1.409 1.41m-2.816 0 2.816-2.817" transform="matrix(1 0 0 -1 22.325 54.639)"/><g clip-path="url(#a)"><path style="fill:none;stroke-width:.3985;stroke-linecap:butt;stroke-linejoin:miter;stroke:#000;stroke-opacity:1;stroke-miterlimit:10" d="m83.632 51.147 2.816 2.816m-2.816 0 2.816-2.816" transform="matrix(1 0 0 -1 22.325 54.639)"/></g><g style="fill:#000;fill-opacity:1"><use xlink:href="#b" x="23.093" y="62.431"/><use xlink:href="#c" x="27.328" y="62.431"/></g><g style="fill:#000;fill-opacity:1"><use xlink:href="#d" x="38.1" y="62.431"/><use xlink:href="#b" x="42.335" y="62.431"/></g><g style="fill:#000;fill-opacity:1"><use xlink:href="#d" x="53.107" y="62.431"/><use xlink:href="#e" x="57.342" y="62.431"/></g><g style="fill:#000;fill-opacity:1"><use xlink:href="#d" x="68.114" y="62.431"/><use xlink:href="#f" x="72.349" y="62.431"/></g><g style="fill:#000;fill-opacity:1"><use xlink:href="#g" x="83.121" y="62.431"/><use xlink:href="#h" x="87.356" y="62.431"/></g><g style="fill:#000;fill-opacity:1"><use xlink:href="#g" x="98.128" y="62.431"/><use xlink:href="#g" x="102.363" y="62.431"/></g><g style="fill:#000;fill-opacity:1"><use xlink:href="#g" x=".38" y="50.9"/><use xlink:href="#h" x="4.615" y="50.9"/></g><use xlink:href="#i" x="8.849" y="50.9" style="fill:#000;fill-opacity:1"/><g style="fill:#000;fill-opacity:1"><use xlink:href="#d" x="11.201" y="50.9"/><use xlink:href="#e" x="15.436" y="50.9"/></g><g style="fill:#000;fill-opacity:1"><use xlink:href="#g" x="4.614" y="41.441"/><use xlink:href="#h" x="8.849" y="41.441"/></g><use xlink:href="#i" x="13.083" y="41.441" style="fill:#000;fill-opacity:1"/><use xlink:href="#j" x="15.435" y="41.441" style="fill:#000;fill-opacity:1"/><g style="fill:#000;fill-opacity:1"><use xlink:href="#g" x=".38" y="31.981"/><use xlink:href="#h" x="4.615" y="31.981"/></g><use xlink:href="#i" x="8.849" y="31.981" style="fill:#000;fill-opacity:1"/><g style="fill:#000;fill-opacity:1"><use xlink:href="#k" x="11.201" y="31.981"/><use xlink:href="#j" x="15.436" y="31.981"/></g><g style="fill:#000;fill-opacity:1"><use xlink:href="#g" x=".38" y="22.521"/><use xlink:href="#b" x="4.615" y="22.521"/></g><use xlink:href="#i" x="8.849" y="22.521" style="fill:#000;fill-opacity:1"/><g style="fill:#000;fill-opacity:1"><use xlink:href="#g" x="11.201" y="22.521"/><use xlink:href="#d" x="15.436" y="22.521"/></g><g style="fill:#000;fill-opacity:1"><use xlink:href="#g" x=".38" y="13.062"/><use xlink:href="#b" x="4.615" y="13.062"/></g><use xlink:href="#i" x="8.849" y="13.062" style="fill:#000;fill-opacity:1"/><g style="fill:#000;fill-opacity:1"><use xlink:href="#j" x="11.201" y="13.062"/><use xlink:href="#c" x="15.436" y="13.062"/></g></svg>