<svg xmlns="http://www.w3.org/2000/svg" width="64.611" height="15.555" viewBox="0 0 48.458 11.666" version="1.2"><defs><clipPath id="a"><path d="M0 0h48.188v11.5H0Zm0 0"/></clipPath><clipPath id="b"><path d="M0 0h11v11.5H0Zm0 0"/></clipPath><clipPath id="c"><path d="M23 0h16v11.5H23Zm0 0"/></clipPath><clipPath id="d"><path d="M37 0h11.188v11H37Zm0 0"/></clipPath></defs><g clip-path="url(#a)"><path style="fill:none;stroke-width:.3985;stroke-linecap:butt;stroke-linejoin:miter;stroke:#bfbfbf;stroke-opacity:1;stroke-miterlimit:10" d="M0-.002 14.174 5.67 28.347-.002 42.519 5.67" transform="matrix(1 0 0 -1 2.696 8.506)"/></g><g clip-path="url(#b)"><path style="fill:none;stroke-width:.3985;stroke-linecap:butt;stroke-linejoin:miter;stroke:#000;stroke-opacity:1;stroke-miterlimit:10" d="M0-1.994v3.988m-1.895-2.61L1.894.616m-3.067.996L1.171-1.61m0 3.222L-1.173-1.61m3.067.996-3.79 1.23" transform="matrix(1 0 0 -1 2.696 8.506)"/></g><path style="fill:none;stroke-width:.3985;stroke-linecap:butt;stroke-linejoin:miter;stroke:#000;stroke-opacity:1;stroke-miterlimit:10" d="M14.175 3.678v3.984m-1.898-2.61 3.793 1.231m-3.067.996 2.34-3.222m0 3.222-2.34-3.222m3.067.996-3.793 1.23" transform="matrix(1 0 0 -1 2.696 8.506)"/><g clip-path="url(#c)"><path style="fill:none;stroke-width:.3985;stroke-linecap:butt;stroke-linejoin:miter;stroke:#000;stroke-opacity:1;stroke-miterlimit:10" d="M28.347-1.994v3.988m-1.895-2.61 3.79 1.231m-3.067.996L29.52-1.61m0 3.222L27.175-1.61m3.066.996L26.452.615" transform="matrix(1 0 0 -1 2.696 8.506)"/></g><g clip-path="url(#d)"><path style="fill:none;stroke-width:.3985;stroke-linecap:butt;stroke-linejoin:miter;stroke:#000;stroke-opacity:1;stroke-miterlimit:10" d="M42.519 3.678v3.984m-1.895-2.61 3.79 1.231m-3.063.996 2.34-3.222m0 3.222-2.34-3.222m3.062.996-3.789 1.23" transform="matrix(1 0 0 -1 2.696 8.506)"/></g></svg>