<svg xmlns="http://www.w3.org/2000/svg" width="84.132" height="46.347" viewBox="0 0 63.099 34.76" version="1.2"><defs><clipPath id="a"><path d="M0 0h62.648v34.64H0Zm0 0"/></clipPath><clipPath id="b"><path d="M0 4h62.648v30.64H0Zm0 0"/></clipPath></defs><path style="stroke:none;fill-rule:nonzero;fill:gray;fill-opacity:1" d="M4.742 31.438a1.993 1.993 0 1 0-3.986.001 1.993 1.993 0 0 0 3.986-.002ZM33.086 3.09a1.993 1.993 0 1 0-3.983.002 1.993 1.993 0 0 0 3.983-.002Zm28.348 0a1.99 1.99 0 0 0-1.993-1.992A1.99 1.99 0 0 0 57.45 3.09a1.99 1.99 0 0 0 1.992 1.992 1.99 1.99 0 0 0 1.993-1.992Zm0 28.348a1.99 1.99 0 0 0-1.993-1.993 1.993 1.993 0 1 0 1.992 1.992Zm0 0"/><g clip-path="url(#a)"><path style="fill:none;stroke-width:.3985;stroke-linecap:butt;stroke-linejoin:miter;stroke:gray;stroke-opacity:1;stroke-miterlimit:10" d="M1.994-.002a1.993 1.993 0 1 1-3.986-.001 1.993 1.993 0 0 1 3.986.001Zm28.343 28.348a1.993 1.993 0 1 1-3.983-.002 1.993 1.993 0 0 1 3.983.002Zm28.348 0a1.99 1.99 0 0 1-1.992 1.992 1.99 1.99 0 0 1-1.992-1.992 1.99 1.99 0 0 1 1.992-1.992 1.99 1.99 0 0 1 1.992 1.992Zm0-28.348a1.99 1.99 0 0 1-1.992 1.993 1.993 1.993 0 1 1 1.992-1.992Zm0 0" transform="matrix(1 0 0 -1 2.748 31.436)"/></g><g clip-path="url(#b)"><path style="fill:none;stroke-width:.3985;stroke-linecap:butt;stroke-linejoin:miter;stroke:#000;stroke-opacity:1;stroke-miterlimit:10" d="M.002-.002c28.343 28.348 56.69 28.348 56.69 0" transform="matrix(1 0 0 -1 2.748 31.436)"/></g></svg>