<svg xmlns="http://www.w3.org/2000/svg" xmlns:xlink="http://www.w3.org/1999/xlink" width="77.163" height="44.427" viewBox="0 0 57.872 33.32" version="1.2"><defs><symbol overflow="visible" id="a"><path style="stroke:none" d="M1.031 21.703c.328-.015.5-.234.5-.484a.48.48 0 0 0-.484-.5.47.47 0 0 0-.484.5c0 .515.5.937 1.109.937 1.516 0 2.078-2.343 2.781-5.234A130.35 130.35 0 0 0 6.406 7.39C6.781 5.28 7.141 3.28 7.484 2c.125-.5.454-1.781.844-1.781a.98.98 0 0 1 .61.234c-.329.016-.5.234-.5.484 0 .329.25.485.468.485.25 0 .5-.14.5-.5C9.406.39 8.86 0 8.312 0 7.563 0 7 1.094 6.454 3.125c-.031.11-1.39 5.11-2.484 11.625-.266 1.531-.547 3.188-.875 4.578-.188.735-.64 2.61-1.453 2.61-.36 0-.594-.235-.61-.235Zm0 0"/></symbol><symbol overflow="visible" id="f"><path style="stroke:none" d="M7.547 29.39c0-.015 0-.046-.063-.109a15.74 15.74 0 0 1-2.343-3.828c-1.297-3.047-1.829-6.61-1.829-10.906 0-4.235.5-7.969 1.97-11.235C5.858 2.048 6.624.876 7.5-.203c.031-.031.047-.063.047-.094 0-.11-.063-.11-.219-.11s-.172 0-.187.032c-.016 0-.625.61-1.407 1.703C4 3.781 3.125 6.703 2.672 9.672c-.235 1.61-.313 3.25-.313 4.875 0 3.719.47 7.531 2.063 10.937.703 1.516 1.656 2.891 2.64 3.922.079.078.094.094.266.094.156 0 .219 0 .219-.11Zm0 0"/></symbol><symbol overflow="visible" id="g"><path style="stroke:none" d="M3.531 25.125c0 .813 0 1-.078 1.375-.187.797-.656 1.766-1.922 2.531-.078.047-.093.063-.093.235 0 .234.015.234.234.234.172 0 .187 0 .469-.156C4.359 28.078 4.5 26.219 4.5 25.875v-7.094c0-.718 0-1.531.516-2.437a4.201 4.201 0 0 1 1.421-1.516c.141-.094.157-.11.157-.281 0-.125 0-.188-.047-.219-.469-.297-1.766-1.125-2.016-3.078-.031-.219-.031-.25-.031-.36V3.235c0-.812-.5-2.484-2.422-3.5-.234-.14-.25-.14-.406-.14-.219 0-.234 0-.234.234 0 .156 0 .188.062.234 1.906 1.125 2.031 2.782 2.031 3.172v7.657c0 1.093.75 2.78 2.485 3.656-1.079.578-2.36 1.734-2.485 3.61Zm0 0"/></symbol><symbol overflow="visible" id="b"><path style="stroke:none" d="M2.328-4.438c0-.187 0-.187-.203-.187-.453.438-1.078.438-1.36.438v.25c.157 0 .626 0 1-.188v3.547c0 .234 0 .328-.687.328H.812V0c.125 0 .985-.031 1.235-.031.219 0 1.094.031 1.25.031v-.25H3.03c-.703 0-.703-.094-.703-.328Zm0 0"/></symbol><symbol overflow="visible" id="c"><path style="stroke:none" d="M3.594-2.219c0-.765-.094-1.328-.406-1.812-.22-.313-.657-.594-1.204-.594C.36-4.625.36-2.719.36-2.219c0 .5 0 2.36 1.625 2.36 1.61 0 1.61-1.86 1.61-2.36ZM1.984-.063c-.328 0-.75-.187-.89-.75C1-1.219 1-1.796 1-2.313c0-.515 0-1.046.094-1.421.156-.547.593-.704.89-.704.375 0 .735.235.86.641.11.375.125.875.125 1.485 0 .515 0 1.03-.094 1.468-.14.64-.61.781-.89.781Zm0 0"/></symbol><symbol overflow="visible" id="d"><path style="stroke:none" d="M3.328-3.016c.063-.25.297-1.171.985-1.171.046 0 .296 0 .5.125a.578.578 0 0 0-.47.546c0 .157.11.344.376.344a.546.546 0 0 0 .531-.578c0-.516-.578-.656-.922-.656-.578 0-.922.531-1.047.75-.25-.656-.781-.75-1.078-.75-1.031 0-1.61 1.281-1.61 1.531 0 .11.11.11.126.11.078 0 .11-.032.125-.11.344-1.063 1-1.313 1.344-1.313.187 0 .53.094.53.672 0 .313-.171.97-.53 2.375-.157.61-.516 1.032-.954 1.032-.062 0-.28 0-.5-.125.25-.063.47-.266.47-.547 0-.266-.22-.344-.36-.344-.313 0-.547.25-.547.578 0 .453.484.656.922.656.672 0 1.031-.703 1.047-.75.125.36.484.75 1.078.75 1.031 0 1.594-1.28 1.594-1.53 0-.11-.079-.11-.11-.11-.094 0-.11.047-.14.11-.329 1.077-1 1.312-1.313 1.312-.39 0-.547-.313-.547-.657 0-.218.047-.437.156-.875Zm0 0"/></symbol><symbol overflow="visible" id="e"><path style="stroke:none" d="M5.14-6.813s0-.109-.124-.109c-.157 0-1.094.094-1.266.11-.078.015-.14.062-.14.187s.093.125.234.125c.484 0 .5.063.5.172l-.032.203-.593 2.36c-.188-.376-.469-.641-.922-.641-1.156 0-2.39 1.468-2.39 2.922C.406-.547.952.109 1.718.109c.203 0 .703-.046 1.297-.75a.91.91 0 0 0 .906.75c.36 0 .578-.234.75-.546a6.49 6.49 0 0 0 .297-.985c0-.11-.094-.11-.125-.11-.094 0-.11.048-.14.188-.173.64-.345 1.235-.75 1.235-.282 0-.298-.266-.298-.454 0-.25.016-.312.047-.484ZM3.079-1.188c-.062.188-.062.204-.203.375-.438.547-.844.704-1.125.704-.5 0-.64-.547-.64-.938 0-.5.312-1.719.546-2.187.313-.579.75-.954 1.157-.954.64 0 .78.813.78.875a.562.562 0 0 1-.03.172Zm0 0"/></symbol></defs><path style="stroke:none;fill-rule:nonzero;fill:#fcc;fill-opacity:1" d="M7.879 31.973h40.965V.66H7.879Zm0 0"/><use xlink:href="#a" x="11.198" y="6.013" style="fill:#000;fill-opacity:1"/><use xlink:href="#b" x="21.161" y="8.476" style="fill:#000;fill-opacity:1"/><use xlink:href="#c" x="16.733" y="28.651" style="fill:#000;fill-opacity:1"/><use xlink:href="#d" x="27.291" y="19.573" style="fill:#000;fill-opacity:1"/><g style="fill:#000;fill-opacity:1"><use xlink:href="#e" x="34.638" y="19.573"/><use xlink:href="#d" x="39.824" y="19.573"/></g><use xlink:href="#f" x="-1.404" y="1.771" style="fill:#000;fill-opacity:1"/><use xlink:href="#g" x="50.24" y="1.771" style="fill:#000;fill-opacity:1"/></svg>