<svg xmlns="http://www.w3.org/2000/svg" width="153.877" height="31.131" viewBox="0 0 115.408 23.348" version="1.2"><defs><clipPath id="a"><path d="M12 0h33v23.023H12Zm0 0"/></clipPath><clipPath id="b"><path d="M69 0h32v23.023H69Zm0 0"/></clipPath></defs><path style="fill:none;stroke-width:.3985;stroke-linecap:butt;stroke-linejoin:miter;stroke:#000;stroke-opacity:1;stroke-miterlimit:10" d="M14.4-3.488h27.895V3.49H14.4Zm0 0" transform="matrix(1 0 0 -1 .713 11.352)"/><g clip-path="url(#a)"><path style="fill:none;stroke-width:.3985;stroke-linecap:butt;stroke-linejoin:miter;stroke:#000;stroke-opacity:1;stroke-miterlimit:10" d="M17.885-10.46 37.779 9.433" transform="matrix(1 0 0 -1 .713 11.352)"/></g><path style="fill-rule:nonzero;fill:#000;fill-opacity:1;stroke-width:.3985;stroke-linecap:butt;stroke-linejoin:round;stroke:#000;stroke-opacity:1;stroke-miterlimit:10" d="M-1.455 1.114 1.454.001l-2.909-1.113Zm0 0" transform="scale(1 -1) rotate(45 21.564 45.505)"/><path style="fill:none;stroke-width:.3985;stroke-linecap:butt;stroke-linejoin:miter;stroke:#000;stroke-opacity:1;stroke-miterlimit:10" d="M80.682-4.359V4.36L89.202 0ZM80.682 0H89.4M89.4-4.359V4.36" transform="matrix(1 0 0 -1 .713 11.352)"/><g clip-path="url(#b)"><path style="fill:none;stroke-width:.3985;stroke-linecap:butt;stroke-linejoin:miter;stroke:#000;stroke-opacity:1;stroke-miterlimit:10" d="M74.58 10.461 94.475-9.433" transform="matrix(1 0 0 -1 .713 11.352)"/></g><path style="fill-rule:nonzero;fill:#000;fill-opacity:1;stroke-width:.3985;stroke-linecap:butt;stroke-linejoin:round;stroke:#000;stroke-opacity:1;stroke-miterlimit:10" d="M-1.454 1.114 1.455 0l-2.909-1.114Zm0 0" transform="scale(1 -1) rotate(-45 22.504 -125.293)"/><path style="fill:none;stroke-width:.3985;stroke-linecap:butt;stroke-linejoin:miter;stroke:#000;stroke-opacity:1;stroke-miterlimit:10" d="M.002 0h14.2m28.292 0h37.988M89.6 0h23.789" transform="matrix(1 0 0 -1 .713 11.352)"/></svg>