<svg xmlns="http://www.w3.org/2000/svg" xmlns:xlink="http://www.w3.org/1999/xlink" width="229.251" height="97.76pt" viewBox="0 0 171.938 97.76" version="1.2"><defs><symbol overflow="visible" id="b"><path style="stroke:none" d="M5.563-1.813c.14 0 .312 0 .312-.171 0-.188-.172-.188-.313-.188H1c-.125 0-.297 0-.297.188 0 .171.172.171.297.171Zm0 0"/></symbol><symbol overflow="visible" id="c"><path style="stroke:none" d="M2.5-5.078c0-.219-.016-.219-.234-.219-.329.313-.75.5-1.5.5v.266c.218 0 .64 0 1.109-.203v4.078c0 .297-.031.39-.781.39H.812V0c.329-.031 1.016-.031 1.375-.031.36 0 1.047 0 1.376.031v-.266H3.28c-.75 0-.781-.093-.781-.39Zm0 0"/></symbol><symbol overflow="visible" id="d"><path style="stroke:none" d="M3.89-2.547c0-.844-.078-1.36-.343-1.875-.344-.703-1-.875-1.438-.875-1 0-1.375.75-1.484.969C.344-3.75.328-2.953.328-2.547c0 .531.016 1.328.406 1.969.36.594.954.75 1.375.75.391 0 1.063-.125 1.47-.906.296-.579.312-1.297.312-1.813ZM2.11-.062c-.266 0-.813-.126-.985-.954-.094-.453-.094-1.203-.094-1.625 0-.546 0-1.109.094-1.546.172-.813.781-.891.984-.891.266 0 .829.14.985.86.094.437.094 1.046.094 1.577 0 .47 0 1.188-.094 1.641-.172.828-.719.938-.985.938Zm0 0"/></symbol><symbol overflow="visible" id="e"><path style="stroke:none" d="M1.11-4.484c.109.03.421.125.765.125 1 0 1.594-.704 1.594-.829 0-.093-.047-.109-.094-.109-.016 0-.031 0-.094.031a2.982 2.982 0 0 1-1.11.22c-.468 0-.858-.11-1.108-.22-.079-.03-.094-.03-.11-.03-.094 0-.094.077-.094.234v2.328c0 .14 0 .234.125.234.063 0 .079-.031.125-.094.094-.11.391-.515 1.079-.515.437 0 .656.359.734.515.125.281.14.656.14.953 0 .297 0 .735-.218 1.079-.156.25-.485.484-.906.484A1.271 1.271 0 0 1 .734-.922c.016.016.079.016.079.016.218 0 .406-.14.406-.39a.388.388 0 0 0-.39-.407c-.157 0-.407.078-.407.422 0 .718.625 1.453 1.531 1.453 1 0 1.844-.781 1.844-1.766 0-.922-.672-1.75-1.61-1.75-.39 0-.765.125-1.078.406Zm0 0"/></symbol><symbol overflow="visible" id="f"><path style="stroke:none" d="M1.484-.125c0 .516-.109.984-.593 1.469-.032.031-.047.047-.047.078 0 .062.062.11.11.11.093 0 .765-.626.765-1.563 0-.5-.203-.86-.547-.86a.436.436 0 0 0-.438.438c0 .234.157.453.438.453.203 0 .312-.11.312-.125Zm0 0"/></symbol><clipPath id="a"><path d="M20 0h151.906v97.64H20Zm0 0"/></clipPath></defs><path style="fill:none;stroke-width:.3985;stroke-linecap:round;stroke-linejoin:miter;stroke:gray;stroke-opacity:1;stroke-miterlimit:10" d="M11.81 0v1.992M41.337 0v1.992M70.868 0v1.992M100.396 0v1.992M129.923 0v1.992M11.81 85.597v1.996M41.337 85.597v1.996M70.868 85.597v1.996M100.396 85.597v1.996M129.923 85.597v1.996M.001 5.777h1.992M.001 18.452h1.992M.001 31.124h1.992M.001 43.796h1.992M.001 56.468h1.992M.001 69.14h1.992M.001 81.812h1.992M139.743 5.777h1.992M139.743 18.452h1.992M139.743 31.124h1.992M139.743 43.796h1.992M139.743 56.468h1.992M139.743 69.14h1.992M139.743 81.812h1.992" transform="matrix(1 0 0 -1 28.913 88.679)"/><path style="fill:none;stroke-width:.3985;stroke-linecap:butt;stroke-linejoin:miter;stroke:gray;stroke-opacity:1;stroke-miterlimit:10" d="M.001 0h141.734M.001 87.593h141.734M.001 0v87.593M141.735 0v87.593" transform="matrix(1 0 0 -1 28.913 88.679)"/><g clip-path="url(#a)"><path style="fill:none;stroke-width:.59776;stroke-linecap:butt;stroke-linejoin:miter;stroke:#000;stroke-opacity:1;stroke-miterlimit:10" d="M.001 0s4.266 7.503 5.906 10.062c1.637 2.558 4.266 6.273 5.903 8.39 1.64 2.118 4.27 5.153 5.906 6.868 1.64 1.714 4.266 4.14 5.906 5.5 1.64 1.355 4.266 3.242 5.906 4.28 1.637 1.044 4.266 2.454 5.907 3.22 1.636.77 4.265 1.773 5.902 2.308 1.64.535 4.27 1.2 5.906 1.547 1.64.344 4.27.738 5.907.938 1.64.195 4.265.39 5.906.48 1.636.09 4.265.148 5.906.176 1.637.031 4.266.02 5.906.027 1.637.008 4.266-.004 5.903.024 1.64.03 4.27.086 5.906.18 1.64.09 4.265.284 5.906.48 1.637.195 4.266.594 5.906.937 1.637.344 4.266 1.012 5.907 1.547 1.636.535 4.265 1.54 5.902 2.305 1.64.77 4.27 2.18 5.906 3.219 1.64 1.043 4.27 2.925 5.906 4.285 1.641 1.355 4.266 3.785 5.907 5.5 1.636 1.715 4.265 4.75 5.906 6.867 1.637 2.117 4.266 5.828 5.902 8.39 1.64 2.56 5.907 10.063 5.907 10.063" transform="matrix(1 0 0 -1 28.913 88.679)"/></g><use xlink:href="#b" x="33.196" y="96.472" style="fill:#000;fill-opacity:1"/><g style="fill:#000;fill-opacity:1"><use xlink:href="#c" x="39.783" y="96.472"/><use xlink:href="#d" x="44.018" y="96.472"/></g><use xlink:href="#b" x="64.841" y="96.472" style="fill:#000;fill-opacity:1"/><use xlink:href="#e" x="71.427" y="96.472" style="fill:#000;fill-opacity:1"/><use xlink:href="#d" x="97.661" y="96.472" style="fill:#000;fill-opacity:1"/><use xlink:href="#e" x="127.188" y="96.472" style="fill:#000;fill-opacity:1"/><g style="fill:#000;fill-opacity:1"><use xlink:href="#c" x="154.599" y="96.472"/><use xlink:href="#d" x="158.834" y="96.472"/></g><use xlink:href="#b" x=".381" y="84.694" style="fill:#000;fill-opacity:1"/><use xlink:href="#c" x="6.968" y="84.694" style="fill:#000;fill-opacity:1"/><use xlink:href="#f" x="11.202" y="84.694" style="fill:#000;fill-opacity:1"/><g style="fill:#000;fill-opacity:1"><use xlink:href="#e" x="13.554" y="84.694"/><use xlink:href="#d" x="17.789" y="84.694"/><use xlink:href="#d" x="22.023" y="84.694"/></g><use xlink:href="#b" x=".381" y="72.022" style="fill:#000;fill-opacity:1"/><use xlink:href="#c" x="6.968" y="72.022" style="fill:#000;fill-opacity:1"/><use xlink:href="#f" x="11.202" y="72.022" style="fill:#000;fill-opacity:1"/><g style="fill:#000;fill-opacity:1"><use xlink:href="#d" x="13.554" y="72.022"/><use xlink:href="#d" x="17.789" y="72.022"/><use xlink:href="#d" x="22.023" y="72.022"/></g><use xlink:href="#b" x="6.968" y="59.709" style="fill:#000;fill-opacity:1"/><g style="fill:#000;fill-opacity:1"><use xlink:href="#e" x="13.554" y="59.709"/><use xlink:href="#d" x="17.789" y="59.709"/><use xlink:href="#d" x="22.023" y="59.709"/></g><use xlink:href="#d" x="22.023" y="47.452" style="fill:#000;fill-opacity:1"/><g style="fill:#000;fill-opacity:1"><use xlink:href="#e" x="13.554" y="34.78"/><use xlink:href="#d" x="17.789" y="34.78"/><use xlink:href="#d" x="22.023" y="34.78"/></g><use xlink:href="#c" x="6.968" y="21.333" style="fill:#000;fill-opacity:1"/><use xlink:href="#f" x="11.202" y="21.333" style="fill:#000;fill-opacity:1"/><g style="fill:#000;fill-opacity:1"><use xlink:href="#d" x="13.554" y="21.333"/><use xlink:href="#d" x="17.789" y="21.333"/><use xlink:href="#d" x="22.023" y="21.333"/></g><use xlink:href="#c" x="6.968" y="8.661" style="fill:#000;fill-opacity:1"/><use xlink:href="#f" x="11.202" y="8.661" style="fill:#000;fill-opacity:1"/><g style="fill:#000;fill-opacity:1"><use xlink:href="#e" x="13.554" y="8.661"/><use xlink:href="#d" x="17.789" y="8.661"/><use xlink:href="#d" x="22.023" y="8.661"/></g></svg>