<svg xmlns="http://www.w3.org/2000/svg" width="154.635" height="144.963" viewBox="0 0 115.976 108.722" version="1.2"><defs><clipPath id="a"><path d="M80 0h35.965v57H80Zm0 0"/></clipPath><clipPath id="b"><path d="M0 59h36v49.582H0Zm0 0"/></clipPath></defs><path style="fill:none;stroke-width:.3985;stroke-linecap:butt;stroke-linejoin:miter;stroke:#000;stroke-opacity:1;stroke-miterlimit:10" d="M0 .001v42.52h28.348V0Zm0 0c14.172 0 25.156 32.954 28.348 42.52M42.52.001v42.52h28.347V0Zm0 0c3.191 9.567 14.175 42.52 28.347 42.52" transform="matrix(1 0 0 -1 1.367 50.685)"/><g clip-path="url(#a)"><path style="fill:none;stroke-width:.3985;stroke-linecap:butt;stroke-linejoin:miter;stroke:#000;stroke-opacity:1;stroke-miterlimit:10" d="M85.04.001v42.52h28.347V0Zm0 0c2.394 11.16 10.632 49.606 21.261 49.606 3.543 0 6.289-5.492 7.086-7.086" transform="matrix(1 0 0 -1 1.367 50.685)"/></g><g clip-path="url(#b)"><path style="fill:none;stroke-width:.3985;stroke-linecap:butt;stroke-linejoin:miter;stroke:#000;stroke-opacity:1;stroke-miterlimit:10" d="M28.348-14.174 0-56.694c14.172 0 25.156 32.953 28.348 42.52Zm0 0" transform="matrix(1 0 0 -1 1.367 50.685)"/></g></svg>