<svg xmlns="http://www.w3.org/2000/svg" width="153.877" height="50.317" viewBox="0 0 115.408 37.738" version="1.2"><defs><clipPath id="a"><path d="M66 23h40v14.605H66Zm0 0"/></clipPath></defs><path style="fill:none;stroke-width:.3985;stroke-linecap:butt;stroke-linejoin:miter;stroke:#000;stroke-opacity:1;stroke-miterlimit:10" d="M14.4 24.861h27.895v6.973H14.4Zm0 0" transform="matrix(1 0 0 -1 .713 32.92)"/><path style="fill:none;stroke-width:.3985;stroke-linecap:round;stroke-linejoin:miter;stroke:#000;stroke-opacity:1;stroke-miterlimit:10" d="M71.092 28.346a3.49 3.49 0 0 0 6.976 0 3.486 3.486 0 1 0 6.973 0 3.486 3.486 0 1 0 6.973 0 3.49 3.49 0 0 0 6.976 0" transform="matrix(1 0 0 -1 .713 32.92)"/><path style="fill:none;stroke-width:.3985;stroke-linecap:butt;stroke-linejoin:miter;stroke:#000;stroke-opacity:1;stroke-miterlimit:10" d="M.002 28.346h14.2m28.292 0h28.598m27.898 0h14.399M17.885-3.486h20.922v6.972H17.885Zm0 0" transform="matrix(1 0 0 -1 .713 32.92)"/><g clip-path="url(#a)"><path style="fill:none;stroke-width:.3985;stroke-linecap:round;stroke-linejoin:miter;stroke:#000;stroke-opacity:1;stroke-miterlimit:10" d="M71.092-.002a3.49 3.49 0 0 0 6.976 0 3.486 3.486 0 1 0 6.973 0 3.486 3.486 0 1 0 6.973 0 3.49 3.49 0 0 0 6.976 0" transform="matrix(1 0 0 -1 .713 32.92)"/></g><path style="fill:none;stroke-width:.3985;stroke-linecap:butt;stroke-linejoin:miter;stroke:#000;stroke-opacity:1;stroke-miterlimit:10" d="M.002-.002h17.683m21.32 0h32.087m27.898 0h14.399" transform="matrix(1 0 0 -1 .713 32.92)"/></svg>