<svg xmlns="http://www.w3.org/2000/svg" xmlns:xlink="http://www.w3.org/1999/xlink" width="220.733" height="139.779" viewBox="0 0 165.55 104.834" version="1.2"><defs><symbol overflow="visible" id="c"><path style="stroke:none" d="M3.89-2.547c0-.844-.078-1.36-.343-1.875-.344-.703-1-.875-1.438-.875-1 0-1.375.75-1.484.969C.344-3.75.328-2.953.328-2.547c0 .531.016 1.328.406 1.969.36.594.954.75 1.375.75.391 0 1.063-.125 1.47-.906.296-.579.312-1.297.312-1.813ZM2.11-.062c-.266 0-.813-.126-.985-.954-.094-.453-.094-1.203-.094-1.625 0-.546 0-1.109.094-1.546.172-.813.781-.891.984-.891.266 0 .829.14.985.86.094.437.094 1.046.094 1.577 0 .47 0 1.188-.094 1.641-.172.828-.719.938-.985.938Zm0 0"/></symbol><symbol overflow="visible" id="e"><path style="stroke:none" d="M1.11-4.484c.109.03.421.125.765.125 1 0 1.594-.704 1.594-.829 0-.093-.047-.109-.094-.109-.016 0-.031 0-.094.031a2.982 2.982 0 0 1-1.11.22c-.468 0-.858-.11-1.108-.22-.079-.03-.094-.03-.11-.03-.094 0-.094.077-.094.234v2.328c0 .14 0 .234.125.234.063 0 .079-.031.125-.094.094-.11.391-.515 1.079-.515.437 0 .656.359.734.515.125.281.14.656.14.953 0 .297 0 .735-.218 1.079-.156.25-.485.484-.906.484A1.271 1.271 0 0 1 .734-.922c.016.016.079.016.079.016.218 0 .406-.14.406-.39a.388.388 0 0 0-.39-.407c-.157 0-.407.078-.407.422 0 .718.625 1.453 1.531 1.453 1 0 1.844-.781 1.844-1.766 0-.922-.672-1.75-1.61-1.75-.39 0-.765.125-1.078.406Zm0 0"/></symbol><symbol overflow="visible" id="f"><path style="stroke:none" d="M2.5-5.078c0-.219-.016-.219-.234-.219-.329.313-.75.5-1.5.5v.266c.218 0 .64 0 1.109-.203v4.078c0 .297-.031.39-.781.39H.812V0c.329-.031 1.016-.031 1.375-.031.36 0 1.047 0 1.376.031v-.266H3.28c-.75 0-.781-.093-.781-.39Zm0 0"/></symbol><symbol overflow="visible" id="g"><path style="stroke:none" d="M2.25-1.625c.125-.125.453-.39.594-.5.484-.453.953-.89.953-1.61 0-.953-.797-1.562-1.781-1.562-.97 0-1.594.719-1.594 1.438 0 .39.312.437.422.437.172 0 .422-.11.422-.422 0-.406-.407-.406-.5-.406.234-.594.765-.781 1.156-.781.734 0 1.125.625 1.125 1.297 0 .828-.578 1.437-1.531 2.39l-1 1.047C.422-.219.422-.203.422 0h3.14l.235-1.422h-.25c-.016.156-.078.547-.172.703-.047.063-.656.063-.781.063H1.172Zm0 0"/></symbol><symbol overflow="visible" id="h"><path style="stroke:none" d="M2.016-2.656c.625 0 1.03.453 1.03 1.297 0 1-.562 1.28-.983 1.28-.438 0-1.047-.155-1.329-.577.297 0 .5-.188.5-.438 0-.265-.187-.437-.453-.437-.203 0-.437.125-.437.453 0 .75.812 1.25 1.734 1.25 1.047 0 1.797-.734 1.797-1.531 0-.672-.531-1.266-1.344-1.454.625-.218 1.11-.75 1.11-1.39 0-.64-.72-1.094-1.547-1.094-.86 0-1.5.453-1.5 1.063 0 .296.187.421.406.421.25 0 .406-.171.406-.406 0-.297-.265-.406-.437-.406.344-.438.953-.469 1.094-.469.203 0 .812.063.812.89 0 .548-.234.891-.344 1.016-.234.25-.422.266-.906.297-.156 0-.219.016-.219.125 0 .11.078.11.219.11Zm0 0"/></symbol><symbol overflow="visible" id="i"><path style="stroke:none" d="M3.14-5.156c0-.157 0-.219-.171-.219-.094 0-.11 0-.188.11L.234-1.564v.25h2.25v.672c0 .297-.015.375-.64.375h-.172V0c.672-.031.687-.031 1.14-.031.454 0 .47 0 1.141.031v-.266h-.172c-.625 0-.64-.078-.64-.375v-.671h.843v-.25h-.843Zm-.593.64v2.954H.516Zm0 0"/></symbol><symbol overflow="visible" id="j"><path style="stroke:none" d="M1.094-2.64c0-.657.062-1.235.343-1.72.25-.406.657-.734 1.157-.734.156 0 .515.032.703.297-.36.031-.39.297-.39.375 0 .25.187.375.374.375.14 0 .375-.078.375-.39 0-.47-.36-.86-1.078-.86C1.468-5.297.344-4.25.344-2.53.344-.36 1.359.172 2.125.172c.39 0 .797-.11 1.156-.453.328-.313.594-.64.594-1.344 0-1.031-.797-1.766-1.672-1.766-.578 0-.922.36-1.11.75ZM2.125-.079a.88.88 0 0 1-.797-.516c-.187-.36-.203-.89-.203-1.203 0-.781.422-1.375 1.047-1.375.39 0 .64.203.781.485.172.296.172.656.172 1.062s0 .75-.156 1.047c-.219.36-.485.5-.844.5Zm0 0"/></symbol><symbol overflow="visible" id="k"><path style="stroke:none" d="M2.64-2.875c.454-.219 1-.61 1-1.234 0-.766-.78-1.188-1.515-1.188-.844 0-1.531.578-1.531 1.328 0 .297.094.563.297.797.14.172.171.188.656.5C.563-2.234.344-1.656.344-1.219c0 .89.89 1.39 1.765 1.39.97 0 1.766-.671 1.766-1.515 0-.5-.266-.828-.406-.968-.125-.126-.14-.141-.828-.563Zm-1.234-.75c-.234-.14-.422-.375-.422-.64 0-.5.547-.829 1.125-.829.61 0 1.125.422 1.125.985 0 .453-.359.843-.828 1.078Zm.39 1.094c.032.015.938.578 1.079.656.125.078.547.328.547.813 0 .609-.656.984-1.297.984-.719 0-1.313-.484-1.313-1.14 0-.595.438-1.063.985-1.313Zm0 0"/></symbol><symbol overflow="visible" id="d"><path style="stroke:none" d="M1.625-.438a.463.463 0 0 0-.453-.453.447.447 0 0 0-.438.438.44.44 0 0 0 .438.453.45.45 0 0 0 .453-.438Zm0 0"/></symbol><clipPath id="a"><path d="M12 0h153.324v98H12Zm0 0"/></clipPath><clipPath id="b"><path d="M152 78h13.324v21H152Zm0 0"/></clipPath></defs><path style="fill:none;stroke-width:.3985;stroke-linecap:round;stroke-linejoin:miter;stroke:gray;stroke-opacity:1;stroke-miterlimit:10" d="M-.001-6.973v1.992M22.558-6.973v1.992M45.116-6.973v1.992M67.675-6.973v1.992M90.233-6.973v1.992M112.792-6.973v1.992M135.35-6.973v1.992M-6.974 0h1.992M-6.974 17.789h1.992M-6.974 35.578h1.992M-6.974 53.367h1.992M-6.974 71.156h1.992" transform="matrix(1 0 0 -1 20.962 88.824)"/><path style="fill:none;stroke-width:.3985;stroke-linecap:butt;stroke-linejoin:miter;stroke:gray;stroke-opacity:1;stroke-miterlimit:10" d="M-.001-4.98h141.734" transform="matrix(1 0 0 -1 20.962 88.824)"/><path style="fill:none;stroke-width:.3985;stroke-linecap:square;stroke-linejoin:miter;stroke:#bfbfbf;stroke-opacity:1;stroke-miterlimit:10" d="M-.001 0h141.734M-.001 87.59h141.734" transform="matrix(1 0 0 -1 20.962 88.824)"/><path style="fill:none;stroke-width:.3985;stroke-linecap:butt;stroke-linejoin:miter;stroke:gray;stroke-opacity:1;stroke-miterlimit:10" d="M-4.982 0v87.59" transform="matrix(1 0 0 -1 20.962 88.824)"/><path style="fill:none;stroke-width:.3985;stroke-linecap:square;stroke-linejoin:miter;stroke:#bfbfbf;stroke-opacity:1;stroke-miterlimit:10" d="M-.001 0v87.59M141.733 0v87.59" transform="matrix(1 0 0 -1 20.962 88.824)"/><g clip-path="url(#a)"><path style="fill:none;stroke-width:.59776;stroke-linecap:butt;stroke-linejoin:miter;stroke:#000;stroke-opacity:1;stroke-miterlimit:10" d="m-.001 0 15.75 30.418 15.746 26.75 15.75 19.855 15.75 10.57h15.746l15.75-10.566 15.746-19.855 15.75-26.746L141.733.004" transform="matrix(1 0 0 -1 20.962 88.824)"/></g><path style="fill:none;stroke-width:.59776;stroke-linecap:butt;stroke-linejoin:miter;stroke:#000;stroke-opacity:1;stroke-miterlimit:10" d="m-1.407-1.41 2.816 2.82m-2.816 0 2.816-2.82M45.835 75.617l2.82 2.816m-2.82 0 2.82-2.816M93.081 75.617l2.816 2.82m-2.816 0 2.816-2.82" transform="matrix(1 0 0 -1 20.962 88.824)"/><g clip-path="url(#b)"><path style="fill:none;stroke-width:.59776;stroke-linecap:butt;stroke-linejoin:miter;stroke:#000;stroke-opacity:1;stroke-miterlimit:10" d="m140.327-1.403 2.816 2.817m-2.816 0 2.816-2.817" transform="matrix(1 0 0 -1 20.962 88.824)"/></g><use xlink:href="#c" x="18.845" y="103.591" style="fill:#000;fill-opacity:1"/><use xlink:href="#c" x="38.109" y="103.591" style="fill:#000;fill-opacity:1"/><use xlink:href="#d" x="42.344" y="103.591" style="fill:#000;fill-opacity:1"/><use xlink:href="#e" x="44.696" y="103.591" style="fill:#000;fill-opacity:1"/><use xlink:href="#f" x="63.961" y="103.591" style="fill:#000;fill-opacity:1"/><use xlink:href="#f" x="83.225" y="103.591" style="fill:#000;fill-opacity:1"/><use xlink:href="#d" x="87.459" y="103.591" style="fill:#000;fill-opacity:1"/><use xlink:href="#e" x="89.812" y="103.591" style="fill:#000;fill-opacity:1"/><use xlink:href="#g" x="109.076" y="103.591" style="fill:#000;fill-opacity:1"/><use xlink:href="#g" x="128.341" y="103.591" style="fill:#000;fill-opacity:1"/><use xlink:href="#d" x="132.575" y="103.591" style="fill:#000;fill-opacity:1"/><use xlink:href="#e" x="134.927" y="103.591" style="fill:#000;fill-opacity:1"/><use xlink:href="#h" x="154.192" y="103.591" style="fill:#000;fill-opacity:1"/><use xlink:href="#c" x="7.098" y="91.393" style="fill:#000;fill-opacity:1"/><use xlink:href="#c" x=".511" y="73.604" style="fill:#000;fill-opacity:1"/><use xlink:href="#d" x="4.745" y="73.604" style="fill:#000;fill-opacity:1"/><use xlink:href="#g" x="7.098" y="73.604" style="fill:#000;fill-opacity:1"/><use xlink:href="#c" x=".511" y="55.816" style="fill:#000;fill-opacity:1"/><use xlink:href="#d" x="4.745" y="55.816" style="fill:#000;fill-opacity:1"/><use xlink:href="#i" x="7.098" y="55.816" style="fill:#000;fill-opacity:1"/><use xlink:href="#c" x=".511" y="38.027" style="fill:#000;fill-opacity:1"/><use xlink:href="#d" x="4.745" y="38.027" style="fill:#000;fill-opacity:1"/><use xlink:href="#j" x="7.098" y="38.027" style="fill:#000;fill-opacity:1"/><use xlink:href="#c" x=".511" y="20.239" style="fill:#000;fill-opacity:1"/><use xlink:href="#d" x="4.745" y="20.239" style="fill:#000;fill-opacity:1"/><use xlink:href="#k" x="7.098" y="20.239" style="fill:#000;fill-opacity:1"/></svg>