<svg xmlns="http://www.w3.org/2000/svg" width="34.132" height="65.787" viewBox="0 0 25.599 49.34" version="1.2"><path style="stroke:none;fill-rule:nonzero;comp-op:color-dodge;fill:#ff0;fill-opacity:1" d="M20.074 8.16A7.47 7.47 0 0 0 12.602.687a7.47 7.47 0 0 0-7.47 7.473 7.472 7.472 0 1 0 14.942 0Zm0 0"/><path style="stroke:none;fill-rule:nonzero;comp-op:color-dodge;fill:#0ff;fill-opacity:1" d="M15.762 15.633a7.473 7.473 0 1 0-14.945 0 7.473 7.473 0 0 0 14.945 0Zm0 0"/><path style="stroke:none;fill-rule:nonzero;comp-op:color-dodge;fill:#f0f;fill-opacity:1" d="M24.39 15.633a7.473 7.473 0 1 0-14.945 0 7.473 7.473 0 0 0 14.946 0Zm0 0"/><path style="stroke:none;fill-rule:nonzero;comp-op:color-dodge;fill:#ffff80;fill-opacity:1" d="M20.074 33.066a7.472 7.472 0 1 0-14.941 0 7.472 7.472 0 1 0 14.941 0Zm0 0"/><path style="stroke:none;fill-rule:nonzero;comp-op:color-dodge;fill:#80ffff;fill-opacity:1" d="M15.762 40.54a7.473 7.473 0 1 0-14.945 0 7.473 7.473 0 0 0 14.945 0Zm0 0"/><path style="stroke:none;fill-rule:nonzero;comp-op:color-dodge;fill:#ff80ff;fill-opacity:1" d="M24.39 40.54a7.473 7.473 0 1 0-14.945 0 7.473 7.473 0 0 0 14.946 0Zm0 0"/></svg>