<svg xmlns="http://www.w3.org/2000/svg" width="78.952" height="78.843" viewBox="0 0 59.214 59.132" version="1.2"><defs><clipPath id="a"><path d="M0 0h58.82v35H0Zm0 0"/></clipPath><clipPath id="b"><path d="M0 23h58.82v35.7H0Zm0 0"/></clipPath></defs><g clip-path="url(#a)"><path style="fill:none;stroke-width:.3985;stroke-linecap:butt;stroke-linejoin:miter;stroke:#000;stroke-opacity:1;stroke-miterlimit:10" d="m28.348.001-8.305 20.043L0 28.35l-20.043-8.305-7.543-18.203" transform="matrix(1 0 0 -1 29.215 29.13)"/></g><path style="stroke:none;fill-rule:nonzero;fill:#000;fill-opacity:1" d="m.867 29.129 2.696-2.336-1.934.496-1.012-1.715"/><g clip-path="url(#b)"><path style="fill:none;stroke-width:.3985;stroke-linecap:butt;stroke-linejoin:miter;stroke:red;stroke-opacity:1;stroke-miterlimit:10" d="m-28.348.001 8.305-20.043L0-28.347l20.043 8.305 7.543 18.2" transform="matrix(1 0 0 -1 29.215 29.13)"/></g><path style="stroke:none;fill-rule:nonzero;fill:red;fill-opacity:1" d="m57.563 29.129-2.696 2.336 1.93-.492 1.016 1.71"/></svg>