<svg xmlns="http://www.w3.org/2000/svg" xmlns:xlink="http://www.w3.org/1999/xlink" width="116.077" height="21.819" viewBox="0 0 87.058 16.364" version="1.2"><defs><clipPath id="a"><path d="M30 0h26v16.047H30Zm0 0"/></clipPath><symbol overflow="visible" id="b"><path style="stroke:none" d="M6.75-1.61H6.5a3.74 3.74 0 0 1-.188.72c-.046.156-.078.25-.656.25H4.86c.141-.563.438-1.047.891-1.704.469-.703.875-1.39.875-2.187 0-1.375-1.344-2.5-3.031-2.5-1.703 0-3.031 1.14-3.031 2.5 0 .797.406 1.484.875 2.187.437.656.75 1.14.89 1.703h-.797c-.578 0-.61-.093-.656-.234-.094-.234-.14-.484-.188-.734h-.25L.766 0h1.593c.22 0 .25 0 .25-.203 0-.703-.312-1.578-.53-2.219-.22-.578-.5-1.36-.5-2.11 0-1.593 1.109-2.28 2.015-2.28.953 0 2.015.718 2.015 2.28 0 .75-.28 1.5-.562 2.313-.156.422-.469 1.328-.469 2.016 0 .203.031.203.25.203h1.594Zm0 0"/></symbol></defs><g clip-path="url(#a)"><path style="fill:none;stroke-width:.3985;stroke-linecap:butt;stroke-linejoin:miter;stroke:#000;stroke-opacity:1;stroke-miterlimit:10" d="M49.493 0a6.972 6.972 0 0 1-6.972 6.973A6.972 6.972 0 0 1 35.548.001a6.972 6.972 0 0 1 6.973-6.973A6.972 6.972 0 0 1 49.493.001Zm0 0" transform="matrix(1 0 0 -1 .538 7.86)"/></g><use xlink:href="#b" x="39.46" y="11.264" style="fill:#000;fill-opacity:1"/><path style="fill:none;stroke-width:.3985;stroke-linecap:butt;stroke-linejoin:miter;stroke:#000;stroke-opacity:1;stroke-miterlimit:10" d="M.001 0H35.35m14.343 0H85.04" transform="matrix(1 0 0 -1 .538 7.86)"/></svg>