<svg xmlns="http://www.w3.org/2000/svg" width="98.03pt" height="241.035" viewBox="0 0 98.03 180.776" version="1.2"><defs><clipPath id="a"><path d="M82 38h15.547v20H82Zm0 0"/></clipPath><clipPath id="b"><path d="M79 52h18.547v23H79Zm0 0"/></clipPath><clipPath id="c"><path d="M22 162h23v18.664H22Zm0 0"/></clipPath><clipPath id="d"><path d="M38 166h20v14.664H38Zm0 0"/></clipPath><clipPath id="e"><path d="M53 164h18v16.664H53Zm0 0"/></clipPath></defs><path style="fill-rule:nonzero;fill:#fcd205;fill-opacity:1;stroke-width:.3985;stroke-linecap:butt;stroke-linejoin:miter;stroke:#fab20b;stroke-opacity:1;stroke-miterlimit:10" d="m-5.282-.001 3.144-1.55.504-3.47 2.45 2.508 3.457-.59L2.64 0l1.633 3.105-3.457-.593-2.45 2.511-.504-3.468Zm0 0" transform="matrix(1 0 0 -1 6.247 48.456)"/><path style="fill-rule:nonzero;fill:#f89d0e;fill-opacity:1;stroke-width:.3985;stroke-linecap:butt;stroke-linejoin:miter;stroke:#f1491c;stroke-opacity:1;stroke-miterlimit:10" d="m-1.618 15.948 1.906-1.847-.441-2.622 2.347 1.247 2.36-1.23-.461 2.616 1.898 1.864-2.633.37-1.183 2.38-1.168-2.387Zm0 0" transform="matrix(1 0 0 -1 6.247 48.456)"/><path style="fill-rule:nonzero;fill:#fcd205;fill-opacity:1;stroke-width:.3985;stroke-linecap:butt;stroke-linejoin:miter;stroke:#fab20b;stroke-opacity:1;stroke-miterlimit:10" d="m7.042 29.647.793-1.78-1.02-1.665 1.938.203 1.27-1.48.402 1.906 1.8.746-1.687.977-.152 1.941-1.45-1.305Zm0 0" transform="matrix(1 0 0 -1 6.247 48.456)"/><path style="fill-rule:nonzero;fill:#fcd106;fill-opacity:1;stroke-width:.3985;stroke-linecap:butt;stroke-linejoin:miter;stroke:#f9b00b;stroke-opacity:1;stroke-miterlimit:10" d="m18.878 40.726.105-2.696-2.164-1.613 2.598-.734.863-2.559 1.504 2.242 2.7.035-1.672 2.121.804 2.579-2.535-.934Zm0 0" transform="matrix(1 0 0 -1 6.247 48.456)"/><path style="fill-rule:nonzero;fill:#fabb09;fill-opacity:1;stroke-width:.3985;stroke-linecap:butt;stroke-linejoin:miter;stroke:#f68512;stroke-opacity:1;stroke-miterlimit:10" d="m34.07 47.108-1.028-3.343-3.336-1.051 2.863-2.008-.03-3.496 2.792 2.101 3.317-1.113-1.133 3.309 2.078 2.808-3.496-.054Zm0 0" transform="matrix(1 0 0 -1 6.247 48.456)"/><path style="fill-rule:nonzero;fill:#f8a30d;fill-opacity:1;stroke-width:.3985;stroke-linecap:butt;stroke-linejoin:miter;stroke:#f2541b;stroke-opacity:1;stroke-miterlimit:10" d="M50.464 46.28 48.8 43.905l-2.902.028 1.742-2.32-.922-2.75 2.746.94 2.328-1.726-.047 2.899 2.363 1.683-2.773.852Zm0 0" transform="matrix(1 0 0 -1 6.247 48.456)"/><path style="fill-rule:nonzero;fill:#feec01;fill-opacity:1;stroke-width:.3985;stroke-linecap:butt;stroke-linejoin:miter;stroke:#fee502;stroke-opacity:1;stroke-miterlimit:10" d="m66.679 42.483-3.156-2.27-3.665 1.313 1.188-3.703-2.383-3.078 3.89-.02 2.192-3.21 1.219 3.691 3.734 1.09-3.136 2.3Zm0 0" transform="matrix(1 0 0 -1 6.247 48.456)"/><path style="fill-rule:nonzero;fill:#fab60a;fill-opacity:1;stroke-width:.3985;stroke-linecap:butt;stroke-linejoin:miter;stroke:#f57a14;stroke-opacity:1;stroke-miterlimit:10" d="m80.03 31.843-3.804-.946-2.938 2.594-.273-3.91-3.38-1.992 3.638-1.469.851-3.828 2.52 3.004 3.902-.375-2.078 3.328Zm0 0" transform="matrix(1 0 0 -1 6.247 48.456)"/><path style="fill-rule:nonzero;fill:#f9a90c;fill-opacity:1;stroke-width:.3985;stroke-linecap:butt;stroke-linejoin:miter;stroke:#f36018;stroke-opacity:1;stroke-miterlimit:10" d="m84.573 15.647-1.265.18-.57 1.145-.56-1.149-1.265-.191.922-.887-.21-1.262 1.128.602 1.133-.59-.223 1.258Zm0 0" transform="matrix(1 0 0 -1 6.247 48.456)"/><path style="stroke:none;fill-rule:nonzero;fill:#f89a0f;fill-opacity:1" d="m95.473 48.094-2.5-1.215-.418-2.75-1.926 2.004-2.746-.453 1.308 2.453-1.277 2.469 2.738-.489 1.953 1.98.383-2.753Zm0 0"/><g clip-path="url(#a)"><path style="fill:none;stroke-width:.3985;stroke-linecap:butt;stroke-linejoin:miter;stroke:#f0431e;stroke-opacity:1;stroke-miterlimit:10" d="m89.226.362-2.5 1.215-.418 2.75-1.926-2.004-2.746.453L82.944.323l-1.277-2.469 2.738.489 1.953-1.98.383 2.753Zm0 0" transform="matrix(1 0 0 -1 6.247 48.456)"/></g><path style="stroke:none;fill-rule:nonzero;fill:#fab80a;fill-opacity:1" d="m96.082 63.934-3.195-2.274.058-3.918-3.148 2.336-3.707-1.27 1.25 3.72-2.356 3.136 3.922-.043 2.258 3.207 1.172-3.742Zm0 0"/><g clip-path="url(#b)"><path style="fill:none;stroke-width:.3985;stroke-linecap:butt;stroke-linejoin:miter;stroke:#f57e13;stroke-opacity:1;stroke-miterlimit:10" d="m89.835-15.478-3.195 2.274.058 3.918-3.148-2.336-3.707 1.27 1.25-3.72-2.356-3.136 3.922.043 2.258-3.207 1.172 3.742Zm0 0" transform="matrix(1 0 0 -1 6.247 48.456)"/></g><path style="fill-rule:nonzero;fill:#fddc04;fill-opacity:1;stroke-width:.3985;stroke-linecap:butt;stroke-linejoin:miter;stroke:#fbc508;stroke-opacity:1;stroke-miterlimit:10" d="m82.01-30.122-1.1 1.598.69 1.808-1.855-.55-1.508 1.214-.046-1.937-1.626-1.059 1.829-.644.504-1.872 1.18 1.54Zm0 0" transform="matrix(1 0 0 -1 6.247 48.456)"/><path style="fill-rule:nonzero;fill:#f79310;fill-opacity:1;stroke-width:.3985;stroke-linecap:butt;stroke-linejoin:miter;stroke:#ef3420;stroke-opacity:1;stroke-miterlimit:10" d="m71.034-43.403.028 3.347 2.77 1.875-3.173 1.059-.93 3.219-1.988-2.696-3.347.114 1.949-2.723-1.14-3.148 3.19 1.007Zm0 0" transform="matrix(1 0 0 -1 6.247 48.456)"/><path style="fill-rule:nonzero;fill:#f9ae0c;fill-opacity:1;stroke-width:.3985;stroke-linecap:butt;stroke-linejoin:miter;stroke:#f36917;stroke-opacity:1;stroke-miterlimit:10" d="m54.573-45.052.707 1.735 1.828.406-1.433 1.207.18 1.863-1.59-.988-1.719.746.453-1.816-1.242-1.403 1.867-.137Zm0 0" transform="matrix(1 0 0 -1 6.247 48.456)"/><path style="fill-rule:nonzero;fill:#f9b00b;fill-opacity:1;stroke-width:.3985;stroke-linecap:butt;stroke-linejoin:miter;stroke:#f46d16;stroke-opacity:1;stroke-miterlimit:10" d="m39.456-48.177 1.645 3.375 3.71.555-2.699 2.61.618 3.698-3.313-1.761-3.332 1.73.652-3.695-2.675-2.633 3.718-.52Zm0 0" transform="matrix(1 0 0 -1 6.247 48.456)"/><path style="fill-rule:nonzero;fill:#f7960f;fill-opacity:1;stroke-width:.3985;stroke-linecap:butt;stroke-linejoin:miter;stroke:#f03a1f;stroke-opacity:1;stroke-miterlimit:10" d="m25.288-47.634.754 2.649 2.606.879-2.286 1.535-.03 2.75-2.165-1.7-2.629.82.95-2.581-1.59-2.246 2.746.101Zm0 0" transform="matrix(1 0 0 -1 6.247 48.456)"/><path style="fill-rule:nonzero;fill:#fcd006;fill-opacity:1;stroke-width:.3985;stroke-linecap:butt;stroke-linejoin:miter;stroke:#f9ae0c;stroke-opacity:1;stroke-miterlimit:10" d="m14.679-53.77-.926 3.59 2.43 2.792-3.696.23-1.91 3.177-1.36-3.45-3.609-.832 2.86-2.36-.324-3.687 3.125 1.989Zm0 0" transform="matrix(1 0 0 -1 6.247 48.456)"/><path style="fill-rule:nonzero;fill:#fbc008;fill-opacity:1;stroke-width:.3985;stroke-linecap:butt;stroke-linejoin:miter;stroke:#f78d11;stroke-opacity:1;stroke-miterlimit:10" d="M7.105-63.364 5.12-61.368l.516 2.765-2.512-1.273-2.469 1.348.434-2.782-2.047-1.933 2.781-.446L3.03-66.23l1.286 2.503Zm0 0" transform="matrix(1 0 0 -1 6.247 48.456)"/><path style="fill-rule:nonzero;fill:#fccf06;fill-opacity:1;stroke-width:.3985;stroke-linecap:butt;stroke-linejoin:miter;stroke:#f9ab0c;stroke-opacity:1;stroke-miterlimit:10" d="m2.78-76.837-1.414.844-.105 1.64-1.238-1.082-1.594.403.648-1.512-.879-1.39 1.64.152L.89-79.048l.363 1.602Zm0 0" transform="matrix(1 0 0 -1 6.247 48.456)"/><path style="fill-rule:nonzero;fill:#f78d11;fill-opacity:1;stroke-width:.3985;stroke-linecap:butt;stroke-linejoin:miter;stroke:#ee2922;stroke-opacity:1;stroke-miterlimit:10" d="m5.73-90.876-3.375 1.172-.946 3.441-2.156-2.843-3.566.164 2.039-2.93-1.258-3.344 3.418 1.035 2.789-2.23.07 3.57Zm0 0" transform="matrix(1 0 0 -1 6.247 48.456)"/><path style="fill-rule:nonzero;fill:#fdde03;fill-opacity:1;stroke-width:.3985;stroke-linecap:butt;stroke-linejoin:miter;stroke:#fcc907;stroke-opacity:1;stroke-miterlimit:10" d="m8.554-103.798-2.899-.039-1.675 2.363-.856-2.77-2.77-.862 2.372-1.672-.035-2.899 2.324 1.738 2.746-.93-.938 2.747Zm0 0" transform="matrix(1 0 0 -1 6.247 48.456)"/><path style="fill-rule:nonzero;fill:#fdd804;fill-opacity:1;stroke-width:.3985;stroke-linecap:butt;stroke-linejoin:miter;stroke:#fbbf09;stroke-opacity:1;stroke-miterlimit:10" d="m16.151-114.767-2.14-.922-1.977 1.243.215-2.32-1.793-1.493 2.274-.515.867-2.168 1.191 2.003 2.328.157-1.535 1.754Zm0 0" transform="matrix(1 0 0 -1 6.247 48.456)"/><path style="stroke:none;fill-rule:nonzero;fill:#f9ae0c;fill-opacity:1" d="m35.004 167.742-2.824 2.727-3.848-.785 1.719 3.53-1.934 3.415 3.887-.543 2.652 2.894.684-3.863 3.574-1.629-3.465-1.843Zm0 0"/><g clip-path="url(#c)"><path style="fill:none;stroke-width:.3985;stroke-linecap:butt;stroke-linejoin:miter;stroke:#f36917;stroke-opacity:1;stroke-miterlimit:10" d="m28.757-119.286-2.824-2.727-3.848.785 1.719-3.53-1.934-3.415 3.887.543 2.652-2.894.684 3.863 3.574 1.629-3.465 1.843Zm0 0" transform="matrix(1 0 0 -1 6.247 48.456)"/></g><path style="stroke:none;fill-rule:nonzero;fill:#f8990f;fill-opacity:1" d="m47.734 172.008-1.23 2.351-2.633.32 1.856 1.895-.512 2.606 2.379-1.18 2.316 1.29-.387-2.626 1.946-1.805-2.617-.445Zm0 0"/><g clip-path="url(#d)"><path style="fill:none;stroke-width:.3985;stroke-linecap:butt;stroke-linejoin:miter;stroke:#f0401e;stroke-opacity:1;stroke-miterlimit:10" d="m41.487-123.552-1.23-2.351-2.633-.32 1.856-1.895-.512-2.606 2.379 1.18 2.316-1.29-.387 2.626 1.946 1.805-2.617.445Zm0 0" transform="matrix(1 0 0 -1 6.247 48.456)"/></g><path style="stroke:none;fill-rule:nonzero;fill:#f89d0e;fill-opacity:1" d="m61.36 170.621-.383 2.324-2.133 1 2.093 1.082.293 2.34 1.676-1.656 2.313.445-1.055-2.11 1.137-2.062-2.328.356Zm0 0"/><g clip-path="url(#e)"><path style="fill:none;stroke-width:.3985;stroke-linecap:butt;stroke-linejoin:miter;stroke:#f1491c;stroke-opacity:1;stroke-miterlimit:10" d="m55.112-122.165-.382-2.324-2.133-1 2.093-1.082.293-2.34 1.676 1.656 2.313-.445-1.055 2.11 1.137 2.062-2.328-.356Zm0 0" transform="matrix(1 0 0 -1 6.247 48.456)"/></g><path style="fill-rule:nonzero;fill:#fee901;fill-opacity:1;stroke-width:.3985;stroke-linecap:butt;stroke-linejoin:miter;stroke:#fee103;stroke-opacity:1;stroke-miterlimit:10" d="m67.355-116.138.425-2.222-1.586-1.614 2.246-.277 1.043-2.008.961 2.047 2.23.375-1.651 1.543.335 2.238-1.98-1.093Zm0 0" transform="matrix(1 0 0 -1 6.247 48.456)"/><path style="fill-rule:nonzero;fill:#fee702;fill-opacity:1;stroke-width:.3985;stroke-linecap:butt;stroke-linejoin:miter;stroke:#fddd04;stroke-opacity:1;stroke-miterlimit:10" d="m77.472-106.692.77-1.168-.528-1.297 1.348.367 1.07-.902.066 1.398 1.188.738-1.309.496-.336 1.356-.875-1.09Zm0 0" transform="matrix(1 0 0 -1 6.247 48.456)"/></svg>