<svg xmlns="http://www.w3.org/2000/svg" xmlns:xlink="http://www.w3.org/1999/xlink" width="130.035" height="86.979" viewBox="0 0 97.526 65.234" version="1.2"><defs><symbol overflow="visible" id="b"><path style="stroke:none" d="M5.281-3.188c0-.953-.015-3.343-2.422-3.343C.453-6.531.453-4.156.453-3.188c0 1 0 3.297 2.406 3.297 2.391 0 2.422-2.296 2.422-3.296ZM4-3.296c0 .563 0 1.469-.078 1.985-.14.921-.766 1.062-1.063 1.062-.359 0-.921-.219-1.046-.953-.094-.516-.094-1.547-.094-2.094 0-.719 0-1.375.078-1.89.125-.891.828-.985 1.062-.985.375 0 .782.188.97.625C4-5.172 4-4.109 4-3.297Zm0 0"/></symbol><symbol overflow="visible" id="c"><path style="stroke:none" d="M2.36-.781a.784.784 0 0 0-.782-.781.78.78 0 0 0-.766.78.774.774 0 1 0 1.547 0Zm0 0"/></symbol><symbol overflow="visible" id="d"><path style="stroke:none" d="M5.156-2.219h-.468c-.032.203-.125.844-.266.906-.11.063-.86.063-1.016.063H1.937c.47-.39 1-.813 1.438-1.14 1.14-.844 1.781-1.313 1.781-2.25 0-1.157-1.047-1.891-2.437-1.891-1.219 0-2.156.625-2.156 1.515 0 .594.484.735.718.735C1.61-4.281 2-4.5 2-5c0-.516-.422-.672-.563-.719.282-.234.672-.343 1.032-.343.844 0 1.312.671 1.312 1.421 0 .688-.375 1.375-1.078 2.079l-2 2.046c-.14.11-.14.141-.14.344V0h4.28Zm0 0"/></symbol><symbol overflow="visible" id="e"><path style="stroke:none" d="M5.156-2c0-1.156-.797-2.078-2.265-2.078-.282 0-.813.031-1.282.344v-1.313c.282.047.391.078.72.078 1.452 0 2.374-1.125 2.374-1.375 0-.078-.016-.187-.14-.187-.032 0-.032 0-.141.047a4.32 4.32 0 0 1-1.531.28c-.75 0-1.282-.202-1.547-.28-.094-.032-.094-.047-.125-.047-.14 0-.14.11-.14.265v2.922c0 .172 0 .297.218.297.125 0 .156-.031.219-.11.39-.468.921-.562 1.328-.562.89 0 .89.875.89 1.672 0 .735 0 1.735-1.187 1.735-.25 0-.875-.063-1.297-.625.36-.016.656-.266.656-.672 0-.532-.437-.672-.672-.672-.14 0-.671.094-.671.703 0 .844.78 1.687 2.015 1.687C4.172.11 5.156-.78 5.156-2Zm0 0"/></symbol><symbol overflow="visible" id="f"><path style="stroke:none" d="M5.563-6.422H3.53c-.234 0-1.703-.047-1.844-.094-.203-.03-.218-.125-.234-.218H.984l-.343 2.53h.468c.094-.765.22-.89.266-.905.11-.063.922-.063 1.094-.063H4.14c-.172.219-.36.422-.547.64-.953 1.126-1.672 2.47-1.672 3.938 0 .703.562.703.625.703.156 0 .625-.046.625-.703v-.469c0-.468.031-.953.094-1.421.093-.672.296-1.25.656-1.657l1.547-1.796c.093-.11.093-.141.093-.485Zm0 0"/></symbol><symbol overflow="visible" id="g"><path style="stroke:none" d="M4.922 0v-.469h-1.39v-5.734c0-.234 0-.328-.266-.328-.11 0-.125 0-.22.078-.765.562-1.796.562-2 .562H.845v.47h.203c.156 0 .703-.016 1.297-.204v5.156H.954V0c.437-.031 1.5-.031 1.984-.031s1.546 0 1.984.031Zm0 0"/></symbol><clipPath id="a"><path d="M3 0h94.29v64.852H3Zm0 0"/></clipPath></defs><path style="fill:none;stroke-width:.19925;stroke-linecap:butt;stroke-linejoin:miter;stroke:gray;stroke-opacity:1;stroke-miterlimit:10" d="M.001.002h85.04M0 28.346h85.04M0 56.686h85.04M0 .001v56.691M28.345.002v56.691M56.693.002v56.691M85.033.002v56.691" transform="matrix(1 0 0 -1 9.202 60.537)"/><g clip-path="url(#a)"><path style="fill:none;stroke-width:.3985;stroke-linecap:butt;stroke-linejoin:miter;stroke:#000;stroke-opacity:1;stroke-miterlimit:10" d="M.001.002c0 56.691 0 56.691 85.04 56.691" transform="matrix(1 0 0 -1 9.202 60.537)"/></g><use xlink:href="#b" x="6.338" y="63.745" style="fill:#000;fill-opacity:1"/><g style="fill:#000;fill-opacity:1"><use xlink:href="#b" x=".349" y="30.969"/><use xlink:href="#c" x="6.078" y="30.969"/><use xlink:href="#d" x="9.256" y="30.969"/><use xlink:href="#e" x="14.984" y="30.969"/></g><g style="fill:#000;fill-opacity:1"><use xlink:href="#b" x="12.514" y="14.138"/><use xlink:href="#c" x="18.243" y="14.138"/><use xlink:href="#e" x="21.421" y="14.138"/></g><g style="fill:#000;fill-opacity:1"><use xlink:href="#b" x="34.896" y="8.042"/><use xlink:href="#c" x="40.625" y="8.042"/><use xlink:href="#f" x="43.803" y="8.042"/><use xlink:href="#e" x="49.531" y="8.042"/></g><use xlink:href="#g" x="91.377" y="7.107" style="fill:#000;fill-opacity:1"/></svg>