<svg xmlns="http://www.w3.org/2000/svg" xmlns:xlink="http://www.w3.org/1999/xlink" width="139.779" height="139.779" viewBox="0 0 104.834 104.834" version="1.2"><defs><symbol overflow="visible" id="b"><path style="stroke:none" d="M9.984-1.094c0-.203-.093-.25-.25-.25-.234 0-.25.094-.25.25-.062.594-.437.844-.765.844-.766 0-.86-.797-.953-1.906-.063-.625-.157-1.516-1.438-1.906 1.61-.438 2-1.297 2-1.938 0-1.203-1.25-2.203-3.469-2.203H.453v.515H1.72v7.172H.453V0C.797-.031 2.047-.031 2.47-.031c.437 0 1.687 0 2.031.031v-.516H3.234v-3.39h1.422c.485 0 .86.14 1.125.453.36.406.36.672.36 1.469 0 .796 0 1.296.609 1.703.625.406 1.61.422 1.875.422 1.219 0 1.36-1.079 1.36-1.235ZM6.641-6c0 .656 0 1.703-2 1.703H3.234v-3.39h1.422c1.953 0 1.985.984 1.985 1.687Zm0 0"/></symbol><symbol overflow="visible" id="c"><path style="stroke:none" d="M6.328-2.625c0-1.61-1.094-2.797-2.969-2.797-1.953 0-2.984 1.25-2.984 2.797C.375-1.047 1.469.078 3.344.078c1.953 0 2.984-1.187 2.984-2.703Zm-1.422-.11c0 .985 0 2.376-1.547 2.376-1.546 0-1.546-1.391-1.546-2.375 0-.563 0-1.157.218-1.594.266-.484.797-.688 1.313-.688.687 0 1.11.313 1.312.657.25.421.25 1.046.25 1.625Zm0 0"/></symbol><symbol overflow="visible" id="d"><path style="stroke:none" d="M4.469-1.484v-.625h-.5v.609c0 .797-.36 1.14-.735 1.14-.718 0-.718-.796-.718-1.078v-3.359H4.25v-.516H2.516v-2.28h-.5c0 1.187-.579 2.374-1.766 2.405v.391h.969v3.328c0 1.266.984 1.547 1.843 1.547.876 0 1.407-.672 1.407-1.562Zm0 0"/></symbol><symbol overflow="visible" id="e"><path style="stroke:none" d="M5.594-1.406c0-.14-.125-.14-.25-.14-.188 0-.203.015-.266.155-.078.235-.406 1.032-1.5 1.032-1.687 0-1.687-1.813-1.687-2.36 0-.703.015-2.265 1.578-2.265.078 0 .781.03.781.078 0 0 0 .031-.031.047a.733.733 0 0 0-.188.515c0 .5.407.703.703.703.25 0 .704-.156.704-.718 0-.985-1.375-1.063-2.016-1.063-2.125 0-2.969 1.39-2.969 2.766 0 1.625 1.14 2.734 2.89 2.734 1.876 0 2.25-1.39 2.25-1.484Zm0 0"/></symbol><symbol overflow="visible" id="f"><path style="stroke:none" d="M7.172 0v-.516h-.828v-3.14c0-1.14-.485-1.719-1.797-1.719-.86 0-1.61.422-2.016 1.313h-.015v-1.313L.5-5.281v.515c.75 0 .828 0 .828.47v3.78H.5V0c.281-.031 1.14-.031 1.469-.031.343 0 1.203 0 1.484.031v-.516h-.828v-2.546c0-1.282.953-1.922 1.719-1.922.453 0 .703.28.703 1.187v3.281h-.828V0c.281-.031 1.14-.031 1.468-.031.344 0 1.204 0 1.485.031Zm0 0"/></symbol><symbol overflow="visible" id="g"><path style="stroke:none" d="M5.75-1.406c0-.172-.188-.172-.25-.172-.188 0-.203.031-.281.187-.313.782-1.094 1.032-1.672 1.032-1.735 0-1.735-1.61-1.735-2.282h3.594c.266 0 .344 0 .344-.296 0-.36-.078-1.266-.64-1.813-.5-.516-1.173-.672-1.86-.672-1.86 0-2.875 1.219-2.875 2.734C.375-1.016 1.609.079 3.406.079 5.22.078 5.75-1.188 5.75-1.406ZM4.656-2.984H1.813c.015-.5.03-.954.28-1.391a1.32 1.32 0 0 1 1.157-.64c1.281 0 1.39 1.437 1.406 2.03Zm0 0"/></symbol><symbol overflow="visible" id="h"><path style="stroke:none" d="M7-2.672c0-1.64-1.11-2.703-2.719-2.703-.703 0-1.312.234-1.797.625v-.625l-2.062.094v.515c.734 0 .828 0 .828.47v6.109H.422v.5c.266-.016 1.125-.016 1.469-.016.328 0 1.203 0 1.484.015v-.5h-.828V-.483c.297.25.828.562 1.547.562C5.719.078 7-.922 7-2.672Zm-1.438 0c0 1.735-.859 2.344-1.625 2.344-.5 0-1.015-.25-1.39-.813v-3.046a1.998 1.998 0 0 1 1.547-.766c.765 0 1.468.703 1.468 2.281Zm0 0"/></symbol><clipPath id="a"><path d="M0 0h104.75v104.75H0Zm0 0"/></clipPath></defs><path style="stroke:none;fill-rule:nonzero;fill:#33f;fill-opacity:1" d="M103.137 52.336c0-28.059-22.746-50.805-50.801-50.805-28.059 0-50.805 22.746-50.805 50.805 0 28.055 22.746 50.8 50.805 50.8 28.055 0 50.8-22.745 50.8-50.8Zm0 0"/><g clip-path="url(#a)"><path style="fill:none;stroke-width:1.19553;stroke-linecap:butt;stroke-linejoin:miter;stroke:#33f;stroke-opacity:1;stroke-miterlimit:10" d="M50.803-.002c0 28.059-22.746 50.805-50.801 50.805-28.059 0-50.805-22.746-50.805-50.805 0-28.055 22.746-50.8 50.805-50.8 28.055 0 50.8 22.745 50.8 50.8Zm0 0" transform="matrix(1 0 0 -1 52.334 52.334)"/></g><g style="fill:#000;fill-opacity:1"><use xlink:href="#b" x="13.292" y="55.275"/><use xlink:href="#c" x="23.322" y="55.275"/></g><g style="fill:#000;fill-opacity:1"><use xlink:href="#c" x="30.424" y="55.275"/><use xlink:href="#d" x="37.155" y="55.275"/></g><g style="fill:#000;fill-opacity:1"><use xlink:href="#e" x="46.372" y="55.275"/><use xlink:href="#c" x="52.35" y="55.275"/><use xlink:href="#f" x="59.08" y="55.275"/><use xlink:href="#e" x="66.552" y="55.275"/><use xlink:href="#g" x="72.53" y="55.275"/><use xlink:href="#h" x="78.663" y="55.275"/><use xlink:href="#d" x="86.135" y="55.275"/></g></svg>