<svg xmlns="http://www.w3.org/2000/svg" xmlns:xlink="http://www.w3.org/1999/xlink" width="161.403" height="279.363" viewBox="0 0 121.052 209.522" version="1.2"><defs><symbol overflow="visible" id="a"><path style="stroke:none" d="M3.89-2.547c0-.844-.078-1.36-.343-1.875-.344-.703-1-.875-1.438-.875-1 0-1.375.75-1.484.969C.344-3.75.328-2.953.328-2.547c0 .531.016 1.328.406 1.969.36.594.954.75 1.375.75.391 0 1.063-.125 1.47-.906.296-.579.312-1.297.312-1.813ZM2.11-.062c-.266 0-.813-.126-.985-.954-.094-.453-.094-1.203-.094-1.625 0-.546 0-1.109.094-1.546.172-.813.781-.891.984-.891.266 0 .829.14.985.86.094.437.094 1.046.094 1.577 0 .47 0 1.188-.094 1.641-.172.828-.719.938-.985.938Zm0 0"/></symbol><symbol overflow="visible" id="c"><path style="stroke:none" d="M2.5-5.078c0-.219-.016-.219-.234-.219-.329.313-.75.5-1.5.5v.266c.218 0 .64 0 1.109-.203v4.078c0 .297-.031.39-.781.39H.812V0c.329-.031 1.016-.031 1.375-.031.36 0 1.047 0 1.376.031v-.266H3.28c-.75 0-.781-.093-.781-.39Zm0 0"/></symbol><symbol overflow="visible" id="d"><path style="stroke:none" d="M2.25-1.625c.125-.125.453-.39.594-.5.484-.453.953-.89.953-1.61 0-.953-.797-1.562-1.781-1.562-.97 0-1.594.719-1.594 1.438 0 .39.312.437.422.437.172 0 .422-.11.422-.422 0-.406-.407-.406-.5-.406.234-.594.765-.781 1.156-.781.734 0 1.125.625 1.125 1.297 0 .828-.578 1.437-1.531 2.39l-1 1.047C.422-.219.422-.203.422 0h3.14l.235-1.422h-.25c-.016.156-.078.547-.172.703-.047.063-.656.063-.781.063H1.172Zm0 0"/></symbol><symbol overflow="visible" id="e"><path style="stroke:none" d="M2.016-2.656c.625 0 1.03.453 1.03 1.297 0 1-.562 1.28-.983 1.28-.438 0-1.047-.155-1.329-.577.297 0 .5-.188.5-.438 0-.265-.187-.437-.453-.437-.203 0-.437.125-.437.453 0 .75.812 1.25 1.734 1.25 1.047 0 1.797-.734 1.797-1.531 0-.672-.531-1.266-1.344-1.454.625-.218 1.11-.75 1.11-1.39 0-.64-.72-1.094-1.547-1.094-.86 0-1.5.453-1.5 1.063 0 .296.187.421.406.421.25 0 .406-.171.406-.406 0-.297-.265-.406-.437-.406.344-.438.953-.469 1.094-.469.203 0 .812.063.812.89 0 .548-.234.891-.344 1.016-.234.25-.422.266-.906.297-.156 0-.219.016-.219.125 0 .11.078.11.219.11Zm0 0"/></symbol><symbol overflow="visible" id="f"><path style="stroke:none" d="M3.14-5.156c0-.157 0-.219-.171-.219-.094 0-.11 0-.188.11L.234-1.564v.25h2.25v.672c0 .297-.015.375-.64.375h-.172V0c.672-.031.687-.031 1.14-.031.454 0 .47 0 1.141.031v-.266h-.172c-.625 0-.64-.078-.64-.375v-.671h.843v-.25h-.843Zm-.593.64v2.954H.516Zm0 0"/></symbol><symbol overflow="visible" id="g"><path style="stroke:none" d="M1.11-4.484c.109.03.421.125.765.125 1 0 1.594-.704 1.594-.829 0-.093-.047-.109-.094-.109-.016 0-.031 0-.094.031a2.982 2.982 0 0 1-1.11.22c-.468 0-.858-.11-1.108-.22-.079-.03-.094-.03-.11-.03-.094 0-.094.077-.094.234v2.328c0 .14 0 .234.125.234.063 0 .079-.031.125-.094.094-.11.391-.515 1.079-.515.437 0 .656.359.734.515.125.281.14.656.14.953 0 .297 0 .735-.218 1.079-.156.25-.485.484-.906.484A1.271 1.271 0 0 1 .734-.922c.016.016.079.016.079.016.218 0 .406-.14.406-.39a.388.388 0 0 0-.39-.407c-.157 0-.407.078-.407.422 0 .718.625 1.453 1.531 1.453 1 0 1.844-.781 1.844-1.766 0-.922-.672-1.75-1.61-1.75-.39 0-.765.125-1.078.406Zm0 0"/></symbol><symbol overflow="visible" id="h"><path style="stroke:none" d="M1.094-2.64c0-.657.062-1.235.343-1.72.25-.406.657-.734 1.157-.734.156 0 .515.032.703.297-.36.031-.39.297-.39.375 0 .25.187.375.374.375.14 0 .375-.078.375-.39 0-.47-.36-.86-1.078-.86C1.468-5.297.344-4.25.344-2.53.344-.36 1.359.172 2.125.172c.39 0 .797-.11 1.156-.453.328-.313.594-.64.594-1.344 0-1.031-.797-1.766-1.672-1.766-.578 0-.922.36-1.11.75ZM2.125-.079a.88.88 0 0 1-.797-.516c-.187-.36-.203-.89-.203-1.203 0-.781.422-1.375 1.047-1.375.39 0 .64.203.781.485.172.296.172.656.172 1.062s0 .75-.156 1.047c-.219.36-.485.5-.844.5Zm0 0"/></symbol><symbol overflow="visible" id="i"><path style="stroke:none" d="M2.64-2.875c.454-.219 1-.61 1-1.234 0-.766-.78-1.188-1.515-1.188-.844 0-1.531.578-1.531 1.328 0 .297.094.563.297.797.14.172.171.188.656.5C.563-2.234.344-1.656.344-1.219c0 .89.89 1.39 1.765 1.39.97 0 1.766-.671 1.766-1.515 0-.5-.266-.828-.406-.968-.125-.126-.14-.141-.828-.563Zm-1.234-.75c-.234-.14-.422-.375-.422-.64 0-.5.547-.829 1.125-.829.61 0 1.125.422 1.125.985 0 .453-.359.843-.828 1.078Zm.39 1.094c.032.015.938.578 1.079.656.125.078.547.328.547.813 0 .609-.656.984-1.297.984-.719 0-1.313-.484-1.313-1.14 0-.595.438-1.063.985-1.313Zm0 0"/></symbol><symbol overflow="visible" id="b"><path style="stroke:none" d="M1.625-.438a.463.463 0 0 0-.453-.453.447.447 0 0 0-.438.438.44.44 0 0 0 .438.453.45.45 0 0 0 .453-.438Zm0 0"/></symbol></defs><path style="fill:none;stroke-width:.19925;stroke-linecap:butt;stroke-linejoin:miter;stroke:#bfbfbf;stroke-opacity:1;stroke-miterlimit:10" d="m0 0 .289 92.125M0 0l9.066 91.675M0 0 16.42 90.648M0 0l22.714 89.277M0 0l28.175 87.71M0 0l61.347 68.722M0 0l74.453 54.258M0 0l81.746 42.472M0 0l86.14 32.656M0 0l88.859 24.3M0 0l90.527 17.062M0 0l91.5 10.695M0 0l91.988 5.039M0 0l86.113-32.727M0 0l77.289-50.137M0 0l68.886-61.164M0 0l61.292-68.774M0 0l54.457-74.305M0 0l48.296-78.45M0 0l42.69-81.633M0 0l37.585-84.11M0 0l.21-92.125" transform="matrix(1 0 0 -1 14.27 101.238)"/><path style="fill:none;stroke-width:.3985;stroke-linecap:butt;stroke-linejoin:miter;stroke:#bfbfbf;stroke-opacity:1;stroke-miterlimit:10" d="M0 20.472c11.308 0 20.472-9.164 20.472-20.472 0-11.305-9.164-20.473-20.472-20.473" transform="matrix(1 0 0 -1 14.27 101.238)"/><path style="fill:none;stroke-width:.3985;stroke-linecap:butt;stroke-linejoin:miter;stroke:#bfbfbf;stroke-opacity:1;stroke-miterlimit:10" d="M0 40.945c22.613 0 40.945-18.332 40.945-40.945 0-22.614-18.332-40.946-40.945-40.946" transform="matrix(1 0 0 -1 14.27 101.238)"/><path style="fill:none;stroke-width:.3985;stroke-linecap:butt;stroke-linejoin:miter;stroke:#bfbfbf;stroke-opacity:1;stroke-miterlimit:10" d="M0 61.418C33.92 61.418 61.417 33.922 61.417 0S33.921-61.418 0-61.418" transform="matrix(1 0 0 -1 14.27 101.238)"/><path style="fill:none;stroke-width:.3985;stroke-linecap:butt;stroke-linejoin:miter;stroke:#bfbfbf;stroke-opacity:1;stroke-miterlimit:10" d="M0 81.89c45.226 0 81.89-36.664 81.89-81.89 0-45.227-36.664-81.89-81.89-81.89M0 0l32.968 86.023M0 0l92.125-.04M0 0l32.89-86.051" transform="matrix(1 0 0 -1 14.27 101.238)"/><path style="fill:none;stroke-width:.3985;stroke-linecap:round;stroke-linejoin:miter;stroke:gray;stroke-opacity:1;stroke-miterlimit:10" d="M.304 97.105.308 98.5M9.554 96.633l.14 1.386M17.308 95.55l.25 1.372M23.945 94.105l.344 1.352M29.699 92.453l.426 1.328M64.664 72.441l.93 1.04M78.476 57.191l1.129.82M86.168 44.77l1.234.644M90.796 34.422l1.305.496M93.664 25.613l1.343.367M95.425 17.984l1.368.262M96.449 11.273l1.383.16M96.96 5.312l1.391.074M90.77-34.496l1.304-.496M81.464-52.848l1.172-.762M72.609-64.473l1.043-.926M64.605-72.492l.926-1.04M57.402-78.32l.824-1.126M50.906-82.688l.734-1.187M45-86.047l.648-1.235M39.617-88.657l.57-1.273M.222-97.106.226-98.5M34.75 90.675l.714 1.86M97.109-.043H99.1M34.667-90.707l.711-1.86M90.77-34.496l1.862-.711M81.464-52.848l1.672-1.086M72.609-64.473l1.492-1.32M64.605-72.492l1.324-1.489M14.785-95.973l.304-1.969M.222-97.106l.008-1.992" transform="matrix(1 0 0 -1 14.27 101.238)"/><path style="fill:none;stroke-width:.3985;stroke-linecap:round;stroke-linejoin:miter;stroke:#c00;stroke-opacity:1;stroke-miterlimit:10" d="M-6.973 0h1.992M-6.973 20.472h1.992M-6.973 40.945h1.992M-6.973 61.418h1.992M-6.973 81.89h1.992M-4.98-20.473h-1.993M-4.98-40.946h-1.993M-4.98-61.418h-1.993M-4.98-81.89h-1.993" transform="matrix(1 0 0 -1 14.27 101.238)"/><path style="fill:none;stroke-width:.3985;stroke-linecap:square;stroke-linejoin:miter;stroke:#bfbfbf;stroke-opacity:1;stroke-miterlimit:10" d="M0 92.129c50.882 0 92.128-41.246 92.128-92.13 0-50.878-41.246-92.124-92.128-92.124" transform="matrix(1 0 0 -1 14.27 101.238)"/><path style="fill:none;stroke-width:.3985;stroke-linecap:square;stroke-linejoin:miter;stroke:gray;stroke-opacity:1;stroke-miterlimit:10" d="M0 97.11c53.632 0 97.109-43.477 97.109-97.11S53.632-97.11-.001-97.11" transform="matrix(1 0 0 -1 14.27 101.238)"/><path style="fill:none;stroke-width:.3985;stroke-linecap:square;stroke-linejoin:miter;stroke:#bfbfbf;stroke-opacity:1;stroke-miterlimit:10" d="M0 0v92.129" transform="matrix(1 0 0 -1 14.27 101.238)"/><path style="fill:none;stroke-width:.3985;stroke-linecap:square;stroke-linejoin:miter;stroke:gray;stroke-opacity:1;stroke-miterlimit:10" d="M-4.98 0v92.129" transform="matrix(1 0 0 -1 14.27 101.238)"/><path style="fill:none;stroke-width:.3985;stroke-linecap:square;stroke-linejoin:miter;stroke:#bfbfbf;stroke-opacity:1;stroke-miterlimit:10" d="M0 0v-92.125" transform="matrix(1 0 0 -1 14.27 101.238)"/><path style="fill:none;stroke-width:.3985;stroke-linecap:square;stroke-linejoin:miter;stroke:gray;stroke-opacity:1;stroke-miterlimit:10" d="M-4.98 0v-92.125" transform="matrix(1 0 0 -1 14.27 101.238)"/><path style="fill:none;stroke-width:.59776;stroke-linecap:butt;stroke-linejoin:miter;stroke:#000;stroke-opacity:1;stroke-miterlimit:10" d="M0 92.125S7.85 80.949 10.152 76.738c2.3-4.207 5.082-10.941 6.433-14.95 1.348-4.007 2.743-10.277 3.286-13.933.547-3.652.734-9.219.629-12.41-.11-3.191-.82-7.926-1.403-10.586-.582-2.66-1.914-6.484-2.8-8.586-.887-2.098-2.57-4.996-3.602-6.547-1.031-1.547-2.805-3.57-3.828-4.613C7.843 4.07 6.207 2.816 5.32 2.199S3.12.953 2.472.659C1.824.368.976.176.632.083.292-.008 0 .023 0 0c0-.024.292.008.632-.082.344-.094 1.188-.285 1.84-.582.649-.293 1.961-.922 2.848-1.54.887-.62 2.52-1.87 3.543-2.917 1.023-1.043 2.793-3.067 3.824-4.618 1.027-1.55 2.707-4.449 3.594-6.55.887-2.098 2.219-5.922 2.797-8.582.582-2.66 1.289-7.399 1.39-10.59.106-3.192-.097-8.758-.64-12.414-.543-3.653-1.922-9.914-3.27-13.922-1.351-4.004-4.156-10.742-6.453-14.95C7.808-80.952.003-92.124.003-92.124" transform="matrix(1 0 0 -1 14.27 101.238)"/><use xlink:href="#a" x="52.389" y="6.048" style="fill:#000;fill-opacity:1"/><use xlink:href="#b" x="56.623" y="6.048" style="fill:#000;fill-opacity:1"/><use xlink:href="#c" x="58.976" y="6.048" style="fill:#000;fill-opacity:1"/><use xlink:href="#c" x="116.025" y="103.85" style="fill:#000;fill-opacity:1"/><g style="fill:#000;fill-opacity:1"><use xlink:href="#c" x="52.306" y="201.596"/><use xlink:href="#a" x="56.541" y="201.596"/></g><use xlink:href="#d" x="109.557" y="144.236" style="fill:#000;fill-opacity:1"/><use xlink:href="#e" x="100.062" y="162.964" style="fill:#000;fill-opacity:1"/><use xlink:href="#f" x="91.026" y="174.823" style="fill:#000;fill-opacity:1"/><use xlink:href="#g" x="82.856" y="183.008" style="fill:#000;fill-opacity:1"/><g style="fill:#000;fill-opacity:1"><use xlink:href="#c" x="32.014" y="206.97"/><use xlink:href="#g" x="36.249" y="206.97"/></g><g style="fill:#000;fill-opacity:1"><use xlink:href="#d" x="10.264" y="208.127"/><use xlink:href="#a" x="14.499" y="208.127"/></g><use xlink:href="#a" x=".406" y="103.806" style="fill:#c00;fill-opacity:1"/><use xlink:href="#d" x=".406" y="83.334" style="fill:#c00;fill-opacity:1"/><use xlink:href="#f" x=".406" y="62.861" style="fill:#c00;fill-opacity:1"/><use xlink:href="#h" x=".406" y="42.389" style="fill:#c00;fill-opacity:1"/><use xlink:href="#i" x=".406" y="21.917" style="fill:#c00;fill-opacity:1"/><use xlink:href="#d" x=".406" y="124.278" style="fill:#c00;fill-opacity:1"/><use xlink:href="#f" x=".406" y="144.75" style="fill:#c00;fill-opacity:1"/><use xlink:href="#h" x=".406" y="165.222" style="fill:#c00;fill-opacity:1"/><use xlink:href="#i" x=".406" y="185.695" style="fill:#c00;fill-opacity:1"/></svg>