<svg xmlns="http://www.w3.org/2000/svg" xmlns:xlink="http://www.w3.org/1999/xlink" width="103.563" height="103.851" viewBox="0 0 77.672 77.888" version="1.2"><defs><symbol overflow="visible" id="a"><path style="stroke:none" d="M9.328 0v-.469h-.687v-2.578c0-1.031-.516-1.437-1.547-1.437-.907 0-1.422.5-1.688.953-.187-.922-1.11-.953-1.484-.953-.875 0-1.438.453-1.766 1.078v-1.078l-1.703.078v.468c.61 0 .688 0 .688.391v3.078H.453V0l1.25-.031L2.953 0v-.469h-.687v-2.078c0-1.094.875-1.578 1.5-1.578.328 0 .546.203.546.969V-.47h-.687V0l1.266-.031L6.14 0v-.469h-.688v-2.078c0-1.094.86-1.578 1.484-1.578.344 0 .563.203.563.969V-.47h-.688V0l1.25-.031Zm0 0"/></symbol><symbol overflow="visible" id="b"><path style="stroke:none" d="M5.781-3.953v-.469A12.55 12.55 0 0 1 5-4.39l-.906-.03v.468s.468 0 .468.11L4.5-3.72 3.36-1.266 2.093-3.953h.531v-.469l-1.234.031-1.125-.03v.468H.89L2.766 0 2.53.484C2.312.954 2 1.641 1.281 1.641c-.14 0-.156-.016-.234-.047.094-.032.312-.172.312-.532C1.36.734 1.125.5.781.5a.553.553 0 0 0-.562.578c0 .5.469.922 1.062.922.766 0 1.344-.625 1.625-1.188l2.14-4.562c.063-.14.095-.203.735-.203Zm0 0"/></symbol><symbol overflow="visible" id="c"><path style="stroke:none" d="M4.766-1.172c0-.14-.141-.14-.235-.14-.187 0-.187.03-.25.156-.25.625-.734.812-1.234.812-1.39 0-1.39-1.453-1.39-1.922 0-.562 0-1.843 1.28-1.843.36 0 .516.015.657.046a.618.618 0 0 0-.203.47c0 .437.343.624.609.624.313 0 .64-.219.64-.625 0-.86-1.156-.922-1.734-.922C1.11-4.516.375-3.375.375-2.219.375-.89 1.313.062 2.844.062c1.625 0 1.922-1.156 1.922-1.234Zm0 0"/></symbol><symbol overflow="visible" id="d"><path style="stroke:none" d="M2.844 0v-.469h-.61v-4.015L.5-4.406v.468c.594 0 .656 0 .656.391v3.078H.47V0l1.219-.031Zm-.469-6.047a.774.774 0 0 0-.781-.781.784.784 0 0 0-.782.781c0 .422.36.766.782.766a.77.77 0 0 0 .781-.766Zm0 0"/></symbol><symbol overflow="visible" id="e"><path style="stroke:none" d="M4.406-3.672c0-.531-.531-.812-1.062-.812-.688 0-1.094.5-1.313 1.125v-1.125l-1.656.078v.468c.61 0 .688 0 .688.391v3.078H.375V0l1.25-.031C2-.031 2.641-.031 3 0v-.469h-.86v-1.75c0-.687.235-1.906 1.235-1.906 0 0-.188.172-.188.453 0 .406.329.61.61.61.297 0 .61-.204.61-.61Zm0 0"/></symbol><symbol overflow="visible" id="f"><path style="stroke:none" d="M2.922 0v-.469h-.688v-6.453L.47-6.844v.469c.625 0 .687 0 .687.39v5.516H.47V0l1.219-.031Zm0 0"/></symbol><symbol overflow="visible" id="g"><path style="stroke:none" d="M4.922-1.172c0-.172-.188-.172-.234-.172-.172 0-.188.047-.25.203-.204.485-.782.797-1.422.797-1.407 0-1.422-1.328-1.422-1.828h3.015c.22 0 .313 0 .313-.265 0-.313-.063-1.047-.563-1.547-.359-.36-.89-.532-1.578-.532C1.187-4.516.312-3.484.312-2.25c0 1.344 1 2.313 2.61 2.313 1.578 0 2-1.063 2-1.235ZM3.984-2.5h-2.39c.015-.39.031-.813.234-1.14.266-.391.672-.516.953-.516 1.172 0 1.188 1.312 1.203 1.656Zm0 0"/></symbol><symbol overflow="visible" id="h"><path style="stroke:none" d="M5.984 0v-.469c-.609 0-.687 0-.687-.39v-6.063l-1.766.078v.469c.625 0 .703 0 .703.39v1.954a2.178 2.178 0 0 0-1.359-.453c-1.453 0-2.5.875-2.5 2.28 0 1.313.922 2.267 2.39 2.267.61 0 1.094-.235 1.407-.485v.484ZM4.172-1.031c-.14.187-.547.734-1.297.734-1.219 0-1.219-1.203-1.219-1.906 0-.485 0-1.016.25-1.406.297-.422.766-.516 1.078-.516.563 0 .97.313 1.188.61Zm0 0"/></symbol><symbol overflow="visible" id="i"><path style="stroke:none" d="M4.36-6.11c0-.421-.36-.874-1.141-.874-.969 0-2.047.421-2.047 1.546v1.016h-.75v.469h.75V-.47H.484V0l1.25-.031c.375 0 1.016 0 1.375.031v-.469H2.25v-3.484h1.14v-.469H2.188v-1.016c0-1.093.75-1.187 1-1.187.047 0 .11 0 .172.031a.585.585 0 0 0-.234.485c0 .421.36.609.61.609.296 0 .624-.203.624-.61Zm0 0"/></symbol><symbol overflow="visible" id="j"><path style="stroke:none" d="M5.516-.234c0-.235-.125-.235-.266-.235-.61-.015-.61-.14-.61-.375v-2.14c0-.891-.702-1.532-2.187-1.532-.562 0-1.781.047-1.781.922 0 .438.344.625.61.625.312 0 .624-.219.624-.625 0-.297-.187-.469-.218-.5a5.28 5.28 0 0 1 .718-.062c.75 0 1.11.422 1.11 1.172v.343c-.72.032-3.25.125-3.25 1.563C.266-.125 1.5.062 2.187.062c.797 0 1.266-.406 1.485-.828 0 .313 0 .766 1.047.766h.468c.204 0 .329 0 .329-.234Zm-2-1.157c0 .97-.922 1.094-1.172 1.094-.516 0-.906-.344-.906-.797 0-1.062 1.578-1.203 2.078-1.234Zm0 0"/></symbol><symbol overflow="visible" id="k"><path style="stroke:none" d="M6.125 0v-.469c-.61 0-.688 0-.688-.39v-3.625l-1.812.078v.468c.61 0 .688 0 .688.391v1.906c0 .813-.516 1.344-1.235 1.344-.781 0-.812-.25-.812-.797v-3.39l-1.813.078v.468c.61 0 .688 0 .688.391v2.328c0 1.063.796 1.282 1.796 1.282.25 0 .97 0 1.422-.782v.781Zm0 0"/></symbol><symbol overflow="visible" id="l"><path style="stroke:none" d="M3.813-1.234v-.532h-.47v.516c0 .672-.327.906-.609.906-.578 0-.578-.64-.578-.86v-2.75h1.469v-.468H2.156v-1.906h-.469c0 1-.484 1.984-1.484 2.016v.359h.828v2.734c0 1.063.86 1.282 1.578 1.282.75 0 1.204-.579 1.204-1.297Zm0 0"/></symbol><symbol overflow="visible" id="m"><path style="stroke:none" d="M1.313-3.266v-.25c0-2.515 1.234-2.875 1.75-2.875.234 0 .656.063.874.407-.156 0-.546 0-.546.437 0 .313.234.469.453.469.156 0 .469-.094.469-.484 0-.594-.438-1.079-1.266-1.079C1.766-6.64.422-5.359.422-3.156.422-.484 1.578.219 2.5.219c1.11 0 2.063-.938 2.063-2.25 0-1.266-.891-2.219-2-2.219-.672 0-1.047.5-1.25.984ZM2.5-.062c-.625 0-.922-.594-.984-.75-.188-.47-.188-1.266-.188-1.438 0-.781.328-1.781 1.219-1.781.172 0 .625 0 .937.625.172.36.172.875.172 1.36 0 .483 0 .983-.172 1.343-.296.594-.75.64-.984.64Zm0 0"/></symbol><symbol overflow="visible" id="n"><path style="stroke:none" d="M4.578-3.188c0-.796-.047-1.593-.39-2.328C3.733-6.484 2.905-6.64 2.5-6.64c-.61 0-1.328.266-1.75 1.188-.313.687-.36 1.469-.36 2.266 0 .75.032 1.64.454 2.406a1.83 1.83 0 0 0 1.64 1c.532 0 1.297-.203 1.735-1.157.312-.687.36-1.468.36-2.25ZM2.484 0c-.39 0-.984-.25-1.156-1.203-.11-.594-.11-1.516-.11-2.11 0-.64 0-1.296.079-1.828.187-1.187.937-1.28 1.187-1.28.329 0 .985.187 1.172 1.171.11.563.11 1.313.11 1.938 0 .75 0 1.421-.11 2.062C3.5-.297 2.937 0 2.484 0Zm0 0"/></symbol><symbol overflow="visible" id="q"><path style="stroke:none" d="M3.656-3.172v.328c0 2.328-1.031 2.781-1.61 2.781-.171 0-.718-.015-.983-.359.437 0 .515-.281.515-.453 0-.313-.234-.453-.453-.453-.156 0-.453.078-.453.469 0 .671.531 1.078 1.375 1.078 1.297 0 2.515-1.36 2.515-3.5 0-2.688-1.156-3.36-2.046-3.36-.547 0-1.032.188-1.454.625-.421.454-.64.875-.64 1.625 0 1.235.875 2.22 1.984 2.22.61 0 1.016-.423 1.25-1Zm-1.234.766c-.156 0-.625 0-.922-.625-.188-.375-.188-.86-.188-1.36 0-.53 0-1 .22-1.375.265-.5.64-.625.984-.625.468 0 .796.344.968.782.11.328.157.953.157 1.406 0 .828-.344 1.797-1.22 1.797Zm0 0"/></symbol><symbol overflow="visible" id="r"><path style="stroke:none" d="M2.89-3.516c.813-.265 1.391-.953 1.391-1.75 0-.812-.875-1.375-1.828-1.375-1 0-1.765.594-1.765 1.36 0 .328.218.515.515.515.297 0 .5-.218.5-.515 0-.485-.469-.485-.61-.485.298-.5.954-.625 1.313-.625.422 0 .969.22.969 1.11 0 .125-.031.703-.281 1.14-.297.485-.64.516-.89.516a3.29 3.29 0 0 1-.392.031c-.078.016-.14.031-.14.125 0 .11.062.11.234.11h.438c.812 0 1.187.671 1.187 1.656 0 1.36-.687 1.64-1.125 1.64-.437 0-1.187-.171-1.531-.75.344.047.656-.171.656-.546a.537.537 0 0 0-.547-.563c-.25 0-.562.14-.562.578C.422-.437 1.344.22 2.437.22c1.22 0 2.126-.906 2.126-1.922 0-.813-.641-1.594-1.672-1.813Zm0 0"/></symbol><symbol overflow="visible" id="s"><path style="stroke:none" d="m1.266-.766 1.062-1.03c1.547-1.376 2.14-1.907 2.14-2.907 0-1.14-.89-1.938-2.109-1.938C1.234-6.64.5-5.719.5-4.828c0 .547.5.547.531.547.172 0 .516-.11.516-.532a.513.513 0 0 0-.531-.515c-.079 0-.094 0-.125.016.218-.657.765-1.016 1.343-1.016.907 0 1.329.812 1.329 1.625 0 .797-.485 1.578-1.047 2.203L.609-.375C.5-.265.5-.235.5 0h3.703l.266-1.734h-.235C4.172-1.438 4.11-1 4-.844c-.063.078-.719.078-.938.078Zm0 0"/></symbol><symbol overflow="visible" id="t"><path style="stroke:none" d="M2.938-6.375c0-.25 0-.266-.235-.266C2.078-6 1.203-6 .891-6v.313c.203 0 .78 0 1.296-.266v5.172c0 .36-.03.469-.921.469H.953V0c.344-.031 1.203-.031 1.61-.031.39 0 1.265 0 1.609.031v-.313h-.313c-.906 0-.921-.109-.921-.468Zm0 0"/></symbol><symbol overflow="visible" id="u"><path style="stroke:none" d="M1.625-4.563c-.453-.296-.5-.625-.5-.796 0-.61.656-1.032 1.36-1.032.718 0 1.359.516 1.359 1.235 0 .578-.39 1.047-.985 1.39Zm1.453.954c.719-.375 1.203-.891 1.203-1.547 0-.922-.875-1.485-1.781-1.485-1 0-1.813.735-1.813 1.672 0 .172.016.625.438 1.094.11.11.484.36.734.531C1.281-3.047.422-2.5.422-1.5.422-.453 1.438.219 2.484.219c1.125 0 2.079-.828 2.079-1.89 0-.36-.11-.813-.5-1.235-.188-.203-.344-.297-.985-.703Zm-1 .421 1.235.782c.28.187.75.484.75 1.094 0 .734-.75 1.25-1.563 1.25C1.64-.063.922-.672.922-1.5c0-.578.312-1.219 1.156-1.688Zm0 0"/></symbol><symbol overflow="visible" id="v"><path style="stroke:none" d="M4.469-2c0-1.188-.813-2.188-1.89-2.188-.47 0-.907.157-1.267.516v-1.953c.204.063.532.125.844.125 1.235 0 1.938-.906 1.938-1.031 0-.063-.032-.11-.11-.11 0 0-.03 0-.078.032a3.22 3.22 0 0 1-1.36.296c-.39 0-.858-.078-1.327-.28-.078-.032-.094-.032-.11-.032C1-6.625 1-6.547 1-6.391v2.954c0 .171 0 .25.14.25.079 0 .094-.016.141-.079.11-.156.469-.703 1.282-.703.515 0 .765.453.843.64.156.376.188.75.188 1.25 0 .36 0 .954-.25 1.376-.235.39-.61.64-1.063.64-.719 0-1.297-.53-1.469-1.109.032 0 .063.016.172.016.329 0 .5-.25.5-.485 0-.25-.171-.5-.5-.5-.14 0-.484.079-.484.532C.5-.75 1.188.219 2.297.219 3.453.219 4.469-.734 4.469-2Zm0 0"/></symbol><symbol overflow="visible" id="o"><path style="stroke:none" d="M3.531-1.734c0-.844-.672-1.5-1.5-1.5s-1.5.671-1.5 1.484a1.5 1.5 0 0 0 1.5 1.5c.844 0 1.5-.672 1.5-1.484Zm-1.5 1.14A1.157 1.157 0 1 1 3.187-1.75c0 .656-.515 1.156-1.156 1.156Zm0 0"/></symbol><symbol overflow="visible" id="p"><path style="stroke:none" d="M6.563-2.297c.171 0 .359 0 .359-.203 0-.188-.188-.188-.36-.188h-5.39c-.172 0-.344 0-.344.188 0 .203.172.203.344.203Zm0 0"/></symbol></defs><path style="fill:none;stroke-width:.3985;stroke-linecap:butt;stroke-linejoin:miter;stroke:#000;stroke-opacity:1;stroke-miterlimit:10" d="M27.183 0C27.183 15.01 15.011 27.182 0 27.182c-15.011 0-27.18-12.172-27.18-27.184 0-15.011 12.169-27.18 27.18-27.18 15.012 0 27.184 12.169 27.184 27.18Zm0 0" transform="matrix(1 0 0 -1 37.106 38.851)"/><use xlink:href="#a" x="14.306" y="41.312" style="fill:#000;fill-opacity:1"/><use xlink:href="#b" x="23.531" y="41.312" style="fill:#000;fill-opacity:1"/><g style="fill:#000;fill-opacity:1"><use xlink:href="#c" x="33.394" y="41.312"/><use xlink:href="#d" x="38.485" y="41.312"/><use xlink:href="#e" x="41.663" y="41.312"/><use xlink:href="#c" x="46.386" y="41.312"/><use xlink:href="#f" x="51.477" y="41.312"/><use xlink:href="#g" x="54.655" y="41.312"/></g><g style="fill:#000;fill-opacity:1"><use xlink:href="#h" x="19.766" y="7.89"/><use xlink:href="#g" x="26.132" y="7.89"/><use xlink:href="#i" x="31.382" y="7.89"/><use xlink:href="#j" x="34.879" y="7.89"/><use xlink:href="#k" x="40.448" y="7.89"/><use xlink:href="#f" x="46.815" y="7.89"/><use xlink:href="#l" x="49.993" y="7.89"/></g><g style="fill:#000;fill-opacity:1"><use xlink:href="#m" x="54.315" y="11.618"/><use xlink:href="#n" x="59.296" y="11.618"/></g><use xlink:href="#o" x="64.278" y="8.003" style="fill:#000;fill-opacity:1"/><use xlink:href="#p" x="25.96" y="76.612" style="fill:#000;fill-opacity:1"/><g style="fill:#000;fill-opacity:1"><use xlink:href="#q" x="33.709" y="76.612"/><use xlink:href="#n" x="38.69" y="76.612"/></g><use xlink:href="#o" x="43.671" y="72.996" style="fill:#000;fill-opacity:1"/><use xlink:href="#r" x="67.968" y="33.899" style="fill:#000;fill-opacity:1"/><use xlink:href="#o" x="72.95" y="30.283" style="fill:#000;fill-opacity:1"/><use xlink:href="#s" x="67.989" y="41.326" style="fill:#000;fill-opacity:1"/><use xlink:href="#o" x="72.971" y="37.711" style="fill:#000;fill-opacity:1"/><g style="fill:#000;fill-opacity:1"><use xlink:href="#t" x="-.037" y="49.231"/><use xlink:href="#u" x="4.944" y="49.231"/><use xlink:href="#n" x="9.926" y="49.231"/></g><use xlink:href="#o" x="14.907" y="45.615" style="fill:#000;fill-opacity:1"/><g style="fill:#000;fill-opacity:1"><use xlink:href="#t" x="7.982" y="22.92"/><use xlink:href="#r" x="12.963" y="22.92"/><use xlink:href="#v" x="17.945" y="22.92"/></g><use xlink:href="#o" x="22.926" y="19.304" style="fill:#000;fill-opacity:1"/></svg>