<svg xmlns="http://www.w3.org/2000/svg" width="120.153" height="82.299" viewBox="0 0 90.115 61.724" version="1.2"><defs><clipPath id="a"><path d="M0 0h89.672v61.586H0Zm0 0"/></clipPath></defs><path style="fill:none;stroke-width:.19925;stroke-linecap:butt;stroke-linejoin:miter;stroke:gray;stroke-opacity:1;stroke-miterlimit:10" d="M-.002-.001h85.043M-.002 28.347h85.043M-.002 56.683h85.043M-.002-.001v56.695M28.346 0v56.695M56.693 0v56.695M85.03 0v56.695" transform="matrix(1 0 0 -1 2.228 58.913)"/><g clip-path="url(#a)"><path style="fill:none;stroke-width:.3985;stroke-linecap:butt;stroke-linejoin:miter;stroke:#000;stroke-opacity:1;stroke-miterlimit:10" d="M-1.576.788 1.576-.786m-2.363-.79L.787 1.578m7.09 2.36 3.148-1.575m-2.363-.785 1.578 3.149m7.086 2.363 3.153-1.574m-2.364-.79 1.574 3.149m7.09 2.363 3.149-1.574m-2.364-.79 1.579 3.153m7.086 2.364 3.152-1.575m-2.363-.789 1.574 3.149m7.09 2.363 3.148-1.574m-2.363-.79 1.574 3.153m7.09 2.363 3.152-1.574m-2.363-.789 1.574 3.148m7.09 2.364 3.148-1.574m-2.363-.79 1.574 3.153m7.09 2.363 3.153-1.578m-2.364-.785 1.575 3.148m7.402.371 2.484 2.496m.004-2.492-2.496 2.485m-1.75 6.613 1.012 3.375m1.18-2.191-3.376 1.007m-4.472 5.403-.246 3.511m1.879-1.632-3.512-.247m-5.984 3.918-1.118 3.34m2.227-1.113-3.34-1.117m-6.762 2.547-1.746 3.062m2.403-.66-3.059-1.742m-7.145 1.308-2.23 2.723m2.48-.246-2.726-2.23m-7.274.156-2.625 2.347m2.489.137-2.348-2.625m-7.203-.98-2.973 1.89m2.434.54-1.89-2.973m-6.9-2.192-3.269 1.309m2.29.98-1.31-3.27m-6.257-3.523-3.48.52m2 1.48-.52-3.48m-4.996-4.988-3.465-.621m1.422 2.043.621-3.465m-2.637-6.356-2.824-2.105m.363 2.465 2.102-2.825" transform="matrix(1 0 0 -1 2.228 58.913)"/></g></svg>