<svg xmlns="http://www.w3.org/2000/svg" width="89.416" height="52.332" viewBox="0 0 67.062 39.249" version="1.2"><path style="fill-rule:nonzero;fill:#f33;fill-opacity:1;stroke-width:.3985;stroke-linecap:butt;stroke-linejoin:miter;stroke:red;stroke-opacity:1;stroke-miterlimit:10" d="M-2.989-.001h5.977v28.347h-5.977Zm14.172 0h5.98v34.015h-5.98Zm14.176 0h5.977v17.008h-5.977Zm14.172 0h5.977v19.843H39.53Zm14.172 0h5.98V25.51h-5.98Zm0 0" transform="matrix(1 0 0 -1 3.719 37.675)"/><path style="fill-rule:nonzero;fill:#fcc;fill-opacity:1;stroke-width:.3985;stroke-linecap:butt;stroke-linejoin:miter;stroke:#ff8080;stroke-opacity:1;stroke-miterlimit:10" d="M.996-.001H4.98v34.015H.996Zm14.172 0h3.988V36.85h-3.988Zm14.175 0h3.985v14.175h-3.985Zm14.172 0H47.5V5.67h-3.985Zm14.176 0h3.985v14.175H57.69Zm0 0" transform="matrix(1 0 0 -1 3.719 37.675)"/></svg>