<svg xmlns="http://www.w3.org/2000/svg" xmlns:xlink="http://www.w3.org/1999/xlink" width="51.075" height="86.811" viewBox="0 0 38.306 65.108" version="1.2"><defs><symbol overflow="visible" id="a"><path style="stroke:none" d="M.875-.594c-.031.156-.094.39-.094.438 0 .172.14.265.297.265a.414.414 0 0 0 .375-.28c.016-.032.344-1.391.39-1.579.079-.328.266-1.016.313-1.297.047-.125.328-.594.563-.812.078-.063.375-.329.797-.329.265 0 .406.125.421.125-.296.047-.515.282-.515.547 0 .157.11.344.375.344s.547-.234.547-.594c0-.343-.313-.64-.828-.64-.641 0-1.079.484-1.266.765-.094-.453-.453-.765-.922-.765-.453 0-.64.39-.734.562-.172.344-.297.938-.297.969 0 .11.094.11.11.11.109 0 .109-.016.171-.235.172-.703.375-1.188.735-1.188.156 0 .296.079.296.454 0 .218-.03.328-.156.843Zm0 0"/></symbol><symbol overflow="visible" id="e"><path style="stroke:none" d="M4.688-3.766a.562.562 0 0 0 .03-.171c0-.172-.109-.266-.28-.266-.094 0-.375.062-.407.422-.187-.36-.531-.625-.937-.625-1.125 0-2.36 1.39-2.36 2.828C.734-.594 1.328 0 2.047 0c.594 0 1.062-.469 1.156-.578l.016.015C3.016.313 2.89.734 2.89.75c-.047.094-.375 1.078-1.438 1.078a2.68 2.68 0 0 1-.797-.11.542.542 0 0 0 .406-.515C1.063 1.047.954.86.688.86a.546.546 0 0 0-.53.579c0 .406.359.609 1.312.609 1.25 0 1.968-.781 2.125-1.375ZM3.405-1.28c-.062.265-.297.515-.515.703-.204.172-.516.36-.813.36-.5 0-.64-.516-.64-.923 0-.468.28-1.656.562-2.156.266-.484.688-.89 1.11-.89.656 0 .796.812.796.859 0 .047-.015.11-.031.14Zm0 0"/></symbol><symbol overflow="visible" id="b"><path style="stroke:none" d="M2.328-4.438c0-.187 0-.187-.203-.187-.453.438-1.078.438-1.36.438v.25c.157 0 .626 0 1-.188v3.547c0 .234 0 .328-.687.328H.812V0c.125 0 .985-.031 1.235-.031.219 0 1.094.031 1.25.031v-.25H3.03c-.703 0-.703-.094-.703-.328Zm0 0"/></symbol><symbol overflow="visible" id="c"><path style="stroke:none" d="M3.516-1.266H3.28c-.015.157-.094.563-.187.625-.047.047-.578.047-.688.047H1.125c.734-.64.984-.844 1.39-1.172.516-.406 1-.843 1-1.5 0-.843-.734-1.359-1.624-1.359-.86 0-1.454.61-1.454 1.25 0 .344.297.39.376.39.156 0 .359-.124.359-.374 0-.125-.047-.375-.406-.375.218-.485.687-.641 1.015-.641.703 0 1.063.547 1.063 1.11 0 .609-.438 1.078-.656 1.328L.516-.266C.437-.203.437-.187.437 0h2.876Zm0 0"/></symbol><symbol overflow="visible" id="d"><path style="stroke:none" d="M1.906-2.328c.547 0 .938.375.938 1.125 0 .86-.516 1.125-.906 1.125-.282 0-.907-.078-1.188-.5.328 0 .406-.235.406-.39 0-.22-.172-.376-.39-.376a.38.38 0 0 0-.391.407C.375-.281 1.094.14 1.938.14c.968 0 1.64-.657 1.64-1.344 0-.547-.437-1.094-1.203-1.25.719-.266.984-.781.984-1.219 0-.547-.625-.953-1.406-.953-.766 0-1.36.375-1.36.938 0 .234.157.359.36.359.219 0 .36-.156.36-.344 0-.203-.141-.36-.36-.375.25-.297.719-.375.985-.375.312 0 .75.156.75.75 0 .297-.094.625-.282.828-.219.266-.422.281-.765.313-.172.015-.188.015-.22.015-.015 0-.077.016-.077.094 0 .094.062.094.187.094Zm0 0"/></symbol></defs><use xlink:href="#a" x=".41" y="5.163" style="fill:#000;fill-opacity:1"/><use xlink:href="#b" x="4.904" y="6.658" style="fill:#000;fill-opacity:1"/><use xlink:href="#a" x=".41" y="33.51" style="fill:#000;fill-opacity:1"/><use xlink:href="#c" x="4.904" y="35.004" style="fill:#000;fill-opacity:1"/><use xlink:href="#a" x=".41" y="61.856" style="fill:#000;fill-opacity:1"/><use xlink:href="#d" x="4.904" y="63.351" style="fill:#000;fill-opacity:1"/><use xlink:href="#e" x="28.627" y="4.942" style="fill:#000;fill-opacity:1"/><use xlink:href="#b" x="33.379" y="6.436" style="fill:#000;fill-opacity:1"/><use xlink:href="#e" x="28.627" y="33.288" style="fill:#000;fill-opacity:1"/><use xlink:href="#c" x="33.379" y="34.783" style="fill:#000;fill-opacity:1"/><use xlink:href="#e" x="28.627" y="61.635" style="fill:#000;fill-opacity:1"/><use xlink:href="#d" x="33.379" y="63.129" style="fill:#000;fill-opacity:1"/><path style="fill:none;stroke-width:.3985;stroke-linecap:butt;stroke-linejoin:miter;stroke:#000;stroke-opacity:1;stroke-miterlimit:10" d="M8.003 0h12.214M6.409-6.414l15.304-15.3M3.206-6.414l21.828-43.648M6.409-21.933l15.304 15.3M8.003-28.347h12.214M6.409-34.757l15.304-15.305M3.206-50.28 25.034-6.633M6.409-50.28l15.304 15.3M8.003-56.695h12.214" transform="matrix(1 0 0 -1 4.892 3.766)"/></svg>