<svg xmlns="http://www.w3.org/2000/svg" width="78.275" height="14.499" viewBox="0 0 58.706 10.874" version="1.2"><path style="fill:none;stroke-width:1.19553;stroke-linecap:butt;stroke-linejoin:miter;stroke:#000;stroke-opacity:1;stroke-miterlimit:10" d="M1.196 0h54.3" transform="matrix(1 0 0 -1 .859 5.379)"/><path style="fill:none;stroke-width:1.19553;stroke-linecap:round;stroke-linejoin:round;stroke:#000;stroke-opacity:1;stroke-miterlimit:10" d="M-3.028 3.832C-2.474 1.532-1.243.445-.001 0c-1.242-.445-2.473-1.531-3.027-3.832" transform="matrix(-1 0 0 1 9.905 5.379)"/><path style="fill:none;stroke-width:1.19553;stroke-linecap:round;stroke-linejoin:round;stroke:#000;stroke-opacity:1;stroke-miterlimit:10" d="M-3.03 3.832C-2.475 1.532-1.24.445.001 0-1.24-.445-2.475-1.531-3.03-3.832" transform="matrix(-1 0 0 1 5.681 5.379)"/><path style="fill:none;stroke-width:1.19553;stroke-linecap:round;stroke-linejoin:round;stroke:#000;stroke-opacity:1;stroke-miterlimit:10" d="M-3.028 3.832C-2.477 1.532-1.242.445 0 0c-1.242-.445-2.477-1.531-3.028-3.832" transform="matrix(-1 0 0 1 1.457 5.379)"/><path style="fill:none;stroke-width:1.19553;stroke-linecap:round;stroke-linejoin:round;stroke:#000;stroke-opacity:1;stroke-miterlimit:10" d="M-3.03 3.832C-2.475 1.532-1.24.445.001 0-1.24-.445-2.475-1.53-3.029-3.832" transform="matrix(1 0 0 -1 48.506 5.379)"/><path style="fill:none;stroke-width:1.19553;stroke-linecap:round;stroke-linejoin:round;stroke:#000;stroke-opacity:1;stroke-miterlimit:10" d="M-3.028 3.832C-2.477 1.532-1.242.445 0 0-1.242-.445-2.477-1.53-3.028-3.832" transform="matrix(1 0 0 -1 52.73 5.379)"/><path style="fill:none;stroke-width:1.19553;stroke-linecap:round;stroke-linejoin:round;stroke:#000;stroke-opacity:1;stroke-miterlimit:10" d="M-3.03 3.832C-2.473 1.532-1.243.445-.001 0-1.244-.445-2.474-1.53-3.029-3.832" transform="matrix(1 0 0 -1 56.955 5.379)"/></svg>