<svg xmlns="http://www.w3.org/2000/svg" xmlns:xlink="http://www.w3.org/1999/xlink" width="25.084" height="33.904" viewBox="0 0 18.813 25.428" version="1.2"><defs><symbol overflow="visible" id="a"><path style="stroke:none" d="M-2.219-5.984c-1.328 0-2.265.906-2.265 2.343 0 .75.312 1.282.484 1.5h-.484l.078 1.766h.468c0-.61 0-.688.376-.688h5.03v.688h.47l-.032-1.25.032-1.25h-.47v.688H-.39A2.01 2.01 0 0 0 .063-3.47c0-1.5-.907-2.515-2.282-2.515Zm0 1.28c1.406 0 1.922.704 1.922 1.345 0 .14 0 .609-.547 1.062-.125.11-.14.11-.328.11h-2.11c-.187 0-.202-.016-.343-.157-.406-.39-.469-.922-.469-1.14 0-.657.61-1.22 1.875-1.22Zm0 0"/></symbol><symbol overflow="visible" id="b"><path style="stroke:none" d="M-3.953-5.563c-.235 0-.578.172-.578.625 0 .157.031.625.375 1.063-.125.172-.328.594-.328 1.328 0 1.438.78 1.985 1.468 1.985.407 0 .829-.188 1.047-.516.36.281.688.344.89.344.157 0 .641-.047.954-.438.031.125.25.86.875.86C1.25-.313 2-.875 2-2.86 2-4.625 1.422-5.406.719-5.406c-.297 0-.922.078-1.266.75-.281.562-.281 1.156-.281 2.11 0 .265 0 .718-.016.765a.625.625 0 0 1-.625.562.633.633 0 0 1-.328-.11c.234-.452.266-.968.266-1.218 0-1.437-.782-1.984-1.485-1.984-.468 0-.796.25-.953.406-.156-.297-.172-.516-.187-.625.047.031.14.047.203.047.25 0 .422-.172.422-.438a.41.41 0 0 0-.422-.421Zm.937 2.141c.454 0 1.125 0 1.125.875s-.671.875-1.125.875c-.437 0-1.109 0-1.109-.875s.672-.875 1.11-.875ZM.75-4.547c.36 0 .89.39.89 1.688 0 1.187-.452 1.687-.906 1.687-.609 0-.609-.625-.609-.766v-1.171c0-.313 0-1.438.625-1.438Zm0 0"/></symbol><symbol overflow="visible" id="c"><path style="stroke:none" d="M-6.11-4.36c-.421 0-.874.36-.874 1.141 0 .969.421 2.047 1.546 2.047h1.016v.75h.469v-.75H-.47v.688H0l-.031-1.25c0-.375 0-1.016.031-1.375h-.469v.859h-3.484v-1.14h-.469v1.203h-1.016c-1.093 0-1.187-.75-1.187-1 0-.047 0-.11.031-.172.11.156.297.234.485.234.421 0 .609-.36.609-.61 0-.296-.203-.624-.61-.624Zm0 0"/></symbol></defs><path style="fill:none;stroke-width:1.19553;stroke-linecap:butt;stroke-linejoin:miter;stroke:#00f;stroke-opacity:1;stroke-miterlimit:10" d="M-11.116-7.808h22.23V7.81h-22.23Zm0 0" transform="matrix(0 -1 -1 0 9.313 12.427)"/><g style="fill:#000;fill-opacity:1"><use xlink:href="#a" x="11.8" y="20.223"/><use xlink:href="#b" x="11.8" y="13.857"/><use xlink:href="#c" x="11.8" y="8.128"/></g></svg>