<svg xmlns="http://www.w3.org/2000/svg" width="78.275" height="9.603" viewBox="0 0 58.706 7.202" version="1.2"><path style="fill:none;stroke-width:.3985;stroke-linecap:butt;stroke-linejoin:miter;stroke:#000;stroke-opacity:1;stroke-miterlimit:10" d="M.399 0h55.894" transform="matrix(1 0 0 -1 .859 3.207)"/><path style="fill:none;stroke-width:.3985;stroke-linecap:round;stroke-linejoin:round;stroke:#000;stroke-opacity:1;stroke-miterlimit:10" d="M-2.07 2.39C-1.697.958-.853.278 0 0c-.852-.277-1.696-.957-2.07-2.39" transform="matrix(-1 0 0 1 6 3.207)"/><path style="fill:none;stroke-width:.3985;stroke-linecap:round;stroke-linejoin:round;stroke:#000;stroke-opacity:1;stroke-miterlimit:10" d="M-2.073 2.39C-1.693.958-.85.278.002 0-.85-.277-1.694-.957-2.073-2.39" transform="matrix(-1 0 0 1 3.529 3.207)"/><path style="fill:none;stroke-width:.3985;stroke-linecap:round;stroke-linejoin:round;stroke:#000;stroke-opacity:1;stroke-miterlimit:10" d="M-2.07 2.39C-1.693.958-.853.278 0 0c-.852-.277-1.692-.957-2.07-2.39" transform="matrix(-1 0 0 1 1.058 3.207)"/><path style="fill:none;stroke-width:.3985;stroke-linecap:round;stroke-linejoin:round;stroke:#000;stroke-opacity:1;stroke-miterlimit:10" d="M-2.074 2.39C-1.695.958-.85.278 0 0-.85-.277-1.695-.957-2.074-2.39" transform="matrix(1 0 0 -1 49.941 3.207)"/><path style="fill:none;stroke-width:.3985;stroke-linecap:round;stroke-linejoin:round;stroke:#000;stroke-opacity:1;stroke-miterlimit:10" d="M-2.072 2.39C-1.693.958-.849.278-.002 0c-.847-.277-1.691-.957-2.07-2.39" transform="matrix(1 0 0 -1 52.412 3.207)"/><path style="fill:none;stroke-width:.3985;stroke-linecap:round;stroke-linejoin:round;stroke:#000;stroke-opacity:1;stroke-miterlimit:10" d="M-2.074 2.39C-1.695.958-.851.278 0 0-.85-.277-1.695-.957-2.074-2.39" transform="matrix(1 0 0 -1 54.883 3.207)"/><path style="fill:none;stroke-width:.3985;stroke-linecap:round;stroke-linejoin:round;stroke:#000;stroke-opacity:1;stroke-miterlimit:10" d="M-2.072 2.39C-1.693.958-.85.278-.002 0c-.847-.277-1.691-.957-2.07-2.39" transform="matrix(1 0 0 -1 57.353 3.207)"/></svg>