<svg xmlns="http://www.w3.org/2000/svg" xmlns:xlink="http://www.w3.org/1999/xlink" width="456.363" height="52.251" viewBox="0 0 342.272 39.188" version="1.2"><defs><symbol overflow="visible" id="b"><path style="stroke:none" d="m6.094-.656-.047-.469-.688.078-.28-2.562c-.11-1.047-.673-1.36-1.657-1.266-.953.11-1.438.719-1.64 1.25l-.11-1.063-1.688.266.047.453c.61-.062.688-.078.735.313l.328 3.062-.688.078.047.47L1.687-.22l1.25-.093-.046-.47-.688.079-.219-2.063c-.125-1.093.688-1.671 1.329-1.75.328-.03.546.157.64.922l.281 2.672-.671.063.046.468 1.235-.156Zm0 0"/></symbol><symbol overflow="visible" id="c"><path style="stroke:none" d="M4.766-1.688c-.016-.171-.204-.156-.25-.156-.172.016-.188.063-.235.235-.14.5-.672.875-1.312.953-1.406.14-1.563-1.172-1.625-1.672l3-.313c.218-.03.312-.03.281-.296-.031-.313-.172-1.047-.719-1.5-.375-.297-.937-.422-1.625-.344C.703-4.61-.063-3.5.078-2.266.218-.937 1.312-.078 2.906-.25c1.563-.172 1.875-1.266 1.86-1.438ZM3.703-2.905l-2.39.25c-.032-.39-.047-.813.109-1.156.234-.422.625-.579.906-.61C3.5-4.547 3.656-3.25 3.703-2.906Zm0 0"/></symbol><symbol overflow="visible" id="d"><path style="stroke:none" d="M5.453-.813c-.016-.234-.14-.234-.281-.218-.61.062-.625-.063-.656-.297l-.22-2.125c-.093-.89-.859-1.453-2.343-1.297-.562.063-1.75.234-1.656 1.094a.601.601 0 0 0 .672.562.615.615 0 0 0 .547-.687.646.646 0 0 0-.282-.469c.282-.078.61-.125.72-.125.75-.078 1.155.281 1.234 1.031l.03.344C2.5-2.89 0-2.531.157-1.11c.094.954 1.328 1.016 2.016.938.797-.078 1.234-.531 1.406-.984.031.312.078.765 1.11.656l.468-.047c.203-.031.328-.031.297-.265ZM3.36-1.75c.094.953-.812 1.172-1.062 1.203-.516.063-.938-.25-.985-.703C1.188-2.297 2.75-2.594 3.25-2.688Zm0 0"/></symbol><symbol overflow="visible" id="e"><path style="stroke:none" d="M3.984-4.125c-.062-.516-.593-.734-1.125-.688-.687.079-1.046.61-1.203 1.25l-.11-1.109-1.64.25.047.453c.61-.062.688-.062.735.328l.328 3.063-.688.062.047.47 1.234-.157c.375-.047 1.016-.11 1.375-.11L2.938-.78l-.86.078-.187-1.735c-.079-.687.03-1.921 1.03-2.03 0 0-.171.187-.14.468.047.406.39.578.672.547.297-.031.578-.266.531-.672Zm0 0"/></symbol><symbol overflow="visible" id="f"><path style="stroke:none" d="M3.984-1.813c-.046-.437-.296-.765-.671-1-.422-.25-.75-.28-1.532-.328C1.406-3.17.766-3.203.72-3.67c-.078-.61.828-.72 1.015-.735.75-.078 1.157.156 1.266.703.031.156.063.203.266.187.234-.03.218-.078.203-.312l-.094-.781c-.016-.188-.031-.282-.203-.266-.047 0-.063.016-.422.234a2.417 2.417 0 0 0-1.031-.078C1.406-4.687-.11-4.53.03-3.234c.047.39.281.64.5.796.422.297.813.313 1.594.376.36.03 1.11.078 1.172.656.078.75-.828.843-1.047.86C1.203-.423.875-1.142.703-1.532c-.062-.14-.125-.125-.25-.11-.25.016-.234.079-.219.282L.36-.266C.375-.078.375.016.563 0c.062 0 .078 0 .28-.188l.235-.203c.484.282 1 .235 1.203.204.313-.032 1.844-.188 1.703-1.625Zm0 0"/></symbol><symbol overflow="visible" id="g"><path style="stroke:none" d="m3.672-1.64-.063-.516-.468.047.062.5c.063.671-.234.953-.515.968-.579.063-.657-.578-.672-.796l-.297-2.735 1.468-.156-.046-.453-1.47.156-.202-1.906L1-6.47c.11 1-.25 2.032-1.25 2.172l.031.344.828-.094.297 2.719c.11 1.062.969 1.187 1.688 1.11.75-.079 1.156-.704 1.078-1.423Zm0 0"/></symbol><symbol overflow="visible" id="h"><path style="stroke:none" d="M9.328 0v-.469h-.687v-2.578c0-1.031-.516-1.437-1.547-1.437-.907 0-1.422.5-1.688.953-.187-.922-1.11-.953-1.484-.953-.875 0-1.438.453-1.766 1.078v-1.078l-1.703.078v.468c.61 0 .688 0 .688.391v3.078H.453V0l1.25-.031L2.953 0v-.469h-.687v-2.078c0-1.094.875-1.578 1.5-1.578.328 0 .546.203.546.969V-.47h-.687V0l1.266-.031L6.14 0v-.469h-.688v-2.078c0-1.094.86-1.578 1.484-1.578.344 0 .563.203.563.969V-.47h-.688V0l1.25-.031Zm0 0"/></symbol><symbol overflow="visible" id="i"><path style="stroke:none" d="M2.844 0v-.469h-.61v-4.015L.5-4.406v.468c.594 0 .656 0 .656.391v3.078H.47V0l1.219-.031Zm-.469-6.047a.774.774 0 0 0-.781-.781.784.784 0 0 0-.782.781c0 .422.36.766.782.766a.77.77 0 0 0 .781-.766Zm0 0"/></symbol><symbol overflow="visible" id="j"><path style="stroke:none" d="M5.984 0v-.469c-.609 0-.687 0-.687-.39v-6.063l-1.766.078v.469c.625 0 .703 0 .703.39v1.954a2.178 2.178 0 0 0-1.359-.453c-1.453 0-2.5.875-2.5 2.28 0 1.313.922 2.267 2.39 2.267.61 0 1.094-.235 1.407-.485v.484ZM4.172-1.031c-.14.187-.547.734-1.297.734-1.219 0-1.219-1.203-1.219-1.906 0-.485 0-1.016.25-1.406.297-.422.766-.516 1.078-.516.563 0 .97.313 1.188.61Zm0 0"/></symbol><symbol overflow="visible" id="k"><path style="stroke:none" d="M8.031-3.953v-.469a12.55 12.55 0 0 1-.781.031l-.953-.03v.468c.094 0 .578 0 .578.11 0 .03-.031.093-.031.124L5.797-1.172l-1.14-2.781h.562v-.469l-1.14.031c-.423 0-.845-.03-1-.03v.468h.593c.203.5.203.531.203.531 0 .031-.031.094-.031.125L3.047-1.39 2-3.953h.563v-.469l-1.235.031L.25-4.42v.468h.594L2.359-.234c.079.172.11.28.36.28s.297-.108.36-.28L4.14-2.813 5.187-.233c.079.172.11.28.36.28s.297-.108.36-.28L7.343-3.75c.047-.125.093-.203.687-.203Zm0 0"/></symbol><symbol overflow="visible" id="l"><path style="stroke:none" d="M5.516-.234c0-.235-.125-.235-.266-.235-.61-.015-.61-.14-.61-.375v-2.14c0-.891-.702-1.532-2.187-1.532-.562 0-1.781.047-1.781.922 0 .438.344.625.61.625.312 0 .624-.219.624-.625 0-.297-.187-.469-.218-.5a5.28 5.28 0 0 1 .718-.062c.75 0 1.11.422 1.11 1.172v.343c-.72.032-3.25.125-3.25 1.563C.266-.125 1.5.062 2.187.062c.797 0 1.266-.406 1.485-.828 0 .313 0 .766 1.047.766h.468c.204 0 .329 0 .329-.234Zm-2-1.157c0 .97-.922 1.094-1.172 1.094-.516 0-.906-.344-.906-.797 0-1.062 1.578-1.203 2.078-1.234Zm0 0"/></symbol><symbol overflow="visible" id="m"><path style="stroke:none" d="M5.781-3.953v-.469A12.55 12.55 0 0 1 5-4.39l-.906-.03v.468s.468 0 .468.11L4.5-3.72 3.36-1.266 2.093-3.953h.531v-.469l-1.234.031-1.125-.03v.468H.89L2.766 0 2.53.484C2.312.954 2 1.641 1.281 1.641c-.14 0-.156-.016-.234-.047.094-.032.312-.172.312-.532C1.36.734 1.125.5.781.5a.553.553 0 0 0-.562.578c0 .5.469.922 1.062.922.766 0 1.344-.625 1.625-1.188l2.14-4.562c.063-.14.095-.203.735-.203Zm0 0"/></symbol><symbol overflow="visible" id="n"><path style="stroke:none" d="m6.547-2.469.125-.453a6.038 6.038 0 0 1-.766-.156l-.875-.235-.125.454c.188.03.469.14.453.218 0 0 0 .016-.078.094L3.563-.407l-.594-2.937.515.125.125-.453-1.218-.265-1.063-.297-.125.453.594.156.812 4.047c.063.281.188.312.297.344.172.046.297.03.438-.157l2.453-3.046c.11-.126.125-.172.75-.032Zm0 0"/></symbol><symbol overflow="visible" id="o"><path style="stroke:none" d="M5.063.031c.046-.172-.141-.218-.188-.218-.156-.047-.188 0-.297.14C4.266.375 3.625.547 3 .391 1.64.062 1.953-1.25 2.062-1.734L4.985-1c.22.047.313.063.375-.188.079-.312.188-1.046-.171-1.64-.266-.438-.735-.735-1.407-.89C2.234-4.11 1.125-3.314.828-2.11c-.312 1.312.438 2.484 2 2.875C4.36 1.14 5.016.203 5.063.03Zm-.594-1.5L2.14-2.047c.109-.375.234-.781.515-1.047a1.087 1.087 0 0 1 1.047-.265c1.14.265.828 1.546.766 1.89Zm0 0"/></symbol><symbol overflow="visible" id="p"><path style="stroke:none" d="M5.156-2.516c.125-.515-.312-.921-.828-1.046-.672-.157-1.187.218-1.562.78l.28-1.093-1.64-.313-.11.454c.595.14.673.156.579.546L1.141-.203.469-.36l-.11.453 1.22.265c.359.094.984.235 1.327.36l.11-.453-.829-.204.422-1.703c.157-.671.688-1.796 1.657-1.546 0 0-.235.109-.297.39a.595.595 0 0 0 .453.735.59.59 0 0 0 .734-.454Zm0 0"/></symbol><symbol overflow="visible" id="q"><path style="stroke:none" d="m6.547-2.469.125-.453a6.653 6.653 0 0 1-.766-.156l-.875-.235-.125.454s.469.109.453.218l-.093.11L3.562-.437 2.97-3.345l.515.125.125-.453-1.218-.265-1.063-.297-.125.453.594.156.89 4.281-.343.422c-.328.39-.797 1-1.485.828-.14-.047-.156-.062-.218-.11.093-.015.328-.093.421-.437A.55.55 0 0 0 .641.672C.375.609.047.719-.031 1.094c-.125.484.218 1.015.797 1.156.734.172 1.453-.297 1.875-.781l3.156-3.907c.11-.124.125-.171.75-.03Zm0 0"/></symbol><symbol overflow="visible" id="r"><path style="stroke:none" d="m5.953 1.469.11-.453L5.39.844l.625-2.5c.25-1.016-.172-1.532-1.141-1.766-.922-.234-1.578.188-1.969.625l.266-1.047-1.688-.328-.109.453c.594.14.672.156.578.547L1.22-.187.547-.345.437.11l1.22.266 1.218.328.11-.453-.672-.156.5-2.016C3.078-2.984 4.016-3.25 4.64-3.094c.312.078.484.313.296 1.063l-.64 2.61-.672-.173-.11.453 1.22.282Zm0 0"/></symbol><symbol overflow="visible" id="s"><path style="stroke:none" d="M5.422 1.078c.047-.219-.078-.25-.219-.281-.594-.156-.562-.281-.5-.5l.516-2.078c.203-.875-.313-1.672-1.766-2.016-.547-.14-1.734-.39-1.937.469a.605.605 0 0 0 .437.765c.297.063.656-.078.75-.468.078-.297-.062-.5-.078-.531.266.015.61.078.719.109.719.172.953.672.781 1.406l-.094.328C3.344-1.859.86-2.375.516-.984.296-.063 1.437.422 2.109.578 2.875.781 3.438.5 3.75.125c-.078.313-.188.75.828 1l.453.11c.203.046.328.077.39-.157ZM3.734-.5C3.5.438 2.594.344 2.36.281c-.5-.125-.812-.562-.703-1 .25-1.031 1.813-.797 2.313-.703Zm0 0"/></symbol><symbol overflow="visible" id="u"><path style="stroke:none" d="m5.813 1.438.109-.454C5.328.828 5.25.813 5.344.438l1.453-5.891-1.734-.344-.11.453c.61.157.688.172.594.547l-.469 1.89a2.17 2.17 0 0 0-1.203-.765c-1.422-.344-2.656.266-2.984 1.625C.578-.766 1.25.375 2.67.72a2.214 2.214 0 0 0 1.47-.125l-.11.469ZM4.296 0c-.172.156-.703.578-1.422.406C1.687.11 1.969-1.063 2.141-1.75c.109-.469.234-.984.562-1.297.406-.344.875-.312 1.172-.234.547.125.875.515 1.016.875Zm0 0"/></symbol><clipPath id="a"><path d="M0 1h341.906v34H0Zm0 0"/></clipPath><clipPath id="t"><path d="M322 29h19.906v9H322Zm0 0"/></clipPath></defs><g clip-path="url(#a)"><path style="fill:none;stroke-width:.3985;stroke-linecap:butt;stroke-linejoin:miter;stroke:#000;stroke-opacity:1;stroke-miterlimit:10" d="M-.001-.001c170.082 28.347 255.121 28.347 340.164 0" transform="matrix(1 0 0 -1 .673 28.776)"/></g><g style="fill:#000;fill-opacity:1"><use xlink:href="#b" x="88.655" y="11.893"/><use xlink:href="#c" x="94.985" y="11.218"/><use xlink:href="#d" x="100.205" y="10.661"/><use xlink:href="#e" x="105.743" y="10.071"/></g><g style="fill:#000;fill-opacity:1"><use xlink:href="#f" x="114.232" y="9.166"/><use xlink:href="#g" x="118.73" y="8.686"/><use xlink:href="#d" x="123.158" y="8.214"/><use xlink:href="#e" x="128.695" y="7.623"/><use xlink:href="#g" x="133.391" y="7.123"/></g><g style="fill:#000;fill-opacity:1"><use xlink:href="#h" x="183.469" y="9.977"/><use xlink:href="#i" x="193.013" y="9.977"/><use xlink:href="#j" x="196.191" y="9.977"/><use xlink:href="#k" x="202.557" y="9.977"/></g><use xlink:href="#l" x="210.518" y="9.977" style="fill:#000;fill-opacity:1"/><use xlink:href="#m" x="215.768" y="9.977" style="fill:#000;fill-opacity:1"/><use xlink:href="#n" x="272.651" y="21.328" style="fill:#000;fill-opacity:1"/><g style="fill:#000;fill-opacity:1"><use xlink:href="#o" x="278.213" y="22.697"/><use xlink:href="#p" x="283.311" y="23.952"/><use xlink:href="#q" x="287.896" y="25.08"/></g><g style="fill:#000;fill-opacity:1"><use xlink:href="#r" x="297.473" y="27.437"/><use xlink:href="#o" x="303.655" y="28.959"/><use xlink:href="#s" x="308.753" y="30.213"/><use xlink:href="#p" x="314.16" y="31.544"/></g><g style="fill:#000;fill-opacity:1" clip-path="url(#t)"><use xlink:href="#o" x="322.45" y="33.585"/><use xlink:href="#r" x="327.548" y="34.839"/><use xlink:href="#u" x="333.73" y="36.361"/></g></svg>