<svg xmlns="http://www.w3.org/2000/svg" width="136.059" height="99.38pt" viewBox="0 0 102.044 99.38" version="1.2"><defs><clipPath id="a"><path d="M43 40h58v56H43Zm0 0"/></clipPath><clipPath id="b"><path d="M100.152 69.313c0-15.657-12.691-28.348-28.347-28.348-15.657 0-28.348 12.691-28.348 28.347 0 15.657 12.691 28.348 28.348 28.348 15.656 0 28.347-12.691 28.347-28.347Zm0 0"/></clipPath><clipPath id="c"><path d="M32 29h69.566v70.07H32Zm0 0"/></clipPath><clipPath id="d"><path d="M0 71h30v13H0Zm0 0"/></clipPath><clipPath id="e"><path d="M29.285 69.313c0-7.829-6.348-14.176-14.172-14.176-7.828 0-14.175 6.347-14.175 14.175 0 7.829 6.347 14.172 14.175 14.172 7.825 0 14.172-6.343 14.172-14.171Zm0 0"/></clipPath></defs><path style="fill:none;stroke-width:.3985;stroke-linecap:butt;stroke-linejoin:miter;stroke:#000;stroke-opacity:1;stroke-miterlimit:10" d="M0 0H2.1v2.1H4.2V0H6.3v2.1H4.2v2.098H6.3V6.3h2.098v2.098h2.101V6.3h2.098V4.198H14.7V2.101h-2.102V-.001H14.7v2.102h2.097V-.001h2.102v2.102h-2.102v2.097h2.102V6.3h-2.102V4.198H14.7V6.3h-2.102v2.098H10.5v2.101h2.098v2.098H14.7v2.101h2.097v-2.101h2.102v2.101h-2.102v2.098h2.102v2.102h2.098v2.101h2.101v-2.101h2.098v2.101h-2.098v2.098h2.098v2.101h2.101v2.098h2.098v-2.098h2.102v-2.101h2.101v-2.098h-2.101v-2.101h2.101v2.101h2.098v-2.101h2.101v-2.102h2.098v-2.098h-2.098v-2.101h2.098v2.101h2.102v-2.101h2.097v-2.098h2.102V8.398h-2.102V6.3h-2.097V4.198h-2.102V6.3h-2.098V4.198h2.098V2.101h-2.098V-.001h2.098v2.102h2.102V-.001h2.097v2.102h-2.097v2.097h2.097V6.3h2.102v2.098h2.097V6.3h2.102V4.198h2.102V2.101h-2.102V-.001h2.102v2.102h2.097V-.001h2.102" transform="matrix(1 0 0 -1 .938 33.878)"/><path style="fill:none;stroke-width:.19925;stroke-linecap:butt;stroke-linejoin:miter;stroke:red;stroke-opacity:1;stroke-miterlimit:10" d="M54.804 8.503a9.45 9.45 0 0 1-9.449 9.45 9.45 9.45 0 0 1-9.45-9.45 9.45 9.45 0 0 1 9.45-9.45 9.45 9.45 0 0 1 9.45 9.45Zm0 0" transform="matrix(1 0 0 -1 .938 33.878)"/><g clip-path="url(#a)"><g clip-path="url(#b)"><path style="fill:none;stroke-width:.3985;stroke-linecap:butt;stroke-linejoin:miter;stroke:#000;stroke-opacity:1;stroke-miterlimit:10" d="M0 0h2.1v2.1h2.099V0h2.1v2.1H4.2v2.099h2.099v2.1h2.1v2.1h2.1v-2.1h2.1V4.2h2.098V2.1h-2.099V0h2.1v2.1h2.1V0h2.1v2.1h-2.1v2.099h2.1v2.1h-2.1V4.2h-2.1v2.1h-2.1v2.1h-2.1v2.1h2.1v2.1h2.1v2.099h2.1v-2.1h2.1v2.1h-2.1v2.1h2.1v2.1h2.099v2.1h2.1v-2.1h2.1v2.1h-2.1v2.1h2.1v2.098h2.1v2.1h2.1v-2.1h2.099v-2.099h2.1v-2.1h-2.1v-2.099h2.1v2.1h2.099v-2.1h2.1v-2.1h2.1v-2.1h-2.1v-2.1h2.1v2.1h2.1v-2.1h2.1v-2.1h2.098V8.4h-2.098V6.3h-2.1V4.2h-2.1v2.1h-2.1V4.2h2.1V2.1h-2.1V0h2.1v2.1h2.1V0h2.1v2.1h-2.1v2.099h2.1v2.1h2.1v2.1h2.099V6.3h2.1V4.2h2.1V2.1h-2.1V0h2.1v2.1h2.1V0h2.1" transform="matrix(3 0 0 -3 -64.26 94.823)"/></g></g><g clip-path="url(#c)"><path style="fill:none;stroke-width:.79701;stroke-linecap:butt;stroke-linejoin:miter;stroke:red;stroke-opacity:1;stroke-miterlimit:10" d="M99.214-35.434c0 15.656-12.691 28.347-28.347 28.347-15.657 0-28.348-12.691-28.348-28.348 0-15.656 12.691-28.347 28.348-28.347 15.656 0 28.347 12.691 28.347 28.347Zm0 0" transform="matrix(1 0 0 -1 .938 33.878)"/></g><path style="fill:none;stroke-width:.3985;stroke-linecap:butt;stroke-linejoin:miter;stroke:red;stroke-opacity:1;stroke-miterlimit:10" d="m50.101.335 6.531-11.254" transform="matrix(1 0 0 -1 .938 33.878)"/><path style="fill:none;stroke-width:.19925;stroke-linecap:butt;stroke-linejoin:miter;stroke:#00f;stroke-opacity:1;stroke-miterlimit:10" d="M33.07 28.347a4.725 4.725 0 0 1-9.45 0 4.725 4.725 0 0 1 9.45 0Zm0 0" transform="matrix(1 0 0 -1 .938 33.878)"/><g clip-path="url(#d)"><g clip-path="url(#e)"><path style="fill:none;stroke-width:.3985;stroke-linecap:butt;stroke-linejoin:miter;stroke:#000;stroke-opacity:1;stroke-miterlimit:10" d="M0 0h2.1v2.1h2.099V0h2.1v2.1h-2.1v2.1h2.1v2.1h2.1v2.098h2.1V6.3h2.1V4.2h2.098V2.1H12.6V0h2.098v2.1h2.1V0h2.101v2.1h-2.1v2.1h2.1v2.1h-2.1V4.2h-2.1v2.1h-2.1v2.098h-2.1v2.1h2.1v2.1h2.1v2.1h2.1v-2.1h2.1v2.1h-2.1v2.1h2.1v2.1h2.099v2.1h2.1v-2.1h2.1v2.1h-2.1v2.098h2.1v2.1h2.1v2.1h2.098v-2.1h2.1v-2.098h2.1v-2.1h-2.1v-2.1h2.1v2.1h2.1v-2.1h2.1v-2.1h2.1v-2.1h-2.1v-2.1h2.1v2.1h2.1v-2.1h2.1v-2.1h2.099V8.4h-2.1V6.3h-2.1V4.2h-2.099v2.1h-2.1V4.2h2.1V2.1h-2.1V0h2.1v2.1h2.1V0h2.1v2.1h-2.1v2.1h2.1v2.1h2.1v2.1h2.099V6.3h2.1V4.2h2.1V2.1h-2.1V0h2.1v2.1h2.1V0h2.1" transform="matrix(3 0 0 -3 -69.928 154.351)"/></g></g><path style="fill:none;stroke-width:.79701;stroke-linecap:butt;stroke-linejoin:miter;stroke:#00f;stroke-opacity:1;stroke-miterlimit:10" d="M28.347-35.434c0 7.828-6.348 14.175-14.172 14.175C6.347-21.259 0-27.606 0-35.434c0-7.829 6.348-14.172 14.176-14.172 7.825 0 14.172 6.343 14.172 14.172Zm0 0" transform="matrix(1 0 0 -1 .938 33.878)"/><path style="fill:none;stroke-width:.3985;stroke-linecap:butt;stroke-linejoin:miter;stroke:#00f;stroke-opacity:1;stroke-miterlimit:10" d="M27.324 23.733 17.249-21.599" transform="matrix(1 0 0 -1 .938 33.878)"/><path style="fill:none;stroke-width:1.59404;stroke-linecap:butt;stroke-linejoin:miter;stroke:green;stroke-opacity:1;stroke-miterlimit:10" d="m26.609-28.634 24.215 13.246" transform="matrix(1 0 0 -1 .938 33.878)"/></svg>