<svg xmlns="http://www.w3.org/2000/svg" width="118.86" height="81.051" viewBox="0 0 89.145 60.788" version="1.2"><path style="fill:none;stroke-width:.19925;stroke-linecap:butt;stroke-linejoin:miter;stroke:gray;stroke-opacity:1;stroke-miterlimit:10" d="M.002 0H85.04M0 28.347h85.04M0 56.683h85.04M0 0v56.696M28.346-.001v56.696M56.693-.001v56.696M85.03-.001v56.696" transform="matrix(1 0 0 -1 2.572 57.687)"/><path style="stroke:none;fill-rule:nonzero;fill:#000;fill-opacity:1" d="M32.91 57.688a1.993 1.993 0 1 0-3.983.002 1.993 1.993 0 0 0 3.983-.002Zm-.43-4.922a1.99 1.99 0 0 0-1.992-1.993 1.993 1.993 0 1 0 1.992 1.992Zm-1.277-4.774a1.993 1.993 0 1 0-3.986.002 1.993 1.993 0 0 0 3.986-.002Zm-2.09-4.48a1.993 1.993 0 1 0-1.992 1.996 1.994 1.994 0 0 0 1.992-1.996Zm-2.832-4.047a1.996 1.996 0 0 0-1.992-1.992 1.996 1.996 0 0 0-1.996 1.992 1.994 1.994 0 0 0 3.988 0Zm-3.496-3.492a1.99 1.99 0 0 0-1.992-1.993 1.99 1.99 0 0 0-1.992 1.993 1.99 1.99 0 0 0 1.992 1.992 1.99 1.99 0 0 0 1.992-1.992Zm-4.047-2.836a1.993 1.993 0 1 0-3.986.001 1.993 1.993 0 0 0 3.986-.001Zm-4.476-2.086a1.994 1.994 0 0 0-3.988 0c0 1.097.894 1.992 1.996 1.992a1.996 1.996 0 0 0 1.992-1.992ZM9.488 29.77a1.993 1.993 0 1 0-3.983.002 1.993 1.993 0 0 0 3.983-.002Zm-4.922-.43a1.994 1.994 0 0 0-3.988 0 1.994 1.994 0 0 0 3.988 0Zm0 0"/></svg>