<svg xmlns="http://www.w3.org/2000/svg" xmlns:xlink="http://www.w3.org/1999/xlink" width="116.341" height="116.331" viewBox="0 0 87.256 87.248" version="1.2"><defs><symbol overflow="visible" id="a"><path style="stroke:none" d="M5.828 0v-.469h-.703L3.453-2.453 4.61-3.75c.141-.14.204-.203 1.016-.203v-.469l-.906.031-1.032-.03v.468c.141 0 .266.015.376.078-.032.063-.032.094-.079.125l-.828.938-.984-1.141h.406v-.469L1.36-4.39.266-4.42v.468h.718l1.547 1.828L1.22-.656c-.157.187-.516.187-1 .187V0l.922-.031L2.156 0v-.469c-.172 0-.36-.047-.36-.11 0 0 0-.015.063-.093l.97-1.094L3.921-.469h-.39V0l1.202-.031Zm0 0"/></symbol></defs><path style="fill:none;stroke-width:.19925;stroke-linecap:butt;stroke-linejoin:miter;stroke:gray;stroke-opacity:1;stroke-miterlimit:10" d="M.001.001h85.04M0 28.345h85.04M0 56.693h85.04M0 85.029h85.04M0 0v85.04M28.345 0v85.04M56.693 0v85.04M85.029 0v85.04" transform="matrix(1 0 0 -1 .737 85.763)"/><path style="fill:none;stroke-width:.3985;stroke-linecap:butt;stroke-linejoin:miter;stroke:#000;stroke-opacity:1;stroke-miterlimit:10" d="m24.38 5.958 40.903 71.68" transform="matrix(1 0 0 -1 .737 85.763)"/><use xlink:href="#a" x="26.059" y="31.282" style="fill:#000;fill-opacity:1"/><path style="fill:none;stroke-width:.3985;stroke-linecap:butt;stroke-linejoin:miter;stroke:#000;stroke-opacity:1;stroke-miterlimit:10" d="M50.04 56.693c0 11.984-9.71 21.695-21.695 21.695-11.98 0-21.691-9.71-21.691-21.695 0-11.98 9.71-21.696 21.691-21.696 11.984 0 21.695 9.715 21.695 21.696Zm0 0" transform="matrix(1 0 0 -1 .737 85.763)"/></svg>