<svg xmlns="http://www.w3.org/2000/svg" width="40.524" height="18.675" viewBox="0 0 30.393 14.006" version="1.2"><defs><clipPath id="a"><path d="M0 0h17v13.508H0Zm0 0"/></clipPath></defs><path style="fill:none;stroke-width:.3985;stroke-linecap:butt;stroke-linejoin:miter;stroke:#000;stroke-opacity:1;stroke-miterlimit:10" d="M9.763 0h18.586" transform="matrix(1 0 0 -1 .734 8.773)"/><path style="stroke:none;fill-rule:nonzero;fill:#000;fill-opacity:1" d="M1.555 8.773c1.097.262 5.925 1.762 8.941 3.391V5.383C7.48 7.012 2.652 8.508 1.555 8.773Zm0 0"/><g clip-path="url(#a)"><path style="fill:none;stroke-width:.3985;stroke-linecap:butt;stroke-linejoin:miter;stroke:#000;stroke-opacity:1;stroke-miterlimit:10" d="M8.942 0C7.845.262 3.017 1.762.001 3.391V-3.39C3.017-1.761 7.845-.265 8.942 0Zm0 0" transform="matrix(-1 0 0 1 10.497 8.773)"/></g><path style="fill:none;stroke-width:.3985;stroke-linecap:butt;stroke-linejoin:miter;stroke:#000;stroke-opacity:1;stroke-miterlimit:10" d="M.4 5.668h27.949" transform="matrix(1 0 0 -1 .734 8.773)"/><path style="fill:none;stroke-width:.3985;stroke-linecap:round;stroke-linejoin:round;stroke:#000;stroke-opacity:1;stroke-miterlimit:10" d="M-2.071 2.392C-1.692.955-.848.28-.001.002-.849-.28-1.692-.955-2.07-2.393" transform="matrix(-1 0 0 1 .933 3.104)"/></svg>