<svg xmlns="http://www.w3.org/2000/svg" xmlns:xlink="http://www.w3.org/1999/xlink" width="405.699" height="296.211" viewBox="0 0 304.274 222.158" version="1.2"><defs><symbol overflow="visible" id="b"><path style="stroke:none" d="M3.813-1.234v-.532h-.47v.516c0 .672-.327.906-.609.906-.578 0-.578-.64-.578-.86v-2.75h1.469v-.468H2.156v-1.906h-.469c0 1-.484 1.984-1.484 2.016v.359h.828v2.734c0 1.063.86 1.282 1.578 1.282.75 0 1.204-.579 1.204-1.297Zm0 0"/></symbol><symbol overflow="visible" id="c"><path style="stroke:none" d="M4.922-1.172c0-.172-.188-.172-.234-.172-.172 0-.188.047-.25.203-.204.485-.782.797-1.422.797-1.407 0-1.422-1.328-1.422-1.828h3.015c.22 0 .313 0 .313-.265 0-.313-.063-1.047-.563-1.547-.359-.36-.89-.532-1.578-.532C1.187-4.516.312-3.484.312-2.25c0 1.344 1 2.313 2.61 2.313 1.578 0 2-1.063 2-1.235ZM3.984-2.5h-2.39c.015-.39.031-.813.234-1.14.266-.391.672-.516.953-.516 1.172 0 1.188 1.312 1.203 1.656Zm0 0"/></symbol><symbol overflow="visible" id="d"><path style="stroke:none" d="M5.828 0v-.469h-.703L3.453-2.453 4.61-3.75c.141-.14.204-.203 1.016-.203v-.469l-.906.031-1.032-.03v.468c.141 0 .266.015.376.078-.032.063-.032.094-.079.125l-.828.938-.984-1.141h.406v-.469L1.36-4.39.266-4.42v.468h.718l1.547 1.828L1.22-.656c-.157.187-.516.187-1 .187V0l.922-.031L2.156 0v-.469c-.172 0-.36-.047-.36-.11 0 0 0-.015.063-.093l.97-1.094L3.921-.469h-.39V0l1.202-.031Zm0 0"/></symbol><symbol overflow="visible" id="e"><path style="stroke:none" d="M2.922 0v-.469h-.688v-6.453L.47-6.844v.469c.625 0 .687 0 .687.39v5.516H.47V0l1.219-.031Zm0 0"/></symbol><symbol overflow="visible" id="f"><path style="stroke:none" d="M5.406-2.172c0-1.344-.922-2.344-2.547-2.344C1.22-4.516.313-3.5.313-2.172c0 1.235.89 2.235 2.546 2.235 1.672 0 2.547-1.016 2.547-2.235Zm-1.281-.11c0 .86 0 1.938-1.266 1.938-1.265 0-1.265-1.078-1.265-1.937 0-.453 0-.953.172-1.297.187-.375.609-.578 1.093-.578.422 0 .844.156 1.063.5.203.344.203.89.203 1.375Zm0 0"/></symbol><symbol overflow="visible" id="g"><path style="stroke:none" d="M8.031-3.953v-.469a12.55 12.55 0 0 1-.781.031l-.953-.03v.468c.094 0 .578 0 .578.11 0 .03-.031.093-.031.124L5.797-1.172l-1.14-2.781h.562v-.469l-1.14.031c-.423 0-.845-.03-1-.03v.468h.593c.203.5.203.531.203.531 0 .031-.031.094-.031.125L3.047-1.39 2-3.953h.563v-.469l-1.235.031L.25-4.42v.468h.594L2.359-.234c.079.172.11.28.36.28s.297-.108.36-.28L4.14-2.813 5.187-.233c.079.172.11.28.36.28s.297-.108.36-.28L7.343-3.75c.047-.125.093-.203.687-.203Zm0 0"/></symbol><symbol overflow="visible" id="h"><path style="stroke:none" d="M4.406-3.672c0-.531-.531-.812-1.062-.812-.688 0-1.094.5-1.313 1.125v-1.125l-1.656.078v.468c.61 0 .688 0 .688.391v3.078H.375V0l1.25-.031C2-.031 2.641-.031 3 0v-.469h-.86v-1.75c0-.687.235-1.906 1.235-1.906 0 0-.188.172-.188.453 0 .406.329.61.61.61.297 0 .61-.204.61-.61Zm0 0"/></symbol><symbol overflow="visible" id="i"><path style="stroke:none" d="M3.078.313c0-.126-.047-.157-.187-.25C2.062-.5 1.75-1.391 1.75-2.126c0-.672.25-1.594 1.156-2.203.125-.094.172-.125.172-.25a.254.254 0 0 0-.265-.25c-.204 0-1.641.906-1.641 2.703 0 .813.312 1.438.562 1.781.375.516.907.906 1.079.906.218 0 .265-.171.265-.25Zm0 0"/></symbol><symbol overflow="visible" id="j"><path style="stroke:none" d="M3.219-.906c0-.735-.906-.906-1.14-.938l-.704-.125C1.187-2 1-2.079 1-2.25c0-.156.219-.328.813-.328.515 0 .609.172.625.328.015.14.03.281.28.281.298 0 .298-.156.298-.328v-.469c0-.14-.016-.328-.25-.328-.157 0-.22.063-.25.125-.282-.125-.563-.125-.688-.125-1.187 0-1.344.594-1.344.844 0 .656.735.797 1.391.89.297.063.828.141.828.454 0 .234-.25.422-.828.422-.297 0-.656-.063-.813-.563-.03-.156-.078-.234-.28-.234-.298 0-.298.172-.298.328v.656c0 .14 0 .344.25.344.079 0 .188 0 .282-.234.328.218.671.234.859.234 1.125 0 1.344-.61 1.344-.953Zm0 0"/></symbol><symbol overflow="visible" id="k"><path style="stroke:none" d="M2.313-.469a.477.477 0 0 0-.485-.484.47.47 0 0 0-.469.469c0 .28.22.484.47.484a.473.473 0 0 0 .484-.469Zm0 0"/></symbol><symbol overflow="visible" id="l"><path style="stroke:none" d="M3.578-.266c0-.25-.203-.25-.328-.25H3v-1.53c0-.72-.36-1.032-.938-1.032-.39 0-.671.172-.843.297 0-.172-.047-.25-.313-.25h-.5c-.14 0-.328 0-.328.25 0 .265.203.265.313.265h.25v2H.406c-.14 0-.328 0-.328.25C.078 0 .281 0 .391 0h1.093c.11 0 .329 0 .329-.266 0-.25-.204-.25-.344-.25h-.25v-1.156c0-.64.484-.875.797-.875.328 0 .406.172.406.547v1.484h-.203c-.14 0-.344 0-.344.25 0 .266.219.266.344.266H3.25c.11 0 .328 0 .328-.266Zm0 0"/></symbol><symbol overflow="visible" id="m"><path style="stroke:none" d="M3.281-1.516c0-.89-.672-1.578-1.453-1.578-.797 0-1.453.688-1.453 1.578 0 .891.672 1.563 1.453 1.563.766 0 1.453-.688 1.453-1.563Zm-.578-.046c0 .593-.406 1.078-.875 1.078S.953-.97.953-1.563c0-.593.422-1.015.875-1.015s.875.422.875 1.015Zm0 0"/></symbol><symbol overflow="visible" id="n"><path style="stroke:none" d="M3.406-2.594c0-.156-.078-.484-.703-.484-.328 0-.734.11-1.094.469v-.094c0-.25-.046-.328-.328-.328h-.75c-.125 0-.328 0-.328.25 0 .265.203.265.328.265h.5v2h-.5c-.125 0-.328 0-.328.25C.203 0 .406 0 .531 0h1.781c.126 0 .329 0 .329-.266 0-.25-.204-.25-.329-.25H1.61v-.796c0-.61.36-1.22 1.11-1.235 0 .156.172.281.344.281.187 0 .343-.125.343-.328Zm0 0"/></symbol><symbol overflow="visible" id="o"><path style="stroke:none" d="M3.14-.906c0-.156 0-.313-.296-.313-.266 0-.266.157-.266.297-.015.375-.36.438-.515.438-.454 0-.454-.313-.454-.47v-1.562h1.047c.125 0 .328 0 .328-.265 0-.25-.187-.25-.328-.25H1.61v-.516c0-.14-.015-.328-.296-.328-.282 0-.282.172-.282.328v.516H.484c-.125 0-.328 0-.328.25 0 .265.203.265.328.265h.547v1.61c0 .687.485.953 1.016.953S3.14-.266 3.14-.906Zm0 0"/></symbol><symbol overflow="visible" id="p"><path style="stroke:none" d="M3.578-.266c0-.25-.203-.25-.328-.25H3v-1.53c0-.72-.36-1.032-.938-1.032-.39 0-.671.172-.843.297v-1.14c0-.25-.047-.345-.313-.345h-.5c-.14 0-.328.016-.328.266s.203.266.313.266h.25v3.218H.406c-.14 0-.328 0-.328.25C.078 0 .281 0 .391 0h1.093c.11 0 .329 0 .329-.266 0-.25-.204-.25-.344-.25h-.25v-1.156c0-.64.484-.875.797-.875.328 0 .406.172.406.547v1.484h-.203c-.14 0-.344 0-.344.25 0 .266.219.266.344.266H3.25c.11 0 .328 0 .328-.266Zm0 0"/></symbol><symbol overflow="visible" id="q"><path style="stroke:none" d="M3.547-2.781c0-.25-.188-.25-.328-.25h-.781c-.157 0-.344 0-.344.25 0 .265.172.265.344.265h.265l-.297 1.72-.14-.532c-.125-.469-.172-.547-.422-.547-.094 0-.235 0-.328.188l-.266.906-.297-1.735h.266c.156 0 .343 0 .343-.265 0-.25-.187-.25-.343-.25H.437c-.14 0-.343 0-.343.25 0 .234.14.265.36.265L.858-.28c.032.187.047.312.36.312.312 0 .343-.062.453-.515l.172-.641.265 1c.094.14.235.156.344.156.281 0 .313-.125.344-.312l.406-2.235c.219 0 .344-.03.344-.265Zm0 0"/></symbol><symbol overflow="visible" id="r"><path style="stroke:none" d="M3.25-.797c0-.234-.234-.234-.281-.234-.156 0-.219.015-.281.172-.141.328-.485.375-.657.375-.469 0-.937-.297-1.062-.813h1.953c.172 0 .328 0 .328-.312 0-.797-.453-1.485-1.375-1.485-.828 0-1.516.703-1.516 1.563S1.08.047 1.984.047c.938 0 1.266-.656 1.266-.844Zm-.594-1.015H.97c.125-.438.484-.766.906-.766.328 0 .703.156.781.765Zm0 0"/></symbol><symbol overflow="visible" id="s"><path style="stroke:none" d="M2.484-2.125c0-.828-.312-1.453-.562-1.797-.375-.515-.906-.906-1.078-.906-.203 0-.266.187-.266.25 0 .125.094.187.14.219 1.095.718 1.188 1.796 1.188 2.234 0 .656-.25 1.578-1.14 2.188C.64.14.578.186.578.313c0 .078.063.25.266.25s1.64-.907 1.64-2.688Zm0 0"/></symbol><symbol overflow="visible" id="t"><path style="stroke:none" d="M3.625-.266c0-.25-.203-.25-.328-.25-.203 0-.297-.03-.344-.046V-2c0-.5-.375-1.094-1.406-1.094-.313 0-1.031.016-1.031.547 0 .235.171.36.359.36.11 0 .344-.063.344-.36 0 0 .234-.031.343-.031.454 0 .782.187.813.594-1.219.03-2.047.39-2.047 1.062 0 .485.453.969 1.188.969.234 0 .656-.047.968-.25.172.187.485.203.75.203.235 0 .391-.016.391-.266ZM2.359-.969c0 .14 0 .266-.234.375-.234.11-.516.11-.578.11-.39 0-.64-.204-.64-.438 0-.312.546-.515 1.452-.562Zm0 0"/></symbol><symbol overflow="visible" id="u"><path style="stroke:none" d="M3.266-.797c0-.234-.235-.234-.297-.234-.125 0-.203 0-.266.172-.047.078-.187.375-.625.375a1.027 1.027 0 0 1-1.015-1.032c0-.312.187-1.062 1.062-1.062l.344.015c.015.282.172.376.36.376.187 0 .358-.126.358-.36 0-.531-.734-.547-1.062-.547-1.219 0-1.64.953-1.64 1.578 0 .844.671 1.563 1.546 1.563 1 0 1.235-.719 1.235-.844Zm0 0"/></symbol><symbol overflow="visible" id="v"><path style="stroke:none" d="M3.64-.266c0-.218-.14-.25-.39-.25v-1.593c0-.157-.016-.97-.656-.97a.842.842 0 0 0-.656.313.61.61 0 0 0-.532-.312.875.875 0 0 0-.547.203c-.046-.156-.187-.156-.312-.156H.328c-.125 0-.328 0-.328.25 0 .234.125.265.39.265v2c-.265 0-.39.032-.39.25C0 0 .219 0 .328 0h.594c.125 0 .312 0 .312-.266 0-.218-.109-.25-.359-.25v-1.171c0-.563.234-.86.5-.86.14 0 .203.11.203.5v1.531c-.156 0-.281.032-.281.25 0 .266.187.266.312.266h.516c.125 0 .313 0 .313-.266 0-.218-.126-.25-.376-.25v-1.171c0-.563.25-.86.5-.86.141 0 .204.11.204.5v1.531c-.141 0-.282.032-.282.25 0 .266.204.266.313.266h.5c.125 0 .344 0 .344-.266Zm0 0"/></symbol><symbol overflow="visible" id="w"><path style="stroke:none" d="M3.188-.266c0-.25-.204-.25-.329-.25h-.656v-2.187c0-.25-.047-.328-.328-.328H.906c-.125 0-.328 0-.328.25 0 .265.203.265.328.265h.719v2H.859c-.14 0-.343 0-.343.25C.516 0 .734 0 .859 0h2c.125 0 .329 0 .329-.266Zm-.954-3.562a.39.39 0 0 0-.406-.39.387.387 0 0 0-.39.39c0 .219.171.39.39.39a.39.39 0 0 0 .406-.39Zm0 0"/></symbol><symbol overflow="visible" id="x"><path style="stroke:none" d="M3.578-.266c0-.25-.203-.25-.328-.25H3v-3.406c0-.25-.047-.344-.328-.344h-.485c-.14 0-.343.016-.343.266s.218.266.328.266h.25v.906a1.261 1.261 0 0 0-.735-.25c-.765 0-1.453.672-1.453 1.562C.234-.64.875.047 1.625.047c.344 0 .61-.14.797-.313.015.188.062.266.328.266h.5c.125 0 .328 0 .328-.266ZM2.422-1.375c0 .36-.297.89-.781.89-.454 0-.829-.453-.829-1.03 0-.61.438-1.032.891-1.032.406 0 .719.344.719.688Zm0 0"/></symbol><symbol overflow="visible" id="y"><path style="stroke:none" d="M3.422-1.516c0-.875-.64-1.562-1.39-1.562-.298 0-.579.11-.813.265v-1.109c0-.25-.047-.344-.313-.344h-.5c-.14 0-.344.016-.344.266s.22.266.329.266h.25v3.406C.64-.172.656 0 .937 0c.22 0 .282-.094.282-.234.265.218.531.28.734.28.766 0 1.469-.671 1.469-1.562Zm-.578 0c0 .61-.453 1.032-.906 1.032-.485 0-.704-.563-.704-.875v-.485c0-.375.375-.703.766-.703.469 0 .844.469.844 1.031Zm0 0"/></symbol><symbol overflow="visible" id="z"><path style="stroke:none" d="M3.578-.266c0-.25-.219-.25-.328-.25H3v-2.187c0-.25-.047-.328-.328-.328h-.485c-.14 0-.343 0-.343.25 0 .265.218.265.328.265h.25v1.391c0 .563-.516.64-.719.64-.469 0-.484-.187-.484-.39v-1.828c0-.25-.047-.328-.313-.328h-.5c-.14 0-.328 0-.328.25 0 .265.203.265.313.265h.25v1.688c0 .687.5.875 1.03.875.266 0 .516-.063.766-.219C2.485 0 2.626 0 2.75 0h.5c.125 0 .328 0 .328-.266Zm0 0"/></symbol><symbol overflow="visible" id="A"><path style="stroke:none" d="M3.469-.266c0-.25-.203-.25-.328-.25h-.25l-.829-1.046.735-.954h.234c.125 0 .344 0 .344-.265 0-.25-.219-.25-.344-.25H2.25c-.125 0-.328 0-.328.25 0 .203.11.265.281.265l-.39.547-.422-.547c.156 0 .28-.062.28-.265 0-.25-.202-.25-.327-.25H.547c-.125 0-.328 0-.328.25 0 .265.218.265.328.265h.25l.75.954L.75-.516H.516c-.125 0-.344 0-.344.25C.172 0 .39 0 .516 0h.78c.126 0 .329 0 .329-.266 0-.203-.11-.25-.297-.25l.484-.703.5.703c-.187 0-.296.047-.296.25 0 .266.203.266.328.266h.797c.109 0 .328 0 .328-.266Zm0 0"/></symbol><symbol overflow="visible" id="B"><path style="stroke:none" d="M3.281-.266c0-.25-.203-.25-.328-.25h-.828v-3.406c0-.25-.063-.344-.328-.344H.719C.579-4.266.39-4.25.39-4s.203.266.312.266h.844v3.218H.719c-.14 0-.328 0-.328.25C.39 0 .594 0 .703 0h2.25c.125 0 .328 0 .328-.266Zm0 0"/></symbol><symbol overflow="visible" id="C"><path style="stroke:none" d="M3.094-.266c0-.25-.188-.25-.313-.25H2.22V-4c0-.125-.016-.328-.266-.328-.156 0-.219.094-.25.187-.234.547-.578.625-.687.641-.141 0-.313.031-.313.266 0 .203.156.25.281.25.125 0 .375-.032.657-.235v2.703h-.563c-.14 0-.328 0-.328.25C.75 0 .953 0 1.078 0h1.703c.125 0 .313 0 .313-.266Zm0 0"/></symbol><symbol overflow="visible" id="D"><path style="stroke:none" d="M3.36-1.234c0-.47-.297-.875-.72-1.094.344-.25.516-.64.516-1 0-.516-.515-1-1.328-1-.86 0-1.344.36-1.344.844 0 .265.204.375.36.375.172 0 .36-.141.36-.36 0-.078-.032-.14-.048-.172.203-.171.625-.171.688-.171.422 0 .734.218.734.5a.718.718 0 0 1-.25.546c-.219.172-.375.188-.61.188-.437 0-.546.062-.546.281 0 .266.203.266.328.266h.313c.64 0 .968.422.968.797 0 .39-.36.78-.937.78-.25 0-.719-.062-.907-.327A.364.364 0 0 0 1-1a.363.363 0 0 0-.36-.36c-.171 0-.343.126-.343.391C.297-.344.969.078 1.844.078c.922 0 1.515-.656 1.515-1.312Zm0 0"/></symbol><symbol overflow="visible" id="E"><path style="stroke:none" d="M3.313-2.125c0-1.297-.72-2.203-1.485-2.203-.781 0-1.5.922-1.5 2.203 0 1.297.734 2.203 1.5 2.203.781 0 1.484-.922 1.484-2.203Zm-.563-.078c0 .969-.422 1.75-.922 1.75-.516 0-.922-.781-.922-1.75 0-.953.438-1.61.922-1.61.469 0 .922.657.922 1.61Zm0 0"/></symbol><clipPath id="a"><path d="M0 0h303.91v221.738H0Zm0 0"/></clipPath></defs><path style="stroke:none;fill-rule:nonzero;fill:#fffbb3;fill-opacity:1" d="M245.887 110.645c0-51.973-42.133-94.106-94.106-94.106-51.972 0-94.105 42.133-94.105 94.106 0 51.976 42.133 94.105 94.105 94.105 51.973 0 94.106-42.129 94.106-94.105Zm0 0"/><g clip-path="url(#a)"><path style="fill:none;stroke-width:14.17339;stroke-linecap:butt;stroke-linejoin:miter;stroke:#b2b2b2;stroke-opacity:1;stroke-miterlimit:10" d="M94.105.001c0 51.973-42.133 94.106-94.106 94.106-51.972 0-94.105-42.133-94.105-94.106 0-51.976 42.133-94.105 94.105-94.105 51.973 0 94.106 42.129 94.106 94.105ZM-38.028-38.026l76.055 76.05" transform="matrix(1 0 0 -1 151.782 110.646)"/></g><g style="fill:#b2b2b2;fill-opacity:1"><use xlink:href="#b" x="105.129" y="84.492"/><use xlink:href="#c" x="109.582" y="84.492"/><use xlink:href="#d" x="114.833" y="84.492"/><use xlink:href="#b" x="120.88" y="84.492"/></g><g style="fill:#b2b2b2;fill-opacity:1"><use xlink:href="#e" x="175.366" y="146.516"/><use xlink:href="#f" x="178.544" y="146.516"/></g><use xlink:href="#g" x="183.954" y="146.516" style="fill:#b2b2b2;fill-opacity:1"/><g style="fill:#b2b2b2;fill-opacity:1"><use xlink:href="#c" x="191.914" y="146.516"/><use xlink:href="#h" x="197.164" y="146.516"/></g><path style="fill:none;stroke-width:.3985;stroke-linecap:butt;stroke-linejoin:miter;stroke:#000;stroke-opacity:1;stroke-miterlimit:10" d="m-72.962 70.146 2.817 2.816m-2.817 0 2.817-2.816" transform="matrix(1 0 0 -1 151.782 110.646)"/><g style="fill:#000;fill-opacity:1"><use xlink:href="#i" x="25.452" y="35.015"/><use xlink:href="#j" x="29.113" y="35.015"/><use xlink:href="#k" x="32.775" y="35.015"/><use xlink:href="#l" x="36.436" y="35.015"/><use xlink:href="#m" x="40.097" y="35.015"/><use xlink:href="#n" x="43.758" y="35.015"/><use xlink:href="#o" x="47.42" y="35.015"/><use xlink:href="#p" x="51.081" y="35.015"/></g><g style="fill:#000;fill-opacity:1"><use xlink:href="#q" x="58.403" y="35.015"/><use xlink:href="#r" x="62.065" y="35.015"/><use xlink:href="#j" x="65.726" y="35.015"/><use xlink:href="#o" x="69.387" y="35.015"/><use xlink:href="#s" x="73.049" y="35.015"/></g><path style="fill:none;stroke-width:.3985;stroke-linecap:butt;stroke-linejoin:miter;stroke:#000;stroke-opacity:1;stroke-miterlimit:10" d="m-1.407 99.783 2.816 2.816m-2.816 0 2.816-2.816" transform="matrix(1 0 0 -1 151.782 110.646)"/><g style="fill:#000;fill-opacity:1"><use xlink:href="#i" x="135.307" y="5.377"/><use xlink:href="#j" x="138.968" y="5.377"/><use xlink:href="#k" x="142.63" y="5.377"/><use xlink:href="#l" x="146.291" y="5.377"/><use xlink:href="#m" x="149.952" y="5.377"/><use xlink:href="#n" x="153.613" y="5.377"/><use xlink:href="#o" x="157.275" y="5.377"/><use xlink:href="#p" x="160.936" y="5.377"/><use xlink:href="#s" x="164.597" y="5.377"/></g><path style="fill:none;stroke-width:.3985;stroke-linecap:butt;stroke-linejoin:miter;stroke:#000;stroke-opacity:1;stroke-miterlimit:10" d="m70.144 70.146 2.82 2.816m-2.82 0 2.82-2.816" transform="matrix(1 0 0 -1 151.782 110.646)"/><g style="fill:#000;fill-opacity:1"><use xlink:href="#i" x="226.855" y="35.015"/><use xlink:href="#j" x="230.516" y="35.015"/><use xlink:href="#k" x="234.178" y="35.015"/><use xlink:href="#l" x="237.839" y="35.015"/><use xlink:href="#m" x="241.5" y="35.015"/><use xlink:href="#n" x="245.161" y="35.015"/><use xlink:href="#o" x="248.823" y="35.015"/><use xlink:href="#p" x="252.484" y="35.015"/></g><g style="fill:#000;fill-opacity:1"><use xlink:href="#r" x="259.799" y="35.015"/><use xlink:href="#t" x="263.461" y="35.015"/><use xlink:href="#j" x="267.122" y="35.015"/><use xlink:href="#o" x="270.783" y="35.015"/><use xlink:href="#s" x="274.445" y="35.015"/></g><path style="fill:none;stroke-width:.3985;stroke-linecap:butt;stroke-linejoin:miter;stroke:#000;stroke-opacity:1;stroke-miterlimit:10" d="m-102.602-1.409 2.82 2.817m-2.82 0 2.82-2.817" transform="matrix(1 0 0 -1 151.782 110.646)"/><g style="fill:#000;fill-opacity:1"><use xlink:href="#i" x="17.782" y="112.78"/><use xlink:href="#j" x="21.443" y="112.78"/><use xlink:href="#k" x="25.105" y="112.78"/><use xlink:href="#q" x="28.766" y="112.78"/><use xlink:href="#r" x="32.427" y="112.78"/><use xlink:href="#j" x="36.088" y="112.78"/><use xlink:href="#o" x="39.75" y="112.78"/><use xlink:href="#s" x="43.411" y="112.78"/></g><path style="fill:none;stroke-width:.3985;stroke-linecap:butt;stroke-linejoin:miter;stroke:#000;stroke-opacity:1;stroke-miterlimit:10" d="m-1.407-1.409 2.816 2.817m-2.816 0L1.409-1.41" transform="matrix(1 0 0 -1 151.782 110.646)"/><g style="fill:#000;fill-opacity:1"><use xlink:href="#i" x="133.476" y="118.991"/><use xlink:href="#j" x="137.137" y="118.991"/><use xlink:href="#k" x="140.799" y="118.991"/><use xlink:href="#u" x="144.46" y="118.991"/><use xlink:href="#r" x="148.121" y="118.991"/><use xlink:href="#l" x="151.782" y="118.991"/><use xlink:href="#o" x="155.444" y="118.991"/><use xlink:href="#r" x="159.105" y="118.991"/><use xlink:href="#n" x="162.766" y="118.991"/><use xlink:href="#s" x="166.427" y="118.991"/></g><path style="fill:none;stroke-width:.3985;stroke-linecap:butt;stroke-linejoin:miter;stroke:#000;stroke-opacity:1;stroke-miterlimit:10" d="m99.784-1.409 2.817 2.817m-2.817 0 2.817-2.817" transform="matrix(1 0 0 -1 151.782 110.646)"/><g style="fill:#000;fill-opacity:1"><use xlink:href="#i" x="256.493" y="112.78"/><use xlink:href="#j" x="260.154" y="112.78"/><use xlink:href="#k" x="263.816" y="112.78"/><use xlink:href="#r" x="267.477" y="112.78"/><use xlink:href="#t" x="271.138" y="112.78"/><use xlink:href="#j" x="274.799" y="112.78"/><use xlink:href="#o" x="278.461" y="112.78"/><use xlink:href="#s" x="282.122" y="112.78"/></g><path style="fill:none;stroke-width:.3985;stroke-linecap:butt;stroke-linejoin:miter;stroke:#000;stroke-opacity:1;stroke-miterlimit:10" d="m-102.602 26.959 2.82 2.816m-2.82 0 2.82-2.816" transform="matrix(1 0 0 -1 151.782 110.646)"/><g style="fill:#000;fill-opacity:1"><use xlink:href="#i" x="54.112" y="84.414"/><use xlink:href="#j" x="57.773" y="84.414"/><use xlink:href="#k" x="61.435" y="84.414"/><use xlink:href="#v" x="65.096" y="84.414"/><use xlink:href="#w" x="68.757" y="84.414"/><use xlink:href="#x" x="72.418" y="84.414"/></g><g style="fill:#000;fill-opacity:1"><use xlink:href="#q" x="79.734" y="84.414"/><use xlink:href="#r" x="83.395" y="84.414"/><use xlink:href="#j" x="87.056" y="84.414"/><use xlink:href="#o" x="90.718" y="84.414"/><use xlink:href="#s" x="94.379" y="84.414"/></g><path style="fill:none;stroke-width:.3985;stroke-linecap:butt;stroke-linejoin:miter;stroke:#000;stroke-opacity:1;stroke-miterlimit:10" d="m-1.407 26.959 2.816 2.816m-2.816 0 2.816-2.816" transform="matrix(1 0 0 -1 151.782 110.646)"/><g style="fill:#000;fill-opacity:1"><use xlink:href="#i" x="138.968" y="78.202"/><use xlink:href="#j" x="142.629" y="78.202"/><use xlink:href="#k" x="146.291" y="78.202"/><use xlink:href="#v" x="149.952" y="78.202"/><use xlink:href="#w" x="153.613" y="78.202"/><use xlink:href="#x" x="157.274" y="78.202"/><use xlink:href="#s" x="160.936" y="78.202"/></g><path style="fill:none;stroke-width:.3985;stroke-linecap:butt;stroke-linejoin:miter;stroke:#000;stroke-opacity:1;stroke-miterlimit:10" d="m99.784 26.959 2.817 2.816m-2.817 0 2.817-2.816" transform="matrix(1 0 0 -1 151.782 110.646)"/><g style="fill:#000;fill-opacity:1"><use xlink:href="#i" x="205.518" y="84.414"/><use xlink:href="#j" x="209.179" y="84.414"/><use xlink:href="#k" x="212.841" y="84.414"/><use xlink:href="#v" x="216.502" y="84.414"/><use xlink:href="#w" x="220.163" y="84.414"/><use xlink:href="#x" x="223.824" y="84.414"/></g><g style="fill:#000;fill-opacity:1"><use xlink:href="#r" x="231.147" y="84.414"/><use xlink:href="#t" x="234.808" y="84.414"/><use xlink:href="#j" x="238.469" y="84.414"/><use xlink:href="#o" x="242.131" y="84.414"/><use xlink:href="#s" x="245.792" y="84.414"/></g><path style="fill:none;stroke-width:.3985;stroke-linecap:butt;stroke-linejoin:miter;stroke:#000;stroke-opacity:1;stroke-miterlimit:10" d="m-102.602 24.744 2.82 2.82m-2.82 0 2.82-2.82" transform="matrix(1 0 0 -1 151.782 110.646)"/><g style="fill:#000;fill-opacity:1"><use xlink:href="#i" x="-.524" y="86.626"/><use xlink:href="#j" x="3.137" y="86.626"/><use xlink:href="#k" x="6.799" y="86.626"/><use xlink:href="#y" x="10.46" y="86.626"/><use xlink:href="#t" x="14.121" y="86.626"/><use xlink:href="#j" x="17.782" y="86.626"/><use xlink:href="#r" x="21.444" y="86.626"/></g><g style="fill:#000;fill-opacity:1"><use xlink:href="#q" x="28.759" y="86.626"/><use xlink:href="#r" x="32.42" y="86.626"/><use xlink:href="#j" x="36.082" y="86.626"/><use xlink:href="#o" x="39.743" y="86.626"/><use xlink:href="#s" x="43.404" y="86.626"/></g><path style="fill:none;stroke-width:.3985;stroke-linecap:butt;stroke-linejoin:miter;stroke:#000;stroke-opacity:1;stroke-miterlimit:10" d="m-1.407 24.744 2.816 2.82m-2.816 0 2.816-2.82" transform="matrix(1 0 0 -1 151.782 110.646)"/><g style="fill:#000;fill-opacity:1"><use xlink:href="#i" x="137.137" y="92.837"/><use xlink:href="#j" x="140.798" y="92.837"/><use xlink:href="#k" x="144.46" y="92.837"/><use xlink:href="#y" x="148.121" y="92.837"/><use xlink:href="#t" x="151.782" y="92.837"/><use xlink:href="#j" x="155.443" y="92.837"/><use xlink:href="#r" x="159.105" y="92.837"/><use xlink:href="#s" x="162.766" y="92.837"/></g><path style="fill:none;stroke-width:.3985;stroke-linecap:butt;stroke-linejoin:miter;stroke:#000;stroke-opacity:1;stroke-miterlimit:10" d="m99.784 24.744 2.817 2.82m-2.817 0 2.817-2.82" transform="matrix(1 0 0 -1 151.782 110.646)"/><g style="fill:#000;fill-opacity:1"><use xlink:href="#i" x="256.493" y="86.626"/><use xlink:href="#j" x="260.154" y="86.626"/><use xlink:href="#k" x="263.816" y="86.626"/><use xlink:href="#y" x="267.477" y="86.626"/><use xlink:href="#t" x="271.138" y="86.626"/><use xlink:href="#j" x="274.799" y="86.626"/><use xlink:href="#r" x="278.461" y="86.626"/></g><g style="fill:#000;fill-opacity:1"><use xlink:href="#r" x="285.776" y="86.626"/><use xlink:href="#t" x="289.437" y="86.626"/><use xlink:href="#j" x="293.099" y="86.626"/><use xlink:href="#o" x="296.76" y="86.626"/><use xlink:href="#s" x="300.421" y="86.626"/></g><path style="fill:none;stroke-width:.3985;stroke-linecap:butt;stroke-linejoin:miter;stroke:#000;stroke-opacity:1;stroke-miterlimit:10" d="m-72.962-72.963 2.817 2.82m-2.817 0 2.817-2.82" transform="matrix(1 0 0 -1 151.782 110.646)"/><g style="fill:#000;fill-opacity:1"><use xlink:href="#i" x="25.452" y="190.544"/><use xlink:href="#j" x="29.113" y="190.544"/><use xlink:href="#k" x="32.775" y="190.544"/><use xlink:href="#j" x="36.436" y="190.544"/><use xlink:href="#m" x="40.097" y="190.544"/><use xlink:href="#z" x="43.758" y="190.544"/><use xlink:href="#o" x="47.42" y="190.544"/><use xlink:href="#p" x="51.081" y="190.544"/></g><g style="fill:#000;fill-opacity:1"><use xlink:href="#q" x="58.403" y="190.544"/><use xlink:href="#r" x="62.065" y="190.544"/><use xlink:href="#j" x="65.726" y="190.544"/><use xlink:href="#o" x="69.387" y="190.544"/><use xlink:href="#s" x="73.049" y="190.544"/></g><path style="fill:none;stroke-width:.3985;stroke-linecap:butt;stroke-linejoin:miter;stroke:#000;stroke-opacity:1;stroke-miterlimit:10" d="m-1.407-102.6 2.816 2.816m-2.816 0 2.816-2.816" transform="matrix(1 0 0 -1 151.782 110.646)"/><g style="fill:#000;fill-opacity:1"><use xlink:href="#i" x="135.307" y="220.182"/><use xlink:href="#j" x="138.968" y="220.182"/><use xlink:href="#k" x="142.63" y="220.182"/><use xlink:href="#j" x="146.291" y="220.182"/><use xlink:href="#m" x="149.952" y="220.182"/><use xlink:href="#z" x="153.613" y="220.182"/><use xlink:href="#o" x="157.275" y="220.182"/><use xlink:href="#p" x="160.936" y="220.182"/><use xlink:href="#s" x="164.597" y="220.182"/></g><path style="fill:none;stroke-width:.3985;stroke-linecap:butt;stroke-linejoin:miter;stroke:#000;stroke-opacity:1;stroke-miterlimit:10" d="m70.144-72.963 2.82 2.82m-2.82 0 2.82-2.82" transform="matrix(1 0 0 -1 151.782 110.646)"/><g style="fill:#000;fill-opacity:1"><use xlink:href="#i" x="226.855" y="190.544"/><use xlink:href="#j" x="230.516" y="190.544"/><use xlink:href="#k" x="234.178" y="190.544"/><use xlink:href="#j" x="237.839" y="190.544"/><use xlink:href="#m" x="241.5" y="190.544"/><use xlink:href="#z" x="245.161" y="190.544"/><use xlink:href="#o" x="248.823" y="190.544"/><use xlink:href="#p" x="252.484" y="190.544"/></g><g style="fill:#000;fill-opacity:1"><use xlink:href="#r" x="259.799" y="190.544"/><use xlink:href="#t" x="263.461" y="190.544"/><use xlink:href="#j" x="267.122" y="190.544"/><use xlink:href="#o" x="270.783" y="190.544"/><use xlink:href="#s" x="274.445" y="190.544"/></g><path style="fill:none;stroke-width:.3985;stroke-linecap:butt;stroke-linejoin:miter;stroke:#000;stroke-opacity:1;stroke-miterlimit:10" d="m-48.063 24.744 2.816 2.82m-2.816 0 2.816-2.82" transform="matrix(1 0 0 -1 151.782 110.646)"/><g style="fill:#000;fill-opacity:1"><use xlink:href="#i" x="72.319" y="86.626"/><use xlink:href="#j" x="75.98" y="86.626"/><use xlink:href="#k" x="79.642" y="86.626"/><use xlink:href="#o" x="83.303" y="86.626"/><use xlink:href="#r" x="86.964" y="86.626"/><use xlink:href="#A" x="90.625" y="86.626"/><use xlink:href="#o" x="94.287" y="86.626"/><use xlink:href="#s" x="97.948" y="86.626"/></g><path style="fill:none;stroke-width:.3985;stroke-linecap:butt;stroke-linejoin:miter;stroke:#000;stroke-opacity:1;stroke-miterlimit:10" d="m22.175-37.28 2.816 2.817m-2.816 0 2.816-2.817" transform="matrix(1 0 0 -1 151.782 110.646)"/><g style="fill:#000;fill-opacity:1"><use xlink:href="#i" x="138.894" y="148.65"/><use xlink:href="#j" x="142.555" y="148.65"/><use xlink:href="#k" x="146.217" y="148.65"/><use xlink:href="#B" x="149.878" y="148.65"/><use xlink:href="#m" x="153.539" y="148.65"/><use xlink:href="#q" x="157.2" y="148.65"/><use xlink:href="#r" x="160.862" y="148.65"/><use xlink:href="#n" x="164.523" y="148.65"/><use xlink:href="#s" x="168.184" y="148.65"/></g><path style="fill:none;stroke-width:.3985;stroke-linecap:butt;stroke-linejoin:miter;stroke:#000;stroke-opacity:1;stroke-miterlimit:10" d="m-66.454 76.103 2.817 2.82m-2.817 0 2.817-2.82" transform="matrix(1 0 0 -1 151.782 110.646)"/><g style="fill:#000;fill-opacity:1"><use xlink:href="#i" x="73.923" y="29.055"/><use xlink:href="#j" x="77.584" y="29.055"/><use xlink:href="#k" x="81.246" y="29.055"/><use xlink:href="#C" x="84.907" y="29.055"/><use xlink:href="#D" x="88.568" y="29.055"/><use xlink:href="#E" x="92.229" y="29.055"/><use xlink:href="#s" x="95.891" y="29.055"/></g></svg>