<svg xmlns="http://www.w3.org/2000/svg" width="119.403" height="80.187" viewBox="0 0 89.552 60.14" version="1.2"><defs><clipPath id="a"><path d="M0 0h89.328v59.71H0Zm0 0"/></clipPath></defs><path style="fill:none;stroke-width:.19925;stroke-linecap:butt;stroke-linejoin:miter;stroke:gray;stroke-opacity:1;stroke-miterlimit:10" d="M0 0h85.04M0 28.349h85.04M0 56.684h85.04M0 .001v56.69M28.348.002v56.69M56.695.002v56.69M85.031.002v56.69" transform="matrix(1 0 0 -1 1.332 57.481)"/><path style="stroke:none;fill-rule:nonzero;fill:#d2c92a;fill-opacity:1" d="M1.332 57.48a2.481 2.481 0 0 1 1.574-3.148c1.313-.437 2.758.39 3.153 1.574a2.482 2.482 0 0 1 1.574-3.152c1.312-.434 2.758.394 3.148 1.578a2.487 2.487 0 0 1 1.578-3.152c1.309-.438 2.754.394 3.149 1.574a2.483 2.483 0 0 1 1.574-3.149c1.313-.437 2.758.395 3.152 1.575a2.478 2.478 0 0 1 1.575-3.149c1.312-.437 2.757.395 3.152 1.574a2.482 2.482 0 0 1 1.574-3.152c1.313-.433 2.758.395 3.149 1.578a2.487 2.487 0 0 1 1.578-3.152c1.308-.438 2.754.394 3.148 1.574a2.483 2.483 0 0 1 1.574-3.148c1.313-.438 2.758.394 3.153 1.574a2.48 2.48 0 0 1 1.574-3.149c1.312-.437 2.758.395 3.152 1.575a2.476 2.476 0 0 1 1.575-3.149c1.312-.437 2.757.39 3.148 1.574a2.484 2.484 0 0 1 1.578-3.152c1.309-.437 2.754.395 3.148 1.578a2.485 2.485 0 0 1 1.575-3.152c1.312-.438 2.758.394 3.152 1.574a2.48 2.48 0 0 1 1.574-3.148c1.313-.438 2.758.394 3.153 1.574a2.476 2.476 0 0 1 1.574-3.149c1.312-.437 2.754.391 3.148 1.575a2.484 2.484 0 0 1 1.578-3.153c1.309-.437 2.754.395 3.149 1.578a2.485 2.485 0 0 1 1.574-3.152c1.313-.437 2.758.395 3.152 1.574a2.48 2.48 0 0 1 1.575-3.148c1.312-.438 2.757.394 3.152 1.574a2.476 2.476 0 0 1 1.574-3.148c1.309-.438 2.754.39 3.149 1.574-1.403-.04-2.512-1.145-2.516-2.527-.004-1.383 1.238-2.493 2.484-2.497-1.976.41-3.332-.378-3.683-1.714-.356-1.336.562-2.727 1.765-3.043-1.78.851-3.28.402-3.937-.813-.656-1.219-.086-2.785 1.012-3.375-1.496 1.152-3.059 1.008-3.942-.055-.883-1.066-.633-2.714.328-3.507-1.215 1.328-2.777 1.437-3.824.53-1.043-.905-1.062-2.57-.246-3.51-.973 1.429-2.508 1.75-3.664.995-1.156-.758-1.402-2.406-.723-3.449-.77 1.492-2.257 1.988-3.492 1.371-1.238-.617-1.676-2.223-1.117-3.34-.598 1.532-2.023 2.176-3.32 1.692-1.293-.489-1.891-2.043-1.453-3.211-.442 1.558-1.801 2.332-3.137 1.969-1.332-.364-2.074-1.86-1.742-3.06-.305 1.571-1.594 2.462-2.954 2.212-1.359-.25-2.226-1.672-2-2.899-.171 1.579-1.382 2.57-2.757 2.434-1.375-.137-2.356-1.484-2.23-2.727-.048 1.579-1.177 2.665-2.56 2.633-1.382-.027-2.464-1.297-2.437-2.543.082 1.575-.96 2.743-2.344 2.817-1.379.078-2.554-1.102-2.625-2.348.203 1.566-.746 2.816-2.113 3-1.371.188-2.637-.894-2.805-2.129.332 1.55-.507 2.875-1.859 3.172-1.348.3-2.7-.672-2.973-1.89.473 1.53-.25 2.921-1.566 3.343-1.316.418-2.75-.433-3.129-1.62.625 1.495.043 2.948-1.23 3.491-1.27.543-2.778-.164-3.27-1.308.79 1.445.367 2.953-.836 3.629-1.207.68-2.781.136-3.394-.95.98 1.371.75 2.918-.364 3.743-1.11.82-2.742.48-3.48-.524 1.199 1.254 1.195 2.824.219 3.8-.98.974-2.645.876-3.524-.007 1.453 1.078 1.727 2.621.938 3.754-.79 1.133-2.446 1.332-3.47.621 1.724.797 2.321 2.246 1.794 3.52-.531 1.277-2.106 1.824-3.258 1.347 1.945.387 2.883 1.645 2.68 3.012-.2 1.367-1.59 2.281-2.825 2.102 1.903.039 3.012 1.148 3.012 2.53 0 1.38-1.246 2.49-2.492 2.49a2.484 2.484 0 0 1 2.492 2.491c0 1.383-1.246 2.489-2.492 2.489a2.484 2.484 0 0 1 2.492 2.492c0 1.383-1.246 2.492-2.492 2.492a2.48 2.48 0 0 1 2.492 2.488c0 1.383-1.246 2.492-2.492 2.492a2.483 2.483 0 0 1 2.492 2.489c0 1.382-1.246 2.492-2.492 2.492Zm0 0"/><g clip-path="url(#a)"><path style="fill:none;stroke-width:.3985;stroke-linecap:butt;stroke-linejoin:miter;stroke:#000;stroke-opacity:1;stroke-miterlimit:10" d="M0 0A2.481 2.481 0 0 0 1.574 3.15c1.313.437 2.758-.39 3.153-1.574A2.482 2.482 0 0 0 6.3 4.727c1.312.434 2.758-.394 3.148-1.578a2.487 2.487 0 0 0 1.578 3.152c1.309.438 2.754-.394 3.149-1.574a2.483 2.483 0 0 0 1.574 3.149c1.313.437 2.758-.395 3.152-1.575a2.478 2.478 0 0 0 1.575 3.149c1.312.437 2.757-.395 3.152-1.574a2.482 2.482 0 0 0 1.574 3.152c1.313.433 2.758-.395 3.149-1.578a2.487 2.487 0 0 0 1.578 3.152c1.308.438 2.754-.394 3.148-1.574a2.483 2.483 0 0 0 1.574 3.148c1.313.438 2.758-.394 3.153-1.574a2.48 2.48 0 0 0 1.574 3.149c1.312.437 2.758-.395 3.152-1.575a2.476 2.476 0 0 0 1.575 3.149c1.312.437 2.757-.39 3.148-1.574a2.484 2.484 0 0 0 1.578 3.152c1.309.437 2.754-.395 3.148-1.578a2.485 2.485 0 0 0 1.575 3.152c1.312.438 2.758-.394 3.152-1.574a2.48 2.48 0 0 0 1.574 3.148c1.313.438 2.758-.394 3.153-1.574a2.476 2.476 0 0 0 1.574 3.149c1.312.437 2.754-.391 3.148-1.575a2.484 2.484 0 0 0 1.578 3.153c1.309.437 2.754-.395 3.149-1.578a2.485 2.485 0 0 0 1.574 3.152c1.313.437 2.758-.395 3.152-1.574a2.48 2.48 0 0 0 1.575 3.148c1.312.438 2.757-.394 3.152-1.574a2.476 2.476 0 0 0 1.574 3.148c1.309.438 2.754-.39 3.149-1.574-1.403.04-2.512 1.145-2.516 2.527-.004 1.383 1.238 2.493 2.484 2.497-1.976-.41-3.332.378-3.683 1.714-.356 1.336.562 2.727 1.765 3.043-1.78-.851-3.28-.402-3.937.813-.656 1.219-.086 2.785 1.012 3.375-1.496-1.152-3.059-1.008-3.942.055-.883 1.066-.633 2.714.328 3.507-1.214-1.328-2.777-1.437-3.824-.53-1.043.905-1.062 2.57-.246 3.51-.973-1.429-2.508-1.75-3.664-.995-1.156.758-1.402 2.406-.723 3.449-.77-1.492-2.257-1.988-3.492-1.371-1.238.617-1.676 2.223-1.117 3.34-.598-1.532-2.023-2.176-3.32-1.692-1.293.489-1.891 2.043-1.453 3.211-.442-1.558-1.801-2.332-3.137-1.969-1.332.364-2.074 1.86-1.742 3.06-.305-1.571-1.594-2.462-2.954-2.212-1.359.25-2.226 1.672-2 2.899-.171-1.579-1.382-2.57-2.757-2.434-1.375.137-2.356 1.484-2.23 2.727-.048-1.579-1.177-2.665-2.56-2.633-1.382.027-2.464 1.297-2.437 2.543.082-1.575-.96-2.742-2.344-2.817-1.379-.078-2.554 1.102-2.625 2.348.203-1.566-.746-2.816-2.113-3-1.371-.188-2.637.894-2.805 2.129.332-1.55-.507-2.875-1.859-3.172-1.348-.3-2.7.672-2.973 1.89.473-1.53-.25-2.921-1.566-3.343-1.316-.418-2.75.433-3.129 1.62.625-1.495.043-2.948-1.23-3.491-1.27-.543-2.778.164-3.27 1.308.79-1.445.367-2.953-.836-3.629-1.207-.68-2.781-.136-3.394.95.98-1.371.75-2.918-.364-3.743-1.11-.82-2.742-.48-3.48.524 1.199-1.254 1.195-2.824.219-3.8-.98-.974-2.645-.876-3.524.007 1.453-1.078 1.727-2.621.938-3.754-.79-1.133-2.446-1.332-3.47-.621 1.724-.797 2.321-2.246 1.794-3.52-.531-1.277-2.106-1.824-3.258-1.347 1.945-.387 2.883-1.645 2.68-3.012-.2-1.367-1.59-2.281-2.825-2.102 1.903-.039 3.012-1.148 3.012-2.53 0-1.38-1.246-2.49-2.492-2.49A2.484 2.484 0 0 0 2.492 18.7c0-1.383-1.246-2.489-2.492-2.489a2.484 2.484 0 0 0 2.492-2.492c0-1.383-1.246-2.492-2.492-2.492A2.48 2.48 0 0 0 2.492 8.74c0-1.383-1.246-2.492-2.492-2.492a2.483 2.483 0 0 0 2.492-2.489c0-1.382-1.246-2.492-2.492-2.492Zm0 0" transform="matrix(1 0 0 -1 1.332 57.481)"/></g></svg>