<svg xmlns="http://www.w3.org/2000/svg" xmlns:xlink="http://www.w3.org/1999/xlink" width="545.691" height="210.939" viewBox="0 0 409.268 158.204" version="1.2"><defs><symbol overflow="visible" id="a"><path style="stroke:none" d="M5.516-.234c0-.235-.125-.235-.266-.235-.61-.015-.61-.14-.61-.375v-2.14c0-.891-.702-1.532-2.187-1.532-.562 0-1.781.047-1.781.922 0 .438.344.625.61.625.312 0 .624-.219.624-.625 0-.297-.187-.469-.218-.5a5.28 5.28 0 0 1 .718-.062c.75 0 1.11.422 1.11 1.172v.343c-.72.032-3.25.125-3.25 1.563C.266-.125 1.5.062 2.187.062c.797 0 1.266-.406 1.485-.828 0 .313 0 .766 1.047.766h.468c.204 0 .329 0 .329-.234Zm-2-1.157c0 .97-.922 1.094-1.172 1.094-.516 0-.906-.344-.906-.797 0-1.062 1.578-1.203 2.078-1.234Zm0 0"/></symbol><symbol overflow="visible" id="l"><path style="stroke:none" d="M5.984-2.219c0-1.328-.937-2.265-2.39-2.265-.719 0-1.219.28-1.453.484v-2.922l-1.766.078v.469c.61 0 .688 0 .688.39V0h.468c.157-.188.328-.375.485-.563.078.079.562.625 1.453.625 1.484 0 2.515-.906 2.515-2.28Zm-1.28 0c0 .469 0 1.016-.25 1.406-.298.407-.75.516-1.079.516-.688 0-1.078-.547-1.188-.687v-2.5c.282-.36.75-.641 1.297-.641 1.22 0 1.22 1.203 1.22 1.906Zm0 0"/></symbol><symbol overflow="visible" id="q"><path style="stroke:none" d="M4.766-1.172c0-.14-.141-.14-.235-.14-.187 0-.187.03-.25.156-.25.625-.734.812-1.234.812-1.39 0-1.39-1.453-1.39-1.922 0-.562 0-1.843 1.28-1.843.36 0 .516.015.657.046a.618.618 0 0 0-.203.47c0 .437.343.624.609.624.313 0 .64-.219.64-.625 0-.86-1.156-.922-1.734-.922C1.11-4.516.375-3.375.375-2.219.375-.89 1.313.062 2.844.062c1.625 0 1.922-1.156 1.922-1.234Zm0 0"/></symbol><symbol overflow="visible" id="t"><path style="stroke:none" d="M5.984 0v-.469c-.609 0-.687 0-.687-.39v-6.063l-1.766.078v.469c.625 0 .703 0 .703.39v1.954a2.178 2.178 0 0 0-1.359-.453c-1.453 0-2.5.875-2.5 2.28 0 1.313.922 2.267 2.39 2.267.61 0 1.094-.235 1.407-.485v.484ZM4.172-1.031c-.14.187-.547.734-1.297.734-1.219 0-1.219-1.203-1.219-1.906 0-.485 0-1.016.25-1.406.297-.422.766-.516 1.078-.516.563 0 .97.313 1.188.61Zm0 0"/></symbol><symbol overflow="visible" id="v"><path style="stroke:none" d="M4.922-1.172c0-.172-.188-.172-.234-.172-.172 0-.188.047-.25.203-.204.485-.782.797-1.422.797-1.407 0-1.422-1.328-1.422-1.828h3.015c.22 0 .313 0 .313-.265 0-.313-.063-1.047-.563-1.547-.359-.36-.89-.532-1.578-.532C1.187-4.516.312-3.484.312-2.25c0 1.344 1 2.313 2.61 2.313 1.578 0 2-1.063 2-1.235ZM3.984-2.5h-2.39c.015-.39.031-.813.234-1.14.266-.391.672-.516.953-.516 1.172 0 1.188 1.312 1.203 1.656Zm0 0"/></symbol><symbol overflow="visible" id="z"><path style="stroke:none" d="M4.36-6.11c0-.421-.36-.874-1.141-.874-.969 0-2.047.421-2.047 1.546v1.016h-.75v.469h.75V-.47H.484V0l1.25-.031c.375 0 1.016 0 1.375.031v-.469H2.25v-3.484h1.14v-.469H2.188v-1.016c0-1.093.75-1.187 1-1.187.047 0 .11 0 .172.031a.585.585 0 0 0-.234.485c0 .421.36.609.61.609.296 0 .624-.203.624-.61Zm0 0"/></symbol><symbol overflow="visible" id="A"><path style="stroke:none" d="M5.563-3.953c0-.235-.172-.578-.625-.578-.157 0-.625.031-1.063.375-.172-.125-.594-.328-1.328-.328-1.438 0-1.985.78-1.985 1.468 0 .407.188.829.516 1.047-.281.36-.344.688-.344.89 0 .157.047.641.438.954-.125.031-.86.25-.86.875C.313 1.25.875 2 2.86 2 4.625 2 5.406 1.422 5.406.719c0-.297-.078-.922-.75-1.266-.562-.281-1.156-.281-2.11-.281-.265 0-.718 0-.765-.016a.625.625 0 0 1-.562-.625c0-.093.047-.25.11-.328.452.234.968.266 1.218.266 1.437 0 1.984-.782 1.984-1.485 0-.468-.25-.796-.406-.953.297-.156.516-.172.625-.187a.433.433 0 0 0-.047.203c0 .25.172.422.438.422a.41.41 0 0 0 .421-.422Zm-2.141.937c0 .454 0 1.125-.875 1.125s-.875-.671-.875-1.125c0-.437 0-1.109.875-1.109s.875.672.875 1.11ZM4.547.75c0 .36-.39.89-1.688.89-1.187 0-1.687-.452-1.687-.906 0-.609.625-.609.766-.609h1.171c.313 0 1.438 0 1.438.625Zm0 0"/></symbol><symbol overflow="visible" id="B"><path style="stroke:none" d="M6.125 0v-.469h-.688v-2.578c0-1.047-.53-1.437-1.53-1.437a1.9 1.9 0 0 0-1.688.953v-3.39l-1.766.077v.469c.61 0 .688 0 .688.39v5.516H.453V0l1.25-.031L2.953 0v-.469h-.687v-2.078c0-1.094.859-1.578 1.5-1.578.328 0 .546.203.546.969V-.47h-.687V0l1.25-.031Zm0 0"/></symbol><symbol overflow="visible" id="C"><path style="stroke:none" d="M2.844 0v-.469h-.61v-4.015L.5-4.406v.468c.594 0 .656 0 .656.391v3.078H.47V0l1.219-.031Zm-.469-6.047a.774.774 0 0 0-.781-.781.784.784 0 0 0-.782.781c0 .422.36.766.782.766a.77.77 0 0 0 .781-.766Zm0 0"/></symbol><symbol overflow="visible" id="D"><path style="stroke:none" d="M2.656.422v-4.906l-1.828.078v.468c.172 0 .39 0 .531.016.22.047.22.172.22.39V.423c0 .5-.141 1.219-.735 1.219-.172 0-.25-.032-.39-.063a.624.624 0 0 0 .233-.5.617.617 0 0 0-.625-.625c-.374 0-.625.281-.625.64 0 .563.61.907 1.422.907.86 0 1.797-.531 1.797-1.578Zm0-6.469a.774.774 0 1 0-1.547-.015.774.774 0 0 0 1.547.015Zm0 0"/></symbol><symbol overflow="visible" id="E"><path style="stroke:none" d="M5.86 0v-.469h-.173c-.437 0-.468-.047-.593-.203L3.406-2.766 4.703-3.78c.14-.11.234-.172.906-.172v-.469c-.28.031-.53.031-.78.031l-1.157-.03v.468c.234 0 .265.031.344.11L2.14-2.36v-4.563l-1.766.078v.469c.61 0 .688 0 .688.39v5.516H.375V0l1.188-.031L2.766 0v-.469h-.688v-1.265c.297-.235.375-.297.578-.422l1 1.25c.094.125.25.312.25.344 0 .093-.172.093-.312.093V0a52.51 52.51 0 0 1 1.219-.031c.359 0 .703.015 1.046.031Zm0 0"/></symbol><symbol overflow="visible" id="F"><path style="stroke:none" d="M2.922 0v-.469h-.688v-6.453L.47-6.844v.469c.625 0 .687 0 .687.39v5.516H.47V0l1.219-.031Zm0 0"/></symbol><symbol overflow="visible" id="b"><path style="stroke:none" d="M7.313-3.078v-.344c-.188.016-.422.016-.625.016l-.75-.016v.344h.484L5.344-.563 4.266-3.078h.421v-.344l-.89.016-.781-.016v.344h.453l.078.203-.969 2.313L1.5-3.079h.422v-.344l-.89.016-.782-.016v.344h.453l1.266 3c.078.156.172.156.265.156h.313c.094 0 .203 0 .265-.14l.97-2.282.968 2.281c.063.141.172.141.266.141h.312c.188 0 .203-.047.25-.156l1.281-3Zm0 0"/></symbol><symbol overflow="visible" id="c"><path style="stroke:none" d="M1.813 0v-.328h-.329V-2.25l-.968.031v.344c.312 0 .343 0 .343.188v1.359H.5V0c.219-.016.453-.016.672-.016.203 0 .422 0 .64.016Zm-.297-3a.42.42 0 0 0-.422-.422c-.25 0-.438.188-.438.406 0 .25.203.422.438.422A.417.417 0 0 0 1.516-3Zm0 0"/></symbol><symbol overflow="visible" id="d"><path style="stroke:none" d="M3.766 0v-.328c-.329 0-.36 0-.36-.203v-2.922l-.984.031v.344c.312 0 .36 0 .36.187v.844c-.204-.11-.5-.203-.891-.203-1.079 0-1.563.563-1.563 1.156 0 .532.422 1.14 1.484 1.14.391 0 .704-.108.922-.25v.25ZM2.734-.656a1.038 1.038 0 0 1-.843.422c-.813 0-.813-.594-.813-.86 0-.265 0-.875.875-.875.219 0 .469.047.688.219.093.078.093.094.093.188Zm0 0"/></symbol><symbol overflow="visible" id="e"><path style="stroke:none" d="M2.484-.594v-.234h-.406v.219c0 .14-.047.343-.344.343-.312 0-.312-.203-.312-.343v-1.266h.953v-.344h-.953v-.953H1c0 .516-.266 1-.781 1.016v.281H.75v1.281c0 .563.547.64.875.64.36 0 .86-.14.86-.64Zm0 0"/></symbol><symbol overflow="visible" id="f"><path style="stroke:none" d="M3.875 0v-.328h-.36v-1.14c0-.735-.609-.782-.968-.782-.5 0-.844.172-1.078.469v-1.672l-.985.031v.344c.313 0 .36 0 .36.187v2.563h-.36V0l.688-.016c.187 0 .469 0 .687.016v-.328H1.5v-.875c0-.61.625-.766.922-.766.328 0 .422.125.422.485v1.156h-.36V0l.704-.016c.171 0 .468 0 .687.016Zm0 0"/></symbol><symbol overflow="visible" id="g"><path style="stroke:none" d="M1.516-1.781a.434.434 0 0 0-.422-.438.447.447 0 0 0-.438.438c0 .234.203.422.438.422a.42.42 0 0 0 .422-.422Zm0 1.36a.434.434 0 0 0-.422-.438.447.447 0 0 0-.438.437c0 .234.203.422.438.422a.42.42 0 0 0 .422-.422Zm0 0"/></symbol><symbol overflow="visible" id="h"><path style="stroke:none" d="M3.422-1.578c0-.844-.219-1.719-1.531-1.719-1.313 0-1.532.86-1.532 1.719C.36-.688.625.078 1.891.078c1.28 0 1.53-.797 1.53-1.656Zm-.75-.078c0 .312 0 .781-.078 1.015-.125.407-.516.454-.703.454-.204 0-.594-.063-.704-.454-.078-.25-.078-.656-.078-1.015 0-.36 0-.75.094-1 .078-.219.344-.36.688-.36.296 0 .593.094.703.391.078.234.078.64.078.969Zm0 0"/></symbol><symbol overflow="visible" id="i"><path style="stroke:none" d="M5.172-1.688c0-1.03-.875-1.734-2.14-1.734H.483v.344H1v2.75H.484V0h2.547c1.297 0 2.14-.688 2.14-1.688Zm-.813 0c0 .47-.03 1.36-1.53 1.36H1.75v-2.75h1.078c.375 0 .797.062 1.094.281.25.188.437.453.437 1.11Zm0 0"/></symbol><symbol overflow="visible" id="j"><path style="stroke:none" d="M3.172-.547c0-.125-.125-.125-.203-.125h-.031c-.094 0-.126 0-.172.063-.047.093-.188.343-.72.343-.64 0-.968-.25-1.015-.718H2.97c.11 0 .203 0 .203-.157 0-.296-.11-.625-.328-.812-.235-.203-.531-.313-1.016-.313-1.125 0-1.547.61-1.547 1.141S.703.047 1.921.047c.126 0 .47 0 .782-.125.328-.14.469-.406.469-.469Zm-.516-.687H1.031c.016-.188.016-.766.797-.766.672 0 .813.438.828.766Zm0 0"/></symbol><symbol overflow="visible" id="k"><path style="stroke:none" d="M3.86-1.11c0-.546-.407-1.14-1.454-1.14-.187 0-.61.016-1 .219v-.219l-.984.031v.344H.5c.281 0 .281.031.281.172V.64h-.36v.328L1.11.953l.688.016V.64h-.36v-.829c.141.094.438.235.86.235C3.328.047 3.859-.5 3.859-1.11Zm-.75 0c0 .548-.376.876-.891.876-.235 0-.531-.078-.781-.407v-.984c.25-.266.64-.313.843-.313.547 0 .828.36.828.829Zm0 0"/></symbol><symbol overflow="visible" id="m"><path style="stroke:none" d="M3.39-.906c0-.438-.406-.735-.89-.844.297-.094.688-.344.688-.813 0-.406-.454-.734-1.344-.734-.797 0-1.25.344-1.25.797 0 .281.219.422.39.422a.394.394 0 0 0 .407-.406c0-.25-.188-.36-.188-.36.203-.14.453-.172.625-.172.484 0 .594.204.594.454 0 .203-.125.656-.735.671-.046 0-.265.016-.312.016-.078.016-.078.11-.078.14 0 .141.078.141.172.141h.343c.672 0 .72.407.72.688 0 .25-.032.687-.72.687-.109 0-.484-.015-.75-.172A.436.436 0 0 0 1.25-.75a.427.427 0 0 0-.438-.438c-.25 0-.421.172-.421.438 0 .5.484.828 1.437.828 1.234 0 1.563-.594 1.563-.984Zm0 0"/></symbol><symbol overflow="visible" id="n"><path style="stroke:none" d="M3.188 0v-.328H2.28V-3.11c0-.157-.015-.188-.187-.188H2c-.438.328-1.078.328-1.188.328h-.14v.328h.14c.063 0 .438 0 .813-.125v2.438H.719V0c.25-.016.953-.016 1.234-.016s1 0 1.234.016Zm0 0"/></symbol><symbol overflow="visible" id="o"><path style="stroke:none" d="M1.516-.422a.434.434 0 0 0-.422-.437.447.447 0 0 0-.438.437c0 .234.203.422.438.422a.42.42 0 0 0 .422-.422Zm0 0"/></symbol><symbol overflow="visible" id="p"><path style="stroke:none" d="M3.39-1.64c0-1-.437-1.657-1.484-1.657-.39 0-.687.047-1.015.235-.391.25-.5.546-.5.874 0 .657.53 1.094 1.375 1.094.406 0 .671-.187.843-.406 0 .297 0 .656-.203.922-.25.328-.64.36-.828.36-.047 0-.25 0-.406-.079 0 0 .14-.11.14-.312a.36.36 0 0 0-.375-.375.364.364 0 0 0-.375.39c0 .672.86.672 1.032.672 1.031 0 1.797-.61 1.797-1.719Zm-.796-.516c0 .5-.36.781-.766.781-.656 0-.656-.406-.656-.813 0-.39 0-.828.734-.828.625 0 .688.485.688.86Zm0 0"/></symbol><symbol overflow="visible" id="r"><path style="stroke:none" d="M3.39-1.031c0-.657-.546-1.094-1.374-1.094-.329 0-.641.14-.844.406.016-.453.031-.718.281-.984.14-.156.438-.313.828-.313.047 0 .219 0 .36.094-.047.016-.172.125-.172.313a.36.36 0 0 0 .375.375c.156 0 .36-.11.36-.375 0-.25-.126-.688-.923-.688-1.11 0-1.89.64-1.89 1.703C.39-.53.875.078 1.906.078c.313 0 .657-.015 1-.25.266-.172.485-.406.485-.86Zm-.78 0c0 .406 0 .812-.704.812-.656 0-.718-.484-.718-.875 0-.375.265-.75.765-.75.656 0 .656.39.656.813Zm0 0"/></symbol><symbol overflow="visible" id="s"><path style="stroke:none" d="M3.328-1.047h-.406c-.031.188-.11.313-.156.328-.11.016-.329.016-.5.016H1.53c.313-.203.61-.39.828-.516.563-.312.97-.531.97-1.047 0-.625-.563-1.03-1.548-1.03-.234 0-1.343 0-1.343.733 0 .297.25.422.421.422.188 0 .407-.14.407-.406 0-.187-.11-.297-.125-.312.171-.094.359-.094.468-.094.5 0 .938.234.938.687 0 .391-.313.688-.625.907L.532-.344C.436-.28.436-.266.436-.156V0h2.704Zm0 0"/></symbol><symbol overflow="visible" id="u"><path style="stroke:none" d="M3.594-3.203H2.359L1.266-3.22c-.125 0-.141-.062-.157-.11H.703L.484-2.155h.422a.685.685 0 0 1 .11-.297c.03-.031.03-.031.078-.031.125-.016.343-.016.515-.016h.907c-.36.328-.485.438-.641.656-.5.657-.563 1.25-.563 1.516 0 .39.329.406.375.406.157 0 .235-.062.266-.094.11-.109.11-.234.11-.328.015-1.203.343-1.515.671-1.812l.313-.281.5-.47c.015-.015.031-.03.047-.062v-.234Zm0 0"/></symbol><symbol overflow="visible" id="w"><path style="stroke:none" d="M3.328-1c0-.5-.39-1.063-1.39-1.063a1.79 1.79 0 0 0-.782.157v-.547c.188.031.407.031.407.031A1.94 1.94 0 0 0 2.968-3c.078-.078.078-.078.078-.156 0-.031 0-.14-.11-.14 0 0-.015 0-.046.015-.204.047-.547.14-1.016.14-.344 0-.672-.046-1-.14-.047-.016-.063-.016-.078-.016-.11 0-.11.11-.11.188v1.5c0 .156.032.187.188.187.11 0 .11 0 .203-.094.078-.062.281-.28.828-.28.657 0 .657.468.657.765s0 .812-.844.812c-.078 0-.453 0-.688-.203a.39.39 0 0 0 .203-.344.4.4 0 0 0-.39-.406c-.188 0-.406.125-.406.406 0 .485.5.844 1.296.844C2.844.078 3.328-.453 3.328-1Zm0 0"/></symbol><symbol overflow="visible" id="x"><path style="stroke:none" d="M3.39-.922c0-.39-.265-.703-.765-.906.453-.203.563-.469.563-.703 0-.719-.876-.766-1.282-.766-.547 0-1.312.156-1.312.906 0 .407.328.641.5.735-.375.14-.703.375-.703.843 0 .844.968.891 1.484.891.25 0 1.516 0 1.516-1Zm-.703-1.594c0 .235-.156.407-.437.516l-.703-.313c-.344-.156-.453-.203-.453-.359 0-.219.172-.344.765-.344.313 0 .829.047.829.5Zm.126 1.844c0 .281-.22.453-.907.453-.39 0-.937-.078-.937-.594 0-.312.187-.515.547-.656l.984.438c.031 0 .313.125.313.36Zm0 0"/></symbol><symbol overflow="visible" id="y"><path style="stroke:none" d="M3.5 0v-.328h-.656v-.438H3.5v-.343h-.656v-2.032c0-.156-.031-.187-.188-.187h-.36c-.124 0-.155 0-.202.078L.28-1.11v.344h1.86v.438h-.704V0c.235-.016.766-.016 1.047-.016.266 0 .75 0 1.016.016ZM2.219-1.11h-1.5l1.5-1.78Zm0 0"/></symbol></defs><use xlink:href="#a" x=".424" y="5.103" style="fill:#000;fill-opacity:1"/><g style="fill:#000;fill-opacity:1"><use xlink:href="#b" x=".424" y="13.073"/><use xlink:href="#c" x="7.981" y="13.073"/><use xlink:href="#d" x="10.153" y="13.073"/><use xlink:href="#e" x="14.332" y="13.073"/><use xlink:href="#f" x="17.306" y="13.073"/><use xlink:href="#g" x="21.485" y="13.073"/></g><use xlink:href="#h" x="27.089" y="13.073" style="fill:#000;fill-opacity:1"/><g style="fill:#000;fill-opacity:1"><use xlink:href="#i" x=".424" y="19.051"/><use xlink:href="#j" x="6.093" y="19.051"/><use xlink:href="#k" x="9.54" y="19.051"/><use xlink:href="#e" x="13.719" y="19.051"/><use xlink:href="#f" x="16.693" y="19.051"/><use xlink:href="#g" x="20.872" y="19.051"/></g><use xlink:href="#h" x="26.476" y="19.051" style="fill:#000;fill-opacity:1"/><use xlink:href="#l" x=".424" y="39.285" style="fill:#000;fill-opacity:1"/><g style="fill:#000;fill-opacity:1"><use xlink:href="#b" x=".424" y="47.255"/><use xlink:href="#c" x="7.981" y="47.255"/><use xlink:href="#d" x="10.153" y="47.255"/><use xlink:href="#e" x="14.332" y="47.255"/><use xlink:href="#f" x="17.306" y="47.255"/><use xlink:href="#g" x="21.485" y="47.255"/></g><use xlink:href="#h" x="27.089" y="47.255" style="fill:#000;fill-opacity:1"/><g style="fill:#000;fill-opacity:1"><use xlink:href="#i" x=".424" y="53.233"/><use xlink:href="#j" x="6.093" y="53.233"/><use xlink:href="#k" x="9.54" y="53.233"/><use xlink:href="#e" x="13.719" y="53.233"/><use xlink:href="#f" x="16.693" y="53.233"/><use xlink:href="#g" x="20.872" y="53.233"/></g><g style="fill:#000;fill-opacity:1"><use xlink:href="#m" x="26.476" y="53.233"/><use xlink:href="#n" x="30.252" y="53.233"/><use xlink:href="#o" x="34.028" y="53.233"/><use xlink:href="#p" x="36.2" y="53.233"/></g><use xlink:href="#q" x=".424" y="71.066" style="fill:#000;fill-opacity:1"/><g style="fill:#000;fill-opacity:1"><use xlink:href="#b" x=".424" y="79.036"/><use xlink:href="#c" x="7.981" y="79.036"/><use xlink:href="#d" x="10.153" y="79.036"/><use xlink:href="#e" x="14.332" y="79.036"/><use xlink:href="#f" x="17.306" y="79.036"/><use xlink:href="#g" x="21.485" y="79.036"/></g><use xlink:href="#h" x="27.089" y="79.036" style="fill:#000;fill-opacity:1"/><g style="fill:#000;fill-opacity:1"><use xlink:href="#i" x=".424" y="85.014"/><use xlink:href="#j" x="6.093" y="85.014"/><use xlink:href="#k" x="9.54" y="85.014"/><use xlink:href="#e" x="13.719" y="85.014"/><use xlink:href="#f" x="16.693" y="85.014"/><use xlink:href="#g" x="20.872" y="85.014"/></g><g style="fill:#000;fill-opacity:1"><use xlink:href="#r" x="26.476" y="85.014"/><use xlink:href="#r" x="30.252" y="85.014"/><use xlink:href="#o" x="34.028" y="85.014"/><use xlink:href="#s" x="36.2" y="85.014"/><use xlink:href="#h" x="39.976" y="85.014"/><use xlink:href="#p" x="43.752" y="85.014"/><use xlink:href="#p" x="47.527" y="85.014"/><use xlink:href="#p" x="51.303" y="85.014"/></g><use xlink:href="#t" x="67.435" y="73.467" style="fill:#000;fill-opacity:1"/><g style="fill:#000;fill-opacity:1"><use xlink:href="#b" x="67.435" y="81.437"/><use xlink:href="#c" x="74.992" y="81.437"/><use xlink:href="#d" x="77.164" y="81.437"/><use xlink:href="#e" x="81.343" y="81.437"/><use xlink:href="#f" x="84.317" y="81.437"/><use xlink:href="#g" x="88.496" y="81.437"/></g><g style="fill:#000;fill-opacity:1"><use xlink:href="#r" x="94.1" y="81.437"/><use xlink:href="#u" x="97.876" y="81.437"/><use xlink:href="#o" x="101.652" y="81.437"/><use xlink:href="#s" x="103.824" y="81.437"/><use xlink:href="#r" x="107.599" y="81.437"/><use xlink:href="#n" x="111.375" y="81.437"/><use xlink:href="#r" x="115.151" y="81.437"/><use xlink:href="#m" x="118.927" y="81.437"/></g><g style="fill:#000;fill-opacity:1"><use xlink:href="#i" x="67.435" y="87.415"/><use xlink:href="#j" x="73.104" y="87.415"/><use xlink:href="#k" x="76.551" y="87.415"/><use xlink:href="#e" x="80.73" y="87.415"/><use xlink:href="#f" x="83.704" y="87.415"/><use xlink:href="#g" x="87.883" y="87.415"/></g><g style="fill:#000;fill-opacity:1"><use xlink:href="#r" x="93.487" y="87.415"/><use xlink:href="#r" x="97.263" y="87.415"/><use xlink:href="#o" x="101.039" y="87.415"/><use xlink:href="#s" x="103.211" y="87.415"/><use xlink:href="#h" x="106.987" y="87.415"/><use xlink:href="#p" x="110.763" y="87.415"/><use xlink:href="#p" x="114.538" y="87.415"/><use xlink:href="#p" x="118.314" y="87.415"/></g><path style="fill:none;stroke-width:.3985;stroke-linecap:butt;stroke-linejoin:miter;stroke:#000;stroke-opacity:1;stroke-miterlimit:10" d="m57.048-77.382 9.563-.172" transform="matrix(1 0 0 -1 -.771 -.605)"/><path style="fill:none;stroke-width:.3985;stroke-linecap:round;stroke-linejoin:round;stroke:#000;stroke-opacity:1;stroke-miterlimit:10" d="M-2.072 2.391C-1.695.956-.851.28-.002-.002c-.847-.277-1.69-.956-2.07-2.389" transform="matrix(.99982 .01788 .01788 -.99982 66.041 76.951)"/><use xlink:href="#v" x="135.058" y="71.066" style="fill:#000;fill-opacity:1"/><g style="fill:#000;fill-opacity:1"><use xlink:href="#b" x="135.058" y="79.036"/><use xlink:href="#c" x="142.615" y="79.036"/><use xlink:href="#d" x="144.787" y="79.036"/><use xlink:href="#e" x="148.966" y="79.036"/><use xlink:href="#f" x="151.94" y="79.036"/><use xlink:href="#g" x="156.119" y="79.036"/></g><g style="fill:#000;fill-opacity:1"><use xlink:href="#n" x="161.723" y="79.036"/><use xlink:href="#m" x="165.499" y="79.036"/><use xlink:href="#w" x="169.275" y="79.036"/><use xlink:href="#o" x="173.051" y="79.036"/><use xlink:href="#n" x="175.222" y="79.036"/><use xlink:href="#m" x="178.998" y="79.036"/><use xlink:href="#x" x="182.774" y="79.036"/><use xlink:href="#s" x="186.55" y="79.036"/><use xlink:href="#y" x="190.326" y="79.036"/></g><g style="fill:#000;fill-opacity:1"><use xlink:href="#i" x="135.058" y="85.014"/><use xlink:href="#j" x="140.727" y="85.014"/><use xlink:href="#k" x="144.174" y="85.014"/><use xlink:href="#e" x="148.353" y="85.014"/><use xlink:href="#f" x="151.327" y="85.014"/><use xlink:href="#g" x="155.506" y="85.014"/></g><g style="fill:#000;fill-opacity:1"><use xlink:href="#r" x="161.11" y="85.014"/><use xlink:href="#r" x="164.886" y="85.014"/><use xlink:href="#o" x="168.662" y="85.014"/><use xlink:href="#s" x="170.834" y="85.014"/><use xlink:href="#h" x="174.61" y="85.014"/><use xlink:href="#p" x="178.386" y="85.014"/><use xlink:href="#p" x="182.161" y="85.014"/><use xlink:href="#p" x="185.937" y="85.014"/></g><use xlink:href="#z" x="206.456" y="73.527" style="fill:#000;fill-opacity:1"/><g style="fill:#000;fill-opacity:1"><use xlink:href="#b" x="206.456" y="81.497"/><use xlink:href="#c" x="214.013" y="81.497"/><use xlink:href="#d" x="216.185" y="81.497"/><use xlink:href="#e" x="220.364" y="81.497"/><use xlink:href="#f" x="223.338" y="81.497"/><use xlink:href="#g" x="227.517" y="81.497"/></g><g style="fill:#000;fill-opacity:1"><use xlink:href="#s" x="233.121" y="81.497"/><use xlink:href="#h" x="236.897" y="81.497"/><use xlink:href="#r" x="240.673" y="81.497"/><use xlink:href="#o" x="244.449" y="81.497"/><use xlink:href="#x" x="246.62" y="81.497"/><use xlink:href="#h" x="250.396" y="81.497"/><use xlink:href="#y" x="254.172" y="81.497"/><use xlink:href="#x" x="257.948" y="81.497"/><use xlink:href="#y" x="261.724" y="81.497"/></g><g style="fill:#000;fill-opacity:1"><use xlink:href="#i" x="206.456" y="87.474"/><use xlink:href="#j" x="212.125" y="87.474"/><use xlink:href="#k" x="215.572" y="87.474"/><use xlink:href="#e" x="219.751" y="87.474"/><use xlink:href="#f" x="222.725" y="87.474"/><use xlink:href="#g" x="226.904" y="87.474"/></g><g style="fill:#000;fill-opacity:1"><use xlink:href="#r" x="232.508" y="87.474"/><use xlink:href="#r" x="236.284" y="87.474"/><use xlink:href="#o" x="240.06" y="87.474"/><use xlink:href="#s" x="242.232" y="87.474"/><use xlink:href="#h" x="246.008" y="87.474"/><use xlink:href="#p" x="249.784" y="87.474"/><use xlink:href="#p" x="253.559" y="87.474"/><use xlink:href="#p" x="257.335" y="87.474"/></g><path style="fill:none;stroke-width:.3985;stroke-linecap:butt;stroke-linejoin:miter;stroke:#000;stroke-opacity:1;stroke-miterlimit:10" d="m196.072-77.402 9.566-.164" transform="matrix(1 0 0 -1 -.771 -.605)"/><path style="fill:none;stroke-width:.3985;stroke-linecap:round;stroke-linejoin:round;stroke:#000;stroke-opacity:1;stroke-miterlimit:10" d="M-2.071 2.391C-1.695.956-.851.28.002.001-.85-.279-1.693-.958-2.071-2.39" transform="scale(1 -1) rotate(-.991 -4348.607 -11897.9)"/><use xlink:href="#A" x="277.855" y="71.086" style="fill:#000;fill-opacity:1"/><g style="fill:#000;fill-opacity:1"><use xlink:href="#b" x="277.855" y="79.056"/><use xlink:href="#c" x="285.412" y="79.056"/><use xlink:href="#d" x="287.584" y="79.056"/><use xlink:href="#e" x="291.763" y="79.056"/><use xlink:href="#f" x="294.737" y="79.056"/><use xlink:href="#g" x="298.916" y="79.056"/></g><g style="fill:#000;fill-opacity:1"><use xlink:href="#s" x="304.52" y="79.056"/><use xlink:href="#u" x="308.296" y="79.056"/><use xlink:href="#x" x="312.072" y="79.056"/><use xlink:href="#o" x="315.848" y="79.056"/><use xlink:href="#y" x="318.019" y="79.056"/><use xlink:href="#u" x="321.795" y="79.056"/><use xlink:href="#n" x="325.571" y="79.056"/><use xlink:href="#y" x="329.347" y="79.056"/><use xlink:href="#y" x="333.123" y="79.056"/></g><g style="fill:#000;fill-opacity:1"><use xlink:href="#i" x="277.855" y="85.034"/><use xlink:href="#j" x="283.524" y="85.034"/><use xlink:href="#k" x="286.971" y="85.034"/><use xlink:href="#e" x="291.15" y="85.034"/><use xlink:href="#f" x="294.124" y="85.034"/><use xlink:href="#g" x="298.303" y="85.034"/></g><g style="fill:#000;fill-opacity:1"><use xlink:href="#r" x="303.907" y="85.034"/><use xlink:href="#r" x="307.683" y="85.034"/><use xlink:href="#o" x="311.459" y="85.034"/><use xlink:href="#s" x="313.631" y="85.034"/><use xlink:href="#h" x="317.407" y="85.034"/><use xlink:href="#p" x="321.183" y="85.034"/><use xlink:href="#p" x="324.958" y="85.034"/><use xlink:href="#p" x="328.734" y="85.034"/></g><path style="fill:none;stroke-width:.3985;stroke-linecap:butt;stroke-linejoin:miter;stroke:#000;stroke-opacity:1;stroke-miterlimit:10" d="m267.47-77.578 9.567.164" transform="matrix(1 0 0 -1 -.771 -.605)"/><path style="fill:none;stroke-width:.3985;stroke-linecap:round;stroke-linejoin:round;stroke:#000;stroke-opacity:1;stroke-miterlimit:10" d="M-2.072 2.392C-1.694.956-.85.277 0 .001c-.848-.279-1.692-.956-2.072-2.39" transform="scale(1 -1) rotate(.982 4618.976 16090.191)"/><use xlink:href="#B" x="135.058" y="107.709" style="fill:#000;fill-opacity:1"/><g style="fill:#000;fill-opacity:1"><use xlink:href="#b" x="135.058" y="115.679"/><use xlink:href="#c" x="142.615" y="115.679"/><use xlink:href="#d" x="144.787" y="115.679"/><use xlink:href="#e" x="148.966" y="115.679"/><use xlink:href="#f" x="151.94" y="115.679"/><use xlink:href="#g" x="156.119" y="115.679"/></g><g style="fill:#000;fill-opacity:1"><use xlink:href="#n" x="161.723" y="115.679"/><use xlink:href="#m" x="165.499" y="115.679"/><use xlink:href="#w" x="169.275" y="115.679"/><use xlink:href="#o" x="173.051" y="115.679"/><use xlink:href="#n" x="175.222" y="115.679"/><use xlink:href="#m" x="178.998" y="115.679"/><use xlink:href="#x" x="182.774" y="115.679"/><use xlink:href="#s" x="186.55" y="115.679"/><use xlink:href="#y" x="190.326" y="115.679"/></g><g style="fill:#000;fill-opacity:1"><use xlink:href="#i" x="135.058" y="121.656"/><use xlink:href="#j" x="140.727" y="121.656"/><use xlink:href="#k" x="144.174" y="121.656"/><use xlink:href="#e" x="148.353" y="121.656"/><use xlink:href="#f" x="151.327" y="121.656"/><use xlink:href="#g" x="155.506" y="121.656"/></g><g style="fill:#000;fill-opacity:1"><use xlink:href="#n" x="161.11" y="121.656"/><use xlink:href="#h" x="164.886" y="121.656"/><use xlink:href="#h" x="168.662" y="121.656"/><use xlink:href="#o" x="172.438" y="121.656"/><use xlink:href="#w" x="174.61" y="121.656"/><use xlink:href="#u" x="178.386" y="121.656"/><use xlink:href="#p" x="182.161" y="121.656"/><use xlink:href="#p" x="185.937" y="121.656"/><use xlink:href="#p" x="189.713" y="121.656"/></g><use xlink:href="#C" x="206.456" y="107.619" style="fill:#000;fill-opacity:1"/><g style="fill:#000;fill-opacity:1"><use xlink:href="#b" x="206.456" y="115.589"/><use xlink:href="#c" x="214.013" y="115.589"/><use xlink:href="#d" x="216.185" y="115.589"/><use xlink:href="#e" x="220.364" y="115.589"/><use xlink:href="#f" x="223.338" y="115.589"/><use xlink:href="#g" x="227.517" y="115.589"/></g><g style="fill:#000;fill-opacity:1"><use xlink:href="#s" x="233.121" y="115.589"/><use xlink:href="#h" x="236.897" y="115.589"/><use xlink:href="#r" x="240.673" y="115.589"/><use xlink:href="#o" x="244.449" y="115.589"/><use xlink:href="#x" x="246.62" y="115.589"/><use xlink:href="#h" x="250.396" y="115.589"/><use xlink:href="#y" x="254.172" y="115.589"/><use xlink:href="#x" x="257.948" y="115.589"/><use xlink:href="#y" x="261.724" y="115.589"/></g><g style="fill:#000;fill-opacity:1"><use xlink:href="#i" x="206.456" y="121.567"/><use xlink:href="#j" x="212.125" y="121.567"/><use xlink:href="#k" x="215.572" y="121.567"/><use xlink:href="#e" x="219.751" y="121.567"/><use xlink:href="#f" x="222.725" y="121.567"/><use xlink:href="#g" x="226.904" y="121.567"/></g><g style="fill:#000;fill-opacity:1"><use xlink:href="#n" x="232.508" y="121.567"/><use xlink:href="#h" x="236.284" y="121.567"/><use xlink:href="#h" x="240.06" y="121.567"/><use xlink:href="#o" x="243.836" y="121.567"/><use xlink:href="#w" x="246.008" y="121.567"/><use xlink:href="#u" x="249.784" y="121.567"/><use xlink:href="#p" x="253.559" y="121.567"/><use xlink:href="#p" x="257.335" y="121.567"/><use xlink:href="#p" x="261.111" y="121.567"/></g><path style="fill:none;stroke-width:.3985;stroke-linecap:butt;stroke-linejoin:miter;stroke:#000;stroke-opacity:1;stroke-miterlimit:10" d="m196.072-112.296 9.566.007" transform="matrix(1 0 0 -1 -.771 -.605)"/><path style="fill:none;stroke-width:.3985;stroke-linecap:round;stroke-linejoin:round;stroke:#000;stroke-opacity:1;stroke-miterlimit:10" d="M-2.071 2.39C-1.693.954-.85.278.002 0c-.852-.28-1.696-.956-2.076-2.393" transform="matrix(.99998 -.00063 -.00063 -.99998 205.065 111.685)"/><path style="fill:none;stroke-width:.3985;stroke-linecap:butt;stroke-linejoin:miter;stroke:#000;stroke-opacity:1;stroke-miterlimit:10" d="m124.673-77.574 9.563.164" transform="matrix(1 0 0 -1 -.771 -.605)"/><path style="fill:none;stroke-width:.3985;stroke-linecap:round;stroke-linejoin:round;stroke:#000;stroke-opacity:1;stroke-miterlimit:10" d="M-2.073 2.392C-1.695.956-.852.281-.001.001c-.848-.279-1.692-.956-2.073-2.39" transform="scale(1 -1) rotate(.991 4508.448 7691.784)"/><path style="fill:none;stroke-width:.3985;stroke-linecap:butt;stroke-linejoin:miter;stroke:#000;stroke-opacity:1;stroke-miterlimit:10" d="m120.431-90.183 19.992-9.848" transform="matrix(1 0 0 -1 -.771 -.605)"/><path style="fill:none;stroke-width:.3985;stroke-linecap:round;stroke-linejoin:round;stroke:#000;stroke-opacity:1;stroke-miterlimit:10" d="M-2.073 2.39C-1.693.957-.85.279.001 0c-.851-.28-1.694-.956-2.075-2.393" transform="matrix(.89706 .44177 .44177 -.89706 139.831 99.513)"/><use xlink:href="#D" x="349.254" y="73.377" style="fill:#000;fill-opacity:1"/><g style="fill:#000;fill-opacity:1"><use xlink:href="#b" x="349.254" y="81.347"/><use xlink:href="#c" x="356.811" y="81.347"/><use xlink:href="#d" x="358.983" y="81.347"/><use xlink:href="#e" x="363.162" y="81.347"/><use xlink:href="#f" x="366.136" y="81.347"/><use xlink:href="#g" x="370.315" y="81.347"/></g><g style="fill:#000;fill-opacity:1"><use xlink:href="#m" x="375.919" y="81.347"/><use xlink:href="#w" x="379.695" y="81.347"/><use xlink:href="#h" x="383.471" y="81.347"/><use xlink:href="#o" x="387.247" y="81.347"/><use xlink:href="#n" x="389.418" y="81.347"/><use xlink:href="#m" x="393.194" y="81.347"/><use xlink:href="#x" x="396.97" y="81.347"/><use xlink:href="#h" x="400.746" y="81.347"/><use xlink:href="#m" x="404.522" y="81.347"/></g><g style="fill:#000;fill-opacity:1"><use xlink:href="#i" x="349.254" y="87.325"/><use xlink:href="#j" x="354.923" y="87.325"/><use xlink:href="#k" x="358.37" y="87.325"/><use xlink:href="#e" x="362.549" y="87.325"/><use xlink:href="#f" x="365.523" y="87.325"/><use xlink:href="#g" x="369.702" y="87.325"/></g><g style="fill:#000;fill-opacity:1"><use xlink:href="#r" x="375.306" y="87.325"/><use xlink:href="#r" x="379.082" y="87.325"/><use xlink:href="#o" x="382.858" y="87.325"/><use xlink:href="#s" x="385.03" y="87.325"/><use xlink:href="#h" x="388.806" y="87.325"/><use xlink:href="#p" x="392.582" y="87.325"/><use xlink:href="#p" x="396.357" y="87.325"/><use xlink:href="#p" x="400.133" y="87.325"/></g><path style="fill:none;stroke-width:.3985;stroke-linecap:butt;stroke-linejoin:miter;stroke:#000;stroke-opacity:1;stroke-miterlimit:10" d="m338.873-77.375 9.562-.156" transform="matrix(1 0 0 -1 -.771 -.605)"/><path style="fill:none;stroke-width:.3985;stroke-linecap:round;stroke-linejoin:round;stroke:#000;stroke-opacity:1;stroke-miterlimit:10" d="M-2.071 2.39C-1.692.956-.849.278-.001.003c-.847-.28-1.692-.957-2.071-2.393" transform="matrix(.99985 .0161 .0161 -.99985 347.864 76.928)"/><path style="fill:none;stroke-width:.3985;stroke-linecap:butt;stroke-linejoin:miter;stroke:#000;stroke-opacity:1;stroke-miterlimit:10" d="m267.47-104.91 80.977 19.426" transform="matrix(1 0 0 -1 -.771 -.605)"/><path style="fill:none;stroke-width:.3985;stroke-linecap:round;stroke-linejoin:round;stroke:#000;stroke-opacity:1;stroke-miterlimit:10" d="M-2.073 2.39C-1.693.956-.85.28.001 0c-.85-.278-1.695-.955-2.072-2.392" transform="matrix(.97235 -.23325 -.23325 -.97235 347.87 84.832)"/><use xlink:href="#E" x=".424" y="141.89" style="fill:#000;fill-opacity:1"/><g style="fill:#000;fill-opacity:1"><use xlink:href="#b" x=".424" y="149.86"/><use xlink:href="#c" x="7.981" y="149.86"/><use xlink:href="#d" x="10.153" y="149.86"/><use xlink:href="#e" x="14.332" y="149.86"/><use xlink:href="#f" x="17.306" y="149.86"/><use xlink:href="#g" x="21.485" y="149.86"/></g><use xlink:href="#h" x="27.089" y="149.86" style="fill:#000;fill-opacity:1"/><g style="fill:#000;fill-opacity:1"><use xlink:href="#i" x=".424" y="155.838"/><use xlink:href="#j" x="6.093" y="155.838"/><use xlink:href="#k" x="9.54" y="155.838"/><use xlink:href="#e" x="13.719" y="155.838"/><use xlink:href="#f" x="16.693" y="155.838"/><use xlink:href="#g" x="20.872" y="155.838"/></g><g style="fill:#000;fill-opacity:1"><use xlink:href="#n" x="26.476" y="155.838"/><use xlink:href="#m" x="30.252" y="155.838"/><use xlink:href="#y" x="34.028" y="155.838"/><use xlink:href="#o" x="37.804" y="155.838"/><use xlink:href="#x" x="39.976" y="155.838"/><use xlink:href="#x" x="43.752" y="155.838"/><use xlink:href="#p" x="47.527" y="155.838"/><use xlink:href="#p" x="51.303" y="155.838"/><use xlink:href="#x" x="55.079" y="155.838"/></g><use xlink:href="#F" x="71.21" y="141.89" style="fill:#000;fill-opacity:1"/><g style="fill:#000;fill-opacity:1"><use xlink:href="#b" x="71.21" y="149.86"/><use xlink:href="#c" x="78.767" y="149.86"/><use xlink:href="#d" x="80.939" y="149.86"/><use xlink:href="#e" x="85.118" y="149.86"/><use xlink:href="#f" x="88.092" y="149.86"/><use xlink:href="#g" x="92.271" y="149.86"/></g><g style="fill:#000;fill-opacity:1"><use xlink:href="#u" x="97.875" y="149.86"/><use xlink:href="#n" x="101.651" y="149.86"/><use xlink:href="#o" x="105.427" y="149.86"/><use xlink:href="#h" x="107.599" y="149.86"/><use xlink:href="#w" x="111.374" y="149.86"/><use xlink:href="#n" x="115.15" y="149.86"/><use xlink:href="#r" x="118.926" y="149.86"/></g><g style="fill:#000;fill-opacity:1"><use xlink:href="#i" x="71.21" y="155.838"/><use xlink:href="#j" x="76.879" y="155.838"/><use xlink:href="#k" x="80.326" y="155.838"/><use xlink:href="#e" x="84.505" y="155.838"/><use xlink:href="#f" x="87.479" y="155.838"/><use xlink:href="#g" x="91.658" y="155.838"/></g><g style="fill:#000;fill-opacity:1"><use xlink:href="#n" x="97.262" y="155.838"/><use xlink:href="#m" x="101.038" y="155.838"/><use xlink:href="#y" x="104.814" y="155.838"/><use xlink:href="#o" x="108.59" y="155.838"/><use xlink:href="#x" x="110.762" y="155.838"/><use xlink:href="#x" x="114.538" y="155.838"/><use xlink:href="#p" x="118.313" y="155.838"/><use xlink:href="#p" x="122.089" y="155.838"/><use xlink:href="#x" x="125.865" y="155.838"/></g><path style="fill:none;stroke-width:.3985;stroke-linecap:butt;stroke-linejoin:miter;stroke:#000;stroke-opacity:1;stroke-miterlimit:10" d="M60.826-146.496h9.562" transform="matrix(1 0 0 -1 -.771 -.605)"/><path style="fill:none;stroke-width:.3985;stroke-linecap:round;stroke-linejoin:round;stroke:#000;stroke-opacity:1;stroke-miterlimit:10" d="M-2.07 2.393C-1.693.955-.849.279 0 .002-.848-.28-1.692-.955-2.07-2.393" transform="matrix(1 0 0 -1 69.817 145.893)"/></svg>