<svg xmlns="http://www.w3.org/2000/svg" xmlns:xlink="http://www.w3.org/1999/xlink" width="89.523" height="87.435" viewBox="0 0 67.142 65.576" version="1.2"><defs><symbol overflow="visible" id="a"><path style="stroke:none" d="M5.563-1.813c.14 0 .312 0 .312-.171 0-.188-.172-.188-.313-.188H1c-.125 0-.297 0-.297.188 0 .171.172.171.297.171Zm0 0"/></symbol><symbol overflow="visible" id="b"><path style="stroke:none" d="M3.125-2.344c0 1.938-.922 2.266-1.39 2.266-.173 0-.579-.016-.798-.266.36-.031.375-.297.375-.375a.37.37 0 0 0-.375-.375.37.37 0 0 0-.375.39c0 .548.454.876 1.188.876 1.094 0 2.125-1.094 2.125-2.797 0-2.063-.922-2.672-1.734-2.672-.954 0-1.797.734-1.797 1.781 0 1.016.781 1.766 1.687 1.766.563 0 .906-.36 1.094-.766Zm-1.063.375c-.374 0-.609-.172-.78-.468-.188-.282-.188-.672-.188-1.079 0-.468 0-.796.218-1.125.204-.296.454-.453.829-.453.53 0 .765.532.796.563.157.39.172 1.015.172 1.172 0 .64-.343 1.39-1.046 1.39Zm0 0"/></symbol><symbol overflow="visible" id="c"><path style="stroke:none" d="M3.89-2.547c0-.844-.078-1.36-.343-1.875-.344-.703-1-.875-1.438-.875-1 0-1.375.75-1.484.969C.344-3.75.328-2.953.328-2.547c0 .531.016 1.328.406 1.969.36.594.954.75 1.375.75.391 0 1.063-.125 1.47-.906.296-.579.312-1.297.312-1.813ZM2.11-.062c-.266 0-.813-.126-.985-.954-.094-.453-.094-1.203-.094-1.625 0-.546 0-1.109.094-1.546.172-.813.781-.891.984-.891.266 0 .829.14.985.86.094.437.094 1.046.094 1.577 0 .47 0 1.188-.094 1.641-.172.828-.719.938-.985.938Zm0 0"/></symbol><symbol overflow="visible" id="e"><path style="stroke:none" d="M1.094-2.64c0-.657.062-1.235.343-1.72.25-.406.657-.734 1.157-.734.156 0 .515.032.703.297-.36.031-.39.297-.39.375 0 .25.187.375.374.375.14 0 .375-.078.375-.39 0-.47-.36-.86-1.078-.86C1.468-5.297.344-4.25.344-2.53.344-.36 1.359.172 2.125.172c.39 0 .797-.11 1.156-.453.328-.313.594-.64.594-1.344 0-1.031-.797-1.766-1.672-1.766-.578 0-.922.36-1.11.75ZM2.125-.079a.88.88 0 0 1-.797-.516c-.187-.36-.203-.89-.203-1.203 0-.781.422-1.375 1.047-1.375.39 0 .64.203.781.485.172.296.172.656.172 1.062s0 .75-.156 1.047c-.219.36-.485.5-.844.5Zm0 0"/></symbol><symbol overflow="visible" id="f"><path style="stroke:none" d="M2.016-2.656c.625 0 1.03.453 1.03 1.297 0 1-.562 1.28-.983 1.28-.438 0-1.047-.155-1.329-.577.297 0 .5-.188.5-.438 0-.265-.187-.437-.453-.437-.203 0-.437.125-.437.453 0 .75.812 1.25 1.734 1.25 1.047 0 1.797-.734 1.797-1.531 0-.672-.531-1.266-1.344-1.454.625-.218 1.11-.75 1.11-1.39 0-.64-.72-1.094-1.547-1.094-.86 0-1.5.453-1.5 1.063 0 .296.187.421.406.421.25 0 .406-.171.406-.406 0-.297-.265-.406-.437-.406.344-.438.953-.469 1.094-.469.203 0 .812.063.812.89 0 .548-.234.891-.344 1.016-.234.25-.422.266-.906.297-.156 0-.219.016-.219.125 0 .11.078.11.219.11Zm0 0"/></symbol><symbol overflow="visible" id="g"><path style="stroke:none" d="M2.5-5.078c0-.219-.016-.219-.234-.219-.329.313-.75.5-1.5.5v.266c.218 0 .64 0 1.109-.203v4.078c0 .297-.031.39-.781.39H.812V0c.329-.031 1.016-.031 1.375-.031.36 0 1.047 0 1.376.031v-.266H3.28c-.75 0-.781-.093-.781-.39Zm0 0"/></symbol><symbol overflow="visible" id="d"><path style="stroke:none" d="M3.266-1.5c0-.75-.61-1.36-1.36-1.36-.734 0-1.343.61-1.343 1.36 0 .766.609 1.36 1.343 1.36.75 0 1.36-.594 1.36-1.36ZM1.906-.453A1.024 1.024 0 0 1 .875-1.5c0-.578.453-1.047 1.031-1.047.578 0 1.047.469 1.047 1.047 0 .594-.469 1.047-1.047 1.047Zm0 0"/></symbol></defs><path style="fill:none;stroke-width:.3985;stroke-linecap:round;stroke-linejoin:miter;stroke:gray;stroke-opacity:1;stroke-miterlimit:10" d="M.001-33.329v-1.992M16.665-28.864l.996-1.726M28.864-16.665l1.723-.996M33.33 0h1.991M-6.976 0h1.997M-6.976-18.899h1.997M.001 4.98v1.992M18.9 4.98v1.992" transform="matrix(1 0 0 -1 14.167 20.562)"/><path style="fill:none;stroke-width:.3985;stroke-linecap:square;stroke-linejoin:miter;stroke:#bfbfbf;stroke-opacity:1;stroke-miterlimit:10" d="M.001-28.348c15.656 0 28.348 12.691 28.348 28.348" transform="matrix(1 0 0 -1 14.167 20.562)"/><path style="fill:none;stroke-width:.3985;stroke-linecap:square;stroke-linejoin:miter;stroke:gray;stroke-opacity:1;stroke-miterlimit:10" d="M.001-33.329c18.406 0 33.328 14.922 33.328 33.328" transform="matrix(1 0 0 -1 14.167 20.562)"/><path style="fill:none;stroke-width:.3985;stroke-linecap:square;stroke-linejoin:miter;stroke:#bfbfbf;stroke-opacity:1;stroke-miterlimit:10" d="M.001 0v-28.348" transform="matrix(1 0 0 -1 14.167 20.562)"/><path style="fill:none;stroke-width:.3985;stroke-linecap:square;stroke-linejoin:miter;stroke:gray;stroke-opacity:1;stroke-miterlimit:10" d="M-4.98 0v-28.348" transform="matrix(1 0 0 -1 14.167 20.562)"/><path style="fill:none;stroke-width:.3985;stroke-linecap:square;stroke-linejoin:miter;stroke:#bfbfbf;stroke-opacity:1;stroke-miterlimit:10" d="M.001 0h28.348" transform="matrix(1 0 0 -1 14.167 20.562)"/><path style="fill:none;stroke-width:.3985;stroke-linecap:square;stroke-linejoin:miter;stroke:gray;stroke-opacity:1;stroke-miterlimit:10" d="M.001 4.98h28.348" transform="matrix(1 0 0 -1 14.167 20.562)"/><path style="fill:none;stroke-width:.3985;stroke-linecap:butt;stroke-linejoin:miter;stroke:#000;stroke-opacity:1;stroke-miterlimit:10" d="m7.47 1.824 2.816 2.816m-2.816 0 2.816-2.816M14.958 8.039l2.816 2.82m-2.816 0 2.816-2.82M20.306 16.812l2.816 2.816m-2.816 0 2.816-2.816" transform="matrix(1 0 0 -1 14.167 20.562)"/><use xlink:href="#a" x="4.481" y="64.201" style="fill:#000;fill-opacity:1"/><g style="fill:#000;fill-opacity:1"><use xlink:href="#b" x="11.067" y="64.201"/><use xlink:href="#c" x="15.302" y="64.201"/></g><use xlink:href="#d" x="19.535" y="61.388" style="fill:#000;fill-opacity:1"/><use xlink:href="#a" x="34.483" y="59.469" style="fill:#000;fill-opacity:1"/><g style="fill:#000;fill-opacity:1"><use xlink:href="#e" x="41.069" y="59.469"/><use xlink:href="#c" x="45.304" y="59.469"/></g><use xlink:href="#d" x="49.537" y="56.656" style="fill:#000;fill-opacity:1"/><use xlink:href="#a" x="47.411" y="46.541" style="fill:#000;fill-opacity:1"/><g style="fill:#000;fill-opacity:1"><use xlink:href="#f" x="53.997" y="46.541"/><use xlink:href="#c" x="58.232" y="46.541"/></g><use xlink:href="#d" x="62.466" y="43.728" style="fill:#000;fill-opacity:1"/><use xlink:href="#c" x="52.143" y="23.393" style="fill:#000;fill-opacity:1"/><use xlink:href="#d" x="56.377" y="20.58" style="fill:#000;fill-opacity:1"/><use xlink:href="#c" x=".302" y="23.13" style="fill:#000;fill-opacity:1"/><use xlink:href="#g" x=".302" y="42.027" style="fill:#000;fill-opacity:1"/><use xlink:href="#c" x="12.049" y="10.932" style="fill:#000;fill-opacity:1"/><use xlink:href="#g" x="30.947" y="10.932" style="fill:#000;fill-opacity:1"/></svg>