<svg xmlns="http://www.w3.org/2000/svg" width="78.663" height="78.603" viewBox="0 0 58.997 58.952" version="1.2"><defs><clipPath id="a"><path d="M9 0h49.996v58.93H9Zm0 0"/></clipPath><clipPath id="b"><path d="M23 0h35.996v58.93H23Zm0 0"/></clipPath></defs><path style="fill:none;stroke-width:.19925;stroke-linecap:butt;stroke-linejoin:miter;stroke:gray;stroke-opacity:1;stroke-miterlimit:10" d="M.002 0h56.691M.002 28.346h56.691M.002 56.683h56.691M.002-.001v56.695M28.346 0v56.695M56.686 0v56.695" transform="matrix(1 0 0 -1 1.107 57.796)"/><g clip-path="url(#a)"><path style="fill:none;stroke-width:.3985;stroke-linecap:butt;stroke-linejoin:miter;stroke:#000;stroke-opacity:1;stroke-miterlimit:10" d="m14.174 0 42.52 56.694" transform="matrix(1 0 0 -1 1.107 57.796)"/></g><g clip-path="url(#b)"><path style="fill:none;stroke-width:.3985;stroke-linecap:butt;stroke-linejoin:miter;stroke:#000;stroke-opacity:1;stroke-miterlimit:10" d="M28.346 56.694 56.693 0" transform="matrix(1 0 0 -1 1.107 57.796)"/></g><path style="fill:none;stroke-width:.3985;stroke-linecap:butt;stroke-linejoin:miter;stroke:#000;stroke-opacity:1;stroke-miterlimit:10" d="M41.678 34.019a1.993 1.993 0 1 1-1.993-1.996c1.102 0 1.993.894 1.993 1.996Zm0 0" transform="matrix(1 0 0 -1 1.107 57.796)"/></svg>