<svg xmlns="http://www.w3.org/2000/svg" xmlns:xlink="http://www.w3.org/1999/xlink" width="79.852" height="79.852" viewBox="0 0 59.889 59.889" version="1.2"><defs><symbol overflow="visible" id="b"><path style="stroke:none" d="M8.578 0v-.469H7.5v-5.906h1.078v-.469c-.39.032-1.36.032-1.797.032-.422 0-1.39 0-1.781-.032v.469h1.078v2.594H2.875v-2.594h1.078v-.469c-.375.032-1.344.032-1.781.032-.422 0-1.406 0-1.781-.032v.469h1.078v5.906H.39V0C.766-.031 1.75-.031 2.17-.031c.438 0 1.407 0 1.782.031v-.469H2.875v-2.844h3.203v2.844H5V0c.39-.031 1.36-.031 1.781-.031.438 0 1.407 0 1.797.031Zm0 0"/></symbol><symbol overflow="visible" id="c"><path style="stroke:none" d="M2.844 0v-.469h-.61v-4.015L.5-4.406v.468c.594 0 .656 0 .656.391v3.078H.47V0l1.219-.031Zm-.469-6.047a.774.774 0 0 0-.781-.781.784.784 0 0 0-.782.781c0 .422.36.766.782.766a.77.77 0 0 0 .781-.766Zm0 0"/></symbol><clipPath id="a"><path d="M0 0h42v59.832H0Zm0 0"/></clipPath></defs><path style="fill:none;stroke-width:1.19553;stroke-linecap:butt;stroke-linejoin:miter;stroke:red;stroke-opacity:1;stroke-miterlimit:10" d="M0 .001v56.692h56.692V0Zm0 0" transform="matrix(1 0 0 -1 1.542 58.236)"/><path style="fill:none;stroke-width:1.19553;stroke-linecap:butt;stroke-linejoin:miter;stroke:#00f;stroke-opacity:1;stroke-miterlimit:10" d="M14.174 14.173v28.348h56.691V14.173Zm0 0" transform="matrix(1 0 0 -1 -12.63 58.235)"/><g clip-path="url(#a)"><path style="fill:none;stroke-width:.79701;stroke-linecap:butt;stroke-linejoin:miter;stroke:#000;stroke-opacity:1;stroke-miterlimit:10" d="M42.522 28.345c0 15.656-6.348 28.348-14.176 28.348S14.174 44 14.174 28.345C14.174 12.693 20.518 0 28.346 0s14.176 12.692 14.176 28.344Zm0 0" transform="matrix(1 0 0 -1 -12.63 58.235)"/></g><g style="fill:#000;fill-opacity:1"><use xlink:href="#b" x="9.643" y="33.305"/><use xlink:href="#c" x="18.609" y="33.305"/></g></svg>