<svg xmlns="http://www.w3.org/2000/svg" xmlns:xlink="http://www.w3.org/1999/xlink" width="164.345" height="145.227" viewBox="0 0 123.259 108.92" version="1.2"><defs><symbol overflow="visible" id="d"><path style="stroke:none" d="M5.563-1.813c.14 0 .312 0 .312-.171 0-.188-.172-.188-.313-.188H1c-.125 0-.297 0-.297.188 0 .171.172.171.297.171Zm0 0"/></symbol><symbol overflow="visible" id="e"><path style="stroke:none" d="M2.25-1.625c.125-.125.453-.39.594-.5.484-.453.953-.89.953-1.61 0-.953-.797-1.562-1.781-1.562-.97 0-1.594.719-1.594 1.438 0 .39.312.437.422.437.172 0 .422-.11.422-.422 0-.406-.407-.406-.5-.406.234-.594.765-.781 1.156-.781.734 0 1.125.625 1.125 1.297 0 .828-.578 1.437-1.531 2.39l-1 1.047C.422-.219.422-.203.422 0h3.14l.235-1.422h-.25c-.016.156-.078.547-.172.703-.047.063-.656.063-.781.063H1.172Zm0 0"/></symbol><symbol overflow="visible" id="f"><path style="stroke:none" d="M2.5-5.078c0-.219-.016-.219-.234-.219-.329.313-.75.5-1.5.5v.266c.218 0 .64 0 1.109-.203v4.078c0 .297-.031.39-.781.39H.812V0c.329-.031 1.016-.031 1.375-.031.36 0 1.047 0 1.376.031v-.266H3.28c-.75 0-.781-.093-.781-.39Zm0 0"/></symbol><symbol overflow="visible" id="g"><path style="stroke:none" d="M3.89-2.547c0-.844-.078-1.36-.343-1.875-.344-.703-1-.875-1.438-.875-1 0-1.375.75-1.484.969C.344-3.75.328-2.953.328-2.547c0 .531.016 1.328.406 1.969.36.594.954.75 1.375.75.391 0 1.063-.125 1.47-.906.296-.579.312-1.297.312-1.813ZM2.11-.062c-.266 0-.813-.126-.985-.954-.094-.453-.094-1.203-.094-1.625 0-.546 0-1.109.094-1.546.172-.813.781-.891.984-.891.266 0 .829.14.985.86.094.437.094 1.046.094 1.577 0 .47 0 1.188-.094 1.641-.172.828-.719.938-.985.938Zm0 0"/></symbol><clipPath id="a"><path d="M61 1h1v107.879h-1Zm0 0"/></clipPath><clipPath id="b"><path d="M10 31h112.887v65H10Zm0 0"/></clipPath><clipPath id="c"><path d="M57 38h65.887v70.879H57Zm0 0"/></clipPath></defs><path style="fill:none;stroke-width:.3985;stroke-linecap:round;stroke-linejoin:miter;stroke:#000;stroke-opacity:1;stroke-miterlimit:10" d="M-42.518-1.994v3.988M-21.26-1.994v3.988M21.259-1.994v3.988M42.52-1.994v3.988M-1.991-21.26h3.984M-1.991 21.26h3.984M-1.991 42.522h3.984" transform="matrix(1 0 0 -1 61.26 66.213)"/><path style="fill:none;stroke-width:.3985;stroke-linecap:butt;stroke-linejoin:miter;stroke:#000;stroke-opacity:1;stroke-miterlimit:10" d="M-60.624-.002H60.224" transform="matrix(1 0 0 -1 61.26 66.213)"/><path style="fill:none;stroke-width:.3985;stroke-linecap:round;stroke-linejoin:round;stroke:#000;stroke-opacity:1;stroke-miterlimit:10" d="M-2.074 2.393C-1.694.955-.85.279 0-.002c-.851-.277-1.695-.953-2.074-2.39" transform="matrix(1 0 0 -1 121.683 66.213)"/><g clip-path="url(#a)"><path style="fill:none;stroke-width:.3985;stroke-linecap:butt;stroke-linejoin:miter;stroke:#000;stroke-opacity:1;stroke-miterlimit:10" d="M.001-41.662V64.854" transform="matrix(1 0 0 -1 61.26 66.213)"/></g><path style="fill:none;stroke-width:.3985;stroke-linecap:round;stroke-linejoin:round;stroke:#000;stroke-opacity:1;stroke-miterlimit:10" d="M-2.07 2.39C-1.697.955-.853.28 0-.002c-.852-.278-1.696-.957-2.07-2.39" transform="matrix(0 -1 -1 0 61.26 1.16)"/><path style="fill:none;stroke-width:.59776;stroke-linecap:butt;stroke-linejoin:miter;stroke:#000;stroke-opacity:1;stroke-dasharray:2.98885,.89665,.89665,.89665;stroke-miterlimit:10" d="M-53.151 1.744s2.242.192 3.101.274c.86.082 2.239.222 3.102.316a164.333 164.333 0 0 1 9.3 1.281c.86.149 2.24.403 3.098.57.864.173 2.243.462 3.102.657.86.2 2.242.535 3.102.762.859.226 2.238.617 3.097.879.863.265 2.242.714 3.102 1.02.86.304 2.242.823 3.101 1.179a71.2 71.2 0 0 1 3.098 1.363 66.232 66.232 0 0 1 3.102 1.578c.859.469 2.242 1.277 3.101 1.824a63.05 63.05 0 0 1 3.098 2.11c.863.629 2.242 1.71 3.101 2.441.86.73 2.243 1.98 3.102 2.828.86.844 2.238 2.285 3.101 3.262.86.977 2.239 2.648 3.098 3.781a94.282 94.282 0 0 1 3.102 4.375 112.05 112.05 0 0 1 3.101 5.063c.86 1.515 2.239 4.105 3.098 5.855.86 1.754 2.242 4.75 3.101 6.778.86 2.027 3.102 7.84 3.102 7.84" transform="matrix(1 0 0 -1 61.26 66.213)"/><path style="fill:none;stroke-width:.59776;stroke-linecap:butt;stroke-linejoin:miter;stroke:#000;stroke-opacity:1;stroke-dasharray:.89665,.89665;stroke-miterlimit:10" d="M-31.89 47.834s1.919-5.613 2.657-7.64a284.025 284.025 0 0 1 2.66-6.977 204.472 204.472 0 0 1 2.656-6.309 166.17 166.17 0 0 1 2.657-5.648 128.224 128.224 0 0 1 2.656-4.985 88.933 88.933 0 0 1 2.66-4.316c.738-1.105 1.918-2.734 2.656-3.656a45.746 45.746 0 0 1 2.656-2.988c.739-.739 1.922-1.774 2.66-2.325.739-.554 1.919-1.293 2.657-1.66C-4.577.96-3.393.518-2.66.334a12.917 12.917 0 0 1 2.66-.336c.735 0 1.918.149 2.656.336.739.184 1.922.625 2.657.996.738.367 1.922 1.106 2.66 1.66.734.551 1.918 1.586 2.656 2.325.738.738 1.918 2.07 2.656 2.988.739.922 1.922 2.55 2.66 3.656a92.139 92.139 0 0 1 2.657 4.317 123.108 123.108 0 0 1 2.656 4.984 166.06 166.06 0 0 1 2.66 5.648 225.752 225.752 0 0 1 2.656 6.309 284.28 284.28 0 0 1 2.657 6.976c.738 2.028 2.66 7.641 2.66 7.641" transform="matrix(1 0 0 -1 61.26 66.213)"/><g clip-path="url(#b)"><path style="fill:none;stroke-width:.59776;stroke-linecap:butt;stroke-linejoin:miter;stroke:#000;stroke-opacity:1;stroke-dasharray:2.98885,1.19554;stroke-miterlimit:10" d="M-42.518-21.26s2.879 1.442 3.984 1.993c1.106.554 2.879 1.44 3.988 1.992 1.106.554 2.88 1.441 3.985 1.996 1.105.55 2.879 1.437 3.988 1.992 1.105.55 2.879 1.441 3.984 1.992 1.106.555 2.88 1.442 3.985 1.992l3.988 1.996c1.105.551 2.879 1.438 3.984 1.993 1.11.55 2.883 1.437 3.989 1.992 1.105.555 2.879 1.441 3.984 1.992C-1.549-.775.224.111 1.33.666c1.106.55 2.88 1.438 3.985 1.992 1.105.551 2.883 1.438 3.988 1.993 1.105.554 2.879 1.44 3.984 1.992 1.106.554 2.883 1.441 3.989 1.996 1.105.55 2.879 1.437 3.984 1.992 1.105.55 2.883 1.437 3.988 1.992 1.106.555 2.88 1.442 3.985 1.992 1.105.555 2.879 1.442 3.988 1.993 1.105.554 2.879 1.44 3.984 1.996 1.106.55 2.88 1.437 3.989 1.992 1.105.555 2.879 1.441 3.984 1.992 1.105.555 2.879 1.441 3.988 1.992l3.985 1.996" transform="matrix(1 0 0 -1 61.26 66.213)"/></g><g clip-path="url(#c)"><path style="fill:none;stroke-width:.59776;stroke-linecap:butt;stroke-linejoin:miter;stroke:#000;stroke-opacity:1;stroke-miterlimit:10" d="M4.251-34.19s1.473 6.317 2.04 8.298c.562 1.976 1.472 4.488 2.034 5.96.567 1.473 1.473 3.477 2.04 4.653.562 1.176 1.472 2.84 2.035 3.82a64.787 64.787 0 0 0 2.039 3.23c.566.84 1.472 2.075 2.035 2.81.566.73 1.473 1.823 2.039 2.476a71.924 71.924 0 0 0 2.035 2.219 75.658 75.658 0 0 0 2.04 2.011 72.038 72.038 0 0 0 2.038 1.836 79.039 79.039 0 0 0 2.035 1.692 88.68 88.68 0 0 0 2.04 1.562 85.423 85.423 0 0 0 2.035 1.461c.566.39 1.472.996 2.039 1.363.562.367 1.468.934 2.035 1.282a111.356 111.356 0 0 0 4.074 2.351 172 172 0 0 0 2.04 1.086c.562.293 1.472.754 2.034 1.035.567.281 1.473.719 2.04.985.566.265 1.472.683 2.034.941.567.254 1.473.656 2.04.902.566.246 1.472.63 2.035.864.566.234 2.039.832 2.039.832" transform="matrix(1 0 0 -1 61.26 66.213)"/></g><use xlink:href="#d" x="13.332" y="75.998" style="fill:#000;fill-opacity:1"/><use xlink:href="#e" x="19.918" y="75.998" style="fill:#000;fill-opacity:1"/><use xlink:href="#d" x="34.59" y="75.998" style="fill:#000;fill-opacity:1"/><use xlink:href="#f" x="41.178" y="75.998" style="fill:#000;fill-opacity:1"/><use xlink:href="#f" x="80.403" y="75.998" style="fill:#000;fill-opacity:1"/><use xlink:href="#e" x="101.663" y="75.998" style="fill:#000;fill-opacity:1"/><use xlink:href="#d" x="45.791" y="89.625" style="fill:#000;fill-opacity:1"/><use xlink:href="#f" x="52.379" y="89.625" style="fill:#000;fill-opacity:1"/><use xlink:href="#g" x="54.37" y="74.005" style="fill:#000;fill-opacity:1"/><use xlink:href="#f" x="52.379" y="47.521" style="fill:#000;fill-opacity:1"/><use xlink:href="#e" x="52.379" y="26.262" style="fill:#000;fill-opacity:1"/></svg>