<svg xmlns="http://www.w3.org/2000/svg" width="87.644" height="91.347" viewBox="0 0 65.733 68.51" version="1.2"><defs><clipPath id="a"><path d="M22 52h22v16.266H22Zm0 0"/></clipPath></defs><path style="fill:none;stroke-width:.3985;stroke-linecap:butt;stroke-linejoin:miter;stroke:#000;stroke-opacity:1;stroke-miterlimit:10" d="M4.696 56.693a4.695 4.695 0 0 1-4.695 4.695 4.695 4.695 0 0 1-4.695-4.695A4.695 4.695 0 0 1 0 51.998a4.695 4.695 0 0 1 4.695 4.695ZM4.696 28.345c0 2.594-2.101 4.7-4.695 4.7a4.698 4.698 0 0 1 0-9.395 4.695 4.695 0 0 1 4.695 4.695Zm0 0" transform="matrix(1 0 0 -1 32.733 62.361)"/><g clip-path="url(#a)"><path style="fill:none;stroke-width:.3985;stroke-linecap:butt;stroke-linejoin:miter;stroke:#000;stroke-opacity:1;stroke-miterlimit:10" d="M4.696.002A4.695 4.695 0 0 1 .001 4.697a4.698 4.698 0 0 1 0-9.395 4.698 4.698 0 0 1 4.695 4.7Zm0 0" transform="matrix(1 0 0 -1 32.733 62.361)"/></g><path style="fill:none;stroke-width:.3985;stroke-linecap:butt;stroke-linejoin:miter;stroke:#000;stroke-opacity:1;stroke-miterlimit:10" d="M25.024 25.025h6.645v6.64h-6.645ZM-31.667 25.025h6.64v6.64h-6.64Zm0 0" transform="matrix(1 0 0 -1 32.733 62.361)"/></svg>