<svg xmlns="http://www.w3.org/2000/svg" xmlns:xlink="http://www.w3.org/1999/xlink" width="126.072" height="56.451" viewBox="0 0 94.554 42.338" version="1.2"><defs><clipPath id="e"><path d="M16 15h78.332v27.008H16Zm0 0"/></clipPath><clipPath id="f"><path d="M18 15h76.332v27.008H18Zm0 0"/></clipPath><clipPath id="g"><path d="M20 15h74.332v27.008H20Zm0 0"/></clipPath><clipPath id="h"><path d="M22 15h72.332v27.008H22Zm0 0"/></clipPath><clipPath id="i"><path d="M24 15h70.332v27.008H24Zm0 0"/></clipPath><clipPath id="j"><path d="M26 15h68.332v27H26Zm0 0"/></clipPath><clipPath id="k"><path d="M29 15h65.332v24H29Zm0 0"/></clipPath><clipPath id="l"><path d="M33 15h61.332v21H33Zm0 0"/></clipPath><clipPath id="m"><path d="M36 15h58.332v17H36Zm0 0"/></clipPath><clipPath id="n"><path d="M38 15h56.332v12H38Zm0 0"/></clipPath><clipPath id="o"><path d="M36 10h58.332v17H36Zm0 0"/></clipPath><clipPath id="p"><path d="M33 6h61.332v21H33Zm0 0"/></clipPath><clipPath id="q"><path d="M29 2h65.332v25H29Zm0 0"/></clipPath><clipPath id="r"><path d="M26 0h68.332v27H26Zm0 0"/></clipPath><clipPath id="s"><path d="M24 0h70.332v27H24Zm0 0"/></clipPath><clipPath id="t"><path d="M22 0h72.332v27H22Zm0 0"/></clipPath><clipPath id="u"><path d="M20 0h74.332v27H20Zm0 0"/></clipPath><clipPath id="v"><path d="M18 0h76.332v27H18Zm0 0"/></clipPath><clipPath id="w"><path d="M16 0h78.332v27H16Zm0 0"/></clipPath><symbol overflow="visible" id="a"><path style="stroke:none" d="M4.14-1.39c0-.438-.202-.782-.546-1.063-.39-.281-.719-.344-1.485-.485-.375-.062-1.015-.171-1.015-.64 0-.625.922-.625 1.11-.625.75 0 1.124.297 1.171.844.016.156.031.203.234.203.235 0 .235-.047.235-.281v-.797c0-.188 0-.282-.172-.282-.047 0-.063 0-.453.188-.266-.125-.61-.188-1-.188-.313 0-1.844 0-1.844 1.313 0 .39.203.656.406.828.39.344.781.406 1.547.547.36.062 1.094.187 1.094.781 0 .75-.906.75-1.125.75C1.234-.297.984-1.03.859-1.453c-.046-.14-.109-.14-.234-.14-.25 0-.25.062-.25.28v1.094c0 .188 0 .281.188.281.062 0 .078 0 .296-.156l.25-.172c.47.329.985.329 1.188.329.312 0 1.844 0 1.844-1.454Zm0 0"/></symbol><symbol overflow="visible" id="b"><path style="stroke:none" d="M3.813-1.234v-.532h-.47v.516c0 .672-.327.906-.609.906-.578 0-.578-.64-.578-.86v-2.75h1.469v-.468H2.156v-1.906h-.469c0 1-.484 1.984-1.484 2.016v.359h.828v2.734c0 1.063.86 1.282 1.578 1.282.75 0 1.204-.579 1.204-1.297Zm0 0"/></symbol><symbol overflow="visible" id="c"><path style="stroke:none" d="M5.516-.234c0-.235-.125-.235-.266-.235-.61-.015-.61-.14-.61-.375v-2.14c0-.891-.702-1.532-2.187-1.532-.562 0-1.781.047-1.781.922 0 .438.344.625.61.625.312 0 .624-.219.624-.625 0-.297-.187-.469-.218-.5a5.28 5.28 0 0 1 .718-.062c.75 0 1.11.422 1.11 1.172v.343c-.72.032-3.25.125-3.25 1.563C.266-.125 1.5.062 2.187.062c.797 0 1.266-.406 1.485-.828 0 .313 0 .766 1.047.766h.468c.204 0 .329 0 .329-.234Zm-2-1.157c0 .97-.922 1.094-1.172 1.094-.516 0-.906-.344-.906-.797 0-1.062 1.578-1.203 2.078-1.234Zm0 0"/></symbol><symbol overflow="visible" id="d"><path style="stroke:none" d="M4.406-3.672c0-.531-.531-.812-1.062-.812-.688 0-1.094.5-1.313 1.125v-1.125l-1.656.078v.468c.61 0 .688 0 .688.391v3.078H.375V0l1.25-.031C2-.031 2.641-.031 3 0v-.469h-.86v-1.75c0-.687.235-1.906 1.235-1.906 0 0-.188.172-.188.453 0 .406.329.61.61.61.297 0 .61-.204.61-.61Zm0 0"/></symbol></defs><path style="fill:none;stroke-width:.3985;stroke-linecap:butt;stroke-linejoin:miter;stroke:#000;stroke-opacity:1;stroke-miterlimit:10" d="M21.47.001c0 5.086-9.612 9.211-21.472 9.211-11.855 0-21.469-4.125-21.469-9.21 0-5.09 9.614-9.212 21.47-9.212C11.856-9.21 21.47-5.089 21.47.001Zm0 0" transform="matrix(1 0 0 -1 22.455 20.841)"/><g style="fill:#000;fill-opacity:1"><use xlink:href="#a" x="10.594" y="23.975"/><use xlink:href="#b" x="15.117" y="23.975"/><use xlink:href="#c" x="19.57" y="23.975"/><use xlink:href="#d" x="25.139" y="23.975"/><use xlink:href="#b" x="29.862" y="23.975"/></g><g clip-path="url(#e)"><path style="fill:none;stroke-width:.3985;stroke-linecap:butt;stroke-linejoin:miter;stroke:#000;stroke-opacity:1;stroke-miterlimit:10" d="M-.002-9.409c0-28.348 42.524 9.41 70.867 9.41" transform="matrix(1 0 0 -1 22.455 20.841)"/></g><g clip-path="url(#f)"><path style="fill:none;stroke-width:.3985;stroke-linecap:butt;stroke-linejoin:miter;stroke:#000;stroke-opacity:1;stroke-miterlimit:10" d="M1.654-9.382C6.576-37.3 42.522.001 70.865.001" transform="matrix(1 0 0 -1 22.455 20.841)"/></g><g clip-path="url(#g)"><path style="fill:none;stroke-width:.3985;stroke-linecap:butt;stroke-linejoin:miter;stroke:#000;stroke-opacity:1;stroke-miterlimit:10" d="M3.38-9.296C13.077-35.932 42.523.001 70.866.001" transform="matrix(1 0 0 -1 22.455 20.841)"/></g><g clip-path="url(#h)"><path style="fill:none;stroke-width:.3985;stroke-linecap:butt;stroke-linejoin:miter;stroke:#000;stroke-opacity:1;stroke-miterlimit:10" d="M5.268-9.128C19.443-33.678 42.522.002 70.865.002" transform="matrix(1 0 0 -1 22.455 20.841)"/></g><g clip-path="url(#i)"><path style="fill:none;stroke-width:.3985;stroke-linecap:butt;stroke-linejoin:miter;stroke:#000;stroke-opacity:1;stroke-miterlimit:10" d="M7.42-8.843C25.639-30.557 42.522.001 70.865.001" transform="matrix(1 0 0 -1 22.455 20.841)"/></g><g clip-path="url(#j)"><path style="fill:none;stroke-width:.3985;stroke-linecap:butt;stroke-linejoin:miter;stroke:#000;stroke-opacity:1;stroke-miterlimit:10" d="M9.96-8.358C31.673-26.577 42.521.002 70.864.002" transform="matrix(1 0 0 -1 22.455 20.841)"/></g><g clip-path="url(#k)"><path style="fill:none;stroke-width:.3985;stroke-linecap:butt;stroke-linejoin:miter;stroke:#000;stroke-opacity:1;stroke-miterlimit:10" d="M13.025-7.522C37.576-21.694 42.522 0 70.865 0" transform="matrix(1 0 0 -1 22.455 20.841)"/></g><g clip-path="url(#l)"><path style="fill:none;stroke-width:.3985;stroke-linecap:butt;stroke-linejoin:miter;stroke:#000;stroke-opacity:1;stroke-miterlimit:10" d="M16.608-6.046C43.243-15.74 42.522.001 70.864.001" transform="matrix(1 0 0 -1 22.455 20.841)"/></g><g clip-path="url(#m)"><path style="fill:none;stroke-width:.3985;stroke-linecap:butt;stroke-linejoin:miter;stroke:#000;stroke-opacity:1;stroke-miterlimit:10" d="M20.076-3.542C47.994-8.464 42.522.001 70.866.001" transform="matrix(1 0 0 -1 22.455 20.841)"/></g><g clip-path="url(#n)"><path style="fill:none;stroke-width:.3985;stroke-linecap:butt;stroke-linejoin:miter;stroke:#000;stroke-opacity:1;stroke-miterlimit:10" d="M21.67.001h49.195" transform="matrix(1 0 0 -1 22.455 20.841)"/></g><g clip-path="url(#o)"><path style="fill:none;stroke-width:.3985;stroke-linecap:butt;stroke-linejoin:miter;stroke:#000;stroke-opacity:1;stroke-miterlimit:10" d="M20.076 3.54C47.994 8.462 42.522.001 70.866.001" transform="matrix(1 0 0 -1 22.455 20.841)"/></g><g clip-path="url(#p)"><path style="fill:none;stroke-width:.3985;stroke-linecap:butt;stroke-linejoin:miter;stroke:#000;stroke-opacity:1;stroke-miterlimit:10" d="M16.608 6.044C43.243 15.74 42.522.001 70.864.001" transform="matrix(1 0 0 -1 22.455 20.841)"/></g><g clip-path="url(#q)"><path style="fill:none;stroke-width:.3985;stroke-linecap:butt;stroke-linejoin:miter;stroke:#000;stroke-opacity:1;stroke-miterlimit:10" d="M13.025 7.52C37.576 21.694 42.522.002 70.865.002" transform="matrix(1 0 0 -1 22.455 20.841)"/></g><g clip-path="url(#r)"><path style="fill:none;stroke-width:.3985;stroke-linecap:butt;stroke-linejoin:miter;stroke:#000;stroke-opacity:1;stroke-miterlimit:10" d="M9.96 8.357C31.673 26.579 42.521 0 70.864 0" transform="matrix(1 0 0 -1 22.455 20.841)"/></g><g clip-path="url(#s)"><path style="fill:none;stroke-width:.3985;stroke-linecap:butt;stroke-linejoin:miter;stroke:#000;stroke-opacity:1;stroke-miterlimit:10" d="M7.42 8.841C25.639 30.556 42.522.001 70.865.001" transform="matrix(1 0 0 -1 22.455 20.841)"/></g><g clip-path="url(#t)"><path style="fill:none;stroke-width:.3985;stroke-linecap:butt;stroke-linejoin:miter;stroke:#000;stroke-opacity:1;stroke-miterlimit:10" d="M5.268 9.13C19.443 33.677 42.522.001 70.865.001" transform="matrix(1 0 0 -1 22.455 20.841)"/></g><g clip-path="url(#u)"><path style="fill:none;stroke-width:.3985;stroke-linecap:butt;stroke-linejoin:miter;stroke:#000;stroke-opacity:1;stroke-miterlimit:10" d="M3.38 9.294C13.077 35.931 42.523.001 70.866.001" transform="matrix(1 0 0 -1 22.455 20.841)"/></g><g clip-path="url(#v)"><path style="fill:none;stroke-width:.3985;stroke-linecap:butt;stroke-linejoin:miter;stroke:#000;stroke-opacity:1;stroke-miterlimit:10" d="M1.654 9.384C6.576 37.298 42.522.001 70.865.001" transform="matrix(1 0 0 -1 22.455 20.841)"/></g><g clip-path="url(#w)"><path style="fill:none;stroke-width:.3985;stroke-linecap:butt;stroke-linejoin:miter;stroke:#000;stroke-opacity:1;stroke-miterlimit:10" d="M-.002 9.411c0 28.348 42.524-9.41 70.867-9.41" transform="matrix(1 0 0 -1 22.455 20.841)"/></g></svg>