<svg xmlns="http://www.w3.org/2000/svg" width="134.571" height="134.547" viewBox="0 0 100.928 100.91" version="1.2"><defs><clipPath id="a"><path d="M0 0h100.89v100.863H0Zm0 0"/></clipPath></defs><g clip-path="url(#a)"><path style="fill:none;stroke-width:.3985;stroke-linecap:butt;stroke-linejoin:miter;stroke:#000;stroke-opacity:1;stroke-miterlimit:10" d="m0 .001 83.75 14.766M-.985 5.583l83.75 14.766m-84.734-9.184 83.75 14.77M-2.953 16.75l83.75 14.766m-84.735-9.184L79.812 37.1m-84.734-9.184 83.75 14.77M-5.907 33.5l83.75 14.766M-6.89 39.083 76.86 53.85m-84.734-9.184 83.75 14.77M-8.86 50.25l83.75 14.766m-84.734-9.184L73.906 70.6m-84.734-9.184 83.75 14.77M-11.813 67l83.75 14.766m-84.734-9.184 83.75 14.766m-84.735-9.184 83.75 14.77m-84.734-9.184 83.75 14.766M0 0l-14.766 83.75M2.793.493l-14.77 83.75M5.582.985l-14.766 83.75M8.375 1.478l-14.766 83.75M11.168 1.97l-14.77 83.75M13.957 2.462-.81 86.212M16.75 2.954 1.984 86.704M19.543 3.446l-14.77 83.75M22.332 3.94 7.566 87.689M25.125 4.43 10.359 88.18M27.918 4.923l-14.77 83.75M30.707 5.415 15.94 89.165M33.5 5.907l-14.766 83.75M36.293 6.4l-14.77 83.75M39.082 6.892l-14.766 83.75M41.875 7.384l-14.766 83.75M44.668 7.876l-14.77 83.75M47.457 8.368 32.69 92.118M50.25 8.86 35.484 92.61M53.043 9.353l-14.77 83.75M55.832 9.845l-14.766 83.75m17.559-83.258-14.766 83.75m17.559-83.258-14.77 83.75m17.559-83.258L49.44 95.071M67 11.814l-14.766 83.75m17.559-83.258-14.77 83.75m17.559-83.258-14.766 83.75M75.375 13.29 60.609 97.04m17.555-83.258-14.766 83.75m17.559-83.258L66.19 98.024M83.75 14.767l-14.77 83.75" transform="matrix(1 0 0 -1 15.93 99.669)"/></g></svg>