<svg xmlns="http://www.w3.org/2000/svg" xmlns:xlink="http://www.w3.org/1999/xlink" width="302.053" height="432.195" viewBox="0 0 226.54 324.146" version="1.2"><defs><symbol overflow="visible" id="a"><path style="stroke:none" d="M4.922-1.172c0-.172-.188-.172-.234-.172-.172 0-.188.047-.25.203-.204.485-.782.797-1.422.797-1.407 0-1.422-1.328-1.422-1.828h3.015c.22 0 .313 0 .313-.265 0-.313-.063-1.047-.563-1.547-.359-.36-.89-.532-1.578-.532C1.187-4.516.312-3.484.312-2.25c0 1.344 1 2.313 2.61 2.313 1.578 0 2-1.063 2-1.235ZM3.984-2.5h-2.39c.015-.39.031-.813.234-1.14.266-.391.672-.516.953-.516 1.172 0 1.188 1.312 1.203 1.656Zm0 0"/></symbol><symbol overflow="visible" id="b"><path style="stroke:none" d="M5.828 0v-.469h-.703L3.453-2.453 4.61-3.75c.141-.14.204-.203 1.016-.203v-.469l-.906.031-1.032-.03v.468c.141 0 .266.015.376.078-.032.063-.032.094-.079.125l-.828.938-.984-1.141h.406v-.469L1.36-4.39.266-4.42v.468h.718l1.547 1.828L1.22-.656c-.157.187-.516.187-1 .187V0l.922-.031L2.156 0v-.469c-.172 0-.36-.047-.36-.11 0 0 0-.015.063-.093l.97-1.094L3.921-.469h-.39V0l1.202-.031Zm0 0"/></symbol><symbol overflow="visible" id="c"><path style="stroke:none" d="M5.984-2.219c0-1.328-.906-2.265-2.343-2.265-.75 0-1.282.312-1.5.484v-.484l-1.766.078v.468c.61 0 .688 0 .688.376v5.03H.375v.47l1.25-.032 1.25.032v-.47h-.688V-.39A2.01 2.01 0 0 0 3.47.063c1.5 0 2.515-.907 2.515-2.282Zm-1.28 0C4.703-.813 4-.297 3.358-.297c-.14 0-.609 0-1.062-.547-.11-.125-.11-.14-.11-.328v-2.11c0-.187.016-.202.157-.343.39-.406.922-.469 1.14-.469.657 0 1.22.61 1.22 1.875Zm0 0"/></symbol><symbol overflow="visible" id="d"><path style="stroke:none" d="M4.406-3.672c0-.531-.531-.812-1.062-.812-.688 0-1.094.5-1.313 1.125v-1.125l-1.656.078v.468c.61 0 .688 0 .688.391v3.078H.375V0l1.25-.031C2-.031 2.641-.031 3 0v-.469h-.86v-1.75c0-.687.235-1.906 1.235-1.906 0 0-.188.172-.188.453 0 .406.329.61.61.61.297 0 .61-.204.61-.61Zm0 0"/></symbol><symbol overflow="visible" id="e"><path style="stroke:none" d="M3.813-1.234v-.532h-.47v.516c0 .672-.327.906-.609.906-.578 0-.578-.64-.578-.86v-2.75h1.469v-.468H2.156v-1.906h-.469c0 1-.484 1.984-1.484 2.016v.359h.828v2.734c0 1.063.86 1.282 1.578 1.282.75 0 1.204-.579 1.204-1.297Zm0 0"/></symbol><symbol overflow="visible" id="f"><path style="stroke:none" d="M2.844 0v-.469h-.61v-4.015L.5-4.406v.468c.594 0 .656 0 .656.391v3.078H.47V0l1.219-.031Zm-.469-6.047a.774.774 0 0 0-.781-.781.784.784 0 0 0-.782.781c0 .422.36.766.782.766a.77.77 0 0 0 .781-.766Zm0 0"/></symbol><symbol overflow="visible" id="g"><path style="stroke:none" d="M6.125 0v-.469h-.688v-2.578c0-1.047-.53-1.437-1.53-1.437-.954 0-1.485.562-1.75 1.078v-1.078l-1.704.078v.468c.61 0 .688 0 .688.391v3.078H.453V0l1.25-.031L2.953 0v-.469h-.687v-2.078c0-1.094.859-1.578 1.5-1.578.328 0 .546.203.546.969V-.47h-.687V0l1.25-.031Zm0 0"/></symbol><symbol overflow="visible" id="h"><path style="stroke:none" d="M5.516-.234c0-.235-.125-.235-.266-.235-.61-.015-.61-.14-.61-.375v-2.14c0-.891-.702-1.532-2.187-1.532-.562 0-1.781.047-1.781.922 0 .438.344.625.61.625.312 0 .624-.219.624-.625 0-.297-.187-.469-.218-.5a5.28 5.28 0 0 1 .718-.062c.75 0 1.11.422 1.11 1.172v.343c-.72.032-3.25.125-3.25 1.563C.266-.125 1.5.062 2.187.062c.797 0 1.266-.406 1.485-.828 0 .313 0 .766 1.047.766h.468c.204 0 .329 0 .329-.234Zm-2-1.157c0 .97-.922 1.094-1.172 1.094-.516 0-.906-.344-.906-.797 0-1.062 1.578-1.203 2.078-1.234Zm0 0"/></symbol><symbol overflow="visible" id="i"><path style="stroke:none" d="M2.922 0v-.469h-.688v-6.453L.47-6.844v.469c.625 0 .687 0 .687.39v5.516H.47V0l1.219-.031Zm0 0"/></symbol><symbol overflow="visible" id="j"><path style="stroke:none" d="M4.61-2.016h-.47C4.048-1 3.89-.406 2.579-.406h-.86L4.469-4c.095-.11.11-.125.11-.219 0-.203-.14-.203-.328-.203H.594l-.11 1.734h.47c.046-1.015.359-1.374 1.39-1.374h.844L.405-.438C.312-.329.312-.314.312-.22.313 0 .454 0 .641 0h3.78Zm0 0"/></symbol><symbol overflow="visible" id="k"><path style="stroke:none" d="M9.328 0v-.469h-.687v-2.578c0-1.031-.516-1.437-1.547-1.437-.907 0-1.422.5-1.688.953-.187-.922-1.11-.953-1.484-.953-.875 0-1.438.453-1.766 1.078v-1.078l-1.703.078v.468c.61 0 .688 0 .688.391v3.078H.453V0l1.25-.031L2.953 0v-.469h-.687v-2.078c0-1.094.875-1.578 1.5-1.578.328 0 .546.203.546.969V-.47h-.687V0l1.266-.031L6.14 0v-.469h-.688v-2.078c0-1.094.86-1.578 1.484-1.578.344 0 .563.203.563.969V-.47h-.688V0l1.25-.031Zm0 0"/></symbol><symbol overflow="visible" id="l"><path style="stroke:none" d="M5.406-2.172c0-1.344-.922-2.344-2.547-2.344C1.22-4.516.313-3.5.313-2.172c0 1.235.89 2.235 2.546 2.235 1.672 0 2.547-1.016 2.547-2.235Zm-1.281-.11c0 .86 0 1.938-1.266 1.938-1.265 0-1.265-1.078-1.265-1.937 0-.453 0-.953.172-1.297.187-.375.609-.578 1.093-.578.422 0 .844.156 1.063.5.203.344.203.89.203 1.375Zm0 0"/></symbol><symbol overflow="visible" id="m"><path style="stroke:none" d="M5.984 0v-.469c-.609 0-.687 0-.687-.39v-6.063l-1.766.078v.469c.625 0 .703 0 .703.39v1.954a2.178 2.178 0 0 0-1.359-.453c-1.453 0-2.5.875-2.5 2.28 0 1.313.922 2.267 2.39 2.267.61 0 1.094-.235 1.407-.485v.484ZM4.172-1.031c-.14.187-.547.734-1.297.734-1.219 0-1.219-1.203-1.219-1.906 0-.485 0-1.016.25-1.406.297-.422.766-.516 1.078-.516.563 0 .97.313 1.188.61Zm0 0"/></symbol><symbol overflow="visible" id="o"><path style="stroke:none" d="M4.14-1.39c0-.438-.202-.782-.546-1.063-.39-.281-.719-.344-1.485-.485-.375-.062-1.015-.171-1.015-.64 0-.625.922-.625 1.11-.625.75 0 1.124.297 1.171.844.016.156.031.203.234.203.235 0 .235-.047.235-.281v-.797c0-.188 0-.282-.172-.282-.047 0-.063 0-.453.188-.266-.125-.61-.188-1-.188-.313 0-1.844 0-1.844 1.313 0 .39.203.656.406.828.39.344.781.406 1.547.547.36.062 1.094.187 1.094.781 0 .75-.906.75-1.125.75C1.234-.297.984-1.03.859-1.453c-.046-.14-.109-.14-.234-.14-.25 0-.25.062-.25.28v1.094c0 .188 0 .281.188.281.062 0 .078 0 .296-.156l.25-.172c.47.329.985.329 1.188.329.312 0 1.844 0 1.844-1.454Zm0 0"/></symbol><symbol overflow="visible" id="p"><path style="stroke:none" d="M5.781-3.953v-.469A12.55 12.55 0 0 1 5-4.39l-.906-.03v.468s.468 0 .468.11L4.5-3.72 3.36-1.266 2.093-3.953h.531v-.469l-1.234.031-1.125-.03v.468H.89L2.766 0 2.53.484C2.312.954 2 1.641 1.281 1.641c-.14 0-.156-.016-.234-.047.094-.032.312-.172.312-.532C1.36.734 1.125.5.781.5a.553.553 0 0 0-.562.578c0 .5.469.922 1.062.922.766 0 1.344-.625 1.625-1.188l2.14-4.562c.063-.14.095-.203.735-.203Zm0 0"/></symbol><symbol overflow="visible" id="q"><path style="stroke:none" d="M4.36-6.11c0-.421-.36-.874-1.141-.874-.969 0-2.047.421-2.047 1.546v1.016h-.75v.469h.75V-.47H.484V0l1.25-.031c.375 0 1.016 0 1.375.031v-.469H2.25v-3.484h1.14v-.469H2.188v-1.016c0-1.093.75-1.187 1-1.187.047 0 .11 0 .172.031a.585.585 0 0 0-.234.485c0 .421.36.609.61.609.296 0 .624-.203.624-.61Zm0 0"/></symbol><symbol overflow="visible" id="r"><path style="stroke:none" d="M4.766-1.172c0-.14-.141-.14-.235-.14-.187 0-.187.03-.25.156-.25.625-.734.812-1.234.812-1.39 0-1.39-1.453-1.39-1.922 0-.562 0-1.843 1.28-1.843.36 0 .516.015.657.046a.618.618 0 0 0-.203.47c0 .437.343.624.609.624.313 0 .64-.219.64-.625 0-.86-1.156-.922-1.734-.922C1.11-4.516.375-3.375.375-2.219.375-.89 1.313.062 2.844.062c1.625 0 1.922-1.156 1.922-1.234Zm0 0"/></symbol><symbol overflow="visible" id="s"><path style="stroke:none" d="M6.125 0v-.469c-.61 0-.688 0-.688-.39v-3.625l-1.812.078v.468c.61 0 .688 0 .688.391v1.906c0 .813-.516 1.344-1.235 1.344-.781 0-.812-.25-.812-.797v-3.39l-1.813.078v.468c.61 0 .688 0 .688.391v2.328c0 1.063.796 1.282 1.796 1.282.25 0 .97 0 1.422-.782v.781Zm0 0"/></symbol><symbol overflow="visible" id="t"><path style="stroke:none" d="M5.781-3.953v-.469c-.25.016-.531.031-.781.031l-.906-.03v.468c.187 0 .468.031.468.11 0 0 0 .015-.046.109l-1.157 2.5-1.265-2.72h.531v-.468l-1.234.031-1.125-.03v.468H.89l1.75 3.75c.125.25.25.25.375.25.171 0 .28-.031.375-.25L5.047-3.75c.062-.14.094-.203.734-.203Zm0 0"/></symbol><symbol overflow="visible" id="u"><path style="stroke:none" d="M5.984-2.219c0-1.328-.937-2.265-2.39-2.265-.719 0-1.219.28-1.453.484v-2.922l-1.766.078v.469c.61 0 .688 0 .688.39V0h.468c.157-.188.328-.375.485-.563.078.079.562.625 1.453.625 1.484 0 2.515-.906 2.515-2.28Zm-1.28 0c0 .469 0 1.016-.25 1.406-.298.407-.75.516-1.079.516-.688 0-1.078-.547-1.188-.687v-2.5c.282-.36.75-.641 1.297-.641 1.22 0 1.22 1.203 1.22 1.906Zm0 0"/></symbol><symbol overflow="visible" id="v"><path style="stroke:none" d="M3.172-1.734v-.97H.125v.97Zm0 0"/></symbol><clipPath id="n"><path d="M155 0h71.309v43H155Zm0 0"/></clipPath><clipPath id="w"><path d="M72 271h80v52.719H72Zm0 0"/></clipPath></defs><path style="fill-rule:nonzero;fill:#fcc;fill-opacity:1;stroke-width:.79701;stroke-linecap:butt;stroke-linejoin:miter;stroke:red;stroke-opacity:1;stroke-miterlimit:10" d="M27.615-.001c0 5.82-12.364 10.539-27.614 10.539S-27.612 5.819-27.612-.002c0-5.816 12.363-10.534 27.613-10.534S27.615-5.818 27.615-.001Zm0 0" transform="matrix(1 0 0 -1 29.405 20.905)"/><g style="fill:#000;fill-opacity:1"><use xlink:href="#a" x="13.201" y="23.102"/><use xlink:href="#b" x="18.451" y="23.102"/><use xlink:href="#c" x="24.499" y="23.102"/></g><g style="fill:#000;fill-opacity:1"><use xlink:href="#a" x="31.184" y="23.102"/><use xlink:href="#d" x="36.434" y="23.102"/><use xlink:href="#e" x="41.156" y="23.102"/></g><path style="fill-rule:nonzero;fill:#ccf;fill-opacity:1;stroke-width:.79701;stroke-linecap:butt;stroke-linejoin:miter;stroke:#00f;stroke-opacity:1;stroke-miterlimit:10" d="M24.243 19.925H-24.24a3.984 3.984 0 0 1-3.988-3.985v-31.879a3.988 3.988 0 0 1 3.988-3.988h48.484c2.2 0 3.985 1.785 3.985 3.988v31.88a3.984 3.984 0 0 1-3.985 3.984Zm0 0" transform="matrix(1 0 0 -1 112.288 20.905)"/><g style="fill:#000;fill-opacity:1"><use xlink:href="#f" x="90.978" y="18.355"/><use xlink:href="#g" x="94.156" y="18.355"/><use xlink:href="#f" x="100.522" y="18.355"/><use xlink:href="#e" x="103.7" y="18.355"/><use xlink:href="#f" x="108.154" y="18.355"/><use xlink:href="#h" x="111.332" y="18.355"/><use xlink:href="#i" x="116.901" y="18.355"/><use xlink:href="#f" x="120.079" y="18.355"/><use xlink:href="#j" x="123.257" y="18.355"/><use xlink:href="#a" x="128.348" y="18.355"/></g><g style="fill:#000;fill-opacity:1"><use xlink:href="#k" x="97.095" y="30.31"/><use xlink:href="#l" x="106.639" y="30.31"/></g><g style="fill:#000;fill-opacity:1"><use xlink:href="#m" x="112.687" y="30.31"/><use xlink:href="#a" x="119.053" y="30.31"/><use xlink:href="#i" x="124.303" y="30.31"/></g><path style="stroke:none;fill-rule:nonzero;fill:#fcc;fill-opacity:1" d="M224.902 20.906c0-5.843-12.972-10.578-28.98-10.578-16.004 0-28.977 4.735-28.977 10.578 0 5.84 12.973 10.578 28.977 10.578 16.008 0 28.98-4.738 28.98-10.578Zm0 0"/><g clip-path="url(#n)"><path style="fill:none;stroke-width:.79701;stroke-linecap:butt;stroke-linejoin:miter;stroke:red;stroke-opacity:1;stroke-miterlimit:10" d="M28.98-.001c0 5.843-12.973 10.578-28.981 10.578-16.004 0-28.977-4.734-28.977-10.578 0-5.84 12.973-10.578 28.977-10.578 16.008 0 28.98 4.738 28.98 10.578Zm0 0" transform="matrix(1 0 0 -1 195.923 20.905)"/></g><g style="fill:#000;fill-opacity:1"><use xlink:href="#o" x="178.752" y="23.072"/><use xlink:href="#p" x="183.275" y="23.072"/><use xlink:href="#o" x="189.322" y="23.072"/><use xlink:href="#e" x="193.845" y="23.072"/><use xlink:href="#a" x="198.299" y="23.072"/><use xlink:href="#k" x="203.549" y="23.072"/></g><path style="fill-rule:nonzero;fill:#ccf;fill-opacity:1;stroke-width:.79701;stroke-linecap:butt;stroke-linejoin:miter;stroke:#00f;stroke-opacity:1;stroke-miterlimit:10" d="M24.243 19.926H-24.24a3.987 3.987 0 0 1-3.988-3.984v-31.883c0-2.2 1.785-3.984 3.988-3.984h48.484c2.2 0 3.985 1.785 3.985 3.984v31.883c0 2.2-1.786 3.984-3.985 3.984Zm0 0" transform="matrix(1 0 0 -1 112.288 81.395)"/><g style="fill:#000;fill-opacity:1"><use xlink:href="#f" x="93.279" y="72.897"/><use xlink:href="#m" x="96.457" y="72.897"/><use xlink:href="#a" x="102.823" y="72.897"/><use xlink:href="#g" x="108.074" y="72.897"/></g><g style="fill:#000;fill-opacity:1"><use xlink:href="#e" x="114.121" y="72.897"/><use xlink:href="#f" x="118.574" y="72.897"/><use xlink:href="#q" x="121.752" y="72.897"/><use xlink:href="#p" x="125.249" y="72.897"/></g><g style="fill:#000;fill-opacity:1"><use xlink:href="#r" x="88.183" y="84.852"/><use xlink:href="#h" x="93.274" y="84.852"/><use xlink:href="#g" x="98.843" y="84.852"/><use xlink:href="#m" x="105.209" y="84.852"/><use xlink:href="#f" x="111.575" y="84.852"/><use xlink:href="#m" x="114.753" y="84.852"/><use xlink:href="#h" x="121.119" y="84.852"/><use xlink:href="#e" x="126.689" y="84.852"/><use xlink:href="#a" x="131.142" y="84.852"/></g><g style="fill:#000;fill-opacity:1"><use xlink:href="#k" x="97.095" y="96.808"/><use xlink:href="#l" x="106.639" y="96.808"/></g><g style="fill:#000;fill-opacity:1"><use xlink:href="#m" x="112.687" y="96.808"/><use xlink:href="#a" x="119.053" y="96.808"/><use xlink:href="#i" x="124.303" y="96.808"/></g><path style="fill-rule:nonzero;fill:#ccf;fill-opacity:1;stroke-width:.79701;stroke-linecap:butt;stroke-linejoin:miter;stroke:#00f;stroke-opacity:1;stroke-miterlimit:10" d="M24.243 19.924H-24.24a3.984 3.984 0 0 1-3.988-3.984v-31.88a3.984 3.984 0 0 1 3.988-3.984h48.484c2.2 0 3.985 1.782 3.985 3.985V15.94a3.984 3.984 0 0 1-3.985 3.984Zm0 0" transform="matrix(1 0 0 -1 29.405 141.885)"/><g style="fill:#000;fill-opacity:1"><use xlink:href="#s" x="12.06" y="139.335"/><use xlink:href="#c" x="18.426" y="139.335"/></g><g style="fill:#000;fill-opacity:1"><use xlink:href="#m" x="25.111" y="139.335"/><use xlink:href="#h" x="31.477" y="139.335"/><use xlink:href="#e" x="37.046" y="139.335"/><use xlink:href="#a" x="41.5" y="139.335"/></g><g style="fill:#000;fill-opacity:1"><use xlink:href="#k" x="14.212" y="151.29"/><use xlink:href="#l" x="23.756" y="151.29"/></g><g style="fill:#000;fill-opacity:1"><use xlink:href="#m" x="29.804" y="151.29"/><use xlink:href="#a" x="36.17" y="151.29"/><use xlink:href="#i" x="41.42" y="151.29"/></g><path style="fill-rule:nonzero;fill:#ccf;fill-opacity:1;stroke-width:.79701;stroke-linecap:butt;stroke-linejoin:miter;stroke:#00f;stroke-opacity:1;stroke-miterlimit:10" d="M24.243 19.924H-24.24a3.984 3.984 0 0 1-3.988-3.984v-31.88a3.984 3.984 0 0 1 3.988-3.984h48.484c2.2 0 3.985 1.782 3.985 3.985V15.94a3.984 3.984 0 0 1-3.985 3.984Zm0 0" transform="matrix(1 0 0 -1 112.288 141.885)"/><g style="fill:#000;fill-opacity:1"><use xlink:href="#a" x="91.765" y="133.357"/><use xlink:href="#t" x="97.015" y="133.357"/></g><g style="fill:#000;fill-opacity:1"><use xlink:href="#h" x="102.425" y="133.357"/><use xlink:href="#i" x="107.994" y="133.357"/><use xlink:href="#s" x="111.172" y="133.357"/><use xlink:href="#h" x="117.538" y="133.357"/><use xlink:href="#e" x="123.107" y="133.357"/><use xlink:href="#a" x="127.561" y="133.357"/></g><g style="fill:#000;fill-opacity:1"><use xlink:href="#r" x="88.183" y="145.313"/><use xlink:href="#h" x="93.274" y="145.313"/><use xlink:href="#g" x="98.843" y="145.313"/><use xlink:href="#m" x="105.209" y="145.313"/><use xlink:href="#f" x="111.575" y="145.313"/><use xlink:href="#m" x="114.753" y="145.313"/><use xlink:href="#h" x="121.119" y="145.313"/><use xlink:href="#e" x="126.689" y="145.313"/><use xlink:href="#a" x="131.142" y="145.313"/></g><g style="fill:#000;fill-opacity:1"><use xlink:href="#k" x="94.833" y="157.268"/><use xlink:href="#l" x="104.377" y="157.268"/></g><g style="fill:#000;fill-opacity:1"><use xlink:href="#m" x="110.425" y="157.268"/><use xlink:href="#a" x="116.791" y="157.268"/><use xlink:href="#i" x="122.041" y="157.268"/><use xlink:href="#o" x="125.219" y="157.268"/></g><path style="fill-rule:nonzero;fill:#ccf;fill-opacity:1;stroke-width:.79701;stroke-linecap:butt;stroke-linejoin:miter;stroke:#00f;stroke-opacity:1;stroke-miterlimit:10" d="M39.685 0 0 39.686-39.686-.001 0-39.684Zm0 0" transform="matrix(1 0 0 -1 112.288 222.136)"/><g style="fill:#000;fill-opacity:1"><use xlink:href="#f" x="96.074" y="213.608"/><use xlink:href="#o" x="99.252" y="213.608"/></g><use xlink:href="#u" x="107.591" y="213.608" style="fill:#000;fill-opacity:1"/><g style="fill:#000;fill-opacity:1"><use xlink:href="#a" x="114.276" y="213.608"/><use xlink:href="#o" x="119.526" y="213.608"/><use xlink:href="#e" x="124.049" y="213.608"/></g><g style="fill:#000;fill-opacity:1"><use xlink:href="#r" x="97.095" y="225.563"/><use xlink:href="#h" x="102.186" y="225.563"/><use xlink:href="#g" x="107.755" y="225.563"/><use xlink:href="#m" x="114.121" y="225.563"/><use xlink:href="#f" x="120.487" y="225.563"/><use xlink:href="#v" x="123.665" y="225.563"/></g><g style="fill:#000;fill-opacity:1"><use xlink:href="#m" x="101.469" y="237.518"/><use xlink:href="#h" x="107.835" y="237.518"/><use xlink:href="#e" x="113.404" y="237.518"/><use xlink:href="#a" x="117.858" y="237.518"/></g><path style="stroke:none;fill-rule:nonzero;fill:#ccf;fill-opacity:1" d="M136.531 282.46H88.047a3.987 3.987 0 0 0-3.988 3.985v31.883c0 2.2 1.785 3.985 3.988 3.985h48.484c2.2 0 3.985-1.786 3.985-3.985v-31.883c0-2.199-1.786-3.984-3.985-3.984Zm0 0"/><g clip-path="url(#w)"><path style="fill:none;stroke-width:.79701;stroke-linecap:butt;stroke-linejoin:miter;stroke:#00f;stroke-opacity:1;stroke-miterlimit:10" d="M24.243 19.925H-24.24a3.987 3.987 0 0 1-3.988-3.984v-31.883c0-2.2 1.785-3.985 3.988-3.985h48.484c2.2 0 3.985 1.786 3.985 3.985V15.94c0 2.199-1.786 3.984-3.985 3.984Zm0 0" transform="matrix(1 0 0 -1 112.288 302.386)"/></g><g style="fill:#000;fill-opacity:1"><use xlink:href="#o" x="101.752" y="304.583"/><use xlink:href="#e" x="106.275" y="304.583"/><use xlink:href="#l" x="110.728" y="304.583"/><use xlink:href="#c" x="116.457" y="304.583"/></g><path style="fill:none;stroke-width:.79701;stroke-linecap:butt;stroke-linejoin:miter;stroke:#000;stroke-opacity:1;stroke-miterlimit:10" d="M-.75 120.42v-14.743" transform="matrix(1 0 0 -1 113.04 161.646)"/><path style="stroke:none;fill-rule:nonzero;fill:#000;fill-opacity:1" d="M112.29 59.078c.257-1.297.776-3.625 1.94-5.18-1.425 1.293-2.46 1.293-3.886 0 1.168 1.555 1.683 3.883 1.945 5.18Zm0 0"/><path style="fill:none;stroke-width:.79701;stroke-linecap:butt;stroke-linejoin:miter;stroke:#000;stroke-opacity:1;stroke-miterlimit:10" d="M-.75 59.927V45.185" transform="matrix(1 0 0 -1 113.04 161.646)"/><path style="stroke:none;fill-rule:nonzero;fill:#000;fill-opacity:1" d="M112.29 119.57c.257-1.297.776-3.629 1.94-5.183-1.425 1.297-2.46 1.297-3.886 0 1.168 1.554 1.683 3.886 1.945 5.183Zm0 0"/><path style="fill:none;stroke-width:.79701;stroke-linecap:butt;stroke-linejoin:miter;stroke:#000;stroke-opacity:1;stroke-miterlimit:10" d="M-.75-.565v-14.57" transform="matrix(1 0 0 -1 113.04 161.646)"/><path style="stroke:none;fill-rule:nonzero;fill:#000;fill-opacity:1" d="M112.29 179.89c.257-1.296.776-3.624 1.94-5.18-1.425 1.294-2.46 1.294-3.886 0 1.168 1.556 1.683 3.884 1.945 5.18Zm0 0"/><path style="fill:none;stroke-width:.79701;stroke-linecap:butt;stroke-linejoin:miter;stroke:#000;stroke-opacity:1;stroke-miterlimit:10" d="M-83.634 40.084V80.25h49.157" transform="matrix(1 0 0 -1 113.04 161.646)"/><path style="stroke:none;fill-rule:nonzero;fill:#000;fill-opacity:1" d="M81.668 81.395c-1.293-.258-3.625-.778-5.18-1.942 1.297 1.422 1.297 2.461 0 3.883 1.555-1.164 3.887-1.684 5.18-1.941Zm0 0"/><path style="fill:none;stroke-width:.79701;stroke-linecap:butt;stroke-linejoin:miter;stroke:#000;stroke-opacity:1;stroke-miterlimit:10" d="M-41.005-60.49h-42.629v54.827" transform="matrix(1 0 0 -1 113.04 161.646)"/><path style="stroke:none;fill-rule:nonzero;fill:#000;fill-opacity:1" d="M29.406 164.203c-.261 1.293-.777 3.625-1.945 5.18 1.426-1.297 2.46-1.297 3.887 0-1.168-1.555-1.684-3.887-1.942-5.18Zm0 0"/><use xlink:href="#p" x="42.969" y="230.368" style="fill:#000;fill-opacity:1"/><g style="fill:#000;fill-opacity:1"><use xlink:href="#a" x="48.698" y="230.368"/><use xlink:href="#o" x="53.948" y="230.368"/></g><path style="fill:none;stroke-width:.79701;stroke-linecap:butt;stroke-linejoin:miter;stroke:#000;stroke-opacity:1;stroke-miterlimit:10" d="M-.75-100.745v-14.574" transform="matrix(1 0 0 -1 113.04 161.646)"/><path style="stroke:none;fill-rule:nonzero;fill:#000;fill-opacity:1" d="M112.29 280.07c.257-1.293.776-3.625 1.94-5.18-1.425 1.298-2.46 1.298-3.886 0 1.168 1.555 1.683 3.887 1.945 5.18Zm0 0"/><g style="fill:#000;fill-opacity:1"><use xlink:href="#g" x="116.007" y="274.452"/><use xlink:href="#l" x="122.373" y="274.452"/></g><path style="fill:none;stroke-width:.79701;stroke-linecap:butt;stroke-linejoin:miter;stroke:#000;stroke-opacity:1;stroke-dasharray:2.98883,2.98883;stroke-miterlimit:10" d="M-55.626 140.744h21.148" transform="matrix(1 0 0 -1 113.04 161.646)"/><path style="stroke:none;fill-rule:nonzero;fill:#000;fill-opacity:1" d="M81.668 20.902c-1.293-.257-3.625-.777-5.18-1.941 1.297 1.426 1.297 2.46 0 3.887 1.555-1.168 3.887-1.684 5.18-1.946Zm0 0"/><path style="fill:none;stroke-width:.79701;stroke-linecap:butt;stroke-linejoin:miter;stroke:#000;stroke-opacity:1;stroke-dasharray:2.98883,2.98883;stroke-miterlimit:10" d="M53.507 140.744H32.976" transform="matrix(1 0 0 -1 113.04 161.646)"/><path style="stroke:none;fill-rule:nonzero;fill:#000;fill-opacity:1" d="M142.906 20.902c1.297.262 3.625.778 5.18 1.946-1.293-1.426-1.293-2.461 0-3.887-1.555 1.164-3.883 1.684-5.18 1.941Zm0 0"/><path style="fill:none;stroke-width:.79701;stroke-linecap:butt;stroke-linejoin:miter;stroke:#000;stroke-opacity:1;stroke-dasharray:2.98883,2.98883;stroke-miterlimit:10" d="M82.886 129.767V19.76h-49.91" transform="matrix(1 0 0 -1 113.04 161.646)"/><path style="stroke:none;fill-rule:nonzero;fill:#000;fill-opacity:1" d="M142.906 141.887c1.297.258 3.625.777 5.18 1.941-1.293-1.426-1.293-2.46 0-3.887-1.555 1.168-3.883 1.684-5.18 1.946Zm0 0"/></svg>