<svg xmlns="http://www.w3.org/2000/svg" width="384.771" height="82.395" viewBox="0 0 288.578 61.796" version="1.2"><defs><clipPath id="a"><path d="M0 0h288.367v61.695H0Zm0 0"/></clipPath><clipPath id="b"><path d="M114 48h15v13.695h-15Zm0 0"/></clipPath><clipPath id="c"><path d="M129 52h15v9.695h-15Zm0 0"/></clipPath><clipPath id="d"><path d="M144 47h15v14.695h-15Zm0 0"/></clipPath><clipPath id="e"><path d="M278 39h10.367v15H278Zm0 0"/></clipPath></defs><g clip-path="url(#a)"><path style="fill:none;stroke-width:.3985;stroke-linecap:butt;stroke-linejoin:miter;stroke:#000;stroke-opacity:1;stroke-miterlimit:10" d="M.002 0S10.779 10.824 14.92 14.238c4.14 3.418 10.777 8.43 14.918 10.387 4.14 1.957 10.78 3.754 14.922 3.723 4.136-.035 10.777-1.942 14.918-3.953 4.14-2.016 10.777-7.106 14.918-10.555 4.14-3.45 10.78-10.352 14.921-14.3 4.137-3.954 10.778-10.794 14.918-14.177 4.141-3.386 10.782-8.312 14.918-10.214 4.14-1.903 10.782-3.582 14.922-3.489 4.14.098 10.778 2.117 14.918 4.184 4.14 2.07 10.781 7.242 14.922 10.723 4.137 3.48 10.777 10.406 14.918 14.355 4.14 3.953 10.777 10.758 14.918 14.11 4.14 3.35 10.781 8.195 14.922 10.038 4.137 1.844 10.777 3.415 14.918 3.254 4.14-.16 10.777-2.293 14.918-4.414 4.14-2.125 10.781-7.375 14.922-10.886 4.14-3.508 10.777-10.461 14.918-14.41 4.14-3.946 14.918-14.036 14.918-14.036" transform="matrix(1 0 0 -1 2.342 30.797)"/></g><path style="fill:none;stroke-width:.3985;stroke-linecap:butt;stroke-linejoin:miter;stroke:#000;stroke-opacity:1;stroke-miterlimit:10" d="m-1.408-1.41 2.816 2.82m-2.816 0 2.816-2.82M13.51 12.832l2.82 2.817m-2.82 0 2.82-2.817M28.431 23.215l2.817 2.82m-2.817 0 2.817-2.82M43.35 26.938l2.816 2.816m-2.817 0 2.817-2.816M58.267 22.985l2.82 2.816m-2.82 0 2.82-2.816M73.19 12.43l2.816 2.816m-2.817 0 2.817-2.816M88.107-1.871 90.924.945m-2.817 0 2.817-2.816M103.025-16.047l2.82 2.817m-2.82 0 2.82-2.817" transform="matrix(1 0 0 -1 2.342 30.797)"/><g clip-path="url(#b)"><path style="fill:none;stroke-width:.3985;stroke-linecap:butt;stroke-linejoin:miter;stroke:#000;stroke-opacity:1;stroke-miterlimit:10" d="m117.947-26.262 2.816 2.82m-2.816 0 2.816-2.82" transform="matrix(1 0 0 -1 2.342 30.797)"/></g><g clip-path="url(#c)"><path style="fill:none;stroke-width:.3985;stroke-linecap:butt;stroke-linejoin:miter;stroke:#000;stroke-opacity:1;stroke-miterlimit:10" d="m132.865-29.746 2.82 2.816m-2.82 0 2.82-2.816" transform="matrix(1 0 0 -1 2.342 30.797)"/></g><g clip-path="url(#d)"><path style="fill:none;stroke-width:.3985;stroke-linecap:butt;stroke-linejoin:miter;stroke:#000;stroke-opacity:1;stroke-miterlimit:10" d="m147.783-25.562 2.82 2.816m-2.82 0 2.82-2.816" transform="matrix(1 0 0 -1 2.342 30.797)"/></g><path style="fill:none;stroke-width:.3985;stroke-linecap:butt;stroke-linejoin:miter;stroke:#000;stroke-opacity:1;stroke-miterlimit:10" d="m162.705-14.844 2.816 2.82m-2.816 0 2.816-2.82M177.623-.484l2.82 2.816m-2.82 0 2.82-2.816M192.545 13.621l2.816 2.82m-2.816 0 2.816-2.82M207.463 23.66l2.816 2.82m-2.816 0 2.816-2.82M222.38 26.914l2.821 2.817m-2.82 0 2.82-2.817M237.303 22.5l2.816 2.82m-2.816 0 2.816-2.82M252.22 11.617l2.817 2.817m-2.817 0 2.817-2.817M267.138-2.793l2.82 2.817m-2.82 0 2.82-2.817" transform="matrix(1 0 0 -1 2.342 30.797)"/><g clip-path="url(#e)"><path style="fill:none;stroke-width:.3985;stroke-linecap:butt;stroke-linejoin:miter;stroke:#000;stroke-opacity:1;stroke-miterlimit:10" d="m282.06-16.832 2.817 2.82m-2.817 0 2.817-2.82" transform="matrix(1 0 0 -1 2.342 30.797)"/></g></svg>