<svg xmlns="http://www.w3.org/2000/svg" width="66.963" height="66.963" viewBox="0 0 50.222 50.222" version="1.2"><path style="stroke:none;fill-rule:nonzero;fill:#b2b2ff;fill-opacity:1" d="M11.969 43.148a5.67 5.67 0 0 0-11.34 0 5.667 5.667 0 0 0 5.668 5.668 5.668 5.668 0 0 0 5.672-5.668ZM48.816 14.8C48.816 6.974 42.473.63 34.645.63c-7.829 0-14.172 6.344-14.172 14.172s6.343 14.176 14.172 14.176c7.828 0 14.171-6.348 14.171-14.176Zm0 0"/><path style="fill:none;stroke-width:.3985;stroke-linecap:butt;stroke-linejoin:miter;stroke:#000;stroke-opacity:1;stroke-miterlimit:10" d="m-.001 0 28.348 28.348" transform="matrix(1 0 0 -1 6.298 43.149)"/></svg>