<svg xmlns="http://www.w3.org/2000/svg" xmlns:xlink="http://www.w3.org/1999/xlink" width="94.16pt" height="76.059" viewBox="0 0 94.16 57.044" version="1.2"><defs><symbol overflow="visible" id="b"><path style="stroke:none" d="M4.766-1.172c0-.14-.141-.14-.235-.14-.187 0-.187.03-.25.156-.25.625-.734.812-1.234.812-1.39 0-1.39-1.453-1.39-1.922 0-.562 0-1.843 1.28-1.843.36 0 .516.015.657.046a.618.618 0 0 0-.203.47c0 .437.343.624.609.624.313 0 .64-.219.64-.625 0-.86-1.156-.922-1.734-.922C1.11-4.516.375-3.375.375-2.219.375-.89 1.313.062 2.844.062c1.625 0 1.922-1.156 1.922-1.234Zm0 0"/></symbol><symbol overflow="visible" id="c"><path style="stroke:none" d="M4.406-3.672c0-.531-.531-.812-1.062-.812-.688 0-1.094.5-1.313 1.125v-1.125l-1.656.078v.468c.61 0 .688 0 .688.391v3.078H.375V0l1.25-.031C2-.031 2.641-.031 3 0v-.469h-.86v-1.75c0-.687.235-1.906 1.235-1.906 0 0-.188.172-.188.453 0 .406.329.61.61.61.297 0 .61-.204.61-.61Zm0 0"/></symbol><symbol overflow="visible" id="d"><path style="stroke:none" d="M5.406-2.172c0-1.344-.922-2.344-2.547-2.344C1.22-4.516.313-3.5.313-2.172c0 1.235.89 2.235 2.546 2.235 1.672 0 2.547-1.016 2.547-2.235Zm-1.281-.11c0 .86 0 1.938-1.266 1.938-1.265 0-1.265-1.078-1.265-1.937 0-.453 0-.953.172-1.297.187-.375.609-.578 1.093-.578.422 0 .844.156 1.063.5.203.344.203.89.203 1.375Zm0 0"/></symbol><symbol overflow="visible" id="e"><path style="stroke:none" d="M4.14-1.39c0-.438-.202-.782-.546-1.063-.39-.281-.719-.344-1.485-.485-.375-.062-1.015-.171-1.015-.64 0-.625.922-.625 1.11-.625.75 0 1.124.297 1.171.844.016.156.031.203.234.203.235 0 .235-.047.235-.281v-.797c0-.188 0-.282-.172-.282-.047 0-.063 0-.453.188-.266-.125-.61-.188-1-.188-.313 0-1.844 0-1.844 1.313 0 .39.203.656.406.828.39.344.781.406 1.547.547.36.062 1.094.187 1.094.781 0 .75-.906.75-1.125.75C1.234-.297.984-1.03.859-1.453c-.046-.14-.109-.14-.234-.14-.25 0-.25.062-.25.28v1.094c0 .188 0 .281.188.281.062 0 .078 0 .296-.156l.25-.172c.47.329.985.329 1.188.329.312 0 1.844 0 1.844-1.454Zm0 0"/></symbol><symbol overflow="visible" id="f"><path style="stroke:none" d="M2.844 0v-.469h-.61v-4.015L.5-4.406v.468c.594 0 .656 0 .656.391v3.078H.47V0l1.219-.031Zm-.469-6.047a.774.774 0 0 0-.781-.781.784.784 0 0 0-.782.781c0 .422.36.766.782.766a.77.77 0 0 0 .781-.766Zm0 0"/></symbol><symbol overflow="visible" id="g"><path style="stroke:none" d="M6.125 0v-.469h-.688v-2.578c0-1.047-.53-1.437-1.53-1.437-.954 0-1.485.562-1.75 1.078v-1.078l-1.704.078v.468c.61 0 .688 0 .688.391v3.078H.453V0l1.25-.031L2.953 0v-.469h-.687v-2.078c0-1.094.859-1.578 1.5-1.578.328 0 .546.203.546.969V-.47h-.687V0l1.25-.031Zm0 0"/></symbol><symbol overflow="visible" id="h"><path style="stroke:none" d="M5.563-3.953c0-.235-.172-.578-.625-.578-.157 0-.625.031-1.063.375-.172-.125-.594-.328-1.328-.328-1.438 0-1.985.78-1.985 1.468 0 .407.188.829.516 1.047-.281.36-.344.688-.344.89 0 .157.047.641.438.954-.125.031-.86.25-.86.875C.313 1.25.875 2 2.86 2 4.625 2 5.406 1.422 5.406.719c0-.297-.078-.922-.75-1.266-.562-.281-1.156-.281-2.11-.281-.265 0-.718 0-.765-.016a.625.625 0 0 1-.562-.625c0-.093.047-.25.11-.328.452.234.968.266 1.218.266 1.437 0 1.984-.782 1.984-1.485 0-.468-.25-.796-.406-.953.297-.156.516-.172.625-.187a.433.433 0 0 0-.047.203c0 .25.172.422.438.422a.41.41 0 0 0 .421-.422Zm-2.141.937c0 .454 0 1.125-.875 1.125s-.875-.671-.875-1.125c0-.437 0-1.109.875-1.109s.875.672.875 1.11ZM4.547.75c0 .36-.39.89-1.688.89-1.187 0-1.687-.452-1.687-.906 0-.609.625-.609.766-.609h1.171c.313 0 1.438 0 1.438.625Zm0 0"/></symbol><symbol overflow="visible" id="i"><path style="stroke:none" d="M2.36-3.656a.77.77 0 0 0-.782-.766.767.767 0 0 0-.766.766.774.774 0 1 0 1.547 0Zm0 2.875a.784.784 0 0 0-.782-.781.78.78 0 0 0-.766.78.774.774 0 1 0 1.547 0Zm0 0"/></symbol><symbol overflow="visible" id="j"><path style="stroke:none" d="M2.938-6.375c0-.25 0-.266-.235-.266C2.078-6 1.203-6 .891-6v.313c.203 0 .78 0 1.296-.266v5.172c0 .36-.03.469-.921.469H.953V0c.344-.031 1.203-.031 1.61-.031.39 0 1.265 0 1.609.031v-.313h-.313c-.906 0-.921-.109-.921-.468Zm0 0"/></symbol><symbol overflow="visible" id="k"><path style="stroke:none" d="M4.078-2.297H6.86c.141 0 .329 0 .329-.203 0-.188-.188-.188-.329-.188H4.08v-2.796c0-.141 0-.329-.204-.329-.203 0-.203.188-.203.329v2.796H.89c-.141 0-.329 0-.329.188 0 .203.188.203.329.203h2.78V.5c0 .14 0 .328.204.328.203 0 .203-.187.203-.328Zm0 0"/></symbol><symbol overflow="visible" id="l"><path style="stroke:none" d="M6.844-3.266c.156 0 .343 0 .343-.187 0-.203-.187-.203-.328-.203H.891c-.141 0-.329 0-.329.203 0 .187.188.187.329.187Zm.015 1.938c.141 0 .329 0 .329-.203 0-.188-.188-.188-.344-.188H.89c-.141 0-.329 0-.329.188 0 .203.188.203.329.203Zm0 0"/></symbol><symbol overflow="visible" id="m"><path style="stroke:none" d="m1.266-.766 1.062-1.03c1.547-1.376 2.14-1.907 2.14-2.907 0-1.14-.89-1.938-2.109-1.938C1.234-6.64.5-5.719.5-4.828c0 .547.5.547.531.547.172 0 .516-.11.516-.532a.513.513 0 0 0-.531-.515c-.079 0-.094 0-.125.016.218-.657.765-1.016 1.343-1.016.907 0 1.329.812 1.329 1.625 0 .797-.485 1.578-1.047 2.203L.609-.375C.5-.265.5-.235.5 0h3.703l.266-1.734h-.235C4.172-1.438 4.11-1 4-.844c-.063.078-.719.078-.938.078Zm0 0"/></symbol><clipPath id="a"><path d="M26 21h41v35.566H26Zm0 0"/></clipPath></defs><path style="stroke:none;fill-rule:evenodd;fill:#d2c92a;fill-opacity:1" d="M32.563 55.36V27.015H60.91v28.343Zm25.511-14.172c0-6.262-5.074-11.34-11.336-11.34-6.261 0-11.34 5.078-11.34 11.34 0 6.261 5.079 11.34 11.34 11.34 6.262 0 11.336-5.079 11.336-11.34Zm0 0"/><g clip-path="url(#a)"><path style="fill:none;stroke-width:.3985;stroke-linecap:butt;stroke-linejoin:miter;stroke:#000;stroke-opacity:1;stroke-miterlimit:10" d="M-.002.002v28.343h28.348V.002ZM25.51 14.173c0 6.262-5.074 11.34-11.336 11.34-6.261 0-11.34-5.078-11.34-11.34 0-6.261 5.079-11.34 11.34-11.34 6.262 0 11.336 5.079 11.336 11.34Zm0 0" transform="matrix(1 0 0 -1 32.564 55.361)"/></g><path style="fill:none;stroke-width:.3985;stroke-linecap:butt;stroke-linejoin:miter;stroke:#000;stroke-opacity:1;stroke-miterlimit:10" d="M14.174 14.174v27.949" transform="matrix(1 0 0 -1 32.564 55.361)"/><path style="fill:none;stroke-width:.3985;stroke-linecap:round;stroke-linejoin:round;stroke:#000;stroke-opacity:1;stroke-miterlimit:10" d="M-2.073 2.39C-1.694.956-.851.28 0 0c-.852-.278-1.695-.958-2.074-2.392" transform="matrix(0 -1 -1 0 46.737 13.04)"/><g style="fill:#000;fill-opacity:1"><use xlink:href="#b" x=".211" y="7.319"/><use xlink:href="#c" x="5.302" y="7.319"/><use xlink:href="#d" x="10.024" y="7.319"/><use xlink:href="#e" x="15.753" y="7.319"/><use xlink:href="#e" x="20.276" y="7.319"/><use xlink:href="#f" x="24.799" y="7.319"/><use xlink:href="#g" x="27.977" y="7.319"/><use xlink:href="#h" x="34.343" y="7.319"/><use xlink:href="#e" x="40.072" y="7.319"/><use xlink:href="#i" x="44.595" y="7.319"/></g><use xlink:href="#j" x="52.86" y="7.319" style="fill:#000;fill-opacity:1"/><use xlink:href="#k" x="60.053" y="7.319" style="fill:#000;fill-opacity:1"/><use xlink:href="#j" x="70.014" y="7.319" style="fill:#000;fill-opacity:1"/><use xlink:href="#l" x="77.765" y="7.319" style="fill:#000;fill-opacity:1"/><use xlink:href="#m" x="88.273" y="7.319" style="fill:#000;fill-opacity:1"/></svg>