<svg xmlns="http://www.w3.org/2000/svg" width="64.039" height="16.443" viewBox="0 0 48.029 12.332" version="1.2"><defs><clipPath id="a"><path d="M0 0h47.543v11.996H0Zm0 0"/></clipPath><clipPath id="b"><path d="M0 1h10v10.996H0Zm0 0"/></clipPath><clipPath id="c"><path d="M23 1h15v10.996H23Zm0 0"/></clipPath><clipPath id="d"><path d="M37 0h10.543v11H37Zm0 0"/></clipPath></defs><g clip-path="url(#a)"><path style="fill:none;stroke-width:.3985;stroke-linecap:butt;stroke-linejoin:miter;stroke:#bfbfbf;stroke-opacity:1;stroke-miterlimit:10" d="M-.002-.001 14.174 5.67 28.346-.001 42.522 5.67" transform="matrix(1 0 0 -1 2.264 8.663)"/></g><path style="stroke:none;fill-rule:nonzero;fill:#d2c92a;fill-opacity:1" d="m.77 8.664 1.492 1.992 1.496-1.992"/><path style="stroke:none;fill-rule:nonzero;fill:#fff;fill-opacity:1" d="M3.758 8.664 2.262 6.672.77 8.664"/><g clip-path="url(#b)"><path style="fill:none;stroke-width:.3985;stroke-linecap:butt;stroke-linejoin:miter;stroke:#000;stroke-opacity:1;stroke-miterlimit:10" d="M1.494-.001-.002 1.99-1.494 0l1.492-1.992Zm0 0" transform="matrix(1 0 0 -1 2.264 8.663)"/></g><path style="stroke:none;fill-rule:nonzero;fill:#d2c92a;fill-opacity:1" d="m14.941 2.992 1.496 1.992 1.493-1.992"/><path style="stroke:none;fill-rule:nonzero;fill:#fff;fill-opacity:1" d="M17.93 2.992 16.438 1 14.94 2.992"/><path style="fill:none;stroke-width:.3985;stroke-linecap:butt;stroke-linejoin:miter;stroke:#000;stroke-opacity:1;stroke-miterlimit:10" d="m15.666 5.67-1.492 1.993-1.496-1.992 1.496-1.992Zm0 0" transform="matrix(1 0 0 -1 2.264 8.663)"/><path style="stroke:none;fill-rule:nonzero;fill:#d2c92a;fill-opacity:1" d="m29.117 8.664 1.492 1.992 1.496-1.992"/><path style="stroke:none;fill-rule:nonzero;fill:#fff;fill-opacity:1" d="M32.105 8.664 30.61 6.672l-1.492 1.992"/><g clip-path="url(#c)"><path style="fill:none;stroke-width:.3985;stroke-linecap:butt;stroke-linejoin:miter;stroke:#000;stroke-opacity:1;stroke-miterlimit:10" d="M29.842-.001 28.346 1.99 26.854 0l1.492-1.992Zm0 0" transform="matrix(1 0 0 -1 2.264 8.663)"/></g><path style="stroke:none;fill-rule:nonzero;fill:#d2c92a;fill-opacity:1" d="m43.29 2.992 1.495 1.992 1.492-1.992"/><path style="stroke:none;fill-rule:nonzero;fill:#fff;fill-opacity:1" d="M46.277 2.992 44.785 1 43.29 2.992"/><g clip-path="url(#d)"><path style="fill:none;stroke-width:.3985;stroke-linecap:butt;stroke-linejoin:miter;stroke:#000;stroke-opacity:1;stroke-miterlimit:10" d="m44.014 5.67-1.492 1.993-1.496-1.992 1.496-1.992Zm0 0" transform="matrix(1 0 0 -1 2.264 8.663)"/></g></svg>