<svg xmlns="http://www.w3.org/2000/svg" width="131.739" height="18.339" viewBox="0 0 98.804 13.754" version="1.2"><defs><clipPath id="a"><path d="M0 0h19v13.633H0Zm0 0"/></clipPath><clipPath id="b"><path d="M23 0h24v13.633H23Zm0 0"/></clipPath><clipPath id="c"><path d="M52 0h23v13.633H52Zm0 0"/></clipPath><clipPath id="d"><path d="M80 0h18.707v13.633H80Zm0 0"/></clipPath></defs><g clip-path="url(#a)"><path style="fill:none;stroke-width:.3985;stroke-linecap:butt;stroke-linejoin:miter;stroke:#000;stroke-opacity:1;stroke-miterlimit:10" d="M5.669.001a5.67 5.67 0 1 1-11.34-.003A5.67 5.67 0 0 1 5.67 0Zm0 0" transform="matrix(1 0 0 -1 6.788 6.759)"/></g><g clip-path="url(#b)"><path style="fill:none;stroke-width:.3985;stroke-linecap:butt;stroke-linejoin:miter;stroke:#000;stroke-opacity:1;stroke-miterlimit:10" d="M34.017.001a5.67 5.67 0 1 1-11.34-.003A5.67 5.67 0 0 1 34.017 0Zm0 0" transform="matrix(1 0 0 -1 6.788 6.759)"/></g><g clip-path="url(#c)"><path style="fill:none;stroke-width:.3985;stroke-linecap:butt;stroke-linejoin:miter;stroke:#000;stroke-opacity:1;stroke-miterlimit:10" d="M62.364.001a5.67 5.67 0 1 1-11.34-.005A5.67 5.67 0 0 1 62.363 0Zm0 0" transform="matrix(1 0 0 -1 6.788 6.759)"/></g><g clip-path="url(#d)"><path style="fill:none;stroke-width:.3985;stroke-linecap:butt;stroke-linejoin:miter;stroke:#000;stroke-opacity:1;stroke-miterlimit:10" d="M90.708.001a5.667 5.667 0 1 1-11.336 0 5.668 5.668 0 1 1 11.336 0Zm0 0" transform="matrix(1 0 0 -1 6.788 6.759)"/></g></svg>