<svg xmlns="http://www.w3.org/2000/svg" xmlns:xlink="http://www.w3.org/1999/xlink" width="210.347" height="139.735" viewBox="0 0 157.76 104.801" version="1.2"><defs><symbol overflow="visible" id="b"><path style="stroke:none" d="M3.89-2.547c0-.844-.078-1.36-.343-1.875-.344-.703-1-.875-1.438-.875-1 0-1.375.75-1.484.969C.344-3.75.328-2.953.328-2.547c0 .531.016 1.328.406 1.969.36.594.954.75 1.375.75.391 0 1.063-.125 1.47-.906.296-.579.312-1.297.312-1.813ZM2.11-.062c-.266 0-.813-.126-.985-.954-.094-.453-.094-1.203-.094-1.625 0-.546 0-1.109.094-1.546.172-.813.781-.891.984-.891.266 0 .829.14.985.86.094.437.094 1.046.094 1.577 0 .47 0 1.188-.094 1.641-.172.828-.719.938-.985.938Zm0 0"/></symbol><symbol overflow="visible" id="c"><path style="stroke:none" d="M2.25-1.625c.125-.125.453-.39.594-.5.484-.453.953-.89.953-1.61 0-.953-.797-1.562-1.781-1.562-.97 0-1.594.719-1.594 1.438 0 .39.312.437.422.437.172 0 .422-.11.422-.422 0-.406-.407-.406-.5-.406.234-.594.765-.781 1.156-.781.734 0 1.125.625 1.125 1.297 0 .828-.578 1.437-1.531 2.39l-1 1.047C.422-.219.422-.203.422 0h3.14l.235-1.422h-.25c-.016.156-.078.547-.172.703-.047.063-.656.063-.781.063H1.172Zm0 0"/></symbol><symbol overflow="visible" id="d"><path style="stroke:none" d="M3.14-5.156c0-.157 0-.219-.171-.219-.094 0-.11 0-.188.11L.234-1.564v.25h2.25v.672c0 .297-.015.375-.64.375h-.172V0c.672-.031.687-.031 1.14-.031.454 0 .47 0 1.141.031v-.266h-.172c-.625 0-.64-.078-.64-.375v-.671h.843v-.25h-.843Zm-.593.64v2.954H.516Zm0 0"/></symbol><symbol overflow="visible" id="e"><path style="stroke:none" d="M1.094-2.64c0-.657.062-1.235.343-1.72.25-.406.657-.734 1.157-.734.156 0 .515.032.703.297-.36.031-.39.297-.39.375 0 .25.187.375.374.375.14 0 .375-.078.375-.39 0-.47-.36-.86-1.078-.86C1.468-5.297.344-4.25.344-2.53.344-.36 1.359.172 2.125.172c.39 0 .797-.11 1.156-.453.328-.313.594-.64.594-1.344 0-1.031-.797-1.766-1.672-1.766-.578 0-.922.36-1.11.75ZM2.125-.079a.88.88 0 0 1-.797-.516c-.187-.36-.203-.89-.203-1.203 0-.781.422-1.375 1.047-1.375.39 0 .64.203.781.485.172.296.172.656.172 1.062s0 .75-.156 1.047c-.219.36-.485.5-.844.5Zm0 0"/></symbol><symbol overflow="visible" id="f"><path style="stroke:none" d="M2.64-2.875c.454-.219 1-.61 1-1.234 0-.766-.78-1.188-1.515-1.188-.844 0-1.531.578-1.531 1.328 0 .297.094.563.297.797.14.172.171.188.656.5C.563-2.234.344-1.656.344-1.219c0 .89.89 1.39 1.765 1.39.97 0 1.766-.671 1.766-1.515 0-.5-.266-.828-.406-.968-.125-.126-.14-.141-.828-.563Zm-1.234-.75c-.234-.14-.422-.375-.422-.64 0-.5.547-.829 1.125-.829.61 0 1.125.422 1.125.985 0 .453-.359.843-.828 1.078Zm.39 1.094c.032.015.938.578 1.079.656.125.078.547.328.547.813 0 .609-.656.984-1.297.984-.719 0-1.313-.484-1.313-1.14 0-.595.438-1.063.985-1.313Zm0 0"/></symbol><clipPath id="a"><path d="M6 58h151.64v40H6Zm0 0"/></clipPath></defs><path style="fill:none;stroke-width:.3985;stroke-linecap:round;stroke-linejoin:miter;stroke:gray;stroke-opacity:1;stroke-miterlimit:10" d="M.001-6.976v1.993M30.08-6.976v1.993M60.157-6.976v1.993M90.24-6.976v1.993M120.317-6.976v1.993M-6.976 11.02h1.997M-6.976 33.06h1.997M-6.976 55.099h1.997M-6.976 77.138h1.997" transform="matrix(1 0 0 -1 14.624 88.775)"/><path style="fill:none;stroke-width:.3985;stroke-linecap:butt;stroke-linejoin:miter;stroke:gray;stroke-opacity:1;stroke-miterlimit:10" d="M.001-4.983h141.734" transform="matrix(1 0 0 -1 14.624 88.775)"/><path style="fill:none;stroke-width:.3985;stroke-linecap:square;stroke-linejoin:miter;stroke:#bfbfbf;stroke-opacity:1;stroke-miterlimit:10" d="M.001.001h141.734M.001 87.59h141.734" transform="matrix(1 0 0 -1 14.624 88.775)"/><path style="fill:none;stroke-width:.3985;stroke-linecap:butt;stroke-linejoin:miter;stroke:gray;stroke-opacity:1;stroke-miterlimit:10" d="M-4.98.001v87.59" transform="matrix(1 0 0 -1 14.624 88.775)"/><path style="fill:none;stroke-width:.3985;stroke-linecap:square;stroke-linejoin:miter;stroke:#bfbfbf;stroke-opacity:1;stroke-miterlimit:10" d="M.001.001v87.59M141.735.001v87.59" transform="matrix(1 0 0 -1 14.624 88.775)"/><path style="fill:none;stroke-width:.59776;stroke-linecap:butt;stroke-linejoin:miter;stroke:#000;stroke-opacity:1;stroke-miterlimit:10" d="m.001 11.02.895.657.894.66.895.672.894.683.895.704.894.734.895.766.894.804.895.856.894.922.895.996.898 1.093.895 1.211.894 1.364.895 1.55.894 1.801.895 2.13.894 2.573.895 3.207.895 4.133.894 5.578.895 8.016.894 12.586.895 22.875" transform="matrix(1 0 0 -1 14.624 88.775)"/><g clip-path="url(#a)"><path style="fill:none;stroke-width:.59776;stroke-linecap:butt;stroke-linejoin:miter;stroke:#000;stroke-opacity:1;stroke-miterlimit:10" d="m.001 22.04 5.906-.84 5.906-2.386 5.903-3.579 5.906-4.214 5.906-4.22 5.907-3.573L41.34.84 47.247 0l5.906.836 5.907 2.39 5.906 3.575 5.906 4.215 5.906 4.218 5.903 3.575 5.906 2.39 5.906.84 5.906-.84 5.907-2.386 5.906-3.575 5.906-4.215 5.906-4.218 5.907-3.574L135.837.84l5.906-.84" transform="matrix(1 0 0 -1 14.624 88.775)"/><path style="fill:none;stroke-width:.59776;stroke-linecap:butt;stroke-linejoin:miter;stroke:#000;stroke-opacity:1;stroke-miterlimit:10" d="m.001 11.02 5.906 4.215 5.906 3.575 5.903 2.39 5.906.84 5.906-.84 5.907-2.386 5.906-3.575 5.906-4.218 5.906-4.215 5.907-3.578L64.966.84 70.872 0l5.906.836 5.903 2.39 5.906 3.575 5.906 4.215 5.906 4.218 5.907 3.575 5.906 2.39 5.906.84 5.906-.84 5.907-2.386 5.906-3.575 5.906-4.215" transform="matrix(1 0 0 -1 14.624 88.775)"/></g><use xlink:href="#b" x="12.507" y="103.54" style="fill:#000;fill-opacity:1"/><use xlink:href="#c" x="42.586" y="103.54" style="fill:#000;fill-opacity:1"/><use xlink:href="#d" x="72.666" y="103.54" style="fill:#000;fill-opacity:1"/><use xlink:href="#e" x="102.745" y="103.54" style="fill:#000;fill-opacity:1"/><use xlink:href="#f" x="132.824" y="103.54" style="fill:#000;fill-opacity:1"/><use xlink:href="#b" x=".76" y="80.323" style="fill:#000;fill-opacity:1"/><use xlink:href="#c" x=".76" y="58.283" style="fill:#000;fill-opacity:1"/><use xlink:href="#d" x=".76" y="36.245" style="fill:#000;fill-opacity:1"/><use xlink:href="#e" x=".76" y="14.204" style="fill:#000;fill-opacity:1"/></svg>