<svg xmlns="http://www.w3.org/2000/svg" width="118.191" height="78.531" viewBox="0 0 88.643 58.898" version="1.2"><defs><clipPath id="a"><path d="M0 0h88v58.848H0Zm0 0"/></clipPath></defs><path style="fill:none;stroke-width:.3985;stroke-linecap:butt;stroke-linejoin:miter;stroke:#000;stroke-opacity:1;stroke-miterlimit:10" d="M.001-.001h85.04M0 21.26h85.04M0 42.522h85.04M0-.001v56.695M14.173-.001v56.695M28.345-.001v56.695M42.521-.001v56.695M56.693-.001v56.695M70.869-.001v56.695M85.04-.001v56.695" transform="matrix(1 0 0 -1 1.627 57.647)"/><g clip-path="url(#a)"><path style="fill:none;stroke-width:1.59404;stroke-linecap:butt;stroke-linejoin:miter;stroke:#000;stroke-opacity:1;stroke-miterlimit:10" d="M.001-.001v56.695M28.345-.001v56.695M56.693-.001v56.695M85.029-.001v56.695" transform="matrix(1 0 0 -1 1.627 57.647)"/></g></svg>