<svg xmlns="http://www.w3.org/2000/svg" width="29.269" height="7.395" viewBox="0 0 21.952 5.546" version="1.2"><defs><clipPath id="a"><path d="M7 0h14.93v5.32H7Zm0 0"/></clipPath><clipPath id="b"><path d="M11 0h10.93v5.32H11Zm0 0"/></clipPath></defs><path style="fill:none;stroke-width:.3985;stroke-linecap:butt;stroke-linejoin:miter;stroke:#000;stroke-opacity:1;stroke-miterlimit:10" d="M0 2.212h18.163" transform="matrix(1 0 0 -1 .985 4.763)"/><g clip-path="url(#a)"><path style="fill:none;stroke-width:.3985;stroke-linecap:butt;stroke-linejoin:miter;stroke:#000;stroke-opacity:1;stroke-miterlimit:10" d="M1.62 1.622-.003 0m-1.617 1.622L-.002 0m-1.617-1.62L-.002 0M1.62-1.62 0 0" transform="matrix(1 0 0 -1 14.63 2.551)"/></g><g clip-path="url(#b)"><path style="fill:none;stroke-width:.3985;stroke-linecap:butt;stroke-linejoin:miter;stroke:#000;stroke-opacity:1;stroke-miterlimit:10" d="M1.62 1.622 0 0m-1.622 1.622L-.001 0m-1.621-1.62L-.001 0M1.62-1.62 0 0" transform="matrix(1 0 0 -1 19.15 2.551)"/></g></svg>