<svg xmlns="http://www.w3.org/2000/svg" width="29.269" height="6.195" viewBox="0 0 21.952 4.646" version="1.2"><defs><clipPath id="a"><path d="M3 0h18v4.469H3Zm0 0"/></clipPath><clipPath id="b"><path d="M10 0h11.93v4.469H10Zm0 0"/></clipPath></defs><path style="fill:none;stroke-width:.3985;stroke-linecap:butt;stroke-linejoin:miter;stroke:#000;stroke-opacity:1;stroke-miterlimit:10" d="M0 2.212h14.863" transform="matrix(1 0 0 -1 .985 4.364)"/><path style="stroke:none;fill-rule:nonzero;fill:#000;fill-opacity:1" d="M14.453 2.152c0-.617-1.086-1.117-2.43-1.117-1.343 0-2.43.5-2.43 1.117 0 .618 1.087 1.118 2.43 1.118 1.344 0 2.43-.5 2.43-1.118Zm0 0"/><g clip-path="url(#a)"><path style="fill:none;stroke-width:.3985;stroke-linecap:butt;stroke-linejoin:miter;stroke:#000;stroke-opacity:1;stroke-miterlimit:10" d="M5.06 0c0 .617-1.086 1.117-2.43 1.117S.2.617.2 0s1.086-1.117 2.43-1.117S5.06-.617 5.06 0Zm0 0" transform="matrix(1 0 0 -1 9.394 2.152)"/></g><path style="stroke:none;fill-rule:nonzero;fill:#000;fill-opacity:1" d="M20.71 2.152c0-.617-1.089-1.117-2.429-1.117-1.343 0-2.433.5-2.433 1.117 0 .618 1.09 1.118 2.433 1.118 1.34 0 2.43-.5 2.43-1.118Zm0 0"/><g clip-path="url(#b)"><path style="fill:none;stroke-width:.3985;stroke-linecap:butt;stroke-linejoin:miter;stroke:#000;stroke-opacity:1;stroke-miterlimit:10" d="M5.06 0c0 .617-1.09 1.117-2.429 1.117C1.287 1.117.197.617.197 0s1.09-1.117 2.434-1.117c1.34 0 2.43.5 2.43 1.117Zm0 0" transform="matrix(1 0 0 -1 15.65 2.152)"/></g></svg>