<svg xmlns="http://www.w3.org/2000/svg" xmlns:xlink="http://www.w3.org/1999/xlink" width="69.831" height="70.323" viewBox="0 0 52.373 52.742" version="1.2"><defs><symbol overflow="visible" id="a"><path style="stroke:none" d="M3.719-3.766c-.188-.375-.469-.64-.922-.64-1.156 0-2.39 1.468-2.39 2.922C.406-.547.952.109 1.718.109c.203 0 .703-.046 1.297-.75a.91.91 0 0 0 .906.75c.36 0 .578-.234.75-.546a6.49 6.49 0 0 0 .297-.985c0-.11-.094-.11-.125-.11-.094 0-.11.048-.14.188-.173.64-.345 1.235-.75 1.235-.282 0-.298-.266-.298-.454 0-.218.016-.312.125-.75.11-.406.125-.515.219-.89l.36-1.39c.062-.282.062-.298.062-.345 0-.171-.11-.265-.281-.265-.25 0-.391.219-.422.437Zm-.64 2.579c-.063.187-.063.203-.204.375-.438.546-.844.703-1.125.703-.5 0-.64-.547-.64-.938 0-.5.312-1.719.546-2.187.313-.579.75-.954 1.157-.954.64 0 .78.813.78.875a.562.562 0 0 1-.03.172Zm0 0"/></symbol><symbol overflow="visible" id="d"><path style="stroke:none" d="M2.375-6.813s0-.109-.125-.109c-.219 0-.953.078-1.219.11-.078 0-.187.015-.187.187 0 .125.094.125.25.125.468 0 .484.063.484.172 0 .062-.078.406-.125.61l-.828 3.25c-.11.5-.156.671-.156 1.015C.469-.516 1 .109 1.734.109c1.172 0 2.407-1.484 2.407-2.921 0-.907-.532-1.594-1.329-1.594-.453 0-.874.297-1.171.593Zm-.922 3.766c.047-.219.047-.234.14-.344.485-.64.938-.796 1.204-.796.36 0 .625.296.625.937 0 .594-.328 1.734-.516 2.11-.328.671-.781 1.03-1.172 1.03-.343 0-.671-.265-.671-1 0-.202 0-.39.156-1.015Zm0 0"/></symbol><symbol overflow="visible" id="g"><path style="stroke:none" d="M3.953-3.781c-.172 0-.297 0-.437.125a.53.53 0 0 0-.188.39c0 .25.188.36.375.36.281 0 .547-.25.547-.64 0-.485-.469-.86-1.172-.86-1.344 0-2.672 1.422-2.672 2.828C.406-.672.984.109 2.031.109c1.422 0 2.25-1.062 2.25-1.171 0-.063-.047-.141-.11-.141-.062 0-.077.031-.14.11-.781.984-1.875.984-1.984.984-.625 0-.906-.485-.906-1.094 0-.406.203-1.375.546-1.984.313-.579.86-1 1.407-1 .328 0 .719.125.86.406Zm0 0"/></symbol><symbol overflow="visible" id="b"><path style="stroke:none" d="M2.328-4.438c0-.187 0-.187-.203-.187-.453.438-1.078.438-1.36.438v.25c.157 0 .626 0 1-.188v3.547c0 .234 0 .328-.687.328H.812V0c.125 0 .985-.031 1.235-.031.219 0 1.094.031 1.25.031v-.25H3.03c-.703 0-.703-.094-.703-.328Zm0 0"/></symbol><symbol overflow="visible" id="e"><path style="stroke:none" d="M3.516-1.266H3.28c-.015.157-.094.563-.187.625-.047.047-.578.047-.688.047H1.125c.734-.64.984-.844 1.39-1.172.516-.406 1-.843 1-1.5 0-.843-.734-1.359-1.624-1.359-.86 0-1.454.61-1.454 1.25 0 .344.297.39.376.39.156 0 .359-.124.359-.374 0-.125-.047-.375-.406-.375.218-.485.687-.641 1.015-.641.703 0 1.063.547 1.063 1.11 0 .609-.438 1.078-.656 1.328L.516-.266C.437-.203.437-.187.437 0h2.876Zm0 0"/></symbol><symbol overflow="visible" id="i"><path style="stroke:none" d="M1.906-2.328c.547 0 .938.375.938 1.125 0 .86-.516 1.125-.906 1.125-.282 0-.907-.078-1.188-.5.328 0 .406-.235.406-.39 0-.22-.172-.376-.39-.376a.38.38 0 0 0-.391.407C.375-.281 1.094.14 1.938.14c.968 0 1.64-.657 1.64-1.344 0-.547-.437-1.094-1.203-1.25.719-.266.984-.781.984-1.219 0-.547-.625-.953-1.406-.953-.766 0-1.36.375-1.36.938 0 .234.157.359.36.359.219 0 .36-.156.36-.344 0-.203-.141-.36-.36-.375.25-.297.719-.375.985-.375.312 0 .75.156.75.75 0 .297-.094.625-.282.828-.219.266-.422.281-.765.313-.172.015-.188.015-.22.015-.015 0-.077.016-.077.094 0 .094.062.094.187.094Zm0 0"/></symbol><symbol overflow="visible" id="h"><path style="stroke:none" d="M.844-.438C.828-.344.78-.171.78-.156c0 .156.125.218.235.218a.377.377 0 0 0 .28-.14c.032-.063.079-.297.126-.438.031-.125.11-.453.14-.625.047-.156.094-.312.125-.468.079-.282.094-.344.297-.625.188-.282.516-.641 1.047-.641.39 0 .406.36.406.484 0 .422-.296 1.188-.406 1.485-.078.203-.11.265-.11.375 0 .375.298.594.657.594.703 0 1-.954 1-1.063 0-.094-.078-.094-.11-.094-.093 0-.093.047-.124.125-.157.563-.469.844-.735.844-.156 0-.187-.094-.187-.25s.047-.25.172-.563c.078-.218.36-.953.36-1.343 0-.672-.532-.797-.907-.797-.578 0-.969.36-1.172.64-.047-.484-.453-.64-.75-.64s-.453.219-.547.375c-.156.265-.25.656-.25.703 0 .078.094.078.125.078.094 0 .094-.016.14-.203.11-.406.25-.75.516-.75.188 0 .235.156.235.344 0 .125-.063.39-.125.578-.047.187-.11.469-.14.625Zm0 0"/></symbol><clipPath id="c"><path d="M23 0h29.059v29H23Zm0 0"/></clipPath><clipPath id="f"><path d="M22 23h30.059v29.613H22Zm0 0"/></clipPath></defs><path style="fill:none;stroke-width:.3985;stroke-linecap:butt;stroke-linejoin:miter;stroke:#000;stroke-opacity:1;stroke-miterlimit:10" d="M10.275 0c0 5.675-4.602 10.277-10.274 10.277-5.675 0-10.277-4.602-10.277-10.277 0-5.676 4.602-10.274 10.277-10.274 5.672 0 10.274 4.598 10.274 10.274Zm0 0" transform="matrix(1 0 0 -1 11.17 11.734)"/><use xlink:href="#a" x="6.303" y="13.131" style="fill:#000;fill-opacity:1"/><use xlink:href="#b" x="11.569" y="14.626" style="fill:#000;fill-opacity:1"/><g clip-path="url(#c)"><path style="fill:none;stroke-width:.3985;stroke-linecap:butt;stroke-linejoin:miter;stroke:#000;stroke-opacity:1;stroke-miterlimit:10" d="M38.994 0c0 5.879-4.766 10.644-10.649 10.644-5.879 0-10.644-4.765-10.644-10.644 0-5.88 4.765-10.645 10.644-10.645 5.883 0 10.649 4.766 10.649 10.645Zm0 0" transform="matrix(1 0 0 -1 11.17 11.734)"/></g><use xlink:href="#d" x="35.145" y="15.788" style="fill:#000;fill-opacity:1"/><use xlink:href="#e" x="39.419" y="12.173" style="fill:#000;fill-opacity:1"/><g clip-path="url(#f)"><path style="fill:none;stroke-width:.3985;stroke-linecap:butt;stroke-linejoin:miter;stroke:#000;stroke-opacity:1;stroke-miterlimit:10" d="M39.677-28.348c0 6.258-5.074 11.332-11.332 11.332-6.254 0-11.328-5.074-11.328-11.332 0-6.258 5.074-11.328 11.328-11.328 6.258 0 11.332 5.07 11.332 11.328Zm0 0" transform="matrix(1 0 0 -1 11.17 11.734)"/></g><use xlink:href="#g" x="34.65" y="42.153" style="fill:#000;fill-opacity:1"/><use xlink:href="#h" x="38.961" y="38.537" style="fill:#000;fill-opacity:1"/><use xlink:href="#i" x="38.961" y="44.625" style="fill:#000;fill-opacity:1"/><path style="fill:none;stroke-width:.3985;stroke-linecap:butt;stroke-linejoin:miter;stroke:#000;stroke-opacity:1;stroke-miterlimit:10" d="M10.474 0h6.629" transform="matrix(1 0 0 -1 11.17 11.734)"/><path style="fill:none;stroke-width:.3985;stroke-linecap:round;stroke-linejoin:round;stroke:#000;stroke-opacity:1;stroke-miterlimit:10" d="M-2.07 2.39C-1.693.957-.849.28 0 0c-.848-.278-1.692-.957-2.07-2.391" transform="matrix(1 0 0 -1 28.473 11.734)"/><path style="fill:none;stroke-width:.3985;stroke-linecap:butt;stroke-linejoin:miter;stroke:#000;stroke-opacity:1;stroke-miterlimit:10" d="m7.408-7.407 12.504-12.507" transform="matrix(1 0 0 -1 11.17 11.734)"/><path style="fill:none;stroke-width:.3985;stroke-linecap:round;stroke-linejoin:round;stroke:#000;stroke-opacity:1;stroke-miterlimit:10" d="M-2.071 2.39C-1.693.956-.851.28 0-.002c-.85-.276-1.693-.953-2.074-2.39" transform="scale(1 -1) rotate(-45 -22.76 -53.585)"/></svg>