<svg xmlns="http://www.w3.org/2000/svg" xmlns:xlink="http://www.w3.org/1999/xlink" width="382.155" height="56.019" viewBox="0 0 286.616 42.014" version="1.2"><defs><clipPath id="c"><path d="M72.25 10.55h141.73v19.927H72.25Zm0 0"/></clipPath><clipPath id="a"><path d="M0 0h12v12H0z"/></clipPath><clipPath id="e"><path d="M72.25 30.332h.46v.145h-.46Zm0 0"/></clipPath><clipPath id="f"><path d="M74 30.332h1.7v.145H74Zm0 0"/></clipPath><clipPath id="g"><path d="M77 30.332h1.688v.145H77Zm0 0"/></clipPath><clipPath id="h"><path d="M80 30.332h1.676v.145H80Zm0 0"/></clipPath><clipPath id="i"><path d="M83 30.332h1.664v.145H83Zm0 0"/></clipPath><clipPath id="j"><path d="M86 30.332h1.652v.145H86Zm0 0"/></clipPath><clipPath id="k"><path d="M89 30.332h1.645v.145H89Zm0 0"/></clipPath><clipPath id="l"><path d="M92 30.332h1.633v.145H92Zm0 0"/></clipPath><clipPath id="m"><path d="M95 30.332h1.621v.145H95Zm0 0"/></clipPath><clipPath id="n"><path d="M98 30.332h1.61v.145H98Zm0 0"/></clipPath><clipPath id="o"><path d="M101 30.332h1.598v.145H101Zm0 0"/></clipPath><clipPath id="p"><path d="M104 30.332h1.586v.145H104Zm0 0"/></clipPath><clipPath id="q"><path d="M107 30.332h1.574v.145H107Zm0 0"/></clipPath><clipPath id="r"><path d="M110 30.332h1.566v.145H110Zm0 0"/></clipPath><clipPath id="s"><path d="M113 30.332h1.555v.145H113Zm0 0"/></clipPath><clipPath id="t"><path d="M72.25 27.344h.46V29h-.46Zm0 0"/></clipPath><clipPath id="u"><path d="M74 27.344h1.7V29H74Zm0 0"/></clipPath><clipPath id="v"><path d="M77 27.344h1.688V29H77Zm0 0"/></clipPath><clipPath id="w"><path d="M80 27.344h1.676V29H80Zm0 0"/></clipPath><clipPath id="x"><path d="M83 27.344h1.664V29H83Zm0 0"/></clipPath><clipPath id="y"><path d="M86 27.344h1.652V29H86Zm0 0"/></clipPath><clipPath id="z"><path d="M89 27.344h1.645V29H89Zm0 0"/></clipPath><clipPath id="A"><path d="M92 27.344h1.633V29H92Zm0 0"/></clipPath><clipPath id="B"><path d="M95 27.344h1.621V29H95Zm0 0"/></clipPath><clipPath id="C"><path d="M98 27.344h1.61V29H98Zm0 0"/></clipPath><clipPath id="D"><path d="M101 27.344h1.598V29H101Zm0 0"/></clipPath><clipPath id="E"><path d="M104 27.344h1.586V29H104Zm0 0"/></clipPath><clipPath id="F"><path d="M107 27.344h1.574V29H107Zm0 0"/></clipPath><clipPath id="G"><path d="M110 27.344h1.566V29H110Zm0 0"/></clipPath><clipPath id="H"><path d="M113 27.344h1.555V29H113Zm0 0"/></clipPath><clipPath id="I"><path d="M72.25 24.355h.46V26h-.46Zm0 0"/></clipPath><clipPath id="J"><path d="M74 24.355h1.7V26H74Zm0 0"/></clipPath><clipPath id="K"><path d="M77 24.355h1.688V26H77Zm0 0"/></clipPath><clipPath id="L"><path d="M80 24.355h1.676V26H80Zm0 0"/></clipPath><clipPath id="M"><path d="M83 24.355h1.664V26H83Zm0 0"/></clipPath><clipPath id="N"><path d="M86 24.355h1.652V26H86Zm0 0"/></clipPath><clipPath id="O"><path d="M89 24.355h1.645V26H89Zm0 0"/></clipPath><clipPath id="P"><path d="M92 24.355h1.633V26H92Zm0 0"/></clipPath><clipPath id="Q"><path d="M95 24.355h1.621V26H95Zm0 0"/></clipPath><clipPath id="R"><path d="M98 24.355h1.61V26H98Zm0 0"/></clipPath><clipPath id="S"><path d="M101 24.355h1.598V26H101Zm0 0"/></clipPath><clipPath id="T"><path d="M104 24.355h1.586V26H104Zm0 0"/></clipPath><clipPath id="U"><path d="M107 24.355h1.574V26H107Zm0 0"/></clipPath><clipPath id="V"><path d="M110 24.355h1.566V26H110Zm0 0"/></clipPath><clipPath id="W"><path d="M113 24.355h1.555V26H113Zm0 0"/></clipPath><clipPath id="X"><path d="M72.25 21.367h.46V23h-.46Zm0 0"/></clipPath><clipPath id="Y"><path d="M74 21.367h1.7V23H74Zm0 0"/></clipPath><clipPath id="Z"><path d="M77 21.367h1.688V23H77Zm0 0"/></clipPath><clipPath id="aa"><path d="M80 21.367h1.676V23H80Zm0 0"/></clipPath><clipPath id="ab"><path d="M83 21.367h1.664V23H83Zm0 0"/></clipPath><clipPath id="ac"><path d="M86 21.367h1.652V23H86Zm0 0"/></clipPath><clipPath id="ad"><path d="M89 21.367h1.645V23H89Zm0 0"/></clipPath><clipPath id="ae"><path d="M92 21.367h1.633V23H92Zm0 0"/></clipPath><clipPath id="af"><path d="M95 21.367h1.621V23H95Zm0 0"/></clipPath><clipPath id="ag"><path d="M98 21.367h1.61V23H98Zm0 0"/></clipPath><clipPath id="ah"><path d="M101 21.367h1.598V23H101Zm0 0"/></clipPath><clipPath id="ai"><path d="M104 21.367h1.586V23H104Zm0 0"/></clipPath><clipPath id="aj"><path d="M107 21.367h1.574V23H107Zm0 0"/></clipPath><clipPath id="ak"><path d="M110 21.367h1.566V23H110Zm0 0"/></clipPath><clipPath id="al"><path d="M113 21.367h1.555V23H113Zm0 0"/></clipPath><clipPath id="am"><path d="M72.25 18.379h.46V20h-.46Zm0 0"/></clipPath><clipPath id="an"><path d="M74 18.379h1.7V20H74Zm0 0"/></clipPath><clipPath id="ao"><path d="M77 18.379h1.688V20H77Zm0 0"/></clipPath><clipPath id="ap"><path d="M80 18.379h1.676V20H80Zm0 0"/></clipPath><clipPath id="aq"><path d="M83 18.379h1.664V20H83Zm0 0"/></clipPath><clipPath id="ar"><path d="M86 18.379h1.652V20H86Zm0 0"/></clipPath><clipPath id="as"><path d="M89 18.379h1.645V20H89Zm0 0"/></clipPath><clipPath id="at"><path d="M92 18.379h1.633V20H92Zm0 0"/></clipPath><clipPath id="au"><path d="M95 18.379h1.621V20H95Zm0 0"/></clipPath><clipPath id="av"><path d="M98 18.379h1.61V20H98Zm0 0"/></clipPath><clipPath id="aw"><path d="M101 18.379h1.598V20H101Zm0 0"/></clipPath><clipPath id="ax"><path d="M104 18.379h1.586V20H104Zm0 0"/></clipPath><clipPath id="ay"><path d="M107 18.379h1.574V20H107Zm0 0"/></clipPath><clipPath id="az"><path d="M110 18.379h1.566V20H110Zm0 0"/></clipPath><clipPath id="aA"><path d="M113 18.379h1.555V20H113Zm0 0"/></clipPath><clipPath id="aB"><path d="M72.25 15.39h.46V17h-.46Zm0 0"/></clipPath><clipPath id="aC"><path d="M74 15.39h1.7V17H74Zm0 0"/></clipPath><clipPath id="aD"><path d="M77 15.39h1.688V17H77Zm0 0"/></clipPath><clipPath id="aE"><path d="M80 15.39h1.676V17H80Zm0 0"/></clipPath><clipPath id="aF"><path d="M83 15.39h1.664V17H83Zm0 0"/></clipPath><clipPath id="aG"><path d="M86 15.39h1.652V17H86Zm0 0"/></clipPath><clipPath id="aH"><path d="M89 15.39h1.645V17H89Zm0 0"/></clipPath><clipPath id="aI"><path d="M92 15.39h1.633V17H92Zm0 0"/></clipPath><clipPath id="aJ"><path d="M95 15.39h1.621V17H95Zm0 0"/></clipPath><clipPath id="aK"><path d="M98 15.39h1.61V17H98Zm0 0"/></clipPath><clipPath id="aL"><path d="M101 15.39h1.598V17H101Zm0 0"/></clipPath><clipPath id="aM"><path d="M104 15.39h1.586V17H104Zm0 0"/></clipPath><clipPath id="aN"><path d="M107 15.39h1.574V17H107Zm0 0"/></clipPath><clipPath id="aO"><path d="M110 15.39h1.566V17H110Zm0 0"/></clipPath><clipPath id="aP"><path d="M113 15.39h1.555V17H113Zm0 0"/></clipPath><clipPath id="aQ"><path d="M72.25 12.402h.46V14h-.46Zm0 0"/></clipPath><clipPath id="aR"><path d="M74 12.402h1.7V14H74Zm0 0"/></clipPath><clipPath id="aS"><path d="M77 12.402h1.688V14H77Zm0 0"/></clipPath><clipPath id="aT"><path d="M80 12.402h1.676V14H80Zm0 0"/></clipPath><clipPath id="aU"><path d="M83 12.402h1.664V14H83Zm0 0"/></clipPath><clipPath id="aV"><path d="M86 12.402h1.652V14H86Zm0 0"/></clipPath><clipPath id="aW"><path d="M89 12.402h1.645V14H89Zm0 0"/></clipPath><clipPath id="aX"><path d="M92 12.402h1.633V14H92Zm0 0"/></clipPath><clipPath id="aY"><path d="M95 12.402h1.621V14H95Zm0 0"/></clipPath><clipPath id="aZ"><path d="M98 12.402h1.61V14H98Zm0 0"/></clipPath><clipPath id="ba"><path d="M101 12.402h1.598V14H101Zm0 0"/></clipPath><clipPath id="bb"><path d="M104 12.402h1.586V14H104Zm0 0"/></clipPath><clipPath id="bc"><path d="M107 12.402h1.574V14H107Zm0 0"/></clipPath><clipPath id="bd"><path d="M110 12.402h1.566V14H110Zm0 0"/></clipPath><clipPath id="be"><path d="M113 12.402h1.555V14H113Zm0 0"/></clipPath><clipPath id="bf"><path d="M72.25 10.55h.46V11h-.46Zm0 0"/></clipPath><clipPath id="bg"><path d="M74 10.55h1.7V11H74Zm0 0"/></clipPath><clipPath id="bh"><path d="M77 10.55h1.688V11H77Zm0 0"/></clipPath><clipPath id="bi"><path d="M80 10.55h1.676V11H80Zm0 0"/></clipPath><clipPath id="bj"><path d="M83 10.55h1.664V11H83Zm0 0"/></clipPath><clipPath id="bk"><path d="M86 10.55h1.652V11H86Zm0 0"/></clipPath><clipPath id="bl"><path d="M89 10.55h1.645V11H89Zm0 0"/></clipPath><clipPath id="bm"><path d="M92 10.55h1.633V11H92Zm0 0"/></clipPath><clipPath id="bn"><path d="M95 10.55h1.621V11H95Zm0 0"/></clipPath><clipPath id="bo"><path d="M98 10.55h1.61V11H98Zm0 0"/></clipPath><clipPath id="bp"><path d="M101 10.55h1.598V11H101Zm0 0"/></clipPath><clipPath id="bq"><path d="M104 10.55h1.586V11H104Zm0 0"/></clipPath><clipPath id="br"><path d="M107 10.55h1.574V11H107Zm0 0"/></clipPath><clipPath id="bs"><path d="M110 10.55h1.566V11H110Zm0 0"/></clipPath><clipPath id="bt"><path d="M113 10.55h1.555V11H113Zm0 0"/></clipPath><clipPath id="bu"><path d="M122 30.332h1.52v.145H122Zm0 0"/></clipPath><clipPath id="bv"><path d="M125 30.332h1.508v.145H125Zm0 0"/></clipPath><clipPath id="bw"><path d="M128 30.332h1v.145h-1Zm0 0"/></clipPath><clipPath id="bx"><path d="M130.496 30.332H132v.145h-1.504Zm0 0"/></clipPath><clipPath id="by"><path d="M133.484 30.332H135v.145h-1.516Zm0 0"/></clipPath><clipPath id="bz"><path d="M136.473 30.332H138v.145h-1.527Zm0 0"/></clipPath><clipPath id="bA"><path d="M139.46 30.332H141v.145h-1.54Zm0 0"/></clipPath><clipPath id="bB"><path d="M142.45 30.332H144v.145h-1.55Zm0 0"/></clipPath><clipPath id="bC"><path d="M145.438 30.332H147v.145h-1.563Zm0 0"/></clipPath><clipPath id="bD"><path d="M148.426 30.332H150v.145h-1.574Zm0 0"/></clipPath><clipPath id="bE"><path d="M151.414 30.332H153v.145h-1.586Zm0 0"/></clipPath><clipPath id="bF"><path d="M154.406 30.332H156v.145h-1.594Zm0 0"/></clipPath><clipPath id="bG"><path d="M157.395 30.332H159v.145h-1.605Zm0 0"/></clipPath><clipPath id="bH"><path d="M160.383 30.332H162v.145h-1.617Zm0 0"/></clipPath><clipPath id="bI"><path d="M163.371 30.332h1.008v.145h-1.008Zm0 0"/></clipPath><clipPath id="bJ"><path d="M122 27.344h1.52V29H122Zm0 0"/></clipPath><clipPath id="bK"><path d="M125 27.344h1.508V29H125Zm0 0"/></clipPath><clipPath id="bL"><path d="M128 27.344h1V29h-1Zm0 0"/></clipPath><clipPath id="bM"><path d="M130.496 27.344H132V29h-1.504Zm0 0"/></clipPath><clipPath id="bN"><path d="M133.484 27.344H135V29h-1.516Zm0 0"/></clipPath><clipPath id="bO"><path d="M136.473 27.344H138V29h-1.527Zm0 0"/></clipPath><clipPath id="bP"><path d="M139.46 27.344H141V29h-1.54Zm0 0"/></clipPath><clipPath id="bQ"><path d="M142.45 27.344H144V29h-1.55Zm0 0"/></clipPath><clipPath id="bR"><path d="M145.438 27.344H147V29h-1.563Zm0 0"/></clipPath><clipPath id="bS"><path d="M148.426 27.344H150V29h-1.574Zm0 0"/></clipPath><clipPath id="bT"><path d="M151.414 27.344H153V29h-1.586Zm0 0"/></clipPath><clipPath id="bU"><path d="M154.406 27.344H156V29h-1.594Zm0 0"/></clipPath><clipPath id="bV"><path d="M157.395 27.344H159V29h-1.605Zm0 0"/></clipPath><clipPath id="bW"><path d="M160.383 27.344H162V29h-1.617Zm0 0"/></clipPath><clipPath id="bX"><path d="M163.371 27.344h1.008V29h-1.008Zm0 0"/></clipPath><clipPath id="bY"><path d="M122 24.355h1.52V26H122Zm0 0"/></clipPath><clipPath id="bZ"><path d="M125 24.355h1.508V26H125Zm0 0"/></clipPath><clipPath id="ca"><path d="M128 24.355h1V26h-1Zm0 0"/></clipPath><clipPath id="cb"><path d="M130.496 24.355H132V26h-1.504Zm0 0"/></clipPath><clipPath id="cc"><path d="M133.484 24.355H135V26h-1.516Zm0 0"/></clipPath><clipPath id="cd"><path d="M136.473 24.355H138V26h-1.527Zm0 0"/></clipPath><clipPath id="ce"><path d="M139.46 24.355H141V26h-1.54Zm0 0"/></clipPath><clipPath id="cf"><path d="M142.45 24.355H144V26h-1.55Zm0 0"/></clipPath><clipPath id="cg"><path d="M145.438 24.355H147V26h-1.563Zm0 0"/></clipPath><clipPath id="ch"><path d="M148.426 24.355H150V26h-1.574Zm0 0"/></clipPath><clipPath id="ci"><path d="M151.414 24.355H153V26h-1.586Zm0 0"/></clipPath><clipPath id="cj"><path d="M154.406 24.355H156V26h-1.594Zm0 0"/></clipPath><clipPath id="ck"><path d="M157.395 24.355H159V26h-1.605Zm0 0"/></clipPath><clipPath id="cl"><path d="M160.383 24.355H162V26h-1.617Zm0 0"/></clipPath><clipPath id="cm"><path d="M163.371 24.355h1.008V26h-1.008Zm0 0"/></clipPath><clipPath id="cn"><path d="M122 21.367h1.52V23H122Zm0 0"/></clipPath><clipPath id="co"><path d="M125 21.367h1.508V23H125Zm0 0"/></clipPath><clipPath id="cp"><path d="M128 21.367h1V23h-1Zm0 0"/></clipPath><clipPath id="cq"><path d="M130.496 21.367H132V23h-1.504Zm0 0"/></clipPath><clipPath id="cr"><path d="M133.484 21.367H135V23h-1.516Zm0 0"/></clipPath><clipPath id="cs"><path d="M136.473 21.367H138V23h-1.527Zm0 0"/></clipPath><clipPath id="ct"><path d="M139.46 21.367H141V23h-1.54Zm0 0"/></clipPath><clipPath id="cu"><path d="M142.45 21.367H144V23h-1.55Zm0 0"/></clipPath><clipPath id="cv"><path d="M145.438 21.367H147V23h-1.563Zm0 0"/></clipPath><clipPath id="cw"><path d="M148.426 21.367H150V23h-1.574Zm0 0"/></clipPath><clipPath id="cx"><path d="M151.414 21.367H153V23h-1.586Zm0 0"/></clipPath><clipPath id="cy"><path d="M154.406 21.367H156V23h-1.594Zm0 0"/></clipPath><clipPath id="cz"><path d="M157.395 21.367H159V23h-1.605Zm0 0"/></clipPath><clipPath id="cA"><path d="M160.383 21.367H162V23h-1.617Zm0 0"/></clipPath><clipPath id="cB"><path d="M163.371 21.367h1.008V23h-1.008Zm0 0"/></clipPath><clipPath id="cC"><path d="M122 18.379h1.52V20H122Zm0 0"/></clipPath><clipPath id="cD"><path d="M125 18.379h1.508V20H125Zm0 0"/></clipPath><clipPath id="cE"><path d="M128 18.379h1V20h-1Zm0 0"/></clipPath><clipPath id="cF"><path d="M130.496 18.379H132V20h-1.504Zm0 0"/></clipPath><clipPath id="cG"><path d="M133.484 18.379H135V20h-1.516Zm0 0"/></clipPath><clipPath id="cH"><path d="M136.473 18.379H138V20h-1.527Zm0 0"/></clipPath><clipPath id="cI"><path d="M139.46 18.379H141V20h-1.54Zm0 0"/></clipPath><clipPath id="cJ"><path d="M142.45 18.379H144V20h-1.55Zm0 0"/></clipPath><clipPath id="cK"><path d="M145.438 18.379H147V20h-1.563Zm0 0"/></clipPath><clipPath id="cL"><path d="M148.426 18.379H150V20h-1.574Zm0 0"/></clipPath><clipPath id="cM"><path d="M151.414 18.379H153V20h-1.586Zm0 0"/></clipPath><clipPath id="cN"><path d="M154.406 18.379H156V20h-1.594Zm0 0"/></clipPath><clipPath id="cO"><path d="M157.395 18.379H159V20h-1.605Zm0 0"/></clipPath><clipPath id="cP"><path d="M160.383 18.379H162V20h-1.617Zm0 0"/></clipPath><clipPath id="cQ"><path d="M163.371 18.379h1.008V20h-1.008Zm0 0"/></clipPath><clipPath id="cR"><path d="M122 15.39h1.52V17H122Zm0 0"/></clipPath><clipPath id="cS"><path d="M125 15.39h1.508V17H125Zm0 0"/></clipPath><clipPath id="cT"><path d="M128 15.39h1V17h-1Zm0 0"/></clipPath><clipPath id="cU"><path d="M130.496 15.39H132V17h-1.504Zm0 0"/></clipPath><clipPath id="cV"><path d="M133.484 15.39H135V17h-1.516Zm0 0"/></clipPath><clipPath id="cW"><path d="M136.473 15.39H138V17h-1.527Zm0 0"/></clipPath><clipPath id="cX"><path d="M139.46 15.39H141V17h-1.54Zm0 0"/></clipPath><clipPath id="cY"><path d="M142.45 15.39H144V17h-1.55Zm0 0"/></clipPath><clipPath id="cZ"><path d="M145.438 15.39H147V17h-1.563Zm0 0"/></clipPath><clipPath id="da"><path d="M148.426 15.39H150V17h-1.574Zm0 0"/></clipPath><clipPath id="db"><path d="M151.414 15.39H153V17h-1.586Zm0 0"/></clipPath><clipPath id="dc"><path d="M154.406 15.39H156V17h-1.594Zm0 0"/></clipPath><clipPath id="dd"><path d="M157.395 15.39H159V17h-1.605Zm0 0"/></clipPath><clipPath id="de"><path d="M160.383 15.39H162V17h-1.617Zm0 0"/></clipPath><clipPath id="df"><path d="M163.371 15.39h1.008V17h-1.008Zm0 0"/></clipPath><clipPath id="dg"><path d="M122 12.402h1.52V14H122Zm0 0"/></clipPath><clipPath id="dh"><path d="M125 12.402h1.508V14H125Zm0 0"/></clipPath><clipPath id="di"><path d="M128 12.402h1V14h-1Zm0 0"/></clipPath><clipPath id="dj"><path d="M130.496 12.402H132V14h-1.504Zm0 0"/></clipPath><clipPath id="dk"><path d="M133.484 12.402H135V14h-1.516Zm0 0"/></clipPath><clipPath id="dl"><path d="M136.473 12.402H138V14h-1.527Zm0 0"/></clipPath><clipPath id="dm"><path d="M139.46 12.402H141V14h-1.54Zm0 0"/></clipPath><clipPath id="dn"><path d="M142.45 12.402H144V14h-1.55Zm0 0"/></clipPath><clipPath id="do"><path d="M145.438 12.402H147V14h-1.563Zm0 0"/></clipPath><clipPath id="dp"><path d="M148.426 12.402H150V14h-1.574Zm0 0"/></clipPath><clipPath id="dq"><path d="M151.414 12.402H153V14h-1.586Zm0 0"/></clipPath><clipPath id="dr"><path d="M154.406 12.402H156V14h-1.594Zm0 0"/></clipPath><clipPath id="ds"><path d="M157.395 12.402H159V14h-1.605Zm0 0"/></clipPath><clipPath id="dt"><path d="M160.383 12.402H162V14h-1.617Zm0 0"/></clipPath><clipPath id="du"><path d="M163.371 12.402h1.008V14h-1.008Zm0 0"/></clipPath><clipPath id="dv"><path d="M122 10.55h1.52V11H122Zm0 0"/></clipPath><clipPath id="dw"><path d="M125 10.55h1.508V11H125Zm0 0"/></clipPath><clipPath id="dx"><path d="M128 10.55h1V11h-1Zm0 0"/></clipPath><clipPath id="dy"><path d="M130.496 10.55H132V11h-1.504Zm0 0"/></clipPath><clipPath id="dz"><path d="M133.484 10.55H135V11h-1.516Zm0 0"/></clipPath><clipPath id="dA"><path d="M136.473 10.55H138V11h-1.527Zm0 0"/></clipPath><clipPath id="dB"><path d="M139.46 10.55H141V11h-1.54Zm0 0"/></clipPath><clipPath id="dC"><path d="M142.45 10.55H144V11h-1.55Zm0 0"/></clipPath><clipPath id="dD"><path d="M145.438 10.55H147V11h-1.563Zm0 0"/></clipPath><clipPath id="dE"><path d="M148.426 10.55H150V11h-1.574Zm0 0"/></clipPath><clipPath id="dF"><path d="M151.414 10.55H153V11h-1.586Zm0 0"/></clipPath><clipPath id="dG"><path d="M154.406 10.55H156V11h-1.594Zm0 0"/></clipPath><clipPath id="dH"><path d="M157.395 10.55H159V11h-1.605Zm0 0"/></clipPath><clipPath id="dI"><path d="M160.383 10.55H162V11h-1.617Zm0 0"/></clipPath><clipPath id="dJ"><path d="M163.371 10.55h1.008V11h-1.008Zm0 0"/></clipPath><clipPath id="dK"><path d="M172.336 30.332H174v.145h-1.664Zm0 0"/></clipPath><clipPath id="dL"><path d="M175.328 30.332H177v.145h-1.672Zm0 0"/></clipPath><clipPath id="dM"><path d="M178.316 30.332H180v.145h-1.684Zm0 0"/></clipPath><clipPath id="dN"><path d="M181.305 30.332H183v.145h-1.695Zm0 0"/></clipPath><clipPath id="dO"><path d="M184.293 30.332H186v.145h-1.707Zm0 0"/></clipPath><clipPath id="dP"><path d="M187.281 30.332H189v.145h-1.719Zm0 0"/></clipPath><clipPath id="dQ"><path d="M190.27 30.332H192v.145h-1.73Zm0 0"/></clipPath><clipPath id="dR"><path d="M193.258 30.332H195v.145h-1.742Zm0 0"/></clipPath><clipPath id="dS"><path d="M196.25 30.332H198v.145h-1.75Zm0 0"/></clipPath><clipPath id="dT"><path d="M199.238 30.332H201v.145h-1.762Zm0 0"/></clipPath><clipPath id="dU"><path d="M202.227 30.332H204v.145h-1.773Zm0 0"/></clipPath><clipPath id="dV"><path d="M205.215 30.332H207v.145h-1.785Zm0 0"/></clipPath><clipPath id="dW"><path d="M208.203 30.332H210v.145h-1.797Zm0 0"/></clipPath><clipPath id="dX"><path d="M211.191 30.332H213v.145h-1.809Zm0 0"/></clipPath><clipPath id="dY"><path d="M172.336 27.344H174V29h-1.664Zm0 0"/></clipPath><clipPath id="dZ"><path d="M175.328 27.344H177V29h-1.672Zm0 0"/></clipPath><clipPath id="ea"><path d="M178.316 27.344H180V29h-1.684Zm0 0"/></clipPath><clipPath id="eb"><path d="M181.305 27.344H183V29h-1.695Zm0 0"/></clipPath><clipPath id="ec"><path d="M184.293 27.344H186V29h-1.707Zm0 0"/></clipPath><clipPath id="ed"><path d="M187.281 27.344H189V29h-1.719Zm0 0"/></clipPath><clipPath id="ee"><path d="M190.27 27.344H192V29h-1.73Zm0 0"/></clipPath><clipPath id="ef"><path d="M193.258 27.344H195V29h-1.742Zm0 0"/></clipPath><clipPath id="eg"><path d="M196.25 27.344H198V29h-1.75Zm0 0"/></clipPath><clipPath id="eh"><path d="M199.238 27.344H201V29h-1.762Zm0 0"/></clipPath><clipPath id="ei"><path d="M202.227 27.344H204V29h-1.773Zm0 0"/></clipPath><clipPath id="ej"><path d="M205.215 27.344H207V29h-1.785Zm0 0"/></clipPath><clipPath id="ek"><path d="M208.203 27.344H210V29h-1.797Zm0 0"/></clipPath><clipPath id="el"><path d="M211.191 27.344H213V29h-1.809Zm0 0"/></clipPath><clipPath id="em"><path d="M172.336 24.355H174V26h-1.664Zm0 0"/></clipPath><clipPath id="en"><path d="M175.328 24.355H177V26h-1.672Zm0 0"/></clipPath><clipPath id="eo"><path d="M178.316 24.355H180V26h-1.684Zm0 0"/></clipPath><clipPath id="ep"><path d="M181.305 24.355H183V26h-1.695Zm0 0"/></clipPath><clipPath id="eq"><path d="M184.293 24.355H186V26h-1.707Zm0 0"/></clipPath><clipPath id="er"><path d="M187.281 24.355H189V26h-1.719Zm0 0"/></clipPath><clipPath id="es"><path d="M190.27 24.355H192V26h-1.73Zm0 0"/></clipPath><clipPath id="et"><path d="M193.258 24.355H195V26h-1.742Zm0 0"/></clipPath><clipPath id="eu"><path d="M196.25 24.355H198V26h-1.75Zm0 0"/></clipPath><clipPath id="ev"><path d="M199.238 24.355H201V26h-1.762Zm0 0"/></clipPath><clipPath id="ew"><path d="M202.227 24.355H204V26h-1.773Zm0 0"/></clipPath><clipPath id="ex"><path d="M205.215 24.355H207V26h-1.785Zm0 0"/></clipPath><clipPath id="ey"><path d="M208.203 24.355H210V26h-1.797Zm0 0"/></clipPath><clipPath id="ez"><path d="M211.191 24.355H213V26h-1.809Zm0 0"/></clipPath><clipPath id="eA"><path d="M172.336 21.367H174V23h-1.664Zm0 0"/></clipPath><clipPath id="eB"><path d="M175.328 21.367H177V23h-1.672Zm0 0"/></clipPath><clipPath id="eC"><path d="M178.316 21.367H180V23h-1.684Zm0 0"/></clipPath><clipPath id="eD"><path d="M181.305 21.367H183V23h-1.695Zm0 0"/></clipPath><clipPath id="eE"><path d="M184.293 21.367H186V23h-1.707Zm0 0"/></clipPath><clipPath id="eF"><path d="M187.281 21.367H189V23h-1.719Zm0 0"/></clipPath><clipPath id="eG"><path d="M190.27 21.367H192V23h-1.73Zm0 0"/></clipPath><clipPath id="eH"><path d="M193.258 21.367H195V23h-1.742Zm0 0"/></clipPath><clipPath id="eI"><path d="M196.25 21.367H198V23h-1.75Zm0 0"/></clipPath><clipPath id="eJ"><path d="M199.238 21.367H201V23h-1.762Zm0 0"/></clipPath><clipPath id="eK"><path d="M202.227 21.367H204V23h-1.773Zm0 0"/></clipPath><clipPath id="eL"><path d="M205.215 21.367H207V23h-1.785Zm0 0"/></clipPath><clipPath id="eM"><path d="M208.203 21.367H210V23h-1.797Zm0 0"/></clipPath><clipPath id="eN"><path d="M211.191 21.367H213V23h-1.809Zm0 0"/></clipPath><clipPath id="eO"><path d="M172.336 18.379H174V20h-1.664Zm0 0"/></clipPath><clipPath id="eP"><path d="M175.328 18.379H177V20h-1.672Zm0 0"/></clipPath><clipPath id="eQ"><path d="M178.316 18.379H180V20h-1.684Zm0 0"/></clipPath><clipPath id="eR"><path d="M181.305 18.379H183V20h-1.695Zm0 0"/></clipPath><clipPath id="eS"><path d="M184.293 18.379H186V20h-1.707Zm0 0"/></clipPath><clipPath id="eT"><path d="M187.281 18.379H189V20h-1.719Zm0 0"/></clipPath><clipPath id="eU"><path d="M190.27 18.379H192V20h-1.73Zm0 0"/></clipPath><clipPath id="eV"><path d="M193.258 18.379H195V20h-1.742Zm0 0"/></clipPath><clipPath id="eW"><path d="M196.25 18.379H198V20h-1.75Zm0 0"/></clipPath><clipPath id="eX"><path d="M199.238 18.379H201V20h-1.762Zm0 0"/></clipPath><clipPath id="eY"><path d="M202.227 18.379H204V20h-1.773Zm0 0"/></clipPath><clipPath id="eZ"><path d="M205.215 18.379H207V20h-1.785Zm0 0"/></clipPath><clipPath id="fa"><path d="M208.203 18.379H210V20h-1.797Zm0 0"/></clipPath><clipPath id="fb"><path d="M211.191 18.379H213V20h-1.809Zm0 0"/></clipPath><clipPath id="fc"><path d="M172.336 15.39H174V17h-1.664Zm0 0"/></clipPath><clipPath id="fd"><path d="M175.328 15.39H177V17h-1.672Zm0 0"/></clipPath><clipPath id="fe"><path d="M178.316 15.39H180V17h-1.684Zm0 0"/></clipPath><clipPath id="ff"><path d="M181.305 15.39H183V17h-1.695Zm0 0"/></clipPath><clipPath id="fg"><path d="M184.293 15.39H186V17h-1.707Zm0 0"/></clipPath><clipPath id="fh"><path d="M187.281 15.39H189V17h-1.719Zm0 0"/></clipPath><clipPath id="fi"><path d="M190.27 15.39H192V17h-1.73Zm0 0"/></clipPath><clipPath id="fj"><path d="M193.258 15.39H195V17h-1.742Zm0 0"/></clipPath><clipPath id="fk"><path d="M196.25 15.39H198V17h-1.75Zm0 0"/></clipPath><clipPath id="fl"><path d="M199.238 15.39H201V17h-1.762Zm0 0"/></clipPath><clipPath id="fm"><path d="M202.227 15.39H204V17h-1.773Zm0 0"/></clipPath><clipPath id="fn"><path d="M205.215 15.39H207V17h-1.785Zm0 0"/></clipPath><clipPath id="fo"><path d="M208.203 15.39H210V17h-1.797Zm0 0"/></clipPath><clipPath id="fp"><path d="M211.191 15.39H213V17h-1.809Zm0 0"/></clipPath><clipPath id="fq"><path d="M172.336 12.402H174V14h-1.664Zm0 0"/></clipPath><clipPath id="fr"><path d="M175.328 12.402H177V14h-1.672Zm0 0"/></clipPath><clipPath id="fs"><path d="M178.316 12.402H180V14h-1.684Zm0 0"/></clipPath><clipPath id="ft"><path d="M181.305 12.402H183V14h-1.695Zm0 0"/></clipPath><clipPath id="fu"><path d="M184.293 12.402H186V14h-1.707Zm0 0"/></clipPath><clipPath id="fv"><path d="M187.281 12.402H189V14h-1.719Zm0 0"/></clipPath><clipPath id="fw"><path d="M190.27 12.402H192V14h-1.73Zm0 0"/></clipPath><clipPath id="fx"><path d="M193.258 12.402H195V14h-1.742Zm0 0"/></clipPath><clipPath id="fy"><path d="M196.25 12.402H198V14h-1.75Zm0 0"/></clipPath><clipPath id="fz"><path d="M199.238 12.402H201V14h-1.762Zm0 0"/></clipPath><clipPath id="fA"><path d="M202.227 12.402H204V14h-1.773Zm0 0"/></clipPath><clipPath id="fB"><path d="M205.215 12.402H207V14h-1.785Zm0 0"/></clipPath><clipPath id="fC"><path d="M208.203 12.402H210V14h-1.797Zm0 0"/></clipPath><clipPath id="fD"><path d="M211.191 12.402H213V14h-1.809Zm0 0"/></clipPath><clipPath id="fE"><path d="M172.336 10.55H174V11h-1.664Zm0 0"/></clipPath><clipPath id="fF"><path d="M175.328 10.55H177V11h-1.672Zm0 0"/></clipPath><clipPath id="fG"><path d="M178.316 10.55H180V11h-1.684Zm0 0"/></clipPath><clipPath id="fH"><path d="M181.305 10.55H183V11h-1.695Zm0 0"/></clipPath><clipPath id="fI"><path d="M184.293 10.55H186V11h-1.707Zm0 0"/></clipPath><clipPath id="fJ"><path d="M187.281 10.55H189V11h-1.719Zm0 0"/></clipPath><clipPath id="fK"><path d="M190.27 10.55H192V11h-1.73Zm0 0"/></clipPath><clipPath id="fL"><path d="M193.258 10.55H195V11h-1.742Zm0 0"/></clipPath><clipPath id="fM"><path d="M196.25 10.55H198V11h-1.75Zm0 0"/></clipPath><clipPath id="fN"><path d="M199.238 10.55H201V11h-1.762Zm0 0"/></clipPath><clipPath id="fO"><path d="M202.227 10.55H204V11h-1.773Zm0 0"/></clipPath><clipPath id="fP"><path d="M205.215 10.55H207V11h-1.785Zm0 0"/></clipPath><clipPath id="fQ"><path d="M208.203 10.55H210V11h-1.797Zm0 0"/></clipPath><clipPath id="fR"><path d="M211.191 10.55H213V11h-1.809Zm0 0"/></clipPath><pattern id="d" patternUnits="userSpaceOnUse" width="12" height="12" patternTransform="matrix(.9449 0 0 -.9449 -71.75 13618.551)"><use xlink:href="#b"/></pattern><g id="b" clip-path="url(#a)"><path style="fill:#000;fill-opacity:1;stroke:none" d="M0 0h12v12H0z"/><path style="stroke:none;fill-rule:nonzero;fill:#ccc;fill-opacity:1" d="M0 0h6v6H0Zm6 6h6v6H6Zm0 0"/></g></defs><g clip-path="url(#c)"><path style="stroke:none;fill-rule:nonzero;fill:url(#d)" d="M72.25 30.477h141.73V10.55H72.25Zm0 0"/></g><g clip-path="url(#e)"><path style="stroke:none;fill-rule:nonzero;fill:#000;fill-opacity:1" d="M72.21 31.328a.498.498 0 1 0-.997.003.498.498 0 0 0 .998-.003Zm0 0"/></g><g clip-path="url(#f)"><path style="stroke:none;fill-rule:nonzero;fill:#000;fill-opacity:1" d="M75.2 31.328a.498.498 0 1 0-.997.003.498.498 0 0 0 .996-.003Zm0 0"/></g><g clip-path="url(#g)"><path style="stroke:none;fill-rule:nonzero;fill:#000;fill-opacity:1" d="M78.191 31.328a.5.5 0 0 0-.5-.496.498.498 0 1 0 .5.496Zm0 0"/></g><g clip-path="url(#h)"><path style="stroke:none;fill-rule:nonzero;fill:#000;fill-opacity:1" d="M81.18 31.328a.498.498 0 1 0-.996.003.498.498 0 0 0 .996-.003Zm0 0"/></g><g clip-path="url(#i)"><path style="stroke:none;fill-rule:nonzero;fill:#000;fill-opacity:1" d="M84.168 31.328a.498.498 0 1 0-.995.003.498.498 0 0 0 .995-.003Zm0 0"/></g><g clip-path="url(#j)"><path style="stroke:none;fill-rule:nonzero;fill:#000;fill-opacity:1" d="M87.156 31.328a.498.498 0 1 0-.995.003.498.498 0 0 0 .995-.003Zm0 0"/></g><g clip-path="url(#k)"><path style="stroke:none;fill-rule:nonzero;fill:#000;fill-opacity:1" d="M90.145 31.328a.498.498 0 1 0-.997.003.498.498 0 0 0 .997-.003Zm0 0"/></g><g clip-path="url(#l)"><path style="stroke:none;fill-rule:nonzero;fill:#000;fill-opacity:1" d="M93.133 31.328a.498.498 0 1 0-.997.003.498.498 0 0 0 .997-.003Zm0 0"/></g><g clip-path="url(#m)"><path style="stroke:none;fill-rule:nonzero;fill:#000;fill-opacity:1" d="M96.121 31.328a.498.498 0 1 0-.997.003.498.498 0 0 0 .997-.003Zm0 0"/></g><g clip-path="url(#n)"><path style="stroke:none;fill-rule:nonzero;fill:#000;fill-opacity:1" d="M99.113 31.328a.5.5 0 0 0-1 0 .501.501 0 0 0 1 0Zm0 0"/></g><g clip-path="url(#o)"><path style="stroke:none;fill-rule:nonzero;fill:#000;fill-opacity:1" d="M102.102 31.328a.498.498 0 1 0-.996.003.498.498 0 0 0 .996-.003Zm0 0"/></g><g clip-path="url(#p)"><path style="stroke:none;fill-rule:nonzero;fill:#000;fill-opacity:1" d="M105.09 31.328a.498.498 0 1 0-.995.003.498.498 0 0 0 .995-.003Zm0 0"/></g><g clip-path="url(#q)"><path style="stroke:none;fill-rule:nonzero;fill:#000;fill-opacity:1" d="M108.078 31.328a.498.498 0 1 0-.995.003.498.498 0 0 0 .995-.003Zm0 0"/></g><g clip-path="url(#r)"><path style="stroke:none;fill-rule:nonzero;fill:#000;fill-opacity:1" d="M111.066 31.328a.498.498 0 1 0-.997.003.498.498 0 0 0 .997-.003Zm0 0"/></g><g clip-path="url(#s)"><path style="stroke:none;fill-rule:nonzero;fill:#000;fill-opacity:1" d="M114.055 31.328a.498.498 0 1 0-.997.003.498.498 0 0 0 .997-.003Zm0 0"/></g><g clip-path="url(#t)"><path style="stroke:none;fill-rule:nonzero;fill:#000;fill-opacity:1" d="M72.21 28.34a.498.498 0 1 0-.997.003.498.498 0 0 0 .998-.003Zm0 0"/></g><g clip-path="url(#u)"><path style="stroke:none;fill-rule:nonzero;fill:#000;fill-opacity:1" d="M75.2 28.34a.498.498 0 1 0-.997.003.498.498 0 0 0 .996-.003Zm0 0"/></g><g clip-path="url(#v)"><path style="stroke:none;fill-rule:nonzero;fill:#000;fill-opacity:1" d="M78.191 28.34a.5.5 0 0 0-.5-.496.498.498 0 1 0 .5.496Zm0 0"/></g><g clip-path="url(#w)"><path style="stroke:none;fill-rule:nonzero;fill:#000;fill-opacity:1" d="M81.18 28.34a.498.498 0 1 0-.996.003.498.498 0 0 0 .996-.003Zm0 0"/></g><g clip-path="url(#x)"><path style="stroke:none;fill-rule:nonzero;fill:#000;fill-opacity:1" d="M84.168 28.34a.498.498 0 1 0-.995.003.498.498 0 0 0 .995-.003Zm0 0"/></g><g clip-path="url(#y)"><path style="stroke:none;fill-rule:nonzero;fill:#000;fill-opacity:1" d="M87.156 28.34a.498.498 0 1 0-.995.003.498.498 0 0 0 .995-.003Zm0 0"/></g><g clip-path="url(#z)"><path style="stroke:none;fill-rule:nonzero;fill:#000;fill-opacity:1" d="M90.145 28.34a.498.498 0 1 0-.997.003.498.498 0 0 0 .997-.003Zm0 0"/></g><g clip-path="url(#A)"><path style="stroke:none;fill-rule:nonzero;fill:#000;fill-opacity:1" d="M93.133 28.34a.498.498 0 1 0-.997.003.498.498 0 0 0 .997-.003Zm0 0"/></g><g clip-path="url(#B)"><path style="stroke:none;fill-rule:nonzero;fill:#000;fill-opacity:1" d="M96.121 28.34a.498.498 0 1 0-.997.003.498.498 0 0 0 .997-.003Zm0 0"/></g><g clip-path="url(#C)"><path style="stroke:none;fill-rule:nonzero;fill:#000;fill-opacity:1" d="M99.113 28.34a.5.5 0 0 0-1 0 .501.501 0 0 0 1 0Zm0 0"/></g><g clip-path="url(#D)"><path style="stroke:none;fill-rule:nonzero;fill:#000;fill-opacity:1" d="M102.102 28.34a.498.498 0 1 0-.996.003.498.498 0 0 0 .996-.003Zm0 0"/></g><g clip-path="url(#E)"><path style="stroke:none;fill-rule:nonzero;fill:#000;fill-opacity:1" d="M105.09 28.34a.498.498 0 1 0-.995.003.498.498 0 0 0 .995-.003Zm0 0"/></g><g clip-path="url(#F)"><path style="stroke:none;fill-rule:nonzero;fill:#000;fill-opacity:1" d="M108.078 28.34a.498.498 0 1 0-.995.003.498.498 0 0 0 .995-.003Zm0 0"/></g><g clip-path="url(#G)"><path style="stroke:none;fill-rule:nonzero;fill:#000;fill-opacity:1" d="M111.066 28.34a.498.498 0 1 0-.997.003.498.498 0 0 0 .997-.003Zm0 0"/></g><g clip-path="url(#H)"><path style="stroke:none;fill-rule:nonzero;fill:#000;fill-opacity:1" d="M114.055 28.34a.498.498 0 1 0-.997.003.498.498 0 0 0 .997-.003Zm0 0"/></g><g clip-path="url(#I)"><path style="stroke:none;fill-rule:nonzero;fill:#000;fill-opacity:1" d="M72.21 25.352a.498.498 0 1 0-.997.003.498.498 0 0 0 .998-.003Zm0 0"/></g><g clip-path="url(#J)"><path style="stroke:none;fill-rule:nonzero;fill:#000;fill-opacity:1" d="M75.2 25.352a.498.498 0 1 0-.997.003.498.498 0 0 0 .996-.003Zm0 0"/></g><g clip-path="url(#K)"><path style="stroke:none;fill-rule:nonzero;fill:#000;fill-opacity:1" d="M78.191 25.352a.5.5 0 0 0-.5-.497.498.498 0 1 0 .5.496Zm0 0"/></g><g clip-path="url(#L)"><path style="stroke:none;fill-rule:nonzero;fill:#000;fill-opacity:1" d="M81.18 25.352a.498.498 0 1 0-.996.003.498.498 0 0 0 .996-.003Zm0 0"/></g><g clip-path="url(#M)"><path style="stroke:none;fill-rule:nonzero;fill:#000;fill-opacity:1" d="M84.168 25.352a.498.498 0 1 0-.995.003.498.498 0 0 0 .995-.003Zm0 0"/></g><g clip-path="url(#N)"><path style="stroke:none;fill-rule:nonzero;fill:#000;fill-opacity:1" d="M87.156 25.352a.498.498 0 1 0-.995.003.498.498 0 0 0 .995-.003Zm0 0"/></g><g clip-path="url(#O)"><path style="stroke:none;fill-rule:nonzero;fill:#000;fill-opacity:1" d="M90.145 25.352a.498.498 0 1 0-.997.003.498.498 0 0 0 .997-.003Zm0 0"/></g><g clip-path="url(#P)"><path style="stroke:none;fill-rule:nonzero;fill:#000;fill-opacity:1" d="M93.133 25.352a.498.498 0 1 0-.997.003.498.498 0 0 0 .997-.003Zm0 0"/></g><g clip-path="url(#Q)"><path style="stroke:none;fill-rule:nonzero;fill:#000;fill-opacity:1" d="M96.121 25.352a.498.498 0 1 0-.997.003.498.498 0 0 0 .997-.003Zm0 0"/></g><g clip-path="url(#R)"><path style="stroke:none;fill-rule:nonzero;fill:#000;fill-opacity:1" d="M99.113 25.352a.5.5 0 0 0-1 0 .501.501 0 0 0 1 0Zm0 0"/></g><g clip-path="url(#S)"><path style="stroke:none;fill-rule:nonzero;fill:#000;fill-opacity:1" d="M102.102 25.352a.498.498 0 1 0-.996.003.498.498 0 0 0 .996-.003Zm0 0"/></g><g clip-path="url(#T)"><path style="stroke:none;fill-rule:nonzero;fill:#000;fill-opacity:1" d="M105.09 25.352a.498.498 0 1 0-.995.003.498.498 0 0 0 .995-.003Zm0 0"/></g><g clip-path="url(#U)"><path style="stroke:none;fill-rule:nonzero;fill:#000;fill-opacity:1" d="M108.078 25.352a.498.498 0 1 0-.995.003.498.498 0 0 0 .995-.003Zm0 0"/></g><g clip-path="url(#V)"><path style="stroke:none;fill-rule:nonzero;fill:#000;fill-opacity:1" d="M111.066 25.352a.498.498 0 1 0-.997.003.498.498 0 0 0 .997-.003Zm0 0"/></g><g clip-path="url(#W)"><path style="stroke:none;fill-rule:nonzero;fill:#000;fill-opacity:1" d="M114.055 25.352a.498.498 0 1 0-.997.003.498.498 0 0 0 .997-.003Zm0 0"/></g><g clip-path="url(#X)"><path style="stroke:none;fill-rule:nonzero;fill:#000;fill-opacity:1" d="M72.21 22.363a.5.5 0 0 0-.495-.5.501.501 0 0 0 0 1 .5.5 0 0 0 .496-.5Zm0 0"/></g><g clip-path="url(#Y)"><path style="stroke:none;fill-rule:nonzero;fill:#000;fill-opacity:1" d="M75.2 22.363a.5.5 0 0 0-.497-.5.501.501 0 0 0 0 1 .5.5 0 0 0 .496-.5Zm0 0"/></g><g clip-path="url(#Z)"><path style="stroke:none;fill-rule:nonzero;fill:#000;fill-opacity:1" d="M78.191 22.363c0-.273-.226-.5-.5-.5a.5.5 0 0 0 0 1c.274 0 .5-.226.5-.5Zm0 0"/></g><g clip-path="url(#aa)"><path style="stroke:none;fill-rule:nonzero;fill:#000;fill-opacity:1" d="M81.18 22.363c0-.273-.223-.5-.5-.5a.5.5 0 0 0 0 1c.277 0 .5-.226.5-.5Zm0 0"/></g><g clip-path="url(#ab)"><path style="stroke:none;fill-rule:nonzero;fill:#000;fill-opacity:1" d="M84.168 22.363c0-.273-.223-.5-.5-.5a.5.5 0 0 0 0 1c.277 0 .5-.226.5-.5Zm0 0"/></g><g clip-path="url(#ac)"><path style="stroke:none;fill-rule:nonzero;fill:#000;fill-opacity:1" d="M87.156 22.363c0-.273-.222-.5-.5-.5a.5.5 0 0 0 0 1c.278 0 .5-.226.5-.5Zm0 0"/></g><g clip-path="url(#ad)"><path style="stroke:none;fill-rule:nonzero;fill:#000;fill-opacity:1" d="M90.145 22.363a.5.5 0 0 0-.497-.5.501.501 0 0 0 0 1 .5.5 0 0 0 .497-.5Zm0 0"/></g><g clip-path="url(#ae)"><path style="stroke:none;fill-rule:nonzero;fill:#000;fill-opacity:1" d="M93.133 22.363a.5.5 0 0 0-.496-.5.501.501 0 0 0 0 1 .5.5 0 0 0 .496-.5Zm0 0"/></g><g clip-path="url(#af)"><path style="stroke:none;fill-rule:nonzero;fill:#000;fill-opacity:1" d="M96.121 22.363a.5.5 0 0 0-.496-.5.501.501 0 0 0 0 1 .5.5 0 0 0 .496-.5Zm0 0"/></g><g clip-path="url(#ag)"><path style="stroke:none;fill-rule:nonzero;fill:#000;fill-opacity:1" d="M99.113 22.363c0-.273-.226-.5-.5-.5-.273 0-.5.227-.5.5 0 .274.227.5.5.5.274 0 .5-.226.5-.5Zm0 0"/></g><g clip-path="url(#ah)"><path style="stroke:none;fill-rule:nonzero;fill:#000;fill-opacity:1" d="M102.102 22.363c0-.273-.223-.5-.5-.5a.5.5 0 0 0 0 1c.277 0 .5-.226.5-.5Zm0 0"/></g><g clip-path="url(#ai)"><path style="stroke:none;fill-rule:nonzero;fill:#000;fill-opacity:1" d="M105.09 22.363c0-.273-.223-.5-.5-.5a.5.5 0 0 0 0 1c.277 0 .5-.226.5-.5Zm0 0"/></g><g clip-path="url(#aj)"><path style="stroke:none;fill-rule:nonzero;fill:#000;fill-opacity:1" d="M108.078 22.363c0-.273-.223-.5-.5-.5a.5.5 0 0 0 0 1c.277 0 .5-.226.5-.5Zm0 0"/></g><g clip-path="url(#ak)"><path style="stroke:none;fill-rule:nonzero;fill:#000;fill-opacity:1" d="M111.066 22.363a.5.5 0 0 0-.496-.5.501.501 0 0 0 0 1 .5.5 0 0 0 .496-.5Zm0 0"/></g><g clip-path="url(#al)"><path style="stroke:none;fill-rule:nonzero;fill:#000;fill-opacity:1" d="M114.055 22.363a.5.5 0 0 0-.496-.5.501.501 0 0 0 0 1 .5.5 0 0 0 .496-.5Zm0 0"/></g><g clip-path="url(#am)"><path style="stroke:none;fill-rule:nonzero;fill:#000;fill-opacity:1" d="M72.21 19.375a.498.498 0 1 0-.994-.005.498.498 0 0 0 .995.005Zm0 0"/></g><g clip-path="url(#an)"><path style="stroke:none;fill-rule:nonzero;fill:#000;fill-opacity:1" d="M75.2 19.375a.498.498 0 1 0-.996-.005.498.498 0 0 0 .995.005Zm0 0"/></g><g clip-path="url(#ao)"><path style="stroke:none;fill-rule:nonzero;fill:#000;fill-opacity:1" d="M78.191 19.375a.498.498 0 1 0-.997-.005.498.498 0 0 0 .997.005Zm0 0"/></g><g clip-path="url(#ap)"><path style="stroke:none;fill-rule:nonzero;fill:#000;fill-opacity:1" d="M81.18 19.375a.498.498 0 1 0-.997-.003.498.498 0 0 0 .997.003Zm0 0"/></g><g clip-path="url(#aq)"><path style="stroke:none;fill-rule:nonzero;fill:#000;fill-opacity:1" d="M84.168 19.375a.498.498 0 1 0-.997-.003.498.498 0 0 0 .997.003Zm0 0"/></g><g clip-path="url(#ar)"><path style="stroke:none;fill-rule:nonzero;fill:#000;fill-opacity:1" d="M87.156 19.375a.498.498 0 1 0-.997-.003.498.498 0 0 0 .997.003Zm0 0"/></g><g clip-path="url(#as)"><path style="stroke:none;fill-rule:nonzero;fill:#000;fill-opacity:1" d="M90.145 19.375a.498.498 0 1 0-.996-.005.498.498 0 0 0 .996.005Zm0 0"/></g><g clip-path="url(#at)"><path style="stroke:none;fill-rule:nonzero;fill:#000;fill-opacity:1" d="M93.133 19.375a.498.498 0 1 0-.995-.005.498.498 0 0 0 .995.005Zm0 0"/></g><g clip-path="url(#au)"><path style="stroke:none;fill-rule:nonzero;fill:#000;fill-opacity:1" d="M96.121 19.375a.498.498 0 1 0-.995-.005.498.498 0 0 0 .995.005Zm0 0"/></g><g clip-path="url(#av)"><path style="stroke:none;fill-rule:nonzero;fill:#000;fill-opacity:1" d="M99.113 19.375a.501.501 0 0 0-1 0 .5.5 0 0 0 1 0Zm0 0"/></g><g clip-path="url(#aw)"><path style="stroke:none;fill-rule:nonzero;fill:#000;fill-opacity:1" d="M102.102 19.375a.498.498 0 1 0-.997-.003.498.498 0 0 0 .997.003Zm0 0"/></g><g clip-path="url(#ax)"><path style="stroke:none;fill-rule:nonzero;fill:#000;fill-opacity:1" d="M105.09 19.375a.498.498 0 1 0-.997-.003.498.498 0 0 0 .997.003Zm0 0"/></g><g clip-path="url(#ay)"><path style="stroke:none;fill-rule:nonzero;fill:#000;fill-opacity:1" d="M108.078 19.375a.498.498 0 1 0-.997-.003.498.498 0 0 0 .997.003Zm0 0"/></g><g clip-path="url(#az)"><path style="stroke:none;fill-rule:nonzero;fill:#000;fill-opacity:1" d="M111.066 19.375a.498.498 0 1 0-.995-.005.498.498 0 0 0 .995.005Zm0 0"/></g><g clip-path="url(#aA)"><path style="stroke:none;fill-rule:nonzero;fill:#000;fill-opacity:1" d="M114.055 19.375a.498.498 0 1 0-.996-.005.498.498 0 0 0 .996.005Zm0 0"/></g><g clip-path="url(#aB)"><path style="stroke:none;fill-rule:nonzero;fill:#000;fill-opacity:1" d="M72.21 16.387a.498.498 0 1 0-.994-.005.498.498 0 0 0 .995.005Zm0 0"/></g><g clip-path="url(#aC)"><path style="stroke:none;fill-rule:nonzero;fill:#000;fill-opacity:1" d="M75.2 16.387a.498.498 0 1 0-.996-.005.498.498 0 0 0 .995.005Zm0 0"/></g><g clip-path="url(#aD)"><path style="stroke:none;fill-rule:nonzero;fill:#000;fill-opacity:1" d="M78.191 16.387a.498.498 0 1 0-.997-.005.498.498 0 0 0 .997.005Zm0 0"/></g><g clip-path="url(#aE)"><path style="stroke:none;fill-rule:nonzero;fill:#000;fill-opacity:1" d="M81.18 16.387a.498.498 0 1 0-.997-.003.498.498 0 0 0 .997.003Zm0 0"/></g><g clip-path="url(#aF)"><path style="stroke:none;fill-rule:nonzero;fill:#000;fill-opacity:1" d="M84.168 16.387a.498.498 0 1 0-.997-.003.498.498 0 0 0 .997.003Zm0 0"/></g><g clip-path="url(#aG)"><path style="stroke:none;fill-rule:nonzero;fill:#000;fill-opacity:1" d="M87.156 16.387a.498.498 0 1 0-.997-.003.498.498 0 0 0 .997.003Zm0 0"/></g><g clip-path="url(#aH)"><path style="stroke:none;fill-rule:nonzero;fill:#000;fill-opacity:1" d="M90.145 16.387a.498.498 0 1 0-.996-.005.498.498 0 0 0 .996.005Zm0 0"/></g><g clip-path="url(#aI)"><path style="stroke:none;fill-rule:nonzero;fill:#000;fill-opacity:1" d="M93.133 16.387a.498.498 0 1 0-.995-.005.498.498 0 0 0 .995.005Zm0 0"/></g><g clip-path="url(#aJ)"><path style="stroke:none;fill-rule:nonzero;fill:#000;fill-opacity:1" d="M96.121 16.387a.498.498 0 1 0-.995-.005.498.498 0 0 0 .995.005Zm0 0"/></g><g clip-path="url(#aK)"><path style="stroke:none;fill-rule:nonzero;fill:#000;fill-opacity:1" d="M99.113 16.387a.501.501 0 0 0-1 0 .5.5 0 0 0 1 0Zm0 0"/></g><g clip-path="url(#aL)"><path style="stroke:none;fill-rule:nonzero;fill:#000;fill-opacity:1" d="M102.102 16.387a.498.498 0 1 0-.997-.003.498.498 0 0 0 .997.003Zm0 0"/></g><g clip-path="url(#aM)"><path style="stroke:none;fill-rule:nonzero;fill:#000;fill-opacity:1" d="M105.09 16.387a.498.498 0 1 0-.997-.003.498.498 0 0 0 .997.003Zm0 0"/></g><g clip-path="url(#aN)"><path style="stroke:none;fill-rule:nonzero;fill:#000;fill-opacity:1" d="M108.078 16.387a.498.498 0 1 0-.997-.003.498.498 0 0 0 .997.003Zm0 0"/></g><g clip-path="url(#aO)"><path style="stroke:none;fill-rule:nonzero;fill:#000;fill-opacity:1" d="M111.066 16.387a.498.498 0 1 0-.995-.005.498.498 0 0 0 .995.005Zm0 0"/></g><g clip-path="url(#aP)"><path style="stroke:none;fill-rule:nonzero;fill:#000;fill-opacity:1" d="M114.055 16.387a.498.498 0 1 0-.996-.005.498.498 0 0 0 .996.005Zm0 0"/></g><g clip-path="url(#aQ)"><path style="stroke:none;fill-rule:nonzero;fill:#000;fill-opacity:1" d="M72.21 13.398a.498.498 0 1 0-.994-.004.498.498 0 0 0 .995.004Zm0 0"/></g><g clip-path="url(#aR)"><path style="stroke:none;fill-rule:nonzero;fill:#000;fill-opacity:1" d="M75.2 13.398a.498.498 0 1 0-.996-.004.498.498 0 0 0 .995.004Zm0 0"/></g><g clip-path="url(#aS)"><path style="stroke:none;fill-rule:nonzero;fill:#000;fill-opacity:1" d="M78.191 13.398a.498.498 0 1 0-.997-.005.498.498 0 0 0 .997.005Zm0 0"/></g><g clip-path="url(#aT)"><path style="stroke:none;fill-rule:nonzero;fill:#000;fill-opacity:1" d="M81.18 13.398a.498.498 0 1 0-.997-.003.498.498 0 0 0 .997.003Zm0 0"/></g><g clip-path="url(#aU)"><path style="stroke:none;fill-rule:nonzero;fill:#000;fill-opacity:1" d="M84.168 13.398a.498.498 0 1 0-.997-.003.498.498 0 0 0 .997.003Zm0 0"/></g><g clip-path="url(#aV)"><path style="stroke:none;fill-rule:nonzero;fill:#000;fill-opacity:1" d="M87.156 13.398a.498.498 0 1 0-.997-.003.498.498 0 0 0 .997.003Zm0 0"/></g><g clip-path="url(#aW)"><path style="stroke:none;fill-rule:nonzero;fill:#000;fill-opacity:1" d="M90.145 13.398a.498.498 0 1 0-.996-.004.498.498 0 0 0 .996.004Zm0 0"/></g><g clip-path="url(#aX)"><path style="stroke:none;fill-rule:nonzero;fill:#000;fill-opacity:1" d="M93.133 13.398a.498.498 0 1 0-.995-.004.498.498 0 0 0 .995.004Zm0 0"/></g><g clip-path="url(#aY)"><path style="stroke:none;fill-rule:nonzero;fill:#000;fill-opacity:1" d="M96.121 13.398a.498.498 0 1 0-.995-.004.498.498 0 0 0 .995.004Zm0 0"/></g><g clip-path="url(#aZ)"><path style="stroke:none;fill-rule:nonzero;fill:#000;fill-opacity:1" d="M99.113 13.398a.501.501 0 0 0-1 0 .5.5 0 0 0 1 0Zm0 0"/></g><g clip-path="url(#ba)"><path style="stroke:none;fill-rule:nonzero;fill:#000;fill-opacity:1" d="M102.102 13.398a.498.498 0 1 0-.997-.003.498.498 0 0 0 .997.003Zm0 0"/></g><g clip-path="url(#bb)"><path style="stroke:none;fill-rule:nonzero;fill:#000;fill-opacity:1" d="M105.09 13.398a.498.498 0 1 0-.997-.003.498.498 0 0 0 .997.003Zm0 0"/></g><g clip-path="url(#bc)"><path style="stroke:none;fill-rule:nonzero;fill:#000;fill-opacity:1" d="M108.078 13.398a.498.498 0 1 0-.997-.003.498.498 0 0 0 .997.003Zm0 0"/></g><g clip-path="url(#bd)"><path style="stroke:none;fill-rule:nonzero;fill:#000;fill-opacity:1" d="M111.066 13.398a.498.498 0 1 0-.995-.004.498.498 0 0 0 .995.004Zm0 0"/></g><g clip-path="url(#be)"><path style="stroke:none;fill-rule:nonzero;fill:#000;fill-opacity:1" d="M114.055 13.398a.498.498 0 1 0-.996-.004.498.498 0 0 0 .996.004Zm0 0"/></g><g clip-path="url(#bf)"><path style="stroke:none;fill-rule:nonzero;fill:#000;fill-opacity:1" d="M72.21 10.406a.498.498 0 1 0-.997.003.498.498 0 0 0 .998-.003Zm0 0"/></g><g clip-path="url(#bg)"><path style="stroke:none;fill-rule:nonzero;fill:#000;fill-opacity:1" d="M75.2 10.406a.498.498 0 1 0-.997.003.498.498 0 0 0 .996-.003Zm0 0"/></g><g clip-path="url(#bh)"><path style="stroke:none;fill-rule:nonzero;fill:#000;fill-opacity:1" d="M78.191 10.406a.5.5 0 0 0-.5-.496.498.498 0 1 0 .5.496Zm0 0"/></g><g clip-path="url(#bi)"><path style="stroke:none;fill-rule:nonzero;fill:#000;fill-opacity:1" d="M81.18 10.406a.498.498 0 1 0-.996.003.498.498 0 0 0 .996-.003Zm0 0"/></g><g clip-path="url(#bj)"><path style="stroke:none;fill-rule:nonzero;fill:#000;fill-opacity:1" d="M84.168 10.406a.498.498 0 1 0-.995.003.498.498 0 0 0 .995-.003Zm0 0"/></g><g clip-path="url(#bk)"><path style="stroke:none;fill-rule:nonzero;fill:#000;fill-opacity:1" d="M87.156 10.406a.498.498 0 1 0-.995.003.498.498 0 0 0 .995-.003Zm0 0"/></g><g clip-path="url(#bl)"><path style="stroke:none;fill-rule:nonzero;fill:#000;fill-opacity:1" d="M90.145 10.406a.498.498 0 1 0-.997.003.498.498 0 0 0 .997-.003Zm0 0"/></g><g clip-path="url(#bm)"><path style="stroke:none;fill-rule:nonzero;fill:#000;fill-opacity:1" d="M93.133 10.406a.498.498 0 1 0-.997.003.498.498 0 0 0 .997-.003Zm0 0"/></g><g clip-path="url(#bn)"><path style="stroke:none;fill-rule:nonzero;fill:#000;fill-opacity:1" d="M96.121 10.406a.498.498 0 1 0-.997.003.498.498 0 0 0 .997-.003Zm0 0"/></g><g clip-path="url(#bo)"><path style="stroke:none;fill-rule:nonzero;fill:#000;fill-opacity:1" d="M99.113 10.406a.5.5 0 0 0-1 0 .501.501 0 0 0 1 0Zm0 0"/></g><g clip-path="url(#bp)"><path style="stroke:none;fill-rule:nonzero;fill:#000;fill-opacity:1" d="M102.102 10.406a.498.498 0 1 0-.996.003.498.498 0 0 0 .996-.003Zm0 0"/></g><g clip-path="url(#bq)"><path style="stroke:none;fill-rule:nonzero;fill:#000;fill-opacity:1" d="M105.09 10.406a.498.498 0 1 0-.995.003.498.498 0 0 0 .995-.003Zm0 0"/></g><g clip-path="url(#br)"><path style="stroke:none;fill-rule:nonzero;fill:#000;fill-opacity:1" d="M108.078 10.406a.498.498 0 1 0-.995.003.498.498 0 0 0 .995-.003Zm0 0"/></g><g clip-path="url(#bs)"><path style="stroke:none;fill-rule:nonzero;fill:#000;fill-opacity:1" d="M111.066 10.406a.498.498 0 1 0-.997.003.498.498 0 0 0 .997-.003Zm0 0"/></g><g clip-path="url(#bt)"><path style="stroke:none;fill-rule:nonzero;fill:#000;fill-opacity:1" d="M114.055 10.406a.498.498 0 1 0-.997.003.498.498 0 0 0 .997-.003Zm0 0"/></g><g clip-path="url(#bu)"><path style="stroke:none;fill-rule:nonzero;fill:#00f;fill-opacity:1" d="M123.023 31.328a.498.498 0 1 0-.995.003.498.498 0 0 0 .995-.003Zm0 0"/></g><g clip-path="url(#bv)"><path style="stroke:none;fill-rule:nonzero;fill:#00f;fill-opacity:1" d="M126.012 31.328a.498.498 0 1 0-.996.003.498.498 0 0 0 .996-.003Zm0 0"/></g><g clip-path="url(#bw)"><path style="stroke:none;fill-rule:nonzero;fill:#00f;fill-opacity:1" d="M129 31.328a.498.498 0 1 0-.995.003.498.498 0 0 0 .995-.003Zm0 0"/></g><g clip-path="url(#bx)"><path style="stroke:none;fill-rule:nonzero;fill:#00f;fill-opacity:1" d="M131.988 31.328a.498.498 0 1 0-.997.003.498.498 0 0 0 .997-.003Zm0 0"/></g><g clip-path="url(#by)"><path style="stroke:none;fill-rule:nonzero;fill:#00f;fill-opacity:1" d="M134.977 31.328a.498.498 0 1 0-.997.003.498.498 0 0 0 .997-.003Zm0 0"/></g><g clip-path="url(#bz)"><path style="stroke:none;fill-rule:nonzero;fill:#00f;fill-opacity:1" d="M137.965 31.328a.498.498 0 1 0-.997.003.498.498 0 0 0 .997-.003Zm0 0"/></g><g clip-path="url(#bA)"><path style="stroke:none;fill-rule:nonzero;fill:#00f;fill-opacity:1" d="M140.953 31.328a.497.497 0 0 0-.496-.496.5.5 0 0 0-.5.496.498.498 0 1 0 .996 0Zm0 0"/></g><g clip-path="url(#bB)"><path style="stroke:none;fill-rule:nonzero;fill:#00f;fill-opacity:1" d="M143.945 31.328a.498.498 0 1 0-.995.003.498.498 0 0 0 .995-.003Zm0 0"/></g><g clip-path="url(#bC)"><path style="stroke:none;fill-rule:nonzero;fill:#00f;fill-opacity:1" d="M146.934 31.328a.498.498 0 1 0-.996.003.498.498 0 0 0 .996-.003Zm0 0"/></g><g clip-path="url(#bD)"><path style="stroke:none;fill-rule:nonzero;fill:#00f;fill-opacity:1" d="M149.922 31.328a.498.498 0 1 0-.995.003.498.498 0 0 0 .995-.003Zm0 0"/></g><g clip-path="url(#bE)"><path style="stroke:none;fill-rule:nonzero;fill:#00f;fill-opacity:1" d="M152.91 31.328a.498.498 0 1 0-.997.003.498.498 0 0 0 .997-.003Zm0 0"/></g><g clip-path="url(#bF)"><path style="stroke:none;fill-rule:nonzero;fill:#00f;fill-opacity:1" d="M155.898 31.328a.498.498 0 1 0-.997.003.498.498 0 0 0 .997-.003Zm0 0"/></g><g clip-path="url(#bG)"><path style="stroke:none;fill-rule:nonzero;fill:#00f;fill-opacity:1" d="M158.887 31.328a.498.498 0 1 0-.997.003.498.498 0 0 0 .997-.003Zm0 0"/></g><g clip-path="url(#bH)"><path style="stroke:none;fill-rule:nonzero;fill:#00f;fill-opacity:1" d="M161.875 31.328a.497.497 0 0 0-.496-.496.5.5 0 0 0-.5.496.498.498 0 1 0 .996 0Zm0 0"/></g><g clip-path="url(#bI)"><path style="stroke:none;fill-rule:nonzero;fill:#00f;fill-opacity:1" d="M164.867 31.328a.498.498 0 1 0-.995.003.498.498 0 0 0 .995-.003Zm0 0"/></g><g clip-path="url(#bJ)"><path style="stroke:none;fill-rule:nonzero;fill:#00f;fill-opacity:1" d="M123.023 28.34a.498.498 0 1 0-.995.003.498.498 0 0 0 .995-.003Zm0 0"/></g><g clip-path="url(#bK)"><path style="stroke:none;fill-rule:nonzero;fill:#00f;fill-opacity:1" d="M126.012 28.34a.498.498 0 1 0-.996.003.498.498 0 0 0 .996-.003Zm0 0"/></g><g clip-path="url(#bL)"><path style="stroke:none;fill-rule:nonzero;fill:#00f;fill-opacity:1" d="M129 28.34a.498.498 0 1 0-.995.003.498.498 0 0 0 .995-.003Zm0 0"/></g><g clip-path="url(#bM)"><path style="stroke:none;fill-rule:nonzero;fill:#00f;fill-opacity:1" d="M131.988 28.34a.498.498 0 1 0-.997.003.498.498 0 0 0 .997-.003Zm0 0"/></g><g clip-path="url(#bN)"><path style="stroke:none;fill-rule:nonzero;fill:#00f;fill-opacity:1" d="M134.977 28.34a.498.498 0 1 0-.997.003.498.498 0 0 0 .997-.003Zm0 0"/></g><g clip-path="url(#bO)"><path style="stroke:none;fill-rule:nonzero;fill:#00f;fill-opacity:1" d="M137.965 28.34a.498.498 0 1 0-.997.003.498.498 0 0 0 .997-.003Zm0 0"/></g><g clip-path="url(#bP)"><path style="stroke:none;fill-rule:nonzero;fill:#00f;fill-opacity:1" d="M140.953 28.34a.497.497 0 0 0-.496-.496.5.5 0 0 0-.5.496.498.498 0 1 0 .996 0Zm0 0"/></g><g clip-path="url(#bQ)"><path style="stroke:none;fill-rule:nonzero;fill:#00f;fill-opacity:1" d="M143.945 28.34a.498.498 0 1 0-.995.003.498.498 0 0 0 .995-.003Zm0 0"/></g><g clip-path="url(#bR)"><path style="stroke:none;fill-rule:nonzero;fill:#00f;fill-opacity:1" d="M146.934 28.34a.498.498 0 1 0-.996.003.498.498 0 0 0 .996-.003Zm0 0"/></g><g clip-path="url(#bS)"><path style="stroke:none;fill-rule:nonzero;fill:#00f;fill-opacity:1" d="M149.922 28.34a.498.498 0 1 0-.995.003.498.498 0 0 0 .995-.003Zm0 0"/></g><g clip-path="url(#bT)"><path style="stroke:none;fill-rule:nonzero;fill:#00f;fill-opacity:1" d="M152.91 28.34a.498.498 0 1 0-.997.003.498.498 0 0 0 .997-.003Zm0 0"/></g><g clip-path="url(#bU)"><path style="stroke:none;fill-rule:nonzero;fill:#00f;fill-opacity:1" d="M155.898 28.34a.498.498 0 1 0-.997.003.498.498 0 0 0 .997-.003Zm0 0"/></g><g clip-path="url(#bV)"><path style="stroke:none;fill-rule:nonzero;fill:#00f;fill-opacity:1" d="M158.887 28.34a.498.498 0 1 0-.997.003.498.498 0 0 0 .997-.003Zm0 0"/></g><g clip-path="url(#bW)"><path style="stroke:none;fill-rule:nonzero;fill:#00f;fill-opacity:1" d="M161.875 28.34a.497.497 0 0 0-.496-.496.5.5 0 0 0-.5.496.498.498 0 1 0 .996 0Zm0 0"/></g><g clip-path="url(#bX)"><path style="stroke:none;fill-rule:nonzero;fill:#00f;fill-opacity:1" d="M164.867 28.34a.498.498 0 1 0-.995.003.498.498 0 0 0 .995-.003Zm0 0"/></g><g clip-path="url(#bY)"><path style="stroke:none;fill-rule:nonzero;fill:#00f;fill-opacity:1" d="M123.023 25.352a.498.498 0 1 0-.995.003.498.498 0 0 0 .995-.003Zm0 0"/></g><g clip-path="url(#bZ)"><path style="stroke:none;fill-rule:nonzero;fill:#00f;fill-opacity:1" d="M126.012 25.352a.498.498 0 1 0-.996.003.498.498 0 0 0 .996-.003Zm0 0"/></g><g clip-path="url(#ca)"><path style="stroke:none;fill-rule:nonzero;fill:#00f;fill-opacity:1" d="M129 25.352a.498.498 0 1 0-.995.003.498.498 0 0 0 .995-.003Zm0 0"/></g><g clip-path="url(#cb)"><path style="stroke:none;fill-rule:nonzero;fill:#00f;fill-opacity:1" d="M131.988 25.352a.498.498 0 1 0-.997.003.498.498 0 0 0 .997-.003Zm0 0"/></g><g clip-path="url(#cc)"><path style="stroke:none;fill-rule:nonzero;fill:#00f;fill-opacity:1" d="M134.977 25.352a.498.498 0 1 0-.997.003.498.498 0 0 0 .997-.003Zm0 0"/></g><g clip-path="url(#cd)"><path style="stroke:none;fill-rule:nonzero;fill:#00f;fill-opacity:1" d="M137.965 25.352a.498.498 0 1 0-.997.003.498.498 0 0 0 .997-.003Zm0 0"/></g><g clip-path="url(#ce)"><path style="stroke:none;fill-rule:nonzero;fill:#00f;fill-opacity:1" d="M140.953 25.352a.497.497 0 0 0-.496-.497.5.5 0 0 0-.5.497.498.498 0 1 0 .996 0Zm0 0"/></g><g clip-path="url(#cf)"><path style="stroke:none;fill-rule:nonzero;fill:#00f;fill-opacity:1" d="M143.945 25.352a.498.498 0 1 0-.995.003.498.498 0 0 0 .995-.003Zm0 0"/></g><g clip-path="url(#cg)"><path style="stroke:none;fill-rule:nonzero;fill:#00f;fill-opacity:1" d="M146.934 25.352a.498.498 0 1 0-.996.003.498.498 0 0 0 .996-.003Zm0 0"/></g><g clip-path="url(#ch)"><path style="stroke:none;fill-rule:nonzero;fill:#00f;fill-opacity:1" d="M149.922 25.352a.498.498 0 1 0-.995.003.498.498 0 0 0 .995-.003Zm0 0"/></g><g clip-path="url(#ci)"><path style="stroke:none;fill-rule:nonzero;fill:#00f;fill-opacity:1" d="M152.91 25.352a.498.498 0 1 0-.997.003.498.498 0 0 0 .997-.003Zm0 0"/></g><g clip-path="url(#cj)"><path style="stroke:none;fill-rule:nonzero;fill:#00f;fill-opacity:1" d="M155.898 25.352a.498.498 0 1 0-.997.003.498.498 0 0 0 .997-.003Zm0 0"/></g><g clip-path="url(#ck)"><path style="stroke:none;fill-rule:nonzero;fill:#00f;fill-opacity:1" d="M158.887 25.352a.498.498 0 1 0-.997.003.498.498 0 0 0 .997-.003Zm0 0"/></g><g clip-path="url(#cl)"><path style="stroke:none;fill-rule:nonzero;fill:#00f;fill-opacity:1" d="M161.875 25.352a.497.497 0 0 0-.496-.497.5.5 0 0 0-.5.497.498.498 0 1 0 .996 0Zm0 0"/></g><g clip-path="url(#cm)"><path style="stroke:none;fill-rule:nonzero;fill:#00f;fill-opacity:1" d="M164.867 25.352a.498.498 0 1 0-.995.003.498.498 0 0 0 .995-.003Zm0 0"/></g><g clip-path="url(#cn)"><path style="stroke:none;fill-rule:nonzero;fill:#00f;fill-opacity:1" d="M123.023 22.363c0-.273-.222-.5-.5-.5a.5.5 0 0 0 0 1c.278 0 .5-.226.5-.5Zm0 0"/></g><g clip-path="url(#co)"><path style="stroke:none;fill-rule:nonzero;fill:#00f;fill-opacity:1" d="M126.012 22.363c0-.273-.223-.5-.5-.5a.5.5 0 0 0 0 1c.277 0 .5-.226.5-.5Zm0 0"/></g><g clip-path="url(#cp)"><path style="stroke:none;fill-rule:nonzero;fill:#00f;fill-opacity:1" d="M129 22.363c0-.273-.223-.5-.5-.5a.5.5 0 0 0 0 1c.277 0 .5-.226.5-.5Zm0 0"/></g><g clip-path="url(#cq)"><path style="stroke:none;fill-rule:nonzero;fill:#00f;fill-opacity:1" d="M131.988 22.363a.5.5 0 0 0-.496-.5.501.501 0 0 0 0 1 .5.5 0 0 0 .496-.5Zm0 0"/></g><g clip-path="url(#cr)"><path style="stroke:none;fill-rule:nonzero;fill:#00f;fill-opacity:1" d="M134.977 22.363a.5.5 0 0 0-.497-.5.501.501 0 0 0 0 1 .5.5 0 0 0 .497-.5Zm0 0"/></g><g clip-path="url(#cs)"><path style="stroke:none;fill-rule:nonzero;fill:#00f;fill-opacity:1" d="M137.965 22.363a.5.5 0 0 0-.496-.5.501.501 0 0 0 0 1 .5.5 0 0 0 .496-.5Zm0 0"/></g><g clip-path="url(#ct)"><path style="stroke:none;fill-rule:nonzero;fill:#00f;fill-opacity:1" d="M140.953 22.363a.5.5 0 0 0-.496-.5c-.273 0-.5.227-.5.5 0 .274.227.5.5.5a.5.5 0 0 0 .496-.5Zm0 0"/></g><g clip-path="url(#cu)"><path style="stroke:none;fill-rule:nonzero;fill:#00f;fill-opacity:1" d="M143.945 22.363c0-.273-.222-.5-.5-.5a.5.5 0 0 0 0 1c.278 0 .5-.226.5-.5Zm0 0"/></g><g clip-path="url(#cv)"><path style="stroke:none;fill-rule:nonzero;fill:#00f;fill-opacity:1" d="M146.934 22.363c0-.273-.223-.5-.5-.5a.5.5 0 0 0 0 1c.277 0 .5-.226.5-.5Zm0 0"/></g><g clip-path="url(#cw)"><path style="stroke:none;fill-rule:nonzero;fill:#00f;fill-opacity:1" d="M149.922 22.363c0-.273-.223-.5-.5-.5a.5.5 0 0 0 0 1c.277 0 .5-.226.5-.5Zm0 0"/></g><g clip-path="url(#cx)"><path style="stroke:none;fill-rule:nonzero;fill:#00f;fill-opacity:1" d="M152.91 22.363a.5.5 0 0 0-.496-.5.501.501 0 0 0 0 1 .5.5 0 0 0 .496-.5Zm0 0"/></g><g clip-path="url(#cy)"><path style="stroke:none;fill-rule:nonzero;fill:#00f;fill-opacity:1" d="M155.898 22.363a.5.5 0 0 0-.496-.5.501.501 0 0 0 0 1 .5.5 0 0 0 .496-.5Zm0 0"/></g><g clip-path="url(#cz)"><path style="stroke:none;fill-rule:nonzero;fill:#00f;fill-opacity:1" d="M158.887 22.363a.5.5 0 0 0-.496-.5.501.501 0 0 0 0 1 .5.5 0 0 0 .496-.5Zm0 0"/></g><g clip-path="url(#cA)"><path style="stroke:none;fill-rule:nonzero;fill:#00f;fill-opacity:1" d="M161.875 22.363a.5.5 0 0 0-.496-.5c-.274 0-.5.227-.5.5 0 .274.226.5.5.5a.5.5 0 0 0 .496-.5Zm0 0"/></g><g clip-path="url(#cB)"><path style="stroke:none;fill-rule:nonzero;fill:#00f;fill-opacity:1" d="M164.867 22.363c0-.273-.222-.5-.5-.5a.5.5 0 0 0 0 1c.278 0 .5-.226.5-.5Zm0 0"/></g><g clip-path="url(#cC)"><path style="stroke:none;fill-rule:nonzero;fill:#00f;fill-opacity:1" d="M123.023 19.375a.498.498 0 1 0-.996-.003.498.498 0 0 0 .996.003Zm0 0"/></g><g clip-path="url(#cD)"><path style="stroke:none;fill-rule:nonzero;fill:#00f;fill-opacity:1" d="M126.012 19.375a.498.498 0 1 0-.997-.003.498.498 0 0 0 .997.003Zm0 0"/></g><g clip-path="url(#cE)"><path style="stroke:none;fill-rule:nonzero;fill:#00f;fill-opacity:1" d="M129 19.375a.498.498 0 1 0-.997-.003.498.498 0 0 0 .997.003Zm0 0"/></g><g clip-path="url(#cF)"><path style="stroke:none;fill-rule:nonzero;fill:#00f;fill-opacity:1" d="M131.988 19.375a.498.498 0 1 0-.995-.005.498.498 0 0 0 .995.005Zm0 0"/></g><g clip-path="url(#cG)"><path style="stroke:none;fill-rule:nonzero;fill:#00f;fill-opacity:1" d="M134.977 19.375a.498.498 0 1 0-.996-.005.498.498 0 0 0 .996.005Zm0 0"/></g><g clip-path="url(#cH)"><path style="stroke:none;fill-rule:nonzero;fill:#00f;fill-opacity:1" d="M137.965 19.375a.498.498 0 1 0-.995-.005.498.498 0 0 0 .995.005Zm0 0"/></g><g clip-path="url(#cI)"><path style="stroke:none;fill-rule:nonzero;fill:#00f;fill-opacity:1" d="M140.953 19.375a.498.498 0 1 0-.995-.005.498.498 0 0 0 .995.005Zm0 0"/></g><g clip-path="url(#cJ)"><path style="stroke:none;fill-rule:nonzero;fill:#00f;fill-opacity:1" d="M143.945 19.375a.498.498 0 1 0-.997-.003.498.498 0 0 0 .997.003Zm0 0"/></g><g clip-path="url(#cK)"><path style="stroke:none;fill-rule:nonzero;fill:#00f;fill-opacity:1" d="M146.934 19.375a.498.498 0 1 0-.997-.003.498.498 0 0 0 .997.003Zm0 0"/></g><g clip-path="url(#cL)"><path style="stroke:none;fill-rule:nonzero;fill:#00f;fill-opacity:1" d="M149.922 19.375a.498.498 0 1 0-.997-.003.498.498 0 0 0 .997.003Zm0 0"/></g><g clip-path="url(#cM)"><path style="stroke:none;fill-rule:nonzero;fill:#00f;fill-opacity:1" d="M152.91 19.375a.498.498 0 1 0-.995-.005.498.498 0 0 0 .995.005Zm0 0"/></g><g clip-path="url(#cN)"><path style="stroke:none;fill-rule:nonzero;fill:#00f;fill-opacity:1" d="M155.898 19.375a.498.498 0 1 0-.995-.005.498.498 0 0 0 .995.005Zm0 0"/></g><g clip-path="url(#cO)"><path style="stroke:none;fill-rule:nonzero;fill:#00f;fill-opacity:1" d="M158.887 19.375a.498.498 0 1 0-.996-.005.498.498 0 0 0 .996.005Zm0 0"/></g><g clip-path="url(#cP)"><path style="stroke:none;fill-rule:nonzero;fill:#00f;fill-opacity:1" d="M161.875 19.375a.498.498 0 1 0-.995-.005.498.498 0 0 0 .995.005Zm0 0"/></g><g clip-path="url(#cQ)"><path style="stroke:none;fill-rule:nonzero;fill:#00f;fill-opacity:1" d="M164.867 19.375a.498.498 0 1 0-.997-.003.498.498 0 0 0 .997.003Zm0 0"/></g><g clip-path="url(#cR)"><path style="stroke:none;fill-rule:nonzero;fill:#00f;fill-opacity:1" d="M123.023 16.387a.498.498 0 1 0-.996-.003.498.498 0 0 0 .996.003Zm0 0"/></g><g clip-path="url(#cS)"><path style="stroke:none;fill-rule:nonzero;fill:#00f;fill-opacity:1" d="M126.012 16.387a.498.498 0 1 0-.997-.003.498.498 0 0 0 .997.003Zm0 0"/></g><g clip-path="url(#cT)"><path style="stroke:none;fill-rule:nonzero;fill:#00f;fill-opacity:1" d="M129 16.387a.498.498 0 1 0-.997-.003.498.498 0 0 0 .997.003Zm0 0"/></g><g clip-path="url(#cU)"><path style="stroke:none;fill-rule:nonzero;fill:#00f;fill-opacity:1" d="M131.988 16.387a.498.498 0 1 0-.995-.005.498.498 0 0 0 .995.005Zm0 0"/></g><g clip-path="url(#cV)"><path style="stroke:none;fill-rule:nonzero;fill:#00f;fill-opacity:1" d="M134.977 16.387a.498.498 0 1 0-.996-.005.498.498 0 0 0 .996.005Zm0 0"/></g><g clip-path="url(#cW)"><path style="stroke:none;fill-rule:nonzero;fill:#00f;fill-opacity:1" d="M137.965 16.387a.498.498 0 1 0-.995-.005.498.498 0 0 0 .995.005Zm0 0"/></g><g clip-path="url(#cX)"><path style="stroke:none;fill-rule:nonzero;fill:#00f;fill-opacity:1" d="M140.953 16.387a.498.498 0 1 0-.995-.005.498.498 0 0 0 .995.005Zm0 0"/></g><g clip-path="url(#cY)"><path style="stroke:none;fill-rule:nonzero;fill:#00f;fill-opacity:1" d="M143.945 16.387a.498.498 0 1 0-.997-.003.498.498 0 0 0 .997.003Zm0 0"/></g><g clip-path="url(#cZ)"><path style="stroke:none;fill-rule:nonzero;fill:#00f;fill-opacity:1" d="M146.934 16.387a.498.498 0 1 0-.997-.003.498.498 0 0 0 .997.003Zm0 0"/></g><g clip-path="url(#da)"><path style="stroke:none;fill-rule:nonzero;fill:#00f;fill-opacity:1" d="M149.922 16.387a.498.498 0 1 0-.997-.003.498.498 0 0 0 .997.003Zm0 0"/></g><g clip-path="url(#db)"><path style="stroke:none;fill-rule:nonzero;fill:#00f;fill-opacity:1" d="M152.91 16.387a.498.498 0 1 0-.995-.005.498.498 0 0 0 .995.005Zm0 0"/></g><g clip-path="url(#dc)"><path style="stroke:none;fill-rule:nonzero;fill:#00f;fill-opacity:1" d="M155.898 16.387a.498.498 0 1 0-.995-.005.498.498 0 0 0 .995.005Zm0 0"/></g><g clip-path="url(#dd)"><path style="stroke:none;fill-rule:nonzero;fill:#00f;fill-opacity:1" d="M158.887 16.387a.498.498 0 1 0-.996-.005.498.498 0 0 0 .996.005Zm0 0"/></g><g clip-path="url(#de)"><path style="stroke:none;fill-rule:nonzero;fill:#00f;fill-opacity:1" d="M161.875 16.387a.498.498 0 1 0-.995-.005.498.498 0 0 0 .995.005Zm0 0"/></g><g clip-path="url(#df)"><path style="stroke:none;fill-rule:nonzero;fill:#00f;fill-opacity:1" d="M164.867 16.387a.498.498 0 1 0-.997-.003.498.498 0 0 0 .997.003Zm0 0"/></g><g clip-path="url(#dg)"><path style="stroke:none;fill-rule:nonzero;fill:#00f;fill-opacity:1" d="M123.023 13.398a.498.498 0 1 0-.996-.003.498.498 0 0 0 .996.003Zm0 0"/></g><g clip-path="url(#dh)"><path style="stroke:none;fill-rule:nonzero;fill:#00f;fill-opacity:1" d="M126.012 13.398a.498.498 0 1 0-.997-.003.498.498 0 0 0 .997.003Zm0 0"/></g><g clip-path="url(#di)"><path style="stroke:none;fill-rule:nonzero;fill:#00f;fill-opacity:1" d="M129 13.398a.498.498 0 1 0-.997-.003.498.498 0 0 0 .997.003Zm0 0"/></g><g clip-path="url(#dj)"><path style="stroke:none;fill-rule:nonzero;fill:#00f;fill-opacity:1" d="M131.988 13.398a.498.498 0 1 0-.995-.004.498.498 0 0 0 .995.004Zm0 0"/></g><g clip-path="url(#dk)"><path style="stroke:none;fill-rule:nonzero;fill:#00f;fill-opacity:1" d="M134.977 13.398a.498.498 0 1 0-.996-.004.498.498 0 0 0 .996.004Zm0 0"/></g><g clip-path="url(#dl)"><path style="stroke:none;fill-rule:nonzero;fill:#00f;fill-opacity:1" d="M137.965 13.398a.498.498 0 1 0-.995-.004.498.498 0 0 0 .995.004Zm0 0"/></g><g clip-path="url(#dm)"><path style="stroke:none;fill-rule:nonzero;fill:#00f;fill-opacity:1" d="M140.953 13.398a.498.498 0 1 0-.995-.004.498.498 0 0 0 .995.004Zm0 0"/></g><g clip-path="url(#dn)"><path style="stroke:none;fill-rule:nonzero;fill:#00f;fill-opacity:1" d="M143.945 13.398a.498.498 0 1 0-.997-.003.498.498 0 0 0 .997.003Zm0 0"/></g><g clip-path="url(#do)"><path style="stroke:none;fill-rule:nonzero;fill:#00f;fill-opacity:1" d="M146.934 13.398a.498.498 0 1 0-.997-.003.498.498 0 0 0 .997.003Zm0 0"/></g><g clip-path="url(#dp)"><path style="stroke:none;fill-rule:nonzero;fill:#00f;fill-opacity:1" d="M149.922 13.398a.498.498 0 1 0-.997-.003.498.498 0 0 0 .997.003Zm0 0"/></g><g clip-path="url(#dq)"><path style="stroke:none;fill-rule:nonzero;fill:#00f;fill-opacity:1" d="M152.91 13.398a.498.498 0 1 0-.995-.004.498.498 0 0 0 .995.004Zm0 0"/></g><g clip-path="url(#dr)"><path style="stroke:none;fill-rule:nonzero;fill:#00f;fill-opacity:1" d="M155.898 13.398a.498.498 0 1 0-.995-.004.498.498 0 0 0 .995.004Zm0 0"/></g><g clip-path="url(#ds)"><path style="stroke:none;fill-rule:nonzero;fill:#00f;fill-opacity:1" d="M158.887 13.398a.498.498 0 1 0-.996-.004.498.498 0 0 0 .996.004Zm0 0"/></g><g clip-path="url(#dt)"><path style="stroke:none;fill-rule:nonzero;fill:#00f;fill-opacity:1" d="M161.875 13.398a.498.498 0 1 0-.995-.004.498.498 0 0 0 .995.004Zm0 0"/></g><g clip-path="url(#du)"><path style="stroke:none;fill-rule:nonzero;fill:#00f;fill-opacity:1" d="M164.867 13.398a.498.498 0 1 0-.997-.003.498.498 0 0 0 .997.003Zm0 0"/></g><g clip-path="url(#dv)"><path style="stroke:none;fill-rule:nonzero;fill:#00f;fill-opacity:1" d="M123.023 10.406a.498.498 0 1 0-.995.003.498.498 0 0 0 .995-.003Zm0 0"/></g><g clip-path="url(#dw)"><path style="stroke:none;fill-rule:nonzero;fill:#00f;fill-opacity:1" d="M126.012 10.406a.498.498 0 1 0-.996.003.498.498 0 0 0 .996-.003Zm0 0"/></g><g clip-path="url(#dx)"><path style="stroke:none;fill-rule:nonzero;fill:#00f;fill-opacity:1" d="M129 10.406a.498.498 0 1 0-.995.003.498.498 0 0 0 .995-.003Zm0 0"/></g><g clip-path="url(#dy)"><path style="stroke:none;fill-rule:nonzero;fill:#00f;fill-opacity:1" d="M131.988 10.406a.498.498 0 1 0-.997.003.498.498 0 0 0 .997-.003Zm0 0"/></g><g clip-path="url(#dz)"><path style="stroke:none;fill-rule:nonzero;fill:#00f;fill-opacity:1" d="M134.977 10.406a.498.498 0 1 0-.997.003.498.498 0 0 0 .997-.003Zm0 0"/></g><g clip-path="url(#dA)"><path style="stroke:none;fill-rule:nonzero;fill:#00f;fill-opacity:1" d="M137.965 10.406a.498.498 0 1 0-.997.003.498.498 0 0 0 .997-.003Zm0 0"/></g><g clip-path="url(#dB)"><path style="stroke:none;fill-rule:nonzero;fill:#00f;fill-opacity:1" d="M140.953 10.406a.497.497 0 0 0-.496-.496.5.5 0 0 0-.5.496.498.498 0 1 0 .996 0Zm0 0"/></g><g clip-path="url(#dC)"><path style="stroke:none;fill-rule:nonzero;fill:#00f;fill-opacity:1" d="M143.945 10.406a.498.498 0 1 0-.995.003.498.498 0 0 0 .995-.003Zm0 0"/></g><g clip-path="url(#dD)"><path style="stroke:none;fill-rule:nonzero;fill:#00f;fill-opacity:1" d="M146.934 10.406a.498.498 0 1 0-.996.003.498.498 0 0 0 .996-.003Zm0 0"/></g><g clip-path="url(#dE)"><path style="stroke:none;fill-rule:nonzero;fill:#00f;fill-opacity:1" d="M149.922 10.406a.498.498 0 1 0-.995.003.498.498 0 0 0 .995-.003Zm0 0"/></g><g clip-path="url(#dF)"><path style="stroke:none;fill-rule:nonzero;fill:#00f;fill-opacity:1" d="M152.91 10.406a.498.498 0 1 0-.997.003.498.498 0 0 0 .997-.003Zm0 0"/></g><g clip-path="url(#dG)"><path style="stroke:none;fill-rule:nonzero;fill:#00f;fill-opacity:1" d="M155.898 10.406a.498.498 0 1 0-.997.003.498.498 0 0 0 .997-.003Zm0 0"/></g><g clip-path="url(#dH)"><path style="stroke:none;fill-rule:nonzero;fill:#00f;fill-opacity:1" d="M158.887 10.406a.498.498 0 1 0-.997.003.498.498 0 0 0 .997-.003Zm0 0"/></g><g clip-path="url(#dI)"><path style="stroke:none;fill-rule:nonzero;fill:#00f;fill-opacity:1" d="M161.875 10.406a.497.497 0 0 0-.496-.496.5.5 0 0 0-.5.496.498.498 0 1 0 .996 0Zm0 0"/></g><g clip-path="url(#dJ)"><path style="stroke:none;fill-rule:nonzero;fill:#00f;fill-opacity:1" d="M164.867 10.406a.498.498 0 1 0-.995.003.498.498 0 0 0 .995-.003Zm0 0"/></g><g clip-path="url(#dK)"><path style="stroke:none;fill-rule:nonzero;fill:red;fill-opacity:1" d="M173.832 31.328a.498.498 0 1 0-.997.003.498.498 0 0 0 .997-.003Zm0 0"/></g><g clip-path="url(#dL)"><path style="stroke:none;fill-rule:nonzero;fill:red;fill-opacity:1" d="M176.82 31.328a.498.498 0 1 0-.997.003.498.498 0 0 0 .997-.003Zm0 0"/></g><g clip-path="url(#dM)"><path style="stroke:none;fill-rule:nonzero;fill:red;fill-opacity:1" d="M179.809 31.328a.498.498 0 1 0-.997.003.498.498 0 0 0 .997-.003Zm0 0"/></g><g clip-path="url(#dN)"><path style="stroke:none;fill-rule:nonzero;fill:red;fill-opacity:1" d="M182.797 31.328a.497.497 0 0 0-.496-.496.5.5 0 0 0-.5.496.498.498 0 1 0 .996 0Zm0 0"/></g><g clip-path="url(#dO)"><path style="stroke:none;fill-rule:nonzero;fill:red;fill-opacity:1" d="M185.79 31.328a.498.498 0 1 0-.996.003.498.498 0 0 0 .995-.003Zm0 0"/></g><g clip-path="url(#dP)"><path style="stroke:none;fill-rule:nonzero;fill:red;fill-opacity:1" d="M188.777 31.328a.498.498 0 1 0-.995.003.498.498 0 0 0 .995-.003Zm0 0"/></g><g clip-path="url(#dQ)"><path style="stroke:none;fill-rule:nonzero;fill:red;fill-opacity:1" d="M191.766 31.328a.498.498 0 1 0-.996.003.498.498 0 0 0 .996-.003Zm0 0"/></g><g clip-path="url(#dR)"><path style="stroke:none;fill-rule:nonzero;fill:red;fill-opacity:1" d="M194.754 31.328a.498.498 0 1 0-.997.003.498.498 0 0 0 .997-.003Zm0 0"/></g><g clip-path="url(#dS)"><path style="stroke:none;fill-rule:nonzero;fill:red;fill-opacity:1" d="M197.742 31.328a.498.498 0 1 0-.997.003.498.498 0 0 0 .997-.003Zm0 0"/></g><g clip-path="url(#dT)"><path style="stroke:none;fill-rule:nonzero;fill:red;fill-opacity:1" d="M200.73 31.328a.498.498 0 1 0-.997.003.498.498 0 0 0 .997-.003Zm0 0"/></g><g clip-path="url(#dU)"><path style="stroke:none;fill-rule:nonzero;fill:red;fill-opacity:1" d="M203.719 31.328a.498.498 0 1 0-.997.003.498.498 0 0 0 .997-.003Zm0 0"/></g><g clip-path="url(#dV)"><path style="stroke:none;fill-rule:nonzero;fill:red;fill-opacity:1" d="M206.71 31.328a.5.5 0 0 0-.5-.496.498.498 0 1 0 .5.496Zm0 0"/></g><g clip-path="url(#dW)"><path style="stroke:none;fill-rule:nonzero;fill:red;fill-opacity:1" d="M209.7 31.328a.498.498 0 1 0-.996.003.498.498 0 0 0 .995-.003Zm0 0"/></g><g clip-path="url(#dX)"><path style="stroke:none;fill-rule:nonzero;fill:red;fill-opacity:1" d="M212.688 31.328a.498.498 0 1 0-.996.003.498.498 0 0 0 .995-.003Zm0 0"/></g><g clip-path="url(#dY)"><path style="stroke:none;fill-rule:nonzero;fill:red;fill-opacity:1" d="M173.832 28.34a.498.498 0 1 0-.997.003.498.498 0 0 0 .997-.003Zm0 0"/></g><g clip-path="url(#dZ)"><path style="stroke:none;fill-rule:nonzero;fill:red;fill-opacity:1" d="M176.82 28.34a.498.498 0 1 0-.997.003.498.498 0 0 0 .997-.003Zm0 0"/></g><g clip-path="url(#ea)"><path style="stroke:none;fill-rule:nonzero;fill:red;fill-opacity:1" d="M179.809 28.34a.498.498 0 1 0-.997.003.498.498 0 0 0 .997-.003Zm0 0"/></g><g clip-path="url(#eb)"><path style="stroke:none;fill-rule:nonzero;fill:red;fill-opacity:1" d="M182.797 28.34a.497.497 0 0 0-.496-.496.5.5 0 0 0-.5.496.498.498 0 1 0 .996 0Zm0 0"/></g><g clip-path="url(#ec)"><path style="stroke:none;fill-rule:nonzero;fill:red;fill-opacity:1" d="M185.79 28.34a.498.498 0 1 0-.996.003.498.498 0 0 0 .995-.003Zm0 0"/></g><g clip-path="url(#ed)"><path style="stroke:none;fill-rule:nonzero;fill:red;fill-opacity:1" d="M188.777 28.34a.498.498 0 1 0-.995.003.498.498 0 0 0 .995-.003Zm0 0"/></g><g clip-path="url(#ee)"><path style="stroke:none;fill-rule:nonzero;fill:red;fill-opacity:1" d="M191.766 28.34a.498.498 0 1 0-.996.003.498.498 0 0 0 .996-.003Zm0 0"/></g><g clip-path="url(#ef)"><path style="stroke:none;fill-rule:nonzero;fill:red;fill-opacity:1" d="M194.754 28.34a.498.498 0 1 0-.997.003.498.498 0 0 0 .997-.003Zm0 0"/></g><g clip-path="url(#eg)"><path style="stroke:none;fill-rule:nonzero;fill:red;fill-opacity:1" d="M197.742 28.34a.498.498 0 1 0-.997.003.498.498 0 0 0 .997-.003Zm0 0"/></g><g clip-path="url(#eh)"><path style="stroke:none;fill-rule:nonzero;fill:red;fill-opacity:1" d="M200.73 28.34a.498.498 0 1 0-.997.003.498.498 0 0 0 .997-.003Zm0 0"/></g><g clip-path="url(#ei)"><path style="stroke:none;fill-rule:nonzero;fill:red;fill-opacity:1" d="M203.719 28.34a.498.498 0 1 0-.997.003.498.498 0 0 0 .997-.003Zm0 0"/></g><g clip-path="url(#ej)"><path style="stroke:none;fill-rule:nonzero;fill:red;fill-opacity:1" d="M206.71 28.34a.5.5 0 0 0-.5-.496.498.498 0 1 0 .5.496Zm0 0"/></g><g clip-path="url(#ek)"><path style="stroke:none;fill-rule:nonzero;fill:red;fill-opacity:1" d="M209.7 28.34a.498.498 0 1 0-.996.003.498.498 0 0 0 .995-.003Zm0 0"/></g><g clip-path="url(#el)"><path style="stroke:none;fill-rule:nonzero;fill:red;fill-opacity:1" d="M212.688 28.34a.498.498 0 1 0-.996.003.498.498 0 0 0 .995-.003Zm0 0"/></g><g clip-path="url(#em)"><path style="stroke:none;fill-rule:nonzero;fill:red;fill-opacity:1" d="M173.832 25.352a.498.498 0 1 0-.997.003.498.498 0 0 0 .997-.003Zm0 0"/></g><g clip-path="url(#en)"><path style="stroke:none;fill-rule:nonzero;fill:red;fill-opacity:1" d="M176.82 25.352a.498.498 0 1 0-.997.003.498.498 0 0 0 .997-.003Zm0 0"/></g><g clip-path="url(#eo)"><path style="stroke:none;fill-rule:nonzero;fill:red;fill-opacity:1" d="M179.809 25.352a.498.498 0 1 0-.997.003.498.498 0 0 0 .997-.003Zm0 0"/></g><g clip-path="url(#ep)"><path style="stroke:none;fill-rule:nonzero;fill:red;fill-opacity:1" d="M182.797 25.352a.497.497 0 0 0-.496-.497.5.5 0 0 0-.5.497.498.498 0 1 0 .996 0Zm0 0"/></g><g clip-path="url(#eq)"><path style="stroke:none;fill-rule:nonzero;fill:red;fill-opacity:1" d="M185.79 25.352a.498.498 0 1 0-.996.003.498.498 0 0 0 .995-.003Zm0 0"/></g><g clip-path="url(#er)"><path style="stroke:none;fill-rule:nonzero;fill:red;fill-opacity:1" d="M188.777 25.352a.498.498 0 1 0-.995.003.498.498 0 0 0 .995-.003Zm0 0"/></g><g clip-path="url(#es)"><path style="stroke:none;fill-rule:nonzero;fill:red;fill-opacity:1" d="M191.766 25.352a.498.498 0 1 0-.996.003.498.498 0 0 0 .996-.003Zm0 0"/></g><g clip-path="url(#et)"><path style="stroke:none;fill-rule:nonzero;fill:red;fill-opacity:1" d="M194.754 25.352a.498.498 0 1 0-.997.003.498.498 0 0 0 .997-.003Zm0 0"/></g><g clip-path="url(#eu)"><path style="stroke:none;fill-rule:nonzero;fill:red;fill-opacity:1" d="M197.742 25.352a.498.498 0 1 0-.997.003.498.498 0 0 0 .997-.003Zm0 0"/></g><g clip-path="url(#ev)"><path style="stroke:none;fill-rule:nonzero;fill:red;fill-opacity:1" d="M200.73 25.352a.498.498 0 1 0-.997.003.498.498 0 0 0 .997-.003Zm0 0"/></g><g clip-path="url(#ew)"><path style="stroke:none;fill-rule:nonzero;fill:red;fill-opacity:1" d="M203.719 25.352a.498.498 0 1 0-.997.003.498.498 0 0 0 .997-.003Zm0 0"/></g><g clip-path="url(#ex)"><path style="stroke:none;fill-rule:nonzero;fill:red;fill-opacity:1" d="M206.71 25.352a.5.5 0 0 0-.5-.497.498.498 0 1 0 .5.496Zm0 0"/></g><g clip-path="url(#ey)"><path style="stroke:none;fill-rule:nonzero;fill:red;fill-opacity:1" d="M209.7 25.352a.498.498 0 1 0-.996.003.498.498 0 0 0 .995-.003Zm0 0"/></g><g clip-path="url(#ez)"><path style="stroke:none;fill-rule:nonzero;fill:red;fill-opacity:1" d="M212.688 25.352a.498.498 0 1 0-.996.003.498.498 0 0 0 .995-.003Zm0 0"/></g><g clip-path="url(#eA)"><path style="stroke:none;fill-rule:nonzero;fill:red;fill-opacity:1" d="M173.832 22.363a.5.5 0 0 0-.496-.5.501.501 0 0 0 0 1 .5.5 0 0 0 .496-.5Zm0 0"/></g><g clip-path="url(#eB)"><path style="stroke:none;fill-rule:nonzero;fill:red;fill-opacity:1" d="M176.82 22.363a.5.5 0 0 0-.496-.5.501.501 0 0 0 0 1 .5.5 0 0 0 .496-.5Zm0 0"/></g><g clip-path="url(#eC)"><path style="stroke:none;fill-rule:nonzero;fill:red;fill-opacity:1" d="M179.809 22.363a.5.5 0 0 0-.496-.5.501.501 0 0 0 0 1 .5.5 0 0 0 .496-.5Zm0 0"/></g><g clip-path="url(#eD)"><path style="stroke:none;fill-rule:nonzero;fill:red;fill-opacity:1" d="M182.797 22.363a.5.5 0 0 0-.496-.5c-.274 0-.5.227-.5.5 0 .274.226.5.5.5a.5.5 0 0 0 .496-.5Zm0 0"/></g><g clip-path="url(#eE)"><path style="stroke:none;fill-rule:nonzero;fill:red;fill-opacity:1" d="M185.79 22.363c0-.273-.224-.5-.5-.5a.5.5 0 0 0 0 1c.276 0 .5-.226.5-.5Zm0 0"/></g><g clip-path="url(#eF)"><path style="stroke:none;fill-rule:nonzero;fill:red;fill-opacity:1" d="M188.777 22.363c0-.273-.222-.5-.5-.5a.5.5 0 0 0 0 1c.278 0 .5-.226.5-.5Zm0 0"/></g><g clip-path="url(#eG)"><path style="stroke:none;fill-rule:nonzero;fill:red;fill-opacity:1" d="M191.766 22.363c0-.273-.223-.5-.5-.5a.5.5 0 0 0 0 1c.277 0 .5-.226.5-.5Zm0 0"/></g><g clip-path="url(#eH)"><path style="stroke:none;fill-rule:nonzero;fill:red;fill-opacity:1" d="M194.754 22.363a.5.5 0 0 0-.496-.5.501.501 0 0 0 0 1 .5.5 0 0 0 .496-.5Zm0 0"/></g><g clip-path="url(#eI)"><path style="stroke:none;fill-rule:nonzero;fill:red;fill-opacity:1" d="M197.742 22.363a.5.5 0 0 0-.496-.5.501.501 0 0 0 0 1 .5.5 0 0 0 .496-.5Zm0 0"/></g><g clip-path="url(#eJ)"><path style="stroke:none;fill-rule:nonzero;fill:red;fill-opacity:1" d="M200.73 22.363a.5.5 0 0 0-.496-.5.501.501 0 0 0 0 1 .5.5 0 0 0 .496-.5Zm0 0"/></g><g clip-path="url(#eK)"><path style="stroke:none;fill-rule:nonzero;fill:red;fill-opacity:1" d="M203.719 22.363a.5.5 0 0 0-.496-.5.501.501 0 0 0 0 1 .5.5 0 0 0 .496-.5Zm0 0"/></g><g clip-path="url(#eL)"><path style="stroke:none;fill-rule:nonzero;fill:red;fill-opacity:1" d="M206.71 22.363c0-.273-.226-.5-.5-.5a.5.5 0 0 0 0 1c.274 0 .5-.226.5-.5Zm0 0"/></g><g clip-path="url(#eM)"><path style="stroke:none;fill-rule:nonzero;fill:red;fill-opacity:1" d="M209.7 22.363c0-.273-.223-.5-.5-.5a.5.5 0 0 0 0 1c.277 0 .5-.226.5-.5Zm0 0"/></g><g clip-path="url(#eN)"><path style="stroke:none;fill-rule:nonzero;fill:red;fill-opacity:1" d="M212.688 22.363c0-.273-.223-.5-.5-.5a.5.5 0 0 0 0 1c.277 0 .5-.226.5-.5Zm0 0"/></g><g clip-path="url(#eO)"><path style="stroke:none;fill-rule:nonzero;fill:red;fill-opacity:1" d="M173.832 19.375a.498.498 0 1 0-.995-.005.498.498 0 0 0 .995.005Zm0 0"/></g><g clip-path="url(#eP)"><path style="stroke:none;fill-rule:nonzero;fill:red;fill-opacity:1" d="M176.82 19.375a.498.498 0 1 0-.995-.005.498.498 0 0 0 .995.005Zm0 0"/></g><g clip-path="url(#eQ)"><path style="stroke:none;fill-rule:nonzero;fill:red;fill-opacity:1" d="M179.809 19.375a.498.498 0 1 0-.996-.005.498.498 0 0 0 .996.005Zm0 0"/></g><g clip-path="url(#eR)"><path style="stroke:none;fill-rule:nonzero;fill:red;fill-opacity:1" d="M182.797 19.375a.498.498 0 1 0-.995-.005.498.498 0 0 0 .995.005Zm0 0"/></g><g clip-path="url(#eS)"><path style="stroke:none;fill-rule:nonzero;fill:red;fill-opacity:1" d="M185.79 19.375a.498.498 0 1 0-.998-.003.498.498 0 0 0 .997.003Zm0 0"/></g><g clip-path="url(#eT)"><path style="stroke:none;fill-rule:nonzero;fill:red;fill-opacity:1" d="M188.777 19.375a.498.498 0 1 0-.997-.003.498.498 0 0 0 .997.003Zm0 0"/></g><g clip-path="url(#eU)"><path style="stroke:none;fill-rule:nonzero;fill:red;fill-opacity:1" d="M191.766 19.375a.498.498 0 1 0-.997-.003.498.498 0 0 0 .997.003Zm0 0"/></g><g clip-path="url(#eV)"><path style="stroke:none;fill-rule:nonzero;fill:red;fill-opacity:1" d="M194.754 19.375a.498.498 0 1 0-.995-.005.498.498 0 0 0 .995.005Zm0 0"/></g><g clip-path="url(#eW)"><path style="stroke:none;fill-rule:nonzero;fill:red;fill-opacity:1" d="M197.742 19.375a.498.498 0 1 0-.995-.005.498.498 0 0 0 .995.005Zm0 0"/></g><g clip-path="url(#eX)"><path style="stroke:none;fill-rule:nonzero;fill:red;fill-opacity:1" d="M200.73 19.375a.498.498 0 1 0-.995-.005.498.498 0 0 0 .995.005Zm0 0"/></g><g clip-path="url(#eY)"><path style="stroke:none;fill-rule:nonzero;fill:red;fill-opacity:1" d="M203.719 19.375a.498.498 0 1 0-.996-.005.498.498 0 0 0 .996.005Zm0 0"/></g><g clip-path="url(#eZ)"><path style="stroke:none;fill-rule:nonzero;fill:red;fill-opacity:1" d="M206.71 19.375a.498.498 0 1 0-.997-.005.498.498 0 0 0 .998.005Zm0 0"/></g><g clip-path="url(#fa)"><path style="stroke:none;fill-rule:nonzero;fill:red;fill-opacity:1" d="M209.7 19.375a.498.498 0 1 0-.998-.003.498.498 0 0 0 .997.003Zm0 0"/></g><g clip-path="url(#fb)"><path style="stroke:none;fill-rule:nonzero;fill:red;fill-opacity:1" d="M212.688 19.375a.498.498 0 1 0-.997-.003.498.498 0 0 0 .996.003Zm0 0"/></g><g clip-path="url(#fc)"><path style="stroke:none;fill-rule:nonzero;fill:red;fill-opacity:1" d="M173.832 16.387a.498.498 0 1 0-.995-.005.498.498 0 0 0 .995.005Zm0 0"/></g><g clip-path="url(#fd)"><path style="stroke:none;fill-rule:nonzero;fill:red;fill-opacity:1" d="M176.82 16.387a.498.498 0 1 0-.995-.005.498.498 0 0 0 .995.005Zm0 0"/></g><g clip-path="url(#fe)"><path style="stroke:none;fill-rule:nonzero;fill:red;fill-opacity:1" d="M179.809 16.387a.498.498 0 1 0-.996-.005.498.498 0 0 0 .996.005Zm0 0"/></g><g clip-path="url(#ff)"><path style="stroke:none;fill-rule:nonzero;fill:red;fill-opacity:1" d="M182.797 16.387a.498.498 0 1 0-.995-.005.498.498 0 0 0 .995.005Zm0 0"/></g><g clip-path="url(#fg)"><path style="stroke:none;fill-rule:nonzero;fill:red;fill-opacity:1" d="M185.79 16.387a.498.498 0 1 0-.998-.003.498.498 0 0 0 .997.003Zm0 0"/></g><g clip-path="url(#fh)"><path style="stroke:none;fill-rule:nonzero;fill:red;fill-opacity:1" d="M188.777 16.387a.498.498 0 1 0-.997-.003.498.498 0 0 0 .997.003Zm0 0"/></g><g clip-path="url(#fi)"><path style="stroke:none;fill-rule:nonzero;fill:red;fill-opacity:1" d="M191.766 16.387a.498.498 0 1 0-.997-.003.498.498 0 0 0 .997.003Zm0 0"/></g><g clip-path="url(#fj)"><path style="stroke:none;fill-rule:nonzero;fill:red;fill-opacity:1" d="M194.754 16.387a.498.498 0 1 0-.995-.005.498.498 0 0 0 .995.005Zm0 0"/></g><g clip-path="url(#fk)"><path style="stroke:none;fill-rule:nonzero;fill:red;fill-opacity:1" d="M197.742 16.387a.498.498 0 1 0-.995-.005.498.498 0 0 0 .995.005Zm0 0"/></g><g clip-path="url(#fl)"><path style="stroke:none;fill-rule:nonzero;fill:red;fill-opacity:1" d="M200.73 16.387a.498.498 0 1 0-.995-.005.498.498 0 0 0 .995.005Zm0 0"/></g><g clip-path="url(#fm)"><path style="stroke:none;fill-rule:nonzero;fill:red;fill-opacity:1" d="M203.719 16.387a.498.498 0 1 0-.996-.005.498.498 0 0 0 .996.005Zm0 0"/></g><g clip-path="url(#fn)"><path style="stroke:none;fill-rule:nonzero;fill:red;fill-opacity:1" d="M206.71 16.387a.498.498 0 1 0-.997-.005.498.498 0 0 0 .998.005Zm0 0"/></g><g clip-path="url(#fo)"><path style="stroke:none;fill-rule:nonzero;fill:red;fill-opacity:1" d="M209.7 16.387a.498.498 0 1 0-.998-.003.498.498 0 0 0 .997.003Zm0 0"/></g><g clip-path="url(#fp)"><path style="stroke:none;fill-rule:nonzero;fill:red;fill-opacity:1" d="M212.688 16.387a.498.498 0 1 0-.997-.003.498.498 0 0 0 .996.003Zm0 0"/></g><g clip-path="url(#fq)"><path style="stroke:none;fill-rule:nonzero;fill:red;fill-opacity:1" d="M173.832 13.398a.498.498 0 1 0-.995-.004.498.498 0 0 0 .995.004Zm0 0"/></g><g clip-path="url(#fr)"><path style="stroke:none;fill-rule:nonzero;fill:red;fill-opacity:1" d="M176.82 13.398a.498.498 0 1 0-.995-.004.498.498 0 0 0 .995.004Zm0 0"/></g><g clip-path="url(#fs)"><path style="stroke:none;fill-rule:nonzero;fill:red;fill-opacity:1" d="M179.809 13.398a.498.498 0 1 0-.996-.004.498.498 0 0 0 .996.004Zm0 0"/></g><g clip-path="url(#ft)"><path style="stroke:none;fill-rule:nonzero;fill:red;fill-opacity:1" d="M182.797 13.398a.498.498 0 1 0-.995-.004.498.498 0 0 0 .995.004Zm0 0"/></g><g clip-path="url(#fu)"><path style="stroke:none;fill-rule:nonzero;fill:red;fill-opacity:1" d="M185.79 13.398a.498.498 0 1 0-.998-.003.498.498 0 0 0 .997.003Zm0 0"/></g><g clip-path="url(#fv)"><path style="stroke:none;fill-rule:nonzero;fill:red;fill-opacity:1" d="M188.777 13.398a.498.498 0 1 0-.997-.003.498.498 0 0 0 .997.003Zm0 0"/></g><g clip-path="url(#fw)"><path style="stroke:none;fill-rule:nonzero;fill:red;fill-opacity:1" d="M191.766 13.398a.498.498 0 1 0-.997-.003.498.498 0 0 0 .997.003Zm0 0"/></g><g clip-path="url(#fx)"><path style="stroke:none;fill-rule:nonzero;fill:red;fill-opacity:1" d="M194.754 13.398a.498.498 0 1 0-.995-.004.498.498 0 0 0 .995.004Zm0 0"/></g><g clip-path="url(#fy)"><path style="stroke:none;fill-rule:nonzero;fill:red;fill-opacity:1" d="M197.742 13.398a.498.498 0 1 0-.995-.004.498.498 0 0 0 .995.004Zm0 0"/></g><g clip-path="url(#fz)"><path style="stroke:none;fill-rule:nonzero;fill:red;fill-opacity:1" d="M200.73 13.398a.498.498 0 1 0-.995-.004.498.498 0 0 0 .995.004Zm0 0"/></g><g clip-path="url(#fA)"><path style="stroke:none;fill-rule:nonzero;fill:red;fill-opacity:1" d="M203.719 13.398a.498.498 0 1 0-.996-.004.498.498 0 0 0 .996.004Zm0 0"/></g><g clip-path="url(#fB)"><path style="stroke:none;fill-rule:nonzero;fill:red;fill-opacity:1" d="M206.71 13.398a.498.498 0 1 0-.997-.005.498.498 0 0 0 .998.005Zm0 0"/></g><g clip-path="url(#fC)"><path style="stroke:none;fill-rule:nonzero;fill:red;fill-opacity:1" d="M209.7 13.398a.498.498 0 1 0-.998-.003.498.498 0 0 0 .997.003Zm0 0"/></g><g clip-path="url(#fD)"><path style="stroke:none;fill-rule:nonzero;fill:red;fill-opacity:1" d="M212.688 13.398a.498.498 0 1 0-.997-.003.498.498 0 0 0 .996.003Zm0 0"/></g><g clip-path="url(#fE)"><path style="stroke:none;fill-rule:nonzero;fill:red;fill-opacity:1" d="M173.832 10.406a.498.498 0 1 0-.997.003.498.498 0 0 0 .997-.003Zm0 0"/></g><g clip-path="url(#fF)"><path style="stroke:none;fill-rule:nonzero;fill:red;fill-opacity:1" d="M176.82 10.406a.498.498 0 1 0-.997.003.498.498 0 0 0 .997-.003Zm0 0"/></g><g clip-path="url(#fG)"><path style="stroke:none;fill-rule:nonzero;fill:red;fill-opacity:1" d="M179.809 10.406a.498.498 0 1 0-.997.003.498.498 0 0 0 .997-.003Zm0 0"/></g><g clip-path="url(#fH)"><path style="stroke:none;fill-rule:nonzero;fill:red;fill-opacity:1" d="M182.797 10.406a.497.497 0 0 0-.496-.496.5.5 0 0 0-.5.496.498.498 0 1 0 .996 0Zm0 0"/></g><g clip-path="url(#fI)"><path style="stroke:none;fill-rule:nonzero;fill:red;fill-opacity:1" d="M185.79 10.406a.498.498 0 1 0-.996.003.498.498 0 0 0 .995-.003Zm0 0"/></g><g clip-path="url(#fJ)"><path style="stroke:none;fill-rule:nonzero;fill:red;fill-opacity:1" d="M188.777 10.406a.498.498 0 1 0-.995.003.498.498 0 0 0 .995-.003Zm0 0"/></g><g clip-path="url(#fK)"><path style="stroke:none;fill-rule:nonzero;fill:red;fill-opacity:1" d="M191.766 10.406a.498.498 0 1 0-.996.003.498.498 0 0 0 .996-.003Zm0 0"/></g><g clip-path="url(#fL)"><path style="stroke:none;fill-rule:nonzero;fill:red;fill-opacity:1" d="M194.754 10.406a.498.498 0 1 0-.997.003.498.498 0 0 0 .997-.003Zm0 0"/></g><g clip-path="url(#fM)"><path style="stroke:none;fill-rule:nonzero;fill:red;fill-opacity:1" d="M197.742 10.406a.498.498 0 1 0-.997.003.498.498 0 0 0 .997-.003Zm0 0"/></g><g clip-path="url(#fN)"><path style="stroke:none;fill-rule:nonzero;fill:red;fill-opacity:1" d="M200.73 10.406a.498.498 0 1 0-.997.003.498.498 0 0 0 .997-.003Zm0 0"/></g><g clip-path="url(#fO)"><path style="stroke:none;fill-rule:nonzero;fill:red;fill-opacity:1" d="M203.719 10.406a.498.498 0 1 0-.997.003.498.498 0 0 0 .997-.003Zm0 0"/></g><g clip-path="url(#fP)"><path style="stroke:none;fill-rule:nonzero;fill:red;fill-opacity:1" d="M206.71 10.406a.5.5 0 0 0-.5-.496.498.498 0 1 0 .5.496Zm0 0"/></g><g clip-path="url(#fQ)"><path style="stroke:none;fill-rule:nonzero;fill:red;fill-opacity:1" d="M209.7 10.406a.498.498 0 1 0-.996.003.498.498 0 0 0 .995-.003Zm0 0"/></g><g clip-path="url(#fR)"><path style="stroke:none;fill-rule:nonzero;fill:red;fill-opacity:1" d="M212.688 10.406a.498.498 0 1 0-.996.003.498.498 0 0 0 .995-.003Zm0 0"/></g></svg>