<svg xmlns="http://www.w3.org/2000/svg" xmlns:xlink="http://www.w3.org/1999/xlink" width="33.147" height="146.691" viewBox="0 0 24.86 110.018" version="1.2"><defs><symbol overflow="visible" id="a"><path style="stroke:none" d="M5.156-2.219h-.468c-.032.203-.125.844-.266.906-.11.063-.86.063-1.016.063H1.937c.47-.39 1-.813 1.438-1.14 1.14-.844 1.781-1.313 1.781-2.25 0-1.157-1.047-1.891-2.437-1.891-1.219 0-2.156.625-2.156 1.515 0 .594.484.735.718.735C1.61-4.281 2-4.5 2-5c0-.516-.422-.672-.563-.719.282-.234.672-.343 1.032-.343.844 0 1.312.671 1.312 1.421 0 .688-.375 1.375-1.078 2.079l-2 2.046c-.14.11-.14.141-.14.344V0h4.28Zm0 0"/></symbol><symbol overflow="visible" id="b"><path style="stroke:none" d="M5.25-1.86c0-1.077-.844-1.546-1.328-1.827.687-.36 1-.797 1-1.376 0-1.015-.906-1.468-2.047-1.468-1.375 0-2.078.797-2.078 1.75 0 .437.187 1.062.953 1.5C.922-2.906.484-2.344.484-1.61.484-.406 1.563.109 2.844.109 4.438.11 5.25-.766 5.25-1.859ZM4.172-5.046c0 .484-.25.813-.688 1.11l-1.5-.844c-.156-.078-.437-.25-.437-.594 0-.703.89-.766 1.297-.766.828 0 1.328.407 1.328 1.094Zm.219 3.734c0 .829-.938 1-1.516 1-.969 0-1.547-.515-1.547-1.296 0-.766.531-1.204.89-1.407l1.36.766c.438.25.813.453.813.938Zm0 0"/></symbol><symbol overflow="visible" id="c"><path style="stroke:none" d="M5.25-3.281c0-.672 0-3.25-2.375-3.25-1.406 0-2.39.812-2.39 2.14 0 1.375.984 2.125 2.203 2.125.359 0 .828-.062 1.203-.765v.219c0 .734-.094 1.312-.235 1.656-.172.39-.61.843-1.297.843-.171 0-.53-.03-.828-.218.11-.031.485-.172.485-.625 0-.344-.235-.625-.625-.625-.391 0-.625.265-.625.64 0 .688.515 1.25 1.609 1.25C3.672.11 5.25-.734 5.25-3.28Zm-1.375-.985c0 .625-.25 1.641-1.094 1.641-.953 0-.953-.75-.953-1.734 0-.985 0-1.782 1.078-1.782.578 0 .813.532.86.625.109.329.109.907.109 1.25Zm0 0"/></symbol><symbol overflow="visible" id="d"><path style="stroke:none" d="M5.25-1.797c0-.547-.297-1.406-1.734-1.719.687-.203 1.406-.765 1.406-1.625 0-.765-.75-1.39-2.156-1.39-1.188 0-1.97.64-1.97 1.437 0 .422.313.703.688.703a.668.668 0 0 0 .704-.687c0-.578-.547-.688-.579-.703.344-.282.782-.36 1.094-.36.828 0 .86.641.86.97 0 .124-.016 1.437-1.047 1.5-.407.015-.438.015-.485.03-.094.016-.125.11-.125.172 0 .172.11.172.282.172h.437c1.094 0 1.094.985 1.094 1.5 0 .469 0 1.484-1.031 1.484-.266 0-.782-.046-1.266-.343C1.75-.75 2-1 2-1.406c0-.453-.313-.75-.75-.75-.422 0-.766.265-.766.765 0 .907.97 1.5 2.25 1.5 1.782 0 2.516-1 2.516-1.906Zm0 0"/></symbol><symbol overflow="visible" id="e"><path style="stroke:none" d="M5.281-3.188c0-.953-.015-3.343-2.422-3.343C.453-6.531.453-4.156.453-3.188c0 1 0 3.297 2.406 3.297 2.391 0 2.422-2.296 2.422-3.296ZM4-3.296c0 .563 0 1.469-.078 1.985-.14.921-.766 1.062-1.063 1.062-.359 0-.921-.219-1.046-.953-.094-.516-.094-1.547-.094-2.094 0-.719 0-1.375.078-1.89.125-.891.828-.985 1.062-.985.375 0 .782.188.97.625C4-5.172 4-4.109 4-3.297Zm0 0"/></symbol><symbol overflow="visible" id="f"><path style="stroke:none" d="M4.922 0v-.469h-1.39v-5.734c0-.234 0-.328-.266-.328-.11 0-.125 0-.22.078-.765.562-1.796.562-2 .562H.845v.47h.203c.156 0 .703-.016 1.297-.204v5.156H.954V0c.437-.031 1.5-.031 1.984-.031s1.546 0 1.984.031Zm0 0"/></symbol><symbol overflow="visible" id="g"><path style="stroke:none" d="m-4.375-6.734-2.406.312V-.39h.468v-1.078h5.844V-.39H0c-.031-.375-.031-1.39-.031-1.828 0-.484 0-1.562.031-2.015h-.469v1.359h-2.687v-.5c0-.969.422-1.047 1.156-1.047v-.469h-2.797v.47c.734 0 1.172.077 1.172 1.046v.5h-2.688v-1.406c0-1.594.766-1.828 1.938-1.985Zm0 0"/></symbol><symbol overflow="visible" id="h"><path style="stroke:none" d="M-1.172-4.922c-.172 0-.172.188-.172.234 0 .172.047.188.203.25.485.204.797.782.797 1.422 0 1.407-1.328 1.422-1.828 1.422v-3.015c0-.22 0-.313-.265-.313-.313 0-1.047.063-1.547.563-.36.359-.532.89-.532 1.578 0 1.594 1.032 2.469 2.266 2.469 1.344 0 2.313-1 2.313-2.61 0-1.578-1.063-2-1.235-2Zm-1.328.938v2.39c-.39-.015-.813-.031-1.14-.234a1.167 1.167 0 0 1-.516-.953c0-1.172 1.312-1.188 1.656-1.203Zm0 0"/></symbol><symbol overflow="visible" id="i"><path style="stroke:none" d="M-2.219-5.984c-1.328 0-2.265.937-2.265 2.39 0 .719.28 1.219.484 1.453h-2.922l.078 1.766h.469c0-.61 0-.688.39-.688H0v-.468c-.188-.157-.375-.328-.563-.485.079-.078.625-.562.625-1.453 0-1.484-.906-2.515-2.28-2.515Zm0 1.28c.469 0 1.016 0 1.406.25.407.298.516.75.516 1.079 0 .688-.547 1.078-.687 1.188h-2.5c-.36-.282-.641-.75-.641-1.297 0-1.22 1.203-1.22 1.906-1.22Zm0 0"/></symbol><symbol overflow="visible" id="j"><path style="stroke:none" d="M-3.672-4.406c-.531 0-.812.531-.812 1.062 0 .688.5 1.094 1.125 1.313h-1.125l.078 1.656h.468c0-.61 0-.688.391-.688h3.078v.688H0l-.031-1.25C-.031-2-.031-2.641 0-3h-.469v.86h-1.75c-.687 0-1.906-.235-1.906-1.235 0 0 .172.188.453.188.406 0 .61-.329.61-.61 0-.297-.204-.61-.61-.61Zm0 0"/></symbol><symbol overflow="visible" id="k"><path style="stroke:none" d="M0-6.125h-.469c0 .61 0 .688-.39.688h-3.625l.078 1.812h.468c0-.61 0-.688.391-.688h1.906c.813 0 1.344.516 1.344 1.235 0 .781-.25.812-.797.812h-3.39l.078 1.813h.468c0-.61 0-.688.391-.688h2.328c1.063 0 1.282-.796 1.282-1.796 0-.25 0-.97-.782-1.422h.781Zm0 0"/></symbol><symbol overflow="visible" id="l"><path style="stroke:none" d="M-.234-5.516c-.235 0-.235.125-.235.266-.015.61-.14.61-.375.61h-2.14c-.891 0-1.532.702-1.532 2.187 0 .562.047 1.781.922 1.781a.601.601 0 0 0 .625-.61c0-.312-.219-.624-.625-.624-.297 0-.469.187-.5.218a5.28 5.28 0 0 1-.062-.718c0-.75.422-1.11 1.172-1.11h.343c.032.72.125 3.25 1.563 3.25.953 0 1.14-1.234 1.14-1.921 0-.797-.406-1.266-.828-1.485.313 0 .766 0 .766-1.047v-.468c0-.204 0-.329-.234-.329Zm-1.157 2c.97 0 1.094.922 1.094 1.172 0 .516-.344.906-.797.906-1.062 0-1.203-1.578-1.234-2.078Zm0 0"/></symbol><symbol overflow="visible" id="m"><path style="stroke:none" d="M-3.953-5.781h-.469c.016.234.031.531.031.781l-.03.906h.468s0-.468.11-.468l.124.062 2.453 1.14-2.687 1.266v-.531h-.469l.031 1.234-.03 1.125h.468V-.89L0-2.766l.484.235c.47.219 1.157.531 1.157 1.25 0 .14-.016.156-.047.234-.032-.094-.172-.312-.532-.312-.328 0-.562.234-.562.578 0 .265.188.562.578.562.5 0 .922-.469.922-1.062 0-.766-.625-1.344-1.188-1.625l-4.562-2.14c-.14-.063-.203-.095-.203-.735Zm0 0"/></symbol></defs><g style="fill:#000;fill-opacity:1"><use xlink:href="#a" x="12.799" y="7.007"/><use xlink:href="#b" x="18.528" y="7.007"/></g><g style="fill:#000;fill-opacity:1"><use xlink:href="#a" x="12.799" y="20.277"/><use xlink:href="#c" x="18.528" y="20.277"/></g><g style="fill:#000;fill-opacity:1"><use xlink:href="#d" x="12.799" y="33.548"/><use xlink:href="#e" x="18.528" y="33.548"/></g><g style="fill:#000;fill-opacity:1"><use xlink:href="#d" x="12.799" y="46.818"/><use xlink:href="#f" x="18.528" y="46.818"/></g><use xlink:href="#g" x="7.871" y="108.918" style="fill:#000;fill-opacity:1"/><g style="fill:#000;fill-opacity:1"><use xlink:href="#h" x="7.871" y="102.661"/><use xlink:href="#i" x="7.871" y="97.411"/><use xlink:href="#j" x="7.871" y="91.045"/><use xlink:href="#k" x="7.871" y="86.323"/><use xlink:href="#l" x="7.871" y="79.957"/><use xlink:href="#j" x="7.871" y="74.387"/><use xlink:href="#m" x="7.871" y="69.665"/></g><use xlink:href="#f" x="18.528" y="70.051" style="fill:#000;fill-opacity:1"/><use xlink:href="#a" x="18.528" y="83.321" style="fill:#000;fill-opacity:1"/><use xlink:href="#d" x="18.528" y="96.591" style="fill:#000;fill-opacity:1"/></svg>