<svg xmlns="http://www.w3.org/2000/svg" width="37.591" height="121.899" viewBox="0 0 28.193 91.424" version="1.2"><defs><clipPath id="a"><path d="M0 0h27.79v91.137H0Zm0 0"/></clipPath></defs><g clip-path="url(#a)"><path style="fill:none;stroke-width:.3985;stroke-linecap:butt;stroke-linejoin:miter;stroke:#000;stroke-opacity:1;stroke-miterlimit:10" d="M.026 44.519s7.985-3.387 10.559-5.106c2.57-1.722 6.172-5.101 7.98-7.293 1.809-2.195 4.063-6.12 5.055-8.52.992-2.401 1.887-6.429 2.09-8.773.203-2.34-.145-6.054-.625-8.113-.477-2.058-1.832-5.12-2.824-6.723-.996-1.597-3.04-3.769-4.344-4.796-1.305-1.028-3.672-2.192-5.066-2.618-1.395-.425-3.715-.585-4.98-.449-1.27.14-3.204.852-4.161 1.446-.961.593-2.234 1.953-2.75 2.843C.444-2.693-.001-.993-.001 0c0 .996.445 2.692.96 3.586.517.89 1.79 2.246 2.75 2.84.958.598 2.892 1.309 4.161 1.445 1.266.141 3.586-.023 4.98-.449 1.395-.426 3.762-1.586 5.067-2.617 1.305-1.027 3.348-3.2 4.344-4.797.992-1.598 2.347-4.66 2.824-6.719.48-2.058.828-5.773.625-8.117-.203-2.344-1.098-6.37-2.09-8.77-.992-2.398-3.246-6.327-5.055-8.519-1.808-2.195-5.41-5.574-7.98-7.293C8.01-41.133.026-44.52.026-44.52" transform="matrix(1 0 0 -1 .814 45.429)"/></g></svg>