<svg xmlns="http://www.w3.org/2000/svg" xmlns:xlink="http://www.w3.org/1999/xlink" width="117.579" height="78.531" viewBox="0 0 88.184 58.898" version="1.2"><defs><symbol overflow="visible" id="b"><path style="stroke:none" d="m3.266-7.938-.438-.171-.406 1-5.453-2.25.406-1-.438-.188c-.109.375-.484 1.281-.656 1.688-.156.39-.531 1.28-.703 1.625l.438.187.406-1 2.39.985-1.218 2.968-2.39-.984.405-1-.437-.188c-.11.36-.469 1.266-.64 1.657-.157.39-.532 1.312-.704 1.64l.438.188.406-1 5.453 2.25-.406 1 .437.172c.11-.36.485-1.282.64-1.672.173-.39.532-1.297.704-1.625l-.438-.172-.406 1-2.625-1.094L-.75-6.89l2.625 1.094-.406 1 .437.172c.11-.375.485-1.266.64-1.656.173-.407.548-1.313.72-1.657Zm0 0"/></symbol><symbol overflow="visible" id="c"><path style="stroke:none" d="m1.078-2.625-.437-.172-.235.563-3.703-1.532-.594 1.625.438.172c.234-.547.25-.593.61-.437L0-1.234l-.266.625.438.171.437-1.14ZM-4.688-4.5a.765.765 0 0 0-1.015.438.781.781 0 0 0 .422 1.015.779.779 0 0 0 1-.437c.156-.407-.016-.86-.407-1.016Zm0 0"/></symbol><symbol overflow="visible" id="d"><path style="stroke:none" d="M-4.875-4.75c-.36-.14-.797.063-.953.453-.172.406-.016.875.344 1.016.046.015.078.031.187.031l3.547.906c.234.063.25.063.344-.14.062-.172.062-.204-.11-.297l-3.25-1.906Zm5.11 2.125c-.391-.156-.844.016-1 .406a.788.788 0 0 0 .421 1.031c.406.172.844-.03 1.016-.437.156-.39-.031-.828-.438-1Zm0 0"/></symbol><clipPath id="a"><path d="M0 5h64v53.848H0Zm0 0"/></clipPath></defs><path style="fill:none;stroke-width:.19925;stroke-linecap:butt;stroke-linejoin:miter;stroke:gray;stroke-opacity:1;stroke-miterlimit:10" d="M0-.001h85.039M-.001 28.346h85.04M-.001 56.682h85.04M-.001 0v56.695M28.348-.001v56.695M56.695-.001v56.695M85.031-.001v56.695" transform="matrix(1 0 0 -1 1.637 57.733)"/><g clip-path="url(#a)"><path style="fill:none;stroke-width:.3985;stroke-linecap:butt;stroke-linejoin:miter;stroke:#000;stroke-opacity:1;stroke-miterlimit:10" d="M0-.001c0 56.695 28.347 56.695 56.695 28.347" transform="matrix(1 0 0 -1 1.637 57.733)"/></g><g style="fill:#000;fill-opacity:1"><use xlink:href="#b" x="6.78" y="33.964"/><use xlink:href="#c" x="10.194" y="25.674"/><use xlink:href="#d" x="11.404" y="22.735"/></g></svg>