<svg xmlns="http://www.w3.org/2000/svg" xmlns:xlink="http://www.w3.org/1999/xlink" width="143.365" height="139.735" viewBox="0 0 107.524 104.801" version="1.2"><defs><symbol overflow="visible" id="b"><path style="stroke:none" d="M5.563-1.813c.14 0 .312 0 .312-.171 0-.188-.172-.188-.313-.188H1c-.125 0-.297 0-.297.188 0 .171.172.171.297.171Zm0 0"/></symbol><symbol overflow="visible" id="c"><path style="stroke:none" d="M2.5-5.078c0-.219-.016-.219-.234-.219-.329.313-.75.5-1.5.5v.266c.218 0 .64 0 1.109-.203v4.078c0 .297-.031.39-.781.39H.812V0c.329-.031 1.016-.031 1.375-.031.36 0 1.047 0 1.376.031v-.266H3.28c-.75 0-.781-.093-.781-.39Zm0 0"/></symbol><symbol overflow="visible" id="d"><path style="stroke:none" d="M3.89-2.547c0-.844-.078-1.36-.343-1.875-.344-.703-1-.875-1.438-.875-1 0-1.375.75-1.484.969C.344-3.75.328-2.953.328-2.547c0 .531.016 1.328.406 1.969.36.594.954.75 1.375.75.391 0 1.063-.125 1.47-.906.296-.579.312-1.297.312-1.813ZM2.11-.062c-.266 0-.813-.126-.985-.954-.094-.453-.094-1.203-.094-1.625 0-.546 0-1.109.094-1.546.172-.813.781-.891.984-.891.266 0 .829.14.985.86.094.437.094 1.046.094 1.577 0 .47 0 1.188-.094 1.641-.172.828-.719.938-.985.938Zm0 0"/></symbol><symbol overflow="visible" id="f"><path style="stroke:none" d="M1.11-4.484c.109.03.421.125.765.125 1 0 1.594-.704 1.594-.829 0-.093-.047-.109-.094-.109-.016 0-.031 0-.094.031a2.982 2.982 0 0 1-1.11.22c-.468 0-.858-.11-1.108-.22-.079-.03-.094-.03-.11-.03-.094 0-.094.077-.094.234v2.328c0 .14 0 .234.125.234.063 0 .079-.031.125-.094.094-.11.391-.515 1.079-.515.437 0 .656.359.734.515.125.281.14.656.14.953 0 .297 0 .735-.218 1.079-.156.25-.485.484-.906.484A1.271 1.271 0 0 1 .734-.922c.016.016.079.016.079.016.218 0 .406-.14.406-.39a.388.388 0 0 0-.39-.407c-.157 0-.407.078-.407.422 0 .718.625 1.453 1.531 1.453 1 0 1.844-.781 1.844-1.766 0-.922-.672-1.75-1.61-1.75-.39 0-.765.125-1.078.406Zm0 0"/></symbol><symbol overflow="visible" id="g"><path style="stroke:none" d="M2.25-1.625c.125-.125.453-.39.594-.5.484-.453.953-.89.953-1.61 0-.953-.797-1.562-1.781-1.562-.97 0-1.594.719-1.594 1.438 0 .39.312.437.422.437.172 0 .422-.11.422-.422 0-.406-.407-.406-.5-.406.234-.594.765-.781 1.156-.781.734 0 1.125.625 1.125 1.297 0 .828-.578 1.437-1.531 2.39l-1 1.047C.422-.219.422-.203.422 0h3.14l.235-1.422h-.25c-.016.156-.078.547-.172.703-.047.063-.656.063-.781.063H1.172Zm0 0"/></symbol><symbol overflow="visible" id="e"><path style="stroke:none" d="M1.625-.438a.463.463 0 0 0-.453-.453.447.447 0 0 0-.438.438.44.44 0 0 0 .438.453.45.45 0 0 0 .453-.438Zm0 0"/></symbol><clipPath id="a"><path d="M12 0h95.285v98H12Zm0 0"/></clipPath></defs><path style="fill:none;stroke-width:.3985;stroke-linecap:butt;stroke-linejoin:miter;stroke:#bfbfbf;stroke-opacity:1;stroke-miterlimit:10" d="M14.172.001v87.59M42.52.001v87.59M70.867.001v87.59M0 .001h85.04M0 19.466h85.04M0 38.93h85.04M0 58.396h85.04M0 77.86h85.04" transform="matrix(1 0 0 -1 20.949 88.775)"/><path style="fill:none;stroke-width:.3985;stroke-linecap:round;stroke-linejoin:miter;stroke:gray;stroke-opacity:1;stroke-miterlimit:10" d="M14.172-6.976v1.993M42.52-6.976v1.993M70.867-6.976v1.993M-6.972.001h1.992M-6.972 19.466h1.992M-6.972 38.93h1.992M-6.972 58.396h1.992M-6.972 77.86h1.992" transform="matrix(1 0 0 -1 20.949 88.775)"/><path style="fill:none;stroke-width:.3985;stroke-linecap:butt;stroke-linejoin:miter;stroke:gray;stroke-opacity:1;stroke-miterlimit:10" d="M0-4.983h85.04" transform="matrix(1 0 0 -1 20.949 88.775)"/><path style="fill:none;stroke-width:.3985;stroke-linecap:square;stroke-linejoin:miter;stroke:#bfbfbf;stroke-opacity:1;stroke-miterlimit:10" d="M0 .001h85.04M0 87.59h85.04" transform="matrix(1 0 0 -1 20.949 88.775)"/><path style="fill:none;stroke-width:.3985;stroke-linecap:butt;stroke-linejoin:miter;stroke:gray;stroke-opacity:1;stroke-miterlimit:10" d="M-4.98.001v87.59" transform="matrix(1 0 0 -1 20.949 88.775)"/><path style="fill:none;stroke-width:.3985;stroke-linecap:square;stroke-linejoin:miter;stroke:#bfbfbf;stroke-opacity:1;stroke-miterlimit:10" d="M0 .001v87.59M85.04.001v87.59" transform="matrix(1 0 0 -1 20.949 88.775)"/><g clip-path="url(#a)"><path style="fill:none;stroke-width:.59776;stroke-linecap:butt;stroke-linejoin:miter;stroke:#000;stroke-opacity:1;stroke-miterlimit:10" d="M0 87.59S10.24 49.733 14.172 38.93c3.934-10.804 10.242-23.796 14.176-29.198C32.28 4.329 38.586.002 42.52.002c3.933 0 10.242 4.327 14.172 9.73 3.933 5.402 10.242 18.394 14.175 29.199 3.934 10.8 14.172 48.66 14.172 48.66" transform="matrix(1 0 0 -1 20.949 88.775)"/></g><use xlink:href="#b" x="29.712" y="103.54" style="fill:#000;fill-opacity:1"/><use xlink:href="#c" x="36.298" y="103.54" style="fill:#000;fill-opacity:1"/><use xlink:href="#d" x="61.351" y="103.54" style="fill:#000;fill-opacity:1"/><use xlink:href="#c" x="89.697" y="103.54" style="fill:#000;fill-opacity:1"/><use xlink:href="#d" x="7.085" y="91.343" style="fill:#000;fill-opacity:1"/><use xlink:href="#d" x=".498" y="71.879" style="fill:#000;fill-opacity:1"/><use xlink:href="#e" x="4.732" y="71.879" style="fill:#000;fill-opacity:1"/><use xlink:href="#f" x="7.085" y="71.879" style="fill:#000;fill-opacity:1"/><use xlink:href="#c" x="7.085" y="52.413" style="fill:#000;fill-opacity:1"/><use xlink:href="#c" x=".498" y="32.95" style="fill:#000;fill-opacity:1"/><use xlink:href="#e" x="4.732" y="32.95" style="fill:#000;fill-opacity:1"/><use xlink:href="#f" x="7.085" y="32.95" style="fill:#000;fill-opacity:1"/><use xlink:href="#g" x="7.085" y="13.485" style="fill:#000;fill-opacity:1"/></svg>