<svg xmlns="http://www.w3.org/2000/svg" xmlns:xlink="http://www.w3.org/1999/xlink" width="73.804" height="56.139" viewBox="0 0 55.353 42.104" version="1.2"><defs><symbol overflow="visible" id="a"><path style="stroke:none" d="m8.453-1.484-.078-.47-1.063.188-1.03-5.812 1.062-.188-.078-.453c-.391.094-1.344.266-1.782.344-.406.063-1.359.234-1.75.266l.079.453 1.062-.188.453 2.563-3.156.562-.453-2.562L2.78-6.97l-.078-.453c-.36.094-1.328.266-1.75.344-.422.078-1.39.234-1.75.281l.078.453L.344-6.53 1.375-.72.312-.53l.079.469c.359-.11 1.328-.266 1.75-.344.421-.078 1.39-.25 1.75-.281l-.079-.47-1.062.188-.5-2.797 3.156-.562.5 2.797-1.062.187.078.469c.39-.094 1.344-.266 1.75-.328.437-.078 1.39-.25 1.781-.281Zm0 0"/></symbol><symbol overflow="visible" id="b"><path style="stroke:none" d="M4.64-2.016c-.03-.171-.218-.14-.265-.125-.156.032-.156.079-.203.25-.11.516-.64.907-1.266 1.016-1.39.25-1.64-1.047-1.719-1.547l2.985-.515c.203-.047.297-.063.25-.329-.063-.296-.25-1.015-.813-1.406-.421-.297-.968-.39-1.656-.266-1.562.282-2.25 1.454-2.031 2.672C.156-.937 1.312-.172 2.89-.437 4.453-.72 4.67-1.845 4.64-2.016Zm-1.156-1.14-2.359.406c-.047-.375-.11-.797.047-1.14a1.17 1.17 0 0 1 .844-.688c1.156-.203 1.39 1.094 1.468 1.422Zm0 0"/></symbol><symbol overflow="visible" id="c"><path style="stroke:none" d="m2.875-.5-.078-.469-.672.11L1-7.203l-1.719.39.078.454c.61-.11.672-.125.735.265l.969 5.422-.672.125.078.469 1.187-.25Zm0 0"/></symbol><symbol overflow="visible" id="d"><path style="stroke:none" d="M4.953-3.078C4.72-4.406 3.641-5.234 2.031-4.953.421-4.672-.297-3.5-.063-2.187.158-.97 1.204-.142 2.829-.438 4.484-.72 5.156-1.875 4.953-3.079Zm-1.281.11c.14.843.328 1.905-.922 2.124-1.25.219-1.438-.844-1.578-1.687C1.094-2.97 1-3.47 1.109-3.844c.125-.39.516-.656.985-.75.422-.062.86.016 1.125.313s.36.843.453 1.312Zm0 0"/></symbol><clipPath id="e"><path d="M6 20h24v21.656H6Zm0 0"/></clipPath></defs><path style="fill:none;stroke-width:.3985;stroke-linecap:butt;stroke-linejoin:miter;stroke:#000;stroke-opacity:1;stroke-miterlimit:10" d="M11.339 0c0 6.262-5.078 11.34-11.34 11.34S-11.337 6.262-11.337 0c0-6.261 5.074-11.34 11.336-11.34C6.261-11.34 11.34-6.26 11.34 0Zm0 0" transform="matrix(1 0 0 -1 12.223 12.098)"/><g style="fill:#000;fill-opacity:1"><use xlink:href="#a" x="28.808" y="17.757"/><use xlink:href="#b" x="37.639" y="16.2"/><use xlink:href="#c" x="42.809" y="15.288"/><use xlink:href="#c" x="45.939" y="14.736"/><use xlink:href="#d" x="49.069" y="14.185"/></g><g clip-path="url(#e)"><path style="fill:none;stroke-width:.3985;stroke-linecap:butt;stroke-linejoin:miter;stroke:#000;stroke-opacity:1;stroke-miterlimit:10" d="M11.339 0A5.67 5.67 0 1 1-.002.001a5.67 5.67 0 0 1 11.341-.003Zm0 0" transform="matrix(1 0 0 -1 12.223 32.14)"/></g><path style="stroke:none;fill-rule:nonzero;fill:red;fill-opacity:1" d="M49.668 32.14c0-4.699-3.809-8.503-8.504-8.503a8.503 8.503 0 0 0-8.504 8.504 8.506 8.506 0 0 0 8.504 8.504 8.506 8.506 0 0 0 8.504-8.504Zm0 0"/></svg>