<svg xmlns="http://www.w3.org/2000/svg" xmlns:xlink="http://www.w3.org/1999/xlink" width="32.712" height="45.819" viewBox="0 0 24.534 34.364" version="1.2"><defs><symbol overflow="visible" id="b"><path style="stroke:none" d="M.453 1.219c-.078.343-.11.406-.547.406-.11 0-.218 0-.218.188 0 .078.046.125.124.125.266 0 .563-.032.829-.032.343 0 .671.032 1 .032.046 0 .171 0 .171-.204 0-.109-.093-.109-.234-.109-.5 0-.5-.063-.5-.156 0-.125.422-1.75.484-2 .125.297.407.64.922.64 1.157 0 2.407-1.453 2.407-2.921 0-.938-.579-1.594-1.329-1.594-.5 0-.984.36-1.312.75-.094-.547-.531-.75-.89-.75-.47 0-.657.39-.735.562-.188.344-.313.938-.313.969 0 .11.094.11.11.11.11 0 .11-.016.172-.235.172-.703.375-1.188.734-1.188.172 0 .313.079.313.454 0 .234-.032.343-.079.515Zm1.75-4.328c.063-.266.344-.547.516-.704.36-.296.64-.374.812-.374.39 0 .64.343.64.937 0 .594-.327 1.734-.515 2.11-.344.702-.812 1.03-1.187 1.03-.656 0-.781-.828-.781-.89 0-.016 0-.031.03-.156Zm0 0"/></symbol><symbol overflow="visible" id="c"><path style="stroke:none" d="M3.516-1.266H3.28c-.015.157-.094.563-.187.625-.047.047-.578.047-.688.047H1.125c.734-.64.984-.844 1.39-1.172.516-.406 1-.843 1-1.5 0-.843-.734-1.359-1.624-1.359-.86 0-1.454.61-1.454 1.25 0 .344.297.39.376.39.156 0 .359-.124.359-.374 0-.125-.047-.375-.406-.375.218-.485.687-.641 1.015-.641.703 0 1.063.547 1.063 1.11 0 .609-.438 1.078-.656 1.328L.516-.266C.437-.203.437-.187.437 0h2.876Zm0 0"/></symbol><symbol overflow="visible" id="d"><path style="stroke:none" d="M3.188 0v-.328H2.28V-3.11c0-.157-.015-.188-.187-.188H2c-.438.328-1.078.328-1.188.328h-.14v.328h.14c.063 0 .438 0 .813-.125v2.438H.719V0c.25-.016.953-.016 1.234-.016s1 0 1.234.016Zm0 0"/></symbol><symbol overflow="visible" id="e"><path style="stroke:none" d="M3.328-1.047h-.406c-.031.188-.11.313-.156.328-.11.016-.329.016-.5.016H1.53c.313-.203.61-.39.828-.516.563-.312.97-.531.97-1.047 0-.625-.563-1.03-1.548-1.03-.234 0-1.343 0-1.343.733 0 .297.25.422.421.422.188 0 .407-.14.407-.406 0-.187-.11-.297-.125-.312.171-.094.359-.094.468-.094.5 0 .938.234.938.687 0 .391-.313.688-.625.907L.532-.344C.436-.28.436-.266.436-.156V0h2.704Zm0 0"/></symbol><clipPath id="a"><path d="M0 5h24.3v29.047H0Zm0 0"/></clipPath></defs><g clip-path="url(#a)"><path style="fill:none;stroke-width:.3985;stroke-linecap:butt;stroke-linejoin:miter;stroke:#000;stroke-opacity:1;stroke-miterlimit:10" d="M11.06 0C11.06 6.11 6.107 11.058 0 11.058c-6.11 0-11.058-4.949-11.058-11.058C-11.057-6.11-6.108-11.06 0-11.06 6.107-11.059 11.06-6.109 11.06 0Zm0 0" transform="matrix(1 0 0 -1 12.034 21.785)"/></g><use xlink:href="#b" x="7.293" y="5.07" style="fill:#000;fill-opacity:1"/><use xlink:href="#c" x="12.305" y="6.564" style="fill:#000;fill-opacity:1"/><path style="stroke:none;fill-rule:nonzero;fill:#000;fill-opacity:1" d="M11.914 18.469a3.198 3.198 0 1 0-6.397-.002 3.198 3.198 0 0 0 6.397.002Zm0 0"/><use xlink:href="#d" x="6.828" y="20.113" style="fill:#fff;fill-opacity:1"/><path style="stroke:none;fill-rule:nonzero;fill:red;fill-opacity:1" d="M18.55 18.469a3.2 3.2 0 0 0-3.198-3.2 3.197 3.197 0 1 0 0 6.395c1.765 0 3.199-1.43 3.199-3.195Zm0 0"/><use xlink:href="#e" x="13.463" y="20.113" style="fill:#fff;fill-opacity:1"/><path style="stroke:none;fill-rule:nonzero;fill:red;fill-opacity:1" d="M11.914 25.102a3.195 3.195 0 0 0-3.2-3.196 3.197 3.197 0 1 0 3.2 3.195Zm0 0"/><use xlink:href="#e" x="6.828" y="26.749" style="fill:#fff;fill-opacity:1"/><path style="stroke:none;fill-rule:nonzero;fill:#000;fill-opacity:1" d="M18.55 25.102a3.197 3.197 0 0 0-3.198-3.196 3.197 3.197 0 1 0 0 6.395 3.2 3.2 0 0 0 3.199-3.2Zm0 0"/><use xlink:href="#d" x="13.463" y="26.749" style="fill:#fff;fill-opacity:1"/></svg>