<svg xmlns="http://www.w3.org/2000/svg" xmlns:xlink="http://www.w3.org/1999/xlink" width="99.939" height="91.347" viewBox="0 0 74.954 68.51" version="1.2"><defs><symbol overflow="visible" id="a"><path style="stroke:none" d="M.875-.594c-.031.156-.094.39-.094.438 0 .172.14.265.297.265a.414.414 0 0 0 .375-.28c.016-.032.344-1.391.39-1.579.079-.328.266-1.016.313-1.297.047-.125.328-.594.563-.812.078-.063.375-.329.797-.329.265 0 .406.125.421.125-.296.047-.515.282-.515.547 0 .157.11.344.375.344s.547-.234.547-.594c0-.343-.313-.64-.828-.64-.641 0-1.079.484-1.266.765-.094-.453-.453-.765-.922-.765-.453 0-.64.39-.734.562-.172.344-.297.938-.297.969 0 .11.094.11.11.11.109 0 .109-.016.171-.235.172-.703.375-1.188.735-1.188.156 0 .296.079.296.454 0 .218-.03.328-.156.843Zm0 0"/></symbol><symbol overflow="visible" id="c"><path style="stroke:none" d="M4.688-3.766a.562.562 0 0 0 .03-.171c0-.172-.109-.266-.28-.266-.094 0-.375.062-.407.422-.187-.36-.531-.625-.937-.625-1.125 0-2.36 1.39-2.36 2.828C.734-.594 1.328 0 2.047 0c.594 0 1.062-.469 1.156-.578l.016.015C3.016.313 2.89.734 2.89.75c-.047.094-.375 1.078-1.438 1.078a2.68 2.68 0 0 1-.797-.11.542.542 0 0 0 .406-.515C1.063 1.047.954.86.688.86a.546.546 0 0 0-.53.579c0 .406.359.609 1.312.609 1.25 0 1.968-.781 2.125-1.375ZM3.405-1.28c-.062.265-.297.515-.515.703-.204.172-.516.36-.813.36-.5 0-.64-.516-.64-.923 0-.468.28-1.656.562-2.156.266-.484.688-.89 1.11-.89.656 0 .796.812.796.859 0 .047-.015.11-.031.14Zm0 0"/></symbol><symbol overflow="visible" id="b"><path style="stroke:none" d="M2.328-4.438c0-.187 0-.187-.203-.187-.453.438-1.078.438-1.36.438v.25c.157 0 .626 0 1-.188v3.547c0 .234 0 .328-.687.328H.812V0c.125 0 .985-.031 1.235-.031.219 0 1.094.031 1.25.031v-.25H3.03c-.703 0-.703-.094-.703-.328Zm0 0"/></symbol><symbol overflow="visible" id="d"><path style="stroke:none" d="M3.516-1.266H3.28c-.015.157-.094.563-.187.625-.047.047-.578.047-.688.047H1.125c.734-.64.984-.844 1.39-1.172.516-.406 1-.843 1-1.5 0-.843-.734-1.359-1.624-1.359-.86 0-1.454.61-1.454 1.25 0 .344.297.39.376.39.156 0 .359-.124.359-.374 0-.125-.047-.375-.406-.375.218-.485.687-.641 1.015-.641.703 0 1.063.547 1.063 1.11 0 .609-.438 1.078-.656 1.328L.516-.266C.437-.203.437-.187.437 0h2.876Zm0 0"/></symbol><symbol overflow="visible" id="e"><path style="stroke:none" d="M1.906-2.328c.547 0 .938.375.938 1.125 0 .86-.516 1.125-.906 1.125-.282 0-.907-.078-1.188-.5.328 0 .406-.235.406-.39 0-.22-.172-.376-.39-.376a.38.38 0 0 0-.391.407C.375-.281 1.094.14 1.938.14c.968 0 1.64-.657 1.64-1.344 0-.547-.437-1.094-1.203-1.25.719-.266.984-.781.984-1.219 0-.547-.625-.953-1.406-.953-.766 0-1.36.375-1.36.938 0 .234.157.359.36.359.219 0 .36-.156.36-.344 0-.203-.141-.36-.36-.375.25-.297.719-.375.985-.375.312 0 .75.156.75.75 0 .297-.094.625-.282.828-.219.266-.422.281-.765.313-.172.015-.188.015-.22.015-.015 0-.077.016-.077.094 0 .094.062.094.187.094Zm0 0"/></symbol><symbol overflow="visible" id="f"><path style="stroke:none" d="M4.406-3.672c0-.531-.531-.812-1.062-.812-.688 0-1.094.5-1.313 1.125v-1.125l-1.656.078v.468c.61 0 .688 0 .688.391v3.078H.375V0l1.25-.031C2-.031 2.641-.031 3 0v-.469h-.86v-1.75c0-.687.235-1.906 1.235-1.906 0 0-.188.172-.188.453 0 .406.329.61.61.61.297 0 .61-.204.61-.61Zm0 0"/></symbol><symbol overflow="visible" id="g"><path style="stroke:none" d="M5.406-2.172c0-1.344-.922-2.344-2.547-2.344C1.22-4.516.313-3.5.313-2.172c0 1.235.89 2.235 2.546 2.235 1.672 0 2.547-1.016 2.547-2.235Zm-1.281-.11c0 .86 0 1.938-1.266 1.938-1.265 0-1.265-1.078-1.265-1.937 0-.453 0-.953.172-1.297.187-.375.609-.578 1.093-.578.422 0 .844.156 1.063.5.203.344.203.89.203 1.375Zm0 0"/></symbol><symbol overflow="visible" id="h"><path style="stroke:none" d="M3.813-1.234v-.532h-.47v.516c0 .672-.327.906-.609.906-.578 0-.578-.64-.578-.86v-2.75h1.469v-.468H2.156v-1.906h-.469c0 1-.484 1.984-1.484 2.016v.359h.828v2.734c0 1.063.86 1.282 1.578 1.282.75 0 1.204-.579 1.204-1.297Zm0 0"/></symbol></defs><path style="fill:none;stroke-width:.3985;stroke-linecap:butt;stroke-linejoin:miter;stroke:#f33;stroke-opacity:1;stroke-miterlimit:10" d="M20.544 22.136h15.605v12.422H20.544Zm0 0" transform="matrix(1 0 0 -1 -19.239 64.081)"/><use xlink:href="#a" x="4.625" y="37.132" style="fill:#f33;fill-opacity:1"/><use xlink:href="#b" x="9.12" y="38.626" style="fill:#f33;fill-opacity:1"/><path style="fill:none;stroke-width:.3985;stroke-linecap:butt;stroke-linejoin:miter;stroke:green;stroke-opacity:1;stroke-miterlimit:10" d="M20.415 50.26h15.863v12.868H20.415Zm0 0" transform="matrix(1 0 0 -1 -19.239 64.081)"/><use xlink:href="#c" x="4.497" y="8.564" style="fill:green;fill-opacity:1"/><use xlink:href="#b" x="9.249" y="10.059" style="fill:green;fill-opacity:1"/><path style="fill:none;stroke-width:.3985;stroke-linecap:butt;stroke-linejoin:miter;stroke:#f33;stroke-opacity:1;stroke-miterlimit:10" d="M48.891 22.136h15.606v12.422H48.89Zm0 0" transform="matrix(1 0 0 -1 -19.239 64.081)"/><use xlink:href="#a" x="32.972" y="37.132" style="fill:#f33;fill-opacity:1"/><use xlink:href="#d" x="37.467" y="38.626" style="fill:#f33;fill-opacity:1"/><path style="fill:none;stroke-width:.3985;stroke-linecap:butt;stroke-linejoin:miter;stroke:green;stroke-opacity:1;stroke-miterlimit:10" d="M48.762 50.26h15.864v12.868H48.762Zm0 0" transform="matrix(1 0 0 -1 -19.239 64.081)"/><use xlink:href="#c" x="32.843" y="8.564" style="fill:green;fill-opacity:1"/><use xlink:href="#d" x="37.595" y="10.059" style="fill:green;fill-opacity:1"/><path style="fill:none;stroke-width:.3985;stroke-linecap:butt;stroke-linejoin:miter;stroke:#f33;stroke-opacity:1;stroke-miterlimit:10" d="M77.239 22.136h15.605v12.422H77.24Zm0 0" transform="matrix(1 0 0 -1 -19.239 64.081)"/><use xlink:href="#a" x="61.318" y="37.132" style="fill:#f33;fill-opacity:1"/><use xlink:href="#e" x="65.813" y="38.626" style="fill:#f33;fill-opacity:1"/><path style="fill:none;stroke-width:.3985;stroke-linecap:butt;stroke-linejoin:miter;stroke:green;stroke-opacity:1;stroke-miterlimit:10" d="M77.11 50.26h15.863v12.868H77.11Zm0 0" transform="matrix(1 0 0 -1 -19.239 64.081)"/><use xlink:href="#c" x="61.19" y="8.564" style="fill:green;fill-opacity:1"/><use xlink:href="#e" x="65.942" y="10.059" style="fill:green;fill-opacity:1"/><g style="fill:#000;fill-opacity:1"><use xlink:href="#f" x="26.978" y="67.214"/><use xlink:href="#g" x="31.7" y="67.214"/></g><g style="fill:#000;fill-opacity:1"><use xlink:href="#g" x="37.748" y="67.214"/><use xlink:href="#h" x="43.476" y="67.214"/></g><path style="fill:none;stroke-width:.3985;stroke-linecap:butt;stroke-linejoin:miter;stroke:#000;stroke-opacity:1;stroke-miterlimit:10" d="M49.981 6.714 36.45 20.245" transform="matrix(1 0 0 -1 -19.239 64.081)"/><path style="fill:none;stroke-width:.3985;stroke-linecap:round;stroke-linejoin:round;stroke:#000;stroke-opacity:1;stroke-miterlimit:10" d="M-2.073 2.39C-1.694.958-.849.279 0-.001-.85-.28-1.694-.954-2.071-2.39" transform="scale(-.99997 .99997) rotate(-44.996 44.218 42.455)"/><path style="fill:none;stroke-width:.3985;stroke-linecap:butt;stroke-linejoin:miter;stroke:#000;stroke-opacity:1;stroke-miterlimit:10" d="M56.692 6.714v12.832" transform="matrix(1 0 0 -1 -19.239 64.081)"/><path style="fill:none;stroke-width:.3985;stroke-linecap:round;stroke-linejoin:round;stroke:#000;stroke-opacity:1;stroke-miterlimit:10" d="M-2.072 2.392C-1.693.955-.85.28.002.002-.85-.28-1.693-.957-2.072-2.39" transform="matrix(0 -1 -1 0 37.455 44.338)"/><path style="fill:none;stroke-width:.3985;stroke-linecap:butt;stroke-linejoin:miter;stroke:#000;stroke-opacity:1;stroke-miterlimit:10" d="m63.407 6.714 13.531 13.531" transform="matrix(1 0 0 -1 -19.239 64.081)"/><path style="fill:none;stroke-width:.3985;stroke-linecap:round;stroke-linejoin:round;stroke:#000;stroke-opacity:1;stroke-miterlimit:10" d="M-2.072 2.393C-1.694.953-.848.28 0 0c-.848-.28-1.694-.959-2.072-2.392" transform="scale(.99997 -.99997) rotate(44.996 81.674 47.981)"/><path style="fill:none;stroke-width:.3985;stroke-linecap:butt;stroke-linejoin:miter;stroke:#000;stroke-opacity:1;stroke-miterlimit:10" d="M28.348 34.757V47.67" transform="matrix(1 0 0 -1 -19.239 64.081)"/><path style="fill:none;stroke-width:.3985;stroke-linecap:round;stroke-linejoin:round;stroke:#000;stroke-opacity:1;stroke-miterlimit:10" d="M-2.073 2.393C-1.693.955-.85.28.001-.002c-.851-.277-1.695-.953-2.074-2.39" transform="matrix(0 -1 -1 0 9.108 16.212)"/><path style="fill:none;stroke-width:.3985;stroke-linecap:butt;stroke-linejoin:miter;stroke:#000;stroke-opacity:1;stroke-miterlimit:10" d="m36.348 34.476 18.446 14.132" transform="matrix(1 0 0 -1 -19.239 64.081)"/><path style="fill:none;stroke-width:.3985;stroke-linecap:round;stroke-linejoin:round;stroke:#000;stroke-opacity:1;stroke-miterlimit:10" d="M-2.07 2.39C-1.695.957-.85.28 0 .002c-.849-.28-1.693-.957-2.074-2.392" transform="scale(1 -1) rotate(37.454 40.504 45)"/><path style="fill:none;stroke-width:.3985;stroke-linecap:butt;stroke-linejoin:miter;stroke:#000;stroke-opacity:1;stroke-miterlimit:10" d="M36.348 31.41 82.81 49.205" transform="matrix(1 0 0 -1 -19.239 64.081)"/><path style="fill:none;stroke-width:.3985;stroke-linecap:round;stroke-linejoin:round;stroke:#000;stroke-opacity:1;stroke-miterlimit:10" d="M-2.072 2.391C-1.692.958-.852.28 0 .001-.848-.279-1.694-.959-2.07-2.39" transform="scale(.99998 -.99998) rotate(20.958 71.9 164.946)"/><path style="fill:none;stroke-width:.3985;stroke-linecap:butt;stroke-linejoin:miter;stroke:#000;stroke-opacity:1;stroke-miterlimit:10" d="m48.692 34.476-18.45 14.132" transform="matrix(1 0 0 -1 -19.239 64.081)"/><path style="fill:none;stroke-width:.3985;stroke-linecap:round;stroke-linejoin:round;stroke:#000;stroke-opacity:1;stroke-miterlimit:10" d="M-2.073 2.39C-1.692.957-.848.279.001 0c-.85-.278-1.695-.955-2.072-2.39" transform="scale(-1 1) rotate(-37.454 17.221 23.677)"/><path style="fill:none;stroke-width:.3985;stroke-linecap:butt;stroke-linejoin:miter;stroke:#000;stroke-opacity:1;stroke-miterlimit:10" d="M56.692 34.757V47.67" transform="matrix(1 0 0 -1 -19.239 64.081)"/><path style="fill:none;stroke-width:.3985;stroke-linecap:round;stroke-linejoin:round;stroke:#000;stroke-opacity:1;stroke-miterlimit:10" d="M-2.073 2.392C-1.693.955-.85.28.001.002-.85-.28-1.694-.957-2.073-2.39" transform="matrix(0 -1 -1 0 37.455 16.212)"/><path style="fill:none;stroke-width:.3985;stroke-linecap:butt;stroke-linejoin:miter;stroke:#000;stroke-opacity:1;stroke-miterlimit:10" d="m64.696 34.476 18.445 14.132" transform="matrix(1 0 0 -1 -19.239 64.081)"/><path style="fill:none;stroke-width:.3985;stroke-linecap:round;stroke-linejoin:round;stroke:#000;stroke-opacity:1;stroke-miterlimit:10" d="M-2.073 2.393C-1.693.955-.85.278.002 0-.85-.276-1.694-.954-2.072-2.391" transform="scale(1 -1) rotate(37.454 54.678 86.81)"/><path style="fill:none;stroke-width:.3985;stroke-linecap:butt;stroke-linejoin:miter;stroke:#000;stroke-opacity:1;stroke-miterlimit:10" d="M77.04 31.41 30.579 49.205" transform="matrix(1 0 0 -1 -19.239 64.081)"/><path style="fill:none;stroke-width:.3985;stroke-linecap:round;stroke-linejoin:round;stroke:#000;stroke-opacity:1;stroke-miterlimit:10" d="M-2.072 2.39C-1.695.957-.849.278-.002 0c-.847-.279-1.691-.958-2.07-2.392" transform="scale(-.99998 .99998) rotate(-20.958 34.444 37.557)"/><path style="fill:none;stroke-width:.3985;stroke-linecap:butt;stroke-linejoin:miter;stroke:#000;stroke-opacity:1;stroke-miterlimit:10" d="M77.04 34.476 58.59 48.608" transform="matrix(1 0 0 -1 -19.239 64.081)"/><path style="fill:none;stroke-width:.3985;stroke-linecap:round;stroke-linejoin:round;stroke:#000;stroke-opacity:1;stroke-miterlimit:10" d="M-2.073 2.39C-1.693.955-.85.278 0-.002c-.85-.277-1.695-.954-2.072-2.39" transform="scale(-1 1) rotate(-37.454 3.047 65.487)"/><path style="fill:none;stroke-width:.3985;stroke-linecap:butt;stroke-linejoin:miter;stroke:#000;stroke-opacity:1;stroke-miterlimit:10" d="M85.04 34.757V47.67" transform="matrix(1 0 0 -1 -19.239 64.081)"/><path style="fill:none;stroke-width:.3985;stroke-linecap:round;stroke-linejoin:round;stroke:#000;stroke-opacity:1;stroke-miterlimit:10" d="M-2.073 2.391C-1.693.958-.85.278.001.001-.85-.281-1.694-.956-2.073-2.39" transform="matrix(0 -1 -1 0 65.801 16.212)"/></svg>