<svg xmlns="http://www.w3.org/2000/svg" width="122.452" height="84.699" viewBox="0 0 91.839 63.524" version="1.2"><defs><clipPath id="a"><path d="M0 0h91.758v63.285H0Zm0 0"/></clipPath></defs><path style="fill:none;stroke-width:.19925;stroke-linecap:butt;stroke-linejoin:miter;stroke:gray;stroke-opacity:1;stroke-miterlimit:10" d="M.001.002h85.04M0 28.345h85.04M0 56.685h85.04M0 .002v56.691M28.345.002v56.691M56.693.002v56.691M85.029.002v56.691" transform="matrix(1 0 0 -1 3.217 59.861)"/><g clip-path="url(#a)"><path style="fill:none;stroke-width:.3985;stroke-linecap:butt;stroke-linejoin:miter;stroke:#000;stroke-opacity:1;stroke-miterlimit:10" d="M-.788 2.361.786-2.362m7.88 7.875L10.24.787m7.875 7.875 1.574-4.723m7.875 7.875 1.578-4.726m7.875 7.875 1.574-4.723m7.875 7.875 1.578-4.727m7.875 7.875 1.574-4.722m7.875 7.875 1.579-4.727m7.875 7.875 1.574-4.723m6.152 5.547 4.984.012m-7.18 8.356 4.388 2.363m-10.11 4.597 3.266 3.762m-11.047 1.356 2.223 4.457m-11.07-1.114 1.312 4.805M48.622 53.9l.493 4.957m-10.055-4.75-.278 4.973M29.6 52.814l-1.078 4.86m-7.961-7.747-1.957 4.582m-6.192-9.191-2.96 4.008M5.985 38.857 1.9 41.705m.77-10.926-4.93.723" transform="matrix(1 0 0 -1 3.217 59.861)"/></g></svg>