<svg xmlns="http://www.w3.org/2000/svg" xmlns:xlink="http://www.w3.org/1999/xlink" width="398.763" height="274.707" viewBox="0 0 299.072 206.03" version="1.2"><defs><symbol overflow="visible" id="b"><path style="stroke:none" d="M7.64-2.266c0-.203-.077-.203-.25-.203-.124 0-.218 0-.218.172C7.094-.969 5.89-.359 4.89-.359c-.782 0-1.625-.235-2.141-.844-.469-.578-.594-1.313-.594-2.219 0-.562.031-1.625.672-2.297.64-.656 1.516-.765 2.031-.765 1.079 0 2.016.765 2.235 2.03.031.188.047.204.265.204.266 0 .282-.016.282-.281v-2.14c0-.188 0-.282-.188-.282-.094 0-.11.031-.187.094l-.657.593a3.03 3.03 0 0 0-1.968-.687c-2.485 0-4 1.484-4 3.531S2.156.11 4.64.11c1.875 0 3-1.218 3-2.375Zm0 0"/></symbol><symbol overflow="visible" id="c"><path style="stroke:none" d="M6.125 0v-.469h-.688v-2.578c0-1.047-.53-1.437-1.53-1.437a1.9 1.9 0 0 0-1.688.953v-3.39l-1.766.077v.469c.61 0 .688 0 .688.39v5.516H.453V0l1.25-.031L2.953 0v-.469h-.687v-2.078c0-1.094.859-1.578 1.5-1.578.328 0 .546.203.546.969V-.47h-.687V0l1.25-.031Zm0 0"/></symbol><symbol overflow="visible" id="d"><path style="stroke:none" d="M5.516-.234c0-.235-.125-.235-.266-.235-.61-.015-.61-.14-.61-.375v-2.14c0-.891-.702-1.532-2.187-1.532-.562 0-1.781.047-1.781.922 0 .438.344.625.61.625.312 0 .624-.219.624-.625 0-.297-.187-.469-.218-.5a5.28 5.28 0 0 1 .718-.062c.75 0 1.11.422 1.11 1.172v.343c-.72.032-3.25.125-3.25 1.563C.266-.125 1.5.062 2.187.062c.797 0 1.266-.406 1.485-.828 0 .313 0 .766 1.047.766h.468c.204 0 .329 0 .329-.234Zm-2-1.157c0 .97-.922 1.094-1.172 1.094-.516 0-.906-.344-.906-.797 0-1.062 1.578-1.203 2.078-1.234Zm0 0"/></symbol><symbol overflow="visible" id="e"><path style="stroke:none" d="M9.328 0v-.469h-.687v-2.578c0-1.031-.516-1.437-1.547-1.437-.907 0-1.422.5-1.688.953-.187-.922-1.11-.953-1.484-.953-.875 0-1.438.453-1.766 1.078v-1.078l-1.703.078v.468c.61 0 .688 0 .688.391v3.078H.453V0l1.25-.031L2.953 0v-.469h-.687v-2.078c0-1.094.875-1.578 1.5-1.578.328 0 .546.203.546.969V-.47h-.687V0l1.266-.031L6.14 0v-.469h-.688v-2.078c0-1.094.86-1.578 1.484-1.578.344 0 .563.203.563.969V-.47h-.688V0l1.25-.031Zm0 0"/></symbol><symbol overflow="visible" id="f"><path style="stroke:none" d="M4.36-6.11c0-.421-.36-.874-1.141-.874-.969 0-2.047.421-2.047 1.546v1.016h-.75v.469h.75V-.47H.484V0l1.25-.031c.375 0 1.016 0 1.375.031v-.469H2.25v-3.484h1.14v-.469H2.188v-1.016c0-1.093.75-1.187 1-1.187.047 0 .11 0 .172.031a.585.585 0 0 0-.234.485c0 .421.36.609.61.609.296 0 .624-.203.624-.61Zm0 0"/></symbol><symbol overflow="visible" id="g"><path style="stroke:none" d="M4.922-1.172c0-.172-.188-.172-.234-.172-.172 0-.188.047-.25.203-.204.485-.782.797-1.422.797-1.407 0-1.422-1.328-1.422-1.828h3.015c.22 0 .313 0 .313-.265 0-.313-.063-1.047-.563-1.547-.359-.36-.89-.532-1.578-.532C1.187-4.516.312-3.484.312-2.25c0 1.344 1 2.313 2.61 2.313 1.578 0 2-1.063 2-1.235ZM3.984-2.5h-2.39c.015-.39.031-.813.234-1.14.266-.391.672-.516.953-.516 1.172 0 1.188 1.312 1.203 1.656Zm0 0"/></symbol><symbol overflow="visible" id="h"><path style="stroke:none" d="M4.406-3.672c0-.531-.531-.812-1.062-.812-.688 0-1.094.5-1.313 1.125v-1.125l-1.656.078v.468c.61 0 .688 0 .688.391v3.078H.375V0l1.25-.031C2-.031 2.641-.031 3 0v-.469h-.86v-1.75c0-.687.235-1.906 1.235-1.906 0 0-.188.172-.188.453 0 .406.329.61.61.61.297 0 .61-.204.61-.61Zm0 0"/></symbol><symbol overflow="visible" id="i"><path style="stroke:none" d="M5.984 0v-.469c-.609 0-.687 0-.687-.39v-6.063l-1.766.078v.469c.625 0 .703 0 .703.39v1.954a2.178 2.178 0 0 0-1.359-.453c-1.453 0-2.5.875-2.5 2.28 0 1.313.922 2.267 2.39 2.267.61 0 1.094-.235 1.407-.485v.484ZM4.172-1.031c-.14.187-.547.734-1.297.734-1.219 0-1.219-1.203-1.219-1.906 0-.485 0-1.016.25-1.406.297-.422.766-.516 1.078-.516.563 0 .97.313 1.188.61Zm0 0"/></symbol><symbol overflow="visible" id="j"><path style="stroke:none" d="M8.547-.953c0-.219-.14-.219-.235-.219-.203 0-.218.11-.234.234-.047.47-.328.688-.625.688-.61 0-.687-.703-.75-1.125-.016-.11-.094-.797-.11-.844-.14-.703-.687-1.015-1.109-1.172C6.641-3.687 7.141-4.344 7.141-5c0-1-1.094-1.844-2.97-1.844H.392v.469h1.078v5.906H.39V0C.75-.031 1.719-.031 2.14-.031c.421 0 1.39 0 1.75.031v-.469H2.828v-2.765h1.156c.141 0 .579 0 .891.328.313.36.313.547.313 1.265 0 .657 0 1.157.703 1.485.437.218 1.062.265 1.468.265 1.063 0 1.188-.89 1.188-1.062ZM5.625-4.984c0 .562 0 1.39-1.64 1.39H2.827v-2.781H4c1.61 0 1.625.781 1.625 1.39Zm0 0"/></symbol><symbol overflow="visible" id="k"><path style="stroke:none" d="M4.766-1.172c0-.14-.141-.14-.235-.14-.187 0-.187.03-.25.156-.25.625-.734.812-1.234.812-1.39 0-1.39-1.453-1.39-1.922 0-.562 0-1.843 1.28-1.843.36 0 .516.015.657.046a.618.618 0 0 0-.203.47c0 .437.343.624.609.624.313 0 .64-.219.64-.625 0-.86-1.156-.922-1.734-.922C1.11-4.516.375-3.375.375-2.219.375-.89 1.313.062 2.844.062c1.625 0 1.922-1.156 1.922-1.234Zm0 0"/></symbol><symbol overflow="visible" id="l"><path style="stroke:none" d="M3.813-1.234v-.532h-.47v.516c0 .672-.327.906-.609.906-.578 0-.578-.64-.578-.86v-2.75h1.469v-.468H2.156v-1.906h-.469c0 1-.484 1.984-1.484 2.016v.359h.828v2.734c0 1.063.86 1.282 1.578 1.282.75 0 1.204-.579 1.204-1.297Zm0 0"/></symbol><symbol overflow="visible" id="m"><path style="stroke:none" d="M6.125 0v-.469h-.688v-2.578c0-1.047-.53-1.437-1.53-1.437-.954 0-1.485.562-1.75 1.078v-1.078l-1.704.078v.468c.61 0 .688 0 .688.391v3.078H.453V0l1.25-.031L2.953 0v-.469h-.687v-2.078c0-1.094.859-1.578 1.5-1.578.328 0 .546.203.546.969V-.47h-.687V0l1.25-.031Zm0 0"/></symbol><symbol overflow="visible" id="n"><path style="stroke:none" d="M5.563-3.953c0-.235-.172-.578-.625-.578-.157 0-.625.031-1.063.375-.172-.125-.594-.328-1.328-.328-1.438 0-1.985.78-1.985 1.468 0 .407.188.829.516 1.047-.281.36-.344.688-.344.89 0 .157.047.641.438.954-.125.031-.86.25-.86.875C.313 1.25.875 2 2.86 2 4.625 2 5.406 1.422 5.406.719c0-.297-.078-.922-.75-1.266-.562-.281-1.156-.281-2.11-.281-.265 0-.718 0-.765-.016a.625.625 0 0 1-.562-.625c0-.093.047-.25.11-.328.452.234.968.266 1.218.266 1.437 0 1.984-.782 1.984-1.485 0-.468-.25-.796-.406-.953.297-.156.516-.172.625-.187a.433.433 0 0 0-.047.203c0 .25.172.422.438.422a.41.41 0 0 0 .421-.422Zm-2.141.937c0 .454 0 1.125-.875 1.125s-.875-.671-.875-1.125c0-.437 0-1.109.875-1.109s.875.672.875 1.11ZM4.547.75c0 .36-.39.89-1.688.89-1.187 0-1.687-.452-1.687-.906 0-.609.625-.609.766-.609h1.171c.313 0 1.438 0 1.438.625Zm0 0"/></symbol><symbol overflow="visible" id="o"><path style="stroke:none" d="M2.922 0v-.469h-.688v-6.453L.47-6.844v.469c.625 0 .687 0 .687.39v5.516H.47V0l1.219-.031Zm0 0"/></symbol><symbol overflow="visible" id="p"><path style="stroke:none" d="M3.078.313c0-.126-.047-.157-.187-.25C2.062-.5 1.75-1.391 1.75-2.126c0-.672.25-1.594 1.156-2.203.125-.094.172-.125.172-.25a.254.254 0 0 0-.265-.25c-.204 0-1.641.906-1.641 2.703 0 .813.312 1.438.562 1.781.375.516.907.906 1.079.906.218 0 .265-.171.265-.25Zm0 0"/></symbol><symbol overflow="visible" id="q"><path style="stroke:none" d="M3.219-.906c0-.735-.906-.906-1.14-.938l-.704-.125C1.187-2 1-2.079 1-2.25c0-.156.219-.328.813-.328.515 0 .609.172.625.328.015.14.03.281.28.281.298 0 .298-.156.298-.328v-.469c0-.14-.016-.328-.25-.328-.157 0-.22.063-.25.125-.282-.125-.563-.125-.688-.125-1.187 0-1.344.594-1.344.844 0 .656.735.797 1.391.89.297.063.828.141.828.454 0 .234-.25.422-.828.422-.297 0-.656-.063-.813-.563-.03-.156-.078-.234-.28-.234-.298 0-.298.172-.298.328v.656c0 .14 0 .344.25.344.079 0 .188 0 .282-.234.328.218.671.234.859.234 1.125 0 1.344-.61 1.344-.953Zm0 0"/></symbol><symbol overflow="visible" id="r"><path style="stroke:none" d="M2.313-.469a.477.477 0 0 0-.485-.484.47.47 0 0 0-.469.469c0 .28.22.484.47.484a.473.473 0 0 0 .484-.469Zm0 0"/></symbol><symbol overflow="visible" id="s"><path style="stroke:none" d="M3.14-.906c0-.156 0-.313-.296-.313-.266 0-.266.157-.266.297-.015.375-.36.438-.515.438-.454 0-.454-.313-.454-.47v-1.562h1.047c.125 0 .328 0 .328-.265 0-.25-.187-.25-.328-.25H1.61v-.516c0-.14-.015-.328-.296-.328-.282 0-.282.172-.282.328v.516H.484c-.125 0-.328 0-.328.25 0 .265.203.265.328.265h.547v1.61c0 .687.485.953 1.016.953S3.14-.266 3.14-.906Zm0 0"/></symbol><symbol overflow="visible" id="t"><path style="stroke:none" d="M3.25-.797c0-.234-.234-.234-.281-.234-.156 0-.219.015-.281.172-.141.328-.485.375-.657.375-.469 0-.937-.297-1.062-.813h1.953c.172 0 .328 0 .328-.312 0-.797-.453-1.485-1.375-1.485-.828 0-1.516.703-1.516 1.563S1.08.047 1.984.047c.938 0 1.266-.656 1.266-.844Zm-.594-1.015H.97c.125-.438.484-.766.906-.766.328 0 .703.156.781.765Zm0 0"/></symbol><symbol overflow="visible" id="u"><path style="stroke:none" d="M3.469-.266c0-.25-.203-.25-.328-.25h-.25l-.829-1.046.735-.954h.234c.125 0 .344 0 .344-.265 0-.25-.219-.25-.344-.25H2.25c-.125 0-.328 0-.328.25 0 .203.11.265.281.265l-.39.547-.422-.547c.156 0 .28-.062.28-.265 0-.25-.202-.25-.327-.25H.547c-.125 0-.328 0-.328.25 0 .265.218.265.328.265h.25l.75.954L.75-.516H.516c-.125 0-.344 0-.344.25C.172 0 .39 0 .516 0h.78c.126 0 .329 0 .329-.266 0-.203-.11-.25-.297-.25l.484-.703.5.703c-.187 0-.296.047-.296.25 0 .266.203.266.328.266h.797c.109 0 .328 0 .328-.266Zm0 0"/></symbol><symbol overflow="visible" id="v"><path style="stroke:none" d="M2.484-2.125c0-.828-.312-1.453-.562-1.797-.375-.515-.906-.906-1.078-.906-.203 0-.266.187-.266.25 0 .125.094.187.14.219 1.095.718 1.188 1.796 1.188 2.234 0 .656-.25 1.578-1.14 2.188C.64.14.578.186.578.313c0 .078.063.25.266.25s1.64-.907 1.64-2.688Zm0 0"/></symbol><symbol overflow="visible" id="w"><path style="stroke:none" d="M3.266-.797c0-.234-.235-.234-.297-.234-.125 0-.203 0-.266.172-.047.078-.187.375-.625.375a1.027 1.027 0 0 1-1.015-1.032c0-.312.187-1.062 1.062-1.062l.344.015c.015.282.172.376.36.376.187 0 .358-.126.358-.36 0-.531-.734-.547-1.062-.547-1.219 0-1.64.953-1.64 1.578 0 .844.671 1.563 1.546 1.563 1 0 1.235-.719 1.235-.844Zm0 0"/></symbol><symbol overflow="visible" id="x"><path style="stroke:none" d="M3.578-.266c0-.25-.203-.25-.328-.25H3v-1.53c0-.72-.36-1.032-.938-1.032-.39 0-.671.172-.843.297 0-.172-.047-.25-.313-.25h-.5c-.14 0-.328 0-.328.25 0 .265.203.265.313.265h.25v2H.406c-.14 0-.328 0-.328.25C.078 0 .281 0 .391 0h1.093c.11 0 .329 0 .329-.266 0-.25-.204-.25-.344-.25h-.25v-1.156c0-.64.484-.875.797-.875.328 0 .406.172.406.547v1.484h-.203c-.14 0-.344 0-.344.25 0 .266.219.266.344.266H3.25c.11 0 .328 0 .328-.266Zm0 0"/></symbol><symbol overflow="visible" id="y"><path style="stroke:none" d="M3.406-2.594c0-.156-.078-.484-.703-.484-.328 0-.734.11-1.094.469v-.094c0-.25-.046-.328-.328-.328h-.75c-.125 0-.328 0-.328.25 0 .265.203.265.328.265h.5v2h-.5c-.125 0-.328 0-.328.25C.203 0 .406 0 .531 0h1.781c.126 0 .329 0 .329-.266 0-.25-.204-.25-.329-.25H1.61v-.796c0-.61.36-1.22 1.11-1.235 0 .156.172.281.344.281.187 0 .343-.125.343-.328Zm0 0"/></symbol><symbol overflow="visible" id="z"><path style="stroke:none" d="M3.36-4c0-.25-.188-.266-.329-.266H.828c-.062-.093-.187-.109-.25-.109-.281 0-.281.188-.281.344v.281c0 .156 0 .328.281.328.266 0 .281-.125.297-.312h1.61C1.358-2.5 1.155-1.031 1.155-.297c0 .11 0 .375.282.375.14 0 .28-.094.28-.328a4.937 4.937 0 0 1 1.47-3.469c.171-.14.171-.156.171-.281Zm0 0"/></symbol><symbol overflow="visible" id="A"><path style="stroke:none" d="M3.313-2.125c0-1.297-.72-2.203-1.485-2.203-.781 0-1.5.922-1.5 2.203 0 1.297.734 2.203 1.5 2.203.781 0 1.484-.922 1.484-2.203Zm-.563-.078c0 .969-.422 1.75-.922 1.75-.516 0-.922-.781-.922-1.75 0-.953.438-1.61.922-1.61.469 0 .922.657.922 1.61Zm0 0"/></symbol><symbol overflow="visible" id="B"><path style="stroke:none" d="M3.422-1.516c0-.875-.64-1.562-1.39-1.562-.298 0-.579.11-.813.265v-1.109c0-.25-.047-.344-.313-.344h-.5c-.14 0-.344.016-.344.266s.22.266.329.266h.25v3.406C.64-.172.656 0 .937 0c.22 0 .282-.094.282-.234.265.218.531.28.734.28.766 0 1.469-.671 1.469-1.562Zm-.578 0c0 .61-.453 1.032-.906 1.032-.485 0-.704-.563-.704-.875v-.485c0-.375.375-.703.766-.703.469 0 .844.469.844 1.031Zm0 0"/></symbol><symbol overflow="visible" id="C"><path style="stroke:none" d="M3.625-.266c0-.25-.203-.25-.328-.25-.203 0-.297-.03-.344-.046V-2c0-.5-.375-1.094-1.406-1.094-.313 0-1.031.016-1.031.547 0 .235.171.36.359.36.11 0 .344-.063.344-.36 0 0 .234-.031.343-.031.454 0 .782.187.813.594-1.219.03-2.047.39-2.047 1.062 0 .485.453.969 1.188.969.234 0 .656-.047.968-.25.172.187.485.203.75.203.235 0 .391-.016.391-.266ZM2.359-.969c0 .14 0 .266-.234.375-.234.11-.516.11-.578.11-.39 0-.64-.204-.64-.438 0-.312.546-.515 1.452-.562Zm0 0"/></symbol><symbol overflow="visible" id="D"><path style="stroke:none" d="M3.547-2.781c0-.25-.188-.25-.328-.25h-.781c-.157 0-.344 0-.344.25 0 .265.172.265.344.265h.265l-.297 1.72-.14-.532c-.125-.469-.172-.547-.422-.547-.094 0-.235 0-.328.188l-.266.906-.297-1.735h.266c.156 0 .343 0 .343-.265 0-.25-.187-.25-.343-.25H.437c-.14 0-.343 0-.343.25 0 .234.14.265.36.265L.858-.28c.032.187.047.312.36.312.312 0 .343-.062.453-.515l.172-.641.265 1c.094.14.235.156.344.156.281 0 .313-.125.344-.312l.406-2.235c.219 0 .344-.03.344-.265Zm0 0"/></symbol><symbol overflow="visible" id="E"><path style="stroke:none" d="M3.64-.266c0-.218-.14-.25-.39-.25v-1.593c0-.157-.016-.97-.656-.97a.842.842 0 0 0-.656.313.61.61 0 0 0-.532-.312.875.875 0 0 0-.547.203c-.046-.156-.187-.156-.312-.156H.328c-.125 0-.328 0-.328.25 0 .234.125.265.39.265v2c-.265 0-.39.032-.39.25C0 0 .219 0 .328 0h.594c.125 0 .312 0 .312-.266 0-.218-.109-.25-.359-.25v-1.171c0-.563.234-.86.5-.86.14 0 .203.11.203.5v1.531c-.156 0-.281.032-.281.25 0 .266.187.266.312.266h.516c.125 0 .313 0 .313-.266 0-.218-.126-.25-.376-.25v-1.171c0-.563.25-.86.5-.86.141 0 .204.11.204.5v1.531c-.141 0-.282.032-.282.25 0 .266.204.266.313.266h.5c.125 0 .344 0 .344-.266Zm0 0"/></symbol><symbol overflow="visible" id="F"><path style="stroke:none" d="M3.188-.266c0-.25-.204-.25-.329-.25h-.656v-2.187c0-.25-.047-.328-.328-.328H.906c-.125 0-.328 0-.328.25 0 .265.203.265.328.265h.719v2H.859c-.14 0-.343 0-.343.25C.516 0 .734 0 .859 0h2c.125 0 .329 0 .329-.266Zm-.954-3.562a.39.39 0 0 0-.406-.39.387.387 0 0 0-.39.39c0 .219.171.39.39.39a.39.39 0 0 0 .406-.39Zm0 0"/></symbol><symbol overflow="visible" id="G"><path style="stroke:none" d="M3.578-.266c0-.25-.203-.25-.328-.25H3v-3.406c0-.25-.047-.344-.328-.344h-.485c-.14 0-.343.016-.343.266s.218.266.328.266h.25v.906a1.261 1.261 0 0 0-.735-.25c-.765 0-1.453.672-1.453 1.562C.234-.64.875.047 1.625.047c.344 0 .61-.14.797-.313.015.188.062.266.328.266h.5c.125 0 .328 0 .328-.266ZM2.422-1.375c0 .36-.297.89-.781.89-.454 0-.829-.453-.829-1.03 0-.61.438-1.032.891-1.032.406 0 .719.344.719.688Zm0 0"/></symbol><symbol overflow="visible" id="H"><path style="stroke:none" d="M3.281-1.516c0-.89-.672-1.578-1.453-1.578-.797 0-1.453.688-1.453 1.578 0 .891.672 1.563 1.453 1.563.766 0 1.453-.688 1.453-1.563Zm-.578-.046c0 .593-.406 1.078-.875 1.078S.953-.97.953-1.563c0-.593.422-1.015.875-1.015s.875.422.875 1.015Zm0 0"/></symbol><symbol overflow="visible" id="I"><path style="stroke:none" d="M3.578-.266c0-.25-.203-.25-.328-.25H3v-1.53c0-.72-.36-1.032-.938-1.032-.39 0-.671.172-.843.297v-1.14c0-.25-.047-.345-.313-.345h-.5c-.14 0-.328.016-.328.266s.203.266.313.266h.25v3.218H.406c-.14 0-.328 0-.328.25C.078 0 .281 0 .391 0h1.093c.11 0 .329 0 .329-.266 0-.25-.204-.25-.344-.25h-.25v-1.156c0-.64.484-.875.797-.875.328 0 .406.172.406.547v1.484h-.203c-.14 0-.344 0-.344.25 0 .266.219.266.344.266H3.25c.11 0 .328 0 .328-.266Zm0 0"/></symbol><symbol overflow="visible" id="J"><path style="stroke:none" d="M3.578-.266c0-.25-.219-.25-.328-.25H3v-2.187c0-.25-.047-.328-.328-.328h-.485c-.14 0-.343 0-.343.25 0 .265.218.265.328.265h.25v1.391c0 .563-.516.64-.719.64-.469 0-.484-.187-.484-.39v-1.828c0-.25-.047-.328-.313-.328h-.5c-.14 0-.328 0-.328.25 0 .265.203.265.313.265h.25v1.688c0 .687.5.875 1.03.875.266 0 .516-.063.766-.219C2.485 0 2.626 0 2.75 0h.5c.125 0 .328 0 .328-.266Zm0 0"/></symbol><symbol overflow="visible" id="K"><path style="stroke:none" d="M3.063-3.844c0-.437-.579-.453-.704-.453-.578 0-1.125.328-1.125.953v.313H.61c-.125 0-.328 0-.328.25 0 .265.203.265.328.265h.625v2H.61c-.125 0-.343 0-.343.25C.266 0 .484 0 .609 0h1.844c.125 0 .328 0 .328-.266 0-.25-.203-.25-.328-.25h-.64v-2h.78c.11 0 .313 0 .313-.265 0-.25-.187-.25-.312-.25h-.781v-.266c0-.453.359-.484.562-.484.031.11.125.297.344.297a.35.35 0 0 0 .344-.36Zm0 0"/></symbol><clipPath id="a"><path d="M0 0h298.61v205.547H0Zm0 0"/></clipPath></defs><path style="stroke:none;fill-rule:nonzero;fill:#fffbb3;fill-opacity:1" d="m253.258 73.172-28.344-28.348-28.351-28.347h-94.965L44.902 73.172v58.691l56.696 56.696h94.965l28.351-28.348 28.344-28.348Zm0 0"/><g clip-path="url(#a)"><path style="fill:none;stroke-width:14.17339;stroke-linecap:butt;stroke-linejoin:miter;stroke:#b2b2b2;stroke-opacity:1;stroke-miterlimit:10" d="M104.177 29.346 75.833 57.694 47.481 86.04h-94.964l-56.696-56.695v-58.691l56.696-56.696H47.48l28.352 28.348 28.344 28.348Zm0 0" transform="matrix(1 0 0 -1 149.081 102.518)"/></g><g style="fill:#b2b2b2;fill-opacity:1"><use xlink:href="#b" x="94.511" y="129.863"/><use xlink:href="#c" x="102.79" y="129.863"/><use xlink:href="#d" x="109.156" y="129.863"/><use xlink:href="#e" x="114.725" y="129.863"/><use xlink:href="#f" x="124.269" y="129.863"/><use xlink:href="#g" x="127.766" y="129.863"/><use xlink:href="#h" x="133.017" y="129.863"/><use xlink:href="#g" x="137.739" y="129.863"/><use xlink:href="#i" x="142.989" y="129.863"/></g><g style="fill:#b2b2b2;fill-opacity:1"><use xlink:href="#j" x="153.171" y="129.863"/><use xlink:href="#g" x="161.769" y="129.863"/><use xlink:href="#k" x="167.019" y="129.863"/><use xlink:href="#l" x="172.11" y="129.863"/><use xlink:href="#d" x="176.563" y="129.863"/><use xlink:href="#m" x="182.132" y="129.863"/><use xlink:href="#n" x="188.499" y="129.863"/><use xlink:href="#o" x="194.227" y="129.863"/><use xlink:href="#g" x="197.405" y="129.863"/></g><path style="fill:none;stroke-width:.996;stroke-linecap:butt;stroke-linejoin:miter;stroke:#b2b2b2;stroke-opacity:1;stroke-miterlimit:10" d="M0-.001v58.695" transform="matrix(1 0 0 -1 203.153 131.866)"/><path style="fill:none;stroke-width:.3985;stroke-linecap:butt;stroke-linejoin:miter;stroke:#000;stroke-opacity:1;stroke-miterlimit:10" d="m-55.98-28.755 2.817 2.82m-2.816 0 2.816-2.82" transform="matrix(1 0 0 -1 149.081 102.518)"/><g style="fill:#000;fill-opacity:1"><use xlink:href="#p" x="98.03" y="131.997"/><use xlink:href="#q" x="101.691" y="131.997"/><use xlink:href="#r" x="105.353" y="131.997"/><use xlink:href="#s" x="109.014" y="131.997"/><use xlink:href="#t" x="112.675" y="131.997"/><use xlink:href="#u" x="116.336" y="131.997"/><use xlink:href="#s" x="119.998" y="131.997"/><use xlink:href="#v" x="123.659" y="131.997"/></g><path style="fill:none;stroke-width:.3985;stroke-linecap:butt;stroke-linejoin:miter;stroke:#000;stroke-opacity:1;stroke-miterlimit:10" d="M-1.41-1.408 1.408 1.41m-2.816 0 2.816-2.817" transform="matrix(1 0 0 -1 149.081 102.518)"/><g style="fill:#000;fill-opacity:1"><use xlink:href="#p" x="130.775" y="98.44"/><use xlink:href="#q" x="134.436" y="98.44"/><use xlink:href="#r" x="138.098" y="98.44"/><use xlink:href="#w" x="141.759" y="98.44"/><use xlink:href="#t" x="145.42" y="98.44"/><use xlink:href="#x" x="149.081" y="98.44"/><use xlink:href="#s" x="152.743" y="98.44"/><use xlink:href="#t" x="156.404" y="98.44"/><use xlink:href="#y" x="160.065" y="98.44"/><use xlink:href="#v" x="163.726" y="98.44"/></g><path style="fill:none;stroke-width:.3985;stroke-linecap:butt;stroke-linejoin:miter;stroke:#000;stroke-opacity:1;stroke-miterlimit:10" d="m32.485 91.717 2.817 2.817m-2.817 0 2.817-2.817" transform="matrix(1 0 0 -1 149.081 102.518)"/><g style="fill:#000;fill-opacity:1"><use xlink:href="#p" x="171.991" y="5.316"/><use xlink:href="#q" x="175.652" y="5.316"/><use xlink:href="#r" x="179.314" y="5.316"/><use xlink:href="#z" x="182.975" y="5.316"/><use xlink:href="#A" x="186.636" y="5.316"/><use xlink:href="#v" x="190.297" y="5.316"/></g><path style="fill:none;stroke-width:.3985;stroke-linecap:butt;stroke-linejoin:miter;stroke:#000;stroke-opacity:1;stroke-miterlimit:10" d="m-1.41-28.755 2.817 2.82m-2.816 0 2.816-2.82" transform="matrix(1 0 0 -1 149.081 102.518)"/><g style="fill:#000;fill-opacity:1"><use xlink:href="#p" x="134.436" y="138.209"/><use xlink:href="#q" x="138.097" y="138.209"/><use xlink:href="#r" x="141.759" y="138.209"/><use xlink:href="#B" x="145.42" y="138.209"/><use xlink:href="#C" x="149.081" y="138.209"/><use xlink:href="#q" x="152.742" y="138.209"/><use xlink:href="#t" x="156.404" y="138.209"/><use xlink:href="#v" x="160.065" y="138.209"/></g><path style="fill:none;stroke-width:.3985;stroke-linecap:butt;stroke-linejoin:miter;stroke:#000;stroke-opacity:1;stroke-miterlimit:10" d="m109.88-28.755 2.82 2.82m-2.82 0 2.82-2.82" transform="matrix(1 0 0 -1 149.081 102.518)"/><g style="fill:#000;fill-opacity:1"><use xlink:href="#p" x="209.253" y="131.997"/><use xlink:href="#q" x="212.914" y="131.997"/><use xlink:href="#r" x="216.576" y="131.997"/><use xlink:href="#B" x="220.237" y="131.997"/><use xlink:href="#C" x="223.898" y="131.997"/><use xlink:href="#q" x="227.559" y="131.997"/><use xlink:href="#t" x="231.221" y="131.997"/></g><g style="fill:#000;fill-opacity:1"><use xlink:href="#t" x="238.543" y="131.997"/><use xlink:href="#C" x="242.204" y="131.997"/><use xlink:href="#q" x="245.866" y="131.997"/><use xlink:href="#s" x="249.527" y="131.997"/><use xlink:href="#v" x="253.188" y="131.997"/></g><path style="fill:none;stroke-width:.3985;stroke-linecap:butt;stroke-linejoin:miter;stroke:#000;stroke-opacity:1;stroke-miterlimit:10" d="m-112.683-28.755 2.82 2.82m-2.82 0 2.82-2.82" transform="matrix(1 0 0 -1 149.081 102.518)"/><g style="fill:#000;fill-opacity:1"><use xlink:href="#p" x="41.329" y="131.997"/><use xlink:href="#q" x="44.99" y="131.997"/><use xlink:href="#r" x="48.652" y="131.997"/><use xlink:href="#B" x="52.313" y="131.997"/><use xlink:href="#C" x="55.974" y="131.997"/><use xlink:href="#q" x="59.635" y="131.997"/><use xlink:href="#t" x="63.297" y="131.997"/></g><g style="fill:#000;fill-opacity:1"><use xlink:href="#D" x="70.619" y="131.997"/><use xlink:href="#t" x="74.28" y="131.997"/><use xlink:href="#q" x="77.942" y="131.997"/><use xlink:href="#s" x="81.603" y="131.997"/><use xlink:href="#v" x="85.264" y="131.997"/></g><path style="fill:none;stroke-width:.3985;stroke-linecap:butt;stroke-linejoin:miter;stroke:#000;stroke-opacity:1;stroke-miterlimit:10" d="m-1.41-26.544 2.817 2.82m-2.816 0 2.816-2.82" transform="matrix(1 0 0 -1 149.081 102.518)"/><g style="fill:#000;fill-opacity:1"><use xlink:href="#p" x="152.601" y="129.786"/><use xlink:href="#q" x="156.262" y="129.786"/><use xlink:href="#r" x="159.924" y="129.786"/><use xlink:href="#E" x="163.585" y="129.786"/><use xlink:href="#F" x="167.246" y="129.786"/><use xlink:href="#G" x="170.907" y="129.786"/><use xlink:href="#v" x="174.569" y="129.786"/></g><path style="fill:none;stroke-width:.3985;stroke-linecap:butt;stroke-linejoin:miter;stroke:#000;stroke-opacity:1;stroke-miterlimit:10" d="m109.88-26.54 2.82 2.816m-2.82 0 2.82-2.817" transform="matrix(1 0 0 -1 149.081 102.518)"/><g style="fill:#000;fill-opacity:1"><use xlink:href="#p" x="238.401" y="123.574"/><use xlink:href="#q" x="242.062" y="123.574"/><use xlink:href="#r" x="245.724" y="123.574"/><use xlink:href="#E" x="249.385" y="123.574"/><use xlink:href="#F" x="253.046" y="123.574"/><use xlink:href="#G" x="256.707" y="123.574"/></g><g style="fill:#000;fill-opacity:1"><use xlink:href="#t" x="264.03" y="123.574"/><use xlink:href="#C" x="267.691" y="123.574"/><use xlink:href="#q" x="271.352" y="123.574"/><use xlink:href="#s" x="275.014" y="123.574"/><use xlink:href="#v" x="278.675" y="123.574"/></g><path style="fill:none;stroke-width:.3985;stroke-linecap:butt;stroke-linejoin:miter;stroke:#000;stroke-opacity:1;stroke-miterlimit:10" d="m-112.683-26.54 2.82 2.816m-2.82 0 2.82-2.817" transform="matrix(1 0 0 -1 149.081 102.518)"/><g style="fill:#000;fill-opacity:1"><use xlink:href="#p" x="15.842" y="123.574"/><use xlink:href="#q" x="19.503" y="123.574"/><use xlink:href="#r" x="23.165" y="123.574"/><use xlink:href="#E" x="26.826" y="123.574"/><use xlink:href="#F" x="30.487" y="123.574"/><use xlink:href="#G" x="34.148" y="123.574"/></g><g style="fill:#000;fill-opacity:1"><use xlink:href="#D" x="41.471" y="123.574"/><use xlink:href="#t" x="45.132" y="123.574"/><use xlink:href="#q" x="48.793" y="123.574"/><use xlink:href="#s" x="52.455" y="123.574"/><use xlink:href="#v" x="56.116" y="123.574"/></g><path style="fill:none;stroke-width:.3985;stroke-linecap:butt;stroke-linejoin:miter;stroke:#000;stroke-opacity:1;stroke-miterlimit:10" d="m-1.41 91.721 2.817 2.817m-2.816 0 2.816-2.817" transform="matrix(1 0 0 -1 149.081 102.518)"/><g style="fill:#000;fill-opacity:1"><use xlink:href="#p" x="132.605" y="5.313"/><use xlink:href="#q" x="136.266" y="5.313"/><use xlink:href="#r" x="139.928" y="5.313"/><use xlink:href="#x" x="143.589" y="5.313"/><use xlink:href="#H" x="147.25" y="5.313"/><use xlink:href="#y" x="150.911" y="5.313"/><use xlink:href="#s" x="154.573" y="5.313"/><use xlink:href="#I" x="158.234" y="5.313"/><use xlink:href="#v" x="161.895" y="5.313"/></g><path style="fill:none;stroke-width:.3985;stroke-linecap:butt;stroke-linejoin:miter;stroke:#000;stroke-opacity:1;stroke-miterlimit:10" d="m-1.41-94.537 2.817 2.817m-2.816 0 2.816-2.817" transform="matrix(1 0 0 -1 149.081 102.518)"/><g style="fill:#000;fill-opacity:1"><use xlink:href="#p" x="132.605" y="203.991"/><use xlink:href="#q" x="136.266" y="203.991"/><use xlink:href="#r" x="139.928" y="203.991"/><use xlink:href="#q" x="143.589" y="203.991"/><use xlink:href="#H" x="147.25" y="203.991"/><use xlink:href="#J" x="150.911" y="203.991"/><use xlink:href="#s" x="154.573" y="203.991"/><use xlink:href="#I" x="158.234" y="203.991"/><use xlink:href="#v" x="161.895" y="203.991"/></g><path style="fill:none;stroke-width:.3985;stroke-linecap:butt;stroke-linejoin:miter;stroke:#000;stroke-opacity:1;stroke-miterlimit:10" d="m109.856-1.408 2.817 2.817m-2.817 0 2.817-2.817" transform="matrix(1 0 0 -1 149.081 102.518)"/><g style="fill:#000;fill-opacity:1"><use xlink:href="#p" x="245.699" y="98.44"/><use xlink:href="#q" x="249.36" y="98.44"/><use xlink:href="#r" x="253.022" y="98.44"/><use xlink:href="#t" x="256.683" y="98.44"/><use xlink:href="#C" x="260.344" y="98.44"/><use xlink:href="#q" x="264.005" y="98.44"/><use xlink:href="#s" x="267.667" y="98.44"/><use xlink:href="#v" x="271.328" y="98.44"/></g><path style="fill:none;stroke-width:.3985;stroke-linecap:butt;stroke-linejoin:miter;stroke:#000;stroke-opacity:1;stroke-miterlimit:10" d="m-112.675-1.408 2.82 2.817m-2.82 0 2.82-2.817" transform="matrix(1 0 0 -1 149.081 102.518)"/><g style="fill:#000;fill-opacity:1"><use xlink:href="#p" x="23.173" y="98.44"/><use xlink:href="#q" x="26.834" y="98.44"/><use xlink:href="#r" x="30.496" y="98.44"/><use xlink:href="#D" x="34.157" y="98.44"/><use xlink:href="#t" x="37.818" y="98.44"/><use xlink:href="#q" x="41.479" y="98.44"/><use xlink:href="#s" x="45.141" y="98.44"/><use xlink:href="#v" x="48.802" y="98.44"/></g><path style="fill:none;stroke-width:.3985;stroke-linecap:butt;stroke-linejoin:miter;stroke:#000;stroke-opacity:1;stroke-miterlimit:10" d="m109.856 30.873 2.817 2.817m-2.817 0 2.817-2.817" transform="matrix(1 0 0 -1 149.081 102.518)"/><g style="fill:#000;fill-opacity:1"><use xlink:href="#p" x="221.901" y="66.159"/><use xlink:href="#q" x="225.562" y="66.159"/><use xlink:href="#r" x="229.224" y="66.159"/><use xlink:href="#B" x="232.885" y="66.159"/><use xlink:href="#t" x="236.546" y="66.159"/><use xlink:href="#K" x="240.207" y="66.159"/><use xlink:href="#H" x="243.869" y="66.159"/><use xlink:href="#y" x="247.53" y="66.159"/><use xlink:href="#t" x="251.191" y="66.159"/></g><g style="fill:#000;fill-opacity:1"><use xlink:href="#x" x="258.514" y="66.159"/><use xlink:href="#H" x="262.175" y="66.159"/><use xlink:href="#y" x="265.836" y="66.159"/><use xlink:href="#s" x="269.498" y="66.159"/><use xlink:href="#I" x="273.159" y="66.159"/></g><g style="fill:#000;fill-opacity:1"><use xlink:href="#t" x="280.481" y="66.159"/><use xlink:href="#C" x="284.143" y="66.159"/><use xlink:href="#q" x="287.804" y="66.159"/><use xlink:href="#s" x="291.465" y="66.159"/><use xlink:href="#v" x="295.126" y="66.159"/></g><path style="fill:none;stroke-width:.3985;stroke-linecap:butt;stroke-linejoin:miter;stroke:#000;stroke-opacity:1;stroke-miterlimit:10" d="m79.43 61.295 2.821 2.82m-2.82 0 2.82-2.82" transform="matrix(1 0 0 -1 149.081 102.518)"/><g style="fill:#000;fill-opacity:1"><use xlink:href="#p" x="204.292" y="35.736"/><use xlink:href="#q" x="207.953" y="35.736"/><use xlink:href="#r" x="211.615" y="35.736"/><use xlink:href="#x" x="215.276" y="35.736"/><use xlink:href="#H" x="218.937" y="35.736"/><use xlink:href="#y" x="222.598" y="35.736"/><use xlink:href="#s" x="226.26" y="35.736"/><use xlink:href="#I" x="229.921" y="35.736"/></g><g style="fill:#000;fill-opacity:1"><use xlink:href="#t" x="237.243" y="35.736"/><use xlink:href="#C" x="240.905" y="35.736"/><use xlink:href="#q" x="244.566" y="35.736"/><use xlink:href="#s" x="248.227" y="35.736"/><use xlink:href="#v" x="251.889" y="35.736"/></g><path style="fill:none;stroke-width:.3985;stroke-linecap:butt;stroke-linejoin:miter;stroke:#000;stroke-opacity:1;stroke-miterlimit:10" d="m49.009 91.721 2.82 2.817m-2.82 0 2.82-2.817" transform="matrix(1 0 0 -1 149.081 102.518)"/><g style="fill:#000;fill-opacity:1"><use xlink:href="#p" x="162.886" y="5.313"/><use xlink:href="#q" x="166.547" y="5.313"/><use xlink:href="#r" x="170.209" y="5.313"/><use xlink:href="#C" x="173.87" y="5.313"/><use xlink:href="#K" x="177.531" y="5.313"/><use xlink:href="#s" x="181.192" y="5.313"/><use xlink:href="#t" x="184.854" y="5.313"/><use xlink:href="#y" x="188.515" y="5.313"/></g><g style="fill:#000;fill-opacity:1"><use xlink:href="#x" x="195.837" y="5.313"/><use xlink:href="#H" x="199.499" y="5.313"/><use xlink:href="#y" x="203.16" y="5.313"/><use xlink:href="#s" x="206.821" y="5.313"/><use xlink:href="#I" x="210.483" y="5.313"/></g><g style="fill:#000;fill-opacity:1"><use xlink:href="#t" x="217.805" y="5.313"/><use xlink:href="#C" x="221.466" y="5.313"/><use xlink:href="#q" x="225.128" y="5.313"/><use xlink:href="#s" x="228.789" y="5.313"/><use xlink:href="#v" x="232.45" y="5.313"/></g><path style="fill:none;stroke-width:.3985;stroke-linecap:butt;stroke-linejoin:miter;stroke:#000;stroke-opacity:1;stroke-miterlimit:10" d="m-51.827 91.721 2.816 2.817m-2.816 0 2.816-2.817" transform="matrix(1 0 0 -1 149.081 102.518)"/><g style="fill:#000;fill-opacity:1"><use xlink:href="#p" x="60.22" y="5.313"/><use xlink:href="#q" x="63.881" y="5.313"/><use xlink:href="#r" x="67.543" y="5.313"/><use xlink:href="#B" x="71.204" y="5.313"/><use xlink:href="#t" x="74.865" y="5.313"/><use xlink:href="#K" x="78.526" y="5.313"/><use xlink:href="#H" x="82.188" y="5.313"/><use xlink:href="#y" x="85.849" y="5.313"/><use xlink:href="#t" x="89.51" y="5.313"/></g><g style="fill:#000;fill-opacity:1"><use xlink:href="#x" x="96.833" y="5.313"/><use xlink:href="#H" x="100.494" y="5.313"/><use xlink:href="#y" x="104.155" y="5.313"/><use xlink:href="#s" x="107.817" y="5.313"/><use xlink:href="#I" x="111.478" y="5.313"/></g><g style="fill:#000;fill-opacity:1"><use xlink:href="#D" x="118.8" y="5.313"/><use xlink:href="#t" x="122.462" y="5.313"/><use xlink:href="#q" x="126.123" y="5.313"/><use xlink:href="#s" x="129.784" y="5.313"/><use xlink:href="#v" x="133.445" y="5.313"/></g><path style="fill:none;stroke-width:.3985;stroke-linecap:butt;stroke-linejoin:miter;stroke:#000;stroke-opacity:1;stroke-miterlimit:10" d="m-82.249 61.295 2.816 2.82m-2.816 0 2.816-2.82" transform="matrix(1 0 0 -1 149.081 102.518)"/><g style="fill:#000;fill-opacity:1"><use xlink:href="#p" x="42.612" y="35.736"/><use xlink:href="#q" x="46.273" y="35.736"/><use xlink:href="#r" x="49.935" y="35.736"/><use xlink:href="#x" x="53.596" y="35.736"/><use xlink:href="#H" x="57.257" y="35.736"/><use xlink:href="#y" x="60.918" y="35.736"/><use xlink:href="#s" x="64.58" y="35.736"/><use xlink:href="#I" x="68.241" y="35.736"/></g><g style="fill:#000;fill-opacity:1"><use xlink:href="#D" x="75.563" y="35.736"/><use xlink:href="#t" x="79.225" y="35.736"/><use xlink:href="#q" x="82.886" y="35.736"/><use xlink:href="#s" x="86.547" y="35.736"/><use xlink:href="#v" x="90.209" y="35.736"/></g><path style="fill:none;stroke-width:.3985;stroke-linecap:butt;stroke-linejoin:miter;stroke:#000;stroke-opacity:1;stroke-miterlimit:10" d="m-112.675 30.873 2.82 2.817m-2.82 0 2.82-2.817" transform="matrix(1 0 0 -1 149.081 102.518)"/><g style="fill:#000;fill-opacity:1"><use xlink:href="#p" x="1.205" y="66.159"/><use xlink:href="#q" x="4.866" y="66.159"/><use xlink:href="#r" x="8.528" y="66.159"/><use xlink:href="#C" x="12.189" y="66.159"/><use xlink:href="#K" x="15.85" y="66.159"/><use xlink:href="#s" x="19.511" y="66.159"/><use xlink:href="#t" x="23.173" y="66.159"/><use xlink:href="#y" x="26.834" y="66.159"/></g><g style="fill:#000;fill-opacity:1"><use xlink:href="#x" x="34.156" y="66.159"/><use xlink:href="#H" x="37.818" y="66.159"/><use xlink:href="#y" x="41.479" y="66.159"/><use xlink:href="#s" x="45.14" y="66.159"/><use xlink:href="#I" x="48.802" y="66.159"/></g><g style="fill:#000;fill-opacity:1"><use xlink:href="#D" x="56.124" y="66.159"/><use xlink:href="#t" x="59.785" y="66.159"/><use xlink:href="#q" x="63.447" y="66.159"/><use xlink:href="#s" x="67.108" y="66.159"/><use xlink:href="#v" x="70.769" y="66.159"/></g><path style="fill:none;stroke-width:.3985;stroke-linecap:butt;stroke-linejoin:miter;stroke:#000;stroke-opacity:1;stroke-miterlimit:10" d="m-112.675-33.689 2.82 2.816m-2.82 0 2.82-2.816" transform="matrix(1 0 0 -1 149.081 102.518)"/><g style="fill:#000;fill-opacity:1"><use xlink:href="#p" x="-.625" y="143.145"/><use xlink:href="#q" x="3.036" y="143.145"/><use xlink:href="#r" x="6.698" y="143.145"/><use xlink:href="#B" x="10.359" y="143.145"/><use xlink:href="#t" x="14.02" y="143.145"/><use xlink:href="#K" x="17.681" y="143.145"/><use xlink:href="#H" x="21.343" y="143.145"/><use xlink:href="#y" x="25.004" y="143.145"/><use xlink:href="#t" x="28.665" y="143.145"/></g><g style="fill:#000;fill-opacity:1"><use xlink:href="#q" x="35.981" y="143.145"/><use xlink:href="#H" x="39.642" y="143.145"/><use xlink:href="#J" x="43.303" y="143.145"/><use xlink:href="#s" x="46.965" y="143.145"/><use xlink:href="#I" x="50.626" y="143.145"/></g><g style="fill:#000;fill-opacity:1"><use xlink:href="#D" x="57.948" y="143.145"/><use xlink:href="#t" x="61.61" y="143.145"/><use xlink:href="#q" x="65.271" y="143.145"/><use xlink:href="#s" x="68.932" y="143.145"/><use xlink:href="#v" x="72.593" y="143.145"/></g><path style="fill:none;stroke-width:.3985;stroke-linecap:butt;stroke-linejoin:miter;stroke:#000;stroke-opacity:1;stroke-miterlimit:10" d="m-82.249-64.115 2.816 2.82m-2.816 0 2.816-2.82" transform="matrix(1 0 0 -1 149.081 102.518)"/><g style="fill:#000;fill-opacity:1"><use xlink:href="#p" x="42.612" y="173.568"/><use xlink:href="#q" x="46.273" y="173.568"/><use xlink:href="#r" x="49.935" y="173.568"/><use xlink:href="#q" x="53.596" y="173.568"/><use xlink:href="#H" x="57.257" y="173.568"/><use xlink:href="#J" x="60.918" y="173.568"/><use xlink:href="#s" x="64.58" y="173.568"/><use xlink:href="#I" x="68.241" y="173.568"/></g><g style="fill:#000;fill-opacity:1"><use xlink:href="#D" x="75.563" y="173.568"/><use xlink:href="#t" x="79.225" y="173.568"/><use xlink:href="#q" x="82.886" y="173.568"/><use xlink:href="#s" x="86.547" y="173.568"/><use xlink:href="#v" x="90.209" y="173.568"/></g><path style="fill:none;stroke-width:.3985;stroke-linecap:butt;stroke-linejoin:miter;stroke:#000;stroke-opacity:1;stroke-miterlimit:10" d="m-51.827-94.537 2.816 2.817m-2.816 0 2.816-2.817" transform="matrix(1 0 0 -1 149.081 102.518)"/><g style="fill:#000;fill-opacity:1"><use xlink:href="#p" x="62.051" y="203.991"/><use xlink:href="#q" x="65.712" y="203.991"/><use xlink:href="#r" x="69.374" y="203.991"/><use xlink:href="#C" x="73.035" y="203.991"/><use xlink:href="#K" x="76.696" y="203.991"/><use xlink:href="#s" x="80.357" y="203.991"/><use xlink:href="#t" x="84.019" y="203.991"/><use xlink:href="#y" x="87.68" y="203.991"/></g><g style="fill:#000;fill-opacity:1"><use xlink:href="#q" x="94.995" y="203.991"/><use xlink:href="#H" x="98.657" y="203.991"/><use xlink:href="#J" x="102.318" y="203.991"/><use xlink:href="#s" x="105.979" y="203.991"/><use xlink:href="#I" x="109.641" y="203.991"/></g><g style="fill:#000;fill-opacity:1"><use xlink:href="#D" x="116.963" y="203.991"/><use xlink:href="#t" x="120.624" y="203.991"/><use xlink:href="#q" x="124.286" y="203.991"/><use xlink:href="#s" x="127.947" y="203.991"/><use xlink:href="#v" x="131.608" y="203.991"/></g><path style="fill:none;stroke-width:.3985;stroke-linecap:butt;stroke-linejoin:miter;stroke:#000;stroke-opacity:1;stroke-miterlimit:10" d="m49.009-94.537 2.82 2.817m-2.82 0 2.82-2.817" transform="matrix(1 0 0 -1 149.081 102.518)"/><g style="fill:#000;fill-opacity:1"><use xlink:href="#p" x="161.055" y="203.991"/><use xlink:href="#q" x="164.716" y="203.991"/><use xlink:href="#r" x="168.378" y="203.991"/><use xlink:href="#B" x="172.039" y="203.991"/><use xlink:href="#t" x="175.7" y="203.991"/><use xlink:href="#K" x="179.361" y="203.991"/><use xlink:href="#H" x="183.023" y="203.991"/><use xlink:href="#y" x="186.684" y="203.991"/><use xlink:href="#t" x="190.345" y="203.991"/></g><g style="fill:#000;fill-opacity:1"><use xlink:href="#q" x="197.668" y="203.991"/><use xlink:href="#H" x="201.329" y="203.991"/><use xlink:href="#J" x="204.99" y="203.991"/><use xlink:href="#s" x="208.652" y="203.991"/><use xlink:href="#I" x="212.313" y="203.991"/></g><g style="fill:#000;fill-opacity:1"><use xlink:href="#t" x="219.635" y="203.991"/><use xlink:href="#C" x="223.297" y="203.991"/><use xlink:href="#q" x="226.958" y="203.991"/><use xlink:href="#s" x="230.619" y="203.991"/><use xlink:href="#v" x="234.28" y="203.991"/></g><path style="fill:none;stroke-width:.3985;stroke-linecap:butt;stroke-linejoin:miter;stroke:#000;stroke-opacity:1;stroke-miterlimit:10" d="m79.43-64.115 2.821 2.82m-2.82 0 2.82-2.82" transform="matrix(1 0 0 -1 149.081 102.518)"/><g style="fill:#000;fill-opacity:1"><use xlink:href="#p" x="204.292" y="173.568"/><use xlink:href="#q" x="207.953" y="173.568"/><use xlink:href="#r" x="211.615" y="173.568"/><use xlink:href="#q" x="215.276" y="173.568"/><use xlink:href="#H" x="218.937" y="173.568"/><use xlink:href="#J" x="222.598" y="173.568"/><use xlink:href="#s" x="226.26" y="173.568"/><use xlink:href="#I" x="229.921" y="173.568"/></g><g style="fill:#000;fill-opacity:1"><use xlink:href="#t" x="237.243" y="173.568"/><use xlink:href="#C" x="240.905" y="173.568"/><use xlink:href="#q" x="244.566" y="173.568"/><use xlink:href="#s" x="248.227" y="173.568"/><use xlink:href="#v" x="251.889" y="173.568"/></g><path style="fill:none;stroke-width:.3985;stroke-linecap:butt;stroke-linejoin:miter;stroke:#000;stroke-opacity:1;stroke-miterlimit:10" d="m109.856-33.689 2.817 2.816m-2.817 0 2.817-2.816" transform="matrix(1 0 0 -1 149.081 102.518)"/><g style="fill:#000;fill-opacity:1"><use xlink:href="#p" x="223.731" y="143.145"/><use xlink:href="#q" x="227.392" y="143.145"/><use xlink:href="#r" x="231.054" y="143.145"/><use xlink:href="#C" x="234.715" y="143.145"/><use xlink:href="#K" x="238.376" y="143.145"/><use xlink:href="#s" x="242.037" y="143.145"/><use xlink:href="#t" x="245.699" y="143.145"/><use xlink:href="#y" x="249.36" y="143.145"/></g><g style="fill:#000;fill-opacity:1"><use xlink:href="#q" x="256.682" y="143.145"/><use xlink:href="#H" x="260.344" y="143.145"/><use xlink:href="#J" x="264.005" y="143.145"/><use xlink:href="#s" x="267.666" y="143.145"/><use xlink:href="#I" x="271.328" y="143.145"/></g><g style="fill:#000;fill-opacity:1"><use xlink:href="#t" x="278.65" y="143.145"/><use xlink:href="#C" x="282.311" y="143.145"/><use xlink:href="#q" x="285.973" y="143.145"/><use xlink:href="#s" x="289.634" y="143.145"/><use xlink:href="#v" x="293.295" y="143.145"/></g></svg>