<svg xmlns="http://www.w3.org/2000/svg" width="29.269" height="8.787" viewBox="0 0 21.952 6.59" version="1.2"><defs><clipPath id="a"><path d="M11 0h10.93v6.387H11Zm0 0"/></clipPath><clipPath id="b"><path d="M13 0h8.93v6.387H13Zm0 0"/></clipPath></defs><path style="fill:none;stroke-width:.3985;stroke-linecap:butt;stroke-linejoin:miter;stroke:#000;stroke-opacity:1;stroke-miterlimit:10" d="M0 2.213h19.726" transform="matrix(1 0 0 -1 .985 5.307)"/><g clip-path="url(#a)"><path style="fill:none;stroke-width:.3985;stroke-linecap:butt;stroke-linejoin:miter;stroke:#000;stroke-opacity:1;stroke-miterlimit:10" d="M1.218 2.11a2.439 2.439 0 0 0 0-4.218" transform="matrix(1 0 0 -1 15.762 3.095)"/></g><g clip-path="url(#b)"><path style="fill:none;stroke-width:.3985;stroke-linecap:butt;stroke-linejoin:miter;stroke:#000;stroke-opacity:1;stroke-miterlimit:10" d="M1.217 2.11a2.437 2.437 0 0 0 .894-3.327 2.416 2.416 0 0 0-.894-.89" transform="matrix(1 0 0 -1 18.275 3.095)"/></g></svg>