<svg xmlns="http://www.w3.org/2000/svg" width="40.517" height="11.595" viewBox="0 0 30.388 8.696" version="1.2"><defs><clipPath id="a"><path d="M6 0h24.082v8.543H6Zm0 0"/></clipPath></defs><path style="fill:none;stroke-width:4.98138;stroke-linecap:butt;stroke-linejoin:miter;stroke:#000;stroke-opacity:1;stroke-miterlimit:10" d="M0 0H19.88" transform="matrix(1 0 0 -1 .703 4.192)"/><path style="fill:none;stroke-width:2.98883;stroke-linecap:butt;stroke-linejoin:miter;stroke:#fff;stroke-opacity:1;stroke-miterlimit:10" d="M0 0H19.88" transform="matrix(1 0 0 -1 .703 4.192)"/><path style="stroke:none;fill-rule:nonzero;fill:#000;fill-opacity:1" d="M26.996 4.191c-.789-.195-4.25-1.296-6.414-2.496v4.993c2.164-1.2 5.625-2.301 6.414-2.497Zm0 0"/><g clip-path="url(#a)"><path style="fill:none;stroke-width:.99628;stroke-linecap:butt;stroke-linejoin:miter;stroke:#000;stroke-opacity:1;stroke-miterlimit:10" d="M6.415 0C5.625.197 2.165 1.298 0 2.498v-4.992C2.165-1.296 5.626-.195 6.415 0Zm0 0" transform="matrix(1 0 0 -1 20.581 4.192)"/></g></svg>