<svg xmlns="http://www.w3.org/2000/svg" xmlns:xlink="http://www.w3.org/1999/xlink" width="91.348" height="53.523" viewBox="0 0 68.511 40.142" version="1.2"><defs><symbol overflow="visible" id="a"><path style="stroke:none" d="M5.984-2.219c0-1.328-.937-2.265-2.39-2.265-.719 0-1.219.28-1.453.484v-2.922l-1.766.078v.469c.61 0 .688 0 .688.39V0h.468c.157-.188.328-.375.485-.563.078.079.562.625 1.453.625 1.484 0 2.515-.906 2.515-2.28Zm-1.28 0c0 .469 0 1.016-.25 1.406-.298.407-.75.516-1.079.516-.688 0-1.078-.547-1.188-.687v-2.5c.282-.36.75-.641 1.297-.641 1.22 0 1.22 1.203 1.22 1.906Zm0 0"/></symbol><symbol overflow="visible" id="d"><path style="stroke:none" d="M4.766-1.172c0-.14-.141-.14-.235-.14-.187 0-.187.03-.25.156-.25.625-.734.812-1.234.812-1.39 0-1.39-1.453-1.39-1.922 0-.562 0-1.843 1.28-1.843.36 0 .516.015.657.046a.618.618 0 0 0-.203.47c0 .437.343.624.609.624.313 0 .64-.219.64-.625 0-.86-1.156-.922-1.734-.922C1.11-4.516.375-3.375.375-2.219.375-.89 1.313.062 2.844.062c1.625 0 1.922-1.156 1.922-1.234Zm0 0"/></symbol><symbol overflow="visible" id="e"><path style="stroke:none" d="M5.984 0v-.469c-.609 0-.687 0-.687-.39v-6.063l-1.766.078v.469c.625 0 .703 0 .703.39v1.954a2.178 2.178 0 0 0-1.359-.453c-1.453 0-2.5.875-2.5 2.28 0 1.313.922 2.267 2.39 2.267.61 0 1.094-.235 1.407-.485v.484ZM4.172-1.031c-.14.187-.547.734-1.297.734-1.219 0-1.219-1.203-1.219-1.906 0-.485 0-1.016.25-1.406.297-.422.766-.516 1.078-.516.563 0 .97.313 1.188.61Zm0 0"/></symbol><clipPath id="b"><path d="M52 0h16.266v16H52Zm0 0"/></clipPath><clipPath id="c"><path d="M52 23h16.266v16.715H52Zm0 0"/></clipPath></defs><path style="fill:none;stroke-width:.3985;stroke-linecap:butt;stroke-linejoin:miter;stroke:#000;stroke-opacity:1;stroke-miterlimit:10" d="M4.695.001A4.695 4.695 0 0 1-.001 4.697a4.698 4.698 0 0 1 0-9.395 4.698 4.698 0 0 1 4.696 4.7ZM33.042.001a4.695 4.695 0 0 1-4.695 4.696 4.698 4.698 0 0 1 0-9.395 4.698 4.698 0 0 1 4.695 4.7ZM4.894.001h18.16" transform="matrix(1 0 0 -1 5.668 5.47)"/><path style="fill:none;stroke-width:.3985;stroke-linecap:round;stroke-linejoin:round;stroke:#000;stroke-opacity:1;stroke-miterlimit:10" d="M-2.073 2.392C-1.693.958-.85.279.001.002-.85-.28-1.694-.957-2.073-2.39" transform="matrix(1 0 0 -1 28.92 5.47)"/><use xlink:href="#a" x="16.66" y="8.898" style="fill:#000;fill-opacity:1"/><g clip-path="url(#b)"><path style="fill:none;stroke-width:.3985;stroke-linecap:butt;stroke-linejoin:miter;stroke:#000;stroke-opacity:1;stroke-miterlimit:10" d="M61.39.001a4.698 4.698 0 1 1-9.393-.005 4.698 4.698 0 0 1 9.393.005Zm0 0" transform="matrix(1 0 0 -1 5.668 5.47)"/></g><g clip-path="url(#c)"><path style="fill:none;stroke-width:.3985;stroke-linecap:butt;stroke-linejoin:miter;stroke:#000;stroke-opacity:1;stroke-miterlimit:10" d="M61.39-28.346a4.698 4.698 0 0 1-9.395 0 4.698 4.698 0 0 1 9.395 0Zm0 0" transform="matrix(1 0 0 -1 5.668 5.47)"/></g><path style="fill:none;stroke-width:.3985;stroke-linecap:butt;stroke-linejoin:miter;stroke:#000;stroke-opacity:1;stroke-miterlimit:10" d="M33.242.001h18.156" transform="matrix(1 0 0 -1 5.668 5.47)"/><path style="fill:none;stroke-width:.3985;stroke-linecap:round;stroke-linejoin:round;stroke:#000;stroke-opacity:1;stroke-miterlimit:10" d="M-2.072 2.392C-1.693.958-.849.279-.002.002-.849-.28-1.693-.957-2.072-2.39" transform="matrix(1 0 0 -1 57.267 5.47)"/><use xlink:href="#d" x="45.644" y="7.697" style="fill:#000;fill-opacity:1"/><path style="fill:none;stroke-width:.3985;stroke-linecap:butt;stroke-linejoin:miter;stroke:#000;stroke-opacity:1;stroke-miterlimit:10" d="m31.808-3.464 21.14-21.14" transform="matrix(1 0 0 -1 5.668 5.47)"/><path style="fill:none;stroke-width:.3985;stroke-linecap:round;stroke-linejoin:round;stroke:#000;stroke-opacity:1;stroke-miterlimit:10" d="M-2.072 2.39C-1.694.957-.852.28-.001-.002-.85-.278-1.694-.955-2.07-2.39" transform="scale(1 -1) rotate(-45 -7.092 -86.037)"/><use xlink:href="#e" x="45.005" y="23.071" style="fill:#000;fill-opacity:1"/></svg>