<svg xmlns="http://www.w3.org/2000/svg" xmlns:xlink="http://www.w3.org/1999/xlink" width="69.459" height="84.123" viewBox="0 0 52.094 63.092" version="1.2"><defs><symbol overflow="visible" id="b"><path style="stroke:none" d="m1.625 9.188.469-.079-.125-.671L4.5 7.984c1.016-.171 1.328-.765 1.156-1.78a1.852 1.852 0 0 0-1.234-1.485c.875-.344.75-1.266.687-1.64-.156-.86-.703-1.329-1.375-1.548l1.063-.187-.375-1.657-.469.079c.11.593.125.671-.25.75l-3.031.53L.547.376.078.453l.25 1.219.188 1.234.468-.078-.125-.672 2.047-.36A1.525 1.525 0 0 1 4.72 2.985c.047.329-.11.579-.86.72l-2.64.468-.125-.688-.469.079.25 1.25.188 1.234.468-.078-.11-.672 2.048-.36C4.53 4.75 5.156 5.5 5.266 6.11c.062.344-.11.594-.86.735l-2.64.468-.11-.687-.468.078.25 1.234Zm0 0"/></symbol><symbol overflow="visible" id="c"><path style="stroke:none" d="M1.188 5.39c.234-.03.218-.156.187-.296-.078-.61.031-.64.266-.672l2.109-.375c.875-.156 1.39-.953 1.125-2.406-.094-.563-.36-1.766-1.219-1.61a.609.609 0 0 0-.515.719c.062.297.328.578.734.5.281-.047.422-.266.453-.297.094.266.172.594.188.703.125.735-.235 1.157-.97 1.297l-.343.063C3.047 2.296 2.531-.172 1.11.078.172.25.203 1.5.313 2.172c.14.781.625 1.172 1.078 1.297-.297.062-.75.14-.579 1.172l.094.468c.031.204.047.329.281.282Zm.796-2.156C1.031 3.391.75 2.5.704 2.266c-.095-.516.171-.954.624-1.032 1.047-.187 1.469 1.329 1.578 1.829Zm0 0"/></symbol><symbol overflow="visible" id="d"><path style="stroke:none" d="m.5 2.797.469-.078-.11-.594 3.954-.703-.375-1.688-.47.079c.095.578.11.64-.265.718l-3.031.531L.547.391.078.469l.25 1.187Zm5.86-1.5A.786.786 0 0 0 7 .375a.783.783 0 0 0-.906-.625c-.407.063-.688.484-.61.89.079.438.47.72.875.657Zm0 0"/></symbol><symbol overflow="visible" id="e"><path style="stroke:none" d="m1.063 6.031.468-.078-.125-.672 2.532-.453c1.03-.172 1.343-.781 1.156-1.766-.157-.937-.813-1.359-1.36-1.53l1.063-.188-.375-1.657-.469.079c.11.593.125.671-.25.75l-3.031.53L.547.376.078.453l.25 1.219.188 1.234.468-.078-.125-.672 2.047-.36C3.97 1.61 4.61 2.36 4.72 2.985c.047.329-.11.579-.86.72l-2.64.468-.125-.688-.469.079.25 1.234Zm0 0"/></symbol><symbol overflow="visible" id="f"><path style="stroke:none" d="M3.078 4.953c1.328-.234 2.156-1.312 1.875-2.922C4.672.421 3.5-.297 2.187-.063.97.158.142 1.204.438 2.829.72 4.484 1.875 5.156 3.079 4.953Zm-.11-1.281c-.843.14-1.905.328-2.124-.922-.219-1.25.844-1.438 1.687-1.578.438-.078.938-.172 1.313-.063.39.125.656.516.75.985.062.422-.016.86-.313 1.125s-.843.36-1.312.453Zm0 0"/></symbol><symbol overflow="visible" id="g"><path style="stroke:none" d="m1.047 5.89.469-.077c-.11-.594-.125-.672.25-.75l5.968-1.047-.39-1.72-.453.079c.109.61.125.688-.266.75l-1.922.344a2.078 2.078 0 0 0 .219-1.422C4.672.625 3.609-.25 2.234 0 .938.219.156 1.297.422 2.734c.11.61.422 1.032.719 1.297l-.485.094Zm.687-1.952c-.203-.11-.812-.422-.937-1.157-.219-1.203.969-1.422 1.656-1.531.469-.094 1-.188 1.422 0 .469.219.656.656.703.969a1.504 1.504 0 0 1-.39 1.281Zm0 0"/></symbol><symbol overflow="visible" id="h"><path style="stroke:none" d="M2.016 4.64c.171-.03.14-.218.125-.265-.032-.156-.079-.156-.25-.203-.516-.11-.907-.64-1.016-1.266-.25-1.39 1.047-1.64 1.547-1.719l.515 2.985c.047.203.063.297.329.25.296-.063 1.015-.25 1.406-.813.297-.421.39-.968.266-1.656C4.655.391 3.484-.297 2.265-.078.937.156.172 1.312.437 2.89.72 4.453 1.845 4.67 2.016 4.64Zm1.14-1.156L2.75 1.125c.375-.047.797-.11 1.14.047.438.187.641.578.688.844.203 1.156-1.094 1.39-1.422 1.468Zm0 0"/></symbol><symbol overflow="visible" id="i"><path style="stroke:none" d="M2.922 0v-.469h-.688v-6.453L.47-6.844v.469c.625 0 .687 0 .687.39v5.516H.47V0l1.219-.031Zm0 0"/></symbol><symbol overflow="visible" id="j"><path style="stroke:none" d="M5.516-.234c0-.235-.125-.235-.266-.235-.61-.015-.61-.14-.61-.375v-2.14c0-.891-.702-1.532-2.187-1.532-.562 0-1.781.047-1.781.922 0 .438.344.625.61.625.312 0 .624-.219.624-.625 0-.297-.187-.469-.218-.5a5.28 5.28 0 0 1 .718-.062c.75 0 1.11.422 1.11 1.172v.343c-.72.032-3.25.125-3.25 1.563C.266-.125 1.5.062 2.187.062c.797 0 1.266-.406 1.485-.828 0 .313 0 .766 1.047.766h.468c.204 0 .329 0 .329-.234Zm-2-1.157c0 .97-.922 1.094-1.172 1.094-.516 0-.906-.344-.906-.797 0-1.062 1.578-1.203 2.078-1.234Zm0 0"/></symbol><symbol overflow="visible" id="k"><path style="stroke:none" d="M5.984-2.219c0-1.328-.937-2.265-2.39-2.265-.719 0-1.219.28-1.453.484v-2.922l-1.766.078v.469c.61 0 .688 0 .688.39V0h.468c.157-.188.328-.375.485-.563.078.079.562.625 1.453.625 1.484 0 2.515-.906 2.515-2.28Zm-1.28 0c0 .469 0 1.016-.25 1.406-.298.407-.75.516-1.079.516-.688 0-1.078-.547-1.188-.687v-2.5c.282-.36.75-.641 1.297-.641 1.22 0 1.22 1.203 1.22 1.906Zm0 0"/></symbol><symbol overflow="visible" id="l"><path style="stroke:none" d="M4.922-1.172c0-.172-.188-.172-.234-.172-.172 0-.188.047-.25.203-.204.485-.782.797-1.422.797-1.407 0-1.422-1.328-1.422-1.828h3.015c.22 0 .313 0 .313-.265 0-.313-.063-1.047-.563-1.547-.359-.36-.89-.532-1.578-.532C1.187-4.516.312-3.484.312-2.25c0 1.344 1 2.313 2.61 2.313 1.578 0 2-1.063 2-1.235ZM3.984-2.5h-2.39c.015-.39.031-.813.234-1.14.266-.391.672-.516.953-.516 1.172 0 1.188 1.312 1.203 1.656Zm0 0"/></symbol><clipPath id="a"><path d="M0 0h31v62.637H0Zm0 0"/></clipPath></defs><g clip-path="url(#a)"><path style="fill:none;stroke-width:.3985;stroke-linecap:butt;stroke-linejoin:miter;stroke:#000;stroke-opacity:1;stroke-miterlimit:10" d="M11.84-27.941 1.57 30.305l-13.41-2.364 10.27-58.246Zm0 0" transform="matrix(1 0 0 -1 12.621 31.086)"/></g><g style="fill:#000;fill-opacity:1"><use xlink:href="#b" x="4.688" y="5.829"/><use xlink:href="#c" x="6.345" y="15.228"/><use xlink:href="#d" x="7.312" y="20.713"/><use xlink:href="#e" x="7.864" y="23.843"/></g><g style="fill:#000;fill-opacity:1"><use xlink:href="#e" x="9.632" y="33.87"/><use xlink:href="#f" x="10.738" y="40.139"/></g><g style="fill:#000;fill-opacity:1"><use xlink:href="#g" x="11.788" y="46.095"/><use xlink:href="#h" x="12.893" y="52.365"/></g><path style="fill:none;stroke-width:.3985;stroke-linecap:butt;stroke-linejoin:miter;stroke:red;stroke-opacity:1;stroke-miterlimit:10" d="M7.32-6.832h30.5V6.781H7.32Zm0 0" transform="matrix(1 0 0 -1 12.621 31.086)"/><g style="fill:red;fill-opacity:1"><use xlink:href="#i" x="23.26" y="34.538"/><use xlink:href="#j" x="26.438" y="34.538"/><use xlink:href="#k" x="32.007" y="34.538"/></g><g style="fill:red;fill-opacity:1"><use xlink:href="#l" x="38.692" y="34.538"/><use xlink:href="#i" x="43.942" y="34.538"/></g></svg>