<svg xmlns="http://www.w3.org/2000/svg" xmlns:xlink="http://www.w3.org/1999/xlink" width="274.491" height="161.307" viewBox="0 0 205.868 120.98" version="1.2"><defs><symbol overflow="visible" id="b"><path style="stroke:none" d="M5.563-1.813c.14 0 .312 0 .312-.171 0-.188-.172-.188-.313-.188H1c-.125 0-.297 0-.297.188 0 .171.172.171.297.171Zm0 0"/></symbol><symbol overflow="visible" id="c"><path style="stroke:none" d="M2.5-5.078c0-.219-.016-.219-.234-.219-.329.313-.75.5-1.5.5v.266c.218 0 .64 0 1.109-.203v4.078c0 .297-.031.39-.781.39H.812V0c.329-.031 1.016-.031 1.375-.031.36 0 1.047 0 1.376.031v-.266H3.28c-.75 0-.781-.093-.781-.39Zm0 0"/></symbol><symbol overflow="visible" id="d"><path style="stroke:none" d="M3.89-2.547c0-.844-.078-1.36-.343-1.875-.344-.703-1-.875-1.438-.875-1 0-1.375.75-1.484.969C.344-3.75.328-2.953.328-2.547c0 .531.016 1.328.406 1.969.36.594.954.75 1.375.75.391 0 1.063-.125 1.47-.906.296-.579.312-1.297.312-1.813ZM2.11-.062c-.266 0-.813-.126-.985-.954-.094-.453-.094-1.203-.094-1.625 0-.546 0-1.109.094-1.546.172-.813.781-.891.984-.891.266 0 .829.14.985.86.094.437.094 1.046.094 1.577 0 .47 0 1.188-.094 1.641-.172.828-.719.938-.985.938Zm0 0"/></symbol><symbol overflow="visible" id="f"><path style="stroke:none" d="M1.11-4.484c.109.03.421.125.765.125 1 0 1.594-.704 1.594-.829 0-.093-.047-.109-.094-.109-.016 0-.031 0-.094.031a2.982 2.982 0 0 1-1.11.22c-.468 0-.858-.11-1.108-.22-.079-.03-.094-.03-.11-.03-.094 0-.094.077-.094.234v2.328c0 .14 0 .234.125.234.063 0 .079-.031.125-.094.094-.11.391-.515 1.079-.515.437 0 .656.359.734.515.125.281.14.656.14.953 0 .297 0 .735-.218 1.079-.156.25-.485.484-.906.484A1.271 1.271 0 0 1 .734-.922c.016.016.079.016.079.016.218 0 .406-.14.406-.39a.388.388 0 0 0-.39-.407c-.157 0-.407.078-.407.422 0 .718.625 1.453 1.531 1.453 1 0 1.844-.781 1.844-1.766 0-.922-.672-1.75-1.61-1.75-.39 0-.765.125-1.078.406Zm0 0"/></symbol><symbol overflow="visible" id="h"><path style="stroke:none" d="M3.125-2.344c0 1.938-.922 2.266-1.39 2.266-.173 0-.579-.016-.798-.266.36-.031.375-.297.375-.375a.37.37 0 0 0-.375-.375.37.37 0 0 0-.375.39c0 .548.454.876 1.188.876 1.094 0 2.125-1.094 2.125-2.797 0-2.063-.922-2.672-1.734-2.672-.954 0-1.797.734-1.797 1.781 0 1.016.781 1.766 1.687 1.766.563 0 .906-.36 1.094-.766Zm-1.063.375c-.374 0-.609-.172-.78-.468-.188-.282-.188-.672-.188-1.079 0-.468 0-.796.218-1.125.204-.296.454-.453.829-.453.53 0 .765.532.796.563.157.39.172 1.015.172 1.172 0 .64-.343 1.39-1.046 1.39Zm0 0"/></symbol><symbol overflow="visible" id="i"><path style="stroke:none" d="M2.64-2.875c.454-.219 1-.61 1-1.234 0-.766-.78-1.188-1.515-1.188-.844 0-1.531.578-1.531 1.328 0 .297.094.563.297.797.14.172.171.188.656.5C.563-2.234.344-1.656.344-1.219c0 .89.89 1.39 1.765 1.39.97 0 1.766-.671 1.766-1.515 0-.5-.266-.828-.406-.968-.125-.126-.14-.141-.828-.563Zm-1.234-.75c-.234-.14-.422-.375-.422-.64 0-.5.547-.829 1.125-.829.61 0 1.125.422 1.125.985 0 .453-.359.843-.828 1.078Zm.39 1.094c.032.015.938.578 1.079.656.125.078.547.328.547.813 0 .609-.656.984-1.297.984-.719 0-1.313-.484-1.313-1.14 0-.595.438-1.063.985-1.313Zm0 0"/></symbol><symbol overflow="visible" id="j"><path style="stroke:none" d="M4.031-4.86c.078-.077.078-.093.078-.265H2.08a8.79 8.79 0 0 1-.642-.031c-.421-.032-.421-.11-.453-.235h-.25L.47-3.703h.25c.015-.125.11-.672.219-.735.078-.046.687-.046.796-.046h1.688l-.813 1.109C1.703-2.172 1.5-.906 1.5-.281c0 .078 0 .453.375.453s.375-.36.375-.453v-.39c0-1.141.203-2.079.594-2.61Zm0 0"/></symbol><symbol overflow="visible" id="k"><path style="stroke:none" d="M2.25-1.625c.125-.125.453-.39.594-.5.484-.453.953-.89.953-1.61 0-.953-.797-1.562-1.781-1.562-.97 0-1.594.719-1.594 1.438 0 .39.312.437.422.437.172 0 .422-.11.422-.422 0-.406-.407-.406-.5-.406.234-.594.765-.781 1.156-.781.734 0 1.125.625 1.125 1.297 0 .828-.578 1.437-1.531 2.39l-1 1.047C.422-.219.422-.203.422 0h3.14l.235-1.422h-.25c-.016.156-.078.547-.172.703-.047.063-.656.063-.781.063H1.172Zm0 0"/></symbol><symbol overflow="visible" id="e"><path style="stroke:none" d="M3.266-1.5c0-.75-.61-1.36-1.36-1.36-.734 0-1.343.61-1.343 1.36 0 .766.609 1.36 1.343 1.36.75 0 1.36-.594 1.36-1.36ZM1.906-.453A1.024 1.024 0 0 1 .875-1.5c0-.578.453-1.047 1.031-1.047.578 0 1.047.469 1.047 1.047 0 .594-.469 1.047-1.047 1.047Zm0 0"/></symbol><symbol overflow="visible" id="g"><path style="stroke:none" d="M1.625-.438a.463.463 0 0 0-.453-.453.447.447 0 0 0-.438.438.44.44 0 0 0 .438.453.45.45 0 0 0 .453-.438Zm0 0"/></symbol><symbol overflow="visible" id="l"><path style="stroke:none" d="M5.516 0v-.438c-.532 0-.61 0-.61-.359v-5.422l-1.61.063v.437c.548 0 .61 0 .61.36v1.734a1.994 1.994 0 0 0-1.25-.406c-1.453 0-2.312.89-2.312 2.047 0 1.187.844 2.03 2.219 2.03.562 0 1-.202 1.296-.437v.438ZM3.859-.984a1.427 1.427 0 0 1-1.203.671c-1.11 0-1.11-1.062-1.11-1.656 0-.531 0-.906.235-1.234.235-.36.672-.469.985-.469.437 0 .812.188 1.093.547Zm0 0"/></symbol><symbol overflow="visible" id="m"><path style="stroke:none" d="M4.563-1.047c0-.172-.172-.172-.235-.172-.156 0-.172.047-.234.172-.203.469-.75.719-1.313.719-1.281 0-1.297-1.156-1.297-1.594h2.782c.187 0 .296 0 .296-.25 0-.203-.015-1-.593-1.484-.406-.328-.953-.406-1.39-.406-1.532 0-2.282.968-2.282 2.046 0 1.172.89 2.063 2.406 2.063 1.485 0 1.86-.938 1.86-1.094ZM3.688-2.25H1.483c.016-.406.063-1.453 1.094-1.453 1.047 0 1.094 1.094 1.11 1.453Zm0 0"/></symbol><symbol overflow="visible" id="n"><path style="stroke:none" d="M5.156-3.547c0-.234-.172-.547-.593-.547-.438 0-.813.219-.985.344-.375-.219-.781-.281-1.219-.281-1.375 0-1.843.734-1.843 1.328 0 .484.312.812.468.937a1.249 1.249 0 0 0-.296.782c0 .39.187.703.375.875C.39.078.296.453.296.656c0 .531.625 1.14 2.344 1.14C4.219 1.797 5 1.313 5 .626c0-.313-.11-.86-.734-1.156C3.75-.766 3.28-.766 2.39-.766h-.454c-.28 0-.406 0-.562-.109a.563.563 0 0 1-.203-.453c0-.172.062-.281.062-.281.329.171.735.234 1.125.234 1.375 0 1.844-.734 1.844-1.328 0-.36-.172-.656-.36-.844.235-.125.423-.14.532-.172 0 .047-.031.094-.031.188a.407.407 0 1 0 .813-.016Zm-1.984.844c0 .39 0 .969-.813.969-.812 0-.812-.579-.812-.97 0-.405 0-.968.812-.968.813 0 .813.563.813.969ZM4.203.657c0 .296-.328.78-1.547.78C1.47 1.438 1.094 1 1.094.641c0-.516.578-.516.703-.516H2.89c.28 0 1.312 0 1.312.531Zm0 0"/></symbol><symbol overflow="visible" id="o"><path style="stroke:none" d="M4.078-3.281c0-.453-.469-.75-1-.75-.625 0-1 .453-1.203.968h-.016v-.968L.375-3.97v.438c.531 0 .61 0 .61.36v2.733h-.61V0l1.14-.031c.22 0 .75 0 1.22.031v-.438h-.766v-1.515c0-.656.25-1.703 1.11-1.719a.571.571 0 0 0-.142.39c0 .391.313.579.563.579.297 0 .578-.203.578-.578Zm0 0"/></symbol><symbol overflow="visible" id="p"><path style="stroke:none" d="M4.703-5.922c.031-.125.031-.14.031-.172 0-.078-.046-.125-.14-.125-.125 0-.907.063-1.094.078-.078.016-.188.032-.188.172 0 .125.11.125.25.125.422 0 .422.063.422.14 0 .063-.078.376-.125.563l-.171.688c-.094.344-.188.687-.266 1.047-.172-.328-.438-.563-.844-.563-1.047 0-2.203 1.25-2.203 2.61C.375-.375 1 .094 1.609.094c.579 0 1.047-.485 1.204-.656.093.5.546.656.828.656.265 0 .484-.11.687-.485.156-.296.281-.859.281-.89 0-.047-.03-.11-.109-.11-.11 0-.125.047-.156.22-.203.78-.39 1.046-.672 1.046-.235 0-.281-.219-.281-.406 0-.125.046-.375.046-.406Zm-1.86 4.844c-.03.14-.046.156-.187.328-.328.39-.687.625-1.031.625-.438 0-.578-.453-.578-.844 0-.437.25-1.469.469-1.906.28-.531.703-.86 1.062-.86.594 0 .735.72.735.766 0 .047-.016.094-.032.14Zm0 0"/></symbol><symbol overflow="visible" id="q"><path style="stroke:none" d="M3.266-3.531c-.188.047-.375.172-.375.422a.42.42 0 0 0 .421.421c.235 0 .422-.156.422-.437 0-.547-.625-.89-1.421-.89-1.141 0-2 .952-2 2.077C.313-.78 1.234.095 2.296.095c1.25 0 1.531-1.078 1.531-1.157 0-.109-.094-.109-.125-.109-.094 0-.094.016-.156.172-.203.61-.703.844-1.156.844-.579 0-1.313-.469-1.313-1.797 0-1.39.719-1.813 1.25-1.813.125 0 .61.016.938.235Zm0 0"/></symbol><symbol overflow="visible" id="r"><path style="stroke:none" d="M4.344-1.906c0-1.172-.938-2.11-2.032-2.11-1.14 0-2.046.954-2.046 2.11 0 1.11.921 2 2.03 2 1.142 0 2.048-.906 2.048-2ZM2.312-.156c-.453 0-.828-.219-1.03-.563-.235-.39-.25-.86-.25-1.265 0-.344 0-.844.218-1.22a1.222 1.222 0 0 1 1.047-.593c.515 0 .875.297 1.062.594.204.375.204.828.204 1.219 0 .328 0 .843-.22 1.234a1.18 1.18 0 0 1-1.03.594Zm0 0"/></symbol><symbol overflow="visible" id="s"><path style="stroke:none" d="M3.078-3.781c0-.156 0-.235-.094-.235-.046 0-.062 0-.187.11-.016.015-.094.094-.156.14-.266-.203-.547-.25-.86-.25-1.187 0-1.468.657-1.468 1.11 0 .281.124.515.328.719.296.28.64.343 1.093.421.47.094.61.11.813.266.094.078.312.25.312.578 0 .797-.906.797-1.03.797-.907 0-1.141-.766-1.25-1.25-.032-.094-.048-.14-.141-.14-.126 0-.126.077-.126.234v1.14c0 .157 0 .235.094.235.063 0 .063 0 .235-.172a1.18 1.18 0 0 1 .171-.219c.375.375.797.39 1.016.39 1.11 0 1.484-.64 1.484-1.234 0-.406-.171-.656-.374-.859-.297-.297-.626-.36-1.282-.484-.234-.047-.89-.157-.89-.672 0-.281.203-.672 1.015-.672.969 0 1.032.75 1.047.969.016.109.016.171.125.171.125 0 .125-.062.125-.234Zm0 0"/></symbol><clipPath id="a"><path d="M48 0h157.8v100H48Zm0 0"/></clipPath></defs><path style="fill:none;stroke-width:.3985;stroke-linecap:round;stroke-linejoin:miter;stroke:gray;stroke-opacity:1;stroke-miterlimit:10" d="M.002-6.974v1.992M35.435-6.974v1.992M70.87-6.974v1.992M106.303-6.974v1.992M141.736-6.974v1.992M-6.975 1.154h1.992M-6.975 15.56h1.992M-6.975 29.967h1.992M-6.975 44.373h1.992M-6.975 58.78h1.992M-6.975 73.186h1.992M-6.975 87.592h1.992" transform="matrix(1 0 0 -1 57.045 91.299)"/><path style="fill:none;stroke-width:.3985;stroke-linecap:butt;stroke-linejoin:miter;stroke:gray;stroke-opacity:1;stroke-miterlimit:10" d="M.002-4.982h141.73" transform="matrix(1 0 0 -1 57.045 91.299)"/><path style="fill:none;stroke-width:.3985;stroke-linecap:square;stroke-linejoin:miter;stroke:#bfbfbf;stroke-opacity:1;stroke-miterlimit:10" d="M.002-.002h141.73M.002 87.592h141.73" transform="matrix(1 0 0 -1 57.045 91.299)"/><path style="fill:none;stroke-width:.3985;stroke-linecap:butt;stroke-linejoin:miter;stroke:gray;stroke-opacity:1;stroke-miterlimit:10" d="M-4.982-.002v87.594" transform="matrix(1 0 0 -1 57.045 91.299)"/><path style="fill:none;stroke-width:.3985;stroke-linecap:square;stroke-linejoin:miter;stroke:#bfbfbf;stroke-opacity:1;stroke-miterlimit:10" d="M.002-.002v87.594M141.732-.002v87.594" transform="matrix(1 0 0 -1 57.045 91.299)"/><g clip-path="url(#a)"><path style="fill:none;stroke-width:.59776;stroke-linecap:butt;stroke-linejoin:miter;stroke:#000;stroke-opacity:1;stroke-miterlimit:10" d="M.002.115s11.375 25.84 15.746 34.172c4.371 8.332 11.379 19.871 15.75 25.875 4.367 6.004 11.375 13.766 15.746 17.403 4.371 3.636 11.379 7.593 15.75 8.816 4.367 1.223 11.375 1.23 15.746 0s11.38-5.238 15.75-8.875c4.367-3.637 11.38-11.348 15.746-17.344 4.371-5.996 11.38-17.527 15.75-25.875 4.371-8.347 15.746-34.289 15.746-34.289" transform="matrix(1 0 0 -1 57.045 91.299)"/></g><use xlink:href="#b" x="46.653" y="106.592" style="fill:#000;fill-opacity:1"/><g style="fill:#000;fill-opacity:1"><use xlink:href="#c" x="53.239" y="106.592"/><use xlink:href="#d" x="57.474" y="106.592"/></g><use xlink:href="#e" x="63.119" y="103.78" style="fill:#000;fill-opacity:1"/><use xlink:href="#b" x="84.203" y="106.592" style="fill:#000;fill-opacity:1"/><use xlink:href="#f" x="90.79" y="106.592" style="fill:#000;fill-opacity:1"/><use xlink:href="#e" x="96.435" y="103.78" style="fill:#000;fill-opacity:1"/><use xlink:href="#d" x="122.93" y="106.592" style="fill:#000;fill-opacity:1"/><use xlink:href="#e" x="128.575" y="103.78" style="fill:#000;fill-opacity:1"/><use xlink:href="#f" x="158.363" y="106.592" style="fill:#000;fill-opacity:1"/><use xlink:href="#e" x="164.008" y="103.78" style="fill:#000;fill-opacity:1"/><g style="fill:#000;fill-opacity:1"><use xlink:href="#c" x="191.679" y="106.592"/><use xlink:href="#d" x="195.914" y="106.592"/></g><use xlink:href="#e" x="201.558" y="103.78" style="fill:#000;fill-opacity:1"/><use xlink:href="#d" x="23.892" y="92.715" style="fill:#000;fill-opacity:1"/><use xlink:href="#g" x="28.126" y="92.715" style="fill:#000;fill-opacity:1"/><g style="fill:#000;fill-opacity:1"><use xlink:href="#h" x="30.478" y="92.715"/><use xlink:href="#i" x="34.713" y="92.715"/><use xlink:href="#f" x="38.947" y="92.715"/><use xlink:href="#d" x="43.182" y="92.715"/></g><use xlink:href="#d" x="23.892" y="78.308" style="fill:#000;fill-opacity:1"/><use xlink:href="#g" x="28.126" y="78.308" style="fill:#000;fill-opacity:1"/><g style="fill:#000;fill-opacity:1"><use xlink:href="#h" x="30.478" y="78.308"/><use xlink:href="#i" x="34.713" y="78.308"/><use xlink:href="#j" x="38.947" y="78.308"/><use xlink:href="#f" x="43.182" y="78.308"/></g><use xlink:href="#d" x="23.892" y="63.902" style="fill:#000;fill-opacity:1"/><use xlink:href="#g" x="28.126" y="63.902" style="fill:#000;fill-opacity:1"/><g style="fill:#000;fill-opacity:1"><use xlink:href="#h" x="30.478" y="63.902"/><use xlink:href="#h" x="34.713" y="63.902"/><use xlink:href="#d" x="38.947" y="63.902"/><use xlink:href="#d" x="43.182" y="63.902"/></g><use xlink:href="#d" x="23.892" y="49.496" style="fill:#000;fill-opacity:1"/><use xlink:href="#g" x="28.126" y="49.496" style="fill:#000;fill-opacity:1"/><g style="fill:#000;fill-opacity:1"><use xlink:href="#h" x="30.478" y="49.496"/><use xlink:href="#h" x="34.713" y="49.496"/><use xlink:href="#k" x="38.947" y="49.496"/><use xlink:href="#f" x="43.182" y="49.496"/></g><use xlink:href="#d" x="23.892" y="35.09" style="fill:#000;fill-opacity:1"/><use xlink:href="#g" x="28.126" y="35.09" style="fill:#000;fill-opacity:1"/><g style="fill:#000;fill-opacity:1"><use xlink:href="#h" x="30.478" y="35.09"/><use xlink:href="#h" x="34.713" y="35.09"/><use xlink:href="#f" x="38.947" y="35.09"/><use xlink:href="#d" x="43.182" y="35.09"/></g><use xlink:href="#d" x="23.892" y="20.683" style="fill:#000;fill-opacity:1"/><use xlink:href="#g" x="28.126" y="20.683" style="fill:#000;fill-opacity:1"/><g style="fill:#000;fill-opacity:1"><use xlink:href="#h" x="30.478" y="20.683"/><use xlink:href="#h" x="34.713" y="20.683"/><use xlink:href="#j" x="38.947" y="20.683"/><use xlink:href="#f" x="43.182" y="20.683"/></g><use xlink:href="#c" x="23.892" y="6.277" style="fill:#000;fill-opacity:1"/><use xlink:href="#g" x="28.126" y="6.277" style="fill:#000;fill-opacity:1"/><g style="fill:#000;fill-opacity:1"><use xlink:href="#d" x="30.478" y="6.277"/><use xlink:href="#d" x="34.713" y="6.277"/><use xlink:href="#d" x="38.947" y="6.277"/><use xlink:href="#d" x="43.182" y="6.277"/></g><g style="fill:#000;fill-opacity:1"><use xlink:href="#l" x="108.667" y="118.165"/><use xlink:href="#m" x="114.558" y="118.165"/><use xlink:href="#n" x="119.427" y="118.165"/><use xlink:href="#o" x="124.735" y="118.165"/><use xlink:href="#m" x="129.11" y="118.165"/><use xlink:href="#m" x="133.979" y="118.165"/></g><use xlink:href="#p" x="142.38" y="118.165" style="fill:#000;fill-opacity:1"/><g style="fill:#000;fill-opacity:1"><use xlink:href="#q" x=".727" y="50.618"/><use xlink:href="#r" x="4.823" y="50.618"/><use xlink:href="#s" x="9.431" y="50.618"/></g><use xlink:href="#p" x="14.601" y="50.618" style="fill:#000;fill-opacity:1"/></svg>