<svg xmlns="http://www.w3.org/2000/svg" width="55.713" height="55.707" viewBox="0 0 41.785 41.78" version="1.2"><defs><clipPath id="a"><path d="M0 0h41.676v41.672H0Zm0 0"/></clipPath></defs><path style="stroke:none;fill-rule:evenodd;fill:#d2c92a;fill-opacity:1" d="M13.98 30.578v-5.98c0-1.098.891-1.993 1.993-1.993h5.976c1.102 0 1.992.895 1.992 1.993v5.98c0 1.098-.89 1.992-1.992 1.992h-5.976a1.993 1.993 0 0 1-1.993-1.992Zm4.98-4.984v-5.977c0-1.101.895-1.992 1.993-1.992h5.98c1.098 0 1.993.89 1.993 1.992v5.977a1.993 1.993 0 0 1-1.992 1.992h-5.98a1.993 1.993 0 0 1-1.993-1.992Zm-4.64 13.879L1.367 17.039a1.993 1.993 0 0 1 .73-2.723L24.532 1.363a1.991 1.991 0 0 1 2.719.73l12.953 22.434c.55.953.223 2.172-.73 2.723L17.039 40.2a1.988 1.988 0 0 1-2.719-.727Zm0 0"/><g clip-path="url(#a)"><path style="fill:none;stroke-width:.3985;stroke-linecap:butt;stroke-linejoin:miter;stroke:#000;stroke-opacity:1;stroke-miterlimit:10" d="M0 1.99v5.981C0 9.07.89 9.964 1.992 9.964H7.97A1.993 1.993 0 0 0 9.96 7.97v-5.98c0-1.098-.89-1.992-1.992-1.992H1.992A1.993 1.993 0 0 0 0 1.99Zm4.98 4.985v5.977c0 1.101.895 1.992 1.993 1.992h5.98c1.098 0 1.992-.89 1.992-1.992V6.975a1.993 1.993 0 0 0-1.992-1.992h-5.98c-1.098 0-1.993.89-1.993 1.992ZM.34-6.904-12.613 15.53a1.993 1.993 0 0 0 .73 2.723l22.434 12.953a1.991 1.991 0 0 0 2.719-.73L26.223 8.041a1.993 1.993 0 0 0-.73-2.723L3.058-7.631a1.988 1.988 0 0 0-2.72.727Zm0 0" transform="matrix(1 0 0 -1 13.98 32.569)"/></g></svg>