<svg xmlns="http://www.w3.org/2000/svg" xmlns:xlink="http://www.w3.org/1999/xlink" width="382.155" height="56.019" viewBox="0 0 286.616 42.014" version="1.2"><defs><clipPath id="c"><path d="M72.25 10.55h141.73v19.927H72.25Zm0 0"/></clipPath><clipPath id="a"><path d="M0 0h12v12H0z"/></clipPath><clipPath id="e"><path d="M72.25 10.55h.46v19.927h-.46Zm0 0"/></clipPath><clipPath id="f"><path d="M75 10.55h.7v19.927H75Zm0 0"/></clipPath><clipPath id="g"><path d="M77.691 10.55h.996v19.927h-.996Zm0 0"/></clipPath><clipPath id="h"><path d="M80.68 10.55h.996v19.927h-.996Zm0 0"/></clipPath><clipPath id="i"><path d="M83.668 10.55h.996v19.927h-.996Zm0 0"/></clipPath><clipPath id="j"><path d="M86.656 10.55h.996v19.927h-.996Zm0 0"/></clipPath><clipPath id="k"><path d="M89.648 10.55h.997v19.927h-.997Zm0 0"/></clipPath><clipPath id="l"><path d="M92.637 10.55h.996v19.927h-.996Zm0 0"/></clipPath><clipPath id="m"><path d="M95.625 10.55h.996v19.927h-.996Zm0 0"/></clipPath><clipPath id="n"><path d="M98.613 10.55h.996v19.927h-.996Zm0 0"/></clipPath><clipPath id="o"><path d="M101.602 10.55h.996v19.927h-.996Zm0 0"/></clipPath><clipPath id="p"><path d="M104.59 10.55h.996v19.927h-.996Zm0 0"/></clipPath><clipPath id="q"><path d="M107.578 10.55h.996v19.927h-.996Zm0 0"/></clipPath><clipPath id="r"><path d="M110.57 10.55h.996v19.927h-.996Zm0 0"/></clipPath><clipPath id="s"><path d="M113.559 10.55h.996v19.927h-.996Zm0 0"/></clipPath><clipPath id="t"><path d="M122.523 10.55h.997v19.927h-.997Zm0 0"/></clipPath><clipPath id="u"><path d="M125.512 10.55h.996v19.927h-.996Zm0 0"/></clipPath><clipPath id="v"><path d="M128.5 10.55h.996v19.927h-.996Zm0 0"/></clipPath><clipPath id="w"><path d="M131.492 10.55h.996v19.927h-.996Zm0 0"/></clipPath><clipPath id="x"><path d="M134.48 10.55h.997v19.927h-.997Zm0 0"/></clipPath><clipPath id="y"><path d="M137.469 10.55h.996v19.927h-.996Zm0 0"/></clipPath><clipPath id="z"><path d="M140.457 10.55h.996v19.927h-.996Zm0 0"/></clipPath><clipPath id="A"><path d="M143.445 10.55h.996v19.927h-.996Zm0 0"/></clipPath><clipPath id="B"><path d="M146.434 10.55h.996v19.927h-.996Zm0 0"/></clipPath><clipPath id="C"><path d="M149.422 10.55h.996v19.927h-.996Zm0 0"/></clipPath><clipPath id="D"><path d="M152.414 10.55h.996v19.927h-.996Zm0 0"/></clipPath><clipPath id="E"><path d="M155.402 10.55h.996v19.927h-.996Zm0 0"/></clipPath><clipPath id="F"><path d="M158.39 10.55h.997v19.927h-.996Zm0 0"/></clipPath><clipPath id="G"><path d="M161.379 10.55h.996v19.927h-.996Zm0 0"/></clipPath><clipPath id="H"><path d="M164.367 10.55h.012v19.927h-.012Zm0 0"/></clipPath><clipPath id="I"><path d="M173.336 10.55h.996v19.927h-.996Zm0 0"/></clipPath><clipPath id="J"><path d="M176.324 10.55h.996v19.927h-.996Zm0 0"/></clipPath><clipPath id="K"><path d="M179.313 10.55h.996v19.927h-.996Zm0 0"/></clipPath><clipPath id="L"><path d="M182.3 10.55h.7v19.927h-.7Zm0 0"/></clipPath><clipPath id="M"><path d="M185.29 10.55h.71v19.927h-.71Zm0 0"/></clipPath><clipPath id="N"><path d="M188.277 10.55H189v19.927h-.723Zm0 0"/></clipPath><clipPath id="O"><path d="M191.266 10.55H192v19.927h-.734Zm0 0"/></clipPath><clipPath id="P"><path d="M194.258 10.55H195v19.927h-.742Zm0 0"/></clipPath><clipPath id="Q"><path d="M197.246 10.55H198v19.927h-.754Zm0 0"/></clipPath><clipPath id="R"><path d="M200.234 10.55H201v19.927h-.766Zm0 0"/></clipPath><clipPath id="S"><path d="M203.223 10.55H204v19.927h-.777Zm0 0"/></clipPath><clipPath id="T"><path d="M206.21 10.55h.79v19.927h-.79Zm0 0"/></clipPath><clipPath id="U"><path d="M209.2 10.55h.8v19.927h-.8Zm0 0"/></clipPath><clipPath id="V"><path d="M212.188 10.55H213v19.927h-.813Zm0 0"/></clipPath><pattern id="d" patternUnits="userSpaceOnUse" width="12" height="12" patternTransform="matrix(.9449 0 0 -.9449 -71.75 13618.551)"><use xlink:href="#b"/></pattern><g id="b" clip-path="url(#a)"><path style="fill:#000;fill-opacity:1;stroke:none" d="M0 0h12v12H0z"/><path style="stroke:none;fill-rule:nonzero;fill:#ccc;fill-opacity:1" d="M0 0h6v6H0Zm6 6h6v6H6Zm0 0"/></g></defs><g clip-path="url(#c)"><path style="stroke:none;fill-rule:nonzero;fill:url(#d)" d="M72.25 30.477h141.73V10.55H72.25Zm0 0"/></g><g clip-path="url(#e)"><path style="fill:none;stroke-width:.3985;stroke-linecap:butt;stroke-linejoin:miter;stroke:#000;stroke-opacity:1;stroke-miterlimit:10" d="M.497.002v99.625" transform="matrix(1 0 0 -1 71.714 69.185)"/></g><g clip-path="url(#f)"><path style="fill:none;stroke-width:.3985;stroke-linecap:butt;stroke-linejoin:miter;stroke:#000;stroke-opacity:1;stroke-miterlimit:10" d="M.497.002v99.625" transform="matrix(1 0 0 -1 74.703 69.185)"/></g><g clip-path="url(#g)"><path style="fill:none;stroke-width:.3985;stroke-linecap:butt;stroke-linejoin:miter;stroke:#000;stroke-opacity:1;stroke-miterlimit:10" d="M.5.002v99.625" transform="matrix(1 0 0 -1 77.692 69.185)"/></g><g clip-path="url(#h)"><path style="fill:none;stroke-width:.3985;stroke-linecap:butt;stroke-linejoin:miter;stroke:#000;stroke-opacity:1;stroke-miterlimit:10" d="M.5.002v99.625" transform="matrix(1 0 0 -1 80.68 69.185)"/></g><g clip-path="url(#i)"><path style="fill:none;stroke-width:.3985;stroke-linecap:butt;stroke-linejoin:miter;stroke:#000;stroke-opacity:1;stroke-miterlimit:10" d="M.499.002v99.625" transform="matrix(1 0 0 -1 83.67 69.185)"/></g><g clip-path="url(#j)"><path style="fill:none;stroke-width:.3985;stroke-linecap:butt;stroke-linejoin:miter;stroke:#000;stroke-opacity:1;stroke-miterlimit:10" d="M.498.002v99.625" transform="matrix(1 0 0 -1 86.658 69.185)"/></g><g clip-path="url(#k)"><path style="fill:none;stroke-width:.3985;stroke-linecap:butt;stroke-linejoin:miter;stroke:#000;stroke-opacity:1;stroke-miterlimit:10" d="M.498.002v99.625" transform="matrix(1 0 0 -1 89.647 69.185)"/></g><g clip-path="url(#l)"><path style="fill:none;stroke-width:.3985;stroke-linecap:butt;stroke-linejoin:miter;stroke:#000;stroke-opacity:1;stroke-miterlimit:10" d="M.497.002v99.625" transform="matrix(1 0 0 -1 92.636 69.185)"/></g><g clip-path="url(#m)"><path style="fill:none;stroke-width:.3985;stroke-linecap:butt;stroke-linejoin:miter;stroke:#000;stroke-opacity:1;stroke-miterlimit:10" d="M.497.002v99.625" transform="matrix(1 0 0 -1 95.624 69.185)"/></g><g clip-path="url(#n)"><path style="fill:none;stroke-width:.3985;stroke-linecap:butt;stroke-linejoin:miter;stroke:#000;stroke-opacity:1;stroke-miterlimit:10" d="M.5.002v99.625" transform="matrix(1 0 0 -1 98.613 69.185)"/></g><g clip-path="url(#o)"><path style="fill:none;stroke-width:.3985;stroke-linecap:butt;stroke-linejoin:miter;stroke:#000;stroke-opacity:1;stroke-miterlimit:10" d="M.5.002v99.625" transform="matrix(1 0 0 -1 101.602 69.185)"/></g><g clip-path="url(#p)"><path style="fill:none;stroke-width:.3985;stroke-linecap:butt;stroke-linejoin:miter;stroke:#000;stroke-opacity:1;stroke-miterlimit:10" d="M.499.002v99.625" transform="matrix(1 0 0 -1 104.591 69.185)"/></g><g clip-path="url(#q)"><path style="fill:none;stroke-width:.3985;stroke-linecap:butt;stroke-linejoin:miter;stroke:#000;stroke-opacity:1;stroke-miterlimit:10" d="M.498.002v99.625" transform="matrix(1 0 0 -1 107.58 69.185)"/></g><g clip-path="url(#r)"><path style="fill:none;stroke-width:.3985;stroke-linecap:butt;stroke-linejoin:miter;stroke:#000;stroke-opacity:1;stroke-miterlimit:10" d="M.498.002v99.625" transform="matrix(1 0 0 -1 110.569 69.185)"/></g><g clip-path="url(#s)"><path style="fill:none;stroke-width:.3985;stroke-linecap:butt;stroke-linejoin:miter;stroke:#000;stroke-opacity:1;stroke-miterlimit:10" d="M.497.002v99.625" transform="matrix(1 0 0 -1 113.557 69.185)"/></g><g clip-path="url(#t)"><path style="fill:none;stroke-width:.3985;stroke-linecap:butt;stroke-linejoin:miter;stroke:#00f;stroke-opacity:1;stroke-miterlimit:10" d="M.5.002v99.625" transform="matrix(1 0 0 -1 122.524 69.185)"/></g><g clip-path="url(#u)"><path style="fill:none;stroke-width:.3985;stroke-linecap:butt;stroke-linejoin:miter;stroke:#00f;stroke-opacity:1;stroke-miterlimit:10" d="M.499.002v99.625" transform="matrix(1 0 0 -1 125.513 69.185)"/></g><g clip-path="url(#v)"><path style="fill:none;stroke-width:.3985;stroke-linecap:butt;stroke-linejoin:miter;stroke:#00f;stroke-opacity:1;stroke-miterlimit:10" d="M.498.002v99.625" transform="matrix(1 0 0 -1 128.502 69.185)"/></g><g clip-path="url(#w)"><path style="fill:none;stroke-width:.3985;stroke-linecap:butt;stroke-linejoin:miter;stroke:#00f;stroke-opacity:1;stroke-miterlimit:10" d="M.498.002v99.625" transform="matrix(1 0 0 -1 131.49 69.185)"/></g><g clip-path="url(#x)"><path style="fill:none;stroke-width:.3985;stroke-linecap:butt;stroke-linejoin:miter;stroke:#00f;stroke-opacity:1;stroke-miterlimit:10" d="M.497.002v99.625" transform="matrix(1 0 0 -1 134.48 69.185)"/></g><g clip-path="url(#y)"><path style="fill:none;stroke-width:.3985;stroke-linecap:butt;stroke-linejoin:miter;stroke:#00f;stroke-opacity:1;stroke-miterlimit:10" d="M.497.002v99.625" transform="matrix(1 0 0 -1 137.468 69.185)"/></g><g clip-path="url(#z)"><path style="fill:none;stroke-width:.3985;stroke-linecap:butt;stroke-linejoin:miter;stroke:#00f;stroke-opacity:1;stroke-miterlimit:10" d="M.496.002v99.625" transform="matrix(1 0 0 -1 140.457 69.185)"/></g><g clip-path="url(#A)"><path style="fill:none;stroke-width:.3985;stroke-linecap:butt;stroke-linejoin:miter;stroke:#00f;stroke-opacity:1;stroke-miterlimit:10" d="M.5.002v99.625" transform="matrix(1 0 0 -1 143.446 69.185)"/></g><g clip-path="url(#B)"><path style="fill:none;stroke-width:.3985;stroke-linecap:butt;stroke-linejoin:miter;stroke:#00f;stroke-opacity:1;stroke-miterlimit:10" d="M.499.002v99.625" transform="matrix(1 0 0 -1 146.435 69.185)"/></g><g clip-path="url(#C)"><path style="fill:none;stroke-width:.3985;stroke-linecap:butt;stroke-linejoin:miter;stroke:#00f;stroke-opacity:1;stroke-miterlimit:10" d="M.498.002v99.625" transform="matrix(1 0 0 -1 149.423 69.185)"/></g><g clip-path="url(#D)"><path style="fill:none;stroke-width:.3985;stroke-linecap:butt;stroke-linejoin:miter;stroke:#00f;stroke-opacity:1;stroke-miterlimit:10" d="M.498.002v99.625" transform="matrix(1 0 0 -1 152.412 69.185)"/></g><g clip-path="url(#E)"><path style="fill:none;stroke-width:.3985;stroke-linecap:butt;stroke-linejoin:miter;stroke:#00f;stroke-opacity:1;stroke-miterlimit:10" d="M.497.002v99.625" transform="matrix(1 0 0 -1 155.401 69.185)"/></g><g clip-path="url(#F)"><path style="fill:none;stroke-width:.3985;stroke-linecap:butt;stroke-linejoin:miter;stroke:#00f;stroke-opacity:1;stroke-miterlimit:10" d="M.497.002v99.625" transform="matrix(1 0 0 -1 158.39 69.185)"/></g><g clip-path="url(#G)"><path style="fill:none;stroke-width:.3985;stroke-linecap:butt;stroke-linejoin:miter;stroke:#00f;stroke-opacity:1;stroke-miterlimit:10" d="M.496.002v99.625" transform="matrix(1 0 0 -1 161.379 69.185)"/></g><g clip-path="url(#H)"><path style="fill:none;stroke-width:.3985;stroke-linecap:butt;stroke-linejoin:miter;stroke:#00f;stroke-opacity:1;stroke-miterlimit:10" d="M.5.002v99.625" transform="matrix(1 0 0 -1 164.368 69.185)"/></g><g clip-path="url(#I)"><path style="fill:none;stroke-width:.3985;stroke-linecap:butt;stroke-linejoin:miter;stroke:red;stroke-opacity:1;stroke-miterlimit:10" d="M.498.002v99.625" transform="matrix(1 0 0 -1 173.334 69.185)"/></g><g clip-path="url(#J)"><path style="fill:none;stroke-width:.3985;stroke-linecap:butt;stroke-linejoin:miter;stroke:red;stroke-opacity:1;stroke-miterlimit:10" d="M.497.002v99.625" transform="matrix(1 0 0 -1 176.323 69.185)"/></g><g clip-path="url(#K)"><path style="fill:none;stroke-width:.3985;stroke-linecap:butt;stroke-linejoin:miter;stroke:red;stroke-opacity:1;stroke-miterlimit:10" d="M.497.002v99.625" transform="matrix(1 0 0 -1 179.312 69.185)"/></g><g clip-path="url(#L)"><path style="fill:none;stroke-width:.3985;stroke-linecap:butt;stroke-linejoin:miter;stroke:red;stroke-opacity:1;stroke-miterlimit:10" d="M.496.002v99.625" transform="matrix(1 0 0 -1 182.3 69.185)"/></g><g clip-path="url(#M)"><path style="fill:none;stroke-width:.3985;stroke-linecap:butt;stroke-linejoin:miter;stroke:red;stroke-opacity:1;stroke-miterlimit:10" d="M.5.002v99.625" transform="matrix(1 0 0 -1 185.29 69.185)"/></g><g clip-path="url(#N)"><path style="fill:none;stroke-width:.3985;stroke-linecap:butt;stroke-linejoin:miter;stroke:red;stroke-opacity:1;stroke-miterlimit:10" d="M.5.002v99.625" transform="matrix(1 0 0 -1 188.278 69.185)"/></g><g clip-path="url(#O)"><path style="fill:none;stroke-width:.3985;stroke-linecap:butt;stroke-linejoin:miter;stroke:red;stroke-opacity:1;stroke-miterlimit:10" d="M.499.002v99.625" transform="matrix(1 0 0 -1 191.267 69.185)"/></g><g clip-path="url(#P)"><path style="fill:none;stroke-width:.3985;stroke-linecap:butt;stroke-linejoin:miter;stroke:red;stroke-opacity:1;stroke-miterlimit:10" d="M.498.002v99.625" transform="matrix(1 0 0 -1 194.256 69.185)"/></g><g clip-path="url(#Q)"><path style="fill:none;stroke-width:.3985;stroke-linecap:butt;stroke-linejoin:miter;stroke:red;stroke-opacity:1;stroke-miterlimit:10" d="M.497.002v99.625" transform="matrix(1 0 0 -1 197.245 69.185)"/></g><g clip-path="url(#R)"><path style="fill:none;stroke-width:.3985;stroke-linecap:butt;stroke-linejoin:miter;stroke:red;stroke-opacity:1;stroke-miterlimit:10" d="M.497.002v99.625" transform="matrix(1 0 0 -1 200.234 69.185)"/></g><g clip-path="url(#S)"><path style="fill:none;stroke-width:.3985;stroke-linecap:butt;stroke-linejoin:miter;stroke:red;stroke-opacity:1;stroke-miterlimit:10" d="M.496.002v99.625" transform="matrix(1 0 0 -1 203.222 69.185)"/></g><g clip-path="url(#T)"><path style="fill:none;stroke-width:.3985;stroke-linecap:butt;stroke-linejoin:miter;stroke:red;stroke-opacity:1;stroke-miterlimit:10" d="M.5.002v99.625" transform="matrix(1 0 0 -1 206.211 69.185)"/></g><g clip-path="url(#U)"><path style="fill:none;stroke-width:.3985;stroke-linecap:butt;stroke-linejoin:miter;stroke:red;stroke-opacity:1;stroke-miterlimit:10" d="M.5.002v99.625" transform="matrix(1 0 0 -1 209.2 69.185)"/></g><g clip-path="url(#V)"><path style="fill:none;stroke-width:.3985;stroke-linecap:butt;stroke-linejoin:miter;stroke:red;stroke-opacity:1;stroke-miterlimit:10" d="M.499.002v99.625" transform="matrix(1 0 0 -1 212.189 69.185)"/></g></svg>