<svg xmlns="http://www.w3.org/2000/svg" width="77.15pt" height="77.15pt" viewBox="0 0 77.15 77.15" version="1.2"><path style="fill:none;stroke-width:.3985;stroke-linecap:butt;stroke-linejoin:miter;stroke:#000;stroke-opacity:1;stroke-miterlimit:10" d="M.001-.001h4.98v-4.98H.001v-9.961h4.98v4.98h4.98v-4.98h4.981v9.96h-4.98V0h9.965v-4.98h4.98v4.98h9.961v-4.98h-4.98v-4.98h4.98v-4.981h-9.96v4.98h-4.981v-14.945h4.98v4.98h9.961v-4.98h-4.98v-4.98h4.98v-4.981h-9.96v4.98h-4.981v-4.98H9.962v4.98h4.98v9.961h-4.98v-4.98h-4.98v4.98H0v-9.96h4.98v-4.981H.001v-9.965h4.98v4.98h9.961v-4.98h-4.98v-4.98h4.98v-4.98h-9.96v4.98H0v-9.965h4.98v-4.98H.001v-9.962h4.98v4.98h4.98v-4.98h4.981v9.961h-4.98v4.98h14.945v-4.98h-4.98v-9.96h4.98v4.98h4.98v-4.98h4.981v9.96h-4.98v4.98h4.98v9.966h-4.98v-4.98h-9.961v4.98h4.98v4.98h-4.98v4.98h9.96v-4.98h4.981v4.98h4.985v-4.98h4.98v4.98h9.96v-4.98h-4.98v-4.98h4.98v-4.98h-9.96v4.98h-4.98v-9.965h4.98v-4.98h-4.98v-9.962h4.98v4.98h4.98v-4.98h4.98v9.961h-4.98v4.98H64.76v-4.98h-4.98v-9.96h4.98v4.98h4.98v-4.98h4.98v9.96h-4.98v4.98h4.98v9.966h-4.98v-4.98h-9.96v4.98h4.98v4.98h-4.98v4.98h9.96v-4.98h4.98v9.965h-4.98v4.98h4.98v9.961h-4.98v-4.98h-4.98v4.98h-4.98v-9.96h4.98v-4.981h-9.965v4.98h-4.98v-4.98h-9.961v4.98h4.98v4.98h-4.98v4.981h9.96v-4.98h4.98v14.945h-4.98v-4.98h-9.96v4.98h4.98v4.98h-4.98V0h9.96v-4.98h4.98v4.98h9.966v-4.98h-4.98v-9.961h4.98v4.98h4.98v-4.98h4.98v9.96h-4.98V0h4.98" transform="matrix(1 0 0 -1 .792 .792)"/></svg>