<svg xmlns="http://www.w3.org/2000/svg" xmlns:xlink="http://www.w3.org/1999/xlink" width="94.97pt" height="54.627" viewBox="0 0 94.97 40.97" version="1.2"><defs><clipPath id="a"><path d="M0 5h36v35.953H0Zm0 0"/></clipPath><clipPath id="e"><path d="M23 5h41v35.953H23Zm0 0"/></clipPath><clipPath id="f"><path d="M52 5h40v35.953H52Zm0 0"/></clipPath><symbol overflow="visible" id="b"><path style="stroke:none" d="M4.406-3.672c0-.531-.531-.812-1.062-.812-.688 0-1.094.5-1.313 1.125v-1.125l-1.656.078v.468c.61 0 .688 0 .688.391v3.078H.375V0l1.25-.031C2-.031 2.641-.031 3 0v-.469h-.86v-1.75c0-.687.235-1.906 1.235-1.906 0 0-.188.172-.188.453 0 .406.329.61.61.61.297 0 .61-.204.61-.61Zm0 0"/></symbol><symbol overflow="visible" id="c"><path style="stroke:none" d="M4.922-1.172c0-.172-.188-.172-.234-.172-.172 0-.188.047-.25.203-.204.485-.782.797-1.422.797-1.407 0-1.422-1.328-1.422-1.828h3.015c.22 0 .313 0 .313-.265 0-.313-.063-1.047-.563-1.547-.359-.36-.89-.532-1.578-.532C1.187-4.516.312-3.484.312-2.25c0 1.344 1 2.313 2.61 2.313 1.578 0 2-1.063 2-1.235ZM3.984-2.5h-2.39c.015-.39.031-.813.234-1.14.266-.391.672-.516.953-.516 1.172 0 1.188 1.312 1.203 1.656Zm0 0"/></symbol><symbol overflow="visible" id="d"><path style="stroke:none" d="M5.984 0v-.469c-.609 0-.687 0-.687-.39v-6.063l-1.766.078v.469c.625 0 .703 0 .703.39v1.954a2.178 2.178 0 0 0-1.359-.453c-1.453 0-2.5.875-2.5 2.28 0 1.313.922 2.267 2.39 2.267.61 0 1.094-.235 1.407-.485v.484ZM4.172-1.031c-.14.187-.547.734-1.297.734-1.219 0-1.219-1.203-1.219-1.906 0-.485 0-1.016.25-1.406.297-.422.766-.516 1.078-.516.563 0 .97.313 1.188.61Zm0 0"/></symbol></defs><g clip-path="url(#a)"><path style="fill:none;stroke-width:.3985;stroke-linecap:butt;stroke-linejoin:miter;stroke:red;stroke-opacity:1;stroke-miterlimit:10" d="m-.001.001 28.348 28.344" transform="matrix(1 0 0 -1 1.13 39.798)"/></g><g style="fill:red;fill-opacity:1"><use xlink:href="#b" x="21.307" y="7.872"/><use xlink:href="#c" x="26.029" y="7.872"/><use xlink:href="#d" x="31.28" y="7.872"/></g><g clip-path="url(#e)"><path style="fill:none;stroke-width:.3985;stroke-linecap:butt;stroke-linejoin:miter;stroke:#000;stroke-opacity:1;stroke-miterlimit:10" d="m28.347.001 28.347 28.344" transform="matrix(1 0 0 -1 1.13 39.798)"/></g><g style="fill:red;fill-opacity:1"><use xlink:href="#b" x="49.654" y="7.872"/><use xlink:href="#c" x="54.376" y="7.872"/><use xlink:href="#d" x="59.627" y="7.872"/></g><g clip-path="url(#f)"><path style="fill:none;stroke-width:.3985;stroke-linecap:butt;stroke-linejoin:miter;stroke:#000;stroke-opacity:1;stroke-miterlimit:10" d="m56.694.001 28.348 28.344" transform="matrix(1 0 0 -1 1.13 39.798)"/></g><g style="fill:red;fill-opacity:1"><use xlink:href="#b" x="78" y="7.872"/><use xlink:href="#c" x="82.722" y="7.872"/><use xlink:href="#d" x="87.973" y="7.872"/></g></svg>