<svg xmlns="http://www.w3.org/2000/svg" xmlns:xlink="http://www.w3.org/1999/xlink" width="508.847" height="20.9" viewBox="0 0 381.635 15.675" version="1.2"><defs><symbol overflow="visible" id="a"><path style="stroke:none" d="M5.281-3.188c0-.953-.015-3.343-2.422-3.343C.453-6.531.453-4.156.453-3.188c0 1 0 3.297 2.406 3.297 2.391 0 2.422-2.296 2.422-3.296ZM4-3.296c0 .563 0 1.469-.078 1.985-.14.921-.766 1.062-1.063 1.062-.359 0-.921-.219-1.046-.953-.094-.516-.094-1.547-.094-2.094 0-.719 0-1.375.078-1.89.125-.891.828-.985 1.062-.985.375 0 .782.188.97.625C4-5.172 4-4.109 4-3.297Zm0 0"/></symbol><symbol overflow="visible" id="b"><path style="stroke:none" d="M3.172-1.734v-.97H.125v.97Zm0 0"/></symbol><symbol overflow="visible" id="c"><path style="stroke:none" d="M4.922 0v-.469h-1.39v-5.734c0-.234 0-.328-.266-.328-.11 0-.125 0-.22.078-.765.562-1.796.562-2 .562H.845v.47h.203c.156 0 .703-.016 1.297-.204v5.156H.954V0c.437-.031 1.5-.031 1.984-.031s1.546 0 1.984.031Zm0 0"/></symbol></defs><path style="fill-rule:nonzero;fill:#ccf;fill-opacity:1;stroke-width:.3985;stroke-linecap:butt;stroke-linejoin:miter;stroke:#99f;stroke-opacity:1;stroke-miterlimit:10" d="M.198-6.638H12.57V6.639H.2Zm0 0" transform="matrix(1 0 0 -1 .818 7.675)"/><use xlink:href="#a" x="4.338" y="10.883" style="fill:#000;fill-opacity:1"/><path style="fill-rule:nonzero;fill:#ccf;fill-opacity:1;stroke-width:.3985;stroke-linecap:butt;stroke-linejoin:miter;stroke:#99f;stroke-opacity:1;stroke-miterlimit:10" d="M12.968-6.638h12.37V6.639h-12.37Zm0 0" transform="matrix(1 0 0 -1 .818 7.675)"/><use xlink:href="#a" x="17.105" y="10.883" style="fill:#000;fill-opacity:1"/><path style="fill-rule:nonzero;fill:#ccf;fill-opacity:1;stroke-width:.3985;stroke-linecap:butt;stroke-linejoin:miter;stroke:#99f;stroke-opacity:1;stroke-miterlimit:10" d="M25.737-6.638h12.367V6.639H25.737Zm0 0" transform="matrix(1 0 0 -1 .818 7.675)"/><use xlink:href="#a" x="29.873" y="10.883" style="fill:#000;fill-opacity:1"/><use xlink:href="#b" x="42.443" y="9.024" style="fill:#000;fill-opacity:1"/><path style="fill-rule:nonzero;fill:#ccf;fill-opacity:1;stroke-width:.3985;stroke-linecap:butt;stroke-linejoin:miter;stroke:#99f;stroke-opacity:1;stroke-miterlimit:10" d="M48.96-6.638h12.37V6.639H48.96Zm0 0" transform="matrix(1 0 0 -1 .818 7.675)"/><use xlink:href="#a" x="53.099" y="10.883" style="fill:#000;fill-opacity:1"/><path style="fill-rule:nonzero;fill:#ccf;fill-opacity:1;stroke-width:.3985;stroke-linecap:butt;stroke-linejoin:miter;stroke:#99f;stroke-opacity:1;stroke-miterlimit:10" d="M61.73-6.638H74.1V6.639H61.73Zm0 0" transform="matrix(1 0 0 -1 .818 7.675)"/><use xlink:href="#a" x="65.867" y="10.883" style="fill:#000;fill-opacity:1"/><path style="fill-rule:nonzero;fill:#ccf;fill-opacity:1;stroke-width:.3985;stroke-linecap:butt;stroke-linejoin:miter;stroke:#99f;stroke-opacity:1;stroke-miterlimit:10" d="M74.499-6.583h12.367V6.585H74.5Zm0 0" transform="matrix(1 0 0 -1 .818 7.675)"/><use xlink:href="#c" x="78.635" y="10.938" style="fill:#000;fill-opacity:1"/><use xlink:href="#b" x="91.204" y="9.024" style="fill:#000;fill-opacity:1"/><path style="fill-rule:nonzero;fill:#ccf;fill-opacity:1;stroke-width:.3985;stroke-linecap:butt;stroke-linejoin:miter;stroke:#99f;stroke-opacity:1;stroke-miterlimit:10" d="M97.722-6.638h12.37V6.639h-12.37Zm0 0" transform="matrix(1 0 0 -1 .818 7.675)"/><use xlink:href="#a" x="101.859" y="10.883" style="fill:#000;fill-opacity:1"/><path style="fill-rule:nonzero;fill:#ccf;fill-opacity:1;stroke-width:.3985;stroke-linecap:butt;stroke-linejoin:miter;stroke:#99f;stroke-opacity:1;stroke-miterlimit:10" d="M110.491-6.583h12.371V6.585h-12.37Zm0 0" transform="matrix(1 0 0 -1 .818 7.675)"/><use xlink:href="#c" x="114.627" y="10.938" style="fill:#000;fill-opacity:1"/><path style="fill-rule:nonzero;fill:#ccf;fill-opacity:1;stroke-width:.3985;stroke-linecap:butt;stroke-linejoin:miter;stroke:#99f;stroke-opacity:1;stroke-miterlimit:10" d="M123.26-6.638h12.368V6.639H123.26Zm0 0" transform="matrix(1 0 0 -1 .818 7.675)"/><use xlink:href="#a" x="127.395" y="10.883" style="fill:#000;fill-opacity:1"/><use xlink:href="#b" x="139.964" y="9.024" style="fill:#000;fill-opacity:1"/><path style="fill-rule:nonzero;fill:#ccf;fill-opacity:1;stroke-width:.3985;stroke-linecap:butt;stroke-linejoin:miter;stroke:#99f;stroke-opacity:1;stroke-miterlimit:10" d="M146.483-6.638h12.371V6.639h-12.37Zm0 0" transform="matrix(1 0 0 -1 .818 7.675)"/><use xlink:href="#a" x="150.62" y="10.883" style="fill:#000;fill-opacity:1"/><path style="fill-rule:nonzero;fill:#ccf;fill-opacity:1;stroke-width:.3985;stroke-linecap:butt;stroke-linejoin:miter;stroke:#99f;stroke-opacity:1;stroke-miterlimit:10" d="M159.253-6.583h12.367V6.585h-12.367Zm0 0" transform="matrix(1 0 0 -1 .818 7.675)"/><use xlink:href="#c" x="163.388" y="10.938" style="fill:#000;fill-opacity:1"/><path style="fill-rule:nonzero;fill:#ccf;fill-opacity:1;stroke-width:.3985;stroke-linecap:butt;stroke-linejoin:miter;stroke:#99f;stroke-opacity:1;stroke-miterlimit:10" d="M172.022-6.583h12.368V6.585h-12.368Zm0 0" transform="matrix(1 0 0 -1 .818 7.675)"/><use xlink:href="#c" x="176.156" y="10.938" style="fill:#000;fill-opacity:1"/><use xlink:href="#b" x="188.726" y="9.024" style="fill:#000;fill-opacity:1"/><path style="fill-rule:nonzero;fill:#ccf;fill-opacity:1;stroke-width:.3985;stroke-linecap:butt;stroke-linejoin:miter;stroke:#99f;stroke-opacity:1;stroke-miterlimit:10" d="M195.245-6.583h12.371V6.585h-12.371Zm0 0" transform="matrix(1 0 0 -1 .818 7.675)"/><use xlink:href="#c" x="199.381" y="10.938" style="fill:#000;fill-opacity:1"/><path style="fill-rule:nonzero;fill:#ccf;fill-opacity:1;stroke-width:.3985;stroke-linecap:butt;stroke-linejoin:miter;stroke:#99f;stroke-opacity:1;stroke-miterlimit:10" d="M208.015-6.638h12.367V6.639h-12.367Zm0 0" transform="matrix(1 0 0 -1 .818 7.675)"/><use xlink:href="#a" x="212.149" y="10.883" style="fill:#000;fill-opacity:1"/><path style="fill-rule:nonzero;fill:#ccf;fill-opacity:1;stroke-width:.3985;stroke-linecap:butt;stroke-linejoin:miter;stroke:#99f;stroke-opacity:1;stroke-miterlimit:10" d="M220.78-6.638h12.371V6.639h-12.37Zm0 0" transform="matrix(1 0 0 -1 .818 7.675)"/><use xlink:href="#a" x="224.917" y="10.883" style="fill:#000;fill-opacity:1"/><use xlink:href="#b" x="237.486" y="9.024" style="fill:#000;fill-opacity:1"/><path style="fill-rule:nonzero;fill:#ccf;fill-opacity:1;stroke-width:.3985;stroke-linecap:butt;stroke-linejoin:miter;stroke:#99f;stroke-opacity:1;stroke-miterlimit:10" d="M244.007-6.583h12.37V6.585h-12.37Zm0 0" transform="matrix(1 0 0 -1 .818 7.675)"/><use xlink:href="#c" x="248.142" y="10.938" style="fill:#000;fill-opacity:1"/><path style="fill-rule:nonzero;fill:#ccf;fill-opacity:1;stroke-width:.3985;stroke-linecap:butt;stroke-linejoin:miter;stroke:#99f;stroke-opacity:1;stroke-miterlimit:10" d="M256.776-6.638h12.367V6.639h-12.367Zm0 0" transform="matrix(1 0 0 -1 .818 7.675)"/><use xlink:href="#a" x="260.911" y="10.883" style="fill:#000;fill-opacity:1"/><path style="fill-rule:nonzero;fill:#ccf;fill-opacity:1;stroke-width:.3985;stroke-linecap:butt;stroke-linejoin:miter;stroke:#99f;stroke-opacity:1;stroke-miterlimit:10" d="M269.542-6.583h12.371V6.585h-12.371Zm0 0" transform="matrix(1 0 0 -1 .818 7.675)"/><use xlink:href="#c" x="273.678" y="10.938" style="fill:#000;fill-opacity:1"/><use xlink:href="#b" x="286.247" y="9.024" style="fill:#000;fill-opacity:1"/><path style="fill-rule:nonzero;fill:#ccf;fill-opacity:1;stroke-width:.3985;stroke-linecap:butt;stroke-linejoin:miter;stroke:#99f;stroke-opacity:1;stroke-miterlimit:10" d="M292.768-6.583h12.372V6.585h-12.372Zm0 0" transform="matrix(1 0 0 -1 .818 7.675)"/><use xlink:href="#c" x="296.902" y="10.938" style="fill:#000;fill-opacity:1"/><path style="fill-rule:nonzero;fill:#ccf;fill-opacity:1;stroke-width:.3985;stroke-linecap:butt;stroke-linejoin:miter;stroke:#99f;stroke-opacity:1;stroke-miterlimit:10" d="M305.538-6.583h12.367V6.585h-12.367Zm0 0" transform="matrix(1 0 0 -1 .818 7.675)"/><use xlink:href="#c" x="309.671" y="10.938" style="fill:#000;fill-opacity:1"/><path style="fill-rule:nonzero;fill:#ccf;fill-opacity:1;stroke-width:.3985;stroke-linecap:butt;stroke-linejoin:miter;stroke:#99f;stroke-opacity:1;stroke-miterlimit:10" d="M318.304-6.638h12.37V6.639h-12.37Zm0 0" transform="matrix(1 0 0 -1 .818 7.675)"/><use xlink:href="#a" x="322.44" y="10.883" style="fill:#000;fill-opacity:1"/><use xlink:href="#b" x="335.007" y="9.024" style="fill:#000;fill-opacity:1"/><path style="fill-rule:nonzero;fill:#ccf;fill-opacity:1;stroke-width:.3985;stroke-linecap:butt;stroke-linejoin:miter;stroke:#99f;stroke-opacity:1;stroke-miterlimit:10" d="M341.53-6.583h12.371V6.585h-12.37Zm0 0" transform="matrix(1 0 0 -1 .818 7.675)"/><use xlink:href="#c" x="345.663" y="10.938" style="fill:#000;fill-opacity:1"/><path style="fill-rule:nonzero;fill:#ccf;fill-opacity:1;stroke-width:.3985;stroke-linecap:butt;stroke-linejoin:miter;stroke:#99f;stroke-opacity:1;stroke-miterlimit:10" d="M354.3-6.583h12.367V6.585H354.3Zm0 0" transform="matrix(1 0 0 -1 .818 7.675)"/><use xlink:href="#c" x="358.432" y="10.938" style="fill:#000;fill-opacity:1"/><path style="fill-rule:nonzero;fill:#ccf;fill-opacity:1;stroke-width:.3985;stroke-linecap:butt;stroke-linejoin:miter;stroke:#99f;stroke-opacity:1;stroke-miterlimit:10" d="M367.065-6.583h12.371V6.585h-12.37Zm0 0" transform="matrix(1 0 0 -1 .818 7.675)"/><use xlink:href="#c" x="371.2" y="10.938" style="fill:#000;fill-opacity:1"/></svg>