<svg xmlns="http://www.w3.org/2000/svg" width="64.251" height="14.451" viewBox="0 0 48.188 10.838" version="1.2"><defs><clipPath id="a"><path d="M0 0h47.781v10.758H0Zm0 0"/></clipPath><clipPath id="b"><path d="M0 0h10v10.758H0Zm0 0"/></clipPath><clipPath id="c"><path d="M23 0h16v10.758H23Zm0 0"/></clipPath><clipPath id="d"><path d="M37 0h10.781v10H37Zm0 0"/></clipPath></defs><g clip-path="url(#a)"><path style="fill:none;stroke-width:.3985;stroke-linecap:butt;stroke-linejoin:miter;stroke:#bfbfbf;stroke-opacity:1;stroke-miterlimit:10" d="m.002 0 14.172 5.668L28.345 0l14.176 5.668" transform="matrix(1 0 0 -1 2.428 8.586)"/></g><g clip-path="url(#b)"><path style="fill:none;stroke-width:.3985;stroke-linecap:butt;stroke-linejoin:miter;stroke:#000;stroke-opacity:1;stroke-miterlimit:10" d="M.002 1.992V0m1.722-.996L.002 0m-1.727-.996L.002 0" transform="matrix(1 0 0 -1 2.428 8.586)"/></g><path style="fill:none;stroke-width:.3985;stroke-linecap:butt;stroke-linejoin:miter;stroke:#000;stroke-opacity:1;stroke-miterlimit:10" d="M14.174 7.66V5.668m1.726-.996-1.726.996m-1.727-.996 1.727.996" transform="matrix(1 0 0 -1 2.428 8.586)"/><g clip-path="url(#c)"><path style="fill:none;stroke-width:.3985;stroke-linecap:butt;stroke-linejoin:miter;stroke:#000;stroke-opacity:1;stroke-miterlimit:10" d="M28.345 1.992V0m1.727-.996L28.345 0m-1.722-.996L28.345 0" transform="matrix(1 0 0 -1 2.428 8.586)"/></g><g clip-path="url(#d)"><path style="fill:none;stroke-width:.3985;stroke-linecap:butt;stroke-linejoin:miter;stroke:#000;stroke-opacity:1;stroke-miterlimit:10" d="M42.521 7.66V5.668m1.723-.996-1.723.996m-1.726-.996 1.726.996" transform="matrix(1 0 0 -1 2.428 8.586)"/></g></svg>