<svg xmlns="http://www.w3.org/2000/svg" width="101.235" height="4.923" viewBox="0 0 75.926 3.692" version="1.2"><defs><clipPath id="a"><path d="M0 0h24v3.54H0Zm0 0"/></clipPath><clipPath id="b"><path d="M23 0h30v3.54H23Zm0 0"/></clipPath><clipPath id="c"><path d="M52 0h23.89v3.54H52Zm0 0"/></clipPath></defs><g clip-path="url(#a)"><path style="fill:none;stroke-width:.3985;stroke-linecap:butt;stroke-linejoin:miter;stroke:#000;stroke-opacity:1;stroke-miterlimit:10" d="M19.844 0c2.871 1.656 5.63 1.656 8.504 0 2.871 1.656 5.629 1.656 8.504 0" transform="matrix(1 0 0 -1 -18.77 2.301)"/></g><g clip-path="url(#b)"><path style="fill:none;stroke-width:.3985;stroke-linecap:butt;stroke-linejoin:miter;stroke:#000;stroke-opacity:1;stroke-miterlimit:10" d="M48.188 0c2.875 1.656 5.633 1.656 8.504 0 2.875 1.656 5.633 1.656 8.504 0" transform="matrix(1 0 0 -1 -18.77 2.301)"/></g><g clip-path="url(#c)"><path style="fill:none;stroke-width:.3985;stroke-linecap:butt;stroke-linejoin:miter;stroke:#000;stroke-opacity:1;stroke-miterlimit:10" d="M76.536 0c2.87 1.656 5.632 1.656 8.504 0 2.87 1.656 5.632 1.656 8.503 0" transform="matrix(1 0 0 -1 -18.77 2.301)"/></g></svg>