<svg xmlns="http://www.w3.org/2000/svg" width="128.763" height="68.259" viewBox="0 0 96.572 51.194" version="1.2"><defs><clipPath id="a"><path d="M0 0h96.36v50.79H0Zm0 0"/></clipPath></defs><path style="stroke:none;fill-rule:nonzero;fill:#fffbb3;fill-opacity:1" d="M22.063 35.617a7.085 7.085 0 0 0-7.086-7.086 7.085 7.085 0 0 0-7.086 7.086 7.085 7.085 0 0 0 7.086 7.086 7.085 7.085 0 0 0 7.085-7.086Zm-.426-2.422L92.93 7.27"/><g clip-path="url(#a)"><path style="fill:none;stroke-width:14.17339;stroke-linecap:butt;stroke-linejoin:miter;stroke:#b2b2b2;stroke-opacity:1;stroke-miterlimit:10" d="M-28.348-.001a7.085 7.085 0 0 1-7.085 7.086A7.085 7.085 0 0 1-42.52-.001a7.085 7.085 0 0 1 7.086-7.086 7.085 7.085 0 0 1 7.085 7.086Zm-.425 2.422L42.52 28.346" transform="matrix(1 0 0 -1 50.41 35.616)"/></g></svg>