<svg xmlns="http://www.w3.org/2000/svg" width="40.483" height="47.715" viewBox="0 0 30.362 35.786" version="1.2"><defs><clipPath id="a"><path d="M19 0h11.043v10H19Zm0 0"/></clipPath><clipPath id="b"><path d="M19 9h11.043v16H19Zm0 0"/></clipPath><clipPath id="c"><path d="M19 22h11.043v13.68H19Zm0 0"/></clipPath></defs><path style="fill:none;stroke-width:.3985;stroke-linecap:butt;stroke-linejoin:miter;stroke:#000;stroke-opacity:1;stroke-miterlimit:10" d="M.001 28.346h25.282" transform="matrix(1 0 0 -1 .69 31.069)"/><path style="stroke:none;fill-rule:nonzero;fill:#000;fill-opacity:1" d="m28.469 2.723-3.57-1.348 1.175 1.348-1.176 1.343Zm0 0"/><g clip-path="url(#a)"><path style="fill:none;stroke-width:.3985;stroke-linecap:butt;stroke-linejoin:miter;stroke:#000;stroke-opacity:1;stroke-miterlimit:10" d="M4.214 0 .644 1.347 1.82 0 .644-1.344Zm0 0" transform="matrix(1 0 0 -1 24.255 2.722)"/></g><path style="fill:none;stroke-width:.3985;stroke-linecap:butt;stroke-linejoin:miter;stroke:#000;stroke-opacity:1;stroke-miterlimit:10" d="M.001 14.174h25.247" transform="matrix(1 0 0 -1 .69 31.069)"/><path style="stroke:none;fill-rule:nonzero;fill:#000;fill-opacity:1" d="m28.629 16.895-3.856-2.176 1.266 2.176-1.266 2.18Zm0 0"/><g clip-path="url(#b)"><path style="fill:none;stroke-width:.3985;stroke-linecap:butt;stroke-linejoin:miter;stroke:#000;stroke-opacity:1;stroke-miterlimit:10" d="M4.374.001.52 2.177 1.784 0 .52-2.179Zm0 0" transform="matrix(1 0 0 -1 24.255 16.896)"/></g><path style="fill:none;stroke-width:.3985;stroke-linecap:butt;stroke-linejoin:miter;stroke:#000;stroke-opacity:1;stroke-miterlimit:10" d="M.001-.001h25.235" transform="matrix(1 0 0 -1 .69 31.069)"/><path style="stroke:none;fill-rule:nonzero;fill:#000;fill-opacity:1" d="m28.703 31.07-3.984-2.996 1.308 2.996-1.308 2.996Zm0 0"/><g clip-path="url(#c)"><path style="fill:none;stroke-width:.3985;stroke-linecap:butt;stroke-linejoin:miter;stroke:#000;stroke-opacity:1;stroke-miterlimit:10" d="M4.448-.001.464 2.995 1.773-.001.464-2.997Zm0 0" transform="matrix(1 0 0 -1 24.255 31.069)"/></g></svg>