<svg xmlns="http://www.w3.org/2000/svg" xmlns:xlink="http://www.w3.org/1999/xlink" width="246.763" height="142.995" viewBox="0 0 185.072 107.246" version="1.2"><defs><symbol overflow="visible" id="b"><path style="stroke:none" d="M5.563-1.813c.14 0 .312 0 .312-.171 0-.188-.172-.188-.313-.188H1c-.125 0-.297 0-.297.188 0 .171.172.171.297.171Zm0 0"/></symbol><symbol overflow="visible" id="c"><path style="stroke:none" d="M2.25-1.625c.125-.125.453-.39.594-.5.484-.453.953-.89.953-1.61 0-.953-.797-1.562-1.781-1.562-.97 0-1.594.719-1.594 1.438 0 .39.312.437.422.437.172 0 .422-.11.422-.422 0-.406-.407-.406-.5-.406.234-.594.765-.781 1.156-.781.734 0 1.125.625 1.125 1.297 0 .828-.578 1.437-1.531 2.39l-1 1.047C.422-.219.422-.203.422 0h3.14l.235-1.422h-.25c-.016.156-.078.547-.172.703-.047.063-.656.063-.781.063H1.172Zm0 0"/></symbol><symbol overflow="visible" id="d"><path style="stroke:none" d="M3.89-2.547c0-.844-.078-1.36-.343-1.875-.344-.703-1-.875-1.438-.875-1 0-1.375.75-1.484.969C.344-3.75.328-2.953.328-2.547c0 .531.016 1.328.406 1.969.36.594.954.75 1.375.75.391 0 1.063-.125 1.47-.906.296-.579.312-1.297.312-1.813ZM2.11-.062c-.266 0-.813-.126-.985-.954-.094-.453-.094-1.203-.094-1.625 0-.546 0-1.109.094-1.546.172-.813.781-.891.984-.891.266 0 .829.14.985.86.094.437.094 1.046.094 1.577 0 .47 0 1.188-.094 1.641-.172.828-.719.938-.985.938Zm0 0"/></symbol><symbol overflow="visible" id="e"><path style="stroke:none" d="M3.14-5.156c0-.157 0-.219-.171-.219-.094 0-.11 0-.188.11L.234-1.564v.25h2.25v.672c0 .297-.015.375-.64.375h-.172V0c.672-.031.687-.031 1.14-.031.454 0 .47 0 1.141.031v-.266h-.172c-.625 0-.64-.078-.64-.375v-.671h.843v-.25h-.843Zm-.593.64v2.954H.516Zm0 0"/></symbol><symbol overflow="visible" id="f"><path style="stroke:none" d="M1.11-4.484c.109.03.421.125.765.125 1 0 1.594-.704 1.594-.829 0-.093-.047-.109-.094-.109-.016 0-.031 0-.094.031a2.982 2.982 0 0 1-1.11.22c-.468 0-.858-.11-1.108-.22-.079-.03-.094-.03-.11-.03-.094 0-.094.077-.094.234v2.328c0 .14 0 .234.125.234.063 0 .079-.031.125-.094.094-.11.391-.515 1.079-.515.437 0 .656.359.734.515.125.281.14.656.14.953 0 .297 0 .735-.218 1.079-.156.25-.485.484-.906.484A1.271 1.271 0 0 1 .734-.922c.016.016.079.016.079.016.218 0 .406-.14.406-.39a.388.388 0 0 0-.39-.407c-.157 0-.407.078-.407.422 0 .718.625 1.453 1.531 1.453 1 0 1.844-.781 1.844-1.766 0-.922-.672-1.75-1.61-1.75-.39 0-.765.125-1.078.406Zm0 0"/></symbol><symbol overflow="visible" id="g"><path style="stroke:none" d="M2.5-5.078c0-.219-.016-.219-.234-.219-.329.313-.75.5-1.5.5v.266c.218 0 .64 0 1.109-.203v4.078c0 .297-.031.39-.781.39H.812V0c.329-.031 1.016-.031 1.375-.031.36 0 1.047 0 1.376.031v-.266H3.28c-.75 0-.781-.093-.781-.39Zm0 0"/></symbol><clipPath id="a"><path d="M33 0h151.61v100H33Zm0 0"/></clipPath></defs><path style="fill:none;stroke-width:.3985;stroke-linecap:round;stroke-linejoin:miter;stroke:gray;stroke-opacity:1;stroke-miterlimit:10" d="M17.717-6.975v1.992M53.15-6.975v1.992M88.584-6.975v1.992M124.017-6.975v1.992M-30.338.001h1.992M-30.338 17.52h1.992M-30.338 35.037h1.992M-30.338 52.556h1.992M-30.338 70.076h1.992M-30.338 87.595h1.992" transform="matrix(1 0 0 -1 41.592 90.935)"/><path style="fill:none;stroke-width:.3985;stroke-linecap:butt;stroke-linejoin:miter;stroke:gray;stroke-opacity:1;stroke-miterlimit:10" d="M.002-4.983h141.73" transform="matrix(1 0 0 -1 41.592 90.935)"/><path style="fill:none;stroke-width:.3985;stroke-linecap:square;stroke-linejoin:miter;stroke:#bfbfbf;stroke-opacity:1;stroke-miterlimit:10" d="M.002.001h141.73M.002 87.591h141.73" transform="matrix(1 0 0 -1 41.592 90.935)"/><path style="fill:none;stroke-width:.3985;stroke-linecap:butt;stroke-linejoin:miter;stroke:gray;stroke-opacity:1;stroke-miterlimit:10" d="M-28.346.001v87.59" transform="matrix(1 0 0 -1 41.592 90.935)"/><path style="fill:none;stroke-width:.3985;stroke-linecap:square;stroke-linejoin:miter;stroke:#bfbfbf;stroke-opacity:1;stroke-miterlimit:10" d="M.002.001v87.59M141.732.001v87.59" transform="matrix(1 0 0 -1 41.592 90.935)"/><g clip-path="url(#a)"><path style="fill:none;stroke-width:.59776;stroke-linecap:butt;stroke-linejoin:miter;stroke:#000;stroke-opacity:1;stroke-miterlimit:10" d="M.002 31.533s4.265-4.887 5.902-6.618c1.64-1.726 4.27-4.328 5.906-5.84 1.641-1.511 4.266-3.765 5.907-5.058 1.636-1.297 4.265-3.203 5.906-4.285 1.637-1.078 4.265-2.637 5.906-3.504 1.637-.863 4.266-2.074 5.902-2.723 1.641-.648 4.27-1.515 5.907-1.949 1.64-.43 4.27-.95 5.906-1.168C48.884.173 51.51.001 53.15.001c1.637 0 4.266.172 5.906.387 1.637.219 4.266.738 5.903 1.168 1.64.434 4.27 1.3 5.906 1.95 1.64.644 4.27 1.859 5.906 2.722 1.64.863 4.266 2.422 5.907 3.504a103.345 103.345 0 0 1 5.906 4.281c1.636 1.297 4.265 3.55 5.906 5.063a147.784 147.784 0 0 1 5.902 5.84c1.641 1.726 4.27 4.671 5.907 6.617a222.643 222.643 0 0 1 5.906 7.394c1.637 2.164 4.266 5.801 5.906 8.176a339.643 339.643 0 0 1 5.906 8.953 387.772 387.772 0 0 1 5.903 9.734c1.64 2.81 4.27 7.485 5.906 10.512 1.64 3.024 5.906 11.29 5.906 11.29" transform="matrix(1 0 0 -1 41.592 90.935)"/></g><use xlink:href="#b" x="53.898" y="105.702" style="fill:#000;fill-opacity:1"/><use xlink:href="#c" x="60.484" y="105.702" style="fill:#000;fill-opacity:1"/><use xlink:href="#d" x="92.624" y="105.702" style="fill:#000;fill-opacity:1"/><use xlink:href="#c" x="128.057" y="105.702" style="fill:#000;fill-opacity:1"/><use xlink:href="#e" x="163.49" y="105.702" style="fill:#000;fill-opacity:1"/><use xlink:href="#d" x="4.362" y="93.504" style="fill:#000;fill-opacity:1"/><use xlink:href="#f" x="4.362" y="75.985" style="fill:#000;fill-opacity:1"/><g style="fill:#000;fill-opacity:1"><use xlink:href="#g" x=".128" y="58.466"/><use xlink:href="#d" x="4.363" y="58.466"/></g><g style="fill:#000;fill-opacity:1"><use xlink:href="#g" x=".128" y="40.947"/><use xlink:href="#f" x="4.363" y="40.947"/></g><g style="fill:#000;fill-opacity:1"><use xlink:href="#c" x=".128" y="23.428"/><use xlink:href="#d" x="4.363" y="23.428"/></g><g style="fill:#000;fill-opacity:1"><use xlink:href="#c" x=".128" y="5.91"/><use xlink:href="#f" x="4.363" y="5.91"/></g></svg>