<svg xmlns="http://www.w3.org/2000/svg" width="97.544" height="61.035" viewBox="0 0 73.158 45.776" version="1.2"><defs><clipPath id="a"><path d="M0 5h66v40.664H0Zm0 0"/></clipPath><clipPath id="b"><path d="M51 14h21.738v31.664H51Zm0 0"/></clipPath></defs><g clip-path="url(#a)"><path style="fill:none;stroke-width:.3985;stroke-linecap:butt;stroke-linejoin:miter;stroke:#000;stroke-opacity:1;stroke-miterlimit:10" d="M28.346 0C52.895 14.174 99.213-3.799 85.04-28.35" transform="matrix(1 0 0 -1 -27.658 16.214)"/></g><path style="fill:none;stroke-width:.3985;stroke-linecap:butt;stroke-linejoin:miter;stroke:gray;stroke-opacity:1;stroke-miterlimit:10" d="m28.346 0 24.207 13.976" transform="matrix(1 0 0 -1 -27.658 16.214)"/><path style="fill:none;stroke-width:.3985;stroke-linecap:round;stroke-linejoin:round;stroke:gray;stroke-opacity:1;stroke-miterlimit:10" d="M-2.073 2.392C-1.693.955-.85.278 0-.001-.851-.28-1.693-.958-2.073-2.39" transform="scale(.99998 -.99998) rotate(29.999 16.527 45.704)"/><g clip-path="url(#b)"><path style="fill:none;stroke-width:.3985;stroke-linecap:butt;stroke-linejoin:miter;stroke:gray;stroke-opacity:1;stroke-miterlimit:10" d="M85.24-28 99.213-3.799" transform="matrix(1 0 0 -1 -27.658 16.214)"/></g><path style="fill:none;stroke-width:.3985;stroke-linecap:round;stroke-linejoin:round;stroke:gray;stroke-opacity:1;stroke-miterlimit:10" d="M-2.073 2.392C-1.694.955-.849.279 0-.002-.85-.281-1.695-.958-2.073-2.39" transform="matrix(-.49998 .86601 .86601 .49998 57.482 44.388)"/></svg>