<svg xmlns="http://www.w3.org/2000/svg" xmlns:xlink="http://www.w3.org/1999/xlink" width="447.531" height="361.539" viewBox="0 0 335.648 271.154" version="1.2"><defs><symbol overflow="visible" id="b"><path style="stroke:none" d="M7.64-2.266c0-.203-.077-.203-.25-.203-.124 0-.218 0-.218.172C7.094-.969 5.89-.359 4.89-.359c-.782 0-1.625-.235-2.141-.844-.469-.578-.594-1.313-.594-2.219 0-.562.031-1.625.672-2.297.64-.656 1.516-.765 2.031-.765 1.079 0 2.016.765 2.235 2.03.031.188.047.204.265.204.266 0 .282-.016.282-.281v-2.14c0-.188 0-.282-.188-.282-.094 0-.11.031-.187.094l-.657.593a3.03 3.03 0 0 0-1.968-.687c-2.485 0-4 1.484-4 3.531S2.156.11 4.64.11c1.875 0 3-1.218 3-2.375Zm0 0"/></symbol><symbol overflow="visible" id="c"><path style="stroke:none" d="M2.844 0v-.469h-.61v-4.015L.5-4.406v.468c.594 0 .656 0 .656.391v3.078H.47V0l1.219-.031Zm-.469-6.047a.774.774 0 0 0-.781-.781.784.784 0 0 0-.782.781c0 .422.36.766.782.766a.77.77 0 0 0 .781-.766Zm0 0"/></symbol><symbol overflow="visible" id="d"><path style="stroke:none" d="M4.406-3.672c0-.531-.531-.812-1.062-.812-.688 0-1.094.5-1.313 1.125v-1.125l-1.656.078v.468c.61 0 .688 0 .688.391v3.078H.375V0l1.25-.031C2-.031 2.641-.031 3 0v-.469h-.86v-1.75c0-.687.235-1.906 1.235-1.906 0 0-.188.172-.188.453 0 .406.329.61.61.61.297 0 .61-.204.61-.61Zm0 0"/></symbol><symbol overflow="visible" id="e"><path style="stroke:none" d="M4.766-1.172c0-.14-.141-.14-.235-.14-.187 0-.187.03-.25.156-.25.625-.734.812-1.234.812-1.39 0-1.39-1.453-1.39-1.922 0-.562 0-1.843 1.28-1.843.36 0 .516.015.657.046a.618.618 0 0 0-.203.47c0 .437.343.624.609.624.313 0 .64-.219.64-.625 0-.86-1.156-.922-1.734-.922C1.11-4.516.375-3.375.375-2.219.375-.89 1.313.062 2.844.062c1.625 0 1.922-1.156 1.922-1.234Zm0 0"/></symbol><symbol overflow="visible" id="f"><path style="stroke:none" d="M6.125 0v-.469c-.61 0-.688 0-.688-.39v-3.625l-1.812.078v.468c.61 0 .688 0 .688.391v1.906c0 .813-.516 1.344-1.235 1.344-.781 0-.812-.25-.812-.797v-3.39l-1.813.078v.468c.61 0 .688 0 .688.391v2.328c0 1.063.796 1.282 1.796 1.282.25 0 .97 0 1.422-.782v.781Zm0 0"/></symbol><symbol overflow="visible" id="g"><path style="stroke:none" d="M2.922 0v-.469h-.688v-6.453L.47-6.844v.469c.625 0 .687 0 .687.39v5.516H.47V0l1.219-.031Zm0 0"/></symbol><symbol overflow="visible" id="h"><path style="stroke:none" d="M5.516-.234c0-.235-.125-.235-.266-.235-.61-.015-.61-.14-.61-.375v-2.14c0-.891-.702-1.532-2.187-1.532-.562 0-1.781.047-1.781.922 0 .438.344.625.61.625.312 0 .624-.219.624-.625 0-.297-.187-.469-.218-.5a5.28 5.28 0 0 1 .718-.062c.75 0 1.11.422 1.11 1.172v.343c-.72.032-3.25.125-3.25 1.563C.266-.125 1.5.062 2.187.062c.797 0 1.266-.406 1.485-.828 0 .313 0 .766 1.047.766h.468c.204 0 .329 0 .329-.234Zm-2-1.157c0 .97-.922 1.094-1.172 1.094-.516 0-.906-.344-.906-.797 0-1.062 1.578-1.203 2.078-1.234Zm0 0"/></symbol><symbol overflow="visible" id="i"><path style="stroke:none" d="M5.719-2.031c0-1.094-.797-1.906-1.719-2.094l-1.438-.313c-.406-.093-.953-.421-.953-1.03 0-.438.282-1.048 1.266-1.048.797 0 1.813.329 2.047 1.688.031.25.031.266.234.266.25 0 .25-.047.25-.282v-1.828c0-.187 0-.281-.187-.281-.078 0-.078.016-.188.11l-.453.437C4-6.86 3.344-6.953 2.875-6.953c-1.516 0-2.234.969-2.234 2.016 0 .64.328 1.093.53 1.312.5.5.829.563 1.923.797.875.203 1.047.219 1.265.437.141.141.391.407.391.86 0 .484-.25 1.172-1.297 1.172-.75 0-2.265-.204-2.344-1.688-.015-.172-.015-.219-.234-.219-.234 0-.234.047-.234.282v1.812C.64.016.64.11.812.11.906.11.922.094 1 .016l.469-.454C2.125.047 3.047.11 3.453.11 5.11.11 5.72-1.016 5.72-2.03Zm0 0"/></symbol><symbol overflow="visible" id="j"><path style="stroke:none" d="M4.922-1.172c0-.172-.188-.172-.234-.172-.172 0-.188.047-.25.203-.204.485-.782.797-1.422.797-1.407 0-1.422-1.328-1.422-1.828h3.015c.22 0 .313 0 .313-.265 0-.313-.063-1.047-.563-1.547-.359-.36-.89-.532-1.578-.532C1.187-4.516.312-3.484.312-2.25c0 1.344 1 2.313 2.61 2.313 1.578 0 2-1.063 2-1.235ZM3.984-2.5h-2.39c.015-.39.031-.813.234-1.14.266-.391.672-.516.953-.516 1.172 0 1.188 1.312 1.203 1.656Zm0 0"/></symbol><symbol overflow="visible" id="k"><path style="stroke:none" d="M3.813-1.234v-.532h-.47v.516c0 .672-.327.906-.609.906-.578 0-.578-.64-.578-.86v-2.75h1.469v-.468H2.156v-1.906h-.469c0 1-.484 1.984-1.484 2.016v.359h.828v2.734c0 1.063.86 1.282 1.578 1.282.75 0 1.204-.579 1.204-1.297Zm0 0"/></symbol><symbol overflow="visible" id="l"><path style="stroke:none" d="M5.406-2.172c0-1.344-.922-2.344-2.547-2.344C1.22-4.516.313-3.5.313-2.172c0 1.235.89 2.235 2.546 2.235 1.672 0 2.547-1.016 2.547-2.235Zm-1.281-.11c0 .86 0 1.938-1.266 1.938-1.265 0-1.265-1.078-1.265-1.937 0-.453 0-.953.172-1.297.187-.375.609-.578 1.093-.578.422 0 .844.156 1.063.5.203.344.203.89.203 1.375Zm0 0"/></symbol><symbol overflow="visible" id="m"><path style="stroke:none" d="M3.078.313c0-.126-.047-.157-.187-.25C2.062-.5 1.75-1.391 1.75-2.126c0-.672.25-1.594 1.156-2.203.125-.094.172-.125.172-.25a.254.254 0 0 0-.265-.25c-.204 0-1.641.906-1.641 2.703 0 .813.312 1.438.562 1.781.375.516.907.906 1.079.906.218 0 .265-.171.265-.25Zm0 0"/></symbol><symbol overflow="visible" id="n"><path style="stroke:none" d="M3.219-.906c0-.735-.906-.906-1.14-.938l-.704-.125C1.187-2 1-2.079 1-2.25c0-.156.219-.328.813-.328.515 0 .609.172.625.328.015.14.03.281.28.281.298 0 .298-.156.298-.328v-.469c0-.14-.016-.328-.25-.328-.157 0-.22.063-.25.125-.282-.125-.563-.125-.688-.125-1.187 0-1.344.594-1.344.844 0 .656.735.797 1.391.89.297.063.828.141.828.454 0 .234-.25.422-.828.422-.297 0-.656-.063-.813-.563-.03-.156-.078-.234-.28-.234-.298 0-.298.172-.298.328v.656c0 .14 0 .344.25.344.079 0 .188 0 .282-.234.328.218.671.234.859.234 1.125 0 1.344-.61 1.344-.953Zm0 0"/></symbol><symbol overflow="visible" id="o"><path style="stroke:none" d="M2.313-.469a.477.477 0 0 0-.485-.484.47.47 0 0 0-.469.469c0 .28.22.484.47.484a.473.473 0 0 0 .484-.469Zm0 0"/></symbol><symbol overflow="visible" id="p"><path style="stroke:none" d="M3.25-.797c0-.234-.234-.234-.281-.234-.156 0-.219.015-.281.172-.141.328-.485.375-.657.375-.469 0-.937-.297-1.062-.813h1.953c.172 0 .328 0 .328-.312 0-.797-.453-1.485-1.375-1.485-.828 0-1.516.703-1.516 1.563S1.08.047 1.984.047c.938 0 1.266-.656 1.266-.844Zm-.594-1.015H.97c.125-.438.484-.766.906-.766.328 0 .703.156.781.765Zm0 0"/></symbol><symbol overflow="visible" id="q"><path style="stroke:none" d="M3.266-.797c0-.234-.235-.234-.297-.234-.125 0-.203 0-.266.172-.047.078-.187.375-.625.375a1.027 1.027 0 0 1-1.015-1.032c0-.312.187-1.062 1.062-1.062l.344.015c.015.282.172.376.36.376.187 0 .358-.126.358-.36 0-.531-.734-.547-1.062-.547-1.219 0-1.64.953-1.64 1.578 0 .844.671 1.563 1.546 1.563 1 0 1.235-.719 1.235-.844Zm0 0"/></symbol><symbol overflow="visible" id="r"><path style="stroke:none" d="M3.14-.906c0-.156 0-.313-.296-.313-.266 0-.266.157-.266.297-.015.375-.36.438-.515.438-.454 0-.454-.313-.454-.47v-1.562h1.047c.125 0 .328 0 .328-.265 0-.25-.187-.25-.328-.25H1.61v-.516c0-.14-.015-.328-.296-.328-.282 0-.282.172-.282.328v.516H.484c-.125 0-.328 0-.328.25 0 .265.203.265.328.265h.547v1.61c0 .687.485.953 1.016.953S3.14-.266 3.14-.906Zm0 0"/></symbol><symbol overflow="visible" id="s"><path style="stroke:none" d="M3.281-1.516c0-.89-.672-1.578-1.453-1.578-.797 0-1.453.688-1.453 1.578 0 .891.672 1.563 1.453 1.563.766 0 1.453-.688 1.453-1.563Zm-.578-.046c0 .593-.406 1.078-.875 1.078S.953-.97.953-1.563c0-.593.422-1.015.875-1.015s.875.422.875 1.015Zm0 0"/></symbol><symbol overflow="visible" id="t"><path style="stroke:none" d="M3.406-2.594c0-.156-.078-.484-.703-.484-.328 0-.734.11-1.094.469v-.094c0-.25-.046-.328-.328-.328h-.75c-.125 0-.328 0-.328.25 0 .265.203.265.328.265h.5v2h-.5c-.125 0-.328 0-.328.25C.203 0 .406 0 .531 0h1.781c.126 0 .329 0 .329-.266 0-.25-.204-.25-.329-.25H1.61v-.796c0-.61.36-1.22 1.11-1.235 0 .156.172.281.344.281.187 0 .343-.125.343-.328Zm0 0"/></symbol><symbol overflow="visible" id="u"><path style="stroke:none" d="M3.578-.266c0-.25-.203-.25-.328-.25H3v-1.53c0-.72-.36-1.032-.938-1.032-.39 0-.671.172-.843.297 0-.172-.047-.25-.313-.25h-.5c-.14 0-.328 0-.328.25 0 .265.203.265.313.265h.25v2H.406c-.14 0-.328 0-.328.25C.078 0 .281 0 .391 0h1.093c.11 0 .329 0 .329-.266 0-.25-.204-.25-.344-.25h-.25v-1.156c0-.64.484-.875.797-.875.328 0 .406.172.406.547v1.484h-.203c-.14 0-.344 0-.344.25 0 .266.219.266.344.266H3.25c.11 0 .328 0 .328-.266Zm0 0"/></symbol><symbol overflow="visible" id="v"><path style="stroke:none" d="M2.484-2.125c0-.828-.312-1.453-.562-1.797-.375-.515-.906-.906-1.078-.906-.203 0-.266.187-.266.25 0 .125.094.187.14.219 1.095.718 1.188 1.796 1.188 2.234 0 .656-.25 1.578-1.14 2.188C.64.14.578.186.578.313c0 .078.063.25.266.25s1.64-.907 1.64-2.688Zm0 0"/></symbol><symbol overflow="visible" id="w"><path style="stroke:none" d="M3.625-.266c0-.25-.203-.25-.328-.25-.203 0-.297-.03-.344-.046V-2c0-.5-.375-1.094-1.406-1.094-.313 0-1.031.016-1.031.547 0 .235.171.36.359.36.11 0 .344-.063.344-.36 0 0 .234-.031.343-.031.454 0 .782.187.813.594-1.219.03-2.047.39-2.047 1.062 0 .485.453.969 1.188.969.234 0 .656-.047.968-.25.172.187.485.203.75.203.235 0 .391-.016.391-.266ZM2.359-.969c0 .14 0 .266-.234.375-.234.11-.516.11-.578.11-.39 0-.64-.204-.64-.438 0-.312.546-.515 1.452-.562Zm0 0"/></symbol><symbol overflow="visible" id="x"><path style="stroke:none" d="M3.578-.266c0-.25-.203-.25-.328-.25H3v-3.406c0-.25-.047-.344-.328-.344h-.485c-.14 0-.343.016-.343.266s.218.266.328.266h.25v.906a1.261 1.261 0 0 0-.735-.25c-.765 0-1.453.672-1.453 1.562C.234-.64.875.047 1.625.047c.344 0 .61-.14.797-.313.015.188.062.266.328.266h.5c.125 0 .328 0 .328-.266ZM2.422-1.375c0 .36-.297.89-.781.89-.454 0-.829-.453-.829-1.03 0-.61.438-1.032.891-1.032.406 0 .719.344.719.688Zm0 0"/></symbol><symbol overflow="visible" id="y"><path style="stroke:none" d="M3.422-1.516c0-.875-.64-1.562-1.39-1.562-.298 0-.579.11-.813.265v-1.109c0-.25-.047-.344-.313-.344h-.5c-.14 0-.344.016-.344.266s.22.266.329.266h.25v3.406C.64-.172.656 0 .937 0c.22 0 .282-.094.282-.234.265.218.531.28.734.28.766 0 1.469-.671 1.469-1.562Zm-.578 0c0 .61-.453 1.032-.906 1.032-.485 0-.704-.563-.704-.875v-.485c0-.375.375-.703.766-.703.469 0 .844.469.844 1.031Zm0 0"/></symbol><symbol overflow="visible" id="z"><path style="stroke:none" d="M3.64-.266c0-.218-.14-.25-.39-.25v-1.593c0-.157-.016-.97-.656-.97a.842.842 0 0 0-.656.313.61.61 0 0 0-.532-.312.875.875 0 0 0-.547.203c-.046-.156-.187-.156-.312-.156H.328c-.125 0-.328 0-.328.25 0 .234.125.265.39.265v2c-.265 0-.39.032-.39.25C0 0 .219 0 .328 0h.594c.125 0 .312 0 .312-.266 0-.218-.109-.25-.359-.25v-1.171c0-.563.234-.86.5-.86.14 0 .203.11.203.5v1.531c-.156 0-.281.032-.281.25 0 .266.187.266.312.266h.516c.125 0 .313 0 .313-.266 0-.218-.126-.25-.376-.25v-1.171c0-.563.25-.86.5-.86.141 0 .204.11.204.5v1.531c-.141 0-.282.032-.282.25 0 .266.204.266.313.266h.5c.125 0 .344 0 .344-.266Zm0 0"/></symbol><symbol overflow="visible" id="A"><path style="stroke:none" d="M3.188-.266c0-.25-.204-.25-.329-.25h-.656v-2.187c0-.25-.047-.328-.328-.328H.906c-.125 0-.328 0-.328.25 0 .265.203.265.328.265h.719v2H.859c-.14 0-.343 0-.343.25C.516 0 .734 0 .859 0h2c.125 0 .329 0 .329-.266Zm-.954-3.562a.39.39 0 0 0-.406-.39.387.387 0 0 0-.39.39c0 .219.171.39.39.39a.39.39 0 0 0 .406-.39Zm0 0"/></symbol><symbol overflow="visible" id="B"><path style="stroke:none" d="M3.469-.266c0-.25-.203-.25-.328-.25h-.25l-.829-1.046.735-.954h.234c.125 0 .344 0 .344-.265 0-.25-.219-.25-.344-.25H2.25c-.125 0-.328 0-.328.25 0 .203.11.265.281.265l-.39.547-.422-.547c.156 0 .28-.062.28-.265 0-.25-.202-.25-.327-.25H.547c-.125 0-.328 0-.328.25 0 .265.218.265.328.265h.25l.75.954L.75-.516H.516c-.125 0-.344 0-.344.25C.172 0 .39 0 .516 0h.78c.126 0 .329 0 .329-.266 0-.203-.11-.25-.297-.25l.484-.703.5.703c-.187 0-.296.047-.296.25 0 .266.203.266.328.266h.797c.109 0 .328 0 .328-.266Zm0 0"/></symbol><symbol overflow="visible" id="C"><path style="stroke:none" d="M3.578-.266c0-.25-.203-.25-.328-.25H3v-1.53c0-.72-.36-1.032-.938-1.032-.39 0-.671.172-.843.297v-1.14c0-.25-.047-.345-.313-.345h-.5c-.14 0-.328.016-.328.266s.203.266.313.266h.25v3.218H.406c-.14 0-.328 0-.328.25C.078 0 .281 0 .391 0h1.093c.11 0 .329 0 .329-.266 0-.25-.204-.25-.344-.25h-.25v-1.156c0-.64.484-.875.797-.875.328 0 .406.172.406.547v1.484h-.203c-.14 0-.344 0-.344.25 0 .266.219.266.344.266H3.25c.11 0 .328 0 .328-.266Zm0 0"/></symbol><symbol overflow="visible" id="D"><path style="stroke:none" d="M3.578-.266c0-.25-.219-.25-.328-.25H3v-2.187c0-.25-.047-.328-.328-.328h-.485c-.14 0-.343 0-.343.25 0 .265.218.265.328.265h.25v1.391c0 .563-.516.64-.719.64-.469 0-.484-.187-.484-.39v-1.828c0-.25-.047-.328-.313-.328h-.5c-.14 0-.328 0-.328.25 0 .265.203.265.313.265h.25v1.688c0 .687.5.875 1.03.875.266 0 .516-.063.766-.219C2.485 0 2.626 0 2.75 0h.5c.125 0 .328 0 .328-.266Zm0 0"/></symbol><symbol overflow="visible" id="E"><path style="stroke:none" d="M3.547-2.781c0-.25-.188-.25-.328-.25h-.781c-.157 0-.344 0-.344.25 0 .265.172.265.344.265h.265l-.297 1.72-.14-.532c-.125-.469-.172-.547-.422-.547-.094 0-.235 0-.328.188l-.266.906-.297-1.735h.266c.156 0 .343 0 .343-.265 0-.25-.187-.25-.343-.25H.437c-.14 0-.343 0-.343.25 0 .234.14.265.36.265L.858-.28c.032.187.047.312.36.312.312 0 .343-.062.453-.515l.172-.641.265 1c.094.14.235.156.344.156.281 0 .313-.125.344-.312l.406-2.235c.219 0 .344-.03.344-.265Zm0 0"/></symbol><symbol overflow="visible" id="F"><path style="stroke:none" d="M3.36-1.234c0-.47-.297-.875-.72-1.094.344-.25.516-.64.516-1 0-.516-.515-1-1.328-1-.86 0-1.344.36-1.344.844 0 .265.204.375.36.375.172 0 .36-.141.36-.36 0-.078-.032-.14-.048-.172.203-.171.625-.171.688-.171.422 0 .734.218.734.5a.718.718 0 0 1-.25.546c-.219.172-.375.188-.61.188-.437 0-.546.062-.546.281 0 .266.203.266.328.266h.313c.64 0 .968.422.968.797 0 .39-.36.78-.937.78-.25 0-.719-.062-.907-.327A.364.364 0 0 0 1-1a.363.363 0 0 0-.36-.36c-.171 0-.343.126-.343.391C.297-.344.969.078 1.844.078c.922 0 1.515-.656 1.515-1.312Zm0 0"/></symbol><symbol overflow="visible" id="G"><path style="stroke:none" d="M3.313-2.125c0-1.297-.72-2.203-1.485-2.203-.781 0-1.5.922-1.5 2.203 0 1.297.734 2.203 1.5 2.203.781 0 1.484-.922 1.484-2.203Zm-.563-.078c0 .969-.422 1.75-.922 1.75-.516 0-.922-.781-.922-1.75 0-.953.438-1.61.922-1.61.469 0 .922.657.922 1.61Zm0 0"/></symbol><clipPath id="a"><path d="M0 0h335.473v270.73H0Zm0 0"/></clipPath></defs><path style="stroke:none;fill-rule:nonzero;fill:#fffbb3;fill-opacity:1" d="M290.36 131.477 83.09 11.809c-42.75 74.043-42.75 165.293 0 239.336Zm0 0"/><g clip-path="url(#a)"><path style="fill:none;stroke-width:14.17339;stroke-linecap:butt;stroke-linejoin:miter;stroke:#b2b2b2;stroke-opacity:1;stroke-miterlimit:10" d="m165.404 0-207.27 119.667c-42.75-74.043-42.75-165.293 0-239.336Zm0 0" transform="matrix(1 0 0 -1 124.955 131.476)"/></g><g style="fill:#b2b2b2;fill-opacity:1"><use xlink:href="#b" x="86.19" y="159.767"/><use xlink:href="#c" x="94.469" y="159.767"/><use xlink:href="#d" x="97.647" y="159.767"/><use xlink:href="#e" x="102.369" y="159.767"/><use xlink:href="#f" x="107.46" y="159.767"/><use xlink:href="#g" x="113.826" y="159.767"/><use xlink:href="#h" x="117.004" y="159.767"/><use xlink:href="#d" x="122.574" y="159.767"/></g><g style="fill:#b2b2b2;fill-opacity:1"><use xlink:href="#i" x="131.112" y="159.767"/><use xlink:href="#j" x="137.478" y="159.767"/><use xlink:href="#e" x="142.728" y="159.767"/><use xlink:href="#k" x="147.819" y="159.767"/><use xlink:href="#l" x="152.272" y="159.767"/><use xlink:href="#d" x="158.001" y="159.767"/></g><path style="fill:none;stroke-width:.996;stroke-linecap:butt;stroke-linejoin:miter;stroke:#b2b2b2;stroke-opacity:1;stroke-miterlimit:10" d="M.002-.002v56.805" transform="matrix(1 0 0 -1 163.221 159.877)"/><path style="fill:none;stroke-width:.3985;stroke-linecap:butt;stroke-linejoin:miter;stroke:#000;stroke-opacity:1;stroke-miterlimit:10" d="m178.166-1.41 2.82 2.82m-2.82 0 2.82-2.82" transform="matrix(1 0 0 -1 124.955 131.476)"/><g style="fill:#000;fill-opacity:1"><use xlink:href="#m" x="273.408" y="127.398"/><use xlink:href="#n" x="277.069" y="127.398"/><use xlink:href="#o" x="280.731" y="127.398"/><use xlink:href="#n" x="284.392" y="127.398"/><use xlink:href="#p" x="288.053" y="127.398"/><use xlink:href="#q" x="291.714" y="127.398"/><use xlink:href="#r" x="295.376" y="127.398"/><use xlink:href="#s" x="299.037" y="127.398"/><use xlink:href="#t" x="302.698" y="127.398"/></g><g style="fill:#000;fill-opacity:1"><use xlink:href="#q" x="310.021" y="127.398"/><use xlink:href="#p" x="313.682" y="127.398"/><use xlink:href="#u" x="317.343" y="127.398"/><use xlink:href="#r" x="321.005" y="127.398"/><use xlink:href="#p" x="324.666" y="127.398"/><use xlink:href="#t" x="328.327" y="127.398"/><use xlink:href="#v" x="331.988" y="127.398"/></g><path style="fill:none;stroke-width:.3985;stroke-linecap:butt;stroke-linejoin:miter;stroke:#000;stroke-opacity:1;stroke-miterlimit:10" d="m-45.87 127.937 2.817 2.82m-2.816 0 2.816-2.82" transform="matrix(1 0 0 -1 124.955 131.476)"/><g style="fill:#000;fill-opacity:1"><use xlink:href="#m" x="56.696" y="10.476"/><use xlink:href="#n" x="60.357" y="10.476"/><use xlink:href="#o" x="64.019" y="10.476"/><use xlink:href="#w" x="67.68" y="10.476"/><use xlink:href="#t" x="71.341" y="10.476"/><use xlink:href="#q" x="75.002" y="10.476"/></g><g style="fill:#000;fill-opacity:1"><use xlink:href="#n" x="82.325" y="10.476"/><use xlink:href="#r" x="85.986" y="10.476"/><use xlink:href="#w" x="89.647" y="10.476"/><use xlink:href="#t" x="93.309" y="10.476"/><use xlink:href="#r" x="96.97" y="10.476"/><use xlink:href="#v" x="100.631" y="10.476"/></g><path style="fill:none;stroke-width:.3985;stroke-linecap:butt;stroke-linejoin:miter;stroke:#000;stroke-opacity:1;stroke-miterlimit:10" d="m-45.87-130.758 2.817 2.82m-2.816 0 2.816-2.82" transform="matrix(1 0 0 -1 124.955 131.476)"/><g style="fill:#000;fill-opacity:1"><use xlink:href="#m" x="60.358" y="269.167"/><use xlink:href="#n" x="64.019" y="269.167"/><use xlink:href="#o" x="67.681" y="269.167"/><use xlink:href="#w" x="71.342" y="269.167"/><use xlink:href="#t" x="75.003" y="269.167"/><use xlink:href="#q" x="78.664" y="269.167"/></g><g style="fill:#000;fill-opacity:1"><use xlink:href="#p" x="85.987" y="269.167"/><use xlink:href="#u" x="89.648" y="269.167"/><use xlink:href="#x" x="93.309" y="269.167"/><use xlink:href="#v" x="96.971" y="269.167"/></g><path style="fill:none;stroke-width:.3985;stroke-linecap:butt;stroke-linejoin:miter;stroke:#000;stroke-opacity:1;stroke-miterlimit:10" d="m-82.428-1.41 2.82 2.82m-2.82 0 2.82-2.82" transform="matrix(1 0 0 -1 124.955 131.476)"/><g style="fill:#000;fill-opacity:1"><use xlink:href="#m" x="18.309" y="139.821"/><use xlink:href="#n" x="21.97" y="139.821"/><use xlink:href="#o" x="25.632" y="139.821"/><use xlink:href="#w" x="29.293" y="139.821"/><use xlink:href="#t" x="32.954" y="139.821"/><use xlink:href="#q" x="36.615" y="139.821"/></g><g style="fill:#000;fill-opacity:1"><use xlink:href="#q" x="43.938" y="139.821"/><use xlink:href="#p" x="47.599" y="139.821"/><use xlink:href="#u" x="51.26" y="139.821"/><use xlink:href="#r" x="54.922" y="139.821"/><use xlink:href="#p" x="58.583" y="139.821"/><use xlink:href="#t" x="62.244" y="139.821"/><use xlink:href="#v" x="65.906" y="139.821"/></g><path style="fill:none;stroke-width:.3985;stroke-linecap:butt;stroke-linejoin:miter;stroke:#000;stroke-opacity:1;stroke-miterlimit:10" d="m-1.408-1.41 2.816 2.82m-2.816 0 2.816-2.82" transform="matrix(1 0 0 -1 124.955 131.476)"/><g style="fill:#000;fill-opacity:1"><use xlink:href="#m" x="106.648" y="127.398"/><use xlink:href="#n" x="110.309" y="127.398"/><use xlink:href="#o" x="113.971" y="127.398"/><use xlink:href="#q" x="117.632" y="127.398"/><use xlink:href="#p" x="121.293" y="127.398"/><use xlink:href="#u" x="124.954" y="127.398"/><use xlink:href="#r" x="128.616" y="127.398"/><use xlink:href="#p" x="132.277" y="127.398"/><use xlink:href="#t" x="135.938" y="127.398"/><use xlink:href="#v" x="139.599" y="127.398"/></g><path style="fill:none;stroke-width:.3985;stroke-linecap:butt;stroke-linejoin:miter;stroke:#000;stroke-opacity:1;stroke-miterlimit:10" d="m-1.408-29.7 2.816 2.817m-2.816 0L1.408-29.7" transform="matrix(1 0 0 -1 124.955 131.476)"/><g style="fill:#000;fill-opacity:1"><use xlink:href="#m" x="110.309" y="168.113"/><use xlink:href="#n" x="113.97" y="168.113"/><use xlink:href="#o" x="117.632" y="168.113"/><use xlink:href="#y" x="121.293" y="168.113"/><use xlink:href="#w" x="124.954" y="168.113"/><use xlink:href="#n" x="128.615" y="168.113"/><use xlink:href="#p" x="132.277" y="168.113"/><use xlink:href="#v" x="135.938" y="168.113"/></g><path style="fill:none;stroke-width:.3985;stroke-linecap:butt;stroke-linejoin:miter;stroke:#000;stroke-opacity:1;stroke-miterlimit:10" d="m-1.408-27.489 2.816 2.817m-2.816 0 2.816-2.817" transform="matrix(1 0 0 -1 124.955 131.476)"/><g style="fill:#000;fill-opacity:1"><use xlink:href="#m" x="128.474" y="159.69"/><use xlink:href="#n" x="132.135" y="159.69"/><use xlink:href="#o" x="135.797" y="159.69"/><use xlink:href="#z" x="139.458" y="159.69"/><use xlink:href="#A" x="143.119" y="159.69"/><use xlink:href="#x" x="146.78" y="159.69"/><use xlink:href="#v" x="150.442" y="159.69"/></g><path style="fill:none;stroke-width:.3985;stroke-linecap:butt;stroke-linejoin:miter;stroke:#000;stroke-opacity:1;stroke-miterlimit:10" d="m-40.174-29.7 2.817 2.817m-2.817 0 2.817-2.817" transform="matrix(1 0 0 -1 124.955 131.476)"/><g style="fill:#000;fill-opacity:1"><use xlink:href="#m" x="71.545" y="168.113"/><use xlink:href="#n" x="75.206" y="168.113"/><use xlink:href="#o" x="78.868" y="168.113"/><use xlink:href="#r" x="82.529" y="168.113"/><use xlink:href="#p" x="86.19" y="168.113"/><use xlink:href="#B" x="89.851" y="168.113"/><use xlink:href="#r" x="93.513" y="168.113"/><use xlink:href="#v" x="97.174" y="168.113"/></g><path style="fill:none;stroke-width:.3985;stroke-linecap:butt;stroke-linejoin:miter;stroke:#000;stroke-opacity:1;stroke-miterlimit:10" d="m-1.408 102.277 2.82 2.816m-2.82 0 2.82-2.816" transform="matrix(1 0 0 -1 124.955 131.476)"/><g style="fill:#000;fill-opacity:1"><use xlink:href="#m" x="108.48" y="36.138"/><use xlink:href="#n" x="112.141" y="36.138"/><use xlink:href="#o" x="115.803" y="36.138"/><use xlink:href="#u" x="119.464" y="36.138"/><use xlink:href="#s" x="123.125" y="36.138"/><use xlink:href="#t" x="126.786" y="36.138"/><use xlink:href="#r" x="130.448" y="36.138"/><use xlink:href="#C" x="134.109" y="36.138"/><use xlink:href="#v" x="137.77" y="36.138"/></g><path style="fill:none;stroke-width:.3985;stroke-linecap:butt;stroke-linejoin:miter;stroke:#000;stroke-opacity:1;stroke-miterlimit:10" d="m-1.408-105.09 2.82 2.816m-2.82 0 2.82-2.816" transform="matrix(1 0 0 -1 124.955 131.476)"/><g style="fill:#000;fill-opacity:1"><use xlink:href="#m" x="108.48" y="231.079"/><use xlink:href="#n" x="112.141" y="231.079"/><use xlink:href="#o" x="115.803" y="231.079"/><use xlink:href="#n" x="119.464" y="231.079"/><use xlink:href="#s" x="123.125" y="231.079"/><use xlink:href="#D" x="126.786" y="231.079"/><use xlink:href="#r" x="130.448" y="231.079"/><use xlink:href="#C" x="134.109" y="231.079"/><use xlink:href="#v" x="137.77" y="231.079"/></g><path style="fill:none;stroke-width:.3985;stroke-linecap:butt;stroke-linejoin:miter;stroke:#000;stroke-opacity:1;stroke-miterlimit:10" d="m178.178-1.407 2.816 2.817m-2.816 0 2.816-2.817" transform="matrix(1 0 0 -1 124.955 131.476)"/><g style="fill:#000;fill-opacity:1"><use xlink:href="#m" x="289.892" y="139.821"/><use xlink:href="#n" x="293.553" y="139.821"/><use xlink:href="#o" x="297.215" y="139.821"/><use xlink:href="#p" x="300.876" y="139.821"/><use xlink:href="#w" x="304.537" y="139.821"/><use xlink:href="#n" x="308.198" y="139.821"/><use xlink:href="#r" x="311.86" y="139.821"/><use xlink:href="#v" x="315.521" y="139.821"/></g><path style="fill:none;stroke-width:.3985;stroke-linecap:butt;stroke-linejoin:miter;stroke:#000;stroke-opacity:1;stroke-miterlimit:10" d="m-82.428-1.41 2.82 2.82m-2.82 0 2.82-2.82" transform="matrix(1 0 0 -1 124.955 131.476)"/><g style="fill:#000;fill-opacity:1"><use xlink:href="#m" x="29.293" y="127.398"/><use xlink:href="#n" x="32.954" y="127.398"/><use xlink:href="#o" x="36.616" y="127.398"/><use xlink:href="#E" x="40.277" y="127.398"/><use xlink:href="#p" x="43.938" y="127.398"/><use xlink:href="#n" x="47.599" y="127.398"/><use xlink:href="#r" x="51.261" y="127.398"/><use xlink:href="#v" x="54.922" y="127.398"/></g><path style="fill:none;stroke-width:.3985;stroke-linecap:butt;stroke-linejoin:miter;stroke:#000;stroke-opacity:1;stroke-miterlimit:10" d="m-71.924 69.714 2.817 2.817m-2.817 0 2.817-2.817" transform="matrix(1 0 0 -1 124.955 131.476)"/><g style="fill:#000;fill-opacity:1"><use xlink:href="#m" x="-.337" y="56.277"/><use xlink:href="#n" x="3.324" y="56.277"/><use xlink:href="#o" x="6.986" y="56.277"/><use xlink:href="#u" x="10.647" y="56.277"/><use xlink:href="#s" x="14.308" y="56.277"/><use xlink:href="#t" x="17.969" y="56.277"/><use xlink:href="#r" x="21.631" y="56.277"/><use xlink:href="#C" x="25.292" y="56.277"/></g><g style="fill:#000;fill-opacity:1"><use xlink:href="#E" x="32.607" y="56.277"/><use xlink:href="#p" x="36.269" y="56.277"/><use xlink:href="#n" x="39.93" y="56.277"/><use xlink:href="#r" x="43.591" y="56.277"/><use xlink:href="#v" x="47.253" y="56.277"/></g><path style="fill:none;stroke-width:.3985;stroke-linecap:butt;stroke-linejoin:miter;stroke:#000;stroke-opacity:1;stroke-miterlimit:10" d="m64.334 64.331 2.816 2.82m-2.816 0 2.816-2.82" transform="matrix(1 0 0 -1 124.955 131.476)"/><g style="fill:#000;fill-opacity:1"><use xlink:href="#m" x="194.217" y="61.657"/><use xlink:href="#n" x="197.878" y="61.657"/><use xlink:href="#o" x="201.54" y="61.657"/><use xlink:href="#u" x="205.201" y="61.657"/><use xlink:href="#s" x="208.862" y="61.657"/><use xlink:href="#t" x="212.523" y="61.657"/><use xlink:href="#r" x="216.185" y="61.657"/><use xlink:href="#C" x="219.846" y="61.657"/></g><g style="fill:#000;fill-opacity:1"><use xlink:href="#p" x="227.168" y="61.657"/><use xlink:href="#w" x="230.83" y="61.657"/><use xlink:href="#n" x="234.491" y="61.657"/><use xlink:href="#r" x="238.152" y="61.657"/><use xlink:href="#v" x="241.814" y="61.657"/></g><path style="fill:none;stroke-width:.3985;stroke-linecap:butt;stroke-linejoin:miter;stroke:#000;stroke-opacity:1;stroke-miterlimit:10" d="m-71.924-72.532 2.817 2.82m-2.817 0 2.817-2.82" transform="matrix(1 0 0 -1 124.955 131.476)"/><g style="fill:#000;fill-opacity:1"><use xlink:href="#m" x="28.811" y="210.942"/><use xlink:href="#n" x="32.472" y="210.942"/><use xlink:href="#o" x="36.134" y="210.942"/><use xlink:href="#n" x="39.795" y="210.942"/><use xlink:href="#s" x="43.456" y="210.942"/><use xlink:href="#D" x="47.117" y="210.942"/><use xlink:href="#r" x="50.779" y="210.942"/><use xlink:href="#C" x="54.44" y="210.942"/></g><g style="fill:#000;fill-opacity:1"><use xlink:href="#E" x="61.762" y="210.942"/><use xlink:href="#p" x="65.424" y="210.942"/><use xlink:href="#n" x="69.085" y="210.942"/><use xlink:href="#r" x="72.746" y="210.942"/><use xlink:href="#v" x="76.408" y="210.942"/></g><path style="fill:none;stroke-width:.3985;stroke-linecap:butt;stroke-linejoin:miter;stroke:#000;stroke-opacity:1;stroke-miterlimit:10" d="m64.334-67.145 2.82 2.82m-2.82 0 2.82-2.82" transform="matrix(1 0 0 -1 124.955 131.476)"/><g style="fill:#000;fill-opacity:1"><use xlink:href="#m" x="165.068" y="205.555"/><use xlink:href="#n" x="168.729" y="205.555"/><use xlink:href="#o" x="172.391" y="205.555"/><use xlink:href="#n" x="176.052" y="205.555"/><use xlink:href="#s" x="179.713" y="205.555"/><use xlink:href="#D" x="183.374" y="205.555"/><use xlink:href="#r" x="187.036" y="205.555"/><use xlink:href="#C" x="190.697" y="205.555"/></g><g style="fill:#000;fill-opacity:1"><use xlink:href="#p" x="198.019" y="205.555"/><use xlink:href="#w" x="201.681" y="205.555"/><use xlink:href="#n" x="205.342" y="205.555"/><use xlink:href="#r" x="209.003" y="205.555"/><use xlink:href="#v" x="212.665" y="205.555"/></g><path style="fill:none;stroke-width:.3985;stroke-linecap:butt;stroke-linejoin:miter;stroke:#000;stroke-opacity:1;stroke-miterlimit:10" d="m88.385 50.433 2.816 2.816m-2.816 0 2.816-2.816" transform="matrix(1 0 0 -1 124.955 131.476)"/><g style="fill:#000;fill-opacity:1"><use xlink:href="#m" x="218.267" y="81.768"/><use xlink:href="#n" x="221.928" y="81.768"/><use xlink:href="#o" x="225.59" y="81.768"/><use xlink:href="#F" x="229.251" y="81.768"/><use xlink:href="#G" x="232.912" y="81.768"/><use xlink:href="#v" x="236.573" y="81.768"/></g></svg>