<svg xmlns="http://www.w3.org/2000/svg" width="90.157" height="154.419" viewBox="0 0 67.618 115.814" version="1.2"><defs><clipPath id="a"><path d="M0 97h18v18.723H0Zm0 0"/></clipPath><clipPath id="b"><path d="M54 100h13.426v15.723H54Zm0 0"/></clipPath><clipPath id="c"><path d="M54 29h13.426v18H54Zm0 0"/></clipPath></defs><g clip-path="url(#a)"><path style="fill:none;stroke-width:.3985;stroke-linecap:butt;stroke-linejoin:miter;stroke:#000;stroke-opacity:1;stroke-miterlimit:10" d="M5.67.001A5.67 5.67 0 1 1-5.67-.002 5.67 5.67 0 0 1 5.67 0Zm0 0" transform="matrix(1 0 0 -1 6.686 108.841)"/></g><path style="fill:none;stroke-width:.3985;stroke-linecap:butt;stroke-linejoin:miter;stroke:#000;stroke-opacity:1;stroke-miterlimit:10" d="M36.85 28.345a8.504 8.504 0 1 1-17.009 0 8.506 8.506 0 0 1 8.504-8.504c4.7 0 8.504 3.809 8.504 8.504Zm0 0" transform="matrix(1 0 0 -1 6.686 108.841)"/><g clip-path="url(#b)"><path style="fill:none;stroke-width:.3985;stroke-linecap:butt;stroke-linejoin:miter;stroke:#000;stroke-opacity:1;stroke-miterlimit:10" d="M59.529.001a2.835 2.835 0 1 1-5.67-.006 2.835 2.835 0 0 1 5.67.006Zm0 0" transform="matrix(1 0 0 -1 6.686 108.841)"/></g><path style="fill:none;stroke-width:.3985;stroke-linecap:butt;stroke-linejoin:miter;stroke:#000;stroke-opacity:1;stroke-miterlimit:10" d="M5.67 70.868a5.67 5.67 0 1 1-11.34-.003 5.67 5.67 0 0 1 11.34.003ZM36.85 99.212a8.5 8.5 0 0 1-8.505 8.504 8.503 8.503 0 0 1-8.504-8.504 8.506 8.506 0 0 1 8.504-8.504c4.7 0 8.504 3.809 8.504 8.504Zm0 0" transform="matrix(1 0 0 -1 6.686 108.841)"/><g clip-path="url(#c)"><path style="fill:none;stroke-width:.3985;stroke-linecap:butt;stroke-linejoin:miter;stroke:#000;stroke-opacity:1;stroke-miterlimit:10" d="M59.529 70.868a2.835 2.835 0 1 1-5.67-.005 2.835 2.835 0 0 1 5.67.005Zm0 0" transform="matrix(1 0 0 -1 6.686 108.841)"/></g></svg>