<svg xmlns="http://www.w3.org/2000/svg" width="78.279" height="9.603" viewBox="0 0 58.709 7.202" version="1.2"><defs><clipPath id="a"><path d="M41 0h16v6.805H41Zm0 0"/></clipPath></defs><path style="fill:none;stroke-width:.3985;stroke-linecap:butt;stroke-linejoin:miter;stroke:#000;stroke-opacity:1;stroke-miterlimit:10" d="M0 0H47.69" transform="matrix(1 0 0 -1 .864 3.207)"/><path style="stroke:none;fill-rule:nonzero;fill:#000;fill-opacity:1" d="m51.05 3.207-3.57-1.348 1.176 1.348-1.176 1.344Zm0 0"/><g clip-path="url(#a)"><path style="fill:none;stroke-width:.3985;stroke-linecap:butt;stroke-linejoin:miter;stroke:#000;stroke-opacity:1;stroke-miterlimit:10" d="M4.214 0 .644 1.348 1.818 0 .643-1.344Zm0 0" transform="matrix(1 0 0 -1 46.837 3.207)"/></g><path style="fill:none;stroke-width:.3985;stroke-linecap:round;stroke-linejoin:round;stroke:#000;stroke-opacity:1;stroke-miterlimit:10" d="M-2.07 2.39C-1.693.958-.849.278 0 0c-.848-.277-1.692-.957-2.07-2.39" transform="matrix(1 0 0 -1 54.887 3.207)"/><path style="fill:none;stroke-width:.3985;stroke-linecap:round;stroke-linejoin:round;stroke:#000;stroke-opacity:1;stroke-miterlimit:10" d="M-2.073 2.39C-1.693.958-.85.278.002 0-.85-.277-1.694-.957-2.073-2.39" transform="matrix(1 0 0 -1 57.358 3.207)"/></svg>