<svg xmlns="http://www.w3.org/2000/svg" xmlns:xlink="http://www.w3.org/1999/xlink" width="244.443" height="87.32pt" viewBox="0 0 183.332 87.32" version="1.2"><defs><symbol overflow="visible" id="c"><path style="stroke:none" d="M3.422-1.578c0-.844-.219-1.719-1.531-1.719-1.313 0-1.532.86-1.532 1.719C.36-.688.625.078 1.891.078c1.28 0 1.53-.797 1.53-1.656Zm-.75-.078c0 .312 0 .781-.078 1.015-.125.407-.516.454-.703.454-.204 0-.594-.063-.704-.454-.078-.25-.078-.656-.078-1.015 0-.36 0-.75.094-1 .078-.219.344-.36.688-.36.296 0 .593.094.703.391.078.234.078.64.078.969Zm0 0"/></symbol><symbol overflow="visible" id="d"><path style="stroke:none" d="M1.516-.422a.434.434 0 0 0-.422-.437.447.447 0 0 0-.438.437c0 .234.203.422.438.422a.42.42 0 0 0 .422-.422Zm0 0"/></symbol><symbol overflow="visible" id="e"><path style="stroke:none" d="M3.86-1.11c0-.546-.407-1.14-1.454-1.14-.187 0-.61.016-1 .219v-.219l-.984.031v.344H.5c.281 0 .281.031.281.172V.64h-.36v.328L1.11.953l.688.016V.64h-.36v-.829c.141.094.438.235.86.235C3.328.047 3.859-.5 3.859-1.11Zm-.75 0c0 .548-.376.876-.891.876-.235 0-.531-.078-.781-.407v-.984c.25-.266.64-.313.843-.313.547 0 .828.36.828.829Zm0 0"/></symbol><symbol overflow="visible" id="f"><path style="stroke:none" d="M2.484-.594v-.234h-.406v.219c0 .14-.047.343-.344.343-.312 0-.312-.203-.312-.343v-1.266h.953v-.344h-.953v-.953H1c0 .516-.266 1-.781 1.016v.281H.75v1.281c0 .563.547.64.875.64.36 0 .86-.14.86-.64Zm0 0"/></symbol><symbol overflow="visible" id="g"><path style="stroke:none" d="M3.5 0v-.328h-.656v-.438H3.5v-.343h-.656v-2.032c0-.156-.031-.187-.188-.187h-.36c-.124 0-.155 0-.202.078L.28-1.11v.344h1.86v.438h-.704V0c.235-.016.766-.016 1.047-.016.266 0 .75 0 1.016.016ZM2.219-1.11h-1.5l1.5-1.78Zm0 0"/></symbol><symbol overflow="visible" id="h"><path style="stroke:none" d="M3.39-.922c0-.39-.265-.703-.765-.906.453-.203.563-.469.563-.703 0-.719-.876-.766-1.282-.766-.547 0-1.312.156-1.312.906 0 .407.328.641.5.735-.375.14-.703.375-.703.843 0 .844.968.891 1.484.891.25 0 1.516 0 1.516-1Zm-.703-1.594c0 .235-.156.407-.437.516l-.703-.313c-.344-.156-.453-.203-.453-.359 0-.219.172-.344.765-.344.313 0 .829.047.829.5Zm.126 1.844c0 .281-.22.453-.907.453-.39 0-.937-.078-.937-.594 0-.312.187-.515.547-.656l.984.438c.031 0 .313.125.313.36Zm0 0"/></symbol><symbol overflow="visible" id="i"><path style="stroke:none" d="M3.188 0v-.328H2.28V-3.11c0-.157-.015-.188-.187-.188H2c-.438.328-1.078.328-1.188.328h-.14v.328h.14c.063 0 .438 0 .813-.125v2.438H.719V0c.25-.016.953-.016 1.234-.016s1 0 1.234.016Zm0 0"/></symbol><symbol overflow="visible" id="j"><path style="stroke:none" d="M3.328-1.047h-.406c-.031.188-.11.313-.156.328-.11.016-.329.016-.5.016H1.53c.313-.203.61-.39.828-.516.563-.312.97-.531.97-1.047 0-.625-.563-1.03-1.548-1.03-.234 0-1.343 0-1.343.733 0 .297.25.422.421.422.188 0 .407-.14.407-.406 0-.187-.11-.297-.125-.312.171-.094.359-.094.468-.094.5 0 .938.234.938.687 0 .391-.313.688-.625.907L.532-.344C.436-.28.436-.266.436-.156V0h2.704Zm0 0"/></symbol><symbol overflow="visible" id="k"><path style="stroke:none" d="M3.39-1.031c0-.657-.546-1.094-1.374-1.094-.329 0-.641.14-.844.406.016-.453.031-.718.281-.984.14-.156.438-.313.828-.313.047 0 .219 0 .36.094-.047.016-.172.125-.172.313a.36.36 0 0 0 .375.375c.156 0 .36-.11.36-.375 0-.25-.126-.688-.923-.688-1.11 0-1.89.64-1.89 1.703C.39-.53.875.078 1.906.078c.313 0 .657-.015 1-.25.266-.172.485-.406.485-.86Zm-.78 0c0 .406 0 .812-.704.812-.656 0-.718-.484-.718-.875 0-.375.265-.75.765-.75.656 0 .656.39.656.813Zm0 0"/></symbol><symbol overflow="visible" id="n"><path style="stroke:none" d="M3.328-1c0-.5-.39-1.063-1.39-1.063a1.79 1.79 0 0 0-.782.157v-.547c.188.031.407.031.407.031A1.94 1.94 0 0 0 2.968-3c.078-.078.078-.078.078-.156 0-.031 0-.14-.11-.14 0 0-.015 0-.046.015-.204.047-.547.14-1.016.14-.344 0-.672-.046-1-.14-.047-.016-.063-.016-.078-.016-.11 0-.11.11-.11.188v1.5c0 .156.032.187.188.187.11 0 .11 0 .203-.094.078-.062.281-.28.828-.28.657 0 .657.468.657.765s0 .812-.844.812c-.078 0-.453 0-.688-.203a.39.39 0 0 0 .203-.344.4.4 0 0 0-.39-.406c-.188 0-.406.125-.406.406 0 .485.5.844 1.296.844C2.844.078 3.328-.453 3.328-1Zm0 0"/></symbol><symbol overflow="visible" id="o"><path style="stroke:none" d="M3.594-3.203H2.359L1.266-3.22c-.125 0-.141-.062-.157-.11H.703L.484-2.155h.422a.685.685 0 0 1 .11-.297c.03-.031.03-.031.078-.031.125-.016.343-.016.515-.016h.907c-.36.328-.485.438-.641.656-.5.657-.563 1.25-.563 1.516 0 .39.329.406.375.406.157 0 .235-.062.266-.094.11-.109.11-.234.11-.328.015-1.203.343-1.515.671-1.812l.313-.281.5-.47c.015-.015.031-.03.047-.062v-.234Zm0 0"/></symbol><clipPath id="a"><path d="M8 16h154v70.98H8Zm0 0"/></clipPath><clipPath id="b"><path d="M5 69h12v17.98H5Zm0 0"/></clipPath><clipPath id="l"><path d="M152 70h14v16.98h-14Zm0 0"/></clipPath><clipPath id="m"><path d="M143 65h39.996v6H143Zm0 0"/></clipPath></defs><path style="fill:none;stroke-width:.19925;stroke-linecap:butt;stroke-linejoin:miter;stroke:gray;stroke-opacity:1;stroke-miterlimit:10" d="M0 .002h141.734M0 28.346h141.734M0 56.693h141.734M0 85.03h141.734M0 .002V85.04M28.347.001v85.04M56.695.001v85.04M85.04.001v85.04M113.386.001v85.04M141.722.001v85.04" transform="matrix(1 0 0 -1 13.719 85.791)"/><g clip-path="url(#a)"><path style="fill:none;stroke-width:.3985;stroke-linecap:butt;stroke-linejoin:miter;stroke:#000;stroke-opacity:1;stroke-miterlimit:10" d="M0 .002c226.773 85.039 0 85.039 141.734 0" transform="matrix(1 0 0 -1 13.719 85.791)"/></g><g clip-path="url(#b)"><path style="fill:none;stroke-width:.19925;stroke-linecap:butt;stroke-linejoin:miter;stroke:gray;stroke-opacity:1;stroke-miterlimit:10" d="m.011.002-4.976 13.273" transform="matrix(1 0 0 -1 13.719 85.791)"/></g><g style="fill:gray;fill-opacity:1"><use xlink:href="#c" x=".315" y="68.13"/><use xlink:href="#d" x="4.091" y="68.13"/><use xlink:href="#c" x="6.263" y="68.13"/><use xlink:href="#e" x="10.039" y="68.13"/><use xlink:href="#f" x="14.218" y="68.13"/></g><path style="fill:none;stroke-width:.19925;stroke-linecap:butt;stroke-linejoin:miter;stroke:gray;stroke-opacity:1;stroke-miterlimit:10" d="m37.031 14.787-5.582 13.027" transform="matrix(1 0 0 -1 13.719 85.791)"/><g style="fill:gray;fill-opacity:1"><use xlink:href="#g" x="34.841" y="53.59"/><use xlink:href="#c" x="38.617" y="53.59"/><use xlink:href="#d" x="42.393" y="53.59"/><use xlink:href="#c" x="44.565" y="53.59"/><use xlink:href="#e" x="48.34" y="53.59"/><use xlink:href="#f" x="52.52" y="53.59"/></g><path style="fill:none;stroke-width:.19925;stroke-linecap:butt;stroke-linejoin:miter;stroke:gray;stroke-opacity:1;stroke-miterlimit:10" d="m73.027 31.889-6.723 12.476" transform="matrix(1 0 0 -1 13.719 85.791)"/><g style="fill:gray;fill-opacity:1"><use xlink:href="#h" x="69.697" y="37.04"/><use xlink:href="#c" x="73.473" y="37.04"/><use xlink:href="#d" x="77.249" y="37.04"/><use xlink:href="#c" x="79.421" y="37.04"/><use xlink:href="#e" x="83.196" y="37.04"/><use xlink:href="#f" x="87.376" y="37.04"/></g><path style="fill:none;stroke-width:.19925;stroke-linecap:butt;stroke-linejoin:miter;stroke:gray;stroke-opacity:1;stroke-miterlimit:10" d="M105.066 55.158 93.5 63.353" transform="matrix(1 0 0 -1 13.719 85.791)"/><g style="fill:gray;fill-opacity:1"><use xlink:href="#i" x="95.004" y="18.052"/><use xlink:href="#j" x="98.78" y="18.052"/><use xlink:href="#c" x="102.556" y="18.052"/><use xlink:href="#d" x="106.332" y="18.052"/><use xlink:href="#c" x="108.503" y="18.052"/><use xlink:href="#e" x="112.279" y="18.052"/><use xlink:href="#f" x="116.459" y="18.052"/></g><path style="fill:none;stroke-width:.19925;stroke-linecap:butt;stroke-linejoin:miter;stroke:gray;stroke-opacity:1;stroke-miterlimit:10" d="m93.508 42.482 12.859 5.965" transform="matrix(1 0 0 -1 13.719 85.791)"/><g style="fill:gray;fill-opacity:1"><use xlink:href="#i" x="107.869" y="32.959"/><use xlink:href="#k" x="111.645" y="32.959"/><use xlink:href="#c" x="115.421" y="32.959"/><use xlink:href="#d" x="119.197" y="32.959"/><use xlink:href="#c" x="121.368" y="32.959"/><use xlink:href="#e" x="125.144" y="32.959"/><use xlink:href="#f" x="129.324" y="32.959"/></g><path style="fill:none;stroke-width:.19925;stroke-linecap:butt;stroke-linejoin:miter;stroke:gray;stroke-opacity:1;stroke-miterlimit:10" d="m120.73 13.865 8.414 11.406" transform="matrix(1 0 0 -1 13.719 85.791)"/><g style="fill:gray;fill-opacity:1"><use xlink:href="#j" x="130.647" y="56.134"/><use xlink:href="#c" x="134.423" y="56.134"/><use xlink:href="#c" x="138.199" y="56.134"/><use xlink:href="#d" x="141.975" y="56.134"/><use xlink:href="#c" x="144.146" y="56.134"/><use xlink:href="#e" x="147.922" y="56.134"/><use xlink:href="#f" x="152.102" y="56.134"/></g><g clip-path="url(#l)"><path style="fill:none;stroke-width:.19925;stroke-linecap:butt;stroke-linejoin:miter;stroke:gray;stroke-opacity:1;stroke-miterlimit:10" d="m141.722.006 7.293 12.156" transform="matrix(1 0 0 -1 13.719 85.791)"/></g><g style="fill:gray;fill-opacity:1" clip-path="url(#m)"><use xlink:href="#j" x="142.965" y="69.243"/><use xlink:href="#j" x="146.741" y="69.243"/><use xlink:href="#n" x="150.517" y="69.243"/><use xlink:href="#d" x="154.293" y="69.243"/><use xlink:href="#j" x="156.464" y="69.243"/><use xlink:href="#g" x="160.24" y="69.243"/><use xlink:href="#o" x="164.016" y="69.243"/><use xlink:href="#h" x="167.792" y="69.243"/><use xlink:href="#h" x="171.568" y="69.243"/><use xlink:href="#e" x="175.344" y="69.243"/><use xlink:href="#f" x="179.523" y="69.243"/></g></svg>