<svg xmlns="http://www.w3.org/2000/svg" xmlns:xlink="http://www.w3.org/1999/xlink" width="236.403" height="190.347" viewBox="0 0 177.302 142.76" version="1.2"><defs><clipPath id="a"><path d="M48 91h35v51.64H48Zm0 0"/></clipPath><clipPath id="b"><path d="M65 91h35v51.64H65Zm0 0"/></clipPath><clipPath id="c"><path d="M105 77h35v65.64h-35Zm0 0"/></clipPath><clipPath id="d"><path d="M122 77h35v65.64h-35Zm0 0"/></clipPath><clipPath id="e"><path d="M0 63h26v79.64H0Zm0 0"/></clipPath><clipPath id="f"><path d="M8 63h35v79.64H8Zm0 0"/></clipPath><clipPath id="g"><path d="M143 49h33.953v93.64H143Zm0 0"/></clipPath><symbol overflow="visible" id="h"><path style="stroke:none" d="M5.516-.234c0-.235-.125-.235-.266-.235-.61-.015-.61-.14-.61-.375v-2.14c0-.891-.702-1.532-2.187-1.532-.562 0-1.781.047-1.781.922 0 .438.344.625.61.625.312 0 .624-.219.624-.625 0-.297-.187-.469-.218-.5a5.28 5.28 0 0 1 .718-.062c.75 0 1.11.422 1.11 1.172v.343c-.72.032-3.25.125-3.25 1.563C.266-.125 1.5.062 2.187.062c.797 0 1.266-.406 1.485-.828 0 .313 0 .766 1.047.766h.468c.204 0 .329 0 .329-.234Zm-2-1.157c0 .97-.922 1.094-1.172 1.094-.516 0-.906-.344-.906-.797 0-1.062 1.578-1.203 2.078-1.234Zm0 0"/></symbol><symbol overflow="visible" id="i"><path style="stroke:none" d="M5.984-2.219c0-1.328-.937-2.265-2.39-2.265-.719 0-1.219.28-1.453.484v-2.922l-1.766.078v.469c.61 0 .688 0 .688.39V0h.468c.157-.188.328-.375.485-.563.078.079.562.625 1.453.625 1.484 0 2.515-.906 2.515-2.28Zm-1.28 0c0 .469 0 1.016-.25 1.406-.298.407-.75.516-1.079.516-.688 0-1.078-.547-1.188-.687v-2.5c.282-.36.75-.641 1.297-.641 1.22 0 1.22 1.203 1.22 1.906Zm0 0"/></symbol><symbol overflow="visible" id="j"><path style="stroke:none" d="M4.766-1.172c0-.14-.141-.14-.235-.14-.187 0-.187.03-.25.156-.25.625-.734.812-1.234.812-1.39 0-1.39-1.453-1.39-1.922 0-.562 0-1.843 1.28-1.843.36 0 .516.015.657.046a.618.618 0 0 0-.203.47c0 .437.343.624.609.624.313 0 .64-.219.64-.625 0-.86-1.156-.922-1.734-.922C1.11-4.516.375-3.375.375-2.219.375-.89 1.313.062 2.844.062c1.625 0 1.922-1.156 1.922-1.234Zm0 0"/></symbol><symbol overflow="visible" id="k"><path style="stroke:none" d="M5.984 0v-.469c-.609 0-.687 0-.687-.39v-6.063l-1.766.078v.469c.625 0 .703 0 .703.39v1.954a2.178 2.178 0 0 0-1.359-.453c-1.453 0-2.5.875-2.5 2.28 0 1.313.922 2.267 2.39 2.267.61 0 1.094-.235 1.407-.485v.484ZM4.172-1.031c-.14.187-.547.734-1.297.734-1.219 0-1.219-1.203-1.219-1.906 0-.485 0-1.016.25-1.406.297-.422.766-.516 1.078-.516.563 0 .97.313 1.188.61Zm0 0"/></symbol><symbol overflow="visible" id="l"><path style="stroke:none" d="M4.922-1.172c0-.172-.188-.172-.234-.172-.172 0-.188.047-.25.203-.204.485-.782.797-1.422.797-1.407 0-1.422-1.328-1.422-1.828h3.015c.22 0 .313 0 .313-.265 0-.313-.063-1.047-.563-1.547-.359-.36-.89-.532-1.578-.532C1.187-4.516.312-3.484.312-2.25c0 1.344 1 2.313 2.61 2.313 1.578 0 2-1.063 2-1.235ZM3.984-2.5h-2.39c.015-.39.031-.813.234-1.14.266-.391.672-.516.953-.516 1.172 0 1.188 1.312 1.203 1.656Zm0 0"/></symbol><symbol overflow="visible" id="m"><path style="stroke:none" d="M4.36-6.11c0-.421-.36-.874-1.141-.874-.969 0-2.047.421-2.047 1.546v1.016h-.75v.469h.75V-.47H.484V0l1.25-.031c.375 0 1.016 0 1.375.031v-.469H2.25v-3.484h1.14v-.469H2.188v-1.016c0-1.093.75-1.187 1-1.187.047 0 .11 0 .172.031a.585.585 0 0 0-.234.485c0 .421.36.609.61.609.296 0 .624-.203.624-.61Zm0 0"/></symbol><symbol overflow="visible" id="n"><path style="stroke:none" d="M5.563-3.953c0-.235-.172-.578-.625-.578-.157 0-.625.031-1.063.375-.172-.125-.594-.328-1.328-.328-1.438 0-1.985.78-1.985 1.468 0 .407.188.829.516 1.047-.281.36-.344.688-.344.89 0 .157.047.641.438.954-.125.031-.86.25-.86.875C.313 1.25.875 2 2.86 2 4.625 2 5.406 1.422 5.406.719c0-.297-.078-.922-.75-1.266-.562-.281-1.156-.281-2.11-.281-.265 0-.718 0-.765-.016a.625.625 0 0 1-.562-.625c0-.093.047-.25.11-.328.452.234.968.266 1.218.266 1.437 0 1.984-.782 1.984-1.485 0-.468-.25-.796-.406-.953.297-.156.516-.172.625-.187a.433.433 0 0 0-.047.203c0 .25.172.422.438.422a.41.41 0 0 0 .421-.422Zm-2.141.937c0 .454 0 1.125-.875 1.125s-.875-.671-.875-1.125c0-.437 0-1.109.875-1.109s.875.672.875 1.11ZM4.547.75c0 .36-.39.89-1.688.89-1.187 0-1.687-.452-1.687-.906 0-.609.625-.609.766-.609h1.171c.313 0 1.438 0 1.438.625Zm0 0"/></symbol></defs><g clip-path="url(#a)"><path style="fill:none;stroke-width:.79701;stroke-linecap:butt;stroke-linejoin:miter;stroke:#000;stroke-opacity:1;stroke-miterlimit:10" d="M68.175 34.152H60.68a3.984 3.984 0 0 1-3.984-3.984V5.805" transform="matrix(1 0 0 -1 3.192 136.953)"/></g><g clip-path="url(#b)"><path style="fill:none;stroke-width:.79701;stroke-linecap:butt;stroke-linejoin:miter;stroke:#000;stroke-opacity:1;stroke-miterlimit:10" d="M73.558 34.152h7.496a3.984 3.984 0 0 0 3.984-3.984V5.805" transform="matrix(1 0 0 -1 3.192 136.953)"/></g><g clip-path="url(#c)"><path style="fill:none;stroke-width:.79701;stroke-linecap:butt;stroke-linejoin:miter;stroke:#000;stroke-opacity:1;stroke-miterlimit:10" d="M124.87 48.328h-7.5a3.987 3.987 0 0 1-3.984-3.988V5.805" transform="matrix(1 0 0 -1 3.192 136.953)"/></g><g clip-path="url(#d)"><path style="fill:none;stroke-width:.79701;stroke-linecap:butt;stroke-linejoin:miter;stroke:#000;stroke-opacity:1;stroke-miterlimit:10" d="M130.25 48.328h7.5c2.199 0 3.984-1.785 3.984-3.988V5.805" transform="matrix(1 0 0 -1 3.192 136.953)"/></g><g clip-path="url(#e)"><path style="fill:none;stroke-width:.79701;stroke-linecap:butt;stroke-linejoin:miter;stroke:#000;stroke-opacity:1;stroke-miterlimit:10" d="M11.484 62.5h-7.5a3.986 3.986 0 0 1-3.985-3.984V5.805" transform="matrix(1 0 0 -1 3.192 136.953)"/></g><g clip-path="url(#f)"><path style="fill:none;stroke-width:.79701;stroke-linecap:butt;stroke-linejoin:miter;stroke:#000;stroke-opacity:1;stroke-miterlimit:10" d="M16.863 62.5h7.5c2.199 0 3.984-1.785 3.984-3.984V5.805" transform="matrix(1 0 0 -1 3.192 136.953)"/></g><path style="fill:none;stroke-width:.79701;stroke-linecap:butt;stroke-linejoin:miter;stroke:#000;stroke-opacity:1;stroke-miterlimit:10" d="M146.132 76.672h-14.586a3.981 3.981 0 0 1-3.984-3.985V51.016" transform="matrix(1 0 0 -1 3.192 136.953)"/><g clip-path="url(#g)"><path style="fill:none;stroke-width:.79701;stroke-linecap:butt;stroke-linejoin:miter;stroke:#000;stroke-opacity:1;stroke-miterlimit:10" d="M151.511 76.672h14.586c2.2 0 3.984-1.781 3.984-3.985V5.805" transform="matrix(1 0 0 -1 3.192 136.953)"/></g><path style="fill:none;stroke-width:.79701;stroke-linecap:butt;stroke-linejoin:miter;stroke:#000;stroke-opacity:1;stroke-miterlimit:10" d="M107.156 105.02H74.85a3.986 3.986 0 0 1-3.984-3.985V36.844M112.535 105.02h32.3a3.984 3.984 0 0 0 3.985-3.985V79.363M59.32 133.367H18.16a3.984 3.984 0 0 1-3.985-3.984V65.19M64.699 133.367h41.16c2.199 0 3.984-1.785 3.984-3.984V107.71" transform="matrix(1 0 0 -1 3.192 136.953)"/><use xlink:href="#h" x=".408" y="139.18" style="fill:#000;fill-opacity:1"/><use xlink:href="#i" x="28.355" y="141.581" style="fill:#000;fill-opacity:1"/><use xlink:href="#j" x="57.34" y="139.18" style="fill:#000;fill-opacity:1"/><use xlink:href="#k" x="85.048" y="141.581" style="fill:#000;fill-opacity:1"/><use xlink:href="#l" x="113.953" y="139.18" style="fill:#000;fill-opacity:1"/><use xlink:href="#m" x="143.176" y="141.641" style="fill:#000;fill-opacity:1"/><use xlink:href="#n" x="170.406" y="139.2" style="fill:#000;fill-opacity:1"/><path style="fill:none;stroke-width:.3985;stroke-linecap:butt;stroke-linejoin:miter;stroke:#000;stroke-opacity:1;stroke-miterlimit:10" d="M2.489 0a2.49 2.49 0 1 1-4.981.002A2.49 2.49 0 0 1 2.488 0Zm0 0" transform="matrix(1 0 0 -1 74.058 102.8)"/><path style="fill:none;stroke-width:.3985;stroke-linecap:butt;stroke-linejoin:miter;stroke:#000;stroke-opacity:1;stroke-miterlimit:10" d="M2.491-.002A2.491 2.491 0 1 1-2.492 0a2.491 2.491 0 0 1 4.983-.002Zm0 0" transform="matrix(1 0 0 -1 130.751 88.627)"/><path style="fill:none;stroke-width:.3985;stroke-linecap:butt;stroke-linejoin:miter;stroke:#000;stroke-opacity:1;stroke-miterlimit:10" d="M2.49 0A2.488 2.488 0 0 1-.002 2.49 2.49 2.49 0 1 1 2.49.001Zm0 0" transform="matrix(1 0 0 -1 17.365 74.454)"/><path style="fill:none;stroke-width:.3985;stroke-linecap:butt;stroke-linejoin:miter;stroke:#000;stroke-opacity:1;stroke-miterlimit:10" d="M2.489 0a2.49 2.49 0 1 1-4.98 0 2.49 2.49 0 1 1 4.98 0Zm0 0" transform="matrix(1 0 0 -1 152.011 60.281)"/><path style="fill:none;stroke-width:.3985;stroke-linecap:butt;stroke-linejoin:miter;stroke:#000;stroke-opacity:1;stroke-miterlimit:10" d="M2.492 0A2.494 2.494 0 0 1 0 2.493 2.494 2.494 0 0 1-2.492 0 2.494 2.494 0 0 1 0-2.492 2.494 2.494 0 0 1 2.492 0Zm0 0" transform="matrix(1 0 0 -1 113.035 31.934)"/><path style="fill:none;stroke-width:.3985;stroke-linecap:butt;stroke-linejoin:miter;stroke:#000;stroke-opacity:1;stroke-miterlimit:10" d="M2.491-.002A2.491 2.491 0 1 1-2.492 0a2.491 2.491 0 0 1 4.983-.002Zm0 0" transform="matrix(1 0 0 -1 65.2 3.588)"/></svg>