<svg xmlns="http://www.w3.org/2000/svg" xmlns:xlink="http://www.w3.org/1999/xlink" width="342.147" height="140.499" viewBox="0 0 256.61 105.374" version="1.2"><defs><symbol overflow="visible" id="a"><path style="stroke:none" d="M3.89-2.547c0-.844-.078-1.36-.343-1.875-.344-.703-1-.875-1.438-.875-1 0-1.375.75-1.484.969C.344-3.75.328-2.953.328-2.547c0 .531.016 1.328.406 1.969.36.594.954.75 1.375.75.391 0 1.063-.125 1.47-.906.296-.579.312-1.297.312-1.813ZM2.11-.062c-.266 0-.813-.126-.985-.954-.094-.453-.094-1.203-.094-1.625 0-.546 0-1.109.094-1.546.172-.813.781-.891.984-.891.266 0 .829.14.985.86.094.437.094 1.046.094 1.577 0 .47 0 1.188-.094 1.641-.172.828-.719.938-.985.938Zm0 0"/></symbol><symbol overflow="visible" id="c"><path style="stroke:none" d="M2.5-5.078c0-.219-.016-.219-.234-.219-.329.313-.75.5-1.5.5v.266c.218 0 .64 0 1.109-.203v4.078c0 .297-.031.39-.781.39H.812V0c.329-.031 1.016-.031 1.375-.031.36 0 1.047 0 1.376.031v-.266H3.28c-.75 0-.781-.093-.781-.39Zm0 0"/></symbol><symbol overflow="visible" id="d"><path style="stroke:none" d="M2.25-1.625c.125-.125.453-.39.594-.5.484-.453.953-.89.953-1.61 0-.953-.797-1.562-1.781-1.562-.97 0-1.594.719-1.594 1.438 0 .39.312.437.422.437.172 0 .422-.11.422-.422 0-.406-.407-.406-.5-.406.234-.594.765-.781 1.156-.781.734 0 1.125.625 1.125 1.297 0 .828-.578 1.437-1.531 2.39l-1 1.047C.422-.219.422-.203.422 0h3.14l.235-1.422h-.25c-.016.156-.078.547-.172.703-.047.063-.656.063-.781.063H1.172Zm0 0"/></symbol><symbol overflow="visible" id="e"><path style="stroke:none" d="M2.016-2.656c.625 0 1.03.453 1.03 1.297 0 1-.562 1.28-.983 1.28-.438 0-1.047-.155-1.329-.577.297 0 .5-.188.5-.438 0-.265-.187-.437-.453-.437-.203 0-.437.125-.437.453 0 .75.812 1.25 1.734 1.25 1.047 0 1.797-.734 1.797-1.531 0-.672-.531-1.266-1.344-1.454.625-.218 1.11-.75 1.11-1.39 0-.64-.72-1.094-1.547-1.094-.86 0-1.5.453-1.5 1.063 0 .296.187.421.406.421.25 0 .406-.171.406-.406 0-.297-.265-.406-.437-.406.344-.438.953-.469 1.094-.469.203 0 .812.063.812.89 0 .548-.234.891-.344 1.016-.234.25-.422.266-.906.297-.156 0-.219.016-.219.125 0 .11.078.11.219.11Zm0 0"/></symbol><symbol overflow="visible" id="f"><path style="stroke:none" d="M3.14-5.156c0-.157 0-.219-.171-.219-.094 0-.11 0-.188.11L.234-1.564v.25h2.25v.672c0 .297-.015.375-.64.375h-.172V0c.672-.031.687-.031 1.14-.031.454 0 .47 0 1.141.031v-.266h-.172c-.625 0-.64-.078-.64-.375v-.671h.843v-.25h-.843Zm-.593.64v2.954H.516Zm0 0"/></symbol><symbol overflow="visible" id="g"><path style="stroke:none" d="M1.11-4.484c.109.03.421.125.765.125 1 0 1.594-.704 1.594-.829 0-.093-.047-.109-.094-.109-.016 0-.031 0-.094.031a2.982 2.982 0 0 1-1.11.22c-.468 0-.858-.11-1.108-.22-.079-.03-.094-.03-.11-.03-.094 0-.094.077-.094.234v2.328c0 .14 0 .234.125.234.063 0 .079-.031.125-.094.094-.11.391-.515 1.079-.515.437 0 .656.359.734.515.125.281.14.656.14.953 0 .297 0 .735-.218 1.079-.156.25-.485.484-.906.484A1.271 1.271 0 0 1 .734-.922c.016.016.079.016.079.016.218 0 .406-.14.406-.39a.388.388 0 0 0-.39-.407c-.157 0-.407.078-.407.422 0 .718.625 1.453 1.531 1.453 1 0 1.844-.781 1.844-1.766 0-.922-.672-1.75-1.61-1.75-.39 0-.765.125-1.078.406Zm0 0"/></symbol><symbol overflow="visible" id="b"><path style="stroke:none" d="M3.266-1.5c0-.75-.61-1.36-1.36-1.36-.734 0-1.343.61-1.343 1.36 0 .766.609 1.36 1.343 1.36.75 0 1.36-.594 1.36-1.36ZM1.906-.453A1.024 1.024 0 0 1 .875-1.5c0-.578.453-1.047 1.031-1.047.578 0 1.047.469 1.047 1.047 0 .594-.469 1.047-1.047 1.047Zm0 0"/></symbol><symbol overflow="visible" id="h"><path style="stroke:none" d="M5.563-1.813c.14 0 .312 0 .312-.171 0-.188-.172-.188-.313-.188H1c-.125 0-.297 0-.297.188 0 .171.172.171.297.171Zm0 0"/></symbol><symbol overflow="visible" id="i"><path style="stroke:none" d="M1.625-.438a.463.463 0 0 0-.453-.453.447.447 0 0 0-.438.438.44.44 0 0 0 .438.453.45.45 0 0 0 .453-.438Zm0 0"/></symbol><symbol overflow="visible" id="j"><path style="stroke:none" d="M2.14-3.797c0-.187-.015-.187-.203-.187-.39.39-1 .39-1.218.39v.235c.156 0 .562 0 .922-.172v3.015c0 .204 0 .282-.625.282h-.25V0c.328-.031.796-.031 1.125-.031.328 0 .796 0 1.125.031v-.234h-.25c-.625 0-.625-.078-.625-.282Zm0 0"/></symbol><symbol overflow="visible" id="k"><path style="stroke:none" d="M.969-1.984c.015-.297.031-.797.234-1.157.266-.468.656-.64 1.016-.64.14 0 .422.015.562.187-.219.047-.265.188-.265.297 0 .156.109.281.296.281.172 0 .282-.109.282-.296 0-.376-.266-.672-.875-.672-.938 0-1.844.812-1.844 2.093 0 1.454.672 2.016 1.469 2.016.234 0 .64-.031 1-.39.203-.188.422-.422.422-.954 0-.203-.016-.593-.375-.922-.22-.203-.485-.406-.985-.406-.422 0-.734.219-.937.563Zm.875 1.89C1-.094 1-1.125 1-1.359c0-.5.328-1 .875-1 .313 0 .484.125.625.312.172.235.172.516.172.828 0 .407-.016.61-.219.86-.14.171-.328.265-.61.265Zm0 0"/></symbol><symbol overflow="visible" id="q"><path style="stroke:none" d="M3.422-3.61c.047-.062.047-.078.047-.25H1.922c-.234 0-.39 0-.625-.015-.281-.016-.36-.031-.39-.172h-.22L.47-2.734h.219c.03-.125.078-.485.171-.547.047-.031.563-.031.657-.031h1.343c-.062.078-.375.468-.53.64-.579.703-.985 1.547-.985 2.453 0 .063 0 .344.297.344.28 0 .28-.281.28-.36V-.39c0-1.156.25-1.734.548-2.093Zm0 0"/></symbol><symbol overflow="visible" id="s"><path style="stroke:none" d="M2.297-2.156c.453-.203.781-.5.781-.922 0-.594-.625-.906-1.25-.906-.672 0-1.266.406-1.266 1.015 0 .375.25.656.5.813.063.031.204.11.266.14-.39.157-.953.485-.953 1.094 0 .703.75 1.047 1.438 1.047.796 0 1.453-.484 1.453-1.14 0-.423-.25-.657-.329-.75-.124-.11-.421-.282-.64-.391ZM1.219-2.75c-.016-.016-.313-.172-.313-.453 0-.39.469-.578.906-.578.47 0 .938.25.938.703 0 .469-.5.703-.672.797Zm.343.86c.079.046.72.406.875.484.126.078.454.25.454.593 0 .485-.547.72-1.063.72-.547 0-1.062-.313-1.062-.829 0-.515.468-.844.796-.969Zm0 0"/></symbol><symbol overflow="visible" id="u"><path style="stroke:none" d="M2.672-1.89c0 .452-.031.906-.25 1.265-.156.234-.438.531-.906.531-.141 0-.47-.015-.625-.172.187-.046.234-.171.234-.28 0-.157-.11-.298-.281-.298-.172 0-.297.125-.297.313 0 .484.453.656.969.656.921 0 1.75-.844 1.75-2.094 0-1.453-.657-2.015-1.422-2.015-.766 0-1.469.562-1.469 1.343 0 .454.172.704.39.922.25.25.547.407.985.407.516 0 .797-.344.922-.579Zm-.89.39a.703.703 0 0 1-.626-.313C.984-2.046.97-2.296.97-2.64c0-.343 0-.578.203-.828a.796.796 0 0 1 .672-.312c.812 0 .812 1.015.812 1.265 0 .532-.36 1.016-.875 1.016Zm0 0"/></symbol><symbol overflow="visible" id="w"><path style="stroke:none" d="M3.297-1.906c0-.438 0-2.078-1.469-2.078S.36-2.344.36-1.906c0 .422 0 2.031 1.47 2.031 1.468 0 1.468-1.61 1.468-2.031ZM1.828-.063a.84.84 0 0 1-.812-.625C.922-1.03.922-1.609.922-1.984c0-.407 0-.86.094-1.188.14-.531.593-.61.812-.61.266 0 .672.126.797.579.094.312.094.75.094 1.219 0 .375 0 .984-.094 1.312a.825.825 0 0 1-.797.61Zm0 0"/></symbol><symbol overflow="visible" id="z"><path style="stroke:none" d="M3.219-1.125H3c-.016.094-.078.484-.156.547-.047.047-.531.047-.625.047h-1.11l.766-.625c.203-.172.734-.547.922-.735.172-.171.422-.484.422-.906 0-.75-.672-1.187-1.485-1.187-.765 0-1.296.515-1.296 1.078 0 .297.25.344.312.344a.32.32 0 0 0 .328-.329c0-.125-.078-.328-.344-.328.141-.297.5-.531.922-.531.625 0 .953.469.953.953 0 .422-.28.86-.687 1.25L.5-.25C.437-.187.437-.187.437 0h2.594Zm0 0"/></symbol><symbol overflow="visible" id="B"><path style="stroke:none" d="M1.766-1.984c.5 0 .843.343.843.953 0 .656-.39.937-.828.937C1.61-.094 1-.125.734-.469c.235-.031.329-.187.329-.344a.328.328 0 0 0-.344-.343.34.34 0 0 0-.344.36c0 .593.656.921 1.422.921.89 0 1.469-.563 1.469-1.156 0-.438-.329-.907-1.047-1.078.484-.157.86-.547.86-1.032 0-.484-.563-.843-1.282-.843-.703 0-1.234.328-1.234.812 0 .266.203.328.328.328.156 0 .312-.094.312-.312 0-.188-.125-.297-.297-.313.281-.312.828-.312.89-.312.298 0 .688.14.688.64 0 .329-.187.907-.796.938-.11 0-.266.015-.313.015-.063.016-.125.016-.125.11s.063.094.156.094Zm0 0"/></symbol><symbol overflow="visible" id="l"><path style="stroke:none" d="M3.078-3.781c0-.156 0-.235-.094-.235-.046 0-.062 0-.187.11-.016.015-.094.094-.156.14-.266-.203-.547-.25-.86-.25-1.187 0-1.468.657-1.468 1.11 0 .281.124.515.328.719.296.28.64.343 1.093.421.47.094.61.11.813.266.094.078.312.25.312.578 0 .797-.906.797-1.03.797-.907 0-1.141-.766-1.25-1.25-.032-.094-.048-.14-.141-.14-.126 0-.126.077-.126.234v1.14c0 .157 0 .235.094.235.063 0 .063 0 .235-.172a1.18 1.18 0 0 1 .171-.219c.375.375.797.39 1.016.39 1.11 0 1.484-.64 1.484-1.234 0-.406-.171-.656-.374-.859-.297-.297-.626-.36-1.282-.484-.234-.047-.89-.157-.89-.672 0-.281.203-.672 1.015-.672.969 0 1.032.75 1.047.969.016.109.016.171.125.171.125 0 .125-.062.125-.234Zm0 0"/></symbol><symbol overflow="visible" id="m"><path style="stroke:none" d="m1.656-3.969-1.297.11v.265c.579 0 .657.063.657.5v2.406c0 .407-.094.407-.688.407V0c.39-.016.594-.031.984-.031.141 0 .516 0 .954.031v-.281c-.579 0-.61-.047-.61-.39Zm.016-1.562a.477.477 0 0 0-.484-.485.497.497 0 0 0-.485.485c0 .265.219.484.485.484a.468.468 0 0 0 .484-.484Zm0 0"/></symbol><symbol overflow="visible" id="n"><path style="stroke:none" d="M1.672-2.328c0-.953.672-1.406 1.234-1.406.531 0 .64.437.64.968v2.079c0 .406-.093.406-.687.406V0c.422-.016.594-.031 1.032-.031.421 0 .546.015 1.015.031v-.281c-.453 0-.687 0-.687-.281v-1.72c0-.734 0-1-.25-1.312-.203-.25-.547-.375-1-.375-.828 0-1.219.625-1.344.875h-.016v-.875l-1.296.11v.265c.609 0 .687.063.687.516v2.39C1-.28.906-.28.312-.28V0c.422-.016.594-.031 1.032-.031.422 0 .547.015 1.015.031v-.281c-.593 0-.687 0-.687-.406Zm0 0"/></symbol><symbol overflow="visible" id="o"><path style="stroke:none" d="M2.719-5.734c0-.22 0-.235-.219-.235-.563.563-1.39.563-1.672.563v.281c.172 0 .719 0 1.203-.234v4.64c0 .328-.015.438-.86.438h-.28V0c.312-.031 1.125-.031 1.484-.031.375 0 1.172 0 1.5.031v-.281h-.281c-.844 0-.875-.11-.875-.438Zm0 0"/></symbol><symbol overflow="visible" id="r"><path style="stroke:none" d="M4.14-1.594h-.25c-.015.125-.093.657-.203.797-.062.078-.671.078-.859.078H1.234l.891-.844c1.469-1.265 2.016-1.75 2.016-2.656 0-1.031-.844-1.75-1.954-1.75-1.03 0-1.734.813-1.734 1.625 0 .453.39.5.469.5.203 0 .469-.14.469-.469a.451.451 0 0 0-.47-.468c-.046 0-.062 0-.109.015.22-.64.797-.921 1.282-.921.906 0 1.219.843 1.219 1.468 0 .907-.688 1.657-1.11 2.125L.563-.328c-.11.11-.11.125-.11.328h3.438Zm0 0"/></symbol><symbol overflow="visible" id="t"><path style="stroke:none" d="M2.734-3.156C3.563-3.47 3.97-4.125 3.97-4.75c0-.688-.766-1.219-1.703-1.219-.922 0-1.625.532-1.625 1.203 0 .297.187.47.453.47a.435.435 0 0 0 .453-.454c0-.313-.219-.438-.531-.438.234-.375.78-.562 1.234-.562.734 0 .875.594.875 1.016 0 .265-.047.703-.266 1.046-.28.391-.593.407-.859.438-.219.016-.234.016-.313.016-.078 0-.156.015-.156.109 0 .125.078.125.235.125h.406c.781 0 1.125.625 1.125 1.469 0 1.156-.61 1.484-1.063 1.484-.171 0-1.046-.047-1.437-.719a.475.475 0 0 0 .562-.484.468.468 0 0 0-.484-.484c-.219 0-.484.14-.484.515 0 .797.828 1.422 1.875 1.422 1.109 0 1.953-.812 1.953-1.734 0-.782-.625-1.438-1.485-1.625Zm0 0"/></symbol><symbol overflow="visible" id="v"><path style="stroke:none" d="M.266-1.766v.282h2.437v.78c0 .329-.015.423-.687.423h-.204V0C2.375-.031 3-.031 3.063-.031c.047 0 .704 0 1.266.031v-.281h-.203c-.672 0-.703-.094-.703-.422v-.781h.922v-.282h-.922v-4.062c0-.188 0-.25-.172-.25-.11 0-.11.016-.188.14Zm.28 0 2.22-3.312v3.312Zm0 0"/></symbol><symbol overflow="visible" id="x"><path style="stroke:none" d="M.938-3.094c0 .156 0 .266.125.266.062 0 .093-.047.14-.125a1.45 1.45 0 0 1 1.172-.594c.969 0 .969 1.39.969 1.703 0 .282 0 .844-.266 1.25-.234.375-.61.547-.969.547a1.456 1.456 0 0 1-1.343-1c.015 0 .062.016.125.016.187 0 .453-.11.453-.438 0-.281-.203-.437-.453-.437-.188 0-.438.11-.438.468 0 .813.688 1.641 1.688 1.641 1.078 0 2-.89 2-2 0-1.078-.766-1.969-1.75-1.969-.422 0-.86.141-1.188.47v-1.767c.281.079.563.125.828.125 1.11 0 1.75-.796 1.75-.921 0-.079-.047-.11-.094-.11-.015 0-.03 0-.124.047a3.488 3.488 0 0 1-1.204.234c-.39 0-.796-.078-1.203-.234-.093-.047-.11-.047-.11-.047-.109 0-.109.078-.109.235Zm0 0"/></symbol><symbol overflow="visible" id="y"><path style="stroke:none" d="M1.203-2.969c0-.922.094-1.422.344-1.89.172-.375.61-.891 1.281-.891.172 0 .594.031.797.36-.328 0-.484.171-.484.406a.41.41 0 0 0 .421.421c.25 0 .422-.171.422-.437 0-.5-.359-.969-1.171-.969-1.157 0-2.422 1.14-2.422 3.14C.39-.405 1.484.204 2.328.204c.985 0 1.89-.844 1.89-2.031 0-1.125-.827-2-1.843-2-.531 0-.922.328-1.172.86Zm1.11 2.922c-.516 0-.813-.422-.907-.687-.172-.407-.187-1.157-.187-1.297 0-.594.281-1.563 1.14-1.563.141 0 .579 0 .875.547.172.344.172.781.172 1.219 0 .422 0 .875-.172 1.203-.28.516-.671.578-.921.578Zm0 0"/></symbol><symbol overflow="visible" id="A"><path style="stroke:none" d="M4.39-5.469c.079-.093.079-.125.079-.312H2.25c-1.14 0-1.172-.11-1.188-.282h-.25L.516-4.188h.25C.796-4.39.875-4.89.984-5c.063-.063.782-.063.907-.063h1.875l-.86 1.172C1.734-2.28 1.625-.812 1.625-.312c0 .109 0 .515.422.515s.422-.406.422-.516V-.75c0-1.328.187-2.36.672-3.016Zm0 0"/></symbol><symbol overflow="visible" id="C"><path style="stroke:none" d="M1.547-4.078c-.266-.172-.484-.406-.484-.734 0-.594.625-.938 1.218-.938.703 0 1.25.484 1.25 1.11 0 .624-.531 1.046-.89 1.25Zm1.312.828c.454-.219 1.11-.656 1.11-1.39 0-.844-.844-1.329-1.656-1.329-.938 0-1.672.672-1.672 1.5 0 .328.125.657.343.922.141.172.204.203.72.531C.921-2.64.39-2.094.39-1.359c0 .953.937 1.562 1.906 1.562C3.344.203 4.219-.53 4.219-1.5c0-.875-.672-1.313-.89-1.453-.095-.063-.36-.235-.47-.297Zm-.906.39 1.125.704c.203.125.656.422.656.969 0 .703-.718 1.14-1.421 1.14C1.53-.047.875-.609.875-1.359c0-.641.438-1.172 1.078-1.5Zm0 0"/></symbol><symbol overflow="visible" id="p"><path style="stroke:none" d="M4.406-3.625a.504.504 0 0 0-.422.484c0 .172.125.329.344.329.25 0 .5-.22.5-.532 0-.422-.453-.625-.875-.625-.531 0-.844.485-.953.672a1.042 1.042 0 0 0-1-.672c-.953 0-1.484 1.156-1.484 1.39 0 .079.062.11.125.11.078 0 .109-.047.125-.11.28-.89.875-1.155 1.218-1.155.266 0 .485.171.485.593 0 .313-.375 1.75-.5 2.188-.063.265-.344.828-.828.828-.188 0-.375-.063-.454-.11.235-.046.422-.265.422-.484 0-.234-.171-.328-.343-.328-.266 0-.5.219-.5.531 0 .438.484.61.859.61.531 0 .828-.422.969-.672.219.594.75.672.984.672.969 0 1.485-1.157 1.485-1.375 0-.047-.032-.11-.11-.11-.11 0-.11.032-.156.172-.203.64-.719 1.094-1.188 1.094-.25 0-.5-.156-.5-.594 0-.203.125-.687.204-1.031.046-.156.28-1.125.296-1.188.11-.328.375-.796.844-.796.156 0 .328.015.453.109Zm0 0"/></symbol><clipPath id="D"><path d="M183 87h38v18.063h-38Zm0 0"/></clipPath></defs><path style="fill:none;stroke-width:.3985;stroke-linecap:round;stroke-linejoin:miter;stroke:gray;stroke-opacity:1;stroke-miterlimit:10" d="M0-6.973v1.992M28.348-6.973v1.992M56.696-6.973v1.992M85.04-6.973v1.992M113.387-6.973v1.992M141.735-6.973v1.992M-6.972 4.218h1.992M-6.972 17.386h1.992M-6.972 30.554h1.992M-6.972 43.722h1.992M-6.972 56.89h1.992M-6.972 70.058h1.992M-6.972 83.226h1.992" transform="matrix(1 0 0 -1 31.488 88.601)"/><path style="fill:none;stroke-width:.3985;stroke-linecap:butt;stroke-linejoin:miter;stroke:gray;stroke-opacity:1;stroke-miterlimit:10" d="M0-4.981h141.735" transform="matrix(1 0 0 -1 31.488 88.601)"/><path style="fill:none;stroke-width:.3985;stroke-linecap:square;stroke-linejoin:miter;stroke:#bfbfbf;stroke-opacity:1;stroke-miterlimit:10" d="M0 0h141.735M0 87.59h141.735" transform="matrix(1 0 0 -1 31.488 88.601)"/><path style="fill:none;stroke-width:.3985;stroke-linecap:butt;stroke-linejoin:miter;stroke:gray;stroke-opacity:1;stroke-miterlimit:10" d="M-4.98 0v87.59" transform="matrix(1 0 0 -1 31.488 88.601)"/><path style="fill:none;stroke-width:.3985;stroke-linecap:square;stroke-linejoin:miter;stroke:#bfbfbf;stroke-opacity:1;stroke-miterlimit:10" d="M0 0v87.59M141.735 0v87.59" transform="matrix(1 0 0 -1 31.488 88.601)"/><path style="fill:none;stroke-width:.59776;stroke-linecap:butt;stroke-linejoin:miter;stroke:#fcc;stroke-opacity:1;stroke-miterlimit:10" d="M0 43.722s4.266 9.613 5.907 12.328c1.636 2.715 4.265 6.352 5.906 7.239 1.636.886 4.265.457 5.902-.852 1.64-1.313 4.27-5.625 5.906-8.59 1.641-2.96 4.27-9.375 5.907-12.766 1.64-3.394 4.265-9.261 5.906-11.68 1.637-2.421 4.266-5.312 5.906-5.76 1.637-.446 4.266.831 5.906 2.542 1.637 1.711 4.266 6.629 5.903 9.79 1.64 3.16 4.27 9.683 5.906 12.991 1.64 3.305 4.27 8.742 5.906 10.828 1.64 2.082 4.266 4.188 5.906 4.188 1.641 0 4.266-2.106 5.907-4.188 1.636-2.086 4.265-7.523 5.906-10.828 1.637-3.304 4.266-9.828 5.906-12.992 1.637-3.16 4.266-8.078 5.903-9.789 1.64-1.71 4.27-2.988 5.906-2.543 1.64.45 4.27 3.34 5.906 5.762 1.64 2.418 4.266 8.285 5.906 11.676 1.637 3.39 4.266 9.808 5.907 12.77 1.636 2.964 4.265 7.276 5.906 8.589 1.637 1.309 4.265 1.738 5.902.852 1.64-.887 4.27-4.524 5.906-7.239 1.641-2.715 5.907-12.328 5.907-12.328" transform="matrix(1 0 0 -1 31.488 88.601)"/><path style="fill:none;stroke-width:.59776;stroke-linecap:butt;stroke-linejoin:miter;stroke:#f66;stroke-opacity:1;stroke-miterlimit:10" d="M0 43.722s4.266 9.84 5.907 12.715c1.636 2.875 4.265 6.852 5.906 8.012 1.636 1.156 4.265 1.324 5.902.34 1.64-.989 4.27-4.688 5.906-7.458 1.641-2.77 4.27-8.972 5.907-12.496 1.64-3.523 4.265-9.93 5.906-12.902 1.637-2.977 4.266-7.219 5.906-8.543 1.637-1.328 4.266-1.832 5.906-1.02 1.637.817 4.266 4.235 5.903 6.887 1.64 2.653 4.27 8.723 5.906 12.235 1.64 3.507 4.27 9.992 5.906 13.058 1.64 3.07 4.266 7.567 5.906 9.059 1.641 1.492 4.266 2.332 5.907 1.695 1.636-.637 4.265-3.762 5.906-6.293 1.637-2.531 4.266-8.469 5.906-11.957 1.637-3.484 4.266-10.023 5.903-13.176 1.64-3.152 4.27-7.89 5.906-9.543 1.64-1.652 4.27-2.828 5.906-2.367 1.64.457 4.266 3.281 5.906 5.684 1.637 2.402 4.266 8.176 5.907 11.633 1.636 3.457 4.265 10.043 5.906 13.273 1.637 3.23 4.265 8.2 5.902 10.008 1.64 1.808 4.27 3.308 5.906 3.027 1.641-.281 5.907-5.062 5.907-5.062" transform="matrix(1 0 0 -1 31.488 88.601)"/><path style="fill:none;stroke-width:.59776;stroke-linecap:butt;stroke-linejoin:miter;stroke:#fff;stroke-opacity:1;stroke-miterlimit:10" d="M0 43.722s4.266 10.102 5.907 13.152c1.636 3.051 4.265 7.383 5.906 8.829 1.636 1.449 4.265 2.23 5.902 1.593 1.64-.633 4.27-3.656 5.906-6.16 1.641-2.508 4.27-8.344 5.907-11.898 1.64-3.551 4.265-10.274 5.906-13.7 1.637-3.43 4.266-8.835 5.906-11.015 1.637-2.18 4.266-4.485 5.906-4.7 1.637-.21 4.266 1.344 5.903 3.169 1.64 1.824 4.27 6.726 5.906 9.988 1.64 3.262 4.27 9.89 5.906 13.52 1.64 3.624 4.266 9.812 5.906 12.609 1.641 2.797 4.266 6.5 5.907 7.547 1.636 1.047 4.265 1.047 5.906 0 1.637-1.047 4.266-4.75 5.906-7.547 1.637-2.797 4.266-8.985 5.903-12.61 1.64-3.628 4.27-10.257 5.906-13.52 1.64-3.26 4.27-8.163 5.906-9.987 1.64-1.825 4.266-3.38 5.906-3.168 1.637.214 4.266 2.52 5.907 4.699 1.636 2.18 4.265 7.586 5.906 11.015 1.637 3.426 4.265 10.149 5.902 13.7 1.64 3.554 4.27 9.39 5.906 11.898 1.641 2.504 5.907 6.16 5.907 6.16" transform="matrix(1 0 0 -1 31.488 88.601)"/><path style="fill:none;stroke-width:.59776;stroke-linecap:butt;stroke-linejoin:miter;stroke:#f99;stroke-opacity:1;stroke-miterlimit:10" d="M0 43.722S4.266 54.14 5.907 57.378c1.636 3.243 4.265 7.946 5.906 9.7 1.636 1.75 4.265 3.168 5.902 2.921 1.64-.246 4.27-2.53 5.906-4.707 1.641-2.171 4.27-7.496 5.907-10.964 1.64-3.47 4.265-10.286 5.906-14.043 1.637-3.758 4.266-10.086 5.906-13.043 1.637-2.957 4.266-6.97 5.906-8.266 1.637-1.297 4.266-1.82 5.903-1.082 1.64.742 4.27 3.852 5.906 6.414 1.64 2.563 4.27 8.41 5.906 12.047 1.64 3.64 4.266 10.523 5.906 14.184 1.641 3.66 4.266 9.582 5.907 12.203 1.636 2.62 4.265 5.867 5.906 6.687 1.637.82 4.266.445 5.906-.773 1.637-1.22 4.266-5.106 5.903-8.008 1.64-2.902 4.27-9.176 5.906-12.922 1.64-3.746 4.27-10.574 5.906-14.078 1.64-3.5 4.266-8.918 5.906-11.16 1.637-2.242 4.266-4.668 5.907-5 1.636-.328 4.265.941 5.906 2.617 1.637 1.676 4.265 6.27 5.902 9.469 1.64 3.195 4.27 9.785 5.906 13.574 1.641 3.789 5.907 13.738 5.907 13.738" transform="matrix(1 0 0 -1 31.488 88.601)"/><path style="fill:none;stroke-width:.59776;stroke-linecap:butt;stroke-linejoin:miter;stroke:#f33;stroke-opacity:1;stroke-miterlimit:10" d="M0 43.722s4.266 10.8 5.907 14.258c1.636 3.453 4.265 8.566 5.906 10.644 1.636 2.079 4.265 4.157 5.902 4.329 1.64.175 4.27-1.305 5.906-3.082 1.641-1.778 4.27-6.442 5.907-9.715 1.64-3.274 4.265-9.946 5.906-13.887 1.637-3.941 4.266-10.914 5.906-14.523 1.637-3.61 4.266-9.13 5.906-11.493 1.637-2.363 4.266-5.023 5.903-5.539 1.64-.52 4.27.352 5.906 1.813 1.64 1.46 4.27 5.648 5.906 8.719 1.64 3.066 4.266 9.5 5.906 13.394 1.641 3.898 4.266 10.95 5.907 14.688 1.636 3.738 4.265 9.62 5.906 12.253 1.637 2.63 4.266 5.848 5.906 6.704 1.637.855 4.266.601 5.903-.536 1.64-1.132 4.27-4.804 5.906-7.64 1.64-2.84 4.27-8.992 5.906-12.817 1.64-3.82 4.266-10.89 5.906-14.726 1.637-3.836 4.266-10.04 5.907-12.918 1.636-2.879 4.265-6.64 5.906-7.832 1.637-1.188 4.265-1.55 5.902-.75 1.64.8 4.27 3.93 5.906 6.52 1.641 2.585 5.907 12.128 5.907 12.128" transform="matrix(1 0 0 -1 31.488 88.601)"/><path style="fill:none;stroke-width:.59776;stroke-linecap:butt;stroke-linejoin:miter;stroke:#fcc;stroke-opacity:1;stroke-miterlimit:10" d="M0 43.722s4.266 11.281 5.907 14.984c1.636 3.704 4.265 9.266 5.906 11.7 1.636 2.437 4.265 5.218 5.902 5.851 1.64.633 4.27.016 5.906-1.293 1.641-1.304 4.27-5.175 5.907-8.136 1.64-2.961 4.265-9.243 5.906-13.207 1.637-3.97 4.266-11.278 5.906-15.375 1.637-4.102 4.266-10.844 5.906-14.176 1.637-3.336 4.266-8.028 5.903-9.867 1.64-1.84 4.27-3.454 5.906-3.391 1.64.059 4.27 1.879 5.906 3.824 1.64 1.95 4.266 6.8 5.906 10.207 1.641 3.406 4.266 10.227 5.907 14.348 1.636 4.117 4.265 11.41 5.906 15.336 1.637 3.93 4.266 10.097 5.906 12.972 1.637 2.875 4.266 6.563 5.903 7.758 1.64 1.192 4.27 1.586 5.906.836 1.64-.75 4.27-3.722 5.906-6.254 1.64-2.531 4.266-8.238 5.906-11.992 1.637-3.758 4.266-10.922 5.907-15.078 1.636-4.156 4.265-11.227 5.906-14.875 1.637-3.645 4.265-9.07 5.902-11.406 1.64-2.336 4.27-4.918 5.906-5.434 1.641-.512 5.907 1.735 5.907 1.735" transform="matrix(1 0 0 -1 31.488 88.601)"/><path style="fill:none;stroke-width:.59776;stroke-linecap:butt;stroke-linejoin:miter;stroke:#f66;stroke-opacity:1;stroke-miterlimit:10" d="M0 43.722s4.266 11.899 5.907 15.895c1.636 4 4.265 10.086 5.906 12.922 1.636 2.835 4.265 6.378 5.902 7.523 1.64 1.14 4.27 1.477 5.906.71 1.641-.765 4.27-3.702 5.907-6.234 1.64-2.53 4.265-8.183 5.906-12.003C37.07 58.71 39.7 51.394 41.34 46.999c1.637-4.398 4.266-12 5.906-16.144 1.637-4.145 4.266-10.613 5.903-13.734 1.64-3.122 4.27-7.239 5.906-8.75 1.64-1.508 4.27-2.508 5.906-2.125 1.64.386 4.266 2.695 5.906 4.898 1.641 2.207 4.266 7.387 5.907 11 1.636 3.613 4.265 10.703 5.906 15.047 1.637 4.344 4.266 12.004 5.906 16.265 1.637 4.262 4.266 11.063 5.903 14.446 1.64 3.379 4.27 8.05 5.906 9.918 1.64 1.863 4.27 3.523 5.906 3.523 1.64 0 4.266-1.66 5.906-3.523 1.637-1.867 4.266-6.535 5.907-9.914 1.636-3.38 4.265-10.188 5.906-14.45 1.637-4.261 4.265-11.921 5.902-16.265 1.64-4.344 4.27-11.43 5.906-15.043 1.641-3.613 5.907-11.004 5.907-11.004" transform="matrix(1 0 0 -1 31.488 88.601)"/><path style="fill:none;stroke-width:.59776;stroke-linecap:butt;stroke-linejoin:miter;stroke:red;stroke-opacity:1;stroke-miterlimit:10" d="M0 43.722s4.266 12.723 5.907 17.09c1.636 4.371 4.265 11.086 5.906 14.39 1.636 3.305 4.265 7.704 5.902 9.422 1.64 1.72 4.27 3.106 5.906 2.965 1.641-.136 4.27-1.984 5.907-3.957 1.64-1.972 4.265-6.761 5.906-10.258 1.637-3.496 4.266-10.472 5.906-14.941 1.637-4.469 4.266-12.523 5.906-17.258 1.637-4.734 4.266-12.61 5.903-16.863 1.64-4.254 4.27-10.7 5.906-13.8 1.64-3.099 4.27-7.09 5.906-8.552C66.601.503 69.227-.415 70.867 0c1.641.413 4.266 2.722 5.907 4.94C78.41 7.16 81.039 12.325 82.68 16c1.637 3.68 4.266 10.89 5.906 15.44 1.637 4.556 4.266 12.661 5.903 17.372 1.64 4.71 4.27 12.45 5.906 16.574 1.64 4.125 4.27 10.27 5.906 13.156 1.64 2.887 4.266 6.461 5.906 7.657 1.637 1.191 4.266 1.636 5.907.949 1.636-.692 4.265-3.445 5.906-5.906 1.637-2.461 4.265-7.98 5.902-11.829 1.64-3.843 4.27-11.261 5.906-15.882 1.641-4.621 5.907-17.426 5.907-17.426" transform="matrix(1 0 0 -1 31.488 88.601)"/><use xlink:href="#a" x="27.213" y="103.894" style="fill:#000;fill-opacity:1"/><use xlink:href="#b" x="31.447" y="101.081" style="fill:#000;fill-opacity:1"/><g style="fill:#000;fill-opacity:1"><use xlink:href="#c" x="53.442" y="103.894"/><use xlink:href="#a" x="57.677" y="103.894"/></g><use xlink:href="#b" x="61.911" y="101.081" style="fill:#000;fill-opacity:1"/><g style="fill:#000;fill-opacity:1"><use xlink:href="#d" x="81.789" y="103.894"/><use xlink:href="#a" x="86.024" y="103.894"/></g><use xlink:href="#b" x="90.258" y="101.081" style="fill:#000;fill-opacity:1"/><g style="fill:#000;fill-opacity:1"><use xlink:href="#e" x="110.136" y="103.894"/><use xlink:href="#a" x="114.371" y="103.894"/></g><use xlink:href="#b" x="118.604" y="101.081" style="fill:#000;fill-opacity:1"/><g style="fill:#000;fill-opacity:1"><use xlink:href="#f" x="138.483" y="103.894"/><use xlink:href="#a" x="142.718" y="103.894"/></g><use xlink:href="#b" x="146.951" y="101.081" style="fill:#000;fill-opacity:1"/><g style="fill:#000;fill-opacity:1"><use xlink:href="#g" x="166.829" y="103.894"/><use xlink:href="#a" x="171.064" y="103.894"/></g><use xlink:href="#b" x="175.298" y="101.081" style="fill:#000;fill-opacity:1"/><use xlink:href="#h" x=".217" y="86.535" style="fill:#000;fill-opacity:1"/><use xlink:href="#a" x="6.804" y="86.535" style="fill:#000;fill-opacity:1"/><use xlink:href="#i" x="11.038" y="86.535" style="fill:#000;fill-opacity:1"/><g style="fill:#000;fill-opacity:1"><use xlink:href="#c" x="13.39" y="86.535"/><use xlink:href="#g" x="17.625" y="86.535"/></g><use xlink:href="#h" x=".217" y="73.367" style="fill:#000;fill-opacity:1"/><use xlink:href="#a" x="6.804" y="73.367" style="fill:#000;fill-opacity:1"/><use xlink:href="#i" x="11.038" y="73.367" style="fill:#000;fill-opacity:1"/><g style="fill:#000;fill-opacity:1"><use xlink:href="#c" x="13.39" y="73.367"/><use xlink:href="#a" x="17.625" y="73.367"/></g><use xlink:href="#h" x=".217" y="60.2" style="fill:#000;fill-opacity:1"/><use xlink:href="#a" x="6.804" y="60.2" style="fill:#000;fill-opacity:1"/><use xlink:href="#i" x="11.038" y="60.2" style="fill:#000;fill-opacity:1"/><g style="fill:#000;fill-opacity:1"><use xlink:href="#a" x="13.39" y="60.2"/><use xlink:href="#g" x="17.625" y="60.2"/></g><use xlink:href="#a" x="6.804" y="47.448" style="fill:#000;fill-opacity:1"/><use xlink:href="#i" x="11.038" y="47.448" style="fill:#000;fill-opacity:1"/><g style="fill:#000;fill-opacity:1"><use xlink:href="#a" x="13.39" y="47.448"/><use xlink:href="#a" x="17.625" y="47.448"/></g><use xlink:href="#a" x="6.804" y="34.28" style="fill:#000;fill-opacity:1"/><use xlink:href="#i" x="11.038" y="34.28" style="fill:#000;fill-opacity:1"/><g style="fill:#000;fill-opacity:1"><use xlink:href="#a" x="13.39" y="34.28"/><use xlink:href="#g" x="17.625" y="34.28"/></g><use xlink:href="#a" x="6.804" y="21.113" style="fill:#000;fill-opacity:1"/><use xlink:href="#i" x="11.038" y="21.113" style="fill:#000;fill-opacity:1"/><g style="fill:#000;fill-opacity:1"><use xlink:href="#c" x="13.39" y="21.113"/><use xlink:href="#a" x="17.625" y="21.113"/></g><use xlink:href="#a" x="6.804" y="7.945" style="fill:#000;fill-opacity:1"/><use xlink:href="#i" x="11.038" y="7.945" style="fill:#000;fill-opacity:1"/><g style="fill:#000;fill-opacity:1"><use xlink:href="#c" x="13.39" y="7.945"/><use xlink:href="#g" x="17.625" y="7.945"/></g><use xlink:href="#j" x="218.498" y="7.434" style="fill:#000;fill-opacity:1"/><path style="fill:none;stroke-width:.379;stroke-linecap:butt;stroke-linejoin:miter;stroke:#000;stroke-opacity:1;stroke-miterlimit:10" d="M-.002-.001h3.656" transform="matrix(1 0 0 -1 218.498 8.866)"/><use xlink:href="#k" x="218.498" y="14.15" style="fill:#000;fill-opacity:1"/><g style="fill:#000;fill-opacity:1"><use xlink:href="#l" x="224.882" y="11.108"/><use xlink:href="#m" x="228.517" y="11.108"/><use xlink:href="#n" x="231.077" y="11.108"/></g><g style="fill:#000;fill-opacity:1"><use xlink:href="#o" x="237.73" y="11.108"/><use xlink:href="#o" x="242.338" y="11.108"/></g><use xlink:href="#p" x="246.948" y="11.108" style="fill:#000;fill-opacity:1"/><path style="fill:none;stroke-width:.59776;stroke-linecap:butt;stroke-linejoin:miter;stroke:red;stroke-opacity:1;stroke-miterlimit:10" d="M-19.927.001s2.91 1.508 4.98 1.325c2.075-.184 7.892-2.47 9.966-2.653C-2.907-1.51-.001.001-.001.001" transform="matrix(1 0 0 -1 212.325 8.896)"/><use xlink:href="#j" x="218.498" y="19.995" style="fill:#000;fill-opacity:1"/><path style="fill:none;stroke-width:.379;stroke-linecap:butt;stroke-linejoin:miter;stroke:#000;stroke-opacity:1;stroke-miterlimit:10" d="M-.002.001h3.656" transform="matrix(1 0 0 -1 218.498 21.427)"/><use xlink:href="#q" x="218.498" y="26.711" style="fill:#000;fill-opacity:1"/><g style="fill:#000;fill-opacity:1"><use xlink:href="#l" x="224.882" y="23.668"/><use xlink:href="#m" x="228.517" y="23.668"/><use xlink:href="#n" x="231.077" y="23.668"/></g><g style="fill:#000;fill-opacity:1"><use xlink:href="#o" x="237.73" y="23.668"/><use xlink:href="#r" x="242.338" y="23.668"/></g><use xlink:href="#p" x="246.948" y="23.668" style="fill:#000;fill-opacity:1"/><path style="fill:none;stroke-width:.59776;stroke-linecap:butt;stroke-linejoin:miter;stroke:#f66;stroke-opacity:1;stroke-miterlimit:10" d="M-19.927 0s2.91 1.512 4.98 1.328c2.075-.183 7.892-2.473 9.966-2.656C-2.907-1.512-.001 0-.001 0" transform="matrix(1 0 0 -1 212.325 21.457)"/><use xlink:href="#j" x="218.498" y="32.556" style="fill:#000;fill-opacity:1"/><path style="fill:none;stroke-width:.379;stroke-linecap:butt;stroke-linejoin:miter;stroke:#000;stroke-opacity:1;stroke-miterlimit:10" d="M-.002 0h3.656" transform="matrix(1 0 0 -1 218.498 33.988)"/><use xlink:href="#s" x="218.498" y="39.272" style="fill:#000;fill-opacity:1"/><g style="fill:#000;fill-opacity:1"><use xlink:href="#l" x="224.882" y="36.229"/><use xlink:href="#m" x="228.517" y="36.229"/><use xlink:href="#n" x="231.077" y="36.229"/></g><g style="fill:#000;fill-opacity:1"><use xlink:href="#o" x="237.73" y="36.229"/><use xlink:href="#t" x="242.338" y="36.229"/></g><use xlink:href="#p" x="246.948" y="36.229" style="fill:#000;fill-opacity:1"/><path style="fill:none;stroke-width:.59776;stroke-linecap:butt;stroke-linejoin:miter;stroke:#fcc;stroke-opacity:1;stroke-miterlimit:10" d="M-19.927-.002s2.91 1.512 4.98 1.329c2.075-.184 7.892-2.47 9.966-2.653 2.074-.183 4.98 1.324 4.98 1.324" transform="matrix(1 0 0 -1 212.325 34.018)"/><use xlink:href="#j" x="218.498" y="45.117" style="fill:#000;fill-opacity:1"/><path style="fill:none;stroke-width:.379;stroke-linecap:butt;stroke-linejoin:miter;stroke:#000;stroke-opacity:1;stroke-miterlimit:10" d="M-.002-.002h3.656" transform="matrix(1 0 0 -1 218.498 46.549)"/><use xlink:href="#u" x="218.498" y="51.833" style="fill:#000;fill-opacity:1"/><g style="fill:#000;fill-opacity:1"><use xlink:href="#l" x="224.882" y="48.79"/><use xlink:href="#m" x="228.517" y="48.79"/><use xlink:href="#n" x="231.077" y="48.79"/></g><g style="fill:#000;fill-opacity:1"><use xlink:href="#o" x="237.73" y="48.79"/><use xlink:href="#v" x="242.338" y="48.79"/></g><use xlink:href="#p" x="246.948" y="48.79" style="fill:#000;fill-opacity:1"/><path style="fill:none;stroke-width:.59776;stroke-linecap:butt;stroke-linejoin:miter;stroke:#f33;stroke-opacity:1;stroke-miterlimit:10" d="M-19.927 0s2.91 1.512 4.98 1.328c2.075-.184 7.892-2.473 9.966-2.656C-2.907-1.512-.001 0-.001 0" transform="matrix(1 0 0 -1 212.325 46.578)"/><use xlink:href="#j" x="220.324" y="57.677" style="fill:#000;fill-opacity:1"/><path style="fill:none;stroke-width:.379;stroke-linecap:butt;stroke-linejoin:miter;stroke:#000;stroke-opacity:1;stroke-miterlimit:10" d="M-.002 0h7.309" transform="matrix(1 0 0 -1 218.498 59.109)"/><g style="fill:#000;fill-opacity:1"><use xlink:href="#j" x="218.498" y="64.394"/><use xlink:href="#w" x="222.151" y="64.394"/></g><g style="fill:#000;fill-opacity:1"><use xlink:href="#l" x="228.535" y="61.351"/><use xlink:href="#m" x="232.17" y="61.351"/><use xlink:href="#n" x="234.73" y="61.351"/></g><g style="fill:#000;fill-opacity:1"><use xlink:href="#o" x="241.383" y="61.351"/><use xlink:href="#x" x="245.991" y="61.351"/></g><use xlink:href="#p" x="250.601" y="61.351" style="fill:#000;fill-opacity:1"/><path style="fill:none;stroke-width:.59776;stroke-linecap:butt;stroke-linejoin:miter;stroke:#f99;stroke-opacity:1;stroke-miterlimit:10" d="M-19.927-.002s2.91 1.512 4.98 1.329c2.075-.184 7.892-2.47 9.966-2.653 2.074-.183 4.98 1.324 4.98 1.324" transform="matrix(1 0 0 -1 212.325 59.139)"/><use xlink:href="#j" x="220.324" y="70.238" style="fill:#000;fill-opacity:1"/><path style="fill:none;stroke-width:.379;stroke-linecap:butt;stroke-linejoin:miter;stroke:#000;stroke-opacity:1;stroke-miterlimit:10" d="M-.002-.002h7.309" transform="matrix(1 0 0 -1 218.498 71.67)"/><g style="fill:#000;fill-opacity:1"><use xlink:href="#j" x="218.498" y="76.954"/><use xlink:href="#j" x="222.151" y="76.954"/></g><g style="fill:#000;fill-opacity:1"><use xlink:href="#l" x="228.535" y="73.912"/><use xlink:href="#m" x="232.17" y="73.912"/><use xlink:href="#n" x="234.73" y="73.912"/></g><g style="fill:#000;fill-opacity:1"><use xlink:href="#o" x="241.383" y="73.912"/><use xlink:href="#y" x="245.991" y="73.912"/></g><use xlink:href="#p" x="250.601" y="73.912" style="fill:#000;fill-opacity:1"/><path style="fill:none;stroke-width:.59776;stroke-linecap:butt;stroke-linejoin:miter;stroke:#fff;stroke-opacity:1;stroke-miterlimit:10" d="M-19.927 0s2.91 1.512 4.98 1.329c2.075-.188 7.892-2.473 9.966-2.656C-2.907-1.511-.001 0-.001 0" transform="matrix(1 0 0 -1 212.325 71.7)"/><use xlink:href="#j" x="220.324" y="82.799" style="fill:#000;fill-opacity:1"/><path style="fill:none;stroke-width:.379;stroke-linecap:butt;stroke-linejoin:miter;stroke:#000;stroke-opacity:1;stroke-miterlimit:10" d="M-.002 0h7.309" transform="matrix(1 0 0 -1 218.498 84.231)"/><g style="fill:#000;fill-opacity:1"><use xlink:href="#j" x="218.498" y="89.515"/><use xlink:href="#z" x="222.151" y="89.515"/></g><g style="fill:#000;fill-opacity:1"><use xlink:href="#l" x="228.535" y="86.473"/><use xlink:href="#m" x="232.17" y="86.473"/><use xlink:href="#n" x="234.73" y="86.473"/></g><g style="fill:#000;fill-opacity:1"><use xlink:href="#o" x="241.383" y="86.473"/><use xlink:href="#A" x="245.991" y="86.473"/></g><use xlink:href="#p" x="250.601" y="86.473" style="fill:#000;fill-opacity:1"/><path style="fill:none;stroke-width:.59776;stroke-linecap:butt;stroke-linejoin:miter;stroke:#f66;stroke-opacity:1;stroke-miterlimit:10" d="M-19.927 0s2.91 1.511 4.98 1.327c2.075-.183 7.892-2.468 9.966-2.656C-2.907-1.512-.001 0-.001 0" transform="matrix(1 0 0 -1 212.325 84.261)"/><use xlink:href="#j" x="220.324" y="95.36" style="fill:#000;fill-opacity:1"/><path style="fill:none;stroke-width:.379;stroke-linecap:butt;stroke-linejoin:miter;stroke:#000;stroke-opacity:1;stroke-miterlimit:10" d="M-.002-.001h7.309" transform="matrix(1 0 0 -1 218.498 96.792)"/><g style="fill:#000;fill-opacity:1"><use xlink:href="#j" x="218.498" y="102.076"/><use xlink:href="#B" x="222.151" y="102.076"/></g><g style="fill:#000;fill-opacity:1"><use xlink:href="#l" x="228.535" y="99.034"/><use xlink:href="#m" x="232.17" y="99.034"/><use xlink:href="#n" x="234.73" y="99.034"/></g><g style="fill:#000;fill-opacity:1"><use xlink:href="#o" x="241.383" y="99.034"/><use xlink:href="#C" x="245.991" y="99.034"/></g><use xlink:href="#p" x="250.601" y="99.034" style="fill:#000;fill-opacity:1"/><g clip-path="url(#D)"><path style="fill:none;stroke-width:.59776;stroke-linecap:butt;stroke-linejoin:miter;stroke:#fcc;stroke-opacity:1;stroke-miterlimit:10" d="M-19.927.002s2.91 1.508 4.98 1.324c2.075-.184 7.892-2.469 9.966-2.652C-2.907-1.51-.001.002-.001.002" transform="matrix(1 0 0 -1 212.325 96.822)"/></g></svg>