<svg xmlns="http://www.w3.org/2000/svg" width="42.541" height="12.651" viewBox="0 0 31.906 9.488" version="1.2"><defs><clipPath id="a"><path d="M0 0h31.86v9.23H0Zm0 0"/></clipPath><clipPath id="b"><path d="M1 0h30.86v9.23H1Zm0 0"/></clipPath></defs><path style="fill:none;stroke-width:1.59404;stroke-linecap:butt;stroke-linejoin:miter;stroke:#000;stroke-opacity:1;stroke-miterlimit:10" d="M-.001 2.212h23.215" transform="matrix(1 0 0 -1 .962 6.696)"/><path style="stroke:none;fill-rule:nonzero;fill:#000;fill-opacity:1" d="M21.227 4.484a2.937 2.937 0 0 0-2.942-2.937 2.937 2.937 0 1 0 0 5.875 2.937 2.937 0 0 0 2.942-2.938Zm0 0"/><g clip-path="url(#a)"><path style="fill:none;stroke-width:1.59404;stroke-linecap:butt;stroke-linejoin:miter;stroke:#000;stroke-opacity:1;stroke-miterlimit:10" d="M6.676 0a2.937 2.937 0 0 1-2.942 2.937 2.937 2.937 0 1 1 0-5.875A2.937 2.937 0 0 1 6.676 0Zm0 0" transform="matrix(1 0 0 -1 14.551 4.484)"/></g><path style="stroke:none;fill-rule:nonzero;fill:#000;fill-opacity:1" d="M30.055 4.484a2.937 2.937 0 0 0-2.942-2.937 2.937 2.937 0 1 0 0 5.875 2.937 2.937 0 0 0 2.942-2.938Zm0 0"/><g clip-path="url(#b)"><path style="fill:none;stroke-width:1.59404;stroke-linecap:butt;stroke-linejoin:miter;stroke:#000;stroke-opacity:1;stroke-miterlimit:10" d="M6.677 0a2.937 2.937 0 0 1-2.942 2.937 2.937 2.937 0 1 1 0-5.875A2.937 2.937 0 0 1 6.677 0Zm0 0" transform="matrix(1 0 0 -1 23.378 4.484)"/></g></svg>