<svg xmlns="http://www.w3.org/2000/svg" xmlns:xlink="http://www.w3.org/1999/xlink" width="182.748" height="258.339" viewBox="0 0 137.061 193.754" version="1.2"><defs><symbol overflow="visible" id="a"><path style="stroke:none" d="M1.781-1.14C1.391-.485 1-.345.563-.314c-.125.016-.22.016-.22.204 0 .062.063.109.141.109.266 0 .579-.031.844-.031.344 0 .688.031 1 .031.063 0 .188 0 .188-.188 0-.109-.079-.124-.157-.124-.218-.016-.468-.094-.468-.344 0-.125.062-.235.14-.375l.766-1.266h2.5c.016.203.156 1.563.156 1.656 0 .297-.516.329-.719.329-.14 0-.234 0-.234.203C4.5 0 4.61 0 4.64 0c.407 0 .829-.031 1.235-.031.25 0 .89.031 1.14.031.048 0 .173 0 .173-.203 0-.11-.094-.11-.235-.11-.61 0-.61-.062-.64-.359l-.61-6.219c-.016-.203-.016-.25-.187-.25-.157 0-.204.079-.266.172Zm1.203-1.47 1.954-3.296.328 3.297Zm0 0"/></symbol><symbol overflow="visible" id="b"><path style="stroke:none" d="M1.594-.781c-.094.39-.125.469-.907.469-.171 0-.265 0-.265.203C.422 0 .516 0 .688 0H4.25C5.828 0 7-1.172 7-2.156c0-.719-.578-1.297-1.547-1.406 1.031-.188 2.078-.922 2.078-1.876 0-.734-.656-1.375-1.843-1.375h-3.36c-.187 0-.281 0-.281.204 0 .109.094.109.281.109.016 0 .203 0 .375.016.172.03.266.03.266.171 0 .032-.016.063-.031.188Zm1.5-2.875.625-2.469c.094-.344.11-.375.531-.375h1.297c.875 0 1.078.594 1.078 1.031 0 .875-.86 1.813-2.063 1.813ZM2.656-.312h-.219c-.109-.016-.14-.032-.14-.11 0-.031 0-.047.062-.219l.688-2.78h1.875c.953 0 1.156.733 1.156 1.155 0 .985-.89 1.954-2.078 1.954Zm0 0"/></symbol><symbol overflow="visible" id="c"><path style="stroke:none" d="M7.063-2.328c.015-.047.046-.11.046-.14 0 0 0-.11-.125-.11-.093 0-.109.062-.125.125-.656 1.469-1.015 2.14-2.718 2.14H2.469c-.11-.015-.14-.03-.14-.109 0-.031 0-.047.046-.219l.688-2.734h.984c.844 0 .844.219.844.469 0 .062 0 .187-.063.484-.016.047-.031.078-.031.11 0 .046.031.109.125.109.078 0 .11-.047.156-.203l.563-2.328c0-.063-.047-.11-.125-.11-.079 0-.11.063-.125.172-.22.766-.391 1-1.313 1h-.937l.593-2.406c.094-.36.11-.39.547-.39h1.407c1.203 0 1.515.28 1.515 1.109 0 .234 0 .25-.047.53 0 .048-.015.126-.015.173 0 .047.03.125.125.125.109 0 .125-.063.14-.25l.203-1.735c.032-.265-.015-.265-.265-.265H2.297c-.188 0-.297 0-.297.203 0 .11.094.11.281.11.375 0 .656 0 .656.171 0 .047 0 .063-.062.25L1.562-.78c-.093.39-.109.469-.906.469-.172 0-.281 0-.281.187C.375 0 .469 0 .656 0h5.172c.234 0 .25-.016.313-.172Zm0 0"/></symbol><symbol overflow="visible" id="e"><path style="stroke:none" d="M7.578-6.922c0-.031-.016-.11-.11-.11-.03 0-.046.016-.155.126l-.688.765c-.094-.14-.547-.89-1.656-.89C2.734-7.031.5-4.828.5-2.516.5-.875 1.672.22 3.203.22c.86 0 1.625-.39 2.156-.86.922-.812 1.094-1.718 1.094-1.75 0-.109-.11-.109-.125-.109-.062 0-.11.031-.125.11-.094.28-.328 1-1.016 1.578-.687.546-1.312.718-1.828.718-.89 0-1.953-.515-1.953-2.062 0-.578.203-2.188 1.203-3.36.61-.703 1.547-1.203 2.438-1.203 1.016 0 1.61.766 1.61 1.922 0 .406-.032.406-.032.516 0 .093.11.093.14.093.126 0 .126-.015.188-.203Zm0 0"/></symbol><symbol overflow="visible" id="g"><path style="stroke:none" d="M1.578-.781c-.094.39-.11.469-.906.469-.156 0-.266 0-.266.187C.406 0 .484 0 .672 0h3.312c2.063 0 4.032-2.11 4.032-4.281 0-1.407-.844-2.532-2.344-2.532H2.328c-.187 0-.297 0-.297.188 0 .125.078.125.281.125.126 0 .313.016.422.016.172.03.22.046.22.171 0 .032 0 .063-.032.188Zm2.156-5.344c.094-.344.11-.375.547-.375h1.063c.968 0 1.797.531 1.797 1.844 0 .484-.188 2.125-1.047 3.218A2.919 2.919 0 0 1 3.797-.313H2.453c-.094-.015-.125-.03-.125-.109 0-.031 0-.047.047-.219Zm0 0"/></symbol><symbol overflow="visible" id="h"><path style="stroke:none" d="m4.047.578.969-3.89c.03-.141.03-.22.03-.22 0-.202-.155-.374-.405-.374-.235 0-.329.11-.422.187-.25-.25-.547-.328-.86-.328-1.53 0-2.406 1.469-2.406 2.625C.953-.469 1.61 0 2.406 0c.297 0 .578-.078.875-.234L3.125.39c-.203.843-.719 1.093-1.203 1.093-.25 0-.453-.015-.563-.046a.719.719 0 0 0 .25-.5c0-.235-.171-.422-.437-.422a.66.66 0 0 0-.64.671c0 .547.702.625 1.374.625 1.078 0 1.938-.453 2.14-1.234Zm-.563-1.625c-.078.313-.609.719-1.03.719-.485 0-.532-.438-.532-.625 0-.5.328-1.578.453-1.906.281-.735.75-.875.984-.875.266 0 .547.14.657.546Zm0 0"/></symbol><symbol overflow="visible" id="i"><path style="stroke:none" d="M4.828-5.594c0-.422-.422-.703-1.016-.703-1.109 0-1.374.984-1.453 1.438l-.156.875h-.828c-.156 0-.313 0-.313.265 0 .156.141.156.282.156h.765L1.484-.14c-.078.47-.109.579-.218 1.016-.032.14-.157.61-.454.61 0 0-.14 0-.265-.063A.682.682 0 0 0 .922.844C.922.594.734.438.469.438a.65.65 0 0 0-.64.671c0 .438.452.704.984.704.328 0 1.078-.188 1.5-1.516.109-.39.156-.563.218-.953l.547-2.906h.985c.156 0 .312 0 .312-.266 0-.156-.156-.156-.281-.156h-.938c.078-.422.281-1.641.344-1.766.047-.11.188-.219.313-.219.03 0 .156 0 .28.063-.187.11-.359.328-.359.578 0 .25.188.406.454.406a.66.66 0 0 0 .64-.672Zm0 0"/></symbol><symbol overflow="visible" id="j"><path style="stroke:none" d="M4.813-.766c0-.078-.188-.296-.282-.296-.015 0-.062 0-.125.062-.656.75-1.562.75-1.703.75-.484 0-.765-.281-.765-.797 0-.344.25-1.437.5-1.906.343-.64.906-.781 1.171-.781.094 0 .344.015.5.187a.686.686 0 0 0-.453.61c0 .124.078.406.453.406s.641-.313.641-.703c0-.438-.39-.813-1.14-.813-1.704 0-2.657 1.453-2.657 2.61 0 .734.422 1.515 1.75 1.515.235 0 .781-.031 1.266-.203.484-.188.844-.531.844-.64Zm0 0"/></symbol><symbol overflow="visible" id="k"><path style="stroke:none" d="M4.813-2.625c0-1.063-.75-1.422-1.438-1.422-.39 0-.734.156-.875.25l.531-2.125c.016-.047.031-.094.031-.14 0-.172-.171-.157-.296-.157l-1.094.063c-.11 0-.281 0-.281.265 0 .157.156.157.234.157.11 0 .281.015.39.015l-.937 3.735C1-1.672 1-1.438 1-1.344 1-.266 1.766.078 2.406.078c1.531 0 2.406-1.516 2.406-2.703ZM3.438-1.25c-.313.922-.844 1-1.016 1-.563 0-.563-.578-.563-.703 0-.313.063-.547.204-1.094.078-.328.14-.547.203-.828.062-.234.062-.25.14-.344.235-.281.594-.515.938-.515.203 0 .515.125.515.64 0 .485-.312 1.594-.421 1.844Zm0 0"/></symbol><symbol overflow="visible" id="l"><path style="stroke:none" d="M5.516-1.328c0-.125-.11-.125-.25-.125-.22 0-.22.016-.282.234-.078.297-.234.969-.546.969-.11 0-.172-.078-.172-.281 0-.172.015-.235.062-.39l.594-2.423c.031-.125.031-.14.031-.187 0-.203-.14-.375-.39-.375a.62.62 0 0 0-.422.187c-.297-.297-.641-.328-.875-.328-1.5 0-2.407 1.484-2.407 2.688C.86-.297 1.61.078 2.297.078c.547 0 .969-.297 1.187-.469.172.313.563.47.922.47.422 0 .64-.313.766-.485.234-.39.344-.89.344-.922Zm-2.141.437c-.39.5-.766.641-1.047.641-.203 0-.5-.125-.5-.64 0-.485.313-1.579.406-1.829.297-.875.797-1.015 1.032-1.015.312 0 .562.203.656.562l-.516 2.11c-.031.062-.031.093-.031.171Zm0 0"/></symbol><symbol overflow="visible" id="n"><path style="stroke:none" d="M4.813-.766c0-.078-.188-.296-.282-.296-.015 0-.062 0-.125.062-.656.75-1.562.75-1.687.75-.5 0-.766-.297-.766-.828 0-.219.063-.578.14-.875h.36c.547 0 2.313 0 2.313-1.234 0-.547-.5-.86-1.157-.86C2.047-4.047.984-2.875.984-1.5c0 .969.61 1.578 1.72 1.578.28 0 .812-.031 1.265-.203.484-.188.844-.531.844-.64Zm-.625-2.437c0 .922-1.47.922-2.016.922.14-.438.219-.719.484-1 .25-.313.64-.453.953-.453.375 0 .579.25.579.53Zm0 0"/></symbol><clipPath id="d"><path d="M108 80h28.59v34H108Zm0 0"/></clipPath><clipPath id="f"><path d="M51 165h34v28.633H51Zm0 0"/></clipPath><clipPath id="m"><path d="M0 0h136.59v193.633H0Zm0 0"/></clipPath></defs><path style="fill:none;stroke-width:.3985;stroke-linecap:butt;stroke-linejoin:miter;stroke:#000;stroke-opacity:1;stroke-miterlimit:10" d="M10.63 3.404c0 5.871-4.758 10.63-10.629 10.63-5.871 0-10.633-4.759-10.633-10.63 0-5.87 4.762-10.629 10.633-10.629 5.871 0 10.629 4.758 10.629 10.63Zm0 0" transform="matrix(1 0 0 -1 68.061 15.119)"/><use xlink:href="#a" x="64.326" y="15.119" style="fill:#000;fill-opacity:1"/><path style="fill:none;stroke-width:.3985;stroke-linecap:butt;stroke-linejoin:miter;stroke:#000;stroke-opacity:1;stroke-miterlimit:10" d="M10.632 3.404c0 5.871-4.762 10.629-10.633 10.629-5.871 0-10.63-4.758-10.63-10.629C-10.63-2.467-5.871-7.225 0-7.225c5.87 0 10.633 4.758 10.633 10.63Zm0 0" transform="matrix(1 0 0 -1 11.368 100.158)"/><use xlink:href="#b" x="7.34" y="100.158" style="fill:#000;fill-opacity:1"/><path style="fill:none;stroke-width:.3985;stroke-linecap:butt;stroke-linejoin:miter;stroke:#000;stroke-opacity:1;stroke-miterlimit:10" d="M10.63 3.404C10.63 9.275 5.872 14.033 0 14.033c-5.871 0-10.633-4.758-10.633-10.629 0-5.871 4.762-10.629 10.633-10.629 5.871 0 10.629 4.758 10.629 10.63Zm0 0" transform="matrix(1 0 0 -1 68.061 100.158)"/><use xlink:href="#c" x="64.097" y="100.158" style="fill:#000;fill-opacity:1"/><g clip-path="url(#d)"><path style="fill:none;stroke-width:.3985;stroke-linecap:butt;stroke-linejoin:miter;stroke:#000;stroke-opacity:1;stroke-miterlimit:10" d="M10.63 3.404C10.63 9.275 5.87 14.033 0 14.033c-5.87 0-10.629-4.758-10.629-10.629 0-5.871 4.758-10.629 10.63-10.629 5.87 0 10.628 4.758 10.628 10.63Zm0 0" transform="matrix(1 0 0 -1 124.754 100.158)"/></g><use xlink:href="#e" x="120.838" y="100.158" style="fill:#000;fill-opacity:1"/><g clip-path="url(#f)"><path style="fill:none;stroke-width:.3985;stroke-linecap:butt;stroke-linejoin:miter;stroke:#000;stroke-opacity:1;stroke-miterlimit:10" d="M10.63 3.404C10.63 9.275 5.872 14.033 0 14.033c-5.871 0-10.633-4.758-10.633-10.629 0-5.871 4.762-10.629 10.633-10.629 5.871 0 10.629 4.758 10.629 10.629Zm0 0" transform="matrix(1 0 0 -1 68.061 185.197)"/></g><use xlink:href="#g" x="63.798" y="185.197" style="fill:#000;fill-opacity:1"/><path style="fill:none;stroke-width:.3985;stroke-linecap:butt;stroke-linejoin:miter;stroke:#000;stroke-opacity:1;stroke-miterlimit:10" d="M-.698 74.234c-.977-15.148-27.465-55.851-42.957-67.343" transform="matrix(1 0 0 -1 68.061 96.754)"/><path style="stroke:none;fill-rule:nonzero;fill:#000;fill-opacity:1" d="m22.797 90.973 3.52-.57-1.903-.594.035-1.993"/><use xlink:href="#h" x="52.837" y="68.208" style="fill:#000;fill-opacity:1"/><path style="fill:none;stroke-width:.3985;stroke-linecap:butt;stroke-linejoin:miter;stroke:#000;stroke-opacity:1;stroke-miterlimit:10" d="M-55.995 10.805c.976 15.148 27.465 55.851 42.957 67.344" transform="matrix(1 0 0 -1 68.061 96.754)"/><path style="stroke:none;fill-rule:nonzero;fill:#000;fill-opacity:1" d="m56.633 17.492-3.52.574 1.903.594-.036 1.992"/><use xlink:href="#i" x="23.006" y="42.502" style="fill:#000;fill-opacity:1"/><path style="fill:none;stroke-width:.3985;stroke-linecap:butt;stroke-linejoin:miter;stroke:#000;stroke-opacity:1;stroke-miterlimit:10" d="m-6.007-76.031-42.469 63.707" transform="matrix(1 0 0 -1 68.061 96.754)"/><path style="stroke:none;fill-rule:nonzero;fill:#000;fill-opacity:1" d="m18.48 107.422.442 3.535.664-1.879 1.988.113"/><use xlink:href="#j" x="31.424" y="146.846" style="fill:#000;fill-opacity:1"/><path style="fill:none;stroke-width:.3985;stroke-linecap:butt;stroke-linejoin:miter;stroke:#000;stroke-opacity:1;stroke-miterlimit:10" d="M-10.831 0h-31.047" transform="matrix(1 0 0 -1 68.061 96.754)"/><path style="stroke:none;fill-rule:nonzero;fill:#000;fill-opacity:1" d="m24.191 96.754 3.188 1.594-1.195-1.594 1.195-1.594"/><use xlink:href="#k" x="37.33" y="106.505" style="fill:#000;fill-opacity:1"/><path style="fill:none;stroke-width:.3985;stroke-linecap:butt;stroke-linejoin:miter;stroke:#000;stroke-opacity:1;stroke-miterlimit:10" d="M10.83 0h31.05" transform="matrix(1 0 0 -1 68.061 96.754)"/><path style="stroke:none;fill-rule:nonzero;fill:#000;fill-opacity:1" d="m111.934 96.754-3.188-1.594 1.195 1.594-1.195 1.594"/><use xlink:href="#l" x="102.516" y="93.163" style="fill:#000;fill-opacity:1"/><g clip-path="url(#m)"><path style="fill:none;stroke-width:7.97021;stroke-linecap:butt;stroke-linejoin:miter;stroke:#f5f5cc;stroke-opacity:1;stroke-miterlimit:10" d="M5.415-75.664C34.92-24.554 34.92 24.555 6.411 73.938" transform="matrix(1 0 0 -1 68.061 96.754)"/></g><path style="fill:none;stroke-width:.3985;stroke-linecap:butt;stroke-linejoin:miter;stroke:#000;stroke-opacity:1;stroke-miterlimit:10" d="M5.415-75.664C34.255-25.707 34.907 22.348 7.36 72.215" transform="matrix(1 0 0 -1 68.061 96.754)"/><path style="stroke:none;fill-rule:nonzero;fill:#000;fill-opacity:1" d="m74.46 22.816.153 3.559.813-1.816 1.976.27"/><use xlink:href="#k" x="81.782" y="130.806" style="fill:#000;fill-opacity:1"/><use xlink:href="#n" x="81.782" y="66.683" style="fill:#000;fill-opacity:1"/></svg>