<svg xmlns="http://www.w3.org/2000/svg" xmlns:xlink="http://www.w3.org/1999/xlink" width="554.043" height="124.155" viewBox="0 0 415.532 93.116" version="1.2"><defs><symbol overflow="visible" id="a"><path style="stroke:none" d="M2.5-5.078c0-.219-.016-.219-.234-.219-.329.313-.75.5-1.5.5v.266c.218 0 .64 0 1.109-.203v4.078c0 .297-.031.39-.781.39H.812V0c.329-.031 1.016-.031 1.375-.031.36 0 1.047 0 1.376.031v-.266H3.28c-.75 0-.781-.093-.781-.39Zm0 0"/></symbol><symbol overflow="visible" id="b"><path style="stroke:none" d="M3.89-2.547c0-.844-.078-1.36-.343-1.875-.344-.703-1-.875-1.438-.875-1 0-1.375.75-1.484.969C.344-3.75.328-2.953.328-2.547c0 .531.016 1.328.406 1.969.36.594.954.75 1.375.75.391 0 1.063-.125 1.47-.906.296-.579.312-1.297.312-1.813ZM2.11-.062c-.266 0-.813-.126-.985-.954-.094-.453-.094-1.203-.094-1.625 0-.546 0-1.109.094-1.546.172-.813.781-.891.984-.891.266 0 .829.14.985.86.094.437.094 1.046.094 1.577 0 .47 0 1.188-.094 1.641-.172.828-.719.938-.985.938Zm0 0"/></symbol><symbol overflow="visible" id="c"><path style="stroke:none" d="M1.484-.125c0 .516-.109.984-.593 1.469-.032.031-.047.047-.047.078 0 .062.062.11.11.11.093 0 .765-.626.765-1.563 0-.5-.203-.86-.547-.86a.436.436 0 0 0-.438.438c0 .234.157.453.438.453.203 0 .312-.11.312-.125Zm0 0"/></symbol><symbol overflow="visible" id="d"><path style="stroke:none" d="M1.625-1.984a.453.453 0 0 0-.453-.454A.437.437 0 0 0 .734-2a.45.45 0 0 0 .438.453c.25 0 .453-.219.453-.437Zm0 0"/></symbol><symbol overflow="visible" id="e"><path style="stroke:none" d="M1.016-3.328c.203.062.406.078.609.078.14 0 .469 0 .844-.203.11-.063.469-.313.469-.438 0-.078-.047-.093-.079-.093-.015 0-.015 0-.093.03a2.513 2.513 0 0 1-.907.173c-.296 0-.609-.063-.89-.156C.922-3.97.89-3.985.875-3.985c-.094 0-.094.078-.094.171v1.797c0 .094 0 .172.11.172.062 0 .078-.031.109-.078.156-.187.422-.39.89-.39.735 0 .735.89.735 1.078 0 .234-.016.578-.219.828a.95.95 0 0 1-.719.312C1.281-.094.86-.312.72-.672c.297 0 .328-.234.328-.297a.304.304 0 0 0-.313-.312.303.303 0 0 0-.296.328C.438-.406.953.125 1.702.125c.828 0 1.516-.578 1.516-1.328A1.3 1.3 0 0 0 1.89-2.5c-.375 0-.688.125-.875.281Zm0 0"/></symbol><symbol overflow="visible" id="f"><path style="stroke:none" d="M.969-1.984c.015-.297.031-.797.234-1.157.266-.468.656-.64 1.016-.64.14 0 .422.015.562.187-.219.047-.265.188-.265.297 0 .156.109.281.296.281.172 0 .282-.109.282-.296 0-.376-.266-.672-.875-.672-.938 0-1.844.812-1.844 2.093 0 1.454.672 2.016 1.469 2.016.234 0 .64-.031 1-.39.203-.188.422-.422.422-.954 0-.203-.016-.593-.375-.922-.22-.203-.485-.406-.985-.406-.422 0-.734.219-.937.563Zm.875 1.89C1-.094 1-1.125 1-1.359c0-.5.328-1 .875-1 .313 0 .484.125.625.312.172.235.172.516.172.828 0 .407-.016.61-.219.86-.14.171-.328.265-.61.265Zm0 0"/></symbol><symbol overflow="visible" id="g"><path style="stroke:none" d="M2.672-1.89c0 .452-.031.906-.25 1.265-.156.234-.438.531-.906.531-.141 0-.47-.015-.625-.172.187-.046.234-.171.234-.28 0-.157-.11-.298-.281-.298-.172 0-.297.125-.297.313 0 .484.453.656.969.656.921 0 1.75-.844 1.75-2.094 0-1.453-.657-2.015-1.422-2.015-.766 0-1.469.562-1.469 1.343 0 .454.172.704.39.922.25.25.547.407.985.407.516 0 .797-.344.922-.579Zm-.89.39a.703.703 0 0 1-.626-.313C.984-2.046.97-2.296.97-2.64c0-.343 0-.578.203-.828a.796.796 0 0 1 .672-.312c.812 0 .812 1.015.812 1.265 0 .532-.36 1.016-.875 1.016Zm0 0"/></symbol><symbol overflow="visible" id="h"><path style="stroke:none" d="M2.14-3.797c0-.187-.015-.187-.203-.187-.39.39-1 .39-1.218.39v.235c.156 0 .562 0 .922-.172v3.015c0 .204 0 .282-.625.282h-.25V0c.328-.031.796-.031 1.125-.031.328 0 .796 0 1.125.031v-.234h-.25c-.625 0-.625-.078-.625-.282Zm0 0"/></symbol><symbol overflow="visible" id="i"><path style="stroke:none" d="M3.219-1.125H3c-.016.094-.078.484-.156.547-.047.047-.531.047-.625.047h-1.11l.766-.625c.203-.172.734-.547.922-.735.172-.171.422-.484.422-.906 0-.75-.672-1.187-1.485-1.187-.765 0-1.296.515-1.296 1.078 0 .297.25.344.312.344a.32.32 0 0 0 .328-.329c0-.125-.078-.328-.344-.328.141-.297.5-.531.922-.531.625 0 .953.469.953.953 0 .422-.28.86-.687 1.25L.5-.25C.437-.187.437-.187.437 0h2.594Zm0 0"/></symbol><symbol overflow="visible" id="j"><path style="stroke:none" d="M2.297-2.156c.453-.203.781-.5.781-.922 0-.594-.625-.906-1.25-.906-.672 0-1.266.406-1.266 1.015 0 .375.25.656.5.813.063.031.204.11.266.14-.39.157-.953.485-.953 1.094 0 .703.75 1.047 1.438 1.047.796 0 1.453-.484 1.453-1.14 0-.423-.25-.657-.329-.75-.124-.11-.421-.282-.64-.391ZM1.219-2.75c-.016-.016-.313-.172-.313-.453 0-.39.469-.578.906-.578.47 0 .938.25.938.703 0 .469-.5.703-.672.797Zm.343.86c.079.046.72.406.875.484.126.078.454.25.454.593 0 .485-.547.72-1.063.72-.547 0-1.062-.313-1.062-.829 0-.515.468-.844.796-.969Zm0 0"/></symbol><symbol overflow="visible" id="k"><path style="stroke:none" d="M3.375-.984v-.235h-.703v-2.64c0-.141 0-.188-.14-.188-.11 0-.126.031-.173.094L.281-1.22v.235h1.86V-.5c0 .188 0 .266-.5.266h-.188V0c.125 0 .688-.031.953-.031.266 0 .828.031.938.031v-.234h-.172c-.5 0-.5-.078-.5-.266v-.484ZM2.172-3.391v2.172H.532Zm0 0"/></symbol><symbol overflow="visible" id="l"><path style="stroke:none" d="M1.766-1.984c.5 0 .843.343.843.953 0 .656-.39.937-.828.937C1.61-.094 1-.125.734-.469c.235-.031.329-.187.329-.344a.328.328 0 0 0-.344-.343.34.34 0 0 0-.344.36c0 .593.656.921 1.422.921.89 0 1.469-.563 1.469-1.156 0-.438-.329-.907-1.047-1.078.484-.157.86-.547.86-1.032 0-.484-.563-.843-1.282-.843-.703 0-1.234.328-1.234.812 0 .266.203.328.328.328.156 0 .312-.094.312-.312 0-.188-.125-.297-.297-.313.281-.312.828-.312.89-.312.298 0 .688.14.688.64 0 .329-.187.907-.796.938-.11 0-.266.015-.313.015-.063.016-.125.016-.125.11s.063.094.156.094Zm0 0"/></symbol><symbol overflow="visible" id="m"><path style="stroke:none" d="M3.297-1.906c0-.438 0-2.078-1.469-2.078S.36-2.344.36-1.906c0 .422 0 2.031 1.47 2.031 1.468 0 1.468-1.61 1.468-2.031ZM1.828-.063a.84.84 0 0 1-.812-.625C.922-1.03.922-1.609.922-1.984c0-.407 0-.86.094-1.188.14-.531.593-.61.812-.61.266 0 .672.126.797.579.094.312.094.75.094 1.219 0 .375 0 .984-.094 1.312a.825.825 0 0 1-.797.61Zm0 0"/></symbol></defs><path style="fill:none;stroke-width:.3985;stroke-linecap:round;stroke-linejoin:miter;stroke:#000;stroke-opacity:1;stroke-miterlimit:10" d="M37.858 0h3.985M37.858 85.043h3.985" transform="matrix(1 0 0 -1 -26.663 89.109)"/><path style="fill:none;stroke-width:.3985;stroke-linecap:butt;stroke-linejoin:miter;stroke:#000;stroke-opacity:1;stroke-miterlimit:10" d="M39.85 0v84.64" transform="matrix(1 0 0 -1 -26.663 89.109)"/><path style="fill:none;stroke-width:.3985;stroke-linecap:round;stroke-linejoin:round;stroke:#000;stroke-opacity:1;stroke-miterlimit:10" d="M-2.072 2.391C-1.693.958-.849.278-.002.001c-.847-.282-1.691-.957-2.07-2.391" transform="matrix(0 -1 -1 0 13.188 4.268)"/><path style="fill:none;stroke-width:.3985;stroke-linecap:round;stroke-linejoin:miter;stroke:#000;stroke-opacity:1;stroke-miterlimit:10" d="M77.71 0h3.984M77.71 42.52h3.984M77.71 85.039h3.984" transform="matrix(1 0 0 -1 -26.663 89.109)"/><path style="fill:none;stroke-width:.3985;stroke-linecap:butt;stroke-linejoin:miter;stroke:#000;stroke-opacity:1;stroke-miterlimit:10" d="M79.702 0v84.64" transform="matrix(1 0 0 -1 -26.663 89.109)"/><path style="fill:none;stroke-width:.3985;stroke-linecap:round;stroke-linejoin:round;stroke:#000;stroke-opacity:1;stroke-miterlimit:10" d="M-2.072 2.39C-1.693.958-.849.278-.002 0c-.847-.277-1.691-.957-2.07-2.39" transform="matrix(0 -1 -1 0 53.04 4.268)"/><path style="fill:none;stroke-width:.3985;stroke-linecap:round;stroke-linejoin:miter;stroke:#000;stroke-opacity:1;stroke-miterlimit:10" d="M117.561 0h3.985M117.561 28.347h3.985M117.561 56.695h3.985M117.561 85.039h3.985" transform="matrix(1 0 0 -1 -26.663 89.109)"/><path style="fill:none;stroke-width:.3985;stroke-linecap:butt;stroke-linejoin:miter;stroke:#000;stroke-opacity:1;stroke-miterlimit:10" d="M119.554 0v84.64" transform="matrix(1 0 0 -1 -26.663 89.109)"/><path style="fill:none;stroke-width:.3985;stroke-linecap:round;stroke-linejoin:round;stroke:#000;stroke-opacity:1;stroke-miterlimit:10" d="M-2.072 2.39C-1.693.957-.849.28-.002 0c-.847-.278-1.691-.957-2.07-2.391" transform="matrix(0 -1 -1 0 92.89 4.268)"/><path style="fill:none;stroke-width:.3985;stroke-linecap:round;stroke-linejoin:miter;stroke:#000;stroke-opacity:1;stroke-miterlimit:10" d="M157.413 0h3.984M157.413 21.261h3.984M157.413 42.52h3.984M157.413 63.78h3.984M157.413 85.043h3.984" transform="matrix(1 0 0 -1 -26.663 89.109)"/><path style="fill:none;stroke-width:.3985;stroke-linecap:butt;stroke-linejoin:miter;stroke:#000;stroke-opacity:1;stroke-miterlimit:10" d="M159.405 0v84.64" transform="matrix(1 0 0 -1 -26.663 89.109)"/><path style="fill:none;stroke-width:.3985;stroke-linecap:round;stroke-linejoin:round;stroke:#000;stroke-opacity:1;stroke-miterlimit:10" d="M-2.072 2.39C-1.693.956-.849.28-.002 0c-.847-.278-1.691-.958-2.07-2.392" transform="matrix(0 -1 -1 0 132.741 4.268)"/><path style="fill:none;stroke-width:.3985;stroke-linecap:round;stroke-linejoin:miter;stroke:#000;stroke-opacity:1;stroke-miterlimit:10" d="M197.265 0h3.984M197.265 17.007h3.984M197.265 34.015h3.984M197.265 51.023h3.984M197.265 68.03h3.984M197.265 85.039h3.984" transform="matrix(1 0 0 -1 -26.663 89.109)"/><path style="fill:none;stroke-width:.3985;stroke-linecap:butt;stroke-linejoin:miter;stroke:#000;stroke-opacity:1;stroke-miterlimit:10" d="M199.257 0v84.64" transform="matrix(1 0 0 -1 -26.663 89.109)"/><path style="fill:none;stroke-width:.3985;stroke-linecap:round;stroke-linejoin:round;stroke:#000;stroke-opacity:1;stroke-miterlimit:10" d="M-2.072 2.39C-1.693.955-.849.28-.002-.002c-.847-.278-1.691-.954-2.07-2.391" transform="matrix(0 -1 -1 0 172.592 4.268)"/><path style="fill:none;stroke-width:.3985;stroke-linecap:round;stroke-linejoin:miter;stroke:#000;stroke-opacity:1;stroke-miterlimit:10" d="M237.112 0h3.989M237.112 25.511h3.989M237.112 51.023h3.989M237.112 76.535h3.989" transform="matrix(1 0 0 -1 -26.663 89.109)"/><path style="fill:none;stroke-width:.3985;stroke-linecap:butt;stroke-linejoin:miter;stroke:#000;stroke-opacity:1;stroke-miterlimit:10" d="M239.108 0v84.64" transform="matrix(1 0 0 -1 -26.663 89.109)"/><path style="fill:none;stroke-width:.3985;stroke-linecap:round;stroke-linejoin:round;stroke:#000;stroke-opacity:1;stroke-miterlimit:10" d="M-2.072 2.393C-1.693.955-.849.279-.002-.002c-.847-.277-1.691-.953-2.07-2.39" transform="matrix(0 -1 -1 0 212.443 4.268)"/><path style="fill:none;stroke-width:.3985;stroke-linecap:round;stroke-linejoin:miter;stroke:#000;stroke-opacity:1;stroke-miterlimit:10" d="M276.964 0h3.984M276.964 25.511h3.984M276.964 51.023h3.984M276.964 76.535h3.984" transform="matrix(1 0 0 -1 -26.663 89.109)"/><path style="fill:none;stroke-width:.3985;stroke-linecap:butt;stroke-linejoin:miter;stroke:#000;stroke-opacity:1;stroke-miterlimit:10" d="M278.956 0v84.64" transform="matrix(1 0 0 -1 -26.663 89.109)"/><path style="fill:none;stroke-width:.3985;stroke-linecap:round;stroke-linejoin:round;stroke:#000;stroke-opacity:1;stroke-miterlimit:10" d="M-2.072 2.392C-1.693.955-.849.28-.002.002c-.847-.282-1.691-.957-2.07-2.395" transform="matrix(0 -1 -1 0 252.295 4.268)"/><path style="fill:none;stroke-width:.3985;stroke-linecap:round;stroke-linejoin:miter;stroke:#000;stroke-opacity:1;stroke-miterlimit:10" d="M316.815 0h3.985M316.815 17.007h3.985M316.815 34.015h3.985M316.815 51.023h3.985M316.815 68.03h3.985M316.815 85.039h3.985" transform="matrix(1 0 0 -1 -26.663 89.109)"/><path style="fill:none;stroke-width:.3985;stroke-linecap:butt;stroke-linejoin:miter;stroke:#000;stroke-opacity:1;stroke-miterlimit:10" d="M318.808 0v84.64" transform="matrix(1 0 0 -1 -26.663 89.109)"/><path style="fill:none;stroke-width:.3985;stroke-linecap:round;stroke-linejoin:round;stroke:#000;stroke-opacity:1;stroke-miterlimit:10" d="M-2.072 2.392C-1.693.958-.849.278-.002.002-.849-.28-1.693-.957-2.072-2.39" transform="matrix(0 -1 -1 0 292.146 4.268)"/><path style="fill:none;stroke-width:.3985;stroke-linecap:round;stroke-linejoin:miter;stroke:#000;stroke-opacity:1;stroke-miterlimit:10" d="M356.667 0h3.984M356.667 21.261h3.984M356.667 42.52h3.984M356.667 63.78h3.984M356.667 85.043h3.984" transform="matrix(1 0 0 -1 -26.663 89.109)"/><path style="fill:none;stroke-width:.3985;stroke-linecap:butt;stroke-linejoin:miter;stroke:#000;stroke-opacity:1;stroke-miterlimit:10" d="M358.66 0v84.64" transform="matrix(1 0 0 -1 -26.663 89.109)"/><path style="fill:none;stroke-width:.3985;stroke-linecap:round;stroke-linejoin:round;stroke:#000;stroke-opacity:1;stroke-miterlimit:10" d="M-2.072 2.391C-1.693.958-.849.278-.002.001c-.847-.282-1.691-.957-2.07-2.391" transform="matrix(0 -1 -1 0 331.997 4.268)"/><path style="fill:none;stroke-width:.3985;stroke-linecap:round;stroke-linejoin:miter;stroke:#000;stroke-opacity:1;stroke-miterlimit:10" d="M396.518 0h3.985M396.518 17.007h3.985M396.518 34.015h3.985M396.518 51.023h3.985M396.518 68.03h3.985M396.518 85.039h3.985" transform="matrix(1 0 0 -1 -26.663 89.109)"/><path style="fill:none;stroke-width:.3985;stroke-linecap:butt;stroke-linejoin:miter;stroke:#000;stroke-opacity:1;stroke-miterlimit:10" d="M398.51 0v84.64" transform="matrix(1 0 0 -1 -26.663 89.109)"/><path style="fill:none;stroke-width:.3985;stroke-linecap:round;stroke-linejoin:round;stroke:#000;stroke-opacity:1;stroke-miterlimit:10" d="M-2.072 2.39C-1.693.958-.849.278-.002 0c-.847-.277-1.691-.957-2.07-2.39" transform="matrix(0 -1 -1 0 371.848 4.268)"/><path style="fill:none;stroke-width:.3985;stroke-linecap:round;stroke-linejoin:miter;stroke:#000;stroke-opacity:1;stroke-miterlimit:10" d="M436.37 0h3.984M436.37 25.511h3.984M436.37 51.023h3.984M436.37 76.535h3.984" transform="matrix(1 0 0 -1 -26.663 89.109)"/><path style="fill:none;stroke-width:.3985;stroke-linecap:butt;stroke-linejoin:miter;stroke:#000;stroke-opacity:1;stroke-miterlimit:10" d="M438.362 0v84.64" transform="matrix(1 0 0 -1 -26.663 89.109)"/><path style="fill:none;stroke-width:.3985;stroke-linecap:round;stroke-linejoin:round;stroke:#000;stroke-opacity:1;stroke-miterlimit:10" d="M-2.072 2.39C-1.693.957-.849.28-.002 0c-.847-.278-1.691-.957-2.07-2.391" transform="matrix(0 -1 -1 0 411.699 4.268)"/><use xlink:href="#a" x="4.304" y="91.677" style="fill:#000;fill-opacity:1"/><g style="fill:#000;fill-opacity:1"><use xlink:href="#a" x=".07" y="6.638"/><use xlink:href="#b" x="4.305" y="6.638"/></g><use xlink:href="#a" x="44.155" y="91.677" style="fill:#000;fill-opacity:1"/><g style="fill:#000;fill-opacity:1"><use xlink:href="#a" x="39.921" y="49.158"/><use xlink:href="#b" x="44.156" y="49.158"/></g><g style="fill:#000;fill-opacity:1"><use xlink:href="#a" x="35.687" y="6.638"/><use xlink:href="#b" x="39.922" y="6.638"/><use xlink:href="#b" x="44.156" y="6.638"/></g><use xlink:href="#a" x="84.006" y="91.677" style="fill:#000;fill-opacity:1"/><g style="fill:#000;fill-opacity:1"><use xlink:href="#a" x="79.771" y="63.331"/><use xlink:href="#b" x="84.006" y="63.331"/></g><g style="fill:#000;fill-opacity:1"><use xlink:href="#a" x="75.537" y="34.984"/><use xlink:href="#b" x="79.772" y="34.984"/><use xlink:href="#b" x="84.006" y="34.984"/></g><use xlink:href="#a" x="68.951" y="5.863" style="fill:#000;fill-opacity:1"/><use xlink:href="#c" x="73.185" y="5.863" style="fill:#000;fill-opacity:1"/><g style="fill:#000;fill-opacity:1"><use xlink:href="#b" x="75.537" y="5.863"/><use xlink:href="#b" x="79.772" y="5.863"/><use xlink:href="#b" x="84.006" y="5.863"/></g><use xlink:href="#a" x="123.856" y="91.677" style="fill:#000;fill-opacity:1"/><g style="fill:#000;fill-opacity:1"><use xlink:href="#a" x="119.622" y="70.417"/><use xlink:href="#b" x="123.857" y="70.417"/></g><g style="fill:#000;fill-opacity:1"><use xlink:href="#a" x="115.388" y="49.157"/><use xlink:href="#b" x="119.623" y="49.157"/><use xlink:href="#b" x="123.857" y="49.157"/></g><use xlink:href="#a" x="108.801" y="27.122" style="fill:#000;fill-opacity:1"/><use xlink:href="#c" x="113.035" y="27.122" style="fill:#000;fill-opacity:1"/><g style="fill:#000;fill-opacity:1"><use xlink:href="#b" x="115.388" y="27.122"/><use xlink:href="#b" x="119.623" y="27.122"/><use xlink:href="#b" x="123.857" y="27.122"/></g><g style="fill:#000;fill-opacity:1"><use xlink:href="#a" x="104.567" y="5.863"/><use xlink:href="#b" x="108.802" y="5.863"/></g><use xlink:href="#c" x="113.035" y="5.863" style="fill:#000;fill-opacity:1"/><g style="fill:#000;fill-opacity:1"><use xlink:href="#b" x="115.388" y="5.863"/><use xlink:href="#b" x="119.623" y="5.863"/><use xlink:href="#b" x="123.857" y="5.863"/></g><use xlink:href="#a" x="163.707" y="91.677" style="fill:#000;fill-opacity:1"/><g style="fill:#000;fill-opacity:1"><use xlink:href="#a" x="159.472" y="74.669"/><use xlink:href="#b" x="163.707" y="74.669"/></g><g style="fill:#000;fill-opacity:1"><use xlink:href="#a" x="155.238" y="57.661"/><use xlink:href="#b" x="159.473" y="57.661"/><use xlink:href="#b" x="163.707" y="57.661"/></g><use xlink:href="#a" x="148.652" y="39.879" style="fill:#000;fill-opacity:1"/><use xlink:href="#c" x="152.886" y="39.879" style="fill:#000;fill-opacity:1"/><g style="fill:#000;fill-opacity:1"><use xlink:href="#b" x="155.238" y="39.879"/><use xlink:href="#b" x="159.473" y="39.879"/><use xlink:href="#b" x="163.707" y="39.879"/></g><g style="fill:#000;fill-opacity:1"><use xlink:href="#a" x="144.418" y="22.871"/><use xlink:href="#b" x="148.653" y="22.871"/></g><use xlink:href="#c" x="152.886" y="22.871" style="fill:#000;fill-opacity:1"/><g style="fill:#000;fill-opacity:1"><use xlink:href="#b" x="155.238" y="22.871"/><use xlink:href="#b" x="159.473" y="22.871"/><use xlink:href="#b" x="163.707" y="22.871"/></g><use xlink:href="#a" x="144.971" y="7.402" style="fill:#000;fill-opacity:1"/><use xlink:href="#d" x="151.087" y="7.402" style="fill:#000;fill-opacity:1"/><g style="fill:#000;fill-opacity:1"><use xlink:href="#a" x="155.321" y="7.402"/><use xlink:href="#b" x="159.556" y="7.402"/></g><use xlink:href="#e" x="163.79" y="4.589" style="fill:#000;fill-opacity:1"/><use xlink:href="#a" x="203.557" y="91.677" style="fill:#000;fill-opacity:1"/><use xlink:href="#a" x="188.502" y="65.39" style="fill:#000;fill-opacity:1"/><use xlink:href="#c" x="192.737" y="65.39" style="fill:#000;fill-opacity:1"/><g style="fill:#000;fill-opacity:1"><use xlink:href="#b" x="195.089" y="65.39"/><use xlink:href="#b" x="199.324" y="65.39"/><use xlink:href="#b" x="203.558" y="65.39"/></g><use xlink:href="#a" x="184.822" y="41.418" style="fill:#000;fill-opacity:1"/><use xlink:href="#d" x="190.938" y="41.418" style="fill:#000;fill-opacity:1"/><g style="fill:#000;fill-opacity:1"><use xlink:href="#a" x="195.172" y="41.418"/><use xlink:href="#b" x="199.407" y="41.418"/></g><use xlink:href="#f" x="203.64" y="38.605" style="fill:#000;fill-opacity:1"/><use xlink:href="#a" x="184.822" y="15.906" style="fill:#000;fill-opacity:1"/><use xlink:href="#d" x="190.938" y="15.906" style="fill:#000;fill-opacity:1"/><g style="fill:#000;fill-opacity:1"><use xlink:href="#a" x="195.172" y="15.906"/><use xlink:href="#b" x="199.407" y="15.906"/></g><use xlink:href="#g" x="203.64" y="13.093" style="fill:#000;fill-opacity:1"/><use xlink:href="#a" x="243.408" y="91.677" style="fill:#000;fill-opacity:1"/><use xlink:href="#a" x="224.672" y="66.93" style="fill:#000;fill-opacity:1"/><use xlink:href="#d" x="230.788" y="66.93" style="fill:#000;fill-opacity:1"/><g style="fill:#000;fill-opacity:1"><use xlink:href="#a" x="235.023" y="66.93"/><use xlink:href="#b" x="239.258" y="66.93"/></g><use xlink:href="#f" x="243.491" y="64.117" style="fill:#000;fill-opacity:1"/><use xlink:href="#a" x="221.019" y="41.418" style="fill:#000;fill-opacity:1"/><use xlink:href="#d" x="227.135" y="41.418" style="fill:#000;fill-opacity:1"/><g style="fill:#000;fill-opacity:1"><use xlink:href="#a" x="231.37" y="41.418"/><use xlink:href="#b" x="235.605" y="41.418"/></g><g style="fill:#000;fill-opacity:1"><use xlink:href="#h" x="239.838" y="38.605"/><use xlink:href="#i" x="243.491" y="38.605"/></g><use xlink:href="#a" x="221.019" y="15.906" style="fill:#000;fill-opacity:1"/><use xlink:href="#d" x="227.135" y="15.906" style="fill:#000;fill-opacity:1"/><g style="fill:#000;fill-opacity:1"><use xlink:href="#a" x="231.37" y="15.906"/><use xlink:href="#b" x="235.605" y="15.906"/></g><g style="fill:#000;fill-opacity:1"><use xlink:href="#h" x="239.838" y="13.093"/><use xlink:href="#j" x="243.491" y="13.093"/></g><use xlink:href="#a" x="283.258" y="91.677" style="fill:#000;fill-opacity:1"/><use xlink:href="#a" x="264.523" y="75.434" style="fill:#000;fill-opacity:1"/><use xlink:href="#d" x="270.639" y="75.434" style="fill:#000;fill-opacity:1"/><g style="fill:#000;fill-opacity:1"><use xlink:href="#a" x="274.873" y="75.434"/><use xlink:href="#b" x="279.108" y="75.434"/></g><use xlink:href="#f" x="283.342" y="72.621" style="fill:#000;fill-opacity:1"/><use xlink:href="#a" x="260.87" y="58.426" style="fill:#000;fill-opacity:1"/><use xlink:href="#d" x="266.986" y="58.426" style="fill:#000;fill-opacity:1"/><g style="fill:#000;fill-opacity:1"><use xlink:href="#a" x="271.22" y="58.426"/><use xlink:href="#b" x="275.455" y="58.426"/></g><g style="fill:#000;fill-opacity:1"><use xlink:href="#h" x="279.689" y="55.613"/><use xlink:href="#i" x="283.342" y="55.613"/></g><use xlink:href="#a" x="260.87" y="41.418" style="fill:#000;fill-opacity:1"/><use xlink:href="#d" x="266.986" y="41.418" style="fill:#000;fill-opacity:1"/><g style="fill:#000;fill-opacity:1"><use xlink:href="#a" x="271.22" y="41.418"/><use xlink:href="#b" x="275.455" y="41.418"/></g><g style="fill:#000;fill-opacity:1"><use xlink:href="#h" x="279.689" y="38.605"/><use xlink:href="#j" x="283.342" y="38.605"/></g><use xlink:href="#a" x="260.87" y="24.41" style="fill:#000;fill-opacity:1"/><use xlink:href="#d" x="266.986" y="24.41" style="fill:#000;fill-opacity:1"/><g style="fill:#000;fill-opacity:1"><use xlink:href="#a" x="271.22" y="24.41"/><use xlink:href="#b" x="275.455" y="24.41"/></g><g style="fill:#000;fill-opacity:1"><use xlink:href="#i" x="279.689" y="21.597"/><use xlink:href="#k" x="283.342" y="21.597"/></g><use xlink:href="#a" x="260.87" y="7.402" style="fill:#000;fill-opacity:1"/><use xlink:href="#d" x="266.986" y="7.402" style="fill:#000;fill-opacity:1"/><g style="fill:#000;fill-opacity:1"><use xlink:href="#a" x="271.22" y="7.402"/><use xlink:href="#b" x="275.455" y="7.402"/></g><g style="fill:#000;fill-opacity:1"><use xlink:href="#l" x="279.689" y="4.589"/><use xlink:href="#m" x="283.342" y="4.589"/></g><use xlink:href="#a" x="323.109" y="91.677" style="fill:#000;fill-opacity:1"/><use xlink:href="#a" x="300.721" y="71.182" style="fill:#000;fill-opacity:1"/><use xlink:href="#d" x="306.837" y="71.182" style="fill:#000;fill-opacity:1"/><g style="fill:#000;fill-opacity:1"><use xlink:href="#a" x="311.071" y="71.182"/><use xlink:href="#b" x="315.306" y="71.182"/></g><g style="fill:#000;fill-opacity:1"><use xlink:href="#h" x="319.539" y="68.369"/><use xlink:href="#m" x="323.192" y="68.369"/></g><use xlink:href="#a" x="300.721" y="49.922" style="fill:#000;fill-opacity:1"/><use xlink:href="#d" x="306.837" y="49.922" style="fill:#000;fill-opacity:1"/><g style="fill:#000;fill-opacity:1"><use xlink:href="#a" x="311.071" y="49.922"/><use xlink:href="#b" x="315.306" y="49.922"/></g><g style="fill:#000;fill-opacity:1"><use xlink:href="#i" x="319.539" y="47.109"/><use xlink:href="#m" x="323.192" y="47.109"/></g><use xlink:href="#a" x="300.721" y="28.662" style="fill:#000;fill-opacity:1"/><use xlink:href="#d" x="306.837" y="28.662" style="fill:#000;fill-opacity:1"/><g style="fill:#000;fill-opacity:1"><use xlink:href="#a" x="311.071" y="28.662"/><use xlink:href="#b" x="315.306" y="28.662"/></g><g style="fill:#000;fill-opacity:1"><use xlink:href="#l" x="319.539" y="25.849"/><use xlink:href="#m" x="323.192" y="25.849"/></g><use xlink:href="#a" x="300.721" y="7.402" style="fill:#000;fill-opacity:1"/><use xlink:href="#d" x="306.837" y="7.402" style="fill:#000;fill-opacity:1"/><g style="fill:#000;fill-opacity:1"><use xlink:href="#a" x="311.071" y="7.402"/><use xlink:href="#b" x="315.306" y="7.402"/></g><g style="fill:#000;fill-opacity:1"><use xlink:href="#k" x="319.539" y="4.589"/><use xlink:href="#m" x="323.192" y="4.589"/></g><use xlink:href="#a" x="362.959" y="91.677" style="fill:#000;fill-opacity:1"/><use xlink:href="#a" x="340.571" y="75.434" style="fill:#000;fill-opacity:1"/><use xlink:href="#d" x="346.687" y="75.434" style="fill:#000;fill-opacity:1"/><g style="fill:#000;fill-opacity:1"><use xlink:href="#a" x="350.921" y="75.434"/><use xlink:href="#b" x="355.156" y="75.434"/></g><g style="fill:#000;fill-opacity:1"><use xlink:href="#h" x="359.39" y="72.621"/><use xlink:href="#m" x="363.043" y="72.621"/></g><use xlink:href="#a" x="340.571" y="58.426" style="fill:#000;fill-opacity:1"/><use xlink:href="#d" x="346.687" y="58.426" style="fill:#000;fill-opacity:1"/><g style="fill:#000;fill-opacity:1"><use xlink:href="#a" x="350.921" y="58.426"/><use xlink:href="#b" x="355.156" y="58.426"/></g><g style="fill:#000;fill-opacity:1"><use xlink:href="#i" x="359.39" y="55.613"/><use xlink:href="#m" x="363.043" y="55.613"/></g><use xlink:href="#a" x="340.571" y="41.418" style="fill:#000;fill-opacity:1"/><use xlink:href="#d" x="346.687" y="41.418" style="fill:#000;fill-opacity:1"/><g style="fill:#000;fill-opacity:1"><use xlink:href="#a" x="350.921" y="41.418"/><use xlink:href="#b" x="355.156" y="41.418"/></g><g style="fill:#000;fill-opacity:1"><use xlink:href="#l" x="359.39" y="38.605"/><use xlink:href="#m" x="363.043" y="38.605"/></g><use xlink:href="#a" x="340.571" y="24.41" style="fill:#000;fill-opacity:1"/><use xlink:href="#d" x="346.687" y="24.41" style="fill:#000;fill-opacity:1"/><g style="fill:#000;fill-opacity:1"><use xlink:href="#a" x="350.921" y="24.41"/><use xlink:href="#b" x="355.156" y="24.41"/></g><g style="fill:#000;fill-opacity:1"><use xlink:href="#k" x="359.39" y="21.597"/><use xlink:href="#m" x="363.043" y="21.597"/></g><use xlink:href="#a" x="340.571" y="7.402" style="fill:#000;fill-opacity:1"/><use xlink:href="#d" x="346.687" y="7.402" style="fill:#000;fill-opacity:1"/><g style="fill:#000;fill-opacity:1"><use xlink:href="#a" x="350.921" y="7.402"/><use xlink:href="#b" x="355.156" y="7.402"/></g><g style="fill:#000;fill-opacity:1"><use xlink:href="#e" x="359.39" y="4.589"/><use xlink:href="#m" x="363.043" y="4.589"/></g><use xlink:href="#a" x="402.81" y="91.677" style="fill:#000;fill-opacity:1"/><use xlink:href="#a" x="380.422" y="66.93" style="fill:#000;fill-opacity:1"/><use xlink:href="#d" x="386.538" y="66.93" style="fill:#000;fill-opacity:1"/><g style="fill:#000;fill-opacity:1"><use xlink:href="#a" x="390.772" y="66.93"/><use xlink:href="#b" x="395.007" y="66.93"/></g><g style="fill:#000;fill-opacity:1"><use xlink:href="#l" x="399.24" y="64.117"/><use xlink:href="#m" x="402.893" y="64.117"/></g><use xlink:href="#a" x="380.422" y="41.418" style="fill:#000;fill-opacity:1"/><use xlink:href="#d" x="386.538" y="41.418" style="fill:#000;fill-opacity:1"/><g style="fill:#000;fill-opacity:1"><use xlink:href="#a" x="390.772" y="41.418"/><use xlink:href="#b" x="395.007" y="41.418"/></g><g style="fill:#000;fill-opacity:1"><use xlink:href="#f" x="399.24" y="38.605"/><use xlink:href="#m" x="402.893" y="38.605"/></g><use xlink:href="#a" x="380.422" y="15.906" style="fill:#000;fill-opacity:1"/><use xlink:href="#d" x="386.538" y="15.906" style="fill:#000;fill-opacity:1"/><g style="fill:#000;fill-opacity:1"><use xlink:href="#a" x="390.772" y="15.906"/><use xlink:href="#b" x="395.007" y="15.906"/></g><g style="fill:#000;fill-opacity:1"><use xlink:href="#g" x="399.24" y="13.093"/><use xlink:href="#m" x="402.893" y="13.093"/></g></svg>