<svg xmlns="http://www.w3.org/2000/svg" width="116.619" height="90.74pt" viewBox="0 0 87.464 90.74" version="1.2"><defs><clipPath id="a"><path d="M0 0h78v90.61H0Zm0 0"/></clipPath><clipPath id="b"><path d="M0 0h87.195v80H0Zm0 0"/></clipPath><clipPath id="c"><path d="M0 43h78v47.61H0Zm0 0"/></clipPath></defs><path style="fill:none;stroke-width:.3985;stroke-linecap:butt;stroke-linejoin:miter;stroke:#bfbfbf;stroke-opacity:1;stroke-miterlimit:10" d="M0 0v87.593M8.504 0v87.593M17.008 0v87.593M25.512 0v87.593M34.016 0v87.593M42.52 0v87.593M51.024 0v87.593M59.528 0v87.593M68.032 0v87.593M76.536 0v87.593M85.04 0v87.593" transform="matrix(1 0 0 -1 .941 89.335)"/><path style="fill:none;stroke-width:.3985;stroke-linecap:butt;stroke-linejoin:miter;stroke:#ff8080;stroke-opacity:1;stroke-miterlimit:10" d="M0 20.214h85.04M0 42.67h85.04M0 65.132h85.04M0 87.593h85.04" transform="matrix(1 0 0 -1 .941 89.335)"/><path style="fill:none;stroke-width:.3985;stroke-linecap:butt;stroke-linejoin:miter;stroke:#8080ff;stroke-opacity:1;stroke-miterlimit:10" d="M0 18.636h85.04M0 55.91h85.04" transform="matrix(1 0 0 -1 .941 89.335)"/><path style="fill:none;stroke-width:.59776;stroke-linecap:butt;stroke-linejoin:miter;stroke:#000;stroke-opacity:1;stroke-miterlimit:10" d="M42.52 42.67h8.504l8.504 22.462 17.008-11.23" transform="matrix(1 0 0 -1 .941 89.335)"/><g clip-path="url(#a)"><path style="fill:none;stroke-width:.59776;stroke-linecap:butt;stroke-linejoin:miter;stroke:#000;stroke-opacity:1;stroke-miterlimit:10" d="m8.504 0 8.504 20.214 8.504 67.379 42.52-67.38" transform="matrix(1 0 0 -1 .941 89.335)"/></g><g clip-path="url(#b)"><path style="fill:none;stroke-width:.59776;stroke-linecap:butt;stroke-linejoin:miter;stroke:#000;stroke-opacity:1;stroke-miterlimit:10" d="m0 18.636 17.008 9.32L34.016 55.91l51.023 31.68" transform="matrix(1 0 0 -1 .941 89.335)"/></g><g clip-path="url(#c)"><path style="fill:none;stroke-width:.59776;stroke-linecap:butt;stroke-linejoin:miter;stroke:#000;stroke-opacity:1;stroke-miterlimit:10" d="m0 0 17.008 9.32 8.504 9.316 42.52 18.637" transform="matrix(1 0 0 -1 .941 89.335)"/></g></svg>