<svg xmlns="http://www.w3.org/2000/svg" xmlns:xlink="http://www.w3.org/1999/xlink" width="143.343" height="208.515" viewBox="0 0 107.507 156.386" version="1.2"><defs><symbol overflow="visible" id="a"><path style="stroke:none" d="M4.5-4.297c0-.047-.031-.094-.094-.094-.11 0-.515.391-.672.688-.218-.547-.609-.703-.937-.703-1.172 0-2.39 1.468-2.39 2.922C.406-.516.983.109 1.718.109c.422 0 .812-.234 1.172-.593-.094.343-.422 1.687-.454 1.78-.078.282-.156.313-.718.329-.125 0-.219 0-.219.203 0 0 0 .11.125.11.313 0 .672-.032 1-.032.328 0 .688.032 1.031.032.047 0 .172 0 .172-.204 0-.109-.094-.109-.265-.109-.47 0-.47-.063-.47-.156 0-.078.016-.14.032-.219ZM1.75-.109c-.61 0-.64-.766-.64-.938 0-.484.28-1.562.452-1.984.313-.735.829-1.156 1.235-1.156.656 0 .797.812.797.875 0 .062-.547 2.25-.578 2.28-.157.282-.72.923-1.266.923Zm0 0"/></symbol><symbol overflow="visible" id="b"><path style="stroke:none" d="M3.594-2.219c0-.765-.094-1.328-.406-1.812-.22-.313-.657-.594-1.204-.594C.36-4.625.36-2.719.36-2.219c0 .5 0 2.36 1.625 2.36 1.61 0 1.61-1.86 1.61-2.36ZM1.984-.063c-.328 0-.75-.187-.89-.75C1-1.219 1-1.796 1-2.313c0-.515 0-1.046.094-1.421.156-.547.593-.704.89-.704.375 0 .735.235.86.641.11.375.125.875.125 1.485 0 .515 0 1.03-.094 1.468-.14.64-.61.781-.89.781Zm0 0"/></symbol><symbol overflow="visible" id="c"><path style="stroke:none" d="M2.328-4.438c0-.187 0-.187-.203-.187-.453.438-1.078.438-1.36.438v.25c.157 0 .626 0 1-.188v3.547c0 .234 0 .328-.687.328H.812V0c.125 0 .985-.031 1.235-.031.219 0 1.094.031 1.25.031v-.25H3.03c-.703 0-.703-.094-.703-.328Zm0 0"/></symbol><symbol overflow="visible" id="d"><path style="stroke:none" d="M3.516-1.266H3.28c-.015.157-.094.563-.187.625-.047.047-.578.047-.688.047H1.125c.734-.64.984-.844 1.39-1.172.516-.406 1-.843 1-1.5 0-.843-.734-1.359-1.624-1.359-.86 0-1.454.61-1.454 1.25 0 .344.297.39.376.39.156 0 .359-.124.359-.374 0-.125-.047-.375-.406-.375.218-.485.687-.641 1.015-.641.703 0 1.063.547 1.063 1.11 0 .609-.438 1.078-.656 1.328L.516-.266C.437-.203.437-.187.437 0h2.876Zm0 0"/></symbol><symbol overflow="visible" id="f"><path style="stroke:none" d="M1.906-2.328c.547 0 .938.375.938 1.125 0 .86-.516 1.125-.906 1.125-.282 0-.907-.078-1.188-.5.328 0 .406-.235.406-.39 0-.22-.172-.376-.39-.376a.38.38 0 0 0-.391.407C.375-.281 1.094.14 1.938.14c.968 0 1.64-.657 1.64-1.344 0-.547-.437-1.094-1.203-1.25.719-.266.984-.781.984-1.219 0-.547-.625-.953-1.406-.953-.766 0-1.36.375-1.36.938 0 .234.157.359.36.359.219 0 .36-.156.36-.344 0-.203-.141-.36-.36-.375.25-.297.719-.375.985-.375.312 0 .75.156.75.75 0 .297-.094.625-.282.828-.219.266-.422.281-.765.313-.172.015-.188.015-.22.015-.015 0-.077.016-.077.094 0 .094.062.094.187.094Zm0 0"/></symbol><symbol overflow="visible" id="g"><path style="stroke:none" d="M5.281-3.188c0-.953-.015-3.343-2.422-3.343C.453-6.531.453-4.156.453-3.188c0 1 0 3.297 2.406 3.297 2.391 0 2.422-2.296 2.422-3.296ZM4-3.296c0 .563 0 1.469-.078 1.985-.14.921-.766 1.062-1.063 1.062-.359 0-.921-.219-1.046-.953-.094-.516-.094-1.547-.094-2.094 0-.719 0-1.375.078-1.89.125-.891.828-.985 1.062-.985.375 0 .782.188.97.625C4-5.172 4-4.109 4-3.297Zm0 0"/></symbol><symbol overflow="visible" id="h"><path style="stroke:none" d="M4.922 0v-.469h-1.39v-5.734c0-.234 0-.328-.266-.328-.11 0-.125 0-.22.078-.765.562-1.796.562-2 .562H.845v.47h.203c.156 0 .703-.016 1.297-.204v5.156H.954V0c.437-.031 1.5-.031 1.984-.031s1.546 0 1.984.031Zm0 0"/></symbol><clipPath id="e"><path d="M75 59h32.262v38H75Zm0 0"/></clipPath></defs><path style="fill:none;stroke-width:.19925;stroke-linecap:butt;stroke-linejoin:miter;stroke:gray;stroke-opacity:1;stroke-miterlimit:10" d="M-.001 0h85.043M-.001 28.348h85.043M-.001 56.684h85.043M-.001 0v56.692M28.346 0v56.692M56.694 0v56.692M85.03 0v56.692" transform="matrix(1 0 0 -1 13.415 77.93)"/><path style="fill:none;stroke-width:.3985;stroke-linecap:butt;stroke-linejoin:miter;stroke:#000;stroke-opacity:1;stroke-miterlimit:10" d="M12.452 0c0 6.88-5.575 12.453-12.453 12.453-6.875 0-12.454-5.574-12.454-12.453S-6.876-12.453 0-12.453c6.878 0 12.453 5.574 12.453 12.453Zm0 0" transform="matrix(1 0 0 -1 13.415 77.93)"/><use xlink:href="#a" x="8.957" y="79.106" style="fill:#000;fill-opacity:1"/><use xlink:href="#b" x="13.405" y="80.601" style="fill:#000;fill-opacity:1"/><path style="fill:none;stroke-width:.3985;stroke-linecap:butt;stroke-linejoin:miter;stroke:#000;stroke-opacity:1;stroke-miterlimit:10" d="M52.542 40.09c0 6.875-5.575 12.453-12.454 12.453-6.879 0-12.453-5.578-12.453-12.453 0-6.879 5.574-12.457 12.453-12.457 6.88 0 12.454 5.578 12.454 12.457Zm0 0" transform="matrix(1 0 0 -1 13.415 77.93)"/><use xlink:href="#a" x="49.044" y="39.018" style="fill:#000;fill-opacity:1"/><use xlink:href="#c" x="53.492" y="40.513" style="fill:#000;fill-opacity:1"/><path style="fill:none;stroke-width:.3985;stroke-linecap:butt;stroke-linejoin:miter;stroke:#000;stroke-opacity:1;stroke-miterlimit:10" d="M52.542-40.09c0 6.88-5.575 12.454-12.454 12.454-6.879 0-12.453-5.575-12.453-12.454 0-6.875 5.574-12.453 12.453-12.453 6.88 0 12.454 5.578 12.454 12.453Zm0 0" transform="matrix(1 0 0 -1 13.415 77.93)"/><use xlink:href="#a" x="49.044" y="119.194" style="fill:#000;fill-opacity:1"/><use xlink:href="#d" x="53.492" y="120.689" style="fill:#000;fill-opacity:1"/><g clip-path="url(#e)"><path style="fill:none;stroke-width:.3985;stroke-linecap:butt;stroke-linejoin:miter;stroke:#000;stroke-opacity:1;stroke-miterlimit:10" d="M92.631 0c0 6.88-5.578 12.453-12.453 12.453C73.3 12.453 67.725 6.88 67.725 0S73.3-12.453 80.178-12.453c6.875 0 12.453 5.574 12.453 12.453Zm0 0" transform="matrix(1 0 0 -1 13.415 77.93)"/></g><use xlink:href="#a" x="89.132" y="79.106" style="fill:#000;fill-opacity:1"/><use xlink:href="#f" x="93.581" y="80.601" style="fill:#000;fill-opacity:1"/><path style="fill:none;stroke-width:.3985;stroke-linecap:butt;stroke-linejoin:miter;stroke:#000;stroke-opacity:1;stroke-miterlimit:10" d="m8.948 8.946 21.207 21.21" transform="matrix(1 0 0 -1 13.415 77.93)"/><path style="fill:none;stroke-width:.3985;stroke-linecap:round;stroke-linejoin:round;stroke:#000;stroke-opacity:1;stroke-miterlimit:10" d="M-2.074 2.39C-1.694.955-.851.278 0 .002-.85-.28-1.693-.957-2.072-2.39" transform="scale(1 -1) rotate(45 79.356 28.948)"/><use xlink:href="#g" x="24.21" y="54.257" style="fill:#000;fill-opacity:1"/><path style="fill:none;stroke-width:.3985;stroke-linecap:butt;stroke-linejoin:miter;stroke:#000;stroke-opacity:1;stroke-miterlimit:10" d="m8.948-8.945 21.207-21.21" transform="matrix(1 0 0 -1 13.415 77.93)"/><path style="fill:none;stroke-width:.3985;stroke-linecap:round;stroke-linejoin:round;stroke:#000;stroke-opacity:1;stroke-miterlimit:10" d="M-2.072 2.391C-1.694.958-.848.278 0 0-.848-.28-1.694-.954-2.072-2.393" transform="scale(1 -1) rotate(-45 -108.786 -106.879)"/><use xlink:href="#h" x="24.21" y="108.019" style="fill:#000;fill-opacity:1"/><path style="fill:none;stroke-width:.3985;stroke-linecap:butt;stroke-linejoin:miter;stroke:#000;stroke-opacity:1;stroke-miterlimit:10" d="m49.034 31.14 21.21-21.206" transform="matrix(1 0 0 -1 13.415 77.93)"/><path style="fill:none;stroke-width:.3985;stroke-linecap:round;stroke-linejoin:round;stroke:#000;stroke-opacity:1;stroke-miterlimit:10" d="M-2.072 2.393C-1.694.954-.848.28 0 .001-.848-.278-1.694-.957-2.072-2.39" transform="scale(1 -1) rotate(-45 -40.35 -135.226)"/><use xlink:href="#h" x="77.067" y="54.366" style="fill:#000;fill-opacity:1"/><path style="fill:none;stroke-width:.3985;stroke-linecap:butt;stroke-linejoin:miter;stroke:#000;stroke-opacity:1;stroke-miterlimit:10" d="M36.815 52.309c-5.164 19.27 11.043 19.723 6.883 1.36" transform="matrix(1 0 0 -1 13.415 77.93)"/><path style="fill:none;stroke-width:.3985;stroke-linecap:round;stroke-linejoin:round;stroke:#000;stroke-opacity:1;stroke-miterlimit:10" d="M-2.07 2.391C-1.696.955-.85.277 0-.002c-.85-.275-1.692-.954-2.072-2.39" transform="matrix(-.23239 .97255 .97255 .23239 57.068 24.466)"/><use xlink:href="#g" x="50.639" y="7.191" style="fill:#000;fill-opacity:1"/><path style="fill:none;stroke-width:.3985;stroke-linecap:butt;stroke-linejoin:miter;stroke:#000;stroke-opacity:1;stroke-miterlimit:10" d="m49.034-31.14 21.21 21.207" transform="matrix(1 0 0 -1 13.415 77.93)"/><path style="fill:none;stroke-width:.3985;stroke-linecap:round;stroke-linejoin:round;stroke:#000;stroke-opacity:1;stroke-miterlimit:10" d="M-2.072 2.391C-1.693.958-.848.278 0 0-.848-.28-1.696-.956-2.072-2.393" transform="scale(1 -1) rotate(45 147.792 57.295)"/><use xlink:href="#g" x="77.067" y="108.019" style="fill:#000;fill-opacity:1"/><path style="fill:none;stroke-width:.3985;stroke-linecap:butt;stroke-linejoin:miter;stroke:#000;stroke-opacity:1;stroke-miterlimit:10" d="M43.362-52.308c5.164-19.274-11.043-19.727-6.883-1.36" transform="matrix(1 0 0 -1 13.415 77.93)"/><path style="fill:none;stroke-width:.3985;stroke-linecap:round;stroke-linejoin:round;stroke:#000;stroke-opacity:1;stroke-miterlimit:10" d="M-2.074 2.39C-1.694.956-.85.278 0-.001c-.85-.275-1.692-.954-2.072-2.39" transform="scale(.99993 -.99993) rotate(76.561 108.222 -34.06)"/><use xlink:href="#h" x="50.639" y="155.085" style="fill:#000;fill-opacity:1"/></svg>