<svg xmlns="http://www.w3.org/2000/svg" xmlns:xlink="http://www.w3.org/1999/xlink" width="132.125" height="99.003" viewBox="0 0 99.094 74.252" version="1.2"><defs><symbol overflow="visible" id="c"><path style="stroke:none" d="M4.672-1.563 4.532-2l-1.329.453L1.375-7c-.063-.219-.094-.313-.344-.234-.093.03-.11.03-.187.14-.531.782-1.516 1.11-1.703 1.172l-.204.063.141.453.203-.063c.14-.047.656-.234 1.156-.61l1.641 4.907-1.312.438.14.437c.39-.172 1.406-.516 1.86-.656.468-.156 1.468-.5 1.906-.61Zm0 0"/></symbol><symbol overflow="visible" id="d"><path style="stroke:none" d="m4.188-3.734-.438.14c.031.219.14.86.016.953-.063.094-.782.329-.922.375l-1.39.47a19.98 19.98 0 0 1 1-1.532c.812-1.156 1.265-1.813.968-2.703C3.062-7.125 1.844-7.5.516-7.063c-1.157.391-1.86 1.282-1.579 2.125.204.579.704.547.922.47.313-.11.61-.423.454-.907-.172-.484-.61-.5-.766-.5.203-.313.531-.547.875-.656.797-.266 1.469.218 1.703.922.219.656.078 1.437-.375 2.312L.516-.703c-.11.14-.11.172-.032.375l.047.156 4.063-1.36Zm0 0"/></symbol><symbol overflow="visible" id="e"><path style="stroke:none" d="M4.422-3.36c-.172-.515-.734-1.234-2.203-1.078.594-.421 1.094-1.187.828-2-.25-.734-1.156-1.078-2.485-.64-1.125.375-1.671 1.234-1.421 2a.67.67 0 0 0 .875.437c.437-.14.578-.515.453-.859-.172-.547-.735-.484-.766-.5.234-.375.625-.578.922-.688.781-.25 1.016.344 1.11.657.046.125.437 1.36-.5 1.75-.391.14-.423.156-.47.187-.062.047-.062.14-.046.188.047.172.14.14.312.094l.407-.141c1.046-.344 1.359.594 1.53 1.078.141.438.47 1.406-.515 1.734-.25.079-.75.188-1.312.063.28-.188.437-.5.312-.875-.156-.438-.547-.625-.953-.484-.406.124-.64.484-.484.968.28.86 1.39 1.125 2.609.719 1.688-.563 2.078-1.75 1.797-2.61Zm0 0"/></symbol><symbol overflow="visible" id="g"><path style="stroke:none" d="m5.125-1.703-.14-.438-.923.297-.359-1.047.922-.296-.14-.438-.923.297-1.328-3.985c-.078-.25-.109-.28-.375-.203-.203.079-.203.079-.265.266L-.344-2.016l.14.438L2.532-2.5l.36 1.047-1.063.36.14.437c.345-.156 1.204-.438 1.61-.578.375-.125 1.188-.391 1.547-.47ZM2.485-2.97l-2.329.781 1.36-3.703Zm0 0"/></symbol><symbol overflow="visible" id="h"><path style="stroke:none" d="M-5.375-1.313c-.672.954-.531 2.157.672 3 .234.157.687.438 1.25.454l-.75 1.078c-.203-.203-.281-.281-.547-.469-1.188-.828-2.594-.438-2.734-.234-.047.062-.094.156.015.234.016.016.016.016.14.031a4.542 4.542 0 0 1 1.407.656c.625.438.938.891 1.11 1.11.046.078.046.094.078.11.109.093.171 0 .265-.126l1.672-2.39c.094-.157.156-.25-.015-.375-.11-.079-.141-.063-.25-.047-.579.156-1.063-.063-1.391-.297-.734-.516-.234-1.234.219-1.89.421-.595 1-1.423 1.968-.735.204.14.672.562.704 1.25-.297-.188-.688-.156-.922.172-.297.437-.032.812.156.953.125.078.61.297.953-.203.484-.688.328-1.828-.672-2.531-1.312-.922-2.64-.75-3.328.25Zm0 0"/></symbol><symbol overflow="visible" id="i"><path style="stroke:none" d="M-5.36 1.719c-.093 1.39.876 2.172 2.063 2.25.219.015.781.047 1.25-.672l-.015.187c-.063 1.125-.313 1.532-.391 1.672a1.615 1.615 0 0 1-1.438.75c-.171-.015-.5-.062-.718-.312.359-.032.546-.282.578-.578.015-.344-.188-.641-.578-.672-.391-.016-.641.234-.672.61-.032.624.343 1.28 1.375 1.343 1.36.078 3.062-.672 3.219-3.172.046-.781.03-1.578-.36-2.297C-1.469.031-2.203-.25-2.907-.297-4.265-.375-5.28.375-5.358 1.72Zm1.36.093c.063-1 .11-1.75 1.11-1.687.515.031.75.438.812.625.14.313.094 1.031.078 1.219-.078 1.25-.64 1.687-1.188 1.656-.937-.063-.874-.813-.812-1.813Zm0 0"/></symbol><symbol overflow="visible" id="j"><path style="stroke:none" d="m-2.469 8.125 1.86-.828c.203-.094 1.562-.64 1.718-.656.188-.047.25.015.297.109l.422-.188-.703-2.453-.438.188c.235.719.172.906.141.937-.078.094-.812.422-.969.485l-1.53.687c.062-.265.155-.531.234-.797.421-1.421.53-2.937-.079-4.28-.28-.641-.796-.407-.859-.391-.14.062-.547.296-.281.906l.203.422c.187.437.344.875.484 1.328.188.656.235 1.265.078 1.781l-.687 2.266c-.047.156-.031.171.11.484Zm0 0"/></symbol><symbol overflow="visible" id="k"><path style="stroke:none" d="M.844 5.5c1.062.203 1.672-.531 2.047-.953.218.75.593 1.125 1.156 1.234 1 .188 1.625-.625 1.844-1.734.25-1.36-.422-2.188-1.344-2.375-.438-.078-1.078 0-1.656.656C2.687 1.453 2.203.906 1.484.766.313.546-.406 1.516-.64 2.78-.937 4.344-.234 5.297.844 5.5Zm3.328-.453c-.469-.094-.75-.39-.953-.89l1.11-1.313c.093-.14.312-.39.655-.328.688.14.594 1.03.516 1.437-.156.813-.656 1.219-1.328 1.094ZM.469 4.563C-.36 4.405-.328 3.452-.22 2.89c.172-.954.781-1.438 1.547-1.297.75.14 1.094.765 1.219 1.14L1.53 3.938c-.312.374-.593.718-1.062.624Zm0 0"/></symbol><clipPath id="a"><path d="M3 2h95.64v69H3Zm0 0"/></clipPath><clipPath id="b"><path d="M0 50h23v23.879H0Zm0 0"/></clipPath><clipPath id="f"><path d="M75 23h23.64v29H75Zm0 0"/></clipPath></defs><path style="fill:none;stroke-width:.19925;stroke-linecap:butt;stroke-linejoin:miter;stroke:gray;stroke-opacity:1;stroke-miterlimit:10" d="M-.001-.002h85.043M-.001 28.346h85.043M-.001 56.682h85.043M-.001-.002v56.696M28.347-.002v56.696M56.694-.002v56.696M85.03-.002v56.696" transform="matrix(1 0 0 -1 8.751 64.424)"/><g clip-path="url(#a)"><path style="fill:none;stroke-width:.3985;stroke-linecap:butt;stroke-linejoin:miter;stroke:#000;stroke-opacity:1;stroke-miterlimit:10" d="m-.001-.002 85.043 28.348c0 15.656-19.04 28.348-42.523 28.348-23.48 0-42.52-12.692-42.52-28.348" transform="matrix(1 0 0 -1 8.751 64.424)"/></g><g clip-path="url(#b)"><path style="fill:none;stroke-width:.3985;stroke-linecap:butt;stroke-linejoin:miter;stroke:#000;stroke-opacity:1;stroke-miterlimit:10" d="M3.784 8.201-7.95 4.291-3.786-8.2l11.734 3.91Zm0 0" transform="matrix(1 0 0 -1 8.751 64.424)"/></g><use xlink:href="#c" x="7.066" y="68.425" style="fill:#000;fill-opacity:1"/><path style="fill:none;stroke-width:.3985;stroke-linecap:butt;stroke-linejoin:miter;stroke:#000;stroke-opacity:1;stroke-miterlimit:10" d="M30.675 17.166 18.94 13.252 23.104.764l11.735 3.91Zm0 0" transform="matrix(1 0 0 -1 8.751 64.424)"/><use xlink:href="#d" x="33.956" y="59.461" style="fill:#000;fill-opacity:1"/><path style="fill:none;stroke-width:.3985;stroke-linecap:butt;stroke-linejoin:miter;stroke:#000;stroke-opacity:1;stroke-miterlimit:10" d="m57.55 26.182-11.735-3.914 4.2-12.594 11.734 3.91Zm0 0" transform="matrix(1 0 0 -1 8.751 64.424)"/><use xlink:href="#e" x="60.829" y="50.446" style="fill:#000;fill-opacity:1"/><g clip-path="url(#f)"><path style="fill:none;stroke-width:.3985;stroke-linecap:butt;stroke-linejoin:miter;stroke:#000;stroke-opacity:1;stroke-miterlimit:10" d="m84.456 35.096-11.734-3.91 4.168-12.5 11.734 3.91Zm0 0" transform="matrix(1 0 0 -1 8.751 64.424)"/></g><use xlink:href="#g" x="87.739" y="41.539" style="fill:#000;fill-opacity:1"/><path style="fill:none;stroke-width:.3985;stroke-linecap:butt;stroke-linejoin:miter;stroke:#000;stroke-opacity:1;stroke-miterlimit:10" d="m64.397 46.022 10.145-7.078 7.594 10.89-10.145 7.074Zm0 0" transform="matrix(1 0 0 -1 8.751 64.424)"/><use xlink:href="#h" x="86.201" y="15.505" style="fill:#000;fill-opacity:1"/><path style="fill:none;stroke-width:.3985;stroke-linecap:butt;stroke-linejoin:miter;stroke:#000;stroke-opacity:1;stroke-miterlimit:10" d="m40.026 50.334 12.344-.789.848 13.25-12.344.785Zm0 0" transform="matrix(1 0 0 -1 8.751 64.424)"/><use xlink:href="#i" x="58.434" y="4.842" style="fill:#000;fill-opacity:1"/><path style="fill:none;stroke-width:.3985;stroke-linecap:butt;stroke-linejoin:miter;stroke:#000;stroke-opacity:1;stroke-miterlimit:10" d="m16.022 43.256 11.297 5.035-5.484 12.317-11.3-5.032Zm0 0" transform="matrix(1 0 0 -1 8.751 64.424)"/><use xlink:href="#j" x="28.947" y="8.3" style="fill:#000;fill-opacity:1"/><path style="fill:none;stroke-width:.3985;stroke-linecap:butt;stroke-linejoin:miter;stroke:#000;stroke-opacity:1;stroke-miterlimit:10" d="m5.702 24.639 2.32 12.152-13.043 2.485-2.316-12.149Zm0 0" transform="matrix(1 0 0 -1 8.751 64.424)"/><use xlink:href="#k" x="6.478" y="29.051" style="fill:#000;fill-opacity:1"/><path style="fill:none;stroke-width:.3985;stroke-linecap:butt;stroke-linejoin:miter;stroke:red;stroke-opacity:1;stroke-miterlimit:10" d="m48.276 23.299-23.715 23.14" transform="matrix(1 0 0 -1 8.751 64.424)"/><path style="fill:none;stroke-width:.3985;stroke-linecap:round;stroke-linejoin:round;stroke:red;stroke-opacity:1;stroke-miterlimit:10" d="M-2.07 2.391C-1.693.958-.85.279 0 .001c-.852-.28-1.691-.957-2.071-2.392" transform="scale(-.99995 .99995) rotate(-44.291 5.342 49.675)"/></svg>