<svg xmlns="http://www.w3.org/2000/svg" width="153.891" height="115.4pt" viewBox="0 0 115.418 115.4" version="1.2"><defs><clipPath id="a"><path d="M.727 23h113.386v69H.727Zm0 0"/></clipPath><clipPath id="b"><path d="M23 .7h69v113.386H23Zm0 0"/></clipPath></defs><g clip-path="url(#a)"><path style="fill:none;stroke-width:.3985;stroke-linecap:butt;stroke-linejoin:miter;stroke:#000;stroke-opacity:1;stroke-miterlimit:10" d="M-56.693-28.345c283.468 0-170.082 56.691 113.386 56.691" transform="matrix(1 0 0 -1 57.42 57.393)"/></g><g clip-path="url(#b)"><path style="fill:none;stroke-width:.3985;stroke-linecap:butt;stroke-linejoin:miter;stroke:#000;stroke-opacity:1;stroke-miterlimit:10" d="M-28.346-56.693c0 283.469 56.692-170.082 56.692 113.387" transform="matrix(1 0 0 -1 57.42 57.393)"/></g><path style="stroke:none;fill-rule:nonzero;fill:#000;fill-opacity:1" d="M31.281 85.527a1.994 1.994 0 0 0-3.988 0c0 1.098.895 1.993 1.992 1.993a1.996 1.996 0 0 0 1.996-1.993Zm28.14-28.144a1.99 1.99 0 0 0-1.991-1.992 1.99 1.99 0 0 0-1.992 1.992 1.99 1.99 0 0 0 1.992 1.992 1.99 1.99 0 0 0 1.992-1.992Zm0 0"/></svg>