<svg xmlns="http://www.w3.org/2000/svg" xmlns:xlink="http://www.w3.org/1999/xlink" width="179.193" height="125.739" viewBox="0 0 134.395 94.304" version="1.2"><defs><symbol overflow="visible" id="b"><path style="stroke:none" d="M17.125 0v-.938h-2.14v-11.796h2.14v-.938c-.75.063-2.703.063-3.563.063-.859 0-2.812 0-3.562-.063v.938h2.156v5.171H5.75v-5.171h2.156v-.938c-.75.063-2.703.063-3.562.063-.86 0-2.813 0-3.563-.063v.938h2.14V-.938H.782V0c.75-.063 2.703-.063 3.563-.063.86 0 2.812 0 3.562.063v-.938H5.75V-6.64h6.406v5.704H10V0c.75-.063 2.703-.063 3.563-.063.859 0 2.812 0 3.562.063Zm0 0"/></symbol><symbol overflow="visible" id="c"><path style="stroke:none" d="M5.703 0v-.938H4.47v-8.03L1-8.814v.938c1.172 0 1.313 0 1.313.781v6.157H.937V0L3.36-.063Zm-.969-12.094a1.54 1.54 0 0 0-1.546-1.547 1.54 1.54 0 0 0-1.547 1.547c0 .86.687 1.563 1.546 1.563.86 0 1.547-.703 1.547-1.563Zm0 0"/></symbol><clipPath id="a"><path d="M0 0h115v93.957H0Zm0 0"/></clipPath></defs><path style="fill:none;stroke-width:1.19553;stroke-linecap:butt;stroke-linejoin:miter;stroke:red;stroke-opacity:1;stroke-miterlimit:10" d="M.002-.001v56.695h56.691V-.001Zm0 0" transform="matrix(1 0 0 -1 46.858 75.151)"/><path style="fill:none;stroke-width:1.19553;stroke-linecap:butt;stroke-linejoin:miter;stroke:#00f;stroke-opacity:1;stroke-miterlimit:10" d="M14.174 14.173V42.52h56.694V14.173Zm0 0" transform="matrix(1.99998 0 0 -1.99998 -9.835 103.497)"/><g clip-path="url(#a)"><path style="fill:none;stroke-width:.79701;stroke-linecap:butt;stroke-linejoin:miter;stroke:#000;stroke-opacity:1;stroke-miterlimit:10" d="M51.024 28.347c0 12.525-10.153 22.678-22.676 22.678-12.526 0-22.678-10.153-22.678-22.678 0-12.524 10.152-22.678 22.678-22.678 12.523 0 22.676 10.154 22.676 22.678Zm0 0" transform="matrix(1.99998 0 0 -1.99998 -9.835 103.497)"/></g><g style="fill:#000;fill-opacity:1"><use xlink:href="#b" x="34.712" y="53.638"/><use xlink:href="#c" x="52.645" y="53.638"/></g></svg>