<svg xmlns="http://www.w3.org/2000/svg" xmlns:xlink="http://www.w3.org/1999/xlink" width="502.899" height="136.947" viewBox="0 0 377.174 102.71" version="1.2"><defs><symbol overflow="visible" id="b"><path style="stroke:none" d="M9.188-1.625v-.469l-.672.125v-2.578c0-1.031-.516-1.344-1.532-1.172-.89.157-1.406.75-1.656 1.266-.187-.906-1.094-.781-1.469-.719-.859.156-1.406.703-1.734 1.39v-1.077l-1.672.375v.468c.594-.109.672-.125.672.266v3.078l-.672.125v.469l1.219-.25 1.234-.188v-.468l-.672.125v-2.079c0-1.093.86-1.734 1.47-1.843.327-.047.546.11.546.875v2.687l-.688.125v.469l1.25-.25 1.235-.188v-.468l-.672.11V-3.5c0-1.094.844-1.719 1.453-1.828.344-.063.563.11.563.875v2.687l-.688.11v.468l1.234-.25Zm0 0"/></symbol><symbol overflow="visible" id="c"><path style="stroke:none" d="M5.438-1.188c0-.234-.125-.218-.266-.187-.61.094-.61-.047-.61-.281v-2.14c0-.892-.687-1.392-2.14-1.126-.563.094-1.766.344-1.766 1.219 0 .437.344.562.61.515.296-.062.609-.312.609-.734 0-.312-.188-.437-.219-.453.282-.11.61-.188.719-.203.734-.125 1.094.219 1.094.984v.344C2.75-3.11.266-2.562.266-1.125c0 .953 1.218.922 1.89.813.781-.141 1.25-.625 1.453-1.094 0 .312 0 .765 1.032.593l.468-.093c.204-.031.329-.047.329-.281Zm-1.97-.796c0 .953-.921 1.234-1.155 1.28-.516.095-.891-.202-.891-.624 0-1.078 1.547-1.5 2.047-1.61Zm0 0"/></symbol><symbol overflow="visible" id="d"><path style="stroke:none" d="M5.484-4.922c0-.234-.171-.547-.625-.469a2.11 2.11 0 0 0-1.046.563c-.172-.078-.579-.219-1.297-.094-1.422.25-1.97 1.11-1.97 1.813 0 .406.188.796.516.953-.28.39-.343.75-.343.953 0 .156.047.625.437.875C1.031-.281.313.078.313.703c0 .5.546 1.14 2.5.797C4.563 1.203 5.328.469 5.328-.219c0-.312-.078-.906-.75-1.156-.547-.156-1.125-.063-2.062.11-.266.046-.72.124-.766.109-.438.015-.547-.344-.547-.516 0-.125.047-.266.11-.36.437.157.953.095 1.203.063 1.406-.25 1.953-1.125 1.953-1.828 0-.453-.25-.765-.407-.89.297-.204.5-.266.61-.297a.551.551 0 0 0-.047.218c0 .235.172.407.438.36a.532.532 0 0 0 .421-.516ZM3.375-3.609c0 .468 0 1.125-.86 1.28-.874.142-.874-.515-.874-.983 0-.438 0-1.11.875-1.25.859-.157.859.515.859.953Zm1.11 3.562c0 .36-.391.985-1.673 1.203C1.641 1.36 1.157.984 1.157.531c0-.61.61-.719.75-.75l1.157-.203c.312-.047 1.421-.25 1.421.375Zm0 0"/></symbol><symbol overflow="visible" id="e"><path style="stroke:none" d="M6.031-1.063v-.468l-.672.125v-2.578c0-1.047-.53-1.36-1.515-1.172-.938.156-1.453.812-1.719 1.375V-4.86l-1.672.375v.468c.594-.109.672-.125.672.266v3.078l-.672.125v.469l1.219-.25 1.234-.188v-.468l-.672.125v-2.079c0-1.093.844-1.734 1.47-1.843.327-.047.546.11.546.875v2.687l-.688.125v.469l1.235-.25Zm0 0"/></symbol><symbol overflow="visible" id="f"><path style="stroke:none" d="M4.844-2.016c0-.187-.188-.156-.235-.14-.156.031-.171.078-.234.25-.203.515-.781.937-1.406 1.047-1.39.25-1.406-1.094-1.406-1.594l2.984-.516c.203-.047.297-.062.297-.328 0-.312-.063-1.015-.547-1.437-.36-.282-.875-.375-1.563-.25C1.172-4.704.313-3.531.313-2.281c0 1.328.984 2.11 2.562 1.844C4.438-.72 4.844-1.86 4.844-2.016Zm-.922-1.171-2.36.406c.016-.39.032-.797.235-1.172.266-.438.672-.64.937-.688 1.157-.203 1.172 1.094 1.188 1.454Zm0 0"/></symbol><symbol overflow="visible" id="g"><path style="stroke:none" d="M3.75-1.89v-.532l-.453.078v.516c0 .672-.328.969-.61 1.031-.562.094-.562-.562-.562-.781v-2.75l1.438-.25v-.469l-1.438.25v-1.906l-.469.078c0 1-.468 2.078-1.453 2.281v.36l.813-.141v2.734c0 1.063.843 1.125 1.546 1 .75-.125 1.188-.765 1.188-1.5Zm0 0"/></symbol><symbol overflow="visible" id="h"><path style="stroke:none" d="M2.797-.5v-.469l-.594.11v-4.016L.5-4.5v.469c.578-.094.64-.11.64.281v3.078L.47-.547v.469l1.187-.25Zm-.453-5.953c0-.422-.344-.734-.781-.656-.407.078-.766.5-.766.921 0 .438.36.72.765.641.438-.078.782-.469.782-.906Zm0 0"/></symbol><symbol overflow="visible" id="i"><path style="stroke:none" d="M4.688-1.984c0-.141-.125-.11-.22-.094-.187.031-.187.047-.25.172C3.969-1.234 3.5-.938 3-.86c-1.375.25-1.375-1.235-1.375-1.688 0-.562 0-1.844 1.266-2.078.359-.063.515-.047.656-.063a.696.696 0 0 0-.203.5c0 .438.328.579.594.532a.762.762 0 0 0 .624-.75c0-.86-1.125-.703-1.703-.594C1.094-4.687.375-3.422.375-2.266c0 1.313.922 2.094 2.422 1.829 1.61-.282 1.89-1.485 1.89-1.547Zm0 0"/></symbol><symbol overflow="visible" id="j"><path style="stroke:none" d="M5.89-1.047v-.469l-.671.125v-4.046L3.5-5.063l-.016.03-1.437.25v-.968c0-.844.656-1.344 1.562-1.5.282-.047.5-.031.72.047-.157.094-.438.312-.438.703 0 .39.296.61.656.547a.798.798 0 0 0 .64-.797c0-.5-.437-1.078-1.515-.875-1.203.203-2.625.86-2.625 2.016v1l-.734.14V-4l.734-.14v3.484l-.672.125v.469l1.188-.25L2.78-.484v-.47l-.672.11v-3.484l1.75-.313c.25-.03.313-.046.313.313v3.125l-.688.125v.469l1.204-.25Zm0 0"/></symbol><symbol overflow="visible" id="k"><path style="stroke:none" d="M2.875-.5v-.469l-.672.11v-6.454L.47-6.921v.484c.61-.109.672-.125.672.25v5.516l-.672.125v.469l1.187-.25Zm0 0"/></symbol><symbol overflow="visible" id="l"><path style="stroke:none" d="M5.89-1.047v-.469c-.593.11-.671.125-.671-.265v-6.063l-1.735.39v.485c.61-.11.688-.125.688.25v1.953a1.922 1.922 0 0 0-1.344-.218C1.406-4.734.375-3.656.375-2.266c0 1.313.906 2.11 2.344 1.844a2.735 2.735 0 0 0 1.39-.719v.485ZM4.11-1.75c-.141.203-.548.828-1.282.953-1.203.219-1.203-.984-1.203-1.687 0-.485 0-1.016.25-1.438.297-.484.75-.672 1.063-.719.562-.093.953.141 1.171.407Zm0 0"/></symbol><symbol overflow="visible" id="n"><path style="stroke:none" d="M4.422-1.281c-.047-.047-.234-.016-.281 0-.157.031-.157.047-.172.11-.031.202-.5.405-1.125.515-1.39.25-1.875-.219-2.047-.39l2.984-.516c.203-.047.297-.063.203-.157-.109-.11-.437-.36-1.093-.437-.485-.063-1.063-.047-1.75.078-1.563.281-2.063.797-1.625 1.234.468.469 1.812.64 3.39.375C4.47-.75 4.5-1.203 4.422-1.28Zm-1.39-.297-2.36.406c-.125-.14-.25-.281-.156-.422.109-.203.484-.312.75-.36 1.156-.202 1.625.25 1.765.376Zm0 0"/></symbol><symbol overflow="visible" id="o"><path style="stroke:none" d="m2.875-.5-.156-.156-.672.11-2.281-2.282-1.72.328.173.172c.61-.11.672-.125.797 0L.984-.36l-.671.125.156.156L1.64-.312Zm0 0"/></symbol><symbol overflow="visible" id="p"><path style="stroke:none" d="M4.266-1.25c-.032-.031-.157 0-.25.016-.188.03-.188.03-.204.078-.03.265-.437.422-.937.5C1.5-.406.985-.922.828-1.078c-.203-.203-.656-.656.61-.89.359-.063.53-.063.671-.095-.125.094-.078.157-.03.204.14.14.546.171.812.125.312-.063.546-.204.406-.344-.313-.313-1.453-.125-2.031-.016C-.5-1.78-.813-1.25-.406-.844c.469.469 1.734.64 3.234.375 1.61-.281 1.469-.75 1.438-.781Zm0 0"/></symbol><symbol overflow="visible" id="q"><path style="stroke:none" d="m3.313-1.094-.188-.187-.453.078.187.187c.235.235-.015.36-.296.422C2-.5 1.78-.719 1.687-.813L.72-1.78l1.437-.25L2-2.187l-1.438.25-.671-.672-.47.078c.345.344.235.797-.75.969l.126.125.812-.141.97.969c.39.39 1.312.312 2.015.187.75-.125.984-.406.719-.672Zm0 0"/></symbol><symbol overflow="visible" id="r"><path style="stroke:none" d="M3.047-2.063c-.188-.187-.813-.187-1.328-.093-.688.11-.907.36-.907.61l-.39-.391-1.594.328.156.156c.594-.11.672-.125.813.016L.89-.345l-.672.125.156.157 1.203-.235c.375-.062 1-.172 1.375-.219l-.156-.156-.844.14-.625-.624c-.25-.25-.437-.703.547-.89 0 0-.14.093-.031.202.156.157.547.157.812.11.297-.047.531-.188.39-.329Zm0 0"/></symbol><symbol overflow="visible" id="s"><path style="stroke:none" d="M2.797-.5 2.64-.656l-.594.11L.625-1.97l-1.672.328.156.157c.579-.094.641-.11.782.03L.984-.358l-.671.125.156.156L1.64-.312ZM.219-2.531c-.172-.172-.64-.25-1.078-.172-.407.078-.641.265-.47.437.141.141.626.204 1.032.125.438-.078.656-.25.516-.39Zm0 0"/></symbol><symbol overflow="visible" id="t"><path style="stroke:none" d="m5.89-1.047-.156-.156-.671.125-1.438-1.438-1.703.329v.015l-1.438.25-.343-.344c-.297-.296.234-.546 1.14-.703a7.07 7.07 0 0 1 .766-.078c-.125.063-.36.156-.203.313.125.125.515.171.875.109.344-.063.547-.219.422-.344-.188-.187-.86-.344-1.938-.14-1.203.203-2.484.593-2.078 1l.36.359-.735.14.156.157.735-.14L.89-.344.219-.22l.156.157 1.172-.235L2.78-.484l-.156-.157-.672.11-1.25-1.25 1.75-.313c.25-.031.313-.047.453.094l1.11 1.11-.688.124.156.157 1.188-.235Zm0 0"/></symbol><symbol overflow="visible" id="u"><path style="stroke:none" d="m5.89-1.047-.156-.156c-.593.11-.671.125-.812-.016l-2.14-2.14-1.72.328.172.172c.61-.11.688-.125.813 0l.687.687a6.449 6.449 0 0 0-1.484.094c-1.422.25-2.14.75-1.656 1.234.469.469 1.719.656 3.156.39.61-.108.984-.28 1.219-.405l.172.171Zm-2.14-.031c-.078.078-.297.344-1.031.469-1.203.218-1.625-.204-1.875-.454-.156-.156-.36-.359-.235-.53.141-.204.563-.329.875-.376.563-.093 1.063-.062 1.391.016Zm0 0"/></symbol><clipPath id="a"><path d="M9 0h358v102.566H9Zm0 0"/></clipPath><clipPath id="m"><path d="M0 0h376.762v102.566H0Zm0 0"/></clipPath></defs><path style="stroke:none;fill-rule:nonzero;fill:#00f;fill-opacity:.2" d="M20.71 80.07c9.099-16.117 17.81-31.484 27.911-33.265 10.106-1.782 18.813 10.515 27.914 23.422 9.098 12.906 17.809 25.203 27.91 23.421 10.106-1.78 18.813-17.148 27.914-33.265 9.098-16.113 17.809-31.48 27.91-33.262 10.106-1.781 18.813 10.512 27.915 23.422 9.097 12.906 17.808 25.203 27.91 23.418 10.105-1.781 18.812-17.148 27.914-33.262 9.097-16.117 17.808-31.484 27.91-33.265 10.105-1.782 18.812 10.515 27.914 23.421 9.098 12.907 17.809 25.204 27.91 23.422 10.106-1.78 18.813-17.148 27.914-33.265"/><g clip-path="url(#a)"><path style="fill:none;stroke-width:.79701;stroke-linecap:butt;stroke-linejoin:miter;stroke:#000;stroke-opacity:1;stroke-miterlimit:10" d="M0 0C9.1 16.117 17.81 31.484 27.912 33.265 38.017 35.047 46.724 22.75 55.825 9.843c9.098-12.906 17.809-25.203 27.91-23.421 10.106 1.78 18.813 17.148 27.914 33.265 9.098 16.113 17.809 31.48 27.91 33.262 10.106 1.781 18.813-10.512 27.915-23.422 9.097-12.906 17.808-25.203 27.91-23.418 10.105 1.781 18.812 17.148 27.914 33.262 9.097 16.117 17.808 31.484 27.91 33.265 10.105 1.782 18.812-10.515 27.914-23.421 9.098-12.907 17.809-25.204 27.91-23.422 10.106 1.78 18.813 17.148 27.914 33.265" transform="matrix(1 0 0 -1 20.71 80.07)"/></g><path style="fill:none;stroke-width:.3985;stroke-linecap:butt;stroke-linejoin:miter;stroke:#000;stroke-opacity:1;stroke-miterlimit:10" d="M13.958 2.46v20.044M27.911 4.922v28.343M41.868 7.383v20.039M69.782 12.304V-7.739M83.735 14.765v-28.343M97.692 17.226V-2.817M125.606 22.148v20.04M139.56 24.605V52.95M153.517 27.066V47.11M181.43 31.988v-20.04M195.384 34.449V6.109M209.34 36.91V16.87M237.255 41.832v20.043M251.208 44.293v28.343M265.165 46.754v20.043M293.08 51.675V31.633M307.032 54.136V25.793M320.99 56.597V36.554" transform="matrix(1 0 0 -1 20.71 80.07)"/><g style="fill:#000;fill-opacity:1"><use xlink:href="#b" x="153.64" y="101.63"/><use xlink:href="#c" x="163.038" y="99.973"/><use xlink:href="#d" x="168.521" y="99.006"/><use xlink:href="#e" x="174.162" y="98.012"/><use xlink:href="#f" x="180.431" y="96.906"/><use xlink:href="#g" x="185.6" y="95.995"/><use xlink:href="#h" x="189.985" y="95.222"/><use xlink:href="#i" x="193.115" y="94.67"/></g><g style="fill:#000;fill-opacity:1"><use xlink:href="#j" x="201.885" y="93.124"/><use xlink:href="#f" x="208.153" y="92.019"/><use xlink:href="#k" x="213.323" y="91.107"/><use xlink:href="#l" x="216.452" y="90.555"/></g><g clip-path="url(#m)"><path style="fill:none;stroke-width:.19925;stroke-linecap:butt;stroke-linejoin:miter;stroke:gray;stroke-opacity:1;stroke-miterlimit:10" d="m-20.042 20.043 334.945 59.054M-10.022 10.02l334.945 59.059M0 0l334.945 59.058M10.02-10.02l334.946 59.055M20.036-20.04l334.945 59.058M-20.042 20.043 20.04-20.04M7.872 24.965l40.082-40.086M35.782 29.883 75.864-10.2M63.696 34.804l40.082-40.082M91.606 39.726 131.688-.356M119.52 44.648l40.082-40.082M147.431 49.57l40.082-40.082m-12.168 45.004 40.082-40.082m-12.172 45.004 40.082-40.082m-12.168 45.004L271.25 24.25m-12.172 45.004 40.082-40.082m-12.168 45.003 40.082-40.082m-12.18 45.004 40.083-40.082" transform="matrix(1 0 0 -1 20.71 80.07)"/></g><path style="fill-rule:nonzero;fill:red;fill-opacity:.2;stroke-width:.79701;stroke-linecap:butt;stroke-linejoin:miter;stroke:#000;stroke-opacity:1;stroke-miterlimit:10" d="M0 0c14.231-3.528 27.83-6.88 37.935-5.098 10.101 1.781 13.921 8.207 17.89 14.941 3.969 6.735 7.785 13.16 17.89 14.942 10.106 1.781 23.704-1.574 37.934-5.098 14.23-3.527 27.828-6.883 37.934-5.101 10.102 1.78 13.922 8.207 17.89 14.941 3.97 6.734 7.786 13.16 17.891 14.945 10.106 1.782 23.703-1.574 37.934-5.101 14.23-3.528 27.828-6.88 37.93-5.098 10.105 1.781 13.925 8.207 17.894 14.942 3.969 6.734 7.785 13.16 17.89 14.94 10.106 1.782 23.704-1.573 37.934-5.097" transform="matrix(1 0 0 -1 20.71 80.07)"/><path style="fill:none;stroke-width:.3985;stroke-linecap:butt;stroke-linejoin:miter;stroke:#000;stroke-opacity:1;stroke-miterlimit:10" d="m13.958 2.46 7.082-7.085M27.911 4.922l10.024-10.02M41.868 7.383 48.954.296M69.782 12.304l-7.086 7.086M83.735 14.765l-10.02 10.02M97.692 17.226l-7.086 7.086M125.606 22.148l7.082-7.086M139.56 24.605l10.023-10.02M153.517 27.066l7.085-7.082M181.43 31.988l-7.085 7.086M195.384 34.449l-10.02 10.023M209.34 36.91l-7.085 7.086M237.255 41.832l7.082-7.086M251.208 44.293l10.023-10.02M265.165 46.754l7.086-7.086M293.08 51.675l-7.087 7.086M307.032 54.136l-10.02 10.02M320.99 56.597l-7.087 7.086" transform="matrix(1 0 0 -1 20.71 80.07)"/><g style="fill:#000;fill-opacity:1"><use xlink:href="#n" x="174.307" y="72.106"/><use xlink:href="#o" x="179.477" y="71.194"/><use xlink:href="#n" x="182.606" y="70.643"/><use xlink:href="#p" x="187.776" y="69.731"/><use xlink:href="#q" x="192.789" y="68.847"/><use xlink:href="#r" x="197.174" y="68.074"/><use xlink:href="#s" x="201.824" y="67.254"/><use xlink:href="#p" x="204.953" y="66.703"/></g><g style="fill:#000;fill-opacity:1"><use xlink:href="#t" x="213.723" y="65.156"/><use xlink:href="#n" x="219.991" y="64.051"/><use xlink:href="#o" x="225.161" y="63.14"/><use xlink:href="#u" x="228.29" y="62.588"/></g></svg>