<svg xmlns="http://www.w3.org/2000/svg" width="84.063" height="85.827" viewBox="0 0 63.047 64.37" version="1.2"><defs><clipPath id="a"><path d="M47 14h15.57v21H47Zm0 0"/></clipPath><clipPath id="b"><path d="M47 28h15.57v21H47Zm0 0"/></clipPath><clipPath id="c"><path d="M40 0h22.57v22H40Zm0 0"/></clipPath></defs><path style="fill:none;stroke-width:.3985;stroke-linecap:butt;stroke-linejoin:miter;stroke:#000;stroke-opacity:1;stroke-miterlimit:10" d="m-15.916-16.886-4.372-8.746M-35.069-45.234l-4.375-8.746M-10.936-45.234l-4.371-8.746M-8.221-45.234l4.375-8.746M-23.612-30.656l-8.137-9.554M-19.678-30.656l8.133-9.554" transform="matrix(1 0 0 -1 44.166 3.52)"/><g clip-path="url(#a)"><path style="fill:none;stroke-width:.3985;stroke-linecap:butt;stroke-linejoin:miter;stroke:#000;stroke-opacity:1;stroke-miterlimit:10" d="m13.2-16.886-4.37-8.746" transform="matrix(1 0 0 -1 44.166 3.52)"/></g><g clip-path="url(#b)"><path style="fill:none;stroke-width:.3985;stroke-linecap:butt;stroke-linejoin:miter;stroke:#000;stroke-opacity:1;stroke-miterlimit:10" d="m8.83-31.062 4.37-8.742" transform="matrix(1 0 0 -1 44.166 3.52)"/></g><path style="fill:none;stroke-width:.3985;stroke-linecap:butt;stroke-linejoin:miter;stroke:#000;stroke-opacity:1;stroke-miterlimit:10" d="m-2.174-2.117-10.211-9.941" transform="matrix(1 0 0 -1 44.166 3.52)"/><g clip-path="url(#c)"><path style="fill:none;stroke-width:.3985;stroke-linecap:butt;stroke-linejoin:miter;stroke:#000;stroke-opacity:1;stroke-miterlimit:10" d="m2.173-2.117 10.211-9.941" transform="matrix(1 0 0 -1 44.166 3.52)"/></g><path style="stroke:none;fill-rule:nonzero;fill:#000;fill-opacity:1" d="M47 3.52a2.835 2.835 0 1 0-2.832 2.835A2.835 2.835 0 0 0 47 3.52ZM32.441 17.691a2.835 2.835 0 1 0-5.666.006 2.835 2.835 0 0 0 5.666-.006ZM25.355 31.867a2.835 2.835 0 1 0-5.668 0 2.835 2.835 0 0 0 5.668 0ZM13.29 46.04a2.836 2.836 0 1 0-5.672-.001 2.836 2.836 0 0 0 5.671 0ZM6.203 60.21a2.832 2.832 0 0 0-2.836-2.831A2.832 2.832 0 0 0 .531 60.21a2.836 2.836 0 1 0 5.672 0ZM37.426 46.04a2.836 2.836 0 1 0-5.672-.001 2.836 2.836 0 0 0 5.672 0ZM30.336 60.21a2.832 2.832 0 0 0-2.832-2.831 2.832 2.832 0 0 0-2.836 2.832 2.835 2.835 0 1 0 5.668 0ZM44.512 60.21a2.832 2.832 0 0 0-2.836-2.831 2.83 2.83 0 0 0-2.832 2.832 2.832 2.832 0 0 0 2.832 2.836 2.836 2.836 0 0 0 2.836-2.836ZM61.559 17.691a2.835 2.835 0 1 0-5.666.006 2.835 2.835 0 0 0 5.666-.006ZM54.473 31.867a2.835 2.835 0 1 0-2.836 2.832 2.835 2.835 0 0 0 2.836-2.832ZM61.559 46.04a2.832 2.832 0 0 0-2.832-2.837 2.836 2.836 0 1 0 0 5.672 2.832 2.832 0 0 0 2.832-2.836Zm0 0"/></svg>