<svg xmlns="http://www.w3.org/2000/svg" xmlns:xlink="http://www.w3.org/1999/xlink" width="147.963" height="54.483" viewBox="0 0 110.972 40.862" version="1.2"><defs><symbol overflow="visible" id="c"><path style="stroke:none" d="M4.563 0v-.438H3.266v-5.156c0-.187 0-.297-.266-.297-.11 0-.125 0-.203.063-.688.516-1.656.516-1.828.516H.797v.437h.172a4.16 4.16 0 0 0 1.203-.172v4.61H.89V0c.343-.031 1.421-.031 1.828-.031.422 0 1.484 0 1.844.031Zm0 0"/></symbol><symbol overflow="visible" id="d"><path style="stroke:none" d="M4.766-1.797c0-1.031-.72-1.875-2.079-1.875-.421 0-.796.063-1.187.297v-1.14c.313.062.453.062.64.062.25 0 .829 0 1.5-.453.204-.125.72-.563.72-.797 0-.031 0-.188-.141-.188 0 0-.047 0-.14.047a4.072 4.072 0 0 1-2.813 0c-.125-.047-.157-.047-.157-.047-.125 0-.125.125-.125.266v2.64c0 .157 0 .282.204.282.125 0 .14 0 .234-.125.375-.422.86-.485 1.219-.485.828 0 .828.782.828 1.485 0 .64 0 1.531-1.125 1.531-.485 0-.922-.234-1.14-.516.374-.046.577-.296.577-.625 0-.437-.343-.625-.625-.625-.281 0-.625.172-.625.641C.531-.64 1.25.11 2.391.11c1.53 0 2.375-.859 2.375-1.906Zm0 0"/></symbol><symbol overflow="visible" id="e"><path style="stroke:none" d="M4.766-2.016h-.454c-.015.125-.093.766-.234.829-.11.046-.781.046-.937.046H1.859c.485-.39 1.016-.812 1.47-1.125.75-.53 1.437-1.015 1.437-1.89 0-1.047-.954-1.735-2.25-1.735-1.11 0-1.985.532-1.985 1.36 0 .468.36.687.672.687a.65.65 0 0 0 .656-.672c0-.203-.078-.53-.468-.64.312-.25.718-.282.89-.282.735 0 1.203.547 1.203 1.282 0 .656-.375 1.234-.859 1.718l-2 1.985c-.094.094-.094.11-.094.281V0H4.5Zm0 0"/></symbol><symbol overflow="visible" id="f"><path style="stroke:none" d="M4.86-1.844c0-.484-.094-.968-.61-1.437-.469-.39-.938-.485-1.484-.485-.579 0-.922.407-1.063.688v-.156c0-1.125.219-1.485.313-1.641a1.47 1.47 0 0 1 1.218-.656c.172 0 .454.031.672.234-.36.078-.484.344-.484.563 0 .39.297.593.594.593a.571.571 0 0 0 .578-.609c0-.547-.375-1.14-1.375-1.14-1.297 0-2.781.827-2.781 3.046 0 .438.03 1.313.421 1.953.391.688 1.016 1 1.829 1 1.28 0 2.171-.734 2.171-1.953Zm-1.266-.015c0 .906 0 1.562-.922 1.562-.531 0-.766-.406-.828-.562-.125-.282-.125-1-.125-1.032 0-.921.39-1.515 1.015-1.515.86 0 .86.656.86 1.547Zm0 0"/></symbol><symbol overflow="visible" id="g"><path style="stroke:none" d="M4.86-1.61c0-.718-.532-1.327-1.548-1.546.907-.313 1.25-.938 1.25-1.485 0-.671-.671-1.25-2-1.25-1.109 0-1.828.594-1.828 1.329 0 .406.282.656.641.656.39 0 .656-.281.656-.656 0-.297-.172-.547-.531-.625.063-.063.438-.344 1.016-.344.78 0 .78.593.78.875 0 .5-.187 1.281-.968 1.328l-.422.031c-.14.016-.14.11-.14.172 0 .188.093.188.265.188h.422c1 0 1 .874 1 1.328 0 .406 0 1.312-.953 1.312-.11 0-.734-.016-1.14-.312.406-.11.5-.47.5-.672 0-.422-.298-.703-.72-.703-.374 0-.702.25-.702.703 0 .843.906 1.39 2.093 1.39 1.64 0 2.328-.906 2.328-1.718Zm0 0"/></symbol><symbol overflow="visible" id="h"><path style="stroke:none" d="M5.156-5.516v-.265H3.11c-.187 0-1.437-.047-1.546-.078-.172-.047-.188-.11-.204-.204H.906L.594-3.765h.453c.094-.75.25-.812.25-.812.125-.047.812-.047.984-.047h1.5c-.922 1.047-.922 1.063-1.11 1.344-.733 1.11-.89 2.14-.89 2.75 0 .625.485.64.578.64.235 0 .407-.14.454-.187.124-.188.124-.234.124-.75 0-1.156.11-2.235.688-2.89l1.438-1.626c.078-.093.093-.14.093-.172Zm0 0"/></symbol><symbol overflow="visible" id="i"><path style="stroke:none" d="M5 0v-.438h-.89v-.953H5v-.437h-.89v-3.766c0-.265-.032-.312-.298-.312-.218 0-.234.015-.328.14L.297-1.828v.437h2.656v.954H1.922V0C2.25-.031 3.14-.031 3.5-.031c.375 0 1.172 0 1.5.031ZM3.062-1.828H.813l2.25-2.797Zm0 0"/></symbol><symbol overflow="visible" id="k"><path style="stroke:none" d="M4.86-1.672c0-.953-.735-1.375-1.204-1.64.64-.313.906-.75.906-1.25 0-.86-.75-1.329-1.89-1.329-1.297 0-1.938.72-1.938 1.594 0 .484.266 1 .86 1.344-.485.25-1.157.61-1.157 1.515 0 1.11 1 1.547 2.204 1.547 1.453 0 2.218-.765 2.218-1.78Zm-1-2.89c0 .468-.282.796-.657 1l-1.375-.75c-.047-.016-.39-.204-.39-.516 0-.594.703-.703 1.187-.703.797 0 1.234.39 1.234.968Zm.187 3.375c0 .843-1.047.89-1.39.89-.798 0-1.407-.36-1.407-1.156 0-.406.172-.875.797-1.25l1.203.656c.484.266.797.438.797.86Zm0 0"/></symbol><clipPath id="a"><path d="M0 1h39v39.793H0Zm0 0"/></clipPath><clipPath id="b"><path d="M0 0h39v40.793H0Zm0 0"/></clipPath><clipPath id="j"><path d="M32 27h38v13.793H32Zm0 0"/></clipPath><clipPath id="l"><path d="M71 27h38v13.793H71Zm0 0"/></clipPath></defs><path style="fill:none;stroke-width:.3985;stroke-linecap:butt;stroke-linejoin:miter;stroke:gray;stroke-opacity:1;stroke-miterlimit:10" d="M0 0h28.348M0 28.348h28.348M0 0v28.348M28.348 0v28.348" transform="matrix(1 0 0 -1 1.285 35.149)"/><path style="fill:none;stroke-width:.59776;stroke-linecap:butt;stroke-linejoin:miter;stroke:#cc8714;stroke-opacity:1;stroke-miterlimit:10" d="M0 14.149s.852 3.113 1.18 3.988c.328.88.855 2.059 1.183 2.344.329.29.852.148 1.18-.273.328-.426.856-1.82 1.18-2.782.328-.957.855-3.035 1.183-4.132.329-1.098.852-2.997 1.18-3.778.328-.785.856-1.722 1.184-1.863.324-.145.851.266 1.18.82.328.555.85 2.145 1.18 3.168.327 1.024.855 3.137 1.183 4.203.328 1.07.851 2.832 1.18 3.508.327.672.85 1.352 1.179 1.352.328 0 .855-.68 1.184-1.352.328-.676.851-2.437 1.18-3.508.327-1.066.855-3.18 1.179-4.203.328-1.023.855-2.613 1.184-3.168.328-.554.851-.965 1.18-.82.327.14.855 1.078 1.183 1.863.324.781.851 2.68 1.18 3.778.328 1.097.851 3.175 1.18 4.132.327.961.855 2.356 1.183 2.782.328.421.851.562 1.18.273.328-.285.855-1.465 1.18-2.344.327-.875 1.183-3.988 1.183-3.988" transform="matrix(1 0 0 -1 1.285 35.149)"/><path style="fill:none;stroke-width:.59776;stroke-linecap:butt;stroke-linejoin:miter;stroke:#cc148c;stroke-opacity:1;stroke-miterlimit:10" d="M0 14.149s.852 3.184 1.18 4.117c.328.93.855 2.215 1.183 2.59.329.375.852.43 1.18.11.328-.317.856-1.516 1.18-2.41.328-.9.855-2.907 1.183-4.048.329-1.14.852-3.21 1.18-4.175.328-.961.856-2.336 1.184-2.762.324-.43.851-.594 1.18-.332.328.265.85 1.37 1.18 2.23.327.856.855 2.825 1.183 3.957.328 1.137.851 3.235 1.18 4.227.327.996.85 2.45 1.179 2.934.328.48.855.753 1.184.546.328-.207.851-1.214 1.18-2.035.327-.82.855-2.742 1.179-3.87.328-1.13.855-3.243 1.184-4.263.328-1.023.851-2.554 1.18-3.09.327-.535.855-.913 1.183-.765.324.148.851 1.062 1.18 1.84.328.777.851 2.644 1.18 3.765.327 1.118.855 3.25 1.183 4.293.328 1.047.851 2.653 1.18 3.239.328.586.855 1.074 1.18.98.327-.09 1.183-1.637 1.183-1.637" transform="matrix(1 0 0 -1 1.285 35.149)"/><path style="fill:none;stroke-width:.59776;stroke-linecap:butt;stroke-linejoin:miter;stroke:#2114cc;stroke-opacity:1;stroke-miterlimit:10" d="M0 14.149s.852 3.27 1.18 4.258c.328.984.855 2.39 1.183 2.855.329.469.852.723 1.18.516.328-.203.856-1.184 1.18-1.992.328-.813.855-2.7 1.183-3.852.329-1.148.852-3.324 1.18-4.433.328-1.11.856-2.86 1.184-3.563.324-.707.851-1.453 1.18-1.523.328-.067.85.433 1.18 1.027.327.59.855 2.176 1.183 3.23.328 1.055.851 3.204 1.18 4.375.327 1.172.85 3.176 1.179 4.082.328.907.855 2.102 1.184 2.442a.81.81 0 0 0 1.18 0c.327-.34.855-1.535 1.179-2.442.328-.906.855-2.91 1.184-4.082.328-1.171.851-3.32 1.18-4.375.327-1.054.855-2.64 1.183-3.23.324-.594.851-1.094 1.18-1.027.328.07.851.816 1.18 1.523.327.703.855 2.453 1.183 3.563.328 1.109.851 3.285 1.18 4.433.328 1.153.855 3.04 1.18 3.852.327.808 1.183 1.992 1.183 1.992" transform="matrix(1 0 0 -1 1.285 35.149)"/><path style="fill:none;stroke-width:.59776;stroke-linecap:butt;stroke-linejoin:miter;stroke:#14cca5;stroke-opacity:1;stroke-miterlimit:10" d="M0 14.149s.852 3.371 1.18 4.422c.328 1.047.855 2.57 1.183 3.137.329.566.852 1.027 1.18.945.328-.078.856-.82 1.18-1.524.328-.703.855-2.425 1.183-3.546.329-1.125.852-3.329 1.18-4.547.328-1.215.856-3.262 1.184-4.219.324-.957.851-2.254 1.18-2.676.328-.418.85-.59 1.18-.351.327.242.855 1.246 1.183 2.078.328.828.851 2.718 1.18 3.898.327 1.176.85 3.406 1.179 4.59.328 1.184.855 3.102 1.184 3.95.328.847.851 1.898 1.18 2.163.327.266.855.145 1.179-.25.328-.394.855-1.652 1.184-2.593.328-.938.851-2.97 1.18-4.18.327-1.211.855-3.422 1.183-4.555.324-1.137.851-2.887 1.18-3.613.328-.727.851-1.512 1.18-1.617.327-.11.855.304 1.183.843.328.543.851 2.032 1.18 3.067.328 1.035.855 3.168 1.18 4.394l1.183 4.446" transform="matrix(1 0 0 -1 1.285 35.149)"/><path style="fill:none;stroke-width:.59776;stroke-linecap:butt;stroke-linejoin:miter;stroke:#6ecc14;stroke-opacity:1;stroke-miterlimit:10" d="M0 14.149s.852 3.496 1.18 4.613c.328 1.121.855 2.774 1.183 3.446.329.671.852 1.347 1.18 1.402.328.055.856-.422 1.18-.996.328-.578.855-2.086 1.183-3.145.329-1.062.852-3.218 1.18-4.496.328-1.273.856-3.531 1.184-4.699.324-1.168.851-2.953 1.18-3.719.328-.765.85-1.625 1.18-1.793.327-.168.855.114 1.183.586.328.473.851 1.828 1.18 2.82.327.997.85 3.075 1.179 4.336.328 1.262.855 3.543 1.184 4.754.328 1.211.851 3.114 1.18 3.965.327.852.855 1.895 1.179 2.172.328.277.855.192 1.184-.176.328-.367.851-1.554 1.18-2.472.327-.918.855-2.91 1.183-4.149.324-1.234.851-3.523 1.18-4.765.328-1.243.851-3.25 1.18-4.18.327-.934.855-2.149 1.183-2.535.328-.383.851-.5 1.18-.242.328.257.855 1.273 1.18 2.109.327.836 1.183 3.926 1.183 3.926" transform="matrix(1 0 0 -1 1.285 35.149)"/><g clip-path="url(#a)"><path style="fill:none;stroke-width:.59776;stroke-linecap:butt;stroke-linejoin:miter;stroke:#cc3f14;stroke-opacity:1;stroke-miterlimit:10" d="M0 14.149s.852 3.652 1.18 4.852c.328 1.195.855 2.996 1.183 3.785.329.789.852 1.687 1.18 1.894.328.203.856.004 1.18-.418.328-.425.855-1.675 1.183-2.633.329-.96.852-2.992 1.18-4.277.328-1.281.856-3.648 1.184-4.976.324-1.325.851-3.508 1.18-4.586.328-1.082.85-2.598 1.18-3.192.327-.597.855-1.117 1.183-1.097.328.015.851.605 1.18 1.238.327.629.85 2.2 1.179 3.3.328 1.102.855 3.31 1.184 4.645.328 1.332.851 3.692 1.18 4.961.327 1.274.855 3.27 1.179 4.2.328.929.855 2.124 1.184 2.511.328.383.851.512 1.18.27.327-.243.855-1.204 1.183-2.024.324-.82.851-2.668 1.18-3.883.328-1.215.851-3.535 1.18-4.879.327-1.343.855-3.632 1.183-4.812.328-1.18.851-2.938 1.18-3.692.328-.757.855-1.593 1.18-1.757.327-.168 1.183.558 1.183.558" transform="matrix(1 0 0 -1 1.285 35.149)"/></g><g clip-path="url(#b)"><path style="fill:none;stroke-width:.59776;stroke-linecap:butt;stroke-linejoin:miter;stroke:#c414cc;stroke-opacity:1;stroke-miterlimit:10" d="M0 14.149s.852 3.852 1.18 5.145c.328 1.293.855 3.265 1.183 4.183.329.918.852 2.063 1.18 2.434.328.37.856.476 1.18.23.328-.25.855-1.199 1.183-2.02.329-.816.852-2.648 1.18-3.882.328-1.238.856-3.606 1.184-5.028.324-1.425.851-3.882 1.18-5.226.328-1.34.85-3.434 1.18-4.445.327-1.008.855-2.344 1.183-2.832.328-.489.851-.809 1.18-.688.327.125.85.871 1.179 1.586.328.715.855 2.39 1.184 3.559.328 1.171.851 3.464 1.18 4.87.327 1.407.855 3.887 1.179 5.266.328 1.38.855 3.578 1.184 4.672.328 1.094.851 2.606 1.18 3.211.327.606.855 1.14 1.183 1.14.324 0 .851-.538 1.18-1.14.328-.601.851-2.113 1.18-3.207.327-1.094.855-3.297 1.183-4.676.328-1.379.851-3.859 1.18-5.265.328-1.407.855-3.7 1.18-4.867.327-1.172 1.183-3.563 1.183-3.563" transform="matrix(1 0 0 -1 1.285 35.149)"/><path style="fill:none;stroke-width:.59776;stroke-linecap:butt;stroke-linejoin:miter;stroke:#1450cc;stroke-opacity:1;stroke-miterlimit:10" d="M0 14.149s.852 4.117 1.18 5.531c.328 1.414.855 3.59 1.183 4.657.329 1.07.852 2.496 1.18 3.05.328.555.856 1.004 1.18.961.328-.047.855-.644 1.183-1.281.329-.64.852-2.188 1.18-3.32.328-1.133.856-3.391 1.184-4.836.324-1.446.851-4.055 1.18-5.586.328-1.531.85-4.078 1.18-5.457.327-1.375.855-3.461 1.183-4.465.328-1.004.851-2.297 1.18-2.77.327-.468.85-.765 1.179-.632.328.132.855.878 1.184 1.597.328.719.851 2.39 1.18 3.582.327 1.188.855 3.524 1.179 4.996.328 1.473.855 4.098 1.184 5.621.328 1.524.851 4.028 1.18 5.364.327 1.336.855 3.324 1.183 4.258.324.933.851 2.09 1.18 2.476.328.387.851.531 1.18.309.327-.223.855-1.117 1.183-1.91.328-.797.851-2.586 1.18-3.829.328-1.246.855-3.644 1.18-5.14.327-1.496 1.183-5.64 1.183-5.64" transform="matrix(1 0 0 -1 1.285 35.149)"/></g><use xlink:href="#c" x="66.323" y="6.807" style="fill:#000;fill-opacity:1"/><path style="fill:none;stroke-width:.59776;stroke-linecap:butt;stroke-linejoin:miter;stroke:#1450cc;stroke-opacity:1;stroke-miterlimit:10" d="M-19.924.001s2.906 1.512 4.98 1.324c2.075-.183 7.891-2.468 9.961-2.652C-2.909-1.51.002.001.002.001" transform="matrix(1 0 0 -1 61.346 4.595)"/><use xlink:href="#d" x="104.802" y="6.807" style="fill:#000;fill-opacity:1"/><path style="fill:none;stroke-width:.59776;stroke-linecap:butt;stroke-linejoin:miter;stroke:#14cca5;stroke-opacity:1;stroke-miterlimit:10" d="M-19.927.001s2.91 1.512 4.98 1.324c2.075-.183 7.892-2.468 9.966-2.652C-2.907-1.51-.001.001-.001.001" transform="matrix(1 0 0 -1 99.825 4.595)"/><use xlink:href="#e" x="66.323" y="17.765" style="fill:#000;fill-opacity:1"/><path style="fill:none;stroke-width:.59776;stroke-linecap:butt;stroke-linejoin:miter;stroke:#c414cc;stroke-opacity:1;stroke-miterlimit:10" d="M-19.924 0s2.906 1.511 4.98 1.327c2.075-.183 7.891-2.468 9.961-2.656C-2.909-1.512.002 0 .002 0" transform="matrix(1 0 0 -1 61.346 15.554)"/><use xlink:href="#f" x="104.802" y="17.765" style="fill:#000;fill-opacity:1"/><path style="fill:none;stroke-width:.59776;stroke-linecap:butt;stroke-linejoin:miter;stroke:#2114cc;stroke-opacity:1;stroke-miterlimit:10" d="M-19.927 0s2.91 1.511 4.98 1.327c2.075-.183 7.892-2.468 9.966-2.656C-2.907-1.512-.001 0-.001 0" transform="matrix(1 0 0 -1 99.825 15.554)"/><use xlink:href="#g" x="66.323" y="28.724" style="fill:#000;fill-opacity:1"/><path style="fill:none;stroke-width:.59776;stroke-linecap:butt;stroke-linejoin:miter;stroke:#cc3f14;stroke-opacity:1;stroke-miterlimit:10" d="M-19.924.001s2.906 1.512 4.98 1.325c2.075-.184 7.891-2.47 9.961-2.653C-2.909-1.51.002.001.002.001" transform="matrix(1 0 0 -1 61.346 26.513)"/><use xlink:href="#h" x="104.802" y="28.724" style="fill:#000;fill-opacity:1"/><path style="fill:none;stroke-width:.59776;stroke-linecap:butt;stroke-linejoin:miter;stroke:#cc148c;stroke-opacity:1;stroke-miterlimit:10" d="M-19.927.001s2.91 1.512 4.98 1.325c2.075-.184 7.892-2.47 9.966-2.653C-2.907-1.51-.001.001-.001.001" transform="matrix(1 0 0 -1 99.825 26.513)"/><use xlink:href="#i" x="66.323" y="39.683" style="fill:#000;fill-opacity:1"/><g clip-path="url(#j)"><path style="fill:none;stroke-width:.59776;stroke-linecap:butt;stroke-linejoin:miter;stroke:#6ecc14;stroke-opacity:1;stroke-miterlimit:10" d="M-19.924 0s2.906 1.511 4.98 1.327c2.075-.183 7.891-2.468 9.961-2.656C-2.909-1.512.002 0 .002 0" transform="matrix(1 0 0 -1 61.346 37.472)"/></g><use xlink:href="#k" x="104.802" y="39.683" style="fill:#000;fill-opacity:1"/><g clip-path="url(#l)"><path style="fill:none;stroke-width:.59776;stroke-linecap:butt;stroke-linejoin:miter;stroke:#cc8714;stroke-opacity:1;stroke-miterlimit:10" d="M-19.927 0s2.91 1.511 4.98 1.327c2.075-.183 7.892-2.468 9.966-2.656C-2.907-1.512-.001 0-.001 0" transform="matrix(1 0 0 -1 99.825 37.472)"/></g></svg>