<svg xmlns="http://www.w3.org/2000/svg" xmlns:xlink="http://www.w3.org/1999/xlink" width="53.883" height="44.907" viewBox="0 0 40.412 33.68" version="1.2"><defs><symbol overflow="visible" id="b"><path style="stroke:none" d="M3.813-1.234v-.532h-.47v.516c0 .672-.327.906-.609.906-.578 0-.578-.64-.578-.86v-2.75h1.469v-.468H2.156v-1.906h-.469c0 1-.484 1.984-1.484 2.016v.359h.828v2.734c0 1.063.86 1.282 1.578 1.282.75 0 1.204-.579 1.204-1.297Zm0 0"/></symbol><symbol overflow="visible" id="c"><path style="stroke:none" d="M4.922-1.172c0-.172-.188-.172-.234-.172-.172 0-.188.047-.25.203-.204.485-.782.797-1.422.797-1.407 0-1.422-1.328-1.422-1.828h3.015c.22 0 .313 0 .313-.265 0-.313-.063-1.047-.563-1.547-.359-.36-.89-.532-1.578-.532C1.187-4.516.312-3.484.312-2.25c0 1.344 1 2.313 2.61 2.313 1.578 0 2-1.063 2-1.235ZM3.984-2.5h-2.39c.015-.39.031-.813.234-1.14.266-.391.672-.516.953-.516 1.172 0 1.188 1.312 1.203 1.656Zm0 0"/></symbol><symbol overflow="visible" id="d"><path style="stroke:none" d="M5.828 0v-.469h-.703L3.453-2.453 4.61-3.75c.141-.14.204-.203 1.016-.203v-.469l-.906.031-1.032-.03v.468c.141 0 .266.015.376.078-.032.063-.032.094-.079.125l-.828.938-.984-1.141h.406v-.469L1.36-4.39.266-4.42v.468h.718l1.547 1.828L1.22-.656c-.157.187-.516.187-1 .187V0l.922-.031L2.156 0v-.469c-.172 0-.36-.047-.36-.11 0 0 0-.015.063-.093l.97-1.094L3.921-.469h-.39V0l1.202-.031Zm0 0"/></symbol><clipPath id="a"><path d="M4 0h36.117v33.52H4Zm0 0"/></clipPath></defs><g clip-path="url(#a)"><path style="fill:none;stroke-width:.3985;stroke-linecap:butt;stroke-linejoin:miter;stroke:#000;stroke-opacity:1;stroke-miterlimit:10" d="m28.345 28.346 28.348 28.348" transform="matrix(1 0 0 -1 -17.728 57.678)"/></g><g style="fill:#000;fill-opacity:1"><use xlink:href="#b" x=".517" y="32.465"/><use xlink:href="#c" x="4.97" y="32.465"/><use xlink:href="#d" x="10.221" y="32.465"/><use xlink:href="#b" x="16.268" y="32.465"/></g></svg>