<svg xmlns="http://www.w3.org/2000/svg" width="138.756" height="75.71pt" viewBox="0 0 104.067 75.71" version="1.2"><path style="fill:none;stroke-width:.79701;stroke-linecap:butt;stroke-linejoin:miter;stroke:#000;stroke-opacity:1;stroke-miterlimit:10" d="M-8.504 0H93.543M-8.504 28.346H93.543M-8.504 56.695H93.543M0-8.505V65.2M28.348-8.505V65.2M56.692-8.505V65.2M85.039-8.505V65.2" transform="matrix(1 0 0 -1 9.046 66.054)"/><path style="fill:none;stroke-width:.3985;stroke-linecap:butt;stroke-linejoin:miter;stroke:#000;stroke-opacity:1;stroke-miterlimit:10" d="M-4.254-2.833h93.547M-4.254 0h93.547M-4.254 2.835h93.547M-4.254 5.671h93.547M-4.254 8.503h93.547M-4.254 11.34h93.547m-93.547 2.836h93.547m-93.547 2.832h93.547m-93.547 2.836h93.547M-4.254 22.68h93.547m-93.547 2.832h93.547m-93.547 2.836h93.547m-93.547 2.836h93.547m-93.547 2.832h93.547M-4.254 36.85h93.547m-93.547 2.836h93.547m-93.547 2.832h93.547m-93.547 2.836h93.547M-4.254 48.19h93.547m-93.547 2.832h93.547m-93.547 2.836h93.547m-93.547 2.836h93.547m-93.547 2.832h93.547M-2.836-4.251v65.196M0-4.251v65.196M2.836-4.251v65.196M5.668-4.251v65.196M8.504-4.251v65.196M11.34-4.251v65.196m2.832-65.196v65.196m2.836-65.196v65.196m2.836-65.196v65.196m2.832-65.196v65.196m2.836-65.196v65.196m2.836-65.196v65.196M31.18-4.251v65.196m2.836-65.196v65.196m2.836-65.196v65.196m2.832-65.196v65.196M42.52-4.251v65.196m2.836-65.196v65.196m2.832-65.196v65.196m2.836-65.196v65.196M53.86-4.251v65.196m2.832-65.196v65.196m2.836-65.196v65.196m2.836-65.196v65.196m2.832-65.196v65.196m2.836-65.196v65.196m2.836-65.196v65.196M73.7-4.251v65.196m2.836-65.196v65.196M79.37-4.251v65.196m2.833-65.196v65.196m2.835-65.196v65.196m2.836-65.196v65.196" transform="matrix(1 0 0 -1 9.046 66.054)"/></svg>