<svg xmlns="http://www.w3.org/2000/svg" xmlns:xlink="http://www.w3.org/1999/xlink" width="118.155" height="59.883" viewBox="0 0 88.616 44.912" version="1.2"><defs><clipPath id="a"><path d="M0 0h51v44.867H0Zm0 0"/></clipPath><clipPath id="c"><path d="M45 0h43.426v35H45Zm0 0"/></clipPath><symbol overflow="visible" id="b"><path style="stroke:none" d="M8.25 0v-.469h-.969L4.72-6.703c-.11-.25-.219-.25-.39-.25-.282 0-.329.078-.391.25l-2.47 6c-.062.156-.093.234-.843.234H.406V0l1.172-.031c.39 0 .938 0 1.313.031v-.469S2-.469 2-.594l.047-.125.5-1.203h2.672l.593 1.453H4.86V0c.391-.031 1.329-.031 1.766-.031.39 0 1.266 0 1.625.031ZM5.016-2.39H2.734l1.141-2.766Zm0 0"/></symbol><symbol overflow="visible" id="d"><path style="stroke:none" d="M7.5-1.86c0-.952-.844-1.624-2.031-1.702 1.078-.204 1.718-.797 1.718-1.563 0-.922-.875-1.719-2.468-1.719H.39v.469h1.078v5.906H.39V0h4.625C6.672 0 7.5-.875 7.5-1.86ZM5.766-5.124c0 .766-.47 1.39-1.438 1.39H2.766v-2.64h1.812c1.016 0 1.188.797 1.188 1.25Zm.28 3.266c0 .109 0 1.39-1.437 1.39H2.766v-2.906h1.937c.203 0 .672 0 1.016.422.328.422.328.984.328 1.094Zm0 0"/></symbol></defs><g clip-path="url(#a)"><path style="fill:none;stroke-width:.3985;stroke-linecap:butt;stroke-linejoin:miter;stroke:#000;stroke-opacity:1;stroke-miterlimit:10" d="M7.65 6.798V1.77h9.055v3.543L22.022.001l-5.317-5.316v3.543H7.651v-5.024H1.77v-9.059h3.544L-.002-21.17l-5.312 5.316h3.543v9.06h-5.88v5.022h-9.054v-3.542L-22.02 0l5.316 5.312V1.77h9.055v5.028h5.879v9.058h-3.543l5.312 5.313 5.317-5.313H1.772V6.798Zm0 0" transform="matrix(1 0 0 -1 23.119 22.415)"/></g><use xlink:href="#b" x="18.79" y="25.892" style="fill:#000;fill-opacity:1"/><g clip-path="url(#c)"><path style="fill:none;stroke-width:.3985;stroke-linecap:butt;stroke-linejoin:miter;stroke:#000;stroke-opacity:1;stroke-miterlimit:10" d="M64.088 6.74V-6.738H49.299v4.965H33.154v-3.543L27.838 0l5.316 5.312V1.77H49.3v4.97h5.621v9.054h-3.543l5.316 5.316 5.317-5.316h-3.543V6.739Zm0 0" transform="matrix(1 0 0 -1 23.119 22.415)"/></g><use xlink:href="#d" x="75.737" y="25.832" style="fill:#000;fill-opacity:1"/></svg>