<svg xmlns="http://www.w3.org/2000/svg" width="106.629" height="106.635" viewBox="0 0 79.972 79.976" version="1.2"><path style="stroke:none;fill-rule:nonzero;fill:#fff200;fill-opacity:1" d="M.996 78.96v-7.089h7.086v7.09ZM.996 71.871v-7.086h7.086v7.086Zm0 0"/><path style="stroke:none;fill-rule:nonzero;fill:#ffe500;fill-opacity:1" d="M.996 64.785V57.7h7.086v7.086Zm0 0"/><path style="stroke:none;fill-rule:nonzero;fill:#ffd900;fill-opacity:1" d="M.996 57.7v-7.087h7.086V57.7Zm0 0"/><path style="stroke:none;fill-rule:nonzero;fill:#fc0;fill-opacity:1" d="M.996 50.613v-7.086h7.086v7.086Zm0 0"/><path style="stroke:none;fill-rule:nonzero;fill:#ffbf00;fill-opacity:1" d="M.996 43.527v-7.09h7.086v7.09Zm0 0"/><path style="stroke:none;fill-rule:nonzero;fill:#ffb200;fill-opacity:1" d="M.996 36.438v-7.086h7.086v7.085Zm0 0"/><path style="stroke:none;fill-rule:nonzero;fill:#ffa600;fill-opacity:1" d="M.996 29.352v-7.086h7.086v7.086Zm0 0"/><path style="stroke:none;fill-rule:nonzero;fill:#f90;fill-opacity:1" d="M.996 22.266V15.18h7.086v7.086Zm0 0"/><path style="stroke:none;fill-rule:nonzero;fill:#ff8c00;fill-opacity:1" d="M.996 15.18V8.094h7.086v7.086Zm0 0"/><path style="stroke:none;fill-rule:nonzero;fill:#ff8000;fill-opacity:1" d="M.996 8.094v-7.09h7.086v7.09Zm0 0"/><path style="stroke:none;fill-rule:nonzero;fill:#fff200;fill-opacity:1" d="M8.082 78.96v-7.089h7.086v7.09Zm0 0"/><path style="stroke:none;fill-rule:nonzero;fill:#ffe500;fill-opacity:1" d="M8.082 71.871v-7.086h7.086v7.086Zm0 0"/><path style="stroke:none;fill-rule:nonzero;fill:#ffd900;fill-opacity:1" d="M8.082 64.785V57.7h7.086v7.086Zm0 0"/><path style="stroke:none;fill-rule:nonzero;fill:#fc0;fill-opacity:1" d="M8.082 57.7v-7.087h7.086V57.7Zm0 0"/><path style="stroke:none;fill-rule:nonzero;fill:#ffbf00;fill-opacity:1" d="M8.082 50.613v-7.086h7.086v7.086Zm0 0"/><path style="stroke:none;fill-rule:nonzero;fill:#ffb200;fill-opacity:1" d="M8.082 43.527v-7.09h7.086v7.09Zm0 0"/><path style="stroke:none;fill-rule:nonzero;fill:#ffa600;fill-opacity:1" d="M8.082 36.438v-7.086h7.086v7.085Zm0 0"/><path style="stroke:none;fill-rule:nonzero;fill:#f90;fill-opacity:1" d="M8.082 29.352v-7.086h7.086v7.086Zm0 0"/><path style="stroke:none;fill-rule:nonzero;fill:#ff8c00;fill-opacity:1" d="M8.082 22.266V15.18h7.086v7.086Zm0 0"/><path style="stroke:none;fill-rule:nonzero;fill:#ff8000;fill-opacity:1" d="M8.082 15.18V8.094h7.086v7.086Zm0 0"/><path style="stroke:none;fill-rule:nonzero;fill:#ff7300;fill-opacity:1" d="M8.082 8.094v-7.09h7.086v7.09Zm0 0"/><path style="stroke:none;fill-rule:nonzero;fill:#ffe500;fill-opacity:1" d="M15.168 78.96v-7.089h7.086v7.09Zm0 0"/><path style="stroke:none;fill-rule:nonzero;fill:#ffd900;fill-opacity:1" d="M15.168 71.871v-7.086h7.086v7.086Zm0 0"/><path style="stroke:none;fill-rule:nonzero;fill:#fc0;fill-opacity:1" d="M15.168 64.785V57.7h7.086v7.086Zm0 0"/><path style="stroke:none;fill-rule:nonzero;fill:#ffbf00;fill-opacity:1" d="M15.168 57.7v-7.087h7.086V57.7Zm0 0"/><path style="stroke:none;fill-rule:nonzero;fill:#ffb200;fill-opacity:1" d="M15.168 50.613v-7.086h7.086v7.086Zm0 0"/><path style="stroke:none;fill-rule:nonzero;fill:#ffa600;fill-opacity:1" d="M15.168 43.527v-7.09h7.086v7.09Zm0 0"/><path style="stroke:none;fill-rule:nonzero;fill:#f90;fill-opacity:1" d="M15.168 36.438v-7.086h7.086v7.085Zm0 0"/><path style="stroke:none;fill-rule:nonzero;fill:#ff8c00;fill-opacity:1" d="M15.168 29.352v-7.086h7.086v7.086Zm0 0"/><path style="stroke:none;fill-rule:nonzero;fill:#ff8000;fill-opacity:1" d="M15.168 22.266V15.18h7.086v7.086Zm0 0"/><path style="stroke:none;fill-rule:nonzero;fill:#ff7300;fill-opacity:1" d="M15.168 15.18V8.094h7.086v7.086Zm0 0"/><path style="stroke:none;fill-rule:nonzero;fill:#f60;fill-opacity:1" d="M15.168 8.094v-7.09h7.086v7.09Zm0 0"/><path style="stroke:none;fill-rule:nonzero;fill:#ffd900;fill-opacity:1" d="M22.254 78.96v-7.089h7.086v7.09Zm0 0"/><path style="stroke:none;fill-rule:nonzero;fill:#fc0;fill-opacity:1" d="M22.254 71.871v-7.086h7.086v7.086Zm0 0"/><path style="stroke:none;fill-rule:nonzero;fill:#ffbf00;fill-opacity:1" d="M22.254 64.785V57.7h7.086v7.086Zm0 0"/><path style="stroke:none;fill-rule:nonzero;fill:#ffb200;fill-opacity:1" d="M22.254 57.7v-7.087h7.086V57.7Zm0 0"/><path style="stroke:none;fill-rule:nonzero;fill:#ffa600;fill-opacity:1" d="M22.254 50.613v-7.086h7.086v7.086Zm0 0"/><path style="stroke:none;fill-rule:nonzero;fill:#f90;fill-opacity:1" d="M22.254 43.527v-7.09h7.086v7.09Zm0 0"/><path style="stroke:none;fill-rule:nonzero;fill:#ff8c00;fill-opacity:1" d="M22.254 36.438v-7.086h7.086v7.085Zm0 0"/><path style="stroke:none;fill-rule:nonzero;fill:#ff8000;fill-opacity:1" d="M22.254 29.352v-7.086h7.086v7.086Zm0 0"/><path style="stroke:none;fill-rule:nonzero;fill:#ff7300;fill-opacity:1" d="M22.254 22.266V15.18h7.086v7.086Zm0 0"/><path style="stroke:none;fill-rule:nonzero;fill:#f60;fill-opacity:1" d="M22.254 15.18V8.094h7.086v7.086Zm0 0"/><path style="stroke:none;fill-rule:nonzero;fill:#ff5900;fill-opacity:1" d="M22.254 8.094v-7.09h7.086v7.09Zm0 0"/><path style="stroke:none;fill-rule:nonzero;fill:#fc0;fill-opacity:1" d="M29.34 78.96v-7.089h7.09v7.09Zm0 0"/><path style="stroke:none;fill-rule:nonzero;fill:#ffbf00;fill-opacity:1" d="M29.34 71.871v-7.086h7.09v7.086Zm0 0"/><path style="stroke:none;fill-rule:nonzero;fill:#ffb200;fill-opacity:1" d="M29.34 64.785V57.7h7.09v7.086Zm0 0"/><path style="stroke:none;fill-rule:nonzero;fill:#ffa600;fill-opacity:1" d="M29.34 57.7v-7.087h7.09V57.7Zm0 0"/><path style="stroke:none;fill-rule:nonzero;fill:#f90;fill-opacity:1" d="M29.34 50.613v-7.086h7.09v7.086Zm0 0"/><path style="stroke:none;fill-rule:nonzero;fill:#ff8c00;fill-opacity:1" d="M29.34 43.527v-7.09h7.09v7.09Zm0 0"/><path style="stroke:none;fill-rule:nonzero;fill:#ff8000;fill-opacity:1" d="M29.34 36.438v-7.086h7.09v7.085Zm0 0"/><path style="stroke:none;fill-rule:nonzero;fill:#ff7300;fill-opacity:1" d="M29.34 29.352v-7.086h7.09v7.086Zm0 0"/><path style="stroke:none;fill-rule:nonzero;fill:#f60;fill-opacity:1" d="M29.34 22.266V15.18h7.09v7.086Zm0 0"/><path style="stroke:none;fill-rule:nonzero;fill:#ff5900;fill-opacity:1" d="M29.34 15.18V8.094h7.09v7.086Zm0 0"/><path style="stroke:none;fill-rule:nonzero;fill:#ff4c00;fill-opacity:1" d="M29.34 8.094v-7.09h7.09v7.09Zm0 0"/><path style="stroke:none;fill-rule:nonzero;fill:#ffbf00;fill-opacity:1" d="M36.43 78.96v-7.089h7.086v7.09Zm0 0"/><path style="stroke:none;fill-rule:nonzero;fill:#ffb200;fill-opacity:1" d="M36.43 71.871v-7.086h7.086v7.086Zm0 0"/><path style="stroke:none;fill-rule:nonzero;fill:#ffa600;fill-opacity:1" d="M36.43 64.785V57.7h7.086v7.086Zm0 0"/><path style="stroke:none;fill-rule:nonzero;fill:#f90;fill-opacity:1" d="M36.43 57.7v-7.087h7.086V57.7Zm0 0"/><path style="stroke:none;fill-rule:nonzero;fill:#ff8c00;fill-opacity:1" d="M36.43 50.613v-7.086h7.086v7.086Zm0 0"/><path style="stroke:none;fill-rule:nonzero;fill:#ff8000;fill-opacity:1" d="M36.43 43.527v-7.09h7.086v7.09Zm0 0"/><path style="stroke:none;fill-rule:nonzero;fill:#ff7300;fill-opacity:1" d="M36.43 36.438v-7.086h7.086v7.085Zm0 0"/><path style="stroke:none;fill-rule:nonzero;fill:#f60;fill-opacity:1" d="M36.43 29.352v-7.086h7.086v7.086Zm0 0"/><path style="stroke:none;fill-rule:nonzero;fill:#ff5900;fill-opacity:1" d="M36.43 22.266V15.18h7.086v7.086Zm0 0"/><path style="stroke:none;fill-rule:nonzero;fill:#ff4c00;fill-opacity:1" d="M36.43 15.18V8.094h7.086v7.086Zm0 0"/><path style="stroke:none;fill-rule:nonzero;fill:#ff4000;fill-opacity:1" d="M36.43 8.094v-7.09h7.086v7.09Zm0 0"/><path style="stroke:none;fill-rule:nonzero;fill:#ffb200;fill-opacity:1" d="M43.516 78.96v-7.089h7.086v7.09Zm0 0"/><path style="stroke:none;fill-rule:nonzero;fill:#ffa600;fill-opacity:1" d="M43.516 71.871v-7.086h7.086v7.086Zm0 0"/><path style="stroke:none;fill-rule:nonzero;fill:#f90;fill-opacity:1" d="M43.516 64.785V57.7h7.086v7.086Zm0 0"/><path style="stroke:none;fill-rule:nonzero;fill:#ff8c00;fill-opacity:1" d="M43.516 57.7v-7.087h7.086V57.7Zm0 0"/><path style="stroke:none;fill-rule:nonzero;fill:#ff8000;fill-opacity:1" d="M43.516 50.613v-7.086h7.086v7.086Zm0 0"/><path style="stroke:none;fill-rule:nonzero;fill:#ff7300;fill-opacity:1" d="M43.516 43.527v-7.09h7.086v7.09Zm0 0"/><path style="stroke:none;fill-rule:nonzero;fill:#f60;fill-opacity:1" d="M43.516 36.438v-7.086h7.086v7.085Zm0 0"/><path style="stroke:none;fill-rule:nonzero;fill:#ff5900;fill-opacity:1" d="M43.516 29.352v-7.086h7.086v7.086Zm0 0"/><path style="stroke:none;fill-rule:nonzero;fill:#ff4c00;fill-opacity:1" d="M43.516 22.266V15.18h7.086v7.086Zm0 0"/><path style="stroke:none;fill-rule:nonzero;fill:#ff4000;fill-opacity:1" d="M43.516 15.18V8.094h7.086v7.086Zm0 0"/><path style="stroke:none;fill-rule:nonzero;fill:#f30;fill-opacity:1" d="M43.516 8.094v-7.09h7.086v7.09Zm0 0"/><path style="stroke:none;fill-rule:nonzero;fill:#ffa600;fill-opacity:1" d="M50.602 78.96v-7.089h7.086v7.09Zm0 0"/><path style="stroke:none;fill-rule:nonzero;fill:#f90;fill-opacity:1" d="M50.602 71.871v-7.086h7.086v7.086Zm0 0"/><path style="stroke:none;fill-rule:nonzero;fill:#ff8c00;fill-opacity:1" d="M50.602 64.785V57.7h7.086v7.086Zm0 0"/><path style="stroke:none;fill-rule:nonzero;fill:#ff8000;fill-opacity:1" d="M50.602 57.7v-7.087h7.086V57.7Zm0 0"/><path style="stroke:none;fill-rule:nonzero;fill:#ff7300;fill-opacity:1" d="M50.602 50.613v-7.086h7.086v7.086Zm0 0"/><path style="stroke:none;fill-rule:nonzero;fill:#f60;fill-opacity:1" d="M50.602 43.527v-7.09h7.086v7.09Zm0 0"/><path style="stroke:none;fill-rule:nonzero;fill:#ff5900;fill-opacity:1" d="M50.602 36.438v-7.086h7.086v7.085Zm0 0"/><path style="stroke:none;fill-rule:nonzero;fill:#ff4c00;fill-opacity:1" d="M50.602 29.352v-7.086h7.086v7.086Zm0 0"/><path style="stroke:none;fill-rule:nonzero;fill:#ff4000;fill-opacity:1" d="M50.602 22.266V15.18h7.086v7.086Zm0 0"/><path style="stroke:none;fill-rule:nonzero;fill:#f30;fill-opacity:1" d="M50.602 15.18V8.094h7.086v7.086Zm0 0"/><path style="stroke:none;fill-rule:nonzero;fill:#ff2600;fill-opacity:1" d="M50.602 8.094v-7.09h7.086v7.09Zm0 0"/><path style="stroke:none;fill-rule:nonzero;fill:#f90;fill-opacity:1" d="M57.688 78.96v-7.089h7.085v7.09Zm0 0"/><path style="stroke:none;fill-rule:nonzero;fill:#ff8c00;fill-opacity:1" d="M57.688 71.871v-7.086h7.085v7.086Zm0 0"/><path style="stroke:none;fill-rule:nonzero;fill:#ff8000;fill-opacity:1" d="M57.688 64.785V57.7h7.085v7.086Zm0 0"/><path style="stroke:none;fill-rule:nonzero;fill:#ff7300;fill-opacity:1" d="M57.688 57.7v-7.087h7.085V57.7Zm0 0"/><path style="stroke:none;fill-rule:nonzero;fill:#f60;fill-opacity:1" d="M57.688 50.613v-7.086h7.085v7.086Zm0 0"/><path style="stroke:none;fill-rule:nonzero;fill:#ff5900;fill-opacity:1" d="M57.688 43.527v-7.09h7.085v7.09Zm0 0"/><path style="stroke:none;fill-rule:nonzero;fill:#ff4c00;fill-opacity:1" d="M57.688 36.438v-7.086h7.085v7.085Zm0 0"/><path style="stroke:none;fill-rule:nonzero;fill:#ff4000;fill-opacity:1" d="M57.688 29.352v-7.086h7.085v7.086Zm0 0"/><path style="stroke:none;fill-rule:nonzero;fill:#f30;fill-opacity:1" d="M57.688 22.266V15.18h7.085v7.086Zm0 0"/><path style="stroke:none;fill-rule:nonzero;fill:#ff2600;fill-opacity:1" d="M57.688 15.18V8.094h7.085v7.086Zm0 0"/><path style="stroke:none;fill-rule:nonzero;fill:#ff1900;fill-opacity:1" d="M57.688 8.094v-7.09h7.085v7.09Zm0 0"/><path style="stroke:none;fill-rule:nonzero;fill:#ff8c00;fill-opacity:1" d="M64.773 78.96v-7.089h7.09v7.09Zm0 0"/><path style="stroke:none;fill-rule:nonzero;fill:#ff8000;fill-opacity:1" d="M64.773 71.871v-7.086h7.09v7.086Zm0 0"/><path style="stroke:none;fill-rule:nonzero;fill:#ff7300;fill-opacity:1" d="M64.773 64.785V57.7h7.09v7.086Zm0 0"/><path style="stroke:none;fill-rule:nonzero;fill:#f60;fill-opacity:1" d="M64.773 57.7v-7.087h7.09V57.7Zm0 0"/><path style="stroke:none;fill-rule:nonzero;fill:#ff5900;fill-opacity:1" d="M64.773 50.613v-7.086h7.09v7.086Zm0 0"/><path style="stroke:none;fill-rule:nonzero;fill:#ff4c00;fill-opacity:1" d="M64.773 43.527v-7.09h7.09v7.09Zm0 0"/><path style="stroke:none;fill-rule:nonzero;fill:#ff4000;fill-opacity:1" d="M64.773 36.438v-7.086h7.09v7.085Zm0 0"/><path style="stroke:none;fill-rule:nonzero;fill:#f30;fill-opacity:1" d="M64.773 29.352v-7.086h7.09v7.086Zm0 0"/><path style="stroke:none;fill-rule:nonzero;fill:#ff2600;fill-opacity:1" d="M64.773 22.266V15.18h7.09v7.086Zm0 0"/><path style="stroke:none;fill-rule:nonzero;fill:#ff1900;fill-opacity:1" d="M64.773 15.18V8.094h7.09v7.086Zm0 0"/><path style="stroke:none;fill-rule:nonzero;fill:#ff0d00;fill-opacity:1" d="M64.773 8.094v-7.09h7.09v7.09Zm0 0"/><path style="stroke:none;fill-rule:nonzero;fill:#ff8000;fill-opacity:1" d="M71.863 78.96v-7.089h7.086v7.09Zm0 0"/><path style="stroke:none;fill-rule:nonzero;fill:#ff7300;fill-opacity:1" d="M71.863 71.871v-7.086h7.086v7.086Zm0 0"/><path style="stroke:none;fill-rule:nonzero;fill:#f60;fill-opacity:1" d="M71.863 64.785V57.7h7.086v7.086Zm0 0"/><path style="stroke:none;fill-rule:nonzero;fill:#ff5900;fill-opacity:1" d="M71.863 57.7v-7.087h7.086V57.7Zm0 0"/><path style="stroke:none;fill-rule:nonzero;fill:#ff4c00;fill-opacity:1" d="M71.863 50.613v-7.086h7.086v7.086Zm0 0"/><path style="stroke:none;fill-rule:nonzero;fill:#ff4000;fill-opacity:1" d="M71.863 43.527v-7.09h7.086v7.09Zm0 0"/><path style="stroke:none;fill-rule:nonzero;fill:#f30;fill-opacity:1" d="M71.863 36.438v-7.086h7.086v7.085Zm0 0"/><path style="stroke:none;fill-rule:nonzero;fill:#ff2600;fill-opacity:1" d="M71.863 29.352v-7.086h7.086v7.086Zm0 0"/><path style="stroke:none;fill-rule:nonzero;fill:#ff1900;fill-opacity:1" d="M71.863 22.266V15.18h7.086v7.086Zm0 0"/><path style="stroke:none;fill-rule:nonzero;fill:#ff0d00;fill-opacity:1" d="M71.863 15.18V8.094h7.086v7.086Zm0 0"/><path style="stroke:none;fill-rule:nonzero;fill:red;fill-opacity:1" d="M71.863 8.094v-7.09h7.086v7.09Zm0 0"/></svg>