<svg xmlns="http://www.w3.org/2000/svg" width="37.237" height="48.651" viewBox="0 0 27.928 36.488" version="1.2"><path style="fill:none;stroke-width:.3985;stroke-linecap:butt;stroke-linejoin:miter;stroke:#000;stroke-opacity:1;stroke-dasharray:3.9851,1.99255;stroke-dashoffset:3.9851;stroke-miterlimit:10" d="M.3 29.89h25.305" transform="matrix(1 0 0 -1 .973 32.941)"/><path style="fill:none;stroke-width:.3985;stroke-linecap:butt;stroke-linejoin:miter;stroke:#000;stroke-opacity:1;stroke-miterlimit:10" d="M0 2.291v-4.582" transform="matrix(-1 0 0 1 1.172 3.053)"/><path style="fill:none;stroke-width:.3985;stroke-linecap:butt;stroke-linejoin:miter;stroke:#000;stroke-opacity:1;stroke-miterlimit:10" d="M-.001 2.291v-4.582" transform="matrix(1 0 0 -1 26.677 3.053)"/><path style="fill:none;stroke-width:.3985;stroke-linecap:butt;stroke-linejoin:miter;stroke:#000;stroke-opacity:1;stroke-dasharray:3.9851,2.98883;stroke-dashoffset:3.9851;stroke-miterlimit:10" d="M.3 19.925h23.313" transform="matrix(1 0 0 -1 .973 32.941)"/><path style="fill:none;stroke-width:.3985;stroke-linecap:butt;stroke-linejoin:miter;stroke:#000;stroke-opacity:1;stroke-miterlimit:10" d="M0 2.293v-4.586" transform="matrix(-1 0 0 1 1.172 13.015)"/><path style="fill:none;stroke-width:.3985;stroke-linecap:butt;stroke-linejoin:miter;stroke:#000;stroke-opacity:1;stroke-miterlimit:10" d="M0 2.293v-4.586" transform="matrix(1 0 0 -1 24.684 13.015)"/><path style="fill:none;stroke-width:.3985;stroke-linecap:butt;stroke-linejoin:miter;stroke:#000;stroke-opacity:1;stroke-dasharray:3.9851,2.49069;stroke-dashoffset:3.9851;stroke-miterlimit:10" d="M.3 9.964h21.32" transform="matrix(1 0 0 -1 .973 32.941)"/><path style="fill:none;stroke-width:.3985;stroke-linecap:butt;stroke-linejoin:miter;stroke:#000;stroke-opacity:1;stroke-miterlimit:10" d="M0 2.291V-2.29" transform="matrix(-1 0 0 1 1.172 22.978)"/><path style="fill:none;stroke-width:.3985;stroke-linecap:butt;stroke-linejoin:miter;stroke:#000;stroke-opacity:1;stroke-miterlimit:10" d="M0 2.29V-2.29" transform="matrix(1 0 0 -1 22.692 22.978)"/><path style="fill:none;stroke-width:.3985;stroke-linecap:butt;stroke-linejoin:miter;stroke:#000;stroke-opacity:1;stroke-dasharray:3.9851,1.99255;stroke-dashoffset:3.9851;stroke-miterlimit:10" d="M.3 0H19.63" transform="matrix(1 0 0 -1 .973 32.941)"/><path style="fill:none;stroke-width:.3985;stroke-linecap:butt;stroke-linejoin:miter;stroke:#000;stroke-opacity:1;stroke-miterlimit:10" d="M0 2.29v-4.583" transform="matrix(-1 0 0 1 1.172 32.941)"/><path style="fill:none;stroke-width:.3985;stroke-linecap:butt;stroke-linejoin:miter;stroke:#000;stroke-opacity:1;stroke-miterlimit:10" d="M0 2.293V-2.29" transform="matrix(1 0 0 -1 20.7 32.941)"/></svg>