<svg xmlns="http://www.w3.org/2000/svg" width="121.932" height="46.347" viewBox="0 0 91.449 34.76" version="1.2"><defs><clipPath id="a"><path d="M0 0h91.172v34.64H0Zm0 0"/></clipPath><clipPath id="b"><path d="M0 23h11v11.64H0Zm0 0"/></clipPath><clipPath id="c"><path d="M5 22h17v12.64H5Zm0 0"/></clipPath><clipPath id="d"><path d="M16 19h16v15.64H16Zm0 0"/></clipPath><clipPath id="e"><path d="M80 0h11.172v11H80Zm0 0"/></clipPath></defs><g clip-path="url(#a)"><path style="fill:none;stroke-width:.3985;stroke-linecap:butt;stroke-linejoin:miter;stroke:#000;stroke-opacity:1;stroke-miterlimit:10" d="M-.002-.002c28.348 0 56.696 28.348 85.043 28.348" transform="matrix(1 0 0 -1 2.924 31.436)"/></g><g clip-path="url(#b)"><path style="fill:none;stroke-width:.3985;stroke-linecap:butt;stroke-linejoin:miter;stroke:#000;stroke-opacity:1;stroke-miterlimit:10" d="M1.994-.002a1.994 1.994 0 0 1-3.988 0c0-1.097.895-1.992 1.992-1.992 1.102 0 1.996.895 1.996 1.992Zm0 0" transform="matrix(1 0 0 -1 2.924 31.436)"/></g><g clip-path="url(#c)"><path style="fill:none;stroke-width:.3985;stroke-linecap:butt;stroke-linejoin:miter;stroke:#000;stroke-opacity:1;stroke-miterlimit:10" d="M12.623 1.217a1.993 1.993 0 1 1-3.986-.001 1.993 1.993 0 0 1 3.986.001Zm0 0" transform="matrix(1 0 0 -1 2.924 31.436)"/></g><g clip-path="url(#d)"><path style="fill:none;stroke-width:.3985;stroke-linecap:butt;stroke-linejoin:miter;stroke:#000;stroke-opacity:1;stroke-miterlimit:10" d="M23.252 4.428A1.99 1.99 0 0 1 21.26 6.42a1.993 1.993 0 1 1 1.992-1.992Zm0 0" transform="matrix(1 0 0 -1 2.924 31.436)"/></g><path style="fill:none;stroke-width:.3985;stroke-linecap:butt;stroke-linejoin:miter;stroke:#000;stroke-opacity:1;stroke-miterlimit:10" d="M33.881 8.967c0 1.102-.89 1.996-1.992 1.996a1.996 1.996 0 0 1-1.992-1.996 1.993 1.993 0 0 1 3.984 0ZM44.514 14.174a1.996 1.996 0 0 1-1.992 1.992 1.996 1.996 0 0 1-1.996-1.992 1.994 1.994 0 0 1 3.988 0ZM55.143 19.377a1.99 1.99 0 0 1-1.992 1.993 1.99 1.99 0 0 1-1.992-1.993 1.99 1.99 0 0 1 1.992-1.992 1.99 1.99 0 0 1 1.992 1.992ZM65.772 23.916a1.99 1.99 0 0 1-1.992 1.993 1.993 1.993 0 1 1 1.992-1.992ZM76.405 27.127a1.994 1.994 0 0 1-3.989 0c0-1.097.895-1.992 1.993-1.992 1.101 0 1.996.895 1.996 1.992Zm0 0" transform="matrix(1 0 0 -1 2.924 31.436)"/><g clip-path="url(#e)"><path style="fill:none;stroke-width:.3985;stroke-linecap:butt;stroke-linejoin:miter;stroke:#000;stroke-opacity:1;stroke-miterlimit:10" d="M87.034 28.346a1.993 1.993 0 1 1-3.986-.001 1.993 1.993 0 0 1 3.986.001Zm0 0" transform="matrix(1 0 0 -1 2.924 31.436)"/></g></svg>