<svg xmlns="http://www.w3.org/2000/svg" width="91.155" height="53.355" viewBox="0 0 68.366 40.016" version="1.2"><defs><clipPath id="a"><path d="M0 0h68.05v39.523H0Zm0 0"/></clipPath><clipPath id="b"><path d="M0 0h68v39.523H0Zm0 0"/></clipPath></defs><path style="stroke:none;fill-rule:nonzero;fill:#ccf;fill-opacity:1" d="M.898 33.895V5.148A4.424 4.424 0 0 1 5.324.727h57.09a4.424 4.424 0 0 1 4.426 4.421v28.747a4.424 4.424 0 0 1-4.426 4.421H5.324a4.424 4.424 0 0 1-4.426-4.421Zm0 0"/><g clip-path="url(#a)"><path style="fill:none;stroke-width:.3985;stroke-linecap:butt;stroke-linejoin:miter;stroke:#8080ff;stroke-opacity:1;stroke-miterlimit:10" d="M-32.97-14.374v28.747a4.424 4.424 0 0 0 4.425 4.421h57.09a4.424 4.424 0 0 0 4.426-4.421v-28.747a4.424 4.424 0 0 0-4.426-4.421h-57.09a4.424 4.424 0 0 0-4.426 4.421Zm0 0" transform="matrix(1 0 0 -1 33.869 19.521)"/></g><g clip-path="url(#b)"><path style="fill:none;stroke-width:.3985;stroke-linecap:butt;stroke-linejoin:miter;stroke:#000;stroke-opacity:1;stroke-miterlimit:10" d="M28.346.001c0 7.829-12.692 14.172-28.348 14.172-15.652 0-28.344-6.343-28.344-14.172 0-7.828 12.692-14.175 28.344-14.175 15.656 0 28.348 6.347 28.348 14.175Zm0 0" transform="matrix(1 0 0 -1 33.869 19.521)"/></g></svg>