<svg xmlns="http://www.w3.org/2000/svg" xmlns:xlink="http://www.w3.org/1999/xlink" width="112.611" height="66.963" viewBox="0 0 84.458 50.222" version="1.2"><defs><symbol overflow="visible" id="a"><path style="stroke:none" d="M2.25-1.625c.125-.125.453-.39.594-.5.484-.453.953-.89.953-1.61 0-.953-.797-1.562-1.781-1.562-.97 0-1.594.719-1.594 1.438 0 .39.312.437.422.437.172 0 .422-.11.422-.422 0-.406-.407-.406-.5-.406.234-.594.765-.781 1.156-.781.734 0 1.125.625 1.125 1.297 0 .828-.578 1.437-1.531 2.39l-1 1.047C.422-.219.422-.203.422 0h3.14l.235-1.422h-.25c-.016.156-.078.547-.172.703-.047.063-.656.063-.781.063H1.172Zm0 0"/></symbol><symbol overflow="visible" id="b"><path style="stroke:none" d="M3.89-2.547c0-.844-.078-1.36-.343-1.875-.344-.703-1-.875-1.438-.875-1 0-1.375.75-1.484.969C.344-3.75.328-2.953.328-2.547c0 .531.016 1.328.406 1.969.36.594.954.75 1.375.75.391 0 1.063-.125 1.47-.906.296-.579.312-1.297.312-1.813ZM2.11-.062c-.266 0-.813-.126-.985-.954-.094-.453-.094-1.203-.094-1.625 0-.546 0-1.109.094-1.546.172-.813.781-.891.984-.891.266 0 .829.14.985.86.094.437.094 1.046.094 1.577 0 .47 0 1.188-.094 1.641-.172.828-.719.938-.985.938Zm0 0"/></symbol><symbol overflow="visible" id="c"><path style="stroke:none" d="M1.11-4.484c.109.03.421.125.765.125 1 0 1.594-.704 1.594-.829 0-.093-.047-.109-.094-.109-.016 0-.031 0-.094.031a2.982 2.982 0 0 1-1.11.22c-.468 0-.858-.11-1.108-.22-.079-.03-.094-.03-.11-.03-.094 0-.094.077-.094.234v2.328c0 .14 0 .234.125.234.063 0 .079-.031.125-.094.094-.11.391-.515 1.079-.515.437 0 .656.359.734.515.125.281.14.656.14.953 0 .297 0 .735-.218 1.079-.156.25-.485.484-.906.484A1.271 1.271 0 0 1 .734-.922c.016.016.079.016.079.016.218 0 .406-.14.406-.39a.388.388 0 0 0-.39-.407c-.157 0-.407.078-.407.422 0 .718.625 1.453 1.531 1.453 1 0 1.844-.781 1.844-1.766 0-.922-.672-1.75-1.61-1.75-.39 0-.765.125-1.078.406Zm0 0"/></symbol><symbol overflow="visible" id="d"><path style="stroke:none" d="M2.016-2.656c.625 0 1.03.453 1.03 1.297 0 1-.562 1.28-.983 1.28-.438 0-1.047-.155-1.329-.577.297 0 .5-.188.5-.438 0-.265-.187-.437-.453-.437-.203 0-.437.125-.437.453 0 .75.812 1.25 1.734 1.25 1.047 0 1.797-.734 1.797-1.531 0-.672-.531-1.266-1.344-1.454.625-.218 1.11-.75 1.11-1.39 0-.64-.72-1.094-1.547-1.094-.86 0-1.5.453-1.5 1.063 0 .296.187.421.406.421.25 0 .406-.171.406-.406 0-.297-.265-.406-.437-.406.344-.438.953-.469 1.094-.469.203 0 .812.063.812.89 0 .548-.234.891-.344 1.016-.234.25-.422.266-.906.297-.156 0-.219.016-.219.125 0 .11.078.11.219.11Zm0 0"/></symbol><symbol overflow="visible" id="e"><path style="stroke:none" d="M3.14-5.156c0-.157 0-.219-.171-.219-.094 0-.11 0-.188.11L.234-1.564v.25h2.25v.672c0 .297-.015.375-.64.375h-.172V0c.672-.031.687-.031 1.14-.031.454 0 .47 0 1.141.031v-.266h-.172c-.625 0-.64-.078-.64-.375v-.671h.843v-.25h-.843Zm-.593.64v2.954H.516Zm0 0"/></symbol><symbol overflow="visible" id="f"><path style="stroke:none" d="M2.5-5.078c0-.219-.016-.219-.234-.219-.329.313-.75.5-1.5.5v.266c.218 0 .64 0 1.109-.203v4.078c0 .297-.031.39-.781.39H.812V0c.329-.031 1.016-.031 1.375-.031.36 0 1.047 0 1.376.031v-.266H3.28c-.75 0-.781-.093-.781-.39Zm0 0"/></symbol></defs><path style="fill:none;stroke-width:.3985;stroke-linecap:round;stroke-linejoin:miter;stroke:gray;stroke-opacity:1;stroke-miterlimit:10" d="M28.347 0h1.992M20.042-20.044l1.41-1.41M0-28.349v-1.992M-20.043-20.044l-1.41-1.41M-28.348 0h-1.992M0 0h0M-18.899 0h0M18.898 1.991v-3.984M-18.899-1.993V1.99" transform="matrix(1 0 0 -1 42.063 10.546)"/><path style="fill:none;stroke-width:.3985;stroke-linecap:butt;stroke-linejoin:miter;stroke:gray;stroke-opacity:1;stroke-miterlimit:10" d="M28.347 0C28.347-15.658 15.656-28.35 0-28.35c-15.656 0-28.347 12.692-28.347 28.348M0 0h28.347M0 0h-28.348" transform="matrix(1 0 0 -1 42.063 10.546)"/><path style="fill:none;stroke-width:.3985;stroke-linecap:butt;stroke-linejoin:miter;stroke:#000;stroke-opacity:1;stroke-miterlimit:10" d="m8.039-1.407 2.82 2.816m-2.82 0 2.82-2.816M-1.41-20.306l2.82 2.817m-2.82 0 2.82-2.817M-29.754-1.407l2.816 2.816m-2.816 0 2.816-2.816" transform="matrix(1 0 0 -1 42.063 10.546)"/><g style="fill:#000;fill-opacity:1"><use xlink:href="#a" x="75.057" y="13.114"/><use xlink:href="#b" x="79.292" y="13.114"/></g><g style="fill:#000;fill-opacity:1"><use xlink:href="#a" x="66.171" y="39.791"/><use xlink:href="#c" x="70.406" y="39.791"/></g><g style="fill:#000;fill-opacity:1"><use xlink:href="#d" x="37.828" y="48.677"/><use xlink:href="#b" x="42.063" y="48.677"/></g><g style="fill:#000;fill-opacity:1"><use xlink:href="#d" x="9.485" y="39.791"/><use xlink:href="#c" x="13.72" y="39.791"/></g><g style="fill:#000;fill-opacity:1"><use xlink:href="#e" x=".599" y="13.114"/><use xlink:href="#b" x="4.834" y="13.114"/></g><use xlink:href="#b" x="39.945" y="18.338" style="fill:#000;fill-opacity:1"/><use xlink:href="#f" x="21.048" y="18.338" style="fill:#000;fill-opacity:1"/><use xlink:href="#f" x="58.843" y="5.898" style="fill:#000;fill-opacity:1"/><use xlink:href="#f" x="21.048" y="5.898" style="fill:#000;fill-opacity:1"/></svg>