<svg xmlns="http://www.w3.org/2000/svg" width="40.107" height="15.027" viewBox="0 0 30.08 11.27" version="1.2"><defs><clipPath id="a"><path d="M0 0h29.621v10.906H0Zm0 0"/></clipPath></defs><g clip-path="url(#a)"><path style="fill:none;stroke-width:.3985;stroke-linecap:butt;stroke-linejoin:miter;stroke:#000;stroke-opacity:1;stroke-miterlimit:10" d="M-.001.002c2.265 2.261 4.433 4.421 6.945 4.421 2.516 0 4.683-2.16 6.945-4.421 2.266-2.266 4.43-4.426 6.946-4.426 2.515 0 4.68 2.16 6.945 4.426M-.001 4.423c2.515 0 4.683-2.16 6.945-4.421 2.266-2.266 4.433-4.426 6.945-4.426 2.516 0 4.68 2.16 6.946 4.426 2.265 2.261 4.43 4.421 6.945 4.421" transform="matrix(1 0 0 -1 .685 5.275)"/></g></svg>