<svg xmlns="http://www.w3.org/2000/svg" width="119.748" height="81.795" viewBox="0 0 89.811 61.346" version="1.2"><defs><clipPath id="a"><path d="M0 23h89.715v38.02H0Zm0 0"/></clipPath><clipPath id="b"><path d="M0 10h89.715v51.02H0Zm0 0"/></clipPath></defs><path style="fill:none;stroke-width:.19925;stroke-linecap:butt;stroke-linejoin:miter;stroke:gray;stroke-opacity:1;stroke-miterlimit:10" d="M.001.001h85.04M0 28.345h85.04M0 56.685h85.04M0 0v56.692M28.345 0v56.692M56.693 0v56.692M85.029 0v56.692" transform="matrix(1 0 0 -1 3.467 57.466)"/><g clip-path="url(#a)"><path style="fill:none;stroke-width:.3985;stroke-linecap:butt;stroke-linejoin:miter;stroke:#000;stroke-opacity:1;stroke-miterlimit:10" d="m.001.001 28.344 28.344C59.658 28.345 85.04 15.657 85.04 0" transform="matrix(1 0 0 -1 3.467 57.466)"/></g><g clip-path="url(#b)"><path style="fill:none;stroke-width:1.19553;stroke-linecap:butt;stroke-linejoin:miter;stroke:red;stroke-opacity:1;stroke-miterlimit:10" d="m-2.128 2.126 4.254-4.254m-4.254 0 4.254 4.254M4.92 9.17l4.25-4.25m-4.25 0 4.25 4.25m2.793 7.047 4.254-4.254m-4.254 0 4.254 4.254m2.793 7.043 4.25-4.25m-4.25 0 4.25 4.25m2.793 7.047 4.254-4.254m-4.254 0 4.254 4.254m5.656-.25 4.254-4.254m-4.254 0 4.254 4.254m5.617-1.324 4.254-4.254m-4.254 0 4.254 4.254m5.426-2.332 4.254-4.25m-4.254 0 4.254 4.25m5.062-3.516 4.25-4.25m-4.25 0 4.25 4.25m4.325-5.035 4.25-4.254m-4.25 0 4.25 4.254m2.617-7.145 4.254-4.25m-4.254 0 4.254 4.25" transform="matrix(1 0 0 -1 3.467 57.466)"/></g></svg>