<svg xmlns="http://www.w3.org/2000/svg" xmlns:xlink="http://www.w3.org/1999/xlink" width="143.259" height="158.379" viewBox="0 0 107.444 118.784" version="1.2"><defs><clipPath id="a"><path d="M33 85h41v33.676H33Zm0 0"/></clipPath><symbol overflow="visible" id="b"><path style="stroke:none" d="M5.156-2.219h-.468c-.032.203-.125.844-.266.906-.11.063-.86.063-1.016.063H1.937c.47-.39 1-.813 1.438-1.14 1.14-.844 1.781-1.313 1.781-2.25 0-1.157-1.047-1.891-2.437-1.891-1.219 0-2.156.625-2.156 1.515 0 .594.484.735.718.735C1.61-4.281 2-4.5 2-5c0-.516-.422-.672-.563-.719.282-.234.672-.343 1.032-.343.844 0 1.312.671 1.312 1.421 0 .688-.375 1.375-1.078 2.079l-2 2.046c-.14.11-.14.141-.14.344V0h4.28Zm0 0"/></symbol></defs><path style="stroke:none;fill-rule:nonzero;fill:#b2b2b2;fill-opacity:1" d="M.738 117.66h105.414V.91H.738Zm0 0"/><path style="fill-rule:nonzero;fill:#ccf;fill-opacity:1;stroke-width:.79701;stroke-linecap:butt;stroke-linejoin:miter;stroke:#8080ff;stroke-opacity:1;stroke-miterlimit:10" d="M8.504 0A8.506 8.506 0 0 1 0 8.504 8.506 8.506 0 0 1-8.504 0 8.506 8.506 0 0 1 0-8.504 8.506 8.506 0 0 1 8.504 0ZM8.504-46.152A8.506 8.506 0 0 1 0-37.648a8.506 8.506 0 0 1-8.504-8.504A8.506 8.506 0 0 1 0-54.656a8.506 8.506 0 0 1 8.504 8.504Zm0 0" transform="matrix(1 0 0 -1 53.445 13.133)"/><path style="stroke:none;fill-rule:nonzero;fill:#ccf;fill-opacity:1" d="M61.95 105.438c0-4.7-3.81-8.504-8.505-8.504a8.503 8.503 0 0 0-8.504 8.504 8.506 8.506 0 0 0 8.504 8.503 8.506 8.506 0 0 0 8.504-8.504Zm0 0"/><g clip-path="url(#a)"><path style="fill:none;stroke-width:.79701;stroke-linecap:butt;stroke-linejoin:miter;stroke:#8080ff;stroke-opacity:1;stroke-miterlimit:10" d="M8.504-92.305c0 4.7-3.808 8.504-8.504 8.504a8.503 8.503 0 0 1-8.504-8.504A8.506 8.506 0 0 1 0-100.808a8.506 8.506 0 0 1 8.504 8.504Zm0 0" transform="matrix(1 0 0 -1 53.445 13.133)"/></g><path style="fill-rule:nonzero;fill:#ccc;fill-opacity:1;stroke-width:.79701;stroke-linecap:butt;stroke-linejoin:miter;stroke:gray;stroke-opacity:1;stroke-miterlimit:10" d="M37.649-51.82h11.336v11.336H37.649Zm0 0" transform="matrix(1 0 0 -1 53.445 13.133)"/><path style="fill:none;stroke-width:.59776;stroke-linecap:butt;stroke-linejoin:miter;stroke:#000;stroke-opacity:1;stroke-miterlimit:10" d="M33.22-46.152H8.902" transform="matrix(1 0 0 -1 53.445 13.133)"/><path style="fill-rule:nonzero;fill:#000;fill-opacity:1;stroke-width:.59776;stroke-linecap:butt;stroke-linejoin:round;stroke:#000;stroke-opacity:1;stroke-miterlimit:10" d="M4.827 0 .964 1.457 2.24 0 .964-1.457Zm0 0" transform="matrix(1 0 0 -1 84.572 59.285)"/><path style="fill:none;stroke-width:.59776;stroke-linecap:butt;stroke-linejoin:miter;stroke:#000;stroke-opacity:1;stroke-miterlimit:10" d="M43.508-40.086C44.852-20.824 31.477-4.07 12.898-.773" transform="matrix(1 0 0 -1 53.445 13.133)"/><path style="fill-rule:nonzero;fill:#000;fill-opacity:1;stroke-width:.59776;stroke-linecap:butt;stroke-linejoin:round;stroke:#000;stroke-opacity:1;stroke-miterlimit:10" d="M4.827 0 .967 1.458 2.24-.002.964-1.458Zm0 0" transform="scale(-.99997 .99997) rotate(-7.95 68.017 499.4)"/><use xlink:href="#b" x="91.539" y="22.504" style="fill:#000;fill-opacity:1"/><path style="fill:none;stroke-width:.59776;stroke-linecap:butt;stroke-linejoin:miter;stroke:#000;stroke-opacity:1;stroke-miterlimit:10" d="M43.578-56.25c-.683-18.855-15.418-34.43-34.68-35.773" transform="matrix(1 0 0 -1 53.445 13.133)"/><path style="fill-rule:nonzero;fill:#000;fill-opacity:1;stroke-width:.59776;stroke-linecap:butt;stroke-linejoin:round;stroke:#000;stroke-opacity:1;stroke-miterlimit:10" d="M4.826 0 .963 1.457 2.24.001.966-1.46Zm0 0" transform="scale(-.99998 .99998) rotate(-89.97 -12.751 84.27)"/><path style="fill-rule:nonzero;fill:#ccc;fill-opacity:1;stroke-width:.79701;stroke-linecap:butt;stroke-linejoin:miter;stroke:gray;stroke-opacity:1;stroke-miterlimit:10" d="M-48.988-51.82h11.34v11.336h-11.34Zm0 0" transform="matrix(1 0 0 -1 53.445 13.133)"/><path style="fill:none;stroke-width:.59776;stroke-linecap:butt;stroke-linejoin:miter;stroke:#000;stroke-opacity:1;stroke-miterlimit:10" d="M-37.25-46.152h24.317" transform="matrix(1 0 0 -1 53.445 13.133)"/><path style="fill-rule:nonzero;fill:#000;fill-opacity:1;stroke-width:.59776;stroke-linecap:butt;stroke-linejoin:round;stroke:#000;stroke-opacity:1;stroke-miterlimit:10" d="M4.826 0 .967 1.457 2.24 0 .967-1.457Zm0 0" transform="matrix(1 0 0 -1 38.42 59.285)"/><path style="fill:none;stroke-width:.59776;stroke-linecap:butt;stroke-linejoin:miter;stroke:#000;stroke-opacity:1;stroke-miterlimit:10" d="M-43.578-36.05C-42.894-17.2-28.16-1.626-8.898-.282" transform="matrix(1 0 0 -1 53.445 13.133)"/><path style="fill-rule:nonzero;fill:#000;fill-opacity:1;stroke-width:.59776;stroke-linecap:butt;stroke-linejoin:round;stroke:#000;stroke-opacity:1;stroke-miterlimit:10" d="M4.827 0 .964 1.459 2.241 0 .966-1.459Zm0 0" transform="matrix(.00052 .99998 .99998 -.00052 9.877 47.095)"/><path style="fill:none;stroke-width:.59776;stroke-linecap:butt;stroke-linejoin:miter;stroke:#000;stroke-opacity:1;stroke-miterlimit:10" d="M-43.508-52.219C-44.85-71.48-31.476-88.234-12.898-91.53" transform="matrix(1 0 0 -1 53.445 13.133)"/><path style="fill-rule:nonzero;fill:#000;fill-opacity:1;stroke-width:.59776;stroke-linecap:butt;stroke-linejoin:round;stroke:#000;stroke-opacity:1;stroke-miterlimit:10" d="M4.828 0 .964 1.456 2.24.002.965-1.458Zm0 0" transform="matrix(.99036 .1383 .1383 -.99036 38.477 104.364)"/></svg>