<svg xmlns="http://www.w3.org/2000/svg" xmlns:xlink="http://www.w3.org/1999/xlink" width="234.483" height="135.628" viewBox="0 0 175.862 101.721" version="1.2"><defs><symbol overflow="visible" id="b"><path style="stroke:none" d="M5.563-1.813c.14 0 .312 0 .312-.171 0-.188-.172-.188-.313-.188H1c-.125 0-.297 0-.297.188 0 .171.172.171.297.171Zm0 0"/></symbol><symbol overflow="visible" id="c"><path style="stroke:none" d="M2.5-5.078c0-.219-.016-.219-.234-.219-.329.313-.75.5-1.5.5v.266c.218 0 .64 0 1.109-.203v4.078c0 .297-.031.39-.781.39H.812V0c.329-.031 1.016-.031 1.375-.031.36 0 1.047 0 1.376.031v-.266H3.28c-.75 0-.781-.093-.781-.39Zm0 0"/></symbol><symbol overflow="visible" id="d"><path style="stroke:none" d="M3.89-2.547c0-.844-.078-1.36-.343-1.875-.344-.703-1-.875-1.438-.875-1 0-1.375.75-1.484.969C.344-3.75.328-2.953.328-2.547c0 .531.016 1.328.406 1.969.36.594.954.75 1.375.75.391 0 1.063-.125 1.47-.906.296-.579.312-1.297.312-1.813ZM2.11-.062c-.266 0-.813-.126-.985-.954-.094-.453-.094-1.203-.094-1.625 0-.546 0-1.109.094-1.546.172-.813.781-.891.984-.891.266 0 .829.14.985.86.094.437.094 1.046.094 1.577 0 .47 0 1.188-.094 1.641-.172.828-.719.938-.985.938Zm0 0"/></symbol><symbol overflow="visible" id="e"><path style="stroke:none" d="M1.11-4.484c.109.03.421.125.765.125 1 0 1.594-.704 1.594-.829 0-.093-.047-.109-.094-.109-.016 0-.031 0-.094.031a2.982 2.982 0 0 1-1.11.22c-.468 0-.858-.11-1.108-.22-.079-.03-.094-.03-.11-.03-.094 0-.094.077-.094.234v2.328c0 .14 0 .234.125.234.063 0 .079-.031.125-.094.094-.11.391-.515 1.079-.515.437 0 .656.359.734.515.125.281.14.656.14.953 0 .297 0 .735-.218 1.079-.156.25-.485.484-.906.484A1.271 1.271 0 0 1 .734-.922c.016.016.079.016.079.016.218 0 .406-.14.406-.39a.388.388 0 0 0-.39-.407c-.157 0-.407.078-.407.422 0 .718.625 1.453 1.531 1.453 1 0 1.844-.781 1.844-1.766 0-.922-.672-1.75-1.61-1.75-.39 0-.765.125-1.078.406Zm0 0"/></symbol><symbol overflow="visible" id="f"><path style="stroke:none" d="M1.484-.125c0 .516-.109.984-.593 1.469-.032.031-.047.047-.047.078 0 .062.062.11.11.11.093 0 .765-.626.765-1.563 0-.5-.203-.86-.547-.86a.436.436 0 0 0-.438.438c0 .234.157.453.438.453.203 0 .312-.11.312-.125Zm0 0"/></symbol><clipPath id="a"><path d="M22 0h153.793v100H22Zm0 0"/></clipPath></defs><path style="fill:none;stroke-width:.3985;stroke-linecap:round;stroke-linejoin:miter;stroke:gray;stroke-opacity:1;stroke-miterlimit:10" d="M11.813-1.993v1.992M41.34-1.993v1.992M70.867-1.993v1.992M100.395-1.993v1.992M129.922-1.993v1.992M11.813 87.593v1.992M41.34 87.593v1.992M70.867 87.593v1.992M100.395 87.593v1.992M129.922 87.593v1.992M-1.992 5.78H0M-1.992 18.452H0M-1.992 31.124H0M-1.992 43.796H0M-1.992 56.468H0M-1.992 69.14H0M-1.992 81.811H0M141.735 5.78h1.992M141.735 18.452h1.992M141.735 31.124h1.992M141.735 43.796h1.992M141.735 56.468h1.992M141.735 69.14h1.992M141.735 81.811h1.992" transform="matrix(1 0 0 -1 30.867 90.644)"/><path style="fill:none;stroke-width:.3985;stroke-linecap:butt;stroke-linejoin:miter;stroke:gray;stroke-opacity:1;stroke-miterlimit:10" d="M0-.001h141.735M0 87.593h141.735M0-.001v87.594M141.735-.001v87.594" transform="matrix(1 0 0 -1 30.867 90.644)"/><g clip-path="url(#a)"><path style="fill:none;stroke-width:.59776;stroke-linecap:butt;stroke-linejoin:miter;stroke:#000;stroke-opacity:1;stroke-miterlimit:10" d="M0-.001s4.266 7.504 5.906 10.062c1.637 2.56 4.266 6.274 5.907 8.391 1.636 2.117 4.265 5.152 5.902 6.867 1.64 1.715 4.27 4.145 5.906 5.5 1.64 1.356 4.27 3.242 5.907 4.285 1.64 1.04 4.265 2.45 5.906 3.22 1.637.765 4.265 1.769 5.906 2.304 1.637.535 4.266 1.203 5.902 1.547 1.641.344 4.27.738 5.907.937 1.64.196 4.27.39 5.906.48 1.64.09 4.266.15 5.906.177 1.637.03 4.266.019 5.906.027 1.637.008 4.266-.004 5.907.023 1.636.032 4.265.086 5.902.18 1.64.09 4.27.285 5.906.48 1.64.2 4.266.594 5.906.938 1.641.344 4.266 1.012 5.907 1.547 1.636.535 4.265 1.539 5.906 2.305 1.637.769 4.266 2.18 5.902 3.218 1.64 1.043 4.27 2.926 5.907 4.285 1.64 1.356 4.27 3.786 5.906 5.5 1.64 1.715 4.265 4.75 5.906 6.868 1.637 2.117 4.266 5.828 5.906 8.39 1.637 2.559 5.907 10.063 5.907 10.063" transform="matrix(1 0 0 -1 30.867 90.644)"/></g><use xlink:href="#b" x="35.151" y="100.428" style="fill:#000;fill-opacity:1"/><g style="fill:#000;fill-opacity:1"><use xlink:href="#c" x="41.737" y="100.428"/><use xlink:href="#d" x="45.972" y="100.428"/></g><use xlink:href="#b" x="66.795" y="100.428" style="fill:#000;fill-opacity:1"/><use xlink:href="#e" x="73.382" y="100.428" style="fill:#000;fill-opacity:1"/><use xlink:href="#d" x="99.616" y="100.428" style="fill:#000;fill-opacity:1"/><use xlink:href="#e" x="129.143" y="100.428" style="fill:#000;fill-opacity:1"/><g style="fill:#000;fill-opacity:1"><use xlink:href="#c" x="156.553" y="100.428"/><use xlink:href="#d" x="160.788" y="100.428"/></g><use xlink:href="#b" x=".343" y="86.659" style="fill:#000;fill-opacity:1"/><use xlink:href="#c" x="6.93" y="86.659" style="fill:#000;fill-opacity:1"/><use xlink:href="#f" x="11.164" y="86.659" style="fill:#000;fill-opacity:1"/><g style="fill:#000;fill-opacity:1"><use xlink:href="#e" x="13.516" y="86.659"/><use xlink:href="#d" x="17.751" y="86.659"/><use xlink:href="#d" x="21.985" y="86.659"/></g><use xlink:href="#b" x=".343" y="73.986" style="fill:#000;fill-opacity:1"/><use xlink:href="#c" x="6.93" y="73.986" style="fill:#000;fill-opacity:1"/><use xlink:href="#f" x="11.164" y="73.986" style="fill:#000;fill-opacity:1"/><g style="fill:#000;fill-opacity:1"><use xlink:href="#d" x="13.516" y="73.986"/><use xlink:href="#d" x="17.751" y="73.986"/><use xlink:href="#d" x="21.985" y="73.986"/></g><use xlink:href="#b" x="6.93" y="61.673" style="fill:#000;fill-opacity:1"/><g style="fill:#000;fill-opacity:1"><use xlink:href="#e" x="13.516" y="61.673"/><use xlink:href="#d" x="17.751" y="61.673"/><use xlink:href="#d" x="21.985" y="61.673"/></g><use xlink:href="#d" x="21.985" y="49.416" style="fill:#000;fill-opacity:1"/><g style="fill:#000;fill-opacity:1"><use xlink:href="#e" x="13.516" y="36.745"/><use xlink:href="#d" x="17.751" y="36.745"/><use xlink:href="#d" x="21.985" y="36.745"/></g><use xlink:href="#c" x="6.93" y="23.297" style="fill:#000;fill-opacity:1"/><use xlink:href="#f" x="11.164" y="23.297" style="fill:#000;fill-opacity:1"/><g style="fill:#000;fill-opacity:1"><use xlink:href="#d" x="13.516" y="23.297"/><use xlink:href="#d" x="17.751" y="23.297"/><use xlink:href="#d" x="21.985" y="23.297"/></g><use xlink:href="#c" x="6.93" y="10.624" style="fill:#000;fill-opacity:1"/><use xlink:href="#f" x="11.164" y="10.624" style="fill:#000;fill-opacity:1"/><g style="fill:#000;fill-opacity:1"><use xlink:href="#e" x="13.516" y="10.624"/><use xlink:href="#d" x="17.751" y="10.624"/><use xlink:href="#d" x="21.985" y="10.624"/></g></svg>