<svg xmlns="http://www.w3.org/2000/svg" xmlns:xlink="http://www.w3.org/1999/xlink" width="452.139" height="216.579" viewBox="0 0 339.104 162.434" version="1.2"><defs><symbol overflow="visible" id="a"><path style="stroke:none" d="M8.547-.953c0-.219-.14-.219-.235-.219-.203 0-.218.11-.234.234-.047.47-.328.688-.625.688-.61 0-.687-.703-.75-1.125-.016-.11-.094-.797-.11-.844-.14-.703-.687-1.015-1.109-1.172C6.641-3.687 7.141-4.344 7.141-5c0-1-1.094-1.844-2.97-1.844H.392v.469h1.078v5.906H.39V0C.75-.031 1.719-.031 2.14-.031c.421 0 1.39 0 1.75.031v-.469H2.828v-2.765h1.156c.141 0 .579 0 .891.328.313.36.313.547.313 1.265 0 .657 0 1.157.703 1.485.437.218 1.062.265 1.468.265 1.063 0 1.188-.89 1.188-1.062ZM5.625-4.984c0 .562 0 1.39-1.64 1.39H2.827v-2.781H4c1.61 0 1.625.781 1.625 1.39Zm0 0"/></symbol><symbol overflow="visible" id="b"><path style="stroke:none" d="M5.516-.234c0-.235-.125-.235-.266-.235-.61-.015-.61-.14-.61-.375v-2.14c0-.891-.702-1.532-2.187-1.532-.562 0-1.781.047-1.781.922 0 .438.344.625.61.625.312 0 .624-.219.624-.625 0-.297-.187-.469-.218-.5a5.28 5.28 0 0 1 .718-.062c.75 0 1.11.422 1.11 1.172v.343c-.72.032-3.25.125-3.25 1.563C.266-.125 1.5.062 2.187.062c.797 0 1.266-.406 1.485-.828 0 .313 0 .766 1.047.766h.468c.204 0 .329 0 .329-.234Zm-2-1.157c0 .97-.922 1.094-1.172 1.094-.516 0-.906-.344-.906-.797 0-1.062 1.578-1.203 2.078-1.234Zm0 0"/></symbol><symbol overflow="visible" id="c"><path style="stroke:none" d="M3.813-1.234v-.532h-.47v.516c0 .672-.327.906-.609.906-.578 0-.578-.64-.578-.86v-2.75h1.469v-.468H2.156v-1.906h-.469c0 1-.484 1.984-1.484 2.016v.359h.828v2.734c0 1.063.86 1.282 1.578 1.282.75 0 1.204-.579 1.204-1.297Zm0 0"/></symbol><symbol overflow="visible" id="d"><path style="stroke:none" d="M2.844 0v-.469h-.61v-4.015L.5-4.406v.468c.594 0 .656 0 .656.391v3.078H.47V0l1.219-.031Zm-.469-6.047a.774.774 0 0 0-.781-.781.784.784 0 0 0-.782.781c0 .422.36.766.782.766a.77.77 0 0 0 .781-.766Zm0 0"/></symbol><symbol overflow="visible" id="e"><path style="stroke:none" d="M6.125 0v-.469h-.688v-2.578c0-1.047-.53-1.437-1.53-1.437-.954 0-1.485.562-1.75 1.078v-1.078l-1.704.078v.468c.61 0 .688 0 .688.391v3.078H.453V0l1.25-.031L2.953 0v-.469h-.687v-2.078c0-1.094.859-1.578 1.5-1.578.328 0 .546.203.546.969V-.47h-.687V0l1.25-.031Zm0 0"/></symbol><symbol overflow="visible" id="f"><path style="stroke:none" d="M5.563-3.953c0-.235-.172-.578-.625-.578-.157 0-.625.031-1.063.375-.172-.125-.594-.328-1.328-.328-1.438 0-1.985.78-1.985 1.468 0 .407.188.829.516 1.047-.281.36-.344.688-.344.89 0 .157.047.641.438.954-.125.031-.86.25-.86.875C.313 1.25.875 2 2.86 2 4.625 2 5.406 1.422 5.406.719c0-.297-.078-.922-.75-1.266-.562-.281-1.156-.281-2.11-.281-.265 0-.718 0-.765-.016a.625.625 0 0 1-.562-.625c0-.093.047-.25.11-.328.452.234.968.266 1.218.266 1.437 0 1.984-.782 1.984-1.485 0-.468-.25-.796-.406-.953.297-.156.516-.172.625-.187a.433.433 0 0 0-.047.203c0 .25.172.422.438.422a.41.41 0 0 0 .421-.422Zm-2.141.937c0 .454 0 1.125-.875 1.125s-.875-.671-.875-1.125c0-.437 0-1.109.875-1.109s.875.672.875 1.11ZM4.547.75c0 .36-.39.89-1.688.89-1.187 0-1.687-.452-1.687-.906 0-.609.625-.609.766-.609h1.171c.313 0 1.438 0 1.438.625Zm0 0"/></symbol><symbol overflow="visible" id="g"><path style="stroke:none" d="M4.14-1.39c0-.438-.202-.782-.546-1.063-.39-.281-.719-.344-1.485-.485-.375-.062-1.015-.171-1.015-.64 0-.625.922-.625 1.11-.625.75 0 1.124.297 1.171.844.016.156.031.203.234.203.235 0 .235-.047.235-.281v-.797c0-.188 0-.282-.172-.282-.047 0-.063 0-.453.188-.266-.125-.61-.188-1-.188-.313 0-1.844 0-1.844 1.313 0 .39.203.656.406.828.39.344.781.406 1.547.547.36.062 1.094.187 1.094.781 0 .75-.906.75-1.125.75C1.234-.297.984-1.03.859-1.453c-.046-.14-.109-.14-.234-.14-.25 0-.25.062-.25.28v1.094c0 .188 0 .281.188.281.062 0 .078 0 .296-.156l.25-.172c.47.329.985.329 1.188.329.312 0 1.844 0 1.844-1.454Zm0 0"/></symbol><symbol overflow="visible" id="h"><path style="stroke:none" d="M5.781-3.953v-.469c-.25.016-.531.031-.781.031l-.906-.03v.468c.187 0 .468.031.468.11 0 0 0 .015-.046.109l-1.157 2.5-1.265-2.72h.531v-.468l-1.234.031-1.125-.03v.468H.89l1.75 3.75c.125.25.25.25.375.25.171 0 .28-.031.375-.25L5.047-3.75c.062-.14.094-.203.734-.203Zm0 0"/></symbol><symbol overflow="visible" id="i"><path style="stroke:none" d="M4.922-1.172c0-.172-.188-.172-.234-.172-.172 0-.188.047-.25.203-.204.485-.782.797-1.422.797-1.407 0-1.422-1.328-1.422-1.828h3.015c.22 0 .313 0 .313-.265 0-.313-.063-1.047-.563-1.547-.359-.36-.89-.532-1.578-.532C1.187-4.516.312-3.484.312-2.25c0 1.344 1 2.313 2.61 2.313 1.578 0 2-1.063 2-1.235ZM3.984-2.5h-2.39c.015-.39.031-.813.234-1.14.266-.391.672-.516.953-.516 1.172 0 1.188 1.312 1.203 1.656Zm0 0"/></symbol><symbol overflow="visible" id="j"><path style="stroke:none" d="M5.984-2.219c0-1.328-.937-2.265-2.39-2.265-.719 0-1.219.28-1.453.484v-2.922l-1.766.078v.469c.61 0 .688 0 .688.39V0h.468c.157-.188.328-.375.485-.563.078.079.562.625 1.453.625 1.484 0 2.515-.906 2.515-2.28Zm-1.28 0c0 .469 0 1.016-.25 1.406-.298.407-.75.516-1.079.516-.688 0-1.078-.547-1.188-.687v-2.5c.282-.36.75-.641 1.297-.641 1.22 0 1.22 1.203 1.22 1.906Zm0 0"/></symbol><symbol overflow="visible" id="k"><path style="stroke:none" d="M5.781-3.953v-.469A12.55 12.55 0 0 1 5-4.39l-.906-.03v.468s.468 0 .468.11L4.5-3.72 3.36-1.266 2.093-3.953h.531v-.469l-1.234.031-1.125-.03v.468H.89L2.766 0 2.53.484C2.312.954 2 1.641 1.281 1.641c-.14 0-.156-.016-.234-.047.094-.032.312-.172.312-.532C1.36.734 1.125.5.781.5a.553.553 0 0 0-.562.578c0 .5.469.922 1.062.922.766 0 1.344-.625 1.625-1.188l2.14-4.562c.063-.14.095-.203.735-.203Zm0 0"/></symbol><symbol overflow="visible" id="l"><path style="stroke:none" d="M5.156-2c0-1.156-.797-2.078-2.265-2.078-.282 0-.813.031-1.282.344v-1.313c.282.047.391.078.72.078 1.452 0 2.374-1.125 2.374-1.375 0-.078-.016-.187-.14-.187-.032 0-.032 0-.141.047a4.32 4.32 0 0 1-1.531.28c-.75 0-1.282-.202-1.547-.28-.094-.032-.094-.047-.125-.047-.14 0-.14.11-.14.265v2.922c0 .172 0 .297.218.297.125 0 .156-.031.219-.11.39-.468.921-.562 1.328-.562.89 0 .89.875.89 1.672 0 .735 0 1.735-1.187 1.735-.25 0-.875-.063-1.297-.625.36-.016.656-.266.656-.672 0-.532-.437-.672-.672-.672-.14 0-.671.094-.671.703 0 .844.78 1.687 2.015 1.687C4.172.11 5.156-.78 5.156-2Zm0 0"/></symbol><symbol overflow="visible" id="m"><path style="stroke:none" d="M5.281-3.188c0-.953-.015-3.343-2.422-3.343C.453-6.531.453-4.156.453-3.188c0 1 0 3.297 2.406 3.297 2.391 0 2.422-2.296 2.422-3.296ZM4-3.296c0 .563 0 1.469-.078 1.985-.14.921-.766 1.062-1.063 1.062-.359 0-.921-.219-1.046-.953-.094-.516-.094-1.547-.094-2.094 0-.719 0-1.375.078-1.89.125-.891.828-.985 1.062-.985.375 0 .782.188.97.625C4-5.172 4-4.109 4-3.297Zm0 0"/></symbol><symbol overflow="visible" id="n"><path style="stroke:none" d="M5.984-2.219c0-1.328-.906-2.265-2.343-2.265-.75 0-1.282.312-1.5.484v-.484l-1.766.078v.468c.61 0 .688 0 .688.376v5.03H.375v.47l1.25-.032 1.25.032v-.47h-.688V-.39A2.01 2.01 0 0 0 3.47.063c1.5 0 2.515-.907 2.515-2.282Zm-1.28 0C4.703-.813 4-.297 3.358-.297c-.14 0-.609 0-1.062-.547-.11-.125-.11-.14-.11-.328v-2.11c0-.187.016-.202.157-.343.39-.406.922-.469 1.14-.469.657 0 1.22.61 1.22 1.875Zm0 0"/></symbol><symbol overflow="visible" id="o"><path style="stroke:none" d="M4.406-3.672c0-.531-.531-.812-1.062-.812-.688 0-1.094.5-1.313 1.125v-1.125l-1.656.078v.468c.61 0 .688 0 .688.391v3.078H.375V0l1.25-.031C2-.031 2.641-.031 3 0v-.469h-.86v-1.75c0-.687.235-1.906 1.235-1.906 0 0-.188.172-.188.453 0 .406.329.61.61.61.297 0 .61-.204.61-.61Zm0 0"/></symbol><symbol overflow="visible" id="p"><path style="stroke:none" d="M4.766-1.172c0-.14-.141-.14-.235-.14-.187 0-.187.03-.25.156-.25.625-.734.812-1.234.812-1.39 0-1.39-1.453-1.39-1.922 0-.562 0-1.843 1.28-1.843.36 0 .516.015.657.046a.618.618 0 0 0-.203.47c0 .437.343.624.609.624.313 0 .64-.219.64-.625 0-.86-1.156-.922-1.734-.922C1.11-4.516.375-3.375.375-2.219.375-.89 1.313.062 2.844.062c1.625 0 1.922-1.156 1.922-1.234Zm0 0"/></symbol><symbol overflow="visible" id="u"><path style="stroke:none" d="M2.36-4.203c0-.406-.266-.781-.782-.781A.829.829 0 0 0 1-4.75c.063-1.125.766-1.672.984-1.844.047-.031.079-.062.079-.125 0-.093-.11-.203-.188-.203-.14 0-1.234.844-1.234 2.25 0 .688.375 1.25.953 1.25.453 0 .765-.36.765-.781Zm2.515 0c0-.406-.266-.781-.781-.781a.802.802 0 0 0-.578.234c.062-1.125.765-1.672.984-1.844.031-.031.078-.062.078-.125 0-.093-.11-.203-.187-.203-.141 0-1.235.844-1.235 2.25 0 .688.375 1.25.953 1.25.454 0 .766-.36.766-.781Zm0 0"/></symbol><symbol overflow="visible" id="v"><path style="stroke:none" d="M5.406-2.172c0-1.344-.922-2.344-2.547-2.344C1.22-4.516.313-3.5.313-2.172c0 1.235.89 2.235 2.546 2.235 1.672 0 2.547-1.016 2.547-2.235Zm-1.281-.11c0 .86 0 1.938-1.266 1.938-1.265 0-1.265-1.078-1.265-1.937 0-.453 0-.953.172-1.297.187-.375.609-.578 1.093-.578.422 0 .844.156 1.063.5.203.344.203.89.203 1.375Zm0 0"/></symbol><symbol overflow="visible" id="w"><path style="stroke:none" d="M5.86 0v-.469h-.173c-.437 0-.468-.047-.593-.203L3.406-2.766 4.703-3.78c.14-.11.234-.172.906-.172v-.469c-.28.031-.53.031-.78.031l-1.157-.03v.468c.234 0 .265.031.344.11L2.14-2.36v-4.563l-1.766.078v.469c.61 0 .688 0 .688.39v5.516H.375V0l1.188-.031L2.766 0v-.469h-.688v-1.265c.297-.235.375-.297.578-.422l1 1.25c.094.125.25.312.25.344 0 .093-.172.093-.312.093V0a52.51 52.51 0 0 1 1.219-.031c.359 0 .703.015 1.046.031Zm0 0"/></symbol><symbol overflow="visible" id="x"><path style="stroke:none" d="M2.531-5.672c0-.687-.375-1.25-.953-1.25-.453 0-.766.36-.766.781 0 .407.282.782.782.782a.802.802 0 0 0 .578-.235c-.063 1.125-.75 1.672-.969 1.828-.047.032-.094.063-.094.141 0 .094.11.203.204.203.14 0 1.218-.86 1.218-2.25Zm2.516 0c0-.687-.375-1.25-.953-1.25-.453 0-.766.36-.766.781 0 .407.266.782.781.782a.802.802 0 0 0 .579-.235 2.347 2.347 0 0 1-.985 1.828c-.031.032-.078.063-.078.141 0 .094.11.203.188.203.14 0 1.234-.86 1.234-2.25Zm0 0"/></symbol><symbol overflow="visible" id="y"><path style="stroke:none" d="M2.36-3.656a.77.77 0 0 0-.782-.766.767.767 0 0 0-.766.766.774.774 0 1 0 1.547 0Zm0 2.875a.784.784 0 0 0-.782-.781.78.78 0 0 0-.766.78.774.774 0 1 0 1.547 0Zm0 0"/></symbol><symbol overflow="visible" id="z"><path style="stroke:none" d="M4.922 0v-.469h-1.39v-5.734c0-.234 0-.328-.266-.328-.11 0-.125 0-.22.078-.765.562-1.796.562-2 .562H.845v.47h.203c.156 0 .703-.016 1.297-.204v5.156H.954V0c.437-.031 1.5-.031 1.984-.031s1.546 0 1.984.031Zm0 0"/></symbol><symbol overflow="visible" id="A"><path style="stroke:none" d="M3.813 2.344c0-.047-.032-.094-.032-.094-.297-.281-.937-.89-1.36-2.156-.265-.797-.374-1.703-.374-2.594 0-1.953.5-3.516 1.61-4.625.14-.156.155-.156.155-.219 0-.11-.109-.14-.187-.14-.172 0-.578.375-.766.546C1.313-5.39 1.08-3.563 1.08-2.5c0 1.25.327 2.344.796 3.172.656 1.14 1.563 1.812 1.75 1.812.078 0 .188-.03.188-.14Zm0 0"/></symbol><symbol overflow="visible" id="B"><path style="stroke:none" d="M5.156-2.219h-.468c-.032.203-.125.844-.266.906-.11.063-.86.063-1.016.063H1.937c.47-.39 1-.813 1.438-1.14 1.14-.844 1.781-1.313 1.781-2.25 0-1.157-1.047-1.891-2.437-1.891-1.219 0-2.156.625-2.156 1.515 0 .594.484.735.718.735C1.61-4.281 2-4.5 2-5c0-.516-.422-.672-.563-.719.282-.234.672-.343 1.032-.343.844 0 1.312.671 1.312 1.421 0 .688-.375 1.375-1.078 2.079l-2 2.046c-.14.11-.14.141-.14.344V0h4.28Zm0 0"/></symbol><symbol overflow="visible" id="C"><path style="stroke:none" d="M7.938-7.172a.31.31 0 0 0-.297-.312c-.141 0-.22.093-.297.203-.438.515-1.078.86-1.953.86-1.157 0-1.97-.579-2.266-.798-.203-.14-.438-.265-.766-.265-.843 0-1.718.609-1.718 2.015 0 1.438.906 2.016 1.718 2.016.735 0 1.454-.594 1.454-2.016 0-.172 0-.531-.141-1 .656.297 1.234.407 1.719.407.218 0 .671-.016 1.171-.22L1.704 0s-.11.14-.11.25c0 .172.141.313.313.313.14 0 .188-.063.25-.157l5.672-7.328c.078-.094.11-.14.11-.25Zm.968 5.719c0-1.453-.765-2-1.469-2-.843 0-1.718.61-1.718 2 0 1.437.906 2.016 1.718 2.016.735 0 1.47-.594 1.47-2.016ZM3.344-5.47c0 1.297-.594 1.657-.969 1.657-.703 0-.703-1.032-.703-1.657s0-1.656.703-1.656c.422 0 .969.422.969 1.656Zm5.094 4.016c0 1.297-.61 1.656-.985 1.656-.703 0-.703-1.031-.703-1.656s0-1.64.703-1.64c.438 0 .984.405.984 1.64Zm0 0"/></symbol><symbol overflow="visible" id="D"><path style="stroke:none" d="M3.375-2.5c0-1.234-.328-2.328-.797-3.156C1.906-6.813 1-7.484.813-7.484c-.079 0-.172.03-.172.14 0 .063 0 .078.171.235C2.063-5.83 2.407-4.063 2.407-2.5c0 1.969-.515 3.531-1.61 4.64-.155.141-.155.157-.155.204 0 .11.093.14.171.14.172 0 .594-.375.766-.546C3.141.405 3.375-1.438 3.375-2.5Zm0 0"/></symbol><symbol overflow="visible" id="E"><path style="stroke:none" d="M5.406 0v-.469h-.968v-1.094h.968v-.468h-.968V-6.22c0-.265-.016-.328-.297-.328-.22 0-.22.016-.344.172L.312-2.031v.469h2.876V-.47h-1.11V0c.375-.031 1.281-.031 1.703-.031.406 0 1.266 0 1.625.031Zm-2.11-2.031H.845L3.297-5.11Zm0 0"/></symbol><symbol overflow="visible" id="F"><path style="stroke:none" d="M5.984 0v-.469c-.609 0-.687 0-.687-.39v-6.063l-1.766.078v.469c.625 0 .703 0 .703.39v1.954a2.178 2.178 0 0 0-1.359-.453c-1.453 0-2.5.875-2.5 2.28 0 1.313.922 2.267 2.39 2.267.61 0 1.094-.235 1.407-.485v.484ZM4.172-1.031c-.14.187-.547.734-1.297.734-1.219 0-1.219-1.203-1.219-1.906 0-.485 0-1.016.25-1.406.297-.422.766-.516 1.078-.516.563 0 .97.313 1.188.61Zm0 0"/></symbol><symbol overflow="visible" id="G"><path style="stroke:none" d="M5.25-1.797c0-.547-.297-1.406-1.734-1.719.687-.203 1.406-.765 1.406-1.625 0-.765-.75-1.39-2.156-1.39-1.188 0-1.97.64-1.97 1.437 0 .422.313.703.688.703a.668.668 0 0 0 .704-.687c0-.578-.547-.688-.579-.703.344-.282.782-.36 1.094-.36.828 0 .86.641.86.97 0 .124-.016 1.437-1.047 1.5-.407.015-.438.015-.485.03-.094.016-.125.11-.125.172 0 .172.11.172.282.172h.437c1.094 0 1.094.985 1.094 1.5 0 .469 0 1.484-1.031 1.484-.266 0-.782-.046-1.266-.343C1.75-.75 2-1 2-1.406c0-.453-.313-.75-.75-.75-.422 0-.766.265-.766.765 0 .907.97 1.5 2.25 1.5 1.782 0 2.516-1 2.516-1.906Zm0 0"/></symbol><symbol overflow="visible" id="H"><path style="stroke:none" d="M5.25-2.047c0-1.39-1.016-2.125-2.219-2.125-.219 0-.781 0-1.203.766v-.188c0-1.14.219-1.562.281-1.719.25-.468.782-.828 1.391-.828.172 0 .516.032.75.266a.595.595 0 0 0-.547.61c0 .343.235.624.625.624s.625-.265.625-.64c0-.625-.422-1.25-1.469-1.25-1.359 0-3 .86-3 3.375 0 .781.079 1.578.5 2.265.47.766 1.22 1 1.922 1C4.281.11 5.25-.703 5.25-2.047Zm-1.36-.015c0 1 0 1.75-1.015 1.75-.516 0-.781-.391-.86-.563-.156-.313-.156-1.031-.156-1.219 0-1.25.532-1.719 1.079-1.719.953 0 .953.75.953 1.75Zm0 0"/></symbol><symbol overflow="visible" id="I"><path style="stroke:none" d="M5.25-3.281c0-.672 0-3.25-2.375-3.25-1.406 0-2.39.812-2.39 2.14 0 1.375.984 2.125 2.203 2.125.359 0 .828-.062 1.203-.765v.219c0 .734-.094 1.312-.235 1.656-.172.39-.61.843-1.297.843-.171 0-.53-.03-.828-.218.11-.031.485-.172.485-.625 0-.344-.235-.625-.625-.625-.391 0-.625.265-.625.64 0 .688.515 1.25 1.609 1.25C3.672.11 5.25-.734 5.25-3.28Zm-1.375-.985c0 .625-.25 1.641-1.094 1.641-.953 0-.953-.75-.953-1.734 0-.985 0-1.782 1.078-1.782.578 0 .813.532.86.625.109.329.109.907.109 1.25Zm0 0"/></symbol><symbol overflow="visible" id="J"><path style="stroke:none" d="M5.25-1.86c0-1.077-.844-1.546-1.328-1.827.687-.36 1-.797 1-1.376 0-1.015-.906-1.468-2.047-1.468-1.375 0-2.078.797-2.078 1.75 0 .437.187 1.062.953 1.5C.922-2.906.484-2.344.484-1.61.484-.406 1.563.109 2.844.109 4.438.11 5.25-.766 5.25-1.859ZM4.172-5.046c0 .484-.25.813-.688 1.11l-1.5-.844c-.156-.078-.437-.25-.437-.594 0-.703.89-.766 1.297-.766.828 0 1.328.407 1.328 1.094Zm.219 3.734c0 .829-.938 1-1.516 1-.969 0-1.547-.515-1.547-1.296 0-.766.531-1.204.89-1.407l1.36.766c.438.25.813.453.813.938Zm0 0"/></symbol><clipPath id="q"><path d="M0 0h284v162.152H0Zm0 0"/></clipPath><clipPath id="r"><path d="M0 0h298v162.152H0Zm0 0"/></clipPath><clipPath id="s"><path d="M0 0h338.656v162.152H0Zm0 0"/></clipPath><clipPath id="t"><path d="M43 0h295.656v162.152H43Zm0 0"/></clipPath></defs><g style="fill:#000;fill-opacity:1"><use xlink:href="#a" x="128.559" y="76.382"/><use xlink:href="#b" x="137.157" y="76.382"/><use xlink:href="#c" x="142.726" y="76.382"/><use xlink:href="#d" x="147.179" y="76.382"/><use xlink:href="#e" x="150.357" y="76.382"/><use xlink:href="#f" x="156.723" y="76.382"/><use xlink:href="#g" x="162.452" y="76.382"/></g><g style="fill:#000;fill-opacity:1"><use xlink:href="#f" x="170.292" y="76.382"/><use xlink:href="#d" x="176.021" y="76.382"/><use xlink:href="#h" x="179.199" y="76.382"/></g><g style="fill:#000;fill-opacity:1"><use xlink:href="#i" x="184.938" y="76.382"/><use xlink:href="#e" x="190.188" y="76.382"/></g><use xlink:href="#j" x="199.862" y="76.382" style="fill:#000;fill-opacity:1"/><use xlink:href="#k" x="205.919" y="76.382" style="fill:#000;fill-opacity:1"/><g style="fill:#000;fill-opacity:1"><use xlink:href="#l" x="133.113" y="88.337"/><use xlink:href="#m" x="138.842" y="88.337"/></g><g style="fill:#000;fill-opacity:1"><use xlink:href="#n" x="147.888" y="88.337"/><use xlink:href="#b" x="154.254" y="88.337"/><use xlink:href="#o" x="159.823" y="88.337"/><use xlink:href="#c" x="164.545" y="88.337"/><use xlink:href="#d" x="168.998" y="88.337"/><use xlink:href="#p" x="172.177" y="88.337"/><use xlink:href="#d" x="177.267" y="88.337"/><use xlink:href="#n" x="180.446" y="88.337"/><use xlink:href="#b" x="186.812" y="88.337"/><use xlink:href="#e" x="192.381" y="88.337"/></g><g style="fill:#000;fill-opacity:1"><use xlink:href="#c" x="198.438" y="88.337"/><use xlink:href="#g" x="202.891" y="88.337"/></g><g clip-path="url(#q)"><path style="fill:none;stroke-width:11.33871;stroke-linecap:butt;stroke-linejoin:miter;stroke:#00bf00;stroke-opacity:1;stroke-miterlimit:10" d="M-47.55 30.877a56.714 56.714 0 0 1-8.1-20.059" transform="matrix(1 0 0 -1 170.26 79.869)"/></g><g clip-path="url(#r)"><path style="fill:none;stroke-width:11.33871;stroke-linecap:butt;stroke-linejoin:miter;stroke:#66d966;stroke-opacity:1;stroke-miterlimit:10" d="M-33.322-45.865a56.698 56.698 0 0 0-22.329 56.683" transform="matrix(1 0 0 -1 170.26 79.869)"/></g><g clip-path="url(#s)"><path style="fill:none;stroke-width:11.33871;stroke-linecap:butt;stroke-linejoin:miter;stroke:#666;stroke-opacity:1;stroke-miterlimit:10" d="M-33.322-45.865c19.867-14.438 46.777-14.438 66.644 0" transform="matrix(1 0 0 -1 170.26 79.869)"/></g><g clip-path="url(#t)"><path style="fill:none;stroke-width:11.33871;stroke-linecap:butt;stroke-linejoin:miter;stroke:#f66;stroke-opacity:1;stroke-miterlimit:10" d="M33.322-45.865A56.695 56.695 0 0 1 56.615 2.967" transform="matrix(1 0 0 -1 170.26 79.869)"/></g><path style="fill:none;stroke-width:.79701;stroke-linecap:butt;stroke-linejoin:miter;stroke:#d9d9d9;stroke-opacity:1;stroke-miterlimit:10" d="M.002-51.026V-62.36M6.217-50.643 7.599-61.9M12.342-49.51l2.746-11M18.287-47.635l4.062-10.586M23.955-45.053l5.324-10.012M29.99-41.28l6.664-9.171M34.799-37.319l7.734-8.289M39.088-32.799l8.683-7.289M42.79-27.791l9.513-6.176M45.861-22.37l10.192-4.968M48.53-15.768l10.78-3.504M50.088-9.736l11.129-2.165M50.9-3.56l11.313-.79M50.955 2.67l11.324.594M50.248 8.861l11.168 1.969M48.53 15.767l10.78 3.504M46.244 21.564l10.277 4.793M43.271 27.037l9.617 6.012M39.654 32.111l8.813 7.137M35.443 36.705l7.879 8.156M29.99 41.28l6.664 9.171M24.736 44.627l5.5 9.918M19.115 47.31l4.246 10.512M13.205 49.287l2.937 10.95M7.1 50.53l1.578 11.226M.002 51.025v11.336M-6.217 50.642-7.6 61.9M-12.342 49.51l-2.746 11M-18.287 47.635-22.35 58.22M-23.955 45.053l-5.32 10.011M-29.99 41.28l-6.665 9.171M-34.8 37.318l-7.733 8.293M-39.088 32.799l-8.684 7.289M-42.791 27.79l-9.512 6.177M-45.862 22.369l-10.191 4.969M-48.526 15.767l-10.785 3.504M-50.088 9.736-61.217 11.9M-50.9 3.56l-11.31.79M-50.955-2.67l-11.32-.594M-50.248-8.861l-11.168-1.97M-48.526-15.768l-10.785-3.504M-46.244-21.565l-10.278-4.793M-43.272-27.037l-9.617-6.012M-39.655-32.111l-8.812-7.133M-35.444-36.705l-7.878-8.156M-29.99-41.28l-6.665-9.171M-24.737-44.627l-5.5-9.918M-19.115-47.31l-4.247-10.512M-13.205-49.287l-2.934-10.95M-7.1-50.53l-1.578-11.226" transform="matrix(1 0 0 -1 170.26 79.869)"/><g style="fill:#000;fill-opacity:1"><use xlink:href="#u" x="131.961" y="158.693"/><use xlink:href="#v" x="137.65" y="158.693"/><use xlink:href="#w" x="143.378" y="158.693"/><use xlink:href="#x" x="149.426" y="158.693"/><use xlink:href="#y" x="155.114" y="158.693"/></g><g style="fill:#000;fill-opacity:1"><use xlink:href="#z" x="163.373" y="158.693"/><use xlink:href="#m" x="169.102" y="158.693"/></g><g style="fill:#000;fill-opacity:1"><use xlink:href="#A" x="178.646" y="158.693"/><use xlink:href="#B" x="183.099" y="158.693"/><use xlink:href="#m" x="188.828" y="158.693"/><use xlink:href="#C" x="194.556" y="158.693"/><use xlink:href="#D" x="204.1" y="158.693"/></g><g style="fill:#000;fill-opacity:1"><use xlink:href="#e" x="147.822" y="8.162"/><use xlink:href="#v" x="154.188" y="8.162"/><use xlink:href="#e" x="159.917" y="8.162"/><use xlink:href="#i" x="166.283" y="8.162"/><use xlink:href="#y" x="171.533" y="8.162"/></g><g style="fill:#000;fill-opacity:1"><use xlink:href="#B" x="179.792" y="8.162"/><use xlink:href="#m" x="185.521" y="8.162"/></g><g style="fill:#000;fill-opacity:1"><use xlink:href="#A" x="195.065" y="8.162"/><use xlink:href="#E" x="199.518" y="8.162"/><use xlink:href="#m" x="205.247" y="8.162"/><use xlink:href="#C" x="210.975" y="8.162"/><use xlink:href="#D" x="220.519" y="8.162"/></g><g style="fill:#000;fill-opacity:1"><use xlink:href="#u" x="-.069" y="60.016"/><use xlink:href="#h" x="5.62" y="60.016"/></g><g style="fill:#000;fill-opacity:1"><use xlink:href="#i" x="11.348" y="60.016"/><use xlink:href="#o" x="16.598" y="60.016"/><use xlink:href="#k" x="21.321" y="60.016"/></g><g style="fill:#000;fill-opacity:1"><use xlink:href="#f" x="31.184" y="60.016"/><use xlink:href="#v" x="36.912" y="60.016"/></g><use xlink:href="#v" x="42.96" y="60.016" style="fill:#000;fill-opacity:1"/><g style="fill:#000;fill-opacity:1"><use xlink:href="#F" x="49.007" y="60.016"/><use xlink:href="#x" x="55.373" y="60.016"/><use xlink:href="#y" x="61.062" y="60.016"/></g><use xlink:href="#G" x="69.321" y="60.016" style="fill:#000;fill-opacity:1"/><g style="fill:#000;fill-opacity:1"><use xlink:href="#A" x="78.865" y="60.016"/><use xlink:href="#H" x="83.318" y="60.016"/><use xlink:href="#C" x="89.047" y="60.016"/><use xlink:href="#D" x="98.591" y="60.016"/></g><g style="fill:#000;fill-opacity:1"><use xlink:href="#u" x="20.165" y="105.726"/><use xlink:href="#f" x="25.854" y="105.726"/><use xlink:href="#v" x="31.582" y="105.726"/></g><use xlink:href="#v" x="37.63" y="105.726" style="fill:#000;fill-opacity:1"/><g style="fill:#000;fill-opacity:1"><use xlink:href="#F" x="43.677" y="105.726"/><use xlink:href="#x" x="50.043" y="105.726"/><use xlink:href="#y" x="55.732" y="105.726"/></g><use xlink:href="#I" x="63.991" y="105.726" style="fill:#000;fill-opacity:1"/><g style="fill:#000;fill-opacity:1"><use xlink:href="#A" x="73.535" y="105.726"/><use xlink:href="#z" x="77.988" y="105.726"/><use xlink:href="#J" x="83.717" y="105.726"/><use xlink:href="#C" x="89.445" y="105.726"/><use xlink:href="#D" x="98.989" y="105.726"/></g><g style="fill:#000;fill-opacity:1"><use xlink:href="#u" x="235.769" y="108.721"/><use xlink:href="#j" x="241.458" y="108.721"/><use xlink:href="#b" x="247.824" y="108.721"/><use xlink:href="#F" x="253.393" y="108.721"/><use xlink:href="#x" x="259.759" y="108.721"/><use xlink:href="#y" x="265.448" y="108.721"/></g><use xlink:href="#J" x="273.707" y="108.721" style="fill:#000;fill-opacity:1"/><g style="fill:#000;fill-opacity:1"><use xlink:href="#A" x="283.251" y="108.721"/><use xlink:href="#z" x="287.704" y="108.721"/><use xlink:href="#H" x="293.433" y="108.721"/><use xlink:href="#C" x="299.161" y="108.721"/><use xlink:href="#D" x="308.705" y="108.721"/></g><g style="fill:#000;fill-opacity:1"><use xlink:href="#u" x="241.527" y="79.101"/><use xlink:href="#h" x="247.216" y="79.101"/></g><g style="fill:#000;fill-opacity:1"><use xlink:href="#i" x="252.944" y="79.101"/><use xlink:href="#o" x="258.194" y="79.101"/><use xlink:href="#k" x="262.917" y="79.101"/></g><g style="fill:#000;fill-opacity:1"><use xlink:href="#j" x="272.78" y="79.101"/><use xlink:href="#b" x="279.146" y="79.101"/><use xlink:href="#F" x="284.715" y="79.101"/><use xlink:href="#x" x="291.081" y="79.101"/><use xlink:href="#y" x="296.77" y="79.101"/></g><use xlink:href="#m" x="305.029" y="79.101" style="fill:#000;fill-opacity:1"/><g style="fill:#000;fill-opacity:1"><use xlink:href="#A" x="314.573" y="79.101"/><use xlink:href="#m" x="319.026" y="79.101"/><use xlink:href="#C" x="324.755" y="79.101"/><use xlink:href="#D" x="334.299" y="79.101"/></g><path style="fill:none;stroke-width:.3985;stroke-linecap:butt;stroke-linejoin:miter;stroke:gray;stroke-opacity:1;stroke-miterlimit:10" d="M62.361.002c0 34.441-27.918 62.36-62.36 62.36-34.445 0-62.363-27.919-62.363-62.36 0-34.446 27.918-62.363 62.364-62.363 34.441 0 62.36 27.917 62.36 62.363Zm-11.336 0c0 28.18-22.844 51.023-51.023 51.023-28.184 0-51.028-22.843-51.028-51.023 0-28.184 22.844-51.028 51.028-51.028 28.18 0 51.023 22.844 51.023 51.028Zm0 0" transform="matrix(1 0 0 -1 170.26 79.869)"/></svg>