<svg xmlns="http://www.w3.org/2000/svg" xmlns:xlink="http://www.w3.org/1999/xlink" width="116.585" height="78.789" viewBox="0 0 87.439 59.092" version="1.2"><defs><clipPath id="e"><path d="M.918.746h42.52v56.691H.917Zm0 0"/></clipPath><clipPath id="a"><path d="M0 0h29v29H0z"/></clipPath><clipPath id="g"><path d="M43.438.746h42.519v56.691h-42.52Zm0 0"/></clipPath><clipPath id="c"><path d="M0 0h29v29H0z"/></clipPath><pattern id="f" patternUnits="userSpaceOnUse" width="29" height="29" patternTransform="matrix(.97748 0 0 -.97748 -143.28 13608.547)"><use xlink:href="#b"/></pattern><pattern id="h" patternUnits="userSpaceOnUse" width="29" height="29" patternTransform="matrix(.97748 0 0 -.97748 -143.28 13608.547)"><use xlink:href="#d"/></pattern><g id="b" clip-path="url(#a)"><path style="stroke:none;fill-rule:nonzero;fill:red;fill-opacity:1" d="M26.102 14.5 5.117 21.316 18.086 3.47V25.53L5.117 7.684Zm0 0"/></g><g id="d" clip-path="url(#c)"><path style="fill-rule:nonzero;fill:green;fill-opacity:1;stroke-width:2;stroke-linecap:butt;stroke-linejoin:miter;stroke:#000;stroke-opacity:1;stroke-miterlimit:10" d="M25.514 14.173 5.002 20.836 17.679 3.391v21.565L5.002 7.511Zm0 0" transform="scale(1.02304)"/></g></defs><g clip-path="url(#e)"><path style="stroke:none;fill-rule:nonzero;fill:url(#f)" d="M.918 57.438h42.52V.742H.917Zm0 0"/></g><path style="fill:none;stroke-width:.3985;stroke-linecap:butt;stroke-linejoin:miter;stroke:#000;stroke-opacity:1;stroke-miterlimit:10" d="M0 .002v56.69h42.519V.003Zm0 0" transform="matrix(1 0 0 -1 .918 57.439)"/><g clip-path="url(#g)"><path style="stroke:none;fill-rule:nonzero;fill:url(#h)" d="M43.438 57.438h42.519V.742h-42.52Zm0 0"/></g><path style="fill:none;stroke-width:.3985;stroke-linecap:butt;stroke-linejoin:miter;stroke:#000;stroke-opacity:1;stroke-miterlimit:10" d="M42.519.002v56.69h42.52V.003Zm0 0" transform="matrix(1 0 0 -1 .918 57.439)"/></svg>