<svg xmlns="http://www.w3.org/2000/svg" xmlns:xlink="http://www.w3.org/1999/xlink" width="65.235" height="64.097" viewBox="0 0 48.926 48.073" version="1.2"><defs><clipPath id="b"><path d="M7 0h41.89v42H7Zm0 0"/></clipPath><clipPath id="c"><path d="M18 0h30.89v30H18Zm0 0"/></clipPath><symbol overflow="visible" id="a"><path style="stroke:none" d="M8.25 0v-.469h-.969L4.72-6.703c-.11-.25-.219-.25-.39-.25-.282 0-.329.078-.391.25l-2.47 6c-.062.156-.093.234-.843.234H.406V0l1.172-.031c.39 0 .938 0 1.313.031v-.469S2-.469 2-.594l.047-.125.5-1.203h2.672l.593 1.453H4.86V0c.391-.031 1.329-.031 1.766-.031.39 0 1.266 0 1.625.031ZM5.016-2.39H2.734l1.141-2.766Zm0 0"/></symbol><symbol overflow="visible" id="d"><path style="stroke:none" d="M7.5-1.86c0-.952-.844-1.624-2.031-1.702 1.078-.204 1.718-.797 1.718-1.563 0-.922-.875-1.719-2.468-1.719H.39v.469h1.078v5.906H.39V0h4.625C6.672 0 7.5-.875 7.5-1.86ZM5.766-5.124c0 .766-.47 1.39-1.438 1.39H2.766v-2.64h1.812c1.016 0 1.188.797 1.188 1.25Zm.28 3.266c0 .109 0 1.39-1.437 1.39H2.766v-2.906h1.937c.203 0 .672 0 1.016.422.328.422.328.984.328 1.094Zm0 0"/></symbol></defs><path style="fill:none;stroke-width:.3985;stroke-linecap:butt;stroke-linejoin:miter;stroke:#000;stroke-opacity:1;stroke-miterlimit:10" d="m0 0 28.348 28.348M-7.648-6.797H7.65V6.797H-7.648Zm0 0" transform="matrix(1 0 0 -1 8.812 39.614)"/><use xlink:href="#a" x="4.483" y="43.09" style="fill:#000;fill-opacity:1"/><g clip-path="url(#b)"><path style="fill:none;stroke-width:1.39478;stroke-linecap:butt;stroke-linejoin:miter;stroke:#000;stroke-opacity:1;stroke-miterlimit:10" d="M38.364 28.348c0 5.531-4.485 10.016-10.016 10.016-5.535 0-10.02-4.485-10.02-10.016 0-5.535 4.485-10.02 10.02-10.02 5.531 0 10.016 4.485 10.016 10.02Zm0 0" transform="matrix(1 0 0 -1 8.812 39.614)"/></g><g clip-path="url(#c)"><path style="fill:none;stroke-width:.59776;stroke-linecap:butt;stroke-linejoin:miter;stroke:#fff;stroke-opacity:1;stroke-miterlimit:10" d="M38.364 28.348c0 5.531-4.485 10.016-10.016 10.016-5.535 0-10.02-4.485-10.02-10.016 0-5.535 4.485-10.02 10.02-10.02 5.531 0 10.016 4.485 10.016 10.02Zm0 0" transform="matrix(1 0 0 -1 8.812 39.614)"/></g><use xlink:href="#d" x="33.083" y="14.684" style="fill:#000;fill-opacity:1"/></svg>