<svg xmlns="http://www.w3.org/2000/svg" width="78.843" height="78.843" viewBox="0 0 59.132 59.132" version="1.2"><defs><clipPath id="a"><path d="M37 21h21.7v14H37Zm0 0"/></clipPath><clipPath id="b"><path d="M37 16h21.7v17H37Zm0 0"/></clipPath><clipPath id="c"><path d="M36 11h22.7v19H36Zm0 0"/></clipPath><clipPath id="d"><path d="M35 7h23.7v21H35Zm0 0"/></clipPath><clipPath id="e"><path d="M9 35h20v23.7H9Zm0 0"/></clipPath><clipPath id="f"><path d="M13 36h19v22.7H13Zm0 0"/></clipPath><clipPath id="g"><path d="M18 37h16v21.7H18Zm0 0"/></clipPath><clipPath id="h"><path d="M23 37h15v21.7H23Zm0 0"/></clipPath><clipPath id="i"><path d="M25 37h18v21.7H25Zm0 0"/></clipPath><clipPath id="j"><path d="M28 36h19v22.7H28Zm0 0"/></clipPath><clipPath id="k"><path d="M30 35h22v23.7H30Zm0 0"/></clipPath><clipPath id="l"><path d="M35 29h23.7v20H35Zm0 0"/></clipPath><clipPath id="m"><path d="M36 27h22.7v18H36Zm0 0"/></clipPath><clipPath id="n"><path d="M37 24h21.7v16H37Zm0 0"/></clipPath></defs><path style="stroke:none;fill-rule:nonzero;fill:#80ff80;fill-opacity:1" d="M43.305 29.129h14.172l-.11-2.469-14.117 1.235Zm0 0"/><g clip-path="url(#a)"><path style="fill:none;stroke-width:.3985;stroke-linecap:butt;stroke-linejoin:miter;stroke:#0f0;stroke-opacity:1;stroke-miterlimit:10" d="M14.175.001h14.172l-.11 2.469L14.12 1.235Zm0 0" transform="matrix(1 0 0 -1 29.13 29.13)"/></g><path style="stroke:none;fill-rule:nonzero;fill:#80ff80;fill-opacity:1" d="m43.09 26.668 13.957-2.461-.535-2.414-13.692 3.668Zm0 0"/><g clip-path="url(#b)"><path style="fill:none;stroke-width:.3985;stroke-linecap:butt;stroke-linejoin:miter;stroke:#0f0;stroke-opacity:1;stroke-miterlimit:10" d="m13.96 2.462 13.957 2.461-.535 2.414L13.69 3.669Zm0 0" transform="matrix(1 0 0 -1 29.13 29.13)"/></g><path style="stroke:none;fill-rule:nonzero;fill:#80ff80;fill-opacity:1" d="m42.45 24.281 13.316-4.847-.946-2.286-12.843 5.993Zm0 0"/><g clip-path="url(#c)"><path style="fill:none;stroke-width:.3985;stroke-linecap:butt;stroke-linejoin:miter;stroke:#0f0;stroke-opacity:1;stroke-miterlimit:10" d="m13.32 4.849 13.316 4.847-.946 2.286-12.843-5.993Zm0 0" transform="matrix(1 0 0 -1 29.13 29.13)"/></g><path style="stroke:none;fill-rule:nonzero;fill:#80ff80;fill-opacity:1" d="m41.406 22.043 12.274-7.086-1.328-2.086L40.738 21Zm0 0"/><g clip-path="url(#d)"><path style="fill:none;stroke-width:.3985;stroke-linecap:butt;stroke-linejoin:miter;stroke:#0f0;stroke-opacity:1;stroke-miterlimit:10" d="m12.276 7.087 12.274 7.086-1.328 2.086L11.608 8.13Zm0 0" transform="matrix(1 0 0 -1 29.13 29.13)"/></g><path style="fill-rule:nonzero;fill:#80ff80;fill-opacity:1;stroke-width:.3985;stroke-linecap:butt;stroke-linejoin:miter;stroke:#0f0;stroke-opacity:1;stroke-miterlimit:10" d="m10.858 9.11 10.856 9.11-1.668 1.824-10.024-10.023ZM9.112 10.857l9.11 10.859-1.961 1.504-8.133-11.61ZM7.085 12.275l7.09 12.273-2.196 1.145-5.988-12.848ZM4.847 13.318l4.847 13.32-2.36.742-3.667-13.691ZM2.46 13.958l2.46 13.957-2.448.324-1.235-14.12Zm0 0" transform="matrix(1 0 0 -1 29.13 29.13)"/><path style="fill-rule:nonzero;fill:#ff8080;fill-opacity:1;stroke-width:.3985;stroke-linecap:butt;stroke-linejoin:miter;stroke:red;stroke-opacity:1;stroke-miterlimit:10" d="M-.001 14.173v14.176l-2.469-.11 1.235-14.12ZM-2.462 13.958l-2.461 13.957-2.414-.535 3.668-13.691ZM-4.849 13.318l-4.847 13.32-2.286-.946 5.993-12.847ZM-7.087 12.275l-7.086 12.273-2.086-1.328 8.129-11.61ZM-9.11 10.857l-9.11 10.859-1.824-1.672 10.023-10.023ZM-10.857 9.11l-10.859 9.11-1.504-1.961 11.61-8.129ZM-12.275 7.087l-12.273 7.086-1.145-2.191 12.848-5.993ZM-13.318 4.849l-13.32 4.847-.742-2.359 13.691-3.668ZM-13.958 2.462l-13.957 2.461-.324-2.453 14.12-1.235Zm0 0" transform="matrix(1 0 0 -1 29.13 29.13)"/><path style="fill-rule:nonzero;fill:#8080ff;fill-opacity:1;stroke-width:.3985;stroke-linecap:butt;stroke-linejoin:miter;stroke:#00f;stroke-opacity:1;stroke-miterlimit:10" d="M-14.173.001h-14.176l.11-2.473 14.12 1.235ZM-13.958-2.46l-13.957-2.46.535-2.415 13.691 3.668ZM-13.318-4.847l-13.32-4.847.946-2.285 12.847 5.988ZM-12.275-7.085l-12.273-7.09 1.328-2.086 11.61 8.133ZM-10.857-9.112l-10.859-9.11 1.672-1.824 10.023 10.024ZM-9.11-10.858l-9.11-10.856 1.961-1.508 8.129 11.614Zm0 0" transform="matrix(1 0 0 -1 29.13 29.13)"/><path style="stroke:none;fill-rule:nonzero;fill:#8080ff;fill-opacity:1" d="M22.043 41.406 14.957 53.68l2.191 1.14 5.993-12.843Zm0 0"/><g clip-path="url(#e)"><path style="fill:none;stroke-width:.3985;stroke-linecap:butt;stroke-linejoin:miter;stroke:#00f;stroke-opacity:1;stroke-miterlimit:10" d="m-7.087-12.276-7.086-12.274 2.191-1.14 5.993 12.843Zm0 0" transform="matrix(1 0 0 -1 29.13 29.13)"/></g><path style="stroke:none;fill-rule:nonzero;fill:#8080ff;fill-opacity:1" d="m24.281 42.45-4.847 13.316 2.359.746 3.668-13.692Zm0 0"/><g clip-path="url(#f)"><path style="fill:none;stroke-width:.3985;stroke-linecap:butt;stroke-linejoin:miter;stroke:#00f;stroke-opacity:1;stroke-miterlimit:10" d="m-4.849-13.32-4.847-13.316 2.359-.746 3.668 13.692Zm0 0" transform="matrix(1 0 0 -1 29.13 29.13)"/></g><path style="stroke:none;fill-rule:nonzero;fill:#8080ff;fill-opacity:1" d="m26.668 43.09-2.461 13.957 2.453.32 1.235-14.117Zm0 0"/><g clip-path="url(#g)"><path style="fill:none;stroke-width:.3985;stroke-linecap:butt;stroke-linejoin:miter;stroke:#00f;stroke-opacity:1;stroke-miterlimit:10" d="m-2.462-13.96-2.461-13.957 2.453-.32 1.235 14.117Zm0 0" transform="matrix(1 0 0 -1 29.13 29.13)"/></g><path style="stroke:none;fill-rule:nonzero;fill:#ffbf80;fill-opacity:1" d="M29.129 43.305v14.172l2.473-.11-1.235-14.117Zm0 0"/><g clip-path="url(#h)"><path style="fill:none;stroke-width:.3985;stroke-linecap:butt;stroke-linejoin:miter;stroke:#ff8000;stroke-opacity:1;stroke-miterlimit:10" d="M-.001-14.175v-14.172l2.473.11L1.237-14.12Zm0 0" transform="matrix(1 0 0 -1 29.13 29.13)"/></g><path style="stroke:none;fill-rule:nonzero;fill:#ffbf80;fill-opacity:1" d="m31.59 43.09 2.46 13.957 2.415-.535-3.668-13.692Zm0 0"/><g clip-path="url(#i)"><path style="fill:none;stroke-width:.3985;stroke-linecap:butt;stroke-linejoin:miter;stroke:#ff8000;stroke-opacity:1;stroke-miterlimit:10" d="m2.46-13.96 2.46-13.957 2.415.535L3.667-13.69Zm0 0" transform="matrix(1 0 0 -1 29.13 29.13)"/></g><path style="stroke:none;fill-rule:nonzero;fill:#ffbf80;fill-opacity:1" d="m33.977 42.45 4.847 13.316 2.285-.946-5.988-12.843Zm0 0"/><g clip-path="url(#j)"><path style="fill:none;stroke-width:.3985;stroke-linecap:butt;stroke-linejoin:miter;stroke:#ff8000;stroke-opacity:1;stroke-miterlimit:10" d="m4.847-13.32 4.847-13.316 2.285.946-5.988 12.843Zm0 0" transform="matrix(1 0 0 -1 29.13 29.13)"/></g><path style="stroke:none;fill-rule:nonzero;fill:#ffbf80;fill-opacity:1" d="m36.215 41.406 7.09 12.274 2.086-1.328-8.133-11.614Zm0 0"/><g clip-path="url(#k)"><path style="fill:none;stroke-width:.3985;stroke-linecap:butt;stroke-linejoin:miter;stroke:#ff8000;stroke-opacity:1;stroke-miterlimit:10" d="m7.085-12.276 7.09-12.274 2.086 1.328-8.133 11.614Zm0 0" transform="matrix(1 0 0 -1 29.13 29.13)"/></g><path style="fill-rule:nonzero;fill:#ffbf80;fill-opacity:1;stroke-width:.3985;stroke-linecap:butt;stroke-linejoin:miter;stroke:#ff8000;stroke-opacity:1;stroke-miterlimit:10" d="m9.112-10.858 9.11-10.856 1.824 1.668-10.024 10.024ZM10.858-9.112l10.856-9.11 1.508 1.961-11.614 8.133Zm0 0" transform="matrix(1 0 0 -1 29.13 29.13)"/><path style="stroke:none;fill-rule:nonzero;fill:#ffbf80;fill-opacity:1" d="m41.406 36.215 12.274 7.09 1.14-2.196-12.843-5.988Zm0 0"/><g clip-path="url(#l)"><path style="fill:none;stroke-width:.3985;stroke-linecap:butt;stroke-linejoin:miter;stroke:#ff8000;stroke-opacity:1;stroke-miterlimit:10" d="m12.276-7.085 12.274-7.09 1.14 2.196-12.843 5.988Zm0 0" transform="matrix(1 0 0 -1 29.13 29.13)"/></g><path style="stroke:none;fill-rule:nonzero;fill:#ffbf80;fill-opacity:1" d="m42.45 33.977 13.316 4.847.746-2.36-13.692-3.667Zm0 0"/><g clip-path="url(#m)"><path style="fill:none;stroke-width:.3985;stroke-linecap:butt;stroke-linejoin:miter;stroke:#ff8000;stroke-opacity:1;stroke-miterlimit:10" d="m13.32-4.847 13.316-4.847.746 2.36L13.69-3.668Zm0 0" transform="matrix(1 0 0 -1 29.13 29.13)"/></g><path style="stroke:none;fill-rule:nonzero;fill:#ffbf80;fill-opacity:1" d="m43.09 31.59 13.957 2.46.32-2.448-14.117-1.235Zm0 0"/><g clip-path="url(#n)"><path style="fill:none;stroke-width:.3985;stroke-linecap:butt;stroke-linejoin:miter;stroke:#ff8000;stroke-opacity:1;stroke-miterlimit:10" d="m13.96-2.46 13.957-2.46.32 2.448L14.12-1.237Zm0 0" transform="matrix(1 0 0 -1 29.13 29.13)"/></g></svg>