<svg xmlns="http://www.w3.org/2000/svg" xmlns:xlink="http://www.w3.org/1999/xlink" width="116.077" height="21.819" viewBox="0 0 87.058 16.364" version="1.2"><defs><clipPath id="a"><path d="M30 0h26v16.047H30Zm0 0"/></clipPath><symbol overflow="visible" id="b"><path style="stroke:none" d="M8.25 0v-.469h-.969L4.72-6.703c-.11-.25-.219-.25-.39-.25-.282 0-.329.078-.391.25l-2.47 6c-.062.156-.093.234-.843.234H.406V0l1.172-.031c.39 0 .938 0 1.313.031v-.469S2-.469 2-.594l.047-.125.5-1.203h2.672l.593 1.453H4.86V0c.391-.031 1.329-.031 1.766-.031.39 0 1.266 0 1.625.031ZM5.016-2.39H2.734l1.141-2.766Zm0 0"/></symbol></defs><g clip-path="url(#a)"><path style="fill:none;stroke-width:.3985;stroke-linecap:butt;stroke-linejoin:miter;stroke:#000;stroke-opacity:1;stroke-miterlimit:10" d="M49.493 0a6.972 6.972 0 0 1-6.972 6.973A6.972 6.972 0 0 1 35.548.001a6.972 6.972 0 0 1 6.973-6.973A6.972 6.972 0 0 1 49.493.001Zm0 0" transform="matrix(1 0 0 -1 .538 7.86)"/></g><use xlink:href="#b" x="38.729" y="11.337" style="fill:#000;fill-opacity:1"/><path style="fill:none;stroke-width:.3985;stroke-linecap:butt;stroke-linejoin:miter;stroke:#000;stroke-opacity:1;stroke-miterlimit:10" d="M.001 0H35.35m14.343 0H85.04" transform="matrix(1 0 0 -1 .538 7.86)"/></svg>