<svg xmlns="http://www.w3.org/2000/svg" xmlns:xlink="http://www.w3.org/1999/xlink" width="116.331" height="78.651" viewBox="0 0 87.248 58.988" version="1.2"><defs><symbol overflow="visible" id="b"><path style="stroke:none" d="m11.484-5.75-.312-.625-1.438.719-3.953-7.907 1.438-.718-.313-.64c-.484.296-1.797.968-2.375 1.25-.562.28-1.875.937-2.406 1.14l.313.64 1.437-.718 1.734 3.453L1.33-7l-1.735-3.453 1.453-.735-.313-.64c-.5.312-1.796.953-2.39 1.25-.578.281-1.875.937-2.407 1.14l.313.641 1.453-.719 3.953 7.907-1.453.718.313.625c.5-.296 1.796-.953 2.375-1.234.593-.297 1.89-.938 2.421-1.156L5-3.281l-1.453.734L1.64-6.359l4.28-2.157 1.907 3.813-1.437.719.312.625c.5-.297 1.813-.954 2.375-1.235.578-.281 1.89-.953 2.406-1.156Zm0 0"/></symbol><symbol overflow="visible" id="c"><path style="stroke:none" d="M3.813-1.906 3.5-2.531l-.828.406-2.688-5.39-2.265 1.28.312.626c.782-.407.875-.454 1.14.078l2.063 4.125-.921.468.312.625 1.625-.859ZM-.86-9.703c-.297-.563-1-.813-1.579-.516-.578.281-.812 1-.515 1.563.281.578.984.797 1.562.515.579-.296.813-.984.532-1.562Zm0 0"/></symbol><symbol overflow="visible" id="d"><path style="stroke:none" d="M-.844-10.172c-.265-.515-.953-.703-1.531-.422-.563.297-.844.969-.578 1.485.047.078.062.109.156.218l3.11 4.516c.218.313.218.328.5.188.25-.125.296-.172.203-.454L-.781-9.984Zm3.688 7.438c-.281-.579-.985-.797-1.563-.516a1.163 1.163 0 0 0-.515 1.547c.296.578 1 .828 1.562.531a1.15 1.15 0 0 0 .516-1.562Zm0 0"/></symbol><clipPath id="a"><path d="M0 9h86.871v49.98H0Zm0 0"/></clipPath></defs><path style="fill:none;stroke-width:.19925;stroke-linecap:butt;stroke-linejoin:miter;stroke:gray;stroke-opacity:1;stroke-miterlimit:10" d="M.001.002h85.04M0 28.346h85.04M0 56.686h85.04M0 .001v56.691M28.345.002v56.691M56.693.002v56.691M85.029.002v56.691" transform="matrix(1 0 0 -1 .733 57.787)"/><g clip-path="url(#a)"><path style="fill:none;stroke-width:.3985;stroke-linecap:butt;stroke-linejoin:miter;stroke:#000;stroke-opacity:1;stroke-miterlimit:10" d="m.001.002 85.04 42.52" transform="matrix(1 0 0 -1 .733 57.787)"/></g><g style="fill:#000;fill-opacity:1"><use xlink:href="#b" x="13.864" y="57.11"/><use xlink:href="#c" x="25.893" y="51.096"/><use xlink:href="#d" x="30.156" y="48.964"/></g></svg>