<svg xmlns="http://www.w3.org/2000/svg" width="40.52" height="9.47pt" viewBox="0 0 30.39 9.47" version="1.2"><defs><clipPath id="a"><path d="M0 0h17v9.203H0Zm0 0"/></clipPath></defs><path style="fill:none;stroke-width:.3985;stroke-linecap:butt;stroke-linejoin:miter;stroke:#000;stroke-opacity:1;stroke-miterlimit:10" d="M9.764-.002h18.184" transform="matrix(1 0 0 -1 .732 4.475)"/><path style="stroke:none;fill-rule:nonzero;fill:#000;fill-opacity:1" d="M1.555 4.477c1.097.261 5.925 1.757 8.941 3.386V1.086C7.48 2.715 2.652 4.21 1.555 4.476Zm0 0"/><g clip-path="url(#a)"><path style="fill:none;stroke-width:.3985;stroke-linecap:butt;stroke-linejoin:miter;stroke:#000;stroke-opacity:1;stroke-miterlimit:10" d="M8.94.002C7.844.263 3.016 1.759 0 3.388v-6.777C3.014-1.76 7.842-.264 8.94 0Zm0 0" transform="matrix(-1 0 0 1 10.495 4.475)"/></g><path style="fill:none;stroke-width:.3985;stroke-linecap:round;stroke-linejoin:round;stroke:#000;stroke-opacity:1;stroke-miterlimit:10" d="M-2.073 2.393C-1.694.955-.85.28.001-.002c-.851-.277-1.695-.953-2.074-2.39" transform="matrix(1 0 0 -1 26.409 4.475)"/><path style="fill:none;stroke-width:.3985;stroke-linecap:round;stroke-linejoin:round;stroke:#000;stroke-opacity:1;stroke-miterlimit:10" d="M-2.071 2.393C-1.692.955-.848.28-.001-.002c-.847-.277-1.691-.953-2.07-2.39" transform="matrix(1 0 0 -1 28.88 4.475)"/></svg>