<svg xmlns="http://www.w3.org/2000/svg" width="136.035" height="154.515" viewBox="0 0 102.026 115.886" version="1.2"><defs><clipPath id="a"><path d="M57 71h44v44H57Zm0 0"/></clipPath><clipPath id="b"><path d="M100.125 93.168c0-11.742-9.516-21.258-21.258-21.258-11.742 0-21.262 9.516-21.262 21.258 0 11.742 9.52 21.262 21.262 21.262s21.258-9.52 21.258-21.262Zm0 0"/></clipPath><clipPath id="c"><path d="M46 60h55.54v55.828H46Zm0 0"/></clipPath><clipPath id="d"><path d="M.91 71.91h42.524v42.52H.91Zm0 0"/></clipPath><clipPath id="e"><path d="M203.637 168.336c0-58.711-47.59-106.3-106.301-106.3-58.707 0-106.297 47.589-106.297 106.3 0 58.707 47.59 106.3 106.297 106.3 58.71 0 106.3-47.593 106.3-106.3Zm0 0"/></clipPath><clipPath id="f"><path d="M.91 71.91h42.524v42.52H.91Zm0 0"/></clipPath><clipPath id="g"><path d="M.91 71.91h42.524V112H.91Zm0 0"/></clipPath></defs><path style="fill:none;stroke-width:.19925;stroke-linecap:butt;stroke-linejoin:miter;stroke:gray;stroke-opacity:1;stroke-miterlimit:10" d="M-.002.002h85.043M-.002 28.345h85.043M-.002 56.685h85.043M-.002.002v56.691M28.346.002v56.691M56.693.002v56.691M85.03.002v56.691" transform="matrix(1 0 0 -1 .912 57.736)"/><path style="fill:none;stroke-width:.3985;stroke-linecap:butt;stroke-linejoin:miter;stroke:#000;stroke-opacity:1;stroke-miterlimit:10" d="M-.002.002H2.1v2.097h2.097V.002H6.3v2.097H4.2v2.102H6.3v2.098H8.4V8.4h2.098V6.298H12.6V4.201h2.097V2.099H12.6V.002h2.097v2.097H16.8V.002h2.098v2.097h-2.098v2.102h2.098v2.098h-2.098V4.2h-2.102v2.098H12.6V8.4h-2.102v2.098H12.6v2.101h2.097v2.098H16.8v-2.098h2.098v2.098h-2.098v2.102h2.098v2.097h2.101v2.102h2.098v-2.102h2.101v2.102h-2.101v2.097h2.101v2.102h2.098v2.098h2.102v-2.098h2.097v-2.102h2.102v-2.097h-2.102v-2.102h2.102v2.102h2.097v-2.102h2.102v-2.098h2.102v-2.101h-2.102v-2.098h2.102v2.098h2.097v-2.098h2.102v-2.101h2.097V8.4h-2.097V6.298h-2.102V4.201h-2.097v2.098h-2.102V4.2h2.102V2.099h-2.102V.002h2.102v2.097h2.097V.002h2.102v2.097h-2.102v2.102h2.102v2.098h2.097V8.4h2.102V6.298h2.098V4.201h2.101V2.099h-2.101V.002h2.101v2.097h2.098V.002h2.101" transform="matrix(1 0 0 -1 .912 57.736)"/><path style="fill:none;stroke-width:.19925;stroke-linecap:butt;stroke-linejoin:miter;stroke:#00f;stroke-opacity:1;stroke-miterlimit:10" d="M52.443 8.506A7.088 7.088 0 1 1 38.266 8.5a7.088 7.088 0 0 1 14.177.006Zm0 0" transform="matrix(1 0 0 -1 .912 57.736)"/><g clip-path="url(#a)"><g clip-path="url(#b)"><path style="fill:none;stroke-width:.19925;stroke-linecap:butt;stroke-linejoin:miter;stroke:gray;stroke-opacity:1;stroke-miterlimit:10" d="M0 0h85.04M0 28.348h85.04M0 56.684h85.04M0 .001v56.692M28.347.001v56.692M56.693.001v56.692M85.03.001v56.692" transform="matrix(3 0 0 -3 -57.2 118.681)"/><path style="fill:none;stroke-width:.3985;stroke-linecap:butt;stroke-linejoin:miter;stroke:#000;stroke-opacity:1;stroke-miterlimit:10" d="M0 0h2.1v2.1h2.1V0h2.098v2.1H4.2v2.1h2.098v2.099h2.1v2.1H10.5v-2.1h2.099v-2.1h2.1V2.1h-2.1V.002h2.1V2.1h2.1V0h2.1v2.1h-2.1v2.1h2.1v2.099h-2.1v-2.1h-2.1v2.1h-2.1v2.1h-2.099v2.099h2.099v2.1h2.1v2.1h2.1v-2.1h2.1v2.1h-2.1v2.1h2.1v2.1h2.1v2.099h2.099v-2.1h2.1v2.1h-2.1v2.1h2.1v2.1h2.099v2.1h2.1v-2.1h2.1v-2.1h2.1v-2.099h-2.1v-2.1h2.1v2.1h2.1v-2.1h2.099v-2.1h2.1v-2.1h-2.1v-2.1h2.1v2.1h2.1v-2.1h2.1V10.5h2.1V8.4h-2.1V6.3h-2.1V4.2h-2.1v2.1h-2.1V4.2h2.1V2.1h-2.1V0h2.1v2.1h2.1V0h2.1v2.1h-2.1v2.1h2.1v2.099h2.1v2.1h2.1v-2.1h2.099v-2.1h2.1V2.1h-2.1V.002h2.1V2.1h2.1V0h2.099" transform="matrix(3 0 0 -3 -57.2 118.681)"/></g></g><g clip-path="url(#c)"><path style="fill:none;stroke-width:.79701;stroke-linecap:butt;stroke-linejoin:miter;stroke:#00f;stroke-opacity:1;stroke-miterlimit:10" d="M99.213-35.432c0 11.742-9.516 21.258-21.258 21.258-11.742 0-21.262-9.516-21.262-21.258 0-11.742 9.52-21.262 21.262-21.262s21.258 9.52 21.258 21.262Zm0 0" transform="matrix(1 0 0 -1 .912 57.736)"/></g><path style="fill:none;stroke-width:.3985;stroke-linecap:butt;stroke-linejoin:miter;stroke:#00f;stroke-opacity:1;stroke-miterlimit:10" d="m49.576 2.814 15.711-21.176" transform="matrix(1 0 0 -1 .912 57.736)"/><path style="fill:none;stroke-width:.19925;stroke-linecap:butt;stroke-linejoin:miter;stroke:red;stroke-opacity:1;stroke-miterlimit:10" d="M67.174-16.147H58.67v-8.504h8.504Zm0 0" transform="matrix(1 0 0 -1 .912 57.736)"/><g clip-path="url(#d)"><g clip-path="url(#e)"><path style="fill:none;stroke-width:.19925;stroke-linecap:butt;stroke-linejoin:miter;stroke:gray;stroke-opacity:1;stroke-miterlimit:10" d="M0 0h85.04M0 28.347h85.04M0 56.684h85.04M0 0v56.694M28.347 0v56.694M56.694 0v56.694M85.03 0v56.694" transform="matrix(15 0 0 -15 -582.992 295.894)"/><path style="fill:none;stroke-width:.3985;stroke-linecap:butt;stroke-linejoin:miter;stroke:#000;stroke-opacity:1;stroke-miterlimit:10" d="M0 0h2.1v2.1h2.1V0h2.1v2.1H4.2v2.1h2.1v2.1h2.099v2.099h2.1v-2.1h2.1V4.2h2.099V2.1h-2.1V0h2.1v2.1h2.1V0h2.1v2.1h-2.1v2.1h2.1v2.1h-2.1V4.2h-2.1v2.1h-2.1v2.099h-2.1v2.1h2.1v2.1h2.1v2.099h2.1v-2.1h2.1v2.1h-2.1v2.1h2.1v2.1h2.1v2.1h2.099v-2.1h2.1v2.1h-2.1v2.099h2.1v2.1h2.1v2.1h2.1v-2.1h2.099v-2.1h2.1v-2.1h-2.1v-2.1h2.1v2.1h2.1v-2.1h2.1v-2.1h2.099v-2.099h-2.1v-2.1h2.1v2.1h2.1v-2.1h2.1v-2.1h2.099V8.4h-2.1V6.3h-2.1V4.2h-2.099v2.1h-2.1V4.2h2.1V2.1h-2.1V0h2.1v2.1h2.1V0h2.1v2.1h-2.1v2.1h2.1v2.1h2.1v2.1h2.099V6.3h2.1V4.2h2.1V2.1h-2.1V0h2.1v2.1h2.1V0h2.1" transform="matrix(15 0 0 -15 -582.992 295.894)"/></g></g><g clip-path="url(#f)"><path style="fill:none;stroke-width:.79701;stroke-linecap:butt;stroke-linejoin:miter;stroke:#00f;stroke-opacity:1;stroke-miterlimit:10" d="M99.213-35.434c0 11.742-9.517 21.26-21.26 21.26-11.741 0-21.259-9.518-21.259-21.26 0-11.741 9.518-21.26 21.26-21.26s21.26 9.519 21.26 21.26Zm0 0" transform="matrix(5 0 0 -5 -292.43 -8.833)"/></g><g clip-path="url(#g)"><path style="fill:none;stroke-width:.3985;stroke-linecap:butt;stroke-linejoin:miter;stroke:#00f;stroke-opacity:1;stroke-miterlimit:10" d="M49.578 2.813 65.287-18.36" transform="matrix(5 0 0 -5 -292.43 -8.833)"/></g><path style="fill:none;stroke-width:.79701;stroke-linecap:butt;stroke-linejoin:miter;stroke:red;stroke-opacity:1;stroke-miterlimit:10" d="M-.002-56.694h42.524v42.52H-.002Zm0 0" transform="matrix(1 0 0 -1 .912 57.736)"/><path style="fill:none;stroke-width:.3985;stroke-linecap:butt;stroke-linejoin:miter;stroke:red;stroke-opacity:1;stroke-miterlimit:10" d="m58.67-21.936-16.148-5.828" transform="matrix(1 0 0 -1 .912 57.736)"/></svg>