<svg xmlns="http://www.w3.org/2000/svg" width="29.268" height="7.515" viewBox="0 0 21.951 5.636" version="1.2"><defs><clipPath id="a"><path d="M2 0h19.926v5.453H2Zm0 0"/></clipPath></defs><path style="fill:none;stroke-width:.79701;stroke-linecap:butt;stroke-linejoin:miter;stroke:#000;stroke-opacity:1;stroke-miterlimit:10" d="M0 2.145h13.09" transform="matrix(1 0 0 -1 .985 4.79)"/><path style="stroke:none;fill-rule:nonzero;fill:#000;fill-opacity:1" d="M20.512 2.645c0-.782-1.442-1.41-3.219-1.41s-3.219.628-3.219 1.41c0 .777 1.442 1.41 3.219 1.41s3.219-.633 3.219-1.41Zm0 0"/><g clip-path="url(#a)"><path style="fill:none;stroke-width:.79701;stroke-linecap:butt;stroke-linejoin:miter;stroke:#000;stroke-opacity:1;stroke-miterlimit:10" d="M6.835-.002c0 .782-1.442 1.41-3.22 1.41C1.84 1.409.398.78.398-.001c0-.777 1.442-1.41 3.219-1.41s3.219.633 3.219 1.41Zm0 0" transform="matrix(1 0 0 -1 13.677 2.643)"/></g></svg>