<svg xmlns="http://www.w3.org/2000/svg" xmlns:xlink="http://www.w3.org/1999/xlink" width="136.839" height="34.011" viewBox="0 0 102.629 25.508" version="1.2"><defs><clipPath id="a"><path d="M1 1h18v17H1Zm0 0"/></clipPath><clipPath id="b"><path d="M9.926 1.371a8.503 8.503 0 0 1 8.504 8.504 8.506 8.506 0 0 1-8.504 8.504 8.506 8.506 0 0 1-8.504-8.504c0-4.7 3.808-8.504 8.504-8.504Zm0 0"/></clipPath><clipPath id="d"><path d="M0 0h36v25.262H0Zm0 0"/></clipPath><clipPath id="f"><path d="M33 1h36v17H33Zm0 0"/></clipPath><clipPath id="g"><path d="M51.129 1.371h8.824a8.503 8.503 0 0 1 8.504 8.504 8.506 8.506 0 0 1-8.504 8.504H42.301a8.506 8.506 0 0 1-8.504-8.504c0-4.7 3.808-8.504 8.504-8.504Zm0 0"/></clipPath><clipPath id="i"><path d="M16 0h70v25.262H16Zm0 0"/></clipPath><clipPath id="n"><path d="M83 1h18v17H83Zm0 0"/></clipPath><clipPath id="o"><path d="M92.328 1.371a8.5 8.5 0 0 1 8.504 8.504 8.503 8.503 0 0 1-8.504 8.504 8.506 8.506 0 0 1-8.504-8.504c0-4.7 3.809-8.504 8.504-8.504Zm0 0"/></clipPath><clipPath id="q"><path d="M66 0h36.445v25.262H66Zm0 0"/></clipPath><symbol overflow="visible" id="e"><path style="stroke:none" d="M3.297-.672a.67.67 0 0 0-.672-.687.67.67 0 0 0-.688.671c0 .391.329.688.672.688a.68.68 0 0 0 .688-.672Zm0 0"/></symbol><symbol overflow="visible" id="j"><path style="stroke:none" d="M5.125-.375c0-.36-.297-.375-.469-.375h-.36v-4.86c0-.359-.062-.484-.468-.484h-.703c-.188 0-.484.016-.484.375 0 .36.296.375.468.375h.36v1.297a1.729 1.729 0 0 0-1.063-.344c-1.094 0-2.062.938-2.062 2.235C.344-.922 1.25.063 2.328.063c.485 0 .86-.204 1.14-.454.016.282.079.391.47.391h.703c.187 0 .484-.016.484-.375ZM3.453-1.969c0 .516-.406 1.282-1.094 1.282-.671 0-1.203-.657-1.203-1.47 0-.89.64-1.5 1.282-1.5.578 0 1.015.5 1.015 1Zm0 0"/></symbol><symbol overflow="visible" id="k"><path style="stroke:none" d="M4.563-.375c0-.36-.297-.375-.47-.375h-.937v-3.125c0-.36-.078-.469-.469-.469H1.313c-.188 0-.485.016-.485.36 0 .375.297.39.485.39h1.015V-.75h-1.11c-.187 0-.468.016-.468.375 0 .36.297.375.469.375h2.875c.172 0 .468-.016.468-.375Zm-1.375-5.11a.56.56 0 0 0-.563-.562.564.564 0 0 0-.578.563c0 .328.25.562.578.562a.55.55 0 0 0 .563-.562Zm0 0"/></symbol><symbol overflow="visible" id="l"><path style="stroke:none" d="M5.094-3.844c0-.25-.203-.61-.782-.61-.109 0-.578.016-1.046.329-.172-.11-.5-.266-.938-.266-.953 0-1.687.75-1.687 1.625 0 .407.156.72.312.922-.11.157-.187.375-.187.657 0 .312.109.546.187.671C.266-.046.266.61.266.72c0 .86 1.046 1.5 2.343 1.5s2.344-.64 2.344-1.5c0-.375-.187-.89-.703-1.172-.14-.078-.547-.297-1.453-.297h-.688c-.171 0-.39.047-.53-.125-.095-.11-.11-.297-.11-.297 0-.031.015-.094.031-.156.14.078.469.203.828.203.938 0 1.688-.734 1.688-1.64 0-.282-.079-.547-.235-.813.156-.078.297-.094.406-.125a.476.476 0 0 0 .438.328c.203 0 .469-.14.469-.469ZM3.187-2.766c0 .5-.39.907-.859.907-.484 0-.86-.422-.86-.907 0-.5.391-.89.86-.89s.86.422.86.89ZM4.234.72c0 .406-.703.765-1.625.765-.921 0-1.625-.359-1.625-.765 0-.156.079-.438.375-.625.22-.14.313-.14 1-.14.813 0 1.875 0 1.875.765Zm0 0"/></symbol><symbol overflow="visible" id="m"><path style="stroke:none" d="M4.5-1.313c0-.203 0-.437-.422-.437-.39 0-.406.234-.406.438 0 .53-.5.625-.719.625-.656 0-.656-.454-.656-.672v-2.235h1.515c.172 0 .47-.015.47-.375 0-.375-.282-.375-.47-.375H2.298v-.718c0-.22-.016-.47-.406-.47-.422 0-.422.235-.422.47v.718H.703c-.187 0-.469.016-.469.375 0 .36.282.375.454.375h.78v2.281c0 1 .688 1.375 1.454 1.375.75 0 1.578-.453 1.578-1.375Zm0 0"/></symbol><symbol overflow="visible" id="r"><path style="stroke:none" d="M5.031-.484v-.844c0-.234-.015-.484-.422-.484-.406 0-.406.234-.406.484v.578H1.75v-2.031h1.125c0 .406.047.562.422.562.39 0 .406-.25.406-.484v-.906c0-.22-.015-.47-.406-.47-.375 0-.422.157-.422.548H1.75v-1.813h2.234v.438c0 .218 0 .484.407.484.421 0 .421-.25.421-.484v-.703c0-.36-.078-.485-.468-.485H.719c-.188 0-.485.016-.485.375 0 .36.297.375.485.375h.203V-.75H.719c-.188 0-.485.016-.485.375 0 .36.297.375.485.375h3.844c.375 0 .468-.094.468-.484Zm0 0"/></symbol><linearGradient id="c" gradientUnits="userSpaceOnUse" x1="0" y1="25.003" x2="0" y2="74.997" gradientTransform="matrix(.3402 0 0 -.3402 -7.085 26.884)"><stop offset="0" style="stop-color:#ccc;stop-opacity:1"/><stop offset=".016" style="stop-color:#ccc;stop-opacity:1"/><stop offset=".031" style="stop-color:#cdcdcd;stop-opacity:1"/><stop offset=".047" style="stop-color:#cecece;stop-opacity:1"/><stop offset=".063" style="stop-color:#cfcfcf;stop-opacity:1"/><stop offset=".078" style="stop-color:#d0d0d0;stop-opacity:1"/><stop offset=".094" style="stop-color:#d0d0d0;stop-opacity:1"/><stop offset=".109" style="stop-color:#d1d1d1;stop-opacity:1"/><stop offset=".125" style="stop-color:#d2d2d2;stop-opacity:1"/><stop offset=".141" style="stop-color:#d3d3d3;stop-opacity:1"/><stop offset=".156" style="stop-color:#d4d4d4;stop-opacity:1"/><stop offset=".172" style="stop-color:#d4d4d4;stop-opacity:1"/><stop offset=".188" style="stop-color:#d5d5d5;stop-opacity:1"/><stop offset=".203" style="stop-color:#d6d6d6;stop-opacity:1"/><stop offset=".219" style="stop-color:#d7d7d7;stop-opacity:1"/><stop offset=".234" style="stop-color:#d8d8d8;stop-opacity:1"/><stop offset=".25" style="stop-color:#d8d8d8;stop-opacity:1"/><stop offset=".266" style="stop-color:#d9d9d9;stop-opacity:1"/><stop offset=".281" style="stop-color:#dadada;stop-opacity:1"/><stop offset=".297" style="stop-color:#dbdbdb;stop-opacity:1"/><stop offset=".313" style="stop-color:#dcdcdc;stop-opacity:1"/><stop offset=".328" style="stop-color:#dcdcdc;stop-opacity:1"/><stop offset=".344" style="stop-color:#ddd;stop-opacity:1"/><stop offset=".359" style="stop-color:#dedede;stop-opacity:1"/><stop offset=".375" style="stop-color:#dfdfdf;stop-opacity:1"/><stop offset=".391" style="stop-color:#e0e0e0;stop-opacity:1"/><stop offset=".406" style="stop-color:#e0e0e0;stop-opacity:1"/><stop offset=".422" style="stop-color:#e1e1e1;stop-opacity:1"/><stop offset=".438" style="stop-color:#e2e2e2;stop-opacity:1"/><stop offset=".453" style="stop-color:#e3e3e3;stop-opacity:1"/><stop offset=".469" style="stop-color:#e4e4e4;stop-opacity:1"/><stop offset=".484" style="stop-color:#e4e4e4;stop-opacity:1"/><stop offset=".5" style="stop-color:#e5e5e5;stop-opacity:1"/><stop offset=".516" style="stop-color:#e6e6e6;stop-opacity:1"/><stop offset=".531" style="stop-color:#e7e7e7;stop-opacity:1"/><stop offset=".547" style="stop-color:#e7e7e7;stop-opacity:1"/><stop offset=".563" style="stop-color:#e8e8e8;stop-opacity:1"/><stop offset=".578" style="stop-color:#e9e9e9;stop-opacity:1"/><stop offset=".594" style="stop-color:#eaeaea;stop-opacity:1"/><stop offset=".609" style="stop-color:#ebebeb;stop-opacity:1"/><stop offset=".625" style="stop-color:#ebebeb;stop-opacity:1"/><stop offset=".641" style="stop-color:#ececec;stop-opacity:1"/><stop offset=".656" style="stop-color:#ededed;stop-opacity:1"/><stop offset=".672" style="stop-color:#eee;stop-opacity:1"/><stop offset=".688" style="stop-color:#efefef;stop-opacity:1"/><stop offset=".703" style="stop-color:#efefef;stop-opacity:1"/><stop offset=".719" style="stop-color:#f0f0f0;stop-opacity:1"/><stop offset=".734" style="stop-color:#f1f1f1;stop-opacity:1"/><stop offset=".75" style="stop-color:#f2f2f2;stop-opacity:1"/><stop offset=".766" style="stop-color:#f3f3f3;stop-opacity:1"/><stop offset=".781" style="stop-color:#f3f3f3;stop-opacity:1"/><stop offset=".797" style="stop-color:#f4f4f4;stop-opacity:1"/><stop offset=".813" style="stop-color:#f5f5f5;stop-opacity:1"/><stop offset=".828" style="stop-color:#f6f6f6;stop-opacity:1"/><stop offset=".844" style="stop-color:#f7f7f7;stop-opacity:1"/><stop offset=".859" style="stop-color:#f7f7f7;stop-opacity:1"/><stop offset=".875" style="stop-color:#f8f8f8;stop-opacity:1"/><stop offset=".891" style="stop-color:#f9f9f9;stop-opacity:1"/><stop offset=".906" style="stop-color:#fafafa;stop-opacity:1"/><stop offset=".922" style="stop-color:#fbfbfb;stop-opacity:1"/><stop offset=".938" style="stop-color:#fbfbfb;stop-opacity:1"/><stop offset=".953" style="stop-color:#fcfcfc;stop-opacity:1"/><stop offset=".969" style="stop-color:#fdfdfd;stop-opacity:1"/><stop offset=".984" style="stop-color:#fefefe;stop-opacity:1"/><stop offset="1" style="stop-color:#fff;stop-opacity:1"/></linearGradient><linearGradient id="h" gradientUnits="userSpaceOnUse" x1="0" y1="25.003" x2="0" y2="74.997" gradientTransform="matrix(.69322 0 0 -.3402 16.466 26.884)"><stop offset="0" style="stop-color:#ccc;stop-opacity:1"/><stop offset=".016" style="stop-color:#ccc;stop-opacity:1"/><stop offset=".031" style="stop-color:#cdcdcd;stop-opacity:1"/><stop offset=".047" style="stop-color:#cecece;stop-opacity:1"/><stop offset=".063" style="stop-color:#cfcfcf;stop-opacity:1"/><stop offset=".078" style="stop-color:#d0d0d0;stop-opacity:1"/><stop offset=".094" style="stop-color:#d0d0d0;stop-opacity:1"/><stop offset=".109" style="stop-color:#d1d1d1;stop-opacity:1"/><stop offset=".125" style="stop-color:#d2d2d2;stop-opacity:1"/><stop offset=".141" style="stop-color:#d3d3d3;stop-opacity:1"/><stop offset=".156" style="stop-color:#d4d4d4;stop-opacity:1"/><stop offset=".172" style="stop-color:#d4d4d4;stop-opacity:1"/><stop offset=".188" style="stop-color:#d5d5d5;stop-opacity:1"/><stop offset=".203" style="stop-color:#d6d6d6;stop-opacity:1"/><stop offset=".219" style="stop-color:#d7d7d7;stop-opacity:1"/><stop offset=".234" style="stop-color:#d8d8d8;stop-opacity:1"/><stop offset=".25" style="stop-color:#d8d8d8;stop-opacity:1"/><stop offset=".266" style="stop-color:#d9d9d9;stop-opacity:1"/><stop offset=".281" style="stop-color:#dadada;stop-opacity:1"/><stop offset=".297" style="stop-color:#dbdbdb;stop-opacity:1"/><stop offset=".313" style="stop-color:#dcdcdc;stop-opacity:1"/><stop offset=".328" style="stop-color:#dcdcdc;stop-opacity:1"/><stop offset=".344" style="stop-color:#ddd;stop-opacity:1"/><stop offset=".359" style="stop-color:#dedede;stop-opacity:1"/><stop offset=".375" style="stop-color:#dfdfdf;stop-opacity:1"/><stop offset=".391" style="stop-color:#e0e0e0;stop-opacity:1"/><stop offset=".406" style="stop-color:#e0e0e0;stop-opacity:1"/><stop offset=".422" style="stop-color:#e1e1e1;stop-opacity:1"/><stop offset=".438" style="stop-color:#e2e2e2;stop-opacity:1"/><stop offset=".453" style="stop-color:#e3e3e3;stop-opacity:1"/><stop offset=".469" style="stop-color:#e4e4e4;stop-opacity:1"/><stop offset=".484" style="stop-color:#e4e4e4;stop-opacity:1"/><stop offset=".5" style="stop-color:#e5e5e5;stop-opacity:1"/><stop offset=".516" style="stop-color:#e6e6e6;stop-opacity:1"/><stop offset=".531" style="stop-color:#e7e7e7;stop-opacity:1"/><stop offset=".547" style="stop-color:#e7e7e7;stop-opacity:1"/><stop offset=".563" style="stop-color:#e8e8e8;stop-opacity:1"/><stop offset=".578" style="stop-color:#e9e9e9;stop-opacity:1"/><stop offset=".594" style="stop-color:#eaeaea;stop-opacity:1"/><stop offset=".609" style="stop-color:#ebebeb;stop-opacity:1"/><stop offset=".625" style="stop-color:#ebebeb;stop-opacity:1"/><stop offset=".641" style="stop-color:#ececec;stop-opacity:1"/><stop offset=".656" style="stop-color:#ededed;stop-opacity:1"/><stop offset=".672" style="stop-color:#eee;stop-opacity:1"/><stop offset=".688" style="stop-color:#efefef;stop-opacity:1"/><stop offset=".703" style="stop-color:#efefef;stop-opacity:1"/><stop offset=".719" style="stop-color:#f0f0f0;stop-opacity:1"/><stop offset=".734" style="stop-color:#f1f1f1;stop-opacity:1"/><stop offset=".75" style="stop-color:#f2f2f2;stop-opacity:1"/><stop offset=".766" style="stop-color:#f3f3f3;stop-opacity:1"/><stop offset=".781" style="stop-color:#f3f3f3;stop-opacity:1"/><stop offset=".797" style="stop-color:#f4f4f4;stop-opacity:1"/><stop offset=".813" style="stop-color:#f5f5f5;stop-opacity:1"/><stop offset=".828" style="stop-color:#f6f6f6;stop-opacity:1"/><stop offset=".844" style="stop-color:#f7f7f7;stop-opacity:1"/><stop offset=".859" style="stop-color:#f7f7f7;stop-opacity:1"/><stop offset=".875" style="stop-color:#f8f8f8;stop-opacity:1"/><stop offset=".891" style="stop-color:#f9f9f9;stop-opacity:1"/><stop offset=".906" style="stop-color:#fafafa;stop-opacity:1"/><stop offset=".922" style="stop-color:#fbfbfb;stop-opacity:1"/><stop offset=".938" style="stop-color:#fbfbfb;stop-opacity:1"/><stop offset=".953" style="stop-color:#fcfcfc;stop-opacity:1"/><stop offset=".969" style="stop-color:#fdfdfd;stop-opacity:1"/><stop offset=".984" style="stop-color:#fefefe;stop-opacity:1"/><stop offset="1" style="stop-color:#fff;stop-opacity:1"/></linearGradient><linearGradient id="p" gradientUnits="userSpaceOnUse" x1="0" y1="25.003" x2="0" y2="74.997" gradientTransform="matrix(.3402 0 0 -.3402 75.319 26.884)"><stop offset="0" style="stop-color:#ccc;stop-opacity:1"/><stop offset=".016" style="stop-color:#ccc;stop-opacity:1"/><stop offset=".031" style="stop-color:#cdcdcd;stop-opacity:1"/><stop offset=".047" style="stop-color:#cecece;stop-opacity:1"/><stop offset=".063" style="stop-color:#cfcfcf;stop-opacity:1"/><stop offset=".078" style="stop-color:#d0d0d0;stop-opacity:1"/><stop offset=".094" style="stop-color:#d0d0d0;stop-opacity:1"/><stop offset=".109" style="stop-color:#d1d1d1;stop-opacity:1"/><stop offset=".125" style="stop-color:#d2d2d2;stop-opacity:1"/><stop offset=".141" style="stop-color:#d3d3d3;stop-opacity:1"/><stop offset=".156" style="stop-color:#d4d4d4;stop-opacity:1"/><stop offset=".172" style="stop-color:#d4d4d4;stop-opacity:1"/><stop offset=".188" style="stop-color:#d5d5d5;stop-opacity:1"/><stop offset=".203" style="stop-color:#d6d6d6;stop-opacity:1"/><stop offset=".219" style="stop-color:#d7d7d7;stop-opacity:1"/><stop offset=".234" style="stop-color:#d8d8d8;stop-opacity:1"/><stop offset=".25" style="stop-color:#d8d8d8;stop-opacity:1"/><stop offset=".266" style="stop-color:#d9d9d9;stop-opacity:1"/><stop offset=".281" style="stop-color:#dadada;stop-opacity:1"/><stop offset=".297" style="stop-color:#dbdbdb;stop-opacity:1"/><stop offset=".313" style="stop-color:#dcdcdc;stop-opacity:1"/><stop offset=".328" style="stop-color:#dcdcdc;stop-opacity:1"/><stop offset=".344" style="stop-color:#ddd;stop-opacity:1"/><stop offset=".359" style="stop-color:#dedede;stop-opacity:1"/><stop offset=".375" style="stop-color:#dfdfdf;stop-opacity:1"/><stop offset=".391" style="stop-color:#e0e0e0;stop-opacity:1"/><stop offset=".406" style="stop-color:#e0e0e0;stop-opacity:1"/><stop offset=".422" style="stop-color:#e1e1e1;stop-opacity:1"/><stop offset=".438" style="stop-color:#e2e2e2;stop-opacity:1"/><stop offset=".453" style="stop-color:#e3e3e3;stop-opacity:1"/><stop offset=".469" style="stop-color:#e4e4e4;stop-opacity:1"/><stop offset=".484" style="stop-color:#e4e4e4;stop-opacity:1"/><stop offset=".5" style="stop-color:#e5e5e5;stop-opacity:1"/><stop offset=".516" style="stop-color:#e6e6e6;stop-opacity:1"/><stop offset=".531" style="stop-color:#e7e7e7;stop-opacity:1"/><stop offset=".547" style="stop-color:#e7e7e7;stop-opacity:1"/><stop offset=".563" style="stop-color:#e8e8e8;stop-opacity:1"/><stop offset=".578" style="stop-color:#e9e9e9;stop-opacity:1"/><stop offset=".594" style="stop-color:#eaeaea;stop-opacity:1"/><stop offset=".609" style="stop-color:#ebebeb;stop-opacity:1"/><stop offset=".625" style="stop-color:#ebebeb;stop-opacity:1"/><stop offset=".641" style="stop-color:#ececec;stop-opacity:1"/><stop offset=".656" style="stop-color:#ededed;stop-opacity:1"/><stop offset=".672" style="stop-color:#eee;stop-opacity:1"/><stop offset=".688" style="stop-color:#efefef;stop-opacity:1"/><stop offset=".703" style="stop-color:#efefef;stop-opacity:1"/><stop offset=".719" style="stop-color:#f0f0f0;stop-opacity:1"/><stop offset=".734" style="stop-color:#f1f1f1;stop-opacity:1"/><stop offset=".75" style="stop-color:#f2f2f2;stop-opacity:1"/><stop offset=".766" style="stop-color:#f3f3f3;stop-opacity:1"/><stop offset=".781" style="stop-color:#f3f3f3;stop-opacity:1"/><stop offset=".797" style="stop-color:#f4f4f4;stop-opacity:1"/><stop offset=".813" style="stop-color:#f5f5f5;stop-opacity:1"/><stop offset=".828" style="stop-color:#f6f6f6;stop-opacity:1"/><stop offset=".844" style="stop-color:#f7f7f7;stop-opacity:1"/><stop offset=".859" style="stop-color:#f7f7f7;stop-opacity:1"/><stop offset=".875" style="stop-color:#f8f8f8;stop-opacity:1"/><stop offset=".891" style="stop-color:#f9f9f9;stop-opacity:1"/><stop offset=".906" style="stop-color:#fafafa;stop-opacity:1"/><stop offset=".922" style="stop-color:#fbfbfb;stop-opacity:1"/><stop offset=".938" style="stop-color:#fbfbfb;stop-opacity:1"/><stop offset=".953" style="stop-color:#fcfcfc;stop-opacity:1"/><stop offset=".969" style="stop-color:#fdfdfd;stop-opacity:1"/><stop offset=".984" style="stop-color:#fefefe;stop-opacity:1"/><stop offset="1" style="stop-color:#fff;stop-opacity:1"/></linearGradient></defs><g clip-path="url(#a)"><g clip-path="url(#b)"><path style="stroke:none;fill-rule:nonzero;fill:url(#c)" d="M1.422 18.379V1.37H18.43V18.38Zm0 0"/></g></g><g clip-path="url(#d)"><path style="fill:none;stroke-width:1.19553;stroke-linecap:butt;stroke-linejoin:miter;stroke:gray;stroke-opacity:1;stroke-miterlimit:10" d="M0 8.503A8.503 8.503 0 0 0 8.504-.001 8.506 8.506 0 0 0 0-8.505 8.506 8.506 0 0 0-8.504 0c0 4.7 3.809 8.504 8.504 8.504Zm0 0" transform="matrix(1 0 0 -1 9.925 9.874)"/></g><use xlink:href="#e" x="7.309" y="12.638" style="fill:#000;fill-opacity:1"/><g clip-path="url(#f)"><g clip-path="url(#g)"><path style="stroke:none;fill-rule:nonzero;fill:url(#h)" d="M33.797 18.379V1.37h34.66V18.38Zm0 0"/></g></g><g clip-path="url(#i)"><path style="fill:none;stroke-width:1.19553;stroke-linecap:butt;stroke-linejoin:miter;stroke:gray;stroke-opacity:1;stroke-miterlimit:10" d="M41.203 8.503h8.825a8.503 8.503 0 0 0 8.504-8.504 8.506 8.506 0 0 0-8.504-8.504H32.375A8.506 8.506 0 0 0 23.871 0c0 4.7 3.809 8.504 8.504 8.504Zm0 0" transform="matrix(1 0 0 -1 9.925 9.874)"/></g><g style="fill:#000;fill-opacity:1"><use xlink:href="#j" x="38.05" y="12.638"/><use xlink:href="#k" x="43.281" y="12.638"/><use xlink:href="#l" x="48.511" y="12.638"/><use xlink:href="#k" x="53.742" y="12.638"/><use xlink:href="#m" x="58.972" y="12.638"/></g><g clip-path="url(#n)"><g clip-path="url(#o)"><path style="stroke:none;fill-rule:nonzero;fill:url(#p)" d="M83.824 18.379V1.37h17.008V18.38Zm0 0"/></g></g><g clip-path="url(#q)"><path style="fill:none;stroke-width:1.19553;stroke-linecap:butt;stroke-linejoin:miter;stroke:gray;stroke-opacity:1;stroke-miterlimit:10" d="M82.403 8.503a8.5 8.5 0 0 0 8.504-8.504 8.503 8.503 0 0 0-8.504-8.504A8.506 8.506 0 0 0 73.899 0c0 4.7 3.808 8.504 8.504 8.504Zm0 0" transform="matrix(1 0 0 -1 9.925 9.874)"/></g><use xlink:href="#r" x="89.713" y="12.638" style="fill:#000;fill-opacity:1"/><path style="fill:none;stroke-width:.3985;stroke-linecap:butt;stroke-linejoin:miter;stroke:#000;stroke-opacity:1;stroke-miterlimit:10" d="M9.102-.001h13.773" transform="matrix(1 0 0 -1 9.925 9.874)"/><path style="fill:none;stroke-width:.3985;stroke-linecap:round;stroke-linejoin:round;stroke:#000;stroke-opacity:1;stroke-miterlimit:10" d="M-2.072 2.39C-1.692.956-.849.28-.002-.001c-.847-.277-1.69-.957-2.07-2.39" transform="matrix(1 0 0 -1 33.001 9.874)"/><path style="fill:none;stroke-width:.3985;stroke-linecap:butt;stroke-linejoin:miter;stroke:#000;stroke-opacity:1;stroke-miterlimit:10" d="M59.13-.001h13.773" transform="matrix(1 0 0 -1 9.925 9.874)"/><path style="fill:none;stroke-width:.3985;stroke-linecap:round;stroke-linejoin:round;stroke:#000;stroke-opacity:1;stroke-miterlimit:10" d="M-2.07 2.39C-1.693.956-.849.28 0-.001c-.848-.277-1.692-.957-2.07-2.39" transform="matrix(1 0 0 -1 83.028 9.874)"/><path style="fill:none;stroke-width:.3985;stroke-linecap:butt;stroke-linejoin:miter;stroke:#000;stroke-opacity:1;stroke-miterlimit:10" d="M64.797-.001v-14.172H17.606V-.399" transform="matrix(1 0 0 -1 9.925 9.874)"/><path style="fill:none;stroke-width:.3985;stroke-linecap:round;stroke-linejoin:round;stroke:#000;stroke-opacity:1;stroke-miterlimit:10" d="M-2.071 2.39C-1.692.958-.85.278-.001 0c-.848-.277-1.691-.957-2.07-2.39" transform="matrix(0 -1 -1 0 27.531 10.073)"/></svg>