<svg xmlns="http://www.w3.org/2000/svg" xmlns:xlink="http://www.w3.org/1999/xlink" width="238.579" height="139.735" viewBox="0 0 178.934 104.801" version="1.2"><defs><symbol overflow="visible" id="b"><path style="stroke:none" d="M5.563-1.813c.14 0 .312 0 .312-.171 0-.188-.172-.188-.313-.188H1c-.125 0-.297 0-.297.188 0 .171.172.171.297.171Zm0 0"/></symbol><symbol overflow="visible" id="c"><path style="stroke:none" d="M2.5-5.078c0-.219-.016-.219-.234-.219-.329.313-.75.5-1.5.5v.266c.218 0 .64 0 1.109-.203v4.078c0 .297-.031.39-.781.39H.812V0c.329-.031 1.016-.031 1.375-.031.36 0 1.047 0 1.376.031v-.266H3.28c-.75 0-.781-.093-.781-.39Zm0 0"/></symbol><symbol overflow="visible" id="d"><path style="stroke:none" d="M3.89-2.547c0-.844-.078-1.36-.343-1.875-.344-.703-1-.875-1.438-.875-1 0-1.375.75-1.484.969C.344-3.75.328-2.953.328-2.547c0 .531.016 1.328.406 1.969.36.594.954.75 1.375.75.391 0 1.063-.125 1.47-.906.296-.579.312-1.297.312-1.813ZM2.11-.062c-.266 0-.813-.126-.985-.954-.094-.453-.094-1.203-.094-1.625 0-.546 0-1.109.094-1.546.172-.813.781-.891.984-.891.266 0 .829.14.985.86.094.437.094 1.046.094 1.577 0 .47 0 1.188-.094 1.641-.172.828-.719.938-.985.938Zm0 0"/></symbol><symbol overflow="visible" id="e"><path style="stroke:none" d="M1.11-4.484c.109.03.421.125.765.125 1 0 1.594-.704 1.594-.829 0-.093-.047-.109-.094-.109-.016 0-.031 0-.094.031a2.982 2.982 0 0 1-1.11.22c-.468 0-.858-.11-1.108-.22-.079-.03-.094-.03-.11-.03-.094 0-.094.077-.094.234v2.328c0 .14 0 .234.125.234.063 0 .079-.031.125-.094.094-.11.391-.515 1.079-.515.437 0 .656.359.734.515.125.281.14.656.14.953 0 .297 0 .735-.218 1.079-.156.25-.485.484-.906.484A1.271 1.271 0 0 1 .734-.922c.016.016.079.016.079.016.218 0 .406-.14.406-.39a.388.388 0 0 0-.39-.407c-.157 0-.407.078-.407.422 0 .718.625 1.453 1.531 1.453 1 0 1.844-.781 1.844-1.766 0-.922-.672-1.75-1.61-1.75-.39 0-.765.125-1.078.406Zm0 0"/></symbol><symbol overflow="visible" id="f"><path style="stroke:none" d="M1.484-.125c0 .516-.109.984-.593 1.469-.032.031-.047.047-.047.078 0 .062.062.11.11.11.093 0 .765-.626.765-1.563 0-.5-.203-.86-.547-.86a.436.436 0 0 0-.438.438c0 .234.157.453.438.453.203 0 .312-.11.312-.125Zm0 0"/></symbol><clipPath id="a"><path d="M27 0h151.902v98H27Zm0 0"/></clipPath></defs><path style="fill:none;stroke-width:.3985;stroke-linecap:round;stroke-linejoin:miter;stroke:gray;stroke-opacity:1;stroke-miterlimit:10" d="M11.81-6.976v1.993M41.338-6.976v1.993M70.865-6.976v1.993M100.392-6.976v1.993M129.924-6.976v1.993M-6.975 5.778h1.992M-6.975 18.45h1.992M-6.975 31.122h1.992M-6.975 43.794h1.992M-6.975 56.47h1.992M-6.975 69.142h1.992M-6.975 81.814h1.992" transform="matrix(1 0 0 -1 35.885 88.775)"/><path style="fill:none;stroke-width:.3985;stroke-linecap:butt;stroke-linejoin:miter;stroke:gray;stroke-opacity:1;stroke-miterlimit:10" d="M.002-4.983h141.73" transform="matrix(1 0 0 -1 35.885 88.775)"/><path style="fill:none;stroke-width:.3985;stroke-linecap:square;stroke-linejoin:miter;stroke:#bfbfbf;stroke-opacity:1;stroke-miterlimit:10" d="M.002.001h141.73M.002 87.59h141.73" transform="matrix(1 0 0 -1 35.885 88.775)"/><path style="fill:none;stroke-width:.3985;stroke-linecap:butt;stroke-linejoin:miter;stroke:gray;stroke-opacity:1;stroke-miterlimit:10" d="M-4.983.001v87.59" transform="matrix(1 0 0 -1 35.885 88.775)"/><path style="fill:none;stroke-width:.3985;stroke-linecap:square;stroke-linejoin:miter;stroke:#bfbfbf;stroke-opacity:1;stroke-miterlimit:10" d="M.002.001v87.59M141.732.001v87.59" transform="matrix(1 0 0 -1 35.885 88.775)"/><g clip-path="url(#a)"><path style="fill:none;stroke-width:.59776;stroke-linecap:butt;stroke-linejoin:miter;stroke:#000;stroke-opacity:1;stroke-miterlimit:10" d="M.002.001s4.265 7.5 5.902 10.063c1.64 2.558 4.27 6.27 5.906 8.386 1.64 2.117 4.266 5.153 5.907 6.871 1.64 1.715 4.265 4.141 5.906 5.496 1.637 1.36 4.265 3.247 5.906 4.286 1.637 1.039 4.266 2.453 5.902 3.218 1.641.766 4.27 1.774 5.907 2.305 1.64.535 4.27 1.203 5.906 1.547 1.64.344 4.266.742 5.906.937 1.637.2 4.266.391 5.906.485 1.637.09 4.266.148 5.907.176 1.636.027 4.265.02 5.902.023 1.64.008 4.27 0 5.906.027 1.64.028 4.266.086 5.906.176 1.641.094 4.266.285 5.907.485 1.636.195 4.265.59 5.906.937 1.637.344 4.266 1.012 5.902 1.543 1.641.535 4.27 1.543 5.907 2.309 1.64.765 4.27 2.175 5.906 3.218 1.64 1.04 4.265 2.926 5.906 4.282 1.637 1.359 4.266 3.785 5.906 5.5 1.637 1.718 4.266 4.754 5.907 6.87 1.636 2.118 4.265 5.829 5.902 8.387 1.64 2.563 5.906 10.063 5.906 10.063" transform="matrix(1 0 0 -1 35.885 88.775)"/></g><use xlink:href="#b" x="40.168" y="103.54" style="fill:#000;fill-opacity:1"/><g style="fill:#000;fill-opacity:1"><use xlink:href="#c" x="46.755" y="103.54"/><use xlink:href="#d" x="50.99" y="103.54"/></g><use xlink:href="#b" x="71.812" y="103.54" style="fill:#000;fill-opacity:1"/><use xlink:href="#e" x="78.399" y="103.54" style="fill:#000;fill-opacity:1"/><use xlink:href="#d" x="104.633" y="103.54" style="fill:#000;fill-opacity:1"/><use xlink:href="#e" x="134.16" y="103.54" style="fill:#000;fill-opacity:1"/><g style="fill:#000;fill-opacity:1"><use xlink:href="#c" x="161.57" y="103.54"/><use xlink:href="#d" x="165.805" y="103.54"/></g><use xlink:href="#b" x=".379" y="84.79" style="fill:#000;fill-opacity:1"/><use xlink:href="#c" x="6.966" y="84.79" style="fill:#000;fill-opacity:1"/><use xlink:href="#f" x="11.2" y="84.79" style="fill:#000;fill-opacity:1"/><g style="fill:#000;fill-opacity:1"><use xlink:href="#e" x="13.552" y="84.79"/><use xlink:href="#d" x="17.787" y="84.79"/><use xlink:href="#d" x="22.021" y="84.79"/></g><use xlink:href="#b" x=".379" y="72.118" style="fill:#000;fill-opacity:1"/><use xlink:href="#c" x="6.966" y="72.118" style="fill:#000;fill-opacity:1"/><use xlink:href="#f" x="11.2" y="72.118" style="fill:#000;fill-opacity:1"/><g style="fill:#000;fill-opacity:1"><use xlink:href="#d" x="13.552" y="72.118"/><use xlink:href="#d" x="17.787" y="72.118"/><use xlink:href="#d" x="22.021" y="72.118"/></g><use xlink:href="#b" x="6.966" y="59.804" style="fill:#000;fill-opacity:1"/><g style="fill:#000;fill-opacity:1"><use xlink:href="#e" x="13.552" y="59.804"/><use xlink:href="#d" x="17.787" y="59.804"/><use xlink:href="#d" x="22.021" y="59.804"/></g><use xlink:href="#d" x="22.021" y="47.547" style="fill:#000;fill-opacity:1"/><g style="fill:#000;fill-opacity:1"><use xlink:href="#e" x="13.552" y="34.876"/><use xlink:href="#d" x="17.787" y="34.876"/><use xlink:href="#d" x="22.021" y="34.876"/></g><use xlink:href="#c" x="6.966" y="21.428" style="fill:#000;fill-opacity:1"/><use xlink:href="#f" x="11.2" y="21.428" style="fill:#000;fill-opacity:1"/><g style="fill:#000;fill-opacity:1"><use xlink:href="#d" x="13.552" y="21.428"/><use xlink:href="#d" x="17.787" y="21.428"/><use xlink:href="#d" x="22.021" y="21.428"/></g><use xlink:href="#c" x="6.966" y="8.757" style="fill:#000;fill-opacity:1"/><use xlink:href="#f" x="11.2" y="8.757" style="fill:#000;fill-opacity:1"/><g style="fill:#000;fill-opacity:1"><use xlink:href="#e" x="13.552" y="8.757"/><use xlink:href="#d" x="17.787" y="8.757"/><use xlink:href="#d" x="22.021" y="8.757"/></g></svg>