<svg xmlns="http://www.w3.org/2000/svg" xmlns:xlink="http://www.w3.org/1999/xlink" width="134.36" height="149.523" viewBox="0 0 100.77 112.142" version="1.2"><defs><clipPath id="a"><path d="M30 82h41v29.715H30Zm0 0"/></clipPath><clipPath id="b"><path d="M54 1h46.656v58H54Zm0 0"/></clipPath><clipPath id="d"><path d="M50 57h50.656v53H50Zm0 0"/></clipPath><symbol overflow="visible" id="c"><path style="stroke:none" d="M5.156-2.219h-.468c-.032.203-.125.844-.266.906-.11.063-.86.063-1.016.063H1.937c.47-.39 1-.813 1.438-1.14 1.14-.844 1.781-1.313 1.781-2.25 0-1.157-1.047-1.891-2.437-1.891-1.219 0-2.156.625-2.156 1.515 0 .594.484.735.718.735C1.61-4.281 2-4.5 2-5c0-.516-.422-.672-.563-.719.282-.234.672-.343 1.032-.343.844 0 1.312.671 1.312 1.421 0 .688-.375 1.375-1.078 2.079l-2 2.046c-.14.11-.14.141-.14.344V0h4.28Zm0 0"/></symbol></defs><path style="fill-rule:nonzero;fill:#ccf;fill-opacity:1;stroke-width:.79701;stroke-linecap:butt;stroke-linejoin:miter;stroke:#8080ff;stroke-opacity:1;stroke-miterlimit:10" d="M8.503-.001c0 4.699-3.808 8.504-8.503 8.504A8.503 8.503 0 0 1-8.504-.001 8.506 8.506 0 0 1 0-8.505 8.506 8.506 0 0 1 8.503-.001ZM8.503-46.154c0 4.7-3.808 8.504-8.503 8.504a8.503 8.503 0 0 1-8.504-8.504A8.506 8.506 0 0 1 0-54.657a8.506 8.506 0 0 1 8.503 8.503Zm0 0" transform="matrix(1 0 0 -1 50.27 9.491)"/><path style="stroke:none;fill-rule:nonzero;fill:#ccf;fill-opacity:1" d="M58.773 101.793a8.506 8.506 0 0 0-8.503-8.504 8.506 8.506 0 0 0-8.504 8.504c0 4.7 3.808 8.504 8.504 8.504a8.503 8.503 0 0 0 8.503-8.504Zm0 0"/><g clip-path="url(#a)"><path style="fill:none;stroke-width:.79701;stroke-linecap:butt;stroke-linejoin:miter;stroke:#8080ff;stroke-opacity:1;stroke-miterlimit:10" d="M8.503-92.302A8.506 8.506 0 0 1 0-83.798a8.506 8.506 0 0 1-8.504-8.504c0-4.7 3.808-8.504 8.504-8.504a8.503 8.503 0 0 1 8.503 8.504Zm0 0" transform="matrix(1 0 0 -1 50.27 9.491)"/></g><path style="fill-rule:nonzero;fill:#ccc;fill-opacity:1;stroke-width:.79701;stroke-linecap:butt;stroke-linejoin:miter;stroke:gray;stroke-opacity:1;stroke-miterlimit:10" d="M37.648-51.822h11.34v11.34h-11.34Zm0 0" transform="matrix(1 0 0 -1 50.27 9.491)"/><path style="fill:none;stroke-width:.59776;stroke-linecap:butt;stroke-linejoin:miter;stroke:#000;stroke-opacity:1;stroke-miterlimit:10" d="M33.218-46.154H8.902" transform="matrix(1 0 0 -1 50.27 9.491)"/><path style="fill-rule:nonzero;fill:#000;fill-opacity:1;stroke-width:.59776;stroke-linecap:butt;stroke-linejoin:round;stroke:#000;stroke-opacity:1;stroke-miterlimit:10" d="M4.826-.002.966 1.46 2.24 0 .967-1.46Zm0 0" transform="matrix(1 0 0 -1 81.397 55.643)"/><g clip-path="url(#b)"><path style="fill:none;stroke-width:.59776;stroke-linecap:butt;stroke-linejoin:miter;stroke:#000;stroke-opacity:1;stroke-miterlimit:10" d="M43.511-40.083C44.855-20.822 31.476-4.068 12.898-.775" transform="matrix(1 0 0 -1 50.27 9.491)"/></g><path style="fill-rule:nonzero;fill:#000;fill-opacity:1;stroke-width:.59776;stroke-linecap:butt;stroke-linejoin:round;stroke:#000;stroke-opacity:1;stroke-miterlimit:10" d="M4.828-.002.964 1.458 2.24 0 .965-1.46Zm0 0" transform="scale(-.99997 .99997) rotate(-7.95 43.397 474.731)"/><use xlink:href="#c" x="88.364" y="18.862" style="fill:#000;fill-opacity:1"/><g clip-path="url(#d)"><path style="fill:none;stroke-width:.59776;stroke-linecap:butt;stroke-linejoin:miter;stroke:#000;stroke-opacity:1;stroke-miterlimit:10" d="M43.578-56.251c-.684-18.852-15.418-34.426-34.68-35.77" transform="matrix(1 0 0 -1 50.27 9.491)"/></g><path style="fill-rule:nonzero;fill:#000;fill-opacity:1;stroke-width:.59776;stroke-linecap:butt;stroke-linejoin:round;stroke:#000;stroke-opacity:1;stroke-miterlimit:10" d="M4.829 0 .966 1.46 2.243 0 .964-1.459Zm0 0" transform="scale(-.99998 .99998) rotate(-89.97 -12.986 80.861)"/><path style="fill-rule:nonzero;fill:#ccc;fill-opacity:1;stroke-width:.79701;stroke-linecap:butt;stroke-linejoin:miter;stroke:gray;stroke-opacity:1;stroke-miterlimit:10" d="M-48.985-51.822h11.336v11.34h-11.336Zm0 0" transform="matrix(1 0 0 -1 50.27 9.491)"/><path style="fill:none;stroke-width:.59776;stroke-linecap:butt;stroke-linejoin:miter;stroke:#000;stroke-opacity:1;stroke-miterlimit:10" d="M-37.25-46.154h24.316" transform="matrix(1 0 0 -1 50.27 9.491)"/><path style="fill-rule:nonzero;fill:#000;fill-opacity:1;stroke-width:.59776;stroke-linecap:butt;stroke-linejoin:round;stroke:#000;stroke-opacity:1;stroke-miterlimit:10" d="M4.83-.002.965 1.46 2.24 0 .966-1.46Zm0 0" transform="matrix(1 0 0 -1 35.245 55.643)"/><path style="fill:none;stroke-width:.59776;stroke-linecap:butt;stroke-linejoin:miter;stroke:#000;stroke-opacity:1;stroke-miterlimit:10" d="M-43.579-36.052C-42.895-17.2-28.157-1.626-8.899-.282" transform="matrix(1 0 0 -1 50.27 9.491)"/><path style="fill-rule:nonzero;fill:#000;fill-opacity:1;stroke-width:.59776;stroke-linecap:butt;stroke-linejoin:round;stroke:#000;stroke-opacity:1;stroke-miterlimit:10" d="M4.828 0 .965 1.457 2.242 0 .964-1.46Zm0 0" transform="matrix(.00052 .99998 .99998 -.00052 6.702 43.453)"/><path style="fill:none;stroke-width:.59776;stroke-linecap:butt;stroke-linejoin:miter;stroke:#000;stroke-opacity:1;stroke-miterlimit:10" d="M-43.508-52.22c-1.344-19.262 12.031-36.016 30.61-39.309" transform="matrix(1 0 0 -1 50.27 9.491)"/><path style="fill-rule:nonzero;fill:#000;fill-opacity:1;stroke-width:.59776;stroke-linecap:butt;stroke-linejoin:round;stroke:#000;stroke-opacity:1;stroke-miterlimit:10" d="m4.827-.001-3.86 1.46L2.239 0 .964-1.46Zm0 0" transform="matrix(.99036 .1383 .1383 -.99036 35.302 100.722)"/></svg>