<svg xmlns="http://www.w3.org/2000/svg" xmlns:xlink="http://www.w3.org/1999/xlink" width="127.323" height="63.771" viewBox="0 0 95.492 47.828" version="1.2"><defs><symbol overflow="visible" id="b"><path style="stroke:none" d="M7.5-1.86c0-.952-.844-1.624-2.031-1.702 1.078-.204 1.718-.797 1.718-1.563 0-.922-.875-1.719-2.468-1.719H.39v.469h1.078v5.906H.39V0h4.625C6.672 0 7.5-.875 7.5-1.86ZM5.766-5.124c0 .766-.47 1.39-1.438 1.39H2.766v-2.64h1.812c1.016 0 1.188.797 1.188 1.25Zm.28 3.266c0 .109 0 1.39-1.437 1.39H2.766v-2.906h1.937c.203 0 .672 0 1.016.422.328.422.328.984.328 1.094Zm0 0"/></symbol><symbol overflow="visible" id="c"><path style="stroke:none" d="M8.25 0v-.469h-.969L4.72-6.703c-.11-.25-.219-.25-.39-.25-.282 0-.329.078-.391.25l-2.47 6c-.062.156-.093.234-.843.234H.406V0l1.172-.031c.39 0 .938 0 1.313.031v-.469S2-.469 2-.594l.047-.125.5-1.203h2.672l.593 1.453H4.86V0c.391-.031 1.329-.031 1.766-.031.39 0 1.266 0 1.625.031ZM5.016-2.39H2.734l1.141-2.766Zm0 0"/></symbol><symbol overflow="visible" id="d"><path style="stroke:none" d="M8.578-6.375v-.469c-.39.032-.953.032-1.344.032-.421 0-.937 0-1.343-.032v.469h.25c.171 0 .343.016.53.031.282.032.298.047.298.266v4.031L3-6.703c-.11-.125-.125-.14-.328-.14H.39v.468h1.078V-.75c0 .219-.016.219-.297.25-.234.031-.25.031-.531.031H.39V0c.375-.031.937-.031 1.328-.031.422 0 .937 0 1.36.031v-.469h-.25c-.188 0-.36-.015-.532-.031C2-.531 2-.531 2-.75v-5.219L6.953-.125c.11.11.11.125.281.125C7.5 0 7.5-.094 7.5-.313v-5.765c0-.219 0-.234.281-.266.25-.031.266-.031.547-.031Zm0 0"/></symbol><symbol overflow="visible" id="e"><path style="stroke:none" d="M8.422-2.281v-.469c-.344.031-1.219.031-1.61.031-.578 0-1.5 0-2.03-.031v.469h1.421v1c0 .187 0 .484-.375.718-.266.141-.578.204-.906.204-.86 0-1.719-.282-2.203-.907-.422-.546-.563-1.25-.563-2.156 0-1.125.203-1.703.578-2.187.391-.5 1.157-.875 2.125-.875 1.063 0 2.016.765 2.235 2.03.031.188.031.204.265.204.25 0 .266-.016.266-.281v-2.14c0-.188 0-.282-.172-.282-.094 0-.11.031-.203.094l-.656.593a3.026 3.026 0 0 0-1.953-.687c-2.454 0-4 1.469-4 3.531C.64-1.437 2.078.11 4.656.11c.328 0 1.36-.015 1.86-.64.296.265.906.531.968.531.141 0 .141-.125.141-.281v-2Zm0 0"/></symbol><symbol overflow="visible" id="f"><path style="stroke:none" d="M2.531-6.313c0-.39-.36-.718-.781-.718-.438 0-.797.328-.797.718 0 .047 0 .079.031.172L1.5-2.516c.031.25.031.266.25.266.188 0 .219-.016.25-.219l.516-3.719ZM2.516-.78a.78.78 0 0 0-.766-.781.784.784 0 0 0-.781.78.774.774 0 1 0 1.547 0Zm0 0"/></symbol><clipPath id="a"><path d="M0 0h95.238v47.742H0Zm0 0"/></clipPath></defs><path style="stroke:none;fill-rule:nonzero;fill:#fff200;fill-opacity:1" d="m46.07 3.254-5.832 10.305-8.004-5.618-2.879 6.91-13.68-8.792 5.055 11.203-10.332-2.078 5.133 5.285-9.683.968 8.605 2.594-6.023 3.785 9.218-.343-6.796 8.988 13.828-6.133 2.058 5.309 7.864-3.422 3.445 12.21 8.023-11.554 7.239 7.34 4.234-7.996 7.902 3.488 2.02-5.375 10.926 3.945-3.895-6.8 13.86 1.664-10.668-5.106 5.246-2.285-6.32-1.277 7.363-6.399-12.567 3.192 1.895-7.735-10.516 5.325-1.047-11.645-9.836 10.352Zm0 0"/><g clip-path="url(#a)"><path style="fill:none;stroke-width:1.99255;stroke-linecap:butt;stroke-linejoin:miter;stroke:red;stroke-opacity:1;stroke-miterlimit:10" d="M0 19.878-5.834 9.573l-8.004 5.618-2.879-6.91-13.68 8.792L-25.34 5.87l-10.332 2.078 5.133-5.285-9.683-.968L-31.618-.9l-6.023-3.785 9.218.343-6.796-8.988 13.828 6.133 2.058-5.309 7.864 3.422 3.445-12.21L-.001-9.74l7.239-7.34 4.234 7.996 7.902-3.488 2.02 5.375 10.926-3.945-3.895 6.8 13.86-1.664L31.616-.899l5.246 2.285-6.32 1.277 7.363 6.399L25.339 5.87l1.895 7.735L16.718 8.28l-1.047 11.645L5.835 9.573Zm0 0" transform="matrix(1 0 0 -1 46.071 23.132)"/></g><g style="fill:#000;fill-opacity:1"><use xlink:href="#b" x="26.937" y="26.589"/><use xlink:href="#c" x="35.086" y="26.589"/><use xlink:href="#d" x="43.744" y="26.589"/><use xlink:href="#e" x="52.71" y="26.589"/><use xlink:href="#f" x="61.717" y="26.589"/></g></svg>