<svg xmlns="http://www.w3.org/2000/svg" width="135.495" height="124.923" viewBox="0 0 101.621 93.692" version="1.2"><defs><clipPath id="a"><path d="M43.34 35.445h56.695v56.692H43.34Zm0 0"/></clipPath></defs><path style="fill:none;stroke-width:.3985;stroke-linecap:butt;stroke-linejoin:miter;stroke:#000;stroke-opacity:1;stroke-miterlimit:10" d="M0-.001h2.098V2.1H4.2V0h2.098V2.1H4.2v2.098h2.098v2.101h2.101v2.098h2.098V6.3h2.101V4.198h2.098V2.1h-2.098V0h2.098V2.1h2.102V0h2.101V2.1h-2.101v2.098h2.101v2.101h-2.101V4.198H14.7v2.101h-2.102v2.098h-2.101V10.5h2.101v2.097H14.7v2.102h2.098v-2.102h2.101v2.102h-2.101v2.101h2.101v2.098h2.098V21h2.101v-2.102h2.098V21h-2.098v2.097h2.098v2.102h2.102v2.098h2.097v-2.098h2.102v-2.102h2.098V21h-2.098v-2.102h2.098V21h2.101v-2.102h2.098V16.8h2.101v-2.101h-2.101V12.6h2.101v2.098h2.098V12.6h2.102V10.5h2.097V8.4h-2.097V6.299h-2.102V4.198h-2.098v2.101h-2.101V4.198h2.101V2.1h-2.101V0h2.101V2.1h2.098V0h2.102V2.1h-2.102v2.098h2.102v2.101h2.101v2.102h2.098V6.299h2.101V4.198h2.098V2.1h-2.098V0h2.098V2.1h2.102V0h2.097" transform="matrix(1 0 0 -1 .82 28.358)"/><path style="fill:none;stroke-width:.19925;stroke-linecap:butt;stroke-linejoin:miter;stroke:red;stroke-opacity:1;stroke-miterlimit:10" d="m57.466 14.151-17.758 6.465-6.465-17.758 17.758-6.465Zm0 0" transform="matrix(1 0 0 -1 .82 28.358)"/><g clip-path="url(#a)"><path style="fill:none;stroke-width:.3985;stroke-linecap:butt;stroke-linejoin:miter;stroke:#000;stroke-opacity:1;stroke-miterlimit:10" d="M0 0h2.1v2.1h2.1V0h2.099v2.099L4.2 2.1v2.099h2.1v2.1h2.1v2.1l2.1-.001V6.299h2.099V4.2h2.1V2.1h-2.1V0h2.1v2.1h2.1V0h2.099l.001 2.1h-2.1v2.099h2.1v2.1h-2.1V4.2h-2.1v2.1h-2.1v2.1H10.5v2.1l2.1-.001v2.1h2.099v2.1h2.1v-2.1h2.1v2.1h-2.1v2.1h2.1v2.1h2.1l-.001 2.099h2.1v-2.099h2.1v2.099h-2.1v2.1h2.1v2.1h2.1l-.001 2.1h2.1v-2.1h2.1v-2.1h2.099v-2.1h-2.099v-2.1h2.1v2.1h2.099v-2.1l2.1.001v-2.1h2.1v-2.1h-2.1V12.6h2.1v2.099h2.1v-2.1h2.1v-2.1h2.099V8.4h-2.1V6.3l-2.1.001V4.2h-2.099v2.1h-2.1V4.2h2.1V2.1h-2.1V0h2.1v2.1h2.1V0h2.1v2.1h-2.1v2.1h2.099v2.099h2.1v2.1h2.1V6.3h2.1V4.2h2.1V2.1h-2.1V0h2.1v2.1h2.1V0h2.1" transform="scale(3.00002 -3.00002) rotate(20 119.034 -67.232)"/></g><path style="fill:none;stroke-width:.79701;stroke-linecap:butt;stroke-linejoin:miter;stroke:red;stroke-opacity:1;stroke-miterlimit:10" d="M42.52-63.779h56.696v56.692H42.52Zm0 0" transform="matrix(1 0 0 -1 .82 28.358)"/><path style="fill:none;stroke-width:.3985;stroke-linecap:butt;stroke-linejoin:miter;stroke:red;stroke-opacity:1;stroke-miterlimit:10" d="m51.536-2.138 2.871-4.95" transform="matrix(1 0 0 -1 .82 28.358)"/></svg>