<svg xmlns="http://www.w3.org/2000/svg" width="123.483" height="82.083" viewBox="0 0 92.612 61.562" version="1.2"><defs><clipPath id="a"><path d="M0 0h92.418v61.344H0Zm0 0"/></clipPath></defs><path style="fill:none;stroke-width:.19925;stroke-linecap:butt;stroke-linejoin:miter;stroke:gray;stroke-opacity:1;stroke-miterlimit:10" d="M.001-.001h85.04M0 28.346h85.04M0 56.682h85.04M0 0v56.695M28.345-.001v56.695M56.693-.001v56.695M85.029-.001v56.695" transform="matrix(1 0 0 -1 3.604 57.565)"/><g clip-path="url(#a)"><path style="fill:none;stroke-width:.3985;stroke-linecap:butt;stroke-linejoin:miter;stroke:#000;stroke-opacity:1;stroke-miterlimit:10" d="M.001-.001-2.49 2.49l5.465 4.707-3.71 5.703 6.757 2.894-1.086 6.524 7.45-.563 2.066 6.301 6.496-3.41 3.918 5.606 5.543-4.567 4.703 5.125 5.082-4.95 4.965 4.977 5.004-4.945 4.87 5.145 5.259-4.57 4.328 5.706 5.863-3.554 2.836 6.734 6.543-1.215-.399 7.457 6.278 2.028-3.559 6.464 5.363 4.157-.011-.293-4.985-4.985 4.985-4.98-4.985-4.98 4.985-4.981-4.985-4.98 4.985-4.985-4.985-4.98 4.985-4.98-4.985-4.981 4.985-4.985-4.985-4.98-3.336-1.645-4.98 4.98-4.98-4.98-4.981 4.98-4.98-4.98-4.985 4.98-4.98-4.98-4.98 4.98-4.981-4.98-4.985 4.98-4.98-4.98-4.98 4.98-4.981-4.98-4.984 4.98-4.98-4.98-4.981 4.98L2 0h-2" transform="matrix(1 0 0 -1 3.604 57.565)"/></g></svg>