<svg xmlns="http://www.w3.org/2000/svg" width="144.375" height="154.419" viewBox="0 0 108.281 115.814" version="1.2"><defs><clipPath id="a"><path d="M0 0h64v115.723H0Zm0 0"/></clipPath><clipPath id="b"><path d="M23 3h84.922v89H23Zm0 0"/></clipPath></defs><g clip-path="url(#a)"><path style="fill:none;stroke-width:.3985;stroke-linecap:butt;stroke-linejoin:miter;stroke:#000;stroke-opacity:1;stroke-miterlimit:10" d="M28.347 0c0 31.313-12.69 56.692-28.347 56.692-15.656 0-28.348-25.379-28.348-56.691 0-31.313 12.692-56.696 28.348-56.696 15.656 0 28.347 25.383 28.347 56.696Zm0 0" transform="matrix(1 0 0 -1 29.195 57.817)"/></g><g clip-path="url(#b)"><path style="fill:none;stroke-width:.3985;stroke-linecap:butt;stroke-linejoin:miter;stroke:#000;stroke-opacity:1;stroke-miterlimit:10" d="M77.445 20.75 28.347 49.099 0 .001l49.097-28.348Zm0 0" transform="matrix(1 0 0 -1 29.195 57.817)"/></g><path style="fill:none;stroke-width:.3985;stroke-linecap:butt;stroke-linejoin:miter;stroke:#000;stroke-opacity:1;stroke-miterlimit:10" d="M23.422 37.133a1.99 1.99 0 0 1-1.992 1.993 1.993 1.993 0 1 1 1.992-1.992Zm5.82-52.867a1.99 1.99 0 0 1-1.992 1.992 1.99 1.99 0 0 1-1.992-1.992 1.99 1.99 0 0 1 1.992-1.992 1.99 1.99 0 0 1 1.992 1.992Zm0 0" transform="matrix(1 0 0 -1 29.195 57.817)"/></svg>