<svg xmlns="http://www.w3.org/2000/svg" width="80.963" height="91.683" viewBox="0 0 60.722 68.762" version="1.2"><defs><clipPath id="a"><path d="M0 0h60.582v68.645H0Zm0 0"/></clipPath></defs><g clip-path="url(#a)"><path style="fill:none;stroke-width:.3985;stroke-linecap:butt;stroke-linejoin:miter;stroke:#090;stroke-opacity:1;stroke-miterlimit:10" d="m-.001.001 1.266 2.707v2.989m0-2.989L2.526 5.42l2.29 1.918M2.525 5.42v2.988l-1.261 2.707m1.261-2.707v2.989l1.262 2.707M2.526 5.419l1.262 2.707v2.989m0-2.989 1.266 2.711 2.289 1.918m-2.29-1.918 2.29 1.918 1.261 2.711m-1.261-2.71 2.289 1.921 2.886.773m-7.464-4.613v2.988l-1.266 2.707m1.266-2.707v2.989l1.261 2.707m-1.261-2.707L3.788 19.52l-2.29 1.922m2.29-1.922-1.262 2.71v2.989m2.528-8.406v2.988l-1.266 2.707m1.266-2.707v2.988l1.261 2.711m-1.261-2.71 1.261 2.71v2.988m0-2.988 1.262 2.707L9.87 30.13M5.054 10.837l1.261 2.707v2.988m0-2.988 1.262 2.707 2.293 1.922m-2.293-1.922v2.992L6.315 21.95m1.262-2.707v2.989l1.266 2.707M7.577 16.25l1.266 2.711v2.988m0-2.988 1.261 2.707 2.29 1.922m-2.29-1.922 2.29 1.922 1.265 2.711m-1.266-2.71 2.29 1.92 2.89.774m-7.469-4.617 2.29 1.922 1.265 2.711m-1.266-2.71 2.29 1.92 2.89.774m-2.89-.773 1.265 2.707v2.992m0-2.992 1.262 2.71 2.289 1.923m-4.817-7.34 2.293 1.922 1.262 2.707m-1.262-2.707 2.29 1.922 2.886.773m-2.886-.773 2.886.773 2.29 1.918m-2.29-1.918 2.887.774 2.941-.52m-17.875-8.715v2.988l-1.261 2.711m1.261-2.71v2.992l1.266 2.707m-1.266-2.707-1.261 2.707-2.29 1.922m2.29-1.922-1.266 2.71v2.989m2.527-8.406v2.988l-1.261 2.707m1.261-2.707v2.988l1.266 2.707m-1.266-2.707 1.266 2.707v2.989m0-2.989 1.262 2.711 2.289 1.922m-4.817-7.34-1.261 2.707-2.29 1.922m2.29-1.922-1.266 2.711v2.988m0-2.988-2.29 1.922-2.886.773m2.887-.773-2.29 1.918-1.26 2.711m5.839-6.55L6.315 41.75l-2.289 1.922m2.29-1.922-1.262 2.711v2.988m0-2.988v2.988l-1.266 2.707m1.266-2.707v2.989l1.261 2.707m3.79-19.52v2.989l-1.262 2.707m1.261-2.708v2.989l1.266 2.71m-1.266-2.71-1.261 2.71-2.29 1.919m2.29-1.918L7.577 45.02v2.988m2.527-8.406v2.988l-1.261 2.711m1.261-2.71v2.987l1.266 2.711m-1.266-2.71 1.266 2.71v2.989m0-2.989 1.262 2.707 2.289 1.922m-4.817-7.34 1.266 2.711v2.989m0-2.989 1.262 2.707 2.289 1.922m-2.29-1.922v2.992l-1.261 2.708m1.262-2.708v2.989l1.261 2.707m-1.261-8.688 1.261 2.711v2.989m0-2.989 1.266 2.707 2.29 1.922m-2.29-1.922 2.29 1.922 1.26 2.711m-1.26-2.71 2.288 1.921 2.887.773M10.104 21.67l1.266 2.711v2.988m0-2.988 1.262 2.707 2.289 1.922m-2.29-1.922v2.988l-1.261 2.711m1.262-2.71v2.992l1.261 2.707m-1.261-8.688 1.261 2.711v2.988m0-2.988 1.266 2.707 2.29 1.922m-2.29-1.922 2.29 1.922 1.26 2.707m-1.26-2.707 2.288 1.922 2.887.773m-7.465-4.617v2.988l-1.266 2.711m1.266-2.71v2.988l1.262 2.71m-1.262-2.71-1.266 2.71-2.289 1.922m2.29-1.921L12.631 43.9v2.988m2.527-8.406v2.992l-1.266 2.707m1.266-2.707v2.988l1.262 2.707m-1.262-2.707 1.262 2.707v2.988m0-2.988 1.261 2.711 2.293 1.918M15.16 32.505l1.262 2.711v2.988m0-2.988 1.261 2.707 2.293 1.922m-2.293-1.922v2.988l-1.261 2.711m1.261-2.71V43.9l1.266 2.71m-1.266-8.687 1.266 2.711v2.988m0-2.988 1.262 2.707 2.289 1.922m-2.29-1.922 2.29 1.922 1.266 2.707m-1.266-2.707 2.289 1.922 2.887.773m-7.465-4.617 2.289 1.922 1.266 2.707m-1.266-2.707 2.289 1.922 2.887.773m-2.887-.773 1.266 2.707v2.988m0-2.988 1.261 2.71 2.29 1.919m-4.817-7.336 2.293 1.918 1.262 2.71m-1.262-2.71 2.289 1.922 2.887.773m-2.887-.773 2.887.773 2.289 1.922m-2.29-1.922 2.887.774 2.942-.52m-17.875-8.71 2.289 1.92 1.266 2.708m-1.266-2.707 2.289 1.922 2.887.773m-2.887-.773 1.266 2.707v2.988m0-2.988 1.261 2.71 2.29 1.919m-4.817-7.336 2.293 1.918 1.262 2.71m-1.262-2.71 2.289 1.922 2.887.773m-2.887-.773 2.887.773 2.289 1.922m-2.29-1.922 2.887.774 2.942-.52m-8.715-1.027 1.262 2.71v2.989m0-2.988 1.261 2.707 2.293 1.922m-2.293-1.922v2.988l-1.261 2.71m1.261-2.71v2.988l1.266 2.711m-1.266-8.687 1.266 2.71v2.989m0-2.988 1.262 2.707 2.289 1.921m-2.29-1.921 2.29 1.921 1.265 2.708m-1.265-2.708 2.289 1.922 2.887.774M29.37 51.025l2.289 1.922 1.262 2.71m-1.262-2.71 2.29 1.921 2.886.774m-2.887-.774 1.262 2.707v2.993m0-2.993 1.265 2.711 2.29 1.922m-4.817-7.34 2.29 1.922 1.26 2.707m-1.26-2.707 2.288 1.922 2.887.774m-2.887-.774 2.887.774 2.289 1.918m-2.29-1.918 2.888.773 2.945-.52m-8.719-1.027 2.887.774 2.289 1.918m-2.29-1.918 2.888.773 2.945-.52m-2.945.52 2.293 1.918 1.261 2.71m-1.261-2.71 2.289 1.922 2.886.773M44.3 60.26l2.886.773 2.293 1.918m-2.293-1.918 2.891.774 2.941-.52m-2.941.52 2.941-.52 2.887.774m-2.887-.774 2.946-.52 2.445-1.714" transform="matrix(1 0 0 -1 1.048 67.552)"/></g></svg>