<svg xmlns="http://www.w3.org/2000/svg" width="101.817" height="67.899" viewBox="0 0 76.363 50.924" version="1.2"><defs><clipPath id="a"><path d="M0 0h76.043v50.887H0Zm0 0"/></clipPath><clipPath id="b"><path d="M29 40h14v10.887H29Zm0 0"/></clipPath><clipPath id="c"><path d="M63 18h13.043v15H63Zm0 0"/></clipPath><clipPath id="d"><path d="M0 39h10v11.887H0Zm0 0"/></clipPath><clipPath id="e"><path d="M28 40h16v10.887H28Zm0 0"/></clipPath><clipPath id="f"><path d="M62 17h14.043v17H62Zm0 0"/></clipPath><clipPath id="g"><path d="M62 0h14.043v11H62Zm0 0"/></clipPath><clipPath id="h"><path d="M62 40h14.043v10.887H62Zm0 0"/></clipPath><clipPath id="i"><path d="M0 40h11v10.887H0Zm0 0"/></clipPath></defs><g clip-path="url(#a)"><path style="fill:none;stroke-width:1.99255;stroke-linecap:butt;stroke-linejoin:miter;stroke:#bfbfbf;stroke-opacity:1;stroke-miterlimit:10" d="M-3.543 21.26A42.524 42.524 0 0 0 33.28-.002 42.528 42.528 0 0 0-3.543-21.26h-21.262c3.18 6.747 4.817 13.961 4.817 21.239 0 7.273-1.637 14.488-4.817 21.234ZM38.262-.002c0 1.102-.891 1.996-1.993 1.996a1.994 1.994 0 0 1 0-3.988c1.102 0 1.993.895 1.993 1.992ZM-31.891-21.26l.367.645m0 0 .352.652m0 0 .344.66m0 0 .332.665m0 0 .32.668m0 0 .305.675m0 0 .297.68m0 0 .285.688m0 0 .27.69m0 0 .261.692m0 0 .25.7m0 0 .234.707m0 0 .223.707m0 0 .211.71m0 0 .2.715m0 0 .183.72m0 0 .172.722m0 0 .164.722m0 0 .144.727m0 0 .137.73m0 0 .121.735m0 0 .113.73m0 0 .094.739m0 0 .086.738m0 0 .07.738m0 0 .059.738m0 0 .047.743m0 0 .031.742m0 0 .02.738m0 0 .004.742m0 0-.004.743m0 0-.02.742m0 0-.031.742m0 0-.047.742m0 0-.059.738m0 0-.07.739m0 0-.086.738m0 0-.094.734m0 0-.113.735m0 0-.121.734m0 0-.137.727m0 0-.144.73m0 0-.164.723m0 0-.172.722m0 0-.184.72m0 0-.199.714m0 0-.21.71m0 0-.224.708m0 0-.234.703m0 0-.25.7m0 0-.262.695m0 0-.27.691m0 0-.284.688m0 0-.297.68m0 0-.305.675m0 0-.32.668m0 0-.332.664m0 0-.344.66m0 0-.352.652m0 0-.367.645" transform="matrix(1 0 0 -1 35.778 25.428)"/></g><path style="fill:none;stroke-width:.3985;stroke-linecap:butt;stroke-linejoin:miter;stroke:#00f;stroke-opacity:1;stroke-miterlimit:10" d="M.996 22.1a.995.995 0 1 1-1.99.002.995.995 0 0 1 1.99-.002Zm0 0" transform="matrix(1 0 0 -1 35.778 25.428)"/><g clip-path="url(#b)"><path style="fill:none;stroke-width:.3985;stroke-linecap:butt;stroke-linejoin:miter;stroke:#00f;stroke-opacity:1;stroke-miterlimit:10" d="M.996-22.103a.995.995 0 1 1-1.99.001.995.995 0 0 1 1.99-.001Zm0 0" transform="matrix(1 0 0 -1 35.778 25.428)"/></g><g clip-path="url(#c)"><path style="fill:none;stroke-width:.3985;stroke-linecap:butt;stroke-linejoin:miter;stroke:#00f;stroke-opacity:1;stroke-miterlimit:10" d="M35.426-.002a.995.995 0 1 1-1.99.002.995.995 0 0 1 1.99-.002Zm0 0" transform="matrix(1 0 0 -1 35.778 25.428)"/></g><path style="fill:none;stroke-width:.3985;stroke-linecap:butt;stroke-linejoin:miter;stroke:#00f;stroke-opacity:1;stroke-miterlimit:10" d="M-26.195-.002A.995.995 0 1 1-28.186 0a.995.995 0 0 1 1.99-.002ZM19.21 16.428a.998.998 0 0 1-.995.996.995.995 0 1 1 .996-.996ZM19.21-16.427a.995.995 0 1 1-1.99.001.995.995 0 0 1 1.99-.001ZM-31.758 20.76c0 .55-.445 1-.996 1a.999.999 0 0 1 0-1.996c.55 0 .996.45.996.996Zm0 0" transform="matrix(1 0 0 -1 35.778 25.428)"/><g clip-path="url(#d)"><path style="fill:none;stroke-width:.3985;stroke-linecap:butt;stroke-linejoin:miter;stroke:#00f;stroke-opacity:1;stroke-miterlimit:10" d="M-31.758-20.763a.995.995 0 1 1-1.99.001.995.995 0 0 1 1.99-.001Zm0 0" transform="matrix(1 0 0 -1 35.778 25.428)"/></g><path style="fill:none;stroke-width:.3985;stroke-linecap:butt;stroke-linejoin:miter;stroke:red;stroke-opacity:1;stroke-miterlimit:10" d="M1.992 22.256A1.99 1.99 0 0 1 0 24.248a1.99 1.99 0 0 1-1.992-1.992A1.99 1.99 0 0 1 0 20.264a1.99 1.99 0 0 1 1.992 1.992Zm0 0" transform="matrix(1 0 0 -1 35.778 25.428)"/><g clip-path="url(#e)"><path style="fill:none;stroke-width:.3985;stroke-linecap:butt;stroke-linejoin:miter;stroke:red;stroke-opacity:1;stroke-miterlimit:10" d="M1.992-22.256A1.99 1.99 0 0 1 0-20.263a1.99 1.99 0 0 1-1.992-1.993A1.99 1.99 0 0 1 0-24.248a1.99 1.99 0 0 1 1.992 1.992Zm0 0" transform="matrix(1 0 0 -1 35.778 25.428)"/></g><g clip-path="url(#f)"><path style="fill:none;stroke-width:.3985;stroke-linecap:butt;stroke-linejoin:miter;stroke:red;stroke-opacity:1;stroke-miterlimit:10" d="M36.422-.002c0 1.102-.89 1.996-1.992 1.996a1.996 1.996 0 0 1-1.993-1.996 1.993 1.993 0 0 1 3.984 0Zm0 0" transform="matrix(1 0 0 -1 35.778 25.428)"/></g><path style="fill:none;stroke-width:.3985;stroke-linecap:butt;stroke-linejoin:miter;stroke:red;stroke-opacity:1;stroke-miterlimit:10" d="M-30.895-.002c0 1.102-.89 1.996-1.992 1.996a1.994 1.994 0 0 1 0-3.988c1.102 0 1.992.895 1.992 1.992Zm0 0" transform="matrix(1 0 0 -1 35.778 25.428)"/><g clip-path="url(#g)"><path style="fill:none;stroke-width:.3985;stroke-linecap:butt;stroke-linejoin:miter;stroke:red;stroke-opacity:1;stroke-miterlimit:10" d="M36.422 22.256a1.993 1.993 0 1 1-3.983-.002 1.993 1.993 0 0 1 3.983.002Zm0 0" transform="matrix(1 0 0 -1 35.778 25.428)"/></g><g clip-path="url(#h)"><path style="fill:none;stroke-width:.3985;stroke-linecap:butt;stroke-linejoin:miter;stroke:red;stroke-opacity:1;stroke-miterlimit:10" d="M36.422-22.256a1.993 1.993 0 1 1-3.983-.002 1.993 1.993 0 0 1 3.983.002Zm0 0" transform="matrix(1 0 0 -1 35.778 25.428)"/></g><path style="fill:none;stroke-width:.3985;stroke-linecap:butt;stroke-linejoin:miter;stroke:red;stroke-opacity:1;stroke-miterlimit:10" d="M-30.762 22.256a1.993 1.993 0 1 1-3.983-.002 1.993 1.993 0 0 1 3.983.002Zm0 0" transform="matrix(1 0 0 -1 35.778 25.428)"/><g clip-path="url(#i)"><path style="fill:none;stroke-width:.3985;stroke-linecap:butt;stroke-linejoin:miter;stroke:red;stroke-opacity:1;stroke-miterlimit:10" d="M-30.762-22.256a1.993 1.993 0 1 1-3.983-.002 1.993 1.993 0 0 1 3.983.002Zm0 0" transform="matrix(1 0 0 -1 35.778 25.428)"/></g></svg>