<svg xmlns="http://www.w3.org/2000/svg" xmlns:xlink="http://www.w3.org/1999/xlink" width="139.563" height="119.9pt" viewBox="0 0 104.672 119.9" version="1.2"><defs><symbol overflow="visible" id="a"><path style="stroke:none" d="m.453-2.11-.25-.14-.125.219.25.14c.313.172.328.375.25.516-.156.266-.453.094-.562.031l-1.297-.734.39-.672-.218-.125-.391.672-.89-.516-.126.219c.47.281.797.766.547 1.25l.157.094.234-.39 1.297.734c.484.28.828-.063 1.015-.391.204-.344.047-.719-.28-.906Zm0 0"/></symbol><symbol overflow="visible" id="b"><path style="stroke:none" d="M.844-2.828c-.078-.047-.14.047-.156.062-.047.094-.032.125.046.188.157.25.157.625-.03.969-.407.703-1.079.312-1.329.171L.25-2.952c.063-.11.094-.156-.047-.235-.156-.093-.547-.296-.937-.171-.297.078-.547.296-.735.64-.468.813-.203 1.547.422 1.906.688.391 1.453.172 1.922-.64.469-.797.063-1.313-.031-1.375Zm-.953.11-.688 1.187c-.203-.125-.406-.266-.515-.453a.618.618 0 0 1 .03-.625c.329-.579 1-.22 1.173-.11Zm0 0"/></symbol><symbol overflow="visible" id="c"><path style="stroke:none" d="m1.813-3.156-.25-.14-.22.374-1.593.281-.344-1.015c-.031-.11-.047-.172.203-.625l-.25-.14-.265.5-.344.562.25.14a.333.333 0 0 1 .188-.172c0 .032.015.047.015.063l.266.75-.938.172.125-.219-.25-.14-.36.64-.359.594.25.14.22-.375 1.468-.25.39 1.157c.063.156-.046.343-.203.593l.25.141.266-.484.344-.547-.25-.14c-.063.093-.14.171-.172.155 0 0-.016-.015-.031-.062l-.297-.875 1.047-.188-.125.22.25.14.36-.657Zm0 0"/></symbol><symbol overflow="visible" id="d"><path style="stroke:none" d="M.547-2.594.25-2.766.094-2.5l.281.156c.39.235.438.485.344.656-.188.329-.563.11-.688.047l-1.593-.921.484-.829-.281-.156-.485.828-1.093-.64-.157.28c.578.345.985.954.672 1.517l.203.125.281-.47L-.359-1C.25-.64.67-1.078.906-1.484c.25-.438.063-.875-.36-1.11Zm0 0"/></symbol><symbol overflow="visible" id="e"><path style="stroke:none" d="M1.094-3.625c-.125-.063-.203.047-.219.078-.063.11-.031.14.047.25C1.14-3 1.14-2.5.906-2.078c-.531.906-1.39.422-1.719.234L.313-3.797c.079-.14.126-.203-.046-.297-.204-.125-.72-.36-1.22-.218-.359.093-.687.375-.952.828-.594 1.03-.25 1.984.547 2.437.89.516 1.89.203 2.5-.828.593-1.031.046-1.688-.047-1.75Zm-1.235.11-.89 1.546c-.25-.156-.516-.328-.64-.578a.789.789 0 0 1 .015-.797c.437-.765 1.281-.297 1.515-.172Zm0 0"/></symbol><symbol overflow="visible" id="f"><path style="stroke:none" d="M-2.469-5.406c-.297-.157-.75-.11-1.062.437-.375.657-.516 1.578.265 2.032l.688.39-.297.516.328.187.297-.515L.125-.984l-.266.468.329.188.468-.875c.14-.266.39-.688.578-.938l-.328-.187-.344.594-2.375-1.375.454-.782-.329-.187-.484.828-.687-.39c-.766-.438-.516-.985-.407-1.157.016-.031.032-.078.079-.11 0 .141.109.266.234.329.297.172.562.031.656-.156.125-.22.11-.5-.172-.672Zm0 0"/></symbol><symbol overflow="visible" id="g"><path style="stroke:none" d="M-2.594-5.688c-.297-.171-.781-.093-1.094.454-.421.718-.546 1.671.266 2.14l.719.406-.313.547.329.204.312-.547L.141-1.031l-.297.5.344.187.5-.922c.156-.28.421-.734.609-.984l-.344-.188-.375.641-2.515-1.453.484-.844-.328-.203-.5.89L-3-3.811c-.797-.47-.563-1.063-.453-1.235a.276.276 0 0 1 .078-.125c.016.156.125.281.266.36a.476.476 0 0 0 .687-.157c.125-.218.125-.547-.172-.718Zm0 0"/></symbol><symbol overflow="visible" id="h"><path style="stroke:none" d="M1.281-4.234c-.14-.079-.234.078-.25.109-.078.125-.047.156.047.266.266.375.266.937-.016 1.437-.609 1.063-1.64.5-2.03.266L.358-4.437c.094-.172.141-.25-.062-.36-.219-.14-.813-.406-1.406-.234-.422.11-.797.437-1.094.953-.703 1.219-.297 2.312.64 2.844 1.016.593 2.188.25 2.875-.954.704-1.203.094-1.984-.03-2.046Zm-1.437.125-1.047 1.812c-.281-.187-.594-.375-.766-.687a.939.939 0 0 1 .032-.938c.5-.875 1.5-.328 1.78-.187Zm0 0"/></symbol><symbol overflow="visible" id="i"><path style="stroke:none" d="M1.25-4.313c-.125-.062-.188.047-.234.141-.079.125-.047.156.015.25.39.5.328.953.094 1.36-.64 1.093-1.813.421-2.172.218-.437-.25-1.469-.844-.875-1.86.156-.28.266-.405.344-.5a.692.692 0 0 0 .266.376c.359.203.656 0 .78-.219.141-.234.141-.594-.202-.781-.672-.39-1.25.5-1.516.969-.828 1.421-.25 2.53.656 3.046 1.063.61 2.235.297 2.938-.921.75-1.282-.032-2.047-.094-2.079Zm0 0"/></symbol><symbol overflow="visible" id="j"><path style="stroke:none" d="M.781-3.75.344-4l-.219.375.422.25c.578.328.61.719.484.953-.281.469-.812.156-1 .047L-2.25-3.688l.703-1.203-.39-.218-.704 1.203-1.578-.922-.218.39c.812.5 1.406 1.375.953 2.204l.296.171.391-.687L-.53-1.437c.875.5 1.484-.094 1.812-.688.375-.625.11-1.266-.5-1.625Zm0 0"/></symbol><symbol overflow="visible" id="k"><path style="stroke:none" d="M.86-4.266c-.376-.218-.766-.218-1.188-.062-.453.187-.656.453-1.172 1.031-.234.297-.64.797-1.047.563-.547-.313-.094-1.11 0-1.266.375-.656.813-.828 1.328-.594.125.063.188.063.282-.11.125-.202.078-.218-.125-.343l-.688-.39c-.156-.094-.234-.141-.328 0-.016.046-.031.062-.063.5-.25.156-.468.421-.656.765-.156.266-.922 1.594.203 2.25.344.188.672.156.922.063.484-.172.75-.485 1.25-1.063.234-.281.703-.86 1.219-.562.656.375.203 1.171.094 1.359-.532.922-1.297.75-1.735.656-.125-.031-.156.016-.219.125-.125.219-.078.25.11.36L0-.438c.156.094.234.141.328-.015C.36-.516.36-.531.344-.797l-.031-.281c.515-.25.78-.703.875-.875.156-.281.921-1.594-.329-2.313Zm0 0"/></symbol><symbol overflow="visible" id="l"><path style="stroke:none" d="M2.75-5.297c-.203-.125-.281 0-.344.125-.344.563-.453.484-.672.36L-.28-5.97c-.828-.484-1.828-.156-2.625 1.235-.313.53-.922 1.687-.11 2.171.407.235.782 0 .922-.25.172-.296.14-.703-.25-.921-.281-.172-.531-.094-.578-.047.094-.313.266-.625.328-.735.406-.703.985-.78 1.688-.375l.328.188c-.36.672-1.656 3.094-.297 3.875.906.515 1.734-.547 2.11-1.203.421-.735.312-1.406.03-1.828.282.156.72.406 1.282-.563l.265-.453c.11-.188.172-.297-.062-.422ZM.594-4.03c.89.515.531 1.437.39 1.687-.28.469-.812.64-1.218.406-1.016-.593-.313-2.14-.063-2.609Zm0 0"/></symbol><symbol overflow="visible" id="m"><path style="stroke:none" d="m1.64-2.844-.452-.265-.391.671-6.281-3.624-.907 1.765.454.266c.343-.61.375-.672.765-.453l5.36 3.093-.376.672.454.266.656-1.219Zm0 0"/></symbol><symbol overflow="visible" id="n"><path style="stroke:none" d="M.953-6.719C-.407-7.5-1.953-7.156-2.89-5.516c-.953 1.641-.453 3.157.891 3.922 1.234.719 2.734.422 3.719-1.265.968-1.704.468-3.141-.766-3.86ZM.11-5.5c.86.5 1.954 1.14 1.22 2.422-.75 1.281-1.845.64-2.704.14-.469-.265-.984-.562-1.203-.921-.266-.407-.235-.954.062-1.454.235-.421.641-.75 1.11-.765.468-.016 1.031.297 1.515.578Zm0 0"/></symbol><symbol overflow="visible" id="o"><path style="stroke:none" d="m3.703-6.406-.484-.282-.422.72L.094-7.532C-1-8.156-1.75-7.828-2.344-6.797c-.578 1.016-.297 1.906.078 2.484l-1.14-.656-.922 1.844.484.281c.375-.64.422-.719.828-.484l3.22 1.86-.423.718.485.281L1-1.797l.781-1.297-.484-.281-.406.719-2.188-1.25c-1.125-.656-1.125-1.86-.75-2.5.203-.36.547-.453 1.344 0l2.812 1.625-.406.718.484.282.72-1.328Zm0 0"/></symbol><symbol overflow="visible" id="p"><path style="stroke:none" d="M-.813-8.484a.74.74 0 0 0-1.015.312c-.094.156-.36.688-.25 1.39-.235.11-.735.438-1.203 1.235-.89 1.563-.375 2.625.36 3.063.452.25 1.015.296 1.468.109.203.516.516.781.75.906.156.094.719.36 1.297.125C.563-1.187.344-.28 1.016.11c.546.313 1.687.204 2.937-1.953 1.11-1.906.953-3.125.188-3.562-.313-.188-1.047-.485-1.829.031-.64.422-1.015 1.078-1.624 2.11-.157.28-.438.78-.485.828a.803.803 0 0 1-1.016.203c-.109-.063-.265-.188-.296-.313.546-.36.859-.875 1.015-1.156.906-1.547.422-2.64-.344-3.078-.5-.297-1-.219-1.28-.157.015-.437.109-.671.171-.78.063.046.14.124.203.155.282.157.578.079.735-.187a.522.522 0 0 0-.204-.734Zm-.328 2.921c.485.282 1.22.704.672 1.641-.547.953-1.281.531-1.765.25-.485-.281-1.204-.703-.657-1.656.547-.938 1.266-.516 1.75-.234Zm4.782 1.125c.375.22.734.97-.079 2.375C2.813-.766 2.016-.53 1.517-.813c-.641-.375-.25-1.062-.172-1.203l.734-1.28c.188-.313.89-1.532 1.563-1.142Zm0 0"/></symbol><symbol overflow="visible" id="q"><path style="stroke:none" d="M1.406-8.39c-1.515-.876-3.218-.454-4.172 1.218-.5.844-.484 1.672-.421 2.047l-.579-.328-1.093 2.094.546.312c.422-.719.47-.797.922-.531L2.391-.25l-.47.797.548.312.797-1.468.89-1.438-.547-.312-.468.796L1-2.78c.703-.266 1.094-.719 1.375-1.188.984-1.719.656-3.484-.969-4.422Zm-.86 1.484c1.626.937 1.766 2.078 1.329 2.828-.094.156-.406.687-1.297.875-.234.031-.25.031-.469-.094l-2.437-1.422c-.219-.125-.219-.14-.297-.39-.188-.735.078-1.375.219-1.625.453-.782 1.515-1 2.953-.172Zm0 0"/></symbol><symbol overflow="visible" id="r"><path style="stroke:none" d="M3.5-6.719c-.281-.156-.36 0-.453.157-.422.703-.578.625-.86.453L-.358-7.58c-1.047-.609-2.313-.202-3.329 1.563-.39.672-1.187 2.141-.156 2.75.531.297 1 .032 1.188-.296.219-.36.187-.891-.328-1.172-.344-.204-.672-.125-.735-.094.14-.375.344-.766.422-.906.516-.891 1.25-1.016 2.156-.5L-.734-6c-.454.875-2.079 3.938-.36 4.938 1.125.656 2.188-.688 2.657-1.516.546-.953.39-1.766.046-2.344.375.219.922.531 1.625-.687l.329-.579c.14-.218.218-.375-.063-.53ZM.75-5.14c1.14.657.672 1.86.5 2.157-.36.609-1.031.843-1.563.53-1.28-.733-.374-2.702-.062-3.327Zm0 0"/></symbol><symbol overflow="visible" id="s"><path style="stroke:none" d="m1.172-5.547-.656-.375-.329.578.625.36c.844.484.907 1.046.704 1.39-.407.703-1.172.25-1.454.094l-3.374-1.953 1.03-1.781-.577-.329-1.032 1.782-2.328-1.344-.328.578c1.203.703 2.063 2 1.39 3.25l.454.25.578-1.015 3.344 1.937c1.312.75 2.187-.172 2.687-1.031.532-.922.157-1.875-.734-2.39Zm0 0"/></symbol><symbol overflow="visible" id="t"><path style="stroke:none" d="m4.469-7.734-.594-.344-.5.86L.109-9.095c-1.312-.765-2.187-.375-2.921.89-.704 1.22-.344 2.282-.032 2.845v.015l-4.281-2.468-1.188 2.265.61.344c.453-.797.5-.875.984-.594L.234-1.78l-.5.875.594.344.86-1.61.968-1.562-.594-.344-.5.86-2.625-1.516c-1.375-.782-1.359-2.22-.906-3.016.25-.422.672-.531 1.625.016l3.39 1.953-.5.86.595.343.859-1.594Zm0 0"/></symbol><symbol overflow="visible" id="u"><path style="stroke:none" d="M-6.313-8.016c-.5-.28-1.187-.062-1.515.485-.313.562-.156 1.265.344 1.547.078.046.109.062.25.125l5.078 2.046c.344.141.375.141.531-.14.14-.235.14-.297-.094-.469l-4.437-3.484ZM.875-3.859c-.547-.329-1.266-.11-1.594.437a1.166 1.166 0 0 0 .422 1.578c.563.328 1.281.14 1.594-.422a1.16 1.16 0 0 0-.422-1.593Zm0 0"/></symbol><symbol overflow="visible" id="I"><path style="stroke:none" d="M1.61-9.422c-1.72-1-3.626-.531-4.704 1.344-.562.969-.562 1.875-.5 2.312l-.625-.375-1.234 2.375.61.344c.468-.812.515-.89 1.015-.594l6.515 3.75-.515.891.594.344.921-1.656.97-1.61-.595-.344-.515.891L1.14-3.125c.765-.297 1.218-.797 1.53-1.328 1.126-1.938.735-3.938-1.062-4.969ZM.64-7.766c1.813 1.047 1.97 2.344 1.485 3.188-.11.172-.453.781-1.484.969-.266.046-.266.03-.516-.11l-2.75-1.578c-.234-.14-.25-.172-.328-.453-.219-.828.094-1.547.265-1.828.5-.875 1.688-1.14 3.329-.188Zm0 0"/></symbol><symbol overflow="visible" id="J"><path style="stroke:none" d="M3.813-7.328c-.297-.172-.391 0-.485.172-.484.781-.64.687-.937.515L-.406-8.25c-1.14-.656-2.5-.234-3.625 1.688-.422.734-1.282 2.359-.14 3.015.577.328 1.077 0 1.265-.344.234-.406.219-.968-.328-1.28a.954.954 0 0 0-.797-.095c.11-.406.343-.828.422-.968.562-.97 1.39-1.125 2.359-.563l.453.266c-.5.937-2.281 4.281-.39 5.375 1.234.718 2.39-.75 2.906-1.64.593-1.048.422-1.954.031-2.563.406.234 1 .578 1.781-.75l.36-.625c.14-.266.234-.422-.079-.594ZM.828-5.594c1.235.719.719 2 .531 2.328-.375.672-1.125.907-1.687.579-1.39-.797-.406-2.938-.078-3.626Zm0 0"/></symbol><symbol overflow="visible" id="K"><path style="stroke:none" d="m1.234-5.86-.671-.39-.344.61.656.374c.875.516.938 1.094.719 1.454-.438.765-1.25.28-1.547.109l-3.578-2.063 1.094-1.906-.594-.344-1.094 1.907-2.484-1.422-.344.593c1.297.766 2.203 2.125 1.5 3.438l.469.266.609-1.063L-.828-2.25c1.39.813 2.328-.172 2.86-1.094.562-.969.155-1.969-.798-2.515Zm0 0"/></symbol><symbol overflow="visible" id="L"><path style="stroke:none" d="m4.594-7.953-.61-.344-.515.89-3.36-1.937c-1.343-.781-2.25-.375-3 .906a2.86 2.86 0 0 0-.03 2.922l-4.392-2.53-1.234 2.343.61.36c.468-.798.515-.891 1.015-.61l7.156 4.14-.515.891.61.344.89-1.64 1-1.626-.61-.344-.515.891-2.703-1.562c-1.407-.813-1.407-2.297-.938-3.11.25-.437.672-.562 1.672.016l3.484 2.016-.515.89.61.344.89-1.625Zm0 0"/></symbol><symbol overflow="visible" id="v"><path style="stroke:none" d="m.531-2.516-.297-.171-.156.265.281.156c.375.22.422.485.329.625-.188.329-.547.125-.672.047l-1.532-.875.47-.812-.266-.156-.47.812-1.046-.61-.14.25c.53.344.921.938.624 1.47l.203.124.266-.437 1.531.875C.234-.61.641-1.047.86-1.438c.25-.421.079-.843-.328-1.078Zm0 0"/></symbol><symbol overflow="visible" id="w"><path style="stroke:none" d="M.922-3.125c-.094-.047-.156.063-.172.094-.047.094-.031.125.031.203.219.265.203.687 0 1.047-.453.781-1.187.36-1.469.203L.266-3.25c.078-.11.109-.188-.047-.281-.172-.094-.594-.281-1.032-.188-.312.11-.593.328-.812.719-.516.89-.234 1.703.469 2.11.75.437 1.61.171 2.125-.72.5-.874.047-1.452-.047-1.515Zm-1.031.11-.766 1.328c-.219-.125-.453-.282-.578-.5a.741.741 0 0 1 .031-.688c.375-.64 1.11-.234 1.313-.14Zm0 0"/></symbol><symbol overflow="visible" id="x"><path style="stroke:none" d="m1.875-3.25-.25-.14-.234.39-1.641.297-.344-1.078c-.062-.11-.062-.156.203-.625l-.265-.157-.281.532-.344.547.265.156A.54.54 0 0 1-.859-3.5c.03.031.046.031.062.078l.25.75-.969.203.141-.234-.266-.156-.375.703-.375.578.266.156.234-.39 1.532-.266.39 1.203c.047.156-.062.344-.218.61l.25.14.28-.516.344-.562-.25-.14c-.046.093-.14.187-.187.155 0 0-.016 0-.031-.078l-.297-.859 1.094-.203-.125.219.25.14.359-.672Zm0 0"/></symbol><symbol overflow="visible" id="y"><path style="stroke:none" d="M1.344-4.484c-.14-.094-.235.062-.25.093-.078.141-.063.188.047.313.28.39.28.984-.016 1.5-.656 1.14-1.734.531-2.14.297L.39-4.703c.093-.188.14-.25-.079-.375-.234-.14-.859-.438-1.484-.266-.469.125-.844.469-1.172 1.016-.734 1.281-.312 2.469.688 3.047 1.062.61 2.312.25 3.047-1.032.734-1.265.093-2.093-.047-2.171Zm-1.516.14-1.11 1.907c-.296-.204-.64-.391-.796-.72a1.06 1.06 0 0 1 .015-1c.547-.937 1.626-.343 1.891-.187Zm0 0"/></symbol><symbol overflow="visible" id="z"><path style="stroke:none" d="M-1.453-8.813c-.344-.203-.875-.109-1.234.516-.172.281-.391.797-.376 1.281-.468.188-.734.625-.828.797-.578 1-.921 2.297.016 2.844l.797.469-.344.61.375.218.344-.61 2.812 1.61-.312.562.375.22.531-1 .61-.97-.375-.218-.329.546-2.812-1.609.969-1.672 2.812 1.61-.312.546.375.22.546-1.032c.172-.297.47-.813.672-1.078l-.375-.219-.406.688-2.812-1.61.546-.937-.374-.219-.579 1-.812-.469c-.922-.531-.547-1.234-.453-1.375.031-.062.062-.094.094-.14a.58.58 0 0 0 .28.406.56.56 0 0 0 .782-.203.565.565 0 0 0-.203-.781Zm-1.797 2.36c0 .031 0 .328.297.5.125.078.328.11.5.016l.844.5-1 1.718-.782-.453c-.671-.39-.656-1.078-.234-1.812.14-.25.266-.407.375-.47Zm0 0"/></symbol><symbol overflow="visible" id="A"><path style="stroke:none" d="M1.266-4.36c-.125-.077-.188.032-.235.11-.078.156-.047.172.016.266.39.515.328.968.094 1.375-.641 1.125-1.829.453-2.188.234-.453-.266-1.484-.86-.89-1.906.156-.266.25-.39.328-.469.062.219.203.328.28.36a.589.589 0 0 0 .813-.204c.141-.25.094-.593-.234-.797-.688-.39-1.266.5-1.531.97-.828 1.437-.25 2.562.687 3.109 1.047.609 2.25.28 2.953-.938.75-1.297-.03-2.078-.093-2.11Zm0 0"/></symbol><symbol overflow="visible" id="B"><path style="stroke:none" d="m.781-3.625-.437-.25-.219.39.406.235c.563.313.594.672.469.89-.266.47-.781.172-.969.063l-2.219-1.265.672-1.172-.375-.22-.671 1.173-1.532-.89-.218.374c.796.469 1.375 1.328.937 2.14l.281.173.375-.672 2.203 1.265c.86.5 1.438-.093 1.766-.671.36-.61.11-1.235-.469-1.563Zm0 0"/></symbol><symbol overflow="visible" id="C"><path style="stroke:none" d="M.797-3.969c-.344-.203-.719-.203-1.11-.047-.406.172-.609.407-1.078.97-.218.265-.609.733-.984.515-.5-.281-.063-1.031.016-1.172.343-.61.765-.781 1.218-.578.125.078.172.078.266-.078.11-.204.078-.22-.11-.329l-.64-.375c-.156-.078-.219-.125-.297.016-.031.047-.031.063-.078.469-.203.14-.422.39-.61.719-.124.218-.843 1.468.204 2.078a.946.946 0 0 0 .86.062c.468-.172.687-.437 1.155-1 .204-.25.672-.797 1.141-.531.594.344.156 1.094.063 1.266-.5.859-1.188.734-1.579.625-.14-.032-.171.015-.234.125-.11.203-.063.234.11.328L0-.391c.14.079.219.125.297-.03C.328-.47.344-.485.328-.72L.312-1c.47-.234.704-.64.797-.813.141-.25.86-1.484-.312-2.156Zm0 0"/></symbol><symbol overflow="visible" id="D"><path style="stroke:none" d="M3.094-5.938c-.235-.14-.313 0-.39.141-.392.625-.532.547-.767.406l-2.25-1.296c-.937-.547-2.046-.188-2.953 1.375-.343.609-1.03 1.89-.109 2.437.469.266.86.016 1.031-.281a.729.729 0 0 0-.281-1.031c-.313-.188-.61-.094-.64-.063.093-.328.28-.672.343-.797.453-.781 1.125-.906 1.922-.437l.344.203c-.406.765-1.844 3.468-.328 4.343C.03-.344.969-1.546 1.39-2.266c.484-.843.343-1.578.03-2.078.329.188.813.469 1.438-.61l.282-.5c.125-.218.203-.343-.047-.484ZM.656-4.53c1.016.593.594 1.64.453 1.89-.312.547-.921.75-1.39.485-1.125-.656-.313-2.406-.047-2.938Zm0 0"/></symbol><symbol overflow="visible" id="E"><path style="stroke:none" d="M1.766-3.078 1.28-3.36l-.422.734-6.78-3.906-.985 1.906.484.281c.375-.656.422-.734.844-.5L.219-1.5l-.422.734.484.282L1-1.797Zm0 0"/></symbol><symbol overflow="visible" id="F"><path style="stroke:none" d="M1-7c-1.406-.813-3.031-.438-4.016 1.266-1 1.718-.484 3.265.922 4.078 1.297.75 2.875.422 3.89-1.313C2.813-4.734 2.282-6.266 1-7ZM.11-5.703c.906.516 2.03 1.172 1.265 2.5-.766 1.328-1.89.672-2.797.156-.484-.281-1.016-.594-1.281-.984-.266-.422-.235-.969.062-1.485.25-.453.688-.796 1.188-.796.469-.016 1.062.312 1.562.609Zm0 0"/></symbol><symbol overflow="visible" id="G"><path style="stroke:none" d="m3.719-6.438-.485-.28L2.813-6 .092-7.563c-1.093-.64-1.827-.312-2.437.75-.578 1-.297 1.891.078 2.485l-1.125-.656-.968 1.843.484.282c.375-.657.422-.72.828-.485l3.25 1.875-.422.719.485.281L1-1.797l.797-1.312-.484-.282-.422.735-2.188-1.266c-1.156-.656-1.14-1.86-.75-2.531.203-.344.547-.438 1.344.031l2.828 1.625-.422.719.484.281.735-1.328Zm0 0"/></symbol><symbol overflow="visible" id="H"><path style="stroke:none" d="M-.781-8.234a.718.718 0 0 0-1 .296c-.078.157-.344.672-.25 1.344-.235.11-.688.422-1.14 1.203-.86 1.516-.392 2.563.327 2.985.438.25 1 .281 1.438.078.203.515.484.781.703.906.172.094.719.344 1.281.125C.531-1.14.313-.28.968.11c.548.313 1.657.204 2.876-1.89 1.062-1.86.922-3.047.187-3.469a1.658 1.658 0 0 0-1.797.031c-.609.422-.968 1.032-1.562 2.047-.156.281-.422.75-.469.797a.802.802 0 0 1-1.016.203.694.694 0 0 1-.265-.297c.516-.344.86-.86 1-1.125.875-1.515.375-2.562-.36-2.984a1.594 1.594 0 0 0-1.234-.156c.031-.422.125-.657.172-.766.047.047.125.125.188.172.265.14.562.078.718-.219.156-.266.063-.547-.187-.687Zm-.328 2.828c.484.281 1.187.687.656 1.593-.531.922-1.234.516-1.719.235-.469-.266-1.156-.672-.625-1.594.531-.906 1.219-.5 1.688-.234Zm4.64 1.078c.375.219.719.953-.062 2.328-.735 1.25-1.516 1.484-2 1.203-.625-.36-.235-1.015-.157-1.172l.704-1.218c.187-.313.875-1.516 1.515-1.141Zm0 0"/></symbol></defs><path style="stroke:none;fill-rule:nonzero;fill:#bfbfbf;fill-opacity:1" d="m2.059 113.055-1.204 2.09 6.11 3.527 1.207-2.09Zm0 0"/><use xlink:href="#a" x="5.379" y="117.756" style="fill:#000;fill-opacity:1"/><path style="stroke:none;fill-rule:nonzero;fill:#bfbfbf;fill-opacity:1" d="m4.16 110.73-1.531 2.653 5.664 3.27L9.824 114Zm0 0"/><use xlink:href="#b" x="6.585" y="115.667" style="fill:#000;fill-opacity:1"/><path style="stroke:none;fill-rule:nonzero;fill:#bfbfbf;fill-opacity:1" d="m5.816 107.32-1.89 3.274 5.988 3.457 1.89-3.274Zm0 0"/><use xlink:href="#c" x="8.116" y="113.015" style="fill:#000;fill-opacity:1"/><path style="stroke:none;fill-rule:nonzero;fill:#bfbfbf;fill-opacity:1" d="m5.922 103.953-1.484 2.574 7.519 4.34 1.484-2.57Zm0 0"/><use xlink:href="#d" x="10.006" y="109.741" style="fill:#000;fill-opacity:1"/><path style="stroke:none;fill-rule:nonzero;fill:#bfbfbf;fill-opacity:1" d="m9.723 98.48-1.97 3.41 7.286 4.208 1.969-3.41Zm0 0"/><use xlink:href="#e" x="12.842" y="104.83" style="fill:#000;fill-opacity:1"/><path style="stroke:none;fill-rule:nonzero;fill:#bfbfbf;fill-opacity:1" d="m9.137 94.95-1.383 2.394 9.332 5.39 1.387-2.398Zm0 0"/><use xlink:href="#f" x="14.811" y="101.42" style="fill:#000;fill-opacity:1"/><path style="stroke:none;fill-rule:nonzero;fill:#bfbfbf;fill-opacity:1" d="m10.223 92.21-1.457 2.524 9.824 5.672 1.457-2.523Zm0 0"/><use xlink:href="#g" x="16.195" y="99.022" style="fill:#000;fill-opacity:1"/><path style="stroke:none;fill-rule:nonzero;fill:#bfbfbf;fill-opacity:1" d="m14.012 89.094-2.297 3.976 8.5 4.907L22.512 94Zm0 0"/><use xlink:href="#h" x="17.652" y="96.499" style="fill:#000;fill-opacity:1"/><path style="stroke:none;fill-rule:nonzero;fill:#bfbfbf;fill-opacity:1" d="M16.063 84.887 13.73 88.93l8.903 5.14 2.332-4.043Zm0 0"/><use xlink:href="#i" x="19.949" y="92.52" style="fill:#000;fill-opacity:1"/><path style="stroke:none;fill-rule:nonzero;fill:#bfbfbf;fill-opacity:1" d="m16.41 80.16-2.133 3.695 10.809 6.243 2.137-3.696Zm0 0"/><use xlink:href="#j" x="22.282" y="88.479" style="fill:#000;fill-opacity:1"/><path style="stroke:none;fill-rule:nonzero;fill:#bfbfbf;fill-opacity:1" d="m19.895 76.95-2.262 3.917 9.71 5.606 2.262-3.918Zm0 0"/><use xlink:href="#k" x="24.416" y="84.783" style="fill:#000;fill-opacity:1"/><path style="stroke:none;fill-rule:nonzero;fill:#bfbfbf;fill-opacity:1" d="m24.332 67.957-3.016 5.223 10.52 6.074 3.016-5.223Zm0 0"/><use xlink:href="#l" x="28.664" y="77.424" style="fill:#000;fill-opacity:1"/><path style="stroke:none;fill-rule:nonzero;fill:#bfbfbf;fill-opacity:1" d="m23.496 63.348-1.785 3.093 13.207 7.625 1.785-3.097Zm0 0"/><use xlink:href="#m" x="31.681" y="72.199" style="fill:#000;fill-opacity:1"/><path style="stroke:none;fill-rule:nonzero;fill:#bfbfbf;fill-opacity:1" d="m28.895 58.746-3.34 5.785 11.328 6.543 3.344-5.789Zm0 0"/><use xlink:href="#n" x="33.468" y="69.103" style="fill:#000;fill-opacity:1"/><path style="stroke:none;fill-rule:nonzero;fill:#bfbfbf;fill-opacity:1" d="m32.492 51.938-3.847 6.664 11.64 6.718 3.848-6.66Zm0 0"/><use xlink:href="#o" x="36.81" y="63.315" style="fill:#000;fill-opacity:1"/><path style="stroke:none;fill-rule:nonzero;fill:#bfbfbf;fill-opacity:1" d="m35.734 45.543-3.578 6.203 14.262 8.234L50 53.777Zm0 0"/><use xlink:href="#p" x="40.656" y="56.654" style="fill:#000;fill-opacity:1"/><path style="stroke:none;fill-rule:nonzero;fill:#bfbfbf;fill-opacity:1" d="M41.934 33.629 37.69 40.98l15.075 8.704 4.246-7.348Zm0 0"/><use xlink:href="#q" x="46.7" y="46.184" style="fill:#000;fill-opacity:1"/><path style="stroke:none;fill-rule:nonzero;fill:#bfbfbf;fill-opacity:1" d="m45.445 26.816-3.828 6.63 13.352 7.71 3.828-6.633Zm0 0"/><use xlink:href="#r" x="50.944" y="38.833" style="fill:#000;fill-opacity:1"/><path style="stroke:none;fill-rule:nonzero;fill:#bfbfbf;fill-opacity:1" d="m46.094 19.906-3.157 5.461 15.985 9.227 3.152-5.461Zm0 0"/><use xlink:href="#s" x="54.773" y="32.202" style="fill:#000;fill-opacity:1"/><path style="stroke:none;fill-rule:nonzero;fill:#bfbfbf;fill-opacity:1" d="m49.645 11.234-4.641 8.04L62.12 29.16l4.64-8.043Zm0 0"/><use xlink:href="#t" x="57.927" y="26.738" style="fill:#000;fill-opacity:1"/><path style="stroke:none;fill-rule:nonzero;fill:#bfbfbf;fill-opacity:1" d="m51.746 6.41-2.613 4.527 17.75 10.25 2.617-4.53Zm0 0"/><use xlink:href="#u" x="62.569" y="18.698" style="fill:#000;fill-opacity:1"/><path style="stroke:none;fill-rule:nonzero;fill:#fcc;fill-opacity:1" d="m34.848 103.406-6.493 11.25 7.254 4.188 6.493-11.25Zm0 0"/><g style="fill:#000;fill-opacity:1"><use xlink:href="#v" x="33.726" y="117.756"/><use xlink:href="#w" x="35.157" y="115.277"/><use xlink:href="#x" x="36.845" y="112.354"/><use xlink:href="#v" x="38.789" y="108.987"/></g><path style="stroke:none;fill-rule:nonzero;fill:#fcc;fill-opacity:1" d="M47.95 74 33.44 99.133l10.996 6.347 14.508-25.132Zm0 0"/><g style="fill:#000;fill-opacity:1"><use xlink:href="#y" x="41.718" y="103.911"/><use xlink:href="#z" x="44.156" y="99.689"/><use xlink:href="#y" x="47.259" y="94.313"/><use xlink:href="#A" x="49.697" y="90.091"/><use xlink:href="#B" x="52.06" y="85.998"/><use xlink:href="#C" x="54.128" y="82.417"/></g><path style="stroke:none;fill-rule:nonzero;fill:#fcc;fill-opacity:1" d="M63.64 41.086 47.513 69.023l16.36 9.446L80 50.53Zm0 0"/><g style="fill:#000;fill-opacity:1"><use xlink:href="#D" x="58.272" y="75.239"/><use xlink:href="#E" x="61.653" y="69.383"/><use xlink:href="#F" x="63.583" y="66.041"/><use xlink:href="#G" x="67.06" y="60.017"/><use xlink:href="#H" x="70.925" y="53.322"/></g><path style="stroke:none;fill-rule:nonzero;fill:#fcc;fill-opacity:1" d="m83.238.965-19.683 34.09 20.261 11.699 19.684-34.09Zm0 0"/><g style="fill:#000;fill-opacity:1"><use xlink:href="#I" x="76.993" y="42.814"/><use xlink:href="#J" x="81.767" y="34.544"/><use xlink:href="#K" x="85.944" y="27.31"/><use xlink:href="#L" x="89.284" y="21.525"/><use xlink:href="#u" x="94.058" y="13.255"/></g></svg>