<svg xmlns="http://www.w3.org/2000/svg" width="116.62" height="82.227" viewBox="0 0 87.465 61.67" version="1.2"><defs><clipPath id="a"><path d="M0 0h87.2v61.504H0Zm0 0"/></clipPath></defs><path style="fill:none;stroke-width:.19925;stroke-linecap:butt;stroke-linejoin:miter;stroke:gray;stroke-opacity:1;stroke-miterlimit:10" d="M0 0h85.039M-.001 28.348h85.04M-.001 56.684h85.04M-.001 0v56.692M28.348 0v56.692M56.695 0v56.692M85.031 0v56.692" transform="matrix(1 0 0 -1 .95 60.391)"/><g clip-path="url(#a)"><path style="fill:none;stroke-width:.3985;stroke-linecap:butt;stroke-linejoin:miter;stroke:#000;stroke-opacity:1;stroke-miterlimit:10" d="m0 0 .015 1.348.051 1.348.082 1.347.121 1.344.153 1.34.191 1.336.23 1.332.27 1.32.309 1.313.347 1.304.387 1.293.43 1.278.472 1.265.512 1.246.559 1.227.593 1.21.641 1.188.68 1.164.718 1.141.762 1.117.8 1.086.837 1.059.875 1.023.914.996.945.961.977.93 1.012.895 1.043.855 1.07.824 1.097.781 1.122.747 1.148.71 1.566.887-6.8 15.266 5.238-3.031 1.101 5.816 4.817-3.621 1.71 5.644 4.36-4.132 2.29 5.425 3.874-4.578 2.832 5.157 3.364-4.958 3.351 4.833 2.832-5.282 3.848 4.453 2.273-5.55 4.32 4.011 1.684-5.777 4.762 3.5 1.055-5.945 2.89 1.3L64.144 37.2v-.004l1.176-.657 1.156-.699 1.13-.734 1.105-.774 1.082-.808 1.047-.848 1.023-.883.988-.918.957-.953.922-.984.883-1.016.852-1.047.812-1.078.77-1.105.734-1.133.691-1.16.653-1.18.61-1.203.57-1.227.527-1.242.48-1.258.446-1.273.402-1.29.36-1.3.32-1.308.28-1.325.24-1.324.202-1.336.168-1.336.13-1.343.093-1.348.058-1.348L85.04 0" transform="matrix(1 0 0 -1 .95 60.391)"/></g></svg>