<svg xmlns="http://www.w3.org/2000/svg" xmlns:xlink="http://www.w3.org/1999/xlink" width="214.409" height="135.628" viewBox="0 0 160.807 101.721" version="1.2"><defs><symbol overflow="visible" id="c"><path style="stroke:none" d="M5.563-1.813c.14 0 .312 0 .312-.171 0-.188-.172-.188-.313-.188H1c-.125 0-.297 0-.297.188 0 .171.172.171.297.171Zm0 0"/></symbol><symbol overflow="visible" id="d"><path style="stroke:none" d="M2.25-1.625c.125-.125.453-.39.594-.5.484-.453.953-.89.953-1.61 0-.953-.797-1.562-1.781-1.562-.97 0-1.594.719-1.594 1.438 0 .39.312.437.422.437.172 0 .422-.11.422-.422 0-.406-.407-.406-.5-.406.234-.594.765-.781 1.156-.781.734 0 1.125.625 1.125 1.297 0 .828-.578 1.437-1.531 2.39l-1 1.047C.422-.219.422-.203.422 0h3.14l.235-1.422h-.25c-.016.156-.078.547-.172.703-.047.063-.656.063-.781.063H1.172Zm0 0"/></symbol><symbol overflow="visible" id="e"><path style="stroke:none" d="M2.5-5.078c0-.219-.016-.219-.234-.219-.329.313-.75.5-1.5.5v.266c.218 0 .64 0 1.109-.203v4.078c0 .297-.031.39-.781.39H.812V0c.329-.031 1.016-.031 1.375-.031.36 0 1.047 0 1.376.031v-.266H3.28c-.75 0-.781-.093-.781-.39Zm0 0"/></symbol><symbol overflow="visible" id="f"><path style="stroke:none" d="M3.89-2.547c0-.844-.078-1.36-.343-1.875-.344-.703-1-.875-1.438-.875-1 0-1.375.75-1.484.969C.344-3.75.328-2.953.328-2.547c0 .531.016 1.328.406 1.969.36.594.954.75 1.375.75.391 0 1.063-.125 1.47-.906.296-.579.312-1.297.312-1.813ZM2.11-.062c-.266 0-.813-.126-.985-.954-.094-.453-.094-1.203-.094-1.625 0-.546 0-1.109.094-1.546.172-.813.781-.891.984-.891.266 0 .829.14.985.86.094.437.094 1.046.094 1.577 0 .47 0 1.188-.094 1.641-.172.828-.719.938-.985.938Zm0 0"/></symbol><symbol overflow="visible" id="g"><path style="stroke:none" d="m1.516-5.531-1.188.093v.266c.547 0 .61.047.61.438v4.109c0 .36-.094.36-.61.36V0c.313-.031.766-.031.906-.031.157 0 .579 0 .891.031v-.266c-.5 0-.61 0-.61-.359Zm0 0"/></symbol><symbol overflow="visible" id="h"><path style="stroke:none" d="M3.984-1.703c0-.984-.828-1.844-1.875-1.844-1.046 0-1.875.86-1.875 1.844 0 1 .86 1.781 1.875 1.781 1.032 0 1.875-.781 1.875-1.781ZM2.11-.172c-.421 0-.765-.203-.937-.484-.203-.328-.219-.719-.219-1.11 0-.312 0-.78.235-1.125.218-.28.546-.437.921-.437.422 0 .766.203.938.469.219.343.234.765.234 1.093 0 .36-.015.797-.25 1.141-.203.313-.562.453-.922.453Zm0 0"/></symbol><symbol overflow="visible" id="i"><path style="stroke:none" d="M1.375-.547C1.125-.578.937-.78.937-1.078c0-.188.047-.266.094-.328.344.187.657.234.844.234.781 0 1.375-.547 1.375-1.172 0-.297-.14-.562-.328-.765.11-.094.375-.266.765-.266-.03.016-.078.063-.078.188 0 .14.11.25.25.25a.25.25 0 0 0 .25-.266.43.43 0 0 0-.453-.406c-.14 0-.531.046-.89.375a1.585 1.585 0 0 0-.891-.282c-.781 0-1.36.547-1.36 1.172 0 .375.204.656.376.813a.934.934 0 0 0 .094 1.36c-.422.108-.75.421-.75.78 0 .579.828 1.032 1.874 1.032 1 0 1.875-.407 1.875-1.047 0-.422-.25-.766-.515-.89-.469-.25-.86-.25-1.64-.25Zm.5-.86c-.734 0-.734-.765-.734-.937 0-.297.03-.5.156-.656a.717.717 0 0 1 .578-.281c.734 0 .734.765.734.937 0 .297-.03.5-.156.656a.703.703 0 0 1-.578.282ZM2.25-.03c.219 0 1.266 0 1.266.64 0 .422-.61.797-1.407.797-.796 0-1.406-.375-1.406-.797 0-.171.14-.64.781-.64Zm0 0"/></symbol><symbol overflow="visible" id="j"><path style="stroke:none" d="M4-3.172a.445.445 0 0 0-.375.422c0 .172.14.297.313.297.171 0 .437-.14.437-.485 0-.453-.5-.578-.797-.578-.36 0-.672.266-.86.579-.171-.422-.577-.579-.905-.579-.875 0-1.36 1-1.36 1.22 0 .077.063.108.125.108.094 0 .11-.046.125-.14.188-.578.672-.969 1.078-.969.313 0 .469.235.469.516 0 .156-.094.531-.156.781-.063.234-.235.938-.281 1.094-.11.422-.391.765-.75.765-.032 0-.235 0-.407-.109.36-.094.36-.422.36-.438 0-.187-.141-.296-.313-.296A.47.47 0 0 0 .25-.5c0 .375.39.578.797.578.422 0 .719-.312.86-.578.187.39.546.578.937.578.86 0 1.344-1 1.344-1.219 0-.078-.063-.109-.125-.109-.094 0-.11.063-.141.14-.156.532-.61.97-1.063.97-.265 0-.453-.172-.453-.516 0-.156.047-.344.156-.781.047-.25.22-.938.266-1.094.11-.422.39-.766.75-.766.047 0 .25 0 .422.125Zm0 0"/></symbol><symbol overflow="visible" id="k"><path style="stroke:none" d="M3.703-5.64c.047-.11.047-.126.047-.157 0-.094-.078-.172-.188-.172-.124 0-.156.094-.187.172L.515 1.656c-.046.11-.046.125-.046.157 0 .093.078.171.187.171.125 0 .156-.093.188-.171Zm0 0"/></symbol><clipPath id="a"><path d="M21 24h139.71v63H21Zm0 0"/></clipPath><clipPath id="b"><path d="M83 31h77.71v69H83Zm0 0"/></clipPath></defs><path style="fill:none;stroke-width:.3985;stroke-linecap:round;stroke-linejoin:miter;stroke:gray;stroke-opacity:1;stroke-miterlimit:10" d="M14.173-1.993v1.992M42.52-1.993v1.992M70.864-1.993v1.992M99.212-1.993v1.992M127.555-1.993v1.992M14.173 87.593v1.992M42.52 87.593v1.992M70.864 87.593v1.992M99.212 87.593v1.992M127.555 87.593v1.992M-1.992 12.315H.001M-1.992 32.561H.001M-1.992 52.811H.001M-1.992 73.058H.001M141.735 12.315h1.992M141.735 32.561h1.992M141.735 52.811h1.992M141.735 73.058h1.992" transform="matrix(1 0 0 -1 15.784 90.644)"/><path style="fill:none;stroke-width:.3985;stroke-linecap:butt;stroke-linejoin:miter;stroke:gray;stroke-opacity:1;stroke-miterlimit:10" d="M0-.001h141.735M0 87.593h141.735M0-.001v87.594M141.735-.001v87.594" transform="matrix(1 0 0 -1 15.784 90.644)"/><g clip-path="url(#a)"><path style="fill:none;stroke-width:.59776;stroke-linecap:butt;stroke-linejoin:miter;stroke:#c00;stroke-opacity:1;stroke-miterlimit:10" d="m14.173 12.315 5.316 1.899c1.473.527 3.84 1.37 5.312 1.898l5.317 1.899c1.476.523 3.84 1.37 5.316 1.898 1.473.524 3.84 1.371 5.313 1.899 1.476.523 3.84 1.37 5.316 1.894 1.473.527 3.84 1.375 5.313 1.899 1.476.527 3.84 1.375 5.316 1.898l5.316 1.898c1.473.528 3.84 1.372 5.313 1.899l5.316 1.898c1.473.528 3.84 1.371 5.313 1.899 1.476.527 3.844 1.37 5.316 1.898l5.317 1.899c1.472.527 3.84 1.37 5.312 1.898l5.317 1.898c1.472.528 3.84 1.372 5.316 1.899l5.313 1.898 5.316 1.899c1.473.527 3.84 1.37 5.312 1.898l5.317 1.899c1.476.523 3.84 1.37 5.316 1.898 1.473.524 3.84 1.371 5.313 1.895l5.316 1.898" transform="matrix(1 0 0 -1 15.784 90.644)"/></g><g clip-path="url(#b)"><path style="fill:none;stroke-width:.59776;stroke-linecap:butt;stroke-linejoin:miter;stroke:#000;stroke-opacity:1;stroke-miterlimit:10" d="M76.536-.001s1.96 6.016 2.715 7.902c.754 1.883 1.96 4.278 2.715 5.68.753 1.402 1.964 3.309 2.718 4.43.754 1.117 1.961 2.703 2.715 3.636.754.934 1.961 2.282 2.715 3.079.754.8 1.965 1.976 2.719 2.671.754.7 1.96 1.743 2.715 2.364.753.62 1.964 1.55 2.718 2.11.75.558 1.961 1.41 2.715 1.917.754.508 1.961 1.281 2.715 1.75.754.465 1.965 1.176 2.719 1.61.754.43 1.96 1.09 2.715 1.488.753.402 1.96 1.015 2.714 1.39a138.286 138.286 0 0 0 5.434 2.52c.754.328 1.96.84 2.715 1.152a192.744 192.744 0 0 0 5.434 2.121 189.697 189.697 0 0 0 5.433 1.922c.754.258 1.961.656 2.715.899.754.242 1.965.625 2.719.859.754.234 1.96.598 2.714.824.754.223 2.715.79 2.715.79" transform="matrix(1 0 0 -1 15.784 90.644)"/></g><use xlink:href="#c" x="24.547" y="100.428" style="fill:#000;fill-opacity:1"/><use xlink:href="#d" x="31.134" y="100.428" style="fill:#000;fill-opacity:1"/><use xlink:href="#c" x="52.894" y="100.428" style="fill:#000;fill-opacity:1"/><use xlink:href="#e" x="59.48" y="100.428" style="fill:#000;fill-opacity:1"/><use xlink:href="#f" x="84.532" y="100.428" style="fill:#000;fill-opacity:1"/><use xlink:href="#e" x="112.877" y="100.428" style="fill:#000;fill-opacity:1"/><use xlink:href="#d" x="141.224" y="100.428" style="fill:#000;fill-opacity:1"/><use xlink:href="#c" x=".316" y="80.481" style="fill:#000;fill-opacity:1"/><use xlink:href="#e" x="6.902" y="80.481" style="fill:#000;fill-opacity:1"/><use xlink:href="#f" x="6.902" y="60.65" style="fill:#000;fill-opacity:1"/><use xlink:href="#e" x="6.902" y="40.403" style="fill:#000;fill-opacity:1"/><use xlink:href="#d" x="6.902" y="20.154" style="fill:#000;fill-opacity:1"/><path style="stroke:none;fill-rule:nonzero;fill:#fff;fill-opacity:1" d="M136.582 75.523H50.891a2.99 2.99 0 0 0-2.993 2.989v6.93a2.992 2.992 0 0 0 2.993 2.992h85.691a2.99 2.99 0 0 0 2.988-2.993v-6.93a2.986 2.986 0 0 0-2.988-2.988Zm0 0"/><g style="fill:#000;fill-opacity:1"><use xlink:href="#g" x="74.575" y="83.969"/><use xlink:href="#h" x="76.926" y="83.969"/><use xlink:href="#i" x="81.161" y="83.969"/></g><use xlink:href="#j" x="86.924" y="83.969" style="fill:#000;fill-opacity:1"/><path style="fill:none;stroke-width:.59776;stroke-linecap:butt;stroke-linejoin:miter;stroke:#000;stroke-opacity:1;stroke-miterlimit:10" d="M-19.926 0s2.907 1.512 4.98 1.329c2.075-.188 7.891-2.473 9.966-2.656C-2.906-1.511 0 0 0 0" transform="matrix(1 0 0 -1 69.597 81.758)"/><g style="fill:#000;fill-opacity:1"><use xlink:href="#j" x="124.862" y="83.969"/><use xlink:href="#k" x="129.629" y="83.969"/></g><use xlink:href="#d" x="133.863" y="83.969" style="fill:#000;fill-opacity:1"/><path style="fill:none;stroke-width:.59776;stroke-linecap:butt;stroke-linejoin:miter;stroke:#c00;stroke-opacity:1;stroke-miterlimit:10" d="M-19.925 0s2.907 1.512 4.98 1.329c2.075-.188 7.892-2.473 9.962-2.656C-2.91-1.511 0 0 0 0" transform="matrix(1 0 0 -1 119.885 81.758)"/></svg>