<svg xmlns="http://www.w3.org/2000/svg" width="116.595" height="78.795" viewBox="0 0 87.446 59.096" version="1.2"><defs><clipPath id="a"><path d="M0 37h44v21.645H0Zm0 0"/></clipPath><clipPath id="b"><path d="M0 27h28v31.645H0Zm0 0"/></clipPath><clipPath id="c"><path d="M0 0h87.168v58.645H0Zm0 0"/></clipPath></defs><path style="fill:none;stroke-width:.19925;stroke-linecap:butt;stroke-linejoin:miter;stroke:gray;stroke-opacity:1;stroke-miterlimit:10" d="M.001-.001h85.04M0 28.346h85.04M0 56.694h85.04M0-.001v56.695M28.345-.001v56.695M56.693-.001v56.695M85.04-.001v56.695" transform="matrix(1 0 0 -1 .94 57.44)"/><path style="fill:none;stroke-width:.3985;stroke-linecap:butt;stroke-linejoin:miter;stroke:#000;stroke-opacity:1;stroke-miterlimit:10" d="M.001-.001h42.52" transform="matrix(1 0 0 -1 .94 57.44)"/><g clip-path="url(#a)"><path style="fill:none;stroke-width:.3985;stroke-linecap:butt;stroke-linejoin:miter;stroke:#000;stroke-opacity:1;stroke-miterlimit:10" d="m.001-.001 36.825 14.175" transform="matrix(1 0 0 -1 .94 57.44)"/></g><g clip-path="url(#b)"><path style="fill:none;stroke-width:.3985;stroke-linecap:butt;stroke-linejoin:miter;stroke:#000;stroke-opacity:1;stroke-miterlimit:10" d="m.001-.001 21.258 24.55" transform="matrix(1 0 0 -1 .94 57.44)"/></g><path style="fill:none;stroke-width:.3985;stroke-linecap:butt;stroke-linejoin:miter;stroke:#000;stroke-opacity:1;stroke-miterlimit:10" d="M.001-.001v28.347" transform="matrix(1 0 0 -1 .94 57.44)"/><g clip-path="url(#c)"><path style="fill:none;stroke-width:.3985;stroke-linecap:butt;stroke-linejoin:miter;stroke:#000;stroke-opacity:1;stroke-miterlimit:10" d="M85.04-.001 73.646 28.346 42.52 49.1 0 56.694" transform="matrix(1 0 0 -1 .94 57.44)"/></g></svg>