<svg xmlns="http://www.w3.org/2000/svg" width="41.957" height="13.707" viewBox="0 0 31.468 10.28" version="1.2"><defs><clipPath id="a"><path d="M0 0h31.203v9.922H0Zm0 0"/></clipPath></defs><g clip-path="url(#a)"><path style="fill:none;stroke-width:4.42346;stroke-linecap:butt;stroke-linejoin:miter;stroke:#000;stroke-opacity:1;stroke-miterlimit:10" d="M0 0C4.129 2.383 8.19 3.742 12.242 4.066" transform="matrix(1 0 0 -1 1.848 7)"/></g><path style="stroke:none;fill-rule:nonzero;fill:#000;fill-opacity:1" d="M12.82.84a38.506 38.506 0 0 1 3.278-.195 35.335 35.335 0 0 1 1.996 2.3 32.914 32.914 0 0 0-2.008 2.121c-.906.016-1.816.07-2.727.164L12.82.84Zm0 0"/><path style="stroke:none;fill-rule:nonzero;fill:#000;fill-opacity:1" d="M18.285.742c.727.07 1.457.164 2.184.278.582.859 1.129 1.726 1.636 2.605a32.272 32.272 0 0 0-2.378 1.758 29.11 29.11 0 0 0-1.825-.235 32.063 32.063 0 0 1 2.196-1.945 38.25 38.25 0 0 0-1.813-2.46Zm0 0"/><path style="stroke:none;fill-rule:nonzero;fill:#000;fill-opacity:1" d="M22.645 1.48c.726.196 1.468.415 2.214.657.493.953.95 1.914 1.375 2.883-.964.402-1.894.84-2.789 1.308a37.236 37.236 0 0 0-1.883-.558 29.212 29.212 0 0 1 2.59-1.54 60.82 60.82 0 0 0-1.507-2.75Zm0 0"/><path style="stroke:none;fill-rule:nonzero;fill:#000;fill-opacity:1" d="M27.09 2.98c.734.32 1.441.645 2.148.993A53.08 53.08 0 0 1 30.195 7c-1 .281-1.98.59-2.941.926a45.503 45.503 0 0 0-1.879-.867 47.5 47.5 0 0 1 2.871-1.11A44.276 44.276 0 0 0 27.09 2.98Zm0 0"/></svg>