<svg xmlns="http://www.w3.org/2000/svg" width="305.6" height="59.931" viewBox="0 0 229.2 44.948" version="1.2"><defs><clipPath id="a"><path d="M0 0h92v44.922H0Zm0 0"/></clipPath><clipPath id="b"><path d="M165 9h63.8v35.922H165Zm0 0"/></clipPath></defs><g clip-path="url(#a)"><path style="fill:none;stroke-width:.3985;stroke-linecap:butt;stroke-linejoin:miter;stroke:#000;stroke-opacity:1;stroke-miterlimit:10" d="M0-.001c0 15.656 12.69 28.348 28.347 28.348l28.348-14.172c15.656 0 28.343-12.692 28.343-28.348" transform="matrix(1 0 0 -1 .817 29.538)"/></g><path style="fill:none;stroke-width:.3985;stroke-linecap:butt;stroke-linejoin:miter;stroke:#000;stroke-opacity:1;stroke-miterlimit:10" d="m113.386-.001 24.55 14.176a28.358 28.358 0 0 1-10.374 10.375Zm0 0" transform="matrix(1 0 0 -1 .817 29.538)"/><g clip-path="url(#b)"><path style="fill:none;stroke-width:.3985;stroke-linecap:butt;stroke-linejoin:miter;stroke:#000;stroke-opacity:1;stroke-miterlimit:10" d="M226.773-.001c0 7.828-12.692 14.176-28.344 14.176-15.656 0-28.348-6.348-28.348-14.176s12.692-14.172 28.348-14.172Zm0 0" transform="matrix(1 0 0 -1 .817 29.538)"/></g></svg>