<svg xmlns="http://www.w3.org/2000/svg" xmlns:xlink="http://www.w3.org/1999/xlink" width="278.691" height="14.211" viewBox="0 0 209.018 10.658" version="1.2"><defs><symbol overflow="visible" id="a"><path style="stroke:none" d="M2.938-6.375c0-.25 0-.266-.235-.266C2.078-6 1.203-6 .891-6v.313c.203 0 .78 0 1.296-.266v5.172c0 .36-.03.469-.921.469H.953V0c.344-.031 1.203-.031 1.61-.031.39 0 1.265 0 1.609.031v-.313h-.313c-.906 0-.921-.109-.921-.468Zm0 0"/></symbol><symbol overflow="visible" id="c"><path style="stroke:none" d="M4.578-3.188c0-.796-.047-1.593-.39-2.328C3.733-6.484 2.905-6.64 2.5-6.64c-.61 0-1.328.266-1.75 1.188-.313.687-.36 1.469-.36 2.266 0 .75.032 1.64.454 2.406a1.83 1.83 0 0 0 1.64 1c.532 0 1.297-.203 1.735-1.157.312-.687.36-1.468.36-2.25ZM2.484 0c-.39 0-.984-.25-1.156-1.203-.11-.594-.11-1.516-.11-2.11 0-.64 0-1.296.079-1.828.187-1.187.937-1.28 1.187-1.28.329 0 .985.187 1.172 1.171.11.563.11 1.313.11 1.938 0 .75 0 1.421-.11 2.062C3.5-.297 2.937 0 2.484 0Zm0 0"/></symbol><symbol overflow="visible" id="e"><path style="stroke:none" d="m1.266-.766 1.062-1.03c1.547-1.376 2.14-1.907 2.14-2.907 0-1.14-.89-1.938-2.109-1.938C1.234-6.64.5-5.719.5-4.828c0 .547.5.547.531.547.172 0 .516-.11.516-.532a.513.513 0 0 0-.531-.515c-.079 0-.094 0-.125.016.218-.657.765-1.016 1.343-1.016.907 0 1.329.812 1.329 1.625 0 .797-.485 1.578-1.047 2.203L.609-.375C.5-.265.5-.235.5 0h3.703l.266-1.734h-.235C4.172-1.438 4.11-1 4-.844c-.063.078-.719.078-.938.078Zm0 0"/></symbol><symbol overflow="visible" id="f"><path style="stroke:none" d="M2.938-1.64v.859c0 .36-.032.469-.766.469h-.203V0c.406-.031.922-.031 1.343-.031.422 0 .938 0 1.36.031v-.313h-.219c-.734 0-.75-.109-.75-.468v-.86h.985v-.312h-.985v-4.531c0-.204 0-.266-.172-.266-.078 0-.11 0-.187.125L.28-1.953v.312Zm.046-.313H.563l2.421-3.719Zm0 0"/></symbol><symbol overflow="visible" id="g"><path style="stroke:none" d="M1.625-4.563c-.453-.296-.5-.625-.5-.796 0-.61.656-1.032 1.36-1.032.718 0 1.359.516 1.359 1.235 0 .578-.39 1.047-.985 1.39Zm1.453.954c.719-.375 1.203-.891 1.203-1.547 0-.922-.875-1.485-1.781-1.485-1 0-1.813.735-1.813 1.672 0 .172.016.625.438 1.094.11.11.484.36.734.531C1.281-3.047.422-2.5.422-1.5.422-.453 1.438.219 2.484.219c1.125 0 2.079-.828 2.079-1.89 0-.36-.11-.813-.5-1.235-.188-.203-.344-.297-.985-.703Zm-1 .421 1.235.782c.28.187.75.484.75 1.094 0 .734-.75 1.25-1.563 1.25C1.64-.063.922-.672.922-1.5c0-.578.312-1.219 1.156-1.688Zm0 0"/></symbol><symbol overflow="visible" id="h"><path style="stroke:none" d="M1.313-3.266v-.25c0-2.515 1.234-2.875 1.75-2.875.234 0 .656.063.874.407-.156 0-.546 0-.546.437 0 .313.234.469.453.469.156 0 .469-.094.469-.484 0-.594-.438-1.079-1.266-1.079C1.766-6.64.422-5.359.422-3.156.422-.484 1.578.219 2.5.219c1.11 0 2.063-.938 2.063-2.25 0-1.266-.891-2.219-2-2.219-.672 0-1.047.5-1.25.984ZM2.5-.062c-.625 0-.922-.594-.984-.75-.188-.47-.188-1.266-.188-1.438 0-.781.328-1.781 1.219-1.781.172 0 .625 0 .937.625.172.36.172.875.172 1.36 0 .483 0 .983-.172 1.343-.296.594-.75.64-.984.64Zm0 0"/></symbol><symbol overflow="visible" id="i"><path style="stroke:none" d="M2.89-3.516c.813-.265 1.391-.953 1.391-1.75 0-.812-.875-1.375-1.828-1.375-1 0-1.765.594-1.765 1.36 0 .328.218.515.515.515.297 0 .5-.218.5-.515 0-.485-.469-.485-.61-.485.298-.5.954-.625 1.313-.625.422 0 .969.22.969 1.11 0 .125-.031.703-.281 1.14-.297.485-.64.516-.89.516a3.29 3.29 0 0 1-.392.031c-.078.016-.14.031-.14.125 0 .11.062.11.234.11h.438c.812 0 1.187.671 1.187 1.656 0 1.36-.687 1.64-1.125 1.64-.437 0-1.187-.171-1.531-.75.344.047.656-.171.656-.546a.537.537 0 0 0-.547-.563c-.25 0-.562.14-.562.578C.422-.437 1.344.22 2.437.22c1.22 0 2.126-.906 2.126-1.922 0-.813-.641-1.594-1.672-1.813Zm0 0"/></symbol><symbol overflow="visible" id="j"><path style="stroke:none" d="M4.469-2c0-1.188-.813-2.188-1.89-2.188-.47 0-.907.157-1.267.516v-1.953c.204.063.532.125.844.125 1.235 0 1.938-.906 1.938-1.031 0-.063-.032-.11-.11-.11 0 0-.03 0-.078.032a3.22 3.22 0 0 1-1.36.296c-.39 0-.858-.078-1.327-.28-.078-.032-.094-.032-.11-.032C1-6.625 1-6.547 1-6.391v2.954c0 .171 0 .25.14.25.079 0 .094-.016.141-.079.11-.156.469-.703 1.282-.703.515 0 .765.453.843.64.156.376.188.75.188 1.25 0 .36 0 .954-.25 1.376-.235.39-.61.64-1.063.64-.719 0-1.297-.53-1.469-1.109.032 0 .063.016.172.016.329 0 .5-.25.5-.485 0-.25-.171-.5-.5-.5-.14 0-.484.079-.484.532C.5-.75 1.188.219 2.297.219 3.453.219 4.469-.734 4.469-2Zm0 0"/></symbol><symbol overflow="visible" id="b"><path style="stroke:none" d="M1.906-.531a.534.534 0 0 0-.515-.531.537.537 0 0 0-.532.53.524.524 0 1 0 1.047 0Zm0 0"/></symbol><symbol overflow="visible" id="d"><path style="stroke:none" d="M2.5-.313c0-.671-.344-1.25-.922-1.25-.469 0-.766.36-.766.782 0 .406.266.781.766.781a.842.842 0 0 0 .563-.203C2.047.89 1.406 1.422 1.203 1.594c-.062.047-.094.078-.094.14 0 .094.11.204.188.204.156 0 1.203-.86 1.203-2.25Zm0 0"/></symbol></defs><use xlink:href="#a" x="-.355" y="7.569" style="fill:#000;fill-opacity:1"/><use xlink:href="#b" x="4.626" y="7.569" style="fill:#000;fill-opacity:1"/><use xlink:href="#c" x="7.394" y="7.569" style="fill:#000;fill-opacity:1"/><use xlink:href="#d" x="12.375" y="7.569" style="fill:#000;fill-opacity:1"/><use xlink:href="#e" x="19.369" y="7.569" style="fill:#000;fill-opacity:1"/><use xlink:href="#b" x="24.35" y="7.569" style="fill:#000;fill-opacity:1"/><use xlink:href="#c" x="27.118" y="7.569" style="fill:#000;fill-opacity:1"/><use xlink:href="#d" x="32.099" y="7.569" style="fill:#000;fill-opacity:1"/><use xlink:href="#f" x="39.093" y="7.569" style="fill:#000;fill-opacity:1"/><use xlink:href="#b" x="44.074" y="7.569" style="fill:#000;fill-opacity:1"/><use xlink:href="#c" x="46.841" y="7.569" style="fill:#000;fill-opacity:1"/><use xlink:href="#d" x="51.823" y="7.569" style="fill:#000;fill-opacity:1"/><use xlink:href="#g" x="58.817" y="7.569" style="fill:#000;fill-opacity:1"/><use xlink:href="#b" x="63.798" y="7.569" style="fill:#000;fill-opacity:1"/><use xlink:href="#c" x="66.565" y="7.569" style="fill:#000;fill-opacity:1"/><use xlink:href="#d" x="71.547" y="7.569" style="fill:#000;fill-opacity:1"/><g style="fill:#000;fill-opacity:1"><use xlink:href="#a" x="78.54" y="7.569"/><use xlink:href="#h" x="83.521" y="7.569"/></g><use xlink:href="#b" x="88.503" y="7.569" style="fill:#000;fill-opacity:1"/><use xlink:href="#c" x="91.27" y="7.569" style="fill:#000;fill-opacity:1"/><use xlink:href="#d" x="96.252" y="7.569" style="fill:#000;fill-opacity:1"/><g style="fill:#000;fill-opacity:1"><use xlink:href="#i" x="103.246" y="7.569"/><use xlink:href="#e" x="108.227" y="7.569"/></g><use xlink:href="#b" x="113.208" y="7.569" style="fill:#000;fill-opacity:1"/><use xlink:href="#c" x="115.976" y="7.569" style="fill:#000;fill-opacity:1"/><use xlink:href="#d" x="120.957" y="7.569" style="fill:#000;fill-opacity:1"/><g style="fill:#000;fill-opacity:1"><use xlink:href="#h" x="127.951" y="7.569"/><use xlink:href="#f" x="132.932" y="7.569"/></g><use xlink:href="#b" x="137.913" y="7.569" style="fill:#000;fill-opacity:1"/><use xlink:href="#c" x="140.681" y="7.569" style="fill:#000;fill-opacity:1"/><use xlink:href="#d" x="145.662" y="7.569" style="fill:#000;fill-opacity:1"/><g style="fill:#000;fill-opacity:1"><use xlink:href="#a" x="152.656" y="7.569"/><use xlink:href="#e" x="157.637" y="7.569"/><use xlink:href="#g" x="162.619" y="7.569"/></g><use xlink:href="#b" x="167.6" y="7.569" style="fill:#000;fill-opacity:1"/><use xlink:href="#c" x="170.367" y="7.569" style="fill:#000;fill-opacity:1"/><use xlink:href="#d" x="175.349" y="7.569" style="fill:#000;fill-opacity:1"/><g style="fill:#000;fill-opacity:1"><use xlink:href="#e" x="182.343" y="7.569"/><use xlink:href="#j" x="187.324" y="7.569"/><use xlink:href="#h" x="192.306" y="7.569"/></g><use xlink:href="#b" x="197.287" y="7.569" style="fill:#000;fill-opacity:1"/><use xlink:href="#c" x="200.054" y="7.569" style="fill:#000;fill-opacity:1"/><use xlink:href="#d" x="205.035" y="7.569" style="fill:#000;fill-opacity:1"/></svg>