<svg xmlns="http://www.w3.org/2000/svg" width="87.32pt" height="78.651" viewBox="0 0 87.32 58.988" version="1.2"><defs><clipPath id="a"><path d="M0 23h64v35.98H0Zm0 0"/></clipPath><clipPath id="b"><path d="M0 0h42v58.98H0Zm0 0"/></clipPath></defs><path style="fill:none;stroke-width:.19925;stroke-linecap:butt;stroke-linejoin:miter;stroke:gray;stroke-opacity:1;stroke-miterlimit:10" d="M-.001.002h85.043M-.001 28.346h85.043M-.001 56.686h85.043M-.001.001v56.691M28.347.002v56.691M56.694.002v56.691M85.03.002v56.691" transform="matrix(1 0 0 -1 .841 57.787)"/><g clip-path="url(#a)"><path style="fill:none;stroke-width:.3985;stroke-linecap:butt;stroke-linejoin:miter;stroke:#000;stroke-opacity:1;stroke-miterlimit:10" d="m-.001.002 56.695 28.344L28.346.002" transform="matrix(1 0 0 -1 .841 57.787)"/></g><g clip-path="url(#b)"><path style="fill:none;stroke-width:.3985;stroke-linecap:butt;stroke-linejoin:miter;stroke:red;stroke-opacity:1;stroke-miterlimit:10" d="m-.001.002 34.926 52.894L24.55 14.174" transform="matrix(1 0 0 -1 .841 57.787)"/></g></svg>