<svg xmlns="http://www.w3.org/2000/svg" width="78.964" height="78.963" viewBox="0 0 59.223 59.222" version="1.2"><defs><clipPath id="a"><path d="M0 17h41v41.832H0Zm0 0"/></clipPath></defs><path style="fill:none;stroke-width:.79701;stroke-linecap:butt;stroke-linejoin:miter;stroke:red;stroke-opacity:1;stroke-miterlimit:10" d="M.001 0h27.547" transform="matrix(1 0 0 -1 29.476 28.96)"/><path style="fill:none;stroke-width:.79701;stroke-linecap:round;stroke-linejoin:round;stroke:red;stroke-opacity:1;stroke-miterlimit:10" d="M-2.549 3.112C-2.084 1.245-1.045.362-.002 0c-1.043-.363-2.082-1.242-2.547-3.11" transform="matrix(1 0 0 -1 57.424 28.96)"/><path style="fill:none;stroke-width:.79701;stroke-linecap:butt;stroke-linejoin:miter;stroke:#00f;stroke-opacity:1;stroke-miterlimit:10" d="M.001 0v27.55" transform="matrix(1 0 0 -1 29.476 28.96)"/><path style="fill:none;stroke-width:.79701;stroke-linecap:round;stroke-linejoin:round;stroke:#00f;stroke-opacity:1;stroke-miterlimit:10" d="M-2.55 3.112C-2.087 1.245-1.048.362 0 0c-1.047-.363-2.086-1.242-2.55-3.11" transform="matrix(0 -1 -1 0 29.476 1.012)"/><g clip-path="url(#a)"><path style="fill:none;stroke-width:.79701;stroke-linecap:butt;stroke-linejoin:miter;stroke:#ff8000;stroke-opacity:1;stroke-miterlimit:10" d="m.001 0-27.785-27.782" transform="matrix(1 0 0 -1 29.476 28.96)"/></g><path style="fill:none;stroke-width:.79701;stroke-linecap:round;stroke-linejoin:round;stroke:#ff8000;stroke-opacity:1;stroke-miterlimit:10" d="M-2.55 3.112C-2.086 1.244-1.045.363 0-.001-1.049-.363-2.085-1.244-2.55-3.11" transform="scale(-1 1) rotate(45 -69.541 26.81)"/></svg>