<svg xmlns="http://www.w3.org/2000/svg" width="123.099" height="83.835" viewBox="0 0 92.324 62.876" version="1.2"><defs><clipPath id="a"><path d="M0 0h91.984v62.813H0Zm0 0"/></clipPath></defs><path style="fill:none;stroke-width:.19925;stroke-linecap:butt;stroke-linejoin:miter;stroke:gray;stroke-opacity:1;stroke-miterlimit:10" d="M0-.001h85.04M0 28.347h85.04M0 56.683h85.04M0-.001v56.695M28.348 0v56.695M56.692 0v56.695M85.032 0v56.695" transform="matrix(1 0 0 -1 4.191 59.288)"/><g clip-path="url(#a)"><path style="fill:none;stroke-width:.3985;stroke-linecap:butt;stroke-linejoin:miter;stroke:#000;stroke-opacity:1;stroke-miterlimit:10" d="m0-.001 85.04 28.348c0 15.656-19.036 28.347-42.52 28.347S0 44.003 0 28.347" transform="matrix(1 0 0 -1 4.191 59.288)"/></g><path style="stroke:none;fill-rule:nonzero;fill:#000;fill-opacity:1" d="m4.191 59.29-3.527-.505 1.637 1.133-.63 1.89M14.95 55.703l-3.532-.504 1.64 1.133-.632 1.89M25.703 52.117l-3.527-.504 1.637 1.133-.63 1.89M36.46 48.531l-3.526-.504 1.636 1.133-.629 1.89M47.215 44.945l-3.528-.504 1.641 1.137-.633 1.887M57.973 41.36l-3.528-.505 1.637 1.137-.629 1.89M68.73 37.777l-3.53-.504 1.64 1.133-.633 1.89M79.484 34.191l-3.527-.504 1.637 1.133-.63 1.89M89.2 29.848l-1.41 3.273 1.522-1.281 1.66 1.101M85.48 19.281l.47 3.535.648-1.882 1.992.093M77.457 11.36l1.703 3.132-.07-1.992 1.894-.625M67.406 6.172l2.43 2.605-.563-1.91L70.95 5.79M56.445 3.34l2.903 2.066-.938-1.758 1.43-1.39M45.148 2.613l3.223 1.516-1.23-1.563L48.297.941M41.012 2.848l-3.035 1.87 1.05-1.695-1.336-1.48M29.875 4.902l-2.621 2.414.707-1.863-1.59-1.2M19.41 9.207l-2.004 2.95.266-1.977-1.82-.809M10.469 16.105l-.989 3.426-.359-1.96-1.984-.204M4.875 25.848l.703 3.492-1.226-1.57-1.852.734"/></svg>