<svg xmlns="http://www.w3.org/2000/svg" xmlns:xlink="http://www.w3.org/1999/xlink" width="87.027" height="191.667" viewBox="0 0 65.27 143.75" version="1.2"><defs><symbol overflow="visible" id="b"><path style="stroke:none" d="M-1.188-3.828h-.53v.469h.515c.672.015.89.343.89.625 0 .578-.64.562-.859.562l-2.75-.031.016-1.469-.469-.015-.016 1.468-1.906-.015-.016.468c1 .016 1.985.5 2 1.5l.36.016.015-.828 2.735.031C-.141-1.03.094-1.89.094-2.609c.015-.75-.563-1.204-1.282-1.22Zm0 0"/></symbol><symbol overflow="visible" id="c"><path style="stroke:none" d="M-.969-4.969c-.172 0-.187.188-.187.235 0 .171.031.187.187.25.485.218.766.812.75 1.453-.062 1.406-1.39 1.375-1.89 1.344l.125-3.016c0-.219.015-.313-.25-.313-.313-.015-1.063.016-1.579.5-.374.344-.562.86-.593 1.547-.063 1.594.937 2.516 2.172 2.563C-.891-.344.109-1.312.172-2.922.234-4.5-.797-4.969-.968-4.969Zm-1.375.89-.094 2.391c-.39-.03-.812-.062-1.124-.28-.391-.282-.5-.704-.485-.985.047-1.172 1.36-1.125 1.703-1.125Zm0 0"/></symbol><symbol overflow="visible" id="d"><path style="stroke:none" d="m.406-5.813-.469-.03-.046.702-2.11 1.532-1.203-1.25c-.125-.141-.187-.22-.125-1.032l-.469-.03-.03.921-.11 1.016.468.03a.881.881 0 0 1 .11-.358c.062.03.094.03.125.078l.86.89-1.188.89.015-.405-.468-.032-.047 1.235-.11 1.078.47.031.046-.719 1.922-1.406 1.375 1.406c.187.172.156.532.125 1.016l.469.031.03-.922.11-1.015-.469-.031c-.015.171-.078.359-.14.343 0 0-.016 0-.094-.062l-1.015-1.047 1.359-.985-.016.391.469.031.047-1.203Zm0 0"/></symbol><symbol overflow="visible" id="e"><path style="stroke:none" d="m-.875-3.906-.516-.063-.046.469.5.047c.671.062.875.422.859.703-.063.578-.703.516-.922.5l-2.734-.266.14-1.468-.469-.047-.14 1.468-1.89-.171-.048.453c1 .094 1.922.672 1.86 1.672l.36.03.077-.827 2.719.265c1.063.094 1.36-.734 1.438-1.453.062-.75-.47-1.25-1.188-1.312Zm0 0"/></symbol><symbol overflow="visible" id="f"><path style="stroke:none" d="M-.5-5.031c-.172-.016-.203.172-.203.218-.031.172.015.188.172.266.437.25.672.875.594 1.516-.188 1.39-1.5 1.234-2 1.172l.39-2.985c.031-.218.047-.312-.219-.36-.296-.03-1.046-.077-1.609.345-.406.312-.64.828-.719 1.515-.218 1.578.688 2.563 1.907 2.735C-.845-.438.233-1.281.453-2.875.656-4.438-.328-5-.5-5.031Zm-1.453.75-.313 2.375c-.375-.078-.796-.14-1.093-.39-.36-.313-.438-.735-.391-1 .156-1.173 1.469-1.017 1.797-.985Zm0 0"/></symbol><symbol overflow="visible" id="g"><path style="stroke:none" d="M-5.39-5.234c-.407-.063-.923.234-1.032 1-.14.968.11 2.093 1.219 2.265l1 .157-.11.734.47.062.109-.734 3.437.516-.094.671.47.079.155-1.235c.047-.36.141-1 .235-1.36L0-3.155l-.125.86-3.438-.517.172-1.14-.468-.063-.188 1.204-1-.157c-1.078-.172-1.062-.937-1.016-1.187 0-.047.016-.11.047-.157a.611.611 0 0 0 .438.297c.422.063.656-.25.703-.5.047-.296-.11-.656-.516-.718Zm0 0"/></symbol><symbol overflow="visible" id="h"><path style="stroke:none" d="M-5.313-5.297c-.406-.062-.921.203-1.046.984-.157.954.078 2.079 1.187 2.266l1 .172-.125.734.453.079.125-.735 3.438.563-.11.671.47.079L.25-1.72c.063-.36.172-1 .25-1.343l-.469-.079-.125.844-3.437-.562.172-1.125-.454-.079L-4-2.875l-1-.172c-1.078-.172-1.047-.922-1.016-1.172.016-.047.016-.11.063-.172.078.172.25.282.437.313.422.078.657-.25.704-.5.046-.297-.094-.656-.5-.719Zm0 0"/></symbol><symbol overflow="visible" id="i"><path style="stroke:none" d="M-.281-5.047c-.172-.031-.203.156-.203.203-.032.172 0 .188.156.282.437.265.64.906.516 1.53C-.063-1.64-1.36-1.858-1.86-1.952l.546-2.969c.032-.219.047-.312-.203-.36-.312-.046-1.03-.124-1.625.266-.421.297-.671.797-.796 1.47-.282 1.562.578 2.608 1.78 2.827C-.827-.469.298-1.28.579-2.859c.281-1.547-.687-2.157-.86-2.188Zm-1.453.672-.438 2.36c-.39-.079-.797-.172-1.078-.438a1.16 1.16 0 0 1-.344-1.031c.203-1.157 1.5-.938 1.86-.891Zm0 0"/></symbol><symbol overflow="visible" id="j"><path style="stroke:none" d="M-.219-4.906c-.125-.016-.156.125-.172.218-.046.172-.015.172.094.266.563.36.64.875.547 1.375-.266 1.36-1.688 1.078-2.14.985-.563-.11-1.813-.36-1.563-1.61.062-.36.11-.515.172-.656.14.219.328.281.406.297a.6.6 0 0 0 .75-.469c.063-.313-.094-.672-.5-.75-.844-.172-1.11.953-1.234 1.531-.344 1.75.625 2.688 1.765 2.906C-.797-.546.312-1.266.625-2.766c.313-1.593-.766-2.125-.844-2.14Zm0 0"/></symbol><symbol overflow="visible" id="k"><path style="stroke:none" d="m-.406-4-.516-.11-.094.47.5.109c.657.14.797.5.75.781-.125.563-.75.438-.953.39l-2.687-.578.312-1.437-.469-.094-.312 1.438-1.86-.406-.093.453c.984.218 1.828.906 1.656 1.875l.36.078.171-.813 2.672.578C.062-1.046.453-1.828.61-2.53.766-3.266.297-3.844-.406-4Zm0 0"/></symbol><symbol overflow="visible" id="l"><path style="stroke:none" d="M-.438-4.344c-.421-.093-.812.016-1.156.297-.375.313-.5.625-.797 1.328-.14.36-.39.969-.843.86-.61-.141-.407-1.047-.375-1.22.171-.733.53-1.03 1.078-.968.156.031.203.016.25-.172.062-.234.015-.234-.219-.297l-.766-.171c-.187-.047-.28-.063-.328.109-.015.047-.015.062.094.484-.188.235-.328.547-.422.938-.062.297-.406 1.797.875 2.094.375.078.688-.063.906-.235.422-.297.563-.672.875-1.375.141-.344.438-1.031 1.016-.906.719.172.516 1.062.469 1.281-.235 1.031-1 1.11-1.453 1.125-.125.016-.141.078-.172.203-.063.25-.016.266.203.313l1.062.25c.188.047.282.062.329-.125C.203-.594.203-.61.093-.86l-.11-.282c.422-.375.547-.89.594-1.078.063-.312.406-1.797-1.015-2.125Zm0 0"/></symbol><symbol overflow="visible" id="m"><path style="stroke:none" d="M1.11-5.406c-.22-.047-.25.062-.282.203-.172.578-.297.562-.515.5l-2.079-.516c-.875-.218-1.656.313-2.015 1.75-.14.547-.39 1.735.453 1.938a.605.605 0 0 0 .765-.438c.079-.297-.062-.64-.453-.75-.296-.062-.5.063-.546.078.03-.265.093-.609.109-.703.187-.734.687-.969 1.422-.781l.328.078c-.156.688-.672 3.188.719 3.531C-.063-.28.422-1.437.594-2.109.78-2.875.516-3.422.14-3.75c.312.078.75.188 1-.828l.125-.453c.046-.203.078-.313-.157-.375ZM-.485-3.75c.937.234.828 1.156.765 1.39-.125.5-.562.813-1 .704-1.031-.25-.781-1.828-.687-2.313Zm0 0"/></symbol><symbol overflow="visible" id="n"><path style="stroke:none" d="m.734-2.828-.453-.125-.172.672-6.25-1.61-.359 1.72.453.108c.156-.609.172-.671.547-.562L-.156-1.25l-.172.672.453.125.266-1.203Zm0 0"/></symbol><symbol overflow="visible" id="o"><path style="stroke:none" d="M-.688-5.781c-1.296-.344-2.515.281-2.937 1.843-.422 1.594.328 2.735 1.61 3.079C-.829-.547.374-1.141.796-2.75 1.234-4.36.484-5.469-.688-5.781Zm-.453 1.203c.829.219 1.875.5 1.547 1.719-.328 1.218-1.375.937-2.203.718-.437-.109-.922-.25-1.203-.484-.313-.297-.406-.75-.281-1.219.11-.406.375-.765.765-.89.375-.11.907.03 1.375.156Zm0 0"/></symbol><symbol overflow="visible" id="p"><path style="stroke:none" d="m1.64-5.906-.452-.125L1-5.36l-2.484-.688c-1-.281-1.516.11-1.782 1.078-.25.922.141 1.594.563 1.985l-1.031-.297-.391 1.656.453.125c.156-.594.188-.656.563-.547l2.968.828-.187.657.453.125.297-1.22.375-1.187-.453-.125-.188.656-2-.562c-1.047-.281-1.281-1.25-1.11-1.86.079-.312.329-.468 1.063-.265l2.594.719-.187.656.453.125.312-1.219Zm0 0"/></symbol><symbol overflow="visible" id="q"><path style="stroke:none" d="M-2.266-6.438A.586.586 0 0 0-3-6c-.047.156-.14.625.063 1.14-.157.126-.47.47-.672 1.173-.391 1.39.203 2.124.859 2.312.39.11.844.063 1.156-.203.266.375.563.516.766.578.14.047.625.125 1.031-.156-.016.125 0 .89.594 1.062.484.14 1.36-.203 1.906-2.11.485-1.702.14-2.608-.531-2.796a1.34 1.34 0 0 0-1.422.36c-.422.468-.578 1.046-.844 1.952-.078.266-.203.704-.234.735a.629.629 0 0 1-.75.375.54.54 0 0 1-.297-.203c.36-.36.531-.844.61-1.094C-.376-4.25-.97-5-1.657-5.188c-.438-.125-.844.032-1.016.125-.078-.328-.031-.546-.015-.64.03.047.124.078.187.094.234.078.453-.047.516-.297.078-.25-.063-.453-.282-.532Zm.297 2.313c.438.125 1.094.313.86 1.156-.25.844-.907.656-1.344.531-.406-.124-1.063-.312-.813-1.156.235-.844.891-.656 1.297-.531Zm3.938-.047c.343.11.75.625.39 1.875-.328 1.14-.89 1.5-1.328 1.375-.578-.172-.406-.781-.375-.906l.328-1.125c.079-.313.391-1.39.985-1.219Zm0 0"/></symbol><symbol overflow="visible" id="r"><path style="stroke:none" d="M-.438-6.375c-1.28-.375-2.437.234-2.843 1.61a2.71 2.71 0 0 0 .031 1.593l-.453-.14-.422 1.718.453.125c.172-.578.188-.656.547-.547L1.703-.609l-.187.656.453.14.312-1.218.39-1.188-.452-.14-.203.671-1.782-.515c.454-.328.688-.719.797-1.11C1.453-4.75.875-5.983-.437-6.374Zm-.359 1.234C.547-4.75.843-3.92.656-3.297c-.031.125-.172.578-.828.86-.156.078-.156.062-.344.015l-2.03-.594c-.173-.046-.173-.078-.282-.25C-3.11-3.75-3-4.296-2.938-4.5c.172-.625.922-1 2.141-.64Zm0 0"/></symbol><symbol overflow="visible" id="s"><path style="stroke:none" d="M1.328-5.36c-.234-.062-.266.063-.312.204-.188.562-.297.531-.532.468l-2.046-.609c-.86-.25-1.657.25-2.079 1.672-.156.547-.468 1.734.375 1.969a.602.602 0 0 0 .782-.407c.093-.296-.047-.656-.438-.78-.281-.079-.5.046-.531.062.031-.266.11-.594.14-.703.22-.72.72-.938 1.438-.735l.328.11c-.172.687-.797 3.156.594 3.562C-.047-.28.484-1.422.672-2.078.906-2.844.64-3.406.297-3.75c.297.094.734.219 1.031-.781l.125-.453c.063-.188.094-.313-.125-.375ZM-.344-3.765c.922.266.797 1.204.719 1.438-.14.5-.578.765-1.016.64-1.015-.296-.718-1.843-.609-2.343Zm0 0"/></symbol><symbol overflow="visible" id="t"><path style="stroke:none" d="m-.125-4-.516-.14-.125.437.5.14c.641.188.782.579.704.844-.172.547-.797.36-1 .313l-2.641-.766.422-1.406-.453-.14-.422 1.405-1.828-.53-.125.452c.953.282 1.765 1.032 1.53 2l.345.11.218-.797 2.625.75C.125-1.031.594-1.797.781-2.484 1-3.22.562-3.797-.125-4Zm0 0"/></symbol><symbol overflow="visible" id="u"><path style="stroke:none" d="m1.672-5.89-.453-.126-.188.657-2.484-.704c-1-.28-1.531.125-1.797 1.079-.266.921.14 1.578.469 1.89l-3.266-.937-.406 1.734.437.125c.172-.578.188-.656.563-.547l5.312 1.5-.187.657.453.125.313-1.22.359-1.187-.453-.125-.188.656-2-.562c-1.047-.297-1.281-1.25-1.093-1.875.078-.313.328-.469 1.078-.266l2.578.735-.188.672.453.125.313-1.22Zm0 0"/></symbol><symbol overflow="visible" id="v"><path style="stroke:none" d="M-5.422-4.094c-.375-.11-.781.157-.906.563-.11.422.11.844.484.953.047 0 .078.015.188.015l3.625.454c.25.03.265.03.312-.172.063-.188.047-.219-.125-.297l-3.468-1.469Zm5.328 1.469a.786.786 0 0 0-.953.531.78.78 0 0 0 .547.953.769.769 0 0 0 .953-.546c.125-.407-.125-.829-.547-.938Zm0 0"/></symbol><symbol overflow="visible" id="x"><path style="stroke:none" d="M-1.469-4.781h-.656l-.016.578h.641c.844.016 1.14.437 1.14.781-.015.719-.812.703-1.093.688l-3.438-.047.032-1.813-.594-.015-.031 1.812-2.375-.031-.016.594c1.25.015 2.484.64 2.484 1.875l.454.015.015-1.015 3.406.046C-.187-1.28.11-2.359.125-3.25c.016-.953-.688-1.516-1.594-1.531Zm0 0"/></symbol><symbol overflow="visible" id="y"><path style="stroke:none" d="M-1.156-6.234c-.235 0-.235.234-.25.296 0 .22.062.25.265.329.579.28.938 1.03.907 1.828-.094 1.765-1.75 1.672-2.391 1.64l.188-3.75c.015-.28.015-.406-.313-.421-.39-.016-1.297.015-1.953.609-.469.437-.719 1.094-.766 1.953C-5.562-1.766-4.344-.625-2.78-.547-1.125-.469.156-1.64.266-3.657c.093-1.952-1.22-2.562-1.422-2.577Zm-1.719 1.109-.156 2.969c-.485-.031-1.016-.078-1.406-.36a1.37 1.37 0 0 1-.579-1.203c.079-1.469 1.704-1.406 2.141-1.406Zm0 0"/></symbol><symbol overflow="visible" id="z"><path style="stroke:none" d="m.625-7.25-.578-.047-.078.86-2.656 1.875-1.5-1.579c-.157-.171-.22-.265-.141-1.28l-.594-.048-.047 1.125-.156 1.282.594.046c.015-.171.047-.328.156-.453.063.047.078.047.125.11l1.078 1.14-1.515 1.094.03-.5-.593-.047-.078 1.5-.156 1.36.593.046.079-.875 2.437-1.718 1.672 1.765c.234.235.203.672.156 1.266l.578.047.063-1.14.14-1.266-.578-.047c-.031.218-.11.468-.187.453 0 0-.031 0-.11-.11l-1.25-1.312 1.735-1.235-.047.485.578.047.094-1.5Zm0 0"/></symbol><symbol overflow="visible" id="A"><path style="stroke:none" d="m-.984-4.89-.657-.079-.062.578.64.079c.829.093 1.079.53 1.032.859-.078.719-.86.625-1.14.594l-3.423-.391.203-1.797-.593-.078-.204 1.797-2.359-.266-.062.594c1.25.14 2.39.89 2.28 2.11l.454.062.11-1 3.39.39c1.313.157 1.719-.89 1.828-1.78.11-.938-.547-1.579-1.437-1.673Zm0 0"/></symbol><symbol overflow="visible" id="B"><path style="stroke:none" d="M-.453-6.313c-.234-.03-.281.204-.281.266-.047.219.015.25.203.36.562.343.828 1.125.703 1.906-.281 1.75-1.906 1.484-2.547 1.375l.594-3.703c.047-.282.078-.407-.25-.454-.375-.062-1.281-.125-2.016.391-.516.375-.828 1.016-.969 1.86-.312 1.953.782 3.218 2.313 3.468 1.64.25 3.047-.765 3.36-2.75C.968-5.516-.25-6.28-.454-6.313Zm-1.844.907-.469 2.937c-.484-.094-1-.187-1.359-.515-.438-.391-.5-.907-.453-1.266.234-1.453 1.844-1.203 2.281-1.156Zm0 0"/></symbol><symbol overflow="visible" id="C"><path style="stroke:none" d="M-6.547-6.703c-.516-.094-1.14.234-1.312 1.203-.22 1.203.062 2.61 1.453 2.86l1.234.218-.172.938.578.109.172-.938 4.297.766-.156.86.562.109.25-1.563a32.12 32.12 0 0 1 .329-1.687l-.563-.11-.188 1.079-4.296-.766.25-1.422-.579-.11-.265 1.485-1.234-.219c-1.36-.25-1.297-1.187-1.25-1.5.015-.062.03-.125.062-.218.11.218.328.359.563.406a.746.746 0 0 0 .89-.61c.078-.375-.125-.796-.625-.89Zm0 0"/></symbol><symbol overflow="visible" id="D"><path style="stroke:none" d="M-6.453-6.797c-.5-.094-1.14.219-1.344 1.188C-8.03-4.422-7.75-3-6.375-2.734l1.234.25-.187.921.578.11.188-.922 4.28.844-.171.843.562.11.282-1.547c.093-.469.234-1.25.359-1.688l-.563-.109-.218 1.063-4.282-.844.282-1.406-.578-.11-.282 1.469L-6.125-4c-1.344-.25-1.281-1.203-1.219-1.5.016-.063.032-.125.063-.219a.732.732 0 0 0 .531.422c.547.11.86-.297.922-.61.062-.374-.11-.796-.625-.89Zm0 0"/></symbol><symbol overflow="visible" id="E"><path style="stroke:none" d="M-.14-6.313c-.235-.062-.282.157-.297.22-.047.218.015.265.203.374.53.375.78 1.157.609 1.938-.36 1.734-1.984 1.39-2.61 1.265l.782-3.671c.062-.266.078-.391-.25-.47-.375-.077-1.281-.187-2.016.298-.531.343-.89.953-1.078 1.796-.406 1.938.61 3.266 2.14 3.594 1.626.344 3.079-.625 3.5-2.594.407-1.906-.78-2.718-.984-2.75Zm-1.891.797-.61 2.907c-.468-.11-.984-.235-1.328-.594-.422-.39-.453-.922-.39-1.266.312-1.437 1.906-1.125 2.328-1.047Zm0 0"/></symbol><symbol overflow="visible" id="F"><path style="stroke:none" d="M-.078-6.125c-.156-.047-.188.125-.219.234-.062.235-.047.25.11.344.687.5.78 1.125.64 1.75-.39 1.688-2.172 1.266-2.734 1.14-.688-.155-2.25-.515-1.89-2.077.093-.422.171-.641.25-.782.14.25.39.344.483.375a.746.746 0 0 0 .938-.578c.094-.375-.047-.812-.578-.937-1.031-.25-1.438 1.14-1.61 1.843-.5 2.172.704 3.407 2.11 3.735 1.61.375 3.031-.5 3.469-2.375C1.344-5.422 0-6.11-.08-6.125Zm0 0"/></symbol><symbol overflow="visible" id="G"><path style="stroke:none" d="M-.36-4.984-1-5.141l-.14.563.624.156c.813.203 1.016.672.938 1-.172.703-.953.5-1.219.438l-3.344-.829.422-1.765-.578-.14-.422 1.765-2.297-.578-.156.578c1.203.312 2.266 1.203 2 2.39l.438.11.25-.984 3.312.812C.11-1.297.641-2.281.86-3.141c.235-.921-.343-1.625-1.218-1.843Zm0 0"/></symbol><symbol overflow="visible" id="H"><path style="stroke:none" d="M-.39-5.438c-.516-.14-1-.015-1.454.329-.468.375-.64.75-1.031 1.64-.203.422-.547 1.172-1.11 1.031-.75-.203-.468-1.328-.406-1.546.235-.907.72-1.25 1.391-1.157.172.032.234.032.313-.234.062-.281 0-.297-.266-.36l-.969-.25c-.234-.062-.328-.093-.375.126-.016.046-.016.062.078.609-.234.266-.406.672-.531 1.156-.11.36-.578 2.219.984 2.625.485.125.891-.031 1.141-.218.547-.375.734-.797 1.156-1.704.188-.39.563-1.265 1.282-1.078.906.235.625 1.328.546 1.61C.031-1.594-.92-1.5-1.484-1.5c-.204.016-.22.078-.266.266-.063.28.016.296.297.375l1.312.328c.235.062.344.094.391-.14.031-.063.031-.095-.094-.407l-.125-.344C.578-1.89.734-2.516.797-2.75c.094-.375.578-2.234-1.188-2.688Zm0 0"/></symbol><symbol overflow="visible" id="I"><path style="stroke:none" d="M1.578-6.719c-.281-.078-.328.094-.375.235-.219.75-.375.703-.656.625l-2.563-.72c-1.078-.296-2.093.329-2.593 2.11-.188.688-.563 2.172.5 2.469.515.14.875-.219.968-.547.094-.375-.046-.812-.546-.953-.376-.11-.626.063-.672.094.015-.36.125-.735.171-.89.25-.907.875-1.188 1.797-.938l.407.109c-.22.875-.97 3.953.78 4.438C-.062-.376.579-1.798.813-2.625c.266-.953-.078-1.672-.5-2.047.36.094.922.25 1.266-1l.172-.578c.063-.234.11-.39-.172-.469ZM-.484-4.703c1.156.328 1 1.5.906 1.797-.156.594-.719.953-1.25.812-1.297-.375-.922-2.297-.781-2.922Zm0 0"/></symbol><symbol overflow="visible" id="J"><path style="stroke:none" d="m1-3.516-.563-.156-.234.828-7.75-2.219-.516 2.157.579.156c.218-.75.234-.813.687-.672l6.625 1.89-.234.813.562.156.39-1.484Zm0 0"/></symbol><symbol overflow="visible" id="K"><path style="stroke:none" d="M-.719-7.25c-1.61-.453-3.14.281-3.703 2.234-.578 1.97.328 3.407 1.922 3.86 1.484.437 3-.266 3.578-2.266C1.656-5.437.75-6.812-.719-7.25Zm-.594 1.5c1.047.297 2.344.672 1.907 2.188-.438 1.515-1.735 1.14-2.781.843-.516-.156-1.141-.328-1.5-.64-.36-.36-.47-.938-.297-1.532.14-.5.484-.937.968-1.078.485-.14 1.141.047 1.704.219Zm0 0"/></symbol><symbol overflow="visible" id="L"><path style="stroke:none" d="M2.156-7.344 1.594-7.5l-.25.828-3.094-.922c-1.266-.36-1.922.14-2.266 1.344-.343 1.14.188 1.969.688 2.453l-1.297-.375-.5 2.078.563.156c.218-.734.25-.812.703-.671l3.703 1.093-.25.813.562.156.406-1.515.485-1.485-.563-.156-.25.812-2.5-.734c-1.296-.39-1.593-1.578-1.375-2.328.125-.422.47-.578 1.36-.313l3.234.954-.25.828.563.156.421-1.531Zm0 0"/></symbol><symbol overflow="visible" id="M"><path style="stroke:none" d="M-2.813-8.047a.74.74 0 0 0-.921.547 2.26 2.26 0 0 0 .093 1.406c-.203.172-.609.594-.875 1.485-.5 1.718.282 2.656 1.11 2.89.484.14 1.047.032 1.422-.265.328.468.687.64.937.718.188.047.781.172 1.297-.187 0 .156.016 1.11.766 1.328.593.172 1.687-.203 2.39-2.61.61-2.109.172-3.265-.672-3.5-.359-.109-1.14-.234-1.78.47-.516.562-.72 1.28-1.063 2.437-.079.297-.235.86-.282.906-.234.5-.734.5-.937.438-.125-.032-.297-.125-.36-.235.454-.453.641-1.062.72-1.36.5-1.718-.235-2.655-1.063-2.905-.563-.157-1.047.03-1.281.156-.11-.422-.063-.672-.032-.797.063.031.172.094.235.11.312.093.562-.063.656-.36.094-.313-.063-.594-.36-.672Zm.391 2.906c.531.157 1.344.391 1.031 1.438-.296 1.047-1.109.812-1.64.656-.547-.156-1.344-.39-1.047-1.437.312-1.047 1.11-.813 1.656-.657Zm4.906-.046c.422.109.938.78.5 2.328C2.563-1.422 1.828-1 1.281-1.156.563-1.36.781-2.11.828-2.281l.406-1.406c.11-.36.5-1.72 1.25-1.5Zm0 0"/></symbol><symbol overflow="visible" id="N"><path style="stroke:none" d="M-.75-7.938c-1.594-.421-3.031.36-3.5 2.094-.234.907-.031 1.64.11 1.969l-.594-.156-.47 2.172.563.156c.204-.75.235-.828.688-.719L2.109-.797l-.234.828.578.157.375-1.547.438-1.485L2.687-3l-.218.828-2.235-.594c.563-.421.829-.921.97-1.406C1.687-5.969.921-7.484-.75-7.938Zm-.422 1.547C.531-5.937.938-4.92.734-4.156c-.062.187-.203.734-1 1.11-.187.093-.203.093-.437.03l-2.547-.687c-.234-.063-.234-.078-.36-.297a2.049 2.049 0 0 1-.203-1.531c.22-.813 1.126-1.266 2.641-.86Zm0 0"/></symbol><symbol overflow="visible" id="O"><path style="stroke:none" d="M1.328-6.766c-.281-.078-.328.094-.36.25-.202.735-.374.704-.64.625L-2.266-6.5c-1.078-.266-2.078.406-2.5 2.203-.171.688-.484 2.188.579 2.438a.769.769 0 0 0 .953-.563c.093-.375-.063-.828-.579-.953a.752.752 0 0 0-.671.14c.015-.374.109-.75.14-.906.219-.906.813-1.218 1.75-.984l.406.094c-.171.86-.796 3.968.954 4.39 1.156.282 1.75-1.171 1.953-2C.953-3.609.594-4.312.14-4.687c.359.078.921.218 1.234-1.047l.14-.579c.048-.234.094-.39-.187-.453Zm-2 2.094C.5-4.39.391-3.234.328-2.938c-.156.61-.703 1-1.234.876-1.297-.313-1.016-2.266-.906-2.876Zm0 0"/></symbol><symbol overflow="visible" id="P"><path style="stroke:none" d="m-.578-4.969-.64-.125-.11.563.625.125c.828.172 1.047.64.969.968-.141.704-.922.547-1.204.485l-3.375-.688.36-1.765-.578-.11-.36 1.766-2.328-.469-.11.594c1.22.25 2.313 1.078 2.095 2.297l.437.078.203-.984 3.344.687c1.297.25 1.797-.75 1.969-1.625.187-.937-.406-1.61-1.297-1.797Zm0 0"/></symbol><symbol overflow="visible" id="Q"><path style="stroke:none" d="m1.047-7.578-.578-.078-.11.843-3.203-.453c-1.297-.171-1.875.438-2.047 1.672-.171 1.172.485 1.907.907 2.235v.015l-4.204-.578-.203 2.188.594.078c.11-.75.125-.844.61-.782l6.812.954-.125.843.578.079.188-1.547.25-1.563-.579-.078-.124.86-2.579-.36c-1.343-.188-1.812-1.328-1.703-2.094.063-.437.36-.656 1.282-.531l3.343.469-.11.86.579.077.188-1.562Zm0 0"/></symbol><symbol overflow="visible" id="R"><path style="stroke:none" d="M-7.734-3.516c-.485-.015-.907.407-.938.954-.015.53.36.984.844 1h.234l4.532-.454c.312-.015.343-.03.343-.28.016-.25-.015-.282-.265-.329l-4.594-.86Zm6.906.313a.987.987 0 0 0-1.016.937c-.015.532.39 1 .922 1.016.531.031 1-.39 1.016-.922a.979.979 0 0 0-.922-1.031Zm0 0"/></symbol><clipPath id="a"><path d="M1 0h40v143.625H1Zm0 0"/></clipPath><clipPath id="w"><path d="M29 0h35.906v143.625H29Zm0 0"/></clipPath></defs><g clip-path="url(#a)"><path style="fill:none;stroke-width:.3985;stroke-linecap:butt;stroke-linejoin:miter;stroke:gray;stroke-opacity:1;stroke-miterlimit:10" d="M-.001.002c0 56.691 28.348 113.387 28.348 141.73" transform="matrix(1 0 0 -1 7.001 142.623)"/></g><use xlink:href="#b" x="6.987" y="142.62" style="fill:#000;fill-opacity:1"/><use xlink:href="#c" x="7.04" y="138.163" style="fill:#000;fill-opacity:1"/><use xlink:href="#d" x="7.245" y="132.914" style="fill:#000;fill-opacity:1"/><use xlink:href="#e" x="7.675" y="126.88" style="fill:#000;fill-opacity:1"/><use xlink:href="#f" x="8.527" y="118.65" style="fill:#000;fill-opacity:1"/><use xlink:href="#g" x="9.232" y="113.444" style="fill:#000;fill-opacity:1"/><use xlink:href="#h" x="9.758" y="109.984" style="fill:#000;fill-opacity:1"/><use xlink:href="#i" x="10.323" y="106.529" style="fill:#000;fill-opacity:1"/><use xlink:href="#j" x="11.263" y="101.36" style="fill:#000;fill-opacity:1"/><use xlink:href="#k" x="12.261" y="96.366" style="fill:#000;fill-opacity:1"/><use xlink:href="#l" x="13.195" y="92.01" style="fill:#000;fill-opacity:1"/><use xlink:href="#m" x="15.083" y="83.882" style="fill:#000;fill-opacity:1"/><use xlink:href="#n" x="16.441" y="78.477" style="fill:#000;fill-opacity:1"/><use xlink:href="#o" x="17.236" y="75.397" style="fill:#000;fill-opacity:1"/><use xlink:href="#p" x="18.721" y="69.861" style="fill:#000;fill-opacity:1"/><use xlink:href="#q" x="20.431" y="63.726" style="fill:#000;fill-opacity:1"/><use xlink:href="#r" x="23.072" y="54.549" style="fill:#000;fill-opacity:1"/><use xlink:href="#s" x="24.861" y="48.436" style="fill:#000;fill-opacity:1"/><use xlink:href="#t" x="26.426" y="43.088" style="fill:#000;fill-opacity:1"/><use xlink:href="#u" x="27.67" y="38.808" style="fill:#000;fill-opacity:1"/><use xlink:href="#v" x="29.398" y="32.678" style="fill:#000;fill-opacity:1"/><g clip-path="url(#w)"><path style="fill:none;stroke-width:.3985;stroke-linecap:butt;stroke-linejoin:miter;stroke:gray;stroke-opacity:1;stroke-miterlimit:10" d="M28.347.002c0 56.691 28.347 113.387 28.347 141.73" transform="matrix(1 0 0 -1 7.001 142.623)"/></g><use xlink:href="#x" x="35.325" y="142.621" style="fill:#000;fill-opacity:1"/><use xlink:href="#y" x="35.408" y="137.052" style="fill:#000;fill-opacity:1"/><use xlink:href="#z" x="35.725" y="130.493" style="fill:#000;fill-opacity:1"/><use xlink:href="#A" x="36.384" y="122.96" style="fill:#000;fill-opacity:1"/><use xlink:href="#B" x="37.673" y="112.697" style="fill:#000;fill-opacity:1"/><use xlink:href="#C" x="38.728" y="106.215" style="fill:#000;fill-opacity:1"/><use xlink:href="#D" x="39.508" y="101.912" style="fill:#000;fill-opacity:1"/><use xlink:href="#E" x="40.342" y="97.617" style="fill:#000;fill-opacity:1"/><use xlink:href="#F" x="41.716" y="91.196" style="fill:#000;fill-opacity:1"/><use xlink:href="#G" x="43.159" y="84.996" style="fill:#000;fill-opacity:1"/><use xlink:href="#H" x="44.498" y="79.589" style="fill:#000;fill-opacity:1"/><use xlink:href="#I" x="47.164" y="69.505" style="fill:#000;fill-opacity:1"/><use xlink:href="#J" x="49.042" y="62.8" style="fill:#000;fill-opacity:1"/><use xlink:href="#K" x="50.133" y="58.978" style="fill:#000;fill-opacity:1"/><use xlink:href="#L" x="52.134" y="52.099" style="fill:#000;fill-opacity:1"/><use xlink:href="#M" x="54.375" y="44.461" style="fill:#000;fill-opacity:1"/><use xlink:href="#N" x="57.674" y="32.99" style="fill:#000;fill-opacity:1"/><use xlink:href="#O" x="59.735" y="25.301" style="fill:#000;fill-opacity:1"/><use xlink:href="#P" x="61.353" y="18.527" style="fill:#000;fill-opacity:1"/><use xlink:href="#Q" x="62.51" y="13.077" style="fill:#000;fill-opacity:1"/><use xlink:href="#R" x="63.546" y="5.183" style="fill:#000;fill-opacity:1"/></svg>