<svg xmlns="http://www.w3.org/2000/svg" width="87.22pt" height="79.323" viewBox="0 0 87.22 59.492" version="1.2"><defs><clipPath id="a"><path d="M0 0h86.828v59.238H0Zm0 0"/></clipPath><clipPath id="b"><path d="M3 32h83.828v27.238H3Zm0 0"/></clipPath></defs><g clip-path="url(#a)"><path style="fill:none;stroke-width:.79701;stroke-linecap:butt;stroke-linejoin:miter;stroke:#000;stroke-opacity:1;stroke-miterlimit:10" d="M.001 56.692c70.867-14.171 14.172-42.52 85.04-56.69" transform="matrix(1 0 0 -1 .702 57.837)"/></g><path style="fill:none;stroke-width:.79701;stroke-linecap:butt;stroke-linejoin:miter;stroke:#00f;stroke-opacity:1;stroke-dasharray:2.98883,2.98883;stroke-miterlimit:10" d="m.001 56.692 70.867-14.171" transform="matrix(1 0 0 -1 .702 57.837)"/><path style="fill:none;stroke-width:.79701;stroke-linecap:butt;stroke-linejoin:miter;stroke:red;stroke-opacity:1;stroke-miterlimit:10" d="m68.478 40.13 4.78 4.781m-4.78 0 4.78-4.781" transform="matrix(1 0 0 -1 .702 57.837)"/><g clip-path="url(#b)"><path style="fill:none;stroke-width:.79701;stroke-linecap:butt;stroke-linejoin:miter;stroke:#00f;stroke-opacity:1;stroke-dasharray:2.98883,2.98883;stroke-miterlimit:10" d="M14.173 14.173 85.04 0" transform="matrix(1 0 0 -1 .702 57.837)"/></g><path style="fill:none;stroke-width:.79701;stroke-linecap:butt;stroke-linejoin:miter;stroke:red;stroke-opacity:1;stroke-miterlimit:10" d="m11.782 11.782 4.782 4.782m-4.782 0 4.782-4.782" transform="matrix(1 0 0 -1 .702 57.837)"/></svg>