<svg xmlns="http://www.w3.org/2000/svg" width="116.341" height="98.499" viewBox="0 0 87.256 73.874" version="1.2"><defs><clipPath id="a"><path d="M0 0h86.883v73.813H0Zm0 0"/></clipPath></defs><path style="fill:none;stroke-width:.19925;stroke-linecap:butt;stroke-linejoin:miter;stroke:gray;stroke-opacity:1;stroke-miterlimit:10" d="M.001 0h85.04M0 28.35h85.04M0 56.684h85.04M0 .001v56.691M28.345.001v56.691M56.693.001v56.691M85.029.001v56.691" transform="matrix(1 0 0 -1 .737 72.704)"/><path style="stroke:none;fill-rule:nonzero;fill:#00f;fill-opacity:1" d="M30.578 44.355c0-.824-.668-1.492-1.496-1.492-.824 0-1.492.668-1.492 1.492a1.494 1.494 0 1 0 2.988 0ZM58.926 16.012a1.494 1.494 0 1 0-2.988-.005 1.494 1.494 0 0 0 2.988.005ZM30.578 16.012a1.494 1.494 0 1 0-2.987-.005 1.494 1.494 0 0 0 2.987.005ZM37.664 65.617a1.495 1.495 0 1 0-2.99-.001 1.495 1.495 0 0 0 2.99.001ZM51.84 30.184c0-.825-.672-1.497-1.496-1.497s-1.496.672-1.496 1.497c0 .824.672 1.496 1.496 1.496s1.496-.672 1.496-1.496Zm0 0"/><path style="fill:none;stroke-width:.79701;stroke-linecap:butt;stroke-linejoin:miter;stroke:#000;stroke-opacity:1;stroke-miterlimit:10" d="M26.454 5.192h32.133v53.395H26.454Zm0 0" transform="matrix(1 0 0 -1 .737 72.704)"/><g clip-path="url(#a)"><path style="fill:none;stroke-width:.79701;stroke-linecap:butt;stroke-linejoin:miter;stroke:red;stroke-opacity:1;stroke-miterlimit:10" d="M50.208 71.208 9.943 47.962l24.89-43.113L75.1 28.095Zm0 0" transform="matrix(1 0 0 -1 .737 72.704)"/></g></svg>