<svg xmlns="http://www.w3.org/2000/svg" width="123.603" height="118.323" viewBox="0 0 92.702 88.742" version="1.2"><defs><clipPath id="a"><path d="M76 24h16.555v22H76Zm0 0"/></clipPath><clipPath id="b"><path d="M60 72h22v16.613H60Zm0 0"/></clipPath><clipPath id="c"><path d="M10 72h22v16.613H10Zm0 0"/></clipPath></defs><path style="fill:none;stroke-width:.3985;stroke-linecap:butt;stroke-linejoin:miter;stroke:#000;stroke-opacity:1;stroke-miterlimit:10" d="M4.695 14.175A4.695 4.695 0 0 1 0 18.87a4.698 4.698 0 0 1 0-9.395 4.698 4.698 0 0 1 4.695 4.7ZM18.176 4.378c0 2.594-2.102 4.7-4.695 4.7a4.698 4.698 0 0 1 0-9.395 4.695 4.695 0 0 1 4.695 4.695ZM13.027-11.466a4.698 4.698 0 1 1-9.393-.005 4.698 4.698 0 0 1 9.393.005ZM-3.633-11.466a4.698 4.698 0 1 1-9.395-.005 4.698 4.698 0 0 1 9.395.005ZM-8.785 4.378c0 2.594-2.102 4.7-4.695 4.7a4.698 4.698 0 0 1 0-9.395 4.695 4.695 0 0 1 4.695 4.695ZM4.695 42.519c0 2.594-2.101 4.7-4.695 4.7a4.698 4.698 0 0 1 0-9.395 4.695 4.695 0 0 1 4.695 4.695Zm0 0" transform="matrix(1 0 0 -1 46.203 48.304)"/><g clip-path="url(#a)"><path style="fill:none;stroke-width:.3985;stroke-linecap:butt;stroke-linejoin:miter;stroke:#000;stroke-opacity:1;stroke-miterlimit:10" d="M45.137 13.14a4.698 4.698 0 0 1-9.395 0 4.698 4.698 0 0 1 9.395 0Zm0 0" transform="matrix(1 0 0 -1 46.203 48.304)"/></g><g clip-path="url(#b)"><path style="fill:none;stroke-width:.3985;stroke-linecap:butt;stroke-linejoin:miter;stroke:#000;stroke-opacity:1;stroke-miterlimit:10" d="M29.688-34.4a4.695 4.695 0 0 1-4.696 4.696 4.695 4.695 0 0 1-4.695-4.695 4.695 4.695 0 0 1 4.695-4.695 4.695 4.695 0 0 1 4.696 4.695Zm0 0" transform="matrix(1 0 0 -1 46.203 48.304)"/></g><g clip-path="url(#c)"><path style="fill:none;stroke-width:.3985;stroke-linecap:butt;stroke-linejoin:miter;stroke:#000;stroke-opacity:1;stroke-miterlimit:10" d="M-20.297-34.4a4.695 4.695 0 0 1-4.695 4.696 4.695 4.695 0 0 1-4.695-4.695 4.695 4.695 0 0 1 4.695-4.695 4.695 4.695 0 0 1 4.695 4.695Zm0 0" transform="matrix(1 0 0 -1 46.203 48.304)"/></g><path style="fill:none;stroke-width:.3985;stroke-linecap:butt;stroke-linejoin:miter;stroke:#000;stroke-opacity:1;stroke-miterlimit:10" d="M-35.742 13.14a4.698 4.698 0 0 1-9.395 0 4.698 4.698 0 0 1 9.395 0ZM0 19.07v18.554M4.895 14.05l30.652-.785M2.238 9.82l20.516-39.868M-2.238 9.82l-20.516-39.868M-4.894 14.05l-30.653-.785M11.848 8.995 1.633 37.905M18.137 5.894l17.648 5.734M14.871-.313l8.727-29.395M10.031.906l-31.578-31.829M8.649 5.163l-44.258 7.192M7.586-6.63.746 37.683M12.215-8.489l24.34 18.652M11.207-15.426l10.906-15.012M4.297-14.243l-25.258-17.383M3.961-9.262-36.07 10.933M-7.586-6.63l6.84 44.313M-3.96-9.262l40.03 20.195M-4.297-14.243l25.258-17.383M-11.207-15.426l-10.91-15.012M-12.215-8.489l-24.34 18.652M-11.848 8.995l10.215 28.91M-8.648 5.163l44.254 7.192M-10.031.906l31.574-31.829M-14.875-.313l-8.723-29.395M-18.137 5.894l-17.648 5.734" transform="matrix(1 0 0 -1 46.203 48.304)"/></svg>