<svg xmlns="http://www.w3.org/2000/svg" xmlns:xlink="http://www.w3.org/1999/xlink" width="145.059" height="141.435" viewBox="0 0 108.794 106.076" version="1.2"><defs><symbol overflow="visible" id="b"><path style="stroke:none" d="M5.563-1.813c.14 0 .312 0 .312-.171 0-.188-.172-.188-.313-.188H1c-.125 0-.297 0-.297.188 0 .171.172.171.297.171Zm0 0"/></symbol><symbol overflow="visible" id="c"><path style="stroke:none" d="M2.5-5.078c0-.219-.016-.219-.234-.219-.329.313-.75.5-1.5.5v.266c.218 0 .64 0 1.109-.203v4.078c0 .297-.031.39-.781.39H.812V0c.329-.031 1.016-.031 1.375-.031.36 0 1.047 0 1.376.031v-.266H3.28c-.75 0-.781-.093-.781-.39Zm0 0"/></symbol><symbol overflow="visible" id="d"><path style="stroke:none" d="M3.89-2.547c0-.844-.078-1.36-.343-1.875-.344-.703-1-.875-1.438-.875-1 0-1.375.75-1.484.969C.344-3.75.328-2.953.328-2.547c0 .531.016 1.328.406 1.969.36.594.954.75 1.375.75.391 0 1.063-.125 1.47-.906.296-.579.312-1.297.312-1.813ZM2.11-.062c-.266 0-.813-.126-.985-.954-.094-.453-.094-1.203-.094-1.625 0-.546 0-1.109.094-1.546.172-.813.781-.891.984-.891.266 0 .829.14.985.86.094.437.094 1.046.094 1.577 0 .47 0 1.188-.094 1.641-.172.828-.719.938-.985.938Zm0 0"/></symbol><symbol overflow="visible" id="f"><path style="stroke:none" d="M1.11-4.484c.109.03.421.125.765.125 1 0 1.594-.704 1.594-.829 0-.093-.047-.109-.094-.109-.016 0-.031 0-.094.031a2.982 2.982 0 0 1-1.11.22c-.468 0-.858-.11-1.108-.22-.079-.03-.094-.03-.11-.03-.094 0-.094.077-.094.234v2.328c0 .14 0 .234.125.234.063 0 .079-.031.125-.094.094-.11.391-.515 1.079-.515.437 0 .656.359.734.515.125.281.14.656.14.953 0 .297 0 .735-.218 1.079-.156.25-.485.484-.906.484A1.271 1.271 0 0 1 .734-.922c.016.016.079.016.079.016.218 0 .406-.14.406-.39a.388.388 0 0 0-.39-.407c-.157 0-.407.078-.407.422 0 .718.625 1.453 1.531 1.453 1 0 1.844-.781 1.844-1.766 0-.922-.672-1.75-1.61-1.75-.39 0-.765.125-1.078.406Zm0 0"/></symbol><symbol overflow="visible" id="g"><path style="stroke:none" d="M2.25-1.625c.125-.125.453-.39.594-.5.484-.453.953-.89.953-1.61 0-.953-.797-1.562-1.781-1.562-.97 0-1.594.719-1.594 1.438 0 .39.312.437.422.437.172 0 .422-.11.422-.422 0-.406-.407-.406-.5-.406.234-.594.765-.781 1.156-.781.734 0 1.125.625 1.125 1.297 0 .828-.578 1.437-1.531 2.39l-1 1.047C.422-.219.422-.203.422 0h3.14l.235-1.422h-.25c-.016.156-.078.547-.172.703-.047.063-.656.063-.781.063H1.172Zm0 0"/></symbol><symbol overflow="visible" id="e"><path style="stroke:none" d="M1.625-.438a.463.463 0 0 0-.453-.453.447.447 0 0 0-.438.438.44.44 0 0 0 .438.453.45.45 0 0 0 .453-.438Zm0 0"/></symbol><clipPath id="a"><path d="M99 0h9.691v10H99Zm0 0"/></clipPath></defs><path style="fill:none;stroke-width:.3985;stroke-linecap:round;stroke-linejoin:miter;stroke:gray;stroke-opacity:1;stroke-miterlimit:10" d="M14.174-6.975v1.992M42.521-6.975v1.992M70.865-6.975v1.992M-6.975.001h1.993M-6.975 19.466h1.993M-6.975 38.931h1.993M-6.975 58.396h1.993M-6.975 77.86h1.993" transform="matrix(1 0 0 -1 21.084 89.681)"/><path style="fill:none;stroke-width:.3985;stroke-linecap:butt;stroke-linejoin:miter;stroke:gray;stroke-opacity:1;stroke-miterlimit:10" d="M.002-4.983H85.04" transform="matrix(1 0 0 -1 21.084 89.681)"/><path style="fill:none;stroke-width:.3985;stroke-linecap:square;stroke-linejoin:miter;stroke:#bfbfbf;stroke-opacity:1;stroke-miterlimit:10" d="M.002.001H85.04M.002 87.591H85.04" transform="matrix(1 0 0 -1 21.084 89.681)"/><path style="fill:none;stroke-width:.3985;stroke-linecap:butt;stroke-linejoin:miter;stroke:gray;stroke-opacity:1;stroke-miterlimit:10" d="M-4.982.001v87.59" transform="matrix(1 0 0 -1 21.084 89.681)"/><path style="fill:none;stroke-width:.3985;stroke-linecap:square;stroke-linejoin:miter;stroke:#bfbfbf;stroke-opacity:1;stroke-miterlimit:10" d="M.002.001v87.59M85.041.001v87.59" transform="matrix(1 0 0 -1 21.084 89.681)"/><path style="fill:none;stroke-width:.3985;stroke-linecap:butt;stroke-linejoin:miter;stroke:#000;stroke-opacity:1;stroke-miterlimit:10" d="m-1.408 86.181 2.816 2.82m-2.816 0 2.816-2.82M12.764 37.52l2.82 2.817m-2.82 0 2.82-2.816M26.94 8.322l2.816 2.82m-2.817 0 2.817-2.82M41.111-1.409l2.817 2.817m-2.817 0 2.817-2.817M55.283 8.322l2.82 2.82m-2.82 0 2.82-2.82M69.459 37.52l2.816 2.817m-2.816 0 2.816-2.816" transform="matrix(1 0 0 -1 21.084 89.681)"/><g clip-path="url(#a)"><path style="fill:none;stroke-width:.3985;stroke-linecap:butt;stroke-linejoin:miter;stroke:#000;stroke-opacity:1;stroke-miterlimit:10" d="m83.63 86.181 2.817 2.82m-2.816 0 2.816-2.82" transform="matrix(1 0 0 -1 21.084 89.681)"/></g><use xlink:href="#b" x="29.847" y="104.447" style="fill:#000;fill-opacity:1"/><use xlink:href="#c" x="36.433" y="104.447" style="fill:#000;fill-opacity:1"/><use xlink:href="#d" x="61.486" y="104.447" style="fill:#000;fill-opacity:1"/><use xlink:href="#c" x="89.832" y="104.447" style="fill:#000;fill-opacity:1"/><use xlink:href="#d" x="7.22" y="92.249" style="fill:#000;fill-opacity:1"/><use xlink:href="#d" x=".633" y="72.785" style="fill:#000;fill-opacity:1"/><use xlink:href="#e" x="4.867" y="72.785" style="fill:#000;fill-opacity:1"/><use xlink:href="#f" x="7.22" y="72.785" style="fill:#000;fill-opacity:1"/><use xlink:href="#c" x="7.22" y="53.32" style="fill:#000;fill-opacity:1"/><use xlink:href="#c" x=".633" y="33.856" style="fill:#000;fill-opacity:1"/><use xlink:href="#e" x="4.867" y="33.856" style="fill:#000;fill-opacity:1"/><use xlink:href="#f" x="7.22" y="33.856" style="fill:#000;fill-opacity:1"/><use xlink:href="#g" x="7.22" y="14.391" style="fill:#000;fill-opacity:1"/></svg>