<svg xmlns="http://www.w3.org/2000/svg" xmlns:xlink="http://www.w3.org/1999/xlink" width="75.801" height="98.499" viewBox="0 0 56.851 73.874" version="1.2"><defs><symbol overflow="visible" id="a"><path style="stroke:none" d="M4.922 0v-.469h-1.39v-5.734c0-.234 0-.328-.266-.328-.11 0-.125 0-.22.078-.765.562-1.796.562-2 .562H.845v.47h.203c.156 0 .703-.016 1.297-.204v5.156H.954V0c.437-.031 1.5-.031 1.984-.031s1.546 0 1.984.031Zm0 0"/></symbol><symbol overflow="visible" id="b"><path style="stroke:none" d="M5.156-2.219h-.468c-.032.203-.125.844-.266.906-.11.063-.86.063-1.016.063H1.937c.47-.39 1-.813 1.438-1.14 1.14-.844 1.781-1.313 1.781-2.25 0-1.157-1.047-1.891-2.437-1.891-1.219 0-2.156.625-2.156 1.515 0 .594.484.735.718.735C1.61-4.281 2-4.5 2-5c0-.516-.422-.672-.563-.719.282-.234.672-.343 1.032-.343.844 0 1.312.671 1.312 1.421 0 .688-.375 1.375-1.078 2.079l-2 2.046c-.14.11-.14.141-.14.344V0h4.28Zm0 0"/></symbol><symbol overflow="visible" id="c"><path style="stroke:none" d="M1.797 5.25c.547 0 1.406-.297 1.719-1.734.203.687.765 1.406 1.625 1.406.765 0 1.39-.75 1.39-2.156 0-1.188-.64-1.97-1.437-1.97a.678.678 0 0 0-.703.688c0 .454.328.704.687.704.578 0 .688-.547.703-.579.282.344.36.782.36 1.094 0 .828-.641.86-.97.86-.124 0-1.437-.016-1.5-1.047-.015-.407-.015-.438-.03-.485-.016-.094-.11-.125-.172-.125-.172 0-.172.11-.172.282v.437c0 1.094-.985 1.094-1.5 1.094-.469 0-1.484 0-1.484-1.031 0-.266.046-.782.343-1.266C.75 1.75 1 2 1.406 2c.453 0 .75-.313.75-.75 0-.422-.265-.766-.765-.766-.907 0-1.5.97-1.5 2.25 0 1.782 1 2.516 1.906 2.516Zm0 0"/></symbol><symbol overflow="visible" id="d"><path style="stroke:none" d="M-5.406 0v.469h.968v1.094h-.968v.468h.968V6.22c0 .265.016.328.297.328.22 0 .22-.016.344-.172l3.485-4.344v-.469h-2.876V.47h1.11V0c-.375.031-1.281.031-1.703.031-.406 0-1.266 0-1.625-.031Zm2.11 2.031h2.452L-3.297 5.11Zm0 0"/></symbol><symbol overflow="visible" id="e"><path style="stroke:none" d="M-5.156 2c0 1.156.797 2.078 2.265 2.078.282 0 .813-.031 1.282-.344v1.313C-1.891 5-2 4.969-2.33 4.969c-1.452 0-2.374 1.125-2.374 1.375 0 .078.016.187.14.187.032 0 .032 0 .141-.047a4.32 4.32 0 0 1 1.531-.28c.75 0 1.282.202 1.547.28.094.032.094.047.125.047.14 0 .14-.11.14-.265V3.344c0-.172 0-.297-.218-.297-.125 0-.156.031-.219.11-.39.468-.921.562-1.328.562-.89 0-.89-.875-.89-1.672 0-.735 0-1.735 1.187-1.735.25 0 .875.063 1.297.625-.36.016-.656.266-.656.672 0 .532.437.672.672.672.14 0 .671-.094.671-.703 0-.844-.78-1.687-2.015-1.687C-4.172-.11-5.156.78-5.156 2Zm0 0"/></symbol><symbol overflow="visible" id="h"><path style="stroke:none" d="M-2.047-5.25c-1.39 0-2.125 1.016-2.125 2.219 0 .219 0 .781.766 1.203h-.188c-1.14 0-1.562-.219-1.719-.281A1.597 1.597 0 0 1-6.14-3.5c0-.172.032-.516.266-.75.047.36.313.547.61.547.343 0 .624-.235.624-.625s-.265-.625-.64-.625c-.625 0-1.25.422-1.25 1.469 0 1.359.86 3 3.375 3 .781 0 1.578-.079 2.265-.5.766-.47 1-1.22 1-1.922 0-1.375-.812-2.344-2.156-2.344Zm-.015 1.36c1 0 1.75 0 1.75 1.015 0 .516-.391.781-.563.86-.313.156-1.031.156-1.219.156-1.25 0-1.719-.532-1.719-1.079 0-.953.75-.953 1.75-.953Zm0 0"/></symbol><clipPath id="f"><path d="M15 63h30v10.813H15Zm0 0"/></clipPath><clipPath id="g"><path d="M32 46h16v27.813H32Zm0 0"/></clipPath></defs><use xlink:href="#a" x="27.192" y="29.929" style="fill:#000;fill-opacity:1"/><use xlink:href="#b" x="27.192" y="12.921" style="fill:#000;fill-opacity:1"/><path style="fill:none;stroke-width:.3985;stroke-linecap:butt;stroke-linejoin:miter;stroke:#000;stroke-opacity:1;stroke-miterlimit:10" d="M-.002 34.018H17.01" transform="matrix(1 0 0 -1 21.552 35.17)"/><path style="fill:none;stroke-width:.19925;stroke-linecap:butt;stroke-linejoin:miter;stroke:gray;stroke-opacity:1;stroke-miterlimit:10" d="M17.01 34.018V17.01" transform="matrix(1 0 0 -1 21.552 35.17)"/><path style="fill:none;stroke-width:.3985;stroke-linecap:butt;stroke-linejoin:miter;stroke:#000;stroke-opacity:1;stroke-miterlimit:10" d="m17.01 34.018 3.398-8.504-3.398-8.504" transform="matrix(1 0 0 -1 21.552 35.17)"/><path style="fill:none;stroke-width:.19925;stroke-linecap:butt;stroke-linejoin:miter;stroke:gray;stroke-opacity:1;stroke-miterlimit:10" d="M17.01 17.01H-.002M-.002 17.01v17.008" transform="matrix(1 0 0 -1 21.552 35.17)"/><path style="fill:none;stroke-width:.3985;stroke-linecap:butt;stroke-linejoin:miter;stroke:#000;stroke-opacity:1;stroke-miterlimit:10" d="M-.002 17.01-3.4 25.514l3.398 8.504" transform="matrix(1 0 0 -1 21.552 35.17)"/><use xlink:href="#c" x="43.855" y="23.802" style="fill:#000;fill-opacity:1"/><path style="fill:none;stroke-width:.3985;stroke-linecap:butt;stroke-linejoin:miter;stroke:#000;stroke-opacity:1;stroke-miterlimit:10" d="M34.018 17.01V-.002M34.018-.002H17.01" transform="matrix(1 0 0 -1 21.552 35.17)"/><path style="fill:none;stroke-width:.19925;stroke-linecap:butt;stroke-linejoin:miter;stroke:gray;stroke-opacity:1;stroke-miterlimit:10" d="M17.01-.002V17.01" transform="matrix(1 0 0 -1 21.552 35.17)"/><path style="fill:none;stroke-width:.3985;stroke-linecap:butt;stroke-linejoin:miter;stroke:#000;stroke-opacity:1;stroke-miterlimit:10" d="M17.01 17.01h17.008" transform="matrix(1 0 0 -1 21.552 35.17)"/><use xlink:href="#d" x="32.92" y="40.406" style="fill:#000;fill-opacity:1"/><use xlink:href="#e" x="32.92" y="57.474" style="fill:#000;fill-opacity:1"/><path style="fill:none;stroke-width:.19925;stroke-linecap:butt;stroke-linejoin:miter;stroke:gray;stroke-opacity:1;stroke-miterlimit:10" d="M17.01-34.017H-.002" transform="matrix(1 0 0 -1 21.552 35.17)"/><g clip-path="url(#f)"><path style="fill:none;stroke-width:.3985;stroke-linecap:butt;stroke-linejoin:miter;stroke:#000;stroke-opacity:1;stroke-miterlimit:10" d="m17.01-34.017-8.508-3.399-8.504 3.398" transform="matrix(1 0 0 -1 21.552 35.17)"/></g><path style="fill:none;stroke-width:.3985;stroke-linecap:butt;stroke-linejoin:miter;stroke:#000;stroke-opacity:1;stroke-miterlimit:10" d="M-.002-34.017v17.007" transform="matrix(1 0 0 -1 21.552 35.17)"/><path style="fill:none;stroke-width:.19925;stroke-linecap:butt;stroke-linejoin:miter;stroke:gray;stroke-opacity:1;stroke-miterlimit:10" d="M-.002-17.01H17.01M17.01-17.01v-17.007" transform="matrix(1 0 0 -1 21.552 35.17)"/><g clip-path="url(#g)"><path style="fill:none;stroke-width:.3985;stroke-linecap:butt;stroke-linejoin:miter;stroke:#000;stroke-opacity:1;stroke-miterlimit:10" d="m17.01-17.01 3.398-8.504-3.398-8.503" transform="matrix(1 0 0 -1 21.552 35.17)"/></g><path style="fill:none;stroke-width:.19925;stroke-linecap:butt;stroke-linejoin:miter;stroke:gray;stroke-opacity:1;stroke-miterlimit:10" d="M-.002-17.01V-.002" transform="matrix(1 0 0 -1 21.552 35.17)"/><path style="fill:none;stroke-width:.3985;stroke-linecap:butt;stroke-linejoin:miter;stroke:#000;stroke-opacity:1;stroke-miterlimit:10" d="M-.002-17.01-3.4-8.506-.002-.002" transform="matrix(1 0 0 -1 21.552 35.17)"/><path style="fill:none;stroke-width:.19925;stroke-linecap:butt;stroke-linejoin:miter;stroke:gray;stroke-opacity:1;stroke-miterlimit:10" d="M-.002-.002H17.01M17.01-.002V-17.01" transform="matrix(1 0 0 -1 21.552 35.17)"/><path style="fill:none;stroke-width:.3985;stroke-linecap:butt;stroke-linejoin:miter;stroke:#000;stroke-opacity:1;stroke-miterlimit:10" d="m17.01-.002 3.398-8.504-3.398-8.504" transform="matrix(1 0 0 -1 21.552 35.17)"/><use xlink:href="#h" x="16.256" y="29.53" style="fill:#000;fill-opacity:1"/><path style="fill:none;stroke-width:.19925;stroke-linecap:butt;stroke-linejoin:miter;stroke:gray;stroke-opacity:1;stroke-miterlimit:10" d="M-17.01-.002V17.01" transform="matrix(1 0 0 -1 21.552 35.17)"/><path style="fill:none;stroke-width:.3985;stroke-linecap:butt;stroke-linejoin:miter;stroke:#000;stroke-opacity:1;stroke-miterlimit:10" d="m-17.01-.002-3.398 8.508 3.398 8.504M-17.01 17.01H-.002" transform="matrix(1 0 0 -1 21.552 35.17)"/><path style="fill:none;stroke-width:.19925;stroke-linecap:butt;stroke-linejoin:miter;stroke:gray;stroke-opacity:1;stroke-miterlimit:10" d="M-.002 17.01V-.002" transform="matrix(1 0 0 -1 21.552 35.17)"/><path style="fill:none;stroke-width:.3985;stroke-linecap:butt;stroke-linejoin:miter;stroke:#000;stroke-opacity:1;stroke-miterlimit:10" d="M-.002-.002H-17.01" transform="matrix(1 0 0 -1 21.552 35.17)"/></svg>