<svg xmlns="http://www.w3.org/2000/svg" width="159.511" height="161.715" viewBox="0 0 119.633 121.286" version="1.2"><defs><clipPath id="a"><path d="M41 77h51v43.93H41Zm0 0"/></clipPath><clipPath id="b"><path d="M38 80h57v40.93H38Zm0 0"/></clipPath><clipPath id="c"><path d="M48 79h52v41.93H48Zm0 0"/></clipPath><clipPath id="d"><path d="M45 78h55v42.93H45Zm0 0"/></clipPath><clipPath id="e"><path d="M53 79h48v41.93H53Zm0 0"/></clipPath><clipPath id="f"><path d="M54 84h53v36.93H54Zm0 0"/></clipPath><clipPath id="g"><path d="M58 87h53v33.93H58Zm0 0"/></clipPath><clipPath id="h"><path d="M54 87h52v33.93H54Zm0 0"/></clipPath><clipPath id="i"><path d="M57 87h50v33.93H57Zm0 0"/></clipPath><clipPath id="j"><path d="M56 90h56v30.93H56Zm0 0"/></clipPath><clipPath id="k"><path d="M60 86h53v34.93H60Zm0 0"/></clipPath><clipPath id="l"><path d="M62 83h56v37.93H62Zm0 0"/></clipPath><clipPath id="m"><path d="M71 78h48.45v42.93H71Zm0 0"/></clipPath><clipPath id="n"><path d="M78 79h41.45v41.93H78Zm0 0"/></clipPath><clipPath id="o"><path d="M74 76h45.45v44.93H74Zm0 0"/></clipPath><clipPath id="p"><path d="M80 87h39.45v33.93H80Zm0 0"/></clipPath><clipPath id="q"><path d="M89 90h30.45v30.93H89Zm0 0"/></clipPath><clipPath id="r"><path d="M85 87h34.45v33.93H85Zm0 0"/></clipPath><clipPath id="s"><path d="M77 78h42.45v42.93H77Zm0 0"/></clipPath><clipPath id="t"><path d="M64 74h55.45v46.93H64Zm0 0"/></clipPath><clipPath id="u"><path d="M67 68h52.45v52H67Zm0 0"/></clipPath><clipPath id="v"><path d="M65 69h54.45v51.93H65Zm0 0"/></clipPath><clipPath id="w"><path d="M64 69h55.45v51.93H64Zm0 0"/></clipPath><clipPath id="x"><path d="M62 75h54v45.93H62Zm0 0"/></clipPath><clipPath id="y"><path d="M67 71h50v49.93H67Zm0 0"/></clipPath><clipPath id="z"><path d="M61 71h56v49.93H61Zm0 0"/></clipPath><clipPath id="A"><path d="M59 72h53v48.93H59Zm0 0"/></clipPath><clipPath id="B"><path d="M65 73h54.45v47.93H65Zm0 0"/></clipPath><clipPath id="C"><path d="M68 76h51.45v44.93H68Zm0 0"/></clipPath><clipPath id="D"><path d="M76 75h43.45v45.93H76Zm0 0"/></clipPath><clipPath id="E"><path d="M71 75h48.45v45.93H71Zm0 0"/></clipPath><clipPath id="F"><path d="M71 73h48v47.93H71Zm0 0"/></clipPath><clipPath id="G"><path d="M70 65h49v55.93H70Zm0 0"/></clipPath><clipPath id="H"><path d="M73 65h46.45v51H73Zm0 0"/></clipPath><clipPath id="I"><path d="M73 63h46.45v51H73Zm0 0"/></clipPath><clipPath id="J"><path d="M65 57h54.45v52H65Zm0 0"/></clipPath></defs><g clip-path="url(#a)"><path style="fill:none;stroke-width:1.59404;stroke-linecap:round;stroke-linejoin:miter;stroke:#fff;stroke-opacity:1;stroke-miterlimit:10" d="M0 .001s6.524-4.683-2.582-6.879" transform="matrix(1 0 0 -1 66.546 100.052)"/></g><g clip-path="url(#b)"><path style="fill:none;stroke-width:1.59404;stroke-linecap:round;stroke-linejoin:miter;stroke:#fcfcfc;stroke-opacity:1;stroke-miterlimit:10" d="M-2.582-6.878c-9.109-2.195 3.782.73 8.38 3.618" transform="matrix(1 0 0 -1 66.546 100.052)"/></g><g clip-path="url(#c)"><path style="fill:none;stroke-width:1.59404;stroke-linecap:round;stroke-linejoin:miter;stroke:#fafafa;stroke-opacity:1;stroke-miterlimit:10" d="M5.797-3.26c4.594 2.89 8.54.968-.996.917" transform="matrix(1 0 0 -1 66.546 100.052)"/></g><g clip-path="url(#d)"><path style="fill:none;stroke-width:1.59404;stroke-linecap:round;stroke-linejoin:miter;stroke:#f7f7f7;stroke-opacity:1;stroke-miterlimit:10" d="M4.801-2.343c-9.535-.046 7.395 3.23 5.02.762" transform="matrix(1 0 0 -1 66.546 100.052)"/></g><g clip-path="url(#e)"><path style="fill:none;stroke-width:1.59404;stroke-linecap:round;stroke-linejoin:miter;stroke:#f5f5f5;stroke-opacity:1;stroke-miterlimit:10" d="M9.82-1.58c-2.378-2.473 2.348-11.61 1.15-6.028" transform="matrix(1 0 0 -1 66.546 100.052)"/></g><g clip-path="url(#f)"><path style="fill:none;stroke-width:1.59404;stroke-linecap:round;stroke-linejoin:miter;stroke:#f2f2f2;stroke-opacity:1;stroke-miterlimit:10" d="M10.97-7.608c-1.2 5.582 1.245-13.375 6.417-4.79" transform="matrix(1 0 0 -1 66.546 100.052)"/></g><g clip-path="url(#g)"><path style="fill:none;stroke-width:1.59404;stroke-linecap:round;stroke-linejoin:miter;stroke:#f0f0f0;stroke-opacity:1;stroke-miterlimit:10" d="M17.387-12.397c5.172 8.586 6.55-10.09-2.687-6.11" transform="matrix(1 0 0 -1 66.546 100.052)"/></g><g clip-path="url(#h)"><path style="fill:none;stroke-width:1.59404;stroke-linecap:round;stroke-linejoin:miter;stroke:#ededed;stroke-opacity:1;stroke-miterlimit:10" d="M14.7-18.507c-9.235 3.98 1.351 4.059 2.21 8.094" transform="matrix(1 0 0 -1 66.546 100.052)"/></g><g clip-path="url(#i)"><path style="fill:none;stroke-width:1.59404;stroke-linecap:round;stroke-linejoin:miter;stroke:#ebebeb;stroke-opacity:1;stroke-miterlimit:10" d="M16.91-10.413c.856 4.035.754-15.738-3.445-5.785" transform="matrix(1 0 0 -1 66.546 100.052)"/></g><g clip-path="url(#j)"><path style="fill:none;stroke-width:1.59404;stroke-linecap:round;stroke-linejoin:miter;stroke:#e8e8e8;stroke-opacity:1;stroke-miterlimit:10" d="M13.465-16.198c-4.203 9.953 4.832-7.375 9.266 2.336" transform="matrix(1 0 0 -1 66.546 100.052)"/></g><g clip-path="url(#k)"><path style="fill:none;stroke-width:1.59404;stroke-linecap:round;stroke-linejoin:miter;stroke:#e5e5e5;stroke-opacity:1;stroke-miterlimit:10" d="M22.73-13.862c4.43 9.71-12.085.785-4.265-.633" transform="matrix(1 0 0 -1 66.546 100.052)"/></g><g clip-path="url(#l)"><path style="fill:none;stroke-width:1.59404;stroke-linecap:round;stroke-linejoin:miter;stroke:#e3e3e3;stroke-opacity:1;stroke-miterlimit:10" d="M18.465-14.495c7.82-1.422 6.059 7.067 9.516 8.035" transform="matrix(1 0 0 -1 66.546 100.052)"/></g><g clip-path="url(#m)"><path style="fill:none;stroke-width:1.59404;stroke-linecap:round;stroke-linejoin:miter;stroke:#e0e0e0;stroke-opacity:1;stroke-miterlimit:10" d="M27.98-6.46c3.454.973 3.59 8.989 8.923 2.766" transform="matrix(1 0 0 -1 66.546 100.052)"/></g><g clip-path="url(#n)"><path style="fill:none;stroke-width:1.59404;stroke-linecap:round;stroke-linejoin:miter;stroke:#dedede;stroke-opacity:1;stroke-miterlimit:10" d="M36.903-3.694c5.332-6.223 4.468-6.543-2.078 1.637" transform="matrix(1 0 0 -1 66.546 100.052)"/></g><g clip-path="url(#o)"><path style="fill:none;stroke-width:1.59404;stroke-linecap:round;stroke-linejoin:miter;stroke:#dbdbdb;stroke-opacity:1;stroke-miterlimit:10" d="M34.825-2.057c-6.547 8.175-5.508-1.809 1.753-8.422" transform="matrix(1 0 0 -1 66.546 100.052)"/></g><g clip-path="url(#p)"><path style="fill:none;stroke-width:1.59404;stroke-linecap:round;stroke-linejoin:miter;stroke:#d9d9d9;stroke-opacity:1;stroke-miterlimit:10" d="M36.578-10.48c7.258-6.613-.957-9.55 8.458-7.167" transform="matrix(1 0 0 -1 66.546 100.052)"/></g><g clip-path="url(#q)"><path style="fill:none;stroke-width:1.59404;stroke-linecap:round;stroke-linejoin:miter;stroke:#d6d6d6;stroke-opacity:1;stroke-miterlimit:10" d="M45.036-17.647c9.414 2.383 5.78.242 2.886 4.828" transform="matrix(1 0 0 -1 66.546 100.052)"/></g><g clip-path="url(#r)"><path style="fill:none;stroke-width:1.59404;stroke-linecap:round;stroke-linejoin:miter;stroke:#d4d4d4;stroke-opacity:1;stroke-miterlimit:10" d="M47.922-12.82c-2.898 4.583.907 1.446-6.832 2.556" transform="matrix(1 0 0 -1 66.546 100.052)"/></g><g clip-path="url(#s)"><path style="fill:none;stroke-width:1.59404;stroke-linecap:round;stroke-linejoin:miter;stroke:#d1d1d1;stroke-opacity:1;stroke-miterlimit:10" d="M41.09-10.264C33.356-9.16 34.13.372 33.028-1.362" transform="matrix(1 0 0 -1 66.546 100.052)"/></g><g clip-path="url(#t)"><path style="fill:none;stroke-width:1.59404;stroke-linecap:round;stroke-linejoin:miter;stroke:#cfcfcf;stroke-opacity:1;stroke-miterlimit:10" d="M33.028-1.362C31.93-3.096 14.594 3.15 23.219 3.056" transform="matrix(1 0 0 -1 66.546 100.052)"/></g><g clip-path="url(#u)"><path style="fill:none;stroke-width:1.59404;stroke-linecap:round;stroke-linejoin:miter;stroke:#ccc;stroke-opacity:1;stroke-miterlimit:10" d="M23.22 3.056c8.628-.09 6.882 9.887 8.593 5.043" transform="matrix(1 0 0 -1 66.546 100.052)"/></g><g clip-path="url(#v)"><path style="fill:none;stroke-width:1.59404;stroke-linecap:round;stroke-linejoin:miter;stroke:#c9c9c9;stroke-opacity:1;stroke-miterlimit:10" d="M31.813 8.099C33.523 3.259 15.113-3 24.067 6" transform="matrix(1 0 0 -1 66.546 100.052)"/></g><path style="fill:none;stroke-width:1.59404;stroke-linecap:round;stroke-linejoin:miter;stroke:#c7c7c7;stroke-opacity:1;stroke-miterlimit:10" d="M24.067 6.001c8.949 9.004-.086 4.672.324 8.692" transform="matrix(1 0 0 -1 66.546 100.052)"/><path style="fill:none;stroke-width:1.59404;stroke-linecap:round;stroke-linejoin:miter;stroke:#c4c4c4;stroke-opacity:1;stroke-miterlimit:10" d="M24.391 14.693c.406 4.02-8.687-12.895-4.176-8.422" transform="matrix(1 0 0 -1 66.546 100.052)"/><g clip-path="url(#w)"><path style="fill:none;stroke-width:1.59404;stroke-linecap:round;stroke-linejoin:miter;stroke:#c2c2c2;stroke-opacity:1;stroke-miterlimit:10" d="M20.215 6.27c4.512 4.473 15.356-1.448 6.196-9.128" transform="matrix(1 0 0 -1 66.546 100.052)"/></g><g clip-path="url(#x)"><path style="fill:none;stroke-width:1.59404;stroke-linecap:round;stroke-linejoin:miter;stroke:#bfbfbf;stroke-opacity:1;stroke-miterlimit:10" d="M26.41-2.858c-9.156-7.684-10.285-3.016-2.726 5.023" transform="matrix(1 0 0 -1 66.546 100.052)"/></g><g clip-path="url(#y)"><path style="fill:none;stroke-width:1.59404;stroke-linecap:round;stroke-linejoin:miter;stroke:#bdbdbd;stroke-opacity:1;stroke-miterlimit:10" d="M23.684 2.165c7.559 8.043.48 1.883 2.914 3.864" transform="matrix(1 0 0 -1 66.546 100.052)"/></g><g clip-path="url(#z)"><path style="fill:none;stroke-width:1.59404;stroke-linecap:round;stroke-linejoin:miter;stroke:#bababa;stroke-opacity:1;stroke-miterlimit:10" d="M26.598 6.029c2.438 1.976-1.145-4.54-8.977-5.793" transform="matrix(1 0 0 -1 66.546 100.052)"/></g><g clip-path="url(#A)"><path style="fill:none;stroke-width:1.59404;stroke-linecap:round;stroke-linejoin:miter;stroke:#b8b8b8;stroke-opacity:1;stroke-miterlimit:10" d="M17.621.236c-7.832-1.254 5.676 8.64 4.403 3.296" transform="matrix(1 0 0 -1 66.546 100.052)"/></g><g clip-path="url(#B)"><path style="fill:none;stroke-width:1.59404;stroke-linecap:round;stroke-linejoin:miter;stroke:#b5b5b5;stroke-opacity:1;stroke-miterlimit:10" d="M22.024 3.532C20.75-1.81 37.032 4.677 29.02.697" transform="matrix(1 0 0 -1 66.546 100.052)"/></g><g clip-path="url(#C)"><path style="fill:none;stroke-width:1.59404;stroke-linecap:round;stroke-linejoin:miter;stroke:#b2b2b2;stroke-opacity:1;stroke-miterlimit:10" d="M29.02.697c-8.012-3.985-3.59-.528 3.215-.98" transform="matrix(1 0 0 -1 66.546 100.052)"/></g><g clip-path="url(#D)"><path style="fill:none;stroke-width:1.59404;stroke-linecap:round;stroke-linejoin:miter;stroke:#b0b0b0;stroke-opacity:1;stroke-miterlimit:10" d="M32.235-.284c6.808-.453-.004 6.793 2.054-1.445" transform="matrix(1 0 0 -1 66.546 100.052)"/></g><g clip-path="url(#E)"><path style="fill:none;stroke-width:1.59404;stroke-linecap:round;stroke-linejoin:miter;stroke:#adadad;stroke-opacity:1;stroke-miterlimit:10" d="M34.29-1.73c2.058-8.238-7.844-1.929-6.977 4.102" transform="matrix(1 0 0 -1 66.546 100.052)"/></g><g clip-path="url(#F)"><path style="fill:none;stroke-width:1.59404;stroke-linecap:round;stroke-linejoin:miter;stroke:#ababab;stroke-opacity:1;stroke-miterlimit:10" d="M27.313 2.372c.867 6.032 2.926-9.98 2.223-.289" transform="matrix(1 0 0 -1 66.546 100.052)"/></g><g clip-path="url(#G)"><path style="fill:none;stroke-width:1.59404;stroke-linecap:round;stroke-linejoin:miter;stroke:#a8a8a8;stroke-opacity:1;stroke-miterlimit:10" d="M29.536 2.083c-.7 9.692-7.075 11.926-.352 9.492" transform="matrix(1 0 0 -1 66.546 100.052)"/></g><g clip-path="url(#H)"><path style="fill:none;stroke-width:1.59404;stroke-linecap:round;stroke-linejoin:miter;stroke:#a6a6a6;stroke-opacity:1;stroke-miterlimit:10" d="M29.184 11.575c6.723-2.43-.488-8.101 1.203-2.003" transform="matrix(1 0 0 -1 66.546 100.052)"/></g><g clip-path="url(#I)"><path style="fill:none;stroke-width:1.59404;stroke-linecap:round;stroke-linejoin:miter;stroke:#a3a3a3;stroke-opacity:1;stroke-miterlimit:10" d="M30.387 9.572c1.688 6.093-3.48-2.344.781 4.52" transform="matrix(1 0 0 -1 66.546 100.052)"/></g><g clip-path="url(#J)"><path style="fill:none;stroke-width:1.59404;stroke-linecap:round;stroke-linejoin:miter;stroke:#a1a1a1;stroke-opacity:1;stroke-miterlimit:10" d="M31.168 14.091c4.258 6.86-12.324 8.031-9.8 2.102" transform="matrix(1 0 0 -1 66.546 100.052)"/></g><path style="fill:none;stroke-width:1.59404;stroke-linecap:round;stroke-linejoin:miter;stroke:#9e9e9e;stroke-opacity:1;stroke-miterlimit:10" d="M21.368 16.193c2.523-5.93-13.516-6.524-9.672-1.227" transform="matrix(1 0 0 -1 66.546 100.052)"/><path style="fill:none;stroke-width:1.59404;stroke-linecap:round;stroke-linejoin:miter;stroke:#9c9c9c;stroke-opacity:1;stroke-miterlimit:10" d="M11.696 14.966c3.843 5.293 18.59-4.617 9.238 4.406" transform="matrix(1 0 0 -1 66.546 100.052)"/><path style="fill:none;stroke-width:1.59404;stroke-linecap:round;stroke-linejoin:miter;stroke:#999;stroke-opacity:1;stroke-miterlimit:10" d="M20.934 19.372c-9.356 9.02-1.574-7.64-.8-5.058" transform="matrix(1 0 0 -1 66.546 100.052)"/><path style="fill:none;stroke-width:1.59404;stroke-linecap:round;stroke-linejoin:miter;stroke:#969696;stroke-opacity:1;stroke-miterlimit:10" d="M20.133 14.314c.774 2.582-2.902 6.46.012 2.27" transform="matrix(1 0 0 -1 66.546 100.052)"/><path style="fill:none;stroke-width:1.59404;stroke-linecap:round;stroke-linejoin:miter;stroke:#949494;stroke-opacity:1;stroke-miterlimit:10" d="M20.145 16.583c2.914-4.191-8.961 7.899-4.195 5.477" transform="matrix(1 0 0 -1 66.546 100.052)"/><path style="fill:none;stroke-width:1.59404;stroke-linecap:round;stroke-linejoin:miter;stroke:#919191;stroke-opacity:1;stroke-miterlimit:10" d="M15.95 22.06c4.761-2.422-3.98 13.879-7.461 7.242" transform="matrix(1 0 0 -1 66.546 100.052)"/><path style="fill:none;stroke-width:1.59404;stroke-linecap:round;stroke-linejoin:miter;stroke:#8f8f8f;stroke-opacity:1;stroke-miterlimit:10" d="M8.489 29.302c-3.48-6.637 3.957 8.352-1.602 2.457" transform="matrix(1 0 0 -1 66.546 100.052)"/><path style="fill:none;stroke-width:1.59404;stroke-linecap:round;stroke-linejoin:miter;stroke:#8c8c8c;stroke-opacity:1;stroke-miterlimit:10" d="M6.887 31.759c-5.558-5.89 4.668 9.043.067 9.441" transform="matrix(1 0 0 -1 66.546 100.052)"/><path style="fill:none;stroke-width:1.59404;stroke-linecap:round;stroke-linejoin:miter;stroke:#8a8a8a;stroke-opacity:1;stroke-miterlimit:10" d="M6.954 41.2c-4.598.403-8.633-11.945-5.961-6.21" transform="matrix(1 0 0 -1 66.546 100.052)"/><path style="fill:none;stroke-width:1.59404;stroke-linecap:round;stroke-linejoin:miter;stroke:#878787;stroke-opacity:1;stroke-miterlimit:10" d="M.993 34.99c2.675 5.73-4.59-13.04-9.668-6.813" transform="matrix(1 0 0 -1 66.546 100.052)"/><path style="fill:none;stroke-width:1.59404;stroke-linecap:round;stroke-linejoin:miter;stroke:#858585;stroke-opacity:1;stroke-miterlimit:10" d="M-8.675 28.177c-5.079 6.23-9.536 11.05-2.008 4.434" transform="matrix(1 0 0 -1 66.546 100.052)"/><path style="fill:none;stroke-width:1.59404;stroke-linecap:round;stroke-linejoin:miter;stroke:#828282;stroke-opacity:1;stroke-miterlimit:10" d="M-10.683 32.61c7.527-6.617 4.297 3.93-1.453-4.93" transform="matrix(1 0 0 -1 66.546 100.052)"/><path style="fill:none;stroke-width:1.59404;stroke-linecap:round;stroke-linejoin:miter;stroke:gray;stroke-opacity:1;stroke-miterlimit:10" d="M-12.136 27.68c-5.754-8.862 9.824-9.855.273-3.308" transform="matrix(1 0 0 -1 66.546 100.052)"/><path style="fill:none;stroke-width:1.59404;stroke-linecap:round;stroke-linejoin:miter;stroke:#7d7d7d;stroke-opacity:1;stroke-miterlimit:10" d="M-11.863 24.372c-9.55 6.547-7.246-7.64-6.516-7.925" transform="matrix(1 0 0 -1 66.546 100.052)"/><path style="fill:none;stroke-width:1.59404;stroke-linecap:round;stroke-linejoin:miter;stroke:#7a7a7a;stroke-opacity:1;stroke-miterlimit:10" d="M-18.379 16.447c.727-.286-5.035-2.735.235-.836" transform="matrix(1 0 0 -1 66.546 100.052)"/><path style="fill:none;stroke-width:1.59404;stroke-linecap:round;stroke-linejoin:miter;stroke:#787878;stroke-opacity:1;stroke-miterlimit:10" d="M-18.144 15.61c5.27 1.895 3.691-9.726-5.176-.523" transform="matrix(1 0 0 -1 66.546 100.052)"/><path style="fill:none;stroke-width:1.59404;stroke-linecap:round;stroke-linejoin:miter;stroke:#757575;stroke-opacity:1;stroke-miterlimit:10" d="M-23.32 15.087c-8.863 9.203 3.055 9.492 7.254 5.227" transform="matrix(1 0 0 -1 66.546 100.052)"/><path style="fill:none;stroke-width:1.59404;stroke-linecap:round;stroke-linejoin:miter;stroke:#737373;stroke-opacity:1;stroke-miterlimit:10" d="M-16.066 20.314c4.203-4.262 5.523 16.64-4.02 7.84" transform="matrix(1 0 0 -1 66.546 100.052)"/><path style="fill:none;stroke-width:1.59404;stroke-linecap:round;stroke-linejoin:miter;stroke:#707070;stroke-opacity:1;stroke-miterlimit:10" d="M-20.086 28.154c-9.543-8.801-9.968 9.898-6.55 9.8" transform="matrix(1 0 0 -1 66.546 100.052)"/><path style="fill:none;stroke-width:1.59404;stroke-linecap:round;stroke-linejoin:miter;stroke:#6e6e6e;stroke-opacity:1;stroke-miterlimit:10" d="M-26.636 37.954c3.418-.093-3.5-8.12-.137 1.082" transform="matrix(1 0 0 -1 66.546 100.052)"/><path style="fill:none;stroke-width:1.59404;stroke-linecap:round;stroke-linejoin:miter;stroke:#6b6b6b;stroke-opacity:1;stroke-miterlimit:10" d="M-26.773 39.036c3.363 9.203-.457-1.898 1.684-1.043" transform="matrix(1 0 0 -1 66.546 100.052)"/><path style="fill:none;stroke-width:1.59404;stroke-linecap:round;stroke-linejoin:miter;stroke:#696969;stroke-opacity:1;stroke-miterlimit:10" d="M-25.09 37.993c2.141.856-1.156.73 8.282 9.383" transform="matrix(1 0 0 -1 66.546 100.052)"/><path style="fill:none;stroke-width:1.59404;stroke-linecap:round;stroke-linejoin:miter;stroke:#666;stroke-opacity:1;stroke-miterlimit:10" d="M-16.808 47.376c9.437 8.653-4.742 9.578-9.274 9.227" transform="matrix(1 0 0 -1 66.546 100.052)"/><path style="fill:none;stroke-width:1.59404;stroke-linecap:round;stroke-linejoin:miter;stroke:#636363;stroke-opacity:1;stroke-miterlimit:10" d="M-26.082 56.603c-4.53-.352.489-3.719-5.199-9.617" transform="matrix(1 0 0 -1 66.546 100.052)"/><path style="fill:none;stroke-width:1.59404;stroke-linecap:round;stroke-linejoin:miter;stroke:#616161;stroke-opacity:1;stroke-miterlimit:10" d="M-31.28 46.986c-5.692-5.899 12.882.18 3.991-.754" transform="matrix(1 0 0 -1 66.546 100.052)"/><path style="fill:none;stroke-width:1.59404;stroke-linecap:round;stroke-linejoin:miter;stroke:#5e5e5e;stroke-opacity:1;stroke-miterlimit:10" d="M-27.289 46.232c-8.886-.934-15.332 5.39-7.62 6.023" transform="matrix(1 0 0 -1 66.546 100.052)"/><path style="fill:none;stroke-width:1.59404;stroke-linecap:round;stroke-linejoin:miter;stroke:#5c5c5c;stroke-opacity:1;stroke-miterlimit:10" d="M-34.91 52.255c7.715.633-.422-1.062-2.347-7.96" transform="matrix(1 0 0 -1 66.546 100.052)"/><path style="fill:none;stroke-width:1.59404;stroke-linecap:round;stroke-linejoin:miter;stroke:#595959;stroke-opacity:1;stroke-miterlimit:10" d="M-37.257 44.294c-1.922-6.894 11.445-1.008 5.332 4.574" transform="matrix(1 0 0 -1 66.546 100.052)"/><path style="fill:none;stroke-width:1.59404;stroke-linecap:round;stroke-linejoin:miter;stroke:#575757;stroke-opacity:1;stroke-miterlimit:10" d="M-31.925 48.868c-6.118 5.579 8.484 10.407 5.652 2.793" transform="matrix(1 0 0 -1 66.546 100.052)"/><path style="fill:none;stroke-width:1.59404;stroke-linecap:round;stroke-linejoin:miter;stroke:#545454;stroke-opacity:1;stroke-miterlimit:10" d="M-26.273 51.661c-2.832-7.613 6.098-16.347 2.527-9.257" transform="matrix(1 0 0 -1 66.546 100.052)"/><path style="fill:none;stroke-width:1.59404;stroke-linecap:round;stroke-linejoin:miter;stroke:#525252;stroke-opacity:1;stroke-miterlimit:10" d="M-23.746 42.404c-3.57 7.09 1.969 7.035-2.988-2.743" transform="matrix(1 0 0 -1 66.546 100.052)"/><path style="fill:none;stroke-width:1.59404;stroke-linecap:round;stroke-linejoin:miter;stroke:#4f4f4f;stroke-opacity:1;stroke-miterlimit:10" d="M-26.734 39.661c-4.953-9.78-4.453 11.961.629 9.391" transform="matrix(1 0 0 -1 66.546 100.052)"/><path style="fill:none;stroke-width:1.59404;stroke-linecap:round;stroke-linejoin:miter;stroke:#4c4c4c;stroke-opacity:1;stroke-miterlimit:10" d="M-26.105 49.052c5.082-2.566-11.484-14.77-9.156-6.059" transform="matrix(1 0 0 -1 66.546 100.052)"/><path style="fill:none;stroke-width:1.59404;stroke-linecap:round;stroke-linejoin:miter;stroke:#4a4a4a;stroke-opacity:1;stroke-miterlimit:10" d="M-35.261 42.993c2.328 8.711-1.953-2.613 4.257 2.668" transform="matrix(1 0 0 -1 66.546 100.052)"/><path style="fill:none;stroke-width:1.59404;stroke-linecap:round;stroke-linejoin:miter;stroke:#474747;stroke-opacity:1;stroke-miterlimit:10" d="M-31.004 45.661c6.215 5.278-.507 5.871 6.7-1.609" transform="matrix(1 0 0 -1 66.546 100.052)"/><path style="fill:none;stroke-width:1.59404;stroke-linecap:round;stroke-linejoin:miter;stroke:#454545;stroke-opacity:1;stroke-miterlimit:10" d="M-24.304 44.052c7.21-7.48-1.692 8.883 2.535 7.684" transform="matrix(1 0 0 -1 66.546 100.052)"/><path style="fill:none;stroke-width:1.59404;stroke-linecap:round;stroke-linejoin:miter;stroke:#424242;stroke-opacity:1;stroke-miterlimit:10" d="M-21.77 51.736c4.223-1.2 6.477 2.707 2.356 7.828" transform="matrix(1 0 0 -1 66.546 100.052)"/><path style="fill:none;stroke-width:1.59404;stroke-linecap:round;stroke-linejoin:miter;stroke:#404040;stroke-opacity:1;stroke-miterlimit:10" d="M-19.414 59.564c-4.125 5.12 7.078-5.11.512-3.453" transform="matrix(1 0 0 -1 66.546 100.052)"/><path style="fill:none;stroke-width:1.59404;stroke-linecap:round;stroke-linejoin:miter;stroke:#3d3d3d;stroke-opacity:1;stroke-miterlimit:10" d="M-18.902 56.11c-6.562 1.657-13.434 5.297-8.36-1.824" transform="matrix(1 0 0 -1 66.546 100.052)"/><path style="fill:none;stroke-width:1.59404;stroke-linecap:round;stroke-linejoin:miter;stroke:#3b3b3b;stroke-opacity:1;stroke-miterlimit:10" d="M-27.261 54.286c5.074-7.12 2.496-.355 4.484 9.348" transform="matrix(1 0 0 -1 66.546 100.052)"/><path style="fill:none;stroke-width:1.59404;stroke-linecap:round;stroke-linejoin:miter;stroke:#383838;stroke-opacity:1;stroke-miterlimit:10" d="M-22.777 63.634c1.988 9.703 6.07-2.539 6.145.113" transform="matrix(1 0 0 -1 66.546 100.052)"/><path style="fill:none;stroke-width:1.59404;stroke-linecap:round;stroke-linejoin:miter;stroke:#363636;stroke-opacity:1;stroke-miterlimit:10" d="M-16.632 63.747c.074 2.649 10.574 3.442 9.25 1" transform="matrix(1 0 0 -1 66.546 100.052)"/><path style="fill:none;stroke-width:1.59404;stroke-linecap:round;stroke-linejoin:miter;stroke:#333;stroke-opacity:1;stroke-miterlimit:10" d="M-7.382 64.747c-1.325-2.441-9.356 13.196-4.47 7.852" transform="matrix(1 0 0 -1 66.546 100.052)"/><path style="fill:none;stroke-width:1.59404;stroke-linecap:round;stroke-linejoin:miter;stroke:#303030;stroke-opacity:1;stroke-miterlimit:10" d="M-11.851 72.599c4.887-5.34-5.313-5.102-7.13 1.433" transform="matrix(1 0 0 -1 66.546 100.052)"/><path style="fill:none;stroke-width:1.59404;stroke-linecap:round;stroke-linejoin:miter;stroke:#2e2e2e;stroke-opacity:1;stroke-miterlimit:10" d="M-18.98 74.032c-1.82 6.532-2.016 2.836-8.82-1.652" transform="matrix(1 0 0 -1 66.546 100.052)"/><path style="fill:none;stroke-width:1.59404;stroke-linecap:round;stroke-linejoin:miter;stroke:#2b2b2b;stroke-opacity:1;stroke-miterlimit:10" d="M-27.8 72.38c-6.801-4.488 1.855 9.438-4.09 2.985" transform="matrix(1 0 0 -1 66.546 100.052)"/><path style="fill:none;stroke-width:1.59404;stroke-linecap:round;stroke-linejoin:miter;stroke:#292929;stroke-opacity:1;stroke-miterlimit:10" d="M-31.89 75.365c-5.946-6.454-.137 7.949 3.601 7.812" transform="matrix(1 0 0 -1 66.546 100.052)"/><path style="fill:none;stroke-width:1.59404;stroke-linecap:round;stroke-linejoin:miter;stroke:#262626;stroke-opacity:1;stroke-miterlimit:10" d="M-28.289 83.177c3.739-.137-3.988-7.914-8.336-6.309" transform="matrix(1 0 0 -1 66.546 100.052)"/><path style="fill:none;stroke-width:1.59404;stroke-linecap:round;stroke-linejoin:miter;stroke:#242424;stroke-opacity:1;stroke-miterlimit:10" d="M-36.625 76.868c-4.351 1.61-10.547 6.84-7.972.18" transform="matrix(1 0 0 -1 66.546 100.052)"/><path style="fill:none;stroke-width:1.59404;stroke-linecap:round;stroke-linejoin:miter;stroke:#212121;stroke-opacity:1;stroke-miterlimit:10" d="M-44.597 77.048c2.574-6.656-13.953 12.164-5.774 3.899" transform="matrix(1 0 0 -1 66.546 100.052)"/><path style="fill:none;stroke-width:1.59404;stroke-linecap:round;stroke-linejoin:miter;stroke:#1f1f1f;stroke-opacity:1;stroke-miterlimit:10" d="M-50.37 80.947c8.179-8.27-7.981 15.546-.602 6.128" transform="matrix(1 0 0 -1 66.546 100.052)"/><path style="fill:none;stroke-width:1.59404;stroke-linecap:round;stroke-linejoin:miter;stroke:#1c1c1c;stroke-opacity:1;stroke-miterlimit:10" d="M-50.972 87.075c7.379-9.418-6.086-6.812 3.293 2.477" transform="matrix(1 0 0 -1 66.546 100.052)"/><path style="fill:none;stroke-width:1.59404;stroke-linecap:round;stroke-linejoin:miter;stroke:#191919;stroke-opacity:1;stroke-miterlimit:10" d="M-47.68 89.552c9.383 9.29-1.945-.496 5.708 6.605" transform="matrix(1 0 0 -1 66.546 100.052)"/><path style="fill:none;stroke-width:1.59404;stroke-linecap:round;stroke-linejoin:miter;stroke:#171717;stroke-opacity:1;stroke-miterlimit:10" d="M-41.972 96.157c7.652 7.098-5.153-2.832-1.45-9.335" transform="matrix(1 0 0 -1 66.546 100.052)"/><path style="fill:none;stroke-width:1.59404;stroke-linecap:round;stroke-linejoin:miter;stroke:#141414;stroke-opacity:1;stroke-miterlimit:10" d="M-43.422 86.822c3.704-6.504-11.769-.852-3.398.043" transform="matrix(1 0 0 -1 66.546 100.052)"/><path style="fill:none;stroke-width:1.59404;stroke-linecap:round;stroke-linejoin:miter;stroke:#121212;stroke-opacity:1;stroke-miterlimit:10" d="M-46.82 86.865c8.367.89-2.23 1.457-.477-7.817" transform="matrix(1 0 0 -1 66.546 100.052)"/><path style="fill:none;stroke-width:1.59404;stroke-linecap:round;stroke-linejoin:miter;stroke:#0f0f0f;stroke-opacity:1;stroke-miterlimit:10" d="M-47.297 79.048c1.758-9.27.2-.23-8.757-8.594" transform="matrix(1 0 0 -1 66.546 100.052)"/><path style="fill:none;stroke-width:1.59404;stroke-linecap:round;stroke-linejoin:miter;stroke:#0d0d0d;stroke-opacity:1;stroke-miterlimit:10" d="M-56.054 70.454c-8.957-8.363-7.93 7.696-7.063 4.118" transform="matrix(1 0 0 -1 66.546 100.052)"/><path style="fill:none;stroke-width:1.59404;stroke-linecap:round;stroke-linejoin:miter;stroke:#0a0a0a;stroke-opacity:1;stroke-miterlimit:10" d="M-63.117 74.572c.867-3.582 16.656-9.461 7.16-1.891" transform="matrix(1 0 0 -1 66.546 100.052)"/><path style="fill:none;stroke-width:1.59404;stroke-linecap:round;stroke-linejoin:miter;stroke:#080808;stroke-opacity:1;stroke-miterlimit:10" d="M-55.957 72.68c-9.492 7.567-3.89 5.204-4.234 3.067" transform="matrix(1 0 0 -1 66.546 100.052)"/><path style="fill:none;stroke-width:1.59404;stroke-linecap:round;stroke-linejoin:miter;stroke:#050505;stroke-opacity:1;stroke-miterlimit:10" d="M-60.191 75.747c-.344-2.14-3.922-3.492 6.02-5.597" transform="matrix(1 0 0 -1 66.546 100.052)"/><path style="fill:none;stroke-width:1.59404;stroke-linecap:round;stroke-linejoin:miter;stroke:#030303;stroke-opacity:1;stroke-miterlimit:10" d="M-54.172 70.15c9.946-2.102-4.664-3.106-4.101-3.618" transform="matrix(1 0 0 -1 66.546 100.052)"/><path style="fill:none;stroke-width:1.59404;stroke-linecap:round;stroke-linejoin:miter;stroke:#000;stroke-opacity:1;stroke-miterlimit:10" d="M-58.273 66.532c.562-.515-9.215 2.954-6.004-6.511" transform="matrix(1 0 0 -1 66.546 100.052)"/></svg>