<svg xmlns="http://www.w3.org/2000/svg" width="70.776" height="85.827" viewBox="0 0 53.082 64.37" version="1.2"><defs><clipPath id="a"><path d="M37 14h15.621v21H37Zm0 0"/></clipPath><clipPath id="b"><path d="M37 28h15.621v21H37Zm0 0"/></clipPath><clipPath id="c"><path d="M33 0h19.621v22H33Zm0 0"/></clipPath></defs><path style="fill:none;stroke-width:.3985;stroke-linecap:butt;stroke-linejoin:miter;stroke:#000;stroke-opacity:1;stroke-miterlimit:10" d="m-13.427-16.886-4.37-8.746M-20.513-31.062l-4.37-8.742M-27.599-45.234l-4.37-8.746" transform="matrix(1 0 0 -1 36.712 3.52)"/><g clip-path="url(#a)"><path style="fill:none;stroke-width:.3985;stroke-linecap:butt;stroke-linejoin:miter;stroke:#000;stroke-opacity:1;stroke-miterlimit:10" d="m10.71-16.886-4.371-8.746" transform="matrix(1 0 0 -1 36.712 3.52)"/></g><path style="fill:none;stroke-width:.3985;stroke-linecap:butt;stroke-linejoin:miter;stroke:#000;stroke-opacity:1;stroke-miterlimit:10" d="m-3.462-45.234-4.371-8.746M-.747-45.234l4.37-8.746M3.624-31.062l-4.371-8.742" transform="matrix(1 0 0 -1 36.712 3.52)"/><g clip-path="url(#b)"><path style="fill:none;stroke-width:.3985;stroke-linecap:butt;stroke-linejoin:miter;stroke:#000;stroke-opacity:1;stroke-miterlimit:10" d="m6.339-31.062 4.37-8.742" transform="matrix(1 0 0 -1 36.712 3.52)"/></g><path style="fill:none;stroke-width:.3985;stroke-linecap:butt;stroke-linejoin:miter;stroke:#000;stroke-opacity:1;stroke-miterlimit:10" d="m-1.966-2.308-8.137-9.555" transform="matrix(1 0 0 -1 36.712 3.52)"/><g clip-path="url(#c)"><path style="fill:none;stroke-width:.3985;stroke-linecap:butt;stroke-linejoin:miter;stroke:#000;stroke-opacity:1;stroke-miterlimit:10" d="m1.968-2.308 8.133-9.555" transform="matrix(1 0 0 -1 36.712 3.52)"/></g><path style="stroke:none;fill-rule:nonzero;fill:#000;fill-opacity:1" d="M39.547 3.52A2.836 2.836 0 0 0 36.71.684a2.832 2.832 0 0 0-2.832 2.836 2.832 2.832 0 0 0 2.832 2.835 2.836 2.836 0 0 0 2.836-2.835ZM27.48 17.691a2.835 2.835 0 0 0-2.835-2.832 2.835 2.835 0 1 0 2.835 2.832ZM20.395 31.867a2.836 2.836 0 1 0-5.672 0 2.835 2.835 0 0 0 2.836 2.832 2.835 2.835 0 0 0 2.836-2.832ZM13.305 46.04a2.835 2.835 0 1 0-2.832 2.835 2.835 2.835 0 0 0 2.832-2.836ZM6.219 60.21a2.832 2.832 0 0 0-2.832-2.831A2.832 2.832 0 0 0 .55 60.21a2.835 2.835 0 1 0 5.668 0ZM51.613 17.691a2.834 2.834 0 1 0-5.668.004 2.834 2.834 0 0 0 5.668-.004ZM44.527 31.867a2.835 2.835 0 1 0-5.668 0 2.835 2.835 0 0 0 5.668 0ZM37.441 46.04a2.835 2.835 0 1 0-5.668 0 2.835 2.835 0 1 0 5.668 0ZM30.355 60.21a2.832 2.832 0 0 0-2.835-2.831 2.832 2.832 0 0 0-2.836 2.832 2.836 2.836 0 1 0 5.671 0ZM44.527 60.21a2.832 2.832 0 0 0-2.832-2.831 2.832 2.832 0 0 0-2.836 2.832 2.835 2.835 0 1 0 5.668 0ZM51.613 46.04a2.835 2.835 0 1 0-2.832 2.835 2.835 2.835 0 0 0 2.832-2.836Zm0 0"/></svg>