<svg xmlns="http://www.w3.org/2000/svg" width="134.36" height="149.523" viewBox="0 0 100.77 112.142" version="1.2"><defs><clipPath id="a"><path d="M30 82h41v29.715H30Zm0 0"/></clipPath></defs><path style="fill-rule:nonzero;fill:#ccf;fill-opacity:1;stroke-width:.79701;stroke-linecap:butt;stroke-linejoin:miter;stroke:#8080ff;stroke-opacity:1;stroke-miterlimit:10" d="M8.503-.001c0 4.699-3.808 8.504-8.503 8.504A8.503 8.503 0 0 1-8.504-.001 8.506 8.506 0 0 1 0-8.505 8.506 8.506 0 0 1 8.503-.001ZM8.503-46.154c0 4.7-3.808 8.504-8.503 8.504a8.503 8.503 0 0 1-8.504-8.504A8.506 8.506 0 0 1 0-54.657a8.506 8.506 0 0 1 8.503 8.503Zm0 0" transform="matrix(1 0 0 -1 50.27 9.491)"/><path style="stroke:none;fill-rule:nonzero;fill:#ccf;fill-opacity:1" d="M58.773 101.793a8.506 8.506 0 0 0-8.503-8.504 8.506 8.506 0 0 0-8.504 8.504c0 4.7 3.808 8.504 8.504 8.504a8.503 8.503 0 0 0 8.503-8.504Zm0 0"/><g clip-path="url(#a)"><path style="fill:none;stroke-width:.79701;stroke-linecap:butt;stroke-linejoin:miter;stroke:#8080ff;stroke-opacity:1;stroke-miterlimit:10" d="M8.503-92.302A8.506 8.506 0 0 1 0-83.798a8.506 8.506 0 0 1-8.504-8.504c0-4.7 3.808-8.504 8.504-8.504a8.503 8.503 0 0 1 8.503 8.504Zm0 0" transform="matrix(1 0 0 -1 50.27 9.491)"/></g><path style="fill-rule:nonzero;fill:#ccc;fill-opacity:1;stroke-width:.79701;stroke-linecap:butt;stroke-linejoin:miter;stroke:gray;stroke-opacity:1;stroke-miterlimit:10" d="M37.648-51.822h11.34v11.34h-11.34ZM-48.985-51.822h11.336v11.34h-11.336Zm0 0" transform="matrix(1 0 0 -1 50.27 9.491)"/></svg>