<svg xmlns="http://www.w3.org/2000/svg" width="116.341" height="97.587" viewBox="0 0 87.256 73.19" version="1.2"><path style="fill:none;stroke-width:.19925;stroke-linecap:butt;stroke-linejoin:miter;stroke:gray;stroke-opacity:1;stroke-miterlimit:10" d="M.001-.002h85.04M0 28.346h85.04M0 56.682h85.04M0-.002v56.696M28.345-.002v56.696M56.693-.002v56.696M85.029-.002v56.696" transform="matrix(1 0 0 -1 .737 71.678)"/><path style="fill:none;stroke-width:.3985;stroke-linecap:butt;stroke-linejoin:miter;stroke:#000;stroke-opacity:1;stroke-miterlimit:10" d="M42.52 28.346c0 7.828-6.347 14.176-14.175 14.176-7.824 0-14.172-6.348-14.172-14.176s6.348-14.172 14.172-14.172c7.828 0 14.176 6.344 14.176 14.172Zm28.348 28.348c0 7.828-6.347 14.171-14.175 14.171S42.52 64.522 42.52 56.694c0-7.829 6.344-14.172 14.172-14.172s14.175 6.343 14.175 14.172Zm0 0" transform="matrix(1 0 0 -1 .737 71.678)"/><path style="fill:none;stroke-width:.3985;stroke-linecap:butt;stroke-linejoin:miter;stroke:#000;stroke-opacity:1;stroke-miterlimit:10" d="M14.173 14.174v56.692h56.695V14.173Zm0 0" transform="matrix(1 0 0 -1 .737 71.678)"/><path style="fill:none;stroke-width:.3985;stroke-linecap:butt;stroke-linejoin:miter;stroke:red;stroke-opacity:1;stroke-miterlimit:10" d="M42.52 42.522v28.343h28.348V42.522Zm0 0" transform="matrix(1 0 0 -1 .737 71.678)"/></svg>