<svg xmlns="http://www.w3.org/2000/svg" xmlns:xlink="http://www.w3.org/1999/xlink" width="118.18" height="127.419" viewBox="0 0 88.635 95.564" version="1.2"><defs><symbol overflow="visible" id="a"><path style="stroke:none" d="M3.188 0v-.328H2.28V-3.11c0-.157-.015-.188-.187-.188H2c-.438.328-1.078.328-1.188.328h-.14v.328h.14c.063 0 .438 0 .813-.125v2.438H.719V0c.25-.016.953-.016 1.234-.016s1 0 1.234.016Zm0 0"/></symbol><symbol overflow="visible" id="b"><path style="stroke:none" d="M3.328-1.047h-.406c-.031.188-.11.313-.156.328-.11.016-.329.016-.5.016H1.53c.313-.203.61-.39.828-.516.563-.312.97-.531.97-1.047 0-.625-.563-1.03-1.548-1.03-.234 0-1.343 0-1.343.733 0 .297.25.422.421.422.188 0 .407-.14.407-.406 0-.187-.11-.297-.125-.312.171-.094.359-.094.468-.094.5 0 .938.234.938.687 0 .391-.313.688-.625.907L.532-.344C.436-.28.436-.266.436-.156V0h2.704Zm0 0"/></symbol><symbol overflow="visible" id="c"><path style="stroke:none" d="M3.39-.906c0-.438-.406-.735-.89-.844.297-.094.688-.344.688-.813 0-.406-.454-.734-1.344-.734-.797 0-1.25.344-1.25.797 0 .281.219.422.39.422a.394.394 0 0 0 .407-.406c0-.25-.188-.36-.188-.36.203-.14.453-.172.625-.172.484 0 .594.204.594.454 0 .203-.125.656-.735.671-.046 0-.265.016-.312.016-.078.016-.078.11-.078.14 0 .141.078.141.172.141h.343c.672 0 .72.407.72.688 0 .25-.032.687-.72.687-.109 0-.484-.015-.75-.172A.436.436 0 0 0 1.25-.75a.427.427 0 0 0-.438-.438c-.25 0-.421.172-.421.438 0 .5.484.828 1.437.828 1.234 0 1.563-.594 1.563-.984Zm0 0"/></symbol><symbol overflow="visible" id="d"><path style="stroke:none" d="M3.5 0v-.328h-.656v-.438H3.5v-.343h-.656v-2.032c0-.156-.031-.187-.188-.187h-.36c-.124 0-.155 0-.202.078L.28-1.11v.344h1.86v.438h-.704V0c.235-.016.766-.016 1.047-.016.266 0 .75 0 1.016.016ZM2.219-1.11h-1.5l1.5-1.78Zm0 0"/></symbol><symbol overflow="visible" id="e"><path style="stroke:none" d="M3.328-1c0-.5-.39-1.063-1.39-1.063a1.79 1.79 0 0 0-.782.157v-.547c.188.031.407.031.407.031A1.94 1.94 0 0 0 2.968-3c.078-.078.078-.078.078-.156 0-.031 0-.14-.11-.14 0 0-.015 0-.046.015-.204.047-.547.14-1.016.14-.344 0-.672-.046-1-.14-.047-.016-.063-.016-.078-.016-.11 0-.11.11-.11.188v1.5c0 .156.032.187.188.187.11 0 .11 0 .203-.094.078-.062.281-.28.828-.28.657 0 .657.468.657.765s0 .812-.844.812c-.078 0-.453 0-.688-.203a.39.39 0 0 0 .203-.344.4.4 0 0 0-.39-.406c-.188 0-.406.125-.406.406 0 .485.5.844 1.296.844C2.844.078 3.328-.453 3.328-1Zm0 0"/></symbol><symbol overflow="visible" id="f"><path style="stroke:none" d="M3.39-1.031c0-.657-.546-1.094-1.374-1.094-.329 0-.641.14-.844.406.016-.453.031-.718.281-.984.14-.156.438-.313.828-.313.047 0 .219 0 .36.094-.047.016-.172.125-.172.313a.36.36 0 0 0 .375.375c.156 0 .36-.11.36-.375 0-.25-.126-.688-.923-.688-1.11 0-1.89.64-1.89 1.703C.39-.53.875.078 1.906.078c.313 0 .657-.015 1-.25.266-.172.485-.406.485-.86Zm-.78 0c0 .406 0 .812-.704.812-.656 0-.718-.484-.718-.875 0-.375.265-.75.765-.75.656 0 .656.39.656.813Zm0 0"/></symbol><symbol overflow="visible" id="g"><path style="stroke:none" d="M3.594-3.203H2.359L1.266-3.22c-.125 0-.141-.062-.157-.11H.703L.484-2.155h.422a.685.685 0 0 1 .11-.297c.03-.031.03-.031.078-.031.125-.016.343-.016.515-.016h.907c-.36.328-.485.438-.641.656-.5.657-.563 1.25-.563 1.516 0 .39.329.406.375.406.157 0 .235-.062.266-.094.11-.109.11-.234.11-.328.015-1.203.343-1.515.671-1.812l.313-.281.5-.47c.015-.015.031-.03.047-.062v-.234Zm0 0"/></symbol><symbol overflow="visible" id="h"><path style="stroke:none" d="M3.39-.922c0-.39-.265-.703-.765-.906.453-.203.563-.469.563-.703 0-.719-.876-.766-1.282-.766-.547 0-1.312.156-1.312.906 0 .407.328.641.5.735-.375.14-.703.375-.703.843 0 .844.968.891 1.484.891.25 0 1.516 0 1.516-1Zm-.703-1.594c0 .235-.156.407-.437.516l-.703-.313c-.344-.156-.453-.203-.453-.359 0-.219.172-.344.765-.344.313 0 .829.047.829.5Zm.126 1.844c0 .281-.22.453-.907.453-.39 0-.937-.078-.937-.594 0-.312.187-.515.547-.656l.984.438c.031 0 .313.125.313.36Zm0 0"/></symbol></defs><path style="stroke:none;fill-rule:nonzero;fill:#8080ff;fill-opacity:1" d="M9.332 51.813V17.797h8.504v34.016Zm0 0"/><use xlink:href="#a" x="7.444" y="27.949" style="fill:#000;fill-opacity:1"/><path style="stroke:none;fill-rule:nonzero;fill:#8080ff;fill-opacity:1" d="M43.348 26.3v-8.503h17.007V26.3Zm0 0"/><use xlink:href="#b" x="49.962" y="27.949" style="fill:#000;fill-opacity:1"/><path style="stroke:none;fill-rule:nonzero;fill:#8080ff;fill-opacity:1" d="M60.355 43.309V26.3h8.504v17.008Zm0 0"/><use xlink:href="#c" x="66.971" y="27.906" style="fill:#000;fill-opacity:1"/><path style="stroke:none;fill-rule:nonzero;fill:#8080ff;fill-opacity:1" d="M77.363 34.805V.789h8.504v34.016Zm0 0"/><use xlink:href="#d" x="83.978" y="27.969" style="fill:#000;fill-opacity:1"/><path style="stroke:none;fill-rule:nonzero;fill:#8080ff;fill-opacity:1" d="M.828 85.828v-8.504h42.52v8.504Zm0 0"/><use xlink:href="#e" x="7.444" y="87.434" style="fill:#000;fill-opacity:1"/><path style="stroke:none;fill-rule:nonzero;fill:#8080ff;fill-opacity:1" d="M51.852 94.336V77.324h8.503v17.012Zm0 0"/><use xlink:href="#f" x="49.962" y="87.434" style="fill:#000;fill-opacity:1"/><path style="stroke:none;fill-rule:nonzero;fill:#8080ff;fill-opacity:1" d="M68.86 85.828V51.812h8.503v34.016Zm0 0"/><use xlink:href="#g" x="66.971" y="87.449" style="fill:#000;fill-opacity:1"/><path style="stroke:none;fill-rule:nonzero;fill:#8080ff;fill-opacity:1" d="M77.363 94.336v-8.508h8.504v8.508Zm0 0"/><use xlink:href="#h" x="83.978" y="87.434" style="fill:#000;fill-opacity:1"/></svg>