<svg xmlns="http://www.w3.org/2000/svg" width="146.841" height="119.715" viewBox="0 0 110.131 89.786" version="1.2"><defs><clipPath id="a"><path d="M0 0h109.695v89.68H0Zm0 0"/></clipPath></defs><g clip-path="url(#a)"><path style="fill:none;stroke-width:.3985;stroke-linecap:butt;stroke-linejoin:miter;stroke:#000;stroke-opacity:1;stroke-miterlimit:10" d="m0 0 1.496 9.806 1.496 9.289 1.496 8.285 1.496 6.863 1.497 5.117 1.496 3.16 1.496 1.121 1.496-.87 1.496-2.684 1.496-4.2 1.496-5.331 1.496-6.008 1.496-6.196 1.496-5.886 1.496-5.13 1.497-3.968L25.434.856 26.93.001l1.496.855 1.496 2.512 1.496 3.969 1.496 5.129 1.496 5.886 1.496 6.196 1.496 6.008 1.496 5.332 1.497 4.199 1.496 2.683 1.492.871 1.496-1.12 1.496-3.16 1.496-5.118 1.496-6.863 1.496-8.285 1.496-9.29L53.855.002l1.497-9.809 1.496-9.289 1.496-8.285 1.496-6.863 1.496-5.117 1.496-3.157 1.496-1.12 1.496.87 1.496 2.68 1.496 4.2 1.497 5.331 1.496 6.008 1.496 6.195 1.496 5.891 1.496 5.129 1.496 3.969L79.289-.86l1.496.86 1.496-.86 1.496-2.507 1.496-3.97 1.497-5.128 1.496-5.89 1.496-6.196 1.496-6.008 1.496-5.332 1.496-4.199 1.496-2.68 1.496-.87 1.496 1.12 1.496 3.157 1.497 5.117 1.496 6.863 1.496 8.285 1.496 9.29L107.715 0" transform="matrix(1 0 0 -1 .77 44.786)"/></g></svg>