<svg xmlns="http://www.w3.org/2000/svg" xmlns:xlink="http://www.w3.org/1999/xlink" width="116.341" height="78.651" viewBox="0 0 87.256 58.988" version="1.2"><defs><symbol overflow="visible" id="b"><path style="stroke:none" d="m2.203 4.406.422-.203L2 2.953 7.125.375c.219-.094.297-.14.172-.375-.047-.094-.047-.11-.172-.172-.844-.422-1.297-1.344-1.39-1.531l-.094-.188-.422.22.093.187c.063.14.329.609.766 1.062l-4.61 2.313L.845.656.422.86c.234.375.703 1.313.922 1.75a45.9 45.9 0 0 1 .86 1.797Zm0 0"/></symbol><symbol overflow="visible" id="c"><path style="stroke:none" d="M3.172 3.734c.125-.062.062-.187.031-.28-.094-.157-.125-.142-.25-.142-.687.063-1.047-.296-1.281-.75C1.047 1.329 2.344.688 2.766.47c.5-.25 1.64-.828 2.218.312.157.328.22.485.266.625-.25-.093-.438-.031-.516.016a.621.621 0 0 0-.296.828c.14.281.484.484.859.297.766-.375.297-1.453.031-1.969-.797-1.594-2.14-1.765-3.172-1.25-1.187.61-1.625 1.875-.953 3.25.734 1.453 1.906 1.203 1.969 1.156Zm0 0"/></symbol><symbol overflow="visible" id="d"><path style="stroke:none" d="m4.172 8.344.422-.203-.313-.61 2.297-1.156c.922-.469 1.078-1.11.61-2.031-.407-.813-1.094-1.047-1.61-1.094.734-.563.36-1.406.188-1.734C5.375.719 4.719.422 4.016.406l.968-.484-.843-1.484-.422.203c.265.546.312.609-.031.78L.938.813.625.204.203.406.797 1.5l.531 1.14.422-.203-.313-.609 1.86-.937a1.523 1.523 0 0 1 2.078.64c.14.282.063.578-.625.922L2.344 3.656l-.297-.61-.422.204.594 1.11.531 1.14.422-.203-.313-.625 1.86-.938a1.519 1.519 0 0 1 2.078.625c.14.313.078.594-.61.938L3.781 6.5l-.312-.61-.422.204.594 1.11Zm0 0"/></symbol><clipPath id="a"><path d="M23 23h63.883v35.98H23Zm0 0"/></clipPath></defs><path style="fill:none;stroke-width:.19925;stroke-linecap:butt;stroke-linejoin:miter;stroke:gray;stroke-opacity:1;stroke-miterlimit:10" d="M.001.002h85.04M0 28.346h85.04M0 56.686h85.04M0 .001v56.691M28.345.002v56.691M56.693.002v56.691M85.029.002v56.691" transform="matrix(1 0 0 -1 .737 57.787)"/><g clip-path="url(#a)"><path style="fill:none;stroke-width:.3985;stroke-linecap:butt;stroke-linejoin:miter;stroke:#000;stroke-opacity:1;stroke-miterlimit:10" d="M28.345.002 85.04 28.346" transform="matrix(1 0 0 -1 .737 57.787)"/></g><path style="fill:none;stroke-width:.3985;stroke-linecap:butt;stroke-linejoin:miter;stroke:#000;stroke-opacity:1;stroke-miterlimit:10" d="m42.341 7.443-12.32 24.64" transform="matrix(1 0 0 -1 .737 57.787)"/><path style="fill:none;stroke-width:.3985;stroke-linecap:round;stroke-linejoin:round;stroke:#000;stroke-opacity:1;stroke-miterlimit:10" d="M-2.074 2.391C-1.695.957-.85.281 0-.001c-.85-.278-1.696-.955-2.074-2.391" transform="matrix(.44717 .89436 .89436 -.44717 43.168 50.522)"/><path style="fill:none;stroke-width:.3985;stroke-linecap:round;stroke-linejoin:round;stroke:#000;stroke-opacity:1;stroke-miterlimit:10" d="M-2.072 2.393C-1.695.955-.849.279-.002-.001c-.847-.28-1.69-.954-2.068-2.39" transform="scale(-.99994 .99994) rotate(-63.436 5.316 37.578)"/><g style="fill:#000;fill-opacity:1"><use xlink:href="#b" x="35.567" y="27.317"/><use xlink:href="#c" x="38.129" y="32.44"/><use xlink:href="#d" x="40.405" y="36.994"/></g></svg>