<svg xmlns="http://www.w3.org/2000/svg" xmlns:xlink="http://www.w3.org/1999/xlink" width="123.877" height="90.603" viewBox="0 0 92.908 67.952" version="1.2"><defs><symbol overflow="visible" id="b"><path style="stroke:none" d="M3.36-2.031c.953.094 3.328.328 3.25 1.375C6.515.39 4.155.172 3.186.078 2.188 0-.092-.219 0-1.266c.078-1.046 2.36-.843 3.36-.765Zm.062.578c-.563-.047-1.453-.125-1.969-.14C.531-1.626.36-1.36.36-1.235c-.015.156.172.437.907.546.515.094 1.53.188 2.078.235.719.062 1.375.125 1.89.125.875.031 1-.25 1.016-.36 0-.156-.172-.359-.578-.484-.375-.11-1.438-.203-2.25-.281Zm0 0"/></symbol><symbol overflow="visible" id="c"><path style="stroke:none" d="M1.86-1.39c.827.077 1.468.437 1.437.796-.031.36-.735.594-1.531.516C.922-.156.296-.516.328-.875c.031-.36.719-.594 1.531-.516ZM.671-.845c-.031.281.484.547 1.094.61.64.062 1.171-.11 1.203-.391.015-.281-.5-.547-1.11-.61-.656-.062-1.171.11-1.187.391Zm0 0"/></symbol><symbol overflow="visible" id="e"><path style="stroke:none" d="M3.578-4.625c.953.094 3.328.313 3.14 2.563C6.532.171 4.173-.047 3.204-.141 2.203-.219-.078-.437.11-2.67c.188-2.235 2.47-2.032 3.47-1.954Zm0 1.203c-.562-.047-1.453-.125-1.969-.11-.937.048-1.125.61-1.14.891-.031.313.14.875.875 1.063.5.125 1.515.219 2.062.266.719.062 1.375.125 1.906.093.875-.031 1.032-.656 1.047-.875a.997.997 0 0 0-.53-.969c-.376-.187-1.438-.28-2.25-.359Zm0 0"/></symbol><symbol overflow="visible" id="f"><path style="stroke:none" d="M2-3.125c.828.078 1.438.766 1.375 1.516-.063.78-.781 1.343-1.578 1.265C.953-.422.344-1.125.407-1.89c.062-.765.78-1.312 1.593-1.234ZM.75-1.859c-.047.609.438 1.125 1.047 1.187.64.063 1.203-.36 1.25-.969C3.094-2.234 2.609-2.75 2-2.812c-.656-.063-1.203.374-1.25.953Zm0 0"/></symbol><symbol overflow="visible" id="g"><path style="stroke:none" d="M.797-2.797c.5-.203 1.344-.422 1.89.063.063-.344.454-.86 1.25-1.188.72-.281 1.422-.203 1.672.375.188.469-.265 1.031-1.015 1.328-.39.156-.703.125-.766-.031-.078-.172.188-.39.516-.516.547-.218.718-.062.75-.046.203-.25.203-.454.156-.579-.14-.343-.75-.109-1.047.016-.11.047-1.328.547-1.219.984.063.172.063.188.047.204 0 .046-.078.093-.14.109-.157.062-.157.031-.188-.031l-.078-.188c-.188-.437-1.11-.062-1.578.125-.438.172-1.375.563-1.203.985.047.093.172.28.531.359.031-.156.219-.36.594-.516.422-.156.75-.14.828.032.062.171-.125.421-.578.609-.844.328-1.547.172-1.766-.344-.297-.719.5-1.406 1.344-1.75Zm0 0"/></symbol><symbol overflow="visible" id="h"><path style="stroke:none" d="M2.078-3.328c.89-.36 3.11-1.235 3.516-.266.39.969-1.813 1.86-2.719 2.219C1.953-1-.172-.141-.563-1.109c-.406-.97 1.72-1.844 2.641-2.22Zm.313.469c-.532.218-1.36.546-1.829.78-.828.407-.859.72-.796.829.047.14.343.297 1.046.063.5-.141 1.454-.532 1.97-.735.655-.266 1.265-.516 1.734-.75.796-.375.765-.687.734-.797-.063-.14-.313-.234-.75-.156-.375.063-1.36.469-2.11.766Zm0 0"/></symbol><symbol overflow="visible" id="i"><path style="stroke:none" d="M1.016-2.078c.78-.328 1.515-.281 1.64.047.14.344-.375.86-1.125 1.156-.781.313-1.5.297-1.64-.047-.125-.328.375-.86 1.125-1.156ZM.203-1.047c.11.266.688.266 1.25.047.61-.25 1.016-.656.906-.922-.109-.25-.687-.25-1.265-.016-.61.25-1 .641-.89.891Zm0 0"/></symbol><symbol overflow="visible" id="j"><path style="stroke:none" d="M-.188-5.188c.5-.203 1.391-.296 2.204.844-.063-.672.203-1.5 1-1.828.718-.281 1.562.14 2.062 1.344.422 1.031.11 1.937-.64 2.234-.391.156-.75 0-.891-.328-.156-.39.047-.734.375-.86a.688.688 0 0 1 .86.235c.14-.406.077-.812-.048-1.094-.28-.703-.906-.5-1.203-.375-.11.047-1.328.563-1.015 1.47l.14.421c.016.094-.047.172-.11.188-.155.062-.202-.032-.265-.188L2.125-3.5c-.39-.938-1.313-.563-1.781-.375-.438.172-1.375.563-1 1.453.094.219.312.64.765.938a.724.724 0 0 1 .47-.782c.421-.156.827 0 .984.391.14.36.015.75-.438.938-.844.328-1.734-.266-2.188-1.375-.64-1.547.032-2.532.875-2.876Zm0 0"/></symbol><symbol overflow="visible" id="k"><path style="stroke:none" d="M1.078-5.734c.89-.36 3.11-1.25 3.969.828.86 2.078-1.344 2.968-2.25 3.328-.922.375-3.047 1.234-3.906-.844-.86-2.062 1.265-2.937 2.187-3.312Zm.563 1.046c-.532.22-1.36.547-1.829.813-.796.469-.703 1.047-.593 1.313.125.296.531.718 1.25.546.515-.109 1.469-.5 1.984-.703.656-.265 1.266-.515 1.719-.781.781-.422.61-1.078.531-1.281a1 1 0 0 0-.922-.61c-.406 0-1.39.407-2.14.704Zm0 0"/></symbol><symbol overflow="visible" id="l"><path style="stroke:none" d="M.36-3.688c.78-.328 1.624.016 1.921.72.297.718-.094 1.546-.844 1.843-.78.313-1.64-.016-1.921-.734-.313-.72.093-1.532.843-1.829Zm-.532 1.704c.219.562.906.796 1.469.578.61-.25.906-.89.687-1.453-.234-.563-.921-.797-1.5-.563-.609.25-.89.89-.656 1.438Zm0 0"/></symbol><symbol overflow="visible" id="m"><path style="stroke:none" d="M-.547-3.016c.86-1.093 1.656-1.406 2.078-1.078.063.063.266.219-.062.922l.125-.14c.703-.907.875-1.297.953-1.438.203-.422.234-.844.015-1.016-.062-.046-.187-.109-.406 0 .094.141-.015.407-.187.641-.219.266-.469.422-.61.313-.14-.094-.046-.375.172-.672.39-.5.922-.86 1.297-.579.469.36.516 1.47-1.031 3.454C1.313-2 .766-1.406.219-.953c-.64.484-1.047.453-1.282.281-.484-.375-.312-1.281.516-2.344Zm.469.36c-.61.781-1.078 1.375-.735 1.64.188.141.516-.093.672-.203.235-.218.672-.781.797-.937.766-.985.86-1.485.672-1.625C1-4.031.547-3.437-.078-2.656Zm0 0"/></symbol><symbol overflow="visible" id="n"><path style="stroke:none" d="M.14-3.922c.579-.75 2.079-2.625 2.907-1.984.828.64-.64 2.515-1.235 3.265-.625.797-2.03 2.61-2.859 1.97-.828-.641.563-2.454 1.188-3.25Zm.5.266C.298-3.22-.265-2.5-.546-2.078c-.531.75-.39 1.031-.281 1.11.125.093.437.077.937-.47.36-.375.985-1.187 1.329-1.609.437-.562.843-1.078 1.14-1.515.5-.735.313-1 .235-1.063-.126-.094-.391-.063-.72.234-.296.25-.952 1.094-1.452 1.735Zm0 0"/></symbol><symbol overflow="visible" id="o"><path style="stroke:none" d="M-.156-2.297c.531-.672 1.172-1.015 1.453-.797.281.219.094.938-.406 1.578C.375-.859-.266-.53-.547-.75c-.281-.219-.11-.906.39-1.547Zm-.188 1.281c.219.172.719-.109 1.094-.578.406-.515.563-1.062.344-1.234-.219-.172-.735.11-1.125.61-.406.515-.531 1.03-.313 1.202Zm0 0"/></symbol><symbol overflow="visible" id="p"><path style="stroke:none" d="M-2.61-4.594C-1.75-5.687-.546-5.687.345-5c.156.125.562.438.39 1.266l.125-.141c.704-.906.797-1.344.86-1.516.093-.5-.078-1.093-.532-1.421-.125-.11-.39-.282-.703-.235.235.25.188.563.016.797-.219.266-.547.36-.844.125-.281-.219-.297-.563-.078-.86.39-.5 1.094-.734 1.875-.14 1 .781 1.688 2.375.14 4.36C1.11-2.157.548-1.579-.171-1.25c-.812.344-1.531.078-2.031-.313-1.031-.78-1.235-1.968-.406-3.03Zm1 .766c-.609.781-1.077 1.375-.327 1.937.375.297.828.157 1 .063.296-.172.734-.734.859-.89.765-.985.656-1.641.25-1.954-.703-.531-1.156.063-1.781.844Zm0 0"/></symbol><symbol overflow="visible" id="q"><path style="stroke:none" d="M-1.938-5.516c.579-.75 2.063-2.625 3.844-1.25 1.797 1.375.328 3.25-.265 4-.625.797-2.032 2.61-3.829 1.235-1.765-1.375-.374-3.188.25-3.985Zm1.016.641c-.344.438-.906 1.156-1.172 1.61-.469.796-.094 1.265.125 1.437.266.203.813.344 1.36-.156C-.22-2.344.406-3.156.75-3.578c.438-.563.844-1.078 1.11-1.531.468-.766 0-1.25-.188-1.375a.929.929 0 0 0-1.078-.079c-.36.204-1.016 1.047-1.516 1.688Zm0 0"/></symbol><symbol overflow="visible" id="r"><path style="stroke:none" d="M-1.547-3.375c.531-.672 1.422-.797 2.031-.328.625.469.704 1.375.204 2.015-.516.657-1.438.782-2.047.329-.61-.485-.688-1.375-.188-2.016Zm.39 1.75c.485.36 1.188.234 1.563-.234.406-.516.36-1.22-.125-1.579-.484-.374-1.172-.25-1.562.25-.407.516-.344 1.188.125 1.563Zm0 0"/></symbol><symbol overflow="visible" id="s"><path style="stroke:none" d="M-1.828-3.547c.094-.672.469-3.219 1.5-3.094.61.094.922.954.734 2.266-.187 1.36-.734 2.047-1.25 1.969-.156-.016-.344-.11-.422-.813l-.03.219c-.095.719-.141 1.297-.126 1.656.031.375.156.86.453.89.078.017.219 0 .375-.171C-.64-.656-.78-.813-.719-1.25c.047-.344.188-.625.36-.594.171.016.25.297.187.672C-.266-.5-.578.031-1.047-.032c-.562-.077-1.125-1-.781-3.515Zm.734-.89c-.078.609-.093 1.64.266 1.687.406.047.5-.703.64-1.672.141-.984.25-1.766-.203-1.828-.265-.031-.437.484-.468.563-.11.328-.188.906-.235 1.25Zm0 0"/></symbol><symbol overflow="visible" id="t"><path style="stroke:none" d="M-1.844-3.453c.125-.938.485-3.313 1.532-3.172C.718-6.5.375-4.141.25-3.187c-.14.984-.469 3.265-1.5 3.14-1.047-.14-.734-2.422-.594-3.406Zm.578-.047c-.093.563-.218 1.453-.25 1.984-.078.907.188 1.079.313 1.11.156.015.422-.172.578-.89.11-.5.266-1.516.344-2.063.094-.704.187-1.36.203-1.891C0-6.125-.266-6.266-.375-6.266c-.156-.03-.36.141-.5.547-.14.36-.281 1.422-.39 2.219Zm0 0"/></symbol><symbol overflow="visible" id="u"><path style="stroke:none" d="M-1.281-1.922c.11-.828.5-1.437.843-1.39.36.046.563.75.454 1.546C-.11-.922-.5-.312-.86-.359c-.344-.047-.547-.75-.422-1.563Zm.468 1.219c.282.031.579-.453.672-1.063.078-.64-.062-1.187-.343-1.218-.266-.047-.563.437-.641 1.062-.094.656.047 1.172.313 1.219Zm0 0"/></symbol><symbol overflow="visible" id="v"><path style="stroke:none" d="M-4.39-3.89c.093-.672.468-3.22 2.64-2.938C-.437-6.656.344-5.718.156-4.406c-.187 1.36-1.203 1.968-2.344 1.828-.312-.047-.734-.172-.984-.89l-.031.218c-.094.719-.11 1.297-.016 1.656.11.407.453.907 1.078 1 .157.016.5.031.813-.125a.615.615 0 0 1-.375-.672c.047-.343.297-.593.672-.546.36.046.531.343.468.718-.093.672-.625 1.172-1.656 1.032-1.203-.157-2.515-1.188-2.172-3.704ZM-3-4.688c-.078.609.031 1.656.797 1.75.875.124.969-.626 1.11-1.594.14-.985.25-1.766-.735-1.907-.547-.062-.828.438-.89.5-.157.329-.235.907-.282 1.25Zm0 0"/></symbol><symbol overflow="visible" id="w"><path style="stroke:none" d="M-4.422-3.797c.125-.937.469-3.312 2.688-3.015C.5-6.532.156-4.172.03-3.22c-.14.985-.469 3.266-2.703 2.985-2.203-.297-1.89-2.579-1.75-3.563Zm1.188.047c-.094.563-.22 1.453-.22 1.969 0 .922.563 1.14.829 1.187.328.031.89-.11 1.125-.812.14-.516.297-1.532.375-2.078.094-.704.188-1.36.172-1.875.015-.891-.625-1.079-.844-1.094a.953.953 0 0 0-.969.484c-.218.36-.359 1.422-.468 2.219Zm0 0"/></symbol><symbol overflow="visible" id="x"><path style="stroke:none" d="M-3.016-2.156c.11-.828.813-1.39 1.579-1.297.78.11 1.296.86 1.187 1.656-.125.844-.844 1.39-1.61 1.297-.78-.11-1.28-.844-1.156-1.656Zm1.204 1.312c.609.078 1.14-.375 1.234-.984.078-.64-.297-1.219-.906-1.297-.61-.078-1.141.375-1.22 1-.093.656.298 1.203.892 1.281Zm0 0"/></symbol><clipPath id="a"><path d="M1 0h69v67.93H1Zm0 0"/></clipPath><clipPath id="d"><path d="M59 62h8v5.93h-8Zm0 0"/></clipPath></defs><path style="fill:none;stroke-width:.19925;stroke-linecap:butt;stroke-linejoin:miter;stroke:gray;stroke-opacity:1;stroke-miterlimit:10" d="M0 0h85.039M-.001 28.349h85.04M-.001 56.684h85.04M-.001.001v56.691M28.348.001v56.691M56.695.001v56.691M85.031.001v56.691" transform="matrix(1 0 0 -1 6.723 62.2)"/><g clip-path="url(#a)"><path style="fill:none;stroke-width:.3985;stroke-linecap:butt;stroke-linejoin:miter;stroke:#000;stroke-opacity:1;stroke-miterlimit:10" d="M14.172 0a21.244 21.244 0 0 1-.27 2.766c-.21.903-.48 1.79-.809 2.657a21.33 21.33 0 0 1-1.308 2.449 21.203 21.203 0 0 1-1.762 2.148 21.584 21.584 0 0 1-2.148 1.766c-.79.488-1.606.926-2.453 1.309-.868.324-1.754.593-2.657.804-.914.153-1.84.242-2.765.274M28.347 0a42.995 42.995 0 0 1-.547 5.527 42.15 42.15 0 0 1-1.613 5.32 42.378 42.378 0 0 1-2.617 4.899 42.688 42.688 0 0 1-3.527 4.297 42.603 42.603 0 0 1-4.293 3.523 42.782 42.782 0 0 1-4.903 2.621 42.746 42.746 0 0 1-5.316 1.614c-1.832.3-3.676.484-5.531.546M42.52.001a64.17 64.17 0 0 1-.817 8.293 63.628 63.628 0 0 1-2.422 7.976 63.19 63.19 0 0 1-3.93 7.352 63.757 63.757 0 0 1-5.285 6.445 64.29 64.29 0 0 1-6.445 5.285 63.466 63.466 0 0 1-7.352 3.93A62.967 62.967 0 0 1 8.293 41.7 64.108 64.108 0 0 1 0 42.52M56.695 0a85.358 85.358 0 0 1-1.094 11.06 83.994 83.994 0 0 1-3.226 10.632 84.2 84.2 0 0 1-5.239 9.801 84.96 84.96 0 0 1-7.047 8.594 85.873 85.873 0 0 1-8.593 7.05 84.516 84.516 0 0 1-9.801 5.239 84.892 84.892 0 0 1-10.637 3.226c-3.66.602-7.351.97-11.058 1.09M0 .001H56.695M0 0l13.957 2.46 13.96 2.462 13.958 2.46 13.957 2.462M0 0C4.44 1.614 8.879 3.23 13.32 4.848c4.437 1.614 8.879 3.23 13.316 4.848 4.442 1.613 8.88 3.23 13.32 4.848 4.438 1.613 8.88 3.23 13.317 4.847M0 .001c4.09 2.363 8.183 4.722 12.273 7.086 4.094 2.363 8.184 4.722 12.277 7.086 4.09 2.363 8.184 4.726 12.274 7.086 4.09 2.363 8.183 4.726 12.273 7.09M0 0c3.62 3.035 7.238 6.074 10.859 9.11 3.617 3.038 7.238 6.073 10.856 9.109l10.859 9.113 10.855 9.11M0 0c3.04 3.617 6.075 7.238 9.11 10.855 3.04 3.621 6.074 7.239 9.113 10.86l9.11 10.855c3.035 3.621 6.074 7.238 9.11 10.86M0 0c2.363 4.09 4.726 8.183 7.086 12.273 2.363 4.09 4.726 8.184 7.086 12.274l7.09 12.277c2.359 4.09 4.722 8.184 7.085 12.273M0 .001C1.617 4.438 3.23 8.88 4.847 13.317c1.617 4.442 3.23 8.88 4.848 13.32 1.617 4.442 3.23 8.88 4.848 13.32 1.617 4.438 3.23 8.88 4.847 13.317M0 .001l2.46 13.957 2.462 13.957 2.46 13.96 2.461 13.958M0 0C0 4.723 0 9.45.004 14.173v14.172c.003 4.726.003 9.449.003 14.175 0 4.723 0 9.45.004 14.172" transform="matrix(1 0 0 -1 6.723 62.2)"/></g><use xlink:href="#b" x="31.591" y="64.451" style="fill:#000;fill-opacity:1"/><use xlink:href="#c" x="35.395" y="62.279" style="fill:#000;fill-opacity:1"/><g clip-path="url(#d)"><use xlink:href="#e" x="59.821" y="67.007" style="fill:#000;fill-opacity:1"/></g><use xlink:href="#f" x="63.856" y="62" style="fill:#000;fill-opacity:1"/><g style="fill:#000;fill-opacity:1"><use xlink:href="#g" x="29.883" y="52.866"/><use xlink:href="#h" x="28.928" y="50.548"/></g><use xlink:href="#i" x="31.326" y="46.878" style="fill:#000;fill-opacity:1"/><g style="fill:#000;fill-opacity:1"><use xlink:href="#j" x="56.174" y="42.27"/><use xlink:href="#k" x="54.134" y="37.321"/></g><use xlink:href="#l" x="55.448" y="31.02" style="fill:#000;fill-opacity:1"/><g style="fill:#000;fill-opacity:1"><use xlink:href="#m" x="22.113" y="42.536"/><use xlink:href="#n" x="20.126" y="41.007"/></g><use xlink:href="#o" x="20.367" y="36.631" style="fill:#000;fill-opacity:1"/><g style="fill:#000;fill-opacity:1"><use xlink:href="#p" x="39.584" y="20.214"/><use xlink:href="#q" x="35.341" y="16.949"/></g><use xlink:href="#r" x="33.326" y="10.837" style="fill:#000;fill-opacity:1"/><g style="fill:#000;fill-opacity:1"><use xlink:href="#s" x="10.219" y="37.475"/><use xlink:href="#t" x="7.735" y="37.146"/></g><use xlink:href="#u" x="5.756" y="33.239" style="fill:#000;fill-opacity:1"/><g style="fill:#000;fill-opacity:1"><use xlink:href="#v" x="14.188" y="9.409"/><use xlink:href="#w" x="8.883" y="8.707"/></g><use xlink:href="#x" x="4.085" y="4.425" style="fill:#000;fill-opacity:1"/></svg>