<svg xmlns="http://www.w3.org/2000/svg" xmlns:xlink="http://www.w3.org/1999/xlink" width="27.339" height="27.339" viewBox="0 0 20.504 20.504" version="1.2"><defs><clipPath id="a"><path d="M0 0h20.258v20.258H0Zm0 0"/></clipPath><symbol overflow="visible" id="b"><path style="stroke:none" d="M-1.234-7.39c-.313-.313-.875-.376-1.422.171-.688.688-1.156 1.75-.36 2.547l.72.719-.532.531.328.328.531-.531L.5-1.156l-.484.484.328.328.86-.89c.265-.266.718-.72 1-.97l-.329-.327-.61.61-2.468-2.47.797-.796-.328-.329-.844.844-.719-.719c-.781-.78-.312-1.375-.14-1.546.03-.032.078-.079.156-.094a.587.587 0 0 0 .172.515c.296.297.687.157.859-.015.203-.203.297-.578.016-.86Zm0 0"/></symbol></defs><g clip-path="url(#a)"><path style="fill:none;stroke-width:1.19553;stroke-linecap:butt;stroke-linejoin:miter;stroke:#00f;stroke-opacity:1;stroke-miterlimit:10" d="M-5.07-6.808H5.069L5.07 6.807l-10.14.002Zm0 0" transform="scale(1 -1) rotate(45 17.072 7.072)"/></g><use xlink:href="#b" x="11.23" y="13.702" style="fill:#000;fill-opacity:1"/></svg>