<svg xmlns="http://www.w3.org/2000/svg" width="90.627" height="55.779" viewBox="0 0 67.97 41.834" version="1.2"><defs><clipPath id="a"><path d="M0 0h67.953v6H0Zm0 0"/></clipPath><clipPath id="b"><path d="M0 2h67.953v39.75H0Zm0 0"/></clipPath></defs><path style="stroke:none;fill-rule:nonzero;fill:#ccf;fill-opacity:1" d="M1 40.738V3.148h65.941v37.59Zm0 0"/><g clip-path="url(#a)"><path style="fill:none;stroke-width:4.42346;stroke-linecap:butt;stroke-linejoin:miter;stroke:#8080ff;stroke-opacity:1;stroke-miterlimit:10" d="M-32.97 18.795h65.941" transform="matrix(1 0 0 -1 33.97 21.943)"/></g><g clip-path="url(#b)"><path style="fill:none;stroke-width:.3985;stroke-linecap:butt;stroke-linejoin:miter;stroke:#000;stroke-opacity:1;stroke-miterlimit:10" d="M28.346.002C28.346 7.83 15.655 14.173 0 14.173c-15.657 0-28.344-6.343-28.344-14.171 0-7.829 12.687-14.176 28.344-14.176 15.656 0 28.347 6.347 28.347 14.176Zm0 0" transform="matrix(1 0 0 -1 33.97 21.943)"/></g></svg>