<svg xmlns="http://www.w3.org/2000/svg" width="40.755" height="40.755" viewBox="0 0 30.566 30.566" version="1.2"><defs><clipPath id="a"><path d="M4 0h26.348v30.348H4Zm0 0"/></clipPath></defs><path style="fill:none;stroke-width:.19925;stroke-linecap:butt;stroke-linejoin:miter;stroke:gray;stroke-opacity:1;stroke-miterlimit:10" d="M.002-14.172h28.343M.002-11.34h28.343M.002-8.504h28.343M.002-5.668h28.343M.002-2.836h28.343M.002 0h28.343M.002 2.836h28.343M.002 5.668h28.343M.002 8.504h28.343M.002 11.34h28.343M.002 14.172h28.343M.002-14.172v28.344m2.832-28.344v28.344M5.67-14.172v28.344m2.835-28.344v28.344m2.832-28.344v28.344m2.836-28.344v28.344m2.836-28.344v28.344m2.832-28.344v28.344m2.836-28.344v28.344m2.836-28.344v28.344m2.832-28.344v28.344" transform="matrix(1 0 0 -1 .893 15.074)"/><path style="fill:none;stroke-width:.79701;stroke-linecap:butt;stroke-linejoin:miter;stroke:red;stroke-opacity:1;stroke-miterlimit:10" d="M.002 0h18.585" transform="matrix(1 0 0 -1 .893 15.074)"/><path style="stroke:none;fill-rule:nonzero;fill:#fff;fill-opacity:1" d="m28.105 15.074-12.523-4.71 4.098 4.71-4.098 4.707Zm0 0"/><g clip-path="url(#a)"><path style="fill:none;stroke-width:.79701;stroke-linecap:butt;stroke-linejoin:miter;stroke:#00f;stroke-opacity:1;stroke-miterlimit:10" d="M13.81 0 1.286 4.71 5.384 0 1.286-4.707Zm0 0" transform="matrix(1 0 0 -1 14.296 15.074)"/></g></svg>