<svg xmlns="http://www.w3.org/2000/svg" xmlns:xlink="http://www.w3.org/1999/xlink" width="260.787" height="91.395" viewBox="0 0 195.59 68.546" version="1.2"><defs><symbol overflow="visible" id="a"><path style="stroke:none" d="M7.5-1.86c0-.952-.844-1.624-2.031-1.702 1.078-.204 1.718-.797 1.718-1.563 0-.922-.875-1.719-2.468-1.719H.39v.469h1.078v5.906H.39V0h4.625C6.672 0 7.5-.875 7.5-1.86ZM5.766-5.124c0 .766-.47 1.39-1.438 1.39H2.766v-2.64h1.812c1.016 0 1.188.797 1.188 1.25Zm.28 3.266c0 .109 0 1.39-1.437 1.39H2.766v-2.906h1.937c.203 0 .672 0 1.016.422.328.422.328.984.328 1.094Zm0 0"/></symbol><symbol overflow="visible" id="b"><path style="stroke:none" d="M2.844 0v-.469h-.61v-4.015L.5-4.406v.468c.594 0 .656 0 .656.391v3.078H.47V0l1.219-.031Zm-.469-6.047a.774.774 0 0 0-.781-.781.784.784 0 0 0-.782.781c0 .422.36.766.782.766a.77.77 0 0 0 .781-.766Zm0 0"/></symbol><symbol overflow="visible" id="c"><path style="stroke:none" d="M5.563-3.953c0-.235-.172-.578-.625-.578-.157 0-.625.031-1.063.375-.172-.125-.594-.328-1.328-.328-1.438 0-1.985.78-1.985 1.468 0 .407.188.829.516 1.047-.281.36-.344.688-.344.89 0 .157.047.641.438.954-.125.031-.86.25-.86.875C.313 1.25.875 2 2.86 2 4.625 2 5.406 1.422 5.406.719c0-.297-.078-.922-.75-1.266-.562-.281-1.156-.281-2.11-.281-.265 0-.718 0-.765-.016a.625.625 0 0 1-.562-.625c0-.093.047-.25.11-.328.452.234.968.266 1.218.266 1.437 0 1.984-.782 1.984-1.485 0-.468-.25-.796-.406-.953.297-.156.516-.172.625-.187a.433.433 0 0 0-.047.203c0 .25.172.422.438.422a.41.41 0 0 0 .421-.422Zm-2.141.937c0 .454 0 1.125-.875 1.125s-.875-.671-.875-1.125c0-.437 0-1.109.875-1.109s.875.672.875 1.11ZM4.547.75c0 .36-.39.89-1.688.89-1.187 0-1.687-.452-1.687-.906 0-.609.625-.609.766-.609h1.171c.313 0 1.438 0 1.438.625Zm0 0"/></symbol><symbol overflow="visible" id="d"><path style="stroke:none" d="M6.125 0v-.469h-.688v-2.578c0-1.047-.53-1.437-1.53-1.437-.954 0-1.485.562-1.75 1.078v-1.078l-1.704.078v.468c.61 0 .688 0 .688.391v3.078H.453V0l1.25-.031L2.953 0v-.469h-.687v-2.078c0-1.094.859-1.578 1.5-1.578.328 0 .546.203.546.969V-.47h-.687V0l1.25-.031Zm0 0"/></symbol><symbol overflow="visible" id="e"><path style="stroke:none" d="M5.406-2.172c0-1.344-.922-2.344-2.547-2.344C1.22-4.516.313-3.5.313-2.172c0 1.235.89 2.235 2.546 2.235 1.672 0 2.547-1.016 2.547-2.235Zm-1.281-.11c0 .86 0 1.938-1.266 1.938-1.265 0-1.265-1.078-1.265-1.937 0-.453 0-.953.172-1.297.187-.375.609-.578 1.093-.578.422 0 .844.156 1.063.5.203.344.203.89.203 1.375Zm0 0"/></symbol><symbol overflow="visible" id="f"><path style="stroke:none" d="M5.984 0v-.469c-.609 0-.687 0-.687-.39v-6.063l-1.766.078v.469c.625 0 .703 0 .703.39v1.954a2.178 2.178 0 0 0-1.359-.453c-1.453 0-2.5.875-2.5 2.28 0 1.313.922 2.267 2.39 2.267.61 0 1.094-.235 1.407-.485v.484ZM4.172-1.031c-.14.187-.547.734-1.297.734-1.219 0-1.219-1.203-1.219-1.906 0-.485 0-1.016.25-1.406.297-.422.766-.516 1.078-.516.563 0 .97.313 1.188.61Zm0 0"/></symbol><symbol overflow="visible" id="g"><path style="stroke:none" d="M4.922-1.172c0-.172-.188-.172-.234-.172-.172 0-.188.047-.25.203-.204.485-.782.797-1.422.797-1.407 0-1.422-1.328-1.422-1.828h3.015c.22 0 .313 0 .313-.265 0-.313-.063-1.047-.563-1.547-.359-.36-.89-.532-1.578-.532C1.187-4.516.312-3.484.312-2.25c0 1.344 1 2.313 2.61 2.313 1.578 0 2-1.063 2-1.235ZM3.984-2.5h-2.39c.015-.39.031-.813.234-1.14.266-.391.672-.516.953-.516 1.172 0 1.188 1.312 1.203 1.656Zm0 0"/></symbol><symbol overflow="visible" id="h"><path style="stroke:none" d="M5.11-.375c0-.36-.282-.375-.47-.375h-.343v-2.172c0-1.031-.531-1.469-1.344-1.469-.562 0-.953.22-1.203.407 0-.25-.078-.36-.469-.36H.578c-.187 0-.469.016-.469.375 0 .36.297.375.454.375h.359V-.75H.578C.391-.75.11-.734.11-.375c0 .36.297.375.454.375h1.546c.172 0 .47-.016.47-.375 0-.36-.282-.375-.47-.375H1.75v-1.64c0-.907.688-1.266 1.14-1.266.47 0 .579.25.579.781V-.75h-.297c-.188 0-.485.016-.485.375 0 .36.313.375.485.375h1.484c.157 0 .453-.016.453-.375Zm0 0"/></symbol><symbol overflow="visible" id="i"><path style="stroke:none" d="M4.688-2.172c0-1.265-.954-2.25-2.079-2.25-1.125 0-2.078.984-2.078 2.25C.531-.89 1.5.063 2.61.063c1.11 0 2.079-.97 2.079-2.235Zm-.829-.078c0 .86-.562 1.563-1.25 1.563-.671 0-1.25-.704-1.25-1.563 0-.828.61-1.422 1.25-1.422.657 0 1.25.594 1.25 1.422Zm0 0"/></symbol><symbol overflow="visible" id="j"><path style="stroke:none" d="M4.875-3.719c0-.219-.125-.672-1-.672-.469 0-1.047.141-1.578.657v-.141c0-.36-.063-.469-.469-.469H.766c-.172 0-.47.016-.47.36 0 .375.282.39.47.39h.703V-.75H.766c-.172 0-.47.016-.47.375 0 .36.282.375.47.375h2.53c.188 0 .485-.016.485-.375 0-.36-.297-.375-.484-.375h-1v-1.14c0-.844.531-1.735 1.594-1.766 0 .25.234.422.5.422.25 0 .484-.172.484-.485Zm0 0"/></symbol><symbol overflow="visible" id="k"><path style="stroke:none" d="M4.5-1.313c0-.203 0-.437-.422-.437-.39 0-.406.234-.406.438 0 .53-.5.625-.719.625-.656 0-.656-.454-.656-.672v-2.235h1.515c.172 0 .47-.015.47-.375 0-.375-.282-.375-.47-.375H2.298v-.718c0-.22-.016-.47-.406-.47-.422 0-.422.235-.422.47v.718H.703c-.187 0-.469.016-.469.375 0 .36.282.375.454.375h.78v2.281c0 1 .688 1.375 1.454 1.375.75 0 1.578-.453 1.578-1.375Zm0 0"/></symbol><symbol overflow="visible" id="l"><path style="stroke:none" d="M5.11-.375c0-.36-.282-.375-.47-.375h-.343v-2.172c0-1.031-.531-1.469-1.344-1.469a1.99 1.99 0 0 0-1.203.407V-5.61c0-.36-.063-.485-.469-.485H.578c-.187 0-.469.016-.469.375 0 .36.297.375.454.375h.359V-.75H.578C.391-.75.11-.734.11-.375c0 .36.297.375.454.375h1.546c.172 0 .47-.016.47-.375 0-.36-.282-.375-.47-.375H1.75v-1.64c0-.907.688-1.266 1.14-1.266.47 0 .579.25.579.781V-.75h-.297c-.188 0-.485.016-.485.375 0 .36.313.375.485.375h1.484c.157 0 .453-.016.453-.375Zm0 0"/></symbol><symbol overflow="visible" id="m"><path style="stroke:none" d="M4.656-1.14c0-.329-.343-.344-.422-.344-.218 0-.312.03-.39.265-.203.453-.688.532-.938.532-.672 0-1.344-.422-1.515-1.172h2.796c.25 0 .47 0 .47-.438 0-1.14-.657-2.125-1.97-2.125-1.187 0-2.171 1-2.171 2.234C.516-.952 1.53.063 2.828.063c1.36 0 1.828-.937 1.828-1.203Zm-.86-1.454H1.392c.171-.625.687-1.078 1.296-1.078.47 0 1 .219 1.11 1.078Zm0 0"/></symbol><symbol overflow="visible" id="n"><path style="stroke:none" d="M5.188-.375c0-.36-.282-.375-.47-.375-.28 0-.421-.031-.5-.063v-2.03c0-.72-.546-1.579-2-1.579-.437 0-1.484.031-1.484.781 0 .344.25.516.516.516.172 0 .5-.094.5-.531 0 0 .328-.016.484-.016.657 0 1.125.25 1.157.828-1.72.047-2.907.578-2.907 1.516 0 .703.625 1.39 1.672 1.39.36 0 .938-.078 1.406-.359.25.281.688.297 1.063.297.328 0 .563-.016.563-.375Zm-1.813-1c0 .188 0 .375-.328.531-.328.156-.75.156-.828.156-.547 0-.922-.296-.922-.64 0-.438.781-.734 2.078-.781Zm0 0"/></symbol><symbol overflow="visible" id="o"><path style="stroke:none" d="M4.61-1.297c0-1.062-1.313-1.281-1.641-1.328l-1-.188c-.266-.062-.532-.171-.532-.39 0-.235.313-.469 1.157-.469.719 0 .86.235.89.469.016.187.047.39.407.39.421 0 .421-.234.421-.468v-.672c0-.188-.015-.469-.359-.469-.219 0-.297.078-.344.172-.421-.172-.812-.172-1-.172-1.703 0-1.921.86-1.921 1.219 0 .937 1.046 1.125 1.984 1.265.437.079 1.187.188 1.187.641 0 .344-.343.61-1.171.61-.422 0-.938-.094-1.157-.813-.062-.219-.11-.328-.422-.328-.406 0-.421.234-.421.469v.937c0 .188.015.484.375.484.093 0 .265 0 .39-.328.469.313.953.329 1.234.329 1.594 0 1.922-.875 1.922-1.36Zm0 0"/></symbol><symbol overflow="visible" id="p"><path style="stroke:none" d="M5.078-3.984c0-.344-.266-.36-.484-.36h-1.11c-.218 0-.5.016-.5.36 0 .375.266.39.5.39h.375L3.438-1.14l-.188-.75c-.188-.687-.25-.78-.625-.78-.11 0-.328 0-.453.265l-.375 1.281-.438-2.469h.391c.219 0 .484-.015.484-.375s-.265-.375-.484-.375H.625c-.203 0-.484.016-.484.36 0 .343.203.39.5.39l.578 3.188c.047.281.093.453.531.453.438 0 .484-.094.64-.75l.25-.906.376 1.437c.14.203.343.219.484.219.422 0 .453-.188.5-.453l.578-3.188c.313 0 .5-.047.5-.39Zm0 0"/></symbol><symbol overflow="visible" id="q"><path style="stroke:none" d="M4.89-2.172c0-1.25-.906-2.219-1.984-2.219-.422 0-.828.141-1.156.375v-1.593c0-.36-.063-.485-.469-.485H.578c-.187 0-.484.016-.484.375 0 .36.312.375.469.375h.359v4.86c0 .25.015.484.422.484.312 0 .39-.14.406-.344.375.328.766.406 1.047.406C3.89.063 4.89-.89 4.89-2.171Zm-.827 0c0 .875-.641 1.485-1.282 1.485-.703 0-1.015-.813-1.015-1.25v-.704c0-.546.53-1.015 1.093-1.015.672 0 1.204.687 1.204 1.484Zm0 0"/></symbol></defs><path style="stroke:none;fill-rule:nonzero;fill:#bfbfff;fill-opacity:1" d="M27.047 67.305H168.78V10.609H27.047Zm0 0"/><g style="fill:#000;fill-opacity:1"><use xlink:href="#a" x="75.462" y="41.414"/><use xlink:href="#b" x="83.611" y="41.414"/><use xlink:href="#c" x="86.79" y="41.414"/></g><g style="fill:#000;fill-opacity:1"><use xlink:href="#d" x="96.334" y="41.414"/><use xlink:href="#e" x="102.7" y="41.414"/></g><g style="fill:#000;fill-opacity:1"><use xlink:href="#f" x="108.747" y="41.414"/><use xlink:href="#g" x="115.113" y="41.414"/></g><path style="stroke:none;fill-rule:nonzero;fill:#000;fill-opacity:1" d="M99.906 10.41a1.993 1.993 0 0 0-3.984 0c0 1.102.89 1.996 1.992 1.996a1.996 1.996 0 0 0 1.992-1.996Zm71.067 0a1.993 1.993 0 0 0-3.984 0c0 1.102.89 1.996 1.991 1.996a1.996 1.996 0 0 0 1.993-1.996Zm-142.133 0a1.993 1.993 0 0 0-3.984 0c0 1.102.89 1.996 1.992 1.996a1.996 1.996 0 0 0 1.992-1.996Zm0 28.547a1.993 1.993 0 1 0-3.983.002 1.993 1.993 0 0 0 3.983-.002Zm142.133 0a1.993 1.993 0 1 0-3.983.002 1.993 1.993 0 0 0 3.983-.002Zm-71.067 2.457a1.993 1.993 0 1 0-3.986.002 1.993 1.993 0 0 0 3.986-.002Zm0 0"/><g style="fill:#000;fill-opacity:1"><use xlink:href="#h" x="84.837" y="6.833"/><use xlink:href="#i" x="90.067" y="6.833"/><use xlink:href="#j" x="95.298" y="6.833"/><use xlink:href="#k" x="100.528" y="6.833"/><use xlink:href="#l" x="105.759" y="6.833"/></g><g style="fill:#000;fill-opacity:1"><use xlink:href="#h" x="142.826" y="6.833"/><use xlink:href="#i" x="148.056" y="6.833"/><use xlink:href="#j" x="153.287" y="6.833"/><use xlink:href="#k" x="158.517" y="6.833"/><use xlink:href="#l" x="163.748" y="6.833"/></g><g style="fill:#000;fill-opacity:1"><use xlink:href="#m" x="174.208" y="6.833"/><use xlink:href="#n" x="179.439" y="6.833"/><use xlink:href="#o" x="184.669" y="6.833"/><use xlink:href="#k" x="189.899" y="6.833"/></g><g style="fill:#000;fill-opacity:1"><use xlink:href="#h" x=".696" y="6.833"/><use xlink:href="#i" x="5.926" y="6.833"/><use xlink:href="#j" x="11.157" y="6.833"/><use xlink:href="#k" x="16.387" y="6.833"/><use xlink:href="#l" x="21.618" y="6.833"/></g><g style="fill:#000;fill-opacity:1"><use xlink:href="#p" x="32.078" y="6.833"/><use xlink:href="#m" x="37.309" y="6.833"/><use xlink:href="#o" x="42.539" y="6.833"/><use xlink:href="#k" x="47.769" y="6.833"/></g><g style="fill:#000;fill-opacity:1"><use xlink:href="#p" x="2.406" y="41.693"/><use xlink:href="#m" x="7.636" y="41.693"/><use xlink:href="#o" x="12.867" y="41.693"/><use xlink:href="#k" x="18.097" y="41.693"/></g><g style="fill:#000;fill-opacity:1"><use xlink:href="#m" x="172.498" y="41.693"/><use xlink:href="#n" x="177.728" y="41.693"/><use xlink:href="#o" x="182.959" y="41.693"/><use xlink:href="#k" x="188.189" y="41.693"/></g><g style="fill:#000;fill-opacity:1"><use xlink:href="#q" x="87.452" y="51.021"/><use xlink:href="#n" x="92.682" y="51.021"/><use xlink:href="#o" x="97.913" y="51.021"/><use xlink:href="#m" x="103.143" y="51.021"/></g></svg>