<svg xmlns="http://www.w3.org/2000/svg" width="50.235" height="15.051" viewBox="0 0 37.676 11.288" version="1.2"><defs><clipPath id="a"><path d="M0 0h16v10.934H0Zm0 0"/></clipPath><clipPath id="b"><path d="M8 0h21v10.934H8Zm0 0"/></clipPath><clipPath id="c"><path d="M21 0h16.516v10.934H21Zm0 0"/></clipPath></defs><g clip-path="url(#a)"><path style="fill:none;stroke-width:.3985;stroke-linecap:butt;stroke-linejoin:miter;stroke:#000;stroke-opacity:1;stroke-miterlimit:10" d="m.001.002 8.563 8.562" transform="matrix(1 0 0 -1 .983 9.791)"/></g><path style="fill:none;stroke-width:.3985;stroke-linecap:round;stroke-linejoin:round;stroke:#000;stroke-opacity:1;stroke-miterlimit:10" d="M-2.073 2.392C-1.693.956-.85.28-.002 0c-.848-.279-1.69-.955-2.071-2.392" transform="scale(1 -1) rotate(45 6.154 11.153)"/><g clip-path="url(#b)"><path style="fill:none;stroke-width:.3985;stroke-linecap:butt;stroke-linejoin:miter;stroke:#000;stroke-opacity:1;stroke-miterlimit:10" d="m13.27.002 8.849 8.844" transform="matrix(1 0 0 -1 .983 9.791)"/></g><g clip-path="url(#c)"><path style="fill:none;stroke-width:.3985;stroke-linecap:butt;stroke-linejoin:miter;stroke:#000;stroke-opacity:1;stroke-miterlimit:10" d="m26.54.002 8.848 8.844" transform="matrix(1 0 0 -1 .983 9.791)"/></g></svg>