<svg xmlns="http://www.w3.org/2000/svg" width="119.619" height="80.067" viewBox="0 0 89.714 60.05" version="1.2"><defs><clipPath id="a"><path d="M0 0h89.57v59.574H0Zm0 0"/></clipPath></defs><path style="fill:none;stroke-width:.19925;stroke-linecap:butt;stroke-linejoin:miter;stroke:gray;stroke-opacity:1;stroke-miterlimit:10" d="M0 0h85.04M0 28.349h85.04M0 56.684h85.04M0 .001v56.691M28.348.001v56.691M56.695.001v56.691M85.031.001v56.691" transform="matrix(1 0 0 -1 2.957 58.2)"/><path style="stroke:none;fill-rule:nonzero;fill:#d2c92a;fill-opacity:1" d="m2.957 58.2 8.664-5.513.785 2.364 8.664-5.516.79 2.363 8.663-5.511.786 2.363 8.664-5.516.789 2.364 8.664-5.512.785 2.363 8.664-5.515.79 2.363 8.663-5.512.785 2.363 8.664-5.511.79 2.36 8.663-5.513.786 2.364-2.536-10 2.493-.004-9.391-7.168 2.191-1.18-10.71-3.543 1.632-1.883-10.804-1.148 1.113-2.23-10.656.699.656-2.403-10.34 2.32.25-2.476-9.844 3.816-.14-2.484-9.098 5.387-.539-2.434-7.934 7.074-.98-2.289-6.02 8.903L5.875 16.8 3.242 27.516 1.2 26.09l2.98 11.187-2.464-.363 3.734 10.059H2.957l2.492 9.96H2.957Zm0 0"/><g clip-path="url(#a)"><path style="fill:none;stroke-width:.3985;stroke-linecap:butt;stroke-linejoin:miter;stroke:#000;stroke-opacity:1;stroke-miterlimit:10" d="m0 0 8.664 5.513.785-2.364 8.664 5.516.79-2.363 8.663 5.511.786-2.363 8.664 5.516.789-2.364 8.664 5.512.785-2.363 8.664 5.515.79-2.363 8.663 5.512.785-2.363 8.664 5.511.79-2.36 8.663 5.513.786-2.364-2.536 10 2.493.004-9.391 7.168 2.191 1.18-10.71 3.543 1.632 1.883-10.804 1.148 1.113 2.23-10.656-.699.656 2.403-10.34-2.32.25 2.476-9.844-3.816-.14 2.484-9.098-5.387-.539 2.434-7.934-7.074-.98 2.289-6.02-8.903L2.918 41.4.285 30.684l-2.043 1.426 2.98-11.187-2.464.363 3.734-10.059H0l2.492-9.96H0Zm0 0" transform="matrix(1 0 0 -1 2.957 58.2)"/></g></svg>