<svg xmlns="http://www.w3.org/2000/svg" width="135.517" height="60.195" viewBox="0 0 101.638 45.146" version="1.2"><defs><clipPath id="a"><path d="M71 0h30v30H71Zm0 0"/></clipPath><clipPath id="b"><path d="M100.043 15.164c0-7.828-6.348-14.176-14.176-14.176S71.695 7.336 71.695 15.164c0 7.824 6.344 14.172 14.172 14.172s14.176-6.348 14.176-14.172Zm0 0"/></clipPath><clipPath id="c"><path d="M60 0h41.457v41H60Zm0 0"/></clipPath></defs><path style="fill:none;stroke-width:.3985;stroke-linecap:butt;stroke-linejoin:miter;stroke:#000;stroke-opacity:1;stroke-miterlimit:10" d="M0 .001h2.098V2.1h2.101V0h2.102V2.1H4.199V4.2h2.102v2.098h2.098V8.4H10.5V6.298h2.098V4.2h2.101V2.1h-2.101V0h2.101V2.1h2.098V0h2.102V2.1h-2.102V4.2h2.102v2.098h-2.102V4.2h-2.098v2.098h-2.101V8.4H10.5v2.097h2.098V12.6h2.101v2.098h2.098v-2.098h2.102v2.098h-2.102v2.101h2.102v2.098h2.097v2.101h2.102v-2.101h2.097v2.101h-2.097V23.1h2.097v2.098h2.102v2.101h2.098v-2.101h2.101v-2.098h2.098v-2.102h-2.098v-2.101h2.098v2.101h2.101v-2.101h2.102v-2.098h2.098v-2.101h-2.098v-2.098h2.098v2.098h2.101v-2.098h2.098v-2.102h2.101V8.4h-2.101V6.298h-2.098V4.2h-2.101v2.098h-2.098V4.2h2.098V2.1h-2.098V0h2.098V2.1h2.101V0h2.098V2.1h-2.098V4.2h2.098v2.098h2.101V8.4h2.098V6.298h2.102V4.2h2.097V2.1h-2.097V0h2.097V2.1h2.102V0h2.101" transform="matrix(1 0 0 -1 .828 43.509)"/><path style="fill:none;stroke-width:.19925;stroke-linecap:butt;stroke-linejoin:miter;stroke:red;stroke-opacity:1;stroke-miterlimit:10" d="M50.078 8.505a4.725 4.725 0 1 1-9.45-.004 4.725 4.725 0 0 1 9.45.004Zm0 0" transform="matrix(1 0 0 -1 .828 43.509)"/><g clip-path="url(#a)"><g clip-path="url(#b)"><path style="fill:none;stroke-width:.3985;stroke-linecap:butt;stroke-linejoin:miter;stroke:#000;stroke-opacity:1;stroke-miterlimit:10" d="M0 0h2.1v2.1h2.1V0h2.099v2.1h-2.1v2.1h2.1v2.1h2.1v2.098h2.099V6.3h2.1V4.2h2.1V2.1h-2.1V0h2.1v2.1h2.1V0h2.1v2.1h-2.1v2.1h2.1v2.1h-2.1V4.2h-2.1v2.1h-2.1v2.098H10.5v2.1h2.1v2.1h2.1v2.1h2.098v-2.1h2.1v2.1h-2.1v2.1h2.1v2.099h2.1v2.1h2.1v-2.1h2.1v2.1h-2.1v2.1h2.1v2.1h2.1v2.1h2.1v-2.1h2.098v-2.1h2.1v-2.1h-2.1v-2.1h2.1v2.1h2.1v-2.1h2.1v-2.099h2.1v-2.1h-2.1v-2.1h2.1v2.1h2.1v-2.1h2.1v-2.1h2.098V8.4h-2.099V6.3h-2.1V4.2h-2.099v2.1h-2.1V4.2h2.1V2.1h-2.1V0h2.1v2.1h2.1V0h2.1v2.1h-2.1v2.1h2.1v2.1h2.1v2.1h2.099V6.3h2.1V4.2h2.1V2.1h-2.1V0h2.1v2.1h2.1V0h2.1" transform="matrix(3 0 0 -3 -50.197 40.675)"/></g></g><g clip-path="url(#c)"><path style="fill:none;stroke-width:.79701;stroke-linecap:butt;stroke-linejoin:miter;stroke:red;stroke-opacity:1;stroke-miterlimit:10" d="M99.215 28.345c0 7.828-6.348 14.176-14.176 14.176s-14.172-6.348-14.172-14.176c0-7.824 6.344-14.172 14.172-14.172s14.176 6.348 14.176 14.172Zm0 0" transform="matrix(1 0 0 -1 .828 43.509)"/></g><path style="fill:none;stroke-width:.3985;stroke-linecap:butt;stroke-linejoin:miter;stroke:red;stroke-opacity:1;stroke-miterlimit:10" d="M49.582 10.618 72.363 22.01" transform="matrix(1 0 0 -1 .828 43.509)"/></svg>