<svg xmlns="http://www.w3.org/2000/svg" width="29.245" height="7.515" viewBox="0 0 21.934 5.636" version="1.2"><defs><clipPath id="a"><path d="M5 0h16v5.453H5Zm0 0"/></clipPath><clipPath id="b"><path d="M11 0h10.902v5.453H11Zm0 0"/></clipPath></defs><path style="fill:none;stroke-width:.3985;stroke-linecap:butt;stroke-linejoin:miter;stroke:#000;stroke-opacity:1;stroke-miterlimit:10" d="M0 2.21h11.083" transform="matrix(1 0 0 -1 .976 4.851)"/><path style="stroke:none;fill-rule:nonzero;fill:#000;fill-opacity:1" d="m14.555 2.64-3.57-1.347 1.175 1.348-1.176 1.343Zm0 0"/><g clip-path="url(#a)"><path style="fill:none;stroke-width:.3985;stroke-linecap:butt;stroke-linejoin:miter;stroke:#000;stroke-opacity:1;stroke-miterlimit:10" d="M4.214-.001.644 1.346 1.818 0 .643-1.345Zm0 0" transform="matrix(1 0 0 -1 10.341 2.64)"/></g><path style="stroke:none;fill-rule:nonzero;fill:#000;fill-opacity:1" d="m20.336 2.64-3.574-1.347 1.175 1.348-1.175 1.343Zm0 0"/><g clip-path="url(#b)"><path style="fill:none;stroke-width:.3985;stroke-linecap:butt;stroke-linejoin:miter;stroke:#000;stroke-opacity:1;stroke-miterlimit:10" d="M4.217-.001.642 1.346 1.818 0 .642-1.345Zm0 0" transform="matrix(1 0 0 -1 16.12 2.64)"/></g></svg>