<svg xmlns="http://www.w3.org/2000/svg" xmlns:xlink="http://www.w3.org/1999/xlink" width="352.781" height="231.843" viewBox="0 0 264.586 173.882" version="1.2"><defs><symbol overflow="visible" id="a"><path style="stroke:none" d="M3.89-3.734c-.265.015-.468.234-.468.453 0 .14.094.297.312.297.22 0 .454-.172.454-.563 0-.453-.422-.86-1.188-.86-1.313 0-1.688 1.016-1.688 1.454 0 .781.735.922 1.032.984.515.11 1.031.219 1.031.766 0 .25-.219 1.094-1.422 1.094-.14 0-.906 0-1.14-.532.39.047.64-.25.64-.53 0-.22-.172-.345-.375-.345-.266 0-.562.204-.562.657 0 .562.578.968 1.421.968 1.625 0 2.016-1.203 2.016-1.656a.97.97 0 0 0-.312-.719c-.266-.28-.563-.343-1-.421-.36-.079-.75-.157-.75-.61 0-.281.234-.89 1.109-.89.25 0 .75.078.89.453Zm0 0"/></symbol><symbol overflow="visible" id="b"><path style="stroke:none" d="M6.734-5.922c.11-.047.188-.094.188-.219a.197.197 0 0 0-.203-.203c-.047 0-.14.047-.172.063L1.03-3.671c-.172.077-.203.14-.203.218 0 .094.063.156.203.219L6.547-.641c.125.079.14.079.172.079.11 0 .203-.094.203-.204 0-.093-.047-.156-.219-.234L1.5-3.453ZM6.563 1.36c.171 0 .359 0 .359-.187 0-.203-.219-.203-.36-.203H1.188c-.156 0-.359 0-.359.203 0 .187.172.187.344.187Zm0 0"/></symbol><symbol overflow="visible" id="c"><path style="stroke:none" d="M2.89-3.516c.813-.265 1.391-.953 1.391-1.75 0-.812-.875-1.375-1.828-1.375-1 0-1.765.594-1.765 1.36 0 .328.218.515.515.515.297 0 .5-.218.5-.515 0-.485-.469-.485-.61-.485.298-.5.954-.625 1.313-.625.422 0 .969.22.969 1.11 0 .125-.031.703-.281 1.14-.297.485-.64.516-.89.516a3.29 3.29 0 0 1-.392.031c-.078.016-.14.031-.14.125 0 .11.062.11.234.11h.438c.812 0 1.187.671 1.187 1.656 0 1.36-.687 1.64-1.125 1.64-.437 0-1.187-.171-1.531-.75.344.047.656-.171.656-.546a.537.537 0 0 0-.547-.563c-.25 0-.562.14-.562.578C.422-.437 1.344.22 2.437.22c1.22 0 2.126-.906 2.126-1.922 0-.813-.641-1.594-1.672-1.813Zm0 0"/></symbol><symbol overflow="visible" id="f"><path style="stroke:none" d="M4.281-5.578v-.297H.688v.297Zm0 0"/></symbol><symbol overflow="visible" id="e"><path style="stroke:none" d="M5.156-2.219h-.468c-.032.203-.125.844-.266.906-.11.063-.86.063-1.016.063H1.937c.47-.39 1-.813 1.438-1.14 1.14-.844 1.781-1.313 1.781-2.25 0-1.157-1.047-1.891-2.437-1.891-1.219 0-2.156.625-2.156 1.515 0 .594.484.735.718.735C1.61-4.281 2-4.5 2-5c0-.516-.422-.672-.563-.719.282-.234.672-.343 1.032-.343.844 0 1.312.671 1.312 1.421 0 .688-.375 1.375-1.078 2.079l-2 2.046c-.14.11-.14.141-.14.344V0h4.28Zm0 0"/></symbol><symbol overflow="visible" id="h"><path style="stroke:none" d="M4.406-3.672c0-.531-.531-.812-1.062-.812-.688 0-1.094.5-1.313 1.125v-1.125l-1.656.078v.468c.61 0 .688 0 .688.391v3.078H.375V0l1.25-.031C2-.031 2.641-.031 3 0v-.469h-.86v-1.75c0-.687.235-1.906 1.235-1.906 0 0-.188.172-.188.453 0 .406.329.61.61.61.297 0 .61-.204.61-.61Zm0 0"/></symbol><symbol overflow="visible" id="i"><path style="stroke:none" d="M4.922-1.172c0-.172-.188-.172-.234-.172-.172 0-.188.047-.25.203-.204.485-.782.797-1.422.797-1.407 0-1.422-1.328-1.422-1.828h3.015c.22 0 .313 0 .313-.265 0-.313-.063-1.047-.563-1.547-.359-.36-.89-.532-1.578-.532C1.187-4.516.312-3.484.312-2.25c0 1.344 1 2.313 2.61 2.313 1.578 0 2-1.063 2-1.235ZM3.984-2.5h-2.39c.015-.39.031-.813.234-1.14.266-.391.672-.516.953-.516 1.172 0 1.188 1.312 1.203 1.656Zm0 0"/></symbol><symbol overflow="visible" id="j"><path style="stroke:none" d="M5.984-2.219c0-1.328-.906-2.265-2.343-2.265-.75 0-1.282.312-1.5.484v-.484l-1.766.078v.468c.61 0 .688 0 .688.376v5.03H.375v.47l1.25-.032 1.25.032v-.47h-.688V-.39A2.01 2.01 0 0 0 3.47.063c1.5 0 2.515-.907 2.515-2.282Zm-1.28 0C4.703-.813 4-.297 3.358-.297c-.14 0-.609 0-1.062-.547-.11-.125-.11-.14-.11-.328v-2.11c0-.187.016-.202.157-.343.39-.406.922-.469 1.14-.469.657 0 1.22.61 1.22 1.875Zm0 0"/></symbol><symbol overflow="visible" id="k"><path style="stroke:none" d="M2.922 0v-.469h-.688v-6.453L.47-6.844v.469c.625 0 .687 0 .687.39v5.516H.47V0l1.219-.031Zm0 0"/></symbol><symbol overflow="visible" id="l"><path style="stroke:none" d="M5.516-.234c0-.235-.125-.235-.266-.235-.61-.015-.61-.14-.61-.375v-2.14c0-.891-.702-1.532-2.187-1.532-.562 0-1.781.047-1.781.922 0 .438.344.625.61.625.312 0 .624-.219.624-.625 0-.297-.187-.469-.218-.5a5.28 5.28 0 0 1 .718-.062c.75 0 1.11.422 1.11 1.172v.343c-.72.032-3.25.125-3.25 1.563C.266-.125 1.5.062 2.187.062c.797 0 1.266-.406 1.485-.828 0 .313 0 .766 1.047.766h.468c.204 0 .329 0 .329-.234Zm-2-1.157c0 .97-.922 1.094-1.172 1.094-.516 0-.906-.344-.906-.797 0-1.062 1.578-1.203 2.078-1.234Zm0 0"/></symbol><symbol overflow="visible" id="m"><path style="stroke:none" d="M4.766-1.172c0-.14-.141-.14-.235-.14-.187 0-.187.03-.25.156-.25.625-.734.812-1.234.812-1.39 0-1.39-1.453-1.39-1.922 0-.562 0-1.843 1.28-1.843.36 0 .516.015.657.046a.618.618 0 0 0-.203.47c0 .437.343.624.609.624.313 0 .64-.219.64-.625 0-.86-1.156-.922-1.734-.922C1.11-4.516.375-3.375.375-2.219.375-.89 1.313.062 2.844.062c1.625 0 1.922-1.156 1.922-1.234Zm0 0"/></symbol><symbol overflow="visible" id="n"><path style="stroke:none" d="M9.328 0v-.469h-.687v-2.578c0-1.031-.516-1.437-1.547-1.437-.907 0-1.422.5-1.688.953-.187-.922-1.11-.953-1.484-.953-.875 0-1.438.453-1.766 1.078v-1.078l-1.703.078v.468c.61 0 .688 0 .688.391v3.078H.453V0l1.25-.031L2.953 0v-.469h-.687v-2.078c0-1.094.875-1.578 1.5-1.578.328 0 .546.203.546.969V-.47h-.687V0l1.266-.031L6.14 0v-.469h-.688v-2.078c0-1.094.86-1.578 1.484-1.578.344 0 .563.203.563.969V-.47h-.688V0l1.25-.031Zm0 0"/></symbol><symbol overflow="visible" id="o"><path style="stroke:none" d="M6.125 0v-.469h-.688v-2.578c0-1.047-.53-1.437-1.53-1.437-.954 0-1.485.562-1.75 1.078v-1.078l-1.704.078v.468c.61 0 .688 0 .688.391v3.078H.453V0l1.25-.031L2.953 0v-.469h-.687v-2.078c0-1.094.859-1.578 1.5-1.578.328 0 .546.203.546.969V-.47h-.687V0l1.25-.031Zm0 0"/></symbol><symbol overflow="visible" id="p"><path style="stroke:none" d="M3.813-1.234v-.532h-.47v.516c0 .672-.327.906-.609.906-.578 0-.578-.64-.578-.86v-2.75h1.469v-.468H2.156v-1.906h-.469c0 1-.484 1.984-1.484 2.016v.359h.828v2.734c0 1.063.86 1.282 1.578 1.282.75 0 1.204-.579 1.204-1.297Zm0 0"/></symbol><symbol overflow="visible" id="q"><path style="stroke:none" d="M5.406-2.172c0-1.344-.922-2.344-2.547-2.344C1.22-4.516.313-3.5.313-2.172c0 1.235.89 2.235 2.546 2.235 1.672 0 2.547-1.016 2.547-2.235Zm-1.281-.11c0 .86 0 1.938-1.266 1.938-1.265 0-1.265-1.078-1.265-1.937 0-.453 0-.953.172-1.297.187-.375.609-.578 1.093-.578.422 0 .844.156 1.063.5.203.344.203.89.203 1.375Zm0 0"/></symbol><symbol overflow="visible" id="r"><path style="stroke:none" d="M4.36-6.11c0-.421-.36-.874-1.141-.874-.969 0-2.047.421-2.047 1.546v1.016h-.75v.469h.75V-.47H.484V0l1.25-.031c.375 0 1.016 0 1.375.031v-.469H2.25v-3.484h1.14v-.469H2.188v-1.016c0-1.093.75-1.187 1-1.187.047 0 .11 0 .172.031a.585.585 0 0 0-.234.485c0 .421.36.609.61.609.296 0 .624-.203.624-.61Zm0 0"/></symbol><symbol overflow="visible" id="s"><path style="stroke:none" d="M6.125 0v-.469h-.688v-2.578c0-1.047-.53-1.437-1.53-1.437a1.9 1.9 0 0 0-1.688.953v-3.39l-1.766.077v.469c.61 0 .688 0 .688.39v5.516H.453V0l1.25-.031L2.953 0v-.469h-.687v-2.078c0-1.094.859-1.578 1.5-1.578.328 0 .546.203.546.969V-.47h-.687V0l1.25-.031Zm0 0"/></symbol><symbol overflow="visible" id="t"><path style="stroke:none" d="M2.844 0v-.469h-.61v-4.015L.5-4.406v.468c.594 0 .656 0 .656.391v3.078H.47V0l1.219-.031Zm-.469-6.047a.774.774 0 0 0-.781-.781.784.784 0 0 0-.782.781c0 .422.36.766.782.766a.77.77 0 0 0 .781-.766Zm0 0"/></symbol><symbol overflow="visible" id="u"><path style="stroke:none" d="M5.781-3.953v-.469A12.55 12.55 0 0 1 5-4.39l-.906-.03v.468s.468 0 .468.11L4.5-3.72 3.36-1.266 2.093-3.953h.531v-.469l-1.234.031-1.125-.03v.468H.89L2.766 0 2.53.484C2.312.954 2 1.641 1.281 1.641c-.14 0-.156-.016-.234-.047.094-.032.312-.172.312-.532C1.36.734 1.125.5.781.5a.553.553 0 0 0-.562.578c0 .5.469.922 1.062.922.766 0 1.344-.625 1.625-1.188l2.14-4.562c.063-.14.095-.203.735-.203Zm0 0"/></symbol><symbol overflow="visible" id="v"><path style="stroke:none" d="M5.984-2.219c0-1.328-.937-2.265-2.39-2.265-.719 0-1.219.28-1.453.484v-2.922l-1.766.078v.469c.61 0 .688 0 .688.39V0h.468c.157-.188.328-.375.485-.563.078.079.562.625 1.453.625 1.484 0 2.515-.906 2.515-2.28Zm-1.28 0c0 .469 0 1.016-.25 1.406-.298.407-.75.516-1.079.516-.688 0-1.078-.547-1.188-.687v-2.5c.282-.36.75-.641 1.297-.641 1.22 0 1.22 1.203 1.22 1.906Zm0 0"/></symbol><symbol overflow="visible" id="w"><path style="stroke:none" d="M8.031-3.953v-.469a12.55 12.55 0 0 1-.781.031l-.953-.03v.468c.094 0 .578 0 .578.11 0 .03-.031.093-.031.124L5.797-1.172l-1.14-2.781h.562v-.469l-1.14.031c-.423 0-.845-.03-1-.03v.468h.593c.203.5.203.531.203.531 0 .031-.031.094-.031.125L3.047-1.39 2-3.953h.563v-.469l-1.235.031L.25-4.42v.468h.594L2.359-.234c.079.172.11.28.36.28s.297-.108.36-.28L4.14-2.813 5.187-.233c.079.172.11.28.36.28s.297-.108.36-.28L7.343-3.75c.047-.125.093-.203.687-.203Zm0 0"/></symbol><symbol overflow="visible" id="x"><path style="stroke:none" d="M4.14-1.39c0-.438-.202-.782-.546-1.063-.39-.281-.719-.344-1.485-.485-.375-.062-1.015-.171-1.015-.64 0-.625.922-.625 1.11-.625.75 0 1.124.297 1.171.844.016.156.031.203.234.203.235 0 .235-.047.235-.281v-.797c0-.188 0-.282-.172-.282-.047 0-.063 0-.453.188-.266-.125-.61-.188-1-.188-.313 0-1.844 0-1.844 1.313 0 .39.203.656.406.828.39.344.781.406 1.547.547.36.062 1.094.187 1.094.781 0 .75-.906.75-1.125.75C1.234-.297.984-1.03.859-1.453c-.046-.14-.109-.14-.234-.14-.25 0-.25.062-.25.28v1.094c0 .188 0 .281.188.281.062 0 .078 0 .296-.156l.25-.172c.47.329.985.329 1.188.329.312 0 1.844 0 1.844-1.454Zm0 0"/></symbol><clipPath id="d"><path d="M27 140h40v33.824H27Zm0 0"/></clipPath><clipPath id="g"><path d="M197 140h40v33.824h-40Zm0 0"/></clipPath></defs><path style="stroke:none;fill-rule:nonzero;fill:#e5e5e5;fill-opacity:1" d="M89.305.957H4.797A3.984 3.984 0 0 0 .813 4.945v163.88c0 2.198 1.78 3.984 3.984 3.984h84.508c2.199 0 3.984-1.786 3.984-3.985V4.945A3.987 3.987 0 0 0 89.305.957ZM259.387.957h-84.512a3.987 3.987 0 0 0-3.984 3.988v163.88c0 2.198 1.785 3.984 3.984 3.984h84.512c2.199 0 3.984-1.786 3.984-3.985V4.945a3.987 3.987 0 0 0-3.984-3.988Zm0 0"/><path style="fill-rule:nonzero;fill:#ccf;fill-opacity:1;stroke-width:.79701;stroke-linecap:butt;stroke-linejoin:miter;stroke:#4040ff;stroke-opacity:1;stroke-miterlimit:10" d="M8.505-.002c0 4.7-3.809 8.504-8.504 8.504A8.5 8.5 0 0 1-8.503-.002 8.503 8.503 0 0 1 0-8.505 8.506 8.506 0 0 1 8.505-.002Zm0 0" transform="matrix(1 0 0 -1 47.05 13.182)"/><path style="stroke:none;fill-rule:nonzero;fill:#000;fill-opacity:1" d="M49.262 13.184a2.212 2.212 0 0 0-2.211-2.215 2.212 2.212 0 0 0 0 4.426c1.222 0 2.21-.993 2.21-2.211Zm0 0"/><path style="fill-rule:nonzero;fill:#ccf;fill-opacity:1;stroke-width:.79701;stroke-linecap:butt;stroke-linejoin:miter;stroke:#4040ff;stroke-opacity:1;stroke-miterlimit:10" d="M8.505-36.85A8.506 8.506 0 0 1 0-28.344a8.503 8.503 0 0 1-8.504-8.504A8.5 8.5 0 0 1 0-45.353a8.503 8.503 0 0 1 8.504 8.504ZM8.505-73.7A8.506 8.506 0 0 1 0-65.198 8.503 8.503 0 0 1-8.503-73.7 8.5 8.5 0 0 1 0-82.205 8.503 8.503 0 0 1 8.505-73.7Zm0 0" transform="matrix(1 0 0 -1 47.05 13.182)"/><use xlink:href="#a" x="35.582" y="73.106" style="fill:red;fill-opacity:1"/><use xlink:href="#b" x="43.02" y="73.106" style="fill:red;fill-opacity:1"/><use xlink:href="#c" x="53.536" y="73.106" style="fill:red;fill-opacity:1"/><path style="fill-rule:nonzero;fill:#ccf;fill-opacity:1;stroke-width:.79701;stroke-linecap:butt;stroke-linejoin:miter;stroke:#4040ff;stroke-opacity:1;stroke-miterlimit:10" d="M8.505-110.552A8.506 8.506 0 0 1 0-102.048a8.503 8.503 0 0 1-8.504-8.504A8.503 8.503 0 0 1 0-119.056a8.506 8.506 0 0 1 8.504 8.504Zm0 0" transform="matrix(1 0 0 -1 47.05 13.182)"/><path style="stroke:none;fill-rule:nonzero;fill:#ccf;fill-opacity:1" d="M55.555 160.586a8.506 8.506 0 0 0-8.504-8.504 8.503 8.503 0 0 0-8.504 8.504 8.503 8.503 0 0 0 8.504 8.504 8.506 8.506 0 0 0 8.504-8.504Zm0 0"/><g clip-path="url(#d)"><path style="fill:none;stroke-width:.79701;stroke-linecap:butt;stroke-linejoin:miter;stroke:#4040ff;stroke-opacity:1;stroke-miterlimit:10" d="M8.505-147.404A8.506 8.506 0 0 1 0-138.9a8.503 8.503 0 0 1-8.504-8.504A8.503 8.503 0 0 1 0-155.908a8.506 8.506 0 0 1 8.504 8.504Zm0 0" transform="matrix(1 0 0 -1 47.05 13.182)"/></g><path style="stroke:none;fill-rule:nonzero;fill:#000;fill-opacity:1" d="M49.262 160.586c0-1.223-.989-2.211-2.211-2.211-1.223 0-2.211.988-2.211 2.21 0 1.224.988 2.212 2.21 2.212 1.223 0 2.212-.988 2.212-2.211Zm0 0"/><path style="fill-rule:nonzero;fill:#ccc;fill-opacity:1;stroke-width:.79701;stroke-linecap:butt;stroke-linejoin:miter;stroke:#404040;stroke-opacity:1;stroke-miterlimit:10" d="M-42.519-42.521h11.336v11.34h-11.336Zm0 0" transform="matrix(1 0 0 -1 47.05 13.182)"/><path style="fill:none;stroke-width:.3985;stroke-linecap:butt;stroke-linejoin:miter;stroke:#000;stroke-opacity:1;stroke-miterlimit:10" d="M-36.8-27.095C-35.69-12.525-23.874-.725-8.902-.002" transform="matrix(1 0 0 -1 47.05 13.182)"/><path style="fill-rule:nonzero;fill:#000;fill-opacity:1;stroke-width:.3985;stroke-linecap:butt;stroke-linejoin:round;stroke:#000;stroke-opacity:1;stroke-miterlimit:10" d="M4.214.002.644 1.344 1.818 0 .644-1.345Zm0 0" transform="matrix(-.03326 .99942 .99942 .03326 10.314 38.558)"/><path style="fill:none;stroke-width:.3985;stroke-linecap:butt;stroke-linejoin:miter;stroke:#000;stroke-opacity:1;stroke-miterlimit:10" d="M-36.85-42.92c-.723-14.972 9.886-27.867 24.28-30.375" transform="matrix(1 0 0 -1 47.05 13.182)"/><path style="fill-rule:nonzero;fill:#000;fill-opacity:1;stroke-width:.3985;stroke-linecap:butt;stroke-linejoin:round;stroke:#000;stroke-opacity:1;stroke-miterlimit:10" d="M4.216 0 .645 1.348 1.817 0 .645-1.344Zm0 0" transform="matrix(.99155 .12933 .12933 -.99155 32.776 86.248)"/><path style="fill:none;stroke-width:.3985;stroke-linecap:butt;stroke-linejoin:miter;stroke:#000;stroke-opacity:1;stroke-miterlimit:10" d="M-30.784-36.85h18.191" transform="matrix(1 0 0 -1 47.05 13.182)"/><path style="fill-rule:nonzero;fill:#000;fill-opacity:1;stroke-width:.3985;stroke-linecap:butt;stroke-linejoin:round;stroke:#000;stroke-opacity:1;stroke-miterlimit:10" d="M4.216.002.642 1.345 1.817.002.642-1.346Zm0 0" transform="matrix(1 0 0 -1 32.737 50.033)"/><path style="fill-rule:nonzero;fill:#ccc;fill-opacity:1;stroke-width:.79701;stroke-linecap:butt;stroke-linejoin:miter;stroke:#404040;stroke-opacity:1;stroke-miterlimit:10" d="M-42.519-116.22h11.336v11.336h-11.336Zm0 0" transform="matrix(1 0 0 -1 47.05 13.182)"/><path style="fill:none;stroke-width:.3985;stroke-linecap:butt;stroke-linejoin:miter;stroke:#000;stroke-opacity:1;stroke-miterlimit:10" d="M-36.8-120.31c1.11-14.57 12.926-26.371 27.898-27.094" transform="matrix(1 0 0 -1 47.05 13.182)"/><path style="fill-rule:nonzero;fill:#000;fill-opacity:1;stroke-width:.3985;stroke-linecap:butt;stroke-linejoin:round;stroke:#000;stroke-opacity:1;stroke-miterlimit:10" d="M4.216-.002.642 1.345 1.817 0 .642-1.344Zm0 0" transform="scale(-.99997 .99997) rotate(-88.094 64.737 72.939)"/><path style="fill:none;stroke-width:.3985;stroke-linecap:butt;stroke-linejoin:miter;stroke:#000;stroke-opacity:1;stroke-miterlimit:10" d="M-36.85-104.486c-.723 14.973 9.886 27.871 24.28 30.379" transform="matrix(1 0 0 -1 47.05 13.182)"/><path style="fill-rule:nonzero;fill:#000;fill-opacity:1;stroke-width:.3985;stroke-linecap:butt;stroke-linejoin:round;stroke:#000;stroke-opacity:1;stroke-miterlimit:10" d="M4.216.001.646 1.346l1.17-1.347L.646-1.345Zm0 0" transform="scale(.99995 -.99995) rotate(7.431 690.26 208.606)"/><path style="fill:none;stroke-width:.3985;stroke-linecap:butt;stroke-linejoin:miter;stroke:#000;stroke-opacity:1;stroke-miterlimit:10" d="M-30.784-110.552h18.191" transform="matrix(1 0 0 -1 47.05 13.182)"/><path style="fill-rule:nonzero;fill:#000;fill-opacity:1;stroke-width:.3985;stroke-linecap:butt;stroke-linejoin:round;stroke:#000;stroke-opacity:1;stroke-miterlimit:10" d="M4.216 0 .642 1.344 1.817 0 .642-1.347Zm0 0" transform="matrix(1 0 0 -1 32.737 123.735)"/><path style="fill-rule:nonzero;fill:#ccc;fill-opacity:1;stroke-width:.79701;stroke-linecap:butt;stroke-linejoin:miter;stroke:#404040;stroke-opacity:1;stroke-miterlimit:10" d="M31.18-42.521h11.34v11.34H31.18Zm0 0" transform="matrix(1 0 0 -1 47.05 13.182)"/><path style="fill:none;stroke-width:.3985;stroke-linecap:butt;stroke-linejoin:miter;stroke:#000;stroke-opacity:1;stroke-miterlimit:10" d="M27.09-36.85H8.904" transform="matrix(1 0 0 -1 47.05 13.182)"/><path style="fill-rule:nonzero;fill:#000;fill-opacity:1;stroke-width:.3985;stroke-linecap:butt;stroke-linejoin:round;stroke:#000;stroke-opacity:1;stroke-miterlimit:10" d="M4.214.002.644 1.345 1.818.002.643-1.346Zm0 0" transform="matrix(1 0 0 -1 72.423 50.033)"/><path style="fill:none;stroke-width:.3985;stroke-linecap:butt;stroke-linejoin:miter;stroke:#000;stroke-opacity:1;stroke-miterlimit:10" d="M36.802-46.607c-1.114-14.57-12.926-26.371-27.899-27.094" transform="matrix(1 0 0 -1 47.05 13.182)"/><path style="fill-rule:nonzero;fill:#000;fill-opacity:1;stroke-width:.3985;stroke-linecap:butt;stroke-linejoin:round;stroke:#000;stroke-opacity:1;stroke-miterlimit:10" d="M4.214 0 .644 1.347 1.817-.002.643-1.346Zm0 0" transform="scale(.99997 -.99997) rotate(88.094 73.69 12.556)"/><path style="fill:none;stroke-width:.3985;stroke-linecap:butt;stroke-linejoin:miter;stroke:#000;stroke-opacity:1;stroke-miterlimit:10" d="M36.852-30.783c.723 14.973-9.886 27.867-24.285 30.38" transform="matrix(1 0 0 -1 47.05 13.182)"/><path style="fill-rule:nonzero;fill:#000;fill-opacity:1;stroke-width:.3985;stroke-linecap:butt;stroke-linejoin:round;stroke:#000;stroke-opacity:1;stroke-miterlimit:10" d="M4.214.001.643 1.347 1.819 0 .644-1.347Zm0 0" transform="scale(-.99995 .99995) rotate(-7.431 75.726 479.081)"/><use xlink:href="#e" x="79.821" y="19.265" style="fill:#000;fill-opacity:1"/><path style="fill-rule:nonzero;fill:#ccc;fill-opacity:1;stroke-width:.79701;stroke-linecap:butt;stroke-linejoin:miter;stroke:#404040;stroke-opacity:1;stroke-miterlimit:10" d="M31.18-116.22h11.34v11.336H31.18Zm0 0" transform="matrix(1 0 0 -1 47.05 13.182)"/><path style="fill:none;stroke-width:.3985;stroke-linecap:butt;stroke-linejoin:miter;stroke:#000;stroke-opacity:1;stroke-miterlimit:10" d="M27.09-110.552H8.904" transform="matrix(1 0 0 -1 47.05 13.182)"/><path style="fill-rule:nonzero;fill:#000;fill-opacity:1;stroke-width:.3985;stroke-linecap:butt;stroke-linejoin:round;stroke:#000;stroke-opacity:1;stroke-miterlimit:10" d="M4.214 0 .644 1.344 1.818 0 .643-1.347Zm0 0" transform="matrix(1 0 0 -1 72.423 123.735)"/><path style="fill:none;stroke-width:.3985;stroke-linecap:butt;stroke-linejoin:miter;stroke:#000;stroke-opacity:1;stroke-miterlimit:10" d="M36.802-100.795C35.688-86.228 23.876-74.423 8.903-73.7" transform="matrix(1 0 0 -1 47.05 13.182)"/><path style="fill-rule:nonzero;fill:#000;fill-opacity:1;stroke-width:.3985;stroke-linecap:butt;stroke-linejoin:round;stroke:#000;stroke-opacity:1;stroke-miterlimit:10" d="M4.216 0 .645 1.346 1.82.002.645-1.347Zm0 0" transform="matrix(.03326 .99942 .99942 -.03326 83.786 112.26)"/><path style="fill:none;stroke-width:.3985;stroke-linecap:butt;stroke-linejoin:miter;stroke:#000;stroke-opacity:1;stroke-miterlimit:10" d="M36.852-116.619c.723-14.972-9.886-27.87-24.285-30.379" transform="matrix(1 0 0 -1 47.05 13.182)"/><path style="fill-rule:nonzero;fill:#000;fill-opacity:1;stroke-width:.3985;stroke-linecap:butt;stroke-linejoin:round;stroke:#000;stroke-opacity:1;stroke-miterlimit:10" d="M4.215 0 .644 1.346 1.819-.002.643-1.346Zm0 0" transform="matrix(-.99155 .12933 .12933 .99155 61.324 159.95)"/><use xlink:href="#e" x="79.821" y="161.026" style="fill:#000;fill-opacity:1"/><path style="fill-rule:nonzero;fill:#ccf;fill-opacity:1;stroke-width:.79701;stroke-linecap:butt;stroke-linejoin:miter;stroke:#4040ff;stroke-opacity:1;stroke-miterlimit:10" d="M178.587-.002c0 4.7-3.809 8.504-8.504 8.504a8.504 8.504 0 1 1 0-17.008 8.506 8.506 0 0 1 8.504 8.504Zm0 0" transform="matrix(1 0 0 -1 47.05 13.182)"/><path style="stroke:none;fill-rule:nonzero;fill:#000;fill-opacity:1" d="M219.344 13.184a2.215 2.215 0 0 0-2.211-2.215 2.216 2.216 0 0 0-2.215 2.215 2.214 2.214 0 0 0 4.426 0Zm0 0"/><path style="fill-rule:nonzero;fill:#ccf;fill-opacity:1;stroke-width:.79701;stroke-linecap:butt;stroke-linejoin:miter;stroke:#4040ff;stroke-opacity:1;stroke-miterlimit:10" d="M178.587-36.85a8.506 8.506 0 0 1-8.504 8.505 8.504 8.504 0 1 1 0-17.008 8.503 8.503 0 0 1 8.504 8.504Zm0 0" transform="matrix(1 0 0 -1 47.05 13.182)"/><path style="fill-rule:nonzero;fill:#fcc;fill-opacity:1;stroke-width:.79701;stroke-linecap:butt;stroke-linejoin:miter;stroke:#ff4040;stroke-opacity:1;stroke-miterlimit:10" d="M164.41-73.7a8.506 8.506 0 0 1-8.503 8.503 8.506 8.506 0 0 1-8.504-8.504c0-4.699 3.809-8.504 8.504-8.504a8.503 8.503 0 0 1 8.504 8.504Zm0 0" transform="matrix(1 0 0 -1 47.05 13.182)"/><use xlink:href="#a" x="185.863" y="89.028" style="fill:red;fill-opacity:1"/><path style="fill-rule:nonzero;fill:#fcc;fill-opacity:1;stroke-width:.79701;stroke-linecap:butt;stroke-linejoin:miter;stroke:#ff4040;stroke-opacity:1;stroke-miterlimit:10" d="M192.759-73.7a8.506 8.506 0 0 1-8.504 8.503 8.506 8.506 0 0 1-8.504-8.504c0-4.699 3.808-8.504 8.504-8.504a8.503 8.503 0 0 1 8.504 8.504Zm0 0" transform="matrix(1 0 0 -1 47.05 13.182)"/><path style="stroke:none;fill-rule:nonzero;fill:#000;fill-opacity:1" d="M233.516 83.102c0-1.223-.989-2.211-2.211-2.211-1.223 0-2.211.988-2.211 2.21 0 1.223.988 2.212 2.21 2.212 1.223 0 2.212-.989 2.212-2.211ZM230.2 88.914c0-1.223-.993-2.21-2.212-2.21a2.212 2.212 0 0 0-2.215 2.21 2.212 2.212 0 0 0 4.426 0ZM236.832 88.914a2.211 2.211 0 1 0-4.42 0 2.211 2.211 0 0 0 4.42 0Zm0 0"/><use xlink:href="#f" x="244.122" y="89.711" style="fill:red;fill-opacity:1"/><use xlink:href="#a" x="243.724" y="89.711" style="fill:red;fill-opacity:1"/><path style="fill-rule:nonzero;fill:#ccf;fill-opacity:1;stroke-width:.79701;stroke-linecap:butt;stroke-linejoin:miter;stroke:#4040ff;stroke-opacity:1;stroke-miterlimit:10" d="M178.587-110.552a8.506 8.506 0 0 1-8.504 8.504c-4.7 0-8.508-3.81-8.508-8.504 0-4.696 3.809-8.504 8.508-8.504a8.506 8.506 0 0 1 8.504 8.504Zm0 0" transform="matrix(1 0 0 -1 47.05 13.182)"/><path style="stroke:none;fill-rule:nonzero;fill:#ccf;fill-opacity:1" d="M225.637 160.586a8.506 8.506 0 0 0-8.504-8.504c-4.7 0-8.508 3.809-8.508 8.504 0 4.695 3.809 8.504 8.508 8.504a8.506 8.506 0 0 0 8.504-8.504Zm0 0"/><g clip-path="url(#g)"><path style="fill:none;stroke-width:.79701;stroke-linecap:butt;stroke-linejoin:miter;stroke:#4040ff;stroke-opacity:1;stroke-miterlimit:10" d="M178.587-147.404a8.506 8.506 0 0 1-8.504 8.504c-4.7 0-8.508-3.809-8.508-8.504 0-4.695 3.809-8.504 8.508-8.504a8.506 8.506 0 0 1 8.504 8.504Zm0 0" transform="matrix(1 0 0 -1 47.05 13.182)"/></g><path style="stroke:none;fill-rule:nonzero;fill:#000;fill-opacity:1" d="M219.344 160.586a2.212 2.212 0 0 0-4.426 0 2.212 2.212 0 0 0 4.426 0Zm0 0"/><path style="fill-rule:nonzero;fill:#ccc;fill-opacity:1;stroke-width:.79701;stroke-linecap:butt;stroke-linejoin:miter;stroke:#404040;stroke-opacity:1;stroke-miterlimit:10" d="M127.56-42.521h11.34v11.34h-11.34Zm0 0" transform="matrix(1 0 0 -1 47.05 13.182)"/><path style="fill:none;stroke-width:.3985;stroke-linecap:butt;stroke-linejoin:miter;stroke:#000;stroke-opacity:1;stroke-miterlimit:10" d="M133.282-27.095c1.11 14.57 12.926 26.37 27.895 27.093" transform="matrix(1 0 0 -1 47.05 13.182)"/><path style="fill-rule:nonzero;fill:#000;fill-opacity:1;stroke-width:.3985;stroke-linecap:butt;stroke-linejoin:round;stroke:#000;stroke-opacity:1;stroke-miterlimit:10" d="M4.214-.001.644 1.346 1.818 0 .644-1.347Zm0 0" transform="matrix(-.03325 .99942 .99942 .03325 180.395 38.558)"/><path style="fill:none;stroke-width:.3985;stroke-linecap:butt;stroke-linejoin:miter;stroke:#000;stroke-opacity:1;stroke-miterlimit:10" d="m136.962-42.92 12.343-20.058" transform="matrix(1 0 0 -1 47.05 13.182)"/><path style="fill-rule:nonzero;fill:#000;fill-opacity:1;stroke-width:.3985;stroke-linecap:butt;stroke-linejoin:round;stroke:#000;stroke-opacity:1;stroke-miterlimit:10" d="M4.215-.002.645 1.346 1.817.001.644-1.346Zm0 0" transform="matrix(.52411 .8516 .8516 -.52411 195.457 74.695)"/><path style="fill:none;stroke-width:.3985;stroke-linecap:butt;stroke-linejoin:miter;stroke:#000;stroke-opacity:1;stroke-miterlimit:10" d="m142.29-43.392 34.746-25.098" transform="matrix(1 0 0 -1 47.05 13.182)"/><path style="fill-rule:nonzero;fill:#000;fill-opacity:1;stroke-width:.3985;stroke-linecap:butt;stroke-linejoin:round;stroke:#000;stroke-opacity:1;stroke-miterlimit:10" d="M4.215 0 .641 1.346 1.817-.002.644-1.346Zm0 0" transform="scale(-.99996 .99996) rotate(-35.838 -6.331 323.726)"/><path style="fill:none;stroke-width:.3985;stroke-linecap:butt;stroke-linejoin:miter;stroke:#000;stroke-opacity:1;stroke-miterlimit:10" d="M139.298-36.85h18.187" transform="matrix(1 0 0 -1 47.05 13.182)"/><path style="fill-rule:nonzero;fill:#000;fill-opacity:1;stroke-width:.3985;stroke-linecap:butt;stroke-linejoin:round;stroke:#000;stroke-opacity:1;stroke-miterlimit:10" d="M4.213.002.643 1.345 1.819.002.643-1.346Zm0 0" transform="matrix(1 0 0 -1 202.818 50.033)"/><path style="fill-rule:nonzero;fill:#ccc;fill-opacity:1;stroke-width:.79701;stroke-linecap:butt;stroke-linejoin:miter;stroke:#404040;stroke-opacity:1;stroke-miterlimit:10" d="M127.56-116.22h11.34v11.336h-11.34Zm0 0" transform="matrix(1 0 0 -1 47.05 13.182)"/><path style="fill:none;stroke-width:.3985;stroke-linecap:butt;stroke-linejoin:miter;stroke:#000;stroke-opacity:1;stroke-miterlimit:10" d="M133.282-120.31c1.11-14.57 12.926-26.371 27.895-27.094" transform="matrix(1 0 0 -1 47.05 13.182)"/><path style="fill-rule:nonzero;fill:#000;fill-opacity:1;stroke-width:.3985;stroke-linecap:butt;stroke-linejoin:round;stroke:#000;stroke-opacity:1;stroke-miterlimit:10" d="M4.216.001.642 1.347 1.817 0 .642-1.346Zm0 0" transform="scale(-.99997 .99997) rotate(-88.095 -20.307 160.858)"/><path style="fill:none;stroke-width:.3985;stroke-linecap:butt;stroke-linejoin:miter;stroke:#000;stroke-opacity:1;stroke-miterlimit:10" d="m136.962-104.486 12.343 20.059" transform="matrix(1 0 0 -1 47.05 13.182)"/><path style="fill-rule:nonzero;fill:#000;fill-opacity:1;stroke-width:.3985;stroke-linecap:butt;stroke-linejoin:round;stroke:#000;stroke-opacity:1;stroke-miterlimit:10" d="M4.213 0 .643 1.346 1.819 0 .644-1.347Zm0 0" transform="scale(.99996 -.99996) rotate(58.39 186.389 125.369)"/><path style="fill:none;stroke-width:.3985;stroke-linecap:butt;stroke-linejoin:miter;stroke:#000;stroke-opacity:1;stroke-miterlimit:10" d="m142.29-104.01 34.746 25.094" transform="matrix(1 0 0 -1 47.05 13.182)"/><path style="fill-rule:nonzero;fill:#000;fill-opacity:1;stroke-width:.3985;stroke-linecap:butt;stroke-linejoin:round;stroke:#000;stroke-opacity:1;stroke-miterlimit:10" d="M4.214-.002.642 1.345 1.816 0 .642-1.344Zm0 0" transform="matrix(-.81064 .58548 .58548 .81064 190.733 116.186)"/><path style="fill:none;stroke-width:.3985;stroke-linecap:butt;stroke-linejoin:miter;stroke:#000;stroke-opacity:1;stroke-miterlimit:10" d="M139.298-110.552h18.187" transform="matrix(1 0 0 -1 47.05 13.182)"/><path style="fill-rule:nonzero;fill:#000;fill-opacity:1;stroke-width:.3985;stroke-linecap:butt;stroke-linejoin:round;stroke:#000;stroke-opacity:1;stroke-miterlimit:10" d="M4.213 0 .643 1.344 1.819 0 .643-1.347Zm0 0" transform="matrix(1 0 0 -1 202.818 123.735)"/><path style="fill-rule:nonzero;fill:#ccc;fill-opacity:1;stroke-width:.79701;stroke-linecap:butt;stroke-linejoin:miter;stroke:#404040;stroke-opacity:1;stroke-miterlimit:10" d="M201.262-42.521h11.34v11.34h-11.34Zm0 0" transform="matrix(1 0 0 -1 47.05 13.182)"/><path style="fill:none;stroke-width:.3985;stroke-linecap:butt;stroke-linejoin:miter;stroke:#000;stroke-opacity:1;stroke-miterlimit:10" d="M197.173-36.85h-18.188" transform="matrix(1 0 0 -1 47.05 13.182)"/><path style="fill-rule:nonzero;fill:#000;fill-opacity:1;stroke-width:.3985;stroke-linecap:butt;stroke-linejoin:round;stroke:#000;stroke-opacity:1;stroke-miterlimit:10" d="M4.215.002.645 1.345 1.816.002.645-1.346Zm0 0" transform="matrix(1 0 0 -1 242.504 50.033)"/><path style="fill:none;stroke-width:.3985;stroke-linecap:butt;stroke-linejoin:miter;stroke:#000;stroke-opacity:1;stroke-miterlimit:10" d="M197.872-43.392 163.126-68.49" transform="matrix(1 0 0 -1 47.05 13.182)"/><path style="fill-rule:nonzero;fill:#000;fill-opacity:1;stroke-width:.3985;stroke-linecap:butt;stroke-linejoin:round;stroke:#000;stroke-opacity:1;stroke-miterlimit:10" d="M4.215 0 .644 1.346 1.817.002.641-1.346Zm0 0" transform="scale(.99996 -.99996) rotate(35.838 210.808 347.78)"/><path style="fill:none;stroke-width:.3985;stroke-linecap:butt;stroke-linejoin:miter;stroke:#000;stroke-opacity:1;stroke-miterlimit:10" d="m203.2-42.92-12.344-20.058" transform="matrix(1 0 0 -1 47.05 13.182)"/><path style="fill-rule:nonzero;fill:#000;fill-opacity:1;stroke-width:.3985;stroke-linecap:butt;stroke-linejoin:round;stroke:#000;stroke-opacity:1;stroke-miterlimit:10" d="M4.215.002.645 1.345 1.817 0 .645-1.347Zm0 0" transform="matrix(-.52411 .8516 .8516 .52411 238.805 74.695)"/><path style="fill:none;stroke-width:.3985;stroke-linecap:butt;stroke-linejoin:miter;stroke:#000;stroke-opacity:1;stroke-miterlimit:10" d="M206.93-30.783c.723 14.973-9.886 27.867-24.28 30.38" transform="matrix(1 0 0 -1 47.05 13.182)"/><path style="fill-rule:nonzero;fill:#000;fill-opacity:1;stroke-width:.3985;stroke-linecap:butt;stroke-linejoin:round;stroke:#000;stroke-opacity:1;stroke-miterlimit:10" d="M4.213.001.642 1.347 1.818 0 .643-1.347Zm0 0" transform="scale(-.99995 .99995) rotate(-7.431 -9.319 1788.65)"/><use xlink:href="#e" x="249.9" y="19.265" style="fill:#000;fill-opacity:1"/><path style="fill-rule:nonzero;fill:#ccc;fill-opacity:1;stroke-width:.79701;stroke-linecap:butt;stroke-linejoin:miter;stroke:#404040;stroke-opacity:1;stroke-miterlimit:10" d="M201.262-116.22h11.34v11.336h-11.34Zm0 0" transform="matrix(1 0 0 -1 47.05 13.182)"/><path style="fill:none;stroke-width:.3985;stroke-linecap:butt;stroke-linejoin:miter;stroke:#000;stroke-opacity:1;stroke-miterlimit:10" d="M197.173-110.552h-18.188" transform="matrix(1 0 0 -1 47.05 13.182)"/><path style="fill-rule:nonzero;fill:#000;fill-opacity:1;stroke-width:.3985;stroke-linecap:butt;stroke-linejoin:round;stroke:#000;stroke-opacity:1;stroke-miterlimit:10" d="M4.215 0 .645 1.344 1.816 0 .645-1.347Zm0 0" transform="matrix(1 0 0 -1 242.504 123.735)"/><path style="fill:none;stroke-width:.3985;stroke-linecap:butt;stroke-linejoin:miter;stroke:#000;stroke-opacity:1;stroke-miterlimit:10" d="m197.872-104.01-34.746 25.094" transform="matrix(1 0 0 -1 47.05 13.182)"/><path style="fill-rule:nonzero;fill:#000;fill-opacity:1;stroke-width:.3985;stroke-linecap:butt;stroke-linejoin:round;stroke:#000;stroke-opacity:1;stroke-miterlimit:10" d="M4.214.001.642 1.344 1.816 0 .642-1.345Zm0 0" transform="matrix(.81064 .58548 .58548 -.81064 243.528 116.186)"/><path style="fill:none;stroke-width:.3985;stroke-linecap:butt;stroke-linejoin:miter;stroke:#000;stroke-opacity:1;stroke-miterlimit:10" d="m203.2-104.486-12.344 20.059" transform="matrix(1 0 0 -1 47.05 13.182)"/><path style="fill-rule:nonzero;fill:#000;fill-opacity:1;stroke-width:.3985;stroke-linecap:butt;stroke-linejoin:round;stroke:#000;stroke-opacity:1;stroke-miterlimit:10" d="M4.213 0 .643 1.346 1.82 0 .643-1.345Zm0 0" transform="matrix(-.52411 -.8516 -.8516 .52411 238.805 99.073)"/><path style="fill:none;stroke-width:.3985;stroke-linecap:butt;stroke-linejoin:miter;stroke:#000;stroke-opacity:1;stroke-miterlimit:10" d="M206.93-116.619c.723-14.972-9.886-27.87-24.28-30.379" transform="matrix(1 0 0 -1 47.05 13.182)"/><path style="fill-rule:nonzero;fill:#000;fill-opacity:1;stroke-width:.3985;stroke-linecap:butt;stroke-linejoin:round;stroke:#000;stroke-opacity:1;stroke-miterlimit:10" d="M4.214 0 .642 1.346 1.818-.002.642-1.346Zm0 0" transform="matrix(-.99155 .12933 .12933 .99155 231.404 159.95)"/><use xlink:href="#e" x="249.9" y="161.026" style="fill:#000;fill-opacity:1"/><path style="fill:none;stroke-width:.79701;stroke-linecap:butt;stroke-linejoin:miter;stroke:#000;stroke-opacity:1;stroke-miterlimit:10" d="M49.274-73.7c.707 0 1.063 1.132 1.77 1.132.515 0 .957-.555 1.418-1.133.46-.582.906-1.137 1.418-1.137.511 0 .957.555 1.418 1.137.46.578.902 1.133 1.418 1.133.511 0 .953-.555 1.414-1.133.465-.582.906-1.137 1.418-1.137.515 0 .957.555 1.418 1.137.46.578.906 1.133 1.418 1.133.511 0 .957-.555 1.418-1.133.46-.582.902-1.137 1.418-1.137.511 0 .953.555 1.414 1.137.464.578.906 1.133 1.418 1.133.515 0 .957-.555 1.418-1.133.46-.582.906-1.137 1.418-1.137.511 0 .957.555 1.417 1.137.461.578.903 1.133 1.418 1.133.512 0 .954-.555 1.418-1.133.461-.582.903-1.137 1.414-1.137.516 0 .957.555 1.418 1.137.461.578.907 1.133 1.418 1.133.512 0 .957-.555 1.418-1.133.461-.582.903-1.137 1.418-1.137.512 0 .953.555 1.418 1.137.461.578.903 1.133 1.414 1.133.516 0 .957-.555 1.418-1.133.461-.582.907-1.137 1.418-1.137.512 0 .957.555 1.418 1.137.461.578.903 1.133 1.418 1.133.512 0 .953-.555 1.418-1.133.461-.582.903-1.137 1.414-1.137.516 0 .957.555 1.418 1.137.461.578.907 1.133 1.418 1.133.512 0 .957-.555 1.418-1.133.461-.582.903-1.137 1.418-1.137.512 0 .953.555 1.418 1.137.461.578.902 1.133 1.414 1.133.516 0 .957-.555 1.418-1.133.465-.582.906-1.137 1.418-1.137.512 0 .957.555 1.418 1.137.461.578.902 1.133 1.418 1.133.512 0 .953-.555 1.418-1.133.461-.582.902-1.137 1.414-1.137.516 0 .957.555 1.418 1.137.465.578.906 1.133 1.418 1.133.711 0 1.063-1.133 1.773-1.133h2.254" transform="matrix(1 0 0 -1 47.05 13.182)"/><path style="fill-rule:nonzero;fill:#000;fill-opacity:1;stroke-width:.79701;stroke-linecap:butt;stroke-linejoin:round;stroke:#000;stroke-opacity:1;stroke-miterlimit:10" d="m5.442.001-4.156 1.57L2.665.001l-1.379-1.57Zm0 0" transform="matrix(1 0 0 -1 162.019 86.884)"/><g style="fill:#000;fill-opacity:1"><use xlink:href="#h" x="101.728" y="54.426"/><use xlink:href="#i" x="106.45" y="54.426"/><use xlink:href="#j" x="111.701" y="54.426"/><use xlink:href="#k" x="118.067" y="54.426"/><use xlink:href="#l" x="121.245" y="54.426"/><use xlink:href="#m" x="126.814" y="54.426"/><use xlink:href="#i" x="131.905" y="54.426"/><use xlink:href="#n" x="137.155" y="54.426"/><use xlink:href="#i" x="146.699" y="54.426"/><use xlink:href="#o" x="151.95" y="54.426"/></g><use xlink:href="#p" x="157.997" y="54.426" style="fill:#000;fill-opacity:1"/><g style="fill:#000;fill-opacity:1"><use xlink:href="#q" x="95.598" y="66.382"/><use xlink:href="#r" x="101.327" y="66.382"/></g><g style="fill:#000;fill-opacity:1"><use xlink:href="#p" x="108.141" y="66.382"/><use xlink:href="#s" x="112.594" y="66.382"/><use xlink:href="#i" x="118.96" y="66.382"/></g><g style="fill:red;fill-opacity:1"><use xlink:href="#m" x="127.534" y="66.382"/><use xlink:href="#l" x="132.625" y="66.382"/><use xlink:href="#j" x="138.194" y="66.382"/><use xlink:href="#l" x="144.56" y="66.382"/><use xlink:href="#m" x="150.129" y="66.382"/><use xlink:href="#t" x="155.22" y="66.382"/><use xlink:href="#p" x="158.398" y="66.382"/></g><use xlink:href="#u" x="162.533" y="66.382" style="fill:red;fill-opacity:1"/><use xlink:href="#v" x="98.821" y="78.337" style="fill:#000;fill-opacity:1"/><use xlink:href="#u" x="104.868" y="78.337" style="fill:#000;fill-opacity:1"/><use xlink:href="#p" x="114.236" y="78.337" style="fill:red;fill-opacity:1"/><use xlink:href="#w" x="118.37" y="78.337" style="fill:red;fill-opacity:1"/><use xlink:href="#q" x="126.331" y="78.337" style="fill:red;fill-opacity:1"/><g style="fill:red;fill-opacity:1"><use xlink:href="#j" x="135.377" y="78.337"/><use xlink:href="#k" x="141.743" y="78.337"/><use xlink:href="#l" x="144.921" y="78.337"/><use xlink:href="#m" x="150.49" y="78.337"/><use xlink:href="#i" x="155.581" y="78.337"/><use xlink:href="#x" x="160.831" y="78.337"/></g></svg>