<svg xmlns="http://www.w3.org/2000/svg" xmlns:xlink="http://www.w3.org/1999/xlink" width="75.83pt" height="65.091" viewBox="0 0 75.83 48.818" version="1.2"><defs><symbol overflow="visible" id="a"><path style="stroke:none" d="M4.922 0v-.469h-1.39v-5.734c0-.234 0-.328-.266-.328-.11 0-.125 0-.22.078-.765.562-1.796.562-2 .562H.845v.47h.203c.156 0 .703-.016 1.297-.204v5.156H.954V0c.437-.031 1.5-.031 1.984-.031s1.546 0 1.984.031Zm0 0"/></symbol><symbol overflow="visible" id="c"><path style="stroke:none" d="M5.156-2.219h-.468c-.032.203-.125.844-.266.906-.11.063-.86.063-1.016.063H1.937c.47-.39 1-.813 1.438-1.14 1.14-.844 1.781-1.313 1.781-2.25 0-1.157-1.047-1.891-2.437-1.891-1.219 0-2.156.625-2.156 1.515 0 .594.484.735.718.735C1.61-4.281 2-4.5 2-5c0-.516-.422-.672-.563-.719.282-.234.672-.343 1.032-.343.844 0 1.312.671 1.312 1.421 0 .688-.375 1.375-1.078 2.079l-2 2.046c-.14.11-.14.141-.14.344V0h4.28Zm0 0"/></symbol><symbol overflow="visible" id="e"><path style="stroke:none" d="M5.25-1.797c0-.547-.297-1.406-1.734-1.719.687-.203 1.406-.765 1.406-1.625 0-.765-.75-1.39-2.156-1.39-1.188 0-1.97.64-1.97 1.437 0 .422.313.703.688.703a.668.668 0 0 0 .704-.687c0-.578-.547-.688-.579-.703.344-.282.782-.36 1.094-.36.828 0 .86.641.86.97 0 .124-.016 1.437-1.047 1.5-.407.015-.438.015-.485.03-.094.016-.125.11-.125.172 0 .172.11.172.282.172h.437c1.094 0 1.094.985 1.094 1.5 0 .469 0 1.484-1.031 1.484-.266 0-.782-.046-1.266-.343C1.75-.75 2-1 2-1.406c0-.453-.313-.75-.75-.75-.422 0-.766.265-.766.765 0 .907.97 1.5 2.25 1.5 1.782 0 2.516-1 2.516-1.906Zm0 0"/></symbol><symbol overflow="visible" id="g"><path style="stroke:none" d="M5.406 0v-.469h-.968v-1.094h.968v-.468h-.968V-6.22c0-.265-.016-.328-.297-.328-.22 0-.22.016-.344.172L.312-2.031v.469h2.876V-.47h-1.11V0c.375-.031 1.281-.031 1.703-.031.406 0 1.266 0 1.625.031Zm-2.11-2.031H.845L3.297-5.11Zm0 0"/></symbol><symbol overflow="visible" id="i"><path style="stroke:none" d="M5.156-2c0-1.156-.797-2.078-2.265-2.078-.282 0-.813.031-1.282.344v-1.313c.282.047.391.078.72.078 1.452 0 2.374-1.125 2.374-1.375 0-.078-.016-.187-.14-.187-.032 0-.032 0-.141.047a4.32 4.32 0 0 1-1.531.28c-.75 0-1.282-.202-1.547-.28-.094-.032-.094-.047-.125-.047-.14 0-.14.11-.14.265v2.922c0 .172 0 .297.218.297.125 0 .156-.031.219-.11.39-.468.921-.562 1.328-.562.89 0 .89.875.89 1.672 0 .735 0 1.735-1.187 1.735-.25 0-.875-.063-1.297-.625.36-.016.656-.266.656-.672 0-.532-.437-.672-.672-.672-.14 0-.671.094-.671.703 0 .844.78 1.687 2.015 1.687C4.172.11 5.156-.78 5.156-2Zm0 0"/></symbol><clipPath id="b"><path d="M0 23h25v25.727H0Zm0 0"/></clipPath><clipPath id="d"><path d="M13 23h31v25.727H13Zm0 0"/></clipPath><clipPath id="f"><path d="M32 23h30v25.727H32Zm0 0"/></clipPath><clipPath id="h"><path d="M50 23h25.746v25.727H50Zm0 0"/></clipPath></defs><path style="fill:none;stroke-width:.3985;stroke-linecap:butt;stroke-linejoin:miter;stroke:#000;stroke-opacity:1;stroke-miterlimit:10" d="m-6.434-6.591-14.813-15.165M-2.852-8.76l-3.52-10.8M2.851-8.763l3.52-10.817M6.437-6.591l14.789-15.145M9.011-.002c0 4.98-4.035 9.016-9.012 9.016-4.976 0-9.011-4.035-9.011-9.016a9.012 9.012 0 0 1 18.023 0Zm0 0" transform="matrix(1 0 0 -1 37.817 10.139)"/><use xlink:href="#a" x="34.953" y="13.401" style="fill:#000;fill-opacity:1"/><g clip-path="url(#b)"><path style="fill:none;stroke-width:.3985;stroke-linecap:butt;stroke-linejoin:miter;stroke:#000;stroke-opacity:1;stroke-miterlimit:10" d="M9.012 0A9.012 9.012 0 1 1-9.012 0 9.012 9.012 0 0 1 9.012 0Zm0 0" transform="matrix(1 0 0 -1 10.136 38.485)"/></g><use xlink:href="#c" x="7.271" y="41.748" style="fill:#000;fill-opacity:1"/><g clip-path="url(#d)"><path style="fill:none;stroke-width:.3985;stroke-linecap:butt;stroke-linejoin:miter;stroke:#000;stroke-opacity:1;stroke-miterlimit:10" d="M9.04 0A9.039 9.039 0 1 1-9.038 0 9.039 9.039 0 1 1 9.04 0Zm0 0" transform="matrix(1 0 0 -1 28.585 38.485)"/></g><use xlink:href="#e" x="25.721" y="41.693" style="fill:#000;fill-opacity:1"/><g clip-path="url(#f)"><path style="fill:none;stroke-width:.3985;stroke-linecap:butt;stroke-linejoin:miter;stroke:#000;stroke-opacity:1;stroke-miterlimit:10" d="M9.02 0A9.02 9.02 0 0 1-9.019 0a9.02 9.02 0 0 1 18.04 0Zm0 0" transform="matrix(1 0 0 -1 47.042 38.485)"/></g><use xlink:href="#g" x="44.178" y="41.753" style="fill:#000;fill-opacity:1"/><g clip-path="url(#h)"><path style="fill:none;stroke-width:.3985;stroke-linecap:butt;stroke-linejoin:miter;stroke:#000;stroke-opacity:1;stroke-miterlimit:10" d="M9.037 0A9.039 9.039 0 0 1-.002 9.04C-4.99 9.04-9.037 4.993-9.037 0c0-4.992 4.047-9.038 9.035-9.038A9.039 9.039 0 0 1 9.038 0Zm0 0" transform="matrix(1 0 0 -1 65.498 38.485)"/></g><use xlink:href="#i" x="62.634" y="41.693" style="fill:#000;fill-opacity:1"/></svg>