<svg xmlns="http://www.w3.org/2000/svg" xmlns:xlink="http://www.w3.org/1999/xlink" width="106.731" height="92.955" viewBox="0 0 80.048 69.716" version="1.2"><defs><clipPath id="a"><path d="M0 46h25v23.574H0Zm0 0"/></clipPath><clipPath id="c"><path d="M52 29h27.57v31H52Zm0 0"/></clipPath><clipPath id="f"><path d="M52 0h27.57v26H52Zm0 0"/></clipPath><clipPath id="h"><path d="M23 11h56.57v40H23Zm0 0"/></clipPath><symbol overflow="visible" id="b"><path style="stroke:none" d="M5.516-.234c0-.235-.125-.235-.266-.235-.61-.015-.61-.14-.61-.375v-2.14c0-.891-.702-1.532-2.187-1.532-.562 0-1.781.047-1.781.922 0 .438.344.625.61.625.312 0 .624-.219.624-.625 0-.297-.187-.469-.218-.5a5.28 5.28 0 0 1 .718-.062c.75 0 1.11.422 1.11 1.172v.343c-.72.032-3.25.125-3.25 1.563C.266-.125 1.5.062 2.187.062c.797 0 1.266-.406 1.485-.828 0 .313 0 .766 1.047.766h.468c.204 0 .329 0 .329-.234Zm-2-1.157c0 .97-.922 1.094-1.172 1.094-.516 0-.906-.344-.906-.797 0-1.062 1.578-1.203 2.078-1.234Zm0 0"/></symbol><symbol overflow="visible" id="d"><path style="stroke:none" d="M5.984-2.219c0-1.328-.937-2.265-2.39-2.265-.719 0-1.219.28-1.453.484v-2.922l-1.766.078v.469c.61 0 .688 0 .688.39V0h.468c.157-.188.328-.375.485-.563.078.079.562.625 1.453.625 1.484 0 2.515-.906 2.515-2.28Zm-1.28 0c0 .469 0 1.016-.25 1.406-.298.407-.75.516-1.079.516-.688 0-1.078-.547-1.188-.687v-2.5c.282-.36.75-.641 1.297-.641 1.22 0 1.22 1.203 1.22 1.906Zm0 0"/></symbol><symbol overflow="visible" id="e"><path style="stroke:none" d="M4.766-1.172c0-.14-.141-.14-.235-.14-.187 0-.187.03-.25.156-.25.625-.734.812-1.234.812-1.39 0-1.39-1.453-1.39-1.922 0-.562 0-1.843 1.28-1.843.36 0 .516.015.657.046a.618.618 0 0 0-.203.47c0 .437.343.624.609.624.313 0 .64-.219.64-.625 0-.86-1.156-.922-1.734-.922C1.11-4.516.375-3.375.375-2.219.375-.89 1.313.062 2.844.062c1.625 0 1.922-1.156 1.922-1.234Zm0 0"/></symbol><symbol overflow="visible" id="g"><path style="stroke:none" d="M5.984 0v-.469c-.609 0-.687 0-.687-.39v-6.063l-1.766.078v.469c.625 0 .703 0 .703.39v1.954a2.178 2.178 0 0 0-1.359-.453c-1.453 0-2.5.875-2.5 2.28 0 1.313.922 2.267 2.39 2.267.61 0 1.094-.235 1.407-.485v.484ZM4.172-1.031c-.14.187-.547.734-1.297.734-1.219 0-1.219-1.203-1.219-1.906 0-.485 0-1.016.25-1.406.297-.422.766-.516 1.078-.516.563 0 .97.313 1.188.61Zm0 0"/></symbol></defs><path style="stroke:none;fill-rule:nonzero;fill:#d2c92a;fill-opacity:1" d="M19.02 60.102a8.27 8.27 0 0 0-16.54 0 8.27 8.27 0 0 0 16.54 0Zm0 0"/><g clip-path="url(#a)"><path style="fill:none;stroke-width:.3985;stroke-linecap:butt;stroke-linejoin:miter;stroke:#000;stroke-opacity:1;stroke-miterlimit:10" d="M8.269 0a8.27 8.27 0 0 1-16.54 0A8.27 8.27 0 0 1 8.27 0Zm0 0" transform="matrix(1 0 0 -1 10.751 60.102)"/></g><use xlink:href="#b" x="7.967" y="62.328" style="fill:#000;fill-opacity:1"/><path style="stroke:none;fill-rule:nonzero;fill:#d2c92a;fill-opacity:1" d="M76.863 44.512c0-5.203-4.215-9.422-9.418-9.422a9.422 9.422 0 0 0-9.422 9.422c0 5.203 4.22 9.418 9.422 9.418a9.416 9.416 0 0 0 9.418-9.418Zm0 0"/><g clip-path="url(#c)"><path style="fill:none;stroke-width:.3985;stroke-linecap:butt;stroke-linejoin:miter;stroke:#000;stroke-opacity:1;stroke-miterlimit:10" d="M66.112 15.59c0 5.203-4.215 9.422-9.418 9.422a9.422 9.422 0 0 1-9.422-9.422c0-5.203 4.22-9.418 9.422-9.418a9.416 9.416 0 0 1 9.418 9.418Zm0 0" transform="matrix(1 0 0 -1 10.751 60.102)"/></g><use xlink:href="#d" x="64.261" y="47.938" style="fill:#000;fill-opacity:1"/><path style="fill-rule:nonzero;fill:#d2c92a;fill-opacity:1;stroke-width:.3985;stroke-linecap:butt;stroke-linejoin:miter;stroke:#000;stroke-opacity:1;stroke-miterlimit:10" d="M36.464 42.52a8.115 8.115 0 0 1-8.117 8.117 8.115 8.115 0 0 1-8.118-8.117 8.115 8.115 0 0 1 8.118-8.117 8.115 8.115 0 0 1 8.117 8.117Zm0 0" transform="matrix(1 0 0 -1 10.751 60.102)"/><use xlink:href="#e" x="36.552" y="19.809" style="fill:#000;fill-opacity:1"/><path style="stroke:none;fill-rule:nonzero;fill:#d2c92a;fill-opacity:1" d="M76.863 10.496c0-5.203-4.215-9.422-9.418-9.422a9.422 9.422 0 0 0-9.422 9.422c0 5.203 4.22 9.418 9.422 9.418a9.416 9.416 0 0 0 9.418-9.418Zm0 0"/><g clip-path="url(#f)"><path style="fill:none;stroke-width:.3985;stroke-linecap:butt;stroke-linejoin:miter;stroke:#000;stroke-opacity:1;stroke-miterlimit:10" d="M66.112 49.606c0 5.203-4.215 9.422-9.418 9.422a9.422 9.422 0 0 1-9.422-9.422c0-5.203 4.22-9.418 9.422-9.418a9.416 9.416 0 0 1 9.418 9.418Zm0 0" transform="matrix(1 0 0 -1 10.751 60.102)"/></g><use xlink:href="#g" x="64.261" y="13.922" style="fill:#000;fill-opacity:1"/><path style="fill:none;stroke-width:.3985;stroke-linecap:butt;stroke-linejoin:miter;stroke:#000;stroke-opacity:1;stroke-miterlimit:10" d="M8.468 0C21.26 0 35.433 15.59 47.073 15.59" transform="matrix(1 0 0 -1 10.751 60.102)"/><g clip-path="url(#h)"><path style="fill:none;stroke-width:.3985;stroke-linecap:butt;stroke-linejoin:miter;stroke:#000;stroke-opacity:1;stroke-miterlimit:10" d="M66.311 15.59c11.641 0-59.226 26.93-46.28 26.93" transform="matrix(1 0 0 -1 10.751 60.102)"/></g><path style="fill:none;stroke-width:.3985;stroke-linecap:butt;stroke-linejoin:miter;stroke:#000;stroke-opacity:1;stroke-miterlimit:10" d="M36.663 42.52C49.608 42.52-21.259 0-8.47 0M36.663 42.52c12.945 0-1.23 7.086 10.41 7.086" transform="matrix(1 0 0 -1 10.751 60.102)"/></svg>