<svg xmlns="http://www.w3.org/2000/svg" xmlns:xlink="http://www.w3.org/1999/xlink" width="552.075" height="16.323" viewBox="0 0 414.056 12.242" version="1.2"><defs><symbol overflow="visible" id="a"><path style="stroke:none" d="m1.266-.766 1.062-1.03c1.547-1.376 2.14-1.907 2.14-2.907 0-1.14-.89-1.938-2.109-1.938C1.234-6.64.5-5.719.5-4.828c0 .547.5.547.531.547.172 0 .516-.11.516-.532a.513.513 0 0 0-.531-.515c-.079 0-.094 0-.125.016.218-.657.765-1.016 1.343-1.016.907 0 1.329.812 1.329 1.625 0 .797-.485 1.578-1.047 2.203L.609-.375C.5-.265.5-.235.5 0h3.703l.266-1.734h-.235C4.172-1.438 4.11-1 4-.844c-.063.078-.719.078-.938.078Zm0 0"/></symbol><symbol overflow="visible" id="c"><path style="stroke:none" d="M6.844-3.266c.156 0 .343 0 .343-.187 0-.203-.187-.203-.328-.203H.891c-.141 0-.329 0-.329.203 0 .187.188.187.329.187Zm.015 1.938c.141 0 .329 0 .329-.203 0-.188-.188-.188-.344-.188H.89c-.141 0-.329 0-.329.188 0 .203.188.203.329.203Zm0 0"/></symbol><symbol overflow="visible" id="d"><path style="stroke:none" d="M2.938-6.375c0-.25 0-.266-.235-.266C2.078-6 1.203-6 .891-6v.313c.203 0 .78 0 1.296-.266v5.172c0 .36-.03.469-.921.469H.953V0c.344-.031 1.203-.031 1.61-.031.39 0 1.265 0 1.609.031v-.313h-.313c-.906 0-.921-.109-.921-.468Zm0 0"/></symbol><symbol overflow="visible" id="f"><path style="stroke:none" d="M4.578-3.188c0-.796-.047-1.593-.39-2.328C3.733-6.484 2.905-6.64 2.5-6.64c-.61 0-1.328.266-1.75 1.188-.313.687-.36 1.469-.36 2.266 0 .75.032 1.64.454 2.406a1.83 1.83 0 0 0 1.64 1c.532 0 1.297-.203 1.735-1.157.312-.687.36-1.468.36-2.25ZM2.484 0c-.39 0-.984-.25-1.156-1.203-.11-.594-.11-1.516-.11-2.11 0-.64 0-1.296.079-1.828.187-1.187.937-1.28 1.187-1.28.329 0 .985.187 1.172 1.171.11.563.11 1.313.11 1.938 0 .75 0 1.421-.11 2.062C3.5-.297 2.937 0 2.484 0Zm0 0"/></symbol><symbol overflow="visible" id="j"><path style="stroke:none" d="M2.938-1.64v.859c0 .36-.032.469-.766.469h-.203V0c.406-.031.922-.031 1.343-.031.422 0 .938 0 1.36.031v-.313h-.219c-.734 0-.75-.109-.75-.468v-.86h.985v-.312h-.985v-4.531c0-.204 0-.266-.172-.266-.078 0-.11 0-.187.125L.28-1.953v.312Zm.046-.313H.563l2.421-3.719Zm0 0"/></symbol><symbol overflow="visible" id="l"><path style="stroke:none" d="M1.625-4.563c-.453-.296-.5-.625-.5-.796 0-.61.656-1.032 1.36-1.032.718 0 1.359.516 1.359 1.235 0 .578-.39 1.047-.985 1.39Zm1.453.954c.719-.375 1.203-.891 1.203-1.547 0-.922-.875-1.485-1.781-1.485-1 0-1.813.735-1.813 1.672 0 .172.016.625.438 1.094.11.11.484.36.734.531C1.281-3.047.422-2.5.422-1.5.422-.453 1.438.219 2.484.219c1.125 0 2.079-.828 2.079-1.89 0-.36-.11-.813-.5-1.235-.188-.203-.344-.297-.985-.703Zm-1 .421 1.235.782c.28.187.75.484.75 1.094 0 .734-.75 1.25-1.563 1.25C1.64-.063.922-.672.922-1.5c0-.578.312-1.219 1.156-1.688Zm0 0"/></symbol><symbol overflow="visible" id="n"><path style="stroke:none" d="M1.313-3.266v-.25c0-2.515 1.234-2.875 1.75-2.875.234 0 .656.063.874.407-.156 0-.546 0-.546.437 0 .313.234.469.453.469.156 0 .469-.094.469-.484 0-.594-.438-1.079-1.266-1.079C1.766-6.64.422-5.359.422-3.156.422-.484 1.578.219 2.5.219c1.11 0 2.063-.938 2.063-2.25 0-1.266-.891-2.219-2-2.219-.672 0-1.047.5-1.25.984ZM2.5-.062c-.625 0-.922-.594-.984-.75-.188-.47-.188-1.266-.188-1.438 0-.781.328-1.781 1.219-1.781.172 0 .625 0 .937.625.172.36.172.875.172 1.36 0 .483 0 .983-.172 1.343-.296.594-.75.64-.984.64Zm0 0"/></symbol><symbol overflow="visible" id="p"><path style="stroke:none" d="M2.89-3.516c.813-.265 1.391-.953 1.391-1.75 0-.812-.875-1.375-1.828-1.375-1 0-1.765.594-1.765 1.36 0 .328.218.515.515.515.297 0 .5-.218.5-.515 0-.485-.469-.485-.61-.485.298-.5.954-.625 1.313-.625.422 0 .969.22.969 1.11 0 .125-.031.703-.281 1.14-.297.485-.64.516-.89.516a3.29 3.29 0 0 1-.392.031c-.078.016-.14.031-.14.125 0 .11.062.11.234.11h.438c.812 0 1.187.671 1.187 1.656 0 1.36-.687 1.64-1.125 1.64-.437 0-1.187-.171-1.531-.75.344.047.656-.171.656-.546a.537.537 0 0 0-.547-.563c-.25 0-.562.14-.562.578C.422-.437 1.344.22 2.437.22c1.22 0 2.126-.906 2.126-1.922 0-.813-.641-1.594-1.672-1.813Zm0 0"/></symbol><symbol overflow="visible" id="t"><path style="stroke:none" d="M4.469-2c0-1.188-.813-2.188-1.89-2.188-.47 0-.907.157-1.267.516v-1.953c.204.063.532.125.844.125 1.235 0 1.938-.906 1.938-1.031 0-.063-.032-.11-.11-.11 0 0-.03 0-.078.032a3.22 3.22 0 0 1-1.36.296c-.39 0-.858-.078-1.327-.28-.078-.032-.094-.032-.11-.032C1-6.625 1-6.547 1-6.391v2.954c0 .171 0 .25.14.25.079 0 .094-.016.141-.079.11-.156.469-.703 1.282-.703.515 0 .765.453.843.64.156.376.188.75.188 1.25 0 .36 0 .954-.25 1.376-.235.39-.61.64-1.063.64-.719 0-1.297-.53-1.469-1.109.032 0 .063.016.172.016.329 0 .5-.25.5-.485 0-.25-.171-.5-.5-.5-.14 0-.484.079-.484.532C.5-.75 1.188.219 2.297.219 3.453.219 4.469-.734 4.469-2Zm0 0"/></symbol><symbol overflow="visible" id="b"><path style="stroke:none" d="M3.594-2.219c0-.765-.094-1.328-.406-1.812-.22-.313-.657-.594-1.204-.594C.36-4.625.36-2.719.36-2.219c0 .5 0 2.36 1.625 2.36 1.61 0 1.61-1.86 1.61-2.36ZM1.984-.063c-.328 0-.75-.187-.89-.75C1-1.219 1-1.796 1-2.313c0-.515 0-1.046.094-1.421.156-.547.593-.704.89-.704.375 0 .735.235.86.641.11.375.125.875.125 1.485 0 .515 0 1.03-.094 1.468-.14.64-.61.781-.89.781Zm0 0"/></symbol><symbol overflow="visible" id="h"><path style="stroke:none" d="M2.328-4.438c0-.187 0-.187-.203-.187-.453.438-1.078.438-1.36.438v.25c.157 0 .626 0 1-.188v3.547c0 .234 0 .328-.687.328H.812V0c.125 0 .985-.031 1.235-.031.219 0 1.094.031 1.25.031v-.25H3.03c-.703 0-.703-.094-.703-.328Zm0 0"/></symbol><symbol overflow="visible" id="i"><path style="stroke:none" d="M3.516-1.266H3.28c-.015.157-.094.563-.187.625-.047.047-.578.047-.688.047H1.125c.734-.64.984-.844 1.39-1.172.516-.406 1-.843 1-1.5 0-.843-.734-1.359-1.624-1.359-.86 0-1.454.61-1.454 1.25 0 .344.297.39.376.39.156 0 .359-.124.359-.374 0-.125-.047-.375-.406-.375.218-.485.687-.641 1.015-.641.703 0 1.063.547 1.063 1.11 0 .609-.438 1.078-.656 1.328L.516-.266C.437-.203.437-.187.437 0h2.876Zm0 0"/></symbol><symbol overflow="visible" id="k"><path style="stroke:none" d="M1.906-2.328c.547 0 .938.375.938 1.125 0 .86-.516 1.125-.906 1.125-.282 0-.907-.078-1.188-.5.328 0 .406-.235.406-.39 0-.22-.172-.376-.39-.376a.38.38 0 0 0-.391.407C.375-.281 1.094.14 1.938.14c.968 0 1.64-.657 1.64-1.344 0-.547-.437-1.094-1.203-1.25.719-.266.984-.781.984-1.219 0-.547-.625-.953-1.406-.953-.766 0-1.36.375-1.36.938 0 .234.157.359.36.359.219 0 .36-.156.36-.344 0-.203-.141-.36-.36-.375.25-.297.719-.375.985-.375.312 0 .75.156.75.75 0 .297-.094.625-.282.828-.219.266-.422.281-.765.313-.172.015-.188.015-.22.015-.015 0-.077.016-.077.094 0 .094.062.094.187.094Zm0 0"/></symbol><symbol overflow="visible" id="m"><path style="stroke:none" d="M3.688-1.14v-.25h-.782V-4.5c0-.14 0-.203-.14-.203-.094 0-.125 0-.188.11L.266-1.392v.25h2.062v.563c0 .25 0 .328-.578.328h-.188V0c.36-.016.797-.031 1.047-.031.266 0 .704.015 1.063.031v-.25h-.188c-.578 0-.578-.078-.578-.328v-.563ZM2.375-3.939v2.547H.531Zm0 0"/></symbol><symbol overflow="visible" id="o"><path style="stroke:none" d="M1.078-3.89c.36.093.563.093.672.093.922 0 1.469-.625 1.469-.734 0-.078-.047-.094-.078-.094-.016 0-.032 0-.063.016-.172.062-.531.203-1.047.203-.203 0-.562-.016-1.015-.188-.079-.031-.094-.031-.094-.031-.094 0-.094.078-.094.188v2.046c0 .125 0 .204.11.204.062 0 .078 0 .14-.094.297-.375.734-.438.969-.438.422 0 .61.328.64.39.126.235.172.5.172.907 0 .203 0 .61-.218.922a.984.984 0 0 1-.813.422c-.453 0-.922-.25-1.094-.719.266.016.407-.156.407-.344 0-.296-.266-.343-.36-.343 0 0-.344 0-.344.375 0 .625.579 1.25 1.407 1.25.89 0 1.672-.657 1.672-1.547 0-.782-.594-1.5-1.454-1.5-.312 0-.671.062-.984.328Zm0 0"/></symbol><symbol overflow="visible" id="q"><path style="stroke:none" d="M1.047-2.281c0-.563.047-1.078.312-1.516.235-.375.61-.625 1.063-.625.203 0 .484.047.625.234-.172.016-.328.141-.328.344a.32.32 0 0 0 .328.328c.219 0 .344-.14.344-.343 0-.407-.297-.766-.985-.766-1 0-2.031.922-2.031 2.422C.375-.406 1.219.14 2 .14c.844 0 1.578-.657 1.578-1.563 0-.89-.703-1.547-1.515-1.547-.563 0-.86.375-1.016.688ZM2-.078c-.36 0-.625-.203-.781-.516-.094-.203-.157-.562-.157-.969 0-.687.407-1.203.97-1.203.312 0 .53.125.702.375.172.266.172.563.172.97 0 .39 0 .687-.187.968A.815.815 0 0 1 2-.078Zm0 0"/></symbol><symbol overflow="visible" id="r"><path style="stroke:none" d="M3.734-4.203c.063-.094.063-.11.063-.281H1.969c-.282 0-.36-.016-.61-.032C1-4.546.984-4.594.97-4.703H.734L.484-3.22H.72c.015-.11.094-.562.203-.64.047-.032.625-.032.719-.032h1.515c-.219.282-.578.72-.719.922-.906 1.188-1 2.297-1 2.703 0 .079 0 .407.329.407.343 0 .343-.313.343-.407v-.28c0-1.345.282-1.97.579-2.345Zm0 0"/></symbol><symbol overflow="visible" id="s"><path style="stroke:none" d="M2.469-2.516c.547-.265.89-.593.89-1.078 0-.672-.703-1.031-1.375-1.031-.765 0-1.39.5-1.39 1.156 0 .328.156.563.281.703.125.157.172.188.578.422-.39.172-1.078.547-1.078 1.281 0 .766.797 1.204 1.594 1.204.89 0 1.61-.563 1.61-1.313 0-.469-.267-.86-.673-1.094-.094-.062-.328-.187-.437-.25Zm-1.125-.656c-.188-.11-.375-.297-.375-.562 0-.438.5-.688 1-.688.547 0 1.031.344 1.031.828 0 .625-.734.938-.734.938-.016 0-.032 0-.079-.031Zm.328.969.969.547c.171.11.515.312.515.718 0 .532-.578.86-1.172.86-.64 0-1.187-.422-1.187-.985 0-.515.375-.921.875-1.14Zm0 0"/></symbol><symbol overflow="visible" id="e"><path style="stroke:none" d="M1.906-.531a.534.534 0 0 0-.515-.531.537.537 0 0 0-.532.53.524.524 0 1 0 1.047 0Zm0 0"/></symbol><symbol overflow="visible" id="g"><path style="stroke:none" d="M2.5-.313c0-.671-.344-1.25-.922-1.25-.469 0-.766.36-.766.782 0 .406.266.781.766.781a.842.842 0 0 0 .563-.203C2.047.89 1.406 1.422 1.203 1.594c-.062.047-.094.078-.094.14 0 .094.11.204.188.204.156 0 1.203-.86 1.203-2.25Zm0 0"/></symbol></defs><use xlink:href="#a" x=".096" y="8.944" style="fill:#000;fill-opacity:1"/><use xlink:href="#b" x="5.077" y="5.328" style="fill:#000;fill-opacity:1"/><use xlink:href="#c" x="12.314" y="8.944" style="fill:#000;fill-opacity:1"/><use xlink:href="#d" x="22.823" y="8.944" style="fill:#000;fill-opacity:1"/><use xlink:href="#e" x="27.811" y="8.944" style="fill:#000;fill-opacity:1"/><use xlink:href="#f" x="30.579" y="8.944" style="fill:#000;fill-opacity:1"/><use xlink:href="#g" x="35.56" y="8.944" style="fill:#000;fill-opacity:1"/><use xlink:href="#a" x="42.554" y="8.944" style="fill:#000;fill-opacity:1"/><use xlink:href="#h" x="47.535" y="5.328" style="fill:#000;fill-opacity:1"/><use xlink:href="#c" x="54.772" y="8.944" style="fill:#000;fill-opacity:1"/><use xlink:href="#a" x="65.281" y="8.944" style="fill:#000;fill-opacity:1"/><use xlink:href="#e" x="70.269" y="8.944" style="fill:#000;fill-opacity:1"/><use xlink:href="#f" x="73.037" y="8.944" style="fill:#000;fill-opacity:1"/><use xlink:href="#g" x="78.018" y="8.944" style="fill:#000;fill-opacity:1"/><use xlink:href="#a" x="85.012" y="8.944" style="fill:#000;fill-opacity:1"/><use xlink:href="#i" x="89.993" y="5.328" style="fill:#000;fill-opacity:1"/><use xlink:href="#c" x="97.23" y="8.944" style="fill:#000;fill-opacity:1"/><use xlink:href="#j" x="107.739" y="8.944" style="fill:#000;fill-opacity:1"/><use xlink:href="#e" x="112.727" y="8.944" style="fill:#000;fill-opacity:1"/><use xlink:href="#f" x="115.495" y="8.944" style="fill:#000;fill-opacity:1"/><use xlink:href="#g" x="120.476" y="8.944" style="fill:#000;fill-opacity:1"/><use xlink:href="#a" x="127.47" y="8.944" style="fill:#000;fill-opacity:1"/><use xlink:href="#k" x="132.451" y="5.328" style="fill:#000;fill-opacity:1"/><use xlink:href="#c" x="139.688" y="8.944" style="fill:#000;fill-opacity:1"/><use xlink:href="#l" x="150.197" y="8.944" style="fill:#000;fill-opacity:1"/><use xlink:href="#e" x="155.185" y="8.944" style="fill:#000;fill-opacity:1"/><use xlink:href="#f" x="157.953" y="8.944" style="fill:#000;fill-opacity:1"/><use xlink:href="#g" x="162.934" y="8.944" style="fill:#000;fill-opacity:1"/><use xlink:href="#a" x="169.928" y="8.944" style="fill:#000;fill-opacity:1"/><use xlink:href="#m" x="174.909" y="5.328" style="fill:#000;fill-opacity:1"/><use xlink:href="#c" x="182.146" y="8.944" style="fill:#000;fill-opacity:1"/><g style="fill:#000;fill-opacity:1"><use xlink:href="#d" x="192.655" y="8.944"/><use xlink:href="#n" x="197.636" y="8.944"/></g><use xlink:href="#e" x="202.625" y="8.944" style="fill:#000;fill-opacity:1"/><use xlink:href="#f" x="205.392" y="8.944" style="fill:#000;fill-opacity:1"/><use xlink:href="#g" x="210.373" y="8.944" style="fill:#000;fill-opacity:1"/><use xlink:href="#a" x="217.367" y="8.944" style="fill:#000;fill-opacity:1"/><use xlink:href="#o" x="222.349" y="5.328" style="fill:#000;fill-opacity:1"/><use xlink:href="#c" x="229.585" y="8.944" style="fill:#000;fill-opacity:1"/><g style="fill:#000;fill-opacity:1"><use xlink:href="#p" x="240.094" y="8.944"/><use xlink:href="#a" x="245.075" y="8.944"/></g><use xlink:href="#e" x="250.064" y="8.944" style="fill:#000;fill-opacity:1"/><use xlink:href="#f" x="252.831" y="8.944" style="fill:#000;fill-opacity:1"/><use xlink:href="#g" x="257.813" y="8.944" style="fill:#000;fill-opacity:1"/><use xlink:href="#a" x="264.806" y="8.944" style="fill:#000;fill-opacity:1"/><use xlink:href="#q" x="269.788" y="5.328" style="fill:#000;fill-opacity:1"/><use xlink:href="#c" x="277.025" y="8.944" style="fill:#000;fill-opacity:1"/><g style="fill:#000;fill-opacity:1"><use xlink:href="#n" x="287.534" y="8.944"/><use xlink:href="#j" x="292.515" y="8.944"/></g><use xlink:href="#e" x="297.503" y="8.944" style="fill:#000;fill-opacity:1"/><use xlink:href="#f" x="300.271" y="8.944" style="fill:#000;fill-opacity:1"/><use xlink:href="#g" x="305.252" y="8.944" style="fill:#000;fill-opacity:1"/><use xlink:href="#a" x="312.246" y="8.944" style="fill:#000;fill-opacity:1"/><use xlink:href="#r" x="317.227" y="5.328" style="fill:#000;fill-opacity:1"/><use xlink:href="#c" x="324.464" y="8.944" style="fill:#000;fill-opacity:1"/><g style="fill:#000;fill-opacity:1"><use xlink:href="#d" x="334.973" y="8.944"/><use xlink:href="#a" x="339.954" y="8.944"/><use xlink:href="#l" x="344.935" y="8.944"/></g><use xlink:href="#e" x="349.924" y="8.944" style="fill:#000;fill-opacity:1"/><use xlink:href="#f" x="352.691" y="8.944" style="fill:#000;fill-opacity:1"/><use xlink:href="#g" x="357.673" y="8.944" style="fill:#000;fill-opacity:1"/><use xlink:href="#a" x="364.666" y="8.944" style="fill:#000;fill-opacity:1"/><use xlink:href="#s" x="369.648" y="5.328" style="fill:#000;fill-opacity:1"/><use xlink:href="#c" x="376.884" y="8.944" style="fill:#000;fill-opacity:1"/><g style="fill:#000;fill-opacity:1"><use xlink:href="#a" x="387.393" y="8.944"/><use xlink:href="#t" x="392.374" y="8.944"/><use xlink:href="#n" x="397.355" y="8.944"/></g><use xlink:href="#e" x="402.345" y="8.944" style="fill:#000;fill-opacity:1"/><use xlink:href="#f" x="405.112" y="8.944" style="fill:#000;fill-opacity:1"/><use xlink:href="#g" x="410.093" y="8.944" style="fill:#000;fill-opacity:1"/></svg>