<svg xmlns="http://www.w3.org/2000/svg" width="154.125" height="78.531" viewBox="0 0 115.594 58.898" version="1.2"><defs><clipPath id="a"><path d="M0 9h43v49.848H0Zm0 0"/></clipPath><clipPath id="b"><path d="M52 0h55v58.848H52Zm0 0"/></clipPath><clipPath id="c"><path d="M0 23h31v35.848H0Zm0 0"/></clipPath><clipPath id="d"><path d="M52 17h40v41.848H52Zm0 0"/></clipPath><clipPath id="e"><path d="M0 37h19v21.848H0Zm0 0"/></clipPath><clipPath id="f"><path d="M52 34h26v24.848H52Zm0 0"/></clipPath></defs><path style="fill:none;stroke-width:.19925;stroke-linecap:butt;stroke-linejoin:miter;stroke:gray;stroke-opacity:1;stroke-miterlimit:10" d="M0 0h113.387M0 28.347h113.387M0 56.683h113.387M0 0v56.695M28.348 0v56.695M56.696 0v56.695M85.039 0v56.695M113.38 0v56.695" transform="matrix(1 0 0 -1 .906 57.742)"/><path style="stroke:none;fill-rule:nonzero;fill:#ccf;fill-opacity:1" d="M18.816 15.023 1.203 57.543h35.223Zm0 0"/><g clip-path="url(#a)"><path style="fill:none;stroke-width:.3985;stroke-linecap:butt;stroke-linejoin:miter;stroke:#4040ff;stroke-opacity:1;stroke-miterlimit:10" d="M17.91 42.719.297.199H35.52Zm0 0" transform="matrix(1 0 0 -1 .906 57.742)"/></g><path style="stroke:none;fill-rule:nonzero;fill:#ccf;fill-opacity:1" d="M79.156 6.215 57.898 57.543h42.52Zm0 0"/><g clip-path="url(#b)"><path style="fill:none;stroke-width:.3985;stroke-linecap:butt;stroke-linejoin:miter;stroke:#4040ff;stroke-opacity:1;stroke-miterlimit:10" d="M78.25 51.527 56.992.2h42.52Zm0 0" transform="matrix(1 0 0 -1 .906 57.742)"/></g><path style="stroke:none;fill-rule:nonzero;fill:#cfc;fill-opacity:1" d="M12.945 29.195 1.203 57.543h23.485Zm0 0"/><g clip-path="url(#c)"><path style="fill:none;stroke-width:.3985;stroke-linecap:butt;stroke-linejoin:miter;stroke:#40ff40;stroke-opacity:1;stroke-miterlimit:10" d="M12.04 28.547.296.199h23.485Zm0 0" transform="matrix(1 0 0 -1 .906 57.742)"/></g><path style="stroke:none;fill-rule:nonzero;fill:#cfc;fill-opacity:1" d="M72.07 23.324 57.898 57.543h28.348Zm0 0"/><g clip-path="url(#d)"><path style="fill:none;stroke-width:.3985;stroke-linecap:butt;stroke-linejoin:miter;stroke:#40ff40;stroke-opacity:1;stroke-miterlimit:10" d="M71.164 34.418 56.992.199H85.34Zm0 0" transform="matrix(1 0 0 -1 .906 57.742)"/></g><path style="stroke:none;fill-rule:nonzero;fill:#fcc;fill-opacity:1" d="m7.074 43.371-5.87 14.172h11.741Zm0 0"/><g clip-path="url(#e)"><path style="fill:none;stroke-width:.3985;stroke-linecap:butt;stroke-linejoin:miter;stroke:#ff4040;stroke-opacity:1;stroke-miterlimit:10" d="M6.168 14.37.298.2h11.741Zm0 0" transform="matrix(1 0 0 -1 .906 57.742)"/></g><path style="stroke:none;fill-rule:nonzero;fill:#fcc;fill-opacity:1" d="m64.984 40.434-7.086 17.109H72.07Zm0 0"/><g clip-path="url(#f)"><path style="fill:none;stroke-width:.3985;stroke-linecap:butt;stroke-linejoin:miter;stroke:#ff4040;stroke-opacity:1;stroke-miterlimit:10" d="M64.078 17.308 56.992.2h14.172Zm0 0" transform="matrix(1 0 0 -1 .906 57.742)"/></g></svg>