<svg xmlns="http://www.w3.org/2000/svg" width="116.379" height="79.107" viewBox="0 0 87.284 59.33" version="1.2"><defs><clipPath id="a"><path d="M0 23h35v35.996H0Zm0 0"/></clipPath></defs><path style="fill:none;stroke-width:.19925;stroke-linecap:butt;stroke-linejoin:miter;stroke:gray;stroke-opacity:1;stroke-miterlimit:10" d="M-.002.001h85.043M-.002 28.345h85.043M-.002 56.685h85.043M-.002 0v56.692M28.346 0v56.692M56.693 0v56.692M85.03 0v56.692" transform="matrix(1 0 0 -1 .787 57.845)"/><g clip-path="url(#a)"><path style="fill:none;stroke-width:.3985;stroke-linecap:butt;stroke-linejoin:miter;stroke:#000;stroke-opacity:1;stroke-miterlimit:10" d="m-.002.001 28.348 28.344V.001" transform="matrix(1 0 0 -1 .787 57.845)"/></g><path style="fill:none;stroke-width:.3985;stroke-linecap:butt;stroke-linejoin:miter;stroke:#00f;stroke-opacity:1;stroke-miterlimit:10" d="m28.346 28.345 28.347 28.348V28.345" transform="matrix(1 0 0 -1 .787 57.845)"/><path style="fill:none;stroke-width:.3985;stroke-linecap:butt;stroke-linejoin:miter;stroke:red;stroke-opacity:1;stroke-miterlimit:10" d="m24.549 14.173 28.348 28.348V14.173" transform="matrix(1 0 0 -1 .787 57.845)"/></svg>