<svg xmlns="http://www.w3.org/2000/svg" width="42.536" height="15.171" viewBox="0 0 31.902 11.378" version="1.2"><defs><clipPath id="a"><path d="M0 0h31.852v11.066H0Zm0 0"/></clipPath><clipPath id="b"><path d="M0 0h31.852v11.066H0Zm0 0"/></clipPath></defs><path style="fill:none;stroke-width:1.59404;stroke-linecap:butt;stroke-linejoin:miter;stroke:#000;stroke-opacity:1;stroke-miterlimit:10" d="M0 2.212h10.93" transform="matrix(1 0 0 -1 .96 7.595)"/><path style="stroke:none;fill-rule:nonzero;fill:#000;fill-opacity:1" d="m19 5.383-3.555-3.555-3.554 3.555 3.554 3.554Zm0 0"/><g clip-path="url(#a)"><path style="fill:none;stroke-width:1.59404;stroke-linecap:butt;stroke-linejoin:miter;stroke:#000;stroke-opacity:1;stroke-miterlimit:10" d="M8.237 0 4.682 3.555 1.127 0l3.555-3.554Zm0 0" transform="matrix(1 0 0 -1 10.763 5.383)"/></g><path style="stroke:none;fill-rule:nonzero;fill:#000;fill-opacity:1" d="m29.723 5.383-3.559-3.555-3.555 3.555 3.555 3.554Zm0 0"/><g clip-path="url(#b)"><path style="fill:none;stroke-width:1.59404;stroke-linecap:butt;stroke-linejoin:miter;stroke:#000;stroke-opacity:1;stroke-miterlimit:10" d="M8.24 0 4.68 3.555 1.127 0l3.555-3.554Zm0 0" transform="matrix(1 0 0 -1 21.483 5.383)"/></g></svg>