<svg xmlns="http://www.w3.org/2000/svg" width="386.187" height="62.3pt" viewBox="0 0 289.64 62.3" version="1.2"><defs><clipPath id="a"><path d="M114 48h16v13.95h-16Zm0 0"/></clipPath><clipPath id="b"><path d="M129 51h16v10.95h-16Zm0 0"/></clipPath><clipPath id="c"><path d="M144 47h16v14.95h-16Zm0 0"/></clipPath><clipPath id="d"><path d="M279 38h10.46v16H279Zm0 0"/></clipPath></defs><path style="stroke:none;fill-rule:nonzero;fill:#ccf;fill-opacity:1" d="m2.906 30.207 14.918-14.238L32.746 5.582l14.918-3.719 14.918 3.953 14.922 10.555 14.918 14.3 14.918 14.173 14.922 10.215 14.918 3.488 14.918-4.184 14.922-10.722 14.917-14.356 14.922-14.11 14.918-10.038 14.918-3.254 14.922 4.414 14.918 10.887 14.918 14.41 14.922 14.035V30.207H2.906"/><path style="fill-rule:nonzero;fill:#00f;fill-opacity:1;stroke-width:.3985;stroke-linecap:butt;stroke-linejoin:miter;stroke:#00f;stroke-opacity:1;stroke-miterlimit:10" d="M0-1.991-1.726.997h3.453ZM14.918 12.247l-1.722 2.988h3.449ZM29.84 22.634l-1.726 2.988h3.449ZM44.758 26.353l-1.727 2.988h3.454ZM59.676 22.4l-1.723 2.992h3.45ZM74.598 11.845l-1.727 2.988h3.45ZM89.516-2.456 87.789.536h3.453ZM104.434-16.632l-1.723 2.992h3.45Zm0 0" transform="matrix(1 0 0 -1 2.906 30.208)"/><path style="stroke:none;fill-rule:nonzero;fill:#00f;fill-opacity:1" d="m122.262 57.05-1.727-2.987h3.453Zm0 0"/><g clip-path="url(#a)"><path style="fill:none;stroke-width:.3985;stroke-linecap:butt;stroke-linejoin:miter;stroke:#00f;stroke-opacity:1;stroke-miterlimit:10" d="m119.356-26.843-1.727 2.988h3.453Zm0 0" transform="matrix(1 0 0 -1 2.906 30.208)"/></g><path style="stroke:none;fill-rule:nonzero;fill:#00f;fill-opacity:1" d="m137.18 60.54-1.727-2.99h3.453Zm0 0"/><g clip-path="url(#b)"><path style="fill:none;stroke-width:.3985;stroke-linecap:butt;stroke-linejoin:miter;stroke:#00f;stroke-opacity:1;stroke-miterlimit:10" d="m134.274-30.331-1.727 2.988H136Zm0 0" transform="matrix(1 0 0 -1 2.906 30.208)"/></g><path style="stroke:none;fill-rule:nonzero;fill:#00f;fill-opacity:1" d="m152.098 56.355-1.723-2.988h3.45Zm0 0"/><g clip-path="url(#c)"><path style="fill:none;stroke-width:.3985;stroke-linecap:butt;stroke-linejoin:miter;stroke:#00f;stroke-opacity:1;stroke-miterlimit:10" d="m149.192-26.147-1.723 2.988h3.45Zm0 0" transform="matrix(1 0 0 -1 2.906 30.208)"/></g><path style="fill-rule:nonzero;fill:#00f;fill-opacity:1;stroke-width:.3985;stroke-linecap:butt;stroke-linejoin:miter;stroke:#00f;stroke-opacity:1;stroke-miterlimit:10" d="m164.114-15.425-1.727 2.988h3.453ZM179.031-1.07 177.31 1.92h3.45ZM193.953 13.04l-1.726 2.988h3.449ZM208.871 23.08l-1.726 2.987h3.453ZM223.79 26.33l-1.723 2.991h3.449ZM238.711 21.919l-1.726 2.988h3.449ZM253.63 11.032l-1.727 2.989h3.453ZM268.547-3.378 266.824-.39h3.45Zm0 0" transform="matrix(1 0 0 -1 2.906 30.208)"/><path style="stroke:none;fill-rule:nonzero;fill:#00f;fill-opacity:1" d="m286.375 47.621-1.727-2.988h3.454Zm0 0"/><g clip-path="url(#d)"><path style="fill:none;stroke-width:.3985;stroke-linecap:butt;stroke-linejoin:miter;stroke:#00f;stroke-opacity:1;stroke-miterlimit:10" d="m283.469-17.413-1.727 2.988h3.454Zm0 0" transform="matrix(1 0 0 -1 2.906 30.208)"/></g></svg>