<svg xmlns="http://www.w3.org/2000/svg" width="136.179" height="173.955" viewBox="0 0 102.134 130.466" version="1.2"><path style="stroke:none;fill-rule:nonzero;fill:#4c4cff;fill-opacity:1" d="M9.977 5.43A4.695 4.695 0 0 0 5.28.734 4.695 4.695 0 0 0 .586 5.43a4.695 4.695 0 0 0 4.695 4.695A4.695 4.695 0 0 0 9.977 5.43ZM9.977 22.438a4.695 4.695 0 0 0-4.696-4.696 4.695 4.695 0 0 0-4.695 4.695 4.695 4.695 0 0 0 4.695 4.696 4.695 4.695 0 0 0 4.696-4.695ZM9.977 39.445A4.695 4.695 0 0 0 5.28 34.75a4.695 4.695 0 0 0-4.695 4.695 4.695 4.695 0 0 0 4.695 4.696 4.695 4.695 0 0 0 4.696-4.696ZM9.977 56.453a4.695 4.695 0 0 0-4.696-4.695 4.695 4.695 0 0 0-4.695 4.695 4.695 4.695 0 0 0 4.695 4.695 4.695 4.695 0 0 0 4.696-4.695ZM9.977 73.46a4.695 4.695 0 0 0-4.696-4.694A4.695 4.695 0 0 0 .586 73.46a4.695 4.695 0 0 0 4.695 4.695 4.695 4.695 0 0 0 4.696-4.695ZM9.977 90.469a4.695 4.695 0 0 0-4.696-4.696A4.695 4.695 0 0 0 .586 90.47a4.695 4.695 0 0 0 4.695 4.695 4.695 4.695 0 0 0 4.696-4.695ZM9.977 107.477a4.695 4.695 0 0 0-4.696-4.696 4.695 4.695 0 0 0-4.695 4.696 4.695 4.695 0 0 0 4.695 4.695 4.695 4.695 0 0 0 4.696-4.695ZM9.977 124.484a4.695 4.695 0 0 0-4.696-4.695 4.698 4.698 0 0 0 0 9.395 4.698 4.698 0 0 0 4.696-4.7ZM32.656 5.43a4.698 4.698 0 0 0-9.394 0 4.698 4.698 0 0 0 9.395 0ZM32.656 22.438a4.698 4.698 0 0 0-9.394 0 4.698 4.698 0 0 0 9.395 0ZM32.656 39.445a4.698 4.698 0 0 0-9.394 0 4.698 4.698 0 0 0 9.395 0ZM32.656 56.453a4.698 4.698 0 0 0-9.394 0 4.698 4.698 0 0 0 9.395 0ZM32.656 73.46a4.698 4.698 0 0 0-9.394 0 4.698 4.698 0 0 0 9.395 0ZM32.656 90.469a4.698 4.698 0 0 0-9.394 0 4.698 4.698 0 0 0 9.395 0ZM32.656 107.477a4.698 4.698 0 0 0-9.394 0 4.698 4.698 0 0 0 9.395 0ZM32.656 124.484a4.698 4.698 0 1 0-9.396.006 4.698 4.698 0 0 0 9.396-.006Zm0 0"/><path style="fill:none;stroke-width:.3985;stroke-linecap:butt;stroke-linejoin:miter;stroke:#000;stroke-opacity:1;stroke-miterlimit:10" d="M1.547-63.387 21.13-4.645M1.547-80.395 21.13-21.653M1.547-97.403 21.13-38.661M1.547-114.41 21.13-55.67M1.547-4.645 21.13-63.387M1.547-21.653 21.13-80.395M1.547-38.66 21.13-97.404M1.547-55.669 21.13-114.41M4.895 0h12.887M4.895-17.009h12.887M4.895-34.016h12.887M4.895-51.024h12.887M4.895-68.032h12.887M4.895-85.04h12.887M4.895-102.048h12.887M4.895-119.055h12.887" transform="matrix(1 0 0 -1 5.281 5.429)"/><path style="stroke:none;fill-rule:nonzero;fill:#4c4cff;fill-opacity:1" d="M55.332 5.43A4.695 4.695 0 0 0 50.637.734 4.695 4.695 0 0 0 45.94 5.43a4.695 4.695 0 0 0 4.696 4.695 4.695 4.695 0 0 0 4.695-4.695ZM55.332 22.438a4.695 4.695 0 0 0-4.695-4.696 4.695 4.695 0 0 0-4.696 4.695 4.695 4.695 0 0 0 4.696 4.696 4.695 4.695 0 0 0 4.695-4.695ZM55.332 39.445a4.695 4.695 0 0 0-4.695-4.695 4.695 4.695 0 0 0-4.696 4.695 4.695 4.695 0 0 0 4.696 4.696 4.695 4.695 0 0 0 4.695-4.696ZM55.332 56.453a4.695 4.695 0 0 0-4.695-4.695 4.695 4.695 0 0 0-4.696 4.695 4.695 4.695 0 0 0 4.696 4.695 4.695 4.695 0 0 0 4.695-4.695ZM55.332 73.46a4.695 4.695 0 0 0-4.695-4.694 4.695 4.695 0 0 0-4.696 4.695 4.695 4.695 0 0 0 4.696 4.695 4.695 4.695 0 0 0 4.695-4.695ZM55.332 90.469a4.695 4.695 0 0 0-4.695-4.696 4.695 4.695 0 0 0-4.696 4.696 4.695 4.695 0 0 0 4.696 4.695 4.695 4.695 0 0 0 4.695-4.695ZM55.332 107.477a4.695 4.695 0 0 0-4.695-4.696 4.695 4.695 0 0 0-4.696 4.696 4.695 4.695 0 0 0 4.696 4.695 4.695 4.695 0 0 0 4.695-4.695ZM55.332 124.484a4.695 4.695 0 0 0-4.695-4.695 4.698 4.698 0 0 0 0 9.395 4.698 4.698 0 0 0 4.695-4.7Zm0 0"/><path style="fill:none;stroke-width:.3985;stroke-linecap:butt;stroke-linejoin:miter;stroke:#000;stroke-opacity:1;stroke-miterlimit:10" d="M25.39-29.942 42.64-4.075M25.39-46.95l17.25 25.867M25.39-4.075l17.25-25.867M25.39-21.083 42.64-46.95M25.39-97.973l17.25 25.867M25.39-114.985l17.25 25.871M25.39-72.106l17.25-25.867M25.39-89.114l17.25-25.871M27.574 0h12.887M27.574-17.009h12.887M27.574-34.016h12.887M27.574-51.024h12.887M27.574-68.032h12.887M27.574-85.04h12.887M27.574-102.048h12.887M27.574-119.055h12.887" transform="matrix(1 0 0 -1 5.281 5.429)"/><path style="stroke:none;fill-rule:nonzero;fill:#4c4cff;fill-opacity:1" d="M78.008 5.43A4.695 4.695 0 0 0 73.313.734a4.695 4.695 0 0 0-4.696 4.696 4.695 4.695 0 0 0 4.695 4.695 4.695 4.695 0 0 0 4.696-4.695ZM78.008 22.438a4.695 4.695 0 0 0-4.695-4.696 4.695 4.695 0 0 0-4.696 4.695 4.695 4.695 0 0 0 4.695 4.696 4.695 4.695 0 0 0 4.696-4.695ZM78.008 39.445a4.695 4.695 0 0 0-4.695-4.695 4.695 4.695 0 0 0-4.696 4.695 4.695 4.695 0 0 0 4.695 4.696 4.695 4.695 0 0 0 4.696-4.696ZM78.008 56.453a4.695 4.695 0 0 0-4.695-4.695 4.695 4.695 0 0 0-4.696 4.695 4.695 4.695 0 0 0 4.695 4.695 4.695 4.695 0 0 0 4.696-4.695ZM78.008 73.46a4.695 4.695 0 0 0-4.695-4.694 4.695 4.695 0 0 0-4.696 4.695 4.695 4.695 0 0 0 4.695 4.695 4.695 4.695 0 0 0 4.696-4.695ZM78.008 90.469a4.695 4.695 0 0 0-4.695-4.696 4.695 4.695 0 0 0-4.696 4.696 4.695 4.695 0 0 0 4.695 4.695 4.695 4.695 0 0 0 4.696-4.695ZM78.008 107.477a4.695 4.695 0 0 0-4.695-4.696 4.695 4.695 0 0 0-4.696 4.696 4.695 4.695 0 0 0 4.695 4.695 4.695 4.695 0 0 0 4.696-4.695ZM78.008 124.484a4.695 4.695 0 0 0-4.695-4.695 4.698 4.698 0 0 0 0 9.395 4.698 4.698 0 0 0 4.695-4.7Zm0 0"/><path style="fill:none;stroke-width:.3985;stroke-linecap:butt;stroke-linejoin:miter;stroke:#000;stroke-opacity:1;stroke-miterlimit:10" d="M49.27-14.071 64.117-2.938M49.27-2.938l14.847-11.133M49.27-48.087l14.847 11.133M49.27-36.954l14.847-11.133M49.27-82.102 64.117-70.97M49.27-70.97l14.847-11.132M49.27-116.118l14.847 11.133M49.27-104.985l14.847-11.133M50.25 0h12.887M50.25-17.009h12.887M50.25-34.016h12.887M50.25-51.024h12.887M50.25-68.032h12.887M50.25-85.04h12.887M50.25-102.048h12.887M50.25-119.055h12.887" transform="matrix(1 0 0 -1 5.281 5.429)"/><path style="stroke:none;fill-rule:nonzero;fill:#4c4cff;fill-opacity:1" d="M100.688 5.43a4.698 4.698 0 0 0-9.395 0 4.698 4.698 0 0 0 9.394 0ZM100.688 22.438a4.698 4.698 0 0 0-9.395 0 4.698 4.698 0 0 0 9.394 0ZM100.688 39.445a4.698 4.698 0 0 0-9.395 0 4.698 4.698 0 0 0 9.394 0ZM100.688 56.453a4.698 4.698 0 0 0-9.395 0 4.698 4.698 0 0 0 9.394 0ZM100.688 73.46a4.698 4.698 0 0 0-9.395 0 4.698 4.698 0 0 0 9.394 0ZM100.688 90.469a4.698 4.698 0 0 0-9.395 0 4.698 4.698 0 0 0 9.394 0ZM100.688 107.477a4.698 4.698 0 0 0-9.395 0 4.698 4.698 0 0 0 9.394 0ZM100.688 124.484a4.698 4.698 0 1 0-9.393.005 4.698 4.698 0 0 0 9.392-.005Zm0 0"/><path style="fill:none;stroke-width:.3985;stroke-linecap:butt;stroke-linejoin:miter;stroke:#000;stroke-opacity:1;stroke-miterlimit:10" d="M72.926 0h12.887M72.926-17.009h12.887M72.926-34.016h12.887M72.926-51.024h12.887M72.926-68.032h12.887M72.926-85.04h12.887M72.926-102.048h12.887M72.926-119.055h12.887" transform="matrix(1 0 0 -1 5.281 5.429)"/></svg>