<svg xmlns="http://www.w3.org/2000/svg" width="73.564" height="49.923" viewBox="0 0 55.173 37.442" version="1.2"><defs><clipPath id="a"><path d="M0 0h54.758v37.164H0Zm0 0"/></clipPath></defs><path style="stroke:none;fill-rule:evenodd;fill:red;fill-opacity:1" d="M36.035 18.441c0-9.785-7.933-17.718-17.719-17.718C8.531.723.602 8.656.602 18.44c0 9.786 7.93 17.715 17.714 17.715 9.786 0 17.72-7.93 17.72-17.715Zm17.715 0C53.75 8.656 45.82.723 36.035.723S18.316 8.656 18.316 18.44c0 9.786 7.934 17.715 17.72 17.715 9.784 0 17.714-7.93 17.714-17.715Zm0 0"/><g clip-path="url(#a)"><path style="fill:none;stroke-width:.3985;stroke-linecap:butt;stroke-linejoin:miter;stroke:#000;stroke-opacity:1;stroke-miterlimit:10" d="M14.173 0C14.173 7.828 7.83 14.17.001 14.17S-14.174 7.828-14.174 0c0-7.829 6.347-14.172 14.175-14.172S14.173-7.83 14.173 0Zm14.172 0c0 7.828-6.344 14.171-14.172 14.171S.001 7.828.001 0c0-7.829 6.344-14.172 14.172-14.172S28.345-7.83 28.345 0Zm0 0" transform="matrix(1 0 0 -1 20.088 18.441)"/></g></svg>