<svg xmlns="http://www.w3.org/2000/svg" width="116.341" height="100.395" viewBox="0 0 87.256 75.296" version="1.2"><defs><clipPath id="a"><path d="M9 37h55v37.945H9Zm0 0"/></clipPath></defs><path style="fill:none;stroke-width:.19925;stroke-linecap:butt;stroke-linejoin:miter;stroke:gray;stroke-opacity:1;stroke-miterlimit:10" d="M.001 0h85.04M0 28.349h85.04M0 56.684h85.04M0 .001v56.69M28.345.002v56.69M56.693.002v56.69M85.029.002v56.69" transform="matrix(1 0 0 -1 .737 71.731)"/><path style="stroke:none;fill-rule:nonzero;fill:gray;fill-opacity:1" d="M45.469 17.25c0-7.828-6.344-14.176-14.172-14.176S17.12 9.422 17.12 17.25s6.348 14.172 14.176 14.172 14.172-6.344 14.172-14.172Zm14.172 0c0-7.828-6.344-14.176-14.172-14.176S31.297 9.422 31.297 17.25s6.344 14.172 14.172 14.172S59.64 25.078 59.64 17.25Zm0 0"/><path style="fill-rule:nonzero;fill:#fff;fill-opacity:1;stroke-width:.3985;stroke-linecap:butt;stroke-linejoin:miter;stroke:#000;stroke-opacity:1;stroke-miterlimit:10" d="M42.52 56.692c0 7.828-6.347 14.176-14.175 14.176-7.824 0-14.172-6.348-14.172-14.176 0-7.824 6.348-14.172 14.172-14.172 7.828 0 14.176 6.348 14.176 14.172Zm14.173 0c0 7.828-6.344 14.176-14.172 14.176S28.345 64.52 28.345 56.692c0-7.824 6.348-14.172 14.176-14.172s14.172 6.348 14.172 14.172Zm0 0" transform="matrix(1 0 0 -1 .737 71.731)"/><path style="stroke:none;fill-rule:nonzero;fill:gray;fill-opacity:.25" d="M45.469 59.77c0-7.829-6.344-14.172-14.172-14.172S17.12 51.94 17.12 59.77c0 7.828 6.348 14.171 14.176 14.171s14.172-6.343 14.172-14.171Zm14.172 0c0-7.829-6.344-14.172-14.172-14.172S31.297 51.94 31.297 59.77c0 7.828 6.344 14.171 14.172 14.171S59.64 67.598 59.64 59.77Zm0 0"/><path style="stroke:none;fill-rule:nonzero;fill:#fff;fill-opacity:1" d="M43.258 57.559c0-7.829-6.348-14.176-14.176-14.176-7.824 0-14.172 6.347-14.172 14.176 0 7.828 6.348 14.171 14.172 14.171 7.828 0 14.176-6.343 14.176-14.171Zm14.172 0c0-7.829-6.344-14.176-14.172-14.176S29.082 49.73 29.082 57.559c0 7.828 6.348 14.171 14.176 14.171S57.43 65.387 57.43 57.56Zm0 0"/><g clip-path="url(#a)"><path style="fill:none;stroke-width:.3985;stroke-linecap:butt;stroke-linejoin:miter;stroke:#000;stroke-opacity:1;stroke-miterlimit:10" d="M42.52 14.172c0 7.829-6.347 14.176-14.175 14.176-7.824 0-14.172-6.347-14.172-14.176 0-7.828 6.348-14.171 14.172-14.171 7.828 0 14.176 6.343 14.176 14.171Zm14.173 0c0 7.829-6.344 14.176-14.172 14.176s-14.176-6.347-14.176-14.176c0-7.828 6.348-14.171 14.176-14.171s14.172 6.343 14.172 14.171Zm0 0" transform="matrix(1 0 0 -1 .737 71.731)"/></g></svg>