<svg xmlns="http://www.w3.org/2000/svg" width="40.496" height="52.995" viewBox="0 0 30.372 39.746" version="1.2"><defs><clipPath id="a"><path d="M3 0h27.059v32H3Zm0 0"/></clipPath><clipPath id="b"><path d="M3 0h27.059v39.617H3Zm0 0"/></clipPath><clipPath id="c"><path d="M1 7h29.059v32.617H1Zm0 0"/></clipPath></defs><path style="fill:none;stroke-width:1.59404;stroke-linecap:butt;stroke-linejoin:miter;stroke:#000;stroke-opacity:1;stroke-miterlimit:10" d="M0 28.346h26.004" transform="matrix(1 0 0 -1 .695 33.92)"/><g clip-path="url(#a)"><path style="fill:none;stroke-width:1.59404;stroke-linecap:butt;stroke-linejoin:miter;stroke:#000;stroke-opacity:1;stroke-miterlimit:10" d="M-.001 3.886a1.945 1.945 0 0 0 1.945-1.942A1.946 1.946 0 0 0 0 0a1.942 1.942 0 1 0 0-3.883" transform="matrix(1 0 0 -1 26.302 5.573)"/></g><path style="fill:none;stroke-width:1.59404;stroke-linecap:butt;stroke-linejoin:miter;stroke:#000;stroke-opacity:1;stroke-miterlimit:10" d="M0 14.174h26.004" transform="matrix(1 0 0 -1 .695 33.92)"/><g clip-path="url(#b)"><path style="fill:none;stroke-width:1.59404;stroke-linecap:butt;stroke-linejoin:miter;stroke:#000;stroke-opacity:1;stroke-miterlimit:10" d="M1.944 1.942C1.944.872 1.073 0 0 0a1.945 1.945 0 0 0 1.945-1.942" transform="matrix(1 0 0 -1 26.302 19.747)"/></g><path style="fill:none;stroke-width:1.59404;stroke-linecap:butt;stroke-linejoin:miter;stroke:#000;stroke-opacity:1;stroke-miterlimit:10" d="M0-.002h26.004" transform="matrix(1 0 0 -1 .695 33.92)"/><g clip-path="url(#c)"><path style="fill:none;stroke-width:1.59404;stroke-linecap:butt;stroke-linejoin:miter;stroke:#000;stroke-opacity:1;stroke-miterlimit:10" d="M-1.943 1.943A1.944 1.944 0 1 0 0-.002a1.942 1.942 0 1 0-1.942-1.941" transform="matrix(1 0 0 -1 26.302 33.92)"/></g></svg>