<svg xmlns="http://www.w3.org/2000/svg" xmlns:xlink="http://www.w3.org/1999/xlink" width="219.912" height="136.347" viewBox="0 0 164.934 102.26" version="1.2"><defs><symbol overflow="visible" id="b"><path style="stroke:none" d="M2.25-1.625c.125-.125.453-.39.594-.5.484-.453.953-.89.953-1.61 0-.953-.797-1.562-1.781-1.562-.97 0-1.594.719-1.594 1.438 0 .39.312.437.422.437.172 0 .422-.11.422-.422 0-.406-.407-.406-.5-.406.234-.594.765-.781 1.156-.781.734 0 1.125.625 1.125 1.297 0 .828-.578 1.437-1.531 2.39l-1 1.047C.422-.219.422-.203.422 0h3.14l.235-1.422h-.25c-.016.156-.078.547-.172.703-.047.063-.656.063-.781.063H1.172Zm0 0"/></symbol><symbol overflow="visible" id="c"><path style="stroke:none" d="M2.016-2.656c.625 0 1.03.453 1.03 1.297 0 1-.562 1.28-.983 1.28-.438 0-1.047-.155-1.329-.577.297 0 .5-.188.5-.438 0-.265-.187-.437-.453-.437-.203 0-.437.125-.437.453 0 .75.812 1.25 1.734 1.25 1.047 0 1.797-.734 1.797-1.531 0-.672-.531-1.266-1.344-1.454.625-.218 1.11-.75 1.11-1.39 0-.64-.72-1.094-1.547-1.094-.86 0-1.5.453-1.5 1.063 0 .296.187.421.406.421.25 0 .406-.171.406-.406 0-.297-.265-.406-.437-.406.344-.438.953-.469 1.094-.469.203 0 .812.063.812.89 0 .548-.234.891-.344 1.016-.234.25-.422.266-.906.297-.156 0-.219.016-.219.125 0 .11.078.11.219.11Zm0 0"/></symbol><symbol overflow="visible" id="d"><path style="stroke:none" d="M1.11-4.484c.109.03.421.125.765.125 1 0 1.594-.704 1.594-.829 0-.093-.047-.109-.094-.109-.016 0-.031 0-.094.031a2.982 2.982 0 0 1-1.11.22c-.468 0-.858-.11-1.108-.22-.079-.03-.094-.03-.11-.03-.094 0-.094.077-.094.234v2.328c0 .14 0 .234.125.234.063 0 .079-.031.125-.094.094-.11.391-.515 1.079-.515.437 0 .656.359.734.515.125.281.14.656.14.953 0 .297 0 .735-.218 1.079-.156.25-.485.484-.906.484A1.271 1.271 0 0 1 .734-.922c.016.016.079.016.079.016.218 0 .406-.14.406-.39a.388.388 0 0 0-.39-.407c-.157 0-.407.078-.407.422 0 .718.625 1.453 1.531 1.453 1 0 1.844-.781 1.844-1.766 0-.922-.672-1.75-1.61-1.75-.39 0-.765.125-1.078.406Zm0 0"/></symbol><symbol overflow="visible" id="e"><path style="stroke:none" d="M4.031-4.86c.078-.077.078-.093.078-.265H2.08a8.79 8.79 0 0 1-.642-.031c-.421-.032-.421-.11-.453-.235h-.25L.47-3.703h.25c.015-.125.11-.672.219-.735.078-.046.687-.046.796-.046h1.688l-.813 1.109C1.703-2.172 1.5-.906 1.5-.281c0 .078 0 .453.375.453s.375-.36.375-.453v-.39c0-1.141.203-2.079.594-2.61Zm0 0"/></symbol><symbol overflow="visible" id="f"><path style="stroke:none" d="M2.5-5.078c0-.219-.016-.219-.234-.219-.329.313-.75.5-1.5.5v.266c.218 0 .64 0 1.109-.203v4.078c0 .297-.031.39-.781.39H.812V0c.329-.031 1.016-.031 1.375-.031.36 0 1.047 0 1.376.031v-.266H3.28c-.75 0-.781-.093-.781-.39Zm0 0"/></symbol><symbol overflow="visible" id="g"><path style="stroke:none" d="M3.89-2.547c0-.844-.078-1.36-.343-1.875-.344-.703-1-.875-1.438-.875-1 0-1.375.75-1.484.969C.344-3.75.328-2.953.328-2.547c0 .531.016 1.328.406 1.969.36.594.954.75 1.375.75.391 0 1.063-.125 1.47-.906.296-.579.312-1.297.312-1.813ZM2.11-.062c-.266 0-.813-.126-.985-.954-.094-.453-.094-1.203-.094-1.625 0-.546 0-1.109.094-1.546.172-.813.781-.891.984-.891.266 0 .829.14.985.86.094.437.094 1.046.094 1.577 0 .47 0 1.188-.094 1.641-.172.828-.719.938-.985.938Zm0 0"/></symbol><symbol overflow="visible" id="h"><path style="stroke:none" d="M1.625-.438a.463.463 0 0 0-.453-.453.447.447 0 0 0-.438.438.44.44 0 0 0 .438.453.45.45 0 0 0 .453-.438Zm0 0"/></symbol><clipPath id="a"><path d="M154 0h10.902v11H154Zm0 0"/></clipPath></defs><path style="fill:none;stroke-width:.3985;stroke-linecap:round;stroke-linejoin:miter;stroke:gray;stroke-opacity:1;stroke-miterlimit:10" d="M18.896-1.992V0M28.345-1.992V0M47.244-1.992V0M66.142-1.992V0M103.94-1.992V0M122.838-1.992V0M18.896 87.59v1.993M28.345 87.59v1.993M47.244 87.59v1.993M66.142 87.59v1.993M103.94 87.59v1.993M122.838 87.59v1.993M-1.99 0H.001M-1.99 14.598H.001M-1.99 29.196H.001M-1.99 43.797H.001M-1.99 58.395H.001M-1.99 72.993H.001M-1.99 87.59H.001M141.736 0h1.992M141.736 14.598h1.992M141.736 29.196h1.992M141.736 43.797h1.992M141.736 58.395h1.992M141.736 72.993h1.992M141.736 87.59h1.992" transform="matrix(1 0 0 -1 19.975 90.938)"/><path style="fill:none;stroke-width:.3985;stroke-linecap:butt;stroke-linejoin:miter;stroke:gray;stroke-opacity:1;stroke-miterlimit:10" d="M.002 0h141.734M.002 87.59h141.734M.002 0v87.59M141.736 0v87.59" transform="matrix(1 0 0 -1 19.975 90.938)"/><path style="fill:none;stroke-width:.3985;stroke-linecap:butt;stroke-linejoin:miter;stroke:#000;stroke-opacity:1;stroke-miterlimit:10" d="m-1.409-1.41 2.817 2.82m-2.817 0 2.817-2.82" transform="matrix(1 0 0 -1 19.975 90.938)"/><g clip-path="url(#a)"><path style="fill:none;stroke-width:.3985;stroke-linecap:butt;stroke-linejoin:miter;stroke:#000;stroke-opacity:1;stroke-miterlimit:10" d="m140.326 86.18 2.816 2.82m-2.816 0 2.816-2.82" transform="matrix(1 0 0 -1 19.975 90.938)"/></g><use xlink:href="#b" x="36.755" y="100.723" style="fill:#000;fill-opacity:1"/><use xlink:href="#c" x="46.204" y="100.723" style="fill:#000;fill-opacity:1"/><use xlink:href="#d" x="65.102" y="100.723" style="fill:#000;fill-opacity:1"/><use xlink:href="#e" x="84" y="100.723" style="fill:#000;fill-opacity:1"/><g style="fill:#000;fill-opacity:1"><use xlink:href="#f" x="119.678" y="100.723"/><use xlink:href="#f" x="123.913" y="100.723"/></g><g style="fill:#000;fill-opacity:1"><use xlink:href="#f" x="138.576" y="100.723"/><use xlink:href="#c" x="142.811" y="100.723"/></g><use xlink:href="#g" x="11.092" y="93.506" style="fill:#000;fill-opacity:1"/><use xlink:href="#b" x="4.505" y="78.908" style="fill:#000;fill-opacity:1"/><use xlink:href="#h" x="8.74" y="78.908" style="fill:#000;fill-opacity:1"/><use xlink:href="#d" x="11.092" y="78.908" style="fill:#000;fill-opacity:1"/><use xlink:href="#d" x="11.092" y="64.31" style="fill:#000;fill-opacity:1"/><use xlink:href="#e" x="4.505" y="49.711" style="fill:#000;fill-opacity:1"/><use xlink:href="#h" x="8.74" y="49.711" style="fill:#000;fill-opacity:1"/><use xlink:href="#d" x="11.092" y="49.711" style="fill:#000;fill-opacity:1"/><g style="fill:#000;fill-opacity:1"><use xlink:href="#f" x="6.858" y="35.113"/><use xlink:href="#g" x="11.093" y="35.113"/></g><g style="fill:#000;fill-opacity:1"><use xlink:href="#f" x=".271" y="20.515"/><use xlink:href="#b" x="4.506" y="20.515"/></g><use xlink:href="#h" x="8.74" y="20.515" style="fill:#000;fill-opacity:1"/><use xlink:href="#d" x="11.092" y="20.515" style="fill:#000;fill-opacity:1"/><g style="fill:#000;fill-opacity:1"><use xlink:href="#f" x="6.858" y="5.917"/><use xlink:href="#d" x="11.093" y="5.917"/></g></svg>