<svg xmlns="http://www.w3.org/2000/svg" xmlns:xlink="http://www.w3.org/1999/xlink" width="22.851" height="7.299" viewBox="0 0 17.138 5.474" version="1.2"><defs><symbol overflow="visible" id="a"><path style="stroke:none" d="M3.75-.922c0-.484-.422-.812-1.016-.86.532-.093.86-.39.86-.78 0-.454-.438-.86-1.235-.86H.188v.235h.546v2.953H.188V0H2.5c.828 0 1.25-.438 1.25-.922Zm-.86-1.64c0 .39-.25.687-.734.687h-.765v-1.313h.906c.5 0 .594.391.594.626Zm.126 1.624c0 .063 0 .704-.72.704h-.905v-1.454h.968c.094 0 .329 0 .5.22.157.202.157.484.157.53Zm0 0"/></symbol><symbol overflow="visible" id="b"><path style="stroke:none" d="M2.469-.578c0-.094-.094-.094-.125-.094-.078 0-.094.031-.125.11-.11.234-.39.39-.719.39-.703 0-.703-.656-.703-.922h1.5c.11 0 .172 0 .172-.125 0-.156-.031-.515-.281-.765-.188-.188-.454-.282-.797-.282-.797 0-1.235.516-1.235 1.141 0 .672.5 1.156 1.297 1.156.797 0 1.016-.531 1.016-.61Zm-.485-.672H.797c.015-.203.015-.406.125-.563a.553.553 0 0 1 .469-.265c.578 0 .593.656.593.828Zm0 0"/></symbol><symbol overflow="visible" id="c"><path style="stroke:none" d="M2.203-1.828c0-.266-.265-.422-.531-.422-.344 0-.547.25-.656.563v-.563l-.829.047v.234c.313 0 .344 0 .344.188v1.547H.187V0l.625-.016c.188 0 .516 0 .688.016v-.234h-.438v-.875c0-.344.125-.954.625-.954 0 0-.093.079-.093.235 0 .203.156.297.312.297.14 0 .297-.11.297-.297Zm0 0"/></symbol><symbol overflow="visible" id="d"><path style="stroke:none" d="M1.453 0v-.234H1.11v-3.22l-.875.032v.235c.313 0 .344 0 .344.203v2.75H.234V0l.61-.016Zm0 0"/></symbol><symbol overflow="visible" id="e"><path style="stroke:none" d="M1.422 0v-.234h-.313V-2.25l-.859.047v.234c.297 0 .328 0 .328.188v1.547H.234V0l.61-.016Zm-.234-3.031a.397.397 0 0 0-.391-.39.397.397 0 0 0-.39.39c0 .219.171.39.39.39s.39-.171.39-.39Zm0 0"/></symbol><symbol overflow="visible" id="f"><path style="stroke:none" d="M3.063 0v-.234h-.344v-1.297c0-.516-.266-.719-.766-.719-.484 0-.734.297-.875.547v-.547l-.86.047v.234c.313 0 .345 0 .345.188v1.547H.219V0l.64-.016.625.016v-.234h-.343v-1.047c0-.532.421-.782.734-.782.172 0 .281.11.281.485v1.344h-.344V0l.625-.016Zm0 0"/></symbol></defs><g style="fill:#000;fill-opacity:1"><use xlink:href="#a" x=".407" y="4.175"/><use xlink:href="#b" x="4.482" y="4.175"/><use xlink:href="#c" x="7.107" y="4.175"/><use xlink:href="#d" x="9.468" y="4.175"/><use xlink:href="#e" x="11.057" y="4.175"/><use xlink:href="#f" x="12.646" y="4.175"/></g></svg>