<svg xmlns="http://www.w3.org/2000/svg" width="123.915" height="6.579" viewBox="0 0 92.936 4.934" version="1.2"><defs><clipPath id="a"><path d="M0 0h41v4.902H0Zm0 0"/></clipPath><clipPath id="b"><path d="M23 0h47v4.902H23Zm0 0"/></clipPath><clipPath id="c"><path d="M52 0h40.902v4.902H52Zm0 0"/></clipPath></defs><g clip-path="url(#a)"><path style="fill:none;stroke-width:.3985;stroke-linecap:butt;stroke-linejoin:miter;stroke:#000;stroke-opacity:1;stroke-miterlimit:10" d="M11.34 0c5.741 3.317 11.265 3.317 17.007 0 5.742 3.317 11.266 3.317 17.008 0" transform="matrix(1 0 0 -1 -10.261 3.665)"/></g><g clip-path="url(#b)"><path style="fill:none;stroke-width:.3985;stroke-linecap:butt;stroke-linejoin:miter;stroke:#000;stroke-opacity:1;stroke-miterlimit:10" d="M39.687 0c5.742 3.317 11.262 3.317 17.008 0 5.742 3.317 11.261 3.317 17.007 0" transform="matrix(1 0 0 -1 -10.261 3.665)"/></g><g clip-path="url(#c)"><path style="fill:none;stroke-width:.3985;stroke-linecap:butt;stroke-linejoin:miter;stroke:#000;stroke-opacity:1;stroke-miterlimit:10" d="M68.03 0c5.747 3.317 11.266 3.317 17.012 0 5.742 3.317 11.262 3.317 17.008 0" transform="matrix(1 0 0 -1 -10.261 3.665)"/></g></svg>