<svg xmlns="http://www.w3.org/2000/svg" xmlns:xlink="http://www.w3.org/1999/xlink" width="379.131" height="90.171" viewBox="0 0 284.348 67.628" version="1.2"><defs><symbol overflow="visible" id="a"><path style="stroke:none" d="M7.64-2.266c0-.203-.077-.203-.25-.203-.124 0-.218 0-.218.172C7.094-.969 5.89-.359 4.89-.359c-.782 0-1.625-.235-2.141-.844-.469-.578-.594-1.313-.594-2.219 0-.562.031-1.625.672-2.297.64-.656 1.516-.765 2.031-.765 1.079 0 2.016.765 2.235 2.03.031.188.047.204.265.204.266 0 .282-.016.282-.281v-2.14c0-.188 0-.282-.188-.282-.094 0-.11.031-.187.094l-.657.593a3.03 3.03 0 0 0-1.968-.687c-2.485 0-4 1.484-4 3.531S2.156.11 4.64.11c1.875 0 3-1.218 3-2.375Zm0 0"/></symbol><symbol overflow="visible" id="b"><path style="stroke:none" d="M5.406-2.172c0-1.344-.922-2.344-2.547-2.344C1.22-4.516.313-3.5.313-2.172c0 1.235.89 2.235 2.546 2.235 1.672 0 2.547-1.016 2.547-2.235Zm-1.281-.11c0 .86 0 1.938-1.266 1.938-1.265 0-1.265-1.078-1.265-1.937 0-.453 0-.953.172-1.297.187-.375.609-.578 1.093-.578.422 0 .844.156 1.063.5.203.344.203.89.203 1.375Zm0 0"/></symbol><symbol overflow="visible" id="c"><path style="stroke:none" d="M9.328 0v-.469h-.687v-2.578c0-1.031-.516-1.437-1.547-1.437-.907 0-1.422.5-1.688.953-.187-.922-1.11-.953-1.484-.953-.875 0-1.438.453-1.766 1.078v-1.078l-1.703.078v.468c.61 0 .688 0 .688.391v3.078H.453V0l1.25-.031L2.953 0v-.469h-.687v-2.078c0-1.094.875-1.578 1.5-1.578.328 0 .546.203.546.969V-.47h-.687V0l1.266-.031L6.14 0v-.469h-.688v-2.078c0-1.094.86-1.578 1.484-1.578.344 0 .563.203.563.969V-.47h-.688V0l1.25-.031Zm0 0"/></symbol><symbol overflow="visible" id="d"><path style="stroke:none" d="M5.984-2.219c0-1.328-.906-2.265-2.343-2.265-.75 0-1.282.312-1.5.484v-.484l-1.766.078v.468c.61 0 .688 0 .688.376v5.03H.375v.47l1.25-.032 1.25.032v-.47h-.688V-.39A2.01 2.01 0 0 0 3.47.063c1.5 0 2.515-.907 2.515-2.282Zm-1.28 0C4.703-.813 4-.297 3.358-.297c-.14 0-.609 0-1.062-.547-.11-.125-.11-.14-.11-.328v-2.11c0-.187.016-.202.157-.343.39-.406.922-.469 1.14-.469.657 0 1.22.61 1.22 1.875Zm0 0"/></symbol><symbol overflow="visible" id="e"><path style="stroke:none" d="M6.125 0v-.469c-.61 0-.688 0-.688-.39v-3.625l-1.812.078v.468c.61 0 .688 0 .688.391v1.906c0 .813-.516 1.344-1.235 1.344-.781 0-.812-.25-.812-.797v-3.39l-1.813.078v.468c.61 0 .688 0 .688.391v2.328c0 1.063.796 1.282 1.796 1.282.25 0 .97 0 1.422-.782v.781Zm0 0"/></symbol><symbol overflow="visible" id="f"><path style="stroke:none" d="M3.813-1.234v-.532h-.47v.516c0 .672-.327.906-.609.906-.578 0-.578-.64-.578-.86v-2.75h1.469v-.468H2.156v-1.906h-.469c0 1-.484 1.984-1.484 2.016v.359h.828v2.734c0 1.063.86 1.282 1.578 1.282.75 0 1.204-.579 1.204-1.297Zm0 0"/></symbol><symbol overflow="visible" id="g"><path style="stroke:none" d="M5.516-.234c0-.235-.125-.235-.266-.235-.61-.015-.61-.14-.61-.375v-2.14c0-.891-.702-1.532-2.187-1.532-.562 0-1.781.047-1.781.922 0 .438.344.625.61.625.312 0 .624-.219.624-.625 0-.297-.187-.469-.218-.5a5.28 5.28 0 0 1 .718-.062c.75 0 1.11.422 1.11 1.172v.343c-.72.032-3.25.125-3.25 1.563C.266-.125 1.5.062 2.187.062c.797 0 1.266-.406 1.485-.828 0 .313 0 .766 1.047.766h.468c.204 0 .329 0 .329-.234Zm-2-1.157c0 .97-.922 1.094-1.172 1.094-.516 0-.906-.344-.906-.797 0-1.062 1.578-1.203 2.078-1.234Zm0 0"/></symbol><symbol overflow="visible" id="h"><path style="stroke:none" d="M2.844 0v-.469h-.61v-4.015L.5-4.406v.468c.594 0 .656 0 .656.391v3.078H.47V0l1.219-.031Zm-.469-6.047a.774.774 0 0 0-.781-.781.784.784 0 0 0-.782.781c0 .422.36.766.782.766a.77.77 0 0 0 .781-.766Zm0 0"/></symbol><symbol overflow="visible" id="i"><path style="stroke:none" d="M6.125 0v-.469h-.688v-2.578c0-1.047-.53-1.437-1.53-1.437-.954 0-1.485.562-1.75 1.078v-1.078l-1.704.078v.468c.61 0 .688 0 .688.391v3.078H.453V0l1.25-.031L2.953 0v-.469h-.687v-2.078c0-1.094.859-1.578 1.5-1.578.328 0 .546.203.546.969V-.47h-.687V0l1.25-.031Zm0 0"/></symbol><symbol overflow="visible" id="j"><path style="stroke:none" d="M2.922 0v-.469h-.688v-6.453L.47-6.844v.469c.625 0 .687 0 .687.39v5.516H.47V0l1.219-.031Zm0 0"/></symbol><symbol overflow="visible" id="k"><path style="stroke:none" d="M4.922-1.172c0-.172-.188-.172-.234-.172-.172 0-.188.047-.25.203-.204.485-.782.797-1.422.797-1.407 0-1.422-1.328-1.422-1.828h3.015c.22 0 .313 0 .313-.265 0-.313-.063-1.047-.563-1.547-.359-.36-.89-.532-1.578-.532C1.187-4.516.312-3.484.312-2.25c0 1.344 1 2.313 2.61 2.313 1.578 0 2-1.063 2-1.235ZM3.984-2.5h-2.39c.015-.39.031-.813.234-1.14.266-.391.672-.516.953-.516 1.172 0 1.188 1.312 1.203 1.656Zm0 0"/></symbol><symbol overflow="visible" id="l"><path style="stroke:none" d="M5.828 0v-.469h-.703L3.453-2.453 4.61-3.75c.141-.14.204-.203 1.016-.203v-.469l-.906.031-1.032-.03v.468c.141 0 .266.015.376.078-.032.063-.032.094-.079.125l-.828.938-.984-1.141h.406v-.469L1.36-4.39.266-4.42v.468h.718l1.547 1.828L1.22-.656c-.157.187-.516.187-1 .187V0l.922-.031L2.156 0v-.469c-.172 0-.36-.047-.36-.11 0 0 0-.015.063-.093l.97-1.094L3.921-.469h-.39V0l1.202-.031Zm0 0"/></symbol><symbol overflow="visible" id="m"><path style="stroke:none" d="M5.781-3.953v-.469A12.55 12.55 0 0 1 5-4.39l-.906-.03v.468s.468 0 .468.11L4.5-3.72 3.36-1.266 2.093-3.953h.531v-.469l-1.234.031-1.125-.03v.468H.89L2.766 0 2.53.484C2.312.954 2 1.641 1.281 1.641c-.14 0-.156-.016-.234-.047.094-.032.312-.172.312-.532C1.36.734 1.125.5.781.5a.553.553 0 0 0-.562.578c0 .5.469.922 1.062.922.766 0 1.344-.625 1.625-1.188l2.14-4.562c.063-.14.095-.203.735-.203Zm0 0"/></symbol><symbol overflow="visible" id="n"><path style="stroke:none" d="M7.188-4.89c0-1.094-.985-1.954-2.641-1.954H.39v.469h1.078v5.906H.39V0C.766-.031 1.75-.031 2.17-.031c.438 0 1.407 0 1.782.031v-.469H2.875v-2.547h1.766c1.39 0 2.546-.718 2.546-1.875Zm-1.532 0c0 .702 0 1.468-1.5 1.468H2.828v-2.953h1.344c1.484 0 1.484.766 1.484 1.484Zm0 0"/></symbol><symbol overflow="visible" id="o"><path style="stroke:none" d="M4.406-3.672c0-.531-.531-.812-1.062-.812-.688 0-1.094.5-1.313 1.125v-1.125l-1.656.078v.468c.61 0 .688 0 .688.391v3.078H.375V0l1.25-.031C2-.031 2.641-.031 3 0v-.469h-.86v-1.75c0-.687.235-1.906 1.235-1.906 0 0-.188.172-.188.453 0 .406.329.61.61.61.297 0 .61-.204.61-.61Zm0 0"/></symbol><symbol overflow="visible" id="p"><path style="stroke:none" d="M5.984-2.219c0-1.328-.937-2.265-2.39-2.265-.719 0-1.219.28-1.453.484v-2.922l-1.766.078v.469c.61 0 .688 0 .688.39V0h.468c.157-.188.328-.375.485-.563.078.079.562.625 1.453.625 1.484 0 2.515-.906 2.515-2.28Zm-1.28 0c0 .469 0 1.016-.25 1.406-.298.407-.75.516-1.079.516-.688 0-1.078-.547-1.188-.687v-2.5c.282-.36.75-.641 1.297-.641 1.22 0 1.22 1.203 1.22 1.906Zm0 0"/></symbol><symbol overflow="visible" id="q"><path style="stroke:none" d="M4.14-1.39c0-.438-.202-.782-.546-1.063-.39-.281-.719-.344-1.485-.485-.375-.062-1.015-.171-1.015-.64 0-.625.922-.625 1.11-.625.75 0 1.124.297 1.171.844.016.156.031.203.234.203.235 0 .235-.047.235-.281v-.797c0-.188 0-.282-.172-.282-.047 0-.063 0-.453.188-.266-.125-.61-.188-1-.188-.313 0-1.844 0-1.844 1.313 0 .39.203.656.406.828.39.344.781.406 1.547.547.36.062 1.094.187 1.094.781 0 .75-.906.75-1.125.75C1.234-.297.984-1.03.859-1.453c-.046-.14-.109-.14-.234-.14-.25 0-.25.062-.25.28v1.094c0 .188 0 .281.188.281.062 0 .078 0 .296-.156l.25-.172c.47.329.985.329 1.188.329.312 0 1.844 0 1.844-1.454Zm0 0"/></symbol><symbol overflow="visible" id="r"><path style="stroke:none" d="M10.484 0v-.469H9.406v-5.906h1.078v-.469H8.281c-.219 0-.344 0-.453.25l-2.39 5.282-2.391-5.282c-.11-.25-.219-.25-.438-.25H.406v.469H1.47V-.75c0 .219 0 .219-.282.25-.234.031-.265.031-.546.031H.406V0c.375-.031.938-.031 1.328-.031.422 0 .938 0 1.344.031v-.469h-.25c-.172 0-.344-.015-.531-.031C2.016-.531 2-.531 2-.75v-5.484h.016L4.719-.25c.093.203.218.25.328.25.203 0 .281-.156.312-.234l2.782-6.141h.015v5.906H7.078V0c.36-.031 1.281-.031 1.688-.031.421 0 1.359 0 1.718.031Zm0 0"/></symbol><symbol overflow="visible" id="s"><path style="stroke:none" d="M8.25 0v-.469h-.969L4.72-6.703c-.11-.25-.219-.25-.39-.25-.282 0-.329.078-.391.25l-2.47 6c-.062.156-.093.234-.843.234H.406V0l1.172-.031c.39 0 .938 0 1.313.031v-.469S2-.469 2-.594l.047-.125.5-1.203h2.672l.593 1.453H4.86V0c.391-.031 1.329-.031 1.766-.031.39 0 1.266 0 1.625.031ZM5.016-2.39H2.734l1.141-2.766Zm0 0"/></symbol><symbol overflow="visible" id="t"><path style="stroke:none" d="M4.766-1.172c0-.14-.141-.14-.235-.14-.187 0-.187.03-.25.156-.25.625-.734.812-1.234.812-1.39 0-1.39-1.453-1.39-1.922 0-.562 0-1.843 1.28-1.843.36 0 .516.015.657.046a.618.618 0 0 0-.203.47c0 .437.343.624.609.624.313 0 .64-.219.64-.625 0-.86-1.156-.922-1.734-.922C1.11-4.516.375-3.375.375-2.219.375-.89 1.313.062 2.844.062c1.625 0 1.922-1.156 1.922-1.234Zm0 0"/></symbol><symbol overflow="visible" id="u"><path style="stroke:none" d="M8.14-3.36c0-2.187-1.484-3.484-3.468-3.484H.39v.469h1.078v5.906H.39V0h4.296c1.97 0 3.454-1.219 3.454-3.36Zm-1.468-.015c0 1.094-.11 1.625-.438 2.063-.468.687-1.343.843-1.953.843H2.828v-5.906h1.453c.657 0 1.485.188 1.969.89.344.516.422 1.188.422 2.11Zm0 0"/></symbol><symbol overflow="visible" id="v"><path style="stroke:none" d="M8.5 0v-.469h-.297c-.531 0-.562-.047-.672-.203L4.828-4.203l2.406-1.984c.22-.188.625-.188.938-.188h.156v-.469c-.39.032-.969.032-1.015.032-.375 0-1.094 0-1.454-.032v.469c.125 0 .329 0 .579.063.156.03.046.015.125.046L2.874-3.187v-3.188h1.078v-.469c-.375.032-1.344.032-1.781.032-.422 0-1.406 0-1.781-.032v.469h1.078v5.906H.39V0C.766-.031 1.75-.031 2.17-.031c.438 0 1.407 0 1.782.031v-.469H2.875v-2.094l1-.828L5.938-.687c.046.062.046.078.078.14-.188.078-.391.078-.735.078V0c.407-.031 1.313-.031 1.75-.031.407 0 1.094 0 1.469.031Zm0 0"/></symbol><symbol overflow="visible" id="w"><path style="stroke:none" d="M5.984 0v-.469c-.609 0-.687 0-.687-.39v-6.063l-1.766.078v.469c.625 0 .703 0 .703.39v1.954a2.178 2.178 0 0 0-1.359-.453c-1.453 0-2.5.875-2.5 2.28 0 1.313.922 2.267 2.39 2.267.61 0 1.094-.235 1.407-.485v.484ZM4.172-1.031c-.14.187-.547.734-1.297.734-1.219 0-1.219-1.203-1.219-1.906 0-.485 0-1.016.25-1.406.297-.422.766-.516 1.078-.516.563 0 .97.313 1.188.61Zm0 0"/></symbol><symbol overflow="visible" id="x"><path style="stroke:none" d="m7.547-4.328-.203-2.406H.625L.422-4.328H.89c.093-1.125.187-1.938 1.625-1.938h.765v5.797H1.75V0c.547-.031 1.656-.031 2.234-.031.594 0 1.704 0 2.235.031v-.469H4.687v-5.797h.766c1.422 0 1.531.797 1.625 1.938Zm0 0"/></symbol><symbol overflow="visible" id="y"><path style="stroke:none" d="M5.563-3.953c0-.235-.172-.578-.625-.578-.157 0-.625.031-1.063.375-.172-.125-.594-.328-1.328-.328-1.438 0-1.985.78-1.985 1.468 0 .407.188.829.516 1.047-.281.36-.344.688-.344.89 0 .157.047.641.438.954-.125.031-.86.25-.86.875C.313 1.25.875 2 2.86 2 4.625 2 5.406 1.422 5.406.719c0-.297-.078-.922-.75-1.266-.562-.281-1.156-.281-2.11-.281-.265 0-.718 0-.765-.016a.625.625 0 0 1-.562-.625c0-.093.047-.25.11-.328.452.234.968.266 1.218.266 1.437 0 1.984-.782 1.984-1.485 0-.468-.25-.796-.406-.953.297-.156.516-.172.625-.187a.433.433 0 0 0-.047.203c0 .25.172.422.438.422a.41.41 0 0 0 .421-.422Zm-2.141.937c0 .454 0 1.125-.875 1.125s-.875-.671-.875-1.125c0-.437 0-1.109.875-1.109s.875.672.875 1.11ZM4.547.75c0 .36-.39.89-1.688.89-1.187 0-1.687-.452-1.687-.906 0-.609.625-.609.766-.609h1.171c.313 0 1.438 0 1.438.625Zm0 0"/></symbol><symbol overflow="visible" id="z"><path style="stroke:none" d="M6.125 0v-.469h-.688v-2.578c0-1.047-.53-1.437-1.53-1.437a1.9 1.9 0 0 0-1.688.953v-3.39l-1.766.077v.469c.61 0 .688 0 .688.39v5.516H.453V0l1.25-.031L2.953 0v-.469h-.687v-2.078c0-1.094.859-1.578 1.5-1.578.328 0 .546.203.546.969V-.47h-.687V0l1.25-.031Zm0 0"/></symbol><symbol overflow="visible" id="A"><path style="stroke:none" d="M8.547-.953c0-.219-.14-.219-.235-.219-.203 0-.218.11-.234.234-.047.47-.328.688-.625.688-.61 0-.687-.703-.75-1.125-.016-.11-.094-.797-.11-.844-.14-.703-.687-1.015-1.109-1.172C6.641-3.687 7.141-4.344 7.141-5c0-1-1.094-1.844-2.97-1.844H.392v.469h1.078v5.906H.39V0C.75-.031 1.719-.031 2.14-.031c.421 0 1.39 0 1.75.031v-.469H2.828v-2.765h1.156c.141 0 .579 0 .891.328.313.36.313.547.313 1.265 0 .657 0 1.157.703 1.485.437.218 1.062.265 1.468.265 1.063 0 1.188-.89 1.188-1.062ZM5.625-4.984c0 .562 0 1.39-1.64 1.39H2.827v-2.781H4c1.61 0 1.625.781 1.625 1.39Zm0 0"/></symbol><symbol overflow="visible" id="B"><path style="stroke:none" d="M3.172-1.734v-.97H.125v.97Zm0 0"/></symbol><symbol overflow="visible" id="C"><path style="stroke:none" d="M7.5-1.86c0-.952-.844-1.624-2.031-1.702 1.078-.204 1.718-.797 1.718-1.563 0-.922-.875-1.719-2.468-1.719H.39v.469h1.078v5.906H.39V0h4.625C6.672 0 7.5-.875 7.5-1.86ZM5.766-5.124c0 .766-.47 1.39-1.438 1.39H2.766v-2.64h1.812c1.016 0 1.188.797 1.188 1.25Zm.28 3.266c0 .109 0 1.39-1.437 1.39H2.766v-2.906h1.937c.203 0 .672 0 1.016.422.328.422.328.984.328 1.094Zm0 0"/></symbol><symbol overflow="visible" id="D"><path style="stroke:none" d="M7.969-3.375c0-2.156-1.453-3.578-3.657-3.578-2.28 0-3.671 1.484-3.671 3.578C.64-1.312 2.03.109 4.297.109c2.297 0 3.672-1.437 3.672-3.484Zm-1.532-.156c0 .703-.03 1.594-.453 2.281a1.97 1.97 0 0 1-1.687.938 1.938 1.938 0 0 1-1.719-1.032c-.328-.625-.422-1.328-.422-2.187 0-.64.031-1.485.469-2.156a2.01 2.01 0 0 1 1.672-.86c.64 0 1.328.281 1.719.938.39.64.421 1.406.421 2.078Zm0 0"/></symbol><symbol overflow="visible" id="E"><path style="stroke:none" d="M6.406-2.734h-.468c-.079.687-.25 2.265-2.032 2.265H2.875v-5.906h1.36v-.469c-.454.032-1.532.032-2.016.032-.438 0-1.453 0-1.828-.032v.469h1.078v5.906H.39V0h5.703Zm0 0"/></symbol><symbol overflow="visible" id="F"><path style="stroke:none" d="M4.36-6.11c0-.421-.36-.874-1.141-.874-.969 0-2.047.421-2.047 1.546v1.016h-.75v.469h.75V-.47H.484V0l1.25-.031c.375 0 1.016 0 1.375.031v-.469H2.25v-3.484h1.14v-.469H2.188v-1.016c0-1.093.75-1.187 1-1.187.047 0 .11 0 .172.031a.585.585 0 0 0-.234.485c0 .421.36.609.61.609.296 0 .624-.203.624-.61Zm0 0"/></symbol><symbol overflow="visible" id="G"><path style="stroke:none" d="M5.719-2.031c0-1.094-.797-1.906-1.719-2.094l-1.438-.313c-.406-.093-.953-.421-.953-1.03 0-.438.282-1.048 1.266-1.048.797 0 1.813.329 2.047 1.688.031.25.031.266.234.266.25 0 .25-.047.25-.282v-1.828c0-.187 0-.281-.187-.281-.078 0-.078.016-.188.11l-.453.437C4-6.86 3.344-6.953 2.875-6.953c-1.516 0-2.234.969-2.234 2.016 0 .64.328 1.093.53 1.312.5.5.829.563 1.923.797.875.203 1.047.219 1.265.437.141.141.391.407.391.86 0 .484-.25 1.172-1.297 1.172-.75 0-2.265-.204-2.344-1.688-.015-.172-.015-.219-.234-.219-.234 0-.234.047-.234.282v1.812C.64.016.64.11.812.11.906.11.922.094 1 .016l.469-.454C2.125.047 3.047.11 3.453.11 5.11.11 5.72-1.016 5.72-2.03Zm0 0"/></symbol><symbol overflow="visible" id="H"><path style="stroke:none" d="M5.781-3.953v-.469c-.25.016-.531.031-.781.031l-.906-.03v.468c.187 0 .468.031.468.11 0 0 0 .015-.046.109l-1.157 2.5-1.265-2.72h.531v-.468l-1.234.031-1.125-.03v.468H.89l1.75 3.75c.125.25.25.25.375.25.171 0 .28-.031.375-.25L5.047-3.75c.062-.14.094-.203.734-.203Zm0 0"/></symbol><symbol overflow="visible" id="I"><path style="stroke:none" d="M7.203-2.734h-.469C6.516-1.36 6.234-.47 4.391-.47H2.875V-3.28h.547c.969 0 1.062.437 1.062 1.172h.47v-2.813h-.47c0 .75-.093 1.172-1.062 1.172h-.547v-2.563h1.516c1.609 0 1.875.735 2.03 1.938h.47l-.313-2.406H.391v.468h1.078v5.844H.39V0H6.75Zm0 0"/></symbol><symbol overflow="visible" id="J"><path style="stroke:none" d="M4.61-2.016h-.47C4.048-1 3.89-.406 2.579-.406h-.86L4.469-4c.095-.11.11-.125.11-.219 0-.203-.14-.203-.328-.203H.594l-.11 1.734h.47c.046-1.015.359-1.374 1.39-1.374h.844L.405-.438C.312-.329.312-.314.312-.22.313 0 .454 0 .641 0h3.78Zm0 0"/></symbol><symbol overflow="visible" id="K"><path style="stroke:none" d="m6.734-4.375-.312-2.406H.39v.468h1.078v5.844H.39V0c.375-.031 1.39-.031 1.828-.031.484 0 1.562 0 2.015.031v-.469H2.875v-2.687h.5c.969 0 1.047.422 1.047 1.156h.469v-2.797h-.47c0 .734-.077 1.172-1.046 1.172h-.5v-2.688h1.406c1.594 0 1.828.766 1.985 1.938Zm0 0"/></symbol></defs><g style="fill:#000;fill-opacity:1"><use xlink:href="#a" x="63.929" y="7.748"/><use xlink:href="#b" x="72.208" y="7.748"/><use xlink:href="#c" x="77.936" y="7.748"/><use xlink:href="#d" x="87.481" y="7.748"/><use xlink:href="#e" x="93.847" y="7.748"/><use xlink:href="#f" x="100.213" y="7.748"/><use xlink:href="#g" x="104.666" y="7.748"/><use xlink:href="#f" x="110.235" y="7.748"/><use xlink:href="#h" x="114.689" y="7.748"/><use xlink:href="#b" x="117.867" y="7.748"/><use xlink:href="#i" x="123.595" y="7.748"/><use xlink:href="#g" x="129.961" y="7.748"/><use xlink:href="#j" x="135.53" y="7.748"/></g><g style="fill:#000;fill-opacity:1"><use xlink:href="#a" x="142.524" y="7.748"/><use xlink:href="#b" x="150.803" y="7.748"/><use xlink:href="#c" x="156.532" y="7.748"/><use xlink:href="#d" x="166.076" y="7.748"/><use xlink:href="#j" x="172.442" y="7.748"/><use xlink:href="#k" x="175.62" y="7.748"/><use xlink:href="#l" x="180.87" y="7.748"/><use xlink:href="#h" x="186.918" y="7.748"/><use xlink:href="#f" x="190.096" y="7.748"/></g><use xlink:href="#m" x="194.23" y="7.748" style="fill:#000;fill-opacity:1"/><g style="fill:#000;fill-opacity:1"><use xlink:href="#a" x="26.715" y="36.125"/><use xlink:href="#b" x="34.994" y="36.125"/><use xlink:href="#c" x="40.722" y="36.125"/><use xlink:href="#d" x="50.267" y="36.125"/><use xlink:href="#e" x="56.633" y="36.125"/><use xlink:href="#f" x="62.999" y="36.125"/><use xlink:href="#g" x="67.452" y="36.125"/><use xlink:href="#f" x="73.021" y="36.125"/><use xlink:href="#h" x="77.475" y="36.125"/><use xlink:href="#b" x="80.653" y="36.125"/><use xlink:href="#i" x="86.381" y="36.125"/><use xlink:href="#g" x="92.747" y="36.125"/><use xlink:href="#j" x="98.316" y="36.125"/></g><g style="fill:#000;fill-opacity:1"><use xlink:href="#n" x="105.31" y="36.125"/><use xlink:href="#o" x="113.141" y="36.125"/><use xlink:href="#b" x="117.863" y="36.125"/><use xlink:href="#p" x="123.592" y="36.125"/><use xlink:href="#j" x="129.958" y="36.125"/><use xlink:href="#k" x="133.136" y="36.125"/><use xlink:href="#c" x="138.386" y="36.125"/><use xlink:href="#q" x="147.93" y="36.125"/></g><path style="fill:none;stroke-width:.3985;stroke-linecap:butt;stroke-linejoin:miter;stroke:#000;stroke-opacity:1;stroke-miterlimit:10" d="m-11.982-7.989-18.601-12.398" transform="matrix(1 0 0 -1 132.103 5.273)"/><g style="fill:#000;fill-opacity:1"><use xlink:href="#n" x=".305" y="65.393"/><use xlink:href="#o" x="8.136" y="65.393"/><use xlink:href="#b" x="12.858" y="65.393"/><use xlink:href="#p" x="18.586" y="65.393"/><use xlink:href="#j" x="24.953" y="65.393"/><use xlink:href="#k" x="28.131" y="65.393"/><use xlink:href="#c" x="33.381" y="65.393"/></g><g style="fill:#000;fill-opacity:1"><use xlink:href="#r" x="46.741" y="65.393"/><use xlink:href="#k" x="57.62" y="65.393"/><use xlink:href="#g" x="62.87" y="65.393"/><use xlink:href="#q" x="68.439" y="65.393"/><use xlink:href="#e" x="72.963" y="65.393"/><use xlink:href="#o" x="79.329" y="65.393"/><use xlink:href="#k" x="84.051" y="65.393"/><use xlink:href="#q" x="89.301" y="65.393"/></g><path style="fill:none;stroke-width:.3985;stroke-linecap:butt;stroke-linejoin:miter;stroke:#000;stroke-opacity:1;stroke-miterlimit:10" d="m-54.455-36.305-20.078-13.383" transform="matrix(1 0 0 -1 132.103 5.273)"/><g style="fill:#000;fill-opacity:1"><use xlink:href="#n" x="32.601" y="64.476"/><use xlink:href="#o" x="40.432" y="64.476"/><use xlink:href="#b" x="45.154" y="64.476"/><use xlink:href="#p" x="50.882" y="64.476"/><use xlink:href="#j" x="57.249" y="64.476"/><use xlink:href="#k" x="60.427" y="64.476"/><use xlink:href="#c" x="65.677" y="64.476"/></g><g style="fill:#000;fill-opacity:1"><use xlink:href="#s" x="79.037" y="64.476"/><use xlink:href="#q" x="87.694" y="64.476"/><use xlink:href="#d" x="92.217" y="64.476"/></g><g style="fill:#000;fill-opacity:1"><use xlink:href="#k" x="98.902" y="64.476"/><use xlink:href="#t" x="104.153" y="64.476"/><use xlink:href="#f" x="109.244" y="64.476"/><use xlink:href="#q" x="113.697" y="64.476"/></g><path style="fill:none;stroke-width:.3985;stroke-linecap:butt;stroke-linejoin:miter;stroke:#000;stroke-opacity:1;stroke-miterlimit:10" d="m-46.498-36.305-6.214-12.426" transform="matrix(1 0 0 -1 132.103 5.273)"/><g style="fill:#000;fill-opacity:1"><use xlink:href="#n" x="58.691" y="65.393"/><use xlink:href="#o" x="66.522" y="65.393"/><use xlink:href="#b" x="71.244" y="65.393"/><use xlink:href="#p" x="76.972" y="65.393"/><use xlink:href="#j" x="83.339" y="65.393"/><use xlink:href="#k" x="86.517" y="65.393"/><use xlink:href="#c" x="91.767" y="65.393"/></g><g style="fill:#000;fill-opacity:1"><use xlink:href="#u" x="105.127" y="65.393"/><use xlink:href="#b" x="113.914" y="65.393"/><use xlink:href="#c" x="119.642" y="65.393"/><use xlink:href="#g" x="129.187" y="65.393"/><use xlink:href="#h" x="134.756" y="65.393"/><use xlink:href="#i" x="137.934" y="65.393"/><use xlink:href="#q" x="144.3" y="65.393"/></g><path style="fill:none;stroke-width:.3985;stroke-linecap:butt;stroke-linejoin:miter;stroke:#000;stroke-opacity:1;stroke-miterlimit:10" d="m-38.54-36.305 6.69-13.383" transform="matrix(1 0 0 -1 132.103 5.273)"/><g style="fill:#000;fill-opacity:1"><use xlink:href="#v" x="96.487" y="64.426"/><use xlink:href="#k" x="105.463" y="64.426"/><use xlink:href="#m" x="110.714" y="64.426"/></g><g style="fill:#000;fill-opacity:1"><use xlink:href="#n" x="120.577" y="64.426"/><use xlink:href="#o" x="128.407" y="64.426"/><use xlink:href="#b" x="133.13" y="64.426"/><use xlink:href="#p" x="138.858" y="64.426"/><use xlink:href="#j" x="145.224" y="64.426"/><use xlink:href="#k" x="148.402" y="64.426"/><use xlink:href="#c" x="153.653" y="64.426"/><use xlink:href="#q" x="163.197" y="64.426"/></g><path style="fill:none;stroke-width:.3985;stroke-linecap:butt;stroke-linejoin:miter;stroke:#000;stroke-opacity:1;stroke-miterlimit:10" d="m-30.583-36.305 18.625-12.414" transform="matrix(1 0 0 -1 132.103 5.273)"/><g style="fill:#000;fill-opacity:1"><use xlink:href="#a" x="60.511" y="36.125"/><use xlink:href="#b" x="68.79" y="36.125"/><use xlink:href="#c" x="74.518" y="36.125"/><use xlink:href="#d" x="84.063" y="36.125"/><use xlink:href="#e" x="90.429" y="36.125"/><use xlink:href="#f" x="96.795" y="36.125"/><use xlink:href="#g" x="101.248" y="36.125"/><use xlink:href="#f" x="106.817" y="36.125"/><use xlink:href="#h" x="111.271" y="36.125"/><use xlink:href="#b" x="114.449" y="36.125"/><use xlink:href="#i" x="120.177" y="36.125"/><use xlink:href="#g" x="126.543" y="36.125"/><use xlink:href="#j" x="132.112" y="36.125"/></g><g style="fill:#000;fill-opacity:1"><use xlink:href="#r" x="139.106" y="36.125"/><use xlink:href="#b" x="149.985" y="36.125"/></g><g style="fill:#000;fill-opacity:1"><use xlink:href="#w" x="156.033" y="36.125"/><use xlink:href="#k" x="162.399" y="36.125"/><use xlink:href="#j" x="167.649" y="36.125"/><use xlink:href="#q" x="170.827" y="36.125"/></g><path style="fill:none;stroke-width:.3985;stroke-linecap:butt;stroke-linejoin:miter;stroke:#000;stroke-opacity:1;stroke-miterlimit:10" d="m-3.994-7.989-6.203-12.398" transform="matrix(1 0 0 -1 132.103 5.273)"/><use xlink:href="#x" x="5.017" y="64.421" style="fill:#000;fill-opacity:1"/><g style="fill:#000;fill-opacity:1"><use xlink:href="#e" x="12.031" y="64.421"/><use xlink:href="#o" x="18.397" y="64.421"/><use xlink:href="#h" x="23.119" y="64.421"/><use xlink:href="#i" x="26.297" y="64.421"/><use xlink:href="#y" x="32.663" y="64.421"/></g><g style="fill:#000;fill-opacity:1"><use xlink:href="#r" x="42.208" y="64.421"/><use xlink:href="#g" x="53.087" y="64.421"/><use xlink:href="#t" x="58.656" y="64.421"/></g><g style="fill:#000;fill-opacity:1"><use xlink:href="#z" x="63.428" y="64.421"/><use xlink:href="#h" x="69.794" y="64.421"/><use xlink:href="#i" x="72.972" y="64.421"/><use xlink:href="#k" x="79.338" y="64.421"/><use xlink:href="#q" x="84.589" y="64.421"/></g><path style="fill:none;stroke-width:.3985;stroke-linecap:butt;stroke-linejoin:miter;stroke:#000;stroke-opacity:1;stroke-miterlimit:10" d="m-34.068-36.305-31.031-12.41" transform="matrix(1 0 0 -1 132.103 5.273)"/><g style="fill:#000;fill-opacity:1"><use xlink:href="#A" x="10.648" y="65.388"/><use xlink:href="#g" x="19.246" y="65.388"/><use xlink:href="#i" x="24.815" y="65.388"/><use xlink:href="#w" x="31.181" y="65.388"/><use xlink:href="#b" x="37.547" y="65.388"/><use xlink:href="#c" x="43.276" y="65.388"/><use xlink:href="#B" x="52.82" y="65.388"/><use xlink:href="#s" x="56.636" y="65.388"/></g><g style="fill:#000;fill-opacity:1"><use xlink:href="#t" x="64.974" y="65.388"/><use xlink:href="#t" x="70.065" y="65.388"/><use xlink:href="#k" x="75.156" y="65.388"/><use xlink:href="#q" x="80.406" y="65.388"/><use xlink:href="#q" x="84.929" y="65.388"/></g><g style="fill:#000;fill-opacity:1"><use xlink:href="#r" x="93.268" y="65.388"/><use xlink:href="#g" x="104.147" y="65.388"/><use xlink:href="#t" x="109.716" y="65.388"/></g><g style="fill:#000;fill-opacity:1"><use xlink:href="#z" x="114.489" y="65.388"/><use xlink:href="#h" x="120.855" y="65.388"/><use xlink:href="#i" x="124.033" y="65.388"/><use xlink:href="#k" x="130.399" y="65.388"/><use xlink:href="#q" x="135.649" y="65.388"/></g><path style="fill:none;stroke-width:.3985;stroke-linecap:butt;stroke-linejoin:miter;stroke:#000;stroke-opacity:1;stroke-miterlimit:10" d="M-26.11-36.305-46.12-49.641" transform="matrix(1 0 0 -1 132.103 5.273)"/><g style="fill:#000;fill-opacity:1"><use xlink:href="#a" x="83.862" y="65.383"/><use xlink:href="#h" x="92.141" y="65.383"/><use xlink:href="#o" x="95.319" y="65.383"/><use xlink:href="#t" x="100.041" y="65.383"/><use xlink:href="#e" x="105.132" y="65.383"/><use xlink:href="#h" x="111.498" y="65.383"/><use xlink:href="#f" x="114.676" y="65.383"/><use xlink:href="#q" x="119.13" y="65.383"/></g><path style="fill:none;stroke-width:.3985;stroke-linecap:butt;stroke-linejoin:miter;stroke:#000;stroke-opacity:1;stroke-miterlimit:10" d="m-18.154-36.305-6.672-13.344" transform="matrix(1 0 0 -1 132.103 5.273)"/><g style="fill:#000;fill-opacity:1"><use xlink:href="#C" x="66.41" y="64.382"/><use xlink:href="#h" x="74.559" y="64.382"/><use xlink:href="#i" x="77.738" y="64.382"/><use xlink:href="#g" x="84.104" y="64.382"/><use xlink:href="#o" x="89.673" y="64.382"/><use xlink:href="#m" x="94.395" y="64.382"/></g><g style="fill:#000;fill-opacity:1"><use xlink:href="#u" x="104.258" y="64.382"/><use xlink:href="#k" x="113.045" y="64.382"/><use xlink:href="#t" x="118.295" y="64.382"/><use xlink:href="#h" x="123.386" y="64.382"/><use xlink:href="#q" x="126.564" y="64.382"/><use xlink:href="#h" x="131.087" y="64.382"/><use xlink:href="#b" x="134.266" y="64.382"/><use xlink:href="#i" x="139.994" y="64.382"/></g><g style="fill:#000;fill-opacity:1"><use xlink:href="#u" x="150.176" y="64.382"/><use xlink:href="#h" x="158.963" y="64.382"/><use xlink:href="#g" x="162.141" y="64.382"/><use xlink:href="#y" x="167.71" y="64.382"/><use xlink:href="#o" x="173.439" y="64.382"/><use xlink:href="#g" x="178.161" y="64.382"/><use xlink:href="#c" x="183.73" y="64.382"/><use xlink:href="#q" x="193.274" y="64.382"/></g><path style="fill:none;stroke-width:.3985;stroke-linecap:butt;stroke-linejoin:miter;stroke:#000;stroke-opacity:1;stroke-miterlimit:10" d="m-10.193-36.305 6.223-12.45" transform="matrix(1 0 0 -1 132.103 5.273)"/><g style="fill:#000;fill-opacity:1"><use xlink:href="#D" x="118.881" y="65.383"/><use xlink:href="#o" x="127.489" y="65.383"/><use xlink:href="#g" x="132.211" y="65.383"/><use xlink:href="#t" x="137.78" y="65.383"/><use xlink:href="#j" x="142.871" y="65.383"/><use xlink:href="#k" x="146.049" y="65.383"/></g><g style="fill:#000;fill-opacity:1"><use xlink:href="#r" x="155.115" y="65.383"/><use xlink:href="#g" x="165.994" y="65.383"/><use xlink:href="#t" x="171.563" y="65.383"/></g><g style="fill:#000;fill-opacity:1"><use xlink:href="#z" x="176.336" y="65.383"/><use xlink:href="#h" x="182.702" y="65.383"/><use xlink:href="#i" x="185.88" y="65.383"/><use xlink:href="#k" x="192.246" y="65.383"/><use xlink:href="#q" x="197.496" y="65.383"/></g><path style="fill:none;stroke-width:.3985;stroke-linecap:butt;stroke-linejoin:miter;stroke:#000;stroke-opacity:1;stroke-miterlimit:10" d="M-2.236-36.305 17.78-49.65" transform="matrix(1 0 0 -1 132.103 5.273)"/><g style="fill:#000;fill-opacity:1"><use xlink:href="#n" x="132.567" y="64.382"/><use xlink:href="#o" x="140.398" y="64.382"/><use xlink:href="#b" x="145.12" y="64.382"/><use xlink:href="#y" x="150.848" y="64.382"/><use xlink:href="#o" x="156.577" y="64.382"/><use xlink:href="#g" x="161.299" y="64.382"/><use xlink:href="#c" x="166.868" y="64.382"/><use xlink:href="#c" x="176.413" y="64.382"/><use xlink:href="#h" x="185.957" y="64.382"/><use xlink:href="#i" x="189.135" y="64.382"/><use xlink:href="#y" x="195.501" y="64.382"/></g><g style="fill:#000;fill-opacity:1"><use xlink:href="#h" x="205.045" y="64.382"/><use xlink:href="#i" x="208.223" y="64.382"/></g><g style="fill:#000;fill-opacity:1"><use xlink:href="#E" x="218.405" y="64.382"/><use xlink:href="#b" x="225.299" y="64.382"/><use xlink:href="#y" x="231.028" y="64.382"/><use xlink:href="#h" x="236.756" y="64.382"/><use xlink:href="#t" x="239.934" y="64.382"/></g><path style="fill:none;stroke-width:.3985;stroke-linecap:butt;stroke-linejoin:miter;stroke:#000;stroke-opacity:1;stroke-miterlimit:10" d="m5.721-36.305 31.13-12.45" transform="matrix(1 0 0 -1 132.103 5.273)"/><g style="fill:#000;fill-opacity:1"><use xlink:href="#r" x="89.201" y="36.09"/><use xlink:href="#k" x="100.08" y="36.09"/><use xlink:href="#g" x="105.331" y="36.09"/><use xlink:href="#q" x="110.9" y="36.09"/><use xlink:href="#e" x="115.423" y="36.09"/><use xlink:href="#o" x="121.789" y="36.09"/><use xlink:href="#h" x="126.511" y="36.09"/><use xlink:href="#i" x="129.689" y="36.09"/><use xlink:href="#y" x="136.055" y="36.09"/></g><g style="fill:#000;fill-opacity:1"><use xlink:href="#a" x="145.6" y="36.09"/><use xlink:href="#b" x="153.878" y="36.09"/><use xlink:href="#c" x="159.607" y="36.09"/><use xlink:href="#d" x="169.151" y="36.09"/><use xlink:href="#j" x="175.517" y="36.09"/><use xlink:href="#k" x="178.695" y="36.09"/><use xlink:href="#l" x="183.946" y="36.09"/><use xlink:href="#h" x="189.993" y="36.09"/><use xlink:href="#f" x="193.171" y="36.09"/></g><use xlink:href="#m" x="197.306" y="36.09" style="fill:#000;fill-opacity:1"/><path style="fill:none;stroke-width:.3985;stroke-linecap:butt;stroke-linejoin:miter;stroke:#000;stroke-opacity:1;stroke-miterlimit:10" d="m3.995-7.989 6.183-12.363" transform="matrix(1 0 0 -1 132.103 5.273)"/><g style="fill:#000;fill-opacity:1"><use xlink:href="#a" x="49.431" y="64.441"/><use xlink:href="#b" x="57.71" y="64.441"/><use xlink:href="#c" x="63.438" y="64.441"/><use xlink:href="#d" x="72.983" y="64.441"/><use xlink:href="#j" x="79.349" y="64.441"/><use xlink:href="#k" x="82.527" y="64.441"/><use xlink:href="#l" x="87.777" y="64.441"/><use xlink:href="#h" x="93.825" y="64.441"/><use xlink:href="#f" x="97.003" y="64.441"/></g><use xlink:href="#m" x="101.137" y="64.441" style="fill:#000;fill-opacity:1"/><g style="fill:#000;fill-opacity:1"><use xlink:href="#r" x="111" y="64.441"/><use xlink:href="#k" x="121.879" y="64.441"/><use xlink:href="#g" x="127.13" y="64.441"/><use xlink:href="#q" x="132.699" y="64.441"/><use xlink:href="#e" x="137.222" y="64.441"/><use xlink:href="#o" x="143.588" y="64.441"/><use xlink:href="#k" x="148.31" y="64.441"/><use xlink:href="#q" x="153.561" y="64.441"/></g><path style="fill:none;stroke-width:.3985;stroke-linecap:butt;stroke-linejoin:miter;stroke:#000;stroke-opacity:1;stroke-miterlimit:10" d="m2.182-36.34-18.547-12.364" transform="matrix(1 0 0 -1 132.103 5.273)"/><g style="fill:#000;fill-opacity:1"><use xlink:href="#a" x="74.285" y="64.451"/><use xlink:href="#j" x="82.564" y="64.451"/><use xlink:href="#g" x="85.742" y="64.451"/><use xlink:href="#q" x="91.311" y="64.451"/><use xlink:href="#q" x="95.834" y="64.451"/><use xlink:href="#h" x="100.357" y="64.451"/><use xlink:href="#F" x="103.535" y="64.451"/><use xlink:href="#m" x="107.032" y="64.451"/><use xlink:href="#h" x="113.08" y="64.451"/><use xlink:href="#i" x="116.258" y="64.451"/><use xlink:href="#y" x="122.624" y="64.451"/></g><g style="fill:#000;fill-opacity:1"><use xlink:href="#a" x="132.168" y="64.451"/><use xlink:href="#b" x="140.447" y="64.451"/><use xlink:href="#c" x="146.175" y="64.451"/><use xlink:href="#d" x="155.72" y="64.451"/><use xlink:href="#j" x="162.086" y="64.451"/><use xlink:href="#k" x="165.264" y="64.451"/><use xlink:href="#l" x="170.514" y="64.451"/><use xlink:href="#h" x="176.561" y="64.451"/><use xlink:href="#f" x="179.74" y="64.451"/></g><use xlink:href="#m" x="183.874" y="64.451" style="fill:#000;fill-opacity:1"/><path style="fill:none;stroke-width:.3985;stroke-linecap:butt;stroke-linejoin:miter;stroke:#000;stroke-opacity:1;stroke-miterlimit:10" d="M10.178-36.34 4.002-48.684" transform="matrix(1 0 0 -1 132.103 5.273)"/><g style="fill:#000;fill-opacity:1"><use xlink:href="#a" x="101.924" y="64.436"/><use xlink:href="#b" x="110.203" y="64.436"/><use xlink:href="#c" x="115.931" y="64.436"/><use xlink:href="#d" x="125.476" y="64.436"/><use xlink:href="#g" x="131.842" y="64.436"/><use xlink:href="#o" x="137.411" y="64.436"/><use xlink:href="#h" x="142.133" y="64.436"/><use xlink:href="#i" x="145.311" y="64.436"/><use xlink:href="#y" x="151.677" y="64.436"/></g><g style="fill:#000;fill-opacity:1"><use xlink:href="#a" x="161.222" y="64.436"/><use xlink:href="#b" x="169.501" y="64.436"/><use xlink:href="#c" x="175.229" y="64.436"/><use xlink:href="#d" x="184.773" y="64.436"/><use xlink:href="#j" x="191.139" y="64.436"/><use xlink:href="#k" x="194.318" y="64.436"/><use xlink:href="#l" x="199.568" y="64.436"/><use xlink:href="#h" x="205.615" y="64.436"/><use xlink:href="#f" x="208.793" y="64.436"/></g><use xlink:href="#m" x="212.928" y="64.436" style="fill:#000;fill-opacity:1"/><path style="fill:none;stroke-width:.3985;stroke-linecap:butt;stroke-linejoin:miter;stroke:#000;stroke-opacity:1;stroke-miterlimit:10" d="m18.17-36.34 6.18-12.36" transform="matrix(1 0 0 -1 132.103 5.273)"/><g style="fill:#000;fill-opacity:1"><use xlink:href="#u" x="131.417" y="64.436"/><use xlink:href="#k" x="140.204" y="64.436"/><use xlink:href="#q" x="145.454" y="64.436"/><use xlink:href="#t" x="149.977" y="64.436"/><use xlink:href="#o" x="155.068" y="64.436"/><use xlink:href="#h" x="159.791" y="64.436"/><use xlink:href="#p" x="162.969" y="64.436"/><use xlink:href="#h" x="169.335" y="64.436"/><use xlink:href="#i" x="172.513" y="64.436"/><use xlink:href="#y" x="178.879" y="64.436"/></g><g style="fill:#000;fill-opacity:1"><use xlink:href="#a" x="188.423" y="64.436"/><use xlink:href="#b" x="196.702" y="64.436"/><use xlink:href="#c" x="202.431" y="64.436"/><use xlink:href="#d" x="211.975" y="64.436"/><use xlink:href="#j" x="218.341" y="64.436"/><use xlink:href="#k" x="221.519" y="64.436"/><use xlink:href="#l" x="226.769" y="64.436"/><use xlink:href="#h" x="232.817" y="64.436"/><use xlink:href="#f" x="235.995" y="64.436"/></g><use xlink:href="#m" x="240.129" y="64.436" style="fill:#000;fill-opacity:1"/><path style="fill:none;stroke-width:.3985;stroke-linecap:butt;stroke-linejoin:miter;stroke:#000;stroke-opacity:1;stroke-miterlimit:10" d="M26.159-36.34 44.706-48.7" transform="matrix(1 0 0 -1 132.103 5.273)"/><g style="fill:#000;fill-opacity:1"><use xlink:href="#G" x="130.847" y="36.09"/><use xlink:href="#b" x="137.213" y="36.09"/><use xlink:href="#j" x="142.942" y="36.09"/><use xlink:href="#H" x="146.12" y="36.09"/><use xlink:href="#h" x="152.167" y="36.09"/><use xlink:href="#i" x="155.345" y="36.09"/><use xlink:href="#y" x="161.711" y="36.09"/></g><g style="fill:#000;fill-opacity:1"><use xlink:href="#n" x="171.255" y="36.09"/><use xlink:href="#o" x="179.086" y="36.09"/><use xlink:href="#b" x="183.808" y="36.09"/><use xlink:href="#p" x="189.537" y="36.09"/><use xlink:href="#j" x="195.903" y="36.09"/><use xlink:href="#k" x="199.081" y="36.09"/><use xlink:href="#c" x="204.331" y="36.09"/><use xlink:href="#q" x="213.876" y="36.09"/></g><path style="fill:none;stroke-width:.3985;stroke-linecap:butt;stroke-linejoin:miter;stroke:#000;stroke-opacity:1;stroke-miterlimit:10" d="m11.979-7.989 18.555-12.363" transform="matrix(1 0 0 -1 132.103 5.273)"/><g style="fill:#000;fill-opacity:1"><use xlink:href="#I" x="59.463" y="64.441"/><use xlink:href="#l" x="66.995" y="64.441"/><use xlink:href="#g" x="73.042" y="64.441"/><use xlink:href="#t" x="78.611" y="64.441"/><use xlink:href="#f" x="83.702" y="64.441"/></g><g style="fill:#000;fill-opacity:1"><use xlink:href="#s" x="91.971" y="64.441"/><use xlink:href="#j" x="100.629" y="64.441"/><use xlink:href="#y" x="103.807" y="64.441"/><use xlink:href="#b" x="109.535" y="64.441"/><use xlink:href="#o" x="115.264" y="64.441"/><use xlink:href="#h" x="119.986" y="64.441"/><use xlink:href="#f" x="123.164" y="64.441"/><use xlink:href="#z" x="127.617" y="64.441"/><use xlink:href="#c" x="133.984" y="64.441"/><use xlink:href="#q" x="143.528" y="64.441"/></g><path style="fill:none;stroke-width:.3985;stroke-linecap:butt;stroke-linejoin:miter;stroke:#000;stroke-opacity:1;stroke-miterlimit:10" d="M22.542-36.34-8.353-48.696" transform="matrix(1 0 0 -1 132.103 5.273)"/><g style="fill:#000;fill-opacity:1"><use xlink:href="#A" x="94.236" y="65.368"/><use xlink:href="#g" x="102.834" y="65.368"/><use xlink:href="#i" x="108.403" y="65.368"/><use xlink:href="#w" x="114.769" y="65.368"/><use xlink:href="#b" x="121.135" y="65.368"/><use xlink:href="#c" x="126.864" y="65.368"/><use xlink:href="#h" x="136.408" y="65.368"/><use xlink:href="#J" x="139.586" y="65.368"/><use xlink:href="#g" x="144.677" y="65.368"/><use xlink:href="#f" x="150.246" y="65.368"/><use xlink:href="#h" x="154.699" y="65.368"/><use xlink:href="#b" x="157.877" y="65.368"/><use xlink:href="#i" x="163.606" y="65.368"/></g><path style="fill:none;stroke-width:.3985;stroke-linecap:butt;stroke-linejoin:miter;stroke:#000;stroke-opacity:1;stroke-miterlimit:10" d="M30.53-36.34 10.545-49.66" transform="matrix(1 0 0 -1 132.103 5.273)"/><g style="fill:#000;fill-opacity:1"><use xlink:href="#K" x="88.271" y="64.441"/><use xlink:href="#h" x="95.484" y="64.441"/><use xlink:href="#l" x="98.662" y="64.441"/><use xlink:href="#k" x="104.709" y="64.441"/><use xlink:href="#w" x="109.96" y="64.441"/><use xlink:href="#B" x="116.326" y="64.441"/><use xlink:href="#n" x="120.141" y="64.441"/></g><g style="fill:#000;fill-opacity:1"><use xlink:href="#g" x="127.653" y="64.441"/><use xlink:href="#o" x="133.222" y="64.441"/><use xlink:href="#g" x="137.945" y="64.441"/><use xlink:href="#c" x="143.514" y="64.441"/><use xlink:href="#k" x="153.058" y="64.441"/><use xlink:href="#f" x="158.308" y="64.441"/><use xlink:href="#k" x="162.762" y="64.441"/><use xlink:href="#o" x="168.012" y="64.441"/></g><g style="fill:#000;fill-opacity:1"><use xlink:href="#s" x="176.55" y="64.441"/><use xlink:href="#j" x="185.207" y="64.441"/><use xlink:href="#y" x="188.386" y="64.441"/><use xlink:href="#b" x="194.114" y="64.441"/><use xlink:href="#o" x="199.843" y="64.441"/><use xlink:href="#h" x="204.565" y="64.441"/><use xlink:href="#f" x="207.743" y="64.441"/><use xlink:href="#z" x="212.196" y="64.441"/><use xlink:href="#c" x="218.562" y="64.441"/><use xlink:href="#q" x="228.107" y="64.441"/></g><path style="fill:none;stroke-width:.3985;stroke-linecap:butt;stroke-linejoin:miter;stroke:#000;stroke-opacity:1;stroke-miterlimit:10" d="m38.526-36.34-6.18-12.356" transform="matrix(1 0 0 -1 132.103 5.273)"/><use xlink:href="#n" x="134.794" y="64.471" style="fill:#000;fill-opacity:1"/><g style="fill:#000;fill-opacity:1"><use xlink:href="#g" x="142.306" y="64.471"/><use xlink:href="#o" x="147.875" y="64.471"/><use xlink:href="#g" x="152.597" y="64.471"/><use xlink:href="#j" x="158.166" y="64.471"/><use xlink:href="#j" x="161.344" y="64.471"/><use xlink:href="#k" x="164.523" y="64.471"/><use xlink:href="#j" x="169.773" y="64.471"/></g><g style="fill:#000;fill-opacity:1"><use xlink:href="#a" x="176.767" y="64.471"/><use xlink:href="#b" x="185.046" y="64.471"/><use xlink:href="#c" x="190.774" y="64.471"/><use xlink:href="#d" x="200.318" y="64.471"/><use xlink:href="#e" x="206.684" y="64.471"/><use xlink:href="#f" x="213.051" y="64.471"/><use xlink:href="#g" x="217.504" y="64.471"/><use xlink:href="#f" x="223.073" y="64.471"/><use xlink:href="#h" x="227.526" y="64.471"/><use xlink:href="#b" x="230.704" y="64.471"/><use xlink:href="#i" x="236.433" y="64.471"/></g><path style="fill:none;stroke-width:.3985;stroke-linecap:butt;stroke-linejoin:miter;stroke:#000;stroke-opacity:1;stroke-miterlimit:10" d="m46.518-36.34 6.195-12.395" transform="matrix(1 0 0 -1 132.103 5.273)"/><use xlink:href="#n" x="175.2" y="65.383" style="fill:#000;fill-opacity:1"/><g style="fill:#000;fill-opacity:1"><use xlink:href="#g" x="182.712" y="65.383"/><use xlink:href="#o" x="188.281" y="65.383"/><use xlink:href="#f" x="193.003" y="65.383"/><use xlink:href="#h" x="197.457" y="65.383"/><use xlink:href="#g" x="200.635" y="65.383"/><use xlink:href="#j" x="206.204" y="65.383"/></g><g style="fill:#000;fill-opacity:1"><use xlink:href="#G" x="213.198" y="65.383"/><use xlink:href="#b" x="219.564" y="65.383"/><use xlink:href="#j" x="225.292" y="65.383"/><use xlink:href="#e" x="228.47" y="65.383"/><use xlink:href="#f" x="234.836" y="65.383"/><use xlink:href="#h" x="239.29" y="65.383"/><use xlink:href="#b" x="242.468" y="65.383"/><use xlink:href="#i" x="248.196" y="65.383"/><use xlink:href="#q" x="254.562" y="65.383"/></g><path style="fill:none;stroke-width:.3985;stroke-linecap:butt;stroke-linejoin:miter;stroke:#000;stroke-opacity:1;stroke-miterlimit:10" d="M54.51-36.34 74.471-49.65" transform="matrix(1 0 0 -1 132.103 5.273)"/><g style="fill:#000;fill-opacity:1"><use xlink:href="#s" x="207.696" y="64.476"/><use xlink:href="#d" x="216.354" y="64.476"/><use xlink:href="#d" x="222.72" y="64.476"/><use xlink:href="#o" x="229.086" y="64.476"/><use xlink:href="#b" x="233.808" y="64.476"/></g><g style="fill:#000;fill-opacity:1"><use xlink:href="#l" x="239.218" y="64.476"/><use xlink:href="#h" x="245.265" y="64.476"/><use xlink:href="#c" x="248.443" y="64.476"/><use xlink:href="#g" x="257.987" y="64.476"/><use xlink:href="#f" x="263.557" y="64.476"/><use xlink:href="#h" x="268.01" y="64.476"/><use xlink:href="#b" x="271.188" y="64.476"/><use xlink:href="#i" x="276.916" y="64.476"/></g><path style="fill:none;stroke-width:.3985;stroke-linecap:butt;stroke-linejoin:miter;stroke:#000;stroke-opacity:1;stroke-miterlimit:10" d="m62.502-36.34 30.98-12.39" transform="matrix(1 0 0 -1 132.103 5.273)"/></svg>