<svg xmlns="http://www.w3.org/2000/svg" width="135.372" height="120.939" viewBox="0 0 101.529 90.704" version="1.2"><defs><clipPath id="a"><path d="M0 23h92v67.555H0Zm0 0"/></clipPath><clipPath id="b"><path d="M6 20h75v70.555H6Zm0 0"/></clipPath></defs><path style="fill:none;stroke-width:.19925;stroke-linecap:butt;stroke-linejoin:miter;stroke:gray;stroke-opacity:1;stroke-miterlimit:10" d="M.002 0H85.04M0 28.348h85.04M0 56.684h85.04M0 0v56.692M28.347 0v56.692M56.693 0v56.692M85.03 0v56.692" transform="matrix(1 0 0 -1 15.155 57.645)"/><g clip-path="url(#a)"><path style="fill:none;stroke-width:.3985;stroke-linecap:butt;stroke-linejoin:miter;stroke:#000;stroke-opacity:1;stroke-miterlimit:10" d="M70.869 0c0 15.657-19.04 28.348-42.523 28.348-23.481 0-42.52-12.691-42.52-28.348 0-15.656 19.039-28.347 42.52-28.347C51.83-28.347 70.869-15.656 70.869 0Zm0 0" transform="matrix(1 0 0 -1 15.155 57.645)"/></g><g clip-path="url(#b)"><path style="fill:none;stroke-width:.3985;stroke-linecap:butt;stroke-linejoin:miter;stroke:red;stroke-opacity:1;stroke-miterlimit:10" d="M56.693 28.348c-7.828 7.828-26.863 1.48-42.52-14.176-15.656-15.656-22-34.691-14.171-42.52 7.824-7.827 26.863-1.48 42.52 14.173 15.656 15.656 22 34.695 14.171 42.523Zm0 0" transform="matrix(1 0 0 -1 15.155 57.645)"/></g></svg>