<svg xmlns="http://www.w3.org/2000/svg" xmlns:xlink="http://www.w3.org/1999/xlink" width="267.291" height="198.363" viewBox="0 0 200.468 148.772" version="1.2"><defs><symbol overflow="visible" id="b"><path style="stroke:none" d="M5.281-3.188c0-.953-.015-3.343-2.422-3.343C.453-6.531.453-4.156.453-3.188c0 1 0 3.297 2.406 3.297 2.391 0 2.422-2.296 2.422-3.296ZM4-3.296c0 .563 0 1.469-.078 1.985-.14.921-.766 1.062-1.063 1.062-.359 0-.921-.219-1.046-.953-.094-.516-.094-1.547-.094-2.094 0-.719 0-1.375.078-1.89.125-.891.828-.985 1.062-.985.375 0 .782.188.97.625C4-5.172 4-4.109 4-3.297Zm0 0"/></symbol><symbol overflow="visible" id="d"><path style="stroke:none" d="M5.156-2.219h-.468c-.032.203-.125.844-.266.906-.11.063-.86.063-1.016.063H1.937c.47-.39 1-.813 1.438-1.14 1.14-.844 1.781-1.313 1.781-2.25 0-1.157-1.047-1.891-2.437-1.891-1.219 0-2.156.625-2.156 1.515 0 .594.484.735.718.735C1.61-4.281 2-4.5 2-5c0-.516-.422-.672-.563-.719.282-.234.672-.343 1.032-.343.844 0 1.312.671 1.312 1.421 0 .688-.375 1.375-1.078 2.079l-2 2.046c-.14.11-.14.141-.14.344V0h4.28Zm0 0"/></symbol><symbol overflow="visible" id="f"><path style="stroke:none" d="M5.406 0v-.469h-.968v-1.094h.968v-.468h-.968V-6.22c0-.265-.016-.328-.297-.328-.22 0-.22.016-.344.172L.312-2.031v.469h2.876V-.47h-1.11V0c.375-.031 1.281-.031 1.703-.031.406 0 1.266 0 1.625.031Zm-2.11-2.031H.845L3.297-5.11Zm0 0"/></symbol><symbol overflow="visible" id="h"><path style="stroke:none" d="M5.25-2.047c0-1.39-1.016-2.125-2.219-2.125-.219 0-.781 0-1.203.766v-.188c0-1.14.219-1.562.281-1.719.25-.468.782-.828 1.391-.828.172 0 .516.032.75.266a.595.595 0 0 0-.547.61c0 .343.235.624.625.624s.625-.265.625-.64c0-.625-.422-1.25-1.469-1.25-1.359 0-3 .86-3 3.375 0 .781.079 1.578.5 2.265.47.766 1.22 1 1.922 1C4.281.11 5.25-.703 5.25-2.047Zm-1.36-.015c0 1 0 1.75-1.015 1.75-.516 0-.781-.391-.86-.563-.156-.313-.156-1.031-.156-1.219 0-1.25.532-1.719 1.079-1.719.953 0 .953.75.953 1.75Zm0 0"/></symbol><symbol overflow="visible" id="j"><path style="stroke:none" d="M5.25-1.86c0-1.077-.844-1.546-1.328-1.827.687-.36 1-.797 1-1.376 0-1.015-.906-1.468-2.047-1.468-1.375 0-2.078.797-2.078 1.75 0 .437.187 1.062.953 1.5C.922-2.906.484-2.344.484-1.61.484-.406 1.563.109 2.844.109 4.438.11 5.25-.766 5.25-1.859ZM4.172-5.046c0 .484-.25.813-.688 1.11l-1.5-.844c-.156-.078-.437-.25-.437-.594 0-.703.89-.766 1.297-.766.828 0 1.328.407 1.328 1.094Zm.219 3.734c0 .829-.938 1-1.516 1-.969 0-1.547-.515-1.547-1.296 0-.766.531-1.204.89-1.407l1.36.766c.438.25.813.453.813.938Zm0 0"/></symbol><symbol overflow="visible" id="l"><path style="stroke:none" d="M4.922 0v-.469h-1.39v-5.734c0-.234 0-.328-.266-.328-.11 0-.125 0-.22.078-.765.562-1.796.562-2 .562H.845v.47h.203c.156 0 .703-.016 1.297-.204v5.156H.954V0c.437-.031 1.5-.031 1.984-.031s1.546 0 1.984.031Zm0 0"/></symbol><symbol overflow="visible" id="m"><path style="stroke:none" d="M-3.953-5.781h-.469c.016.25.031.531.031.781l-.03.906h.468c0-.187.031-.468.11-.468 0 0 .015 0 .109.046l2.5 1.157-2.72 1.265v-.531h-.468l.031 1.234-.03 1.125h.468V-.89l3.75-1.75c.25-.125.25-.25.25-.375 0-.171-.031-.28-.25-.375L-3.75-5.047c-.14-.062-.203-.094-.203-.734Zm0 0"/></symbol><symbol overflow="visible" id="n"><path style="stroke:none" d="M-1.172-4.922c-.172 0-.172.188-.172.234 0 .172.047.188.203.25.485.204.797.782.797 1.422 0 1.407-1.328 1.422-1.828 1.422v-3.015c0-.22 0-.313-.265-.313-.313 0-1.047.063-1.547.563-.36.359-.532.89-.532 1.578 0 1.594 1.032 2.469 2.266 2.469 1.344 0 2.313-1 2.313-2.61 0-1.578-1.063-2-1.235-2Zm-1.328.938v2.39c-.39-.015-.813-.031-1.14-.234a1.167 1.167 0 0 1-.516-.953c0-1.172 1.312-1.188 1.656-1.203Zm0 0"/></symbol><symbol overflow="visible" id="o"><path style="stroke:none" d="M-3.672-4.406c-.531 0-.812.531-.812 1.062 0 .688.5 1.094 1.125 1.313h-1.125l.078 1.656h.468c0-.61 0-.688.391-.688h3.078v.688H0l-.031-1.25C-.031-2-.031-2.641 0-3h-.469v.86h-1.75c-.687 0-1.906-.235-1.906-1.235 0 0 .172.188.453.188.406 0 .61-.329.61-.61 0-.297-.204-.61-.61-.61Zm0 0"/></symbol><symbol overflow="visible" id="p"><path style="stroke:none" d="M-3.953-5.781h-.469c.016.234.031.531.031.781l-.03.906h.468s0-.468.11-.468l.124.062 2.453 1.14-2.687 1.266v-.531h-.469l.031 1.234-.03 1.125h.468V-.89L0-2.766l.484.235c.47.219 1.157.531 1.157 1.25 0 .14-.016.156-.047.234-.032-.094-.172-.312-.532-.312-.328 0-.562.234-.562.578 0 .265.188.562.578.562.5 0 .922-.469.922-1.062 0-.766-.625-1.344-1.188-1.625l-4.562-2.14c-.14-.063-.203-.095-.203-.735Zm0 0"/></symbol><symbol overflow="visible" id="q"><path style="stroke:none" d="M-3.953-5.563c-.235 0-.578.172-.578.625 0 .157.031.625.375 1.063-.125.172-.328.594-.328 1.328 0 1.438.78 1.985 1.468 1.985.407 0 .829-.188 1.047-.516.36.281.688.344.89.344.157 0 .641-.047.954-.438.031.125.25.86.875.86C1.25-.313 2-.875 2-2.86 2-4.625 1.422-5.406.719-5.406c-.297 0-.922.078-1.266.75-.281.562-.281 1.156-.281 2.11 0 .265 0 .718-.016.765a.625.625 0 0 1-.625.562.633.633 0 0 1-.328-.11c.234-.452.266-.968.266-1.218 0-1.437-.782-1.984-1.485-1.984-.468 0-.796.25-.953.406-.156-.297-.172-.516-.187-.625.047.031.14.047.203.047.25 0 .422-.172.422-.438a.41.41 0 0 0-.422-.421Zm.937 2.141c.454 0 1.125 0 1.125.875s-.671.875-1.125.875c-.437 0-1.109 0-1.109-.875s.672-.875 1.11-.875ZM.75-4.547c.36 0 .89.39.89 1.688 0 1.187-.452 1.687-.906 1.687-.609 0-.609-.625-.609-.766v-1.171c0-.313 0-1.438.625-1.438Zm0 0"/></symbol><symbol overflow="visible" id="r"><path style="stroke:none" d="M-2.172-5.406c-1.344 0-2.344.922-2.344 2.547 0 1.64 1.016 2.546 2.344 2.546 1.235 0 2.235-.89 2.235-2.546 0-1.672-1.016-2.547-2.235-2.547Zm-.11 1.281c.86 0 1.938 0 1.938 1.266 0 1.265-1.078 1.265-1.937 1.265-.453 0-.953 0-1.297-.172-.375-.187-.578-.609-.578-1.093 0-.422.156-.844.5-1.063.344-.203.89-.203 1.375-.203Zm0 0"/></symbol><symbol overflow="visible" id="s"><path style="stroke:none" d="M0-5.984h-.469c0 .609 0 .687-.39.687h-6.063l.078 1.766h.469c0-.625 0-.703.39-.703h1.954c-.39.5-.453 1.03-.453 1.359 0 1.453.875 2.5 2.28 2.5 1.313 0 2.267-.922 2.267-2.39 0-.61-.235-1.094-.485-1.407h.484Zm-1.031 1.812c.187.14.734.547.734 1.297 0 1.219-1.203 1.219-1.906 1.219-.485 0-1.016 0-1.406-.25-.422-.297-.516-.766-.516-1.078 0-.563.313-.97.61-1.188Zm0 0"/></symbol><symbol overflow="visible" id="t"><path style="stroke:none" d="M0-5.86h-.469v.173c0 .437-.047.468-.203.593l-2.094 1.688-1.015-1.297c-.11-.14-.172-.234-.172-.906h-.469c.031.28.031.53.031.78l-.03 1.157h.468c0-.234.031-.265.11-.344L-2.36-2.14h-4.563l.078 1.766h.469c0-.61 0-.688.39-.688h5.516v.688H0l-.031-1.188L0-2.766h-.469v.688h-1.265c-.235-.297-.297-.375-.422-.578l1.25-1c.125-.094.312-.25.344-.25.093 0 .093.172.093.312H0a52.51 52.51 0 0 1-.031-1.219c0-.359.015-.703.031-1.046Zm0 0"/></symbol><symbol overflow="visible" id="u"><path style="stroke:none" d="M-2.219-5.984c-1.328 0-2.265.937-2.265 2.39 0 .719.28 1.219.484 1.453h-2.922l.078 1.766h.469c0-.61 0-.688.39-.688H0v-.468c-.188-.157-.375-.328-.563-.485.079-.078.625-.562.625-1.453 0-1.484-.906-2.515-2.28-2.515Zm0 1.28c.469 0 1.016 0 1.406.25.407.298.516.75.516 1.079 0 .688-.547 1.078-.687 1.188h-2.5c-.36-.282-.641-.75-.641-1.297 0-1.22 1.203-1.22 1.906-1.22Zm0 0"/></symbol><symbol overflow="visible" id="v"><path style="stroke:none" d="M-.234-5.516c-.235 0-.235.125-.235.266-.015.61-.14.61-.375.61h-2.14c-.891 0-1.532.702-1.532 2.187 0 .562.047 1.781.922 1.781a.601.601 0 0 0 .625-.61c0-.312-.219-.624-.625-.624-.297 0-.469.187-.5.218a5.28 5.28 0 0 1-.062-.718c0-.75.422-1.11 1.172-1.11h.343c.032.72.125 3.25 1.563 3.25.953 0 1.14-1.234 1.14-1.921 0-.797-.406-1.266-.828-1.485.313 0 .766 0 .766-1.047v-.468c0-.204 0-.329-.234-.329Zm-1.157 2c.97 0 1.094.922 1.094 1.172 0 .516-.344.906-.797.906-1.062 0-1.203-1.578-1.234-2.078Zm0 0"/></symbol><clipPath id="a"><path d="M14 80h186.203v21H14Zm0 0"/></clipPath><clipPath id="c"><path d="M14 63h186.203v21H14Zm0 0"/></clipPath><clipPath id="e"><path d="M14 46h186.203v21H14Zm0 0"/></clipPath><clipPath id="g"><path d="M14 29h186.203v21H14Zm0 0"/></clipPath><clipPath id="i"><path d="M14 12h186.203v21H14Zm0 0"/></clipPath><clipPath id="k"><path d="M14 0h186.203v16H14Zm0 0"/></clipPath></defs><g clip-path="url(#a)"><path style="fill:none;stroke-width:.3985;stroke-linecap:butt;stroke-linejoin:miter;stroke:#000;stroke-opacity:1;stroke-dasharray:2.98883,2.98883;stroke-miterlimit:10" d="m0-.002 8.503 8.504h170.083" transform="matrix(1 0 0 -1 20.602 94.643)"/></g><use xlink:href="#b" x="11.354" y="97.851" style="fill:#000;fill-opacity:1"/><g clip-path="url(#c)"><path style="fill:none;stroke-width:.3985;stroke-linecap:butt;stroke-linejoin:miter;stroke:#000;stroke-opacity:1;stroke-dasharray:2.98883,2.98883;stroke-miterlimit:10" d="m0 17.006 8.503 8.504h170.083" transform="matrix(1 0 0 -1 20.602 94.643)"/></g><g style="fill:#000;fill-opacity:1"><use xlink:href="#d" x="5.625" y="80.844"/><use xlink:href="#b" x="11.354" y="80.844"/></g><g clip-path="url(#e)"><path style="fill:none;stroke-width:.3985;stroke-linecap:butt;stroke-linejoin:miter;stroke:#000;stroke-opacity:1;stroke-dasharray:2.98883,2.98883;stroke-miterlimit:10" d="m0 34.014 8.503 8.504h170.083" transform="matrix(1 0 0 -1 20.602 94.643)"/></g><g style="fill:#000;fill-opacity:1"><use xlink:href="#f" x="5.625" y="63.842"/><use xlink:href="#b" x="11.354" y="63.842"/></g><g clip-path="url(#g)"><path style="fill:none;stroke-width:.3985;stroke-linecap:butt;stroke-linejoin:miter;stroke:#000;stroke-opacity:1;stroke-dasharray:2.98883,2.98883;stroke-miterlimit:10" d="m0 51.022 8.503 8.504h170.083" transform="matrix(1 0 0 -1 20.602 94.643)"/></g><g style="fill:#000;fill-opacity:1"><use xlink:href="#h" x="5.625" y="46.829"/><use xlink:href="#b" x="11.354" y="46.829"/></g><g clip-path="url(#i)"><path style="fill:none;stroke-width:.3985;stroke-linecap:butt;stroke-linejoin:miter;stroke:#000;stroke-opacity:1;stroke-dasharray:2.98883,2.98883;stroke-miterlimit:10" d="m0 68.03 8.503 8.504h170.083" transform="matrix(1 0 0 -1 20.602 94.643)"/></g><g style="fill:#000;fill-opacity:1"><use xlink:href="#j" x="5.625" y="29.822"/><use xlink:href="#b" x="11.354" y="29.822"/></g><g clip-path="url(#k)"><path style="fill:none;stroke-width:.3985;stroke-linecap:butt;stroke-linejoin:miter;stroke:#000;stroke-opacity:1;stroke-dasharray:2.98883,2.98883;stroke-miterlimit:10" d="m0 85.038 8.503 8.503h170.083" transform="matrix(1 0 0 -1 20.602 94.643)"/></g><g style="fill:#000;fill-opacity:1"><use xlink:href="#l" x="-.103" y="12.815"/><use xlink:href="#b" x="5.626" y="12.815"/><use xlink:href="#b" x="11.354" y="12.815"/></g><path style="fill:none;stroke-width:.3985;stroke-linecap:butt;stroke-linejoin:miter;stroke:#000;stroke-opacity:1;stroke-miterlimit:10" d="M0-.002v85.04M8.503 8.502v85.04M0-.002h170.082" transform="matrix(1 0 0 -1 20.602 94.643)"/><use xlink:href="#m" x="51.404" y="147.916" style="fill:#000;fill-opacity:1"/><g style="fill:#000;fill-opacity:1"><use xlink:href="#n" x="51.404" y="142.187"/><use xlink:href="#o" x="51.404" y="136.937"/><use xlink:href="#p" x="51.404" y="132.215"/></g><g style="fill:#000;fill-opacity:1"><use xlink:href="#q" x="51.404" y="122.352"/><use xlink:href="#r" x="51.404" y="116.623"/></g><use xlink:href="#r" x="51.404" y="110.576" style="fill:#000;fill-opacity:1"/><use xlink:href="#s" x="51.404" y="104.529" style="fill:#000;fill-opacity:1"/><path style="fill-rule:nonzero;fill:#8080ff;fill-opacity:1;stroke-width:.3985;stroke-linecap:butt;stroke-linejoin:miter;stroke:#000;stroke-opacity:1;stroke-miterlimit:10" d="M19.843-.002v8.504h17.008V-.002Zm0 0" transform="matrix(1 0 0 -1 20.602 94.643)"/><path style="fill-rule:nonzero;fill:#b2b2ff;fill-opacity:1;stroke-width:.3985;stroke-linecap:butt;stroke-linejoin:miter;stroke:#000;stroke-opacity:1;stroke-miterlimit:10" d="m36.851-.002 8.504 8.504v8.504l-8.504-8.504Zm0 0" transform="matrix(1 0 0 -1 20.602 94.643)"/><path style="fill-rule:nonzero;fill:#ccf;fill-opacity:1;stroke-width:.3985;stroke-linecap:butt;stroke-linejoin:miter;stroke:#000;stroke-opacity:1;stroke-miterlimit:10" d="M19.843 8.502h17.008l8.504 8.504H28.347Zm0 0" transform="matrix(1 0 0 -1 20.602 94.643)"/><g style="fill:#000;fill-opacity:1"><use xlink:href="#q" x="79.751" y="122.352"/><use xlink:href="#r" x="79.751" y="116.623"/></g><use xlink:href="#r" x="79.751" y="110.576" style="fill:#000;fill-opacity:1"/><use xlink:href="#s" x="79.751" y="104.529" style="fill:#000;fill-opacity:1"/><path style="fill-rule:nonzero;fill:#8080ff;fill-opacity:1;stroke-width:.3985;stroke-linecap:butt;stroke-linejoin:miter;stroke:#000;stroke-opacity:1;stroke-miterlimit:10" d="M48.191-.002V25.51h17.008V-.002Zm0 0" transform="matrix(1 0 0 -1 20.602 94.643)"/><path style="fill-rule:nonzero;fill:#b2b2ff;fill-opacity:1;stroke-width:.3985;stroke-linecap:butt;stroke-linejoin:miter;stroke:#000;stroke-opacity:1;stroke-miterlimit:10" d="m65.199-.002 8.504 8.504v25.512l-8.504-8.504Zm0 0" transform="matrix(1 0 0 -1 20.602 94.643)"/><path style="fill-rule:nonzero;fill:#ccf;fill-opacity:1;stroke-width:.3985;stroke-linecap:butt;stroke-linejoin:miter;stroke:#000;stroke-opacity:1;stroke-miterlimit:10" d="M48.191 25.51h17.008l8.504 8.504H56.695Zm0 0" transform="matrix(1 0 0 -1 20.602 94.643)"/><g style="fill:#000;fill-opacity:1"><use xlink:href="#r" x="109.068" y="109.939"/><use xlink:href="#t" x="109.068" y="104.21"/></g><path style="fill-rule:nonzero;fill:#8080ff;fill-opacity:1;stroke-width:.3985;stroke-linecap:butt;stroke-linejoin:miter;stroke:#000;stroke-opacity:1;stroke-miterlimit:10" d="M76.535-.002v28.063h17.011V-.002Zm0 0" transform="matrix(1 0 0 -1 20.602 94.643)"/><path style="fill-rule:nonzero;fill:#b2b2ff;fill-opacity:1;stroke-width:.3985;stroke-linecap:butt;stroke-linejoin:miter;stroke:#000;stroke-opacity:1;stroke-miterlimit:10" d="m93.546-.002 8.504 8.504v28.063l-8.504-8.504Zm0 0" transform="matrix(1 0 0 -1 20.602 94.643)"/><path style="fill-rule:nonzero;fill:#ccf;fill-opacity:1;stroke-width:.3985;stroke-linecap:butt;stroke-linejoin:miter;stroke:#000;stroke-opacity:1;stroke-miterlimit:10" d="M76.535 28.061h17.011l8.504 8.504H85.04Zm0 0" transform="matrix(1 0 0 -1 20.602 94.643)"/><g style="fill:#000;fill-opacity:1"><use xlink:href="#u" x="137.415" y="116.464"/><use xlink:href="#v" x="137.415" y="110.098"/><use xlink:href="#s" x="137.415" y="104.529"/></g><path style="fill-rule:nonzero;fill:#8080ff;fill-opacity:1;stroke-width:.3985;stroke-linecap:butt;stroke-linejoin:miter;stroke:#000;stroke-opacity:1;stroke-miterlimit:10" d="M104.882-.002V22.96h17.008V0Zm0 0" transform="matrix(1 0 0 -1 20.602 94.643)"/><path style="fill-rule:nonzero;fill:#b2b2ff;fill-opacity:1;stroke-width:.3985;stroke-linecap:butt;stroke-linejoin:miter;stroke:#000;stroke-opacity:1;stroke-miterlimit:10" d="m121.89-.002 8.504 8.504v22.961l-8.504-8.504Zm0 0" transform="matrix(1 0 0 -1 20.602 94.643)"/><path style="fill-rule:nonzero;fill:#ccf;fill-opacity:1;stroke-width:.3985;stroke-linecap:butt;stroke-linejoin:miter;stroke:#000;stroke-opacity:1;stroke-miterlimit:10" d="M104.882 22.96h17.008l8.504 8.503h-17.008Zm0 0" transform="matrix(1 0 0 -1 20.602 94.643)"/><use xlink:href="#m" x="164.795" y="142.028" style="fill:#000;fill-opacity:1"/><g style="fill:#000;fill-opacity:1"><use xlink:href="#n" x="164.795" y="136.299"/><use xlink:href="#o" x="164.795" y="131.049"/><use xlink:href="#p" x="164.795" y="126.327"/></g><g style="fill:#000;fill-opacity:1"><use xlink:href="#u" x="164.795" y="116.464"/><use xlink:href="#v" x="164.795" y="110.098"/><use xlink:href="#s" x="164.795" y="104.529"/></g><path style="fill:none;stroke-width:.3985;stroke-linecap:butt;stroke-linejoin:miter;stroke:#000;stroke-opacity:1;stroke-miterlimit:10" d="M133.23-.002h17.008Zm0 0" transform="matrix(1 0 0 -1 20.602 94.643)"/><path style="fill-rule:nonzero;fill:#b2b2ff;fill-opacity:1;stroke-width:.3985;stroke-linecap:butt;stroke-linejoin:miter;stroke:#000;stroke-opacity:1;stroke-miterlimit:10" d="m150.238-.002 8.504 8.504Zm0 0" transform="matrix(1 0 0 -1 20.602 94.643)"/><path style="fill-rule:nonzero;fill:#ccf;fill-opacity:1;stroke-width:.3985;stroke-linecap:butt;stroke-linejoin:miter;stroke:#000;stroke-opacity:1;stroke-miterlimit:10" d="M133.23-.002h17.008l8.504 8.504h-17.008Zm0 0" transform="matrix(1 0 0 -1 20.602 94.643)"/></svg>