<svg xmlns="http://www.w3.org/2000/svg" width="106.419" height="106.419" viewBox="0 0 79.814 79.814" version="1.2"><defs><clipPath id="a"><path d="M0 0h79.723v79.723H0Zm0 0"/></clipPath></defs><g clip-path="url(#a)"><path style="fill:none;stroke-width:.3985;stroke-linecap:butt;stroke-linejoin:miter;stroke:#000;stroke-opacity:1;stroke-miterlimit:10" d="M-.001 0 49.1 28.349M-1.415 2.454l49.097 28.348M-2.833 4.91l49.097 28.344M-4.25 7.364l49.097 28.348M-5.669 9.822l49.097 28.343m-50.515-25.89L42.01 40.621m-50.515-25.89 49.097 28.343m-50.515-25.89 49.101 28.347m-50.515-25.895L37.76 47.985m-50.515-25.89 49.097 28.347m-50.515-25.894 49.097 28.347m-50.515-25.89 49.097 28.347m-50.515-25.894 49.097 28.347m-50.515-25.89 49.101 28.344M-19.84 34.368l49.097 28.348m-50.515-25.891 49.097 28.344m-50.515-25.89L26.42 67.625m-50.515-25.89 49.097 28.343m-50.515-25.89 49.098 28.347M-26.931 46.64 22.17 74.99m-50.515-25.89 49.097 28.347M0 .001l-28.344 49.097m30.8-47.68-28.347 49.098m30.8-47.683-28.347 49.101M7.366 4.251l-28.348 49.097m30.8-47.68-28.347 49.098m30.805-47.68-28.348 49.098M14.73 8.504l-28.348 49.098m30.805-47.68L-11.162 59.02M19.64 11.34-8.708 60.439m30.8-47.683L-6.25 61.852m30.8-47.68L-3.798 63.27m30.8-47.68L-1.34 64.689m30.8-47.68L1.113 66.107m30.8-47.68L3.566 67.525m30.805-47.68L6.022 68.942m30.8-47.683L8.476 70.36M39.28 22.677 10.932 71.774m30.801-47.68L13.385 73.192m30.805-47.68L15.842 74.61m30.801-47.68L18.295 76.028m30.801-47.68L20.753 77.446" transform="matrix(1 0 0 -1 29.435 78.532)"/></g></svg>