<svg xmlns="http://www.w3.org/2000/svg" width="116.475" height="78.531" viewBox="0 0 87.356 58.898" version="1.2"><defs><clipPath id="a"><path d="M0 7h87v51.848H0Zm0 0"/></clipPath></defs><path style="fill:none;stroke-width:.19925;stroke-linecap:butt;stroke-linejoin:miter;stroke:gray;stroke-opacity:1;stroke-miterlimit:10" d="M0-.001h85.039M-.001 28.346h85.04M-.001 56.682h85.04M-.001 0v56.695M28.348-.001v56.695M56.695-.001v56.695M85.03-.001v56.695" transform="matrix(1 0 0 -1 .895 57.733)"/><g clip-path="url(#a)"><path style="fill:none;stroke-width:.3985;stroke-linecap:butt;stroke-linejoin:miter;stroke:#000;stroke-opacity:1;stroke-miterlimit:10" d="M0-.001.015 1.35l.05 1.348.083 1.347.121 1.34.152 1.344.192 1.332.23 1.332.27 1.32.308 1.313.348 1.305.387 1.293.43 1.277.472 1.266.516 1.246.554 1.23.594 1.207.64 1.192.68 1.164.72 1.14.761 1.114.816 1.109-1.218 2.504 5.492-1.277-1.875 5.16 5.277-1.98-1.195 5.362 4.984-2.636-.52 5.472 4.622-3.222.137 5.5 4.214-3.739.762 5.454 3.77-4.184 1.355 5.34 3.293-4.563 1.918 5.168 2.797-4.883 2.441 4.938 2.274-5.145 2.945 4.657 1.723-5.356 3.422 4.317 1.136-5.512 1.871 1.98 1.778-.668 1.242-.523 1.23-.559 1.207-.597 1.188-.633 1.168-.676 1.148-.71 1.121-.755 1.094-.785 1.067-.824 1.039-.86 1.007-.898.977-.93.945-.968.907-.996.875-1.032.832-1.058.796-1.09.758-1.117.719-1.145.676-1.164.648-1.219" transform="matrix(1 0 0 -1 .895 57.733)"/></g></svg>