<svg xmlns="http://www.w3.org/2000/svg" xmlns:xlink="http://www.w3.org/1999/xlink" width="116.341" height="97.563" viewBox="0 0 87.256 73.172" version="1.2"><defs><symbol overflow="visible" id="b"><path style="stroke:none" d="M4.922 0v-.469h-1.39v-5.734c0-.234 0-.328-.266-.328-.11 0-.125 0-.22.078-.765.562-1.796.562-2 .562H.845v.47h.203c.156 0 .703-.016 1.297-.204v5.156H.954V0c.437-.031 1.5-.031 1.984-.031s1.546 0 1.984.031Zm0 0"/></symbol><symbol overflow="visible" id="c"><path style="stroke:none" d="M5.156-2.219h-.468c-.032.203-.125.844-.266.906-.11.063-.86.063-1.016.063H1.937c.47-.39 1-.813 1.438-1.14 1.14-.844 1.781-1.313 1.781-2.25 0-1.157-1.047-1.891-2.437-1.891-1.219 0-2.156.625-2.156 1.515 0 .594.484.735.718.735C1.61-4.281 2-4.5 2-5c0-.516-.422-.672-.563-.719.282-.234.672-.343 1.032-.343.844 0 1.312.671 1.312 1.421 0 .688-.375 1.375-1.078 2.079l-2 2.046c-.14.11-.14.141-.14.344V0h4.28Zm0 0"/></symbol><clipPath id="a"><path d="M30 9h55v63.758H30Zm0 0"/></clipPath></defs><path style="fill:none;stroke-width:.19925;stroke-linecap:butt;stroke-linejoin:miter;stroke:gray;stroke-opacity:1;stroke-miterlimit:10" d="M.001 0h85.04M0 28.348h85.04M0 56.684h85.04M0 0v56.695M28.345 0v56.695M56.693 0v56.695M85.029 0v56.695" transform="matrix(1 0 0 -1 .737 57.379)"/><g clip-path="url(#a)"><path style="fill:none;stroke-width:.3985;stroke-linecap:butt;stroke-linejoin:miter;stroke:#000;stroke-opacity:1;stroke-miterlimit:10" d="M77.954 14.172c0 15.656-9.52 28.348-21.261 28.348-11.742 0-21.258-12.692-21.258-28.348 0-15.652 9.515-28.344 21.258-28.344 11.742 0 21.261 12.692 21.261 28.344Zm0 0" transform="matrix(1 0 0 -1 .737 57.379)"/></g><path style="fill:none;stroke-width:.3985;stroke-linecap:butt;stroke-linejoin:miter;stroke:#000;stroke-opacity:1;stroke-miterlimit:10" d="M11.497 16.418 6.576 44.336l55.832 9.844 4.921-27.914Zm0 0" transform="matrix(1 0 0 -1 .737 57.379)"/><path style="stroke:none;fill-rule:nonzero;fill:red;fill-opacity:.5" d="M67.559 16.984a1.994 1.994 0 0 0-3.989 0 1.994 1.994 0 0 0 3.988 0ZM38.734 36.656a1.994 1.994 0 0 0-3.988 0 1.994 1.994 0 0 0 3.988 0Zm0 0"/><use xlink:href="#b" x="56.315" y="13.465" style="fill:#000;fill-opacity:1"/><use xlink:href="#c" x="27.491" y="33.137" style="fill:#000;fill-opacity:1"/></svg>