<svg xmlns="http://www.w3.org/2000/svg" xmlns:xlink="http://www.w3.org/1999/xlink" width="46.899" height="49.275" viewBox="0 0 35.174 36.956" version="1.2"><defs><symbol overflow="visible" id="a"><path style="stroke:none" d="M4.922 0v-.469h-1.39v-5.734c0-.234 0-.328-.266-.328-.11 0-.125 0-.22.078-.765.562-1.796.562-2 .562H.845v.47h.203c.156 0 .703-.016 1.297-.204v5.156H.954V0c.437-.031 1.5-.031 1.984-.031s1.546 0 1.984.031Zm0 0"/></symbol><symbol overflow="visible" id="b"><path style="stroke:none" d="M5.281-3.188c0-.953-.015-3.343-2.422-3.343C.453-6.531.453-4.156.453-3.188c0 1 0 3.297 2.406 3.297 2.391 0 2.422-2.296 2.422-3.296ZM4-3.296c0 .563 0 1.469-.078 1.985-.14.921-.766 1.062-1.063 1.062-.359 0-.921-.219-1.046-.953-.094-.516-.094-1.547-.094-2.094 0-.719 0-1.375.078-1.89.125-.891.828-.985 1.062-.985.375 0 .782.188.97.625C4-5.172 4-4.109 4-3.297Zm0 0"/></symbol></defs><use xlink:href="#a" x=".164" y="7.476" style="fill:#000;fill-opacity:1"/><use xlink:href="#b" x="14.337" y="7.476" style="fill:#000;fill-opacity:1"/><use xlink:href="#b" x="28.51" y="7.476" style="fill:#000;fill-opacity:1"/><use xlink:href="#b" x=".164" y="21.649" style="fill:#000;fill-opacity:1"/><use xlink:href="#a" x="14.337" y="21.649" style="fill:#000;fill-opacity:1"/><use xlink:href="#b" x="28.51" y="21.649" style="fill:#000;fill-opacity:1"/><use xlink:href="#b" x=".164" y="35.822" style="fill:#000;fill-opacity:1"/><use xlink:href="#b" x="14.337" y="35.822" style="fill:#000;fill-opacity:1"/><use xlink:href="#a" x="28.51" y="35.822" style="fill:#000;fill-opacity:1"/></svg>