<svg xmlns="http://www.w3.org/2000/svg" width="119.908" height="80.979" viewBox="0 0 89.931 60.734" version="1.2"><defs><clipPath id="a"><path d="M0 0h89.898v60.602H0Zm0 0"/></clipPath></defs><path style="fill:none;stroke-width:.19925;stroke-linecap:butt;stroke-linejoin:miter;stroke:gray;stroke-opacity:1;stroke-miterlimit:10" d="M0 .002h85.04M0 28.345h85.04M0 56.686h85.04M0 .002v56.691M28.348.002v56.691M56.692.002v56.691M85.032.002v56.691" transform="matrix(1 0 0 -1 3.671 59.283)"/><path style="stroke:none;fill-rule:nonzero;fill:#d2c92a;fill-opacity:1" d="m3.672 59.281 4.555-1.87 8.187-2.954 3.102.98 5.597-1.488 6.75-3.46 3.215-.915 5.102-2.261 8.218-3.891L53.2 41.05l6.512-.461 4.031-.008 4.16-2.95 3.953-1.519 7.48-2.703 5.985-.625 3.368-1.84-.165-6.933-3.91-2.317-.996-7.316-5.617.266-4.063-7.41-3.62-2.032-5.688-2.254-6.992-1.66-7.59-.207-3.848 1.297-5.105-.742-8.602.914-4.894 1.55-3.43.696-4.426 1.25-6.07 4.914-4.492 7.5-1.942 3.55-2.761 4.794-1.485 4.011-1.808 6.84.671 4.403.372 5.023 2.035 4.727Zm0 0"/><g clip-path="url(#a)"><path style="fill:none;stroke-width:.3985;stroke-linecap:butt;stroke-linejoin:miter;stroke:#000;stroke-opacity:1;stroke-miterlimit:10" d="m0 .002 4.555 1.87 8.188 2.954 3.101-.98 5.598 1.488 6.75 3.46 3.215.915 5.101 2.261 8.219 3.891 4.8 2.371 6.512.461 4.032.008 4.16 2.95 3.953 1.519 7.48 2.703 5.985.625 3.367 1.84-.164 6.933-3.91 2.317-.996 7.316-5.617-.266-4.063 7.41-3.621 2.032-5.688 2.254-6.992 1.66-7.59.207-3.847-1.297-5.106.742-8.601-.914-4.895-1.55-3.43-.696-4.425-1.25L10 48.322l-4.493-7.5-1.941-3.55-2.762-4.794-1.484-4.011-1.809-6.84.672-4.403.371-5.023L.59 7.474Zm0 0" transform="matrix(1 0 0 -1 3.671 59.283)"/></g></svg>