<svg xmlns="http://www.w3.org/2000/svg" width="88.176" height="91.875" viewBox="0 0 66.132 68.906" version="1.2"><defs><clipPath id="a"><path d="M16 46h33v22.86H16Zm0 0"/></clipPath></defs><path style="fill-rule:nonzero;fill:#ccf;fill-opacity:1;stroke-width:.79701;stroke-linecap:butt;stroke-linejoin:miter;stroke:#8080ff;stroke-opacity:1;stroke-miterlimit:10" d="M4.696 56.693c0 2.593-2.101 4.699-4.695 4.699a4.698 4.698 0 0 1 0-9.395 4.695 4.695 0 0 1 4.695 4.696ZM4.696 28.345c0 2.594-2.101 4.7-4.695 4.7a4.698 4.698 0 0 1 0-9.395 4.695 4.695 0 0 1 4.695 4.695Zm0 0" transform="matrix(1 0 0 -1 32.632 62.759)"/><path style="stroke:none;fill-rule:nonzero;fill:#ccf;fill-opacity:1" d="M37.328 62.758a4.695 4.695 0 0 0-4.695-4.696 4.698 4.698 0 0 0 0 9.395 4.698 4.698 0 0 0 4.695-4.7Zm0 0"/><g clip-path="url(#a)"><path style="fill:none;stroke-width:.79701;stroke-linecap:butt;stroke-linejoin:miter;stroke:#8080ff;stroke-opacity:1;stroke-miterlimit:10" d="M4.696.001A4.695 4.695 0 0 1 .001 4.697a4.698 4.698 0 0 1 0-9.395 4.698 4.698 0 0 1 4.695 4.7Zm0 0" transform="matrix(1 0 0 -1 32.632 62.759)"/></g><path style="fill-rule:nonzero;fill:#ccc;fill-opacity:1;stroke-width:.79701;stroke-linecap:butt;stroke-linejoin:miter;stroke:gray;stroke-opacity:1;stroke-miterlimit:10" d="M25.028 25.025h6.64v6.644h-6.64ZM-31.667 25.025h6.64v6.644h-6.64Zm0 0" transform="matrix(1 0 0 -1 32.632 62.759)"/></svg>