<svg xmlns="http://www.w3.org/2000/svg" width="116.451" height="78.771" viewBox="0 0 87.338 59.078" version="1.2"><defs><clipPath id="a"><path d="M16 25h44v33.617H16Zm0 0"/></clipPath></defs><path style="fill:none;stroke-width:.19925;stroke-linecap:butt;stroke-linejoin:miter;stroke:gray;stroke-opacity:1;stroke-miterlimit:10" d="M0 0h85.042M0 28.348h85.043M0 56.684h85.043M0 0v56.695M28.347 0v56.695M56.694 0v56.695M85.03 0v56.695" transform="matrix(1 0 0 -1 .868 57.332)"/><path style="fill:none;stroke-width:.3985;stroke-linecap:butt;stroke-linejoin:miter;stroke:#000;stroke-opacity:1;stroke-miterlimit:10" d="M0 0v14.172h28.347V0Zm0 0" transform="matrix(1 0 0 -1 .868 57.332)"/><path style="fill:none;stroke-width:.3985;stroke-linecap:butt;stroke-linejoin:miter;stroke:red;stroke-opacity:1;stroke-miterlimit:10" d="M28.347 0v14.172h28.347V0Zm0 0" transform="matrix(1 0 0 -1 .868 57.332)"/><path style="fill:none;stroke-width:.3985;stroke-linecap:butt;stroke-linejoin:miter;stroke:#00f;stroke-opacity:1;stroke-miterlimit:10" d="M28.347 28.348V42.52h28.347V28.348Zm0 0" transform="matrix(1 0 0 -1 .868 57.332)"/><g clip-path="url(#a)"><path style="fill:none;stroke-width:.3985;stroke-linecap:butt;stroke-linejoin:miter;stroke:#ff8000;stroke-opacity:1;stroke-miterlimit:10" d="M28.347 0 21.26 12.273 45.808 26.45l7.09-12.277Zm0 0" transform="matrix(1 0 0 -1 .868 57.332)"/></g></svg>