<svg xmlns="http://www.w3.org/2000/svg" width="42.761" height="12.651" viewBox="0 0 32.071 9.488" version="1.2"><defs><clipPath id="a"><path d="M0 0h31.605v9.23H0Zm0 0"/></clipPath></defs><path style="fill:none;stroke-width:1.59404;stroke-linecap:butt;stroke-linejoin:miter;stroke:#000;stroke-opacity:1;stroke-miterlimit:10" d="M-.002 2.212h23.215" transform="matrix(1 0 0 -1 .544 6.696)"/><path style="stroke:none;fill-rule:nonzero;fill:#000;fill-opacity:1" d="M29.637 4.484c.484-1.625-.434-2.937-2.059-2.937-1.621 0-3.332 1.312-3.82 2.937-.488 1.625.433 2.938 2.058 2.938 1.622 0 3.332-1.313 3.82-2.938Zm0 0"/><g clip-path="url(#a)"><path style="fill:none;stroke-width:1.59404;stroke-linecap:butt;stroke-linejoin:miter;stroke:#000;stroke-opacity:1;stroke-miterlimit:10" d="M6.676 0A2.938 2.938 0 1 1 .795-.002 2.938 2.938 0 0 1 6.676 0Zm0 0" transform="matrix(1 0 .3 -1 22.96 4.484)"/></g></svg>