<svg xmlns="http://www.w3.org/2000/svg" width="90.13pt" height="90.11pt" viewBox="0 0 90.13 90.11" version="1.2"><defs><clipPath id="a"><path d="M0 80h10v9.664H0Zm0 0"/></clipPath><clipPath id="b"><path d="M3 80h15v9.664H3Zm0 0"/></clipPath><clipPath id="c"><path d="M11 80h15v9.664H11Zm0 0"/></clipPath><clipPath id="d"><path d="M18 80h15v9.664H18Zm0 0"/></clipPath><clipPath id="e"><path d="M26 80h15v9.664H26Zm0 0"/></clipPath><clipPath id="f"><path d="M34 80h15v9.664H34Zm0 0"/></clipPath><clipPath id="g"><path d="M41 80h15v9.664H41Zm0 0"/></clipPath><clipPath id="h"><path d="M49 80h15v9.664H49Zm0 0"/></clipPath><clipPath id="i"><path d="M57 80h15v9.664H57Zm0 0"/></clipPath><clipPath id="j"><path d="M64 80h15v9.664H64Zm0 0"/></clipPath><clipPath id="k"><path d="M72 80h15v9.664H72Zm0 0"/></clipPath><clipPath id="l"><path d="M80 80h9.695v9.664H80Zm0 0"/></clipPath><clipPath id="m"><path d="M0 79h10v10.664H0Zm0 0"/></clipPath><clipPath id="n"><path d="M0 79h10v10.664H0Zm0 0"/></clipPath><clipPath id="o"><path d="M0 79h10v10.664H0Zm0 0"/></clipPath><clipPath id="p"><path d="M0 79h10v10.664H0Zm0 0"/></clipPath><clipPath id="q"><path d="M0 79h10v10.664H0Zm0 0"/></clipPath><clipPath id="r"><path d="M0 79h10v10.664H0Zm0 0"/></clipPath><clipPath id="s"><path d="M0 79h10v10.664H0Zm0 0"/></clipPath><clipPath id="t"><path d="M0 79h10v10.664H0Zm0 0"/></clipPath><clipPath id="u"><path d="M0 79h10v10.664H0Zm0 0"/></clipPath></defs><g clip-path="url(#a)"><path style="fill:none;stroke-width:.3985;stroke-linecap:butt;stroke-linejoin:miter;stroke:#000;stroke-opacity:1;stroke-miterlimit:10" d="M-.557-1.409 2.26 1.408m-2.817 0L2.26-1.41" transform="matrix(1 0 0 -1 2.092 87.099)"/></g><g clip-path="url(#b)"><path style="fill:none;stroke-width:.3985;stroke-linecap:butt;stroke-linejoin:miter;stroke:#000;stroke-opacity:1;stroke-miterlimit:10" d="m7.096-1.409 2.816 2.817m-2.817 0L9.913-1.41" transform="matrix(1 0 0 -1 2.092 87.099)"/></g><g clip-path="url(#c)"><path style="fill:none;stroke-width:.3985;stroke-linecap:butt;stroke-linejoin:miter;stroke:#000;stroke-opacity:1;stroke-miterlimit:10" d="m14.748-1.409 2.82 2.817m-2.82 0 2.82-2.817" transform="matrix(1 0 0 -1 2.092 87.099)"/></g><g clip-path="url(#d)"><path style="fill:none;stroke-width:.3985;stroke-linecap:butt;stroke-linejoin:miter;stroke:#000;stroke-opacity:1;stroke-miterlimit:10" d="m22.404-1.409 2.817 2.817m-2.817 0 2.817-2.817" transform="matrix(1 0 0 -1 2.092 87.099)"/></g><g clip-path="url(#e)"><path style="fill:none;stroke-width:.3985;stroke-linecap:butt;stroke-linejoin:miter;stroke:#000;stroke-opacity:1;stroke-miterlimit:10" d="m30.056-1.409 2.817 2.817m-2.817 0 2.817-2.817" transform="matrix(1 0 0 -1 2.092 87.099)"/></g><g clip-path="url(#f)"><path style="fill:none;stroke-width:.3985;stroke-linecap:butt;stroke-linejoin:miter;stroke:#000;stroke-opacity:1;stroke-miterlimit:10" d="m37.709-1.409 2.82 2.817m-2.82 0 2.82-2.817" transform="matrix(1 0 0 -1 2.092 87.099)"/></g><g clip-path="url(#g)"><path style="fill:none;stroke-width:.3985;stroke-linecap:butt;stroke-linejoin:miter;stroke:#000;stroke-opacity:1;stroke-miterlimit:10" d="m45.365-1.409 2.816 2.817m-2.816 0 2.816-2.817" transform="matrix(1 0 0 -1 2.092 87.099)"/></g><g clip-path="url(#h)"><path style="fill:none;stroke-width:.3985;stroke-linecap:butt;stroke-linejoin:miter;stroke:#000;stroke-opacity:1;stroke-miterlimit:10" d="m53.017-1.409 2.817 2.817m-2.817 0 2.817-2.817" transform="matrix(1 0 0 -1 2.092 87.099)"/></g><g clip-path="url(#i)"><path style="fill:none;stroke-width:.3985;stroke-linecap:butt;stroke-linejoin:miter;stroke:#000;stroke-opacity:1;stroke-miterlimit:10" d="m60.67-1.409 2.82 2.817m-2.82 0 2.82-2.817" transform="matrix(1 0 0 -1 2.092 87.099)"/></g><g clip-path="url(#j)"><path style="fill:none;stroke-width:.3985;stroke-linecap:butt;stroke-linejoin:miter;stroke:#000;stroke-opacity:1;stroke-miterlimit:10" d="m68.326-1.409 2.816 2.817m-2.816 0 2.816-2.817" transform="matrix(1 0 0 -1 2.092 87.099)"/></g><g clip-path="url(#k)"><path style="fill:none;stroke-width:.3985;stroke-linecap:butt;stroke-linejoin:miter;stroke:#000;stroke-opacity:1;stroke-miterlimit:10" d="m75.978-1.409 2.817 2.817m-2.817 0 2.817-2.817" transform="matrix(1 0 0 -1 2.092 87.099)"/></g><g clip-path="url(#l)"><path style="fill:none;stroke-width:.3985;stroke-linecap:butt;stroke-linejoin:miter;stroke:#000;stroke-opacity:1;stroke-miterlimit:10" d="m83.63-1.409 2.821 2.817m-2.82 0 2.82-2.817" transform="matrix(1 0 0 -1 2.092 87.099)"/></g><g clip-path="url(#m)"><path style="fill:none;stroke-width:.3985;stroke-linecap:butt;stroke-linejoin:miter;stroke:#000;stroke-opacity:1;stroke-miterlimit:10" d="m-.819-.796 2.817 2.817m-2.817 0L1.998-.796" transform="matrix(1 0 0 -1 2.092 87.099)"/></g><path style="fill:none;stroke-width:.3985;stroke-linecap:butt;stroke-linejoin:miter;stroke:#000;stroke-opacity:1;stroke-miterlimit:10" d="m4.494 4.712 2.816 2.82m-2.816 0 2.816-2.82M9.803 10.224l2.82 2.816m-2.82 0 2.82-2.816M15.115 15.736l2.816 2.816m-2.816 0 2.816-2.816M20.428 21.244l2.816 2.82m-2.816 0 2.816-2.82M25.736 26.755l2.82 2.82m-2.82 0 2.82-2.82M31.049 32.267l2.816 2.816m-2.816 0 2.816-2.816M36.361 37.779l2.817 2.816m-2.817 0 2.817-2.816M41.67 43.286l2.82 2.82m-2.82 0 2.82-2.82M46.982 48.798l2.817 2.817m-2.817 0 2.817-2.817M52.295 54.31l2.816 2.816m-2.816 0 2.816-2.816M57.603 59.818l2.82 2.82m-2.82 0 2.82-2.82" transform="matrix(1 0 0 -1 2.092 87.099)"/><g clip-path="url(#n)"><path style="fill:none;stroke-width:.3985;stroke-linecap:butt;stroke-linejoin:miter;stroke:#000;stroke-opacity:1;stroke-miterlimit:10" d="m-.97-.682 2.82 2.82m-2.82 0 2.82-2.82" transform="matrix(1 0 0 -1 2.092 87.099)"/></g><path style="fill:none;stroke-width:.3985;stroke-linecap:butt;stroke-linejoin:miter;stroke:#000;stroke-opacity:1;stroke-miterlimit:10" d="M2.986 5.872 5.803 8.69m-2.817 0 2.817-2.817M6.94 12.423l2.816 2.82m-2.817 0 2.817-2.82M10.892 18.978l2.82 2.816m-2.82 0 2.82-2.816M14.85 25.529l2.816 2.82m-2.817 0 2.817-2.82M18.803 32.083l2.816 2.817m-2.816 0 2.816-2.817M22.756 38.634l2.82 2.817m-2.82 0 2.82-2.817M26.713 45.189l2.816 2.816m-2.816 0 2.816-2.816M30.666 51.74l2.816 2.816m-2.816 0 2.816-2.816M34.619 58.29l2.82 2.82m-2.82 0 2.82-2.82M38.572 64.845l2.82 2.817m-2.82 0 2.82-2.817M42.53 71.396l2.816 2.82m-2.817 0 2.816-2.82" transform="matrix(1 0 0 -1 2.092 87.099)"/><g clip-path="url(#o)"><path style="fill:none;stroke-width:.3985;stroke-linecap:butt;stroke-linejoin:miter;stroke:#000;stroke-opacity:1;stroke-miterlimit:10" d="m-1.072-.628 2.82 2.817m-2.82 0 2.82-2.817" transform="matrix(1 0 0 -1 2.092 87.099)"/></g><path style="fill:none;stroke-width:.3985;stroke-linecap:butt;stroke-linejoin:miter;stroke:#000;stroke-opacity:1;stroke-miterlimit:10" d="m1.963 6.4 2.816 2.816m-2.816 0L4.779 6.4M4.994 13.423l2.82 2.82m-2.82 0 2.82-2.82M8.03 20.45l2.816 2.817m-2.817 0 2.816-2.816M11.064 27.478l2.817 2.816m-2.817 0 2.817-2.816M14.095 34.501l2.82 2.82m-2.82 0 2.82-2.82M17.13 41.529l2.817 2.82m-2.816 0 2.816-2.82M20.166 48.556l2.816 2.816m-2.816 0 2.816-2.816M23.197 55.583l2.82 2.817m-2.82 0 2.82-2.817M26.232 62.607l2.817 2.82m-2.817 0 2.817-2.82M29.263 69.634l2.82 2.817m-2.82 0 2.82-2.817M32.299 76.662l2.82 2.816m-2.82 0 2.82-2.816" transform="matrix(1 0 0 -1 2.092 87.099)"/><g clip-path="url(#p)"><path style="fill:none;stroke-width:.3985;stroke-linecap:butt;stroke-linejoin:miter;stroke:#000;stroke-opacity:1;stroke-miterlimit:10" d="m-1.15-.6 2.82 2.82m-2.82 0L1.67-.6" transform="matrix(1 0 0 -1 2.092 87.099)"/></g><path style="fill:none;stroke-width:.3985;stroke-linecap:butt;stroke-linejoin:miter;stroke:#000;stroke-opacity:1;stroke-miterlimit:10" d="m1.19 6.689 2.816 2.816m-2.817 0L4.006 6.69M3.525 13.978l2.817 2.816m-2.817 0 2.817-2.816M5.861 21.263l2.817 2.82m-2.817 0 2.817-2.82M8.197 28.552l2.82 2.817m-2.82 0 2.82-2.817M10.537 35.841l2.816 2.817m-2.816 0 2.816-2.817M12.873 43.126l2.816 2.82m-2.816 0 2.816-2.82M15.209 50.415l2.816 2.817m-2.816 0 2.816-2.817M17.545 57.704l2.82 2.817m-2.82 0 2.82-2.817M19.88 64.99l2.821 2.82m-2.82 0 2.82-2.82M22.22 72.279l2.817 2.816m-2.816 0 2.816-2.816M24.556 79.568l2.817 2.816m-2.817 0 2.817-2.816" transform="matrix(1 0 0 -1 2.092 87.099)"/><g clip-path="url(#q)"><path style="fill:none;stroke-width:.3985;stroke-linecap:butt;stroke-linejoin:miter;stroke:#000;stroke-opacity:1;stroke-miterlimit:10" d="m-1.213-.58 2.82 2.816m-2.82 0 2.82-2.817" transform="matrix(1 0 0 -1 2.092 87.099)"/></g><path style="fill:none;stroke-width:.3985;stroke-linecap:butt;stroke-linejoin:miter;stroke:#000;stroke-opacity:1;stroke-miterlimit:10" d="m.564 6.86 2.82 2.821m-2.82 0 2.82-2.82M2.342 14.306l2.816 2.816m-2.816 0 2.816-2.816M4.119 21.751l2.816 2.817m-2.816 0 2.816-2.817M5.896 29.193l2.817 2.82m-2.817 0 2.817-2.82M7.674 36.638l2.816 2.82m-2.816 0 2.816-2.82M9.447 44.083l2.82 2.817m-2.82 0 2.82-2.817M11.224 51.529l2.82 2.816m-2.82 0 2.82-2.816M13.002 58.97l2.816 2.82m-2.816 0 2.816-2.82M14.78 66.415l2.816 2.817m-2.817 0 2.817-2.817M16.556 73.86l2.817 2.817m-2.817 0 2.817-2.816M18.33 81.302l2.82 2.82m-2.82 0 2.82-2.82" transform="matrix(1 0 0 -1 2.092 87.099)"/><g clip-path="url(#r)"><path style="fill:none;stroke-width:.3985;stroke-linecap:butt;stroke-linejoin:miter;stroke:#000;stroke-opacity:1;stroke-miterlimit:10" d="m-1.264-.573 2.817 2.82m-2.817 0 2.817-2.82" transform="matrix(1 0 0 -1 2.092 87.099)"/></g><path style="fill:none;stroke-width:.3985;stroke-linecap:butt;stroke-linejoin:miter;stroke:#000;stroke-opacity:1;stroke-miterlimit:10" d="m.045 6.97 2.82 2.817m-2.82 0 2.82-2.817M1.353 14.51l2.82 2.82m-2.82 0 2.82-2.82M2.666 22.052l2.816 2.817m-2.816 0 2.816-2.817M3.974 29.591l2.817 2.817m-2.817 0 2.817-2.817M5.283 37.13l2.816 2.82m-2.816 0 2.816-2.82M6.592 44.673l2.816 2.817m-2.816 0 2.816-2.817M7.9 52.212l2.817 2.82m-2.817 0 2.817-2.82M9.209 59.755l2.82 2.817m-2.82 0 2.82-2.817M10.517 67.294l2.82 2.817m-2.82 0 2.82-2.817M11.83 74.833l2.816 2.82m-2.816 0 2.816-2.82M13.138 82.376l2.817 2.817m-2.817 0 2.817-2.817" transform="matrix(1 0 0 -1 2.092 87.099)"/><g clip-path="url(#s)"><path style="fill:none;stroke-width:.3985;stroke-linecap:butt;stroke-linejoin:miter;stroke:#000;stroke-opacity:1;stroke-miterlimit:10" d="m-1.307-.565 2.817 2.82m-2.817 0L1.51-.565" transform="matrix(1 0 0 -1 2.092 87.099)"/></g><path style="fill:none;stroke-width:.3985;stroke-linecap:butt;stroke-linejoin:miter;stroke:#000;stroke-opacity:1;stroke-miterlimit:10" d="m-.4 7.037 2.82 2.816m-2.82 0 2.82-2.816M.51 14.634l2.816 2.817m-2.816 0 2.816-2.817M1.42 22.232l2.816 2.82m-2.816 0 2.816-2.82M2.326 29.833l2.82 2.817m-2.82 0 2.82-2.817M3.236 37.431l2.817 2.816m-2.817 0 2.817-2.816M4.146 45.029l2.817 2.82m-2.817 0 2.817-2.82M5.053 52.63l2.82 2.817m-2.82 0 2.82-2.817M5.963 60.228l2.816 2.82m-2.816 0 2.816-2.82M6.873 67.83l2.816 2.816m-2.816 0 2.816-2.817M7.78 75.427l2.82 2.817m-2.82 0 2.82-2.817M8.69 83.025l2.816 2.82m-2.817 0 2.817-2.82" transform="matrix(1 0 0 -1 2.092 87.099)"/><g clip-path="url(#t)"><path style="fill:none;stroke-width:.3985;stroke-linecap:butt;stroke-linejoin:miter;stroke:#000;stroke-opacity:1;stroke-miterlimit:10" d="M-1.346-.561 1.47 2.255m-2.816 0L1.47-.56" transform="matrix(1 0 0 -1 2.092 87.099)"/></g><path style="fill:none;stroke-width:.3985;stroke-linecap:butt;stroke-linejoin:miter;stroke:#000;stroke-opacity:1;stroke-miterlimit:10" d="m-.787 7.072 2.816 2.816m-2.816 0 2.816-2.816M-.229 14.704l2.817 2.817m-2.817 0 2.817-2.817M.33 22.337l2.82 2.817m-2.82 0 2.82-2.817M.888 29.97l2.82 2.816m-2.82 0 2.82-2.816M1.447 37.603l2.82 2.816m-2.82 0 2.82-2.816M2.01 45.236l2.816 2.816m-2.816 0 2.816-2.816M2.568 52.869l2.817 2.816m-2.817 0 2.817-2.816M3.127 60.501l2.816 2.82m-2.816 0 2.816-2.82M3.685 68.134l2.817 2.82m-2.817 0 2.817-2.82M4.244 75.767l2.82 2.82m-2.82 0 2.82-2.82M4.803 83.4l2.82 2.82m-2.82 0 2.82-2.82" transform="matrix(1 0 0 -1 2.092 87.099)"/><g clip-path="url(#u)"><path style="fill:none;stroke-width:.3985;stroke-linecap:butt;stroke-linejoin:miter;stroke:#000;stroke-opacity:1;stroke-miterlimit:10" d="m-1.381-.557 2.816 2.816m-2.816 0L1.435-.557" transform="matrix(1 0 0 -1 2.092 87.099)"/></g><path style="fill:none;stroke-width:.3985;stroke-linecap:butt;stroke-linejoin:miter;stroke:#000;stroke-opacity:1;stroke-miterlimit:10" d="m-1.131 7.091 2.816 2.817m-2.816 0L1.685 7.09M-.885 14.74l2.82 2.816m-2.82 0 2.82-2.816M-.635 22.388l2.816 2.82m-2.816 0 2.816-2.82M-.389 30.037l2.82 2.82m-2.82 0 2.82-2.82M-.139 37.689l2.817 2.816m-2.817 0 2.817-2.816M.111 45.337l2.817 2.817m-2.817 0 2.817-2.817M.357 52.986l2.82 2.816m-2.82 0 2.82-2.816M.607 60.634l2.817 2.82m-2.817 0 2.817-2.82M.857 68.287l2.817 2.816m-2.817 0 2.817-2.816M1.103 75.935l2.82 2.816m-2.82 0 2.82-2.816M1.353 83.583 4.17 86.4m-2.817 0 2.817-2.817" transform="matrix(1 0 0 -1 2.092 87.099)"/></svg>