<svg xmlns="http://www.w3.org/2000/svg" width="153.997" height="116.619" viewBox="0 0 115.498 87.464" version="1.2"><defs><clipPath id="a"><path d="M0 23h64v64.195H0Zm0 0"/></clipPath></defs><path style="fill:none;stroke-width:.19925;stroke-linecap:butt;stroke-linejoin:miter;stroke:gray;stroke-opacity:1;stroke-miterlimit:10" d="M0 0h85.04M0 28.334h85.04M0 0v28.348M28.348-.001v28.348M56.692-.001v28.348M85.032-.001v28.348" transform="matrix(1 0 0 -1 29.105 29.296)"/><path style="fill:none;stroke-width:.3985;stroke-linecap:butt;stroke-linejoin:miter;stroke:#000;stroke-opacity:1;stroke-miterlimit:10" d="M28.348 0c9.238 14.515 18.082 28.347 28.344 28.347" transform="matrix(1 0 0 -1 29.105 29.296)"/><g clip-path="url(#a)"><path style="fill:none;stroke-width:.3985;stroke-linecap:butt;stroke-linejoin:miter;stroke:red;stroke-opacity:1;stroke-miterlimit:10" d="M28.348 0C9.864-29.029-7.824-56.693-28.347-56.693" transform="matrix(1 0 0 -1 29.105 29.296)"/></g></svg>