<svg xmlns="http://www.w3.org/2000/svg" xmlns:xlink="http://www.w3.org/1999/xlink" width="363.195" height="117.099" viewBox="0 0 272.396 87.824" version="1.2"><defs><symbol overflow="visible" id="b"><path style="stroke:none" d="M3.89-2.547c0-.844-.078-1.36-.343-1.875-.344-.703-1-.875-1.438-.875-1 0-1.375.75-1.484.969C.344-3.75.328-2.953.328-2.547c0 .531.016 1.328.406 1.969.36.594.954.75 1.375.75.391 0 1.063-.125 1.47-.906.296-.579.312-1.297.312-1.813ZM2.11-.062c-.266 0-.813-.126-.985-.954-.094-.453-.094-1.203-.094-1.625 0-.546 0-1.109.094-1.546.172-.813.781-.891.984-.891.266 0 .829.14.985.86.094.437.094 1.046.094 1.577 0 .47 0 1.188-.094 1.641-.172.828-.719.938-.985.938Zm0 0"/></symbol><symbol overflow="visible" id="d"><path style="stroke:none" d="M1.11-4.484c.109.03.421.125.765.125 1 0 1.594-.704 1.594-.829 0-.093-.047-.109-.094-.109-.016 0-.031 0-.094.031a2.982 2.982 0 0 1-1.11.22c-.468 0-.858-.11-1.108-.22-.079-.03-.094-.03-.11-.03-.094 0-.094.077-.094.234v2.328c0 .14 0 .234.125.234.063 0 .079-.031.125-.094.094-.11.391-.515 1.079-.515.437 0 .656.359.734.515.125.281.14.656.14.953 0 .297 0 .735-.218 1.079-.156.25-.485.484-.906.484A1.271 1.271 0 0 1 .734-.922c.016.016.079.016.079.016.218 0 .406-.14.406-.39a.388.388 0 0 0-.39-.407c-.157 0-.407.078-.407.422 0 .718.625 1.453 1.531 1.453 1 0 1.844-.781 1.844-1.766 0-.922-.672-1.75-1.61-1.75-.39 0-.765.125-1.078.406Zm0 0"/></symbol><symbol overflow="visible" id="f"><path style="stroke:none" d="M2.5-5.078c0-.219-.016-.219-.234-.219-.329.313-.75.5-1.5.5v.266c.218 0 .64 0 1.109-.203v4.078c0 .297-.031.39-.781.39H.812V0c.329-.031 1.016-.031 1.375-.031.36 0 1.047 0 1.376.031v-.266H3.28c-.75 0-.781-.093-.781-.39Zm0 0"/></symbol><symbol overflow="visible" id="g"><path style="stroke:none" d="M2.25-1.625c.125-.125.453-.39.594-.5.484-.453.953-.89.953-1.61 0-.953-.797-1.562-1.781-1.562-.97 0-1.594.719-1.594 1.438 0 .39.312.437.422.437.172 0 .422-.11.422-.422 0-.406-.407-.406-.5-.406.234-.594.765-.781 1.156-.781.734 0 1.125.625 1.125 1.297 0 .828-.578 1.437-1.531 2.39l-1 1.047C.422-.219.422-.203.422 0h3.14l.235-1.422h-.25c-.016.156-.078.547-.172.703-.047.063-.656.063-.781.063H1.172Zm0 0"/></symbol><symbol overflow="visible" id="c"><path style="stroke:none" d="M1.625-.438a.463.463 0 0 0-.453-.453.447.447 0 0 0-.438.438.44.44 0 0 0 .438.453.45.45 0 0 0 .453-.438Zm0 0"/></symbol><symbol overflow="visible" id="e"><path style="stroke:none" d="M2.266-2.906h.906c-.156.719-.297 1.312-.297 1.906 0 .047 0 .39.078.688.11.328.188.39.328.39.172 0 .36-.156.36-.344 0-.046 0-.062-.032-.14-.171-.36-.296-.75-.296-1.406 0-.172 0-.516.124-1.094h.97c.124 0 .202 0 .28-.063a.314.314 0 0 0 .125-.25c0-.219-.203-.219-.328-.219H1.61c-.171 0-.484 0-.875.391-.28.281-.5.64-.5.703 0 .078.047.094.11.094.094 0 .11-.016.156-.078.39-.578.86-.578 1.031-.578H2c-.234.844-.656 1.812-.953 2.39C1-.39.922-.234.922-.172c0 .172.125.25.25.25.312 0 .39-.297.562-.953Zm0 0"/></symbol><symbol overflow="visible" id="h"><path style="stroke:none" d="M5.563-1.813c.14 0 .312 0 .312-.171 0-.188-.172-.188-.313-.188H1c-.125 0-.297 0-.297.188 0 .171.172.171.297.171Zm0 0"/></symbol><clipPath id="a"><path d="M24 0h248.094v87.734H24Zm0 0"/></clipPath></defs><path style="fill:none;stroke-width:.3985;stroke-linecap:round;stroke-linejoin:miter;stroke:#000;stroke-opacity:1;stroke-miterlimit:10" d="M55.66-1.994v3.988M111.316-1.994v3.988M166.976-1.994v3.988M222.632-1.994v3.988M-1.993-35.432H1.99M-1.993 35.435H1.99" transform="matrix(1 0 0 -1 15.579 43.818)"/><path style="fill:none;stroke-width:.3985;stroke-linecap:butt;stroke-linejoin:miter;stroke:#000;stroke-opacity:1;stroke-miterlimit:10" d="M-7.474.002h262.579" transform="matrix(1 0 0 -1 15.579 43.818)"/><path style="fill:none;stroke-width:.3985;stroke-linecap:round;stroke-linejoin:round;stroke:#000;stroke-opacity:1;stroke-miterlimit:10" d="M-2.073 2.392C-1.693.955-.85.28.002.002-.85-.28-1.694-.955-2.073-2.393" transform="matrix(1 0 0 -1 270.881 43.818)"/><path style="fill:none;stroke-width:.3985;stroke-linecap:butt;stroke-linejoin:miter;stroke:#000;stroke-opacity:1;stroke-miterlimit:10" d="M0-42.905v85.41" transform="matrix(1 0 0 -1 15.579 43.818)"/><path style="fill:none;stroke-width:.3985;stroke-linecap:round;stroke-linejoin:round;stroke:#000;stroke-opacity:1;stroke-miterlimit:10" d="M-2.072 2.392C-1.692.958-.849.278-.002 0c-.847-.281-1.69-.957-2.07-2.39" transform="matrix(0 -1 -1 0 15.579 1.112)"/><g clip-path="url(#a)"><path style="fill:none;stroke-width:.59776;stroke-linecap:butt;stroke-linejoin:miter;stroke:#000;stroke-opacity:1;stroke-miterlimit:10" d="M17.718 16.986s6.933 5.812 9.594 7.7c2.664 1.886 6.933 4.573 9.597 5.902 2.664 1.324 6.934 2.996 9.598 3.667 2.66.672 6.934 1.208 9.594 1.172 2.664-.03 6.933-.672 9.597-1.41 2.664-.734 6.934-2.504 9.598-3.887 2.66-1.386 6.934-4.156 9.594-6.09 2.664-1.929 6.933-5.495 9.597-7.835 2.664-2.34 6.934-6.446 9.598-9.024 2.66-2.574 6.934-6.918 9.594-9.543 2.664-2.625 6.933-6.89 9.597-9.37 2.665-2.481 6.934-6.36 9.598-8.516 2.66-2.16 6.934-5.364 9.594-7.04 2.664-1.68 6.933-3.98 9.598-5.054 2.664-1.074 6.933-2.297 9.597-2.692 2.66-.394 6.934-.457 9.594-.14 2.664.316 6.934 1.422 9.598 2.426 2.664 1.003 6.933 3.195 9.597 4.812 2.66 1.617 6.934 4.734 9.594 6.848 2.664 2.117 6.934 5.93 9.598 8.386 2.664 2.457 6.933 6.696 9.597 9.313 2.664 2.617 6.934 6.969 9.594 9.559 2.664 2.59 6.934 6.734 9.598 9.109 2.664 2.375 9.597 7.996 9.597 7.996" transform="matrix(1 0 0 -1 15.579 43.818)"/></g><use xlink:href="#b" x="64.878" y="53.603" style="fill:#000;fill-opacity:1"/><use xlink:href="#c" x="69.112" y="53.603" style="fill:#000;fill-opacity:1"/><use xlink:href="#d" x="71.465" y="53.603" style="fill:#000;fill-opacity:1"/><use xlink:href="#e" x="75.699" y="53.603" style="fill:#000;fill-opacity:1"/><use xlink:href="#f" x="123.829" y="53.603" style="fill:#000;fill-opacity:1"/><use xlink:href="#e" x="128.063" y="53.603" style="fill:#000;fill-opacity:1"/><use xlink:href="#f" x="176.194" y="53.603" style="fill:#000;fill-opacity:1"/><use xlink:href="#c" x="180.428" y="53.603" style="fill:#000;fill-opacity:1"/><use xlink:href="#d" x="182.78" y="53.603" style="fill:#000;fill-opacity:1"/><use xlink:href="#e" x="187.014" y="53.603" style="fill:#000;fill-opacity:1"/><use xlink:href="#g" x="235.145" y="53.603" style="fill:#000;fill-opacity:1"/><use xlink:href="#e" x="239.379" y="53.603" style="fill:#000;fill-opacity:1"/><use xlink:href="#h" x=".11" y="81.404" style="fill:#000;fill-opacity:1"/><use xlink:href="#f" x="6.697" y="81.404" style="fill:#000;fill-opacity:1"/><use xlink:href="#b" x="8.689" y="51.61" style="fill:#000;fill-opacity:1"/><use xlink:href="#f" x="6.697" y="10.953" style="fill:#000;fill-opacity:1"/></svg>