<svg xmlns="http://www.w3.org/2000/svg" width="153.891" height="78.291" viewBox="0 0 115.418 58.718" version="1.2"><path style="stroke:none;fill-rule:nonzero;fill:#ccf;fill-opacity:1" d="M57.418 29.223C57.418 13.566 44.73.875 29.074.875S.727 13.566.727 29.223c0 15.656 12.691 28.347 28.347 28.347S57.418 44.88 57.418 29.223Zm0 0"/><path style="stroke:none;fill-rule:nonzero;fill:#fcc;fill-opacity:1" d="M114.113 29.223c0-7.828-6.343-14.172-14.172-14.172-7.828 0-14.175 6.344-14.175 14.172s6.347 14.172 14.175 14.172c7.829 0 14.172-6.344 14.172-14.172Zm0 0"/><path style="fill-rule:nonzero;fill:#000;fill-opacity:1;stroke-width:.3985;stroke-linecap:butt;stroke-linejoin:miter;stroke:red;stroke-opacity:1;stroke-miterlimit:10" d="M24.548 14.172a28.347 28.347 0 0 0 0-28.344C28.091-8.035 35.435-2.836 42.521-2.836v5.672c-7.086 0-14.43 5.2-17.973 11.336ZM42.521-2.836h7.086v5.672H42.52Zm16.07 9.922a14.173 14.173 0 0 1 0-14.172c-1.77 3.067-5.441 4.25-8.984 4.25v5.672c3.543 0 7.215 1.184 8.984 4.25Zm0 0" transform="matrix(1 0 0 -1 29.073 29.223)"/></svg>