<svg xmlns="http://www.w3.org/2000/svg" width="118.083" height="43.419" viewBox="0 0 88.562 32.564" version="1.2"><defs><clipPath id="a"><path d="M0 0h73v32.348H0Zm0 0"/></clipPath><clipPath id="b"><path d="M0 0h40v32.348H0Zm0 0"/></clipPath><clipPath id="c"><path d="M0 0h88.344v32.348H0Zm0 0"/></clipPath><clipPath id="d"><path d="M2 0h86v32.348H2Zm0 0"/></clipPath><clipPath id="e"><path d="M19 0h69.344v32.348H19Zm0 0"/></clipPath><clipPath id="f"><path d="M30 0h58.344v32.348H30Zm0 0"/></clipPath></defs><g clip-path="url(#a)"><path style="fill:none;stroke-width:2.98883;stroke-linecap:butt;stroke-linejoin:miter;stroke:#000;stroke-opacity:1;stroke-miterlimit:10" d="M0-.002c0 15.656 12.691 28.348 28.348 28.348" transform="matrix(1 0 0 -1 2.293 31.338)"/></g><g clip-path="url(#b)"><path style="fill:none;stroke-width:.59776;stroke-linecap:butt;stroke-linejoin:miter;stroke:#fff;stroke-opacity:1;stroke-miterlimit:10" d="M0-.002c0 15.656 12.691 28.348 28.348 28.348" transform="matrix(1 0 0 -1 2.293 31.338)"/></g><g clip-path="url(#c)"><path style="fill:none;stroke-width:4.3836;stroke-linecap:butt;stroke-linejoin:miter;stroke:#000;stroke-opacity:1;stroke-miterlimit:10" d="M28.348-.002c0 15.656 12.691 28.348 28.347 28.348" transform="matrix(1 0 0 -1 2.293 31.338)"/></g><g clip-path="url(#d)"><path style="fill:none;stroke-width:1.99255;stroke-linecap:butt;stroke-linejoin:miter;stroke:#fff;stroke-opacity:1;stroke-miterlimit:10" d="M28.348-.002c0 15.656 12.691 28.348 28.347 28.348" transform="matrix(1 0 0 -1 2.293 31.338)"/></g><g clip-path="url(#e)"><path style="fill:none;stroke-width:2.78955;stroke-linecap:butt;stroke-linejoin:miter;stroke:#000;stroke-opacity:1;stroke-miterlimit:10" d="M56.695-.002c0 15.656 12.688 28.348 28.344 28.348" transform="matrix(1 0 0 -1 2.293 31.338)"/></g><g clip-path="url(#f)"><path style="fill:none;stroke-width:1.99255;stroke-linecap:butt;stroke-linejoin:miter;stroke:#fff;stroke-opacity:1;stroke-miterlimit:10" d="M56.695-.002c0 15.656 12.688 28.348 28.344 28.348" transform="matrix(1 0 0 -1 2.293 31.338)"/></g></svg>