<svg xmlns="http://www.w3.org/2000/svg" xmlns:xlink="http://www.w3.org/1999/xlink" width="428.56" height="102.555" viewBox="0 0 321.42 76.916" version="1.2"><defs><symbol overflow="visible" id="c"><path style="stroke:none" d="M6.531-1.469c0-.14-.125-.14-.281-.14-.234 0-.25 0-.313.25-.078.328-.265 1.078-.609 1.078-.11 0-.187-.078-.187-.313 0-.187.015-.265.062-.422l.688-2.765c.046-.14.046-.172.046-.219 0-.313-.25-.422-.453-.422-.125 0-.515.063-.64.547l-.688 2.813c-.047.171-.047.218-.328.5-.14.125-.39.28-.687.28-.5 0-.516-.468-.516-.687 0-.594.328-1.484.578-2.11.094-.25.14-.374.14-.546 0-.547-.515-.875-1.046-.875C1.25-4.5.766-3.156.766-2.953c0 .14.125.14.28.14.188 0 .235 0 .282-.124.078-.266.344-1.204.922-1.204.047 0 .125 0 .125.172 0 .203-.11.516-.172.656-.312.86-.594 1.579-.594 2.141 0 .906.641 1.25 1.47 1.25.28 0 .702-.047 1.187-.5.187.344.64.5 1.03.5.47 0 .72-.344.845-.531.265-.422.39-.984.39-1.016Zm0 0"/></symbol><symbol overflow="visible" id="d"><path style="stroke:none" d="M6.813-1.469c0-.14-.125-.14-.266-.14-.203 0-.25 0-.281.125-.079.265-.36 1.203-.922 1.203-.047 0-.14 0-.14-.172 0-.219.093-.469.234-.813.14-.375.578-1.546.578-2.109 0-.828-.579-1.125-1.375-1.125-.204 0-.86 0-1.516.688C2.922-4.391 2.328-4.5 2-4.5c-.469 0-.719.328-.844.531-.265.422-.39.985-.39 1.016 0 .14.125.14.28.14.235 0 .25-.015.313-.265.094-.328.266-1.063.61-1.063.11 0 .187.079.187.297 0 .188-.015.281-.062.438L1.39-.562c-.047.14-.047.156-.047.218 0 .297.234.422.453.422.062 0 .5-.015.625-.531l.625-2.485c.062-.28.625-1.203 1.531-1.203.422 0 .422.375.422.563 0 .594-.453 1.828-.64 2.265-.079.25-.11.36-.11.5 0 .563.5.891 1.047.891 1.031 0 1.516-1.344 1.516-1.547Zm0 0"/></symbol><symbol overflow="visible" id="e"><path style="stroke:none" d="M4.64-1.64c0-.22-.077-.548-.437-.844-.297-.235-.547-.282-1.078-.375-.297-.063-.703-.141-.703-.516 0 0 0-.766 1.062-.766.094 0 .454 0 .688.235-.39.172-.39.531-.39.562 0 .25.202.406.452.406.235 0 .61-.203.61-.687 0-.547-.563-.875-1.344-.875-.781 0-1.125.266-1.313.406-.328.282-.515.813-.515 1.125 0 .844.844 1.016 1.156 1.078.516.094 1.047.204 1.047.657 0 0 0 .953-1.375.953-.14 0-.61 0-.938-.266.079-.031.485-.219.485-.672 0-.39-.313-.468-.485-.468-.359 0-.718.296-.718.78 0 .626.656.985 1.625.985.265 0 .906-.015 1.453-.39.515-.36.719-1 .719-1.329Zm0 0"/></symbol><symbol overflow="visible" id="f"><path style="stroke:none" d="M3.89-1.469c0-.14-.124-.14-.28-.14-.188 0-.235 0-.282.125-.078.265-.344 1.203-.922 1.203-.047 0-.14 0-.14-.172 0-.14.078-.39.093-.406l.891-2.375c.063-.157.094-.235.094-.391 0-.547-.516-.875-1.047-.875C1.25-4.5.766-3.156.766-2.953c0 .14.125.14.28.14.188 0 .235 0 .282-.124.078-.266.344-1.204.922-1.204.047 0 .125 0 .125.172 0 .125-.063.375-.078.406l-.89 2.36c-.063.172-.095.25-.095.39 0 .563.516.891 1.047.891 1.047 0 1.532-1.344 1.532-1.547Zm.141-4.656a.6.6 0 0 0-.625-.594c-.453 0-.89.422-.89.86 0 .328.25.609.625.609.468 0 .89-.438.89-.875Zm0 0"/></symbol><symbol overflow="visible" id="g"><path style="stroke:none" d="m4.5.64 1.078-4.312c.031-.172.031-.25.031-.25 0-.219-.171-.422-.453-.422-.265 0-.375.11-.468.203-.282-.265-.594-.359-.954-.359-1.703 0-2.671 1.64-2.671 2.922C1.063-.516 1.78 0 2.688 0c.312 0 .624-.078.968-.266l-.172.704c-.25.921-.812 1.218-1.343 1.218-.282 0-.5-.031-.625-.062a.803.803 0 0 0 .28-.563c0-.25-.187-.453-.5-.453a.727.727 0 0 0-.702.735c0 .625.781.703 1.515.703C3.313 2.016 4.281 1.5 4.5.64Zm-.625-1.812c-.094.36-.672.813-1.156.813-.531 0-.578-.485-.578-.704 0-.546.359-1.765.484-2.109.328-.828.844-.969 1.11-.969.296 0 .609.157.734.594Zm0 0"/></symbol><symbol overflow="visible" id="h"><path style="stroke:none" d="M5.344-.86c0-.078-.203-.312-.297-.312-.031 0-.078 0-.14.063-.735.828-1.75.828-1.891.828-.547 0-.844-.328-.844-.922 0-.25.078-.625.156-.969h.406c.594 0 2.563 0 2.563-1.375C5.297-4.14 4.75-4.5 4-4.5c-1.719 0-2.906 1.297-2.906 2.828 0 1.078.672 1.75 1.922 1.75.296 0 .89-.031 1.406-.219.531-.203.922-.593.922-.718Zm-.688-2.703c0 1.032-1.625 1.032-2.234 1.032.14-.5.234-.797.531-1.125A1.452 1.452 0 0 1 4-4.141c.422 0 .656.266.656.579Zm0 0"/></symbol><symbol overflow="visible" id="i"><path style="stroke:none" d="M6.234-1.469c0-.14-.14-.14-.28-.14-.235 0-.25 0-.329.25-.078.328-.25 1.078-.594 1.078-.11 0-.187-.078-.187-.313 0-.187.015-.265.062-.422l1.39-5.562a.555.555 0 0 0 .032-.156c0-.188-.172-.188-.312-.172l-1.235.062c-.11 0-.312 0-.312.297 0 .172.187.172.281.172.11 0 .297.016.406.031l-.515 2.157a1.345 1.345 0 0 0-.907-.313c-1.687 0-2.671 1.656-2.671 2.984 0 1.188.828 1.594 1.593 1.594.61 0 1.078-.312 1.313-.5.187.344.64.5 1.031.5.469 0 .719-.344.844-.531.25-.422.39-.984.39-1.016ZM3.844-1c-.422.578-.844.719-1.156.719-.22 0-.563-.14-.563-.703 0-.547.344-1.766.453-2.047.344-.969.89-1.11 1.156-1.11.344 0 .625.22.735.61l-.594 2.36c-.016.062-.016.093-.031.171Zm0 0"/></symbol><symbol overflow="visible" id="j"><path style="stroke:none" d="M4.172-1.469c0-.14-.125-.14-.281-.14-.22 0-.22 0-.297.156-.422 1-.906 1.172-1.172 1.172-.094 0-.203-.016-.203-.313 0-.187.015-.265.047-.422l.75-2.937h.796c.172 0 .329 0 .329-.297 0-.172-.157-.172-.297-.172h-.719l.188-.797c.078-.25.187-.687.187-.765 0-.235-.172-.422-.453-.422-.125 0-.5.062-.625.531l-.36 1.453H1.25c-.172 0-.344 0-.344.281 0 .188.172.188.313.188h.718L1.25-1.172c-.047.156-.047.219-.047.281 0 .625.578.97 1.172.97 1.14 0 1.797-1.391 1.797-1.548Zm0 0"/></symbol><symbol overflow="visible" id="k"><path style="stroke:none" d="M5.61-3.625c0-.516-.548-.875-1.266-.875-.39 0-.86.11-1.282.531C2.892-4.28 2.5-4.5 2-4.5c-.469 0-.719.328-.844.531-.265.422-.39.985-.39 1.016 0 .14.125.14.28.14.235 0 .25-.015.313-.265.094-.328.266-1.063.61-1.063.11 0 .187.079.187.297 0 .188-.015.281-.062.438L1.39-.562c-.047.14-.047.156-.047.218 0 .297.234.422.453.422.062 0 .5-.015.625-.531l.672-2.719c.062-.234.515-.969 1.219-.969.109 0 .343 0 .546.157-.468.218-.468.64-.468.671 0 .25.187.47.5.47.375 0 .718-.329.718-.782Zm0 0"/></symbol><symbol overflow="visible" id="o"><path style="stroke:none" d="M3.297-.672a.67.67 0 0 0-.672-.687.67.67 0 0 0-.688.671c0 .391.329.688.672.688a.68.68 0 0 0 .688-.672Zm0 0"/></symbol><symbol overflow="visible" id="s"><path style="stroke:none" d="M5.125-.375c0-.36-.297-.375-.469-.375h-.36v-4.86c0-.359-.062-.484-.468-.484h-.703c-.188 0-.484.016-.484.375 0 .36.296.375.468.375h.36v1.297a1.729 1.729 0 0 0-1.063-.344c-1.094 0-2.062.938-2.062 2.235C.344-.922 1.25.063 2.328.063c.485 0 .86-.204 1.14-.454.016.282.079.391.47.391h.703c.187 0 .484-.016.484-.375ZM3.453-1.969c0 .516-.406 1.282-1.094 1.282-.671 0-1.203-.657-1.203-1.47 0-.89.64-1.5 1.282-1.5.578 0 1.015.5 1.015 1Zm0 0"/></symbol><symbol overflow="visible" id="t"><path style="stroke:none" d="M4.563-.375c0-.36-.297-.375-.47-.375h-.937v-3.125c0-.36-.078-.469-.469-.469H1.313c-.188 0-.485.016-.485.36 0 .375.297.39.485.39h1.015V-.75h-1.11c-.187 0-.468.016-.468.375 0 .36.297.375.469.375h2.875c.172 0 .468-.016.468-.375Zm-1.375-5.11a.56.56 0 0 0-.563-.562.564.564 0 0 0-.578.563c0 .328.25.562.578.562a.55.55 0 0 0 .563-.562Zm0 0"/></symbol><symbol overflow="visible" id="u"><path style="stroke:none" d="M5.094-3.844c0-.25-.203-.61-.782-.61-.109 0-.578.016-1.046.329-.172-.11-.5-.266-.938-.266-.953 0-1.687.75-1.687 1.625 0 .407.156.72.312.922-.11.157-.187.375-.187.657 0 .312.109.546.187.671C.266-.046.266.61.266.72c0 .86 1.046 1.5 2.343 1.5s2.344-.64 2.344-1.5c0-.375-.187-.89-.703-1.172-.14-.078-.547-.297-1.453-.297h-.688c-.171 0-.39.047-.53-.125-.095-.11-.11-.297-.11-.297 0-.031.015-.094.031-.156.14.078.469.203.828.203.938 0 1.688-.734 1.688-1.64 0-.282-.079-.547-.235-.813.156-.078.297-.094.406-.125a.476.476 0 0 0 .438.328c.203 0 .469-.14.469-.469ZM3.187-2.766c0 .5-.39.907-.859.907-.484 0-.86-.422-.86-.907 0-.5.391-.89.86-.89s.86.422.86.89ZM4.234.72c0 .406-.703.765-1.625.765-.921 0-1.625-.359-1.625-.765 0-.156.079-.438.375-.625.22-.14.313-.14 1-.14.813 0 1.875 0 1.875.765Zm0 0"/></symbol><symbol overflow="visible" id="v"><path style="stroke:none" d="M4.5-1.313c0-.203 0-.437-.422-.437-.39 0-.406.234-.406.438 0 .53-.5.625-.719.625-.656 0-.656-.454-.656-.672v-2.235h1.515c.172 0 .47-.015.47-.375 0-.375-.282-.375-.47-.375H2.298v-.718c0-.22-.016-.47-.406-.47-.422 0-.422.235-.422.47v.718H.703c-.187 0-.469.016-.469.375 0 .36.282.375.454.375h.78v2.281c0 1 .688 1.375 1.454 1.375.75 0 1.578-.453 1.578-1.375Zm0 0"/></symbol><symbol overflow="visible" id="z"><path style="stroke:none" d="M5.031-.484v-.844c0-.234-.015-.484-.422-.484-.406 0-.406.234-.406.484v.578H1.75v-2.031h1.125c0 .406.047.562.422.562.39 0 .406-.25.406-.484v-.906c0-.22-.015-.47-.406-.47-.375 0-.422.157-.422.548H1.75v-1.813h2.234v.438c0 .218 0 .484.407.484.421 0 .421-.25.421-.484v-.703c0-.36-.078-.485-.468-.485H.719c-.188 0-.485.016-.485.375 0 .36.297.375.485.375h.203V-.75H.719c-.188 0-.485.016-.485.375 0 .36.297.375.485.375h3.844c.375 0 .468-.094.468-.484Zm0 0"/></symbol><symbol overflow="visible" id="D"><path style="stroke:none" d="M4.86-3.047c0-.406-.391-.422-.532-.422H3.031V-4.78c0-.14-.015-.532-.422-.532-.406 0-.421.391-.421.532v1.312H.89c-.141 0-.532.016-.532.422 0 .406.391.422.532.422h1.296v1.297c0 .14.016.547.422.547.407 0 .422-.406.422-.547v-1.297h1.297c.14 0 .531-.016.531-.422Zm0 0"/></symbol><symbol overflow="visible" id="I"><path style="stroke:none" d="M4.688-3.047c0-.406-.391-.422-.532-.422H1.063c-.141 0-.532.016-.532.422 0 .406.39.422.531.422h3.094c.14 0 .532-.016.532-.422Zm0 0"/></symbol><clipPath id="a"><path d="M1.309 2h88.375v16.582H1.309Zm0 0"/></clipPath><clipPath id="l"><path d="M100 2h18v17h-18Zm0 0"/></clipPath><clipPath id="m"><path d="M109.348 1.574a8.506 8.506 0 0 1 8.504 8.504 8.506 8.506 0 0 1-8.504 8.504c-4.7 0-8.508-3.809-8.508-8.504 0-4.695 3.808-8.504 8.508-8.504Zm0 0"/></clipPath><clipPath id="p"><path d="M129 2h35v17h-35Zm0 0"/></clipPath><clipPath id="q"><path d="M146.336 1.574h8.824c4.7 0 8.504 3.809 8.504 8.504a8.503 8.503 0 0 1-8.504 8.504h-17.648a8.506 8.506 0 0 1-8.504-8.504 8.506 8.506 0 0 1 8.504-8.504Zm0 0"/></clipPath><clipPath id="w"><path d="M174 2h18v17h-18Zm0 0"/></clipPath><clipPath id="x"><path d="M183.328 1.574a8.506 8.506 0 0 1 8.504 8.504 8.506 8.506 0 0 1-8.504 8.504 8.506 8.506 0 0 1-8.504-8.504 8.506 8.506 0 0 1 8.504-8.504Zm0 0"/></clipPath><clipPath id="A"><path d="M202 2h18v17h-18Zm0 0"/></clipPath><clipPath id="B"><path d="M211.496 1.574A8.506 8.506 0 0 1 220 10.078a8.506 8.506 0 0 1-8.504 8.504 8.503 8.503 0 0 1-8.504-8.504 8.503 8.503 0 0 1 8.504-8.504Zm0 0"/></clipPath><clipPath id="E"><path d="M202 58h18v17h-18Zm0 0"/></clipPath><clipPath id="F"><path d="M211.496 58.27A8.503 8.503 0 0 1 220 66.773a8.506 8.506 0 0 1-8.504 8.504 8.503 8.503 0 0 1-8.504-8.504 8.5 8.5 0 0 1 8.504-8.503Zm0 0"/></clipPath><clipPath id="H"><path d="M186 41h51v35.875h-51Zm0 0"/></clipPath><clipPath id="J"><path d="M231.156 2h88.375v16.582h-88.375Zm0 0"/></clipPath><linearGradient id="b" gradientUnits="userSpaceOnUse" x1="0" y1="25.003" x2="0" y2="74.997" gradientTransform="matrix(1.76773 0 0 -.3402 -42.89 27.088)"><stop offset="0" style="stop-color:#e5cccc;stop-opacity:1"/><stop offset=".016" style="stop-color:#e6cccc;stop-opacity:1"/><stop offset=".031" style="stop-color:#e6cdcd;stop-opacity:1"/><stop offset=".047" style="stop-color:#e6cece;stop-opacity:1"/><stop offset=".063" style="stop-color:#e7cfcf;stop-opacity:1"/><stop offset=".078" style="stop-color:#e7d0d0;stop-opacity:1"/><stop offset=".094" style="stop-color:#e8d0d0;stop-opacity:1"/><stop offset=".109" style="stop-color:#e8d1d1;stop-opacity:1"/><stop offset=".125" style="stop-color:#e8d2d2;stop-opacity:1"/><stop offset=".141" style="stop-color:#e9d3d3;stop-opacity:1"/><stop offset=".156" style="stop-color:#e9d4d4;stop-opacity:1"/><stop offset=".172" style="stop-color:#ead4d4;stop-opacity:1"/><stop offset=".188" style="stop-color:#ead5d5;stop-opacity:1"/><stop offset=".203" style="stop-color:#ead6d6;stop-opacity:1"/><stop offset=".219" style="stop-color:#ebd7d7;stop-opacity:1"/><stop offset=".234" style="stop-color:#ebd8d8;stop-opacity:1"/><stop offset=".25" style="stop-color:#ecd8d8;stop-opacity:1"/><stop offset=".266" style="stop-color:#ecd9d9;stop-opacity:1"/><stop offset=".281" style="stop-color:#ecdada;stop-opacity:1"/><stop offset=".297" style="stop-color:#eddbdb;stop-opacity:1"/><stop offset=".313" style="stop-color:#eddcdc;stop-opacity:1"/><stop offset=".328" style="stop-color:#eedcdc;stop-opacity:1"/><stop offset=".344" style="stop-color:#edd;stop-opacity:1"/><stop offset=".359" style="stop-color:#eedede;stop-opacity:1"/><stop offset=".375" style="stop-color:#efdfdf;stop-opacity:1"/><stop offset=".391" style="stop-color:#efe0e0;stop-opacity:1"/><stop offset=".406" style="stop-color:#f0e0e0;stop-opacity:1"/><stop offset=".422" style="stop-color:#f0e1e1;stop-opacity:1"/><stop offset=".438" style="stop-color:#f0e2e2;stop-opacity:1"/><stop offset=".453" style="stop-color:#f1e3e3;stop-opacity:1"/><stop offset=".469" style="stop-color:#f1e4e4;stop-opacity:1"/><stop offset=".484" style="stop-color:#f2e4e4;stop-opacity:1"/><stop offset=".5" style="stop-color:#f2e5e5;stop-opacity:1"/><stop offset=".516" style="stop-color:#f2e6e6;stop-opacity:1"/><stop offset=".531" style="stop-color:#f3e7e7;stop-opacity:1"/><stop offset=".547" style="stop-color:#f3e7e7;stop-opacity:1"/><stop offset=".563" style="stop-color:#f4e8e8;stop-opacity:1"/><stop offset=".578" style="stop-color:#f4e9e9;stop-opacity:1"/><stop offset=".594" style="stop-color:#f4eaea;stop-opacity:1"/><stop offset=".609" style="stop-color:#f5ebeb;stop-opacity:1"/><stop offset=".625" style="stop-color:#f5ebeb;stop-opacity:1"/><stop offset=".641" style="stop-color:#f6ecec;stop-opacity:1"/><stop offset=".656" style="stop-color:#f6eded;stop-opacity:1"/><stop offset=".672" style="stop-color:#f6eeee;stop-opacity:1"/><stop offset=".688" style="stop-color:#f7efef;stop-opacity:1"/><stop offset=".703" style="stop-color:#f7efef;stop-opacity:1"/><stop offset=".719" style="stop-color:#f8f0f0;stop-opacity:1"/><stop offset=".734" style="stop-color:#f8f1f1;stop-opacity:1"/><stop offset=".75" style="stop-color:#f8f2f2;stop-opacity:1"/><stop offset=".766" style="stop-color:#f9f3f3;stop-opacity:1"/><stop offset=".781" style="stop-color:#f9f3f3;stop-opacity:1"/><stop offset=".797" style="stop-color:#faf4f4;stop-opacity:1"/><stop offset=".813" style="stop-color:#faf5f5;stop-opacity:1"/><stop offset=".828" style="stop-color:#faf6f6;stop-opacity:1"/><stop offset=".844" style="stop-color:#fbf7f7;stop-opacity:1"/><stop offset=".859" style="stop-color:#fbf7f7;stop-opacity:1"/><stop offset=".875" style="stop-color:#fcf8f8;stop-opacity:1"/><stop offset=".891" style="stop-color:#fcf9f9;stop-opacity:1"/><stop offset=".906" style="stop-color:#fcfafa;stop-opacity:1"/><stop offset=".922" style="stop-color:#fdfbfb;stop-opacity:1"/><stop offset=".938" style="stop-color:#fdfbfb;stop-opacity:1"/><stop offset=".953" style="stop-color:#fefcfc;stop-opacity:1"/><stop offset=".969" style="stop-color:#fefdfd;stop-opacity:1"/><stop offset=".984" style="stop-color:#fefefe;stop-opacity:1"/><stop offset="1" style="stop-color:#fff;stop-opacity:1"/></linearGradient><linearGradient id="n" gradientUnits="userSpaceOnUse" x1="0" y1="25.003" x2="0" y2="74.997" gradientTransform="matrix(.3402 0 0 -.3402 92.336 27.088)"><stop offset="0" style="stop-color:#ccc;stop-opacity:1"/><stop offset=".016" style="stop-color:#ccc;stop-opacity:1"/><stop offset=".031" style="stop-color:#cdcdcd;stop-opacity:1"/><stop offset=".047" style="stop-color:#cecece;stop-opacity:1"/><stop offset=".063" style="stop-color:#cfcfcf;stop-opacity:1"/><stop offset=".078" style="stop-color:#d0d0d0;stop-opacity:1"/><stop offset=".094" style="stop-color:#d0d0d0;stop-opacity:1"/><stop offset=".109" style="stop-color:#d1d1d1;stop-opacity:1"/><stop offset=".125" style="stop-color:#d2d2d2;stop-opacity:1"/><stop offset=".141" style="stop-color:#d3d3d3;stop-opacity:1"/><stop offset=".156" style="stop-color:#d4d4d4;stop-opacity:1"/><stop offset=".172" style="stop-color:#d4d4d4;stop-opacity:1"/><stop offset=".188" style="stop-color:#d5d5d5;stop-opacity:1"/><stop offset=".203" style="stop-color:#d6d6d6;stop-opacity:1"/><stop offset=".219" style="stop-color:#d7d7d7;stop-opacity:1"/><stop offset=".234" style="stop-color:#d8d8d8;stop-opacity:1"/><stop offset=".25" style="stop-color:#d8d8d8;stop-opacity:1"/><stop offset=".266" style="stop-color:#d9d9d9;stop-opacity:1"/><stop offset=".281" style="stop-color:#dadada;stop-opacity:1"/><stop offset=".297" style="stop-color:#dbdbdb;stop-opacity:1"/><stop offset=".313" style="stop-color:#dcdcdc;stop-opacity:1"/><stop offset=".328" style="stop-color:#dcdcdc;stop-opacity:1"/><stop offset=".344" style="stop-color:#ddd;stop-opacity:1"/><stop offset=".359" style="stop-color:#dedede;stop-opacity:1"/><stop offset=".375" style="stop-color:#dfdfdf;stop-opacity:1"/><stop offset=".391" style="stop-color:#e0e0e0;stop-opacity:1"/><stop offset=".406" style="stop-color:#e0e0e0;stop-opacity:1"/><stop offset=".422" style="stop-color:#e1e1e1;stop-opacity:1"/><stop offset=".438" style="stop-color:#e2e2e2;stop-opacity:1"/><stop offset=".453" style="stop-color:#e3e3e3;stop-opacity:1"/><stop offset=".469" style="stop-color:#e4e4e4;stop-opacity:1"/><stop offset=".484" style="stop-color:#e4e4e4;stop-opacity:1"/><stop offset=".5" style="stop-color:#e5e5e5;stop-opacity:1"/><stop offset=".516" style="stop-color:#e6e6e6;stop-opacity:1"/><stop offset=".531" style="stop-color:#e7e7e7;stop-opacity:1"/><stop offset=".547" style="stop-color:#e7e7e7;stop-opacity:1"/><stop offset=".563" style="stop-color:#e8e8e8;stop-opacity:1"/><stop offset=".578" style="stop-color:#e9e9e9;stop-opacity:1"/><stop offset=".594" style="stop-color:#eaeaea;stop-opacity:1"/><stop offset=".609" style="stop-color:#ebebeb;stop-opacity:1"/><stop offset=".625" style="stop-color:#ebebeb;stop-opacity:1"/><stop offset=".641" style="stop-color:#ececec;stop-opacity:1"/><stop offset=".656" style="stop-color:#ededed;stop-opacity:1"/><stop offset=".672" style="stop-color:#eee;stop-opacity:1"/><stop offset=".688" style="stop-color:#efefef;stop-opacity:1"/><stop offset=".703" style="stop-color:#efefef;stop-opacity:1"/><stop offset=".719" style="stop-color:#f0f0f0;stop-opacity:1"/><stop offset=".734" style="stop-color:#f1f1f1;stop-opacity:1"/><stop offset=".75" style="stop-color:#f2f2f2;stop-opacity:1"/><stop offset=".766" style="stop-color:#f3f3f3;stop-opacity:1"/><stop offset=".781" style="stop-color:#f3f3f3;stop-opacity:1"/><stop offset=".797" style="stop-color:#f4f4f4;stop-opacity:1"/><stop offset=".813" style="stop-color:#f5f5f5;stop-opacity:1"/><stop offset=".828" style="stop-color:#f6f6f6;stop-opacity:1"/><stop offset=".844" style="stop-color:#f7f7f7;stop-opacity:1"/><stop offset=".859" style="stop-color:#f7f7f7;stop-opacity:1"/><stop offset=".875" style="stop-color:#f8f8f8;stop-opacity:1"/><stop offset=".891" style="stop-color:#f9f9f9;stop-opacity:1"/><stop offset=".906" style="stop-color:#fafafa;stop-opacity:1"/><stop offset=".922" style="stop-color:#fbfbfb;stop-opacity:1"/><stop offset=".938" style="stop-color:#fbfbfb;stop-opacity:1"/><stop offset=".953" style="stop-color:#fcfcfc;stop-opacity:1"/><stop offset=".969" style="stop-color:#fdfdfd;stop-opacity:1"/><stop offset=".984" style="stop-color:#fefefe;stop-opacity:1"/><stop offset="1" style="stop-color:#fff;stop-opacity:1"/></linearGradient><linearGradient id="r" gradientUnits="userSpaceOnUse" x1="0" y1="25.003" x2="0" y2="74.997" gradientTransform="matrix(.69322 0 0 -.3402 111.676 27.088)"><stop offset="0" style="stop-color:#ccc;stop-opacity:1"/><stop offset=".016" style="stop-color:#ccc;stop-opacity:1"/><stop offset=".031" style="stop-color:#cdcdcd;stop-opacity:1"/><stop offset=".047" style="stop-color:#cecece;stop-opacity:1"/><stop offset=".063" style="stop-color:#cfcfcf;stop-opacity:1"/><stop offset=".078" style="stop-color:#d0d0d0;stop-opacity:1"/><stop offset=".094" style="stop-color:#d0d0d0;stop-opacity:1"/><stop offset=".109" style="stop-color:#d1d1d1;stop-opacity:1"/><stop offset=".125" style="stop-color:#d2d2d2;stop-opacity:1"/><stop offset=".141" style="stop-color:#d3d3d3;stop-opacity:1"/><stop offset=".156" style="stop-color:#d4d4d4;stop-opacity:1"/><stop offset=".172" style="stop-color:#d4d4d4;stop-opacity:1"/><stop offset=".188" style="stop-color:#d5d5d5;stop-opacity:1"/><stop offset=".203" style="stop-color:#d6d6d6;stop-opacity:1"/><stop offset=".219" style="stop-color:#d7d7d7;stop-opacity:1"/><stop offset=".234" style="stop-color:#d8d8d8;stop-opacity:1"/><stop offset=".25" style="stop-color:#d8d8d8;stop-opacity:1"/><stop offset=".266" style="stop-color:#d9d9d9;stop-opacity:1"/><stop offset=".281" style="stop-color:#dadada;stop-opacity:1"/><stop offset=".297" style="stop-color:#dbdbdb;stop-opacity:1"/><stop offset=".313" style="stop-color:#dcdcdc;stop-opacity:1"/><stop offset=".328" style="stop-color:#dcdcdc;stop-opacity:1"/><stop offset=".344" style="stop-color:#ddd;stop-opacity:1"/><stop offset=".359" style="stop-color:#dedede;stop-opacity:1"/><stop offset=".375" style="stop-color:#dfdfdf;stop-opacity:1"/><stop offset=".391" style="stop-color:#e0e0e0;stop-opacity:1"/><stop offset=".406" style="stop-color:#e0e0e0;stop-opacity:1"/><stop offset=".422" style="stop-color:#e1e1e1;stop-opacity:1"/><stop offset=".438" style="stop-color:#e2e2e2;stop-opacity:1"/><stop offset=".453" style="stop-color:#e3e3e3;stop-opacity:1"/><stop offset=".469" style="stop-color:#e4e4e4;stop-opacity:1"/><stop offset=".484" style="stop-color:#e4e4e4;stop-opacity:1"/><stop offset=".5" style="stop-color:#e5e5e5;stop-opacity:1"/><stop offset=".516" style="stop-color:#e6e6e6;stop-opacity:1"/><stop offset=".531" style="stop-color:#e7e7e7;stop-opacity:1"/><stop offset=".547" style="stop-color:#e7e7e7;stop-opacity:1"/><stop offset=".563" style="stop-color:#e8e8e8;stop-opacity:1"/><stop offset=".578" style="stop-color:#e9e9e9;stop-opacity:1"/><stop offset=".594" style="stop-color:#eaeaea;stop-opacity:1"/><stop offset=".609" style="stop-color:#ebebeb;stop-opacity:1"/><stop offset=".625" style="stop-color:#ebebeb;stop-opacity:1"/><stop offset=".641" style="stop-color:#ececec;stop-opacity:1"/><stop offset=".656" style="stop-color:#ededed;stop-opacity:1"/><stop offset=".672" style="stop-color:#eee;stop-opacity:1"/><stop offset=".688" style="stop-color:#efefef;stop-opacity:1"/><stop offset=".703" style="stop-color:#efefef;stop-opacity:1"/><stop offset=".719" style="stop-color:#f0f0f0;stop-opacity:1"/><stop offset=".734" style="stop-color:#f1f1f1;stop-opacity:1"/><stop offset=".75" style="stop-color:#f2f2f2;stop-opacity:1"/><stop offset=".766" style="stop-color:#f3f3f3;stop-opacity:1"/><stop offset=".781" style="stop-color:#f3f3f3;stop-opacity:1"/><stop offset=".797" style="stop-color:#f4f4f4;stop-opacity:1"/><stop offset=".813" style="stop-color:#f5f5f5;stop-opacity:1"/><stop offset=".828" style="stop-color:#f6f6f6;stop-opacity:1"/><stop offset=".844" style="stop-color:#f7f7f7;stop-opacity:1"/><stop offset=".859" style="stop-color:#f7f7f7;stop-opacity:1"/><stop offset=".875" style="stop-color:#f8f8f8;stop-opacity:1"/><stop offset=".891" style="stop-color:#f9f9f9;stop-opacity:1"/><stop offset=".906" style="stop-color:#fafafa;stop-opacity:1"/><stop offset=".922" style="stop-color:#fbfbfb;stop-opacity:1"/><stop offset=".938" style="stop-color:#fbfbfb;stop-opacity:1"/><stop offset=".953" style="stop-color:#fcfcfc;stop-opacity:1"/><stop offset=".969" style="stop-color:#fdfdfd;stop-opacity:1"/><stop offset=".984" style="stop-color:#fefefe;stop-opacity:1"/><stop offset="1" style="stop-color:#fff;stop-opacity:1"/></linearGradient><linearGradient id="y" gradientUnits="userSpaceOnUse" x1="0" y1="25.003" x2="0" y2="74.997" gradientTransform="matrix(.3402 0 0 -.3402 166.318 27.088)"><stop offset="0" style="stop-color:#ccc;stop-opacity:1"/><stop offset=".016" style="stop-color:#ccc;stop-opacity:1"/><stop offset=".031" style="stop-color:#cdcdcd;stop-opacity:1"/><stop offset=".047" style="stop-color:#cecece;stop-opacity:1"/><stop offset=".063" style="stop-color:#cfcfcf;stop-opacity:1"/><stop offset=".078" style="stop-color:#d0d0d0;stop-opacity:1"/><stop offset=".094" style="stop-color:#d0d0d0;stop-opacity:1"/><stop offset=".109" style="stop-color:#d1d1d1;stop-opacity:1"/><stop offset=".125" style="stop-color:#d2d2d2;stop-opacity:1"/><stop offset=".141" style="stop-color:#d3d3d3;stop-opacity:1"/><stop offset=".156" style="stop-color:#d4d4d4;stop-opacity:1"/><stop offset=".172" style="stop-color:#d4d4d4;stop-opacity:1"/><stop offset=".188" style="stop-color:#d5d5d5;stop-opacity:1"/><stop offset=".203" style="stop-color:#d6d6d6;stop-opacity:1"/><stop offset=".219" style="stop-color:#d7d7d7;stop-opacity:1"/><stop offset=".234" style="stop-color:#d8d8d8;stop-opacity:1"/><stop offset=".25" style="stop-color:#d8d8d8;stop-opacity:1"/><stop offset=".266" style="stop-color:#d9d9d9;stop-opacity:1"/><stop offset=".281" style="stop-color:#dadada;stop-opacity:1"/><stop offset=".297" style="stop-color:#dbdbdb;stop-opacity:1"/><stop offset=".313" style="stop-color:#dcdcdc;stop-opacity:1"/><stop offset=".328" style="stop-color:#dcdcdc;stop-opacity:1"/><stop offset=".344" style="stop-color:#ddd;stop-opacity:1"/><stop offset=".359" style="stop-color:#dedede;stop-opacity:1"/><stop offset=".375" style="stop-color:#dfdfdf;stop-opacity:1"/><stop offset=".391" style="stop-color:#e0e0e0;stop-opacity:1"/><stop offset=".406" style="stop-color:#e0e0e0;stop-opacity:1"/><stop offset=".422" style="stop-color:#e1e1e1;stop-opacity:1"/><stop offset=".438" style="stop-color:#e2e2e2;stop-opacity:1"/><stop offset=".453" style="stop-color:#e3e3e3;stop-opacity:1"/><stop offset=".469" style="stop-color:#e4e4e4;stop-opacity:1"/><stop offset=".484" style="stop-color:#e4e4e4;stop-opacity:1"/><stop offset=".5" style="stop-color:#e5e5e5;stop-opacity:1"/><stop offset=".516" style="stop-color:#e6e6e6;stop-opacity:1"/><stop offset=".531" style="stop-color:#e7e7e7;stop-opacity:1"/><stop offset=".547" style="stop-color:#e7e7e7;stop-opacity:1"/><stop offset=".563" style="stop-color:#e8e8e8;stop-opacity:1"/><stop offset=".578" style="stop-color:#e9e9e9;stop-opacity:1"/><stop offset=".594" style="stop-color:#eaeaea;stop-opacity:1"/><stop offset=".609" style="stop-color:#ebebeb;stop-opacity:1"/><stop offset=".625" style="stop-color:#ebebeb;stop-opacity:1"/><stop offset=".641" style="stop-color:#ececec;stop-opacity:1"/><stop offset=".656" style="stop-color:#ededed;stop-opacity:1"/><stop offset=".672" style="stop-color:#eee;stop-opacity:1"/><stop offset=".688" style="stop-color:#efefef;stop-opacity:1"/><stop offset=".703" style="stop-color:#efefef;stop-opacity:1"/><stop offset=".719" style="stop-color:#f0f0f0;stop-opacity:1"/><stop offset=".734" style="stop-color:#f1f1f1;stop-opacity:1"/><stop offset=".75" style="stop-color:#f2f2f2;stop-opacity:1"/><stop offset=".766" style="stop-color:#f3f3f3;stop-opacity:1"/><stop offset=".781" style="stop-color:#f3f3f3;stop-opacity:1"/><stop offset=".797" style="stop-color:#f4f4f4;stop-opacity:1"/><stop offset=".813" style="stop-color:#f5f5f5;stop-opacity:1"/><stop offset=".828" style="stop-color:#f6f6f6;stop-opacity:1"/><stop offset=".844" style="stop-color:#f7f7f7;stop-opacity:1"/><stop offset=".859" style="stop-color:#f7f7f7;stop-opacity:1"/><stop offset=".875" style="stop-color:#f8f8f8;stop-opacity:1"/><stop offset=".891" style="stop-color:#f9f9f9;stop-opacity:1"/><stop offset=".906" style="stop-color:#fafafa;stop-opacity:1"/><stop offset=".922" style="stop-color:#fbfbfb;stop-opacity:1"/><stop offset=".938" style="stop-color:#fbfbfb;stop-opacity:1"/><stop offset=".953" style="stop-color:#fcfcfc;stop-opacity:1"/><stop offset=".969" style="stop-color:#fdfdfd;stop-opacity:1"/><stop offset=".984" style="stop-color:#fefefe;stop-opacity:1"/><stop offset="1" style="stop-color:#fff;stop-opacity:1"/></linearGradient><linearGradient id="C" gradientUnits="userSpaceOnUse" x1="0" y1="25.003" x2="0" y2="74.997" gradientTransform="matrix(.3402 0 0 -.3402 194.484 27.088)"><stop offset="0" style="stop-color:#ccc;stop-opacity:1"/><stop offset=".016" style="stop-color:#ccc;stop-opacity:1"/><stop offset=".031" style="stop-color:#cdcdcd;stop-opacity:1"/><stop offset=".047" style="stop-color:#cecece;stop-opacity:1"/><stop offset=".063" style="stop-color:#cfcfcf;stop-opacity:1"/><stop offset=".078" style="stop-color:#d0d0d0;stop-opacity:1"/><stop offset=".094" style="stop-color:#d0d0d0;stop-opacity:1"/><stop offset=".109" style="stop-color:#d1d1d1;stop-opacity:1"/><stop offset=".125" style="stop-color:#d2d2d2;stop-opacity:1"/><stop offset=".141" style="stop-color:#d3d3d3;stop-opacity:1"/><stop offset=".156" style="stop-color:#d4d4d4;stop-opacity:1"/><stop offset=".172" style="stop-color:#d4d4d4;stop-opacity:1"/><stop offset=".188" style="stop-color:#d5d5d5;stop-opacity:1"/><stop offset=".203" style="stop-color:#d6d6d6;stop-opacity:1"/><stop offset=".219" style="stop-color:#d7d7d7;stop-opacity:1"/><stop offset=".234" style="stop-color:#d8d8d8;stop-opacity:1"/><stop offset=".25" style="stop-color:#d8d8d8;stop-opacity:1"/><stop offset=".266" style="stop-color:#d9d9d9;stop-opacity:1"/><stop offset=".281" style="stop-color:#dadada;stop-opacity:1"/><stop offset=".297" style="stop-color:#dbdbdb;stop-opacity:1"/><stop offset=".313" style="stop-color:#dcdcdc;stop-opacity:1"/><stop offset=".328" style="stop-color:#dcdcdc;stop-opacity:1"/><stop offset=".344" style="stop-color:#ddd;stop-opacity:1"/><stop offset=".359" style="stop-color:#dedede;stop-opacity:1"/><stop offset=".375" style="stop-color:#dfdfdf;stop-opacity:1"/><stop offset=".391" style="stop-color:#e0e0e0;stop-opacity:1"/><stop offset=".406" style="stop-color:#e0e0e0;stop-opacity:1"/><stop offset=".422" style="stop-color:#e1e1e1;stop-opacity:1"/><stop offset=".438" style="stop-color:#e2e2e2;stop-opacity:1"/><stop offset=".453" style="stop-color:#e3e3e3;stop-opacity:1"/><stop offset=".469" style="stop-color:#e4e4e4;stop-opacity:1"/><stop offset=".484" style="stop-color:#e4e4e4;stop-opacity:1"/><stop offset=".5" style="stop-color:#e5e5e5;stop-opacity:1"/><stop offset=".516" style="stop-color:#e6e6e6;stop-opacity:1"/><stop offset=".531" style="stop-color:#e7e7e7;stop-opacity:1"/><stop offset=".547" style="stop-color:#e7e7e7;stop-opacity:1"/><stop offset=".563" style="stop-color:#e8e8e8;stop-opacity:1"/><stop offset=".578" style="stop-color:#e9e9e9;stop-opacity:1"/><stop offset=".594" style="stop-color:#eaeaea;stop-opacity:1"/><stop offset=".609" style="stop-color:#ebebeb;stop-opacity:1"/><stop offset=".625" style="stop-color:#ebebeb;stop-opacity:1"/><stop offset=".641" style="stop-color:#ececec;stop-opacity:1"/><stop offset=".656" style="stop-color:#ededed;stop-opacity:1"/><stop offset=".672" style="stop-color:#eee;stop-opacity:1"/><stop offset=".688" style="stop-color:#efefef;stop-opacity:1"/><stop offset=".703" style="stop-color:#efefef;stop-opacity:1"/><stop offset=".719" style="stop-color:#f0f0f0;stop-opacity:1"/><stop offset=".734" style="stop-color:#f1f1f1;stop-opacity:1"/><stop offset=".75" style="stop-color:#f2f2f2;stop-opacity:1"/><stop offset=".766" style="stop-color:#f3f3f3;stop-opacity:1"/><stop offset=".781" style="stop-color:#f3f3f3;stop-opacity:1"/><stop offset=".797" style="stop-color:#f4f4f4;stop-opacity:1"/><stop offset=".813" style="stop-color:#f5f5f5;stop-opacity:1"/><stop offset=".828" style="stop-color:#f6f6f6;stop-opacity:1"/><stop offset=".844" style="stop-color:#f7f7f7;stop-opacity:1"/><stop offset=".859" style="stop-color:#f7f7f7;stop-opacity:1"/><stop offset=".875" style="stop-color:#f8f8f8;stop-opacity:1"/><stop offset=".891" style="stop-color:#f9f9f9;stop-opacity:1"/><stop offset=".906" style="stop-color:#fafafa;stop-opacity:1"/><stop offset=".922" style="stop-color:#fbfbfb;stop-opacity:1"/><stop offset=".938" style="stop-color:#fbfbfb;stop-opacity:1"/><stop offset=".953" style="stop-color:#fcfcfc;stop-opacity:1"/><stop offset=".969" style="stop-color:#fdfdfd;stop-opacity:1"/><stop offset=".984" style="stop-color:#fefefe;stop-opacity:1"/><stop offset="1" style="stop-color:#fff;stop-opacity:1"/></linearGradient><linearGradient id="G" gradientUnits="userSpaceOnUse" x1="0" y1="25.003" x2="0" y2="74.997" gradientTransform="matrix(.3402 0 0 -.3402 194.484 83.782)"><stop offset="0" style="stop-color:#ccc;stop-opacity:1"/><stop offset=".016" style="stop-color:#ccc;stop-opacity:1"/><stop offset=".031" style="stop-color:#cdcdcd;stop-opacity:1"/><stop offset=".047" style="stop-color:#cecece;stop-opacity:1"/><stop offset=".063" style="stop-color:#cfcfcf;stop-opacity:1"/><stop offset=".078" style="stop-color:#d0d0d0;stop-opacity:1"/><stop offset=".094" style="stop-color:#d0d0d0;stop-opacity:1"/><stop offset=".109" style="stop-color:#d1d1d1;stop-opacity:1"/><stop offset=".125" style="stop-color:#d2d2d2;stop-opacity:1"/><stop offset=".141" style="stop-color:#d3d3d3;stop-opacity:1"/><stop offset=".156" style="stop-color:#d4d4d4;stop-opacity:1"/><stop offset=".172" style="stop-color:#d4d4d4;stop-opacity:1"/><stop offset=".188" style="stop-color:#d5d5d5;stop-opacity:1"/><stop offset=".203" style="stop-color:#d6d6d6;stop-opacity:1"/><stop offset=".219" style="stop-color:#d7d7d7;stop-opacity:1"/><stop offset=".234" style="stop-color:#d8d8d8;stop-opacity:1"/><stop offset=".25" style="stop-color:#d8d8d8;stop-opacity:1"/><stop offset=".266" style="stop-color:#d9d9d9;stop-opacity:1"/><stop offset=".281" style="stop-color:#dadada;stop-opacity:1"/><stop offset=".297" style="stop-color:#dbdbdb;stop-opacity:1"/><stop offset=".313" style="stop-color:#dcdcdc;stop-opacity:1"/><stop offset=".328" style="stop-color:#dcdcdc;stop-opacity:1"/><stop offset=".344" style="stop-color:#ddd;stop-opacity:1"/><stop offset=".359" style="stop-color:#dedede;stop-opacity:1"/><stop offset=".375" style="stop-color:#dfdfdf;stop-opacity:1"/><stop offset=".391" style="stop-color:#e0e0e0;stop-opacity:1"/><stop offset=".406" style="stop-color:#e0e0e0;stop-opacity:1"/><stop offset=".422" style="stop-color:#e1e1e1;stop-opacity:1"/><stop offset=".438" style="stop-color:#e2e2e2;stop-opacity:1"/><stop offset=".453" style="stop-color:#e3e3e3;stop-opacity:1"/><stop offset=".469" style="stop-color:#e4e4e4;stop-opacity:1"/><stop offset=".484" style="stop-color:#e4e4e4;stop-opacity:1"/><stop offset=".5" style="stop-color:#e5e5e5;stop-opacity:1"/><stop offset=".516" style="stop-color:#e6e6e6;stop-opacity:1"/><stop offset=".531" style="stop-color:#e7e7e7;stop-opacity:1"/><stop offset=".547" style="stop-color:#e7e7e7;stop-opacity:1"/><stop offset=".563" style="stop-color:#e8e8e8;stop-opacity:1"/><stop offset=".578" style="stop-color:#e9e9e9;stop-opacity:1"/><stop offset=".594" style="stop-color:#eaeaea;stop-opacity:1"/><stop offset=".609" style="stop-color:#ebebeb;stop-opacity:1"/><stop offset=".625" style="stop-color:#ebebeb;stop-opacity:1"/><stop offset=".641" style="stop-color:#ececec;stop-opacity:1"/><stop offset=".656" style="stop-color:#ededed;stop-opacity:1"/><stop offset=".672" style="stop-color:#eee;stop-opacity:1"/><stop offset=".688" style="stop-color:#efefef;stop-opacity:1"/><stop offset=".703" style="stop-color:#efefef;stop-opacity:1"/><stop offset=".719" style="stop-color:#f0f0f0;stop-opacity:1"/><stop offset=".734" style="stop-color:#f1f1f1;stop-opacity:1"/><stop offset=".75" style="stop-color:#f2f2f2;stop-opacity:1"/><stop offset=".766" style="stop-color:#f3f3f3;stop-opacity:1"/><stop offset=".781" style="stop-color:#f3f3f3;stop-opacity:1"/><stop offset=".797" style="stop-color:#f4f4f4;stop-opacity:1"/><stop offset=".813" style="stop-color:#f5f5f5;stop-opacity:1"/><stop offset=".828" style="stop-color:#f6f6f6;stop-opacity:1"/><stop offset=".844" style="stop-color:#f7f7f7;stop-opacity:1"/><stop offset=".859" style="stop-color:#f7f7f7;stop-opacity:1"/><stop offset=".875" style="stop-color:#f8f8f8;stop-opacity:1"/><stop offset=".891" style="stop-color:#f9f9f9;stop-opacity:1"/><stop offset=".906" style="stop-color:#fafafa;stop-opacity:1"/><stop offset=".922" style="stop-color:#fbfbfb;stop-opacity:1"/><stop offset=".938" style="stop-color:#fbfbfb;stop-opacity:1"/><stop offset=".953" style="stop-color:#fcfcfc;stop-opacity:1"/><stop offset=".969" style="stop-color:#fdfdfd;stop-opacity:1"/><stop offset=".984" style="stop-color:#fefefe;stop-opacity:1"/><stop offset="1" style="stop-color:#fff;stop-opacity:1"/></linearGradient><linearGradient id="K" gradientUnits="userSpaceOnUse" x1="0" y1="25.003" x2="0" y2="74.997" gradientTransform="matrix(1.76773 0 0 -.3402 186.958 27.088)"><stop offset="0" style="stop-color:#e5cccc;stop-opacity:1"/><stop offset=".016" style="stop-color:#e6cccc;stop-opacity:1"/><stop offset=".031" style="stop-color:#e6cdcd;stop-opacity:1"/><stop offset=".047" style="stop-color:#e6cece;stop-opacity:1"/><stop offset=".063" style="stop-color:#e7cfcf;stop-opacity:1"/><stop offset=".078" style="stop-color:#e7d0d0;stop-opacity:1"/><stop offset=".094" style="stop-color:#e8d0d0;stop-opacity:1"/><stop offset=".109" style="stop-color:#e8d1d1;stop-opacity:1"/><stop offset=".125" style="stop-color:#e8d2d2;stop-opacity:1"/><stop offset=".141" style="stop-color:#e9d3d3;stop-opacity:1"/><stop offset=".156" style="stop-color:#e9d4d4;stop-opacity:1"/><stop offset=".172" style="stop-color:#ead4d4;stop-opacity:1"/><stop offset=".188" style="stop-color:#ead5d5;stop-opacity:1"/><stop offset=".203" style="stop-color:#ead6d6;stop-opacity:1"/><stop offset=".219" style="stop-color:#ebd7d7;stop-opacity:1"/><stop offset=".234" style="stop-color:#ebd8d8;stop-opacity:1"/><stop offset=".25" style="stop-color:#ecd8d8;stop-opacity:1"/><stop offset=".266" style="stop-color:#ecd9d9;stop-opacity:1"/><stop offset=".281" style="stop-color:#ecdada;stop-opacity:1"/><stop offset=".297" style="stop-color:#eddbdb;stop-opacity:1"/><stop offset=".313" style="stop-color:#eddcdc;stop-opacity:1"/><stop offset=".328" style="stop-color:#eedcdc;stop-opacity:1"/><stop offset=".344" style="stop-color:#edd;stop-opacity:1"/><stop offset=".359" style="stop-color:#eedede;stop-opacity:1"/><stop offset=".375" style="stop-color:#efdfdf;stop-opacity:1"/><stop offset=".391" style="stop-color:#efe0e0;stop-opacity:1"/><stop offset=".406" style="stop-color:#f0e0e0;stop-opacity:1"/><stop offset=".422" style="stop-color:#f0e1e1;stop-opacity:1"/><stop offset=".438" style="stop-color:#f0e2e2;stop-opacity:1"/><stop offset=".453" style="stop-color:#f1e3e3;stop-opacity:1"/><stop offset=".469" style="stop-color:#f1e4e4;stop-opacity:1"/><stop offset=".484" style="stop-color:#f2e4e4;stop-opacity:1"/><stop offset=".5" style="stop-color:#f2e5e5;stop-opacity:1"/><stop offset=".516" style="stop-color:#f2e6e6;stop-opacity:1"/><stop offset=".531" style="stop-color:#f3e7e7;stop-opacity:1"/><stop offset=".547" style="stop-color:#f3e7e7;stop-opacity:1"/><stop offset=".563" style="stop-color:#f4e8e8;stop-opacity:1"/><stop offset=".578" style="stop-color:#f4e9e9;stop-opacity:1"/><stop offset=".594" style="stop-color:#f4eaea;stop-opacity:1"/><stop offset=".609" style="stop-color:#f5ebeb;stop-opacity:1"/><stop offset=".625" style="stop-color:#f5ebeb;stop-opacity:1"/><stop offset=".641" style="stop-color:#f6ecec;stop-opacity:1"/><stop offset=".656" style="stop-color:#f6eded;stop-opacity:1"/><stop offset=".672" style="stop-color:#f6eeee;stop-opacity:1"/><stop offset=".688" style="stop-color:#f7efef;stop-opacity:1"/><stop offset=".703" style="stop-color:#f7efef;stop-opacity:1"/><stop offset=".719" style="stop-color:#f8f0f0;stop-opacity:1"/><stop offset=".734" style="stop-color:#f8f1f1;stop-opacity:1"/><stop offset=".75" style="stop-color:#f8f2f2;stop-opacity:1"/><stop offset=".766" style="stop-color:#f9f3f3;stop-opacity:1"/><stop offset=".781" style="stop-color:#f9f3f3;stop-opacity:1"/><stop offset=".797" style="stop-color:#faf4f4;stop-opacity:1"/><stop offset=".813" style="stop-color:#faf5f5;stop-opacity:1"/><stop offset=".828" style="stop-color:#faf6f6;stop-opacity:1"/><stop offset=".844" style="stop-color:#fbf7f7;stop-opacity:1"/><stop offset=".859" style="stop-color:#fbf7f7;stop-opacity:1"/><stop offset=".875" style="stop-color:#fcf8f8;stop-opacity:1"/><stop offset=".891" style="stop-color:#fcf9f9;stop-opacity:1"/><stop offset=".906" style="stop-color:#fcfafa;stop-opacity:1"/><stop offset=".922" style="stop-color:#fdfbfb;stop-opacity:1"/><stop offset=".938" style="stop-color:#fdfbfb;stop-opacity:1"/><stop offset=".953" style="stop-color:#fefcfc;stop-opacity:1"/><stop offset=".969" style="stop-color:#fefdfd;stop-opacity:1"/><stop offset=".984" style="stop-color:#fefefe;stop-opacity:1"/><stop offset="1" style="stop-color:#fff;stop-opacity:1"/></linearGradient></defs><g clip-path="url(#a)"><path style="stroke:none;fill-rule:nonzero;fill:url(#b)" d="M1.309 18.582V1.574h88.375v17.008Zm0 0"/></g><path style="fill:none;stroke-width:1.19553;stroke-linecap:butt;stroke-linejoin:miter;stroke:#bf8080;stroke-opacity:1;stroke-miterlimit:10" d="M.599-8.504h88.375V8.504H.599Zm0 0" transform="matrix(1 0 0 -1 .71 10.078)"/><g style="fill:#000;fill-opacity:1"><use xlink:href="#c" x="4.628" y="12.842"/><use xlink:href="#d" x="10.815" y="12.842"/><use xlink:href="#e" x="17.291" y="12.842"/><use xlink:href="#f" x="22.142" y="12.842"/><use xlink:href="#g" x="25.689" y="12.842"/><use xlink:href="#d" x="30.989" y="12.842"/><use xlink:href="#h" x="37.465" y="12.842"/></g><use xlink:href="#i" x="42.177" y="12.842" style="fill:#000;fill-opacity:1"/><g style="fill:#000;fill-opacity:1"><use xlink:href="#f" x="52.19" y="12.842"/><use xlink:href="#d" x="55.736" y="12.842"/><use xlink:href="#j" x="62.212" y="12.842"/><use xlink:href="#h" x="66.048" y="12.842"/></g><g style="fill:#000;fill-opacity:1"><use xlink:href="#g" x="70.76" y="12.842"/><use xlink:href="#h" x="76.06" y="12.842"/><use xlink:href="#k" x="81.36" y="12.842"/></g><g clip-path="url(#l)"><g clip-path="url(#m)"><path style="stroke:none;fill-rule:nonzero;fill:url(#n)" d="M100.84 18.582V1.574h17.012v17.008Zm0 0"/></g></g><path style="fill:none;stroke-width:1.19553;stroke-linecap:butt;stroke-linejoin:miter;stroke:gray;stroke-opacity:1;stroke-miterlimit:10" d="M108.638 8.504A8.506 8.506 0 0 0 117.142 0a8.506 8.506 0 0 0-8.504-8.504c-4.7 0-8.508 3.809-8.508 8.504 0 4.695 3.808 8.504 8.508 8.504Zm0 0" transform="matrix(1 0 0 -1 .71 10.078)"/><use xlink:href="#o" x="106.729" y="12.842" style="fill:#000;fill-opacity:1"/><path style="fill:none;stroke-width:.3985;stroke-linecap:butt;stroke-linejoin:miter;stroke:#000;stroke-opacity:1;stroke-miterlimit:10" d="M89.571 0h9.563" transform="matrix(1 0 0 -1 .71 10.078)"/><path style="fill:none;stroke-width:.3985;stroke-linecap:round;stroke-linejoin:round;stroke:#000;stroke-opacity:1;stroke-miterlimit:10" d="M-2.072 2.39C-1.693.957-.85.277-.002 0c-.847-.277-1.691-.957-2.07-2.39" transform="matrix(1 0 0 -1 100.045 10.078)"/><g clip-path="url(#p)"><g clip-path="url(#q)"><path style="stroke:none;fill-rule:nonzero;fill:url(#r)" d="M129.008 18.582V1.574h34.656v17.008Zm0 0"/></g></g><path style="fill:none;stroke-width:1.19553;stroke-linecap:butt;stroke-linejoin:miter;stroke:gray;stroke-opacity:1;stroke-miterlimit:10" d="M145.626 8.504h8.824c4.7 0 8.504-3.809 8.504-8.504a8.503 8.503 0 0 0-8.504-8.504h-17.648A8.506 8.506 0 0 0 128.298 0a8.506 8.506 0 0 0 8.504 8.504Zm0 0" transform="matrix(1 0 0 -1 .71 10.078)"/><g style="fill:#000;fill-opacity:1"><use xlink:href="#s" x="133.259" y="12.842"/><use xlink:href="#t" x="138.489" y="12.842"/><use xlink:href="#u" x="143.72" y="12.842"/><use xlink:href="#t" x="148.95" y="12.842"/><use xlink:href="#v" x="154.181" y="12.842"/></g><path style="fill:none;stroke-width:.3985;stroke-linecap:butt;stroke-linejoin:miter;stroke:#000;stroke-opacity:1;stroke-miterlimit:10" d="M117.74 0h9.562" transform="matrix(1 0 0 -1 .71 10.078)"/><path style="fill:none;stroke-width:.3985;stroke-linecap:round;stroke-linejoin:round;stroke:#000;stroke-opacity:1;stroke-miterlimit:10" d="M-2.07 2.39C-1.695.957-.852.277 0 0c-.852-.277-1.695-.957-2.07-2.39" transform="matrix(1 0 0 -1 128.211 10.078)"/><g clip-path="url(#w)"><g clip-path="url(#x)"><path style="stroke:none;fill-rule:nonzero;fill:url(#y)" d="M174.824 18.582V1.574h17.008v17.008Zm0 0"/></g></g><path style="fill:none;stroke-width:1.19553;stroke-linecap:butt;stroke-linejoin:miter;stroke:gray;stroke-opacity:1;stroke-miterlimit:10" d="M182.618 8.504A8.506 8.506 0 0 0 191.122 0a8.506 8.506 0 0 0-8.504-8.504A8.506 8.506 0 0 0 174.114 0a8.506 8.506 0 0 0 8.504 8.504Zm0 0" transform="matrix(1 0 0 -1 .71 10.078)"/><use xlink:href="#z" x="180.71" y="12.842" style="fill:#000;fill-opacity:1"/><path style="fill:none;stroke-width:.3985;stroke-linecap:butt;stroke-linejoin:miter;stroke:#000;stroke-opacity:1;stroke-miterlimit:10" d="M163.552 0h9.566" transform="matrix(1 0 0 -1 .71 10.078)"/><path style="fill:none;stroke-width:.3985;stroke-linecap:round;stroke-linejoin:round;stroke:#000;stroke-opacity:1;stroke-miterlimit:10" d="M-2.074 2.39C-1.694.957-.85.277 0 0-.85-.277-1.695-.957-2.074-2.39" transform="matrix(1 0 0 -1 174.027 10.078)"/><g clip-path="url(#A)"><g clip-path="url(#B)"><path style="stroke:none;fill-rule:nonzero;fill:url(#C)" d="M202.992 18.582V1.574H220v17.008Zm0 0"/></g></g><path style="fill:none;stroke-width:1.19553;stroke-linecap:butt;stroke-linejoin:miter;stroke:gray;stroke-opacity:1;stroke-miterlimit:10" d="M210.786 8.504A8.506 8.506 0 0 0 219.29 0a8.506 8.506 0 0 0-8.504-8.504A8.503 8.503 0 0 0 202.282 0a8.503 8.503 0 0 0 8.504 8.504Zm0 0" transform="matrix(1 0 0 -1 .71 10.078)"/><use xlink:href="#D" x="208.876" y="12.842" style="fill:#000;fill-opacity:1"/><g clip-path="url(#E)"><g clip-path="url(#F)"><path style="stroke:none;fill-rule:nonzero;fill:url(#G)" d="M202.992 75.277V58.27H220v17.007Zm0 0"/></g></g><g clip-path="url(#H)"><path style="fill:none;stroke-width:1.19553;stroke-linecap:butt;stroke-linejoin:miter;stroke:gray;stroke-opacity:1;stroke-miterlimit:10" d="M210.786-48.192a8.503 8.503 0 0 0 8.504-8.503 8.506 8.506 0 0 0-8.504-8.504 8.503 8.503 0 0 0-8.504 8.504 8.5 8.5 0 0 0 8.504 8.503Zm0 0" transform="matrix(1 0 0 -1 .71 10.078)"/></g><use xlink:href="#I" x="208.876" y="69.535" style="fill:#000;fill-opacity:1"/><path style="fill:none;stroke-width:.3985;stroke-linecap:butt;stroke-linejoin:miter;stroke:#000;stroke-opacity:1;stroke-miterlimit:10" d="M191.72 0h9.562" transform="matrix(1 0 0 -1 .71 10.078)"/><path style="fill:none;stroke-width:.3985;stroke-linecap:round;stroke-linejoin:round;stroke:#000;stroke-opacity:1;stroke-miterlimit:10" d="M-2.072 2.39C-1.693.957-.85.277-.002 0c-.848-.277-1.691-.957-2.07-2.39" transform="matrix(1 0 0 -1 202.193 10.078)"/><path style="fill:none;stroke-width:.3985;stroke-linecap:butt;stroke-linejoin:miter;stroke:#000;stroke-opacity:1;stroke-miterlimit:10" d="m187.696-7.55 13.766-20.466" transform="matrix(1 0 0 -1 .71 10.078)"/><path style="fill:none;stroke-width:.3985;stroke-linecap:round;stroke-linejoin:round;stroke:#000;stroke-opacity:1;stroke-miterlimit:10" d="M-2.07 2.39C-1.695.957-.85.28-.002 0c-.849-.28-1.693-.955-2.07-2.392" transform="matrix(.55804 .82977 .82977 -.55804 202.281 38.26)"/><path style="fill:none;stroke-width:.3985;stroke-linecap:butt;stroke-linejoin:miter;stroke:#000;stroke-opacity:1;stroke-miterlimit:10" d="m186.669-8.152 19.89-40.036" transform="matrix(1 0 0 -1 .71 10.078)"/><path style="fill:none;stroke-width:.3985;stroke-linecap:round;stroke-linejoin:round;stroke:#000;stroke-opacity:1;stroke-miterlimit:10" d="M-2.072 2.39C-1.693.958-.85.277-.002 0c-.85-.28-1.691-.957-2.069-2.392" transform="matrix(.4449 .89551 .89551 -.4449 207.356 58.442)"/><g clip-path="url(#J)"><path style="stroke:none;fill-rule:nonzero;fill:url(#K)" d="M231.156 18.582V1.574h88.375v17.008Zm0 0"/></g><path style="fill:none;stroke-width:1.19553;stroke-linecap:butt;stroke-linejoin:miter;stroke:#bf8080;stroke-opacity:1;stroke-miterlimit:10" d="M230.446-8.504h88.375V8.504h-88.375Zm0 0" transform="matrix(1 0 0 -1 .71 10.078)"/><g style="fill:#000;fill-opacity:1"><use xlink:href="#c" x="234.474" y="12.842"/><use xlink:href="#d" x="240.661" y="12.842"/><use xlink:href="#e" x="247.137" y="12.842"/><use xlink:href="#f" x="251.988" y="12.842"/><use xlink:href="#g" x="255.535" y="12.842"/><use xlink:href="#d" x="260.835" y="12.842"/><use xlink:href="#h" x="267.311" y="12.842"/></g><use xlink:href="#i" x="272.023" y="12.842" style="fill:#000;fill-opacity:1"/><g style="fill:#000;fill-opacity:1"><use xlink:href="#f" x="282.036" y="12.842"/><use xlink:href="#d" x="285.582" y="12.842"/><use xlink:href="#j" x="292.058" y="12.842"/><use xlink:href="#h" x="295.894" y="12.842"/></g><g style="fill:#000;fill-opacity:1"><use xlink:href="#g" x="300.606" y="12.842"/><use xlink:href="#h" x="305.906" y="12.842"/><use xlink:href="#k" x="311.206" y="12.842"/></g><path style="fill:none;stroke-width:.3985;stroke-linecap:butt;stroke-linejoin:miter;stroke:#000;stroke-opacity:1;stroke-miterlimit:10" d="M219.888 0h9.562" transform="matrix(1 0 0 -1 .71 10.078)"/><path style="fill:none;stroke-width:.3985;stroke-linecap:round;stroke-linejoin:round;stroke:#000;stroke-opacity:1;stroke-miterlimit:10" d="M-2.07 2.39C-1.697.957-.853.277 0 0c-.852-.277-1.696-.957-2.07-2.39" transform="matrix(1 0 0 -1 230.36 10.078)"/><path style="fill:none;stroke-width:.3985;stroke-linecap:butt;stroke-linejoin:miter;stroke:#000;stroke-opacity:1;stroke-miterlimit:10" d="m201.68-28.348 49.16 19.102" transform="matrix(1 0 0 -1 .71 10.078)"/><path style="fill:none;stroke-width:.3985;stroke-linecap:round;stroke-linejoin:round;stroke:#000;stroke-opacity:1;stroke-miterlimit:10" d="M-2.072 2.391C-1.694.958-.852.278.001.001c-.851-.28-1.693-.96-2.074-2.391" transform="scale(.99994 -.99994) rotate(21.232 177.237 661.96)"/><path style="fill:none;stroke-width:.3985;stroke-linecap:butt;stroke-linejoin:miter;stroke:#000;stroke-opacity:1;stroke-miterlimit:10" d="m217.59-50.652 46.5 41.285" transform="matrix(1 0 0 -1 .71 10.078)"/><path style="fill:none;stroke-width:.3985;stroke-linecap:round;stroke-linejoin:round;stroke:#000;stroke-opacity:1;stroke-miterlimit:10" d="M-2.072 2.393C-1.694.954-.851.279-.002.001-.85-.28-1.692-.958-2.072-2.392" transform="scale(.99994 -.99994) rotate(41.599 157.905 339.113)"/></svg>