<svg xmlns="http://www.w3.org/2000/svg" width="118.86" height="99.963" viewBox="0 0 89.145 74.972" version="1.2"><path style="fill:none;stroke-width:.19925;stroke-linecap:butt;stroke-linejoin:miter;stroke:gray;stroke-opacity:1;stroke-miterlimit:10" d="M.002.002H85.04M0 28.345h85.04M0 56.685h85.04M0 .002v56.691M28.346.002v56.691M56.693.002v56.691M85.03.002v56.691" transform="matrix(1 0 0 -1 2.572 57.779)"/><path style="stroke:none;fill-rule:nonzero;fill:#000;fill-opacity:1" d="M32.91 71.953a1.993 1.993 0 1 0-3.983.002 1.993 1.993 0 0 0 3.983-.002Zm-.43-7.598c0-1.101-.89-1.996-1.992-1.996a1.994 1.994 0 0 0 0 3.989 1.993 1.993 0 0 0 1.992-1.993Zm-1.277-7.8a1.993 1.993 0 1 0-3.986.001 1.993 1.993 0 0 0 3.986-.001Zm-2.09-7.762a1.99 1.99 0 0 0-1.992-1.992 1.99 1.99 0 0 0-1.992 1.992 1.99 1.99 0 0 0 1.992 1.992 1.99 1.99 0 0 0 1.992-1.992Zm-2.832-7.488a1.994 1.994 0 0 0-3.988 0 1.994 1.994 0 0 0 3.988 0Zm-3.496-6.989a1.993 1.993 0 1 0-3.986.002 1.993 1.993 0 0 0 3.986-.002Zm-4.047-6.273a1.99 1.99 0 0 0-1.992-1.992 1.993 1.993 0 1 0 1.992 1.992Zm-4.476-5.371a1.994 1.994 0 0 0-3.988 0c0 1.098.894 1.992 1.996 1.992a1.996 1.996 0 0 0 1.992-1.992Zm-4.774-4.305a1.996 1.996 0 0 0-1.992-1.996 1.994 1.994 0 0 0 0 3.988 1.996 1.996 0 0 0 1.992-1.992Zm-4.922-3.11a1.996 1.996 0 0 0-1.992-1.991 1.996 1.996 0 0 0-1.996 1.992 1.994 1.994 0 0 0 3.988 0Zm0 0"/></svg>