<svg xmlns="http://www.w3.org/2000/svg" xmlns:xlink="http://www.w3.org/1999/xlink" width="93.679" height="142.197" viewBox="0 0 70.259 106.648" version="1.2"><defs><symbol overflow="visible" id="a"><path style="stroke:none" d="M4.922 0v-.469h-1.39v-5.734c0-.234 0-.328-.266-.328-.11 0-.125 0-.22.078-.765.562-1.796.562-2 .562H.845v.47h.203c.156 0 .703-.016 1.297-.204v5.156H.954V0c.437-.031 1.5-.031 1.984-.031s1.546 0 1.984.031Zm0 0"/></symbol><symbol overflow="visible" id="b"><path style="stroke:none" d="M5.156-2.219h-.468c-.032.203-.125.844-.266.906-.11.063-.86.063-1.016.063H1.937c.47-.39 1-.813 1.438-1.14 1.14-.844 1.781-1.313 1.781-2.25 0-1.157-1.047-1.891-2.437-1.891-1.219 0-2.156.625-2.156 1.515 0 .594.484.735.718.735C1.61-4.281 2-4.5 2-5c0-.516-.422-.672-.563-.719.282-.234.672-.343 1.032-.343.844 0 1.312.671 1.312 1.421 0 .688-.375 1.375-1.078 2.079l-2 2.046c-.14.11-.14.141-.14.344V0h4.28Zm0 0"/></symbol><symbol overflow="visible" id="c"><path style="stroke:none" d="M5.25-1.797c0-.547-.297-1.406-1.734-1.719.687-.203 1.406-.765 1.406-1.625 0-.765-.75-1.39-2.156-1.39-1.188 0-1.97.64-1.97 1.437 0 .422.313.703.688.703a.668.668 0 0 0 .704-.687c0-.578-.547-.688-.579-.703.344-.282.782-.36 1.094-.36.828 0 .86.641.86.97 0 .124-.016 1.437-1.047 1.5-.407.015-.438.015-.485.03-.094.016-.125.11-.125.172 0 .172.11.172.282.172h.437c1.094 0 1.094.985 1.094 1.5 0 .469 0 1.484-1.031 1.484-.266 0-.782-.046-1.266-.343C1.75-.75 2-1 2-1.406c0-.453-.313-.75-.75-.75-.422 0-.766.265-.766.765 0 .907.97 1.5 2.25 1.5 1.782 0 2.516-1 2.516-1.906Zm0 0"/></symbol><symbol overflow="visible" id="d"><path style="stroke:none" d="M4.766-1.172c0-.14-.141-.14-.235-.14-.187 0-.187.03-.25.156-.25.625-.734.812-1.234.812-1.39 0-1.39-1.453-1.39-1.922 0-.562 0-1.843 1.28-1.843.36 0 .516.015.657.046a.618.618 0 0 0-.203.47c0 .437.343.624.609.624.313 0 .64-.219.64-.625 0-.86-1.156-.922-1.734-.922C1.11-4.516.375-3.375.375-2.219.375-.89 1.313.062 2.844.062c1.625 0 1.922-1.156 1.922-1.234Zm0 0"/></symbol><symbol overflow="visible" id="e"><path style="stroke:none" d="M9.328 0v-.469h-.687v-2.578c0-1.031-.516-1.437-1.547-1.437-.907 0-1.422.5-1.688.953-.187-.922-1.11-.953-1.484-.953-.875 0-1.438.453-1.766 1.078v-1.078l-1.703.078v.468c.61 0 .688 0 .688.391v3.078H.453V0l1.25-.031L2.953 0v-.469h-.687v-2.078c0-1.094.875-1.578 1.5-1.578.328 0 .546.203.546.969V-.47h-.687V0l1.266-.031L6.14 0v-.469h-.688v-2.078c0-1.094.86-1.578 1.484-1.578.344 0 .563.203.563.969V-.47h-.688V0l1.25-.031Zm0 0"/></symbol></defs><path style="fill:none;stroke-width:.3985;stroke-linecap:butt;stroke-linejoin:miter;stroke:#000;stroke-opacity:1;stroke-miterlimit:10" d="M-33.93-52.125h67.859v104.25h-67.86Zm0 0" transform="matrix(1 0 0 -1 34.758 53.148)"/><path style="fill:none;stroke-width:.3985;stroke-linecap:butt;stroke-linejoin:miter;stroke:#000;stroke-opacity:1;stroke-miterlimit:10" d="M-11.914-6.638h23.828V6.639h-23.828Zm0 0" transform="matrix(1 0 0 -1 16.262 11.182)"/><g style="fill:#000;fill-opacity:1"><use xlink:href="#a" x="7.67" y="14.39"/><use xlink:href="#b" x="13.398" y="14.39"/><use xlink:href="#c" x="19.127" y="14.39"/></g><path style="fill:none;stroke-width:.3985;stroke-linecap:butt;stroke-linejoin:miter;stroke:#000;stroke-opacity:1;stroke-miterlimit:10" d="M-6.186-6.584H6.185V6.584h-12.37Zm0 0" transform="matrix(1 0 0 -1 40.486 11.182)"/><use xlink:href="#a" x="37.623" y="14.445" style="fill:#000;fill-opacity:1"/><path style="fill:none;stroke-width:.3985;stroke-linecap:butt;stroke-linejoin:miter;stroke:#000;stroke-opacity:1;stroke-miterlimit:10" d="M-6.187-6.584H6.184V6.584h-12.37Zm0 0" transform="matrix(1 0 0 -1 58.983 11.182)"/><use xlink:href="#a" x="56.12" y="14.445" style="fill:#000;fill-opacity:1"/><path style="fill:none;stroke-width:.3985;stroke-linecap:butt;stroke-linejoin:miter;stroke:#000;stroke-opacity:1;stroke-miterlimit:10" d="M-9.05-6.582H9.05V6.582H-9.051Zm0 0" transform="matrix(1 0 0 -1 16.262 53.148)"/><g style="fill:#000;fill-opacity:1"><use xlink:href="#a" x="10.534" y="56.411"/><use xlink:href="#b" x="16.262" y="56.411"/></g><path style="fill:none;stroke-width:.3985;stroke-linecap:butt;stroke-linejoin:miter;stroke:#000;stroke-opacity:1;stroke-miterlimit:10" d="M-9.049-6.582H9.049V6.582H-9.05Zm0 0" transform="matrix(1 0 0 -1 40.486 53.148)"/><g style="fill:#000;fill-opacity:1"><use xlink:href="#a" x="34.758" y="56.411"/><use xlink:href="#b" x="40.487" y="56.411"/></g><path style="fill:none;stroke-width:.3985;stroke-linecap:butt;stroke-linejoin:miter;stroke:#000;stroke-opacity:1;stroke-miterlimit:10" d="M-6.187-6.582H6.184V6.582h-12.37Zm0 0" transform="matrix(1 0 0 -1 58.983 53.148)"/><use xlink:href="#a" x="56.12" y="56.411" style="fill:#000;fill-opacity:1"/><path style="fill:none;stroke-width:.3985;stroke-linecap:butt;stroke-linejoin:miter;stroke:#000;stroke-opacity:1;stroke-miterlimit:10" d="M-6.183-6.584H6.184V6.584H-6.183Zm0 0" transform="matrix(1 0 0 -1 16.262 95.115)"/><use xlink:href="#a" x="13.398" y="98.377" style="fill:#000;fill-opacity:1"/><path style="fill:none;stroke-width:.3985;stroke-linecap:butt;stroke-linejoin:miter;stroke:#000;stroke-opacity:1;stroke-miterlimit:10" d="M-11.912-6.639h23.824V6.638h-23.824Zm0 0" transform="matrix(1 0 0 -1 40.486 95.115)"/><g style="fill:#000;fill-opacity:1"><use xlink:href="#a" x="31.895" y="98.323"/><use xlink:href="#b" x="37.623" y="98.323"/><use xlink:href="#c" x="43.352" y="98.323"/></g><path style="fill:none;stroke-width:.3985;stroke-linecap:butt;stroke-linejoin:miter;stroke:#000;stroke-opacity:1;stroke-miterlimit:10" d="M-6.187-6.584H6.184V6.584h-12.37Zm0 0" transform="matrix(1 0 0 -1 58.983 95.115)"/><use xlink:href="#a" x="56.12" y="98.377" style="fill:#000;fill-opacity:1"/><path style="fill:none;stroke-width:.79701;stroke-linecap:butt;stroke-linejoin:miter;stroke:red;stroke-opacity:1;stroke-miterlimit:10" d="M-18.497 34.332V7.578" transform="matrix(1 0 0 -1 34.758 53.148)"/><path style="fill:none;stroke-width:.79701;stroke-linecap:round;stroke-linejoin:round;stroke:red;stroke-opacity:1;stroke-miterlimit:10" d="M-2.552 3.11C-2.082 1.245-1.048.362 0 0c-1.047-.363-2.082-1.246-2.55-3.11" transform="matrix(0 -1 -1 0 16.262 18.417)"/><path style="fill:none;stroke-width:.79701;stroke-linecap:round;stroke-linejoin:round;stroke:red;stroke-opacity:1;stroke-miterlimit:10" d="M-2.549 3.11C-2.084 1.245-1.045.362.001 0c-1.046-.363-2.085-1.246-2.55-3.11" transform="matrix(0 1 1 0 16.262 45.967)"/><g style="fill:red;fill-opacity:1"><use xlink:href="#a" x="19.98" y="35.426"/><use xlink:href="#d" x="25.709" y="35.426"/><use xlink:href="#e" x="30.8" y="35.426"/></g></svg>