<svg xmlns="http://www.w3.org/2000/svg" width="59.931" height="41.019" viewBox="0 0 44.948 30.764" version="1.2"><defs><clipPath id="a"><path d="M0 0h44.922v30.645H0Zm0 0"/></clipPath></defs><path style="stroke:none;fill-rule:evenodd;fill:red;fill-opacity:1" d="M29.54 15.273c0-7.828-6.349-14.175-14.177-14.175-7.828 0-14.172 6.347-14.172 14.175 0 7.829 6.344 14.172 14.172 14.172S29.54 23.102 29.54 15.273Zm14.17 0c0-7.828-6.343-14.175-14.17-14.175-7.83 0-14.177 6.347-14.177 14.175 0 7.829 6.348 14.172 14.176 14.172s14.172-6.343 14.172-14.172Zm0 0"/><g clip-path="url(#a)"><path style="fill:none;stroke-width:.3985;stroke-linecap:butt;stroke-linejoin:miter;stroke:#000;stroke-opacity:1;stroke-miterlimit:10" d="M14.175-.001c0 7.828-6.348 14.175-14.176 14.175S-14.173 7.827-14.173 0c0-7.829 6.344-14.172 14.172-14.172S14.175-7.83 14.175-.001Zm14.172 0c0 7.828-6.344 14.175-14.172 14.175S0 7.827 0 0C0-7.83 6.347-14.173 14.175-14.173S28.347-7.83 28.347-.001Zm0 0" transform="matrix(1 0 0 -1 15.364 15.272)"/></g></svg>