<svg xmlns="http://www.w3.org/2000/svg" width="42.512" height="12.795" viewBox="0 0 31.884 9.596" version="1.2"><defs><clipPath id="a"><path d="M0 0h31.824v9.395H0Zm0 0"/></clipPath></defs><path style="fill:none;stroke-width:1.59404;stroke-linecap:butt;stroke-linejoin:miter;stroke:#000;stroke-opacity:1;stroke-miterlimit:10" d="M-.002 2.21h20.524" transform="matrix(1 0 0 -1 .951 6.804)"/><path style="stroke:none;fill-rule:nonzero;fill:#000;fill-opacity:1" d="M27.555 4.594c-.692-.192-3.653-1.262-5.352-2.426l-1.457 4.848c2.402-1.164 6.004-2.235 6.809-2.422Zm0 0"/><g clip-path="url(#a)"><path style="fill:none;stroke-width:1.59404;stroke-linecap:butt;stroke-linejoin:miter;stroke:#000;stroke-opacity:1;stroke-miterlimit:10" d="M6.08-.001C5.333.189 2.05 1.26.003 2.424l-.003-4.847C2.052-1.26 5.332-.19 6.08-.001Zm0 0" transform="matrix(1 0 .3 -1 21.474 4.592)"/></g></svg>