<svg xmlns="http://www.w3.org/2000/svg" xmlns:xlink="http://www.w3.org/1999/xlink" width="126.459" height="51.603" viewBox="0 0 94.844 38.702" version="1.2"><defs><symbol overflow="visible" id="a"><path style="stroke:none" d="M8.25 0v-.469h-.969L4.72-6.703c-.11-.25-.219-.25-.39-.25-.282 0-.329.078-.391.25l-2.47 6c-.062.156-.093.234-.843.234H.406V0l1.172-.031c.39 0 .938 0 1.313.031v-.469S2-.469 2-.594l.047-.125.5-1.203h2.672l.593 1.453H4.86V0c.391-.031 1.329-.031 1.766-.031.39 0 1.266 0 1.625.031ZM5.016-2.39H2.734l1.141-2.766Zm0 0"/></symbol><symbol overflow="visible" id="c"><path style="stroke:none" d="M7.5-1.86c0-.952-.844-1.624-2.031-1.702 1.078-.204 1.718-.797 1.718-1.563 0-.922-.875-1.719-2.468-1.719H.39v.469h1.078v5.906H.39V0h4.625C6.672 0 7.5-.875 7.5-1.86ZM5.766-5.124c0 .766-.47 1.39-1.438 1.39H2.766v-2.64h1.812c1.016 0 1.188.797 1.188 1.25Zm.28 3.266c0 .109 0 1.39-1.437 1.39H2.766v-2.906h1.937c.203 0 .672 0 1.016.422.328.422.328.984.328 1.094Zm0 0"/></symbol><clipPath id="b"><path d="M48 0h46.766v38.555H48Zm0 0"/></clipPath></defs><path style="fill:none;stroke-width:.3985;stroke-linecap:butt;stroke-linejoin:miter;stroke:#000;stroke-opacity:1;stroke-miterlimit:10" d="m-23.307-10.818 12.489 21.636h21.636L23.31-10.818Zm0 0" transform="matrix(1 0 0 -1 26.088 15.373)"/><use xlink:href="#a" x="21.759" y="18.85" style="fill:#000;fill-opacity:1"/><g clip-path="url(#b)"><path style="fill:none;stroke-width:.3985;stroke-linecap:butt;stroke-linejoin:miter;stroke:#000;stroke-opacity:1;stroke-miterlimit:10" d="M28.232-20.326V3.83L46.35 14.287 67.264 2.21Zm0 0" transform="matrix(1 0 0 -1 26.088 15.373)"/></g><use xlink:href="#c" x="64.533" y="18.79" style="fill:#000;fill-opacity:1"/><path style="stroke:none;fill-rule:nonzero;fill:red;fill-opacity:1" d="M10.29 15.371c0-.824-.669-1.492-1.497-1.492-.824 0-1.492.668-1.492 1.492a1.494 1.494 0 1 0 2.988 0Zm45.327 8.363c0-.824-.668-1.492-1.496-1.492-.824 0-1.492.668-1.492 1.492a1.494 1.494 0 1 0 2.988 0Zm0 0"/><path style="stroke:none;fill-rule:nonzero;fill:#00f;fill-opacity:1" d="M46.883 18.852c0-.829-.668-1.497-1.492-1.497a1.495 1.495 0 1 0 1.492 1.496Zm38.617-.063c0-.824-.668-1.492-1.492-1.492a1.495 1.495 0 1 0 0 2.988c.824 0 1.492-.668 1.492-1.496Zm0 0"/><path style="stroke:none;fill-rule:nonzero;fill:red;fill-opacity:1" d="M27.582 26.39a1.495 1.495 0 1 0-2.988 0c0 .825.668 1.493 1.496 1.493.824 0 1.492-.668 1.492-1.492Zm47.848-1.788a1.495 1.495 0 1 0-1.492 1.496c.824 0 1.492-.668 1.492-1.496Zm0 0"/><path style="stroke:none;fill-rule:nonzero;fill:#00f;fill-opacity:1" d="M27.582 4.352c0-.825-.668-1.493-1.492-1.493a1.494 1.494 0 1 0 1.492 1.492Zm42.52-1.286a1.494 1.494 0 1 0-2.99-.005 1.494 1.494 0 0 0 2.99.005Zm0 0"/><path style="stroke:none;fill-rule:nonzero;fill:red;fill-opacity:1" d="M3.93 26.39c0-.824-.672-1.495-1.496-1.495a1.495 1.495 0 0 0 0 2.988c.824 0 1.496-.668 1.496-1.492Zm51.687 9.653c0-.824-.668-1.496-1.496-1.496a1.495 1.495 0 1 0 1.496 1.496Zm0 0"/><path style="stroke:none;fill-rule:nonzero;fill:#00f;fill-opacity:1" d="M27.582 18.852a1.494 1.494 0 1 0-2.99-.005 1.494 1.494 0 0 0 2.99.005Zm42.52-.063c0-.824-.668-1.492-1.493-1.492a1.494 1.494 0 1 0 1.492 1.492Zm0 0"/></svg>