<svg xmlns="http://www.w3.org/2000/svg" xmlns:xlink="http://www.w3.org/1999/xlink" width="586.515" height="36.363" viewBox="0 0 439.886 27.272" version="1.2"><defs><symbol overflow="visible" id="a"><path style="stroke:none" d="m6.734-4.375-.312-2.406H.39v.468h1.078v5.844H.39V0c.375-.031 1.39-.031 1.828-.031.484 0 1.562 0 2.015.031v-.469H2.875v-2.687h.5c.969 0 1.047.422 1.047 1.156h.469v-2.797h-.47c0 .734-.077 1.172-1.046 1.172h-.5v-2.688h1.406c1.594 0 1.828.766 1.985 1.938Zm0 0"/></symbol><symbol overflow="visible" id="b"><path style="stroke:none" d="M4.922-1.172c0-.172-.188-.172-.234-.172-.172 0-.188.047-.25.203-.204.485-.782.797-1.422.797-1.407 0-1.422-1.328-1.422-1.828h3.015c.22 0 .313 0 .313-.265 0-.313-.063-1.047-.563-1.547-.359-.36-.89-.532-1.578-.532C1.187-4.516.312-3.484.312-2.25c0 1.344 1 2.313 2.61 2.313 1.578 0 2-1.063 2-1.235ZM3.984-2.5h-2.39c.015-.39.031-.813.234-1.14.266-.391.672-.516.953-.516 1.172 0 1.188 1.312 1.203 1.656Zm0 0"/></symbol><symbol overflow="visible" id="c"><path style="stroke:none" d="M5.984-2.219c0-1.328-.937-2.265-2.39-2.265-.719 0-1.219.28-1.453.484v-2.922l-1.766.078v.469c.61 0 .688 0 .688.39V0h.468c.157-.188.328-.375.485-.563.078.079.562.625 1.453.625 1.484 0 2.515-.906 2.515-2.28Zm-1.28 0c0 .469 0 1.016-.25 1.406-.298.407-.75.516-1.079.516-.688 0-1.078-.547-1.188-.687v-2.5c.282-.36.75-.641 1.297-.641 1.22 0 1.22 1.203 1.22 1.906Zm0 0"/></symbol><symbol overflow="visible" id="d"><path style="stroke:none" d="M4.406-3.672c0-.531-.531-.812-1.062-.812-.688 0-1.094.5-1.313 1.125v-1.125l-1.656.078v.468c.61 0 .688 0 .688.391v3.078H.375V0l1.25-.031C2-.031 2.641-.031 3 0v-.469h-.86v-1.75c0-.687.235-1.906 1.235-1.906 0 0-.188.172-.188.453 0 .406.329.61.61.61.297 0 .61-.204.61-.61Zm0 0"/></symbol><symbol overflow="visible" id="e"><path style="stroke:none" d="M6.125 0v-.469c-.61 0-.688 0-.688-.39v-3.625l-1.812.078v.468c.61 0 .688 0 .688.391v1.906c0 .813-.516 1.344-1.235 1.344-.781 0-.812-.25-.812-.797v-3.39l-1.813.078v.468c.61 0 .688 0 .688.391v2.328c0 1.063.796 1.282 1.796 1.282.25 0 .97 0 1.422-.782v.781Zm0 0"/></symbol><symbol overflow="visible" id="f"><path style="stroke:none" d="M5.516-.234c0-.235-.125-.235-.266-.235-.61-.015-.61-.14-.61-.375v-2.14c0-.891-.702-1.532-2.187-1.532-.562 0-1.781.047-1.781.922 0 .438.344.625.61.625.312 0 .624-.219.624-.625 0-.297-.187-.469-.218-.5a5.28 5.28 0 0 1 .718-.062c.75 0 1.11.422 1.11 1.172v.343c-.72.032-3.25.125-3.25 1.563C.266-.125 1.5.062 2.187.062c.797 0 1.266-.406 1.485-.828 0 .313 0 .766 1.047.766h.468c.204 0 .329 0 .329-.234Zm-2-1.157c0 .97-.922 1.094-1.172 1.094-.516 0-.906-.344-.906-.797 0-1.062 1.578-1.203 2.078-1.234Zm0 0"/></symbol><symbol overflow="visible" id="g"><path style="stroke:none" d="M5.781-3.953v-.469A12.55 12.55 0 0 1 5-4.39l-.906-.03v.468s.468 0 .468.11L4.5-3.72 3.36-1.266 2.093-3.953h.531v-.469l-1.234.031-1.125-.03v.468H.89L2.766 0 2.53.484C2.312.954 2 1.641 1.281 1.641c-.14 0-.156-.016-.234-.047.094-.032.312-.172.312-.532C1.36.734 1.125.5.781.5a.553.553 0 0 0-.562.578c0 .5.469.922 1.062.922.766 0 1.344-.625 1.625-1.188l2.14-4.562c.063-.14.095-.203.735-.203Zm0 0"/></symbol><symbol overflow="visible" id="h"><path style="stroke:none" d="M4.922 0v-.469h-1.39v-5.734c0-.234 0-.328-.266-.328-.11 0-.125 0-.22.078-.765.562-1.796.562-2 .562H.845v.47h.203c.156 0 .703-.016 1.297-.204v5.156H.954V0c.437-.031 1.5-.031 1.984-.031s1.546 0 1.984.031Zm0 0"/></symbol><symbol overflow="visible" id="i"><path style="stroke:none" d="M5.156-2.219h-.468c-.032.203-.125.844-.266.906-.11.063-.86.063-1.016.063H1.937c.47-.39 1-.813 1.438-1.14 1.14-.844 1.781-1.313 1.781-2.25 0-1.157-1.047-1.891-2.437-1.891-1.219 0-2.156.625-2.156 1.515 0 .594.484.735.718.735C1.61-4.281 2-4.5 2-5c0-.516-.422-.672-.563-.719.282-.234.672-.343 1.032-.343.844 0 1.312.671 1.312 1.421 0 .688-.375 1.375-1.078 2.079l-2 2.046c-.14.11-.14.141-.14.344V0h4.28Zm0 0"/></symbol><symbol overflow="visible" id="j"><path style="stroke:none" d="M5.25-1.797c0-.547-.297-1.406-1.734-1.719.687-.203 1.406-.765 1.406-1.625 0-.765-.75-1.39-2.156-1.39-1.188 0-1.97.64-1.97 1.437 0 .422.313.703.688.703a.668.668 0 0 0 .704-.687c0-.578-.547-.688-.579-.703.344-.282.782-.36 1.094-.36.828 0 .86.641.86.97 0 .124-.016 1.437-1.047 1.5-.407.015-.438.015-.485.03-.094.016-.125.11-.125.172 0 .172.11.172.282.172h.437c1.094 0 1.094.985 1.094 1.5 0 .469 0 1.484-1.031 1.484-.266 0-.782-.046-1.266-.343C1.75-.75 2-1 2-1.406c0-.453-.313-.75-.75-.75-.422 0-.766.265-.766.765 0 .907.97 1.5 2.25 1.5 1.782 0 2.516-1 2.516-1.906Zm0 0"/></symbol><symbol overflow="visible" id="k"><path style="stroke:none" d="M5.406 0v-.469h-.968v-1.094h.968v-.468h-.968V-6.22c0-.265-.016-.328-.297-.328-.22 0-.22.016-.344.172L.312-2.031v.469h2.876V-.47h-1.11V0c.375-.031 1.281-.031 1.703-.031.406 0 1.266 0 1.625.031Zm-2.11-2.031H.845L3.297-5.11Zm0 0"/></symbol><symbol overflow="visible" id="l"><path style="stroke:none" d="M5.156-2c0-1.156-.797-2.078-2.265-2.078-.282 0-.813.031-1.282.344v-1.313c.282.047.391.078.72.078 1.452 0 2.374-1.125 2.374-1.375 0-.078-.016-.187-.14-.187-.032 0-.032 0-.141.047a4.32 4.32 0 0 1-1.531.28c-.75 0-1.282-.202-1.547-.28-.094-.032-.094-.047-.125-.047-.14 0-.14.11-.14.265v2.922c0 .172 0 .297.218.297.125 0 .156-.031.219-.11.39-.468.921-.562 1.328-.562.89 0 .89.875.89 1.672 0 .735 0 1.735-1.187 1.735-.25 0-.875-.063-1.297-.625.36-.016.656-.266.656-.672 0-.532-.437-.672-.672-.672-.14 0-.671.094-.671.703 0 .844.78 1.687 2.015 1.687C4.172.11 5.156-.78 5.156-2Zm0 0"/></symbol><symbol overflow="visible" id="m"><path style="stroke:none" d="M5.25-2.047c0-1.39-1.016-2.125-2.219-2.125-.219 0-.781 0-1.203.766v-.188c0-1.14.219-1.562.281-1.719.25-.468.782-.828 1.391-.828.172 0 .516.032.75.266a.595.595 0 0 0-.547.61c0 .343.235.624.625.624s.625-.265.625-.64c0-.625-.422-1.25-1.469-1.25-1.359 0-3 .86-3 3.375 0 .781.079 1.578.5 2.265.47.766 1.22 1 1.922 1C4.281.11 5.25-.703 5.25-2.047Zm-1.36-.015c0 1 0 1.75-1.015 1.75-.516 0-.781-.391-.86-.563-.156-.313-.156-1.031-.156-1.219 0-1.25.532-1.719 1.079-1.719.953 0 .953.75.953 1.75Zm0 0"/></symbol><symbol overflow="visible" id="n"><path style="stroke:none" d="M5.563-6.422H3.53c-.234 0-1.703-.047-1.844-.094-.203-.03-.218-.125-.234-.218H.984l-.343 2.53h.468c.094-.765.22-.89.266-.905.11-.063.922-.063 1.094-.063H4.14c-.172.219-.36.422-.547.64-.953 1.126-1.672 2.47-1.672 3.938 0 .703.562.703.625.703.156 0 .625-.046.625-.703v-.469c0-.468.031-.953.094-1.421.093-.672.296-1.25.656-1.657l1.547-1.796c.093-.11.093-.141.093-.485Zm0 0"/></symbol><symbol overflow="visible" id="o"><path style="stroke:none" d="M5.25-1.86c0-1.077-.844-1.546-1.328-1.827.687-.36 1-.797 1-1.376 0-1.015-.906-1.468-2.047-1.468-1.375 0-2.078.797-2.078 1.75 0 .437.187 1.062.953 1.5C.922-2.906.484-2.344.484-1.61.484-.406 1.563.109 2.844.109 4.438.11 5.25-.766 5.25-1.859ZM4.172-5.046c0 .484-.25.813-.688 1.11l-1.5-.844c-.156-.078-.437-.25-.437-.594 0-.703.89-.766 1.297-.766.828 0 1.328.407 1.328 1.094Zm.219 3.734c0 .829-.938 1-1.516 1-.969 0-1.547-.515-1.547-1.296 0-.766.531-1.204.89-1.407l1.36.766c.438.25.813.453.813.938Zm0 0"/></symbol><symbol overflow="visible" id="p"><path style="stroke:none" d="M5.25-3.281c0-.672 0-3.25-2.375-3.25-1.406 0-2.39.812-2.39 2.14 0 1.375.984 2.125 2.203 2.125.359 0 .828-.062 1.203-.765v.219c0 .734-.094 1.312-.235 1.656-.172.39-.61.843-1.297.843-.171 0-.53-.03-.828-.218.11-.031.485-.172.485-.625 0-.344-.235-.625-.625-.625-.391 0-.625.265-.625.64 0 .688.515 1.25 1.609 1.25C3.672.11 5.25-.734 5.25-3.28Zm-1.375-.985c0 .625-.25 1.641-1.094 1.641-.953 0-.953-.75-.953-1.734 0-.985 0-1.782 1.078-1.782.578 0 .813.532.86.625.109.329.109.907.109 1.25Zm0 0"/></symbol><symbol overflow="visible" id="q"><path style="stroke:none" d="M5.281-3.188c0-.953-.015-3.343-2.422-3.343C.453-6.531.453-4.156.453-3.188c0 1 0 3.297 2.406 3.297 2.391 0 2.422-2.296 2.422-3.296ZM4-3.296c0 .563 0 1.469-.078 1.985-.14.921-.766 1.062-1.063 1.062-.359 0-.921-.219-1.046-.953-.094-.516-.094-1.547-.094-2.094 0-.719 0-1.375.078-1.89.125-.891.828-.985 1.062-.985.375 0 .782.188.97.625C4-5.172 4-4.109 4-3.297Zm0 0"/></symbol></defs><use xlink:href="#a" x="204.557" y="23.931" style="fill:#000;fill-opacity:1"/><g style="fill:#000;fill-opacity:1"><use xlink:href="#b" x="210.814" y="23.931"/><use xlink:href="#c" x="216.064" y="23.931"/><use xlink:href="#d" x="222.43" y="23.931"/><use xlink:href="#e" x="227.152" y="23.931"/><use xlink:href="#f" x="233.518" y="23.931"/><use xlink:href="#d" x="239.088" y="23.931"/><use xlink:href="#g" x="243.81" y="23.931"/></g><use xlink:href="#h" x=".106" y="7.343" style="fill:#000;fill-opacity:1"/><use xlink:href="#i" x="15.587" y="7.343" style="fill:#000;fill-opacity:1"/><use xlink:href="#j" x="31.069" y="7.343" style="fill:#000;fill-opacity:1"/><use xlink:href="#k" x="46.551" y="7.343" style="fill:#000;fill-opacity:1"/><use xlink:href="#l" x="62.033" y="7.343" style="fill:#000;fill-opacity:1"/><use xlink:href="#m" x="77.515" y="7.343" style="fill:#000;fill-opacity:1"/><use xlink:href="#n" x="92.997" y="7.343" style="fill:#000;fill-opacity:1"/><use xlink:href="#o" x="108.479" y="7.343" style="fill:#000;fill-opacity:1"/><use xlink:href="#p" x="123.961" y="7.343" style="fill:#000;fill-opacity:1"/><g style="fill:#000;fill-opacity:1"><use xlink:href="#h" x="133.715" y="7.343"/><use xlink:href="#q" x="139.444" y="7.343"/></g><g style="fill:#000;fill-opacity:1"><use xlink:href="#h" x="149.197" y="7.343"/><use xlink:href="#h" x="154.926" y="7.343"/></g><g style="fill:#000;fill-opacity:1"><use xlink:href="#h" x="164.678" y="7.343"/><use xlink:href="#i" x="170.407" y="7.343"/></g><g style="fill:#000;fill-opacity:1"><use xlink:href="#h" x="180.16" y="7.343"/><use xlink:href="#j" x="185.889" y="7.343"/></g><g style="fill:#000;fill-opacity:1"><use xlink:href="#h" x="195.642" y="7.343"/><use xlink:href="#k" x="201.371" y="7.343"/></g><g style="fill:#000;fill-opacity:1"><use xlink:href="#h" x="211.124" y="7.343"/><use xlink:href="#l" x="216.853" y="7.343"/></g><g style="fill:#000;fill-opacity:1"><use xlink:href="#h" x="226.606" y="7.343"/><use xlink:href="#m" x="232.335" y="7.343"/></g><g style="fill:#000;fill-opacity:1"><use xlink:href="#h" x="242.088" y="7.343"/><use xlink:href="#n" x="247.817" y="7.343"/></g><g style="fill:#000;fill-opacity:1"><use xlink:href="#h" x="257.57" y="7.343"/><use xlink:href="#o" x="263.299" y="7.343"/></g><g style="fill:#000;fill-opacity:1"><use xlink:href="#h" x="273.052" y="7.343"/><use xlink:href="#p" x="278.781" y="7.343"/></g><g style="fill:#000;fill-opacity:1"><use xlink:href="#i" x="288.534" y="7.343"/><use xlink:href="#q" x="294.263" y="7.343"/></g><g style="fill:#000;fill-opacity:1"><use xlink:href="#i" x="304.016" y="7.343"/><use xlink:href="#h" x="309.745" y="7.343"/></g><g style="fill:#000;fill-opacity:1"><use xlink:href="#i" x="319.498" y="7.343"/><use xlink:href="#i" x="325.227" y="7.343"/></g><g style="fill:#000;fill-opacity:1"><use xlink:href="#i" x="334.98" y="7.343"/><use xlink:href="#j" x="340.709" y="7.343"/></g><g style="fill:#000;fill-opacity:1"><use xlink:href="#i" x="350.462" y="7.343"/><use xlink:href="#k" x="356.191" y="7.343"/></g><g style="fill:#000;fill-opacity:1"><use xlink:href="#i" x="365.944" y="7.343"/><use xlink:href="#l" x="371.673" y="7.343"/></g><g style="fill:#000;fill-opacity:1"><use xlink:href="#i" x="381.426" y="7.343"/><use xlink:href="#m" x="387.155" y="7.343"/></g><g style="fill:#000;fill-opacity:1"><use xlink:href="#i" x="396.908" y="7.343"/><use xlink:href="#n" x="402.637" y="7.343"/></g><g style="fill:#000;fill-opacity:1"><use xlink:href="#i" x="412.39" y="7.343"/><use xlink:href="#o" x="418.119" y="7.343"/></g><g style="fill:#000;fill-opacity:1"><use xlink:href="#i" x="427.872" y="7.343"/><use xlink:href="#p" x="433.601" y="7.343"/></g></svg>