<svg xmlns="http://www.w3.org/2000/svg" xmlns:xlink="http://www.w3.org/1999/xlink" width="157.431" height="266.445" viewBox="0 0 118.073 199.834" version="1.2"><defs><symbol overflow="visible" id="b"><path style="stroke:none" d="M5.984-2.219c0-1.328-.937-2.265-2.39-2.265-.719 0-1.219.28-1.453.484v-2.922l-1.766.078v.469c.61 0 .688 0 .688.39V0h.468c.157-.188.328-.375.485-.563.078.079.562.625 1.453.625 1.484 0 2.515-.906 2.515-2.28Zm-1.28 0c0 .469 0 1.016-.25 1.406-.298.407-.75.516-1.079.516-.688 0-1.078-.547-1.188-.687v-2.5c.282-.36.75-.641 1.297-.641 1.22 0 1.22 1.203 1.22 1.906Zm0 0"/></symbol><symbol overflow="visible" id="c"><path style="stroke:none" d="M4.766-1.172c0-.14-.141-.14-.235-.14-.187 0-.187.03-.25.156-.25.625-.734.812-1.234.812-1.39 0-1.39-1.453-1.39-1.922 0-.562 0-1.843 1.28-1.843.36 0 .516.015.657.046a.618.618 0 0 0-.203.47c0 .437.343.624.609.624.313 0 .64-.219.64-.625 0-.86-1.156-.922-1.734-.922C1.11-4.516.375-3.375.375-2.219.375-.89 1.313.062 2.844.062c1.625 0 1.922-1.156 1.922-1.234Zm0 0"/></symbol><symbol overflow="visible" id="d"><path style="stroke:none" d="M4.922-1.172c0-.172-.188-.172-.234-.172-.172 0-.188.047-.25.203-.204.485-.782.797-1.422.797-1.407 0-1.422-1.328-1.422-1.828h3.015c.22 0 .313 0 .313-.265 0-.313-.063-1.047-.563-1.547-.359-.36-.89-.532-1.578-.532C1.187-4.516.312-3.484.312-2.25c0 1.344 1 2.313 2.61 2.313 1.578 0 2-1.063 2-1.235ZM3.984-2.5h-2.39c.015-.39.031-.813.234-1.14.266-.391.672-.516.953-.516 1.172 0 1.188 1.312 1.203 1.656Zm0 0"/></symbol><symbol overflow="visible" id="e"><path style="stroke:none" d="M4.36-6.11c0-.421-.36-.874-1.141-.874-.969 0-2.047.421-2.047 1.546v1.016h-.75v.469h.75V-.47H.484V0l1.25-.031c.375 0 1.016 0 1.375.031v-.469H2.25v-3.484h1.14v-.469H2.188v-1.016c0-1.093.75-1.187 1-1.187.047 0 .11 0 .172.031a.585.585 0 0 0-.234.485c0 .421.36.609.61.609.296 0 .624-.203.624-.61Zm0 0"/></symbol><symbol overflow="visible" id="f"><path style="stroke:none" d="M5.984 0v-.469c-.609 0-.687 0-.687-.39v-6.063l-1.766.078v.469c.625 0 .703 0 .703.39v1.954a2.178 2.178 0 0 0-1.359-.453c-1.453 0-2.5.875-2.5 2.28 0 1.313.922 2.267 2.39 2.267.61 0 1.094-.235 1.407-.485v.484ZM4.172-1.031c-.14.187-.547.734-1.297.734-1.219 0-1.219-1.203-1.219-1.906 0-.485 0-1.016.25-1.406.297-.422.766-.516 1.078-.516.563 0 .97.313 1.188.61Zm0 0"/></symbol><symbol overflow="visible" id="g"><path style="stroke:none" d="M5.25-1.797c0-.547-.297-1.406-1.734-1.719.687-.203 1.406-.765 1.406-1.625 0-.765-.75-1.39-2.156-1.39-1.188 0-1.97.64-1.97 1.437 0 .422.313.703.688.703a.668.668 0 0 0 .704-.687c0-.578-.547-.688-.579-.703.344-.282.782-.36 1.094-.36.828 0 .86.641.86.97 0 .124-.016 1.437-1.047 1.5-.407.015-.438.015-.485.03-.094.016-.125.11-.125.172 0 .172.11.172.282.172h.437c1.094 0 1.094.985 1.094 1.5 0 .469 0 1.484-1.031 1.484-.266 0-.782-.046-1.266-.343C1.75-.75 2-1 2-1.406c0-.453-.313-.75-.75-.75-.422 0-.766.265-.766.765 0 .907.97 1.5 2.25 1.5 1.782 0 2.516-1 2.516-1.906Zm0 0"/></symbol><symbol overflow="visible" id="h"><path style="stroke:none" d="M5.406 0v-.469h-.968v-1.094h.968v-.468h-.968V-6.22c0-.265-.016-.328-.297-.328-.22 0-.22.016-.344.172L.312-2.031v.469h2.876V-.47h-1.11V0c.375-.031 1.281-.031 1.703-.031.406 0 1.266 0 1.625.031Zm-2.11-2.031H.845L3.297-5.11Zm0 0"/></symbol><symbol overflow="visible" id="i"><path style="stroke:none" d="M5.156-2c0-1.156-.797-2.078-2.265-2.078-.282 0-.813.031-1.282.344v-1.313c.282.047.391.078.72.078 1.452 0 2.374-1.125 2.374-1.375 0-.078-.016-.187-.14-.187-.032 0-.032 0-.141.047a4.32 4.32 0 0 1-1.531.28c-.75 0-1.282-.202-1.547-.28-.094-.032-.094-.047-.125-.047-.14 0-.14.11-.14.265v2.922c0 .172 0 .297.218.297.125 0 .156-.031.219-.11.39-.468.921-.562 1.328-.562.89 0 .89.875.89 1.672 0 .735 0 1.735-1.187 1.735-.25 0-.875-.063-1.297-.625.36-.016.656-.266.656-.672 0-.532-.437-.672-.672-.672-.14 0-.671.094-.671.703 0 .844.78 1.687 2.015 1.687C4.172.11 5.156-.78 5.156-2Zm0 0"/></symbol><symbol overflow="visible" id="j"><path style="stroke:none" d="M5.25-2.047c0-1.39-1.016-2.125-2.219-2.125-.219 0-.781 0-1.203.766v-.188c0-1.14.219-1.562.281-1.719.25-.468.782-.828 1.391-.828.172 0 .516.032.75.266a.595.595 0 0 0-.547.61c0 .343.235.624.625.624s.625-.265.625-.64c0-.625-.422-1.25-1.469-1.25-1.359 0-3 .86-3 3.375 0 .781.079 1.578.5 2.265.47.766 1.22 1 1.922 1C4.281.11 5.25-.703 5.25-2.047Zm-1.36-.015c0 1 0 1.75-1.015 1.75-.516 0-.781-.391-.86-.563-.156-.313-.156-1.031-.156-1.219 0-1.25.532-1.719 1.079-1.719.953 0 .953.75.953 1.75Zm0 0"/></symbol><symbol overflow="visible" id="k"><path style="stroke:none" d="M3.813-1.234v-.532h-.47v.516c0 .672-.327.906-.609.906-.578 0-.578-.64-.578-.86v-2.75h1.469v-.468H2.156v-1.906h-.469c0 1-.484 1.984-1.484 2.016v.359h.828v2.734c0 1.063.86 1.282 1.578 1.282.75 0 1.204-.579 1.204-1.297Zm0 0"/></symbol><symbol overflow="visible" id="l"><path style="stroke:none" d="M4.406-3.672c0-.531-.531-.812-1.062-.812-.688 0-1.094.5-1.313 1.125v-1.125l-1.656.078v.468c.61 0 .688 0 .688.391v3.078H.375V0l1.25-.031C2-.031 2.641-.031 3 0v-.469h-.86v-1.75c0-.687.235-1.906 1.235-1.906 0 0-.188.172-.188.453 0 .406.329.61.61.61.297 0 .61-.204.61-.61Zm0 0"/></symbol><symbol overflow="visible" id="m"><path style="stroke:none" d="M5.156-2.219h-.468c-.032.203-.125.844-.266.906-.11.063-.86.063-1.016.063H1.937c.47-.39 1-.813 1.438-1.14 1.14-.844 1.781-1.313 1.781-2.25 0-1.157-1.047-1.891-2.437-1.891-1.219 0-2.156.625-2.156 1.515 0 .594.484.735.718.735C1.61-4.281 2-4.5 2-5c0-.516-.422-.672-.563-.719.282-.234.672-.343 1.032-.343.844 0 1.312.671 1.312 1.421 0 .688-.375 1.375-1.078 2.079l-2 2.046c-.14.11-.14.141-.14.344V0h4.28Zm0 0"/></symbol><symbol overflow="visible" id="n"><path style="stroke:none" d="M5.516-.234c0-.235-.125-.235-.266-.235-.61-.015-.61-.14-.61-.375v-2.14c0-.891-.702-1.532-2.187-1.532-.562 0-1.781.047-1.781.922 0 .438.344.625.61.625.312 0 .624-.219.624-.625 0-.297-.187-.469-.218-.5a5.28 5.28 0 0 1 .718-.062c.75 0 1.11.422 1.11 1.172v.343c-.72.032-3.25.125-3.25 1.563C.266-.125 1.5.062 2.187.062c.797 0 1.266-.406 1.485-.828 0 .313 0 .766 1.047.766h.468c.204 0 .329 0 .329-.234Zm-2-1.157c0 .97-.922 1.094-1.172 1.094-.516 0-.906-.344-.906-.797 0-1.062 1.578-1.203 2.078-1.234Zm0 0"/></symbol><symbol overflow="visible" id="o"><path style="stroke:none" d="M4.922 0v-.469h-1.39v-5.734c0-.234 0-.328-.266-.328-.11 0-.125 0-.22.078-.765.562-1.796.562-2 .562H.845v.47h.203c.156 0 .703-.016 1.297-.204v5.156H.954V0c.437-.031 1.5-.031 1.984-.031s1.546 0 1.984.031Zm0 0"/></symbol><clipPath id="a"><path d="M108 85h9.61v23H108Zm0 0"/></clipPath></defs><path style="fill:none;stroke-width:.3985;stroke-linecap:butt;stroke-linejoin:miter;stroke:#000;stroke-opacity:1;stroke-miterlimit:10" d="m.143-7.007.235-11.535" transform="matrix(1 0 0 -1 3.369 85.216)"/><path style="fill:none;stroke-width:.3985;stroke-linecap:round;stroke-linejoin:round;stroke:#000;stroke-opacity:1;stroke-miterlimit:10" d="M-2.074 2.393C-1.693.955-.85.278 0-.002-.85-.277-1.693-.956-2.074-2.39" transform="matrix(.02043 .99976 .99976 -.02043 3.752 103.958)"/><path style="fill:none;stroke-width:.3985;stroke-linecap:butt;stroke-linejoin:miter;stroke:#000;stroke-opacity:1;stroke-miterlimit:10" d="m6.573-29.417 18.34-14.12" transform="matrix(1 0 0 -1 3.369 85.216)"/><path style="fill:none;stroke-width:.3985;stroke-linecap:round;stroke-linejoin:round;stroke:#000;stroke-opacity:1;stroke-miterlimit:10" d="M-2.072 2.394C-1.694.954-.848.279-.002-.001c-.85-.28-1.69-.956-2.07-2.388" transform="matrix(.79234 .61 .61 -.79234 28.44 128.875)"/><g clip-path="url(#a)"><path style="fill:none;stroke-width:.3985;stroke-linecap:butt;stroke-linejoin:miter;stroke:#000;stroke-opacity:1;stroke-miterlimit:10" d="m110.714-16.948-.086 10.668" transform="matrix(1 0 0 -1 3.369 85.216)"/></g><path style="fill:none;stroke-width:.3985;stroke-linecap:round;stroke-linejoin:round;stroke:#000;stroke-opacity:1;stroke-miterlimit:10" d="M-2.07 2.391C-1.696.958-.85.28 0 0-.85-.28-1.695-.956-2.073-2.39" transform="matrix(-.0078 -.99992 -.99992 .0078 113.996 91.297)"/><path style="fill:none;stroke-width:.3985;stroke-linecap:butt;stroke-linejoin:miter;stroke:#000;stroke-opacity:1;stroke-miterlimit:10" d="M105.303 5.341 86.16 20.669" transform="matrix(1 0 0 -1 3.369 85.216)"/><path style="fill:none;stroke-width:.3985;stroke-linecap:round;stroke-linejoin:round;stroke:#000;stroke-opacity:1;stroke-miterlimit:10" d="M-2.07 2.391C-1.693.957-.85.28 0 0-.848-.28-1.693-.955-2.071-2.39" transform="matrix(-.7806 -.62494 -.62494 .7806 89.37 64.422)"/><path style="fill:none;stroke-width:.3985;stroke-linecap:butt;stroke-linejoin:miter;stroke:#000;stroke-opacity:1;stroke-miterlimit:10" d="M45.803-53.491 38.73-67.639" transform="matrix(1 0 0 -1 3.369 85.216)"/><path style="fill:none;stroke-width:.3985;stroke-linecap:round;stroke-linejoin:round;stroke:#000;stroke-opacity:1;stroke-miterlimit:10" d="M-2.074 2.39C-1.694.956-.848.278 0 0c-.85-.276-1.693-.956-2.072-2.39" transform="scale(-.99992 .99992) rotate(63.435 -144.82 42.534)"/><path style="fill:none;stroke-width:.3985;stroke-linecap:butt;stroke-linejoin:miter;stroke:#000;stroke-opacity:1;stroke-miterlimit:10" d="m52.811-53.491 7.098-14.195" transform="matrix(1 0 0 -1 3.369 85.216)"/><path style="fill:none;stroke-width:.3985;stroke-linecap:round;stroke-linejoin:round;stroke:#000;stroke-opacity:1;stroke-miterlimit:10" d="M-2.071 2.392C-1.691.957-.851.28-.001-.002-.85-.279-1.69-.956-2.073-2.39" transform="matrix(.44717 .89436 .89436 -.44717 63.365 153.082)"/><path style="fill:none;stroke-width:.3985;stroke-linecap:butt;stroke-linejoin:miter;stroke:#000;stroke-opacity:1;stroke-miterlimit:10" d="M60.085-81.62 52.9-95.983" transform="matrix(1 0 0 -1 3.369 85.216)"/><path style="fill:none;stroke-width:.3985;stroke-linecap:round;stroke-linejoin:round;stroke:#000;stroke-opacity:1;stroke-miterlimit:10" d="M-2.073 2.39C-1.693.958-.85.278 0 0-.85-.28-1.693-.955-2.07-2.392" transform="matrix(-.44717 .89436 .89436 .44717 56.182 181.379)"/><path style="fill:none;stroke-width:.3985;stroke-linecap:butt;stroke-linejoin:miter;stroke:#000;stroke-opacity:1;stroke-miterlimit:10" d="m66.874-81.62 7.183-14.363" transform="matrix(1 0 0 -1 3.369 85.216)"/><path style="fill:none;stroke-width:.3985;stroke-linecap:round;stroke-linejoin:round;stroke:#000;stroke-opacity:1;stroke-miterlimit:10" d="M-2.071 2.392C-1.691.957-.851.28-.001-.002-.85-.279-1.69-.956-2.073-2.39" transform="matrix(.44717 .89436 .89436 -.44717 77.514 181.379)"/><path style="fill:none;stroke-width:.3985;stroke-linecap:butt;stroke-linejoin:miter;stroke:#000;stroke-opacity:1;stroke-miterlimit:10" d="m87.557-41.964 16.75 13.867" transform="matrix(1 0 0 -1 3.369 85.216)"/><path style="fill:none;stroke-width:.3985;stroke-linecap:round;stroke-linejoin:round;stroke:#000;stroke-opacity:1;stroke-miterlimit:10" d="M-2.072 2.391C-1.692.956-.849.278.001.001c-.85-.28-1.694-.956-2.073-2.393" transform="scale(.99993 -.99993) rotate(39.629 210.995 93.047)"/><path style="fill:none;stroke-width:.3985;stroke-linecap:butt;stroke-linejoin:miter;stroke:#000;stroke-opacity:1;stroke-miterlimit:10" d="m52.503 47.17-7.7-15.4" transform="matrix(1 0 0 -1 3.369 85.216)"/><path style="fill:none;stroke-width:.3985;stroke-linecap:round;stroke-linejoin:round;stroke:#000;stroke-opacity:1;stroke-miterlimit:10" d="M-2.073 2.389C-1.693.959-.85.279 0 .001-.85-.28-1.693-.955-2.073-2.39" transform="matrix(-.44717 .89436 .89436 .44717 48.081 53.625)"/><path style="fill:none;stroke-width:.3985;stroke-linecap:butt;stroke-linejoin:miter;stroke:#000;stroke-opacity:1;stroke-miterlimit:10" d="m58.307 47.17 7.703-15.4" transform="matrix(1 0 0 -1 3.369 85.216)"/><path style="fill:none;stroke-width:.3985;stroke-linecap:round;stroke-linejoin:round;stroke:#000;stroke-opacity:1;stroke-miterlimit:10" d="M-2.071 2.391C-1.692.957-.851.28 0 .001c-.853-.28-1.693-.957-2.074-2.391" transform="matrix(.44717 .89438 .89438 -.44717 69.467 53.625)"/><path style="fill:none;stroke-width:.3985;stroke-linecap:butt;stroke-linejoin:miter;stroke:#000;stroke-opacity:1;stroke-miterlimit:10" d="M25.214 20.61 7.01 5.733" transform="matrix(1 0 0 -1 3.369 85.216)"/><path style="fill:none;stroke-width:.3985;stroke-linecap:round;stroke-linejoin:round;stroke:#000;stroke-opacity:1;stroke-miterlimit:10" d="M-2.072 2.393C-1.692.957-.849.278-.002-.001c-.849-.28-1.694-.956-2.07-2.39" transform="matrix(-.77422 .63284 .63284 .77422 10.226 79.61)"/><use xlink:href="#b" x=".185" y="88.643" style="fill:#000;fill-opacity:1"/><use xlink:href="#c" x="1.329" y="112.19" style="fill:#000;fill-opacity:1"/><use xlink:href="#d" x="111.499" y="110.195" style="fill:#000;fill-opacity:1"/><use xlink:href="#e" x="112.189" y="87.578" style="fill:#000;fill-opacity:1"/><use xlink:href="#f" x="49.49" y="135.128" style="fill:#000;fill-opacity:1"/><use xlink:href="#g" x="35.636" y="163.255" style="fill:#000;fill-opacity:1"/><use xlink:href="#h" x="63.983" y="163.315" style="fill:#000;fill-opacity:1"/><use xlink:href="#i" x="49.809" y="191.601" style="fill:#000;fill-opacity:1"/><use xlink:href="#j" x="78.156" y="191.601" style="fill:#000;fill-opacity:1"/><path style="fill:none;stroke-width:.3985;stroke-linecap:butt;stroke-linejoin:miter;stroke:#000;stroke-opacity:1;stroke-miterlimit:10" d="M-30.964-38.589h61.93v91.125h-61.93Zm0 0" transform="matrix(1 0 0 -1 59.76 159.962)"/><g style="fill:#000;fill-opacity:1"><use xlink:href="#k" x="32.117" y="119.115"/><use xlink:href="#l" x="36.57" y="119.115"/><use xlink:href="#d" x="41.292" y="119.115"/><use xlink:href="#d" x="46.542" y="119.115"/></g><use xlink:href="#m" x="55.11" y="119.115" style="fill:#000;fill-opacity:1"/><use xlink:href="#n" x="55.989" y="34.467" style="fill:#000;fill-opacity:1"/><use xlink:href="#o" x="41.736" y="63.849" style="fill:#000;fill-opacity:1"/><use xlink:href="#m" x="70.082" y="63.849" style="fill:#000;fill-opacity:1"/><path style="fill:none;stroke-width:.3985;stroke-linecap:butt;stroke-linejoin:miter;stroke:#000;stroke-opacity:1;stroke-miterlimit:10" d="M38.794 6.975c0 21.426-17.367 38.793-38.793 38.793S-38.792 28.401-38.792 6.975-21.425-31.822.001-31.822 38.794-14.45 38.794 6.975Zm0 0" transform="matrix(1 0 0 -1 58.773 46.901)"/><g style="fill:#000;fill-opacity:1"><use xlink:href="#k" x="38.215" y="20.855"/><use xlink:href="#l" x="42.669" y="20.855"/><use xlink:href="#d" x="47.391" y="20.855"/><use xlink:href="#d" x="52.641" y="20.855"/></g><use xlink:href="#o" x="61.209" y="20.855" style="fill:#000;fill-opacity:1"/></svg>