<svg xmlns="http://www.w3.org/2000/svg" width="116.077" height="87.05pt" viewBox="0 0 87.058 87.05" version="1.2"><path style="fill:none;stroke-width:.3985;stroke-linecap:butt;stroke-linejoin:miter;stroke:#000;stroke-opacity:1;stroke-miterlimit:10" d="M-42.519 0h85.04M0-42.52v85.039M28.348 0c0 15.655-12.691 28.347-28.347 28.347-15.657 0-28.348-12.692-28.348-28.348 0-15.656 12.691-28.348 28.348-28.348 15.656 0 28.347 12.692 28.347 28.348ZM-39.687-28.349h79.371m-79.37 14.176h79.37M-39.686 0h79.37m-79.37 14.176h79.37m-79.37 14.172h79.37m-68.031-68.031v79.37m14.172-79.37v79.37M0-39.683v79.37m14.171-79.37v79.37m14.176-79.37v79.37" transform="matrix(1 0 0 -1 43.058 43.046)"/></svg>