<svg xmlns="http://www.w3.org/2000/svg" xmlns:xlink="http://www.w3.org/1999/xlink" width="116.451" height="78.723" viewBox="0 0 87.338 59.042" version="1.2"><defs><symbol overflow="visible" id="a"><path style="stroke:none" d="M.453-4.531c.531-.657.625-1.563.188-2.219-.454-.688-1.5-.672-2.282-.14-.843.546-1.14 1.484-.703 2.124.172.266.453.297.703.125.25-.156.297-.437.141-.687-.281-.406-.672-.156-.797-.078-.015-.578.453-1.047.75-1.235.36-.234.938-.375 1.438.375.062.094.343.594.39 1.11.016.562-.25.781-.469.922-.046.062-.234.203-.296.25-.063.03-.094.093-.047.171.062.094.11.047.265-.046l.36-.235c.672-.453 1.36-.093 1.906.719.75 1.14.328 1.75-.031 2-.36.234-1.078.516-1.688.219.313-.157.453-.5.25-.813A.545.545 0 0 0-.25-2.14c-.203.141-.39.422-.156.782.5.765 1.656.796 2.562.187 1.016-.672 1.266-1.937.703-2.781-.453-.672-1.421-.969-2.406-.578Zm0 0"/></symbol><symbol overflow="visible" id="b"><path style="stroke:none" d="M4.11-6.797C2.983-8.484.827-9-.689-8c-1.484 1-1.859 3.156-.718 4.875 1.14 1.703 3.265 2.156 4.75 1.156 1.515-1 1.89-3.14.765-4.828Zm-.923 4.61c-.78.53-2.39.546-3.828-1.61-1.421-2.14-.593-3.531.094-4 .719-.469 2.297-.687 3.719 1.453 1.469 2.188.781 3.657.015 4.157Zm0 0"/></symbol><clipPath id="c"><path d="M0 0h87.008v58.563H0Zm0 0"/></clipPath></defs><path style="fill:none;stroke-width:.3985;stroke-linecap:butt;stroke-linejoin:miter;stroke:#000;stroke-opacity:1;stroke-miterlimit:10" d="M52.157 38.961 28.95 23.49l3.867-5.801 23.211 15.473Zm0 0" transform="matrix(1 0 0 -1 .796 57.395)"/><g style="fill:#000;fill-opacity:1"><use xlink:href="#a" x="53.985" y="38.778"/><use xlink:href="#b" x="58.13" y="36.015"/></g><g clip-path="url(#c)"><path style="fill:none;stroke-width:.3985;stroke-linecap:butt;stroke-linejoin:miter;stroke:#000;stroke-opacity:1;stroke-miterlimit:10" d="m0 0 30.716 20.477m23.543 15.695 30.78 20.52" transform="matrix(1 0 0 -1 .796 57.395)"/></g></svg>