<svg xmlns="http://www.w3.org/2000/svg" width="381.003" height="78.819" viewBox="0 0 285.752 59.114" version="1.2"><defs><clipPath id="a"><path d="M0 0h285.629v58.672H0Zm0 0"/></clipPath></defs><g clip-path="url(#a)"><path style="fill:none;stroke-width:.3985;stroke-linecap:butt;stroke-linejoin:miter;stroke:#000;stroke-opacity:1;stroke-miterlimit:10" d="M-.001 0S10.779 10.826 14.92 14.24c4.141 3.418 10.778 8.43 14.918 10.387 4.141 1.957 10.782 3.754 14.918 3.718 4.141-.03 10.782-1.937 14.922-3.949 4.14-2.015 10.778-7.11 14.918-10.554C78.736 10.39 85.377 3.489 89.514-.46c4.14-3.953 10.781-10.793 14.922-14.176 4.14-3.387 10.777-8.316 14.918-10.215 4.14-1.902 10.781-3.582 14.922-3.488 4.137.098 10.777 2.117 14.918 4.183 4.14 2.07 10.777 7.243 14.918 10.723 4.14 3.48 10.781 10.406 14.922 14.356 4.14 3.949 10.777 10.757 14.918 14.109 4.14 3.352 10.78 8.195 14.918 10.039 4.14 1.844 10.78 3.414 14.922 3.254 4.14-.164 10.777-2.293 14.917-4.414 4.141-2.125 10.782-7.375 14.922-10.887 4.137-3.508 10.778-10.465 14.918-14.41 4.14-3.945 14.918-14.035 14.918-14.035" transform="matrix(1 0 0 -1 1.021 29.114)"/></g></svg>