<svg xmlns="http://www.w3.org/2000/svg" xmlns:xlink="http://www.w3.org/1999/xlink" width="382.155" height="56.019" viewBox="0 0 286.616 42.014" version="1.2"><defs><clipPath id="e"><path d="M72.25 10.55h141.73v19.927H72.25Zm0 0"/></clipPath><clipPath id="a"><path d="M0 0h12v12H0z"/></clipPath><clipPath id="g"><path d="M72.25 10.55h141.734v19.927H72.25Zm0 0"/></clipPath><clipPath id="c"><path d="M0 0h100v4H0z"/></clipPath><pattern id="f" patternUnits="userSpaceOnUse" width="12" height="12" patternTransform="matrix(.9449 0 0 -.9449 -71.75 13618.551)"><use xlink:href="#b"/></pattern><pattern id="h" patternUnits="userSpaceOnUse" width="100" height="4" patternTransform="matrix(.99628 0 0 -.99628 -71.75 13618.551)"><use xlink:href="#d"/></pattern><g id="b" clip-path="url(#a)"><path style="fill:#000;fill-opacity:1;stroke:none" d="M0 0h12v12H0z"/><path style="stroke:none;fill-rule:nonzero;fill:#ccc;fill-opacity:1" d="M0 0h6v6H0Zm6 6h6v6H6Zm0 0"/></g><g id="d" clip-path="url(#c)"><path style="stroke:none;fill-rule:nonzero;fill:#e5e5e5;fill-opacity:1" d="M0 0h100v2.5H0Zm0 0"/><path style="stroke:none;fill-rule:nonzero;fill:#d9d9d9;fill-opacity:1" d="M0 2h100v2.5H0Zm0 0"/></g></defs><g clip-path="url(#e)"><path style="stroke:none;fill-rule:nonzero;fill:url(#f)" d="M72.25 30.477h141.73V10.55H72.25Zm0 0"/></g><g clip-path="url(#g)"><path style="stroke:none;fill-rule:nonzero;fill:url(#h)" d="M72.25 30.477h141.734V10.55H72.25Zm0 0"/></g></svg>