<svg xmlns="http://www.w3.org/2000/svg" width="299.787" height="116.619" viewBox="0 0 224.84 87.464" version="1.2"><defs><clipPath id="a"><path d="M0 9h224.762v69H0Zm0 0"/></clipPath><clipPath id="b"><path d="M0 0h224.762v87.195H0Zm0 0"/></clipPath></defs><g clip-path="url(#a)"><path style="fill:none;stroke-width:.3985;stroke-linecap:butt;stroke-linejoin:miter;stroke:#000;stroke-opacity:1;stroke-miterlimit:10" d="M.001 0C14.51 14.512 28.396 28.348 44.505 28.348c16.11 0 29.996-13.836 44.504-28.348 14.508-14.511 28.395-28.347 44.504-28.347 16.113 0 29.996 13.836 44.504 28.347 14.512 14.512 28.395 28.348 44.508 28.348" transform="matrix(1 0 0 -1 1.065 43.469)"/></g><g clip-path="url(#b)"><path style="fill:none;stroke-width:.3985;stroke-linecap:butt;stroke-linejoin:miter;stroke:red;stroke-opacity:1;stroke-miterlimit:10" d="M.001 42.52c16.11 0 29.997-20.75 44.504-42.52C59.013-21.77 72.9-42.52 89.01-42.52c16.11 0 29.996 20.75 44.504 42.52 14.508 21.77 28.395 42.52 44.504 42.52 16.113 0 29.996-20.75 44.508-42.52" transform="matrix(1 0 0 -1 1.065 43.469)"/></g></svg>