<svg xmlns="http://www.w3.org/2000/svg" width="40.487" height="7.443" viewBox="0 0 30.365 5.582" version="1.2"><defs><clipPath id="a"><path d="M0 0h11v5.371H0Zm0 0"/></clipPath><clipPath id="b"><path d="M19 0h11.047v5.371H19Zm0 0"/></clipPath></defs><path style="fill:none;stroke-width:.3985;stroke-linecap:butt;stroke-linejoin:miter;stroke:#000;stroke-opacity:1;stroke-miterlimit:10" d="M3.762.001h20.824" transform="matrix(1 0 0 -1 .692 2.587)"/><path style="stroke:none;fill-rule:nonzero;fill:#000;fill-opacity:1" d="M4.652 2.586c-.46.113-2.492.754-3.761 1.45V1.14c1.27.695 3.3 1.332 3.761 1.445Zm0 0"/><g clip-path="url(#a)"><path style="fill:none;stroke-width:.3985;stroke-linecap:butt;stroke-linejoin:miter;stroke:#000;stroke-opacity:1;stroke-miterlimit:10" d="M-3.762-.001C-3.3.112-1.269.753 0 1.449v-2.895C-1.27-.751-3.3-.114-3.762-.001Zm0 0" transform="matrix(-1 0 0 1 .89 2.587)"/></g><path style="stroke:none;fill-rule:nonzero;fill:#000;fill-opacity:1" d="M25.078 2.586c.461-.113 2.492-.75 3.762-1.445v2.894c-1.27-.695-3.3-1.336-3.762-1.45Zm0 0"/><g clip-path="url(#b)"><path style="fill:none;stroke-width:.3985;stroke-linecap:butt;stroke-linejoin:miter;stroke:#000;stroke-opacity:1;stroke-miterlimit:10" d="M-3.76.001C-3.3.114-1.27.751 0 1.446v-2.894C-1.268-.753-3.3-.112-3.76.002Zm0 0" transform="matrix(1 0 0 -1 28.84 2.587)"/></g></svg>